  0
SECTION
  2
HEADER
  9
$ACADVER
  1
AC1015
  9
$ACADMAINTVER
 70
         6
  9
$DWGCODEPAGE
  3
ANSI_1252
  9
$INSBASE
 10
0.0
 20
0.0
 30
0.0
  9
$EXTMIN
 10
0.0
 20
0.0
 30
0.0
  9
$EXTMAX
 10
297.0
 20
210.0
 30
0.0
  9
$LIMMIN
 10
0.0
 20
0.0
  9
$LIMMAX
 10
297.0
 20
210.0
  9
$ORTHOMODE
 70
         0
  9
$REGENMODE
 70
         1
  9
$FILLMODE
 70
         1
  9
$QTEXTMODE
 70
         0
  9
$MIRRTEXT
 70
         1
  9
$LTSCALE
 40
7.425
  9
$ATTMODE
 70
         1
  9
$TEXTSIZE
 40
0.2
  9
$TRACEWID
 40
0.05
  9
$TEXTSTYLE
  7
Standard
  9
$CLAYER
  8
0
  9
$CELTYPE
  6
CONTINUOUS
  9
$CECOLOR
 62
       256
  9
$CELTSCALE
 40
1.0
  9
$DISPSILH
 70
         0
  9
$DIMSCALE
 40
1.0
  9
$DIMASZ
 40
0.18
  9
$DIMEXO
 40
0.0625
  9
$DIMDLI
 40
0.38
  9
$DIMRND
 40
0.0
  9
$DIMDLE
 40
0.0
  9
$DIMEXE
 40
0.18
  9
$DIMTP
 40
0.0
  9
$DIMTM
 40
0.0
  9
$DIMTXT
 40
3.0
  9
$DIMCEN
 40
0.09
  9
$DIMTSZ
 40
0.0
  9
$DIMTOL
 70
         0
  9
$DIMLIM
 70
         0
  9
$DIMTIH
 70
         1
  9
$DIMTOH
 70
         1
  9
$DIMSE1
 70
         0
  9
$DIMSE2
 70
         0
  9
$DIMTAD
 70
         1
  9
$DIMZIN
 70
         0
  9
$DIMBLK
  1

  9
$DIMASO
 70
         1
  9
$DIMSHO
 70
         1
  9
$DIMPOST
  1
<>
  9
$DIMAPOST
  1

  9
$DIMALT
 70
         0
  9
$DIMALTD
 70
         2
  9
$DIMALTF
 40
25.4
  9
$DIMLFAC
 40
1.0
  9
$DIMTOFL
 70
         0
  9
$DIMTVP
 40
0.0
  9
$DIMTIX
 70
         0
  9
$DIMSOXD
 70
         0
  9
$DIMSAH
 70
         0
  9
$DIMBLK1
  1

  9
$DIMBLK2
  1

  9
$DIMSTYLE
  2
Standard
  9
$DIMCLRD
 70
         0
  9
$DIMCLRE
 70
         0
  9
$DIMCLRT
 70
         0
  9
$DIMTFAC
 40
1.0
  9
$DIMGAP
 40
0.09
  9
$DIMJUST
 70
         0
  9
$DIMSD1
 70
         0
  9
$DIMSD2
 70
         0
  9
$DIMTOLJ
 70
         1
  9
$DIMTZIN
 70
         0
  9
$DIMALTZ
 70
         0
  9
$DIMALTTZ
 70
         0
  9
$DIMUPT
 70
         0
  9
$DIMDEC
 70
         4
  9
$DIMTDEC
 70
         4
  9
$DIMALTU
 70
         2
  9
$DIMALTTD
 70
         2
  9
$DIMTXSTY
  7
Standard
  9
$DIMAUNIT
 70
         0
  9
$DIMADEC
 70
         0
  9
$DIMALTRND
 40
0.0
  9
$DIMAZIN
 70
         0
  9
$DIMDSEP
 70
         0
  9
$DIMATFIT
 70
         3
  9
$DIMFRAC
 70
         0
  9
$DIMLDRBLK
  1

  9
$DIMLUNIT
 70
         2
  9
$DIMLWD
 70
         0
  9
$DIMLWE
 70
         0
  9
$DIMTMOVE
 70
         0
  9
$LUNITS
 70
         2
  9
$LUPREC
 70
         4
  9
$SKETCHINC
 40
0.1
  9
$FILLETRAD
 40
0.0
  9
$AUNITS
 70
         0
  9
$AUPREC
 70
         0
  9
$MENU
  1
acad
  9
$ELEVATION
 40
0.0
  9
$PELEVATION
 40
0.0
  9
$THICKNESS
 40
0.0
  9
$LIMCHECK
 70
         0
  9
$CHAMFERA
 40
0.0
  9
$CHAMFERB
 40
0.0
  9
$CHAMFERC
 40
0.0
  9
$CHAMFERD
 40
0.0
  9
$SKPOLY
 70
         0
  9
$TDCREATE
 40
0.000000000
  9
$TDUCREATE
 40
0.000000000
  9
$TDUPDATE
 40
0.000000000
  9
$TDUUPDATE
 40
0.000000000
  9
$TDINDWG
 40
0.0000000000
  9
$TDUSRTIMER
 40
0.0000000000
  9
$USRTIMER
 70
         1
  9
$ANGBASE
 50
0.0
  9
$ANGDIR
 70
         0
  9
$PDMODE
 70
         0
  9
$PDSIZE
 40
0.0
  9
$PLINEWID
 40
0.0
  9
$SPLFRAME
 70
         0
  9
$SPLINETYPE
 70
         6
  9
$SPLINESEGS
 70
         8
  9
$HANDSEED
  5
166
  9
$SURFTAB1
 70
         6
  9
$SURFTAB2
 70
         6
  9
$SURFTYPE
 70
         6
  9
$SURFU
 70
         6
  9
$SURFV
 70
         6
  9
$UCSBASE
  2

  9
$UCSNAME
  2

  9
$UCSORG
 10
0.0
 20
0.0
 30
0.0
  9
$UCSXDIR
 10
1.0
 20
0.0
 30
0.0
  9
$UCSYDIR
 10
0.0
 20
1.0
 30
0.0
  9
$UCSORTHOREF
  2

  9
$UCSORTHOVIEW
 70
         0
  9
$UCSORGTOP
 10
0.0
 20
0.0
 30
0.0
  9
$UCSORGBOTTOM
 10
0.0
 20
0.0
 30
0.0
  9
$UCSORGLEFT
 10
0.0
 20
0.0
 30
0.0
  9
$UCSORGRIGHT
 10
0.0
 20
0.0
 30
0.0
  9
$UCSORGFRONT
 10
0.0
 20
0.0
 30
0.0
  9
$UCSORGBACK
 10
0.0
 20
0.0
 30
0.0
  9
$PUCSBASE
  2

  9
$PUCSNAME
  2

  9
$PUCSORG
 10
0.0
 20
0.0
 30
0.0
  9
$PUCSXDIR
 10
1.0
 20
0.0
 30
0.0
  9
$PUCSYDIR
 10
0.0
 20
1.0
 30
0.0
  9
$PUCSORTHOREF
  2

  9
$PUCSORTHOVIEW
 70
         0
  9
$PUCSORGTOP
 10
0.0
 20
0.0
 30
0.0
  9
$PUCSORGBOTTOM
 10
0.0
 20
0.0
 30
0.0
  9
$PUCSORGLEFT
 10
0.0
 20
0.0
 30
0.0
  9
$PUCSORGRIGHT
 10
0.0
 20
0.0
 30
0.0
  9
$PUCSORGFRONT
 10
0.0
 20
0.0
 30
0.0
  9
$PUCSORGBACK
 10
0.0
 20
0.0
 30
0.0
  9
$USERI1
 70
         0
  9
$USERI2
 70
         0
  9
$USERI3
 70
         0
  9
$USERI4
 70
         0
  9
$USERI5
 70
         0
  9
$USERR1
 40
0.0
  9
$USERR2
 40
0.0
  9
$USERR3
 40
0.0
  9
$USERR4
 40
0.0
  9
$USERR5
 40
0.0
  9
$WORLDVIEW
 70
         1
  9
$SHADEDGE
 70
         3
  9
$SHADEDIF
 70
        70
  9
$TILEMODE
 70
         1
  9
$MAXACTVP
 70
        16
  9
$PINSBASE
 10
0.0
 20
0.0
 30
0.0
  9
$PLIMCHECK
 70
         0
  9
$PEXTMIN
 10
1.0000000000E+20
 20
1.0000000000E+20
 30
1.0000000000E+20
  9
$PEXTMAX
 10
-1.0000000000E+20
 20
-1.0000000000E+20
 30
-1.0000000000E+20
  9
$PLIMMIN
 10
0.0
 20
0.0
  9
$PLIMMAX
 10
12.0
 20
9.0
  9
$UNITMODE
 70
         0
  9
$VISRETAIN
 70
         0
  9
$PLINEGEN
 70
         1
  9
$PSLTSCALE
 70
         0
  9
$TREEDEPTH
 70
      3020
  9
$CMLSTYLE
  2
Standard
  9
$CMLJUST
 70
         0
  9
$CMLSCALE
 40
1.0
  9
$PROXYGRAPHICS
 70
         0
  9
$MEASUREMENT
 70
         1
  9
$CELWEIGHT
370
         0
  9
$ENDCAPS
280
         0
  9
$JOINSTYLE
280
         0
  9
$LWDISPLAY
290
         0
  9
$INSUNITS
 70
         0
  9
$HYPERLINKBASE
  1

  9
$STYLESHEET
  1

  9
$XEDIT
290
         1
  9
$CEPSNTYPE
380
         0
  9
$PSTYLEMODE
290
         1
  9
$FINGERPRINTGUID
  2

  9
$VERSIONGUID
  2

  9
$EXTNAMES
290
         1
  9
$PSVPSCALE
 40
0.0
  0
ENDSEC
  0
SECTION
  2
CLASSES
  0
CLASS
  1
LWPOLYLINE
  2
AcDbPolyline
  3
AutoCAD 2000
 90
        0
280
         0
281
         1
  0
CLASS
  1
IMAGE
  2
AcDbRasterImage
  3
ISM
 90
      127
280
         0
281
         1
  0
CLASS
  1
OLE2FRAME
  2
AcDbOle2Frame
  3
AutoCAD 2000
 90
        0
280
         0
281
         1
  0
CLASS
  1
HATCH
  2
AcDbHatch
  3
AutoCAD 2000
 90
        0
280
         0
281
         1
  0
CLASS
  1
DICTIONARYVAR
  2
AcDbDictionaryVar
  3
AutoCAD 2000
 90
        0
280
         0
281
         0
  0
CLASS
  1
RASTERVARIABLES
  2
AcDbRasterVariables
  3
ISM
 90
        0
280
         0
281
         0
  0
CLASS
  1
IMAGEDEF
  2
AcDbRasterImageDef
  3
ISM
 90
        0
280
         0
281
         0
  0
CLASS
  1
IMAGEDEF_REACTOR
  2
AcDbRasterImageDefReactor
  3
ISM
 90
        1
280
         0
281
         0
  0
CLASS
  1
IDBUFFER
  2
AcDbIdBuffer
  3
AutoCAD 2000
 90
        0
280
         0
281
         0
  0
CLASS
  1
SPATIAL_FILTER
  2
AcDbSpatialFilter
  3
AutoCAD 2000
 90
        0
280
         0
281
         0
  0
CLASS
  1
XRECORD
  2
AcDbXrecord
  3
AutoCAD 2000
 90
        0
280
         0
281
         0
  0
CLASS
  1
SORTENTSTABLE
  2
AcDbSortentsTable
  3
AutoCAD 2000
 90
        0
280
         0
281
         0
  0
CLASS
  1
LAYER_INDEX
  2
AcDbLayerIndex
  3
AutoCAD 2000
 90
        0
280
         0
281
         0
  0
CLASS
  1
SPATIAL_INDEX
  2
AcDbSpatialIndex
  3
AutoCAD 2000
 90
        0
280
         0
281
         0
  0
CLASS
  1
OBJECT_PTR
  2
CAseDLPNTableRecord
  3
"ASE-LPNTableRecord"
 90
        1
280
         0
281
         0
  0
CLASS
  1
LAYOUT
  2
AcDbLayout
  3
AutoCAD 2000
 90
        0
280
         0
281
         0
  0
CLASS
  1
PLOTSETTINGS
  2
AcDbPlotSettings
  3
AutoCAD 2000
 90
        0
280
         0
281
         0
  0
CLASS
  1
ACDBDICTIONARYWDFLT
  2
AcDbDictionaryWithDefault
  3
AutoCAD 2000
 90
        0
280
         0
281
         0
  0
CLASS
  1
ACDBPLACEHOLDER
  2
AcDbPlaceHolder
  3
AutoCAD 2000
 90
        0
280
         0
281
         0
  0
CLASS
  1
VBA_PROJECT
  2
AcDbVbaProject
  3
acadvba
 90
        0
280
         0
281
         0
  0
CLASS
  1
WIPEOUT
  2
AcDbWipeout
  3
WipeOut|AutoCAD Express Tool|expresstools@autodesk.com
 90
      127
280
         0
281
         1
  0
CLASS
  1
WIPEOUTVARIABLES
  2
AcDbWipeoutVariables
  3
WipeOut|AutoCAD Express Tool|expresstools@autodesk.com
 90
        0
280
         0
281
         0
  0
CLASS
  1
RTEXT
  2
RText
  3
RText|AutoCAD Express Tool|expresstools@autodesk.com
 90
        0
280
         0
281
         1
  0
CLASS
  1
ARCALIGNEDTEXT
  2
AcDbArcAlignedText
  3
ATEXT|AutoCAD Express Tool|expresstools@autodesk.com
 90
        0
280
         0
281
         1
  0
ENDSEC
  0
SECTION
  2
TABLES
  0
TABLE
  2
VPORT
  5
7
100
AcDbSymbolTable
 70
         1
  0
VPORT
  5
15
100
AcDbSymbolTableRecord
100
AcDbViewportTableRecord
  2
*ACTIVE
 70
         0
 10
0.0
 20
0.0
 11
1.0
 21
1.0
 12
148.5
 22
105.0
 13
0.0
 23
0.0
 14
1.0
 24
1.0
 15
0.0
 25
0.0
 16
0.0
 26
0.0
 36
1.0
 17
0.0
 27
0.0
 37
0.0
 40
231.2943892345
 41
1.0
 42
50.0
 43
0.0
 44
0.0
 50
0.0
 51
0.0
 71
         0
 72
       100
 73
         1
 74
         1
 75
         0
 76
         0
 77
         0
 78
         0
281
         0
 65
         0
110
0.0
120
0.0
130
0.0
111
1.0
121
0.0
131
0.0
112
0.0
122
1.0
132
0.0
345
0
346
0
 79
         0
146
0.0
  0
ENDTAB
  0
TABLE
  2
LTYPE
  5
4
100
AcDbSymbolTable
 70
        12
  0
LTYPE
  5
11
100
AcDbSymbolTableRecord
100
AcDbLinetypeTableRecord
  2
ByBlock
 70
        64
  3

 72
        65
 73
         0
 40
0.0
  0
LTYPE
  5
12
100
AcDbSymbolTableRecord
100
AcDbLinetypeTableRecord
  2
ByLayer
 70
        64
  3

 72
        65
 73
         0
 40
0.0
  0
LTYPE
  5
13
100
AcDbSymbolTableRecord
100
AcDbLinetypeTableRecord
  2
CONTINUOUS
 70
        64
  3
Solid Line
 72
        65
 73
         0
 40
0.0
  0
LTYPE
  5
24
100
AcDbSymbolTableRecord
100
AcDbLinetypeTableRecord
  2
DOT
 70
        64
  3
. . . . . . . . . . . . . . . . . . . . . . 
 72
        65
 73
         2
 40
0.25
 49
0.0
 74
         0
 49
-0.25
 74
         0
  0
LTYPE
  5
25
100
AcDbSymbolTableRecord
100
AcDbLinetypeTableRecord
  2
HIDDEN
 70
         0
  3
_ _ _ _ _ _ _ _ _ _ _ _ _ _ _ _ _ _ _ _ _ _ _
 72
        65
 73
         2
 40
0.375
 49
0.25
 74
         0
 49
-0.125
 74
         0
  0
LTYPE
  5
26
100
AcDbSymbolTableRecord
100
AcDbLinetypeTableRecord
  2
DASHDOT
 70
         0
  3
__ . __ . __ . __ . __ . __ . __ . __ . __ . __
 72
        65
 73
         4
 40
1.0
 49
0.5
 74
         0
 49
-0.25
 74
         0
 49
0.0
 74
         0
 49
-0.25
 74
         0
  0
LTYPE
  5
27
100
AcDbSymbolTableRecord
100
AcDbLinetypeTableRecord
  2
DIVIDE
 70
         0
  3
__ . . __ . . __ . . __ . . __ . . __ . . __
 72
        65
 73
         6
 40
1.25
 49
0.5
 74
         0
 49
-0.25
 74
         0
 49
0.0
 74
         0
 49
-0.25
 74
         0
 49
0.0
 74
         0
 49
-0.25
 74
         0
  0
LTYPE
  5
28
100
AcDbSymbolTableRecord
100
AcDbLinetypeTableRecord
  2
DASHED
 70
         0
  3
__ __ __ __ __ __ __ __ __ __ __ __ __ __ __
 72
        65
 73
         2
 40
0.75
 49
0.5
 74
         0
 49
-0.25
 74
         0
  0
LTYPE
  5
29
100
AcDbSymbolTableRecord
100
AcDbLinetypeTableRecord
  2
BORDER
 70
         0
  3
__ __ . __ __ . __ __ . __ __ . __ __ .
 72
        65
 73
         6
 40
1.75
 49
0.5
 74
         0
 49
-0.25
 74
         0
 49
0.5
 74
         0
 49
-0.25
 74
         0
 49
0.0
 74
         0
 49
-0.25
 74
         0
  0
LTYPE
  5
2A
100
AcDbSymbolTableRecord
100
AcDbLinetypeTableRecord
  2
CENTER
 70
         0
  3
____ _ ____ _ ____ _ ____ _ ____ _ ____
 72
        65
 73
         4
 40
2.0
 49
1.25
 74
         0
 49
-0.25
 74
         0
 49
0.25
 74
         0
 49
-0.25
 74
         0
  0
LTYPE
  5
2B
100
AcDbSymbolTableRecord
100
AcDbLinetypeTableRecord
  2
DOT2
 70
         0
  3
........................................
 72
        65
 73
         2
 40
0.125
 49
0.0
 74
         0
 49
-0.125
 74
         0
  0
LTYPE
  5
2C
100
AcDbSymbolTableRecord
100
AcDbLinetypeTableRecord
  2
PHANTOM
 70
         0
  3
______  __  __  ______  __  __  ______
 72
        65
 73
         6
 40
2.5
 49
1.25
 74
         0
 49
-0.25
 74
         0
 49
0.25
 74
         0
 49
-0.25
 74
         0
 49
0.25
 74
         0
 49
-0.25
 74
         0
  0
ENDTAB
  0
TABLE
  2
LAYER
  5
2
100
AcDbSymbolTable
 70
       122
  0
LAYER
  5
14
100
AcDbSymbolTableRecord
100
AcDbLayerTableRecord
  2
0
 70
         0
 62
         7
  6
CONTINUOUS
290
         1
370
        -3
390
1D
  0
LAYER
  5
33
100
AcDbSymbolTableRecord
100
AcDbLayerTableRecord
  2
BESCHRIFTUNG
 70
        64
 62
         7
  6
CONTINUOUS
290
         1
370
        25
390
1D
  0
LAYER
  5
34
100
AcDbSymbolTableRecord
100
AcDbLayerTableRecord
  2
SCHRAFFUR
 70
        64
 62
         7
  6
CONTINUOUS
290
         1
370
        25
390
1D
  0
LAYER
  5
35
100
AcDbSymbolTableRecord
100
AcDbLayerTableRecord
  2
MASSTEXTE
 70
        64
 62
       212
  6
CONTINUOUS
290
         1
370
        25
390
1D
  0
LAYER
  5
36
100
AcDbSymbolTableRecord
100
AcDbLayerTableRecord
  2
MASSLINIEN
 70
        64
 62
       172
  6
CONTINUOUS
290
         1
370
        25
390
1D
  0
LAYER
  5
37
100
AcDbSymbolTableRecord
100
AcDbLayerTableRecord
  2
MASSGRENZEN
 70
        64
 62
       172
  6
CONTINUOUS
290
         1
370
        25
390
1D
  0
LAYER
  5
38
100
AcDbSymbolTableRecord
100
AcDbLayerTableRecord
  2
TOLERANZEN
 70
        64
 62
       212
  6
CONTINUOUS
290
         1
370
         0
390
1D
  0
LAYER
  5
39
100
AcDbSymbolTableRecord
100
AcDbLayerTableRecord
  2
BEMASSUNG
 70
        64
 62
         7
  6
CONTINUOUS
290
         1
370
        25
390
1D
  0
LAYER
  5
3A
100
AcDbSymbolTableRecord
100
AcDbLayerTableRecord
  2
HILFSLINIEN
 70
        64
 62
         3
  6
CONTINUOUS
290
         1
370
         0
390
1D
  0
LAYER
  5
3B
100
AcDbSymbolTableRecord
100
AcDbLayerTableRecord
  2
MITTELLINIEN
 70
        64
 62
         5
  6
DASHDOT
290
         1
370
        13
390
1D
  0
LAYER
  5
3C
100
AcDbSymbolTableRecord
100
AcDbLayerTableRecord
  2
GEWINDELINIEN
 70
        64
 62
       212
  6
CONTINUOUS
290
         1
370
        25
390
1D
  0
LAYER
  5
3D
100
AcDbSymbolTableRecord
100
AcDbLayerTableRecord
  2
UNSICHTBARE
 70
        64
 62
        92
  6
DASHED
290
         1
370
        25
390
1D
  0
LAYER
  5
3E
100
AcDbSymbolTableRecord
100
AcDbLayerTableRecord
  2
VERDECKTE
 70
        64
 62
        92
  6
DASHED
290
         1
370
        25
390
1D
  0
LAYER
  5
3F
100
AcDbSymbolTableRecord
100
AcDbLayerTableRecord
  2
LICHTKANTEN
 70
        64
 62
         8
  6
CONTINUOUS
290
         1
370
        25
390
1D
  0
LAYER
  5
40
100
AcDbSymbolTableRecord
100
AcDbLayerTableRecord
  2
SCHNITTVERLAUF
 70
        64
 62
        34
  6
DASHDOT
290
         1
370
        70
390
1D
  0
LAYER
  5
41
100
AcDbSymbolTableRecord
100
AcDbLayerTableRecord
  2
KENNZEICHNUNG
 70
        64
 62
         7
  6
CONTINUOUS
290
         1
370
         0
390
1D
  0
LAYER
  5
42
100
AcDbSymbolTableRecord
100
AcDbLayerTableRecord
  2
PFEILE
 70
        64
 62
         7
  6
CONTINUOUS
290
         1
370
        70
390
1D
  0
LAYER
  5
43
100
AcDbSymbolTableRecord
100
AcDbLayerTableRecord
  2
SCHNITTDARSTELLUNG
 70
        64
 62
         7
  6
CONTINUOUS
290
         1
370
         0
390
1D
  0
LAYER
  5
44
100
AcDbSymbolTableRecord
100
AcDbLayerTableRecord
  2
2052_1L
 70
        64
 62
        30
  6
CONTINUOUS
290
         1
370
        13
390
1D
  0
LAYER
  5
45
100
AcDbSymbolTableRecord
100
AcDbLayerTableRecord
  2
2052_3L
 70
        64
 62
        30
  6
CONTINUOUS
290
         1
370
        13
390
1D
  0
LAYER
  5
46
100
AcDbSymbolTableRecord
100
AcDbLayerTableRecord
  2
2052_4L
 70
        64
 62
        30
  6
CONTINUOUS
290
         1
370
        13
390
1D
  0
LAYER
  5
47
100
AcDbSymbolTableRecord
100
AcDbLayerTableRecord
  2
2052_2L
 70
        64
 62
        30
  6
CONTINUOUS
290
         1
370
        13
390
1D
  0
LAYER
  5
48
100
AcDbSymbolTableRecord
100
AcDbLayerTableRecord
  2
2052_7P~A
 70
        64
 62
         5
  6
CONTINUOUS
290
         1
370
        13
390
1D
  0
LAYER
  5
49
100
AcDbSymbolTableRecord
100
AcDbLayerTableRecord
  2
2052_7P
 70
        64
 62
        30
  6
CONTINUOUS
290
         1
370
        13
390
1D
  0
LAYER
  5
4A
100
AcDbSymbolTableRecord
100
AcDbLayerTableRecord
  2
2052_5G
 70
        64
 62
        30
  6
CONTINUOUS
290
         1
370
        13
390
1D
  0
LAYER
  5
4B
100
AcDbSymbolTableRecord
100
AcDbLayerTableRecord
  2
2052_5W
 70
        64
 62
        30
  6
CONTINUOUS
290
         1
370
        13
390
1D
  0
LAYER
  5
4C
100
AcDbSymbolTableRecord
100
AcDbLayerTableRecord
  2
2052_5P
 70
        64
 62
        30
  6
CONTINUOUS
290
         1
370
        13
390
1D
  0
LAYER
  5
4D
100
AcDbSymbolTableRecord
100
AcDbLayerTableRecord
  2
2052_5V
 70
        64
 62
        30
  6
CONTINUOUS
290
         1
370
        13
390
1D
  0
LAYER
  5
4E
100
AcDbSymbolTableRecord
100
AcDbLayerTableRecord
  2
2052_5U
 70
        64
 62
        30
  6
CONTINUOUS
290
         1
370
        13
390
1D
  0
LAYER
  5
4F
100
AcDbSymbolTableRecord
100
AcDbLayerTableRecord
  2
2052_5T
 70
        64
 62
        30
  6
CONTINUOUS
290
         1
370
        13
390
1D
  0
LAYER
  5
50
100
AcDbSymbolTableRecord
100
AcDbLayerTableRecord
  2
2052_5R
 70
        64
 62
        30
  6
CONTINUOUS
290
         1
370
        13
390
1D
  0
LAYER
  5
51
100
AcDbSymbolTableRecord
100
AcDbLayerTableRecord
  2
2052_5Q
 70
        64
 62
        30
  6
CONTINUOUS
290
         1
370
        13
390
1D
  0
LAYER
  5
52
100
AcDbSymbolTableRecord
100
AcDbLayerTableRecord
  2
2052_5M
 70
        64
 62
        30
  6
CONTINUOUS
290
         1
370
        13
390
1D
  0
LAYER
  5
53
100
AcDbSymbolTableRecord
100
AcDbLayerTableRecord
  2
2052_5H
 70
        64
 62
        30
  6
CONTINUOUS
290
         1
370
        13
390
1D
  0
LAYER
  5
54
100
AcDbSymbolTableRecord
100
AcDbLayerTableRecord
  2
2052_5A
 70
        64
 62
        11
  6
CONTINUOUS
290
         1
370
        13
390
1D
  0
LAYER
  5
55
100
AcDbSymbolTableRecord
100
AcDbLayerTableRecord
  2
2052_5B
 70
        64
 62
        11
  6
CONTINUOUS
290
         1
370
        13
390
1D
  0
LAYER
  5
56
100
AcDbSymbolTableRecord
100
AcDbLayerTableRecord
  2
2052_5C
 70
        64
 62
        11
  6
CONTINUOUS
290
         1
370
        13
390
1D
  0
LAYER
  5
57
100
AcDbSymbolTableRecord
100
AcDbLayerTableRecord
  2
2052_5D
 70
        64
 62
        11
  6
CONTINUOUS
290
         1
370
        13
390
1D
  0
LAYER
  5
58
100
AcDbSymbolTableRecord
100
AcDbLayerTableRecord
  2
2052_5E
 70
        64
 62
        11
  6
CONTINUOUS
290
         1
370
        13
390
1D
  0
LAYER
  5
59
100
AcDbSymbolTableRecord
100
AcDbLayerTableRecord
  2
2052_5F
 70
        64
 62
        30
  6
CONTINUOUS
290
         1
370
        13
390
1D
  0
LAYER
  5
5A
100
AcDbSymbolTableRecord
100
AcDbLayerTableRecord
  2
2052_5X
 70
        64
 62
        30
  6
CONTINUOUS
290
         1
370
        13
390
1D
  0
LAYER
  5
5B
100
AcDbSymbolTableRecord
100
AcDbLayerTableRecord
  2
2052_5K
 70
        64
 62
        30
  6
CONTINUOUS
290
         1
370
        13
390
1D
  0
LAYER
  5
5C
100
AcDbSymbolTableRecord
100
AcDbLayerTableRecord
  2
2052_5Y
 70
        64
 62
        30
  6
CONTINUOUS
290
         1
370
        13
390
1D
  0
LAYER
  5
5D
100
AcDbSymbolTableRecord
100
AcDbLayerTableRecord
  2
2052_1R
 70
        64
 62
        34
  6
CONTINUOUS
290
         1
370
        13
390
1D
  0
LAYER
  5
5E
100
AcDbSymbolTableRecord
100
AcDbLayerTableRecord
  2
2052_2R~A
 70
        64
 62
         5
  6
CONTINUOUS
290
         1
370
        13
390
1D
  0
LAYER
  5
5F
100
AcDbSymbolTableRecord
100
AcDbLayerTableRecord
  2
2052_2R
 70
        64
 62
        34
  6
CONTINUOUS
290
         1
370
        13
390
1D
  0
LAYER
  5
60
100
AcDbSymbolTableRecord
100
AcDbLayerTableRecord
  2
2052_3R
 70
        64
 62
        34
  6
CONTINUOUS
290
         1
370
        13
390
1D
  0
LAYER
  5
61
100
AcDbSymbolTableRecord
100
AcDbLayerTableRecord
  2
2052_4R
 70
        64
 62
        34
  6
CONTINUOUS
290
         1
370
        13
390
1D
  0
LAYER
  5
62
100
AcDbSymbolTableRecord
100
AcDbLayerTableRecord
  2
2052___ SCHLOSS MIT DORN
 70
        64
 62
       190
  6
CONTINUOUS
290
         1
370
        13
390
1D
  0
LAYER
  5
63
100
AcDbSymbolTableRecord
100
AcDbLayerTableRecord
  2
2053_1P
 70
        64
 62
        11
  6
CONTINUOUS
290
         1
370
        13
390
1D
  0
LAYER
  5
64
100
AcDbSymbolTableRecord
100
AcDbLayerTableRecord
  2
2053_2P
 70
        64
 62
        11
  6
CONTINUOUS
290
         1
370
        13
390
1D
  0
LAYER
  5
65
100
AcDbSymbolTableRecord
100
AcDbLayerTableRecord
  2
2053_3A
 70
        64
 62
        11
  6
CONTINUOUS
290
         1
370
        13
390
1D
  0
LAYER
  5
66
100
AcDbSymbolTableRecord
100
AcDbLayerTableRecord
  2
2053_3B
 70
        64
 62
        11
  6
CONTINUOUS
290
         1
370
        13
390
1D
  0
LAYER
  5
67
100
AcDbSymbolTableRecord
100
AcDbLayerTableRecord
  2
2053_3C
 70
        64
 62
        11
  6
CONTINUOUS
290
         1
370
        13
390
1D
  0
LAYER
  5
68
100
AcDbSymbolTableRecord
100
AcDbLayerTableRecord
  2
2053_3D
 70
        64
 62
        11
  6
CONTINUOUS
290
         1
370
        13
390
1D
  0
LAYER
  5
69
100
AcDbSymbolTableRecord
100
AcDbLayerTableRecord
  2
2053_3E
 70
        64
 62
        11
  6
CONTINUOUS
290
         1
370
        13
390
1D
  0
LAYER
  5
6A
100
AcDbSymbolTableRecord
100
AcDbLayerTableRecord
  2
2053_3F
 70
        64
 62
        30
  6
CONTINUOUS
290
         1
370
        13
390
1D
  0
LAYER
  5
6B
100
AcDbSymbolTableRecord
100
AcDbLayerTableRecord
  2
2053_3G
 70
        64
 62
        30
  6
CONTINUOUS
290
         1
370
        13
390
1D
  0
LAYER
  5
6C
100
AcDbSymbolTableRecord
100
AcDbLayerTableRecord
  2
2053_3H
 70
        64
 62
        30
  6
CONTINUOUS
290
         1
370
        13
390
1D
  0
LAYER
  5
6D
100
AcDbSymbolTableRecord
100
AcDbLayerTableRecord
  2
2053_3M
 70
        64
 62
        30
  6
CONTINUOUS
290
         1
370
        13
390
1D
  0
LAYER
  5
6E
100
AcDbSymbolTableRecord
100
AcDbLayerTableRecord
  2
2053_3P
 70
        64
 62
        30
  6
CONTINUOUS
290
         1
370
        13
390
1D
  0
LAYER
  5
6F
100
AcDbSymbolTableRecord
100
AcDbLayerTableRecord
  2
2053_3Q
 70
        64
 62
        30
  6
CONTINUOUS
290
         1
370
        13
390
1D
  0
LAYER
  5
70
100
AcDbSymbolTableRecord
100
AcDbLayerTableRecord
  2
2053_3R
 70
        64
 62
        30
  6
CONTINUOUS
290
         1
370
        13
390
1D
  0
LAYER
  5
71
100
AcDbSymbolTableRecord
100
AcDbLayerTableRecord
  2
2053_3T
 70
        64
 62
        30
  6
CONTINUOUS
290
         1
370
        13
390
1D
  0
LAYER
  5
72
100
AcDbSymbolTableRecord
100
AcDbLayerTableRecord
  2
2053_3U
 70
        64
 62
        30
  6
CONTINUOUS
290
         1
370
        13
390
1D
  0
LAYER
  5
73
100
AcDbSymbolTableRecord
100
AcDbLayerTableRecord
  2
2053_3V
 70
        64
 62
        30
  6
CONTINUOUS
290
         1
370
        13
390
1D
  0
LAYER
  5
74
100
AcDbSymbolTableRecord
100
AcDbLayerTableRecord
  2
2053_3W
 70
        64
 62
        30
  6
CONTINUOUS
290
         1
370
        13
390
1D
  0
LAYER
  5
75
100
AcDbSymbolTableRecord
100
AcDbLayerTableRecord
  2
2053_3X
 70
        64
 62
        30
  6
CONTINUOUS
290
         1
370
        13
390
1D
  0
LAYER
  5
76
100
AcDbSymbolTableRecord
100
AcDbLayerTableRecord
  2
2053_3K
 70
        64
 62
        30
  6
CONTINUOUS
290
         1
370
        13
390
1D
  0
LAYER
  5
77
100
AcDbSymbolTableRecord
100
AcDbLayerTableRecord
  2
2053_6P
 70
        64
 62
        11
  6
CONTINUOUS
290
         1
370
        13
390
1D
  0
LAYER
  5
78
100
AcDbSymbolTableRecord
100
AcDbLayerTableRecord
  2
2053_5P
 70
        64
 62
        11
  6
CONTINUOUS
290
         1
370
        13
390
1D
  0
LAYER
  5
79
100
AcDbSymbolTableRecord
100
AcDbLayerTableRecord
  2
2053_5Q
 70
        64
 62
        11
  6
CONTINUOUS
290
         1
370
        13
390
1D
  0
LAYER
  5
7A
100
AcDbSymbolTableRecord
100
AcDbLayerTableRecord
  2
2053_3Y
 70
        64
 62
        30
  6
CONTINUOUS
290
         1
370
        13
390
1D
  0
LAYER
  5
7B
100
AcDbSymbolTableRecord
100
AcDbLayerTableRecord
  2
2053_5Y
 70
        64
 62
        30
  6
CONTINUOUS
290
         1
370
        13
390
1D
  0
LAYER
  5
7C
100
AcDbSymbolTableRecord
100
AcDbLayerTableRecord
  2
2053___ SCHLÜSSEL MIT DORN
 70
        64
 62
       190
  6
CONTINUOUS
290
         1
370
        13
390
1D
  0
LAYER
  5
7D
100
AcDbSymbolTableRecord
100
AcDbLayerTableRecord
  2
2059_2L
 70
        64
 62
        14
  6
HIDDEN
290
         1
370
         0
390
1D
  0
LAYER
  5
7E
100
AcDbSymbolTableRecord
100
AcDbLayerTableRecord
  2
2059_2R
 70
        64
 62
        14
  6
HIDDEN
290
         1
370
         0
390
1D
  0
LAYER
  5
7F
100
AcDbSymbolTableRecord
100
AcDbLayerTableRecord
  2
2059_4R
 70
        64
 62
        14
  6
HIDDEN
290
         1
370
         0
390
1D
  0
LAYER
  5
80
100
AcDbSymbolTableRecord
100
AcDbLayerTableRecord
  2
2059_4L
 70
        64
 62
        14
  6
HIDDEN
290
         1
370
         0
390
1D
  0
LAYER
  5
81
100
AcDbSymbolTableRecord
100
AcDbLayerTableRecord
  2
2059___ VARIABLENPFADE
 70
        64
 62
       190
  6
CONTINUOUS
290
         1
370
         0
390
1D
  0
LAYER
  5
82
100
AcDbSymbolTableRecord
100
AcDbLayerTableRecord
  2
2058_2L
 70
        64
 62
        30
  6
HIDDEN
290
         1
370
         0
390
1D
  0
LAYER
  5
83
100
AcDbSymbolTableRecord
100
AcDbLayerTableRecord
  2
2058_2R
 70
        64
 62
        14
  6
HIDDEN
290
         1
370
         0
390
1D
  0
LAYER
  5
84
100
AcDbSymbolTableRecord
100
AcDbLayerTableRecord
  2
2058_10L
 70
        64
 62
        14
  6
HIDDEN
290
         1
370
         0
390
1D
  0
LAYER
  5
85
100
AcDbSymbolTableRecord
100
AcDbLayerTableRecord
  2
2058_3P
 70
        64
 62
        30
  6
HIDDEN
290
         1
370
         0
390
1D
  0
LAYER
  5
86
100
AcDbSymbolTableRecord
100
AcDbLayerTableRecord
  2
2058_1L
 70
        64
 62
        30
  6
CONTINUOUS
290
         1
370
         0
390
1D
  0
LAYER
  5
87
100
AcDbSymbolTableRecord
100
AcDbLayerTableRecord
  2
2058_1R
 70
        64
 62
        34
  6
CONTINUOUS
290
         1
370
         0
390
1D
  0
LAYER
  5
88
100
AcDbSymbolTableRecord
100
AcDbLayerTableRecord
  2
2058_4L
 70
        64
 62
        30
  6
HIDDEN
290
         1
370
         0
390
1D
  0
LAYER
  5
89
100
AcDbSymbolTableRecord
100
AcDbLayerTableRecord
  2
2058_4R
 70
        64
 62
        14
  6
HIDDEN
290
         1
370
         0
390
1D
  0
LAYER
  5
8A
100
AcDbSymbolTableRecord
100
AcDbLayerTableRecord
  2
2058___ AUFSPANNPFADE
 70
        64
 62
       190
  6
CONTINUOUS
290
         1
370
         0
390
1D
  0
LAYER
  5
8B
100
AcDbSymbolTableRecord
100
AcDbLayerTableRecord
  2
2055_1P
 70
        64
 62
        30
  6
CONTINUOUS
290
         1
370
        18
390
1D
  0
LAYER
  5
8C
100
AcDbSymbolTableRecord
100
AcDbLayerTableRecord
  2
2055_2P
 70
        64
 62
        30
  6
CONTINUOUS
290
         1
370
        18
390
1D
  0
LAYER
  5
8D
100
AcDbSymbolTableRecord
100
AcDbLayerTableRecord
  2
2055___ DOPPELSCHLOSS
 70
        64
 62
       190
  6
CONTINUOUS
290
         1
370
        13
390
1D
  0
LAYER
  5
8E
100
AcDbSymbolTableRecord
100
AcDbLayerTableRecord
  2
PFADE
 70
        64
 62
        30
  6
CONTINUOUS
290
         1
370
        13
390
1D
  0
LAYER
  5
8F
100
AcDbSymbolTableRecord
100
AcDbLayerTableRecord
  2
2052_1_2_7_8 GEHÄUSE
 70
        64
 62
         7
  6
CONTINUOUS
290
         1
370
        18
390
1D
  0
LAYER
  5
90
100
AcDbSymbolTableRecord
100
AcDbLayerTableRecord
  2
2052_3 RIEGEL UMGESPERRT
 70
        64
 62
       230
  6
DASHED
290
         1
370
        18
390
1D
  0
LAYER
  5
91
100
AcDbSymbolTableRecord
100
AcDbLayerTableRecord
  2
2052_3 RIEGEL
 70
        64
 62
       230
  6
CONTINUOUS
290
         1
370
        18
390
1D
  0
LAYER
  5
92
100
AcDbSymbolTableRecord
100
AcDbLayerTableRecord
  2
2052_4 ZUHALTUNG ANGEHOBEN
 70
        64
 62
        94
  6
DASHED
290
         1
370
        18
390
1D
  0
LAYER
  5
93
100
AcDbSymbolTableRecord
100
AcDbLayerTableRecord
  2
2052_4 ZUHALTUNG
 70
        64
 62
        94
  6
CONTINUOUS
290
         1
370
        18
390
1D
  0
LAYER
  5
94
100
AcDbSymbolTableRecord
100
AcDbLayerTableRecord
  2
2052_5_6 BESATZUNG
 70
        64
 62
         8
  6
CONTINUOUS
290
         1
370
        18
390
1D
  0
LAYER
  5
95
100
AcDbSymbolTableRecord
100
AcDbLayerTableRecord
  2
2052__ SCHLOSS MIT DORN
 70
        64
 62
         7
  6
CONTINUOUS
290
         1
370
         0
390
1D
  0
LAYER
  5
96
100
AcDbSymbolTableRecord
100
AcDbLayerTableRecord
  2
2053_1-4 SCHLÜSSEL
 70
        64
 62
       190
  6
CONTINUOUS
290
         1
370
        18
390
1D
  0
LAYER
  5
97
100
AcDbSymbolTableRecord
100
AcDbLayerTableRecord
  2
2053_5 SCHILD
 70
        64
 62
        54
  6
CONTINUOUS
290
         1
370
        18
390
1D
  0
LAYER
  5
98
100
AcDbSymbolTableRecord
100
AcDbLayerTableRecord
  2
2053__ SCHLÜSSEL
 70
        64
 62
         7
  6
CONTINUOUS
290
         1
370
         0
390
1D
  0
LAYER
  5
99
100
AcDbSymbolTableRecord
100
AcDbLayerTableRecord
  2
2055_1 RAHMEN
 70
        64
 62
       190
  6
CONTINUOUS
290
         1
370
        18
390
1D
  0
LAYER
  5
9A
100
AcDbSymbolTableRecord
100
AcDbLayerTableRecord
  2
2055_2 KIPPHEBEL GEKIPPT RE
 70
        64
 62
        54
  6
DIVIDE
290
         1
370
        18
390
1D
  0
LAYER
  5
9B
100
AcDbSymbolTableRecord
100
AcDbLayerTableRecord
  2
2055_2 KIPPHEBEL GEKIPPT LI
 70
        64
 62
        54
  6
CONTINUOUS
290
         1
370
        18
390
1D
  0
LAYER
  5
9C
100
AcDbSymbolTableRecord
100
AcDbLayerTableRecord
  2
2055_2 KIPPHEBEL
 70
        64
 62
        54
  6
DASHED
290
         1
370
        18
390
1D
  0
LAYER
  5
9D
100
AcDbSymbolTableRecord
100
AcDbLayerTableRecord
  2
2055__ DOPPELSCHLOSS
 70
        64
 62
         7
  6
CONTINUOUS
290
         1
370
         0
390
1D
  0
LAYER
  5
9E
100
AcDbSymbolTableRecord
100
AcDbLayerTableRecord
  2
 2001_2 BODEN
 70
        64
 62
        14
  6
CONTINUOUS
290
         1
370
        18
390
1D
  0
LAYER
  5
9F
100
AcDbSymbolTableRecord
100
AcDbLayerTableRecord
  2
2001__ GEBÄUDE
 70
        64
 62
         7
  6
CONTINUOUS
290
         1
370
         0
390
1D
  0
LAYER
  5
A0
100
AcDbSymbolTableRecord
100
AcDbLayerTableRecord
  2
2501_7 HEBEL 22_5_0_22_5 UMGELEGT LI
 70
        64
 62
        34
  6
DASHED
290
         1
370
        18
390
1D
  0
LAYER
  5
A1
100
AcDbSymbolTableRecord
100
AcDbLayerTableRecord
  2
2501_7 HEBEL 22_5_0_22_5
 70
        64
 62
        14
  6
CONTINUOUS
290
         1
370
        18
390
1D
  0
LAYER
  5
A2
100
AcDbSymbolTableRecord
100
AcDbLayerTableRecord
  2
2501_1 UNTERZUGRAHMEN
 70
        64
 62
         7
  6
CONTINUOUS
290
         1
370
         0
390
1D
  0
LAYER
  5
A3
100
AcDbSymbolTableRecord
100
AcDbLayerTableRecord
  2
2501_10 SCHALTER LINKS_OBEN
 70
        64
 62
       230
  6
DASHED
290
         1
370
        18
390
1D
  0
LAYER
  5
A4
100
AcDbSymbolTableRecord
100
AcDbLayerTableRecord
  2
2501_10 SCHALTER
 70
        64
 62
       230
  6
CONTINUOUS
290
         1
370
        18
390
1D
  0
LAYER
  5
A5
100
AcDbSymbolTableRecord
100
AcDbLayerTableRecord
  2
2501_2-4 ROLLEN
 70
        64
 62
       134
  6
CONTINUOUS
290
         1
370
        18
390
1D
  0
LAYER
  5
A6
100
AcDbSymbolTableRecord
100
AcDbLayerTableRecord
  2
2501_5 SCHIEBER
 70
        64
 62
       142
  6
CONTINUOUS
290
         1
370
        18
390
1D
  0
LAYER
  5
A7
100
AcDbSymbolTableRecord
100
AcDbLayerTableRecord
  2
2501__ UNTERZUG
 70
        64
 62
         9
  6
CONTINUOUS
290
         1
370
        18
390
1D
  0
LAYER
  5
A8
100
AcDbSymbolTableRecord
100
AcDbLayerTableRecord
  2
KONSTRUKTION
 70
        64
 62
         7
  6
CONTINUOUS
290
         1
370
         0
390
1D
  0
LAYER
  5
A9
100
AcDbSymbolTableRecord
100
AcDbLayerTableRecord
  2
GEOMETRIE
 70
        64
 62
         7
  6
CONTINUOUS
290
         1
370
         0
390
1D
  0
LAYER
  5
AA
100
AcDbSymbolTableRecord
100
AcDbLayerTableRecord
  2
_TEMP
 70
        64
 62
         7
  6
CONTINUOUS
290
         1
370
        50
390
1D
  0
LAYER
  5
AB
100
AcDbSymbolTableRecord
100
AcDbLayerTableRecord
  2
STANDARD
 70
        64
 62
         7
  6
CONTINUOUS
290
         1
370
         0
390
1D
  0
ENDTAB
  0
TABLE
  2
STYLE
  5
3
100
AcDbSymbolTable
 70
         7
  0
STYLE
  5
17
100
AcDbSymbolTableRecord
100
AcDbTextStyleTableRecord
  2
Standard
 70
         0
 40
0.0
 41
1.0
 50
0.0
 71
         0
 42
0.0
  3
txt
  4

  0
STYLE
  5
2D
100
AcDbSymbolTableRecord
100
AcDbTextStyleTableRecord
  2
CADdy
 70
         0
 40
0.0
 41
1.0
 50
0.0
 71
         0
 42
3.5
  3
txt.shx
  4

  0
STYLE
  5
2E
100
AcDbSymbolTableRecord
100
AcDbTextStyleTableRecord
  2
Arial
 70
         0
 40
0.0
 41
1.0
 50
0.0
 71
         0
 42
3.5
  3
arial.ttf
  4

1001
ACAD
1000
Arial
1071
       34
  0
STYLE
  5
2F
100
AcDbSymbolTableRecord
100
AcDbTextStyleTableRecord
  2
Isonorm
 70
         0
 40
0.0
 41
1.0
 50
0.0
 71
         0
 42
3.5
  3
txt.shx
  4

  0
STYLE
  5
30
100
AcDbSymbolTableRecord
100
AcDbTextStyleTableRecord
  2
Tahoma
 70
         0
 40
0.0
 41
1.0
 50
0.0
 71
         0
 42
3.5
  3
tahoma.ttf
  4

1001
ACAD
1000
Tahoma
1071
       34
  0
STYLE
  5
31
100
AcDbSymbolTableRecord
100
AcDbTextStyleTableRecord
  2
Microsoft Sans Serif
 70
         0
 40
0.0
 41
1.0
 50
0.0
 71
         0
 42
3.5
  3
micross.ttf
  4

1001
ACAD
1000
Microsoft Sans Serif
1071
       34
  0
STYLE
  5
32
100
AcDbSymbolTableRecord
100
AcDbTextStyleTableRecord
  2
Arial Rounded MT Bold
 70
         0
 40
0.0
 41
1.0
 50
0.0
 71
         0
 42
3.5
  3
txt.shx
  4

  0
ENDTAB
  0
TABLE
  2
VIEW
  5
5
100
AcDbSymbolTable
 70
         0
  0
ENDTAB
  0
TABLE
  2
UCS
  5
6
100
AcDbSymbolTable
 70
         0
  0
ENDTAB
  0
TABLE
  2
APPID
  5
8
100
AcDbSymbolTable
 70
         1
  0
APPID
  5
16
100
AcDbSymbolTableRecord
100
AcDbRegAppTableRecord
  2
ACAD
 70
        64
  0
ENDTAB
  0
TABLE
  2
DIMSTYLE
  5
9
100
AcDbSymbolTable
 70
         1
100
AcDbDimStyleTable
 71
         0
  0
DIMSTYLE
105
18
100
AcDbSymbolTableRecord
100
AcDbDimStyleTableRecord
  2
Standard
 70
         0
  3

  4

 40
1.0
 41
0.18
 42
0.0625
 43
0.38
 44
0.18
 45
0.0
 46
0.0
 47
0.0
 48
0.0
 71
         0
 72
         0
 73
         1
 74
         1
 75
         0
 76
         0
 77
         0
 78
         0
 79
         0
140
0.18
141
0.09
142
0.0
143
25.4
144
1.0
145
0.0
146
1.0
147
0.09
148
0.0
170
         0
171
         2
172
         0
173
         0
174
         0
175
         0
176
         0
177
         0
178
         0
179
         0
271
         4
272
         4
273
         2
274
         2
275
         0
276
         0
277
         2
278
        46
279
         0
280
         0
281
         0
282
         0
283
         1
284
         0
285
         0
286
         0
288
         0
289
         3
340
17
341
0
342
0
343
0
344
0
371
        -2
372
        -2
  0
ENDTAB
  0
TABLE
  2
BLOCK_RECORD
  5
1
100
AcDbSymbolTable
 70
         3
  0
BLOCK_RECORD
  5
A
100
AcDbSymbolTableRecord
100
AcDbBlockTableRecord
  2
*MODEL_SPACE
340
20
  0
BLOCK_RECORD
  5
B
100
AcDbSymbolTableRecord
100
AcDbBlockTableRecord
  2
*PAPER_SPACE
340
21
  0
BLOCK_RECORD
  5
AC
100
AcDbSymbolTableRecord
100
AcDbBlockTableRecord
  2
D396504832
340
0
102
{BLKREFS
331
12D
102
}
  0
BLOCK_RECORD
  5
B5
100
AcDbSymbolTableRecord
100
AcDbBlockTableRecord
  2
D396505344
340
0
102
{BLKREFS
331
135
102
}
  0
BLOCK_RECORD
  5
BE
100
AcDbSymbolTableRecord
100
AcDbBlockTableRecord
  2
D396505600
340
0
102
{BLKREFS
331
136
102
}
  0
ENDTAB
  0
ENDSEC
  0
SECTION
  2
BLOCKS
  0
BLOCK
  5
D
100
AcDbEntity
  8
0
390
0
100
AcDbBlockBegin
  2
*MODEL_SPACE
 70
         0
 10
0.0
 20
0.0
 30
0.0
  3
*MODEL_SPACE
  1

  0
ENDBLK
  5
E
100
AcDbEntity
  8
0
390
0
100
AcDbBlockEnd
  0
BLOCK
  5
F
100
AcDbEntity
 67
         1
  8
0
390
0
100
AcDbBlockBegin
  2
*PAPER_SPACE
 70
         0
 10
0.0
 20
0.0
 30
0.0
  3
*PAPER_SPACE
  1

  0
ENDBLK
  5
10
100
AcDbEntity
 67
         1
  8
0
390
0
100
AcDbBlockEnd
  0
BLOCK
  5
AD
100
AcDbEntity
  8
BEMASSUNG
390
0
100
AcDbBlockBegin
  2
D396504832
 70
         0
 10
0.0
 20
0.0
 30
0.0
  3
D396504832
  1

  0
LINE
  5
AE
100
AcDbEntity
  8
MASSLINIEN
390
0
 62
       172
100
AcDbLine
 10
34.7242319079
 20
183.0956175299
 30
0.0
 11
64.7242319079
 21
183.0956175299
 31
0.0
  0
LINE
  5
AF
100
AcDbEntity
  8
MASSLINIEN
390
0
 62
       172
100
AcDbLine
 10
34.7242319079
 20
22.6899860655
 30
0.0
 11
34.7242319079
 21
185.0956175299
 31
0.0
  0
LINE
  5
B0
100
AcDbEntity
  8
MASSLINIEN
390
0
 62
       172
100
AcDbLine
 10
64.7242319079
 20
21.6899860655
 30
0.0
 11
64.7242319079
 21
185.0956175299
 31
0.0
  0
SOLID
  5
B1
100
AcDbEntity
  8
MASSGRENZEN
390
0
100
AcDbTrace
 10
34.7242319079
 20
183.0956175299
 30
0.0
 11
37.698566492
 21
183.4871961065
 31
0.0
 12
37.698566492
 22
182.7040389532
 32
0.0
 13
37.698566492
 23
182.7040389532
 33
0.0
  0
SOLID
  5
B2
100
AcDbEntity
  8
MASSGRENZEN
390
0
100
AcDbTrace
 10
64.7242319079
 20
183.0956175299
 30
0.0
 11
61.7498973238
 21
182.7040389532
 31
0.0
 12
61.7498973238
 22
183.4871961065
 32
0.0
 13
61.7498973238
 23
183.4871961065
 33
0.0
  0
MTEXT
  5
B3
100
AcDbEntity
  8
MASSTEXTE
390
0
 62
       212
100
AcDbMText
 10
49.7242319079
 20
185.5516175299
 30
0.0
 40
2.0
 41
0.0
 71
         5
 72
         1
  1
\W1.135145;\A1;30
  7
Arial
 73
         0
 44
0.0
  0
ENDBLK
  5
B4
100
AcDbEntity
  8
0
390
0
100
AcDbBlockEnd
  0
BLOCK
  5
B6
100
AcDbEntity
  8
BEMASSUNG
390
0
100
AcDbBlockBegin
  2
D396505344
 70
         0
 10
0.0
 20
0.0
 30
0.0
  3
D396505344
  1

  0
LINE
  5
B7
100
AcDbEntity
  8
MASSLINIEN
390
0
 62
       172
100
AcDbLine
 10
75.977910824
 20
164.3211026716
 30
0.0
 11
75.977910824
 21
143.3211026649
 31
0.0
  0
LINE
  5
B8
100
AcDbEntity
  8
MASSLINIEN
390
0
 62
       172
100
AcDbLine
 10
34.724231908
 20
164.3211026716
 30
0.0
 11
77.977910824
 21
164.3211026716
 31
0.0
  0
LINE
  5
B9
100
AcDbEntity
  8
MASSLINIEN
390
0
 62
       172
100
AcDbLine
 10
34.7242319078
 20
143.3211026649
 30
0.0
 11
77.977910824
 21
143.3211026649
 31
0.0
  0
SOLID
  5
BA
100
AcDbEntity
  8
MASSGRENZEN
390
0
100
AcDbTrace
 10
75.977910824
 20
164.3211026716
 30
0.0
 11
76.3694894007
 21
161.3467680875
 31
0.0
 12
75.5863322474
 22
161.3467680875
 32
0.0
 13
75.5863322474
 23
161.3467680875
 33
0.0
  0
SOLID
  5
BB
100
AcDbEntity
  8
MASSGRENZEN
390
0
100
AcDbTrace
 10
75.977910824
 20
143.3211026649
 30
0.0
 11
75.5863322474
 21
146.295437249
 31
0.0
 12
76.3694894007
 22
146.295437249
 32
0.0
 13
76.3694894007
 23
146.295437249
 33
0.0
  0
MTEXT
  5
BC
100
AcDbEntity
  8
MASSTEXTE
390
0
 62
       212
100
AcDbMText
 10
73.521910824
 20
153.8211026682
 30
0.0
 40
2.0
 41
0.0
 71
         5
 72
         1
  1
\W1.135145;\A1;21
  7
Arial
 11
0.0
 21
1.0
 31
0.0
 73
         0
 44
0.0
  0
ENDBLK
  5
BD
100
AcDbEntity
  8
0
390
0
100
AcDbBlockEnd
  0
BLOCK
  5
BF
100
AcDbEntity
  8
BEMASSUNG
390
0
100
AcDbBlockBegin
  2
D396505600
 70
         0
 10
0.0
 20
0.0
 30
0.0
  3
D396505600
  1

  0
LINE
  5
C0
100
AcDbEntity
  8
MASSLINIEN
390
0
 62
       172
100
AcDbLine
 10
76.977910824
 20
108.6906082043
 30
0.0
 11
76.977910824
 21
21.6899860655
 31
0.0
  0
LINE
  5
C1
100
AcDbEntity
  8
MASSLINIEN
390
0
 62
       172
100
AcDbLine
 10
34.724231908
 20
108.6906082043
 30
0.0
 11
78.977910824
 21
108.6906082043
 31
0.0
  0
LINE
  5
C2
100
AcDbEntity
  8
MASSLINIEN
390
0
 62
       172
100
AcDbLine
 10
34.724231908
 20
21.6899860655
 30
0.0
 11
78.977910824
 21
21.6899860655
 31
0.0
  0
SOLID
  5
C3
100
AcDbEntity
  8
MASSGRENZEN
390
0
100
AcDbTrace
 10
76.977910824
 20
108.6906082043
 30
0.0
 11
77.3694894007
 21
105.7162736202
 31
0.0
 12
76.5863322474
 22
105.7162736202
 32
0.0
 13
76.5863322474
 23
105.7162736202
 33
0.0
  0
SOLID
  5
C4
100
AcDbEntity
  8
MASSGRENZEN
390
0
100
AcDbTrace
 10
76.977910824
 20
21.6899860655
 30
0.0
 11
76.5863322474
 21
24.6643206496
 31
0.0
 12
77.3694894007
 22
24.6643206496
 32
0.0
 13
77.3694894007
 23
24.6643206496
 33
0.0
  0
MTEXT
  5
C5
100
AcDbEntity
  8
MASSTEXTE
390
0
 62
       212
100
AcDbMText
 10
74.521910824
 20
65.1902971349
 30
0.0
 40
2.0
 41
0.0
 71
         5
 72
         1
  1
\W1.135145;\A1;87
  7
Arial
 11
0.0
 21
1.0
 31
0.0
 73
         0
 44
0.0
  0
ENDBLK
  5
C6
100
AcDbEntity
  8
0
390
0
100
AcDbBlockEnd
  0
ENDSEC
  0
SECTION
  2
ENTITIES
  0
TEXT
  5
C7
100
AcDbEntity
  8
BESCHRIFTUNG
390
0
100
AcDbText
 10
215.3145333333
 20
29.3230888889
 30
0.0
 40
3.3
  1
2026-06-11
 41
1.03183673
  7
Arial
 11
215.3145333333
 21
32.6230888889
 31
0.0
100
AcDbText
 73
         3
  0
TEXT
  5
C8
100
AcDbEntity
  8
BESCHRIFTUNG
390
0
100
AcDbText
 10
215.3145333333
 20
6.9230888889
 30
0.0
 40
3.3
  1
2055 Ph Doppelschloss
 41
1.143737617
  7
Arial
 11
215.3145333333
 21
10.2230888889
 31
0.0
100
AcDbText
 73
         3
  0
ARC
  5
C9
100
AcDbEntity
  8
2055_2 KIPPHEBEL
390
0
100
AcDbCircle
 10
57.724231908
 20
149.0959484897
 30
0.0
 40
20.0
100
AcDbArc
 50
150.0
 51
180.0
  0
ARC
  5
CA
100
AcDbEntity
  8
2055_2 KIPPHEBEL
390
0
100
AcDbCircle
 10
50.7255096714
 20
159.0965949928
 30
0.0
 40
4.0
100
AcDbArc
 50
0.0069757166
 51
180.0069757166
  0
ARC
  5
CB
100
AcDbEntity
  8
2055_2 KIPPHEBEL
390
0
100
AcDbCircle
 10
57.724231908
 20
149.0959484897
 30
0.0
 40
4.0
100
AcDbArc
 50
180.0
 51
360.0
  0
ARC
  5
CC
100
AcDbEntity
  8
2055_2 KIPPHEBEL
390
0
100
AcDbCircle
 10
59.4941479472
 20
149.0959484897
 30
0.0
 40
1.625
100
AcDbArc
 50
270.0
 51
450.0
  0
ARC
  5
CD
100
AcDbEntity
  8
2055_2 KIPPHEBEL
390
0
100
AcDbCircle
 10
41.724231908
 20
149.0959484897
 30
0.0
 40
16.0
100
AcDbArc
 50
345.5224878141
 51
345.6384884371
  0
ARC
  5
CE
100
AcDbEntity
  8
2055_2 KIPPHEBEL
390
0
100
AcDbCircle
 10
56.724231908
 20
149.0959484897
 30
0.0
 40
1.625
100
AcDbArc
 50
90.0
 51
270.0
  0
ARC
  5
CF
100
AcDbEntity
  8
2055_2 KIPPHEBEL
390
0
100
AcDbCircle
 10
41.724231908
 20
149.0959484897
 30
0.0
 40
20.0
100
AcDbArc
 50
360.0
 51
390.0
  0
CIRCLE
  5
D0
100
AcDbEntity
  8
2055_2P
390
0
100
AcDbCircle
 10
41.724231908
 20
149.0959484897
 30
0.0
 40
1.25
  0
LINE
  5
D1
100
AcDbEntity
  8
2055_1 RAHMEN
390
0
100
AcDbLine
 10
63.7242319079
 20
107.6906082043
 30
0.0
 11
35.724231908
 21
107.6906082043
 31
0.0
  0
LINE
  5
D2
100
AcDbEntity
  8
2055_1 RAHMEN
390
0
100
AcDbLine
 10
35.724231908
 20
107.6906082043
 30
0.0
 11
35.724231908
 21
57.6906082043
 31
0.0
  0
LINE
  5
D3
100
AcDbEntity
  8
2055_1 RAHMEN
390
0
100
AcDbLine
 10
35.724231908
 20
49.6906082043
 30
0.0
 11
35.724231908
 21
22.6899860655
 31
0.0
  0
LINE
  5
D4
100
AcDbEntity
  8
2055_1 RAHMEN
390
0
100
AcDbLine
 10
63.7242319079
 20
22.6899860655
 30
0.0
 11
63.7242319079
 21
107.6906082043
 31
0.0
  0
LINE
  5
D5
100
AcDbEntity
  8
2055_1 RAHMEN
390
0
100
AcDbLine
 10
38.474231908
 20
49.6906082043
 30
0.0
 11
35.724231908
 21
49.6906082043
 31
0.0
  0
LINE
  5
D6
100
AcDbEntity
  8
2055_1 RAHMEN
390
0
100
AcDbLine
 10
38.474231908
 20
57.6906082043
 30
0.0
 11
35.724231908
 21
57.6906082043
 31
0.0
  0
LINE
  5
D7
100
AcDbEntity
  8
2055_1 RAHMEN
390
0
100
AcDbLine
 10
35.724231908
 20
22.6899860655
 30
0.0
 11
63.7242319079
 21
22.6899860655
 31
0.0
  0
LINE
  5
D8
100
AcDbEntity
  8
2055_2 KIPPHEBEL
390
0
100
AcDbLine
 10
45.724231908
 20
149.0959484897
 30
0.0
 11
53.724231908
 21
149.0959484897
 31
0.0
  0
CIRCLE
  5
D9
100
AcDbEntity
  8
2055_2 KIPPHEBEL
390
0
100
AcDbCircle
 10
41.724231908
 20
149.0959484897
 30
0.0
 40
1.25
  0
ARC
  5
DA
100
AcDbEntity
  8
2055_2 KIPPHEBEL
390
0
100
AcDbCircle
 10
41.724231908
 20
149.0959484897
 30
0.0
 40
4.0
100
AcDbArc
 50
180.0
 51
360.0
  0
ARC
  5
DB
100
AcDbEntity
  8
2055_2 KIPPHEBEL
390
0
100
AcDbCircle
 10
37.1911221008
 20
153.7543726305
 30
0.0
 40
16.0
100
AcDbArc
 50
29.7413845014
 51
29.8573851245
  0
CIRCLE
  5
DC
100
AcDbEntity
  8
2055_1P
390
0
100
AcDbCircle
 10
38.5473026387
 20
101.6906082043
 30
0.0
 40
1.25
  0
CIRCLE
  5
DD
100
AcDbEntity
  8
2055_1P
390
0
100
AcDbCircle
 10
51.724231908
 20
86.6906082043
 30
0.0
 40
2.0
  0
CIRCLE
  5
DE
100
AcDbEntity
  8
2055_1P
390
0
100
AcDbCircle
 10
51.7675569462
 20
26.6899860655
 30
0.0
 40
2.0
  0
CIRCLE
  5
DF
100
AcDbEntity
  8
2055_1P
390
0
100
AcDbCircle
 10
60.9353396753
 20
101.6906082043
 30
0.0
 40
1.25
  0
CIRCLE
  5
E0
100
AcDbEntity
  8
2055_1 RAHMEN
390
0
100
AcDbCircle
 10
51.4754879634
 20
99.952420635
 30
0.0
 40
3.0
  0
CIRCLE
  5
E1
100
AcDbEntity
  8
2055_1P
390
0
  6
DIVIDE
100
AcDbCircle
 10
58.2000923277
 20
103.657473744
 30
0.0
 40
1.0
  0
CIRCLE
  5
E2
100
AcDbEntity
  8
2055_1 RAHMEN
390
0
100
AcDbCircle
 10
54.474231908
 20
53.6906082043
 30
0.0
 40
4.0
  0
CIRCLE
  5
E3
100
AcDbEntity
  8
2055_1P
390
0
100
AcDbCircle
 10
38.724231908
 20
41.1931084544
 30
0.0
 40
1.5
  0
CIRCLE
  5
E4
100
AcDbEntity
  8
2055_1P
390
0
100
AcDbCircle
 10
54.974231908
 20
41.1956087044
 30
0.0
 40
1.5
  0
CIRCLE
  5
E5
100
AcDbEntity
  8
2055_1P
390
0
100
AcDbCircle
 10
38.724231908
 20
72.1931084544
 30
0.0
 40
1.5
  0
CIRCLE
  5
E6
100
AcDbEntity
  8
2055_1P
390
0
100
AcDbCircle
 10
54.974231908
 20
72.1931084544
 30
0.0
 40
1.5
  0
ARC
  5
E7
100
AcDbEntity
  8
2055_1 RAHMEN
390
0
100
AcDbCircle
 10
38.474231908
 20
53.6906082043
 30
0.0
 40
4.0
100
AcDbArc
 50
270.0
 51
450.0
  0
ARC
  5
E8
100
AcDbEntity
  8
2055_2 KIPPHEBEL
390
0
100
AcDbCircle
 10
50.7249690981
 20
153.1728787681
 30
0.0
 40
1.5003717677
100
AcDbArc
 50
181.2702779172
 51
358.7192631842
  0
ARC
  5
E9
100
AcDbEntity
  8
2055_2 KIPPHEBEL
390
0
100
AcDbCircle
 10
41.724231908
 20
149.0959484897
 30
0.0
 40
16.0
100
AcDbArc
 50
51.8508328452
 51
51.9668334682
  0
LINE
  5
EA
100
AcDbEntity
  8
2055_2 KIPPHEBEL
390
0
100
AcDbLine
 10
52.2255792284
 20
159.8576240137
 30
0.0
 11
52.2249660435
 21
153.1393436394
 31
0.0
  0
LINE
  5
EB
100
AcDbEntity
  8
2055_2 KIPPHEBEL
390
0
100
AcDbLine
 10
46.7255097011
 20
159.0961079959
 30
0.0
 11
40.4037238323
 21
159.0959484897
 31
0.0
  0
LINE
  5
EC
100
AcDbEntity
  8
2055_2 KIPPHEBEL
390
0
100
AcDbLine
 10
59.0472957087
 20
159.0974240382
 30
0.0
 11
54.7255098275
 21
159.0970819898
 31
0.0
  0
LINE
  5
ED
100
AcDbEntity
  8
2055_2 KIPPHEBEL
390
0
100
AcDbLine
 10
56.724231908
 20
147.4709484897
 30
0.0
 11
59.4941479472
 21
147.4709484897
 31
0.0
  0
LINE
  5
EE
100
AcDbEntity
  8
2055_2 KIPPHEBEL
390
0
100
AcDbLine
 10
56.724231908
 20
150.7209484897
 30
0.0
 11
59.4941479472
 21
150.7209484897
 31
0.0
  0
LINE
  5
EF
100
AcDbEntity
  8
2055_2 KIPPHEBEL
390
0
100
AcDbLine
 10
49.2255792409
 20
159.857897827
 30
0.0
 11
49.224966056
 21
153.1396174527
 31
0.0
  0
ARC
  5
F0
100
AcDbEntity
  8
2055_2 KIPPHEBEL
390
0
100
AcDbCircle
 10
50.7255792347
 20
159.8577609204
 30
0.0
 40
1.5000000063
100
AcDbArc
 50
359.9947705507
 51
539.9947705507
  0
LINE
  5
F1
100
AcDbEntity
  8
MITTELLINIEN
390
0
100
AcDbLine
 10
34.7242319079
 20
17.6899860655
 30
0.0
 11
34.7242319079
 21
177.6775813462
 31
0.0
  0
LINE
  5
F2
100
AcDbEntity
  8
MITTELLINIEN
390
0
100
AcDbLine
 10
64.7242319079
 20
16.6899860655
 30
0.0
 11
64.7242319079
 21
177.6775813462
 31
0.0
  0
ARC
  5
F3
100
AcDbEntity
  8
2055_2P
390
0
100
AcDbCircle
 10
57.724231908
 20
149.0959484897
 30
0.0
 40
21.0
100
AcDbArc
 50
148.4119103996
 51
180.0
  0
ARC
  5
F4
100
AcDbEntity
  8
2055_2P
390
0
100
AcDbCircle
 10
41.724231908
 20
149.0959484897
 30
0.0
 40
5.0
100
AcDbArc
 50
180.0
 51
348.4630409672
  0
ARC
  5
F5
100
AcDbEntity
  8
2055_2P
390
0
100
AcDbCircle
 10
57.724231908
 20
149.0959484897
 30
0.0
 40
5.0
100
AcDbArc
 50
191.5369590328
 51
360.0
  0
ARC
  5
F6
100
AcDbEntity
  8
2055_2P
390
0
100
AcDbCircle
 10
41.724231908
 20
149.0959484897
 30
0.0
 40
21.0
100
AcDbArc
 50
0.0
 51
31.5930048335
  0
LINE
  5
F7
100
AcDbEntity
  8
2055_2P
390
0
100
AcDbLine
 10
59.6118408195
 20
160.0974687224
 30
0.0
 11
55.6243751939
 21
160.0971531338
 31
0.0
  0
ARC
  5
F8
100
AcDbEntity
  8
2055_2P
390
0
100
AcDbCircle
 10
50.7255096714
 20
159.0965949928
 30
0.0
 40
5.0
100
AcDbArc
 50
11.5434868193
 51
168.4690018597
  0
LINE
  5
F9
100
AcDbEntity
  8
2055_2P
390
0
  6
DIVIDE
100
AcDbLine
 10
45.8264261752
 20
160.0960853113
 30
0.0
 11
39.8356792749
 21
160.0959341576
 31
0.0
  0
LINE
  5
FA
100
AcDbEntity
  8
2055_2P
390
0
  6
DIVIDE
100
AcDbLine
 10
46.6232113936
 20
148.0959484897
 30
0.0
 11
52.8252524225
 21
148.0959484897
 31
0.0
  0
LINE
  5
FB
100
AcDbEntity
  8
2055_2P
390
0
100
AcDbLine
 10
56.724231908
 20
149.7209484897
 30
0.0
 11
59.4941479472
 21
149.7209484897
 31
0.0
  0
LINE
  5
FC
100
AcDbEntity
  8
2055_2P
390
0
100
AcDbLine
 10
56.724231908
 20
148.4709484897
 30
0.0
 11
59.4941479472
 21
148.4709484897
 31
0.0
  0
ARC
  5
FD
100
AcDbEntity
  8
2055_2P
390
0
100
AcDbCircle
 10
56.724231908
 20
149.0959484897
 30
0.0
 40
0.625
100
AcDbArc
 50
90.0
 51
270.0
  0
ARC
  5
FE
100
AcDbEntity
  8
2055_2P
390
0
100
AcDbCircle
 10
59.4941479472
 20
149.0959484897
 30
0.0
 40
0.625
100
AcDbArc
 50
270.0
 51
450.0
  0
LINE
  5
FF
100
AcDbEntity
  8
2055_2P
390
0
100
AcDbLine
 10
51.2255792326
 20
159.8577152848
 30
0.0
 11
51.2249673358
 21
153.153548271
 31
0.0
  0
LINE
  5
100
100
AcDbEntity
  8
2055_2P
390
0
100
AcDbLine
 10
50.2255792367
 20
159.8578065559
 30
0.0
 11
50.22496734
 21
153.1536395421
 31
0.0
  0
ARC
  5
101
100
AcDbEntity
  8
2055_2P
390
0
100
AcDbCircle
 10
50.7255792347
 20
159.8577609204
 30
0.0
 40
0.5000000063
100
AcDbArc
 50
359.9947705507
 51
539.9947705507
  0
ARC
  5
102
100
AcDbEntity
  8
2055_2P
390
0
100
AcDbCircle
 10
50.7249690981
 20
153.1728787681
 30
0.0
 40
0.5003717677
100
AcDbArc
 50
182.2035580675
 51
357.7859830339
  0
LINE
  5
103
100
AcDbEntity
  8
2055_2P
390
0
  6
DASHED
100
AcDbLine
 10
41.724231908
 20
149.0959484897
 30
0.0
 11
56.724231908
 21
149.7209484897
 31
0.0
  0
LINE
  5
104
100
AcDbEntity
  8
2055_2P
390
0
  6
DASHED
100
AcDbLine
 10
50.22496734
 20
153.1536395421
 30
0.0
 11
56.724231908
 21
149.7209484897
 31
0.0
  0
LINE
  5
105
100
AcDbEntity
  8
2055_2P
390
0
  6
DASHED
100
AcDbLine
 10
46.6232113936
 20
148.0959484897
 30
0.0
 11
34.7242319078
 21
143.3211026649
 31
0.0
  0
LINE
  5
106
100
AcDbEntity
  8
2055_2P
390
0
  6
DASHED
100
AcDbLine
 10
41.724231908
 20
149.0959484897
 30
0.0
 11
46.6232113936
 21
148.0959484897
 31
0.0
  0
LINE
  5
107
100
AcDbEntity
  8
2055_2P
390
0
  6
DASHED
100
AcDbLine
 10
50.22496734
 20
153.1536395421
 30
0.0
 11
34.724231908
 21
164.3211026716
 31
0.0
  0
LINE
  5
108
100
AcDbEntity
  8
2055_1P
390
0
  6
DIVIDE
100
AcDbLine
 10
63.7242319079
 20
108.6906082043
 30
0.0
 11
34.724231908
 21
108.6906082043
 31
0.0
  0
LINE
  5
109
100
AcDbEntity
  8
2055_1P
390
0
  6
DIVIDE
100
AcDbLine
 10
34.724231908
 20
21.6899860655
 30
0.0
 11
64.7242319079
 21
21.6899860655
 31
0.0
  0
LINE
  5
10A
100
AcDbEntity
  8
2055_1P
390
0
100
AcDbLine
 10
38.474231908
 20
56.6906082043
 30
0.0
 11
34.7242319079
 21
56.6906082043
 31
0.0
  0
LINE
  5
10B
100
AcDbEntity
  8
2055_1P
390
0
100
AcDbLine
 10
38.474231908
 20
50.6906082043
 30
0.0
 11
34.7242319079
 21
50.6906082043
 31
0.0
  0
ARC
  5
10C
100
AcDbEntity
  8
2055_1P
390
0
100
AcDbCircle
 10
38.474231908
 20
53.6906082043
 30
0.0
 40
3.0
100
AcDbArc
 50
270.0
 51
450.0
  0
ARC
  5
10D
100
AcDbEntity
  8
2055_1P
390
0
100
AcDbCircle
 10
54.474231908
 20
53.6906082043
 30
0.0
 40
3.0
100
AcDbArc
 50
180.0
 51
360.0
  0
ARC
  5
10E
100
AcDbEntity
  8
2055_1P
390
0
100
AcDbCircle
 10
51.4754879634
 20
99.952420635
 30
0.0
 40
2.0
100
AcDbArc
 50
180.0
 51
360.0
  0
LINE
  5
10F
100
AcDbEntity
  8
2055_1P
390
0
100
AcDbLine
 10
64.7242319079
 20
21.6899860655
 30
0.0
 11
64.7242319079
 21
107.6906082043
 31
0.0
  0
LINE
  5
110
100
AcDbEntity
  8
2055_1P
390
0
  6
DASHED
100
AcDbLine
 10
63.7242319079
 20
108.6906082043
 30
0.0
 11
60.9353396753
 21
101.6906082043
 31
0.0
  0
LINE
  5
111
100
AcDbEntity
  8
2055_1P
390
0
  6
DASHED
100
AcDbLine
 10
60.9353396753
 20
101.6906082043
 30
0.0
 11
58.2000923277
 21
103.657473744
 31
0.0
  0
ARC
  5
112
100
AcDbEntity
  8
2055_1P
390
0
 62
        34
100
AcDbCircle
 10
51.4754879634
 20
99.952420635
 30
0.0
 40
2.0
100
AcDbArc
 50
0.0
 51
180.0
  0
ARC
  5
113
100
AcDbEntity
  8
2055_1P
390
0
 62
        34
100
AcDbCircle
 10
54.474231908
 20
53.6906082043
 30
0.0
 40
3.0
100
AcDbArc
 50
0.0
 51
180.0
  0
LINE
  5
114
100
AcDbEntity
  8
2055_1P
390
0
  6
DASHED
100
AcDbLine
 10
58.2000923277
 20
103.657473744
 30
0.0
 11
49.4754879634
 21
99.952420635
 31
0.0
  0
LINE
  5
115
100
AcDbEntity
  8
2055_1P
390
0
  6
DASHED
100
AcDbLine
 10
49.4754879634
 20
99.952420635
 30
0.0
 11
38.5473026387
 21
101.6906082043
 31
0.0
  0
LINE
  5
116
100
AcDbEntity
  8
2055_1P
390
0
  6
DASHED
100
AcDbLine
 10
51.724231908
 20
86.6906082043
 30
0.0
 11
58.474231908
 21
90.1906082043
 31
0.0
  0
LINE
  5
117
100
AcDbEntity
  8
2055_1P
390
0
  6
DASHED
100
AcDbLine
 10
38.724231908
 20
72.1931084544
 30
0.0
 11
54.974231908
 21
72.1931084544
 31
0.0
  0
LINE
  5
118
100
AcDbEntity
  8
2055_1P
390
0
  6
DASHED
100
AcDbLine
 10
54.974231908
 20
41.1956087044
 30
0.0
 11
51.474231908
 21
53.6906082043
 31
0.0
  0
LINE
  5
119
100
AcDbEntity
  8
2055_1P
390
0
  6
DASHED
100
AcDbLine
 10
51.474231908
 20
53.6906082043
 30
0.0
 11
38.724231908
 21
72.1931084544
 31
0.0
  0
LINE
  5
11A
100
AcDbEntity
  8
2055_1P
390
0
  6
DASHED
100
AcDbLine
 10
54.974231908
 20
41.1956087044
 30
0.0
 11
38.724231908
 21
41.1931084544
 31
0.0
  0
LINE
  5
11B
100
AcDbEntity
  8
2055_1P
390
0
  6
DASHED
100
AcDbLine
 10
51.7675569462
 20
26.6899860655
 30
0.0
 11
38.724231908
 21
41.1931084544
 31
0.0
  0
CIRCLE
  5
11C
100
AcDbEntity
  8
2055_1P
390
0
  6
PHANTOM
100
AcDbCircle
 10
34.724231908
 20
108.6906082043
 30
0.0
 40
0.5
  0
CIRCLE
  5
11D
100
AcDbEntity
  8
2055_1P
390
0
  6
PHANTOM
100
AcDbCircle
 10
34.724231908
 20
21.6899860655
 30
0.0
 40
1.0
  0
CIRCLE
  5
11E
100
AcDbEntity
  8
2055_2P
390
0
  6
PHANTOM
100
AcDbCircle
 10
34.724231908
 20
164.3211026716
 30
0.0
 40
0.5
  0
CIRCLE
  5
11F
100
AcDbEntity
  8
2055_2P
390
0
  6
PHANTOM
100
AcDbCircle
 10
34.7242319078
 20
143.3211026649
 30
0.0
 40
1.0
  0
MTEXT
  5
120
100
AcDbEntity
  8
2055___ DOPPELSCHLOSS
390
0
100
AcDbMText
 10
24.2183812347
 20
151.1919945593
 30
0.0
 40
2.0
 41
0.0
 71
         7
 72
         1
  1
\W1.135110;>2055.2P\PM25+x2\PT2 O2
  7
Arial
 11
1.0
 21
0.0
 31
0.0
 73
         1
 44
0.66
  0
TEXT
  5
121
100
AcDbEntity
  8
2055_2P
390
0
100
AcDbText
 10
26.171959734
 20
163.9082603344
 30
0.0
 40
2.0
  1
@2055.1P
 41
1.1350966774
  7
Arial
100
AcDbText
  0
MTEXT
  5
122
100
AcDbEntity
  8
2055___ DOPPELSCHLOSS
390
0
100
AcDbMText
 10
25.63739353
 20
174.7662571009
 30
0.0
 40
2.5
 41
0.0
 71
         5
 72
         1
  1
\W1.135098;\L2055.2P\P25+x2
  7
Arial
 73
         1
 44
0.66
  0
MTEXT
  5
123
100
AcDbEntity
  8
2055_1P
390
0
100
AcDbMText
 10
26.2946482613
 20
105.2626748905
 30
0.0
 40
2.0
 41
0.0
 71
         7
 72
         1
  1
\W1.135098;M30+x2\PT2 O2 F150\PB-0.3    D1.6\PI1.2 P4 U20
  7
Arial
 73
         1
 44
0.66
  0
ARC
  5
124
100
AcDbEntity
  8
2055___ DOPPELSCHLOSS
390
0
  6
DASHDOT
100
AcDbCircle
 10
49.1065203874
 20
153.8211026681
 30
0.0
 40
17.8073081059
100
AcDbArc
 50
143.8681405271
 51
216.1318594719
  0
ARC
  5
125
100
AcDbEntity
  8
2055___ DOPPELSCHLOSS
390
0
  6
DASHDOT
100
AcDbCircle
 10
139.9165271174
 20
65.1902971349
 30
0.0
 40
113.8318761795
100
AcDbArc
 50
157.5333720081
 51
202.4666279919
  0
MTEXT
  5
126
100
AcDbEntity
  8
2055___ DOPPELSCHLOSS
390
0
100
AcDbMText
 10
24.0956927075
 20
90.3384850536
 30
0.0
 40
2.0
 41
0.0
 71
         7
 72
         1
  1
\W1.135110;>2055.1P\PM30+x2\PT2 O2
  7
Arial
 11
1.0
 21
0.0
 31
0.0
 73
         1
 44
0.66
  0
CIRCLE
  5
127
100
AcDbEntity
  8
2055_1P
390
0
100
AcDbCircle
 10
58.474231908
 20
90.1906082043
 30
0.0
 40
1.25
  0
CIRCLE
  5
128
100
AcDbEntity
  8
2055_1P
390
0
100
AcDbCircle
 10
42.4742319079
 20
90.1906082043
 30
0.0
 40
1.25
  0
LINE
  5
129
100
AcDbEntity
  8
2055_1P
390
0
  6
DASHED
100
AcDbLine
 10
38.5473026387
 20
101.6906082043
 30
0.0
 11
42.4742319079
 21
90.1906082043
 31
0.0
  0
LINE
  5
12A
100
AcDbEntity
  8
2055_1P
390
0
  6
DASHED
100
AcDbLine
 10
42.4742319079
 20
90.1906082043
 30
0.0
 11
51.724231908
 21
86.6906082043
 31
0.0
  0
LINE
  5
12B
100
AcDbEntity
  8
2055_1P
390
0
  6
DASHED
100
AcDbLine
 10
54.974231908
 20
72.1931084544
 30
0.0
 11
58.474231908
 21
90.1906082043
 31
0.0
  0
MTEXT
  5
12C
100
AcDbEntity
  8
2055___ DOPPELSCHLOSS
390
0
100
AcDbMText
 10
25.288695461
 20
123.1268653482
 30
0.0
 40
2.5
 41
0.0
 71
         5
 72
         1
  1
\W1.135098;\L2055.1P\P30+x2
  7
Arial
 73
         1
 44
0.66
  0
INSERT
  5
12D
100
AcDbEntity
  8
BEMASSUNG
390
0
100
AcDbBlockReference
  2
D396504832
 10
0.0
 20
0.0
 30
0.0
  0
MTEXT
  5
12E
100
AcDbEntity
  8
2055___ DOPPELSCHLOSS
390
0
100
AcDbMText
 10
82.8329026464
 20
134.2191704689
 30
0.0
 40
2.0
 41
0.0
 71
         1
 72
         1
  1
\W0.810868;2055.1P\P2055.2P
  7
Arial
 73
         1
 44
0.75
  0
MTEXT
  5
12F
100
AcDbEntity
  8
2055___ DOPPELSCHLOSS
390
0
100
AcDbMText
 10
100.083970575
 20
134.2191704689
 30
0.0
 40
2.0
 41
0.0
 71
         1
 72
         1
  1
\W0.810869;0\P0
  7
Arial
 73
         1
 44
0.75
  0
MTEXT
  5
130
100
AcDbEntity
  8
2055___ DOPPELSCHLOSS
390
0
100
AcDbMText
 10
104.9067788589
 20
134.2191704689
 30
0.0
 40
2.0
 41
0.0
 71
         1
 72
         1
  1
\W0.810867;Doppelschloss-Rahmen\PDoppelschloss-Wippe
  7
Arial
 73
         1
 44
0.75
  0
LINE
  5
131
100
AcDbEntity
  8
2055_1P
390
0
100
AcDbLine
 10
34.7242319079
 20
22.6899860655
 30
0.0
 11
34.7242319079
 21
50.6906082043
 31
0.0
  0
LINE
  5
132
100
AcDbEntity
  8
2055_1P
390
0
100
AcDbLine
 10
34.7242319079
 20
56.6906082043
 30
0.0
 11
34.7242319079
 21
107.6906082043
 31
0.0
  0
ARC
  5
133
100
AcDbEntity
  8
2055_1P
390
0
  6
DASHED
100
AcDbCircle
 10
49.7242319079
 20
153.6695959334
 30
0.0
 40
48.3639050593
100
AcDbArc
 50
251.9318107738
 51
288.0681892262
  0
ARC
  5
134
100
AcDbEntity
  8
2055_1P
390
0
  6
DASHED
100
AcDbCircle
 10
44.4924508358
 20
19.3786195524
 30
0.0
 40
10.3142255747
100
AcDbArc
 50
45.1424308546
 51
161.27365523
  0
INSERT
  5
135
100
AcDbEntity
  8
BEMASSUNG
390
0
100
AcDbBlockReference
  2
D396505344
 10
0.0
 20
0.0
 30
0.0
  0
INSERT
  5
136
100
AcDbEntity
  8
BEMASSUNG
390
0
100
AcDbBlockReference
  2
D396505600
 10
0.0
 20
0.0
 30
0.0
  0
LINE
  5
137
100
AcDbEntity
  8
STANDARD
390
0
100
AcDbLine
 10
292.0
 20
200.0
 30
0.0
 11
5.0
 21
200.0
 31
0.0
  0
LINE
  5
138
100
AcDbEntity
  8
STANDARD
390
0
100
AcDbLine
 10
10.0
 20
195.0
 30
0.0
 11
10.0
 21
5.0
 31
0.0
  0
LINE
  5
139
100
AcDbEntity
  8
STANDARD
390
0
100
AcDbLine
 10
5.0
 20
200.0
 30
0.0
 11
5.0
 21
195.0
 31
0.0
  0
LINE
  5
13A
100
AcDbEntity
  8
STANDARD
390
0
100
AcDbLine
 10
292.0
 20
200.0
 30
0.0
 11
292.0
 21
195.0
 31
0.0
  0
LINE
  5
13B
100
AcDbEntity
  8
STANDARD
390
0
100
AcDbLine
 10
52.8333333333
 20
200.0
 30
0.0
 11
52.8333333333
 21
195.0
 31
0.0
  0
LINE
  5
13C
100
AcDbEntity
  8
STANDARD
390
0
100
AcDbLine
 10
100.6666666667
 20
200.0
 30
0.0
 11
100.6666666667
 21
195.0
 31
0.0
  0
LINE
  5
13D
100
AcDbEntity
  8
STANDARD
390
0
100
AcDbLine
 10
148.5
 20
200.0
 30
0.0
 11
148.5
 21
195.0
 31
0.0
  0
LINE
  5
13E
100
AcDbEntity
  8
STANDARD
390
0
100
AcDbLine
 10
196.3333333333
 20
200.0
 30
0.0
 11
196.3333333333
 21
195.0
 31
0.0
  0
LINE
  5
13F
100
AcDbEntity
  8
STANDARD
390
0
100
AcDbLine
 10
244.1666666667
 20
200.0
 30
0.0
 11
244.1666666667
 21
195.0
 31
0.0
  0
LINE
  5
140
100
AcDbEntity
  8
STANDARD
390
0
100
AcDbLine
 10
5.0
 20
52.5
 30
0.0
 11
10.0
 21
52.5
 31
0.0
  0
LINE
  5
141
100
AcDbEntity
  8
STANDARD
390
0
100
AcDbLine
 10
5.0
 20
100.0
 30
0.0
 11
10.0
 21
100.0
 31
0.0
  0
LINE
  5
142
100
AcDbEntity
  8
STANDARD
390
0
100
AcDbLine
 10
5.0
 20
147.5
 30
0.0
 11
10.0
 21
147.5
 31
0.0
  0
TEXT
  5
143
100
AcDbEntity
  8
STANDARD
390
0
100
AcDbText
 10
27.6214908115
 20
196.4732039063
 30
0.0
 40
2.23125
  1
1
 41
1.5479225906
  7
Arial
 72
         1
 11
28.9166666667
 21
196.4732039063
 31
0.0
100
AcDbText
  0
TEXT
  5
144
100
AcDbEntity
  8
STANDARD
390
0
100
AcDbText
 10
75.0230999712
 20
196.4732039063
 30
0.0
 40
2.23125
  1
2
 41
1.5479215945
  7
Arial
 72
         1
 11
76.75
 21
196.4732039063
 31
0.0
100
AcDbText
  0
TEXT
  5
145
100
AcDbEntity
  8
STANDARD
390
0
100
AcDbText
 10
122.8564319709
 20
196.4732039063
 30
0.0
 40
2.23125
  1
3
 41
1.5479227899
  7
Arial
 72
         1
 11
124.5833333333
 21
196.4732039063
 31
0.0
100
AcDbText
  0
TEXT
  5
146
100
AcDbEntity
  8
STANDARD
390
0
100
AcDbText
 10
170.6897655265
 20
196.4732039063
 30
0.0
 40
2.23125
  1
4
 41
1.5479225906
  7
Arial
 72
         1
 11
172.4166666667
 21
196.4732039063
 31
0.0
100
AcDbText
  0
TEXT
  5
147
100
AcDbEntity
  8
STANDARD
390
0
100
AcDbText
 10
218.5230997489
 20
196.4732039063
 30
0.0
 40
2.23125
  1
5
 41
1.5479217937
  7
Arial
 72
         1
 11
220.25
 21
196.4732039063
 31
0.0
100
AcDbText
  0
TEXT
  5
148
100
AcDbEntity
  8
STANDARD
390
0
100
AcDbText
 10
266.3564321932
 20
196.4732039063
 30
0.0
 40
2.23125
  1
6
 41
1.5479225906
  7
Arial
 72
         1
 11
268.0833333333
 21
196.4732039063
 31
0.0
100
AcDbText
  0
TEXT
  5
149
100
AcDbEntity
  8
STANDARD
390
0
100
AcDbText
 10
5.773027185
 20
172.7232039063
 30
0.0
 40
2.23125
  1
A
 41
1.547986837
  7
Arial
 72
         1
 11
7.5
 21
172.7232039063
 31
0.0
100
AcDbText
  0
TEXT
  5
14A
100
AcDbEntity
  8
STANDARD
390
0
100
AcDbText
 10
5.7730267401
 20
125.2232039063
 30
0.0
 40
2.23125
  1
B
 41
1.5479872357
  7
Arial
 72
         1
 11
7.5
 21
125.2232039063
 31
0.0
100
AcDbText
  0
TEXT
  5
14B
100
AcDbEntity
  8
STANDARD
390
0
100
AcDbText
 10
5.7728972752
 20
77.7232039063
 30
0.0
 40
2.23125
  1
C
 41
1.5481032827
  7
Arial
 72
         1
 11
7.5
 21
77.7232039063
 31
0.0
100
AcDbText
  0
TEXT
  5
14C
100
AcDbEntity
  8
STANDARD
390
0
100
AcDbText
 10
5.7728964192
 20
30.2232039062
 30
0.0
 40
2.23125
  1
D
 41
1.54810405
  7
Arial
 72
         1
 11
7.5
 21
30.2232039062
 31
0.0
100
AcDbText
  0
LINE
  5
14D
100
AcDbEntity
  8
STANDARD
390
0
100
AcDbLine
 10
5.0
 20
5.0
 30
0.0
 11
10.0
 21
5.0
 31
0.0
  0
LINE
  5
14E
100
AcDbEntity
  8
STANDARD
390
0
100
AcDbLine
 10
292.0
 20
5.0
 30
0.0
 11
292.0
 21
195.0
 31
0.0
  0
LINE
  5
14F
100
AcDbEntity
  8
STANDARD
390
0
100
AcDbLine
 10
292.0
 20
195.0
 30
0.0
 11
10.0
 21
195.0
 31
0.0
  0
LINE
  5
150
100
AcDbEntity
  8
STANDARD
390
0
100
AcDbLine
 10
5.0
 20
195.0
 30
0.0
 11
5.0
 21
5.0
 31
0.0
  0
LINE
  5
151
100
AcDbEntity
  8
STANDARD
390
0
100
AcDbLine
 10
296.0
 20
209.0
 30
0.0
 11
1.0
 21
209.0
 31
0.0
  0
LINE
  5
152
100
AcDbEntity
  8
STANDARD
390
0
100
AcDbLine
 10
296.0
 20
1.0
 30
0.0
 11
296.0
 21
209.0
 31
0.0
  0
LINE
  5
153
100
AcDbEntity
  8
STANDARD
390
0
100
AcDbLine
 10
1.0
 20
1.0
 30
0.0
 11
296.0
 21
1.0
 31
0.0
  0
LINE
  5
154
100
AcDbEntity
  8
STANDARD
390
0
100
AcDbLine
 10
1.0
 20
209.0
 30
0.0
 11
1.0
 21
1.0
 31
0.0
  0
LINE
  5
155
100
AcDbEntity
  8
STANDARD
390
0
100
AcDbLine
 10
10.0
 20
195.0
 30
0.0
 11
5.0
 21
195.0
 31
0.0
  0
LINE
  5
156
100
AcDbEntity
  8
STANDARD
390
0
100
AcDbLine
 10
10.0
 20
5.0
 30
0.0
 11
292.0
 21
5.0
 31
0.0
  0
MTEXT
  5
157
100
AcDbEntity
  8
STANDARD
390
0
100
AcDbMText
 10
215.5777227339
 20
6.520569157
 30
0.0
 40
1.59375
 41
0.0
 71
         7
 72
         1
  1

  7
Arial
 73
         1
 44
1.0352941176
  0
MTEXT
  5
158
100
AcDbEntity
  8
STANDARD
390
0
100
AcDbMText
 10
269.4128856935
 20
6.5165742187
 30
0.0
 40
1.59375
 41
0.0
 71
         7
 72
         1
  1

  7
Arial
 73
         1
 44
1.0352941176
  0
MTEXT
  5
159
100
AcDbEntity
  8
STANDARD
390
0
100
AcDbMText
 10
171.2439051502
 20
6.520569157
 30
0.0
 40
1.59375
 41
0.0
 71
         7
 72
         1
  1

  7
Arial
 73
         1
 44
1.0352941176
  0
TEXT
  5
15A
100
AcDbEntity
  8
BESCHRIFTUNG
390
0
100
AcDbText
 10
169.1145333333
 20
29.1386
 30
0.0
 40
3.3
  1
Stellwerk HMM
 41
1.3758039542
 51
15.0
  7
Arial
 11
169.1145333333
 21
32.4386
 31
0.0
100
AcDbText
 73
         3
  0
TEXT
  5
15B
100
AcDbEntity
  8
BESCHRIFTUNG
390
0
100
AcDbText
 10
215.5344888889
 20
21.6601111111
 30
0.0
 40
3.3
  1
 Doppelschloss
 41
1.1301940506
 51
15.0
  7
Arial
 11
215.5344888889
 21
24.9601111111
 31
0.0
100
AcDbText
 73
         3
  0
TEXT
  5
15C
100
AcDbEntity
  8
BESCHRIFTUNG
390
0
100
AcDbText
 10
169.1145333333
 20
6.9230888889
 30
0.0
 40
3.3
  1
Dateiname
 41
1.1437088374
 51
15.0
  7
Arial
 11
169.1145333333
 21
10.2230888889
 31
0.0
100
AcDbText
 73
         3
  0
TEXT
  5
15D
100
AcDbEntity
  8
BESCHRIFTUNG
390
0
100
AcDbText
 10
169.3344888889
 20
21.6601111111
 30
0.0
 40
3.3
  1
Bl. 2055 Ph
 41
1.1437163554
 51
15.0
  7
Arial
 11
169.3344888889
 21
24.9601111111
 31
0.0
100
AcDbText
 73
         3
  0
TEXT
  5
15E
100
AcDbEntity
  8
BESCHRIFTUNG
390
0
100
AcDbText
 10
253.1145333333
 20
29.1386
 30
0.0
 40
3.3
  1
Maßstab 1:1
 41
1.1437192123
 51
15.0
  7
Arial
 11
253.1145333333
 21
32.4386
 31
0.0
100
AcDbText
 73
         3
  0
LINE
  5
15F
100
AcDbEntity
  8
_TEMP
370
         0
390
0
100
AcDbLine
 10
214.2194301994
 20
34.4
 30
0.0
 11
214.2194301994
 21
5.0
 31
0.0
  0
LINE
  5
160
100
AcDbEntity
  8
_TEMP
370
         0
390
0
100
AcDbLine
 10
168.0194301994
 20
34.4
 30
0.0
 11
291.9134472934
 21
34.4
 31
0.0
  0
LINE
  5
161
100
AcDbEntity
  8
_TEMP
370
         0
390
0
100
AcDbLine
 10
168.0194301994
 20
27.4
 30
0.0
 11
291.9134472934
 21
27.4
 31
0.0
  0
LINE
  5
162
100
AcDbEntity
  8
_TEMP
370
         0
390
0
100
AcDbLine
 10
168.0194301994
 20
12.0
 30
0.0
 11
291.9134472934
 21
12.0
 31
0.0
  0
LINE
  5
163
100
AcDbEntity
  8
_TEMP
370
         0
390
0
100
AcDbLine
 10
168.0194301994
 20
34.4
 30
0.0
 11
168.0194301994
 21
5.0
 31
0.0
  0
LINE
  5
164
100
AcDbEntity
  8
_TEMP
370
         0
390
0
100
AcDbLine
 10
252.0194301994
 20
34.4
 30
0.0
 11
252.0194301994
 21
27.4
 31
0.0
  0
ENDSEC
  0
SECTION
  2
OBJECTS
  0
DICTIONARY
  5
19
100
AcDbDictionary
280
         0
281
         1
  3
ACAD_GROUP
350
1A
  3
ACAD_MLINESTYLE
350
1B
  3
ACAD_LAYOUT
350
1E
  3
ACAD_PLOTSETTINGS
350
22
  3
ACAD_PLOTSTYLENAME
350
1F
  3
ACAD_WIPEOUT_VARS
350
23
  0
DICTIONARY
  5
1A
102
{ACAD_REACTORS
330
19
102
}
100
AcDbDictionary
280
         0
281
         1
  0
DICTIONARY
  5
1B
102
{ACAD_REACTORS
330
19
102
}
100
AcDbDictionary
280
         0
281
         1
  3
Standard
350
1C
  0
MLINESTYLE
  5
1C
102
{ACAD_REACTORS
330
1B
102
}
100
AcDbMlineStyle
  2
Standard
 70
         0
  3

 62
         0
 51
90.0
 52
90.0
 71
         2
 49
0.5
 62
       256
  6
ByLayer
 49
-0.5
 62
       256
  6
ByLayer
  0
ACDBDICTIONARYWDFLT
  5
1F
102
{ACAD_REACTORS
330
19
102
}
100
AcDbDictionary
281
         1
  3
Normal
350
1D
100
AcDbDictionaryWithDefault
340
1D
  0
ACDBPLACEHOLDER
  5
1D
102
{ACAD_REACTORS
330
1F
102
}
  0
LAYOUT
  5
20
102
{ACAD_REACTORS
330
1E
102
}
100
AcDbPlotSettings
  1

  2

  4

  6

 40
0.0
 41
0.0
 42
0.0
 43
0.0
 44
0.0
 45
0.0
 46
0.0
 47
0.0
 48
0.0
 49
0.0
140
0.0
141
0.0
142
1.0
143
1.0
 70
      1024
 72
         0
 73
         0
 74
         0
  7

 75
         0
147
1.0
148
0.0
149
0.0
100
AcDbLayout
  1
Model
 70
         0
 71
         0
 10
0.0
 20
0.0
 11
0.0
 21
0.0
 12
0.0
 22
0.0
 32
0.0
 14
0.0
 24
0.0
 34
0.0
 15
0.0
 25
0.0
 35
0.0
146
0.0
 13
0.0
 23
0.0
 33
0.0
 16
0.0
 26
0.0
 36
0.0
 17
0.0
 27
0.0
 37
0.0
 76
         0
330
A
331
0
345
0
346
0
  0
LAYOUT
  5
21
102
{ACAD_REACTORS
330
1E
102
}
100
AcDbPlotSettings
  1

  2

  4

  6

 40
0.0
 41
0.0
 42
0.0
 43
0.0
 44
0.0
 45
0.0
 46
0.0
 47
0.0
 48
0.0
 49
0.0
140
0.0
141
0.0
142
1.0
143
1.0
 70
         0
 72
         0
 73
         0
 74
         0
  7

 75
         0
147
1.0
148
0.0
149
0.0
100
AcDbLayout
  1
Layout1
 70
         0
 71
         0
 10
0.0
 20
0.0
 11
0.0
 21
0.0
 12
0.0
 22
0.0
 32
0.0
 14
0.0
 24
0.0
 34
0.0
 15
0.0
 25
0.0
 35
0.0
146
0.0
 13
0.0
 23
0.0
 33
0.0
 16
0.0
 26
0.0
 36
0.0
 17
0.0
 27
0.0
 37
0.0
 76
         0
330
B
331
0
345
0
346
0
  0
DICTIONARY
  5
1E
102
{ACAD_REACTORS
330
19
102
}
100
AcDbDictionary
280
         0
281
         1
  3
Layout1
350
21
  3
Model
350
20
  0
DICTIONARY
  5
22
102
{ACAD_REACTORS
330
19
102
}
100
AcDbDictionary
280
         0
281
         1
  0
WIPEOUTVARIABLES
  5
23
100
AcDbWipeoutVariables
 70
         1
  0
ENDSEC
  0
EOF
