  0
SECTION
  2
HEADER
  9
$ACADVER
  1
AC1015
  9
$ACADMAINTVER
 70
         6
  9
$DWGCODEPAGE
  3
ANSI_1252
  9
$INSBASE
 10
0.0
 20
0.0
 30
0.0
  9
$EXTMIN
 10
0.0
 20
0.0
 30
0.0
  9
$EXTMAX
 10
415.4922485352
 20
297.0
 30
0.0
  9
$LIMMIN
 10
0.0
 20
0.0
  9
$LIMMAX
 10
415.4922485352
 20
297.0
  9
$ORTHOMODE
 70
         0
  9
$REGENMODE
 70
         1
  9
$FILLMODE
 70
         1
  9
$QTEXTMODE
 70
         0
  9
$MIRRTEXT
 70
         1
  9
$LTSCALE
 40
10.3873062134
  9
$ATTMODE
 70
         1
  9
$TEXTSIZE
 40
0.2
  9
$TRACEWID
 40
0.05
  9
$TEXTSTYLE
  7
Standard
  9
$CLAYER
  8
0
  9
$CELTYPE
  6
CONTINUOUS
  9
$CECOLOR
 62
       256
  9
$CELTSCALE
 40
1.0
  9
$DISPSILH
 70
         0
  9
$DIMSCALE
 40
1.0
  9
$DIMASZ
 40
0.18
  9
$DIMEXO
 40
0.0625
  9
$DIMDLI
 40
0.38
  9
$DIMRND
 40
0.0
  9
$DIMDLE
 40
0.0
  9
$DIMEXE
 40
0.18
  9
$DIMTP
 40
0.0
  9
$DIMTM
 40
0.0
  9
$DIMTXT
 40
3.0
  9
$DIMCEN
 40
0.09
  9
$DIMTSZ
 40
0.0
  9
$DIMTOL
 70
         0
  9
$DIMLIM
 70
         0
  9
$DIMTIH
 70
         1
  9
$DIMTOH
 70
         1
  9
$DIMSE1
 70
         0
  9
$DIMSE2
 70
         0
  9
$DIMTAD
 70
         1
  9
$DIMZIN
 70
         0
  9
$DIMBLK
  1

  9
$DIMASO
 70
         1
  9
$DIMSHO
 70
         1
  9
$DIMPOST
  1
<>
  9
$DIMAPOST
  1

  9
$DIMALT
 70
         0
  9
$DIMALTD
 70
         2
  9
$DIMALTF
 40
25.4
  9
$DIMLFAC
 40
1.0
  9
$DIMTOFL
 70
         0
  9
$DIMTVP
 40
0.0
  9
$DIMTIX
 70
         0
  9
$DIMSOXD
 70
         0
  9
$DIMSAH
 70
         0
  9
$DIMBLK1
  1

  9
$DIMBLK2
  1

  9
$DIMSTYLE
  2
Standard
  9
$DIMCLRD
 70
         0
  9
$DIMCLRE
 70
         0
  9
$DIMCLRT
 70
         0
  9
$DIMTFAC
 40
1.0
  9
$DIMGAP
 40
0.09
  9
$DIMJUST
 70
         0
  9
$DIMSD1
 70
         0
  9
$DIMSD2
 70
         0
  9
$DIMTOLJ
 70
         1
  9
$DIMTZIN
 70
         0
  9
$DIMALTZ
 70
         0
  9
$DIMALTTZ
 70
         0
  9
$DIMUPT
 70
         0
  9
$DIMDEC
 70
         4
  9
$DIMTDEC
 70
         4
  9
$DIMALTU
 70
         2
  9
$DIMALTTD
 70
         2
  9
$DIMTXSTY
  7
Standard
  9
$DIMAUNIT
 70
         0
  9
$DIMADEC
 70
         0
  9
$DIMALTRND
 40
0.0
  9
$DIMAZIN
 70
         0
  9
$DIMDSEP
 70
         0
  9
$DIMATFIT
 70
         3
  9
$DIMFRAC
 70
         0
  9
$DIMLDRBLK
  1

  9
$DIMLUNIT
 70
         2
  9
$DIMLWD
 70
         0
  9
$DIMLWE
 70
         0
  9
$DIMTMOVE
 70
         0
  9
$LUNITS
 70
         2
  9
$LUPREC
 70
         4
  9
$SKETCHINC
 40
0.1
  9
$FILLETRAD
 40
0.0
  9
$AUNITS
 70
         0
  9
$AUPREC
 70
         0
  9
$MENU
  1
acad
  9
$ELEVATION
 40
0.0
  9
$PELEVATION
 40
0.0
  9
$THICKNESS
 40
0.0
  9
$LIMCHECK
 70
         0
  9
$CHAMFERA
 40
0.0
  9
$CHAMFERB
 40
0.0
  9
$CHAMFERC
 40
0.0
  9
$CHAMFERD
 40
0.0
  9
$SKPOLY
 70
         0
  9
$TDCREATE
 40
0.000000000
  9
$TDUCREATE
 40
0.000000000
  9
$TDUPDATE
 40
0.000000000
  9
$TDUUPDATE
 40
0.000000000
  9
$TDINDWG
 40
0.0000000000
  9
$TDUSRTIMER
 40
0.0000000000
  9
$USRTIMER
 70
         1
  9
$ANGBASE
 50
0.0
  9
$ANGDIR
 70
         0
  9
$PDMODE
 70
         0
  9
$PDSIZE
 40
0.0
  9
$PLINEWID
 40
0.0
  9
$SPLFRAME
 70
         0
  9
$SPLINETYPE
 70
         6
  9
$SPLINESEGS
 70
         8
  9
$HANDSEED
  5
13E
  9
$SURFTAB1
 70
         6
  9
$SURFTAB2
 70
         6
  9
$SURFTYPE
 70
         6
  9
$SURFU
 70
         6
  9
$SURFV
 70
         6
  9
$UCSBASE
  2

  9
$UCSNAME
  2

  9
$UCSORG
 10
0.0
 20
0.0
 30
0.0
  9
$UCSXDIR
 10
1.0
 20
0.0
 30
0.0
  9
$UCSYDIR
 10
0.0
 20
1.0
 30
0.0
  9
$UCSORTHOREF
  2

  9
$UCSORTHOVIEW
 70
         0
  9
$UCSORGTOP
 10
0.0
 20
0.0
 30
0.0
  9
$UCSORGBOTTOM
 10
0.0
 20
0.0
 30
0.0
  9
$UCSORGLEFT
 10
0.0
 20
0.0
 30
0.0
  9
$UCSORGRIGHT
 10
0.0
 20
0.0
 30
0.0
  9
$UCSORGFRONT
 10
0.0
 20
0.0
 30
0.0
  9
$UCSORGBACK
 10
0.0
 20
0.0
 30
0.0
  9
$PUCSBASE
  2

  9
$PUCSNAME
  2

  9
$PUCSORG
 10
0.0
 20
0.0
 30
0.0
  9
$PUCSXDIR
 10
1.0
 20
0.0
 30
0.0
  9
$PUCSYDIR
 10
0.0
 20
1.0
 30
0.0
  9
$PUCSORTHOREF
  2

  9
$PUCSORTHOVIEW
 70
         0
  9
$PUCSORGTOP
 10
0.0
 20
0.0
 30
0.0
  9
$PUCSORGBOTTOM
 10
0.0
 20
0.0
 30
0.0
  9
$PUCSORGLEFT
 10
0.0
 20
0.0
 30
0.0
  9
$PUCSORGRIGHT
 10
0.0
 20
0.0
 30
0.0
  9
$PUCSORGFRONT
 10
0.0
 20
0.0
 30
0.0
  9
$PUCSORGBACK
 10
0.0
 20
0.0
 30
0.0
  9
$USERI1
 70
         0
  9
$USERI2
 70
         0
  9
$USERI3
 70
         0
  9
$USERI4
 70
         0
  9
$USERI5
 70
         0
  9
$USERR1
 40
0.0
  9
$USERR2
 40
0.0
  9
$USERR3
 40
0.0
  9
$USERR4
 40
0.0
  9
$USERR5
 40
0.0
  9
$WORLDVIEW
 70
         1
  9
$SHADEDGE
 70
         3
  9
$SHADEDIF
 70
        70
  9
$TILEMODE
 70
         1
  9
$MAXACTVP
 70
        16
  9
$PINSBASE
 10
0.0
 20
0.0
 30
0.0
  9
$PLIMCHECK
 70
         0
  9
$PEXTMIN
 10
1.0000000000E+20
 20
1.0000000000E+20
 30
1.0000000000E+20
  9
$PEXTMAX
 10
-1.0000000000E+20
 20
-1.0000000000E+20
 30
-1.0000000000E+20
  9
$PLIMMIN
 10
0.0
 20
0.0
  9
$PLIMMAX
 10
12.0
 20
9.0
  9
$UNITMODE
 70
         0
  9
$VISRETAIN
 70
         0
  9
$PLINEGEN
 70
         1
  9
$PSLTSCALE
 70
         0
  9
$TREEDEPTH
 70
      3020
  9
$CMLSTYLE
  2
Standard
  9
$CMLJUST
 70
         0
  9
$CMLSCALE
 40
1.0
  9
$PROXYGRAPHICS
 70
         0
  9
$MEASUREMENT
 70
         1
  9
$CELWEIGHT
370
         0
  9
$ENDCAPS
280
         0
  9
$JOINSTYLE
280
         0
  9
$LWDISPLAY
290
         0
  9
$INSUNITS
 70
         0
  9
$HYPERLINKBASE
  1

  9
$STYLESHEET
  1

  9
$XEDIT
290
         1
  9
$CEPSNTYPE
380
         0
  9
$PSTYLEMODE
290
         1
  9
$FINGERPRINTGUID
  2

  9
$VERSIONGUID
  2

  9
$EXTNAMES
290
         1
  9
$PSVPSCALE
 40
0.0
  0
ENDSEC
  0
SECTION
  2
CLASSES
  0
CLASS
  1
LWPOLYLINE
  2
AcDbPolyline
  3
AutoCAD 2000
 90
        0
280
         0
281
         1
  0
CLASS
  1
IMAGE
  2
AcDbRasterImage
  3
ISM
 90
      127
280
         0
281
         1
  0
CLASS
  1
OLE2FRAME
  2
AcDbOle2Frame
  3
AutoCAD 2000
 90
        0
280
         0
281
         1
  0
CLASS
  1
HATCH
  2
AcDbHatch
  3
AutoCAD 2000
 90
        0
280
         0
281
         1
  0
CLASS
  1
DICTIONARYVAR
  2
AcDbDictionaryVar
  3
AutoCAD 2000
 90
        0
280
         0
281
         0
  0
CLASS
  1
RASTERVARIABLES
  2
AcDbRasterVariables
  3
ISM
 90
        0
280
         0
281
         0
  0
CLASS
  1
IMAGEDEF
  2
AcDbRasterImageDef
  3
ISM
 90
        0
280
         0
281
         0
  0
CLASS
  1
IMAGEDEF_REACTOR
  2
AcDbRasterImageDefReactor
  3
ISM
 90
        1
280
         0
281
         0
  0
CLASS
  1
IDBUFFER
  2
AcDbIdBuffer
  3
AutoCAD 2000
 90
        0
280
         0
281
         0
  0
CLASS
  1
SPATIAL_FILTER
  2
AcDbSpatialFilter
  3
AutoCAD 2000
 90
        0
280
         0
281
         0
  0
CLASS
  1
XRECORD
  2
AcDbXrecord
  3
AutoCAD 2000
 90
        0
280
         0
281
         0
  0
CLASS
  1
SORTENTSTABLE
  2
AcDbSortentsTable
  3
AutoCAD 2000
 90
        0
280
         0
281
         0
  0
CLASS
  1
LAYER_INDEX
  2
AcDbLayerIndex
  3
AutoCAD 2000
 90
        0
280
         0
281
         0
  0
CLASS
  1
SPATIAL_INDEX
  2
AcDbSpatialIndex
  3
AutoCAD 2000
 90
        0
280
         0
281
         0
  0
CLASS
  1
OBJECT_PTR
  2
CAseDLPNTableRecord
  3
"ASE-LPNTableRecord"
 90
        1
280
         0
281
         0
  0
CLASS
  1
LAYOUT
  2
AcDbLayout
  3
AutoCAD 2000
 90
        0
280
         0
281
         0
  0
CLASS
  1
PLOTSETTINGS
  2
AcDbPlotSettings
  3
AutoCAD 2000
 90
        0
280
         0
281
         0
  0
CLASS
  1
ACDBDICTIONARYWDFLT
  2
AcDbDictionaryWithDefault
  3
AutoCAD 2000
 90
        0
280
         0
281
         0
  0
CLASS
  1
ACDBPLACEHOLDER
  2
AcDbPlaceHolder
  3
AutoCAD 2000
 90
        0
280
         0
281
         0
  0
CLASS
  1
VBA_PROJECT
  2
AcDbVbaProject
  3
acadvba
 90
        0
280
         0
281
         0
  0
CLASS
  1
WIPEOUT
  2
AcDbWipeout
  3
WipeOut|AutoCAD Express Tool|expresstools@autodesk.com
 90
      127
280
         0
281
         1
  0
CLASS
  1
WIPEOUTVARIABLES
  2
AcDbWipeoutVariables
  3
WipeOut|AutoCAD Express Tool|expresstools@autodesk.com
 90
        0
280
         0
281
         0
  0
CLASS
  1
RTEXT
  2
RText
  3
RText|AutoCAD Express Tool|expresstools@autodesk.com
 90
        0
280
         0
281
         1
  0
CLASS
  1
ARCALIGNEDTEXT
  2
AcDbArcAlignedText
  3
ATEXT|AutoCAD Express Tool|expresstools@autodesk.com
 90
        0
280
         0
281
         1
  0
ENDSEC
  0
SECTION
  2
TABLES
  0
TABLE
  2
VPORT
  5
7
100
AcDbSymbolTable
 70
         1
  0
VPORT
  5
15
100
AcDbSymbolTableRecord
100
AcDbViewportTableRecord
  2
*ACTIVE
 70
         0
 10
0.0
 20
0.0
 11
1.0
 21
1.0
 12
105.0
 22
148.5
 13
0.0
 23
0.0
 14
1.0
 24
1.0
 15
0.0
 25
0.0
 16
0.0
 26
0.0
 36
1.0
 17
0.0
 27
0.0
 37
0.0
 40
231.2943892345
 41
1.0
 42
50.0
 43
0.0
 44
0.0
 50
0.0
 51
0.0
 71
         0
 72
       100
 73
         1
 74
         1
 75
         0
 76
         0
 77
         0
 78
         0
281
         0
 65
         0
110
0.0
120
0.0
130
0.0
111
1.0
121
0.0
131
0.0
112
0.0
122
1.0
132
0.0
345
0
346
0
 79
         0
146
0.0
  0
ENDTAB
  0
TABLE
  2
LTYPE
  5
4
100
AcDbSymbolTable
 70
        12
  0
LTYPE
  5
11
100
AcDbSymbolTableRecord
100
AcDbLinetypeTableRecord
  2
ByBlock
 70
        64
  3

 72
        65
 73
         0
 40
0.0
  0
LTYPE
  5
12
100
AcDbSymbolTableRecord
100
AcDbLinetypeTableRecord
  2
ByLayer
 70
        64
  3

 72
        65
 73
         0
 40
0.0
  0
LTYPE
  5
13
100
AcDbSymbolTableRecord
100
AcDbLinetypeTableRecord
  2
CONTINUOUS
 70
        64
  3
Solid Line
 72
        65
 73
         0
 40
0.0
  0
LTYPE
  5
24
100
AcDbSymbolTableRecord
100
AcDbLinetypeTableRecord
  2
DOT
 70
        64
  3
. . . . . . . . . . . . . . . . . . . . . . 
 72
        65
 73
         2
 40
0.25
 49
0.0
 74
         0
 49
-0.25
 74
         0
  0
LTYPE
  5
25
100
AcDbSymbolTableRecord
100
AcDbLinetypeTableRecord
  2
HIDDEN
 70
         0
  3
_ _ _ _ _ _ _ _ _ _ _ _ _ _ _ _ _ _ _ _ _ _ _
 72
        65
 73
         2
 40
0.375
 49
0.25
 74
         0
 49
-0.125
 74
         0
  0
LTYPE
  5
26
100
AcDbSymbolTableRecord
100
AcDbLinetypeTableRecord
  2
DASHDOT
 70
         0
  3
__ . __ . __ . __ . __ . __ . __ . __ . __ . __
 72
        65
 73
         4
 40
1.0
 49
0.5
 74
         0
 49
-0.25
 74
         0
 49
0.0
 74
         0
 49
-0.25
 74
         0
  0
LTYPE
  5
27
100
AcDbSymbolTableRecord
100
AcDbLinetypeTableRecord
  2
DIVIDE
 70
         0
  3
__ . . __ . . __ . . __ . . __ . . __ . . __
 72
        65
 73
         6
 40
1.25
 49
0.5
 74
         0
 49
-0.25
 74
         0
 49
0.0
 74
         0
 49
-0.25
 74
         0
 49
0.0
 74
         0
 49
-0.25
 74
         0
  0
LTYPE
  5
28
100
AcDbSymbolTableRecord
100
AcDbLinetypeTableRecord
  2
DASHED
 70
         0
  3
__ __ __ __ __ __ __ __ __ __ __ __ __ __ __
 72
        65
 73
         2
 40
0.75
 49
0.5
 74
         0
 49
-0.25
 74
         0
  0
LTYPE
  5
29
100
AcDbSymbolTableRecord
100
AcDbLinetypeTableRecord
  2
BORDER
 70
         0
  3
__ __ . __ __ . __ __ . __ __ . __ __ .
 72
        65
 73
         6
 40
1.75
 49
0.5
 74
         0
 49
-0.25
 74
         0
 49
0.5
 74
         0
 49
-0.25
 74
         0
 49
0.0
 74
         0
 49
-0.25
 74
         0
  0
LTYPE
  5
2A
100
AcDbSymbolTableRecord
100
AcDbLinetypeTableRecord
  2
CENTER
 70
         0
  3
____ _ ____ _ ____ _ ____ _ ____ _ ____
 72
        65
 73
         4
 40
2.0
 49
1.25
 74
         0
 49
-0.25
 74
         0
 49
0.25
 74
         0
 49
-0.25
 74
         0
  0
LTYPE
  5
2B
100
AcDbSymbolTableRecord
100
AcDbLinetypeTableRecord
  2
DOT2
 70
         0
  3
........................................
 72
        65
 73
         2
 40
0.125
 49
0.0
 74
         0
 49
-0.125
 74
         0
  0
LTYPE
  5
2C
100
AcDbSymbolTableRecord
100
AcDbLinetypeTableRecord
  2
PHANTOM
 70
         0
  3
______  __  __  ______  __  __  ______
 72
        65
 73
         6
 40
2.5
 49
1.25
 74
         0
 49
-0.25
 74
         0
 49
0.25
 74
         0
 49
-0.25
 74
         0
 49
0.25
 74
         0
 49
-0.25
 74
         0
  0
ENDTAB
  0
TABLE
  2
LAYER
  5
2
100
AcDbSymbolTable
 70
        75
  0
LAYER
  5
14
100
AcDbSymbolTableRecord
100
AcDbLayerTableRecord
  2
0
 70
         0
 62
         7
  6
CONTINUOUS
290
         1
370
        -3
390
1D
  0
LAYER
  5
33
100
AcDbSymbolTableRecord
100
AcDbLayerTableRecord
  2
BESCHRIFTUNG
 70
        64
 62
         7
  6
CONTINUOUS
290
         1
370
        25
390
1D
  0
LAYER
  5
34
100
AcDbSymbolTableRecord
100
AcDbLayerTableRecord
  2
SCHRAFFUR
 70
        64
 62
         7
  6
CONTINUOUS
290
         1
370
        25
390
1D
  0
LAYER
  5
35
100
AcDbSymbolTableRecord
100
AcDbLayerTableRecord
  2
MASSTEXTE
 70
        64
 62
       212
  6
CONTINUOUS
290
         1
370
        25
390
1D
  0
LAYER
  5
36
100
AcDbSymbolTableRecord
100
AcDbLayerTableRecord
  2
MASSLINIEN
 70
        64
 62
       172
  6
CONTINUOUS
290
         1
370
        25
390
1D
  0
LAYER
  5
37
100
AcDbSymbolTableRecord
100
AcDbLayerTableRecord
  2
MASSGRENZEN
 70
        64
 62
       172
  6
CONTINUOUS
290
         1
370
        25
390
1D
  0
LAYER
  5
38
100
AcDbSymbolTableRecord
100
AcDbLayerTableRecord
  2
TOLERANZEN
 70
        64
 62
       212
  6
CONTINUOUS
290
         1
370
         0
390
1D
  0
LAYER
  5
39
100
AcDbSymbolTableRecord
100
AcDbLayerTableRecord
  2
BEMASSUNG
 70
        64
 62
         7
  6
CONTINUOUS
290
         1
370
        25
390
1D
  0
LAYER
  5
3A
100
AcDbSymbolTableRecord
100
AcDbLayerTableRecord
  2
HILFSLINIEN
 70
        64
 62
         3
  6
CONTINUOUS
290
         1
370
         0
390
1D
  0
LAYER
  5
3B
100
AcDbSymbolTableRecord
100
AcDbLayerTableRecord
  2
MITTELLINIEN
 70
        64
 62
         5
  6
DASHDOT
290
         1
370
        25
390
1D
  0
LAYER
  5
3C
100
AcDbSymbolTableRecord
100
AcDbLayerTableRecord
  2
BESCHRIFTUNG00
 70
        64
 62
         7
  6
CONTINUOUS
290
         1
370
        25
390
1D
  0
LAYER
  5
3D
100
AcDbSymbolTableRecord
100
AcDbLayerTableRecord
  2
BESCHRIFTUNG0
 70
        64
 62
         7
  6
CONTINUOUS
290
         1
370
        25
390
1D
  0
LAYER
  5
3E
100
AcDbSymbolTableRecord
100
AcDbLayerTableRecord
  2
GEWINDELINIEN
 70
        64
 62
       212
  6
CONTINUOUS
290
         1
370
        25
390
1D
  0
LAYER
  5
3F
100
AcDbSymbolTableRecord
100
AcDbLayerTableRecord
  2
UNSICHTBARE
 70
        64
 62
        92
  6
DASHED
290
         1
370
        25
390
1D
  0
LAYER
  5
40
100
AcDbSymbolTableRecord
100
AcDbLayerTableRecord
  2
VERDECKTE
 70
        64
 62
        92
  6
DASHED
290
         1
370
        25
390
1D
  0
LAYER
  5
41
100
AcDbSymbolTableRecord
100
AcDbLayerTableRecord
  2
LICHTKANTEN
 70
        64
 62
         8
  6
CONTINUOUS
290
         1
370
        25
390
1D
  0
LAYER
  5
42
100
AcDbSymbolTableRecord
100
AcDbLayerTableRecord
  2
SCHNITTVERLAUF
 70
        64
 62
        34
  6
DASHDOT
290
         1
370
        70
390
1D
  0
LAYER
  5
43
100
AcDbSymbolTableRecord
100
AcDbLayerTableRecord
  2
KENNZEICHNUNG
 70
        64
 62
         7
  6
CONTINUOUS
290
         1
370
         0
390
1D
  0
LAYER
  5
44
100
AcDbSymbolTableRecord
100
AcDbLayerTableRecord
  2
PFEILE
 70
        64
 62
         7
  6
CONTINUOUS
290
         1
370
        70
390
1D
  0
LAYER
  5
45
100
AcDbSymbolTableRecord
100
AcDbLayerTableRecord
  2
SCHNITTDARSTELLUNG
 70
        64
 62
         7
  6
CONTINUOUS
290
         1
370
         0
390
1D
  0
LAYER
  5
46
100
AcDbSymbolTableRecord
100
AcDbLayerTableRecord
  2
2501_3P
 70
        64
 62
        30
  6
CONTINUOUS
290
         1
370
         0
390
1D
  0
LAYER
  5
47
100
AcDbSymbolTableRecord
100
AcDbLayerTableRecord
  2
2501_1L
 70
        64
 62
        30
  6
CONTINUOUS
290
         1
370
         0
390
1D
  0
LAYER
  5
48
100
AcDbSymbolTableRecord
100
AcDbLayerTableRecord
  2
2501_2P
 70
        64
 62
        30
  6
CONTINUOUS
290
         1
370
         0
390
1D
  0
LAYER
  5
49
100
AcDbSymbolTableRecord
100
AcDbLayerTableRecord
  2
2501_2T
 70
        64
 62
        14
  6
CONTINUOUS
290
         1
370
         0
390
1D
  0
LAYER
  5
4A
100
AcDbSymbolTableRecord
100
AcDbLayerTableRecord
  2
2501_1R
 70
        64
 62
        14
  6
CONTINUOUS
290
         1
370
         0
390
1D
  0
LAYER
  5
4B
100
AcDbSymbolTableRecord
100
AcDbLayerTableRecord
  2
2501_7P
 70
        64
 62
        30
  6
CONTINUOUS
290
         1
370
         0
390
1D
  0
LAYER
  5
4C
100
AcDbSymbolTableRecord
100
AcDbLayerTableRecord
  2
2501_7T
 70
        64
 62
        14
  6
CONTINUOUS
290
         1
370
         0
390
1D
  0
LAYER
  5
4D
100
AcDbSymbolTableRecord
100
AcDbLayerTableRecord
  2
2501_8P
 70
        64
 62
        30
  6
CONTINUOUS
290
         1
370
         0
390
1D
  0
LAYER
  5
4E
100
AcDbSymbolTableRecord
100
AcDbLayerTableRecord
  2
2501___ UNTERZUG FÜR EINZELHEBEL
 70
        64
 62
         6
  6
DASHDOT
290
         1
370
         0
390
1D
  0
LAYER
  5
4F
100
AcDbSymbolTableRecord
100
AcDbLayerTableRecord
  2
2500_1T
 70
        64
 62
        14
  6
CONTINUOUS
290
         1
370
         0
390
1D
  0
LAYER
  5
50
100
AcDbSymbolTableRecord
100
AcDbLayerTableRecord
  2
2500_1P
 70
        64
 62
        30
  6
CONTINUOUS
290
         1
370
         0
390
1D
  0
LAYER
  5
51
100
AcDbSymbolTableRecord
100
AcDbLayerTableRecord
  2
2500_2T
 70
        64
 62
        14
  6
CONTINUOUS
290
         1
370
         0
390
1D
  0
LAYER
  5
52
100
AcDbSymbolTableRecord
100
AcDbLayerTableRecord
  2
2500_2P
 70
        64
 62
        30
  6
CONTINUOUS
290
         1
370
         0
390
1D
  0
LAYER
  5
53
100
AcDbSymbolTableRecord
100
AcDbLayerTableRecord
  2
2500___ HILFSPFADE FÜR UNTERZUG
 70
        64
 62
         6
  6
DASHDOT
290
         1
370
         0
390
1D
  0
LAYER
  5
54
100
AcDbSymbolTableRecord
100
AcDbLayerTableRecord
  2
2502_5P
 70
        64
 62
        30
  6
CONTINUOUS
290
         1
370
         0
390
1D
  0
LAYER
  5
55
100
AcDbSymbolTableRecord
100
AcDbLayerTableRecord
  2
2502_5T
 70
        64
 62
        14
  6
CONTINUOUS
290
         1
370
         0
390
1D
  0
LAYER
  5
56
100
AcDbSymbolTableRecord
100
AcDbLayerTableRecord
  2
2502_7P
 70
        64
 62
        30
  6
CONTINUOUS
290
         1
370
         0
390
1D
  0
LAYER
  5
57
100
AcDbSymbolTableRecord
100
AcDbLayerTableRecord
  2
2502_7T
 70
        64
 62
        14
  6
CONTINUOUS
290
         1
370
         0
390
1D
  0
LAYER
  5
58
100
AcDbSymbolTableRecord
100
AcDbLayerTableRecord
  2
2502_9P
 70
        64
 62
        30
  6
CONTINUOUS
290
         1
370
         0
390
1D
  0
LAYER
  5
59
100
AcDbSymbolTableRecord
100
AcDbLayerTableRecord
  2
2502_1P
 70
        64
 62
        30
  6
CONTINUOUS
290
         1
370
         0
390
1D
  0
LAYER
  5
5A
100
AcDbSymbolTableRecord
100
AcDbLayerTableRecord
  2
2502_8P
 70
        64
 62
        30
  6
CONTINUOUS
290
         1
370
         0
390
1D
  0
LAYER
  5
5B
100
AcDbSymbolTableRecord
100
AcDbLayerTableRecord
  2
2502_4L
 70
        64
 62
        30
  6
CONTINUOUS
290
         1
370
         0
390
1D
  0
LAYER
  5
5C
100
AcDbSymbolTableRecord
100
AcDbLayerTableRecord
  2
2502_4R
 70
        64
 62
        14
  6
CONTINUOUS
290
         1
370
         0
390
1D
  0
LAYER
  5
5D
100
AcDbSymbolTableRecord
100
AcDbLayerTableRecord
  2
2502_6T
 70
        64
 62
        14
  6
CONTINUOUS
290
         1
370
         0
390
1D
  0
LAYER
  5
5E
100
AcDbSymbolTableRecord
100
AcDbLayerTableRecord
  2
2502_6P
 70
        64
 62
        30
  6
CONTINUOUS
290
         1
370
         0
390
1D
  0
LAYER
  5
5F
100
AcDbSymbolTableRecord
100
AcDbLayerTableRecord
  2
2502_2T
 70
        64
 62
        14
  6
CONTINUOUS
290
         1
370
         0
390
1D
  0
LAYER
  5
60
100
AcDbSymbolTableRecord
100
AcDbLayerTableRecord
  2
2502_2P
 70
        64
 62
        30
  6
CONTINUOUS
290
         1
370
         0
390
1D
  0
LAYER
  5
61
100
AcDbSymbolTableRecord
100
AcDbLayerTableRecord
  2
2502___ UNTERZUG FÜR ZWEI ATTRIEBE
 70
        64
 62
         6
  6
DASHDOT
290
         1
370
         0
390
1D
  0
LAYER
  5
62
100
AcDbSymbolTableRecord
100
AcDbLayerTableRecord
  2
PFADE
 70
        64
 62
        30
  6
CONTINUOUS
290
         1
370
         0
390
1D
  0
LAYER
  5
63
100
AcDbSymbolTableRecord
100
AcDbLayerTableRecord
  2
 2001_2 BODEN
 70
        64
 62
        14
  6
CONTINUOUS
290
         1
370
        18
390
1D
  0
LAYER
  5
64
100
AcDbSymbolTableRecord
100
AcDbLayerTableRecord
  2
 2001_1 RAHMEN
 70
        64
 62
         7
  6
CONTINUOUS
290
         1
370
        18
390
1D
  0
LAYER
  5
65
100
AcDbSymbolTableRecord
100
AcDbLayerTableRecord
  2
2001__ GEBÄUDE
 70
        64
 62
         7
  6
CONTINUOUS
290
         1
370
         0
390
1D
  0
LAYER
  5
66
100
AcDbSymbolTableRecord
100
AcDbLayerTableRecord
  2
2101__ HEBELBANK
 70
        64
 62
         9
  6
CONTINUOUS
290
         1
370
        18
390
1D
  0
LAYER
  5
67
100
AcDbSymbolTableRecord
100
AcDbLayerTableRecord
  2
2501_1 UNTERZUGRAHMEN
 70
        64
 62
         7
  6
CONTINUOUS
290
         1
370
         0
390
1D
  0
LAYER
  5
68
100
AcDbSymbolTableRecord
100
AcDbLayerTableRecord
  2
2501_2-4 ROLLEN UMGELEGT
 70
        64
 62
       134
  6
DASHED
290
         1
370
        18
390
1D
  0
LAYER
  5
69
100
AcDbSymbolTableRecord
100
AcDbLayerTableRecord
  2
2501_2-4 ROLLEN
 70
        64
 62
       134
  6
CONTINUOUS
290
         1
370
        18
390
1D
  0
LAYER
  5
6A
100
AcDbSymbolTableRecord
100
AcDbLayerTableRecord
  2
2501_5 SCHIEBER VERSCHOBEN
 70
        64
 62
       142
  6
DASHED
290
         1
370
        18
390
1D
  0
LAYER
  5
6B
100
AcDbSymbolTableRecord
100
AcDbLayerTableRecord
  2
2501_5 SCHIEBER
 70
        64
 62
       142
  6
CONTINUOUS
290
         1
370
        18
390
1D
  0
LAYER
  5
6C
100
AcDbSymbolTableRecord
100
AcDbLayerTableRecord
  2
2501_10 SCHALTER LINKS_OBEN
 70
        64
 62
       230
  6
DASHED
290
         1
370
        18
390
1D
  0
LAYER
  5
6D
100
AcDbSymbolTableRecord
100
AcDbLayerTableRecord
  2
2501_10 SCHALTER
 70
        64
 62
       230
  6
CONTINUOUS
290
         1
370
        18
390
1D
  0
LAYER
  5
6E
100
AcDbSymbolTableRecord
100
AcDbLayerTableRecord
  2
2501_6 HEBEL 0_0_22_5 UMGELEGT LI
 70
        64
 62
        30
  6
DASHED
290
         1
370
        18
390
1D
  0
LAYER
  5
6F
100
AcDbSymbolTableRecord
100
AcDbLayerTableRecord
  2
2501_6 HEBEL 0_0_22_5 UMGELEGT RE
 70
        64
 62
        30
  6
DASHDOT
290
         1
370
        18
390
1D
  0
LAYER
  5
70
100
AcDbSymbolTableRecord
100
AcDbLayerTableRecord
  2
2501_6 HEBEL 0_0_22_5
 70
        64
 62
        11
  6
CONTINUOUS
290
         1
370
        18
390
1D
  0
LAYER
  5
71
100
AcDbSymbolTableRecord
100
AcDbLayerTableRecord
  2
2501_7 HEBEL 22_5_0_22_5 UMGELEGT LI
 70
        64
 62
        34
  6
DASHED
290
         1
370
        18
390
1D
  0
LAYER
  5
72
100
AcDbSymbolTableRecord
100
AcDbLayerTableRecord
  2
2501_7 HEBEL 22_5_0_22_5 UMGELEGT RE
 70
        64
 62
        14
  6
DASHDOT
290
         1
370
        18
390
1D
  0
LAYER
  5
73
100
AcDbSymbolTableRecord
100
AcDbLayerTableRecord
  2
2501_7 HEBEL 22_5_0_22_5
 70
        64
 62
        14
  6
CONTINUOUS
290
         1
370
        18
390
1D
  0
LAYER
  5
74
100
AcDbSymbolTableRecord
100
AcDbLayerTableRecord
  2
2501_8 HEBEL 22_5_0_0 UMGELEGT LI
 70
        64
 62
        30
  6
DASHED
290
         1
370
        18
390
1D
  0
LAYER
  5
75
100
AcDbSymbolTableRecord
100
AcDbLayerTableRecord
  2
2501_8 HEBEL 22_5_0_0 UMGELEGT RE
 70
        64
 62
        30
  6
DASHDOT
290
         1
370
        18
390
1D
  0
LAYER
  5
76
100
AcDbSymbolTableRecord
100
AcDbLayerTableRecord
  2
2501_8 HEBEL 22_5_0_0
 70
        64
 62
       230
  6
CONTINUOUS
290
         1
370
        18
390
1D
  0
LAYER
  5
77
100
AcDbSymbolTableRecord
100
AcDbLayerTableRecord
  2
2501_9 HEBEL 22_5_0_-22_5 UMGELEGT LI0
 70
        64
 62
        34
  6
DASHED
290
         1
370
        18
390
1D
  0
LAYER
  5
78
100
AcDbSymbolTableRecord
100
AcDbLayerTableRecord
  2
2501_9 HEBEL 22_5_0_-22_5 UMGELEGT RE0
 70
        64
 62
        14
  6
DASHDOT
290
         1
370
        18
390
1D
  0
LAYER
  5
79
100
AcDbSymbolTableRecord
100
AcDbLayerTableRecord
  2
2501_9 HEBEL 22_5_0_-22_5
 70
        64
 62
       190
  6
CONTINUOUS
290
         1
370
        18
390
1D
  0
LAYER
  5
7A
100
AcDbSymbolTableRecord
100
AcDbLayerTableRecord
  2
2501__ UNTERZUG
 70
        64
 62
         9
  6
CONTINUOUS
290
         1
370
        18
390
1D
  0
LAYER
  5
7B
100
AcDbSymbolTableRecord
100
AcDbLayerTableRecord
  2
KONSTRUKTION
 70
        64
 62
         7
  6
CONTINUOUS
290
         1
370
         0
390
1D
  0
LAYER
  5
7C
100
AcDbSymbolTableRecord
100
AcDbLayerTableRecord
  2
STANDARD
 70
        64
 62
         7
  6
CONTINUOUS
290
         1
370
         0
390
1D
  0
ENDTAB
  0
TABLE
  2
STYLE
  5
3
100
AcDbSymbolTable
 70
         7
  0
STYLE
  5
17
100
AcDbSymbolTableRecord
100
AcDbTextStyleTableRecord
  2
Standard
 70
         0
 40
0.0
 41
1.0
 50
0.0
 71
         0
 42
0.0
  3
txt
  4

  0
STYLE
  5
2D
100
AcDbSymbolTableRecord
100
AcDbTextStyleTableRecord
  2
CADdy
 70
         0
 40
0.0
 41
1.0
 50
0.0
 71
         0
 42
3.5
  3
txt.shx
  4

  0
STYLE
  5
2E
100
AcDbSymbolTableRecord
100
AcDbTextStyleTableRecord
  2
Arial
 70
         0
 40
0.0
 41
1.0
 50
0.0
 71
         0
 42
3.5
  3
arial.ttf
  4

1001
ACAD
1000
Arial
1071
       34
  0
STYLE
  5
2F
100
AcDbSymbolTableRecord
100
AcDbTextStyleTableRecord
  2
Isonorm
 70
         0
 40
0.0
 41
1.0
 50
0.0
 71
         0
 42
3.5
  3
txt.shx
  4

  0
STYLE
  5
30
100
AcDbSymbolTableRecord
100
AcDbTextStyleTableRecord
  2
Tahoma
 70
         0
 40
0.0
 41
1.0
 50
0.0
 71
         0
 42
3.5
  3
tahoma.ttf
  4

1001
ACAD
1000
Tahoma
1071
       34
  0
STYLE
  5
31
100
AcDbSymbolTableRecord
100
AcDbTextStyleTableRecord
  2
Microsoft Sans Serif
 70
         0
 40
0.0
 41
1.0
 50
0.0
 71
         0
 42
3.5
  3
micross.ttf
  4

1001
ACAD
1000
Microsoft Sans Serif
1071
       34
  0
STYLE
  5
32
100
AcDbSymbolTableRecord
100
AcDbTextStyleTableRecord
  2
Arial Rounded MT Bold
 70
         0
 40
0.0
 41
1.0
 50
0.0
 71
         0
 42
3.5
  3
txt.shx
  4

  0
ENDTAB
  0
TABLE
  2
VIEW
  5
5
100
AcDbSymbolTable
 70
         0
  0
ENDTAB
  0
TABLE
  2
UCS
  5
6
100
AcDbSymbolTable
 70
         0
  0
ENDTAB
  0
TABLE
  2
APPID
  5
8
100
AcDbSymbolTable
 70
         1
  0
APPID
  5
16
100
AcDbSymbolTableRecord
100
AcDbRegAppTableRecord
  2
ACAD
 70
        64
  0
ENDTAB
  0
TABLE
  2
DIMSTYLE
  5
9
100
AcDbSymbolTable
 70
         1
100
AcDbDimStyleTable
 71
         0
  0
DIMSTYLE
105
18
100
AcDbSymbolTableRecord
100
AcDbDimStyleTableRecord
  2
Standard
 70
         0
  3

  4

 40
1.0
 41
0.18
 42
0.0625
 43
0.38
 44
0.18
 45
0.0
 46
0.0
 47
0.0
 48
0.0
 71
         0
 72
         0
 73
         1
 74
         1
 75
         0
 76
         0
 77
         0
 78
         0
 79
         0
140
0.18
141
0.09
142
0.0
143
25.4
144
1.0
145
0.0
146
1.0
147
0.09
148
0.0
170
         0
171
         2
172
         0
173
         0
174
         0
175
         0
176
         0
177
         0
178
         0
179
         0
271
         4
272
         4
273
         2
274
         2
275
         0
276
         0
277
         2
278
        46
279
         0
280
         0
281
         0
282
         0
283
         1
284
         0
285
         0
286
         0
288
         0
289
         3
340
17
341
0
342
0
343
0
344
0
371
        -2
372
        -2
  0
ENDTAB
  0
TABLE
  2
BLOCK_RECORD
  5
1
100
AcDbSymbolTable
 70
         6
  0
BLOCK_RECORD
  5
A
100
AcDbSymbolTableRecord
100
AcDbBlockTableRecord
  2
*MODEL_SPACE
340
20
  0
BLOCK_RECORD
  5
B
100
AcDbSymbolTableRecord
100
AcDbBlockTableRecord
  2
*PAPER_SPACE
340
21
  0
BLOCK_RECORD
  5
7D
100
AcDbSymbolTableRecord
100
AcDbBlockTableRecord
  2
D200556032
340
0
102
{BLKREFS
331
C2
102
}
  0
BLOCK_RECORD
  5
88
100
AcDbSymbolTableRecord
100
AcDbBlockTableRecord
  2
D200540416
340
0
102
{BLKREFS
331
C3
102
}
  0
BLOCK_RECORD
  5
93
100
AcDbSymbolTableRecord
100
AcDbBlockTableRecord
  2
D200540672
340
0
102
{BLKREFS
331
C4
102
}
  0
BLOCK_RECORD
  5
9C
100
AcDbSymbolTableRecord
100
AcDbBlockTableRecord
  2
D200541184
340
0
102
{BLKREFS
331
109
102
}
  0
BLOCK_RECORD
  5
A5
100
AcDbSymbolTableRecord
100
AcDbBlockTableRecord
  2
D200541440
340
0
102
{BLKREFS
331
10B
102
}
  0
BLOCK_RECORD
  5
AE
100
AcDbSymbolTableRecord
100
AcDbBlockTableRecord
  2
D200541952
340
0
102
{BLKREFS
331
10C
102
}
  0
ENDTAB
  0
ENDSEC
  0
SECTION
  2
BLOCKS
  0
BLOCK
  5
D
100
AcDbEntity
  8
0
390
0
100
AcDbBlockBegin
  2
*MODEL_SPACE
 70
         0
 10
0.0
 20
0.0
 30
0.0
  3
*MODEL_SPACE
  1

  0
ENDBLK
  5
E
100
AcDbEntity
  8
0
390
0
100
AcDbBlockEnd
  0
BLOCK
  5
F
100
AcDbEntity
 67
         1
  8
0
390
0
100
AcDbBlockBegin
  2
*PAPER_SPACE
 70
         0
 10
0.0
 20
0.0
 30
0.0
  3
*PAPER_SPACE
  1

  0
ENDBLK
  5
10
100
AcDbEntity
 67
         1
  8
0
390
0
100
AcDbBlockEnd
  0
BLOCK
  5
7E
100
AcDbEntity
  8
BEMASSUNG
390
0
100
AcDbBlockBegin
  2
D200556032
 70
         0
 10
0.0
 20
0.0
 30
0.0
  3
D200556032
  1

  0
LINE
  5
7F
100
AcDbEntity
  8
MASSLINIEN
390
0
 62
       172
100
AcDbLine
 10
43.48180904
 20
177.3042176385
 30
0.0
 11
45.7308420974
 21
174.7543450325
 31
0.0
  0
LINE
  5
80
100
AcDbEntity
  8
MASSLINIEN
390
0
 62
       172
100
AcDbLine
 10
38.9629234283
 20
173.3184800376
 30
0.0
 11
44.9817341023
 21
178.6271782605
 31
0.0
  0
LINE
  5
81
100
AcDbEntity
  8
MASSLINIEN
390
0
 62
       172
100
AcDbLine
 10
41.2119564856
 20
170.7686074316
 30
0.0
 11
47.2307671597
 21
176.0773056545
 31
0.0
  0
LINE
  5
82
100
AcDbEntity
  8
MASSLINIEN
390
0
 62
       172
100
AcDbLine
 10
43.48180904
 20
177.3042176385
 30
0.0
 11
36.5114218592
 21
185.2069913514
 31
0.0
  0
LINE
  5
83
100
AcDbEntity
  8
MASSLINIEN
390
0
 62
       172
100
AcDbLine
 10
45.7308420974
 20
174.7543450325
 30
0.0
 11
49.7253028567
 21
170.2255694181
 31
0.0
  0
SOLID
  5
84
100
AcDbEntity
  8
MASSGRENZEN
390
0
100
AcDbTrace
 10
43.48180904
 20
177.3042176385
 30
0.0
 11
41.2206760138
 21
179.2758356131
 31
0.0
 12
41.8080145348
 22
179.7938786504
 32
0.0
 13
41.8080145348
 23
179.7938786504
 33
0.0
  0
SOLID
  5
85
100
AcDbEntity
  8
MASSGRENZEN
390
0
100
AcDbTrace
 10
45.7308420974
 20
174.7543450325
 30
0.0
 11
47.9919751236
 21
172.7827270579
 31
0.0
 12
47.4046366025
 22
172.2646840206
 32
0.0
 13
47.4046366025
 23
172.2646840206
 33
0.0
  0
MTEXT
  5
86
100
AcDbEntity
  8
MASSTEXTE
390
0
 62
       212
100
AcDbMText
 10
39.8710596605
 20
185.110839632
 30
0.0
 40
2.0
 41
0.0
 71
         5
 72
         1
  1
\W1.135130;\A1;3.4
  7
Arial
 11
0.661480311
 21
-0.7499625312
 31
0.0
 73
         0
 44
0.0
  0
ENDBLK
  5
87
100
AcDbEntity
  8
0
390
0
100
AcDbBlockEnd
  0
BLOCK
  5
89
100
AcDbEntity
  8
BEMASSUNG
390
0
100
AcDbBlockBegin
  2
D200540416
 70
         0
 10
0.0
 20
0.0
 30
0.0
  3
D200540416
  1

  0
LINE
  5
8A
100
AcDbEntity
  8
MASSLINIEN
390
0
 62
       172
100
AcDbLine
 10
45.7308420974
 20
174.7543450325
 30
0.0
 11
47.9798751547
 21
172.2044724265
 31
0.0
  0
LINE
  5
8B
100
AcDbEntity
  8
MASSLINIEN
390
0
 62
       172
100
AcDbLine
 10
41.2119564856
 20
170.7686074316
 30
0.0
 11
47.2307671597
 21
176.0773056545
 31
0.0
  0
LINE
  5
8C
100
AcDbEntity
  8
MASSLINIEN
390
0
 62
       172
100
AcDbLine
 10
43.460989543
 20
168.2187348256
 30
0.0
 11
49.4798002171
 21
173.5274330485
 31
0.0
  0
LINE
  5
8D
100
AcDbEntity
  8
MASSLINIEN
390
0
 62
       172
100
AcDbLine
 10
47.9798751547
 20
172.2044724265
 30
0.0
 11
54.9502623355
 21
164.3016987135
 31
0.0
  0
LINE
  5
8E
100
AcDbEntity
  8
MASSLINIEN
390
0
 62
       172
100
AcDbLine
 10
45.7308420974
 20
174.7543450325
 30
0.0
 11
41.736381338
 21
179.2831206468
 31
0.0
  0
SOLID
  5
8F
100
AcDbEntity
  8
MASSGRENZEN
390
0
100
AcDbTrace
 10
45.7308420974
 20
174.7543450325
 30
0.0
 11
43.4697090711
 21
176.7259630071
 31
0.0
 12
44.0570475922
 22
177.2440060444
 32
0.0
 13
44.0570475922
 23
177.2440060444
 33
0.0
  0
SOLID
  5
90
100
AcDbEntity
  8
MASSGRENZEN
390
0
100
AcDbTrace
 10
47.9798751547
 20
172.2044724265
 30
0.0
 11
50.2410081809
 21
170.2328544519
 31
0.0
 12
49.6536696599
 22
169.7148114146
 32
0.0
 13
49.6536696599
 23
169.7148114146
 33
0.0
  0
MTEXT
  5
91
100
AcDbEntity
  8
MASSTEXTE
390
0
 62
       212
100
AcDbMText
 10
55.2744404874
 20
167.6470417205
 30
0.0
 40
2.0
 41
0.0
 71
         5
 72
         1
  1
\W1.135130;\A1;3.4
  7
Arial
 11
0.661480311
 21
-0.7499625312
 31
0.0
 73
         0
 44
0.0
  0
ENDBLK
  5
92
100
AcDbEntity
  8
0
390
0
100
AcDbBlockEnd
  0
BLOCK
  5
94
100
AcDbEntity
  8
BEMASSUNG
390
0
100
AcDbBlockBegin
  2
D200540672
 70
         0
 10
0.0
 20
0.0
 30
0.0
  3
D200540672
  1

  0
LINE
  5
95
100
AcDbEntity
  8
MASSLINIEN
390
0
 62
       172
100
AcDbLine
 10
56.4428220246
 20
267.9667033736
 30
0.0
 11
56.4428220246
 21
204.9667033736
 31
0.0
  0
LINE
  5
96
100
AcDbEntity
  8
MASSLINIEN
390
0
 62
       172
100
AcDbLine
 10
34.6672571624
 20
267.9667033736
 30
0.0
 11
58.4428220246
 21
267.9667033736
 31
0.0
  0
LINE
  5
97
100
AcDbEntity
  8
MASSLINIEN
390
0
 62
       172
100
AcDbLine
 10
34.6672571624
 20
204.9667033736
 30
0.0
 11
58.4428220246
 21
204.9667033736
 31
0.0
  0
SOLID
  5
98
100
AcDbEntity
  8
MASSGRENZEN
390
0
100
AcDbTrace
 10
56.4428220246
 20
267.9667033736
 30
0.0
 11
56.8344006013
 21
264.9923687895
 31
0.0
 12
56.0512434479
 22
264.9923687895
 32
0.0
 13
56.0512434479
 23
264.9923687895
 33
0.0
  0
SOLID
  5
99
100
AcDbEntity
  8
MASSGRENZEN
390
0
100
AcDbTrace
 10
56.4428220246
 20
204.9667033736
 30
0.0
 11
56.0512434479
 21
207.9410379577
 31
0.0
 12
56.8344006013
 22
207.9410379577
 32
0.0
 13
56.8344006013
 23
207.9410379577
 33
0.0
  0
MTEXT
  5
9A
100
AcDbEntity
  8
MASSTEXTE
390
0
 62
       212
100
AcDbMText
 10
53.9868220246
 20
236.4667033736
 30
0.0
 40
2.0
 41
0.0
 71
         5
 72
         1
  1
\W1.135146;\A1;63
  7
Arial
 11
0.0
 21
1.0
 31
0.0
 73
         0
 44
0.0
  0
ENDBLK
  5
9B
100
AcDbEntity
  8
0
390
0
100
AcDbBlockEnd
  0
BLOCK
  5
9D
100
AcDbEntity
  8
BEMASSUNG
390
0
100
AcDbBlockBegin
  2
D200541184
 70
         0
 10
0.0
 20
0.0
 30
0.0
  3
D200541184
  1

  0
LINE
  5
9E
100
AcDbEntity
  8
MASSLINIEN
390
0
 62
       172
100
AcDbLine
 10
156.4526272318
 20
258.1531168303
 30
0.0
 11
156.4526272318
 21
221.1531168303
 31
0.0
  0
LINE
  5
9F
100
AcDbEntity
  8
MASSLINIEN
390
0
 62
       172
100
AcDbLine
 10
119.799839476
 20
258.1531168303
 30
0.0
 11
158.4526272318
 21
258.1531168303
 31
0.0
  0
LINE
  5
A0
100
AcDbEntity
  8
MASSLINIEN
390
0
 62
       172
100
AcDbLine
 10
119.799839476
 20
221.1531168303
 30
0.0
 11
158.4526272318
 21
221.1531168303
 31
0.0
  0
SOLID
  5
A1
100
AcDbEntity
  8
MASSGRENZEN
390
0
100
AcDbTrace
 10
156.4526272318
 20
258.1531168303
 30
0.0
 11
156.8442058084
 21
255.1787822462
 31
0.0
 12
156.0610486551
 22
255.1787822462
 32
0.0
 13
156.0610486551
 23
255.1787822462
 33
0.0
  0
SOLID
  5
A2
100
AcDbEntity
  8
MASSGRENZEN
390
0
100
AcDbTrace
 10
156.4526272318
 20
221.1531168303
 30
0.0
 11
156.0610486551
 21
224.1274514145
 31
0.0
 12
156.8442058084
 22
224.1274514145
 32
0.0
 13
156.8442058084
 23
224.1274514145
 33
0.0
  0
MTEXT
  5
A3
100
AcDbEntity
  8
MASSTEXTE
390
0
 62
       212
100
AcDbMText
 10
153.9966272318
 20
239.6531168303
 30
0.0
 40
2.0
 41
0.0
 71
         5
 72
         1
  1
\W1.135145;\A1;37
  7
Arial
 11
0.0
 21
1.0
 31
0.0
 73
         0
 44
0.0
  0
ENDBLK
  5
A4
100
AcDbEntity
  8
0
390
0
100
AcDbBlockEnd
  0
BLOCK
  5
A6
100
AcDbEntity
  8
BEMASSUNG
390
0
100
AcDbBlockBegin
  2
D200541440
 70
         0
 10
0.0
 20
0.0
 30
0.0
  3
D200541440
  1

  0
LINE
  5
A7
100
AcDbEntity
  8
MASSLINIEN
390
0
 62
       172
100
AcDbLine
 10
34.6672571624
 20
104.2628511236
 30
0.0
 11
84.6672571624
 21
104.2628511236
 31
0.0
  0
LINE
  5
A8
100
AcDbEntity
  8
MASSLINIEN
390
0
 62
       172
100
AcDbLine
 10
34.6672571624
 20
266.9667033736
 30
0.0
 11
34.6672571624
 21
102.2628511236
 31
0.0
  0
LINE
  5
A9
100
AcDbEntity
  8
MASSLINIEN
390
0
 62
       172
100
AcDbLine
 10
84.6672571624
 20
266.9667033736
 30
0.0
 11
84.6672571624
 21
102.2628511236
 31
0.0
  0
SOLID
  5
AA
100
AcDbEntity
  8
MASSGRENZEN
390
0
100
AcDbTrace
 10
34.6672571624
 20
104.2628511236
 30
0.0
 11
37.6415917465
 21
104.6544297003
 31
0.0
 12
37.6415917465
 22
103.8712725469
 32
0.0
 13
37.6415917465
 23
103.8712725469
 33
0.0
  0
SOLID
  5
AB
100
AcDbEntity
  8
MASSGRENZEN
390
0
100
AcDbTrace
 10
84.6672571624
 20
104.2628511236
 30
0.0
 11
81.6929225782
 21
103.8712725469
 31
0.0
 12
81.6929225782
 22
104.6544297003
 32
0.0
 13
81.6929225782
 23
104.6544297003
 33
0.0
  0
MTEXT
  5
AC
100
AcDbEntity
  8
MASSTEXTE
390
0
 62
       212
100
AcDbMText
 10
59.6672571624
 20
106.7188511236
 30
0.0
 40
2.0
 41
0.0
 71
         5
 72
         1
  1
\W1.135145;\A1;50
  7
Arial
 73
         0
 44
0.0
  0
ENDBLK
  5
AD
100
AcDbEntity
  8
0
390
0
100
AcDbBlockEnd
  0
BLOCK
  5
AF
100
AcDbEntity
  8
BEMASSUNG
390
0
100
AcDbBlockBegin
  2
D200541952
 70
         0
 10
0.0
 20
0.0
 30
0.0
  3
D200541952
  1

  0
LINE
  5
B0
100
AcDbEntity
  8
MASSLINIEN
390
0
 62
       172
100
AcDbLine
 10
119.799839476
 20
104.2628511236
 30
0.0
 11
169.799839476
 21
104.2628511236
 31
0.0
  0
LINE
  5
B1
100
AcDbEntity
  8
MASSLINIEN
390
0
 62
       172
100
AcDbLine
 10
119.799839476
 20
267.9667033736
 30
0.0
 11
119.799839476
 21
102.2628511236
 31
0.0
  0
LINE
  5
B2
100
AcDbEntity
  8
MASSLINIEN
390
0
 62
       172
100
AcDbLine
 10
169.799839476
 20
267.9667033736
 30
0.0
 11
169.799839476
 21
102.2628511236
 31
0.0
  0
SOLID
  5
B3
100
AcDbEntity
  8
MASSGRENZEN
390
0
100
AcDbTrace
 10
119.799839476
 20
104.2628511236
 30
0.0
 11
122.7741740601
 21
104.6544297003
 31
0.0
 12
122.7741740601
 22
103.8712725469
 32
0.0
 13
122.7741740601
 23
103.8712725469
 33
0.0
  0
SOLID
  5
B4
100
AcDbEntity
  8
MASSGRENZEN
390
0
100
AcDbTrace
 10
169.799839476
 20
104.2628511236
 30
0.0
 11
166.8255048919
 21
103.8712725469
 31
0.0
 12
166.8255048919
 22
104.6544297003
 32
0.0
 13
166.8255048919
 23
104.6544297003
 33
0.0
  0
MTEXT
  5
B5
100
AcDbEntity
  8
MASSTEXTE
390
0
 62
       212
100
AcDbMText
 10
144.799839476
 20
106.7188511236
 30
0.0
 40
2.0
 41
0.0
 71
         5
 72
         1
  1
\W1.135145;\A1;50
  7
Arial
 73
         0
 44
0.0
  0
ENDBLK
  5
B6
100
AcDbEntity
  8
0
390
0
100
AcDbBlockEnd
  0
ENDSEC
  0
SECTION
  2
ENTITIES
  0
TEXT
  5
B7
100
AcDbEntity
  8
BESCHRIFTUNG
390
0
100
AcDbText
 10
129.6929117117
 20
6.9230888889
 30
0.0
 40
3.3
  1
2500 Pv Hilfspfade für Unterzug
 41
0.9089775383
  7
Arial
 11
129.6929117117
 21
10.2230888889
 31
0.0
100
AcDbText
 73
         3
  0
TEXT
  5
B8
100
AcDbEntity
  8
BESCHRIFTUNG
390
0
100
AcDbText
 10
129.6929117117
 20
29.3230888889
 30
0.0
 40
3.3
  1
2026-04-23
 41
1.0318366722
  7
Arial
 11
129.6929117117
 21
32.6230888889
 31
0.0
100
AcDbText
 73
         3
  0
TEXT
  5
B9
100
AcDbEntity
  8
BESCHRIFTUNG
390
0
100
AcDbText
 10
101.1670590965
 20
278.4121030478
 30
0.0
 40
2.5
  1
2500.2
 41
1.1351378865
  7
Arial
 72
         1
 11
108.4643740811
 21
279.6621030478
 31
0.0
100
AcDbText
 73
         2
  0
CIRCLE
  5
BA
100
AcDbEntity
  8
KONSTRUKTION
390
0
  6
DASHED
100
AcDbCircle
 10
59.6672571624
 20
236.4667033736
 30
0.0
 40
23.5
  0
CIRCLE
  5
BB
100
AcDbEntity
  8
KONSTRUKTION
390
0
100
AcDbCircle
 10
59.6672571624
 20
236.4667033736
 30
0.0
 40
24.5
  0
CIRCLE
  5
BC
100
AcDbEntity
  8
KONSTRUKTION
390
0
100
AcDbCircle
 10
59.6672571624
 20
149.8446528118
 30
0.0
 40
1.25
  0
CIRCLE
  5
BD
100
AcDbEntity
  8
KONSTRUKTION
390
0
  6
DASHED
100
AcDbCircle
 10
59.6672571624
 20
149.8446528118
 30
0.0
 40
23.5
  0
CIRCLE
  5
BE
100
AcDbEntity
  8
KONSTRUKTION
390
0
100
AcDbCircle
 10
59.6672571624
 20
149.8446528118
 30
0.0
 40
24.5
  0
MTEXT
  5
BF
100
AcDbEntity
  8
2500_1T
390
0
  6
DIVIDE
100
AcDbMText
 10
34.5215635671
 20
181.3680646065
 30
0.0
 40
1.5
 41
0.0
 71
         5
 72
         1
  1
\W0.864843;M50+x5 T5\PO6         I1\PW1.8 B1.8
  7
Arial
 73
         1
 44
0.66
  0
MTEXT
  5
C0
100
AcDbEntity
  8
BESCHRIFTUNG
390
0
100
AcDbMText
 10
43.6709291373
 20
182.8877333437
 30
0.0
 40
1.5
 41
0.0
 71
         7
 72
         1
  1
\W1.135085;Zu W und B:\P1,8+1,5 (Rille)\P+1,7(Rest) = 5
  7
Arial
 73
         1
 44
0.66
  0
MTEXT
  5
C1
100
AcDbEntity
  8
2500_1P
390
0
  6
DIVIDE
100
AcDbMText
 10
35.0567797293
 20
269.0070258765
 30
0.0
 40
1.5
 41
0.0
 71
         5
 72
         1
  1
\W0.864827;M50+x5 T5 O2\PP4 U15  I1.4\PD1.5      B-0.3
  7
Arial
 73
         1
 44
0.66
  0
INSERT
  5
C2
100
AcDbEntity
  8
BEMASSUNG
390
0
100
AcDbBlockReference
  2
D200556032
 10
0.0
 20
0.0
 30
0.0
  0
INSERT
  5
C3
100
AcDbEntity
  8
BEMASSUNG
390
0
100
AcDbBlockReference
  2
D200540416
 10
0.0
 20
0.0
 30
0.0
  0
INSERT
  5
C4
100
AcDbEntity
  8
BEMASSUNG
390
0
100
AcDbBlockReference
  2
D200540672
 10
0.0
 20
0.0
 30
0.0
  0
TEXT
  5
C5
100
AcDbEntity
  8
2500_1T
390
0
  6
DASHED
100
AcDbText
 10
36.83635135
 20
164.1310021972
 30
0.0
 40
1.5
  1
N1
 41
1.1350267802
  7
Arial
100
AcDbText
  0
TEXT
  5
C6
100
AcDbEntity
  8
2500_1P
390
0
  6
DIVIDE
100
AcDbText
 10
33.4079499197
 20
241.0960097538
 30
0.0
 40
1.5
  1
N1
 41
1.1350267802
  7
Arial
100
AcDbText
  0
TEXT
  5
C7
100
AcDbEntity
  8
BESCHRIFTUNG
390
0
100
AcDbText
 10
20.7940015756
 20
277.0102898467
 30
0.0
 40
3.0
  1
2500.1
 41
1.1351380193
  7
Arial
100
AcDbText
  0
LINE
  5
C8
100
AcDbEntity
  8
MITTELLINIEN
390
0
100
AcDbLine
 10
34.6672571624
 20
271.9667033736
 30
0.0
 11
34.6672571624
 21
113.3446528118
 31
0.0
  0
LINE
  5
C9
100
AcDbEntity
  8
MITTELLINIEN
390
0
100
AcDbLine
 10
84.6672571624
 20
271.9667033736
 30
0.0
 11
84.6672571624
 21
113.3446528118
 31
0.0
  0
LINE
  5
CA
100
AcDbEntity
  8
MITTELLINIEN
390
0
100
AcDbLine
 10
35.6555218733
 20
177.0682926935
 30
0.0
 11
47.429871409
 21
163.7189596385
 31
0.0
  0
MTEXT
  5
CB
100
AcDbEntity
  8
2500___ HILFSPFADE FÜR UNTERZUG
390
0
100
AcDbMText
 10
24.0632058059
 20
149.8446528118
 30
0.0
 40
2.0
 41
0.0
 71
         5
 72
         1
  1
\W1.135136;>2500.1T\PM50+x5\PT5 O6
  7
Arial
 73
         1
 44
0.66
  0
MTEXT
  5
CC
100
AcDbEntity
  8
2500___ HILFSPFADE FÜR UNTERZUG
390
0
100
AcDbMText
 10
25.2496357836
 20
236.4667033736
 30
0.0
 40
2.0
 41
0.0
 71
         5
 72
         1
  1
\W1.135110;>2500.1P\PM50+x5\PT5 O2
  7
Arial
 73
         1
 44
0.66
  0
ARC
  5
CD
100
AcDbEntity
  8
2500_1P
390
0
  6
BORDER
 62
        14
100
AcDbCircle
 10
59.6672571624
 20
236.4667033736
 30
0.0
 40
25.5
100
AcDbArc
 50
180.0
 51
360.0
  0
ARC
  5
CE
100
AcDbEntity
  8
2500_1P
390
0
  6
DIVIDE
100
AcDbCircle
 10
59.6672571624
 20
236.4667033736
 30
0.0
 40
30.3
100
AcDbArc
 50
214.4031427086
 51
510.0722479873
  0
ARC
  5
CF
100
AcDbEntity
  8
2500_1P
390
0
  6
DIVIDE
100
AcDbCircle
 10
59.6672571624
 20
236.4667033736
 30
0.0
 40
28.7
100
AcDbArc
 50
209.4155977161
 51
510.5844022839
  0
ARC
  5
D0
100
AcDbEntity
  8
2500_1P
390
0
  6
DIVIDE
100
AcDbCircle
 10
59.6672571624
 20
236.4667033736
 30
0.0
 40
27.1
100
AcDbArc
 50
202.7042851322
 51
517.2957148678
  0
ARC
  5
D1
100
AcDbEntity
  8
2500_1P
390
0
  6
DIVIDE
100
AcDbCircle
 10
53.8551959409
 20
234.9546396454
 30
0.0
 40
24.734200166
100
AcDbArc
 50
140.8744856833
 51
219.1255143167
  0
ARC
  5
D2
100
AcDbEntity
  8
2500_1P
390
0
  6
DIVIDE
100
AcDbCircle
 10
54.3344515628
 20
234.6487931132
 30
0.0
 40
23.1849894948
100
AcDbArc
 50
148.0242963524
 51
211.9757036476
  0
ARC
  5
D3
100
AcDbEntity
  8
2500_1P
390
0
  6
BORDER
100
AcDbCircle
 10
59.6672571624
 20
236.4667033736
 30
0.0
 40
25.5
100
AcDbArc
 50
0.0
 51
180.0
  0
ARC
  5
D4
100
AcDbEntity
  8
2500_1P
390
0
  6
DIVIDE
100
AcDbCircle
 10
44.1652862552
 20
231.7027119956
 30
0.0
 40
11.0750259409
100
AcDbArc
 50
154.5225248622
 51
210.9509567732
  0
CIRCLE
  5
D5
100
AcDbEntity
  8
2500_1P
390
0
  6
PHANTOM
100
AcDbCircle
 10
34.6672571624
 20
267.9667033736
 30
0.0
 40
0.5
  0
CIRCLE
  5
D6
100
AcDbEntity
  8
2500_1P
390
0
  6
PHANTOM
100
AcDbCircle
 10
34.6672571624
 20
204.9667033736
 30
0.0
 40
1.0
  0
ARC
  5
D7
100
AcDbEntity
  8
2500_1P
390
0
  6
DASHED
100
AcDbCircle
 10
49.1398599074
 20
258.6139680241
 30
0.0
 40
17.2316536853
100
AcDbArc
 50
147.1279490405
 51
204.0787149752
  0
ARC
  5
D8
100
AcDbEntity
  8
2500_1T
390
0
 62
        11
100
AcDbCircle
 10
59.6672571624
 20
149.8446528118
 30
0.0
 40
26.5
100
AcDbArc
 50
134.2935843359
 51
314.4327335901
  0
ARC
  5
D9
100
AcDbEntity
  8
2500_1T
390
0
  6
DASHED
100
AcDbCircle
 10
39.6578260548
 20
177.1199035697
 30
0.0
 40
6.538676015
100
AcDbArc
 50
139.7505295695
 51
283.7498140526
  0
ARC
  5
DA
100
AcDbEntity
  8
2500_1T
390
0
  6
DASHED
100
AcDbCircle
 10
71.9444954471
 20
140.5540267183
 30
0.0
 40
43.3918054874
100
AcDbArc
 50
141.7707822298
 51
210.786026744
  0
ARC
  5
DB
100
AcDbEntity
  8
2500_1T
390
0
100
AcDbCircle
 10
59.690262729
 20
149.8671525672
 30
0.0
 40
26.4999804623
100
AcDbArc
 50
314.3631589629
 51
494.363158963
  0
CIRCLE
  5
DC
100
AcDbEntity
  8
2500_1T
390
0
  6
PHANTOM
100
AcDbCircle
 10
34.6672571624
 20
181.3446528118
 30
0.0
 40
0.5
  0
CIRCLE
  5
DD
100
AcDbEntity
  8
2500_1T
390
0
  6
PHANTOM
100
AcDbCircle
 10
34.6672571624
 20
118.3446528118
 30
0.0
 40
1.0
  0
ARC
  5
DE
100
AcDbEntity
  8
2500___ HILFSPFADE FÜR UNTERZUG
390
0
100
AcDbCircle
 10
82.6389461501
 20
236.4667033736
 30
0.0
 40
57.3893103664
100
AcDbArc
 50
146.7096043108
 51
213.2903956892
  0
ARC
  5
DF
100
AcDbEntity
  8
2500___ HILFSPFADE FÜR UNTERZUG
390
0
100
AcDbCircle
 10
76.1515948581
 20
149.8446528118
 30
0.0
 40
52.0883890522
100
AcDbArc
 50
142.7897718356
 51
217.2102281644
  0
CIRCLE
  5
E0
100
AcDbEntity
  8
MITTELLINIEN
390
0
100
AcDbCircle
 10
59.6672571624
 20
149.8446528118
 30
0.0
 40
31.3
  0
CIRCLE
  5
E1
100
AcDbEntity
  8
MITTELLINIEN
390
0
100
AcDbCircle
 10
59.6672571624
 20
236.4667033736
 30
0.0
 40
31.3
  0
LINE
  5
E2
100
AcDbEntity
  8
2500_1T
390
0
100
AcDbLine
 10
41.1613759062
 20
168.81258256
 30
0.0
 11
37.8584342563
 21
167.4052690724
 31
0.0
  0
LINE
  5
E3
100
AcDbEntity
  8
2500_1T
390
0
100
AcDbLine
 10
41.2119564856
 20
170.7686074316
 30
0.0
 11
41.1613759062
 21
168.81258256
 31
0.0
  0
ARC
  5
E4
100
AcDbEntity
  8
2500_1P
390
0
  6
DASHED
100
AcDbCircle
 10
25.5654670938
 20
220.5761987693
 30
0.0
 40
18.0692813626
100
AcDbArc
 50
300.2461690746
 51
421.5725918238
  0
CIRCLE
  5
E5
100
AcDbEntity
  8
2501_2-4 ROLLEN
390
0
100
AcDbCircle
 10
131.799839476
 20
239.6531168303
 30
0.0
 40
11.5
  0
CIRCLE
  5
E6
100
AcDbEntity
  8
2501_1 UNTERZUGRAHMEN
390
0
100
AcDbCircle
 10
131.799839476
 20
239.6531168303
 30
0.0
 40
1.5
  0
CIRCLE
  5
E7
100
AcDbEntity
  8
2501_2-4 ROLLEN
390
0
  6
DASHED
100
AcDbCircle
 10
131.799839476
 20
239.6531168303
 30
0.0
 40
10.5
  0
CIRCLE
  5
E8
100
AcDbEntity
  8
2501_1 UNTERZUGRAHMEN
390
0
100
AcDbCircle
 10
131.799839476
 20
153.0310662685
 30
0.0
 40
1.5
  0
CIRCLE
  5
E9
100
AcDbEntity
  8
2501_2-4 ROLLEN
390
0
  6
DASHED
100
AcDbCircle
 10
131.799839476
 20
153.0310662685
 30
0.0
 40
10.5
  0
CIRCLE
  5
EA
100
AcDbEntity
  8
2501_2-4 ROLLEN
390
0
100
AcDbCircle
 10
131.799839476
 20
153.0310662685
 30
0.0
 40
11.5
  0
CIRCLE
  5
EB
100
AcDbEntity
  8
MITTELLINIEN
390
0
100
AcDbCircle
 10
131.799839476
 20
239.6531168303
 30
0.0
 40
18.3
  0
ARC
  5
EC
100
AcDbEntity
  8
2500_2P
390
0
  6
DIVIDE
100
AcDbCircle
 10
131.799839476
 20
239.6531168303
 30
0.0
 40
15.7
100
AcDbArc
 50
220.1524698421
 51
499.8475301579
  0
ARC
  5
ED
100
AcDbEntity
  8
2500_2P
390
0
  6
DIVIDE
100
AcDbCircle
 10
131.799839476
 20
239.6531168303
 30
0.0
 40
14.1
100
AcDbArc
 50
211.6724334264
 51
508.3275665736
  0
ARC
  5
EE
100
AcDbEntity
  8
2500_2P
390
0
  6
BORDER
 62
        34
100
AcDbCircle
 10
131.799839476
 20
239.6531168303
 30
0.0
 40
12.5
100
AcDbArc
 50
163.7397952918
 51
343.7397952916
  0
ARC
  5
EF
100
AcDbEntity
  8
2500_2P
390
0
  6
DIVIDE
100
AcDbCircle
 10
131.799839476
 20
239.6531168303
 30
0.0
 40
17.3
100
AcDbArc
 50
226.0809296408
 51
493.9190703592
  0
LINE
  5
F0
100
AcDbEntity
  8
MITTELLINIEN
390
0
100
AcDbLine
 10
119.799839476
 20
272.9667033736
 30
0.0
 11
119.799839476
 21
128.5310662685
 31
0.0
  0
ARC
  5
F1
100
AcDbEntity
  8
2500_2P
390
0
  6
DIVIDE
100
AcDbCircle
 10
135.1828302219
 20
238.2929383897
 30
0.0
 40
17.7041328197
100
AcDbArc
 50
150.33021129
 51
209.66978871
  0
ARC
  5
F2
100
AcDbEntity
  8
2500_2P
390
0
  6
DIVIDE
100
AcDbCircle
 10
135.6405386065
 20
238.4842136569
 30
0.0
 40
19.4538277548
100
AcDbArc
 50
144.5154012609
 51
215.4845987391
  0
ARC
  5
F3
100
AcDbEntity
  8
2500_2P
390
0
  6
DIVIDE
100
AcDbCircle
 10
136.3945789144
 20
237.7014280266
 30
0.0
 40
17.4672919436
100
AcDbArc
 50
161.8136605953
 51
198.1863394047
  0
ARC
  5
F4
100
AcDbEntity
  8
2500_2P
390
0
  6
BORDER
100
AcDbCircle
 10
131.799839476
 20
239.6531168303
 30
0.0
 40
12.5
100
AcDbArc
 50
343.7397952916
 51
523.7397952918
  0
ARC
  5
F5
100
AcDbEntity
  8
2500_2P
390
0
  6
DASHED
100
AcDbCircle
 10
99.0108486536
 20
232.1531168301
 30
0.0
 40
23.5198243915
100
AcDbArc
 50
332.1155096436
 51
387.884490358
  0
ARC
  5
F6
100
AcDbEntity
  8
2500_2P
390
0
  6
DASHED
100
AcDbCircle
 10
114.4008716113
 20
255.1338872482
 30
0.0
 40
6.1858387688
100
AcDbArc
 50
330.7850547624
 51
389.2149452376
  0
CIRCLE
  5
F7
100
AcDbEntity
  8
2500_2P
390
0
  6
PHANTOM
100
AcDbCircle
 10
119.799839476
 20
258.1531168303
 30
0.0
 40
0.5
  0
CIRCLE
  5
F8
100
AcDbEntity
  8
2500_2P
390
0
  6
PHANTOM
100
AcDbCircle
 10
119.799839476
 20
221.1531168303
 30
0.0
 40
1.0
  0
ARC
  5
F9
100
AcDbEntity
  8
2500___ HILFSPFADE FÜR UNTERZUG
390
0
  6
DASHDOT
100
AcDbCircle
 10
136.0963350811
 20
239.6531168303
 30
0.0
 40
24.6541227588
100
AcDbArc
 50
131.3765562121
 51
228.6234437879
  0
TEXT
  5
FA
100
AcDbEntity
  8
2500_2P
390
0
  6
DIVIDE
100
AcDbText
 10
115.741728799
 20
258.4434393332
 30
0.0
 40
1.5
  1
@2500.1P
 41
0.8648175752
  7
Arial
 72
         1
 11
120.1893620429
 21
259.1934393332
 31
0.0
100
AcDbText
 73
         2
  0
MTEXT
  5
FB
100
AcDbEntity
  8
2500___ HILFSPFADE FÜR UNTERZUG
390
0
100
AcDbMText
 10
111.5325650483
 20
239.6531168303
 30
0.0
 40
2.0
 41
0.0
 71
         5
 72
         1
  1
\W1.135109;>2500.2P\PM50+x5\PT5 O2
  7
Arial
 73
         1
 44
0.66
  0
ARC
  5
FC
100
AcDbEntity
  8
2500___ HILFSPFADE FÜR UNTERZUG
390
0
  6
DASHDOT
100
AcDbCircle
 10
136.0963350811
 20
153.0310662685
 30
0.0
 40
24.6541227588
100
AcDbArc
 50
131.3765562121
 51
228.6234437879
  0
CIRCLE
  5
FD
100
AcDbEntity
  8
2500_2T
390
0
  6
PHANTOM
100
AcDbCircle
 10
119.799839476
 20
134.5310662685
 30
0.0
 40
1.0
  0
CIRCLE
  5
FE
100
AcDbEntity
  8
2500_2T
390
0
  6
PHANTOM
100
AcDbCircle
 10
119.799839476
 20
171.5310662685
 30
0.0
 40
0.5
  0
TEXT
  5
FF
100
AcDbEntity
  8
2500_2T
390
0
  6
DIVIDE
100
AcDbText
 10
115.7416794867
 20
171.8213887715
 30
0.0
 40
1.5
  1
@2500.1T
 41
0.8648271637
  7
Arial
 72
         1
 11
120.1893620429
 21
172.5713887715
 31
0.0
100
AcDbText
 73
         2
  0
MTEXT
  5
100
100
AcDbEntity
  8
2500___ HILFSPFADE FÜR UNTERZUG
390
0
100
AcDbMText
 10
111.5325650483
 20
153.0310662685
 30
0.0
 40
2.0
 41
0.0
 71
         5
 72
         1
  1
\W1.135136;>2500.2T\PM50+x5\PT5 O6
  7
Arial
 73
         1
 44
0.66
  0
ARC
  5
101
100
AcDbEntity
  8
2500_2T
390
0
100
AcDbCircle
 10
131.799839476
 20
153.0310662685
 30
0.0
 40
13.5
100
AcDbArc
 50
303.2543665739
 51
483.2543665755
  0
CIRCLE
  5
102
100
AcDbEntity
  8
MITTELLINIEN
390
0
100
AcDbCircle
 10
131.799839476
 20
153.0310662685
 30
0.0
 40
18.3
  0
ARC
  5
103
100
AcDbEntity
  8
2500_2T
390
0
 62
        30
100
AcDbCircle
 10
131.799839476
 20
153.0310662685
 30
0.0
 40
13.5
100
AcDbArc
 50
123.2543665755
 51
303.2543665739
  0
LINE
  5
104
100
AcDbEntity
  8
2500_2T
390
0
100
AcDbLine
 10
123.6293207388
 20
165.4911073423
 30
0.0
 11
124.3970204858
 21
164.3203652281
 31
0.0
  0
LINE
  5
105
100
AcDbEntity
  8
2500_2T
390
0
100
AcDbLine
 10
124.3970204858
 20
164.3203652281
 30
0.0
 11
121.9253451667
 21
164.1892185411
 31
0.0
  0
LINE
  5
106
100
AcDbEntity
  8
2500_2T
390
0
  6
DASHED
100
AcDbLine
 10
121.9253451667
 20
164.1892185411
 30
0.0
 11
119.799839476
 21
134.5310662685
 31
0.0
  0
LINE
  5
107
100
AcDbEntity
  8
2500_2T
390
0
  6
DASHED
100
AcDbLine
 10
123.6293207388
 20
165.4911073423
 30
0.0
 11
119.799839476
 21
171.5310662685
 31
0.0
  0
TEXT
  5
108
100
AcDbEntity
  8
2500_2T
390
0
  6
DASHED
100
AcDbText
 10
118.2273340485
 20
158.2875470291
 30
0.0
 40
1.5
  1
N1
 41
1.1350267802
  7
Arial
100
AcDbText
  0
INSERT
  5
109
100
AcDbEntity
  8
BEMASSUNG
390
0
100
AcDbBlockReference
  2
D200541184
 10
0.0
 20
0.0
 30
0.0
  0
LINE
  5
10A
100
AcDbEntity
  8
MITTELLINIEN
390
0
100
AcDbLine
 10
169.799839476
 20
272.9667033736
 30
0.0
 11
169.799839476
 21
128.5310662685
 31
0.0
  0
INSERT
  5
10B
100
AcDbEntity
  8
BEMASSUNG
390
0
100
AcDbBlockReference
  2
D200541440
 10
0.0
 20
0.0
 30
0.0
  0
INSERT
  5
10C
100
AcDbEntity
  8
BEMASSUNG
390
0
100
AcDbBlockReference
  2
D200541952
 10
0.0
 20
0.0
 30
0.0
  0
LINE
  5
10D
100
AcDbEntity
  8
MITTELLINIEN
390
0
100
AcDbLine
 10
415.4922552063
 20
260.4526584298
 30
0.0
 11
415.4922552063
 21
116.0170213247
 31
0.0
  0
LINE
  5
10E
100
AcDbEntity
  8
STANDARD
390
0
100
AcDbLine
 10
10.0
 20
5.0
 30
0.0
 11
10.0
 21
292.0
 31
0.0
  0
LINE
  5
10F
100
AcDbEntity
  8
STANDARD
390
0
100
AcDbLine
 10
15.0
 20
287.0
 30
0.0
 11
205.0
 21
287.0
 31
0.0
  0
LINE
  5
110
100
AcDbEntity
  8
STANDARD
390
0
100
AcDbLine
 10
10.0
 20
292.0
 30
0.0
 11
15.0
 21
292.0
 31
0.0
  0
LINE
  5
111
100
AcDbEntity
  8
STANDARD
390
0
100
AcDbLine
 10
10.0
 20
5.0
 30
0.0
 11
15.0
 21
5.0
 31
0.0
  0
LINE
  5
112
100
AcDbEntity
  8
STANDARD
390
0
100
AcDbLine
 10
10.0
 20
244.1666666667
 30
0.0
 11
15.0
 21
244.1666666667
 31
0.0
  0
LINE
  5
113
100
AcDbEntity
  8
STANDARD
390
0
100
AcDbLine
 10
10.0
 20
196.3333333333
 30
0.0
 11
15.0
 21
196.3333333333
 31
0.0
  0
LINE
  5
114
100
AcDbEntity
  8
STANDARD
390
0
100
AcDbLine
 10
10.0
 20
148.5
 30
0.0
 11
15.0
 21
148.5
 31
0.0
  0
LINE
  5
115
100
AcDbEntity
  8
STANDARD
390
0
100
AcDbLine
 10
10.0
 20
100.6666666667
 30
0.0
 11
15.0
 21
100.6666666667
 31
0.0
  0
LINE
  5
116
100
AcDbEntity
  8
STANDARD
390
0
100
AcDbLine
 10
10.0
 20
52.8333333333
 30
0.0
 11
15.0
 21
52.8333333333
 31
0.0
  0
LINE
  5
117
100
AcDbEntity
  8
STANDARD
390
0
100
AcDbLine
 10
157.5
 20
292.0
 30
0.0
 11
157.5
 21
287.0
 31
0.0
  0
LINE
  5
118
100
AcDbEntity
  8
STANDARD
390
0
100
AcDbLine
 10
110.0
 20
292.0
 30
0.0
 11
110.0
 21
287.0
 31
0.0
  0
LINE
  5
119
100
AcDbEntity
  8
STANDARD
390
0
100
AcDbLine
 10
62.5
 20
292.0
 30
0.0
 11
62.5
 21
287.0
 31
0.0
  0
TEXT
  5
11A
100
AcDbEntity
  8
STANDARD
390
0
100
AcDbText
 10
10.9491078691
 20
267.8641561278
 30
0.0
 40
2.23125
  1
A
 41
1.547986837
  7
Arial
 72
         1
 11
12.6760806841
 21
270.0954061278
 31
0.0
100
AcDbText
 73
         3
  0
TEXT
  5
11B
100
AcDbEntity
  8
STANDARD
390
0
100
AcDbText
 10
10.9491074243
 20
220.0308227945
 30
0.0
 40
2.23125
  1
B
 41
1.5479872357
  7
Arial
 72
         1
 11
12.6760806841
 21
222.2620727945
 31
0.0
100
AcDbText
 73
         3
  0
TEXT
  5
11C
100
AcDbEntity
  8
STANDARD
390
0
100
AcDbText
 10
10.9489779593
 20
172.1974894612
 30
0.0
 40
2.23125
  1
C
 41
1.5481032827
  7
Arial
 72
         1
 11
12.6760806841
 21
174.4287394612
 31
0.0
100
AcDbText
 73
         3
  0
TEXT
  5
11D
100
AcDbEntity
  8
STANDARD
390
0
100
AcDbText
 10
10.9489771034
 20
124.3641561278
 30
0.0
 40
2.23125
  1
D
 41
1.54810405
  7
Arial
 72
         1
 11
12.6760806841
 21
126.5954061278
 31
0.0
100
AcDbText
 73
         3
  0
TEXT
  5
11E
100
AcDbEntity
  8
STANDARD
390
0
100
AcDbText
 10
10.9491076096
 20
76.5308227945
 30
0.0
 40
2.23125
  1
E
 41
1.5479870696
  7
Arial
 72
         1
 11
12.6760806841
 21
78.7620727945
 31
0.0
100
AcDbText
 73
         3
  0
TEXT
  5
11F
100
AcDbEntity
  8
STANDARD
390
0
100
AcDbText
 10
10.9493506612
 20
28.6974894612
 30
0.0
 40
2.23125
  1
F
 41
1.5477692083
  7
Arial
 72
         1
 11
12.6760806841
 21
30.9287394612
 31
0.0
100
AcDbText
 73
         3
  0
TEXT
  5
120
100
AcDbEntity
  8
STANDARD
390
0
100
AcDbText
 10
36.7048241449
 20
288.48599354
 30
0.0
 40
2.23125
  1
1
 41
1.5479225906
  7
Arial
 72
         1
 11
38.0
 21
290.71724354
 31
0.0
100
AcDbText
 73
         3
  0
TEXT
  5
121
100
AcDbEntity
  8
STANDARD
390
0
100
AcDbText
 10
83.7730999712
 20
288.48599354
 30
0.0
 40
2.23125
  1
2
 41
1.5479215945
  7
Arial
 72
         1
 11
85.5
 21
290.71724354
 31
0.0
100
AcDbText
 73
         3
  0
TEXT
  5
122
100
AcDbEntity
  8
STANDARD
390
0
100
AcDbText
 10
131.2730986376
 20
288.48599354
 30
0.0
 40
2.23125
  1
3
 41
1.5479227899
  7
Arial
 72
         1
 11
133.0
 21
290.71724354
 31
0.0
100
AcDbText
 73
         3
  0
TEXT
  5
123
100
AcDbEntity
  8
STANDARD
390
0
100
AcDbText
 10
178.7730988598
 20
288.48599354
 30
0.0
 40
2.23125
  1
4
 41
1.5479225906
  7
Arial
 72
         1
 11
180.5
 21
290.71724354
 31
0.0
100
AcDbText
 73
         3
  0
LINE
  5
124
100
AcDbEntity
  8
STANDARD
390
0
100
AcDbLine
 10
205.0
 20
292.0
 30
0.0
 11
205.0
 21
287.0
 31
0.0
  0
LINE
  5
125
100
AcDbEntity
  8
STANDARD
390
0
100
AcDbLine
 10
205.0
 20
5.0
 30
0.0
 11
15.0
 21
5.0
 31
0.0
  0
LINE
  5
126
100
AcDbEntity
  8
STANDARD
390
0
100
AcDbLine
 10
15.0
 20
5.0
 30
0.0
 11
15.0
 21
287.0
 31
0.0
  0
LINE
  5
127
100
AcDbEntity
  8
STANDARD
390
0
100
AcDbLine
 10
15.0
 20
292.0
 30
0.0
 11
205.0
 21
292.0
 31
0.0
  0
LINE
  5
128
100
AcDbEntity
  8
STANDARD
390
0
100
AcDbLine
 10
1.0
 20
1.0
 30
0.0
 11
1.0
 21
296.0
 31
0.0
  0
LINE
  5
129
100
AcDbEntity
  8
STANDARD
390
0
100
AcDbLine
 10
209.0
 20
1.0
 30
0.0
 11
1.0
 21
1.0
 31
0.0
  0
LINE
  5
12A
100
AcDbEntity
  8
STANDARD
390
0
100
AcDbLine
 10
209.0
 20
296.0
 30
0.0
 11
209.0
 21
1.0
 31
0.0
  0
LINE
  5
12B
100
AcDbEntity
  8
STANDARD
390
0
100
AcDbLine
 10
1.0
 20
296.0
 30
0.0
 11
209.0
 21
296.0
 31
0.0
  0
LINE
  5
12C
100
AcDbEntity
  8
STANDARD
390
0
100
AcDbLine
 10
15.0
 20
287.0
 30
0.0
 11
15.0
 21
292.0
 31
0.0
  0
LINE
  5
12D
100
AcDbEntity
  8
STANDARD
390
0
100
AcDbLine
 10
205.0
 20
287.0
 30
0.0
 11
205.0
 21
5.0
 31
0.0
  0
MTEXT
  5
12E
100
AcDbEntity
  8
STANDARD
390
0
100
AcDbMText
 10
203.6063292805
 20
81.4222772661
 30
0.0
 40
1.59375
 41
0.0
 71
         1
 72
         1
  1

  7
Arial
 11
0.0
 21
-1.0
 31
0.0
 73
         1
 44
1.0352941176
  0
MTEXT
  5
12F
100
AcDbEntity
  8
STANDARD
390
0
100
AcDbMText
 10
116.6968769253
 20
27.5871143065
 30
0.0
 40
1.59375
 41
0.0
 71
         1
 72
         1
  1

  7
Arial
 11
0.0
 21
-1.0
 31
0.0
 73
         1
 44
1.0352941176
  0
MTEXT
  5
130
100
AcDbEntity
  8
STANDARD
390
0
100
AcDbMText
 10
203.6063292805
 20
125.7560948498
 30
0.0
 40
1.59375
 41
0.0
 71
         1
 72
         1
  1

  7
Arial
 11
0.0
 21
-1.0
 31
0.0
 73
         1
 44
1.0352941176
  0
LINE
  5
131
100
AcDbEntity
  8
STANDARD
390
0
100
AcDbLine
 10
205.0
 20
182.1150997151
 30
0.0
 11
205.0
 21
5.1236467236
 31
0.0
  0
LINE
  5
132
100
AcDbEntity
  8
STANDARD
370
         0
390
0
100
AcDbLine
 10
127.305982906
 20
34.4
 30
0.0
 11
127.305982906
 21
5.0
 31
0.0
  0
LINE
  5
133
100
AcDbEntity
  8
STANDARD
370
         0
390
0
100
AcDbLine
 10
81.105982906
 20
34.4
 30
0.0
 11
205.0
 21
34.4
 31
0.0
  0
LINE
  5
134
100
AcDbEntity
  8
STANDARD
370
         0
390
0
100
AcDbLine
 10
81.105982906
 20
27.4
 30
0.0
 11
205.0
 21
27.4
 31
0.0
  0
LINE
  5
135
100
AcDbEntity
  8
STANDARD
370
         0
390
0
100
AcDbLine
 10
81.105982906
 20
12.0
 30
0.0
 11
205.0
 21
12.0
 31
0.0
  0
LINE
  5
136
100
AcDbEntity
  8
STANDARD
370
         0
390
0
100
AcDbLine
 10
81.105982906
 20
34.4
 30
0.0
 11
81.105982906
 21
5.0
 31
0.0
  0
LINE
  5
137
100
AcDbEntity
  8
STANDARD
370
         0
390
0
100
AcDbLine
 10
165.105982906
 20
34.4
 30
0.0
 11
165.105982906
 21
27.4
 31
0.0
  0
TEXT
  5
138
100
AcDbEntity
  8
BESCHRIFTUNG
390
0
100
AcDbText
 10
82.2010860399
 20
29.1386
 30
0.0
 40
3.3
  1
Stellwerk HMM
 41
1.3758039542
 51
15.0
  7
Arial
 11
82.2010860399
 21
32.4386
 31
0.0
100
AcDbText
 73
         3
  0
TEXT
  5
139
100
AcDbEntity
  8
BESCHRIFTUNG
390
0
100
AcDbText
 10
128.6210415954
 20
21.6601111111
 30
0.0
 40
3.3
  1
Hilfspfade für Unterzug
 41
1.1301725038
 51
15.0
  7
Arial
 11
128.6210415954
 21
24.9601111111
 31
0.0
100
AcDbText
 73
         3
  0
TEXT
  5
13A
100
AcDbEntity
  8
BESCHRIFTUNG
390
0
100
AcDbText
 10
82.2010860399
 20
6.9230888889
 30
0.0
 40
3.3
  1
Dateiname
 41
1.1437088374
 51
15.0
  7
Arial
 11
82.2010860399
 21
10.2230888889
 31
0.0
100
AcDbText
 73
         3
  0
TEXT
  5
13B
100
AcDbEntity
  8
BESCHRIFTUNG
390
0
100
AcDbText
 10
82.4210415954
 20
21.6601111111
 30
0.0
 40
3.3
  1
Bl. 2500 Pv
 41
1.1437153669
 51
15.0
  7
Arial
 11
82.4210415954
 21
24.9601111111
 31
0.0
100
AcDbText
 73
         3
  0
TEXT
  5
13C
100
AcDbEntity
  8
BESCHRIFTUNG
390
0
100
AcDbText
 10
166.2010860399
 20
29.1386
 30
0.0
 40
3.3
  1
Maßstab 1:1
 41
1.1437192123
 51
15.0
  7
Arial
 11
166.2010860399
 21
32.4386
 31
0.0
100
AcDbText
 73
         3
  0
ENDSEC
  0
SECTION
  2
OBJECTS
  0
DICTIONARY
  5
19
100
AcDbDictionary
280
         0
281
         1
  3
ACAD_GROUP
350
1A
  3
ACAD_MLINESTYLE
350
1B
  3
ACAD_LAYOUT
350
1E
  3
ACAD_PLOTSETTINGS
350
22
  3
ACAD_PLOTSTYLENAME
350
1F
  3
ACAD_WIPEOUT_VARS
350
23
  0
DICTIONARY
  5
1A
102
{ACAD_REACTORS
330
19
102
}
100
AcDbDictionary
280
         0
281
         1
  0
DICTIONARY
  5
1B
102
{ACAD_REACTORS
330
19
102
}
100
AcDbDictionary
280
         0
281
         1
  3
Standard
350
1C
  0
MLINESTYLE
  5
1C
102
{ACAD_REACTORS
330
1B
102
}
100
AcDbMlineStyle
  2
Standard
 70
         0
  3

 62
         0
 51
90.0
 52
90.0
 71
         2
 49
0.5
 62
       256
  6
ByLayer
 49
-0.5
 62
       256
  6
ByLayer
  0
ACDBDICTIONARYWDFLT
  5
1F
102
{ACAD_REACTORS
330
19
102
}
100
AcDbDictionary
281
         1
  3
Normal
350
1D
100
AcDbDictionaryWithDefault
340
1D
  0
ACDBPLACEHOLDER
  5
1D
102
{ACAD_REACTORS
330
1F
102
}
  0
LAYOUT
  5
20
102
{ACAD_REACTORS
330
1E
102
}
100
AcDbPlotSettings
  1

  2

  4

  6

 40
0.0
 41
0.0
 42
0.0
 43
0.0
 44
0.0
 45
0.0
 46
0.0
 47
0.0
 48
0.0
 49
0.0
140
0.0
141
0.0
142
1.0
143
1.0
 70
      1024
 72
         0
 73
         0
 74
         0
  7

 75
         0
147
1.0
148
0.0
149
0.0
100
AcDbLayout
  1
Model
 70
         0
 71
         0
 10
0.0
 20
0.0
 11
0.0
 21
0.0
 12
0.0
 22
0.0
 32
0.0
 14
0.0
 24
0.0
 34
0.0
 15
0.0
 25
0.0
 35
0.0
146
0.0
 13
0.0
 23
0.0
 33
0.0
 16
0.0
 26
0.0
 36
0.0
 17
0.0
 27
0.0
 37
0.0
 76
         0
330
A
331
0
345
0
346
0
  0
LAYOUT
  5
21
102
{ACAD_REACTORS
330
1E
102
}
100
AcDbPlotSettings
  1

  2

  4

  6

 40
0.0
 41
0.0
 42
0.0
 43
0.0
 44
0.0
 45
0.0
 46
0.0
 47
0.0
 48
0.0
 49
0.0
140
0.0
141
0.0
142
1.0
143
1.0
 70
         0
 72
         0
 73
         0
 74
         0
  7

 75
         0
147
1.0
148
0.0
149
0.0
100
AcDbLayout
  1
Layout1
 70
         0
 71
         0
 10
0.0
 20
0.0
 11
0.0
 21
0.0
 12
0.0
 22
0.0
 32
0.0
 14
0.0
 24
0.0
 34
0.0
 15
0.0
 25
0.0
 35
0.0
146
0.0
 13
0.0
 23
0.0
 33
0.0
 16
0.0
 26
0.0
 36
0.0
 17
0.0
 27
0.0
 37
0.0
 76
         0
330
B
331
0
345
0
346
0
  0
DICTIONARY
  5
1E
102
{ACAD_REACTORS
330
19
102
}
100
AcDbDictionary
280
         0
281
         1
  3
Layout1
350
21
  3
Model
350
20
  0
DICTIONARY
  5
22
102
{ACAD_REACTORS
330
19
102
}
100
AcDbDictionary
280
         0
281
         1
  0
WIPEOUTVARIABLES
  5
23
100
AcDbWipeoutVariables
 70
         1
  0
ENDSEC
  0
EOF
