  0
SECTION
  2
HEADER
  9
$ACADVER
  1
AC1015
  9
$ACADMAINTVER
 70
         6
  9
$DWGCODEPAGE
  3
ANSI_1252
  9
$INSBASE
 10
0.0
 20
0.0
 30
0.0
  9
$EXTMIN
 10
0.0
 20
0.0
 30
0.0
  9
$EXTMAX
 10
210.0
 20
297.0
 30
0.0
  9
$LIMMIN
 10
0.0
 20
0.0
  9
$LIMMAX
 10
210.0
 20
297.0
  9
$ORTHOMODE
 70
         0
  9
$REGENMODE
 70
         1
  9
$FILLMODE
 70
         1
  9
$QTEXTMODE
 70
         0
  9
$MIRRTEXT
 70
         1
  9
$LTSCALE
 40
5.25
  9
$ATTMODE
 70
         1
  9
$TEXTSIZE
 40
0.2
  9
$TRACEWID
 40
0.05
  9
$TEXTSTYLE
  7
Standard
  9
$CLAYER
  8
0
  9
$CELTYPE
  6
CONTINUOUS
  9
$CECOLOR
 62
       256
  9
$CELTSCALE
 40
1.0
  9
$DISPSILH
 70
         0
  9
$DIMSCALE
 40
1.0
  9
$DIMASZ
 40
0.18
  9
$DIMEXO
 40
0.0625
  9
$DIMDLI
 40
0.38
  9
$DIMRND
 40
0.0
  9
$DIMDLE
 40
0.0
  9
$DIMEXE
 40
0.18
  9
$DIMTP
 40
0.0
  9
$DIMTM
 40
0.0
  9
$DIMTXT
 40
3.0
  9
$DIMCEN
 40
0.09
  9
$DIMTSZ
 40
0.0
  9
$DIMTOL
 70
         0
  9
$DIMLIM
 70
         0
  9
$DIMTIH
 70
         1
  9
$DIMTOH
 70
         1
  9
$DIMSE1
 70
         0
  9
$DIMSE2
 70
         0
  9
$DIMTAD
 70
         1
  9
$DIMZIN
 70
         0
  9
$DIMBLK
  1

  9
$DIMASO
 70
         1
  9
$DIMSHO
 70
         1
  9
$DIMPOST
  1
<>
  9
$DIMAPOST
  1

  9
$DIMALT
 70
         0
  9
$DIMALTD
 70
         2
  9
$DIMALTF
 40
25.4
  9
$DIMLFAC
 40
1.0
  9
$DIMTOFL
 70
         0
  9
$DIMTVP
 40
0.0
  9
$DIMTIX
 70
         0
  9
$DIMSOXD
 70
         0
  9
$DIMSAH
 70
         0
  9
$DIMBLK1
  1

  9
$DIMBLK2
  1

  9
$DIMSTYLE
  2
Standard
  9
$DIMCLRD
 70
         0
  9
$DIMCLRE
 70
         0
  9
$DIMCLRT
 70
         0
  9
$DIMTFAC
 40
1.0
  9
$DIMGAP
 40
0.09
  9
$DIMJUST
 70
         0
  9
$DIMSD1
 70
         0
  9
$DIMSD2
 70
         0
  9
$DIMTOLJ
 70
         1
  9
$DIMTZIN
 70
         0
  9
$DIMALTZ
 70
         0
  9
$DIMALTTZ
 70
         0
  9
$DIMUPT
 70
         0
  9
$DIMDEC
 70
         4
  9
$DIMTDEC
 70
         4
  9
$DIMALTU
 70
         2
  9
$DIMALTTD
 70
         2
  9
$DIMTXSTY
  7
Standard
  9
$DIMAUNIT
 70
         0
  9
$DIMADEC
 70
         0
  9
$DIMALTRND
 40
0.0
  9
$DIMAZIN
 70
         0
  9
$DIMDSEP
 70
         0
  9
$DIMATFIT
 70
         3
  9
$DIMFRAC
 70
         0
  9
$DIMLDRBLK
  1

  9
$DIMLUNIT
 70
         2
  9
$DIMLWD
 70
         0
  9
$DIMLWE
 70
         0
  9
$DIMTMOVE
 70
         0
  9
$LUNITS
 70
         2
  9
$LUPREC
 70
         4
  9
$SKETCHINC
 40
0.1
  9
$FILLETRAD
 40
0.0
  9
$AUNITS
 70
         0
  9
$AUPREC
 70
         0
  9
$MENU
  1
acad
  9
$ELEVATION
 40
0.0
  9
$PELEVATION
 40
0.0
  9
$THICKNESS
 40
0.0
  9
$LIMCHECK
 70
         0
  9
$CHAMFERA
 40
0.0
  9
$CHAMFERB
 40
0.0
  9
$CHAMFERC
 40
0.0
  9
$CHAMFERD
 40
0.0
  9
$SKPOLY
 70
         0
  9
$TDCREATE
 40
0.000000000
  9
$TDUCREATE
 40
0.000000000
  9
$TDUPDATE
 40
0.000000000
  9
$TDUUPDATE
 40
0.000000000
  9
$TDINDWG
 40
0.0000000000
  9
$TDUSRTIMER
 40
0.0000000000
  9
$USRTIMER
 70
         1
  9
$ANGBASE
 50
0.0
  9
$ANGDIR
 70
         0
  9
$PDMODE
 70
         0
  9
$PDSIZE
 40
0.0
  9
$PLINEWID
 40
0.0
  9
$SPLFRAME
 70
         0
  9
$SPLINETYPE
 70
         6
  9
$SPLINESEGS
 70
         8
  9
$HANDSEED
  5
1E1
  9
$SURFTAB1
 70
         6
  9
$SURFTAB2
 70
         6
  9
$SURFTYPE
 70
         6
  9
$SURFU
 70
         6
  9
$SURFV
 70
         6
  9
$UCSBASE
  2

  9
$UCSNAME
  2

  9
$UCSORG
 10
0.0
 20
0.0
 30
0.0
  9
$UCSXDIR
 10
1.0
 20
0.0
 30
0.0
  9
$UCSYDIR
 10
0.0
 20
1.0
 30
0.0
  9
$UCSORTHOREF
  2

  9
$UCSORTHOVIEW
 70
         0
  9
$UCSORGTOP
 10
0.0
 20
0.0
 30
0.0
  9
$UCSORGBOTTOM
 10
0.0
 20
0.0
 30
0.0
  9
$UCSORGLEFT
 10
0.0
 20
0.0
 30
0.0
  9
$UCSORGRIGHT
 10
0.0
 20
0.0
 30
0.0
  9
$UCSORGFRONT
 10
0.0
 20
0.0
 30
0.0
  9
$UCSORGBACK
 10
0.0
 20
0.0
 30
0.0
  9
$PUCSBASE
  2

  9
$PUCSNAME
  2

  9
$PUCSORG
 10
0.0
 20
0.0
 30
0.0
  9
$PUCSXDIR
 10
1.0
 20
0.0
 30
0.0
  9
$PUCSYDIR
 10
0.0
 20
1.0
 30
0.0
  9
$PUCSORTHOREF
  2

  9
$PUCSORTHOVIEW
 70
         0
  9
$PUCSORGTOP
 10
0.0
 20
0.0
 30
0.0
  9
$PUCSORGBOTTOM
 10
0.0
 20
0.0
 30
0.0
  9
$PUCSORGLEFT
 10
0.0
 20
0.0
 30
0.0
  9
$PUCSORGRIGHT
 10
0.0
 20
0.0
 30
0.0
  9
$PUCSORGFRONT
 10
0.0
 20
0.0
 30
0.0
  9
$PUCSORGBACK
 10
0.0
 20
0.0
 30
0.0
  9
$USERI1
 70
         0
  9
$USERI2
 70
         0
  9
$USERI3
 70
         0
  9
$USERI4
 70
         0
  9
$USERI5
 70
         0
  9
$USERR1
 40
0.0
  9
$USERR2
 40
0.0
  9
$USERR3
 40
0.0
  9
$USERR4
 40
0.0
  9
$USERR5
 40
0.0
  9
$WORLDVIEW
 70
         1
  9
$SHADEDGE
 70
         3
  9
$SHADEDIF
 70
        70
  9
$TILEMODE
 70
         1
  9
$MAXACTVP
 70
        16
  9
$PINSBASE
 10
0.0
 20
0.0
 30
0.0
  9
$PLIMCHECK
 70
         0
  9
$PEXTMIN
 10
1.0000000000E+20
 20
1.0000000000E+20
 30
1.0000000000E+20
  9
$PEXTMAX
 10
-1.0000000000E+20
 20
-1.0000000000E+20
 30
-1.0000000000E+20
  9
$PLIMMIN
 10
0.0
 20
0.0
  9
$PLIMMAX
 10
12.0
 20
9.0
  9
$UNITMODE
 70
         0
  9
$VISRETAIN
 70
         0
  9
$PLINEGEN
 70
         1
  9
$PSLTSCALE
 70
         0
  9
$TREEDEPTH
 70
      3020
  9
$CMLSTYLE
  2
Standard
  9
$CMLJUST
 70
         0
  9
$CMLSCALE
 40
1.0
  9
$PROXYGRAPHICS
 70
         0
  9
$MEASUREMENT
 70
         1
  9
$CELWEIGHT
370
         0
  9
$ENDCAPS
280
         0
  9
$JOINSTYLE
280
         0
  9
$LWDISPLAY
290
         0
  9
$INSUNITS
 70
         0
  9
$HYPERLINKBASE
  1

  9
$STYLESHEET
  1

  9
$XEDIT
290
         1
  9
$CEPSNTYPE
380
         0
  9
$PSTYLEMODE
290
         1
  9
$FINGERPRINTGUID
  2

  9
$VERSIONGUID
  2

  9
$EXTNAMES
290
         1
  9
$PSVPSCALE
 40
0.0
  0
ENDSEC
  0
SECTION
  2
CLASSES
  0
CLASS
  1
LWPOLYLINE
  2
AcDbPolyline
  3
AutoCAD 2000
 90
        0
280
         0
281
         1
  0
CLASS
  1
IMAGE
  2
AcDbRasterImage
  3
ISM
 90
      127
280
         0
281
         1
  0
CLASS
  1
OLE2FRAME
  2
AcDbOle2Frame
  3
AutoCAD 2000
 90
        0
280
         0
281
         1
  0
CLASS
  1
HATCH
  2
AcDbHatch
  3
AutoCAD 2000
 90
        0
280
         0
281
         1
  0
CLASS
  1
DICTIONARYVAR
  2
AcDbDictionaryVar
  3
AutoCAD 2000
 90
        0
280
         0
281
         0
  0
CLASS
  1
RASTERVARIABLES
  2
AcDbRasterVariables
  3
ISM
 90
        0
280
         0
281
         0
  0
CLASS
  1
IMAGEDEF
  2
AcDbRasterImageDef
  3
ISM
 90
        0
280
         0
281
         0
  0
CLASS
  1
IMAGEDEF_REACTOR
  2
AcDbRasterImageDefReactor
  3
ISM
 90
        1
280
         0
281
         0
  0
CLASS
  1
IDBUFFER
  2
AcDbIdBuffer
  3
AutoCAD 2000
 90
        0
280
         0
281
         0
  0
CLASS
  1
SPATIAL_FILTER
  2
AcDbSpatialFilter
  3
AutoCAD 2000
 90
        0
280
         0
281
         0
  0
CLASS
  1
XRECORD
  2
AcDbXrecord
  3
AutoCAD 2000
 90
        0
280
         0
281
         0
  0
CLASS
  1
SORTENTSTABLE
  2
AcDbSortentsTable
  3
AutoCAD 2000
 90
        0
280
         0
281
         0
  0
CLASS
  1
LAYER_INDEX
  2
AcDbLayerIndex
  3
AutoCAD 2000
 90
        0
280
         0
281
         0
  0
CLASS
  1
SPATIAL_INDEX
  2
AcDbSpatialIndex
  3
AutoCAD 2000
 90
        0
280
         0
281
         0
  0
CLASS
  1
OBJECT_PTR
  2
CAseDLPNTableRecord
  3
"ASE-LPNTableRecord"
 90
        1
280
         0
281
         0
  0
CLASS
  1
LAYOUT
  2
AcDbLayout
  3
AutoCAD 2000
 90
        0
280
         0
281
         0
  0
CLASS
  1
PLOTSETTINGS
  2
AcDbPlotSettings
  3
AutoCAD 2000
 90
        0
280
         0
281
         0
  0
CLASS
  1
ACDBDICTIONARYWDFLT
  2
AcDbDictionaryWithDefault
  3
AutoCAD 2000
 90
        0
280
         0
281
         0
  0
CLASS
  1
ACDBPLACEHOLDER
  2
AcDbPlaceHolder
  3
AutoCAD 2000
 90
        0
280
         0
281
         0
  0
CLASS
  1
VBA_PROJECT
  2
AcDbVbaProject
  3
acadvba
 90
        0
280
         0
281
         0
  0
CLASS
  1
WIPEOUT
  2
AcDbWipeout
  3
WipeOut|AutoCAD Express Tool|expresstools@autodesk.com
 90
      127
280
         0
281
         1
  0
CLASS
  1
WIPEOUTVARIABLES
  2
AcDbWipeoutVariables
  3
WipeOut|AutoCAD Express Tool|expresstools@autodesk.com
 90
        0
280
         0
281
         0
  0
CLASS
  1
RTEXT
  2
RText
  3
RText|AutoCAD Express Tool|expresstools@autodesk.com
 90
        0
280
         0
281
         1
  0
CLASS
  1
ARCALIGNEDTEXT
  2
AcDbArcAlignedText
  3
ATEXT|AutoCAD Express Tool|expresstools@autodesk.com
 90
        0
280
         0
281
         1
  0
ENDSEC
  0
SECTION
  2
TABLES
  0
TABLE
  2
VPORT
  5
7
100
AcDbSymbolTable
 70
         1
  0
VPORT
  5
15
100
AcDbSymbolTableRecord
100
AcDbViewportTableRecord
  2
*ACTIVE
 70
         0
 10
0.0
 20
0.0
 11
1.0
 21
1.0
 12
105.0
 22
148.5
 13
0.0
 23
0.0
 14
1.0
 24
1.0
 15
0.0
 25
0.0
 16
0.0
 26
0.0
 36
1.0
 17
0.0
 27
0.0
 37
0.0
 40
231.2943892345
 41
1.0
 42
50.0
 43
0.0
 44
0.0
 50
0.0
 51
0.0
 71
         0
 72
       100
 73
         1
 74
         1
 75
         0
 76
         0
 77
         0
 78
         0
281
         0
 65
         0
110
0.0
120
0.0
130
0.0
111
1.0
121
0.0
131
0.0
112
0.0
122
1.0
132
0.0
345
0
346
0
 79
         0
146
0.0
  0
ENDTAB
  0
TABLE
  2
LTYPE
  5
4
100
AcDbSymbolTable
 70
        12
  0
LTYPE
  5
11
100
AcDbSymbolTableRecord
100
AcDbLinetypeTableRecord
  2
ByBlock
 70
        64
  3

 72
        65
 73
         0
 40
0.0
  0
LTYPE
  5
12
100
AcDbSymbolTableRecord
100
AcDbLinetypeTableRecord
  2
ByLayer
 70
        64
  3

 72
        65
 73
         0
 40
0.0
  0
LTYPE
  5
13
100
AcDbSymbolTableRecord
100
AcDbLinetypeTableRecord
  2
CONTINUOUS
 70
        64
  3
Solid Line
 72
        65
 73
         0
 40
0.0
  0
LTYPE
  5
24
100
AcDbSymbolTableRecord
100
AcDbLinetypeTableRecord
  2
DOT
 70
        64
  3
. . . . . . . . . . . . . . . . . . . . . . 
 72
        65
 73
         2
 40
0.25
 49
0.0
 74
         0
 49
-0.25
 74
         0
  0
LTYPE
  5
25
100
AcDbSymbolTableRecord
100
AcDbLinetypeTableRecord
  2
HIDDEN
 70
         0
  3
_ _ _ _ _ _ _ _ _ _ _ _ _ _ _ _ _ _ _ _ _ _ _
 72
        65
 73
         2
 40
0.375
 49
0.25
 74
         0
 49
-0.125
 74
         0
  0
LTYPE
  5
26
100
AcDbSymbolTableRecord
100
AcDbLinetypeTableRecord
  2
DASHDOT
 70
         0
  3
__ . __ . __ . __ . __ . __ . __ . __ . __ . __
 72
        65
 73
         4
 40
1.0
 49
0.5
 74
         0
 49
-0.25
 74
         0
 49
0.0
 74
         0
 49
-0.25
 74
         0
  0
LTYPE
  5
27
100
AcDbSymbolTableRecord
100
AcDbLinetypeTableRecord
  2
DIVIDE
 70
         0
  3
__ . . __ . . __ . . __ . . __ . . __ . . __
 72
        65
 73
         6
 40
1.25
 49
0.5
 74
         0
 49
-0.25
 74
         0
 49
0.0
 74
         0
 49
-0.25
 74
         0
 49
0.0
 74
         0
 49
-0.25
 74
         0
  0
LTYPE
  5
28
100
AcDbSymbolTableRecord
100
AcDbLinetypeTableRecord
  2
DASHED
 70
         0
  3
__ __ __ __ __ __ __ __ __ __ __ __ __ __ __
 72
        65
 73
         2
 40
0.75
 49
0.5
 74
         0
 49
-0.25
 74
         0
  0
LTYPE
  5
29
100
AcDbSymbolTableRecord
100
AcDbLinetypeTableRecord
  2
BORDER
 70
         0
  3
__ __ . __ __ . __ __ . __ __ . __ __ .
 72
        65
 73
         6
 40
1.75
 49
0.5
 74
         0
 49
-0.25
 74
         0
 49
0.5
 74
         0
 49
-0.25
 74
         0
 49
0.0
 74
         0
 49
-0.25
 74
         0
  0
LTYPE
  5
2A
100
AcDbSymbolTableRecord
100
AcDbLinetypeTableRecord
  2
CENTER
 70
         0
  3
____ _ ____ _ ____ _ ____ _ ____ _ ____
 72
        65
 73
         4
 40
2.0
 49
1.25
 74
         0
 49
-0.25
 74
         0
 49
0.25
 74
         0
 49
-0.25
 74
         0
  0
LTYPE
  5
2B
100
AcDbSymbolTableRecord
100
AcDbLinetypeTableRecord
  2
DOT2
 70
         0
  3
........................................
 72
        65
 73
         2
 40
0.125
 49
0.0
 74
         0
 49
-0.125
 74
         0
  0
LTYPE
  5
2C
100
AcDbSymbolTableRecord
100
AcDbLinetypeTableRecord
  2
PHANTOM
 70
         0
  3
______  __  __  ______  __  __  ______
 72
        65
 73
         6
 40
2.5
 49
1.25
 74
         0
 49
-0.25
 74
         0
 49
0.25
 74
         0
 49
-0.25
 74
         0
 49
0.25
 74
         0
 49
-0.25
 74
         0
  0
ENDTAB
  0
TABLE
  2
LAYER
  5
2
100
AcDbSymbolTable
 70
        94
  0
LAYER
  5
14
100
AcDbSymbolTableRecord
100
AcDbLayerTableRecord
  2
0
 70
         0
 62
         7
  6
CONTINUOUS
290
         1
370
        -3
390
1D
  0
LAYER
  5
33
100
AcDbSymbolTableRecord
100
AcDbLayerTableRecord
  2
BESCHRIFTUNG
 70
        64
 62
         7
  6
CONTINUOUS
290
         1
370
        25
390
1D
  0
LAYER
  5
34
100
AcDbSymbolTableRecord
100
AcDbLayerTableRecord
  2
SCHRAFFUR
 70
        64
 62
         7
  6
CONTINUOUS
290
         1
370
        25
390
1D
  0
LAYER
  5
35
100
AcDbSymbolTableRecord
100
AcDbLayerTableRecord
  2
MASSTEXTE
 70
        64
 62
       212
  6
CONTINUOUS
290
         1
370
        25
390
1D
  0
LAYER
  5
36
100
AcDbSymbolTableRecord
100
AcDbLayerTableRecord
  2
MASSLINIEN
 70
        64
 62
       172
  6
CONTINUOUS
290
         1
370
        25
390
1D
  0
LAYER
  5
37
100
AcDbSymbolTableRecord
100
AcDbLayerTableRecord
  2
MASSGRENZEN
 70
        64
 62
       172
  6
CONTINUOUS
290
         1
370
        25
390
1D
  0
LAYER
  5
38
100
AcDbSymbolTableRecord
100
AcDbLayerTableRecord
  2
TOLERANZEN
 70
        64
 62
       212
  6
CONTINUOUS
290
         1
370
         0
390
1D
  0
LAYER
  5
39
100
AcDbSymbolTableRecord
100
AcDbLayerTableRecord
  2
BEMASSUNG
 70
        64
 62
         7
  6
CONTINUOUS
290
         1
370
        25
390
1D
  0
LAYER
  5
3A
100
AcDbSymbolTableRecord
100
AcDbLayerTableRecord
  2
HILFSLINIEN
 70
        64
 62
         3
  6
CONTINUOUS
290
         1
370
         0
390
1D
  0
LAYER
  5
3B
100
AcDbSymbolTableRecord
100
AcDbLayerTableRecord
  2
MITTELLINIEN
 70
        64
 62
         5
  6
DASHDOT
290
         1
370
        25
390
1D
  0
LAYER
  5
3C
100
AcDbSymbolTableRecord
100
AcDbLayerTableRecord
  2
BESCHRIFTUNG00
 70
        64
 62
         7
  6
CONTINUOUS
290
         1
370
        25
390
1D
  0
LAYER
  5
3D
100
AcDbSymbolTableRecord
100
AcDbLayerTableRecord
  2
BESCHRIFTUNG0
 70
        64
 62
         7
  6
CONTINUOUS
290
         1
370
        25
390
1D
  0
LAYER
  5
3E
100
AcDbSymbolTableRecord
100
AcDbLayerTableRecord
  2
GEWINDELINIEN
 70
        64
 62
       212
  6
CONTINUOUS
290
         1
370
        25
390
1D
  0
LAYER
  5
3F
100
AcDbSymbolTableRecord
100
AcDbLayerTableRecord
  2
UNSICHTBARE
 70
        64
 62
        92
  6
DASHED
290
         1
370
        25
390
1D
  0
LAYER
  5
40
100
AcDbSymbolTableRecord
100
AcDbLayerTableRecord
  2
VERDECKTE
 70
        64
 62
        92
  6
DASHED
290
         1
370
        25
390
1D
  0
LAYER
  5
41
100
AcDbSymbolTableRecord
100
AcDbLayerTableRecord
  2
LICHTKANTEN
 70
        64
 62
         8
  6
CONTINUOUS
290
         1
370
        25
390
1D
  0
LAYER
  5
42
100
AcDbSymbolTableRecord
100
AcDbLayerTableRecord
  2
SCHNITTVERLAUF
 70
        64
 62
        34
  6
DASHDOT
290
         1
370
        70
390
1D
  0
LAYER
  5
43
100
AcDbSymbolTableRecord
100
AcDbLayerTableRecord
  2
KENNZEICHNUNG
 70
        64
 62
         7
  6
CONTINUOUS
290
         1
370
         0
390
1D
  0
LAYER
  5
44
100
AcDbSymbolTableRecord
100
AcDbLayerTableRecord
  2
PFEILE
 70
        64
 62
         7
  6
CONTINUOUS
290
         1
370
        70
390
1D
  0
LAYER
  5
45
100
AcDbSymbolTableRecord
100
AcDbLayerTableRecord
  2
SCHNITTDARSTELLUNG
 70
        64
 62
         7
  6
CONTINUOUS
290
         1
370
         0
390
1D
  0
LAYER
  5
46
100
AcDbSymbolTableRecord
100
AcDbLayerTableRecord
  2
2501_3P
 70
        64
 62
        30
  6
CONTINUOUS
290
         1
370
         0
390
1D
  0
LAYER
  5
47
100
AcDbSymbolTableRecord
100
AcDbLayerTableRecord
  2
2501_1L
 70
        64
 62
        30
  6
CONTINUOUS
290
         1
370
         0
390
1D
  0
LAYER
  5
48
100
AcDbSymbolTableRecord
100
AcDbLayerTableRecord
  2
2501_2P
 70
        64
 62
        30
  6
CONTINUOUS
290
         1
370
         0
390
1D
  0
LAYER
  5
49
100
AcDbSymbolTableRecord
100
AcDbLayerTableRecord
  2
2501_2T
 70
        64
 62
        14
  6
CONTINUOUS
290
         1
370
         0
390
1D
  0
LAYER
  5
4A
100
AcDbSymbolTableRecord
100
AcDbLayerTableRecord
  2
2501_1R
 70
        64
 62
        14
  6
CONTINUOUS
290
         1
370
         0
390
1D
  0
LAYER
  5
4B
100
AcDbSymbolTableRecord
100
AcDbLayerTableRecord
  2
2501_7P
 70
        64
 62
        30
  6
CONTINUOUS
290
         1
370
         0
390
1D
  0
LAYER
  5
4C
100
AcDbSymbolTableRecord
100
AcDbLayerTableRecord
  2
2501_7T
 70
        64
 62
        14
  6
CONTINUOUS
290
         1
370
         0
390
1D
  0
LAYER
  5
4D
100
AcDbSymbolTableRecord
100
AcDbLayerTableRecord
  2
2501_8P
 70
        64
 62
        30
  6
CONTINUOUS
290
         1
370
         0
390
1D
  0
LAYER
  5
4E
100
AcDbSymbolTableRecord
100
AcDbLayerTableRecord
  2
2501___ ABTRIEB FÜR EINZELHEBEL
 70
        64
 62
         6
  6
DASHDOT
290
         1
370
         0
390
1D
  0
LAYER
  5
4F
100
AcDbSymbolTableRecord
100
AcDbLayerTableRecord
  2
2500_1T
 70
        64
 62
        14
  6
CONTINUOUS
290
         1
370
         0
390
1D
  0
LAYER
  5
50
100
AcDbSymbolTableRecord
100
AcDbLayerTableRecord
  2
2500_1P
 70
        64
 62
        30
  6
CONTINUOUS
290
         1
370
         0
390
1D
  0
LAYER
  5
51
100
AcDbSymbolTableRecord
100
AcDbLayerTableRecord
  2
2500_2T
 70
        64
 62
        14
  6
CONTINUOUS
290
         1
370
         0
390
1D
  0
LAYER
  5
52
100
AcDbSymbolTableRecord
100
AcDbLayerTableRecord
  2
2500_2P
 70
        64
 62
        30
  6
CONTINUOUS
290
         1
370
         0
390
1D
  0
LAYER
  5
53
100
AcDbSymbolTableRecord
100
AcDbLayerTableRecord
  2
2500___ HILFSPFADE FÜR ABTRIEBE
 70
        64
 62
         6
  6
DASHDOT
290
         1
370
         0
390
1D
  0
LAYER
  5
54
100
AcDbSymbolTableRecord
100
AcDbLayerTableRecord
  2
2502_5P
 70
        64
 62
        30
  6
CONTINUOUS
290
         1
370
         0
390
1D
  0
LAYER
  5
55
100
AcDbSymbolTableRecord
100
AcDbLayerTableRecord
  2
2502_5T
 70
        64
 62
        14
  6
CONTINUOUS
290
         1
370
         0
390
1D
  0
LAYER
  5
56
100
AcDbSymbolTableRecord
100
AcDbLayerTableRecord
  2
2502_7P
 70
        64
 62
        30
  6
CONTINUOUS
290
         1
370
         0
390
1D
  0
LAYER
  5
57
100
AcDbSymbolTableRecord
100
AcDbLayerTableRecord
  2
2502_7T
 70
        64
 62
        14
  6
CONTINUOUS
290
         1
370
         0
390
1D
  0
LAYER
  5
58
100
AcDbSymbolTableRecord
100
AcDbLayerTableRecord
  2
2502_9P
 70
        64
 62
        30
  6
CONTINUOUS
290
         1
370
         0
390
1D
  0
LAYER
  5
59
100
AcDbSymbolTableRecord
100
AcDbLayerTableRecord
  2
2502_1P
 70
        64
 62
        30
  6
CONTINUOUS
290
         1
370
         0
390
1D
  0
LAYER
  5
5A
100
AcDbSymbolTableRecord
100
AcDbLayerTableRecord
  2
2502_8P
 70
        64
 62
        30
  6
CONTINUOUS
290
         1
370
         0
390
1D
  0
LAYER
  5
5B
100
AcDbSymbolTableRecord
100
AcDbLayerTableRecord
  2
2502_4L
 70
        64
 62
        30
  6
CONTINUOUS
290
         1
370
         0
390
1D
  0
LAYER
  5
5C
100
AcDbSymbolTableRecord
100
AcDbLayerTableRecord
  2
2502_4R
 70
        64
 62
        14
  6
CONTINUOUS
290
         1
370
         0
390
1D
  0
LAYER
  5
5D
100
AcDbSymbolTableRecord
100
AcDbLayerTableRecord
  2
2502_6T
 70
        64
 62
        14
  6
CONTINUOUS
290
         1
370
         0
390
1D
  0
LAYER
  5
5E
100
AcDbSymbolTableRecord
100
AcDbLayerTableRecord
  2
2502_6P
 70
        64
 62
        30
  6
CONTINUOUS
290
         1
370
         0
390
1D
  0
LAYER
  5
5F
100
AcDbSymbolTableRecord
100
AcDbLayerTableRecord
  2
2502_2T
 70
        64
 62
        14
  6
CONTINUOUS
290
         1
370
         0
390
1D
  0
LAYER
  5
60
100
AcDbSymbolTableRecord
100
AcDbLayerTableRecord
  2
2502_2P
 70
        64
 62
        30
  6
CONTINUOUS
290
         1
370
         0
390
1D
  0
LAYER
  5
61
100
AcDbSymbolTableRecord
100
AcDbLayerTableRecord
  2
2502_59P
 70
        64
 62
        30
  6
CONTINUOUS
290
         1
370
         0
390
1D
  0
LAYER
  5
62
100
AcDbSymbolTableRecord
100
AcDbLayerTableRecord
  2
2502___ ABTRIEB FÜR ZWEI ANLENKUNGEN
 70
        64
 62
         6
  6
DASHDOT
290
         1
370
         0
390
1D
  0
LAYER
  5
63
100
AcDbSymbolTableRecord
100
AcDbLayerTableRecord
  2
2503_6P
 70
        64
 62
        30
  6
CONTINUOUS
290
         1
370
         0
390
1D
  0
LAYER
  5
64
100
AcDbSymbolTableRecord
100
AcDbLayerTableRecord
  2
2503_6T
 70
        64
 62
        14
  6
CONTINUOUS
290
         1
370
         0
390
1D
  0
LAYER
  5
65
100
AcDbSymbolTableRecord
100
AcDbLayerTableRecord
  2
2503_4P
 70
        64
 62
        30
  6
CONTINUOUS
290
         1
370
         0
390
1D
  0
LAYER
  5
66
100
AcDbSymbolTableRecord
100
AcDbLayerTableRecord
  2
2503_4T
 70
        64
 62
        14
  6
CONTINUOUS
290
         1
370
         0
390
1D
  0
LAYER
  5
67
100
AcDbSymbolTableRecord
100
AcDbLayerTableRecord
  2
2503_2P
 70
        64
 62
        30
  6
CONTINUOUS
290
         1
370
         0
390
1D
  0
LAYER
  5
68
100
AcDbSymbolTableRecord
100
AcDbLayerTableRecord
  2
2503_8P
 70
        64
 62
        30
  6
CONTINUOUS
290
         1
370
         0
390
1D
  0
LAYER
  5
69
100
AcDbSymbolTableRecord
100
AcDbLayerTableRecord
  2
2503_3T
 70
        64
 62
        14
  6
CONTINUOUS
290
         1
370
         0
390
1D
  0
LAYER
  5
6A
100
AcDbSymbolTableRecord
100
AcDbLayerTableRecord
  2
2503_3P
 70
        64
 62
        30
  6
CONTINUOUS
290
         1
370
         0
390
1D
  0
LAYER
  5
6B
100
AcDbSymbolTableRecord
100
AcDbLayerTableRecord
  2
2503_1T
 70
        64
 62
        14
  6
CONTINUOUS
290
         1
370
         0
390
1D
  0
LAYER
  5
6C
100
AcDbSymbolTableRecord
100
AcDbLayerTableRecord
  2
2503_1P
 70
        64
 62
        30
  6
CONTINUOUS
290
         1
370
         0
390
1D
  0
LAYER
  5
6D
100
AcDbSymbolTableRecord
100
AcDbLayerTableRecord
  2
2503_5P
 70
        64
 62
        30
  6
CONTINUOUS
290
         1
370
         0
390
1D
  0
LAYER
  5
6E
100
AcDbSymbolTableRecord
100
AcDbLayerTableRecord
  2
2503_5T
 70
        64
 62
        14
  6
CONTINUOUS
290
         1
370
         0
390
1D
  0
LAYER
  5
6F
100
AcDbSymbolTableRecord
100
AcDbLayerTableRecord
  2
2503_7P
 70
        64
 62
        30
  6
CONTINUOUS
290
         1
370
         0
390
1D
  0
LAYER
  5
70
100
AcDbSymbolTableRecord
100
AcDbLayerTableRecord
  2
2503_7T
 70
        64
 62
        14
  6
CONTINUOUS
290
         1
370
         0
390
1D
  0
LAYER
  5
71
100
AcDbSymbolTableRecord
100
AcDbLayerTableRecord
  2
2503_9T
 70
        64
 62
        14
  6
CONTINUOUS
290
         1
370
         0
390
1D
  0
LAYER
  5
72
100
AcDbSymbolTableRecord
100
AcDbLayerTableRecord
  2
2503_9P
 70
        64
 62
        30
  6
CONTINUOUS
290
         1
370
         0
390
1D
  0
LAYER
  5
73
100
AcDbSymbolTableRecord
100
AcDbLayerTableRecord
  2
2503___ ABTRIEB FÜR DREISTELLIGE ANLENKUNG
 70
        64
 62
         6
  6
DASHDOT
290
         1
370
         0
390
1D
  0
LAYER
  5
74
100
AcDbSymbolTableRecord
100
AcDbLayerTableRecord
  2
1088___ VORLAGEN
 70
        64
 62
       230
  6
CONTINUOUS
290
         1
370
        13
390
1D
  0
LAYER
  5
75
100
AcDbSymbolTableRecord
100
AcDbLayerTableRecord
  2
PFADE
 70
        64
 62
        30
  6
CONTINUOUS
290
         1
370
         0
390
1D
  0
LAYER
  5
76
100
AcDbSymbolTableRecord
100
AcDbLayerTableRecord
  2
 2001_2 BODEN
 70
        64
 62
        14
  6
CONTINUOUS
290
         1
370
        18
390
1D
  0
LAYER
  5
77
100
AcDbSymbolTableRecord
100
AcDbLayerTableRecord
  2
 2001_1 RAHMEN
 70
        64
 62
         7
  6
CONTINUOUS
290
         1
370
        18
390
1D
  0
LAYER
  5
78
100
AcDbSymbolTableRecord
100
AcDbLayerTableRecord
  2
2001__ GEBÄUDE
 70
        64
 62
         7
  6
CONTINUOUS
290
         1
370
         0
390
1D
  0
LAYER
  5
79
100
AcDbSymbolTableRecord
100
AcDbLayerTableRecord
  2
2101__ HEBELBANK
 70
        64
 62
         9
  6
CONTINUOUS
290
         1
370
        18
390
1D
  0
LAYER
  5
7A
100
AcDbSymbolTableRecord
100
AcDbLayerTableRecord
  2
2501_1 ABTRIEBRAHMEN
 70
        64
 62
         7
  6
CONTINUOUS
290
         1
370
         0
390
1D
  0
LAYER
  5
7B
100
AcDbSymbolTableRecord
100
AcDbLayerTableRecord
  2
2501_2-4 ROLLEN UMGELEGT
 70
        64
 62
       134
  6
DASHED
290
         1
370
        18
390
1D
  0
LAYER
  5
7C
100
AcDbSymbolTableRecord
100
AcDbLayerTableRecord
  2
2501_2-4 ROLLEN
 70
        64
 62
       134
  6
CONTINUOUS
290
         1
370
        18
390
1D
  0
LAYER
  5
7D
100
AcDbSymbolTableRecord
100
AcDbLayerTableRecord
  2
2501_5 SCHIEBER VERSCHOBEN
 70
        64
 62
       142
  6
DASHED
290
         1
370
        18
390
1D
  0
LAYER
  5
7E
100
AcDbSymbolTableRecord
100
AcDbLayerTableRecord
  2
2501_5 SCHIEBER
 70
        64
 62
       142
  6
CONTINUOUS
290
         1
370
        18
390
1D
  0
LAYER
  5
7F
100
AcDbSymbolTableRecord
100
AcDbLayerTableRecord
  2
2501_10 SCHALTER LINKS_OBEN
 70
        64
 62
       230
  6
DASHED
290
         1
370
        18
390
1D
  0
LAYER
  5
80
100
AcDbSymbolTableRecord
100
AcDbLayerTableRecord
  2
2501_10 SCHALTER
 70
        64
 62
       230
  6
CONTINUOUS
290
         1
370
        18
390
1D
  0
LAYER
  5
81
100
AcDbSymbolTableRecord
100
AcDbLayerTableRecord
  2
2501_6 HEBEL 0_0_22_5 UMGELEGT LI
 70
        64
 62
        30
  6
DASHED
290
         1
370
        18
390
1D
  0
LAYER
  5
82
100
AcDbSymbolTableRecord
100
AcDbLayerTableRecord
  2
2501_6 HEBEL 0_0_22_5 UMGELEGT RE
 70
        64
 62
        30
  6
DASHDOT
290
         1
370
        18
390
1D
  0
LAYER
  5
83
100
AcDbSymbolTableRecord
100
AcDbLayerTableRecord
  2
2501_6 HEBEL 0_0_22_5
 70
        64
 62
        11
  6
CONTINUOUS
290
         1
370
        18
390
1D
  0
LAYER
  5
84
100
AcDbSymbolTableRecord
100
AcDbLayerTableRecord
  2
2501_7 HEBEL 22_5_0_22_5 UMGELEGT LI
 70
        64
 62
        34
  6
DASHED
290
         1
370
        18
390
1D
  0
LAYER
  5
85
100
AcDbSymbolTableRecord
100
AcDbLayerTableRecord
  2
2501_7 HEBEL 22_5_0_22_5 UMGELEGT RE
 70
        64
 62
        14
  6
DASHDOT
290
         1
370
        18
390
1D
  0
LAYER
  5
86
100
AcDbSymbolTableRecord
100
AcDbLayerTableRecord
  2
2501_7 HEBEL 22_5_0_22_5
 70
        64
 62
        14
  6
CONTINUOUS
290
         1
370
        18
390
1D
  0
LAYER
  5
87
100
AcDbSymbolTableRecord
100
AcDbLayerTableRecord
  2
2501_8 HEBEL 22_5_0_0 UMGELEGT LI
 70
        64
 62
        30
  6
DASHED
290
         1
370
        18
390
1D
  0
LAYER
  5
88
100
AcDbSymbolTableRecord
100
AcDbLayerTableRecord
  2
2501_8 HEBEL 22_5_0_0 UMGELEGT RE
 70
        64
 62
        30
  6
DASHDOT
290
         1
370
        18
390
1D
  0
LAYER
  5
89
100
AcDbSymbolTableRecord
100
AcDbLayerTableRecord
  2
2501_8 HEBEL 22_5_0_0
 70
        64
 62
       230
  6
CONTINUOUS
290
         1
370
        18
390
1D
  0
LAYER
  5
8A
100
AcDbSymbolTableRecord
100
AcDbLayerTableRecord
  2
2501_9 HEBEL 22_5_0_-22_5 UMGELEGT LI0
 70
        64
 62
        34
  6
DASHED
290
         1
370
        18
390
1D
  0
LAYER
  5
8B
100
AcDbSymbolTableRecord
100
AcDbLayerTableRecord
  2
2501_9 HEBEL 22_5_0_-22_5 UMGELEGT RE0
 70
        64
 62
        14
  6
DASHDOT
290
         1
370
        18
390
1D
  0
LAYER
  5
8C
100
AcDbSymbolTableRecord
100
AcDbLayerTableRecord
  2
2501_9 HEBEL 22_5_0_-22_5
 70
        64
 62
       190
  6
CONTINUOUS
290
         1
370
        18
390
1D
  0
LAYER
  5
8D
100
AcDbSymbolTableRecord
100
AcDbLayerTableRecord
  2
2501__ ABTRIEB
 70
        64
 62
         9
  6
CONTINUOUS
290
         1
370
        18
390
1D
  0
LAYER
  5
8E
100
AcDbSymbolTableRecord
100
AcDbLayerTableRecord
  2
KONSTRUKTION
 70
        64
 62
         7
  6
CONTINUOUS
290
         1
370
         0
390
1D
  0
LAYER
  5
8F
100
AcDbSymbolTableRecord
100
AcDbLayerTableRecord
  2
STANDARD
 70
        64
 62
         7
  6
CONTINUOUS
290
         1
370
         0
390
1D
  0
ENDTAB
  0
TABLE
  2
STYLE
  5
3
100
AcDbSymbolTable
 70
         7
  0
STYLE
  5
17
100
AcDbSymbolTableRecord
100
AcDbTextStyleTableRecord
  2
Standard
 70
         0
 40
0.0
 41
1.0
 50
0.0
 71
         0
 42
0.0
  3
txt
  4

  0
STYLE
  5
2D
100
AcDbSymbolTableRecord
100
AcDbTextStyleTableRecord
  2
CADdy
 70
         0
 40
0.0
 41
1.0
 50
0.0
 71
         0
 42
3.5
  3
txt.shx
  4

  0
STYLE
  5
2E
100
AcDbSymbolTableRecord
100
AcDbTextStyleTableRecord
  2
Arial
 70
         0
 40
0.0
 41
1.0
 50
0.0
 71
         0
 42
3.5
  3
arial.ttf
  4

1001
ACAD
1000
Arial
1071
       34
  0
STYLE
  5
2F
100
AcDbSymbolTableRecord
100
AcDbTextStyleTableRecord
  2
Isonorm
 70
         0
 40
0.0
 41
1.0
 50
0.0
 71
         0
 42
3.5
  3
txt.shx
  4

  0
STYLE
  5
30
100
AcDbSymbolTableRecord
100
AcDbTextStyleTableRecord
  2
Tahoma
 70
         0
 40
0.0
 41
1.0
 50
0.0
 71
         0
 42
3.5
  3
tahoma.ttf
  4

1001
ACAD
1000
Tahoma
1071
       34
  0
STYLE
  5
31
100
AcDbSymbolTableRecord
100
AcDbTextStyleTableRecord
  2
Microsoft Sans Serif
 70
         0
 40
0.0
 41
1.0
 50
0.0
 71
         0
 42
3.5
  3
micross.ttf
  4

1001
ACAD
1000
Microsoft Sans Serif
1071
       34
  0
STYLE
  5
32
100
AcDbSymbolTableRecord
100
AcDbTextStyleTableRecord
  2
Arial Rounded MT Bold
 70
         0
 40
0.0
 41
1.0
 50
0.0
 71
         0
 42
3.5
  3
txt.shx
  4

  0
ENDTAB
  0
TABLE
  2
VIEW
  5
5
100
AcDbSymbolTable
 70
         0
  0
ENDTAB
  0
TABLE
  2
UCS
  5
6
100
AcDbSymbolTable
 70
         0
  0
ENDTAB
  0
TABLE
  2
APPID
  5
8
100
AcDbSymbolTable
 70
         1
  0
APPID
  5
16
100
AcDbSymbolTableRecord
100
AcDbRegAppTableRecord
  2
ACAD
 70
        64
  0
ENDTAB
  0
TABLE
  2
DIMSTYLE
  5
9
100
AcDbSymbolTable
 70
         1
100
AcDbDimStyleTable
 71
         0
  0
DIMSTYLE
105
18
100
AcDbSymbolTableRecord
100
AcDbDimStyleTableRecord
  2
Standard
 70
         0
  3

  4

 40
1.0
 41
0.18
 42
0.0625
 43
0.38
 44
0.18
 45
0.0
 46
0.0
 47
0.0
 48
0.0
 71
         0
 72
         0
 73
         1
 74
         1
 75
         0
 76
         0
 77
         0
 78
         0
 79
         0
140
0.18
141
0.09
142
0.0
143
25.4
144
1.0
145
0.0
146
1.0
147
0.09
148
0.0
170
         0
171
         2
172
         0
173
         0
174
         0
175
         0
176
         0
177
         0
178
         0
179
         0
271
         4
272
         4
273
         2
274
         2
275
         0
276
         0
277
         2
278
        46
279
         0
280
         0
281
         0
282
         0
283
         1
284
         0
285
         0
286
         0
288
         0
289
         3
340
17
341
0
342
0
343
0
344
0
371
        -2
372
        -2
  0
ENDTAB
  0
TABLE
  2
BLOCK_RECORD
  5
1
100
AcDbSymbolTable
 70
         6
  0
BLOCK_RECORD
  5
A
100
AcDbSymbolTableRecord
100
AcDbBlockTableRecord
  2
*MODEL_SPACE
340
20
  0
BLOCK_RECORD
  5
B
100
AcDbSymbolTableRecord
100
AcDbBlockTableRecord
  2
*PAPER_SPACE
340
21
  0
BLOCK_RECORD
  5
90
100
AcDbSymbolTableRecord
100
AcDbBlockTableRecord
  2
D404577024
340
0
102
{BLKREFS
331
18B
102
}
  0
BLOCK_RECORD
  5
99
100
AcDbSymbolTableRecord
100
AcDbBlockTableRecord
  2
D404576768
340
0
102
{BLKREFS
331
18C
102
}
  0
BLOCK_RECORD
  5
A2
100
AcDbSymbolTableRecord
100
AcDbBlockTableRecord
  2
D404576512
340
0
102
{BLKREFS
331
18D
102
}
  0
BLOCK_RECORD
  5
AB
100
AcDbSymbolTableRecord
100
AcDbBlockTableRecord
  2
D404576256
340
0
102
{BLKREFS
331
18E
102
}
  0
BLOCK_RECORD
  5
B4
100
AcDbSymbolTableRecord
100
AcDbBlockTableRecord
  2
D536433408
340
0
102
{BLKREFS
331
18F
102
}
  0
BLOCK_RECORD
  5
BD
100
AcDbSymbolTableRecord
100
AcDbBlockTableRecord
  2
D536444416
340
0
102
{BLKREFS
331
190
102
}
  0
ENDTAB
  0
ENDSEC
  0
SECTION
  2
BLOCKS
  0
BLOCK
  5
D
100
AcDbEntity
  8
0
390
0
100
AcDbBlockBegin
  2
*MODEL_SPACE
 70
         0
 10
0.0
 20
0.0
 30
0.0
  3
*MODEL_SPACE
  1

  0
ENDBLK
  5
E
100
AcDbEntity
  8
0
390
0
100
AcDbBlockEnd
  0
BLOCK
  5
F
100
AcDbEntity
 67
         1
  8
0
390
0
100
AcDbBlockBegin
  2
*PAPER_SPACE
 70
         0
 10
0.0
 20
0.0
 30
0.0
  3
*PAPER_SPACE
  1

  0
ENDBLK
  5
10
100
AcDbEntity
 67
         1
  8
0
390
0
100
AcDbBlockEnd
  0
BLOCK
  5
91
100
AcDbEntity
  8
BEMASSUNG
390
0
100
AcDbBlockBegin
  2
D404577024
 70
         0
 10
0.0
 20
0.0
 30
0.0
  3
D404577024
  1

  0
LINE
  5
92
100
AcDbEntity
  8
MASSLINIEN
390
0
 62
       172
100
AcDbLine
 10
111.407457349
 20
220.6158352516
 30
0.0
 11
111.407457349
 21
157.6158352535
 31
0.0
  0
LINE
  5
93
100
AcDbEntity
  8
MASSLINIEN
390
0
 62
       172
100
AcDbLine
 10
101.6778133872
 20
220.6158352516
 30
0.0
 11
113.407457349
 21
220.6158352516
 31
0.0
  0
LINE
  5
94
100
AcDbEntity
  8
MASSLINIEN
390
0
 62
       172
100
AcDbLine
 10
101.6778133872
 20
157.6158352535
 30
0.0
 11
113.407457349
 21
157.6158352535
 31
0.0
  0
SOLID
  5
95
100
AcDbEntity
  8
MASSGRENZEN
390
0
100
AcDbTrace
 10
111.407457349
 20
220.6158352516
 30
0.0
 11
111.7990359256
 21
217.6415006675
 31
0.0
 12
111.0158787723
 22
217.6415006675
 32
0.0
 13
111.0158787723
 23
217.6415006675
 33
0.0
  0
SOLID
  5
96
100
AcDbEntity
  8
MASSGRENZEN
390
0
100
AcDbTrace
 10
111.407457349
 20
157.6158352535
 30
0.0
 11
111.0158787723
 21
160.5901698376
 31
0.0
 12
111.7990359256
 22
160.5901698376
 32
0.0
 13
111.7990359256
 23
160.5901698376
 33
0.0
  0
MTEXT
  5
97
100
AcDbEntity
  8
MASSTEXTE
390
0
 62
       212
100
AcDbMText
 10
108.951457349
 20
189.1158352526
 30
0.0
 40
2.0
 41
0.0
 71
         5
 72
         1
  1
\W1.135146;\A1;63
  7
Arial
 11
0.0
 21
1.0
 31
0.0
 73
         0
 44
0.0
  0
ENDBLK
  5
98
100
AcDbEntity
  8
0
390
0
100
AcDbBlockEnd
  0
BLOCK
  5
9A
100
AcDbEntity
  8
BEMASSUNG
390
0
100
AcDbBlockBegin
  2
D404576768
 70
         0
 10
0.0
 20
0.0
 30
0.0
  3
D404576768
  1

  0
LINE
  5
9B
100
AcDbEntity
  8
MASSLINIEN
390
0
 62
       172
100
AcDbLine
 10
75.5407533674
 20
129.5593415079
 30
0.0
 11
75.5407533674
 21
13.0550263439
 31
0.0
  0
LINE
  5
9C
100
AcDbEntity
  8
MASSLINIEN
390
0
 62
       172
100
AcDbLine
 10
52.2243333384
 20
129.5593415079
 30
0.0
 11
77.5407533674
 21
129.5593415079
 31
0.0
  0
LINE
  5
9D
100
AcDbEntity
  8
MASSLINIEN
390
0
 62
       172
100
AcDbLine
 10
52.2243333384
 20
13.0550263439
 30
0.0
 11
77.5407533674
 21
13.0550263439
 31
0.0
  0
SOLID
  5
9E
100
AcDbEntity
  8
MASSGRENZEN
390
0
100
AcDbTrace
 10
75.5407533674
 20
129.5593415079
 30
0.0
 11
75.9323319441
 21
126.5850069238
 31
0.0
 12
75.1491747908
 22
126.5850069238
 32
0.0
 13
75.1491747908
 23
126.5850069238
 33
0.0
  0
SOLID
  5
9F
100
AcDbEntity
  8
MASSGRENZEN
390
0
100
AcDbTrace
 10
75.5407533674
 20
13.0550263439
 30
0.0
 11
75.1491747908
 21
16.029360928
 31
0.0
 12
75.9323319441
 22
16.029360928
 32
0.0
 13
75.9323319441
 23
16.029360928
 33
0.0
  0
MTEXT
  5
A0
100
AcDbEntity
  8
MASSTEXTE
390
0
 62
       212
100
AcDbMText
 10
73.0847533674
 20
71.3071839259
 30
0.0
 40
2.0
 41
0.0
 71
         5
 72
         1
  1
\W1.135137;\A1;116.5
  7
Arial
 11
0.0
 21
1.0
 31
0.0
 73
         0
 44
0.0
  0
ENDBLK
  5
A1
100
AcDbEntity
  8
0
390
0
100
AcDbBlockEnd
  0
BLOCK
  5
A3
100
AcDbEntity
  8
BEMASSUNG
390
0
100
AcDbBlockBegin
  2
D404576512
 70
         0
 10
0.0
 20
0.0
 30
0.0
  3
D404576512
  1

  0
LINE
  5
A4
100
AcDbEntity
  8
MASSLINIEN
390
0
 62
       172
100
AcDbLine
 10
134.2201384275
 20
140.7132538244
 30
0.0
 11
134.2201384275
 21
38.2089386604
 31
0.0
  0
LINE
  5
A5
100
AcDbEntity
  8
MASSLINIEN
390
0
 62
       172
100
AcDbLine
 10
125.4885915505
 20
140.7132538244
 30
0.0
 11
136.2201384275
 21
140.7132538244
 31
0.0
  0
LINE
  5
A6
100
AcDbEntity
  8
MASSLINIEN
390
0
 62
       172
100
AcDbLine
 10
122.5885915505
 20
38.2089386604
 30
0.0
 11
136.2201384275
 21
38.2089386604
 31
0.0
  0
SOLID
  5
A7
100
AcDbEntity
  8
MASSGRENZEN
390
0
100
AcDbTrace
 10
134.2201384275
 20
140.7132538244
 30
0.0
 11
134.6117170042
 21
137.7389192403
 31
0.0
 12
133.8285598509
 22
137.7389192403
 32
0.0
 13
133.8285598509
 23
137.7389192403
 33
0.0
  0
SOLID
  5
A8
100
AcDbEntity
  8
MASSGRENZEN
390
0
100
AcDbTrace
 10
134.2201384275
 20
38.2089386604
 30
0.0
 11
133.8285598509
 21
41.1832732445
 31
0.0
 12
134.6117170042
 22
41.1832732445
 32
0.0
 13
134.6117170042
 23
41.1832732445
 33
0.0
  0
MTEXT
  5
A9
100
AcDbEntity
  8
MASSTEXTE
390
0
 62
       212
100
AcDbMText
 10
131.7641384275
 20
89.4610962424
 30
0.0
 40
2.0
 41
0.0
 71
         5
 72
         1
  1
\W1.135137;\A1;102.5
  7
Arial
 11
0.0
 21
1.0
 31
0.0
 73
         0
 44
0.0
  0
ENDBLK
  5
AA
100
AcDbEntity
  8
0
390
0
100
AcDbBlockEnd
  0
BLOCK
  5
AC
100
AcDbEntity
  8
BEMASSUNG
390
0
100
AcDbBlockBegin
  2
D404576256
 70
         0
 10
0.0
 20
0.0
 30
0.0
  3
D404576256
  1

  0
LINE
  5
AD
100
AcDbEntity
  8
MASSLINIEN
390
0
 62
       172
100
AcDbLine
 10
157.6537493701
 20
89.4763060022
 30
0.0
 11
197.6537493701
 21
89.4763060022
 31
0.0
  0
LINE
  5
AE
100
AcDbEntity
  8
MASSLINIEN
390
0
 62
       172
100
AcDbLine
 10
157.6537493701
 20
114.7600901322
 30
0.0
 11
157.6537493701
 21
87.4763060022
 31
0.0
  0
LINE
  5
AF
100
AcDbEntity
  8
MASSLINIEN
390
0
 62
       172
100
AcDbLine
 10
197.6537493701
 20
114.7600901322
 30
0.0
 11
197.6537493701
 21
87.4763060022
 31
0.0
  0
SOLID
  5
B0
100
AcDbEntity
  8
MASSGRENZEN
390
0
100
AcDbTrace
 10
157.6537493701
 20
89.4763060022
 30
0.0
 11
160.6280839542
 21
89.8678845789
 31
0.0
 12
160.6280839542
 22
89.0847274256
 32
0.0
 13
160.6280839542
 23
89.0847274256
 33
0.0
  0
SOLID
  5
B1
100
AcDbEntity
  8
MASSGRENZEN
390
0
100
AcDbTrace
 10
197.6537493701
 20
89.4763060022
 30
0.0
 11
194.679414786
 21
89.0847274256
 31
0.0
 12
194.679414786
 22
89.8678845789
 32
0.0
 13
194.679414786
 23
89.8678845789
 33
0.0
  0
MTEXT
  5
B2
100
AcDbEntity
  8
MASSTEXTE
390
0
 62
       212
100
AcDbMText
 10
177.6537493701
 20
91.9323060022
 30
0.0
 40
2.0
 41
0.0
 71
         5
 72
         1
  1
\W1.135145;\A1;40
  7
Arial
 73
         0
 44
0.0
  0
ENDBLK
  5
B3
100
AcDbEntity
  8
0
390
0
100
AcDbBlockEnd
  0
BLOCK
  5
B5
100
AcDbEntity
  8
BEMASSUNG
390
0
100
AcDbBlockBegin
  2
D536433408
 70
         0
 10
0.0
 20
0.0
 30
0.0
  3
D536433408
  1

  0
LINE
  5
B6
100
AcDbEntity
  8
MASSLINIEN
390
0
 62
       172
100
AcDbLine
 10
145.4829676158
 20
118.2600901322
 30
0.0
 11
145.4829676158
 21
98.2610600133
 31
0.0
  0
LINE
  5
B7
100
AcDbEntity
  8
MASSLINIEN
390
0
 62
       172
100
AcDbLine
 10
157.6537493701
 20
118.2600901322
 30
0.0
 11
143.4829676158
 21
118.2600901322
 31
0.0
  0
LINE
  5
B8
100
AcDbEntity
  8
MASSLINIEN
390
0
 62
       172
100
AcDbLine
 10
157.6537493701
 20
98.2610600133
 30
0.0
 11
143.4829676158
 21
98.2610600133
 31
0.0
  0
SOLID
  5
B9
100
AcDbEntity
  8
MASSGRENZEN
390
0
100
AcDbTrace
 10
145.4829676158
 20
118.2600901322
 30
0.0
 11
145.8745461924
 21
115.285755548
 31
0.0
 12
145.0913890391
 22
115.285755548
 32
0.0
 13
145.0913890391
 23
115.285755548
 33
0.0
  0
SOLID
  5
BA
100
AcDbEntity
  8
MASSGRENZEN
390
0
100
AcDbTrace
 10
145.4829676158
 20
98.2610600133
 30
0.0
 11
145.0913890391
 21
101.2353945974
 31
0.0
 12
145.8745461924
 22
101.2353945974
 32
0.0
 13
145.8745461924
 23
101.2353945974
 33
0.0
  0
MTEXT
  5
BB
100
AcDbEntity
  8
MASSTEXTE
390
0
 62
       212
100
AcDbMText
 10
143.0269676158
 20
108.2605750727
 30
0.0
 40
2.0
 41
0.0
 71
         5
 72
         1
  1
\W1.135145;\A1;20
  7
Arial
 11
0.0
 21
1.0
 31
0.0
 73
         0
 44
0.0
  0
ENDBLK
  5
BC
100
AcDbEntity
  8
0
390
0
100
AcDbBlockEnd
  0
BLOCK
  5
BE
100
AcDbEntity
  8
BEMASSUNG
390
0
100
AcDbBlockBegin
  2
D536444416
 70
         0
 10
0.0
 20
0.0
 30
0.0
  3
D536444416
  1

  0
LINE
  5
BF
100
AcDbEntity
  8
MASSLINIEN
390
0
 62
       172
100
AcDbLine
 10
31.6778133872
 20
151.8704494382
 30
0.0
 11
81.6778133872
 21
151.8704494382
 31
0.0
  0
LINE
  5
C0
100
AcDbEntity
  8
MASSLINIEN
390
0
 62
       172
100
AcDbLine
 10
31.6778133872
 20
221.1158352516
 30
0.0
 11
31.6778133872
 21
149.8704494382
 31
0.0
  0
LINE
  5
C1
100
AcDbEntity
  8
MASSLINIEN
390
0
 62
       172
100
AcDbLine
 10
81.6778133872
 20
221.1158352516
 30
0.0
 11
81.6778133872
 21
149.8704494382
 31
0.0
  0
SOLID
  5
C2
100
AcDbEntity
  8
MASSGRENZEN
390
0
100
AcDbTrace
 10
31.6778133872
 20
151.8704494382
 30
0.0
 11
34.6521479713
 21
152.2620280149
 31
0.0
 12
34.6521479713
 22
151.4788708615
 32
0.0
 13
34.6521479713
 23
151.4788708615
 33
0.0
  0
SOLID
  5
C3
100
AcDbEntity
  8
MASSGRENZEN
390
0
100
AcDbTrace
 10
81.6778133872
 20
151.8704494382
 30
0.0
 11
78.7034788031
 21
151.4788708615
 31
0.0
 12
78.7034788031
 22
152.2620280149
 32
0.0
 13
78.7034788031
 23
152.2620280149
 33
0.0
  0
MTEXT
  5
C4
100
AcDbEntity
  8
MASSTEXTE
390
0
 62
       212
100
AcDbMText
 10
56.6778133872
 20
154.3264494382
 30
0.0
 40
2.0
 41
0.0
 71
         5
 72
         1
  1
\W1.135145;\A1;50
  7
Arial
 73
         0
 44
0.0
  0
ENDBLK
  5
C5
100
AcDbEntity
  8
0
390
0
100
AcDbBlockEnd
  0
ENDSEC
  0
SECTION
  2
ENTITIES
  0
TEXT
  5
C6
100
AcDbEntity
  8
BESCHRIFTUNG
390
0
100
AcDbText
 10
129.6929117117
 20
6.9230888889
 30
0.0
 40
3.3
  1
2501 Pv Abtrieb für Einzelhebel
 41
1.0318212781
  7
Arial
 11
129.6929117117
 21
10.2230888889
 31
0.0
100
AcDbText
 73
         3
  0
TEXT
  5
C7
100
AcDbEntity
  8
BESCHRIFTUNG
390
0
100
AcDbText
 10
129.6929117117
 20
29.3230888889
 30
0.0
 40
3.3
  1
2026-05-30
 41
1.0318366145
  7
Arial
 11
129.6929117117
 21
32.6230888889
 31
0.0
100
AcDbText
 73
         3
  0
MTEXT
  5
C8
100
AcDbEntity
  8
2501___ ABTRIEB FÜR EINZELHEBEL
390
0
100
AcDbMText
 10
24.2570311532
 20
141.479274387
 30
0.0
 40
2.5
 41
0.0
 71
         5
 72
         1
  1
\W1.135103;\L2501.1L,R\P15x15x2
  7
Arial
 73
         1
 44
0.66
  0
MTEXT
  5
C9
100
AcDbEntity
  8
2501_1L
390
0
100
AcDbMText
 10
28.7947496917
 20
126.3154171533
 30
0.0
 40
2.0
 41
0.0
 71
         7
 72
         1
  1
\W1.135084;M15x15x2 \PT2 O2 F150\PB-0.3    D1.6\PI1.2 P4 U20
  7
Arial
 73
         1
 44
0.66
  0
MTEXT
  5
CA
100
AcDbEntity
  8
2501___ ABTRIEB FÜR EINZELHEBEL
390
0
100
AcDbMText
 10
27.6761663048
 20
70.3261700929
 30
0.0
 40
2.0
 41
0.0
 71
         5
 72
         1
  1
\W1.135145;>2501.1L\PM15x15x2\PT2 O2
  7
Arial
 11
1.0
 21
0.0
 31
0.0
 73
         1
 44
0.66
  0
CIRCLE
  5
CB
100
AcDbEntity
  8
2501_1R
390
0
100
AcDbCircle
 10
59.2243333384
 20
106.1791036694
 30
0.0
 40
3.25
  0
LINE
  5
CC
100
AcDbEntity
  8
2501_1 ABTRIEBRAHMEN
390
0
100
AcDbLine
 10
67.2243333384
 20
78.5740601337
 30
0.0
 11
63.2243333384
 21
78.5740601337
 31
0.0
  0
LINE
  5
CD
100
AcDbEntity
  8
2501_1 ABTRIEBRAHMEN
390
0
100
AcDbLine
 10
67.2243333384
 20
29.5740601337
 30
0.0
 11
63.2243333384
 21
29.5740601337
 31
0.0
  0
LINE
  5
CE
100
AcDbEntity
  8
2501_1 ABTRIEBRAHMEN
370
        18
390
0
100
AcDbLine
 10
67.2243333384
 20
14.0650263439
 30
0.0
 11
52.2243333384
 21
14.0650263439
 31
0.0
  0
LINE
  5
CF
100
AcDbEntity
  8
2501_1 ABTRIEBRAHMEN
390
0
100
AcDbLine
 10
67.2243333384
 20
14.0750263439
 30
0.0
 11
67.2243333384
 21
29.5740601337
 31
0.0
  0
LINE
  5
D0
100
AcDbEntity
  8
2501_1 ABTRIEBRAHMEN
370
        18
390
0
100
AcDbLine
 10
67.2243333384
 20
128.5593415079
 30
0.0
 11
52.2243333384
 21
128.5593415079
 31
0.0
  0
LINE
  5
D1
100
AcDbEntity
  8
2501_1 ABTRIEBRAHMEN
390
0
  6
DASHED
100
AcDbLine
 10
54.2243333384
 20
14.0750263439
 30
0.0
 11
54.2243333384
 21
128.5693415079
 31
0.0
  0
LINE
  5
D2
100
AcDbEntity
  8
2501_1 ABTRIEBRAHMEN
390
0
100
AcDbLine
 10
63.2243333384
 20
29.5740601337
 30
0.0
 11
63.2243333384
 21
78.5740601337
 31
0.0
  0
LINE
  5
D3
100
AcDbEntity
  8
2501_1 ABTRIEBRAHMEN
390
0
100
AcDbLine
 10
67.2243333384
 20
78.5740601337
 30
0.0
 11
67.2243333384
 21
128.5593415079
 31
0.0
  0
CIRCLE
  5
D4
100
AcDbEntity
  8
2501_1R
390
0
100
AcDbCircle
 10
59.2243333384
 20
91.1791036694
 30
0.0
 40
3.25
  0
CIRCLE
  5
D5
100
AcDbEntity
  8
2501_1R
390
0
100
AcDbCircle
 10
60.7243333384
 20
20.5750263439
 30
0.0
 40
1.25
  0
CIRCLE
  5
D6
100
AcDbEntity
  8
2501_1R
390
0
100
AcDbCircle
 10
60.7243333384
 20
122.0693415079
 30
0.0
 40
1.25
  0
MTEXT
  5
D7
100
AcDbEntity
  8
2501___ ABTRIEB FÜR EINZELHEBEL
390
0
100
AcDbMText
 10
41.4344509042
 20
283.1174059544
 30
0.0
 40
3.0
 41
0.0
 71
         1
 72
         1
  1
\W0.972828;0\P0\P0\P0\P0\P0\P0\P
  7
Arial
 73
         1
 44
0.66
  0
MTEXT
  5
D8
100
AcDbEntity
  8
2501___ ABTRIEB FÜR EINZELHEBEL
390
0
100
AcDbMText
 10
21.1844509042
 20
283.1174059544
 30
0.0
 40
3.0
 41
0.0
 71
         1
 72
         1
  1
\W1.135138;2501.1\P2501.2/5\P2501.3\P2501.4/4\P2501.5\P2501.7/5\P2501.8\P\P2501.51\P2501.52\P2501.53\P2501.54\P2501.55\P2501.56\P2501.57
  7
Arial
 73
         1
 44
0.66
  0
CIRCLE
  5
D9
100
AcDbEntity
  8
UNSICHTBARE
390
0
100
AcDbCircle
 10
44.2243333384
 20
114.6119999397
 30
0.0
 40
2.75
  0
LINE
  5
DA
100
AcDbEntity
  8
MITTELLINIEN
390
0
100
AcDbLine
 10
36.4743333384
 20
114.6119999397
 30
0.0
 11
51.9743333384
 21
114.6119999397
 31
0.0
  0
LINE
  5
DB
100
AcDbEntity
  8
MITTELLINIEN
390
0
100
AcDbLine
 10
44.2243333384
 20
106.8619999397
 30
0.0
 11
44.2243333384
 21
122.3619999397
 31
0.0
  0
LINE
  5
DC
100
AcDbEntity
  8
UNSICHTBARE
390
0
100
AcDbLine
 10
45.8860342742
 20
112.3846135789
 30
0.0
 11
42.0383076727
 21
116.2323401804
 31
0.0
  0
LINE
  5
DD
100
AcDbEntity
  8
UNSICHTBARE
390
0
100
AcDbLine
 10
46.4517194434
 20
112.9502991947
 30
0.0
 11
42.6039928419
 21
116.7980257962
 31
0.0
  0
CIRCLE
  5
DE
100
AcDbEntity
  8
UNSICHTBARE
390
0
100
AcDbCircle
 10
44.2243333384
 20
28.0323679121
 30
0.0
 40
2.75
  0
LINE
  5
DF
100
AcDbEntity
  8
MITTELLINIEN
390
0
100
AcDbLine
 10
36.4743333384
 20
28.0323679121
 30
0.0
 11
51.9743333384
 21
28.0323679121
 31
0.0
  0
LINE
  5
E0
100
AcDbEntity
  8
MITTELLINIEN
390
0
100
AcDbLine
 10
44.2243333384
 20
35.7823679121
 30
0.0
 11
44.2243333384
 21
20.2823679121
 31
0.0
  0
LINE
  5
E1
100
AcDbEntity
  8
UNSICHTBARE
390
0
100
AcDbLine
 10
45.8860342742
 20
30.2597542728
 30
0.0
 11
42.0383076727
 21
26.4120276713
 31
0.0
  0
LINE
  5
E2
100
AcDbEntity
  8
UNSICHTBARE
390
0
100
AcDbLine
 10
46.4517194434
 20
29.6940686571
 30
0.0
 11
42.6039928419
 21
25.8463420556
 31
0.0
  0
CIRCLE
  5
E3
100
AcDbEntity
  8
2501_1L
390
0
100
AcDbCircle
 10
40.2243333384
 20
54.0740601337
 30
0.0
 40
1.5
  0
LINE
  5
E4
100
AcDbEntity
  8
2501_1 ABTRIEBRAHMEN
370
        18
390
0
100
AcDbLine
 10
52.2243333384
 20
14.0650263439
 30
0.0
 11
47.2243333384
 21
14.0650263439
 31
0.0
  0
LINE
  5
E5
100
AcDbEntity
  8
2501_1 ABTRIEBRAHMEN
370
        18
390
0
100
AcDbLine
 10
52.2243333384
 20
128.5593415079
 30
0.0
 11
47.2243333384
 21
128.5593415079
 31
0.0
  0
LINE
  5
E6
100
AcDbEntity
  8
2501_1 ABTRIEBRAHMEN
390
0
100
AcDbLine
 10
37.2243333384
 20
22.0750263439
 30
0.0
 11
37.2243333384
 21
120.5693415079
 31
0.0
  0
LINE
  5
E7
100
AcDbEntity
  8
2501_1 ABTRIEBRAHMEN
390
0
  6
DASHED
100
AcDbLine
 10
50.2243333384
 20
14.0750263439
 30
0.0
 11
50.2243333384
 21
128.5593415079
 31
0.0
  0
LINE
  5
E8
100
AcDbEntity
  8
2501_1 ABTRIEBRAHMEN
390
0
100
AcDbLine
 10
52.2243333384
 20
14.0750263439
 30
0.0
 11
52.2243333384
 21
128.5593415079
 31
0.0
  0
LINE
  5
E9
100
AcDbEntity
  8
2501_1 ABTRIEBRAHMEN
390
0
100
AcDbLine
 10
52.2243333384
 20
78.5740601337
 30
0.0
 11
50.2243333384
 21
78.5740601337
 31
0.0
  0
LINE
  5
EA
100
AcDbEntity
  8
2501_1 ABTRIEBRAHMEN
390
0
100
AcDbLine
 10
52.2243333384
 20
29.5740601337
 30
0.0
 11
50.2243333384
 21
29.5740601337
 31
0.0
  0
CIRCLE
  5
EB
100
AcDbEntity
  8
2501_1L
390
0
100
AcDbCircle
 10
47.2243333384
 20
80.0750263439
 30
0.0
 40
1.25
  0
CIRCLE
  5
EC
100
AcDbEntity
  8
2501_2P
390
0
100
AcDbCircle
 10
61.7459442471
 20
169.2521988888
 30
0.0
 40
1.25
  0
CIRCLE
  5
ED
100
AcDbEntity
  8
2501_2P
390
0
100
AcDbCircle
 10
56.6778133872
 20
166.6158352524
 30
0.0
 40
1.75
  0
CIRCLE
  5
EE
100
AcDbEntity
  8
2501_2P
390
0
100
AcDbCircle
 10
56.6778133872
 20
189.1158352524
 30
0.0
 40
1.25
  0
CIRCLE
  5
EF
100
AcDbEntity
  8
2501_2-4 ROLLEN
390
0
  6
DASHED
100
AcDbCircle
 10
56.6778133872
 20
189.1158352524
 30
0.0
 40
23.5
  0
CIRCLE
  5
F0
100
AcDbEntity
  8
2501_2-4 ROLLEN
390
0
100
AcDbCircle
 10
56.6778133872
 20
189.1158352524
 30
0.0
 40
24.5
  0
CIRCLE
  5
F1
100
AcDbEntity
  8
2501_2-4 ROLLEN
390
0
100
AcDbCircle
 10
159.4436111334
 20
187.9537841244
 30
0.0
 40
14.5
  0
CIRCLE
  5
F2
100
AcDbEntity
  8
2501_2-4 ROLLEN
390
0
100
AcDbCircle
 10
159.4436111334
 20
187.9537841244
 30
0.0
 40
16.5
  0
CIRCLE
  5
F3
100
AcDbEntity
  8
2501_2-4 ROLLEN
390
0
  6
DASHED
100
AcDbCircle
 10
156.6778133872
 20
189.1158352524
 30
0.0
 40
23.5
  0
CIRCLE
  5
F4
100
AcDbEntity
  8
2501_2-4 ROLLEN
390
0
100
AcDbCircle
 10
156.6778133872
 20
189.1158352524
 30
0.0
 40
24.5
  0
CIRCLE
  5
F5
100
AcDbEntity
  8
2501_2-4 ROLLEN
390
0
100
AcDbCircle
 10
53.6778133872
 20
189.1158352524
 30
0.0
 40
16.5
  0
CIRCLE
  5
F6
100
AcDbEntity
  8
2501_2-4 ROLLEN
390
0
100
AcDbCircle
 10
53.6778133872
 20
189.1158352524
 30
0.0
 40
14.5
  0
ARC
  5
F7
100
AcDbEntity
  8
2501_5 SCHIEBER
390
0
100
AcDbCircle
 10
116.0067433094
 20
129.7423076886
 30
0.0
 40
1.5
100
AcDbArc
 50
0.0
 51
180.0
  0
ARC
  5
F8
100
AcDbEntity
  8
2501_5 SCHIEBER
390
0
100
AcDbCircle
 10
121.9885915505
 20
53.1662802286
 30
0.0
 40
1.6
100
AcDbArc
 50
0.0
 51
180.0
  0
ARC
  5
F9
100
AcDbEntity
  8
2501_5 SCHIEBER
390
0
100
AcDbCircle
 10
121.9885915505
 20
125.7459122562
 30
0.0
 40
1.6
100
AcDbArc
 50
180.0
 51
360.0
  0
LINE
  5
FA
100
AcDbEntity
  8
2501_5 SCHIEBER
390
0
100
AcDbLine
 10
125.4885915505
 20
39.2089386604
 30
0.0
 11
125.4885915505
 21
139.7032538244
 31
0.0
  0
LINE
  5
FB
100
AcDbEntity
  8
2501_5 SCHIEBER
390
0
100
AcDbLine
 10
110.4885915505
 20
39.2089386604
 30
0.0
 11
110.4885915505
 21
139.7032538244
 31
0.0
  0
LINE
  5
FC
100
AcDbEntity
  8
2501_5 SCHIEBER
390
0
100
AcDbLine
 10
123.5885915505
 20
125.7459122562
 30
0.0
 11
123.5885915505
 21
139.7032538244
 31
0.0
  0
LINE
  5
FD
100
AcDbEntity
  8
2501_5 SCHIEBER
390
0
100
AcDbLine
 10
120.3885915505
 20
125.7459122562
 30
0.0
 11
120.3885915505
 21
139.7032538244
 31
0.0
  0
LINE
  5
FE
100
AcDbEntity
  8
2501_5 SCHIEBER
390
0
100
AcDbLine
 10
120.3885915505
 20
139.7032538244
 30
0.0
 11
110.4885915505
 21
139.7032538244
 31
0.0
  0
LINE
  5
FF
100
AcDbEntity
  8
2501_5 SCHIEBER
390
0
100
AcDbLine
 10
123.5885915505
 20
139.7032538244
 30
0.0
 11
125.4885915505
 21
139.7032538244
 31
0.0
  0
LINE
  5
100
100
AcDbEntity
  8
2501_5 SCHIEBER
390
0
100
AcDbLine
 10
120.3885915505
 20
53.1662802286
 30
0.0
 11
120.3885915505
 21
39.2089386604
 31
0.0
  0
LINE
  5
101
100
AcDbEntity
  8
2501_5 SCHIEBER
390
0
100
AcDbLine
 10
120.3885915505
 20
39.2089386604
 30
0.0
 11
110.4885915505
 21
39.2089386604
 31
0.0
  0
LINE
  5
102
100
AcDbEntity
  8
2501_5 SCHIEBER
390
0
100
AcDbLine
 10
123.5885915505
 20
39.2089386604
 30
0.0
 11
125.4885915505
 21
39.2089386604
 31
0.0
  0
LINE
  5
103
100
AcDbEntity
  8
2501_5 SCHIEBER
390
0
100
AcDbLine
 10
123.5885915505
 20
53.1662802286
 30
0.0
 11
123.5885915505
 21
39.2089386604
 31
0.0
  0
LINE
  5
104
100
AcDbEntity
  8
2501_5 SCHIEBER
390
0
100
AcDbLine
 10
117.5067433094
 20
129.7423076886
 30
0.0
 11
117.5067433094
 21
103.8801197156
 31
0.0
  0
LINE
  5
105
100
AcDbEntity
  8
2501_5 SCHIEBER
390
0
100
AcDbLine
 10
114.5067433094
 20
129.7423076886
 30
0.0
 11
114.5067433094
 21
103.8801197156
 31
0.0
  0
ARC
  5
106
100
AcDbEntity
  8
2501_7 HEBEL 22_5_0_22_5
390
0
100
AcDbCircle
 10
180.925753423
 20
102.2410600133
 30
0.0
 40
2.5
100
AcDbArc
 50
238.3024853999
 51
315.6737884787
  0
ARC
  5
107
100
AcDbEntity
  8
2501_7 HEBEL 22_5_0_22_5
390
0
100
AcDbCircle
 10
193.1537493701
 20
114.7600901322
 30
0.0
 40
2.5
100
AcDbArc
 50
315.6737884787
 51
450.0
  0
ARC
  5
108
100
AcDbEntity
  8
2501_7 HEBEL 22_5_0_22_5
390
0
100
AcDbCircle
 10
160.6537493701
 20
114.7600901322
 30
0.0
 40
2.5
100
AcDbArc
 50
90.0
 51
238.3024853999
  0
CIRCLE
  5
109
100
AcDbEntity
  8
2501_8P
390
0
100
AcDbCircle
 10
171.1537493701
 20
114.7600901322
 30
0.0
 40
1.25
  0
CIRCLE
  5
10A
100
AcDbEntity
  8
2501_8P
390
0
100
AcDbCircle
 10
180.925753423
 20
102.2410600133
 30
0.0
 40
1.25
  0
CIRCLE
  5
10B
100
AcDbEntity
  8
2501_8P
390
0
100
AcDbCircle
 10
193.1537493701
 20
114.7600901322
 30
0.0
 40
1.25
  0
CIRCLE
  5
10C
100
AcDbEntity
  8
2501_8P
390
0
100
AcDbCircle
 10
160.6537493701
 20
114.7600901322
 30
0.0
 40
1.25
  0
LINE
  5
10D
100
AcDbEntity
  8
2501_7 HEBEL 22_5_0_22_5
390
0
100
AcDbLine
 10
194.9421822442
 20
113.0132335683
 30
0.0
 11
182.7141862971
 21
100.4942034494
 31
0.0
  0
LINE
  5
10E
100
AcDbEntity
  8
2501_7 HEBEL 22_5_0_22_5
390
0
100
AcDbLine
 10
159.3401625108
 20
112.6330053753
 30
0.0
 11
179.6121665636
 21
100.1139752564
 31
0.0
  0
LINE
  5
10F
100
AcDbEntity
  8
2501_7 HEBEL 22_5_0_22_5
390
0
100
AcDbLine
 10
193.1537493701
 20
117.2600901322
 30
0.0
 11
160.6537493701
 21
117.2600901322
 31
0.0
  0
MTEXT
  5
110
100
AcDbEntity
  8
2501___ ABTRIEB FÜR EINZELHEBEL
390
0
100
AcDbMText
 10
90.9439608175
 20
141.3276374679
 30
0.0
 40
2.5
 41
0.0
 71
         5
 72
         1
  1
\W1.135098;\L2501.3P\P15x2
  7
Arial
 73
         1
 44
0.66
  0
MTEXT
  5
111
100
AcDbEntity
  8
2501___ ABTRIEB FÜR EINZELHEBEL
390
0
100
AcDbMText
 10
160.9379121425
 20
131.1242986347
 30
0.0
 40
2.5
 41
0.0
 71
         5
 72
         1
  1
\W1.135098;\L2501.8P\P40+x2
  7
Arial
 73
         1
 44
0.66
  0
MTEXT
  5
112
100
AcDbEntity
  8
2501___ ABTRIEB FÜR EINZELHEBEL
390
0
100
AcDbMText
 10
156.755934004
 20
219.3725191249
 30
0.0
 40
2.5
 41
0.0
 71
         5
 72
         1
  1
\W1.135094;\L2501.7P,T\P50+x5
  7
Arial
 73
         1
 44
0.66
  0
MTEXT
  5
113
100
AcDbEntity
  8
2501___ ABTRIEB FÜR EINZELHEBEL
390
0
100
AcDbMText
 10
57.327675577
 20
219.7938253047
 30
0.0
 40
2.5
 41
0.0
 71
         5
 72
         1
  1
\W1.135094;\L2501.2P,T\P50+x5
  7
Arial
 73
         1
 44
0.66
  0
LINE
  5
114
100
AcDbEntity
  8
MITTELLINIEN
390
0
100
AcDbLine
 10
37.2243333384
 20
9.0750263439
 30
0.0
 11
37.2243333384
 21
133.5693415079
 31
0.0
  0
LINE
  5
115
100
AcDbEntity
  8
MITTELLINIEN
390
0
100
AcDbLine
 10
67.2243333384
 20
9.0750263439
 30
0.0
 11
67.2243333384
 21
133.5593415079
 31
0.0
  0
LINE
  5
116
100
AcDbEntity
  8
MITTELLINIEN
390
0
100
AcDbLine
 10
157.6537493701
 20
119.7600901322
 30
0.0
 11
157.6537493701
 21
92.6829006754
 31
0.0
  0
LINE
  5
117
100
AcDbEntity
  8
MITTELLINIEN
390
0
100
AcDbLine
 10
197.6537493701
 20
119.7600901322
 30
0.0
 11
197.6537493701
 21
92.4379277001
 31
0.0
  0
CIRCLE
  5
118
100
AcDbEntity
  8
2501_1L
390
0
100
AcDbCircle
 10
44.2243333384
 20
28.0323679121
 30
0.0
 40
1.25
  0
CIRCLE
  5
119
100
AcDbEntity
  8
2501_1L
390
0
100
AcDbCircle
 10
44.2243333384
 20
114.6119999397
 30
0.0
 40
1.25
  0
LINE
  5
11A
100
AcDbEntity
  8
2501_1L
390
0
  6
DIVIDE
100
AcDbLine
 10
52.2342110404
 20
13.0550263439
 30
0.0
 11
37.2243333384
 21
13.0550263439
 31
0.0
  0
LINE
  5
11B
100
AcDbEntity
  8
2501_1L
390
0
  6
DIVIDE
100
AcDbLine
 10
52.221622033
 20
129.5593415079
 30
0.0
 11
37.2243333384
 21
129.5593415079
 31
0.0
  0
CIRCLE
  5
11C
100
AcDbEntity
  8
2501_1L
390
0
  6
PHANTOM
100
AcDbCircle
 10
37.2243333384
 20
129.5593415079
 30
0.0
 40
0.5
  0
CIRCLE
  5
11D
100
AcDbEntity
  8
2501_1L
390
0
  6
PHANTOM
100
AcDbCircle
 10
37.2243333384
 20
13.0550263439
 30
0.0
 40
1.0
  0
LINE
  5
11E
100
AcDbEntity
  8
2501_1L
390
0
  6
DASHED
100
AcDbLine
 10
37.2243333384
 20
21.0750263439
 30
0.0
 11
44.2243333384
 21
28.0323679121
 31
0.0
  0
LINE
  5
11F
100
AcDbEntity
  8
2501_1L
390
0
  6
DASHED
100
AcDbLine
 10
44.2243333384
 20
28.0323679121
 30
0.0
 11
40.2243333384
 21
54.0740601337
 31
0.0
  0
LINE
  5
120
100
AcDbEntity
  8
2501_1L
390
0
  6
DASHED
100
AcDbLine
 10
40.2243333384
 20
54.0740601337
 30
0.0
 11
40.2243333384
 21
65.0750263439
 31
0.0
  0
LINE
  5
121
100
AcDbEntity
  8
2501_1L
390
0
  6
DASHED
100
AcDbLine
 10
47.2243333384
 20
80.0750263439
 30
0.0
 11
44.2243333384
 21
114.6119999397
 31
0.0
  0
LINE
  5
122
100
AcDbEntity
  8
2501_1L
390
0
  6
DASHED
100
AcDbLine
 10
44.2243333384
 20
114.6119999397
 30
0.0
 11
37.2243333384
 21
121.5693415079
 31
0.0
  0
LINE
  5
123
100
AcDbEntity
  8
2501_1R
390
0
  6
BORDER
100
AcDbLine
 10
67.7430000051
 20
13.0550263439
 30
0.0
 11
52.2243333384
 21
13.0550263439
 31
0.0
  0
LINE
  5
124
100
AcDbEntity
  8
2501_1R
390
0
  6
BORDER
100
AcDbLine
 10
67.7150000052
 20
129.5593415079
 30
0.0
 11
52.2243333384
 21
129.5593415079
 31
0.0
  0
CIRCLE
  5
125
100
AcDbEntity
  8
2501_1R
390
0
  6
PHANTOM
100
AcDbCircle
 10
52.2243333384
 20
13.0550263439
 30
0.0
 40
1.0
  0
CIRCLE
  5
126
100
AcDbEntity
  8
2501_1R
390
0
  6
PHANTOM
100
AcDbCircle
 10
52.2243333384
 20
129.5593415079
 30
0.0
 40
0.5
  0
CIRCLE
  5
127
100
AcDbEntity
  8
2501_1R
390
0
100
AcDbCircle
 10
59.2243333384
 20
91.1791036694
 30
0.0
 40
1.5
  0
CIRCLE
  5
128
100
AcDbEntity
  8
2501_1R
390
0
100
AcDbCircle
 10
59.2243333384
 20
106.1791036694
 30
0.0
 40
1.5
  0
LINE
  5
129
100
AcDbEntity
  8
2501_1R
390
0
100
AcDbLine
 10
64.2243333384
 20
30.5740601337
 30
0.0
 11
64.2243333384
 21
77.5740601337
 31
0.0
  0
LINE
  5
12A
100
AcDbEntity
  8
2501_1R
390
0
100
AcDbLine
 10
67.7243333384
 20
30.5740601337
 30
0.0
 11
64.2243333384
 21
30.5740601337
 31
0.0
  0
LINE
  5
12B
100
AcDbEntity
  8
2501_1R
390
0
100
AcDbLine
 10
67.7243333384
 20
77.5740601337
 30
0.0
 11
64.2243333384
 21
77.5740601337
 31
0.0
  0
LINE
  5
12C
100
AcDbEntity
  8
2501_1R
390
0
  6
DASHED
100
AcDbLine
 10
67.7430000051
 20
13.0550263439
 30
0.0
 11
60.7243333384
 21
20.5750263439
 31
0.0
  0
LINE
  5
12D
100
AcDbEntity
  8
2501_1R
390
0
  6
DASHED
100
AcDbLine
 10
60.7243333384
 20
20.5750263439
 30
0.0
 11
67.7243333384
 21
30.5740601337
 31
0.0
  0
LINE
  5
12E
100
AcDbEntity
  8
2501_1R
390
0
  6
DASHED
100
AcDbLine
 10
67.7243333384
 20
77.5740601337
 30
0.0
 11
59.2243333384
 21
91.1791036694
 31
0.0
  0
LINE
  5
12F
100
AcDbEntity
  8
2501_1R
390
0
  6
DASHED
100
AcDbLine
 10
59.2243333384
 20
91.1791036694
 30
0.0
 11
59.2243333384
 21
106.1791036694
 31
0.0
  0
LINE
  5
130
100
AcDbEntity
  8
2501_1R
390
0
  6
DASHED
100
AcDbLine
 10
59.2243333384
 20
106.1791036694
 30
0.0
 11
60.7243333384
 21
122.0693415079
 31
0.0
  0
LINE
  5
131
100
AcDbEntity
  8
2501_1R
390
0
  6
DASHED
100
AcDbLine
 10
60.7243333384
 20
122.0693415079
 30
0.0
 11
67.7150000052
 21
129.5593415079
 31
0.0
  0
TEXT
  5
132
100
AcDbEntity
  8
2501_1R
390
0
100
AcDbText
 10
46.9012910453
 20
130.3095417509
 30
0.0
 40
2.0
  1
@2501.1L
 41
1.1351288064
  7
Arial
100
AcDbText
  0
ARC
  5
133
100
AcDbEntity
  8
2501___ ABTRIEB FÜR EINZELHEBEL
390
0
  6
DASHDOT
100
AcDbCircle
 10
204.574053166
 20
71.3071839259
 30
0.0
 40
177.198314296
100
AcDbArc
 50
160.8076891075
 51
199.1923108925
  0
CIRCLE
  5
134
100
AcDbEntity
  8
2501_3P
390
0
100
AcDbCircle
 10
117.9885915505
 20
59.7089386604
 30
0.0
 40
1.25
  0
LINE
  5
135
100
AcDbEntity
  8
2501_3P
390
0
  6
DIVIDE
100
AcDbLine
 10
121.3885915505
 20
140.7032538244
 30
0.0
 11
110.4885915505
 21
140.7032538244
 31
0.0
  0
LINE
  5
136
100
AcDbEntity
  8
2501_3P
390
0
  6
DIVIDE
100
AcDbLine
 10
120.3885915505
 20
38.2089386604
 30
0.0
 11
110.4885915505
 21
38.2089386604
 31
0.0
  0
LINE
  5
137
100
AcDbEntity
  8
2501_3P
390
0
100
AcDbLine
 10
121.3885915505
 20
125.7459122562
 30
0.0
 11
121.3885915505
 21
140.7032538244
 31
0.0
  0
LINE
  5
138
100
AcDbEntity
  8
2501_3P
390
0
100
AcDbLine
 10
122.5885915505
 20
125.7459122562
 30
0.0
 11
122.5885915505
 21
140.7132538244
 31
0.0
  0
ARC
  5
139
100
AcDbEntity
  8
2501_3P
390
0
100
AcDbCircle
 10
121.9885915505
 20
125.7459122562
 30
0.0
 40
0.6
100
AcDbArc
 50
180.0
 51
360.0
  0
LINE
  5
13A
100
AcDbEntity
  8
2501_3P
390
0
100
AcDbLine
 10
122.5885915505
 20
140.7132538244
 30
0.0
 11
125.4885915505
 21
140.7132538244
 31
0.0
  0
LINE
  5
13B
100
AcDbEntity
  8
2501_3P
390
0
  6
DASHED
100
AcDbLine
 10
119.4885915505
 20
79.2079724502
 30
0.0
 11
115.5067433094
 21
129.7423076886
 31
0.0
  0
LINE
  5
13C
100
AcDbEntity
  8
2501_3P
390
0
100
AcDbLine
 10
116.5067433094
 20
129.7423076886
 30
0.0
 11
116.5067433094
 21
103.8801197156
 31
0.0
  0
LINE
  5
13D
100
AcDbEntity
  8
2501_3P
390
0
100
AcDbLine
 10
115.5067433094
 20
129.7423076886
 30
0.0
 11
115.5067433094
 21
103.8801197156
 31
0.0
  0
ARC
  5
13E
100
AcDbEntity
  8
2501_3P
390
0
100
AcDbCircle
 10
116.0067433094
 20
129.7423076886
 30
0.0
 40
0.5
100
AcDbArc
 50
0.0
 51
180.0
  0
LINE
  5
13F
100
AcDbEntity
  8
2501_3P
390
0
100
AcDbLine
 10
121.3885915505
 20
53.1662802286
 30
0.0
 11
121.3885915505
 21
39.2089386604
 31
0.0
  0
LINE
  5
140
100
AcDbEntity
  8
2501_3P
390
0
100
AcDbLine
 10
122.5885915505
 20
53.1662802286
 30
0.0
 11
122.5885915505
 21
38.2089386604
 31
0.0
  0
ARC
  5
141
100
AcDbEntity
  8
2501_3P
390
0
100
AcDbCircle
 10
121.9885915505
 20
53.1662802286
 30
0.0
 40
0.6
100
AcDbArc
 50
0.0
 51
180.0
  0
LINE
  5
142
100
AcDbEntity
  8
2501_3P
390
0
100
AcDbLine
 10
122.5885915505
 20
38.2089386604
 30
0.0
 11
126.4885915505
 21
38.2089386604
 31
0.0
  0
ARC
  5
143
100
AcDbEntity
  8
2501_3P
390
0
  6
DASHED
100
AcDbCircle
 10
123.0724083315
 20
132.8851684948
 30
0.0
 40
8.1924881004
100
AcDbArc
 50
72.8468598762
 51
202.5585380483
  0
ARC
  5
144
100
AcDbEntity
  8
2501_3P
390
0
  6
DASHED
100
AcDbCircle
 10
112.5191509077
 20
48.2698607001
 30
0.0
 40
12.6794039894
100
AcDbArc
 50
314.3881518707
 51
424.4458346853
  0
ARC
  5
145
100
AcDbEntity
  8
2501_3P
390
0
  6
DASHED
100
AcDbCircle
 10
132.5052802275
 20
50.4454527452
 30
0.0
 40
17.2205232628
100
AcDbArc
 50
147.4569674531
 51
225.2819109591
  0
CIRCLE
  5
146
100
AcDbEntity
  8
2501_3P
390
0
  6
PHANTOM
100
AcDbCircle
 10
110.4885915505
 20
140.7032538244
 30
0.0
 40
0.5
  0
CIRCLE
  5
147
100
AcDbEntity
  8
2501_3P
390
0
  6
PHANTOM
100
AcDbCircle
 10
110.4885915505
 20
38.2089386604
 30
0.0
 40
1.0
  0
MTEXT
  5
148
100
AcDbEntity
  8
2501_3P
390
0
100
AcDbMText
 10
102.0590079037
 20
137.4593294698
 30
0.0
 40
2.0
 41
0.0
 71
         7
 72
         1
  1
\W1.135081;M15x2 \PT2 O2 F150\PB-0.3    D1.6\PI1.2 P4 U20
  7
Arial
 73
         1
 44
0.66
  0
LINE
  5
149
100
AcDbEntity
  8
2501_8P
390
0
  6
BORDER
100
AcDbLine
 10
193.1537493701
 20
118.2600901322
 30
0.0
 11
160.0859537084
 21
118.2600901322
 31
0.0
  0
LINE
  5
14A
100
AcDbEntity
  8
2501_8P
390
0
  6
BORDER
100
AcDbLine
 10
158.814727767
 20
111.7821714725
 30
0.0
 11
179.0867318199
 21
99.2631413537
 31
0.0
  0
ARC
  5
14B
100
AcDbEntity
  8
2501_8P
390
0
100
AcDbCircle
 10
160.6537493701
 20
114.7600901322
 30
0.0
 40
3.5
100
AcDbArc
 50
102.7958504082
 51
238.3024853999
  0
ARC
  5
14C
100
AcDbEntity
  8
2501_8P
390
0
100
AcDbCircle
 10
180.925753423
 20
102.2410600133
 30
0.0
 40
3.5
100
AcDbArc
 50
238.3024853999
 51
315.6737884787
  0
LINE
  5
14D
100
AcDbEntity
  8
2501_8P
390
0
100
AcDbLine
 10
195.6575553939
 20
112.3144909427
 30
0.0
 11
183.4295594468
 21
99.7954608239
 31
0.0
  0
ARC
  5
14E
100
AcDbEntity
  8
2501_8P
390
0
100
AcDbCircle
 10
193.1537493701
 20
114.7600901322
 30
0.0
 40
3.5
100
AcDbArc
 50
315.6737884787
 51
450.0
  0
LINE
  5
14F
100
AcDbEntity
  8
2501_8P
390
0
100
AcDbLine
 10
157.6537493701
 20
118.2600901322
 30
0.0
 11
159.8785768154
 21
118.1731690223
 31
0.0
  0
LINE
  5
150
100
AcDbEntity
  8
2501_8P
390
0
  6
DASHED
100
AcDbLine
 10
160.0859537084
 20
118.2600901322
 30
0.0
 11
160.6537493701
 21
114.7600901322
 31
0.0
  0
ARC
  5
151
100
AcDbEntity
  8
2501_8P
390
0
  6
DASHED
100
AcDbCircle
 10
165.9037493701
 20
128.5097580973
 30
0.0
 40
14.7178758369
100
AcDbArc
 50
249.1017734318
 51
290.8982265682
  0
ARC
  5
152
100
AcDbEntity
  8
2501_8P
390
0
  6
DASHED
100
AcDbCircle
 10
182.1537493701
 20
184.9345536433
 30
0.0
 40
71.0313686274
100
AcDbArc
 50
261.0912560361
 51
278.9087439639
  0
ARC
  5
153
100
AcDbEntity
  8
2501_8P
390
0
  6
DASHED
100
AcDbCircle
 10
198.5726758275
 20
97.2357604776
 30
0.0
 40
18.3430339309
100
AcDbArc
 50
107.1828136097
 51
164.1647633478
  0
LINE
  5
154
100
AcDbEntity
  8
2501_8P
390
0
  6
DASHED
100
AcDbLine
 10
180.925753423
 20
102.2410600133
 30
0.0
 11
157.6537493701
 21
98.2610600133
 31
0.0
  0
CIRCLE
  5
155
100
AcDbEntity
  8
2501_8P
390
0
  6
PHANTOM
100
AcDbCircle
 10
157.6537493701
 20
118.2600901322
 30
0.0
 40
0.5
  0
CIRCLE
  5
156
100
AcDbEntity
  8
2501_8P
390
0
  6
PHANTOM
100
AcDbCircle
 10
157.6537493701
 20
98.2610600133
 30
0.0
 40
1.0
  0
MTEXT
  5
157
100
AcDbEntity
  8
2501_8P
390
0
100
AcDbMText
 10
149.2241657234
 20
115.0161657776
 30
0.0
 40
2.0
 41
0.0
 71
         7
 72
         1
  1
\W1.135096;M40+x2 \PT2 O2 F150\PB-0.3    D1.6\PI1.2 P4 U20
  7
Arial
 73
         1
 44
0.66
  0
LINE
  5
158
100
AcDbEntity
  8
2501_2P
390
0
  6
DASHED
100
AcDbLine
 10
31.6778133872
 20
157.6158352535
 30
0.0
 11
56.6778133872
 21
189.1158352524
 31
0.0
  0
LINE
  5
159
100
AcDbEntity
  8
2501_2P
390
0
  6
DASHED
100
AcDbLine
 10
56.6778133872
 20
189.1158352524
 30
0.0
 11
61.7459442471
 21
169.2521988888
 31
0.0
  0
LINE
  5
15A
100
AcDbEntity
  8
2501_2P
390
0
  6
DASHED
100
AcDbLine
 10
61.7459442471
 20
169.2521988888
 30
0.0
 11
56.6778133872
 21
166.6158352524
 31
0.0
  0
ARC
  5
15B
100
AcDbEntity
  8
2501_2P
390
0
  6
DIVIDE
100
AcDbCircle
 10
53.6778133872
 20
189.1158352524
 30
0.0
 40
15.5
100
AcDbArc
 50
281.1599368722
 51
438.8400631278
  0
ARC
  5
15C
100
AcDbEntity
  8
2501_2P
390
0
  6
DIVIDE
 62
        14
100
AcDbCircle
 10
53.6778133872
 20
189.1158352524
 30
0.0
 40
15.5
100
AcDbArc
 50
78.8400631278
 51
281.1599368722
  0
LINE
  5
15D
100
AcDbEntity
  8
2501_2P
390
0
  6
DASHED
100
AcDbLine
 10
56.6778133872
 20
166.6158352524
 30
0.0
 11
56.6778133872
 21
173.9089289267
 31
0.0
  0
LINE
  5
15E
100
AcDbEntity
  8
2501_2P
390
0
  6
DASHED
100
AcDbLine
 10
56.6778133872
 20
173.9089289267
 30
0.0
 11
31.6778133872
 21
157.6158352535
 31
0.0
  0
CIRCLE
  5
15F
100
AcDbEntity
  8
2501_2P
390
0
  6
PHANTOM
100
AcDbCircle
 10
31.6778133872
 20
220.6158352516
 30
0.0
 40
0.5
  0
CIRCLE
  5
160
100
AcDbEntity
  8
2501_2P
390
0
  6
PHANTOM
100
AcDbCircle
 10
31.6778133872
 20
157.6158352535
 30
0.0
 40
1.0
  0
TEXT
  5
161
100
AcDbEntity
  8
2501_2P
390
0
  6
PHANTOM
100
AcDbText
 10
41.6229505385
 20
171.7414215264
 30
0.0
 40
2.0
  1
N1
 41
1.1350267802
  7
Arial
100
AcDbText
  0
MTEXT
  5
162
100
AcDbEntity
  8
2501_2P
390
0
  6
DIVIDE
100
AcDbMText
 10
30.2646974378
 20
220.588605054
 30
0.0
 40
1.5
 41
0.0
 71
         5
 72
         1
  1
\W0.864827;M50+x5 T5 O2\PP4 U15     I1.4\PD2.3      B-0.3
  7
Arial
 73
         1
 44
0.66
  0
MTEXT
  5
163
100
AcDbEntity
  8
2501_2P
390
0
100
AcDbMText
 10
28.9691325438
 20
203.5852948858
 30
0.0
 40
1.5
 41
0.0
 71
         5
 72
         1
  1
\W1.135110;>2500.1P\PM50+x5\PT5 O2
  7
Arial
 73
         1
 44
0.66
  0
ARC
  5
164
100
AcDbEntity
  8
2501___ ABTRIEB FÜR EINZELHEBEL
390
0
100
AcDbCircle
 10
73.1621510836
 20
189.1158352524
 30
0.0
 40
52.0883890522
100
AcDbArc
 50
142.7897718356
 51
217.2102281644
  0
MTEXT
  5
165
100
AcDbEntity
  8
2501___ ABTRIEB FÜR EINZELHEBEL
390
0
100
AcDbMText
 10
22.2713549556
 20
184.1192383193
 30
0.0
 40
2.0
 41
0.0
 71
         5
 72
         1
  1
\W1.134914;>2501.2P\PM50+x5\PT5 O2
  7
Arial
 73
         1
 44
0.66
  0
ARC
  5
166
100
AcDbEntity
  8
2501_2P
390
0
  6
DASHDOT
100
AcDbCircle
 10
246.8423974095
 20
189.1158352526
 30
0.0
 40
217.458152796
100
AcDbArc
 50
171.6710909115
 51
188.3289090885
  0
MTEXT
  5
167
100
AcDbEntity
  8
2501___ ABTRIEB FÜR EINZELHEBEL
390
0
100
AcDbMText
 10
89.9846243966
 20
189.0941527129
 30
0.0
 40
2.0
 41
0.0
 71
         5
 72
         1
  1
\W1.134932;>2501.2T\PM50+x5\PT5 O6
  7
Arial
 73
         1
 44
0.66
  0
CIRCLE
  5
168
100
AcDbEntity
  8
2501_2T
390
0
  6
PHANTOM
100
AcDbCircle
 10
101.6778133872
 20
157.6158352535
 30
0.0
 40
1.0
  0
CIRCLE
  5
169
100
AcDbEntity
  8
2501_2T
390
0
  6
PHANTOM
100
AcDbCircle
 10
101.6778133872
 20
220.6158352516
 30
0.0
 40
0.5
  0
MTEXT
  5
16A
100
AcDbEntity
  8
2501_2T
390
0
100
AcDbMText
 10
98.9691325438
 20
203.5852948858
 30
0.0
 40
1.5
 41
0.0
 71
         5
 72
         1
  1
\W1.135136;>2500.1T\PM50+x5\PT5 O6
  7
Arial
 73
         1
 44
0.66
  0
MTEXT
  5
16B
100
AcDbEntity
  8
2501_2T
390
0
  6
DIVIDE
100
AcDbMText
 10
100.2646974378
 20
220.588605054
 30
0.0
 40
1.5
 41
0.0
 71
         5
 72
         1
  1
\W0.864843;M50+x5 T5\PO6         I1\PW1.8 B1.8
  7
Arial
 73
         1
 44
0.66
  0
ARC
  5
16C
100
AcDbEntity
  8
2501___ ABTRIEB FÜR EINZELHEBEL
390
0
100
AcDbCircle
 10
143.1621510836
 20
189.1158352524
 30
0.0
 40
52.0883890522
100
AcDbArc
 50
142.7897718356
 51
217.2102281644
  0
ARC
  5
16D
100
AcDbEntity
  8
2501_2T
390
0
  6
DASHDOT
100
AcDbCircle
 10
316.8423974095
 20
189.1158352526
 30
0.0
 40
217.458152796
100
AcDbArc
 50
171.6710909115
 51
188.3289090885
  0
ARC
  5
16E
100
AcDbEntity
  8
2501_7T
390
0
  6
DASHDOT
100
AcDbCircle
 10
416.8423974095
 20
189.1158352526
 30
0.0
 40
217.458152796
100
AcDbArc
 50
171.6710909115
 51
188.3289090885
  0
LINE
  5
16F
100
AcDbEntity
  8
2501_7P
390
0
  6
DASHED
100
AcDbLine
 10
156.6778133872
 20
172.7025427708
 30
0.0
 11
131.6778133872
 21
157.6158352535
 31
0.0
  0
LINE
  5
170
100
AcDbEntity
  8
2501_7P
390
0
  6
DASHED
100
AcDbLine
 10
156.6778133872
 20
166.6158352524
 30
0.0
 11
156.6778133872
 21
172.7025427708
 31
0.0
  0
TEXT
  5
171
100
AcDbEntity
  8
2501_7P
390
0
  6
PHANTOM
100
AcDbText
 10
140.8182083974
 20
171.2207060234
 30
0.0
 40
2.0
  1
N1
 41
1.1350267802
  7
Arial
100
AcDbText
  0
MTEXT
  5
172
100
AcDbEntity
  8
2501___ ABTRIEB FÜR EINZELHEBEL
390
0
100
AcDbMText
 10
122.2713549556
 20
184.1192383193
 30
0.0
 40
2.0
 41
0.0
 71
         5
 72
         1
  1
\W1.135110;>2501.2P\PM50+x5\PT5 O2
  7
Arial
 73
         1
 44
0.66
  0
LINE
  5
173
100
AcDbEntity
  8
2501_7P
390
0
  6
DASHED
100
AcDbLine
 10
131.6778133872
 20
157.6158352535
 30
0.0
 11
156.6778133872
 21
189.1158352524
 31
0.0
  0
LINE
  5
174
100
AcDbEntity
  8
2501_7P
390
0
  6
DASHED
100
AcDbLine
 10
156.6778133872
 20
189.1158352524
 30
0.0
 11
161.7459442471
 21
169.2521988888
 31
0.0
  0
LINE
  5
175
100
AcDbEntity
  8
2501_7P
390
0
  6
DASHED
100
AcDbLine
 10
161.7459442471
 20
169.2521988888
 30
0.0
 11
156.6778133872
 21
166.6158352524
 31
0.0
  0
CIRCLE
  5
176
100
AcDbEntity
  8
2501_7P
390
0
  6
PHANTOM
100
AcDbCircle
 10
131.6778133872
 20
157.6158352535
 30
0.0
 40
1.0
  0
CIRCLE
  5
177
100
AcDbEntity
  8
2501_7P
390
0
  6
PHANTOM
100
AcDbCircle
 10
131.6778133872
 20
220.6158352516
 30
0.0
 40
0.5
  0
MTEXT
  5
178
100
AcDbEntity
  8
2501_7T
390
0
100
AcDbMText
 10
198.9691325438
 20
203.5852948858
 30
0.0
 40
1.5
 41
0.0
 71
         5
 72
         1
  1
\W1.135136;>2500.1T\PM50+x5\PT5 O6
  7
Arial
 73
         1
 44
0.66
  0
MTEXT
  5
179
100
AcDbEntity
  8
2501_7T
390
0
  6
DIVIDE
100
AcDbMText
 10
200.2646974378
 20
220.588605054
 30
0.0
 40
1.5
 41
0.0
 71
         5
 72
         1
  1
\W0.864843;M50+x5 T5\PO6         I1\PW1.8 B1.8
  7
Arial
 73
         1
 44
0.66
  0
MTEXT
  5
17A
100
AcDbEntity
  8
2501___ ABTRIEB FÜR EINZELHEBEL
390
0
100
AcDbMText
 10
189.9846243966
 20
189.0941527129
 30
0.0
 40
2.0
 41
0.0
 71
         5
 72
         1
  1
\W1.135136;>2501.2T\PM50+x5\PT5 O6
  7
Arial
 73
         1
 44
0.66
  0
MTEXT
  5
17B
100
AcDbEntity
  8
2501_7P
390
0
100
AcDbMText
 10
128.9691325438
 20
203.5852948858
 30
0.0
 40
1.5
 41
0.0
 71
         5
 72
         1
  1
\W1.135110;>2500.1P\PM50+x5\PT5 O2
  7
Arial
 73
         1
 44
0.66
  0
MTEXT
  5
17C
100
AcDbEntity
  8
2501_7P
390
0
  6
DIVIDE
100
AcDbMText
 10
130.2646974378
 20
220.588605054
 30
0.0
 40
1.5
 41
0.0
 71
         5
 72
         1
  1
\W0.864827;M50+x5 T5 O2\PP4 U15     I1.4\PD1.5      B-0.3
  7
Arial
 73
         1
 44
0.66
  0
ARC
  5
17D
100
AcDbEntity
  8
2501___ ABTRIEB FÜR EINZELHEBEL
390
0
100
AcDbCircle
 10
243.1621510836
 20
189.1158352524
 30
0.0
 40
52.0883890522
100
AcDbArc
 50
142.7897718356
 51
217.2102281644
  0
CIRCLE
  5
17E
100
AcDbEntity
  8
2501_7T
390
0
  6
PHANTOM
100
AcDbCircle
 10
201.6778133872
 20
220.6158352516
 30
0.0
 40
0.5
  0
ARC
  5
17F
100
AcDbEntity
  8
2501___ ABTRIEB FÜR EINZELHEBEL
390
0
100
AcDbCircle
 10
173.1621510836
 20
189.1158352524
 30
0.0
 40
52.0883890522
100
AcDbArc
 50
142.7897718356
 51
217.2102281644
  0
ARC
  5
180
100
AcDbEntity
  8
2501_7P
390
0
  6
DASHDOT
100
AcDbCircle
 10
346.8423974095
 20
189.1158352526
 30
0.0
 40
217.458152796
100
AcDbArc
 50
171.6710909115
 51
188.3289090885
  0
CIRCLE
  5
181
100
AcDbEntity
  8
2501_7P
390
0
100
AcDbCircle
 10
156.6778133872
 20
166.6158352524
 30
0.0
 40
1.75
  0
CIRCLE
  5
182
100
AcDbEntity
  8
2501_7P
390
0
100
AcDbCircle
 10
161.7459442471
 20
169.2521988888
 30
0.0
 40
1.25
  0
CIRCLE
  5
183
100
AcDbEntity
  8
2501_7P
390
0
100
AcDbCircle
 10
156.6778133872
 20
189.1158352524
 30
0.0
 40
1.25
  0
CIRCLE
  5
184
100
AcDbEntity
  8
2501_7T
390
0
  6
PHANTOM
100
AcDbCircle
 10
201.6778133872
 20
157.6158352535
 30
0.0
 40
1.0
  0
LINE
  5
185
100
AcDbEntity
  8
MITTELLINIEN
390
0
100
AcDbLine
 10
31.6778133872
 20
226.1158352516
 30
0.0
 11
31.6778133872
 21
151.6158352535
 31
0.0
  0
LINE
  5
186
100
AcDbEntity
  8
MITTELLINIEN
390
0
100
AcDbLine
 10
81.6778133872
 20
226.1158352516
 30
0.0
 11
81.6778133872
 21
151.6158352535
 31
0.0
  0
LINE
  5
187
100
AcDbEntity
  8
MITTELLINIEN
390
0
100
AcDbLine
 10
181.6778133872
 20
226.1158352516
 30
0.0
 11
181.6778133872
 21
151.6158352535
 31
0.0
  0
LINE
  5
188
100
AcDbEntity
  8
MITTELLINIEN
390
0
100
AcDbLine
 10
131.6778133872
 20
226.1158352516
 30
0.0
 11
131.6778133872
 21
151.6158352535
 31
0.0
  0
ARC
  5
189
100
AcDbEntity
  8
2501_7P
390
0
  6
DIVIDE
100
AcDbCircle
 10
159.4436111334
 20
187.9537841244
 30
0.0
 40
15.5
100
AcDbArc
 50
259.7211762132
 51
460.2788237868
  0
ARC
  5
18A
100
AcDbEntity
  8
2501_7P
390
0
  6
DIVIDE
 62
        14
100
AcDbCircle
 10
159.4436111334
 20
187.9537841244
 30
0.0
 40
15.5
100
AcDbArc
 50
100.2788237868
 51
259.7211762132
  0
INSERT
  5
18B
100
AcDbEntity
  8
BEMASSUNG
390
0
100
AcDbBlockReference
  2
D404577024
 10
0.0
 20
0.0
 30
0.0
  0
INSERT
  5
18C
100
AcDbEntity
  8
BEMASSUNG
390
0
100
AcDbBlockReference
  2
D404576768
 10
0.0
 20
0.0
 30
0.0
  0
INSERT
  5
18D
100
AcDbEntity
  8
BEMASSUNG
390
0
100
AcDbBlockReference
  2
D404576512
 10
0.0
 20
0.0
 30
0.0
  0
INSERT
  5
18E
100
AcDbEntity
  8
BEMASSUNG
390
0
100
AcDbBlockReference
  2
D404576256
 10
0.0
 20
0.0
 30
0.0
  0
INSERT
  5
18F
100
AcDbEntity
  8
BEMASSUNG
390
0
100
AcDbBlockReference
  2
D536433408
 10
0.0
 20
0.0
 30
0.0
  0
INSERT
  5
190
100
AcDbEntity
  8
BEMASSUNG
390
0
100
AcDbBlockReference
  2
D536444416
 10
0.0
 20
0.0
 30
0.0
  0
ARC
  5
191
100
AcDbEntity
  8
2501_5 SCHIEBER
390
0
100
AcDbCircle
 10
116.0067433094
 20
103.8801197156
 30
0.0
 40
1.5
100
AcDbArc
 50
180.0
 51
360.0
  0
ARC
  5
192
100
AcDbEntity
  8
2501_3P
390
0
100
AcDbCircle
 10
116.0067433094
 20
103.8801197156
 30
0.0
 40
0.5
100
AcDbArc
 50
180.0
 51
360.0
  0
CIRCLE
  5
193
100
AcDbEntity
  8
2501_1L
390
0
100
AcDbCircle
 10
46.2243333384
 20
65.0750263439
 30
0.0
 40
1.25
  0
CIRCLE
  5
194
100
AcDbEntity
  8
2501_1L
390
0
100
AcDbCircle
 10
40.2243333384
 20
65.0750263439
 30
0.0
 40
1.25
  0
LINE
  5
195
100
AcDbEntity
  8
2501_1L
390
0
  6
DASHED
100
AcDbLine
 10
40.2243333384
 20
65.0750263439
 30
0.0
 11
46.2243333384
 21
65.0750263439
 31
0.0
  0
LINE
  5
196
100
AcDbEntity
  8
2501_1L
390
0
  6
DASHED
100
AcDbLine
 10
46.2243333384
 20
65.0750263439
 30
0.0
 11
47.2243333384
 21
80.0750263439
 31
0.0
  0
ARC
  5
197
100
AcDbEntity
  8
2501___ ABTRIEB FÜR EINZELHEBEL
390
0
  6
DASHDOT
100
AcDbCircle
 10
257.7139960556
 20
89.4560962424
 30
0.0
 40
155.889675386
100
AcDbArc
 50
160.8076891075
 51
199.1923108925
  0
MTEXT
  5
198
100
AcDbEntity
  8
2501___ ABTRIEB FÜR EINZELHEBEL
390
0
100
AcDbMText
 10
100.9404245168
 20
81.4700824094
 30
0.0
 40
2.0
 41
0.0
 71
         5
 72
         1
  1
\W1.135110;>2501.3P\PM15x2\PT2 O2
  7
Arial
 11
1.0
 21
0.0
 31
0.0
 73
         1
 44
0.66
  0
ARC
  5
199
100
AcDbEntity
  8
2501___ ABTRIEB FÜR EINZELHEBEL
390
0
  6
DASHDOT
100
AcDbCircle
 10
186.3808577395
 20
108.2605750727
 30
0.0
 40
30.4177095898
100
AcDbArc
 50
160.8076891075
 51
199.1923108925
  0
MTEXT
  5
19A
100
AcDbEntity
  8
2501___ ABTRIEB FÜR EINZELHEBEL
390
0
100
AcDbMText
 10
155.4300481552
 20
107.4930648793
 30
0.0
 40
2.0
 41
0.0
 71
         5
 72
         1
  1
\W1.135110;>2501.8P\PM40+x2\PT2 O2
  7
Arial
 11
1.0
 21
0.0
 31
0.0
 73
         1
 44
0.66
  0
MTEXT
  5
19B
100
AcDbEntity
  8
2501___ ABTRIEB FÜR EINZELHEBEL
390
0
100
AcDbMText
 10
47.4344509042
 20
283.1174059544
 30
0.0
 40
3.0
 41
0.0
 71
         1
 72
         1
  3
\W0.972841;Abtriebrahmen\PAbtriebrad für Schalter\PAbtriebschieber\PSchieberabstandhalter\PSchalter\PAbtriebrad für Gestänge (Hebel ^ : Gestänge >; v: >)\PAnlenkung\P\PM3x25 Radachse\PM3x5 Rahmenbefestigung\PM3x5 Seilbefestigung\PM12x5 Schieberführun
  1
g\PM12x5 Schalterbetätigung\PM3x16 Anlenkungsachse\PM3x8(Stift) Hebelzapfen
  7
Arial
 73
         1
 44
0.66
  0
LINE
  5
19C
100
AcDbEntity
  8
2501_1 ABTRIEBRAHMEN
390
0
100
AcDbLine
 10
47.2243333384
 20
14.0750263439
 30
0.0
 11
47.2243333384
 21
22.0750263439
 31
0.0
  0
LINE
  5
19D
100
AcDbEntity
  8
2501_1 ABTRIEBRAHMEN
390
0
100
AcDbLine
 10
47.2243333384
 20
22.0750263439
 30
0.0
 11
37.2243333384
 21
22.0750263439
 31
0.0
  0
LINE
  5
19E
100
AcDbEntity
  8
2501_1 ABTRIEBRAHMEN
390
0
100
AcDbLine
 10
37.2243333384
 20
120.5693415079
 30
0.0
 11
47.2243333384
 21
120.5693415079
 31
0.0
  0
LINE
  5
19F
100
AcDbEntity
  8
2501_1 ABTRIEBRAHMEN
390
0
100
AcDbLine
 10
47.2243333384
 20
120.5693415079
 30
0.0
 11
47.2243333384
 21
128.5693415079
 31
0.0
  0
LINE
  5
1A0
100
AcDbEntity
  8
2501_1L
390
0
100
AcDbLine
 10
46.2243333384
 20
21.0750263439
 30
0.0
 11
37.2243333384
 21
21.0750263439
 31
0.0
  0
LINE
  5
1A1
100
AcDbEntity
  8
2501_1L
390
0
100
AcDbLine
 10
46.2243333384
 20
14.0750263439
 30
0.0
 11
46.2243333384
 21
21.0750263439
 31
0.0
  0
LINE
  5
1A2
100
AcDbEntity
  8
2501_1L
390
0
100
AcDbLine
 10
37.2243333384
 20
121.5693415079
 30
0.0
 11
46.2243333384
 21
121.5693415079
 31
0.0
  0
LINE
  5
1A3
100
AcDbEntity
  8
2501_1L
390
0
100
AcDbLine
 10
46.2243333384
 20
121.5693415079
 30
0.0
 11
46.2243333384
 21
128.5693415079
 31
0.0
  0
ARC
  5
1A4
100
AcDbEntity
  8
2501_1L
390
0
  6
DASHED
100
AcDbCircle
 10
48.862173347
 20
11.4020663952
 30
0.0
 40
3.7553847736
100
AcDbArc
 50
26.1139166715
 51
134.6211126331
  0
ARC
  5
1A5
100
AcDbEntity
  8
2501_1L
390
0
  6
DASHED
100
AcDbCircle
 10
48.9960118373
 20
130.4392705144
 30
0.0
 40
3.3434766622
100
AcDbArc
 50
214.0057999999
 51
344.7412914566
  0
ARC
  5
1A6
100
AcDbEntity
  8
2501_5 SCHIEBER
390
0
100
AcDbCircle
 10
117.9885915505
 20
71.2079724502
 30
0.0
 40
2.5
100
AcDbArc
 50
180.0
 51
360.0
  0
ARC
  5
1A7
100
AcDbEntity
  8
2501_5 SCHIEBER
390
0
100
AcDbCircle
 10
117.9885915505
 20
79.2079724502
 30
0.0
 40
2.5
100
AcDbArc
 50
0.0
 51
180.0
  0
LINE
  5
1A8
100
AcDbEntity
  8
2501_5 SCHIEBER
390
0
100
AcDbLine
 10
120.4885915505
 20
79.2079724502
 30
0.0
 11
120.4885915505
 21
71.2079724502
 31
0.0
  0
LINE
  5
1A9
100
AcDbEntity
  8
2501_5 SCHIEBER
390
0
100
AcDbLine
 10
115.4885915505
 20
71.2079724502
 30
0.0
 11
115.4885915505
 21
79.2079724502
 31
0.0
  0
LINE
  5
1AA
100
AcDbEntity
  8
2501_3P
390
0
100
AcDbLine
 10
116.4885915505
 20
71.2079724502
 30
0.0
 11
116.4885915505
 21
79.2079724502
 31
0.0
  0
LINE
  5
1AB
100
AcDbEntity
  8
2501_3P
390
0
100
AcDbLine
 10
119.4885915505
 20
79.2079724502
 30
0.0
 11
119.4885915505
 21
71.2079724502
 31
0.0
  0
ARC
  5
1AC
100
AcDbEntity
  8
2501_3P
390
0
100
AcDbCircle
 10
117.9885915505
 20
71.2079724502
 30
0.0
 40
1.5
100
AcDbArc
 50
180.0
 51
360.0
  0
ARC
  5
1AD
100
AcDbEntity
  8
2501_3P
390
0
100
AcDbCircle
 10
117.9885915505
 20
79.2079724502
 30
0.0
 40
1.5
100
AcDbArc
 50
0.0
 51
180.0
  0
ARC
  5
1AE
100
AcDbEntity
  8
2501_3P
390
0
  6
DASHED
100
AcDbCircle
 10
78.788152709
 20
51.1618613239
 30
0.0
 40
49.4278268913
100
AcDbArc
 50
344.8078301014
 51
394.5701910277
  0
LINE
  5
1AF
100
AcDbEntity
  8
2501___ ABTRIEB FÜR EINZELHEBEL
390
0
  6
PHANTOM
100
AcDbLine
 10
21.0737620314
 20
189.1158352524
 30
0.0
 11
55.6908561751
 21
196.8896269834
 31
0.0
  0
LINE
  5
1B0
100
AcDbEntity
  8
2501___ ABTRIEB FÜR EINZELHEBEL
390
0
  6
PHANTOM
100
AcDbLine
 10
121.0737620314
 20
189.1158352524
 30
0.0
 11
155.6908561751
 21
196.8896269834
 31
0.0
  0
LINE
  5
1B1
100
AcDbEntity
  8
STANDARD
390
0
100
AcDbLine
 10
10.0
 20
5.0
 30
0.0
 11
10.0
 21
292.0
 31
0.0
  0
LINE
  5
1B2
100
AcDbEntity
  8
STANDARD
390
0
100
AcDbLine
 10
15.0
 20
287.0
 30
0.0
 11
205.0
 21
287.0
 31
0.0
  0
LINE
  5
1B3
100
AcDbEntity
  8
STANDARD
390
0
100
AcDbLine
 10
10.0
 20
292.0
 30
0.0
 11
15.0
 21
292.0
 31
0.0
  0
LINE
  5
1B4
100
AcDbEntity
  8
STANDARD
390
0
100
AcDbLine
 10
10.0
 20
5.0
 30
0.0
 11
15.0
 21
5.0
 31
0.0
  0
LINE
  5
1B5
100
AcDbEntity
  8
STANDARD
390
0
100
AcDbLine
 10
10.0
 20
244.1666666667
 30
0.0
 11
15.0
 21
244.1666666667
 31
0.0
  0
LINE
  5
1B6
100
AcDbEntity
  8
STANDARD
390
0
100
AcDbLine
 10
10.0
 20
196.3333333333
 30
0.0
 11
15.0
 21
196.3333333333
 31
0.0
  0
LINE
  5
1B7
100
AcDbEntity
  8
STANDARD
390
0
100
AcDbLine
 10
10.0
 20
148.5
 30
0.0
 11
15.0
 21
148.5
 31
0.0
  0
LINE
  5
1B8
100
AcDbEntity
  8
STANDARD
390
0
100
AcDbLine
 10
10.0
 20
100.6666666667
 30
0.0
 11
15.0
 21
100.6666666667
 31
0.0
  0
LINE
  5
1B9
100
AcDbEntity
  8
STANDARD
390
0
100
AcDbLine
 10
10.0
 20
52.8333333333
 30
0.0
 11
15.0
 21
52.8333333333
 31
0.0
  0
LINE
  5
1BA
100
AcDbEntity
  8
STANDARD
390
0
100
AcDbLine
 10
157.5
 20
292.0
 30
0.0
 11
157.5
 21
287.0
 31
0.0
  0
LINE
  5
1BB
100
AcDbEntity
  8
STANDARD
390
0
100
AcDbLine
 10
110.0
 20
292.0
 30
0.0
 11
110.0
 21
287.0
 31
0.0
  0
LINE
  5
1BC
100
AcDbEntity
  8
STANDARD
390
0
100
AcDbLine
 10
62.5
 20
292.0
 30
0.0
 11
62.5
 21
287.0
 31
0.0
  0
TEXT
  5
1BD
100
AcDbEntity
  8
STANDARD
390
0
100
AcDbText
 10
10.9491078691
 20
267.8641561278
 30
0.0
 40
2.23125
  1
A
 41
1.547986837
  7
Arial
 72
         1
 11
12.6760806841
 21
270.0954061278
 31
0.0
100
AcDbText
 73
         3
  0
TEXT
  5
1BE
100
AcDbEntity
  8
STANDARD
390
0
100
AcDbText
 10
10.9491074243
 20
220.0308227945
 30
0.0
 40
2.23125
  1
B
 41
1.5479872357
  7
Arial
 72
         1
 11
12.6760806841
 21
222.2620727945
 31
0.0
100
AcDbText
 73
         3
  0
TEXT
  5
1BF
100
AcDbEntity
  8
STANDARD
390
0
100
AcDbText
 10
10.9489779593
 20
172.1974894612
 30
0.0
 40
2.23125
  1
C
 41
1.5481032827
  7
Arial
 72
         1
 11
12.6760806841
 21
174.4287394612
 31
0.0
100
AcDbText
 73
         3
  0
TEXT
  5
1C0
100
AcDbEntity
  8
STANDARD
390
0
100
AcDbText
 10
10.9489771034
 20
124.3641561278
 30
0.0
 40
2.23125
  1
D
 41
1.54810405
  7
Arial
 72
         1
 11
12.6760806841
 21
126.5954061278
 31
0.0
100
AcDbText
 73
         3
  0
TEXT
  5
1C1
100
AcDbEntity
  8
STANDARD
390
0
100
AcDbText
 10
10.9491076096
 20
76.5308227945
 30
0.0
 40
2.23125
  1
E
 41
1.5479870696
  7
Arial
 72
         1
 11
12.6760806841
 21
78.7620727945
 31
0.0
100
AcDbText
 73
         3
  0
TEXT
  5
1C2
100
AcDbEntity
  8
STANDARD
390
0
100
AcDbText
 10
10.9493506612
 20
28.6974894612
 30
0.0
 40
2.23125
  1
F
 41
1.5477692083
  7
Arial
 72
         1
 11
12.6760806841
 21
30.9287394612
 31
0.0
100
AcDbText
 73
         3
  0
TEXT
  5
1C3
100
AcDbEntity
  8
STANDARD
390
0
100
AcDbText
 10
36.7048241449
 20
288.48599354
 30
0.0
 40
2.23125
  1
1
 41
1.5479225906
  7
Arial
 72
         1
 11
38.0
 21
290.71724354
 31
0.0
100
AcDbText
 73
         3
  0
TEXT
  5
1C4
100
AcDbEntity
  8
STANDARD
390
0
100
AcDbText
 10
83.7730999712
 20
288.48599354
 30
0.0
 40
2.23125
  1
2
 41
1.5479215945
  7
Arial
 72
         1
 11
85.5
 21
290.71724354
 31
0.0
100
AcDbText
 73
         3
  0
TEXT
  5
1C5
100
AcDbEntity
  8
STANDARD
390
0
100
AcDbText
 10
131.2730986376
 20
288.48599354
 30
0.0
 40
2.23125
  1
3
 41
1.5479227899
  7
Arial
 72
         1
 11
133.0
 21
290.71724354
 31
0.0
100
AcDbText
 73
         3
  0
TEXT
  5
1C6
100
AcDbEntity
  8
STANDARD
390
0
100
AcDbText
 10
178.7730988598
 20
288.48599354
 30
0.0
 40
2.23125
  1
4
 41
1.5479225906
  7
Arial
 72
         1
 11
180.5
 21
290.71724354
 31
0.0
100
AcDbText
 73
         3
  0
LINE
  5
1C7
100
AcDbEntity
  8
STANDARD
390
0
100
AcDbLine
 10
205.0
 20
292.0
 30
0.0
 11
205.0
 21
287.0
 31
0.0
  0
LINE
  5
1C8
100
AcDbEntity
  8
STANDARD
390
0
100
AcDbLine
 10
205.0
 20
5.0
 30
0.0
 11
15.0
 21
5.0
 31
0.0
  0
LINE
  5
1C9
100
AcDbEntity
  8
STANDARD
390
0
100
AcDbLine
 10
15.0
 20
5.0
 30
0.0
 11
15.0
 21
287.0
 31
0.0
  0
LINE
  5
1CA
100
AcDbEntity
  8
STANDARD
390
0
100
AcDbLine
 10
15.0
 20
292.0
 30
0.0
 11
205.0
 21
292.0
 31
0.0
  0
LINE
  5
1CB
100
AcDbEntity
  8
STANDARD
390
0
100
AcDbLine
 10
1.0
 20
1.0
 30
0.0
 11
1.0
 21
296.0
 31
0.0
  0
LINE
  5
1CC
100
AcDbEntity
  8
STANDARD
390
0
100
AcDbLine
 10
209.0
 20
1.0
 30
0.0
 11
1.0
 21
1.0
 31
0.0
  0
LINE
  5
1CD
100
AcDbEntity
  8
STANDARD
390
0
100
AcDbLine
 10
209.0
 20
296.0
 30
0.0
 11
209.0
 21
1.0
 31
0.0
  0
LINE
  5
1CE
100
AcDbEntity
  8
STANDARD
390
0
100
AcDbLine
 10
1.0
 20
296.0
 30
0.0
 11
209.0
 21
296.0
 31
0.0
  0
LINE
  5
1CF
100
AcDbEntity
  8
STANDARD
390
0
100
AcDbLine
 10
15.0
 20
287.0
 30
0.0
 11
15.0
 21
292.0
 31
0.0
  0
LINE
  5
1D0
100
AcDbEntity
  8
STANDARD
390
0
100
AcDbLine
 10
205.0
 20
287.0
 30
0.0
 11
205.0
 21
5.0
 31
0.0
  0
MTEXT
  5
1D1
100
AcDbEntity
  8
STANDARD
390
0
100
AcDbMText
 10
203.6063292805
 20
81.4222772661
 30
0.0
 40
1.59375
 41
0.0
 71
         1
 72
         1
  1

  7
Arial
 11
0.0
 21
-1.0
 31
0.0
 73
         1
 44
1.0352941176
  0
MTEXT
  5
1D2
100
AcDbEntity
  8
STANDARD
390
0
100
AcDbMText
 10
116.6968769253
 20
27.5871143065
 30
0.0
 40
1.59375
 41
0.0
 71
         1
 72
         1
  1

  7
Arial
 11
0.0
 21
-1.0
 31
0.0
 73
         1
 44
1.0352941176
  0
MTEXT
  5
1D3
100
AcDbEntity
  8
STANDARD
390
0
100
AcDbMText
 10
203.6063292805
 20
125.7560948498
 30
0.0
 40
1.59375
 41
0.0
 71
         1
 72
         1
  1

  7
Arial
 11
0.0
 21
-1.0
 31
0.0
 73
         1
 44
1.0352941176
  0
LINE
  5
1D4
100
AcDbEntity
  8
STANDARD
390
0
100
AcDbLine
 10
205.0
 20
182.1150997151
 30
0.0
 11
205.0
 21
5.1236467236
 31
0.0
  0
LINE
  5
1D5
100
AcDbEntity
  8
STANDARD
370
         0
390
0
100
AcDbLine
 10
127.305982906
 20
34.4
 30
0.0
 11
127.305982906
 21
5.0
 31
0.0
  0
LINE
  5
1D6
100
AcDbEntity
  8
STANDARD
370
         0
390
0
100
AcDbLine
 10
81.105982906
 20
34.4
 30
0.0
 11
205.0
 21
34.4
 31
0.0
  0
LINE
  5
1D7
100
AcDbEntity
  8
STANDARD
370
         0
390
0
100
AcDbLine
 10
81.105982906
 20
27.4
 30
0.0
 11
205.0
 21
27.4
 31
0.0
  0
LINE
  5
1D8
100
AcDbEntity
  8
STANDARD
370
         0
390
0
100
AcDbLine
 10
81.105982906
 20
12.0
 30
0.0
 11
205.0
 21
12.0
 31
0.0
  0
LINE
  5
1D9
100
AcDbEntity
  8
STANDARD
370
         0
390
0
100
AcDbLine
 10
81.105982906
 20
34.4
 30
0.0
 11
81.105982906
 21
5.0
 31
0.0
  0
LINE
  5
1DA
100
AcDbEntity
  8
STANDARD
370
         0
390
0
100
AcDbLine
 10
165.105982906
 20
34.4
 30
0.0
 11
165.105982906
 21
27.4
 31
0.0
  0
TEXT
  5
1DB
100
AcDbEntity
  8
BESCHRIFTUNG
390
0
100
AcDbText
 10
82.2010860399
 20
29.1386
 30
0.0
 40
3.3
  1
Stellwerk HMM
 41
1.3758039542
 51
15.0
  7
Arial
 11
82.2010860399
 21
32.4386
 31
0.0
100
AcDbText
 73
         3
  0
TEXT
  5
1DC
100
AcDbEntity
  8
BESCHRIFTUNG
390
0
100
AcDbText
 10
128.6210415954
 20
21.6601111111
 30
0.0
 40
3.3
  1
Abtrieb für Einzelhebel
 41
1.1302079763
 51
15.0
  7
Arial
 11
128.6210415954
 21
24.9601111111
 31
0.0
100
AcDbText
 73
         3
  0
TEXT
  5
1DD
100
AcDbEntity
  8
BESCHRIFTUNG
390
0
100
AcDbText
 10
82.2010860399
 20
6.9230888889
 30
0.0
 40
3.3
  1
Dateiname
 41
1.1437088374
 51
15.0
  7
Arial
 11
82.2010860399
 21
10.2230888889
 31
0.0
100
AcDbText
 73
         3
  0
TEXT
  5
1DE
100
AcDbEntity
  8
BESCHRIFTUNG
390
0
100
AcDbText
 10
82.4210415954
 20
21.6601111111
 30
0.0
 40
3.3
  1
Bl. 2501 Pv
 41
1.1437154469
 51
15.0
  7
Arial
 11
82.4210415954
 21
24.9601111111
 31
0.0
100
AcDbText
 73
         3
  0
TEXT
  5
1DF
100
AcDbEntity
  8
BESCHRIFTUNG
390
0
100
AcDbText
 10
166.2010860399
 20
29.1386
 30
0.0
 40
3.3
  1
Maßstab 1:1
 41
1.1437192123
 51
15.0
  7
Arial
 11
166.2010860399
 21
32.4386
 31
0.0
100
AcDbText
 73
         3
  0
ENDSEC
  0
SECTION
  2
OBJECTS
  0
DICTIONARY
  5
19
100
AcDbDictionary
280
         0
281
         1
  3
ACAD_GROUP
350
1A
  3
ACAD_MLINESTYLE
350
1B
  3
ACAD_LAYOUT
350
1E
  3
ACAD_PLOTSETTINGS
350
22
  3
ACAD_PLOTSTYLENAME
350
1F
  3
ACAD_WIPEOUT_VARS
350
23
  0
DICTIONARY
  5
1A
102
{ACAD_REACTORS
330
19
102
}
100
AcDbDictionary
280
         0
281
         1
  0
DICTIONARY
  5
1B
102
{ACAD_REACTORS
330
19
102
}
100
AcDbDictionary
280
         0
281
         1
  3
Standard
350
1C
  0
MLINESTYLE
  5
1C
102
{ACAD_REACTORS
330
1B
102
}
100
AcDbMlineStyle
  2
Standard
 70
         0
  3

 62
         0
 51
90.0
 52
90.0
 71
         2
 49
0.5
 62
       256
  6
ByLayer
 49
-0.5
 62
       256
  6
ByLayer
  0
ACDBDICTIONARYWDFLT
  5
1F
102
{ACAD_REACTORS
330
19
102
}
100
AcDbDictionary
281
         1
  3
Normal
350
1D
100
AcDbDictionaryWithDefault
340
1D
  0
ACDBPLACEHOLDER
  5
1D
102
{ACAD_REACTORS
330
1F
102
}
  0
LAYOUT
  5
20
102
{ACAD_REACTORS
330
1E
102
}
100
AcDbPlotSettings
  1

  2

  4

  6

 40
0.0
 41
0.0
 42
0.0
 43
0.0
 44
0.0
 45
0.0
 46
0.0
 47
0.0
 48
0.0
 49
0.0
140
0.0
141
0.0
142
1.0
143
1.0
 70
      1024
 72
         0
 73
         0
 74
         0
  7

 75
         0
147
1.0
148
0.0
149
0.0
100
AcDbLayout
  1
Model
 70
         0
 71
         0
 10
0.0
 20
0.0
 11
0.0
 21
0.0
 12
0.0
 22
0.0
 32
0.0
 14
0.0
 24
0.0
 34
0.0
 15
0.0
 25
0.0
 35
0.0
146
0.0
 13
0.0
 23
0.0
 33
0.0
 16
0.0
 26
0.0
 36
0.0
 17
0.0
 27
0.0
 37
0.0
 76
         0
330
A
331
0
345
0
346
0
  0
LAYOUT
  5
21
102
{ACAD_REACTORS
330
1E
102
}
100
AcDbPlotSettings
  1

  2

  4

  6

 40
0.0
 41
0.0
 42
0.0
 43
0.0
 44
0.0
 45
0.0
 46
0.0
 47
0.0
 48
0.0
 49
0.0
140
0.0
141
0.0
142
1.0
143
1.0
 70
         0
 72
         0
 73
         0
 74
         0
  7

 75
         0
147
1.0
148
0.0
149
0.0
100
AcDbLayout
  1
Layout1
 70
         0
 71
         0
 10
0.0
 20
0.0
 11
0.0
 21
0.0
 12
0.0
 22
0.0
 32
0.0
 14
0.0
 24
0.0
 34
0.0
 15
0.0
 25
0.0
 35
0.0
146
0.0
 13
0.0
 23
0.0
 33
0.0
 16
0.0
 26
0.0
 36
0.0
 17
0.0
 27
0.0
 37
0.0
 76
         0
330
B
331
0
345
0
346
0
  0
DICTIONARY
  5
1E
102
{ACAD_REACTORS
330
19
102
}
100
AcDbDictionary
280
         0
281
         1
  3
Layout1
350
21
  3
Model
350
20
  0
DICTIONARY
  5
22
102
{ACAD_REACTORS
330
19
102
}
100
AcDbDictionary
280
         0
281
         1
  0
WIPEOUTVARIABLES
  5
23
100
AcDbWipeoutVariables
 70
         1
  0
ENDSEC
  0
EOF
