  0
SECTION
  2
HEADER
  9
$ACADVER
  1
AC1015
  9
$ACADMAINTVER
 70
         6
  9
$DWGCODEPAGE
  3
ANSI_1252
  9
$INSBASE
 10
0.0
 20
0.0
 30
0.0
  9
$EXTMIN
 10
0.0
 20
0.0
 30
0.0
  9
$EXTMAX
 10
210.0
 20
297.0
 30
0.0
  9
$LIMMIN
 10
0.0
 20
0.0
  9
$LIMMAX
 10
210.0
 20
297.0
  9
$ORTHOMODE
 70
         0
  9
$REGENMODE
 70
         1
  9
$FILLMODE
 70
         1
  9
$QTEXTMODE
 70
         0
  9
$MIRRTEXT
 70
         1
  9
$LTSCALE
 40
5.25
  9
$ATTMODE
 70
         1
  9
$TEXTSIZE
 40
0.2
  9
$TRACEWID
 40
0.05
  9
$TEXTSTYLE
  7
Standard
  9
$CLAYER
  8
0
  9
$CELTYPE
  6
CONTINUOUS
  9
$CECOLOR
 62
       256
  9
$CELTSCALE
 40
1.0
  9
$DISPSILH
 70
         0
  9
$DIMSCALE
 40
1.0
  9
$DIMASZ
 40
0.18
  9
$DIMEXO
 40
0.0625
  9
$DIMDLI
 40
0.38
  9
$DIMRND
 40
0.0
  9
$DIMDLE
 40
0.0
  9
$DIMEXE
 40
0.18
  9
$DIMTP
 40
0.0
  9
$DIMTM
 40
0.0
  9
$DIMTXT
 40
3.0
  9
$DIMCEN
 40
0.09
  9
$DIMTSZ
 40
0.0
  9
$DIMTOL
 70
         0
  9
$DIMLIM
 70
         0
  9
$DIMTIH
 70
         1
  9
$DIMTOH
 70
         1
  9
$DIMSE1
 70
         0
  9
$DIMSE2
 70
         0
  9
$DIMTAD
 70
         1
  9
$DIMZIN
 70
         0
  9
$DIMBLK
  1

  9
$DIMASO
 70
         1
  9
$DIMSHO
 70
         1
  9
$DIMPOST
  1
<>
  9
$DIMAPOST
  1

  9
$DIMALT
 70
         0
  9
$DIMALTD
 70
         2
  9
$DIMALTF
 40
25.4
  9
$DIMLFAC
 40
1.0
  9
$DIMTOFL
 70
         0
  9
$DIMTVP
 40
0.0
  9
$DIMTIX
 70
         0
  9
$DIMSOXD
 70
         0
  9
$DIMSAH
 70
         0
  9
$DIMBLK1
  1

  9
$DIMBLK2
  1

  9
$DIMSTYLE
  2
Standard
  9
$DIMCLRD
 70
         0
  9
$DIMCLRE
 70
         0
  9
$DIMCLRT
 70
         0
  9
$DIMTFAC
 40
1.0
  9
$DIMGAP
 40
0.09
  9
$DIMJUST
 70
         0
  9
$DIMSD1
 70
         0
  9
$DIMSD2
 70
         0
  9
$DIMTOLJ
 70
         1
  9
$DIMTZIN
 70
         0
  9
$DIMALTZ
 70
         0
  9
$DIMALTTZ
 70
         0
  9
$DIMUPT
 70
         0
  9
$DIMDEC
 70
         4
  9
$DIMTDEC
 70
         4
  9
$DIMALTU
 70
         2
  9
$DIMALTTD
 70
         2
  9
$DIMTXSTY
  7
Standard
  9
$DIMAUNIT
 70
         0
  9
$DIMADEC
 70
         0
  9
$DIMALTRND
 40
0.0
  9
$DIMAZIN
 70
         0
  9
$DIMDSEP
 70
         0
  9
$DIMATFIT
 70
         3
  9
$DIMFRAC
 70
         0
  9
$DIMLDRBLK
  1

  9
$DIMLUNIT
 70
         2
  9
$DIMLWD
 70
         0
  9
$DIMLWE
 70
         0
  9
$DIMTMOVE
 70
         0
  9
$LUNITS
 70
         2
  9
$LUPREC
 70
         4
  9
$SKETCHINC
 40
0.1
  9
$FILLETRAD
 40
0.0
  9
$AUNITS
 70
         0
  9
$AUPREC
 70
         0
  9
$MENU
  1
acad
  9
$ELEVATION
 40
0.0
  9
$PELEVATION
 40
0.0
  9
$THICKNESS
 40
0.0
  9
$LIMCHECK
 70
         0
  9
$CHAMFERA
 40
0.0
  9
$CHAMFERB
 40
0.0
  9
$CHAMFERC
 40
0.0
  9
$CHAMFERD
 40
0.0
  9
$SKPOLY
 70
         0
  9
$TDCREATE
 40
0.000000000
  9
$TDUCREATE
 40
0.000000000
  9
$TDUPDATE
 40
0.000000000
  9
$TDUUPDATE
 40
0.000000000
  9
$TDINDWG
 40
0.0000000000
  9
$TDUSRTIMER
 40
0.0000000000
  9
$USRTIMER
 70
         1
  9
$ANGBASE
 50
0.0
  9
$ANGDIR
 70
         0
  9
$PDMODE
 70
         0
  9
$PDSIZE
 40
0.0
  9
$PLINEWID
 40
0.0
  9
$SPLFRAME
 70
         0
  9
$SPLINETYPE
 70
         6
  9
$SPLINESEGS
 70
         8
  9
$HANDSEED
  5
3BF
  9
$SURFTAB1
 70
         6
  9
$SURFTAB2
 70
         6
  9
$SURFTYPE
 70
         6
  9
$SURFU
 70
         6
  9
$SURFV
 70
         6
  9
$UCSBASE
  2

  9
$UCSNAME
  2

  9
$UCSORG
 10
0.0
 20
0.0
 30
0.0
  9
$UCSXDIR
 10
1.0
 20
0.0
 30
0.0
  9
$UCSYDIR
 10
0.0
 20
1.0
 30
0.0
  9
$UCSORTHOREF
  2

  9
$UCSORTHOVIEW
 70
         0
  9
$UCSORGTOP
 10
0.0
 20
0.0
 30
0.0
  9
$UCSORGBOTTOM
 10
0.0
 20
0.0
 30
0.0
  9
$UCSORGLEFT
 10
0.0
 20
0.0
 30
0.0
  9
$UCSORGRIGHT
 10
0.0
 20
0.0
 30
0.0
  9
$UCSORGFRONT
 10
0.0
 20
0.0
 30
0.0
  9
$UCSORGBACK
 10
0.0
 20
0.0
 30
0.0
  9
$PUCSBASE
  2

  9
$PUCSNAME
  2

  9
$PUCSORG
 10
0.0
 20
0.0
 30
0.0
  9
$PUCSXDIR
 10
1.0
 20
0.0
 30
0.0
  9
$PUCSYDIR
 10
0.0
 20
1.0
 30
0.0
  9
$PUCSORTHOREF
  2

  9
$PUCSORTHOVIEW
 70
         0
  9
$PUCSORGTOP
 10
0.0
 20
0.0
 30
0.0
  9
$PUCSORGBOTTOM
 10
0.0
 20
0.0
 30
0.0
  9
$PUCSORGLEFT
 10
0.0
 20
0.0
 30
0.0
  9
$PUCSORGRIGHT
 10
0.0
 20
0.0
 30
0.0
  9
$PUCSORGFRONT
 10
0.0
 20
0.0
 30
0.0
  9
$PUCSORGBACK
 10
0.0
 20
0.0
 30
0.0
  9
$USERI1
 70
         0
  9
$USERI2
 70
         0
  9
$USERI3
 70
         0
  9
$USERI4
 70
         0
  9
$USERI5
 70
         0
  9
$USERR1
 40
0.0
  9
$USERR2
 40
0.0
  9
$USERR3
 40
0.0
  9
$USERR4
 40
0.0
  9
$USERR5
 40
0.0
  9
$WORLDVIEW
 70
         1
  9
$SHADEDGE
 70
         3
  9
$SHADEDIF
 70
        70
  9
$TILEMODE
 70
         1
  9
$MAXACTVP
 70
        16
  9
$PINSBASE
 10
0.0
 20
0.0
 30
0.0
  9
$PLIMCHECK
 70
         0
  9
$PEXTMIN
 10
1.0000000000E+20
 20
1.0000000000E+20
 30
1.0000000000E+20
  9
$PEXTMAX
 10
-1.0000000000E+20
 20
-1.0000000000E+20
 30
-1.0000000000E+20
  9
$PLIMMIN
 10
0.0
 20
0.0
  9
$PLIMMAX
 10
12.0
 20
9.0
  9
$UNITMODE
 70
         0
  9
$VISRETAIN
 70
         0
  9
$PLINEGEN
 70
         1
  9
$PSLTSCALE
 70
         0
  9
$TREEDEPTH
 70
      3020
  9
$CMLSTYLE
  2
Standard
  9
$CMLJUST
 70
         0
  9
$CMLSCALE
 40
1.0
  9
$PROXYGRAPHICS
 70
         0
  9
$MEASUREMENT
 70
         1
  9
$CELWEIGHT
370
         0
  9
$ENDCAPS
280
         0
  9
$JOINSTYLE
280
         0
  9
$LWDISPLAY
290
         0
  9
$INSUNITS
 70
         0
  9
$HYPERLINKBASE
  1

  9
$STYLESHEET
  1

  9
$XEDIT
290
         1
  9
$CEPSNTYPE
380
         0
  9
$PSTYLEMODE
290
         1
  9
$FINGERPRINTGUID
  2

  9
$VERSIONGUID
  2

  9
$EXTNAMES
290
         1
  9
$PSVPSCALE
 40
0.0
  0
ENDSEC
  0
SECTION
  2
CLASSES
  0
CLASS
  1
LWPOLYLINE
  2
AcDbPolyline
  3
AutoCAD 2000
 90
        0
280
         0
281
         1
  0
CLASS
  1
IMAGE
  2
AcDbRasterImage
  3
ISM
 90
      127
280
         0
281
         1
  0
CLASS
  1
OLE2FRAME
  2
AcDbOle2Frame
  3
AutoCAD 2000
 90
        0
280
         0
281
         1
  0
CLASS
  1
HATCH
  2
AcDbHatch
  3
AutoCAD 2000
 90
        0
280
         0
281
         1
  0
CLASS
  1
DICTIONARYVAR
  2
AcDbDictionaryVar
  3
AutoCAD 2000
 90
        0
280
         0
281
         0
  0
CLASS
  1
RASTERVARIABLES
  2
AcDbRasterVariables
  3
ISM
 90
        0
280
         0
281
         0
  0
CLASS
  1
IMAGEDEF
  2
AcDbRasterImageDef
  3
ISM
 90
        0
280
         0
281
         0
  0
CLASS
  1
IMAGEDEF_REACTOR
  2
AcDbRasterImageDefReactor
  3
ISM
 90
        1
280
         0
281
         0
  0
CLASS
  1
IDBUFFER
  2
AcDbIdBuffer
  3
AutoCAD 2000
 90
        0
280
         0
281
         0
  0
CLASS
  1
SPATIAL_FILTER
  2
AcDbSpatialFilter
  3
AutoCAD 2000
 90
        0
280
         0
281
         0
  0
CLASS
  1
XRECORD
  2
AcDbXrecord
  3
AutoCAD 2000
 90
        0
280
         0
281
         0
  0
CLASS
  1
SORTENTSTABLE
  2
AcDbSortentsTable
  3
AutoCAD 2000
 90
        0
280
         0
281
         0
  0
CLASS
  1
LAYER_INDEX
  2
AcDbLayerIndex
  3
AutoCAD 2000
 90
        0
280
         0
281
         0
  0
CLASS
  1
SPATIAL_INDEX
  2
AcDbSpatialIndex
  3
AutoCAD 2000
 90
        0
280
         0
281
         0
  0
CLASS
  1
OBJECT_PTR
  2
CAseDLPNTableRecord
  3
"ASE-LPNTableRecord"
 90
        1
280
         0
281
         0
  0
CLASS
  1
LAYOUT
  2
AcDbLayout
  3
AutoCAD 2000
 90
        0
280
         0
281
         0
  0
CLASS
  1
PLOTSETTINGS
  2
AcDbPlotSettings
  3
AutoCAD 2000
 90
        0
280
         0
281
         0
  0
CLASS
  1
ACDBDICTIONARYWDFLT
  2
AcDbDictionaryWithDefault
  3
AutoCAD 2000
 90
        0
280
         0
281
         0
  0
CLASS
  1
ACDBPLACEHOLDER
  2
AcDbPlaceHolder
  3
AutoCAD 2000
 90
        0
280
         0
281
         0
  0
CLASS
  1
VBA_PROJECT
  2
AcDbVbaProject
  3
acadvba
 90
        0
280
         0
281
         0
  0
CLASS
  1
WIPEOUT
  2
AcDbWipeout
  3
WipeOut|AutoCAD Express Tool|expresstools@autodesk.com
 90
      127
280
         0
281
         1
  0
CLASS
  1
WIPEOUTVARIABLES
  2
AcDbWipeoutVariables
  3
WipeOut|AutoCAD Express Tool|expresstools@autodesk.com
 90
        0
280
         0
281
         0
  0
CLASS
  1
RTEXT
  2
RText
  3
RText|AutoCAD Express Tool|expresstools@autodesk.com
 90
        0
280
         0
281
         1
  0
CLASS
  1
ARCALIGNEDTEXT
  2
AcDbArcAlignedText
  3
ATEXT|AutoCAD Express Tool|expresstools@autodesk.com
 90
        0
280
         0
281
         1
  0
ENDSEC
  0
SECTION
  2
TABLES
  0
TABLE
  2
VPORT
  5
7
100
AcDbSymbolTable
 70
         1
  0
VPORT
  5
15
100
AcDbSymbolTableRecord
100
AcDbViewportTableRecord
  2
*ACTIVE
 70
         0
 10
0.0
 20
0.0
 11
1.0
 21
1.0
 12
105.0
 22
148.5
 13
0.0
 23
0.0
 14
1.0
 24
1.0
 15
0.0
 25
0.0
 16
0.0
 26
0.0
 36
1.0
 17
0.0
 27
0.0
 37
0.0
 40
231.2943892345
 41
1.0
 42
50.0
 43
0.0
 44
0.0
 50
0.0
 51
0.0
 71
         0
 72
       100
 73
         1
 74
         1
 75
         0
 76
         0
 77
         0
 78
         0
281
         0
 65
         0
110
0.0
120
0.0
130
0.0
111
1.0
121
0.0
131
0.0
112
0.0
122
1.0
132
0.0
345
0
346
0
 79
         0
146
0.0
  0
ENDTAB
  0
TABLE
  2
LTYPE
  5
4
100
AcDbSymbolTable
 70
        12
  0
LTYPE
  5
11
100
AcDbSymbolTableRecord
100
AcDbLinetypeTableRecord
  2
ByBlock
 70
        64
  3

 72
        65
 73
         0
 40
0.0
  0
LTYPE
  5
12
100
AcDbSymbolTableRecord
100
AcDbLinetypeTableRecord
  2
ByLayer
 70
        64
  3

 72
        65
 73
         0
 40
0.0
  0
LTYPE
  5
13
100
AcDbSymbolTableRecord
100
AcDbLinetypeTableRecord
  2
CONTINUOUS
 70
        64
  3
Solid Line
 72
        65
 73
         0
 40
0.0
  0
LTYPE
  5
24
100
AcDbSymbolTableRecord
100
AcDbLinetypeTableRecord
  2
DOT
 70
        64
  3
. . . . . . . . . . . . . . . . . . . . . . 
 72
        65
 73
         2
 40
0.25
 49
0.0
 74
         0
 49
-0.25
 74
         0
  0
LTYPE
  5
25
100
AcDbSymbolTableRecord
100
AcDbLinetypeTableRecord
  2
HIDDEN
 70
         0
  3
_ _ _ _ _ _ _ _ _ _ _ _ _ _ _ _ _ _ _ _ _ _ _
 72
        65
 73
         2
 40
0.375
 49
0.25
 74
         0
 49
-0.125
 74
         0
  0
LTYPE
  5
26
100
AcDbSymbolTableRecord
100
AcDbLinetypeTableRecord
  2
DASHDOT
 70
         0
  3
__ . __ . __ . __ . __ . __ . __ . __ . __ . __
 72
        65
 73
         4
 40
1.0
 49
0.5
 74
         0
 49
-0.25
 74
         0
 49
0.0
 74
         0
 49
-0.25
 74
         0
  0
LTYPE
  5
27
100
AcDbSymbolTableRecord
100
AcDbLinetypeTableRecord
  2
DIVIDE
 70
         0
  3
__ . . __ . . __ . . __ . . __ . . __ . . __
 72
        65
 73
         6
 40
1.25
 49
0.5
 74
         0
 49
-0.25
 74
         0
 49
0.0
 74
         0
 49
-0.25
 74
         0
 49
0.0
 74
         0
 49
-0.25
 74
         0
  0
LTYPE
  5
28
100
AcDbSymbolTableRecord
100
AcDbLinetypeTableRecord
  2
DASHED
 70
         0
  3
__ __ __ __ __ __ __ __ __ __ __ __ __ __ __
 72
        65
 73
         2
 40
0.75
 49
0.5
 74
         0
 49
-0.25
 74
         0
  0
LTYPE
  5
29
100
AcDbSymbolTableRecord
100
AcDbLinetypeTableRecord
  2
BORDER
 70
         0
  3
__ __ . __ __ . __ __ . __ __ . __ __ .
 72
        65
 73
         6
 40
1.75
 49
0.5
 74
         0
 49
-0.25
 74
         0
 49
0.5
 74
         0
 49
-0.25
 74
         0
 49
0.0
 74
         0
 49
-0.25
 74
         0
  0
LTYPE
  5
2A
100
AcDbSymbolTableRecord
100
AcDbLinetypeTableRecord
  2
CENTER
 70
         0
  3
____ _ ____ _ ____ _ ____ _ ____ _ ____
 72
        65
 73
         4
 40
2.0
 49
1.25
 74
         0
 49
-0.25
 74
         0
 49
0.25
 74
         0
 49
-0.25
 74
         0
  0
LTYPE
  5
2B
100
AcDbSymbolTableRecord
100
AcDbLinetypeTableRecord
  2
DOT2
 70
         0
  3
........................................
 72
        65
 73
         2
 40
0.125
 49
0.0
 74
         0
 49
-0.125
 74
         0
  0
LTYPE
  5
2C
100
AcDbSymbolTableRecord
100
AcDbLinetypeTableRecord
  2
PHANTOM
 70
         0
  3
______  __  __  ______  __  __  ______
 72
        65
 73
         6
 40
2.5
 49
1.25
 74
         0
 49
-0.25
 74
         0
 49
0.25
 74
         0
 49
-0.25
 74
         0
 49
0.25
 74
         0
 49
-0.25
 74
         0
  0
ENDTAB
  0
TABLE
  2
LAYER
  5
2
100
AcDbSymbolTable
 70
        90
  0
LAYER
  5
14
100
AcDbSymbolTableRecord
100
AcDbLayerTableRecord
  2
0
 70
         0
 62
         7
  6
CONTINUOUS
290
         1
370
        -3
390
1D
  0
LAYER
  5
33
100
AcDbSymbolTableRecord
100
AcDbLayerTableRecord
  2
BESCHRIFTUNG
 70
        64
 62
         7
  6
CONTINUOUS
290
         1
370
        25
390
1D
  0
LAYER
  5
34
100
AcDbSymbolTableRecord
100
AcDbLayerTableRecord
  2
SCHRAFFUR
 70
        64
 62
         7
  6
CONTINUOUS
290
         1
370
        25
390
1D
  0
LAYER
  5
35
100
AcDbSymbolTableRecord
100
AcDbLayerTableRecord
  2
MASSTEXTE
 70
        64
 62
       212
  6
CONTINUOUS
290
         1
370
        25
390
1D
  0
LAYER
  5
36
100
AcDbSymbolTableRecord
100
AcDbLayerTableRecord
  2
MASSLINIEN
 70
        64
 62
       172
  6
CONTINUOUS
290
         1
370
        25
390
1D
  0
LAYER
  5
37
100
AcDbSymbolTableRecord
100
AcDbLayerTableRecord
  2
MASSGRENZEN
 70
        64
 62
       172
  6
CONTINUOUS
290
         1
370
        25
390
1D
  0
LAYER
  5
38
100
AcDbSymbolTableRecord
100
AcDbLayerTableRecord
  2
TOLERANZEN
 70
        64
 62
       212
  6
CONTINUOUS
290
         1
370
         0
390
1D
  0
LAYER
  5
39
100
AcDbSymbolTableRecord
100
AcDbLayerTableRecord
  2
BEMASSUNG
 70
        64
 62
         7
  6
CONTINUOUS
290
         1
370
        25
390
1D
  0
LAYER
  5
3A
100
AcDbSymbolTableRecord
100
AcDbLayerTableRecord
  2
HILFSLINIEN
 70
        64
 62
         3
  6
CONTINUOUS
290
         1
370
         0
390
1D
  0
LAYER
  5
3B
100
AcDbSymbolTableRecord
100
AcDbLayerTableRecord
  2
MITTELLINIEN
 70
        64
 62
         5
  6
DASHDOT
290
         1
370
        25
390
1D
  0
LAYER
  5
3C
100
AcDbSymbolTableRecord
100
AcDbLayerTableRecord
  2
BESCHRIFTUNG00
 70
        64
 62
         7
  6
CONTINUOUS
290
         1
370
        25
390
1D
  0
LAYER
  5
3D
100
AcDbSymbolTableRecord
100
AcDbLayerTableRecord
  2
BESCHRIFTUNG0
 70
        64
 62
         7
  6
CONTINUOUS
290
         1
370
        25
390
1D
  0
LAYER
  5
3E
100
AcDbSymbolTableRecord
100
AcDbLayerTableRecord
  2
GEWINDELINIEN
 70
        64
 62
       212
  6
CONTINUOUS
290
         1
370
        25
390
1D
  0
LAYER
  5
3F
100
AcDbSymbolTableRecord
100
AcDbLayerTableRecord
  2
UNSICHTBARE
 70
        64
 62
        92
  6
DASHED
290
         1
370
        25
390
1D
  0
LAYER
  5
40
100
AcDbSymbolTableRecord
100
AcDbLayerTableRecord
  2
VERDECKTE
 70
        64
 62
        92
  6
DASHED
290
         1
370
        25
390
1D
  0
LAYER
  5
41
100
AcDbSymbolTableRecord
100
AcDbLayerTableRecord
  2
LICHTKANTEN
 70
        64
 62
         8
  6
CONTINUOUS
290
         1
370
        25
390
1D
  0
LAYER
  5
42
100
AcDbSymbolTableRecord
100
AcDbLayerTableRecord
  2
SCHNITTVERLAUF
 70
        64
 62
        34
  6
DASHDOT
290
         1
370
        70
390
1D
  0
LAYER
  5
43
100
AcDbSymbolTableRecord
100
AcDbLayerTableRecord
  2
KENNZEICHNUNG
 70
        64
 62
         7
  6
CONTINUOUS
290
         1
370
         0
390
1D
  0
LAYER
  5
44
100
AcDbSymbolTableRecord
100
AcDbLayerTableRecord
  2
PFEILE
 70
        64
 62
         7
  6
CONTINUOUS
290
         1
370
        70
390
1D
  0
LAYER
  5
45
100
AcDbSymbolTableRecord
100
AcDbLayerTableRecord
  2
SCHNITTDARSTELLUNG
 70
        64
 62
         7
  6
CONTINUOUS
290
         1
370
         0
390
1D
  0
LAYER
  5
46
100
AcDbSymbolTableRecord
100
AcDbLayerTableRecord
  2
2501_3P
 70
        64
 62
        30
  6
CONTINUOUS
290
         1
370
         0
390
1D
  0
LAYER
  5
47
100
AcDbSymbolTableRecord
100
AcDbLayerTableRecord
  2
2501_1L
 70
        64
 62
        30
  6
CONTINUOUS
290
         1
370
         0
390
1D
  0
LAYER
  5
48
100
AcDbSymbolTableRecord
100
AcDbLayerTableRecord
  2
2501_2P
 70
        64
 62
        30
  6
CONTINUOUS
290
         1
370
         0
390
1D
  0
LAYER
  5
49
100
AcDbSymbolTableRecord
100
AcDbLayerTableRecord
  2
2501_2T
 70
        64
 62
        14
  6
CONTINUOUS
290
         1
370
         0
390
1D
  0
LAYER
  5
4A
100
AcDbSymbolTableRecord
100
AcDbLayerTableRecord
  2
2501_1R
 70
        64
 62
        14
  6
CONTINUOUS
290
         1
370
         0
390
1D
  0
LAYER
  5
4B
100
AcDbSymbolTableRecord
100
AcDbLayerTableRecord
  2
2501_7P
 70
        64
 62
        30
  6
CONTINUOUS
290
         1
370
         0
390
1D
  0
LAYER
  5
4C
100
AcDbSymbolTableRecord
100
AcDbLayerTableRecord
  2
2501_7T
 70
        64
 62
        14
  6
CONTINUOUS
290
         1
370
         0
390
1D
  0
LAYER
  5
4D
100
AcDbSymbolTableRecord
100
AcDbLayerTableRecord
  2
2501_8P
 70
        64
 62
        30
  6
CONTINUOUS
290
         1
370
         0
390
1D
  0
LAYER
  5
4E
100
AcDbSymbolTableRecord
100
AcDbLayerTableRecord
  2
2501___ UNTERZUG FÜR EINZELHEBEL
 70
        64
 62
         6
  6
DASHDOT
290
         1
370
         0
390
1D
  0
LAYER
  5
4F
100
AcDbSymbolTableRecord
100
AcDbLayerTableRecord
  2
2500_1T
 70
        64
 62
        14
  6
CONTINUOUS
290
         1
370
         0
390
1D
  0
LAYER
  5
50
100
AcDbSymbolTableRecord
100
AcDbLayerTableRecord
  2
2500_1P
 70
        64
 62
        30
  6
CONTINUOUS
290
         1
370
         0
390
1D
  0
LAYER
  5
51
100
AcDbSymbolTableRecord
100
AcDbLayerTableRecord
  2
2500_2T
 70
        64
 62
        14
  6
CONTINUOUS
290
         1
370
         0
390
1D
  0
LAYER
  5
52
100
AcDbSymbolTableRecord
100
AcDbLayerTableRecord
  2
2500_2P
 70
        64
 62
        30
  6
CONTINUOUS
290
         1
370
         0
390
1D
  0
LAYER
  5
53
100
AcDbSymbolTableRecord
100
AcDbLayerTableRecord
  2
2500___ HILFSPFADE FÜR UNTERZUG
 70
        64
 62
         6
  6
DASHDOT
290
         1
370
         0
390
1D
  0
LAYER
  5
54
100
AcDbSymbolTableRecord
100
AcDbLayerTableRecord
  2
2502_5P
 70
        64
 62
        30
  6
CONTINUOUS
290
         1
370
         0
390
1D
  0
LAYER
  5
55
100
AcDbSymbolTableRecord
100
AcDbLayerTableRecord
  2
2502_5T
 70
        64
 62
        14
  6
CONTINUOUS
290
         1
370
         0
390
1D
  0
LAYER
  5
56
100
AcDbSymbolTableRecord
100
AcDbLayerTableRecord
  2
2502_7P
 70
        64
 62
        30
  6
CONTINUOUS
290
         1
370
         0
390
1D
  0
LAYER
  5
57
100
AcDbSymbolTableRecord
100
AcDbLayerTableRecord
  2
2502_7T
 70
        64
 62
        14
  6
CONTINUOUS
290
         1
370
         0
390
1D
  0
LAYER
  5
58
100
AcDbSymbolTableRecord
100
AcDbLayerTableRecord
  2
2502_9P
 70
        64
 62
        30
  6
CONTINUOUS
290
         1
370
         0
390
1D
  0
LAYER
  5
59
100
AcDbSymbolTableRecord
100
AcDbLayerTableRecord
  2
2502_1P
 70
        64
 62
        30
  6
CONTINUOUS
290
         1
370
         0
390
1D
  0
LAYER
  5
5A
100
AcDbSymbolTableRecord
100
AcDbLayerTableRecord
  2
2502_8P
 70
        64
 62
        30
  6
CONTINUOUS
290
         1
370
         0
390
1D
  0
LAYER
  5
5B
100
AcDbSymbolTableRecord
100
AcDbLayerTableRecord
  2
2502_4L
 70
        64
 62
        30
  6
CONTINUOUS
290
         1
370
         0
390
1D
  0
LAYER
  5
5C
100
AcDbSymbolTableRecord
100
AcDbLayerTableRecord
  2
2502_4R
 70
        64
 62
        14
  6
CONTINUOUS
290
         1
370
         0
390
1D
  0
LAYER
  5
5D
100
AcDbSymbolTableRecord
100
AcDbLayerTableRecord
  2
2502_6T
 70
        64
 62
        14
  6
CONTINUOUS
290
         1
370
         0
390
1D
  0
LAYER
  5
5E
100
AcDbSymbolTableRecord
100
AcDbLayerTableRecord
  2
2502_6P
 70
        64
 62
        30
  6
CONTINUOUS
290
         1
370
         0
390
1D
  0
LAYER
  5
5F
100
AcDbSymbolTableRecord
100
AcDbLayerTableRecord
  2
2502_2T
 70
        64
 62
        14
  6
CONTINUOUS
290
         1
370
         0
390
1D
  0
LAYER
  5
60
100
AcDbSymbolTableRecord
100
AcDbLayerTableRecord
  2
2502_2P
 70
        64
 62
        30
  6
CONTINUOUS
290
         1
370
         0
390
1D
  0
LAYER
  5
61
100
AcDbSymbolTableRecord
100
AcDbLayerTableRecord
  2
2502___ UNTERZUG FÜR ZWEI ABTRIEBE
 70
        64
 62
         6
  6
DASHDOT
290
         1
370
         0
390
1D
  0
LAYER
  5
62
100
AcDbSymbolTableRecord
100
AcDbLayerTableRecord
  2
2503_6P
 70
        64
 62
        30
  6
CONTINUOUS
290
         1
370
         0
390
1D
  0
LAYER
  5
63
100
AcDbSymbolTableRecord
100
AcDbLayerTableRecord
  2
2503_6T
 70
        64
 62
        14
  6
CONTINUOUS
290
         1
370
         0
390
1D
  0
LAYER
  5
64
100
AcDbSymbolTableRecord
100
AcDbLayerTableRecord
  2
2503_4P
 70
        64
 62
        30
  6
CONTINUOUS
290
         1
370
         0
390
1D
  0
LAYER
  5
65
100
AcDbSymbolTableRecord
100
AcDbLayerTableRecord
  2
2503_4T
 70
        64
 62
        14
  6
CONTINUOUS
290
         1
370
         0
390
1D
  0
LAYER
  5
66
100
AcDbSymbolTableRecord
100
AcDbLayerTableRecord
  2
2503_2P
 70
        64
 62
        30
  6
CONTINUOUS
290
         1
370
         0
390
1D
  0
LAYER
  5
67
100
AcDbSymbolTableRecord
100
AcDbLayerTableRecord
  2
2503_8P
 70
        64
 62
        30
  6
CONTINUOUS
290
         1
370
         0
390
1D
  0
LAYER
  5
68
100
AcDbSymbolTableRecord
100
AcDbLayerTableRecord
  2
2503_3T
 70
        64
 62
        14
  6
CONTINUOUS
290
         1
370
         0
390
1D
  0
LAYER
  5
69
100
AcDbSymbolTableRecord
100
AcDbLayerTableRecord
  2
2503_3P
 70
        64
 62
        30
  6
CONTINUOUS
290
         1
370
         0
390
1D
  0
LAYER
  5
6A
100
AcDbSymbolTableRecord
100
AcDbLayerTableRecord
  2
2503_1T
 70
        64
 62
        14
  6
CONTINUOUS
290
         1
370
         0
390
1D
  0
LAYER
  5
6B
100
AcDbSymbolTableRecord
100
AcDbLayerTableRecord
  2
2503_1P
 70
        64
 62
        30
  6
CONTINUOUS
290
         1
370
         0
390
1D
  0
LAYER
  5
6C
100
AcDbSymbolTableRecord
100
AcDbLayerTableRecord
  2
2503_5P
 70
        64
 62
        30
  6
CONTINUOUS
290
         1
370
         0
390
1D
  0
LAYER
  5
6D
100
AcDbSymbolTableRecord
100
AcDbLayerTableRecord
  2
2503_5T
 70
        64
 62
        14
  6
CONTINUOUS
290
         1
370
         0
390
1D
  0
LAYER
  5
6E
100
AcDbSymbolTableRecord
100
AcDbLayerTableRecord
  2
2503_7P
 70
        64
 62
        30
  6
CONTINUOUS
290
         1
370
         0
390
1D
  0
LAYER
  5
6F
100
AcDbSymbolTableRecord
100
AcDbLayerTableRecord
  2
2503_7T
 70
        64
 62
        14
  6
CONTINUOUS
290
         1
370
         0
390
1D
  0
LAYER
  5
70
100
AcDbSymbolTableRecord
100
AcDbLayerTableRecord
  2
2503___ UNTERZUG FÜR DREISTELLIGEN ANTRIEB
 70
        64
 62
         6
  6
DASHDOT
290
         1
370
         0
390
1D
  0
LAYER
  5
71
100
AcDbSymbolTableRecord
100
AcDbLayerTableRecord
  2
PFADE
 70
        64
 62
        30
  6
CONTINUOUS
290
         1
370
         0
390
1D
  0
LAYER
  5
72
100
AcDbSymbolTableRecord
100
AcDbLayerTableRecord
  2
 2001_2 BODEN
 70
        64
 62
        14
  6
CONTINUOUS
290
         1
370
        18
390
1D
  0
LAYER
  5
73
100
AcDbSymbolTableRecord
100
AcDbLayerTableRecord
  2
 2001_1 RAHMEN
 70
        64
 62
         7
  6
CONTINUOUS
290
         1
370
        18
390
1D
  0
LAYER
  5
74
100
AcDbSymbolTableRecord
100
AcDbLayerTableRecord
  2
2001__ GEBÄUDE
 70
        64
 62
         7
  6
CONTINUOUS
290
         1
370
         0
390
1D
  0
LAYER
  5
75
100
AcDbSymbolTableRecord
100
AcDbLayerTableRecord
  2
2101__ HEBELBANK
 70
        64
 62
         9
  6
CONTINUOUS
290
         1
370
        18
390
1D
  0
LAYER
  5
76
100
AcDbSymbolTableRecord
100
AcDbLayerTableRecord
  2
2501_1 UNTERZUGRAHMEN
 70
        64
 62
         7
  6
CONTINUOUS
290
         1
370
         0
390
1D
  0
LAYER
  5
77
100
AcDbSymbolTableRecord
100
AcDbLayerTableRecord
  2
2501_2-4 ROLLEN UMGELEGT
 70
        64
 62
       134
  6
DASHED
290
         1
370
        18
390
1D
  0
LAYER
  5
78
100
AcDbSymbolTableRecord
100
AcDbLayerTableRecord
  2
2501_2-4 ROLLEN
 70
        64
 62
       134
  6
CONTINUOUS
290
         1
370
        18
390
1D
  0
LAYER
  5
79
100
AcDbSymbolTableRecord
100
AcDbLayerTableRecord
  2
2501_5 SCHIEBER VERSCHOBEN
 70
        64
 62
       142
  6
DASHED
290
         1
370
        18
390
1D
  0
LAYER
  5
7A
100
AcDbSymbolTableRecord
100
AcDbLayerTableRecord
  2
2501_5 SCHIEBER
 70
        64
 62
       142
  6
CONTINUOUS
290
         1
370
        18
390
1D
  0
LAYER
  5
7B
100
AcDbSymbolTableRecord
100
AcDbLayerTableRecord
  2
2501_10 SCHALTER LINKS_OBEN
 70
        64
 62
       230
  6
DASHED
290
         1
370
        18
390
1D
  0
LAYER
  5
7C
100
AcDbSymbolTableRecord
100
AcDbLayerTableRecord
  2
2501_10 SCHALTER
 70
        64
 62
       230
  6
CONTINUOUS
290
         1
370
        18
390
1D
  0
LAYER
  5
7D
100
AcDbSymbolTableRecord
100
AcDbLayerTableRecord
  2
2501_6 HEBEL 0_0_22_5 UMGELEGT LI
 70
        64
 62
        30
  6
DASHED
290
         1
370
        18
390
1D
  0
LAYER
  5
7E
100
AcDbSymbolTableRecord
100
AcDbLayerTableRecord
  2
2501_6 HEBEL 0_0_22_5 UMGELEGT RE
 70
        64
 62
        30
  6
DASHDOT
290
         1
370
        18
390
1D
  0
LAYER
  5
7F
100
AcDbSymbolTableRecord
100
AcDbLayerTableRecord
  2
2501_6 HEBEL 0_0_22_5
 70
        64
 62
        11
  6
CONTINUOUS
290
         1
370
        18
390
1D
  0
LAYER
  5
80
100
AcDbSymbolTableRecord
100
AcDbLayerTableRecord
  2
2501_7 HEBEL 22_5_0_22_5 UMGELEGT LI
 70
        64
 62
        34
  6
DASHED
290
         1
370
        18
390
1D
  0
LAYER
  5
81
100
AcDbSymbolTableRecord
100
AcDbLayerTableRecord
  2
2501_7 HEBEL 22_5_0_22_5 UMGELEGT RE
 70
        64
 62
        14
  6
DASHDOT
290
         1
370
        18
390
1D
  0
LAYER
  5
82
100
AcDbSymbolTableRecord
100
AcDbLayerTableRecord
  2
2501_7 HEBEL 22_5_0_22_5
 70
        64
 62
        14
  6
CONTINUOUS
290
         1
370
        18
390
1D
  0
LAYER
  5
83
100
AcDbSymbolTableRecord
100
AcDbLayerTableRecord
  2
2501_8 HEBEL 22_5_0_0 UMGELEGT LI
 70
        64
 62
        30
  6
DASHED
290
         1
370
        18
390
1D
  0
LAYER
  5
84
100
AcDbSymbolTableRecord
100
AcDbLayerTableRecord
  2
2501_8 HEBEL 22_5_0_0 UMGELEGT RE
 70
        64
 62
        30
  6
DASHDOT
290
         1
370
        18
390
1D
  0
LAYER
  5
85
100
AcDbSymbolTableRecord
100
AcDbLayerTableRecord
  2
2501_8 HEBEL 22_5_0_0
 70
        64
 62
       230
  6
CONTINUOUS
290
         1
370
        18
390
1D
  0
LAYER
  5
86
100
AcDbSymbolTableRecord
100
AcDbLayerTableRecord
  2
2501_9 HEBEL 22_5_0_-22_5 UMGELEGT LI0
 70
        64
 62
        34
  6
DASHED
290
         1
370
        18
390
1D
  0
LAYER
  5
87
100
AcDbSymbolTableRecord
100
AcDbLayerTableRecord
  2
2501_9 HEBEL 22_5_0_-22_5 UMGELEGT RE0
 70
        64
 62
        14
  6
DASHDOT
290
         1
370
        18
390
1D
  0
LAYER
  5
88
100
AcDbSymbolTableRecord
100
AcDbLayerTableRecord
  2
2501_9 HEBEL 22_5_0_-22_5
 70
        64
 62
       190
  6
CONTINUOUS
290
         1
370
        18
390
1D
  0
LAYER
  5
89
100
AcDbSymbolTableRecord
100
AcDbLayerTableRecord
  2
2501__ UNTERZUG
 70
        64
 62
         9
  6
CONTINUOUS
290
         1
370
        18
390
1D
  0
LAYER
  5
8A
100
AcDbSymbolTableRecord
100
AcDbLayerTableRecord
  2
KONSTRUKTION
 70
        64
 62
         7
  6
CONTINUOUS
290
         1
370
         0
390
1D
  0
LAYER
  5
8B
100
AcDbSymbolTableRecord
100
AcDbLayerTableRecord
  2
STANDARD
 70
        64
 62
         7
  6
CONTINUOUS
290
         1
370
         0
390
1D
  0
ENDTAB
  0
TABLE
  2
STYLE
  5
3
100
AcDbSymbolTable
 70
         7
  0
STYLE
  5
17
100
AcDbSymbolTableRecord
100
AcDbTextStyleTableRecord
  2
Standard
 70
         0
 40
0.0
 41
1.0
 50
0.0
 71
         0
 42
0.0
  3
txt
  4

  0
STYLE
  5
2D
100
AcDbSymbolTableRecord
100
AcDbTextStyleTableRecord
  2
CADdy
 70
         0
 40
0.0
 41
1.0
 50
0.0
 71
         0
 42
3.5
  3
txt.shx
  4

  0
STYLE
  5
2E
100
AcDbSymbolTableRecord
100
AcDbTextStyleTableRecord
  2
Arial
 70
         0
 40
0.0
 41
1.0
 50
0.0
 71
         0
 42
3.5
  3
arial.ttf
  4

1001
ACAD
1000
Arial
1071
       34
  0
STYLE
  5
2F
100
AcDbSymbolTableRecord
100
AcDbTextStyleTableRecord
  2
Isonorm
 70
         0
 40
0.0
 41
1.0
 50
0.0
 71
         0
 42
3.5
  3
txt.shx
  4

  0
STYLE
  5
30
100
AcDbSymbolTableRecord
100
AcDbTextStyleTableRecord
  2
Tahoma
 70
         0
 40
0.0
 41
1.0
 50
0.0
 71
         0
 42
3.5
  3
tahoma.ttf
  4

1001
ACAD
1000
Tahoma
1071
       34
  0
STYLE
  5
31
100
AcDbSymbolTableRecord
100
AcDbTextStyleTableRecord
  2
Microsoft Sans Serif
 70
         0
 40
0.0
 41
1.0
 50
0.0
 71
         0
 42
3.5
  3
micross.ttf
  4

1001
ACAD
1000
Microsoft Sans Serif
1071
       34
  0
STYLE
  5
32
100
AcDbSymbolTableRecord
100
AcDbTextStyleTableRecord
  2
Arial Rounded MT Bold
 70
         0
 40
0.0
 41
1.0
 50
0.0
 71
         0
 42
3.5
  3
txt.shx
  4

  0
ENDTAB
  0
TABLE
  2
VIEW
  5
5
100
AcDbSymbolTable
 70
         0
  0
ENDTAB
  0
TABLE
  2
UCS
  5
6
100
AcDbSymbolTable
 70
         0
  0
ENDTAB
  0
TABLE
  2
APPID
  5
8
100
AcDbSymbolTable
 70
         1
  0
APPID
  5
16
100
AcDbSymbolTableRecord
100
AcDbRegAppTableRecord
  2
ACAD
 70
        64
  0
ENDTAB
  0
TABLE
  2
DIMSTYLE
  5
9
100
AcDbSymbolTable
 70
         1
100
AcDbDimStyleTable
 71
         0
  0
DIMSTYLE
105
18
100
AcDbSymbolTableRecord
100
AcDbDimStyleTableRecord
  2
Standard
 70
         0
  3

  4

 40
1.0
 41
0.18
 42
0.0625
 43
0.38
 44
0.18
 45
0.0
 46
0.0
 47
0.0
 48
0.0
 71
         0
 72
         0
 73
         1
 74
         1
 75
         0
 76
         0
 77
         0
 78
         0
 79
         0
140
0.18
141
0.09
142
0.0
143
25.4
144
1.0
145
0.0
146
1.0
147
0.09
148
0.0
170
         0
171
         2
172
         0
173
         0
174
         0
175
         0
176
         0
177
         0
178
         0
179
         0
271
         4
272
         4
273
         2
274
         2
275
         0
276
         0
277
         2
278
        46
279
         0
280
         0
281
         0
282
         0
283
         1
284
         0
285
         0
286
         0
288
         0
289
         3
340
17
341
0
342
0
343
0
344
0
371
        -2
372
        -2
  0
ENDTAB
  0
TABLE
  2
BLOCK_RECORD
  5
1
100
AcDbSymbolTable
 70
         4
  0
BLOCK_RECORD
  5
A
100
AcDbSymbolTableRecord
100
AcDbBlockTableRecord
  2
*MODEL_SPACE
340
20
  0
BLOCK_RECORD
  5
B
100
AcDbSymbolTableRecord
100
AcDbBlockTableRecord
  2
*PAPER_SPACE
340
21
  0
BLOCK_RECORD
  5
8C
100
AcDbSymbolTableRecord
100
AcDbBlockTableRecord
  2
D343071744
340
0
102
{BLKREFS
331
351
102
}
  0
BLOCK_RECORD
  5
95
100
AcDbSymbolTableRecord
100
AcDbBlockTableRecord
  2
D343072000
340
0
102
{BLKREFS
331
352
102
}
  0
BLOCK_RECORD
  5
9E
100
AcDbSymbolTableRecord
100
AcDbBlockTableRecord
  2
D343058432
340
0
102
{BLKREFS
331
382
102
}
  0
BLOCK_RECORD
  5
A7
100
AcDbSymbolTableRecord
100
AcDbBlockTableRecord
  2
D343058688
340
0
102
{BLKREFS
331
383
102
}
  0
ENDTAB
  0
ENDSEC
  0
SECTION
  2
BLOCKS
  0
BLOCK
  5
D
100
AcDbEntity
  8
0
390
0
100
AcDbBlockBegin
  2
*MODEL_SPACE
 70
         0
 10
0.0
 20
0.0
 30
0.0
  3
*MODEL_SPACE
  1

  0
ENDBLK
  5
E
100
AcDbEntity
  8
0
390
0
100
AcDbBlockEnd
  0
BLOCK
  5
F
100
AcDbEntity
 67
         1
  8
0
390
0
100
AcDbBlockBegin
  2
*PAPER_SPACE
 70
         0
 10
0.0
 20
0.0
 30
0.0
  3
*PAPER_SPACE
  1

  0
ENDBLK
  5
10
100
AcDbEntity
 67
         1
  8
0
390
0
100
AcDbBlockEnd
  0
BLOCK
  5
8D
100
AcDbEntity
  8
BEMASSUNG
390
0
100
AcDbBlockBegin
  2
D343071744
 70
         0
 10
0.0
 20
0.0
 30
0.0
  3
D343071744
  1

  0
LINE
  5
8E
100
AcDbEntity
  8
MASSLINIEN
390
0
 62
       172
100
AcDbLine
 10
80.2827014699
 20
119.6407192888
 30
0.0
 11
92.2826365417
 21
119.6407192888
 31
0.0
  0
LINE
  5
8F
100
AcDbEntity
  8
MASSLINIEN
390
0
 62
       172
100
AcDbLine
 10
80.2827014699
 20
114.6323041083
 30
0.0
 11
80.2827014699
 21
121.6407192888
 31
0.0
  0
LINE
  5
90
100
AcDbEntity
  8
MASSLINIEN
390
0
 62
       172
100
AcDbLine
 10
92.2826365417
 20
113.9746772041
 30
0.0
 11
92.2826365417
 21
121.6407192888
 31
0.0
  0
SOLID
  5
91
100
AcDbEntity
  8
MASSGRENZEN
390
0
100
AcDbTrace
 10
80.2827014699
 20
119.6407192888
 30
0.0
 11
83.257036054
 21
120.0322978655
 31
0.0
 12
83.257036054
 22
119.2491407121
 32
0.0
 13
83.257036054
 23
119.2491407121
 33
0.0
  0
SOLID
  5
92
100
AcDbEntity
  8
MASSGRENZEN
390
0
100
AcDbTrace
 10
92.2826365417
 20
119.6407192888
 30
0.0
 11
89.3083019576
 21
119.2491407121
 31
0.0
 12
89.3083019576
 22
120.0322978655
 32
0.0
 13
89.3083019576
 23
120.0322978655
 33
0.0
  0
MTEXT
  5
93
100
AcDbEntity
  8
MASSTEXTE
390
0
 62
       212
100
AcDbMText
 10
86.2826690058
 20
122.0967192888
 30
0.0
 40
2.0
 41
0.0
 71
         5
 72
         1
  1
\W1.135145;\A1;12
  7
Arial
 73
         0
 44
0.0
  0
ENDBLK
  5
94
100
AcDbEntity
  8
0
390
0
100
AcDbBlockEnd
  0
BLOCK
  5
96
100
AcDbEntity
  8
BEMASSUNG
390
0
100
AcDbBlockBegin
  2
D343072000
 70
         0
 10
0.0
 20
0.0
 30
0.0
  3
D343072000
  1

  0
LINE
  5
97
100
AcDbEntity
  8
MASSLINIEN
390
0
 62
       172
100
AcDbLine
 10
81.6459785124
 20
107.8178421336
 30
0.0
 11
89.6451653303
 21
107.8178421336
 31
0.0
  0
LINE
  5
98
100
AcDbEntity
  8
MASSLINIEN
390
0
 62
       172
100
AcDbLine
 10
81.6459785124
 20
104.2211814164
 30
0.0
 11
81.6459785124
 21
109.8178421336
 31
0.0
  0
LINE
  5
99
100
AcDbEntity
  8
MASSLINIEN
390
0
 62
       172
100
AcDbLine
 10
89.6451653303
 20
103.776018589
 30
0.0
 11
89.6451653303
 21
109.8178421336
 31
0.0
  0
SOLID
  5
9A
100
AcDbEntity
  8
MASSGRENZEN
390
0
100
AcDbTrace
 10
81.6459785124
 20
107.8178421336
 30
0.0
 11
84.6203130966
 21
108.2094207103
 31
0.0
 12
84.6203130966
 22
107.426263557
 32
0.0
 13
84.6203130966
 23
107.426263557
 33
0.0
  0
SOLID
  5
9B
100
AcDbEntity
  8
MASSGRENZEN
390
0
100
AcDbTrace
 10
89.6451653303
 20
107.8178421336
 30
0.0
 11
86.6708307462
 21
107.426263557
 31
0.0
 12
86.6708307462
 22
108.2094207103
 32
0.0
 13
86.6708307462
 23
108.2094207103
 33
0.0
  0
MTEXT
  5
9C
100
AcDbEntity
  8
MASSTEXTE
390
0
 62
       212
100
AcDbMText
 10
85.6455719214
 20
110.2738421336
 30
0.0
 40
2.0
 41
0.0
 71
         5
 72
         1
  1
\W1.135145;\A1;8
  7
Arial
 73
         0
 44
0.0
  0
ENDBLK
  5
9D
100
AcDbEntity
  8
0
390
0
100
AcDbBlockEnd
  0
BLOCK
  5
9F
100
AcDbEntity
  8
BEMASSUNG
390
0
100
AcDbBlockBegin
  2
D343058432
 70
         0
 10
0.0
 20
0.0
 30
0.0
  3
D343058432
  1

  0
LINE
  5
A0
100
AcDbEntity
  8
MASSLINIEN
390
0
 62
       172
100
AcDbLine
 10
133.0066836704
 20
239.823003016
 30
0.0
 11
18.5023685063
 21
239.823003016
 31
0.0
  0
LINE
  5
A1
100
AcDbEntity
  8
MASSLINIEN
390
0
 62
       172
100
AcDbLine
 10
133.0066836704
 20
202.9074005382
 30
0.0
 11
133.0066836704
 21
241.823003016
 31
0.0
  0
LINE
  5
A2
100
AcDbEntity
  8
MASSLINIEN
390
0
 62
       172
100
AcDbLine
 10
18.5023685063
 20
202.9074005382
 30
0.0
 11
18.5023685063
 21
241.823003016
 31
0.0
  0
SOLID
  5
A3
100
AcDbEntity
  8
MASSGRENZEN
390
0
100
AcDbTrace
 10
133.0066836704
 20
239.823003016
 30
0.0
 11
130.0323490863
 21
239.4314244394
 31
0.0
 12
130.0323490863
 22
240.2145815927
 32
0.0
 13
130.0323490863
 23
240.2145815927
 33
0.0
  0
SOLID
  5
A4
100
AcDbEntity
  8
MASSGRENZEN
390
0
100
AcDbTrace
 10
18.5023685063
 20
239.823003016
 30
0.0
 11
21.4767030905
 21
240.2145815927
 31
0.0
 12
21.4767030905
 22
239.4314244394
 32
0.0
 13
21.4767030905
 23
239.4314244394
 33
0.0
  0
MTEXT
  5
A5
100
AcDbEntity
  8
MASSTEXTE
390
0
 62
       212
100
AcDbMText
 10
75.7545260884
 20
242.279003016
 30
0.0
 40
2.0
 41
0.0
 71
         5
 72
         1
  1
\W1.135137;\A1;114.5
  7
Arial
 11
1.0
 21
0.0
 31
0.0
 73
         0
 44
0.0
  0
ENDBLK
  5
A6
100
AcDbEntity
  8
0
390
0
100
AcDbBlockEnd
  0
BLOCK
  5
A8
100
AcDbEntity
  8
BEMASSUNG
390
0
100
AcDbBlockBegin
  2
D343058688
 70
         0
 10
0.0
 20
0.0
 30
0.0
  3
D343058688
  1

  0
LINE
  5
A9
100
AcDbEntity
  8
MASSLINIEN
390
0
 62
       172
100
AcDbLine
 10
58.5014022962
 20
229.823003016
 30
0.0
 11
18.5023685063
 21
229.823003016
 31
0.0
  0
LINE
  5
AA
100
AcDbEntity
  8
MASSLINIEN
390
0
 62
       172
100
AcDbLine
 10
58.5014022962
 20
203.4074005382
 30
0.0
 11
58.5014022962
 21
231.823003016
 31
0.0
  0
LINE
  5
AB
100
AcDbEntity
  8
MASSLINIEN
390
0
 62
       172
100
AcDbLine
 10
18.5023685063
 20
202.9074005382
 30
0.0
 11
18.5023685063
 21
231.823003016
 31
0.0
  0
SOLID
  5
AC
100
AcDbEntity
  8
MASSGRENZEN
390
0
100
AcDbTrace
 10
58.5014022962
 20
229.823003016
 30
0.0
 11
55.527067712
 21
229.4314244394
 31
0.0
 12
55.527067712
 22
230.2145815927
 32
0.0
 13
55.527067712
 23
230.2145815927
 33
0.0
  0
SOLID
  5
AD
100
AcDbEntity
  8
MASSGRENZEN
390
0
100
AcDbTrace
 10
18.5023685063
 20
229.823003016
 30
0.0
 11
21.4767030905
 21
230.2145815927
 31
0.0
 12
21.4767030905
 22
229.4314244394
 32
0.0
 13
21.4767030905
 23
229.4314244394
 33
0.0
  0
MTEXT
  5
AE
100
AcDbEntity
  8
MASSTEXTE
390
0
 62
       212
100
AcDbMText
 10
38.5018854012
 20
232.279003016
 30
0.0
 40
2.0
 41
0.0
 71
         5
 72
         1
  1
\W1.135145;\A1;40
  7
Arial
 11
1.0
 21
0.0
 31
0.0
 73
         0
 44
0.0
  0
ENDBLK
  5
AF
100
AcDbEntity
  8
0
390
0
100
AcDbBlockEnd
  0
ENDSEC
  0
SECTION
  2
ENTITIES
  0
TEXT
  5
B0
100
AcDbEntity
  8
BESCHRIFTUNG
390
0
100
AcDbText
 10
129.6929117117
 20
7.2230888889
 30
0.0
 40
3.0
  1
2501 Kv Abtrieb für Einzelhebel
 41
1.143726346
  7
Arial
 11
129.6929117117
 21
10.2230888889
 31
0.0
100
AcDbText
 73
         3
  0
TEXT
  5
B1
100
AcDbEntity
  8
BESCHRIFTUNG
390
0
100
AcDbText
 10
129.6929117117
 20
29.3230888889
 30
0.0
 40
3.3
  1
2026-05-08
 41
1.0318365856
  7
Arial
 11
129.6929117117
 21
32.6230888889
 31
0.0
100
AcDbText
 73
         3
  0
LINE
  5
B2
100
AcDbEntity
  8
 2001_2 BODEN
390
0
100
AcDbLine
 10
20.3968536845
 20
255.4074005382
 30
0.0
 11
111.974113482
 21
255.4074005382
 31
0.0
  0
LINE
  5
B3
100
AcDbEntity
  8
 2001_2 BODEN
390
0
100
AcDbLine
 10
20.7282599345
 20
249.4074005382
 30
0.0
 11
111.974113482
 21
249.4074005382
 31
0.0
  0
TEXT
  5
B4
100
AcDbEntity
  8
BESCHRIFTUNG
390
0
100
AcDbText
 10
38.0252773045
 20
250.686075694
 30
0.0
 40
3.0
  1
2001.1
 41
1.1351381256
  7
Arial
100
AcDbText
  0
LINE
  5
B5
100
AcDbEntity
  8
2501_2-4 ROLLEN
390
0
100
AcDbLine
 10
166.2588886969
 20
244.1815533421
 30
0.0
 11
166.2588886969
 21
245.1815533421
 31
0.0
  0
LINE
  5
B6
100
AcDbEntity
  8
MITTELLINIEN
390
0
100
AcDbLine
 10
95.6064458319
 20
208.7884296646
 30
0.0
 11
95.6064458319
 21
172.0708306217
 31
0.0
  0
TEXT
  5
B7
100
AcDbEntity
  8
BESCHRIFTUNG0
390
0
100
AcDbText
 10
176.916148276
 20
179.4574817548
 30
0.0
 40
2.5
  1
2501.10
 41
0.810868695
  7
Arial
100
AcDbText
  0
LINE
  5
B8
100
AcDbEntity
  8
2501_1 UNTERZUGRAHMEN
390
0
100
AcDbLine
 10
156.0088886969
 20
189.9074005382
 30
0.0
 11
156.0088886969
 21
204.9074005382
 31
0.0
  0
LINE
  5
B9
100
AcDbEntity
  8
2501_2-4 ROLLEN
390
0
100
AcDbLine
 10
167.2588886969
 20
226.2141355382
 30
0.0
 11
167.2588886969
 21
178.2141355382
 31
0.0
  0
LINE
  5
BA
100
AcDbEntity
  8
2501_2-4 ROLLEN
390
0
100
AcDbLine
 10
172.2588886969
 20
178.2141355382
 30
0.0
 11
172.2588886969
 21
226.2141355382
 31
0.0
  0
LINE
  5
BB
100
AcDbEntity
  8
2501_1 UNTERZUGRAHMEN
390
0
100
AcDbLine
 10
18.5023685063
 20
191.9074005382
 30
0.0
 11
132.9866836704
 21
191.9074005382
 31
0.0
  0
LINE
  5
BC
100
AcDbEntity
  8
2501_1 UNTERZUGRAHMEN
390
0
100
AcDbLine
 10
18.5023685063
 20
189.9074005382
 30
0.0
 11
132.9866836704
 21
189.9074005382
 31
0.0
  0
LINE
  5
BD
100
AcDbEntity
  8
UNSICHTBARE
390
0
100
AcDbLine
 10
27.7523685063
 20
187.9074005382
 30
0.0
 11
27.7523685063
 21
186.0074005382
 31
0.0
  0
LINE
  5
BE
100
AcDbEntity
  8
UNSICHTBARE
390
0
100
AcDbLine
 10
22.2523685063
 20
187.9074005382
 30
0.0
 11
22.2523685063
 21
186.0074005382
 31
0.0
  0
LINE
  5
BF
100
AcDbEntity
  8
MITTELLINIEN
390
0
100
AcDbLine
 10
25.0023685063
 20
180.9074005382
 30
0.0
 11
25.0023685063
 21
197.9074005382
 31
0.0
  0
LINE
  5
C0
100
AcDbEntity
  8
UNSICHTBARE
390
0
100
AcDbLine
 10
22.2523685063
 20
187.9074005382
 30
0.0
 11
27.7523685063
 21
187.9074005382
 31
0.0
  0
LINE
  5
C1
100
AcDbEntity
  8
UNSICHTBARE
390
0
100
AcDbLine
 10
27.6523685063
 20
185.9074005382
 30
0.0
 11
25.4023685063
 21
185.9074005382
 31
0.0
  0
LINE
  5
C2
100
AcDbEntity
  8
UNSICHTBARE
390
0
100
AcDbLine
 10
22.3523685063
 20
185.9074005382
 30
0.0
 11
24.6023685063
 21
185.9074005382
 31
0.0
  0
ARC
  5
C3
100
AcDbEntity
  8
UNSICHTBARE
390
0
100
AcDbCircle
 10
27.6523685063
 20
186.0074005382
 30
0.0
 40
0.1
100
AcDbArc
 50
270.0
 51
360.0
  0
ARC
  5
C4
100
AcDbEntity
  8
UNSICHTBARE
390
0
100
AcDbCircle
 10
22.3523685063
 20
186.0074005382
 30
0.0
 40
0.1
100
AcDbArc
 50
180.0
 51
270.0
  0
LINE
  5
C5
100
AcDbEntity
  8
UNSICHTBARE
390
0
100
AcDbLine
 10
24.6023685063
 20
185.9074005382
 30
0.0
 11
24.6023685063
 21
186.7574005382
 31
0.0
  0
LINE
  5
C6
100
AcDbEntity
  8
UNSICHTBARE
390
0
100
AcDbLine
 10
25.4023685063
 20
185.9074005382
 30
0.0
 11
25.4023685063
 21
186.7574005382
 31
0.0
  0
LINE
  5
C7
100
AcDbEntity
  8
UNSICHTBARE
390
0
100
AcDbLine
 10
25.4023685063
 20
186.7574005382
 30
0.0
 11
24.6023685063
 21
186.7574005382
 31
0.0
  0
LINE
  5
C8
100
AcDbEntity
  8
UNSICHTBARE
390
0
100
AcDbLine
 10
26.5023685063
 20
187.9074005382
 30
0.0
 11
26.5023685063
 21
192.6006655382
 31
0.0
  0
LINE
  5
C9
100
AcDbEntity
  8
UNSICHTBARE
390
0
100
AcDbLine
 10
26.1956335063
 20
189.4074005382
 30
0.0
 11
26.1956335063
 21
192.9074005382
 31
0.0
  0
LINE
  5
CA
100
AcDbEntity
  8
UNSICHTBARE
390
0
100
AcDbLine
 10
23.8091035063
 20
189.4074005382
 30
0.0
 11
23.8091035063
 21
192.9074005382
 31
0.0
  0
LINE
  5
CB
100
AcDbEntity
  8
UNSICHTBARE
390
0
100
AcDbLine
 10
23.5023685063
 20
187.9074005382
 30
0.0
 11
23.5023685063
 21
192.6006655382
 31
0.0
  0
LINE
  5
CC
100
AcDbEntity
  8
UNSICHTBARE
390
0
100
AcDbLine
 10
26.5023685063
 20
189.4074005382
 30
0.0
 11
23.5023685063
 21
189.4074005382
 31
0.0
  0
LINE
  5
CD
100
AcDbEntity
  8
UNSICHTBARE
390
0
100
AcDbLine
 10
26.1956335063
 20
192.9074005382
 30
0.0
 11
23.8091035063
 21
192.9074005382
 31
0.0
  0
LINE
  5
CE
100
AcDbEntity
  8
UNSICHTBARE
390
0
100
AcDbLine
 10
26.5023685063
 20
192.6006655382
 30
0.0
 11
23.5023685063
 21
192.6006655382
 31
0.0
  0
LINE
  5
CF
100
AcDbEntity
  8
UNSICHTBARE
390
0
100
AcDbLine
 10
26.5023685063
 20
192.6006655382
 30
0.0
 11
26.1956335063
 21
192.9074005382
 31
0.0
  0
LINE
  5
D0
100
AcDbEntity
  8
UNSICHTBARE
390
0
100
AcDbLine
 10
23.5023685063
 20
192.6006655382
 30
0.0
 11
23.8091035063
 21
192.9074005382
 31
0.0
  0
LINE
  5
D1
100
AcDbEntity
  8
UNSICHTBARE
390
0
100
AcDbLine
 10
123.7366836704
 20
187.9074005382
 30
0.0
 11
123.7366836704
 21
186.0074005382
 31
0.0
  0
LINE
  5
D2
100
AcDbEntity
  8
UNSICHTBARE
390
0
100
AcDbLine
 10
129.2366836704
 20
187.9074005382
 30
0.0
 11
129.2366836704
 21
186.0074005382
 31
0.0
  0
LINE
  5
D3
100
AcDbEntity
  8
MITTELLINIEN
390
0
100
AcDbLine
 10
126.4866836704
 20
180.9074005382
 30
0.0
 11
126.4866836704
 21
197.9074005382
 31
0.0
  0
LINE
  5
D4
100
AcDbEntity
  8
UNSICHTBARE
390
0
100
AcDbLine
 10
129.2366836704
 20
187.9074005382
 30
0.0
 11
123.7366836704
 21
187.9074005382
 31
0.0
  0
LINE
  5
D5
100
AcDbEntity
  8
UNSICHTBARE
390
0
100
AcDbLine
 10
123.8366836704
 20
185.9074005382
 30
0.0
 11
126.0866836704
 21
185.9074005382
 31
0.0
  0
LINE
  5
D6
100
AcDbEntity
  8
UNSICHTBARE
390
0
100
AcDbLine
 10
129.1366836704
 20
185.9074005382
 30
0.0
 11
126.8866836704
 21
185.9074005382
 31
0.0
  0
ARC
  5
D7
100
AcDbEntity
  8
UNSICHTBARE
390
0
100
AcDbCircle
 10
123.8366836704
 20
186.0074005382
 30
0.0
 40
0.1
100
AcDbArc
 50
180.0
 51
270.0
  0
ARC
  5
D8
100
AcDbEntity
  8
UNSICHTBARE
390
0
100
AcDbCircle
 10
129.1366836704
 20
186.0074005382
 30
0.0
 40
0.1
100
AcDbArc
 50
270.0
 51
360.0
  0
LINE
  5
D9
100
AcDbEntity
  8
UNSICHTBARE
390
0
100
AcDbLine
 10
126.8866836704
 20
185.9074005382
 30
0.0
 11
126.8866836704
 21
186.7574005382
 31
0.0
  0
LINE
  5
DA
100
AcDbEntity
  8
UNSICHTBARE
390
0
100
AcDbLine
 10
126.0866836704
 20
185.9074005382
 30
0.0
 11
126.0866836704
 21
186.7574005382
 31
0.0
  0
LINE
  5
DB
100
AcDbEntity
  8
UNSICHTBARE
390
0
100
AcDbLine
 10
126.0866836704
 20
186.7574005382
 30
0.0
 11
126.8866836704
 21
186.7574005382
 31
0.0
  0
LINE
  5
DC
100
AcDbEntity
  8
UNSICHTBARE
390
0
100
AcDbLine
 10
124.9866836704
 20
187.9074005382
 30
0.0
 11
124.9866836704
 21
192.6006655382
 31
0.0
  0
LINE
  5
DD
100
AcDbEntity
  8
UNSICHTBARE
390
0
100
AcDbLine
 10
125.2934186704
 20
189.4074005382
 30
0.0
 11
125.2934186704
 21
192.9074005382
 31
0.0
  0
LINE
  5
DE
100
AcDbEntity
  8
UNSICHTBARE
390
0
100
AcDbLine
 10
127.6799486704
 20
189.4074005382
 30
0.0
 11
127.6799486704
 21
192.9074005382
 31
0.0
  0
LINE
  5
DF
100
AcDbEntity
  8
UNSICHTBARE
390
0
100
AcDbLine
 10
127.9866836704
 20
187.9074005382
 30
0.0
 11
127.9866836704
 21
192.6006655382
 31
0.0
  0
LINE
  5
E0
100
AcDbEntity
  8
UNSICHTBARE
390
0
100
AcDbLine
 10
124.9866836704
 20
189.4074005382
 30
0.0
 11
127.9866836704
 21
189.4074005382
 31
0.0
  0
LINE
  5
E1
100
AcDbEntity
  8
UNSICHTBARE
390
0
100
AcDbLine
 10
125.2934186704
 20
192.9074005382
 30
0.0
 11
127.6799486704
 21
192.9074005382
 31
0.0
  0
LINE
  5
E2
100
AcDbEntity
  8
UNSICHTBARE
390
0
100
AcDbLine
 10
124.9866836704
 20
192.6006655382
 30
0.0
 11
127.9866836704
 21
192.6006655382
 31
0.0
  0
LINE
  5
E3
100
AcDbEntity
  8
UNSICHTBARE
390
0
100
AcDbLine
 10
124.9866836704
 20
192.6006655382
 30
0.0
 11
125.2934186704
 21
192.9074005382
 31
0.0
  0
LINE
  5
E4
100
AcDbEntity
  8
UNSICHTBARE
390
0
100
AcDbLine
 10
127.9866836704
 20
192.6006655382
 30
0.0
 11
127.6799486704
 21
192.9074005382
 31
0.0
  0
LINE
  5
E5
100
AcDbEntity
  8
UNSICHTBARE
390
0
100
AcDbLine
 10
144.7588886969
 20
187.9074005382
 30
0.0
 11
144.7588886969
 21
186.0074005382
 31
0.0
  0
LINE
  5
E6
100
AcDbEntity
  8
UNSICHTBARE
390
0
100
AcDbLine
 10
150.2588886969
 20
187.9074005382
 30
0.0
 11
150.2588886969
 21
186.0074005382
 31
0.0
  0
LINE
  5
E7
100
AcDbEntity
  8
MITTELLINIEN
390
0
100
AcDbLine
 10
147.5088886969
 20
180.9074005382
 30
0.0
 11
147.5088886969
 21
197.9074005382
 31
0.0
  0
LINE
  5
E8
100
AcDbEntity
  8
UNSICHTBARE
390
0
100
AcDbLine
 10
150.2588886969
 20
187.9074005382
 30
0.0
 11
144.7588886969
 21
187.9074005382
 31
0.0
  0
LINE
  5
E9
100
AcDbEntity
  8
UNSICHTBARE
390
0
100
AcDbLine
 10
144.8588886969
 20
185.9074005382
 30
0.0
 11
147.1088886969
 21
185.9074005382
 31
0.0
  0
LINE
  5
EA
100
AcDbEntity
  8
UNSICHTBARE
390
0
100
AcDbLine
 10
150.1588886969
 20
185.9074005382
 30
0.0
 11
147.9088886969
 21
185.9074005382
 31
0.0
  0
ARC
  5
EB
100
AcDbEntity
  8
UNSICHTBARE
390
0
100
AcDbCircle
 10
144.8588886969
 20
186.0074005382
 30
0.0
 40
0.1
100
AcDbArc
 50
180.0
 51
270.0
  0
ARC
  5
EC
100
AcDbEntity
  8
UNSICHTBARE
390
0
100
AcDbCircle
 10
150.1588886969
 20
186.0074005382
 30
0.0
 40
0.1
100
AcDbArc
 50
270.0
 51
360.0
  0
LINE
  5
ED
100
AcDbEntity
  8
UNSICHTBARE
390
0
100
AcDbLine
 10
147.9088886969
 20
185.9074005382
 30
0.0
 11
147.9088886969
 21
186.7574005382
 31
0.0
  0
LINE
  5
EE
100
AcDbEntity
  8
UNSICHTBARE
390
0
100
AcDbLine
 10
147.1088886969
 20
185.9074005382
 30
0.0
 11
147.1088886969
 21
186.7574005382
 31
0.0
  0
LINE
  5
EF
100
AcDbEntity
  8
UNSICHTBARE
390
0
100
AcDbLine
 10
147.1088886969
 20
186.7574005382
 30
0.0
 11
147.9088886969
 21
186.7574005382
 31
0.0
  0
LINE
  5
F0
100
AcDbEntity
  8
UNSICHTBARE
390
0
100
AcDbLine
 10
146.0088886969
 20
187.9074005382
 30
0.0
 11
146.0088886969
 21
192.6006655382
 31
0.0
  0
LINE
  5
F1
100
AcDbEntity
  8
UNSICHTBARE
390
0
100
AcDbLine
 10
146.3156236969
 20
189.4074005382
 30
0.0
 11
146.3156236969
 21
192.9074005382
 31
0.0
  0
LINE
  5
F2
100
AcDbEntity
  8
UNSICHTBARE
390
0
100
AcDbLine
 10
148.7021536969
 20
189.4074005382
 30
0.0
 11
148.7021536969
 21
192.9074005382
 31
0.0
  0
LINE
  5
F3
100
AcDbEntity
  8
UNSICHTBARE
390
0
100
AcDbLine
 10
149.0088886969
 20
187.9074005382
 30
0.0
 11
149.0088886969
 21
192.6006655382
 31
0.0
  0
LINE
  5
F4
100
AcDbEntity
  8
UNSICHTBARE
390
0
100
AcDbLine
 10
146.0088886969
 20
189.4074005382
 30
0.0
 11
149.0088886969
 21
189.4074005382
 31
0.0
  0
LINE
  5
F5
100
AcDbEntity
  8
UNSICHTBARE
390
0
100
AcDbLine
 10
146.3156236969
 20
192.9074005382
 30
0.0
 11
148.7021536969
 21
192.9074005382
 31
0.0
  0
LINE
  5
F6
100
AcDbEntity
  8
UNSICHTBARE
390
0
100
AcDbLine
 10
146.0088886969
 20
192.6006655382
 30
0.0
 11
149.0088886969
 21
192.6006655382
 31
0.0
  0
LINE
  5
F7
100
AcDbEntity
  8
UNSICHTBARE
390
0
100
AcDbLine
 10
146.0088886969
 20
192.6006655382
 30
0.0
 11
146.3156236969
 21
192.9074005382
 31
0.0
  0
LINE
  5
F8
100
AcDbEntity
  8
UNSICHTBARE
390
0
100
AcDbLine
 10
149.0088886969
 20
192.6006655382
 30
0.0
 11
148.7021536969
 21
192.9074005382
 31
0.0
  0
CIRCLE
  5
F9
100
AcDbEntity
  8
UNSICHTBARE
390
0
100
AcDbCircle
 10
63.5695331561
 20
182.0437641746
 30
0.0
 40
2.75
  0
LINE
  5
FA
100
AcDbEntity
  8
MITTELLINIEN
390
0
100
AcDbLine
 10
71.3190396441
 20
181.9563045157
 30
0.0
 11
55.820026668
 21
182.1312238335
 31
0.0
  0
LINE
  5
FB
100
AcDbEntity
  8
MITTELLINIEN
390
0
100
AcDbLine
 10
63.4820734972
 20
174.2942576865
 30
0.0
 11
63.656992815
 21
189.7932706626
 31
0.0
  0
LINE
  5
FC
100
AcDbEntity
  8
UNSICHTBARE
390
0
100
AcDbLine
 10
61.8828017194
 20
179.8352721414
 30
0.0
 11
65.7737053476
 21
183.6393316777
 31
0.0
  0
LINE
  5
FD
100
AcDbEntity
  8
UNSICHTBARE
390
0
100
AcDbLine
 10
61.3235364009
 20
180.4073055584
 30
0.0
 11
65.2144400291
 21
184.2113650947
 31
0.0
  0
ARC
  5
FE
100
AcDbEntity
  8
2501_10 SCHALTER LINKS_OBEN
390
0
100
AcDbCircle
 10
92.2423755826
 20
204.9184668954
 30
0.0
 40
1.5
100
AcDbArc
 50
21.9492743411
 51
201.9492743411
  0
ARC
  5
FF
100
AcDbEntity
  8
2501_10 SCHALTER
390
0
100
AcDbCircle
 10
95.6064458319
 20
205.5708306217
 30
0.0
 40
1.5
100
AcDbArc
 50
0.0
 51
180.0
  0
CIRCLE
  5
100
100
AcDbEntity
  8
2501_10 SCHALTER
390
0
100
AcDbCircle
 10
179.1088886969
 20
174.0708306217
 30
0.0
 40
0.625
  0
CIRCLE
  5
101
100
AcDbEntity
  8
2501_10 SCHALTER
390
0
100
AcDbCircle
 10
184.9088886969
 20
174.0708306217
 30
0.0
 40
0.625
  0
ARC
  5
102
100
AcDbEntity
  8
2501_10 SCHALTER LINKS_OBEN
390
0
100
AcDbCircle
 10
98.9705160811
 20
204.9184668954
 30
0.0
 40
1.5
100
AcDbArc
 50
338.0507256589
 51
518.0507256589
  0
CIRCLE
  5
103
100
AcDbEntity
  8
2501_2-4 ROLLEN
390
0
100
AcDbCircle
 10
58.5014022962
 20
201.9074005382
 30
0.0
 40
24.5
  0
LINE
  5
104
100
AcDbEntity
  8
2501_1 UNTERZUGRAHMEN
370
        18
390
0
100
AcDbLine
 10
154.0088886969
 20
191.9074005382
 30
0.0
 11
154.0088886969
 21
204.9074005382
 31
0.0
  0
LINE
  5
105
100
AcDbEntity
  8
2501_1 UNTERZUGRAHMEN
370
        18
390
0
100
AcDbLine
 10
156.0088886969
 20
204.9074005382
 30
0.0
 11
154.0088886969
 21
204.9074005382
 31
0.0
  0
LINE
  5
106
100
AcDbEntity
  8
2501_1 UNTERZUGRAHMEN
370
        18
390
0
100
AcDbLine
 10
154.0088886969
 20
191.9074005382
 30
0.0
 11
146.401297502
 21
191.9074005382
 31
0.0
  0
LINE
  5
107
100
AcDbEntity
  8
2501_1 UNTERZUGRAHMEN
390
0
100
AcDbLine
 10
189.0088886969
 20
189.9074005382
 30
0.0
 11
189.0088886969
 21
204.9074005382
 31
0.0
  0
LINE
  5
108
100
AcDbEntity
  8
2501_1 UNTERZUGRAHMEN
370
        18
390
0
100
AcDbLine
 10
189.0088886969
 20
204.9074005382
 30
0.0
 11
187.0088886969
 21
204.9074005382
 31
0.0
  0
LINE
  5
109
100
AcDbEntity
  8
2501_1 UNTERZUGRAHMEN
370
        18
390
0
100
AcDbLine
 10
187.0088886969
 20
191.9074005382
 30
0.0
 11
174.0088886969
 21
191.9074005382
 31
0.0
  0
LINE
  5
10A
100
AcDbEntity
  8
2501_1 UNTERZUGRAHMEN
370
        18
390
0
100
AcDbLine
 10
174.0088886969
 20
189.9074005382
 30
0.0
 11
174.0088886969
 21
191.9074005382
 31
0.0
  0
LINE
  5
10B
100
AcDbEntity
  8
2501_1 UNTERZUGRAHMEN
390
0
100
AcDbLine
 10
174.0088886969
 20
189.9074005382
 30
0.0
 11
189.0088886969
 21
189.9074005382
 31
0.0
  0
LINE
  5
10C
100
AcDbEntity
  8
2501_1 UNTERZUGRAHMEN
390
0
100
AcDbLine
 10
26.5023685063
 20
204.9074005382
 30
0.0
 11
125.0066836704
 21
204.9074005382
 31
0.0
  0
LINE
  5
10D
100
AcDbEntity
  8
2501_1 UNTERZUGRAHMEN
390
0
100
AcDbLine
 10
16.5023685063
 20
187.9074005382
 30
0.0
 11
16.5023685063
 21
202.9074005382
 31
0.0
  0
LINE
  5
10E
100
AcDbEntity
  8
2501_1 UNTERZUGRAHMEN
370
        18
390
0
100
AcDbLine
 10
16.5023685063
 20
202.9074005382
 30
0.0
 11
18.5023685063
 21
202.9074005382
 31
0.0
  0
LINE
  5
10F
100
AcDbEntity
  8
2501_1 UNTERZUGRAHMEN
370
        18
390
0
100
AcDbLine
 10
18.5023685063
 20
189.9074005382
 30
0.0
 11
18.5023685063
 21
202.9074005382
 31
0.0
  0
LINE
  5
110
100
AcDbEntity
  8
2501_1 UNTERZUGRAHMEN
370
        18
390
0
100
AcDbLine
 10
31.5423685063
 20
187.9074005382
 30
0.0
 11
31.5423685063
 21
189.9074005382
 31
0.0
  0
LINE
  5
111
100
AcDbEntity
  8
2501_1 UNTERZUGRAHMEN
370
        18
390
0
100
AcDbLine
 10
134.9966836704
 20
187.9074005382
 30
0.0
 11
119.9966836704
 21
187.9074005382
 31
0.0
  0
LINE
  5
112
100
AcDbEntity
  8
2501_1 UNTERZUGRAHMEN
370
        18
390
0
100
AcDbLine
 10
119.9566836704
 20
187.9074005382
 30
0.0
 11
119.9566836704
 21
189.9074005382
 31
0.0
  0
LINE
  5
113
100
AcDbEntity
  8
2501_1 UNTERZUGRAHMEN
370
        18
390
0
100
AcDbLine
 10
133.0066836704
 20
189.9074005382
 30
0.0
 11
133.0066836704
 21
202.9074005382
 31
0.0
  0
LINE
  5
114
100
AcDbEntity
  8
2501_1 UNTERZUGRAHMEN
390
0
100
AcDbLine
 10
134.9966836704
 20
187.9074005382
 30
0.0
 11
134.9966836704
 21
202.9074005382
 31
0.0
  0
LINE
  5
115
100
AcDbEntity
  8
2501_1 UNTERZUGRAHMEN
390
0
100
AcDbLine
 10
134.9966836704
 20
202.9074005382
 30
0.0
 11
133.0066836704
 21
202.9074005382
 31
0.0
  0
LINE
  5
116
100
AcDbEntity
  8
KONSTRUKTION
390
0
  6
DASHDOT
100
AcDbLine
 10
82.0014022962
 20
201.9074005382
 30
0.0
 11
82.0014022962
 21
259.4103470261
 31
0.0
  0
LINE
  5
117
100
AcDbEntity
  8
KONSTRUKTION
390
0
  6
DASHDOT
100
AcDbLine
 10
35.0014022962
 20
201.9074005382
 30
0.0
 11
35.0014022962
 21
259.074213904
 31
0.0
  0
LINE
  5
118
100
AcDbEntity
  8
2501_1 UNTERZUGRAHMEN
390
0
100
AcDbLine
 10
187.0088886969
 20
204.9074005382
 30
0.0
 11
187.0088886969
 21
191.9074005382
 31
0.0
  0
LINE
  5
119
100
AcDbEntity
  8
2501_1 UNTERZUGRAHMEN
390
0
100
AcDbLine
 10
31.5423685063
 20
187.9074005382
 30
0.0
 11
16.5023685063
 21
187.9074005382
 31
0.0
  0
LINE
  5
11A
100
AcDbEntity
  8
KONSTRUKTION
390
0
  6
DASHDOT
100
AcDbLine
 10
169.7588886969
 20
178.2141355382
 30
0.0
 11
169.7588886969
 21
231.15625
 31
0.0
  0
LINE
  5
11B
100
AcDbEntity
  8
2501_10 SCHALTER
390
0
100
AcDbLine
 10
91.7590102433
 20
206.2101035815
 30
0.0
 11
93.0439536736
 21
202.9747663049
 31
0.0
  0
TEXT
  5
11C
100
AcDbEntity
  8
BESCHRIFTUNG
390
0
100
AcDbText
 10
61.6829181593
 20
227.9737438116
 30
0.0
 40
3.0
  1
2501.2/5
 41
1.1351340873
  7
Arial
100
AcDbText
  0
TEXT
  5
11D
100
AcDbEntity
  8
BESCHRIFTUNG
390
0
100
AcDbText
 10
118.9076415864
 20
175.1797010827
 30
0.0
 40
3.0
  1
2501.5
 41
1.1351380459
  7
Arial
100
AcDbText
  0
TEXT
  5
11E
100
AcDbEntity
  8
BESCHRIFTUNG
390
0
100
AcDbText
 10
129.163649595
 20
207.0378974013
 30
0.0
 40
3.0
  1
2501.1
 41
1.1351381522
  7
Arial
100
AcDbText
  0
TEXT
  5
11F
100
AcDbEntity
  8
BESCHRIFTUNG
390
0
100
AcDbText
 10
90.3713598256
 20
211.2921068766
 30
0.0
 40
2.0
  1
2501.55
 41
1.1351390947
  7
Arial
100
AcDbText
  0
TEXT
  5
120
100
AcDbEntity
  8
BESCHRIFTUNG
390
0
100
AcDbText
 10
64.7718428206
 20
174.5585008225
 30
0.0
 40
2.0
  1
2501.53
 41
1.1351392071
  7
Arial
100
AcDbText
  0
LINE
  5
121
100
AcDbEntity
  8
2501_10 SCHALTER LINKS_OBEN
390
0
100
AcDbLine
 10
94.2435016585
 20
196.5708306217
 30
0.0
 11
90.8511028703
 21
204.3577885205
 31
0.0
  0
LINE
  5
122
100
AcDbEntity
  8
2501_10 SCHALTER LINKS_OBEN
390
0
100
AcDbLine
 10
96.9392132553
 20
196.5708306217
 30
0.0
 11
93.6336482949
 21
205.4791452702
 31
0.0
  0
LINE
  5
123
100
AcDbEntity
  8
2501_10 SCHALTER
390
0
100
AcDbLine
 10
89.4064458319
 20
187.5708306217
 30
0.0
 11
89.4064458319
 21
177.0708306217
 31
0.0
  0
LINE
  5
124
100
AcDbEntity
  8
2501_10 SCHALTER
390
0
100
AcDbLine
 10
89.4064458319
 20
177.0708306217
 30
0.0
 11
101.8064458319
 21
177.0708306217
 31
0.0
  0
LINE
  5
125
100
AcDbEntity
  8
2501_10 SCHALTER
390
0
100
AcDbLine
 10
101.8064458319
 20
177.0708306217
 30
0.0
 11
101.8064458319
 21
187.5708306217
 31
0.0
  0
LINE
  5
126
100
AcDbEntity
  8
2501_10 SCHALTER
390
0
100
AcDbLine
 10
101.8064458319
 20
187.5708306217
 30
0.0
 11
89.4064458319
 21
187.5708306217
 31
0.0
  0
LINE
  5
127
100
AcDbEntity
  8
2501_10 SCHALTER
370
        50
390
0
100
AcDbLine
 10
100.3064458319
 20
177.0708306217
 30
0.0
 11
100.3064458319
 21
172.0708306217
 31
0.0
  0
LINE
  5
128
100
AcDbEntity
  8
2501_10 SCHALTER
370
        50
390
0
100
AcDbLine
 10
95.6064458319
 20
177.0708306217
 30
0.0
 11
95.6064458319
 21
172.0708306217
 31
0.0
  0
LINE
  5
129
100
AcDbEntity
  8
2501_10 SCHALTER
370
        50
390
0
100
AcDbLine
 10
90.9064458319
 20
177.0708306217
 30
0.0
 11
90.9064458319
 21
172.0708306217
 31
0.0
  0
LINE
  5
12A
100
AcDbEntity
  8
2501_10 SCHALTER
390
0
100
AcDbLine
 10
96.8564458319
 20
196.5708306217
 30
0.0
 11
97.1064458319
 21
205.5708306217
 31
0.0
  0
LINE
  5
12B
100
AcDbEntity
  8
2501_10 SCHALTER
390
0
100
AcDbLine
 10
94.3564458319
 20
196.5708306217
 30
0.0
 11
94.1064458319
 21
205.5708306217
 31
0.0
  0
LINE
  5
12C
100
AcDbEntity
  8
2501_10 SCHALTER
390
0
100
AcDbLine
 10
98.4064458319
 20
196.5708306217
 30
0.0
 11
92.8064458319
 21
196.5708306217
 31
0.0
  0
LINE
  5
12D
100
AcDbEntity
  8
2501_10 SCHALTER
390
0
100
AcDbLine
 10
98.4064458319
 20
196.5708306217
 30
0.0
 11
98.4064458319
 21
187.5708306217
 31
0.0
  0
LINE
  5
12E
100
AcDbEntity
  8
2501_10 SCHALTER
390
0
100
AcDbLine
 10
92.8064458319
 20
196.5708306217
 30
0.0
 11
92.8064458319
 21
187.5708306217
 31
0.0
  0
LINE
  5
12F
100
AcDbEntity
  8
2501_10 SCHALTER
390
0
100
AcDbLine
 10
184.8088886969
 20
196.5708306217
 30
0.0
 11
184.8088886969
 21
187.5708306217
 31
0.0
  0
LINE
  5
130
100
AcDbEntity
  8
2501_10 SCHALTER
390
0
100
AcDbLine
 10
179.2088886969
 20
196.5708306217
 30
0.0
 11
179.2088886969
 21
187.5708306217
 31
0.0
  0
LINE
  5
131
100
AcDbEntity
  8
2501_10 SCHALTER
390
0
100
AcDbLine
 10
184.8088886969
 20
196.5708306217
 30
0.0
 11
179.2088886969
 21
196.5708306217
 31
0.0
  0
LINE
  5
132
100
AcDbEntity
  8
2501_10 SCHALTER
390
0
100
AcDbLine
 10
180.3788886969
 20
172.0708306217
 30
0.0
 11
180.3788886969
 21
177.0708306217
 31
0.0
  0
LINE
  5
133
100
AcDbEntity
  8
2501_10 SCHALTER
390
0
100
AcDbLine
 10
177.8388886969
 20
172.0708306217
 30
0.0
 11
180.3788886969
 21
172.0708306217
 31
0.0
  0
LINE
  5
134
100
AcDbEntity
  8
2501_10 SCHALTER
390
0
100
AcDbLine
 10
177.8388886969
 20
177.0708306217
 30
0.0
 11
177.8388886969
 21
172.0708306217
 31
0.0
  0
LINE
  5
135
100
AcDbEntity
  8
2501_10 SCHALTER
390
0
100
AcDbLine
 10
187.8088886969
 20
187.5708306217
 30
0.0
 11
176.2088886969
 21
187.5708306217
 31
0.0
  0
LINE
  5
136
100
AcDbEntity
  8
2501_10 SCHALTER
390
0
100
AcDbLine
 10
176.2088886969
 20
187.5708306217
 30
0.0
 11
176.2088886969
 21
177.0708306217
 31
0.0
  0
LINE
  5
137
100
AcDbEntity
  8
2501_10 SCHALTER
390
0
100
AcDbLine
 10
187.8088886969
 20
177.0708306217
 30
0.0
 11
187.8088886969
 21
187.5708306217
 31
0.0
  0
LINE
  5
138
100
AcDbEntity
  8
2501_10 SCHALTER
390
0
100
AcDbLine
 10
176.2088886969
 20
177.0708306217
 30
0.0
 11
187.8088886969
 21
177.0708306217
 31
0.0
  0
LINE
  5
139
100
AcDbEntity
  8
2501_10 SCHALTER
390
0
100
AcDbLine
 10
186.1788886969
 20
172.0708306217
 30
0.0
 11
186.1788886969
 21
177.0708306217
 31
0.0
  0
LINE
  5
13A
100
AcDbEntity
  8
2501_10 SCHALTER
390
0
100
AcDbLine
 10
183.6388886969
 20
177.0708306217
 30
0.0
 11
183.6388886969
 21
172.0708306217
 31
0.0
  0
LINE
  5
13B
100
AcDbEntity
  8
2501_10 SCHALTER
390
0
100
AcDbLine
 10
183.6388886969
 20
172.0708306217
 30
0.0
 11
186.1788886969
 21
172.0708306217
 31
0.0
  0
LINE
  5
13C
100
AcDbEntity
  8
2501_10 SCHALTER
390
0
100
AcDbLine
 10
99.4538814205
 20
206.2101035815
 30
0.0
 11
98.1689379901
 21
202.9747663049
 31
0.0
  0
LINE
  5
13D
100
AcDbEntity
  8
2501_10 SCHALTER LINKS_OBEN
390
0
100
AcDbLine
 10
96.9693900053
 20
196.5708306217
 30
0.0
 11
100.3617887934
 21
204.3577885205
 31
0.0
  0
LINE
  5
13E
100
AcDbEntity
  8
2501_10 SCHALTER LINKS_OBEN
390
0
100
AcDbLine
 10
94.2736784085
 20
196.5708306217
 30
0.0
 11
97.5792433689
 21
205.4791452702
 31
0.0
  0
LINE
  5
13F
100
AcDbEntity
  8
2501_2-4 ROLLEN
390
0
100
AcDbLine
 10
172.2588886969
 20
226.2141355382
 30
0.0
 11
170.5088886969
 21
226.2141355382
 31
0.0
  0
LINE
  5
140
100
AcDbEntity
  8
2501_2-4 ROLLEN
390
0
100
AcDbLine
 10
169.0088886969
 20
226.2141355382
 30
0.0
 11
167.2588886969
 21
226.2141355382
 31
0.0
  0
LINE
  5
141
100
AcDbEntity
  8
2501_2-4 ROLLEN
390
0
100
AcDbLine
 10
169.0088886969
 20
225.2141355382
 30
0.0
 11
170.5088886969
 21
225.2141355382
 31
0.0
  0
LINE
  5
142
100
AcDbEntity
  8
2501_2-4 ROLLEN
390
0
100
AcDbLine
 10
170.5088886969
 20
226.2141355382
 30
0.0
 11
170.5088886969
 21
225.2141355382
 31
0.0
  0
LINE
  5
143
100
AcDbEntity
  8
2501_2-4 ROLLEN
390
0
100
AcDbLine
 10
169.0088886969
 20
225.2141355382
 30
0.0
 11
169.0088886969
 21
226.2141355382
 31
0.0
  0
LINE
  5
144
100
AcDbEntity
  8
2501_2-4 ROLLEN
390
0
100
AcDbLine
 10
167.2588886969
 20
178.2141355382
 30
0.0
 11
169.0088886969
 21
178.2141355382
 31
0.0
  0
LINE
  5
145
100
AcDbEntity
  8
2501_2-4 ROLLEN
390
0
100
AcDbLine
 10
170.5088886969
 20
179.2141355382
 30
0.0
 11
169.0088886969
 21
179.2141355382
 31
0.0
  0
LINE
  5
146
100
AcDbEntity
  8
2501_2-4 ROLLEN
390
0
100
AcDbLine
 10
170.5088886969
 20
178.2141355382
 30
0.0
 11
170.5088886969
 21
179.2141355382
 31
0.0
  0
LINE
  5
147
100
AcDbEntity
  8
2501_2-4 ROLLEN
390
0
100
AcDbLine
 10
169.0088886969
 20
179.2141355382
 30
0.0
 11
169.0088886969
 21
178.2141355382
 31
0.0
  0
LINE
  5
148
100
AcDbEntity
  8
2501_2-4 ROLLEN
390
0
100
AcDbLine
 10
170.5088886969
 20
178.2141355382
 30
0.0
 11
172.2588886969
 21
178.2141355382
 31
0.0
  0
CIRCLE
  5
149
100
AcDbEntity
  8
2501_2-4 ROLLEN
390
0
  6
DASHED
100
AcDbCircle
 10
58.5014022962
 20
201.9074005382
 30
0.0
 40
23.5
  0
CIRCLE
  5
14A
100
AcDbEntity
  8
2501_2-4 ROLLEN
390
0
100
AcDbCircle
 10
58.5014022962
 20
201.9074005382
 30
0.0
 40
1.5
  0
CIRCLE
  5
14B
100
AcDbEntity
  8
2501_2-4 ROLLEN
390
0
100
AcDbCircle
 10
58.5014022962
 20
179.9074005382
 30
0.0
 40
1.75
  0
CIRCLE
  5
14C
100
AcDbEntity
  8
2501_2-4 ROLLEN
390
0
100
AcDbCircle
 10
63.5695331561
 20
182.0437641746
 30
0.0
 40
1.25
  0
LINE
  5
14D
100
AcDbEntity
  8
2501_1 UNTERZUGRAHMEN
390
0
100
AcDbLine
 10
149.6799860266
 20
187.9074005382
 30
0.0
 11
161.8982560924
 21
187.9074005382
 31
0.0
  0
LINE
  5
14E
100
AcDbEntity
  8
2501_1 UNTERZUGRAHMEN
390
0
100
AcDbLine
 10
148.0406417643
 20
189.9074005382
 30
0.0
 11
162.0018205455
 21
189.9074005382
 31
0.0
  0
LINE
  5
14F
100
AcDbEntity
  8
UNSICHTBARE
390
0
100
AcDbLine
 10
172.7588886969
 20
179.2937641746
 30
0.0
 11
174.6588886969
 21
179.2937641746
 31
0.0
  0
LINE
  5
150
100
AcDbEntity
  8
UNSICHTBARE
390
0
100
AcDbLine
 10
172.7588886969
 20
184.7937641746
 30
0.0
 11
174.6588886969
 21
184.7937641746
 31
0.0
  0
LINE
  5
151
100
AcDbEntity
  8
MITTELLINIEN
390
0
100
AcDbLine
 10
179.7588886969
 20
182.0437641746
 30
0.0
 11
162.7588886969
 21
182.0437641746
 31
0.0
  0
LINE
  5
152
100
AcDbEntity
  8
UNSICHTBARE
390
0
100
AcDbLine
 10
172.7588886969
 20
184.7937641746
 30
0.0
 11
172.7588886969
 21
179.2937641746
 31
0.0
  0
LINE
  5
153
100
AcDbEntity
  8
UNSICHTBARE
390
0
100
AcDbLine
 10
174.7588886969
 20
179.3937641746
 30
0.0
 11
174.7588886969
 21
181.6437641746
 31
0.0
  0
LINE
  5
154
100
AcDbEntity
  8
UNSICHTBARE
390
0
100
AcDbLine
 10
174.7588886969
 20
184.6937641746
 30
0.0
 11
174.7588886969
 21
182.4437641746
 31
0.0
  0
ARC
  5
155
100
AcDbEntity
  8
UNSICHTBARE
390
0
100
AcDbCircle
 10
174.6588886969
 20
179.3937641746
 30
0.0
 40
0.1
100
AcDbArc
 50
270.0
 51
360.0
  0
ARC
  5
156
100
AcDbEntity
  8
UNSICHTBARE
390
0
100
AcDbCircle
 10
174.6588886969
 20
184.6937641746
 30
0.0
 40
0.1
100
AcDbArc
 50
360.0
 51
450.0
  0
LINE
  5
157
100
AcDbEntity
  8
UNSICHTBARE
390
0
100
AcDbLine
 10
174.7588886969
 20
182.4437641746
 30
0.0
 11
173.9088886969
 21
182.4437641746
 31
0.0
  0
LINE
  5
158
100
AcDbEntity
  8
UNSICHTBARE
390
0
100
AcDbLine
 10
174.7588886969
 20
181.6437641746
 30
0.0
 11
173.9088886969
 21
181.6437641746
 31
0.0
  0
LINE
  5
159
100
AcDbEntity
  8
UNSICHTBARE
390
0
100
AcDbLine
 10
173.9088886969
 20
181.6437641746
 30
0.0
 11
173.9088886969
 21
182.4437641746
 31
0.0
  0
LINE
  5
15A
100
AcDbEntity
  8
UNSICHTBARE
390
0
100
AcDbLine
 10
172.7588886969
 20
180.5437641746
 30
0.0
 11
168.0656236969
 21
180.5437641746
 31
0.0
  0
LINE
  5
15B
100
AcDbEntity
  8
UNSICHTBARE
390
0
100
AcDbLine
 10
171.2588886969
 20
180.8504991746
 30
0.0
 11
167.7588886969
 21
180.8504991746
 31
0.0
  0
LINE
  5
15C
100
AcDbEntity
  8
UNSICHTBARE
390
0
100
AcDbLine
 10
171.2588886969
 20
183.2370291746
 30
0.0
 11
167.7588886969
 21
183.2370291746
 31
0.0
  0
LINE
  5
15D
100
AcDbEntity
  8
UNSICHTBARE
390
0
100
AcDbLine
 10
172.7588886969
 20
183.5437641746
 30
0.0
 11
168.0656236969
 21
183.5437641746
 31
0.0
  0
LINE
  5
15E
100
AcDbEntity
  8
UNSICHTBARE
390
0
100
AcDbLine
 10
171.2588886969
 20
180.5437641746
 30
0.0
 11
171.2588886969
 21
183.5437641746
 31
0.0
  0
LINE
  5
15F
100
AcDbEntity
  8
UNSICHTBARE
390
0
100
AcDbLine
 10
167.7588886969
 20
180.8504991746
 30
0.0
 11
167.7588886969
 21
183.2370291746
 31
0.0
  0
LINE
  5
160
100
AcDbEntity
  8
UNSICHTBARE
390
0
100
AcDbLine
 10
168.0656236969
 20
180.5437641746
 30
0.0
 11
168.0656236969
 21
183.5437641746
 31
0.0
  0
LINE
  5
161
100
AcDbEntity
  8
UNSICHTBARE
390
0
100
AcDbLine
 10
168.0656236969
 20
180.5437641746
 30
0.0
 11
167.7588886969
 21
180.8504991746
 31
0.0
  0
LINE
  5
162
100
AcDbEntity
  8
UNSICHTBARE
390
0
100
AcDbLine
 10
168.0656236969
 20
183.5437641746
 30
0.0
 11
167.7588886969
 21
183.2370291746
 31
0.0
  0
LINE
  5
163
100
AcDbEntity
  8
2501_1 UNTERZUGRAHMEN
390
0
100
AcDbLine
 10
83.0014022962
 20
189.9074005382
 30
0.0
 11
83.0014022962
 21
191.9074005382
 31
0.0
  0
LINE
  5
164
100
AcDbEntity
  8
2501_1 UNTERZUGRAHMEN
390
0
100
AcDbLine
 10
34.0014022962
 20
189.9074005382
 30
0.0
 11
34.0014022962
 21
191.9074005382
 31
0.0
  0
ARC
  5
165
100
AcDbEntity
  8
2501_10 SCHALTER LINKS_OBEN
390
0
100
AcDbCircle
 10
107.2423755826
 20
204.9184668954
 30
0.0
 40
1.5
100
AcDbArc
 50
21.9492743411
 51
201.9492743411
  0
ARC
  5
166
100
AcDbEntity
  8
2501_10 SCHALTER
390
0
100
AcDbCircle
 10
110.6064458319
 20
205.5708306217
 30
0.0
 40
1.5
100
AcDbArc
 50
0.0
 51
180.0
  0
ARC
  5
167
100
AcDbEntity
  8
2501_10 SCHALTER LINKS_OBEN
390
0
100
AcDbCircle
 10
113.9705160811
 20
204.9184668954
 30
0.0
 40
1.5
100
AcDbArc
 50
338.0507256589
 51
518.0507256589
  0
LINE
  5
168
100
AcDbEntity
  8
2501_10 SCHALTER
390
0
100
AcDbLine
 10
106.7590102433
 20
206.2101035815
 30
0.0
 11
108.0439536736
 21
202.9747663049
 31
0.0
  0
LINE
  5
169
100
AcDbEntity
  8
2501_10 SCHALTER LINKS_OBEN
390
0
100
AcDbLine
 10
109.2435016585
 20
196.5708306217
 30
0.0
 11
105.8511028703
 21
204.3577885205
 31
0.0
  0
LINE
  5
16A
100
AcDbEntity
  8
2501_10 SCHALTER LINKS_OBEN
390
0
100
AcDbLine
 10
111.9392132553
 20
196.5708306217
 30
0.0
 11
108.6336482949
 21
205.4791452702
 31
0.0
  0
LINE
  5
16B
100
AcDbEntity
  8
2501_10 SCHALTER
390
0
100
AcDbLine
 10
104.4064458319
 20
187.5708306217
 30
0.0
 11
104.4064458319
 21
177.0708306217
 31
0.0
  0
LINE
  5
16C
100
AcDbEntity
  8
2501_10 SCHALTER
390
0
100
AcDbLine
 10
104.4064458319
 20
177.0708306217
 30
0.0
 11
116.8064458319
 21
177.0708306217
 31
0.0
  0
LINE
  5
16D
100
AcDbEntity
  8
2501_10 SCHALTER
390
0
100
AcDbLine
 10
116.8064458319
 20
177.0708306217
 30
0.0
 11
116.8064458319
 21
187.5708306217
 31
0.0
  0
LINE
  5
16E
100
AcDbEntity
  8
MITTELLINIEN
390
0
100
AcDbLine
 10
110.6064458319
 20
208.7884296646
 30
0.0
 11
110.6064458319
 21
172.0708306217
 31
0.0
  0
LINE
  5
16F
100
AcDbEntity
  8
2501_10 SCHALTER
390
0
100
AcDbLine
 10
116.8064458319
 20
187.5708306217
 30
0.0
 11
104.4064458319
 21
187.5708306217
 31
0.0
  0
LINE
  5
170
100
AcDbEntity
  8
2501_10 SCHALTER
370
        50
390
0
100
AcDbLine
 10
115.3064458319
 20
177.0708306217
 30
0.0
 11
115.3064458319
 21
172.0708306217
 31
0.0
  0
LINE
  5
171
100
AcDbEntity
  8
2501_10 SCHALTER
370
        50
390
0
100
AcDbLine
 10
110.6064458319
 20
177.0708306217
 30
0.0
 11
110.6064458319
 21
172.0708306217
 31
0.0
  0
LINE
  5
172
100
AcDbEntity
  8
2501_10 SCHALTER
370
        50
390
0
100
AcDbLine
 10
105.9064458319
 20
177.0708306217
 30
0.0
 11
105.9064458319
 21
172.0708306217
 31
0.0
  0
LINE
  5
173
100
AcDbEntity
  8
2501_10 SCHALTER
390
0
100
AcDbLine
 10
111.8564458319
 20
196.5708306217
 30
0.0
 11
112.1064458319
 21
205.5708306217
 31
0.0
  0
LINE
  5
174
100
AcDbEntity
  8
2501_10 SCHALTER
390
0
100
AcDbLine
 10
109.3564458319
 20
196.5708306217
 30
0.0
 11
109.1064458319
 21
205.5708306217
 31
0.0
  0
LINE
  5
175
100
AcDbEntity
  8
2501_10 SCHALTER
390
0
100
AcDbLine
 10
113.4064458319
 20
196.5708306217
 30
0.0
 11
107.8064458319
 21
196.5708306217
 31
0.0
  0
LINE
  5
176
100
AcDbEntity
  8
2501_10 SCHALTER
390
0
100
AcDbLine
 10
113.4064458319
 20
196.5708306217
 30
0.0
 11
113.4064458319
 21
187.5708306217
 31
0.0
  0
LINE
  5
177
100
AcDbEntity
  8
2501_10 SCHALTER
390
0
100
AcDbLine
 10
107.8064458319
 20
196.5708306217
 30
0.0
 11
107.8064458319
 21
187.5708306217
 31
0.0
  0
LINE
  5
178
100
AcDbEntity
  8
2501_10 SCHALTER
390
0
100
AcDbLine
 10
114.4538814205
 20
206.2101035815
 30
0.0
 11
113.1689379901
 21
202.9747663049
 31
0.0
  0
LINE
  5
179
100
AcDbEntity
  8
2501_10 SCHALTER LINKS_OBEN
390
0
100
AcDbLine
 10
111.9693900053
 20
196.5708306217
 30
0.0
 11
115.3617887934
 21
204.3577885205
 31
0.0
  0
LINE
  5
17A
100
AcDbEntity
  8
2501_10 SCHALTER LINKS_OBEN
390
0
100
AcDbLine
 10
109.2736784085
 20
196.5708306217
 30
0.0
 11
112.5792433689
 21
205.4791452702
 31
0.0
  0
LINE
  5
17B
100
AcDbEntity
  8
2501_5 SCHIEBER
390
0
100
AcDbLine
 10
25.5023685063
 20
194.4074005382
 30
0.0
 11
125.9966836704
 21
194.4074005382
 31
0.0
  0
LINE
  5
17C
100
AcDbEntity
  8
2501_5 SCHIEBER
390
0
100
AcDbLine
 10
25.5023685063
 20
209.4074005382
 30
0.0
 11
125.9966836704
 21
209.4074005382
 31
0.0
  0
CIRCLE
  5
17D
100
AcDbEntity
  8
UNSICHTBARE
390
0
100
AcDbCircle
 10
92.1735495616
 20
203.8983246588
 30
0.0
 40
2.75
  0
LINE
  5
17E
100
AcDbEntity
  8
MITTELLINIEN
390
0
100
AcDbLine
 10
92.1735495616
 20
211.6483246588
 30
0.0
 11
92.1735495616
 21
196.1483246588
 31
0.0
  0
LINE
  5
17F
100
AcDbEntity
  8
MITTELLINIEN
390
0
100
AcDbLine
 10
99.9235495616
 20
203.8983246588
 30
0.0
 11
84.4235495616
 21
203.8983246588
 31
0.0
  0
LINE
  5
180
100
AcDbEntity
  8
UNSICHTBARE
390
0
100
AcDbLine
 10
94.4009359224
 20
202.236623723
 30
0.0
 11
90.5532093208
 21
206.0843503245
 31
0.0
  0
LINE
  5
181
100
AcDbEntity
  8
UNSICHTBARE
390
0
100
AcDbLine
 10
93.8352503066
 20
201.6709385538
 30
0.0
 11
89.9875237051
 21
205.5186651553
 31
0.0
  0
CIRCLE
  5
182
100
AcDbEntity
  8
UNSICHTBARE
390
0
100
AcDbCircle
 10
99.0357375346
 20
203.8892487793
 30
0.0
 40
2.75
  0
LINE
  5
183
100
AcDbEntity
  8
MITTELLINIEN
390
0
100
AcDbLine
 10
99.0357375346
 20
211.6392487793
 30
0.0
 11
99.0357375346
 21
196.1392487793
 31
0.0
  0
LINE
  5
184
100
AcDbEntity
  8
MITTELLINIEN
390
0
100
AcDbLine
 10
106.7857375346
 20
203.8892487793
 30
0.0
 11
91.2857375346
 21
203.8892487793
 31
0.0
  0
LINE
  5
185
100
AcDbEntity
  8
UNSICHTBARE
390
0
100
AcDbLine
 10
101.2631238954
 20
202.2275478435
 30
0.0
 11
97.4153972939
 21
206.075274445
 31
0.0
  0
LINE
  5
186
100
AcDbEntity
  8
UNSICHTBARE
390
0
100
AcDbLine
 10
100.6974382796
 20
201.6618626743
 30
0.0
 11
96.8497116781
 21
205.5095892758
 31
0.0
  0
CIRCLE
  5
187
100
AcDbEntity
  8
UNSICHTBARE
390
0
100
AcDbCircle
 10
119.0393421022
 20
197.9074005382
 30
0.0
 40
2.75
  0
LINE
  5
188
100
AcDbEntity
  8
MITTELLINIEN
390
0
100
AcDbLine
 10
119.0393421022
 20
205.6574005382
 30
0.0
 11
119.0393421022
 21
190.1574005382
 31
0.0
  0
LINE
  5
189
100
AcDbEntity
  8
MITTELLINIEN
390
0
100
AcDbLine
 10
111.2893421022
 20
197.9074005382
 30
0.0
 11
126.7893421022
 21
197.9074005382
 31
0.0
  0
LINE
  5
18A
100
AcDbEntity
  8
UNSICHTBARE
390
0
100
AcDbLine
 10
116.8119557414
 20
196.2456996024
 30
0.0
 11
120.6596823429
 21
200.0934262039
 31
0.0
  0
LINE
  5
18B
100
AcDbEntity
  8
UNSICHTBARE
390
0
100
AcDbLine
 10
117.3776413572
 20
195.6800144332
 30
0.0
 11
121.2253679587
 21
199.5277410347
 31
0.0
  0
ARC
  5
18C
100
AcDbEntity
  8
2501_5 SCHIEBER
390
0
100
AcDbCircle
 10
112.0393421022
 20
197.9074005382
 30
0.0
 40
1.6
100
AcDbArc
 50
90.0
 51
270.0
  0
LINE
  5
18D
100
AcDbEntity
  8
2501_5 SCHIEBER
390
0
100
AcDbLine
 10
112.0393421022
 20
196.3074005382
 30
0.0
 11
125.9966836704
 21
196.3074005382
 31
0.0
  0
LINE
  5
18E
100
AcDbEntity
  8
2501_5 SCHIEBER
390
0
100
AcDbLine
 10
112.0393421022
 20
199.5074005382
 30
0.0
 11
125.9966836704
 21
199.5074005382
 31
0.0
  0
LINE
  5
18F
100
AcDbEntity
  8
2501_5 SCHIEBER
390
0
100
AcDbLine
 10
125.9966836704
 20
199.4074005382
 30
0.0
 11
125.9966836704
 21
209.4074005382
 31
0.0
  0
LINE
  5
190
100
AcDbEntity
  8
2501_5 SCHIEBER
390
0
100
AcDbLine
 10
125.9966836704
 20
196.3074005382
 30
0.0
 11
125.9966836704
 21
194.4074005382
 31
0.0
  0
ARC
  5
191
100
AcDbEntity
  8
2501_5 SCHIEBER
390
0
100
AcDbCircle
 10
39.4597100746
 20
197.9074005382
 30
0.0
 40
1.6
100
AcDbArc
 50
270.0
 51
450.0
  0
LINE
  5
192
100
AcDbEntity
  8
2501_5 SCHIEBER
390
0
100
AcDbLine
 10
39.4597100746
 20
199.5074005382
 30
0.0
 11
25.5023685063
 21
199.5074005382
 31
0.0
  0
LINE
  5
193
100
AcDbEntity
  8
2501_5 SCHIEBER
390
0
100
AcDbLine
 10
25.5023685063
 20
199.4074005382
 30
0.0
 11
25.5023685063
 21
209.4074005382
 31
0.0
  0
LINE
  5
194
100
AcDbEntity
  8
2501_5 SCHIEBER
390
0
100
AcDbLine
 10
25.5023685063
 20
196.3074005382
 30
0.0
 11
25.5023685063
 21
194.4074005382
 31
0.0
  0
LINE
  5
195
100
AcDbEntity
  8
2501_5 SCHIEBER
390
0
100
AcDbLine
 10
39.4597100746
 20
196.3074005382
 30
0.0
 11
25.5023685063
 21
196.3074005382
 31
0.0
  0
CIRCLE
  5
196
100
AcDbEntity
  8
UNSICHTBARE
390
0
100
AcDbCircle
 10
32.4597100746
 20
197.9074005382
 30
0.0
 40
2.75
  0
LINE
  5
197
100
AcDbEntity
  8
MITTELLINIEN
390
0
100
AcDbLine
 10
32.4597100746
 20
205.6574005382
 30
0.0
 11
32.4597100746
 21
190.1574005382
 31
0.0
  0
LINE
  5
198
100
AcDbEntity
  8
MITTELLINIEN
390
0
100
AcDbLine
 10
40.2097100746
 20
197.9074005382
 30
0.0
 11
24.7097100746
 21
197.9074005382
 31
0.0
  0
LINE
  5
199
100
AcDbEntity
  8
UNSICHTBARE
390
0
100
AcDbLine
 10
34.6870964353
 20
196.2456996024
 30
0.0
 11
30.8393698338
 21
200.0934262039
 31
0.0
  0
LINE
  5
19A
100
AcDbEntity
  8
UNSICHTBARE
390
0
100
AcDbLine
 10
34.1214108196
 20
195.6800144332
 30
0.0
 11
30.2736842181
 21
199.5277410347
 31
0.0
  0
CIRCLE
  5
19B
100
AcDbEntity
  8
UNSICHTBARE
390
0
100
AcDbCircle
 10
46.0014022962
 20
201.9074005382
 30
0.0
 40
2.75
  0
LINE
  5
19C
100
AcDbEntity
  8
MITTELLINIEN
390
0
100
AcDbLine
 10
46.0014022962
 20
209.6574005382
 30
0.0
 11
46.0014022962
 21
194.1574005382
 31
0.0
  0
LINE
  5
19D
100
AcDbEntity
  8
MITTELLINIEN
390
0
100
AcDbLine
 10
53.7514022962
 20
201.9074005382
 30
0.0
 11
38.2514022962
 21
201.9074005382
 31
0.0
  0
LINE
  5
19E
100
AcDbEntity
  8
UNSICHTBARE
390
0
100
AcDbLine
 10
48.2287886569
 20
200.2456996024
 30
0.0
 11
44.3810620554
 21
204.0934262039
 31
0.0
  0
LINE
  5
19F
100
AcDbEntity
  8
UNSICHTBARE
390
0
100
AcDbLine
 10
47.6631030412
 20
199.6800144332
 30
0.0
 11
43.8153764396
 21
203.5277410347
 31
0.0
  0
CIRCLE
  5
1A0
100
AcDbEntity
  8
UNSICHTBARE
390
0
100
AcDbCircle
 10
63.5695331561
 20
182.0437641746
 30
0.0
 40
3.5
  0
CIRCLE
  5
1A1
100
AcDbEntity
  8
UNSICHTBARE
390
0
100
AcDbCircle
 10
63.5695331561
 20
182.0437641746
 30
0.0
 40
1.6
  0
LINE
  5
1A2
100
AcDbEntity
  8
MITTELLINIEN
390
0
100
AcDbLine
 10
72.0695331561
 20
182.0437641746
 30
0.0
 11
55.0695331561
 21
182.0437641746
 31
0.0
  0
LINE
  5
1A3
100
AcDbEntity
  8
MITTELLINIEN
390
0
100
AcDbLine
 10
63.5695331561
 20
190.5437641746
 30
0.0
 11
63.5695331561
 21
173.5437641746
 31
0.0
  0
CIRCLE
  5
1A4
100
AcDbEntity
  8
MITTELLINIEN
390
0
100
AcDbCircle
 10
58.5014022962
 20
201.9074005382
 30
0.0
 40
18.5
  0
CIRCLE
  5
1A5
100
AcDbEntity
  8
MITTELLINIEN
390
0
100
AcDbCircle
 10
58.5014022962
 20
201.9074005382
 30
0.0
 40
12.5
  0
CIRCLE
  5
1A6
100
AcDbEntity
  8
2501_2-4 ROLLEN
390
0
  6
DASHED
100
AcDbCircle
 10
61.5014022962
 20
201.9074005382
 30
0.0
 40
14.5
  0
CIRCLE
  5
1A7
100
AcDbEntity
  8
2501_2-4 ROLLEN
390
0
  6
DASHED
100
AcDbCircle
 10
61.5014022962
 20
201.9074005382
 30
0.0
 40
16.5
  0
LINE
  5
1A8
100
AcDbEntity
  8
2501_10 SCHALTER
390
0
100
AcDbLine
 10
101.8064458319
 20
193.9074005382
 30
0.0
 11
89.4064458319
 21
193.9074005382
 31
0.0
  0
LINE
  5
1A9
100
AcDbEntity
  8
2501_10 SCHALTER
390
0
100
AcDbLine
 10
101.8064458319
 20
191.9074005382
 30
0.0
 11
89.4064458319
 21
191.9074005382
 31
0.0
  0
LINE
  5
1AA
100
AcDbEntity
  8
2501_10 SCHALTER
390
0
100
AcDbLine
 10
89.4064458319
 20
193.9074005382
 30
0.0
 11
89.4064458319
 21
191.9074005382
 31
0.0
  0
LINE
  5
1AB
100
AcDbEntity
  8
2501_10 SCHALTER
390
0
100
AcDbLine
 10
101.8064458319
 20
193.9074005382
 30
0.0
 11
101.8064458319
 21
191.9074005382
 31
0.0
  0
LINE
  5
1AC
100
AcDbEntity
  8
2501_10 SCHALTER
390
0
100
AcDbLine
 10
116.8064458319
 20
193.9074005382
 30
0.0
 11
104.4064458319
 21
193.9074005382
 31
0.0
  0
LINE
  5
1AD
100
AcDbEntity
  8
2501_10 SCHALTER
390
0
100
AcDbLine
 10
116.8064458319
 20
193.9074005382
 30
0.0
 11
116.8064458319
 21
191.9074005382
 31
0.0
  0
LINE
  5
1AE
100
AcDbEntity
  8
2501_10 SCHALTER
390
0
100
AcDbLine
 10
104.4064458319
 20
193.9074005382
 30
0.0
 11
104.4064458319
 21
191.9074005382
 31
0.0
  0
LINE
  5
1AF
100
AcDbEntity
  8
2501_10 SCHALTER
390
0
100
AcDbLine
 10
116.8064458319
 20
191.9074005382
 30
0.0
 11
104.4064458319
 21
191.9074005382
 31
0.0
  0
LINE
  5
1B0
100
AcDbEntity
  8
2501_5 SCHIEBER
390
0
100
AcDbLine
 10
101.0357375346
 20
205.3892487793
 30
0.0
 11
90.1735495616
 21
205.3892487793
 31
0.0
  0
LINE
  5
1B1
100
AcDbEntity
  8
2501_5 SCHIEBER
390
0
100
AcDbLine
 10
101.0357375346
 20
202.3892487793
 30
0.0
 11
90.1735495616
 21
202.3892487793
 31
0.0
  0
ARC
  5
1B2
100
AcDbEntity
  8
2501_5 SCHIEBER
390
0
100
AcDbCircle
 10
101.0357375346
 20
203.8892487793
 30
0.0
 40
1.5
100
AcDbArc
 50
270.0
 51
450.0
  0
ARC
  5
1B3
100
AcDbEntity
  8
2501_5 SCHIEBER
390
0
100
AcDbCircle
 10
90.1735495616
 20
203.8983246588
 30
0.0
 40
1.4909241206
100
AcDbArc
 50
90.0
 51
270.0
  0
ARC
  5
1B4
100
AcDbEntity
  8
2501_5 SCHIEBER
390
0
100
AcDbCircle
 10
105.1735495616
 20
203.8983246588
 30
0.0
 40
1.4909241206
100
AcDbArc
 50
90.0
 51
270.0
  0
ARC
  5
1B5
100
AcDbEntity
  8
2501_5 SCHIEBER
390
0
100
AcDbCircle
 10
116.0357375346
 20
203.8892487793
 30
0.0
 40
1.5
100
AcDbArc
 50
270.0
 51
450.0
  0
LINE
  5
1B6
100
AcDbEntity
  8
2501_5 SCHIEBER
390
0
100
AcDbLine
 10
116.0357375346
 20
202.3892487793
 30
0.0
 11
105.1735495616
 21
202.3892487793
 31
0.0
  0
LINE
  5
1B7
100
AcDbEntity
  8
2501_5 SCHIEBER
390
0
100
AcDbLine
 10
116.0357375346
 20
205.3892487793
 30
0.0
 11
105.1735495616
 21
205.3892487793
 31
0.0
  0
CIRCLE
  5
1B8
100
AcDbEntity
  8
UNSICHTBARE
390
0
100
AcDbCircle
 10
70.5016728204
 20
92.906472893
 30
0.0
 40
2.75
  0
LINE
  5
1B9
100
AcDbEntity
  8
MITTELLINIEN
390
0
100
AcDbLine
 10
70.5016728204
 20
100.656472893
 30
0.0
 11
70.5016728204
 21
85.156472893
 31
0.0
  0
LINE
  5
1BA
100
AcDbEntity
  8
MITTELLINIEN
390
0
100
AcDbLine
 10
78.2516728204
 20
92.906472893
 30
0.0
 11
62.7516728204
 21
92.906472893
 31
0.0
  0
LINE
  5
1BB
100
AcDbEntity
  8
UNSICHTBARE
390
0
100
AcDbLine
 10
72.7290591812
 20
91.2447719572
 30
0.0
 11
68.8813325797
 21
95.0924985587
 31
0.0
  0
LINE
  5
1BC
100
AcDbEntity
  8
UNSICHTBARE
390
0
100
AcDbLine
 10
72.1633735654
 20
90.679086788
 30
0.0
 11
68.3156469639
 21
94.5268133895
 31
0.0
  0
LINE
  5
1BD
100
AcDbEntity
  8
UNSICHTBARE
390
0
100
AcDbLine
 10
173.2588886969
 20
66.7937641746
 30
0.0
 11
175.1588886969
 21
66.7937641746
 31
0.0
  0
LINE
  5
1BE
100
AcDbEntity
  8
UNSICHTBARE
390
0
100
AcDbLine
 10
173.2588886969
 20
72.2937641746
 30
0.0
 11
175.1588886969
 21
72.2937641746
 31
0.0
  0
LINE
  5
1BF
100
AcDbEntity
  8
MITTELLINIEN
390
0
100
AcDbLine
 10
180.2588886969
 20
69.5437641746
 30
0.0
 11
163.2588886969
 21
69.5437641746
 31
0.0
  0
LINE
  5
1C0
100
AcDbEntity
  8
UNSICHTBARE
390
0
100
AcDbLine
 10
173.2588886969
 20
72.2937641746
 30
0.0
 11
173.2588886969
 21
66.7937641746
 31
0.0
  0
LINE
  5
1C1
100
AcDbEntity
  8
UNSICHTBARE
390
0
100
AcDbLine
 10
175.2588886969
 20
66.8937641746
 30
0.0
 11
175.2588886969
 21
69.1437641746
 31
0.0
  0
LINE
  5
1C2
100
AcDbEntity
  8
UNSICHTBARE
390
0
100
AcDbLine
 10
175.2588886969
 20
72.1937641746
 30
0.0
 11
175.2588886969
 21
69.9437641746
 31
0.0
  0
ARC
  5
1C3
100
AcDbEntity
  8
UNSICHTBARE
390
0
100
AcDbCircle
 10
175.1588886969
 20
66.8937641746
 30
0.0
 40
0.1
100
AcDbArc
 50
270.0
 51
360.0
  0
ARC
  5
1C4
100
AcDbEntity
  8
UNSICHTBARE
390
0
100
AcDbCircle
 10
175.1588886969
 20
72.1937641746
 30
0.0
 40
0.1
100
AcDbArc
 50
360.0
 51
450.0
  0
LINE
  5
1C5
100
AcDbEntity
  8
UNSICHTBARE
390
0
100
AcDbLine
 10
175.2588886969
 20
69.9437641746
 30
0.0
 11
174.4088886969
 21
69.9437641746
 31
0.0
  0
LINE
  5
1C6
100
AcDbEntity
  8
UNSICHTBARE
390
0
100
AcDbLine
 10
175.2588886969
 20
69.1437641746
 30
0.0
 11
174.4088886969
 21
69.1437641746
 31
0.0
  0
LINE
  5
1C7
100
AcDbEntity
  8
UNSICHTBARE
390
0
100
AcDbLine
 10
174.4088886969
 20
69.1437641746
 30
0.0
 11
174.4088886969
 21
69.9437641746
 31
0.0
  0
LINE
  5
1C8
100
AcDbEntity
  8
UNSICHTBARE
390
0
100
AcDbLine
 10
173.2588886969
 20
68.0437641746
 30
0.0
 11
168.5656236969
 21
68.0437641746
 31
0.0
  0
LINE
  5
1C9
100
AcDbEntity
  8
UNSICHTBARE
390
0
100
AcDbLine
 10
171.7588886969
 20
68.3504991746
 30
0.0
 11
168.2588886969
 21
68.3504991746
 31
0.0
  0
LINE
  5
1CA
100
AcDbEntity
  8
UNSICHTBARE
390
0
100
AcDbLine
 10
171.7588886969
 20
70.7370291746
 30
0.0
 11
168.2588886969
 21
70.7370291746
 31
0.0
  0
LINE
  5
1CB
100
AcDbEntity
  8
UNSICHTBARE
390
0
100
AcDbLine
 10
173.2588886969
 20
71.0437641746
 30
0.0
 11
168.5656236969
 21
71.0437641746
 31
0.0
  0
LINE
  5
1CC
100
AcDbEntity
  8
UNSICHTBARE
390
0
100
AcDbLine
 10
171.7588886969
 20
68.0437641746
 30
0.0
 11
171.7588886969
 21
71.0437641746
 31
0.0
  0
LINE
  5
1CD
100
AcDbEntity
  8
UNSICHTBARE
390
0
100
AcDbLine
 10
168.2588886969
 20
68.3504991746
 30
0.0
 11
168.2588886969
 21
70.7370291746
 31
0.0
  0
LINE
  5
1CE
100
AcDbEntity
  8
UNSICHTBARE
390
0
100
AcDbLine
 10
168.5656236969
 20
68.0437641746
 30
0.0
 11
168.5656236969
 21
71.0437641746
 31
0.0
  0
LINE
  5
1CF
100
AcDbEntity
  8
UNSICHTBARE
390
0
100
AcDbLine
 10
168.5656236969
 20
68.0437641746
 30
0.0
 11
168.2588886969
 21
68.3504991746
 31
0.0
  0
LINE
  5
1D0
100
AcDbEntity
  8
UNSICHTBARE
390
0
100
AcDbLine
 10
168.5656236969
 20
71.0437641746
 30
0.0
 11
168.2588886969
 21
70.7370291746
 31
0.0
  0
LINE
  5
1D1
100
AcDbEntity
  8
UNSICHTBARE
390
0
100
AcDbLine
 10
173.2588886969
 20
80.6574005382
 30
0.0
 11
175.1588886969
 21
80.6574005382
 31
0.0
  0
LINE
  5
1D2
100
AcDbEntity
  8
UNSICHTBARE
390
0
100
AcDbLine
 10
173.2588886969
 20
86.1574005382
 30
0.0
 11
175.1588886969
 21
86.1574005382
 31
0.0
  0
LINE
  5
1D3
100
AcDbEntity
  8
MITTELLINIEN
390
0
100
AcDbLine
 10
180.2588886969
 20
83.4074005382
 30
0.0
 11
163.2588886969
 21
83.4074005382
 31
0.0
  0
LINE
  5
1D4
100
AcDbEntity
  8
UNSICHTBARE
390
0
100
AcDbLine
 10
173.2588886969
 20
86.1574005382
 30
0.0
 11
173.2588886969
 21
80.6574005382
 31
0.0
  0
LINE
  5
1D5
100
AcDbEntity
  8
UNSICHTBARE
390
0
100
AcDbLine
 10
175.2588886969
 20
80.7574005382
 30
0.0
 11
175.2588886969
 21
83.0074005382
 31
0.0
  0
LINE
  5
1D6
100
AcDbEntity
  8
UNSICHTBARE
390
0
100
AcDbLine
 10
175.2588886969
 20
86.0574005382
 30
0.0
 11
175.2588886969
 21
83.8074005382
 31
0.0
  0
ARC
  5
1D7
100
AcDbEntity
  8
UNSICHTBARE
390
0
100
AcDbCircle
 10
175.1588886969
 20
80.7574005382
 30
0.0
 40
0.1
100
AcDbArc
 50
270.0
 51
360.0
  0
ARC
  5
1D8
100
AcDbEntity
  8
UNSICHTBARE
390
0
100
AcDbCircle
 10
175.1588886969
 20
86.0574005382
 30
0.0
 40
0.1
100
AcDbArc
 50
0.0
 51
90.0
  0
LINE
  5
1D9
100
AcDbEntity
  8
UNSICHTBARE
390
0
100
AcDbLine
 10
175.2588886969
 20
83.8074005382
 30
0.0
 11
174.4088886969
 21
83.8074005382
 31
0.0
  0
LINE
  5
1DA
100
AcDbEntity
  8
UNSICHTBARE
390
0
100
AcDbLine
 10
175.2588886969
 20
83.0074005382
 30
0.0
 11
174.4088886969
 21
83.0074005382
 31
0.0
  0
LINE
  5
1DB
100
AcDbEntity
  8
UNSICHTBARE
390
0
100
AcDbLine
 10
174.4088886969
 20
83.0074005382
 30
0.0
 11
174.4088886969
 21
83.8074005382
 31
0.0
  0
LINE
  5
1DC
100
AcDbEntity
  8
UNSICHTBARE
390
0
100
AcDbLine
 10
173.2588886969
 20
81.9074005382
 30
0.0
 11
168.5656236969
 21
81.9074005382
 31
0.0
  0
LINE
  5
1DD
100
AcDbEntity
  8
UNSICHTBARE
390
0
100
AcDbLine
 10
171.7588886969
 20
82.2141355382
 30
0.0
 11
168.2588886969
 21
82.2141355382
 31
0.0
  0
LINE
  5
1DE
100
AcDbEntity
  8
UNSICHTBARE
390
0
100
AcDbLine
 10
171.7588886969
 20
84.6006655382
 30
0.0
 11
168.2588886969
 21
84.6006655382
 31
0.0
  0
LINE
  5
1DF
100
AcDbEntity
  8
UNSICHTBARE
390
0
100
AcDbLine
 10
173.2588886969
 20
84.9074005382
 30
0.0
 11
168.5656236969
 21
84.9074005382
 31
0.0
  0
LINE
  5
1E0
100
AcDbEntity
  8
UNSICHTBARE
390
0
100
AcDbLine
 10
171.7588886969
 20
81.9074005382
 30
0.0
 11
171.7588886969
 21
84.9074005382
 31
0.0
  0
LINE
  5
1E1
100
AcDbEntity
  8
UNSICHTBARE
390
0
100
AcDbLine
 10
168.2588886969
 20
82.2141355382
 30
0.0
 11
168.2588886969
 21
84.6006655382
 31
0.0
  0
LINE
  5
1E2
100
AcDbEntity
  8
UNSICHTBARE
390
0
100
AcDbLine
 10
168.5656236969
 20
81.9074005382
 30
0.0
 11
168.5656236969
 21
84.9074005382
 31
0.0
  0
LINE
  5
1E3
100
AcDbEntity
  8
UNSICHTBARE
390
0
100
AcDbLine
 10
168.5656236969
 20
81.9074005382
 30
0.0
 11
168.2588886969
 21
82.2141355382
 31
0.0
  0
LINE
  5
1E4
100
AcDbEntity
  8
UNSICHTBARE
390
0
100
AcDbLine
 10
168.5656236969
 20
84.9074005382
 30
0.0
 11
168.2588886969
 21
84.6006655382
 31
0.0
  0
LINE
  5
1E5
100
AcDbEntity
  8
UNSICHTBARE
390
0
100
AcDbLine
 10
123.7366836704
 20
75.4074005382
 30
0.0
 11
123.7366836704
 21
73.5074005382
 31
0.0
  0
LINE
  5
1E6
100
AcDbEntity
  8
UNSICHTBARE
390
0
100
AcDbLine
 10
129.2366836704
 20
75.4074005382
 30
0.0
 11
129.2366836704
 21
73.5074005382
 31
0.0
  0
LINE
  5
1E7
100
AcDbEntity
  8
MITTELLINIEN
390
0
100
AcDbLine
 10
126.4866836704
 20
68.4074005382
 30
0.0
 11
126.4866836704
 21
85.4074005382
 31
0.0
  0
LINE
  5
1E8
100
AcDbEntity
  8
UNSICHTBARE
390
0
100
AcDbLine
 10
129.2366836704
 20
75.4074005382
 30
0.0
 11
123.7366836704
 21
75.4074005382
 31
0.0
  0
LINE
  5
1E9
100
AcDbEntity
  8
UNSICHTBARE
390
0
100
AcDbLine
 10
123.8366836704
 20
73.4074005382
 30
0.0
 11
126.0866836704
 21
73.4074005382
 31
0.0
  0
LINE
  5
1EA
100
AcDbEntity
  8
UNSICHTBARE
390
0
100
AcDbLine
 10
129.1366836704
 20
73.4074005382
 30
0.0
 11
126.8866836704
 21
73.4074005382
 31
0.0
  0
ARC
  5
1EB
100
AcDbEntity
  8
UNSICHTBARE
390
0
100
AcDbCircle
 10
123.8366836704
 20
73.5074005382
 30
0.0
 40
0.1
100
AcDbArc
 50
180.0
 51
270.0
  0
ARC
  5
1EC
100
AcDbEntity
  8
UNSICHTBARE
390
0
100
AcDbCircle
 10
129.1366836704
 20
73.5074005382
 30
0.0
 40
0.1
100
AcDbArc
 50
270.0
 51
360.0
  0
LINE
  5
1ED
100
AcDbEntity
  8
UNSICHTBARE
390
0
100
AcDbLine
 10
126.8866836704
 20
73.4074005382
 30
0.0
 11
126.8866836704
 21
74.2574005382
 31
0.0
  0
LINE
  5
1EE
100
AcDbEntity
  8
UNSICHTBARE
390
0
100
AcDbLine
 10
126.0866836704
 20
73.4074005382
 30
0.0
 11
126.0866836704
 21
74.2574005382
 31
0.0
  0
LINE
  5
1EF
100
AcDbEntity
  8
UNSICHTBARE
390
0
100
AcDbLine
 10
126.0866836704
 20
74.2574005382
 30
0.0
 11
126.8866836704
 21
74.2574005382
 31
0.0
  0
LINE
  5
1F0
100
AcDbEntity
  8
UNSICHTBARE
390
0
100
AcDbLine
 10
124.9866836704
 20
75.4074005382
 30
0.0
 11
124.9866836704
 21
80.1006655382
 31
0.0
  0
LINE
  5
1F1
100
AcDbEntity
  8
UNSICHTBARE
390
0
100
AcDbLine
 10
125.2934186704
 20
76.9074005382
 30
0.0
 11
125.2934186704
 21
80.4074005382
 31
0.0
  0
LINE
  5
1F2
100
AcDbEntity
  8
UNSICHTBARE
390
0
100
AcDbLine
 10
127.6799486704
 20
76.9074005382
 30
0.0
 11
127.6799486704
 21
80.4074005382
 31
0.0
  0
LINE
  5
1F3
100
AcDbEntity
  8
UNSICHTBARE
390
0
100
AcDbLine
 10
127.9866836704
 20
75.4074005382
 30
0.0
 11
127.9866836704
 21
80.1006655382
 31
0.0
  0
LINE
  5
1F4
100
AcDbEntity
  8
UNSICHTBARE
390
0
100
AcDbLine
 10
124.9866836704
 20
76.9074005382
 30
0.0
 11
127.9866836704
 21
76.9074005382
 31
0.0
  0
LINE
  5
1F5
100
AcDbEntity
  8
UNSICHTBARE
390
0
100
AcDbLine
 10
125.2934186704
 20
80.4074005382
 30
0.0
 11
127.6799486704
 21
80.4074005382
 31
0.0
  0
LINE
  5
1F6
100
AcDbEntity
  8
UNSICHTBARE
390
0
100
AcDbLine
 10
124.9866836704
 20
80.1006655382
 30
0.0
 11
127.9866836704
 21
80.1006655382
 31
0.0
  0
LINE
  5
1F7
100
AcDbEntity
  8
UNSICHTBARE
390
0
100
AcDbLine
 10
124.9866836704
 20
80.1006655382
 30
0.0
 11
125.2934186704
 21
80.4074005382
 31
0.0
  0
LINE
  5
1F8
100
AcDbEntity
  8
UNSICHTBARE
390
0
100
AcDbLine
 10
127.9866836704
 20
80.1006655382
 30
0.0
 11
127.6799486704
 21
80.4074005382
 31
0.0
  0
LINE
  5
1F9
100
AcDbEntity
  8
UNSICHTBARE
390
0
100
AcDbLine
 10
27.7523685063
 20
75.4074005382
 30
0.0
 11
27.7523685063
 21
73.5074005382
 31
0.0
  0
LINE
  5
1FA
100
AcDbEntity
  8
UNSICHTBARE
390
0
100
AcDbLine
 10
22.2523685063
 20
75.4074005382
 30
0.0
 11
22.2523685063
 21
73.5074005382
 31
0.0
  0
LINE
  5
1FB
100
AcDbEntity
  8
MITTELLINIEN
390
0
100
AcDbLine
 10
25.0023685063
 20
68.4074005382
 30
0.0
 11
25.0023685063
 21
85.4074005382
 31
0.0
  0
LINE
  5
1FC
100
AcDbEntity
  8
UNSICHTBARE
390
0
100
AcDbLine
 10
22.2523685063
 20
75.4074005382
 30
0.0
 11
27.7523685063
 21
75.4074005382
 31
0.0
  0
LINE
  5
1FD
100
AcDbEntity
  8
UNSICHTBARE
390
0
100
AcDbLine
 10
27.6523685063
 20
73.4074005382
 30
0.0
 11
25.4023685063
 21
73.4074005382
 31
0.0
  0
LINE
  5
1FE
100
AcDbEntity
  8
UNSICHTBARE
390
0
100
AcDbLine
 10
22.3523685063
 20
73.4074005382
 30
0.0
 11
24.6023685063
 21
73.4074005382
 31
0.0
  0
ARC
  5
1FF
100
AcDbEntity
  8
UNSICHTBARE
390
0
100
AcDbCircle
 10
27.6523685063
 20
73.5074005382
 30
0.0
 40
0.1
100
AcDbArc
 50
270.0
 51
360.0
  0
ARC
  5
200
100
AcDbEntity
  8
UNSICHTBARE
390
0
100
AcDbCircle
 10
22.3523685063
 20
73.5074005382
 30
0.0
 40
0.1
100
AcDbArc
 50
180.0
 51
270.0
  0
LINE
  5
201
100
AcDbEntity
  8
UNSICHTBARE
390
0
100
AcDbLine
 10
24.6023685063
 20
73.4074005382
 30
0.0
 11
24.6023685063
 21
74.2574005382
 31
0.0
  0
LINE
  5
202
100
AcDbEntity
  8
UNSICHTBARE
390
0
100
AcDbLine
 10
25.4023685063
 20
73.4074005382
 30
0.0
 11
25.4023685063
 21
74.2574005382
 31
0.0
  0
LINE
  5
203
100
AcDbEntity
  8
UNSICHTBARE
390
0
100
AcDbLine
 10
25.4023685063
 20
74.2574005382
 30
0.0
 11
24.6023685063
 21
74.2574005382
 31
0.0
  0
LINE
  5
204
100
AcDbEntity
  8
UNSICHTBARE
390
0
100
AcDbLine
 10
26.5023685063
 20
75.4074005382
 30
0.0
 11
26.5023685063
 21
80.1006655382
 31
0.0
  0
LINE
  5
205
100
AcDbEntity
  8
UNSICHTBARE
390
0
100
AcDbLine
 10
26.1956335063
 20
76.9074005382
 30
0.0
 11
26.1956335063
 21
80.4074005382
 31
0.0
  0
LINE
  5
206
100
AcDbEntity
  8
UNSICHTBARE
390
0
100
AcDbLine
 10
23.8091035063
 20
76.9074005382
 30
0.0
 11
23.8091035063
 21
80.4074005382
 31
0.0
  0
LINE
  5
207
100
AcDbEntity
  8
UNSICHTBARE
390
0
100
AcDbLine
 10
23.5023685063
 20
75.4074005382
 30
0.0
 11
23.5023685063
 21
80.1006655382
 31
0.0
  0
LINE
  5
208
100
AcDbEntity
  8
UNSICHTBARE
390
0
100
AcDbLine
 10
26.5023685063
 20
76.9074005382
 30
0.0
 11
23.5023685063
 21
76.9074005382
 31
0.0
  0
LINE
  5
209
100
AcDbEntity
  8
UNSICHTBARE
390
0
100
AcDbLine
 10
26.1956335063
 20
80.4074005382
 30
0.0
 11
23.8091035063
 21
80.4074005382
 31
0.0
  0
LINE
  5
20A
100
AcDbEntity
  8
UNSICHTBARE
390
0
100
AcDbLine
 10
26.5023685063
 20
80.1006655382
 30
0.0
 11
23.5023685063
 21
80.1006655382
 31
0.0
  0
LINE
  5
20B
100
AcDbEntity
  8
UNSICHTBARE
390
0
100
AcDbLine
 10
26.5023685063
 20
80.1006655382
 30
0.0
 11
26.1956335063
 21
80.4074005382
 31
0.0
  0
LINE
  5
20C
100
AcDbEntity
  8
UNSICHTBARE
390
0
100
AcDbLine
 10
23.5023685063
 20
80.1006655382
 30
0.0
 11
23.8091035063
 21
80.4074005382
 31
0.0
  0
LINE
  5
20D
100
AcDbEntity
  8
UNSICHTBARE
390
0
100
AcDbLine
 10
144.7588886969
 20
75.4074005382
 30
0.0
 11
144.7588886969
 21
73.5074005382
 31
0.0
  0
LINE
  5
20E
100
AcDbEntity
  8
UNSICHTBARE
390
0
100
AcDbLine
 10
150.2588886969
 20
75.4074005382
 30
0.0
 11
150.2588886969
 21
73.5074005382
 31
0.0
  0
LINE
  5
20F
100
AcDbEntity
  8
MITTELLINIEN
390
0
100
AcDbLine
 10
147.5088886969
 20
68.4074005382
 30
0.0
 11
147.5088886969
 21
85.4074005382
 31
0.0
  0
LINE
  5
210
100
AcDbEntity
  8
UNSICHTBARE
390
0
100
AcDbLine
 10
150.2588886969
 20
75.4074005382
 30
0.0
 11
144.7588886969
 21
75.4074005382
 31
0.0
  0
LINE
  5
211
100
AcDbEntity
  8
UNSICHTBARE
390
0
100
AcDbLine
 10
144.8588886969
 20
73.4074005382
 30
0.0
 11
147.1088886969
 21
73.4074005382
 31
0.0
  0
LINE
  5
212
100
AcDbEntity
  8
UNSICHTBARE
390
0
100
AcDbLine
 10
150.1588886969
 20
73.4074005382
 30
0.0
 11
147.9088886969
 21
73.4074005382
 31
0.0
  0
ARC
  5
213
100
AcDbEntity
  8
UNSICHTBARE
390
0
100
AcDbCircle
 10
144.8588886969
 20
73.5074005382
 30
0.0
 40
0.1
100
AcDbArc
 50
180.0
 51
270.0
  0
ARC
  5
214
100
AcDbEntity
  8
UNSICHTBARE
390
0
100
AcDbCircle
 10
150.1588886969
 20
73.5074005382
 30
0.0
 40
0.1
100
AcDbArc
 50
270.0
 51
360.0
  0
LINE
  5
215
100
AcDbEntity
  8
UNSICHTBARE
390
0
100
AcDbLine
 10
147.9088886969
 20
73.4074005382
 30
0.0
 11
147.9088886969
 21
74.2574005382
 31
0.0
  0
LINE
  5
216
100
AcDbEntity
  8
UNSICHTBARE
390
0
100
AcDbLine
 10
147.1088886969
 20
73.4074005382
 30
0.0
 11
147.1088886969
 21
74.2574005382
 31
0.0
  0
LINE
  5
217
100
AcDbEntity
  8
UNSICHTBARE
390
0
100
AcDbLine
 10
147.1088886969
 20
74.2574005382
 30
0.0
 11
147.9088886969
 21
74.2574005382
 31
0.0
  0
LINE
  5
218
100
AcDbEntity
  8
UNSICHTBARE
390
0
100
AcDbLine
 10
146.0088886969
 20
75.4074005382
 30
0.0
 11
146.0088886969
 21
80.1006655382
 31
0.0
  0
LINE
  5
219
100
AcDbEntity
  8
UNSICHTBARE
390
0
100
AcDbLine
 10
146.3156236969
 20
76.9074005382
 30
0.0
 11
146.3156236969
 21
80.4074005382
 31
0.0
  0
LINE
  5
21A
100
AcDbEntity
  8
UNSICHTBARE
390
0
100
AcDbLine
 10
148.7021536969
 20
76.9074005382
 30
0.0
 11
148.7021536969
 21
80.4074005382
 31
0.0
  0
LINE
  5
21B
100
AcDbEntity
  8
UNSICHTBARE
390
0
100
AcDbLine
 10
149.0088886969
 20
75.4074005382
 30
0.0
 11
149.0088886969
 21
80.1006655382
 31
0.0
  0
LINE
  5
21C
100
AcDbEntity
  8
UNSICHTBARE
390
0
100
AcDbLine
 10
146.0088886969
 20
76.9074005382
 30
0.0
 11
149.0088886969
 21
76.9074005382
 31
0.0
  0
LINE
  5
21D
100
AcDbEntity
  8
UNSICHTBARE
390
0
100
AcDbLine
 10
146.3156236969
 20
80.4074005382
 30
0.0
 11
148.7021536969
 21
80.4074005382
 31
0.0
  0
LINE
  5
21E
100
AcDbEntity
  8
UNSICHTBARE
390
0
100
AcDbLine
 10
146.0088886969
 20
80.1006655382
 30
0.0
 11
149.0088886969
 21
80.1006655382
 31
0.0
  0
LINE
  5
21F
100
AcDbEntity
  8
UNSICHTBARE
390
0
100
AcDbLine
 10
146.0088886969
 20
80.1006655382
 30
0.0
 11
146.3156236969
 21
80.4074005382
 31
0.0
  0
LINE
  5
220
100
AcDbEntity
  8
UNSICHTBARE
390
0
100
AcDbLine
 10
149.0088886969
 20
80.1006655382
 30
0.0
 11
148.7021536969
 21
80.4074005382
 31
0.0
  0
CIRCLE
  5
221
100
AcDbEntity
  8
UNSICHTBARE
390
0
100
AcDbCircle
 10
63.5695331561
 20
69.5437641746
 30
0.0
 40
2.75
  0
LINE
  5
222
100
AcDbEntity
  8
MITTELLINIEN
390
0
100
AcDbLine
 10
71.3190396441
 20
69.4563045157
 30
0.0
 11
55.820026668
 21
69.6312238335
 31
0.0
  0
LINE
  5
223
100
AcDbEntity
  8
MITTELLINIEN
390
0
100
AcDbLine
 10
63.4820734972
 20
61.7942576865
 30
0.0
 11
63.656992815
 21
77.2932706626
 31
0.0
  0
LINE
  5
224
100
AcDbEntity
  8
UNSICHTBARE
390
0
100
AcDbLine
 10
61.8828017194
 20
67.3352721414
 30
0.0
 11
65.7737053476
 21
71.1393316777
 31
0.0
  0
LINE
  5
225
100
AcDbEntity
  8
UNSICHTBARE
390
0
100
AcDbLine
 10
61.3235364009
 20
67.9073055584
 30
0.0
 11
65.2144400291
 21
71.7113650947
 31
0.0
  0
CIRCLE
  5
226
100
AcDbEntity
  8
UNSICHTBARE
390
0
100
AcDbCircle
 10
63.5695331561
 20
69.5437641746
 30
0.0
 40
3.5
  0
CIRCLE
  5
227
100
AcDbEntity
  8
UNSICHTBARE
390
0
100
AcDbCircle
 10
63.5695331561
 20
69.5437641746
 30
0.0
 40
1.6
  0
LINE
  5
228
100
AcDbEntity
  8
MITTELLINIEN
390
0
100
AcDbLine
 10
72.0695331561
 20
69.5437641746
 30
0.0
 11
55.0695331561
 21
69.5437641746
 31
0.0
  0
LINE
  5
229
100
AcDbEntity
  8
MITTELLINIEN
390
0
100
AcDbLine
 10
63.5695331561
 20
78.0437641746
 30
0.0
 11
63.5695331561
 21
61.0437641746
 31
0.0
  0
LINE
  5
22A
100
AcDbEntity
  8
2501_2-4 ROLLEN
390
0
100
AcDbLine
 10
166.2588886969
 20
131.6815533421
 30
0.0
 11
166.2588886969
 21
132.6815533421
 31
0.0
  0
LINE
  5
22B
100
AcDbEntity
  8
2501_1 UNTERZUGRAHMEN
390
0
100
AcDbLine
 10
156.0088886969
 20
77.4074005382
 30
0.0
 11
156.0088886969
 21
92.4074005382
 31
0.0
  0
LINE
  5
22C
100
AcDbEntity
  8
2501_2-4 ROLLEN
390
0
100
AcDbLine
 10
168.2588886969
 20
113.7141355382
 30
0.0
 11
168.2588886969
 21
65.7141355382
 31
0.0
  0
LINE
  5
22D
100
AcDbEntity
  8
2501_2-4 ROLLEN
390
0
100
AcDbLine
 10
173.2588886969
 20
65.7141355382
 30
0.0
 11
173.2588886969
 21
113.7141355382
 31
0.0
  0
LINE
  5
22E
100
AcDbEntity
  8
2501_1 UNTERZUGRAHMEN
390
0
100
AcDbLine
 10
18.5023685063
 20
79.4074005382
 30
0.0
 11
132.9866836704
 21
79.4074005382
 31
0.0
  0
LINE
  5
22F
100
AcDbEntity
  8
2501_1 UNTERZUGRAHMEN
390
0
100
AcDbLine
 10
18.5023685063
 20
77.4074005382
 30
0.0
 11
132.9866836704
 21
77.4074005382
 31
0.0
  0
CIRCLE
  5
230
100
AcDbEntity
  8
2501_2-4 ROLLEN
390
0
100
AcDbCircle
 10
58.5014022962
 20
89.4074005382
 30
0.0
 40
24.5
  0
CIRCLE
  5
231
100
AcDbEntity
  8
2501_2-4 ROLLEN
390
0
  6
DASHED
100
AcDbCircle
 10
58.5014022962
 20
89.4074005382
 30
0.0
 40
23.5
  0
CIRCLE
  5
232
100
AcDbEntity
  8
2501_2-4 ROLLEN
390
0
100
AcDbCircle
 10
58.5014022962
 20
89.4074005382
 30
0.0
 40
1.5
  0
CIRCLE
  5
233
100
AcDbEntity
  8
2501_2-4 ROLLEN
390
0
100
AcDbCircle
 10
58.5014022962
 20
67.4074005382
 30
0.0
 40
1.75
  0
CIRCLE
  5
234
100
AcDbEntity
  8
2501_2-4 ROLLEN
390
0
100
AcDbCircle
 10
63.5695331561
 20
69.5437641746
 30
0.0
 40
1.25
  0
LINE
  5
235
100
AcDbEntity
  8
2501_1 UNTERZUGRAHMEN
370
        18
390
0
100
AcDbLine
 10
154.0088886969
 20
79.4074005382
 30
0.0
 11
154.0088886969
 21
92.4074005382
 31
0.0
  0
LINE
  5
236
100
AcDbEntity
  8
2501_1 UNTERZUGRAHMEN
370
        18
390
0
100
AcDbLine
 10
156.0088886969
 20
92.4074005382
 30
0.0
 11
154.0088886969
 21
92.4074005382
 31
0.0
  0
LINE
  5
237
100
AcDbEntity
  8
2501_1 UNTERZUGRAHMEN
370
        18
390
0
100
AcDbLine
 10
154.0088886969
 20
79.4074005382
 30
0.0
 11
141.0088886969
 21
79.4074005382
 31
0.0
  0
LINE
  5
238
100
AcDbEntity
  8
2501_1 UNTERZUGRAHMEN
390
0
100
AcDbLine
 10
189.0088886969
 20
77.4074005382
 30
0.0
 11
189.0088886969
 21
92.4074005382
 31
0.0
  0
LINE
  5
239
100
AcDbEntity
  8
2501_1 UNTERZUGRAHMEN
370
        18
390
0
100
AcDbLine
 10
189.0088886969
 20
92.4074005382
 30
0.0
 11
187.0088886969
 21
92.4074005382
 31
0.0
  0
LINE
  5
23A
100
AcDbEntity
  8
2501_1 UNTERZUGRAHMEN
370
        18
390
0
100
AcDbLine
 10
187.0088886969
 20
79.4074005382
 30
0.0
 11
174.0088886969
 21
79.4074005382
 31
0.0
  0
LINE
  5
23B
100
AcDbEntity
  8
2501_1 UNTERZUGRAHMEN
370
        18
390
0
100
AcDbLine
 10
174.0088886969
 20
77.4074005382
 30
0.0
 11
174.0088886969
 21
79.4074005382
 31
0.0
  0
LINE
  5
23C
100
AcDbEntity
  8
2501_1 UNTERZUGRAHMEN
390
0
100
AcDbLine
 10
174.0088886969
 20
77.4074005382
 30
0.0
 11
189.0088886969
 21
77.4074005382
 31
0.0
  0
LINE
  5
23D
100
AcDbEntity
  8
2501_1 UNTERZUGRAHMEN
390
0
100
AcDbLine
 10
16.5023685063
 20
75.4074005382
 30
0.0
 11
16.5023685063
 21
90.4074005382
 31
0.0
  0
LINE
  5
23E
100
AcDbEntity
  8
2501_1 UNTERZUGRAHMEN
370
        18
390
0
100
AcDbLine
 10
16.5023685063
 20
90.4074005382
 30
0.0
 11
18.5023685063
 21
90.4074005382
 31
0.0
  0
LINE
  5
23F
100
AcDbEntity
  8
2501_1 UNTERZUGRAHMEN
370
        18
390
0
100
AcDbLine
 10
31.5423685063
 20
75.4074005382
 30
0.0
 11
31.5423685063
 21
77.4074005382
 31
0.0
  0
LINE
  5
240
100
AcDbEntity
  8
2501_1 UNTERZUGRAHMEN
370
        18
390
0
100
AcDbLine
 10
134.9966836704
 20
75.4074005382
 30
0.0
 11
119.9966836704
 21
75.4074005382
 31
0.0
  0
LINE
  5
241
100
AcDbEntity
  8
2501_1 UNTERZUGRAHMEN
370
        18
390
0
100
AcDbLine
 10
119.9566836704
 20
75.4074005382
 30
0.0
 11
119.9566836704
 21
77.4074005382
 31
0.0
  0
LINE
  5
242
100
AcDbEntity
  8
2501_1 UNTERZUGRAHMEN
390
0
100
AcDbLine
 10
134.9966836704
 20
75.4074005382
 30
0.0
 11
134.9966836704
 21
90.4074005382
 31
0.0
  0
LINE
  5
243
100
AcDbEntity
  8
2501_1 UNTERZUGRAHMEN
390
0
100
AcDbLine
 10
134.9966836704
 20
90.4074005382
 30
0.0
 11
132.9966836704
 21
90.4074005382
 31
0.0
  0
LINE
  5
244
100
AcDbEntity
  8
KONSTRUKTION
390
0
  6
DASHDOT
100
AcDbLine
 10
82.0014022962
 20
89.4074005382
 30
0.0
 11
82.0014022962
 21
146.9103470261
 31
0.0
  0
LINE
  5
245
100
AcDbEntity
  8
KONSTRUKTION
390
0
  6
DASHDOT
100
AcDbLine
 10
35.0014022962
 20
89.4074005382
 30
0.0
 11
35.0014022962
 21
146.574213904
 31
0.0
  0
LINE
  5
246
100
AcDbEntity
  8
2501_1 UNTERZUGRAHMEN
390
0
100
AcDbLine
 10
187.0088886969
 20
92.4074005382
 30
0.0
 11
187.0088886969
 21
79.4074005382
 31
0.0
  0
LINE
  5
247
100
AcDbEntity
  8
2501_1 UNTERZUGRAHMEN
390
0
100
AcDbLine
 10
31.5423685063
 20
75.4074005382
 30
0.0
 11
16.5023685063
 21
75.4074005382
 31
0.0
  0
LINE
  5
248
100
AcDbEntity
  8
KONSTRUKTION
390
0
  6
DASHDOT
100
AcDbLine
 10
170.7588886969
 20
65.7141355382
 30
0.0
 11
170.7588886969
 21
142.2044833177
 31
0.0
  0
LINE
  5
249
100
AcDbEntity
  8
2501_1 UNTERZUGRAHMEN
390
0
100
AcDbLine
 10
34.0014022962
 20
77.4074005382
 30
0.0
 11
34.0014022962
 21
79.4074005382
 31
0.0
  0
LINE
  5
24A
100
AcDbEntity
  8
2501_1 UNTERZUGRAHMEN
390
0
100
AcDbLine
 10
83.0014022962
 20
77.4074005382
 30
0.0
 11
83.0014022962
 21
79.4074005382
 31
0.0
  0
TEXT
  5
24B
100
AcDbEntity
  8
BESCHRIFTUNG
390
0
100
AcDbText
 10
17.527087095
 20
94.1118036513
 30
0.0
 40
3.0
  1
2501.6
 41
1.1351381522
  7
Arial
100
AcDbText
  0
TEXT
  5
24C
100
AcDbEntity
  8
BESCHRIFTUNG
390
0
100
AcDbText
 10
38.0252773045
 20
138.186075694
 30
0.0
 40
3.0
  1
2001.1
 41
1.1351381256
  7
Arial
100
AcDbText
  0
LINE
  5
24D
100
AcDbEntity
  8
MITTELLINIEN
390
0
100
AcDbLine
 10
167.791289654
 20
85.9074005382
 30
0.0
 11
204.5088886969
 21
85.9074005382
 31
0.0
  0
LINE
  5
24E
100
AcDbEntity
  8
2501_2-4 ROLLEN
390
0
100
AcDbLine
 10
173.2588886969
 20
113.7141355382
 30
0.0
 11
171.5088886969
 21
113.7141355382
 31
0.0
  0
LINE
  5
24F
100
AcDbEntity
  8
2501_2-4 ROLLEN
390
0
100
AcDbLine
 10
170.0088886969
 20
113.7141355382
 30
0.0
 11
168.2588886969
 21
113.7141355382
 31
0.0
  0
LINE
  5
250
100
AcDbEntity
  8
2501_2-4 ROLLEN
390
0
100
AcDbLine
 10
170.0088886969
 20
112.7141355382
 30
0.0
 11
171.5088886969
 21
112.7141355382
 31
0.0
  0
LINE
  5
251
100
AcDbEntity
  8
2501_2-4 ROLLEN
390
0
100
AcDbLine
 10
171.5088886969
 20
113.7141355382
 30
0.0
 11
171.5088886969
 21
112.7141355382
 31
0.0
  0
LINE
  5
252
100
AcDbEntity
  8
2501_2-4 ROLLEN
390
0
100
AcDbLine
 10
170.0088886969
 20
112.7141355382
 30
0.0
 11
170.0088886969
 21
113.7141355382
 31
0.0
  0
LINE
  5
253
100
AcDbEntity
  8
2501_2-4 ROLLEN
390
0
100
AcDbLine
 10
168.2588886969
 20
65.7141355382
 30
0.0
 11
170.0088886969
 21
65.7141355382
 31
0.0
  0
LINE
  5
254
100
AcDbEntity
  8
2501_2-4 ROLLEN
390
0
100
AcDbLine
 10
171.5088886969
 20
66.7141355382
 30
0.0
 11
170.0088886969
 21
66.7141355382
 31
0.0
  0
LINE
  5
255
100
AcDbEntity
  8
2501_2-4 ROLLEN
390
0
100
AcDbLine
 10
171.5088886969
 20
65.7141355382
 30
0.0
 11
171.5088886969
 21
66.7141355382
 31
0.0
  0
LINE
  5
256
100
AcDbEntity
  8
2501_2-4 ROLLEN
390
0
100
AcDbLine
 10
170.0088886969
 20
66.7141355382
 30
0.0
 11
170.0088886969
 21
65.7141355382
 31
0.0
  0
LINE
  5
257
100
AcDbEntity
  8
2501_2-4 ROLLEN
390
0
100
AcDbLine
 10
171.5088886969
 20
65.7141355382
 30
0.0
 11
173.2588886969
 21
65.7141355382
 31
0.0
  0
LINE
  5
258
100
AcDbEntity
  8
2501_1 UNTERZUGRAHMEN
390
0
100
AcDbLine
 10
140.5847052802
 20
75.4074005382
 30
0.0
 11
161.8982560924
 21
75.4074005382
 31
0.0
  0
LINE
  5
259
100
AcDbEntity
  8
2501_1 UNTERZUGRAHMEN
390
0
100
AcDbLine
 10
139.3607877155
 20
77.4074005382
 30
0.0
 11
162.0018205455
 21
77.4074005382
 31
0.0
  0
LINE
  5
25A
100
AcDbEntity
  8
 2001_2 BODEN
390
0
100
AcDbLine
 10
20.7282599345
 20
136.9074005382
 30
0.0
 11
111.974113482
 21
136.9074005382
 31
0.0
  0
LINE
  5
25B
100
AcDbEntity
  8
 2001_2 BODEN
390
0
100
AcDbLine
 10
20.3968536845
 20
142.9074005382
 30
0.0
 11
111.974113482
 21
142.9074005382
 31
0.0
  0
CIRCLE
  5
25C
100
AcDbEntity
  8
MITTELLINIEN
390
0
100
AcDbCircle
 10
58.5014022962
 20
89.4074005382
 30
0.0
 40
12.5
  0
CIRCLE
  5
25D
100
AcDbEntity
  8
MITTELLINIEN
390
0
100
AcDbCircle
 10
58.5014022962
 20
89.4074005382
 30
0.0
 40
18.5
  0
LINE
  5
25E
100
AcDbEntity
  8
2501_10 SCHALTER
390
0
100
AcDbLine
 10
186.7088886969
 20
193.9074005382
 30
0.0
 11
177.3088886969
 21
193.9074005382
 31
0.0
  0
LINE
  5
25F
100
AcDbEntity
  8
2501_10 SCHALTER
390
0
100
AcDbLine
 10
186.7088886969
 20
193.9074005382
 30
0.0
 11
186.7088886969
 21
191.9074005382
 31
0.0
  0
LINE
  5
260
100
AcDbEntity
  8
2501_10 SCHALTER
390
0
100
AcDbLine
 10
177.3088886969
 20
193.9074005382
 30
0.0
 11
177.3088886969
 21
191.9074005382
 31
0.0
  0
LINE
  5
261
100
AcDbEntity
  8
2501_10 SCHALTER
390
0
100
AcDbLine
 10
186.7088886969
 20
191.9074005382
 30
0.0
 11
177.3088886969
 21
191.9074005382
 31
0.0
  0
LINE
  5
262
100
AcDbEntity
  8
2501_5 SCHIEBER
390
0
100
AcDbLine
 10
176.5088886969
 20
209.4074005382
 30
0.0
 11
178.5088886969
 21
209.4074005382
 31
0.0
  0
LINE
  5
263
100
AcDbEntity
  8
2501_5 SCHIEBER
390
0
100
AcDbLine
 10
178.5088886969
 20
209.4074005382
 30
0.0
 11
178.5088886969
 21
194.4074005382
 31
0.0
  0
LINE
  5
264
100
AcDbEntity
  8
2501_5 SCHIEBER
390
0
100
AcDbLine
 10
178.5088886969
 20
194.4074005382
 30
0.0
 11
176.5088886969
 21
194.4074005382
 31
0.0
  0
LINE
  5
265
100
AcDbEntity
  8
2501_5 SCHIEBER
390
0
100
AcDbLine
 10
176.5088886969
 20
194.4074005382
 30
0.0
 11
176.5088886969
 21
209.4074005382
 31
0.0
  0
LINE
  5
266
100
AcDbEntity
  8
UNSICHTBARE
390
0
100
AcDbLine
 10
172.7588886968
 20
185.5437641746
 30
0.0
 11
172.2588886968
 21
185.5437641746
 31
0.0
  0
LINE
  5
267
100
AcDbEntity
  8
UNSICHTBARE
390
0
100
AcDbLine
 10
172.7588886968
 20
178.5437641746
 30
0.0
 11
172.7588886968
 21
185.5437641746
 31
0.0
  0
LINE
  5
268
100
AcDbEntity
  8
UNSICHTBARE
390
0
100
AcDbLine
 10
172.2588886968
 20
178.5437641746
 30
0.0
 11
172.7588886968
 21
178.5437641746
 31
0.0
  0
LINE
  5
269
100
AcDbEntity
  8
UNSICHTBARE
390
0
100
AcDbLine
 10
172.2588886968
 20
185.5437641746
 30
0.0
 11
172.2588886968
 21
178.5437641746
 31
0.0
  0
LINE
  5
26A
100
AcDbEntity
  8
MITTELLINIEN
390
0
100
AcDbLine
 10
171.7588886968
 20
182.0437641746
 30
0.0
 11
173.2588886968
 21
182.0437641746
 31
0.0
  0
LINE
  5
26B
100
AcDbEntity
  8
2501_2-4 ROLLEN
390
0
  6
DASHED
100
AcDbLine
 10
172.2588886968
 20
218.4074005382
 30
0.0
 11
169.2588886968
 21
218.4074005382
 31
0.0
  0
LINE
  5
26C
100
AcDbEntity
  8
2501_2-4 ROLLEN
390
0
  6
DASHED
100
AcDbLine
 10
172.2588886968
 20
216.4074005382
 30
0.0
 11
169.2588886968
 21
216.4074005382
 31
0.0
  0
LINE
  5
26D
100
AcDbEntity
  8
2501_2-4 ROLLEN
390
0
  6
DASHED
100
AcDbLine
 10
172.2588886968
 20
187.4074005382
 30
0.0
 11
169.2588886968
 21
187.4074005382
 31
0.0
  0
LINE
  5
26E
100
AcDbEntity
  8
2501_2-4 ROLLEN
390
0
  6
DASHED
100
AcDbLine
 10
172.2588886968
 20
185.5437641746
 30
0.0
 11
169.2588886968
 21
185.4074005382
 31
0.0
  0
LINE
  5
26F
100
AcDbEntity
  8
2501_2-4 ROLLEN
390
0
  6
DASHED
100
AcDbLine
 10
169.2588886968
 20
185.4074005382
 30
0.0
 11
169.2588886968
 21
218.4074005382
 31
0.0
  0
LINE
  5
270
100
AcDbEntity
  8
2501_10 SCHALTER
390
0
100
AcDbLine
 10
180.7588886969
 20
196.5708306217
 30
0.0
 11
180.5088886969
 21
205.5708306217
 31
0.0
  0
LINE
  5
271
100
AcDbEntity
  8
2501_10 SCHALTER
390
0
100
AcDbLine
 10
183.2588886969
 20
196.5708306217
 30
0.0
 11
183.5088886969
 21
205.5708306217
 31
0.0
  0
ARC
  5
272
100
AcDbEntity
  8
2501_10 SCHALTER
390
0
100
AcDbCircle
 10
182.0088886969
 20
205.5708306217
 30
0.0
 40
1.5
100
AcDbArc
 50
0.0
 51
180.0
  0
LINE
  5
273
100
AcDbEntity
  8
UNSICHTBARE
390
0
100
AcDbLine
 10
189.0088886969
 20
199.1574005382
 30
0.0
 11
190.9088886969
 21
199.1574005382
 31
0.0
  0
LINE
  5
274
100
AcDbEntity
  8
UNSICHTBARE
390
0
100
AcDbLine
 10
189.0088886969
 20
204.6574005382
 30
0.0
 11
190.9088886969
 21
204.6574005382
 31
0.0
  0
LINE
  5
275
100
AcDbEntity
  8
MITTELLINIEN
390
0
100
AcDbLine
 10
196.0088886969
 20
201.9074005382
 30
0.0
 11
159.0088886969
 21
201.9074005382
 31
0.0
  0
LINE
  5
276
100
AcDbEntity
  8
UNSICHTBARE
390
0
100
AcDbLine
 10
189.0088886969
 20
204.6574005382
 30
0.0
 11
189.0088886969
 21
199.1574005382
 31
0.0
  0
LINE
  5
277
100
AcDbEntity
  8
UNSICHTBARE
390
0
100
AcDbLine
 10
191.0088886969
 20
199.2574005382
 30
0.0
 11
191.0088886969
 21
201.5074005382
 31
0.0
  0
LINE
  5
278
100
AcDbEntity
  8
UNSICHTBARE
390
0
100
AcDbLine
 10
191.0088886969
 20
204.5574005382
 30
0.0
 11
191.0088886969
 21
202.3074005382
 31
0.0
  0
ARC
  5
279
100
AcDbEntity
  8
UNSICHTBARE
390
0
100
AcDbCircle
 10
190.9088886969
 20
199.2574005382
 30
0.0
 40
0.1
100
AcDbArc
 50
270.0
 51
360.0
  0
ARC
  5
27A
100
AcDbEntity
  8
UNSICHTBARE
390
0
100
AcDbCircle
 10
190.9088886969
 20
204.5574005382
 30
0.0
 40
0.1
100
AcDbArc
 50
0.0
 51
90.0
  0
LINE
  5
27B
100
AcDbEntity
  8
UNSICHTBARE
390
0
100
AcDbLine
 10
191.0088886969
 20
202.3074005382
 30
0.0
 11
190.1588886969
 21
202.3074005382
 31
0.0
  0
LINE
  5
27C
100
AcDbEntity
  8
UNSICHTBARE
390
0
100
AcDbLine
 10
191.0088886969
 20
201.5074005382
 30
0.0
 11
190.1588886969
 21
201.5074005382
 31
0.0
  0
LINE
  5
27D
100
AcDbEntity
  8
UNSICHTBARE
390
0
100
AcDbLine
 10
190.1588886969
 20
201.5074005382
 30
0.0
 11
190.1588886969
 21
202.3074005382
 31
0.0
  0
LINE
  5
27E
100
AcDbEntity
  8
UNSICHTBARE
390
0
100
AcDbLine
 10
189.0088886969
 20
200.4074005382
 30
0.0
 11
164.3156236969
 21
200.4074005382
 31
0.0
  0
LINE
  5
27F
100
AcDbEntity
  8
UNSICHTBARE
390
0
100
AcDbLine
 10
187.5088886969
 20
200.7141355382
 30
0.0
 11
164.0088886969
 21
200.7141355382
 31
0.0
  0
LINE
  5
280
100
AcDbEntity
  8
UNSICHTBARE
390
0
100
AcDbLine
 10
187.5088886969
 20
203.1006655382
 30
0.0
 11
164.0088886969
 21
203.1006655382
 31
0.0
  0
LINE
  5
281
100
AcDbEntity
  8
UNSICHTBARE
390
0
100
AcDbLine
 10
189.0088886969
 20
203.4074005382
 30
0.0
 11
164.3156236969
 21
203.4074005382
 31
0.0
  0
LINE
  5
282
100
AcDbEntity
  8
UNSICHTBARE
390
0
100
AcDbLine
 10
187.5088886969
 20
200.4074005382
 30
0.0
 11
187.5088886969
 21
203.4074005382
 31
0.0
  0
LINE
  5
283
100
AcDbEntity
  8
UNSICHTBARE
390
0
100
AcDbLine
 10
164.0088886969
 20
200.7141355382
 30
0.0
 11
164.0088886969
 21
203.1006655382
 31
0.0
  0
LINE
  5
284
100
AcDbEntity
  8
UNSICHTBARE
390
0
100
AcDbLine
 10
164.3156236969
 20
200.4074005382
 30
0.0
 11
164.3156236969
 21
203.4074005382
 31
0.0
  0
LINE
  5
285
100
AcDbEntity
  8
UNSICHTBARE
390
0
100
AcDbLine
 10
164.3156236969
 20
200.4074005382
 30
0.0
 11
164.0088886969
 21
200.7141355382
 31
0.0
  0
LINE
  5
286
100
AcDbEntity
  8
UNSICHTBARE
390
0
100
AcDbLine
 10
164.3156236969
 20
203.4074005382
 30
0.0
 11
164.0088886969
 21
203.1006655382
 31
0.0
  0
LINE
  5
287
100
AcDbEntity
  8
UNSICHTBARE
390
0
100
AcDbLine
 10
178.5088886968
 20
206.222085137
 30
0.0
 11
178.5088886968
 21
201.457710137
 31
0.0
  0
LINE
  5
288
100
AcDbEntity
  8
UNSICHTBARE
390
0
100
AcDbLine
 10
178.8588886968
 20
207.016147637
 30
0.0
 11
180.5588886968
 21
207.016147637
 31
0.0
  0
LINE
  5
289
100
AcDbEntity
  8
UNSICHTBARE
390
0
100
AcDbLine
 10
180.9088886968
 20
206.222085137
 30
0.0
 11
180.9088886968
 21
201.457710137
 31
0.0
  0
LINE
  5
28A
100
AcDbEntity
  8
UNSICHTBARE
390
0
100
AcDbLine
 10
178.8588886968
 20
200.663647637
 30
0.0
 11
180.5588886968
 21
200.663647637
 31
0.0
  0
LINE
  5
28B
100
AcDbEntity
  8
UNSICHTBARE
390
0
100
AcDbLine
 10
178.8588886968
 20
205.428022637
 30
0.0
 11
180.5588886968
 21
205.428022637
 31
0.0
  0
LINE
  5
28C
100
AcDbEntity
  8
UNSICHTBARE
390
0
100
AcDbLine
 10
178.8588886968
 20
202.251772637
 30
0.0
 11
180.5588886968
 21
202.251772637
 31
0.0
  0
LINE
  5
28D
100
AcDbEntity
  8
MITTELLINIEN
390
0
100
AcDbLine
 10
173.5088886968
 20
203.839897637
 30
0.0
 11
185.9088886968
 21
203.839897637
 31
0.0
  0
ARC
  5
28E
100
AcDbEntity
  8
UNSICHTBARE
390
0
100
AcDbCircle
 10
179.5846533453
 20
206.222085137
 30
0.0
 40
1.0757646484
100
AcDbArc
 50
132.4269786376
 51
227.5730213624
  0
ARC
  5
28F
100
AcDbEntity
  8
UNSICHTBARE
390
0
100
AcDbCircle
 10
179.8331240484
 20
206.222085137
 30
0.0
 40
1.0757646484
100
AcDbArc
 50
312.4269786376
 51
407.5730213624
  0
ARC
  5
290
100
AcDbEntity
  8
UNSICHTBARE
390
0
100
AcDbCircle
 10
179.8331240484
 20
201.457710137
 30
0.0
 40
1.0757646484
100
AcDbArc
 50
312.4269786376
 51
407.5730213624
  0
ARC
  5
291
100
AcDbEntity
  8
UNSICHTBARE
390
0
100
AcDbCircle
 10
179.5846533453
 20
201.457710137
 30
0.0
 40
1.0757646484
100
AcDbArc
 50
132.4269786376
 51
227.5730213624
  0
ARC
  5
292
100
AcDbEntity
  8
UNSICHTBARE
390
0
100
AcDbCircle
 10
182.2869472906
 20
203.839897637
 30
0.0
 40
3.7780585938
100
AcDbArc
 50
155.1430115591
 51
204.8569884409
  0
ARC
  5
293
100
AcDbEntity
  8
UNSICHTBARE
390
0
100
AcDbCircle
 10
177.1308301031
 20
203.839897637
 30
0.0
 40
3.7780585938
100
AcDbArc
 50
335.1430115591
 51
384.8569884409
  0
LINE
  5
294
100
AcDbEntity
  8
UNSICHTBARE
390
0
100
AcDbLine
 10
176.5088886968
 20
206.591568733
 30
0.0
 11
174.6088886968
 21
206.591568733
 31
0.0
  0
LINE
  5
295
100
AcDbEntity
  8
UNSICHTBARE
390
0
100
AcDbLine
 10
176.5088886968
 20
201.091568733
 30
0.0
 11
174.6088886968
 21
201.091568733
 31
0.0
  0
LINE
  5
296
100
AcDbEntity
  8
MITTELLINIEN
390
0
100
AcDbLine
 10
169.5088886968
 20
203.841568733
 30
0.0
 11
189.5088886968
 21
203.841568733
 31
0.0
  0
LINE
  5
297
100
AcDbEntity
  8
UNSICHTBARE
390
0
100
AcDbLine
 10
176.5088886968
 20
201.091568733
 30
0.0
 11
176.5088886968
 21
206.591568733
 31
0.0
  0
LINE
  5
298
100
AcDbEntity
  8
UNSICHTBARE
390
0
100
AcDbLine
 10
174.5088886968
 20
206.491568733
 30
0.0
 11
174.5088886968
 21
204.241568733
 31
0.0
  0
LINE
  5
299
100
AcDbEntity
  8
UNSICHTBARE
390
0
100
AcDbLine
 10
174.5088886968
 20
201.191568733
 30
0.0
 11
174.5088886968
 21
203.441568733
 31
0.0
  0
ARC
  5
29A
100
AcDbEntity
  8
UNSICHTBARE
390
0
100
AcDbCircle
 10
174.6088886968
 20
206.491568733
 30
0.0
 40
0.1
100
AcDbArc
 50
90.0
 51
180.0
  0
ARC
  5
29B
100
AcDbEntity
  8
UNSICHTBARE
390
0
100
AcDbCircle
 10
174.6088886968
 20
201.191568733
 30
0.0
 40
0.1
100
AcDbArc
 50
180.0
 51
270.0
  0
LINE
  5
29C
100
AcDbEntity
  8
UNSICHTBARE
390
0
100
AcDbLine
 10
174.5088886968
 20
203.441568733
 30
0.0
 11
175.3588886968
 21
203.441568733
 31
0.0
  0
LINE
  5
29D
100
AcDbEntity
  8
UNSICHTBARE
390
0
100
AcDbLine
 10
174.5088886968
 20
204.241568733
 30
0.0
 11
175.3588886968
 21
204.241568733
 31
0.0
  0
LINE
  5
29E
100
AcDbEntity
  8
UNSICHTBARE
390
0
100
AcDbLine
 10
175.3588886968
 20
204.241568733
 30
0.0
 11
175.3588886968
 21
203.441568733
 31
0.0
  0
LINE
  5
29F
100
AcDbEntity
  8
UNSICHTBARE
390
0
100
AcDbLine
 10
176.5088886968
 20
205.341568733
 30
0.0
 11
184.2021536968
 21
205.341568733
 31
0.0
  0
LINE
  5
2A0
100
AcDbEntity
  8
UNSICHTBARE
390
0
100
AcDbLine
 10
178.0088886968
 20
205.034833733
 30
0.0
 11
184.5088886968
 21
205.034833733
 31
0.0
  0
LINE
  5
2A1
100
AcDbEntity
  8
UNSICHTBARE
390
0
100
AcDbLine
 10
178.0088886968
 20
202.648303733
 30
0.0
 11
184.5088886968
 21
202.648303733
 31
0.0
  0
LINE
  5
2A2
100
AcDbEntity
  8
UNSICHTBARE
390
0
100
AcDbLine
 10
176.5088886968
 20
202.341568733
 30
0.0
 11
184.2021536968
 21
202.341568733
 31
0.0
  0
LINE
  5
2A3
100
AcDbEntity
  8
UNSICHTBARE
390
0
100
AcDbLine
 10
178.0088886968
 20
205.341568733
 30
0.0
 11
178.0088886968
 21
202.341568733
 31
0.0
  0
LINE
  5
2A4
100
AcDbEntity
  8
UNSICHTBARE
390
0
100
AcDbLine
 10
184.5088886968
 20
205.034833733
 30
0.0
 11
184.5088886968
 21
202.648303733
 31
0.0
  0
LINE
  5
2A5
100
AcDbEntity
  8
UNSICHTBARE
390
0
100
AcDbLine
 10
184.2021536968
 20
205.341568733
 30
0.0
 11
184.2021536968
 21
202.341568733
 31
0.0
  0
LINE
  5
2A6
100
AcDbEntity
  8
UNSICHTBARE
390
0
100
AcDbLine
 10
184.2021536968
 20
205.341568733
 30
0.0
 11
184.5088886968
 21
205.034833733
 31
0.0
  0
LINE
  5
2A7
100
AcDbEntity
  8
UNSICHTBARE
390
0
100
AcDbLine
 10
184.2021536968
 20
202.341568733
 30
0.0
 11
184.5088886968
 21
202.648303733
 31
0.0
  0
LINE
  5
2A8
100
AcDbEntity
  8
UNSICHTBARE
390
0
100
AcDbLine
 10
178.5088886969
 20
199.1574005382
 30
0.0
 11
180.4088886969
 21
199.1574005382
 31
0.0
  0
LINE
  5
2A9
100
AcDbEntity
  8
UNSICHTBARE
390
0
100
AcDbLine
 10
178.5088886969
 20
204.6574005382
 30
0.0
 11
180.4088886969
 21
204.6574005382
 31
0.0
  0
LINE
  5
2AA
100
AcDbEntity
  8
MITTELLINIEN
390
0
100
AcDbLine
 10
185.5088886969
 20
201.9074005382
 30
0.0
 11
165.5088886969
 21
201.9074005382
 31
0.0
  0
LINE
  5
2AB
100
AcDbEntity
  8
UNSICHTBARE
390
0
100
AcDbLine
 10
178.5088886969
 20
204.6574005382
 30
0.0
 11
178.5088886969
 21
199.1574005382
 31
0.0
  0
LINE
  5
2AC
100
AcDbEntity
  8
UNSICHTBARE
390
0
100
AcDbLine
 10
180.5088886969
 20
199.2574005382
 30
0.0
 11
180.5088886969
 21
201.5074005382
 31
0.0
  0
LINE
  5
2AD
100
AcDbEntity
  8
UNSICHTBARE
390
0
100
AcDbLine
 10
180.5088886969
 20
204.5574005382
 30
0.0
 11
180.5088886969
 21
202.3074005382
 31
0.0
  0
ARC
  5
2AE
100
AcDbEntity
  8
UNSICHTBARE
390
0
100
AcDbCircle
 10
180.4088886969
 20
199.2574005382
 30
0.0
 40
0.1
100
AcDbArc
 50
270.0
 51
360.0
  0
ARC
  5
2AF
100
AcDbEntity
  8
UNSICHTBARE
390
0
100
AcDbCircle
 10
180.4088886969
 20
204.5574005382
 30
0.0
 40
0.1
100
AcDbArc
 50
0.0
 51
90.0
  0
LINE
  5
2B0
100
AcDbEntity
  8
UNSICHTBARE
390
0
100
AcDbLine
 10
180.5088886969
 20
202.3074005382
 30
0.0
 11
179.6588886969
 21
202.3074005382
 31
0.0
  0
LINE
  5
2B1
100
AcDbEntity
  8
UNSICHTBARE
390
0
100
AcDbLine
 10
180.5088886969
 20
201.5074005382
 30
0.0
 11
179.6588886969
 21
201.5074005382
 31
0.0
  0
LINE
  5
2B2
100
AcDbEntity
  8
UNSICHTBARE
390
0
100
AcDbLine
 10
179.6588886969
 20
201.5074005382
 30
0.0
 11
179.6588886969
 21
202.3074005382
 31
0.0
  0
LINE
  5
2B3
100
AcDbEntity
  8
UNSICHTBARE
390
0
100
AcDbLine
 10
178.5088886969
 20
200.4074005382
 30
0.0
 11
170.8156236969
 21
200.4074005382
 31
0.0
  0
LINE
  5
2B4
100
AcDbEntity
  8
UNSICHTBARE
390
0
100
AcDbLine
 10
178.0088886969
 20
200.7141355382
 30
0.0
 11
170.5088886969
 21
200.7141355382
 31
0.0
  0
LINE
  5
2B5
100
AcDbEntity
  8
UNSICHTBARE
390
0
100
AcDbLine
 10
178.0088886969
 20
203.1006655382
 30
0.0
 11
170.5088886969
 21
203.1006655382
 31
0.0
  0
LINE
  5
2B6
100
AcDbEntity
  8
UNSICHTBARE
390
0
100
AcDbLine
 10
178.5088886969
 20
203.4074005382
 30
0.0
 11
170.8156236969
 21
203.4074005382
 31
0.0
  0
LINE
  5
2B7
100
AcDbEntity
  8
UNSICHTBARE
390
0
100
AcDbLine
 10
178.0088886969
 20
200.4074005382
 30
0.0
 11
178.0088886969
 21
203.4074005382
 31
0.0
  0
LINE
  5
2B8
100
AcDbEntity
  8
UNSICHTBARE
390
0
100
AcDbLine
 10
170.5088886969
 20
200.7141355382
 30
0.0
 11
170.5088886969
 21
203.1006655382
 31
0.0
  0
LINE
  5
2B9
100
AcDbEntity
  8
UNSICHTBARE
390
0
100
AcDbLine
 10
170.8156236969
 20
200.4074005382
 30
0.0
 11
170.8156236969
 21
203.4074005382
 31
0.0
  0
LINE
  5
2BA
100
AcDbEntity
  8
UNSICHTBARE
390
0
100
AcDbLine
 10
170.8156236969
 20
200.4074005382
 30
0.0
 11
170.5088886969
 21
200.7141355382
 31
0.0
  0
LINE
  5
2BB
100
AcDbEntity
  8
UNSICHTBARE
390
0
100
AcDbLine
 10
170.8156236969
 20
203.4074005382
 30
0.0
 11
170.5088886969
 21
203.1006655382
 31
0.0
  0
LINE
  5
2BC
100
AcDbEntity
  8
UNSICHTBARE
390
0
100
AcDbLine
 10
176.508888697
 20
200.6574005382
 30
0.0
 11
174.608888697
 21
200.6574005382
 31
0.0
  0
LINE
  5
2BD
100
AcDbEntity
  8
UNSICHTBARE
390
0
100
AcDbLine
 10
176.508888697
 20
195.1574005382
 30
0.0
 11
174.608888697
 21
195.1574005382
 31
0.0
  0
LINE
  5
2BE
100
AcDbEntity
  8
MITTELLINIEN
390
0
100
AcDbLine
 10
169.508888697
 20
197.9074005382
 30
0.0
 11
197.508888697
 21
197.9074005382
 31
0.0
  0
LINE
  5
2BF
100
AcDbEntity
  8
UNSICHTBARE
390
0
100
AcDbLine
 10
176.508888697
 20
195.1574005382
 30
0.0
 11
176.508888697
 21
200.6574005382
 31
0.0
  0
LINE
  5
2C0
100
AcDbEntity
  8
UNSICHTBARE
390
0
100
AcDbLine
 10
174.508888697
 20
200.5574005382
 30
0.0
 11
174.508888697
 21
198.3074005382
 31
0.0
  0
LINE
  5
2C1
100
AcDbEntity
  8
UNSICHTBARE
390
0
100
AcDbLine
 10
174.508888697
 20
195.2574005382
 30
0.0
 11
174.508888697
 21
197.5074005382
 31
0.0
  0
ARC
  5
2C2
100
AcDbEntity
  8
UNSICHTBARE
390
0
100
AcDbCircle
 10
174.608888697
 20
200.5574005382
 30
0.0
 40
0.1
100
AcDbArc
 50
90.0
 51
180.0
  0
ARC
  5
2C3
100
AcDbEntity
  8
UNSICHTBARE
390
0
100
AcDbCircle
 10
174.608888697
 20
195.2574005382
 30
0.0
 40
0.1
100
AcDbArc
 50
180.0
 51
270.0
  0
LINE
  5
2C4
100
AcDbEntity
  8
UNSICHTBARE
390
0
100
AcDbLine
 10
174.508888697
 20
197.5074005382
 30
0.0
 11
175.358888697
 21
197.5074005382
 31
0.0
  0
LINE
  5
2C5
100
AcDbEntity
  8
UNSICHTBARE
390
0
100
AcDbLine
 10
174.508888697
 20
198.3074005382
 30
0.0
 11
175.358888697
 21
198.3074005382
 31
0.0
  0
LINE
  5
2C6
100
AcDbEntity
  8
UNSICHTBARE
390
0
100
AcDbLine
 10
175.358888697
 20
198.3074005382
 30
0.0
 11
175.358888697
 21
197.5074005382
 31
0.0
  0
LINE
  5
2C7
100
AcDbEntity
  8
UNSICHTBARE
390
0
100
AcDbLine
 10
176.508888697
 20
199.4074005382
 30
0.0
 11
192.202153697
 21
199.4074005382
 31
0.0
  0
LINE
  5
2C8
100
AcDbEntity
  8
UNSICHTBARE
390
0
100
AcDbLine
 10
178.008888697
 20
199.1006655382
 30
0.0
 11
192.508888697
 21
199.1006655382
 31
0.0
  0
LINE
  5
2C9
100
AcDbEntity
  8
UNSICHTBARE
390
0
100
AcDbLine
 10
178.008888697
 20
196.7141355382
 30
0.0
 11
192.508888697
 21
196.7141355382
 31
0.0
  0
LINE
  5
2CA
100
AcDbEntity
  8
UNSICHTBARE
390
0
100
AcDbLine
 10
176.508888697
 20
196.4074005382
 30
0.0
 11
192.202153697
 21
196.4074005382
 31
0.0
  0
LINE
  5
2CB
100
AcDbEntity
  8
UNSICHTBARE
390
0
100
AcDbLine
 10
178.008888697
 20
199.4074005382
 30
0.0
 11
178.008888697
 21
196.4074005382
 31
0.0
  0
LINE
  5
2CC
100
AcDbEntity
  8
UNSICHTBARE
390
0
100
AcDbLine
 10
192.508888697
 20
199.1006655382
 30
0.0
 11
192.508888697
 21
196.7141355382
 31
0.0
  0
LINE
  5
2CD
100
AcDbEntity
  8
UNSICHTBARE
390
0
100
AcDbLine
 10
192.202153697
 20
199.4074005382
 30
0.0
 11
192.202153697
 21
196.4074005382
 31
0.0
  0
LINE
  5
2CE
100
AcDbEntity
  8
UNSICHTBARE
390
0
100
AcDbLine
 10
192.202153697
 20
199.4074005382
 30
0.0
 11
192.508888697
 21
199.1006655382
 31
0.0
  0
LINE
  5
2CF
100
AcDbEntity
  8
UNSICHTBARE
390
0
100
AcDbLine
 10
192.202153697
 20
196.4074005382
 30
0.0
 11
192.508888697
 21
196.7141355382
 31
0.0
  0
LINE
  5
2D0
100
AcDbEntity
  8
UNSICHTBARE
390
0
100
AcDbLine
 10
189.0088886969
 20
200.2895880382
 30
0.0
 11
189.0088886969
 21
195.5252130382
 31
0.0
  0
LINE
  5
2D1
100
AcDbEntity
  8
UNSICHTBARE
390
0
100
AcDbLine
 10
189.3588886969
 20
201.0836505382
 30
0.0
 11
191.0588886969
 21
201.0836505382
 31
0.0
  0
LINE
  5
2D2
100
AcDbEntity
  8
UNSICHTBARE
390
0
100
AcDbLine
 10
191.4088886969
 20
200.2895880382
 30
0.0
 11
191.4088886969
 21
195.5252130382
 31
0.0
  0
LINE
  5
2D3
100
AcDbEntity
  8
UNSICHTBARE
390
0
100
AcDbLine
 10
189.3588886969
 20
194.7311505382
 30
0.0
 11
191.0588886969
 21
194.7311505382
 31
0.0
  0
LINE
  5
2D4
100
AcDbEntity
  8
UNSICHTBARE
390
0
100
AcDbLine
 10
189.3588886969
 20
199.4955255382
 30
0.0
 11
191.0588886969
 21
199.4955255382
 31
0.0
  0
LINE
  5
2D5
100
AcDbEntity
  8
UNSICHTBARE
390
0
100
AcDbLine
 10
189.3588886969
 20
196.3192755382
 30
0.0
 11
191.0588886969
 21
196.3192755382
 31
0.0
  0
LINE
  5
2D6
100
AcDbEntity
  8
MITTELLINIEN
390
0
100
AcDbLine
 10
184.0088886969
 20
197.9074005382
 30
0.0
 11
196.4088886969
 21
197.9074005382
 31
0.0
  0
ARC
  5
2D7
100
AcDbEntity
  8
UNSICHTBARE
390
0
100
AcDbCircle
 10
190.0846533453
 20
200.2895880382
 30
0.0
 40
1.0757646484
100
AcDbArc
 50
132.4269786376
 51
227.5730213624
  0
ARC
  5
2D8
100
AcDbEntity
  8
UNSICHTBARE
390
0
100
AcDbCircle
 10
190.3331240484
 20
200.2895880382
 30
0.0
 40
1.0757646484
100
AcDbArc
 50
312.4269786376
 51
407.5730213624
  0
ARC
  5
2D9
100
AcDbEntity
  8
UNSICHTBARE
390
0
100
AcDbCircle
 10
190.3331240484
 20
195.5252130382
 30
0.0
 40
1.0757646484
100
AcDbArc
 50
312.4269786376
 51
407.5730213624
  0
ARC
  5
2DA
100
AcDbEntity
  8
UNSICHTBARE
390
0
100
AcDbCircle
 10
190.0846533453
 20
195.5252130382
 30
0.0
 40
1.0757646484
100
AcDbArc
 50
132.4269786376
 51
227.5730213624
  0
ARC
  5
2DB
100
AcDbEntity
  8
UNSICHTBARE
390
0
100
AcDbCircle
 10
192.7869472906
 20
197.9074005382
 30
0.0
 40
3.7780585938
100
AcDbArc
 50
155.1430115591
 51
204.8569884409
  0
ARC
  5
2DC
100
AcDbEntity
  8
UNSICHTBARE
390
0
100
AcDbCircle
 10
187.6308301031
 20
197.9074005382
 30
0.0
 40
3.7780585938
100
AcDbArc
 50
335.1430115591
 51
384.8569884409
  0
CIRCLE
  5
2DD
100
AcDbEntity
  8
2501_2-4 ROLLEN
390
0
  6
DASHED
100
AcDbCircle
 10
55.7356045499
 20
88.2453494102
 30
0.0
 40
16.5
  0
CIRCLE
  5
2DE
100
AcDbEntity
  8
2501_2-4 ROLLEN
390
0
  6
DASHED
100
AcDbCircle
 10
55.7356045499
 20
88.2453494102
 30
0.0
 40
14.5
  0
LINE
  5
2DF
100
AcDbEntity
  8
2501_7 HEBEL 22_5_0_22_5
390
0
100
AcDbLine
 10
83.0025010271
 20
80.4073011545
 30
0.0
 11
69.0018053412
 21
90.9063735093
 31
0.0
  0
CIRCLE
  5
2E0
100
AcDbEntity
  8
UNSICHTBARE
390
0
100
AcDbCircle
 10
84.5023685063
 20
82.4074005382
 30
0.0
 40
2.75
  0
LINE
  5
2E1
100
AcDbEntity
  8
MITTELLINIEN
390
0
100
AcDbLine
 10
84.5023685063
 20
90.1574005382
 30
0.0
 11
84.5023685063
 21
74.6574005382
 31
0.0
  0
LINE
  5
2E2
100
AcDbEntity
  8
MITTELLINIEN
390
0
100
AcDbLine
 10
92.2523685063
 20
82.4074005382
 30
0.0
 11
76.7523685063
 21
82.4074005382
 31
0.0
  0
LINE
  5
2E3
100
AcDbEntity
  8
UNSICHTBARE
390
0
100
AcDbLine
 10
86.7297548671
 20
80.7456996024
 30
0.0
 11
82.8820282656
 21
84.5934262039
 31
0.0
  0
LINE
  5
2E4
100
AcDbEntity
  8
UNSICHTBARE
390
0
100
AcDbLine
 10
86.1640692513
 20
80.1800144332
 30
0.0
 11
82.3163426498
 21
84.0277410347
 31
0.0
  0
CIRCLE
  5
2E5
100
AcDbEntity
  8
2501_7 HEBEL 22_5_0_22_5
390
0
100
AcDbCircle
 10
80.2827014699
 20
114.6323041083
 30
0.0
 40
1.25
  0
CIRCLE
  5
2E6
100
AcDbEntity
  8
2501_7 HEBEL 22_5_0_22_5
390
0
100
AcDbCircle
 10
84.5023685063
 20
82.4074005382
 30
0.0
 40
1.25
  0
CIRCLE
  5
2E7
100
AcDbEntity
  8
2501_7 HEBEL 22_5_0_22_5
390
0
100
AcDbCircle
 10
70.5016728204
 20
92.906472893
 30
0.0
 40
1.25
  0
CIRCLE
  5
2E8
100
AcDbEntity
  8
2501_7 HEBEL 22_5_0_22_5
390
0
100
AcDbCircle
 10
81.6459785124
 20
104.2211814164
 30
0.0
 40
1.25
  0
LINE
  5
2E9
100
AcDbEntity
  8
2501_7 HEBEL 22_5_0_22_5
390
0
100
AcDbLine
 10
78.00307069
 20
115.6586001219
 30
0.0
 11
68.2220420406
 21
93.9327689065
 31
0.0
  0
LINE
  5
2EA
100
AcDbEntity
  8
2501_7 HEBEL 22_5_0_22_5
390
0
100
AcDbLine
 10
86.9812072425
 20
82.7319903102
 30
0.0
 11
82.6878199403
 21
115.5198834325
 31
0.0
  0
ARC
  5
2EB
100
AcDbEntity
  8
2501_7 HEBEL 22_5_0_22_5
390
0
100
AcDbCircle
 10
80.2827014699
 20
114.6323041083
 30
0.0
 40
2.5
100
AcDbArc
 50
20.255960629
 51
155.7625956208
  0
ARC
  5
2EC
100
AcDbEntity
  8
2501_7 HEBEL 22_5_0_22_5
390
0
100
AcDbCircle
 10
84.5023685063
 20
82.4074005382
 30
0.0
 40
2.5
100
AcDbArc
 50
233.1338986996
 51
367.4601102209
  0
ARC
  5
2ED
100
AcDbEntity
  8
2501_7 HEBEL 22_5_0_22_5
390
0
100
AcDbCircle
 10
70.5016728204
 20
92.906472893
 30
0.0
 40
2.5
100
AcDbArc
 50
155.7625956208
 51
233.1338986996
  0
LINE
  5
2EE
100
AcDbEntity
  8
2501_7 HEBEL 22_5_0_22_5
390
0
100
AcDbLine
 10
177.2588886968
 20
117.1323041083
 30
0.0
 11
179.2588886978
 21
117.1323041083
 31
0.0
  0
LINE
  5
2EF
100
AcDbEntity
  8
2501_7 HEBEL 22_5_0_22_5
390
0
100
AcDbLine
 10
179.2588886978
 20
117.1323041083
 30
0.0
 11
179.2588886978
 21
79.9074005382
 31
0.0
  0
LINE
  5
2F0
100
AcDbEntity
  8
2501_7 HEBEL 22_5_0_22_5
390
0
100
AcDbLine
 10
179.2588886978
 20
79.9074005382
 30
0.0
 11
177.2588886968
 21
79.9074005382
 31
0.0
  0
LINE
  5
2F1
100
AcDbEntity
  8
2501_7 HEBEL 22_5_0_22_5
390
0
100
AcDbLine
 10
177.2588886968
 20
79.9074005382
 30
0.0
 11
177.2588886968
 21
117.1323041083
 31
0.0
  0
LINE
  5
2F2
100
AcDbEntity
  8
UNSICHTBARE
390
0
100
AcDbLine
 10
189.0088886969
 20
79.6574005382
 30
0.0
 11
190.9088886969
 21
79.6574005382
 31
0.0
  0
LINE
  5
2F3
100
AcDbEntity
  8
UNSICHTBARE
390
0
100
AcDbLine
 10
189.0088886969
 20
85.1574005382
 30
0.0
 11
190.9088886969
 21
85.1574005382
 31
0.0
  0
LINE
  5
2F4
100
AcDbEntity
  8
MITTELLINIEN
390
0
100
AcDbLine
 10
196.0088886969
 20
82.4074005382
 30
0.0
 11
172.0088886969
 21
82.4074005382
 31
0.0
  0
LINE
  5
2F5
100
AcDbEntity
  8
UNSICHTBARE
390
0
100
AcDbLine
 10
189.0088886969
 20
85.1574005382
 30
0.0
 11
189.0088886969
 21
79.6574005382
 31
0.0
  0
LINE
  5
2F6
100
AcDbEntity
  8
UNSICHTBARE
390
0
100
AcDbLine
 10
191.0088886969
 20
79.7574005382
 30
0.0
 11
191.0088886969
 21
82.0074005382
 31
0.0
  0
LINE
  5
2F7
100
AcDbEntity
  8
UNSICHTBARE
390
0
100
AcDbLine
 10
191.0088886969
 20
85.0574005382
 30
0.0
 11
191.0088886969
 21
82.8074005382
 31
0.0
  0
ARC
  5
2F8
100
AcDbEntity
  8
UNSICHTBARE
390
0
100
AcDbCircle
 10
190.9088886969
 20
79.7574005382
 30
0.0
 40
0.1
100
AcDbArc
 50
270.0
 51
360.0
  0
ARC
  5
2F9
100
AcDbEntity
  8
UNSICHTBARE
390
0
100
AcDbCircle
 10
190.9088886969
 20
85.0574005382
 30
0.0
 40
0.1
100
AcDbArc
 50
0.0
 51
90.0
  0
LINE
  5
2FA
100
AcDbEntity
  8
UNSICHTBARE
390
0
100
AcDbLine
 10
191.0088886969
 20
82.8074005382
 30
0.0
 11
190.1588886969
 21
82.8074005382
 31
0.0
  0
LINE
  5
2FB
100
AcDbEntity
  8
UNSICHTBARE
390
0
100
AcDbLine
 10
191.0088886969
 20
82.0074005382
 30
0.0
 11
190.1588886969
 21
82.0074005382
 31
0.0
  0
LINE
  5
2FC
100
AcDbEntity
  8
UNSICHTBARE
390
0
100
AcDbLine
 10
190.1588886969
 20
82.0074005382
 30
0.0
 11
190.1588886969
 21
82.8074005382
 31
0.0
  0
LINE
  5
2FD
100
AcDbEntity
  8
UNSICHTBARE
390
0
100
AcDbLine
 10
189.0088886969
 20
80.9074005382
 30
0.0
 11
177.3156236969
 21
80.9074005382
 31
0.0
  0
LINE
  5
2FE
100
AcDbEntity
  8
UNSICHTBARE
390
0
100
AcDbLine
 10
187.5088886969
 20
81.2141355382
 30
0.0
 11
177.0088886969
 21
81.2141355382
 31
0.0
  0
LINE
  5
2FF
100
AcDbEntity
  8
UNSICHTBARE
390
0
100
AcDbLine
 10
187.5088886969
 20
83.6006655382
 30
0.0
 11
177.0088886969
 21
83.6006655382
 31
0.0
  0
LINE
  5
300
100
AcDbEntity
  8
UNSICHTBARE
390
0
100
AcDbLine
 10
189.0088886969
 20
83.9074005382
 30
0.0
 11
177.3156236969
 21
83.9074005382
 31
0.0
  0
LINE
  5
301
100
AcDbEntity
  8
UNSICHTBARE
390
0
100
AcDbLine
 10
187.5088886969
 20
80.9074005382
 30
0.0
 11
187.5088886969
 21
83.9074005382
 31
0.0
  0
LINE
  5
302
100
AcDbEntity
  8
UNSICHTBARE
390
0
100
AcDbLine
 10
177.0088886969
 20
81.2141355382
 30
0.0
 11
177.0088886969
 21
83.6006655382
 31
0.0
  0
LINE
  5
303
100
AcDbEntity
  8
UNSICHTBARE
390
0
100
AcDbLine
 10
177.3156236969
 20
80.9074005382
 30
0.0
 11
177.3156236969
 21
83.9074005382
 31
0.0
  0
LINE
  5
304
100
AcDbEntity
  8
UNSICHTBARE
390
0
100
AcDbLine
 10
177.3156236969
 20
80.9074005382
 30
0.0
 11
177.0088886969
 21
81.2141355382
 31
0.0
  0
LINE
  5
305
100
AcDbEntity
  8
UNSICHTBARE
390
0
100
AcDbLine
 10
177.3156236969
 20
83.9074005382
 30
0.0
 11
177.0088886969
 21
83.6006655382
 31
0.0
  0
LINE
  5
306
100
AcDbEntity
  8
UNSICHTBARE
390
0
100
AcDbLine
 10
177.7588886969
 20
75.4074005382
 30
0.0
 11
177.7588886969
 21
73.5074005382
 31
0.0
  0
LINE
  5
307
100
AcDbEntity
  8
UNSICHTBARE
390
0
100
AcDbLine
 10
183.2588886969
 20
75.4074005382
 30
0.0
 11
183.2588886969
 21
73.5074005382
 31
0.0
  0
LINE
  5
308
100
AcDbEntity
  8
MITTELLINIEN
390
0
100
AcDbLine
 10
180.5088886969
 20
68.4074005382
 30
0.0
 11
180.5088886969
 21
85.4074005382
 31
0.0
  0
LINE
  5
309
100
AcDbEntity
  8
UNSICHTBARE
390
0
100
AcDbLine
 10
183.2588886969
 20
75.4074005382
 30
0.0
 11
177.7588886969
 21
75.4074005382
 31
0.0
  0
LINE
  5
30A
100
AcDbEntity
  8
UNSICHTBARE
390
0
100
AcDbLine
 10
177.8588886969
 20
73.4074005382
 30
0.0
 11
180.1088886969
 21
73.4074005382
 31
0.0
  0
LINE
  5
30B
100
AcDbEntity
  8
UNSICHTBARE
390
0
100
AcDbLine
 10
183.1588886969
 20
73.4074005382
 30
0.0
 11
180.9088886969
 21
73.4074005382
 31
0.0
  0
ARC
  5
30C
100
AcDbEntity
  8
UNSICHTBARE
390
0
100
AcDbCircle
 10
177.8588886969
 20
73.5074005382
 30
0.0
 40
0.1
100
AcDbArc
 50
180.0
 51
270.0
  0
ARC
  5
30D
100
AcDbEntity
  8
UNSICHTBARE
390
0
100
AcDbCircle
 10
183.1588886969
 20
73.5074005382
 30
0.0
 40
0.1
100
AcDbArc
 50
270.0
 51
360.0
  0
LINE
  5
30E
100
AcDbEntity
  8
UNSICHTBARE
390
0
100
AcDbLine
 10
180.9088886969
 20
73.4074005382
 30
0.0
 11
180.9088886969
 21
74.2574005382
 31
0.0
  0
LINE
  5
30F
100
AcDbEntity
  8
UNSICHTBARE
390
0
100
AcDbLine
 10
180.1088886969
 20
73.4074005382
 30
0.0
 11
180.1088886969
 21
74.2574005382
 31
0.0
  0
LINE
  5
310
100
AcDbEntity
  8
UNSICHTBARE
390
0
100
AcDbLine
 10
180.1088886969
 20
74.2574005382
 30
0.0
 11
180.9088886969
 21
74.2574005382
 31
0.0
  0
LINE
  5
311
100
AcDbEntity
  8
UNSICHTBARE
390
0
100
AcDbLine
 10
179.0088886969
 20
75.4074005382
 30
0.0
 11
179.0088886969
 21
80.1006655382
 31
0.0
  0
LINE
  5
312
100
AcDbEntity
  8
UNSICHTBARE
390
0
100
AcDbLine
 10
179.3156236969
 20
76.9074005382
 30
0.0
 11
179.3156236969
 21
80.4074005382
 31
0.0
  0
LINE
  5
313
100
AcDbEntity
  8
UNSICHTBARE
390
0
100
AcDbLine
 10
181.7021536969
 20
76.9074005382
 30
0.0
 11
181.7021536969
 21
80.4074005382
 31
0.0
  0
LINE
  5
314
100
AcDbEntity
  8
UNSICHTBARE
390
0
100
AcDbLine
 10
182.0088886969
 20
75.4074005382
 30
0.0
 11
182.0088886969
 21
80.1006655382
 31
0.0
  0
LINE
  5
315
100
AcDbEntity
  8
UNSICHTBARE
390
0
100
AcDbLine
 10
179.0088886969
 20
76.9074005382
 30
0.0
 11
182.0088886969
 21
76.9074005382
 31
0.0
  0
LINE
  5
316
100
AcDbEntity
  8
UNSICHTBARE
390
0
100
AcDbLine
 10
179.3156236969
 20
80.4074005382
 30
0.0
 11
181.7021536969
 21
80.4074005382
 31
0.0
  0
LINE
  5
317
100
AcDbEntity
  8
UNSICHTBARE
390
0
100
AcDbLine
 10
179.0088886969
 20
80.1006655382
 30
0.0
 11
182.0088886969
 21
80.1006655382
 31
0.0
  0
LINE
  5
318
100
AcDbEntity
  8
UNSICHTBARE
390
0
100
AcDbLine
 10
179.0088886969
 20
80.1006655382
 30
0.0
 11
179.3156236969
 21
80.4074005382
 31
0.0
  0
LINE
  5
319
100
AcDbEntity
  8
UNSICHTBARE
390
0
100
AcDbLine
 10
182.0088886969
 20
80.1006655382
 30
0.0
 11
181.7021536969
 21
80.4074005382
 31
0.0
  0
LINE
  5
31A
100
AcDbEntity
  8
UNSICHTBARE
390
0
100
AcDbLine
 10
189.0088886969
 20
86.6574005382
 30
0.0
 11
190.9088886969
 21
86.6574005382
 31
0.0
  0
LINE
  5
31B
100
AcDbEntity
  8
UNSICHTBARE
390
0
100
AcDbLine
 10
189.0088886969
 20
92.1574005382
 30
0.0
 11
190.9088886969
 21
92.1574005382
 31
0.0
  0
LINE
  5
31C
100
AcDbEntity
  8
MITTELLINIEN
390
0
100
AcDbLine
 10
196.0088886969
 20
89.4074005382
 30
0.0
 11
159.0088886969
 21
89.4074005382
 31
0.0
  0
LINE
  5
31D
100
AcDbEntity
  8
UNSICHTBARE
390
0
100
AcDbLine
 10
189.0088886969
 20
92.1574005382
 30
0.0
 11
189.0088886969
 21
86.6574005382
 31
0.0
  0
LINE
  5
31E
100
AcDbEntity
  8
UNSICHTBARE
390
0
100
AcDbLine
 10
191.0088886969
 20
86.7574005382
 30
0.0
 11
191.0088886969
 21
89.0074005382
 31
0.0
  0
LINE
  5
31F
100
AcDbEntity
  8
UNSICHTBARE
390
0
100
AcDbLine
 10
191.0088886969
 20
92.0574005382
 30
0.0
 11
191.0088886969
 21
89.8074005382
 31
0.0
  0
ARC
  5
320
100
AcDbEntity
  8
UNSICHTBARE
390
0
100
AcDbCircle
 10
190.9088886969
 20
86.7574005382
 30
0.0
 40
0.1
100
AcDbArc
 50
270.0
 51
360.0
  0
ARC
  5
321
100
AcDbEntity
  8
UNSICHTBARE
390
0
100
AcDbCircle
 10
190.9088886969
 20
92.0574005382
 30
0.0
 40
0.1
100
AcDbArc
 50
0.0
 51
90.0
  0
LINE
  5
322
100
AcDbEntity
  8
UNSICHTBARE
390
0
100
AcDbLine
 10
191.0088886969
 20
89.8074005382
 30
0.0
 11
190.1588886969
 21
89.8074005382
 31
0.0
  0
LINE
  5
323
100
AcDbEntity
  8
UNSICHTBARE
390
0
100
AcDbLine
 10
191.0088886969
 20
89.0074005382
 30
0.0
 11
190.1588886969
 21
89.0074005382
 31
0.0
  0
LINE
  5
324
100
AcDbEntity
  8
UNSICHTBARE
390
0
100
AcDbLine
 10
190.1588886969
 20
89.0074005382
 30
0.0
 11
190.1588886969
 21
89.8074005382
 31
0.0
  0
LINE
  5
325
100
AcDbEntity
  8
UNSICHTBARE
390
0
100
AcDbLine
 10
189.0088886969
 20
87.9074005382
 30
0.0
 11
164.3156236969
 21
87.9074005382
 31
0.0
  0
LINE
  5
326
100
AcDbEntity
  8
UNSICHTBARE
390
0
100
AcDbLine
 10
187.5088886969
 20
88.2141355382
 30
0.0
 11
164.0088886969
 21
88.2141355382
 31
0.0
  0
LINE
  5
327
100
AcDbEntity
  8
UNSICHTBARE
390
0
100
AcDbLine
 10
187.5088886969
 20
90.6006655382
 30
0.0
 11
164.0088886969
 21
90.6006655382
 31
0.0
  0
LINE
  5
328
100
AcDbEntity
  8
UNSICHTBARE
390
0
100
AcDbLine
 10
189.0088886969
 20
90.9074005382
 30
0.0
 11
164.3156236969
 21
90.9074005382
 31
0.0
  0
LINE
  5
329
100
AcDbEntity
  8
UNSICHTBARE
390
0
100
AcDbLine
 10
187.5088886969
 20
87.9074005382
 30
0.0
 11
187.5088886969
 21
90.9074005382
 31
0.0
  0
LINE
  5
32A
100
AcDbEntity
  8
UNSICHTBARE
390
0
100
AcDbLine
 10
164.0088886969
 20
88.2141355382
 30
0.0
 11
164.0088886969
 21
90.6006655382
 31
0.0
  0
LINE
  5
32B
100
AcDbEntity
  8
UNSICHTBARE
390
0
100
AcDbLine
 10
164.3156236969
 20
87.9074005382
 30
0.0
 11
164.3156236969
 21
90.9074005382
 31
0.0
  0
LINE
  5
32C
100
AcDbEntity
  8
UNSICHTBARE
390
0
100
AcDbLine
 10
164.3156236969
 20
87.9074005382
 30
0.0
 11
164.0088886969
 21
88.2141355382
 31
0.0
  0
LINE
  5
32D
100
AcDbEntity
  8
UNSICHTBARE
390
0
100
AcDbLine
 10
164.3156236969
 20
90.9074005382
 30
0.0
 11
164.0088886969
 21
90.6006655382
 31
0.0
  0
LINE
  5
32E
100
AcDbEntity
  8
2501_1 UNTERZUGRAHMEN
370
        18
390
0
100
AcDbLine
 10
141.0088886969
 20
77.4074005382
 30
0.0
 11
141.0088886969
 21
79.4074005382
 31
0.0
  0
LINE
  5
32F
100
AcDbEntity
  8
2501_2-4 ROLLEN
390
0
  6
DASHED
100
AcDbLine
 10
170.2588886969
 20
71.74534941
 30
0.0
 11
170.2588886969
 21
104.74534941
 31
0.0
  0
LINE
  5
330
100
AcDbEntity
  8
2501_2-4 ROLLEN
390
0
  6
DASHED
100
AcDbLine
 10
170.2588886968
 20
104.74534941
 30
0.0
 11
173.2588886968
 21
104.74534941
 31
0.0
  0
LINE
  5
331
100
AcDbEntity
  8
2501_2-4 ROLLEN
390
0
  6
DASHED
100
AcDbLine
 10
173.2588886969
 20
102.74534941
 30
0.0
 11
170.2588886968
 21
102.74534941
 31
0.0
  0
LINE
  5
332
100
AcDbEntity
  8
2501_2-4 ROLLEN
390
0
  6
DASHED
100
AcDbLine
 10
170.2588886968
 20
73.74534941
 30
0.0
 11
173.2588886969
 21
73.74534941
 31
0.0
  0
LINE
  5
333
100
AcDbEntity
  8
2501_2-4 ROLLEN
390
0
  6
DASHED
100
AcDbLine
 10
173.2588886968
 20
71.74534941
 30
0.0
 11
170.2588886969
 21
71.74534941
 31
0.0
  0
LINE
  5
334
100
AcDbEntity
  8
UNSICHTBARE
390
0
100
AcDbLine
 10
179.2588886978
 20
90.156472893
 30
0.0
 11
181.1588886978
 21
90.156472893
 31
0.0
  0
LINE
  5
335
100
AcDbEntity
  8
UNSICHTBARE
390
0
100
AcDbLine
 10
179.2588886978
 20
95.656472893
 30
0.0
 11
181.1588886978
 21
95.656472893
 31
0.0
  0
LINE
  5
336
100
AcDbEntity
  8
MITTELLINIEN
390
0
100
AcDbLine
 10
186.2588886978
 20
92.906472893
 30
0.0
 11
166.2588886978
 21
92.906472893
 31
0.0
  0
LINE
  5
337
100
AcDbEntity
  8
UNSICHTBARE
390
0
100
AcDbLine
 10
179.2588886978
 20
95.656472893
 30
0.0
 11
179.2588886978
 21
90.156472893
 31
0.0
  0
LINE
  5
338
100
AcDbEntity
  8
UNSICHTBARE
390
0
100
AcDbLine
 10
181.2588886978
 20
90.256472893
 30
0.0
 11
181.2588886978
 21
92.506472893
 31
0.0
  0
LINE
  5
339
100
AcDbEntity
  8
UNSICHTBARE
390
0
100
AcDbLine
 10
181.2588886978
 20
95.556472893
 30
0.0
 11
181.2588886978
 21
93.306472893
 31
0.0
  0
ARC
  5
33A
100
AcDbEntity
  8
UNSICHTBARE
390
0
100
AcDbCircle
 10
181.1588886978
 20
90.256472893
 30
0.0
 40
0.1
100
AcDbArc
 50
270.0
 51
360.0
  0
ARC
  5
33B
100
AcDbEntity
  8
UNSICHTBARE
390
0
100
AcDbCircle
 10
181.1588886978
 20
95.556472893
 30
0.0
 40
0.1
100
AcDbArc
 50
0.0
 51
90.0
  0
LINE
  5
33C
100
AcDbEntity
  8
UNSICHTBARE
390
0
100
AcDbLine
 10
181.2588886978
 20
93.306472893
 30
0.0
 11
180.4088886978
 21
93.306472893
 31
0.0
  0
LINE
  5
33D
100
AcDbEntity
  8
UNSICHTBARE
390
0
100
AcDbLine
 10
181.2588886978
 20
92.506472893
 30
0.0
 11
180.4088886978
 21
92.506472893
 31
0.0
  0
LINE
  5
33E
100
AcDbEntity
  8
UNSICHTBARE
390
0
100
AcDbLine
 10
180.4088886978
 20
92.506472893
 30
0.0
 11
180.4088886978
 21
93.306472893
 31
0.0
  0
LINE
  5
33F
100
AcDbEntity
  8
UNSICHTBARE
390
0
100
AcDbLine
 10
179.2588886978
 20
91.406472893
 30
0.0
 11
171.5656236978
 21
91.406472893
 31
0.0
  0
LINE
  5
340
100
AcDbEntity
  8
UNSICHTBARE
390
0
100
AcDbLine
 10
177.7588886978
 20
91.713207893
 30
0.0
 11
171.2588886978
 21
91.713207893
 31
0.0
  0
LINE
  5
341
100
AcDbEntity
  8
UNSICHTBARE
390
0
100
AcDbLine
 10
177.7588886978
 20
94.099737893
 30
0.0
 11
171.2588886978
 21
94.099737893
 31
0.0
  0
LINE
  5
342
100
AcDbEntity
  8
UNSICHTBARE
390
0
100
AcDbLine
 10
179.2588886978
 20
94.406472893
 30
0.0
 11
171.5656236978
 21
94.406472893
 31
0.0
  0
LINE
  5
343
100
AcDbEntity
  8
UNSICHTBARE
390
0
100
AcDbLine
 10
177.7588886978
 20
91.406472893
 30
0.0
 11
177.7588886978
 21
94.406472893
 31
0.0
  0
LINE
  5
344
100
AcDbEntity
  8
UNSICHTBARE
390
0
100
AcDbLine
 10
171.2588886978
 20
91.713207893
 30
0.0
 11
171.2588886978
 21
94.099737893
 31
0.0
  0
LINE
  5
345
100
AcDbEntity
  8
UNSICHTBARE
390
0
100
AcDbLine
 10
171.5656236978
 20
91.406472893
 30
0.0
 11
171.5656236978
 21
94.406472893
 31
0.0
  0
LINE
  5
346
100
AcDbEntity
  8
UNSICHTBARE
390
0
100
AcDbLine
 10
171.5656236978
 20
91.406472893
 30
0.0
 11
171.2588886978
 21
91.713207893
 31
0.0
  0
LINE
  5
347
100
AcDbEntity
  8
UNSICHTBARE
390
0
100
AcDbLine
 10
171.5656236978
 20
94.406472893
 30
0.0
 11
171.2588886978
 21
94.099737893
 31
0.0
  0
ARC
  5
348
100
AcDbEntity
  8
2501_7 HEBEL 22_5_0_22_5 UMGELEGT LI
390
0
100
AcDbCircle
 10
75.2511069326
 20
97.2621694457
 30
0.0
 40
2.5
100
AcDbArc
 50
134.5425454971
 51
211.9138485759
  0
CIRCLE
  5
349
100
AcDbEntity
  8
2501_7 HEBEL 22_5_0_22_5 UMGELEGT LI
390
0
100
AcDbCircle
 10
89.6451653303
 20
103.776018589
 30
0.0
 40
1.25
  0
ARC
  5
34A
100
AcDbEntity
  8
2501_7 HEBEL 22_5_0_22_5 UMGELEGT LI
390
0
100
AcDbCircle
 10
92.2326365417
 20
113.9746772041
 30
0.0
 40
2.5
100
AcDbArc
 50
359.0359105053
 51
494.5425454971
  0
ARC
  5
34B
100
AcDbEntity
  8
2501_7 HEBEL 22_5_0_22_5 UMGELEGT LI
390
0
100
AcDbCircle
 10
84.5023685063
 20
82.4074005382
 30
0.0
 40
2.5
100
AcDbArc
 50
211.9138485759
 51
346.2400600971
  0
CIRCLE
  5
34C
100
AcDbEntity
  8
2501_7 HEBEL 22_5_0_22_5 UMGELEGT LI
390
0
100
AcDbCircle
 10
92.2826365417
 20
113.9746772041
 30
0.0
 40
1.25
  0
CIRCLE
  5
34D
100
AcDbEntity
  8
2501_7 HEBEL 22_5_0_22_5 UMGELEGT LI
390
0
100
AcDbCircle
 10
75.2511069326
 20
97.2621694457
 30
0.0
 40
1.25
  0
LINE
  5
34E
100
AcDbEntity
  8
2501_7 HEBEL 22_5_0_22_5 UMGELEGT LI
390
0
100
AcDbLine
 10
90.4790397878
 20
115.7565016693
 30
0.0
 11
73.4975101788
 21
99.0439939109
 31
0.0
  0
LINE
  5
34F
100
AcDbEntity
  8
2501_7 HEBEL 22_5_0_22_5 UMGELEGT LI
390
0
100
AcDbLine
 10
86.9306205576
 20
81.8127645355
 30
0.0
 11
94.79594129
 21
113.9315415935
 31
0.0
  0
LINE
  5
350
100
AcDbEntity
  8
2501_7 HEBEL 22_5_0_22_5 UMGELEGT LI
390
0
100
AcDbLine
 10
82.3802586624
 20
81.085791742
 30
0.0
 11
73.1289970887
 21
95.9405606494
 31
0.0
  0
INSERT
  5
351
100
AcDbEntity
  8
BEMASSUNG
390
0
100
AcDbBlockReference
  2
D343071744
 10
0.0
 20
0.0
 30
0.0
  0
INSERT
  5
352
100
AcDbEntity
  8
BEMASSUNG
390
0
100
AcDbBlockReference
  2
D343072000
 10
0.0
 20
0.0
 30
0.0
  0
LINE
  5
353
100
AcDbEntity
  8
MITTELLINIEN
390
0
100
AcDbLine
 10
52.0014022962
 20
201.9074005382
 30
0.0
 11
65.0014022962
 21
201.9074005382
 31
0.0
  0
LINE
  5
354
100
AcDbEntity
  8
MITTELLINIEN
390
0
100
AcDbLine
 10
58.5014022962
 20
195.4074005382
 30
0.0
 11
58.5014022962
 21
208.4074005382
 31
0.0
  0
LINE
  5
355
100
AcDbEntity
  8
MITTELLINIEN
390
0
100
AcDbLine
 10
52.0014022962
 20
89.4074005382
 30
0.0
 11
65.0014022962
 21
89.4074005382
 31
0.0
  0
LINE
  5
356
100
AcDbEntity
  8
MITTELLINIEN
390
0
100
AcDbLine
 10
58.5014022962
 20
82.9074005382
 30
0.0
 11
58.5014022962
 21
95.9074005382
 31
0.0
  0
MTEXT
  5
357
100
AcDbEntity
  8
BESCHRIFTUNG
390
0
100
AcDbMText
 10
134.9474367978
 20
284.2737851124
 30
0.0
 40
3.0
 41
0.0
 71
         1
 72
         1
  1
\W0.864827;2501.1\P2501.2/5\P2501.3\P2501.4/4\P2501.5\P2501.7/5\P\P2501.8\P\P2501.51\P2501.52\P2501.53\P2501.54\P2501.55\P2501.56\P2501.57
  7
Arial
 73
         1
 44
0.66
  0
MTEXT
  5
358
100
AcDbEntity
  8
BESCHRIFTUNG
390
0
100
AcDbMText
 10
155.1974367978
 20
284.2737851124
 30
0.0
 40
3.0
 41
0.0
 71
         1
 72
         1
  3
\W0.864798;Abtriebrahmen\PAbtriebrad für Schalter\PAbtriebschieber\PSchieberabstandhalter\PSchalter\PAbtriebrad für Gestänge \P    (Hebel ^ : Gestänge >; v: >)\PAnlenkung\P\PM3x25 Radachse\PM3x5 Rahmenbefestigung\PM3x5 Seilbefestigung\PM12x5 Schieber
  1
führung\PM12x5 Schalterbetätigung\PM3x16 Anlenkungsachse\PM3x8(Stift) Hebelzapfen
  7
Arial
 73
         1
 44
0.66
  0
LINE
  5
359
100
AcDbEntity
  8
2501_1 UNTERZUGRAHMEN
390
0
100
AcDbLine
 10
83.0014022962
 20
154.9074005382
 30
0.0
 11
83.0014022962
 21
158.9074005382
 31
0.0
  0
LINE
  5
35A
100
AcDbEntity
  8
2501_1 UNTERZUGRAHMEN
390
0
100
AcDbLine
 10
34.0014022962
 20
154.9074005382
 30
0.0
 11
34.0014022962
 21
158.9074005382
 31
0.0
  0
LINE
  5
35B
100
AcDbEntity
  8
2501_1 UNTERZUGRAHMEN
370
        18
390
0
100
AcDbLine
 10
132.9966836704
 20
154.9074005382
 30
0.0
 11
132.9966836704
 21
169.9074005382
 31
0.0
  0
LINE
  5
35C
100
AcDbEntity
  8
2501_1 UNTERZUGRAHMEN
390
0
100
AcDbLine
 10
18.5023685063
 20
154.9074005382
 30
0.0
 11
34.0014022962
 21
154.9074005382
 31
0.0
  0
LINE
  5
35D
100
AcDbEntity
  8
2501_1 UNTERZUGRAHMEN
390
0
100
AcDbLine
 10
18.5023685063
 20
169.9074005382
 30
0.0
 11
132.9966836704
 21
169.9074005382
 31
0.0
  0
LINE
  5
35E
100
AcDbEntity
  8
2501_1 UNTERZUGRAHMEN
370
        18
390
0
100
AcDbLine
 10
18.5023685063
 20
154.9074005382
 30
0.0
 11
18.5023685063
 21
169.9074005382
 31
0.0
  0
LINE
  5
35F
100
AcDbEntity
  8
2501_1 UNTERZUGRAHMEN
390
0
100
AcDbLine
 10
18.5023685063
 20
167.9074005382
 30
0.0
 11
132.9966836704
 21
167.9074005382
 31
0.0
  0
LINE
  5
360
100
AcDbEntity
  8
2501_1 UNTERZUGRAHMEN
390
0
100
AcDbLine
 10
34.0014022962
 20
158.9074005382
 30
0.0
 11
83.0014022962
 21
158.9074005382
 31
0.0
  0
LINE
  5
361
100
AcDbEntity
  8
2501_1 UNTERZUGRAHMEN
390
0
100
AcDbLine
 10
83.0014022962
 20
154.9074005382
 30
0.0
 11
132.9866836704
 21
154.9074005382
 31
0.0
  0
CIRCLE
  5
362
100
AcDbEntity
  8
2501_1 UNTERZUGRAHMEN
390
0
100
AcDbCircle
 10
25.0023685063
 20
161.4074005382
 30
0.0
 40
1.25
  0
CIRCLE
  5
363
100
AcDbEntity
  8
2501_1 UNTERZUGRAHMEN
390
0
100
AcDbCircle
 10
126.4966836704
 20
161.4074005382
 30
0.0
 40
1.25
  0
LINE
  5
364
100
AcDbEntity
  8
MITTELLINIEN
390
0
100
AcDbLine
 10
182.0088886969
 20
201.5708306217
 30
0.0
 11
182.0088886969
 21
182.5708306217
 31
0.0
  0
CIRCLE
  5
365
100
AcDbEntity
  8
2501_1 UNTERZUGRAHMEN
390
0
100
AcDbCircle
 10
95.6064458319
 20
162.9074005382
 30
0.0
 40
3.25
  0
CIRCLE
  5
366
100
AcDbEntity
  8
2501_1 UNTERZUGRAHMEN
390
0
100
AcDbCircle
 10
110.6064458319
 20
162.9074005382
 30
0.0
 40
3.25
  0
LINE
  5
367
100
AcDbEntity
  8
2501_1 UNTERZUGRAHMEN
370
        18
390
0
100
AcDbLine
 10
132.9966836704
 20
42.4074005382
 30
0.0
 11
132.9966836704
 21
57.4074005382
 31
0.0
  0
LINE
  5
368
100
AcDbEntity
  8
2501_1 UNTERZUGRAHMEN
390
0
100
AcDbLine
 10
83.0014022962
 20
42.4074005382
 30
0.0
 11
132.9866836704
 21
42.4074005382
 31
0.0
  0
LINE
  5
369
100
AcDbEntity
  8
2501_1 UNTERZUGRAHMEN
390
0
100
AcDbLine
 10
18.5023685063
 20
55.4074005382
 30
0.0
 11
132.9966836704
 21
55.4074005382
 31
0.0
  0
LINE
  5
36A
100
AcDbEntity
  8
2501_1 UNTERZUGRAHMEN
390
0
100
AcDbLine
 10
34.0014022962
 20
46.4074005382
 30
0.0
 11
83.0014022962
 21
46.4074005382
 31
0.0
  0
CIRCLE
  5
36B
100
AcDbEntity
  8
2501_1 UNTERZUGRAHMEN
390
0
100
AcDbCircle
 10
25.0023685063
 20
48.9074005382
 30
0.0
 40
1.25
  0
CIRCLE
  5
36C
100
AcDbEntity
  8
2501_1 UNTERZUGRAHMEN
390
0
100
AcDbCircle
 10
126.4966836704
 20
48.9074005382
 30
0.0
 40
1.25
  0
LINE
  5
36D
100
AcDbEntity
  8
2501_1 UNTERZUGRAHMEN
390
0
100
AcDbLine
 10
34.0014022962
 20
42.4074005382
 30
0.0
 11
34.0014022962
 21
46.4074005382
 31
0.0
  0
LINE
  5
36E
100
AcDbEntity
  8
2501_1 UNTERZUGRAHMEN
390
0
100
AcDbLine
 10
83.0014022962
 20
42.4074005382
 30
0.0
 11
83.0014022962
 21
46.4074005382
 31
0.0
  0
LINE
  5
36F
100
AcDbEntity
  8
2501_1 UNTERZUGRAHMEN
370
        18
390
0
100
AcDbLine
 10
18.5023685063
 20
42.4074005382
 30
0.0
 11
18.5023685063
 21
57.4074005382
 31
0.0
  0
LINE
  5
370
100
AcDbEntity
  8
2501_1 UNTERZUGRAHMEN
390
0
100
AcDbLine
 10
18.5023685063
 20
57.4074005382
 30
0.0
 11
132.9966836704
 21
57.4074005382
 31
0.0
  0
LINE
  5
371
100
AcDbEntity
  8
2501_1 UNTERZUGRAHMEN
390
0
100
AcDbLine
 10
18.5023685063
 20
42.4074005382
 30
0.0
 11
34.0014022962
 21
42.4074005382
 31
0.0
  0
TEXT
  5
372
100
AcDbEntity
  8
BESCHRIFTUNG
390
0
100
AcDbText
 10
19.6397973256
 20
177.2046068766
 30
0.0
 40
2.0
  1
2501.52
 41
1.1351390723
  7
Arial
100
AcDbText
  0
TEXT
  5
373
100
AcDbEntity
  8
BESCHRIFTUNG
390
0
100
AcDbText
 10
127.8676098256
 20
181.4655443766
 30
0.0
 40
2.0
  1
2501.52
 41
1.1351390723
  7
Arial
100
AcDbText
  0
TEXT
  5
374
100
AcDbEntity
  8
BESCHRIFTUNG
390
0
100
AcDbText
 10
107.858962095
 20
211.2988349013
 30
0.0
 40
3.0
  1
2501.3
 41
1.1351381787
  7
Arial
100
AcDbText
  0
TEXT
  5
375
100
AcDbEntity
  8
BESCHRIFTUNG
390
0
100
AcDbText
 10
19.6397973256
 20
64.7046068766
 30
0.0
 40
2.0
  1
2501.52
 41
1.1351390723
  7
Arial
100
AcDbText
  0
TEXT
  5
376
100
AcDbEntity
  8
BESCHRIFTUNG
390
0
100
AcDbText
 10
127.8676098256
 20
68.9655443766
 30
0.0
 40
2.0
  1
2501.52
 41
1.1351390723
  7
Arial
100
AcDbText
  0
TEXT
  5
377
100
AcDbEntity
  8
BESCHRIFTUNG
390
0
100
AcDbText
 10
39.2532597424
 20
116.210050495
 30
0.0
 40
3.0
  1
2501.7/5
 41
1.1351341291
  7
Arial
100
AcDbText
  0
TEXT
  5
378
100
AcDbEntity
  8
BESCHRIFTUNG
390
0
100
AcDbText
 10
64.7718428206
 20
62.0585008225
 30
0.0
 40
2.0
  1
2501.53
 41
1.1351392071
  7
Arial
100
AcDbText
  0
TEXT
  5
379
100
AcDbEntity
  8
BESCHRIFTUNG
390
0
100
AcDbText
 10
88.6801347424
 20
97.035831745
 30
0.0
 40
3.0
  1
2501.8
 41
1.1351381256
  7
Arial
100
AcDbText
  0
TEXT
  5
37A
100
AcDbEntity
  8
BESCHRIFTUNG
390
0
100
AcDbText
 10
54.1194990706
 20
95.7199070725
 30
0.0
 40
2.0
  1
2501.57
 41
1.1351391172
  7
Arial
100
AcDbText
  0
TEXT
  5
37B
100
AcDbEntity
  8
BESCHRIFTUNG
390
0
100
AcDbText
 10
53.2673115706
 20
84.2153758225
 30
0.0
 40
2.0
  1
2501.56
 41
1.1351391847
  7
Arial
100
AcDbText
  0
TEXT
  5
37C
100
AcDbEntity
  8
BESCHRIFTUNG
390
0
100
AcDbText
 10
90.3374678206
 20
83.3631883225
 30
0.0
 40
2.0
  1
2501.56
 41
1.1351391847
  7
Arial
100
AcDbText
  0
TEXT
  5
37D
100
AcDbEntity
  8
BESCHRIFTUNG
390
0
100
AcDbText
 10
54.1194990706
 20
208.2199070725
 30
0.0
 40
2.0
  1
2501.56
 41
1.1351391847
  7
Arial
100
AcDbText
  0
LINE
  5
37E
100
AcDbEntity
  8
2501_1 UNTERZUGRAHMEN
390
0
100
AcDbLine
 10
175.6517311422
 20
75.4074005382
 30
0.0
 11
196.9652819544
 21
75.4074005382
 31
0.0
  0
LINE
  5
37F
100
AcDbEntity
  8
2501_1 UNTERZUGRAHMEN
390
0
100
AcDbLine
 10
174.4278135776
 20
77.4074005382
 30
0.0
 11
197.0688464076
 21
77.4074005382
 31
0.0
  0
LINE
  5
380
100
AcDbEntity
  8
2501_1 UNTERZUGRAHMEN
390
0
100
AcDbLine
 10
174.4278135776
 20
189.9074005382
 30
0.0
 11
197.0688464076
 21
189.9074005382
 31
0.0
  0
LINE
  5
381
100
AcDbEntity
  8
2501_1 UNTERZUGRAHMEN
390
0
100
AcDbLine
 10
175.6517311422
 20
187.9074005382
 30
0.0
 11
196.9652819544
 21
187.9074005382
 31
0.0
  0
INSERT
  5
382
100
AcDbEntity
  8
BEMASSUNG
390
0
100
AcDbBlockReference
  2
D343058432
 10
0.0
 20
0.0
 30
0.0
  0
INSERT
  5
383
100
AcDbEntity
  8
BEMASSUNG
390
0
100
AcDbBlockReference
  2
D343058688
 10
0.0
 20
0.0
 30
0.0
  0
LINE
  5
384
100
AcDbEntity
  8
2501_1 UNTERZUGRAHMEN
390
0
100
AcDbLine
 10
26.5023685063
 20
204.9074005382
 30
0.0
 11
26.5023685063
 21
194.9074005382
 31
0.0
  0
LINE
  5
385
100
AcDbEntity
  8
2501_1 UNTERZUGRAHMEN
390
0
100
AcDbLine
 10
125.0066836704
 20
204.9074005382
 30
0.0
 11
125.0066836704
 21
194.9074005382
 31
0.0
  0
LINE
  5
386
100
AcDbEntity
  8
2501_1 UNTERZUGRAHMEN
390
0
100
AcDbLine
 10
125.0066836704
 20
194.9074005382
 30
0.0
 11
132.9866836704
 21
194.9074005382
 31
0.0
  0
LINE
  5
387
100
AcDbEntity
  8
2501_1 UNTERZUGRAHMEN
390
0
100
AcDbLine
 10
26.5023685063
 20
194.9074005382
 30
0.0
 11
18.5023685063
 21
194.9074005382
 31
0.0
  0
LINE
  5
388
100
AcDbEntity
  8
2501_1 UNTERZUGRAHMEN
390
0
100
AcDbLine
 10
125.0066836704
 20
92.4074005382
 30
0.0
 11
125.0066836704
 21
82.4074005382
 31
0.0
  0
LINE
  5
389
100
AcDbEntity
  8
2501_1 UNTERZUGRAHMEN
390
0
100
AcDbLine
 10
125.0066836704
 20
82.4074005382
 30
0.0
 11
132.9866836704
 21
82.4074005382
 31
0.0
  0
LINE
  5
38A
100
AcDbEntity
  8
2501_1 UNTERZUGRAHMEN
390
0
100
AcDbLine
 10
26.5023685063
 20
82.4074005382
 30
0.0
 11
18.5023685063
 21
82.4074005382
 31
0.0
  0
LINE
  5
38B
100
AcDbEntity
  8
2501_1 UNTERZUGRAHMEN
370
        18
390
0
100
AcDbLine
 10
18.5023685063
 20
77.4074005382
 30
0.0
 11
18.5023685063
 21
90.4074005382
 31
0.0
  0
LINE
  5
38C
100
AcDbEntity
  8
2501_1 UNTERZUGRAHMEN
370
        18
390
0
100
AcDbLine
 10
133.0066836704
 20
77.4074005382
 30
0.0
 11
133.0066836704
 21
90.4074005382
 31
0.0
  0
LINE
  5
38D
100
AcDbEntity
  8
2501_1 UNTERZUGRAHMEN
390
0
100
AcDbLine
 10
26.5023685063
 20
92.4074005382
 30
0.0
 11
125.0066836704
 21
92.4074005382
 31
0.0
  0
LINE
  5
38E
100
AcDbEntity
  8
2501_1 UNTERZUGRAHMEN
390
0
100
AcDbLine
 10
26.5023685063
 20
92.4074005382
 30
0.0
 11
26.5023685063
 21
82.4074005382
 31
0.0
  0
LINE
  5
38F
100
AcDbEntity
  8
STANDARD
390
0
100
AcDbLine
 10
10.0
 20
5.0
 30
0.0
 11
10.0
 21
292.0
 31
0.0
  0
LINE
  5
390
100
AcDbEntity
  8
STANDARD
390
0
100
AcDbLine
 10
15.0
 20
287.0
 30
0.0
 11
205.0
 21
287.0
 31
0.0
  0
LINE
  5
391
100
AcDbEntity
  8
STANDARD
390
0
100
AcDbLine
 10
10.0
 20
292.0
 30
0.0
 11
15.0
 21
292.0
 31
0.0
  0
LINE
  5
392
100
AcDbEntity
  8
STANDARD
390
0
100
AcDbLine
 10
10.0
 20
5.0
 30
0.0
 11
15.0
 21
5.0
 31
0.0
  0
LINE
  5
393
100
AcDbEntity
  8
STANDARD
390
0
100
AcDbLine
 10
10.0
 20
244.1666666667
 30
0.0
 11
15.0
 21
244.1666666667
 31
0.0
  0
LINE
  5
394
100
AcDbEntity
  8
STANDARD
390
0
100
AcDbLine
 10
10.0
 20
196.3333333333
 30
0.0
 11
15.0
 21
196.3333333333
 31
0.0
  0
LINE
  5
395
100
AcDbEntity
  8
STANDARD
390
0
100
AcDbLine
 10
10.0
 20
148.5
 30
0.0
 11
15.0
 21
148.5
 31
0.0
  0
LINE
  5
396
100
AcDbEntity
  8
STANDARD
390
0
100
AcDbLine
 10
10.0
 20
100.6666666667
 30
0.0
 11
15.0
 21
100.6666666667
 31
0.0
  0
LINE
  5
397
100
AcDbEntity
  8
STANDARD
390
0
100
AcDbLine
 10
10.0
 20
52.8333333333
 30
0.0
 11
15.0
 21
52.8333333333
 31
0.0
  0
LINE
  5
398
100
AcDbEntity
  8
STANDARD
390
0
100
AcDbLine
 10
157.5
 20
292.0
 30
0.0
 11
157.5
 21
287.0
 31
0.0
  0
LINE
  5
399
100
AcDbEntity
  8
STANDARD
390
0
100
AcDbLine
 10
110.0
 20
292.0
 30
0.0
 11
110.0
 21
287.0
 31
0.0
  0
LINE
  5
39A
100
AcDbEntity
  8
STANDARD
390
0
100
AcDbLine
 10
62.5
 20
292.0
 30
0.0
 11
62.5
 21
287.0
 31
0.0
  0
TEXT
  5
39B
100
AcDbEntity
  8
STANDARD
390
0
100
AcDbText
 10
10.9491078691
 20
267.8641561278
 30
0.0
 40
2.23125
  1
A
 41
1.547986837
  7
Arial
 72
         1
 11
12.6760806841
 21
270.0954061278
 31
0.0
100
AcDbText
 73
         3
  0
TEXT
  5
39C
100
AcDbEntity
  8
STANDARD
390
0
100
AcDbText
 10
10.9491074243
 20
220.0308227945
 30
0.0
 40
2.23125
  1
B
 41
1.5479872357
  7
Arial
 72
         1
 11
12.6760806841
 21
222.2620727945
 31
0.0
100
AcDbText
 73
         3
  0
TEXT
  5
39D
100
AcDbEntity
  8
STANDARD
390
0
100
AcDbText
 10
10.9489779593
 20
172.1974894612
 30
0.0
 40
2.23125
  1
C
 41
1.5481032827
  7
Arial
 72
         1
 11
12.6760806841
 21
174.4287394612
 31
0.0
100
AcDbText
 73
         3
  0
TEXT
  5
39E
100
AcDbEntity
  8
STANDARD
390
0
100
AcDbText
 10
10.9489771034
 20
124.3641561278
 30
0.0
 40
2.23125
  1
D
 41
1.54810405
  7
Arial
 72
         1
 11
12.6760806841
 21
126.5954061278
 31
0.0
100
AcDbText
 73
         3
  0
TEXT
  5
39F
100
AcDbEntity
  8
STANDARD
390
0
100
AcDbText
 10
10.9491076096
 20
76.5308227945
 30
0.0
 40
2.23125
  1
E
 41
1.5479870696
  7
Arial
 72
         1
 11
12.6760806841
 21
78.7620727945
 31
0.0
100
AcDbText
 73
         3
  0
TEXT
  5
3A0
100
AcDbEntity
  8
STANDARD
390
0
100
AcDbText
 10
10.9493506612
 20
28.6974894612
 30
0.0
 40
2.23125
  1
F
 41
1.5477692083
  7
Arial
 72
         1
 11
12.6760806841
 21
30.9287394612
 31
0.0
100
AcDbText
 73
         3
  0
TEXT
  5
3A1
100
AcDbEntity
  8
STANDARD
390
0
100
AcDbText
 10
36.7048241449
 20
288.48599354
 30
0.0
 40
2.23125
  1
1
 41
1.5479225906
  7
Arial
 72
         1
 11
38.0
 21
290.71724354
 31
0.0
100
AcDbText
 73
         3
  0
TEXT
  5
3A2
100
AcDbEntity
  8
STANDARD
390
0
100
AcDbText
 10
83.7730999712
 20
288.48599354
 30
0.0
 40
2.23125
  1
2
 41
1.5479215945
  7
Arial
 72
         1
 11
85.5
 21
290.71724354
 31
0.0
100
AcDbText
 73
         3
  0
TEXT
  5
3A3
100
AcDbEntity
  8
STANDARD
390
0
100
AcDbText
 10
131.2730986376
 20
288.48599354
 30
0.0
 40
2.23125
  1
3
 41
1.5479227899
  7
Arial
 72
         1
 11
133.0
 21
290.71724354
 31
0.0
100
AcDbText
 73
         3
  0
TEXT
  5
3A4
100
AcDbEntity
  8
STANDARD
390
0
100
AcDbText
 10
178.7730988598
 20
288.48599354
 30
0.0
 40
2.23125
  1
4
 41
1.5479225906
  7
Arial
 72
         1
 11
180.5
 21
290.71724354
 31
0.0
100
AcDbText
 73
         3
  0
LINE
  5
3A5
100
AcDbEntity
  8
STANDARD
390
0
100
AcDbLine
 10
205.0
 20
292.0
 30
0.0
 11
205.0
 21
287.0
 31
0.0
  0
LINE
  5
3A6
100
AcDbEntity
  8
STANDARD
390
0
100
AcDbLine
 10
205.0
 20
5.0
 30
0.0
 11
15.0
 21
5.0
 31
0.0
  0
LINE
  5
3A7
100
AcDbEntity
  8
STANDARD
390
0
100
AcDbLine
 10
15.0
 20
5.0
 30
0.0
 11
15.0
 21
287.0
 31
0.0
  0
LINE
  5
3A8
100
AcDbEntity
  8
STANDARD
390
0
100
AcDbLine
 10
15.0
 20
292.0
 30
0.0
 11
205.0
 21
292.0
 31
0.0
  0
LINE
  5
3A9
100
AcDbEntity
  8
STANDARD
390
0
100
AcDbLine
 10
1.0
 20
1.0
 30
0.0
 11
1.0
 21
296.0
 31
0.0
  0
LINE
  5
3AA
100
AcDbEntity
  8
STANDARD
390
0
100
AcDbLine
 10
209.0
 20
1.0
 30
0.0
 11
1.0
 21
1.0
 31
0.0
  0
LINE
  5
3AB
100
AcDbEntity
  8
STANDARD
390
0
100
AcDbLine
 10
209.0
 20
296.0
 30
0.0
 11
209.0
 21
1.0
 31
0.0
  0
LINE
  5
3AC
100
AcDbEntity
  8
STANDARD
390
0
100
AcDbLine
 10
1.0
 20
296.0
 30
0.0
 11
209.0
 21
296.0
 31
0.0
  0
LINE
  5
3AD
100
AcDbEntity
  8
STANDARD
390
0
100
AcDbLine
 10
15.0
 20
287.0
 30
0.0
 11
15.0
 21
292.0
 31
0.0
  0
LINE
  5
3AE
100
AcDbEntity
  8
STANDARD
390
0
100
AcDbLine
 10
205.0
 20
287.0
 30
0.0
 11
205.0
 21
5.0
 31
0.0
  0
MTEXT
  5
3AF
100
AcDbEntity
  8
STANDARD
390
0
100
AcDbMText
 10
203.6063292805
 20
81.4222772661
 30
0.0
 40
1.59375
 41
0.0
 71
         1
 72
         1
  1

  7
Arial
 11
0.0
 21
-1.0
 31
0.0
 73
         1
 44
1.0352941176
  0
MTEXT
  5
3B0
100
AcDbEntity
  8
STANDARD
390
0
100
AcDbMText
 10
116.6968769253
 20
27.5871143065
 30
0.0
 40
1.59375
 41
0.0
 71
         1
 72
         1
  1

  7
Arial
 11
0.0
 21
-1.0
 31
0.0
 73
         1
 44
1.0352941176
  0
MTEXT
  5
3B1
100
AcDbEntity
  8
STANDARD
390
0
100
AcDbMText
 10
203.6063292805
 20
125.7560948498
 30
0.0
 40
1.59375
 41
0.0
 71
         1
 72
         1
  1

  7
Arial
 11
0.0
 21
-1.0
 31
0.0
 73
         1
 44
1.0352941176
  0
LINE
  5
3B2
100
AcDbEntity
  8
STANDARD
390
0
100
AcDbLine
 10
205.0
 20
182.1150997151
 30
0.0
 11
205.0
 21
5.1236467236
 31
0.0
  0
LINE
  5
3B3
100
AcDbEntity
  8
STANDARD
370
         0
390
0
100
AcDbLine
 10
127.305982906
 20
34.4
 30
0.0
 11
127.305982906
 21
5.0
 31
0.0
  0
LINE
  5
3B4
100
AcDbEntity
  8
STANDARD
370
         0
390
0
100
AcDbLine
 10
81.105982906
 20
34.4
 30
0.0
 11
205.0
 21
34.4
 31
0.0
  0
LINE
  5
3B5
100
AcDbEntity
  8
STANDARD
370
         0
390
0
100
AcDbLine
 10
81.105982906
 20
27.4
 30
0.0
 11
205.0
 21
27.4
 31
0.0
  0
LINE
  5
3B6
100
AcDbEntity
  8
STANDARD
370
         0
390
0
100
AcDbLine
 10
81.105982906
 20
12.0
 30
0.0
 11
205.0
 21
12.0
 31
0.0
  0
LINE
  5
3B7
100
AcDbEntity
  8
STANDARD
370
         0
390
0
100
AcDbLine
 10
81.105982906
 20
34.4
 30
0.0
 11
81.105982906
 21
5.0
 31
0.0
  0
LINE
  5
3B8
100
AcDbEntity
  8
STANDARD
370
         0
390
0
100
AcDbLine
 10
165.105982906
 20
34.4
 30
0.0
 11
165.105982906
 21
27.4
 31
0.0
  0
TEXT
  5
3B9
100
AcDbEntity
  8
BESCHRIFTUNG
390
0
100
AcDbText
 10
82.2010860399
 20
29.1386
 30
0.0
 40
3.3
  1
Stellwerk HMM
 41
1.3758039542
 51
15.0
  7
Arial
 11
82.2010860399
 21
32.4386
 31
0.0
100
AcDbText
 73
         3
  0
TEXT
  5
3BA
100
AcDbEntity
  8
BESCHRIFTUNG
390
0
100
AcDbText
 10
128.6210415954
 20
21.6601111111
 30
0.0
 40
3.3
  1
Abtrieb für Einzelhebel
 41
1.1302079763
 51
15.0
  7
Arial
 11
128.6210415954
 21
24.9601111111
 31
0.0
100
AcDbText
 73
         3
  0
TEXT
  5
3BB
100
AcDbEntity
  8
BESCHRIFTUNG
390
0
100
AcDbText
 10
82.2010860399
 20
6.9230888889
 30
0.0
 40
3.3
  1
Dateiname
 41
1.1437088374
 51
15.0
  7
Arial
 11
82.2010860399
 21
10.2230888889
 31
0.0
100
AcDbText
 73
         3
  0
TEXT
  5
3BC
100
AcDbEntity
  8
BESCHRIFTUNG
390
0
100
AcDbText
 10
82.4210415954
 20
21.6601111111
 30
0.0
 40
3.3
  1
Bl. 2501 Kv
 41
1.1437155894
 51
15.0
  7
Arial
 11
82.4210415954
 21
24.9601111111
 31
0.0
100
AcDbText
 73
         3
  0
TEXT
  5
3BD
100
AcDbEntity
  8
BESCHRIFTUNG
390
0
100
AcDbText
 10
166.2010860399
 20
29.1386
 30
0.0
 40
3.3
  1
Maßstab 1:1
 41
1.1437192123
 51
15.0
  7
Arial
 11
166.2010860399
 21
32.4386
 31
0.0
100
AcDbText
 73
         3
  0
ENDSEC
  0
SECTION
  2
OBJECTS
  0
DICTIONARY
  5
19
100
AcDbDictionary
280
         0
281
         1
  3
ACAD_GROUP
350
1A
  3
ACAD_MLINESTYLE
350
1B
  3
ACAD_LAYOUT
350
1E
  3
ACAD_PLOTSETTINGS
350
22
  3
ACAD_PLOTSTYLENAME
350
1F
  3
ACAD_WIPEOUT_VARS
350
23
  0
DICTIONARY
  5
1A
102
{ACAD_REACTORS
330
19
102
}
100
AcDbDictionary
280
         0
281
         1
  0
DICTIONARY
  5
1B
102
{ACAD_REACTORS
330
19
102
}
100
AcDbDictionary
280
         0
281
         1
  3
Standard
350
1C
  0
MLINESTYLE
  5
1C
102
{ACAD_REACTORS
330
1B
102
}
100
AcDbMlineStyle
  2
Standard
 70
         0
  3

 62
         0
 51
90.0
 52
90.0
 71
         2
 49
0.5
 62
       256
  6
ByLayer
 49
-0.5
 62
       256
  6
ByLayer
  0
ACDBDICTIONARYWDFLT
  5
1F
102
{ACAD_REACTORS
330
19
102
}
100
AcDbDictionary
281
         1
  3
Normal
350
1D
100
AcDbDictionaryWithDefault
340
1D
  0
ACDBPLACEHOLDER
  5
1D
102
{ACAD_REACTORS
330
1F
102
}
  0
LAYOUT
  5
20
102
{ACAD_REACTORS
330
1E
102
}
100
AcDbPlotSettings
  1

  2

  4

  6

 40
0.0
 41
0.0
 42
0.0
 43
0.0
 44
0.0
 45
0.0
 46
0.0
 47
0.0
 48
0.0
 49
0.0
140
0.0
141
0.0
142
1.0
143
1.0
 70
      1024
 72
         0
 73
         0
 74
         0
  7

 75
         0
147
1.0
148
0.0
149
0.0
100
AcDbLayout
  1
Model
 70
         0
 71
         0
 10
0.0
 20
0.0
 11
0.0
 21
0.0
 12
0.0
 22
0.0
 32
0.0
 14
0.0
 24
0.0
 34
0.0
 15
0.0
 25
0.0
 35
0.0
146
0.0
 13
0.0
 23
0.0
 33
0.0
 16
0.0
 26
0.0
 36
0.0
 17
0.0
 27
0.0
 37
0.0
 76
         0
330
A
331
0
345
0
346
0
  0
LAYOUT
  5
21
102
{ACAD_REACTORS
330
1E
102
}
100
AcDbPlotSettings
  1

  2

  4

  6

 40
0.0
 41
0.0
 42
0.0
 43
0.0
 44
0.0
 45
0.0
 46
0.0
 47
0.0
 48
0.0
 49
0.0
140
0.0
141
0.0
142
1.0
143
1.0
 70
         0
 72
         0
 73
         0
 74
         0
  7

 75
         0
147
1.0
148
0.0
149
0.0
100
AcDbLayout
  1
Layout1
 70
         0
 71
         0
 10
0.0
 20
0.0
 11
0.0
 21
0.0
 12
0.0
 22
0.0
 32
0.0
 14
0.0
 24
0.0
 34
0.0
 15
0.0
 25
0.0
 35
0.0
146
0.0
 13
0.0
 23
0.0
 33
0.0
 16
0.0
 26
0.0
 36
0.0
 17
0.0
 27
0.0
 37
0.0
 76
         0
330
B
331
0
345
0
346
0
  0
DICTIONARY
  5
1E
102
{ACAD_REACTORS
330
19
102
}
100
AcDbDictionary
280
         0
281
         1
  3
Layout1
350
21
  3
Model
350
20
  0
DICTIONARY
  5
22
102
{ACAD_REACTORS
330
19
102
}
100
AcDbDictionary
280
         0
281
         1
  0
WIPEOUTVARIABLES
  5
23
100
AcDbWipeoutVariables
 70
         1
  0
ENDSEC
  0
EOF
