  0
SECTION
  2
HEADER
  9
$ACADVER
  1
AC1015
  9
$ACADMAINTVER
 70
         6
  9
$DWGCODEPAGE
  3
ANSI_1252
  9
$INSBASE
 10
0.0
 20
0.0
 30
0.0
  9
$EXTMIN
 10
0.0
 20
0.0
 30
0.0
  9
$EXTMAX
 10
210.0
 20
297.0
 30
0.0
  9
$LIMMIN
 10
0.0
 20
0.0
  9
$LIMMAX
 10
210.0
 20
297.0
  9
$ORTHOMODE
 70
         0
  9
$REGENMODE
 70
         1
  9
$FILLMODE
 70
         1
  9
$QTEXTMODE
 70
         0
  9
$MIRRTEXT
 70
         1
  9
$LTSCALE
 40
5.25
  9
$ATTMODE
 70
         1
  9
$TEXTSIZE
 40
0.2
  9
$TRACEWID
 40
0.05
  9
$TEXTSTYLE
  7
Standard
  9
$CLAYER
  8
0
  9
$CELTYPE
  6
CONTINUOUS
  9
$CECOLOR
 62
       256
  9
$CELTSCALE
 40
1.0
  9
$DISPSILH
 70
         0
  9
$DIMSCALE
 40
1.0
  9
$DIMASZ
 40
0.18
  9
$DIMEXO
 40
0.0625
  9
$DIMDLI
 40
0.38
  9
$DIMRND
 40
0.0
  9
$DIMDLE
 40
0.0
  9
$DIMEXE
 40
0.18
  9
$DIMTP
 40
0.0
  9
$DIMTM
 40
0.0
  9
$DIMTXT
 40
3.0
  9
$DIMCEN
 40
0.09
  9
$DIMTSZ
 40
0.0
  9
$DIMTOL
 70
         0
  9
$DIMLIM
 70
         0
  9
$DIMTIH
 70
         1
  9
$DIMTOH
 70
         1
  9
$DIMSE1
 70
         0
  9
$DIMSE2
 70
         0
  9
$DIMTAD
 70
         1
  9
$DIMZIN
 70
         0
  9
$DIMBLK
  1

  9
$DIMASO
 70
         1
  9
$DIMSHO
 70
         1
  9
$DIMPOST
  1
<>
  9
$DIMAPOST
  1

  9
$DIMALT
 70
         0
  9
$DIMALTD
 70
         2
  9
$DIMALTF
 40
25.4
  9
$DIMLFAC
 40
1.0
  9
$DIMTOFL
 70
         0
  9
$DIMTVP
 40
0.0
  9
$DIMTIX
 70
         0
  9
$DIMSOXD
 70
         0
  9
$DIMSAH
 70
         0
  9
$DIMBLK1
  1

  9
$DIMBLK2
  1

  9
$DIMSTYLE
  2
Standard
  9
$DIMCLRD
 70
         0
  9
$DIMCLRE
 70
         0
  9
$DIMCLRT
 70
         0
  9
$DIMTFAC
 40
1.0
  9
$DIMGAP
 40
0.09
  9
$DIMJUST
 70
         0
  9
$DIMSD1
 70
         0
  9
$DIMSD2
 70
         0
  9
$DIMTOLJ
 70
         1
  9
$DIMTZIN
 70
         0
  9
$DIMALTZ
 70
         0
  9
$DIMALTTZ
 70
         0
  9
$DIMUPT
 70
         0
  9
$DIMDEC
 70
         4
  9
$DIMTDEC
 70
         4
  9
$DIMALTU
 70
         2
  9
$DIMALTTD
 70
         2
  9
$DIMTXSTY
  7
Standard
  9
$DIMAUNIT
 70
         0
  9
$DIMADEC
 70
         0
  9
$DIMALTRND
 40
0.0
  9
$DIMAZIN
 70
         0
  9
$DIMDSEP
 70
         0
  9
$DIMATFIT
 70
         3
  9
$DIMFRAC
 70
         0
  9
$DIMLDRBLK
  1

  9
$DIMLUNIT
 70
         2
  9
$DIMLWD
 70
         0
  9
$DIMLWE
 70
         0
  9
$DIMTMOVE
 70
         0
  9
$LUNITS
 70
         2
  9
$LUPREC
 70
         4
  9
$SKETCHINC
 40
0.1
  9
$FILLETRAD
 40
0.0
  9
$AUNITS
 70
         0
  9
$AUPREC
 70
         0
  9
$MENU
  1
acad
  9
$ELEVATION
 40
0.0
  9
$PELEVATION
 40
0.0
  9
$THICKNESS
 40
0.0
  9
$LIMCHECK
 70
         0
  9
$CHAMFERA
 40
0.0
  9
$CHAMFERB
 40
0.0
  9
$CHAMFERC
 40
0.0
  9
$CHAMFERD
 40
0.0
  9
$SKPOLY
 70
         0
  9
$TDCREATE
 40
0.000000000
  9
$TDUCREATE
 40
0.000000000
  9
$TDUPDATE
 40
0.000000000
  9
$TDUUPDATE
 40
0.000000000
  9
$TDINDWG
 40
0.0000000000
  9
$TDUSRTIMER
 40
0.0000000000
  9
$USRTIMER
 70
         1
  9
$ANGBASE
 50
0.0
  9
$ANGDIR
 70
         0
  9
$PDMODE
 70
         0
  9
$PDSIZE
 40
0.0
  9
$PLINEWID
 40
0.0
  9
$SPLFRAME
 70
         0
  9
$SPLINETYPE
 70
         6
  9
$SPLINESEGS
 70
         8
  9
$HANDSEED
  5
277
  9
$SURFTAB1
 70
         6
  9
$SURFTAB2
 70
         6
  9
$SURFTYPE
 70
         6
  9
$SURFU
 70
         6
  9
$SURFV
 70
         6
  9
$UCSBASE
  2

  9
$UCSNAME
  2

  9
$UCSORG
 10
0.0
 20
0.0
 30
0.0
  9
$UCSXDIR
 10
1.0
 20
0.0
 30
0.0
  9
$UCSYDIR
 10
0.0
 20
1.0
 30
0.0
  9
$UCSORTHOREF
  2

  9
$UCSORTHOVIEW
 70
         0
  9
$UCSORGTOP
 10
0.0
 20
0.0
 30
0.0
  9
$UCSORGBOTTOM
 10
0.0
 20
0.0
 30
0.0
  9
$UCSORGLEFT
 10
0.0
 20
0.0
 30
0.0
  9
$UCSORGRIGHT
 10
0.0
 20
0.0
 30
0.0
  9
$UCSORGFRONT
 10
0.0
 20
0.0
 30
0.0
  9
$UCSORGBACK
 10
0.0
 20
0.0
 30
0.0
  9
$PUCSBASE
  2

  9
$PUCSNAME
  2

  9
$PUCSORG
 10
0.0
 20
0.0
 30
0.0
  9
$PUCSXDIR
 10
1.0
 20
0.0
 30
0.0
  9
$PUCSYDIR
 10
0.0
 20
1.0
 30
0.0
  9
$PUCSORTHOREF
  2

  9
$PUCSORTHOVIEW
 70
         0
  9
$PUCSORGTOP
 10
0.0
 20
0.0
 30
0.0
  9
$PUCSORGBOTTOM
 10
0.0
 20
0.0
 30
0.0
  9
$PUCSORGLEFT
 10
0.0
 20
0.0
 30
0.0
  9
$PUCSORGRIGHT
 10
0.0
 20
0.0
 30
0.0
  9
$PUCSORGFRONT
 10
0.0
 20
0.0
 30
0.0
  9
$PUCSORGBACK
 10
0.0
 20
0.0
 30
0.0
  9
$USERI1
 70
         0
  9
$USERI2
 70
         0
  9
$USERI3
 70
         0
  9
$USERI4
 70
         0
  9
$USERI5
 70
         0
  9
$USERR1
 40
0.0
  9
$USERR2
 40
0.0
  9
$USERR3
 40
0.0
  9
$USERR4
 40
0.0
  9
$USERR5
 40
0.0
  9
$WORLDVIEW
 70
         1
  9
$SHADEDGE
 70
         3
  9
$SHADEDIF
 70
        70
  9
$TILEMODE
 70
         1
  9
$MAXACTVP
 70
        16
  9
$PINSBASE
 10
0.0
 20
0.0
 30
0.0
  9
$PLIMCHECK
 70
         0
  9
$PEXTMIN
 10
1.0000000000E+20
 20
1.0000000000E+20
 30
1.0000000000E+20
  9
$PEXTMAX
 10
-1.0000000000E+20
 20
-1.0000000000E+20
 30
-1.0000000000E+20
  9
$PLIMMIN
 10
0.0
 20
0.0
  9
$PLIMMAX
 10
12.0
 20
9.0
  9
$UNITMODE
 70
         0
  9
$VISRETAIN
 70
         0
  9
$PLINEGEN
 70
         1
  9
$PSLTSCALE
 70
         0
  9
$TREEDEPTH
 70
      3020
  9
$CMLSTYLE
  2
Standard
  9
$CMLJUST
 70
         0
  9
$CMLSCALE
 40
1.0
  9
$PROXYGRAPHICS
 70
         0
  9
$MEASUREMENT
 70
         1
  9
$CELWEIGHT
370
         0
  9
$ENDCAPS
280
         0
  9
$JOINSTYLE
280
         0
  9
$LWDISPLAY
290
         0
  9
$INSUNITS
 70
         0
  9
$HYPERLINKBASE
  1

  9
$STYLESHEET
  1

  9
$XEDIT
290
         1
  9
$CEPSNTYPE
380
         0
  9
$PSTYLEMODE
290
         1
  9
$FINGERPRINTGUID
  2

  9
$VERSIONGUID
  2

  9
$EXTNAMES
290
         1
  9
$PSVPSCALE
 40
0.0
  0
ENDSEC
  0
SECTION
  2
CLASSES
  0
CLASS
  1
LWPOLYLINE
  2
AcDbPolyline
  3
AutoCAD 2000
 90
        0
280
         0
281
         1
  0
CLASS
  1
IMAGE
  2
AcDbRasterImage
  3
ISM
 90
      127
280
         0
281
         1
  0
CLASS
  1
OLE2FRAME
  2
AcDbOle2Frame
  3
AutoCAD 2000
 90
        0
280
         0
281
         1
  0
CLASS
  1
HATCH
  2
AcDbHatch
  3
AutoCAD 2000
 90
        0
280
         0
281
         1
  0
CLASS
  1
DICTIONARYVAR
  2
AcDbDictionaryVar
  3
AutoCAD 2000
 90
        0
280
         0
281
         0
  0
CLASS
  1
RASTERVARIABLES
  2
AcDbRasterVariables
  3
ISM
 90
        0
280
         0
281
         0
  0
CLASS
  1
IMAGEDEF
  2
AcDbRasterImageDef
  3
ISM
 90
        0
280
         0
281
         0
  0
CLASS
  1
IMAGEDEF_REACTOR
  2
AcDbRasterImageDefReactor
  3
ISM
 90
        1
280
         0
281
         0
  0
CLASS
  1
IDBUFFER
  2
AcDbIdBuffer
  3
AutoCAD 2000
 90
        0
280
         0
281
         0
  0
CLASS
  1
SPATIAL_FILTER
  2
AcDbSpatialFilter
  3
AutoCAD 2000
 90
        0
280
         0
281
         0
  0
CLASS
  1
XRECORD
  2
AcDbXrecord
  3
AutoCAD 2000
 90
        0
280
         0
281
         0
  0
CLASS
  1
SORTENTSTABLE
  2
AcDbSortentsTable
  3
AutoCAD 2000
 90
        0
280
         0
281
         0
  0
CLASS
  1
LAYER_INDEX
  2
AcDbLayerIndex
  3
AutoCAD 2000
 90
        0
280
         0
281
         0
  0
CLASS
  1
SPATIAL_INDEX
  2
AcDbSpatialIndex
  3
AutoCAD 2000
 90
        0
280
         0
281
         0
  0
CLASS
  1
OBJECT_PTR
  2
CAseDLPNTableRecord
  3
"ASE-LPNTableRecord"
 90
        1
280
         0
281
         0
  0
CLASS
  1
LAYOUT
  2
AcDbLayout
  3
AutoCAD 2000
 90
        0
280
         0
281
         0
  0
CLASS
  1
PLOTSETTINGS
  2
AcDbPlotSettings
  3
AutoCAD 2000
 90
        0
280
         0
281
         0
  0
CLASS
  1
ACDBDICTIONARYWDFLT
  2
AcDbDictionaryWithDefault
  3
AutoCAD 2000
 90
        0
280
         0
281
         0
  0
CLASS
  1
ACDBPLACEHOLDER
  2
AcDbPlaceHolder
  3
AutoCAD 2000
 90
        0
280
         0
281
         0
  0
CLASS
  1
VBA_PROJECT
  2
AcDbVbaProject
  3
acadvba
 90
        0
280
         0
281
         0
  0
CLASS
  1
WIPEOUT
  2
AcDbWipeout
  3
WipeOut|AutoCAD Express Tool|expresstools@autodesk.com
 90
      127
280
         0
281
         1
  0
CLASS
  1
WIPEOUTVARIABLES
  2
AcDbWipeoutVariables
  3
WipeOut|AutoCAD Express Tool|expresstools@autodesk.com
 90
        0
280
         0
281
         0
  0
CLASS
  1
RTEXT
  2
RText
  3
RText|AutoCAD Express Tool|expresstools@autodesk.com
 90
        0
280
         0
281
         1
  0
CLASS
  1
ARCALIGNEDTEXT
  2
AcDbArcAlignedText
  3
ATEXT|AutoCAD Express Tool|expresstools@autodesk.com
 90
        0
280
         0
281
         1
  0
ENDSEC
  0
SECTION
  2
TABLES
  0
TABLE
  2
VPORT
  5
7
100
AcDbSymbolTable
 70
         1
  0
VPORT
  5
15
100
AcDbSymbolTableRecord
100
AcDbViewportTableRecord
  2
*ACTIVE
 70
         0
 10
0.0
 20
0.0
 11
1.0
 21
1.0
 12
105.0
 22
148.5
 13
0.0
 23
0.0
 14
1.0
 24
1.0
 15
0.0
 25
0.0
 16
0.0
 26
0.0
 36
1.0
 17
0.0
 27
0.0
 37
0.0
 40
231.2943892345
 41
1.0
 42
50.0
 43
0.0
 44
0.0
 50
0.0
 51
0.0
 71
         0
 72
       100
 73
         1
 74
         1
 75
         0
 76
         0
 77
         0
 78
         0
281
         0
 65
         0
110
0.0
120
0.0
130
0.0
111
1.0
121
0.0
131
0.0
112
0.0
122
1.0
132
0.0
345
0
346
0
 79
         0
146
0.0
  0
ENDTAB
  0
TABLE
  2
LTYPE
  5
4
100
AcDbSymbolTable
 70
        12
  0
LTYPE
  5
11
100
AcDbSymbolTableRecord
100
AcDbLinetypeTableRecord
  2
ByBlock
 70
        64
  3

 72
        65
 73
         0
 40
0.0
  0
LTYPE
  5
12
100
AcDbSymbolTableRecord
100
AcDbLinetypeTableRecord
  2
ByLayer
 70
        64
  3

 72
        65
 73
         0
 40
0.0
  0
LTYPE
  5
13
100
AcDbSymbolTableRecord
100
AcDbLinetypeTableRecord
  2
CONTINUOUS
 70
        64
  3
Solid Line
 72
        65
 73
         0
 40
0.0
  0
LTYPE
  5
24
100
AcDbSymbolTableRecord
100
AcDbLinetypeTableRecord
  2
DOT
 70
        64
  3
. . . . . . . . . . . . . . . . . . . . . . 
 72
        65
 73
         2
 40
0.25
 49
0.0
 74
         0
 49
-0.25
 74
         0
  0
LTYPE
  5
25
100
AcDbSymbolTableRecord
100
AcDbLinetypeTableRecord
  2
HIDDEN
 70
         0
  3
_ _ _ _ _ _ _ _ _ _ _ _ _ _ _ _ _ _ _ _ _ _ _
 72
        65
 73
         2
 40
0.375
 49
0.25
 74
         0
 49
-0.125
 74
         0
  0
LTYPE
  5
26
100
AcDbSymbolTableRecord
100
AcDbLinetypeTableRecord
  2
DASHDOT
 70
         0
  3
__ . __ . __ . __ . __ . __ . __ . __ . __ . __
 72
        65
 73
         4
 40
1.0
 49
0.5
 74
         0
 49
-0.25
 74
         0
 49
0.0
 74
         0
 49
-0.25
 74
         0
  0
LTYPE
  5
27
100
AcDbSymbolTableRecord
100
AcDbLinetypeTableRecord
  2
DIVIDE
 70
         0
  3
__ . . __ . . __ . . __ . . __ . . __ . . __
 72
        65
 73
         6
 40
1.25
 49
0.5
 74
         0
 49
-0.25
 74
         0
 49
0.0
 74
         0
 49
-0.25
 74
         0
 49
0.0
 74
         0
 49
-0.25
 74
         0
  0
LTYPE
  5
28
100
AcDbSymbolTableRecord
100
AcDbLinetypeTableRecord
  2
DASHED
 70
         0
  3
__ __ __ __ __ __ __ __ __ __ __ __ __ __ __
 72
        65
 73
         2
 40
0.75
 49
0.5
 74
         0
 49
-0.25
 74
         0
  0
LTYPE
  5
29
100
AcDbSymbolTableRecord
100
AcDbLinetypeTableRecord
  2
BORDER
 70
         0
  3
__ __ . __ __ . __ __ . __ __ . __ __ .
 72
        65
 73
         6
 40
1.75
 49
0.5
 74
         0
 49
-0.25
 74
         0
 49
0.5
 74
         0
 49
-0.25
 74
         0
 49
0.0
 74
         0
 49
-0.25
 74
         0
  0
LTYPE
  5
2A
100
AcDbSymbolTableRecord
100
AcDbLinetypeTableRecord
  2
CENTER
 70
         0
  3
____ _ ____ _ ____ _ ____ _ ____ _ ____
 72
        65
 73
         4
 40
2.0
 49
1.25
 74
         0
 49
-0.25
 74
         0
 49
0.25
 74
         0
 49
-0.25
 74
         0
  0
LTYPE
  5
2B
100
AcDbSymbolTableRecord
100
AcDbLinetypeTableRecord
  2
DOT2
 70
         0
  3
........................................
 72
        65
 73
         2
 40
0.125
 49
0.0
 74
         0
 49
-0.125
 74
         0
  0
LTYPE
  5
2C
100
AcDbSymbolTableRecord
100
AcDbLinetypeTableRecord
  2
PHANTOM
 70
         0
  3
______  __  __  ______  __  __  ______
 72
        65
 73
         6
 40
2.5
 49
1.25
 74
         0
 49
-0.25
 74
         0
 49
0.25
 74
         0
 49
-0.25
 74
         0
 49
0.25
 74
         0
 49
-0.25
 74
         0
  0
ENDTAB
  0
TABLE
  2
LAYER
  5
2
100
AcDbSymbolTable
 70
        90
  0
LAYER
  5
14
100
AcDbSymbolTableRecord
100
AcDbLayerTableRecord
  2
0
 70
         0
 62
         7
  6
CONTINUOUS
290
         1
370
        -3
390
1D
  0
LAYER
  5
33
100
AcDbSymbolTableRecord
100
AcDbLayerTableRecord
  2
BESCHRIFTUNG
 70
        64
 62
         7
  6
CONTINUOUS
290
         1
370
        25
390
1D
  0
LAYER
  5
34
100
AcDbSymbolTableRecord
100
AcDbLayerTableRecord
  2
SCHRAFFUR
 70
        64
 62
         7
  6
CONTINUOUS
290
         1
370
        25
390
1D
  0
LAYER
  5
35
100
AcDbSymbolTableRecord
100
AcDbLayerTableRecord
  2
MASSTEXTE
 70
        64
 62
       212
  6
CONTINUOUS
290
         1
370
        25
390
1D
  0
LAYER
  5
36
100
AcDbSymbolTableRecord
100
AcDbLayerTableRecord
  2
MASSLINIEN
 70
        64
 62
       172
  6
CONTINUOUS
290
         1
370
        25
390
1D
  0
LAYER
  5
37
100
AcDbSymbolTableRecord
100
AcDbLayerTableRecord
  2
MASSGRENZEN
 70
        64
 62
       172
  6
CONTINUOUS
290
         1
370
        25
390
1D
  0
LAYER
  5
38
100
AcDbSymbolTableRecord
100
AcDbLayerTableRecord
  2
TOLERANZEN
 70
        64
 62
       212
  6
CONTINUOUS
290
         1
370
         0
390
1D
  0
LAYER
  5
39
100
AcDbSymbolTableRecord
100
AcDbLayerTableRecord
  2
BEMASSUNG
 70
        64
 62
         7
  6
CONTINUOUS
290
         1
370
        25
390
1D
  0
LAYER
  5
3A
100
AcDbSymbolTableRecord
100
AcDbLayerTableRecord
  2
HILFSLINIEN
 70
        64
 62
         3
  6
CONTINUOUS
290
         1
370
         0
390
1D
  0
LAYER
  5
3B
100
AcDbSymbolTableRecord
100
AcDbLayerTableRecord
  2
MITTELLINIEN
 70
        64
 62
         5
  6
DASHDOT
290
         1
370
        25
390
1D
  0
LAYER
  5
3C
100
AcDbSymbolTableRecord
100
AcDbLayerTableRecord
  2
BESCHRIFTUNG00
 70
        64
 62
         7
  6
CONTINUOUS
290
         1
370
        25
390
1D
  0
LAYER
  5
3D
100
AcDbSymbolTableRecord
100
AcDbLayerTableRecord
  2
BESCHRIFTUNG0
 70
        64
 62
         7
  6
CONTINUOUS
290
         1
370
        25
390
1D
  0
LAYER
  5
3E
100
AcDbSymbolTableRecord
100
AcDbLayerTableRecord
  2
GEWINDELINIEN
 70
        64
 62
       212
  6
CONTINUOUS
290
         1
370
        25
390
1D
  0
LAYER
  5
3F
100
AcDbSymbolTableRecord
100
AcDbLayerTableRecord
  2
UNSICHTBARE
 70
        64
 62
        92
  6
DASHED
290
         1
370
        25
390
1D
  0
LAYER
  5
40
100
AcDbSymbolTableRecord
100
AcDbLayerTableRecord
  2
VERDECKTE
 70
        64
 62
        92
  6
DASHED
290
         1
370
        25
390
1D
  0
LAYER
  5
41
100
AcDbSymbolTableRecord
100
AcDbLayerTableRecord
  2
LICHTKANTEN
 70
        64
 62
         8
  6
CONTINUOUS
290
         1
370
        25
390
1D
  0
LAYER
  5
42
100
AcDbSymbolTableRecord
100
AcDbLayerTableRecord
  2
SCHNITTVERLAUF
 70
        64
 62
        34
  6
DASHDOT
290
         1
370
        70
390
1D
  0
LAYER
  5
43
100
AcDbSymbolTableRecord
100
AcDbLayerTableRecord
  2
KENNZEICHNUNG
 70
        64
 62
         7
  6
CONTINUOUS
290
         1
370
         0
390
1D
  0
LAYER
  5
44
100
AcDbSymbolTableRecord
100
AcDbLayerTableRecord
  2
PFEILE
 70
        64
 62
         7
  6
CONTINUOUS
290
         1
370
        70
390
1D
  0
LAYER
  5
45
100
AcDbSymbolTableRecord
100
AcDbLayerTableRecord
  2
SCHNITTDARSTELLUNG
 70
        64
 62
         7
  6
CONTINUOUS
290
         1
370
         0
390
1D
  0
LAYER
  5
46
100
AcDbSymbolTableRecord
100
AcDbLayerTableRecord
  2
2501_3P
 70
        64
 62
        30
  6
CONTINUOUS
290
         1
370
         0
390
1D
  0
LAYER
  5
47
100
AcDbSymbolTableRecord
100
AcDbLayerTableRecord
  2
2501_1L
 70
        64
 62
        30
  6
CONTINUOUS
290
         1
370
         0
390
1D
  0
LAYER
  5
48
100
AcDbSymbolTableRecord
100
AcDbLayerTableRecord
  2
2501_2P
 70
        64
 62
        30
  6
CONTINUOUS
290
         1
370
         0
390
1D
  0
LAYER
  5
49
100
AcDbSymbolTableRecord
100
AcDbLayerTableRecord
  2
2501_2T
 70
        64
 62
        14
  6
CONTINUOUS
290
         1
370
         0
390
1D
  0
LAYER
  5
4A
100
AcDbSymbolTableRecord
100
AcDbLayerTableRecord
  2
2501_1R
 70
        64
 62
        14
  6
CONTINUOUS
290
         1
370
         0
390
1D
  0
LAYER
  5
4B
100
AcDbSymbolTableRecord
100
AcDbLayerTableRecord
  2
2501_7P
 70
        64
 62
        30
  6
CONTINUOUS
290
         1
370
         0
390
1D
  0
LAYER
  5
4C
100
AcDbSymbolTableRecord
100
AcDbLayerTableRecord
  2
2501_7T
 70
        64
 62
        14
  6
CONTINUOUS
290
         1
370
         0
390
1D
  0
LAYER
  5
4D
100
AcDbSymbolTableRecord
100
AcDbLayerTableRecord
  2
2501_8P
 70
        64
 62
        30
  6
CONTINUOUS
290
         1
370
         0
390
1D
  0
LAYER
  5
4E
100
AcDbSymbolTableRecord
100
AcDbLayerTableRecord
  2
2501___ UNTERZUG FÜR EINZELHEBEL
 70
        64
 62
         6
  6
DASHDOT
290
         1
370
         0
390
1D
  0
LAYER
  5
4F
100
AcDbSymbolTableRecord
100
AcDbLayerTableRecord
  2
2500_1T
 70
        64
 62
        14
  6
CONTINUOUS
290
         1
370
         0
390
1D
  0
LAYER
  5
50
100
AcDbSymbolTableRecord
100
AcDbLayerTableRecord
  2
2500_1P
 70
        64
 62
        30
  6
CONTINUOUS
290
         1
370
         0
390
1D
  0
LAYER
  5
51
100
AcDbSymbolTableRecord
100
AcDbLayerTableRecord
  2
2500_2T
 70
        64
 62
        14
  6
CONTINUOUS
290
         1
370
         0
390
1D
  0
LAYER
  5
52
100
AcDbSymbolTableRecord
100
AcDbLayerTableRecord
  2
2500_2P
 70
        64
 62
        30
  6
CONTINUOUS
290
         1
370
         0
390
1D
  0
LAYER
  5
53
100
AcDbSymbolTableRecord
100
AcDbLayerTableRecord
  2
2500___ HILFSPFADE FÜR UNTERZUG
 70
        64
 62
         6
  6
DASHDOT
290
         1
370
         0
390
1D
  0
LAYER
  5
54
100
AcDbSymbolTableRecord
100
AcDbLayerTableRecord
  2
2502_5P
 70
        64
 62
        30
  6
CONTINUOUS
290
         1
370
         0
390
1D
  0
LAYER
  5
55
100
AcDbSymbolTableRecord
100
AcDbLayerTableRecord
  2
2502_5T
 70
        64
 62
        14
  6
CONTINUOUS
290
         1
370
         0
390
1D
  0
LAYER
  5
56
100
AcDbSymbolTableRecord
100
AcDbLayerTableRecord
  2
2502_7P
 70
        64
 62
        30
  6
CONTINUOUS
290
         1
370
         0
390
1D
  0
LAYER
  5
57
100
AcDbSymbolTableRecord
100
AcDbLayerTableRecord
  2
2502_7T
 70
        64
 62
        14
  6
CONTINUOUS
290
         1
370
         0
390
1D
  0
LAYER
  5
58
100
AcDbSymbolTableRecord
100
AcDbLayerTableRecord
  2
2502_9P
 70
        64
 62
        30
  6
CONTINUOUS
290
         1
370
         0
390
1D
  0
LAYER
  5
59
100
AcDbSymbolTableRecord
100
AcDbLayerTableRecord
  2
2502_1P
 70
        64
 62
        30
  6
CONTINUOUS
290
         1
370
         0
390
1D
  0
LAYER
  5
5A
100
AcDbSymbolTableRecord
100
AcDbLayerTableRecord
  2
2502_8P
 70
        64
 62
        30
  6
CONTINUOUS
290
         1
370
         0
390
1D
  0
LAYER
  5
5B
100
AcDbSymbolTableRecord
100
AcDbLayerTableRecord
  2
2502_4L
 70
        64
 62
        30
  6
CONTINUOUS
290
         1
370
         0
390
1D
  0
LAYER
  5
5C
100
AcDbSymbolTableRecord
100
AcDbLayerTableRecord
  2
2502_4R
 70
        64
 62
        14
  6
CONTINUOUS
290
         1
370
         0
390
1D
  0
LAYER
  5
5D
100
AcDbSymbolTableRecord
100
AcDbLayerTableRecord
  2
2502_6T
 70
        64
 62
        14
  6
CONTINUOUS
290
         1
370
         0
390
1D
  0
LAYER
  5
5E
100
AcDbSymbolTableRecord
100
AcDbLayerTableRecord
  2
2502_6P
 70
        64
 62
        30
  6
CONTINUOUS
290
         1
370
         0
390
1D
  0
LAYER
  5
5F
100
AcDbSymbolTableRecord
100
AcDbLayerTableRecord
  2
2502_2T
 70
        64
 62
        14
  6
CONTINUOUS
290
         1
370
         0
390
1D
  0
LAYER
  5
60
100
AcDbSymbolTableRecord
100
AcDbLayerTableRecord
  2
2502_2P
 70
        64
 62
        30
  6
CONTINUOUS
290
         1
370
         0
390
1D
  0
LAYER
  5
61
100
AcDbSymbolTableRecord
100
AcDbLayerTableRecord
  2
2502___ UNTERZUG FÜR ZWEI ABTRIEBE
 70
        64
 62
         6
  6
DASHDOT
290
         1
370
         0
390
1D
  0
LAYER
  5
62
100
AcDbSymbolTableRecord
100
AcDbLayerTableRecord
  2
2503_6P
 70
        64
 62
        30
  6
CONTINUOUS
290
         1
370
         0
390
1D
  0
LAYER
  5
63
100
AcDbSymbolTableRecord
100
AcDbLayerTableRecord
  2
2503_6T
 70
        64
 62
        14
  6
CONTINUOUS
290
         1
370
         0
390
1D
  0
LAYER
  5
64
100
AcDbSymbolTableRecord
100
AcDbLayerTableRecord
  2
2503_4P
 70
        64
 62
        30
  6
CONTINUOUS
290
         1
370
         0
390
1D
  0
LAYER
  5
65
100
AcDbSymbolTableRecord
100
AcDbLayerTableRecord
  2
2503_4T
 70
        64
 62
        14
  6
CONTINUOUS
290
         1
370
         0
390
1D
  0
LAYER
  5
66
100
AcDbSymbolTableRecord
100
AcDbLayerTableRecord
  2
2503_2P
 70
        64
 62
        30
  6
CONTINUOUS
290
         1
370
         0
390
1D
  0
LAYER
  5
67
100
AcDbSymbolTableRecord
100
AcDbLayerTableRecord
  2
2503_8P
 70
        64
 62
        30
  6
CONTINUOUS
290
         1
370
         0
390
1D
  0
LAYER
  5
68
100
AcDbSymbolTableRecord
100
AcDbLayerTableRecord
  2
2503_3T
 70
        64
 62
        14
  6
CONTINUOUS
290
         1
370
         0
390
1D
  0
LAYER
  5
69
100
AcDbSymbolTableRecord
100
AcDbLayerTableRecord
  2
2503_3P
 70
        64
 62
        30
  6
CONTINUOUS
290
         1
370
         0
390
1D
  0
LAYER
  5
6A
100
AcDbSymbolTableRecord
100
AcDbLayerTableRecord
  2
2503_1T
 70
        64
 62
        14
  6
CONTINUOUS
290
         1
370
         0
390
1D
  0
LAYER
  5
6B
100
AcDbSymbolTableRecord
100
AcDbLayerTableRecord
  2
2503_1P
 70
        64
 62
        30
  6
CONTINUOUS
290
         1
370
         0
390
1D
  0
LAYER
  5
6C
100
AcDbSymbolTableRecord
100
AcDbLayerTableRecord
  2
2503_5P
 70
        64
 62
        30
  6
CONTINUOUS
290
         1
370
         0
390
1D
  0
LAYER
  5
6D
100
AcDbSymbolTableRecord
100
AcDbLayerTableRecord
  2
2503_5T
 70
        64
 62
        14
  6
CONTINUOUS
290
         1
370
         0
390
1D
  0
LAYER
  5
6E
100
AcDbSymbolTableRecord
100
AcDbLayerTableRecord
  2
2503_7P
 70
        64
 62
        30
  6
CONTINUOUS
290
         1
370
         0
390
1D
  0
LAYER
  5
6F
100
AcDbSymbolTableRecord
100
AcDbLayerTableRecord
  2
2503_7T
 70
        64
 62
        14
  6
CONTINUOUS
290
         1
370
         0
390
1D
  0
LAYER
  5
70
100
AcDbSymbolTableRecord
100
AcDbLayerTableRecord
  2
2503___ UNTERZUG FÜR DREISTELLIGEN ANTRIEB
 70
        64
 62
         6
  6
DASHDOT
290
         1
370
         0
390
1D
  0
LAYER
  5
71
100
AcDbSymbolTableRecord
100
AcDbLayerTableRecord
  2
PFADE
 70
        64
 62
        30
  6
CONTINUOUS
290
         1
370
         0
390
1D
  0
LAYER
  5
72
100
AcDbSymbolTableRecord
100
AcDbLayerTableRecord
  2
 2001_2 BODEN
 70
        64
 62
        14
  6
CONTINUOUS
290
         1
370
        18
390
1D
  0
LAYER
  5
73
100
AcDbSymbolTableRecord
100
AcDbLayerTableRecord
  2
 2001_1 RAHMEN
 70
        64
 62
         7
  6
CONTINUOUS
290
         1
370
        18
390
1D
  0
LAYER
  5
74
100
AcDbSymbolTableRecord
100
AcDbLayerTableRecord
  2
2001__ GEBÄUDE
 70
        64
 62
         7
  6
CONTINUOUS
290
         1
370
         0
390
1D
  0
LAYER
  5
75
100
AcDbSymbolTableRecord
100
AcDbLayerTableRecord
  2
2101__ HEBELBANK
 70
        64
 62
         9
  6
CONTINUOUS
290
         1
370
        18
390
1D
  0
LAYER
  5
76
100
AcDbSymbolTableRecord
100
AcDbLayerTableRecord
  2
2501_1 UNTERZUGRAHMEN
 70
        64
 62
         7
  6
CONTINUOUS
290
         1
370
         0
390
1D
  0
LAYER
  5
77
100
AcDbSymbolTableRecord
100
AcDbLayerTableRecord
  2
2501_2-4 ROLLEN UMGELEGT
 70
        64
 62
       134
  6
DASHED
290
         1
370
        18
390
1D
  0
LAYER
  5
78
100
AcDbSymbolTableRecord
100
AcDbLayerTableRecord
  2
2501_2-4 ROLLEN
 70
        64
 62
       134
  6
CONTINUOUS
290
         1
370
        18
390
1D
  0
LAYER
  5
79
100
AcDbSymbolTableRecord
100
AcDbLayerTableRecord
  2
2501_5 SCHIEBER VERSCHOBEN
 70
        64
 62
       142
  6
DASHED
290
         1
370
        18
390
1D
  0
LAYER
  5
7A
100
AcDbSymbolTableRecord
100
AcDbLayerTableRecord
  2
2501_5 SCHIEBER
 70
        64
 62
       142
  6
CONTINUOUS
290
         1
370
        18
390
1D
  0
LAYER
  5
7B
100
AcDbSymbolTableRecord
100
AcDbLayerTableRecord
  2
2501_10 SCHALTER LINKS_OBEN
 70
        64
 62
       230
  6
DASHED
290
         1
370
        18
390
1D
  0
LAYER
  5
7C
100
AcDbSymbolTableRecord
100
AcDbLayerTableRecord
  2
2501_10 SCHALTER
 70
        64
 62
       230
  6
CONTINUOUS
290
         1
370
        18
390
1D
  0
LAYER
  5
7D
100
AcDbSymbolTableRecord
100
AcDbLayerTableRecord
  2
2501_6 HEBEL 0_0_22_5 UMGELEGT LI
 70
        64
 62
        30
  6
DASHED
290
         1
370
        18
390
1D
  0
LAYER
  5
7E
100
AcDbSymbolTableRecord
100
AcDbLayerTableRecord
  2
2501_6 HEBEL 0_0_22_5 UMGELEGT RE
 70
        64
 62
        30
  6
DASHDOT
290
         1
370
        18
390
1D
  0
LAYER
  5
7F
100
AcDbSymbolTableRecord
100
AcDbLayerTableRecord
  2
2501_6 HEBEL 0_0_22_5
 70
        64
 62
        11
  6
CONTINUOUS
290
         1
370
        18
390
1D
  0
LAYER
  5
80
100
AcDbSymbolTableRecord
100
AcDbLayerTableRecord
  2
2501_7 HEBEL 22_5_0_22_5 UMGELEGT LI
 70
        64
 62
        34
  6
DASHED
290
         1
370
        18
390
1D
  0
LAYER
  5
81
100
AcDbSymbolTableRecord
100
AcDbLayerTableRecord
  2
2501_7 HEBEL 22_5_0_22_5 UMGELEGT RE
 70
        64
 62
        14
  6
DASHDOT
290
         1
370
        18
390
1D
  0
LAYER
  5
82
100
AcDbSymbolTableRecord
100
AcDbLayerTableRecord
  2
2501_7 HEBEL 22_5_0_22_5
 70
        64
 62
        14
  6
CONTINUOUS
290
         1
370
        18
390
1D
  0
LAYER
  5
83
100
AcDbSymbolTableRecord
100
AcDbLayerTableRecord
  2
2501_8 HEBEL 22_5_0_0 UMGELEGT LI
 70
        64
 62
        30
  6
DASHED
290
         1
370
        18
390
1D
  0
LAYER
  5
84
100
AcDbSymbolTableRecord
100
AcDbLayerTableRecord
  2
2501_8 HEBEL 22_5_0_0 UMGELEGT RE
 70
        64
 62
        30
  6
DASHDOT
290
         1
370
        18
390
1D
  0
LAYER
  5
85
100
AcDbSymbolTableRecord
100
AcDbLayerTableRecord
  2
2501_8 HEBEL 22_5_0_0
 70
        64
 62
       230
  6
CONTINUOUS
290
         1
370
        18
390
1D
  0
LAYER
  5
86
100
AcDbSymbolTableRecord
100
AcDbLayerTableRecord
  2
2501_9 HEBEL 22_5_0_-22_5 UMGELEGT LI0
 70
        64
 62
        34
  6
DASHED
290
         1
370
        18
390
1D
  0
LAYER
  5
87
100
AcDbSymbolTableRecord
100
AcDbLayerTableRecord
  2
2501_9 HEBEL 22_5_0_-22_5 UMGELEGT RE0
 70
        64
 62
        14
  6
DASHDOT
290
         1
370
        18
390
1D
  0
LAYER
  5
88
100
AcDbSymbolTableRecord
100
AcDbLayerTableRecord
  2
2501_9 HEBEL 22_5_0_-22_5
 70
        64
 62
       190
  6
CONTINUOUS
290
         1
370
        18
390
1D
  0
LAYER
  5
89
100
AcDbSymbolTableRecord
100
AcDbLayerTableRecord
  2
2501__ UNTERZUG
 70
        64
 62
         9
  6
CONTINUOUS
290
         1
370
        18
390
1D
  0
LAYER
  5
8A
100
AcDbSymbolTableRecord
100
AcDbLayerTableRecord
  2
KONSTRUKTION
 70
        64
 62
         7
  6
CONTINUOUS
290
         1
370
         0
390
1D
  0
LAYER
  5
8B
100
AcDbSymbolTableRecord
100
AcDbLayerTableRecord
  2
STANDARD
 70
        64
 62
         7
  6
CONTINUOUS
290
         1
370
         0
390
1D
  0
ENDTAB
  0
TABLE
  2
STYLE
  5
3
100
AcDbSymbolTable
 70
         7
  0
STYLE
  5
17
100
AcDbSymbolTableRecord
100
AcDbTextStyleTableRecord
  2
Standard
 70
         0
 40
0.0
 41
1.0
 50
0.0
 71
         0
 42
0.0
  3
txt
  4

  0
STYLE
  5
2D
100
AcDbSymbolTableRecord
100
AcDbTextStyleTableRecord
  2
CADdy
 70
         0
 40
0.0
 41
1.0
 50
0.0
 71
         0
 42
3.5
  3
txt.shx
  4

  0
STYLE
  5
2E
100
AcDbSymbolTableRecord
100
AcDbTextStyleTableRecord
  2
Arial
 70
         0
 40
0.0
 41
1.0
 50
0.0
 71
         0
 42
3.5
  3
arial.ttf
  4

1001
ACAD
1000
Arial
1071
       34
  0
STYLE
  5
2F
100
AcDbSymbolTableRecord
100
AcDbTextStyleTableRecord
  2
Isonorm
 70
         0
 40
0.0
 41
1.0
 50
0.0
 71
         0
 42
3.5
  3
txt.shx
  4

  0
STYLE
  5
30
100
AcDbSymbolTableRecord
100
AcDbTextStyleTableRecord
  2
Tahoma
 70
         0
 40
0.0
 41
1.0
 50
0.0
 71
         0
 42
3.5
  3
tahoma.ttf
  4

1001
ACAD
1000
Tahoma
1071
       34
  0
STYLE
  5
31
100
AcDbSymbolTableRecord
100
AcDbTextStyleTableRecord
  2
Microsoft Sans Serif
 70
         0
 40
0.0
 41
1.0
 50
0.0
 71
         0
 42
3.5
  3
micross.ttf
  4

1001
ACAD
1000
Microsoft Sans Serif
1071
       34
  0
STYLE
  5
32
100
AcDbSymbolTableRecord
100
AcDbTextStyleTableRecord
  2
Arial Rounded MT Bold
 70
         0
 40
0.0
 41
1.0
 50
0.0
 71
         0
 42
3.5
  3
txt.shx
  4

  0
ENDTAB
  0
TABLE
  2
VIEW
  5
5
100
AcDbSymbolTable
 70
         0
  0
ENDTAB
  0
TABLE
  2
UCS
  5
6
100
AcDbSymbolTable
 70
         0
  0
ENDTAB
  0
TABLE
  2
APPID
  5
8
100
AcDbSymbolTable
 70
         1
  0
APPID
  5
16
100
AcDbSymbolTableRecord
100
AcDbRegAppTableRecord
  2
ACAD
 70
        64
  0
ENDTAB
  0
TABLE
  2
DIMSTYLE
  5
9
100
AcDbSymbolTable
 70
         1
100
AcDbDimStyleTable
 71
         0
  0
DIMSTYLE
105
18
100
AcDbSymbolTableRecord
100
AcDbDimStyleTableRecord
  2
Standard
 70
         0
  3

  4

 40
1.0
 41
0.18
 42
0.0625
 43
0.38
 44
0.18
 45
0.0
 46
0.0
 47
0.0
 48
0.0
 71
         0
 72
         0
 73
         1
 74
         1
 75
         0
 76
         0
 77
         0
 78
         0
 79
         0
140
0.18
141
0.09
142
0.0
143
25.4
144
1.0
145
0.0
146
1.0
147
0.09
148
0.0
170
         0
171
         2
172
         0
173
         0
174
         0
175
         0
176
         0
177
         0
178
         0
179
         0
271
         4
272
         4
273
         2
274
         2
275
         0
276
         0
277
         2
278
        46
279
         0
280
         0
281
         0
282
         0
283
         1
284
         0
285
         0
286
         0
288
         0
289
         3
340
17
341
0
342
0
343
0
344
0
371
        -2
372
        -2
  0
ENDTAB
  0
TABLE
  2
BLOCK_RECORD
  5
1
100
AcDbSymbolTable
 70
         1
  0
BLOCK_RECORD
  5
A
100
AcDbSymbolTableRecord
100
AcDbBlockTableRecord
  2
*MODEL_SPACE
340
20
  0
BLOCK_RECORD
  5
B
100
AcDbSymbolTableRecord
100
AcDbBlockTableRecord
  2
*PAPER_SPACE
340
21
  0
BLOCK_RECORD
  5
8C
100
AcDbSymbolTableRecord
100
AcDbBlockTableRecord
  2
D343177472
340
0
102
{BLKREFS
331
19D
102
}
  0
ENDTAB
  0
ENDSEC
  0
SECTION
  2
BLOCKS
  0
BLOCK
  5
D
100
AcDbEntity
  8
0
390
0
100
AcDbBlockBegin
  2
*MODEL_SPACE
 70
         0
 10
0.0
 20
0.0
 30
0.0
  3
*MODEL_SPACE
  1

  0
ENDBLK
  5
E
100
AcDbEntity
  8
0
390
0
100
AcDbBlockEnd
  0
BLOCK
  5
F
100
AcDbEntity
 67
         1
  8
0
390
0
100
AcDbBlockBegin
  2
*PAPER_SPACE
 70
         0
 10
0.0
 20
0.0
 30
0.0
  3
*PAPER_SPACE
  1

  0
ENDBLK
  5
10
100
AcDbEntity
 67
         1
  8
0
390
0
100
AcDbBlockEnd
  0
BLOCK
  5
8D
100
AcDbEntity
  8
BEMASSUNG
390
0
100
AcDbBlockBegin
  2
D343177472
 70
         0
 10
0.0
 20
0.0
 30
0.0
  3
D343177472
  1

  0
LINE
  5
8E
100
AcDbEntity
  8
MASSLINIEN
390
0
 62
       172
100
AcDbLine
 10
80.2827014699
 20
194.6407192888
 30
0.0
 11
92.2826365417
 21
194.6407192888
 31
0.0
  0
LINE
  5
8F
100
AcDbEntity
  8
MASSLINIEN
390
0
 62
       172
100
AcDbLine
 10
80.2827014699
 20
189.6323041083
 30
0.0
 11
80.2827014699
 21
196.6407192888
 31
0.0
  0
LINE
  5
90
100
AcDbEntity
  8
MASSLINIEN
390
0
 62
       172
100
AcDbLine
 10
92.2826365417
 20
188.9746772041
 30
0.0
 11
92.2826365417
 21
196.6407192888
 31
0.0
  0
SOLID
  5
91
100
AcDbEntity
  8
MASSGRENZEN
390
0
100
AcDbTrace
 10
80.2827014699
 20
194.6407192888
 30
0.0
 11
83.257036054
 21
195.0322978655
 31
0.0
 12
83.257036054
 22
194.2491407121
 32
0.0
 13
83.257036054
 23
194.2491407121
 33
0.0
  0
SOLID
  5
92
100
AcDbEntity
  8
MASSGRENZEN
390
0
100
AcDbTrace
 10
92.2826365417
 20
194.6407192888
 30
0.0
 11
89.3083019576
 21
194.2491407121
 31
0.0
 12
89.3083019576
 22
195.0322978655
 32
0.0
 13
89.3083019576
 23
195.0322978655
 33
0.0
  0
MTEXT
  5
93
100
AcDbEntity
  8
MASSTEXTE
390
0
 62
       212
100
AcDbMText
 10
86.2826690058
 20
197.0967192888
 30
0.0
 40
2.0
 41
0.0
 71
         5
 72
         1
  1
\W1.135145;\A1;12
  7
Arial
 73
         0
 44
0.0
  0
ENDBLK
  5
94
100
AcDbEntity
  8
0
390
0
100
AcDbBlockEnd
  0
ENDSEC
  0
SECTION
  2
ENTITIES
  0
TEXT
  5
95
100
AcDbEntity
  8
BESCHRIFTUNG
390
0
100
AcDbText
 10
129.6929117117
 20
7.2230888889
 30
0.0
 40
3.0
  1
2502 Kv Abtrieb für zwei Anlenkungen
 41
0.9728110805
  7
Arial
 11
129.6929117117
 21
10.2230888889
 31
0.0
100
AcDbText
 73
         3
  0
TEXT
  5
96
100
AcDbEntity
  8
BESCHRIFTUNG
390
0
100
AcDbText
 10
129.6929117117
 20
29.3230888889
 30
0.0
 40
3.3
  1
2026-05-08
 41
1.0318365856
  7
Arial
 11
129.6929117117
 21
32.6230888889
 31
0.0
100
AcDbText
 73
         3
  0
CIRCLE
  5
97
100
AcDbEntity
  8
UNSICHTBARE
390
0
100
AcDbCircle
 10
70.5016728204
 20
167.906472893
 30
0.0
 40
2.75
  0
LINE
  5
98
100
AcDbEntity
  8
MITTELLINIEN
390
0
100
AcDbLine
 10
70.5016728204
 20
175.656472893
 30
0.0
 11
70.5016728204
 21
160.156472893
 31
0.0
  0
LINE
  5
99
100
AcDbEntity
  8
MITTELLINIEN
390
0
100
AcDbLine
 10
78.2516728204
 20
167.906472893
 30
0.0
 11
62.7516728204
 21
167.906472893
 31
0.0
  0
LINE
  5
9A
100
AcDbEntity
  8
UNSICHTBARE
390
0
100
AcDbLine
 10
72.7290591812
 20
166.2447719572
 30
0.0
 11
68.8813325797
 21
170.0924985587
 31
0.0
  0
LINE
  5
9B
100
AcDbEntity
  8
UNSICHTBARE
390
0
100
AcDbLine
 10
72.1633735654
 20
165.679086788
 30
0.0
 11
68.3156469639
 21
169.5268133895
 31
0.0
  0
LINE
  5
9C
100
AcDbEntity
  8
UNSICHTBARE
390
0
100
AcDbLine
 10
173.2588886969
 20
141.7937641746
 30
0.0
 11
175.1588886969
 21
141.7937641746
 31
0.0
  0
LINE
  5
9D
100
AcDbEntity
  8
UNSICHTBARE
390
0
100
AcDbLine
 10
173.2588886969
 20
147.2937641746
 30
0.0
 11
175.1588886969
 21
147.2937641746
 31
0.0
  0
LINE
  5
9E
100
AcDbEntity
  8
MITTELLINIEN
390
0
100
AcDbLine
 10
180.2588886969
 20
144.5437641746
 30
0.0
 11
163.2588886969
 21
144.5437641746
 31
0.0
  0
LINE
  5
9F
100
AcDbEntity
  8
UNSICHTBARE
390
0
100
AcDbLine
 10
173.2588886969
 20
147.2937641746
 30
0.0
 11
173.2588886969
 21
141.7937641746
 31
0.0
  0
LINE
  5
A0
100
AcDbEntity
  8
UNSICHTBARE
390
0
100
AcDbLine
 10
175.2588886969
 20
141.8937641746
 30
0.0
 11
175.2588886969
 21
144.1437641746
 31
0.0
  0
LINE
  5
A1
100
AcDbEntity
  8
UNSICHTBARE
390
0
100
AcDbLine
 10
175.2588886969
 20
147.1937641746
 30
0.0
 11
175.2588886969
 21
144.9437641746
 31
0.0
  0
ARC
  5
A2
100
AcDbEntity
  8
UNSICHTBARE
390
0
100
AcDbCircle
 10
175.1588886969
 20
141.8937641746
 30
0.0
 40
0.1
100
AcDbArc
 50
270.0
 51
360.0
  0
ARC
  5
A3
100
AcDbEntity
  8
UNSICHTBARE
390
0
100
AcDbCircle
 10
175.1588886969
 20
147.1937641746
 30
0.0
 40
0.1
100
AcDbArc
 50
360.0
 51
450.0
  0
LINE
  5
A4
100
AcDbEntity
  8
UNSICHTBARE
390
0
100
AcDbLine
 10
175.2588886969
 20
144.9437641746
 30
0.0
 11
174.4088886969
 21
144.9437641746
 31
0.0
  0
LINE
  5
A5
100
AcDbEntity
  8
UNSICHTBARE
390
0
100
AcDbLine
 10
175.2588886969
 20
144.1437641746
 30
0.0
 11
174.4088886969
 21
144.1437641746
 31
0.0
  0
LINE
  5
A6
100
AcDbEntity
  8
UNSICHTBARE
390
0
100
AcDbLine
 10
174.4088886969
 20
144.1437641746
 30
0.0
 11
174.4088886969
 21
144.9437641746
 31
0.0
  0
LINE
  5
A7
100
AcDbEntity
  8
UNSICHTBARE
390
0
100
AcDbLine
 10
173.2588886969
 20
143.0437641746
 30
0.0
 11
168.5656236969
 21
143.0437641746
 31
0.0
  0
LINE
  5
A8
100
AcDbEntity
  8
UNSICHTBARE
390
0
100
AcDbLine
 10
171.7588886969
 20
143.3504991746
 30
0.0
 11
168.2588886969
 21
143.3504991746
 31
0.0
  0
LINE
  5
A9
100
AcDbEntity
  8
UNSICHTBARE
390
0
100
AcDbLine
 10
171.7588886969
 20
145.7370291746
 30
0.0
 11
168.2588886969
 21
145.7370291746
 31
0.0
  0
LINE
  5
AA
100
AcDbEntity
  8
UNSICHTBARE
390
0
100
AcDbLine
 10
173.2588886969
 20
146.0437641746
 30
0.0
 11
168.5656236969
 21
146.0437641746
 31
0.0
  0
LINE
  5
AB
100
AcDbEntity
  8
UNSICHTBARE
390
0
100
AcDbLine
 10
171.7588886969
 20
143.0437641746
 30
0.0
 11
171.7588886969
 21
146.0437641746
 31
0.0
  0
LINE
  5
AC
100
AcDbEntity
  8
UNSICHTBARE
390
0
100
AcDbLine
 10
168.2588886969
 20
143.3504991746
 30
0.0
 11
168.2588886969
 21
145.7370291746
 31
0.0
  0
LINE
  5
AD
100
AcDbEntity
  8
UNSICHTBARE
390
0
100
AcDbLine
 10
168.5656236969
 20
143.0437641746
 30
0.0
 11
168.5656236969
 21
146.0437641746
 31
0.0
  0
LINE
  5
AE
100
AcDbEntity
  8
UNSICHTBARE
390
0
100
AcDbLine
 10
168.5656236969
 20
143.0437641746
 30
0.0
 11
168.2588886969
 21
143.3504991746
 31
0.0
  0
LINE
  5
AF
100
AcDbEntity
  8
UNSICHTBARE
390
0
100
AcDbLine
 10
168.5656236969
 20
146.0437641746
 30
0.0
 11
168.2588886969
 21
145.7370291746
 31
0.0
  0
LINE
  5
B0
100
AcDbEntity
  8
UNSICHTBARE
390
0
100
AcDbLine
 10
173.2588886969
 20
155.6574005382
 30
0.0
 11
175.1588886969
 21
155.6574005382
 31
0.0
  0
LINE
  5
B1
100
AcDbEntity
  8
UNSICHTBARE
390
0
100
AcDbLine
 10
173.2588886969
 20
161.1574005382
 30
0.0
 11
175.1588886969
 21
161.1574005382
 31
0.0
  0
LINE
  5
B2
100
AcDbEntity
  8
MITTELLINIEN
390
0
100
AcDbLine
 10
180.2588886969
 20
158.4074005382
 30
0.0
 11
163.2588886969
 21
158.4074005382
 31
0.0
  0
LINE
  5
B3
100
AcDbEntity
  8
UNSICHTBARE
390
0
100
AcDbLine
 10
173.2588886969
 20
161.1574005382
 30
0.0
 11
173.2588886969
 21
155.6574005382
 31
0.0
  0
LINE
  5
B4
100
AcDbEntity
  8
UNSICHTBARE
390
0
100
AcDbLine
 10
175.2588886969
 20
155.7574005382
 30
0.0
 11
175.2588886969
 21
158.0074005382
 31
0.0
  0
LINE
  5
B5
100
AcDbEntity
  8
UNSICHTBARE
390
0
100
AcDbLine
 10
175.2588886969
 20
161.0574005382
 30
0.0
 11
175.2588886969
 21
158.8074005382
 31
0.0
  0
ARC
  5
B6
100
AcDbEntity
  8
UNSICHTBARE
390
0
100
AcDbCircle
 10
175.1588886969
 20
155.7574005382
 30
0.0
 40
0.1
100
AcDbArc
 50
270.0
 51
360.0
  0
ARC
  5
B7
100
AcDbEntity
  8
UNSICHTBARE
390
0
100
AcDbCircle
 10
175.1588886969
 20
161.0574005382
 30
0.0
 40
0.1
100
AcDbArc
 50
0.0
 51
90.0
  0
LINE
  5
B8
100
AcDbEntity
  8
UNSICHTBARE
390
0
100
AcDbLine
 10
175.2588886969
 20
158.8074005382
 30
0.0
 11
174.4088886969
 21
158.8074005382
 31
0.0
  0
LINE
  5
B9
100
AcDbEntity
  8
UNSICHTBARE
390
0
100
AcDbLine
 10
175.2588886969
 20
158.0074005382
 30
0.0
 11
174.4088886969
 21
158.0074005382
 31
0.0
  0
LINE
  5
BA
100
AcDbEntity
  8
UNSICHTBARE
390
0
100
AcDbLine
 10
174.4088886969
 20
158.0074005382
 30
0.0
 11
174.4088886969
 21
158.8074005382
 31
0.0
  0
LINE
  5
BB
100
AcDbEntity
  8
UNSICHTBARE
390
0
100
AcDbLine
 10
173.2588886969
 20
156.9074005382
 30
0.0
 11
168.5656236969
 21
156.9074005382
 31
0.0
  0
LINE
  5
BC
100
AcDbEntity
  8
UNSICHTBARE
390
0
100
AcDbLine
 10
171.7588886969
 20
157.2141355382
 30
0.0
 11
168.2588886969
 21
157.2141355382
 31
0.0
  0
LINE
  5
BD
100
AcDbEntity
  8
UNSICHTBARE
390
0
100
AcDbLine
 10
171.7588886969
 20
159.6006655382
 30
0.0
 11
168.2588886969
 21
159.6006655382
 31
0.0
  0
LINE
  5
BE
100
AcDbEntity
  8
UNSICHTBARE
390
0
100
AcDbLine
 10
173.2588886969
 20
159.9074005382
 30
0.0
 11
168.5656236969
 21
159.9074005382
 31
0.0
  0
LINE
  5
BF
100
AcDbEntity
  8
UNSICHTBARE
390
0
100
AcDbLine
 10
171.7588886969
 20
156.9074005382
 30
0.0
 11
171.7588886969
 21
159.9074005382
 31
0.0
  0
LINE
  5
C0
100
AcDbEntity
  8
UNSICHTBARE
390
0
100
AcDbLine
 10
168.2588886969
 20
157.2141355382
 30
0.0
 11
168.2588886969
 21
159.6006655382
 31
0.0
  0
LINE
  5
C1
100
AcDbEntity
  8
UNSICHTBARE
390
0
100
AcDbLine
 10
168.5656236969
 20
156.9074005382
 30
0.0
 11
168.5656236969
 21
159.9074005382
 31
0.0
  0
LINE
  5
C2
100
AcDbEntity
  8
UNSICHTBARE
390
0
100
AcDbLine
 10
168.5656236969
 20
156.9074005382
 30
0.0
 11
168.2588886969
 21
157.2141355382
 31
0.0
  0
LINE
  5
C3
100
AcDbEntity
  8
UNSICHTBARE
390
0
100
AcDbLine
 10
168.5656236969
 20
159.9074005382
 30
0.0
 11
168.2588886969
 21
159.6006655382
 31
0.0
  0
LINE
  5
C4
100
AcDbEntity
  8
UNSICHTBARE
390
0
100
AcDbLine
 10
123.7366836704
 20
150.4074005382
 30
0.0
 11
123.7366836704
 21
148.5074005382
 31
0.0
  0
LINE
  5
C5
100
AcDbEntity
  8
UNSICHTBARE
390
0
100
AcDbLine
 10
129.2366836704
 20
150.4074005382
 30
0.0
 11
129.2366836704
 21
148.5074005382
 31
0.0
  0
LINE
  5
C6
100
AcDbEntity
  8
MITTELLINIEN
390
0
100
AcDbLine
 10
126.4866836704
 20
143.4074005382
 30
0.0
 11
126.4866836704
 21
160.4074005382
 31
0.0
  0
LINE
  5
C7
100
AcDbEntity
  8
UNSICHTBARE
390
0
100
AcDbLine
 10
129.2366836704
 20
150.4074005382
 30
0.0
 11
123.7366836704
 21
150.4074005382
 31
0.0
  0
LINE
  5
C8
100
AcDbEntity
  8
UNSICHTBARE
390
0
100
AcDbLine
 10
123.8366836704
 20
148.4074005382
 30
0.0
 11
126.0866836704
 21
148.4074005382
 31
0.0
  0
LINE
  5
C9
100
AcDbEntity
  8
UNSICHTBARE
390
0
100
AcDbLine
 10
129.1366836704
 20
148.4074005382
 30
0.0
 11
126.8866836704
 21
148.4074005382
 31
0.0
  0
ARC
  5
CA
100
AcDbEntity
  8
UNSICHTBARE
390
0
100
AcDbCircle
 10
123.8366836704
 20
148.5074005382
 30
0.0
 40
0.1
100
AcDbArc
 50
180.0
 51
270.0
  0
ARC
  5
CB
100
AcDbEntity
  8
UNSICHTBARE
390
0
100
AcDbCircle
 10
129.1366836704
 20
148.5074005382
 30
0.0
 40
0.1
100
AcDbArc
 50
270.0
 51
360.0
  0
LINE
  5
CC
100
AcDbEntity
  8
UNSICHTBARE
390
0
100
AcDbLine
 10
126.8866836704
 20
148.4074005382
 30
0.0
 11
126.8866836704
 21
149.2574005382
 31
0.0
  0
LINE
  5
CD
100
AcDbEntity
  8
UNSICHTBARE
390
0
100
AcDbLine
 10
126.0866836704
 20
148.4074005382
 30
0.0
 11
126.0866836704
 21
149.2574005382
 31
0.0
  0
LINE
  5
CE
100
AcDbEntity
  8
UNSICHTBARE
390
0
100
AcDbLine
 10
126.0866836704
 20
149.2574005382
 30
0.0
 11
126.8866836704
 21
149.2574005382
 31
0.0
  0
LINE
  5
CF
100
AcDbEntity
  8
UNSICHTBARE
390
0
100
AcDbLine
 10
124.9866836704
 20
150.4074005382
 30
0.0
 11
124.9866836704
 21
155.1006655382
 31
0.0
  0
LINE
  5
D0
100
AcDbEntity
  8
UNSICHTBARE
390
0
100
AcDbLine
 10
125.2934186704
 20
151.9074005382
 30
0.0
 11
125.2934186704
 21
155.4074005382
 31
0.0
  0
LINE
  5
D1
100
AcDbEntity
  8
UNSICHTBARE
390
0
100
AcDbLine
 10
127.6799486704
 20
151.9074005382
 30
0.0
 11
127.6799486704
 21
155.4074005382
 31
0.0
  0
LINE
  5
D2
100
AcDbEntity
  8
UNSICHTBARE
390
0
100
AcDbLine
 10
127.9866836704
 20
150.4074005382
 30
0.0
 11
127.9866836704
 21
155.1006655382
 31
0.0
  0
LINE
  5
D3
100
AcDbEntity
  8
UNSICHTBARE
390
0
100
AcDbLine
 10
124.9866836704
 20
151.9074005382
 30
0.0
 11
127.9866836704
 21
151.9074005382
 31
0.0
  0
LINE
  5
D4
100
AcDbEntity
  8
UNSICHTBARE
390
0
100
AcDbLine
 10
125.2934186704
 20
155.4074005382
 30
0.0
 11
127.6799486704
 21
155.4074005382
 31
0.0
  0
LINE
  5
D5
100
AcDbEntity
  8
UNSICHTBARE
390
0
100
AcDbLine
 10
124.9866836704
 20
155.1006655382
 30
0.0
 11
127.9866836704
 21
155.1006655382
 31
0.0
  0
LINE
  5
D6
100
AcDbEntity
  8
UNSICHTBARE
390
0
100
AcDbLine
 10
124.9866836704
 20
155.1006655382
 30
0.0
 11
125.2934186704
 21
155.4074005382
 31
0.0
  0
LINE
  5
D7
100
AcDbEntity
  8
UNSICHTBARE
390
0
100
AcDbLine
 10
127.9866836704
 20
155.1006655382
 30
0.0
 11
127.6799486704
 21
155.4074005382
 31
0.0
  0
LINE
  5
D8
100
AcDbEntity
  8
UNSICHTBARE
390
0
100
AcDbLine
 10
27.7523685063
 20
150.4074005382
 30
0.0
 11
27.7523685063
 21
148.5074005382
 31
0.0
  0
LINE
  5
D9
100
AcDbEntity
  8
UNSICHTBARE
390
0
100
AcDbLine
 10
22.2523685063
 20
150.4074005382
 30
0.0
 11
22.2523685063
 21
148.5074005382
 31
0.0
  0
LINE
  5
DA
100
AcDbEntity
  8
MITTELLINIEN
390
0
100
AcDbLine
 10
25.0023685063
 20
143.4074005382
 30
0.0
 11
25.0023685063
 21
160.4074005382
 31
0.0
  0
LINE
  5
DB
100
AcDbEntity
  8
UNSICHTBARE
390
0
100
AcDbLine
 10
22.2523685063
 20
150.4074005382
 30
0.0
 11
27.7523685063
 21
150.4074005382
 31
0.0
  0
LINE
  5
DC
100
AcDbEntity
  8
UNSICHTBARE
390
0
100
AcDbLine
 10
27.6523685063
 20
148.4074005382
 30
0.0
 11
25.4023685063
 21
148.4074005382
 31
0.0
  0
LINE
  5
DD
100
AcDbEntity
  8
UNSICHTBARE
390
0
100
AcDbLine
 10
22.3523685063
 20
148.4074005382
 30
0.0
 11
24.6023685063
 21
148.4074005382
 31
0.0
  0
ARC
  5
DE
100
AcDbEntity
  8
UNSICHTBARE
390
0
100
AcDbCircle
 10
27.6523685063
 20
148.5074005382
 30
0.0
 40
0.1
100
AcDbArc
 50
270.0
 51
360.0
  0
ARC
  5
DF
100
AcDbEntity
  8
UNSICHTBARE
390
0
100
AcDbCircle
 10
22.3523685063
 20
148.5074005382
 30
0.0
 40
0.1
100
AcDbArc
 50
180.0
 51
270.0
  0
LINE
  5
E0
100
AcDbEntity
  8
UNSICHTBARE
390
0
100
AcDbLine
 10
24.6023685063
 20
148.4074005382
 30
0.0
 11
24.6023685063
 21
149.2574005382
 31
0.0
  0
LINE
  5
E1
100
AcDbEntity
  8
UNSICHTBARE
390
0
100
AcDbLine
 10
25.4023685063
 20
148.4074005382
 30
0.0
 11
25.4023685063
 21
149.2574005382
 31
0.0
  0
LINE
  5
E2
100
AcDbEntity
  8
UNSICHTBARE
390
0
100
AcDbLine
 10
25.4023685063
 20
149.2574005382
 30
0.0
 11
24.6023685063
 21
149.2574005382
 31
0.0
  0
LINE
  5
E3
100
AcDbEntity
  8
UNSICHTBARE
390
0
100
AcDbLine
 10
26.5023685063
 20
150.4074005382
 30
0.0
 11
26.5023685063
 21
155.1006655382
 31
0.0
  0
LINE
  5
E4
100
AcDbEntity
  8
UNSICHTBARE
390
0
100
AcDbLine
 10
26.1956335063
 20
151.9074005382
 30
0.0
 11
26.1956335063
 21
155.4074005382
 31
0.0
  0
LINE
  5
E5
100
AcDbEntity
  8
UNSICHTBARE
390
0
100
AcDbLine
 10
23.8091035063
 20
151.9074005382
 30
0.0
 11
23.8091035063
 21
155.4074005382
 31
0.0
  0
LINE
  5
E6
100
AcDbEntity
  8
UNSICHTBARE
390
0
100
AcDbLine
 10
23.5023685063
 20
150.4074005382
 30
0.0
 11
23.5023685063
 21
155.1006655382
 31
0.0
  0
LINE
  5
E7
100
AcDbEntity
  8
UNSICHTBARE
390
0
100
AcDbLine
 10
26.5023685063
 20
151.9074005382
 30
0.0
 11
23.5023685063
 21
151.9074005382
 31
0.0
  0
LINE
  5
E8
100
AcDbEntity
  8
UNSICHTBARE
390
0
100
AcDbLine
 10
26.1956335063
 20
155.4074005382
 30
0.0
 11
23.8091035063
 21
155.4074005382
 31
0.0
  0
LINE
  5
E9
100
AcDbEntity
  8
UNSICHTBARE
390
0
100
AcDbLine
 10
26.5023685063
 20
155.1006655382
 30
0.0
 11
23.5023685063
 21
155.1006655382
 31
0.0
  0
LINE
  5
EA
100
AcDbEntity
  8
UNSICHTBARE
390
0
100
AcDbLine
 10
26.5023685063
 20
155.1006655382
 30
0.0
 11
26.1956335063
 21
155.4074005382
 31
0.0
  0
LINE
  5
EB
100
AcDbEntity
  8
UNSICHTBARE
390
0
100
AcDbLine
 10
23.5023685063
 20
155.1006655382
 30
0.0
 11
23.8091035063
 21
155.4074005382
 31
0.0
  0
LINE
  5
EC
100
AcDbEntity
  8
UNSICHTBARE
390
0
100
AcDbLine
 10
144.7588886969
 20
150.4074005382
 30
0.0
 11
144.7588886969
 21
148.5074005382
 31
0.0
  0
LINE
  5
ED
100
AcDbEntity
  8
UNSICHTBARE
390
0
100
AcDbLine
 10
150.2588886969
 20
150.4074005382
 30
0.0
 11
150.2588886969
 21
148.5074005382
 31
0.0
  0
LINE
  5
EE
100
AcDbEntity
  8
MITTELLINIEN
390
0
100
AcDbLine
 10
147.5088886969
 20
143.4074005382
 30
0.0
 11
147.5088886969
 21
160.4074005382
 31
0.0
  0
LINE
  5
EF
100
AcDbEntity
  8
UNSICHTBARE
390
0
100
AcDbLine
 10
150.2588886969
 20
150.4074005382
 30
0.0
 11
144.7588886969
 21
150.4074005382
 31
0.0
  0
LINE
  5
F0
100
AcDbEntity
  8
UNSICHTBARE
390
0
100
AcDbLine
 10
144.8588886969
 20
148.4074005382
 30
0.0
 11
147.1088886969
 21
148.4074005382
 31
0.0
  0
LINE
  5
F1
100
AcDbEntity
  8
UNSICHTBARE
390
0
100
AcDbLine
 10
150.1588886969
 20
148.4074005382
 30
0.0
 11
147.9088886969
 21
148.4074005382
 31
0.0
  0
ARC
  5
F2
100
AcDbEntity
  8
UNSICHTBARE
390
0
100
AcDbCircle
 10
144.8588886969
 20
148.5074005382
 30
0.0
 40
0.1
100
AcDbArc
 50
180.0
 51
270.0
  0
ARC
  5
F3
100
AcDbEntity
  8
UNSICHTBARE
390
0
100
AcDbCircle
 10
150.1588886969
 20
148.5074005382
 30
0.0
 40
0.1
100
AcDbArc
 50
270.0
 51
360.0
  0
LINE
  5
F4
100
AcDbEntity
  8
UNSICHTBARE
390
0
100
AcDbLine
 10
147.9088886969
 20
148.4074005382
 30
0.0
 11
147.9088886969
 21
149.2574005382
 31
0.0
  0
LINE
  5
F5
100
AcDbEntity
  8
UNSICHTBARE
390
0
100
AcDbLine
 10
147.1088886969
 20
148.4074005382
 30
0.0
 11
147.1088886969
 21
149.2574005382
 31
0.0
  0
LINE
  5
F6
100
AcDbEntity
  8
UNSICHTBARE
390
0
100
AcDbLine
 10
147.1088886969
 20
149.2574005382
 30
0.0
 11
147.9088886969
 21
149.2574005382
 31
0.0
  0
LINE
  5
F7
100
AcDbEntity
  8
UNSICHTBARE
390
0
100
AcDbLine
 10
146.0088886969
 20
150.4074005382
 30
0.0
 11
146.0088886969
 21
155.1006655382
 31
0.0
  0
LINE
  5
F8
100
AcDbEntity
  8
UNSICHTBARE
390
0
100
AcDbLine
 10
146.3156236969
 20
151.9074005382
 30
0.0
 11
146.3156236969
 21
155.4074005382
 31
0.0
  0
LINE
  5
F9
100
AcDbEntity
  8
UNSICHTBARE
390
0
100
AcDbLine
 10
148.7021536969
 20
151.9074005382
 30
0.0
 11
148.7021536969
 21
155.4074005382
 31
0.0
  0
LINE
  5
FA
100
AcDbEntity
  8
UNSICHTBARE
390
0
100
AcDbLine
 10
149.0088886969
 20
150.4074005382
 30
0.0
 11
149.0088886969
 21
155.1006655382
 31
0.0
  0
LINE
  5
FB
100
AcDbEntity
  8
UNSICHTBARE
390
0
100
AcDbLine
 10
146.0088886969
 20
151.9074005382
 30
0.0
 11
149.0088886969
 21
151.9074005382
 31
0.0
  0
LINE
  5
FC
100
AcDbEntity
  8
UNSICHTBARE
390
0
100
AcDbLine
 10
146.3156236969
 20
155.4074005382
 30
0.0
 11
148.7021536969
 21
155.4074005382
 31
0.0
  0
LINE
  5
FD
100
AcDbEntity
  8
UNSICHTBARE
390
0
100
AcDbLine
 10
146.0088886969
 20
155.1006655382
 30
0.0
 11
149.0088886969
 21
155.1006655382
 31
0.0
  0
LINE
  5
FE
100
AcDbEntity
  8
UNSICHTBARE
390
0
100
AcDbLine
 10
146.0088886969
 20
155.1006655382
 30
0.0
 11
146.3156236969
 21
155.4074005382
 31
0.0
  0
LINE
  5
FF
100
AcDbEntity
  8
UNSICHTBARE
390
0
100
AcDbLine
 10
149.0088886969
 20
155.1006655382
 30
0.0
 11
148.7021536969
 21
155.4074005382
 31
0.0
  0
CIRCLE
  5
100
100
AcDbEntity
  8
UNSICHTBARE
390
0
100
AcDbCircle
 10
63.5695331561
 20
144.5437641746
 30
0.0
 40
2.75
  0
LINE
  5
101
100
AcDbEntity
  8
MITTELLINIEN
390
0
100
AcDbLine
 10
71.3190396441
 20
144.4563045157
 30
0.0
 11
55.820026668
 21
144.6312238335
 31
0.0
  0
LINE
  5
102
100
AcDbEntity
  8
MITTELLINIEN
390
0
100
AcDbLine
 10
63.4820734972
 20
136.7942576865
 30
0.0
 11
63.656992815
 21
152.2932706626
 31
0.0
  0
LINE
  5
103
100
AcDbEntity
  8
UNSICHTBARE
390
0
100
AcDbLine
 10
61.8828017194
 20
142.3352721414
 30
0.0
 11
65.7737053476
 21
146.1393316777
 31
0.0
  0
LINE
  5
104
100
AcDbEntity
  8
UNSICHTBARE
390
0
100
AcDbLine
 10
61.3235364009
 20
142.9073055584
 30
0.0
 11
65.2144400291
 21
146.7113650947
 31
0.0
  0
CIRCLE
  5
105
100
AcDbEntity
  8
UNSICHTBARE
390
0
100
AcDbCircle
 10
63.5695331561
 20
144.5437641746
 30
0.0
 40
3.5
  0
CIRCLE
  5
106
100
AcDbEntity
  8
UNSICHTBARE
390
0
100
AcDbCircle
 10
63.5695331561
 20
144.5437641746
 30
0.0
 40
1.6
  0
LINE
  5
107
100
AcDbEntity
  8
MITTELLINIEN
390
0
100
AcDbLine
 10
72.0695331561
 20
144.5437641746
 30
0.0
 11
55.0695331561
 21
144.5437641746
 31
0.0
  0
LINE
  5
108
100
AcDbEntity
  8
MITTELLINIEN
390
0
100
AcDbLine
 10
63.5695331561
 20
153.0437641746
 30
0.0
 11
63.5695331561
 21
136.0437641746
 31
0.0
  0
LINE
  5
109
100
AcDbEntity
  8
2501_2-4 ROLLEN
390
0
100
AcDbLine
 10
166.2588886969
 20
206.6815533421
 30
0.0
 11
166.2588886969
 21
207.6815533421
 31
0.0
  0
LINE
  5
10A
100
AcDbEntity
  8
2501_1 UNTERZUGRAHMEN
390
0
100
AcDbLine
 10
156.0088886969
 20
152.4074005382
 30
0.0
 11
156.0088886969
 21
167.4074005382
 31
0.0
  0
LINE
  5
10B
100
AcDbEntity
  8
2501_2-4 ROLLEN
390
0
100
AcDbLine
 10
168.2588886969
 20
188.7141355382
 30
0.0
 11
168.2588886969
 21
140.7141355382
 31
0.0
  0
LINE
  5
10C
100
AcDbEntity
  8
2501_2-4 ROLLEN
390
0
100
AcDbLine
 10
173.2588886969
 20
140.7141355382
 30
0.0
 11
173.2588886969
 21
188.7141355382
 31
0.0
  0
LINE
  5
10D
100
AcDbEntity
  8
2501_1 UNTERZUGRAHMEN
390
0
100
AcDbLine
 10
18.5023685063
 20
154.4074005382
 30
0.0
 11
132.9866836704
 21
154.4074005382
 31
0.0
  0
LINE
  5
10E
100
AcDbEntity
  8
2501_1 UNTERZUGRAHMEN
390
0
100
AcDbLine
 10
18.5023685063
 20
152.4074005382
 30
0.0
 11
132.9866836704
 21
152.4074005382
 31
0.0
  0
CIRCLE
  5
10F
100
AcDbEntity
  8
2501_2-4 ROLLEN
390
0
100
AcDbCircle
 10
58.5014022962
 20
164.4074005382
 30
0.0
 40
24.5
  0
CIRCLE
  5
110
100
AcDbEntity
  8
2501_2-4 ROLLEN
390
0
  6
DASHED
100
AcDbCircle
 10
58.5014022962
 20
164.4074005382
 30
0.0
 40
23.5
  0
CIRCLE
  5
111
100
AcDbEntity
  8
2501_2-4 ROLLEN
390
0
100
AcDbCircle
 10
58.5014022962
 20
164.4074005382
 30
0.0
 40
1.5
  0
CIRCLE
  5
112
100
AcDbEntity
  8
2501_2-4 ROLLEN
390
0
100
AcDbCircle
 10
58.5014022962
 20
142.4074005382
 30
0.0
 40
1.75
  0
CIRCLE
  5
113
100
AcDbEntity
  8
2501_2-4 ROLLEN
390
0
100
AcDbCircle
 10
63.5695331561
 20
144.5437641746
 30
0.0
 40
1.25
  0
LINE
  5
114
100
AcDbEntity
  8
2501_1 UNTERZUGRAHMEN
370
        18
390
0
100
AcDbLine
 10
154.0088886969
 20
154.4074005382
 30
0.0
 11
154.0088886969
 21
167.4074005382
 31
0.0
  0
LINE
  5
115
100
AcDbEntity
  8
2501_1 UNTERZUGRAHMEN
370
        18
390
0
100
AcDbLine
 10
156.0088886969
 20
167.4074005382
 30
0.0
 11
154.0088886969
 21
167.4074005382
 31
0.0
  0
LINE
  5
116
100
AcDbEntity
  8
2501_1 UNTERZUGRAHMEN
370
        18
390
0
100
AcDbLine
 10
154.0088886969
 20
154.4074005382
 30
0.0
 11
141.0088886969
 21
154.4074005382
 31
0.0
  0
LINE
  5
117
100
AcDbEntity
  8
2501_1 UNTERZUGRAHMEN
390
0
100
AcDbLine
 10
189.0088886969
 20
152.4074005382
 30
0.0
 11
189.0088886969
 21
167.4074005382
 31
0.0
  0
LINE
  5
118
100
AcDbEntity
  8
2501_1 UNTERZUGRAHMEN
370
        18
390
0
100
AcDbLine
 10
189.0088886969
 20
167.4074005382
 30
0.0
 11
187.0088886969
 21
167.4074005382
 31
0.0
  0
LINE
  5
119
100
AcDbEntity
  8
2501_1 UNTERZUGRAHMEN
370
        18
390
0
100
AcDbLine
 10
187.0088886969
 20
154.4074005382
 30
0.0
 11
174.0088886969
 21
154.4074005382
 31
0.0
  0
LINE
  5
11A
100
AcDbEntity
  8
2501_1 UNTERZUGRAHMEN
370
        18
390
0
100
AcDbLine
 10
174.0088886969
 20
152.4074005382
 30
0.0
 11
174.0088886969
 21
154.4074005382
 31
0.0
  0
LINE
  5
11B
100
AcDbEntity
  8
2501_1 UNTERZUGRAHMEN
390
0
100
AcDbLine
 10
174.0088886969
 20
152.4074005382
 30
0.0
 11
189.0088886969
 21
152.4074005382
 31
0.0
  0
LINE
  5
11C
100
AcDbEntity
  8
2501_1 UNTERZUGRAHMEN
390
0
100
AcDbLine
 10
18.5023685063
 20
167.4074005382
 30
0.0
 11
132.9966836704
 21
167.4074005382
 31
0.0
  0
LINE
  5
11D
100
AcDbEntity
  8
2501_1 UNTERZUGRAHMEN
390
0
100
AcDbLine
 10
16.5023685063
 20
150.4074005382
 30
0.0
 11
16.5023685063
 21
165.4074005382
 31
0.0
  0
LINE
  5
11E
100
AcDbEntity
  8
2501_1 UNTERZUGRAHMEN
370
        18
390
0
100
AcDbLine
 10
16.5023685063
 20
165.4074005382
 30
0.0
 11
18.5023685063
 21
165.4074005382
 31
0.0
  0
LINE
  5
11F
100
AcDbEntity
  8
2501_1 UNTERZUGRAHMEN
370
        18
390
0
100
AcDbLine
 10
18.5023685063
 20
152.4074005382
 30
0.0
 11
18.5023685063
 21
167.4074005382
 31
0.0
  0
LINE
  5
120
100
AcDbEntity
  8
2501_1 UNTERZUGRAHMEN
370
        18
390
0
100
AcDbLine
 10
31.5423685063
 20
150.4074005382
 30
0.0
 11
31.5423685063
 21
152.4074005382
 31
0.0
  0
LINE
  5
121
100
AcDbEntity
  8
2501_1 UNTERZUGRAHMEN
370
        18
390
0
100
AcDbLine
 10
134.9966836704
 20
150.4074005382
 30
0.0
 11
119.9966836704
 21
150.4074005382
 31
0.0
  0
LINE
  5
122
100
AcDbEntity
  8
2501_1 UNTERZUGRAHMEN
370
        18
390
0
100
AcDbLine
 10
119.9566836704
 20
150.4074005382
 30
0.0
 11
119.9566836704
 21
152.4074005382
 31
0.0
  0
LINE
  5
123
100
AcDbEntity
  8
2501_1 UNTERZUGRAHMEN
370
        18
390
0
100
AcDbLine
 10
132.9966836704
 20
152.4074005382
 30
0.0
 11
132.9966836704
 21
167.4074005382
 31
0.0
  0
LINE
  5
124
100
AcDbEntity
  8
2501_1 UNTERZUGRAHMEN
390
0
100
AcDbLine
 10
134.9966836704
 20
150.4074005382
 30
0.0
 11
134.9966836704
 21
165.4074005382
 31
0.0
  0
LINE
  5
125
100
AcDbEntity
  8
2501_1 UNTERZUGRAHMEN
390
0
100
AcDbLine
 10
134.9966836704
 20
165.4074005382
 30
0.0
 11
132.9966836704
 21
165.4074005382
 31
0.0
  0
LINE
  5
126
100
AcDbEntity
  8
KONSTRUKTION
390
0
  6
DASHDOT
100
AcDbLine
 10
82.0014022962
 20
164.4074005382
 30
0.0
 11
82.0014022962
 21
221.9103470261
 31
0.0
  0
LINE
  5
127
100
AcDbEntity
  8
KONSTRUKTION
390
0
  6
DASHDOT
100
AcDbLine
 10
35.0014022962
 20
164.4074005382
 30
0.0
 11
35.0014022962
 21
221.574213904
 31
0.0
  0
LINE
  5
128
100
AcDbEntity
  8
2501_1 UNTERZUGRAHMEN
390
0
100
AcDbLine
 10
187.0088886969
 20
167.4074005382
 30
0.0
 11
187.0088886969
 21
154.4074005382
 31
0.0
  0
LINE
  5
129
100
AcDbEntity
  8
2501_1 UNTERZUGRAHMEN
390
0
100
AcDbLine
 10
31.5423685063
 20
150.4074005382
 30
0.0
 11
16.5023685063
 21
150.4074005382
 31
0.0
  0
LINE
  5
12A
100
AcDbEntity
  8
KONSTRUKTION
390
0
  6
DASHDOT
100
AcDbLine
 10
170.7588886969
 20
140.7141355382
 30
0.0
 11
170.7588886969
 21
201.90125
 31
0.0
  0
LINE
  5
12B
100
AcDbEntity
  8
2501_1 UNTERZUGRAHMEN
390
0
100
AcDbLine
 10
34.0014022962
 20
152.4074005382
 30
0.0
 11
34.0014022962
 21
154.4074005382
 31
0.0
  0
LINE
  5
12C
100
AcDbEntity
  8
2501_1 UNTERZUGRAHMEN
390
0
100
AcDbLine
 10
83.0014022962
 20
152.4074005382
 30
0.0
 11
83.0014022962
 21
154.4074005382
 31
0.0
  0
TEXT
  5
12D
100
AcDbEntity
  8
BESCHRIFTUNG
390
0
100
AcDbText
 10
38.0252773045
 20
213.186075694
 30
0.0
 40
3.0
  1
2001.1
 41
1.1351381256
  7
Arial
100
AcDbText
  0
LINE
  5
12E
100
AcDbEntity
  8
MITTELLINIEN
390
0
100
AcDbLine
 10
167.791289654
 20
160.9074005382
 30
0.0
 11
204.5088886969
 21
160.9074005382
 31
0.0
  0
LINE
  5
12F
100
AcDbEntity
  8
2501_2-4 ROLLEN
390
0
100
AcDbLine
 10
173.2588886969
 20
188.7141355382
 30
0.0
 11
171.5088886969
 21
188.7141355382
 31
0.0
  0
LINE
  5
130
100
AcDbEntity
  8
2501_2-4 ROLLEN
390
0
100
AcDbLine
 10
170.0088886969
 20
188.7141355382
 30
0.0
 11
168.2588886969
 21
188.7141355382
 31
0.0
  0
LINE
  5
131
100
AcDbEntity
  8
2501_2-4 ROLLEN
390
0
100
AcDbLine
 10
170.0088886969
 20
187.7141355382
 30
0.0
 11
171.5088886969
 21
187.7141355382
 31
0.0
  0
LINE
  5
132
100
AcDbEntity
  8
2501_2-4 ROLLEN
390
0
100
AcDbLine
 10
171.5088886969
 20
188.7141355382
 30
0.0
 11
171.5088886969
 21
187.7141355382
 31
0.0
  0
LINE
  5
133
100
AcDbEntity
  8
2501_2-4 ROLLEN
390
0
100
AcDbLine
 10
170.0088886969
 20
187.7141355382
 30
0.0
 11
170.0088886969
 21
188.7141355382
 31
0.0
  0
LINE
  5
134
100
AcDbEntity
  8
2501_2-4 ROLLEN
390
0
100
AcDbLine
 10
168.2588886969
 20
140.7141355382
 30
0.0
 11
170.0088886969
 21
140.7141355382
 31
0.0
  0
LINE
  5
135
100
AcDbEntity
  8
2501_2-4 ROLLEN
390
0
100
AcDbLine
 10
171.5088886969
 20
141.7141355382
 30
0.0
 11
170.0088886969
 21
141.7141355382
 31
0.0
  0
LINE
  5
136
100
AcDbEntity
  8
2501_2-4 ROLLEN
390
0
100
AcDbLine
 10
171.5088886969
 20
140.7141355382
 30
0.0
 11
171.5088886969
 21
141.7141355382
 31
0.0
  0
LINE
  5
137
100
AcDbEntity
  8
2501_2-4 ROLLEN
390
0
100
AcDbLine
 10
170.0088886969
 20
141.7141355382
 30
0.0
 11
170.0088886969
 21
140.7141355382
 31
0.0
  0
LINE
  5
138
100
AcDbEntity
  8
2501_2-4 ROLLEN
390
0
100
AcDbLine
 10
171.5088886969
 20
140.7141355382
 30
0.0
 11
173.2588886969
 21
140.7141355382
 31
0.0
  0
LINE
  5
139
100
AcDbEntity
  8
2501_1 UNTERZUGRAHMEN
390
0
100
AcDbLine
 10
140.5847052802
 20
150.4074005382
 30
0.0
 11
161.8982560924
 21
150.4074005382
 31
0.0
  0
LINE
  5
13A
100
AcDbEntity
  8
2501_1 UNTERZUGRAHMEN
390
0
100
AcDbLine
 10
139.3607877155
 20
152.4074005382
 30
0.0
 11
162.0018205455
 21
152.4074005382
 31
0.0
  0
LINE
  5
13B
100
AcDbEntity
  8
 2001_2 BODEN
390
0
100
AcDbLine
 10
20.7282599345
 20
211.9074005382
 30
0.0
 11
111.974113482
 21
211.9074005382
 31
0.0
  0
LINE
  5
13C
100
AcDbEntity
  8
 2001_2 BODEN
390
0
100
AcDbLine
 10
20.3968536845
 20
217.9074005382
 30
0.0
 11
111.974113482
 21
217.9074005382
 31
0.0
  0
CIRCLE
  5
13D
100
AcDbEntity
  8
MITTELLINIEN
390
0
100
AcDbCircle
 10
58.5014022962
 20
164.4074005382
 30
0.0
 40
12.5
  0
CIRCLE
  5
13E
100
AcDbEntity
  8
MITTELLINIEN
390
0
100
AcDbCircle
 10
58.5014022962
 20
164.4074005382
 30
0.0
 40
18.5
  0
CIRCLE
  5
13F
100
AcDbEntity
  8
2501_2-4 ROLLEN
390
0
  6
DASHED
100
AcDbCircle
 10
55.7356045499
 20
163.2453494102
 30
0.0
 40
16.5
  0
CIRCLE
  5
140
100
AcDbEntity
  8
2501_2-4 ROLLEN
390
0
  6
DASHED
100
AcDbCircle
 10
55.7356045499
 20
163.2453494102
 30
0.0
 40
14.5
  0
LINE
  5
141
100
AcDbEntity
  8
2501_7 HEBEL 22_5_0_22_5
390
0
100
AcDbLine
 10
83.0025010271
 20
155.4073011545
 30
0.0
 11
69.0018053412
 21
165.9063735093
 31
0.0
  0
CIRCLE
  5
142
100
AcDbEntity
  8
UNSICHTBARE
390
0
100
AcDbCircle
 10
84.5023685063
 20
157.4074005382
 30
0.0
 40
2.75
  0
LINE
  5
143
100
AcDbEntity
  8
MITTELLINIEN
390
0
100
AcDbLine
 10
84.5023685063
 20
165.1574005382
 30
0.0
 11
84.5023685063
 21
149.6574005382
 31
0.0
  0
LINE
  5
144
100
AcDbEntity
  8
MITTELLINIEN
390
0
100
AcDbLine
 10
92.2523685063
 20
157.4074005382
 30
0.0
 11
76.7523685063
 21
157.4074005382
 31
0.0
  0
LINE
  5
145
100
AcDbEntity
  8
UNSICHTBARE
390
0
100
AcDbLine
 10
86.7297548671
 20
155.7456996024
 30
0.0
 11
82.8820282656
 21
159.5934262039
 31
0.0
  0
LINE
  5
146
100
AcDbEntity
  8
UNSICHTBARE
390
0
100
AcDbLine
 10
86.1640692513
 20
155.1800144332
 30
0.0
 11
82.3163426498
 21
159.0277410347
 31
0.0
  0
CIRCLE
  5
147
100
AcDbEntity
  8
2501_7 HEBEL 22_5_0_22_5
390
0
100
AcDbCircle
 10
80.2827014699
 20
189.6323041083
 30
0.0
 40
1.25
  0
CIRCLE
  5
148
100
AcDbEntity
  8
2501_7 HEBEL 22_5_0_22_5
390
0
100
AcDbCircle
 10
84.5023685063
 20
157.4074005382
 30
0.0
 40
1.25
  0
CIRCLE
  5
149
100
AcDbEntity
  8
2501_7 HEBEL 22_5_0_22_5
390
0
100
AcDbCircle
 10
70.5016728204
 20
167.906472893
 30
0.0
 40
1.25
  0
LINE
  5
14A
100
AcDbEntity
  8
2501_7 HEBEL 22_5_0_22_5
390
0
100
AcDbLine
 10
78.00307069
 20
190.6586001219
 30
0.0
 11
68.2220420406
 21
168.9327689065
 31
0.0
  0
LINE
  5
14B
100
AcDbEntity
  8
2501_7 HEBEL 22_5_0_22_5
390
0
100
AcDbLine
 10
86.9812072425
 20
157.7319903102
 30
0.0
 11
82.6878199403
 21
190.5198834325
 31
0.0
  0
ARC
  5
14C
100
AcDbEntity
  8
2501_7 HEBEL 22_5_0_22_5
390
0
100
AcDbCircle
 10
80.2827014699
 20
189.6323041083
 30
0.0
 40
2.5
100
AcDbArc
 50
20.255960629
 51
155.7625956208
  0
ARC
  5
14D
100
AcDbEntity
  8
2501_7 HEBEL 22_5_0_22_5
390
0
100
AcDbCircle
 10
84.5023685063
 20
157.4074005382
 30
0.0
 40
2.5
100
AcDbArc
 50
233.1338986996
 51
367.4601102209
  0
ARC
  5
14E
100
AcDbEntity
  8
2501_7 HEBEL 22_5_0_22_5
390
0
100
AcDbCircle
 10
70.5016728204
 20
167.906472893
 30
0.0
 40
2.5
100
AcDbArc
 50
155.7625956208
 51
233.1338986996
  0
LINE
  5
14F
100
AcDbEntity
  8
2501_7 HEBEL 22_5_0_22_5
390
0
100
AcDbLine
 10
177.2588886968
 20
192.1323041083
 30
0.0
 11
179.2588886978
 21
192.1323041083
 31
0.0
  0
LINE
  5
150
100
AcDbEntity
  8
2501_7 HEBEL 22_5_0_22_5
390
0
100
AcDbLine
 10
179.2588886978
 20
192.1323041083
 30
0.0
 11
179.2588886978
 21
154.9074005382
 31
0.0
  0
LINE
  5
151
100
AcDbEntity
  8
2501_7 HEBEL 22_5_0_22_5
390
0
100
AcDbLine
 10
179.2588886978
 20
154.9074005382
 30
0.0
 11
177.2588886968
 21
154.9074005382
 31
0.0
  0
LINE
  5
152
100
AcDbEntity
  8
2501_7 HEBEL 22_5_0_22_5
390
0
100
AcDbLine
 10
177.2588886968
 20
154.9074005382
 30
0.0
 11
177.2588886968
 21
192.1323041083
 31
0.0
  0
LINE
  5
153
100
AcDbEntity
  8
UNSICHTBARE
390
0
100
AcDbLine
 10
177.7588886969
 20
150.4074005382
 30
0.0
 11
177.7588886969
 21
148.5074005382
 31
0.0
  0
LINE
  5
154
100
AcDbEntity
  8
UNSICHTBARE
390
0
100
AcDbLine
 10
183.2588886969
 20
150.4074005382
 30
0.0
 11
183.2588886969
 21
148.5074005382
 31
0.0
  0
LINE
  5
155
100
AcDbEntity
  8
MITTELLINIEN
390
0
100
AcDbLine
 10
180.5088886969
 20
143.4074005382
 30
0.0
 11
180.5088886969
 21
160.4074005382
 31
0.0
  0
LINE
  5
156
100
AcDbEntity
  8
UNSICHTBARE
390
0
100
AcDbLine
 10
183.2588886969
 20
150.4074005382
 30
0.0
 11
177.7588886969
 21
150.4074005382
 31
0.0
  0
LINE
  5
157
100
AcDbEntity
  8
UNSICHTBARE
390
0
100
AcDbLine
 10
177.8588886969
 20
148.4074005382
 30
0.0
 11
180.1088886969
 21
148.4074005382
 31
0.0
  0
LINE
  5
158
100
AcDbEntity
  8
UNSICHTBARE
390
0
100
AcDbLine
 10
183.1588886969
 20
148.4074005382
 30
0.0
 11
180.9088886969
 21
148.4074005382
 31
0.0
  0
ARC
  5
159
100
AcDbEntity
  8
UNSICHTBARE
390
0
100
AcDbCircle
 10
177.8588886969
 20
148.5074005382
 30
0.0
 40
0.1
100
AcDbArc
 50
180.0
 51
270.0
  0
ARC
  5
15A
100
AcDbEntity
  8
UNSICHTBARE
390
0
100
AcDbCircle
 10
183.1588886969
 20
148.5074005382
 30
0.0
 40
0.1
100
AcDbArc
 50
270.0
 51
360.0
  0
LINE
  5
15B
100
AcDbEntity
  8
UNSICHTBARE
390
0
100
AcDbLine
 10
180.9088886969
 20
148.4074005382
 30
0.0
 11
180.9088886969
 21
149.2574005382
 31
0.0
  0
LINE
  5
15C
100
AcDbEntity
  8
UNSICHTBARE
390
0
100
AcDbLine
 10
180.1088886969
 20
148.4074005382
 30
0.0
 11
180.1088886969
 21
149.2574005382
 31
0.0
  0
LINE
  5
15D
100
AcDbEntity
  8
UNSICHTBARE
390
0
100
AcDbLine
 10
180.1088886969
 20
149.2574005382
 30
0.0
 11
180.9088886969
 21
149.2574005382
 31
0.0
  0
LINE
  5
15E
100
AcDbEntity
  8
UNSICHTBARE
390
0
100
AcDbLine
 10
179.0088886969
 20
150.4074005382
 30
0.0
 11
179.0088886969
 21
155.1006655382
 31
0.0
  0
LINE
  5
15F
100
AcDbEntity
  8
UNSICHTBARE
390
0
100
AcDbLine
 10
179.3156236969
 20
151.9074005382
 30
0.0
 11
179.3156236969
 21
155.4074005382
 31
0.0
  0
LINE
  5
160
100
AcDbEntity
  8
UNSICHTBARE
390
0
100
AcDbLine
 10
181.7021536969
 20
151.9074005382
 30
0.0
 11
181.7021536969
 21
155.4074005382
 31
0.0
  0
LINE
  5
161
100
AcDbEntity
  8
UNSICHTBARE
390
0
100
AcDbLine
 10
182.0088886969
 20
150.4074005382
 30
0.0
 11
182.0088886969
 21
155.1006655382
 31
0.0
  0
LINE
  5
162
100
AcDbEntity
  8
UNSICHTBARE
390
0
100
AcDbLine
 10
179.0088886969
 20
151.9074005382
 30
0.0
 11
182.0088886969
 21
151.9074005382
 31
0.0
  0
LINE
  5
163
100
AcDbEntity
  8
UNSICHTBARE
390
0
100
AcDbLine
 10
179.3156236969
 20
155.4074005382
 30
0.0
 11
181.7021536969
 21
155.4074005382
 31
0.0
  0
LINE
  5
164
100
AcDbEntity
  8
UNSICHTBARE
390
0
100
AcDbLine
 10
179.0088886969
 20
155.1006655382
 30
0.0
 11
182.0088886969
 21
155.1006655382
 31
0.0
  0
LINE
  5
165
100
AcDbEntity
  8
UNSICHTBARE
390
0
100
AcDbLine
 10
179.0088886969
 20
155.1006655382
 30
0.0
 11
179.3156236969
 21
155.4074005382
 31
0.0
  0
LINE
  5
166
100
AcDbEntity
  8
UNSICHTBARE
390
0
100
AcDbLine
 10
182.0088886969
 20
155.1006655382
 30
0.0
 11
181.7021536969
 21
155.4074005382
 31
0.0
  0
LINE
  5
167
100
AcDbEntity
  8
UNSICHTBARE
390
0
100
AcDbLine
 10
189.0088886969
 20
161.6574005382
 30
0.0
 11
190.9088886969
 21
161.6574005382
 31
0.0
  0
LINE
  5
168
100
AcDbEntity
  8
UNSICHTBARE
390
0
100
AcDbLine
 10
189.0088886969
 20
167.1574005382
 30
0.0
 11
190.9088886969
 21
167.1574005382
 31
0.0
  0
LINE
  5
169
100
AcDbEntity
  8
MITTELLINIEN
390
0
100
AcDbLine
 10
196.0088886969
 20
164.4074005382
 30
0.0
 11
159.0088886969
 21
164.4074005382
 31
0.0
  0
LINE
  5
16A
100
AcDbEntity
  8
UNSICHTBARE
390
0
100
AcDbLine
 10
189.0088886969
 20
167.1574005382
 30
0.0
 11
189.0088886969
 21
161.6574005382
 31
0.0
  0
LINE
  5
16B
100
AcDbEntity
  8
UNSICHTBARE
390
0
100
AcDbLine
 10
191.0088886969
 20
161.7574005382
 30
0.0
 11
191.0088886969
 21
164.0074005382
 31
0.0
  0
LINE
  5
16C
100
AcDbEntity
  8
UNSICHTBARE
390
0
100
AcDbLine
 10
191.0088886969
 20
167.0574005382
 30
0.0
 11
191.0088886969
 21
164.8074005382
 31
0.0
  0
ARC
  5
16D
100
AcDbEntity
  8
UNSICHTBARE
390
0
100
AcDbCircle
 10
190.9088886969
 20
161.7574005382
 30
0.0
 40
0.1
100
AcDbArc
 50
270.0
 51
360.0
  0
ARC
  5
16E
100
AcDbEntity
  8
UNSICHTBARE
390
0
100
AcDbCircle
 10
190.9088886969
 20
167.0574005382
 30
0.0
 40
0.1
100
AcDbArc
 50
0.0
 51
90.0
  0
LINE
  5
16F
100
AcDbEntity
  8
UNSICHTBARE
390
0
100
AcDbLine
 10
191.0088886969
 20
164.8074005382
 30
0.0
 11
190.1588886969
 21
164.8074005382
 31
0.0
  0
LINE
  5
170
100
AcDbEntity
  8
UNSICHTBARE
390
0
100
AcDbLine
 10
191.0088886969
 20
164.0074005382
 30
0.0
 11
190.1588886969
 21
164.0074005382
 31
0.0
  0
LINE
  5
171
100
AcDbEntity
  8
UNSICHTBARE
390
0
100
AcDbLine
 10
190.1588886969
 20
164.0074005382
 30
0.0
 11
190.1588886969
 21
164.8074005382
 31
0.0
  0
LINE
  5
172
100
AcDbEntity
  8
UNSICHTBARE
390
0
100
AcDbLine
 10
189.0088886969
 20
162.9074005382
 30
0.0
 11
164.3156236969
 21
162.9074005382
 31
0.0
  0
LINE
  5
173
100
AcDbEntity
  8
UNSICHTBARE
390
0
100
AcDbLine
 10
187.5088886969
 20
163.2141355382
 30
0.0
 11
164.0088886969
 21
163.2141355382
 31
0.0
  0
LINE
  5
174
100
AcDbEntity
  8
UNSICHTBARE
390
0
100
AcDbLine
 10
187.5088886969
 20
165.6006655382
 30
0.0
 11
164.0088886969
 21
165.6006655382
 31
0.0
  0
LINE
  5
175
100
AcDbEntity
  8
UNSICHTBARE
390
0
100
AcDbLine
 10
189.0088886969
 20
165.9074005382
 30
0.0
 11
164.3156236969
 21
165.9074005382
 31
0.0
  0
LINE
  5
176
100
AcDbEntity
  8
UNSICHTBARE
390
0
100
AcDbLine
 10
187.5088886969
 20
162.9074005382
 30
0.0
 11
187.5088886969
 21
165.9074005382
 31
0.0
  0
LINE
  5
177
100
AcDbEntity
  8
UNSICHTBARE
390
0
100
AcDbLine
 10
164.0088886969
 20
163.2141355382
 30
0.0
 11
164.0088886969
 21
165.6006655382
 31
0.0
  0
LINE
  5
178
100
AcDbEntity
  8
UNSICHTBARE
390
0
100
AcDbLine
 10
164.3156236969
 20
162.9074005382
 30
0.0
 11
164.3156236969
 21
165.9074005382
 31
0.0
  0
LINE
  5
179
100
AcDbEntity
  8
UNSICHTBARE
390
0
100
AcDbLine
 10
164.3156236969
 20
162.9074005382
 30
0.0
 11
164.0088886969
 21
163.2141355382
 31
0.0
  0
LINE
  5
17A
100
AcDbEntity
  8
UNSICHTBARE
390
0
100
AcDbLine
 10
164.3156236969
 20
165.9074005382
 30
0.0
 11
164.0088886969
 21
165.6006655382
 31
0.0
  0
LINE
  5
17B
100
AcDbEntity
  8
2501_1 UNTERZUGRAHMEN
370
        18
390
0
100
AcDbLine
 10
141.0088886969
 20
152.4074005382
 30
0.0
 11
141.0088886969
 21
154.4074005382
 31
0.0
  0
LINE
  5
17C
100
AcDbEntity
  8
2501_2-4 ROLLEN
390
0
  6
DASHED
100
AcDbLine
 10
170.2588886969
 20
146.74534941
 30
0.0
 11
170.2588886969
 21
179.74534941
 31
0.0
  0
LINE
  5
17D
100
AcDbEntity
  8
2501_2-4 ROLLEN
390
0
  6
DASHED
100
AcDbLine
 10
170.2588886968
 20
179.74534941
 30
0.0
 11
173.2588886968
 21
179.74534941
 31
0.0
  0
LINE
  5
17E
100
AcDbEntity
  8
2501_2-4 ROLLEN
390
0
  6
DASHED
100
AcDbLine
 10
173.2588886969
 20
177.74534941
 30
0.0
 11
170.2588886968
 21
177.74534941
 31
0.0
  0
LINE
  5
17F
100
AcDbEntity
  8
2501_2-4 ROLLEN
390
0
  6
DASHED
100
AcDbLine
 10
170.2588886968
 20
148.74534941
 30
0.0
 11
173.2588886969
 21
148.74534941
 31
0.0
  0
LINE
  5
180
100
AcDbEntity
  8
2501_2-4 ROLLEN
390
0
  6
DASHED
100
AcDbLine
 10
173.2588886968
 20
146.74534941
 30
0.0
 11
170.2588886969
 21
146.74534941
 31
0.0
  0
LINE
  5
181
100
AcDbEntity
  8
UNSICHTBARE
390
0
100
AcDbLine
 10
179.2588886978
 20
165.156472893
 30
0.0
 11
181.1588886978
 21
165.156472893
 31
0.0
  0
LINE
  5
182
100
AcDbEntity
  8
UNSICHTBARE
390
0
100
AcDbLine
 10
179.2588886978
 20
170.656472893
 30
0.0
 11
181.1588886978
 21
170.656472893
 31
0.0
  0
LINE
  5
183
100
AcDbEntity
  8
MITTELLINIEN
390
0
100
AcDbLine
 10
186.2588886978
 20
167.906472893
 30
0.0
 11
166.2588886978
 21
167.906472893
 31
0.0
  0
LINE
  5
184
100
AcDbEntity
  8
UNSICHTBARE
390
0
100
AcDbLine
 10
179.2588886978
 20
170.656472893
 30
0.0
 11
179.2588886978
 21
165.156472893
 31
0.0
  0
LINE
  5
185
100
AcDbEntity
  8
UNSICHTBARE
390
0
100
AcDbLine
 10
181.2588886978
 20
165.256472893
 30
0.0
 11
181.2588886978
 21
167.506472893
 31
0.0
  0
LINE
  5
186
100
AcDbEntity
  8
UNSICHTBARE
390
0
100
AcDbLine
 10
181.2588886978
 20
170.556472893
 30
0.0
 11
181.2588886978
 21
168.306472893
 31
0.0
  0
ARC
  5
187
100
AcDbEntity
  8
UNSICHTBARE
390
0
100
AcDbCircle
 10
181.1588886978
 20
165.256472893
 30
0.0
 40
0.1
100
AcDbArc
 50
270.0
 51
360.0
  0
ARC
  5
188
100
AcDbEntity
  8
UNSICHTBARE
390
0
100
AcDbCircle
 10
181.1588886978
 20
170.556472893
 30
0.0
 40
0.1
100
AcDbArc
 50
0.0
 51
90.0
  0
LINE
  5
189
100
AcDbEntity
  8
UNSICHTBARE
390
0
100
AcDbLine
 10
181.2588886978
 20
168.306472893
 30
0.0
 11
180.4088886978
 21
168.306472893
 31
0.0
  0
LINE
  5
18A
100
AcDbEntity
  8
UNSICHTBARE
390
0
100
AcDbLine
 10
181.2588886978
 20
167.506472893
 30
0.0
 11
180.4088886978
 21
167.506472893
 31
0.0
  0
LINE
  5
18B
100
AcDbEntity
  8
UNSICHTBARE
390
0
100
AcDbLine
 10
180.4088886978
 20
167.506472893
 30
0.0
 11
180.4088886978
 21
168.306472893
 31
0.0
  0
LINE
  5
18C
100
AcDbEntity
  8
UNSICHTBARE
390
0
100
AcDbLine
 10
179.2588886978
 20
166.406472893
 30
0.0
 11
171.5656236978
 21
166.406472893
 31
0.0
  0
LINE
  5
18D
100
AcDbEntity
  8
UNSICHTBARE
390
0
100
AcDbLine
 10
177.7588886978
 20
166.713207893
 30
0.0
 11
171.2588886978
 21
166.713207893
 31
0.0
  0
LINE
  5
18E
100
AcDbEntity
  8
UNSICHTBARE
390
0
100
AcDbLine
 10
177.7588886978
 20
169.099737893
 30
0.0
 11
171.2588886978
 21
169.099737893
 31
0.0
  0
LINE
  5
18F
100
AcDbEntity
  8
UNSICHTBARE
390
0
100
AcDbLine
 10
179.2588886978
 20
169.406472893
 30
0.0
 11
171.5656236978
 21
169.406472893
 31
0.0
  0
LINE
  5
190
100
AcDbEntity
  8
UNSICHTBARE
390
0
100
AcDbLine
 10
177.7588886978
 20
166.406472893
 30
0.0
 11
177.7588886978
 21
169.406472893
 31
0.0
  0
LINE
  5
191
100
AcDbEntity
  8
UNSICHTBARE
390
0
100
AcDbLine
 10
171.2588886978
 20
166.713207893
 30
0.0
 11
171.2588886978
 21
169.099737893
 31
0.0
  0
LINE
  5
192
100
AcDbEntity
  8
UNSICHTBARE
390
0
100
AcDbLine
 10
171.5656236978
 20
166.406472893
 30
0.0
 11
171.5656236978
 21
169.406472893
 31
0.0
  0
LINE
  5
193
100
AcDbEntity
  8
UNSICHTBARE
390
0
100
AcDbLine
 10
171.5656236978
 20
166.406472893
 30
0.0
 11
171.2588886978
 21
166.713207893
 31
0.0
  0
LINE
  5
194
100
AcDbEntity
  8
UNSICHTBARE
390
0
100
AcDbLine
 10
171.5656236978
 20
169.406472893
 30
0.0
 11
171.2588886978
 21
169.099737893
 31
0.0
  0
ARC
  5
195
100
AcDbEntity
  8
2501_7 HEBEL 22_5_0_22_5 UMGELEGT LI
390
0
100
AcDbCircle
 10
75.2511069326
 20
172.2621694457
 30
0.0
 40
2.5
100
AcDbArc
 50
134.5425454971
 51
211.9138485759
  0
ARC
  5
196
100
AcDbEntity
  8
2501_7 HEBEL 22_5_0_22_5 UMGELEGT LI
390
0
100
AcDbCircle
 10
92.2326365417
 20
188.9746772041
 30
0.0
 40
2.5
100
AcDbArc
 50
359.0359105053
 51
494.5425454971
  0
ARC
  5
197
100
AcDbEntity
  8
2501_7 HEBEL 22_5_0_22_5 UMGELEGT LI
390
0
100
AcDbCircle
 10
84.5023685063
 20
157.4074005382
 30
0.0
 40
2.5
100
AcDbArc
 50
211.9138485759
 51
346.2400600971
  0
CIRCLE
  5
198
100
AcDbEntity
  8
2501_7 HEBEL 22_5_0_22_5 UMGELEGT LI
390
0
100
AcDbCircle
 10
92.2826365417
 20
188.9746772041
 30
0.0
 40
1.25
  0
CIRCLE
  5
199
100
AcDbEntity
  8
2501_7 HEBEL 22_5_0_22_5 UMGELEGT LI
390
0
100
AcDbCircle
 10
75.2511069326
 20
172.2621694457
 30
0.0
 40
1.25
  0
LINE
  5
19A
100
AcDbEntity
  8
2501_7 HEBEL 22_5_0_22_5 UMGELEGT LI
390
0
100
AcDbLine
 10
90.4790397878
 20
190.7565016693
 30
0.0
 11
73.4975101788
 21
174.0439939109
 31
0.0
  0
LINE
  5
19B
100
AcDbEntity
  8
2501_7 HEBEL 22_5_0_22_5 UMGELEGT LI
390
0
100
AcDbLine
 10
86.9306205576
 20
156.8127645355
 30
0.0
 11
94.79594129
 21
188.9315415935
 31
0.0
  0
LINE
  5
19C
100
AcDbEntity
  8
2501_7 HEBEL 22_5_0_22_5 UMGELEGT LI
390
0
100
AcDbLine
 10
82.3802586624
 20
156.085791742
 30
0.0
 11
73.1289970887
 21
170.9405606494
 31
0.0
  0
INSERT
  5
19D
100
AcDbEntity
  8
BEMASSUNG
390
0
100
AcDbBlockReference
  2
D343177472
 10
0.0
 20
0.0
 30
0.0
  0
LINE
  5
19E
100
AcDbEntity
  8
2501_2-4 ROLLEN
390
0
100
AcDbLine
 10
165.2588886969
 20
188.7141355382
 30
0.0
 11
167.2588886969
 21
188.7141355382
 31
0.0
  0
LINE
  5
19F
100
AcDbEntity
  8
2501_2-4 ROLLEN
390
0
100
AcDbLine
 10
167.2588886969
 20
188.7141355382
 30
0.0
 11
167.2588886969
 21
140.7141355379
 31
0.0
  0
LINE
  5
1A0
100
AcDbEntity
  8
2501_2-4 ROLLEN
390
0
100
AcDbLine
 10
167.2588886969
 20
140.7141355379
 30
0.0
 11
165.2588886969
 21
140.7141355379
 31
0.0
  0
LINE
  5
1A1
100
AcDbEntity
  8
2501_2-4 ROLLEN
390
0
100
AcDbLine
 10
165.2588886969
 20
140.7141355379
 30
0.0
 11
165.2588886969
 21
188.7141355382
 31
0.0
  0
LINE
  5
1A2
100
AcDbEntity
  8
2501_6 HEBEL 0_0_22_5
390
0
100
AcDbLine
 10
162.2588886969
 20
192.1323041083
 30
0.0
 11
164.2588886969
 21
192.1323041083
 31
0.0
  0
LINE
  5
1A3
100
AcDbEntity
  8
2501_6 HEBEL 0_0_22_5
390
0
100
AcDbLine
 10
164.2588886969
 20
192.1323041083
 30
0.0
 11
164.2588886969
 21
154.9074005382
 31
0.0
  0
LINE
  5
1A4
100
AcDbEntity
  8
2501_6 HEBEL 0_0_22_5
390
0
100
AcDbLine
 10
164.2588886969
 20
154.9074005382
 30
0.0
 11
162.2588886969
 21
154.9074005382
 31
0.0
  0
LINE
  5
1A5
100
AcDbEntity
  8
2501_6 HEBEL 0_0_22_5
390
0
100
AcDbLine
 10
162.2588886969
 20
154.9074005382
 30
0.0
 11
162.2588886969
 21
192.1323041083
 31
0.0
  0
LINE
  5
1A6
100
AcDbEntity
  8
UNSICHTBARE
390
0
100
AcDbLine
 10
189.0088886969
 20
154.6574005382
 30
0.0
 11
190.9088886969
 21
154.6574005382
 31
0.0
  0
LINE
  5
1A7
100
AcDbEntity
  8
UNSICHTBARE
390
0
100
AcDbLine
 10
189.0088886969
 20
160.1574005382
 30
0.0
 11
190.9088886969
 21
160.1574005382
 31
0.0
  0
LINE
  5
1A8
100
AcDbEntity
  8
MITTELLINIEN
390
0
100
AcDbLine
 10
196.0088886969
 20
157.4074005382
 30
0.0
 11
154.0088886969
 21
157.4074005382
 31
0.0
  0
LINE
  5
1A9
100
AcDbEntity
  8
UNSICHTBARE
390
0
100
AcDbLine
 10
189.0088886969
 20
160.1574005382
 30
0.0
 11
189.0088886969
 21
154.6574005382
 31
0.0
  0
LINE
  5
1AA
100
AcDbEntity
  8
UNSICHTBARE
390
0
100
AcDbLine
 10
191.0088886969
 20
154.7574005382
 30
0.0
 11
191.0088886969
 21
157.0074005382
 31
0.0
  0
LINE
  5
1AB
100
AcDbEntity
  8
UNSICHTBARE
390
0
100
AcDbLine
 10
191.0088886969
 20
160.0574005382
 30
0.0
 11
191.0088886969
 21
157.8074005382
 31
0.0
  0
ARC
  5
1AC
100
AcDbEntity
  8
UNSICHTBARE
390
0
100
AcDbCircle
 10
190.9088886969
 20
154.7574005382
 30
0.0
 40
0.1
100
AcDbArc
 50
270.0
 51
360.0
  0
ARC
  5
1AD
100
AcDbEntity
  8
UNSICHTBARE
390
0
100
AcDbCircle
 10
190.9088886969
 20
160.0574005382
 30
0.0
 40
0.1
100
AcDbArc
 50
0.0
 51
90.0
  0
LINE
  5
1AE
100
AcDbEntity
  8
UNSICHTBARE
390
0
100
AcDbLine
 10
191.0088886969
 20
157.8074005382
 30
0.0
 11
190.1588886969
 21
157.8074005382
 31
0.0
  0
LINE
  5
1AF
100
AcDbEntity
  8
UNSICHTBARE
390
0
100
AcDbLine
 10
191.0088886969
 20
157.0074005382
 30
0.0
 11
190.1588886969
 21
157.0074005382
 31
0.0
  0
LINE
  5
1B0
100
AcDbEntity
  8
UNSICHTBARE
390
0
100
AcDbLine
 10
190.1588886969
 20
157.0074005382
 30
0.0
 11
190.1588886969
 21
157.8074005382
 31
0.0
  0
LINE
  5
1B1
100
AcDbEntity
  8
UNSICHTBARE
390
0
100
AcDbLine
 10
189.0088886969
 20
155.9074005382
 30
0.0
 11
159.3156236969
 21
155.9074005382
 31
0.0
  0
LINE
  5
1B2
100
AcDbEntity
  8
UNSICHTBARE
390
0
100
AcDbLine
 10
184.0088886969
 20
156.2141355382
 30
0.0
 11
159.0088886969
 21
156.2141355382
 31
0.0
  0
LINE
  5
1B3
100
AcDbEntity
  8
UNSICHTBARE
390
0
100
AcDbLine
 10
184.0088886969
 20
158.6006655382
 30
0.0
 11
159.0088886969
 21
158.6006655382
 31
0.0
  0
LINE
  5
1B4
100
AcDbEntity
  8
UNSICHTBARE
390
0
100
AcDbLine
 10
189.0088886969
 20
158.9074005382
 30
0.0
 11
159.3156236969
 21
158.9074005382
 31
0.0
  0
LINE
  5
1B5
100
AcDbEntity
  8
UNSICHTBARE
390
0
100
AcDbLine
 10
184.0088886969
 20
155.9074005382
 30
0.0
 11
184.0088886969
 21
158.9074005382
 31
0.0
  0
LINE
  5
1B6
100
AcDbEntity
  8
UNSICHTBARE
390
0
100
AcDbLine
 10
159.0088886969
 20
156.2141355382
 30
0.0
 11
159.0088886969
 21
158.6006655382
 31
0.0
  0
LINE
  5
1B7
100
AcDbEntity
  8
UNSICHTBARE
390
0
100
AcDbLine
 10
159.3156236969
 20
155.9074005382
 30
0.0
 11
159.3156236969
 21
158.9074005382
 31
0.0
  0
LINE
  5
1B8
100
AcDbEntity
  8
UNSICHTBARE
390
0
100
AcDbLine
 10
159.3156236969
 20
155.9074005382
 30
0.0
 11
159.0088886969
 21
156.2141355382
 31
0.0
  0
LINE
  5
1B9
100
AcDbEntity
  8
UNSICHTBARE
390
0
100
AcDbLine
 10
159.3156236969
 20
158.9074005382
 30
0.0
 11
159.0088886969
 21
158.6006655382
 31
0.0
  0
LINE
  5
1BA
100
AcDbEntity
  8
UNSICHTBARE
390
0
100
AcDbLine
 10
162.2588886969
 20
170.656472893
 30
0.0
 11
160.3588886969
 21
170.656472893
 31
0.0
  0
LINE
  5
1BB
100
AcDbEntity
  8
UNSICHTBARE
390
0
100
AcDbLine
 10
162.2588886969
 20
165.156472893
 30
0.0
 11
160.3588886969
 21
165.156472893
 31
0.0
  0
LINE
  5
1BC
100
AcDbEntity
  8
MITTELLINIEN
390
0
100
AcDbLine
 10
155.2588886969
 20
167.906472893
 30
0.0
 11
172.2588886969
 21
167.906472893
 31
0.0
  0
LINE
  5
1BD
100
AcDbEntity
  8
UNSICHTBARE
390
0
100
AcDbLine
 10
162.2588886969
 20
165.156472893
 30
0.0
 11
162.2588886969
 21
170.656472893
 31
0.0
  0
LINE
  5
1BE
100
AcDbEntity
  8
UNSICHTBARE
390
0
100
AcDbLine
 10
160.2588886969
 20
170.556472893
 30
0.0
 11
160.2588886969
 21
168.306472893
 31
0.0
  0
LINE
  5
1BF
100
AcDbEntity
  8
UNSICHTBARE
390
0
100
AcDbLine
 10
160.2588886969
 20
165.256472893
 30
0.0
 11
160.2588886969
 21
167.506472893
 31
0.0
  0
ARC
  5
1C0
100
AcDbEntity
  8
UNSICHTBARE
390
0
100
AcDbCircle
 10
160.3588886969
 20
170.556472893
 30
0.0
 40
0.1
100
AcDbArc
 50
90.0
 51
180.0
  0
ARC
  5
1C1
100
AcDbEntity
  8
UNSICHTBARE
390
0
100
AcDbCircle
 10
160.3588886969
 20
165.256472893
 30
0.0
 40
0.1
100
AcDbArc
 50
180.0
 51
270.0
  0
LINE
  5
1C2
100
AcDbEntity
  8
UNSICHTBARE
390
0
100
AcDbLine
 10
160.2588886969
 20
167.506472893
 30
0.0
 11
161.1088886969
 21
167.506472893
 31
0.0
  0
LINE
  5
1C3
100
AcDbEntity
  8
UNSICHTBARE
390
0
100
AcDbLine
 10
160.2588886969
 20
168.306472893
 30
0.0
 11
161.1088886969
 21
168.306472893
 31
0.0
  0
LINE
  5
1C4
100
AcDbEntity
  8
UNSICHTBARE
390
0
100
AcDbLine
 10
161.1088886969
 20
168.306472893
 30
0.0
 11
161.1088886969
 21
167.506472893
 31
0.0
  0
LINE
  5
1C5
100
AcDbEntity
  8
UNSICHTBARE
390
0
100
AcDbLine
 10
162.2588886969
 20
169.406472893
 30
0.0
 11
166.9521536969
 21
169.406472893
 31
0.0
  0
LINE
  5
1C6
100
AcDbEntity
  8
UNSICHTBARE
390
0
100
AcDbLine
 10
163.7588886969
 20
169.099737893
 30
0.0
 11
167.2588886969
 21
169.099737893
 31
0.0
  0
LINE
  5
1C7
100
AcDbEntity
  8
UNSICHTBARE
390
0
100
AcDbLine
 10
163.7588886969
 20
166.713207893
 30
0.0
 11
167.2588886969
 21
166.713207893
 31
0.0
  0
LINE
  5
1C8
100
AcDbEntity
  8
UNSICHTBARE
390
0
100
AcDbLine
 10
162.2588886969
 20
166.406472893
 30
0.0
 11
166.9521536969
 21
166.406472893
 31
0.0
  0
LINE
  5
1C9
100
AcDbEntity
  8
UNSICHTBARE
390
0
100
AcDbLine
 10
163.7588886969
 20
169.406472893
 30
0.0
 11
163.7588886969
 21
166.406472893
 31
0.0
  0
LINE
  5
1CA
100
AcDbEntity
  8
UNSICHTBARE
390
0
100
AcDbLine
 10
167.2588886969
 20
169.099737893
 30
0.0
 11
167.2588886969
 21
166.713207893
 31
0.0
  0
LINE
  5
1CB
100
AcDbEntity
  8
UNSICHTBARE
390
0
100
AcDbLine
 10
166.9521536969
 20
169.406472893
 30
0.0
 11
166.9521536969
 21
166.406472893
 31
0.0
  0
LINE
  5
1CC
100
AcDbEntity
  8
UNSICHTBARE
390
0
100
AcDbLine
 10
166.9521536969
 20
169.406472893
 30
0.0
 11
167.2588886969
 21
169.099737893
 31
0.0
  0
LINE
  5
1CD
100
AcDbEntity
  8
UNSICHTBARE
390
0
100
AcDbLine
 10
166.9521536969
 20
166.406472893
 30
0.0
 11
167.2588886969
 21
166.713207893
 31
0.0
  0
ARC
  5
1CE
100
AcDbEntity
  8
2501_6 HEBEL 0_0_22_5
390
0
100
AcDbCircle
 10
58.5014022961
 20
164.4074005382
 30
0.0
 40
11.515467131
100
AcDbArc
 50
16.2557755784
 51
211.2557755788
  0
ARC
  5
1CF
100
AcDbEntity
  8
2501_6 HEBEL 0_0_22_5
390
0
100
AcDbCircle
 10
58.5014022961
 20
164.4074005382
 30
0.0
 40
13.5159544056
100
AcDbArc
 50
16.2557755784
 51
211.2557755786
  0
ARC
  5
1D0
100
AcDbEntity
  8
2501_6 HEBEL 0_0_22_5
390
0
100
AcDbCircle
 10
55.7356045496
 20
163.2453494094
 30
0.0
 40
14.4999999998
100
AcDbArc
 50
194.9067260516
 51
377.6048251054
  0
ARC
  5
1D1
100
AcDbEntity
  8
2501_6 HEBEL 0_0_22_5
390
0
100
AcDbCircle
 10
55.7356045497
 20
163.2453494096
 30
0.0
 40
16.4999999998
100
AcDbArc
 50
195.0702721566
 51
377.4412790003
  0
ARC
  5
1D2
100
AcDbEntity
  8
2501_6 HEBEL 0_0_22_5
390
0
100
AcDbCircle
 10
58.5014022961
 20
164.4074005382
 30
0.0
 40
17.4764946755
100
AcDbArc
 50
181.2557755785
 51
196.2557755786
  0
ARC
  5
1D3
100
AcDbEntity
  8
2501_6 HEBEL 0_0_22_5
390
0
100
AcDbCircle
 10
58.5014022961
 20
164.4074005382
 30
0.0
 40
19.4769819501
100
AcDbArc
 50
181.2557755785
 51
196.2557755785
  0
ARC
  5
1D4
100
AcDbEntity
  8
2501_6 HEBEL 0_0_22_5
390
0
100
AcDbCircle
 10
40.0058455707
 20
164.001960758
 30
0.0
 40
1.0235053248
100
AcDbArc
 50
1.2557755785
 51
181.2557755785
  0
ARC
  5
1D5
100
AcDbEntity
  8
2501_6 HEBEL 0_0_22_5
390
0
100
AcDbCircle
 10
47.8156576396
 20
157.9216576244
 30
0.0
 40
1.0159544058
100
AcDbArc
 50
211.2557755751
 51
391.2557755796
  0
LINE
  5
1D6
100
AcDbEntity
  8
MITTELLINIEN
390
0
100
AcDbLine
 10
52.0014022962
 20
164.4074005382
 30
0.0
 11
65.0014022962
 21
164.4074005382
 31
0.0
  0
LINE
  5
1D7
100
AcDbEntity
  8
MITTELLINIEN
390
0
100
AcDbLine
 10
58.5014022962
 20
157.9074005382
 30
0.0
 11
58.5014022962
 21
170.9074005382
 31
0.0
  0
CIRCLE
  5
1D8
100
AcDbEntity
  8
UNSICHTBARE
390
0
100
AcDbCircle
 10
43.2986065006
 20
179.6101963337
 30
0.0
 40
2.75
  0
LINE
  5
1D9
100
AcDbEntity
  8
MITTELLINIEN
390
0
100
AcDbLine
 10
35.5491000126
 20
179.6976559926
 30
0.0
 11
51.0481129887
 21
179.5227366748
 31
0.0
  0
LINE
  5
1DA
100
AcDbEntity
  8
MITTELLINIEN
390
0
100
AcDbLine
 10
43.3860661595
 20
187.3597028217
 30
0.0
 11
43.2111468417
 21
171.8606898457
 31
0.0
  0
LINE
  5
1DB
100
AcDbEntity
  8
UNSICHTBARE
390
0
100
AcDbLine
 10
44.9853379373
 20
181.8186883669
 30
0.0
 11
41.0944343091
 21
178.0146288305
 31
0.0
  0
LINE
  5
1DC
100
AcDbEntity
  8
UNSICHTBARE
390
0
100
AcDbLine
 10
45.5446032558
 20
181.2466549499
 30
0.0
 11
41.6536996276
 21
177.4425954136
 31
0.0
  0
CIRCLE
  5
1DD
100
AcDbEntity
  8
2501_2-4 ROLLEN
390
0
100
AcDbCircle
 10
43.2986065008
 20
179.6101963336
 30
0.0
 40
1.25
  0
CIRCLE
  5
1DE
100
AcDbEntity
  8
2501_2-4 ROLLEN
390
0
100
AcDbCircle
 10
52.9367928265
 20
143.6399952732
 30
0.0
 40
1.25
  0
CIRCLE
  5
1DF
100
AcDbEntity
  8
2501_2-4 ROLLEN
390
0
100
AcDbCircle
 10
79.2688075612
 20
169.9720100078
 30
0.0
 40
1.25
  0
CIRCLE
  5
1E0
100
AcDbEntity
  8
UNSICHTBARE
390
0
100
AcDbCircle
 10
52.9367928272
 20
143.6399952732
 30
0.0
 40
2.75
  0
LINE
  5
1E1
100
AcDbEntity
  8
MITTELLINIEN
390
0
100
AcDbLine
 10
45.1872863391
 20
143.7274549321
 30
0.0
 11
60.6862993152
 21
143.5525356143
 31
0.0
  0
LINE
  5
1E2
100
AcDbEntity
  8
MITTELLINIEN
390
0
100
AcDbLine
 10
53.0242524861
 20
151.3895017612
 30
0.0
 11
52.8493331682
 21
135.8904887851
 31
0.0
  0
LINE
  5
1E3
100
AcDbEntity
  8
UNSICHTBARE
390
0
100
AcDbLine
 10
54.6235242639
 20
145.8484873063
 30
0.0
 11
50.7326206356
 21
142.04442777
 31
0.0
  0
LINE
  5
1E4
100
AcDbEntity
  8
UNSICHTBARE
390
0
100
AcDbLine
 10
55.1827895823
 20
145.2764538894
 30
0.0
 11
51.2918859541
 21
141.472394353
 31
0.0
  0
CIRCLE
  5
1E5
100
AcDbEntity
  8
UNSICHTBARE
390
0
100
AcDbCircle
 10
79.2688075619
 20
169.9720100078
 30
0.0
 40
2.75
  0
LINE
  5
1E6
100
AcDbEntity
  8
MITTELLINIEN
390
0
100
AcDbLine
 10
71.5193010738
 20
170.0594696667
 30
0.0
 11
87.0183140499
 21
169.8845503489
 31
0.0
  0
LINE
  5
1E7
100
AcDbEntity
  8
MITTELLINIEN
390
0
100
AcDbLine
 10
79.3562672208
 20
177.7215164959
 30
0.0
 11
79.1813479029
 21
162.2225035198
 31
0.0
  0
LINE
  5
1E8
100
AcDbEntity
  8
UNSICHTBARE
390
0
100
AcDbLine
 10
80.9555389986
 20
172.180502041
 30
0.0
 11
77.0646353703
 21
168.3764425047
 31
0.0
  0
LINE
  5
1E9
100
AcDbEntity
  8
UNSICHTBARE
390
0
100
AcDbLine
 10
81.514804317
 20
171.608468624
 30
0.0
 11
77.6239006888
 21
167.8044090877
 31
0.0
  0
MTEXT
  5
1EA
100
AcDbEntity
  8
BESCHRIFTUNG
390
0
100
AcDbMText
 10
41.3025158006
 20
283.6923367275
 30
0.0
 40
3.0
 41
0.0
 71
         1
 72
         1
  3
\W0.972811;Umlenkrollenhalter\PUmlenkrolle\PZweifachhebel-Abtriebrad für Anlenkung\P   Hebel ^ : Gestänge >; v: >\PDoppelhebel-Abtriebabtriebsrad für Anlenkung\P   Hebel ^ : Gestänge >; v: >\PDoppelhebel-Abtriebleerrad\PAbtriebrillenscheibe\P   Hebel 
  3
^ : Gestänge =; v: >\P   umgekehrt montiert: ^ : >; v: =\PAnlenkung\P\PM3x25 Radachse\PM3x5 Rahmenbefestigung\PM3x5 Seilbefestigung\PM3x35 Anlenkungsachse\PM3x8 Scheibenbefestigung\PM3x8(Stift) Anlenkungszapfen innen\PM3x5(Stift) Anlenkungszapfen auße
  1
n\P
  7
Arial
 73
         1
 44
0.66
  0
MTEXT
  5
1EB
100
AcDbEntity
  8
BESCHRIFTUNG
390
0
100
AcDbMText
 10
21.0525158006
 20
283.6923367275
 30
0.0
 40
3.0
 41
0.0
 71
         1
 72
         1
  1
\W1.135134;2502.1/5\P2502.2\P2502.5/5\P\P2502.6/5\P\P2502.7/5\P\P\P2502.8\P2502.9\P\P2502.51\P2502.52\P2502.53\P2502.54\P2502.55\P2502.56\P2502.57\P
  7
Arial
 73
         1
 44
0.66
  0
CIRCLE
  5
1EC
100
AcDbEntity
  8
2501_2-4 ROLLEN
390
0
100
AcDbCircle
 10
58.5014022962
 20
64.4074005382
 30
0.0
 40
24.5
  0
CIRCLE
  5
1ED
100
AcDbEntity
  8
2501_2-4 ROLLEN
390
0
  6
DASHED
100
AcDbCircle
 10
58.5014022962
 20
64.4074005382
 30
0.0
 40
23.5
  0
CIRCLE
  5
1EE
100
AcDbEntity
  8
2501_2-4 ROLLEN
390
0
100
AcDbCircle
 10
58.5014022962
 20
42.4074005382
 30
0.0
 40
1.75
  0
CIRCLE
  5
1EF
100
AcDbEntity
  8
2501_2-4 ROLLEN
390
0
100
AcDbCircle
 10
63.5695331561
 20
44.5437641746
 30
0.0
 40
1.25
  0
CIRCLE
  5
1F0
100
AcDbEntity
  8
2501_2-4 ROLLEN
390
0
  6
DASHED
100
AcDbCircle
 10
55.7356045499
 20
63.2453494102
 30
0.0
 40
16.5
  0
CIRCLE
  5
1F1
100
AcDbEntity
  8
2501_2-4 ROLLEN
390
0
  6
DASHED
100
AcDbCircle
 10
55.7356045499
 20
63.2453494102
 30
0.0
 40
14.5
  0
CIRCLE
  5
1F2
100
AcDbEntity
  8
2501_2-4 ROLLEN
390
0
100
AcDbCircle
 10
43.2986065008
 20
79.6101963336
 30
0.0
 40
1.25
  0
CIRCLE
  5
1F3
100
AcDbEntity
  8
2501_2-4 ROLLEN
390
0
100
AcDbCircle
 10
52.9367928265
 20
43.6399952732
 30
0.0
 40
1.25
  0
CIRCLE
  5
1F4
100
AcDbEntity
  8
2501_2-4 ROLLEN
390
0
100
AcDbCircle
 10
79.2688075612
 20
69.9720100078
 30
0.0
 40
1.25
  0
LINE
  5
1F5
100
AcDbEntity
  8
MITTELLINIEN
390
0
100
AcDbLine
 10
52.0014022962
 20
64.4074005382
 30
0.0
 11
65.0014022962
 21
64.4074005382
 31
0.0
  0
LINE
  5
1F6
100
AcDbEntity
  8
MITTELLINIEN
390
0
100
AcDbLine
 10
58.5014022962
 20
57.9074005382
 30
0.0
 11
58.5014022962
 21
70.9074005382
 31
0.0
  0
ARC
  5
1F7
100
AcDbEntity
  8
2501_2-4 ROLLEN
390
0
100
AcDbCircle
 10
58.0014022962
 20
64.4074005382
 30
0.0
 40
1.0
100
AcDbArc
 50
90.0
 51
270.0
  0
ARC
  5
1F8
100
AcDbEntity
  8
2501_2-4 ROLLEN
390
0
100
AcDbCircle
 10
59.0014022962
 20
64.4074005382
 30
0.0
 40
1.0
100
AcDbArc
 50
270.0
 51
450.0
  0
LINE
  5
1F9
100
AcDbEntity
  8
2501_2-4 ROLLEN
390
0
100
AcDbLine
 10
58.0014022962
 20
65.4074005382
 30
0.0
 11
59.0014022962
 21
65.4074005382
 31
0.0
  0
LINE
  5
1FA
100
AcDbEntity
  8
2501_2-4 ROLLEN
390
0
100
AcDbLine
 10
59.0014022962
 20
63.4074005382
 30
0.0
 11
58.0014022962
 21
63.4074005382
 31
0.0
  0
ARC
  5
1FB
100
AcDbEntity
  8
2501_2-4 ROLLEN
390
0
100
AcDbCircle
 10
123.0014022962
 20
64.4074005382
 30
0.0
 40
1.0
100
AcDbArc
 50
90.0
 51
270.0
  0
CIRCLE
  5
1FC
100
AcDbEntity
  8
2501_2-4 ROLLEN
390
0
100
AcDbCircle
 10
123.5014022962
 20
64.4074005382
 30
0.0
 40
24.5
  0
CIRCLE
  5
1FD
100
AcDbEntity
  8
2501_2-4 ROLLEN
390
0
  6
DASHED
100
AcDbCircle
 10
123.5014022962
 20
64.4074005382
 30
0.0
 40
23.5
  0
ARC
  5
1FE
100
AcDbEntity
  8
2501_2-4 ROLLEN
390
0
100
AcDbCircle
 10
124.0014022962
 20
64.4074005382
 30
0.0
 40
1.0
100
AcDbArc
 50
270.0
 51
450.0
  0
CIRCLE
  5
1FF
100
AcDbEntity
  8
2501_2-4 ROLLEN
390
0
100
AcDbCircle
 10
123.5014022962
 20
42.4074005382
 30
0.0
 40
1.75
  0
CIRCLE
  5
200
100
AcDbEntity
  8
2501_2-4 ROLLEN
390
0
100
AcDbCircle
 10
128.5695331561
 20
44.5437641746
 30
0.0
 40
1.25
  0
LINE
  5
201
100
AcDbEntity
  8
MITTELLINIEN
390
0
100
AcDbLine
 10
117.0014022962
 20
64.4074005382
 30
0.0
 11
130.0014022962
 21
64.4074005382
 31
0.0
  0
LINE
  5
202
100
AcDbEntity
  8
MITTELLINIEN
390
0
100
AcDbLine
 10
123.5014022962
 20
57.9074005382
 30
0.0
 11
123.5014022962
 21
70.9074005382
 31
0.0
  0
LINE
  5
203
100
AcDbEntity
  8
2501_2-4 ROLLEN
390
0
100
AcDbLine
 10
124.0014022962
 20
63.4074005382
 30
0.0
 11
123.0014022962
 21
63.4074005382
 31
0.0
  0
LINE
  5
204
100
AcDbEntity
  8
2501_2-4 ROLLEN
390
0
100
AcDbLine
 10
123.0014022962
 20
65.4074005382
 30
0.0
 11
124.0014022962
 21
65.4074005382
 31
0.0
  0
CIRCLE
  5
205
100
AcDbEntity
  8
2501_2-4 ROLLEN
390
0
100
AcDbCircle
 10
58.5014022962
 20
164.4074005382
 30
0.0
 40
2.5
  0
LINE
  5
206
100
AcDbEntity
  8
2501_1 UNTERZUGRAHMEN
370
        18
390
0
100
AcDbLine
 10
132.9966836704
 20
117.4074005382
 30
0.0
 11
132.9966836704
 21
132.4074005382
 31
0.0
  0
LINE
  5
207
100
AcDbEntity
  8
2501_1 UNTERZUGRAHMEN
390
0
100
AcDbLine
 10
83.0014022962
 20
117.4074005382
 30
0.0
 11
132.9866836704
 21
117.4074005382
 31
0.0
  0
LINE
  5
208
100
AcDbEntity
  8
2501_1 UNTERZUGRAHMEN
390
0
100
AcDbLine
 10
18.5023685063
 20
130.4074005382
 30
0.0
 11
132.9966836704
 21
130.4074005382
 31
0.0
  0
LINE
  5
209
100
AcDbEntity
  8
2501_1 UNTERZUGRAHMEN
390
0
100
AcDbLine
 10
34.0014022962
 20
121.4074005382
 30
0.0
 11
83.0014022962
 21
121.4074005382
 31
0.0
  0
CIRCLE
  5
20A
100
AcDbEntity
  8
2501_1 UNTERZUGRAHMEN
390
0
100
AcDbCircle
 10
25.0023685063
 20
123.9074005382
 30
0.0
 40
1.25
  0
CIRCLE
  5
20B
100
AcDbEntity
  8
2501_1 UNTERZUGRAHMEN
390
0
100
AcDbCircle
 10
126.4966836704
 20
123.9074005382
 30
0.0
 40
1.25
  0
LINE
  5
20C
100
AcDbEntity
  8
2501_1 UNTERZUGRAHMEN
390
0
100
AcDbLine
 10
34.0014022962
 20
117.4074005382
 30
0.0
 11
34.0014022962
 21
121.4074005382
 31
0.0
  0
LINE
  5
20D
100
AcDbEntity
  8
2501_1 UNTERZUGRAHMEN
390
0
100
AcDbLine
 10
83.0014022962
 20
117.4074005382
 30
0.0
 11
83.0014022962
 21
121.4074005382
 31
0.0
  0
LINE
  5
20E
100
AcDbEntity
  8
2501_1 UNTERZUGRAHMEN
370
        18
390
0
100
AcDbLine
 10
18.5023685063
 20
117.4074005382
 30
0.0
 11
18.5023685063
 21
132.4074005382
 31
0.0
  0
LINE
  5
20F
100
AcDbEntity
  8
2501_1 UNTERZUGRAHMEN
390
0
100
AcDbLine
 10
18.5023685063
 20
132.4074005382
 30
0.0
 11
132.9966836704
 21
132.4074005382
 31
0.0
  0
LINE
  5
210
100
AcDbEntity
  8
2501_1 UNTERZUGRAHMEN
390
0
100
AcDbLine
 10
18.5023685063
 20
117.4074005382
 30
0.0
 11
34.0014022962
 21
117.4074005382
 31
0.0
  0
TEXT
  5
211
100
AcDbEntity
  8
BESCHRIFTUNG
390
0
100
AcDbText
 10
64.3457490706
 20
136.7644383225
 30
0.0
 40
2.0
  1
2502.53
 41
1.1351390947
  7
Arial
100
AcDbText
  0
TEXT
  5
212
100
AcDbEntity
  8
BESCHRIFTUNG
390
0
100
AcDbText
 10
38.8271659924
 20
190.915987995
 30
0.0
 40
3.0
  1
2502.5/5
 41
1.1351340038
  7
Arial
100
AcDbText
  0
TEXT
  5
213
100
AcDbEntity
  8
BESCHRIFTUNG
390
0
100
AcDbText
 10
127.4415160756
 20
143.6714818766
 30
0.0
 40
2.0
  1
2501.52
 41
1.1351390723
  7
Arial
100
AcDbText
  0
TEXT
  5
214
100
AcDbEntity
  8
BESCHRIFTUNG
390
0
100
AcDbText
 10
19.2137035756
 20
139.4105443766
 30
0.0
 40
2.0
  1
2502.52
 41
1.1351389599
  7
Arial
100
AcDbText
  0
TEXT
  5
215
100
AcDbEntity
  8
BESCHRIFTUNG
390
0
100
AcDbText
 10
88.2540409924
 20
171.741769245
 30
0.0
 40
3.0
  1
2502.9
 41
1.1351379131
  7
Arial
100
AcDbText
  0
TEXT
  5
216
100
AcDbEntity
  8
BESCHRIFTUNG
390
0
100
AcDbText
 10
17.100993345
 20
168.8177411513
 30
0.0
 40
3.0
  1
2501.1
 41
1.1351381522
  7
Arial
100
AcDbText
  0
TEXT
  5
217
100
AcDbEntity
  8
BESCHRIFTUNG
390
0
100
AcDbText
 10
52.8412178206
 20
158.9213133225
 30
0.0
 40
2.0
  1
2501.51
 41
1.1351391847
  7
Arial
100
AcDbText
  0
TEXT
  5
218
100
AcDbEntity
  8
BESCHRIFTUNG
390
0
100
AcDbText
 10
54.4232970688
 20
171.46854707
 30
0.0
 40
2.0
  1
2502.56
 41
1.1351390723
  7
Arial
100
AcDbText
  0
TEXT
  5
219
100
AcDbEntity
  8
BESCHRIFTUNG
390
0
100
AcDbText
 10
89.9113740706
 20
158.0691258225
 30
0.0
 40
2.0
  1
2502.54
 41
1.1351390723
  7
Arial
100
AcDbText
  0
TEXT
  5
21A
100
AcDbEntity
  8
BESCHRIFTUNG
390
0
100
AcDbText
 10
76.630276122
 20
143.1263055997
 30
0.0
 40
3.0
  1
2502.8
 41
1.1351379928
  7
Arial
100
AcDbText
  0
TEXT
  5
21B
100
AcDbEntity
  8
BESCHRIFTUNG
390
0
100
AcDbText
 10
50.005493425
 20
91.4829683838
 30
0.0
 40
3.0
  1
2502.6/5
 41
1.1351340873
  7
Arial
100
AcDbText
  0
TEXT
  5
21C
100
AcDbEntity
  8
BESCHRIFTUNG
390
0
100
AcDbText
 10
109.6379576437
 20
91.9349510332
 30
0.0
 40
3.0
  1
2502.7/5
 41
1.1351340247
  7
Arial
100
AcDbText
  0
TEXT
  5
21D
100
AcDbEntity
  8
BESCHRIFTUNG
390
0
100
AcDbText
 10
54.4232970688
 20
168.0276288285
 30
0.0
 40
2.0
  1
2502.57
 41
1.1351390048
  7
Arial
100
AcDbText
  0
TEXT
  5
21E
100
AcDbEntity
  8
BESCHRIFTUNG
390
0
100
AcDbText
 10
39.6323115706
 20
137.6166258225
 30
0.0
 40
2.0
  1
2502.55
 41
1.1351389823
  7
Arial
100
AcDbText
  0
LINE
  5
21F
100
AcDbEntity
  8
MITTELLINIEN
390
0
100
AcDbLine
 10
65.7580265633
 20
167.5183562178
 30
0.0
 11
78.7580265633
 21
167.5183562178
 31
0.0
  0
LINE
  5
220
100
AcDbEntity
  8
MITTELLINIEN
390
0
100
AcDbLine
 10
72.2580265633
 20
161.0183562178
 30
0.0
 11
72.2580265633
 21
174.0183562178
 31
0.0
  0
LINE
  5
221
100
AcDbEntity
  8
HILFSLINIEN
390
0
100
AcDbLine
 10
64.5023685063
 20
152.4074005382
 30
0.0
 11
64.5023685063
 21
167.4074005382
 31
0.0
  0
LINE
  5
222
100
AcDbEntity
  8
MITTELLINIEN
390
0
100
AcDbLine
 10
65.7580265633
 20
167.5183562178
 30
0.0
 11
78.7580265633
 21
167.5183562178
 31
0.0
  0
LINE
  5
223
100
AcDbEntity
  8
MITTELLINIEN
390
0
100
AcDbLine
 10
72.2580265633
 20
161.0183562178
 30
0.0
 11
72.2580265633
 21
174.0183562178
 31
0.0
  0
CIRCLE
  5
224
100
AcDbEntity
  8
UNSICHTBARE
390
0
100
AcDbCircle
 10
69.5023685063
 20
158.4074005382
 30
0.0
 40
2.75
  0
LINE
  5
225
100
AcDbEntity
  8
MITTELLINIEN
390
0
100
AcDbLine
 10
69.5023685063
 20
166.1574005382
 30
0.0
 11
69.5023685063
 21
150.6574005382
 31
0.0
  0
LINE
  5
226
100
AcDbEntity
  8
MITTELLINIEN
390
0
100
AcDbLine
 10
77.2523685063
 20
158.4074005382
 30
0.0
 11
61.7523685063
 21
158.4074005382
 31
0.0
  0
LINE
  5
227
100
AcDbEntity
  8
UNSICHTBARE
390
0
100
AcDbLine
 10
71.7297548671
 20
156.7456996024
 30
0.0
 11
67.8820282656
 21
160.5934262039
 31
0.0
  0
LINE
  5
228
100
AcDbEntity
  8
UNSICHTBARE
390
0
100
AcDbLine
 10
71.1640692513
 20
156.1800144332
 30
0.0
 11
67.3163426498
 21
160.0277410347
 31
0.0
  0
CIRCLE
  5
229
100
AcDbEntity
  8
UNSICHTBARE
390
0
100
AcDbCircle
 10
69.5023685063
 20
164.4074005382
 30
0.0
 40
2.75
  0
LINE
  5
22A
100
AcDbEntity
  8
MITTELLINIEN
390
0
100
AcDbLine
 10
69.5023685063
 20
172.1574005382
 30
0.0
 11
69.5023685063
 21
156.6574005382
 31
0.0
  0
LINE
  5
22B
100
AcDbEntity
  8
MITTELLINIEN
390
0
100
AcDbLine
 10
77.2523685063
 20
164.4074005382
 30
0.0
 11
61.7523685063
 21
164.4074005382
 31
0.0
  0
LINE
  5
22C
100
AcDbEntity
  8
UNSICHTBARE
390
0
100
AcDbLine
 10
71.7297548671
 20
162.7456996024
 30
0.0
 11
67.8820282656
 21
166.5934262039
 31
0.0
  0
LINE
  5
22D
100
AcDbEntity
  8
UNSICHTBARE
390
0
100
AcDbLine
 10
71.1640692513
 20
162.1800144332
 30
0.0
 11
67.3163426498
 21
166.0277410347
 31
0.0
  0
CIRCLE
  5
22E
100
AcDbEntity
  8
2501_2-4 ROLLEN
390
0
100
AcDbCircle
 10
67.7613001501
 20
199.9074005382
 30
0.0
 40
11.5
  0
CIRCLE
  5
22F
100
AcDbEntity
  8
2501_1 UNTERZUGRAHMEN
390
0
100
AcDbCircle
 10
67.7613001501
 20
199.9074005382
 30
0.0
 40
1.5
  0
CIRCLE
  5
230
100
AcDbEntity
  8
2501_2-4 ROLLEN
390
0
  6
DASHED
100
AcDbCircle
 10
67.7613001501
 20
199.9074005382
 30
0.0
 40
10.5
  0
CIRCLE
  5
231
100
AcDbEntity
  8
2501_1 UNTERZUGRAHMEN
390
0
100
AcDbCircle
 10
69.5023685063
 20
164.4074005382
 30
0.0
 40
1.5
  0
CIRCLE
  5
232
100
AcDbEntity
  8
2501_1 UNTERZUGRAHMEN
390
0
100
AcDbCircle
 10
69.5023685063
 20
158.4074005382
 30
0.0
 40
1.5
  0
LINE
  5
233
100
AcDbEntity
  8
KONSTRUKTION
390
0
  6
DASHDOT
100
AcDbLine
 10
69.3589282937
 20
189.428172794
 30
0.0
 11
57.8813203229
 21
188.1480758036
 31
0.0
  0
LINE
  5
234
100
AcDbEntity
  8
2501_1 UNTERZUGRAHMEN
390
0
100
AcDbLine
 10
64.5023685063
 20
154.4074005382
 30
0.0
 11
64.5023685063
 21
204.9074005382
 31
0.0
  0
LINE
  5
235
100
AcDbEntity
  8
2501_1 UNTERZUGRAHMEN
390
0
100
AcDbLine
 10
64.6318343282
 20
204.9074005382
 30
0.0
 11
74.6318343282
 21
204.9074005382
 31
0.0
  0
LINE
  5
236
100
AcDbEntity
  8
2501_1 UNTERZUGRAHMEN
390
0
100
AcDbLine
 10
74.5023685063
 20
204.9074005382
 30
0.0
 11
74.5023685063
 21
154.4074005382
 31
0.0
  0
LINE
  5
237
100
AcDbEntity
  8
KONSTRUKTION
390
0
  6
DASHDOT
100
AcDbLine
 10
76.4705782404
 20
206.0694336694
 30
0.0
 11
69.6433942915
 21
216.3102095927
 31
0.0
  0
CIRCLE
  5
238
100
AcDbEntity
  8
2501_7 HEBEL 22_5_0_22_5
390
0
100
AcDbCircle
 10
80.9967989684
 20
184.1788588887
 30
0.0
 40
1.25
  0
CIRCLE
  5
239
100
AcDbEntity
  8
2501_7 HEBEL 22_5_0_22_5
390
0
100
AcDbCircle
 10
81.7108964668
 20
178.7254136692
 30
0.0
 40
1.25
  0
CIRCLE
  5
23A
100
AcDbEntity
  8
2501_7 HEBEL 22_5_0_22_5
390
0
100
AcDbCircle
 10
82.4249939653
 20
173.2719684496
 30
0.0
 40
1.25
  0
CIRCLE
  5
23B
100
AcDbEntity
  8
2501_7 HEBEL 22_5_0_22_5 UMGELEGT LI
390
0
100
AcDbCircle
 10
90.9244373357
 20
183.6325226914
 30
0.0
 40
1.25
  0
CIRCLE
  5
23C
100
AcDbEntity
  8
2501_7 HEBEL 22_5_0_22_5 UMGELEGT LI
390
0
100
AcDbCircle
 10
89.6162381297
 20
178.2903681787
 30
0.0
 40
1.25
  0
CIRCLE
  5
23D
100
AcDbEntity
  8
2501_7 HEBEL 22_5_0_22_5 UMGELEGT LI
390
0
100
AcDbCircle
 10
88.3080389237
 20
172.948213666
 30
0.0
 40
1.25
  0
LINE
  5
23E
100
AcDbEntity
  8
2501_1 UNTERZUGRAHMEN
390
0
100
AcDbLine
 10
174.4278135776
 20
152.4074005382
 30
0.0
 11
197.0688464076
 21
152.4074005382
 31
0.0
  0
LINE
  5
23F
100
AcDbEntity
  8
2501_1 UNTERZUGRAHMEN
390
0
100
AcDbLine
 10
175.6517311422
 20
150.4074005382
 30
0.0
 11
196.9652819544
 21
150.4074005382
 31
0.0
  0
CIRCLE
  5
240
100
AcDbEntity
  8
UNSICHTBARE
390
0
100
AcDbCircle
 10
65.2628830809
 20
166.2191338539
 30
0.0
 40
2.75
  0
LINE
  5
241
100
AcDbEntity
  8
MITTELLINIEN
390
0
100
AcDbLine
 10
57.5133765928
 20
166.3065935128
 30
0.0
 11
73.0123895689
 21
166.131674195
 31
0.0
  0
LINE
  5
242
100
AcDbEntity
  8
MITTELLINIEN
390
0
100
AcDbLine
 10
65.3503427398
 20
173.9686403419
 30
0.0
 11
65.1754234219
 21
158.4696273658
 31
0.0
  0
LINE
  5
243
100
AcDbEntity
  8
UNSICHTBARE
390
0
100
AcDbLine
 10
66.9496145176
 20
168.427625887
 30
0.0
 11
63.0587108893
 21
164.6235663507
 31
0.0
  0
LINE
  5
244
100
AcDbEntity
  8
UNSICHTBARE
390
0
100
AcDbLine
 10
67.508879836
 20
167.8555924701
 30
0.0
 11
63.6179762078
 21
164.0515329337
 31
0.0
  0
CIRCLE
  5
245
100
AcDbEntity
  8
2501_2-4 ROLLEN
390
0
100
AcDbCircle
 10
65.2628830802
 20
166.2191338539
 30
0.0
 40
1.25
  0
CIRCLE
  5
246
100
AcDbEntity
  8
2501_2-4 ROLLEN
390
0
100
AcDbCircle
 10
65.2628830802
 20
66.2191338539
 30
0.0
 40
1.25
  0
LINE
  5
247
100
AcDbEntity
  8
STANDARD
390
0
100
AcDbLine
 10
10.0
 20
5.0
 30
0.0
 11
10.0
 21
292.0
 31
0.0
  0
LINE
  5
248
100
AcDbEntity
  8
STANDARD
390
0
100
AcDbLine
 10
15.0
 20
287.0
 30
0.0
 11
205.0
 21
287.0
 31
0.0
  0
LINE
  5
249
100
AcDbEntity
  8
STANDARD
390
0
100
AcDbLine
 10
10.0
 20
292.0
 30
0.0
 11
15.0
 21
292.0
 31
0.0
  0
LINE
  5
24A
100
AcDbEntity
  8
STANDARD
390
0
100
AcDbLine
 10
10.0
 20
5.0
 30
0.0
 11
15.0
 21
5.0
 31
0.0
  0
LINE
  5
24B
100
AcDbEntity
  8
STANDARD
390
0
100
AcDbLine
 10
10.0
 20
244.1666666667
 30
0.0
 11
15.0
 21
244.1666666667
 31
0.0
  0
LINE
  5
24C
100
AcDbEntity
  8
STANDARD
390
0
100
AcDbLine
 10
10.0
 20
196.3333333333
 30
0.0
 11
15.0
 21
196.3333333333
 31
0.0
  0
LINE
  5
24D
100
AcDbEntity
  8
STANDARD
390
0
100
AcDbLine
 10
10.0
 20
148.5
 30
0.0
 11
15.0
 21
148.5
 31
0.0
  0
LINE
  5
24E
100
AcDbEntity
  8
STANDARD
390
0
100
AcDbLine
 10
10.0
 20
100.6666666667
 30
0.0
 11
15.0
 21
100.6666666667
 31
0.0
  0
LINE
  5
24F
100
AcDbEntity
  8
STANDARD
390
0
100
AcDbLine
 10
10.0
 20
52.8333333333
 30
0.0
 11
15.0
 21
52.8333333333
 31
0.0
  0
LINE
  5
250
100
AcDbEntity
  8
STANDARD
390
0
100
AcDbLine
 10
157.5
 20
292.0
 30
0.0
 11
157.5
 21
287.0
 31
0.0
  0
LINE
  5
251
100
AcDbEntity
  8
STANDARD
390
0
100
AcDbLine
 10
110.0
 20
292.0
 30
0.0
 11
110.0
 21
287.0
 31
0.0
  0
LINE
  5
252
100
AcDbEntity
  8
STANDARD
390
0
100
AcDbLine
 10
62.5
 20
292.0
 30
0.0
 11
62.5
 21
287.0
 31
0.0
  0
TEXT
  5
253
100
AcDbEntity
  8
STANDARD
390
0
100
AcDbText
 10
10.9491078691
 20
267.8641561278
 30
0.0
 40
2.23125
  1
A
 41
1.547986837
  7
Arial
 72
         1
 11
12.6760806841
 21
270.0954061278
 31
0.0
100
AcDbText
 73
         3
  0
TEXT
  5
254
100
AcDbEntity
  8
STANDARD
390
0
100
AcDbText
 10
10.9491074243
 20
220.0308227945
 30
0.0
 40
2.23125
  1
B
 41
1.5479872357
  7
Arial
 72
         1
 11
12.6760806841
 21
222.2620727945
 31
0.0
100
AcDbText
 73
         3
  0
TEXT
  5
255
100
AcDbEntity
  8
STANDARD
390
0
100
AcDbText
 10
10.9489779593
 20
172.1974894612
 30
0.0
 40
2.23125
  1
C
 41
1.5481032827
  7
Arial
 72
         1
 11
12.6760806841
 21
174.4287394612
 31
0.0
100
AcDbText
 73
         3
  0
TEXT
  5
256
100
AcDbEntity
  8
STANDARD
390
0
100
AcDbText
 10
10.9489771034
 20
124.3641561278
 30
0.0
 40
2.23125
  1
D
 41
1.54810405
  7
Arial
 72
         1
 11
12.6760806841
 21
126.5954061278
 31
0.0
100
AcDbText
 73
         3
  0
TEXT
  5
257
100
AcDbEntity
  8
STANDARD
390
0
100
AcDbText
 10
10.9491076096
 20
76.5308227945
 30
0.0
 40
2.23125
  1
E
 41
1.5479870696
  7
Arial
 72
         1
 11
12.6760806841
 21
78.7620727945
 31
0.0
100
AcDbText
 73
         3
  0
TEXT
  5
258
100
AcDbEntity
  8
STANDARD
390
0
100
AcDbText
 10
10.9493506612
 20
28.6974894612
 30
0.0
 40
2.23125
  1
F
 41
1.5477692083
  7
Arial
 72
         1
 11
12.6760806841
 21
30.9287394612
 31
0.0
100
AcDbText
 73
         3
  0
TEXT
  5
259
100
AcDbEntity
  8
STANDARD
390
0
100
AcDbText
 10
36.7048241449
 20
288.48599354
 30
0.0
 40
2.23125
  1
1
 41
1.5479225906
  7
Arial
 72
         1
 11
38.0
 21
290.71724354
 31
0.0
100
AcDbText
 73
         3
  0
TEXT
  5
25A
100
AcDbEntity
  8
STANDARD
390
0
100
AcDbText
 10
83.7730999712
 20
288.48599354
 30
0.0
 40
2.23125
  1
2
 41
1.5479215945
  7
Arial
 72
         1
 11
85.5
 21
290.71724354
 31
0.0
100
AcDbText
 73
         3
  0
TEXT
  5
25B
100
AcDbEntity
  8
STANDARD
390
0
100
AcDbText
 10
131.2730986376
 20
288.48599354
 30
0.0
 40
2.23125
  1
3
 41
1.5479227899
  7
Arial
 72
         1
 11
133.0
 21
290.71724354
 31
0.0
100
AcDbText
 73
         3
  0
TEXT
  5
25C
100
AcDbEntity
  8
STANDARD
390
0
100
AcDbText
 10
178.7730988598
 20
288.48599354
 30
0.0
 40
2.23125
  1
4
 41
1.5479225906
  7
Arial
 72
         1
 11
180.5
 21
290.71724354
 31
0.0
100
AcDbText
 73
         3
  0
LINE
  5
25D
100
AcDbEntity
  8
STANDARD
390
0
100
AcDbLine
 10
205.0
 20
292.0
 30
0.0
 11
205.0
 21
287.0
 31
0.0
  0
LINE
  5
25E
100
AcDbEntity
  8
STANDARD
390
0
100
AcDbLine
 10
205.0
 20
5.0
 30
0.0
 11
15.0
 21
5.0
 31
0.0
  0
LINE
  5
25F
100
AcDbEntity
  8
STANDARD
390
0
100
AcDbLine
 10
15.0
 20
5.0
 30
0.0
 11
15.0
 21
287.0
 31
0.0
  0
LINE
  5
260
100
AcDbEntity
  8
STANDARD
390
0
100
AcDbLine
 10
15.0
 20
292.0
 30
0.0
 11
205.0
 21
292.0
 31
0.0
  0
LINE
  5
261
100
AcDbEntity
  8
STANDARD
390
0
100
AcDbLine
 10
1.0
 20
1.0
 30
0.0
 11
1.0
 21
296.0
 31
0.0
  0
LINE
  5
262
100
AcDbEntity
  8
STANDARD
390
0
100
AcDbLine
 10
209.0
 20
1.0
 30
0.0
 11
1.0
 21
1.0
 31
0.0
  0
LINE
  5
263
100
AcDbEntity
  8
STANDARD
390
0
100
AcDbLine
 10
209.0
 20
296.0
 30
0.0
 11
209.0
 21
1.0
 31
0.0
  0
LINE
  5
264
100
AcDbEntity
  8
STANDARD
390
0
100
AcDbLine
 10
1.0
 20
296.0
 30
0.0
 11
209.0
 21
296.0
 31
0.0
  0
LINE
  5
265
100
AcDbEntity
  8
STANDARD
390
0
100
AcDbLine
 10
15.0
 20
287.0
 30
0.0
 11
15.0
 21
292.0
 31
0.0
  0
LINE
  5
266
100
AcDbEntity
  8
STANDARD
390
0
100
AcDbLine
 10
205.0
 20
287.0
 30
0.0
 11
205.0
 21
5.0
 31
0.0
  0
MTEXT
  5
267
100
AcDbEntity
  8
STANDARD
390
0
100
AcDbMText
 10
203.6063292805
 20
81.4222772661
 30
0.0
 40
1.59375
 41
0.0
 71
         1
 72
         1
  1

  7
Arial
 11
0.0
 21
-1.0
 31
0.0
 73
         1
 44
1.0352941176
  0
MTEXT
  5
268
100
AcDbEntity
  8
STANDARD
390
0
100
AcDbMText
 10
116.6968769253
 20
27.5871143065
 30
0.0
 40
1.59375
 41
0.0
 71
         1
 72
         1
  1

  7
Arial
 11
0.0
 21
-1.0
 31
0.0
 73
         1
 44
1.0352941176
  0
MTEXT
  5
269
100
AcDbEntity
  8
STANDARD
390
0
100
AcDbMText
 10
203.6063292805
 20
125.7560948498
 30
0.0
 40
1.59375
 41
0.0
 71
         1
 72
         1
  1

  7
Arial
 11
0.0
 21
-1.0
 31
0.0
 73
         1
 44
1.0352941176
  0
LINE
  5
26A
100
AcDbEntity
  8
STANDARD
390
0
100
AcDbLine
 10
205.0
 20
182.1150997151
 30
0.0
 11
205.0
 21
5.1236467236
 31
0.0
  0
LINE
  5
26B
100
AcDbEntity
  8
STANDARD
370
         0
390
0
100
AcDbLine
 10
127.305982906
 20
34.4
 30
0.0
 11
127.305982906
 21
5.0
 31
0.0
  0
LINE
  5
26C
100
AcDbEntity
  8
STANDARD
370
         0
390
0
100
AcDbLine
 10
81.105982906
 20
34.4
 30
0.0
 11
205.0
 21
34.4
 31
0.0
  0
LINE
  5
26D
100
AcDbEntity
  8
STANDARD
370
         0
390
0
100
AcDbLine
 10
81.105982906
 20
27.4
 30
0.0
 11
205.0
 21
27.4
 31
0.0
  0
LINE
  5
26E
100
AcDbEntity
  8
STANDARD
370
         0
390
0
100
AcDbLine
 10
81.105982906
 20
12.0
 30
0.0
 11
205.0
 21
12.0
 31
0.0
  0
LINE
  5
26F
100
AcDbEntity
  8
STANDARD
370
         0
390
0
100
AcDbLine
 10
81.105982906
 20
34.4
 30
0.0
 11
81.105982906
 21
5.0
 31
0.0
  0
LINE
  5
270
100
AcDbEntity
  8
STANDARD
370
         0
390
0
100
AcDbLine
 10
165.105982906
 20
34.4
 30
0.0
 11
165.105982906
 21
27.4
 31
0.0
  0
TEXT
  5
271
100
AcDbEntity
  8
BESCHRIFTUNG
390
0
100
AcDbText
 10
82.2010860399
 20
29.1386
 30
0.0
 40
3.3
  1
Stellwerk HMM
 41
1.3758039542
 51
15.0
  7
Arial
 11
82.2010860399
 21
32.4386
 31
0.0
100
AcDbText
 73
         3
  0
TEXT
  5
272
100
AcDbEntity
  8
BESCHRIFTUNG
390
0
100
AcDbText
 10
128.6210415954
 20
21.6601111111
 30
0.0
 40
3.3
  1
Abtrieb für zwei Anlenkungen
 41
1.1301894341
 51
15.0
  7
Arial
 11
128.6210415954
 21
24.9601111111
 31
0.0
100
AcDbText
 73
         3
  0
TEXT
  5
273
100
AcDbEntity
  8
BESCHRIFTUNG
390
0
100
AcDbText
 10
82.2010860399
 20
6.9230888889
 30
0.0
 40
3.3
  1
Dateiname
 41
1.1437088374
 51
15.0
  7
Arial
 11
82.2010860399
 21
10.2230888889
 31
0.0
100
AcDbText
 73
         3
  0
TEXT
  5
274
100
AcDbEntity
  8
BESCHRIFTUNG
390
0
100
AcDbText
 10
82.4210415954
 20
21.6601111111
 30
0.0
 40
3.3
  1
Bl. 2502 Kv
 41
1.1437155093
 51
15.0
  7
Arial
 11
82.4210415954
 21
24.9601111111
 31
0.0
100
AcDbText
 73
         3
  0
TEXT
  5
275
100
AcDbEntity
  8
BESCHRIFTUNG
390
0
100
AcDbText
 10
166.2010860399
 20
29.1386
 30
0.0
 40
3.3
  1
Maßstab 1:1
 41
1.1437192123
 51
15.0
  7
Arial
 11
166.2010860399
 21
32.4386
 31
0.0
100
AcDbText
 73
         3
  0
ENDSEC
  0
SECTION
  2
OBJECTS
  0
DICTIONARY
  5
19
100
AcDbDictionary
280
         0
281
         1
  3
ACAD_GROUP
350
1A
  3
ACAD_MLINESTYLE
350
1B
  3
ACAD_LAYOUT
350
1E
  3
ACAD_PLOTSETTINGS
350
22
  3
ACAD_PLOTSTYLENAME
350
1F
  3
ACAD_WIPEOUT_VARS
350
23
  0
DICTIONARY
  5
1A
102
{ACAD_REACTORS
330
19
102
}
100
AcDbDictionary
280
         0
281
         1
  0
DICTIONARY
  5
1B
102
{ACAD_REACTORS
330
19
102
}
100
AcDbDictionary
280
         0
281
         1
  3
Standard
350
1C
  0
MLINESTYLE
  5
1C
102
{ACAD_REACTORS
330
1B
102
}
100
AcDbMlineStyle
  2
Standard
 70
         0
  3

 62
         0
 51
90.0
 52
90.0
 71
         2
 49
0.5
 62
       256
  6
ByLayer
 49
-0.5
 62
       256
  6
ByLayer
  0
ACDBDICTIONARYWDFLT
  5
1F
102
{ACAD_REACTORS
330
19
102
}
100
AcDbDictionary
281
         1
  3
Normal
350
1D
100
AcDbDictionaryWithDefault
340
1D
  0
ACDBPLACEHOLDER
  5
1D
102
{ACAD_REACTORS
330
1F
102
}
  0
LAYOUT
  5
20
102
{ACAD_REACTORS
330
1E
102
}
100
AcDbPlotSettings
  1

  2

  4

  6

 40
0.0
 41
0.0
 42
0.0
 43
0.0
 44
0.0
 45
0.0
 46
0.0
 47
0.0
 48
0.0
 49
0.0
140
0.0
141
0.0
142
1.0
143
1.0
 70
      1024
 72
         0
 73
         0
 74
         0
  7

 75
         0
147
1.0
148
0.0
149
0.0
100
AcDbLayout
  1
Model
 70
         0
 71
         0
 10
0.0
 20
0.0
 11
0.0
 21
0.0
 12
0.0
 22
0.0
 32
0.0
 14
0.0
 24
0.0
 34
0.0
 15
0.0
 25
0.0
 35
0.0
146
0.0
 13
0.0
 23
0.0
 33
0.0
 16
0.0
 26
0.0
 36
0.0
 17
0.0
 27
0.0
 37
0.0
 76
         0
330
A
331
0
345
0
346
0
  0
LAYOUT
  5
21
102
{ACAD_REACTORS
330
1E
102
}
100
AcDbPlotSettings
  1

  2

  4

  6

 40
0.0
 41
0.0
 42
0.0
 43
0.0
 44
0.0
 45
0.0
 46
0.0
 47
0.0
 48
0.0
 49
0.0
140
0.0
141
0.0
142
1.0
143
1.0
 70
         0
 72
         0
 73
         0
 74
         0
  7

 75
         0
147
1.0
148
0.0
149
0.0
100
AcDbLayout
  1
Layout1
 70
         0
 71
         0
 10
0.0
 20
0.0
 11
0.0
 21
0.0
 12
0.0
 22
0.0
 32
0.0
 14
0.0
 24
0.0
 34
0.0
 15
0.0
 25
0.0
 35
0.0
146
0.0
 13
0.0
 23
0.0
 33
0.0
 16
0.0
 26
0.0
 36
0.0
 17
0.0
 27
0.0
 37
0.0
 76
         0
330
B
331
0
345
0
346
0
  0
DICTIONARY
  5
1E
102
{ACAD_REACTORS
330
19
102
}
100
AcDbDictionary
280
         0
281
         1
  3
Layout1
350
21
  3
Model
350
20
  0
DICTIONARY
  5
22
102
{ACAD_REACTORS
330
19
102
}
100
AcDbDictionary
280
         0
281
         1
  0
WIPEOUTVARIABLES
  5
23
100
AcDbWipeoutVariables
 70
         1
  0
ENDSEC
  0
EOF
