  0
SECTION
  2
HEADER
  9
$ACADVER
  1
AC1015
  9
$ACADMAINTVER
 70
         6
  9
$DWGCODEPAGE
  3
ANSI_1252
  9
$INSBASE
 10
0.0
 20
0.0
 30
0.0
  9
$EXTMIN
 10
0.0
 20
0.0
 30
0.0
  9
$EXTMAX
 10
210.0
 20
297.0
 30
0.0
  9
$LIMMIN
 10
0.0
 20
0.0
  9
$LIMMAX
 10
210.0
 20
297.0
  9
$ORTHOMODE
 70
         0
  9
$REGENMODE
 70
         1
  9
$FILLMODE
 70
         1
  9
$QTEXTMODE
 70
         0
  9
$MIRRTEXT
 70
         1
  9
$LTSCALE
 40
5.25
  9
$ATTMODE
 70
         1
  9
$TEXTSIZE
 40
0.2
  9
$TRACEWID
 40
0.05
  9
$TEXTSTYLE
  7
Standard
  9
$CLAYER
  8
0
  9
$CELTYPE
  6
CONTINUOUS
  9
$CECOLOR
 62
       256
  9
$CELTSCALE
 40
1.0
  9
$DISPSILH
 70
         0
  9
$DIMSCALE
 40
1.0
  9
$DIMASZ
 40
0.18
  9
$DIMEXO
 40
0.0625
  9
$DIMDLI
 40
0.38
  9
$DIMRND
 40
0.0
  9
$DIMDLE
 40
0.0
  9
$DIMEXE
 40
0.18
  9
$DIMTP
 40
0.0
  9
$DIMTM
 40
0.0
  9
$DIMTXT
 40
3.0
  9
$DIMCEN
 40
0.09
  9
$DIMTSZ
 40
0.0
  9
$DIMTOL
 70
         0
  9
$DIMLIM
 70
         0
  9
$DIMTIH
 70
         1
  9
$DIMTOH
 70
         1
  9
$DIMSE1
 70
         0
  9
$DIMSE2
 70
         0
  9
$DIMTAD
 70
         1
  9
$DIMZIN
 70
         0
  9
$DIMBLK
  1

  9
$DIMASO
 70
         1
  9
$DIMSHO
 70
         1
  9
$DIMPOST
  1
<>
  9
$DIMAPOST
  1

  9
$DIMALT
 70
         0
  9
$DIMALTD
 70
         2
  9
$DIMALTF
 40
25.4
  9
$DIMLFAC
 40
1.0
  9
$DIMTOFL
 70
         0
  9
$DIMTVP
 40
0.0
  9
$DIMTIX
 70
         0
  9
$DIMSOXD
 70
         0
  9
$DIMSAH
 70
         0
  9
$DIMBLK1
  1

  9
$DIMBLK2
  1

  9
$DIMSTYLE
  2
Standard
  9
$DIMCLRD
 70
         0
  9
$DIMCLRE
 70
         0
  9
$DIMCLRT
 70
         0
  9
$DIMTFAC
 40
1.0
  9
$DIMGAP
 40
0.09
  9
$DIMJUST
 70
         0
  9
$DIMSD1
 70
         0
  9
$DIMSD2
 70
         0
  9
$DIMTOLJ
 70
         1
  9
$DIMTZIN
 70
         0
  9
$DIMALTZ
 70
         0
  9
$DIMALTTZ
 70
         0
  9
$DIMUPT
 70
         0
  9
$DIMDEC
 70
         4
  9
$DIMTDEC
 70
         4
  9
$DIMALTU
 70
         2
  9
$DIMALTTD
 70
         2
  9
$DIMTXSTY
  7
Standard
  9
$DIMAUNIT
 70
         0
  9
$DIMADEC
 70
         0
  9
$DIMALTRND
 40
0.0
  9
$DIMAZIN
 70
         0
  9
$DIMDSEP
 70
         0
  9
$DIMATFIT
 70
         3
  9
$DIMFRAC
 70
         0
  9
$DIMLDRBLK
  1

  9
$DIMLUNIT
 70
         2
  9
$DIMLWD
 70
         0
  9
$DIMLWE
 70
         0
  9
$DIMTMOVE
 70
         0
  9
$LUNITS
 70
         2
  9
$LUPREC
 70
         4
  9
$SKETCHINC
 40
0.1
  9
$FILLETRAD
 40
0.0
  9
$AUNITS
 70
         0
  9
$AUPREC
 70
         0
  9
$MENU
  1
acad
  9
$ELEVATION
 40
0.0
  9
$PELEVATION
 40
0.0
  9
$THICKNESS
 40
0.0
  9
$LIMCHECK
 70
         0
  9
$CHAMFERA
 40
0.0
  9
$CHAMFERB
 40
0.0
  9
$CHAMFERC
 40
0.0
  9
$CHAMFERD
 40
0.0
  9
$SKPOLY
 70
         0
  9
$TDCREATE
 40
0.000000000
  9
$TDUCREATE
 40
0.000000000
  9
$TDUPDATE
 40
0.000000000
  9
$TDUUPDATE
 40
0.000000000
  9
$TDINDWG
 40
0.0000000000
  9
$TDUSRTIMER
 40
0.0000000000
  9
$USRTIMER
 70
         1
  9
$ANGBASE
 50
0.0
  9
$ANGDIR
 70
         0
  9
$PDMODE
 70
         0
  9
$PDSIZE
 40
0.0
  9
$PLINEWID
 40
0.0
  9
$SPLFRAME
 70
         0
  9
$SPLINETYPE
 70
         6
  9
$SPLINESEGS
 70
         8
  9
$HANDSEED
  5
1F2
  9
$SURFTAB1
 70
         6
  9
$SURFTAB2
 70
         6
  9
$SURFTYPE
 70
         6
  9
$SURFU
 70
         6
  9
$SURFV
 70
         6
  9
$UCSBASE
  2

  9
$UCSNAME
  2

  9
$UCSORG
 10
0.0
 20
0.0
 30
0.0
  9
$UCSXDIR
 10
1.0
 20
0.0
 30
0.0
  9
$UCSYDIR
 10
0.0
 20
1.0
 30
0.0
  9
$UCSORTHOREF
  2

  9
$UCSORTHOVIEW
 70
         0
  9
$UCSORGTOP
 10
0.0
 20
0.0
 30
0.0
  9
$UCSORGBOTTOM
 10
0.0
 20
0.0
 30
0.0
  9
$UCSORGLEFT
 10
0.0
 20
0.0
 30
0.0
  9
$UCSORGRIGHT
 10
0.0
 20
0.0
 30
0.0
  9
$UCSORGFRONT
 10
0.0
 20
0.0
 30
0.0
  9
$UCSORGBACK
 10
0.0
 20
0.0
 30
0.0
  9
$PUCSBASE
  2

  9
$PUCSNAME
  2

  9
$PUCSORG
 10
0.0
 20
0.0
 30
0.0
  9
$PUCSXDIR
 10
1.0
 20
0.0
 30
0.0
  9
$PUCSYDIR
 10
0.0
 20
1.0
 30
0.0
  9
$PUCSORTHOREF
  2

  9
$PUCSORTHOVIEW
 70
         0
  9
$PUCSORGTOP
 10
0.0
 20
0.0
 30
0.0
  9
$PUCSORGBOTTOM
 10
0.0
 20
0.0
 30
0.0
  9
$PUCSORGLEFT
 10
0.0
 20
0.0
 30
0.0
  9
$PUCSORGRIGHT
 10
0.0
 20
0.0
 30
0.0
  9
$PUCSORGFRONT
 10
0.0
 20
0.0
 30
0.0
  9
$PUCSORGBACK
 10
0.0
 20
0.0
 30
0.0
  9
$USERI1
 70
         0
  9
$USERI2
 70
         0
  9
$USERI3
 70
         0
  9
$USERI4
 70
         0
  9
$USERI5
 70
         0
  9
$USERR1
 40
0.0
  9
$USERR2
 40
0.0
  9
$USERR3
 40
0.0
  9
$USERR4
 40
0.0
  9
$USERR5
 40
0.0
  9
$WORLDVIEW
 70
         1
  9
$SHADEDGE
 70
         3
  9
$SHADEDIF
 70
        70
  9
$TILEMODE
 70
         1
  9
$MAXACTVP
 70
        16
  9
$PINSBASE
 10
0.0
 20
0.0
 30
0.0
  9
$PLIMCHECK
 70
         0
  9
$PEXTMIN
 10
1.0000000000E+20
 20
1.0000000000E+20
 30
1.0000000000E+20
  9
$PEXTMAX
 10
-1.0000000000E+20
 20
-1.0000000000E+20
 30
-1.0000000000E+20
  9
$PLIMMIN
 10
0.0
 20
0.0
  9
$PLIMMAX
 10
12.0
 20
9.0
  9
$UNITMODE
 70
         0
  9
$VISRETAIN
 70
         0
  9
$PLINEGEN
 70
         1
  9
$PSLTSCALE
 70
         0
  9
$TREEDEPTH
 70
      3020
  9
$CMLSTYLE
  2
Standard
  9
$CMLJUST
 70
         0
  9
$CMLSCALE
 40
1.0
  9
$PROXYGRAPHICS
 70
         0
  9
$MEASUREMENT
 70
         1
  9
$CELWEIGHT
370
         0
  9
$ENDCAPS
280
         0
  9
$JOINSTYLE
280
         0
  9
$LWDISPLAY
290
         0
  9
$INSUNITS
 70
         0
  9
$HYPERLINKBASE
  1

  9
$STYLESHEET
  1

  9
$XEDIT
290
         1
  9
$CEPSNTYPE
380
         0
  9
$PSTYLEMODE
290
         1
  9
$FINGERPRINTGUID
  2

  9
$VERSIONGUID
  2

  9
$EXTNAMES
290
         1
  9
$PSVPSCALE
 40
0.0
  0
ENDSEC
  0
SECTION
  2
CLASSES
  0
CLASS
  1
LWPOLYLINE
  2
AcDbPolyline
  3
AutoCAD 2000
 90
        0
280
         0
281
         1
  0
CLASS
  1
IMAGE
  2
AcDbRasterImage
  3
ISM
 90
      127
280
         0
281
         1
  0
CLASS
  1
OLE2FRAME
  2
AcDbOle2Frame
  3
AutoCAD 2000
 90
        0
280
         0
281
         1
  0
CLASS
  1
HATCH
  2
AcDbHatch
  3
AutoCAD 2000
 90
        0
280
         0
281
         1
  0
CLASS
  1
DICTIONARYVAR
  2
AcDbDictionaryVar
  3
AutoCAD 2000
 90
        0
280
         0
281
         0
  0
CLASS
  1
RASTERVARIABLES
  2
AcDbRasterVariables
  3
ISM
 90
        0
280
         0
281
         0
  0
CLASS
  1
IMAGEDEF
  2
AcDbRasterImageDef
  3
ISM
 90
        0
280
         0
281
         0
  0
CLASS
  1
IMAGEDEF_REACTOR
  2
AcDbRasterImageDefReactor
  3
ISM
 90
        1
280
         0
281
         0
  0
CLASS
  1
IDBUFFER
  2
AcDbIdBuffer
  3
AutoCAD 2000
 90
        0
280
         0
281
         0
  0
CLASS
  1
SPATIAL_FILTER
  2
AcDbSpatialFilter
  3
AutoCAD 2000
 90
        0
280
         0
281
         0
  0
CLASS
  1
XRECORD
  2
AcDbXrecord
  3
AutoCAD 2000
 90
        0
280
         0
281
         0
  0
CLASS
  1
SORTENTSTABLE
  2
AcDbSortentsTable
  3
AutoCAD 2000
 90
        0
280
         0
281
         0
  0
CLASS
  1
LAYER_INDEX
  2
AcDbLayerIndex
  3
AutoCAD 2000
 90
        0
280
         0
281
         0
  0
CLASS
  1
SPATIAL_INDEX
  2
AcDbSpatialIndex
  3
AutoCAD 2000
 90
        0
280
         0
281
         0
  0
CLASS
  1
OBJECT_PTR
  2
CAseDLPNTableRecord
  3
"ASE-LPNTableRecord"
 90
        1
280
         0
281
         0
  0
CLASS
  1
LAYOUT
  2
AcDbLayout
  3
AutoCAD 2000
 90
        0
280
         0
281
         0
  0
CLASS
  1
PLOTSETTINGS
  2
AcDbPlotSettings
  3
AutoCAD 2000
 90
        0
280
         0
281
         0
  0
CLASS
  1
ACDBDICTIONARYWDFLT
  2
AcDbDictionaryWithDefault
  3
AutoCAD 2000
 90
        0
280
         0
281
         0
  0
CLASS
  1
ACDBPLACEHOLDER
  2
AcDbPlaceHolder
  3
AutoCAD 2000
 90
        0
280
         0
281
         0
  0
CLASS
  1
VBA_PROJECT
  2
AcDbVbaProject
  3
acadvba
 90
        0
280
         0
281
         0
  0
CLASS
  1
WIPEOUT
  2
AcDbWipeout
  3
WipeOut|AutoCAD Express Tool|expresstools@autodesk.com
 90
      127
280
         0
281
         1
  0
CLASS
  1
WIPEOUTVARIABLES
  2
AcDbWipeoutVariables
  3
WipeOut|AutoCAD Express Tool|expresstools@autodesk.com
 90
        0
280
         0
281
         0
  0
CLASS
  1
RTEXT
  2
RText
  3
RText|AutoCAD Express Tool|expresstools@autodesk.com
 90
        0
280
         0
281
         1
  0
CLASS
  1
ARCALIGNEDTEXT
  2
AcDbArcAlignedText
  3
ATEXT|AutoCAD Express Tool|expresstools@autodesk.com
 90
        0
280
         0
281
         1
  0
ENDSEC
  0
SECTION
  2
TABLES
  0
TABLE
  2
VPORT
  5
7
100
AcDbSymbolTable
 70
         1
  0
VPORT
  5
15
100
AcDbSymbolTableRecord
100
AcDbViewportTableRecord
  2
*ACTIVE
 70
         0
 10
0.0
 20
0.0
 11
1.0
 21
1.0
 12
105.0
 22
148.5
 13
0.0
 23
0.0
 14
1.0
 24
1.0
 15
0.0
 25
0.0
 16
0.0
 26
0.0
 36
1.0
 17
0.0
 27
0.0
 37
0.0
 40
462.5887784689
 41
1.0
 42
50.0
 43
0.0
 44
0.0
 50
0.0
 51
0.0
 71
         0
 72
       100
 73
         1
 74
         1
 75
         0
 76
         0
 77
         0
 78
         0
281
         0
 65
         0
110
0.0
120
0.0
130
0.0
111
1.0
121
0.0
131
0.0
112
0.0
122
1.0
132
0.0
345
0
346
0
 79
         0
146
0.0
  0
ENDTAB
  0
TABLE
  2
LTYPE
  5
4
100
AcDbSymbolTable
 70
        12
  0
LTYPE
  5
11
100
AcDbSymbolTableRecord
100
AcDbLinetypeTableRecord
  2
ByBlock
 70
        64
  3

 72
        65
 73
         0
 40
0.0
  0
LTYPE
  5
12
100
AcDbSymbolTableRecord
100
AcDbLinetypeTableRecord
  2
ByLayer
 70
        64
  3

 72
        65
 73
         0
 40
0.0
  0
LTYPE
  5
13
100
AcDbSymbolTableRecord
100
AcDbLinetypeTableRecord
  2
CONTINUOUS
 70
        64
  3
Solid Line
 72
        65
 73
         0
 40
0.0
  0
LTYPE
  5
24
100
AcDbSymbolTableRecord
100
AcDbLinetypeTableRecord
  2
DOT
 70
        64
  3
. . . . . . . . . . . . . . . . . . . . . . 
 72
        65
 73
         2
 40
0.25
 49
0.0
 74
         0
 49
-0.25
 74
         0
  0
LTYPE
  5
25
100
AcDbSymbolTableRecord
100
AcDbLinetypeTableRecord
  2
HIDDEN
 70
         0
  3
_ _ _ _ _ _ _ _ _ _ _ _ _ _ _ _ _ _ _ _ _ _ _
 72
        65
 73
         2
 40
0.375
 49
0.25
 74
         0
 49
-0.125
 74
         0
  0
LTYPE
  5
26
100
AcDbSymbolTableRecord
100
AcDbLinetypeTableRecord
  2
DASHDOT
 70
         0
  3
__ . __ . __ . __ . __ . __ . __ . __ . __ . __
 72
        65
 73
         4
 40
1.0
 49
0.5
 74
         0
 49
-0.25
 74
         0
 49
0.0
 74
         0
 49
-0.25
 74
         0
  0
LTYPE
  5
27
100
AcDbSymbolTableRecord
100
AcDbLinetypeTableRecord
  2
DIVIDE
 70
         0
  3
__ . . __ . . __ . . __ . . __ . . __ . . __
 72
        65
 73
         6
 40
1.25
 49
0.5
 74
         0
 49
-0.25
 74
         0
 49
0.0
 74
         0
 49
-0.25
 74
         0
 49
0.0
 74
         0
 49
-0.25
 74
         0
  0
LTYPE
  5
28
100
AcDbSymbolTableRecord
100
AcDbLinetypeTableRecord
  2
DASHED
 70
         0
  3
__ __ __ __ __ __ __ __ __ __ __ __ __ __ __
 72
        65
 73
         2
 40
0.75
 49
0.5
 74
         0
 49
-0.25
 74
         0
  0
LTYPE
  5
29
100
AcDbSymbolTableRecord
100
AcDbLinetypeTableRecord
  2
BORDER
 70
         0
  3
__ __ . __ __ . __ __ . __ __ . __ __ .
 72
        65
 73
         6
 40
1.75
 49
0.5
 74
         0
 49
-0.25
 74
         0
 49
0.5
 74
         0
 49
-0.25
 74
         0
 49
0.0
 74
         0
 49
-0.25
 74
         0
  0
LTYPE
  5
2A
100
AcDbSymbolTableRecord
100
AcDbLinetypeTableRecord
  2
CENTER
 70
         0
  3
____ _ ____ _ ____ _ ____ _ ____ _ ____
 72
        65
 73
         4
 40
2.0
 49
1.25
 74
         0
 49
-0.25
 74
         0
 49
0.25
 74
         0
 49
-0.25
 74
         0
  0
LTYPE
  5
2B
100
AcDbSymbolTableRecord
100
AcDbLinetypeTableRecord
  2
DOT2
 70
         0
  3
........................................
 72
        65
 73
         2
 40
0.125
 49
0.0
 74
         0
 49
-0.125
 74
         0
  0
LTYPE
  5
2C
100
AcDbSymbolTableRecord
100
AcDbLinetypeTableRecord
  2
PHANTOM
 70
         0
  3
______  __  __  ______  __  __  ______
 72
        65
 73
         6
 40
2.5
 49
1.25
 74
         0
 49
-0.25
 74
         0
 49
0.25
 74
         0
 49
-0.25
 74
         0
 49
0.25
 74
         0
 49
-0.25
 74
         0
  0
ENDTAB
  0
TABLE
  2
LAYER
  5
2
100
AcDbSymbolTable
 70
        75
  0
LAYER
  5
14
100
AcDbSymbolTableRecord
100
AcDbLayerTableRecord
  2
0
 70
         0
 62
         7
  6
CONTINUOUS
290
         1
370
        -3
390
1D
  0
LAYER
  5
33
100
AcDbSymbolTableRecord
100
AcDbLayerTableRecord
  2
BESCHRIFTUNG
 70
        64
 62
         7
  6
CONTINUOUS
290
         1
370
        25
390
1D
  0
LAYER
  5
34
100
AcDbSymbolTableRecord
100
AcDbLayerTableRecord
  2
SCHRAFFUR
 70
        64
 62
         7
  6
CONTINUOUS
290
         1
370
        25
390
1D
  0
LAYER
  5
35
100
AcDbSymbolTableRecord
100
AcDbLayerTableRecord
  2
MASSTEXTE
 70
        64
 62
       212
  6
CONTINUOUS
290
         1
370
        25
390
1D
  0
LAYER
  5
36
100
AcDbSymbolTableRecord
100
AcDbLayerTableRecord
  2
MASSLINIEN
 70
        64
 62
       172
  6
CONTINUOUS
290
         1
370
        25
390
1D
  0
LAYER
  5
37
100
AcDbSymbolTableRecord
100
AcDbLayerTableRecord
  2
MASSGRENZEN
 70
        64
 62
       172
  6
CONTINUOUS
290
         1
370
        25
390
1D
  0
LAYER
  5
38
100
AcDbSymbolTableRecord
100
AcDbLayerTableRecord
  2
TOLERANZEN
 70
        64
 62
       212
  6
CONTINUOUS
290
         1
370
         0
390
1D
  0
LAYER
  5
39
100
AcDbSymbolTableRecord
100
AcDbLayerTableRecord
  2
BEMASSUNG
 70
        64
 62
         7
  6
CONTINUOUS
290
         1
370
        25
390
1D
  0
LAYER
  5
3A
100
AcDbSymbolTableRecord
100
AcDbLayerTableRecord
  2
HILFSLINIEN
 70
        64
 62
         3
  6
CONTINUOUS
290
         1
370
         0
390
1D
  0
LAYER
  5
3B
100
AcDbSymbolTableRecord
100
AcDbLayerTableRecord
  2
MITTELLINIEN
 70
        64
 62
         5
  6
DASHDOT
290
         1
370
        25
390
1D
  0
LAYER
  5
3C
100
AcDbSymbolTableRecord
100
AcDbLayerTableRecord
  2
BESCHRIFTUNG00
 70
        64
 62
         7
  6
CONTINUOUS
290
         1
370
        25
390
1D
  0
LAYER
  5
3D
100
AcDbSymbolTableRecord
100
AcDbLayerTableRecord
  2
BESCHRIFTUNG0
 70
        64
 62
         7
  6
CONTINUOUS
290
         1
370
        25
390
1D
  0
LAYER
  5
3E
100
AcDbSymbolTableRecord
100
AcDbLayerTableRecord
  2
GEWINDELINIEN
 70
        64
 62
       212
  6
CONTINUOUS
290
         1
370
        25
390
1D
  0
LAYER
  5
3F
100
AcDbSymbolTableRecord
100
AcDbLayerTableRecord
  2
UNSICHTBARE
 70
        64
 62
        92
  6
DASHED
290
         1
370
        25
390
1D
  0
LAYER
  5
40
100
AcDbSymbolTableRecord
100
AcDbLayerTableRecord
  2
VERDECKTE
 70
        64
 62
        92
  6
DASHED
290
         1
370
        25
390
1D
  0
LAYER
  5
41
100
AcDbSymbolTableRecord
100
AcDbLayerTableRecord
  2
LICHTKANTEN
 70
        64
 62
         8
  6
CONTINUOUS
290
         1
370
        25
390
1D
  0
LAYER
  5
42
100
AcDbSymbolTableRecord
100
AcDbLayerTableRecord
  2
SCHNITTVERLAUF
 70
        64
 62
        34
  6
DASHDOT
290
         1
370
        70
390
1D
  0
LAYER
  5
43
100
AcDbSymbolTableRecord
100
AcDbLayerTableRecord
  2
KENNZEICHNUNG
 70
        64
 62
         7
  6
CONTINUOUS
290
         1
370
         0
390
1D
  0
LAYER
  5
44
100
AcDbSymbolTableRecord
100
AcDbLayerTableRecord
  2
PFEILE
 70
        64
 62
         7
  6
CONTINUOUS
290
         1
370
        70
390
1D
  0
LAYER
  5
45
100
AcDbSymbolTableRecord
100
AcDbLayerTableRecord
  2
SCHNITTDARSTELLUNG
 70
        64
 62
         7
  6
CONTINUOUS
290
         1
370
         0
390
1D
  0
LAYER
  5
46
100
AcDbSymbolTableRecord
100
AcDbLayerTableRecord
  2
2501_3P
 70
        64
 62
        30
  6
CONTINUOUS
290
         1
370
         0
390
1D
  0
LAYER
  5
47
100
AcDbSymbolTableRecord
100
AcDbLayerTableRecord
  2
2501_1L
 70
        64
 62
        30
  6
CONTINUOUS
290
         1
370
         0
390
1D
  0
LAYER
  5
48
100
AcDbSymbolTableRecord
100
AcDbLayerTableRecord
  2
2501_2P
 70
        64
 62
        30
  6
CONTINUOUS
290
         1
370
         0
390
1D
  0
LAYER
  5
49
100
AcDbSymbolTableRecord
100
AcDbLayerTableRecord
  2
2501_2T
 70
        64
 62
        14
  6
CONTINUOUS
290
         1
370
         0
390
1D
  0
LAYER
  5
4A
100
AcDbSymbolTableRecord
100
AcDbLayerTableRecord
  2
2501_1R
 70
        64
 62
        14
  6
CONTINUOUS
290
         1
370
         0
390
1D
  0
LAYER
  5
4B
100
AcDbSymbolTableRecord
100
AcDbLayerTableRecord
  2
2501_7P
 70
        64
 62
        30
  6
CONTINUOUS
290
         1
370
         0
390
1D
  0
LAYER
  5
4C
100
AcDbSymbolTableRecord
100
AcDbLayerTableRecord
  2
2501_7T
 70
        64
 62
        14
  6
CONTINUOUS
290
         1
370
         0
390
1D
  0
LAYER
  5
4D
100
AcDbSymbolTableRecord
100
AcDbLayerTableRecord
  2
2501_8P
 70
        64
 62
        30
  6
CONTINUOUS
290
         1
370
         0
390
1D
  0
LAYER
  5
4E
100
AcDbSymbolTableRecord
100
AcDbLayerTableRecord
  2
2501___ UNTERZUG FÜR EINZELHEBEL
 70
        64
 62
         6
  6
DASHDOT
290
         1
370
         0
390
1D
  0
LAYER
  5
4F
100
AcDbSymbolTableRecord
100
AcDbLayerTableRecord
  2
2500_1T
 70
        64
 62
        14
  6
CONTINUOUS
290
         1
370
         0
390
1D
  0
LAYER
  5
50
100
AcDbSymbolTableRecord
100
AcDbLayerTableRecord
  2
2500_1P
 70
        64
 62
        30
  6
CONTINUOUS
290
         1
370
         0
390
1D
  0
LAYER
  5
51
100
AcDbSymbolTableRecord
100
AcDbLayerTableRecord
  2
2500_2T
 70
        64
 62
        14
  6
CONTINUOUS
290
         1
370
         0
390
1D
  0
LAYER
  5
52
100
AcDbSymbolTableRecord
100
AcDbLayerTableRecord
  2
2500_2P
 70
        64
 62
        30
  6
CONTINUOUS
290
         1
370
         0
390
1D
  0
LAYER
  5
53
100
AcDbSymbolTableRecord
100
AcDbLayerTableRecord
  2
2500___ HILFSPFADE FÜR UNTERZUG
 70
        64
 62
         6
  6
DASHDOT
290
         1
370
         0
390
1D
  0
LAYER
  5
54
100
AcDbSymbolTableRecord
100
AcDbLayerTableRecord
  2
2502_5P
 70
        64
 62
        30
  6
CONTINUOUS
290
         1
370
         0
390
1D
  0
LAYER
  5
55
100
AcDbSymbolTableRecord
100
AcDbLayerTableRecord
  2
2502_5T
 70
        64
 62
        14
  6
CONTINUOUS
290
         1
370
         0
390
1D
  0
LAYER
  5
56
100
AcDbSymbolTableRecord
100
AcDbLayerTableRecord
  2
2502_7P
 70
        64
 62
        30
  6
CONTINUOUS
290
         1
370
         0
390
1D
  0
LAYER
  5
57
100
AcDbSymbolTableRecord
100
AcDbLayerTableRecord
  2
2502_7T
 70
        64
 62
        14
  6
CONTINUOUS
290
         1
370
         0
390
1D
  0
LAYER
  5
58
100
AcDbSymbolTableRecord
100
AcDbLayerTableRecord
  2
2502_9P
 70
        64
 62
        30
  6
CONTINUOUS
290
         1
370
         0
390
1D
  0
LAYER
  5
59
100
AcDbSymbolTableRecord
100
AcDbLayerTableRecord
  2
2502_1P
 70
        64
 62
        30
  6
CONTINUOUS
290
         1
370
         0
390
1D
  0
LAYER
  5
5A
100
AcDbSymbolTableRecord
100
AcDbLayerTableRecord
  2
2502_8P
 70
        64
 62
        30
  6
CONTINUOUS
290
         1
370
         0
390
1D
  0
LAYER
  5
5B
100
AcDbSymbolTableRecord
100
AcDbLayerTableRecord
  2
2502_4L
 70
        64
 62
        30
  6
CONTINUOUS
290
         1
370
         0
390
1D
  0
LAYER
  5
5C
100
AcDbSymbolTableRecord
100
AcDbLayerTableRecord
  2
2502_4R
 70
        64
 62
        14
  6
CONTINUOUS
290
         1
370
         0
390
1D
  0
LAYER
  5
5D
100
AcDbSymbolTableRecord
100
AcDbLayerTableRecord
  2
2502_6T
 70
        64
 62
        14
  6
CONTINUOUS
290
         1
370
         0
390
1D
  0
LAYER
  5
5E
100
AcDbSymbolTableRecord
100
AcDbLayerTableRecord
  2
2502_6P
 70
        64
 62
        30
  6
CONTINUOUS
290
         1
370
         0
390
1D
  0
LAYER
  5
5F
100
AcDbSymbolTableRecord
100
AcDbLayerTableRecord
  2
2502_2T
 70
        64
 62
        14
  6
CONTINUOUS
290
         1
370
         0
390
1D
  0
LAYER
  5
60
100
AcDbSymbolTableRecord
100
AcDbLayerTableRecord
  2
2502_2P
 70
        64
 62
        30
  6
CONTINUOUS
290
         1
370
         0
390
1D
  0
LAYER
  5
61
100
AcDbSymbolTableRecord
100
AcDbLayerTableRecord
  2
2502___ UNTERZUG FÜR ZWEI ATTRIEBE
 70
        64
 62
         6
  6
DASHDOT
290
         1
370
         0
390
1D
  0
LAYER
  5
62
100
AcDbSymbolTableRecord
100
AcDbLayerTableRecord
  2
PFADE
 70
        64
 62
        30
  6
CONTINUOUS
290
         1
370
         0
390
1D
  0
LAYER
  5
63
100
AcDbSymbolTableRecord
100
AcDbLayerTableRecord
  2
 2001_2 BODEN
 70
        64
 62
        14
  6
CONTINUOUS
290
         1
370
        18
390
1D
  0
LAYER
  5
64
100
AcDbSymbolTableRecord
100
AcDbLayerTableRecord
  2
 2001_1 RAHMEN
 70
        64
 62
         7
  6
CONTINUOUS
290
         1
370
        18
390
1D
  0
LAYER
  5
65
100
AcDbSymbolTableRecord
100
AcDbLayerTableRecord
  2
2001__ GEBÄUDE
 70
        64
 62
         7
  6
CONTINUOUS
290
         1
370
         0
390
1D
  0
LAYER
  5
66
100
AcDbSymbolTableRecord
100
AcDbLayerTableRecord
  2
2101__ HEBELBANK
 70
        64
 62
         9
  6
CONTINUOUS
290
         1
370
        18
390
1D
  0
LAYER
  5
67
100
AcDbSymbolTableRecord
100
AcDbLayerTableRecord
  2
2501_1 UNTERZUGRAHMEN
 70
        64
 62
         7
  6
CONTINUOUS
290
         1
370
         0
390
1D
  0
LAYER
  5
68
100
AcDbSymbolTableRecord
100
AcDbLayerTableRecord
  2
2501_2-4 ROLLEN UMGELEGT
 70
        64
 62
       134
  6
DASHED
290
         1
370
        18
390
1D
  0
LAYER
  5
69
100
AcDbSymbolTableRecord
100
AcDbLayerTableRecord
  2
2501_2-4 ROLLEN
 70
        64
 62
       134
  6
CONTINUOUS
290
         1
370
        18
390
1D
  0
LAYER
  5
6A
100
AcDbSymbolTableRecord
100
AcDbLayerTableRecord
  2
2501_5 SCHIEBER VERSCHOBEN
 70
        64
 62
       142
  6
DASHED
290
         1
370
        18
390
1D
  0
LAYER
  5
6B
100
AcDbSymbolTableRecord
100
AcDbLayerTableRecord
  2
2501_5 SCHIEBER
 70
        64
 62
       142
  6
CONTINUOUS
290
         1
370
        18
390
1D
  0
LAYER
  5
6C
100
AcDbSymbolTableRecord
100
AcDbLayerTableRecord
  2
2501_10 SCHALTER LINKS_OBEN
 70
        64
 62
       230
  6
DASHED
290
         1
370
        18
390
1D
  0
LAYER
  5
6D
100
AcDbSymbolTableRecord
100
AcDbLayerTableRecord
  2
2501_10 SCHALTER
 70
        64
 62
       230
  6
CONTINUOUS
290
         1
370
        18
390
1D
  0
LAYER
  5
6E
100
AcDbSymbolTableRecord
100
AcDbLayerTableRecord
  2
2501_6 HEBEL 0_0_22_5 UMGELEGT LI
 70
        64
 62
        30
  6
DASHED
290
         1
370
        18
390
1D
  0
LAYER
  5
6F
100
AcDbSymbolTableRecord
100
AcDbLayerTableRecord
  2
2501_6 HEBEL 0_0_22_5 UMGELEGT RE
 70
        64
 62
        30
  6
DASHDOT
290
         1
370
        18
390
1D
  0
LAYER
  5
70
100
AcDbSymbolTableRecord
100
AcDbLayerTableRecord
  2
2501_6 HEBEL 0_0_22_5
 70
        64
 62
        11
  6
CONTINUOUS
290
         1
370
        18
390
1D
  0
LAYER
  5
71
100
AcDbSymbolTableRecord
100
AcDbLayerTableRecord
  2
2501_7 HEBEL 22_5_0_22_5 UMGELEGT LI
 70
        64
 62
        34
  6
DASHED
290
         1
370
        18
390
1D
  0
LAYER
  5
72
100
AcDbSymbolTableRecord
100
AcDbLayerTableRecord
  2
2501_7 HEBEL 22_5_0_22_5 UMGELEGT RE
 70
        64
 62
        14
  6
DASHDOT
290
         1
370
        18
390
1D
  0
LAYER
  5
73
100
AcDbSymbolTableRecord
100
AcDbLayerTableRecord
  2
2501_7 HEBEL 22_5_0_22_5
 70
        64
 62
        14
  6
CONTINUOUS
290
         1
370
        18
390
1D
  0
LAYER
  5
74
100
AcDbSymbolTableRecord
100
AcDbLayerTableRecord
  2
2501_8 HEBEL 22_5_0_0 UMGELEGT LI
 70
        64
 62
        30
  6
DASHED
290
         1
370
        18
390
1D
  0
LAYER
  5
75
100
AcDbSymbolTableRecord
100
AcDbLayerTableRecord
  2
2501_8 HEBEL 22_5_0_0 UMGELEGT RE
 70
        64
 62
        30
  6
DASHDOT
290
         1
370
        18
390
1D
  0
LAYER
  5
76
100
AcDbSymbolTableRecord
100
AcDbLayerTableRecord
  2
2501_8 HEBEL 22_5_0_0
 70
        64
 62
       230
  6
CONTINUOUS
290
         1
370
        18
390
1D
  0
LAYER
  5
77
100
AcDbSymbolTableRecord
100
AcDbLayerTableRecord
  2
2501_9 HEBEL 22_5_0_-22_5 UMGELEGT LI0
 70
        64
 62
        34
  6
DASHED
290
         1
370
        18
390
1D
  0
LAYER
  5
78
100
AcDbSymbolTableRecord
100
AcDbLayerTableRecord
  2
2501_9 HEBEL 22_5_0_-22_5 UMGELEGT RE0
 70
        64
 62
        14
  6
DASHDOT
290
         1
370
        18
390
1D
  0
LAYER
  5
79
100
AcDbSymbolTableRecord
100
AcDbLayerTableRecord
  2
2501_9 HEBEL 22_5_0_-22_5
 70
        64
 62
       190
  6
CONTINUOUS
290
         1
370
        18
390
1D
  0
LAYER
  5
7A
100
AcDbSymbolTableRecord
100
AcDbLayerTableRecord
  2
2501__ UNTERZUG
 70
        64
 62
         9
  6
CONTINUOUS
290
         1
370
        18
390
1D
  0
LAYER
  5
7B
100
AcDbSymbolTableRecord
100
AcDbLayerTableRecord
  2
KONSTRUKTION
 70
        64
 62
         7
  6
CONTINUOUS
290
         1
370
         0
390
1D
  0
LAYER
  5
7C
100
AcDbSymbolTableRecord
100
AcDbLayerTableRecord
  2
STANDARD
 70
        64
 62
         7
  6
CONTINUOUS
290
         1
370
         0
390
1D
  0
ENDTAB
  0
TABLE
  2
STYLE
  5
3
100
AcDbSymbolTable
 70
         7
  0
STYLE
  5
17
100
AcDbSymbolTableRecord
100
AcDbTextStyleTableRecord
  2
Standard
 70
         0
 40
0.0
 41
1.0
 50
0.0
 71
         0
 42
0.0
  3
txt
  4

  0
STYLE
  5
2D
100
AcDbSymbolTableRecord
100
AcDbTextStyleTableRecord
  2
CADdy
 70
         0
 40
0.0
 41
1.0
 50
0.0
 71
         0
 42
3.5
  3
txt.shx
  4

  0
STYLE
  5
2E
100
AcDbSymbolTableRecord
100
AcDbTextStyleTableRecord
  2
Arial
 70
         0
 40
0.0
 41
1.0
 50
0.0
 71
         0
 42
3.5
  3
arial.ttf
  4

1001
ACAD
1000
Arial
1071
       34
  0
STYLE
  5
2F
100
AcDbSymbolTableRecord
100
AcDbTextStyleTableRecord
  2
Isonorm
 70
         0
 40
0.0
 41
1.0
 50
0.0
 71
         0
 42
3.5
  3
txt.shx
  4

  0
STYLE
  5
30
100
AcDbSymbolTableRecord
100
AcDbTextStyleTableRecord
  2
Tahoma
 70
         0
 40
0.0
 41
1.0
 50
0.0
 71
         0
 42
3.5
  3
tahoma.ttf
  4

1001
ACAD
1000
Tahoma
1071
       34
  0
STYLE
  5
31
100
AcDbSymbolTableRecord
100
AcDbTextStyleTableRecord
  2
Microsoft Sans Serif
 70
         0
 40
0.0
 41
1.0
 50
0.0
 71
         0
 42
3.5
  3
micross.ttf
  4

1001
ACAD
1000
Microsoft Sans Serif
1071
       34
  0
STYLE
  5
32
100
AcDbSymbolTableRecord
100
AcDbTextStyleTableRecord
  2
Arial Rounded MT Bold
 70
         0
 40
0.0
 41
1.0
 50
0.0
 71
         0
 42
3.5
  3
txt.shx
  4

  0
ENDTAB
  0
TABLE
  2
VIEW
  5
5
100
AcDbSymbolTable
 70
         0
  0
ENDTAB
  0
TABLE
  2
UCS
  5
6
100
AcDbSymbolTable
 70
         0
  0
ENDTAB
  0
TABLE
  2
APPID
  5
8
100
AcDbSymbolTable
 70
         1
  0
APPID
  5
16
100
AcDbSymbolTableRecord
100
AcDbRegAppTableRecord
  2
ACAD
 70
        64
  0
ENDTAB
  0
TABLE
  2
DIMSTYLE
  5
9
100
AcDbSymbolTable
 70
         1
100
AcDbDimStyleTable
 71
         0
  0
DIMSTYLE
105
18
100
AcDbSymbolTableRecord
100
AcDbDimStyleTableRecord
  2
Standard
 70
         0
  3

  4

 40
1.0
 41
0.18
 42
0.0625
 43
0.38
 44
0.18
 45
0.0
 46
0.0
 47
0.0
 48
0.0
 71
         0
 72
         0
 73
         1
 74
         1
 75
         0
 76
         0
 77
         0
 78
         0
 79
         0
140
0.18
141
0.09
142
0.0
143
25.4
144
1.0
145
0.0
146
1.0
147
0.09
148
0.0
170
         0
171
         2
172
         0
173
         0
174
         0
175
         0
176
         0
177
         0
178
         0
179
         0
271
         4
272
         4
273
         2
274
         2
275
         0
276
         0
277
         2
278
        46
279
         0
280
         0
281
         0
282
         0
283
         1
284
         0
285
         0
286
         0
288
         0
289
         3
340
17
341
0
342
0
343
0
344
0
371
        -2
372
        -2
  0
ENDTAB
  0
TABLE
  2
BLOCK_RECORD
  5
1
100
AcDbSymbolTable
 70
         9
  0
BLOCK_RECORD
  5
A
100
AcDbSymbolTableRecord
100
AcDbBlockTableRecord
  2
*MODEL_SPACE
340
20
  0
BLOCK_RECORD
  5
B
100
AcDbSymbolTableRecord
100
AcDbBlockTableRecord
  2
*PAPER_SPACE
340
21
  0
BLOCK_RECORD
  5
7D
100
AcDbSymbolTableRecord
100
AcDbBlockTableRecord
  2
D200596736
340
0
102
{BLKREFS
331
12C
102
}
  0
BLOCK_RECORD
  5
86
100
AcDbSymbolTableRecord
100
AcDbBlockTableRecord
  2
D200596992
340
0
102
{BLKREFS
331
12D
102
}
  0
BLOCK_RECORD
  5
8F
100
AcDbSymbolTableRecord
100
AcDbBlockTableRecord
  2
D200597248
340
0
102
{BLKREFS
331
153
102
}
  0
BLOCK_RECORD
  5
98
100
AcDbSymbolTableRecord
100
AcDbBlockTableRecord
  2
D200597504
340
0
102
{BLKREFS
331
154
102
}
  0
BLOCK_RECORD
  5
A1
100
AcDbSymbolTableRecord
100
AcDbBlockTableRecord
  2
D200597760
340
0
102
{BLKREFS
331
165
102
}
  0
BLOCK_RECORD
  5
AA
100
AcDbSymbolTableRecord
100
AcDbBlockTableRecord
  2
D200598016
340
0
102
{BLKREFS
331
166
102
}
  0
BLOCK_RECORD
  5
B3
100
AcDbSymbolTableRecord
100
AcDbBlockTableRecord
  2
D200598272
340
0
102
{BLKREFS
331
17B
102
}
  0
BLOCK_RECORD
  5
BC
100
AcDbSymbolTableRecord
100
AcDbBlockTableRecord
  2
D159464960
340
0
102
{BLKREFS
331
18D
102
}
  0
BLOCK_RECORD
  5
C5
100
AcDbSymbolTableRecord
100
AcDbBlockTableRecord
  2
D159469568
340
0
102
{BLKREFS
331
18E
102
}
  0
ENDTAB
  0
ENDSEC
  0
SECTION
  2
BLOCKS
  0
BLOCK
  5
D
100
AcDbEntity
  8
0
390
0
100
AcDbBlockBegin
  2
*MODEL_SPACE
 70
         0
 10
0.0
 20
0.0
 30
0.0
  3
*MODEL_SPACE
  1

  0
ENDBLK
  5
E
100
AcDbEntity
  8
0
390
0
100
AcDbBlockEnd
  0
BLOCK
  5
F
100
AcDbEntity
 67
         1
  8
0
390
0
100
AcDbBlockBegin
  2
*PAPER_SPACE
 70
         0
 10
0.0
 20
0.0
 30
0.0
  3
*PAPER_SPACE
  1

  0
ENDBLK
  5
10
100
AcDbEntity
 67
         1
  8
0
390
0
100
AcDbBlockEnd
  0
BLOCK
  5
7E
100
AcDbEntity
  8
BEMASSUNG
390
0
100
AcDbBlockBegin
  2
D200596736
 70
         0
 10
0.0
 20
0.0
 30
0.0
  3
D200596736
  1

  0
LINE
  5
7F
100
AcDbEntity
  8
MASSLINIEN
390
0
 62
       172
100
AcDbLine
 10
33.4833172746
 20
36.4099721325
 30
0.0
 11
83.4833172746
 21
36.4099721325
 31
0.0
  0
LINE
  5
80
100
AcDbEntity
  8
MASSLINIEN
390
0
 62
       172
100
AcDbLine
 10
33.4833172746
 20
105.6553579459
 30
0.0
 11
33.4833172746
 21
34.4099721325
 31
0.0
  0
LINE
  5
81
100
AcDbEntity
  8
MASSLINIEN
390
0
 62
       172
100
AcDbLine
 10
83.4833172746
 20
105.6553579459
 30
0.0
 11
83.4833172746
 21
34.4099721325
 31
0.0
  0
SOLID
  5
82
100
AcDbEntity
  8
MASSGRENZEN
390
0
100
AcDbTrace
 10
33.4833172746
 20
36.4099721325
 30
0.0
 11
36.4576518587
 21
36.8015507091
 31
0.0
 12
36.4576518587
 22
36.0183935558
 32
0.0
 13
36.4576518587
 23
36.0183935558
 33
0.0
  0
SOLID
  5
83
100
AcDbEntity
  8
MASSGRENZEN
390
0
100
AcDbTrace
 10
83.4833172746
 20
36.4099721325
 30
0.0
 11
80.5089826905
 21
36.0183935558
 31
0.0
 12
80.5089826905
 22
36.8015507091
 32
0.0
 13
80.5089826905
 23
36.8015507091
 33
0.0
  0
MTEXT
  5
84
100
AcDbEntity
  8
MASSTEXTE
390
0
 62
       212
100
AcDbMText
 10
58.4833172746
 20
38.8659721325
 30
0.0
 40
2.0
 41
0.0
 71
         5
 72
         1
  1
\W1.135145;\A1;50
  7
Arial
 73
         0
 44
0.0
  0
ENDBLK
  5
85
100
AcDbEntity
  8
0
390
0
100
AcDbBlockEnd
  0
BLOCK
  5
87
100
AcDbEntity
  8
BEMASSUNG
390
0
100
AcDbBlockBegin
  2
D200596992
 70
         0
 10
0.0
 20
0.0
 30
0.0
  3
D200596992
  1

  0
LINE
  5
88
100
AcDbEntity
  8
MASSLINIEN
390
0
 62
       172
100
AcDbLine
 10
113.2129612364
 20
105.1553579459
 30
0.0
 11
113.2129612364
 21
42.1553579478
 31
0.0
  0
LINE
  5
89
100
AcDbEntity
  8
MASSLINIEN
390
0
 62
       172
100
AcDbLine
 10
103.4833172746
 20
105.1553579459
 30
0.0
 11
115.2129612364
 21
105.1553579459
 31
0.0
  0
LINE
  5
8A
100
AcDbEntity
  8
MASSLINIEN
390
0
 62
       172
100
AcDbLine
 10
103.4833172746
 20
42.1553579478
 30
0.0
 11
115.2129612364
 21
42.1553579478
 31
0.0
  0
SOLID
  5
8B
100
AcDbEntity
  8
MASSGRENZEN
390
0
100
AcDbTrace
 10
113.2129612364
 20
105.1553579459
 30
0.0
 11
113.604539813
 21
102.1810233618
 31
0.0
 12
112.8213826597
 22
102.1810233618
 32
0.0
 13
112.8213826597
 23
102.1810233618
 33
0.0
  0
SOLID
  5
8C
100
AcDbEntity
  8
MASSGRENZEN
390
0
100
AcDbTrace
 10
113.2129612364
 20
42.1553579478
 30
0.0
 11
112.8213826597
 21
45.1296925319
 31
0.0
 12
113.604539813
 22
45.1296925319
 32
0.0
 13
113.604539813
 23
45.1296925319
 33
0.0
  0
MTEXT
  5
8D
100
AcDbEntity
  8
MASSTEXTE
390
0
 62
       212
100
AcDbMText
 10
110.7569612364
 20
73.6553579468
 30
0.0
 40
2.0
 41
0.0
 71
         5
 72
         1
  1
\W1.135146;\A1;63
  7
Arial
 11
0.0
 21
1.0
 31
0.0
 73
         0
 44
0.0
  0
ENDBLK
  5
8E
100
AcDbEntity
  8
0
390
0
100
AcDbBlockEnd
  0
BLOCK
  5
90
100
AcDbEntity
  8
BEMASSUNG
390
0
100
AcDbBlockBegin
  2
D200597248
 70
         0
 10
0.0
 20
0.0
 30
0.0
  3
D200597248
  1

  0
LINE
  5
91
100
AcDbEntity
  8
MASSLINIEN
390
0
 62
       172
100
AcDbLine
 10
143.341380439
 20
208.8444170789
 30
0.0
 11
193.341380439
 21
208.8444170789
 31
0.0
  0
LINE
  5
92
100
AcDbEntity
  8
MASSLINIEN
390
0
 62
       172
100
AcDbLine
 10
143.341380439
 20
232.9183608128
 30
0.0
 11
143.341380439
 21
206.8444170789
 31
0.0
  0
LINE
  5
93
100
AcDbEntity
  8
MASSLINIEN
390
0
 62
       172
100
AcDbLine
 10
193.341380439
 20
232.9183608128
 30
0.0
 11
193.341380439
 21
206.8444170789
 31
0.0
  0
SOLID
  5
94
100
AcDbEntity
  8
MASSGRENZEN
390
0
100
AcDbTrace
 10
143.341380439
 20
208.8444170789
 30
0.0
 11
146.3157150231
 21
209.2359956555
 31
0.0
 12
146.3157150231
 22
208.4528385022
 32
0.0
 13
146.3157150231
 23
208.4528385022
 33
0.0
  0
SOLID
  5
95
100
AcDbEntity
  8
MASSGRENZEN
390
0
100
AcDbTrace
 10
193.341380439
 20
208.8444170789
 30
0.0
 11
190.3670458549
 21
208.4528385022
 31
0.0
 12
190.3670458549
 22
209.2359956555
 32
0.0
 13
190.3670458549
 23
209.2359956555
 33
0.0
  0
MTEXT
  5
96
100
AcDbEntity
  8
MASSTEXTE
390
0
 62
       212
100
AcDbMText
 10
168.341380439
 20
211.3004170789
 30
0.0
 40
2.0
 41
0.0
 71
         5
 72
         1
  1
\W1.135145;\A1;50
  7
Arial
 73
         0
 44
0.0
  0
ENDBLK
  5
97
100
AcDbEntity
  8
0
390
0
100
AcDbBlockEnd
  0
BLOCK
  5
99
100
AcDbEntity
  8
BEMASSUNG
390
0
100
AcDbBlockBegin
  2
D200597504
 70
         0
 10
0.0
 20
0.0
 30
0.0
  3
D200597504
  1

  0
LINE
  5
9A
100
AcDbEntity
  8
MASSLINIEN
390
0
 62
       172
100
AcDbLine
 10
201.5278370787
 20
232.9183608128
 30
0.0
 11
201.5278370787
 21
220.9183608128
 31
0.0
  0
LINE
  5
9B
100
AcDbEntity
  8
MASSLINIEN
390
0
 62
       172
100
AcDbLine
 10
193.341380439
 20
232.9183608128
 30
0.0
 11
203.5278370787
 21
232.9183608128
 31
0.0
  0
LINE
  5
9C
100
AcDbEntity
  8
MASSLINIEN
390
0
 62
       172
100
AcDbLine
 10
193.341380439
 20
220.9183608128
 30
0.0
 11
203.5278370787
 21
220.9183608128
 31
0.0
  0
SOLID
  5
9D
100
AcDbEntity
  8
MASSGRENZEN
390
0
100
AcDbTrace
 10
201.5278370787
 20
232.9183608128
 30
0.0
 11
201.9194156553
 21
229.9440262287
 31
0.0
 12
201.136258502
 22
229.9440262287
 32
0.0
 13
201.136258502
 23
229.9440262287
 33
0.0
  0
SOLID
  5
9E
100
AcDbEntity
  8
MASSGRENZEN
390
0
100
AcDbTrace
 10
201.5278370787
 20
220.9183608128
 30
0.0
 11
201.136258502
 21
223.892695397
 31
0.0
 12
201.9194156553
 22
223.892695397
 32
0.0
 13
201.9194156553
 23
223.892695397
 33
0.0
  0
MTEXT
  5
9F
100
AcDbEntity
  8
MASSTEXTE
390
0
 62
       212
100
AcDbMText
 10
199.0718370787
 20
226.9183608128
 30
0.0
 40
2.0
 41
0.0
 71
         5
 72
         1
  1
\W1.135145;\A1;12
  7
Arial
 11
0.0
 21
1.0
 31
0.0
 73
         0
 44
0.0
  0
ENDBLK
  5
A0
100
AcDbEntity
  8
0
390
0
100
AcDbBlockEnd
  0
BLOCK
  5
A2
100
AcDbEntity
  8
BEMASSUNG
390
0
100
AcDbBlockBegin
  2
D200597760
 70
         0
 10
0.0
 20
0.0
 30
0.0
  3
D200597760
  1

  0
LINE
  5
A3
100
AcDbEntity
  8
MASSLINIEN
390
0
 62
       172
100
AcDbLine
 10
22.2710825656
 20
208.5331173556
 30
0.0
 11
62.2710825656
 21
208.5331173556
 31
0.0
  0
LINE
  5
A4
100
AcDbEntity
  8
MASSLINIEN
390
0
 62
       172
100
AcDbLine
 10
22.2710825656
 20
237.9426397541
 30
0.0
 11
22.2710825656
 21
206.5331173556
 31
0.0
  0
LINE
  5
A5
100
AcDbEntity
  8
MASSLINIEN
390
0
 62
       172
100
AcDbLine
 10
62.2710825656
 20
237.9426397541
 30
0.0
 11
62.2710825656
 21
206.5331173556
 31
0.0
  0
SOLID
  5
A6
100
AcDbEntity
  8
MASSGRENZEN
390
0
100
AcDbTrace
 10
22.2710825656
 20
208.5331173556
 30
0.0
 11
25.2454171497
 21
208.9246959323
 31
0.0
 12
25.2454171497
 22
208.141538779
 32
0.0
 13
25.2454171497
 23
208.141538779
 33
0.0
  0
SOLID
  5
A7
100
AcDbEntity
  8
MASSGRENZEN
390
0
100
AcDbTrace
 10
62.2710825656
 20
208.5331173556
 30
0.0
 11
59.2967479814
 21
208.141538779
 31
0.0
 12
59.2967479814
 22
208.9246959323
 32
0.0
 13
59.2967479814
 23
208.9246959323
 33
0.0
  0
MTEXT
  5
A8
100
AcDbEntity
  8
MASSTEXTE
390
0
 62
       212
100
AcDbMText
 10
42.2710825656
 20
210.9891173556
 30
0.0
 40
2.0
 41
0.0
 71
         5
 72
         1
  1
\W1.135145;\A1;40
  7
Arial
 73
         0
 44
0.0
  0
ENDBLK
  5
A9
100
AcDbEntity
  8
0
390
0
100
AcDbBlockEnd
  0
BLOCK
  5
AB
100
AcDbEntity
  8
BEMASSUNG
390
0
100
AcDbBlockBegin
  2
D200598016
 70
         0
 10
0.0
 20
0.0
 30
0.0
  3
D200598016
  1

  0
LINE
  5
AC
100
AcDbEntity
  8
MASSLINIEN
390
0
 62
       172
100
AcDbLine
 10
68.2769444453
 20
237.9426397541
 30
0.0
 11
68.2769444453
 21
217.9426397541
 31
0.0
  0
LINE
  5
AD
100
AcDbEntity
  8
MASSLINIEN
390
0
 62
       172
100
AcDbLine
 10
25.2710825656
 20
237.9426397541
 30
0.0
 11
70.2769444453
 21
237.9426397541
 31
0.0
  0
LINE
  5
AE
100
AcDbEntity
  8
MASSLINIEN
390
0
 62
       172
100
AcDbLine
 10
22.2710825657
 20
217.9426397541
 30
0.0
 11
70.2769444453
 21
217.9426397541
 31
0.0
  0
SOLID
  5
AF
100
AcDbEntity
  8
MASSGRENZEN
390
0
100
AcDbTrace
 10
68.2769444453
 20
237.9426397541
 30
0.0
 11
68.6685230219
 21
234.9683051699
 31
0.0
 12
67.8853658686
 22
234.9683051699
 32
0.0
 13
67.8853658686
 23
234.9683051699
 33
0.0
  0
SOLID
  5
B0
100
AcDbEntity
  8
MASSGRENZEN
390
0
100
AcDbTrace
 10
68.2769444453
 20
217.9426397541
 30
0.0
 11
67.8853658686
 21
220.9169743382
 31
0.0
 12
68.6685230219
 22
220.9169743382
 32
0.0
 13
68.6685230219
 23
220.9169743382
 33
0.0
  0
MTEXT
  5
B1
100
AcDbEntity
  8
MASSTEXTE
390
0
 62
       212
100
AcDbMText
 10
65.8209444453
 20
227.9426397541
 30
0.0
 40
2.0
 41
0.0
 71
         5
 72
         1
  1
\W1.135145;\A1;20
  7
Arial
 11
0.0
 21
1.0
 31
0.0
 73
         0
 44
0.0
  0
ENDBLK
  5
B2
100
AcDbEntity
  8
0
390
0
100
AcDbBlockEnd
  0
BLOCK
  5
B4
100
AcDbEntity
  8
BEMASSUNG
390
0
100
AcDbBlockBegin
  2
D200598272
 70
         0
 10
0.0
 20
0.0
 30
0.0
  3
D200598272
  1

  0
LINE
  5
B5
100
AcDbEntity
  8
MASSLINIEN
390
0
 62
       172
100
AcDbLine
 10
135.1233918539
 20
248.3535855319
 30
0.0
 11
135.1233918539
 21
197.3535855319
 31
0.0
  0
LINE
  5
B6
100
AcDbEntity
  8
MASSLINIEN
390
0
 62
       172
100
AcDbLine
 10
78.7695179179
 20
248.3535855319
 30
0.0
 11
137.1233918539
 21
248.3535855319
 31
0.0
  0
LINE
  5
B7
100
AcDbEntity
  8
MASSLINIEN
390
0
 62
       172
100
AcDbLine
 10
78.7695179181
 20
197.3535855319
 30
0.0
 11
137.1233918539
 21
197.3535855319
 31
0.0
  0
SOLID
  5
B8
100
AcDbEntity
  8
MASSGRENZEN
390
0
100
AcDbTrace
 10
135.1233918539
 20
248.3535855319
 30
0.0
 11
135.5149704306
 21
245.3792509478
 31
0.0
 12
134.7318132773
 22
245.3792509478
 32
0.0
 13
134.7318132773
 23
245.3792509478
 33
0.0
  0
SOLID
  5
B9
100
AcDbEntity
  8
MASSGRENZEN
390
0
100
AcDbTrace
 10
135.1233918539
 20
197.3535855319
 30
0.0
 11
134.7318132773
 21
200.3279201161
 31
0.0
 12
135.5149704306
 22
200.3279201161
 32
0.0
 13
135.5149704306
 23
200.3279201161
 33
0.0
  0
MTEXT
  5
BA
100
AcDbEntity
  8
MASSTEXTE
390
0
 62
       212
100
AcDbMText
 10
132.6673918539
 20
222.8535855319
 30
0.0
 40
2.0
 41
0.0
 71
         5
 72
         1
  1
\W1.135145;\A1;51
  7
Arial
 11
0.0
 21
1.0
 31
0.0
 73
         0
 44
0.0
  0
ENDBLK
  5
BB
100
AcDbEntity
  8
0
390
0
100
AcDbBlockEnd
  0
BLOCK
  5
BD
100
AcDbEntity
  8
BEMASSUNG
390
0
100
AcDbBlockBegin
  2
D159464960
 70
         0
 10
0.0
 20
0.0
 30
0.0
  3
D159464960
  1

  0
LINE
  5
BE
100
AcDbEntity
  8
MASSLINIEN
390
0
 62
       172
100
AcDbLine
 10
112.5222455963
 20
184.1553579459
 30
0.0
 11
112.5222455963
 21
121.1553579478
 31
0.0
  0
LINE
  5
BF
100
AcDbEntity
  8
MASSLINIEN
390
0
 62
       172
100
AcDbLine
 10
103.4833172746
 20
184.1553579459
 30
0.0
 11
114.5222455963
 21
184.1553579459
 31
0.0
  0
LINE
  5
C0
100
AcDbEntity
  8
MASSLINIEN
390
0
 62
       172
100
AcDbLine
 10
103.4833172746
 20
121.1553579478
 30
0.0
 11
114.5222455963
 21
121.1553579478
 31
0.0
  0
SOLID
  5
C1
100
AcDbEntity
  8
MASSGRENZEN
390
0
100
AcDbTrace
 10
112.5222455963
 20
184.1553579459
 30
0.0
 11
112.9138241729
 21
181.1810233618
 31
0.0
 12
112.1306670196
 22
181.1810233618
 32
0.0
 13
112.1306670196
 23
181.1810233618
 33
0.0
  0
SOLID
  5
C2
100
AcDbEntity
  8
MASSGRENZEN
390
0
100
AcDbTrace
 10
112.5222455963
 20
121.1553579478
 30
0.0
 11
112.1306670196
 21
124.1296925319
 31
0.0
 12
112.9138241729
 22
124.1296925319
 32
0.0
 13
112.9138241729
 23
124.1296925319
 33
0.0
  0
MTEXT
  5
C3
100
AcDbEntity
  8
MASSTEXTE
390
0
 62
       212
100
AcDbMText
 10
110.0662455963
 20
152.6553579468
 30
0.0
 40
2.0
 41
0.0
 71
         5
 72
         1
  1
\W1.135146;\A1;63
  7
Arial
 11
0.0
 21
1.0
 31
0.0
 73
         0
 44
0.0
  0
ENDBLK
  5
C4
100
AcDbEntity
  8
0
390
0
100
AcDbBlockEnd
  0
BLOCK
  5
C6
100
AcDbEntity
  8
BEMASSUNG
390
0
100
AcDbBlockBegin
  2
D159469568
 70
         0
 10
0.0
 20
0.0
 30
0.0
  3
D159469568
  1

  0
LINE
  5
C7
100
AcDbEntity
  8
MASSLINIEN
390
0
 62
       172
100
AcDbLine
 10
169.7549836329
 20
171.1553579467
 30
0.0
 11
169.7549836329
 21
134.1553579467
 31
0.0
  0
LINE
  5
C8
100
AcDbEntity
  8
MASSLINIEN
390
0
 62
       172
100
AcDbLine
 10
133.7832138621
 20
171.1553579467
 30
0.0
 11
171.7549836329
 21
171.1553579467
 31
0.0
  0
LINE
  5
C9
100
AcDbEntity
  8
MASSLINIEN
390
0
 62
       172
100
AcDbLine
 10
133.7832138621
 20
134.1553579467
 30
0.0
 11
171.7549836329
 21
134.1553579467
 31
0.0
  0
SOLID
  5
CA
100
AcDbEntity
  8
MASSGRENZEN
390
0
100
AcDbTrace
 10
169.7549836329
 20
171.1553579467
 30
0.0
 11
170.1465622095
 21
168.1810233626
 31
0.0
 12
169.3634050562
 22
168.1810233626
 32
0.0
 13
169.3634050562
 23
168.1810233626
 33
0.0
  0
SOLID
  5
CB
100
AcDbEntity
  8
MASSGRENZEN
390
0
100
AcDbTrace
 10
169.7549836329
 20
134.1553579467
 30
0.0
 11
169.3634050562
 21
137.1296925308
 31
0.0
 12
170.1465622095
 22
137.1296925308
 32
0.0
 13
170.1465622095
 23
137.1296925308
 33
0.0
  0
MTEXT
  5
CC
100
AcDbEntity
  8
MASSTEXTE
390
0
 62
       212
100
AcDbMText
 10
167.2989836329
 20
152.6553579467
 30
0.0
 40
2.0
 41
0.0
 71
         5
 72
         1
  1
\W1.135145;\A1;37
  7
Arial
 11
0.0
 21
1.0
 31
0.0
 73
         0
 44
0.0
  0
ENDBLK
  5
CD
100
AcDbEntity
  8
0
390
0
100
AcDbBlockEnd
  0
ENDSEC
  0
SECTION
  2
ENTITIES
  0
TEXT
  5
CE
100
AcDbEntity
  8
BESCHRIFTUNG
390
0
100
AcDbText
 10
129.6929117117
 20
6.9230888889
 30
0.0
 40
3.3
  1
2502 Pv Unterzug für zwei Abtriebe
 41
1.0318256896
  7
Arial
 11
129.6929117117
 21
10.2230888889
 31
0.0
100
AcDbText
 73
         3
  0
TEXT
  5
CF
100
AcDbEntity
  8
BESCHRIFTUNG
390
0
100
AcDbText
 10
129.6929117117
 20
29.3230888889
 30
0.0
 40
3.3
  1
2026-04-23
 41
1.0318366722
  7
Arial
 11
129.6929117117
 21
32.6230888889
 31
0.0
100
AcDbText
 73
         3
  0
CIRCLE
  5
D0
100
AcDbEntity
  8
2501_2-4 ROLLEN
390
0
100
AcDbCircle
 10
158.4833172746
 20
73.6553579467
 30
0.0
 40
24.5
  0
ARC
  5
D1
100
AcDbEntity
  8
2501_2-4 ROLLEN
390
0
100
AcDbCircle
 10
57.9833172767
 20
73.6553579467
 30
0.0
 40
1.0
100
AcDbArc
 50
90.000000003
 51
270.000000003
  0
ARC
  5
D2
100
AcDbEntity
  8
2501_2-4 ROLLEN
390
0
100
AcDbCircle
 10
58.9833172767
 20
73.6553579467
 30
0.0
 40
1.0
100
AcDbArc
 50
270.000000003
 51
450.000000003
  0
CIRCLE
  5
D3
100
AcDbEntity
  8
2501_2-4 ROLLEN
390
0
100
AcDbCircle
 10
61.249115023
 20
72.4933068188
 30
0.0
 40
14.5
  0
CIRCLE
  5
D4
100
AcDbEntity
  8
2501_2-4 ROLLEN
390
0
100
AcDbCircle
 10
61.249115023
 20
72.4933068188
 30
0.0
 40
16.5
  0
CIRCLE
  5
D5
100
AcDbEntity
  8
2501_2-4 ROLLEN
390
0
  6
DASHED
100
AcDbCircle
 10
58.4833172767
 20
73.6553579467
 30
0.0
 40
23.5
  0
CIRCLE
  5
D6
100
AcDbEntity
  8
2501_2-4 ROLLEN
390
0
100
AcDbCircle
 10
58.4833172767
 20
73.6553579467
 30
0.0
 40
24.5
  0
CIRCLE
  5
D7
100
AcDbEntity
  8
2501_2-4 ROLLEN
390
0
  6
DASHED
100
AcDbCircle
 10
158.4833172746
 20
73.6553579467
 30
0.0
 40
23.5
  0
LINE
  5
D8
100
AcDbEntity
  8
2501_2-4 ROLLEN
390
0
100
AcDbLine
 10
57.9833172768
 20
72.6553579467
 30
0.0
 11
58.9833172768
 21
72.6553579467
 31
0.0
  0
LINE
  5
D9
100
AcDbEntity
  8
2501_2-4 ROLLEN
390
0
100
AcDbLine
 10
58.9833172767
 20
74.6553579467
 30
0.0
 11
57.9833172767
 21
74.6553579467
 31
0.0
  0
CIRCLE
  5
DA
100
AcDbEntity
  8
2502_5P
390
0
100
AcDbCircle
 10
37.715912008
 20
158.2199674153
 30
0.0
 40
1.5
  0
CIRCLE
  5
DB
100
AcDbEntity
  8
2502_5P
390
0
100
AcDbCircle
 10
64.0479267441
 20
131.887952682
 30
0.0
 40
1.5
  0
CIRCLE
  5
DC
100
AcDbEntity
  8
2502_5P
390
0
100
AcDbCircle
 10
73.6861130679
 20
167.8581537429
 30
0.0
 40
1.5
  0
CIRCLE
  5
DD
100
AcDbEntity
  8
2501_2-4 ROLLEN
390
0
100
AcDbCircle
 10
145.7832138621
 20
152.6553579467
 30
0.0
 40
11.5
  0
CIRCLE
  5
DE
100
AcDbEntity
  8
2501_2-4 ROLLEN
390
0
  6
DASHED
100
AcDbCircle
 10
145.7832138621
 20
152.6553579467
 30
0.0
 40
10.5
  0
CIRCLE
  5
DF
100
AcDbEntity
  8
2501_2-4 ROLLEN
390
0
100
AcDbCircle
 10
58.4833172733
 20
152.6553579467
 30
0.0
 40
24.5
  0
CIRCLE
  5
E0
100
AcDbEntity
  8
2501_2-4 ROLLEN
390
0
100
AcDbCircle
 10
61.2491150196
 20
151.4933068188
 30
0.0
 40
14.5
  0
CIRCLE
  5
E1
100
AcDbEntity
  8
2501_2-4 ROLLEN
390
0
100
AcDbCircle
 10
61.2491150196
 20
151.4933068188
 30
0.0
 40
16.5
  0
CIRCLE
  5
E2
100
AcDbEntity
  8
2502_5P
390
0
100
AcDbCircle
 10
58.4833172745
 20
130.6553579467
 30
0.0
 40
1.75
  0
CIRCLE
  5
E3
100
AcDbEntity
  8
2501_2-4 ROLLEN
390
0
  6
DASHED
100
AcDbCircle
 10
58.4833172733
 20
152.6553579467
 30
0.0
 40
23.5
  0
CIRCLE
  5
E4
100
AcDbEntity
  8
2502_5P
390
0
100
AcDbCircle
 10
53.4151864144
 20
132.7917215828
 30
0.0
 40
1.25
  0
CIRCLE
  5
E5
100
AcDbEntity
  8
2502_8P
390
0
100
AcDbCircle
 10
124.536923183
 20
228.4181950016
 30
0.0
 40
1.25
  0
CIRCLE
  5
E6
100
AcDbEntity
  8
2502_8P
390
0
100
AcDbCircle
 10
98.2049084483
 20
202.0861802669
 30
0.0
 40
1.25
  0
CIRCLE
  5
E7
100
AcDbEntity
  8
2502_8P
390
0
100
AcDbCircle
 10
88.5667221225
 20
238.0563813273
 30
0.0
 40
1.25
  0
ARC
  5
E8
100
AcDbEntity
  8
2501_6 HEBEL 0_0_22_5
390
0
100
AcDbCircle
 10
93.0837732614
 20
216.3678426182
 30
0.0
 40
1.0159544058
100
AcDbArc
 50
211.2557755751
 51
391.2557755796
  0
ARC
  5
E9
100
AcDbEntity
  8
2501_6 HEBEL 0_0_22_5
390
0
100
AcDbCircle
 10
85.2739611925
 20
222.4481457517
 30
0.0
 40
1.0235053248
100
AcDbArc
 50
1.2557755785
 51
181.2557755785
  0
ARC
  5
EA
100
AcDbEntity
  8
2501_6 HEBEL 0_0_22_5
390
0
100
AcDbCircle
 10
103.7695179179
 20
222.853585532
 30
0.0
 40
17.4764946755
100
AcDbArc
 50
181.2557755785
 51
196.2557755786
  0
ARC
  5
EB
100
AcDbEntity
  8
2501_6 HEBEL 0_0_22_5
390
0
100
AcDbCircle
 10
101.0037201715
 20
221.6915344034
 30
0.0
 40
16.4999999998
100
AcDbArc
 50
195.0702721566
 51
377.4412790003
  0
ARC
  5
EC
100
AcDbEntity
  8
2501_6 HEBEL 0_0_22_5
390
0
100
AcDbCircle
 10
101.0037201714
 20
221.6915344032
 30
0.0
 40
14.4999999998
100
AcDbArc
 50
194.9067260516
 51
377.6048251054
  0
ARC
  5
ED
100
AcDbEntity
  8
2501_6 HEBEL 0_0_22_5
390
0
100
AcDbCircle
 10
103.7695179179
 20
222.853585532
 30
0.0
 40
13.5159544056
100
AcDbArc
 50
16.2557755784
 51
211.2557755786
  0
ARC
  5
EE
100
AcDbEntity
  8
2501_6 HEBEL 0_0_22_5
390
0
100
AcDbCircle
 10
103.7695179179
 20
222.853585532
 30
0.0
 40
11.515467131
100
AcDbArc
 50
16.2557755784
 51
211.2557755788
  0
LINE
  5
EF
100
AcDbEntity
  8
MITTELLINIEN
390
0
100
AcDbLine
 10
103.7695179179
 20
216.3535855319
 30
0.0
 11
103.7695179179
 21
229.3535855319
 31
0.0
  0
LINE
  5
F0
100
AcDbEntity
  8
MITTELLINIEN
390
0
100
AcDbLine
 10
97.2695179179
 20
222.8535855319
 30
0.0
 11
110.2695179179
 21
222.8535855319
 31
0.0
  0
CIRCLE
  5
F1
100
AcDbEntity
  8
2502_8P
390
0
100
AcDbCircle
 10
103.7695179179
 20
222.8535855319
 30
0.0
 40
3.0
  0
CIRCLE
  5
F2
100
AcDbEntity
  8
2501_2-4 ROLLEN
390
0
100
AcDbCircle
 10
103.7695179179
 20
222.8535855319
 30
0.0
 40
24.5
  0
CIRCLE
  5
F3
100
AcDbEntity
  8
2502_9P
390
0
100
AcDbCircle
 10
36.2710825656
 20
234.4426397541
 30
0.0
 40
1.25
  0
CIRCLE
  5
F4
100
AcDbEntity
  8
2502_9P
390
0
100
AcDbCircle
 10
41.7710825656
 20
234.4426397541
 30
0.0
 40
1.25
  0
CIRCLE
  5
F5
100
AcDbEntity
  8
2502_9P
390
0
100
AcDbCircle
 10
30.7710825656
 20
234.4426397541
 30
0.0
 40
1.25
  0
ARC
  5
F6
100
AcDbEntity
  8
2501_7 HEBEL 22_5_0_22_5
390
0
100
AcDbCircle
 10
45.5430866184
 20
221.9236096352
 30
0.0
 40
2.5
100
AcDbArc
 50
238.3024853999
 51
315.6737884787
  0
ARC
  5
F7
100
AcDbEntity
  8
2501_7 HEBEL 22_5_0_22_5
390
0
100
AcDbCircle
 10
57.7710825656
 20
234.4426397541
 30
0.0
 40
2.5
100
AcDbArc
 50
315.6737884787
 51
450.0
  0
ARC
  5
F8
100
AcDbEntity
  8
2501_7 HEBEL 22_5_0_22_5
390
0
100
AcDbCircle
 10
25.2710825656
 20
234.4426397541
 30
0.0
 40
2.5
100
AcDbArc
 50
90.0
 51
238.3024853999
  0
CIRCLE
  5
F9
100
AcDbEntity
  8
2502_9P
390
0
100
AcDbCircle
 10
57.7710825656
 20
234.4426397541
 30
0.0
 40
1.25
  0
CIRCLE
  5
FA
100
AcDbEntity
  8
2502_9P
390
0
100
AcDbCircle
 10
25.2710825656
 20
234.4426397541
 30
0.0
 40
1.25
  0
CIRCLE
  5
FB
100
AcDbEntity
  8
2502_9P
390
0
100
AcDbCircle
 10
45.5430866184
 20
221.9236096352
 30
0.0
 40
1.25
  0
LINE
  5
FC
100
AcDbEntity
  8
2501_7 HEBEL 22_5_0_22_5
390
0
100
AcDbLine
 10
23.9574957062
 20
232.3155549972
 30
0.0
 11
44.2294997591
 21
219.7965248783
 31
0.0
  0
LINE
  5
FD
100
AcDbEntity
  8
2501_7 HEBEL 22_5_0_22_5
390
0
100
AcDbLine
 10
57.7710825656
 20
236.9426397541
 30
0.0
 11
25.2710825656
 21
236.9426397541
 31
0.0
  0
LINE
  5
FE
100
AcDbEntity
  8
2501_7 HEBEL 22_5_0_22_5
390
0
100
AcDbLine
 10
59.5595154397
 20
232.6957831902
 30
0.0
 11
47.3315194926
 21
220.1767530713
 31
0.0
  0
CIRCLE
  5
FF
100
AcDbEntity
  8
2502_1P
390
0
100
AcDbCircle
 10
147.841380439
 20
225.1772924566
 30
0.0
 40
1.25
  0
CIRCLE
  5
100
100
AcDbEntity
  8
2502_1P
390
0
100
AcDbCircle
 10
183.341380439
 20
226.9183608128
 30
0.0
 40
1.5
  0
CIRCLE
  5
101
100
AcDbEntity
  8
2502_1P
390
0
100
AcDbCircle
 10
189.341380439
 20
226.9183608128
 30
0.0
 40
1.5
  0
LINE
  5
102
100
AcDbEntity
  8
2501_1 UNTERZUGRAHMEN
390
0
100
AcDbLine
 10
193.341380439
 20
221.9183608128
 30
0.0
 11
193.341380439
 21
231.9183608128
 31
0.0
  0
LINE
  5
103
100
AcDbEntity
  8
2501_1 UNTERZUGRAHMEN
390
0
100
AcDbLine
 10
143.341380439
 20
231.9183608128
 30
0.0
 11
193.341380439
 21
231.9183608128
 31
0.0
  0
LINE
  5
104
100
AcDbEntity
  8
2501_1 UNTERZUGRAHMEN
390
0
100
AcDbLine
 10
143.341380439
 20
221.9183608128
 30
0.0
 11
143.341380439
 21
231.9183608128
 31
0.0
  0
LINE
  5
105
100
AcDbEntity
  8
2501_1 UNTERZUGRAHMEN
390
0
100
AcDbLine
 10
193.341380439
 20
221.9183608128
 30
0.0
 11
143.341380439
 21
221.9183608128
 31
0.0
  0
MTEXT
  5
106
100
AcDbEntity
  8
BESCHRIFTUNG
390
0
100
AcDbMText
 10
21.8951281601
 20
282.0071120084
 30
0.0
 40
3.0
 41
0.0
 71
         1
 72
         1
  1
\W1.135138;2502.1\P2502.2/5\P2502.4\P2502.5/5\P2502.6/5\P2502.7/5\P2502.8\P2502.9\P
  7
Arial
 73
         1
 44
0.66
  0
MTEXT
  5
107
100
AcDbEntity
  8
BESCHRIFTUNG
390
0
100
AcDbMText
 10
42.1451281601
 20
282.0071120084
 30
0.0
 40
3.0
 41
0.0
 71
         1
 72
         1
  1
\W0.972811;Umlenkrollenhalter\PUmlenkrolle\PUnterzugrahmen für Hebel\PZweifachhebel-Unterzugrad für Hebel\PDoppelhebel-Unterzugabtriebsrad für Hebel\PDoppelhebel-Unterzugleerrad\PUnterzugrillenscheibe\PUnterzughebel\P
  7
Arial
 73
         1
 44
0.66
  0
TEXT
  5
108
100
AcDbEntity
  8
BESCHRIFTUNG
390
0
100
AcDbText
 10
136.5495021932
 20
182.3180788419
 30
0.0
 40
3.0
  1
2502.2/5
 41
1.135133983
  7
Arial
100
AcDbText
  0
TEXT
  5
109
100
AcDbEntity
  8
BESCHRIFTUNG
390
0
100
AcDbText
 10
20.1378837493
 20
249.489481902
 30
0.0
 40
3.0
  1
2502.9
 41
1.1351379131
  7
Arial
100
AcDbText
  0
TEXT
  5
10A
100
AcDbEntity
  8
BESCHRIFTUNG
390
0
100
AcDbText
 10
171.558906691
 20
254.6554012439
 30
0.0
 40
3.0
  1
2502.1
 41
1.1351380193
  7
Arial
100
AcDbText
  0
TEXT
  5
10B
100
AcDbEntity
  8
BESCHRIFTUNG
390
0
100
AcDbText
 10
91.1189110709
 20
252.9229197614
 30
0.0
 40
3.0
  1
2502.8
 41
1.1351379928
  7
Arial
100
AcDbText
  0
LINE
  5
10C
100
AcDbEntity
  8
MITTELLINIEN
390
0
100
AcDbLine
 10
33.4833172746
 20
110.6553579459
 30
0.0
 11
33.4833172746
 21
36.1553579478
 31
0.0
  0
LINE
  5
10D
100
AcDbEntity
  8
MITTELLINIEN
390
0
100
AcDbLine
 10
83.4833172746
 20
110.6553579459
 30
0.0
 11
83.4833172746
 21
36.1553579478
 31
0.0
  0
LINE
  5
10E
100
AcDbEntity
  8
MITTELLINIEN
390
0
100
AcDbLine
 10
133.4833172746
 20
110.6553579459
 30
0.0
 11
133.4833172746
 21
36.1553579478
 31
0.0
  0
LINE
  5
10F
100
AcDbEntity
  8
MITTELLINIEN
390
0
100
AcDbLine
 10
183.4833172746
 20
110.6553579459
 30
0.0
 11
183.4833172746
 21
36.1553579478
 31
0.0
  0
CIRCLE
  5
110
100
AcDbEntity
  8
2502_6T
390
0
  6
PHANTOM
100
AcDbCircle
 10
103.4833172746
 20
105.1553579459
 30
0.0
 40
0.5
  0
CIRCLE
  5
111
100
AcDbEntity
  8
2502_6T
390
0
  6
PHANTOM
100
AcDbCircle
 10
103.4833172746
 20
42.1553579478
 30
0.0
 40
1.0
  0
ARC
  5
112
100
AcDbEntity
  8
2502_6P
390
0
  6
DASHDOT
100
AcDbCircle
 10
248.6479012969
 20
73.6553579468
 30
0.0
 40
217.458152796
100
AcDbArc
 50
171.6710909115
 51
188.3289090885
  0
CIRCLE
  5
113
100
AcDbEntity
  8
2502_7T
390
0
  6
PHANTOM
100
AcDbCircle
 10
203.4833172746
 20
105.1553579459
 30
0.0
 40
0.5
  0
ARC
  5
114
100
AcDbEntity
  8
2500___ HILFSPFADE FÜR UNTERZUG
390
0
100
AcDbCircle
 10
74.9676549711
 20
73.6553579467
 30
0.0
 40
52.0883890522
100
AcDbArc
 50
142.7897718356
 51
217.2102281644
  0
ARC
  5
115
100
AcDbEntity
  8
2500___ HILFSPFADE FÜR UNTERZUG
390
0
100
AcDbCircle
 10
174.9676549711
 20
73.6553579467
 30
0.0
 40
52.0883890522
100
AcDbArc
 50
142.7897718356
 51
217.2102281644
  0
ARC
  5
116
100
AcDbEntity
  8
2502_7P
390
0
  6
DASHDOT
100
AcDbCircle
 10
348.6479012969
 20
73.6553579468
 30
0.0
 40
217.458152796
100
AcDbArc
 50
171.6710909115
 51
188.3289090885
  0
CIRCLE
  5
117
100
AcDbEntity
  8
2502_6P
390
0
  6
PHANTOM
100
AcDbCircle
 10
33.4833172746
 20
42.1553579478
 30
0.0
 40
1.0
  0
CIRCLE
  5
118
100
AcDbEntity
  8
2502_6P
390
0
  6
PHANTOM
100
AcDbCircle
 10
33.4833172746
 20
105.1553579459
 30
0.0
 40
0.5
  0
CIRCLE
  5
119
100
AcDbEntity
  8
2502_7T
390
0
  6
PHANTOM
100
AcDbCircle
 10
203.4833172746
 20
42.1553579478
 30
0.0
 40
1.0
  0
ARC
  5
11A
100
AcDbEntity
  8
2500___ HILFSPFADE FÜR UNTERZUG
390
0
100
AcDbCircle
 10
244.9676549711
 20
73.6553579467
 30
0.0
 40
52.0883890522
100
AcDbArc
 50
142.7897718356
 51
217.2102281644
  0
CIRCLE
  5
11B
100
AcDbEntity
  8
2502_7P
390
0
  6
PHANTOM
100
AcDbCircle
 10
133.4833172746
 20
105.1553579459
 30
0.0
 40
0.5
  0
CIRCLE
  5
11C
100
AcDbEntity
  8
2502_7P
390
0
  6
PHANTOM
100
AcDbCircle
 10
133.4833172746
 20
42.1553579478
 30
0.0
 40
1.0
  0
ARC
  5
11D
100
AcDbEntity
  8
2502_7T
390
0
  6
DASHDOT
100
AcDbCircle
 10
418.6479012969
 20
73.6553579468
 30
0.0
 40
217.458152796
100
AcDbArc
 50
171.6710909115
 51
188.3289090885
  0
ARC
  5
11E
100
AcDbEntity
  8
2502_6T
390
0
  6
DASHDOT
100
AcDbCircle
 10
318.6479012969
 20
73.6553579468
 30
0.0
 40
217.458152796
100
AcDbArc
 50
171.6710909115
 51
188.3289090885
  0
ARC
  5
11F
100
AcDbEntity
  8
2500___ HILFSPFADE FÜR UNTERZUG
390
0
100
AcDbCircle
 10
144.9676549711
 20
73.6553579467
 30
0.0
 40
52.0883890522
100
AcDbArc
 50
142.7897718356
 51
217.2102281644
  0
MTEXT
  5
120
100
AcDbEntity
  8
2500___ HILFSPFADE FÜR UNTERZUG
390
0
100
AcDbMText
 10
191.790128284
 20
73.6336754072
 30
0.0
 40
2.0
 41
0.0
 71
         5
 72
         1
  1
\W1.135136;>2502.7T\PM50+x5\PT5 O6
  7
Arial
 73
         1
 44
0.66
  0
MTEXT
  5
121
100
AcDbEntity
  8
2500___ HILFSPFADE FÜR UNTERZUG
390
0
100
AcDbMText
 10
24.0768588431
 20
73.6336754072
 30
0.0
 40
2.0
 41
0.0
 71
         5
 72
         1
  1
\W1.134914;>2502.6P\PM50+x5\PT5 O2
  7
Arial
 73
         1
 44
0.66
  0
MTEXT
  5
122
100
AcDbEntity
  8
2502_6T
390
0
100
AcDbMText
 10
100.7746364312
 20
88.1248175801
 30
0.0
 40
1.5
 41
0.0
 71
         5
 72
         1
  1
\W1.135136;>2500.1T\PM50+x5\PT5 O6
  7
Arial
 73
         1
 44
0.66
  0
MTEXT
  5
123
100
AcDbEntity
  8
2502_7P
390
0
100
AcDbMText
 10
130.7746364312
 20
88.1248175801
 30
0.0
 40
1.5
 41
0.0
 71
         5
 72
         1
  1
\W1.135110;>2500.1P\PM50+x5\PT5 O2
  7
Arial
 73
         1
 44
0.66
  0
MTEXT
  5
124
100
AcDbEntity
  8
2502_7T
390
0
100
AcDbMText
 10
200.7746364312
 20
88.1248175801
 30
0.0
 40
1.5
 41
0.0
 71
         5
 72
         1
  1
\W1.135136;>2500.1T\PM50+x5\PT5 O6
  7
Arial
 73
         1
 44
0.66
  0
MTEXT
  5
125
100
AcDbEntity
  8
2500___ HILFSPFADE FÜR UNTERZUG
390
0
100
AcDbMText
 10
91.790128284
 20
73.6336754072
 30
0.0
 40
2.0
 41
0.0
 71
         5
 72
         1
  1
\W1.134932;>2502.6T\PM50+x5\PT5 O6
  7
Arial
 73
         1
 44
0.66
  0
MTEXT
  5
126
100
AcDbEntity
  8
2502_6P
390
0
100
AcDbMText
 10
30.7746364312
 20
88.1248175801
 30
0.0
 40
1.5
 41
0.0
 71
         5
 72
         1
  1
\W1.135110;>2500.1P\PM50+x5\PT5 O2
  7
Arial
 73
         1
 44
0.66
  0
TEXT
  5
127
100
AcDbEntity
  8
2502_6P
390
0
  6
DIVIDE
100
AcDbText
 10
28.5797039182
 20
105.7213370574
 30
0.0
 40
1.5
  1
@2502.5P
 41
0.864817523
  7
Arial
 72
         1
 11
33.2790897034
 21
106.4713370574
 31
0.0
100
AcDbText
 73
         2
  0
MTEXT
  5
128
100
AcDbEntity
  8
2500___ HILFSPFADE FÜR UNTERZUG
390
0
100
AcDbMText
 10
124.0768588431
 20
73.6336754072
 30
0.0
 40
2.0
 41
0.0
 71
         5
 72
         1
  1
\W1.135110;>2502.7P\PM50+x5\PT5 O2
  7
Arial
 73
         1
 44
0.66
  0
TEXT
  5
129
100
AcDbEntity
  8
BESCHRIFTUNG
390
0
100
AcDbText
 10
48.8527198056
 20
103.0833479989
 30
0.0
 40
2.5
  1
2502.6/5
 41
1.1351340873
  7
Arial
 72
         1
 11
59.1331794645
 21
104.3333479989
 31
0.0
100
AcDbText
 73
         2
  0
TEXT
  5
12A
100
AcDbEntity
  8
BESCHRIFTUNG
390
0
100
AcDbText
 10
148.2809787998
 20
102.6620418192
 30
0.0
 40
2.5
  1
2502.7/5
 41
1.1351340247
  7
Arial
 72
         1
 11
158.5614378914
 21
103.9120418192
 31
0.0
100
AcDbText
 73
         2
  0
TEXT
  5
12B
100
AcDbEntity
  8
2502_7P
390
0
  6
DIVIDE
100
AcDbText
 10
128.1767411255
 20
105.5870161265
 30
0.0
 40
1.5
  1
@2502.5P
 41
0.864817523
  7
Arial
 72
         1
 11
132.8761269107
 21
106.3370161265
 31
0.0
100
AcDbText
 73
         2
  0
INSERT
  5
12C
100
AcDbEntity
  8
BEMASSUNG
390
0
100
AcDbBlockReference
  2
D200596736
 10
0.0
 20
0.0
 30
0.0
  0
INSERT
  5
12D
100
AcDbEntity
  8
BEMASSUNG
390
0
100
AcDbBlockReference
  2
D200596992
 10
0.0
 20
0.0
 30
0.0
  0
LINE
  5
12E
100
AcDbEntity
  8
MITTELLINIEN
390
0
100
AcDbLine
 10
33.4833172746
 20
189.6553579459
 30
0.0
 11
33.4833172746
 21
115.1553579478
 31
0.0
  0
LINE
  5
12F
100
AcDbEntity
  8
MITTELLINIEN
390
0
100
AcDbLine
 10
83.4833172746
 20
189.6553579459
 30
0.0
 11
83.4833172746
 21
115.1553579478
 31
0.0
  0
LINE
  5
130
100
AcDbEntity
  8
2502_5P
390
0
  6
DASHED
100
AcDbLine
 10
58.4833172746
 20
130.6553579467
 30
0.0
 11
53.4151864144
 21
132.7917215828
 31
0.0
  0
LINE
  5
131
100
AcDbEntity
  8
2502_5P
390
0
  6
DASHED
100
AcDbLine
 10
53.4151864144
 20
132.7917215828
 30
0.0
 11
33.4833172746
 21
121.1553579478
 31
0.0
  0
LINE
  5
132
100
AcDbEntity
  8
2502_5P
390
0
  6
DASHED
100
AcDbLine
 10
64.0479267441
 20
131.887952682
 30
0.0
 11
58.4833172746
 21
130.6553579467
 31
0.0
  0
LINE
  5
133
100
AcDbEntity
  8
2502_5P
390
0
  6
DASHED
100
AcDbLine
 10
33.4833172746
 20
121.1553579478
 30
0.0
 11
37.715912008
 21
158.2199674153
 31
0.0
  0
LINE
  5
134
100
AcDbEntity
  8
2502_5P
390
0
  6
DASHED
100
AcDbLine
 10
58.4833172746
 20
152.6553579467
 30
0.0
 11
64.0479267441
 21
131.887952682
 31
0.0
  0
CIRCLE
  5
135
100
AcDbEntity
  8
2502_5T
390
0
  6
PHANTOM
100
AcDbCircle
 10
103.4833172746
 20
184.1553579459
 30
0.0
 40
0.5
  0
ARC
  5
136
100
AcDbEntity
  8
2500___ HILFSPFADE FÜR UNTERZUG
390
0
100
AcDbCircle
 10
74.9676549711
 20
152.6553579467
 30
0.0
 40
52.0883890522
100
AcDbArc
 50
142.7897718356
 51
217.2102281644
  0
ARC
  5
137
100
AcDbEntity
  8
2502_5P
390
0
  6
DASHDOT
100
AcDbCircle
 10
248.6479012969
 20
152.6553579468
 30
0.0
 40
217.458152796
100
AcDbArc
 50
171.6710909115
 51
188.3289090885
  0
CIRCLE
  5
138
100
AcDbEntity
  8
2502_5P
390
0
100
AcDbCircle
 10
58.4833172733
 20
152.6553579467
 30
0.0
 40
1.25
  0
CIRCLE
  5
139
100
AcDbEntity
  8
2502_5T
390
0
  6
PHANTOM
100
AcDbCircle
 10
103.4833172746
 20
121.1553579478
 30
0.0
 40
1.0
  0
ARC
  5
13A
100
AcDbEntity
  8
2500___ HILFSPFADE FÜR UNTERZUG
390
0
100
AcDbCircle
 10
144.9676549711
 20
152.6553579467
 30
0.0
 40
52.0883890522
100
AcDbArc
 50
142.7897718356
 51
217.2102281644
  0
CIRCLE
  5
13B
100
AcDbEntity
  8
2502_5P
390
0
  6
PHANTOM
100
AcDbCircle
 10
33.4833172746
 20
184.1553579459
 30
0.0
 40
0.5
  0
CIRCLE
  5
13C
100
AcDbEntity
  8
2502_5P
390
0
  6
PHANTOM
100
AcDbCircle
 10
33.4833172746
 20
121.1553579478
 30
0.0
 40
1.0
  0
ARC
  5
13D
100
AcDbEntity
  8
2502_5T
390
0
  6
DASHDOT
100
AcDbCircle
 10
318.6479012969
 20
152.6553579468
 30
0.0
 40
217.458152796
100
AcDbArc
 50
171.6710909115
 51
188.3289090885
  0
MTEXT
  5
13E
100
AcDbEntity
  8
2500___ HILFSPFADE FÜR UNTERZUG
390
0
100
AcDbMText
 10
91.790128284
 20
152.6336754072
 30
0.0
 40
2.0
 41
0.0
 71
         5
 72
         1
  1
\W1.135136;>2502.5T\PM50+x5\PT5 O6
  7
Arial
 73
         1
 44
0.66
  0
TEXT
  5
13F
100
AcDbEntity
  8
2502_5P
390
0
  6
PHANTOM
100
AcDbText
 10
41.012452836
 20
125.092672025
 30
0.0
 40
2.0
  1
N1
 41
1.1350267802
  7
Arial
100
AcDbText
  0
MTEXT
  5
140
100
AcDbEntity
  8
2502_5P
390
0
100
AcDbMText
 10
30.7746364312
 20
167.1248175801
 30
0.0
 40
1.5
 41
0.0
 71
         5
 72
         1
  1
\W1.135110;>2500.1P\PM50+x5\PT5 O2
  7
Arial
 73
         1
 44
0.66
  0
MTEXT
  5
141
100
AcDbEntity
  8
2502_5T
390
0
100
AcDbMText
 10
100.7746364312
 20
167.1248175801
 30
0.0
 40
1.5
 41
0.0
 71
         5
 72
         1
  1
\W1.135136;>2500.1T\PM50+x5\PT5 O6
  7
Arial
 73
         1
 44
0.66
  0
MTEXT
  5
142
100
AcDbEntity
  8
2500___ HILFSPFADE FÜR UNTERZUG
390
0
100
AcDbMText
 10
24.0768588431
 20
152.6336754072
 30
0.0
 40
2.0
 41
0.0
 71
         5
 72
         1
  1
\W1.135110;>2502.5P\PM50+x5\PT5 O2
  7
Arial
 73
         1
 44
0.66
  0
MTEXT
  5
143
100
AcDbEntity
  8
2502_5T
390
0
  6
DIVIDE
100
AcDbMText
 10
102.0702013252
 20
184.1281277483
 30
0.0
 40
1.5
 41
0.0
 71
         5
 72
         1
  1
\W0.864843;M50+x5 T5\PO6         I1\PW1.8 B1.8
  7
Arial
 73
         1
 44
0.66
  0
TEXT
  5
144
100
AcDbEntity
  8
BESCHRIFTUNG
390
0
100
AcDbText
 10
48.2809789888
 20
181.6620418192
 30
0.0
 40
2.5
  1
2502.5/5
 41
1.1351340038
  7
Arial
 72
         1
 11
58.5614378914
 21
182.9120418192
 31
0.0
100
AcDbText
 73
         2
  0
MTEXT
  5
145
100
AcDbEntity
  8
2502_5P
390
0
  6
DIVIDE
100
AcDbMText
 10
32.0702013252
 20
184.1281277483
 30
0.0
 40
1.5
 41
0.0
 71
         5
 72
         1
  1
\W0.864827;M50+x5 T5 O2\PP4 U15     I1.4\PD1.5      B-0.3
  7
Arial
 73
         1
 44
0.66
  0
LINE
  5
146
100
AcDbEntity
  8
MITTELLINIEN
390
0
100
AcDbLine
 10
22.2710825656
 20
242.9426397541
 30
0.0
 11
22.2710825656
 21
209.7482986313
 31
0.0
  0
LINE
  5
147
100
AcDbEntity
  8
MITTELLINIEN
390
0
100
AcDbLine
 10
62.2710825656
 20
242.9426397541
 30
0.0
 11
62.2710825656
 21
208.9157573358
 31
0.0
  0
CIRCLE
  5
148
100
AcDbEntity
  8
2502_8P
390
0
100
AcDbCircle
 10
110.5309987019
 20
224.6653188477
 30
0.0
 40
1.25
  0
LINE
  5
149
100
AcDbEntity
  8
2502_1P
390
0
  6
BORDER
100
AcDbLine
 10
143.341380439
 20
232.9183608128
 30
0.0
 11
193.341380439
 21
232.9183608128
 31
0.0
  0
LINE
  5
14A
100
AcDbEntity
  8
2502_1P
390
0
  6
BORDER
100
AcDbLine
 10
193.341380439
 20
220.9183608128
 30
0.0
 11
143.341380439
 21
220.9183608128
 31
0.0
  0
CIRCLE
  5
14B
100
AcDbEntity
  8
2502_1P
390
0
  6
PHANTOM
100
AcDbCircle
 10
143.341380439
 20
232.9183608128
 30
0.0
 40
0.5
  0
CIRCLE
  5
14C
100
AcDbEntity
  8
2502_1P
390
0
  6
PHANTOM
100
AcDbCircle
 10
143.341380439
 20
220.9183608128
 30
0.0
 40
1.0
  0
LINE
  5
14D
100
AcDbEntity
  8
2502_1P
390
0
  6
DASHED
100
AcDbLine
 10
193.341380439
 20
232.9183608128
 30
0.0
 11
189.341380439
 21
226.9183608128
 31
0.0
  0
LINE
  5
14E
100
AcDbEntity
  8
2502_1P
390
0
  6
DASHED
100
AcDbLine
 10
189.341380439
 20
226.9183608128
 30
0.0
 11
183.341380439
 21
226.9183608128
 31
0.0
  0
LINE
  5
14F
100
AcDbEntity
  8
2502_1P
390
0
  6
DASHED
100
AcDbLine
 10
183.341380439
 20
226.9183608128
 30
0.0
 11
147.841380439
 21
225.1772924566
 31
0.0
  0
LINE
  5
150
100
AcDbEntity
  8
2502_1P
390
0
  6
DASHED
100
AcDbLine
 10
147.841380439
 20
225.1772924566
 30
0.0
 11
193.341380439
 21
220.9183608128
 31
0.0
  0
LINE
  5
151
100
AcDbEntity
  8
MITTELLINIEN
390
0
100
AcDbLine
 10
143.341380439
 20
237.9183608128
 30
0.0
 11
143.341380439
 21
215.9183608128
 31
0.0
  0
LINE
  5
152
100
AcDbEntity
  8
MITTELLINIEN
390
0
100
AcDbLine
 10
193.341380439
 20
237.9183608128
 30
0.0
 11
193.341380439
 21
215.9183608128
 31
0.0
  0
INSERT
  5
153
100
AcDbEntity
  8
BEMASSUNG
390
0
100
AcDbBlockReference
  2
D200597248
 10
0.0
 20
0.0
 30
0.0
  0
INSERT
  5
154
100
AcDbEntity
  8
BEMASSUNG
390
0
100
AcDbBlockReference
  2
D200597504
 10
0.0
 20
0.0
 30
0.0
  0
LINE
  5
155
100
AcDbEntity
  8
2502_9P
390
0
  6
BORDER
100
AcDbLine
 10
57.7710825656
 20
237.9426397541
 30
0.0
 11
25.2710825656
 21
237.9426397541
 31
0.0
  0
LINE
  5
156
100
AcDbEntity
  8
2502_9P
390
0
  6
BORDER
100
AcDbLine
 10
23.4320609625
 20
231.4647210944
 30
0.0
 11
43.7040650153
 21
218.9456909756
 31
0.0
  0
ARC
  5
157
100
AcDbEntity
  8
2502_9P
390
0
100
AcDbCircle
 10
25.2710825656
 20
234.4426397541
 30
0.0
 40
3.5
100
AcDbArc
 50
90.0
 51
238.3024853999
  0
LINE
  5
158
100
AcDbEntity
  8
2502_9P
390
0
100
AcDbLine
 10
60.2748885893
 20
231.9970405646
 30
0.0
 11
48.0468926422
 21
219.4780104458
 31
0.0
  0
ARC
  5
159
100
AcDbEntity
  8
2502_9P
390
0
100
AcDbCircle
 10
45.5430866184
 20
221.9236096352
 30
0.0
 40
3.5
100
AcDbArc
 50
238.3024853999
 51
315.6737884787
  0
ARC
  5
15A
100
AcDbEntity
  8
2502_9P
390
0
100
AcDbCircle
 10
57.7710825656
 20
234.4426397541
 30
0.0
 40
3.5
100
AcDbArc
 50
315.6737884787
 51
450.0
  0
CIRCLE
  5
15B
100
AcDbEntity
  8
2502_9P
390
0
  6
PHANTOM
100
AcDbCircle
 10
22.2710825657
 20
237.9426397541
 30
0.0
 40
0.5
  0
CIRCLE
  5
15C
100
AcDbEntity
  8
2502_9P
390
0
  6
PHANTOM
100
AcDbCircle
 10
22.2710825657
 20
217.9426397541
 30
0.0
 40
1.0
  0
LINE
  5
15D
100
AcDbEntity
  8
2502_9P
390
0
  6
DASHED
100
AcDbLine
 10
22.2710825657
 20
237.9426397541
 30
0.0
 11
25.2710825656
 21
234.4426397541
 31
0.0
  0
LINE
  5
15E
100
AcDbEntity
  8
2502_9P
390
0
  6
DASHED
100
AcDbLine
 10
30.7710825656
 20
234.4426397541
 30
0.0
 11
36.2710825656
 21
234.4426397541
 31
0.0
  0
LINE
  5
15F
100
AcDbEntity
  8
2502_9P
390
0
  6
DASHED
100
AcDbLine
 10
41.7710825656
 20
234.4426397541
 30
0.0
 11
45.5430866184
 21
221.9236096352
 31
0.0
  0
LINE
  5
160
100
AcDbEntity
  8
2502_9P
390
0
  6
DASHED
100
AcDbLine
 10
45.5430866184
 20
221.9236096352
 30
0.0
 11
57.7710825656
 21
234.4426397541
 31
0.0
  0
LINE
  5
161
100
AcDbEntity
  8
2502_9P
390
0
  6
DASHED
100
AcDbLine
 10
57.7710825656
 20
234.4426397541
 30
0.0
 11
23.4320609625
 21
231.4647210944
 31
0.0
  0
LINE
  5
162
100
AcDbEntity
  8
2502_9P
390
0
  6
DASHED
100
AcDbLine
 10
23.4320609625
 20
231.4647210944
 30
0.0
 11
22.2710825657
 21
217.9426397541
 31
0.0
  0
ARC
  5
163
100
AcDbEntity
  8
2502_9P
390
0
  6
DASHED
100
AcDbCircle
 10
28.0210825656
 20
231.24839994
 30
0.0
 40
4.2149339247
100
AcDbArc
 50
49.2740263164
 51
130.7259736836
  0
ARC
  5
164
100
AcDbEntity
  8
2502_9P
390
0
  6
DASHED
100
AcDbCircle
 10
39.0210825656
 20
232.2891078269
 30
0.0
 40
3.492878435
100
AcDbArc
 50
38.0645852457
 51
141.9354147544
  0
INSERT
  5
165
100
AcDbEntity
  8
BEMASSUNG
390
0
100
AcDbBlockReference
  2
D200597760
 10
0.0
 20
0.0
 30
0.0
  0
INSERT
  5
166
100
AcDbEntity
  8
BEMASSUNG
390
0
100
AcDbBlockReference
  2
D200598016
 10
0.0
 20
0.0
 30
0.0
  0
CIRCLE
  5
167
100
AcDbEntity
  8
2502_8P
390
0
  6
PHANTOM
100
AcDbCircle
 10
78.7695179179
 20
248.3535855319
 30
0.0
 40
0.5
  0
CIRCLE
  5
168
100
AcDbEntity
  8
2502_8P
390
0
  6
PHANTOM
100
AcDbCircle
 10
78.7695179181
 20
197.3535855319
 30
0.0
 40
1.0
  0
ARC
  5
169
100
AcDbEntity
  8
2501_6 HEBEL 0_0_22_5
390
0
100
AcDbCircle
 10
103.7695179179
 20
222.853585532
 30
0.0
 40
19.4769819501
100
AcDbArc
 50
181.2557755785
 51
196.2557755785
  0
ARC
  5
16A
100
AcDbEntity
  8
2502_8P
390
0
100
AcDbCircle
 10
103.7695179179
 20
222.853585532
 30
0.0
 40
18.4769819501
100
AcDbArc
 50
181.2557755785
 51
196.2879361188
  0
ARC
  5
16B
100
AcDbEntity
  8
2502_8P
390
0
100
AcDbCircle
 10
101.0037201715
 20
221.6915344034
 30
0.0
 40
15.4999999998
100
AcDbArc
 50
195.0321224901
 51
377.4796597241
  0
ARC
  5
16C
100
AcDbEntity
  8
2502_8P
390
0
100
AcDbCircle
 10
103.7695179179
 20
222.853585532
 30
0.0
 40
12.5159544056
100
AcDbArc
 50
16.2085838765
 51
211.2557755786
  0
LINE
  5
16D
100
AcDbEntity
  8
2502_8P
390
0
  6
DASHED
100
AcDbLine
 10
78.7695179179
 20
248.3535855319
 30
0.0
 11
88.5667221225
 21
238.0563813273
 31
0.0
  0
LINE
  5
16E
100
AcDbEntity
  8
2502_8P
390
0
  6
DASHED
100
AcDbLine
 10
124.536923183
 20
228.4181950016
 30
0.0
 11
110.5309987019
 21
224.6653188477
 31
0.0
  0
ARC
  5
16F
100
AcDbEntity
  8
2502_8P
390
0
  6
DASHED
100
AcDbCircle
 10
107.9891154492
 20
220.6287947256
 30
0.0
 40
4.7701884091
100
AcDbArc
 50
57.800524949
 51
152.1994750511
  0
ARC
  5
170
100
AcDbEntity
  8
2502_8P
390
0
  6
DASHED
100
AcDbCircle
 10
100.5886457626
 20
210.982409036
 30
0.0
 40
29.6230758639
100
AcDbArc
 50
36.0568698772
 51
113.9431301227
  0
LINE
  5
171
100
AcDbEntity
  8
2502_8P
390
0
  6
DASHED
100
AcDbLine
 10
103.7695179179
 20
222.8535855319
 30
0.0
 11
98.2049084483
 21
202.0861802669
 31
0.0
  0
LINE
  5
172
100
AcDbEntity
  8
2502_8P
390
0
  6
DASHED
100
AcDbLine
 10
98.2049084483
 20
202.0861802669
 30
0.0
 11
93.0701344853
 21
216.3595645245
 31
0.0
  0
ARC
  5
173
100
AcDbEntity
  8
2502_8P
390
0
100
AcDbCircle
 10
103.7695179179
 20
222.8535855319
 30
0.0
 40
25.5
100
AcDbArc
 50
134.7763766045
 51
224.900872156
  0
ARC
  5
174
100
AcDbEntity
  8
2502_8P
390
0
  6
BORDER
100
AcDbCircle
 10
103.7695179179
 20
222.8535855319
 30
0.0
 40
25.5
100
AcDbArc
 50
44.9008721559
 51
134.7763766045
  0
ARC
  5
175
100
AcDbEntity
  8
2502_8P
390
0
100
AcDbCircle
 10
103.7695179179
 20
222.8535855319
 30
0.0
 40
25.5
100
AcDbArc
 50
315.0991278441
 51
404.9008721559
  0
ARC
  5
176
100
AcDbEntity
  8
2502_8P
390
0
  6
BORDER
100
AcDbCircle
 10
103.7695179179
 20
222.8535855319
 30
0.0
 40
25.5
100
AcDbArc
 50
224.900872156
 51
315.0991278441
  0
LINE
  5
177
100
AcDbEntity
  8
2502_8P
390
0
  6
DASHED
100
AcDbLine
 10
85.2969737139
 20
222.4486502076
 30
0.0
 11
85.7071260497
 21
204.8535855319
 31
0.0
  0
LINE
  5
178
100
AcDbEntity
  8
2502_8P
390
0
  6
DASHED
100
AcDbLine
 10
85.7071260497
 20
204.8535855319
 30
0.0
 11
78.7695179181
 21
197.3535855319
 31
0.0
  0
LINE
  5
179
100
AcDbEntity
  8
MITTELLINIEN
390
0
100
AcDbLine
 10
78.7695179179
 20
253.3535855319
 30
0.0
 11
78.7695179181
 21
192.3535855319
 31
0.0
  0
LINE
  5
17A
100
AcDbEntity
  8
MITTELLINIEN
390
0
100
AcDbLine
 10
128.7695179179
 20
253.3535855321
 30
0.0
 11
128.7695179181
 21
192.3535855321
 31
0.0
  0
INSERT
  5
17B
100
AcDbEntity
  8
BEMASSUNG
390
0
100
AcDbBlockReference
  2
D200598272
 10
0.0
 20
0.0
 30
0.0
  0
ARC
  5
17C
100
AcDbEntity
  8
2500___ HILFSPFADE FÜR UNTERZUG
390
0
  6
DASHDOT
100
AcDbCircle
 10
150.0797094672
 20
152.6553579467
 30
0.0
 40
24.6541227588
100
AcDbArc
 50
131.3765562121
 51
228.6234437879
  0
LINE
  5
17D
100
AcDbEntity
  8
MITTELLINIEN
390
0
100
AcDbLine
 10
133.7832138621
 20
185.9689444899
 30
0.0
 11
133.7832138621
 21
129.1553579467
 31
0.0
  0
CIRCLE
  5
17E
100
AcDbEntity
  8
2502_2P
390
0
100
AcDbCircle
 10
145.7832138621
 20
152.6553579467
 30
0.0
 40
1.25
  0
MTEXT
  5
17F
100
AcDbEntity
  8
2502_2P
390
0
100
AcDbMText
 10
131.835532131
 20
163.6093186209
 30
0.0
 40
1.5
 41
0.0
 71
         5
 72
         1
  1
\W1.135109;>2500.2P\PM50+x5\PT5 O2
  7
Arial
 73
         1
 44
0.66
  0
ARC
  5
180
100
AcDbEntity
  8
2502_2P
390
0
  6
DASHDOT
100
AcDbCircle
 10
182.6572664696
 20
152.6553579467
 30
0.0
 40
52.2582339759
100
AcDbArc
 50
159.2671448564
 51
200.7328551436
  0
MTEXT
  5
181
100
AcDbEntity
  8
2500___ HILFSPFADE FÜR UNTERZUG
390
0
100
AcDbMText
 10
124.6733270748
 20
150.9701332276
 30
0.0
 40
2.0
 41
0.0
 71
         5
 72
         1
  1
\W1.135109;>2502.2P\PM50+x5\PT5 O2
  7
Arial
 73
         1
 44
0.66
  0
CIRCLE
  5
182
100
AcDbEntity
  8
2502_2P
390
0
  6
PHANTOM
100
AcDbCircle
 10
133.7832138621
 20
171.1553579467
 30
0.0
 40
0.5
  0
CIRCLE
  5
183
100
AcDbEntity
  8
2502_2P
390
0
  6
PHANTOM
100
AcDbCircle
 10
133.7832138621
 20
134.1553579467
 30
0.0
 40
1.0
  0
LINE
  5
184
100
AcDbEntity
  8
2502_2P
390
0
  6
DASHED
100
AcDbLine
 10
133.7832138621
 20
134.1553579467
 30
0.0
 11
145.7832138621
 21
152.6553579467
 31
0.0
  0
ARC
  5
185
100
AcDbEntity
  8
2502_2P
390
0
  6
DASHED
100
AcDbCircle
 10
126.9528815413
 20
151.7277356683
 30
0.0
 40
18.8531668003
100
AcDbArc
 50
291.2409599206
 51
362.8202322725
  0
LINE
  5
186
100
AcDbEntity
  8
MITTELLINIEN
390
0
100
AcDbLine
 10
183.7832138621
 20
185.9689444899
 30
0.0
 11
183.7832138621
 21
129.1553579467
 31
0.0
  0
ARC
  5
187
100
AcDbEntity
  8
2500___ HILFSPFADE FÜR UNTERZUG
390
0
  6
DASHDOT
100
AcDbCircle
 10
216.3010391445
 20
152.6553579467
 30
0.0
 40
24.6541227588
100
AcDbArc
 50
131.3765562121
 51
228.6234437879
  0
MTEXT
  5
188
100
AcDbEntity
  8
2500___ HILFSPFADE FÜR UNTERZUG
390
0
100
AcDbMText
 10
190.8946567521
 20
150.9701332276
 30
0.0
 40
2.0
 41
0.0
 71
         5
 72
         1
  1
\W1.135136;>2502.2T\PM50+x5\PT5 O6
  7
Arial
 73
         1
 44
0.66
  0
MTEXT
  5
189
100
AcDbEntity
  8
2502_2T
390
0
100
AcDbMText
 10
198.0568618082
 20
163.6093186209
 30
0.0
 40
2.0
 41
0.0
 71
         5
 72
         1
  1
\W1.135136;>2500.2T\PM50+x5\PT5 O6
  7
Arial
 73
         1
 44
0.66
  0
ARC
  5
18A
100
AcDbEntity
  8
2502_2T
390
0
  6
DASHDOT
100
AcDbCircle
 10
248.8785961469
 20
152.6553579467
 30
0.0
 40
52.2582339759
100
AcDbArc
 50
159.2671448564
 51
200.7328551436
  0
CIRCLE
  5
18B
100
AcDbEntity
  8
2502_2T
390
0
  6
PHANTOM
100
AcDbCircle
 10
200.0045435393
 20
171.1553579467
 30
0.0
 40
0.5
  0
CIRCLE
  5
18C
100
AcDbEntity
  8
2502_2T
390
0
  6
PHANTOM
100
AcDbCircle
 10
200.0045435393
 20
134.1553579467
 30
0.0
 40
1.0
  0
INSERT
  5
18D
100
AcDbEntity
  8
BEMASSUNG
390
0
100
AcDbBlockReference
  2
D159464960
 10
0.0
 20
0.0
 30
0.0
  0
INSERT
  5
18E
100
AcDbEntity
  8
BEMASSUNG
390
0
100
AcDbBlockReference
  2
D159469568
 10
0.0
 20
0.0
 30
0.0
  0
MTEXT
  5
18F
100
AcDbEntity
  8
2502_1P
390
0
  6
DIVIDE
100
AcDbMText
 10
143.0822951918
 20
233.0834690649
 30
0.0
 40
1.5
 41
0.0
 71
         5
 72
         1
  1
\W0.864827;M50+x2 T2 O2\PP4 U15     I1.4\PD1.5      B-0.3
  7
Arial
 73
         1
 44
0.66
  0
TEXT
  5
190
100
AcDbEntity
  8
2502_8P
390
0
  6
DIVIDE
100
AcDbText
 10
74.1742718183
 20
248.7303860365
 30
0.0
 40
1.5
  1
@2502.1P
 41
0.8648175752
  7
Arial
 72
         1
 11
78.7027711212
 21
249.4803860365
 31
0.0
100
AcDbText
 73
         2
  0
TEXT
  5
191
100
AcDbEntity
  8
2502_9P
390
0
  6
DIVIDE
100
AcDbText
 10
17.6758364661
 20
238.3194402586
 30
0.0
 40
1.5
  1
@2502.1P
 41
0.8648175752
  7
Arial
 72
         1
 11
22.204335769
 21
239.0694402586
 31
0.0
100
AcDbText
 73
         2
  0
ARC
  5
192
100
AcDbEntity
  8
2502___ UNTERZUG FÜR ZWEI ATTRIEBE
390
0
  6
DASHDOT
100
AcDbCircle
 10
28.044369983
 20
227.9426397541
 30
0.0
 40
11.546897748
100
AcDbArc
 50
119.9990749171
 51
240.0009250829
  0
ARC
  5
193
100
AcDbEntity
  8
2502___ UNTERZUG FÜR ZWEI ATTRIEBE
390
0
  6
DASHDOT
100
AcDbCircle
 10
123.8401015972
 20
222.8535855321
 30
0.0
 40
51.7842400078
100
AcDbArc
 50
150.4997201001
 51
209.5002799003
  0
MTEXT
  5
194
100
AcDbEntity
  8
2500___ HILFSPFADE FÜR UNTERZUG
390
0
100
AcDbMText
 10
16.4933476071
 20
227.2048692274
 30
0.0
 40
2.0
 41
0.0
 71
         5
 72
         1
  1
\W1.135110;>2502.9P\PM50+x2\PT2 O2
  7
Arial
 73
         1
 44
0.66
  0
MTEXT
  5
195
100
AcDbEntity
  8
2500___ HILFSPFADE FÜR UNTERZUG
390
0
100
AcDbMText
 10
71.6844571577
 20
212.0378467555
 30
0.0
 40
2.0
 41
0.0
 71
         5
 72
         1
  1
\W1.135110;>2502.8P\PM50+x2\PT2 O2
  7
Arial
 73
         1
 44
0.66
  0
MTEXT
  5
196
100
AcDbEntity
  8
2500___ HILFSPFADE FÜR UNTERZUG
390
0
100
AcDbMText
 10
140.357364461
 20
226.3622568679
 30
0.0
 40
2.0
 41
0.0
 71
         5
 72
         1
  1
\W1.135110;>2502.1P\PM50+x2\PT2 O2
  7
Arial
 73
         1
 44
0.66
  0
ARC
  5
197
100
AcDbEntity
  8
2502___ UNTERZUG FÜR ZWEI ATTRIEBE
390
0
  6
DASHDOT
100
AcDbCircle
 10
145.1692555435
 20
226.9183608128
 30
0.0
 40
6.2722505847
100
AcDbArc
 50
106.9431397398
 51
253.0568602602
  0
TEXT
  5
198
100
AcDbEntity
  8
2502_2P
390
0
  6
DIVIDE
100
AcDbText
 10
128.879600505
 20
171.7213370574
 30
0.0
 40
1.5
  1
@2502.5P
 41
0.864817523
  7
Arial
 72
         1
 11
133.5789862902
 21
172.4713370574
 31
0.0
100
AcDbText
 73
         2
  0
TEXT
  5
199
100
AcDbEntity
  8
2502_6T
390
0
  6
DIVIDE
100
AcDbText
 10
98.5796518181
 20
105.7213370574
 30
0.0
 40
1.5
  1
@2502.5T
 41
0.8648271109
  7
Arial
 72
         1
 11
103.2790897034
 21
106.4713370574
 31
0.0
100
AcDbText
 73
         2
  0
TEXT
  5
19A
100
AcDbEntity
  8
2502_2T
390
0
  6
DIVIDE
100
AcDbText
 10
195.790219094
 20
171.7213370574
 30
0.0
 40
1.5
  1
@2502.5P
 41
0.864817523
  7
Arial
 72
         1
 11
200.4896048792
 21
172.4713370574
 31
0.0
100
AcDbText
 73
         2
  0
TEXT
  5
19B
100
AcDbEntity
  8
2502_7T
390
0
  6
DIVIDE
100
AcDbText
 10
198.1766890246
 20
105.5870161257
 30
0.0
 40
1.5
  1
@2502.5T
 41
0.8648271109
  7
Arial
 72
         1
 11
202.87612691
 21
106.3370161257
 31
0.0
100
AcDbText
 73
         2
  0
CIRCLE
  5
19C
100
AcDbEntity
  8
2502_5P
390
0
100
AcDbCircle
 10
51.7218364892
 20
154.467091262
 30
0.0
 40
1.25
  0
ARC
  5
19D
100
AcDbEntity
  8
2502_5P
390
0
  6
DIVIDE
 62
        14
100
AcDbCircle
 10
61.2491150196
 20
151.4933068188
 30
0.0
 40
15.5
100
AcDbArc
 50
258.8400631278
 51
461.1599368722
  0
ARC
  5
19E
100
AcDbEntity
  8
2502_5P
390
0
  6
DIVIDE
100
AcDbCircle
 10
61.2491150196
 20
151.4933068188
 30
0.0
 40
15.5
100
AcDbArc
 50
101.1599368722
 51
258.8400631278
  0
LINE
  5
19F
100
AcDbEntity
  8
2502_5P
390
0
  6
DASHED
100
AcDbLine
 10
37.715912008
 20
158.2199674153
 30
0.0
 11
51.7218364892
 21
154.467091262
 31
0.0
  0
LINE
  5
1A0
100
AcDbEntity
  8
2502_5P
390
0
  6
DASHED
100
AcDbLine
 10
51.7218364892
 20
154.467091262
 30
0.0
 11
73.6861130679
 21
167.8581537429
 31
0.0
  0
LINE
  5
1A1
100
AcDbEntity
  8
2502_5P
390
0
  6
DASHED
100
AcDbLine
 10
73.6861130679
 20
167.8581537429
 30
0.0
 11
58.2491150196
 21
166.7002131446
 31
0.0
  0
LINE
  5
1A2
100
AcDbEntity
  8
2502_5P
390
0
  6
DASHED
100
AcDbLine
 10
58.2491150196
 20
166.7002131446
 30
0.0
 11
58.4833172733
 21
152.6553579467
 31
0.0
  0
LINE
  5
1A3
100
AcDbEntity
  8
2502_6P
390
0
  6
DASHED
100
AcDbLine
 10
58.249115023
 20
87.7002131446
 30
0.0
 11
57.9833172767
 21
73.6553579467
 31
0.0
  0
CIRCLE
  5
1A4
100
AcDbEntity
  8
2502_6P
390
0
100
AcDbCircle
 10
37.7159120114
 20
79.2199674153
 30
0.0
 40
1.5
  0
CIRCLE
  5
1A5
100
AcDbEntity
  8
2502_6P
390
0
100
AcDbCircle
 10
64.0479267475
 20
52.887952682
 30
0.0
 40
1.5
  0
CIRCLE
  5
1A6
100
AcDbEntity
  8
2502_6P
390
0
100
AcDbCircle
 10
73.6861130713
 20
88.8581537429
 30
0.0
 40
1.5
  0
CIRCLE
  5
1A7
100
AcDbEntity
  8
2502_6P
390
0
100
AcDbCircle
 10
58.4833172779
 20
51.6553579467
 30
0.0
 40
1.75
  0
CIRCLE
  5
1A8
100
AcDbEntity
  8
2502_6P
390
0
100
AcDbCircle
 10
53.4151864178
 20
53.7917215828
 30
0.0
 40
1.25
  0
TEXT
  5
1A9
100
AcDbEntity
  8
2502_6P
390
0
  6
PHANTOM
100
AcDbText
 10
41.0124528394
 20
46.092672025
 30
0.0
 40
2.0
  1
N1
 41
1.1350267802
  7
Arial
100
AcDbText
  0
LINE
  5
1AA
100
AcDbEntity
  8
2502_6P
390
0
  6
DASHED
100
AcDbLine
 10
58.483317278
 20
51.6553579467
 30
0.0
 11
53.4151864178
 21
53.7917215828
 31
0.0
  0
LINE
  5
1AB
100
AcDbEntity
  8
2502_6P
390
0
  6
DASHED
100
AcDbLine
 10
53.4151864178
 20
53.7917215828
 30
0.0
 11
33.483317278
 21
42.1553579478
 31
0.0
  0
LINE
  5
1AC
100
AcDbEntity
  8
2502_6P
390
0
  6
DASHED
100
AcDbLine
 10
64.0479267475
 20
52.887952682
 30
0.0
 11
58.483317278
 21
51.6553579467
 31
0.0
  0
LINE
  5
1AD
100
AcDbEntity
  8
2502_6P
390
0
  6
DASHED
100
AcDbLine
 10
33.483317278
 20
42.1553579478
 30
0.0
 11
37.7159120114
 21
79.2199674153
 31
0.0
  0
LINE
  5
1AE
100
AcDbEntity
  8
2502_6P
390
0
  6
DASHED
100
AcDbLine
 10
58.9833172767
 20
73.6553579467
 30
0.0
 11
64.0479267475
 21
52.887952682
 31
0.0
  0
LINE
  5
1AF
100
AcDbEntity
  8
2502_6P
390
0
  6
DASHED
100
AcDbLine
 10
73.6861130713
 20
88.8581537429
 30
0.0
 11
58.249115023
 21
87.7002131446
 31
0.0
  0
LINE
  5
1B0
100
AcDbEntity
  8
2502_6P
390
0
  6
DASHED
100
AcDbLine
 10
51.7218364926
 20
75.467091262
 30
0.0
 11
73.6861130713
 21
88.8581537429
 31
0.0
  0
LINE
  5
1B1
100
AcDbEntity
  8
2502_6P
390
0
  6
DASHED
100
AcDbLine
 10
37.7159120114
 20
79.2199674153
 30
0.0
 11
51.7218364926
 21
75.467091262
 31
0.0
  0
ARC
  5
1B2
100
AcDbEntity
  8
2502_6P
390
0
  6
DIVIDE
100
AcDbCircle
 10
61.249115023
 20
72.4933068188
 30
0.0
 40
15.5
100
AcDbArc
 50
101.1599368722
 51
258.8400631278
  0
ARC
  5
1B3
100
AcDbEntity
  8
2502_6P
390
0
  6
DIVIDE
 62
        14
100
AcDbCircle
 10
61.249115023
 20
72.4933068188
 30
0.0
 40
15.5
100
AcDbArc
 50
258.8400631278
 51
461.1599368722
  0
CIRCLE
  5
1B4
100
AcDbEntity
  8
2502_6P
390
0
100
AcDbCircle
 10
51.7218364926
 20
75.467091262
 30
0.0
 40
1.25
  0
LINE
  5
1B5
100
AcDbEntity
  8
2502_6P
390
0
100
AcDbLine
 10
57.9833172767
 20
73.6553579467
 30
0.0
 11
58.9833172767
 21
73.6553579467
 31
0.0
  0
LINE
  5
1B6
100
AcDbEntity
  8
2502_7P
390
0
100
AcDbLine
 10
157.9833172746
 20
73.6553579467
 30
0.0
 11
158.9833172746
 21
73.6553579467
 31
0.0
  0
LINE
  5
1B7
100
AcDbEntity
  8
2501_2-4 ROLLEN
390
0
100
AcDbLine
 10
157.9833172747
 20
72.6553579467
 30
0.0
 11
158.9833172747
 21
72.6553579467
 31
0.0
  0
LINE
  5
1B8
100
AcDbEntity
  8
2501_2-4 ROLLEN
390
0
100
AcDbLine
 10
158.9833172745
 20
74.6553579467
 30
0.0
 11
157.9833172745
 21
74.6553579467
 31
0.0
  0
ARC
  5
1B9
100
AcDbEntity
  8
2501_2-4 ROLLEN
390
0
100
AcDbCircle
 10
157.9833172746
 20
73.6553579467
 30
0.0
 40
1.0
100
AcDbArc
 50
90.000000003
 51
270.000000003
  0
ARC
  5
1BA
100
AcDbEntity
  8
2501_2-4 ROLLEN
390
0
100
AcDbCircle
 10
158.9833172746
 20
73.6553579467
 30
0.0
 40
1.0
100
AcDbArc
 50
270.000000003
 51
450.000000003
  0
TEXT
  5
1BB
100
AcDbEntity
  8
2502_7P
390
0
  6
PHANTOM
100
AcDbText
 10
141.0124528373
 20
46.092672025
 30
0.0
 40
2.0
  1
N1
 41
1.1350267802
  7
Arial
100
AcDbText
  0
LINE
  5
1BC
100
AcDbEntity
  8
2502_7P
390
0
  6
DASHED
100
AcDbLine
 10
153.4151864157
 20
53.7917215828
 30
0.0
 11
133.4833172759
 21
42.1553579478
 31
0.0
  0
LINE
  5
1BD
100
AcDbEntity
  8
2502_7P
390
0
  6
DASHED
100
AcDbLine
 10
158.9833172746
 20
73.6553579467
 30
0.0
 11
158.4833172759
 21
51.6553579467
 31
0.0
  0
LINE
  5
1BE
100
AcDbEntity
  8
2502_7P
390
0
  6
DASHED
100
AcDbLine
 10
133.4833172759
 20
42.1553579478
 30
0.0
 11
157.9833172746
 21
73.6553579467
 31
0.0
  0
LINE
  5
1BF
100
AcDbEntity
  8
2502_7P
390
0
  6
DASHED
100
AcDbLine
 10
158.4833172759
 20
51.6553579467
 30
0.0
 11
153.4151864157
 21
53.7917215828
 31
0.0
  0
CIRCLE
  5
1C0
100
AcDbEntity
  8
2502_7P
390
0
100
AcDbCircle
 10
153.4151864157
 20
53.7917215828
 30
0.0
 40
1.25
  0
CIRCLE
  5
1C1
100
AcDbEntity
  8
2502_7P
390
0
100
AcDbCircle
 10
158.4833172757
 20
51.6553579467
 30
0.0
 40
1.75
  0
LINE
  5
1C2
100
AcDbEntity
  8
STANDARD
390
0
100
AcDbLine
 10
10.0
 20
5.0
 30
0.0
 11
10.0
 21
292.0
 31
0.0
  0
LINE
  5
1C3
100
AcDbEntity
  8
STANDARD
390
0
100
AcDbLine
 10
15.0
 20
287.0
 30
0.0
 11
205.0
 21
287.0
 31
0.0
  0
LINE
  5
1C4
100
AcDbEntity
  8
STANDARD
390
0
100
AcDbLine
 10
10.0
 20
292.0
 30
0.0
 11
15.0
 21
292.0
 31
0.0
  0
LINE
  5
1C5
100
AcDbEntity
  8
STANDARD
390
0
100
AcDbLine
 10
10.0
 20
5.0
 30
0.0
 11
15.0
 21
5.0
 31
0.0
  0
LINE
  5
1C6
100
AcDbEntity
  8
STANDARD
390
0
100
AcDbLine
 10
10.0
 20
244.1666666667
 30
0.0
 11
15.0
 21
244.1666666667
 31
0.0
  0
LINE
  5
1C7
100
AcDbEntity
  8
STANDARD
390
0
100
AcDbLine
 10
10.0
 20
196.3333333333
 30
0.0
 11
15.0
 21
196.3333333333
 31
0.0
  0
LINE
  5
1C8
100
AcDbEntity
  8
STANDARD
390
0
100
AcDbLine
 10
10.0
 20
148.5
 30
0.0
 11
15.0
 21
148.5
 31
0.0
  0
LINE
  5
1C9
100
AcDbEntity
  8
STANDARD
390
0
100
AcDbLine
 10
10.0
 20
100.6666666667
 30
0.0
 11
15.0
 21
100.6666666667
 31
0.0
  0
LINE
  5
1CA
100
AcDbEntity
  8
STANDARD
390
0
100
AcDbLine
 10
10.0
 20
52.8333333333
 30
0.0
 11
15.0
 21
52.8333333333
 31
0.0
  0
LINE
  5
1CB
100
AcDbEntity
  8
STANDARD
390
0
100
AcDbLine
 10
157.5
 20
292.0
 30
0.0
 11
157.5
 21
287.0
 31
0.0
  0
LINE
  5
1CC
100
AcDbEntity
  8
STANDARD
390
0
100
AcDbLine
 10
110.0
 20
292.0
 30
0.0
 11
110.0
 21
287.0
 31
0.0
  0
LINE
  5
1CD
100
AcDbEntity
  8
STANDARD
390
0
100
AcDbLine
 10
62.5
 20
292.0
 30
0.0
 11
62.5
 21
287.0
 31
0.0
  0
TEXT
  5
1CE
100
AcDbEntity
  8
STANDARD
390
0
100
AcDbText
 10
10.9491078691
 20
267.8641561278
 30
0.0
 40
2.23125
  1
A
 41
1.547986837
  7
Arial
 72
         1
 11
12.6760806841
 21
270.0954061278
 31
0.0
100
AcDbText
 73
         3
  0
TEXT
  5
1CF
100
AcDbEntity
  8
STANDARD
390
0
100
AcDbText
 10
10.9491074243
 20
220.0308227945
 30
0.0
 40
2.23125
  1
B
 41
1.5479872357
  7
Arial
 72
         1
 11
12.6760806841
 21
222.2620727945
 31
0.0
100
AcDbText
 73
         3
  0
TEXT
  5
1D0
100
AcDbEntity
  8
STANDARD
390
0
100
AcDbText
 10
10.9489779593
 20
172.1974894612
 30
0.0
 40
2.23125
  1
C
 41
1.5481032827
  7
Arial
 72
         1
 11
12.6760806841
 21
174.4287394612
 31
0.0
100
AcDbText
 73
         3
  0
TEXT
  5
1D1
100
AcDbEntity
  8
STANDARD
390
0
100
AcDbText
 10
10.9489771034
 20
124.3641561278
 30
0.0
 40
2.23125
  1
D
 41
1.54810405
  7
Arial
 72
         1
 11
12.6760806841
 21
126.5954061278
 31
0.0
100
AcDbText
 73
         3
  0
TEXT
  5
1D2
100
AcDbEntity
  8
STANDARD
390
0
100
AcDbText
 10
10.9491076096
 20
76.5308227945
 30
0.0
 40
2.23125
  1
E
 41
1.5479870696
  7
Arial
 72
         1
 11
12.6760806841
 21
78.7620727945
 31
0.0
100
AcDbText
 73
         3
  0
TEXT
  5
1D3
100
AcDbEntity
  8
STANDARD
390
0
100
AcDbText
 10
10.9493506612
 20
28.6974894612
 30
0.0
 40
2.23125
  1
F
 41
1.5477692083
  7
Arial
 72
         1
 11
12.6760806841
 21
30.9287394612
 31
0.0
100
AcDbText
 73
         3
  0
TEXT
  5
1D4
100
AcDbEntity
  8
STANDARD
390
0
100
AcDbText
 10
36.7048241449
 20
288.48599354
 30
0.0
 40
2.23125
  1
1
 41
1.5479225906
  7
Arial
 72
         1
 11
38.0
 21
290.71724354
 31
0.0
100
AcDbText
 73
         3
  0
TEXT
  5
1D5
100
AcDbEntity
  8
STANDARD
390
0
100
AcDbText
 10
83.7730999712
 20
288.48599354
 30
0.0
 40
2.23125
  1
2
 41
1.5479215945
  7
Arial
 72
         1
 11
85.5
 21
290.71724354
 31
0.0
100
AcDbText
 73
         3
  0
TEXT
  5
1D6
100
AcDbEntity
  8
STANDARD
390
0
100
AcDbText
 10
131.2730986376
 20
288.48599354
 30
0.0
 40
2.23125
  1
3
 41
1.5479227899
  7
Arial
 72
         1
 11
133.0
 21
290.71724354
 31
0.0
100
AcDbText
 73
         3
  0
TEXT
  5
1D7
100
AcDbEntity
  8
STANDARD
390
0
100
AcDbText
 10
178.7730988598
 20
288.48599354
 30
0.0
 40
2.23125
  1
4
 41
1.5479225906
  7
Arial
 72
         1
 11
180.5
 21
290.71724354
 31
0.0
100
AcDbText
 73
         3
  0
LINE
  5
1D8
100
AcDbEntity
  8
STANDARD
390
0
100
AcDbLine
 10
205.0
 20
292.0
 30
0.0
 11
205.0
 21
287.0
 31
0.0
  0
LINE
  5
1D9
100
AcDbEntity
  8
STANDARD
390
0
100
AcDbLine
 10
205.0
 20
5.0
 30
0.0
 11
15.0
 21
5.0
 31
0.0
  0
LINE
  5
1DA
100
AcDbEntity
  8
STANDARD
390
0
100
AcDbLine
 10
15.0
 20
5.0
 30
0.0
 11
15.0
 21
287.0
 31
0.0
  0
LINE
  5
1DB
100
AcDbEntity
  8
STANDARD
390
0
100
AcDbLine
 10
15.0
 20
292.0
 30
0.0
 11
205.0
 21
292.0
 31
0.0
  0
LINE
  5
1DC
100
AcDbEntity
  8
STANDARD
390
0
100
AcDbLine
 10
1.0
 20
1.0
 30
0.0
 11
1.0
 21
296.0
 31
0.0
  0
LINE
  5
1DD
100
AcDbEntity
  8
STANDARD
390
0
100
AcDbLine
 10
209.0
 20
1.0
 30
0.0
 11
1.0
 21
1.0
 31
0.0
  0
LINE
  5
1DE
100
AcDbEntity
  8
STANDARD
390
0
100
AcDbLine
 10
209.0
 20
296.0
 30
0.0
 11
209.0
 21
1.0
 31
0.0
  0
LINE
  5
1DF
100
AcDbEntity
  8
STANDARD
390
0
100
AcDbLine
 10
1.0
 20
296.0
 30
0.0
 11
209.0
 21
296.0
 31
0.0
  0
LINE
  5
1E0
100
AcDbEntity
  8
STANDARD
390
0
100
AcDbLine
 10
15.0
 20
287.0
 30
0.0
 11
15.0
 21
292.0
 31
0.0
  0
LINE
  5
1E1
100
AcDbEntity
  8
STANDARD
390
0
100
AcDbLine
 10
205.0
 20
287.0
 30
0.0
 11
205.0
 21
5.0
 31
0.0
  0
MTEXT
  5
1E2
100
AcDbEntity
  8
STANDARD
390
0
100
AcDbMText
 10
203.6063292805
 20
81.4222772661
 30
0.0
 40
1.59375
 41
0.0
 71
         1
 72
         1
  1

  7
Arial
 11
0.0
 21
-1.0
 31
0.0
 73
         1
 44
1.0352941176
  0
MTEXT
  5
1E3
100
AcDbEntity
  8
STANDARD
390
0
100
AcDbMText
 10
116.6968769253
 20
27.5871143065
 30
0.0
 40
1.59375
 41
0.0
 71
         1
 72
         1
  1

  7
Arial
 11
0.0
 21
-1.0
 31
0.0
 73
         1
 44
1.0352941176
  0
MTEXT
  5
1E4
100
AcDbEntity
  8
STANDARD
390
0
100
AcDbMText
 10
203.6063292805
 20
125.7560948498
 30
0.0
 40
1.59375
 41
0.0
 71
         1
 72
         1
  1

  7
Arial
 11
0.0
 21
-1.0
 31
0.0
 73
         1
 44
1.0352941176
  0
LINE
  5
1E5
100
AcDbEntity
  8
STANDARD
390
0
100
AcDbLine
 10
205.0
 20
182.1150997151
 30
0.0
 11
205.0
 21
5.1236467236
 31
0.0
  0
LINE
  5
1E6
100
AcDbEntity
  8
STANDARD
370
         0
390
0
100
AcDbLine
 10
127.305982906
 20
34.4
 30
0.0
 11
127.305982906
 21
5.0
 31
0.0
  0
LINE
  5
1E7
100
AcDbEntity
  8
STANDARD
370
         0
390
0
100
AcDbLine
 10
81.105982906
 20
34.4
 30
0.0
 11
205.0
 21
34.4
 31
0.0
  0
LINE
  5
1E8
100
AcDbEntity
  8
STANDARD
370
         0
390
0
100
AcDbLine
 10
81.105982906
 20
27.4
 30
0.0
 11
205.0
 21
27.4
 31
0.0
  0
LINE
  5
1E9
100
AcDbEntity
  8
STANDARD
370
         0
390
0
100
AcDbLine
 10
81.105982906
 20
12.0
 30
0.0
 11
205.0
 21
12.0
 31
0.0
  0
LINE
  5
1EA
100
AcDbEntity
  8
STANDARD
370
         0
390
0
100
AcDbLine
 10
81.105982906
 20
34.4
 30
0.0
 11
81.105982906
 21
5.0
 31
0.0
  0
LINE
  5
1EB
100
AcDbEntity
  8
STANDARD
370
         0
390
0
100
AcDbLine
 10
165.105982906
 20
34.4
 30
0.0
 11
165.105982906
 21
27.4
 31
0.0
  0
TEXT
  5
1EC
100
AcDbEntity
  8
BESCHRIFTUNG
390
0
100
AcDbText
 10
82.2010860399
 20
29.1386
 30
0.0
 40
3.3
  1
Stellwerk HMM
 41
1.3758039542
 51
15.0
  7
Arial
 11
82.2010860399
 21
32.4386
 31
0.0
100
AcDbText
 73
         3
  0
TEXT
  5
1ED
100
AcDbEntity
  8
BESCHRIFTUNG
390
0
100
AcDbText
 10
128.6210415954
 20
21.6601111111
 30
0.0
 40
3.3
  1
Unterzug für zwei Abtriebe
 41
1.1301786559
 51
15.0
  7
Arial
 11
128.6210415954
 21
24.9601111111
 31
0.0
100
AcDbText
 73
         3
  0
TEXT
  5
1EE
100
AcDbEntity
  8
BESCHRIFTUNG
390
0
100
AcDbText
 10
82.2010860399
 20
6.9230888889
 30
0.0
 40
3.3
  1
Dateiname
 41
1.1437088374
 51
15.0
  7
Arial
 11
82.2010860399
 21
10.2230888889
 31
0.0
100
AcDbText
 73
         3
  0
TEXT
  5
1EF
100
AcDbEntity
  8
BESCHRIFTUNG
390
0
100
AcDbText
 10
82.4210415954
 20
21.6601111111
 30
0.0
 40
3.3
  1
Bl. 2502 Pv
 41
1.1437153669
 51
15.0
  7
Arial
 11
82.4210415954
 21
24.9601111111
 31
0.0
100
AcDbText
 73
         3
  0
TEXT
  5
1F0
100
AcDbEntity
  8
BESCHRIFTUNG
390
0
100
AcDbText
 10
166.2010860399
 20
29.1386
 30
0.0
 40
3.3
  1
Maßstab 1:1
 41
1.1437192123
 51
15.0
  7
Arial
 11
166.2010860399
 21
32.4386
 31
0.0
100
AcDbText
 73
         3
  0
ENDSEC
  0
SECTION
  2
OBJECTS
  0
DICTIONARY
  5
19
100
AcDbDictionary
280
         0
281
         1
  3
ACAD_GROUP
350
1A
  3
ACAD_MLINESTYLE
350
1B
  3
ACAD_LAYOUT
350
1E
  3
ACAD_PLOTSETTINGS
350
22
  3
ACAD_PLOTSTYLENAME
350
1F
  3
ACAD_WIPEOUT_VARS
350
23
  0
DICTIONARY
  5
1A
102
{ACAD_REACTORS
330
19
102
}
100
AcDbDictionary
280
         0
281
         1
  0
DICTIONARY
  5
1B
102
{ACAD_REACTORS
330
19
102
}
100
AcDbDictionary
280
         0
281
         1
  3
Standard
350
1C
  0
MLINESTYLE
  5
1C
102
{ACAD_REACTORS
330
1B
102
}
100
AcDbMlineStyle
  2
Standard
 70
         0
  3

 62
         0
 51
90.0
 52
90.0
 71
         2
 49
0.5
 62
       256
  6
ByLayer
 49
-0.5
 62
       256
  6
ByLayer
  0
ACDBDICTIONARYWDFLT
  5
1F
102
{ACAD_REACTORS
330
19
102
}
100
AcDbDictionary
281
         1
  3
Normal
350
1D
100
AcDbDictionaryWithDefault
340
1D
  0
ACDBPLACEHOLDER
  5
1D
102
{ACAD_REACTORS
330
1F
102
}
  0
LAYOUT
  5
20
102
{ACAD_REACTORS
330
1E
102
}
100
AcDbPlotSettings
  1

  2

  4

  6

 40
0.0
 41
0.0
 42
0.0
 43
0.0
 44
0.0
 45
0.0
 46
0.0
 47
0.0
 48
0.0
 49
0.0
140
0.0
141
0.0
142
1.0
143
1.0
 70
      1024
 72
         0
 73
         0
 74
         0
  7

 75
         0
147
1.0
148
0.0
149
0.0
100
AcDbLayout
  1
Model
 70
         0
 71
         0
 10
0.0
 20
0.0
 11
0.0
 21
0.0
 12
0.0
 22
0.0
 32
0.0
 14
0.0
 24
0.0
 34
0.0
 15
0.0
 25
0.0
 35
0.0
146
0.0
 13
0.0
 23
0.0
 33
0.0
 16
0.0
 26
0.0
 36
0.0
 17
0.0
 27
0.0
 37
0.0
 76
         0
330
A
331
0
345
0
346
0
  0
LAYOUT
  5
21
102
{ACAD_REACTORS
330
1E
102
}
100
AcDbPlotSettings
  1

  2

  4

  6

 40
0.0
 41
0.0
 42
0.0
 43
0.0
 44
0.0
 45
0.0
 46
0.0
 47
0.0
 48
0.0
 49
0.0
140
0.0
141
0.0
142
1.0
143
1.0
 70
         0
 72
         0
 73
         0
 74
         0
  7

 75
         0
147
1.0
148
0.0
149
0.0
100
AcDbLayout
  1
Layout1
 70
         0
 71
         0
 10
0.0
 20
0.0
 11
0.0
 21
0.0
 12
0.0
 22
0.0
 32
0.0
 14
0.0
 24
0.0
 34
0.0
 15
0.0
 25
0.0
 35
0.0
146
0.0
 13
0.0
 23
0.0
 33
0.0
 16
0.0
 26
0.0
 36
0.0
 17
0.0
 27
0.0
 37
0.0
 76
         0
330
B
331
0
345
0
346
0
  0
DICTIONARY
  5
1E
102
{ACAD_REACTORS
330
19
102
}
100
AcDbDictionary
280
         0
281
         1
  3
Layout1
350
21
  3
Model
350
20
  0
DICTIONARY
  5
22
102
{ACAD_REACTORS
330
19
102
}
100
AcDbDictionary
280
         0
281
         1
  0
WIPEOUTVARIABLES
  5
23
100
AcDbWipeoutVariables
 70
         1
  0
ENDSEC
  0
EOF
