  0
SECTION
  2
HEADER
  9
$ACADVER
  1
AC1015
  9
$ACADMAINTVER
 70
         6
  9
$DWGCODEPAGE
  3
ANSI_1252
  9
$INSBASE
 10
0.0
 20
0.0
 30
0.0
  9
$EXTMIN
 10
0.0
 20
0.0
 30
0.0
  9
$EXTMAX
 10
210.0
 20
297.0
 30
0.0
  9
$LIMMIN
 10
0.0
 20
0.0
  9
$LIMMAX
 10
210.0
 20
297.0
  9
$ORTHOMODE
 70
         0
  9
$REGENMODE
 70
         1
  9
$FILLMODE
 70
         1
  9
$QTEXTMODE
 70
         0
  9
$MIRRTEXT
 70
         1
  9
$LTSCALE
 40
5.25
  9
$ATTMODE
 70
         1
  9
$TEXTSIZE
 40
0.2
  9
$TRACEWID
 40
0.05
  9
$TEXTSTYLE
  7
Standard
  9
$CLAYER
  8
0
  9
$CELTYPE
  6
CONTINUOUS
  9
$CECOLOR
 62
       256
  9
$CELTSCALE
 40
1.0
  9
$DISPSILH
 70
         0
  9
$DIMSCALE
 40
1.0
  9
$DIMASZ
 40
0.18
  9
$DIMEXO
 40
0.0625
  9
$DIMDLI
 40
0.38
  9
$DIMRND
 40
0.0
  9
$DIMDLE
 40
0.0
  9
$DIMEXE
 40
0.18
  9
$DIMTP
 40
0.0
  9
$DIMTM
 40
0.0
  9
$DIMTXT
 40
3.0
  9
$DIMCEN
 40
0.09
  9
$DIMTSZ
 40
0.0
  9
$DIMTOL
 70
         0
  9
$DIMLIM
 70
         0
  9
$DIMTIH
 70
         1
  9
$DIMTOH
 70
         1
  9
$DIMSE1
 70
         0
  9
$DIMSE2
 70
         0
  9
$DIMTAD
 70
         1
  9
$DIMZIN
 70
         0
  9
$DIMBLK
  1

  9
$DIMASO
 70
         1
  9
$DIMSHO
 70
         1
  9
$DIMPOST
  1
<>
  9
$DIMAPOST
  1

  9
$DIMALT
 70
         0
  9
$DIMALTD
 70
         2
  9
$DIMALTF
 40
25.4
  9
$DIMLFAC
 40
1.0
  9
$DIMTOFL
 70
         0
  9
$DIMTVP
 40
0.0
  9
$DIMTIX
 70
         0
  9
$DIMSOXD
 70
         0
  9
$DIMSAH
 70
         0
  9
$DIMBLK1
  1

  9
$DIMBLK2
  1

  9
$DIMSTYLE
  2
Standard
  9
$DIMCLRD
 70
         0
  9
$DIMCLRE
 70
         0
  9
$DIMCLRT
 70
         0
  9
$DIMTFAC
 40
1.0
  9
$DIMGAP
 40
0.09
  9
$DIMJUST
 70
         0
  9
$DIMSD1
 70
         0
  9
$DIMSD2
 70
         0
  9
$DIMTOLJ
 70
         1
  9
$DIMTZIN
 70
         0
  9
$DIMALTZ
 70
         0
  9
$DIMALTTZ
 70
         0
  9
$DIMUPT
 70
         0
  9
$DIMDEC
 70
         4
  9
$DIMTDEC
 70
         4
  9
$DIMALTU
 70
         2
  9
$DIMALTTD
 70
         2
  9
$DIMTXSTY
  7
Standard
  9
$DIMAUNIT
 70
         0
  9
$DIMADEC
 70
         0
  9
$DIMALTRND
 40
0.0
  9
$DIMAZIN
 70
         0
  9
$DIMDSEP
 70
         0
  9
$DIMATFIT
 70
         3
  9
$DIMFRAC
 70
         0
  9
$DIMLDRBLK
  1

  9
$DIMLUNIT
 70
         2
  9
$DIMLWD
 70
         0
  9
$DIMLWE
 70
         0
  9
$DIMTMOVE
 70
         0
  9
$LUNITS
 70
         2
  9
$LUPREC
 70
         4
  9
$SKETCHINC
 40
0.1
  9
$FILLETRAD
 40
0.0
  9
$AUNITS
 70
         0
  9
$AUPREC
 70
         0
  9
$MENU
  1
acad
  9
$ELEVATION
 40
0.0
  9
$PELEVATION
 40
0.0
  9
$THICKNESS
 40
0.0
  9
$LIMCHECK
 70
         0
  9
$CHAMFERA
 40
0.0
  9
$CHAMFERB
 40
0.0
  9
$CHAMFERC
 40
0.0
  9
$CHAMFERD
 40
0.0
  9
$SKPOLY
 70
         0
  9
$TDCREATE
 40
0.000000000
  9
$TDUCREATE
 40
0.000000000
  9
$TDUPDATE
 40
0.000000000
  9
$TDUUPDATE
 40
0.000000000
  9
$TDINDWG
 40
0.0000000000
  9
$TDUSRTIMER
 40
0.0000000000
  9
$USRTIMER
 70
         1
  9
$ANGBASE
 50
0.0
  9
$ANGDIR
 70
         0
  9
$PDMODE
 70
         0
  9
$PDSIZE
 40
0.0
  9
$PLINEWID
 40
0.0
  9
$SPLFRAME
 70
         0
  9
$SPLINETYPE
 70
         6
  9
$SPLINESEGS
 70
         8
  9
$HANDSEED
  5
207
  9
$SURFTAB1
 70
         6
  9
$SURFTAB2
 70
         6
  9
$SURFTYPE
 70
         6
  9
$SURFU
 70
         6
  9
$SURFV
 70
         6
  9
$UCSBASE
  2

  9
$UCSNAME
  2

  9
$UCSORG
 10
0.0
 20
0.0
 30
0.0
  9
$UCSXDIR
 10
1.0
 20
0.0
 30
0.0
  9
$UCSYDIR
 10
0.0
 20
1.0
 30
0.0
  9
$UCSORTHOREF
  2

  9
$UCSORTHOVIEW
 70
         0
  9
$UCSORGTOP
 10
0.0
 20
0.0
 30
0.0
  9
$UCSORGBOTTOM
 10
0.0
 20
0.0
 30
0.0
  9
$UCSORGLEFT
 10
0.0
 20
0.0
 30
0.0
  9
$UCSORGRIGHT
 10
0.0
 20
0.0
 30
0.0
  9
$UCSORGFRONT
 10
0.0
 20
0.0
 30
0.0
  9
$UCSORGBACK
 10
0.0
 20
0.0
 30
0.0
  9
$PUCSBASE
  2

  9
$PUCSNAME
  2

  9
$PUCSORG
 10
0.0
 20
0.0
 30
0.0
  9
$PUCSXDIR
 10
1.0
 20
0.0
 30
0.0
  9
$PUCSYDIR
 10
0.0
 20
1.0
 30
0.0
  9
$PUCSORTHOREF
  2

  9
$PUCSORTHOVIEW
 70
         0
  9
$PUCSORGTOP
 10
0.0
 20
0.0
 30
0.0
  9
$PUCSORGBOTTOM
 10
0.0
 20
0.0
 30
0.0
  9
$PUCSORGLEFT
 10
0.0
 20
0.0
 30
0.0
  9
$PUCSORGRIGHT
 10
0.0
 20
0.0
 30
0.0
  9
$PUCSORGFRONT
 10
0.0
 20
0.0
 30
0.0
  9
$PUCSORGBACK
 10
0.0
 20
0.0
 30
0.0
  9
$USERI1
 70
         0
  9
$USERI2
 70
         0
  9
$USERI3
 70
         0
  9
$USERI4
 70
         0
  9
$USERI5
 70
         0
  9
$USERR1
 40
0.0
  9
$USERR2
 40
0.0
  9
$USERR3
 40
0.0
  9
$USERR4
 40
0.0
  9
$USERR5
 40
0.0
  9
$WORLDVIEW
 70
         1
  9
$SHADEDGE
 70
         3
  9
$SHADEDIF
 70
        70
  9
$TILEMODE
 70
         1
  9
$MAXACTVP
 70
        16
  9
$PINSBASE
 10
0.0
 20
0.0
 30
0.0
  9
$PLIMCHECK
 70
         0
  9
$PEXTMIN
 10
1.0000000000E+20
 20
1.0000000000E+20
 30
1.0000000000E+20
  9
$PEXTMAX
 10
-1.0000000000E+20
 20
-1.0000000000E+20
 30
-1.0000000000E+20
  9
$PLIMMIN
 10
0.0
 20
0.0
  9
$PLIMMAX
 10
12.0
 20
9.0
  9
$UNITMODE
 70
         0
  9
$VISRETAIN
 70
         0
  9
$PLINEGEN
 70
         1
  9
$PSLTSCALE
 70
         0
  9
$TREEDEPTH
 70
      3020
  9
$CMLSTYLE
  2
Standard
  9
$CMLJUST
 70
         0
  9
$CMLSCALE
 40
1.0
  9
$PROXYGRAPHICS
 70
         0
  9
$MEASUREMENT
 70
         1
  9
$CELWEIGHT
370
         0
  9
$ENDCAPS
280
         0
  9
$JOINSTYLE
280
         0
  9
$LWDISPLAY
290
         0
  9
$INSUNITS
 70
         0
  9
$HYPERLINKBASE
  1

  9
$STYLESHEET
  1

  9
$XEDIT
290
         1
  9
$CEPSNTYPE
380
         0
  9
$PSTYLEMODE
290
         1
  9
$FINGERPRINTGUID
  2

  9
$VERSIONGUID
  2

  9
$EXTNAMES
290
         1
  9
$PSVPSCALE
 40
0.0
  0
ENDSEC
  0
SECTION
  2
CLASSES
  0
CLASS
  1
LWPOLYLINE
  2
AcDbPolyline
  3
AutoCAD 2000
 90
        0
280
         0
281
         1
  0
CLASS
  1
IMAGE
  2
AcDbRasterImage
  3
ISM
 90
      127
280
         0
281
         1
  0
CLASS
  1
OLE2FRAME
  2
AcDbOle2Frame
  3
AutoCAD 2000
 90
        0
280
         0
281
         1
  0
CLASS
  1
HATCH
  2
AcDbHatch
  3
AutoCAD 2000
 90
        0
280
         0
281
         1
  0
CLASS
  1
DICTIONARYVAR
  2
AcDbDictionaryVar
  3
AutoCAD 2000
 90
        0
280
         0
281
         0
  0
CLASS
  1
RASTERVARIABLES
  2
AcDbRasterVariables
  3
ISM
 90
        0
280
         0
281
         0
  0
CLASS
  1
IMAGEDEF
  2
AcDbRasterImageDef
  3
ISM
 90
        0
280
         0
281
         0
  0
CLASS
  1
IMAGEDEF_REACTOR
  2
AcDbRasterImageDefReactor
  3
ISM
 90
        1
280
         0
281
         0
  0
CLASS
  1
IDBUFFER
  2
AcDbIdBuffer
  3
AutoCAD 2000
 90
        0
280
         0
281
         0
  0
CLASS
  1
SPATIAL_FILTER
  2
AcDbSpatialFilter
  3
AutoCAD 2000
 90
        0
280
         0
281
         0
  0
CLASS
  1
XRECORD
  2
AcDbXrecord
  3
AutoCAD 2000
 90
        0
280
         0
281
         0
  0
CLASS
  1
SORTENTSTABLE
  2
AcDbSortentsTable
  3
AutoCAD 2000
 90
        0
280
         0
281
         0
  0
CLASS
  1
LAYER_INDEX
  2
AcDbLayerIndex
  3
AutoCAD 2000
 90
        0
280
         0
281
         0
  0
CLASS
  1
SPATIAL_INDEX
  2
AcDbSpatialIndex
  3
AutoCAD 2000
 90
        0
280
         0
281
         0
  0
CLASS
  1
OBJECT_PTR
  2
CAseDLPNTableRecord
  3
"ASE-LPNTableRecord"
 90
        1
280
         0
281
         0
  0
CLASS
  1
LAYOUT
  2
AcDbLayout
  3
AutoCAD 2000
 90
        0
280
         0
281
         0
  0
CLASS
  1
PLOTSETTINGS
  2
AcDbPlotSettings
  3
AutoCAD 2000
 90
        0
280
         0
281
         0
  0
CLASS
  1
ACDBDICTIONARYWDFLT
  2
AcDbDictionaryWithDefault
  3
AutoCAD 2000
 90
        0
280
         0
281
         0
  0
CLASS
  1
ACDBPLACEHOLDER
  2
AcDbPlaceHolder
  3
AutoCAD 2000
 90
        0
280
         0
281
         0
  0
CLASS
  1
VBA_PROJECT
  2
AcDbVbaProject
  3
acadvba
 90
        0
280
         0
281
         0
  0
CLASS
  1
WIPEOUT
  2
AcDbWipeout
  3
WipeOut|AutoCAD Express Tool|expresstools@autodesk.com
 90
      127
280
         0
281
         1
  0
CLASS
  1
WIPEOUTVARIABLES
  2
AcDbWipeoutVariables
  3
WipeOut|AutoCAD Express Tool|expresstools@autodesk.com
 90
        0
280
         0
281
         0
  0
CLASS
  1
RTEXT
  2
RText
  3
RText|AutoCAD Express Tool|expresstools@autodesk.com
 90
        0
280
         0
281
         1
  0
CLASS
  1
ARCALIGNEDTEXT
  2
AcDbArcAlignedText
  3
ATEXT|AutoCAD Express Tool|expresstools@autodesk.com
 90
        0
280
         0
281
         1
  0
ENDSEC
  0
SECTION
  2
TABLES
  0
TABLE
  2
VPORT
  5
7
100
AcDbSymbolTable
 70
         1
  0
VPORT
  5
15
100
AcDbSymbolTableRecord
100
AcDbViewportTableRecord
  2
*ACTIVE
 70
         0
 10
0.0
 20
0.0
 11
1.0
 21
1.0
 12
105.0
 22
148.5
 13
0.0
 23
0.0
 14
1.0
 24
1.0
 15
0.0
 25
0.0
 16
0.0
 26
0.0
 36
1.0
 17
0.0
 27
0.0
 37
0.0
 40
231.2943892345
 41
1.0
 42
50.0
 43
0.0
 44
0.0
 50
0.0
 51
0.0
 71
         0
 72
       100
 73
         1
 74
         1
 75
         0
 76
         0
 77
         0
 78
         0
281
         0
 65
         0
110
0.0
120
0.0
130
0.0
111
1.0
121
0.0
131
0.0
112
0.0
122
1.0
132
0.0
345
0
346
0
 79
         0
146
0.0
  0
ENDTAB
  0
TABLE
  2
LTYPE
  5
4
100
AcDbSymbolTable
 70
        12
  0
LTYPE
  5
11
100
AcDbSymbolTableRecord
100
AcDbLinetypeTableRecord
  2
ByBlock
 70
        64
  3

 72
        65
 73
         0
 40
0.0
  0
LTYPE
  5
12
100
AcDbSymbolTableRecord
100
AcDbLinetypeTableRecord
  2
ByLayer
 70
        64
  3

 72
        65
 73
         0
 40
0.0
  0
LTYPE
  5
13
100
AcDbSymbolTableRecord
100
AcDbLinetypeTableRecord
  2
CONTINUOUS
 70
        64
  3
Solid Line
 72
        65
 73
         0
 40
0.0
  0
LTYPE
  5
24
100
AcDbSymbolTableRecord
100
AcDbLinetypeTableRecord
  2
DOT
 70
        64
  3
. . . . . . . . . . . . . . . . . . . . . . 
 72
        65
 73
         2
 40
0.25
 49
0.0
 74
         0
 49
-0.25
 74
         0
  0
LTYPE
  5
25
100
AcDbSymbolTableRecord
100
AcDbLinetypeTableRecord
  2
HIDDEN
 70
         0
  3
_ _ _ _ _ _ _ _ _ _ _ _ _ _ _ _ _ _ _ _ _ _ _
 72
        65
 73
         2
 40
0.375
 49
0.25
 74
         0
 49
-0.125
 74
         0
  0
LTYPE
  5
26
100
AcDbSymbolTableRecord
100
AcDbLinetypeTableRecord
  2
DASHDOT
 70
         0
  3
__ . __ . __ . __ . __ . __ . __ . __ . __ . __
 72
        65
 73
         4
 40
1.0
 49
0.5
 74
         0
 49
-0.25
 74
         0
 49
0.0
 74
         0
 49
-0.25
 74
         0
  0
LTYPE
  5
27
100
AcDbSymbolTableRecord
100
AcDbLinetypeTableRecord
  2
DIVIDE
 70
         0
  3
__ . . __ . . __ . . __ . . __ . . __ . . __
 72
        65
 73
         6
 40
1.25
 49
0.5
 74
         0
 49
-0.25
 74
         0
 49
0.0
 74
         0
 49
-0.25
 74
         0
 49
0.0
 74
         0
 49
-0.25
 74
         0
  0
LTYPE
  5
28
100
AcDbSymbolTableRecord
100
AcDbLinetypeTableRecord
  2
DASHED
 70
         0
  3
__ __ __ __ __ __ __ __ __ __ __ __ __ __ __
 72
        65
 73
         2
 40
0.75
 49
0.5
 74
         0
 49
-0.25
 74
         0
  0
LTYPE
  5
29
100
AcDbSymbolTableRecord
100
AcDbLinetypeTableRecord
  2
BORDER
 70
         0
  3
__ __ . __ __ . __ __ . __ __ . __ __ .
 72
        65
 73
         6
 40
1.75
 49
0.5
 74
         0
 49
-0.25
 74
         0
 49
0.5
 74
         0
 49
-0.25
 74
         0
 49
0.0
 74
         0
 49
-0.25
 74
         0
  0
LTYPE
  5
2A
100
AcDbSymbolTableRecord
100
AcDbLinetypeTableRecord
  2
CENTER
 70
         0
  3
____ _ ____ _ ____ _ ____ _ ____ _ ____
 72
        65
 73
         4
 40
2.0
 49
1.25
 74
         0
 49
-0.25
 74
         0
 49
0.25
 74
         0
 49
-0.25
 74
         0
  0
LTYPE
  5
2B
100
AcDbSymbolTableRecord
100
AcDbLinetypeTableRecord
  2
DOT2
 70
         0
  3
........................................
 72
        65
 73
         2
 40
0.125
 49
0.0
 74
         0
 49
-0.125
 74
         0
  0
LTYPE
  5
2C
100
AcDbSymbolTableRecord
100
AcDbLinetypeTableRecord
  2
PHANTOM
 70
         0
  3
______  __  __  ______  __  __  ______
 72
        65
 73
         6
 40
2.5
 49
1.25
 74
         0
 49
-0.25
 74
         0
 49
0.25
 74
         0
 49
-0.25
 74
         0
 49
0.25
 74
         0
 49
-0.25
 74
         0
  0
ENDTAB
  0
TABLE
  2
LAYER
  5
2
100
AcDbSymbolTable
 70
        90
  0
LAYER
  5
14
100
AcDbSymbolTableRecord
100
AcDbLayerTableRecord
  2
0
 70
         0
 62
         7
  6
CONTINUOUS
290
         1
370
        -3
390
1D
  0
LAYER
  5
33
100
AcDbSymbolTableRecord
100
AcDbLayerTableRecord
  2
BESCHRIFTUNG
 70
        64
 62
         7
  6
CONTINUOUS
290
         1
370
        25
390
1D
  0
LAYER
  5
34
100
AcDbSymbolTableRecord
100
AcDbLayerTableRecord
  2
SCHRAFFUR
 70
        64
 62
         7
  6
CONTINUOUS
290
         1
370
        25
390
1D
  0
LAYER
  5
35
100
AcDbSymbolTableRecord
100
AcDbLayerTableRecord
  2
MASSTEXTE
 70
        64
 62
       212
  6
CONTINUOUS
290
         1
370
        25
390
1D
  0
LAYER
  5
36
100
AcDbSymbolTableRecord
100
AcDbLayerTableRecord
  2
MASSLINIEN
 70
        64
 62
       172
  6
CONTINUOUS
290
         1
370
        25
390
1D
  0
LAYER
  5
37
100
AcDbSymbolTableRecord
100
AcDbLayerTableRecord
  2
MASSGRENZEN
 70
        64
 62
       172
  6
CONTINUOUS
290
         1
370
        25
390
1D
  0
LAYER
  5
38
100
AcDbSymbolTableRecord
100
AcDbLayerTableRecord
  2
TOLERANZEN
 70
        64
 62
       212
  6
CONTINUOUS
290
         1
370
         0
390
1D
  0
LAYER
  5
39
100
AcDbSymbolTableRecord
100
AcDbLayerTableRecord
  2
BEMASSUNG
 70
        64
 62
         7
  6
CONTINUOUS
290
         1
370
        25
390
1D
  0
LAYER
  5
3A
100
AcDbSymbolTableRecord
100
AcDbLayerTableRecord
  2
HILFSLINIEN
 70
        64
 62
         3
  6
CONTINUOUS
290
         1
370
         0
390
1D
  0
LAYER
  5
3B
100
AcDbSymbolTableRecord
100
AcDbLayerTableRecord
  2
MITTELLINIEN
 70
        64
 62
         5
  6
DASHDOT
290
         1
370
        25
390
1D
  0
LAYER
  5
3C
100
AcDbSymbolTableRecord
100
AcDbLayerTableRecord
  2
BESCHRIFTUNG00
 70
        64
 62
         7
  6
CONTINUOUS
290
         1
370
        25
390
1D
  0
LAYER
  5
3D
100
AcDbSymbolTableRecord
100
AcDbLayerTableRecord
  2
BESCHRIFTUNG0
 70
        64
 62
         7
  6
CONTINUOUS
290
         1
370
        25
390
1D
  0
LAYER
  5
3E
100
AcDbSymbolTableRecord
100
AcDbLayerTableRecord
  2
GEWINDELINIEN
 70
        64
 62
       212
  6
CONTINUOUS
290
         1
370
        25
390
1D
  0
LAYER
  5
3F
100
AcDbSymbolTableRecord
100
AcDbLayerTableRecord
  2
UNSICHTBARE
 70
        64
 62
        92
  6
DASHED
290
         1
370
        25
390
1D
  0
LAYER
  5
40
100
AcDbSymbolTableRecord
100
AcDbLayerTableRecord
  2
VERDECKTE
 70
        64
 62
        92
  6
DASHED
290
         1
370
        25
390
1D
  0
LAYER
  5
41
100
AcDbSymbolTableRecord
100
AcDbLayerTableRecord
  2
LICHTKANTEN
 70
        64
 62
         8
  6
CONTINUOUS
290
         1
370
        25
390
1D
  0
LAYER
  5
42
100
AcDbSymbolTableRecord
100
AcDbLayerTableRecord
  2
SCHNITTVERLAUF
 70
        64
 62
        34
  6
DASHDOT
290
         1
370
        70
390
1D
  0
LAYER
  5
43
100
AcDbSymbolTableRecord
100
AcDbLayerTableRecord
  2
KENNZEICHNUNG
 70
        64
 62
         7
  6
CONTINUOUS
290
         1
370
         0
390
1D
  0
LAYER
  5
44
100
AcDbSymbolTableRecord
100
AcDbLayerTableRecord
  2
PFEILE
 70
        64
 62
         7
  6
CONTINUOUS
290
         1
370
        70
390
1D
  0
LAYER
  5
45
100
AcDbSymbolTableRecord
100
AcDbLayerTableRecord
  2
SCHNITTDARSTELLUNG
 70
        64
 62
         7
  6
CONTINUOUS
290
         1
370
         0
390
1D
  0
LAYER
  5
46
100
AcDbSymbolTableRecord
100
AcDbLayerTableRecord
  2
2501_3P
 70
        64
 62
        30
  6
CONTINUOUS
290
         1
370
         0
390
1D
  0
LAYER
  5
47
100
AcDbSymbolTableRecord
100
AcDbLayerTableRecord
  2
2501_1L
 70
        64
 62
        30
  6
CONTINUOUS
290
         1
370
         0
390
1D
  0
LAYER
  5
48
100
AcDbSymbolTableRecord
100
AcDbLayerTableRecord
  2
2501_2P
 70
        64
 62
        30
  6
CONTINUOUS
290
         1
370
         0
390
1D
  0
LAYER
  5
49
100
AcDbSymbolTableRecord
100
AcDbLayerTableRecord
  2
2501_2T
 70
        64
 62
        14
  6
CONTINUOUS
290
         1
370
         0
390
1D
  0
LAYER
  5
4A
100
AcDbSymbolTableRecord
100
AcDbLayerTableRecord
  2
2501_1R
 70
        64
 62
        14
  6
CONTINUOUS
290
         1
370
         0
390
1D
  0
LAYER
  5
4B
100
AcDbSymbolTableRecord
100
AcDbLayerTableRecord
  2
2501_7P
 70
        64
 62
        30
  6
CONTINUOUS
290
         1
370
         0
390
1D
  0
LAYER
  5
4C
100
AcDbSymbolTableRecord
100
AcDbLayerTableRecord
  2
2501_7T
 70
        64
 62
        14
  6
CONTINUOUS
290
         1
370
         0
390
1D
  0
LAYER
  5
4D
100
AcDbSymbolTableRecord
100
AcDbLayerTableRecord
  2
2501_8P
 70
        64
 62
        30
  6
CONTINUOUS
290
         1
370
         0
390
1D
  0
LAYER
  5
4E
100
AcDbSymbolTableRecord
100
AcDbLayerTableRecord
  2
2501___ UNTERZUG FÜR EINZELHEBEL
 70
        64
 62
         6
  6
DASHDOT
290
         1
370
         0
390
1D
  0
LAYER
  5
4F
100
AcDbSymbolTableRecord
100
AcDbLayerTableRecord
  2
2500_1T
 70
        64
 62
        14
  6
CONTINUOUS
290
         1
370
         0
390
1D
  0
LAYER
  5
50
100
AcDbSymbolTableRecord
100
AcDbLayerTableRecord
  2
2500_1P
 70
        64
 62
        30
  6
CONTINUOUS
290
         1
370
         0
390
1D
  0
LAYER
  5
51
100
AcDbSymbolTableRecord
100
AcDbLayerTableRecord
  2
2500_2T
 70
        64
 62
        14
  6
CONTINUOUS
290
         1
370
         0
390
1D
  0
LAYER
  5
52
100
AcDbSymbolTableRecord
100
AcDbLayerTableRecord
  2
2500_2P
 70
        64
 62
        30
  6
CONTINUOUS
290
         1
370
         0
390
1D
  0
LAYER
  5
53
100
AcDbSymbolTableRecord
100
AcDbLayerTableRecord
  2
2500___ HILFSPFADE FÜR UNTERZUG
 70
        64
 62
         6
  6
DASHDOT
290
         1
370
         0
390
1D
  0
LAYER
  5
54
100
AcDbSymbolTableRecord
100
AcDbLayerTableRecord
  2
2502_5P
 70
        64
 62
        30
  6
CONTINUOUS
290
         1
370
         0
390
1D
  0
LAYER
  5
55
100
AcDbSymbolTableRecord
100
AcDbLayerTableRecord
  2
2502_5T
 70
        64
 62
        14
  6
CONTINUOUS
290
         1
370
         0
390
1D
  0
LAYER
  5
56
100
AcDbSymbolTableRecord
100
AcDbLayerTableRecord
  2
2502_7P
 70
        64
 62
        30
  6
CONTINUOUS
290
         1
370
         0
390
1D
  0
LAYER
  5
57
100
AcDbSymbolTableRecord
100
AcDbLayerTableRecord
  2
2502_7T
 70
        64
 62
        14
  6
CONTINUOUS
290
         1
370
         0
390
1D
  0
LAYER
  5
58
100
AcDbSymbolTableRecord
100
AcDbLayerTableRecord
  2
2502_9P
 70
        64
 62
        30
  6
CONTINUOUS
290
         1
370
         0
390
1D
  0
LAYER
  5
59
100
AcDbSymbolTableRecord
100
AcDbLayerTableRecord
  2
2502_1P
 70
        64
 62
        30
  6
CONTINUOUS
290
         1
370
         0
390
1D
  0
LAYER
  5
5A
100
AcDbSymbolTableRecord
100
AcDbLayerTableRecord
  2
2502_8P
 70
        64
 62
        30
  6
CONTINUOUS
290
         1
370
         0
390
1D
  0
LAYER
  5
5B
100
AcDbSymbolTableRecord
100
AcDbLayerTableRecord
  2
2502_4L
 70
        64
 62
        30
  6
CONTINUOUS
290
         1
370
         0
390
1D
  0
LAYER
  5
5C
100
AcDbSymbolTableRecord
100
AcDbLayerTableRecord
  2
2502_4R
 70
        64
 62
        14
  6
CONTINUOUS
290
         1
370
         0
390
1D
  0
LAYER
  5
5D
100
AcDbSymbolTableRecord
100
AcDbLayerTableRecord
  2
2502_6T
 70
        64
 62
        14
  6
CONTINUOUS
290
         1
370
         0
390
1D
  0
LAYER
  5
5E
100
AcDbSymbolTableRecord
100
AcDbLayerTableRecord
  2
2502_6P
 70
        64
 62
        30
  6
CONTINUOUS
290
         1
370
         0
390
1D
  0
LAYER
  5
5F
100
AcDbSymbolTableRecord
100
AcDbLayerTableRecord
  2
2502_2T
 70
        64
 62
        14
  6
CONTINUOUS
290
         1
370
         0
390
1D
  0
LAYER
  5
60
100
AcDbSymbolTableRecord
100
AcDbLayerTableRecord
  2
2502_2P
 70
        64
 62
        30
  6
CONTINUOUS
290
         1
370
         0
390
1D
  0
LAYER
  5
61
100
AcDbSymbolTableRecord
100
AcDbLayerTableRecord
  2
2502___ UNTERZUG FÜR ZWEI ATTRIEBE
 70
        64
 62
         6
  6
DASHDOT
290
         1
370
         0
390
1D
  0
LAYER
  5
62
100
AcDbSymbolTableRecord
100
AcDbLayerTableRecord
  2
2503_6P
 70
        64
 62
        30
  6
CONTINUOUS
290
         1
370
         0
390
1D
  0
LAYER
  5
63
100
AcDbSymbolTableRecord
100
AcDbLayerTableRecord
  2
2503_6T
 70
        64
 62
        14
  6
CONTINUOUS
290
         1
370
         0
390
1D
  0
LAYER
  5
64
100
AcDbSymbolTableRecord
100
AcDbLayerTableRecord
  2
2503_4P
 70
        64
 62
        30
  6
CONTINUOUS
290
         1
370
         0
390
1D
  0
LAYER
  5
65
100
AcDbSymbolTableRecord
100
AcDbLayerTableRecord
  2
2503_4T
 70
        64
 62
        14
  6
CONTINUOUS
290
         1
370
         0
390
1D
  0
LAYER
  5
66
100
AcDbSymbolTableRecord
100
AcDbLayerTableRecord
  2
2503_2P
 70
        64
 62
        30
  6
CONTINUOUS
290
         1
370
         0
390
1D
  0
LAYER
  5
67
100
AcDbSymbolTableRecord
100
AcDbLayerTableRecord
  2
2503_8P
 70
        64
 62
        30
  6
CONTINUOUS
290
         1
370
         0
390
1D
  0
LAYER
  5
68
100
AcDbSymbolTableRecord
100
AcDbLayerTableRecord
  2
2503_3T
 70
        64
 62
        14
  6
CONTINUOUS
290
         1
370
         0
390
1D
  0
LAYER
  5
69
100
AcDbSymbolTableRecord
100
AcDbLayerTableRecord
  2
2503_3P
 70
        64
 62
        30
  6
CONTINUOUS
290
         1
370
         0
390
1D
  0
LAYER
  5
6A
100
AcDbSymbolTableRecord
100
AcDbLayerTableRecord
  2
2503_1T
 70
        64
 62
        14
  6
CONTINUOUS
290
         1
370
         0
390
1D
  0
LAYER
  5
6B
100
AcDbSymbolTableRecord
100
AcDbLayerTableRecord
  2
2503_1P
 70
        64
 62
        30
  6
CONTINUOUS
290
         1
370
         0
390
1D
  0
LAYER
  5
6C
100
AcDbSymbolTableRecord
100
AcDbLayerTableRecord
  2
2503_5P
 70
        64
 62
        30
  6
CONTINUOUS
290
         1
370
         0
390
1D
  0
LAYER
  5
6D
100
AcDbSymbolTableRecord
100
AcDbLayerTableRecord
  2
2503_5T
 70
        64
 62
        14
  6
CONTINUOUS
290
         1
370
         0
390
1D
  0
LAYER
  5
6E
100
AcDbSymbolTableRecord
100
AcDbLayerTableRecord
  2
2503_7P
 70
        64
 62
        30
  6
CONTINUOUS
290
         1
370
         0
390
1D
  0
LAYER
  5
6F
100
AcDbSymbolTableRecord
100
AcDbLayerTableRecord
  2
2503_7T
 70
        64
 62
        14
  6
CONTINUOUS
290
         1
370
         0
390
1D
  0
LAYER
  5
70
100
AcDbSymbolTableRecord
100
AcDbLayerTableRecord
  2
2503___ UNTERZUG FÜR DREISTELLIGEN ANTRIEB
 70
        64
 62
         6
  6
DASHDOT
290
         1
370
         0
390
1D
  0
LAYER
  5
71
100
AcDbSymbolTableRecord
100
AcDbLayerTableRecord
  2
PFADE
 70
        64
 62
        30
  6
CONTINUOUS
290
         1
370
         0
390
1D
  0
LAYER
  5
72
100
AcDbSymbolTableRecord
100
AcDbLayerTableRecord
  2
 2001_2 BODEN
 70
        64
 62
        14
  6
CONTINUOUS
290
         1
370
        18
390
1D
  0
LAYER
  5
73
100
AcDbSymbolTableRecord
100
AcDbLayerTableRecord
  2
 2001_1 RAHMEN
 70
        64
 62
         7
  6
CONTINUOUS
290
         1
370
        18
390
1D
  0
LAYER
  5
74
100
AcDbSymbolTableRecord
100
AcDbLayerTableRecord
  2
2001__ GEBÄUDE
 70
        64
 62
         7
  6
CONTINUOUS
290
         1
370
         0
390
1D
  0
LAYER
  5
75
100
AcDbSymbolTableRecord
100
AcDbLayerTableRecord
  2
2101__ HEBELBANK
 70
        64
 62
         9
  6
CONTINUOUS
290
         1
370
        18
390
1D
  0
LAYER
  5
76
100
AcDbSymbolTableRecord
100
AcDbLayerTableRecord
  2
2501_1 UNTERZUGRAHMEN
 70
        64
 62
         7
  6
CONTINUOUS
290
         1
370
         0
390
1D
  0
LAYER
  5
77
100
AcDbSymbolTableRecord
100
AcDbLayerTableRecord
  2
2501_2-4 ROLLEN UMGELEGT
 70
        64
 62
       134
  6
DASHED
290
         1
370
        18
390
1D
  0
LAYER
  5
78
100
AcDbSymbolTableRecord
100
AcDbLayerTableRecord
  2
2501_2-4 ROLLEN
 70
        64
 62
       134
  6
CONTINUOUS
290
         1
370
        18
390
1D
  0
LAYER
  5
79
100
AcDbSymbolTableRecord
100
AcDbLayerTableRecord
  2
2501_5 SCHIEBER VERSCHOBEN
 70
        64
 62
       142
  6
DASHED
290
         1
370
        18
390
1D
  0
LAYER
  5
7A
100
AcDbSymbolTableRecord
100
AcDbLayerTableRecord
  2
2501_5 SCHIEBER
 70
        64
 62
       142
  6
CONTINUOUS
290
         1
370
        18
390
1D
  0
LAYER
  5
7B
100
AcDbSymbolTableRecord
100
AcDbLayerTableRecord
  2
2501_10 SCHALTER LINKS_OBEN
 70
        64
 62
       230
  6
DASHED
290
         1
370
        18
390
1D
  0
LAYER
  5
7C
100
AcDbSymbolTableRecord
100
AcDbLayerTableRecord
  2
2501_10 SCHALTER
 70
        64
 62
       230
  6
CONTINUOUS
290
         1
370
        18
390
1D
  0
LAYER
  5
7D
100
AcDbSymbolTableRecord
100
AcDbLayerTableRecord
  2
2501_6 HEBEL 0_0_22_5 UMGELEGT LI
 70
        64
 62
        30
  6
DASHED
290
         1
370
        18
390
1D
  0
LAYER
  5
7E
100
AcDbSymbolTableRecord
100
AcDbLayerTableRecord
  2
2501_6 HEBEL 0_0_22_5 UMGELEGT RE
 70
        64
 62
        30
  6
DASHDOT
290
         1
370
        18
390
1D
  0
LAYER
  5
7F
100
AcDbSymbolTableRecord
100
AcDbLayerTableRecord
  2
2501_6 HEBEL 0_0_22_5
 70
        64
 62
        11
  6
CONTINUOUS
290
         1
370
        18
390
1D
  0
LAYER
  5
80
100
AcDbSymbolTableRecord
100
AcDbLayerTableRecord
  2
2501_7 HEBEL 22_5_0_22_5 UMGELEGT LI
 70
        64
 62
        34
  6
DASHED
290
         1
370
        18
390
1D
  0
LAYER
  5
81
100
AcDbSymbolTableRecord
100
AcDbLayerTableRecord
  2
2501_7 HEBEL 22_5_0_22_5 UMGELEGT RE
 70
        64
 62
        14
  6
DASHDOT
290
         1
370
        18
390
1D
  0
LAYER
  5
82
100
AcDbSymbolTableRecord
100
AcDbLayerTableRecord
  2
2501_7 HEBEL 22_5_0_22_5
 70
        64
 62
        14
  6
CONTINUOUS
290
         1
370
        18
390
1D
  0
LAYER
  5
83
100
AcDbSymbolTableRecord
100
AcDbLayerTableRecord
  2
2501_8 HEBEL 22_5_0_0 UMGELEGT LI
 70
        64
 62
        30
  6
DASHED
290
         1
370
        18
390
1D
  0
LAYER
  5
84
100
AcDbSymbolTableRecord
100
AcDbLayerTableRecord
  2
2501_8 HEBEL 22_5_0_0 UMGELEGT RE
 70
        64
 62
        30
  6
DASHDOT
290
         1
370
        18
390
1D
  0
LAYER
  5
85
100
AcDbSymbolTableRecord
100
AcDbLayerTableRecord
  2
2501_8 HEBEL 22_5_0_0
 70
        64
 62
       230
  6
CONTINUOUS
290
         1
370
        18
390
1D
  0
LAYER
  5
86
100
AcDbSymbolTableRecord
100
AcDbLayerTableRecord
  2
2501_9 HEBEL 22_5_0_-22_5 UMGELEGT LI0
 70
        64
 62
        34
  6
DASHED
290
         1
370
        18
390
1D
  0
LAYER
  5
87
100
AcDbSymbolTableRecord
100
AcDbLayerTableRecord
  2
2501_9 HEBEL 22_5_0_-22_5 UMGELEGT RE0
 70
        64
 62
        14
  6
DASHDOT
290
         1
370
        18
390
1D
  0
LAYER
  5
88
100
AcDbSymbolTableRecord
100
AcDbLayerTableRecord
  2
2501_9 HEBEL 22_5_0_-22_5
 70
        64
 62
       190
  6
CONTINUOUS
290
         1
370
        18
390
1D
  0
LAYER
  5
89
100
AcDbSymbolTableRecord
100
AcDbLayerTableRecord
  2
2501__ UNTERZUG
 70
        64
 62
         9
  6
CONTINUOUS
290
         1
370
        18
390
1D
  0
LAYER
  5
8A
100
AcDbSymbolTableRecord
100
AcDbLayerTableRecord
  2
KONSTRUKTION
 70
        64
 62
         7
  6
CONTINUOUS
290
         1
370
         0
390
1D
  0
LAYER
  5
8B
100
AcDbSymbolTableRecord
100
AcDbLayerTableRecord
  2
STANDARD
 70
        64
 62
         7
  6
CONTINUOUS
290
         1
370
         0
390
1D
  0
ENDTAB
  0
TABLE
  2
STYLE
  5
3
100
AcDbSymbolTable
 70
         7
  0
STYLE
  5
17
100
AcDbSymbolTableRecord
100
AcDbTextStyleTableRecord
  2
Standard
 70
         0
 40
0.0
 41
1.0
 50
0.0
 71
         0
 42
0.0
  3
txt
  4

  0
STYLE
  5
2D
100
AcDbSymbolTableRecord
100
AcDbTextStyleTableRecord
  2
CADdy
 70
         0
 40
0.0
 41
1.0
 50
0.0
 71
         0
 42
3.5
  3
txt.shx
  4

  0
STYLE
  5
2E
100
AcDbSymbolTableRecord
100
AcDbTextStyleTableRecord
  2
Arial
 70
         0
 40
0.0
 41
1.0
 50
0.0
 71
         0
 42
3.5
  3
arial.ttf
  4

1001
ACAD
1000
Arial
1071
       34
  0
STYLE
  5
2F
100
AcDbSymbolTableRecord
100
AcDbTextStyleTableRecord
  2
Isonorm
 70
         0
 40
0.0
 41
1.0
 50
0.0
 71
         0
 42
3.5
  3
txt.shx
  4

  0
STYLE
  5
30
100
AcDbSymbolTableRecord
100
AcDbTextStyleTableRecord
  2
Tahoma
 70
         0
 40
0.0
 41
1.0
 50
0.0
 71
         0
 42
3.5
  3
tahoma.ttf
  4

1001
ACAD
1000
Tahoma
1071
       34
  0
STYLE
  5
31
100
AcDbSymbolTableRecord
100
AcDbTextStyleTableRecord
  2
Microsoft Sans Serif
 70
         0
 40
0.0
 41
1.0
 50
0.0
 71
         0
 42
3.5
  3
micross.ttf
  4

1001
ACAD
1000
Microsoft Sans Serif
1071
       34
  0
STYLE
  5
32
100
AcDbSymbolTableRecord
100
AcDbTextStyleTableRecord
  2
Arial Rounded MT Bold
 70
         0
 40
0.0
 41
1.0
 50
0.0
 71
         0
 42
3.5
  3
txt.shx
  4

  0
ENDTAB
  0
TABLE
  2
VIEW
  5
5
100
AcDbSymbolTable
 70
         0
  0
ENDTAB
  0
TABLE
  2
UCS
  5
6
100
AcDbSymbolTable
 70
         0
  0
ENDTAB
  0
TABLE
  2
APPID
  5
8
100
AcDbSymbolTable
 70
         1
  0
APPID
  5
16
100
AcDbSymbolTableRecord
100
AcDbRegAppTableRecord
  2
ACAD
 70
        64
  0
ENDTAB
  0
TABLE
  2
DIMSTYLE
  5
9
100
AcDbSymbolTable
 70
         1
100
AcDbDimStyleTable
 71
         0
  0
DIMSTYLE
105
18
100
AcDbSymbolTableRecord
100
AcDbDimStyleTableRecord
  2
Standard
 70
         0
  3

  4

 40
1.0
 41
0.18
 42
0.0625
 43
0.38
 44
0.18
 45
0.0
 46
0.0
 47
0.0
 48
0.0
 71
         0
 72
         0
 73
         1
 74
         1
 75
         0
 76
         0
 77
         0
 78
         0
 79
         0
140
0.18
141
0.09
142
0.0
143
25.4
144
1.0
145
0.0
146
1.0
147
0.09
148
0.0
170
         0
171
         2
172
         0
173
         0
174
         0
175
         0
176
         0
177
         0
178
         0
179
         0
271
         4
272
         4
273
         2
274
         2
275
         0
276
         0
277
         2
278
        46
279
         0
280
         0
281
         0
282
         0
283
         1
284
         0
285
         0
286
         0
288
         0
289
         3
340
17
341
0
342
0
343
0
344
0
371
        -2
372
        -2
  0
ENDTAB
  0
TABLE
  2
BLOCK_RECORD
  5
1
100
AcDbSymbolTable
 70
         2
  0
BLOCK_RECORD
  5
A
100
AcDbSymbolTableRecord
100
AcDbBlockTableRecord
  2
*MODEL_SPACE
340
20
  0
BLOCK_RECORD
  5
B
100
AcDbSymbolTableRecord
100
AcDbBlockTableRecord
  2
*PAPER_SPACE
340
21
  0
BLOCK_RECORD
  5
8C
100
AcDbSymbolTableRecord
100
AcDbBlockTableRecord
  2
D299772672
340
0
102
{BLKREFS
331
13E
102
}
  0
BLOCK_RECORD
  5
95
100
AcDbSymbolTableRecord
100
AcDbBlockTableRecord
  2
D203977984
340
0
102
{BLKREFS
331
178
102
}
  0
ENDTAB
  0
ENDSEC
  0
SECTION
  2
BLOCKS
  0
BLOCK
  5
D
100
AcDbEntity
  8
0
390
0
100
AcDbBlockBegin
  2
*MODEL_SPACE
 70
         0
 10
0.0
 20
0.0
 30
0.0
  3
*MODEL_SPACE
  1

  0
ENDBLK
  5
E
100
AcDbEntity
  8
0
390
0
100
AcDbBlockEnd
  0
BLOCK
  5
F
100
AcDbEntity
 67
         1
  8
0
390
0
100
AcDbBlockBegin
  2
*PAPER_SPACE
 70
         0
 10
0.0
 20
0.0
 30
0.0
  3
*PAPER_SPACE
  1

  0
ENDBLK
  5
10
100
AcDbEntity
 67
         1
  8
0
390
0
100
AcDbBlockEnd
  0
BLOCK
  5
8D
100
AcDbEntity
  8
BEMASSUNG
390
0
100
AcDbBlockBegin
  2
D299772672
 70
         0
 10
0.0
 20
0.0
 30
0.0
  3
D299772672
  1

  0
LINE
  5
8E
100
AcDbEntity
  8
MASSLINIEN
390
0
 62
       172
100
AcDbLine
 10
108.9230423732
 20
273.6659597734
 30
0.0
 11
108.9230423732
 21
210.6659597753
 31
0.0
  0
LINE
  5
8F
100
AcDbEntity
  8
MASSLINIEN
390
0
 62
       172
100
AcDbLine
 10
99.8841140516
 20
273.6659597734
 30
0.0
 11
110.9230423732
 21
273.6659597734
 31
0.0
  0
LINE
  5
90
100
AcDbEntity
  8
MASSLINIEN
390
0
 62
       172
100
AcDbLine
 10
99.8841140516
 20
210.6659597753
 30
0.0
 11
110.9230423732
 21
210.6659597753
 31
0.0
  0
SOLID
  5
91
100
AcDbEntity
  8
MASSGRENZEN
390
0
100
AcDbTrace
 10
108.9230423732
 20
273.6659597734
 30
0.0
 11
109.3146209499
 21
270.6916251893
 31
0.0
 12
108.5314637966
 22
270.6916251893
 32
0.0
 13
108.5314637966
 23
270.6916251893
 33
0.0
  0
SOLID
  5
92
100
AcDbEntity
  8
MASSGRENZEN
390
0
100
AcDbTrace
 10
108.9230423732
 20
210.6659597753
 30
0.0
 11
108.5314637966
 21
213.6402943594
 31
0.0
 12
109.3146209499
 22
213.6402943594
 32
0.0
 13
109.3146209499
 23
213.6402943594
 33
0.0
  0
MTEXT
  5
93
100
AcDbEntity
  8
MASSTEXTE
390
0
 62
       212
100
AcDbMText
 10
106.4670423732
 20
242.1659597744
 30
0.0
 40
2.0
 41
0.0
 71
         5
 72
         1
  1
\W1.135146;\A1;63
  7
Arial
 11
0.0
 21
1.0
 31
0.0
 73
         0
 44
0.0
  0
ENDBLK
  5
94
100
AcDbEntity
  8
0
390
0
100
AcDbBlockEnd
  0
BLOCK
  5
96
100
AcDbEntity
  8
BEMASSUNG
390
0
100
AcDbBlockBegin
  2
D203977984
 70
         0
 10
0.0
 20
0.0
 30
0.0
  3
D203977984
  1

  0
LINE
  5
97
100
AcDbEntity
  8
MASSLINIEN
390
0
 62
       172
100
AcDbLine
 10
108.9230423734
 20
193.6659597734
 30
0.0
 11
108.9230423734
 21
130.6659597753
 31
0.0
  0
LINE
  5
98
100
AcDbEntity
  8
MASSLINIEN
390
0
 62
       172
100
AcDbLine
 10
99.8841140517
 20
193.6659597734
 30
0.0
 11
110.9230423734
 21
193.6659597734
 31
0.0
  0
LINE
  5
99
100
AcDbEntity
  8
MASSLINIEN
390
0
 62
       172
100
AcDbLine
 10
99.8841140517
 20
130.6659597753
 30
0.0
 11
110.9230423734
 21
130.6659597753
 31
0.0
  0
SOLID
  5
9A
100
AcDbEntity
  8
MASSGRENZEN
390
0
100
AcDbTrace
 10
108.9230423734
 20
193.6659597734
 30
0.0
 11
109.3146209501
 21
190.6916251893
 31
0.0
 12
108.5314637967
 22
190.6916251893
 32
0.0
 13
108.5314637967
 23
190.6916251893
 33
0.0
  0
SOLID
  5
9B
100
AcDbEntity
  8
MASSGRENZEN
390
0
100
AcDbTrace
 10
108.9230423734
 20
130.6659597753
 30
0.0
 11
108.5314637967
 21
133.6402943594
 31
0.0
 12
109.3146209501
 22
133.6402943594
 32
0.0
 13
109.3146209501
 23
133.6402943594
 33
0.0
  0
MTEXT
  5
9C
100
AcDbEntity
  8
MASSTEXTE
390
0
 62
       212
100
AcDbMText
 10
106.4670423734
 20
162.1659597744
 30
0.0
 40
2.0
 41
0.0
 71
         5
 72
         1
  1
\W1.135146;\A1;63
  7
Arial
 11
0.0
 21
1.0
 31
0.0
 73
         0
 44
0.0
  0
ENDBLK
  5
9D
100
AcDbEntity
  8
0
390
0
100
AcDbBlockEnd
  0
ENDSEC
  0
SECTION
  2
ENTITIES
  0
TEXT
  5
9E
100
AcDbEntity
  8
BESCHRIFTUNG
390
0
100
AcDbText
 10
129.6929117117
 20
6.9230888889
 30
0.0
 40
3.3
  1
2503 Pv Unterzug für dreistelligen Abtrieb
 41
0.8844149565
  7
Arial
 11
129.6929117117
 21
10.2230888889
 31
0.0
100
AcDbText
 73
         3
  0
TEXT
  5
9F
100
AcDbEntity
  8
BESCHRIFTUNG
390
0
100
AcDbText
 10
129.6929117117
 20
29.3230888889
 30
0.0
 40
3.3
  1
2026-04-19
 41
1.0318366722
  7
Arial
 11
129.6929117117
 21
32.6230888889
 31
0.0
100
AcDbText
 73
         3
  0
TEXT
  5
A0
100
AcDbEntity
  8
BESCHRIFTUNG
390
0
100
AcDbText
 10
143.9620001769
 20
112.3421951449
 30
0.0
 40
2.5
  1
2503.1/5
 41
1.1351342126
  7
Arial
 72
         1
 11
153.8686260321
 21
113.5921951449
 31
0.0
100
AcDbText
 73
         2
  0
ARC
  5
A1
100
AcDbEntity
  8
2501_2-4 ROLLEN
390
0
100
AcDbCircle
 10
160.4323604655
 20
234.4542919588
 30
0.0
 40
1.0
100
AcDbArc
 50
125.7335539165
 51
305.7335539165
  0
CIRCLE
  5
A2
100
AcDbEntity
  8
2503_1P
390
0
100
AcDbCircle
 10
154.8841140503
 20
104.1659597743
 30
0.0
 40
1.75
  0
CIRCLE
  5
A3
100
AcDbEntity
  8
2501_2-4 ROLLEN
390
0
  6
DASHED
100
AcDbCircle
 10
154.8841140503
 20
82.1659597743
 30
0.0
 40
23.5
  0
CIRCLE
  5
A4
100
AcDbEntity
  8
2503_5P
390
0
100
AcDbCircle
 10
159.9522449106
 20
262.0295961384
 30
0.0
 40
1.25
  0
CIRCLE
  5
A5
100
AcDbEntity
  8
2503_5P
390
0
100
AcDbCircle
 10
154.8841140499
 20
264.1659597738
 30
0.0
 40
1.75
  0
CIRCLE
  5
A6
100
AcDbEntity
  8
2501_2-4 ROLLEN
390
0
100
AcDbCircle
 10
154.8841140503
 20
82.1659597743
 30
0.0
 40
24.5
  0
CIRCLE
  5
A7
100
AcDbEntity
  8
2501_2-4 ROLLEN
390
0
  6
DASHED
100
AcDbCircle
 10
154.8841140503
 20
242.1659597743
 30
0.0
 40
23.5
  0
CIRCLE
  5
A8
100
AcDbEntity
  8
2501_2-4 ROLLEN
390
0
100
AcDbCircle
 10
154.8841140503
 20
242.1659597743
 30
0.0
 40
24.5
  0
CIRCLE
  5
A9
100
AcDbEntity
  8
2503_1P
390
0
100
AcDbCircle
 10
154.8841140503
 20
82.1659597743
 30
0.0
 40
1.25
  0
CIRCLE
  5
AA
100
AcDbEntity
  8
2501_2-4 ROLLEN
390
0
100
AcDbCircle
 10
54.8841140503
 20
242.1659597743
 30
0.0
 40
24.5
  0
CIRCLE
  5
AB
100
AcDbEntity
  8
2501_2-4 ROLLEN
390
0
  6
DASHED
100
AcDbCircle
 10
54.8841140503
 20
242.1659597743
 30
0.0
 40
23.5
  0
CIRCLE
  5
AC
100
AcDbEntity
  8
2503_4P
390
0
100
AcDbCircle
 10
49.8159831904
 20
222.3023234106
 30
0.0
 40
1.25
  0
ARC
  5
AD
100
AcDbEntity
  8
2501_2-4 ROLLEN
390
0
100
AcDbCircle
 10
57.1860419795
 20
240.2418501204
 30
0.0
 40
19.5000289228
100
AcDbArc
 50
320.8348688032
 51
500.6322390386
  0
ARC
  5
AE
100
AcDbEntity
  8
2501_2-4 ROLLEN
390
0
100
AcDbCircle
 10
57.1860419795
 20
240.2418501204
 30
0.0
 40
17.5000289228
100
AcDbArc
 50
320.8348688032
 51
500.6322390386
  0
ARC
  5
AF
100
AcDbEntity
  8
2501_2-4 ROLLEN
390
0
100
AcDbCircle
 10
67.440473817
 20
224.7135129575
 30
0.0
 40
1.0
100
AcDbArc
 50
125.733553919
 51
305.733553919
  0
ARC
  5
B0
100
AcDbEntity
  8
2501_2-4 ROLLEN
390
0
100
AcDbCircle
 10
63.5448703002
 20
238.2615827484
 30
0.0
 40
1.0
100
AcDbArc
 50
335.7335539244
 51
515.7335539244
  0
ARC
  5
B1
100
AcDbEntity
  8
2501_2-4 ROLLEN
390
0
100
AcDbCircle
 10
54.8841140503
 20
242.1659597743
 30
0.0
 40
8.5001504606
100
AcDbArc
 50
320.8441547895
 51
335.7335539215
  0
ARC
  5
B2
100
AcDbEntity
  8
2501_2-4 ROLLEN
390
0
100
AcDbCircle
 10
54.8841140503
 20
242.1659597743
 30
0.0
 40
10.5001504606
100
AcDbArc
 50
320.8441547895
 51
335.7335539215
  0
ARC
  5
B3
100
AcDbEntity
  8
2501_2-4 ROLLEN
390
0
100
AcDbCircle
 10
54.8841140501
 20
242.1659597745
 30
0.0
 40
20.5000016396
100
AcDbArc
 50
305.7335539211
 51
320.7286117343
  0
ARC
  5
B4
100
AcDbEntity
  8
2501_2-4 ROLLEN
390
0
100
AcDbCircle
 10
52.6913139446
 20
244.2235569934
 30
0.0
 40
13.5016830311
100
AcDbArc
 50
141.6737195522
 51
319.7933882897
  0
ARC
  5
B5
100
AcDbEntity
  8
2501_2-4 ROLLEN
390
0
100
AcDbCircle
 10
52.6913139446
 20
244.2235569934
 30
0.0
 40
11.5016830311
100
AcDbArc
 50
141.6737195522
 51
319.7933882897
  0
ARC
  5
B6
100
AcDbEntity
  8
2501_2-4 ROLLEN
390
0
100
AcDbCircle
 10
54.8841140501
 20
242.1659597745
 30
0.0
 40
22.5000016396
100
AcDbArc
 50
305.7335539211
 51
320.7286117343
  0
ARC
  5
B7
100
AcDbEntity
  8
2501_2-4 ROLLEN
390
0
100
AcDbCircle
 10
151.8841140503
 20
82.1659597743
 30
0.0
 40
17.5
100
AcDbArc
 50
180.0
 51
360.0
  0
ARC
  5
B8
100
AcDbEntity
  8
2501_2-4 ROLLEN
390
0
100
AcDbCircle
 10
151.8841140503
 20
82.1659597743
 30
0.0
 40
19.5
100
AcDbArc
 50
180.0
 51
360.0
  0
TEXT
  5
B9
100
AcDbEntity
  8
BESCHRIFTUNG
390
0
100
AcDbText
 10
44.0568453971
 20
272.362760249
 30
0.0
 40
3.0
  1
2503.4/5
 41
1.1351342126
  7
Arial
100
AcDbText
  0
ARC
  5
BA
100
AcDbEntity
  8
2501_2-4 ROLLEN
390
0
100
AcDbCircle
 10
152.4316481462
 20
243.9059280523
 30
0.0
 40
11.5016830311
100
AcDbArc
 50
321.6737195513
 51
499.7933882887
  0
ARC
  5
BB
100
AcDbEntity
  8
2501_2-4 ROLLEN
390
0
100
AcDbCircle
 10
152.4316481462
 20
243.9059280523
 30
0.0
 40
13.5016830311
100
AcDbArc
 50
321.6737195513
 51
499.7933882887
  0
ARC
  5
BC
100
AcDbEntity
  8
2501_2-4 ROLLEN
390
0
100
AcDbCircle
 10
157.2274521302
 20
240.2925039316
 30
0.0
 40
19.5000289228
100
AcDbArc
 50
140.8348688023
 51
320.6322390377
  0
ARC
  5
BD
100
AcDbEntity
  8
2501_2-4 ROLLEN
390
0
100
AcDbCircle
 10
157.2274521302
 20
240.2925039316
 30
0.0
 40
17.5000289228
100
AcDbArc
 50
140.8348688023
 51
320.6322390377
  0
ARC
  5
BE
100
AcDbEntity
  8
2501_2-4 ROLLEN
390
0
100
AcDbCircle
 10
154.88411405
 20
242.1659597744
 30
0.0
 40
20.5000016396
100
AcDbArc
 50
320.7384961067
 51
335.7335539198
  0
ARC
  5
BF
100
AcDbEntity
  8
2501_2-4 ROLLEN
390
0
100
AcDbCircle
 10
154.8841140503
 20
242.1659597743
 30
0.0
 40
8.5001504606
100
AcDbArc
 50
305.7335539195
 51
320.6229530514
  0
ARC
  5
C0
100
AcDbEntity
  8
2501_2-4 ROLLEN
390
0
100
AcDbCircle
 10
154.8841140503
 20
242.1659597743
 30
0.0
 40
10.5001504606
100
AcDbArc
 50
305.7335539195
 51
320.6229530514
  0
ARC
  5
C1
100
AcDbEntity
  8
2501_2-4 ROLLEN
390
0
100
AcDbCircle
 10
154.88411405
 20
242.1659597744
 30
0.0
 40
22.5000016396
100
AcDbArc
 50
320.7384961067
 51
335.7335539198
  0
ARC
  5
C2
100
AcDbEntity
  8
2501_2-4 ROLLEN
390
0
100
AcDbCircle
 10
174.4844639956
 20
233.3298773559
 30
0.0
 40
1.0
100
AcDbArc
 50
335.733553922
 51
515.733553922
  0
ARC
  5
C3
100
AcDbEntity
  8
2501_2-4 ROLLEN
390
0
100
AcDbCircle
 10
154.8841140503
 20
82.1659597743
 30
0.0
 40
22.5
100
AcDbArc
 50
165.0
 51
180.0
  0
ARC
  5
C4
100
AcDbEntity
  8
2501_2-4 ROLLEN
390
0
100
AcDbCircle
 10
154.8841140503
 20
82.1659597743
 30
0.0
 40
10.5
100
AcDbArc
 50
180.0
 51
195.0
  0
ARC
  5
C5
100
AcDbEntity
  8
2501_2-4 ROLLEN
390
0
100
AcDbCircle
 10
154.8841140503
 20
82.1659597743
 30
0.0
 40
20.5
100
AcDbArc
 50
165.0
 51
180.0
  0
ARC
  5
C6
100
AcDbEntity
  8
2501_2-4 ROLLEN
390
0
100
AcDbCircle
 10
154.8841140503
 20
82.1659597743
 30
0.0
 40
8.5
100
AcDbArc
 50
180.0
 51
195.0
  0
ARC
  5
C7
100
AcDbEntity
  8
2501_2-4 ROLLEN
390
0
100
AcDbCircle
 10
145.7078187006
 20
79.7071788458
 30
0.0
 40
1.0
100
AcDbArc
 50
195.0
 51
375.0
  0
ARC
  5
C8
100
AcDbEntity
  8
2501_2-4 ROLLEN
390
0
100
AcDbCircle
 10
134.1167087851
 20
87.730569244
 30
0.0
 40
1.0
100
AcDbArc
 50
345.0
 51
525.0
  0
ARC
  5
C9
100
AcDbEntity
  8
2501_2-4 ROLLEN
390
0
100
AcDbCircle
 10
157.8841140503
 20
82.1659597743
 30
0.0
 40
11.5
100
AcDbArc
 50
0.0
 51
180.0
  0
ARC
  5
CA
100
AcDbEntity
  8
2501_2-4 ROLLEN
390
0
100
AcDbCircle
 10
157.8841140503
 20
82.1659597743
 30
0.0
 40
13.5
100
AcDbArc
 50
0.0
 51
180.0
  0
ARC
  5
CB
100
AcDbEntity
  8
2501_5 SCHIEBER
390
0
100
AcDbCircle
 10
45.397382965
 20
24.8341889112
 30
0.0
 40
1.6
100
AcDbArc
 50
0.0
 51
180.0
  0
ARC
  5
CC
100
AcDbEntity
  8
2501_5 SCHIEBER
390
0
100
AcDbCircle
 10
45.397382965
 20
97.4138209388
 30
0.0
 40
1.6
100
AcDbArc
 50
180.0
 51
360.0
  0
ARC
  5
CD
100
AcDbEntity
  8
2501_5 SCHIEBER
390
0
100
AcDbCircle
 10
39.4155347239
 20
86.4102163713
 30
0.0
 40
1.5
100
AcDbArc
 50
0.0
 51
180.0
  0
ARC
  5
CE
100
AcDbEntity
  8
2501_5 SCHIEBER
390
0
100
AcDbCircle
 10
39.4155347239
 20
101.4102163713
 30
0.0
 40
1.5
100
AcDbArc
 50
0.0
 51
180.0
  0
LINE
  5
CF
100
AcDbEntity
  8
2501_5 SCHIEBER
390
0
100
AcDbLine
 10
37.9155347239
 20
101.4102163713
 30
0.0
 11
37.9155347239
 21
90.5480283983
 31
0.0
  0
LINE
  5
D0
100
AcDbEntity
  8
2501_5 SCHIEBER
390
0
100
AcDbLine
 10
40.9155347239
 20
101.4102163713
 30
0.0
 11
40.9155347239
 21
90.5480283983
 31
0.0
  0
LINE
  5
D1
100
AcDbEntity
  8
2501_5 SCHIEBER
390
0
100
AcDbLine
 10
40.9155347239
 20
86.4102163713
 30
0.0
 11
40.9155347239
 21
75.5480283983
 31
0.0
  0
LINE
  5
D2
100
AcDbEntity
  8
2501_5 SCHIEBER
390
0
100
AcDbLine
 10
37.9155347239
 20
86.4102163713
 30
0.0
 11
37.9155347239
 21
75.5480283983
 31
0.0
  0
LINE
  5
D3
100
AcDbEntity
  8
2501_5 SCHIEBER
390
0
100
AcDbLine
 10
46.997382965
 20
24.8341889112
 30
0.0
 11
46.997382965
 21
10.876847343
 31
0.0
  0
LINE
  5
D4
100
AcDbEntity
  8
2501_5 SCHIEBER
390
0
100
AcDbLine
 10
46.997382965
 20
10.876847343
 30
0.0
 11
48.897382965
 21
10.876847343
 31
0.0
  0
LINE
  5
D5
100
AcDbEntity
  8
2501_5 SCHIEBER
390
0
100
AcDbLine
 10
43.897382965
 20
10.876847343
 30
0.0
 11
33.897382965
 21
10.876847343
 31
0.0
  0
LINE
  5
D6
100
AcDbEntity
  8
2501_5 SCHIEBER
390
0
100
AcDbLine
 10
48.897382965
 20
10.876847343
 30
0.0
 11
48.897382965
 21
111.3711625071
 31
0.0
  0
LINE
  5
D7
100
AcDbEntity
  8
2501_5 SCHIEBER
390
0
100
AcDbLine
 10
33.897382965
 20
10.876847343
 30
0.0
 11
33.897382965
 21
111.3711625071
 31
0.0
  0
LINE
  5
D8
100
AcDbEntity
  8
2501_5 SCHIEBER
390
0
100
AcDbLine
 10
46.997382965
 20
97.4138209388
 30
0.0
 11
46.997382965
 21
111.3711625071
 31
0.0
  0
LINE
  5
D9
100
AcDbEntity
  8
2501_5 SCHIEBER
390
0
100
AcDbLine
 10
43.797382965
 20
97.4138209388
 30
0.0
 11
43.797382965
 21
111.3711625071
 31
0.0
  0
LINE
  5
DA
100
AcDbEntity
  8
2501_5 SCHIEBER
390
0
100
AcDbLine
 10
43.897382965
 20
111.3711625071
 30
0.0
 11
33.897382965
 21
111.3711625071
 31
0.0
  0
LINE
  5
DB
100
AcDbEntity
  8
2501_5 SCHIEBER
390
0
100
AcDbLine
 10
46.997382965
 20
111.3711625071
 30
0.0
 11
48.897382965
 21
111.3711625071
 31
0.0
  0
LINE
  5
DC
100
AcDbEntity
  8
2501_5 SCHIEBER
390
0
100
AcDbLine
 10
43.797382965
 20
24.8341889112
 30
0.0
 11
43.797382965
 21
10.876847343
 31
0.0
  0
CIRCLE
  5
DD
100
AcDbEntity
  8
2503_8P
390
0
100
AcDbCircle
 10
109.3660540607
 20
57.0281839002
 30
0.0
 40
1.25
  0
CIRCLE
  5
DE
100
AcDbEntity
  8
2503_8P
390
0
100
AcDbCircle
 10
109.3660540607
 20
57.0281839002
 30
0.0
 40
1.25
  0
CIRCLE
  5
DF
100
AcDbEntity
  8
2503_8P
390
0
100
AcDbCircle
 10
72.7672760435
 20
57.0281839002
 30
0.0
 40
1.25
  0
CIRCLE
  5
E0
100
AcDbEntity
  8
2503_8P
390
0
100
AcDbCircle
 10
79.7672760435
 20
57.0281839002
 30
0.0
 40
1.25
  0
CIRCLE
  5
E1
100
AcDbEntity
  8
2503_8P
390
0
100
AcDbCircle
 10
86.7672760435
 20
57.0281839002
 30
0.0
 40
1.25
  0
CIRCLE
  5
E2
100
AcDbEntity
  8
2503_8P
390
0
100
AcDbCircle
 10
109.3660540607
 20
57.0281839002
 30
0.0
 40
1.25
  0
LINE
  5
E3
100
AcDbEntity
  8
2501_9 HEBEL 22_5_0_-22_5
390
0
100
AcDbLine
 10
109.3660540607
 20
59.5281839002
 30
0.0
 11
65.5700543614
 21
59.5281839002
 31
0.0
  0
LINE
  5
E4
100
AcDbEntity
  8
2501_9 HEBEL 22_5_0_-22_5
390
0
100
AcDbLine
 10
94.1385469243
 20
41.3424116506
 30
0.0
 11
110.9489244575
 21
55.0931073366
 31
0.0
  0
CIRCLE
  5
E5
100
AcDbEntity
  8
2503_8P
390
0
100
AcDbCircle
 10
92.5556765275
 20
43.2774882143
 30
0.0
 40
1.25
  0
LINE
  5
E6
100
AcDbEntity
  8
2501_9 HEBEL 22_5_0_-22_5
390
0
100
AcDbLine
 10
64.622654902
 20
54.7968751285
 30
0.0
 11
91.4146005778
 21
41.0530903908
 31
0.0
  0
ARC
  5
E7
100
AcDbEntity
  8
2501_9 HEBEL 22_5_0_-22_5
390
0
100
AcDbCircle
 10
109.3660540607
 20
57.0281839002
 30
0.0
 40
2.5
100
AcDbArc
 50
309.2827717848
 51
450.0
  0
CIRCLE
  5
E8
100
AcDbEntity
  8
2503_8P
390
0
100
AcDbCircle
 10
65.7672760435
 20
57.0281839002
 30
0.0
 40
1.25
  0
ARC
  5
E9
100
AcDbEntity
  8
2501_9 HEBEL 22_5_0_-22_5
390
0
100
AcDbCircle
 10
92.5556765275
 20
43.2774882143
 30
0.0
 40
2.5
100
AcDbArc
 50
242.8429947848
 51
309.2827717848
  0
ARC
  5
EA
100
AcDbEntity
  8
2501_9 HEBEL 22_5_0_-22_5
390
0
100
AcDbCircle
 10
65.7672760435
 20
57.0281839002
 30
0.0
 40
2.5077672125
100
AcDbArc
 50
94.5106462643
 51
242.8429947848
  0
MTEXT
  5
EB
100
AcDbEntity
  8
BESCHRIFTUNG
390
0
100
AcDbMText
 10
53.4068846189
 20
121.1228921209
 30
0.0
 40
3.0
 41
0.0
 71
         1
 72
         1
  1
\W0.648531;2503.1/5\P2503.2\P2503.3/6\P2503.4/5\P2503.5/5\P2503.6/5\P2503.7/5\P2503.8
  7
Arial
 73
         1
 44
0.66
  0
MTEXT
  5
EC
100
AcDbEntity
  8
BESCHRIFTUNG
390
0
100
AcDbMText
 10
67.0288466021
 20
121.1228921209
 30
0.0
 40
3.0
 41
0.0
 71
         1
 72
         1
  1
\W0.648551;Unterzugrad für Schalter\PUnterzugschieber\PSchieberabstandhalter\PZweifachhebel-Unterzugrad rechtsgewendelt\PZweifachhebel-Unterzugrad linksgewendelt\PDoppelhebel-Unterzugrad rechtsgewendelt\PDoppelhebel-Unterzugrad linksgewendelt\PUnterzughebel
  7
Arial
 73
         1
 44
0.66
  0
TEXT
  5
ED
100
AcDbEntity
  8
BESCHRIFTUNG
390
0
100
AcDbText
 10
147.0056033538
 20
273.913704114
 30
0.0
 40
3.0
  1
2503.5/5
 41
1.1351341291
  7
Arial
100
AcDbText
  0
ARC
  5
EE
100
AcDbEntity
  8
2501_2-4 ROLLEN
390
0
100
AcDbCircle
 10
160.4323604654
 20
154.4542919588
 30
0.0
 40
1.0
100
AcDbArc
 50
125.7335539165
 51
305.7335539165
  0
CIRCLE
  5
EF
100
AcDbEntity
  8
2503_7P
390
0
100
AcDbCircle
 10
159.9522449105
 20
182.0295961384
 30
0.0
 40
1.25
  0
CIRCLE
  5
F0
100
AcDbEntity
  8
2503_7P
390
0
100
AcDbCircle
 10
154.8841140497
 20
184.1659597738
 30
0.0
 40
1.75
  0
CIRCLE
  5
F1
100
AcDbEntity
  8
2501_2-4 ROLLEN
390
0
  6
DASHED
100
AcDbCircle
 10
154.8841140502
 20
162.1659597743
 30
0.0
 40
23.5
  0
CIRCLE
  5
F2
100
AcDbEntity
  8
2501_2-4 ROLLEN
390
0
100
AcDbCircle
 10
154.8841140502
 20
162.1659597743
 30
0.0
 40
24.5
  0
CIRCLE
  5
F3
100
AcDbEntity
  8
2501_2-4 ROLLEN
390
0
100
AcDbCircle
 10
54.8841140502
 20
162.1659597743
 30
0.0
 40
24.5
  0
CIRCLE
  5
F4
100
AcDbEntity
  8
2501_2-4 ROLLEN
390
0
  6
DASHED
100
AcDbCircle
 10
54.8841140502
 20
162.1659597743
 30
0.0
 40
23.5
  0
CIRCLE
  5
F5
100
AcDbEntity
  8
2501_2-4 ROLLEN
390
0
100
AcDbCircle
 10
54.8841140502
 20
140.1659597743
 30
0.0
 40
1.75
  0
CIRCLE
  5
F6
100
AcDbEntity
  8
2503_6P
390
0
100
AcDbCircle
 10
49.8159831902
 20
142.3023234106
 30
0.0
 40
1.25
  0
ARC
  5
F7
100
AcDbEntity
  8
2501_2-4 ROLLEN
390
0
100
AcDbCircle
 10
57.1860419793
 20
160.2418501204
 30
0.0
 40
19.5000289228
100
AcDbArc
 50
320.8348688032
 51
500.6322390386
  0
ARC
  5
F8
100
AcDbEntity
  8
2501_2-4 ROLLEN
390
0
100
AcDbCircle
 10
57.1860419793
 20
160.2418501204
 30
0.0
 40
17.5000289228
100
AcDbArc
 50
320.8348688032
 51
500.6322390386
  0
ARC
  5
F9
100
AcDbEntity
  8
2501_2-4 ROLLEN
390
0
100
AcDbCircle
 10
67.4404738169
 20
144.7135129575
 30
0.0
 40
1.0
100
AcDbArc
 50
125.733553919
 51
305.733553919
  0
ARC
  5
FA
100
AcDbEntity
  8
2501_2-4 ROLLEN
390
0
100
AcDbCircle
 10
63.5448703
 20
158.2615827484
 30
0.0
 40
1.0
100
AcDbArc
 50
335.7335539244
 51
515.7335539244
  0
ARC
  5
FB
100
AcDbEntity
  8
2501_2-4 ROLLEN
390
0
100
AcDbCircle
 10
54.8841140502
 20
162.1659597743
 30
0.0
 40
8.5001504606
100
AcDbArc
 50
320.8441547895
 51
335.7335539215
  0
ARC
  5
FC
100
AcDbEntity
  8
2501_2-4 ROLLEN
390
0
100
AcDbCircle
 10
54.8841140502
 20
162.1659597743
 30
0.0
 40
10.5001504606
100
AcDbArc
 50
320.8441547895
 51
335.7335539215
  0
ARC
  5
FD
100
AcDbEntity
  8
2501_2-4 ROLLEN
390
0
100
AcDbCircle
 10
54.8841140499
 20
162.1659597745
 30
0.0
 40
20.5000016396
100
AcDbArc
 50
305.7335539211
 51
320.7286117343
  0
ARC
  5
FE
100
AcDbEntity
  8
2501_2-4 ROLLEN
390
0
100
AcDbCircle
 10
52.6913139444
 20
164.2235569934
 30
0.0
 40
13.5016830311
100
AcDbArc
 50
141.6737195522
 51
319.7933882897
  0
ARC
  5
FF
100
AcDbEntity
  8
2501_2-4 ROLLEN
390
0
100
AcDbCircle
 10
52.6913139444
 20
164.2235569934
 30
0.0
 40
11.5016830311
100
AcDbArc
 50
141.6737195522
 51
319.7933882897
  0
ARC
  5
100
100
AcDbEntity
  8
2501_2-4 ROLLEN
390
0
100
AcDbCircle
 10
54.8841140499
 20
162.1659597745
 30
0.0
 40
22.5000016396
100
AcDbArc
 50
305.7335539211
 51
320.7286117343
  0
TEXT
  5
101
100
AcDbEntity
  8
BESCHRIFTUNG
390
0
100
AcDbText
 10
44.0568453972
 20
193.3096228228
 30
0.0
 40
3.0
  1
2503.6/5
 41
1.1351342126
  7
Arial
100
AcDbText
  0
TEXT
  5
102
100
AcDbEntity
  8
BESCHRIFTUNG
390
0
100
AcDbText
 10
145.003707971
 20
196.1502105443
 30
0.0
 40
3.0
  1
2503.7/5
 41
1.13513415
  7
Arial
100
AcDbText
  0
ARC
  5
103
100
AcDbEntity
  8
2501_2-4 ROLLEN
390
0
100
AcDbCircle
 10
152.431648146
 20
163.9059280523
 30
0.0
 40
11.5016830311
100
AcDbArc
 50
321.6737195513
 51
499.7933882887
  0
ARC
  5
104
100
AcDbEntity
  8
2501_2-4 ROLLEN
390
0
100
AcDbCircle
 10
152.431648146
 20
163.9059280523
 30
0.0
 40
13.5016830311
100
AcDbArc
 50
321.6737195513
 51
499.7933882887
  0
ARC
  5
105
100
AcDbEntity
  8
2501_2-4 ROLLEN
390
0
100
AcDbCircle
 10
157.22745213
 20
160.2925039316
 30
0.0
 40
19.5000289228
100
AcDbArc
 50
140.8348688023
 51
320.6322390377
  0
ARC
  5
106
100
AcDbEntity
  8
2501_2-4 ROLLEN
390
0
100
AcDbCircle
 10
157.22745213
 20
160.2925039316
 30
0.0
 40
17.5000289228
100
AcDbArc
 50
140.8348688023
 51
320.6322390377
  0
ARC
  5
107
100
AcDbEntity
  8
2501_2-4 ROLLEN
390
0
100
AcDbCircle
 10
154.8841140499
 20
162.1659597744
 30
0.0
 40
20.5000016396
100
AcDbArc
 50
320.7384961067
 51
335.7335539198
  0
ARC
  5
108
100
AcDbEntity
  8
2501_2-4 ROLLEN
390
0
100
AcDbCircle
 10
154.8841140502
 20
162.1659597743
 30
0.0
 40
8.5001504606
100
AcDbArc
 50
305.7335539195
 51
320.6229530514
  0
ARC
  5
109
100
AcDbEntity
  8
2501_2-4 ROLLEN
390
0
100
AcDbCircle
 10
154.8841140502
 20
162.1659597743
 30
0.0
 40
10.5001504606
100
AcDbArc
 50
305.7335539195
 51
320.6229530514
  0
ARC
  5
10A
100
AcDbEntity
  8
2501_2-4 ROLLEN
390
0
100
AcDbCircle
 10
154.8841140499
 20
162.1659597744
 30
0.0
 40
22.5000016396
100
AcDbArc
 50
320.7384961067
 51
335.7335539198
  0
ARC
  5
10B
100
AcDbEntity
  8
2501_2-4 ROLLEN
390
0
100
AcDbCircle
 10
174.4844639955
 20
153.3298773559
 30
0.0
 40
1.0
100
AcDbArc
 50
335.733553922
 51
515.733553922
  0
TEXT
  5
10C
100
AcDbEntity
  8
BESCHRIFTUNG
390
0
100
AcDbText
 10
60.3220725
 20
80.5376643714
 30
0.0
 40
3.0
  1
2503.8
 41
1.1351381522
  7
Arial
100
AcDbText
  0
TEXT
  5
10D
100
AcDbEntity
  8
BESCHRIFTUNG
390
0
100
AcDbText
 10
23.6787344015
 20
117.1423512692
 30
0.0
 40
3.0
  1
2503.2
 41
1.1351380459
  7
Arial
100
AcDbText
  0
ARC
  5
10E
100
AcDbEntity
  8
2501_2-4 ROLLEN
390
0
100
AcDbCircle
 10
155.3841140502
 20
162.1659597742
 30
0.0
 40
1.0
100
AcDbArc
 50
269.999999997
 51
449.999999997
  0
ARC
  5
10F
100
AcDbEntity
  8
2501_2-4 ROLLEN
390
0
100
AcDbCircle
 10
154.3841140502
 20
162.1659597743
 30
0.0
 40
1.0
100
AcDbArc
 50
89.999999997
 51
269.999999997
  0
LINE
  5
110
100
AcDbEntity
  8
2503_7P
390
0
  6
DASHED
100
AcDbLine
 10
129.8841140517
 20
130.6659597753
 30
0.0
 11
154.3841140505
 21
162.1659597742
 31
0.0
  0
LINE
  5
111
100
AcDbEntity
  8
2501_2-4 ROLLEN
390
0
100
AcDbLine
 10
154.3841140502
 20
163.1659597743
 30
0.0
 11
155.3841140502
 21
163.1659597742
 31
0.0
  0
LINE
  5
112
100
AcDbEntity
  8
2503_7P
390
0
100
AcDbLine
 10
154.3841140505
 20
162.1659597742
 30
0.0
 11
155.3841140505
 21
162.1659597743
 31
0.0
  0
LINE
  5
113
100
AcDbEntity
  8
2501_2-4 ROLLEN
390
0
100
AcDbLine
 10
155.3841140501
 20
161.1659597742
 30
0.0
 11
154.3841140501
 21
161.1659597743
 31
0.0
  0
ARC
  5
114
100
AcDbEntity
  8
2501_2-4 ROLLEN
390
0
100
AcDbCircle
 10
55.3841140502
 20
162.1659597742
 30
0.0
 40
1.0
100
AcDbArc
 50
269.999999997
 51
449.999999997
  0
ARC
  5
115
100
AcDbEntity
  8
2501_2-4 ROLLEN
390
0
100
AcDbCircle
 10
54.3841140502
 20
162.1659597743
 30
0.0
 40
1.0
100
AcDbArc
 50
89.999999997
 51
269.999999997
  0
LINE
  5
116
100
AcDbEntity
  8
2501_2-4 ROLLEN
390
0
100
AcDbLine
 10
54.3841140502
 20
163.1659597743
 30
0.0
 11
55.3841140502
 21
163.1659597742
 31
0.0
  0
LINE
  5
117
100
AcDbEntity
  8
2503_6P
390
0
100
AcDbLine
 10
54.3841140505
 20
162.1659597742
 30
0.0
 11
55.3841140505
 21
162.1659597743
 31
0.0
  0
LINE
  5
118
100
AcDbEntity
  8
2501_2-4 ROLLEN
390
0
100
AcDbLine
 10
55.3841140501
 20
161.1659597742
 30
0.0
 11
54.3841140501
 21
161.1659597743
 31
0.0
  0
LINE
  5
119
100
AcDbEntity
  8
MITTELLINIEN
390
0
100
AcDbLine
 10
179.8841140516
 20
119.1659597734
 30
0.0
 11
179.8841140516
 21
44.6659597753
 31
0.0
  0
LINE
  5
11A
100
AcDbEntity
  8
MITTELLINIEN
390
0
100
AcDbLine
 10
129.8841140516
 20
119.1659597734
 30
0.0
 11
129.8841140516
 21
44.6659597753
 31
0.0
  0
MTEXT
  5
11B
100
AcDbEntity
  8
2503_1T
390
0
  6
DIVIDE
100
AcDbMText
 10
198.4709981022
 20
113.6387295759
 30
0.0
 40
1.5
 41
0.0
 71
         5
 72
         1
  1
\W0.864843;M50+x5 T5\PO6         I1\PW1.8 B1.8
  7
Arial
 73
         1
 44
0.66
  0
MTEXT
  5
11C
100
AcDbEntity
  8
2503___ UNTERZUG FÜR DREISTELLIGEN ANTRIEB
390
0
100
AcDbMText
 10
188.190925061
 20
82.1442772348
 30
0.0
 40
2.0
 41
0.0
 71
         5
 72
         1
  1
\W1.135136;>2503.1T\PM50+x5\PT5 O6
  7
Arial
 73
         1
 44
0.66
  0
TEXT
  5
11D
100
AcDbEntity
  8
2503_1P
390
0
  6
PHANTOM
100
AcDbText
 10
149.0151154083
 20
76.0882105104
 30
0.0
 40
2.0
  1
N1
 41
1.1350267802
  7
Arial
100
AcDbText
  0
MTEXT
  5
11E
100
AcDbEntity
  8
2503_1P
390
0
100
AcDbMText
 10
127.1754332082
 20
96.6354194076
 30
0.0
 40
1.5
 41
0.0
 71
         5
 72
         1
  1
\W1.134914;>2500.1P\PM50+x5\PT5 O2
  7
Arial
 73
         1
 44
0.66
  0
MTEXT
  5
11F
100
AcDbEntity
  8
2503_1T
390
0
100
AcDbMText
 10
197.1754332082
 20
96.6354194076
 30
0.0
 40
1.5
 41
0.0
 71
         5
 72
         1
  1
\W1.135136;>2500.1T\PM50+x5\PT5 O6
  7
Arial
 73
         1
 44
0.66
  0
MTEXT
  5
120
100
AcDbEntity
  8
2503___ UNTERZUG FÜR DREISTELLIGEN ANTRIEB
390
0
100
AcDbMText
 10
120.47765562
 20
82.1442772348
 30
0.0
 40
2.0
 41
0.0
 71
         5
 72
         1
  1
\W1.135110;>2503.1P\PM50+x5\PT5 O2
  7
Arial
 73
         1
 44
0.66
  0
ARC
  5
121
100
AcDbEntity
  8
2503_1T
390
0
  6
DASHDOT
100
AcDbCircle
 10
415.0486980739
 20
82.1659597744
 30
0.0
 40
217.458152796
100
AcDbArc
 50
171.6710909115
 51
188.3289090885
  0
CIRCLE
  5
122
100
AcDbEntity
  8
2503_1P
390
0
  6
PHANTOM
100
AcDbCircle
 10
129.8841140516
 20
50.6659597753
 30
0.0
 40
1.0
  0
CIRCLE
  5
123
100
AcDbEntity
  8
2503_1P
390
0
  6
PHANTOM
100
AcDbCircle
 10
129.8841140516
 20
113.6659597734
 30
0.0
 40
0.5
  0
CIRCLE
  5
124
100
AcDbEntity
  8
2503_1T
390
0
  6
PHANTOM
100
AcDbCircle
 10
199.8841140516
 20
113.6659597734
 30
0.0
 40
0.5
  0
ARC
  5
125
100
AcDbEntity
  8
2503___ UNTERZUG FÜR DREISTELLIGEN ANTRIEB
390
0
100
AcDbCircle
 10
171.368451748
 20
82.1659597743
 30
0.0
 40
52.0883890522
100
AcDbArc
 50
142.7897718356
 51
217.2102281644
  0
ARC
  5
126
100
AcDbEntity
  8
2503_1P
390
0
  6
DASHDOT
100
AcDbCircle
 10
345.0486980739
 20
82.1659597744
 30
0.0
 40
217.458152796
100
AcDbArc
 50
171.6710909115
 51
188.3289090885
  0
CIRCLE
  5
127
100
AcDbEntity
  8
2503_1T
390
0
  6
PHANTOM
100
AcDbCircle
 10
199.8841140516
 20
50.6659597753
 30
0.0
 40
1.0
  0
ARC
  5
128
100
AcDbEntity
  8
2503___ UNTERZUG FÜR DREISTELLIGEN ANTRIEB
390
0
100
AcDbCircle
 10
241.368451748
 20
82.1659597743
 30
0.0
 40
52.0883890522
100
AcDbArc
 50
142.7897718356
 51
217.2102281644
  0
MTEXT
  5
129
100
AcDbEntity
  8
2503_1P
390
0
  6
DIVIDE
100
AcDbMText
 10
128.4709981022
 20
113.6387295759
 30
0.0
 40
1.5
 41
0.0
 71
         5
 72
         1
  1
\W0.864827;M50+x5 T5 O2\PP4 U15     I1.4\PD1.5      B-0.3
  7
Arial
 73
         1
 44
0.66
  0
LINE
  5
12A
100
AcDbEntity
  8
MITTELLINIEN
390
0
100
AcDbLine
 10
79.8841140516
 20
279.1659597734
 30
0.0
 11
79.8841140516
 21
204.6659597753
 31
0.0
  0
LINE
  5
12B
100
AcDbEntity
  8
MITTELLINIEN
390
0
100
AcDbLine
 10
29.8841140516
 20
279.1659597734
 30
0.0
 11
29.8841140516
 21
204.6659597753
 31
0.0
  0
TEXT
  5
12C
100
AcDbEntity
  8
2503_4T
390
0
  6
DIVIDE
100
AcDbText
 10
95.634386937
 20
274.4396734408
 30
0.0
 40
1.5
  1
@2503.1T
 41
0.864827243
  7
Arial
 72
         1
 11
100.162936864
 21
275.1896734408
 31
0.0
100
AcDbText
 73
         2
  0
MTEXT
  5
12D
100
AcDbEntity
  8
2503___ UNTERZUG FÜR DREISTELLIGEN ANTRIEB
390
0
100
AcDbMText
 10
88.190925061
 20
242.1442772348
 30
0.0
 40
2.0
 41
0.0
 71
         5
 72
         1
  1
\W1.135136;>2503.4T\PM50+x5\PT5 O6
  7
Arial
 73
         1
 44
0.66
  0
TEXT
  5
12E
100
AcDbEntity
  8
2503_4P
390
0
  6
PHANTOM
100
AcDbText
 10
37.413249613
 20
214.6032738525
 30
0.0
 40
2.0
  1
N1
 41
1.1350267802
  7
Arial
100
AcDbText
  0
MTEXT
  5
12F
100
AcDbEntity
  8
2503_4P
390
0
100
AcDbMText
 10
27.1754332082
 20
256.6354194076
 30
0.0
 40
1.5
 41
0.0
 71
         5
 72
         1
  1
\W1.135110;>2500.1P\PM50+x5\PT5 O2
  7
Arial
 73
         1
 44
0.66
  0
MTEXT
  5
130
100
AcDbEntity
  8
2503_4T
390
0
100
AcDbMText
 10
97.1754332082
 20
256.6354194076
 30
0.0
 40
1.5
 41
0.0
 71
         5
 72
         1
  1
\W1.135136;>2500.1T\PM50+x5\PT5 O6
  7
Arial
 73
         1
 44
0.66
  0
MTEXT
  5
131
100
AcDbEntity
  8
2503___ UNTERZUG FÜR DREISTELLIGEN ANTRIEB
390
0
100
AcDbMText
 10
20.47765562
 20
242.1442772348
 30
0.0
 40
2.0
 41
0.0
 71
         5
 72
         1
  1
\W1.135110;>2503.4P\PM50+x5\PT5 O2
  7
Arial
 73
         1
 44
0.66
  0
LINE
  5
132
100
AcDbEntity
  8
2503_4P
390
0
  6
DASHED
100
AcDbLine
 10
49.8159831914
 20
222.3023234104
 30
0.0
 11
29.8841140516
 21
210.6659597753
 31
0.0
  0
ARC
  5
133
100
AcDbEntity
  8
2503_4T
390
0
  6
DASHDOT
100
AcDbCircle
 10
315.0486980739
 20
242.1659597744
 30
0.0
 40
217.458152796
100
AcDbArc
 50
171.6710909115
 51
188.3289090885
  0
CIRCLE
  5
134
100
AcDbEntity
  8
2503_4P
390
0
  6
PHANTOM
100
AcDbCircle
 10
29.8841140516
 20
210.6659597753
 30
0.0
 40
1.0
  0
CIRCLE
  5
135
100
AcDbEntity
  8
2503_4P
390
0
  6
PHANTOM
100
AcDbCircle
 10
29.8841140516
 20
273.6659597734
 30
0.0
 40
0.5
  0
CIRCLE
  5
136
100
AcDbEntity
  8
2501_2-4 ROLLEN
390
0
100
AcDbCircle
 10
54.8841140503
 20
242.1659597743
 30
0.0
 40
24.5
  0
CIRCLE
  5
137
100
AcDbEntity
  8
2503_4P
390
0
100
AcDbCircle
 10
54.8841140514
 20
220.1659597743
 30
0.0
 40
1.75
  0
CIRCLE
  5
138
100
AcDbEntity
  8
2503_4T
390
0
  6
PHANTOM
100
AcDbCircle
 10
99.8841140516
 20
273.6659597734
 30
0.0
 40
0.5
  0
ARC
  5
139
100
AcDbEntity
  8
2503___ UNTERZUG FÜR DREISTELLIGEN ANTRIEB
390
0
100
AcDbCircle
 10
71.368451748
 20
242.1659597743
 30
0.0
 40
52.0883890522
100
AcDbArc
 50
142.7897718356
 51
217.2102281644
  0
ARC
  5
13A
100
AcDbEntity
  8
2503_4P
390
0
  6
DASHDOT
100
AcDbCircle
 10
245.0486980739
 20
242.1659597744
 30
0.0
 40
217.458152796
100
AcDbArc
 50
171.6710909115
 51
188.3289090885
  0
CIRCLE
  5
13B
100
AcDbEntity
  8
2503_4P
390
0
100
AcDbCircle
 10
54.8841140503
 20
242.1659597743
 30
0.0
 40
1.25
  0
CIRCLE
  5
13C
100
AcDbEntity
  8
2503_4T
390
0
  6
PHANTOM
100
AcDbCircle
 10
99.8841140516
 20
210.6659597753
 30
0.0
 40
1.0
  0
ARC
  5
13D
100
AcDbEntity
  8
2503___ UNTERZUG FÜR DREISTELLIGEN ANTRIEB
390
0
100
AcDbCircle
 10
141.368451748
 20
242.1659597743
 30
0.0
 40
52.0883890522
100
AcDbArc
 50
142.7897718356
 51
217.2102281644
  0
INSERT
  5
13E
100
AcDbEntity
  8
BEMASSUNG
390
0
100
AcDbBlockReference
  2
D299772672
 10
0.0
 20
0.0
 30
0.0
  0
TEXT
  5
13F
100
AcDbEntity
  8
2503_4P
390
0
  6
DIVIDE
100
AcDbText
 10
25.6344371509
 20
274.4396734408
 30
0.0
 40
1.5
  1
@2503.1P
 41
0.8648176536
  7
Arial
 72
         1
 11
30.162936864
 21
275.1896734408
 31
0.0
100
AcDbText
 73
         2
  0
LINE
  5
140
100
AcDbEntity
  8
MITTELLINIEN
390
0
100
AcDbLine
 10
179.8841140516
 20
279.1659597734
 30
0.0
 11
179.8841140516
 21
204.6659597753
 31
0.0
  0
LINE
  5
141
100
AcDbEntity
  8
MITTELLINIEN
390
0
100
AcDbLine
 10
129.8841140516
 20
279.1659597734
 30
0.0
 11
129.8841140516
 21
204.6659597753
 31
0.0
  0
TEXT
  5
142
100
AcDbEntity
  8
2503_5T
390
0
  6
DIVIDE
100
AcDbText
 10
195.634386937
 20
274.4396734408
 30
0.0
 40
1.5
  1
@2503.1T
 41
0.864827243
  7
Arial
 72
         1
 11
200.162936864
 21
275.1896734408
 31
0.0
100
AcDbText
 73
         2
  0
MTEXT
  5
143
100
AcDbEntity
  8
2503___ UNTERZUG FÜR DREISTELLIGEN ANTRIEB
390
0
100
AcDbMText
 10
188.190925061
 20
242.1442772348
 30
0.0
 40
2.0
 41
0.0
 71
         5
 72
         1
  1
\W1.135136;>2503.5T\PM50+x5\PT5 O6
  7
Arial
 73
         1
 44
0.66
  0
TEXT
  5
144
100
AcDbEntity
  8
2503_5P
390
0
  6
PHANTOM
100
AcDbText
 10
147.4943847354
 20
234.5070534532
 30
0.0
 40
2.0
  1
N1
 41
1.1350267802
  7
Arial
100
AcDbText
  0
MTEXT
  5
145
100
AcDbEntity
  8
2503_5P
390
0
100
AcDbMText
 10
127.1754332082
 20
256.6354194076
 30
0.0
 40
1.5
 41
0.0
 71
         5
 72
         1
  1
\W1.135110;>2500.1P\PM50+x5\PT5 O2
  7
Arial
 73
         1
 44
0.66
  0
MTEXT
  5
146
100
AcDbEntity
  8
2503_5T
390
0
100
AcDbMText
 10
197.1754332082
 20
256.6354194076
 30
0.0
 40
1.5
 41
0.0
 71
         5
 72
         1
  1
\W1.135136;>2500.1T\PM50+x5\PT5 O6
  7
Arial
 73
         1
 44
0.66
  0
MTEXT
  5
147
100
AcDbEntity
  8
2503___ UNTERZUG FÜR DREISTELLIGEN ANTRIEB
390
0
100
AcDbMText
 10
120.47765562
 20
242.1442772348
 30
0.0
 40
2.0
 41
0.0
 71
         5
 72
         1
  1
\W1.135110;>2503.5P\PM50+x5\PT5 O2
  7
Arial
 73
         1
 44
0.66
  0
ARC
  5
148
100
AcDbEntity
  8
2503_5T
390
0
  6
DASHDOT
100
AcDbCircle
 10
415.0486980739
 20
242.1659597744
 30
0.0
 40
217.458152796
100
AcDbArc
 50
171.6710909115
 51
188.3289090885
  0
CIRCLE
  5
149
100
AcDbEntity
  8
2503_5P
390
0
  6
PHANTOM
100
AcDbCircle
 10
129.8841140516
 20
210.6659597753
 30
0.0
 40
1.0
  0
CIRCLE
  5
14A
100
AcDbEntity
  8
2503_5P
390
0
  6
PHANTOM
100
AcDbCircle
 10
129.8841140516
 20
273.6659597734
 30
0.0
 40
0.5
  0
CIRCLE
  5
14B
100
AcDbEntity
  8
2501_2-4 ROLLEN
390
0
100
AcDbCircle
 10
154.8841140503
 20
242.1659597743
 30
0.0
 40
24.5
  0
CIRCLE
  5
14C
100
AcDbEntity
  8
2503_5T
390
0
  6
PHANTOM
100
AcDbCircle
 10
199.8841140516
 20
273.6659597734
 30
0.0
 40
0.5
  0
ARC
  5
14D
100
AcDbEntity
  8
2503___ UNTERZUG FÜR DREISTELLIGEN ANTRIEB
390
0
100
AcDbCircle
 10
171.368451748
 20
242.1659597743
 30
0.0
 40
52.0883890522
100
AcDbArc
 50
142.7897718356
 51
217.2102281644
  0
ARC
  5
14E
100
AcDbEntity
  8
2503_5P
390
0
  6
DASHDOT
100
AcDbCircle
 10
345.0486980739
 20
242.1659597744
 30
0.0
 40
217.458152796
100
AcDbArc
 50
171.6710909115
 51
188.3289090885
  0
CIRCLE
  5
14F
100
AcDbEntity
  8
2503_5P
390
0
100
AcDbCircle
 10
154.8841140503
 20
242.1659597743
 30
0.0
 40
1.25
  0
CIRCLE
  5
150
100
AcDbEntity
  8
2503_5T
390
0
  6
PHANTOM
100
AcDbCircle
 10
199.8841140516
 20
210.6659597753
 30
0.0
 40
1.0
  0
ARC
  5
151
100
AcDbEntity
  8
2503___ UNTERZUG FÜR DREISTELLIGEN ANTRIEB
390
0
100
AcDbCircle
 10
241.368451748
 20
242.1659597743
 30
0.0
 40
52.0883890522
100
AcDbArc
 50
142.7897718356
 51
217.2102281644
  0
TEXT
  5
152
100
AcDbEntity
  8
2503_5P
390
0
  6
DIVIDE
100
AcDbText
 10
125.6344371509
 20
274.4396734408
 30
0.0
 40
1.5
  1
@2503.1P
 41
0.8648176536
  7
Arial
 72
         1
 11
130.162936864
 21
275.1896734408
 31
0.0
100
AcDbText
 73
         2
  0
LINE
  5
153
100
AcDbEntity
  8
MITTELLINIEN
390
0
100
AcDbLine
 10
179.8841140517
 20
199.1659597734
 30
0.0
 11
179.8841140517
 21
124.6659597753
 31
0.0
  0
LINE
  5
154
100
AcDbEntity
  8
MITTELLINIEN
390
0
100
AcDbLine
 10
129.8841140517
 20
199.1659597734
 30
0.0
 11
129.8841140517
 21
124.6659597753
 31
0.0
  0
TEXT
  5
155
100
AcDbEntity
  8
2503_7T
390
0
  6
DIVIDE
100
AcDbText
 10
195.6343869372
 20
194.4396734408
 30
0.0
 40
1.5
  1
@2503.1T
 41
0.864827243
  7
Arial
 72
         1
 11
200.1629368642
 21
195.1896734408
 31
0.0
100
AcDbText
 73
         2
  0
MTEXT
  5
156
100
AcDbEntity
  8
2503___ UNTERZUG FÜR DREISTELLIGEN ANTRIEB
390
0
100
AcDbMText
 10
188.1909250611
 20
162.1442772348
 30
0.0
 40
2.0
 41
0.0
 71
         5
 72
         1
  1
\W1.135136;>2503.7T\PM50+x5\PT5 O6
  7
Arial
 73
         1
 44
0.66
  0
TEXT
  5
157
100
AcDbEntity
  8
2503_7P
390
0
  6
PHANTOM
100
AcDbText
 10
148.3991019902
 20
156.1872426403
 30
0.0
 40
2.0
  1
N1
 41
1.1350267802
  7
Arial
100
AcDbText
  0
MTEXT
  5
158
100
AcDbEntity
  8
2503_7P
390
0
100
AcDbMText
 10
127.1754332083
 20
176.6354194076
 30
0.0
 40
1.5
 41
0.0
 71
         5
 72
         1
  1
\W1.135110;>2500.1P\PM50+x5\PT5 O2
  7
Arial
 73
         1
 44
0.66
  0
MTEXT
  5
159
100
AcDbEntity
  8
2503_7T
390
0
100
AcDbMText
 10
197.1754332083
 20
176.6354194076
 30
0.0
 40
1.5
 41
0.0
 71
         5
 72
         1
  1
\W1.135136;>2500.1T\PM50+x5\PT5 O6
  7
Arial
 73
         1
 44
0.66
  0
MTEXT
  5
15A
100
AcDbEntity
  8
2503___ UNTERZUG FÜR DREISTELLIGEN ANTRIEB
390
0
100
AcDbMText
 10
120.4776556202
 20
162.1442772348
 30
0.0
 40
2.0
 41
0.0
 71
         5
 72
         1
  1
\W1.135110;>2503.7P\PM50+x5\PT5 O2
  7
Arial
 73
         1
 44
0.66
  0
ARC
  5
15B
100
AcDbEntity
  8
2503_7T
390
0
  6
DASHDOT
100
AcDbCircle
 10
415.048698074
 20
162.1659597744
 30
0.0
 40
217.458152796
100
AcDbArc
 50
171.6710909115
 51
188.3289090885
  0
CIRCLE
  5
15C
100
AcDbEntity
  8
2503_7P
390
0
  6
PHANTOM
100
AcDbCircle
 10
129.8841140517
 20
130.6659597753
 30
0.0
 40
1.0
  0
CIRCLE
  5
15D
100
AcDbEntity
  8
2503_7P
390
0
  6
PHANTOM
100
AcDbCircle
 10
129.8841140517
 20
193.6659597734
 30
0.0
 40
0.5
  0
CIRCLE
  5
15E
100
AcDbEntity
  8
2501_2-4 ROLLEN
390
0
100
AcDbCircle
 10
154.8841140502
 20
162.1659597743
 30
0.0
 40
24.5
  0
CIRCLE
  5
15F
100
AcDbEntity
  8
2503_7T
390
0
  6
PHANTOM
100
AcDbCircle
 10
199.8841140517
 20
193.6659597734
 30
0.0
 40
0.5
  0
ARC
  5
160
100
AcDbEntity
  8
2503___ UNTERZUG FÜR DREISTELLIGEN ANTRIEB
390
0
100
AcDbCircle
 10
171.3684517482
 20
162.1659597743
 30
0.0
 40
52.0883890522
100
AcDbArc
 50
142.7897718356
 51
217.2102281644
  0
ARC
  5
161
100
AcDbEntity
  8
2503_7P
390
0
  6
DASHDOT
100
AcDbCircle
 10
345.048698074
 20
162.1659597744
 30
0.0
 40
217.458152796
100
AcDbArc
 50
171.6710909115
 51
188.3289090885
  0
CIRCLE
  5
162
100
AcDbEntity
  8
2503_7T
390
0
  6
PHANTOM
100
AcDbCircle
 10
199.8841140517
 20
130.6659597753
 30
0.0
 40
1.0
  0
ARC
  5
163
100
AcDbEntity
  8
2503___ UNTERZUG FÜR DREISTELLIGEN ANTRIEB
390
0
100
AcDbCircle
 10
241.3684517482
 20
162.1659597743
 30
0.0
 40
52.0883890522
100
AcDbArc
 50
142.7897718356
 51
217.2102281644
  0
TEXT
  5
164
100
AcDbEntity
  8
2503_7P
390
0
  6
DIVIDE
100
AcDbText
 10
125.634437151
 20
194.4396734408
 30
0.0
 40
1.5
  1
@2503.1P
 41
0.8648176536
  7
Arial
 72
         1
 11
130.1629368642
 21
195.1896734408
 31
0.0
100
AcDbText
 73
         2
  0
LINE
  5
165
100
AcDbEntity
  8
MITTELLINIEN
390
0
100
AcDbLine
 10
79.8841140517
 20
199.1659597734
 30
0.0
 11
79.8841140517
 21
124.6659597753
 31
0.0
  0
LINE
  5
166
100
AcDbEntity
  8
MITTELLINIEN
390
0
100
AcDbLine
 10
29.8841140517
 20
199.1659597734
 30
0.0
 11
29.8841140517
 21
124.6659597753
 31
0.0
  0
TEXT
  5
167
100
AcDbEntity
  8
2503_6T
390
0
  6
DIVIDE
100
AcDbText
 10
95.6343869372
 20
194.4396734408
 30
0.0
 40
1.5
  1
@2503.1T
 41
0.864827243
  7
Arial
 72
         1
 11
100.1629368642
 21
195.1896734408
 31
0.0
100
AcDbText
 73
         2
  0
MTEXT
  5
168
100
AcDbEntity
  8
2503___ UNTERZUG FÜR DREISTELLIGEN ANTRIEB
390
0
100
AcDbMText
 10
88.1909250611
 20
162.1442772348
 30
0.0
 40
2.0
 41
0.0
 71
         5
 72
         1
  1
\W1.135136;>2503.6T\PM50+x5\PT5 O6
  7
Arial
 73
         1
 44
0.66
  0
TEXT
  5
169
100
AcDbEntity
  8
2503_6P
390
0
  6
PHANTOM
100
AcDbText
 10
37.4132496132
 20
134.6032738525
 30
0.0
 40
2.0
  1
N1
 41
1.1350267802
  7
Arial
100
AcDbText
  0
MTEXT
  5
16A
100
AcDbEntity
  8
2503_6P
390
0
100
AcDbMText
 10
27.1754332083
 20
176.6354194076
 30
0.0
 40
1.5
 41
0.0
 71
         5
 72
         1
  1
\W1.135110;>2500.1P\PM50+x5\PT5 O2
  7
Arial
 73
         1
 44
0.66
  0
MTEXT
  5
16B
100
AcDbEntity
  8
2503_6T
390
0
100
AcDbMText
 10
97.1754332083
 20
176.6354194076
 30
0.0
 40
1.5
 41
0.0
 71
         5
 72
         1
  1
\W1.135136;>2500.1T\PM50+x5\PT5 O6
  7
Arial
 73
         1
 44
0.66
  0
MTEXT
  5
16C
100
AcDbEntity
  8
2503___ UNTERZUG FÜR DREISTELLIGEN ANTRIEB
390
0
100
AcDbMText
 10
20.4776556202
 20
162.1442772348
 30
0.0
 40
2.0
 41
0.0
 71
         5
 72
         1
  1
\W1.135110;>2503.6P\PM50+x5\PT5 O2
  7
Arial
 73
         1
 44
0.66
  0
LINE
  5
16D
100
AcDbEntity
  8
2503_6P
390
0
  6
DASHED
100
AcDbLine
 10
49.8159831916
 20
142.3023234104
 30
0.0
 11
29.8841140517
 21
130.6659597753
 31
0.0
  0
ARC
  5
16E
100
AcDbEntity
  8
2503_6T
390
0
  6
DASHDOT
100
AcDbCircle
 10
315.048698074
 20
162.1659597744
 30
0.0
 40
217.458152796
100
AcDbArc
 50
171.6710909115
 51
188.3289090885
  0
CIRCLE
  5
16F
100
AcDbEntity
  8
2503_6P
390
0
  6
PHANTOM
100
AcDbCircle
 10
29.8841140517
 20
130.6659597753
 30
0.0
 40
1.0
  0
CIRCLE
  5
170
100
AcDbEntity
  8
2503_6P
390
0
  6
PHANTOM
100
AcDbCircle
 10
29.8841140517
 20
193.6659597734
 30
0.0
 40
0.5
  0
CIRCLE
  5
171
100
AcDbEntity
  8
2501_2-4 ROLLEN
390
0
100
AcDbCircle
 10
54.8841140502
 20
162.1659597743
 30
0.0
 40
24.5
  0
CIRCLE
  5
172
100
AcDbEntity
  8
2503_6P
390
0
100
AcDbCircle
 10
54.8841140516
 20
140.1659597743
 30
0.0
 40
1.75
  0
CIRCLE
  5
173
100
AcDbEntity
  8
2503_6T
390
0
  6
PHANTOM
100
AcDbCircle
 10
99.8841140517
 20
193.6659597734
 30
0.0
 40
0.5
  0
ARC
  5
174
100
AcDbEntity
  8
2503___ UNTERZUG FÜR DREISTELLIGEN ANTRIEB
390
0
100
AcDbCircle
 10
71.3684517482
 20
162.1659597743
 30
0.0
 40
52.0883890522
100
AcDbArc
 50
142.7897718356
 51
217.2102281644
  0
ARC
  5
175
100
AcDbEntity
  8
2503_6P
390
0
  6
DASHDOT
100
AcDbCircle
 10
245.048698074
 20
162.1659597744
 30
0.0
 40
217.458152796
100
AcDbArc
 50
171.6710909115
 51
188.3289090885
  0
CIRCLE
  5
176
100
AcDbEntity
  8
2503_6T
390
0
  6
PHANTOM
100
AcDbCircle
 10
99.8841140517
 20
130.6659597753
 30
0.0
 40
1.0
  0
ARC
  5
177
100
AcDbEntity
  8
2503___ UNTERZUG FÜR DREISTELLIGEN ANTRIEB
390
0
100
AcDbCircle
 10
141.3684517482
 20
162.1659597743
 30
0.0
 40
52.0883890522
100
AcDbArc
 50
142.7897718356
 51
217.2102281644
  0
INSERT
  5
178
100
AcDbEntity
  8
BEMASSUNG
390
0
100
AcDbBlockReference
  2
D203977984
 10
0.0
 20
0.0
 30
0.0
  0
TEXT
  5
179
100
AcDbEntity
  8
2503_6P
390
0
  6
DIVIDE
100
AcDbText
 10
25.634437151
 20
194.4396734408
 30
0.0
 40
1.5
  1
@2503.1P
 41
0.8648176536
  7
Arial
 72
         1
 11
30.1629368642
 21
195.1896734408
 31
0.0
100
AcDbText
 73
         2
  0
CIRCLE
  5
17A
100
AcDbEntity
  8
2503_2P
390
0
100
AcDbCircle
 10
41.397382965
 20
28.3758811328
 30
0.0
 40
1.25
  0
LINE
  5
17B
100
AcDbEntity
  8
2503_2P
390
0
  6
BORDER
100
AcDbLine
 10
44.797382965
 20
112.3711625071
 30
0.0
 11
33.897382965
 21
112.3711625071
 31
0.0
  0
LINE
  5
17C
100
AcDbEntity
  8
2503_2P
390
0
  6
BORDER
100
AcDbLine
 10
44.797382965
 20
9.876847343
 30
0.0
 11
33.897382965
 21
9.876847343
 31
0.0
  0
LINE
  5
17D
100
AcDbEntity
  8
2503_2P
390
0
100
AcDbLine
 10
44.797382965
 20
24.8341889112
 30
0.0
 11
44.797382965
 21
9.876847343
 31
0.0
  0
LINE
  5
17E
100
AcDbEntity
  8
2503_2P
390
0
100
AcDbLine
 10
45.997382965
 20
24.8341889112
 30
0.0
 11
45.997382965
 21
9.876847343
 31
0.0
  0
ARC
  5
17F
100
AcDbEntity
  8
2503_2P
390
0
100
AcDbCircle
 10
45.397382965
 20
24.8341889112
 30
0.0
 40
0.6
100
AcDbArc
 50
0.0
 51
180.0
  0
LINE
  5
180
100
AcDbEntity
  8
2503_2P
390
0
100
AcDbLine
 10
44.797382965
 20
97.4138209388
 30
0.0
 11
44.797382965
 21
112.3711625071
 31
0.0
  0
LINE
  5
181
100
AcDbEntity
  8
2503_2P
390
0
100
AcDbLine
 10
45.997382965
 20
97.4138209388
 30
0.0
 11
45.997382965
 21
112.3711625071
 31
0.0
  0
ARC
  5
182
100
AcDbEntity
  8
2503_2P
390
0
100
AcDbCircle
 10
45.397382965
 20
97.4138209388
 30
0.0
 40
0.6
100
AcDbArc
 50
180.0
 51
360.0
  0
LINE
  5
183
100
AcDbEntity
  8
2503_2P
390
0
100
AcDbLine
 10
38.9155347239
 20
101.4102163713
 30
0.0
 11
38.9155347239
 21
90.5480283983
 31
0.0
  0
LINE
  5
184
100
AcDbEntity
  8
2503_2P
390
0
100
AcDbLine
 10
39.9155347239
 20
101.4102163713
 30
0.0
 11
39.9155347239
 21
90.5480283983
 31
0.0
  0
ARC
  5
185
100
AcDbEntity
  8
2503_2P
390
0
100
AcDbCircle
 10
39.4155347239
 20
86.4102163713
 30
0.0
 40
0.5
100
AcDbArc
 50
0.0
 51
180.0
  0
LINE
  5
186
100
AcDbEntity
  8
2503_2P
390
0
100
AcDbLine
 10
38.9155347239
 20
86.4102163713
 30
0.0
 11
38.9155347239
 21
75.5480283983
 31
0.0
  0
LINE
  5
187
100
AcDbEntity
  8
2503_2P
390
0
100
AcDbLine
 10
39.9155347239
 20
86.4102163713
 30
0.0
 11
39.9155347239
 21
75.5480283983
 31
0.0
  0
ARC
  5
188
100
AcDbEntity
  8
2503_2P
390
0
100
AcDbCircle
 10
39.4155347239
 20
101.4102163713
 30
0.0
 40
0.5
100
AcDbArc
 50
0.0
 51
180.0
  0
LINE
  5
189
100
AcDbEntity
  8
2503_2P
390
0
100
AcDbLine
 10
45.997382965
 20
112.3711625071
 30
0.0
 11
48.897382965
 21
112.3711625071
 31
0.0
  0
LINE
  5
18A
100
AcDbEntity
  8
2503_2P
390
0
100
AcDbLine
 10
45.997382965
 20
9.876847343
 30
0.0
 11
48.897382965
 21
9.876847343
 31
0.0
  0
LINE
  5
18B
100
AcDbEntity
  8
2503_2P
390
0
  6
DASHED
100
AcDbLine
 10
48.897382965
 20
112.3711625071
 30
0.0
 11
39.9155347239
 21
90.5480283983
 31
0.0
  0
ARC
  5
18C
100
AcDbEntity
  8
2503_2P
390
0
  6
DASHED
100
AcDbCircle
 10
40.4155347239
 20
88.4791223848
 30
0.0
 40
2.1284670758
100
AcDbArc
 50
256.4136325293
 51
463.5863674707
  0
ARC
  5
18D
100
AcDbEntity
  8
2503_2P
390
0
  6
DASHED
100
AcDbCircle
 10
-104.3549824968
 20
53.6903277954
 30
0.0
 40
147.934354521
100
AcDbArc
 50
350.1470868819
 51
372.7782573992
  0
ARC
  5
18E
100
AcDbEntity
  8
2503_2P
390
0
  6
DASHED
100
AcDbCircle
 10
52.5375486845
 20
22.1225338501
 30
0.0
 40
12.7752747327
100
AcDbArc
 50
150.6930466066
 51
253.4448364173
  0
CIRCLE
  5
18F
100
AcDbEntity
  8
2503_2P
390
0
  6
PHANTOM
100
AcDbCircle
 10
33.897382965
 20
112.3711625071
 30
0.0
 40
0.5
  0
CIRCLE
  5
190
100
AcDbEntity
  8
2503_2P
390
0
  6
PHANTOM
100
AcDbCircle
 10
33.897382965
 20
9.876847343
 30
0.0
 40
1.0
  0
LINE
  5
191
100
AcDbEntity
  8
2503_8P
390
0
  6
BORDER
100
AcDbLine
 10
109.3660540607
 20
60.5281839002
 30
0.0
 11
65.4865499231
 21
60.5281839002
 31
0.0
  0
LINE
  5
192
100
AcDbEntity
  8
2503_8P
390
0
  6
BORDER
100
AcDbLine
 10
64.1662245222
 20
53.9071159991
 30
0.0
 11
90.9581701979
 21
40.1633312614
 31
0.0
  0
ARC
  5
193
100
AcDbEntity
  8
2503_8P
390
0
100
AcDbCircle
 10
65.7672760435
 20
57.0281839002
 30
0.0
 40
3.5077672125
100
AcDbArc
 50
94.5106462643
 51
242.8429947848
  0
ARC
  5
194
100
AcDbEntity
  8
2503_8P
390
0
100
AcDbCircle
 10
109.3660540607
 20
57.0281839002
 30
0.0
 40
3.5
100
AcDbArc
 50
309.2827717848
 51
450.0
  0
LINE
  5
195
100
AcDbEntity
  8
2503_8P
390
0
100
AcDbLine
 10
94.771695083
 20
40.5683810252
 30
0.0
 11
111.5820726162
 21
54.3190767111
 31
0.0
  0
ARC
  5
196
100
AcDbEntity
  8
2503_8P
390
0
100
AcDbCircle
 10
92.5556765275
 20
43.2774882143
 30
0.0
 40
3.5
100
AcDbArc
 50
242.8429947848
 51
309.2827717848
  0
CIRCLE
  5
197
100
AcDbEntity
  8
2503_8P
390
0
  6
PHANTOM
100
AcDbCircle
 10
62.7046933938
 20
60.5248899141
 30
0.0
 40
0.5
  0
CIRCLE
  5
198
100
AcDbEntity
  8
2503_8P
390
0
  6
PHANTOM
100
AcDbCircle
 10
62.7046933938
 20
38.5248898593
 30
0.0
 40
1.0
  0
LINE
  5
199
100
AcDbEntity
  8
2503_8P
390
0
  6
DASHED
100
AcDbLine
 10
62.7046933938
 20
60.5248899141
 30
0.0
 11
65.7672760435
 21
57.0281839002
 31
0.0
  0
LINE
  5
19A
100
AcDbEntity
  8
2503_8P
390
0
  6
DASHED
100
AcDbLine
 10
65.7672760435
 20
57.0281839002
 30
0.0
 11
72.7672760435
 21
57.0281839002
 31
0.0
  0
LINE
  5
19B
100
AcDbEntity
  8
2503_8P
390
0
  6
DASHED
100
AcDbLine
 10
79.7672760435
 20
57.0281839002
 30
0.0
 11
86.7672760435
 21
57.0281839002
 31
0.0
  0
LINE
  5
19C
100
AcDbEntity
  8
2503_8P
390
0
  6
DASHED
100
AcDbLine
 10
109.3660540607
 20
57.0281839002
 30
0.0
 11
92.5556765275
 21
43.2774882143
 31
0.0
  0
LINE
  5
19D
100
AcDbEntity
  8
2503_8P
390
0
  6
DASHED
100
AcDbLine
 10
92.5556765275
 20
43.2774882143
 30
0.0
 11
65.4865499231
 21
60.5281839002
 31
0.0
  0
ARC
  5
19E
100
AcDbEntity
  8
2503_8P
390
0
  6
DASHED
100
AcDbCircle
 10
76.2672760435
 20
60.4817937925
 30
0.0
 40
4.9170541271
100
AcDbArc
 50
224.6177642995
 51
315.3822357005
  0
ARC
  5
19F
100
AcDbEntity
  8
2503_8P
390
0
  6
DASHED
100
AcDbCircle
 10
55.2818717618
 20
50.6417144105
 30
0.0
 40
14.2097050703
100
AcDbArc
 50
301.4918244739
 51
404.0700055024
  0
ARC
  5
1A0
100
AcDbEntity
  8
2503_8P
390
0
  6
DASHED
100
AcDbCircle
 10
98.0666650521
 20
94.3465158339
 30
0.0
 40
38.9914617613
100
AcDbArc
 50
253.154534111
 51
286.845465889
  0
MTEXT
  5
1A1
100
AcDbEntity
  8
2503_8P
390
0
  6
DIVIDE
100
AcDbMText
 10
62.2374731362
 20
60.4258168442
 30
0.0
 40
1.5
 41
0.0
 71
         5
 72
         1
  1
\W0.864827;M50+x2 T2 O2\PP4 U15     I1.4\PD1.5      B-0.3
  7
Arial
 73
         1
 44
0.66
  0
MTEXT
  5
1A2
100
AcDbEntity
  8
2503_2P
390
0
  6
DIVIDE
100
AcDbMText
 10
33.4301627074
 20
112.2720894371
 30
0.0
 40
1.5
 41
0.0
 71
         5
 72
         1
  1
\W0.864826;M15x2 T2 O2\PP4 U15     I1.4\PD1.5      B-0.3
  7
Arial
 73
         1
 44
0.66
  0
MTEXT
  5
1A3
100
AcDbEntity
  8
2503___ UNTERZUG FÜR DREISTELLIGEN ANTRIEB
390
0
100
AcDbMText
 10
27.8584153601
 20
66.4173764216
 30
0.0
 40
2.0
 41
0.0
 71
         5
 72
         1
  1
\W1.135110;>2503.2P\PM15x2\PT2 O2
  7
Arial
 73
         1
 44
0.66
  0
ARC
  5
1A4
100
AcDbEntity
  8
2503___ UNTERZUG FÜR DREISTELLIGEN ANTRIEB
390
0
100
AcDbCircle
 10
77.1912875458
 20
49.5248898867
 30
0.0
 40
18.1895962223
100
AcDbArc
 50
142.7897718356
 51
217.2102281644
  0
MTEXT
  5
1A5
100
AcDbEntity
  8
2503___ UNTERZUG FÜR DREISTELLIGEN ANTRIEB
390
0
100
AcDbMText
 10
58.7503629678
 20
47.6045852783
 30
0.0
 40
2.0
 41
0.0
 71
         5
 72
         1
  1
\W1.135110;>2503.8P\PM50+x2\PT2 O2
  7
Arial
 73
         1
 44
0.66
  0
ARC
  5
1A6
100
AcDbEntity
  8
2503___ UNTERZUG FÜR DREISTELLIGEN ANTRIEB
390
0
  6
DASHDOT
100
AcDbCircle
 10
226.6883678184
 20
61.124004925
 30
0.0
 40
199.4859268244
100
AcDbArc
 50
165.1140326288
 51
194.8859673712
  0
CIRCLE
  5
1A7
100
AcDbEntity
  8
2503_1P
390
0
100
AcDbCircle
 10
159.9522449106
 20
102.0295961384
 30
0.0
 40
1.25
  0
ARC
  5
1A8
100
AcDbEntity
  8
2503_1P
390
0
  6
DIVIDE
100
AcDbCircle
 10
151.8841140503
 20
82.1659597743
 30
0.0
 40
18.5
100
AcDbArc
 50
180.0
 51
360.0
  0
ARC
  5
1A9
100
AcDbEntity
  8
2503_1P
390
0
  6
DIVIDE
100
AcDbCircle
 10
154.8841140503
 20
82.1659597743
 30
0.0
 40
21.5
100
AcDbArc
 50
165.0
 51
180.0
  0
ARC
  5
1AA
100
AcDbEntity
  8
2503_1P
390
0
  6
DIVIDE
100
AcDbCircle
 10
157.8841140503
 20
82.1659597743
 30
0.0
 40
12.5
100
AcDbArc
 50
0.0
 51
180.0
  0
ARC
  5
1AB
100
AcDbEntity
  8
2503_1P
390
0
  6
DIVIDE
100
AcDbCircle
 10
154.8841140503
 20
82.1659597743
 30
0.0
 40
9.5
100
AcDbArc
 50
180.0
 51
195.0
  0
LINE
  5
1AC
100
AcDbEntity
  8
2503_1P
390
0
  6
DASHED
100
AcDbLine
 10
129.8841140516
 20
50.6659597753
 30
0.0
 11
154.8841140503
 21
82.1659597743
 31
0.0
  0
LINE
  5
1AD
100
AcDbEntity
  8
2503_1P
390
0
  6
DASHED
100
AcDbLine
 10
159.9522449106
 20
102.0295961384
 30
0.0
 11
154.8841140503
 21
104.1659597743
 31
0.0
  0
LINE
  5
1AE
100
AcDbEntity
  8
2503_1P
390
0
  6
DASHED
100
AcDbLine
 10
159.9522449106
 20
102.0295961384
 30
0.0
 11
154.8841140503
 21
82.1659597743
 31
0.0
  0
LINE
  5
1AF
100
AcDbEntity
  8
2503_1P
390
0
  6
DASHED
100
AcDbLine
 10
154.8841140503
 20
104.1659597743
 30
0.0
 11
134.1167087851
 21
87.730569244
 31
0.0
  0
LINE
  5
1B0
100
AcDbEntity
  8
2503_1P
390
0
  6
DASHED
100
AcDbLine
 10
145.7078187006
 20
79.7071788458
 30
0.0
 11
129.8841140516
 21
50.6659597753
 31
0.0
  0
ARC
  5
1B1
100
AcDbEntity
  8
2503_4P
390
0
  6
DIVIDE
100
AcDbCircle
 10
57.1860419795
 20
240.2418501204
 30
0.0
 40
18.5000289228
100
AcDbArc
 50
320.8319912925
 51
500.6322390386
  0
ARC
  5
1B2
100
AcDbEntity
  8
2503_4P
390
0
  6
DIVIDE
100
AcDbCircle
 10
52.6913139446
 20
244.2235569934
 30
0.0
 40
12.5016830311
100
AcDbArc
 50
141.6737195522
 51
319.835121668
  0
ARC
  5
1B3
100
AcDbEntity
  8
2503_4P
390
0
  6
DIVIDE
100
AcDbCircle
 10
54.8841140503
 20
242.1659597743
 30
0.0
 40
9.5001504606
100
AcDbArc
 50
320.7884657228
 51
335.7335539215
  0
ARC
  5
1B4
100
AcDbEntity
  8
2503_4P
390
0
  6
DIVIDE
100
AcDbCircle
 10
54.8841140501
 20
242.1659597745
 30
0.0
 40
21.5000016396
100
AcDbArc
 50
305.7335539211
 51
320.7310779232
  0
LINE
  5
1B5
100
AcDbEntity
  8
2503_4P
390
0
  6
DASHED
100
AcDbLine
 10
49.8159831904
 20
222.3023234106
 30
0.0
 11
54.8841140514
 21
220.1659597743
 31
0.0
  0
LINE
  5
1B6
100
AcDbEntity
  8
2503_4P
390
0
  6
DASHED
100
AcDbLine
 10
54.8841140514
 20
220.1659597743
 30
0.0
 11
54.8841140503
 21
242.1659597743
 31
0.0
  0
LINE
  5
1B7
100
AcDbEntity
  8
2503_4P
390
0
  6
DASHED
100
AcDbLine
 10
54.8841140503
 20
242.1659597743
 30
0.0
 11
63.5448702999
 21
238.2615827486
 31
0.0
  0
ARC
  5
1B8
100
AcDbEntity
  8
2503_4P
390
0
  6
DASHED
100
AcDbCircle
 10
54.8999306674
 20
201.0133140604
 30
0.0
 40
26.8135161859
100
AcDbArc
 50
62.1152326735
 51
158.9003081175
  0
ARC
  5
1B9
100
AcDbEntity
  8
2503_5P
390
0
  6
DIVIDE
100
AcDbCircle
 10
152.4316481462
 20
243.9059280523
 30
0.0
 40
12.5016830311
100
AcDbArc
 50
321.631986173
 51
499.7933882887
  0
ARC
  5
1BA
100
AcDbEntity
  8
2503_5P
390
0
  6
DIVIDE
100
AcDbCircle
 10
157.2274521302
 20
240.2925039316
 30
0.0
 40
18.5000289228
100
AcDbArc
 50
140.8348688023
 51
320.6351165486
  0
ARC
  5
1BB
100
AcDbEntity
  8
2503_5P
390
0
  6
DIVIDE
100
AcDbCircle
 10
154.8841140503
 20
242.1659597743
 30
0.0
 40
9.5001504606
100
AcDbArc
 50
305.7335539195
 51
320.6786421182
  0
ARC
  5
1BC
100
AcDbEntity
  8
2503_5P
390
0
  6
DIVIDE
100
AcDbCircle
 10
154.88411405
 20
242.1659597744
 30
0.0
 40
21.5000016396
100
AcDbArc
 50
320.7360299179
 51
335.7335539198
  0
LINE
  5
1BD
100
AcDbEntity
  8
2503_5P
390
0
  6
DASHED
100
AcDbLine
 10
129.8841140516
 20
210.6659597753
 30
0.0
 11
154.8841140503
 21
242.1659597743
 31
0.0
  0
LINE
  5
1BE
100
AcDbEntity
  8
2503_5P
390
0
  6
DASHED
100
AcDbLine
 10
154.8841140503
 20
242.1659597743
 30
0.0
 11
154.8841140499
 21
264.1659597738
 31
0.0
  0
LINE
  5
1BF
100
AcDbEntity
  8
2503_5P
390
0
  6
DASHED
100
AcDbLine
 10
154.8841140499
 20
264.1659597738
 30
0.0
 11
159.9522449106
 21
262.0295961384
 31
0.0
  0
LINE
  5
1C0
100
AcDbEntity
  8
2503_5P
390
0
  6
DASHED
100
AcDbLine
 10
159.9522449106
 20
262.0295961384
 30
0.0
 11
174.4844639956
 21
233.3298773559
 31
0.0
  0
LINE
  5
1C1
100
AcDbEntity
  8
2503_5P
390
0
  6
DASHED
100
AcDbLine
 10
160.4323604655
 20
234.4542919588
 30
0.0
 11
129.8841140516
 21
210.6659597753
 31
0.0
  0
LINE
  5
1C2
100
AcDbEntity
  8
2503_7P
390
0
  6
DASHED
100
AcDbLine
 10
155.3841140505
 20
162.1659597743
 30
0.0
 11
154.8841140497
 21
184.1659597738
 31
0.0
  0
LINE
  5
1C3
100
AcDbEntity
  8
2503_7P
390
0
  6
DASHED
100
AcDbLine
 10
154.8841140497
 20
184.1659597738
 30
0.0
 11
159.9522449105
 21
182.0295961384
 31
0.0
  0
ARC
  5
1C4
100
AcDbEntity
  8
2503_7P
390
0
  6
DIVIDE
100
AcDbCircle
 10
152.431648146
 20
163.9059280523
 30
0.0
 40
12.5016830311
100
AcDbArc
 50
321.631986173
 51
499.7933882887
  0
ARC
  5
1C5
100
AcDbEntity
  8
2503_7P
390
0
  6
DIVIDE
100
AcDbCircle
 10
154.8841140502
 20
162.1659597743
 30
0.0
 40
9.5001504606
100
AcDbArc
 50
305.7335539195
 51
320.6786421182
  0
ARC
  5
1C6
100
AcDbEntity
  8
2503_7P
390
0
  6
DIVIDE
100
AcDbCircle
 10
157.22745213
 20
160.2925039316
 30
0.0
 40
18.5000289228
100
AcDbArc
 50
140.8348688023
 51
320.6351165485
  0
ARC
  5
1C7
100
AcDbEntity
  8
2503_7P
390
0
  6
DIVIDE
100
AcDbCircle
 10
154.8841140499
 20
162.1659597744
 30
0.0
 40
21.5000016396
100
AcDbArc
 50
320.7360299178
 51
335.7335539198
  0
LINE
  5
1C8
100
AcDbEntity
  8
2503_7P
390
0
  6
DASHED
100
AcDbLine
 10
159.9522449105
 20
182.0295961384
 30
0.0
 11
174.4844639956
 21
153.3298773558
 31
0.0
  0
LINE
  5
1C9
100
AcDbEntity
  8
2503_7P
390
0
  6
DASHED
100
AcDbLine
 10
160.4323604652
 20
154.4542919591
 30
0.0
 11
129.8841140517
 21
130.6659597753
 31
0.0
  0
ARC
  5
1CA
100
AcDbEntity
  8
2503_6P
390
0
  6
DIVIDE
100
AcDbCircle
 10
57.1860419793
 20
160.2418501204
 30
0.0
 40
18.5000289228
100
AcDbArc
 50
320.8319912925
 51
500.6322390386
  0
ARC
  5
1CB
100
AcDbEntity
  8
2503_6P
390
0
  6
DIVIDE
100
AcDbCircle
 10
54.8841140499
 20
162.1659597745
 30
0.0
 40
21.5000016396
100
AcDbArc
 50
305.7335539211
 51
320.7310779232
  0
ARC
  5
1CC
100
AcDbEntity
  8
2503_6P
390
0
  6
DIVIDE
100
AcDbCircle
 10
52.6913139444
 20
164.2235569934
 30
0.0
 40
12.5016830311
100
AcDbArc
 50
141.6737195522
 51
319.835121668
  0
ARC
  5
1CD
100
AcDbEntity
  8
2503_6P
390
0
  6
DIVIDE
100
AcDbCircle
 10
54.8841140502
 20
162.1659597743
 30
0.0
 40
9.5001504606
100
AcDbArc
 50
320.7884657228
 51
335.7335539215
  0
LINE
  5
1CE
100
AcDbEntity
  8
2503_6P
390
0
  6
DASHED
100
AcDbLine
 10
49.8159831916
 20
142.3023234104
 30
0.0
 11
54.8841140502
 21
140.1659597743
 31
0.0
  0
LINE
  5
1CF
100
AcDbEntity
  8
2503_6P
390
0
  6
DASHED
100
AcDbLine
 10
54.8841140502
 20
140.1659597743
 30
0.0
 11
54.3841140502
 21
162.1659597743
 31
0.0
  0
LINE
  5
1D0
100
AcDbEntity
  8
2503_6P
390
0
  6
DASHED
100
AcDbLine
 10
55.3841140505
 20
162.1659597743
 30
0.0
 11
63.5448703
 21
158.2615827484
 31
0.0
  0
ARC
  5
1D1
100
AcDbEntity
  8
2503_6P
390
0
  6
DASHED
100
AcDbCircle
 10
55.8763595207
 20
118.4028157891
 30
0.0
 40
28.7398943099
100
AcDbArc
 50
66.2734838433
 51
154.7420569479
  0
ARC
  5
1D2
100
AcDbEntity
  8
2503_2P
390
0
100
AcDbCircle
 10
39.4155347239
 20
90.5480283983
 30
0.0
 40
0.5
100
AcDbArc
 50
180.0
 51
360.0
  0
ARC
  5
1D3
100
AcDbEntity
  8
2501_5 SCHIEBER
390
0
100
AcDbCircle
 10
39.4155347239
 20
90.5480283983
 30
0.0
 40
1.5
100
AcDbArc
 50
180.0
 51
360.0
  0
ARC
  5
1D4
100
AcDbEntity
  8
2501_5 SCHIEBER
390
0
100
AcDbCircle
 10
39.4155347239
 20
75.5480283983
 30
0.0
 40
1.5
100
AcDbArc
 50
180.0
 51
360.0
  0
ARC
  5
1D5
100
AcDbEntity
  8
2503_2P
390
0
100
AcDbCircle
 10
39.4155347239
 20
75.5480283983
 30
0.0
 40
0.5
100
AcDbArc
 50
180.0
 51
360.0
  0
CIRCLE
  5
1D6
100
AcDbEntity
  8
HILFSLINIEN
390
0
100
AcDbCircle
 10
65.57
 20
60.528
 30
0.0
 40
2.5
  0
LINE
  5
1D7
100
AcDbEntity
  8
STANDARD
390
0
100
AcDbLine
 10
10.0
 20
5.0
 30
0.0
 11
10.0
 21
292.0
 31
0.0
  0
LINE
  5
1D8
100
AcDbEntity
  8
STANDARD
390
0
100
AcDbLine
 10
15.0
 20
287.0
 30
0.0
 11
205.0
 21
287.0
 31
0.0
  0
LINE
  5
1D9
100
AcDbEntity
  8
STANDARD
390
0
100
AcDbLine
 10
10.0
 20
292.0
 30
0.0
 11
15.0
 21
292.0
 31
0.0
  0
LINE
  5
1DA
100
AcDbEntity
  8
STANDARD
390
0
100
AcDbLine
 10
10.0
 20
5.0
 30
0.0
 11
15.0
 21
5.0
 31
0.0
  0
LINE
  5
1DB
100
AcDbEntity
  8
STANDARD
390
0
100
AcDbLine
 10
10.0
 20
244.1666666667
 30
0.0
 11
15.0
 21
244.1666666667
 31
0.0
  0
LINE
  5
1DC
100
AcDbEntity
  8
STANDARD
390
0
100
AcDbLine
 10
10.0
 20
196.3333333333
 30
0.0
 11
15.0
 21
196.3333333333
 31
0.0
  0
LINE
  5
1DD
100
AcDbEntity
  8
STANDARD
390
0
100
AcDbLine
 10
10.0
 20
148.5
 30
0.0
 11
15.0
 21
148.5
 31
0.0
  0
LINE
  5
1DE
100
AcDbEntity
  8
STANDARD
390
0
100
AcDbLine
 10
10.0
 20
100.6666666667
 30
0.0
 11
15.0
 21
100.6666666667
 31
0.0
  0
LINE
  5
1DF
100
AcDbEntity
  8
STANDARD
390
0
100
AcDbLine
 10
10.0
 20
52.8333333333
 30
0.0
 11
15.0
 21
52.8333333333
 31
0.0
  0
LINE
  5
1E0
100
AcDbEntity
  8
STANDARD
390
0
100
AcDbLine
 10
157.5
 20
292.0
 30
0.0
 11
157.5
 21
287.0
 31
0.0
  0
LINE
  5
1E1
100
AcDbEntity
  8
STANDARD
390
0
100
AcDbLine
 10
110.0
 20
292.0
 30
0.0
 11
110.0
 21
287.0
 31
0.0
  0
LINE
  5
1E2
100
AcDbEntity
  8
STANDARD
390
0
100
AcDbLine
 10
62.5
 20
292.0
 30
0.0
 11
62.5
 21
287.0
 31
0.0
  0
TEXT
  5
1E3
100
AcDbEntity
  8
STANDARD
390
0
100
AcDbText
 10
10.9491078691
 20
267.8641561278
 30
0.0
 40
2.23125
  1
A
 41
1.547986837
  7
Arial
 72
         1
 11
12.6760806841
 21
270.0954061278
 31
0.0
100
AcDbText
 73
         3
  0
TEXT
  5
1E4
100
AcDbEntity
  8
STANDARD
390
0
100
AcDbText
 10
10.9491074243
 20
220.0308227945
 30
0.0
 40
2.23125
  1
B
 41
1.5479872357
  7
Arial
 72
         1
 11
12.6760806841
 21
222.2620727945
 31
0.0
100
AcDbText
 73
         3
  0
TEXT
  5
1E5
100
AcDbEntity
  8
STANDARD
390
0
100
AcDbText
 10
10.9489779593
 20
172.1974894612
 30
0.0
 40
2.23125
  1
C
 41
1.5481032827
  7
Arial
 72
         1
 11
12.6760806841
 21
174.4287394612
 31
0.0
100
AcDbText
 73
         3
  0
TEXT
  5
1E6
100
AcDbEntity
  8
STANDARD
390
0
100
AcDbText
 10
10.9489771034
 20
124.3641561278
 30
0.0
 40
2.23125
  1
D
 41
1.54810405
  7
Arial
 72
         1
 11
12.6760806841
 21
126.5954061278
 31
0.0
100
AcDbText
 73
         3
  0
TEXT
  5
1E7
100
AcDbEntity
  8
STANDARD
390
0
100
AcDbText
 10
10.9491076096
 20
76.5308227945
 30
0.0
 40
2.23125
  1
E
 41
1.5479870696
  7
Arial
 72
         1
 11
12.6760806841
 21
78.7620727945
 31
0.0
100
AcDbText
 73
         3
  0
TEXT
  5
1E8
100
AcDbEntity
  8
STANDARD
390
0
100
AcDbText
 10
10.9493506612
 20
28.6974894612
 30
0.0
 40
2.23125
  1
F
 41
1.5477692083
  7
Arial
 72
         1
 11
12.6760806841
 21
30.9287394612
 31
0.0
100
AcDbText
 73
         3
  0
TEXT
  5
1E9
100
AcDbEntity
  8
STANDARD
390
0
100
AcDbText
 10
36.7048241449
 20
288.48599354
 30
0.0
 40
2.23125
  1
1
 41
1.5479225906
  7
Arial
 72
         1
 11
38.0
 21
290.71724354
 31
0.0
100
AcDbText
 73
         3
  0
TEXT
  5
1EA
100
AcDbEntity
  8
STANDARD
390
0
100
AcDbText
 10
83.7730999712
 20
288.48599354
 30
0.0
 40
2.23125
  1
2
 41
1.5479215945
  7
Arial
 72
         1
 11
85.5
 21
290.71724354
 31
0.0
100
AcDbText
 73
         3
  0
TEXT
  5
1EB
100
AcDbEntity
  8
STANDARD
390
0
100
AcDbText
 10
131.2730986376
 20
288.48599354
 30
0.0
 40
2.23125
  1
3
 41
1.5479227899
  7
Arial
 72
         1
 11
133.0
 21
290.71724354
 31
0.0
100
AcDbText
 73
         3
  0
TEXT
  5
1EC
100
AcDbEntity
  8
STANDARD
390
0
100
AcDbText
 10
178.7730988598
 20
288.48599354
 30
0.0
 40
2.23125
  1
4
 41
1.5479225906
  7
Arial
 72
         1
 11
180.5
 21
290.71724354
 31
0.0
100
AcDbText
 73
         3
  0
LINE
  5
1ED
100
AcDbEntity
  8
STANDARD
390
0
100
AcDbLine
 10
205.0
 20
292.0
 30
0.0
 11
205.0
 21
287.0
 31
0.0
  0
LINE
  5
1EE
100
AcDbEntity
  8
STANDARD
390
0
100
AcDbLine
 10
205.0
 20
5.0
 30
0.0
 11
15.0
 21
5.0
 31
0.0
  0
LINE
  5
1EF
100
AcDbEntity
  8
STANDARD
390
0
100
AcDbLine
 10
15.0
 20
5.0
 30
0.0
 11
15.0
 21
287.0
 31
0.0
  0
LINE
  5
1F0
100
AcDbEntity
  8
STANDARD
390
0
100
AcDbLine
 10
15.0
 20
292.0
 30
0.0
 11
205.0
 21
292.0
 31
0.0
  0
LINE
  5
1F1
100
AcDbEntity
  8
STANDARD
390
0
100
AcDbLine
 10
1.0
 20
1.0
 30
0.0
 11
1.0
 21
296.0
 31
0.0
  0
LINE
  5
1F2
100
AcDbEntity
  8
STANDARD
390
0
100
AcDbLine
 10
209.0
 20
1.0
 30
0.0
 11
1.0
 21
1.0
 31
0.0
  0
LINE
  5
1F3
100
AcDbEntity
  8
STANDARD
390
0
100
AcDbLine
 10
209.0
 20
296.0
 30
0.0
 11
209.0
 21
1.0
 31
0.0
  0
LINE
  5
1F4
100
AcDbEntity
  8
STANDARD
390
0
100
AcDbLine
 10
1.0
 20
296.0
 30
0.0
 11
209.0
 21
296.0
 31
0.0
  0
LINE
  5
1F5
100
AcDbEntity
  8
STANDARD
390
0
100
AcDbLine
 10
15.0
 20
287.0
 30
0.0
 11
15.0
 21
292.0
 31
0.0
  0
LINE
  5
1F6
100
AcDbEntity
  8
STANDARD
390
0
100
AcDbLine
 10
205.0
 20
287.0
 30
0.0
 11
205.0
 21
5.0
 31
0.0
  0
MTEXT
  5
1F7
100
AcDbEntity
  8
STANDARD
390
0
100
AcDbMText
 10
203.6063292805
 20
81.4222772661
 30
0.0
 40
1.59375
 41
0.0
 71
         1
 72
         1
  1

  7
Arial
 11
0.0
 21
-1.0
 31
0.0
 73
         1
 44
1.0352941176
  0
MTEXT
  5
1F8
100
AcDbEntity
  8
STANDARD
390
0
100
AcDbMText
 10
116.6968769253
 20
27.5871143065
 30
0.0
 40
1.59375
 41
0.0
 71
         1
 72
         1
  1

  7
Arial
 11
0.0
 21
-1.0
 31
0.0
 73
         1
 44
1.0352941176
  0
MTEXT
  5
1F9
100
AcDbEntity
  8
STANDARD
390
0
100
AcDbMText
 10
203.6063292805
 20
125.7560948498
 30
0.0
 40
1.59375
 41
0.0
 71
         1
 72
         1
  1

  7
Arial
 11
0.0
 21
-1.0
 31
0.0
 73
         1
 44
1.0352941176
  0
LINE
  5
1FA
100
AcDbEntity
  8
STANDARD
390
0
100
AcDbLine
 10
205.0
 20
182.1150997151
 30
0.0
 11
205.0
 21
5.1236467236
 31
0.0
  0
LINE
  5
1FB
100
AcDbEntity
  8
STANDARD
370
         0
390
0
100
AcDbLine
 10
127.305982906
 20
34.4
 30
0.0
 11
127.305982906
 21
5.0
 31
0.0
  0
LINE
  5
1FC
100
AcDbEntity
  8
STANDARD
370
         0
390
0
100
AcDbLine
 10
81.105982906
 20
34.4
 30
0.0
 11
205.0
 21
34.4
 31
0.0
  0
LINE
  5
1FD
100
AcDbEntity
  8
STANDARD
370
         0
390
0
100
AcDbLine
 10
81.105982906
 20
27.4
 30
0.0
 11
205.0
 21
27.4
 31
0.0
  0
LINE
  5
1FE
100
AcDbEntity
  8
STANDARD
370
         0
390
0
100
AcDbLine
 10
81.105982906
 20
12.0
 30
0.0
 11
205.0
 21
12.0
 31
0.0
  0
LINE
  5
1FF
100
AcDbEntity
  8
STANDARD
370
         0
390
0
100
AcDbLine
 10
81.105982906
 20
34.4
 30
0.0
 11
81.105982906
 21
5.0
 31
0.0
  0
LINE
  5
200
100
AcDbEntity
  8
STANDARD
370
         0
390
0
100
AcDbLine
 10
165.105982906
 20
34.4
 30
0.0
 11
165.105982906
 21
27.4
 31
0.0
  0
TEXT
  5
201
100
AcDbEntity
  8
BESCHRIFTUNG
390
0
100
AcDbText
 10
82.2010860399
 20
29.1386
 30
0.0
 40
3.3
  1
Stellwerk HMM
 41
1.3758039542
 51
15.0
  7
Arial
 11
82.2010860399
 21
32.4386
 31
0.0
100
AcDbText
 73
         3
  0
TEXT
  5
202
100
AcDbEntity
  8
BESCHRIFTUNG
390
0
100
AcDbText
 10
128.6210415954
 20
21.6601111111
 30
0.0
 40
3.3
  1
Unterzug für dreistelligen Abtrieb
 41
1.1302002971
 51
15.0
  7
Arial
 11
128.6210415954
 21
24.9601111111
 31
0.0
100
AcDbText
 73
         3
  0
TEXT
  5
203
100
AcDbEntity
  8
BESCHRIFTUNG
390
0
100
AcDbText
 10
82.2010860399
 20
6.9230888889
 30
0.0
 40
3.3
  1
Dateiname
 41
1.1437088374
 51
15.0
  7
Arial
 11
82.2010860399
 21
10.2230888889
 31
0.0
100
AcDbText
 73
         3
  0
TEXT
  5
204
100
AcDbEntity
  8
BESCHRIFTUNG
390
0
100
AcDbText
 10
82.4210415954
 20
21.6601111111
 30
0.0
 40
3.3
  1
Bl. 2503 Pv
 41
1.1437154629
 51
15.0
  7
Arial
 11
82.4210415954
 21
24.9601111111
 31
0.0
100
AcDbText
 73
         3
  0
TEXT
  5
205
100
AcDbEntity
  8
BESCHRIFTUNG
390
0
100
AcDbText
 10
166.2010860399
 20
29.1386
 30
0.0
 40
3.3
  1
Maßstab 1:1
 41
1.1437192123
 51
15.0
  7
Arial
 11
166.2010860399
 21
32.4386
 31
0.0
100
AcDbText
 73
         3
  0
ENDSEC
  0
SECTION
  2
OBJECTS
  0
DICTIONARY
  5
19
100
AcDbDictionary
280
         0
281
         1
  3
ACAD_GROUP
350
1A
  3
ACAD_MLINESTYLE
350
1B
  3
ACAD_LAYOUT
350
1E
  3
ACAD_PLOTSETTINGS
350
22
  3
ACAD_PLOTSTYLENAME
350
1F
  3
ACAD_WIPEOUT_VARS
350
23
  0
DICTIONARY
  5
1A
102
{ACAD_REACTORS
330
19
102
}
100
AcDbDictionary
280
         0
281
         1
  0
DICTIONARY
  5
1B
102
{ACAD_REACTORS
330
19
102
}
100
AcDbDictionary
280
         0
281
         1
  3
Standard
350
1C
  0
MLINESTYLE
  5
1C
102
{ACAD_REACTORS
330
1B
102
}
100
AcDbMlineStyle
  2
Standard
 70
         0
  3

 62
         0
 51
90.0
 52
90.0
 71
         2
 49
0.5
 62
       256
  6
ByLayer
 49
-0.5
 62
       256
  6
ByLayer
  0
ACDBDICTIONARYWDFLT
  5
1F
102
{ACAD_REACTORS
330
19
102
}
100
AcDbDictionary
281
         1
  3
Normal
350
1D
100
AcDbDictionaryWithDefault
340
1D
  0
ACDBPLACEHOLDER
  5
1D
102
{ACAD_REACTORS
330
1F
102
}
  0
LAYOUT
  5
20
102
{ACAD_REACTORS
330
1E
102
}
100
AcDbPlotSettings
  1

  2

  4

  6

 40
0.0
 41
0.0
 42
0.0
 43
0.0
 44
0.0
 45
0.0
 46
0.0
 47
0.0
 48
0.0
 49
0.0
140
0.0
141
0.0
142
1.0
143
1.0
 70
      1024
 72
         0
 73
         0
 74
         0
  7

 75
         0
147
1.0
148
0.0
149
0.0
100
AcDbLayout
  1
Model
 70
         0
 71
         0
 10
0.0
 20
0.0
 11
0.0
 21
0.0
 12
0.0
 22
0.0
 32
0.0
 14
0.0
 24
0.0
 34
0.0
 15
0.0
 25
0.0
 35
0.0
146
0.0
 13
0.0
 23
0.0
 33
0.0
 16
0.0
 26
0.0
 36
0.0
 17
0.0
 27
0.0
 37
0.0
 76
         0
330
A
331
0
345
0
346
0
  0
LAYOUT
  5
21
102
{ACAD_REACTORS
330
1E
102
}
100
AcDbPlotSettings
  1

  2

  4

  6

 40
0.0
 41
0.0
 42
0.0
 43
0.0
 44
0.0
 45
0.0
 46
0.0
 47
0.0
 48
0.0
 49
0.0
140
0.0
141
0.0
142
1.0
143
1.0
 70
         0
 72
         0
 73
         0
 74
         0
  7

 75
         0
147
1.0
148
0.0
149
0.0
100
AcDbLayout
  1
Layout1
 70
         0
 71
         0
 10
0.0
 20
0.0
 11
0.0
 21
0.0
 12
0.0
 22
0.0
 32
0.0
 14
0.0
 24
0.0
 34
0.0
 15
0.0
 25
0.0
 35
0.0
146
0.0
 13
0.0
 23
0.0
 33
0.0
 16
0.0
 26
0.0
 36
0.0
 17
0.0
 27
0.0
 37
0.0
 76
         0
330
B
331
0
345
0
346
0
  0
DICTIONARY
  5
1E
102
{ACAD_REACTORS
330
19
102
}
100
AcDbDictionary
280
         0
281
         1
  3
Layout1
350
21
  3
Model
350
20
  0
DICTIONARY
  5
22
102
{ACAD_REACTORS
330
19
102
}
100
AcDbDictionary
280
         0
281
         1
  0
WIPEOUTVARIABLES
  5
23
100
AcDbWipeoutVariables
 70
         1
  0
ENDSEC
  0
EOF
