  0
SECTION
  2
HEADER
  9
$ACADVER
  1
AC1015
  9
$ACADMAINTVER
 70
         6
  9
$DWGCODEPAGE
  3
ANSI_1252
  9
$INSBASE
 10
0.0
 20
0.0
 30
0.0
  9
$EXTMIN
 10
-78.9655303955
 20
0.0
 30
0.0
  9
$EXTMAX
 10
210.0
 20
297.0
 30
0.0
  9
$LIMMIN
 10
-78.9655303955
 20
0.0
  9
$LIMMAX
 10
210.0
 20
297.0
  9
$ORTHOMODE
 70
         0
  9
$REGENMODE
 70
         1
  9
$FILLMODE
 70
         1
  9
$QTEXTMODE
 70
         0
  9
$MIRRTEXT
 70
         1
  9
$LTSCALE
 40
7.2241382599
  9
$ATTMODE
 70
         1
  9
$TEXTSIZE
 40
0.2
  9
$TRACEWID
 40
0.05
  9
$TEXTSTYLE
  7
Standard
  9
$CLAYER
  8
0
  9
$CELTYPE
  6
CONTINUOUS
  9
$CECOLOR
 62
       256
  9
$CELTSCALE
 40
1.0
  9
$DISPSILH
 70
         0
  9
$DIMSCALE
 40
1.0
  9
$DIMASZ
 40
0.18
  9
$DIMEXO
 40
0.0625
  9
$DIMDLI
 40
0.38
  9
$DIMRND
 40
0.0
  9
$DIMDLE
 40
0.0
  9
$DIMEXE
 40
0.18
  9
$DIMTP
 40
0.0
  9
$DIMTM
 40
0.0
  9
$DIMTXT
 40
3.0
  9
$DIMCEN
 40
0.09
  9
$DIMTSZ
 40
0.0
  9
$DIMTOL
 70
         0
  9
$DIMLIM
 70
         0
  9
$DIMTIH
 70
         1
  9
$DIMTOH
 70
         1
  9
$DIMSE1
 70
         0
  9
$DIMSE2
 70
         0
  9
$DIMTAD
 70
         1
  9
$DIMZIN
 70
         0
  9
$DIMBLK
  1

  9
$DIMASO
 70
         1
  9
$DIMSHO
 70
         1
  9
$DIMPOST
  1
<>
  9
$DIMAPOST
  1

  9
$DIMALT
 70
         0
  9
$DIMALTD
 70
         2
  9
$DIMALTF
 40
25.4
  9
$DIMLFAC
 40
1.0
  9
$DIMTOFL
 70
         0
  9
$DIMTVP
 40
0.0
  9
$DIMTIX
 70
         0
  9
$DIMSOXD
 70
         0
  9
$DIMSAH
 70
         0
  9
$DIMBLK1
  1

  9
$DIMBLK2
  1

  9
$DIMSTYLE
  2
Standard
  9
$DIMCLRD
 70
         0
  9
$DIMCLRE
 70
         0
  9
$DIMCLRT
 70
         0
  9
$DIMTFAC
 40
1.0
  9
$DIMGAP
 40
0.09
  9
$DIMJUST
 70
         0
  9
$DIMSD1
 70
         0
  9
$DIMSD2
 70
         0
  9
$DIMTOLJ
 70
         1
  9
$DIMTZIN
 70
         0
  9
$DIMALTZ
 70
         0
  9
$DIMALTTZ
 70
         0
  9
$DIMUPT
 70
         0
  9
$DIMDEC
 70
         4
  9
$DIMTDEC
 70
         4
  9
$DIMALTU
 70
         2
  9
$DIMALTTD
 70
         2
  9
$DIMTXSTY
  7
Standard
  9
$DIMAUNIT
 70
         0
  9
$DIMADEC
 70
         0
  9
$DIMALTRND
 40
0.0
  9
$DIMAZIN
 70
         0
  9
$DIMDSEP
 70
         0
  9
$DIMATFIT
 70
         3
  9
$DIMFRAC
 70
         0
  9
$DIMLDRBLK
  1

  9
$DIMLUNIT
 70
         2
  9
$DIMLWD
 70
         0
  9
$DIMLWE
 70
         0
  9
$DIMTMOVE
 70
         0
  9
$LUNITS
 70
         2
  9
$LUPREC
 70
         4
  9
$SKETCHINC
 40
0.1
  9
$FILLETRAD
 40
0.0
  9
$AUNITS
 70
         0
  9
$AUPREC
 70
         0
  9
$MENU
  1
acad
  9
$ELEVATION
 40
0.0
  9
$PELEVATION
 40
0.0
  9
$THICKNESS
 40
0.0
  9
$LIMCHECK
 70
         0
  9
$CHAMFERA
 40
0.0
  9
$CHAMFERB
 40
0.0
  9
$CHAMFERC
 40
0.0
  9
$CHAMFERD
 40
0.0
  9
$SKPOLY
 70
         0
  9
$TDCREATE
 40
0.000000000
  9
$TDUCREATE
 40
0.000000000
  9
$TDUPDATE
 40
0.000000000
  9
$TDUUPDATE
 40
0.000000000
  9
$TDINDWG
 40
0.0000000000
  9
$TDUSRTIMER
 40
0.0000000000
  9
$USRTIMER
 70
         1
  9
$ANGBASE
 50
0.0
  9
$ANGDIR
 70
         0
  9
$PDMODE
 70
         0
  9
$PDSIZE
 40
0.0
  9
$PLINEWID
 40
0.0
  9
$SPLFRAME
 70
         0
  9
$SPLINETYPE
 70
         6
  9
$SPLINESEGS
 70
         8
  9
$HANDSEED
  5
33F
  9
$SURFTAB1
 70
         6
  9
$SURFTAB2
 70
         6
  9
$SURFTYPE
 70
         6
  9
$SURFU
 70
         6
  9
$SURFV
 70
         6
  9
$UCSBASE
  2

  9
$UCSNAME
  2

  9
$UCSORG
 10
0.0
 20
0.0
 30
0.0
  9
$UCSXDIR
 10
1.0
 20
0.0
 30
0.0
  9
$UCSYDIR
 10
0.0
 20
1.0
 30
0.0
  9
$UCSORTHOREF
  2

  9
$UCSORTHOVIEW
 70
         0
  9
$UCSORGTOP
 10
0.0
 20
0.0
 30
0.0
  9
$UCSORGBOTTOM
 10
0.0
 20
0.0
 30
0.0
  9
$UCSORGLEFT
 10
0.0
 20
0.0
 30
0.0
  9
$UCSORGRIGHT
 10
0.0
 20
0.0
 30
0.0
  9
$UCSORGFRONT
 10
0.0
 20
0.0
 30
0.0
  9
$UCSORGBACK
 10
0.0
 20
0.0
 30
0.0
  9
$PUCSBASE
  2

  9
$PUCSNAME
  2

  9
$PUCSORG
 10
0.0
 20
0.0
 30
0.0
  9
$PUCSXDIR
 10
1.0
 20
0.0
 30
0.0
  9
$PUCSYDIR
 10
0.0
 20
1.0
 30
0.0
  9
$PUCSORTHOREF
  2

  9
$PUCSORTHOVIEW
 70
         0
  9
$PUCSORGTOP
 10
0.0
 20
0.0
 30
0.0
  9
$PUCSORGBOTTOM
 10
0.0
 20
0.0
 30
0.0
  9
$PUCSORGLEFT
 10
0.0
 20
0.0
 30
0.0
  9
$PUCSORGRIGHT
 10
0.0
 20
0.0
 30
0.0
  9
$PUCSORGFRONT
 10
0.0
 20
0.0
 30
0.0
  9
$PUCSORGBACK
 10
0.0
 20
0.0
 30
0.0
  9
$USERI1
 70
         0
  9
$USERI2
 70
         0
  9
$USERI3
 70
         0
  9
$USERI4
 70
         0
  9
$USERI5
 70
         0
  9
$USERR1
 40
0.0
  9
$USERR2
 40
0.0
  9
$USERR3
 40
0.0
  9
$USERR4
 40
0.0
  9
$USERR5
 40
0.0
  9
$WORLDVIEW
 70
         1
  9
$SHADEDGE
 70
         3
  9
$SHADEDIF
 70
        70
  9
$TILEMODE
 70
         1
  9
$MAXACTVP
 70
        16
  9
$PINSBASE
 10
0.0
 20
0.0
 30
0.0
  9
$PLIMCHECK
 70
         0
  9
$PEXTMIN
 10
1.0000000000E+20
 20
1.0000000000E+20
 30
1.0000000000E+20
  9
$PEXTMAX
 10
-1.0000000000E+20
 20
-1.0000000000E+20
 30
-1.0000000000E+20
  9
$PLIMMIN
 10
0.0
 20
0.0
  9
$PLIMMAX
 10
12.0
 20
9.0
  9
$UNITMODE
 70
         0
  9
$VISRETAIN
 70
         0
  9
$PLINEGEN
 70
         1
  9
$PSLTSCALE
 70
         0
  9
$TREEDEPTH
 70
      3020
  9
$CMLSTYLE
  2
Standard
  9
$CMLJUST
 70
         0
  9
$CMLSCALE
 40
1.0
  9
$PROXYGRAPHICS
 70
         0
  9
$MEASUREMENT
 70
         1
  9
$CELWEIGHT
370
         0
  9
$ENDCAPS
280
         0
  9
$JOINSTYLE
280
         0
  9
$LWDISPLAY
290
         0
  9
$INSUNITS
 70
         0
  9
$HYPERLINKBASE
  1

  9
$STYLESHEET
  1

  9
$XEDIT
290
         1
  9
$CEPSNTYPE
380
         0
  9
$PSTYLEMODE
290
         1
  9
$FINGERPRINTGUID
  2

  9
$VERSIONGUID
  2

  9
$EXTNAMES
290
         1
  9
$PSVPSCALE
 40
0.0
  0
ENDSEC
  0
SECTION
  2
CLASSES
  0
CLASS
  1
LWPOLYLINE
  2
AcDbPolyline
  3
AutoCAD 2000
 90
        0
280
         0
281
         1
  0
CLASS
  1
IMAGE
  2
AcDbRasterImage
  3
ISM
 90
      127
280
         0
281
         1
  0
CLASS
  1
OLE2FRAME
  2
AcDbOle2Frame
  3
AutoCAD 2000
 90
        0
280
         0
281
         1
  0
CLASS
  1
HATCH
  2
AcDbHatch
  3
AutoCAD 2000
 90
        0
280
         0
281
         1
  0
CLASS
  1
DICTIONARYVAR
  2
AcDbDictionaryVar
  3
AutoCAD 2000
 90
        0
280
         0
281
         0
  0
CLASS
  1
RASTERVARIABLES
  2
AcDbRasterVariables
  3
ISM
 90
        0
280
         0
281
         0
  0
CLASS
  1
IMAGEDEF
  2
AcDbRasterImageDef
  3
ISM
 90
        0
280
         0
281
         0
  0
CLASS
  1
IMAGEDEF_REACTOR
  2
AcDbRasterImageDefReactor
  3
ISM
 90
        1
280
         0
281
         0
  0
CLASS
  1
IDBUFFER
  2
AcDbIdBuffer
  3
AutoCAD 2000
 90
        0
280
         0
281
         0
  0
CLASS
  1
SPATIAL_FILTER
  2
AcDbSpatialFilter
  3
AutoCAD 2000
 90
        0
280
         0
281
         0
  0
CLASS
  1
XRECORD
  2
AcDbXrecord
  3
AutoCAD 2000
 90
        0
280
         0
281
         0
  0
CLASS
  1
SORTENTSTABLE
  2
AcDbSortentsTable
  3
AutoCAD 2000
 90
        0
280
         0
281
         0
  0
CLASS
  1
LAYER_INDEX
  2
AcDbLayerIndex
  3
AutoCAD 2000
 90
        0
280
         0
281
         0
  0
CLASS
  1
SPATIAL_INDEX
  2
AcDbSpatialIndex
  3
AutoCAD 2000
 90
        0
280
         0
281
         0
  0
CLASS
  1
OBJECT_PTR
  2
CAseDLPNTableRecord
  3
"ASE-LPNTableRecord"
 90
        1
280
         0
281
         0
  0
CLASS
  1
LAYOUT
  2
AcDbLayout
  3
AutoCAD 2000
 90
        0
280
         0
281
         0
  0
CLASS
  1
PLOTSETTINGS
  2
AcDbPlotSettings
  3
AutoCAD 2000
 90
        0
280
         0
281
         0
  0
CLASS
  1
ACDBDICTIONARYWDFLT
  2
AcDbDictionaryWithDefault
  3
AutoCAD 2000
 90
        0
280
         0
281
         0
  0
CLASS
  1
ACDBPLACEHOLDER
  2
AcDbPlaceHolder
  3
AutoCAD 2000
 90
        0
280
         0
281
         0
  0
CLASS
  1
VBA_PROJECT
  2
AcDbVbaProject
  3
acadvba
 90
        0
280
         0
281
         0
  0
CLASS
  1
WIPEOUT
  2
AcDbWipeout
  3
WipeOut|AutoCAD Express Tool|expresstools@autodesk.com
 90
      127
280
         0
281
         1
  0
CLASS
  1
WIPEOUTVARIABLES
  2
AcDbWipeoutVariables
  3
WipeOut|AutoCAD Express Tool|expresstools@autodesk.com
 90
        0
280
         0
281
         0
  0
CLASS
  1
RTEXT
  2
RText
  3
RText|AutoCAD Express Tool|expresstools@autodesk.com
 90
        0
280
         0
281
         1
  0
CLASS
  1
ARCALIGNEDTEXT
  2
AcDbArcAlignedText
  3
ATEXT|AutoCAD Express Tool|expresstools@autodesk.com
 90
        0
280
         0
281
         1
  0
ENDSEC
  0
SECTION
  2
TABLES
  0
TABLE
  2
VPORT
  5
7
100
AcDbSymbolTable
 70
         1
  0
VPORT
  5
15
100
AcDbSymbolTableRecord
100
AcDbViewportTableRecord
  2
*ACTIVE
 70
         0
 10
0.0
 20
0.0
 11
1.0
 21
1.0
 12
105.0
 22
148.5
 13
0.0
 23
0.0
 14
1.0
 24
1.0
 15
0.0
 25
0.0
 16
0.0
 26
0.0
 36
1.0
 17
0.0
 27
0.0
 37
0.0
 40
231.2943892345
 41
1.0
 42
50.0
 43
0.0
 44
0.0
 50
0.0
 51
0.0
 71
         0
 72
       100
 73
         1
 74
         1
 75
         0
 76
         0
 77
         0
 78
         0
281
         0
 65
         0
110
0.0
120
0.0
130
0.0
111
1.0
121
0.0
131
0.0
112
0.0
122
1.0
132
0.0
345
0
346
0
 79
         0
146
0.0
  0
ENDTAB
  0
TABLE
  2
LTYPE
  5
4
100
AcDbSymbolTable
 70
        12
  0
LTYPE
  5
11
100
AcDbSymbolTableRecord
100
AcDbLinetypeTableRecord
  2
ByBlock
 70
        64
  3

 72
        65
 73
         0
 40
0.0
  0
LTYPE
  5
12
100
AcDbSymbolTableRecord
100
AcDbLinetypeTableRecord
  2
ByLayer
 70
        64
  3

 72
        65
 73
         0
 40
0.0
  0
LTYPE
  5
13
100
AcDbSymbolTableRecord
100
AcDbLinetypeTableRecord
  2
CONTINUOUS
 70
        64
  3
Solid Line
 72
        65
 73
         0
 40
0.0
  0
LTYPE
  5
24
100
AcDbSymbolTableRecord
100
AcDbLinetypeTableRecord
  2
DOT
 70
        64
  3
. . . . . . . . . . . . . . . . . . . . . . 
 72
        65
 73
         2
 40
0.25
 49
0.0
 74
         0
 49
-0.25
 74
         0
  0
LTYPE
  5
25
100
AcDbSymbolTableRecord
100
AcDbLinetypeTableRecord
  2
HIDDEN
 70
         0
  3
_ _ _ _ _ _ _ _ _ _ _ _ _ _ _ _ _ _ _ _ _ _ _
 72
        65
 73
         2
 40
0.375
 49
0.25
 74
         0
 49
-0.125
 74
         0
  0
LTYPE
  5
26
100
AcDbSymbolTableRecord
100
AcDbLinetypeTableRecord
  2
DASHDOT
 70
         0
  3
__ . __ . __ . __ . __ . __ . __ . __ . __ . __
 72
        65
 73
         4
 40
1.0
 49
0.5
 74
         0
 49
-0.25
 74
         0
 49
0.0
 74
         0
 49
-0.25
 74
         0
  0
LTYPE
  5
27
100
AcDbSymbolTableRecord
100
AcDbLinetypeTableRecord
  2
DIVIDE
 70
         0
  3
__ . . __ . . __ . . __ . . __ . . __ . . __
 72
        65
 73
         6
 40
1.25
 49
0.5
 74
         0
 49
-0.25
 74
         0
 49
0.0
 74
         0
 49
-0.25
 74
         0
 49
0.0
 74
         0
 49
-0.25
 74
         0
  0
LTYPE
  5
28
100
AcDbSymbolTableRecord
100
AcDbLinetypeTableRecord
  2
DASHED
 70
         0
  3
__ __ __ __ __ __ __ __ __ __ __ __ __ __ __
 72
        65
 73
         2
 40
0.75
 49
0.5
 74
         0
 49
-0.25
 74
         0
  0
LTYPE
  5
29
100
AcDbSymbolTableRecord
100
AcDbLinetypeTableRecord
  2
BORDER
 70
         0
  3
__ __ . __ __ . __ __ . __ __ . __ __ .
 72
        65
 73
         6
 40
1.75
 49
0.5
 74
         0
 49
-0.25
 74
         0
 49
0.5
 74
         0
 49
-0.25
 74
         0
 49
0.0
 74
         0
 49
-0.25
 74
         0
  0
LTYPE
  5
2A
100
AcDbSymbolTableRecord
100
AcDbLinetypeTableRecord
  2
CENTER
 70
         0
  3
____ _ ____ _ ____ _ ____ _ ____ _ ____
 72
        65
 73
         4
 40
2.0
 49
1.25
 74
         0
 49
-0.25
 74
         0
 49
0.25
 74
         0
 49
-0.25
 74
         0
  0
LTYPE
  5
2B
100
AcDbSymbolTableRecord
100
AcDbLinetypeTableRecord
  2
DOT2
 70
         0
  3
........................................
 72
        65
 73
         2
 40
0.125
 49
0.0
 74
         0
 49
-0.125
 74
         0
  0
LTYPE
  5
2C
100
AcDbSymbolTableRecord
100
AcDbLinetypeTableRecord
  2
PHANTOM
 70
         0
  3
______  __  __  ______  __  __  ______
 72
        65
 73
         6
 40
2.5
 49
1.25
 74
         0
 49
-0.25
 74
         0
 49
0.25
 74
         0
 49
-0.25
 74
         0
 49
0.25
 74
         0
 49
-0.25
 74
         0
  0
ENDTAB
  0
TABLE
  2
LAYER
  5
2
100
AcDbSymbolTable
 70
       162
  0
LAYER
  5
14
100
AcDbSymbolTableRecord
100
AcDbLayerTableRecord
  2
0
 70
         0
 62
         7
  6
CONTINUOUS
290
         1
370
        -3
390
1D
  0
LAYER
  5
33
100
AcDbSymbolTableRecord
100
AcDbLayerTableRecord
  2
BESCHRIFTUNG
 70
        64
 62
         7
  6
CONTINUOUS
290
         1
370
        25
390
1D
  0
LAYER
  5
34
100
AcDbSymbolTableRecord
100
AcDbLayerTableRecord
  2
SCHRAFFUR
 70
        64
 62
         7
  6
CONTINUOUS
290
         1
370
        25
390
1D
  0
LAYER
  5
35
100
AcDbSymbolTableRecord
100
AcDbLayerTableRecord
  2
MASSTEXTE
 70
        64
 62
       212
  6
CONTINUOUS
290
         1
370
        25
390
1D
  0
LAYER
  5
36
100
AcDbSymbolTableRecord
100
AcDbLayerTableRecord
  2
MASSLINIEN
 70
        64
 62
       172
  6
CONTINUOUS
290
         1
370
        25
390
1D
  0
LAYER
  5
37
100
AcDbSymbolTableRecord
100
AcDbLayerTableRecord
  2
MASSGRENZEN
 70
        64
 62
       172
  6
CONTINUOUS
290
         1
370
        25
390
1D
  0
LAYER
  5
38
100
AcDbSymbolTableRecord
100
AcDbLayerTableRecord
  2
TOLERANZEN
 70
        64
 62
       212
  6
CONTINUOUS
290
         1
370
         0
390
1D
  0
LAYER
  5
39
100
AcDbSymbolTableRecord
100
AcDbLayerTableRecord
  2
BEMAßUNG
 70
        64
 62
         7
  6
CONTINUOUS
290
         1
370
        25
390
1D
  0
LAYER
  5
3A
100
AcDbSymbolTableRecord
100
AcDbLayerTableRecord
  2
HILFSLINIEN
 70
        64
 62
         3
  6
CONTINUOUS
290
         1
370
         0
390
1D
  0
LAYER
  5
3B
100
AcDbSymbolTableRecord
100
AcDbLayerTableRecord
  2
MITTELLINIEN
 70
        64
 62
         5
  6
DASHDOT
290
         1
370
        25
390
1D
  0
LAYER
  5
3C
100
AcDbSymbolTableRecord
100
AcDbLayerTableRecord
  2
BESCHRIFTUNG00
 70
        64
 62
         7
  6
CONTINUOUS
290
         1
370
        25
390
1D
  0
LAYER
  5
3D
100
AcDbSymbolTableRecord
100
AcDbLayerTableRecord
  2
GEWINDELINIEN
 70
        64
 62
       212
  6
CONTINUOUS
290
         1
370
        25
390
1D
  0
LAYER
  5
3E
100
AcDbSymbolTableRecord
100
AcDbLayerTableRecord
  2
UNSICHTBARE
 70
        64
 62
        92
  6
DASHED
290
         1
370
        25
390
1D
  0
LAYER
  5
3F
100
AcDbSymbolTableRecord
100
AcDbLayerTableRecord
  2
VERDECKTE
 70
        64
 62
        92
  6
DASHED
290
         1
370
        25
390
1D
  0
LAYER
  5
40
100
AcDbSymbolTableRecord
100
AcDbLayerTableRecord
  2
LICHTKANTEN
 70
        64
 62
         8
  6
CONTINUOUS
290
         1
370
        25
390
1D
  0
LAYER
  5
41
100
AcDbSymbolTableRecord
100
AcDbLayerTableRecord
  2
SCHNITTVERLAUF
 70
        64
 62
        34
  6
DASHDOT
290
         1
370
        70
390
1D
  0
LAYER
  5
42
100
AcDbSymbolTableRecord
100
AcDbLayerTableRecord
  2
KENNZEICHNUNG
 70
        64
 62
         7
  6
CONTINUOUS
290
         1
370
         0
390
1D
  0
LAYER
  5
43
100
AcDbSymbolTableRecord
100
AcDbLayerTableRecord
  2
PFEILE
 70
        64
 62
         7
  6
CONTINUOUS
290
         1
370
        70
390
1D
  0
LAYER
  5
44
100
AcDbSymbolTableRecord
100
AcDbLayerTableRecord
  2
SCHNITTDARSTELLUNG
 70
        64
 62
         7
  6
CONTINUOUS
290
         1
370
         0
390
1D
  0
LAYER
  5
45
100
AcDbSymbolTableRecord
100
AcDbLayerTableRecord
  2
2650__ WEICHENBOCK
 70
        64
 62
         7
  6
CONTINUOUS
290
         1
370
         0
390
1D
  0
LAYER
  5
46
100
AcDbSymbolTableRecord
100
AcDbLayerTableRecord
  2
GLEIS
 70
        64
 62
        34
  6
CONTINUOUS
290
         1
370
         0
390
1D
  0
LAYER
  5
47
100
AcDbSymbolTableRecord
100
AcDbLayerTableRecord
  2
SPERRSCHUH ABGELEGT
 70
        64
 62
         7
  6
DASHED
290
         1
370
         0
390
1D
  0
LAYER
  5
48
100
AcDbSymbolTableRecord
100
AcDbLayerTableRecord
  2
SPERRSCHUH
 70
        64
 62
         7
  6
CONTINUOUS
290
         1
370
         0
390
1D
  0
LAYER
  5
49
100
AcDbSymbolTableRecord
100
AcDbLayerTableRecord
  2
SPERRSCHUHRAHMEN
 70
        64
 62
        94
  6
CONTINUOUS
290
         1
370
         0
390
1D
  0
LAYER
  5
4A
100
AcDbSymbolTableRecord
100
AcDbLayerTableRecord
  2
SPERRSCHUHANTRIEB
 70
        64
 62
         5
  6
CONTINUOUS
290
         1
370
         0
390
1D
  0
LAYER
  5
4B
100
AcDbSymbolTableRecord
100
AcDbLayerTableRecord
  2
2651__ SBW-GLEISSPERRSCHUH
 70
        64
 62
         7
  6
CONTINUOUS
290
         1
370
         0
390
1D
  0
LAYER
  5
4C
100
AcDbSymbolTableRecord
100
AcDbLayerTableRecord
  2
2655_1 RAHMEN
 70
        64
 62
         7
  6
CONTINUOUS
290
         1
370
        13
390
1D
  0
LAYER
  5
4D
100
AcDbSymbolTableRecord
100
AcDbLayerTableRecord
  2
2655_2 SCHIEBER UMGESTELLT
 70
        64
 62
       230
  6
DASHED
290
         1
370
        13
390
1D
  0
LAYER
  5
4E
100
AcDbSymbolTableRecord
100
AcDbLayerTableRecord
  2
2655_2 SCHIEBER
 70
        64
 62
       230
  6
CONTINUOUS
290
         1
370
        13
390
1D
  0
LAYER
  5
4F
100
AcDbSymbolTableRecord
100
AcDbLayerTableRecord
  2
2655_3 DREHHEBEL UMGESTELLT
 70
        64
 62
       150
  6
DASHED
290
         1
370
        13
390
1D
  0
LAYER
  5
50
100
AcDbSymbolTableRecord
100
AcDbLayerTableRecord
  2
2655_3 DREHHEBEL
 70
        64
 62
       150
  6
CONTINUOUS
290
         1
370
        13
390
1D
  0
LAYER
  5
51
100
AcDbSymbolTableRecord
100
AcDbLayerTableRecord
  2
2655_5 STELLHEBEL UMGESTELLT
 70
        64
 62
       172
  6
DASHED
290
         1
370
        18
390
1D
  0
LAYER
  5
52
100
AcDbSymbolTableRecord
100
AcDbLayerTableRecord
  2
2655_5 STELLHEBEL
 70
        64
 62
       172
  6
CONTINUOUS
290
         1
370
        13
390
1D
  0
LAYER
  5
53
100
AcDbSymbolTableRecord
100
AcDbLayerTableRecord
  2
2655_4 DRAHT
 70
        64
 62
       190
  6
CONTINUOUS
290
         1
370
        25
390
1D
  0
LAYER
  5
54
100
AcDbSymbolTableRecord
100
AcDbLayerTableRecord
  2
2655_6 STELLVERSTELLUNG UMGESTELLT
 70
        64
 62
       211
  6
DASHED
290
         1
370
        18
390
1D
  0
LAYER
  5
55
100
AcDbSymbolTableRecord
100
AcDbLayerTableRecord
  2
2655_6 STELLVERSTELLUNG
 70
        64
 62
       230
  6
CONTINUOUS
290
         1
370
        13
390
1D
  0
LAYER
  5
56
100
AcDbSymbolTableRecord
100
AcDbLayerTableRecord
  2
2655_8 STELLANSCHLAG UMGESTELLT
 70
        64
 62
       131
  6
DASHED
290
         1
370
        18
390
1D
  0
LAYER
  5
57
100
AcDbSymbolTableRecord
100
AcDbLayerTableRecord
  2
2655_8 STELLANSCHLAG
 70
        64
 62
         6
  6
CONTINUOUS
290
         1
370
        13
390
1D
  0
LAYER
  5
58
100
AcDbSymbolTableRecord
100
AcDbLayerTableRecord
  2
2655_9 RIEGELSCHIEBER LINKS
 70
        64
 62
       171
  6
DASHED
290
         1
370
        18
390
1D
  0
LAYER
  5
59
100
AcDbSymbolTableRecord
100
AcDbLayerTableRecord
  2
2655_9 RIEGELSCHIEBER RECHTS
 70
        64
 62
       171
  6
HIDDEN
290
         1
370
        18
390
1D
  0
LAYER
  5
5A
100
AcDbSymbolTableRecord
100
AcDbLayerTableRecord
  2
2655_9 RIEGELSCHIEBER
 70
        64
 62
       171
  6
CONTINUOUS
290
         1
370
        13
390
1D
  0
LAYER
  5
5B
100
AcDbSymbolTableRecord
100
AcDbLayerTableRecord
  2
2655_10 ZUNGENSCHIEBER UMGESTELLT
 70
        64
 62
       171
  6
DASHED
290
         1
370
        18
390
1D
  0
LAYER
  5
5C
100
AcDbSymbolTableRecord
100
AcDbLayerTableRecord
  2
2655_10 ZUNGENSCHIEBER
 70
        64
 62
       171
  6
CONTINUOUS
290
         1
370
        13
390
1D
  0
LAYER
  5
5D
100
AcDbSymbolTableRecord
100
AcDbLayerTableRecord
  2
2655_99 RAHMENLEHRE
 70
        64
 62
         7
  6
CONTINUOUS
290
         1
370
        13
390
1D
  0
LAYER
  5
5E
100
AcDbSymbolTableRecord
100
AcDbLayerTableRecord
  2
2655_11 VERRIEGELUNG UMGESTELLT
 70
        64
 62
       190
  6
DASHED
290
         1
370
        13
390
1D
  0
LAYER
  5
5F
100
AcDbSymbolTableRecord
100
AcDbLayerTableRecord
  2
2655_11 VERRIEGELUNG
 70
        64
 62
       190
  6
CONTINUOUS
290
         1
370
        13
390
1D
  0
LAYER
  5
60
100
AcDbSymbolTableRecord
100
AcDbLayerTableRecord
  2
2655_12 SIGNALPLATTE
 70
        64
 62
       172
  6
CONTINUOUS
290
         1
370
        13
390
1D
  0
LAYER
  5
61
100
AcDbSymbolTableRecord
100
AcDbLayerTableRecord
  2
2655__ WEICHENANTRIEB
 70
        64
 62
        14
  6
CONTINUOUS
290
         1
370
        13
390
1D
  0
LAYER
  5
62
100
AcDbSymbolTableRecord
100
AcDbLayerTableRecord
  2
2201_2___ HEBEL UMGESCHLAGEN
 70
        64
 62
        34
  6
DASHED
290
         1
370
        13
390
1D
  0
LAYER
  5
63
100
AcDbSymbolTableRecord
100
AcDbLayerTableRecord
  2
2201_2___ HEBEL
 70
        64
 62
        34
  6
CONTINUOUS
290
         1
370
        13
390
1D
  0
LAYER
  5
64
100
AcDbSymbolTableRecord
100
AcDbLayerTableRecord
  2
2201__
 70
        64
 62
         7
  6
CONTINUOUS
290
         1
370
         0
390
1D
  0
LAYER
  5
65
100
AcDbSymbolTableRecord
100
AcDbLayerTableRecord
  2
2653_1 RAHMEN
 70
        64
 62
         7
  6
CONTINUOUS
290
         1
370
        13
390
1D
  0
LAYER
  5
66
100
AcDbSymbolTableRecord
100
AcDbLayerTableRecord
  2
2653_2 SCHIEBER UNTEN
 70
        64
 62
       230
  6
CONTINUOUS
290
         1
370
        13
390
1D
  0
LAYER
  5
67
100
AcDbSymbolTableRecord
100
AcDbLayerTableRecord
  2
2653_3 SCHIEBER OBEN
 70
        64
 62
       230
  6
CONTINUOUS
290
         1
370
        13
390
1D
  0
LAYER
  5
68
100
AcDbSymbolTableRecord
100
AcDbLayerTableRecord
  2
2653__ WEICHENSCHLOSS
 70
        64
 62
        14
  6
CONTINUOUS
290
         1
370
         0
390
1D
  0
LAYER
  5
69
100
AcDbSymbolTableRecord
100
AcDbLayerTableRecord
  2
2052_4 ZUHALTUNG ANGEHOBEN
 70
        64
 62
        94
  6
DASHED
290
         1
370
        18
390
1D
  0
LAYER
  5
6A
100
AcDbSymbolTableRecord
100
AcDbLayerTableRecord
  2
2052_4 ZUHALTUNG
 70
        64
 62
        94
  6
CONTINUOUS
290
         1
370
        18
390
1D
  0
LAYER
  5
6B
100
AcDbSymbolTableRecord
100
AcDbLayerTableRecord
  2
2052_1_2_7_8 GEHÄUSE
 70
        64
 62
         7
  6
CONTINUOUS
290
         1
370
        18
390
1D
  0
LAYER
  5
6C
100
AcDbSymbolTableRecord
100
AcDbLayerTableRecord
  2
2052_5_6 BESATZUNG
 70
        64
 62
         8
  6
CONTINUOUS
290
         1
370
        18
390
1D
  0
LAYER
  5
6D
100
AcDbSymbolTableRecord
100
AcDbLayerTableRecord
  2
2052_3 RIEGEL UMGESPERRT
 70
        64
 62
       230
  6
DASHED
290
         1
370
        18
390
1D
  0
LAYER
  5
6E
100
AcDbSymbolTableRecord
100
AcDbLayerTableRecord
  2
2052_3 RIEGEL
 70
        64
 62
       230
  6
CONTINUOUS
290
         1
370
        18
390
1D
  0
LAYER
  5
6F
100
AcDbSymbolTableRecord
100
AcDbLayerTableRecord
  2
2052__ SCHLOSS MIT DORN
 70
        64
 62
         7
  6
CONTINUOUS
290
         1
370
         0
390
1D
  0
LAYER
  5
70
100
AcDbSymbolTableRecord
100
AcDbLayerTableRecord
  2
2053_5 SCHILD
 70
        64
 62
        54
  6
CONTINUOUS
290
         1
370
        18
390
1D
  0
LAYER
  5
71
100
AcDbSymbolTableRecord
100
AcDbLayerTableRecord
  2
2053_1-4 SCHLÜSSEL
 70
        64
 62
       190
  6
CONTINUOUS
290
         1
370
        18
390
1D
  0
LAYER
  5
72
100
AcDbSymbolTableRecord
100
AcDbLayerTableRecord
  2
2053__ SCHLÜSSEL
 70
        64
 62
         7
  6
CONTINUOUS
290
         1
370
         0
390
1D
  0
LAYER
  5
73
100
AcDbSymbolTableRecord
100
AcDbLayerTableRecord
  2
2654_1-3 RAHMEN
 70
        64
 62
         7
  6
CONTINUOUS
290
         1
370
        13
390
1D
  0
LAYER
  5
74
100
AcDbSymbolTableRecord
100
AcDbLayerTableRecord
  2
2654_4 ANTRIEBSRAD
 70
        64
 62
       230
  6
CONTINUOUS
290
         1
370
        13
390
1D
  0
LAYER
  5
75
100
AcDbSymbolTableRecord
100
AcDbLayerTableRecord
  2
2654_5 STELLHEBEL UMGESTELLT
 70
        64
 62
       150
  6
DASHED
290
         1
370
        13
390
1D
  0
LAYER
  5
76
100
AcDbSymbolTableRecord
100
AcDbLayerTableRecord
  2
2654_5 STELLHEBEL
 70
        64
 62
       150
  6
CONTINUOUS
290
         1
370
        13
390
1D
  0
LAYER
  5
77
100
AcDbSymbolTableRecord
100
AcDbLayerTableRecord
  2
2654_10 RIEGELSCHIEBER LINKS
 70
        64
 62
       171
  6
DASHED
290
         1
370
        18
390
1D
  0
LAYER
  5
78
100
AcDbSymbolTableRecord
100
AcDbLayerTableRecord
  2
2654_10 RIEGELSCHIEBER RECHTS
 70
        64
 62
       171
  6
HIDDEN
290
         1
370
        18
390
1D
  0
LAYER
  5
79
100
AcDbSymbolTableRecord
100
AcDbLayerTableRecord
  2
2654_10 RIEGELSCHIEBER
 70
        64
 62
       171
  6
CONTINUOUS
290
         1
370
        13
390
1D
  0
LAYER
  5
7A
100
AcDbSymbolTableRecord
100
AcDbLayerTableRecord
  2
2654_8 STELLSCHIEBER UMGESTELLT
 70
        64
 62
       171
  6
DASHED
290
         1
370
        18
390
1D
  0
LAYER
  5
7B
100
AcDbSymbolTableRecord
100
AcDbLayerTableRecord
  2
2654_8 STELLSCHIEBER
 70
        64
 62
       171
  6
CONTINUOUS
290
         1
370
        13
390
1D
  0
LAYER
  5
7C
100
AcDbSymbolTableRecord
100
AcDbLayerTableRecord
  2
2654_12 SIGNALPLATTE
 70
        64
 62
       172
  6
CONTINUOUS
290
         1
370
        13
390
1D
  0
LAYER
  5
7D
100
AcDbSymbolTableRecord
100
AcDbLayerTableRecord
  2
2654_30 GESTÄNGEWINKEL
 70
        64
 62
         7
  6
CONTINUOUS
290
         1
370
        13
390
1D
  0
LAYER
  5
7E
100
AcDbSymbolTableRecord
100
AcDbLayerTableRecord
  2
2654_6 RIEGELZAPFEN UMGESTELLT
 70
        64
 62
       172
  6
DASHED
290
         1
370
        13
390
1D
  0
LAYER
  5
7F
100
AcDbSymbolTableRecord
100
AcDbLayerTableRecord
  2
2654_6 RIEGELZAPFEN
 70
        64
 62
       172
  6
CONTINUOUS
290
         1
370
        13
390
1D
  0
LAYER
  5
80
100
AcDbSymbolTableRecord
100
AcDbLayerTableRecord
  2
2654__ WEICHENANTRIEB
 70
        64
 62
        14
  6
CONTINUOUS
290
         1
370
        13
390
1D
  0
LAYER
  5
81
100
AcDbSymbolTableRecord
100
AcDbLayerTableRecord
  2
2652_1 RAHMEN
 70
        64
 62
         7
  6
CONTINUOUS
290
         1
370
        13
390
1D
  0
LAYER
  5
82
100
AcDbSymbolTableRecord
100
AcDbLayerTableRecord
  2
2652_3 WINKEL
 70
        64
 62
        14
  6
CONTINUOUS
290
         1
370
        13
390
1D
  0
LAYER
  5
83
100
AcDbSymbolTableRecord
100
AcDbLayerTableRecord
  2
2652_2 LAGER UND ANSCHLAG
 70
        64
 62
        14
  6
CONTINUOUS
290
         1
370
        13
390
1D
  0
LAYER
  5
84
100
AcDbSymbolTableRecord
100
AcDbLayerTableRecord
  2
2652__ WEICHENSTELLUNG
 70
        64
 62
        14
  6
CONTINUOUS
290
         1
370
         0
390
1D
  0
LAYER
  5
85
100
AcDbSymbolTableRecord
100
AcDbLayerTableRecord
  2
KONSTRUKTION
 70
        64
 62
         7
  6
CONTINUOUS
290
         1
370
         0
390
1D
  0
LAYER
  5
86
100
AcDbSymbolTableRecord
100
AcDbLayerTableRecord
  2
2650_1P
 70
        64
 62
        30
  6
CONTINUOUS
290
         1
370
        13
390
1D
  0
LAYER
  5
87
100
AcDbSymbolTableRecord
100
AcDbLayerTableRecord
  2
2650_7P
 70
        64
 62
        15
  6
CONTINUOUS
290
         1
370
        13
390
1D
  0
LAYER
  5
88
100
AcDbSymbolTableRecord
100
AcDbLayerTableRecord
  2
2650___ WEICHENBOCK
 70
        64
 62
       230
  6
CONTINUOUS
290
         1
370
        13
390
1D
  0
LAYER
  5
89
100
AcDbSymbolTableRecord
100
AcDbLayerTableRecord
  2
2651_1O
 70
        64
 62
        34
  6
CONTINUOUS
290
         1
370
        13
390
1D
  0
LAYER
  5
8A
100
AcDbSymbolTableRecord
100
AcDbLayerTableRecord
  2
2651_1U
 70
        64
 62
        11
  6
CONTINUOUS
290
         1
370
        13
390
1D
  0
LAYER
  5
8B
100
AcDbSymbolTableRecord
100
AcDbLayerTableRecord
  2
2651___ SBW-GLEISSPERRSCHUH
 70
        64
 62
       230
  6
CONTINUOUS
290
         1
370
        13
390
1D
  0
LAYER
  5
8C
100
AcDbSymbolTableRecord
100
AcDbLayerTableRecord
  2
2658_1O
 70
        64
 62
        11
  6
CONTINUOUS
290
         1
370
         0
390
1D
  0
LAYER
  5
8D
100
AcDbSymbolTableRecord
100
AcDbLayerTableRecord
  2
2658_1U
 70
        64
 62
        15
  6
CONTINUOUS
290
         1
370
         0
390
1D
  0
LAYER
  5
8E
100
AcDbSymbolTableRecord
100
AcDbLayerTableRecord
  2
2658_2L
 70
        64
 62
        30
  6
CONTINUOUS
290
         1
370
        13
390
1D
  0
LAYER
  5
8F
100
AcDbSymbolTableRecord
100
AcDbLayerTableRecord
  2
2658_2P
 70
        64
 62
       230
  6
CONTINUOUS
290
         1
370
        13
390
1D
  0
LAYER
  5
90
100
AcDbSymbolTableRecord
100
AcDbLayerTableRecord
  2
2658_2R
 70
        64
 62
        14
  6
CONTINUOUS
290
         1
370
        13
390
1D
  0
LAYER
  5
91
100
AcDbSymbolTableRecord
100
AcDbLayerTableRecord
  2
2658_3P
 70
        64
 62
        34
  6
CONTINUOUS
290
         1
370
        13
390
1D
  0
LAYER
  5
92
100
AcDbSymbolTableRecord
100
AcDbLayerTableRecord
  2
2658_4L
 70
        64
 62
        30
  6
CONTINUOUS
290
         1
370
        13
390
1D
  0
LAYER
  5
93
100
AcDbSymbolTableRecord
100
AcDbLayerTableRecord
  2
2658_4R
 70
        64
 62
        14
  6
CONTINUOUS
290
         1
370
        13
390
1D
  0
LAYER
  5
94
100
AcDbSymbolTableRecord
100
AcDbLayerTableRecord
  2
2658_5L~A
 70
        64
 62
        30
  6
CONTINUOUS
290
         1
370
        13
390
1D
  0
LAYER
  5
95
100
AcDbSymbolTableRecord
100
AcDbLayerTableRecord
  2
2658_5L
 70
        64
 62
        30
  6
CONTINUOUS
290
         1
370
        13
390
1D
  0
LAYER
  5
96
100
AcDbSymbolTableRecord
100
AcDbLayerTableRecord
  2
2658_5R
 70
        64
 62
        14
  6
CONTINUOUS
290
         1
370
        13
390
1D
  0
LAYER
  5
97
100
AcDbSymbolTableRecord
100
AcDbLayerTableRecord
  2
2658_6L
 70
        64
 62
        30
  6
CONTINUOUS
290
         1
370
        13
390
1D
  0
LAYER
  5
98
100
AcDbSymbolTableRecord
100
AcDbLayerTableRecord
  2
2658_6R
 70
        64
 62
        14
  6
CONTINUOUS
290
         1
370
        13
390
1D
  0
LAYER
  5
99
100
AcDbSymbolTableRecord
100
AcDbLayerTableRecord
  2
2658_7L
 70
        64
 62
        30
  6
CONTINUOUS
290
         1
370
        13
390
1D
  0
LAYER
  5
9A
100
AcDbSymbolTableRecord
100
AcDbLayerTableRecord
  2
2658_7R
 70
        64
 62
        14
  6
CONTINUOUS
290
         1
370
        13
390
1D
  0
LAYER
  5
9B
100
AcDbSymbolTableRecord
100
AcDbLayerTableRecord
  2
2658___
 70
        64
 62
       230
  6
CONTINUOUS
290
         1
370
        13
390
1D
  0
LAYER
  5
9C
100
AcDbSymbolTableRecord
100
AcDbLayerTableRecord
  2
2655_1P
 70
        64
 62
        30
  6
CONTINUOUS
290
         1
370
        13
390
1D
  0
LAYER
  5
9D
100
AcDbSymbolTableRecord
100
AcDbLayerTableRecord
  2
2655_2P
 70
        64
 62
        30
  6
CONTINUOUS
290
         1
370
        13
390
1D
  0
LAYER
  5
9E
100
AcDbSymbolTableRecord
100
AcDbLayerTableRecord
  2
2655_3L
 70
        64
 62
        30
  6
CONTINUOUS
290
         1
370
        13
390
1D
  0
LAYER
  5
9F
100
AcDbSymbolTableRecord
100
AcDbLayerTableRecord
  2
2655_3R
 70
        64
 62
        14
  6
CONTINUOUS
290
         1
370
        13
390
1D
  0
LAYER
  5
A0
100
AcDbSymbolTableRecord
100
AcDbLayerTableRecord
  2
2655_5L
 70
        64
 62
        30
  6
CONTINUOUS
290
         1
370
        13
390
1D
  0
LAYER
  5
A1
100
AcDbSymbolTableRecord
100
AcDbLayerTableRecord
  2
2655_5R
 70
        64
 62
        14
  6
CONTINUOUS
290
         1
370
        13
390
1D
  0
LAYER
  5
A2
100
AcDbSymbolTableRecord
100
AcDbLayerTableRecord
  2
2655_6P
 70
        64
 62
        30
  6
CONTINUOUS
290
         1
370
        13
390
1D
  0
LAYER
  5
A3
100
AcDbSymbolTableRecord
100
AcDbLayerTableRecord
  2
2655_78L
 70
        64
 62
        30
  6
CONTINUOUS
290
         1
370
        13
390
1D
  0
LAYER
  5
A4
100
AcDbSymbolTableRecord
100
AcDbLayerTableRecord
  2
2655_11P
 70
        64
 62
        30
  6
CONTINUOUS
290
         1
370
        13
390
1D
  0
LAYER
  5
A5
100
AcDbSymbolTableRecord
100
AcDbLayerTableRecord
  2
2655_13R
 70
        64
 62
        14
  6
CONTINUOUS
290
         1
370
        13
390
1D
  0
LAYER
  5
A6
100
AcDbSymbolTableRecord
100
AcDbLayerTableRecord
  2
2655_13L
 70
        64
 62
        30
  6
CONTINUOUS
290
         1
370
        13
390
1D
  0
LAYER
  5
A7
100
AcDbSymbolTableRecord
100
AcDbLayerTableRecord
  2
2655_78R
 70
        64
 62
        14
  6
CONTINUOUS
290
         1
370
        13
390
1D
  0
LAYER
  5
A8
100
AcDbSymbolTableRecord
100
AcDbLayerTableRecord
  2
2655_9R
 70
        64
 62
        14
  6
CONTINUOUS
290
         1
370
        13
390
1D
  0
LAYER
  5
A9
100
AcDbSymbolTableRecord
100
AcDbLayerTableRecord
  2
2655_9L
 70
        64
 62
        30
  6
CONTINUOUS
290
         1
370
        13
390
1D
  0
LAYER
  5
AA
100
AcDbSymbolTableRecord
100
AcDbLayerTableRecord
  2
2655_6Q
 70
        64
 62
        30
  6
CONTINUOUS
290
         1
370
        13
390
1D
  0
LAYER
  5
AB
100
AcDbSymbolTableRecord
100
AcDbLayerTableRecord
  2
2655_99P
 70
        64
 62
        30
  6
CONTINUOUS
290
         1
370
        13
390
1D
  0
LAYER
  5
AC
100
AcDbSymbolTableRecord
100
AcDbLayerTableRecord
  2
2655_10R
 70
        64
 62
        14
  6
CONTINUOUS
290
         1
370
        13
390
1D
  0
LAYER
  5
AD
100
AcDbSymbolTableRecord
100
AcDbLayerTableRecord
  2
2655_10L
 70
        64
 62
        30
  6
CONTINUOUS
290
         1
370
        13
390
1D
  0
LAYER
  5
AE
100
AcDbSymbolTableRecord
100
AcDbLayerTableRecord
  2
2655___ W-_ GSP-_ SIGNAL-ANTRIEB
 70
        64
 62
       230
  6
CONTINUOUS
290
         1
370
        13
390
1D
  0
LAYER
  5
AF
100
AcDbSymbolTableRecord
100
AcDbLayerTableRecord
  2
2656_01L
 70
        64
 62
        34
  6
CONTINUOUS
290
         1
370
        13
390
1D
  0
LAYER
  5
B0
100
AcDbSymbolTableRecord
100
AcDbLayerTableRecord
  2
2656_02R
 70
        64
 62
        14
  6
CONTINUOUS
290
         1
370
        13
390
1D
  0
LAYER
  5
B1
100
AcDbSymbolTableRecord
100
AcDbLayerTableRecord
  2
2656___
 70
        64
 62
       230
  6
CONTINUOUS
290
         1
370
        13
390
1D
  0
LAYER
  5
B2
100
AcDbSymbolTableRecord
100
AcDbLayerTableRecord
  2
1088_1P
 70
        64
 62
        30
  6
CONTINUOUS
290
         1
370
         0
390
1D
  0
LAYER
  5
B3
100
AcDbSymbolTableRecord
100
AcDbLayerTableRecord
  2
108____ VORLAGEN
 70
        64
 62
       230
  6
CONTINUOUS
290
         1
370
        13
390
1D
  0
LAYER
  5
B4
100
AcDbSymbolTableRecord
100
AcDbLayerTableRecord
  2
2653_1P
 70
        64
 62
        30
  6
CONTINUOUS
290
         1
370
        13
390
1D
  0
LAYER
  5
B5
100
AcDbSymbolTableRecord
100
AcDbLayerTableRecord
  2
2653_2P
 70
        64
 62
        34
  6
CONTINUOUS
290
         1
370
        13
390
1D
  0
LAYER
  5
B6
100
AcDbSymbolTableRecord
100
AcDbLayerTableRecord
  2
2653_3P
 70
        64
 62
        34
  6
CONTINUOUS
290
         1
370
        13
390
1D
  0
LAYER
  5
B7
100
AcDbSymbolTableRecord
100
AcDbLayerTableRecord
  2
2653___ WEICHENSCHLOSS
 70
        64
 62
       230
  6
CONTINUOUS
290
         1
370
        13
390
1D
  0
LAYER
  5
B8
100
AcDbSymbolTableRecord
100
AcDbLayerTableRecord
  2
2654_8L
 70
        64
 62
        30
  6
CONTINUOUS
290
         1
370
        13
390
1D
  0
LAYER
  5
B9
100
AcDbSymbolTableRecord
100
AcDbLayerTableRecord
  2
2654_4P
 70
        64
 62
        30
  6
CONTINUOUS
290
         1
370
        13
390
1D
  0
LAYER
  5
BA
100
AcDbSymbolTableRecord
100
AcDbLayerTableRecord
  2
2654_5R
 70
        64
 62
        14
  6
CONTINUOUS
290
         1
370
        13
390
1D
  0
LAYER
  5
BB
100
AcDbSymbolTableRecord
100
AcDbLayerTableRecord
  2
2654_5L
 70
        64
 62
        30
  6
CONTINUOUS
290
         1
370
        13
390
1D
  0
LAYER
  5
BC
100
AcDbSymbolTableRecord
100
AcDbLayerTableRecord
  2
2654_8R
 70
        64
 62
        14
  6
CONTINUOUS
290
         1
370
        13
390
1D
  0
LAYER
  5
BD
100
AcDbSymbolTableRecord
100
AcDbLayerTableRecord
  2
2654_10R
 70
        64
 62
        14
  6
CONTINUOUS
290
         1
370
        13
390
1D
  0
LAYER
  5
BE
100
AcDbSymbolTableRecord
100
AcDbLayerTableRecord
  2
2654_10L
 70
        64
 62
        30
  6
CONTINUOUS
290
         1
370
        13
390
1D
  0
LAYER
  5
BF
100
AcDbSymbolTableRecord
100
AcDbLayerTableRecord
  2
2654_7P
 70
        64
 62
        14
  6
CONTINUOUS
290
         1
370
        13
390
1D
  0
LAYER
  5
C0
100
AcDbSymbolTableRecord
100
AcDbLayerTableRecord
  2
2654_1R
 70
        64
 62
        14
  6
CONTINUOUS
290
         1
370
        13
390
1D
  0
LAYER
  5
C1
100
AcDbSymbolTableRecord
100
AcDbLayerTableRecord
  2
2654_1L
 70
        64
 62
        30
  6
CONTINUOUS
290
         1
370
        13
390
1D
  0
LAYER
  5
C2
100
AcDbSymbolTableRecord
100
AcDbLayerTableRecord
  2
2654_2R
 70
        64
 62
        14
  6
CONTINUOUS
290
         1
370
        13
390
1D
  0
LAYER
  5
C3
100
AcDbSymbolTableRecord
100
AcDbLayerTableRecord
  2
2654_2L
 70
        64
 62
        30
  6
CONTINUOUS
290
         1
370
        13
390
1D
  0
LAYER
  5
C4
100
AcDbSymbolTableRecord
100
AcDbLayerTableRecord
  2
2654_3R
 70
        64
 62
        14
  6
CONTINUOUS
290
         1
370
        13
390
1D
  0
LAYER
  5
C5
100
AcDbSymbolTableRecord
100
AcDbLayerTableRecord
  2
2654_3L
 70
        64
 62
        30
  6
CONTINUOUS
290
         1
370
        13
390
1D
  0
LAYER
  5
C6
100
AcDbSymbolTableRecord
100
AcDbLayerTableRecord
  2
2654___ W-_ GSP-_ SIGNAL-ANTRIEB
 70
        64
 62
       230
  6
CONTINUOUS
290
         1
370
        13
390
1D
  0
LAYER
  5
C7
100
AcDbSymbolTableRecord
100
AcDbLayerTableRecord
  2
2652_2P
 70
        64
 62
        30
  6
CONTINUOUS
290
         1
370
        13
390
1D
  0
LAYER
  5
C8
100
AcDbSymbolTableRecord
100
AcDbLayerTableRecord
  2
2652_3L
 70
        64
 62
        30
  6
CONTINUOUS
290
         1
370
        13
390
1D
  0
LAYER
  5
C9
100
AcDbSymbolTableRecord
100
AcDbLayerTableRecord
  2
2652_3R
 70
        64
 62
        14
  6
CONTINUOUS
290
         1
370
        13
390
1D
  0
LAYER
  5
CA
100
AcDbSymbolTableRecord
100
AcDbLayerTableRecord
  2
2652_2Q
 70
        64
 62
        30
  6
CONTINUOUS
290
         1
370
        13
390
1D
  0
LAYER
  5
CB
100
AcDbSymbolTableRecord
100
AcDbLayerTableRecord
  2
2652___ WEICHENSTELLUNG
 70
        64
 62
       230
  6
CONTINUOUS
290
         1
370
        13
390
1D
  0
LAYER
  5
CC
100
AcDbSymbolTableRecord
100
AcDbLayerTableRecord
  2
PFADE
 70
        64
 62
         7
  6
CONTINUOUS
290
         1
370
         0
390
1D
  0
LAYER
  5
CD
100
AcDbSymbolTableRecord
100
AcDbLayerTableRecord
  2
MASSGRENZEN0
 70
        64
 62
       172
  6
CONTINUOUS
290
         1
370
        25
390
1D
  0
LAYER
  5
CE
100
AcDbSymbolTableRecord
100
AcDbLayerTableRecord
  2
MASSTEXTE0
 70
        64
 62
       212
  6
CONTINUOUS
290
         1
370
        25
390
1D
  0
LAYER
  5
CF
100
AcDbSymbolTableRecord
100
AcDbLayerTableRecord
  2
TOLERANZEN0
 70
        64
 62
       212
  6
CONTINUOUS
290
         1
370
         0
390
1D
  0
LAYER
  5
D0
100
AcDbSymbolTableRecord
100
AcDbLayerTableRecord
  2
MASSLINIEN0
 70
        64
 62
       172
  6
CONTINUOUS
290
         1
370
        25
390
1D
  0
LAYER
  5
D1
100
AcDbSymbolTableRecord
100
AcDbLayerTableRecord
  2
BEMASSUNG
 70
        64
 62
         7
  6
CONTINUOUS
290
         1
370
        25
390
1D
  0
LAYER
  5
D2
100
AcDbSymbolTableRecord
100
AcDbLayerTableRecord
  2
_TEMP
 70
        64
 62
         7
  6
CONTINUOUS
290
         1
370
        50
390
1D
  0
LAYER
  5
D3
100
AcDbSymbolTableRecord
100
AcDbLayerTableRecord
  2
STANDARD
 70
        64
 62
         7
  6
CONTINUOUS
290
         1
370
         0
390
1D
  0
ENDTAB
  0
TABLE
  2
STYLE
  5
3
100
AcDbSymbolTable
 70
         7
  0
STYLE
  5
17
100
AcDbSymbolTableRecord
100
AcDbTextStyleTableRecord
  2
Standard
 70
         0
 40
0.0
 41
1.0
 50
0.0
 71
         0
 42
0.0
  3
txt
  4

  0
STYLE
  5
2D
100
AcDbSymbolTableRecord
100
AcDbTextStyleTableRecord
  2
CADdy
 70
         0
 40
0.0
 41
1.0
 50
0.0
 71
         0
 42
3.5
  3
txt.shx
  4

  0
STYLE
  5
2E
100
AcDbSymbolTableRecord
100
AcDbTextStyleTableRecord
  2
Arial
 70
         0
 40
0.0
 41
1.0
 50
0.0
 71
         0
 42
3.5
  3
arial.ttf
  4

1001
ACAD
1000
Arial
1071
       34
  0
STYLE
  5
2F
100
AcDbSymbolTableRecord
100
AcDbTextStyleTableRecord
  2
Isonorm
 70
         0
 40
0.0
 41
1.0
 50
0.0
 71
         0
 42
3.5
  3
txt.shx
  4

  0
STYLE
  5
30
100
AcDbSymbolTableRecord
100
AcDbTextStyleTableRecord
  2
Tahoma
 70
         0
 40
0.0
 41
1.0
 50
0.0
 71
         0
 42
3.5
  3
tahoma.ttf
  4

1001
ACAD
1000
Tahoma
1071
       34
  0
STYLE
  5
31
100
AcDbSymbolTableRecord
100
AcDbTextStyleTableRecord
  2
Microsoft Sans Serif
 70
         0
 40
0.0
 41
1.0
 50
0.0
 71
         0
 42
3.5
  3
micross.ttf
  4

1001
ACAD
1000
Microsoft Sans Serif
1071
       34
  0
STYLE
  5
32
100
AcDbSymbolTableRecord
100
AcDbTextStyleTableRecord
  2
Arial Rounded MT Bold
 70
         0
 40
0.0
 41
1.0
 50
0.0
 71
         0
 42
3.5
  3
txt.shx
  4

  0
ENDTAB
  0
TABLE
  2
VIEW
  5
5
100
AcDbSymbolTable
 70
         0
  0
ENDTAB
  0
TABLE
  2
UCS
  5
6
100
AcDbSymbolTable
 70
         0
  0
ENDTAB
  0
TABLE
  2
APPID
  5
8
100
AcDbSymbolTable
 70
         1
  0
APPID
  5
16
100
AcDbSymbolTableRecord
100
AcDbRegAppTableRecord
  2
ACAD
 70
        64
  0
ENDTAB
  0
TABLE
  2
DIMSTYLE
  5
9
100
AcDbSymbolTable
 70
         1
100
AcDbDimStyleTable
 71
         0
  0
DIMSTYLE
105
18
100
AcDbSymbolTableRecord
100
AcDbDimStyleTableRecord
  2
Standard
 70
         0
  3

  4

 40
1.0
 41
0.18
 42
0.0625
 43
0.38
 44
0.18
 45
0.0
 46
0.0
 47
0.0
 48
0.0
 71
         0
 72
         0
 73
         1
 74
         1
 75
         0
 76
         0
 77
         0
 78
         0
 79
         0
140
0.18
141
0.09
142
0.0
143
25.4
144
1.0
145
0.0
146
1.0
147
0.09
148
0.0
170
         0
171
         2
172
         0
173
         0
174
         0
175
         0
176
         0
177
         0
178
         0
179
         0
271
         4
272
         4
273
         2
274
         2
275
         0
276
         0
277
         2
278
        46
279
         0
280
         0
281
         0
282
         0
283
         1
284
         0
285
         0
286
         0
288
         0
289
         3
340
17
341
0
342
0
343
0
344
0
371
        -2
372
        -2
  0
ENDTAB
  0
TABLE
  2
BLOCK_RECORD
  5
1
100
AcDbSymbolTable
 70
         9
  0
BLOCK_RECORD
  5
A
100
AcDbSymbolTableRecord
100
AcDbBlockTableRecord
  2
*MODEL_SPACE
340
20
  0
BLOCK_RECORD
  5
B
100
AcDbSymbolTableRecord
100
AcDbBlockTableRecord
  2
*PAPER_SPACE
340
21
  0
BLOCK_RECORD
  5
D4
100
AcDbSymbolTableRecord
100
AcDbBlockTableRecord
  2
D201627904
340
0
102
{BLKREFS
331
134
102
}
  0
BLOCK_RECORD
  5
DD
100
AcDbSymbolTableRecord
100
AcDbBlockTableRecord
  2
D201628160
340
0
102
{BLKREFS
331
14B
102
}
  0
BLOCK_RECORD
  5
E6
100
AcDbSymbolTableRecord
100
AcDbBlockTableRecord
  2
D201628416
340
0
102
{BLKREFS
331
1E0
102
}
  0
BLOCK_RECORD
  5
EF
100
AcDbSymbolTableRecord
100
AcDbBlockTableRecord
  2
D201628672
340
0
102
{BLKREFS
331
1EB
102
}
  0
BLOCK_RECORD
  5
F8
100
AcDbSymbolTableRecord
100
AcDbBlockTableRecord
  2
D201628928
340
0
102
{BLKREFS
331
1EC
102
}
  0
BLOCK_RECORD
  5
101
100
AcDbSymbolTableRecord
100
AcDbBlockTableRecord
  2
D201629184
340
0
102
{BLKREFS
331
26A
102
}
  0
BLOCK_RECORD
  5
10A
100
AcDbSymbolTableRecord
100
AcDbBlockTableRecord
  2
D201629440
340
0
102
{BLKREFS
331
26B
102
}
  0
BLOCK_RECORD
  5
113
100
AcDbSymbolTableRecord
100
AcDbBlockTableRecord
  2
D201577984
340
0
102
{BLKREFS
331
26C
102
}
  0
BLOCK_RECORD
  5
11C
100
AcDbSymbolTableRecord
100
AcDbBlockTableRecord
  2
D201577728
340
0
102
{BLKREFS
331
27F
102
}
  0
ENDTAB
  0
ENDSEC
  0
SECTION
  2
BLOCKS
  0
BLOCK
  5
D
100
AcDbEntity
  8
0
390
0
100
AcDbBlockBegin
  2
*MODEL_SPACE
 70
         0
 10
0.0
 20
0.0
 30
0.0
  3
*MODEL_SPACE
  1

  0
ENDBLK
  5
E
100
AcDbEntity
  8
0
390
0
100
AcDbBlockEnd
  0
BLOCK
  5
F
100
AcDbEntity
 67
         1
  8
0
390
0
100
AcDbBlockBegin
  2
*PAPER_SPACE
 70
         0
 10
0.0
 20
0.0
 30
0.0
  3
*PAPER_SPACE
  1

  0
ENDBLK
  5
10
100
AcDbEntity
 67
         1
  8
0
390
0
100
AcDbBlockEnd
  0
BLOCK
  5
D5
100
AcDbEntity
  8
BEMAßUNG
390
0
100
AcDbBlockBegin
  2
D201627904
 70
         0
 10
0.0
 20
0.0
 30
0.0
  3
D201627904
  1

  0
LINE
  5
D6
100
AcDbEntity
  8
BEMAßUNG
390
0
 62
       172
100
AcDbLine
 10
145.1614736736
 20
146.0313908361
 30
0.0
 11
187.1614736736
 21
146.0313908361
 31
0.0
  0
LINE
  5
D7
100
AcDbEntity
  8
BEMAßUNG
390
0
 62
       172
100
AcDbLine
 10
145.1614736736
 20
196.707822758
 30
0.0
 11
145.1614736736
 21
144.0313908361
 31
0.0
  0
LINE
  5
D8
100
AcDbEntity
  8
BEMAßUNG
390
0
 62
       172
100
AcDbLine
 10
187.1614736736
 20
196.707822758
 30
0.0
 11
187.1614736736
 21
144.0313908361
 31
0.0
  0
SOLID
  5
D9
100
AcDbEntity
  8
BEMAßUNG
390
0
100
AcDbTrace
 10
145.1614736736
 20
146.0313908361
 30
0.0
 11
148.1358082577
 21
146.4229694128
 31
0.0
 12
148.1358082577
 22
145.6398122595
 32
0.0
 13
148.1358082577
 23
145.6398122595
 33
0.0
  0
SOLID
  5
DA
100
AcDbEntity
  8
BEMAßUNG
390
0
100
AcDbTrace
 10
187.1614736736
 20
146.0313908361
 30
0.0
 11
184.1871390894
 21
145.6398122595
 31
0.0
 12
184.1871390894
 22
146.4229694128
 32
0.0
 13
184.1871390894
 23
146.4229694128
 33
0.0
  0
MTEXT
  5
DB
100
AcDbEntity
  8
BEMAßUNG
390
0
 62
       212
100
AcDbMText
 10
166.1614736736
 20
149.2153908361
 30
0.0
 40
3.0
 41
0.0
 71
         5
 72
         1
  1
\W1.135145;\A1;42
  7
Arial
 73
         0
 44
0.0
  0
ENDBLK
  5
DC
100
AcDbEntity
  8
0
390
0
100
AcDbBlockEnd
  0
BLOCK
  5
DE
100
AcDbEntity
  8
BEMAßUNG
390
0
100
AcDbBlockBegin
  2
D201628160
 70
         0
 10
0.0
 20
0.0
 30
0.0
  3
D201628160
  1

  0
LINE
  5
DF
100
AcDbEntity
  8
BEMAßUNG
390
0
 62
       172
100
AcDbLine
 10
71.3713235686
 20
229.4841555086
 30
0.0
 11
71.3713235686
 21
152.4841555086
 31
0.0
  0
LINE
  5
E0
100
AcDbEntity
  8
BEMAßUNG
390
0
 62
       172
100
AcDbLine
 10
48.32953125
 20
229.4841555086
 30
0.0
 11
73.3713235686
 21
229.4841555086
 31
0.0
  0
LINE
  5
E1
100
AcDbEntity
  8
BEMAßUNG
390
0
 62
       172
100
AcDbLine
 10
48.32953125
 20
152.4841555086
 30
0.0
 11
73.3713235686
 21
152.4841555086
 31
0.0
  0
SOLID
  5
E2
100
AcDbEntity
  8
BEMAßUNG
390
0
100
AcDbTrace
 10
71.3713235686
 20
229.4841555086
 30
0.0
 11
71.7629021453
 21
226.5098209245
 31
0.0
 12
70.979744992
 22
226.5098209245
 32
0.0
 13
70.979744992
 23
226.5098209245
 33
0.0
  0
SOLID
  5
E3
100
AcDbEntity
  8
BEMAßUNG
390
0
100
AcDbTrace
 10
71.3713235686
 20
152.4841555086
 30
0.0
 11
70.979744992
 21
155.4584900927
 31
0.0
 12
71.7629021453
 22
155.4584900927
 32
0.0
 13
71.7629021453
 23
155.4584900927
 33
0.0
  0
MTEXT
  5
E4
100
AcDbEntity
  8
BEMAßUNG
390
0
 62
       212
100
AcDbMText
 10
68.1873235686
 20
190.9841555086
 30
0.0
 40
3.0
 41
0.0
 71
         5
 72
         1
  1
\W1.135145;\A1;77
  7
Arial
 11
0.0
 21
1.0
 31
0.0
 73
         0
 44
0.0
  0
ENDBLK
  5
E5
100
AcDbEntity
  8
0
390
0
100
AcDbBlockEnd
  0
BLOCK
  5
E7
100
AcDbEntity
  8
BEMAßUNG
390
0
100
AcDbBlockBegin
  2
D201628416
 70
         0
 10
0.0
 20
0.0
 30
0.0
  3
D201628416
  1

  0
LINE
  5
E8
100
AcDbEntity
  8
BEMAßUNG
390
0
 62
       172
100
AcDbLine
 10
169.2210151241
 20
254.7168306271
 30
0.0
 11
169.2210151242
 21
235.7168306271
 31
0.0
  0
LINE
  5
E9
100
AcDbEntity
  8
BEMAßUNG
390
0
 62
       172
100
AcDbLine
 10
152.9204881273
 20
254.716830627
 30
0.0
 11
171.2210151241
 21
254.7168306271
 31
0.0
  0
LINE
  5
EA
100
AcDbEntity
  8
BEMAßUNG
390
0
 62
       172
100
AcDbLine
 10
152.9204881273
 20
235.716830627
 30
0.0
 11
171.2210151242
 21
235.7168306271
 31
0.0
  0
SOLID
  5
EB
100
AcDbEntity
  8
BEMAßUNG
390
0
100
AcDbTrace
 10
169.2210151241
 20
254.7168306271
 30
0.0
 11
169.6125937008
 21
251.7424960429
 31
0.0
 12
168.8294365475
 22
251.7424960429
 32
0.0
 13
168.8294365475
 23
251.7424960429
 33
0.0
  0
SOLID
  5
EC
100
AcDbEntity
  8
BEMAßUNG
390
0
100
AcDbTrace
 10
169.2210151242
 20
235.7168306271
 30
0.0
 11
168.8294365476
 21
238.6911652112
 31
0.0
 12
169.6125937009
 22
238.6911652112
 32
0.0
 13
169.6125937009
 23
238.6911652112
 33
0.0
  0
MTEXT
  5
ED
100
AcDbEntity
  8
BEMAßUNG
390
0
 62
       212
100
AcDbMText
 10
166.0370151242
 20
245.2168306271
 30
0.0
 40
3.0
 41
0.0
 71
         5
 72
         1
  1
\W1.135145;\A1;19
  7
Arial
 11
0.0
 21
1.0
 31
0.0
 73
         0
 44
0.0
  0
ENDBLK
  5
EE
100
AcDbEntity
  8
0
390
0
100
AcDbBlockEnd
  0
BLOCK
  5
F0
100
AcDbEntity
  8
BEMAßUNG
390
0
100
AcDbBlockBegin
  2
D201628672
 70
         0
 10
0.0
 20
0.0
 30
0.0
  3
D201628672
  1

  0
LINE
  5
F1
100
AcDbEntity
  8
BEMAßUNG
390
0
 62
       172
100
AcDbLine
 10
70.9125
 20
271.48875
 30
0.0
 11
70.9125
 21
254.4887500018
 31
0.0
  0
LINE
  5
F2
100
AcDbEntity
  8
BEMAßUNG
390
0
 62
       172
100
AcDbLine
 10
48.3295312499
 20
271.48875
 30
0.0
 11
72.9125
 21
271.48875
 31
0.0
  0
LINE
  5
F3
100
AcDbEntity
  8
BEMAßUNG
390
0
 62
       172
100
AcDbLine
 10
48.32953125
 20
254.4887500018
 30
0.0
 11
72.9125
 21
254.4887500018
 31
0.0
  0
SOLID
  5
F4
100
AcDbEntity
  8
BEMAßUNG
390
0
100
AcDbTrace
 10
70.9125
 20
271.48875
 30
0.0
 11
71.3040785767
 21
268.5144154159
 31
0.0
 12
70.5209214233
 22
268.5144154159
 32
0.0
 13
70.5209214233
 23
268.5144154159
 33
0.0
  0
SOLID
  5
F5
100
AcDbEntity
  8
BEMAßUNG
390
0
100
AcDbTrace
 10
70.9125
 20
254.4887500018
 30
0.0
 11
70.5209214233
 21
257.4630845859
 31
0.0
 12
71.3040785767
 22
257.4630845859
 32
0.0
 13
71.3040785767
 23
257.4630845859
 33
0.0
  0
MTEXT
  5
F6
100
AcDbEntity
  8
BEMAßUNG
390
0
 62
       212
100
AcDbMText
 10
67.7285
 20
262.9887500009
 30
0.0
 40
3.0
 41
0.0
 71
         5
 72
         1
  1
\W1.135145;\A1;17
  7
Arial
 11
0.0
 21
1.0
 31
0.0
 73
         0
 44
0.0
  0
ENDBLK
  5
F7
100
AcDbEntity
  8
0
390
0
100
AcDbBlockEnd
  0
BLOCK
  5
F9
100
AcDbEntity
  8
BEMAßUNG
390
0
100
AcDbBlockBegin
  2
D201628928
 70
         0
 10
0.0
 20
0.0
 30
0.0
  3
D201628928
  1

  0
LINE
  5
FA
100
AcDbEntity
  8
BEMAßUNG
390
0
 62
       172
100
AcDbLine
 10
72.616875
 20
132.6080504291
 30
0.0
 11
72.616875
 21
45.6080504309
 31
0.0
  0
LINE
  5
FB
100
AcDbEntity
  8
BEMAßUNG
390
0
 62
       172
100
AcDbLine
 10
48.4188304004
 20
132.6080504291
 30
0.0
 11
74.616875
 21
132.6080504291
 31
0.0
  0
LINE
  5
FC
100
AcDbEntity
  8
BEMAßUNG
390
0
 62
       172
100
AcDbLine
 10
48.32953125
 20
45.6080504309
 30
0.0
 11
74.616875
 21
45.6080504309
 31
0.0
  0
SOLID
  5
FD
100
AcDbEntity
  8
BEMAßUNG
390
0
100
AcDbTrace
 10
72.616875
 20
132.6080504291
 30
0.0
 11
73.0084535766
 21
129.633715845
 31
0.0
 12
72.2252964233
 22
129.633715845
 32
0.0
 13
72.2252964233
 23
129.633715845
 33
0.0
  0
SOLID
  5
FE
100
AcDbEntity
  8
BEMAßUNG
390
0
100
AcDbTrace
 10
72.616875
 20
45.6080504309
 30
0.0
 11
72.2252964233
 21
48.5823850151
 31
0.0
 12
73.0084535767
 22
48.5823850151
 32
0.0
 13
73.0084535767
 23
48.5823850151
 33
0.0
  0
MTEXT
  5
FF
100
AcDbEntity
  8
BEMAßUNG
390
0
 62
       212
100
AcDbMText
 10
69.432875
 20
89.10805043
 30
0.0
 40
3.0
 41
0.0
 71
         5
 72
         1
  1
\W1.135145;\A1;87
  7
Arial
 11
0.0
 21
1.0
 31
0.0
 73
         0
 44
0.0
  0
ENDBLK
  5
100
100
AcDbEntity
  8
0
390
0
100
AcDbBlockEnd
  0
BLOCK
  5
102
100
AcDbEntity
  8
BEMAßUNG
390
0
100
AcDbBlockBegin
  2
D201629184
 70
         0
 10
0.0
 20
0.0
 30
0.0
  3
D201629184
  1

  0
LINE
  5
103
100
AcDbEntity
  8
BEMAßUNG
390
0
 62
       172
100
AcDbLine
 10
129.28734375
 20
271.98875
 30
0.0
 11
129.28734375
 21
219.98875
 31
0.0
  0
LINE
  5
104
100
AcDbEntity
  8
BEMAßUNG
390
0
 62
       172
100
AcDbLine
 10
103.3295312499
 20
271.98875
 30
0.0
 11
131.28734375
 21
271.98875
 31
0.0
  0
LINE
  5
105
100
AcDbEntity
  8
BEMAßUNG
390
0
 62
       172
100
AcDbLine
 10
118.3295312499
 20
219.98875
 30
0.0
 11
131.28734375
 21
219.98875
 31
0.0
  0
SOLID
  5
106
100
AcDbEntity
  8
BEMAßUNG
390
0
100
AcDbTrace
 10
129.28734375
 20
271.98875
 30
0.0
 11
129.6789223267
 21
269.0144154159
 31
0.0
 12
128.8957651733
 22
269.0144154159
 32
0.0
 13
128.8957651733
 23
269.0144154159
 33
0.0
  0
SOLID
  5
107
100
AcDbEntity
  8
BEMAßUNG
390
0
100
AcDbTrace
 10
129.28734375
 20
219.98875
 30
0.0
 11
128.8957651733
 21
222.9630845841
 31
0.0
 12
129.6789223267
 22
222.9630845841
 32
0.0
 13
129.6789223267
 23
222.9630845841
 33
0.0
  0
MTEXT
  5
108
100
AcDbEntity
  8
BEMAßUNG
390
0
 62
       212
100
AcDbMText
 10
126.10334375
 20
245.98875
 30
0.0
 40
3.0
 41
0.0
 71
         5
 72
         1
  1
\W1.135145;\A1;52
  7
Arial
 11
0.0
 21
1.0
 31
0.0
 73
         0
 44
0.0
  0
ENDBLK
  5
109
100
AcDbEntity
  8
0
390
0
100
AcDbBlockEnd
  0
BLOCK
  5
10B
100
AcDbEntity
  8
BEMAßUNG
390
0
100
AcDbBlockBegin
  2
D201629440
 70
         0
 10
0.0
 20
0.0
 30
0.0
  3
D201629440
  1

  0
LINE
  5
10C
100
AcDbEntity
  8
BEMAßUNG
390
0
 62
       172
100
AcDbLine
 10
129.7134375
 20
196.7775816284
 30
0.0
 11
129.7134375
 21
144.7775816284
 31
0.0
  0
LINE
  5
10D
100
AcDbEntity
  8
BEMAßUNG
390
0
 62
       172
100
AcDbLine
 10
103.32953125
 20
196.7775816284
 30
0.0
 11
131.7134375
 21
196.7775816284
 31
0.0
  0
LINE
  5
10E
100
AcDbEntity
  8
BEMAßUNG
390
0
 62
       172
100
AcDbLine
 10
103.32953125
 20
144.7775816284
 30
0.0
 11
131.7134375
 21
144.7775816284
 31
0.0
  0
SOLID
  5
10F
100
AcDbEntity
  8
BEMAßUNG
390
0
100
AcDbTrace
 10
129.7134375
 20
196.7775816284
 30
0.0
 11
130.1050160767
 21
193.8032470443
 31
0.0
 12
129.3218589233
 22
193.8032470443
 32
0.0
 13
129.3218589233
 23
193.8032470443
 33
0.0
  0
SOLID
  5
110
100
AcDbEntity
  8
BEMAßUNG
390
0
100
AcDbTrace
 10
129.7134375
 20
144.7775816284
 30
0.0
 11
129.3218589233
 21
147.7519162125
 31
0.0
 12
130.1050160767
 22
147.7519162125
 32
0.0
 13
130.1050160767
 23
147.7519162125
 33
0.0
  0
MTEXT
  5
111
100
AcDbEntity
  8
BEMAßUNG
390
0
 62
       212
100
AcDbMText
 10
126.5294375
 20
170.7775816284
 30
0.0
 40
3.0
 41
0.0
 71
         5
 72
         1
  1
\W1.135145;\A1;52
  7
Arial
 11
0.0
 21
1.0
 31
0.0
 73
         0
 44
0.0
  0
ENDBLK
  5
112
100
AcDbEntity
  8
0
390
0
100
AcDbBlockEnd
  0
BLOCK
  5
114
100
AcDbEntity
  8
BEMAßUNG
390
0
100
AcDbBlockBegin
  2
D201577984
 70
         0
 10
0.0
 20
0.0
 30
0.0
  3
D201577984
  1

  0
LINE
  5
115
100
AcDbEntity
  8
BEMAßUNG
390
0
 62
       172
100
AcDbLine
 10
116.504531251
 20
116.2994039753
 30
0.0
 11
116.5045312495
 21
84.2994039753
 31
0.0
  0
LINE
  5
116
100
AcDbEntity
  8
BEMAßUNG
390
0
 62
       172
100
AcDbLine
 10
103.3288447689
 20
116.2994039759
 30
0.0
 11
118.504531251
 21
116.2994039752
 31
0.0
  0
LINE
  5
117
100
AcDbEntity
  8
BEMAßUNG
390
0
 62
       172
100
AcDbLine
 10
103.328844769
 20
84.2994039759
 30
0.0
 11
118.5045312495
 21
84.2994039752
 31
0.0
  0
SOLID
  5
118
100
AcDbEntity
  8
BEMAßUNG
390
0
100
AcDbTrace
 10
116.504531251
 20
116.2994039753
 30
0.0
 11
116.8961098275
 21
113.3250693911
 31
0.0
 12
116.1129526742
 22
113.3250693912
 32
0.0
 13
116.1129526742
 23
113.3250693912
 33
0.0
  0
SOLID
  5
119
100
AcDbEntity
  8
BEMAßUNG
390
0
100
AcDbTrace
 10
116.5045312495
 20
84.2994039753
 30
0.0
 11
116.1129526729
 21
87.2737385594
 31
0.0
 12
116.8961098263
 22
87.2737385594
 32
0.0
 13
116.8961098263
 23
87.2737385594
 33
0.0
  0
MTEXT
  5
11A
100
AcDbEntity
  8
BEMAßUNG
390
0
 62
       212
100
AcDbMText
 10
113.3205312502
 20
100.2994039754
 30
0.0
 40
3.0
 41
0.0
 71
         5
 72
         1
  1
\W1.135145;\A1;32
  7
Arial
 11
0.0
 21
1.0
 31
0.0
 73
         0
 44
0.0
  0
ENDBLK
  5
11B
100
AcDbEntity
  8
0
390
0
100
AcDbBlockEnd
  0
BLOCK
  5
11D
100
AcDbEntity
  8
BEMAßUNG
390
0
100
AcDbBlockBegin
  2
D201577728
 70
         0
 10
0.0
 20
0.0
 30
0.0
  3
D201577728
  1

  0
LINE
  5
11E
100
AcDbEntity
  8
BEMAßUNG
390
0
 62
       172
100
AcDbLine
 10
197.5664462003
 20
196.707822758
 30
0.0
 11
197.5664462003
 21
154.707822758
 31
0.0
  0
LINE
  5
11F
100
AcDbEntity
  8
BEMAßUNG
390
0
 62
       172
100
AcDbLine
 10
145.1614736736
 20
196.707822758
 30
0.0
 11
199.5664462003
 21
196.707822758
 31
0.0
  0
LINE
  5
120
100
AcDbEntity
  8
BEMAßUNG
390
0
 62
       172
100
AcDbLine
 10
145.1614736736
 20
154.707822758
 30
0.0
 11
199.5664462003
 21
154.707822758
 31
0.0
  0
SOLID
  5
121
100
AcDbEntity
  8
BEMAßUNG
390
0
100
AcDbTrace
 10
197.5664462003
 20
196.707822758
 30
0.0
 11
197.9580247769
 21
193.7334881739
 31
0.0
 12
197.1748676236
 22
193.7334881739
 32
0.0
 13
197.1748676236
 23
193.7334881739
 33
0.0
  0
SOLID
  5
122
100
AcDbEntity
  8
BEMAßUNG
390
0
100
AcDbTrace
 10
197.5664462003
 20
154.707822758
 30
0.0
 11
197.1748676236
 21
157.6821573421
 31
0.0
 12
197.9580247769
 22
157.6821573421
 32
0.0
 13
197.9580247769
 23
157.6821573421
 33
0.0
  0
MTEXT
  5
123
100
AcDbEntity
  8
BEMAßUNG
390
0
 62
       212
100
AcDbMText
 10
194.3824462003
 20
175.707822758
 30
0.0
 40
3.0
 41
0.0
 71
         5
 72
         1
  1
\W1.135145;\A1;42
  7
Arial
 11
0.0
 21
1.0
 31
0.0
 73
         0
 44
0.0
  0
ENDBLK
  5
124
100
AcDbEntity
  8
0
390
0
100
AcDbBlockEnd
  0
ENDSEC
  0
SECTION
  2
ENTITIES
  0
TEXT
  5
125
100
AcDbEntity
  8
BESCHRIFTUNG
390
0
100
AcDbText
 10
129.6929117117
 20
6.9230888889
 30
0.0
 40
3.3
  1
2654 Pv W- und Gsp-Antrieb
 41
1.1437037866
  7
Arial
 11
129.6929117117
 21
10.2230888889
 31
0.0
100
AcDbText
 73
         3
  0
TEXT
  5
126
100
AcDbEntity
  8
BESCHRIFTUNG
390
0
100
AcDbText
 10
129.6929117117
 20
29.3230888889
 30
0.0
 40
3.3
  1
2026-03-22
 41
1.0318366
  7
Arial
 11
129.6929117117
 21
32.6230888889
 31
0.0
100
AcDbText
 73
         3
  0
CIRCLE
  5
127
100
AcDbEntity
  8
2654_5L
390
0
100
AcDbCircle
 10
46.32953125
 20
264.98875
 30
0.0
 40
1.25
  0
TEXT
  5
128
100
AcDbEntity
  8
BESCHRIFTUNG
390
0
100
AcDbText
 10
78.8165306218
 20
279.4755082791
 30
0.0
 40
3.0
  1
2654.1L,R
 41
1.1351032927
  7
Arial
 11
78.8165306218
 21
282.4755082791
 31
0.0
100
AcDbText
 73
         3
  0
TEXT
  5
129
100
AcDbEntity
  8
BESCHRIFTUNG
390
0
100
AcDbText
 10
28.9168463798
 20
279.8127195334
 30
0.0
 40
3.0
  1
2654.5L,R
 41
1.1351032223
  7
Arial
 11
28.9168463798
 21
282.8127195334
 31
0.0
100
AcDbText
 73
         3
  0
ARC
  5
12A
100
AcDbEntity
  8
2654_4P
370
        25
390
0
100
AcDbCircle
 10
166.1614736736
 20
175.707822758
 30
0.0
 40
21.0
100
AcDbArc
 50
120.0000000001
 51
240.0
  0
ARC
  5
12B
100
AcDbEntity
  8
2654_4P
370
        25
390
0
  6
DIVIDE
100
AcDbCircle
 10
166.1614736736
 20
175.707822758
 30
0.0
 40
21.0
100
AcDbArc
 50
59.9999999989
 51
120.0000000001
  0
ARC
  5
12C
100
AcDbEntity
  8
2654_4P
370
        25
390
0
100
AcDbCircle
 10
166.1614736736
 20
175.707822758
 30
0.0
 40
21.0
100
AcDbArc
 50
299.9999999998
 51
419.9999999989
  0
ARC
  5
12D
100
AcDbEntity
  8
2654_4P
370
        25
390
0
  6
DIVIDE
100
AcDbCircle
 10
166.1614736736
 20
175.707822758
 30
0.0
 40
21.0
100
AcDbArc
 50
240.0
 51
299.9999999998
  0
CIRCLE
  5
12E
100
AcDbEntity
  8
2654_4P
370
        25
390
0
  6
PHANTOM
100
AcDbCircle
 10
145.1614736736
 20
196.707822758
 30
0.0
 40
0.5
  0
CIRCLE
  5
12F
100
AcDbEntity
  8
2654_4P
370
        25
390
0
  6
PHANTOM
100
AcDbCircle
 10
145.1614736736
 20
154.707822758
 30
0.0
 40
1.0
  0
LINE
  5
130
100
AcDbEntity
  8
2654_4P
370
        25
390
0
  6
DASHED
100
AcDbLine
 10
145.1614736736
 20
196.707822758
 30
0.0
 11
155.661473674
 21
193.8943562365
 31
0.0
  0
LINE
  5
131
100
AcDbEntity
  8
2654_4P
370
        25
390
0
  6
DIVIDE
100
AcDbLine
 10
155.661473674
 20
193.8943562365
 30
0.0
 11
158.6614736735
 21
188.6982038147
 31
0.0
  0
LINE
  5
132
100
AcDbEntity
  8
MITTELLINIEN
390
0
100
AcDbLine
 10
145.1614736736
 20
201.707822758
 30
0.0
 11
145.1614736736
 21
149.707822758
 31
0.0
  0
LINE
  5
133
100
AcDbEntity
  8
MITTELLINIEN
390
0
100
AcDbLine
 10
187.1614736736
 20
201.707822758
 30
0.0
 11
187.1614736736
 21
149.707822758
 31
0.0
  0
INSERT
  5
134
100
AcDbEntity
  8
BEMAßUNG
390
0
100
AcDbBlockReference
  2
D201627904
 10
0.0
 20
0.0
 30
0.0
  0
CIRCLE
  5
135
100
AcDbEntity
  8
2654_5L
370
        25
390
0
  6
PHANTOM
100
AcDbCircle
 10
33.3295312499
 20
271.48875
 30
0.0
 40
0.5
  0
CIRCLE
  5
136
100
AcDbEntity
  8
2654_5L
370
        25
390
0
  6
PHANTOM
100
AcDbCircle
 10
33.32953125
 20
254.48875
 30
0.0
 40
1.0
  0
CIRCLE
  5
137
100
AcDbEntity
  8
2654_8L
370
        25
390
0
  6
PHANTOM
100
AcDbCircle
 10
33.32953125
 20
229.4841555086
 30
0.0
 40
0.5
  0
CIRCLE
  5
138
100
AcDbEntity
  8
2654_8L
370
        25
390
0
  6
PHANTOM
100
AcDbCircle
 10
33.32953125
 20
152.4841555086
 30
0.0
 40
1.0
  0
CIRCLE
  5
139
100
AcDbEntity
  8
2654_8R
370
        25
390
0
  6
PHANTOM
100
AcDbCircle
 10
48.32953125
 20
229.4841555086
 30
0.0
 40
0.5
  0
CIRCLE
  5
13A
100
AcDbEntity
  8
2654_8R
370
        25
390
0
  6
PHANTOM
100
AcDbCircle
 10
48.32953125
 20
152.4841555086
 30
0.0
 40
1.0
  0
LINE
  5
13B
100
AcDbEntity
  8
2654_5 STELLHEBEL
390
0
100
AcDbLine
 10
50.32953125
 20
266.98875
 30
0.0
 11
54.32953125
 21
266.98875
 31
0.0
  0
LINE
  5
13C
100
AcDbEntity
  8
2654_5 STELLHEBEL
390
0
100
AcDbLine
 10
54.32953125
 20
266.98875
 30
0.0
 11
54.32953125
 21
263.23875
 31
0.0
  0
LINE
  5
13D
100
AcDbEntity
  8
2654_5 STELLHEBEL
390
0
100
AcDbLine
 10
54.32953125
 20
263.23875
 30
0.0
 11
50.32953125
 21
263.23875
 31
0.0
  0
LINE
  5
13E
100
AcDbEntity
  8
2654_5 STELLHEBEL
390
0
100
AcDbLine
 10
50.32953125
 20
263.23875
 30
0.0
 11
50.32953125
 21
266.98875
 31
0.0
  0
LINE
  5
13F
100
AcDbEntity
  8
2654_5L
390
0
  6
DIVIDE
100
AcDbLine
 10
33.3295312499
 20
271.48875
 30
0.0
 11
48.3295312499
 21
271.48875
 31
0.0
  0
LINE
  5
140
100
AcDbEntity
  8
2654_5L
390
0
  6
DIVIDE
100
AcDbLine
 10
48.32953125
 20
254.4887500018
 30
0.0
 11
46.1981448405
 21
254.4887500014
 31
0.0
  0
LINE
  5
141
100
AcDbEntity
  8
2654_5R
390
0
100
AcDbLine
 10
51.12953125
 20
265.98875
 30
0.0
 11
53.32953125
 21
265.98875
 31
0.0
  0
LINE
  5
142
100
AcDbEntity
  8
2654_5R
390
0
100
AcDbLine
 10
51.12953125
 20
264.23875
 30
0.0
 11
51.12953125
 21
265.98875
 31
0.0
  0
LINE
  5
143
100
AcDbEntity
  8
2654_5R
390
0
100
AcDbLine
 10
53.32953125
 20
264.23875
 30
0.0
 11
51.12953125
 21
264.23875
 31
0.0
  0
LINE
  5
144
100
AcDbEntity
  8
2654_5R
390
0
100
AcDbLine
 10
53.32953125
 20
265.98875
 30
0.0
 11
53.32953125
 21
264.23875
 31
0.0
  0
LINE
  5
145
100
AcDbEntity
  8
2654_5R
390
0
  6
DIVIDE
100
AcDbLine
 10
48.3295312499
 20
271.48875
 30
0.0
 11
63.3295312499
 21
271.48875
 31
0.0
  0
LINE
  5
146
100
AcDbEntity
  8
2654_5R
390
0
  6
DIVIDE
100
AcDbLine
 10
48.32953125
 20
254.4887500018
 30
0.0
 11
63.32953125
 21
254.48875
 31
0.0
  0
LINE
  5
147
100
AcDbEntity
  8
2654_8L
390
0
  6
DIVIDE
100
AcDbLine
 10
33.32953125
 20
229.4841555086
 30
0.0
 11
48.32953125
 21
229.4841555086
 31
0.0
  0
LINE
  5
148
100
AcDbEntity
  8
2654_8L
390
0
  6
DIVIDE
100
AcDbLine
 10
33.32953125
 20
152.4841555086
 30
0.0
 11
48.32953125
 21
152.4841555086
 31
0.0
  0
LINE
  5
149
100
AcDbEntity
  8
2654_8R
390
0
  6
DIVIDE
100
AcDbLine
 10
48.32953125
 20
229.4841555086
 30
0.0
 11
63.32953125
 21
229.4841555086
 31
0.0
  0
LINE
  5
14A
100
AcDbEntity
  8
2654_8R
390
0
  6
DIVIDE
100
AcDbLine
 10
48.32953125
 20
152.4841555086
 30
0.0
 11
63.3295312501
 21
152.4841555086
 31
0.0
  0
INSERT
  5
14B
100
AcDbEntity
  8
BEMAßUNG
390
0
100
AcDbBlockReference
  2
D201628160
 10
0.0
 20
0.0
 30
0.0
  0
MTEXT
  5
14C
100
AcDbEntity
  8
2654_4P
390
0
100
AcDbMText
 10
136.2452051389
 20
201.5909967238
 30
0.0
 40
2.0
 41
0.0
 71
         1
 72
         1
  1
\W1.135108;M42+x2 F150\PT2 O2 S4 I1,2\PB-0,3     D1,2
  7
Arial
 73
         1
 44
0.66
  0
MTEXT
  5
14D
100
AcDbEntity
  8
2654___ W-_ GSP-_ SIGNAL-ANTRIEB
390
0
100
AcDbMText
 10
28.3719715345
 20
264.207094885
 30
0.0
 40
2.0
 41
0.0
 71
         5
 72
         1
  1
\W0.810845;>2654.5L\PM15x15x2\PT2 O2
  7
Arial
 73
         1
 44
0.66
  0
ARC
  5
14E
100
AcDbEntity
  8
2654___ W-_ GSP-_ SIGNAL-ANTRIEB
390
0
  6
DASHDOT
100
AcDbCircle
 10
40.7445390832
 20
262.98875
 30
0.0
 40
11.2797314315
100
AcDbArc
 50
131.0999434524
 51
228.9000565483
  0
MTEXT
  5
14F
100
AcDbEntity
  8
2654_1L
390
0
100
AcDbMText
 10
81.1663328217
 20
276.8154599346
 30
0.0
 40
2.0
 41
0.0
 71
         1
 72
         1
  1
\W0.810867;M15x15x2 F150\PT2 O2 S4 I1,2\PB-0,3     D1,5
  7
Arial
 73
         1
 44
0.66
  0
TEXT
  5
150
100
AcDbEntity
  8
2654_5R
390
0
100
AcDbText
 10
42.0626932233
 20
271.1842532192
 30
0.0
 40
2.0
  1
@2654.1L
 41
1.1351288941
  7
Arial
 11
42.0626932233
 21
273.1842532192
 31
0.0
100
AcDbText
 73
         3
  0
TEXT
  5
151
100
AcDbEntity
  8
2654_8R
390
0
100
AcDbText
 10
42.0626932234
 20
229.1796587278
 30
0.0
 40
2.0
  1
@2654.1L
 41
1.1351288941
  7
Arial
 11
42.0626932234
 21
231.1796587278
 31
0.0
100
AcDbText
 73
         3
  0
TEXT
  5
152
100
AcDbEntity
  8
2654_8L
390
0
100
AcDbText
 10
27.0626932234
 20
229.1796587278
 30
0.0
 40
2.0
  1
@2654.1L
 41
1.1351288941
  7
Arial
 11
27.0626932234
 21
231.1796587278
 31
0.0
100
AcDbText
 73
         3
  0
ARC
  5
153
100
AcDbEntity
  8
2654___ W-_ GSP-_ SIGNAL-ANTRIEB
390
0
  6
DASHDOT
100
AcDbCircle
 10
66.9151549651
 20
190.9841555086
 30
0.0
 40
51.0905482485
100
AcDbArc
 50
131.099943452
 51
228.900056548
  0
MTEXT
  5
154
100
AcDbEntity
  8
2654___ W-_ GSP-_ SIGNAL-ANTRIEB
390
0
100
AcDbMText
 10
28.3719715346
 20
222.2025003936
 30
0.0
 40
2.0
 41
0.0
 71
         5
 72
         1
  1
\W0.810845;>2654.8L\PM15x15x2\PT2 O2
  7
Arial
 73
         1
 44
0.66
  0
ARC
  5
155
100
AcDbEntity
  8
2654___ W-_ GSP-_ SIGNAL-ANTRIEB
390
0
  6
DASHDOT
100
AcDbCircle
 10
163.4809047909
 20
175.707822758
 30
0.0
 40
27.8675717719
100
AcDbArc
 50
131.099943452
 51
228.900056548
  0
MTEXT
  5
156
100
AcDbEntity
  8
2654___ W-_ GSP-_ SIGNAL-ANTRIEB
390
0
100
AcDbMText
 10
140.2039139582
 20
189.426167643
 30
0.0
 40
2.0
 41
0.0
 71
         5
 72
         1
  1
\W0.810845;>2654.4P\PM42+x2\PT2 O2
  7
Arial
 73
         1
 44
0.66
  0
LINE
  5
157
100
AcDbEntity
  8
2654_5L
390
0
100
AcDbLine
 10
41.3028500159
 20
264.98875
 30
0.0
 11
42.2899624938
 21
264.98875
 31
0.0
  0
ARC
  5
158
100
AcDbEntity
  8
2654_5L
390
0
100
AcDbCircle
 10
54.1077058431
 20
272.7669245931
 30
0.0
 40
16.0
100
AcDbArc
 50
195.0
 51
207.1975102308
  0
ARC
  5
159
100
AcDbEntity
  8
2654_5L
390
0
100
AcDbCircle
 10
54.1077058431
 20
257.210575407
 30
0.0
 40
16.0
100
AcDbArc
 50
152.8024897693
 51
165.0000000001
  0
LINE
  5
15A
100
AcDbEntity
  8
2654_5L
390
0
100
AcDbLine
 10
39.8767260752
 20
265.4539761557
 30
0.0
 11
41.3028500159
 21
264.98875
 31
0.0
  0
LINE
  5
15B
100
AcDbEntity
  8
2654_5L
390
0
100
AcDbLine
 10
39.8767260752
 20
264.5235238443
 30
0.0
 11
41.3028500159
 21
264.98875
 31
0.0
  0
LINE
  5
15C
100
AcDbEntity
  8
2654_5L
390
0
  6
DASHED
100
AcDbLine
 10
46.32953125
 20
264.98875
 30
0.0
 11
38.6528926224
 21
268.6258198714
 31
0.0
  0
ARC
  5
15D
100
AcDbEntity
  8
2654_5L
390
0
  6
DASHED
100
AcDbCircle
 10
41.7964062549
 20
265.6621989893
 30
0.0
 40
0.8349438917
100
AcDbArc
 50
306.2368849546
 51
593.7631150455
  0
ARC
  5
15E
100
AcDbEntity
  8
2654_5L
390
0
  6
DASHED
100
AcDbCircle
 10
39.0706919365
 20
251.6873416725
 30
0.0
 40
9.673365188
100
AcDbArc
 50
16.8340210839
 51
92.4754142618
  0
CIRCLE
  5
15F
100
AcDbEntity
  8
2654_5 STELLHEBEL
390
0
100
AcDbCircle
 10
46.32953125
 20
264.98875
 30
0.0
 40
1.25
  0
ARC
  5
160
100
AcDbEntity
  8
2654_5 STELLHEBEL
390
0
100
AcDbCircle
 10
54.1077058431
 20
257.210575407
 30
0.0
 40
15.0
100
AcDbArc
 50
154.3533474933
 51
165.0000000001
  0
ARC
  5
161
100
AcDbEntity
  8
2654_5 STELLHEBEL
390
0
100
AcDbCircle
 10
54.1077058431
 20
257.210575407
 30
0.0
 40
17.0
100
AcDbArc
 50
152.7715387265
 51
165.0000000001
  0
ARC
  5
162
100
AcDbEntity
  8
2654_5 STELLHEBEL
390
0
100
AcDbCircle
 10
54.1077058431
 20
272.7669245931
 30
0.0
 40
17.0
100
AcDbArc
 50
195.0
 51
207.2284612736
  0
ARC
  5
163
100
AcDbEntity
  8
2654_5 STELLHEBEL
390
0
100
AcDbCircle
 10
54.1077058431
 20
272.7669245931
 30
0.0
 40
15.0
100
AcDbArc
 50
195.0
 51
205.6466525068
  0
ARC
  5
164
100
AcDbEntity
  8
2654_5 STELLHEBEL
390
0
100
AcDbCircle
 10
42.2899624938
 20
264.98875
 30
0.0
 40
1.0
100
AcDbArc
 50
270.0000000001
 51
450.0000000001
  0
ARC
  5
165
100
AcDbEntity
  8
2654_5 STELLHEBEL
390
0
100
AcDbCircle
 10
38.6528926224
 20
261.3516801286
 30
0.0
 40
1.0
100
AcDbArc
 50
165.0000000001
 51
345.0000000001
  0
ARC
  5
166
100
AcDbEntity
  8
2654_5 STELLHEBEL
390
0
100
AcDbCircle
 10
38.6528926224
 20
268.6258198714
 30
0.0
 40
1.0
100
AcDbArc
 50
15.0
 51
195.0
  0
CIRCLE
  5
167
100
AcDbEntity
  8
2654_4P
390
0
  6
DIVIDE
100
AcDbCircle
 10
161.1614736735
 20
184.3680767958
 30
0.0
 40
1.0
  0
CIRCLE
  5
168
100
AcDbEntity
  8
2654_8L
390
0
100
AcDbCircle
 10
43.4748816747
 20
156.4843579295
 30
0.0
 40
1.25
  0
CIRCLE
  5
169
100
AcDbEntity
  8
2654_8L
390
0
100
AcDbCircle
 10
43.4748816747
 20
225.4866201403
 30
0.0
 40
1.25
  0
CIRCLE
  5
16A
100
AcDbEntity
  8
2654_8R
390
0
100
AcDbCircle
 10
53.9748816747
 20
225.4864177194
 30
0.0
 40
1.25
  0
CIRCLE
  5
16B
100
AcDbEntity
  8
2654_8R
390
0
100
AcDbCircle
 10
53.9748816747
 20
156.4841555086
 30
0.0
 40
1.25
  0
CIRCLE
  5
16C
100
AcDbEntity
  8
2654_10R
390
0
100
AcDbCircle
 10
54.4856490355
 20
128.6005150626
 30
0.0
 40
1.25
  0
CIRCLE
  5
16D
100
AcDbEntity
  8
2654_10R
390
0
100
AcDbCircle
 10
54.4856490355
 20
49.5980504309
 30
0.0
 40
1.25
  0
CIRCLE
  5
16E
100
AcDbEntity
  8
2654_4 ANTRIEBSRAD
390
0
100
AcDbCircle
 10
166.1614736736
 20
175.707822758
 30
0.0
 40
20.0
  0
CIRCLE
  5
16F
100
AcDbEntity
  8
2654_4P
390
0
100
AcDbCircle
 10
166.1614736736
 20
175.707822758
 30
0.0
 40
1.25
  0
LINE
  5
170
100
AcDbEntity
  8
2654_6 RIEGELZAPFEN
390
0
100
AcDbLine
 10
152.9204881273
 20
253.716830627
 30
0.0
 11
158.9204881273
 21
253.716830627
 31
0.0
  0
LINE
  5
171
100
AcDbEntity
  8
2654_6 RIEGELZAPFEN
390
0
100
AcDbLine
 10
158.9204881273
 20
253.716830627
 30
0.0
 11
158.9204881273
 21
243.716830627
 31
0.0
  0
LINE
  5
172
100
AcDbEntity
  8
2654_6 RIEGELZAPFEN
390
0
100
AcDbLine
 10
158.9204881273
 20
244.216830627
 30
0.0
 11
155.9204881273
 21
244.216830627
 31
0.0
  0
LINE
  5
173
100
AcDbEntity
  8
2654_6 RIEGELZAPFEN
390
0
100
AcDbLine
 10
152.9204881273
 20
236.716830627
 30
0.0
 11
152.9204881273
 21
253.716830627
 31
0.0
  0
LINE
  5
174
100
AcDbEntity
  8
2654_6 RIEGELZAPFEN
390
0
100
AcDbLine
 10
155.9204881273
 20
236.716830627
 30
0.0
 11
152.9204881273
 21
236.716830627
 31
0.0
  0
LINE
  5
175
100
AcDbEntity
  8
2654_6 RIEGELZAPFEN
390
0
  6
DASHED
100
AcDbLine
 10
153.9204881273
 20
253.716830627
 30
0.0
 11
153.9204881273
 21
236.716830627
 31
0.0
  0
LINE
  5
176
100
AcDbEntity
  8
2654_6 RIEGELZAPFEN
390
0
  6
DASHED
100
AcDbLine
 10
157.9204881273
 20
253.716830627
 30
0.0
 11
157.9204881273
 21
243.716830627
 31
0.0
  0
LINE
  5
177
100
AcDbEntity
  8
2654_6 RIEGELZAPFEN
390
0
  6
DASHED
100
AcDbLine
 10
155.9204881273
 20
244.216830627
 30
0.0
 11
152.9204881273
 21
244.216830627
 31
0.0
  0
LINE
  5
178
100
AcDbEntity
  8
2654_6 RIEGELZAPFEN
390
0
  6
DASHED
100
AcDbLine
 10
158.9204881273
 20
247.216830627
 30
0.0
 11
152.9204881273
 21
247.216830627
 31
0.0
  0
CIRCLE
  5
179
100
AcDbEntity
  8
2654_4P
390
0
  6
DIVIDE
100
AcDbCircle
 10
158.6614736736
 20
188.6982038146
 30
0.0
 40
1.0
  0
CIRCLE
  5
17A
100
AcDbEntity
  8
2654_4P
390
0
100
AcDbCircle
 10
152.3054503101
 20
167.7080439392
 30
0.0
 40
1.25
  0
CIRCLE
  5
17B
100
AcDbEntity
  8
2654_8R
390
0
100
AcDbCircle
 10
52.57953125
 20
202.6048419896
 30
0.0
 40
1.25
  0
LINE
  5
17C
100
AcDbEntity
  8
2654_5 STELLHEBEL
390
0
100
AcDbLine
 10
40.5854997521
 20
266.274625891
 30
0.0
 11
41.4618358035
 21
265.98875
 31
0.0
  0
LINE
  5
17D
100
AcDbEntity
  8
2654_5 STELLHEBEL
390
0
100
AcDbLine
 10
33.32953125
 20
270.48875
 30
0.0
 11
48.32953125
 21
270.48875
 31
0.0
  0
LINE
  5
17E
100
AcDbEntity
  8
2654_5 STELLHEBEL
390
0
100
AcDbLine
 10
40.5854997522
 20
263.702874109
 30
0.0
 11
41.4618358035
 21
263.98875
 31
0.0
  0
LINE
  5
17F
100
AcDbEntity
  8
2654_5 STELLHEBEL
390
0
100
AcDbLine
 10
39.565090611
 20
257.2974841362
 30
0.0
 11
33.32953125
 21
262.7816361465
 31
0.0
  0
LINE
  5
180
100
AcDbEntity
  8
2654_5 STELLHEBEL
390
0
100
AcDbLine
 10
33.32953125
 20
262.7816361465
 30
0.0
 11
33.32953125
 21
270.48875
 31
0.0
  0
LINE
  5
181
100
AcDbEntity
  8
2654_5 STELLHEBEL
390
0
  6
DASHED
100
AcDbLine
 10
46.32953125
 20
255.48875
 30
0.0
 11
46.32953125
 21
270.48875
 31
0.0
  0
LINE
  5
182
100
AcDbEntity
  8
2654_5 STELLHEBEL
390
0
100
AcDbLine
 10
39.565090611
 20
257.2974841362
 30
0.0
 11
46.32953125
 21
255.48875
 31
0.0
  0
LINE
  5
183
100
AcDbEntity
  8
2654_5 STELLHEBEL
390
0
100
AcDbLine
 10
48.32953125
 20
255.48875
 30
0.0
 11
48.32953125
 21
270.48875
 31
0.0
  0
LINE
  5
184
100
AcDbEntity
  8
2654_5 STELLHEBEL
390
0
100
AcDbLine
 10
41.4618358035
 20
265.98875
 30
0.0
 11
42.2899624938
 21
265.98875
 31
0.0
  0
LINE
  5
185
100
AcDbEntity
  8
2654_5 STELLHEBEL
390
0
100
AcDbLine
 10
41.4618358035
 20
263.98875
 30
0.0
 11
42.2899624938
 21
263.98875
 31
0.0
  0
LINE
  5
186
100
AcDbEntity
  8
2654_5 STELLHEBEL
390
0
  6
DASHED
100
AcDbLine
 10
50.32953125
 20
255.48875
 30
0.0
 11
50.32953125
 21
270.48875
 31
0.0
  0
LINE
  5
187
100
AcDbEntity
  8
2654_5 STELLHEBEL
390
0
100
AcDbLine
 10
58.32953125
 20
255.48875
 30
0.0
 11
58.32953125
 21
270.48875
 31
0.0
  0
LINE
  5
188
100
AcDbEntity
  8
2654_5 STELLHEBEL
390
0
100
AcDbLine
 10
48.32953125
 20
270.48875
 30
0.0
 11
58.32953125
 21
270.48875
 31
0.0
  0
LINE
  5
189
100
AcDbEntity
  8
2654_5 STELLHEBEL
390
0
100
AcDbLine
 10
58.32953125
 20
255.48875
 30
0.0
 11
48.32953125
 21
255.48875
 31
0.0
  0
LINE
  5
18A
100
AcDbEntity
  8
MITTELLINIEN
390
0
100
AcDbLine
 10
33.32953125
 20
276.48875
 30
0.0
 11
33.32953125
 21
4.409426242
 31
0.0
  0
LINE
  5
18B
100
AcDbEntity
  8
MITTELLINIEN
390
0
100
AcDbLine
 10
63.32953125
 20
276.48875
 30
0.0
 11
63.32953125
 21
5.3299347051
 31
0.0
  0
LINE
  5
18C
100
AcDbEntity
  8
2654_5L
390
0
100
AcDbLine
 10
39.0805318618
 20
256.3919183859
 30
0.0
 11
32.6691164981
 21
262.0307351174
 31
0.0
  0
ARC
  5
18D
100
AcDbEntity
  8
2654_5L
390
0
  6
DASHED
100
AcDbCircle
 10
31.1857045005
 20
258.1009327799
 30
0.0
 40
4.2004592091
100
AcDbArc
 50
300.6890872202
 51
429.3196062313
  0
ARC
  5
18E
100
AcDbEntity
  8
2654_5L
390
0
  6
DASHED
100
AcDbCircle
 10
48.7987178749
 20
267.786692577
 30
0.0
 40
3.7316705713
100
AcDbArc
 50
97.2229713202
 51
228.5715707433
  0
CIRCLE
  5
18F
100
AcDbEntity
  8
2654_5R
370
        25
390
0
  6
PHANTOM
100
AcDbCircle
 10
48.3295312499
 20
271.4887500018
 30
0.0
 40
0.5
  0
CIRCLE
  5
190
100
AcDbEntity
  8
2654_5R
370
        25
390
0
  6
PHANTOM
100
AcDbCircle
 10
48.32953125
 20
254.4887500018
 30
0.0
 40
1.0
  0
CIRCLE
  5
191
100
AcDbEntity
  8
2654_5R
390
0
100
AcDbCircle
 10
56.32953125
 20
266.48875
 30
0.0
 40
1.25
  0
CIRCLE
  5
192
100
AcDbEntity
  8
2654_5R
390
0
100
AcDbCircle
 10
53.32953125
 20
259.18875
 30
0.0
 40
1.5
  0
LINE
  5
193
100
AcDbEntity
  8
2654_5R
390
0
  6
DASHED
100
AcDbLine
 10
56.32953125
 20
266.48875
 30
0.0
 11
53.32953125
 21
265.98875
 31
0.0
  0
LINE
  5
194
100
AcDbEntity
  8
2654_5R
390
0
  6
DASHED
100
AcDbLine
 10
53.32953125
 20
265.98875
 30
0.0
 11
53.32953125
 21
259.18875
 31
0.0
  0
LINE
  5
195
100
AcDbEntity
  8
2654_8L
390
0
100
AcDbLine
 10
38.3302320995
 20
228.4841555086
 30
0.0
 11
38.3302320995
 21
204.6048419896
 31
0.0
  0
LINE
  5
196
100
AcDbEntity
  8
2654_8L
390
0
100
AcDbLine
 10
38.3302320995
 20
204.6048419896
 30
0.0
 11
45.57953125
 21
204.6048419896
 31
0.0
  0
LINE
  5
197
100
AcDbEntity
  8
2654_8L
390
0
100
AcDbLine
 10
45.57953125
 20
200.6048419896
 30
0.0
 11
38.3302320995
 21
200.6048419896
 31
0.0
  0
LINE
  5
198
100
AcDbEntity
  8
2654_8L
390
0
100
AcDbLine
 10
38.3302320995
 20
193.2371699384
 30
0.0
 11
46.32953125
 21
193.2371699384
 31
0.0
  0
LINE
  5
199
100
AcDbEntity
  8
2654_8L
390
0
100
AcDbLine
 10
38.3302320995
 20
188.9871699384
 30
0.0
 11
46.32953125
 21
188.9871699384
 31
0.0
  0
LINE
  5
19A
100
AcDbEntity
  8
2654_8L
390
0
100
AcDbLine
 10
38.3302320995
 20
200.6048419896
 30
0.0
 11
38.3302320995
 21
193.2371699384
 31
0.0
  0
LINE
  5
19B
100
AcDbEntity
  8
2654_8L
390
0
100
AcDbLine
 10
38.3302320995
 20
188.9871699384
 30
0.0
 11
38.3302320995
 21
153.4841555086
 31
0.0
  0
LINE
  5
19C
100
AcDbEntity
  8
2654_8R
390
0
100
AcDbLine
 10
57.82953125
 20
228.4839530877
 30
0.0
 11
57.82953125
 21
153.4841555086
 31
0.0
  0
LINE
  5
19D
100
AcDbEntity
  8
2654_8R
390
0
100
AcDbLine
 10
53.4802653551
 20
218.9839530877
 30
0.0
 11
53.4802653551
 21
206.9839530877
 31
0.0
  0
LINE
  5
19E
100
AcDbEntity
  8
2654_8R
390
0
100
AcDbLine
 10
54.4802653551
 20
206.9839530877
 30
0.0
 11
54.4802653551
 21
218.9839530877
 31
0.0
  0
ARC
  5
19F
100
AcDbEntity
  8
2654_8R
390
0
100
AcDbCircle
 10
53.9802653551
 20
218.9839530877
 30
0.0
 40
0.5
100
AcDbArc
 50
0.0
 51
180.0
  0
ARC
  5
1A0
100
AcDbEntity
  8
2654_8R
390
0
100
AcDbCircle
 10
53.9802653551
 20
206.9839530877
 30
0.0
 40
0.5
100
AcDbArc
 50
180.0
 51
360.0
  0
LINE
  5
1A1
100
AcDbEntity
  8
2654_8R
390
0
100
AcDbLine
 10
53.4802653551
 20
162.9841555086
 30
0.0
 11
53.4802653551
 21
181.9841555086
 31
0.0
  0
LINE
  5
1A2
100
AcDbEntity
  8
2654_8R
390
0
100
AcDbLine
 10
54.4802653551
 20
162.9841555086
 30
0.0
 11
54.4802653551
 21
181.9841555086
 31
0.0
  0
ARC
  5
1A3
100
AcDbEntity
  8
2654_8R
390
0
100
AcDbCircle
 10
53.9802653551
 20
162.9841555086
 30
0.0
 40
0.5
100
AcDbArc
 50
180.0
 51
360.0
  0
ARC
  5
1A4
100
AcDbEntity
  8
2654_8R
390
0
100
AcDbCircle
 10
53.9802653551
 20
181.9841555086
 30
0.0
 40
0.5
100
AcDbArc
 50
0.0
 51
180.0
  0
LINE
  5
1A5
100
AcDbEntity
  8
2654_8R
390
0
100
AcDbLine
 10
51.82953125
 20
193.2298419894
 30
0.0
 11
47.82953125
 21
193.2298419894
 31
0.0
  0
LINE
  5
1A6
100
AcDbEntity
  8
2654_8R
390
0
100
AcDbLine
 10
51.82953125
 20
193.2298419894
 30
0.0
 11
51.82953125
 21
188.9798419894
 31
0.0
  0
LINE
  5
1A7
100
AcDbEntity
  8
2654_8R
390
0
100
AcDbLine
 10
47.82953125
 20
188.9798419894
 30
0.0
 11
51.82953125
 21
188.9798419894
 31
0.0
  0
LINE
  5
1A8
100
AcDbEntity
  8
2654_8R
390
0
  6
DASHED
100
AcDbLine
 10
63.32953125
 20
229.4841555086
 30
0.0
 11
53.9748816747
 21
225.4864177194
 31
0.0
  0
LINE
  5
1A9
100
AcDbEntity
  8
2654_8R
390
0
  6
DASHED
100
AcDbLine
 10
53.9748816747
 20
225.4864177194
 30
0.0
 11
57.82953125
 21
228.4839530877
 31
0.0
  0
LINE
  5
1AA
100
AcDbEntity
  8
2654_8R
390
0
  6
DASHED
100
AcDbLine
 10
57.82953125
 20
153.4841555086
 30
0.0
 11
53.9748816747
 21
156.4841555086
 31
0.0
  0
LINE
  5
1AB
100
AcDbEntity
  8
2654_8R
390
0
  6
DASHED
100
AcDbLine
 10
54.4802653551
 20
162.9841555086
 30
0.0
 11
53.9748816747
 21
156.4841555086
 31
0.0
  0
ARC
  5
1AC
100
AcDbEntity
  8
2654_8R
390
0
  6
DASHED
100
AcDbCircle
 10
75.9939241878
 20
182.3368129107
 30
0.0
 40
28.9372228263
100
AcDbArc
 50
166.7284242128
 51
221.9730316253
  0
ARC
  5
1AD
100
AcDbEntity
  8
2654_8R
390
0
  6
DASHED
100
AcDbCircle
 10
38.3147859251
 20
203.9414796206
 30
0.0
 40
14.3272313913
100
AcDbArc
 50
311.6134824336
 51
354.6468913924
  0
LINE
  5
1AE
100
AcDbEntity
  8
2654_8R
390
0
  6
DASHED
100
AcDbLine
 10
52.57953125
 20
202.6048419896
 30
0.0
 11
54.4802653551
 21
206.9839530877
 31
0.0
  0
ARC
  5
1AF
100
AcDbEntity
  8
2654_8R
390
0
  6
DASHED
100
AcDbCircle
 10
-159.3737216251
 20
144.2916190464
 30
0.0
 40
222.8538904638
100
AcDbArc
 50
2.106777464
 51
16.3387550976
  0
LINE
  5
1B0
100
AcDbEntity
  8
2654_8L
390
0
100
AcDbLine
 10
45.57953125
 20
204.6048419896
 30
0.0
 11
45.57953125
 21
200.6048419896
 31
0.0
  0
ARC
  5
1B1
100
AcDbEntity
  8
2654_8L
390
0
100
AcDbCircle
 10
44.8359679904
 20
191.1121699384
 30
0.0
 40
2.5973748691
100
AcDbArc
 50
305.1015926284
 51
414.8984073716
  0
LINE
  5
1B2
100
AcDbEntity
  8
2654_8L
390
0
  6
DASHED
100
AcDbLine
 10
38.3302320995
 20
153.4841555086
 30
0.0
 11
43.4748816747
 21
156.4843579295
 31
0.0
  0
LINE
  5
1B3
100
AcDbEntity
  8
2654_8L
390
0
  6
DASHED
100
AcDbLine
 10
43.4748816747
 20
156.4843579295
 30
0.0
 11
48.32953125
 21
152.4841555086
 31
0.0
  0
LINE
  5
1B4
100
AcDbEntity
  8
2654_8L
390
0
  6
DASHED
100
AcDbLine
 10
48.32953125
 20
229.4841555086
 30
0.0
 11
43.4748816747
 21
225.4866201403
 31
0.0
  0
LINE
  5
1B5
100
AcDbEntity
  8
2654_8L
390
0
  6
DASHED
100
AcDbLine
 10
43.4748816747
 20
225.4866201403
 30
0.0
 11
38.3302320995
 21
228.4841555086
 31
0.0
  0
TEXT
  5
1B6
100
AcDbEntity
  8
2654_10R
390
0
100
AcDbText
 10
42.1519923738
 20
132.3035536484
 30
0.0
 40
2.0
  1
@2654.1L
 41
1.1351288941
  7
Arial
 11
42.1519923738
 21
134.3035536484
 31
0.0
100
AcDbText
 73
         3
  0
TEXT
  5
1B7
100
AcDbEntity
  8
2654_10L
390
0
100
AcDbText
 10
27.1519923738
 20
132.3035536484
 30
0.0
 40
2.0
  1
@2654.1L
 41
1.1351288941
  7
Arial
 11
27.1519923738
 21
134.3035536484
 31
0.0
100
AcDbText
 73
         3
  0
MTEXT
  5
1B8
100
AcDbEntity
  8
2654___ W-_ GSP-_ SIGNAL-ANTRIEB
390
0
100
AcDbMText
 10
28.4612706851
 20
125.3263953141
 30
0.0
 40
2.0
 41
0.0
 71
         5
 72
         1
  1
\W0.810848;>2654.10L\PM15x15x2\PT2 O2
  7
Arial
 73
         1
 44
0.66
  0
CIRCLE
  5
1B9
100
AcDbEntity
  8
2654_10L
370
        25
390
0
  6
PHANTOM
100
AcDbCircle
 10
33.4188304004
 20
132.6080504291
 30
0.0
 40
0.5
  0
CIRCLE
  5
1BA
100
AcDbEntity
  8
2654_10L
370
        25
390
0
  6
PHANTOM
100
AcDbCircle
 10
33.32953125
 20
45.6080504309
 30
0.0
 40
1.0
  0
CIRCLE
  5
1BB
100
AcDbEntity
  8
2654_10R
370
        25
390
0
  6
PHANTOM
100
AcDbCircle
 10
48.4188304004
 20
132.6080504291
 30
0.0
 40
0.5
  0
CIRCLE
  5
1BC
100
AcDbEntity
  8
2654_10R
370
        25
390
0
  6
PHANTOM
100
AcDbCircle
 10
48.32953125
 20
45.6080504309
 30
0.0
 40
1.0
  0
ARC
  5
1BD
100
AcDbEntity
  8
2654___ W-_ GSP-_ SIGNAL-ANTRIEB
390
0
  6
DASHDOT
100
AcDbCircle
 10
71.3215738532
 20
89.0691002006
 30
0.0
 40
57.725714792
100
AcDbArc
 50
131.0411335367
 51
228.8412466326
  0
LINE
  5
1BE
100
AcDbEntity
  8
2654_10L
390
0
  6
DIVIDE
100
AcDbLine
 10
33.4188304004
 20
132.6080504291
 30
0.0
 11
48.4188304004
 21
132.6080504291
 31
0.0
  0
LINE
  5
1BF
100
AcDbEntity
  8
2654_10L
390
0
  6
DIVIDE
100
AcDbLine
 10
48.32953125
 20
45.6080504309
 30
0.0
 11
33.32953125
 21
45.6080504291
 31
0.0
  0
LINE
  5
1C0
100
AcDbEntity
  8
2654_10R
390
0
  6
DIVIDE
100
AcDbLine
 10
48.4188304004
 20
132.6080504291
 30
0.0
 11
63.4188304005
 21
132.6080504291
 31
0.0
  0
LINE
  5
1C1
100
AcDbEntity
  8
2654_10R
390
0
  6
DIVIDE
100
AcDbLine
 10
48.32953125
 20
45.6080504309
 30
0.0
 11
63.32953125
 21
45.6080504309
 31
0.0
  0
LINE
  5
1C2
100
AcDbEntity
  8
2654_10L
390
0
100
AcDbLine
 10
38.82953125
 20
131.6080504309
 30
0.0
 11
38.82953125
 21
98.6050360011
 31
0.0
  0
LINE
  5
1C3
100
AcDbEntity
  8
2654_10L
390
0
100
AcDbLine
 10
38.82953125
 20
79.6152602111
 30
0.0
 11
38.82953125
 21
46.6080504309
 31
0.0
  0
ARC
  5
1C4
100
AcDbEntity
  8
2654_10L
390
0
  6
DASHED
100
AcDbCircle
 10
43.2992275356
 20
43.4451651444
 30
0.0
 40
5.4755847379
100
AcDbArc
 50
23.2663079635
 51
144.7156801215
  0
ARC
  5
1C5
100
AcDbEntity
  8
2654_10L
390
0
  6
DASHED
100
AcDbCircle
 10
43.2311471102
 20
135.8769683067
 30
0.0
 40
6.1317111813
100
AcDbArc
 50
224.1231865123
 51
327.7837166961
  0
LINE
  5
1C6
100
AcDbEntity
  8
2654_10R
390
0
100
AcDbLine
 10
58.32953125
 20
131.6080504309
 30
0.0
 11
58.32953125
 21
95.1059527558
 31
0.0
  0
LINE
  5
1C7
100
AcDbEntity
  8
2654_10R
390
0
100
AcDbLine
 10
58.32953125
 20
95.1059527558
 30
0.0
 11
53.82953125
 21
95.1059527558
 31
0.0
  0
LINE
  5
1C8
100
AcDbEntity
  8
2654_10R
390
0
100
AcDbLine
 10
58.32953125
 20
83.1101481061
 30
0.0
 11
58.32953125
 21
46.6080504309
 31
0.0
  0
LINE
  5
1C9
100
AcDbEntity
  8
2654_10R
390
0
100
AcDbLine
 10
54.9802653551
 20
55.0937369119
 30
0.0
 11
54.9802653551
 21
79.0937369119
 31
0.0
  0
LINE
  5
1CA
100
AcDbEntity
  8
2654_10R
390
0
100
AcDbLine
 10
53.9802653551
 20
55.0937369119
 30
0.0
 11
53.9802653551
 21
79.0937369119
 31
0.0
  0
ARC
  5
1CB
100
AcDbEntity
  8
2654_10R
390
0
100
AcDbCircle
 10
54.4802653551
 20
79.0937369119
 30
0.0
 40
0.5
100
AcDbArc
 50
360.0
 51
540.0
  0
ARC
  5
1CC
100
AcDbEntity
  8
2654_10R
390
0
100
AcDbCircle
 10
54.4802653551
 20
55.0937369119
 30
0.0
 40
0.5
100
AcDbArc
 50
180.0
 51
360.0
  0
LINE
  5
1CD
100
AcDbEntity
  8
2654_10R
390
0
100
AcDbLine
 10
53.9802653551
 20
99.093534491
 30
0.0
 11
53.9802653551
 21
123.093534491
 31
0.0
  0
LINE
  5
1CE
100
AcDbEntity
  8
2654_10R
390
0
100
AcDbLine
 10
54.9802653551
 20
123.093534491
 30
0.0
 11
54.9802653551
 21
99.093534491
 31
0.0
  0
ARC
  5
1CF
100
AcDbEntity
  8
2654_10R
390
0
100
AcDbCircle
 10
54.4802653551
 20
99.093534491
 30
0.0
 40
0.5
100
AcDbArc
 50
180.0
 51
360.0
  0
ARC
  5
1D0
100
AcDbEntity
  8
2654_10R
390
0
100
AcDbCircle
 10
54.4802653551
 20
123.093534491
 30
0.0
 40
0.5
100
AcDbArc
 50
360.0
 51
540.0
  0
LINE
  5
1D1
100
AcDbEntity
  8
2654_10R
390
0
  6
DASHED
100
AcDbLine
 10
54.4856490355
 20
128.6005150626
 30
0.0
 11
58.32953125
 21
131.6080504309
 31
0.0
  0
LINE
  5
1D2
100
AcDbEntity
  8
2654_10R
390
0
  6
DASHED
100
AcDbLine
 10
54.4856490355
 20
128.6005150626
 30
0.0
 11
63.4188304005
 21
132.6080504291
 31
0.0
  0
LINE
  5
1D3
100
AcDbEntity
  8
2654_10R
390
0
  6
DASHED
100
AcDbLine
 10
58.32953125
 20
46.6080504309
 30
0.0
 11
54.4856490355
 21
49.5980504309
 31
0.0
  0
LINE
  5
1D4
100
AcDbEntity
  8
2654_10R
390
0
  6
DASHED
100
AcDbLine
 10
54.4856490355
 20
49.5980504309
 30
0.0
 11
53.9802653551
 21
55.0937369119
 31
0.0
  0
ARC
  5
1D5
100
AcDbEntity
  8
2654_10R
390
0
  6
DASHED
100
AcDbCircle
 10
153.3537567581
 20
74.846500559
 30
0.0
 40
101.317631562
100
AcDbArc
 50
166.1537659934
 51
191.2423166863
  0
ARC
  5
1D6
100
AcDbEntity
  8
2654_10R
390
0
  6
DASHED
100
AcDbCircle
 10
-22.6141243324
 20
59.5863700398
 30
0.0
 40
87.0729886587
100
AcDbArc
 50
350.7620108621
 51
386.9829082736
  0
TEXT
  5
1D7
100
AcDbEntity
  8
BESCHRIFTUNG
390
0
100
AcDbText
 10
28.9168463798
 20
236.7772507834
 30
0.0
 40
3.0
  1
2654.8L,R
 41
1.1351032751
  7
Arial
 11
28.9168463798
 21
239.7772507834
 31
0.0
100
AcDbText
 73
         3
  0
TEXT
  5
1D8
100
AcDbEntity
  8
BESCHRIFTUNG
390
0
100
AcDbText
 10
28.9168463798
 20
139.2017820334
 30
0.0
 40
3.0
  1
2654.10L,R
 41
1.135107748
  7
Arial
 11
28.9168463798
 21
142.2017820334
 31
0.0
100
AcDbText
 73
         3
  0
LINE
  5
1D9
100
AcDbEntity
  8
2654_7P
390
0
  6
DIVIDE
100
AcDbLine
 10
152.9204881273
 20
254.716830627
 30
0.0
 11
159.9204881273
 21
254.716830627
 31
0.0
  0
LINE
  5
1DA
100
AcDbEntity
  8
2654_7P
390
0
  6
DIVIDE
100
AcDbLine
 10
153.4204881273
 20
236.716830627
 30
0.0
 11
153.4204881273
 21
243.216830627
 31
0.0
  0
LINE
  5
1DB
100
AcDbEntity
  8
2654_7P
390
0
  6
DIVIDE
100
AcDbLine
 10
153.4204881273
 20
243.216830627
 30
0.0
 11
158.4204881273
 21
243.216830627
 31
0.0
  0
LINE
  5
1DC
100
AcDbEntity
  8
2654_7P
390
0
  6
DIVIDE
100
AcDbLine
 10
158.4204881273
 20
243.216830627
 30
0.0
 11
158.4204881273
 21
235.716830627
 31
0.0
  0
LINE
  5
1DD
100
AcDbEntity
  8
2654_7P
390
0
  6
DIVIDE
100
AcDbLine
 10
158.4204881273
 20
235.716830627
 30
0.0
 11
152.9204881273
 21
235.716830627
 31
0.0
  0
LINE
  5
1DE
100
AcDbEntity
  8
2654_7P
390
0
  6
DASHED
100
AcDbLine
 10
155.9204881273
 20
239.216830627
 30
0.0
 11
153.4204881273
 21
236.716830627
 31
0.0
  0
MTEXT
  5
1DF
100
AcDbEntity
  8
2654___ W-_ GSP-_ SIGNAL-ANTRIEB
390
0
100
AcDbMText
 10
147.4089669548
 20
248.2888105831
 30
0.0
 40
2.0
 41
0.0
 71
         5
 72
         1
  1
\W0.810845;>2654.7P\PMŘ6\PT6 O2
  7
Arial
 73
         1
 44
0.66
  0
INSERT
  5
1E0
100
AcDbEntity
  8
BEMAßUNG
390
0
100
AcDbBlockReference
  2
D201628416
 10
0.0
 20
0.0
 30
0.0
  0
CIRCLE
  5
1E1
100
AcDbEntity
  8
2654_7P
390
0
  6
PHANTOM
100
AcDbCircle
 10
152.9204881273
 20
254.716830627
 30
0.0
 40
0.5
  0
CIRCLE
  5
1E2
100
AcDbEntity
  8
2654_7P
390
0
  6
PHANTOM
100
AcDbCircle
 10
152.9204881273
 20
235.716830627
 30
0.0
 40
1.0
  0
ARC
  5
1E3
100
AcDbEntity
  8
2654___ W-_ GSP-_ SIGNAL-ANTRIEB
390
0
  6
DASHDOT
100
AcDbCircle
 10
161.2078498232
 20
245.216830627
 30
0.0
 40
12.6067586587
100
AcDbArc
 50
131.099943452
 51
228.900056548
  0
CIRCLE
  5
1E4
100
AcDbEntity
  8
2654_7P
390
0
100
AcDbCircle
 10
155.9204881273
 20
239.216830627
 30
0.0
 40
1.25
  0
TEXT
  5
1E5
100
AcDbEntity
  8
BESCHRIFTUNG
390
0
100
AcDbText
 10
140.0733253923
 20
266.0451905704
 30
0.0
 40
3.0
  1
2654.7P
 41
1.1350983414
  7
Arial
 11
140.0733253923
 21
269.0451905704
 31
0.0
100
AcDbText
 73
         3
  0
MTEXT
  5
1E6
100
AcDbEntity
  8
2654_7P
390
0
100
AcDbMText
 10
151.6660616313
 20
257.0720433399
 30
0.0
 40
2.0
 41
0.0
 71
         5
 72
         1
  1
\W0.810867;MŘ6 F150\PT6 O2 S10 I1,2\PB-0,5   D3
  7
Arial
 73
         1
 44
0.66
  0
TEXT
  5
1E7
100
AcDbEntity
  8
BESCHRIFTUNG
390
0
100
AcDbText
 10
136.7589932414
 20
204.811083795
 30
0.0
 40
3.0
  1
2654.4P
 41
1.1350984069
  7
Arial
 11
136.7589932414
 21
207.811083795
 31
0.0
100
AcDbText
 73
         3
  0
LINE
  5
1E8
100
AcDbEntity
  8
2654_7P
390
0
  6
CONTINUOUS
100
AcDbLine
 10
159.1704881273
 20
247.216830627
 30
0.0
 11
159.1704881273
 21
243.716830627
 31
0.0
  0
LINE
  5
1E9
100
AcDbEntity
  8
2654_7P
390
0
  6
DASHED
100
AcDbLine
 10
159.9204881273
 20
254.716830627
 30
0.0
 11
159.1704881273
 21
247.216830627
 31
0.0
  0
ARC
  5
1EA
100
AcDbEntity
  8
2654_7P
390
0
  6
DASHED
100
AcDbCircle
 10
157.9802281549
 20
241.1528517181
 30
0.0
 40
2.8267837991
100
AcDbArc
 50
223.2265433848
 51
425.0981507066
  0
INSERT
  5
1EB
100
AcDbEntity
  8
BEMAßUNG
390
0
100
AcDbBlockReference
  2
D201628672
 10
0.0
 20
0.0
 30
0.0
  0
INSERT
  5
1EC
100
AcDbEntity
  8
BEMAßUNG
390
0
100
AcDbBlockReference
  2
D201628928
 10
0.0
 20
0.0
 30
0.0
  0
LINE
  5
1ED
100
AcDbEntity
  8
2654_1-3 RAHMEN
390
0
100
AcDbLine
 10
88.3295312499
 20
220.98875
 30
0.0
 11
88.3295312499
 21
270.98875
 31
0.0
  0
CIRCLE
  5
1EE
100
AcDbEntity
  8
2654_2R
390
0
100
AcDbCircle
 10
109.32953125
 20
155.7768951474
 30
0.0
 40
1.25
  0
CIRCLE
  5
1EF
100
AcDbEntity
  8
2654_1L
390
0
100
AcDbCircle
 10
97.830265355
 20
230.988063519
 30
0.0
 40
1.25
  0
LINE
  5
1F0
100
AcDbEntity
  8
2654_1-3 RAHMEN
390
0
  6
DASHED
100
AcDbLine
 10
101.3295312499
 20
220.98875
 30
0.0
 11
101.3295312499
 21
270.98875
 31
0.0
  0
LINE
  5
1F1
100
AcDbEntity
  8
2654_1-3 RAHMEN
390
0
100
AcDbLine
 10
103.3295312499
 20
220.98875
 30
0.0
 11
88.3295312499
 21
220.98875
 31
0.0
  0
LINE
  5
1F2
100
AcDbEntity
  8
2654_1-3 RAHMEN
390
0
100
AcDbLine
 10
103.3295312499
 20
270.98875
 30
0.0
 11
88.3295312499
 21
270.98875
 31
0.0
  0
MTEXT
  5
1F3
100
AcDbEntity
  8
BESCHRIFTUNG
390
0
100
AcDbMText
 10
121.942650914
 20
134.4705108914
 30
0.0
 40
3.0
 41
0.0
 71
         1
 72
         1
  1
\W1.135138;2654.1\P2654.2\P2654.3\P2654.4\P2654.5\P2654.6/0\P2654.7/6\P2654.8\P2654.9/0\P2654.10\P\P2654.20/A\P2654.30\P\P2654.51\P2654.52\P\P\P2654.53\P2654.54\P2654.55\P2654.56\P2654.57\P2654.58\P2654.59\P2654.60\P2654.61\P\P2654.98
  7
Arial
 73
         1
 44
0.66
  0
MTEXT
  5
1F4
100
AcDbEntity
  8
BESCHRIFTUNG
390
0
100
AcDbMText
 10
147.6034720215
 20
134.4705108914
 30
0.0
 40
3.0
 41
0.0
 71
         1
 72
         1
  3
\W1.026854;Rahmen oben\PRahmen unten\PRahmenverbindung\PAntriebsrad\PStellhebel\PDrehdraht\PRiegelzapfen\PStellschieber\PStelldraht\PRiegelschieber\P\PSignalplatte\PGestängewinkel\P\PM3x8 Antriebslager     \PM3x10 Antriebszapfen\P   vorne ca. 3 mm a
  3
uf \P   Ř1,8...2 mm abgedreht\PM3x5 Stellhebellager\PM3x5 Drehdrahtklemme    \PM3x5 Riegelzapfenbef.\PM3x5 Stelldrahtklemme    \PM3x8 Stellschieberlager re\PM3x8 Riegelschieberlager re\PM3x10 Stellschieberlager li\PM3x10 Riegelschieberlager li\PM3x5
  1
 Rahmenverbindung\P\PSignalplattenlehre
  7
Arial
 73
         1
 44
0.66
  0
CIRCLE
  5
1F5
100
AcDbEntity
  8
2654_1L
390
0
100
AcDbCircle
 10
97.830265355
 20
223.98875
 30
0.0
 40
1.25
  0
CIRCLE
  5
1F6
100
AcDbEntity
  8
2654_1L
390
0
100
AcDbCircle
 10
97.830265355
 20
267.9887499999
 30
0.0
 40
1.25
  0
LINE
  5
1F7
100
AcDbEntity
  8
MITTELLINIEN
390
0
100
AcDbLine
 10
88.32953125
 20
276.48875
 30
0.0
 11
88.32953125
 21
40.81140625
 31
0.0
  0
LINE
  5
1F8
100
AcDbEntity
  8
MITTELLINIEN
390
0
100
AcDbLine
 10
118.32953125
 20
276.48875
 30
0.0
 11
118.32953125
 21
40.3853125
 31
0.0
  0
MTEXT
  5
1F9
100
AcDbEntity
  8
2654___ W-_ GSP-_ SIGNAL-ANTRIEB
390
0
100
AcDbMText
 10
83.3719715345
 20
264.207094885
 30
0.0
 40
2.0
 41
0.0
 71
         5
 72
         1
  1
\W0.810845;>2654.1L\PM15x15x2\PT2 O2
  7
Arial
 73
         1
 44
0.66
  0
CIRCLE
  5
1FA
100
AcDbEntity
  8
2654_1L
370
        25
390
0
  6
PHANTOM
100
AcDbCircle
 10
88.3295312499
 20
271.98875
 30
0.0
 40
0.5
  0
CIRCLE
  5
1FB
100
AcDbEntity
  8
2654_1L
370
        25
390
0
  6
PHANTOM
100
AcDbCircle
 10
88.3295312499
 20
219.98875
 30
0.0
 40
1.0
  0
ARC
  5
1FC
100
AcDbEntity
  8
2654___ W-_ GSP-_ SIGNAL-ANTRIEB
390
0
  6
DASHDOT
100
AcDbCircle
 10
111.0107316809
 20
245.98875
 30
0.0
 40
34.5027079081
100
AcDbArc
 50
131.099943452
 51
228.900056548
  0
TEXT
  5
1FD
100
AcDbEntity
  8
2654_5L
390
0
100
AcDbText
 10
27.0626932234
 20
271.1842532192
 30
0.0
 40
2.0
  1
@2654.1L
 41
1.1351288941
  7
Arial
 11
27.0626932234
 21
273.1842532192
 31
0.0
100
AcDbText
 73
         3
  0
LINE
  5
1FE
100
AcDbEntity
  8
2654_1-3 RAHMEN
390
0
100
AcDbLine
 10
118.32953125
 20
145.7775816284
 30
0.0
 11
118.32953125
 21
195.7775816284
 31
0.0
  0
CIRCLE
  5
1FF
100
AcDbEntity
  8
2654_2R
390
0
100
AcDbCircle
 10
115.828797145
 20
192.7775816283
 30
0.0
 40
1.25
  0
CIRCLE
  5
200
100
AcDbEntity
  8
2654_2R
390
0
100
AcDbCircle
 10
115.828797145
 20
148.7775816284
 30
0.0
 40
1.25
  0
LINE
  5
201
100
AcDbEntity
  8
2654_1-3 RAHMEN
390
0
100
AcDbLine
 10
118.32953125
 20
145.7775816284
 30
0.0
 11
103.32953125
 21
145.7775816284
 31
0.0
  0
LINE
  5
202
100
AcDbEntity
  8
2654_1-3 RAHMEN
390
0
100
AcDbLine
 10
118.32953125
 20
195.7775816284
 30
0.0
 11
103.32953125
 21
195.7775816284
 31
0.0
  0
LINE
  5
203
100
AcDbEntity
  8
2654_1-3 RAHMEN
390
0
100
AcDbLine
 10
103.3295312499
 20
220.98875
 30
0.0
 11
103.3295312499
 21
270.98875
 31
0.0
  0
LINE
  5
204
100
AcDbEntity
  8
2654_1-3 RAHMEN
390
0
  6
DASHED
100
AcDbLine
 10
105.3295312499
 20
220.98875
 30
0.0
 11
105.3295312499
 21
250.9887499998
 31
0.0
  0
LINE
  5
205
100
AcDbEntity
  8
2654_1-3 RAHMEN
390
0
100
AcDbLine
 10
103.3295312499
 20
220.98875
 30
0.0
 11
118.3295312499
 21
220.98875
 31
0.0
  0
LINE
  5
206
100
AcDbEntity
  8
2654_1-3 RAHMEN
390
0
100
AcDbLine
 10
103.3295312499
 20
270.98875
 30
0.0
 11
105.3295312499
 21
270.98875
 31
0.0
  0
LINE
  5
207
100
AcDbEntity
  8
2654_1-3 RAHMEN
390
0
100
AcDbLine
 10
118.3295312499
 20
220.98875
 30
0.0
 11
118.3295312499
 21
252.9887499998
 31
0.0
  0
LINE
  5
208
100
AcDbEntity
  8
2654_1-3 RAHMEN
390
0
100
AcDbLine
 10
118.3295312524
 20
252.9887499998
 30
0.0
 11
105.3295312512
 21
252.9887499998
 31
0.0
  0
LINE
  5
209
100
AcDbEntity
  8
2654_1-3 RAHMEN
390
0
100
AcDbLine
 10
105.3295312499
 20
250.9887499998
 30
0.0
 11
105.3295312499
 21
270.98875
 31
0.0
  0
CIRCLE
  5
20A
100
AcDbEntity
  8
2654_1R
390
0
100
AcDbCircle
 10
115.8295312499
 20
229.9887499998
 30
0.0
 40
1.25
  0
CIRCLE
  5
20B
100
AcDbEntity
  8
2654_1R
390
0
100
AcDbCircle
 10
115.8295312499
 20
239.9887499998
 30
0.0
 40
1.25
  0
CIRCLE
  5
20C
100
AcDbEntity
  8
2654_1-3 RAHMEN
390
0
100
AcDbCircle
 10
115.8305990618
 20
245.9909658436
 30
0.0
 40
0.5
  0
CIRCLE
  5
20D
100
AcDbEntity
  8
2654_1R
390
0
100
AcDbCircle
 10
115.8295312499
 20
249.9887499996
 30
0.0
 40
1.25
  0
CIRCLE
  5
20E
100
AcDbEntity
  8
2654_2L
390
0
100
AcDbCircle
 10
90.8284634381
 20
181.7797974722
 30
0.0
 40
1.25
  0
CIRCLE
  5
20F
100
AcDbEntity
  8
2654_2L
390
0
100
AcDbCircle
 10
90.8284634381
 20
170.7797974722
 30
0.0
 40
1.25
  0
ARC
  5
210
100
AcDbEntity
  8
2654_1-3 RAHMEN
390
0
100
AcDbCircle
 10
97.8392619
 20
166.7743619504
 30
0.0
 40
2.9916916334
100
AcDbArc
 50
269.8136418369
 51
450.186358163
  0
LINE
  5
211
100
AcDbEntity
  8
2654_1-3 RAHMEN
390
0
100
AcDbLine
 10
103.32953125
 20
145.7775816284
 30
0.0
 11
103.32953125
 21
195.7775816284
 31
0.0
  0
LINE
  5
212
100
AcDbEntity
  8
2654_1-3 RAHMEN
390
0
100
AcDbLine
 10
88.32953125
 20
145.7775816284
 30
0.0
 11
88.32953125
 21
163.7826861417
 31
0.0
  0
LINE
  5
213
100
AcDbEntity
  8
2654_1-3 RAHMEN
390
0
100
AcDbLine
 10
103.32953125
 20
145.7775816284
 30
0.0
 11
88.32953125
 21
145.7775816284
 31
0.0
  0
LINE
  5
214
100
AcDbEntity
  8
2654_1-3 RAHMEN
390
0
100
AcDbLine
 10
88.32953125
 20
195.7775816284
 30
0.0
 11
103.32953125
 21
195.7775816284
 31
0.0
  0
LINE
  5
215
100
AcDbEntity
  8
2654_1-3 RAHMEN
390
0
100
AcDbLine
 10
97.82953125
 20
163.7826861417
 30
0.0
 11
88.32953125
 21
163.7826861417
 31
0.0
  0
LINE
  5
216
100
AcDbEntity
  8
2654_1-3 RAHMEN
390
0
100
AcDbLine
 10
97.82953125
 20
169.7826861417
 30
0.0
 11
88.32953125
 21
168.0046264055
 31
0.0
  0
LINE
  5
217
100
AcDbEntity
  8
2654_1-3 RAHMEN
390
0
  6
DASHED
100
AcDbLine
 10
101.32953125
 20
145.7775816284
 30
0.0
 11
101.32953125
 21
195.7775816284
 31
0.0
  0
LINE
  5
218
100
AcDbEntity
  8
2654_1-3 RAHMEN
390
0
100
AcDbLine
 10
106.328844769
 20
115.2994039759
 30
0.0
 11
103.328844769
 21
115.2994039759
 31
0.0
  0
LINE
  5
219
100
AcDbEntity
  8
2654_1-3 RAHMEN
390
0
100
AcDbLine
 10
106.328844769
 20
85.2994039759
 30
0.0
 11
103.328844769
 21
85.2994039759
 31
0.0
  0
CIRCLE
  5
21A
100
AcDbEntity
  8
2654_3L
390
0
100
AcDbCircle
 10
98.328844769
 20
109.800138081
 30
0.0
 40
1.5
  0
CIRCLE
  5
21B
100
AcDbEntity
  8
2654_3L
390
0
100
AcDbCircle
 10
98.328844769
 20
97.7986698709
 30
0.0
 40
1.5
  0
CIRCLE
  5
21C
100
AcDbEntity
  8
2654_3L
390
0
100
AcDbCircle
 10
91.32953125
 20
91.2994039759
 30
0.0
 40
1.5
  0
CIRCLE
  5
21D
100
AcDbEntity
  8
2654_3L
390
0
100
AcDbCircle
 10
91.32953125
 20
109.800138081
 30
0.0
 40
1.5
  0
LINE
  5
21E
100
AcDbEntity
  8
2654_1-3 RAHMEN
390
0
  6
DASHED
100
AcDbLine
 10
101.328844769
 20
115.2994039759
 30
0.0
 11
101.328844769
 21
85.2994039759
 31
0.0
  0
LINE
  5
21F
100
AcDbEntity
  8
2654_1-3 RAHMEN
390
0
100
AcDbLine
 10
88.32953125
 20
115.2994039759
 30
0.0
 11
88.32953125
 21
85.2994039759
 31
0.0
  0
LINE
  5
220
100
AcDbEntity
  8
2654_1-3 RAHMEN
390
0
100
AcDbLine
 10
103.328844769
 20
115.2994039759
 30
0.0
 11
103.328844769
 21
85.2994039759
 31
0.0
  0
LINE
  5
221
100
AcDbEntity
  8
2654_1-3 RAHMEN
390
0
  6
DASHED
100
AcDbLine
 10
105.328844769
 20
115.2994039759
 30
0.0
 11
105.328844769
 21
85.2994039759
 31
0.0
  0
LINE
  5
222
100
AcDbEntity
  8
2654_1-3 RAHMEN
390
0
100
AcDbLine
 10
106.328844769
 20
115.2994039759
 30
0.0
 11
106.328844769
 21
85.2994039759
 31
0.0
  0
LINE
  5
223
100
AcDbEntity
  8
2654_1-3 RAHMEN
390
0
100
AcDbLine
 10
88.32953125
 20
168.0046264055
 30
0.0
 11
88.32953125
 21
195.7775816284
 31
0.0
  0
LINE
  5
224
100
AcDbEntity
  8
2654_1-3 RAHMEN
390
0
  6
DASHED
100
AcDbLine
 10
105.32953125
 20
145.7775816284
 30
0.0
 11
105.32953125
 21
195.7775816284
 31
0.0
  0
CIRCLE
  5
225
100
AcDbEntity
  8
2654_2L
370
        25
390
0
  6
PHANTOM
100
AcDbCircle
 10
88.3295312501
 20
196.7775816284
 30
0.0
 40
0.5
  0
CIRCLE
  5
226
100
AcDbEntity
  8
2654_2L
370
        25
390
0
  6
PHANTOM
100
AcDbCircle
 10
88.3295312501
 20
144.7775816284
 30
0.0
 40
1.0
  0
ARC
  5
227
100
AcDbEntity
  8
2654___ W-_ GSP-_ SIGNAL-ANTRIEB
390
0
  6
DASHDOT
100
AcDbCircle
 10
111.0107316811
 20
170.7775816284
 30
0.0
 40
34.5027079081
100
AcDbArc
 50
131.099943452
 51
228.900056548
  0
MTEXT
  5
228
100
AcDbEntity
  8
2654___ W-_ GSP-_ SIGNAL-ANTRIEB
390
0
100
AcDbMText
 10
83.3719715347
 20
188.9959265134
 30
0.0
 40
2.0
 41
0.0
 71
         5
 72
         1
  1
\W0.810845;>2654.2L\PM15x15x2\PT2 O2
  7
Arial
 73
         1
 44
0.66
  0
CIRCLE
  5
229
100
AcDbEntity
  8
2654_3L
370
        25
390
0
  6
PHANTOM
100
AcDbCircle
 10
88.3295312501
 20
116.2994039759
 30
0.0
 40
0.5
  0
CIRCLE
  5
22A
100
AcDbEntity
  8
2654_3L
370
        25
390
0
  6
PHANTOM
100
AcDbCircle
 10
88.3295312501
 20
84.2994039759
 30
0.0
 40
1.0
  0
ARC
  5
22B
100
AcDbEntity
  8
2654___ W-_ GSP-_ SIGNAL-ANTRIEB
390
0
  6
DASHDOT
100
AcDbCircle
 10
102.2871930538
 20
100.2994039759
 30
0.0
 40
21.2324356358
100
AcDbArc
 50
131.099943452
 51
228.900056548
  0
MTEXT
  5
22C
100
AcDbEntity
  8
2654___ W-_ GSP-_ SIGNAL-ANTRIEB
390
0
100
AcDbMText
 10
83.3719715347
 20
108.5177488609
 30
0.0
 40
2.0
 41
0.0
 71
         5
 72
         1
  1
\W0.810845;>2654.3L\PM15x15x2\PT2 O2
  7
Arial
 73
         1
 44
0.66
  0
LINE
  5
22D
100
AcDbEntity
  8
2654_1L
390
0
  6
DIVIDE
100
AcDbLine
 10
103.3295312499
 20
271.98875
 30
0.0
 11
88.3295312499
 21
271.98875
 31
0.0
  0
LINE
  5
22E
100
AcDbEntity
  8
2654_1L
390
0
  6
DIVIDE
100
AcDbLine
 10
103.3295312499
 20
219.98875
 30
0.0
 11
88.3295312499
 21
219.98875
 31
0.0
  0
LINE
  5
22F
100
AcDbEntity
  8
2654_1L
390
0
100
AcDbLine
 10
95.4295312499
 20
263.3678610982
 30
0.0
 11
95.4295312499
 21
251.3678610982
 31
0.0
  0
LINE
  5
230
100
AcDbEntity
  8
2654_1L
390
0
100
AcDbLine
 10
97.4295312499
 20
251.3678610982
 30
0.0
 11
97.4295312499
 21
263.3678610982
 31
0.0
  0
ARC
  5
231
100
AcDbEntity
  8
2654_1L
390
0
100
AcDbCircle
 10
96.4295312499
 20
263.3678610982
 30
0.0
 40
1.0
100
AcDbArc
 50
0.0
 51
180.0
  0
ARC
  5
232
100
AcDbEntity
  8
2654_1L
390
0
100
AcDbCircle
 10
96.4295312499
 20
251.3678610982
 30
0.0
 40
1.0
100
AcDbArc
 50
180.0
 51
360.0
  0
LINE
  5
233
100
AcDbEntity
  8
2654_1L
390
0
  6
DASHED
100
AcDbLine
 10
103.3295312498
 20
271.98875
 30
0.0
 11
97.830265355
 21
267.9887499999
 31
0.0
  0
LINE
  5
234
100
AcDbEntity
  8
2654_1L
390
0
  6
DASHED
100
AcDbLine
 10
97.830265355
 20
267.9887499999
 30
0.0
 11
97.4295312499
 21
263.3678610982
 31
0.0
  0
LINE
  5
235
100
AcDbEntity
  8
2654_1L
390
0
  6
DASHED
100
AcDbLine
 10
97.4295312499
 20
263.3678610982
 30
0.0
 11
97.830265355
 21
230.988063519
 31
0.0
  0
LINE
  5
236
100
AcDbEntity
  8
2654_1L
390
0
  6
DASHED
100
AcDbLine
 10
97.830265355
 20
230.988063519
 30
0.0
 11
97.830265355
 21
223.98875
 31
0.0
  0
LINE
  5
237
100
AcDbEntity
  8
2654_1L
390
0
  6
DASHED
100
AcDbLine
 10
97.830265355
 20
223.98875
 30
0.0
 11
103.3295312498
 21
219.98875
 31
0.0
  0
LINE
  5
238
100
AcDbEntity
  8
2654_1R
390
0
  6
DIVIDE
100
AcDbLine
 10
118.3295312499
 20
219.98875
 30
0.0
 11
103.3295312499
 21
219.98875
 31
0.0
  0
LINE
  5
239
100
AcDbEntity
  8
2654_1R
390
0
  6
DIVIDE
100
AcDbLine
 10
118.3295312499
 20
271.98875
 30
0.0
 11
103.3295312499
 21
271.98875
 31
0.0
  0
CIRCLE
  5
23A
100
AcDbEntity
  8
2654_1R
370
        25
390
0
  6
PHANTOM
100
AcDbCircle
 10
103.3295312499
 20
271.98875
 30
0.0
 40
0.5
  0
CIRCLE
  5
23B
100
AcDbEntity
  8
2654_1R
370
        25
390
0
  6
PHANTOM
100
AcDbCircle
 10
103.3295312499
 20
219.98875
 30
0.0
 40
1.0
  0
LINE
  5
23C
100
AcDbEntity
  8
2654_1R
390
0
100
AcDbLine
 10
106.3295312499
 20
253.9887499998
 30
0.0
 11
106.3295312499
 21
271.98875
 31
0.0
  0
ARC
  5
23D
100
AcDbEntity
  8
2654_1R
390
0
  6
DASHED
100
AcDbCircle
 10
112.3295312499
 20
277.5303147518
 30
0.0
 40
8.1675540952
100
AcDbArc
 50
222.7253860328
 51
317.2746139672
  0
CIRCLE
  5
23E
100
AcDbEntity
  8
2654_1R
390
0
  6
DIVIDE
100
AcDbCircle
 10
115.8305990618
 20
245.9909658436
 30
0.0
 40
1.0
  0
LINE
  5
23F
100
AcDbEntity
  8
2654_1R
390
0
  6
DIVIDE
 62
       114
100
AcDbLine
 10
118.3295312512
 20
253.9887499998
 30
0.0
 11
115.8295312499
 21
253.9887499998
 31
0.0
  0
LINE
  5
240
100
AcDbEntity
  8
2654_1R
390
0
100
AcDbLine
 10
115.8295312499
 20
253.9887499998
 30
0.0
 11
106.3295312499
 21
253.9887499998
 31
0.0
  0
LINE
  5
241
100
AcDbEntity
  8
2654_1R
390
0
  6
DASHED
100
AcDbLine
 10
118.32953125
 20
253.9887499998
 30
0.0
 11
115.8295312499
 21
249.9887499998
 31
0.0
  0
ARC
  5
242
100
AcDbEntity
  8
2654_1R
390
0
  6
DASHED
100
AcDbCircle
 10
115.3305990618
 20
247.9897245139
 30
0.0
 40
2.060348568
100
AcDbArc
 50
75.9859917459
 51
284.0446157653
  0
ARC
  5
243
100
AcDbEntity
  8
2654_1R
390
0
  6
DASHED
100
AcDbCircle
 10
115.9064278974
 20
242.9898443366
 30
0.0
 40
3.0020793315
100
AcDbArc
 50
91.447374932
 51
268.5322388926
  0
ARC
  5
244
100
AcDbEntity
  8
2654_1R
390
0
  6
DASHED
100
AcDbCircle
 10
118.1384905584
 20
234.9887499998
 30
0.0
 40
5.5073853223
100
AcDbArc
 50
114.7871085386
 51
245.2128914614
  0
ARC
  5
245
100
AcDbEntity
  8
2654_1R
390
0
  6
DASHED
100
AcDbCircle
 10
121.8232244158
 20
226.1746732914
 30
0.0
 40
7.1043324039
100
AcDbArc
 50
147.5294314359
 51
240.5430555005
  0
TEXT
  5
246
100
AcDbEntity
  8
2654_1R
390
0
100
AcDbText
 10
97.0626932232
 20
271.6842532192
 30
0.0
 40
2.0
  1
@2654.1L
 41
1.1351288941
  7
Arial
 11
97.0626932232
 21
273.6842532192
 31
0.0
100
AcDbText
 73
         3
  0
TEXT
  5
247
100
AcDbEntity
  8
2654_2L
390
0
100
AcDbText
 10
82.0626932233
 20
196.4730848476
 30
0.0
 40
2.0
  1
@2654.1L
 41
1.1351288941
  7
Arial
 11
82.0626932233
 21
198.4730848476
 31
0.0
100
AcDbText
 73
         3
  0
TEXT
  5
248
100
AcDbEntity
  8
2654_2R
390
0
100
AcDbText
 10
97.0626932233
 20
196.4730848476
 30
0.0
 40
2.0
  1
@2654.1L
 41
1.1351288941
  7
Arial
 11
97.0626932233
 21
198.4730848476
 31
0.0
100
AcDbText
 73
         3
  0
CIRCLE
  5
249
100
AcDbEntity
  8
2654_2R
370
        25
390
0
  6
PHANTOM
100
AcDbCircle
 10
103.32953125
 20
144.7775816284
 30
0.0
 40
1.0
  0
CIRCLE
  5
24A
100
AcDbEntity
  8
2654_2R
370
        25
390
0
  6
PHANTOM
100
AcDbCircle
 10
103.32953125
 20
196.7775816284
 30
0.0
 40
0.5
  0
TEXT
  5
24B
100
AcDbEntity
  8
2654_3L
390
0
100
AcDbText
 10
82.0620067423
 20
115.9949071952
 30
0.0
 40
2.0
  1
@2654.1L
 41
1.1351288941
  7
Arial
 11
82.0620067423
 21
117.9949071952
 31
0.0
100
AcDbText
 73
         3
  0
TEXT
  5
24C
100
AcDbEntity
  8
2654_3R
390
0
100
AcDbText
 10
97.0620067423
 20
115.9949071952
 30
0.0
 40
2.0
  1
@2654.1L
 41
1.1351288941
  7
Arial
 11
97.0620067423
 21
117.9949071952
 31
0.0
100
AcDbText
 73
         3
  0
CIRCLE
  5
24D
100
AcDbEntity
  8
2654_3R
370
        25
390
0
  6
PHANTOM
100
AcDbCircle
 10
103.328844769
 20
116.2994039759
 30
0.0
 40
0.5
  0
CIRCLE
  5
24E
100
AcDbEntity
  8
2654_3R
370
        25
390
0
  6
PHANTOM
100
AcDbCircle
 10
103.328844769
 20
84.2994039759
 30
0.0
 40
1.0
  0
LINE
  5
24F
100
AcDbEntity
  8
2654_2L
390
0
  6
DIVIDE
100
AcDbLine
 10
88.32953125
 20
196.7775816284
 30
0.0
 11
103.32953125
 21
196.7775816284
 31
0.0
  0
LINE
  5
250
100
AcDbEntity
  8
2654_2L
390
0
  6
DIVIDE
100
AcDbLine
 10
103.32953125
 20
144.7775816284
 30
0.0
 11
88.32953125
 21
144.7775816284
 31
0.0
  0
LINE
  5
251
100
AcDbEntity
  8
2654_2L
390
0
100
AcDbLine
 10
97.8313223809
 20
164.7826861417
 30
0.0
 11
87.9859070934
 21
164.7826861417
 31
0.0
  0
LINE
  5
252
100
AcDbEntity
  8
2654_2L
390
0
100
AcDbLine
 10
97.8333955369
 20
168.7660449443
 30
0.0
 11
87.8739381033
 21
166.901991233
 31
0.0
  0
ARC
  5
253
100
AcDbEntity
  8
2654_2L
390
0
100
AcDbCircle
 10
97.8392619
 20
166.7743619504
 30
0.0
 40
1.9916916334
100
AcDbArc
 50
269.7716001147
 51
450.1687602273
  0
LINE
  5
254
100
AcDbEntity
  8
2654_2L
390
0
  6
DASHED
100
AcDbLine
 10
103.3295312501
 20
196.7775816284
 30
0.0
 11
90.8284634381
 21
181.7797974722
 31
0.0
  0
LINE
  5
255
100
AcDbEntity
  8
2654_2L
390
0
  6
DASHED
100
AcDbLine
 10
90.8284634381
 20
181.7797974722
 30
0.0
 11
90.8284634381
 21
170.7797974722
 31
0.0
  0
LINE
  5
256
100
AcDbEntity
  8
2654_2L
390
0
  6
DASHED
100
AcDbLine
 10
90.8284634381
 20
170.7797974722
 30
0.0
 11
87.8739381033
 21
166.901991233
 31
0.0
  0
LINE
  5
257
100
AcDbEntity
  8
2654_2L
390
0
  6
DASHED
100
AcDbLine
 10
87.9859070934
 20
164.7826861417
 30
0.0
 11
103.3295312501
 21
144.7775816284
 31
0.0
  0
LINE
  5
258
100
AcDbEntity
  8
2654_2R
390
0
  6
DIVIDE
100
AcDbLine
 10
118.32953125
 20
196.7775816284
 30
0.0
 11
103.32953125
 21
196.7775816284
 31
0.0
  0
LINE
  5
259
100
AcDbEntity
  8
2654_2R
390
0
  6
DIVIDE
100
AcDbLine
 10
118.32953125
 20
144.7775816284
 30
0.0
 11
103.32953125
 21
144.7775816284
 31
0.0
  0
LINE
  5
25A
100
AcDbEntity
  8
2654_2R
390
0
  6
DASHED
100
AcDbLine
 10
118.3295312501
 20
196.7775816284
 30
0.0
 11
115.828797145
 21
192.7775816283
 31
0.0
  0
LINE
  5
25B
100
AcDbEntity
  8
2654_2R
390
0
  6
DASHED
100
AcDbLine
 10
115.828797145
 20
192.7775816283
 30
0.0
 11
109.32953125
 21
155.7768951474
 31
0.0
  0
LINE
  5
25C
100
AcDbEntity
  8
2654_2R
390
0
  6
DASHED
100
AcDbLine
 10
109.32953125
 20
155.7768951474
 30
0.0
 11
115.828797145
 21
148.7775816284
 31
0.0
  0
LINE
  5
25D
100
AcDbEntity
  8
2654_2R
390
0
  6
DASHED
100
AcDbLine
 10
115.828797145
 20
148.7775816284
 30
0.0
 11
118.3295312501
 21
144.7775816284
 31
0.0
  0
LINE
  5
25E
100
AcDbEntity
  8
2654_1-3 RAHMEN
390
0
100
AcDbLine
 10
103.328844769
 20
115.2994039759
 30
0.0
 11
88.32953125
 21
115.2994039759
 31
0.0
  0
LINE
  5
25F
100
AcDbEntity
  8
2654_1-3 RAHMEN
390
0
100
AcDbLine
 10
103.328844769
 20
85.2994039759
 30
0.0
 11
88.32953125
 21
85.2994039759
 31
0.0
  0
LINE
  5
260
100
AcDbEntity
  8
2654_3L
390
0
  6
DIVIDE
100
AcDbLine
 10
103.328844769
 20
116.2994039759
 30
0.0
 11
88.32953125
 21
116.2994039759
 31
0.0
  0
LINE
  5
261
100
AcDbEntity
  8
2654_3L
390
0
  6
DIVIDE
100
AcDbLine
 10
103.328844769
 20
84.2994039759
 30
0.0
 11
88.32953125
 21
84.2994039759
 31
0.0
  0
LINE
  5
262
100
AcDbEntity
  8
2654_3L
390
0
  6
DASHED
100
AcDbLine
 10
103.3288447689
 20
116.2994039759
 30
0.0
 11
98.328844769
 21
109.800138081
 31
0.0
  0
LINE
  5
263
100
AcDbEntity
  8
2654_3L
390
0
  6
DASHED
100
AcDbLine
 10
98.328844769
 20
109.800138081
 30
0.0
 11
91.32953125
 21
109.800138081
 31
0.0
  0
LINE
  5
264
100
AcDbEntity
  8
2654_3L
390
0
  6
DASHED
100
AcDbLine
 10
91.32953125
 20
109.800138081
 30
0.0
 11
98.328844769
 21
97.7986698709
 31
0.0
  0
LINE
  5
265
100
AcDbEntity
  8
2654_3L
390
0
  6
DASHED
100
AcDbLine
 10
98.328844769
 20
97.7986698709
 30
0.0
 11
91.32953125
 21
91.2994039759
 31
0.0
  0
LINE
  5
266
100
AcDbEntity
  8
2654_3L
390
0
  6
DASHED
100
AcDbLine
 10
91.32953125
 20
91.2994039759
 30
0.0
 11
103.328844769
 21
84.2994039759
 31
0.0
  0
LINE
  5
267
100
AcDbEntity
  8
2654_3R
390
0
100
AcDbLine
 10
103.3288447689
 20
116.2994039759
 30
0.0
 11
107.328844769
 21
116.2994039757
 31
0.0
  0
LINE
  5
268
100
AcDbEntity
  8
2654_3R
390
0
100
AcDbLine
 10
107.328844769
 20
116.2994039757
 30
0.0
 11
107.328844769
 21
84.2994039757
 31
0.0
  0
LINE
  5
269
100
AcDbEntity
  8
2654_3R
390
0
100
AcDbLine
 10
107.328844769
 20
84.2994039757
 30
0.0
 11
103.328844769
 21
84.2994039759
 31
0.0
  0
INSERT
  5
26A
100
AcDbEntity
  8
BEMAßUNG
390
0
100
AcDbBlockReference
  2
D201629184
 10
0.0
 20
0.0
 30
0.0
  0
INSERT
  5
26B
100
AcDbEntity
  8
BEMAßUNG
390
0
100
AcDbBlockReference
  2
D201629440
 10
0.0
 20
0.0
 30
0.0
  0
INSERT
  5
26C
100
AcDbEntity
  8
BEMAßUNG
390
0
100
AcDbBlockReference
  2
D201577984
 10
0.0
 20
0.0
 30
0.0
  0
MTEXT
  5
26D
100
AcDbEntity
  8
2654___ W-_ GSP-_ SIGNAL-ANTRIEB
390
0
100
AcDbMText
 10
-64.1894212526
 20
265.9083583969
 30
0.0
 40
2.0
 41
0.0
 71
         5
 72
         1
  1
\W0.810845;>2654.5L\PM15x15x2\PT2 O2
  7
Arial
 73
         1
 44
0.66
  0
ARC
  5
26E
100
AcDbEntity
  8
2654___ W-_ GSP-_ SIGNAL-ANTRIEB
390
0
  6
DASHDOT
100
AcDbCircle
 10
-51.816853704
 20
264.690013512
 30
0.0
 40
11.2797314315
100
AcDbArc
 50
131.0999434524
 51
228.9000565483
  0
ARC
  5
26F
100
AcDbEntity
  8
2654___ W-_ GSP-_ SIGNAL-ANTRIEB
390
0
  6
DASHDOT
100
AcDbCircle
 10
-25.646237822
 20
192.6854190205
 30
0.0
 40
51.0905482485
100
AcDbArc
 50
131.099943452
 51
228.900056548
  0
ARC
  5
270
100
AcDbEntity
  8
2654___ W-_ GSP-_ SIGNAL-ANTRIEB
390
0
  6
DASHDOT
100
AcDbCircle
 10
1.4297045068
 20
175.6981388091
 30
0.0
 40
27.8675717719
100
AcDbArc
 50
131.099943452
 51
228.900056548
  0
ARC
  5
271
100
AcDbEntity
  8
2654___ W-_ GSP-_ SIGNAL-ANTRIEB
390
0
  6
DASHDOT
100
AcDbCircle
 10
-21.7667622138
 20
101.5750923192
 30
0.0
 40
21.2324356358
100
AcDbArc
 50
131.099943452
 51
228.900056548
  0
MTEXT
  5
272
100
AcDbEntity
  8
2654___ W-_ GSP-_ SIGNAL-ANTRIEB
390
0
100
AcDbMText
 10
-64.1894212526
 20
223.9037639055
 30
0.0
 40
2.0
 41
0.0
 71
         5
 72
         1
  1
\W0.810845;>2654.8L\PM15x15x2\PT2 O2
  7
Arial
 73
         1
 44
0.66
  0
MTEXT
  5
273
100
AcDbEntity
  8
2654___ W-_ GSP-_ SIGNAL-ANTRIEB
390
0
100
AcDbMText
 10
-21.8472863259
 20
189.4164836941
 30
0.0
 40
2.0
 41
0.0
 71
         5
 72
         1
  1
\W0.810845;>2654.4P\PM42+x2\PT2 O2
  7
Arial
 73
         1
 44
0.66
  0
MTEXT
  5
274
100
AcDbEntity
  8
2654___ W-_ GSP-_ SIGNAL-ANTRIEB
390
0
100
AcDbMText
 10
-64.1001221021
 20
127.027658826
 30
0.0
 40
2.0
 41
0.0
 71
         5
 72
         1
  1
\W0.810848;>2654.10L\PM15x15x2\PT2 O2
  7
Arial
 73
         1
 44
0.66
  0
MTEXT
  5
275
100
AcDbEntity
  8
2654___ W-_ GSP-_ SIGNAL-ANTRIEB
390
0
100
AcDbMText
 10
-14.6422333293
 20
248.2791266342
 30
0.0
 40
2.0
 41
0.0
 71
         5
 72
         1
  1
\W0.810845;>2654.7P\PMŘ6\PT6 O2
  7
Arial
 73
         1
 44
0.66
  0
ARC
  5
276
100
AcDbEntity
  8
2654___ W-_ GSP-_ SIGNAL-ANTRIEB
390
0
  6
DASHDOT
100
AcDbCircle
 10
-13.0432235865
 20
172.0532699716
 30
0.0
 40
34.5027079081
100
AcDbArc
 50
131.099943452
 51
228.900056548
  0
ARC
  5
277
100
AcDbEntity
  8
2654___ W-_ GSP-_ SIGNAL-ANTRIEB
390
0
  6
DASHDOT
100
AcDbCircle
 10
-21.239818934
 20
90.7703637125
 30
0.0
 40
57.725714792
100
AcDbArc
 50
131.0411335367
 51
228.8412466326
  0
ARC
  5
278
100
AcDbEntity
  8
2654___ W-_ GSP-_ SIGNAL-ANTRIEB
390
0
  6
DASHDOT
100
AcDbCircle
 10
-0.8433504609
 20
245.2071466781
 30
0.0
 40
12.6067586587
100
AcDbArc
 50
131.099943452
 51
228.900056548
  0
ARC
  5
279
100
AcDbEntity
  8
2654___ W-_ GSP-_ SIGNAL-ANTRIEB
390
0
  6
DASHDOT
100
AcDbCircle
 10
-13.0432235866
 20
247.2644383433
 30
0.0
 40
34.5027079081
100
AcDbArc
 50
131.099943452
 51
228.900056548
  0
MTEXT
  5
27A
100
AcDbEntity
  8
2654___ W-_ GSP-_ SIGNAL-ANTRIEB
390
0
100
AcDbMText
 10
-40.681983733
 20
265.4827832283
 30
0.0
 40
2.0
 41
0.0
 71
         5
 72
         1
  1
\W0.810845;>2654.1L\PM15x15x2\PT2 O2
  7
Arial
 73
         1
 44
0.66
  0
MTEXT
  5
27B
100
AcDbEntity
  8
2654___ W-_ GSP-_ SIGNAL-ANTRIEB
390
0
100
AcDbMText
 10
-40.6819837329
 20
190.2716148567
 30
0.0
 40
2.0
 41
0.0
 71
         5
 72
         1
  1
\W0.810845;>2654.2L\PM15x15x2\PT2 O2
  7
Arial
 73
         1
 44
0.66
  0
MTEXT
  5
27C
100
AcDbEntity
  8
2654___ W-_ GSP-_ SIGNAL-ANTRIEB
390
0
100
AcDbMText
 10
-40.6819837329
 20
109.7934372042
 30
0.0
 40
2.0
 41
0.0
 71
         5
 72
         1
  1
\W0.810845;>2654.3L\PM15x15x2\PT2 O2
  7
Arial
 73
         1
 44
0.66
  0
TEXT
  5
27D
100
AcDbEntity
  8
BESCHRIFTUNG
390
0
100
AcDbText
 10
79.2208799901
 20
203.5584514313
 30
0.0
 40
3.0
  1
2654.2L,R
 41
1.1351032047
  7
Arial
 11
79.2208799901
 21
206.5584514313
 31
0.0
100
AcDbText
 73
         3
  0
TEXT
  5
27E
100
AcDbEntity
  8
BESCHRIFTUNG
390
0
100
AcDbText
 10
79.2201935091
 20
123.0802737788
 30
0.0
 40
3.0
  1
2654.3L,R
 41
1.1351033103
  7
Arial
 11
79.2201935091
 21
126.0802737788
 31
0.0
100
AcDbText
 73
         3
  0
INSERT
  5
27F
100
AcDbEntity
  8
BEMAßUNG
390
0
100
AcDbBlockReference
  2
D201577728
 10
0.0
 20
0.0
 30
0.0
  0
LINE
  5
280
100
AcDbEntity
  8
2654_5R
390
0
100
AcDbLine
 10
59.32953125
 20
255.48875
 30
0.0
 11
59.32953125
 21
270.48875
 31
0.0
  0
LINE
  5
281
100
AcDbEntity
  8
2654_5R
390
0
  6
DIVIDE
100
AcDbLine
 10
63.32953125
 20
271.48875
 30
0.0
 11
59.32953125
 21
270.48875
 31
0.0
  0
LINE
  5
282
100
AcDbEntity
  8
2654_5R
390
0
  6
DASHED
100
AcDbLine
 10
59.32953125
 20
255.48875
 30
0.0
 11
56.32953125
 21
266.48875
 31
0.0
  0
LINE
  5
283
100
AcDbEntity
  8
2654_5R
390
0
  6
DASHED
100
AcDbLine
 10
53.32953125
 20
259.18875
 30
0.0
 11
63.32953125
 21
254.48875
 31
0.0
  0
LINE
  5
284
100
AcDbEntity
  8
2654_8 STELLSCHIEBER
390
0
100
AcDbLine
 10
55.4802653551
 20
206.9841555086
 30
0.0
 11
55.4802653551
 21
218.9841555086
 31
0.0
  0
LINE
  5
285
100
AcDbEntity
  8
2654_10 RIEGELSCHIEBER
390
0
100
AcDbLine
 10
48.82953125
 20
131.6080504309
 30
0.0
 11
48.82953125
 21
46.6080504309
 31
0.0
  0
LINE
  5
286
100
AcDbEntity
  8
2654_8 STELLSCHIEBER
390
0
100
AcDbLine
 10
50.32953125
 20
199.6050444105
 30
0.0
 11
48.32953125
 21
199.6050444105
 31
0.0
  0
LINE
  5
287
100
AcDbEntity
  8
2654_10 RIEGELSCHIEBER
390
0
  6
DASHED
100
AcDbLine
 10
50.82953125
 20
131.6080504309
 30
0.0
 11
50.82953125
 21
46.6080504309
 31
0.0
  0
LINE
  5
288
100
AcDbEntity
  8
2654_10 RIEGELSCHIEBER
390
0
100
AcDbLine
 10
57.32953125
 20
96.1101481061
 30
0.0
 11
52.82953125
 21
96.1101481061
 31
0.0
  0
LINE
  5
289
100
AcDbEntity
  8
2654_8 STELLSCHIEBER
390
0
  6
DASHED
100
AcDbLine
 10
50.32953125
 20
205.6050444105
 30
0.0
 11
50.32953125
 21
228.4841555086
 31
0.0
  0
LINE
  5
28A
100
AcDbEntity
  8
2654_8 STELLSCHIEBER
390
0
100
AcDbLine
 10
46.32953125
 20
199.6071699384
 30
0.0
 11
39.3302320995
 21
199.6071699384
 31
0.0
  0
LINE
  5
28B
100
AcDbEntity
  8
2654_8 STELLSCHIEBER
390
0
100
AcDbLine
 10
48.32953125
 20
205.6050444105
 30
0.0
 11
50.32953125
 21
205.6050444105
 31
0.0
  0
LINE
  5
28C
100
AcDbEntity
  8
2654_1-3 RAHMEN
390
0
100
AcDbLine
 10
98.4295312499
 20
251.3678610982
 30
0.0
 11
98.4295312499
 21
263.3678610982
 31
0.0
  0
LINE
  5
28D
100
AcDbEntity
  8
2654_10 RIEGELSCHIEBER
390
0
100
AcDbLine
 10
39.82953125
 20
131.6080504309
 30
0.0
 11
48.82953125
 21
131.6080504309
 31
0.0
  0
LINE
  5
28E
100
AcDbEntity
  8
2654_10 RIEGELSCHIEBER
390
0
100
AcDbLine
 10
39.82953125
 20
99.6050360011
 30
0.0
 11
39.82953125
 21
131.6080504309
 31
0.0
  0
LINE
  5
28F
100
AcDbEntity
  8
2654_10 RIEGELSCHIEBER
390
0
100
AcDbLine
 10
39.82953125
 20
46.6080504309
 30
0.0
 11
48.82953125
 21
46.6080504309
 31
0.0
  0
LINE
  5
290
100
AcDbEntity
  8
2654_8 STELLSCHIEBER
390
0
  6
DASHED
100
AcDbLine
 10
46.32953125
 20
201.3571699384
 30
0.0
 11
48.32953125
 21
201.3571699384
 31
0.0
  0
LINE
  5
291
100
AcDbEntity
  8
2654_10 RIEGELSCHIEBER
390
0
100
AcDbLine
 10
39.82953125
 20
78.6152602111
 30
0.0
 11
45.32953125
 21
78.6152602111
 31
0.0
  0
LINE
  5
292
100
AcDbEntity
  8
2654_8 STELLSCHIEBER
390
0
  6
DASHED
100
AcDbLine
 10
46.32953125
 20
203.8571699384
 30
0.0
 11
48.32953125
 21
203.8571699384
 31
0.0
  0
LINE
  5
293
100
AcDbEntity
  8
2654_10 RIEGELSCHIEBER
390
0
100
AcDbLine
 10
57.32953125
 20
82.1101481061
 30
0.0
 11
52.82953125
 21
82.1101481061
 31
0.0
  0
LINE
  5
294
100
AcDbEntity
  8
2654_10 RIEGELSCHIEBER
390
0
100
AcDbLine
 10
57.32953125
 20
96.1101481061
 30
0.0
 11
57.32953125
 21
131.6080504309
 31
0.0
  0
LINE
  5
295
100
AcDbEntity
  8
2654_10 RIEGELSCHIEBER
390
0
  6
DASHED
100
AcDbLine
 10
46.82953125
 20
131.6080504309
 30
0.0
 11
46.82953125
 21
46.6080504309
 31
0.0
  0
LINE
  5
296
100
AcDbEntity
  8
2654_8 STELLSCHIEBER
390
0
100
AcDbLine
 10
39.3302320995
 20
205.6071699384
 30
0.0
 11
46.32953125
 21
205.6071699384
 31
0.0
  0
LINE
  5
297
100
AcDbEntity
  8
2654_10 RIEGELSCHIEBER
390
0
100
AcDbLine
 10
52.82953125
 20
82.1101481061
 30
0.0
 11
52.82953125
 21
96.1101481061
 31
0.0
  0
LINE
  5
298
100
AcDbEntity
  8
2654_1-3 RAHMEN
390
0
100
AcDbLine
 10
94.4295312499
 20
263.3678610982
 30
0.0
 11
94.4295312499
 21
251.3678610982
 31
0.0
  0
LINE
  5
299
100
AcDbEntity
  8
2654_10 RIEGELSCHIEBER
390
0
100
AcDbLine
 10
48.82953125
 20
131.6080504309
 30
0.0
 11
48.82953125
 21
46.6080504309
 31
0.0
  0
LINE
  5
29A
100
AcDbEntity
  8
2654_10 RIEGELSCHIEBER
390
0
100
AcDbLine
 10
39.82953125
 20
99.6050360011
 30
0.0
 11
45.32953125
 21
99.6050360011
 31
0.0
  0
LINE
  5
29B
100
AcDbEntity
  8
2654_8 STELLSCHIEBER
390
0
100
AcDbLine
 10
39.3302320995
 20
199.6071699384
 30
0.0
 11
39.3302320995
 21
194.2371699384
 31
0.0
  0
LINE
  5
29C
100
AcDbEntity
  8
2654_10 RIEGELSCHIEBER
390
0
100
AcDbLine
 10
57.32953125
 20
46.6080504309
 30
0.0
 11
57.32953125
 21
82.1101481061
 31
0.0
  0
LINE
  5
29D
100
AcDbEntity
  8
2654_10 RIEGELSCHIEBER
390
0
100
AcDbLine
 10
39.82953125
 20
46.6080504309
 30
0.0
 11
39.82953125
 21
78.6152602111
 31
0.0
  0
LINE
  5
29E
100
AcDbEntity
  8
2654_8 STELLSCHIEBER
390
0
100
AcDbLine
 10
52.82953125
 20
194.2300444103
 30
0.0
 11
52.82953125
 21
187.9800444103
 31
0.0
  0
LINE
  5
29F
100
AcDbEntity
  8
2654_8 STELLSCHIEBER
390
0
100
AcDbLine
 10
52.4802653551
 20
218.9841555086
 30
0.0
 11
52.4802653551
 21
206.9841555086
 31
0.0
  0
LINE
  5
2A0
100
AcDbEntity
  8
2654_8 STELLSCHIEBER
390
0
100
AcDbLine
 10
48.32953125
 20
187.9800444103
 30
0.0
 11
52.82953125
 21
187.9800444103
 31
0.0
  0
LINE
  5
2A1
100
AcDbEntity
  8
2654_10 RIEGELSCHIEBER
390
0
100
AcDbLine
 10
48.8295312509
 20
95.6041398719
 30
0.0
 11
50.8295312509
 21
95.6041398719
 31
0.0
  0
LINE
  5
2A2
100
AcDbEntity
  8
2654_10 RIEGELSCHIEBER
390
0
100
AcDbLine
 10
45.32953125
 20
78.6152602111
 30
0.0
 11
45.32953125
 21
83.697060359
 31
0.0
  0
LINE
  5
2A3
100
AcDbEntity
  8
2654_8 STELLSCHIEBER
390
0
100
AcDbLine
 10
52.82953125
 20
194.2300444103
 30
0.0
 11
48.32953125
 21
194.2300444103
 31
0.0
  0
LINE
  5
2A4
100
AcDbEntity
  8
2654_10 RIEGELSCHIEBER
390
0
100
AcDbLine
 10
52.9802653551
 20
79.1225663708
 30
0.0
 11
52.9802653551
 21
55.1225663708
 31
0.0
  0
LINE
  5
2A5
100
AcDbEntity
  8
2654_10 RIEGELSCHIEBER
390
0
100
AcDbLine
 10
55.9802653551
 20
123.1223639499
 30
0.0
 11
55.9802653551
 21
99.1223639499
 31
0.0
  0
LINE
  5
2A6
100
AcDbEntity
  8
2654_10 RIEGELSCHIEBER
390
0
100
AcDbLine
 10
48.8295312509
 20
78.6152602111
 30
0.0
 11
50.8295312509
 21
78.6152602111
 31
0.0
  0
LINE
  5
2A7
100
AcDbEntity
  8
2654_8 STELLSCHIEBER
390
0
  6
DASHED
100
AcDbLine
 10
50.32953125
 20
153.4843579295
 30
0.0
 11
50.32953125
 21
187.9800444103
 31
0.0
  0
LINE
  5
2A8
100
AcDbEntity
  8
2654_8 STELLSCHIEBER
390
0
  6
DASHED
100
AcDbLine
 10
50.32953125
 20
194.2300444103
 30
0.0
 11
50.32953125
 21
199.6050444105
 31
0.0
  0
LINE
  5
2A9
100
AcDbEntity
  8
2654_10 RIEGELSCHIEBER
390
0
100
AcDbLine
 10
55.9802653551
 20
55.1225663708
 30
0.0
 11
55.9802653551
 21
79.1225663708
 31
0.0
  0
LINE
  5
2AA
100
AcDbEntity
  8
2654_10 RIEGELSCHIEBER
390
0
100
AcDbLine
 10
52.9802653551
 20
123.1223639499
 30
0.0
 11
52.9802653551
 21
99.1223639499
 31
0.0
  0
LINE
  5
2AB
100
AcDbEntity
  8
2654_10 RIEGELSCHIEBER
390
0
100
AcDbLine
 10
48.82953125
 20
131.6080504309
 30
0.0
 11
57.32953125
 21
131.6080504309
 31
0.0
  0
LINE
  5
2AC
100
AcDbEntity
  8
2654_10 RIEGELSCHIEBER
390
0
100
AcDbLine
 10
57.32953125
 20
46.6080504309
 30
0.0
 11
48.82953125
 21
46.6080504309
 31
0.0
  0
LINE
  5
2AD
100
AcDbEntity
  8
2654_10 RIEGELSCHIEBER
390
0
100
AcDbLine
 10
45.32953125
 20
99.6050360011
 30
0.0
 11
45.32953125
 21
94.5232358532
 31
0.0
  0
LINE
  5
2AE
100
AcDbEntity
  8
2654_10 RIEGELSCHIEBER
390
0
100
AcDbLine
 10
48.8295312509
 20
99.6050360011
 30
0.0
 11
50.8295312509
 21
99.6050360011
 31
0.0
  0
LINE
  5
2AF
100
AcDbEntity
  8
2654_8 STELLSCHIEBER
390
0
100
AcDbLine
 10
55.4802653551
 20
162.9843579295
 30
0.0
 11
55.4802653551
 21
181.9836714487
 31
0.0
  0
LINE
  5
2B0
100
AcDbEntity
  8
2654_10 RIEGELSCHIEBER
390
0
100
AcDbLine
 10
48.8295312509
 20
82.6152602111
 30
0.0
 11
50.8295312509
 21
82.6152602111
 31
0.0
  0
LINE
  5
2B1
100
AcDbEntity
  8
2654_8 STELLSCHIEBER
390
0
100
AcDbLine
 10
48.32953125
 20
228.4841555086
 30
0.0
 11
56.82953125
 21
228.4841555086
 31
0.0
  0
ARC
  5
2B2
100
AcDbEntity
  8
2654_10 RIEGELSCHIEBER
390
0
100
AcDbCircle
 10
38.3568640503
 20
89.1101481061
 30
0.0
 40
8.8272083263
100
AcDbArc
 50
322.1767531029
 51
397.8232468971
  0
CIRCLE
  5
2B3
100
AcDbEntity
  8
2654_10 RIEGELSCHIEBER
390
0
100
AcDbCircle
 10
54.4856490355
 20
128.6180504309
 30
0.0
 40
1.25
  0
CIRCLE
  5
2B4
100
AcDbEntity
  8
2654_10 RIEGELSCHIEBER
390
0
100
AcDbCircle
 10
54.4856490355
 20
49.6155857992
 30
0.0
 40
1.25
  0
ARC
  5
2B5
100
AcDbEntity
  8
2654_10 RIEGELSCHIEBER
390
0
100
AcDbCircle
 10
54.4802653551
 20
55.1225663708
 30
0.0
 40
1.5
100
AcDbArc
 50
180.0
 51
360.0
  0
ARC
  5
2B6
100
AcDbEntity
  8
2654_10 RIEGELSCHIEBER
390
0
100
AcDbCircle
 10
54.4802653551
 20
79.1225663708
 30
0.0
 40
1.5
100
AcDbArc
 50
0.0
 51
180.0
  0
ARC
  5
2B7
100
AcDbEntity
  8
2654_10 RIEGELSCHIEBER
390
0
100
AcDbCircle
 10
54.4802653551
 20
99.1223639499
 30
0.0
 40
1.5
100
AcDbArc
 50
180.0
 51
360.0
  0
ARC
  5
2B8
100
AcDbEntity
  8
2654_10 RIEGELSCHIEBER
390
0
100
AcDbCircle
 10
54.4802653551
 20
123.1223639499
 30
0.0
 40
1.5
100
AcDbArc
 50
0.0
 51
180.0
  0
ARC
  5
2B9
100
AcDbEntity
  8
2654_8 STELLSCHIEBER
390
0
100
AcDbCircle
 10
53.9802653551
 20
218.9841555086
 30
0.0
 40
1.5
100
AcDbArc
 50
0.0
 51
180.0
  0
ARC
  5
2BA
100
AcDbEntity
  8
2654_8 STELLSCHIEBER
390
0
100
AcDbCircle
 10
53.9802653551
 20
206.9841555086
 30
0.0
 40
1.5
100
AcDbArc
 50
180.0
 51
360.0
  0
ARC
  5
2BB
100
AcDbEntity
  8
2654_8 STELLSCHIEBER
390
0
100
AcDbCircle
 10
53.9802653551
 20
181.9836714487
 30
0.0
 40
1.5
100
AcDbArc
 50
0.0
 51
180.0
  0
ARC
  5
2BC
100
AcDbEntity
  8
2654_8 STELLSCHIEBER
390
0
100
AcDbCircle
 10
53.9802653551
 20
162.9843579295
 30
0.0
 40
1.5
100
AcDbArc
 50
180.0
 51
360.0
  0
LINE
  5
2BD
100
AcDbEntity
  8
2654_8 STELLSCHIEBER
390
0
100
AcDbLine
 10
52.4802653551
 20
162.9843579295
 30
0.0
 11
52.4802653551
 21
181.9836714487
 31
0.0
  0
LINE
  5
2BE
100
AcDbEntity
  8
2654_8 STELLSCHIEBER
390
0
100
AcDbLine
 10
56.82953125
 20
153.4843579295
 30
0.0
 11
48.32953125
 21
153.4843579295
 31
0.0
  0
LINE
  5
2BF
100
AcDbEntity
  8
2654_8 STELLSCHIEBER
390
0
100
AcDbLine
 10
56.82953125
 20
228.4841555086
 30
0.0
 11
56.82953125
 21
153.4843579295
 31
0.0
  0
LINE
  5
2C0
100
AcDbEntity
  8
2654_8 STELLSCHIEBER
390
0
  6
DASHED
100
AcDbLine
 10
46.32953125
 20
194.2371699384
 30
0.0
 11
48.32953125
 21
194.2371699384
 31
0.0
  0
LINE
  5
2C1
100
AcDbEntity
  8
2654_8 STELLSCHIEBER
390
0
100
AcDbLine
 10
39.3302320995
 20
228.4841555086
 30
0.0
 11
39.3302320995
 21
205.6071699384
 31
0.0
  0
LINE
  5
2C2
100
AcDbEntity
  8
2654_8 STELLSCHIEBER
390
0
100
AcDbLine
 10
39.3302320995
 20
194.2371699384
 30
0.0
 11
46.32953125
 21
194.2371699384
 31
0.0
  0
LINE
  5
2C3
100
AcDbEntity
  8
2654_8 STELLSCHIEBER
390
0
100
AcDbLine
 10
39.3302320995
 20
187.9871699384
 30
0.0
 11
46.32953125
 21
187.9871699384
 31
0.0
  0
LINE
  5
2C4
100
AcDbEntity
  8
2654_8 STELLSCHIEBER
390
0
100
AcDbLine
 10
39.3302320995
 20
187.9871699384
 30
0.0
 11
39.3302320995
 21
153.4841555086
 31
0.0
  0
LINE
  5
2C5
100
AcDbEntity
  8
2654_8 STELLSCHIEBER
390
0
100
AcDbLine
 10
39.3302320995
 20
228.4841555086
 30
0.0
 11
48.32953125
 21
228.4841555086
 31
0.0
  0
LINE
  5
2C6
100
AcDbEntity
  8
2654_8 STELLSCHIEBER
390
0
  6
DASHED
100
AcDbLine
 10
46.32953125
 20
153.4841555086
 30
0.0
 11
46.32953125
 21
187.9871699384
 31
0.0
  0
LINE
  5
2C7
100
AcDbEntity
  8
2654_8 STELLSCHIEBER
390
0
100
AcDbLine
 10
39.3302320995
 20
153.4841555086
 30
0.0
 11
48.32953125
 21
153.4841555086
 31
0.0
  0
LINE
  5
2C8
100
AcDbEntity
  8
2654_8 STELLSCHIEBER
390
0
100
AcDbLine
 10
48.32953125
 20
153.4841555086
 30
0.0
 11
48.32953125
 21
187.9871699384
 31
0.0
  0
LINE
  5
2C9
100
AcDbEntity
  8
2654_8 STELLSCHIEBER
390
0
  6
DASHED
100
AcDbLine
 10
46.32953125
 20
187.9871699384
 30
0.0
 11
48.32953125
 21
187.9871699384
 31
0.0
  0
ARC
  5
2CA
100
AcDbEntity
  8
2654_1-3 RAHMEN
390
0
100
AcDbCircle
 10
96.4295312499
 20
263.3678610982
 30
0.0
 40
2.0
100
AcDbArc
 50
0.0
 51
180.0
  0
ARC
  5
2CB
100
AcDbEntity
  8
2654_1-3 RAHMEN
390
0
100
AcDbCircle
 10
96.4295312499
 20
251.3678610982
 30
0.0
 40
2.0
100
AcDbArc
 50
180.0
 51
360.0
  0
LINE
  5
2CC
100
AcDbEntity
  8
2654_10L
390
0
100
AcDbLine
 10
38.82953125
 20
98.6050360011
 30
0.0
 11
44.32953125
 21
98.6050360011
 31
0.0
  0
LINE
  5
2CD
100
AcDbEntity
  8
2654_10L
390
0
100
AcDbLine
 10
38.82953125
 20
79.6152602111
 30
0.0
 11
44.32953125
 21
79.6152602111
 31
0.0
  0
LINE
  5
2CE
100
AcDbEntity
  8
2654_10L
390
0
100
AcDbLine
 10
44.32953125
 20
79.6152602111
 30
0.0
 11
44.32953125
 21
84.0512513187
 31
0.0
  0
ARC
  5
2CF
100
AcDbEntity
  8
2654_10L
390
0
100
AcDbCircle
 10
38.3568640503
 20
89.1101481061
 30
0.0
 40
7.8272083263
100
AcDbArc
 50
319.7351344633
 51
400.2648655367
  0
LINE
  5
2D0
100
AcDbEntity
  8
2654_10L
390
0
100
AcDbLine
 10
44.32953125
 20
98.6050360011
 30
0.0
 11
44.32953125
 21
94.1690448934
 31
0.0
  0
LINE
  5
2D1
100
AcDbEntity
  8
2654_10R
390
0
100
AcDbLine
 10
58.32953125
 20
83.1101481061
 30
0.0
 11
53.82953125
 21
83.1101481061
 31
0.0
  0
LINE
  5
2D2
100
AcDbEntity
  8
2654_10R
390
0
100
AcDbLine
 10
53.82953125
 20
83.1101481061
 30
0.0
 11
53.82953125
 21
95.1059527558
 31
0.0
  0
LINE
  5
2D3
100
AcDbEntity
  8
2654_8 STELLSCHIEBER
390
0
100
AcDbLine
 10
48.32953125
 20
194.2300444103
 30
0.0
 11
48.32953125
 21
228.4841555086
 31
0.0
  0
LINE
  5
2D4
100
AcDbEntity
  8
2654_8 STELLSCHIEBER
390
0
100
AcDbLine
 10
46.32953125
 20
187.9871699384
 30
0.0
 11
46.32953125
 21
194.2371699384
 31
0.0
  0
LINE
  5
2D5
100
AcDbEntity
  8
2654_8 STELLSCHIEBER
390
0
  6
DASHED
100
AcDbLine
 10
46.32953125
 20
203.6071699384
 30
0.0
 11
46.32953125
 21
228.4841555086
 31
0.0
  0
LINE
  5
2D6
100
AcDbEntity
  8
2654_8 STELLSCHIEBER
390
0
100
AcDbLine
 10
46.32953125
 20
197.6071699384
 30
0.0
 11
46.32953125
 21
203.6071699384
 31
0.0
  0
LINE
  5
2D7
100
AcDbEntity
  8
2654_8 STELLSCHIEBER
390
0
  6
DASHED
100
AcDbLine
 10
46.32953125
 20
194.2371699384
 30
0.0
 11
46.32953125
 21
199.6071699384
 31
0.0
  0
CIRCLE
  5
2D8
100
AcDbEntity
  8
2654_5R
390
0
  6
DIVIDE
100
AcDbCircle
 10
53.32953125
 20
259.18875
 30
0.0
 40
3.0
  0
TEXT
  5
2D9
100
AcDbEntity
  8
2654_5R
390
0
  6
DIVIDE
100
AcDbText
 10
48.8833429283
 20
259.8908698103
 30
0.0
 40
2.0
  1
D1
 41
0.8108671945
  7
Arial
 11
48.8833429283
 21
261.8908698103
 31
0.0
100
AcDbText
 73
         3
  0
TEXT
  5
2DA
100
AcDbEntity
  8
2654_7P
390
0
  6
DIVIDE
100
AcDbText
 10
158.2657709936
 20
244.6451334287
 30
0.0
 40
2.0
  1
B1
 41
0.8108681563
  7
Arial
 11
158.2657709936
 21
246.6451334287
 31
0.0
100
AcDbText
 73
         3
  0
LINE
  5
2DB
100
AcDbEntity
  8
2654_5 STELLHEBEL
390
0
100
AcDbLine
 10
46.32953125
 20
255.48875
 30
0.0
 11
48.32953125
 21
255.48875
 31
0.0
  0
LINE
  5
2DC
100
AcDbEntity
  8
2654_5L
390
0
100
AcDbLine
 10
39.0805318618
 20
256.3919183859
 30
0.0
 11
46.1981448405
 21
254.4887500014
 31
0.0
  0
CIRCLE
  5
2DD
100
AcDbEntity
  8
2654_4P
390
0
  6
DIVIDE
100
AcDbCircle
 10
166.1614736736
 20
190.7078227578
 30
0.0
 40
1.0
  0
CIRCLE
  5
2DE
100
AcDbEntity
  8
2654_4P
390
0
  6
DIVIDE
100
AcDbCircle
 10
166.1614736735
 20
185.707822758
 30
0.0
 40
1.0
  0
CIRCLE
  5
2DF
100
AcDbEntity
  8
2654_4P
390
0
  6
DIVIDE
100
AcDbCircle
 10
173.6614736735
 20
188.6982038146
 30
0.0
 40
1.0
  0
CIRCLE
  5
2E0
100
AcDbEntity
  8
2654_4P
390
0
  6
DIVIDE
100
AcDbCircle
 10
171.1614736735
 20
184.3680767958
 30
0.0
 40
1.0
  0
CIRCLE
  5
2E1
100
AcDbEntity
  8
2654_4P
390
0
  6
DIVIDE
100
AcDbCircle
 10
174.8217277114
 20
180.707822758
 30
0.0
 40
1.0
  0
CIRCLE
  5
2E2
100
AcDbEntity
  8
2654_4P
390
0
  6
DIVIDE
100
AcDbCircle
 10
179.1518547302
 20
183.2078227579
 30
0.0
 40
1.0
  0
CIRCLE
  5
2E3
100
AcDbEntity
  8
2654_4P
390
0
  6
DIVIDE
100
AcDbCircle
 10
176.1614736736
 20
175.707822758
 30
0.0
 40
1.0
  0
CIRCLE
  5
2E4
100
AcDbEntity
  8
2654_4P
390
0
  6
DIVIDE
100
AcDbCircle
 10
181.1614736734
 20
175.7078227579
 30
0.0
 40
1.0
  0
CIRCLE
  5
2E5
100
AcDbEntity
  8
2654_4P
390
0
  6
DIVIDE
100
AcDbCircle
 10
174.8217277114
 20
170.707822758
 30
0.0
 40
1.0
  0
CIRCLE
  5
2E6
100
AcDbEntity
  8
2654_4P
390
0
  6
DIVIDE
100
AcDbCircle
 10
179.1518547302
 20
168.207822758
 30
0.0
 40
1.0
  0
CIRCLE
  5
2E7
100
AcDbEntity
  8
2654_4P
390
0
  6
DIVIDE
100
AcDbCircle
 10
173.6614736735
 20
162.7174417013
 30
0.0
 40
1.0
  0
CIRCLE
  5
2E8
100
AcDbEntity
  8
2654_4P
390
0
  6
DIVIDE
100
AcDbCircle
 10
171.1614736736
 20
167.0475687201
 30
0.0
 40
1.0
  0
CIRCLE
  5
2E9
100
AcDbEntity
  8
2654_4P
390
0
  6
DIVIDE
100
AcDbCircle
 10
166.1614736735
 20
160.7078227581
 30
0.0
 40
1.0
  0
CIRCLE
  5
2EA
100
AcDbEntity
  8
2654_4P
390
0
  6
DIVIDE
100
AcDbCircle
 10
166.1614736736
 20
165.707822758
 30
0.0
 40
1.0
  0
CIRCLE
  5
2EB
100
AcDbEntity
  8
2654_4P
390
0
  6
DIVIDE
100
AcDbCircle
 10
158.6614736736
 20
162.7174417013
 30
0.0
 40
1.0
  0
CIRCLE
  5
2EC
100
AcDbEntity
  8
2654_4P
390
0
  6
DIVIDE
100
AcDbCircle
 10
161.1614736736
 20
167.0475687201
 30
0.0
 40
1.0
  0
CIRCLE
  5
2ED
100
AcDbEntity
  8
2654_4P
390
0
  6
DIVIDE
100
AcDbCircle
 10
157.5012196357
 20
170.7078227579
 30
0.0
 40
1.0
  0
CIRCLE
  5
2EE
100
AcDbEntity
  8
2654_4P
390
0
  6
DIVIDE
100
AcDbCircle
 10
156.1614736736
 20
175.7078227579
 30
0.0
 40
1.0
  0
CIRCLE
  5
2EF
100
AcDbEntity
  8
2654_4P
390
0
  6
DIVIDE
100
AcDbCircle
 10
151.1614736737
 20
175.707822758
 30
0.0
 40
1.0
  0
CIRCLE
  5
2F0
100
AcDbEntity
  8
2654_4P
390
0
  6
DIVIDE
100
AcDbCircle
 10
157.5012196357
 20
180.7078227579
 30
0.0
 40
1.0
  0
CIRCLE
  5
2F1
100
AcDbEntity
  8
2654_4P
390
0
  6
DIVIDE
100
AcDbCircle
 10
153.1710926169
 20
183.2078227579
 30
0.0
 40
1.0
  0
CIRCLE
  5
2F2
100
AcDbEntity
  8
2654_4P
390
0
  6
DIVIDE
100
AcDbCircle
 10
158.6614736736
 20
188.6982038146
 30
0.0
 40
1.0
  0
CIRCLE
  5
2F3
100
AcDbEntity
  8
2654_4P
390
0
  6
DIVIDE
100
AcDbCircle
 10
161.1614736735
 20
184.3680767958
 30
0.0
 40
1.0
  0
LINE
  5
2F4
100
AcDbEntity
  8
2654_4P
390
0
  6
DASHED
100
AcDbLine
 10
158.6614736736
 20
188.6982038146
 30
0.0
 11
166.1614736736
 21
190.7078227578
 31
0.0
  0
LINE
  5
2F5
100
AcDbEntity
  8
2654_4P
390
0
  6
DASHED
100
AcDbLine
 10
166.1614736736
 20
190.7078227578
 30
0.0
 11
173.6614736735
 21
188.6982038146
 31
0.0
  0
LINE
  5
2F6
100
AcDbEntity
  8
2654_4P
390
0
  6
DASHED
100
AcDbLine
 10
173.6614736735
 20
188.6982038146
 30
0.0
 11
179.1518547302
 21
183.2078227579
 31
0.0
  0
LINE
  5
2F7
100
AcDbEntity
  8
2654_4P
390
0
  6
DASHED
100
AcDbLine
 10
179.1518547302
 20
183.2078227579
 30
0.0
 11
181.1614736734
 21
175.7078227579
 31
0.0
  0
LINE
  5
2F8
100
AcDbEntity
  8
2654_4P
390
0
  6
DASHED
100
AcDbLine
 10
181.1614736734
 20
175.7078227579
 30
0.0
 11
179.1518547302
 21
168.207822758
 31
0.0
  0
LINE
  5
2F9
100
AcDbEntity
  8
2654_4P
390
0
  6
DASHED
100
AcDbLine
 10
179.1518547302
 20
168.207822758
 30
0.0
 11
173.6614736735
 21
162.7174417013
 31
0.0
  0
LINE
  5
2FA
100
AcDbEntity
  8
2654_4P
390
0
  6
DASHED
100
AcDbLine
 10
173.6614736735
 20
162.7174417013
 30
0.0
 11
166.1614736735
 21
160.7078227581
 31
0.0
  0
LINE
  5
2FB
100
AcDbEntity
  8
2654_4P
390
0
  6
DASHED
100
AcDbLine
 10
166.1614736735
 20
160.7078227581
 30
0.0
 11
158.6614736736
 21
162.7174417012
 31
0.0
  0
LINE
  5
2FC
100
AcDbEntity
  8
2654_4P
390
0
  6
DASHED
100
AcDbLine
 10
158.6614736736
 20
162.7174417012
 30
0.0
 11
152.3054503101
 21
167.7080439392
 31
0.0
  0
LINE
  5
2FD
100
AcDbEntity
  8
2654_4P
390
0
  6
DASHED
100
AcDbLine
 10
152.3054503101
 20
167.7080439392
 30
0.0
 11
151.1614736737
 21
175.707822758
 31
0.0
  0
LINE
  5
2FE
100
AcDbEntity
  8
2654_4P
390
0
  6
DASHED
100
AcDbLine
 10
151.1614736737
 20
175.707822758
 30
0.0
 11
153.1710926169
 21
183.2078227579
 31
0.0
  0
LINE
  5
2FF
100
AcDbEntity
  8
2654_4P
390
0
  6
DASHED
100
AcDbLine
 10
157.5012196357
 20
180.7078227579
 30
0.0
 11
161.1614736735
 21
184.3680767958
 31
0.0
  0
LINE
  5
300
100
AcDbEntity
  8
2654_4P
390
0
  6
DASHED
100
AcDbLine
 10
161.1614736735
 20
184.3680767958
 30
0.0
 11
166.1614736735
 21
185.707822758
 31
0.0
  0
LINE
  5
301
100
AcDbEntity
  8
2654_4P
390
0
  6
DASHED
100
AcDbLine
 10
166.1614736735
 20
185.707822758
 30
0.0
 11
171.1614736735
 21
184.3680767958
 31
0.0
  0
LINE
  5
302
100
AcDbEntity
  8
2654_4P
390
0
  6
DASHED
100
AcDbLine
 10
171.1614736735
 20
184.3680767958
 30
0.0
 11
174.8217277114
 21
180.707822758
 31
0.0
  0
LINE
  5
303
100
AcDbEntity
  8
2654_4P
390
0
  6
DASHED
100
AcDbLine
 10
174.8217277114
 20
180.707822758
 30
0.0
 11
176.1614736736
 21
175.707822758
 31
0.0
  0
LINE
  5
304
100
AcDbEntity
  8
2654_4P
390
0
  6
DASHED
100
AcDbLine
 10
176.1614736736
 20
175.707822758
 30
0.0
 11
174.8217277114
 21
170.707822758
 31
0.0
  0
LINE
  5
305
100
AcDbEntity
  8
2654_4P
390
0
  6
DASHED
100
AcDbLine
 10
174.8217277114
 20
170.707822758
 30
0.0
 11
171.1614736736
 21
167.0475687201
 31
0.0
  0
LINE
  5
306
100
AcDbEntity
  8
2654_4P
390
0
  6
DASHED
100
AcDbLine
 10
171.1614736736
 20
167.0475687201
 30
0.0
 11
166.1614736736
 21
165.707822758
 31
0.0
  0
LINE
  5
307
100
AcDbEntity
  8
2654_4P
390
0
  6
DASHED
100
AcDbLine
 10
166.1614736736
 20
175.707822758
 30
0.0
 11
166.1614736736
 21
165.707822758
 31
0.0
  0
LINE
  5
308
100
AcDbEntity
  8
2654_4P
390
0
  6
DASHED
100
AcDbLine
 10
166.1614736736
 20
175.707822758
 30
0.0
 11
156.1614736736
 21
175.7078227579
 31
0.0
  0
LINE
  5
309
100
AcDbEntity
  8
2654_4P
390
0
  6
DASHED
100
AcDbLine
 10
153.1710926169
 20
183.2078227579
 30
0.0
 11
157.5012196357
 21
180.7078227579
 31
0.0
  0
LINE
  5
30A
100
AcDbEntity
  8
2654_4P
390
0
  6
DASHED
100
AcDbLine
 10
156.1614736736
 20
175.7078227579
 30
0.0
 11
157.5012196357
 21
170.7078227579
 31
0.0
  0
LINE
  5
30B
100
AcDbEntity
  8
2654_4P
390
0
  6
DASHED
100
AcDbLine
 10
157.5012196357
 20
170.7078227579
 30
0.0
 11
161.1614736736
 21
167.0475687201
 31
0.0
  0
LINE
  5
30C
100
AcDbEntity
  8
2654_4P
390
0
  6
DASHED
100
AcDbLine
 10
161.1614736736
 20
167.0475687201
 30
0.0
 11
145.1614736736
 21
154.707822758
 31
0.0
  0
CIRCLE
  5
30D
100
AcDbEntity
  8
HILFSLINIEN
390
0
100
AcDbCircle
 10
155.661
 20
193.894
 30
0.0
 40
10.0
  0
TEXT
  5
30E
100
AcDbEntity
  8
2654_4P
390
0
  6
DASHED
100
AcDbText
 10
158.7099536302
 20
195.0825599018
 30
0.0
 40
2.0
  1
N1
 41
1.1350267802
  7
Arial
 11
158.7099536302
 21
197.0825599018
 31
0.0
100
AcDbText
 73
         3
  0
LINE
  5
30F
100
AcDbEntity
  8
STANDARD
390
0
100
AcDbLine
 10
10.0
 20
5.0
 30
0.0
 11
10.0
 21
292.0
 31
0.0
  0
LINE
  5
310
100
AcDbEntity
  8
STANDARD
390
0
100
AcDbLine
 10
15.0
 20
287.0
 30
0.0
 11
205.0
 21
287.0
 31
0.0
  0
LINE
  5
311
100
AcDbEntity
  8
STANDARD
390
0
100
AcDbLine
 10
10.0
 20
292.0
 30
0.0
 11
15.0
 21
292.0
 31
0.0
  0
LINE
  5
312
100
AcDbEntity
  8
STANDARD
390
0
100
AcDbLine
 10
10.0
 20
5.0
 30
0.0
 11
15.0
 21
5.0
 31
0.0
  0
LINE
  5
313
100
AcDbEntity
  8
STANDARD
390
0
100
AcDbLine
 10
10.0
 20
244.1666666667
 30
0.0
 11
15.0
 21
244.1666666667
 31
0.0
  0
LINE
  5
314
100
AcDbEntity
  8
STANDARD
390
0
100
AcDbLine
 10
10.0
 20
196.3333333333
 30
0.0
 11
15.0
 21
196.3333333333
 31
0.0
  0
LINE
  5
315
100
AcDbEntity
  8
STANDARD
390
0
100
AcDbLine
 10
10.0
 20
148.5
 30
0.0
 11
15.0
 21
148.5
 31
0.0
  0
LINE
  5
316
100
AcDbEntity
  8
STANDARD
390
0
100
AcDbLine
 10
10.0
 20
100.6666666667
 30
0.0
 11
15.0
 21
100.6666666667
 31
0.0
  0
LINE
  5
317
100
AcDbEntity
  8
STANDARD
390
0
100
AcDbLine
 10
10.0
 20
52.8333333333
 30
0.0
 11
15.0
 21
52.8333333333
 31
0.0
  0
LINE
  5
318
100
AcDbEntity
  8
STANDARD
390
0
100
AcDbLine
 10
157.5
 20
292.0
 30
0.0
 11
157.5
 21
287.0
 31
0.0
  0
LINE
  5
319
100
AcDbEntity
  8
STANDARD
390
0
100
AcDbLine
 10
110.0
 20
292.0
 30
0.0
 11
110.0
 21
287.0
 31
0.0
  0
LINE
  5
31A
100
AcDbEntity
  8
STANDARD
390
0
100
AcDbLine
 10
62.5
 20
292.0
 30
0.0
 11
62.5
 21
287.0
 31
0.0
  0
TEXT
  5
31B
100
AcDbEntity
  8
STANDARD
390
0
100
AcDbText
 10
10.9491078691
 20
267.8641561278
 30
0.0
 40
2.23125
  1
A
 41
1.547986837
  7
Arial
 72
         1
 11
12.6760806841
 21
270.0954061278
 31
0.0
100
AcDbText
 73
         3
  0
TEXT
  5
31C
100
AcDbEntity
  8
STANDARD
390
0
100
AcDbText
 10
10.9491074243
 20
220.0308227945
 30
0.0
 40
2.23125
  1
B
 41
1.5479872357
  7
Arial
 72
         1
 11
12.6760806841
 21
222.2620727945
 31
0.0
100
AcDbText
 73
         3
  0
TEXT
  5
31D
100
AcDbEntity
  8
STANDARD
390
0
100
AcDbText
 10
10.9489779593
 20
172.1974894612
 30
0.0
 40
2.23125
  1
C
 41
1.5481032827
  7
Arial
 72
         1
 11
12.6760806841
 21
174.4287394612
 31
0.0
100
AcDbText
 73
         3
  0
TEXT
  5
31E
100
AcDbEntity
  8
STANDARD
390
0
100
AcDbText
 10
10.9489771034
 20
124.3641561278
 30
0.0
 40
2.23125
  1
D
 41
1.54810405
  7
Arial
 72
         1
 11
12.6760806841
 21
126.5954061278
 31
0.0
100
AcDbText
 73
         3
  0
TEXT
  5
31F
100
AcDbEntity
  8
STANDARD
390
0
100
AcDbText
 10
10.9491076096
 20
76.5308227945
 30
0.0
 40
2.23125
  1
E
 41
1.5479870696
  7
Arial
 72
         1
 11
12.6760806841
 21
78.7620727945
 31
0.0
100
AcDbText
 73
         3
  0
TEXT
  5
320
100
AcDbEntity
  8
STANDARD
390
0
100
AcDbText
 10
10.9493506612
 20
28.6974894612
 30
0.0
 40
2.23125
  1
F
 41
1.5477692083
  7
Arial
 72
         1
 11
12.6760806841
 21
30.9287394612
 31
0.0
100
AcDbText
 73
         3
  0
TEXT
  5
321
100
AcDbEntity
  8
STANDARD
390
0
100
AcDbText
 10
36.7048241449
 20
288.48599354
 30
0.0
 40
2.23125
  1
1
 41
1.5479225906
  7
Arial
 72
         1
 11
38.0
 21
290.71724354
 31
0.0
100
AcDbText
 73
         3
  0
TEXT
  5
322
100
AcDbEntity
  8
STANDARD
390
0
100
AcDbText
 10
83.7730999712
 20
288.48599354
 30
0.0
 40
2.23125
  1
2
 41
1.5479215945
  7
Arial
 72
         1
 11
85.5
 21
290.71724354
 31
0.0
100
AcDbText
 73
         3
  0
TEXT
  5
323
100
AcDbEntity
  8
STANDARD
390
0
100
AcDbText
 10
131.2730986376
 20
288.48599354
 30
0.0
 40
2.23125
  1
3
 41
1.5479227899
  7
Arial
 72
         1
 11
133.0
 21
290.71724354
 31
0.0
100
AcDbText
 73
         3
  0
TEXT
  5
324
100
AcDbEntity
  8
STANDARD
390
0
100
AcDbText
 10
178.7730988598
 20
288.48599354
 30
0.0
 40
2.23125
  1
4
 41
1.5479225906
  7
Arial
 72
         1
 11
180.5
 21
290.71724354
 31
0.0
100
AcDbText
 73
         3
  0
LINE
  5
325
100
AcDbEntity
  8
STANDARD
390
0
100
AcDbLine
 10
205.0
 20
292.0
 30
0.0
 11
205.0
 21
287.0
 31
0.0
  0
LINE
  5
326
100
AcDbEntity
  8
STANDARD
390
0
100
AcDbLine
 10
205.0
 20
5.0
 30
0.0
 11
15.0
 21
5.0
 31
0.0
  0
LINE
  5
327
100
AcDbEntity
  8
STANDARD
390
0
100
AcDbLine
 10
15.0
 20
5.0
 30
0.0
 11
15.0
 21
287.0
 31
0.0
  0
LINE
  5
328
100
AcDbEntity
  8
STANDARD
390
0
100
AcDbLine
 10
15.0
 20
292.0
 30
0.0
 11
205.0
 21
292.0
 31
0.0
  0
LINE
  5
329
100
AcDbEntity
  8
STANDARD
390
0
100
AcDbLine
 10
1.0
 20
1.0
 30
0.0
 11
1.0
 21
296.0
 31
0.0
  0
LINE
  5
32A
100
AcDbEntity
  8
STANDARD
390
0
100
AcDbLine
 10
209.0
 20
1.0
 30
0.0
 11
1.0
 21
1.0
 31
0.0
  0
LINE
  5
32B
100
AcDbEntity
  8
STANDARD
390
0
100
AcDbLine
 10
209.0
 20
296.0
 30
0.0
 11
209.0
 21
1.0
 31
0.0
  0
LINE
  5
32C
100
AcDbEntity
  8
STANDARD
390
0
100
AcDbLine
 10
1.0
 20
296.0
 30
0.0
 11
209.0
 21
296.0
 31
0.0
  0
LINE
  5
32D
100
AcDbEntity
  8
STANDARD
390
0
100
AcDbLine
 10
15.0
 20
287.0
 30
0.0
 11
15.0
 21
292.0
 31
0.0
  0
LINE
  5
32E
100
AcDbEntity
  8
STANDARD
390
0
100
AcDbLine
 10
205.0
 20
287.0
 30
0.0
 11
205.0
 21
5.0
 31
0.0
  0
MTEXT
  5
32F
100
AcDbEntity
  8
STANDARD
390
0
100
AcDbMText
 10
203.6063292805
 20
81.4222772661
 30
0.0
 40
1.59375
 41
0.0
 71
         1
 72
         1
  1

  7
Arial
 11
0.0
 21
-1.0
 31
0.0
 73
         1
 44
1.0352941176
  0
MTEXT
  5
330
100
AcDbEntity
  8
STANDARD
390
0
100
AcDbMText
 10
116.6968769253
 20
27.5871143065
 30
0.0
 40
1.59375
 41
0.0
 71
         1
 72
         1
  1

  7
Arial
 11
0.0
 21
-1.0
 31
0.0
 73
         1
 44
1.0352941176
  0
MTEXT
  5
331
100
AcDbEntity
  8
STANDARD
390
0
100
AcDbMText
 10
203.6063292805
 20
125.7560948498
 30
0.0
 40
1.59375
 41
0.0
 71
         1
 72
         1
  1

  7
Arial
 11
0.0
 21
-1.0
 31
0.0
 73
         1
 44
1.0352941176
  0
LINE
  5
332
100
AcDbEntity
  8
STANDARD
390
0
100
AcDbLine
 10
205.0
 20
182.1150997151
 30
0.0
 11
205.0
 21
5.1236467236
 31
0.0
  0
LINE
  5
333
100
AcDbEntity
  8
STANDARD
370
         0
390
0
100
AcDbLine
 10
127.305982906
 20
34.4
 30
0.0
 11
127.305982906
 21
5.0
 31
0.0
  0
LINE
  5
334
100
AcDbEntity
  8
STANDARD
370
         0
390
0
100
AcDbLine
 10
81.105982906
 20
34.4
 30
0.0
 11
205.0
 21
34.4
 31
0.0
  0
LINE
  5
335
100
AcDbEntity
  8
STANDARD
370
         0
390
0
100
AcDbLine
 10
81.105982906
 20
27.4
 30
0.0
 11
205.0
 21
27.4
 31
0.0
  0
LINE
  5
336
100
AcDbEntity
  8
STANDARD
370
         0
390
0
100
AcDbLine
 10
81.105982906
 20
12.0
 30
0.0
 11
205.0
 21
12.0
 31
0.0
  0
LINE
  5
337
100
AcDbEntity
  8
STANDARD
370
         0
390
0
100
AcDbLine
 10
81.105982906
 20
34.4
 30
0.0
 11
81.105982906
 21
5.0
 31
0.0
  0
LINE
  5
338
100
AcDbEntity
  8
STANDARD
370
         0
390
0
100
AcDbLine
 10
165.105982906
 20
34.4
 30
0.0
 11
165.105982906
 21
27.4
 31
0.0
  0
TEXT
  5
339
100
AcDbEntity
  8
BESCHRIFTUNG
390
0
100
AcDbText
 10
82.2010860399
 20
29.1386
 30
0.0
 40
3.3
  1
Stellwerk HMM
 41
1.3758039542
 51
15.0
  7
Arial
 11
82.2010860399
 21
32.4386
 31
0.0
100
AcDbText
 73
         3
  0
TEXT
  5
33A
100
AcDbEntity
  8
BESCHRIFTUNG
390
0
100
AcDbText
 10
128.6210415954
 20
21.6601111111
 30
0.0
 40
3.3
  1
Weichen- und Gsp-Antrieb 
 41
1.1301934992
 51
15.0
  7
Arial
 11
128.6210415954
 21
24.9601111111
 31
0.0
100
AcDbText
 73
         3
  0
TEXT
  5
33B
100
AcDbEntity
  8
BESCHRIFTUNG
390
0
100
AcDbText
 10
82.2010860399
 20
6.9230888889
 30
0.0
 40
3.3
  1
Dateiname
 41
1.1437088374
 51
15.0
  7
Arial
 11
82.2010860399
 21
10.2230888889
 31
0.0
100
AcDbText
 73
         3
  0
TEXT
  5
33C
100
AcDbEntity
  8
BESCHRIFTUNG
390
0
100
AcDbText
 10
82.4210415954
 20
21.6601111111
 30
0.0
 40
3.3
  1
Bl. 2654 Pv
 41
1.1437155269
 51
15.0
  7
Arial
 11
82.4210415954
 21
24.9601111111
 31
0.0
100
AcDbText
 73
         3
  0
TEXT
  5
33D
100
AcDbEntity
  8
BESCHRIFTUNG
390
0
100
AcDbText
 10
166.2010860399
 20
29.1386
 30
0.0
 40
3.3
  1
Maßstab 1:1
 41
1.1437192123
 51
15.0
  7
Arial
 11
166.2010860399
 21
32.4386
 31
0.0
100
AcDbText
 73
         3
  0
ENDSEC
  0
SECTION
  2
OBJECTS
  0
DICTIONARY
  5
19
100
AcDbDictionary
280
         0
281
         1
  3
ACAD_GROUP
350
1A
  3
ACAD_MLINESTYLE
350
1B
  3
ACAD_LAYOUT
350
1E
  3
ACAD_PLOTSETTINGS
350
22
  3
ACAD_PLOTSTYLENAME
350
1F
  3
ACAD_WIPEOUT_VARS
350
23
  0
DICTIONARY
  5
1A
102
{ACAD_REACTORS
330
19
102
}
100
AcDbDictionary
280
         0
281
         1
  0
DICTIONARY
  5
1B
102
{ACAD_REACTORS
330
19
102
}
100
AcDbDictionary
280
         0
281
         1
  3
Standard
350
1C
  0
MLINESTYLE
  5
1C
102
{ACAD_REACTORS
330
1B
102
}
100
AcDbMlineStyle
  2
Standard
 70
         0
  3

 62
         0
 51
90.0
 52
90.0
 71
         2
 49
0.5
 62
       256
  6
ByLayer
 49
-0.5
 62
       256
  6
ByLayer
  0
ACDBDICTIONARYWDFLT
  5
1F
102
{ACAD_REACTORS
330
19
102
}
100
AcDbDictionary
281
         1
  3
Normal
350
1D
100
AcDbDictionaryWithDefault
340
1D
  0
ACDBPLACEHOLDER
  5
1D
102
{ACAD_REACTORS
330
1F
102
}
  0
LAYOUT
  5
20
102
{ACAD_REACTORS
330
1E
102
}
100
AcDbPlotSettings
  1

  2

  4

  6

 40
0.0
 41
0.0
 42
0.0
 43
0.0
 44
0.0
 45
0.0
 46
0.0
 47
0.0
 48
0.0
 49
0.0
140
0.0
141
0.0
142
1.0
143
1.0
 70
      1024
 72
         0
 73
         0
 74
         0
  7

 75
         0
147
1.0
148
0.0
149
0.0
100
AcDbLayout
  1
Model
 70
         0
 71
         0
 10
0.0
 20
0.0
 11
0.0
 21
0.0
 12
0.0
 22
0.0
 32
0.0
 14
0.0
 24
0.0
 34
0.0
 15
0.0
 25
0.0
 35
0.0
146
0.0
 13
0.0
 23
0.0
 33
0.0
 16
0.0
 26
0.0
 36
0.0
 17
0.0
 27
0.0
 37
0.0
 76
         0
330
A
331
0
345
0
346
0
  0
LAYOUT
  5
21
102
{ACAD_REACTORS
330
1E
102
}
100
AcDbPlotSettings
  1

  2

  4

  6

 40
0.0
 41
0.0
 42
0.0
 43
0.0
 44
0.0
 45
0.0
 46
0.0
 47
0.0
 48
0.0
 49
0.0
140
0.0
141
0.0
142
1.0
143
1.0
 70
         0
 72
         0
 73
         0
 74
         0
  7

 75
         0
147
1.0
148
0.0
149
0.0
100
AcDbLayout
  1
Layout1
 70
         0
 71
         0
 10
0.0
 20
0.0
 11
0.0
 21
0.0
 12
0.0
 22
0.0
 32
0.0
 14
0.0
 24
0.0
 34
0.0
 15
0.0
 25
0.0
 35
0.0
146
0.0
 13
0.0
 23
0.0
 33
0.0
 16
0.0
 26
0.0
 36
0.0
 17
0.0
 27
0.0
 37
0.0
 76
         0
330
B
331
0
345
0
346
0
  0
DICTIONARY
  5
1E
102
{ACAD_REACTORS
330
19
102
}
100
AcDbDictionary
280
         0
281
         1
  3
Layout1
350
21
  3
Model
350
20
  0
DICTIONARY
  5
22
102
{ACAD_REACTORS
330
19
102
}
100
AcDbDictionary
280
         0
281
         1
  0
WIPEOUTVARIABLES
  5
23
100
AcDbWipeoutVariables
 70
         1
  0
ENDSEC
  0
EOF
