  0
SECTION
  2
HEADER
  9
$ACADVER
  1
AC1015
  9
$ACADMAINTVER
 70
         6
  9
$DWGCODEPAGE
  3
ANSI_1252
  9
$INSBASE
 10
0.0
 20
0.0
 30
0.0
  9
$EXTMIN
 10
0.0
 20
0.0
 30
0.0
  9
$EXTMAX
 10
210.0
 20
297.0
 30
0.0
  9
$LIMMIN
 10
0.0
 20
0.0
  9
$LIMMAX
 10
210.0
 20
297.0
  9
$ORTHOMODE
 70
         0
  9
$REGENMODE
 70
         1
  9
$FILLMODE
 70
         1
  9
$QTEXTMODE
 70
         0
  9
$MIRRTEXT
 70
         1
  9
$LTSCALE
 40
5.25
  9
$ATTMODE
 70
         1
  9
$TEXTSIZE
 40
0.2
  9
$TRACEWID
 40
0.05
  9
$TEXTSTYLE
  7
Standard
  9
$CLAYER
  8
0
  9
$CELTYPE
  6
CONTINUOUS
  9
$CECOLOR
 62
       256
  9
$CELTSCALE
 40
1.0
  9
$DISPSILH
 70
         0
  9
$DIMSCALE
 40
1.0
  9
$DIMASZ
 40
0.18
  9
$DIMEXO
 40
0.0625
  9
$DIMDLI
 40
0.38
  9
$DIMRND
 40
0.0
  9
$DIMDLE
 40
0.0
  9
$DIMEXE
 40
0.18
  9
$DIMTP
 40
0.0
  9
$DIMTM
 40
0.0
  9
$DIMTXT
 40
3.0
  9
$DIMCEN
 40
0.09
  9
$DIMTSZ
 40
0.0
  9
$DIMTOL
 70
         0
  9
$DIMLIM
 70
         0
  9
$DIMTIH
 70
         1
  9
$DIMTOH
 70
         1
  9
$DIMSE1
 70
         0
  9
$DIMSE2
 70
         0
  9
$DIMTAD
 70
         1
  9
$DIMZIN
 70
         0
  9
$DIMBLK
  1

  9
$DIMASO
 70
         1
  9
$DIMSHO
 70
         1
  9
$DIMPOST
  1
<>
  9
$DIMAPOST
  1

  9
$DIMALT
 70
         0
  9
$DIMALTD
 70
         2
  9
$DIMALTF
 40
25.4
  9
$DIMLFAC
 40
1.0
  9
$DIMTOFL
 70
         0
  9
$DIMTVP
 40
0.0
  9
$DIMTIX
 70
         0
  9
$DIMSOXD
 70
         0
  9
$DIMSAH
 70
         0
  9
$DIMBLK1
  1

  9
$DIMBLK2
  1

  9
$DIMSTYLE
  2
Standard
  9
$DIMCLRD
 70
         0
  9
$DIMCLRE
 70
         0
  9
$DIMCLRT
 70
         0
  9
$DIMTFAC
 40
1.0
  9
$DIMGAP
 40
0.09
  9
$DIMJUST
 70
         0
  9
$DIMSD1
 70
         0
  9
$DIMSD2
 70
         0
  9
$DIMTOLJ
 70
         1
  9
$DIMTZIN
 70
         0
  9
$DIMALTZ
 70
         0
  9
$DIMALTTZ
 70
         0
  9
$DIMUPT
 70
         0
  9
$DIMDEC
 70
         4
  9
$DIMTDEC
 70
         4
  9
$DIMALTU
 70
         2
  9
$DIMALTTD
 70
         2
  9
$DIMTXSTY
  7
Standard
  9
$DIMAUNIT
 70
         0
  9
$DIMADEC
 70
         0
  9
$DIMALTRND
 40
0.0
  9
$DIMAZIN
 70
         0
  9
$DIMDSEP
 70
         0
  9
$DIMATFIT
 70
         3
  9
$DIMFRAC
 70
         0
  9
$DIMLDRBLK
  1

  9
$DIMLUNIT
 70
         2
  9
$DIMLWD
 70
         0
  9
$DIMLWE
 70
         0
  9
$DIMTMOVE
 70
         0
  9
$LUNITS
 70
         2
  9
$LUPREC
 70
         4
  9
$SKETCHINC
 40
0.1
  9
$FILLETRAD
 40
0.0
  9
$AUNITS
 70
         0
  9
$AUPREC
 70
         0
  9
$MENU
  1
acad
  9
$ELEVATION
 40
0.0
  9
$PELEVATION
 40
0.0
  9
$THICKNESS
 40
0.0
  9
$LIMCHECK
 70
         0
  9
$CHAMFERA
 40
0.0
  9
$CHAMFERB
 40
0.0
  9
$CHAMFERC
 40
0.0
  9
$CHAMFERD
 40
0.0
  9
$SKPOLY
 70
         0
  9
$TDCREATE
 40
0.000000000
  9
$TDUCREATE
 40
0.000000000
  9
$TDUPDATE
 40
0.000000000
  9
$TDUUPDATE
 40
0.000000000
  9
$TDINDWG
 40
0.0000000000
  9
$TDUSRTIMER
 40
0.0000000000
  9
$USRTIMER
 70
         1
  9
$ANGBASE
 50
0.0
  9
$ANGDIR
 70
         0
  9
$PDMODE
 70
         0
  9
$PDSIZE
 40
0.0
  9
$PLINEWID
 40
0.0
  9
$SPLFRAME
 70
         0
  9
$SPLINETYPE
 70
         6
  9
$SPLINESEGS
 70
         8
  9
$HANDSEED
  5
30C
  9
$SURFTAB1
 70
         6
  9
$SURFTAB2
 70
         6
  9
$SURFTYPE
 70
         6
  9
$SURFU
 70
         6
  9
$SURFV
 70
         6
  9
$UCSBASE
  2

  9
$UCSNAME
  2

  9
$UCSORG
 10
0.0
 20
0.0
 30
0.0
  9
$UCSXDIR
 10
1.0
 20
0.0
 30
0.0
  9
$UCSYDIR
 10
0.0
 20
1.0
 30
0.0
  9
$UCSORTHOREF
  2

  9
$UCSORTHOVIEW
 70
         0
  9
$UCSORGTOP
 10
0.0
 20
0.0
 30
0.0
  9
$UCSORGBOTTOM
 10
0.0
 20
0.0
 30
0.0
  9
$UCSORGLEFT
 10
0.0
 20
0.0
 30
0.0
  9
$UCSORGRIGHT
 10
0.0
 20
0.0
 30
0.0
  9
$UCSORGFRONT
 10
0.0
 20
0.0
 30
0.0
  9
$UCSORGBACK
 10
0.0
 20
0.0
 30
0.0
  9
$PUCSBASE
  2

  9
$PUCSNAME
  2

  9
$PUCSORG
 10
0.0
 20
0.0
 30
0.0
  9
$PUCSXDIR
 10
1.0
 20
0.0
 30
0.0
  9
$PUCSYDIR
 10
0.0
 20
1.0
 30
0.0
  9
$PUCSORTHOREF
  2

  9
$PUCSORTHOVIEW
 70
         0
  9
$PUCSORGTOP
 10
0.0
 20
0.0
 30
0.0
  9
$PUCSORGBOTTOM
 10
0.0
 20
0.0
 30
0.0
  9
$PUCSORGLEFT
 10
0.0
 20
0.0
 30
0.0
  9
$PUCSORGRIGHT
 10
0.0
 20
0.0
 30
0.0
  9
$PUCSORGFRONT
 10
0.0
 20
0.0
 30
0.0
  9
$PUCSORGBACK
 10
0.0
 20
0.0
 30
0.0
  9
$USERI1
 70
         0
  9
$USERI2
 70
         0
  9
$USERI3
 70
         0
  9
$USERI4
 70
         0
  9
$USERI5
 70
         0
  9
$USERR1
 40
0.0
  9
$USERR2
 40
0.0
  9
$USERR3
 40
0.0
  9
$USERR4
 40
0.0
  9
$USERR5
 40
0.0
  9
$WORLDVIEW
 70
         1
  9
$SHADEDGE
 70
         3
  9
$SHADEDIF
 70
        70
  9
$TILEMODE
 70
         1
  9
$MAXACTVP
 70
        16
  9
$PINSBASE
 10
0.0
 20
0.0
 30
0.0
  9
$PLIMCHECK
 70
         0
  9
$PEXTMIN
 10
1.0000000000E+20
 20
1.0000000000E+20
 30
1.0000000000E+20
  9
$PEXTMAX
 10
-1.0000000000E+20
 20
-1.0000000000E+20
 30
-1.0000000000E+20
  9
$PLIMMIN
 10
0.0
 20
0.0
  9
$PLIMMAX
 10
12.0
 20
9.0
  9
$UNITMODE
 70
         0
  9
$VISRETAIN
 70
         0
  9
$PLINEGEN
 70
         1
  9
$PSLTSCALE
 70
         0
  9
$TREEDEPTH
 70
      3020
  9
$CMLSTYLE
  2
Standard
  9
$CMLJUST
 70
         0
  9
$CMLSCALE
 40
1.0
  9
$PROXYGRAPHICS
 70
         0
  9
$MEASUREMENT
 70
         1
  9
$CELWEIGHT
370
         0
  9
$ENDCAPS
280
         0
  9
$JOINSTYLE
280
         0
  9
$LWDISPLAY
290
         0
  9
$INSUNITS
 70
         0
  9
$HYPERLINKBASE
  1

  9
$STYLESHEET
  1

  9
$XEDIT
290
         1
  9
$CEPSNTYPE
380
         0
  9
$PSTYLEMODE
290
         1
  9
$FINGERPRINTGUID
  2

  9
$VERSIONGUID
  2

  9
$EXTNAMES
290
         1
  9
$PSVPSCALE
 40
0.0
  0
ENDSEC
  0
SECTION
  2
CLASSES
  0
CLASS
  1
LWPOLYLINE
  2
AcDbPolyline
  3
AutoCAD 2000
 90
        0
280
         0
281
         1
  0
CLASS
  1
IMAGE
  2
AcDbRasterImage
  3
ISM
 90
      127
280
         0
281
         1
  0
CLASS
  1
OLE2FRAME
  2
AcDbOle2Frame
  3
AutoCAD 2000
 90
        0
280
         0
281
         1
  0
CLASS
  1
HATCH
  2
AcDbHatch
  3
AutoCAD 2000
 90
        0
280
         0
281
         1
  0
CLASS
  1
DICTIONARYVAR
  2
AcDbDictionaryVar
  3
AutoCAD 2000
 90
        0
280
         0
281
         0
  0
CLASS
  1
RASTERVARIABLES
  2
AcDbRasterVariables
  3
ISM
 90
        0
280
         0
281
         0
  0
CLASS
  1
IMAGEDEF
  2
AcDbRasterImageDef
  3
ISM
 90
        0
280
         0
281
         0
  0
CLASS
  1
IMAGEDEF_REACTOR
  2
AcDbRasterImageDefReactor
  3
ISM
 90
        1
280
         0
281
         0
  0
CLASS
  1
IDBUFFER
  2
AcDbIdBuffer
  3
AutoCAD 2000
 90
        0
280
         0
281
         0
  0
CLASS
  1
SPATIAL_FILTER
  2
AcDbSpatialFilter
  3
AutoCAD 2000
 90
        0
280
         0
281
         0
  0
CLASS
  1
XRECORD
  2
AcDbXrecord
  3
AutoCAD 2000
 90
        0
280
         0
281
         0
  0
CLASS
  1
SORTENTSTABLE
  2
AcDbSortentsTable
  3
AutoCAD 2000
 90
        0
280
         0
281
         0
  0
CLASS
  1
LAYER_INDEX
  2
AcDbLayerIndex
  3
AutoCAD 2000
 90
        0
280
         0
281
         0
  0
CLASS
  1
SPATIAL_INDEX
  2
AcDbSpatialIndex
  3
AutoCAD 2000
 90
        0
280
         0
281
         0
  0
CLASS
  1
OBJECT_PTR
  2
CAseDLPNTableRecord
  3
"ASE-LPNTableRecord"
 90
        1
280
         0
281
         0
  0
CLASS
  1
LAYOUT
  2
AcDbLayout
  3
AutoCAD 2000
 90
        0
280
         0
281
         0
  0
CLASS
  1
PLOTSETTINGS
  2
AcDbPlotSettings
  3
AutoCAD 2000
 90
        0
280
         0
281
         0
  0
CLASS
  1
ACDBDICTIONARYWDFLT
  2
AcDbDictionaryWithDefault
  3
AutoCAD 2000
 90
        0
280
         0
281
         0
  0
CLASS
  1
ACDBPLACEHOLDER
  2
AcDbPlaceHolder
  3
AutoCAD 2000
 90
        0
280
         0
281
         0
  0
CLASS
  1
VBA_PROJECT
  2
AcDbVbaProject
  3
acadvba
 90
        0
280
         0
281
         0
  0
CLASS
  1
WIPEOUT
  2
AcDbWipeout
  3
WipeOut|AutoCAD Express Tool|expresstools@autodesk.com
 90
      127
280
         0
281
         1
  0
CLASS
  1
WIPEOUTVARIABLES
  2
AcDbWipeoutVariables
  3
WipeOut|AutoCAD Express Tool|expresstools@autodesk.com
 90
        0
280
         0
281
         0
  0
CLASS
  1
RTEXT
  2
RText
  3
RText|AutoCAD Express Tool|expresstools@autodesk.com
 90
        0
280
         0
281
         1
  0
CLASS
  1
ARCALIGNEDTEXT
  2
AcDbArcAlignedText
  3
ATEXT|AutoCAD Express Tool|expresstools@autodesk.com
 90
        0
280
         0
281
         1
  0
ENDSEC
  0
SECTION
  2
TABLES
  0
TABLE
  2
VPORT
  5
7
100
AcDbSymbolTable
 70
         1
  0
VPORT
  5
15
100
AcDbSymbolTableRecord
100
AcDbViewportTableRecord
  2
*ACTIVE
 70
         0
 10
0.0
 20
0.0
 11
1.0
 21
1.0
 12
105.0
 22
148.5
 13
0.0
 23
0.0
 14
1.0
 24
1.0
 15
0.0
 25
0.0
 16
0.0
 26
0.0
 36
1.0
 17
0.0
 27
0.0
 37
0.0
 40
231.2943892345
 41
1.0
 42
50.0
 43
0.0
 44
0.0
 50
0.0
 51
0.0
 71
         0
 72
       100
 73
         1
 74
         1
 75
         0
 76
         0
 77
         0
 78
         0
281
         0
 65
         0
110
0.0
120
0.0
130
0.0
111
1.0
121
0.0
131
0.0
112
0.0
122
1.0
132
0.0
345
0
346
0
 79
         0
146
0.0
  0
ENDTAB
  0
TABLE
  2
LTYPE
  5
4
100
AcDbSymbolTable
 70
        12
  0
LTYPE
  5
11
100
AcDbSymbolTableRecord
100
AcDbLinetypeTableRecord
  2
ByBlock
 70
        64
  3

 72
        65
 73
         0
 40
0.0
  0
LTYPE
  5
12
100
AcDbSymbolTableRecord
100
AcDbLinetypeTableRecord
  2
ByLayer
 70
        64
  3

 72
        65
 73
         0
 40
0.0
  0
LTYPE
  5
13
100
AcDbSymbolTableRecord
100
AcDbLinetypeTableRecord
  2
CONTINUOUS
 70
        64
  3
Solid Line
 72
        65
 73
         0
 40
0.0
  0
LTYPE
  5
24
100
AcDbSymbolTableRecord
100
AcDbLinetypeTableRecord
  2
DOT
 70
        64
  3
. . . . . . . . . . . . . . . . . . . . . . 
 72
        65
 73
         2
 40
0.25
 49
0.0
 74
         0
 49
-0.25
 74
         0
  0
LTYPE
  5
25
100
AcDbSymbolTableRecord
100
AcDbLinetypeTableRecord
  2
HIDDEN
 70
         0
  3
_ _ _ _ _ _ _ _ _ _ _ _ _ _ _ _ _ _ _ _ _ _ _
 72
        65
 73
         2
 40
0.375
 49
0.25
 74
         0
 49
-0.125
 74
         0
  0
LTYPE
  5
26
100
AcDbSymbolTableRecord
100
AcDbLinetypeTableRecord
  2
DASHDOT
 70
         0
  3
__ . __ . __ . __ . __ . __ . __ . __ . __ . __
 72
        65
 73
         4
 40
1.0
 49
0.5
 74
         0
 49
-0.25
 74
         0
 49
0.0
 74
         0
 49
-0.25
 74
         0
  0
LTYPE
  5
27
100
AcDbSymbolTableRecord
100
AcDbLinetypeTableRecord
  2
DIVIDE
 70
         0
  3
__ . . __ . . __ . . __ . . __ . . __ . . __
 72
        65
 73
         6
 40
1.25
 49
0.5
 74
         0
 49
-0.25
 74
         0
 49
0.0
 74
         0
 49
-0.25
 74
         0
 49
0.0
 74
         0
 49
-0.25
 74
         0
  0
LTYPE
  5
28
100
AcDbSymbolTableRecord
100
AcDbLinetypeTableRecord
  2
DASHED
 70
         0
  3
__ __ __ __ __ __ __ __ __ __ __ __ __ __ __
 72
        65
 73
         2
 40
0.75
 49
0.5
 74
         0
 49
-0.25
 74
         0
  0
LTYPE
  5
29
100
AcDbSymbolTableRecord
100
AcDbLinetypeTableRecord
  2
BORDER
 70
         0
  3
__ __ . __ __ . __ __ . __ __ . __ __ .
 72
        65
 73
         6
 40
1.75
 49
0.5
 74
         0
 49
-0.25
 74
         0
 49
0.5
 74
         0
 49
-0.25
 74
         0
 49
0.0
 74
         0
 49
-0.25
 74
         0
  0
LTYPE
  5
2A
100
AcDbSymbolTableRecord
100
AcDbLinetypeTableRecord
  2
CENTER
 70
         0
  3
____ _ ____ _ ____ _ ____ _ ____ _ ____
 72
        65
 73
         4
 40
2.0
 49
1.25
 74
         0
 49
-0.25
 74
         0
 49
0.25
 74
         0
 49
-0.25
 74
         0
  0
LTYPE
  5
2B
100
AcDbSymbolTableRecord
100
AcDbLinetypeTableRecord
  2
DOT2
 70
         0
  3
........................................
 72
        65
 73
         2
 40
0.125
 49
0.0
 74
         0
 49
-0.125
 74
         0
  0
LTYPE
  5
2C
100
AcDbSymbolTableRecord
100
AcDbLinetypeTableRecord
  2
PHANTOM
 70
         0
  3
______  __  __  ______  __  __  ______
 72
        65
 73
         6
 40
2.5
 49
1.25
 74
         0
 49
-0.25
 74
         0
 49
0.25
 74
         0
 49
-0.25
 74
         0
 49
0.25
 74
         0
 49
-0.25
 74
         0
  0
ENDTAB
  0
TABLE
  2
LAYER
  5
2
100
AcDbSymbolTable
 70
       150
  0
LAYER
  5
14
100
AcDbSymbolTableRecord
100
AcDbLayerTableRecord
  2
0
 70
         0
 62
         7
  6
CONTINUOUS
290
         1
370
        -3
390
1D
  0
LAYER
  5
33
100
AcDbSymbolTableRecord
100
AcDbLayerTableRecord
  2
BESCHRIFTUNG
 70
        64
 62
         7
  6
CONTINUOUS
290
         1
370
        25
390
1D
  0
LAYER
  5
34
100
AcDbSymbolTableRecord
100
AcDbLayerTableRecord
  2
SCHRAFFUR
 70
        64
 62
         7
  6
CONTINUOUS
290
         1
370
        25
390
1D
  0
LAYER
  5
35
100
AcDbSymbolTableRecord
100
AcDbLayerTableRecord
  2
MASSTEXTE
 70
        64
 62
       212
  6
CONTINUOUS
290
         1
370
        25
390
1D
  0
LAYER
  5
36
100
AcDbSymbolTableRecord
100
AcDbLayerTableRecord
  2
MASSLINIEN
 70
        64
 62
       172
  6
CONTINUOUS
290
         1
370
        25
390
1D
  0
LAYER
  5
37
100
AcDbSymbolTableRecord
100
AcDbLayerTableRecord
  2
MASSGRENZEN
 70
        64
 62
       172
  6
CONTINUOUS
290
         1
370
        25
390
1D
  0
LAYER
  5
38
100
AcDbSymbolTableRecord
100
AcDbLayerTableRecord
  2
TOLERANZEN
 70
        64
 62
       212
  6
CONTINUOUS
290
         1
370
         0
390
1D
  0
LAYER
  5
39
100
AcDbSymbolTableRecord
100
AcDbLayerTableRecord
  2
BEMAßUNG
 70
        64
 62
         7
  6
CONTINUOUS
290
         1
370
        25
390
1D
  0
LAYER
  5
3A
100
AcDbSymbolTableRecord
100
AcDbLayerTableRecord
  2
HILFSLINIEN
 70
        64
 62
         3
  6
CONTINUOUS
290
         1
370
         0
390
1D
  0
LAYER
  5
3B
100
AcDbSymbolTableRecord
100
AcDbLayerTableRecord
  2
MITTELLINIEN
 70
        64
 62
         5
  6
DASHDOT
290
         1
370
        25
390
1D
  0
LAYER
  5
3C
100
AcDbSymbolTableRecord
100
AcDbLayerTableRecord
  2
BESCHRIFTUNG00
 70
        64
 62
         7
  6
CONTINUOUS
290
         1
370
        25
390
1D
  0
LAYER
  5
3D
100
AcDbSymbolTableRecord
100
AcDbLayerTableRecord
  2
GEWINDELINIEN
 70
        64
 62
       212
  6
CONTINUOUS
290
         1
370
        25
390
1D
  0
LAYER
  5
3E
100
AcDbSymbolTableRecord
100
AcDbLayerTableRecord
  2
UNSICHTBARE
 70
        64
 62
        92
  6
DASHED
290
         1
370
        25
390
1D
  0
LAYER
  5
3F
100
AcDbSymbolTableRecord
100
AcDbLayerTableRecord
  2
VERDECKTE
 70
        64
 62
        92
  6
DASHED
290
         1
370
        25
390
1D
  0
LAYER
  5
40
100
AcDbSymbolTableRecord
100
AcDbLayerTableRecord
  2
LICHTKANTEN
 70
        64
 62
         8
  6
CONTINUOUS
290
         1
370
        25
390
1D
  0
LAYER
  5
41
100
AcDbSymbolTableRecord
100
AcDbLayerTableRecord
  2
SCHNITTVERLAUF
 70
        64
 62
        34
  6
DASHDOT
290
         1
370
        70
390
1D
  0
LAYER
  5
42
100
AcDbSymbolTableRecord
100
AcDbLayerTableRecord
  2
KENNZEICHNUNG
 70
        64
 62
         7
  6
CONTINUOUS
290
         1
370
         0
390
1D
  0
LAYER
  5
43
100
AcDbSymbolTableRecord
100
AcDbLayerTableRecord
  2
PFEILE
 70
        64
 62
         7
  6
CONTINUOUS
290
         1
370
        70
390
1D
  0
LAYER
  5
44
100
AcDbSymbolTableRecord
100
AcDbLayerTableRecord
  2
SCHNITTDARSTELLUNG
 70
        64
 62
         7
  6
CONTINUOUS
290
         1
370
         0
390
1D
  0
LAYER
  5
45
100
AcDbSymbolTableRecord
100
AcDbLayerTableRecord
  2
2650__ WEICHENBOCK
 70
        64
 62
         7
  6
CONTINUOUS
290
         1
370
         0
390
1D
  0
LAYER
  5
46
100
AcDbSymbolTableRecord
100
AcDbLayerTableRecord
  2
GLEIS
 70
        64
 62
        34
  6
CONTINUOUS
290
         1
370
         0
390
1D
  0
LAYER
  5
47
100
AcDbSymbolTableRecord
100
AcDbLayerTableRecord
  2
SPERRSCHUH ABGELEGT
 70
        64
 62
         7
  6
DASHED
290
         1
370
         0
390
1D
  0
LAYER
  5
48
100
AcDbSymbolTableRecord
100
AcDbLayerTableRecord
  2
SPERRSCHUH
 70
        64
 62
         7
  6
CONTINUOUS
290
         1
370
         0
390
1D
  0
LAYER
  5
49
100
AcDbSymbolTableRecord
100
AcDbLayerTableRecord
  2
SPERRSCHUHRAHMEN
 70
        64
 62
        94
  6
CONTINUOUS
290
         1
370
         0
390
1D
  0
LAYER
  5
4A
100
AcDbSymbolTableRecord
100
AcDbLayerTableRecord
  2
SPERRSCHUHANTRIEB
 70
        64
 62
         5
  6
CONTINUOUS
290
         1
370
         0
390
1D
  0
LAYER
  5
4B
100
AcDbSymbolTableRecord
100
AcDbLayerTableRecord
  2
2651__ SBW-GLEISSPERRSCHUH
 70
        64
 62
         7
  6
CONTINUOUS
290
         1
370
         0
390
1D
  0
LAYER
  5
4C
100
AcDbSymbolTableRecord
100
AcDbLayerTableRecord
  2
2655_1 RAHMEN
 70
        64
 62
         7
  6
CONTINUOUS
290
         1
370
        13
390
1D
  0
LAYER
  5
4D
100
AcDbSymbolTableRecord
100
AcDbLayerTableRecord
  2
2655_2 SCHIEBER UMGESTELLT
 70
        64
 62
       230
  6
DASHED
290
         1
370
        13
390
1D
  0
LAYER
  5
4E
100
AcDbSymbolTableRecord
100
AcDbLayerTableRecord
  2
2655_2 SCHIEBER
 70
        64
 62
       230
  6
CONTINUOUS
290
         1
370
        13
390
1D
  0
LAYER
  5
4F
100
AcDbSymbolTableRecord
100
AcDbLayerTableRecord
  2
2655_3 DREHHEBEL UMGESTELLT
 70
        64
 62
       150
  6
DASHED
290
         1
370
        13
390
1D
  0
LAYER
  5
50
100
AcDbSymbolTableRecord
100
AcDbLayerTableRecord
  2
2655_3 DREHHEBEL
 70
        64
 62
       150
  6
CONTINUOUS
290
         1
370
        13
390
1D
  0
LAYER
  5
51
100
AcDbSymbolTableRecord
100
AcDbLayerTableRecord
  2
2655_5 STELLHEBEL UMGESTELLT
 70
        64
 62
       172
  6
DASHED
290
         1
370
        18
390
1D
  0
LAYER
  5
52
100
AcDbSymbolTableRecord
100
AcDbLayerTableRecord
  2
2655_5 STELLHEBEL
 70
        64
 62
       172
  6
CONTINUOUS
290
         1
370
        13
390
1D
  0
LAYER
  5
53
100
AcDbSymbolTableRecord
100
AcDbLayerTableRecord
  2
2655_4 DRAHT
 70
        64
 62
       190
  6
CONTINUOUS
290
         1
370
        25
390
1D
  0
LAYER
  5
54
100
AcDbSymbolTableRecord
100
AcDbLayerTableRecord
  2
2655_6 STELLVERSTELLUNG UMGESTELLT
 70
        64
 62
       211
  6
DASHED
290
         1
370
        18
390
1D
  0
LAYER
  5
55
100
AcDbSymbolTableRecord
100
AcDbLayerTableRecord
  2
2655_6 STELLVERSTELLUNG
 70
        64
 62
       230
  6
CONTINUOUS
290
         1
370
        13
390
1D
  0
LAYER
  5
56
100
AcDbSymbolTableRecord
100
AcDbLayerTableRecord
  2
2655_8 STELLANSCHLAG UMGESTELLT
 70
        64
 62
       131
  6
DASHED
290
         1
370
        18
390
1D
  0
LAYER
  5
57
100
AcDbSymbolTableRecord
100
AcDbLayerTableRecord
  2
2655_8 STELLANSCHLAG
 70
        64
 62
         6
  6
CONTINUOUS
290
         1
370
        13
390
1D
  0
LAYER
  5
58
100
AcDbSymbolTableRecord
100
AcDbLayerTableRecord
  2
2655_9 RIEGELSCHIEBER LINKS
 70
        64
 62
       171
  6
DASHED
290
         1
370
        18
390
1D
  0
LAYER
  5
59
100
AcDbSymbolTableRecord
100
AcDbLayerTableRecord
  2
2655_9 RIEGELSCHIEBER RECHTS
 70
        64
 62
       171
  6
HIDDEN
290
         1
370
        18
390
1D
  0
LAYER
  5
5A
100
AcDbSymbolTableRecord
100
AcDbLayerTableRecord
  2
2655_9 RIEGELSCHIEBER
 70
        64
 62
       171
  6
CONTINUOUS
290
         1
370
        13
390
1D
  0
LAYER
  5
5B
100
AcDbSymbolTableRecord
100
AcDbLayerTableRecord
  2
2655_10 ZUNGENSCHIEBER UMGESTELLT
 70
        64
 62
       171
  6
DASHED
290
         1
370
        18
390
1D
  0
LAYER
  5
5C
100
AcDbSymbolTableRecord
100
AcDbLayerTableRecord
  2
2655_10 ZUNGENSCHIEBER
 70
        64
 62
       171
  6
CONTINUOUS
290
         1
370
        13
390
1D
  0
LAYER
  5
5D
100
AcDbSymbolTableRecord
100
AcDbLayerTableRecord
  2
2655_99 RAHMENLEHRE
 70
        64
 62
         7
  6
CONTINUOUS
290
         1
370
        13
390
1D
  0
LAYER
  5
5E
100
AcDbSymbolTableRecord
100
AcDbLayerTableRecord
  2
2655_11 VERRIEGELUNG UMGESTELLT
 70
        64
 62
       190
  6
DASHED
290
         1
370
        13
390
1D
  0
LAYER
  5
5F
100
AcDbSymbolTableRecord
100
AcDbLayerTableRecord
  2
2655_11 VERRIEGELUNG
 70
        64
 62
       190
  6
CONTINUOUS
290
         1
370
        13
390
1D
  0
LAYER
  5
60
100
AcDbSymbolTableRecord
100
AcDbLayerTableRecord
  2
2655_12 SIGNALPLATTE
 70
        64
 62
       172
  6
CONTINUOUS
290
         1
370
        13
390
1D
  0
LAYER
  5
61
100
AcDbSymbolTableRecord
100
AcDbLayerTableRecord
  2
2655__ WEICHENANTRIEB
 70
        64
 62
        14
  6
CONTINUOUS
290
         1
370
        13
390
1D
  0
LAYER
  5
62
100
AcDbSymbolTableRecord
100
AcDbLayerTableRecord
  2
2201_2___ HEBEL UMGESCHLAGEN
 70
        64
 62
        34
  6
DASHED
290
         1
370
        13
390
1D
  0
LAYER
  5
63
100
AcDbSymbolTableRecord
100
AcDbLayerTableRecord
  2
2201_2___ HEBEL
 70
        64
 62
        34
  6
CONTINUOUS
290
         1
370
        13
390
1D
  0
LAYER
  5
64
100
AcDbSymbolTableRecord
100
AcDbLayerTableRecord
  2
2201__
 70
        64
 62
         7
  6
CONTINUOUS
290
         1
370
         0
390
1D
  0
LAYER
  5
65
100
AcDbSymbolTableRecord
100
AcDbLayerTableRecord
  2
2653_1 RAHMEN
 70
        64
 62
         7
  6
CONTINUOUS
290
         1
370
        13
390
1D
  0
LAYER
  5
66
100
AcDbSymbolTableRecord
100
AcDbLayerTableRecord
  2
2653_2 SCHIEBER UNTEN
 70
        64
 62
       230
  6
CONTINUOUS
290
         1
370
        13
390
1D
  0
LAYER
  5
67
100
AcDbSymbolTableRecord
100
AcDbLayerTableRecord
  2
2653_3 SCHIEBER OBEN
 70
        64
 62
       230
  6
CONTINUOUS
290
         1
370
        13
390
1D
  0
LAYER
  5
68
100
AcDbSymbolTableRecord
100
AcDbLayerTableRecord
  2
2653__ WEICHENSTELLUNG
 70
        64
 62
        14
  6
CONTINUOUS
290
         1
370
         0
390
1D
  0
LAYER
  5
69
100
AcDbSymbolTableRecord
100
AcDbLayerTableRecord
  2
2052_4 ZUHALTUNG ANGEHOBEN
 70
        64
 62
        94
  6
DASHED
290
         1
370
        18
390
1D
  0
LAYER
  5
6A
100
AcDbSymbolTableRecord
100
AcDbLayerTableRecord
  2
2052_4 ZUHALTUNG
 70
        64
 62
        94
  6
CONTINUOUS
290
         1
370
        18
390
1D
  0
LAYER
  5
6B
100
AcDbSymbolTableRecord
100
AcDbLayerTableRecord
  2
2052_1_2_7_8 GEHÄUSE
 70
        64
 62
         7
  6
CONTINUOUS
290
         1
370
        18
390
1D
  0
LAYER
  5
6C
100
AcDbSymbolTableRecord
100
AcDbLayerTableRecord
  2
2052_5_6 BESATZUNG
 70
        64
 62
         8
  6
CONTINUOUS
290
         1
370
        18
390
1D
  0
LAYER
  5
6D
100
AcDbSymbolTableRecord
100
AcDbLayerTableRecord
  2
2052_3 RIEGEL UMGESPERRT
 70
        64
 62
       230
  6
DASHED
290
         1
370
        18
390
1D
  0
LAYER
  5
6E
100
AcDbSymbolTableRecord
100
AcDbLayerTableRecord
  2
2052_3 RIEGEL
 70
        64
 62
       230
  6
CONTINUOUS
290
         1
370
        18
390
1D
  0
LAYER
  5
6F
100
AcDbSymbolTableRecord
100
AcDbLayerTableRecord
  2
2052__ SCHLOSS MIT DORN
 70
        64
 62
         7
  6
CONTINUOUS
290
         1
370
         0
390
1D
  0
LAYER
  5
70
100
AcDbSymbolTableRecord
100
AcDbLayerTableRecord
  2
2053_5 SCHILD
 70
        64
 62
        54
  6
CONTINUOUS
290
         1
370
        18
390
1D
  0
LAYER
  5
71
100
AcDbSymbolTableRecord
100
AcDbLayerTableRecord
  2
2053_1-4 SCHLÜSSEL
 70
        64
 62
       190
  6
CONTINUOUS
290
         1
370
        18
390
1D
  0
LAYER
  5
72
100
AcDbSymbolTableRecord
100
AcDbLayerTableRecord
  2
2053__ SCHLÜSSEL
 70
        64
 62
         7
  6
CONTINUOUS
290
         1
370
         0
390
1D
  0
LAYER
  5
73
100
AcDbSymbolTableRecord
100
AcDbLayerTableRecord
  2
2654_1 RAHMEN
 70
        64
 62
         7
  6
CONTINUOUS
290
         1
370
        13
390
1D
  0
LAYER
  5
74
100
AcDbSymbolTableRecord
100
AcDbLayerTableRecord
  2
2654_2 ANTRIEBSRAD
 70
        64
 62
       230
  6
CONTINUOUS
290
         1
370
        13
390
1D
  0
LAYER
  5
75
100
AcDbSymbolTableRecord
100
AcDbLayerTableRecord
  2
2654_3 STELLHEBEL UMGESTELLT
 70
        64
 62
       150
  6
DASHED
290
         1
370
        13
390
1D
  0
LAYER
  5
76
100
AcDbSymbolTableRecord
100
AcDbLayerTableRecord
  2
2654_3 STELLHEBEL
 70
        64
 62
       150
  6
CONTINUOUS
290
         1
370
        13
390
1D
  0
LAYER
  5
77
100
AcDbSymbolTableRecord
100
AcDbLayerTableRecord
  2
2654_9 RIEGELSCHIEBER LINKS
 70
        64
 62
       171
  6
DASHED
290
         1
370
        18
390
1D
  0
LAYER
  5
78
100
AcDbSymbolTableRecord
100
AcDbLayerTableRecord
  2
2654_9 RIEGELSCHIEBER RECHTS
 70
        64
 62
       171
  6
HIDDEN
290
         1
370
        18
390
1D
  0
LAYER
  5
79
100
AcDbSymbolTableRecord
100
AcDbLayerTableRecord
  2
2654_9 RIEGELSCHIEBER
 70
        64
 62
       171
  6
CONTINUOUS
290
         1
370
        13
390
1D
  0
LAYER
  5
7A
100
AcDbSymbolTableRecord
100
AcDbLayerTableRecord
  2
2654_7 STELLSCHIEBER UMGESTELLT
 70
        64
 62
       171
  6
DASHED
290
         1
370
        18
390
1D
  0
LAYER
  5
7B
100
AcDbSymbolTableRecord
100
AcDbLayerTableRecord
  2
2654_7 STELLSCHIEBER
 70
        64
 62
       171
  6
CONTINUOUS
290
         1
370
        13
390
1D
  0
LAYER
  5
7C
100
AcDbSymbolTableRecord
100
AcDbLayerTableRecord
  2
2654_99 RAHMENLEHRE
 70
        64
 62
         7
  6
CONTINUOUS
290
         1
370
        13
390
1D
  0
LAYER
  5
7D
100
AcDbSymbolTableRecord
100
AcDbLayerTableRecord
  2
2654_12 SIGNALPLATTE
 70
        64
 62
       172
  6
CONTINUOUS
290
         1
370
        13
390
1D
  0
LAYER
  5
7E
100
AcDbSymbolTableRecord
100
AcDbLayerTableRecord
  2
2654_30 GESTÄNGEWINKEL
 70
        64
 62
         7
  6
CONTINUOUS
290
         1
370
        13
390
1D
  0
LAYER
  5
7F
100
AcDbSymbolTableRecord
100
AcDbLayerTableRecord
  2
2654_4 RIEGELZAPFEN UMGESTELLT
 70
        64
 62
       172
  6
DASHED
290
         1
370
        13
390
1D
  0
LAYER
  5
80
100
AcDbSymbolTableRecord
100
AcDbLayerTableRecord
  2
2654_4 RIEGELZAPFEN
 70
        64
 62
       172
  6
CONTINUOUS
290
         1
370
        13
390
1D
  0
LAYER
  5
81
100
AcDbSymbolTableRecord
100
AcDbLayerTableRecord
  2
2654__ WEICHENANTRIEB
 70
        64
 62
        14
  6
CONTINUOUS
290
         1
370
        13
390
1D
  0
LAYER
  5
82
100
AcDbSymbolTableRecord
100
AcDbLayerTableRecord
  2
KONSTRUKTION
 70
        64
 62
         7
  6
CONTINUOUS
290
         1
370
         0
390
1D
  0
LAYER
  5
83
100
AcDbSymbolTableRecord
100
AcDbLayerTableRecord
  2
2650_1P
 70
        64
 62
        30
  6
CONTINUOUS
290
         1
370
        13
390
1D
  0
LAYER
  5
84
100
AcDbSymbolTableRecord
100
AcDbLayerTableRecord
  2
2650_7P
 70
        64
 62
        15
  6
CONTINUOUS
290
         1
370
        13
390
1D
  0
LAYER
  5
85
100
AcDbSymbolTableRecord
100
AcDbLayerTableRecord
  2
2650___ WEICHENBOCK
 70
        64
 62
       230
  6
CONTINUOUS
290
         1
370
        13
390
1D
  0
LAYER
  5
86
100
AcDbSymbolTableRecord
100
AcDbLayerTableRecord
  2
2651_1O
 70
        64
 62
        34
  6
CONTINUOUS
290
         1
370
        13
390
1D
  0
LAYER
  5
87
100
AcDbSymbolTableRecord
100
AcDbLayerTableRecord
  2
2651_1U
 70
        64
 62
        11
  6
CONTINUOUS
290
         1
370
        13
390
1D
  0
LAYER
  5
88
100
AcDbSymbolTableRecord
100
AcDbLayerTableRecord
  2
2651___ SBW-GLEISSPERRSCHUH
 70
        64
 62
       230
  6
CONTINUOUS
290
         1
370
        13
390
1D
  0
LAYER
  5
89
100
AcDbSymbolTableRecord
100
AcDbLayerTableRecord
  2
2658_1O
 70
        64
 62
        11
  6
CONTINUOUS
290
         1
370
         0
390
1D
  0
LAYER
  5
8A
100
AcDbSymbolTableRecord
100
AcDbLayerTableRecord
  2
2658_1U
 70
        64
 62
        15
  6
CONTINUOUS
290
         1
370
         0
390
1D
  0
LAYER
  5
8B
100
AcDbSymbolTableRecord
100
AcDbLayerTableRecord
  2
2658_2L
 70
        64
 62
        30
  6
CONTINUOUS
290
         1
370
        13
390
1D
  0
LAYER
  5
8C
100
AcDbSymbolTableRecord
100
AcDbLayerTableRecord
  2
2658_2P
 70
        64
 62
       230
  6
CONTINUOUS
290
         1
370
        13
390
1D
  0
LAYER
  5
8D
100
AcDbSymbolTableRecord
100
AcDbLayerTableRecord
  2
2658_2R
 70
        64
 62
        14
  6
CONTINUOUS
290
         1
370
        13
390
1D
  0
LAYER
  5
8E
100
AcDbSymbolTableRecord
100
AcDbLayerTableRecord
  2
2658_3P
 70
        64
 62
        34
  6
CONTINUOUS
290
         1
370
        13
390
1D
  0
LAYER
  5
8F
100
AcDbSymbolTableRecord
100
AcDbLayerTableRecord
  2
2658_4L
 70
        64
 62
        30
  6
CONTINUOUS
290
         1
370
        13
390
1D
  0
LAYER
  5
90
100
AcDbSymbolTableRecord
100
AcDbLayerTableRecord
  2
2658_4R
 70
        64
 62
        14
  6
CONTINUOUS
290
         1
370
        13
390
1D
  0
LAYER
  5
91
100
AcDbSymbolTableRecord
100
AcDbLayerTableRecord
  2
2658_5L~A
 70
        64
 62
        30
  6
CONTINUOUS
290
         1
370
        13
390
1D
  0
LAYER
  5
92
100
AcDbSymbolTableRecord
100
AcDbLayerTableRecord
  2
2658_5L
 70
        64
 62
        30
  6
CONTINUOUS
290
         1
370
        13
390
1D
  0
LAYER
  5
93
100
AcDbSymbolTableRecord
100
AcDbLayerTableRecord
  2
2658_5R
 70
        64
 62
        14
  6
CONTINUOUS
290
         1
370
        13
390
1D
  0
LAYER
  5
94
100
AcDbSymbolTableRecord
100
AcDbLayerTableRecord
  2
2658_6L
 70
        64
 62
        30
  6
CONTINUOUS
290
         1
370
        13
390
1D
  0
LAYER
  5
95
100
AcDbSymbolTableRecord
100
AcDbLayerTableRecord
  2
2658_6R
 70
        64
 62
        14
  6
CONTINUOUS
290
         1
370
        13
390
1D
  0
LAYER
  5
96
100
AcDbSymbolTableRecord
100
AcDbLayerTableRecord
  2
2658___
 70
        64
 62
       230
  6
CONTINUOUS
290
         1
370
        13
390
1D
  0
LAYER
  5
97
100
AcDbSymbolTableRecord
100
AcDbLayerTableRecord
  2
2655_1P
 70
        64
 62
        30
  6
CONTINUOUS
290
         1
370
        13
390
1D
  0
LAYER
  5
98
100
AcDbSymbolTableRecord
100
AcDbLayerTableRecord
  2
2655_2P
 70
        64
 62
        30
  6
CONTINUOUS
290
         1
370
        13
390
1D
  0
LAYER
  5
99
100
AcDbSymbolTableRecord
100
AcDbLayerTableRecord
  2
2655_3L
 70
        64
 62
        30
  6
CONTINUOUS
290
         1
370
        13
390
1D
  0
LAYER
  5
9A
100
AcDbSymbolTableRecord
100
AcDbLayerTableRecord
  2
2655_3R
 70
        64
 62
        14
  6
CONTINUOUS
290
         1
370
        13
390
1D
  0
LAYER
  5
9B
100
AcDbSymbolTableRecord
100
AcDbLayerTableRecord
  2
2655_5L
 70
        64
 62
        30
  6
CONTINUOUS
290
         1
370
        13
390
1D
  0
LAYER
  5
9C
100
AcDbSymbolTableRecord
100
AcDbLayerTableRecord
  2
2655_5R
 70
        64
 62
        14
  6
CONTINUOUS
290
         1
370
        13
390
1D
  0
LAYER
  5
9D
100
AcDbSymbolTableRecord
100
AcDbLayerTableRecord
  2
2655_6P
 70
        64
 62
        30
  6
CONTINUOUS
290
         1
370
        13
390
1D
  0
LAYER
  5
9E
100
AcDbSymbolTableRecord
100
AcDbLayerTableRecord
  2
2655_78L
 70
        64
 62
        30
  6
CONTINUOUS
290
         1
370
        13
390
1D
  0
LAYER
  5
9F
100
AcDbSymbolTableRecord
100
AcDbLayerTableRecord
  2
2655_11P
 70
        64
 62
        30
  6
CONTINUOUS
290
         1
370
        13
390
1D
  0
LAYER
  5
A0
100
AcDbSymbolTableRecord
100
AcDbLayerTableRecord
  2
2655_13R
 70
        64
 62
        14
  6
CONTINUOUS
290
         1
370
        13
390
1D
  0
LAYER
  5
A1
100
AcDbSymbolTableRecord
100
AcDbLayerTableRecord
  2
2655_13L
 70
        64
 62
        30
  6
CONTINUOUS
290
         1
370
        13
390
1D
  0
LAYER
  5
A2
100
AcDbSymbolTableRecord
100
AcDbLayerTableRecord
  2
2655_78R
 70
        64
 62
        14
  6
CONTINUOUS
290
         1
370
        13
390
1D
  0
LAYER
  5
A3
100
AcDbSymbolTableRecord
100
AcDbLayerTableRecord
  2
2655_9R
 70
        64
 62
        14
  6
CONTINUOUS
290
         1
370
        13
390
1D
  0
LAYER
  5
A4
100
AcDbSymbolTableRecord
100
AcDbLayerTableRecord
  2
2655_9L
 70
        64
 62
        30
  6
CONTINUOUS
290
         1
370
        13
390
1D
  0
LAYER
  5
A5
100
AcDbSymbolTableRecord
100
AcDbLayerTableRecord
  2
2655_6Q
 70
        64
 62
        30
  6
CONTINUOUS
290
         1
370
        13
390
1D
  0
LAYER
  5
A6
100
AcDbSymbolTableRecord
100
AcDbLayerTableRecord
  2
2655_99P
 70
        64
 62
        30
  6
CONTINUOUS
290
         1
370
        13
390
1D
  0
LAYER
  5
A7
100
AcDbSymbolTableRecord
100
AcDbLayerTableRecord
  2
2655_10R
 70
        64
 62
        14
  6
CONTINUOUS
290
         1
370
        13
390
1D
  0
LAYER
  5
A8
100
AcDbSymbolTableRecord
100
AcDbLayerTableRecord
  2
2655_10L
 70
        64
 62
        30
  6
CONTINUOUS
290
         1
370
        13
390
1D
  0
LAYER
  5
A9
100
AcDbSymbolTableRecord
100
AcDbLayerTableRecord
  2
2655___ W-_ GSP-_ SIGNAL-ANTRIEB
 70
        64
 62
       230
  6
CONTINUOUS
290
         1
370
        13
390
1D
  0
LAYER
  5
AA
100
AcDbSymbolTableRecord
100
AcDbLayerTableRecord
  2
2656_01L
 70
        64
 62
        34
  6
CONTINUOUS
290
         1
370
        13
390
1D
  0
LAYER
  5
AB
100
AcDbSymbolTableRecord
100
AcDbLayerTableRecord
  2
2656_02R
 70
        64
 62
        14
  6
CONTINUOUS
290
         1
370
        13
390
1D
  0
LAYER
  5
AC
100
AcDbSymbolTableRecord
100
AcDbLayerTableRecord
  2
2656___
 70
        64
 62
       230
  6
CONTINUOUS
290
         1
370
        13
390
1D
  0
LAYER
  5
AD
100
AcDbSymbolTableRecord
100
AcDbLayerTableRecord
  2
1088_1P
 70
        64
 62
        30
  6
CONTINUOUS
290
         1
370
         0
390
1D
  0
LAYER
  5
AE
100
AcDbSymbolTableRecord
100
AcDbLayerTableRecord
  2
108____ VORLAGEN
 70
        64
 62
       230
  6
CONTINUOUS
290
         1
370
        13
390
1D
  0
LAYER
  5
AF
100
AcDbSymbolTableRecord
100
AcDbLayerTableRecord
  2
2653_1P
 70
        64
 62
        30
  6
CONTINUOUS
290
         1
370
        13
390
1D
  0
LAYER
  5
B0
100
AcDbSymbolTableRecord
100
AcDbLayerTableRecord
  2
2653_2P
 70
        64
 62
        34
  6
CONTINUOUS
290
         1
370
        13
390
1D
  0
LAYER
  5
B1
100
AcDbSymbolTableRecord
100
AcDbLayerTableRecord
  2
2653_3P
 70
        64
 62
        34
  6
CONTINUOUS
290
         1
370
        13
390
1D
  0
LAYER
  5
B2
100
AcDbSymbolTableRecord
100
AcDbLayerTableRecord
  2
2653___ WEICHENSCHLOSS
 70
        64
 62
       230
  6
CONTINUOUS
290
         1
370
        13
390
1D
  0
LAYER
  5
B3
100
AcDbSymbolTableRecord
100
AcDbLayerTableRecord
  2
2654_7L
 70
        64
 62
        30
  6
CONTINUOUS
290
         1
370
        13
390
1D
  0
LAYER
  5
B4
100
AcDbSymbolTableRecord
100
AcDbLayerTableRecord
  2
2654_2P
 70
        64
 62
        30
  6
CONTINUOUS
290
         1
370
        13
390
1D
  0
LAYER
  5
B5
100
AcDbSymbolTableRecord
100
AcDbLayerTableRecord
  2
2654_3R
 70
        64
 62
        14
  6
CONTINUOUS
290
         1
370
        13
390
1D
  0
LAYER
  5
B6
100
AcDbSymbolTableRecord
100
AcDbLayerTableRecord
  2
2654_3L
 70
        64
 62
        30
  6
CONTINUOUS
290
         1
370
        13
390
1D
  0
LAYER
  5
B7
100
AcDbSymbolTableRecord
100
AcDbLayerTableRecord
  2
2654_7R
 70
        64
 62
        14
  6
CONTINUOUS
290
         1
370
        13
390
1D
  0
LAYER
  5
B8
100
AcDbSymbolTableRecord
100
AcDbLayerTableRecord
  2
2654_9R
 70
        64
 62
        14
  6
CONTINUOUS
290
         1
370
        13
390
1D
  0
LAYER
  5
B9
100
AcDbSymbolTableRecord
100
AcDbLayerTableRecord
  2
2654_9L
 70
        64
 62
        30
  6
CONTINUOUS
290
         1
370
        13
390
1D
  0
LAYER
  5
BA
100
AcDbSymbolTableRecord
100
AcDbLayerTableRecord
  2
2654_99P
 70
        64
 62
        14
  6
CONTINUOUS
290
         1
370
        13
390
1D
  0
LAYER
  5
BB
100
AcDbSymbolTableRecord
100
AcDbLayerTableRecord
  2
2654_1P
 70
        64
 62
        30
  6
CONTINUOUS
290
         1
370
        13
390
1D
  0
LAYER
  5
BC
100
AcDbSymbolTableRecord
100
AcDbLayerTableRecord
  2
2654_30R
 70
        64
 62
        14
  6
CONTINUOUS
290
         1
370
        13
390
1D
  0
LAYER
  5
BD
100
AcDbSymbolTableRecord
100
AcDbLayerTableRecord
  2
2654_30L
 70
        64
 62
        30
  6
CONTINUOUS
290
         1
370
        13
390
1D
  0
LAYER
  5
BE
100
AcDbSymbolTableRecord
100
AcDbLayerTableRecord
  2
2654_5P
 70
        64
 62
        14
  6
CONTINUOUS
290
         1
370
        13
390
1D
  0
LAYER
  5
BF
100
AcDbSymbolTableRecord
100
AcDbLayerTableRecord
  2
2654___ W-_ GSP-_ SIGNAL-ANTRIEB
 70
        64
 62
       230
  6
CONTINUOUS
290
         1
370
        13
390
1D
  0
LAYER
  5
C0
100
AcDbSymbolTableRecord
100
AcDbLayerTableRecord
  2
PFADE
 70
        64
 62
         7
  6
CONTINUOUS
290
         1
370
         0
390
1D
  0
LAYER
  5
C1
100
AcDbSymbolTableRecord
100
AcDbLayerTableRecord
  2
MASSGRENZEN0
 70
        64
 62
       172
  6
CONTINUOUS
290
         1
370
        25
390
1D
  0
LAYER
  5
C2
100
AcDbSymbolTableRecord
100
AcDbLayerTableRecord
  2
MASSTEXTE0
 70
        64
 62
       212
  6
CONTINUOUS
290
         1
370
        25
390
1D
  0
LAYER
  5
C3
100
AcDbSymbolTableRecord
100
AcDbLayerTableRecord
  2
TOLERANZEN0
 70
        64
 62
       212
  6
CONTINUOUS
290
         1
370
         0
390
1D
  0
LAYER
  5
C4
100
AcDbSymbolTableRecord
100
AcDbLayerTableRecord
  2
MASSLINIEN0
 70
        64
 62
       172
  6
CONTINUOUS
290
         1
370
        25
390
1D
  0
LAYER
  5
C5
100
AcDbSymbolTableRecord
100
AcDbLayerTableRecord
  2
BEMASSUNG
 70
        64
 62
         7
  6
CONTINUOUS
290
         1
370
        25
390
1D
  0
LAYER
  5
C6
100
AcDbSymbolTableRecord
100
AcDbLayerTableRecord
  2
_TEMP
 70
        64
 62
         7
  6
CONTINUOUS
290
         1
370
        50
390
1D
  0
LAYER
  5
C7
100
AcDbSymbolTableRecord
100
AcDbLayerTableRecord
  2
STANDARD
 70
        64
 62
         7
  6
CONTINUOUS
290
         1
370
         0
390
1D
  0
ENDTAB
  0
TABLE
  2
STYLE
  5
3
100
AcDbSymbolTable
 70
         7
  0
STYLE
  5
17
100
AcDbSymbolTableRecord
100
AcDbTextStyleTableRecord
  2
Standard
 70
         0
 40
0.0
 41
1.0
 50
0.0
 71
         0
 42
0.0
  3
txt
  4

  0
STYLE
  5
2D
100
AcDbSymbolTableRecord
100
AcDbTextStyleTableRecord
  2
CADdy
 70
         0
 40
0.0
 41
1.0
 50
0.0
 71
         0
 42
3.5
  3
txt.shx
  4

  0
STYLE
  5
2E
100
AcDbSymbolTableRecord
100
AcDbTextStyleTableRecord
  2
Arial
 70
         0
 40
0.0
 41
1.0
 50
0.0
 71
         0
 42
3.5
  3
arial.ttf
  4

1001
ACAD
1000
Arial
1071
       34
  0
STYLE
  5
2F
100
AcDbSymbolTableRecord
100
AcDbTextStyleTableRecord
  2
Isonorm
 70
         0
 40
0.0
 41
1.0
 50
0.0
 71
         0
 42
3.5
  3
txt.shx
  4

  0
STYLE
  5
30
100
AcDbSymbolTableRecord
100
AcDbTextStyleTableRecord
  2
Tahoma
 70
         0
 40
0.0
 41
1.0
 50
0.0
 71
         0
 42
3.5
  3
tahoma.ttf
  4

1001
ACAD
1000
Tahoma
1071
       34
  0
STYLE
  5
31
100
AcDbSymbolTableRecord
100
AcDbTextStyleTableRecord
  2
Microsoft Sans Serif
 70
         0
 40
0.0
 41
1.0
 50
0.0
 71
         0
 42
3.5
  3
micross.ttf
  4

1001
ACAD
1000
Microsoft Sans Serif
1071
       34
  0
STYLE
  5
32
100
AcDbSymbolTableRecord
100
AcDbTextStyleTableRecord
  2
Arial Rounded MT Bold
 70
         0
 40
0.0
 41
1.0
 50
0.0
 71
         0
 42
3.5
  3
txt.shx
  4

  0
ENDTAB
  0
TABLE
  2
VIEW
  5
5
100
AcDbSymbolTable
 70
         0
  0
ENDTAB
  0
TABLE
  2
UCS
  5
6
100
AcDbSymbolTable
 70
         0
  0
ENDTAB
  0
TABLE
  2
APPID
  5
8
100
AcDbSymbolTable
 70
         1
  0
APPID
  5
16
100
AcDbSymbolTableRecord
100
AcDbRegAppTableRecord
  2
ACAD
 70
        64
  0
ENDTAB
  0
TABLE
  2
DIMSTYLE
  5
9
100
AcDbSymbolTable
 70
         1
100
AcDbDimStyleTable
 71
         0
  0
DIMSTYLE
105
18
100
AcDbSymbolTableRecord
100
AcDbDimStyleTableRecord
  2
Standard
 70
         0
  3

  4

 40
1.0
 41
0.18
 42
0.0625
 43
0.38
 44
0.18
 45
0.0
 46
0.0
 47
0.0
 48
0.0
 71
         0
 72
         0
 73
         1
 74
         1
 75
         0
 76
         0
 77
         0
 78
         0
 79
         0
140
0.18
141
0.09
142
0.0
143
25.4
144
1.0
145
0.0
146
1.0
147
0.09
148
0.0
170
         0
171
         2
172
         0
173
         0
174
         0
175
         0
176
         0
177
         0
178
         0
179
         0
271
         4
272
         4
273
         2
274
         2
275
         0
276
         0
277
         2
278
        46
279
         0
280
         0
281
         0
282
         0
283
         1
284
         0
285
         0
286
         0
288
         0
289
         3
340
17
341
0
342
0
343
0
344
0
371
        -2
372
        -2
  0
ENDTAB
  0
TABLE
  2
BLOCK_RECORD
  5
1
100
AcDbSymbolTable
 70
         8
  0
BLOCK_RECORD
  5
A
100
AcDbSymbolTableRecord
100
AcDbBlockTableRecord
  2
*MODEL_SPACE
340
20
  0
BLOCK_RECORD
  5
B
100
AcDbSymbolTableRecord
100
AcDbBlockTableRecord
  2
*PAPER_SPACE
340
21
  0
BLOCK_RECORD
  5
C8
100
AcDbSymbolTableRecord
100
AcDbBlockTableRecord
  2
D197141504
340
0
102
{BLKREFS
331
125
102
}
  0
BLOCK_RECORD
  5
D1
100
AcDbSymbolTableRecord
100
AcDbBlockTableRecord
  2
D197141248
340
0
102
{BLKREFS
331
13C
102
}
  0
BLOCK_RECORD
  5
DA
100
AcDbSymbolTableRecord
100
AcDbBlockTableRecord
  2
D197140992
340
0
102
{BLKREFS
331
16E
102
}
  0
BLOCK_RECORD
  5
E3
100
AcDbSymbolTableRecord
100
AcDbBlockTableRecord
  2
D197140736
340
0
102
{BLKREFS
331
2A4
102
}
  0
BLOCK_RECORD
  5
EC
100
AcDbSymbolTableRecord
100
AcDbBlockTableRecord
  2
D197140480
340
0
102
{BLKREFS
331
2D5
102
}
  0
BLOCK_RECORD
  5
F5
100
AcDbSymbolTableRecord
100
AcDbBlockTableRecord
  2
D197154560
340
0
102
{BLKREFS
331
2D6
102
}
  0
BLOCK_RECORD
  5
FE
100
AcDbSymbolTableRecord
100
AcDbBlockTableRecord
  2
D197154304
340
0
102
{BLKREFS
331
2D7
102
}
  0
BLOCK_RECORD
  5
109
100
AcDbSymbolTableRecord
100
AcDbBlockTableRecord
  2
D197154048
340
0
102
{BLKREFS
331
2D8
102
}
  0
ENDTAB
  0
ENDSEC
  0
SECTION
  2
BLOCKS
  0
BLOCK
  5
D
100
AcDbEntity
  8
0
390
0
100
AcDbBlockBegin
  2
*MODEL_SPACE
 70
         0
 10
0.0
 20
0.0
 30
0.0
  3
*MODEL_SPACE
  1

  0
ENDBLK
  5
E
100
AcDbEntity
  8
0
390
0
100
AcDbBlockEnd
  0
BLOCK
  5
F
100
AcDbEntity
 67
         1
  8
0
390
0
100
AcDbBlockBegin
  2
*PAPER_SPACE
 70
         0
 10
0.0
 20
0.0
 30
0.0
  3
*PAPER_SPACE
  1

  0
ENDBLK
  5
10
100
AcDbEntity
 67
         1
  8
0
390
0
100
AcDbBlockEnd
  0
BLOCK
  5
C9
100
AcDbEntity
  8
BEMAßUNG
390
0
100
AcDbBlockBegin
  2
D197141504
 70
         0
 10
0.0
 20
0.0
 30
0.0
  3
D197141504
  1

  0
LINE
  5
CA
100
AcDbEntity
  8
BEMAßUNG
390
0
 62
       172
100
AcDbLine
 10
156.9565233895
 20
146.8738943873
 30
0.0
 11
198.9565233895
 21
146.8738943873
 31
0.0
  0
LINE
  5
CB
100
AcDbEntity
  8
BEMAßUNG
390
0
 62
       172
100
AcDbLine
 10
156.9565233895
 20
197.5503263091
 30
0.0
 11
156.9565233895
 21
144.8738943873
 31
0.0
  0
LINE
  5
CC
100
AcDbEntity
  8
BEMAßUNG
390
0
 62
       172
100
AcDbLine
 10
198.9565233895
 20
197.5503263091
 30
0.0
 11
198.9565233895
 21
144.8738943873
 31
0.0
  0
SOLID
  5
CD
100
AcDbEntity
  8
BEMAßUNG
390
0
100
AcDbTrace
 10
156.9565233895
 20
146.8738943873
 30
0.0
 11
159.9308579736
 21
147.2654729639
 31
0.0
 12
159.9308579736
 22
146.4823158106
 32
0.0
 13
159.9308579736
 23
146.4823158106
 33
0.0
  0
SOLID
  5
CE
100
AcDbEntity
  8
BEMAßUNG
390
0
100
AcDbTrace
 10
198.9565233895
 20
146.8738943873
 30
0.0
 11
195.9821888053
 21
146.4823158106
 31
0.0
 12
195.9821888053
 22
147.2654729639
 32
0.0
 13
195.9821888053
 23
147.2654729639
 33
0.0
  0
MTEXT
  5
CF
100
AcDbEntity
  8
BEMAßUNG
390
0
 62
       212
100
AcDbMText
 10
177.9565233895
 20
150.0578943873
 30
0.0
 40
3.0
 41
0.0
 71
         5
 72
         1
  1
\W1.135145;\A1;42
  7
Arial
 73
         0
 44
0.0
  0
ENDBLK
  5
D0
100
AcDbEntity
  8
0
390
0
100
AcDbBlockEnd
  0
BLOCK
  5
D2
100
AcDbEntity
  8
BEMAßUNG
390
0
100
AcDbBlockBegin
  2
D197141248
 70
         0
 10
0.0
 20
0.0
 30
0.0
  3
D197141248
  1

  0
LINE
  5
D3
100
AcDbEntity
  8
BEMAßUNG
390
0
 62
       172
100
AcDbLine
 10
71.3713235686
 20
229.4841555086
 30
0.0
 11
71.3713235686
 21
152.4841555086
 31
0.0
  0
LINE
  5
D4
100
AcDbEntity
  8
BEMAßUNG
390
0
 62
       172
100
AcDbLine
 10
48.32953125
 20
229.4841555086
 30
0.0
 11
73.3713235686
 21
229.4841555086
 31
0.0
  0
LINE
  5
D5
100
AcDbEntity
  8
BEMAßUNG
390
0
 62
       172
100
AcDbLine
 10
48.32953125
 20
152.4841555086
 30
0.0
 11
73.3713235686
 21
152.4841555086
 31
0.0
  0
SOLID
  5
D6
100
AcDbEntity
  8
BEMAßUNG
390
0
100
AcDbTrace
 10
71.3713235686
 20
229.4841555086
 30
0.0
 11
71.7629021453
 21
226.5098209245
 31
0.0
 12
70.979744992
 22
226.5098209245
 32
0.0
 13
70.979744992
 23
226.5098209245
 33
0.0
  0
SOLID
  5
D7
100
AcDbEntity
  8
BEMAßUNG
390
0
100
AcDbTrace
 10
71.3713235686
 20
152.4841555086
 30
0.0
 11
70.979744992
 21
155.4584900927
 31
0.0
 12
71.7629021453
 22
155.4584900927
 32
0.0
 13
71.7629021453
 23
155.4584900927
 33
0.0
  0
MTEXT
  5
D8
100
AcDbEntity
  8
BEMAßUNG
390
0
 62
       212
100
AcDbMText
 10
68.1873235686
 20
190.9841555086
 30
0.0
 40
3.0
 41
0.0
 71
         5
 72
         1
  1
\W1.135145;\A1;77
  7
Arial
 11
0.0
 21
1.0
 31
0.0
 73
         0
 44
0.0
  0
ENDBLK
  5
D9
100
AcDbEntity
  8
0
390
0
100
AcDbBlockEnd
  0
BLOCK
  5
DB
100
AcDbEntity
  8
BEMAßUNG
390
0
100
AcDbBlockBegin
  2
D197140992
 70
         0
 10
0.0
 20
0.0
 30
0.0
  3
D197140992
  1

  0
LINE
  5
DC
100
AcDbEntity
  8
BEMAßUNG
390
0
 62
       172
100
AcDbLine
 10
134.3082203911
 20
197.0953981712
 30
0.0
 11
134.3082203911
 21
145.0953981712
 31
0.0
  0
LINE
  5
DD
100
AcDbEntity
  8
BEMAßUNG
390
0
 62
       172
100
AcDbLine
 10
92.7653989508
 20
197.0953981712
 30
0.0
 11
136.3082203911
 21
197.0953981712
 31
0.0
  0
LINE
  5
DE
100
AcDbEntity
  8
BEMAßUNG
390
0
 62
       172
100
AcDbLine
 10
92.7653989508
 20
145.0953981712
 30
0.0
 11
136.3082203911
 21
145.0953981712
 31
0.0
  0
SOLID
  5
DF
100
AcDbEntity
  8
BEMAßUNG
390
0
100
AcDbTrace
 10
134.3082203911
 20
197.0953981712
 30
0.0
 11
134.6997989678
 21
194.121063587
 31
0.0
 12
133.9166418145
 22
194.121063587
 32
0.0
 13
133.9166418145
 23
194.121063587
 33
0.0
  0
SOLID
  5
E0
100
AcDbEntity
  8
BEMAßUNG
390
0
100
AcDbTrace
 10
134.3082203911
 20
145.0953981712
 30
0.0
 11
133.9166418145
 21
148.0697327553
 31
0.0
 12
134.6997989678
 22
148.0697327553
 32
0.0
 13
134.6997989678
 23
148.0697327553
 33
0.0
  0
MTEXT
  5
E1
100
AcDbEntity
  8
BEMAßUNG
390
0
 62
       212
100
AcDbMText
 10
131.1242203911
 20
171.0953981712
 30
0.0
 40
3.0
 41
0.0
 71
         5
 72
         1
  1
\W1.135145;\A1;52
  7
Arial
 11
0.0
 21
1.0
 31
0.0
 73
         0
 44
0.0
  0
ENDBLK
  5
E2
100
AcDbEntity
  8
0
390
0
100
AcDbBlockEnd
  0
BLOCK
  5
E4
100
AcDbEntity
  8
BEMAßUNG
390
0
100
AcDbBlockBegin
  2
D197140736
 70
         0
 10
0.0
 20
0.0
 30
0.0
  3
D197140736
  1

  0
LINE
  5
E5
100
AcDbEntity
  8
BEMAßUNG
390
0
 62
       172
100
AcDbLine
 10
181.01606484
 20
255.5593341782
 30
0.0
 11
181.0160648401
 21
236.5593341782
 31
0.0
  0
LINE
  5
E6
100
AcDbEntity
  8
BEMAßUNG
390
0
 62
       172
100
AcDbLine
 10
164.7155378432
 20
255.5593341781
 30
0.0
 11
183.01606484
 21
255.5593341782
 31
0.0
  0
LINE
  5
E7
100
AcDbEntity
  8
BEMAßUNG
390
0
 62
       172
100
AcDbLine
 10
164.7155378432
 20
236.5593341781
 30
0.0
 11
183.0160648401
 21
236.5593341782
 31
0.0
  0
SOLID
  5
E8
100
AcDbEntity
  8
BEMAßUNG
390
0
100
AcDbTrace
 10
181.01606484
 20
255.5593341782
 30
0.0
 11
181.4076434167
 21
252.5849995941
 31
0.0
 12
180.6244862634
 22
252.5849995941
 32
0.0
 13
180.6244862634
 23
252.5849995941
 33
0.0
  0
SOLID
  5
E9
100
AcDbEntity
  8
BEMAßUNG
390
0
100
AcDbTrace
 10
181.0160648401
 20
236.5593341782
 30
0.0
 11
180.6244862635
 21
239.5336687623
 31
0.0
 12
181.4076434168
 22
239.5336687623
 32
0.0
 13
181.4076434168
 23
239.5336687623
 33
0.0
  0
MTEXT
  5
EA
100
AcDbEntity
  8
BEMAßUNG
390
0
 62
       212
100
AcDbMText
 10
177.8320648401
 20
246.0593341782
 30
0.0
 40
3.0
 41
0.0
 71
         5
 72
         1
  1
\W1.135145;\A1;19
  7
Arial
 11
0.0
 21
1.0
 31
0.0
 73
         0
 44
0.0
  0
ENDBLK
  5
EB
100
AcDbEntity
  8
0
390
0
100
AcDbBlockEnd
  0
BLOCK
  5
ED
100
AcDbEntity
  8
BEMAßUNG
390
0
100
AcDbBlockBegin
  2
D197140480
 70
         0
 10
0.0
 20
0.0
 30
0.0
  3
D197140480
  1

  0
LINE
  5
EE
100
AcDbEntity
  8
BEMAßUNG
390
0
 62
       172
100
AcDbLine
 10
70.9125
 20
271.48875
 30
0.0
 11
70.9125
 21
254.4887500018
 31
0.0
  0
LINE
  5
EF
100
AcDbEntity
  8
BEMAßUNG
390
0
 62
       172
100
AcDbLine
 10
48.3295312499
 20
271.48875
 30
0.0
 11
72.9125
 21
271.48875
 31
0.0
  0
LINE
  5
F0
100
AcDbEntity
  8
BEMAßUNG
390
0
 62
       172
100
AcDbLine
 10
48.32953125
 20
254.4887500018
 30
0.0
 11
72.9125
 21
254.4887500018
 31
0.0
  0
SOLID
  5
F1
100
AcDbEntity
  8
BEMAßUNG
390
0
100
AcDbTrace
 10
70.9125
 20
271.48875
 30
0.0
 11
71.3040785767
 21
268.5144154159
 31
0.0
 12
70.5209214233
 22
268.5144154159
 32
0.0
 13
70.5209214233
 23
268.5144154159
 33
0.0
  0
SOLID
  5
F2
100
AcDbEntity
  8
BEMAßUNG
390
0
100
AcDbTrace
 10
70.9125
 20
254.4887500018
 30
0.0
 11
70.5209214233
 21
257.4630845859
 31
0.0
 12
71.3040785767
 22
257.4630845859
 32
0.0
 13
71.3040785767
 23
257.4630845859
 33
0.0
  0
MTEXT
  5
F3
100
AcDbEntity
  8
BEMAßUNG
390
0
 62
       212
100
AcDbMText
 10
67.7285
 20
262.9887500009
 30
0.0
 40
3.0
 41
0.0
 71
         5
 72
         1
  1
\W1.135145;\A1;17
  7
Arial
 11
0.0
 21
1.0
 31
0.0
 73
         0
 44
0.0
  0
ENDBLK
  5
F4
100
AcDbEntity
  8
0
390
0
100
AcDbBlockEnd
  0
BLOCK
  5
F6
100
AcDbEntity
  8
BEMAßUNG
390
0
100
AcDbBlockBegin
  2
D197154560
 70
         0
 10
0.0
 20
0.0
 30
0.0
  3
D197154560
  1

  0
LINE
  5
F7
100
AcDbEntity
  8
BEMAßUNG
390
0
 62
       172
100
AcDbLine
 10
72.616875
 20
132.6080504291
 30
0.0
 11
72.616875
 21
45.6080504309
 31
0.0
  0
LINE
  5
F8
100
AcDbEntity
  8
BEMAßUNG
390
0
 62
       172
100
AcDbLine
 10
48.4188304004
 20
132.6080504291
 30
0.0
 11
74.616875
 21
132.6080504291
 31
0.0
  0
LINE
  5
F9
100
AcDbEntity
  8
BEMAßUNG
390
0
 62
       172
100
AcDbLine
 10
48.32953125
 20
45.6080504309
 30
0.0
 11
74.616875
 21
45.6080504309
 31
0.0
  0
SOLID
  5
FA
100
AcDbEntity
  8
BEMAßUNG
390
0
100
AcDbTrace
 10
72.616875
 20
132.6080504291
 30
0.0
 11
73.0084535766
 21
129.633715845
 31
0.0
 12
72.2252964233
 22
129.633715845
 32
0.0
 13
72.2252964233
 23
129.633715845
 33
0.0
  0
SOLID
  5
FB
100
AcDbEntity
  8
BEMAßUNG
390
0
100
AcDbTrace
 10
72.616875
 20
45.6080504309
 30
0.0
 11
72.2252964233
 21
48.5823850151
 31
0.0
 12
73.0084535767
 22
48.5823850151
 32
0.0
 13
73.0084535767
 23
48.5823850151
 33
0.0
  0
MTEXT
  5
FC
100
AcDbEntity
  8
BEMAßUNG
390
0
 62
       212
100
AcDbMText
 10
69.432875
 20
89.10805043
 30
0.0
 40
3.0
 41
0.0
 71
         5
 72
         1
  1
\W1.135145;\A1;87
  7
Arial
 11
0.0
 21
1.0
 31
0.0
 73
         0
 44
0.0
  0
ENDBLK
  5
FD
100
AcDbEntity
  8
0
390
0
100
AcDbBlockEnd
  0
BLOCK
  5
FF
100
AcDbEntity
  8
BEMAßUNG
390
0
100
AcDbBlockBegin
  2
D197154304
 70
         0
 10
0.0
 20
0.0
 30
0.0
  3
D197154304
  1

  0
LINE
  5
100
100
AcDbEntity
  8
BEMAßUNG
390
0
 62
       172
100
AcDbLine
 10
72.616875
 20
26.5896057474
 30
0.0
 11
72.616875
 21
18.5896057492
 31
0.0
  0
LINE
  5
101
100
AcDbEntity
  8
BEMAßUNG
390
0
 62
       172
100
AcDbLine
 10
48.32953125
 20
26.5896057474
 30
0.0
 11
74.616875
 21
26.5896057474
 31
0.0
  0
LINE
  5
102
100
AcDbEntity
  8
BEMAßUNG
390
0
 62
       172
100
AcDbLine
 10
48.32953125
 20
18.5896057492
 30
0.0
 11
74.616875
 21
18.5896057492
 31
0.0
  0
LINE
  5
103
100
AcDbEntity
  8
BEMAßUNG
390
0
 62
       172
100
AcDbLine
 10
72.616875
 20
26.5896057474
 30
0.0
 11
72.616875
 21
35.364108249
 31
0.0
  0
LINE
  5
104
100
AcDbEntity
  8
BEMAßUNG
390
0
 62
       172
100
AcDbLine
 10
72.616875
 20
18.5896057492
 30
0.0
 11
72.616875
 21
12.550936581
 31
0.0
  0
SOLID
  5
105
100
AcDbEntity
  8
BEMAßUNG
390
0
100
AcDbTrace
 10
72.616875
 20
26.5896057474
 30
0.0
 11
72.2252964233
 21
29.5639403315
 31
0.0
 12
73.0084535767
 22
29.5639403315
 32
0.0
 13
73.0084535767
 23
29.5639403315
 33
0.0
  0
SOLID
  5
106
100
AcDbEntity
  8
BEMAßUNG
390
0
100
AcDbTrace
 10
72.616875
 20
18.5896057492
 30
0.0
 11
73.0084535767
 21
15.6152711651
 31
0.0
 12
72.2252964233
 22
15.6152711651
 32
0.0
 13
72.2252964233
 23
15.6152711651
 33
0.0
  0
MTEXT
  5
107
100
AcDbEntity
  8
BEMAßUNG
390
0
 62
       212
100
AcDbMText
 10
69.432875
 20
33.9511915823
 30
0.0
 40
3.0
 41
0.0
 71
         5
 72
         1
  1
\W1.135145;\A1;8
  7
Arial
 11
0.0
 21
1.0
 31
0.0
 73
         0
 44
0.0
  0
ENDBLK
  5
108
100
AcDbEntity
  8
0
390
0
100
AcDbBlockEnd
  0
BLOCK
  5
10A
100
AcDbEntity
  8
BEMAßUNG
390
0
100
AcDbBlockBegin
  2
D197154048
 70
         0
 10
0.0
 20
0.0
 30
0.0
  3
D197154048
  1

  0
LINE
  5
10B
100
AcDbEntity
  8
BEMAßUNG
390
0
 62
       172
100
AcDbLine
 10
134.40046875
 20
267.2139240772
 30
0.0
 11
134.40046875
 21
215.2139240772
 31
0.0
  0
LINE
  5
10C
100
AcDbEntity
  8
BEMAßUNG
390
0
 62
       172
100
AcDbLine
 10
92.7653989508
 20
267.2139240772
 30
0.0
 11
136.40046875
 21
267.2139240772
 31
0.0
  0
LINE
  5
10D
100
AcDbEntity
  8
BEMAßUNG
390
0
 62
       172
100
AcDbLine
 10
92.7653989508
 20
215.2139240772
 30
0.0
 11
136.40046875
 21
215.2139240772
 31
0.0
  0
SOLID
  5
10E
100
AcDbEntity
  8
BEMAßUNG
390
0
100
AcDbTrace
 10
134.40046875
 20
267.2139240772
 30
0.0
 11
134.7920473267
 21
264.2395894931
 31
0.0
 12
134.0088901733
 22
264.2395894931
 32
0.0
 13
134.0088901733
 23
264.2395894931
 33
0.0
  0
SOLID
  5
10F
100
AcDbEntity
  8
BEMAßUNG
390
0
100
AcDbTrace
 10
134.40046875
 20
215.2139240772
 30
0.0
 11
134.0088901733
 21
218.1882586613
 31
0.0
 12
134.7920473267
 22
218.1882586613
 32
0.0
 13
134.7920473267
 23
218.1882586613
 33
0.0
  0
MTEXT
  5
110
100
AcDbEntity
  8
BEMAßUNG
390
0
 62
       212
100
AcDbMText
 10
131.21646875
 20
241.2139240772
 30
0.0
 40
3.0
 41
0.0
 71
         5
 72
         1
  1
\W1.135145;\A1;52
  7
Arial
 11
0.0
 21
1.0
 31
0.0
 73
         0
 44
0.0
  0
ENDBLK
  5
111
100
AcDbEntity
  8
0
390
0
100
AcDbBlockEnd
  0
ENDSEC
  0
SECTION
  2
ENTITIES
  0
TEXT
  5
112
100
AcDbEntity
  8
BESCHRIFTUNG
390
0
100
AcDbText
 10
129.6929117117
 20
6.9230888889
 30
0.0
 40
3.3
  1
2654 Pv W- und Gsp-Antrieb
 41
1.1437037866
  7
Arial
 11
129.6929117117
 21
10.2230888889
 31
0.0
100
AcDbText
 73
         3
  0
TEXT
  5
113
100
AcDbEntity
  8
BESCHRIFTUNG
390
0
100
AcDbText
 10
129.6929117117
 20
29.3230888889
 30
0.0
 40
3.3
  1
2026-03-10
 41
1.0318366722
  7
Arial
 11
129.6929117117
 21
32.6230888889
 31
0.0
100
AcDbText
 73
         3
  0
CIRCLE
  5
114
100
AcDbEntity
  8
2654_3L
390
0
100
AcDbCircle
 10
46.32953125
 20
264.98875
 30
0.0
 40
1.25
  0
TEXT
  5
115
100
AcDbEntity
  8
BESCHRIFTUNG
390
0
100
AcDbText
 10
78.8165306218
 20
279.4755082791
 30
0.0
 40
3.0
  1
2654.1P
 41
1.1350984069
  7
Arial
 11
78.8165306218
 21
282.4755082791
 31
0.0
100
AcDbText
 73
         3
  0
TEXT
  5
116
100
AcDbEntity
  8
BESCHRIFTUNG
390
0
100
AcDbText
 10
28.9168463798
 20
279.8127195334
 30
0.0
 40
3.0
  1
2654.3L,R
 41
1.1351033103
  7
Arial
 11
28.9168463798
 21
282.8127195334
 31
0.0
100
AcDbText
 73
         3
  0
CIRCLE
  5
117
100
AcDbEntity
  8
2654_1P
370
        25
390
0
  6
PHANTOM
100
AcDbCircle
 10
92.7653989508
 20
267.2139240772
 30
0.0
 40
0.5
  0
CIRCLE
  5
118
100
AcDbEntity
  8
2654_1P
370
        25
390
0
  6
PHANTOM
100
AcDbCircle
 10
92.7653989508
 20
215.2139240772
 30
0.0
 40
1.0
  0
ARC
  5
119
100
AcDbEntity
  8
2654_2P
370
        25
390
0
100
AcDbCircle
 10
177.9565233895
 20
176.5503263091
 30
0.0
 40
21.0
100
AcDbArc
 50
120.0000000001
 51
240.0
  0
ARC
  5
11A
100
AcDbEntity
  8
2654_2P
370
        25
390
0
  6
DIVIDE
100
AcDbCircle
 10
177.9565233895
 20
176.5503263091
 30
0.0
 40
21.0
100
AcDbArc
 50
59.9999999989
 51
120.0000000001
  0
ARC
  5
11B
100
AcDbEntity
  8
2654_2P
370
        25
390
0
100
AcDbCircle
 10
177.9565233895
 20
176.5503263091
 30
0.0
 40
21.0
100
AcDbArc
 50
299.9999999998
 51
419.9999999989
  0
ARC
  5
11C
100
AcDbEntity
  8
2654_2P
370
        25
390
0
  6
DIVIDE
100
AcDbCircle
 10
177.9565233895
 20
176.5503263091
 30
0.0
 40
21.0
100
AcDbArc
 50
240.0
 51
299.9999999998
  0
CIRCLE
  5
11D
100
AcDbEntity
  8
2654_2P
370
        25
390
0
  6
PHANTOM
100
AcDbCircle
 10
156.9565233895
 20
197.5503263091
 30
0.0
 40
0.5
  0
CIRCLE
  5
11E
100
AcDbEntity
  8
2654_2P
370
        25
390
0
  6
PHANTOM
100
AcDbCircle
 10
156.9565233895
 20
155.5503263091
 30
0.0
 40
1.0
  0
LINE
  5
11F
100
AcDbEntity
  8
2654_2P
370
        25
390
0
  6
DASHED
100
AcDbLine
 10
156.9565233895
 20
197.5503263091
 30
0.0
 11
167.4565233899
 21
194.7368597877
 31
0.0
  0
LINE
  5
120
100
AcDbEntity
  8
2654_2P
370
        25
390
0
  6
DASHED
100
AcDbLine
 10
167.4565233899
 20
194.7368597877
 30
0.0
 11
170.4565233894
 21
189.5407073658
 31
0.0
  0
LINE
  5
121
100
AcDbEntity
  8
2654_2P
370
        25
390
0
  6
DASHED
100
AcDbLine
 10
170.4565233895
 20
163.5599452523
 30
0.0
 11
156.9565233895
 21
155.5503263091
 31
0.0
  0
LINE
  5
122
100
AcDbEntity
  8
MITTELLINIEN
390
0
100
AcDbLine
 10
92.7653989508
 20
272.2139240772
 30
0.0
 11
92.7653989508
 21
210.2139240772
 31
0.0
  0
LINE
  5
123
100
AcDbEntity
  8
MITTELLINIEN
390
0
100
AcDbLine
 10
156.9565233895
 20
202.5503263091
 30
0.0
 11
156.9565233895
 21
150.5503263091
 31
0.0
  0
LINE
  5
124
100
AcDbEntity
  8
MITTELLINIEN
390
0
100
AcDbLine
 10
198.9565233895
 20
202.5503263091
 30
0.0
 11
198.9565233895
 21
150.5503263091
 31
0.0
  0
INSERT
  5
125
100
AcDbEntity
  8
BEMAßUNG
390
0
100
AcDbBlockReference
  2
D197141504
 10
0.0
 20
0.0
 30
0.0
  0
CIRCLE
  5
126
100
AcDbEntity
  8
2654_3L
370
        25
390
0
  6
PHANTOM
100
AcDbCircle
 10
33.3295312499
 20
271.48875
 30
0.0
 40
0.5
  0
CIRCLE
  5
127
100
AcDbEntity
  8
2654_3L
370
        25
390
0
  6
PHANTOM
100
AcDbCircle
 10
33.32953125
 20
254.48875
 30
0.0
 40
1.0
  0
CIRCLE
  5
128
100
AcDbEntity
  8
2654_7L
370
        25
390
0
  6
PHANTOM
100
AcDbCircle
 10
33.32953125
 20
229.4841555086
 30
0.0
 40
0.5
  0
CIRCLE
  5
129
100
AcDbEntity
  8
2654_7L
370
        25
390
0
  6
PHANTOM
100
AcDbCircle
 10
33.32953125
 20
152.4841555086
 30
0.0
 40
1.0
  0
CIRCLE
  5
12A
100
AcDbEntity
  8
2654_7R
370
        25
390
0
  6
PHANTOM
100
AcDbCircle
 10
48.32953125
 20
229.4841555086
 30
0.0
 40
0.5
  0
CIRCLE
  5
12B
100
AcDbEntity
  8
2654_7R
370
        25
390
0
  6
PHANTOM
100
AcDbCircle
 10
48.32953125
 20
152.4841555086
 30
0.0
 40
1.0
  0
LINE
  5
12C
100
AcDbEntity
  8
2654_3 STELLHEBEL
390
0
100
AcDbLine
 10
50.32953125
 20
266.98875
 30
0.0
 11
54.32953125
 21
266.98875
 31
0.0
  0
LINE
  5
12D
100
AcDbEntity
  8
2654_3 STELLHEBEL
390
0
100
AcDbLine
 10
54.32953125
 20
266.98875
 30
0.0
 11
54.32953125
 21
263.23875
 31
0.0
  0
LINE
  5
12E
100
AcDbEntity
  8
2654_3 STELLHEBEL
390
0
100
AcDbLine
 10
54.32953125
 20
263.23875
 30
0.0
 11
50.32953125
 21
263.23875
 31
0.0
  0
LINE
  5
12F
100
AcDbEntity
  8
2654_3 STELLHEBEL
390
0
100
AcDbLine
 10
50.32953125
 20
263.23875
 30
0.0
 11
50.32953125
 21
266.98875
 31
0.0
  0
LINE
  5
130
100
AcDbEntity
  8
2654_3L
390
0
  6
DIVIDE
100
AcDbLine
 10
33.3295312499
 20
271.48875
 30
0.0
 11
48.3295312499
 21
271.48875
 31
0.0
  0
LINE
  5
131
100
AcDbEntity
  8
2654_3L
390
0
  6
DIVIDE
100
AcDbLine
 10
48.32953125
 20
254.4887500018
 30
0.0
 11
41.2444615668
 21
254.4887500003
 31
0.0
  0
LINE
  5
132
100
AcDbEntity
  8
2654_3R
390
0
100
AcDbLine
 10
51.32953125
 20
265.98875
 30
0.0
 11
53.32953125
 21
265.98875
 31
0.0
  0
LINE
  5
133
100
AcDbEntity
  8
2654_3R
390
0
100
AcDbLine
 10
51.32953125
 20
264.23875
 30
0.0
 11
51.32953125
 21
265.98875
 31
0.0
  0
LINE
  5
134
100
AcDbEntity
  8
2654_3R
390
0
100
AcDbLine
 10
53.32953125
 20
264.23875
 30
0.0
 11
51.32953125
 21
264.23875
 31
0.0
  0
LINE
  5
135
100
AcDbEntity
  8
2654_3R
390
0
100
AcDbLine
 10
53.32953125
 20
265.98875
 30
0.0
 11
53.32953125
 21
264.23875
 31
0.0
  0
LINE
  5
136
100
AcDbEntity
  8
2654_3R
390
0
  6
DIVIDE
100
AcDbLine
 10
48.3295312499
 20
271.48875
 30
0.0
 11
63.3295312499
 21
271.48875
 31
0.0
  0
LINE
  5
137
100
AcDbEntity
  8
2654_3R
390
0
  6
DIVIDE
100
AcDbLine
 10
48.32953125
 20
254.4887500018
 30
0.0
 11
63.32953125
 21
254.48875
 31
0.0
  0
LINE
  5
138
100
AcDbEntity
  8
2654_7L
390
0
  6
DIVIDE
100
AcDbLine
 10
33.32953125
 20
229.4841555086
 30
0.0
 11
48.32953125
 21
229.4841555086
 31
0.0
  0
LINE
  5
139
100
AcDbEntity
  8
2654_7L
390
0
  6
DIVIDE
100
AcDbLine
 10
33.32953125
 20
152.4841555086
 30
0.0
 11
48.32953125
 21
152.4841555086
 31
0.0
  0
LINE
  5
13A
100
AcDbEntity
  8
2654_7R
390
0
  6
DIVIDE
100
AcDbLine
 10
48.32953125
 20
229.4841555086
 30
0.0
 11
63.32953125
 21
229.4841555086
 31
0.0
  0
LINE
  5
13B
100
AcDbEntity
  8
2654_7R
390
0
  6
DIVIDE
100
AcDbLine
 10
48.32953125
 20
152.4841555086
 30
0.0
 11
63.3295312501
 21
152.4841555086
 31
0.0
  0
INSERT
  5
13C
100
AcDbEntity
  8
BEMAßUNG
390
0
100
AcDbBlockReference
  2
D197141248
 10
0.0
 20
0.0
 30
0.0
  0
MTEXT
  5
13D
100
AcDbEntity
  8
2654_1P
390
0
100
AcDbMText
 10
81.7428050465
 20
272.7952278306
 30
0.0
 40
2.0
 41
0.0
 71
         1
 72
         1
  1
\W1.135101;M15x30x15 F150\PT2 O2 S4 I1,2\PB-0,3     D1,2
  7
Arial
 73
         1
 44
0.66
  0
MTEXT
  5
13E
100
AcDbEntity
  8
2654_2P
390
0
100
AcDbMText
 10
148.0402548548
 20
202.4335002749
 30
0.0
 40
2.0
 41
0.0
 71
         1
 72
         1
  1
\W1.135108;M42+x2 F150\PT2 O2 S4 I1,2\PB-0,3     D1,2
  7
Arial
 73
         1
 44
0.66
  0
MTEXT
  5
13F
100
AcDbEntity
  8
2654___ W-_ GSP-_ SIGNAL-ANTRIEB
390
0
100
AcDbMText
 10
28.3719715345
 20
264.207094885
 30
0.0
 40
2.0
 41
0.0
 71
         5
 72
         1
  1
\W0.810845;>2654.3L\PM15x15x2\PT2 O2
  7
Arial
 73
         1
 44
0.66
  0
ARC
  5
140
100
AcDbEntity
  8
2654___ W-_ GSP-_ SIGNAL-ANTRIEB
390
0
  6
DASHDOT
100
AcDbCircle
 10
40.7445390832
 20
262.98875
 30
0.0
 40
11.2797314315
100
AcDbArc
 50
131.0999434524
 51
228.9000565483
  0
MTEXT
  5
141
100
AcDbEntity
  8
2654_3L
390
0
100
AcDbMText
 10
26.1663328217
 20
276.8154599346
 30
0.0
 40
2.0
 41
0.0
 71
         1
 72
         1
  1
\W0.810867;M15x15x2 F150\PT2 O2 S4 I1,2\PB-0,3     D1,5
  7
Arial
 73
         1
 44
0.66
  0
TEXT
  5
142
100
AcDbEntity
  8
2654_3R
390
0
100
AcDbText
 10
42.0626932233
 20
271.1842532192
 30
0.0
 40
2.0
  1
@2654.3L
 41
1.1351289117
  7
Arial
 11
42.0626932233
 21
273.1842532192
 31
0.0
100
AcDbText
 73
         3
  0
TEXT
  5
143
100
AcDbEntity
  8
2654_7R
390
0
100
AcDbText
 10
42.0626932234
 20
229.1796587278
 30
0.0
 40
2.0
  1
@2654.3L
 41
1.1351289117
  7
Arial
 11
42.0626932234
 21
231.1796587278
 31
0.0
100
AcDbText
 73
         3
  0
TEXT
  5
144
100
AcDbEntity
  8
2654_7L
390
0
100
AcDbText
 10
27.0626932234
 20
229.1796587278
 30
0.0
 40
2.0
  1
@2654.3L
 41
1.1351289117
  7
Arial
 11
27.0626932234
 21
231.1796587278
 31
0.0
100
AcDbText
 73
         3
  0
ARC
  5
145
100
AcDbEntity
  8
2654___ W-_ GSP-_ SIGNAL-ANTRIEB
390
0
  6
DASHDOT
100
AcDbCircle
 10
66.9151549651
 20
190.9841555086
 30
0.0
 40
51.0905482485
100
AcDbArc
 50
131.099943452
 51
228.900056548
  0
MTEXT
  5
146
100
AcDbEntity
  8
2654___ W-_ GSP-_ SIGNAL-ANTRIEB
390
0
100
AcDbMText
 10
28.3719715346
 20
222.2025003936
 30
0.0
 40
2.0
 41
0.0
 71
         5
 72
         1
  1
\W0.810845;>2654.7L\PM15x15x2\PT2 O2
  7
Arial
 73
         1
 44
0.66
  0
ARC
  5
147
100
AcDbEntity
  8
2654___ W-_ GSP-_ SIGNAL-ANTRIEB
390
0
  6
DASHDOT
100
AcDbCircle
 10
175.2759545068
 20
176.5503263091
 30
0.0
 40
27.8675717719
100
AcDbArc
 50
131.099943452
 51
228.900056548
  0
MTEXT
  5
148
100
AcDbEntity
  8
2654___ W-_ GSP-_ SIGNAL-ANTRIEB
390
0
100
AcDbMText
 10
151.9989636741
 20
190.2686711941
 30
0.0
 40
2.0
 41
0.0
 71
         5
 72
         1
  1
\W0.810845;>2654.2P\PM42+x2\PT2 O2
  7
Arial
 73
         1
 44
0.66
  0
MTEXT
  5
149
100
AcDbEntity
  8
2654___ W-_ GSP-_ SIGNAL-ANTRIEB
390
0
100
AcDbMText
 10
87.8078392354
 20
254.9322689622
 30
0.0
 40
2.0
 41
0.0
 71
         5
 72
         1
  1
\W0.810845;>2654.1P\PM15x30x15\PT2 O2
  7
Arial
 73
         1
 44
0.66
  0
ARC
  5
14A
100
AcDbEntity
  8
2654___ W-_ GSP-_ SIGNAL-ANTRIEB
390
0
  6
DASHDOT
100
AcDbCircle
 10
115.4465993818
 20
241.2139240772
 30
0.0
 40
34.5027079081
100
AcDbArc
 50
131.099943452
 51
228.900056548
  0
LINE
  5
14B
100
AcDbEntity
  8
2654_1 RAHMEN
390
0
  6
DASHED
100
AcDbLine
 10
121.7653989508
 20
196.0953981712
 30
0.0
 11
121.7653989508
 21
146.0953981712
 31
0.0
  0
LINE
  5
14C
100
AcDbEntity
  8
2654_1 RAHMEN
390
0
100
AcDbLine
 10
123.7653989508
 20
196.0953981712
 30
0.0
 11
123.7653989508
 21
146.0953981712
 31
0.0
  0
LINE
  5
14D
100
AcDbEntity
  8
2654_1 RAHMEN
390
0
  6
DASHED
100
AcDbLine
 10
95.7653989508
 20
196.0953981712
 30
0.0
 11
95.7653989508
 21
146.0953981712
 31
0.0
  0
LINE
  5
14E
100
AcDbEntity
  8
2654_1 RAHMEN
390
0
100
AcDbLine
 10
93.7653989508
 20
196.0953981712
 30
0.0
 11
93.7653989508
 21
146.0953981712
 31
0.0
  0
LINE
  5
14F
100
AcDbEntity
  8
2654_1 RAHMEN
390
0
100
AcDbLine
 10
93.7653989508
 20
196.0953981712
 30
0.0
 11
123.7653989508
 21
196.0953981712
 31
0.0
  0
LINE
  5
150
100
AcDbEntity
  8
2654_1 RAHMEN
390
0
100
AcDbLine
 10
93.7653989508
 20
146.0953981712
 30
0.0
 11
123.7653989508
 21
146.0953981712
 31
0.0
  0
TEXT
  5
151
100
AcDbEntity
  8
BESCHRIFTUNG
390
0
100
AcDbText
 10
81.3178365072
 20
204.2721852005
 30
0.0
 40
3.0
  1
2654.99P
 41
1.1351043651
  7
Arial
 11
81.3178365072
 21
207.2721852005
 31
0.0
100
AcDbText
 73
         3
  0
LINE
  5
152
100
AcDbEntity
  8
2654_99P
370
        25
390
0
  6
DIVIDE
100
AcDbLine
 10
92.7653989508
 20
197.0953981712
 30
0.0
 11
123.7653989508
 21
197.0953981712
 31
0.0
  0
LINE
  5
153
100
AcDbEntity
  8
2654_99P
370
        25
390
0
  6
DIVIDE
100
AcDbLine
 10
92.7653989508
 20
145.0953981712
 30
0.0
 11
123.7653989508
 21
145.0953981712
 31
0.0
  0
LINE
  5
154
100
AcDbEntity
  8
MITTELLINIEN
390
0
100
AcDbLine
 10
92.7653989508
 20
197.0953981712
 30
0.0
 11
92.7653989508
 21
140.0953981712
 31
0.0
  0
CIRCLE
  5
155
100
AcDbEntity
  8
2654_99P
370
        25
390
0
  6
PHANTOM
100
AcDbCircle
 10
92.7653989508
 20
197.0953981712
 30
0.0
 40
0.5
  0
CIRCLE
  5
156
100
AcDbEntity
  8
2654_99P
370
        25
390
0
  6
PHANTOM
100
AcDbCircle
 10
92.7653989508
 20
145.0953981712
 30
0.0
 40
1.0
  0
MTEXT
  5
157
100
AcDbEntity
  8
2654___ W-_ GSP-_ SIGNAL-ANTRIEB
390
0
100
AcDbMText
 10
87.8078392354
 20
184.8137430562
 30
0.0
 40
2.0
 41
0.0
 71
         5
 72
         1
  1
\W0.810848;>2654.99P\PM15x30x15\PT2 O2
  7
Arial
 73
         1
 44
0.66
  0
ARC
  5
158
100
AcDbEntity
  8
2654___ W-_ GSP-_ SIGNAL-ANTRIEB
390
0
  6
DASHDOT
100
AcDbCircle
 10
113.2657147249
 20
173.5953981712
 30
0.0
 40
31.18513984
100
AcDbArc
 50
131.099943452
 51
228.900056548
  0
TEXT
  5
159
100
AcDbEntity
  8
2654_99P
390
0
100
AcDbText
 10
83.9077408879
 20
196.9256668532
 30
0.0
 40
2.0
  1
@2654.1P
 41
1.1350968316
  7
Arial
 11
83.9077408879
 21
198.9256668532
 31
0.0
100
AcDbText
 73
         3
  0
CIRCLE
  5
15A
100
AcDbEntity
  8
2654_99P
390
0
100
AcDbCircle
 10
119.2653989508
 20
173.0953981712
 30
0.0
 40
1.25
  0
CIRCLE
  5
15B
100
AcDbEntity
  8
2654_99P
390
0
100
AcDbCircle
 10
119.2653989508
 20
162.0953981712
 30
0.0
 40
1.25
  0
LINE
  5
15C
100
AcDbEntity
  8
2654_99P
390
0
  6
DIVIDE
100
AcDbLine
 10
115.7141883636
 20
191.492828213
 30
0.0
 11
110.7141883636
 21
191.492828213
 31
0.0
  0
LINE
  5
15D
100
AcDbEntity
  8
2654_99P
390
0
  6
DIVIDE
100
AcDbLine
 10
115.7141883636
 20
185.492828213
 30
0.0
 11
110.7141883636
 21
185.492828213
 31
0.0
  0
ARC
  5
15E
100
AcDbEntity
  8
2654_99P
390
0
  6
DIVIDE
100
AcDbCircle
 10
115.7141883636
 20
188.492828213
 30
0.0
 40
3.0
100
AcDbArc
 50
270.0
 51
450.0
  0
ARC
  5
15F
100
AcDbEntity
  8
2654_99P
390
0
  6
DIVIDE
100
AcDbCircle
 10
101.8166095379
 20
150.6979681293
 30
0.0
 40
3.0
100
AcDbArc
 50
90.0
 51
270.0
  0
ARC
  5
160
100
AcDbEntity
  8
2654_99P
390
0
  6
DIVIDE
100
AcDbCircle
 10
103.8166095379
 20
150.6979681293
 30
0.0
 40
3.0
100
AcDbArc
 50
270.0
 51
450.0
  0
LINE
  5
161
100
AcDbEntity
  8
2654_99P
390
0
  6
DIVIDE
100
AcDbLine
 10
101.8166095379
 20
153.6979681293
 30
0.0
 11
103.8166095379
 21
153.6979681293
 31
0.0
  0
LINE
  5
162
100
AcDbEntity
  8
2654_99P
390
0
  6
DIVIDE
100
AcDbLine
 10
101.8166095379
 20
147.6979681293
 30
0.0
 11
103.8166095379
 21
147.6979681293
 31
0.0
  0
CIRCLE
  5
163
100
AcDbEntity
  8
2654_99P
390
0
100
AcDbCircle
 10
98.2653989508
 20
173.0953981712
 30
0.0
 40
1.0
  0
CIRCLE
  5
164
100
AcDbEntity
  8
2654_99P
390
0
100
AcDbCircle
 10
98.2653989508
 20
187.0953981712
 30
0.0
 40
1.25
  0
CIRCLE
  5
165
100
AcDbEntity
  8
2654_99P
390
0
100
AcDbCircle
 10
98.2653989508
 20
178.0953981712
 30
0.0
 40
1.25
  0
LINE
  5
166
100
AcDbEntity
  8
2654_99P
390
0
  6
DASHED
100
AcDbLine
 10
123.7653989508
 20
197.0953981712
 30
0.0
 11
110.7141883636
 21
191.492828213
 31
0.0
  0
LINE
  5
167
100
AcDbEntity
  8
2654_99P
390
0
  6
DASHED
100
AcDbLine
 10
110.7141883636
 20
185.492828213
 30
0.0
 11
123.7653989508
 21
179.0902936578
 31
0.0
  0
LINE
  5
168
100
AcDbEntity
  8
2654_99P
390
0
  6
DASHED
100
AcDbLine
 10
123.7653989508
 20
177.2600462132
 30
0.0
 11
119.2653989508
 21
173.0953981712
 31
0.0
  0
LINE
  5
169
100
AcDbEntity
  8
2654_99P
390
0
  6
DASHED
100
AcDbLine
 10
119.2653989508
 20
162.0953981712
 30
0.0
 11
103.8166095379
 21
153.6979681293
 31
0.0
  0
LINE
  5
16A
100
AcDbEntity
  8
2654_99P
390
0
  6
DASHED
100
AcDbLine
 10
103.8166095379
 20
153.6979681293
 30
0.0
 11
101.2653989508
 21
173.0953981712
 31
0.0
  0
LINE
  5
16B
100
AcDbEntity
  8
2654_99P
390
0
  6
DASHED
100
AcDbLine
 10
98.2653989508
 20
173.0953981712
 30
0.0
 11
98.2653989508
 21
178.0953981712
 31
0.0
  0
ARC
  5
16C
100
AcDbEntity
  8
2654_99P
390
0
  6
DASHED
100
AcDbCircle
 10
89.5480809287
 20
182.5953981712
 30
0.0
 40
9.8102820295
100
AcDbArc
 50
332.6965920221
 51
387.3034079779
  0
ARC
  5
16D
100
AcDbEntity
  8
2654_99P
390
0
  6
DASHED
100
AcDbCircle
 10
126.181020916
 20
167.5953981712
 30
0.0
 40
8.8360526914
100
AcDbArc
 50
141.504740245
 51
218.495259755
  0
INSERT
  5
16E
100
AcDbEntity
  8
BEMAßUNG
390
0
100
AcDbBlockReference
  2
D197140992
 10
0.0
 20
0.0
 30
0.0
  0
LINE
  5
16F
100
AcDbEntity
  8
MITTELLINIEN
390
0
 62
        94
100
AcDbLine
 10
93.7653989508
 20
197.0953981712
 30
0.0
 11
93.7653989508
 21
140.0953981712
 31
0.0
  0
CIRCLE
  5
170
100
AcDbEntity
  8
2654_99P
390
0
  6
DIVIDE
100
AcDbCircle
 10
101.2653989508
 20
173.0953981712
 30
0.0
 40
1.0
  0
LINE
  5
171
100
AcDbEntity
  8
2654_3L
390
0
100
AcDbLine
 10
41.3028500159
 20
264.98875
 30
0.0
 11
42.2899624938
 21
264.98875
 31
0.0
  0
ARC
  5
172
100
AcDbEntity
  8
2654_3L
390
0
100
AcDbCircle
 10
54.1077058431
 20
272.7669245931
 30
0.0
 40
16.0
100
AcDbArc
 50
195.0
 51
207.1975102308
  0
ARC
  5
173
100
AcDbEntity
  8
2654_3L
390
0
100
AcDbCircle
 10
54.1077058431
 20
257.210575407
 30
0.0
 40
16.0
100
AcDbArc
 50
152.8024897693
 51
165.0000000001
  0
LINE
  5
174
100
AcDbEntity
  8
2654_3L
390
0
100
AcDbLine
 10
39.8767260752
 20
265.4539761557
 30
0.0
 11
41.3028500159
 21
264.98875
 31
0.0
  0
LINE
  5
175
100
AcDbEntity
  8
2654_3L
390
0
100
AcDbLine
 10
39.8767260752
 20
264.5235238443
 30
0.0
 11
41.3028500159
 21
264.98875
 31
0.0
  0
LINE
  5
176
100
AcDbEntity
  8
2654_3L
390
0
  6
DASHED
100
AcDbLine
 10
46.32953125
 20
264.98875
 30
0.0
 11
38.6528926224
 21
268.6258198714
 31
0.0
  0
ARC
  5
177
100
AcDbEntity
  8
2654_3L
390
0
  6
DASHED
100
AcDbCircle
 10
41.7964062549
 20
265.6621989893
 30
0.0
 40
0.8349438917
100
AcDbArc
 50
306.2368849546
 51
593.7631150455
  0
ARC
  5
178
100
AcDbEntity
  8
2654_3L
390
0
  6
DASHED
100
AcDbCircle
 10
39.0706919365
 20
251.6873416725
 30
0.0
 40
9.673365188
100
AcDbArc
 50
16.8340210839
 51
92.4754142618
  0
ARC
  5
179
100
AcDbEntity
  8
2654_99 RAHMENLEHRE
390
0
100
AcDbCircle
 10
112.2556683008
 20
177.0986178492
 30
0.0
 40
2.9916916334
100
AcDbArc
 50
89.8136418369
 51
270.186358163
  0
LINE
  5
17A
100
AcDbEntity
  8
2654_99 RAHMENLEHRE
390
0
100
AcDbLine
 10
112.2653989508
 20
180.0902936578
 30
0.0
 11
123.7653989508
 21
180.0902936578
 31
0.0
  0
LINE
  5
17B
100
AcDbEntity
  8
2654_99 RAHMENLEHRE
390
0
100
AcDbLine
 10
112.2653989508
 20
174.0902936578
 30
0.0
 11
123.7653989508
 21
176.2426817596
 31
0.0
  0
LINE
  5
17C
100
AcDbEntity
  8
2654_99P
390
0
100
AcDbLine
 10
112.2636078199
 20
179.0902936578
 30
0.0
 11
123.7653989508
 21
179.0902936578
 31
0.0
  0
ARC
  5
17D
100
AcDbEntity
  8
2654_99P
390
0
100
AcDbCircle
 10
112.2556683008
 20
177.0986178492
 30
0.0
 40
1.9916916334
100
AcDbArc
 50
89.7716001148
 51
270.1687602273
  0
LINE
  5
17E
100
AcDbEntity
  8
2654_99P
390
0
100
AcDbLine
 10
112.2615346639
 20
175.1069348552
 30
0.0
 11
123.7653989508
 21
177.2600462132
 31
0.0
  0
LINE
  5
17F
100
AcDbEntity
  8
2654_1 RAHMEN
390
0
100
AcDbLine
 10
93.7653989508
 20
242.7139240772
 30
0.0
 11
98.7653989508
 21
242.7139240772
 31
0.0
  0
LINE
  5
180
100
AcDbEntity
  8
2654_1 RAHMEN
390
0
100
AcDbLine
 10
98.7653989508
 20
242.7139240772
 30
0.0
 11
98.7653989508
 21
239.7139240772
 31
0.0
  0
LINE
  5
181
100
AcDbEntity
  8
2654_1 RAHMEN
390
0
100
AcDbLine
 10
98.7653989508
 20
239.7139240772
 30
0.0
 11
93.7653989508
 21
239.7139240772
 31
0.0
  0
LINE
  5
182
100
AcDbEntity
  8
2654_1 RAHMEN
390
0
100
AcDbLine
 10
123.7653989508
 20
242.7139240772
 30
0.0
 11
118.7653989507
 21
242.7139240772
 31
0.0
  0
LINE
  5
183
100
AcDbEntity
  8
2654_1 RAHMEN
390
0
100
AcDbLine
 10
118.7653989507
 20
242.7139240772
 30
0.0
 11
118.7653989507
 21
239.7139240772
 31
0.0
  0
LINE
  5
184
100
AcDbEntity
  8
2654_1 RAHMEN
390
0
100
AcDbLine
 10
118.7653989507
 20
239.7139240772
 30
0.0
 11
123.7653989508
 21
239.7139240772
 31
0.0
  0
LINE
  5
185
100
AcDbEntity
  8
2654_1 RAHMEN
390
0
  6
DOT
100
AcDbLine
 10
110.7653989508
 20
196.0953981712
 30
0.0
 11
110.7653989508
 21
146.0953981712
 31
0.0
  0
LINE
  5
186
100
AcDbEntity
  8
2654_1 RAHMEN
390
0
  6
DOT
100
AcDbLine
 10
106.7653989508
 20
196.0953981712
 30
0.0
 11
106.7653989508
 21
146.0953981712
 31
0.0
  0
CIRCLE
  5
187
100
AcDbEntity
  8
2654_99P
390
0
100
AcDbCircle
 10
110.7653989508
 20
171.0953981712
 30
0.0
 40
1.25
  0
CIRCLE
  5
188
100
AcDbEntity
  8
2654_99P
390
0
100
AcDbCircle
 10
106.7653989508
 20
171.0953981712
 30
0.0
 40
1.25
  0
LINE
  5
189
100
AcDbEntity
  8
2654_99P
390
0
  6
DASHED
100
AcDbLine
 10
98.2653989508
 20
187.0953981712
 30
0.0
 11
106.7653989508
 21
171.0953981712
 31
0.0
  0
LINE
  5
18A
100
AcDbEntity
  8
2654_99P
390
0
  6
DASHED
100
AcDbLine
 10
106.7653989508
 20
171.0953981712
 30
0.0
 11
110.7653989508
 21
171.0953981712
 31
0.0
  0
LINE
  5
18B
100
AcDbEntity
  8
2654_99P
390
0
  6
DASHED
100
AcDbLine
 10
110.7653989508
 20
171.0953981712
 30
0.0
 11
123.7653989508
 21
145.0953981712
 31
0.0
  0
CIRCLE
  5
18C
100
AcDbEntity
  8
2654_99P
390
0
100
AcDbCircle
 10
98.2653989508
 20
169.0953981712
 30
0.0
 40
1.25
  0
LINE
  5
18D
100
AcDbEntity
  8
2654_1P
390
0
100
AcDbLine
 10
93.2653989508
 20
241.7139240772
 30
0.0
 11
97.7653989508
 21
241.7139240772
 31
0.0
  0
LINE
  5
18E
100
AcDbEntity
  8
2654_1P
390
0
100
AcDbLine
 10
97.7653989508
 20
240.7139240772
 30
0.0
 11
93.2653989508
 21
240.7139240772
 31
0.0
  0
LINE
  5
18F
100
AcDbEntity
  8
2654_1P
390
0
100
AcDbLine
 10
97.7653989508
 20
241.7139240772
 30
0.0
 11
97.7653989508
 21
240.7139240772
 31
0.0
  0
LINE
  5
190
100
AcDbEntity
  8
2654_1P
390
0
100
AcDbLine
 10
119.7653989507
 20
241.7139240772
 30
0.0
 11
119.7653989507
 21
240.7139240772
 31
0.0
  0
LINE
  5
191
100
AcDbEntity
  8
2654_1P
390
0
100
AcDbLine
 10
124.2653989508
 20
241.7139240772
 30
0.0
 11
119.7653989507
 21
241.7139240772
 31
0.0
  0
LINE
  5
192
100
AcDbEntity
  8
2654_1P
390
0
100
AcDbLine
 10
119.7653989507
 20
240.7139240772
 30
0.0
 11
124.2653989508
 21
240.7139240772
 31
0.0
  0
LINE
  5
193
100
AcDbEntity
  8
2654_1P
390
0
  6
DASHED
100
AcDbLine
 10
93.2653989508
 20
240.7139240772
 30
0.0
 11
124.2653989508
 21
241.7139240772
 31
0.0
  0
ARC
  5
194
100
AcDbEntity
  8
2654_99P
390
0
  6
DASHED
100
AcDbCircle
 10
99.1469252259
 20
171.0953981712
 30
0.0
 40
2.1856551818
100
AcDbArc
 50
113.7861166945
 51
246.2138833055
  0
LINE
  5
195
100
AcDbEntity
  8
2654_99P
390
0
  6
DASHED
100
AcDbLine
 10
98.2653989508
 20
169.0953981712
 30
0.0
 11
101.2653989508
 21
173.0953981712
 31
0.0
  0
CIRCLE
  5
196
100
AcDbEntity
  8
2654_3 STELLHEBEL
390
0
100
AcDbCircle
 10
46.32953125
 20
264.98875
 30
0.0
 40
1.25
  0
ARC
  5
197
100
AcDbEntity
  8
2654_3 STELLHEBEL
390
0
100
AcDbCircle
 10
54.1077058431
 20
257.210575407
 30
0.0
 40
15.0
100
AcDbArc
 50
154.3533474933
 51
165.0000000001
  0
ARC
  5
198
100
AcDbEntity
  8
2654_3 STELLHEBEL
390
0
100
AcDbCircle
 10
54.1077058431
 20
257.210575407
 30
0.0
 40
17.0
100
AcDbArc
 50
152.7715387265
 51
165.0000000001
  0
ARC
  5
199
100
AcDbEntity
  8
2654_3 STELLHEBEL
390
0
100
AcDbCircle
 10
54.1077058431
 20
272.7669245931
 30
0.0
 40
17.0
100
AcDbArc
 50
195.0
 51
207.2284612736
  0
ARC
  5
19A
100
AcDbEntity
  8
2654_3 STELLHEBEL
390
0
100
AcDbCircle
 10
54.1077058431
 20
272.7669245931
 30
0.0
 40
15.0
100
AcDbArc
 50
195.0
 51
205.6466525068
  0
ARC
  5
19B
100
AcDbEntity
  8
2654_3 STELLHEBEL
390
0
100
AcDbCircle
 10
42.2899624938
 20
264.98875
 30
0.0
 40
1.0
100
AcDbArc
 50
270.0000000001
 51
450.0000000001
  0
ARC
  5
19C
100
AcDbEntity
  8
2654_3 STELLHEBEL
390
0
100
AcDbCircle
 10
38.6528926224
 20
261.3516801286
 30
0.0
 40
1.0
100
AcDbArc
 50
165.0000000001
 51
345.0000000001
  0
ARC
  5
19D
100
AcDbEntity
  8
2654_3 STELLHEBEL
390
0
100
AcDbCircle
 10
38.6528926224
 20
268.6258198714
 30
0.0
 40
1.0
100
AcDbArc
 50
15.0
 51
195.0
  0
CIRCLE
  5
19E
100
AcDbEntity
  8
2654_2P
390
0
100
AcDbCircle
 10
169.2962693516
 20
181.5503263091
 30
0.0
 40
1.25
  0
CIRCLE
  5
19F
100
AcDbEntity
  8
2654_2P
390
0
100
AcDbCircle
 10
172.9565233894
 20
185.2105803469
 30
0.0
 40
1.25
  0
CIRCLE
  5
1A0
100
AcDbEntity
  8
2654_2P
390
0
100
AcDbCircle
 10
182.9565233895
 20
185.2105803469
 30
0.0
 40
1.25
  0
CIRCLE
  5
1A1
100
AcDbEntity
  8
2654_2P
390
0
100
AcDbCircle
 10
186.6167774273
 20
181.5503263091
 30
0.0
 40
1.25
  0
CIRCLE
  5
1A2
100
AcDbEntity
  8
2654_2P
390
0
100
AcDbCircle
 10
182.9565233894
 20
167.8900722712
 30
0.0
 40
1.25
  0
CIRCLE
  5
1A3
100
AcDbEntity
  8
2654_2P
390
0
100
AcDbCircle
 10
186.6167774273
 20
171.550326309
 30
0.0
 40
1.25
  0
CIRCLE
  5
1A4
100
AcDbEntity
  8
2654_2P
390
0
100
AcDbCircle
 10
172.9565233894
 20
167.8900722713
 30
0.0
 40
1.25
  0
CIRCLE
  5
1A5
100
AcDbEntity
  8
2654_7L
390
0
100
AcDbCircle
 10
43.4748816747
 20
156.4843579295
 30
0.0
 40
1.25
  0
CIRCLE
  5
1A6
100
AcDbEntity
  8
2654_7L
390
0
100
AcDbCircle
 10
43.4748816747
 20
225.4866201403
 30
0.0
 40
1.25
  0
CIRCLE
  5
1A7
100
AcDbEntity
  8
2654_1P
390
0
100
AcDbCircle
 10
99.2646648457
 20
219.2139240773
 30
0.0
 40
1.25
  0
CIRCLE
  5
1A8
100
AcDbEntity
  8
2654_1P
390
0
100
AcDbCircle
 10
99.2646648457
 20
263.2139240772
 30
0.0
 40
1.25
  0
ARC
  5
1A9
100
AcDbEntity
  8
2654_7 STELLSCHIEBER
390
0
100
AcDbCircle
 10
54.4802653551
 20
162.9841555086
 30
0.0
 40
1.5
100
AcDbArc
 50
180.0
 51
360.0
  0
ARC
  5
1AA
100
AcDbEntity
  8
2654_7 STELLSCHIEBER
390
0
100
AcDbCircle
 10
54.4802653551
 20
174.9841555086
 30
0.0
 40
1.5
100
AcDbArc
 50
0.0
 51
180.0
  0
ARC
  5
1AB
100
AcDbEntity
  8
2654_7 STELLSCHIEBER
390
0
100
AcDbCircle
 10
54.4802653551
 20
206.9839530877
 30
0.0
 40
1.5
100
AcDbArc
 50
180.0
 51
360.0
  0
ARC
  5
1AC
100
AcDbEntity
  8
2654_7 STELLSCHIEBER
390
0
100
AcDbCircle
 10
54.4802653551
 20
218.9839530877
 30
0.0
 40
1.5
100
AcDbArc
 50
0.0
 51
180.0
  0
CIRCLE
  5
1AD
100
AcDbEntity
  8
2654_7R
390
0
100
AcDbCircle
 10
54.4748816747
 20
225.4864177194
 30
0.0
 40
1.25
  0
CIRCLE
  5
1AE
100
AcDbEntity
  8
2654_7R
390
0
100
AcDbCircle
 10
54.4748816747
 20
156.4841555086
 30
0.0
 40
1.25
  0
ARC
  5
1AF
100
AcDbEntity
  8
2654_9 RIEGELSCHIEBER
390
0
100
AcDbCircle
 10
54.4802653551
 20
55.0937369119
 30
0.0
 40
1.5
100
AcDbArc
 50
180.0
 51
360.0
  0
ARC
  5
1B0
100
AcDbEntity
  8
2654_9 RIEGELSCHIEBER
390
0
100
AcDbCircle
 10
54.4802653551
 20
79.0937369119
 30
0.0
 40
1.5
100
AcDbArc
 50
360.0
 51
540.0
  0
ARC
  5
1B1
100
AcDbEntity
  8
2654_9 RIEGELSCHIEBER
390
0
100
AcDbCircle
 10
54.4802653551
 20
99.093534491
 30
0.0
 40
1.5
100
AcDbArc
 50
180.0
 51
360.0
  0
ARC
  5
1B2
100
AcDbEntity
  8
2654_9 RIEGELSCHIEBER
390
0
100
AcDbCircle
 10
54.4802653551
 20
123.093534491
 30
0.0
 40
1.5
100
AcDbArc
 50
360.0
 51
540.0
  0
CIRCLE
  5
1B3
100
AcDbEntity
  8
2654_9R
390
0
100
AcDbCircle
 10
54.4856490355
 20
128.6005150626
 30
0.0
 40
1.25
  0
CIRCLE
  5
1B4
100
AcDbEntity
  8
2654_9R
390
0
100
AcDbCircle
 10
54.4856490355
 20
49.5980504309
 30
0.0
 40
1.25
  0
CIRCLE
  5
1B5
100
AcDbEntity
  8
2654_2 ANTRIEBSRAD
390
0
100
AcDbCircle
 10
177.9565233895
 20
176.5503263091
 30
0.0
 40
20.0
  0
CIRCLE
  5
1B6
100
AcDbEntity
  8
2654_2P
390
0
100
AcDbCircle
 10
177.9565233895
 20
176.5503263091
 30
0.0
 40
1.25
  0
MTEXT
  5
1B7
100
AcDbEntity
  8
BESCHRIFTUNG
390
0
100
AcDbMText
 10
141.6075312282
 20
129.1769823461
 30
0.0
 40
3.0
 41
0.0
 71
         1
 72
         1
  3
\W1.135077;Rahmen\PAntriebsrad\PStellhebel\PDrehdraht\PRiegelzapfen\PStellschieber\PStelldraht\PRiegelschieber\P\PSignalplatte\PGestängewinkel\P\PM3x8 Antriebslager     \PM3x10 Antriebszapfen\P   vorne ca. 3 mm auf \P   Ř1,8...2 mm abgedreht\PM3x5 S
  1
tellhebellager\PM3x5 Drehdrahtklemme    \PM3x5 Riegelzapfenbef.\PM3x5 Stelldrahtklemme    \PM3x8 Stellschieberlager\PM3x8 Riegelschieberlager\P\PSignalplattenlehre\PRahmenbohrlehre
  7
Arial
 73
         1
 44
0.66
  0
MTEXT
  5
1B8
100
AcDbEntity
  8
BESCHRIFTUNG
390
0
100
AcDbMText
 10
115.9467101207
 20
129.1769823461
 30
0.0
 40
3.0
 41
0.0
 71
         1
 72
         1
  1
\W1.135138;2654.1\P2654.2\P2654.3\P2654.4/0\P2654.5/6\P2654.7\P2654.8/0\P2654.9\P\P2654.20/A\P2654.30\P\P2654.51\P2654.52\P\P\P2654.53\P2654.54\P2654.55\P2654.56\P2654.57\P2654.58\P\P2654.98\P2654.99\P
  7
Arial
 73
         1
 44
0.66
  0
LINE
  5
1B9
100
AcDbEntity
  8
2654_7 STELLSCHIEBER
390
0
100
AcDbLine
 10
48.32953125
 20
153.4841555086
 30
0.0
 11
48.32953125
 21
185.9798419894
 31
0.0
  0
LINE
  5
1BA
100
AcDbEntity
  8
2654_7 STELLSCHIEBER
390
0
100
AcDbLine
 10
57.32953125
 20
153.4841555086
 30
0.0
 11
48.32953125
 21
153.4841555086
 31
0.0
  0
LINE
  5
1BB
100
AcDbEntity
  8
2654_7 STELLSCHIEBER
390
0
100
AcDbLine
 10
57.32953125
 20
228.4839530877
 30
0.0
 11
57.32953125
 21
153.4841555086
 31
0.0
  0
LINE
  5
1BC
100
AcDbEntity
  8
2654_7 STELLSCHIEBER
390
0
100
AcDbLine
 10
52.9802653551
 20
162.9841555086
 30
0.0
 11
52.9802653551
 21
174.9841555086
 31
0.0
  0
LINE
  5
1BD
100
AcDbEntity
  8
2654_7 STELLSCHIEBER
390
0
100
AcDbLine
 10
48.32953125
 20
153.4841555086
 30
0.0
 11
48.32953125
 21
228.4841555086
 31
0.0
  0
LINE
  5
1BE
100
AcDbEntity
  8
2654_7 STELLSCHIEBER
390
0
100
AcDbLine
 10
39.3302320995
 20
153.4841555086
 30
0.0
 11
48.32953125
 21
153.4841555086
 31
0.0
  0
LINE
  5
1BF
100
AcDbEntity
  8
2654_7 STELLSCHIEBER
390
0
100
AcDbLine
 10
39.3302320995
 20
228.4841555086
 30
0.0
 11
48.32953125
 21
228.4841555086
 31
0.0
  0
LINE
  5
1C0
100
AcDbEntity
  8
2654_7 STELLSCHIEBER
390
0
100
AcDbLine
 10
39.3302320995
 20
228.4841555086
 30
0.0
 11
39.3302320995
 21
203.6048419896
 31
0.0
  0
LINE
  5
1C1
100
AcDbEntity
  8
2654_7 STELLSCHIEBER
390
0
  6
DASHED
100
AcDbLine
 10
46.32953125
 20
153.4841555086
 30
0.0
 11
46.32953125
 21
228.4841555086
 31
0.0
  0
LINE
  5
1C2
100
AcDbEntity
  8
2654_7 STELLSCHIEBER
390
0
100
AcDbLine
 10
39.3302320995
 20
185.9871699384
 30
0.0
 11
46.32953125
 21
185.9871699384
 31
0.0
  0
LINE
  5
1C3
100
AcDbEntity
  8
2654_7 STELLSCHIEBER
390
0
100
AcDbLine
 10
39.3302320995
 20
192.2371699384
 30
0.0
 11
46.32953125
 21
192.2371699384
 31
0.0
  0
LINE
  5
1C4
100
AcDbEntity
  8
2654_7 STELLSCHIEBER
390
0
100
AcDbLine
 10
39.3302320995
 20
185.9871699384
 30
0.0
 11
39.3302320995
 21
153.4841555086
 31
0.0
  0
LINE
  5
1C5
100
AcDbEntity
  8
2654_7 STELLSCHIEBER
390
0
  6
DASHED
100
AcDbLine
 10
46.32953125
 20
185.9871699384
 30
0.0
 11
48.32953125
 21
185.9871699384
 31
0.0
  0
LINE
  5
1C6
100
AcDbEntity
  8
2654_7 STELLSCHIEBER
390
0
  6
DASHED
100
AcDbLine
 10
46.32953125
 20
192.2371699384
 30
0.0
 11
48.32953125
 21
192.2371699384
 31
0.0
  0
LINE
  5
1C7
100
AcDbEntity
  8
2654_1 RAHMEN
390
0
  6
DASHED
100
AcDbLine
 10
121.7653989508
 20
266.2139240772
 30
0.0
 11
121.7653989508
 21
216.2139240772
 31
0.0
  0
LINE
  5
1C8
100
AcDbEntity
  8
2654_1 RAHMEN
390
0
100
AcDbLine
 10
123.7653989508
 20
266.2139240772
 30
0.0
 11
123.7653989508
 21
216.2139240772
 31
0.0
  0
LINE
  5
1C9
100
AcDbEntity
  8
2654_1 RAHMEN
390
0
  6
DASHED
100
AcDbLine
 10
95.7653989508
 20
266.2139240772
 30
0.0
 11
95.7653989508
 21
236.2139240774
 31
0.0
  0
LINE
  5
1CA
100
AcDbEntity
  8
2654_1 RAHMEN
390
0
100
AcDbLine
 10
93.7653989508
 20
266.2139240772
 30
0.0
 11
93.7653989508
 21
216.2139240772
 31
0.0
  0
LINE
  5
1CB
100
AcDbEntity
  8
2654_1 RAHMEN
390
0
100
AcDbLine
 10
93.7653989508
 20
266.2139240772
 30
0.0
 11
123.7653989508
 21
266.2139240772
 31
0.0
  0
LINE
  5
1CC
100
AcDbEntity
  8
2654_7 STELLSCHIEBER
390
0
100
AcDbLine
 10
55.9802653551
 20
206.9839530877
 30
0.0
 11
55.9802653551
 21
218.9839530877
 31
0.0
  0
LINE
  5
1CD
100
AcDbEntity
  8
2654_7 STELLSCHIEBER
390
0
100
AcDbLine
 10
52.9802653551
 20
218.9839530877
 30
0.0
 11
52.9802653551
 21
206.9839530877
 31
0.0
  0
LINE
  5
1CE
100
AcDbEntity
  8
2654_7 STELLSCHIEBER
390
0
100
AcDbLine
 10
55.9802653551
 20
162.9841555086
 30
0.0
 11
55.9802653551
 21
174.9841555086
 31
0.0
  0
LINE
  5
1CF
100
AcDbEntity
  8
2654_7 STELLSCHIEBER
390
0
100
AcDbLine
 10
48.32953125
 20
228.4839530877
 30
0.0
 11
57.32953125
 21
228.4839530877
 31
0.0
  0
LINE
  5
1D0
100
AcDbEntity
  8
2654_7 STELLSCHIEBER
390
0
100
AcDbLine
 10
48.32953125
 20
185.9798419894
 30
0.0
 11
53.32953125
 21
185.9798419894
 31
0.0
  0
LINE
  5
1D1
100
AcDbEntity
  8
2654_7 STELLSCHIEBER
390
0
100
AcDbLine
 10
53.32953125
 20
192.2298419894
 30
0.0
 11
53.32953125
 21
185.9798419894
 31
0.0
  0
LINE
  5
1D2
100
AcDbEntity
  8
2654_7 STELLSCHIEBER
390
0
100
AcDbLine
 10
53.32953125
 20
192.2298419894
 30
0.0
 11
48.32953125
 21
192.2298419894
 31
0.0
  0
LINE
  5
1D3
100
AcDbEntity
  8
2654_7 STELLSCHIEBER
390
0
100
AcDbLine
 10
48.32953125
 20
192.2298419894
 30
0.0
 11
48.32953125
 21
228.4839530877
 31
0.0
  0
LINE
  5
1D4
100
AcDbEntity
  8
2654_7 STELLSCHIEBER
390
0
  6
DASHED
100
AcDbLine
 10
50.32953125
 20
153.4841555086
 30
0.0
 11
50.32953125
 21
185.9798419894
 31
0.0
  0
LINE
  5
1D5
100
AcDbEntity
  8
2654_7 STELLSCHIEBER
390
0
  6
DASHED
100
AcDbLine
 10
50.32953125
 20
192.2298419894
 30
0.0
 11
50.32953125
 21
197.6048419896
 31
0.0
  0
LINE
  5
1D6
100
AcDbEntity
  8
2654_9 RIEGELSCHIEBER
390
0
100
AcDbLine
 10
52.9802653551
 20
99.093534491
 30
0.0
 11
52.9802653551
 21
123.093534491
 31
0.0
  0
LINE
  5
1D7
100
AcDbEntity
  8
2654_9 RIEGELSCHIEBER
390
0
100
AcDbLine
 10
55.9802653551
 20
123.093534491
 30
0.0
 11
55.9802653551
 21
99.093534491
 31
0.0
  0
LINE
  5
1D8
100
AcDbEntity
  8
2654_9 RIEGELSCHIEBER
390
0
100
AcDbLine
 10
52.9802653551
 20
55.0937369119
 30
0.0
 11
52.9802653551
 21
79.0937369119
 31
0.0
  0
LINE
  5
1D9
100
AcDbEntity
  8
2654_9 RIEGELSCHIEBER
390
0
100
AcDbLine
 10
55.9802653551
 20
55.0937369119
 30
0.0
 11
55.9802653551
 21
79.0937369119
 31
0.0
  0
LINE
  5
1DA
100
AcDbEntity
  8
2654_9 RIEGELSCHIEBER
390
0
100
AcDbLine
 10
48.32953125
 20
46.6080504309
 30
0.0
 11
57.32953125
 21
46.6080504309
 31
0.0
  0
LINE
  5
1DB
100
AcDbEntity
  8
2654_9 RIEGELSCHIEBER
390
0
100
AcDbLine
 10
57.32953125
 20
131.6080504309
 30
0.0
 11
48.32953125
 21
131.6080504309
 31
0.0
  0
LINE
  5
1DC
100
AcDbEntity
  8
2654_9 RIEGELSCHIEBER
390
0
100
AcDbLine
 10
48.32953125
 20
96.1059527558
 30
0.0
 11
50.32953125
 21
96.1059527558
 31
0.0
  0
LINE
  5
1DD
100
AcDbEntity
  8
2654_9 RIEGELSCHIEBER
390
0
100
AcDbLine
 10
48.32953125
 20
78.1050566266
 30
0.0
 11
50.32953125
 21
78.1050566266
 31
0.0
  0
LINE
  5
1DE
100
AcDbEntity
  8
2654_9 RIEGELSCHIEBER
390
0
100
AcDbLine
 10
39.32953125
 20
131.6080504309
 30
0.0
 11
39.32953125
 21
97.6008406508
 31
0.0
  0
LINE
  5
1DF
100
AcDbEntity
  8
2654_9 RIEGELSCHIEBER
390
0
100
AcDbLine
 10
45.07953125
 20
76.6110648608
 30
0.0
 11
45.07953125
 21
82.1110648608
 31
0.0
  0
LINE
  5
1E0
100
AcDbEntity
  8
2654_9 RIEGELSCHIEBER
390
0
100
AcDbLine
 10
45.07953125
 20
97.6008406508
 30
0.0
 11
45.07953125
 21
92.1008406508
 31
0.0
  0
LINE
  5
1E1
100
AcDbEntity
  8
2654_9 RIEGELSCHIEBER
390
0
100
AcDbLine
 10
48.32953125
 20
92.1059527558
 30
0.0
 11
50.32953125
 21
92.1059527558
 31
0.0
  0
LINE
  5
1E2
100
AcDbEntity
  8
2654_9 RIEGELSCHIEBER
390
0
100
AcDbLine
 10
48.32953125
 20
82.1059527558
 30
0.0
 11
50.32953125
 21
82.1059527558
 31
0.0
  0
LINE
  5
1E3
100
AcDbEntity
  8
2654_1 RAHMEN
390
0
100
AcDbLine
 10
93.7653989508
 20
216.2139240772
 30
0.0
 11
123.7653989508
 21
216.2139240772
 31
0.0
  0
LINE
  5
1E4
100
AcDbEntity
  8
2654_4 RIEGELZAPFEN
390
0
100
AcDbLine
 10
164.7155378432
 20
254.5593341781
 30
0.0
 11
170.7155378432
 21
254.5593341781
 31
0.0
  0
LINE
  5
1E5
100
AcDbEntity
  8
2654_4 RIEGELZAPFEN
390
0
100
AcDbLine
 10
170.7155378432
 20
254.5593341781
 30
0.0
 11
170.7155378432
 21
244.5593341781
 31
0.0
  0
LINE
  5
1E6
100
AcDbEntity
  8
2654_4 RIEGELZAPFEN
390
0
100
AcDbLine
 10
170.7155378432
 20
244.5593341781
 30
0.0
 11
167.7155378432
 21
244.5593341781
 31
0.0
  0
LINE
  5
1E7
100
AcDbEntity
  8
2654_4 RIEGELZAPFEN
390
0
100
AcDbLine
 10
164.7155378432
 20
237.5593341781
 30
0.0
 11
164.7155378432
 21
254.5593341781
 31
0.0
  0
LINE
  5
1E8
100
AcDbEntity
  8
2654_4 RIEGELZAPFEN
390
0
100
AcDbLine
 10
167.7155378432
 20
237.5593341781
 30
0.0
 11
164.7155378432
 21
237.5593341781
 31
0.0
  0
LINE
  5
1E9
100
AcDbEntity
  8
2654_4 RIEGELZAPFEN
390
0
  6
DASHED
100
AcDbLine
 10
165.7155378432
 20
254.5593341781
 30
0.0
 11
165.7155378432
 21
237.5593341781
 31
0.0
  0
LINE
  5
1EA
100
AcDbEntity
  8
2654_4 RIEGELZAPFEN
390
0
  6
DASHED
100
AcDbLine
 10
169.7155378432
 20
254.5593341781
 30
0.0
 11
169.7155378432
 21
244.5593341781
 31
0.0
  0
LINE
  5
1EB
100
AcDbEntity
  8
2654_1 RAHMEN
390
0
100
AcDbLine
 10
93.765398952
 20
236.2139240774
 30
0.0
 11
95.765398952
 21
236.2139240774
 31
0.0
  0
LINE
  5
1EC
100
AcDbEntity
  8
2654_9 RIEGELSCHIEBER
390
0
100
AcDbLine
 10
57.32953125
 20
131.6080504309
 30
0.0
 11
57.32953125
 21
92.1059527558
 31
0.0
  0
LINE
  5
1ED
100
AcDbEntity
  8
2654_9 RIEGELSCHIEBER
390
0
100
AcDbLine
 10
48.32953125
 20
131.6080504309
 30
0.0
 11
48.32953125
 21
46.6080504309
 31
0.0
  0
LINE
  5
1EE
100
AcDbEntity
  8
2654_9 RIEGELSCHIEBER
390
0
  6
DASHED
100
AcDbLine
 10
50.32953125
 20
46.6080504309
 30
0.0
 11
50.32953125
 21
131.6080504309
 31
0.0
  0
LINE
  5
1EF
100
AcDbEntity
  8
2654_7 STELLSCHIEBER
390
0
100
AcDbLine
 10
50.32953125
 20
197.6048419896
 30
0.0
 11
48.32953125
 21
197.6048419896
 31
0.0
  0
LINE
  5
1F0
100
AcDbEntity
  8
2654_7 STELLSCHIEBER
390
0
100
AcDbLine
 10
48.32953125
 20
203.6048419896
 30
0.0
 11
50.32953125
 21
203.6048419896
 31
0.0
  0
LINE
  5
1F1
100
AcDbEntity
  8
2654_7 STELLSCHIEBER
390
0
  6
DASHED
100
AcDbLine
 10
50.32953125
 20
203.6048419896
 30
0.0
 11
50.32953125
 21
228.4839530877
 31
0.0
  0
LINE
  5
1F2
100
AcDbEntity
  8
2654_1 RAHMEN
390
0
100
AcDbLine
 10
99.6653989507
 20
235.834812979
 30
0.0
 11
99.6653989507
 21
223.834812979
 31
0.0
  0
LINE
  5
1F3
100
AcDbEntity
  8
2654_1 RAHMEN
390
0
100
AcDbLine
 10
102.6653989507
 20
223.834812979
 30
0.0
 11
102.6653989507
 21
235.834812979
 31
0.0
  0
LINE
  5
1F4
100
AcDbEntity
  8
2654_7 STELLSCHIEBER
390
0
100
AcDbLine
 10
46.32953125
 20
197.6048419896
 30
0.0
 11
39.3302320995
 21
197.6048419896
 31
0.0
  0
LINE
  5
1F5
100
AcDbEntity
  8
2654_7 STELLSCHIEBER
390
0
100
AcDbLine
 10
39.3302320995
 20
203.6048419896
 30
0.0
 11
46.32953125
 21
203.6048419896
 31
0.0
  0
LINE
  5
1F6
100
AcDbEntity
  8
2654_7 STELLSCHIEBER
390
0
100
AcDbLine
 10
39.3302320995
 20
197.6048419896
 30
0.0
 11
39.3302320995
 21
192.2371699384
 31
0.0
  0
LINE
  5
1F7
100
AcDbEntity
  8
2654_9 RIEGELSCHIEBER
390
0
100
AcDbLine
 10
48.32953125
 20
46.6080504309
 30
0.0
 11
48.32953125
 21
131.6080504309
 31
0.0
  0
LINE
  5
1F8
100
AcDbEntity
  8
2654_9 RIEGELSCHIEBER
390
0
  6
DASHED
100
AcDbLine
 10
46.32953125
 20
46.6080504309
 30
0.0
 11
46.32953125
 21
131.6080504309
 31
0.0
  0
LINE
  5
1F9
100
AcDbEntity
  8
2654_9 RIEGELSCHIEBER
390
0
100
AcDbLine
 10
53.32953125
 20
92.1059527558
 30
0.0
 11
53.32953125
 21
82.1059527558
 31
0.0
  0
LINE
  5
1FA
100
AcDbEntity
  8
2654_9 RIEGELSCHIEBER
390
0
100
AcDbLine
 10
57.32953125
 20
92.1059527558
 30
0.0
 11
53.32953125
 21
92.1059527558
 31
0.0
  0
LINE
  5
1FB
100
AcDbEntity
  8
2654_9 RIEGELSCHIEBER
390
0
100
AcDbLine
 10
57.32953125
 20
82.1059527558
 30
0.0
 11
53.32953125
 21
82.1059527558
 31
0.0
  0
LINE
  5
1FC
100
AcDbEntity
  8
2654_9 RIEGELSCHIEBER
390
0
100
AcDbLine
 10
57.32953125
 20
82.1059527558
 30
0.0
 11
57.32953125
 21
46.6080504309
 31
0.0
  0
LINE
  5
1FD
100
AcDbEntity
  8
2654_4 RIEGELZAPFEN
390
0
  6
DASHED
100
AcDbLine
 10
167.7155378432
 20
244.5593341781
 30
0.0
 11
164.7155378432
 21
244.5593341781
 31
0.0
  0
LINE
  5
1FE
100
AcDbEntity
  8
2654_4 RIEGELZAPFEN
390
0
  6
DASHED
100
AcDbLine
 10
170.7155378432
 20
250.0593341781
 30
0.0
 11
164.7155378432
 21
250.0593341781
 31
0.0
  0
CIRCLE
  5
1FF
100
AcDbEntity
  8
2654_2P
390
0
100
AcDbCircle
 10
170.4565233896
 20
189.5407073658
 30
0.0
 40
1.25
  0
CIRCLE
  5
200
100
AcDbEntity
  8
2654_2P
390
0
100
AcDbCircle
 10
185.4565233896
 20
189.5407073658
 30
0.0
 40
1.25
  0
CIRCLE
  5
201
100
AcDbEntity
  8
2654_2P
390
0
100
AcDbCircle
 10
190.9469044463
 20
184.0503263091
 30
0.0
 40
1.25
  0
CIRCLE
  5
202
100
AcDbEntity
  8
2654_2P
390
0
100
AcDbCircle
 10
190.9469044463
 20
169.050326309
 30
0.0
 40
1.25
  0
CIRCLE
  5
203
100
AcDbEntity
  8
2654_2P
390
0
100
AcDbCircle
 10
185.4565233896
 20
163.5599452522
 30
0.0
 40
1.25
  0
CIRCLE
  5
204
100
AcDbEntity
  8
2654_2P
390
0
100
AcDbCircle
 10
170.4565233896
 20
163.5599452522
 30
0.0
 40
1.25
  0
CIRCLE
  5
205
100
AcDbEntity
  8
2654_2P
390
0
100
AcDbCircle
 10
164.9661423328
 20
184.050326309
 30
0.0
 40
1.25
  0
CIRCLE
  5
206
100
AcDbEntity
  8
2654_2P
390
0
100
AcDbCircle
 10
164.100500026
 20
168.5505474903
 30
0.0
 40
1.25
  0
CIRCLE
  5
207
100
AcDbEntity
  8
2654_2P
390
0
100
AcDbCircle
 10
177.9565233895
 20
176.5503263091
 30
0.0
 40
1.25
  0
CIRCLE
  5
208
100
AcDbEntity
  8
2654_7R
390
0
100
AcDbCircle
 10
52.57953125
 20
200.6048419896
 30
0.0
 40
1.25
  0
CIRCLE
  5
209
100
AcDbEntity
  8
2654_1P
390
0
100
AcDbCircle
 10
112.2661330558
 20
219.2139240773
 30
0.0
 40
1.25
  0
CIRCLE
  5
20A
100
AcDbEntity
  8
2654_1P
390
0
100
AcDbCircle
 10
112.2661330558
 20
263.2139240772
 30
0.0
 40
1.25
  0
ARC
  5
20B
100
AcDbEntity
  8
2654_1 RAHMEN
390
0
100
AcDbCircle
 10
101.1653989507
 20
235.834812979
 30
0.0
 40
1.5
100
AcDbArc
 50
0.0
 51
180.0
  0
ARC
  5
20C
100
AcDbEntity
  8
2654_1 RAHMEN
390
0
100
AcDbCircle
 10
101.1653989507
 20
223.834812979
 30
0.0
 40
1.5
100
AcDbArc
 50
180.0
 51
360.0
  0
LINE
  5
20D
100
AcDbEntity
  8
2654_7 STELLSCHIEBER
390
0
  6
DASHED
100
AcDbLine
 10
46.32953125
 20
199.3548419896
 30
0.0
 11
48.32953125
 21
199.3548419896
 31
0.0
  0
LINE
  5
20E
100
AcDbEntity
  8
2654_7 STELLSCHIEBER
390
0
  6
DASHED
100
AcDbLine
 10
46.32953125
 20
201.8548419896
 30
0.0
 11
48.32953125
 21
201.8548419896
 31
0.0
  0
LINE
  5
20F
100
AcDbEntity
  8
2654_9 RIEGELSCHIEBER
390
0
100
AcDbLine
 10
39.32953125
 20
76.6110648608
 30
0.0
 11
45.07953125
 21
76.6110648608
 31
0.0
  0
LINE
  5
210
100
AcDbEntity
  8
2654_9 RIEGELSCHIEBER
390
0
100
AcDbLine
 10
39.32953125
 20
97.6008406508
 30
0.0
 11
45.07953125
 21
97.6008406508
 31
0.0
  0
LINE
  5
211
100
AcDbEntity
  8
2654_9 RIEGELSCHIEBER
390
0
100
AcDbLine
 10
39.32953125
 20
46.6080504309
 30
0.0
 11
48.32953125
 21
46.6080504309
 31
0.0
  0
LINE
  5
212
100
AcDbEntity
  8
2654_9 RIEGELSCHIEBER
390
0
100
AcDbLine
 10
39.32953125
 20
131.6080504309
 30
0.0
 11
48.32953125
 21
131.6080504309
 31
0.0
  0
LINE
  5
213
100
AcDbEntity
  8
2654_9 RIEGELSCHIEBER
390
0
100
AcDbLine
 10
39.32953125
 20
76.6110648608
 30
0.0
 11
39.32953125
 21
46.6080504309
 31
0.0
  0
LINE
  5
214
100
AcDbEntity
  8
2654_3 STELLHEBEL
390
0
100
AcDbLine
 10
40.5854997521
 20
266.274625891
 30
0.0
 11
41.4618358035
 21
265.98875
 31
0.0
  0
LINE
  5
215
100
AcDbEntity
  8
2654_3 STELLHEBEL
390
0
100
AcDbLine
 10
33.32953125
 20
270.48875
 30
0.0
 11
48.32953125
 21
270.48875
 31
0.0
  0
LINE
  5
216
100
AcDbEntity
  8
2654_3 STELLHEBEL
390
0
100
AcDbLine
 10
40.5854997522
 20
263.702874109
 30
0.0
 11
41.4618358035
 21
263.98875
 31
0.0
  0
LINE
  5
217
100
AcDbEntity
  8
2654_3 STELLHEBEL
390
0
100
AcDbLine
 10
41.6216472224
 20
255.48875
 30
0.0
 11
33.32953125
 21
262.7816361465
 31
0.0
  0
LINE
  5
218
100
AcDbEntity
  8
2654_3 STELLHEBEL
390
0
100
AcDbLine
 10
33.32953125
 20
262.7816361465
 30
0.0
 11
33.32953125
 21
270.48875
 31
0.0
  0
LINE
  5
219
100
AcDbEntity
  8
2654_3 STELLHEBEL
390
0
  6
DASHED
100
AcDbLine
 10
46.32953125
 20
255.48875
 30
0.0
 11
46.32953125
 21
270.48875
 31
0.0
  0
LINE
  5
21A
100
AcDbEntity
  8
2654_3 STELLHEBEL
390
0
100
AcDbLine
 10
41.6216472224
 20
255.48875
 30
0.0
 11
48.32953125
 21
255.48875
 31
0.0
  0
LINE
  5
21B
100
AcDbEntity
  8
2654_3 STELLHEBEL
390
0
100
AcDbLine
 10
48.32953125
 20
255.48875
 30
0.0
 11
48.32953125
 21
270.48875
 31
0.0
  0
LINE
  5
21C
100
AcDbEntity
  8
2654_3 STELLHEBEL
390
0
100
AcDbLine
 10
41.4618358035
 20
265.98875
 30
0.0
 11
42.2899624938
 21
265.98875
 31
0.0
  0
LINE
  5
21D
100
AcDbEntity
  8
2654_3 STELLHEBEL
390
0
100
AcDbLine
 10
41.4618358035
 20
263.98875
 30
0.0
 11
42.2899624938
 21
263.98875
 31
0.0
  0
LINE
  5
21E
100
AcDbEntity
  8
2654_1 RAHMEN
390
0
100
AcDbLine
 10
95.7653989508
 20
236.2139240774
 30
0.0
 11
95.7653989508
 21
216.2139240772
 31
0.0
  0
LINE
  5
21F
100
AcDbEntity
  8
2654_1P
390
0
100
AcDbLine
 10
100.6653989507
 20
235.834812979
 30
0.0
 11
100.6653989507
 21
223.834812979
 31
0.0
  0
LINE
  5
220
100
AcDbEntity
  8
2654_1P
390
0
100
AcDbLine
 10
101.6653989507
 20
223.834812979
 30
0.0
 11
101.6653989507
 21
235.834812979
 31
0.0
  0
ARC
  5
221
100
AcDbEntity
  8
2654_1P
390
0
100
AcDbCircle
 10
101.1653989507
 20
235.834812979
 30
0.0
 40
0.5
100
AcDbArc
 50
0.0
 51
180.0
  0
ARC
  5
222
100
AcDbEntity
  8
2654_1P
390
0
100
AcDbCircle
 10
101.1653989507
 20
223.834812979
 30
0.0
 40
0.5
100
AcDbArc
 50
180.0
 51
360.0
  0
LINE
  5
223
100
AcDbEntity
  8
2654_1P
390
0
  6
DIVIDE
100
AcDbLine
 10
92.7653989508
 20
267.2139240772
 30
0.0
 11
123.7653989508
 21
267.2139240772
 31
0.0
  0
LINE
  5
224
100
AcDbEntity
  8
2654_1P
390
0
  6
DIVIDE
100
AcDbLine
 10
92.7653989508
 20
215.2139240772
 30
0.0
 11
123.7653989508
 21
215.2139240772
 31
0.0
  0
LINE
  5
225
100
AcDbEntity
  8
2654_1P
390
0
100
AcDbLine
 10
95.2653989508
 20
235.2139240774
 30
0.0
 11
95.2653989508
 21
216.2139240772
 31
0.0
  0
LINE
  5
226
100
AcDbEntity
  8
2654_1P
390
0
100
AcDbLine
 10
94.2653989508
 20
235.2139240774
 30
0.0
 11
94.2653989508
 21
215.7139240772
 31
0.0
  0
LINE
  5
227
100
AcDbEntity
  8
2654_1P
390
0
100
AcDbLine
 10
94.2653989508
 20
235.2139240774
 30
0.0
 11
95.2653989508
 21
235.2139240774
 31
0.0
  0
LINE
  5
228
100
AcDbEntity
  8
2654_1P
390
0
  6
DASHED
100
AcDbLine
 10
123.7653989508
 20
267.2139240772
 30
0.0
 11
112.2661330558
 21
263.2139240772
 31
0.0
  0
LINE
  5
229
100
AcDbEntity
  8
2654_1P
390
0
  6
DASHED
100
AcDbLine
 10
112.2661330558
 20
263.2139240772
 30
0.0
 11
99.2646648457
 21
263.2139240772
 31
0.0
  0
LINE
  5
22A
100
AcDbEntity
  8
2654_1P
390
0
  6
DASHED
100
AcDbLine
 10
99.2646648457
 20
263.2139240772
 30
0.0
 11
93.2653989508
 21
241.7139240772
 31
0.0
  0
LINE
  5
22B
100
AcDbEntity
  8
2654_1P
390
0
  6
DASHED
100
AcDbLine
 10
124.2653989508
 20
240.7139240772
 30
0.0
 11
101.6653989507
 21
235.834812979
 31
0.0
  0
LINE
  5
22C
100
AcDbEntity
  8
2654_1P
390
0
  6
DASHED
100
AcDbLine
 10
112.2661330558
 20
219.2139240773
 30
0.0
 11
99.2646648457
 21
219.2139240773
 31
0.0
  0
LINE
  5
22D
100
AcDbEntity
  8
2654_1P
390
0
  6
DASHED
100
AcDbLine
 10
101.6653989507
 20
235.834812979
 30
0.0
 11
95.2653989508
 21
216.2139240772
 31
0.0
  0
LINE
  5
22E
100
AcDbEntity
  8
2654_1P
390
0
  6
DASHED
100
AcDbLine
 10
94.2653989508
 20
215.7139240772
 30
0.0
 11
99.2646648457
 21
219.2139240773
 31
0.0
  0
LINE
  5
22F
100
AcDbEntity
  8
2654_1P
390
0
  6
DASHED
100
AcDbLine
 10
112.2661330558
 20
219.2139240773
 30
0.0
 11
123.7653989508
 21
215.2139240772
 31
0.0
  0
LINE
  5
230
100
AcDbEntity
  8
2654_2P
390
0
  6
DASHED
100
AcDbLine
 10
170.4565233894
 20
189.5407073658
 30
0.0
 11
164.9661423328
 21
184.050326309
 31
0.0
  0
LINE
  5
231
100
AcDbEntity
  8
2654_2P
390
0
  6
DASHED
100
AcDbLine
 10
164.9661423328
 20
184.050326309
 30
0.0
 11
169.2962693516
 21
181.5503263091
 31
0.0
  0
LINE
  5
232
100
AcDbEntity
  8
2654_2P
390
0
  6
DASHED
100
AcDbLine
 10
169.2962693516
 20
181.5503263091
 30
0.0
 11
172.9565233894
 21
185.2105803469
 31
0.0
  0
LINE
  5
233
100
AcDbEntity
  8
2654_2P
390
0
  6
DASHED
100
AcDbLine
 10
172.9565233894
 20
185.2105803469
 30
0.0
 11
182.9565233895
 21
185.2105803469
 31
0.0
  0
LINE
  5
234
100
AcDbEntity
  8
2654_2P
390
0
  6
DASHED
100
AcDbLine
 10
182.9565233895
 20
185.2105803469
 30
0.0
 11
185.4565233896
 21
189.5407073658
 31
0.0
  0
LINE
  5
235
100
AcDbEntity
  8
2654_2P
390
0
  6
DASHED
100
AcDbLine
 10
185.4565233896
 20
189.5407073658
 30
0.0
 11
190.9469044463
 21
184.0503263091
 31
0.0
  0
LINE
  5
236
100
AcDbEntity
  8
2654_2P
390
0
  6
DASHED
100
AcDbLine
 10
190.9469044463
 20
184.0503263091
 30
0.0
 11
186.6167774273
 21
181.5503263091
 31
0.0
  0
LINE
  5
237
100
AcDbEntity
  8
2654_2P
390
0
  6
DASHED
100
AcDbLine
 10
186.6167774273
 20
171.550326309
 30
0.0
 11
190.9469044463
 21
169.050326309
 31
0.0
  0
LINE
  5
238
100
AcDbEntity
  8
2654_2P
390
0
  6
DASHED
100
AcDbLine
 10
190.9469044463
 20
169.050326309
 30
0.0
 11
185.4565233896
 21
163.5599452522
 31
0.0
  0
LINE
  5
239
100
AcDbEntity
  8
2654_2P
390
0
  6
DASHED
100
AcDbLine
 10
185.4565233896
 20
163.5599452522
 30
0.0
 11
182.9565233894
 21
167.8900722712
 31
0.0
  0
LINE
  5
23A
100
AcDbEntity
  8
2654_2P
390
0
  6
DASHED
100
AcDbLine
 10
182.9565233894
 20
167.8900722712
 30
0.0
 11
172.9565233894
 21
167.8900722713
 31
0.0
  0
LINE
  5
23B
100
AcDbEntity
  8
2654_2P
390
0
  6
DASHED
100
AcDbLine
 10
172.9565233894
 20
167.8900722713
 30
0.0
 11
164.100500026
 21
168.5505474903
 31
0.0
  0
LINE
  5
23C
100
AcDbEntity
  8
2654_2P
390
0
  6
DASHED
100
AcDbLine
 10
164.100500026
 20
168.5505474903
 30
0.0
 11
170.4565233895
 21
163.5599452523
 31
0.0
  0
ARC
  5
23D
100
AcDbEntity
  8
2654_2P
390
0
  6
DASHED
100
AcDbCircle
 10
185.299259267
 20
173.8323347026
 30
0.0
 40
7.8296391067
100
AcDbArc
 50
80.3125675713
 51
159.6874324286
  0
ARC
  5
23E
100
AcDbEntity
  8
2654_2P
390
0
  6
DASHED
100
AcDbCircle
 10
186.7522588888
 20
181.7849870838
 30
0.0
 40
10.2355574543
100
AcDbArc
 50
210.7584093646
 51
269.2415906346
  0
LINE
  5
23F
100
AcDbEntity
  8
2654_3 STELLHEBEL
390
0
  6
DASHED
100
AcDbLine
 10
50.32953125
 20
255.48875
 30
0.0
 11
50.32953125
 21
270.48875
 31
0.0
  0
LINE
  5
240
100
AcDbEntity
  8
2654_3 STELLHEBEL
390
0
100
AcDbLine
 10
58.32953125
 20
255.48875
 30
0.0
 11
58.32953125
 21
270.48875
 31
0.0
  0
LINE
  5
241
100
AcDbEntity
  8
2654_3 STELLHEBEL
390
0
100
AcDbLine
 10
48.32953125
 20
270.48875
 30
0.0
 11
58.32953125
 21
270.48875
 31
0.0
  0
LINE
  5
242
100
AcDbEntity
  8
2654_3 STELLHEBEL
390
0
100
AcDbLine
 10
58.32953125
 20
255.48875
 30
0.0
 11
48.32953125
 21
255.48875
 31
0.0
  0
LINE
  5
243
100
AcDbEntity
  8
MITTELLINIEN
390
0
100
AcDbLine
 10
33.32953125
 20
276.48875
 30
0.0
 11
33.32953125
 21
4.409426242
 31
0.0
  0
LINE
  5
244
100
AcDbEntity
  8
MITTELLINIEN
390
0
100
AcDbLine
 10
63.32953125
 20
276.48875
 30
0.0
 11
63.32953125
 21
5.3299347051
 31
0.0
  0
LINE
  5
245
100
AcDbEntity
  8
2654_3L
390
0
100
AcDbLine
 10
41.2444615668
 20
254.4887500003
 30
0.0
 11
32.6691164981
 21
262.0307351174
 31
0.0
  0
ARC
  5
246
100
AcDbEntity
  8
2654_3L
390
0
  6
DASHED
100
AcDbCircle
 10
31.1857045005
 20
258.1009327799
 30
0.0
 40
4.2004592091
100
AcDbArc
 50
300.6890872202
 51
429.3196062313
  0
ARC
  5
247
100
AcDbEntity
  8
2654_3L
390
0
  6
DASHED
100
AcDbCircle
 10
48.7987178749
 20
267.786692577
 30
0.0
 40
3.7316705713
100
AcDbArc
 50
97.2229713202
 51
228.5715707433
  0
CIRCLE
  5
248
100
AcDbEntity
  8
2654_3R
370
        25
390
0
  6
PHANTOM
100
AcDbCircle
 10
48.3295312499
 20
271.4887500018
 30
0.0
 40
0.5
  0
CIRCLE
  5
249
100
AcDbEntity
  8
2654_3R
370
        25
390
0
  6
PHANTOM
100
AcDbCircle
 10
48.32953125
 20
254.4887500018
 30
0.0
 40
1.0
  0
CIRCLE
  5
24A
100
AcDbEntity
  8
2654_3R
390
0
100
AcDbCircle
 10
56.32953125
 20
266.48875
 30
0.0
 40
1.25
  0
CIRCLE
  5
24B
100
AcDbEntity
  8
2654_3R
390
0
100
AcDbCircle
 10
54.82953125
 20
258.82875
 30
0.0
 40
1.25
  0
LINE
  5
24C
100
AcDbEntity
  8
2654_3R
390
0
  6
DASHED
100
AcDbLine
 10
63.3295312499
 20
271.48875
 30
0.0
 11
56.32953125
 21
266.48875
 31
0.0
  0
LINE
  5
24D
100
AcDbEntity
  8
2654_3R
390
0
  6
DASHED
100
AcDbLine
 10
56.32953125
 20
266.48875
 30
0.0
 11
53.32953125
 21
265.98875
 31
0.0
  0
LINE
  5
24E
100
AcDbEntity
  8
2654_3R
390
0
  6
DASHED
100
AcDbLine
 10
53.32953125
 20
265.98875
 30
0.0
 11
54.82953125
 21
258.82875
 31
0.0
  0
LINE
  5
24F
100
AcDbEntity
  8
2654_3R
390
0
  6
DASHED
100
AcDbLine
 10
54.82953125
 20
258.82875
 30
0.0
 11
63.32953125
 21
254.48875
 31
0.0
  0
LINE
  5
250
100
AcDbEntity
  8
2654_7L
390
0
100
AcDbLine
 10
38.3302320995
 20
228.4841555086
 30
0.0
 11
38.3302320995
 21
202.6048419896
 31
0.0
  0
LINE
  5
251
100
AcDbEntity
  8
2654_7L
390
0
100
AcDbLine
 10
38.3302320995
 20
202.6048419896
 30
0.0
 11
45.57953125
 21
202.6048419896
 31
0.0
  0
LINE
  5
252
100
AcDbEntity
  8
2654_7L
390
0
100
AcDbLine
 10
45.57953125
 20
198.6048419896
 30
0.0
 11
38.3302320995
 21
198.6048419896
 31
0.0
  0
LINE
  5
253
100
AcDbEntity
  8
2654_7L
390
0
100
AcDbLine
 10
38.3302320995
 20
191.2371699384
 30
0.0
 11
46.32953125
 21
191.2371699384
 31
0.0
  0
LINE
  5
254
100
AcDbEntity
  8
2654_7L
390
0
100
AcDbLine
 10
38.3302320995
 20
186.9871699384
 30
0.0
 11
46.32953125
 21
186.9871699384
 31
0.0
  0
LINE
  5
255
100
AcDbEntity
  8
2654_7L
390
0
100
AcDbLine
 10
38.3302320995
 20
198.6048419896
 30
0.0
 11
38.3302320995
 21
191.2371699384
 31
0.0
  0
LINE
  5
256
100
AcDbEntity
  8
2654_7L
390
0
100
AcDbLine
 10
38.3302320995
 20
186.9871699384
 30
0.0
 11
38.3302320995
 21
153.4841555086
 31
0.0
  0
LINE
  5
257
100
AcDbEntity
  8
2654_7R
390
0
100
AcDbLine
 10
58.32953125
 20
228.4839530877
 30
0.0
 11
58.32953125
 21
153.4841555086
 31
0.0
  0
LINE
  5
258
100
AcDbEntity
  8
2654_7R
390
0
100
AcDbLine
 10
53.9802653551
 20
218.9839530877
 30
0.0
 11
53.9802653551
 21
206.9839530877
 31
0.0
  0
LINE
  5
259
100
AcDbEntity
  8
2654_7R
390
0
100
AcDbLine
 10
54.9802653551
 20
206.9839530877
 30
0.0
 11
54.9802653551
 21
218.9839530877
 31
0.0
  0
ARC
  5
25A
100
AcDbEntity
  8
2654_7R
390
0
100
AcDbCircle
 10
54.4802653551
 20
218.9839530877
 30
0.0
 40
0.5
100
AcDbArc
 50
0.0
 51
180.0
  0
ARC
  5
25B
100
AcDbEntity
  8
2654_7R
390
0
100
AcDbCircle
 10
54.4802653551
 20
206.9839530877
 30
0.0
 40
0.5
100
AcDbArc
 50
180.0
 51
360.0
  0
LINE
  5
25C
100
AcDbEntity
  8
2654_7R
390
0
100
AcDbLine
 10
53.9802653551
 20
162.9841555086
 30
0.0
 11
53.9802653551
 21
174.9841555086
 31
0.0
  0
LINE
  5
25D
100
AcDbEntity
  8
2654_7R
390
0
100
AcDbLine
 10
54.9802653551
 20
162.9841555086
 30
0.0
 11
54.9802653551
 21
174.9841555086
 31
0.0
  0
ARC
  5
25E
100
AcDbEntity
  8
2654_7R
390
0
100
AcDbCircle
 10
54.4802653551
 20
162.9841555086
 30
0.0
 40
0.5
100
AcDbArc
 50
180.0
 51
360.0
  0
ARC
  5
25F
100
AcDbEntity
  8
2654_7R
390
0
100
AcDbCircle
 10
54.4802653551
 20
174.9841555086
 30
0.0
 40
0.5
100
AcDbArc
 50
0.0
 51
180.0
  0
LINE
  5
260
100
AcDbEntity
  8
2654_7R
390
0
100
AcDbLine
 10
52.32953125
 20
191.2298419894
 30
0.0
 11
47.82953125
 21
191.2298419894
 31
0.0
  0
LINE
  5
261
100
AcDbEntity
  8
2654_7R
390
0
100
AcDbLine
 10
52.32953125
 20
191.2298419894
 30
0.0
 11
52.32953125
 21
186.9798419894
 31
0.0
  0
LINE
  5
262
100
AcDbEntity
  8
2654_7R
390
0
100
AcDbLine
 10
47.82953125
 20
186.9798419894
 30
0.0
 11
52.32953125
 21
186.9798419894
 31
0.0
  0
LINE
  5
263
100
AcDbEntity
  8
2654_7R
390
0
  6
DASHED
100
AcDbLine
 10
63.32953125
 20
229.4841555086
 30
0.0
 11
54.4748816747
 21
225.4864177194
 31
0.0
  0
LINE
  5
264
100
AcDbEntity
  8
2654_7R
390
0
  6
DASHED
100
AcDbLine
 10
54.4748816747
 20
225.4864177194
 30
0.0
 11
58.32953125
 21
228.4839530877
 31
0.0
  0
LINE
  5
265
100
AcDbEntity
  8
2654_7R
390
0
  6
DASHED
100
AcDbLine
 10
58.32953125
 20
153.4841555086
 30
0.0
 11
54.4748816747
 21
156.4841555086
 31
0.0
  0
LINE
  5
266
100
AcDbEntity
  8
2654_7R
390
0
  6
DASHED
100
AcDbLine
 10
54.9802653551
 20
162.9841555086
 30
0.0
 11
54.4748816747
 21
156.4841555086
 31
0.0
  0
ARC
  5
267
100
AcDbEntity
  8
2654_7R
390
0
  6
DASHED
100
AcDbCircle
 10
74.3329128434
 20
181.8145657468
 30
0.0
 40
27.0020242676
100
AcDbArc
 50
168.9717957114
 51
224.216403124
  0
ARC
  5
268
100
AcDbEntity
  8
2654_7R
390
0
  6
DASHED
100
AcDbCircle
 10
38.3147859251
 20
201.9414796206
 30
0.0
 40
14.3272313913
100
AcDbArc
 50
311.6134824336
 51
354.6468913924
  0
LINE
  5
269
100
AcDbEntity
  8
2654_7R
390
0
  6
DASHED
100
AcDbLine
 10
52.57953125
 20
200.6048419896
 30
0.0
 11
53.9802653551
 21
206.9839530877
 31
0.0
  0
ARC
  5
26A
100
AcDbEntity
  8
2654_7R
390
0
  6
DASHED
100
AcDbCircle
 10
-159.6237216251
 20
142.2890554624
 30
0.0
 40
223.1862294869
100
AcDbArc
 50
2.6181702339
 51
16.8501478676
  0
LINE
  5
26B
100
AcDbEntity
  8
2654_7L
390
0
100
AcDbLine
 10
45.57953125
 20
202.6048419896
 30
0.0
 11
45.57953125
 21
198.6048419896
 31
0.0
  0
ARC
  5
26C
100
AcDbEntity
  8
2654_7L
390
0
100
AcDbCircle
 10
44.8359679904
 20
189.1121699384
 30
0.0
 40
2.5973748691
100
AcDbArc
 50
305.1015926284
 51
414.8984073716
  0
LINE
  5
26D
100
AcDbEntity
  8
2654_7L
390
0
  6
DASHED
100
AcDbLine
 10
38.3302320995
 20
153.4841555086
 30
0.0
 11
43.4748816747
 21
156.4843579295
 31
0.0
  0
LINE
  5
26E
100
AcDbEntity
  8
2654_7L
390
0
  6
DASHED
100
AcDbLine
 10
43.4748816747
 20
156.4843579295
 30
0.0
 11
48.32953125
 21
152.4841555086
 31
0.0
  0
LINE
  5
26F
100
AcDbEntity
  8
2654_7L
390
0
  6
DASHED
100
AcDbLine
 10
48.32953125
 20
229.4841555086
 30
0.0
 11
43.4748816747
 21
225.4866201403
 31
0.0
  0
LINE
  5
270
100
AcDbEntity
  8
2654_7L
390
0
  6
DASHED
100
AcDbLine
 10
43.4748816747
 20
225.4866201403
 30
0.0
 11
38.3302320995
 21
228.4841555086
 31
0.0
  0
LINE
  5
271
100
AcDbEntity
  8
2654_9 RIEGELSCHIEBER
390
0
100
AcDbLine
 10
48.4188304005
 20
93.110840649
 30
0.0
 11
48.4188304005
 21
131.6180504291
 31
0.0
  0
TEXT
  5
272
100
AcDbEntity
  8
2654_9R
390
0
100
AcDbText
 10
42.1519923738
 20
132.3035536484
 30
0.0
 40
2.0
  1
@2654.3L
 41
1.1351289117
  7
Arial
 11
42.1519923738
 21
134.3035536484
 31
0.0
100
AcDbText
 73
         3
  0
TEXT
  5
273
100
AcDbEntity
  8
2654_9L
390
0
100
AcDbText
 10
27.1519923738
 20
132.3035536484
 30
0.0
 40
2.0
  1
@2654.3L
 41
1.1351289117
  7
Arial
 11
27.1519923738
 21
134.3035536484
 31
0.0
100
AcDbText
 73
         3
  0
MTEXT
  5
274
100
AcDbEntity
  8
2654___ W-_ GSP-_ SIGNAL-ANTRIEB
390
0
100
AcDbMText
 10
28.4612706851
 20
125.3263953141
 30
0.0
 40
2.0
 41
0.0
 71
         5
 72
         1
  1
\W0.810845;>2654.9L\PM15x15x2\PT2 O2
  7
Arial
 73
         1
 44
0.66
  0
CIRCLE
  5
275
100
AcDbEntity
  8
2654_9L
370
        25
390
0
  6
PHANTOM
100
AcDbCircle
 10
33.4188304004
 20
132.6080504291
 30
0.0
 40
0.5
  0
CIRCLE
  5
276
100
AcDbEntity
  8
2654_9L
370
        25
390
0
  6
PHANTOM
100
AcDbCircle
 10
33.32953125
 20
45.6080504309
 30
0.0
 40
1.0
  0
CIRCLE
  5
277
100
AcDbEntity
  8
2654_9R
370
        25
390
0
  6
PHANTOM
100
AcDbCircle
 10
48.4188304004
 20
132.6080504291
 30
0.0
 40
0.5
  0
CIRCLE
  5
278
100
AcDbEntity
  8
2654_9R
370
        25
390
0
  6
PHANTOM
100
AcDbCircle
 10
48.32953125
 20
45.6080504309
 30
0.0
 40
1.0
  0
ARC
  5
279
100
AcDbEntity
  8
2654___ W-_ GSP-_ SIGNAL-ANTRIEB
390
0
  6
DASHDOT
100
AcDbCircle
 10
71.3215738532
 20
89.0691002006
 30
0.0
 40
57.725714792
100
AcDbArc
 50
131.0411335367
 51
228.8412466326
  0
LINE
  5
27A
100
AcDbEntity
  8
2654_9L
390
0
  6
DIVIDE
100
AcDbLine
 10
33.4188304004
 20
132.6080504291
 30
0.0
 11
48.4188304004
 21
132.6080504291
 31
0.0
  0
LINE
  5
27B
100
AcDbEntity
  8
2654_9L
390
0
  6
DIVIDE
100
AcDbLine
 10
48.32953125
 20
45.6080504309
 30
0.0
 11
33.32953125
 21
45.6080504291
 31
0.0
  0
LINE
  5
27C
100
AcDbEntity
  8
2654_9R
390
0
  6
DIVIDE
100
AcDbLine
 10
48.4188304004
 20
132.6080504291
 30
0.0
 11
63.4188304005
 21
132.6080504291
 31
0.0
  0
LINE
  5
27D
100
AcDbEntity
  8
2654_9R
390
0
  6
DIVIDE
100
AcDbLine
 10
48.32953125
 20
45.6080504309
 30
0.0
 11
63.32953125
 21
45.6080504309
 31
0.0
  0
LINE
  5
27E
100
AcDbEntity
  8
2654_9L
390
0
100
AcDbLine
 10
38.32953125
 20
131.6080504309
 30
0.0
 11
38.32953125
 21
96.6008406508
 31
0.0
  0
LINE
  5
27F
100
AcDbEntity
  8
2654_9L
390
0
100
AcDbLine
 10
38.32953125
 20
96.6008406508
 30
0.0
 11
44.07953125
 21
96.6008406508
 31
0.0
  0
LINE
  5
280
100
AcDbEntity
  8
2654_9L
390
0
100
AcDbLine
 10
44.07953125
 20
96.6008406508
 30
0.0
 11
44.07953125
 21
91.8439803078
 31
0.0
  0
LINE
  5
281
100
AcDbEntity
  8
2654_9L
390
0
100
AcDbLine
 10
44.07953125
 20
77.6110648608
 30
0.0
 11
44.07953125
 21
82.3679252038
 31
0.0
  0
LINE
  5
282
100
AcDbEntity
  8
2654_9L
390
0
100
AcDbLine
 10
38.32953125
 20
77.6110648608
 30
0.0
 11
44.07953125
 21
77.6110648608
 31
0.0
  0
LINE
  5
283
100
AcDbEntity
  8
2654_9L
390
0
100
AcDbLine
 10
38.32953125
 20
77.6110648608
 30
0.0
 11
38.32953125
 21
46.6080504309
 31
0.0
  0
ARC
  5
284
100
AcDbEntity
  8
2654_9L
390
0
100
AcDbCircle
 10
35.7249692165
 20
87.1059527558
 30
0.0
 40
9.6045620335
100
AcDbArc
 50
330.441621323
 51
389.558378677
  0
ARC
  5
285
100
AcDbEntity
  8
2654_9 RIEGELSCHIEBER
390
0
100
AcDbCircle
 10
35.7249692165
 20
87.1059527558
 30
0.0
 40
10.6045620335
100
AcDbArc
 50
331.8999192609
 51
388.1000807391
  0
ARC
  5
286
100
AcDbEntity
  8
2654_9L
390
0
  6
DASHED
100
AcDbCircle
 10
43.0492275356
 20
43.3050132872
 30
0.0
 40
5.7606933091
100
AcDbArc
 50
23.5647207835
 51
145.0140929415
  0
ARC
  5
287
100
AcDbEntity
  8
2654_9L
390
0
  6
DASHED
100
AcDbCircle
 10
42.9811471102
 20
136.0734851646
 30
0.0
 40
6.4480723842
100
AcDbArc
 50
223.8301139524
 51
327.4906441362
  0
LINE
  5
288
100
AcDbEntity
  8
2654_9R
390
0
100
AcDbLine
 10
58.32953125
 20
131.6080504309
 30
0.0
 11
58.32953125
 21
91.1059527558
 31
0.0
  0
LINE
  5
289
100
AcDbEntity
  8
2654_9R
390
0
100
AcDbLine
 10
58.32953125
 20
91.1059527558
 30
0.0
 11
54.32953125
 21
91.1059527558
 31
0.0
  0
LINE
  5
28A
100
AcDbEntity
  8
2654_9R
390
0
100
AcDbLine
 10
54.32953125
 20
91.1059527558
 30
0.0
 11
54.32953125
 21
83.1059527558
 31
0.0
  0
LINE
  5
28B
100
AcDbEntity
  8
2654_9R
390
0
100
AcDbLine
 10
58.32953125
 20
83.1059527558
 30
0.0
 11
54.32953125
 21
83.1059527558
 31
0.0
  0
LINE
  5
28C
100
AcDbEntity
  8
2654_9R
390
0
100
AcDbLine
 10
58.32953125
 20
83.1059527558
 30
0.0
 11
58.32953125
 21
46.6080504309
 31
0.0
  0
LINE
  5
28D
100
AcDbEntity
  8
2654_9R
390
0
100
AcDbLine
 10
54.9802653551
 20
55.0937369119
 30
0.0
 11
54.9802653551
 21
79.0937369119
 31
0.0
  0
LINE
  5
28E
100
AcDbEntity
  8
2654_9R
390
0
100
AcDbLine
 10
53.9802653551
 20
55.0937369119
 30
0.0
 11
53.9802653551
 21
79.0937369119
 31
0.0
  0
ARC
  5
28F
100
AcDbEntity
  8
2654_9R
390
0
100
AcDbCircle
 10
54.4802653551
 20
79.0937369119
 30
0.0
 40
0.5
100
AcDbArc
 50
360.0
 51
540.0
  0
ARC
  5
290
100
AcDbEntity
  8
2654_9R
390
0
100
AcDbCircle
 10
54.4802653551
 20
55.0937369119
 30
0.0
 40
0.5
100
AcDbArc
 50
180.0
 51
360.0
  0
LINE
  5
291
100
AcDbEntity
  8
2654_9R
390
0
100
AcDbLine
 10
53.9802653551
 20
99.093534491
 30
0.0
 11
53.9802653551
 21
123.093534491
 31
0.0
  0
LINE
  5
292
100
AcDbEntity
  8
2654_9R
390
0
100
AcDbLine
 10
54.9802653551
 20
123.093534491
 30
0.0
 11
54.9802653551
 21
99.093534491
 31
0.0
  0
ARC
  5
293
100
AcDbEntity
  8
2654_9R
390
0
100
AcDbCircle
 10
54.4802653551
 20
99.093534491
 30
0.0
 40
0.5
100
AcDbArc
 50
180.0
 51
360.0
  0
ARC
  5
294
100
AcDbEntity
  8
2654_9R
390
0
100
AcDbCircle
 10
54.4802653551
 20
123.093534491
 30
0.0
 40
0.5
100
AcDbArc
 50
360.0
 51
540.0
  0
LINE
  5
295
100
AcDbEntity
  8
2654_9R
390
0
  6
DASHED
100
AcDbLine
 10
54.4856490355
 20
128.6005150626
 30
0.0
 11
58.32953125
 21
131.6080504309
 31
0.0
  0
LINE
  5
296
100
AcDbEntity
  8
2654_9R
390
0
  6
DASHED
100
AcDbLine
 10
54.4856490355
 20
128.6005150626
 30
0.0
 11
63.4188304005
 21
132.6080504291
 31
0.0
  0
LINE
  5
297
100
AcDbEntity
  8
2654_9R
390
0
  6
DASHED
100
AcDbLine
 10
58.32953125
 20
46.6080504309
 30
0.0
 11
54.4856490355
 21
49.5980504309
 31
0.0
  0
LINE
  5
298
100
AcDbEntity
  8
2654_9R
390
0
  6
DASHED
100
AcDbLine
 10
54.4856490355
 20
49.5980504309
 30
0.0
 11
53.9802653551
 21
55.0937369119
 31
0.0
  0
ARC
  5
299
100
AcDbEntity
  8
2654_9R
390
0
  6
DASHED
100
AcDbCircle
 10
136.3743284846
 20
77.0936357015
 30
0.0
 40
85.2805791827
100
AcDbArc
 50
165.050309716
 51
194.949690284
  0
ARC
  5
29A
100
AcDbEntity
  8
2654_9R
390
0
  6
DASHED
100
AcDbCircle
 10
-23.1141243324
 20
58.057562288
 30
0.0
 40
87.3355365011
100
AcDbArc
 50
351.8046811868
 51
388.0255785984
  0
TEXT
  5
29B
100
AcDbEntity
  8
BESCHRIFTUNG
390
0
100
AcDbText
 10
28.9168463798
 20
236.7772507834
 30
0.0
 40
3.0
  1
2654.7L,R
 41
1.1351032399
  7
Arial
 11
28.9168463798
 21
239.7772507834
 31
0.0
100
AcDbText
 73
         3
  0
TEXT
  5
29C
100
AcDbEntity
  8
BESCHRIFTUNG
390
0
100
AcDbText
 10
28.9168463798
 20
139.2017820334
 30
0.0
 40
3.0
  1
2654.9L,R
 41
1.1351032223
  7
Arial
 11
28.9168463798
 21
142.2017820334
 31
0.0
100
AcDbText
 73
         3
  0
LINE
  5
29D
100
AcDbEntity
  8
2654_5P
390
0
  6
DIVIDE
100
AcDbLine
 10
164.7155378432
 20
255.5593341781
 30
0.0
 11
171.7155378432
 21
255.5593341782
 31
0.0
  0
LINE
  5
29E
100
AcDbEntity
  8
2654_5P
390
0
  6
DIVIDE
100
AcDbLine
 10
165.2155378432
 20
237.5593341781
 30
0.0
 11
165.2155378432
 21
243.5593341781
 31
0.0
  0
LINE
  5
29F
100
AcDbEntity
  8
2654_5P
390
0
  6
DIVIDE
100
AcDbLine
 10
165.2155378432
 20
243.5593341781
 30
0.0
 11
170.2155378432
 21
243.5593341781
 31
0.0
  0
LINE
  5
2A0
100
AcDbEntity
  8
2654_5P
390
0
  6
DIVIDE
100
AcDbLine
 10
170.2155378432
 20
243.5593341781
 30
0.0
 11
170.2155378432
 21
236.5593341781
 31
0.0
  0
LINE
  5
2A1
100
AcDbEntity
  8
2654_5P
390
0
  6
DIVIDE
100
AcDbLine
 10
170.2155378432
 20
236.5593341781
 30
0.0
 11
164.7155378432
 21
236.5593341781
 31
0.0
  0
LINE
  5
2A2
100
AcDbEntity
  8
2654_5P
390
0
  6
DASHED
100
AcDbLine
 10
167.7155378432
 20
241.0593341781
 30
0.0
 11
165.2155378432
 21
237.5593341781
 31
0.0
  0
MTEXT
  5
2A3
100
AcDbEntity
  8
2654___ W-_ GSP-_ SIGNAL-ANTRIEB
390
0
100
AcDbMText
 10
159.2040166707
 20
249.1313141342
 30
0.0
 40
2.0
 41
0.0
 71
         5
 72
         1
  1
\W0.810845;>2654.9P\PMŘ6\PT6 O2
  7
Arial
 73
         1
 44
0.66
  0
INSERT
  5
2A4
100
AcDbEntity
  8
BEMAßUNG
390
0
100
AcDbBlockReference
  2
D197140736
 10
0.0
 20
0.0
 30
0.0
  0
CIRCLE
  5
2A5
100
AcDbEntity
  8
2654_5P
390
0
  6
PHANTOM
100
AcDbCircle
 10
164.7155378432
 20
255.5593341781
 30
0.0
 40
0.5
  0
CIRCLE
  5
2A6
100
AcDbEntity
  8
2654_5P
390
0
  6
PHANTOM
100
AcDbCircle
 10
164.7155378432
 20
236.5593341781
 30
0.0
 40
1.0
  0
ARC
  5
2A7
100
AcDbEntity
  8
2654___ W-_ GSP-_ SIGNAL-ANTRIEB
390
0
  6
DASHDOT
100
AcDbCircle
 10
173.0028995391
 20
246.0593341781
 30
0.0
 40
12.6067586587
100
AcDbArc
 50
131.099943452
 51
228.900056548
  0
CIRCLE
  5
2A8
100
AcDbEntity
  8
2654_5P
390
0
100
AcDbCircle
 10
167.7155378432
 20
241.0593341781
 30
0.0
 40
1.75
  0
TEXT
  5
2A9
100
AcDbEntity
  8
BESCHRIFTUNG
390
0
100
AcDbText
 10
151.8683751082
 20
266.8876941216
 30
0.0
 40
3.0
  1
2654.5P
 41
1.1350983196
  7
Arial
 11
151.8683751082
 21
269.8876941216
 31
0.0
100
AcDbText
 73
         3
  0
MTEXT
  5
2AA
100
AcDbEntity
  8
2654_5P
390
0
100
AcDbMText
 10
163.4611113472
 20
257.914546891
 30
0.0
 40
2.0
 41
0.0
 71
         5
 72
         1
  1
\W0.810867;MŘ6 F150\PT6 O2 S10 I1,2\PB1   D3
  7
Arial
 73
         1
 44
0.66
  0
TEXT
  5
2AB
100
AcDbEntity
  8
BESCHRIFTUNG
390
0
100
AcDbText
 10
148.5540429573
 20
205.6535873461
 30
0.0
 40
3.0
  1
2654.2P
 41
1.1350982978
  7
Arial
 11
148.5540429573
 21
208.6535873461
 31
0.0
100
AcDbText
 73
         3
  0
LINE
  5
2AC
100
AcDbEntity
  8
HILFSLINIEN
390
0
100
AcDbLine
 10
164.7155378432
 20
255.5593341781
 30
0.0
 11
170.7155378432
 21
255.5593341781
 31
0.0
  0
LINE
  5
2AD
100
AcDbEntity
  8
2654_5P
390
0
  6
CONTINUOUS
100
AcDbLine
 10
170.9655378432
 20
250.0593341781
 30
0.0
 11
170.9655378432
 21
244.5593341781
 31
0.0
  0
LINE
  5
2AE
100
AcDbEntity
  8
2654_5P
390
0
  6
DASHED
100
AcDbLine
 10
171.7155378432
 20
255.5593341782
 30
0.0
 11
170.9655378432
 21
250.0593341781
 31
0.0
  0
ARC
  5
2AF
100
AcDbEntity
  8
2654_5P
390
0
  6
DASHED
100
AcDbCircle
 10
169.6786689758
 20
242.4953552693
 30
0.0
 40
2.4322911869
100
AcDbArc
 50
216.1852927358
 51
418.0569000577
  0
LINE
  5
2B0
100
AcDbEntity
  8
2654_30L
390
0
  6
DIVIDE
100
AcDbLine
 10
33.32953125
 20
26.5896057474
 30
0.0
 11
48.32953125
 21
26.5896057474
 31
0.0
  0
LINE
  5
2B1
100
AcDbEntity
  8
2654_30R
390
0
  6
DIVIDE
100
AcDbLine
 10
48.32953125
 20
26.5896057474
 30
0.0
 11
63.3295312501
 21
26.5896057474
 31
0.0
  0
LINE
  5
2B2
100
AcDbEntity
  8
2654_30 GESTÄNGEWINKEL
390
0
100
AcDbLine
 10
33.3295312501
 20
25.5896057492
 30
0.0
 11
48.3295312501
 21
25.5896057492
 31
0.0
  0
LINE
  5
2B3
100
AcDbEntity
  8
2654_30 GESTÄNGEWINKEL
390
0
100
AcDbLine
 10
48.3295312501
 20
25.5896057474
 30
0.0
 11
63.3295312501
 21
25.5896057474
 31
0.0
  0
LINE
  5
2B4
100
AcDbEntity
  8
2654_30 GESTÄNGEWINKEL
390
0
100
AcDbLine
 10
48.3295312501
 20
19.5896057474
 30
0.0
 11
63.3295312501
 21
19.5896057474
 31
0.0
  0
LINE
  5
2B5
100
AcDbEntity
  8
2654_30 GESTÄNGEWINKEL
390
0
100
AcDbLine
 10
33.3295312501
 20
19.5896057492
 30
0.0
 11
48.3295312501
 21
19.5896057492
 31
0.0
  0
LINE
  5
2B6
100
AcDbEntity
  8
2654_30 GESTÄNGEWINKEL
390
0
100
AcDbLine
 10
33.3295312501
 20
19.5896057492
 30
0.0
 11
33.3295312501
 21
25.5896057492
 31
0.0
  0
LINE
  5
2B7
100
AcDbEntity
  8
2654_30 GESTÄNGEWINKEL
390
0
100
AcDbLine
 10
63.3295312501
 20
19.5896057474
 30
0.0
 11
63.3295312501
 21
25.5896057474
 31
0.0
  0
LINE
  5
2B8
100
AcDbEntity
  8
2654_30 GESTÄNGEWINKEL
390
0
  6
DASHED
100
AcDbLine
 10
46.3295312501
 20
19.5896057492
 30
0.0
 11
46.3295312501
 21
25.5896057492
 31
0.0
  0
LINE
  5
2B9
100
AcDbEntity
  8
2654_30 GESTÄNGEWINKEL
390
0
100
AcDbLine
 10
48.3295312501
 20
19.5896057492
 30
0.0
 11
48.3295312501
 21
25.5996057474
 31
0.0
  0
LINE
  5
2BA
100
AcDbEntity
  8
2654_30 GESTÄNGEWINKEL
390
0
  6
DASHED
100
AcDbLine
 10
50.3295312501
 20
19.5896057474
 30
0.0
 11
50.3295312501
 21
25.5996057474
 31
0.0
  0
LINE
  5
2BB
100
AcDbEntity
  8
2654_30 GESTÄNGEWINKEL
390
0
100
AcDbLine
 10
48.3295312501
 20
19.5896057492
 30
0.0
 11
48.3295312501
 21
25.5896057492
 31
0.0
  0
LINE
  5
2BC
100
AcDbEntity
  8
2654_30L
390
0
  6
DIVIDE
100
AcDbLine
 10
33.32953125
 20
18.5896057492
 30
0.0
 11
48.32953125
 21
18.5896057492
 31
0.0
  0
LINE
  5
2BD
100
AcDbEntity
  8
2654_30R
390
0
  6
DIVIDE
100
AcDbLine
 10
48.32953125
 20
18.5896057492
 30
0.0
 11
63.3295312501
 21
18.5896057492
 31
0.0
  0
LINE
  5
2BE
100
AcDbEntity
  8
2654_30R
390
0
  6
DASHED
100
AcDbLine
 10
63.3295312501
 20
26.5896057474
 30
0.0
 11
60.32953125
 21
22.5896057492
 31
0.0
  0
LINE
  5
2BF
100
AcDbEntity
  8
2654_30R
390
0
  6
DASHED
100
AcDbLine
 10
60.32953125
 20
22.5896057492
 30
0.0
 11
63.3295312501
 21
18.5896057492
 31
0.0
  0
LINE
  5
2C0
100
AcDbEntity
  8
2654_30 GESTÄNGEWINKEL
390
0
100
AcDbLine
 10
33.3295312501
 20
24.4896057492
 30
0.0
 11
48.3295312501
 21
24.4896057492
 31
0.0
  0
LINE
  5
2C1
100
AcDbEntity
  8
2654_30 GESTÄNGEWINKEL
390
0
100
AcDbLine
 10
33.3295312501
 20
20.6896057492
 30
0.0
 11
48.3295312501
 21
20.6896057492
 31
0.0
  0
LINE
  5
2C2
100
AcDbEntity
  8
2654_30L
390
0
  6
DASHED
100
AcDbLine
 10
48.32953125
 20
26.5896057474
 30
0.0
 11
48.8295312501
 21
23.4896057492
 31
0.0
  0
LINE
  5
2C3
100
AcDbEntity
  8
2654_30L
390
0
  6
DASHED
100
AcDbLine
 10
33.3295312501
 20
23.4896057492
 30
0.0
 11
36.32953125
 21
22.5896057492
 31
0.0
  0
LINE
  5
2C4
100
AcDbEntity
  8
2654_30L
390
0
  6
DIVIDE
100
AcDbLine
 10
48.8295312501
 20
23.4896057492
 30
0.0
 11
33.3295312501
 21
23.4896057492
 31
0.0
  0
LINE
  5
2C5
100
AcDbEntity
  8
2654_30L
390
0
  6
DIVIDE
100
AcDbLine
 10
48.8295312501
 20
21.6896057492
 30
0.0
 11
33.3295312501
 21
21.6896057492
 31
0.0
  0
LINE
  5
2C6
100
AcDbEntity
  8
2654_30L
390
0
  6
DASHED
100
AcDbLine
 10
36.32953125
 20
22.5896057492
 30
0.0
 11
33.3295312501
 21
21.6896057492
 31
0.0
  0
LINE
  5
2C7
100
AcDbEntity
  8
2654_30L
390
0
  6
DASHED
100
AcDbLine
 10
48.8295312501
 20
21.6896057492
 30
0.0
 11
43.3295312501
 21
22.5896057492
 31
0.0
  0
LINE
  5
2C8
100
AcDbEntity
  8
2654_30L
390
0
  6
DASHED
100
AcDbLine
 10
43.3295312501
 20
22.5896057492
 30
0.0
 11
48.32953125
 21
18.5896057492
 31
0.0
  0
TEXT
  5
2C9
100
AcDbEntity
  8
2654_30L
390
0
100
AcDbText
 10
26.5378869102
 20
26.8099152798
 30
0.0
 40
2.0
  1
@2654.3L
 41
1.1351289117
  7
Arial
 11
26.5378869102
 21
28.8099152798
 31
0.0
100
AcDbText
 73
         3
  0
TEXT
  5
2CA
100
AcDbEntity
  8
2654_30R
390
0
100
AcDbText
 10
41.5378869102
 20
26.8099152798
 30
0.0
 40
2.0
  1
@2654.3L
 41
1.1351289117
  7
Arial
 11
41.5378869102
 21
28.8099152798
 31
0.0
100
AcDbText
 73
         3
  0
MTEXT
  5
2CB
100
AcDbEntity
  8
2654___ W-_ GSP-_ SIGNAL-ANTRIEB
390
0
100
AcDbMText
 10
29.1800803708
 20
22.4057011712
 30
0.0
 40
2.0
 41
0.0
 71
         5
 72
         1
  1
\W0.810848;>2654.30L\PM15x15x2\PT2 O2
  7
Arial
 73
         1
 44
0.66
  0
CIRCLE
  5
2CC
100
AcDbEntity
  8
2654_30R
370
        25
390
0
  6
PHANTOM
100
AcDbCircle
 10
48.32953125
 20
26.5896057474
 30
0.0
 40
0.5
  0
CIRCLE
  5
2CD
100
AcDbEntity
  8
2654_30L
390
0
100
AcDbCircle
 10
36.32953125
 20
22.5896057492
 30
0.0
 40
1.25
  0
CIRCLE
  5
2CE
100
AcDbEntity
  8
2654_30L
390
0
100
AcDbCircle
 10
43.3295312501
 20
22.5896057492
 30
0.0
 40
1.25
  0
CIRCLE
  5
2CF
100
AcDbEntity
  8
2654_30R
390
0
100
AcDbCircle
 10
60.32953125
 20
22.5896057492
 30
0.0
 40
1.25
  0
CIRCLE
  5
2D0
100
AcDbEntity
  8
2654_30L
370
        25
390
0
  6
PHANTOM
100
AcDbCircle
 10
33.32953125
 20
26.5896057474
 30
0.0
 40
0.5
  0
ARC
  5
2D1
100
AcDbEntity
  8
2654___ W-_ GSP-_ SIGNAL-ANTRIEB
390
0
  6
DASHDOT
100
AcDbCircle
 10
36.8189467001
 20
22.5896057483
 30
0.0
 40
5.3081089077
100
AcDbArc
 50
131.099943452
 51
228.900056548
  0
CIRCLE
  5
2D2
100
AcDbEntity
  8
2654_30L
370
        25
390
0
  6
PHANTOM
100
AcDbCircle
 10
33.32953125
 20
18.5896057492
 30
0.0
 40
1.0
  0
CIRCLE
  5
2D3
100
AcDbEntity
  8
2654_30R
370
        25
390
0
  6
PHANTOM
100
AcDbCircle
 10
48.32953125
 20
18.5896057492
 30
0.0
 40
1.0
  0
TEXT
  5
2D4
100
AcDbEntity
  8
BESCHRIFTUNG
390
0
100
AcDbText
 10
25.958421661
 20
34.146147338
 30
0.0
 40
3.0
  1
2654.30L,R
 41
1.1351077638
  7
Arial
 11
25.958421661
 21
37.146147338
 31
0.0
100
AcDbText
 73
         3
  0
INSERT
  5
2D5
100
AcDbEntity
  8
BEMAßUNG
390
0
100
AcDbBlockReference
  2
D197140480
 10
0.0
 20
0.0
 30
0.0
  0
INSERT
  5
2D6
100
AcDbEntity
  8
BEMAßUNG
390
0
100
AcDbBlockReference
  2
D197154560
 10
0.0
 20
0.0
 30
0.0
  0
INSERT
  5
2D7
100
AcDbEntity
  8
BEMAßUNG
390
0
100
AcDbBlockReference
  2
D197154304
 10
0.0
 20
0.0
 30
0.0
  0
INSERT
  5
2D8
100
AcDbEntity
  8
BEMAßUNG
390
0
100
AcDbBlockReference
  2
D197154048
 10
0.0
 20
0.0
 30
0.0
  0
CIRCLE
  5
2D9
100
AcDbEntity
  8
HILFSLINIEN
390
0
100
AcDbCircle
 10
54.98
 20
162.984
 30
0.0
 40
10.0
  0
CIRCLE
  5
2DA
100
AcDbEntity
  8
HILFSLINIEN
390
0
100
AcDbCircle
 10
63.419
 20
132.608
 30
0.0
 40
7.5
  0
CIRCLE
  5
2DB
100
AcDbEntity
  8
HILFSLINIEN
390
0
100
AcDbCircle
 10
53.98
 20
55.094
 30
0.0
 40
5.0
  0
LINE
  5
2DC
100
AcDbEntity
  8
STANDARD
390
0
100
AcDbLine
 10
10.0
 20
5.0
 30
0.0
 11
10.0
 21
292.0
 31
0.0
  0
LINE
  5
2DD
100
AcDbEntity
  8
STANDARD
390
0
100
AcDbLine
 10
15.0
 20
287.0
 30
0.0
 11
205.0
 21
287.0
 31
0.0
  0
LINE
  5
2DE
100
AcDbEntity
  8
STANDARD
390
0
100
AcDbLine
 10
10.0
 20
292.0
 30
0.0
 11
15.0
 21
292.0
 31
0.0
  0
LINE
  5
2DF
100
AcDbEntity
  8
STANDARD
390
0
100
AcDbLine
 10
10.0
 20
5.0
 30
0.0
 11
15.0
 21
5.0
 31
0.0
  0
LINE
  5
2E0
100
AcDbEntity
  8
STANDARD
390
0
100
AcDbLine
 10
10.0
 20
244.1666666667
 30
0.0
 11
15.0
 21
244.1666666667
 31
0.0
  0
LINE
  5
2E1
100
AcDbEntity
  8
STANDARD
390
0
100
AcDbLine
 10
10.0
 20
196.3333333333
 30
0.0
 11
15.0
 21
196.3333333333
 31
0.0
  0
LINE
  5
2E2
100
AcDbEntity
  8
STANDARD
390
0
100
AcDbLine
 10
10.0
 20
148.5
 30
0.0
 11
15.0
 21
148.5
 31
0.0
  0
LINE
  5
2E3
100
AcDbEntity
  8
STANDARD
390
0
100
AcDbLine
 10
10.0
 20
100.6666666667
 30
0.0
 11
15.0
 21
100.6666666667
 31
0.0
  0
LINE
  5
2E4
100
AcDbEntity
  8
STANDARD
390
0
100
AcDbLine
 10
10.0
 20
52.8333333333
 30
0.0
 11
15.0
 21
52.8333333333
 31
0.0
  0
LINE
  5
2E5
100
AcDbEntity
  8
STANDARD
390
0
100
AcDbLine
 10
157.5
 20
292.0
 30
0.0
 11
157.5
 21
287.0
 31
0.0
  0
LINE
  5
2E6
100
AcDbEntity
  8
STANDARD
390
0
100
AcDbLine
 10
110.0
 20
292.0
 30
0.0
 11
110.0
 21
287.0
 31
0.0
  0
LINE
  5
2E7
100
AcDbEntity
  8
STANDARD
390
0
100
AcDbLine
 10
62.5
 20
292.0
 30
0.0
 11
62.5
 21
287.0
 31
0.0
  0
TEXT
  5
2E8
100
AcDbEntity
  8
STANDARD
390
0
100
AcDbText
 10
10.9491078691
 20
267.8641561278
 30
0.0
 40
2.23125
  1
A
 41
1.547986837
  7
Arial
 72
         1
 11
12.6760806841
 21
270.0954061278
 31
0.0
100
AcDbText
 73
         3
  0
TEXT
  5
2E9
100
AcDbEntity
  8
STANDARD
390
0
100
AcDbText
 10
10.9491074243
 20
220.0308227945
 30
0.0
 40
2.23125
  1
B
 41
1.5479872357
  7
Arial
 72
         1
 11
12.6760806841
 21
222.2620727945
 31
0.0
100
AcDbText
 73
         3
  0
TEXT
  5
2EA
100
AcDbEntity
  8
STANDARD
390
0
100
AcDbText
 10
10.9489779593
 20
172.1974894612
 30
0.0
 40
2.23125
  1
C
 41
1.5481032827
  7
Arial
 72
         1
 11
12.6760806841
 21
174.4287394612
 31
0.0
100
AcDbText
 73
         3
  0
TEXT
  5
2EB
100
AcDbEntity
  8
STANDARD
390
0
100
AcDbText
 10
10.9489771034
 20
124.3641561278
 30
0.0
 40
2.23125
  1
D
 41
1.54810405
  7
Arial
 72
         1
 11
12.6760806841
 21
126.5954061278
 31
0.0
100
AcDbText
 73
         3
  0
TEXT
  5
2EC
100
AcDbEntity
  8
STANDARD
390
0
100
AcDbText
 10
10.9491076096
 20
76.5308227945
 30
0.0
 40
2.23125
  1
E
 41
1.5479870696
  7
Arial
 72
         1
 11
12.6760806841
 21
78.7620727945
 31
0.0
100
AcDbText
 73
         3
  0
TEXT
  5
2ED
100
AcDbEntity
  8
STANDARD
390
0
100
AcDbText
 10
10.9493506612
 20
28.6974894612
 30
0.0
 40
2.23125
  1
F
 41
1.5477692083
  7
Arial
 72
         1
 11
12.6760806841
 21
30.9287394612
 31
0.0
100
AcDbText
 73
         3
  0
TEXT
  5
2EE
100
AcDbEntity
  8
STANDARD
390
0
100
AcDbText
 10
36.7048241449
 20
288.48599354
 30
0.0
 40
2.23125
  1
1
 41
1.5479225906
  7
Arial
 72
         1
 11
38.0
 21
290.71724354
 31
0.0
100
AcDbText
 73
         3
  0
TEXT
  5
2EF
100
AcDbEntity
  8
STANDARD
390
0
100
AcDbText
 10
83.7730999712
 20
288.48599354
 30
0.0
 40
2.23125
  1
2
 41
1.5479215945
  7
Arial
 72
         1
 11
85.5
 21
290.71724354
 31
0.0
100
AcDbText
 73
         3
  0
TEXT
  5
2F0
100
AcDbEntity
  8
STANDARD
390
0
100
AcDbText
 10
131.2730986376
 20
288.48599354
 30
0.0
 40
2.23125
  1
3
 41
1.5479227899
  7
Arial
 72
         1
 11
133.0
 21
290.71724354
 31
0.0
100
AcDbText
 73
         3
  0
TEXT
  5
2F1
100
AcDbEntity
  8
STANDARD
390
0
100
AcDbText
 10
178.7730988598
 20
288.48599354
 30
0.0
 40
2.23125
  1
4
 41
1.5479225906
  7
Arial
 72
         1
 11
180.5
 21
290.71724354
 31
0.0
100
AcDbText
 73
         3
  0
LINE
  5
2F2
100
AcDbEntity
  8
STANDARD
390
0
100
AcDbLine
 10
205.0
 20
292.0
 30
0.0
 11
205.0
 21
287.0
 31
0.0
  0
LINE
  5
2F3
100
AcDbEntity
  8
STANDARD
390
0
100
AcDbLine
 10
205.0
 20
5.0
 30
0.0
 11
15.0
 21
5.0
 31
0.0
  0
LINE
  5
2F4
100
AcDbEntity
  8
STANDARD
390
0
100
AcDbLine
 10
15.0
 20
5.0
 30
0.0
 11
15.0
 21
287.0
 31
0.0
  0
LINE
  5
2F5
100
AcDbEntity
  8
STANDARD
390
0
100
AcDbLine
 10
15.0
 20
292.0
 30
0.0
 11
205.0
 21
292.0
 31
0.0
  0
LINE
  5
2F6
100
AcDbEntity
  8
STANDARD
390
0
100
AcDbLine
 10
1.0
 20
1.0
 30
0.0
 11
1.0
 21
296.0
 31
0.0
  0
LINE
  5
2F7
100
AcDbEntity
  8
STANDARD
390
0
100
AcDbLine
 10
209.0
 20
1.0
 30
0.0
 11
1.0
 21
1.0
 31
0.0
  0
LINE
  5
2F8
100
AcDbEntity
  8
STANDARD
390
0
100
AcDbLine
 10
209.0
 20
296.0
 30
0.0
 11
209.0
 21
1.0
 31
0.0
  0
LINE
  5
2F9
100
AcDbEntity
  8
STANDARD
390
0
100
AcDbLine
 10
1.0
 20
296.0
 30
0.0
 11
209.0
 21
296.0
 31
0.0
  0
LINE
  5
2FA
100
AcDbEntity
  8
STANDARD
390
0
100
AcDbLine
 10
15.0
 20
287.0
 30
0.0
 11
15.0
 21
292.0
 31
0.0
  0
LINE
  5
2FB
100
AcDbEntity
  8
STANDARD
390
0
100
AcDbLine
 10
205.0
 20
287.0
 30
0.0
 11
205.0
 21
5.0
 31
0.0
  0
MTEXT
  5
2FC
100
AcDbEntity
  8
STANDARD
390
0
100
AcDbMText
 10
203.6063292805
 20
81.4222772661
 30
0.0
 40
1.59375
 41
0.0
 71
         1
 72
         1
  1

  7
Arial
 11
0.0
 21
-1.0
 31
0.0
 73
         1
 44
1.0352941176
  0
MTEXT
  5
2FD
100
AcDbEntity
  8
STANDARD
390
0
100
AcDbMText
 10
116.6968769253
 20
27.5871143065
 30
0.0
 40
1.59375
 41
0.0
 71
         1
 72
         1
  1

  7
Arial
 11
0.0
 21
-1.0
 31
0.0
 73
         1
 44
1.0352941176
  0
MTEXT
  5
2FE
100
AcDbEntity
  8
STANDARD
390
0
100
AcDbMText
 10
203.6063292805
 20
125.7560948498
 30
0.0
 40
1.59375
 41
0.0
 71
         1
 72
         1
  1

  7
Arial
 11
0.0
 21
-1.0
 31
0.0
 73
         1
 44
1.0352941176
  0
LINE
  5
2FF
100
AcDbEntity
  8
STANDARD
390
0
100
AcDbLine
 10
205.0
 20
182.1150997151
 30
0.0
 11
205.0
 21
5.1236467236
 31
0.0
  0
LINE
  5
300
100
AcDbEntity
  8
STANDARD
370
         0
390
0
100
AcDbLine
 10
127.305982906
 20
34.4
 30
0.0
 11
127.305982906
 21
5.0
 31
0.0
  0
LINE
  5
301
100
AcDbEntity
  8
STANDARD
370
         0
390
0
100
AcDbLine
 10
81.105982906
 20
34.4
 30
0.0
 11
205.0
 21
34.4
 31
0.0
  0
LINE
  5
302
100
AcDbEntity
  8
STANDARD
370
         0
390
0
100
AcDbLine
 10
81.105982906
 20
27.4
 30
0.0
 11
205.0
 21
27.4
 31
0.0
  0
LINE
  5
303
100
AcDbEntity
  8
STANDARD
370
         0
390
0
100
AcDbLine
 10
81.105982906
 20
12.0
 30
0.0
 11
205.0
 21
12.0
 31
0.0
  0
LINE
  5
304
100
AcDbEntity
  8
STANDARD
370
         0
390
0
100
AcDbLine
 10
81.105982906
 20
34.4
 30
0.0
 11
81.105982906
 21
5.0
 31
0.0
  0
LINE
  5
305
100
AcDbEntity
  8
STANDARD
370
         0
390
0
100
AcDbLine
 10
165.105982906
 20
34.4
 30
0.0
 11
165.105982906
 21
27.4
 31
0.0
  0
TEXT
  5
306
100
AcDbEntity
  8
BESCHRIFTUNG
390
0
100
AcDbText
 10
82.2010860399
 20
29.1386
 30
0.0
 40
3.3
  1
Stellwerk HMM
 41
1.3758039542
 51
15.0
  7
Arial
 11
82.2010860399
 21
32.4386
 31
0.0
100
AcDbText
 73
         3
  0
TEXT
  5
307
100
AcDbEntity
  8
BESCHRIFTUNG
390
0
100
AcDbText
 10
128.6210415954
 20
21.6601111111
 30
0.0
 40
3.3
  1
Weichen- und Gsp-Antrieb 
 41
1.1301934992
 51
15.0
  7
Arial
 11
128.6210415954
 21
24.9601111111
 31
0.0
100
AcDbText
 73
         3
  0
TEXT
  5
308
100
AcDbEntity
  8
BESCHRIFTUNG
390
0
100
AcDbText
 10
82.2010860399
 20
6.9230888889
 30
0.0
 40
3.3
  1
Dateiname
 41
1.1437088374
 51
15.0
  7
Arial
 11
82.2010860399
 21
10.2230888889
 31
0.0
100
AcDbText
 73
         3
  0
TEXT
  5
309
100
AcDbEntity
  8
BESCHRIFTUNG
390
0
100
AcDbText
 10
82.4210415954
 20
21.6601111111
 30
0.0
 40
3.3
  1
Bl. 2654 Pv
 41
1.1437155269
 51
15.0
  7
Arial
 11
82.4210415954
 21
24.9601111111
 31
0.0
100
AcDbText
 73
         3
  0
TEXT
  5
30A
100
AcDbEntity
  8
BESCHRIFTUNG
390
0
100
AcDbText
 10
166.2010860399
 20
29.1386
 30
0.0
 40
3.3
  1
Maßstab 1:1
 41
1.1437192123
 51
15.0
  7
Arial
 11
166.2010860399
 21
32.4386
 31
0.0
100
AcDbText
 73
         3
  0
ENDSEC
  0
SECTION
  2
OBJECTS
  0
DICTIONARY
  5
19
100
AcDbDictionary
280
         0
281
         1
  3
ACAD_GROUP
350
1A
  3
ACAD_MLINESTYLE
350
1B
  3
ACAD_LAYOUT
350
1E
  3
ACAD_PLOTSETTINGS
350
22
  3
ACAD_PLOTSTYLENAME
350
1F
  3
ACAD_WIPEOUT_VARS
350
23
  0
DICTIONARY
  5
1A
102
{ACAD_REACTORS
330
19
102
}
100
AcDbDictionary
280
         0
281
         1
  0
DICTIONARY
  5
1B
102
{ACAD_REACTORS
330
19
102
}
100
AcDbDictionary
280
         0
281
         1
  3
Standard
350
1C
  0
MLINESTYLE
  5
1C
102
{ACAD_REACTORS
330
1B
102
}
100
AcDbMlineStyle
  2
Standard
 70
         0
  3

 62
         0
 51
90.0
 52
90.0
 71
         2
 49
0.5
 62
       256
  6
ByLayer
 49
-0.5
 62
       256
  6
ByLayer
  0
ACDBDICTIONARYWDFLT
  5
1F
102
{ACAD_REACTORS
330
19
102
}
100
AcDbDictionary
281
         1
  3
Normal
350
1D
100
AcDbDictionaryWithDefault
340
1D
  0
ACDBPLACEHOLDER
  5
1D
102
{ACAD_REACTORS
330
1F
102
}
  0
LAYOUT
  5
20
102
{ACAD_REACTORS
330
1E
102
}
100
AcDbPlotSettings
  1

  2

  4

  6

 40
0.0
 41
0.0
 42
0.0
 43
0.0
 44
0.0
 45
0.0
 46
0.0
 47
0.0
 48
0.0
 49
0.0
140
0.0
141
0.0
142
1.0
143
1.0
 70
      1024
 72
         0
 73
         0
 74
         0
  7

 75
         0
147
1.0
148
0.0
149
0.0
100
AcDbLayout
  1
Model
 70
         0
 71
         0
 10
0.0
 20
0.0
 11
0.0
 21
0.0
 12
0.0
 22
0.0
 32
0.0
 14
0.0
 24
0.0
 34
0.0
 15
0.0
 25
0.0
 35
0.0
146
0.0
 13
0.0
 23
0.0
 33
0.0
 16
0.0
 26
0.0
 36
0.0
 17
0.0
 27
0.0
 37
0.0
 76
         0
330
A
331
0
345
0
346
0
  0
LAYOUT
  5
21
102
{ACAD_REACTORS
330
1E
102
}
100
AcDbPlotSettings
  1

  2

  4

  6

 40
0.0
 41
0.0
 42
0.0
 43
0.0
 44
0.0
 45
0.0
 46
0.0
 47
0.0
 48
0.0
 49
0.0
140
0.0
141
0.0
142
1.0
143
1.0
 70
         0
 72
         0
 73
         0
 74
         0
  7

 75
         0
147
1.0
148
0.0
149
0.0
100
AcDbLayout
  1
Layout1
 70
         0
 71
         0
 10
0.0
 20
0.0
 11
0.0
 21
0.0
 12
0.0
 22
0.0
 32
0.0
 14
0.0
 24
0.0
 34
0.0
 15
0.0
 25
0.0
 35
0.0
146
0.0
 13
0.0
 23
0.0
 33
0.0
 16
0.0
 26
0.0
 36
0.0
 17
0.0
 27
0.0
 37
0.0
 76
         0
330
B
331
0
345
0
346
0
  0
DICTIONARY
  5
1E
102
{ACAD_REACTORS
330
19
102
}
100
AcDbDictionary
280
         0
281
         1
  3
Layout1
350
21
  3
Model
350
20
  0
DICTIONARY
  5
22
102
{ACAD_REACTORS
330
19
102
}
100
AcDbDictionary
280
         0
281
         1
  0
WIPEOUTVARIABLES
  5
23
100
AcDbWipeoutVariables
 70
         1
  0
ENDSEC
  0
EOF
