  0
SECTION
  2
HEADER
  9
$ACADVER
  1
AC1015
  9
$ACADMAINTVER
 70
         6
  9
$DWGCODEPAGE
  3
ANSI_1252
  9
$INSBASE
 10
0.0
 20
0.0
 30
0.0
  9
$EXTMIN
 10
-82.2212219238
 20
0.0
 30
0.0
  9
$EXTMAX
 10
210.0
 20
297.0
 30
0.0
  9
$LIMMIN
 10
-82.2212219238
 20
0.0
  9
$LIMMAX
 10
210.0
 20
297.0
  9
$ORTHOMODE
 70
         0
  9
$REGENMODE
 70
         1
  9
$FILLMODE
 70
         1
  9
$QTEXTMODE
 70
         0
  9
$MIRRTEXT
 70
         1
  9
$LTSCALE
 40
7.3055305481
  9
$ATTMODE
 70
         1
  9
$TEXTSIZE
 40
0.2
  9
$TRACEWID
 40
0.05
  9
$TEXTSTYLE
  7
Standard
  9
$CLAYER
  8
0
  9
$CELTYPE
  6
CONTINUOUS
  9
$CECOLOR
 62
       256
  9
$CELTSCALE
 40
1.0
  9
$DISPSILH
 70
         0
  9
$DIMSCALE
 40
1.0
  9
$DIMASZ
 40
0.18
  9
$DIMEXO
 40
0.0625
  9
$DIMDLI
 40
0.38
  9
$DIMRND
 40
0.0
  9
$DIMDLE
 40
0.0
  9
$DIMEXE
 40
0.18
  9
$DIMTP
 40
0.0
  9
$DIMTM
 40
0.0
  9
$DIMTXT
 40
3.0
  9
$DIMCEN
 40
0.09
  9
$DIMTSZ
 40
0.0
  9
$DIMTOL
 70
         0
  9
$DIMLIM
 70
         0
  9
$DIMTIH
 70
         1
  9
$DIMTOH
 70
         1
  9
$DIMSE1
 70
         0
  9
$DIMSE2
 70
         0
  9
$DIMTAD
 70
         1
  9
$DIMZIN
 70
         0
  9
$DIMBLK
  1

  9
$DIMASO
 70
         1
  9
$DIMSHO
 70
         1
  9
$DIMPOST
  1
<>
  9
$DIMAPOST
  1

  9
$DIMALT
 70
         0
  9
$DIMALTD
 70
         2
  9
$DIMALTF
 40
25.4
  9
$DIMLFAC
 40
1.0
  9
$DIMTOFL
 70
         0
  9
$DIMTVP
 40
0.0
  9
$DIMTIX
 70
         0
  9
$DIMSOXD
 70
         0
  9
$DIMSAH
 70
         0
  9
$DIMBLK1
  1

  9
$DIMBLK2
  1

  9
$DIMSTYLE
  2
Standard
  9
$DIMCLRD
 70
         0
  9
$DIMCLRE
 70
         0
  9
$DIMCLRT
 70
         0
  9
$DIMTFAC
 40
1.0
  9
$DIMGAP
 40
0.09
  9
$DIMJUST
 70
         0
  9
$DIMSD1
 70
         0
  9
$DIMSD2
 70
         0
  9
$DIMTOLJ
 70
         1
  9
$DIMTZIN
 70
         0
  9
$DIMALTZ
 70
         0
  9
$DIMALTTZ
 70
         0
  9
$DIMUPT
 70
         0
  9
$DIMDEC
 70
         4
  9
$DIMTDEC
 70
         4
  9
$DIMALTU
 70
         2
  9
$DIMALTTD
 70
         2
  9
$DIMTXSTY
  7
Standard
  9
$DIMAUNIT
 70
         0
  9
$DIMADEC
 70
         0
  9
$DIMALTRND
 40
0.0
  9
$DIMAZIN
 70
         0
  9
$DIMDSEP
 70
         0
  9
$DIMATFIT
 70
         3
  9
$DIMFRAC
 70
         0
  9
$DIMLDRBLK
  1

  9
$DIMLUNIT
 70
         2
  9
$DIMLWD
 70
         0
  9
$DIMLWE
 70
         0
  9
$DIMTMOVE
 70
         0
  9
$LUNITS
 70
         2
  9
$LUPREC
 70
         4
  9
$SKETCHINC
 40
0.1
  9
$FILLETRAD
 40
0.0
  9
$AUNITS
 70
         0
  9
$AUPREC
 70
         0
  9
$MENU
  1
acad
  9
$ELEVATION
 40
0.0
  9
$PELEVATION
 40
0.0
  9
$THICKNESS
 40
0.0
  9
$LIMCHECK
 70
         0
  9
$CHAMFERA
 40
0.0
  9
$CHAMFERB
 40
0.0
  9
$CHAMFERC
 40
0.0
  9
$CHAMFERD
 40
0.0
  9
$SKPOLY
 70
         0
  9
$TDCREATE
 40
0.000000000
  9
$TDUCREATE
 40
0.000000000
  9
$TDUPDATE
 40
0.000000000
  9
$TDUUPDATE
 40
0.000000000
  9
$TDINDWG
 40
0.0000000000
  9
$TDUSRTIMER
 40
0.0000000000
  9
$USRTIMER
 70
         1
  9
$ANGBASE
 50
0.0
  9
$ANGDIR
 70
         0
  9
$PDMODE
 70
         0
  9
$PDSIZE
 40
0.0
  9
$PLINEWID
 40
0.0
  9
$SPLFRAME
 70
         0
  9
$SPLINETYPE
 70
         6
  9
$SPLINESEGS
 70
         8
  9
$HANDSEED
  5
420
  9
$SURFTAB1
 70
         6
  9
$SURFTAB2
 70
         6
  9
$SURFTYPE
 70
         6
  9
$SURFU
 70
         6
  9
$SURFV
 70
         6
  9
$UCSBASE
  2

  9
$UCSNAME
  2

  9
$UCSORG
 10
0.0
 20
0.0
 30
0.0
  9
$UCSXDIR
 10
1.0
 20
0.0
 30
0.0
  9
$UCSYDIR
 10
0.0
 20
1.0
 30
0.0
  9
$UCSORTHOREF
  2

  9
$UCSORTHOVIEW
 70
         0
  9
$UCSORGTOP
 10
0.0
 20
0.0
 30
0.0
  9
$UCSORGBOTTOM
 10
0.0
 20
0.0
 30
0.0
  9
$UCSORGLEFT
 10
0.0
 20
0.0
 30
0.0
  9
$UCSORGRIGHT
 10
0.0
 20
0.0
 30
0.0
  9
$UCSORGFRONT
 10
0.0
 20
0.0
 30
0.0
  9
$UCSORGBACK
 10
0.0
 20
0.0
 30
0.0
  9
$PUCSBASE
  2

  9
$PUCSNAME
  2

  9
$PUCSORG
 10
0.0
 20
0.0
 30
0.0
  9
$PUCSXDIR
 10
1.0
 20
0.0
 30
0.0
  9
$PUCSYDIR
 10
0.0
 20
1.0
 30
0.0
  9
$PUCSORTHOREF
  2

  9
$PUCSORTHOVIEW
 70
         0
  9
$PUCSORGTOP
 10
0.0
 20
0.0
 30
0.0
  9
$PUCSORGBOTTOM
 10
0.0
 20
0.0
 30
0.0
  9
$PUCSORGLEFT
 10
0.0
 20
0.0
 30
0.0
  9
$PUCSORGRIGHT
 10
0.0
 20
0.0
 30
0.0
  9
$PUCSORGFRONT
 10
0.0
 20
0.0
 30
0.0
  9
$PUCSORGBACK
 10
0.0
 20
0.0
 30
0.0
  9
$USERI1
 70
         0
  9
$USERI2
 70
         0
  9
$USERI3
 70
         0
  9
$USERI4
 70
         0
  9
$USERI5
 70
         0
  9
$USERR1
 40
0.0
  9
$USERR2
 40
0.0
  9
$USERR3
 40
0.0
  9
$USERR4
 40
0.0
  9
$USERR5
 40
0.0
  9
$WORLDVIEW
 70
         1
  9
$SHADEDGE
 70
         3
  9
$SHADEDIF
 70
        70
  9
$TILEMODE
 70
         1
  9
$MAXACTVP
 70
        16
  9
$PINSBASE
 10
0.0
 20
0.0
 30
0.0
  9
$PLIMCHECK
 70
         0
  9
$PEXTMIN
 10
1.0000000000E+20
 20
1.0000000000E+20
 30
1.0000000000E+20
  9
$PEXTMAX
 10
-1.0000000000E+20
 20
-1.0000000000E+20
 30
-1.0000000000E+20
  9
$PLIMMIN
 10
0.0
 20
0.0
  9
$PLIMMAX
 10
12.0
 20
9.0
  9
$UNITMODE
 70
         0
  9
$VISRETAIN
 70
         0
  9
$PLINEGEN
 70
         1
  9
$PSLTSCALE
 70
         0
  9
$TREEDEPTH
 70
      3020
  9
$CMLSTYLE
  2
Standard
  9
$CMLJUST
 70
         0
  9
$CMLSCALE
 40
1.0
  9
$PROXYGRAPHICS
 70
         0
  9
$MEASUREMENT
 70
         1
  9
$CELWEIGHT
370
         0
  9
$ENDCAPS
280
         0
  9
$JOINSTYLE
280
         0
  9
$LWDISPLAY
290
         0
  9
$INSUNITS
 70
         0
  9
$HYPERLINKBASE
  1

  9
$STYLESHEET
  1

  9
$XEDIT
290
         1
  9
$CEPSNTYPE
380
         0
  9
$PSTYLEMODE
290
         1
  9
$FINGERPRINTGUID
  2

  9
$VERSIONGUID
  2

  9
$EXTNAMES
290
         1
  9
$PSVPSCALE
 40
0.0
  0
ENDSEC
  0
SECTION
  2
CLASSES
  0
CLASS
  1
LWPOLYLINE
  2
AcDbPolyline
  3
AutoCAD 2000
 90
        0
280
         0
281
         1
  0
CLASS
  1
IMAGE
  2
AcDbRasterImage
  3
ISM
 90
      127
280
         0
281
         1
  0
CLASS
  1
OLE2FRAME
  2
AcDbOle2Frame
  3
AutoCAD 2000
 90
        0
280
         0
281
         1
  0
CLASS
  1
HATCH
  2
AcDbHatch
  3
AutoCAD 2000
 90
        0
280
         0
281
         1
  0
CLASS
  1
DICTIONARYVAR
  2
AcDbDictionaryVar
  3
AutoCAD 2000
 90
        0
280
         0
281
         0
  0
CLASS
  1
RASTERVARIABLES
  2
AcDbRasterVariables
  3
ISM
 90
        0
280
         0
281
         0
  0
CLASS
  1
IMAGEDEF
  2
AcDbRasterImageDef
  3
ISM
 90
        0
280
         0
281
         0
  0
CLASS
  1
IMAGEDEF_REACTOR
  2
AcDbRasterImageDefReactor
  3
ISM
 90
        1
280
         0
281
         0
  0
CLASS
  1
IDBUFFER
  2
AcDbIdBuffer
  3
AutoCAD 2000
 90
        0
280
         0
281
         0
  0
CLASS
  1
SPATIAL_FILTER
  2
AcDbSpatialFilter
  3
AutoCAD 2000
 90
        0
280
         0
281
         0
  0
CLASS
  1
XRECORD
  2
AcDbXrecord
  3
AutoCAD 2000
 90
        0
280
         0
281
         0
  0
CLASS
  1
SORTENTSTABLE
  2
AcDbSortentsTable
  3
AutoCAD 2000
 90
        0
280
         0
281
         0
  0
CLASS
  1
LAYER_INDEX
  2
AcDbLayerIndex
  3
AutoCAD 2000
 90
        0
280
         0
281
         0
  0
CLASS
  1
SPATIAL_INDEX
  2
AcDbSpatialIndex
  3
AutoCAD 2000
 90
        0
280
         0
281
         0
  0
CLASS
  1
OBJECT_PTR
  2
CAseDLPNTableRecord
  3
"ASE-LPNTableRecord"
 90
        1
280
         0
281
         0
  0
CLASS
  1
LAYOUT
  2
AcDbLayout
  3
AutoCAD 2000
 90
        0
280
         0
281
         0
  0
CLASS
  1
PLOTSETTINGS
  2
AcDbPlotSettings
  3
AutoCAD 2000
 90
        0
280
         0
281
         0
  0
CLASS
  1
ACDBDICTIONARYWDFLT
  2
AcDbDictionaryWithDefault
  3
AutoCAD 2000
 90
        0
280
         0
281
         0
  0
CLASS
  1
ACDBPLACEHOLDER
  2
AcDbPlaceHolder
  3
AutoCAD 2000
 90
        0
280
         0
281
         0
  0
CLASS
  1
VBA_PROJECT
  2
AcDbVbaProject
  3
acadvba
 90
        0
280
         0
281
         0
  0
CLASS
  1
WIPEOUT
  2
AcDbWipeout
  3
WipeOut|AutoCAD Express Tool|expresstools@autodesk.com
 90
      127
280
         0
281
         1
  0
CLASS
  1
WIPEOUTVARIABLES
  2
AcDbWipeoutVariables
  3
WipeOut|AutoCAD Express Tool|expresstools@autodesk.com
 90
        0
280
         0
281
         0
  0
CLASS
  1
RTEXT
  2
RText
  3
RText|AutoCAD Express Tool|expresstools@autodesk.com
 90
        0
280
         0
281
         1
  0
CLASS
  1
ARCALIGNEDTEXT
  2
AcDbArcAlignedText
  3
ATEXT|AutoCAD Express Tool|expresstools@autodesk.com
 90
        0
280
         0
281
         1
  0
ENDSEC
  0
SECTION
  2
TABLES
  0
TABLE
  2
VPORT
  5
7
100
AcDbSymbolTable
 70
         1
  0
VPORT
  5
15
100
AcDbSymbolTableRecord
100
AcDbViewportTableRecord
  2
*ACTIVE
 70
         0
 10
0.0
 20
0.0
 11
1.0
 21
1.0
 12
105.0
 22
148.5
 13
0.0
 23
0.0
 14
1.0
 24
1.0
 15
0.0
 25
0.0
 16
0.0
 26
0.0
 36
1.0
 17
0.0
 27
0.0
 37
0.0
 40
231.2943892345
 41
1.0
 42
50.0
 43
0.0
 44
0.0
 50
0.0
 51
0.0
 71
         0
 72
       100
 73
         1
 74
         1
 75
         0
 76
         0
 77
         0
 78
         0
281
         0
 65
         0
110
0.0
120
0.0
130
0.0
111
1.0
121
0.0
131
0.0
112
0.0
122
1.0
132
0.0
345
0
346
0
 79
         0
146
0.0
  0
ENDTAB
  0
TABLE
  2
LTYPE
  5
4
100
AcDbSymbolTable
 70
        12
  0
LTYPE
  5
11
100
AcDbSymbolTableRecord
100
AcDbLinetypeTableRecord
  2
ByBlock
 70
        64
  3

 72
        65
 73
         0
 40
0.0
  0
LTYPE
  5
12
100
AcDbSymbolTableRecord
100
AcDbLinetypeTableRecord
  2
ByLayer
 70
        64
  3

 72
        65
 73
         0
 40
0.0
  0
LTYPE
  5
13
100
AcDbSymbolTableRecord
100
AcDbLinetypeTableRecord
  2
CONTINUOUS
 70
        64
  3
Solid Line
 72
        65
 73
         0
 40
0.0
  0
LTYPE
  5
24
100
AcDbSymbolTableRecord
100
AcDbLinetypeTableRecord
  2
DOT
 70
        64
  3
. . . . . . . . . . . . . . . . . . . . . . 
 72
        65
 73
         2
 40
0.25
 49
0.0
 74
         0
 49
-0.25
 74
         0
  0
LTYPE
  5
25
100
AcDbSymbolTableRecord
100
AcDbLinetypeTableRecord
  2
HIDDEN
 70
         0
  3
_ _ _ _ _ _ _ _ _ _ _ _ _ _ _ _ _ _ _ _ _ _ _
 72
        65
 73
         2
 40
0.375
 49
0.25
 74
         0
 49
-0.125
 74
         0
  0
LTYPE
  5
26
100
AcDbSymbolTableRecord
100
AcDbLinetypeTableRecord
  2
DASHDOT
 70
         0
  3
__ . __ . __ . __ . __ . __ . __ . __ . __ . __
 72
        65
 73
         4
 40
1.0
 49
0.5
 74
         0
 49
-0.25
 74
         0
 49
0.0
 74
         0
 49
-0.25
 74
         0
  0
LTYPE
  5
27
100
AcDbSymbolTableRecord
100
AcDbLinetypeTableRecord
  2
DIVIDE
 70
         0
  3
__ . . __ . . __ . . __ . . __ . . __ . . __
 72
        65
 73
         6
 40
1.25
 49
0.5
 74
         0
 49
-0.25
 74
         0
 49
0.0
 74
         0
 49
-0.25
 74
         0
 49
0.0
 74
         0
 49
-0.25
 74
         0
  0
LTYPE
  5
28
100
AcDbSymbolTableRecord
100
AcDbLinetypeTableRecord
  2
DASHED
 70
         0
  3
__ __ __ __ __ __ __ __ __ __ __ __ __ __ __
 72
        65
 73
         2
 40
0.75
 49
0.5
 74
         0
 49
-0.25
 74
         0
  0
LTYPE
  5
29
100
AcDbSymbolTableRecord
100
AcDbLinetypeTableRecord
  2
BORDER
 70
         0
  3
__ __ . __ __ . __ __ . __ __ . __ __ .
 72
        65
 73
         6
 40
1.75
 49
0.5
 74
         0
 49
-0.25
 74
         0
 49
0.5
 74
         0
 49
-0.25
 74
         0
 49
0.0
 74
         0
 49
-0.25
 74
         0
  0
LTYPE
  5
2A
100
AcDbSymbolTableRecord
100
AcDbLinetypeTableRecord
  2
CENTER
 70
         0
  3
____ _ ____ _ ____ _ ____ _ ____ _ ____
 72
        65
 73
         4
 40
2.0
 49
1.25
 74
         0
 49
-0.25
 74
         0
 49
0.25
 74
         0
 49
-0.25
 74
         0
  0
LTYPE
  5
2B
100
AcDbSymbolTableRecord
100
AcDbLinetypeTableRecord
  2
DOT2
 70
         0
  3
........................................
 72
        65
 73
         2
 40
0.125
 49
0.0
 74
         0
 49
-0.125
 74
         0
  0
LTYPE
  5
2C
100
AcDbSymbolTableRecord
100
AcDbLinetypeTableRecord
  2
PHANTOM
 70
         0
  3
______  __  __  ______  __  __  ______
 72
        65
 73
         6
 40
2.5
 49
1.25
 74
         0
 49
-0.25
 74
         0
 49
0.25
 74
         0
 49
-0.25
 74
         0
 49
0.25
 74
         0
 49
-0.25
 74
         0
  0
ENDTAB
  0
TABLE
  2
LAYER
  5
2
100
AcDbSymbolTable
 70
       157
  0
LAYER
  5
14
100
AcDbSymbolTableRecord
100
AcDbLayerTableRecord
  2
0
 70
         0
 62
         7
  6
CONTINUOUS
290
         1
370
        -3
390
1D
  0
LAYER
  5
33
100
AcDbSymbolTableRecord
100
AcDbLayerTableRecord
  2
BESCHRIFTUNG
 70
        64
 62
         7
  6
CONTINUOUS
290
         1
370
        25
390
1D
  0
LAYER
  5
34
100
AcDbSymbolTableRecord
100
AcDbLayerTableRecord
  2
SCHRAFFUR
 70
        64
 62
         7
  6
CONTINUOUS
290
         1
370
        25
390
1D
  0
LAYER
  5
35
100
AcDbSymbolTableRecord
100
AcDbLayerTableRecord
  2
MASSTEXTE
 70
        64
 62
       212
  6
CONTINUOUS
290
         1
370
        25
390
1D
  0
LAYER
  5
36
100
AcDbSymbolTableRecord
100
AcDbLayerTableRecord
  2
MASSLINIEN
 70
        64
 62
       172
  6
CONTINUOUS
290
         1
370
        25
390
1D
  0
LAYER
  5
37
100
AcDbSymbolTableRecord
100
AcDbLayerTableRecord
  2
MASSGRENZEN
 70
        64
 62
       172
  6
CONTINUOUS
290
         1
370
        25
390
1D
  0
LAYER
  5
38
100
AcDbSymbolTableRecord
100
AcDbLayerTableRecord
  2
TOLERANZEN
 70
        64
 62
       212
  6
CONTINUOUS
290
         1
370
         0
390
1D
  0
LAYER
  5
39
100
AcDbSymbolTableRecord
100
AcDbLayerTableRecord
  2
BEMAßUNG
 70
        64
 62
         7
  6
CONTINUOUS
290
         1
370
        25
390
1D
  0
LAYER
  5
3A
100
AcDbSymbolTableRecord
100
AcDbLayerTableRecord
  2
HILFSLINIEN
 70
        64
 62
         3
  6
CONTINUOUS
290
         1
370
         0
390
1D
  0
LAYER
  5
3B
100
AcDbSymbolTableRecord
100
AcDbLayerTableRecord
  2
MITTELLINIEN
 70
        64
 62
         5
  6
DASHDOT
290
         1
370
        25
390
1D
  0
LAYER
  5
3C
100
AcDbSymbolTableRecord
100
AcDbLayerTableRecord
  2
BESCHRIFTUNG00
 70
        64
 62
         7
  6
CONTINUOUS
290
         1
370
        25
390
1D
  0
LAYER
  5
3D
100
AcDbSymbolTableRecord
100
AcDbLayerTableRecord
  2
GEWINDELINIEN
 70
        64
 62
       212
  6
CONTINUOUS
290
         1
370
        25
390
1D
  0
LAYER
  5
3E
100
AcDbSymbolTableRecord
100
AcDbLayerTableRecord
  2
UNSICHTBARE
 70
        64
 62
        92
  6
DASHED
290
         1
370
        25
390
1D
  0
LAYER
  5
3F
100
AcDbSymbolTableRecord
100
AcDbLayerTableRecord
  2
VERDECKTE
 70
        64
 62
        92
  6
DASHED
290
         1
370
        25
390
1D
  0
LAYER
  5
40
100
AcDbSymbolTableRecord
100
AcDbLayerTableRecord
  2
LICHTKANTEN
 70
        64
 62
         8
  6
CONTINUOUS
290
         1
370
        25
390
1D
  0
LAYER
  5
41
100
AcDbSymbolTableRecord
100
AcDbLayerTableRecord
  2
SCHNITTVERLAUF
 70
        64
 62
        34
  6
DASHDOT
290
         1
370
        70
390
1D
  0
LAYER
  5
42
100
AcDbSymbolTableRecord
100
AcDbLayerTableRecord
  2
KENNZEICHNUNG
 70
        64
 62
         7
  6
CONTINUOUS
290
         1
370
         0
390
1D
  0
LAYER
  5
43
100
AcDbSymbolTableRecord
100
AcDbLayerTableRecord
  2
PFEILE
 70
        64
 62
         7
  6
CONTINUOUS
290
         1
370
        70
390
1D
  0
LAYER
  5
44
100
AcDbSymbolTableRecord
100
AcDbLayerTableRecord
  2
SCHNITTDARSTELLUNG
 70
        64
 62
         7
  6
CONTINUOUS
290
         1
370
         0
390
1D
  0
LAYER
  5
45
100
AcDbSymbolTableRecord
100
AcDbLayerTableRecord
  2
2650__ WEICHENBOCK
 70
        64
 62
         7
  6
CONTINUOUS
290
         1
370
         0
390
1D
  0
LAYER
  5
46
100
AcDbSymbolTableRecord
100
AcDbLayerTableRecord
  2
GLEIS
 70
        64
 62
        34
  6
CONTINUOUS
290
         1
370
         0
390
1D
  0
LAYER
  5
47
100
AcDbSymbolTableRecord
100
AcDbLayerTableRecord
  2
SPERRSCHUH ABGELEGT
 70
        64
 62
         7
  6
DASHED
290
         1
370
         0
390
1D
  0
LAYER
  5
48
100
AcDbSymbolTableRecord
100
AcDbLayerTableRecord
  2
SPERRSCHUH
 70
        64
 62
         7
  6
CONTINUOUS
290
         1
370
         0
390
1D
  0
LAYER
  5
49
100
AcDbSymbolTableRecord
100
AcDbLayerTableRecord
  2
SPERRSCHUHRAHMEN
 70
        64
 62
        94
  6
CONTINUOUS
290
         1
370
         0
390
1D
  0
LAYER
  5
4A
100
AcDbSymbolTableRecord
100
AcDbLayerTableRecord
  2
SPERRSCHUHANTRIEB
 70
        64
 62
         5
  6
CONTINUOUS
290
         1
370
         0
390
1D
  0
LAYER
  5
4B
100
AcDbSymbolTableRecord
100
AcDbLayerTableRecord
  2
2651__ SBW-GLEISSPERRSCHUH
 70
        64
 62
         7
  6
CONTINUOUS
290
         1
370
         0
390
1D
  0
LAYER
  5
4C
100
AcDbSymbolTableRecord
100
AcDbLayerTableRecord
  2
2655_1 RAHMEN
 70
        64
 62
         7
  6
CONTINUOUS
290
         1
370
        13
390
1D
  0
LAYER
  5
4D
100
AcDbSymbolTableRecord
100
AcDbLayerTableRecord
  2
2655_2 SCHIEBER UMGESTELLT
 70
        64
 62
       230
  6
DASHED
290
         1
370
        13
390
1D
  0
LAYER
  5
4E
100
AcDbSymbolTableRecord
100
AcDbLayerTableRecord
  2
2655_2 SCHIEBER
 70
        64
 62
       230
  6
CONTINUOUS
290
         1
370
        13
390
1D
  0
LAYER
  5
4F
100
AcDbSymbolTableRecord
100
AcDbLayerTableRecord
  2
2655_3 DREHHEBEL UMGESTELLT
 70
        64
 62
       150
  6
DASHED
290
         1
370
        13
390
1D
  0
LAYER
  5
50
100
AcDbSymbolTableRecord
100
AcDbLayerTableRecord
  2
2655_3 DREHHEBEL
 70
        64
 62
       150
  6
CONTINUOUS
290
         1
370
        13
390
1D
  0
LAYER
  5
51
100
AcDbSymbolTableRecord
100
AcDbLayerTableRecord
  2
2655_5 STELLHEBEL UMGESTELLT
 70
        64
 62
       172
  6
DASHED
290
         1
370
        18
390
1D
  0
LAYER
  5
52
100
AcDbSymbolTableRecord
100
AcDbLayerTableRecord
  2
2655_5 STELLHEBEL
 70
        64
 62
       172
  6
CONTINUOUS
290
         1
370
        13
390
1D
  0
LAYER
  5
53
100
AcDbSymbolTableRecord
100
AcDbLayerTableRecord
  2
2655_4 DRAHT
 70
        64
 62
       190
  6
CONTINUOUS
290
         1
370
        25
390
1D
  0
LAYER
  5
54
100
AcDbSymbolTableRecord
100
AcDbLayerTableRecord
  2
2655_6 STELLVERSTELLUNG UMGESTELLT
 70
        64
 62
       211
  6
DASHED
290
         1
370
        18
390
1D
  0
LAYER
  5
55
100
AcDbSymbolTableRecord
100
AcDbLayerTableRecord
  2
2655_6 STELLVERSTELLUNG
 70
        64
 62
       230
  6
CONTINUOUS
290
         1
370
        13
390
1D
  0
LAYER
  5
56
100
AcDbSymbolTableRecord
100
AcDbLayerTableRecord
  2
2655_8 STELLANSCHLAG UMGESTELLT
 70
        64
 62
       131
  6
DASHED
290
         1
370
        18
390
1D
  0
LAYER
  5
57
100
AcDbSymbolTableRecord
100
AcDbLayerTableRecord
  2
2655_8 STELLANSCHLAG
 70
        64
 62
         6
  6
CONTINUOUS
290
         1
370
        13
390
1D
  0
LAYER
  5
58
100
AcDbSymbolTableRecord
100
AcDbLayerTableRecord
  2
2655_9 RIEGELSCHIEBER LINKS
 70
        64
 62
       171
  6
DASHED
290
         1
370
        18
390
1D
  0
LAYER
  5
59
100
AcDbSymbolTableRecord
100
AcDbLayerTableRecord
  2
2655_9 RIEGELSCHIEBER RECHTS
 70
        64
 62
       171
  6
HIDDEN
290
         1
370
        18
390
1D
  0
LAYER
  5
5A
100
AcDbSymbolTableRecord
100
AcDbLayerTableRecord
  2
2655_9 RIEGELSCHIEBER
 70
        64
 62
       171
  6
CONTINUOUS
290
         1
370
        13
390
1D
  0
LAYER
  5
5B
100
AcDbSymbolTableRecord
100
AcDbLayerTableRecord
  2
2655_10 ZUNGENSCHIEBER UMGESTELLT
 70
        64
 62
       171
  6
DASHED
290
         1
370
        18
390
1D
  0
LAYER
  5
5C
100
AcDbSymbolTableRecord
100
AcDbLayerTableRecord
  2
2655_10 ZUNGENSCHIEBER
 70
        64
 62
       171
  6
CONTINUOUS
290
         1
370
        13
390
1D
  0
LAYER
  5
5D
100
AcDbSymbolTableRecord
100
AcDbLayerTableRecord
  2
2655_99 RAHMENLEHRE
 70
        64
 62
         7
  6
CONTINUOUS
290
         1
370
        13
390
1D
  0
LAYER
  5
5E
100
AcDbSymbolTableRecord
100
AcDbLayerTableRecord
  2
2655_11 VERRIEGELUNG UMGESTELLT
 70
        64
 62
       190
  6
DASHED
290
         1
370
        13
390
1D
  0
LAYER
  5
5F
100
AcDbSymbolTableRecord
100
AcDbLayerTableRecord
  2
2655_11 VERRIEGELUNG
 70
        64
 62
       190
  6
CONTINUOUS
290
         1
370
        13
390
1D
  0
LAYER
  5
60
100
AcDbSymbolTableRecord
100
AcDbLayerTableRecord
  2
2655_12 SIGNALPLATTE
 70
        64
 62
       172
  6
CONTINUOUS
290
         1
370
        13
390
1D
  0
LAYER
  5
61
100
AcDbSymbolTableRecord
100
AcDbLayerTableRecord
  2
2655__ WEICHENANTRIEB
 70
        64
 62
        14
  6
CONTINUOUS
290
         1
370
        13
390
1D
  0
LAYER
  5
62
100
AcDbSymbolTableRecord
100
AcDbLayerTableRecord
  2
2201_2___ HEBEL UMGESCHLAGEN
 70
        64
 62
        34
  6
DASHED
290
         1
370
        13
390
1D
  0
LAYER
  5
63
100
AcDbSymbolTableRecord
100
AcDbLayerTableRecord
  2
2201_2___ HEBEL
 70
        64
 62
        34
  6
CONTINUOUS
290
         1
370
        13
390
1D
  0
LAYER
  5
64
100
AcDbSymbolTableRecord
100
AcDbLayerTableRecord
  2
2201__
 70
        64
 62
         7
  6
CONTINUOUS
290
         1
370
         0
390
1D
  0
LAYER
  5
65
100
AcDbSymbolTableRecord
100
AcDbLayerTableRecord
  2
2653_1 RAHMEN
 70
        64
 62
         7
  6
CONTINUOUS
290
         1
370
        13
390
1D
  0
LAYER
  5
66
100
AcDbSymbolTableRecord
100
AcDbLayerTableRecord
  2
2653_2 SCHIEBER UNTEN
 70
        64
 62
       230
  6
CONTINUOUS
290
         1
370
        13
390
1D
  0
LAYER
  5
67
100
AcDbSymbolTableRecord
100
AcDbLayerTableRecord
  2
2653_3 SCHIEBER OBEN
 70
        64
 62
       230
  6
CONTINUOUS
290
         1
370
        13
390
1D
  0
LAYER
  5
68
100
AcDbSymbolTableRecord
100
AcDbLayerTableRecord
  2
2653__ WEICHENSTELLUNG
 70
        64
 62
        14
  6
CONTINUOUS
290
         1
370
         0
390
1D
  0
LAYER
  5
69
100
AcDbSymbolTableRecord
100
AcDbLayerTableRecord
  2
2052_4 ZUHALTUNG ANGEHOBEN
 70
        64
 62
        94
  6
DASHED
290
         1
370
        18
390
1D
  0
LAYER
  5
6A
100
AcDbSymbolTableRecord
100
AcDbLayerTableRecord
  2
2052_4 ZUHALTUNG
 70
        64
 62
        94
  6
CONTINUOUS
290
         1
370
        18
390
1D
  0
LAYER
  5
6B
100
AcDbSymbolTableRecord
100
AcDbLayerTableRecord
  2
2052_1_2_7_8 GEHÄUSE
 70
        64
 62
         7
  6
CONTINUOUS
290
         1
370
        18
390
1D
  0
LAYER
  5
6C
100
AcDbSymbolTableRecord
100
AcDbLayerTableRecord
  2
2052_5_6 BESATZUNG
 70
        64
 62
         8
  6
CONTINUOUS
290
         1
370
        18
390
1D
  0
LAYER
  5
6D
100
AcDbSymbolTableRecord
100
AcDbLayerTableRecord
  2
2052_3 RIEGEL UMGESPERRT
 70
        64
 62
       230
  6
DASHED
290
         1
370
        18
390
1D
  0
LAYER
  5
6E
100
AcDbSymbolTableRecord
100
AcDbLayerTableRecord
  2
2052_3 RIEGEL
 70
        64
 62
       230
  6
CONTINUOUS
290
         1
370
        18
390
1D
  0
LAYER
  5
6F
100
AcDbSymbolTableRecord
100
AcDbLayerTableRecord
  2
2052__ SCHLOSS MIT DORN
 70
        64
 62
         7
  6
CONTINUOUS
290
         1
370
         0
390
1D
  0
LAYER
  5
70
100
AcDbSymbolTableRecord
100
AcDbLayerTableRecord
  2
2053_5 SCHILD
 70
        64
 62
        54
  6
CONTINUOUS
290
         1
370
        18
390
1D
  0
LAYER
  5
71
100
AcDbSymbolTableRecord
100
AcDbLayerTableRecord
  2
2053_1-4 SCHLÜSSEL
 70
        64
 62
       190
  6
CONTINUOUS
290
         1
370
        18
390
1D
  0
LAYER
  5
72
100
AcDbSymbolTableRecord
100
AcDbLayerTableRecord
  2
2053__ SCHLÜSSEL
 70
        64
 62
         7
  6
CONTINUOUS
290
         1
370
         0
390
1D
  0
LAYER
  5
73
100
AcDbSymbolTableRecord
100
AcDbLayerTableRecord
  2
2654_1_3 RAHMEN
 70
        64
 62
         7
  6
CONTINUOUS
290
         1
370
        13
390
1D
  0
LAYER
  5
74
100
AcDbSymbolTableRecord
100
AcDbLayerTableRecord
  2
2654_2 ANTRIEBSRAD
 70
        64
 62
       230
  6
CONTINUOUS
290
         1
370
        13
390
1D
  0
LAYER
  5
75
100
AcDbSymbolTableRecord
100
AcDbLayerTableRecord
  2
2654_3 DREHHEBEL UMGESTELLT
 70
        64
 62
       150
  6
DASHED
290
         1
370
        13
390
1D
  0
LAYER
  5
76
100
AcDbSymbolTableRecord
100
AcDbLayerTableRecord
  2
2654_4-6_9 DREHHEBEL
 70
        64
 62
       150
  6
CONTINUOUS
290
         1
370
        13
390
1D
  0
LAYER
  5
77
100
AcDbSymbolTableRecord
100
AcDbLayerTableRecord
  2
2654_7 STELLHEBEL UMGESTELLT
 70
        64
 62
       172
  6
DASHED
290
         1
370
        18
390
1D
  0
LAYER
  5
78
100
AcDbSymbolTableRecord
100
AcDbLayerTableRecord
  2
2654_7 STELLHEBEL
 70
        64
 62
       172
  6
CONTINUOUS
290
         1
370
        13
390
1D
  0
LAYER
  5
79
100
AcDbSymbolTableRecord
100
AcDbLayerTableRecord
  2
2654_6 STELLVERSTELLUNG UMGESTELLT
 70
        64
 62
       211
  6
DASHED
290
         1
370
        18
390
1D
  0
LAYER
  5
7A
100
AcDbSymbolTableRecord
100
AcDbLayerTableRecord
  2
2654_8 STELLVERSTELLUNG
 70
        64
 62
       230
  6
CONTINUOUS
290
         1
370
        13
390
1D
  0
LAYER
  5
7B
100
AcDbSymbolTableRecord
100
AcDbLayerTableRecord
  2
2654_9 RIEGELSCHIEBER LINKS
 70
        64
 62
       171
  6
DASHED
290
         1
370
        18
390
1D
  0
LAYER
  5
7C
100
AcDbSymbolTableRecord
100
AcDbLayerTableRecord
  2
2654_9 RIEGELSCHIEBER RECHTS
 70
        64
 62
       171
  6
HIDDEN
290
         1
370
        18
390
1D
  0
LAYER
  5
7D
100
AcDbSymbolTableRecord
100
AcDbLayerTableRecord
  2
2654_11 RIEGELSCHIEBER
 70
        64
 62
       171
  6
CONTINUOUS
290
         1
370
        13
390
1D
  0
LAYER
  5
7E
100
AcDbSymbolTableRecord
100
AcDbLayerTableRecord
  2
2654_10 ZUNGENSCHIEBER UMGESTELLT
 70
        64
 62
       171
  6
DASHED
290
         1
370
        18
390
1D
  0
LAYER
  5
7F
100
AcDbSymbolTableRecord
100
AcDbLayerTableRecord
  2
2654_10 ZUNGENSCHIEBER
 70
        64
 62
       171
  6
CONTINUOUS
290
         1
370
        13
390
1D
  0
LAYER
  5
80
100
AcDbSymbolTableRecord
100
AcDbLayerTableRecord
  2
2654_99 RAHMENLEHRE
 70
        64
 62
         7
  6
CONTINUOUS
290
         1
370
        13
390
1D
  0
LAYER
  5
81
100
AcDbSymbolTableRecord
100
AcDbLayerTableRecord
  2
2654_12 SIGNALPLATTE
 70
        64
 62
       172
  6
CONTINUOUS
290
         1
370
        13
390
1D
  0
LAYER
  5
82
100
AcDbSymbolTableRecord
100
AcDbLayerTableRecord
  2
2654_30 GESTÄNGEWINKEL
 70
        64
 62
         7
  6
CONTINUOUS
290
         1
370
        13
390
1D
  0
LAYER
  5
83
100
AcDbSymbolTableRecord
100
AcDbLayerTableRecord
  2
2654__ WEICHENANTRIEB
 70
        64
 62
        14
  6
CONTINUOUS
290
         1
370
        13
390
1D
  0
LAYER
  5
84
100
AcDbSymbolTableRecord
100
AcDbLayerTableRecord
  2
KONSTRUKTION
 70
        64
 62
         7
  6
CONTINUOUS
290
         1
370
         0
390
1D
  0
LAYER
  5
85
100
AcDbSymbolTableRecord
100
AcDbLayerTableRecord
  2
2650_1P
 70
        64
 62
        30
  6
CONTINUOUS
290
         1
370
        13
390
1D
  0
LAYER
  5
86
100
AcDbSymbolTableRecord
100
AcDbLayerTableRecord
  2
2650_7P
 70
        64
 62
        15
  6
CONTINUOUS
290
         1
370
        13
390
1D
  0
LAYER
  5
87
100
AcDbSymbolTableRecord
100
AcDbLayerTableRecord
  2
2650___ WEICHENBOCK
 70
        64
 62
       230
  6
CONTINUOUS
290
         1
370
        13
390
1D
  0
LAYER
  5
88
100
AcDbSymbolTableRecord
100
AcDbLayerTableRecord
  2
2651_1O
 70
        64
 62
        34
  6
CONTINUOUS
290
         1
370
        13
390
1D
  0
LAYER
  5
89
100
AcDbSymbolTableRecord
100
AcDbLayerTableRecord
  2
2651_1U
 70
        64
 62
        11
  6
CONTINUOUS
290
         1
370
        13
390
1D
  0
LAYER
  5
8A
100
AcDbSymbolTableRecord
100
AcDbLayerTableRecord
  2
2651___ SBW-GLEISSPERRSCHUH
 70
        64
 62
       230
  6
CONTINUOUS
290
         1
370
        13
390
1D
  0
LAYER
  5
8B
100
AcDbSymbolTableRecord
100
AcDbLayerTableRecord
  2
2658_1O
 70
        64
 62
        11
  6
CONTINUOUS
290
         1
370
         0
390
1D
  0
LAYER
  5
8C
100
AcDbSymbolTableRecord
100
AcDbLayerTableRecord
  2
2658_1U
 70
        64
 62
        15
  6
CONTINUOUS
290
         1
370
         0
390
1D
  0
LAYER
  5
8D
100
AcDbSymbolTableRecord
100
AcDbLayerTableRecord
  2
2658_2L
 70
        64
 62
        30
  6
CONTINUOUS
290
         1
370
        13
390
1D
  0
LAYER
  5
8E
100
AcDbSymbolTableRecord
100
AcDbLayerTableRecord
  2
2658_2P
 70
        64
 62
        34
  6
CONTINUOUS
290
         1
370
        13
390
1D
  0
LAYER
  5
8F
100
AcDbSymbolTableRecord
100
AcDbLayerTableRecord
  2
2658_2R
 70
        64
 62
        14
  6
CONTINUOUS
290
         1
370
        13
390
1D
  0
LAYER
  5
90
100
AcDbSymbolTableRecord
100
AcDbLayerTableRecord
  2
2658_3P
 70
        64
 62
        34
  6
CONTINUOUS
290
         1
370
        13
390
1D
  0
LAYER
  5
91
100
AcDbSymbolTableRecord
100
AcDbLayerTableRecord
  2
2658_4L
 70
        64
 62
        30
  6
CONTINUOUS
290
         1
370
        13
390
1D
  0
LAYER
  5
92
100
AcDbSymbolTableRecord
100
AcDbLayerTableRecord
  2
2658_4R
 70
        64
 62
        14
  6
CONTINUOUS
290
         1
370
        13
390
1D
  0
LAYER
  5
93
100
AcDbSymbolTableRecord
100
AcDbLayerTableRecord
  2
2658_5L
 70
        64
 62
        30
  6
CONTINUOUS
290
         1
370
        13
390
1D
  0
LAYER
  5
94
100
AcDbSymbolTableRecord
100
AcDbLayerTableRecord
  2
2658_5R
 70
        64
 62
        14
  6
CONTINUOUS
290
         1
370
        13
390
1D
  0
LAYER
  5
95
100
AcDbSymbolTableRecord
100
AcDbLayerTableRecord
  2
2658___
 70
        64
 62
       230
  6
CONTINUOUS
290
         1
370
        13
390
1D
  0
LAYER
  5
96
100
AcDbSymbolTableRecord
100
AcDbLayerTableRecord
  2
2655_1P
 70
        64
 62
        30
  6
CONTINUOUS
290
         1
370
        13
390
1D
  0
LAYER
  5
97
100
AcDbSymbolTableRecord
100
AcDbLayerTableRecord
  2
2655_2P
 70
        64
 62
        30
  6
CONTINUOUS
290
         1
370
        13
390
1D
  0
LAYER
  5
98
100
AcDbSymbolTableRecord
100
AcDbLayerTableRecord
  2
2655_3L
 70
        64
 62
        30
  6
CONTINUOUS
290
         1
370
        13
390
1D
  0
LAYER
  5
99
100
AcDbSymbolTableRecord
100
AcDbLayerTableRecord
  2
2655_3R
 70
        64
 62
        14
  6
CONTINUOUS
290
         1
370
        13
390
1D
  0
LAYER
  5
9A
100
AcDbSymbolTableRecord
100
AcDbLayerTableRecord
  2
2655_5L
 70
        64
 62
        30
  6
CONTINUOUS
290
         1
370
        13
390
1D
  0
LAYER
  5
9B
100
AcDbSymbolTableRecord
100
AcDbLayerTableRecord
  2
2655_5R
 70
        64
 62
        14
  6
CONTINUOUS
290
         1
370
        13
390
1D
  0
LAYER
  5
9C
100
AcDbSymbolTableRecord
100
AcDbLayerTableRecord
  2
2655_6P
 70
        64
 62
        30
  6
CONTINUOUS
290
         1
370
        13
390
1D
  0
LAYER
  5
9D
100
AcDbSymbolTableRecord
100
AcDbLayerTableRecord
  2
2655_78L
 70
        64
 62
        30
  6
CONTINUOUS
290
         1
370
        13
390
1D
  0
LAYER
  5
9E
100
AcDbSymbolTableRecord
100
AcDbLayerTableRecord
  2
2655_11P
 70
        64
 62
        30
  6
CONTINUOUS
290
         1
370
        13
390
1D
  0
LAYER
  5
9F
100
AcDbSymbolTableRecord
100
AcDbLayerTableRecord
  2
2655_13R
 70
        64
 62
        14
  6
CONTINUOUS
290
         1
370
        13
390
1D
  0
LAYER
  5
A0
100
AcDbSymbolTableRecord
100
AcDbLayerTableRecord
  2
2655_13L
 70
        64
 62
        30
  6
CONTINUOUS
290
         1
370
        13
390
1D
  0
LAYER
  5
A1
100
AcDbSymbolTableRecord
100
AcDbLayerTableRecord
  2
2655_78R
 70
        64
 62
        14
  6
CONTINUOUS
290
         1
370
        13
390
1D
  0
LAYER
  5
A2
100
AcDbSymbolTableRecord
100
AcDbLayerTableRecord
  2
2655_9R
 70
        64
 62
        14
  6
CONTINUOUS
290
         1
370
        13
390
1D
  0
LAYER
  5
A3
100
AcDbSymbolTableRecord
100
AcDbLayerTableRecord
  2
2655_9L
 70
        64
 62
        30
  6
CONTINUOUS
290
         1
370
        13
390
1D
  0
LAYER
  5
A4
100
AcDbSymbolTableRecord
100
AcDbLayerTableRecord
  2
2655_6Q
 70
        64
 62
        30
  6
CONTINUOUS
290
         1
370
        13
390
1D
  0
LAYER
  5
A5
100
AcDbSymbolTableRecord
100
AcDbLayerTableRecord
  2
2655_99P
 70
        64
 62
        30
  6
CONTINUOUS
290
         1
370
        13
390
1D
  0
LAYER
  5
A6
100
AcDbSymbolTableRecord
100
AcDbLayerTableRecord
  2
2655_10R
 70
        64
 62
        14
  6
CONTINUOUS
290
         1
370
        13
390
1D
  0
LAYER
  5
A7
100
AcDbSymbolTableRecord
100
AcDbLayerTableRecord
  2
2655_10L
 70
        64
 62
        30
  6
CONTINUOUS
290
         1
370
        13
390
1D
  0
LAYER
  5
A8
100
AcDbSymbolTableRecord
100
AcDbLayerTableRecord
  2
2655___ W-_ GSP-_ SIGNAL-ANTRIEB
 70
        64
 62
       230
  6
CONTINUOUS
290
         1
370
        13
390
1D
  0
LAYER
  5
A9
100
AcDbSymbolTableRecord
100
AcDbLayerTableRecord
  2
2656_01L
 70
        64
 62
        34
  6
CONTINUOUS
290
         1
370
        13
390
1D
  0
LAYER
  5
AA
100
AcDbSymbolTableRecord
100
AcDbLayerTableRecord
  2
2656_02R
 70
        64
 62
        14
  6
CONTINUOUS
290
         1
370
        13
390
1D
  0
LAYER
  5
AB
100
AcDbSymbolTableRecord
100
AcDbLayerTableRecord
  2
2656_11L
 70
        64
 62
        34
  6
CONTINUOUS
290
         1
370
        13
390
1D
  0
LAYER
  5
AC
100
AcDbSymbolTableRecord
100
AcDbLayerTableRecord
  2
2656_12R
 70
        64
 62
        14
  6
CONTINUOUS
290
         1
370
        13
390
1D
  0
LAYER
  5
AD
100
AcDbSymbolTableRecord
100
AcDbLayerTableRecord
  2
2656___
 70
        64
 62
       230
  6
CONTINUOUS
290
         1
370
        13
390
1D
  0
LAYER
  5
AE
100
AcDbSymbolTableRecord
100
AcDbLayerTableRecord
  2
1088_1P
 70
        64
 62
        30
  6
CONTINUOUS
290
         1
370
         0
390
1D
  0
LAYER
  5
AF
100
AcDbSymbolTableRecord
100
AcDbLayerTableRecord
  2
108____ VORLAGEN
 70
        64
 62
       230
  6
CONTINUOUS
290
         1
370
        13
390
1D
  0
LAYER
  5
B0
100
AcDbSymbolTableRecord
100
AcDbLayerTableRecord
  2
2653_1P
 70
        64
 62
        30
  6
CONTINUOUS
290
         1
370
        13
390
1D
  0
LAYER
  5
B1
100
AcDbSymbolTableRecord
100
AcDbLayerTableRecord
  2
2653_2P
 70
        64
 62
        34
  6
CONTINUOUS
290
         1
370
        13
390
1D
  0
LAYER
  5
B2
100
AcDbSymbolTableRecord
100
AcDbLayerTableRecord
  2
2653_3P
 70
        64
 62
        34
  6
CONTINUOUS
290
         1
370
        13
390
1D
  0
LAYER
  5
B3
100
AcDbSymbolTableRecord
100
AcDbLayerTableRecord
  2
2653___ WEICHENSCHLOSS
 70
        64
 62
       230
  6
CONTINUOUS
290
         1
370
        13
390
1D
  0
LAYER
  5
B4
100
AcDbSymbolTableRecord
100
AcDbLayerTableRecord
  2
2654_5L
 70
        64
 62
        30
  6
CONTINUOUS
290
         1
370
        13
390
1D
  0
LAYER
  5
B5
100
AcDbSymbolTableRecord
100
AcDbLayerTableRecord
  2
2654_5R
 70
        64
 62
        14
  6
CONTINUOUS
290
         1
370
        13
390
1D
  0
LAYER
  5
B6
100
AcDbSymbolTableRecord
100
AcDbLayerTableRecord
  2
2654_7L
 70
        64
 62
        30
  6
CONTINUOUS
290
         1
370
        13
390
1D
  0
LAYER
  5
B7
100
AcDbSymbolTableRecord
100
AcDbLayerTableRecord
  2
2654_7R
 70
        64
 62
        14
  6
CONTINUOUS
290
         1
370
        13
390
1D
  0
LAYER
  5
B8
100
AcDbSymbolTableRecord
100
AcDbLayerTableRecord
  2
2654_10L
 70
        64
 62
        30
  6
CONTINUOUS
290
         1
370
        13
390
1D
  0
LAYER
  5
B9
100
AcDbSymbolTableRecord
100
AcDbLayerTableRecord
  2
2654_2P
 70
        64
 62
        30
  6
CONTINUOUS
290
         1
370
        13
390
1D
  0
LAYER
  5
BA
100
AcDbSymbolTableRecord
100
AcDbLayerTableRecord
  2
2654_4R
 70
        64
 62
        14
  6
CONTINUOUS
290
         1
370
        13
390
1D
  0
LAYER
  5
BB
100
AcDbSymbolTableRecord
100
AcDbLayerTableRecord
  2
2654_4L
 70
        64
 62
        30
  6
CONTINUOUS
290
         1
370
        13
390
1D
  0
LAYER
  5
BC
100
AcDbSymbolTableRecord
100
AcDbLayerTableRecord
  2
2654_10R
 70
        64
 62
        14
  6
CONTINUOUS
290
         1
370
        13
390
1D
  0
LAYER
  5
BD
100
AcDbSymbolTableRecord
100
AcDbLayerTableRecord
  2
2654_11R
 70
        64
 62
        14
  6
CONTINUOUS
290
         1
370
        13
390
1D
  0
LAYER
  5
BE
100
AcDbSymbolTableRecord
100
AcDbLayerTableRecord
  2
2654_11L
 70
        64
 62
        30
  6
CONTINUOUS
290
         1
370
        13
390
1D
  0
LAYER
  5
BF
100
AcDbSymbolTableRecord
100
AcDbLayerTableRecord
  2
2654_99P
 70
        64
 62
        14
  6
CONTINUOUS
290
         1
370
        13
390
1D
  0
LAYER
  5
C0
100
AcDbSymbolTableRecord
100
AcDbLayerTableRecord
  2
2654_3P
 70
        64
 62
        14
  6
CONTINUOUS
290
         1
370
        13
390
1D
  0
LAYER
  5
C1
100
AcDbSymbolTableRecord
100
AcDbLayerTableRecord
  2
2654_1P
 70
        64
 62
        30
  6
CONTINUOUS
290
         1
370
        13
390
1D
  0
LAYER
  5
C2
100
AcDbSymbolTableRecord
100
AcDbLayerTableRecord
  2
2654_8P
 70
        64
 62
        14
  6
CONTINUOUS
290
         1
370
        13
390
1D
  0
LAYER
  5
C3
100
AcDbSymbolTableRecord
100
AcDbLayerTableRecord
  2
2654_30R
 70
        64
 62
        14
  6
CONTINUOUS
290
         1
370
        13
390
1D
  0
LAYER
  5
C4
100
AcDbSymbolTableRecord
100
AcDbLayerTableRecord
  2
2654_30L
 70
        64
 62
        30
  6
CONTINUOUS
290
         1
370
        13
390
1D
  0
LAYER
  5
C5
100
AcDbSymbolTableRecord
100
AcDbLayerTableRecord
  2
2654_9P
 70
        64
 62
        14
  6
CONTINUOUS
290
         1
370
        13
390
1D
  0
LAYER
  5
C6
100
AcDbSymbolTableRecord
100
AcDbLayerTableRecord
  2
2654___ W-_ GSP-_ SIGNAL-ANTRIEB
 70
        64
 62
       230
  6
CONTINUOUS
290
         1
370
        13
390
1D
  0
LAYER
  5
C7
100
AcDbSymbolTableRecord
100
AcDbLayerTableRecord
  2
PFADE
 70
        64
 62
         7
  6
CONTINUOUS
290
         1
370
         0
390
1D
  0
LAYER
  5
C8
100
AcDbSymbolTableRecord
100
AcDbLayerTableRecord
  2
MASSGRENZEN0
 70
        64
 62
       172
  6
CONTINUOUS
290
         1
370
        25
390
1D
  0
LAYER
  5
C9
100
AcDbSymbolTableRecord
100
AcDbLayerTableRecord
  2
MASSTEXTE0
 70
        64
 62
       212
  6
CONTINUOUS
290
         1
370
        25
390
1D
  0
LAYER
  5
CA
100
AcDbSymbolTableRecord
100
AcDbLayerTableRecord
  2
TOLERANZEN0
 70
        64
 62
       212
  6
CONTINUOUS
290
         1
370
         0
390
1D
  0
LAYER
  5
CB
100
AcDbSymbolTableRecord
100
AcDbLayerTableRecord
  2
MASSLINIEN0
 70
        64
 62
       172
  6
CONTINUOUS
290
         1
370
        25
390
1D
  0
LAYER
  5
CC
100
AcDbSymbolTableRecord
100
AcDbLayerTableRecord
  2
BEMASSUNG
 70
        64
 62
         7
  6
CONTINUOUS
290
         1
370
        25
390
1D
  0
LAYER
  5
CD
100
AcDbSymbolTableRecord
100
AcDbLayerTableRecord
  2
_TEMP
 70
        64
 62
         7
  6
CONTINUOUS
290
         1
370
        50
390
1D
  0
LAYER
  5
CE
100
AcDbSymbolTableRecord
100
AcDbLayerTableRecord
  2
STANDARD
 70
        64
 62
         7
  6
CONTINUOUS
290
         1
370
         0
390
1D
  0
ENDTAB
  0
TABLE
  2
STYLE
  5
3
100
AcDbSymbolTable
 70
         7
  0
STYLE
  5
17
100
AcDbSymbolTableRecord
100
AcDbTextStyleTableRecord
  2
Standard
 70
         0
 40
0.0
 41
1.0
 50
0.0
 71
         0
 42
0.0
  3
txt
  4

  0
STYLE
  5
2D
100
AcDbSymbolTableRecord
100
AcDbTextStyleTableRecord
  2
CADdy
 70
         0
 40
0.0
 41
1.0
 50
0.0
 71
         0
 42
3.5
  3
txt.shx
  4

  0
STYLE
  5
2E
100
AcDbSymbolTableRecord
100
AcDbTextStyleTableRecord
  2
Arial
 70
         0
 40
0.0
 41
1.0
 50
0.0
 71
         0
 42
3.5
  3
arial.ttf
  4

1001
ACAD
1000
Arial
1071
       34
  0
STYLE
  5
2F
100
AcDbSymbolTableRecord
100
AcDbTextStyleTableRecord
  2
Isonorm
 70
         0
 40
0.0
 41
1.0
 50
0.0
 71
         0
 42
3.5
  3
txt.shx
  4

  0
STYLE
  5
30
100
AcDbSymbolTableRecord
100
AcDbTextStyleTableRecord
  2
Tahoma
 70
         0
 40
0.0
 41
1.0
 50
0.0
 71
         0
 42
3.5
  3
tahoma.ttf
  4

1001
ACAD
1000
Tahoma
1071
       34
  0
STYLE
  5
31
100
AcDbSymbolTableRecord
100
AcDbTextStyleTableRecord
  2
Microsoft Sans Serif
 70
         0
 40
0.0
 41
1.0
 50
0.0
 71
         0
 42
3.5
  3
micross.ttf
  4

1001
ACAD
1000
Microsoft Sans Serif
1071
       34
  0
STYLE
  5
32
100
AcDbSymbolTableRecord
100
AcDbTextStyleTableRecord
  2
Arial Rounded MT Bold
 70
         0
 40
0.0
 41
1.0
 50
0.0
 71
         0
 42
3.5
  3
txt.shx
  4

  0
ENDTAB
  0
TABLE
  2
VIEW
  5
5
100
AcDbSymbolTable
 70
         0
  0
ENDTAB
  0
TABLE
  2
UCS
  5
6
100
AcDbSymbolTable
 70
         0
  0
ENDTAB
  0
TABLE
  2
APPID
  5
8
100
AcDbSymbolTable
 70
         1
  0
APPID
  5
16
100
AcDbSymbolTableRecord
100
AcDbRegAppTableRecord
  2
ACAD
 70
        64
  0
ENDTAB
  0
TABLE
  2
DIMSTYLE
  5
9
100
AcDbSymbolTable
 70
         1
100
AcDbDimStyleTable
 71
         0
  0
DIMSTYLE
105
18
100
AcDbSymbolTableRecord
100
AcDbDimStyleTableRecord
  2
Standard
 70
         0
  3

  4

 40
1.0
 41
0.18
 42
0.0625
 43
0.38
 44
0.18
 45
0.0
 46
0.0
 47
0.0
 48
0.0
 71
         0
 72
         0
 73
         1
 74
         1
 75
         0
 76
         0
 77
         0
 78
         0
 79
         0
140
0.18
141
0.09
142
0.0
143
25.4
144
1.0
145
0.0
146
1.0
147
0.09
148
0.0
170
         0
171
         2
172
         0
173
         0
174
         0
175
         0
176
         0
177
         0
178
         0
179
         0
271
         4
272
         4
273
         2
274
         2
275
         0
276
         0
277
         2
278
        46
279
         0
280
         0
281
         0
282
         0
283
         1
284
         0
285
         0
286
         0
288
         0
289
         3
340
17
341
0
342
0
343
0
344
0
371
        -2
372
        -2
  0
ENDTAB
  0
TABLE
  2
BLOCK_RECORD
  5
1
100
AcDbSymbolTable
 70
        21
  0
BLOCK_RECORD
  5
A
100
AcDbSymbolTableRecord
100
AcDbBlockTableRecord
  2
*MODEL_SPACE
340
20
  0
BLOCK_RECORD
  5
B
100
AcDbSymbolTableRecord
100
AcDbBlockTableRecord
  2
*PAPER_SPACE
340
21
  0
BLOCK_RECORD
  5
CF
100
AcDbSymbolTableRecord
100
AcDbBlockTableRecord
  2
D133360640
340
0
102
{BLKREFS
331
25E
102
}
  0
BLOCK_RECORD
  5
D8
100
AcDbSymbolTableRecord
100
AcDbBlockTableRecord
  2
D133360384
340
0
102
{BLKREFS
331
277
102
}
  0
BLOCK_RECORD
  5
E3
100
AcDbSymbolTableRecord
100
AcDbBlockTableRecord
  2
D133360128
340
0
102
{BLKREFS
331
278
102
}
  0
BLOCK_RECORD
  5
EE
100
AcDbSymbolTableRecord
100
AcDbBlockTableRecord
  2
D133359872
340
0
102
{BLKREFS
331
279
102
}
  0
BLOCK_RECORD
  5
F9
100
AcDbSymbolTableRecord
100
AcDbBlockTableRecord
  2
D133359616
340
0
102
{BLKREFS
331
27A
102
}
  0
BLOCK_RECORD
  5
102
100
AcDbSymbolTableRecord
100
AcDbBlockTableRecord
  2
D133359360
340
0
102
{BLKREFS
331
27B
102
}
  0
BLOCK_RECORD
  5
10B
100
AcDbSymbolTableRecord
100
AcDbBlockTableRecord
  2
D133359104
340
0
102
{BLKREFS
331
27C
102
}
  0
BLOCK_RECORD
  5
114
100
AcDbSymbolTableRecord
100
AcDbBlockTableRecord
  2
D133358848
340
0
102
{BLKREFS
331
27D
102
}
  0
BLOCK_RECORD
  5
11D
100
AcDbSymbolTableRecord
100
AcDbBlockTableRecord
  2
D133358592
340
0
102
{BLKREFS
331
27E
102
}
  0
BLOCK_RECORD
  5
128
100
AcDbSymbolTableRecord
100
AcDbBlockTableRecord
  2
D133358336
340
0
102
{BLKREFS
331
27F
102
}
  0
BLOCK_RECORD
  5
131
100
AcDbSymbolTableRecord
100
AcDbBlockTableRecord
  2
D133358080
340
0
102
{BLKREFS
331
280
102
}
  0
BLOCK_RECORD
  5
13A
100
AcDbSymbolTableRecord
100
AcDbBlockTableRecord
  2
D133357824
340
0
102
{BLKREFS
331
336
102
}
  0
BLOCK_RECORD
  5
143
100
AcDbSymbolTableRecord
100
AcDbBlockTableRecord
  2
D133357568
340
0
102
{BLKREFS
331
337
102
}
  0
BLOCK_RECORD
  5
14C
100
AcDbSymbolTableRecord
100
AcDbBlockTableRecord
  2
D133373696
340
0
102
{BLKREFS
331
338
102
}
  0
BLOCK_RECORD
  5
155
100
AcDbSymbolTableRecord
100
AcDbBlockTableRecord
  2
D133373440
340
0
102
{BLKREFS
331
33A
102
}
  0
BLOCK_RECORD
  5
15E
100
AcDbSymbolTableRecord
100
AcDbBlockTableRecord
  2
D133373184
340
0
102
{BLKREFS
331
33B
102
}
  0
BLOCK_RECORD
  5
167
100
AcDbSymbolTableRecord
100
AcDbBlockTableRecord
  2
D133372928
340
0
102
{BLKREFS
331
33C
102
}
  0
BLOCK_RECORD
  5
170
100
AcDbSymbolTableRecord
100
AcDbBlockTableRecord
  2
D133372672
340
0
102
{BLKREFS
331
34C
102
}
  0
BLOCK_RECORD
  5
179
100
AcDbSymbolTableRecord
100
AcDbBlockTableRecord
  2
D133372416
340
0
102
{BLKREFS
331
381
102
}
  0
BLOCK_RECORD
  5
182
100
AcDbSymbolTableRecord
100
AcDbBlockTableRecord
  2
D133372160
340
0
102
{BLKREFS
331
382
102
}
  0
BLOCK_RECORD
  5
18B
100
AcDbSymbolTableRecord
100
AcDbBlockTableRecord
  2
D133371904
340
0
102
{BLKREFS
331
3E9
102
}
  0
ENDTAB
  0
ENDSEC
  0
SECTION
  2
BLOCKS
  0
BLOCK
  5
D
100
AcDbEntity
  8
0
390
0
100
AcDbBlockBegin
  2
*MODEL_SPACE
 70
         0
 10
0.0
 20
0.0
 30
0.0
  3
*MODEL_SPACE
  1

  0
ENDBLK
  5
E
100
AcDbEntity
  8
0
390
0
100
AcDbBlockEnd
  0
BLOCK
  5
F
100
AcDbEntity
 67
         1
  8
0
390
0
100
AcDbBlockBegin
  2
*PAPER_SPACE
 70
         0
 10
0.0
 20
0.0
 30
0.0
  3
*PAPER_SPACE
  1

  0
ENDBLK
  5
10
100
AcDbEntity
 67
         1
  8
0
390
0
100
AcDbBlockEnd
  0
BLOCK
  5
D0
100
AcDbEntity
  8
BEMAßUNG
390
0
100
AcDbBlockBegin
  2
D133360640
 70
         0
 10
0.0
 20
0.0
 30
0.0
  3
D133360640
  1

  0
LINE
  5
D1
100
AcDbEntity
  8
BEMAßUNG
390
0
 62
       172
100
AcDbLine
 10
92.9579114879
 20
104.433653742
 30
0.0
 11
134.9579114879
 21
104.433653742
 31
0.0
  0
LINE
  5
D2
100
AcDbEntity
  8
BEMAßUNG
390
0
 62
       172
100
AcDbLine
 10
92.9579114879
 20
155.1100856638
 30
0.0
 11
92.9579114879
 21
102.433653742
 31
0.0
  0
LINE
  5
D3
100
AcDbEntity
  8
BEMAßUNG
390
0
 62
       172
100
AcDbLine
 10
134.9579114879
 20
155.1100856638
 30
0.0
 11
134.9579114879
 21
102.433653742
 31
0.0
  0
SOLID
  5
D4
100
AcDbEntity
  8
BEMAßUNG
390
0
100
AcDbTrace
 10
92.9579114879
 20
104.433653742
 30
0.0
 11
95.932246072
 21
104.8252323186
 31
0.0
 12
95.932246072
 22
104.0420751653
 32
0.0
 13
95.932246072
 23
104.0420751653
 33
0.0
  0
SOLID
  5
D5
100
AcDbEntity
  8
BEMAßUNG
390
0
100
AcDbTrace
 10
134.9579114879
 20
104.433653742
 30
0.0
 11
131.9835769038
 21
104.0420751653
 31
0.0
 12
131.9835769038
 22
104.8252323186
 32
0.0
 13
131.9835769038
 23
104.8252323186
 33
0.0
  0
MTEXT
  5
D6
100
AcDbEntity
  8
BEMAßUNG
390
0
 62
       212
100
AcDbMText
 10
113.9579114879
 20
107.617653742
 30
0.0
 40
3.0
 41
0.0
 71
         5
 72
         1
  1
\W1.135145;\A1;42
  7
Arial
 73
         0
 44
0.0
  0
ENDBLK
  5
D7
100
AcDbEntity
  8
0
390
0
100
AcDbBlockEnd
  0
BLOCK
  5
D9
100
AcDbEntity
  8
BEMAßUNG
390
0
100
AcDbBlockBegin
  2
D133360384
 70
         0
 10
0.0
 20
0.0
 30
0.0
  3
D133360384
  1

  0
LINE
  5
DA
100
AcDbEntity
  8
BEMAßUNG
390
0
 62
       172
100
AcDbLine
 10
142.5997101196
 20
48.8490615876
 30
0.0
 11
142.5997101196
 21
58.3490615876
 31
0.0
  0
LINE
  5
DB
100
AcDbEntity
  8
BEMAßUNG
390
0
 62
       172
100
AcDbLine
 10
163.4812008491
 20
48.8490615876
 30
0.0
 11
140.5997101196
 21
48.8490615876
 31
0.0
  0
LINE
  5
DC
100
AcDbEntity
  8
BEMAßUNG
390
0
 62
       172
100
AcDbLine
 10
195.4812008491
 20
58.3490615876
 30
0.0
 11
140.5997101196
 21
58.3490615876
 31
0.0
  0
LINE
  5
DD
100
AcDbEntity
  8
BEMAßUNG
390
0
 62
       172
100
AcDbLine
 10
142.5997101196
 20
58.3490615876
 30
0.0
 11
142.5997101196
 21
71.0910640891
 31
0.0
  0
LINE
  5
DE
100
AcDbEntity
  8
BEMAßUNG
390
0
 62
       172
100
AcDbLine
 10
142.5997101196
 20
48.8490615876
 30
0.0
 11
142.5997101196
 21
42.8103924193
 31
0.0
  0
SOLID
  5
DF
100
AcDbEntity
  8
BEMAßUNG
390
0
100
AcDbTrace
 10
142.5997101196
 20
48.8490615876
 30
0.0
 11
142.9912886963
 21
45.8747270034
 31
0.0
 12
142.208131543
 22
45.8747270034
 32
0.0
 13
142.208131543
 23
45.8747270034
 33
0.0
  0
SOLID
  5
E0
100
AcDbEntity
  8
BEMAßUNG
390
0
100
AcDbTrace
 10
142.5997101196
 20
58.3490615876
 30
0.0
 11
142.208131543
 21
61.3233961717
 31
0.0
 12
142.9912886963
 22
61.3233961717
 32
0.0
 13
142.9912886963
 23
61.3233961717
 33
0.0
  0
MTEXT
  5
E1
100
AcDbEntity
  8
BEMAßUNG
390
0
 62
       212
100
AcDbMText
 10
139.4157101196
 20
67.6943974225
 30
0.0
 40
3.0
 41
0.0
 71
         5
 72
         1
  1
\W1.135130;\A1;9.5
  7
Arial
 11
0.0
 21
1.0
 31
0.0
 73
         0
 44
0.0
  0
ENDBLK
  5
E2
100
AcDbEntity
  8
0
390
0
100
AcDbBlockEnd
  0
BLOCK
  5
E4
100
AcDbEntity
  8
BEMAßUNG
390
0
100
AcDbBlockBegin
  2
D133360128
 70
         0
 10
0.0
 20
0.0
 30
0.0
  3
D133360128
  1

  0
LINE
  5
E5
100
AcDbEntity
  8
BEMAßUNG
390
0
 62
       172
100
AcDbLine
 10
152.207843264
 20
101.7221746086
 30
0.0
 11
152.207843264
 21
104.2221746086
 31
0.0
  0
LINE
  5
E6
100
AcDbEntity
  8
BEMAßUNG
390
0
 62
       172
100
AcDbLine
 10
201.7501054748
 20
101.7221746086
 30
0.0
 11
150.207843264
 21
101.7221746086
 31
0.0
  0
LINE
  5
E7
100
AcDbEntity
  8
BEMAßUNG
390
0
 62
       172
100
AcDbLine
 10
160.7501054748
 20
104.2221746086
 30
0.0
 11
150.207843264
 21
104.2221746086
 31
0.0
  0
LINE
  5
E8
100
AcDbEntity
  8
BEMAßUNG
390
0
 62
       172
100
AcDbLine
 10
152.207843264
 20
104.2221746086
 30
0.0
 11
152.207843264
 21
116.9641771102
 31
0.0
  0
LINE
  5
E9
100
AcDbEntity
  8
BEMAßUNG
390
0
 62
       172
100
AcDbLine
 10
152.207843264
 20
101.7221746086
 30
0.0
 11
152.207843264
 21
95.6835054404
 31
0.0
  0
SOLID
  5
EA
100
AcDbEntity
  8
BEMAßUNG
390
0
100
AcDbTrace
 10
152.207843264
 20
101.7221746086
 30
0.0
 11
152.5994218407
 21
98.7478400245
 31
0.0
 12
151.8162646874
 22
98.7478400245
 32
0.0
 13
151.8162646874
 23
98.7478400245
 33
0.0
  0
SOLID
  5
EB
100
AcDbEntity
  8
BEMAßUNG
390
0
100
AcDbTrace
 10
152.207843264
 20
104.2221746086
 30
0.0
 11
151.8162646874
 21
107.1965091928
 31
0.0
 12
152.5994218407
 22
107.1965091928
 32
0.0
 13
152.5994218407
 23
107.1965091928
 33
0.0
  0
MTEXT
  5
EC
100
AcDbEntity
  8
BEMAßUNG
390
0
 62
       212
100
AcDbMText
 10
149.023843264
 20
113.5675104435
 30
0.0
 40
3.0
 41
0.0
 71
         5
 72
         1
  1
\W1.135130;\A1;2.5
  7
Arial
 11
0.0
 21
1.0
 31
0.0
 73
         0
 44
0.0
  0
ENDBLK
  5
ED
100
AcDbEntity
  8
0
390
0
100
AcDbBlockEnd
  0
BLOCK
  5
EF
100
AcDbEntity
  8
BEMAßUNG
390
0
100
AcDbBlockBegin
  2
D133359872
 70
         0
 10
0.0
 20
0.0
 30
0.0
  3
D133359872
  1

  0
LINE
  5
F0
100
AcDbEntity
  8
BEMAßUNG
390
0
 62
       172
100
AcDbLine
 10
200.9755333955
 20
55.8490615876
 30
0.0
 11
200.9755333955
 21
58.3490615876
 31
0.0
  0
LINE
  5
F1
100
AcDbEntity
  8
BEMAßUNG
390
0
 62
       172
100
AcDbLine
 10
186.4812008491
 20
55.8490615876
 30
0.0
 11
202.9755333955
 21
55.8490615876
 31
0.0
  0
LINE
  5
F2
100
AcDbEntity
  8
BEMAßUNG
390
0
 62
       172
100
AcDbLine
 10
150.4812008491
 20
58.3490615876
 30
0.0
 11
202.9755333955
 21
58.3490615876
 31
0.0
  0
LINE
  5
F3
100
AcDbEntity
  8
BEMAßUNG
390
0
 62
       172
100
AcDbLine
 10
200.9755333955
 20
58.3490615876
 30
0.0
 11
200.9755333955
 21
71.0910640891
 31
0.0
  0
LINE
  5
F4
100
AcDbEntity
  8
BEMAßUNG
390
0
 62
       172
100
AcDbLine
 10
200.9755333955
 20
55.8490615876
 30
0.0
 11
200.9755333955
 21
49.8103924193
 31
0.0
  0
SOLID
  5
F5
100
AcDbEntity
  8
BEMAßUNG
390
0
100
AcDbTrace
 10
200.9755333955
 20
55.8490615876
 30
0.0
 11
201.3671119722
 21
52.8747270034
 31
0.0
 12
200.5839548188
 22
52.8747270034
 32
0.0
 13
200.5839548188
 23
52.8747270034
 33
0.0
  0
SOLID
  5
F6
100
AcDbEntity
  8
BEMAßUNG
390
0
100
AcDbTrace
 10
200.9755333955
 20
58.3490615876
 30
0.0
 11
200.5839548188
 21
61.3233961717
 31
0.0
 12
201.3671119722
 22
61.3233961717
 32
0.0
 13
201.3671119722
 23
61.3233961717
 33
0.0
  0
MTEXT
  5
F7
100
AcDbEntity
  8
BEMAßUNG
390
0
 62
       212
100
AcDbMText
 10
197.7915333955
 20
67.6943974225
 30
0.0
 40
3.0
 41
0.0
 71
         5
 72
         1
  1
\W1.135130;\A1;2.5
  7
Arial
 11
0.0
 21
1.0
 31
0.0
 73
         0
 44
0.0
  0
ENDBLK
  5
F8
100
AcDbEntity
  8
0
390
0
100
AcDbBlockEnd
  0
BLOCK
  5
FA
100
AcDbEntity
  8
BEMAßUNG
390
0
100
AcDbBlockBegin
  2
D133359616
 70
         0
 10
0.0
 20
0.0
 30
0.0
  3
D133359616
  1

  0
LINE
  5
FB
100
AcDbEntity
  8
BEMAßUNG
390
0
 62
       172
100
AcDbLine
 10
163.4812008491
 20
61.7184952194
 30
0.0
 11
150.4812008491
 21
61.7184952194
 31
0.0
  0
LINE
  5
FC
100
AcDbEntity
  8
BEMAßUNG
390
0
 62
       172
100
AcDbLine
 10
163.4812008491
 20
48.8490615876
 30
0.0
 11
163.4812008491
 21
63.7184952194
 31
0.0
  0
LINE
  5
FD
100
AcDbEntity
  8
BEMAßUNG
390
0
 62
       172
100
AcDbLine
 10
150.4812008491
 20
58.3490615876
 30
0.0
 11
150.4812008491
 21
63.7184952194
 31
0.0
  0
SOLID
  5
FE
100
AcDbEntity
  8
BEMAßUNG
390
0
100
AcDbTrace
 10
163.4812008491
 20
61.7184952194
 30
0.0
 11
160.5068662649
 21
61.3269166427
 31
0.0
 12
160.5068662649
 22
62.110073796
 32
0.0
 13
160.5068662649
 23
62.110073796
 33
0.0
  0
SOLID
  5
FF
100
AcDbEntity
  8
BEMAßUNG
390
0
100
AcDbTrace
 10
150.4812008491
 20
61.7184952194
 30
0.0
 11
153.4555354332
 21
62.110073796
 31
0.0
 12
153.4555354332
 22
61.3269166427
 32
0.0
 13
153.4555354332
 23
61.3269166427
 33
0.0
  0
MTEXT
  5
100
100
AcDbEntity
  8
BEMAßUNG
390
0
 62
       212
100
AcDbMText
 10
156.9812008491
 20
64.9024952194
 30
0.0
 40
3.0
 41
0.0
 71
         5
 72
         1
  1
\W1.135146;\A1;13
  7
Arial
 73
         0
 44
0.0
  0
ENDBLK
  5
101
100
AcDbEntity
  8
0
390
0
100
AcDbBlockEnd
  0
BLOCK
  5
103
100
AcDbEntity
  8
BEMAßUNG
390
0
100
AcDbBlockBegin
  2
D133359360
 70
         0
 10
0.0
 20
0.0
 30
0.0
  3
D133359360
  1

  0
LINE
  5
104
100
AcDbEntity
  8
BEMAßUNG
390
0
 62
       172
100
AcDbLine
 10
168.4812008491
 20
71.7184952194
 30
0.0
 11
150.4812008491
 21
71.7184952194
 31
0.0
  0
LINE
  5
105
100
AcDbEntity
  8
BEMAßUNG
390
0
 62
       172
100
AcDbLine
 10
168.4812008491
 20
55.8490615876
 30
0.0
 11
168.4812008491
 21
73.7184952194
 31
0.0
  0
LINE
  5
106
100
AcDbEntity
  8
BEMAßUNG
390
0
 62
       172
100
AcDbLine
 10
150.4812008491
 20
58.3490615876
 30
0.0
 11
150.4812008491
 21
73.7184952194
 31
0.0
  0
SOLID
  5
107
100
AcDbEntity
  8
BEMAßUNG
390
0
100
AcDbTrace
 10
168.4812008491
 20
71.7184952194
 30
0.0
 11
165.5068662649
 21
71.3269166427
 31
0.0
 12
165.5068662649
 22
72.110073796
 32
0.0
 13
165.5068662649
 23
72.110073796
 33
0.0
  0
SOLID
  5
108
100
AcDbEntity
  8
BEMAßUNG
390
0
100
AcDbTrace
 10
150.4812008491
 20
71.7184952194
 30
0.0
 11
153.4555354332
 21
72.110073796
 31
0.0
 12
153.4555354332
 22
71.3269166427
 32
0.0
 13
153.4555354332
 23
71.3269166427
 33
0.0
  0
MTEXT
  5
109
100
AcDbEntity
  8
BEMAßUNG
390
0
 62
       212
100
AcDbMText
 10
159.4812008491
 20
74.9024952194
 30
0.0
 40
3.0
 41
0.0
 71
         5
 72
         1
  1
\W1.135145;\A1;18
  7
Arial
 73
         0
 44
0.0
  0
ENDBLK
  5
10A
100
AcDbEntity
  8
0
390
0
100
AcDbBlockEnd
  0
BLOCK
  5
10C
100
AcDbEntity
  8
BEMAßUNG
390
0
100
AcDbBlockBegin
  2
D133359104
 70
         0
 10
0.0
 20
0.0
 30
0.0
  3
D133359104
  1

  0
LINE
  5
10D
100
AcDbEntity
  8
BEMAßUNG
390
0
 62
       172
100
AcDbLine
 10
179.4812008491
 20
81.7184952194
 30
0.0
 11
150.4812008491
 21
81.7184952194
 31
0.0
  0
LINE
  5
10E
100
AcDbEntity
  8
BEMAßUNG
390
0
 62
       172
100
AcDbLine
 10
179.4812008491
 20
55.8490615876
 30
0.0
 11
179.4812008491
 21
83.7184952194
 31
0.0
  0
LINE
  5
10F
100
AcDbEntity
  8
BEMAßUNG
390
0
 62
       172
100
AcDbLine
 10
150.4812008491
 20
58.3490615876
 30
0.0
 11
150.4812008491
 21
83.7184952194
 31
0.0
  0
SOLID
  5
110
100
AcDbEntity
  8
BEMAßUNG
390
0
100
AcDbTrace
 10
179.4812008491
 20
81.7184952194
 30
0.0
 11
176.5068662649
 21
81.3269166427
 31
0.0
 12
176.5068662649
 22
82.110073796
 32
0.0
 13
176.5068662649
 23
82.110073796
 33
0.0
  0
SOLID
  5
111
100
AcDbEntity
  8
BEMAßUNG
390
0
100
AcDbTrace
 10
150.4812008491
 20
81.7184952194
 30
0.0
 11
153.4555354332
 21
82.110073796
 31
0.0
 12
153.4555354332
 22
81.3269166427
 32
0.0
 13
153.4555354332
 23
81.3269166427
 33
0.0
  0
MTEXT
  5
112
100
AcDbEntity
  8
BEMAßUNG
390
0
 62
       212
100
AcDbMText
 10
164.9812008491
 20
84.9024952194
 30
0.0
 40
3.0
 41
0.0
 71
         5
 72
         1
  1
\W1.135145;\A1;29
  7
Arial
 73
         0
 44
0.0
  0
ENDBLK
  5
113
100
AcDbEntity
  8
0
390
0
100
AcDbBlockEnd
  0
BLOCK
  5
115
100
AcDbEntity
  8
BEMAßUNG
390
0
100
AcDbBlockBegin
  2
D133358848
 70
         0
 10
0.0
 20
0.0
 30
0.0
  3
D133358848
  1

  0
LINE
  5
116
100
AcDbEntity
  8
BEMAßUNG
390
0
 62
       172
100
AcDbLine
 10
186.4812008491
 20
91.7184952194
 30
0.0
 11
150.4812008491
 21
91.7184952194
 31
0.0
  0
LINE
  5
117
100
AcDbEntity
  8
BEMAßUNG
390
0
 62
       172
100
AcDbLine
 10
186.4812008491
 20
55.8490615876
 30
0.0
 11
186.4812008491
 21
93.7184952194
 31
0.0
  0
LINE
  5
118
100
AcDbEntity
  8
BEMAßUNG
390
0
 62
       172
100
AcDbLine
 10
150.4812008491
 20
58.3490615876
 30
0.0
 11
150.4812008491
 21
93.7184952194
 31
0.0
  0
SOLID
  5
119
100
AcDbEntity
  8
BEMAßUNG
390
0
100
AcDbTrace
 10
186.4812008491
 20
91.7184952194
 30
0.0
 11
183.5068662649
 21
91.3269166427
 31
0.0
 12
183.5068662649
 22
92.110073796
 32
0.0
 13
183.5068662649
 23
92.110073796
 33
0.0
  0
SOLID
  5
11A
100
AcDbEntity
  8
BEMAßUNG
390
0
100
AcDbTrace
 10
150.4812008491
 20
91.7184952194
 30
0.0
 11
153.4555354332
 21
92.110073796
 31
0.0
 12
153.4555354332
 22
91.3269166427
 32
0.0
 13
153.4555354332
 23
91.3269166427
 33
0.0
  0
MTEXT
  5
11B
100
AcDbEntity
  8
BEMAßUNG
390
0
 62
       212
100
AcDbMText
 10
168.4812008491
 20
94.9024952194
 30
0.0
 40
3.0
 41
0.0
 71
         5
 72
         1
  1
\W1.135146;\A1;36
  7
Arial
 73
         0
 44
0.0
  0
ENDBLK
  5
11C
100
AcDbEntity
  8
0
390
0
100
AcDbBlockEnd
  0
BLOCK
  5
11E
100
AcDbEntity
  8
BEMAßUNG
390
0
100
AcDbBlockBegin
  2
D133358592
 70
         0
 10
0.0
 20
0.0
 30
0.0
  3
D133358592
  1

  0
LINE
  5
11F
100
AcDbEntity
  8
BEMAßUNG
390
0
 62
       172
100
AcDbLine
 10
160.7501054748
 20
120.1035458371
 30
0.0
 11
156.7501054748
 21
120.1035458371
 31
0.0
  0
LINE
  5
120
100
AcDbEntity
  8
BEMAßUNG
390
0
 62
       172
100
AcDbLine
 10
160.7501054748
 20
104.2221746086
 30
0.0
 11
160.7501054748
 21
122.1035458371
 31
0.0
  0
LINE
  5
121
100
AcDbEntity
  8
BEMAßUNG
390
0
 62
       172
100
AcDbLine
 10
156.7501054748
 20
116.7221746086
 30
0.0
 11
156.7501054748
 21
122.1035458371
 31
0.0
  0
LINE
  5
122
100
AcDbEntity
  8
BEMAßUNG
390
0
 62
       172
100
AcDbLine
 10
160.7501054748
 20
120.1035458371
 30
0.0
 11
169.5246079764
 21
120.1035458371
 31
0.0
  0
LINE
  5
123
100
AcDbEntity
  8
BEMAßUNG
390
0
 62
       172
100
AcDbLine
 10
156.7501054748
 20
120.1035458371
 30
0.0
 11
150.7114363066
 21
120.1035458371
 31
0.0
  0
SOLID
  5
124
100
AcDbEntity
  8
BEMAßUNG
390
0
100
AcDbTrace
 10
160.7501054748
 20
120.1035458371
 30
0.0
 11
163.7244400589
 21
120.4951244137
 31
0.0
 12
163.7244400589
 22
119.7119672604
 32
0.0
 13
163.7244400589
 23
119.7119672604
 33
0.0
  0
SOLID
  5
125
100
AcDbEntity
  8
BEMAßUNG
390
0
100
AcDbTrace
 10
156.7501054748
 20
120.1035458371
 30
0.0
 11
153.7757708907
 21
119.7119672604
 31
0.0
 12
153.7757708907
 22
120.4951244137
 32
0.0
 13
153.7757708907
 23
120.4951244137
 33
0.0
  0
MTEXT
  5
126
100
AcDbEntity
  8
BEMAßUNG
390
0
 62
       212
100
AcDbMText
 10
168.1116913097
 20
123.2875458371
 30
0.0
 40
3.0
 41
0.0
 71
         5
 72
         1
  1
\W1.135145;\A1;4
  7
Arial
 73
         0
 44
0.0
  0
ENDBLK
  5
127
100
AcDbEntity
  8
0
390
0
100
AcDbBlockEnd
  0
BLOCK
  5
129
100
AcDbEntity
  8
BEMAßUNG
390
0
100
AcDbBlockBegin
  2
D133358336
 70
         0
 10
0.0
 20
0.0
 30
0.0
  3
D133358336
  1

  0
LINE
  5
12A
100
AcDbEntity
  8
BEMAßUNG
390
0
 62
       172
100
AcDbLine
 10
169.7501054748
 20
130.1035458371
 30
0.0
 11
156.7501054748
 21
130.1035458371
 31
0.0
  0
LINE
  5
12B
100
AcDbEntity
  8
BEMAßUNG
390
0
 62
       172
100
AcDbLine
 10
169.7501054748
 20
104.2221746086
 30
0.0
 11
169.7501054748
 21
132.1035458371
 31
0.0
  0
LINE
  5
12C
100
AcDbEntity
  8
BEMAßUNG
390
0
 62
       172
100
AcDbLine
 10
156.7501054748
 20
116.7221746086
 30
0.0
 11
156.7501054748
 21
132.1035458371
 31
0.0
  0
SOLID
  5
12D
100
AcDbEntity
  8
BEMAßUNG
390
0
100
AcDbTrace
 10
169.7501054748
 20
130.1035458371
 30
0.0
 11
166.7757708907
 21
129.7119672604
 31
0.0
 12
166.7757708907
 22
130.4951244137
 32
0.0
 13
166.7757708907
 23
130.4951244137
 33
0.0
  0
SOLID
  5
12E
100
AcDbEntity
  8
BEMAßUNG
390
0
100
AcDbTrace
 10
156.7501054748
 20
130.1035458371
 30
0.0
 11
159.7244400589
 21
130.4951244137
 31
0.0
 12
159.7244400589
 22
129.7119672604
 32
0.0
 13
159.7244400589
 23
129.7119672604
 33
0.0
  0
MTEXT
  5
12F
100
AcDbEntity
  8
BEMAßUNG
390
0
 62
       212
100
AcDbMText
 10
163.2501054748
 20
133.2875458371
 30
0.0
 40
3.0
 41
0.0
 71
         5
 72
         1
  1
\W1.135146;\A1;13
  7
Arial
 73
         0
 44
0.0
  0
ENDBLK
  5
130
100
AcDbEntity
  8
0
390
0
100
AcDbBlockEnd
  0
BLOCK
  5
132
100
AcDbEntity
  8
BEMAßUNG
390
0
100
AcDbBlockBegin
  2
D133358080
 70
         0
 10
0.0
 20
0.0
 30
0.0
  3
D133358080
  1

  0
LINE
  5
133
100
AcDbEntity
  8
BEMAßUNG
390
0
 62
       172
100
AcDbLine
 10
174.7501054748
 20
140.1035458371
 30
0.0
 11
156.7501054748
 21
140.1035458371
 31
0.0
  0
LINE
  5
134
100
AcDbEntity
  8
BEMAßUNG
390
0
 62
       172
100
AcDbLine
 10
174.7501054748
 20
104.2221746086
 30
0.0
 11
174.7501054748
 21
142.1035458371
 31
0.0
  0
LINE
  5
135
100
AcDbEntity
  8
BEMAßUNG
390
0
 62
       172
100
AcDbLine
 10
156.7501054748
 20
116.7221746086
 30
0.0
 11
156.7501054748
 21
142.1035458371
 31
0.0
  0
SOLID
  5
136
100
AcDbEntity
  8
BEMAßUNG
390
0
100
AcDbTrace
 10
174.7501054748
 20
140.1035458371
 30
0.0
 11
171.7757708907
 21
139.7119672604
 31
0.0
 12
171.7757708907
 22
140.4951244137
 32
0.0
 13
171.7757708907
 23
140.4951244137
 33
0.0
  0
SOLID
  5
137
100
AcDbEntity
  8
BEMAßUNG
390
0
100
AcDbTrace
 10
156.7501054748
 20
140.1035458371
 30
0.0
 11
159.7244400589
 21
140.4951244137
 31
0.0
 12
159.7244400589
 22
139.7119672604
 32
0.0
 13
159.7244400589
 23
139.7119672604
 33
0.0
  0
MTEXT
  5
138
100
AcDbEntity
  8
BEMAßUNG
390
0
 62
       212
100
AcDbMText
 10
165.7501054748
 20
143.2875458371
 30
0.0
 40
3.0
 41
0.0
 71
         5
 72
         1
  1
\W1.135145;\A1;18
  7
Arial
 73
         0
 44
0.0
  0
ENDBLK
  5
139
100
AcDbEntity
  8
0
390
0
100
AcDbBlockEnd
  0
BLOCK
  5
13B
100
AcDbEntity
  8
BEMAßUNG
390
0
100
AcDbBlockBegin
  2
D133357824
 70
         0
 10
0.0
 20
0.0
 30
0.0
  3
D133357824
  1

  0
LINE
  5
13C
100
AcDbEntity
  8
BEMAßUNG
390
0
 62
       172
100
AcDbLine
 10
109.9331859956
 20
174.7420412518
 30
0.0
 11
121.9331859956
 21
174.7420412518
 31
0.0
  0
LINE
  5
13D
100
AcDbEntity
  8
BEMAßUNG
390
0
 62
       172
100
AcDbLine
 10
109.9331859956
 20
201.9744630818
 30
0.0
 11
109.9331859956
 21
172.7420412518
 31
0.0
  0
LINE
  5
13E
100
AcDbEntity
  8
BEMAßUNG
390
0
 62
       172
100
AcDbLine
 10
121.9331859956
 20
201.9744630818
 30
0.0
 11
121.9331859956
 21
172.7420412518
 31
0.0
  0
SOLID
  5
13F
100
AcDbEntity
  8
BEMAßUNG
390
0
100
AcDbTrace
 10
109.9331859956
 20
174.7420412518
 30
0.0
 11
112.9075205797
 21
175.1336198284
 31
0.0
 12
112.9075205797
 22
174.3504626751
 32
0.0
 13
112.9075205797
 23
174.3504626751
 33
0.0
  0
SOLID
  5
140
100
AcDbEntity
  8
BEMAßUNG
390
0
100
AcDbTrace
 10
121.9331859956
 20
174.7420412518
 30
0.0
 11
118.9588514114
 21
174.3504626751
 31
0.0
 12
118.9588514114
 22
175.1336198284
 32
0.0
 13
118.9588514114
 23
175.1336198284
 33
0.0
  0
MTEXT
  5
141
100
AcDbEntity
  8
BEMAßUNG
390
0
 62
       212
100
AcDbMText
 10
115.9331859956
 20
177.9260412518
 30
0.0
 40
3.0
 41
0.0
 71
         5
 72
         1
  1
\W1.135145;\A1;12
  7
Arial
 73
         0
 44
0.0
  0
ENDBLK
  5
142
100
AcDbEntity
  8
0
390
0
100
AcDbBlockEnd
  0
BLOCK
  5
144
100
AcDbEntity
  8
BEMAßUNG
390
0
100
AcDbBlockBegin
  2
D133357568
 70
         0
 10
0.0
 20
0.0
 30
0.0
  3
D133357568
  1

  0
LINE
  5
145
100
AcDbEntity
  8
BEMAßUNG
390
0
 62
       172
100
AcDbLine
 10
75.1310099573
 20
180.5237503263
 30
0.0
 11
75.1310099573
 21
108.5239527484
 31
0.0
  0
LINE
  5
146
100
AcDbEntity
  8
BEMAßUNG
390
0
 62
       172
100
AcDbLine
 10
52.0892176387
 20
180.5237503263
 30
0.0
 11
77.1310099573
 21
180.5237503263
 31
0.0
  0
LINE
  5
147
100
AcDbEntity
  8
BEMAßUNG
390
0
 62
       172
100
AcDbLine
 10
52.0892176386
 20
108.5239527484
 30
0.0
 11
77.1310099573
 21
108.5239527484
 31
0.0
  0
SOLID
  5
148
100
AcDbEntity
  8
BEMAßUNG
390
0
100
AcDbTrace
 10
75.1310099573
 20
180.5237503263
 30
0.0
 11
75.522588534
 21
177.5494157422
 31
0.0
 12
74.7394313807
 22
177.5494157422
 32
0.0
 13
74.7394313807
 23
177.5494157422
 33
0.0
  0
SOLID
  5
149
100
AcDbEntity
  8
BEMAßUNG
390
0
100
AcDbTrace
 10
75.1310099573
 20
108.5239527484
 30
0.0
 11
74.7394313807
 21
111.4982873325
 31
0.0
 12
75.522588534
 22
111.4982873325
 32
0.0
 13
75.522588534
 23
111.4982873325
 33
0.0
  0
MTEXT
  5
14A
100
AcDbEntity
  8
BEMAßUNG
390
0
 62
       212
100
AcDbMText
 10
71.9470099573
 20
144.5238515374
 30
0.0
 40
3.0
 41
0.0
 71
         5
 72
         1
  1
\W1.135145;\A1;72
  7
Arial
 11
0.0
 21
1.0
 31
0.0
 73
         0
 44
0.0
  0
ENDBLK
  5
14B
100
AcDbEntity
  8
0
390
0
100
AcDbBlockEnd
  0
BLOCK
  5
14D
100
AcDbEntity
  8
BEMAßUNG
390
0
100
AcDbBlockBegin
  2
D133373696
 70
         0
 10
0.0
 20
0.0
 30
0.0
  3
D133373696
  1

  0
LINE
  5
14E
100
AcDbEntity
  8
BEMAßUNG
390
0
 62
       172
100
AcDbLine
 10
77.6784627354
 20
274.3485544678
 30
0.0
 11
77.6784627354
 21
257.8485544696
 31
0.0
  0
LINE
  5
14F
100
AcDbEntity
  8
BEMAßUNG
390
0
 62
       172
100
AcDbLine
 10
67.0892176386
 20
274.3485544678
 30
0.0
 11
79.6784627354
 21
274.3485544678
 31
0.0
  0
LINE
  5
150
100
AcDbEntity
  8
BEMAßUNG
390
0
 62
       172
100
AcDbLine
 10
52.0892176387
 20
257.8485544696
 30
0.0
 11
79.6784627354
 21
257.8485544696
 31
0.0
  0
SOLID
  5
151
100
AcDbEntity
  8
BEMAßUNG
390
0
100
AcDbTrace
 10
77.6784627354
 20
274.3485544678
 30
0.0
 11
78.0700413121
 21
271.3742198837
 31
0.0
 12
77.2868841587
 22
271.3742198837
 32
0.0
 13
77.2868841587
 23
271.3742198837
 33
0.0
  0
SOLID
  5
152
100
AcDbEntity
  8
BEMAßUNG
390
0
100
AcDbTrace
 10
77.6784627354
 20
257.8485544696
 30
0.0
 11
77.2868841587
 21
260.8228890538
 31
0.0
 12
78.0700413121
 22
260.8228890538
 32
0.0
 13
78.0700413121
 23
260.8228890538
 33
0.0
  0
MTEXT
  5
153
100
AcDbEntity
  8
BEMAßUNG
390
0
 62
       212
100
AcDbMText
 10
74.4944627354
 20
266.0985544687
 30
0.0
 40
3.0
 41
0.0
 71
         5
 72
         1
  1
\W1.135134;\A1;16.5
  7
Arial
 11
0.0
 21
1.0
 31
0.0
 73
         0
 44
0.0
  0
ENDBLK
  5
154
100
AcDbEntity
  8
0
390
0
100
AcDbBlockEnd
  0
BLOCK
  5
156
100
AcDbEntity
  8
BEMAßUNG
390
0
100
AcDbBlockBegin
  2
D133373440
 70
         0
 10
0.0
 20
0.0
 30
0.0
  3
D133373440
  1

  0
LINE
  5
157
100
AcDbEntity
  8
BEMAßUNG
390
0
 62
       172
100
AcDbLine
 10
76.8772624335
 20
247.1957436722
 30
0.0
 11
76.8772624335
 21
229.1957436722
 31
0.0
  0
LINE
  5
158
100
AcDbEntity
  8
BEMAßUNG
390
0
 62
       172
100
AcDbLine
 10
52.0892176386
 20
247.1957436722
 30
0.0
 11
78.8772624335
 21
247.1957436722
 31
0.0
  0
LINE
  5
159
100
AcDbEntity
  8
BEMAßUNG
390
0
 62
       172
100
AcDbLine
 10
52.0892176386
 20
229.1957436722
 30
0.0
 11
78.8772624335
 21
229.1957436722
 31
0.0
  0
SOLID
  5
15A
100
AcDbEntity
  8
BEMAßUNG
390
0
100
AcDbTrace
 10
76.8772624335
 20
247.1957436722
 30
0.0
 11
77.2688410102
 21
244.2214090881
 31
0.0
 12
76.4856838568
 22
244.2214090881
 32
0.0
 13
76.4856838568
 23
244.2214090881
 33
0.0
  0
SOLID
  5
15B
100
AcDbEntity
  8
BEMAßUNG
390
0
100
AcDbTrace
 10
76.8772624335
 20
229.1957436722
 30
0.0
 11
76.4856838568
 21
232.1700782563
 31
0.0
 12
77.2688410102
 22
232.1700782563
 32
0.0
 13
77.2688410102
 23
232.1700782563
 33
0.0
  0
MTEXT
  5
15C
100
AcDbEntity
  8
BEMAßUNG
390
0
 62
       212
100
AcDbMText
 10
73.6932624335
 20
238.1957436722
 30
0.0
 40
3.0
 41
0.0
 71
         5
 72
         1
  1
\W1.135145;\A1;18
  7
Arial
 11
0.0
 21
1.0
 31
0.0
 73
         0
 44
0.0
  0
ENDBLK
  5
15D
100
AcDbEntity
  8
0
390
0
100
AcDbBlockEnd
  0
BLOCK
  5
15F
100
AcDbEntity
  8
BEMAßUNG
390
0
100
AcDbBlockBegin
  2
D133373184
 70
         0
 10
0.0
 20
0.0
 30
0.0
  3
D133373184
  1

  0
LINE
  5
160
100
AcDbEntity
  8
BEMAßUNG
390
0
 62
       172
100
AcDbLine
 10
76.5445404621
 20
215.2352972011
 30
0.0
 11
76.6149730273
 21
194.2355334298
 31
0.0
  0
LINE
  5
161
100
AcDbEntity
  8
BEMAßUNG
390
0
 62
       172
100
AcDbLine
 10
52.0892176386
 20
215.1532747966
 30
0.0
 11
78.5445292131
 21
215.2420051022
 31
0.0
  0
LINE
  5
162
100
AcDbEntity
  8
BEMAßUNG
390
0
 62
       172
100
AcDbLine
 10
52.0892176387
 20
194.1532747966
 30
0.0
 11
78.6149617783
 21
194.2422413309
 31
0.0
  0
SOLID
  5
163
100
AcDbEntity
  8
BEMAßUNG
390
0
100
AcDbTrace
 10
76.5445404621
 20
215.2352972011
 30
0.0
 11
76.9460926074
 21
212.2622926813
 31
0.0
 12
76.162939859
 22
212.259666011
 32
0.0
 13
76.162939859
 23
212.259666011
 33
0.0
  0
SOLID
  5
164
100
AcDbEntity
  8
BEMAßUNG
390
0
100
AcDbTrace
 10
76.6149730273
 20
194.2355334298
 30
0.0
 11
76.213420882
 21
197.2085379495
 31
0.0
 12
76.9965736304
 22
197.2111646199
 32
0.0
 13
76.9965736304
 23
197.2111646199
 33
0.0
  0
MTEXT
  5
165
100
AcDbEntity
  8
BEMAßUNG
390
0
 62
       212
100
AcDbMText
 10
79.7637388363
 20
204.746094294
 30
0.0
 40
3.0
 41
0.0
 71
         5
 72
         1
  1
\W1.135145;\A1;21
  7
Arial
 11
0.0033539505
 21
-0.9999943755
 31
0.0
 73
         0
 44
0.0
  0
ENDBLK
  5
166
100
AcDbEntity
  8
0
390
0
100
AcDbBlockEnd
  0
BLOCK
  5
168
100
AcDbEntity
  8
BEMAßUNG
390
0
100
AcDbBlockBegin
  2
D133372928
 70
         0
 10
0.0
 20
0.0
 30
0.0
  3
D133372928
  1

  0
LINE
  5
169
100
AcDbEntity
  8
BEMAßUNG
390
0
 62
       172
100
AcDbLine
 10
75.1402052482
 20
88.7663785555
 30
0.0
 11
75.1402052482
 21
8.7663785573
 31
0.0
  0
LINE
  5
16A
100
AcDbEntity
  8
BEMAßUNG
390
0
 62
       172
100
AcDbLine
 10
52.0892176386
 20
88.7663785554
 30
0.0
 11
77.1402052482
 21
88.7663785555
 31
0.0
  0
LINE
  5
16B
100
AcDbEntity
  8
BEMAßUNG
390
0
 62
       172
100
AcDbLine
 10
52.0892176387
 20
8.7663785573
 30
0.0
 11
77.1402052482
 21
8.7663785573
 31
0.0
  0
SOLID
  5
16C
100
AcDbEntity
  8
BEMAßUNG
390
0
100
AcDbTrace
 10
75.1402052482
 20
88.7663785555
 30
0.0
 11
75.5317838248
 21
85.7920439713
 31
0.0
 12
74.7486266715
 22
85.7920439713
 32
0.0
 13
74.7486266715
 23
85.7920439713
 33
0.0
  0
SOLID
  5
16D
100
AcDbEntity
  8
BEMAßUNG
390
0
100
AcDbTrace
 10
75.1402052482
 20
8.7663785573
 30
0.0
 11
74.7486266716
 21
11.7407131414
 31
0.0
 12
75.5317838249
 22
11.7407131414
 32
0.0
 13
75.5317838249
 23
11.7407131414
 33
0.0
  0
MTEXT
  5
16E
100
AcDbEntity
  8
BEMAßUNG
390
0
 62
       212
100
AcDbMText
 10
71.9562052482
 20
48.7663785564
 30
0.0
 40
3.0
 41
0.0
 71
         5
 72
         1
  1
\W1.135145;\A1;80
  7
Arial
 11
0.0
 21
1.0
 31
0.0
 73
         0
 44
0.0
  0
ENDBLK
  5
16F
100
AcDbEntity
  8
0
390
0
100
AcDbBlockEnd
  0
BLOCK
  5
171
100
AcDbEntity
  8
BEMAßUNG
390
0
100
AcDbBlockBegin
  2
D133372672
 70
         0
 10
0.0
 20
0.0
 30
0.0
  3
D133372672
  1

  0
LINE
  5
172
100
AcDbEntity
  8
BEMAßUNG
390
0
 62
       172
100
AcDbLine
 10
129.6211280653
 20
201.9744630818
 30
0.0
 11
129.6211280653
 21
184.9744630818
 31
0.0
  0
LINE
  5
173
100
AcDbEntity
  8
BEMAßUNG
390
0
 62
       172
100
AcDbLine
 10
119.9331859956
 20
201.9744630818
 30
0.0
 11
131.6211280653
 21
201.9744630818
 31
0.0
  0
LINE
  5
174
100
AcDbEntity
  8
BEMAßUNG
390
0
 62
       172
100
AcDbLine
 10
111.9331859956
 20
184.9744630818
 30
0.0
 11
131.6211280653
 21
184.9744630818
 31
0.0
  0
SOLID
  5
175
100
AcDbEntity
  8
BEMAßUNG
390
0
100
AcDbTrace
 10
129.6211280653
 20
201.9744630818
 30
0.0
 11
130.0127066419
 21
199.0001284977
 31
0.0
 12
129.2295494886
 22
199.0001284977
 32
0.0
 13
129.2295494886
 23
199.0001284977
 33
0.0
  0
SOLID
  5
176
100
AcDbEntity
  8
BEMAßUNG
390
0
100
AcDbTrace
 10
129.6211280653
 20
184.9744630818
 30
0.0
 11
129.2295494886
 21
187.9487976659
 31
0.0
 12
130.0127066419
 22
187.9487976659
 32
0.0
 13
130.0127066419
 23
187.9487976659
 33
0.0
  0
MTEXT
  5
177
100
AcDbEntity
  8
BEMAßUNG
390
0
 62
       212
100
AcDbMText
 10
126.4371280653
 20
193.4744630818
 30
0.0
 40
3.0
 41
0.0
 71
         5
 72
         1
  1
\W1.135145;\A1;17
  7
Arial
 11
0.0
 21
1.0
 31
0.0
 73
         0
 44
0.0
  0
ENDBLK
  5
178
100
AcDbEntity
  8
0
390
0
100
AcDbBlockEnd
  0
BLOCK
  5
17A
100
AcDbEntity
  8
BEMAßUNG
390
0
100
AcDbBlockBegin
  2
D133372416
 70
         0
 10
0.0
 20
0.0
 30
0.0
  3
D133372416
  1

  0
LINE
  5
17B
100
AcDbEntity
  8
BEMAßUNG
390
0
 62
       172
100
AcDbLine
 10
198.1262970814
 20
269.2675262317
 30
0.0
 11
198.1262970814
 21
222.2675262317
 31
0.0
  0
LINE
  5
17C
100
AcDbEntity
  8
BEMAßUNG
390
0
 62
       172
100
AcDbLine
 10
156.583475641
 20
269.2675262317
 30
0.0
 11
200.1262970814
 21
269.2675262317
 31
0.0
  0
LINE
  5
17D
100
AcDbEntity
  8
BEMAßUNG
390
0
 62
       172
100
AcDbLine
 10
184.083475641
 20
222.2675262317
 30
0.0
 11
200.1262970814
 21
222.2675262317
 31
0.0
  0
SOLID
  5
17E
100
AcDbEntity
  8
BEMAßUNG
390
0
100
AcDbTrace
 10
198.1262970814
 20
269.2675262317
 30
0.0
 11
198.5178756581
 21
266.2931916476
 31
0.0
 12
197.7347185047
 22
266.2931916476
 32
0.0
 13
197.7347185047
 23
266.2931916476
 33
0.0
  0
SOLID
  5
17F
100
AcDbEntity
  8
BEMAßUNG
390
0
100
AcDbTrace
 10
198.1262970814
 20
222.2675262317
 30
0.0
 11
197.7347185047
 21
225.2418608158
 31
0.0
 12
198.5178756581
 22
225.2418608158
 32
0.0
 13
198.5178756581
 23
225.2418608158
 33
0.0
  0
MTEXT
  5
180
100
AcDbEntity
  8
BEMAßUNG
390
0
 62
       212
100
AcDbMText
 10
194.9422970814
 20
245.7675262317
 30
0.0
 40
3.0
 41
0.0
 71
         5
 72
         1
  1
\W1.135145;\A1;47
  7
Arial
 11
0.0
 21
1.0
 31
0.0
 73
         0
 44
0.0
  0
ENDBLK
  5
181
100
AcDbEntity
  8
0
390
0
100
AcDbBlockEnd
  0
BLOCK
  5
183
100
AcDbEntity
  8
BEMAßUNG
390
0
100
AcDbBlockBegin
  2
D133372160
 70
         0
 10
0.0
 20
0.0
 30
0.0
  3
D133372160
  1

  0
LINE
  5
184
100
AcDbEntity
  8
BEMAßUNG
390
0
 62
       172
100
AcDbLine
 10
198.1262970814
 20
205.2625475688
 30
0.0
 11
198.1262970814
 21
158.2625475688
 31
0.0
  0
LINE
  5
185
100
AcDbEntity
  8
BEMAßUNG
390
0
 62
       172
100
AcDbLine
 10
156.583475641
 20
205.2625475688
 30
0.0
 11
200.1262970814
 21
205.2625475688
 31
0.0
  0
LINE
  5
186
100
AcDbEntity
  8
BEMAßUNG
390
0
 62
       172
100
AcDbLine
 10
156.583475641
 20
158.2625475688
 30
0.0
 11
200.1262970814
 21
158.2625475688
 31
0.0
  0
SOLID
  5
187
100
AcDbEntity
  8
BEMAßUNG
390
0
100
AcDbTrace
 10
198.1262970814
 20
205.2625475688
 30
0.0
 11
198.5178756581
 21
202.2882129847
 31
0.0
 12
197.7347185047
 22
202.2882129847
 32
0.0
 13
197.7347185047
 23
202.2882129847
 33
0.0
  0
SOLID
  5
188
100
AcDbEntity
  8
BEMAßUNG
390
0
100
AcDbTrace
 10
198.1262970814
 20
158.2625475688
 30
0.0
 11
197.7347185047
 21
161.2368821529
 31
0.0
 12
198.5178756581
 22
161.2368821529
 32
0.0
 13
198.5178756581
 23
161.2368821529
 33
0.0
  0
MTEXT
  5
189
100
AcDbEntity
  8
BEMAßUNG
390
0
 62
       212
100
AcDbMText
 10
194.9422970814
 20
181.7625475688
 30
0.0
 40
3.0
 41
0.0
 71
         5
 72
         1
  1
\W1.135145;\A1;47
  7
Arial
 11
0.0
 21
1.0
 31
0.0
 73
         0
 44
0.0
  0
ENDBLK
  5
18A
100
AcDbEntity
  8
0
390
0
100
AcDbBlockEnd
  0
BLOCK
  5
18C
100
AcDbEntity
  8
BEMAßUNG
390
0
100
AcDbBlockBegin
  2
D133371904
 70
         0
 10
0.0
 20
0.0
 30
0.0
  3
D133371904
  1

  0
LINE
  5
18D
100
AcDbEntity
  8
BEMAßUNG
390
0
 62
       172
100
AcDbLine
 10
122.2120086114
 20
249.2500538631
 30
0.0
 11
122.2120086115
 21
235.2500538631
 31
0.0
  0
LINE
  5
18E
100
AcDbEntity
  8
BEMAßUNG
390
0
 62
       172
100
AcDbLine
 10
105.9114816146
 20
249.250053863
 30
0.0
 11
124.2120086114
 21
249.2500538631
 31
0.0
  0
LINE
  5
18F
100
AcDbEntity
  8
BEMAßUNG
390
0
 62
       172
100
AcDbLine
 10
105.9114816146
 20
235.250053863
 30
0.0
 11
124.2120086115
 21
235.2500538631
 31
0.0
  0
SOLID
  5
190
100
AcDbEntity
  8
BEMAßUNG
390
0
100
AcDbTrace
 10
122.2120086114
 20
249.2500538631
 30
0.0
 11
122.6035871881
 21
246.275719279
 31
0.0
 12
121.8204300348
 22
246.275719279
 32
0.0
 13
121.8204300348
 23
246.275719279
 33
0.0
  0
SOLID
  5
191
100
AcDbEntity
  8
BEMAßUNG
390
0
100
AcDbTrace
 10
122.2120086115
 20
235.2500538631
 30
0.0
 11
121.8204300348
 21
238.2243884472
 31
0.0
 12
122.6035871882
 22
238.2243884472
 32
0.0
 13
122.6035871882
 23
238.2243884472
 33
0.0
  0
MTEXT
  5
192
100
AcDbEntity
  8
BEMAßUNG
390
0
 62
       212
100
AcDbMText
 10
119.0280086115
 20
242.2500538631
 30
0.0
 40
3.0
 41
0.0
 71
         5
 72
         1
  1
\W1.135145;\A1;14
  7
Arial
 11
0.0
 21
1.0
 31
0.0
 73
         0
 44
0.0
  0
ENDBLK
  5
193
100
AcDbEntity
  8
0
390
0
100
AcDbBlockEnd
  0
ENDSEC
  0
SECTION
  2
ENTITIES
  0
TEXT
  5
194
100
AcDbEntity
  8
BESCHRIFTUNG
390
0
100
AcDbText
 10
129.6929117117
 20
6.9230888889
 30
0.0
 40
3.3
  1
2654 Pv W- und Gsp-Antrieb
 41
1.1437037866
  7
Arial
 11
129.6929117117
 21
10.2230888889
 31
0.0
100
AcDbText
 73
         3
  0
TEXT
  5
195
100
AcDbEntity
  8
BESCHRIFTUNG
390
0
100
AcDbText
 10
129.6929117117
 20
29.3230888889
 30
0.0
 40
3.3
  1
2026-02-03
 41
1.0318366
  7
Arial
 11
129.6929117117
 21
32.6230888889
 31
0.0
100
AcDbText
 73
         3
  0
LINE
  5
196
100
AcDbEntity
  8
2654_1_3 RAHMEN
390
0
  6
DASHED
100
AcDbLine
 10
185.583475641
 20
268.2675262317
 30
0.0
 11
185.583475641
 21
223.2675262317
 31
0.0
  0
LINE
  5
197
100
AcDbEntity
  8
2654_1_3 RAHMEN
390
0
100
AcDbLine
 10
187.583475641
 20
268.2675262317
 30
0.0
 11
187.583475641
 21
223.2675262317
 31
0.0
  0
LINE
  5
198
100
AcDbEntity
  8
2654_1_3 RAHMEN
390
0
  6
DASHED
100
AcDbLine
 10
159.583475641
 20
268.2675262317
 30
0.0
 11
159.583475641
 21
223.2675262317
 31
0.0
  0
LINE
  5
199
100
AcDbEntity
  8
2654_1_3 RAHMEN
390
0
100
AcDbLine
 10
157.583475641
 20
268.2675262317
 30
0.0
 11
157.583475641
 21
223.2675262317
 31
0.0
  0
LINE
  5
19A
100
AcDbEntity
  8
2654_1_3 RAHMEN
390
0
100
AcDbLine
 10
157.583475641
 20
268.2675262317
 30
0.0
 11
187.583475641
 21
268.2675262317
 31
0.0
  0
LINE
  5
19B
100
AcDbEntity
  8
2654_1_3 RAHMEN
390
0
100
AcDbLine
 10
157.583475641
 20
223.2675262317
 30
0.0
 11
176.083475641
 21
223.2675262317
 31
0.0
  0
CIRCLE
  5
19C
100
AcDbEntity
  8
2654_1P
390
0
100
AcDbCircle
 10
162.9327415359
 20
226.2675262317
 30
0.0
 40
1.25
  0
TEXT
  5
19D
100
AcDbEntity
  8
BESCHRIFTUNG
390
0
100
AcDbText
 10
148.2357892935
 20
278.1393137944
 30
0.0
 40
3.0
  1
2654.1P
 41
1.1350984069
  7
Arial
 11
148.2357892935
 21
281.1393137944
 31
0.0
100
AcDbText
 73
         3
  0
ARC
  5
19E
100
AcDbEntity
  8
2654_4-6_9 DREHHEBEL
390
0
100
AcDbCircle
 10
56.9537859651
 20
235.9947428916
 30
0.0
 40
1.1631622046
100
AcDbArc
 50
73.0637410281
 51
236.9362589719
  0
ARC
  5
19F
100
AcDbEntity
  8
2654_4-6_9 DREHHEBEL
390
0
100
AcDbCircle
 10
58.4605904092
 20
241.9691300667
 30
0.0
 40
5.0
100
AcDbArc
 50
256.4912840168
 51
286.5287562667
  0
ARC
  5
1A0
100
AcDbEntity
  8
2654_4-6_9 DREHHEBEL
390
0
100
AcDbCircle
 10
57.8518169531
 20
235.0108176226
 30
0.0
 40
5.0
100
AcDbArc
 50
63.4712437333
 51
93.5087159832
  0
ARC
  5
1A1
100
AcDbEntity
  8
2654_4-6_9 DREHHEBEL
390
0
100
AcDbCircle
 10
53.3456950955
 20
231.0002016688
 30
0.0
 40
5.0
100
AcDbArc
 50
23.4712437333
 51
53.5087159832
  0
ARC
  5
1A2
100
AcDbEntity
  8
2654_4-6_9 DREHHEBEL
390
0
100
AcDbCircle
 10
58.7295725868
 20
240.9609123685
 30
0.0
 40
5.0
100
AcDbArc
 50
103.3472487909
 51
131.6717350283
  0
ARC
  5
1A3
100
AcDbEntity
  8
2654_4-6_9 DREHHEBEL
390
0
100
AcDbCircle
 10
54.7355948795
 20
246.6912578435
 30
0.0
 40
5.0
100
AcDbArc
 50
296.3672890745
 51
326.4047613244
  0
ARC
  5
1A4
100
AcDbEntity
  8
2654_4-6_9 DREHHEBEL
390
0
100
AcDbCircle
 10
57.4095709983
 20
241.1402567206
 30
0.0
 40
1.1631622046
100
AcDbArc
 50
112.9397460857
 51
276.8122640296
  0
ARC
  5
1A5
100
AcDbEntity
  8
2654_7 STELLHEBEL
390
0
100
AcDbCircle
 10
65.9311204633
 20
204.6587756552
 30
0.0
 40
5.0
100
AcDbArc
 50
246.4912840168
 51
276.5287562667
  0
ARC
  5
1A6
100
AcDbEntity
  8
2654_7 STELLHEBEL
390
0
100
AcDbCircle
 10
64.1232973684
 20
197.9118880137
 30
0.0
 40
5.0
100
AcDbArc
 50
53.4712437333
 51
83.5087159832
  0
ARC
  5
1A7
100
AcDbEntity
  8
2654_7 STELLHEBEL
390
0
100
AcDbCircle
 10
64.7507251092
 20
204.0413330277
 30
0.0
 40
1.1631622046
100
AcDbArc
 50
103.0637410281
 51
266.9362589719
  0
ARC
  5
1A8
100
AcDbEntity
  8
2654_7 STELLHEBEL
390
0
100
AcDbCircle
 10
58.9891974753
 20
194.7446821769
 30
0.0
 40
5.0
100
AcDbArc
 50
5.1456857694
 51
43.5087159832
  0
ARC
  5
1A9
100
AcDbEntity
  8
2654_7 STELLHEBEL
390
0
100
AcDbCircle
 10
63.4097663189
 20
199.0368066915
 30
0.0
 40
1.1631622046
100
AcDbArc
 50
63.0637410281
 51
226.9362589719
  0
ARC
  5
1AA
100
AcDbEntity
  8
2654_7 STELLHEBEL
390
0
100
AcDbCircle
 10
66.0204053927
 20
203.6382442433
 30
0.0
 40
5.0
100
AcDbArc
 50
93.4712437333
 51
123.5087159832
  0
ARC
  5
1AB
100
AcDbEntity
  8
2654_7 STELLHEBEL
390
0
100
AcDbCircle
 10
63.0684624488
 20
209.9687063154
 30
0.0
 40
5.0
100
AcDbArc
 50
286.4912840168
 51
316.5287562667
  0
ARC
  5
1AC
100
AcDbEntity
  8
2654_7 STELLHEBEL
390
0
100
AcDbCircle
 10
62.5611116177
 20
208.7369743134
 30
0.0
 40
1.1631622046
100
AcDbArc
 50
143.0637410281
 51
306.9362589719
  0
ARC
  5
1AD
100
AcDbEntity
  8
2654_7 STELLHEBEL
390
0
100
AcDbCircle
 10
57.4623815475
 20
212.1962680884
 30
0.0
 40
5.0
100
AcDbArc
 50
326.4912840168
 51
356.5287562667
  0
ARC
  5
1AE
100
AcDbEntity
  8
2654_4-6_9 DREHHEBEL
390
0
100
AcDbCircle
 10
58.2847596421
 20
235.9392662153
 30
0.0
 40
5.0
100
AcDbArc
 50
216.4912840168
 51
246.5287562667
  0
ARC
  5
1AF
100
AcDbEntity
  8
2654_4-6_9 DREHHEBEL
390
0
100
AcDbCircle
 10
50.0892176387
 20
239.1957436722
 30
0.0
 40
10.0
100
AcDbArc
 50
308.3460681234
 51
321.6539318766
  0
ARC
  5
1B0
100
AcDbEntity
  8
2654_4-6_9 DREHHEBEL
390
0
100
AcDbCircle
 10
53.2902184192
 20
232.3311753458
 30
0.0
 40
1.1631622046
100
AcDbArc
 50
33.0637410281
 51
196.9362589719
  0
CIRCLE
  5
1B1
100
AcDbEntity
  8
2654_11L
390
0
100
AcDbCircle
 10
47.2345680634
 20
12.7665809782
 30
0.0
 40
1.25
  0
CIRCLE
  5
1B2
100
AcDbEntity
  8
2654_11L
390
0
100
AcDbCircle
 10
47.2345680634
 20
84.768843189
 30
0.0
 40
1.25
  0
LINE
  5
1B3
100
AcDbEntity
  8
2654_1_3 RAHMEN
390
0
100
AcDbLine
 10
185.083475641
 20
223.2675262317
 30
0.0
 11
185.083475641
 21
229.1653103878
 31
0.0
  0
LINE
  5
1B4
100
AcDbEntity
  8
2654_4-6_9 DREHHEBEL
390
0
100
AcDbLine
 10
39.0892176387
 20
273.3485544678
 30
0.0
 11
65.0892176387
 21
273.3485544678
 31
0.0
  0
LINE
  5
1B5
100
AcDbEntity
  8
2654_4-6_9 DREHHEBEL
390
0
100
AcDbLine
 10
52.0892176387
 20
244.6957436722
 30
0.0
 11
55.4052628641
 21
244.6957436722
 31
0.0
  0
LINE
  5
1B6
100
AcDbEntity
  8
2654_4-6_9 DREHHEBEL
390
0
100
AcDbLine
 10
45.3813336111
 20
258.8485544678
 30
0.0
 11
65.0892176387
 21
258.8485544678
 31
0.0
  0
LINE
  5
1B7
100
AcDbEntity
  8
2654_4-6_9 DREHHEBEL
390
0
100
AcDbLine
 10
53.3507409803
 20
230.1957436722
 30
0.0
 11
54.0892176387
 21
230.1957436722
 31
0.0
  0
LINE
  5
1B8
100
AcDbEntity
  8
2654_4-6_9 DREHHEBEL
390
0
100
AcDbLine
 10
45.3813336111
 20
258.8485544678
 30
0.0
 11
39.0892176387
 21
264.3824478143
 31
0.0
  0
LINE
  5
1B9
100
AcDbEntity
  8
2654_11 RIEGELSCHIEBER
390
0
100
AcDbLine
 10
42.9999184881
 20
9.7663785573
 30
0.0
 11
52.0892176387
 21
9.7663785573
 31
0.0
  0
LINE
  5
1BA
100
AcDbEntity
  8
2654_11 RIEGELSCHIEBER
390
0
100
AcDbLine
 10
42.9999184881
 20
87.7663785573
 30
0.0
 11
52.0892176387
 21
87.7663785573
 31
0.0
  0
LINE
  5
1BB
100
AcDbEntity
  8
2654_11 RIEGELSCHIEBER
390
0
100
AcDbLine
 10
42.9999184881
 20
87.7663785573
 30
0.0
 11
42.9999184881
 21
54.7591687771
 31
0.0
  0
LINE
  5
1BC
100
AcDbEntity
  8
2654_11 RIEGELSCHIEBER
390
0
  6
DASHED
100
AcDbLine
 10
50.0892176387
 20
9.7663785573
 30
0.0
 11
50.0892176387
 21
87.7663785573
 31
0.0
  0
LINE
  5
1BD
100
AcDbEntity
  8
2654_11 RIEGELSCHIEBER
390
0
100
AcDbLine
 10
42.9999184881
 20
33.7693929871
 30
0.0
 11
49.0892176387
 21
33.7693929871
 31
0.0
  0
LINE
  5
1BE
100
AcDbEntity
  8
2654_11 RIEGELSCHIEBER
390
0
100
AcDbLine
 10
42.9999184881
 20
33.7693929871
 30
0.0
 11
42.9999184881
 21
9.7663785573
 31
0.0
  0
LINE
  5
1BF
100
AcDbEntity
  8
2654_11 RIEGELSCHIEBER
390
0
100
AcDbLine
 10
52.0892176387
 20
9.7663785573
 30
0.0
 11
52.0892176387
 21
87.7663785573
 31
0.0
  0
LINE
  5
1C0
100
AcDbEntity
  8
2654_11 RIEGELSCHIEBER
390
0
100
AcDbLine
 10
49.0892176387
 20
33.7693929871
 30
0.0
 11
49.0892176387
 21
39.2693929871
 31
0.0
  0
LINE
  5
1C1
100
AcDbEntity
  8
2654_11 RIEGELSCHIEBER
390
0
100
AcDbLine
 10
49.0892176387
 20
39.2693929871
 30
0.0
 11
50.0892176387
 21
39.2693929871
 31
0.0
  0
LINE
  5
1C2
100
AcDbEntity
  8
2654_11 RIEGELSCHIEBER
390
0
100
AcDbLine
 10
49.0892176387
 20
49.2591687771
 30
0.0
 11
50.0892176387
 21
49.2591687771
 31
0.0
  0
LINE
  5
1C3
100
AcDbEntity
  8
2654_11 RIEGELSCHIEBER
390
0
  6
DASHED
100
AcDbLine
 10
50.0892176387
 20
49.2591687771
 30
0.0
 11
52.0892176387
 21
49.2591687771
 31
0.0
  0
LINE
  5
1C4
100
AcDbEntity
  8
2654_11 RIEGELSCHIEBER
390
0
100
AcDbLine
 10
42.9999184881
 20
54.7591687771
 30
0.0
 11
49.0892176387
 21
54.7591687771
 31
0.0
  0
LINE
  5
1C5
100
AcDbEntity
  8
2654_11 RIEGELSCHIEBER
390
0
100
AcDbLine
 10
49.0892176387
 20
54.7591687771
 30
0.0
 11
49.0892176387
 21
49.2591687771
 31
0.0
  0
LINE
  5
1C6
100
AcDbEntity
  8
2654_11 RIEGELSCHIEBER
390
0
100
AcDbLine
 10
57.0892176387
 20
49.2691687753
 30
0.0
 11
52.0892176387
 21
49.2691687753
 31
0.0
  0
LINE
  5
1C7
100
AcDbEntity
  8
2654_11 RIEGELSCHIEBER
390
0
100
AcDbLine
 10
57.0892176387
 20
39.2691687753
 30
0.0
 11
52.0892176387
 21
39.2691687753
 31
0.0
  0
LINE
  5
1C8
100
AcDbEntity
  8
2654_11 RIEGELSCHIEBER
390
0
100
AcDbLine
 10
57.0892176387
 20
39.2691687753
 30
0.0
 11
57.0892176387
 21
49.2691687753
 31
0.0
  0
LINE
  5
1C9
100
AcDbEntity
  8
2654_1_3 RAHMEN
390
0
100
AcDbLine
 10
185.083475641
 20
223.2675262317
 30
0.0
 11
187.583475641
 21
223.2675262317
 31
0.0
  0
LINE
  5
1CA
100
AcDbEntity
  8
2654_4-6_9 DREHHEBEL
390
0
100
AcDbLine
 10
105.9114816146
 20
248.250053863
 30
0.0
 11
111.9114816146
 21
248.250053863
 31
0.0
  0
LINE
  5
1CB
100
AcDbEntity
  8
2654_4-6_9 DREHHEBEL
390
0
100
AcDbLine
 10
111.9114816146
 20
248.250053863
 30
0.0
 11
111.9114816146
 21
236.250053863
 31
0.0
  0
LINE
  5
1CC
100
AcDbEntity
  8
2654_4-6_9 DREHHEBEL
390
0
100
AcDbLine
 10
111.9114816146
 20
243.250053863
 30
0.0
 11
105.9114816146
 21
243.250053863
 31
0.0
  0
LINE
  5
1CD
100
AcDbEntity
  8
2654_4-6_9 DREHHEBEL
390
0
100
AcDbLine
 10
105.9114816146
 20
236.250053863
 30
0.0
 11
105.9114816146
 21
248.250053863
 31
0.0
  0
LINE
  5
1CE
100
AcDbEntity
  8
2654_4-6_9 DREHHEBEL
390
0
100
AcDbLine
 10
111.9114816146
 20
236.250053863
 30
0.0
 11
105.9114816146
 21
236.250053863
 31
0.0
  0
LINE
  5
1CF
100
AcDbEntity
  8
2654_4-6_9 DREHHEBEL
390
0
  6
DASHED
100
AcDbLine
 10
106.9114816146
 20
248.250053863
 30
0.0
 11
106.9114816146
 21
236.250053863
 31
0.0
  0
LINE
  5
1D0
100
AcDbEntity
  8
2654_4-6_9 DREHHEBEL
390
0
  6
DASHED
100
AcDbLine
 10
110.9114816146
 20
248.250053863
 30
0.0
 11
110.9114816146
 21
236.250053863
 31
0.0
  0
CIRCLE
  5
1D1
100
AcDbEntity
  8
2654_1P
390
0
100
AcDbCircle
 10
162.9327415359
 20
265.2675262317
 30
0.0
 40
1.25
  0
CIRCLE
  5
1D2
100
AcDbEntity
  8
2654_10L
390
0
100
AcDbCircle
 10
47.2345680634
 20
112.5239527472
 30
0.0
 40
1.25
  0
CIRCLE
  5
1D3
100
AcDbEntity
  8
2654_10L
390
0
100
AcDbCircle
 10
47.2345680634
 20
176.526214958
 30
0.0
 40
1.25
  0
ARC
  5
1D4
100
AcDbEntity
  8
2654_10 ZUNGENSCHIEBER
390
0
100
AcDbCircle
 10
60.2399517438
 20
119.0239527484
 30
0.0
 40
1.5
100
AcDbArc
 50
180.0
 51
360.0
  0
ARC
  5
1D5
100
AcDbEntity
  8
2654_10 ZUNGENSCHIEBER
390
0
100
AcDbCircle
 10
60.2399517438
 20
131.0239527484
 30
0.0
 40
1.5
100
AcDbArc
 50
0.0
 51
180.0
  0
ARC
  5
1D6
100
AcDbEntity
  8
2654_10 ZUNGENSCHIEBER
390
0
100
AcDbCircle
 10
60.2399517438
 20
158.0237503275
 30
0.0
 40
1.5
100
AcDbArc
 50
180.0
 51
360.0
  0
ARC
  5
1D7
100
AcDbEntity
  8
2654_10 ZUNGENSCHIEBER
390
0
100
AcDbCircle
 10
60.2399517438
 20
170.0237503275
 30
0.0
 40
1.5
100
AcDbArc
 50
0.0
 51
180.0
  0
CIRCLE
  5
1D8
100
AcDbEntity
  8
2654_10R
390
0
100
AcDbCircle
 10
60.2345680634
 20
176.5262149592
 30
0.0
 40
1.25
  0
CIRCLE
  5
1D9
100
AcDbEntity
  8
2654_10R
390
0
100
AcDbCircle
 10
60.2345680634
 20
112.5239527484
 30
0.0
 40
1.25
  0
ARC
  5
1DA
100
AcDbEntity
  8
2654_11 RIEGELSCHIEBER
390
0
100
AcDbCircle
 10
60.2399517438
 20
17.2620650364
 30
0.0
 40
1.5
100
AcDbArc
 50
180.0
 51
360.0
  0
ARC
  5
1DB
100
AcDbEntity
  8
2654_11 RIEGELSCHIEBER
390
0
100
AcDbCircle
 10
60.2399517438
 20
41.2620650364
 30
0.0
 40
1.5
100
AcDbArc
 50
0.0
 51
180.0
  0
ARC
  5
1DC
100
AcDbEntity
  8
2654_11 RIEGELSCHIEBER
390
0
100
AcDbCircle
 10
60.2399517438
 20
56.2618626155
 30
0.0
 40
1.5
100
AcDbArc
 50
180.0
 51
360.0
  0
ARC
  5
1DD
100
AcDbEntity
  8
2654_11 RIEGELSCHIEBER
390
0
100
AcDbCircle
 10
60.2399517438
 20
80.2618626155
 30
0.0
 40
1.5
100
AcDbArc
 50
0.0
 51
180.0
  0
CIRCLE
  5
1DE
100
AcDbEntity
  8
2654_11R
390
0
100
AcDbCircle
 10
60.2345680634
 20
84.7688431871
 30
0.0
 40
1.25
  0
CIRCLE
  5
1DF
100
AcDbEntity
  8
2654_11R
390
0
100
AcDbCircle
 10
60.2345680634
 20
12.7663785554
 30
0.0
 40
1.25
  0
CIRCLE
  5
1E0
100
AcDbEntity
  8
2654_4L
390
0
100
AcDbCircle
 10
50.0892176387
 20
267.8485544678
 30
0.0
 40
1.25
  0
CIRCLE
  5
1E1
100
AcDbEntity
  8
2654_7R
390
0
100
AcDbCircle
 10
57.2053341622
 20
203.381196858
 30
0.0
 40
1.25
  0
CIRCLE
  5
1E2
100
AcDbEntity
  8
2654_2 ANTRIEBSRAD
390
0
100
AcDbCircle
 10
113.9579114879
 20
134.1100856638
 30
0.0
 40
20.0
  0
ARC
  5
1E3
100
AcDbEntity
  8
2654_4-6_9 DREHHEBEL
390
0
100
AcDbCircle
 10
50.0892176387
 20
239.1957436722
 30
0.0
 40
10.0
100
AcDbArc
 50
28.3460681234
 51
41.6539318766
  0
ARC
  5
1E4
100
AcDbEntity
  8
2654_4-6_9 DREHHEBEL
390
0
100
AcDbCircle
 10
50.0892176387
 20
239.1957436722
 30
0.0
 40
10.0
100
AcDbArc
 50
348.3460681234
 51
361.6539318766
  0
ARC
  5
1E5
100
AcDbEntity
  8
2654_7 STELLHEBEL
390
0
100
AcDbCircle
 10
57.2053341622
 20
203.381196858
 30
0.0
 40
10.0
100
AcDbArc
 50
338.3460681234
 51
351.6539318766
  0
ARC
  5
1E6
100
AcDbEntity
  8
2654_7 STELLHEBEL
390
0
100
AcDbCircle
 10
57.2053341622
 20
203.381196858
 30
0.0
 40
10.0
100
AcDbArc
 50
18.3460681234
 51
31.6539318766
  0
ARC
  5
1E7
100
AcDbEntity
  8
2654_7 STELLHEBEL
390
0
100
AcDbCircle
 10
57.2053341622
 20
203.381196858
 30
0.0
 40
10.0
100
AcDbArc
 50
58.3460681234
 51
120.7712408428
  0
CIRCLE
  5
1E8
100
AcDbEntity
  8
2654_8P
390
0
100
AcDbCircle
 10
116.4331859956
 20
188.979877285
 30
0.0
 40
1.0
  0
LINE
  5
1E9
100
AcDbEntity
  8
2654_10 ZUNGENSCHIEBER
390
0
100
AcDbLine
 10
52.0892176387
 20
109.5237503263
 30
0.0
 11
52.0892176387
 21
179.5237503263
 31
0.0
  0
LINE
  5
1EA
100
AcDbEntity
  8
2654_10 ZUNGENSCHIEBER
390
0
100
AcDbLine
 10
42.9999184881
 20
109.5237503263
 30
0.0
 11
52.0892176387
 21
109.5237503263
 31
0.0
  0
LINE
  5
1EB
100
AcDbEntity
  8
2654_10 ZUNGENSCHIEBER
390
0
100
AcDbLine
 10
42.9999184881
 20
179.5237503263
 30
0.0
 11
52.0892176387
 21
179.5237503263
 31
0.0
  0
LINE
  5
1EC
100
AcDbEntity
  8
2654_10 ZUNGENSCHIEBER
390
0
100
AcDbLine
 10
42.9999184881
 20
179.5237503263
 30
0.0
 11
42.9999184881
 21
143.2767647561
 31
0.0
  0
LINE
  5
1ED
100
AcDbEntity
  8
2654_10 ZUNGENSCHIEBER
390
0
  6
DASHED
100
AcDbLine
 10
50.0892176387
 20
109.5237503263
 30
0.0
 11
50.0892176387
 21
179.5237503263
 31
0.0
  0
LINE
  5
1EE
100
AcDbEntity
  8
2654_10 ZUNGENSCHIEBER
390
0
100
AcDbLine
 10
42.9999184881
 20
137.0267647561
 30
0.0
 11
50.0892176387
 21
137.0267647561
 31
0.0
  0
LINE
  5
1EF
100
AcDbEntity
  8
2654_10 ZUNGENSCHIEBER
390
0
100
AcDbLine
 10
42.9999184881
 20
143.2767647561
 30
0.0
 11
50.0892176387
 21
143.2767647561
 31
0.0
  0
LINE
  5
1F0
100
AcDbEntity
  8
2654_10 ZUNGENSCHIEBER
390
0
100
AcDbLine
 10
42.9999184881
 20
137.0267647561
 30
0.0
 11
42.9999184881
 21
109.5237503263
 31
0.0
  0
LINE
  5
1F1
100
AcDbEntity
  8
2654_10 ZUNGENSCHIEBER
390
0
  6
DASHED
100
AcDbLine
 10
50.0892176387
 20
137.0267647561
 30
0.0
 11
52.0892176387
 21
137.0267647561
 31
0.0
  0
LINE
  5
1F2
100
AcDbEntity
  8
2654_10 ZUNGENSCHIEBER
390
0
  6
DASHED
100
AcDbLine
 10
50.0892176387
 20
143.2767647561
 30
0.0
 11
52.0892176387
 21
143.2767647561
 31
0.0
  0
LINE
  5
1F3
100
AcDbEntity
  8
2654_10 ZUNGENSCHIEBER
390
0
100
AcDbLine
 10
61.7399517438
 20
158.0237503275
 30
0.0
 11
61.7399517438
 21
170.0237503275
 31
0.0
  0
LINE
  5
1F4
100
AcDbEntity
  8
2654_10 ZUNGENSCHIEBER
390
0
100
AcDbLine
 10
58.7399517438
 20
170.0237503275
 30
0.0
 11
58.7399517438
 21
158.0237503275
 31
0.0
  0
LINE
  5
1F5
100
AcDbEntity
  8
2654_10 ZUNGENSCHIEBER
390
0
100
AcDbLine
 10
61.7399517438
 20
119.0239527484
 30
0.0
 11
61.7399517438
 21
131.0239527484
 31
0.0
  0
LINE
  5
1F6
100
AcDbEntity
  8
2654_10 ZUNGENSCHIEBER
390
0
100
AcDbLine
 10
58.7399517438
 20
119.0239527484
 30
0.0
 11
58.7399517438
 21
131.0239527484
 31
0.0
  0
LINE
  5
1F7
100
AcDbEntity
  8
2654_10 ZUNGENSCHIEBER
390
0
100
AcDbLine
 10
63.0892176387
 20
179.5237503275
 30
0.0
 11
63.0892176387
 21
109.5239527484
 31
0.0
  0
LINE
  5
1F8
100
AcDbEntity
  8
2654_10 ZUNGENSCHIEBER
390
0
100
AcDbLine
 10
63.0892176387
 20
109.5239527484
 30
0.0
 11
52.0892176387
 21
109.5239527484
 31
0.0
  0
LINE
  5
1F9
100
AcDbEntity
  8
2654_10 ZUNGENSCHIEBER
390
0
100
AcDbLine
 10
52.0892176387
 20
109.5239527484
 30
0.0
 11
52.0892176387
 21
137.0196392292
 31
0.0
  0
LINE
  5
1FA
100
AcDbEntity
  8
2654_10 ZUNGENSCHIEBER
390
0
100
AcDbLine
 10
52.0892176387
 20
179.5237503275
 30
0.0
 11
63.0892176387
 21
179.5237503275
 31
0.0
  0
LINE
  5
1FB
100
AcDbEntity
  8
2654_10 ZUNGENSCHIEBER
390
0
100
AcDbLine
 10
52.0892176387
 20
137.0196392292
 30
0.0
 11
57.0892176387
 21
137.0196392292
 31
0.0
  0
LINE
  5
1FC
100
AcDbEntity
  8
2654_10 ZUNGENSCHIEBER
390
0
100
AcDbLine
 10
57.0892176387
 20
143.2696392292
 30
0.0
 11
57.0892176387
 21
137.0196392292
 31
0.0
  0
LINE
  5
1FD
100
AcDbEntity
  8
2654_10 ZUNGENSCHIEBER
390
0
100
AcDbLine
 10
57.0892176387
 20
143.2696392292
 30
0.0
 11
52.0892176387
 21
143.2696392292
 31
0.0
  0
LINE
  5
1FE
100
AcDbEntity
  8
2654_10 ZUNGENSCHIEBER
390
0
100
AcDbLine
 10
52.0892176387
 20
143.2696392292
 30
0.0
 11
52.0892176387
 21
179.5237503275
 31
0.0
  0
LINE
  5
1FF
100
AcDbEntity
  8
2654_10 ZUNGENSCHIEBER
390
0
  6
DASHED
100
AcDbLine
 10
54.0892176387
 20
109.5239527484
 30
0.0
 11
54.0892176387
 21
137.0196392292
 31
0.0
  0
LINE
  5
200
100
AcDbEntity
  8
2654_10 ZUNGENSCHIEBER
390
0
  6
DASHED
100
AcDbLine
 10
54.0892176387
 20
143.2696392292
 30
0.0
 11
54.0892176387
 21
179.5237503275
 31
0.0
  0
LINE
  5
201
100
AcDbEntity
  8
2654_11 RIEGELSCHIEBER
390
0
100
AcDbLine
 10
61.7399517438
 20
56.2618626155
 30
0.0
 11
61.7399517438
 21
80.2618626155
 31
0.0
  0
LINE
  5
202
100
AcDbEntity
  8
2654_11 RIEGELSCHIEBER
390
0
100
AcDbLine
 10
58.7399517438
 20
80.2618626155
 30
0.0
 11
58.7399517438
 21
56.2618626155
 31
0.0
  0
LINE
  5
203
100
AcDbEntity
  8
2654_11 RIEGELSCHIEBER
390
0
100
AcDbLine
 10
61.7399517438
 20
17.2620650364
 30
0.0
 11
61.7399517438
 21
41.2620650364
 31
0.0
  0
LINE
  5
204
100
AcDbEntity
  8
2654_11 RIEGELSCHIEBER
390
0
100
AcDbLine
 10
58.7399517438
 20
17.2620650364
 30
0.0
 11
58.7399517438
 21
41.2620650364
 31
0.0
  0
LINE
  5
205
100
AcDbEntity
  8
2654_11 RIEGELSCHIEBER
390
0
100
AcDbLine
 10
63.0892176387
 20
87.7763785554
 30
0.0
 11
63.0892176387
 21
9.7763785554
 31
0.0
  0
LINE
  5
206
100
AcDbEntity
  8
2654_11 RIEGELSCHIEBER
390
0
100
AcDbLine
 10
63.0892176387
 20
9.7663785554
 30
0.0
 11
52.0892176387
 21
9.7663785554
 31
0.0
  0
LINE
  5
207
100
AcDbEntity
  8
2654_11 RIEGELSCHIEBER
390
0
100
AcDbLine
 10
52.0892176387
 20
9.7763785554
 30
0.0
 11
52.0892176387
 21
39.2691687753
 31
0.0
  0
LINE
  5
208
100
AcDbEntity
  8
2654_11 RIEGELSCHIEBER
390
0
100
AcDbLine
 10
52.0892176387
 20
87.7663785554
 30
0.0
 11
63.0892176387
 21
87.7663785554
 31
0.0
  0
LINE
  5
209
100
AcDbEntity
  8
2654_11 RIEGELSCHIEBER
390
0
100
AcDbLine
 10
54.0892176387
 20
53.2691687753
 30
0.0
 11
52.0892176387
 21
53.2691687753
 31
0.0
  0
LINE
  5
20A
100
AcDbEntity
  8
2654_11 RIEGELSCHIEBER
390
0
100
AcDbLine
 10
52.0892176387
 20
49.2691687753
 30
0.0
 11
52.0892176387
 21
87.7763785554
 31
0.0
  0
LINE
  5
20B
100
AcDbEntity
  8
2654_11 RIEGELSCHIEBER
390
0
  6
DASHED
100
AcDbLine
 10
54.0892176387
 20
9.7763785554
 30
0.0
 11
54.0892176387
 21
39.2691687753
 31
0.0
  0
LINE
  5
20C
100
AcDbEntity
  8
2654_11 RIEGELSCHIEBER
390
0
  6
DASHED
100
AcDbLine
 10
54.0892176387
 20
49.2691687753
 30
0.0
 11
54.0892176387
 21
87.7763785554
 31
0.0
  0
LINE
  5
20D
100
AcDbEntity
  8
2654_11 RIEGELSCHIEBER
390
0
100
AcDbLine
 10
54.0892176387
 20
35.2682726461
 30
0.0
 11
52.0892176387
 21
35.2682726461
 31
0.0
  0
LINE
  5
20E
100
AcDbEntity
  8
2654_4-6_9 DREHHEBEL
390
0
  6
DASHED
100
AcDbLine
 10
50.0892176387
 20
258.8485544678
 30
0.0
 11
50.0892176387
 21
273.3485544678
 31
0.0
  0
LINE
  5
20F
100
AcDbEntity
  8
2654_4-6_9 DREHHEBEL
390
0
  6
DASHED
100
AcDbLine
 10
54.0892176387
 20
244.6957436722
 30
0.0
 11
54.0892176387
 21
230.1957436722
 31
0.0
  0
LINE
  5
210
100
AcDbEntity
  8
2654_4-6_9 DREHHEBEL
390
0
100
AcDbLine
 10
52.0892176387
 20
258.8485544678
 30
0.0
 11
52.0892176387
 21
273.3485544678
 31
0.0
  0
LINE
  5
211
100
AcDbEntity
  8
2654_8 STELLVERSTELLUNG
390
0
 62
       230
100
AcDbLine
 10
112.9331859956
 20
185.979877285
 30
0.0
 11
112.9331859956
 21
198.729877285
 31
0.0
  0
LINE
  5
212
100
AcDbEntity
  8
2654_8 STELLVERSTELLUNG
390
0
 62
       230
100
AcDbLine
 10
113.9331859956
 20
191.979877285
 30
0.0
 11
113.9331859956
 21
198.479877285
 31
0.0
  0
LINE
  5
213
100
AcDbEntity
  8
2654_8 STELLVERSTELLUNG
390
0
 62
       230
100
AcDbLine
 10
117.9331859956
 20
191.979877285
 30
0.0
 11
113.9331859956
 21
191.979877285
 31
0.0
  0
LINE
  5
214
100
AcDbEntity
  8
2654_8 STELLVERSTELLUNG
390
0
 62
       230
100
AcDbLine
 10
113.9331859956
 20
198.479877285
 30
0.0
 11
117.9331859956
 21
198.479877285
 31
0.0
  0
LINE
  5
215
100
AcDbEntity
  8
2654_8 STELLVERSTELLUNG
390
0
 62
       230
100
AcDbLine
 10
117.9331859956
 20
191.979877285
 30
0.0
 11
117.9331859956
 21
198.479877285
 31
0.0
  0
LINE
  5
216
100
AcDbEntity
  8
2654_8 STELLVERSTELLUNG
390
0
 62
       230
100
AcDbLine
 10
118.9331859956
 20
185.979877285
 30
0.0
 11
118.9331859956
 21
200.9744630818
 31
0.0
  0
LINE
  5
217
100
AcDbEntity
  8
2654_7 STELLHEBEL
390
0
100
AcDbLine
 10
63.9690468123
 20
195.1931245714
 30
0.0
 11
52.0892176387
 21
195.1532747966
 31
0.0
  0
LINE
  5
218
100
AcDbEntity
  8
2654_7 STELLHEBEL
390
0
100
AcDbLine
 10
52.0892176387
 20
195.1532747966
 30
0.0
 11
52.0892176387
 21
211.9733649032
 31
0.0
  0
LINE
  5
219
100
AcDbEntity
  8
2654_7 STELLHEBEL
390
0
  6
DASHED
100
AcDbLine
 10
54.0892176387
 20
195.1532747966
 30
0.0
 11
54.0892176387
 21
212.8832923012
 31
0.0
  0
LINE
  5
21A
100
AcDbEntity
  8
2654_8 STELLVERSTELLUNG
390
0
100
AcDbLine
 10
112.9331859956
 20
185.9744630818
 30
0.0
 11
118.9331859956
 21
185.9744630818
 31
0.0
  0
LINE
  5
21B
100
AcDbEntity
  8
2654_8 STELLVERSTELLUNG
390
0
100
AcDbLine
 10
116.1020130028
 20
200.9744630818
 30
0.0
 11
112.9331859956
 21
198.729877285
 31
0.0
  0
LINE
  5
21C
100
AcDbEntity
  8
2654_8 STELLVERSTELLUNG
390
0
100
AcDbLine
 10
116.1020130028
 20
200.9744630818
 30
0.0
 11
118.9331859956
 21
200.9744630818
 31
0.0
  0
LINE
  5
21D
100
AcDbEntity
  8
2654_1_3 RAHMEN
390
0
100
AcDbLine
 10
176.083475641
 20
229.1653103878
 30
0.0
 11
176.083475641
 21
223.2675262317
 31
0.0
  0
LINE
  5
21E
100
AcDbEntity
  8
2654_1_3 RAHMEN
390
0
100
AcDbLine
 10
185.083475641
 20
229.1653103878
 30
0.0
 11
176.083475641
 21
229.1653103878
 31
0.0
  0
LINE
  5
21F
100
AcDbEntity
  8
2654_4-6_9 DREHHEBEL
390
0
100
AcDbLine
 10
39.0892176387
 20
244.6957436722
 30
0.0
 11
52.0892176387
 21
244.6957436722
 31
0.0
  0
LINE
  5
220
100
AcDbEntity
  8
2654_4-6_9 DREHHEBEL
390
0
100
AcDbLine
 10
39.0892176387
 20
230.1957436722
 30
0.0
 11
52.0892176387
 21
230.1957436722
 31
0.0
  0
LINE
  5
221
100
AcDbEntity
  8
2654_4-6_9 DREHHEBEL
390
0
100
AcDbLine
 10
52.0892176387
 20
230.1957436722
 30
0.0
 11
52.0892176387
 21
244.6957436722
 31
0.0
  0
LINE
  5
222
100
AcDbEntity
  8
2654_4-6_9 DREHHEBEL
390
0
100
AcDbLine
 10
65.0892176387
 20
258.8485544678
 30
0.0
 11
65.0892176387
 21
273.3485544678
 31
0.0
  0
LINE
  5
223
100
AcDbEntity
  8
2654_4-6_9 DREHHEBEL
390
0
100
AcDbLine
 10
39.0892176387
 20
230.1957436722
 30
0.0
 11
39.0892176387
 21
244.6957436722
 31
0.0
  0
LINE
  5
224
100
AcDbEntity
  8
2654_7 STELLHEBEL
370
        25
390
0
100
AcDbLine
 10
43.0892176387
 20
195.1532747966
 30
0.0
 11
43.0892176387
 21
211.9733649032
 31
0.0
  0
LINE
  5
225
100
AcDbEntity
  8
2654_7 STELLHEBEL
370
        25
390
0
100
AcDbLine
 10
52.0892176387
 20
211.9733649032
 30
0.0
 11
43.0892176387
 21
211.9733649032
 31
0.0
  0
LINE
  5
226
100
AcDbEntity
  8
2654_7 STELLHEBEL
370
        25
390
0
100
AcDbLine
 10
43.0892176387
 20
195.1532747966
 30
0.0
 11
52.0892176387
 21
195.1532747966
 31
0.0
  0
LINE
  5
227
100
AcDbEntity
  8
2654_7 STELLHEBEL
370
        25
390
0
  6
DASHED
100
AcDbLine
 10
50.0892176387
 20
195.1532747966
 30
0.0
 11
50.0892176387
 21
211.9733649032
 31
0.0
  0
LINE
  5
228
100
AcDbEntity
  8
2654_4-6_9 DREHHEBEL
370
        25
390
0
  6
DASHED
100
AcDbLine
 10
54.0892176387
 20
258.8485544678
 30
0.0
 11
54.0892176387
 21
273.3485544678
 31
0.0
  0
LINE
  5
229
100
AcDbEntity
  8
2654_4-6_9 DREHHEBEL
370
        25
390
0
  6
DASHED
100
AcDbLine
 10
50.0892176387
 20
230.1957436722
 30
0.0
 11
50.0892176387
 21
244.6957436722
 31
0.0
  0
TEXT
  5
22A
100
AcDbEntity
  8
BESCHRIFTUNG
390
0
100
AcDbText
 10
85.8337123057
 20
164.9177217009
 30
0.0
 40
3.0
  1
2654.2P
 41
1.1350982978
  7
Arial
 11
85.8337123057
 21
167.9177217009
 31
0.0
100
AcDbText
 73
         3
  0
TEXT
  5
22B
100
AcDbEntity
  8
BESCHRIFTUNG
390
0
100
AcDbText
 10
87.2698349016
 20
218.080702708
 30
0.0
 40
3.0
  1
2654.8P
 41
1.1350983851
  7
Arial
 11
87.2698349016
 21
221.080702708
 31
0.0
100
AcDbText
 73
         3
  0
TEXT
  5
22C
100
AcDbEntity
  8
BESCHRIFTUNG
390
0
100
AcDbText
 10
85.7022611763
 20
257.0059137228
 30
0.0
 40
3.0
  1
2654.9P
 41
1.1350983196
  7
Arial
 11
85.7022611763
 21
260.0059137228
 31
0.0
100
AcDbText
 73
         3
  0
TEXT
  5
22D
100
AcDbEntity
  8
BESCHRIFTUNG
390
0
100
AcDbText
 10
19.5427838798
 20
280.6649070334
 30
0.0
 40
3.0
  1
2654.4L,R
 41
1.1351032927
  7
Arial
 11
19.5427838798
 21
283.6649070334
 31
0.0
100
AcDbText
 73
         3
  0
TEXT
  5
22E
100
AcDbEntity
  8
BESCHRIFTUNG
390
0
100
AcDbText
 10
19.1239548011
 20
251.2353071757
 30
0.0
 40
3.0
  1
2654.5L,R
 41
1.1351032223
  7
Arial
 11
19.1239548011
 21
254.2353071757
 31
0.0
100
AcDbText
 73
         3
  0
TEXT
  5
22F
100
AcDbEntity
  8
BESCHRIFTUNG
390
0
100
AcDbText
 10
18.395604685
 20
223.0002275804
 30
0.0
 40
3.0
  1
2654.7L,R
 41
1.1351032399
  7
Arial
 11
18.395604685
 21
226.0002275804
 31
0.0
100
AcDbText
 73
         3
  0
TEXT
  5
230
100
AcDbEntity
  8
BESCHRIFTUNG
390
0
100
AcDbText
 10
16.709439645
 20
188.0969600003
 30
0.0
 40
3.0
  1
2654.10L,R
 41
1.135107748
  7
Arial
 11
16.709439645
 21
191.0969600003
 31
0.0
100
AcDbText
 73
         3
  0
TEXT
  5
231
100
AcDbEntity
  8
BESCHRIFTUNG
390
0
100
AcDbText
 10
19.7685741056
 20
96.322920146
 30
0.0
 40
3.0
  1
2654.11L,R
 41
1.1351078266
  7
Arial
 11
19.7685741056
 21
99.322920146
 31
0.0
100
AcDbText
 73
         3
  0
LINE
  5
232
100
AcDbEntity
  8
2654_1P
370
        25
390
0
  6
DIVIDE
100
AcDbLine
 10
156.583475641
 20
269.2675262317
 30
0.0
 11
187.583475641
 21
269.2675262317
 31
0.0
  0
LINE
  5
233
100
AcDbEntity
  8
2654_1P
370
        25
390
0
  6
DIVIDE
100
AcDbLine
 10
156.583475641
 20
222.2675262317
 30
0.0
 11
177.083475641
 21
222.2675262317
 31
0.0
  0
LINE
  5
234
100
AcDbEntity
  8
2654_1P
370
        25
390
0
100
AcDbLine
 10
177.083475641
 20
228.1653103878
 30
0.0
 11
177.083475641
 21
222.2675262317
 31
0.0
  0
LINE
  5
235
100
AcDbEntity
  8
2654_1P
370
        25
390
0
100
AcDbLine
 10
184.083475641
 20
228.1653103878
 30
0.0
 11
177.083475641
 21
228.1653103878
 31
0.0
  0
LINE
  5
236
100
AcDbEntity
  8
2654_1P
370
        25
390
0
100
AcDbLine
 10
184.083475641
 20
222.2675262317
 30
0.0
 11
184.083475641
 21
228.1653103878
 31
0.0
  0
LINE
  5
237
100
AcDbEntity
  8
2654_1P
370
        25
390
0
100
AcDbLine
 10
184.083475641
 20
222.2675262317
 30
0.0
 11
187.583475641
 21
222.2675262317
 31
0.0
  0
LINE
  5
238
100
AcDbEntity
  8
2654_1P
370
        25
390
0
  6
DASHED
100
AcDbLine
 10
187.583475641
 20
269.2675262317
 30
0.0
 11
162.9327415359
 21
265.2675262317
 31
0.0
  0
LINE
  5
239
100
AcDbEntity
  8
2654_1P
370
        25
390
0
  6
DASHED
100
AcDbLine
 10
162.9327415359
 20
265.2675262317
 30
0.0
 11
162.9327415359
 21
226.2675262317
 31
0.0
  0
ARC
  5
23A
100
AcDbEntity
  8
2654_1P
370
        25
390
0
  6
DASHED
100
AcDbCircle
 10
175.064181286
 20
223.0724136397
 30
0.0
 40
12.5451414853
100
AcDbArc
 50
356.3214165834
 51
525.244827857
  0
CIRCLE
  5
23B
100
AcDbEntity
  8
2654_1P
370
        25
390
0
  6
PHANTOM
100
AcDbCircle
 10
156.583475641
 20
269.2675262317
 30
0.0
 40
0.5
  0
CIRCLE
  5
23C
100
AcDbEntity
  8
2654_1P
370
        25
390
0
  6
PHANTOM
100
AcDbCircle
 10
156.583475641
 20
222.2675262317
 30
0.0
 40
1.0
  0
ARC
  5
23D
100
AcDbEntity
  8
2654_2P
370
        25
390
0
100
AcDbCircle
 10
113.9579114879
 20
134.1100856638
 30
0.0
 40
21.0
100
AcDbArc
 50
120.0000000001
 51
240.0
  0
ARC
  5
23E
100
AcDbEntity
  8
2654_2P
370
        25
390
0
  6
DIVIDE
100
AcDbCircle
 10
113.9579114879
 20
134.1100856638
 30
0.0
 40
21.0
100
AcDbArc
 50
59.9999999989
 51
120.0000000001
  0
ARC
  5
23F
100
AcDbEntity
  8
2654_2P
370
        25
390
0
100
AcDbCircle
 10
113.9579114879
 20
134.1100856638
 30
0.0
 40
21.0
100
AcDbArc
 50
299.9999999998
 51
419.9999999989
  0
ARC
  5
240
100
AcDbEntity
  8
2654_2P
370
        25
390
0
  6
DIVIDE
100
AcDbCircle
 10
113.9579114879
 20
134.1100856638
 30
0.0
 40
21.0
100
AcDbArc
 50
240.0
 51
299.9999999998
  0
CIRCLE
  5
241
100
AcDbEntity
  8
2654_2P
370
        25
390
0
  6
PHANTOM
100
AcDbCircle
 10
92.9579114879
 20
155.1100856638
 30
0.0
 40
0.5
  0
CIRCLE
  5
242
100
AcDbEntity
  8
2654_2P
370
        25
390
0
  6
PHANTOM
100
AcDbCircle
 10
92.9579114879
 20
113.1100856638
 30
0.0
 40
1.0
  0
LINE
  5
243
100
AcDbEntity
  8
2654_2P
370
        25
390
0
  6
DASHED
100
AcDbLine
 10
92.9579114879
 20
155.1100856638
 30
0.0
 11
103.4579114883
 21
152.2966191424
 31
0.0
  0
CIRCLE
  5
244
100
AcDbEntity
  8
2654_2P
370
        25
390
0
100
AcDbCircle
 10
106.4579114879
 20
147.1004667206
 30
0.0
 40
1.25
  0
CIRCLE
  5
245
100
AcDbEntity
  8
2654_2P
370
        25
390
0
100
AcDbCircle
 10
121.4579114879
 20
147.1004667206
 30
0.0
 40
1.25
  0
CIRCLE
  5
246
100
AcDbEntity
  8
2654_2P
370
        25
390
0
100
AcDbCircle
 10
126.9482925446
 20
141.6100856639
 30
0.0
 40
1.25
  0
CIRCLE
  5
247
100
AcDbEntity
  8
2654_2P
370
        25
390
0
100
AcDbCircle
 10
128.9579114879
 20
134.1100856638
 30
0.0
 40
1.25
  0
CIRCLE
  5
248
100
AcDbEntity
  8
2654_2P
370
        25
390
0
100
AcDbCircle
 10
126.9482925446
 20
126.6100856638
 30
0.0
 40
1.25
  0
CIRCLE
  5
249
100
AcDbEntity
  8
2654_2P
370
        25
390
0
100
AcDbCircle
 10
121.4579114879
 20
121.119704607
 30
0.0
 40
1.25
  0
CIRCLE
  5
24A
100
AcDbEntity
  8
2654_2P
370
        25
390
0
100
AcDbCircle
 10
106.4579114879
 20
121.119704607
 30
0.0
 40
1.25
  0
CIRCLE
  5
24B
100
AcDbEntity
  8
2654_2P
370
        25
390
0
100
AcDbCircle
 10
98.9579114879
 20
134.1100856638
 30
0.0
 40
1.25
  0
CIRCLE
  5
24C
100
AcDbEntity
  8
2654_2P
370
        25
390
0
100
AcDbCircle
 10
100.9675304311
 20
141.6100856638
 30
0.0
 40
1.25
  0
CIRCLE
  5
24D
100
AcDbEntity
  8
2654_2P
370
        25
390
0
100
AcDbCircle
 10
100.1018881243
 20
126.1103068451
 30
0.0
 40
1.25
  0
CIRCLE
  5
24E
100
AcDbEntity
  8
2654_2P
370
        25
390
0
100
AcDbCircle
 10
113.9579114878
 20
134.1100856639
 30
0.0
 40
1.25
  0
LINE
  5
24F
100
AcDbEntity
  8
2654_2P
370
        25
390
0
  6
DASHED
100
AcDbLine
 10
103.4579114883
 20
152.2966191424
 30
0.0
 11
106.4579114879
 21
147.1004667206
 31
0.0
  0
LINE
  5
250
100
AcDbEntity
  8
2654_2P
370
        25
390
0
  6
DASHED
100
AcDbLine
 10
106.4579114879
 20
147.1004667206
 30
0.0
 11
121.4579114879
 21
147.1004667206
 31
0.0
  0
LINE
  5
251
100
AcDbEntity
  8
2654_2P
370
        25
390
0
  6
DASHED
100
AcDbLine
 10
126.9482925446
 20
141.6100856639
 30
0.0
 11
121.4579114879
 21
147.1004667206
 31
0.0
  0
LINE
  5
252
100
AcDbEntity
  8
2654_2P
370
        25
390
0
  6
DASHED
100
AcDbLine
 10
126.9482925446
 20
141.6100856639
 30
0.0
 11
128.9579114879
 21
134.1100856638
 31
0.0
  0
LINE
  5
253
100
AcDbEntity
  8
2654_2P
370
        25
390
0
  6
DASHED
100
AcDbLine
 10
128.9579114879
 20
134.1100856638
 30
0.0
 11
126.9482925446
 21
126.6100856638
 31
0.0
  0
LINE
  5
254
100
AcDbEntity
  8
2654_2P
370
        25
390
0
  6
DASHED
100
AcDbLine
 10
126.9482925446
 20
126.6100856638
 30
0.0
 11
121.4579114879
 21
121.119704607
 31
0.0
  0
LINE
  5
255
100
AcDbEntity
  8
2654_2P
370
        25
390
0
  6
DASHED
100
AcDbLine
 10
121.4579114879
 20
121.119704607
 30
0.0
 11
113.9579114878
 21
134.1100856639
 31
0.0
  0
LINE
  5
256
100
AcDbEntity
  8
2654_2P
370
        25
390
0
  6
DASHED
100
AcDbLine
 10
113.9579114878
 20
134.1100856639
 30
0.0
 11
100.9675304311
 21
141.6100856638
 31
0.0
  0
LINE
  5
257
100
AcDbEntity
  8
2654_2P
370
        25
390
0
  6
DASHED
100
AcDbLine
 10
100.9675304311
 20
141.6100856638
 30
0.0
 11
98.9579114879
 21
134.1100856638
 31
0.0
  0
LINE
  5
258
100
AcDbEntity
  8
2654_2P
370
        25
390
0
  6
DASHED
100
AcDbLine
 10
98.9579114879
 20
134.1100856638
 30
0.0
 11
100.1018881243
 21
126.1103068451
 31
0.0
  0
LINE
  5
259
100
AcDbEntity
  8
2654_2P
370
        25
390
0
  6
DASHED
100
AcDbLine
 10
100.1018881243
 20
126.1103068451
 30
0.0
 11
106.4579114879
 21
121.119704607
 31
0.0
  0
LINE
  5
25A
100
AcDbEntity
  8
2654_2P
370
        25
390
0
  6
DASHED
100
AcDbLine
 10
106.4579114879
 20
121.119704607
 30
0.0
 11
92.9579114879
 21
113.1100856638
 31
0.0
  0
LINE
  5
25B
100
AcDbEntity
  8
MITTELLINIEN
390
0
100
AcDbLine
 10
156.583475641
 20
274.2675262317
 30
0.0
 11
156.583475641
 21
217.2675262317
 31
0.0
  0
LINE
  5
25C
100
AcDbEntity
  8
MITTELLINIEN
390
0
100
AcDbLine
 10
92.9579114879
 20
160.1100856638
 30
0.0
 11
92.9579114879
 21
108.1100856638
 31
0.0
  0
LINE
  5
25D
100
AcDbEntity
  8
MITTELLINIEN
390
0
100
AcDbLine
 10
134.9579114879
 20
160.1100856638
 30
0.0
 11
134.9579114879
 21
108.1100856638
 31
0.0
  0
INSERT
  5
25E
100
AcDbEntity
  8
BEMAßUNG
390
0
100
AcDbBlockReference
  2
D133360640
 10
0.0
 20
0.0
 30
0.0
  0
LINE
  5
25F
100
AcDbEntity
  8
MITTELLINIEN
390
0
100
AcDbLine
 10
37.0892176386
 20
279.3485544678
 30
0.0
 11
37.0892176387
 21
3.7663785573
 31
0.0
  0
LINE
  5
260
100
AcDbEntity
  8
MITTELLINIEN
390
0
100
AcDbLine
 10
67.0892176387
 20
3.7663785573
 30
0.0
 11
67.0892176386
 21
279.3485544678
 31
0.0
  0
CIRCLE
  5
261
100
AcDbEntity
  8
2654_4L
370
        25
390
0
  6
PHANTOM
100
AcDbCircle
 10
37.0892176386
 20
274.3485544678
 30
0.0
 40
0.5
  0
CIRCLE
  5
262
100
AcDbEntity
  8
2654_4L
370
        25
390
0
  6
PHANTOM
100
AcDbCircle
 10
37.0892176387
 20
257.8485544678
 30
0.0
 40
1.0
  0
CIRCLE
  5
263
100
AcDbEntity
  8
2654_5L
370
        25
390
0
  6
PHANTOM
100
AcDbCircle
 10
37.0892176386
 20
247.1957436722
 30
0.0
 40
0.5
  0
CIRCLE
  5
264
100
AcDbEntity
  8
2654_5L
370
        25
390
0
  6
PHANTOM
100
AcDbCircle
 10
37.0892176386
 20
229.1957436722
 30
0.0
 40
1.0
  0
CIRCLE
  5
265
100
AcDbEntity
  8
2654_7L
370
        25
390
0
  6
PHANTOM
100
AcDbCircle
 10
37.0892176386
 20
215.1532747966
 30
0.0
 40
0.5
  0
CIRCLE
  5
266
100
AcDbEntity
  8
2654_7L
370
        25
390
0
  6
PHANTOM
100
AcDbCircle
 10
37.0892176387
 20
194.1532747966
 30
0.0
 40
1.0
  0
CIRCLE
  5
267
100
AcDbEntity
  8
2654_10L
370
        25
390
0
  6
PHANTOM
100
AcDbCircle
 10
37.0892176387
 20
180.5237503263
 30
0.0
 40
0.5
  0
CIRCLE
  5
268
100
AcDbEntity
  8
2654_10L
370
        25
390
0
  6
PHANTOM
100
AcDbCircle
 10
37.0892176386
 20
108.5239527484
 30
0.0
 40
1.0
  0
CIRCLE
  5
269
100
AcDbEntity
  8
2654_11L
370
        25
390
0
  6
PHANTOM
100
AcDbCircle
 10
37.0892176386
 20
88.7663785554
 30
0.0
 40
0.5
  0
CIRCLE
  5
26A
100
AcDbEntity
  8
2654_11L
370
        25
390
0
  6
PHANTOM
100
AcDbCircle
 10
37.0892176387
 20
8.7663785573
 30
0.0
 40
1.0
  0
CIRCLE
  5
26B
100
AcDbEntity
  8
2654_7R
370
        25
390
0
  6
PHANTOM
100
AcDbCircle
 10
52.0892176387
 20
194.1532747966
 30
0.0
 40
1.0
  0
CIRCLE
  5
26C
100
AcDbEntity
  8
2654_10R
370
        25
390
0
  6
PHANTOM
100
AcDbCircle
 10
52.0892176387
 20
180.5237503263
 30
0.0
 40
0.5
  0
CIRCLE
  5
26D
100
AcDbEntity
  8
2654_10R
370
        25
390
0
  6
PHANTOM
100
AcDbCircle
 10
52.0892176386
 20
108.5239527484
 30
0.0
 40
1.0
  0
CIRCLE
  5
26E
100
AcDbEntity
  8
2654_11R
370
        25
390
0
  6
PHANTOM
100
AcDbCircle
 10
52.0892176386
 20
88.7663785554
 30
0.0
 40
0.5
  0
CIRCLE
  5
26F
100
AcDbEntity
  8
2654_11R
370
        25
390
0
  6
PHANTOM
100
AcDbCircle
 10
52.0892176387
 20
8.7663785573
 30
0.0
 40
1.0
  0
CIRCLE
  5
270
100
AcDbEntity
  8
2654_4R
370
        25
390
0
  6
PHANTOM
100
AcDbCircle
 10
52.0892176387
 20
257.8485544678
 30
0.0
 40
1.0
  0
CIRCLE
  5
271
100
AcDbEntity
  8
2654_5R
370
        25
390
0
  6
PHANTOM
100
AcDbCircle
 10
52.0892176386
 20
247.1957436722
 30
0.0
 40
0.5
  0
CIRCLE
  5
272
100
AcDbEntity
  8
2654_5R
370
        25
390
0
  6
PHANTOM
100
AcDbCircle
 10
52.0892176386
 20
229.1957436722
 30
0.0
 40
1.0
  0
LINE
  5
273
100
AcDbEntity
  8
2654_4-6_9 DREHHEBEL
390
0
100
AcDbLine
 10
52.0892176387
 20
266.1414406144
 30
0.0
 11
52.0892176387
 21
273.3485544678
 31
0.0
  0
CIRCLE
  5
274
100
AcDbEntity
  8
2654_7R
370
        25
390
0
  6
PHANTOM
100
AcDbCircle
 10
52.0892176386
 20
215.1532747966
 30
0.0
 40
0.5
  0
CIRCLE
  5
275
100
AcDbEntity
  8
2654_4R
370
        25
390
0
  6
PHANTOM
100
AcDbCircle
 10
52.0892176386
 20
274.3485544678
 30
0.0
 40
0.5
  0
LINE
  5
276
100
AcDbEntity
  8
MITTELLINIEN
390
0
100
AcDbLine
 10
113.9114816146
 20
239.750053863
 30
0.0
 11
100.9114816146
 21
239.750053863
 31
0.0
  0
INSERT
  5
277
100
AcDbEntity
  8
BEMAßUNG
390
0
100
AcDbBlockReference
  2
D133360384
 10
0.0
 20
0.0
 30
0.0
  0
INSERT
  5
278
100
AcDbEntity
  8
BEMAßUNG
390
0
100
AcDbBlockReference
  2
D133360128
 10
0.0
 20
0.0
 30
0.0
  0
INSERT
  5
279
100
AcDbEntity
  8
BEMAßUNG
390
0
100
AcDbBlockReference
  2
D133359872
 10
0.0
 20
0.0
 30
0.0
  0
INSERT
  5
27A
100
AcDbEntity
  8
BEMAßUNG
390
0
100
AcDbBlockReference
  2
D133359616
 10
0.0
 20
0.0
 30
0.0
  0
INSERT
  5
27B
100
AcDbEntity
  8
BEMAßUNG
390
0
100
AcDbBlockReference
  2
D133359360
 10
0.0
 20
0.0
 30
0.0
  0
INSERT
  5
27C
100
AcDbEntity
  8
BEMAßUNG
390
0
100
AcDbBlockReference
  2
D133359104
 10
0.0
 20
0.0
 30
0.0
  0
INSERT
  5
27D
100
AcDbEntity
  8
BEMAßUNG
390
0
100
AcDbBlockReference
  2
D133358848
 10
0.0
 20
0.0
 30
0.0
  0
INSERT
  5
27E
100
AcDbEntity
  8
BEMAßUNG
390
0
100
AcDbBlockReference
  2
D133358592
 10
0.0
 20
0.0
 30
0.0
  0
INSERT
  5
27F
100
AcDbEntity
  8
BEMAßUNG
390
0
100
AcDbBlockReference
  2
D133358336
 10
0.0
 20
0.0
 30
0.0
  0
INSERT
  5
280
100
AcDbEntity
  8
BEMAßUNG
390
0
100
AcDbBlockReference
  2
D133358080
 10
0.0
 20
0.0
 30
0.0
  0
TEXT
  5
281
100
AcDbEntity
  8
BESCHRIFTUNG
390
0
100
AcDbText
 10
172.2746617552
 20
52.1466481441
 30
0.0
 40
2.0
  1
3x @2,5
 41
1.1350962164
  7
Arial
100
AcDbText
  0
TEXT
  5
282
100
AcDbEntity
  8
BESCHRIFTUNG
390
0
100
AcDbText
 10
176.8714635661
 20
104.8816590401
 30
0.0
 40
2.0
  1
Ø0,6...2
 41
1.1350912082
  7
Arial
100
AcDbText
  0
TEXT
  5
283
100
AcDbEntity
  8
BESCHRIFTUNG
390
0
  6
PHANTOM
100
AcDbText
 10
140.1977247203
 20
129.5449368506
 30
0.0
 40
3.0
  1
oben
 41
1.1351449725
  7
Arial
 11
140.1977247203
 21
132.5449368506
 31
0.0
100
AcDbText
 73
         3
  0
TEXT
  5
284
100
AcDbEntity
  8
BESCHRIFTUNG
390
0
  6
PHANTOM
100
AcDbText
 10
133.9288200945
 20
71.1718238295
 30
0.0
 40
3.0
  1
unten
 41
1.1351367906
  7
Arial
 11
133.9288200945
 21
74.1718238295
 31
0.0
100
AcDbText
 73
         3
  0
TEXT
  5
285
100
AcDbEntity
  8
BESCHRIFTUNG
390
0
100
AcDbText
 10
161.7655607635
 20
106.0919826639
 30
0.0
 40
2.0
  1
Ø3,5
 41
1.1350860059
  7
Arial
100
AcDbText
  0
TEXT
  5
286
100
AcDbEntity
  8
BESCHRIFTUNG
390
0
100
AcDbText
 10
167.323456006
 20
46.6128240994
 30
0.0
 40
2.0
  1
Ø6
 41
1.1350649007
  7
Arial
100
AcDbText
  0
LINE
  5
287
100
AcDbEntity
  8
2654_1_3 RAHMEN
390
0
100
AcDbLine
 10
201.7501054748
 20
116.7221746086
 30
0.0
 11
201.7501054748
 21
101.7221746086
 31
0.0
  0
LINE
  5
288
100
AcDbEntity
  8
2654_1_3 RAHMEN
390
0
100
AcDbLine
 10
156.7501054748
 20
116.7221746086
 30
0.0
 11
156.7501054748
 21
101.7221746086
 31
0.0
  0
LINE
  5
289
100
AcDbEntity
  8
2654_1_3 RAHMEN
390
0
100
AcDbLine
 10
156.7501054748
 20
101.7221746086
 30
0.0
 11
201.7501054748
 21
101.7221746086
 31
0.0
  0
LINE
  5
28A
100
AcDbEntity
  8
2654_1_3 RAHMEN
390
0
100
AcDbLine
 10
156.7501054748
 20
116.7221746086
 30
0.0
 11
201.7501054748
 21
116.7221746086
 31
0.0
  0
LINE
  5
28B
100
AcDbEntity
  8
2654_1_3 RAHMEN
390
0
  6
DASHED
100
AcDbLine
 10
156.7501054748
 20
114.7221746086
 30
0.0
 11
201.7501054748
 21
114.7221746086
 31
0.0
  0
LINE
  5
28C
100
AcDbEntity
  8
2654_1_3 RAHMEN
390
0
100
AcDbLine
 10
195.4812008491
 20
43.3490615876
 30
0.0
 11
195.4812008491
 21
58.3490615876
 31
0.0
  0
LINE
  5
28D
100
AcDbEntity
  8
2654_1_3 RAHMEN
390
0
100
AcDbLine
 10
150.4812008491
 20
43.3490615876
 30
0.0
 11
150.4812008491
 21
58.3490615876
 31
0.0
  0
LINE
  5
28E
100
AcDbEntity
  8
2654_1_3 RAHMEN
390
0
100
AcDbLine
 10
150.4812008491
 20
58.3490615876
 30
0.0
 11
195.4812008491
 21
58.3490615876
 31
0.0
  0
LINE
  5
28F
100
AcDbEntity
  8
2654_1_3 RAHMEN
390
0
100
AcDbLine
 10
150.4812008491
 20
43.3490615876
 30
0.0
 11
195.4812008491
 21
43.3490615876
 31
0.0
  0
LINE
  5
290
100
AcDbEntity
  8
2654_1_3 RAHMEN
390
0
  6
DASHED
100
AcDbLine
 10
150.4812008491
 20
45.3490615876
 30
0.0
 11
195.4812008491
 21
45.3490615876
 31
0.0
  0
CIRCLE
  5
291
100
AcDbEntity
  8
2654_1_3 RAHMEN
390
0
100
AcDbCircle
 10
174.7501054748
 20
104.2221746086
 30
0.0
 40
1.0
  0
CIRCLE
  5
292
100
AcDbEntity
  8
2654_1_3 RAHMEN
390
0
100
AcDbCircle
 10
160.7501054748
 20
104.2221746086
 30
0.0
 40
1.75
  0
CIRCLE
  5
293
100
AcDbEntity
  8
2654_1_3 RAHMEN
390
0
100
AcDbCircle
 10
169.7501054748
 20
104.2221746086
 30
0.0
 40
1.75
  0
CIRCLE
  5
294
100
AcDbEntity
  8
2654_1_3 RAHMEN
390
0
100
AcDbCircle
 10
163.4812008491
 20
48.8490615876
 30
0.0
 40
3.0
  0
CIRCLE
  5
295
100
AcDbEntity
  8
2654_1_3 RAHMEN
390
0
100
AcDbCircle
 10
168.4812008491
 20
55.8490615876
 30
0.0
 40
1.25
  0
CIRCLE
  5
296
100
AcDbEntity
  8
2654_1_3 RAHMEN
390
0
100
AcDbCircle
 10
179.4812008491
 20
55.8490615876
 30
0.0
 40
1.25
  0
CIRCLE
  5
297
100
AcDbEntity
  8
2654_1_3 RAHMEN
390
0
100
AcDbCircle
 10
186.4812008491
 20
55.8490615876
 30
0.0
 40
1.25
  0
CIRCLE
  5
298
100
AcDbEntity
  8
2654_1_3 RAHMEN
390
0
100
AcDbCircle
 10
163.4812008491
 20
55.8490615876
 30
0.0
 40
1.25
  0
LINE
  5
299
100
AcDbEntity
  8
2654_1_3 RAHMEN
390
0
  6
DASHED
100
AcDbLine
 10
160.4812008491
 20
48.8490615876
 30
0.0
 11
160.4812008491
 21
58.3490615876
 31
0.0
  0
LINE
  5
29A
100
AcDbEntity
  8
2654_1_3 RAHMEN
390
0
  6
DASHED
100
AcDbLine
 10
166.3859383587
 20
49.5990615876
 30
0.0
 11
164.1266980734
 21
58.3490615876
 31
0.0
  0
CIRCLE
  5
29B
100
AcDbEntity
  8
2654_4R
390
0
100
AcDbCircle
 10
61.5892176387
 20
269.8485544678
 30
0.0
 40
1.5
  0
CIRCLE
  5
29C
100
AcDbEntity
  8
2654_4R
390
0
100
AcDbCircle
 10
61.5892176386
 20
262.1885544678
 30
0.0
 40
1.5
  0
LINE
  5
29D
100
AcDbEntity
  8
2654_4-6_9 DREHHEBEL
390
0
100
AcDbLine
 10
54.0892176387
 20
269.8485544678
 30
0.0
 11
58.0892176387
 21
269.8485544678
 31
0.0
  0
LINE
  5
29E
100
AcDbEntity
  8
2654_4-6_9 DREHHEBEL
390
0
100
AcDbLine
 10
58.0892176387
 20
269.8485544678
 30
0.0
 11
58.0892176387
 21
266.0985544678
 31
0.0
  0
LINE
  5
29F
100
AcDbEntity
  8
2654_4-6_9 DREHHEBEL
390
0
100
AcDbLine
 10
58.0892176387
 20
266.0985544678
 30
0.0
 11
54.0892176387
 21
266.0985544678
 31
0.0
  0
LINE
  5
2A0
100
AcDbEntity
  8
2654_4-6_9 DREHHEBEL
390
0
100
AcDbLine
 10
54.0892176387
 20
266.0985544678
 30
0.0
 11
54.0892176387
 21
269.8485544678
 31
0.0
  0
LINE
  5
2A1
100
AcDbEntity
  8
2654_4L
390
0
  6
DIVIDE
100
AcDbLine
 10
37.0892176386
 20
274.3485544678
 30
0.0
 11
52.0892176386
 21
274.3485544678
 31
0.0
  0
LINE
  5
2A2
100
AcDbEntity
  8
2654_4L
390
0
100
AcDbLine
 10
45.0041479555
 20
257.8485544682
 30
0.0
 11
38.0892176387
 21
263.9302107884
 31
0.0
  0
LINE
  5
2A3
100
AcDbEntity
  8
2654_4L
390
0
  6
DIVIDE
100
AcDbLine
 10
52.0892176387
 20
257.8485544696
 30
0.0
 11
45.0041479555
 21
257.8485544682
 31
0.0
  0
LINE
  5
2A4
100
AcDbEntity
  8
2654_4L
390
0
  6
DASHED
100
AcDbLine
 10
52.0892176386
 20
274.3485544678
 30
0.0
 11
50.0892176387
 21
267.8485544678
 31
0.0
  0
ARC
  5
2A5
100
AcDbEntity
  8
2654_4L
390
0
  6
DASHED
100
AcDbCircle
 10
24.8811714365
 20
266.4184284164
 30
0.0
 40
14.9157343623
100
AcDbArc
 50
324.9316935293
 51
387.6855344978
  0
LINE
  5
2A6
100
AcDbEntity
  8
2654_4R
390
0
100
AcDbLine
 10
55.0892176387
 20
268.8485544678
 30
0.0
 11
57.0892176387
 21
268.8485544678
 31
0.0
  0
LINE
  5
2A7
100
AcDbEntity
  8
2654_4R
390
0
100
AcDbLine
 10
55.0892176387
 20
267.0985544678
 30
0.0
 11
55.0892176387
 21
268.8485544678
 31
0.0
  0
LINE
  5
2A8
100
AcDbEntity
  8
2654_4R
390
0
100
AcDbLine
 10
57.0892176387
 20
267.0985544678
 30
0.0
 11
55.0892176387
 21
267.0985544678
 31
0.0
  0
LINE
  5
2A9
100
AcDbEntity
  8
2654_4R
390
0
100
AcDbLine
 10
57.0892176387
 20
268.8485544678
 30
0.0
 11
57.0892176387
 21
267.0985544678
 31
0.0
  0
LINE
  5
2AA
100
AcDbEntity
  8
2654_4R
390
0
  6
DIVIDE
100
AcDbLine
 10
52.0892176386
 20
274.3485544678
 30
0.0
 11
67.0892176386
 21
274.3485544678
 31
0.0
  0
LINE
  5
2AB
100
AcDbEntity
  8
2654_4R
390
0
  6
DIVIDE
100
AcDbLine
 10
52.0892176387
 20
257.8485544696
 30
0.0
 11
67.0892176387
 21
257.8485544678
 31
0.0
  0
LINE
  5
2AC
100
AcDbEntity
  8
2654_4R
390
0
100
AcDbLine
 10
66.0892176387
 20
258.8485544678
 30
0.0
 11
66.0892176387
 21
273.3485544678
 31
0.0
  0
LINE
  5
2AD
100
AcDbEntity
  8
2654_4R
390
0
100
AcDbLine
 10
66.0892176387
 20
258.8485544678
 30
0.0
 11
67.0892176387
 21
257.8485544678
 31
0.0
  0
LINE
  5
2AE
100
AcDbEntity
  8
2654_4R
390
0
  6
DASHED
100
AcDbLine
 10
67.0892176386
 20
274.3485544678
 30
0.0
 11
57.0892176387
 21
268.8485544678
 31
0.0
  0
LINE
  5
2AF
100
AcDbEntity
  8
2654_4R
390
0
  6
DASHED
100
AcDbLine
 10
57.0892176387
 20
268.8485544678
 30
0.0
 11
61.5892176386
 21
262.1885544678
 31
0.0
  0
LINE
  5
2B0
100
AcDbEntity
  8
2654_4R
390
0
  6
DASHED
100
AcDbLine
 10
61.5892176386
 20
262.1885544678
 30
0.0
 11
61.5892176387
 21
269.8485544678
 31
0.0
  0
LINE
  5
2B1
100
AcDbEntity
  8
2654_4R
390
0
  6
DASHED
100
AcDbLine
 10
61.5892176387
 20
269.8485544678
 30
0.0
 11
66.0892176387
 21
273.3485544678
 31
0.0
  0
LINE
  5
2B2
100
AcDbEntity
  8
2654_5L
390
0
  6
DIVIDE
100
AcDbLine
 10
37.0892176386
 20
245.6957436722
 30
0.0
 11
52.0892176387
 21
245.6957436722
 31
0.0
  0
LINE
  5
2B3
100
AcDbEntity
  8
2654_5L
390
0
  6
DIVIDE
100
AcDbLine
 10
37.0892176386
 20
229.1957436722
 30
0.0
 11
52.0892176387
 21
229.1957436722
 31
0.0
  0
LINE
  5
2B4
100
AcDbEntity
  8
2654_5L
390
0
100
AcDbLine
 10
38.0892176387
 20
230.1957436722
 30
0.0
 11
38.0892176387
 21
244.6957436722
 31
0.0
  0
LINE
  5
2B5
100
AcDbEntity
  8
2654_5L
390
0
  6
DASHED
100
AcDbLine
 10
42.5892176386
 20
233.5357436722
 30
0.0
 11
42.5892176387
 21
241.1957436722
 31
0.0
  0
CIRCLE
  5
2B6
100
AcDbEntity
  8
2654_5L
390
0
100
AcDbCircle
 10
42.5892176386
 20
233.5357436722
 30
0.0
 40
1.25
  0
CIRCLE
  5
2B7
100
AcDbEntity
  8
2654_5L
390
0
100
AcDbCircle
 10
42.5892176387
 20
241.1957436722
 30
0.0
 40
1.25
  0
LINE
  5
2B8
100
AcDbEntity
  8
2654_5L
390
0
  6
DASHED
100
AcDbLine
 10
52.0892176387
 20
245.6957436722
 30
0.0
 11
42.5892176387
 21
241.1957436722
 31
0.0
  0
LINE
  5
2B9
100
AcDbEntity
  8
2654_5L
390
0
  6
DASHED
100
AcDbLine
 10
42.5892176386
 20
233.5357436722
 30
0.0
 11
38.0892176387
 21
244.6957436722
 31
0.0
  0
LINE
  5
2BA
100
AcDbEntity
  8
2654_5L
390
0
  6
DASHED
100
AcDbLine
 10
38.0892176387
 20
230.1957436722
 30
0.0
 11
52.0892176386
 21
229.1957436722
 31
0.0
  0
LINE
  5
2BB
100
AcDbEntity
  8
2654_5R
390
0
100
AcDbLine
 10
52.0892176387
 20
245.6957436722
 30
0.0
 11
55.0442812109
 21
245.6957436722
 31
0.0
  0
ARC
  5
2BC
100
AcDbEntity
  8
2654_5R
390
0
100
AcDbCircle
 10
58.7295725868
 20
240.9609123685
 30
0.0
 40
6.0
100
AcDbArc
 50
97.629631036
 51
127.8949195629
  0
ARC
  5
2BD
100
AcDbEntity
  8
2654_5R
390
0
100
AcDbCircle
 10
50.0892176387
 20
239.1957436722
 30
0.0
 40
11.0
100
AcDbArc
 50
25.2370459081
 51
44.5149642072
  0
ARC
  5
2BE
100
AcDbEntity
  8
2654_5R
390
0
100
AcDbCircle
 10
54.7355948795
 20
246.6912578435
 30
0.0
 40
6.0
100
AcDbArc
 50
295.9412159748
 51
332.1223790792
  0
ARC
  5
2BF
100
AcDbEntity
  8
2654_5R
390
0
100
AcDbCircle
 10
57.4095709983
 20
241.1402567206
 30
0.0
 40
0.1631622046
100
AcDbArc
 50
107.5808895889
 51
247.4696538299
  0
ARC
  5
2C0
100
AcDbEntity
  8
2654_5R
390
0
100
AcDbCircle
 10
57.8518169531
 20
235.0108176226
 30
0.0
 40
6.0
100
AcDbArc
 50
57.7536259784
 51
94.8258570638
  0
ARC
  5
2C1
100
AcDbEntity
  8
2654_5R
390
0
100
AcDbCircle
 10
50.0892176387
 20
239.1957436722
 30
0.0
 40
11.0
100
AcDbArc
 50
345.3610408505
 51
364.6389591495
  0
ARC
  5
2C2
100
AcDbEntity
  8
2654_5R
390
0
100
AcDbCircle
 10
58.4605904092
 20
241.9691300667
 30
0.0
 40
6.0
100
AcDbArc
 50
256.0652109172
 51
292.2463740216
  0
ARC
  5
2C3
100
AcDbEntity
  8
2654_5R
390
0
100
AcDbCircle
 10
56.9537859651
 20
235.9947428916
 30
0.0
 40
0.1631622046
100
AcDbArc
 50
67.7048845312
 51
226.0156744156
  0
ARC
  5
2C4
100
AcDbEntity
  8
2654_5R
390
0
100
AcDbCircle
 10
53.3456950955
 20
231.0002016688
 30
0.0
 40
6.0
100
AcDbArc
 50
17.7536259784
 51
54.3760008015
  0
ARC
  5
2C5
100
AcDbEntity
  8
2654_5R
390
0
100
AcDbCircle
 10
50.0892176387
 20
239.1957436722
 30
0.0
 40
11.0
100
AcDbArc
 50
305.3610408505
 51
324.6389591495
  0
ARC
  5
2C6
100
AcDbEntity
  8
2654_5R
390
0
100
AcDbCircle
 10
58.2847596421
 20
235.9392662153
 30
0.0
 40
6.0
100
AcDbArc
 50
215.6239991985
 51
252.2463740216
  0
ARC
  5
2C7
100
AcDbEntity
  8
2654_5R
390
0
100
AcDbCircle
 10
53.2902184192
 20
232.3311753458
 30
0.0
 40
0.1631622046
100
AcDbArc
 50
43.9843255846
 51
79.0564587385
  0
LINE
  5
2C8
100
AcDbEntity
  8
2654_5L
390
0
  6
DASHED
100
AcDbLine
 10
37.0892176386
 20
247.1957436722
 30
0.0
 11
37.0892176386
 21
245.6957436722
 31
0.0
  0
LINE
  5
2C9
100
AcDbEntity
  8
2654_7L
390
0
  6
DIVIDE
100
AcDbLine
 10
52.0892176387
 20
212.9733649032
 30
0.0
 11
38.224337588
 21
212.9733649032
 31
0.0
  0
LINE
  5
2CA
100
AcDbEntity
  8
2654_7L
390
0
  6
DIVIDE
100
AcDbLine
 10
37.0892176387
 20
194.1532747966
 30
0.0
 11
52.0892176387
 21
194.1532747966
 31
0.0
  0
CIRCLE
  5
2CB
100
AcDbEntity
  8
2654_7L
390
0
100
AcDbCircle
 10
47.0892176387
 20
199.6532747966
 30
0.0
 40
1.25
  0
CIRCLE
  5
2CC
100
AcDbEntity
  8
2654_7L
390
0
100
AcDbCircle
 10
47.0892176387
 20
205.6532747966
 30
0.0
 40
1.25
  0
LINE
  5
2CD
100
AcDbEntity
  8
2654_7L
390
0
100
AcDbLine
 10
42.0892176387
 20
195.1532747966
 30
0.0
 11
42.0892176387
 21
211.9733649032
 31
0.0
  0
LINE
  5
2CE
100
AcDbEntity
  8
2654_7L
390
0
  6
DASHED
100
AcDbLine
 10
37.0892176386
 20
215.1532747966
 30
0.0
 11
38.224337588
 21
212.9733649032
 31
0.0
  0
LINE
  5
2CF
100
AcDbEntity
  8
2654_7L
390
0
  6
DASHED
100
AcDbLine
 10
52.0892176387
 20
212.9733649045
 30
0.0
 11
47.0892176387
 21
205.6532747966
 31
0.0
  0
LINE
  5
2D0
100
AcDbEntity
  8
2654_7L
390
0
  6
DASHED
100
AcDbLine
 10
47.0892176387
 20
205.6532747966
 30
0.0
 11
42.0892176387
 21
211.9733649032
 31
0.0
  0
LINE
  5
2D1
100
AcDbEntity
  8
2654_7L
390
0
  6
DASHED
100
AcDbLine
 10
42.0892176387
 20
195.1532747966
 30
0.0
 11
47.0892176387
 21
199.6532747966
 31
0.0
  0
LINE
  5
2D2
100
AcDbEntity
  8
2654_7L
390
0
  6
DASHED
100
AcDbLine
 10
47.0892176387
 20
199.6532747966
 30
0.0
 11
52.0892176387
 21
194.1532747966
 31
0.0
  0
ARC
  5
2D3
100
AcDbEntity
  8
2654_7R
390
0
100
AcDbCircle
 10
57.2053341622
 20
203.381196858
 30
0.0
 40
11.0
100
AcDbArc
 50
55.3610408505
 51
120.7712408428
  0
ARC
  5
2D4
100
AcDbEntity
  8
2654_7R
390
0
100
AcDbCircle
 10
57.4623815475
 20
212.1962680884
 30
0.0
 40
6.0
100
AcDbArc
 50
326.0652109172
 51
362.2463740216
  0
ARC
  5
2D5
100
AcDbEntity
  8
2654_7R
390
0
100
AcDbCircle
 10
62.5611116177
 20
208.7369743134
 30
0.0
 40
0.1631622046
100
AcDbArc
 50
137.7048845313
 51
312.295115469
  0
ARC
  5
2D6
100
AcDbEntity
  8
2654_7R
390
0
100
AcDbCircle
 10
66.0204053927
 20
203.6382442433
 30
0.0
 40
6.0
100
AcDbArc
 50
87.7536259784
 51
123.9347890828
  0
ARC
  5
2D7
100
AcDbEntity
  8
2654_7R
390
0
100
AcDbCircle
 10
57.2053341622
 20
203.381196858
 30
0.0
 40
11.0
100
AcDbArc
 50
15.3610408505
 51
34.6389591495
  0
ARC
  5
2D8
100
AcDbEntity
  8
2654_7R
390
0
100
AcDbCircle
 10
63.0684624488
 20
209.9687063154
 30
0.0
 40
6.0
100
AcDbArc
 50
286.0652109172
 51
322.2463740216
  0
ARC
  5
2D9
100
AcDbEntity
  8
2654_7R
390
0
100
AcDbCircle
 10
64.7507251092
 20
204.0413330277
 30
0.0
 40
0.1631622046
100
AcDbArc
 50
97.7048845313
 51
272.2951154688
  0
ARC
  5
2DA
100
AcDbEntity
  8
2654_7R
390
0
100
AcDbCircle
 10
64.1232973684
 20
197.9118880137
 30
0.0
 40
6.0
100
AcDbArc
 50
47.7536259784
 51
83.9347890828
  0
ARC
  5
2DB
100
AcDbEntity
  8
2654_7R
390
0
100
AcDbCircle
 10
57.2053341622
 20
203.381196858
 30
0.0
 40
11.0
100
AcDbArc
 50
335.3610408505
 51
354.6389591495
  0
ARC
  5
2DC
100
AcDbEntity
  8
2654_7R
390
0
100
AcDbCircle
 10
65.9311204633
 20
204.6587756552
 30
0.0
 40
6.0
100
AcDbArc
 50
246.0652109172
 51
282.2463740216
  0
ARC
  5
2DD
100
AcDbEntity
  8
2654_7R
390
0
100
AcDbCircle
 10
63.4097663189
 20
199.0368066915
 30
0.0
 40
0.1631622046
100
AcDbArc
 50
57.7048845311
 51
232.2951154688
  0
ARC
  5
2DE
100
AcDbEntity
  8
2654_7R
390
0
100
AcDbCircle
 10
58.9891974753
 20
194.7446821769
 30
0.0
 40
6.0
100
AcDbArc
 50
354.7575209239
 51
403.9347890828
  0
LINE
  5
2DF
100
AcDbEntity
  8
2654_7R
390
0
100
AcDbLine
 10
64.964099055
 20
194.196456755
 30
0.0
 11
52.0892176387
 21
194.1532747966
 31
0.0
  0
LINE
  5
2E0
100
AcDbEntity
  8
2654_7R
390
0
  6
DASHED
100
AcDbLine
 10
52.0892176386
 20
215.1532747966
 30
0.0
 11
57.2053341622
 21
203.381196858
 31
0.0
  0
LINE
  5
2E1
100
AcDbEntity
  8
2654_7R
390
0
  6
DASHED
100
AcDbLine
 10
57.2053341622
 20
203.381196858
 30
0.0
 11
51.5776059863
 21
212.8325817078
 31
0.0
  0
LINE
  5
2E2
100
AcDbEntity
  8
2654_10L
390
0
  6
DIVIDE
100
AcDbLine
 10
37.0892176387
 20
180.5237503263
 30
0.0
 11
52.0892176387
 21
180.5237503263
 31
0.0
  0
LINE
  5
2E3
100
AcDbEntity
  8
2654_10L
390
0
  6
DIVIDE
100
AcDbLine
 10
37.0892176386
 20
108.5239527484
 30
0.0
 11
52.0892176386
 21
108.5239527484
 31
0.0
  0
LINE
  5
2E4
100
AcDbEntity
  8
2654_10L
390
0
100
AcDbLine
 10
41.9999184881
 20
179.5237503263
 30
0.0
 11
41.9999184881
 21
142.2767647561
 31
0.0
  0
LINE
  5
2E5
100
AcDbEntity
  8
2654_10L
390
0
100
AcDbLine
 10
41.9999184881
 20
142.2767647561
 30
0.0
 11
54.3055683223
 21
142.2767647561
 31
0.0
  0
LINE
  5
2E6
100
AcDbEntity
  8
2654_10L
390
0
100
AcDbLine
 10
41.9999184881
 20
138.0267647561
 30
0.0
 11
53.4940495317
 21
138.0267647561
 31
0.0
  0
LINE
  5
2E7
100
AcDbEntity
  8
2654_10L
390
0
100
AcDbLine
 10
41.9999184881
 20
138.0267647561
 30
0.0
 11
41.9999184881
 21
109.5237503263
 31
0.0
  0
LINE
  5
2E8
100
AcDbEntity
  8
2654_10L
390
0
  6
DASHED
100
AcDbLine
 10
52.0892176387
 20
180.5237503263
 30
0.0
 11
47.2345680634
 21
176.526214958
 31
0.0
  0
LINE
  5
2E9
100
AcDbEntity
  8
2654_10L
390
0
  6
DASHED
100
AcDbLine
 10
47.2345680634
 20
176.526214958
 30
0.0
 11
41.9999184881
 21
179.5237503263
 31
0.0
  0
LINE
  5
2EA
100
AcDbEntity
  8
2654_10L
390
0
  6
DASHED
100
AcDbLine
 10
41.9999184881
 20
109.5237503263
 30
0.0
 11
47.2345680634
 21
112.5239527472
 31
0.0
  0
LINE
  5
2EB
100
AcDbEntity
  8
2654_10L
390
0
  6
DASHED
100
AcDbLine
 10
47.2345680634
 20
112.5239527472
 30
0.0
 11
52.0892176387
 21
108.5239527486
 31
0.0
  0
LINE
  5
2EC
100
AcDbEntity
  8
2654_10L
390
0
  6
DASHED
100
AcDbLine
 10
54.3055683223
 20
142.2767647561
 30
0.0
 11
53.4940495317
 21
138.0267647561
 31
0.0
  0
LINE
  5
2ED
100
AcDbEntity
  8
2654_10R
390
0
  6
DIVIDE
100
AcDbLine
 10
52.0892176387
 20
180.5237503263
 30
0.0
 11
67.0892176387
 21
180.5237503263
 31
0.0
  0
LINE
  5
2EE
100
AcDbEntity
  8
2654_10R
390
0
  6
DIVIDE
100
AcDbLine
 10
52.0892176386
 20
108.5239527484
 30
0.0
 11
67.0892176387
 21
108.5239527484
 31
0.0
  0
LINE
  5
2EF
100
AcDbEntity
  8
2654_10R
390
0
100
AcDbLine
 10
64.0892176387
 20
179.5237503275
 30
0.0
 11
64.0892176387
 21
109.5239527484
 31
0.0
  0
LINE
  5
2F0
100
AcDbEntity
  8
2654_10R
390
0
100
AcDbLine
 10
60.7399517438
 20
158.0237503275
 30
0.0
 11
60.7399517438
 21
170.0237503275
 31
0.0
  0
LINE
  5
2F1
100
AcDbEntity
  8
2654_10R
390
0
100
AcDbLine
 10
59.7399517438
 20
170.0237503275
 30
0.0
 11
59.7399517438
 21
158.0237503275
 31
0.0
  0
ARC
  5
2F2
100
AcDbEntity
  8
2654_10R
390
0
100
AcDbCircle
 10
60.2399517438
 20
170.0237503275
 30
0.0
 40
0.5
100
AcDbArc
 50
0.0
 51
180.0
  0
ARC
  5
2F3
100
AcDbEntity
  8
2654_10R
390
0
100
AcDbCircle
 10
60.2399517438
 20
158.0237503275
 30
0.0
 40
0.5
100
AcDbArc
 50
180.0
 51
360.0
  0
LINE
  5
2F4
100
AcDbEntity
  8
2654_10R
390
0
100
AcDbLine
 10
56.0892176387
 20
142.2696392292
 30
0.0
 11
56.0892176387
 21
138.0196392292
 31
0.0
  0
LINE
  5
2F5
100
AcDbEntity
  8
2654_10R
390
0
100
AcDbLine
 10
56.0892176387
 20
142.2696392292
 30
0.0
 11
52.0892176387
 21
142.2696392292
 31
0.0
  0
LINE
  5
2F6
100
AcDbEntity
  8
2654_10R
390
0
100
AcDbLine
 10
52.0892176387
 20
138.0196392292
 30
0.0
 11
56.0892176387
 21
138.0196392292
 31
0.0
  0
LINE
  5
2F7
100
AcDbEntity
  8
2654_10R
390
0
100
AcDbLine
 10
59.7399517438
 20
119.0239527484
 30
0.0
 11
59.7399517438
 21
131.0239527484
 31
0.0
  0
ARC
  5
2F8
100
AcDbEntity
  8
2654_10R
390
0
100
AcDbCircle
 10
60.2399517438
 20
131.0239527484
 30
0.0
 40
0.5
100
AcDbArc
 50
0.0
 51
180.0
  0
LINE
  5
2F9
100
AcDbEntity
  8
2654_10R
390
0
100
AcDbLine
 10
60.7399517438
 20
119.0239527484
 30
0.0
 11
60.7399517438
 21
131.0239527484
 31
0.0
  0
ARC
  5
2FA
100
AcDbEntity
  8
2654_10R
390
0
100
AcDbCircle
 10
60.2399517438
 20
119.0239527484
 30
0.0
 40
0.5
100
AcDbArc
 50
180.0
 51
360.0
  0
LINE
  5
2FB
100
AcDbEntity
  8
2654_10R
390
0
  6
DASHED
100
AcDbLine
 10
67.0892176387
 20
180.5237503263
 30
0.0
 11
60.2345680634
 21
176.5262149592
 31
0.0
  0
LINE
  5
2FC
100
AcDbEntity
  8
2654_10R
390
0
  6
DASHED
100
AcDbLine
 10
60.2345680634
 20
176.5262149592
 30
0.0
 11
59.7399517438
 21
170.0237503275
 31
0.0
  0
LINE
  5
2FD
100
AcDbEntity
  8
2654_10R
390
0
  6
DASHED
100
AcDbLine
 10
59.7399517438
 20
170.0237503275
 30
0.0
 11
64.0892176387
 21
179.5237503275
 31
0.0
  0
LINE
  5
2FE
100
AcDbEntity
  8
2654_10R
390
0
  6
DASHED
100
AcDbLine
 10
64.0892176387
 20
109.5239527484
 30
0.0
 11
60.7399517438
 21
119.0239527484
 31
0.0
  0
LINE
  5
2FF
100
AcDbEntity
  8
2654_10R
390
0
  6
DASHED
100
AcDbLine
 10
60.7399517438
 20
119.0239527484
 30
0.0
 11
60.2345680634
 21
112.5239527484
 31
0.0
  0
LINE
  5
300
100
AcDbEntity
  8
2654_10R
390
0
  6
DASHED
100
AcDbLine
 10
60.2345680634
 20
112.5239527484
 30
0.0
 11
52.0892176387
 21
138.0196392292
 31
0.0
  0
LINE
  5
301
100
AcDbEntity
  8
2654_10R
390
0
  6
DASHED
100
AcDbLine
 10
52.0892176387
 20
142.2696392292
 30
0.0
 11
67.0892176387
 21
108.5239527484
 31
0.0
  0
LINE
  5
302
100
AcDbEntity
  8
2654_11L
390
0
  6
DIVIDE
100
AcDbLine
 10
37.0892176386
 20
88.7663785554
 30
0.0
 11
52.0892176386
 21
88.7663785554
 31
0.0
  0
LINE
  5
303
100
AcDbEntity
  8
2654_11L
390
0
  6
DIVIDE
100
AcDbLine
 10
52.0892176387
 20
8.7663785573
 30
0.0
 11
37.0892176387
 21
8.7663785554
 31
0.0
  0
LINE
  5
304
100
AcDbEntity
  8
2654_11L
390
0
100
AcDbLine
 10
41.9999184881
 20
87.7663785573
 30
0.0
 11
41.9999184881
 21
53.7591687771
 31
0.0
  0
LINE
  5
305
100
AcDbEntity
  8
2654_11L
390
0
100
AcDbLine
 10
41.9999184881
 20
53.7591687771
 30
0.0
 11
48.0892176387
 21
53.7591687771
 31
0.0
  0
LINE
  5
306
100
AcDbEntity
  8
2654_11L
390
0
100
AcDbLine
 10
48.0892176387
 20
53.7591687771
 30
0.0
 11
48.0892176387
 21
48.2591687771
 31
0.0
  0
LINE
  5
307
100
AcDbEntity
  8
2654_11L
390
0
100
AcDbLine
 10
48.0892176387
 20
48.2591687771
 30
0.0
 11
54.365408478
 21
48.2591687771
 31
0.0
  0
LINE
  5
308
100
AcDbEntity
  8
2654_11L
390
0
100
AcDbLine
 10
48.0892176387
 20
40.2693929871
 30
0.0
 11
53.3817804725
 21
40.2693929871
 31
0.0
  0
LINE
  5
309
100
AcDbEntity
  8
2654_11L
390
0
100
AcDbLine
 10
48.0892176387
 20
34.7693929871
 30
0.0
 11
48.0892176387
 21
40.2693929871
 31
0.0
  0
LINE
  5
30A
100
AcDbEntity
  8
2654_11L
390
0
100
AcDbLine
 10
41.9999184881
 20
34.7693929871
 30
0.0
 11
48.0892176387
 21
34.7693929871
 31
0.0
  0
LINE
  5
30B
100
AcDbEntity
  8
2654_11L
390
0
100
AcDbLine
 10
41.9999184881
 20
34.7693929871
 30
0.0
 11
41.9999184881
 21
9.7663785573
 31
0.0
  0
LINE
  5
30C
100
AcDbEntity
  8
2654_11L
390
0
  6
DASHED
100
AcDbLine
 10
54.365408478
 20
48.2591687771
 30
0.0
 11
53.3817804725
 21
40.2693929871
 31
0.0
  0
LINE
  5
30D
100
AcDbEntity
  8
2654_11L
390
0
  6
DASHED
100
AcDbLine
 10
52.0892176386
 20
88.7663785554
 30
0.0
 11
47.2345680634
 21
84.768843189
 31
0.0
  0
LINE
  5
30E
100
AcDbEntity
  8
2654_11L
390
0
  6
DASHED
100
AcDbLine
 10
47.2345680634
 20
84.768843189
 30
0.0
 11
41.9999184881
 21
87.7663785573
 31
0.0
  0
LINE
  5
30F
100
AcDbEntity
  8
2654_11L
390
0
  6
DASHED
100
AcDbLine
 10
41.9999184881
 20
9.7663785573
 30
0.0
 11
47.2345680634
 21
12.7665809782
 31
0.0
  0
LINE
  5
310
100
AcDbEntity
  8
2654_11L
390
0
  6
DASHED
100
AcDbLine
 10
47.2345680634
 20
12.7665809782
 30
0.0
 11
52.0892176387
 21
8.7663785573
 31
0.0
  0
LINE
  5
311
100
AcDbEntity
  8
2654_11R
390
0
  6
DIVIDE
100
AcDbLine
 10
52.0892176386
 20
88.7663785554
 30
0.0
 11
67.0892176387
 21
88.7663785555
 31
0.0
  0
LINE
  5
312
100
AcDbEntity
  8
2654_11R
390
0
  6
DIVIDE
100
AcDbLine
 10
52.0892176387
 20
8.7663785573
 30
0.0
 11
67.0892176387
 21
8.7663785573
 31
0.0
  0
LINE
  5
313
100
AcDbEntity
  8
2654_11R
390
0
100
AcDbLine
 10
64.0892176387
 20
87.7763785554
 30
0.0
 11
64.0892176387
 21
9.7763785554
 31
0.0
  0
LINE
  5
314
100
AcDbEntity
  8
2654_11R
390
0
100
AcDbLine
 10
59.7399517438
 20
80.2618626155
 30
0.0
 11
59.7399517438
 21
56.2618626155
 31
0.0
  0
LINE
  5
315
100
AcDbEntity
  8
2654_11R
390
0
100
AcDbLine
 10
60.7399517438
 20
56.2618626155
 30
0.0
 11
60.7399517438
 21
80.2618626155
 31
0.0
  0
ARC
  5
316
100
AcDbEntity
  8
2654_11R
390
0
100
AcDbCircle
 10
60.2399517438
 20
80.2618626155
 30
0.0
 40
0.5
100
AcDbArc
 50
0.0
 51
180.0
  0
ARC
  5
317
100
AcDbEntity
  8
2654_11R
390
0
100
AcDbCircle
 10
60.2399517438
 20
56.2618626155
 30
0.0
 40
0.5
100
AcDbArc
 50
180.0
 51
360.0
  0
ARC
  5
318
100
AcDbEntity
  8
2654_11R
390
0
100
AcDbCircle
 10
60.2399517438
 20
41.2620650364
 30
0.0
 40
0.5
100
AcDbArc
 50
0.0
 51
180.0
  0
LINE
  5
319
100
AcDbEntity
  8
2654_11R
390
0
100
AcDbLine
 10
59.7399517438
 20
17.2620650364
 30
0.0
 11
59.7399517438
 21
41.2620650364
 31
0.0
  0
LINE
  5
31A
100
AcDbEntity
  8
2654_11R
390
0
100
AcDbLine
 10
60.7399517438
 20
17.2620650364
 30
0.0
 11
60.7399517438
 21
41.2620650364
 31
0.0
  0
ARC
  5
31B
100
AcDbEntity
  8
2654_11R
390
0
100
AcDbCircle
 10
60.2399517438
 20
17.2620650364
 30
0.0
 40
0.5
100
AcDbArc
 50
180.0
 51
360.0
  0
LINE
  5
31C
100
AcDbEntity
  8
2654_11R
390
0
100
AcDbLine
 10
56.0892176387
 20
40.2691687753
 30
0.0
 11
52.0892176387
 21
40.2691687753
 31
0.0
  0
LINE
  5
31D
100
AcDbEntity
  8
2654_11R
390
0
100
AcDbLine
 10
56.0892176387
 20
48.2691687753
 30
0.0
 11
52.0892176387
 21
48.2691687753
 31
0.0
  0
LINE
  5
31E
100
AcDbEntity
  8
2654_11R
390
0
100
AcDbLine
 10
56.0892176387
 20
40.2691687753
 30
0.0
 11
56.0892176387
 21
48.2691687753
 31
0.0
  0
LINE
  5
31F
100
AcDbEntity
  8
2654_11R
390
0
  6
DASHED
100
AcDbLine
 10
67.0892176387
 20
88.7663785555
 30
0.0
 11
60.2345680634
 21
84.7688431871
 31
0.0
  0
LINE
  5
320
100
AcDbEntity
  8
2654_11R
390
0
  6
DASHED
100
AcDbLine
 10
60.2345680634
 20
84.7688431871
 30
0.0
 11
60.7399517438
 21
80.2618626155
 31
0.0
  0
LINE
  5
321
100
AcDbEntity
  8
2654_11R
390
0
  6
DASHED
100
AcDbLine
 10
60.7399517438
 20
80.2618626155
 30
0.0
 11
64.0892176387
 21
87.7763785554
 31
0.0
  0
LINE
  5
322
100
AcDbEntity
  8
2654_11R
390
0
  6
DASHED
100
AcDbLine
 10
64.0892176387
 20
9.7763785554
 30
0.0
 11
60.2345680634
 21
12.7663785554
 31
0.0
  0
LINE
  5
323
100
AcDbEntity
  8
2654_11R
390
0
  6
DASHED
100
AcDbLine
 10
60.2345680634
 20
12.7663785554
 30
0.0
 11
59.7399517438
 21
17.2620650364
 31
0.0
  0
LINE
  5
324
100
AcDbEntity
  8
2654_11R
390
0
  6
DASHED
100
AcDbLine
 10
59.7399517438
 20
17.2620650364
 30
0.0
 11
52.0892176387
 21
40.2691687753
 31
0.0
  0
LINE
  5
325
100
AcDbEntity
  8
2654_11R
390
0
  6
DASHED
100
AcDbLine
 10
52.0892176387
 20
48.2691687753
 30
0.0
 11
67.0892176387
 21
8.7663785554
 31
0.0
  0
CIRCLE
  5
326
100
AcDbEntity
  8
2654_8P
390
0
  6
PHANTOM
100
AcDbCircle
 10
109.9331859956
 20
201.9744630818
 30
0.0
 40
0.5
  0
CIRCLE
  5
327
100
AcDbEntity
  8
2654_8P
390
0
  6
PHANTOM
100
AcDbCircle
 10
109.9331859956
 20
184.9744630818
 30
0.0
 40
1.0
  0
LINE
  5
328
100
AcDbEntity
  8
2654_8P
390
0
100
AcDbLine
 10
111.9331859956
 20
184.9744630818
 30
0.0
 11
111.9331859956
 21
199.2469973825
 31
0.0
  0
LINE
  5
329
100
AcDbEntity
  8
2654_8P
390
0
  6
DIVIDE
100
AcDbLine
 10
119.9331859956
 20
184.9744630818
 30
0.0
 11
119.9331859956
 21
201.9744630818
 31
0.0
  0
LINE
  5
32A
100
AcDbEntity
  8
2654_8P
390
0
100
AcDbLine
 10
115.7837258063
 20
201.9744630818
 30
0.0
 11
111.9331859956
 21
199.2469973825
 31
0.0
  0
LINE
  5
32B
100
AcDbEntity
  8
2654_8P
390
0
100
AcDbLine
 10
115.7837258063
 20
201.9744630818
 30
0.0
 11
119.9331859956
 21
201.9744630818
 31
0.0
  0
LINE
  5
32C
100
AcDbEntity
  8
2654_8P
390
0
100
AcDbLine
 10
114.9331859956
 20
197.479877285
 30
0.0
 11
116.9331859956
 21
197.479877285
 31
0.0
  0
LINE
  5
32D
100
AcDbEntity
  8
2654_8P
390
0
100
AcDbLine
 10
114.9331859956
 20
192.979877285
 30
0.0
 11
114.9331859956
 21
197.479877285
 31
0.0
  0
LINE
  5
32E
100
AcDbEntity
  8
2654_8P
390
0
100
AcDbLine
 10
116.9331859956
 20
192.979877285
 30
0.0
 11
116.9331859956
 21
197.479877285
 31
0.0
  0
LINE
  5
32F
100
AcDbEntity
  8
2654_8P
390
0
100
AcDbLine
 10
116.9331859956
 20
192.979877285
 30
0.0
 11
114.9331859956
 21
192.979877285
 31
0.0
  0
LINE
  5
330
100
AcDbEntity
  8
2654_8P
390
0
100
AcDbLine
 10
111.9331859956
 20
184.9744630818
 30
0.0
 11
119.9331859956
 21
184.9744630818
 31
0.0
  0
LINE
  5
331
100
AcDbEntity
  8
2654_8P
390
0
  6
DASHED
100
AcDbLine
 10
109.9331859956
 20
201.9744630818
 30
0.0
 11
115.7837258063
 21
201.9744630818
 31
0.0
  0
LINE
  5
332
100
AcDbEntity
  8
2654_8P
390
0
  6
DASHED
100
AcDbLine
 10
115.7837258063
 20
201.9744630818
 30
0.0
 11
116.9331859956
 21
197.479877285
 31
0.0
  0
LINE
  5
333
100
AcDbEntity
  8
2654_8P
390
0
  6
DASHED
100
AcDbLine
 10
116.4331859956
 20
188.979877285
 30
0.0
 11
109.9331859956
 21
184.9744630818
 31
0.0
  0
LINE
  5
334
100
AcDbEntity
  8
MITTELLINIEN
390
0
100
AcDbLine
 10
109.9331859956
 20
206.9744630818
 30
0.0
 11
109.9331859956
 21
179.9744630818
 31
0.0
  0
LINE
  5
335
100
AcDbEntity
  8
MITTELLINIEN
390
0
100
AcDbLine
 10
121.9331859956
 20
206.9744630818
 30
0.0
 11
121.9331859956
 21
179.9744630818
 31
0.0
  0
INSERT
  5
336
100
AcDbEntity
  8
BEMAßUNG
390
0
100
AcDbBlockReference
  2
D133357824
 10
0.0
 20
0.0
 30
0.0
  0
INSERT
  5
337
100
AcDbEntity
  8
BEMAßUNG
390
0
100
AcDbBlockReference
  2
D133357568
 10
0.0
 20
0.0
 30
0.0
  0
INSERT
  5
338
100
AcDbEntity
  8
BEMAßUNG
390
0
100
AcDbBlockReference
  2
D133373696
 10
0.0
 20
0.0
 30
0.0
  0
LINE
  5
339
100
AcDbEntity
  8
2654_5R
390
0
  6
DASHED
100
AcDbLine
 10
52.0892176386
 20
247.1957436722
 30
0.0
 11
52.0892176387
 21
245.6957436722
 31
0.0
  0
INSERT
  5
33A
100
AcDbEntity
  8
BEMAßUNG
390
0
100
AcDbBlockReference
  2
D133373440
 10
0.0
 20
0.0
 30
0.0
  0
INSERT
  5
33B
100
AcDbEntity
  8
BEMAßUNG
390
0
100
AcDbBlockReference
  2
D133373184
 10
0.0
 20
0.0
 30
0.0
  0
INSERT
  5
33C
100
AcDbEntity
  8
BEMAßUNG
390
0
100
AcDbBlockReference
  2
D133372928
 10
0.0
 20
0.0
 30
0.0
  0
MTEXT
  5
33D
100
AcDbEntity
  8
2654_1P
390
0
100
AcDbMText
 10
145.5608817367
 20
274.8488299851
 30
0.0
 40
2.0
 41
0.0
 71
         1
 72
         1
  1
\W1.135101;M15x30x15 F150\PT2 O2 S4 I1,2\PB-0,3     D1,2
  7
Arial
 73
         1
 44
0.66
  0
MTEXT
  5
33E
100
AcDbEntity
  8
2654_2P
390
0
100
AcDbMText
 10
84.0416429532
 20
159.9932596296
 30
0.0
 40
2.0
 41
0.0
 71
         1
 72
         1
  1
\W1.135108;M42+x2 F150\PT2 O2 S4 I1,2\PB-0,3     D1,2
  7
Arial
 73
         1
 44
0.66
  0
MTEXT
  5
33F
100
AcDbEntity
  8
2654___ W-_ GSP-_ SIGNAL-ANTRIEB
390
0
100
AcDbMText
 10
32.1316579232
 20
267.0668993529
 30
0.0
 40
2.0
 41
0.0
 71
         5
 72
         1
  1
\W0.810845;>2654.4L\PM15x15x2\PT2 O2
  7
Arial
 73
         1
 44
0.66
  0
ARC
  5
340
100
AcDbEntity
  8
2654___ W-_ GSP-_ SIGNAL-ANTRIEB
390
0
  6
DASHDOT
100
AcDbCircle
 10
44.2861370062
 20
266.0985544679
 30
0.0
 40
10.9479746247
100
AcDbArc
 50
131.0999434524
 51
228.9000565483
  0
MTEXT
  5
341
100
AcDbEntity
  8
2654_8P
390
0
100
AcDbMText
 10
108.6787594996
 20
204.3296757947
 30
0.0
 40
2.0
 41
0.0
 71
         5
 72
         1
  1
\W0.810851;M12+x5 F150\PT5 O2 S6 I1,2\PB-0,5   D2
  7
Arial
 73
         1
 44
0.66
  0
MTEXT
  5
342
100
AcDbEntity
  8
2654_4L
390
0
100
AcDbMText
 10
29.9260192103
 20
279.6752644025
 30
0.0
 40
2.0
 41
0.0
 71
         1
 72
         1
  1
\W0.810867;M15x15x2 F150\PT2 O2 S4 I1,2\PB-0,3     D1,5
  7
Arial
 73
         1
 44
0.66
  0
TEXT
  5
343
100
AcDbEntity
  8
2654_4R
390
0
100
AcDbText
 10
45.822379612
 20
274.0440576871
 30
0.0
 40
2.0
  1
@2654.4L
 41
1.1351288941
  7
Arial
 11
45.822379612
 21
276.0440576871
 31
0.0
100
AcDbText
 73
         3
  0
TEXT
  5
344
100
AcDbEntity
  8
2654_5R
390
0
100
AcDbText
 10
45.822379612
 20
246.8912468914
 30
0.0
 40
2.0
  1
@2654.4L
 41
1.1351288941
  7
Arial
 11
45.822379612
 21
248.8912468914
 31
0.0
100
AcDbText
 73
         3
  0
TEXT
  5
345
100
AcDbEntity
  8
2654_5L
390
0
100
AcDbText
 10
30.822379612
 20
246.8912468914
 30
0.0
 40
2.0
  1
@2654.4L
 41
1.1351288941
  7
Arial
 11
30.822379612
 21
248.8912468914
 31
0.0
100
AcDbText
 73
         3
  0
TEXT
  5
346
100
AcDbEntity
  8
2654_7R
390
0
100
AcDbText
 10
45.822379612
 20
214.8487780159
 30
0.0
 40
2.0
  1
@2654.4L
 41
1.1351288941
  7
Arial
 11
45.822379612
 21
216.8487780159
 31
0.0
100
AcDbText
 73
         3
  0
TEXT
  5
347
100
AcDbEntity
  8
2654_7L
390
0
100
AcDbText
 10
30.822379612
 20
214.8487780159
 30
0.0
 40
2.0
  1
@2654.4L
 41
1.1351288941
  7
Arial
 11
30.822379612
 21
216.8487780159
 31
0.0
100
AcDbText
 73
         3
  0
TEXT
  5
348
100
AcDbEntity
  8
2654_10R
390
0
100
AcDbText
 10
45.8223796121
 20
180.2192535455
 30
0.0
 40
2.0
  1
@2654.4L
 41
1.1351288941
  7
Arial
 11
45.8223796121
 21
182.2192535455
 31
0.0
100
AcDbText
 73
         3
  0
TEXT
  5
349
100
AcDbEntity
  8
2654_10L
390
0
100
AcDbText
 10
30.8223796121
 20
180.2192535455
 30
0.0
 40
2.0
  1
@2654.4L
 41
1.1351288941
  7
Arial
 11
30.8223796121
 21
182.2192535455
 31
0.0
100
AcDbText
 73
         3
  0
TEXT
  5
34A
100
AcDbEntity
  8
2654_11R
390
0
100
AcDbText
 10
45.822379612
 20
88.4618817747
 30
0.0
 40
2.0
  1
@2654.4L
 41
1.1351288941
  7
Arial
 11
45.822379612
 21
90.4618817747
 31
0.0
100
AcDbText
 73
         3
  0
TEXT
  5
34B
100
AcDbEntity
  8
2654_11L
390
0
100
AcDbText
 10
30.822379612
 20
88.4618817747
 30
0.0
 40
2.0
  1
@2654.4L
 41
1.1351288941
  7
Arial
 11
30.822379612
 21
90.4618817747
 31
0.0
100
AcDbText
 73
         3
  0
INSERT
  5
34C
100
AcDbEntity
  8
BEMAßUNG
390
0
100
AcDbBlockReference
  2
D133372672
 10
0.0
 20
0.0
 30
0.0
  0
ARC
  5
34D
100
AcDbEntity
  8
2654___ W-_ GSP-_ SIGNAL-ANTRIEB
390
0
  6
DASHDOT
100
AcDbCircle
 10
44.9404024032
 20
238.1957436722
 30
0.0
 40
11.9432450451
100
AcDbArc
 50
131.099943452
 51
228.900056548
  0
MTEXT
  5
34E
100
AcDbEntity
  8
2654___ W-_ GSP-_ SIGNAL-ANTRIEB
390
0
100
AcDbMText
 10
32.1316579232
 20
239.9140885572
 30
0.0
 40
2.0
 41
0.0
 71
         5
 72
         1
  1
\W0.810845;>2654.5L\PM15x15x2\PT2 O2
  7
Arial
 73
         1
 44
0.66
  0
ARC
  5
34F
100
AcDbEntity
  8
2654___ W-_ GSP-_ SIGNAL-ANTRIEB
390
0
  6
DASHDOT
100
AcDbCircle
 10
46.2489331973
 20
204.6532747967
 30
0.0
 40
13.933785886
100
AcDbArc
 50
131.0999434524
 51
228.9000565483
  0
MTEXT
  5
350
100
AcDbEntity
  8
2654___ W-_ GSP-_ SIGNAL-ANTRIEB
390
0
100
AcDbMText
 10
32.1316579232
 20
207.8716196816
 30
0.0
 40
2.0
 41
0.0
 71
         5
 72
         1
  1
\W0.810845;>2654.7L\PM15x15x2\PT2 O2
  7
Arial
 73
         1
 44
0.66
  0
ARC
  5
351
100
AcDbEntity
  8
2654___ W-_ GSP-_ SIGNAL-ANTRIEB
390
0
  6
DASHDOT
100
AcDbCircle
 10
68.4938684051
 20
144.5238515373
 30
0.0
 40
47.7728458706
100
AcDbArc
 50
131.0999434519
 51
228.9000565479
  0
MTEXT
  5
352
100
AcDbEntity
  8
2654___ W-_ GSP-_ SIGNAL-ANTRIEB
390
0
100
AcDbMText
 10
32.1316579233
 20
173.2420952113
 30
0.0
 40
2.0
 41
0.0
 71
         5
 72
         1
  1
\W0.810848;>2654.10L\PM15x15x2\PT2 O2
  7
Arial
 73
         1
 44
0.66
  0
ARC
  5
353
100
AcDbEntity
  8
2654___ W-_ GSP-_ SIGNAL-ANTRIEB
390
0
  6
DASHDOT
100
AcDbCircle
 10
117.3481938288
 20
193.4744630818
 30
0.0
 40
11.2797314315
100
AcDbArc
 50
131.099943452
 51
228.900056548
  0
MTEXT
  5
354
100
AcDbEntity
  8
2654___ W-_ GSP-_ SIGNAL-ANTRIEB
390
0
100
AcDbMText
 10
100.3999604421
 20
242.8220338191
 30
0.0
 40
2.0
 41
0.0
 71
         5
 72
         1
  1
\W0.810845;>2654.9P\PMØ6\PT6 O2
  7
Arial
 73
         1
 44
0.66
  0
ARC
  5
355
100
AcDbEntity
  8
2654___ W-_ GSP-_ SIGNAL-ANTRIEB
390
0
  6
DASHDOT
100
AcDbCircle
 10
111.2773426052
 20
134.1100856638
 30
0.0
 40
27.8675717719
100
AcDbArc
 50
131.099943452
 51
228.900056548
  0
MTEXT
  5
356
100
AcDbEntity
  8
2654___ W-_ GSP-_ SIGNAL-ANTRIEB
390
0
100
AcDbMText
 10
88.0003517725
 20
147.8284305488
 30
0.0
 40
2.0
 41
0.0
 71
         5
 72
         1
  1
\W0.810845;>2654.2P\PM42+x2\PT2 O2
  7
Arial
 73
         1
 44
0.66
  0
ARC
  5
357
100
AcDbEntity
  8
2654___ W-_ GSP-_ SIGNAL-ANTRIEB
390
0
  6
DASHDOT
100
AcDbCircle
 10
71.9833721471
 20
48.7663785564
 30
0.0
 40
53.0810890882
100
AcDbArc
 50
131.0999434521
 51
228.900056548
  0
MTEXT
  5
358
100
AcDbEntity
  8
2654___ W-_ GSP-_ SIGNAL-ANTRIEB
390
0
100
AcDbMText
 10
32.1316579232
 20
81.4847234405
 30
0.0
 40
2.0
 41
0.0
 71
         5
 72
         1
  1
\W0.810848;>2654.11L\PM15x15x2\PT2 O2
  7
Arial
 73
         1
 44
0.66
  0
MTEXT
  5
359
100
AcDbEntity
  8
2654___ W-_ GSP-_ SIGNAL-ANTRIEB
390
0
100
AcDbMText
 10
151.6259159257
 20
261.9858711167
 30
0.0
 40
2.0
 41
0.0
 71
         5
 72
         1
  1
\W0.810845;>2654.1P\PM15x30x15\PT2 O2
  7
Arial
 73
         1
 44
0.66
  0
ARC
  5
35A
100
AcDbEntity
  8
2654___ W-_ GSP-_ SIGNAL-ANTRIEB
390
0
  6
DASHDOT
100
AcDbCircle
 10
177.0837914152
 20
245.7675262317
 30
0.0
 40
31.18513984
100
AcDbArc
 50
131.099943452
 51
228.900056548
  0
LINE
  5
35B
100
AcDbEntity
  8
2654_1_3 RAHMEN
390
0
  6
DASHED
100
AcDbLine
 10
185.583475641
 20
204.2625475688
 30
0.0
 11
185.583475641
 21
159.2625475688
 31
0.0
  0
LINE
  5
35C
100
AcDbEntity
  8
2654_1_3 RAHMEN
390
0
100
AcDbLine
 10
187.583475641
 20
204.2625475688
 30
0.0
 11
187.583475641
 21
159.2625475688
 31
0.0
  0
LINE
  5
35D
100
AcDbEntity
  8
2654_1_3 RAHMEN
390
0
  6
DASHED
100
AcDbLine
 10
159.583475641
 20
204.2625475688
 30
0.0
 11
159.583475641
 21
159.2625475688
 31
0.0
  0
LINE
  5
35E
100
AcDbEntity
  8
2654_1_3 RAHMEN
390
0
100
AcDbLine
 10
157.583475641
 20
204.2625475688
 30
0.0
 11
157.583475641
 21
159.2625475688
 31
0.0
  0
LINE
  5
35F
100
AcDbEntity
  8
2654_1_3 RAHMEN
390
0
100
AcDbLine
 10
157.583475641
 20
204.2625475688
 30
0.0
 11
187.583475641
 21
204.2625475688
 31
0.0
  0
LINE
  5
360
100
AcDbEntity
  8
2654_1_3 RAHMEN
390
0
100
AcDbLine
 10
157.583475641
 20
159.2625475688
 30
0.0
 11
187.583475641
 21
159.2625475688
 31
0.0
  0
TEXT
  5
361
100
AcDbEntity
  8
BESCHRIFTUNG
390
0
100
AcDbText
 10
148.1185694475
 20
210.7349595981
 30
0.0
 40
3.0
  1
2654.99P
 41
1.1351043651
  7
Arial
 11
148.1185694475
 21
213.7349595981
 31
0.0
100
AcDbText
 73
         3
  0
LINE
  5
362
100
AcDbEntity
  8
2654_99P
370
        25
390
0
  6
DIVIDE
100
AcDbLine
 10
156.583475641
 20
205.2625475688
 30
0.0
 11
187.583475641
 21
205.2625475688
 31
0.0
  0
LINE
  5
363
100
AcDbEntity
  8
2654_99P
370
        25
390
0
  6
DIVIDE
100
AcDbLine
 10
156.583475641
 20
158.2625475688
 30
0.0
 11
187.583475641
 21
158.2625475688
 31
0.0
  0
LINE
  5
364
100
AcDbEntity
  8
MITTELLINIEN
390
0
100
AcDbLine
 10
156.583475641
 20
210.2625475688
 30
0.0
 11
156.583475641
 21
153.2625475688
 31
0.0
  0
CIRCLE
  5
365
100
AcDbEntity
  8
2654_99P
370
        25
390
0
  6
PHANTOM
100
AcDbCircle
 10
156.583475641
 20
205.2625475688
 30
0.0
 40
0.5
  0
CIRCLE
  5
366
100
AcDbEntity
  8
2654_99P
370
        25
390
0
  6
PHANTOM
100
AcDbCircle
 10
156.583475641
 20
158.2625475688
 30
0.0
 40
1.0
  0
MTEXT
  5
367
100
AcDbEntity
  8
2654___ W-_ GSP-_ SIGNAL-ANTRIEB
390
0
100
AcDbMText
 10
151.6259159257
 20
197.9808924538
 30
0.0
 40
2.0
 41
0.0
 71
         5
 72
         1
  1
\W0.810848;>2654.99P\PM15x30x15\PT2 O2
  7
Arial
 73
         1
 44
0.66
  0
ARC
  5
368
100
AcDbEntity
  8
2654___ W-_ GSP-_ SIGNAL-ANTRIEB
390
0
  6
DASHDOT
100
AcDbCircle
 10
177.0837914152
 20
181.7625475688
 30
0.0
 40
31.18513984
100
AcDbArc
 50
131.099943452
 51
228.900056548
  0
TEXT
  5
369
100
AcDbEntity
  8
2654_99P
390
0
100
AcDbText
 10
147.7258175782
 20
205.0928162509
 30
0.0
 40
2.0
  1
@2654.1P
 41
1.1350968316
  7
Arial
 11
147.7258175782
 21
207.0928162509
 31
0.0
100
AcDbText
 73
         3
  0
CIRCLE
  5
36A
100
AcDbEntity
  8
2654_99P
390
0
100
AcDbCircle
 10
183.083475641
 20
186.2625475688
 30
0.0
 40
1.25
  0
CIRCLE
  5
36B
100
AcDbEntity
  8
2654_99P
390
0
100
AcDbCircle
 10
183.083475641
 20
175.2625475688
 30
0.0
 40
1.25
  0
CIRCLE
  5
36C
100
AcDbEntity
  8
2654_99P
390
0
100
AcDbCircle
 10
183.083475641
 20
168.2625475688
 30
0.0
 40
1.25
  0
LINE
  5
36D
100
AcDbEntity
  8
2654_99P
390
0
  6
DIVIDE
100
AcDbLine
 10
179.5322650539
 20
202.6599776107
 30
0.0
 11
174.5322650539
 21
202.6599776107
 31
0.0
  0
LINE
  5
36E
100
AcDbEntity
  8
2654_99P
390
0
  6
DIVIDE
100
AcDbLine
 10
179.5322650539
 20
196.6599776107
 30
0.0
 11
174.5322650539
 21
196.6599776107
 31
0.0
  0
ARC
  5
36F
100
AcDbEntity
  8
2654_99P
390
0
  6
DIVIDE
100
AcDbCircle
 10
179.5322650539
 20
199.6599776107
 30
0.0
 40
3.0
100
AcDbArc
 50
270.0
 51
450.0
  0
ARC
  5
370
100
AcDbEntity
  8
2654_99P
390
0
  6
DIVIDE
100
AcDbCircle
 10
165.6346862282
 20
163.8651175269
 30
0.0
 40
3.0
100
AcDbArc
 50
90.0
 51
270.0
  0
ARC
  5
371
100
AcDbEntity
  8
2654_99P
390
0
  6
DIVIDE
100
AcDbCircle
 10
167.6346862282
 20
163.8651175269
 30
0.0
 40
3.0
100
AcDbArc
 50
270.0
 51
450.0
  0
LINE
  5
372
100
AcDbEntity
  8
2654_99P
390
0
  6
DIVIDE
100
AcDbLine
 10
165.6346862282
 20
166.8651175269
 30
0.0
 11
167.6346862282
 21
166.8651175269
 31
0.0
  0
LINE
  5
373
100
AcDbEntity
  8
2654_99P
390
0
  6
DIVIDE
100
AcDbLine
 10
165.6346862282
 20
160.8651175269
 30
0.0
 11
167.6346862282
 21
160.8651175269
 31
0.0
  0
CIRCLE
  5
374
100
AcDbEntity
  8
2654_99P
390
0
100
AcDbCircle
 10
162.083475641
 20
186.2625475688
 30
0.0
 40
1.25
  0
CIRCLE
  5
375
100
AcDbEntity
  8
2654_99P
390
0
100
AcDbCircle
 10
162.083475641
 20
200.2625475688
 30
0.0
 40
1.25
  0
CIRCLE
  5
376
100
AcDbEntity
  8
2654_99P
390
0
100
AcDbCircle
 10
162.083475641
 20
191.2625475688
 30
0.0
 40
1.25
  0
LINE
  5
377
100
AcDbEntity
  8
2654_99P
390
0
  6
DASHED
100
AcDbLine
 10
187.583475641
 20
205.2625475688
 30
0.0
 11
174.5322650539
 21
202.6599776107
 31
0.0
  0
LINE
  5
378
100
AcDbEntity
  8
2654_99P
390
0
  6
DASHED
100
AcDbLine
 10
174.5322650539
 20
196.6599776107
 30
0.0
 11
187.583475641
 21
192.2574430555
 31
0.0
  0
LINE
  5
379
100
AcDbEntity
  8
2654_99P
390
0
  6
DASHED
100
AcDbLine
 10
187.583475641
 20
190.4271956108
 30
0.0
 11
183.083475641
 21
186.2625475688
 31
0.0
  0
LINE
  5
37A
100
AcDbEntity
  8
2654_99P
390
0
  6
DASHED
100
AcDbLine
 10
183.083475641
 20
175.2625475688
 30
0.0
 11
183.083475641
 21
168.2625475688
 31
0.0
  0
LINE
  5
37B
100
AcDbEntity
  8
2654_99P
390
0
  6
DASHED
100
AcDbLine
 10
183.083475641
 20
168.2625475688
 30
0.0
 11
167.6346862282
 21
166.8651175269
 31
0.0
  0
LINE
  5
37C
100
AcDbEntity
  8
2654_99P
390
0
  6
DASHED
100
AcDbLine
 10
167.6346862282
 20
166.8651175269
 30
0.0
 11
165.083475641
 21
186.2625475688
 31
0.0
  0
LINE
  5
37D
100
AcDbEntity
  8
2654_99P
390
0
  6
DASHED
100
AcDbLine
 10
162.083475641
 20
186.2625475688
 30
0.0
 11
162.083475641
 21
191.2625475688
 31
0.0
  0
LINE
  5
37E
100
AcDbEntity
  8
2654_99P
390
0
  6
DASHED
100
AcDbLine
 10
162.083475641
 20
200.2625475688
 30
0.0
 11
187.583475641
 21
158.2625475688
 31
0.0
  0
ARC
  5
37F
100
AcDbEntity
  8
2654_99P
390
0
  6
DASHED
100
AcDbCircle
 10
153.366157619
 20
195.7625475688
 30
0.0
 40
9.8102820295
100
AcDbArc
 50
332.6965920221
 51
387.3034079779
  0
ARC
  5
380
100
AcDbEntity
  8
2654_99P
390
0
  6
DASHED
100
AcDbCircle
 10
189.9990976062
 20
180.7625475688
 30
0.0
 40
8.8360526914
100
AcDbArc
 50
141.504740245
 51
218.495259755
  0
INSERT
  5
381
100
AcDbEntity
  8
BEMAßUNG
390
0
100
AcDbBlockReference
  2
D133372416
 10
0.0
 20
0.0
 30
0.0
  0
INSERT
  5
382
100
AcDbEntity
  8
BEMAßUNG
390
0
100
AcDbBlockReference
  2
D133372160
 10
0.0
 20
0.0
 30
0.0
  0
MTEXT
  5
383
100
AcDbEntity
  8
2654___ W-_ GSP-_ SIGNAL-ANTRIEB
390
0
100
AcDbMText
 10
-68.9918506236
 20
172.5040257957
 30
0.0
 40
2.0
 41
0.0
 71
         5
 72
         1
  1
\W0.810848;>2654.10L\PM15x15x2\PT2 O2
  7
Arial
 73
         1
 44
0.66
  0
MTEXT
  5
384
100
AcDbEntity
  8
2654___ W-_ GSP-_ SIGNAL-ANTRIEB
390
0
100
AcDbMText
 10
-41.8948877488
 20
145.8229358132
 30
0.0
 40
2.0
 41
0.0
 71
         5
 72
         1
  1
\W0.810845;>2654.2P\PM42+x2\PT2 O2
  7
Arial
 73
         1
 44
0.66
  0
MTEXT
  5
385
100
AcDbEntity
  8
2654___ W-_ GSP-_ SIGNAL-ANTRIEB
390
0
100
AcDbMText
 10
-68.9918506237
 20
239.1760191416
 30
0.0
 40
2.0
 41
0.0
 71
         5
 72
         1
  1
\W0.810845;>2654.5L\PM15x15x2\PT2 O2
  7
Arial
 73
         1
 44
0.66
  0
MTEXT
  5
386
100
AcDbEntity
  8
2654___ W-_ GSP-_ SIGNAL-ANTRIEB
390
0
100
AcDbMText
 10
-68.9918506237
 20
80.7466540249
 30
0.0
 40
2.0
 41
0.0
 71
         5
 72
         1
  1
\W0.810848;>2654.11L\PM15x15x2\PT2 O2
  7
Arial
 73
         1
 44
0.66
  0
MTEXT
  5
387
100
AcDbEntity
  8
2654___ W-_ GSP-_ SIGNAL-ANTRIEB
390
0
100
AcDbMText
 10
-43.4650942155
 20
199.4469149382
 30
0.0
 40
2.0
 41
0.0
 71
         5
 72
         1
  1
\W0.810845;>2654.8P\PM12+x5\PT5 O2
  7
Arial
 73
         1
 44
0.66
  0
MTEXT
  5
388
100
AcDbEntity
  8
2654___ W-_ GSP-_ SIGNAL-ANTRIEB
390
0
100
AcDbMText
 10
-68.9918506237
 20
207.1335502661
 30
0.0
 40
2.0
 41
0.0
 71
         5
 72
         1
  1
\W0.810845;>2654.7L\PM15x15x2\PT2 O2
  7
Arial
 73
         1
 44
0.66
  0
MTEXT
  5
389
100
AcDbEntity
  8
2654___ W-_ GSP-_ SIGNAL-ANTRIEB
390
0
100
AcDbMText
 10
-18.2059852244
 20
262.0927519145
 30
0.0
 40
2.0
 41
0.0
 71
         5
 72
         1
  1
\W0.810845;>2654.1P\PM15x30x15\PT2 O2
  7
Arial
 73
         1
 44
0.66
  0
MTEXT
  5
38A
100
AcDbEntity
  8
2654___ W-_ GSP-_ SIGNAL-ANTRIEB
390
0
100
AcDbMText
 10
-18.2059852244
 20
198.0877732516
 30
0.0
 40
2.0
 41
0.0
 71
         5
 72
         1
  1
\W0.810848;>2654.99P\PM15x30x15\PT2 O2
  7
Arial
 73
         1
 44
0.66
  0
ARC
  5
38B
100
AcDbEntity
  8
2654___ W-_ GSP-_ SIGNAL-ANTRIEB
390
0
  6
DASHDOT
100
AcDbCircle
 10
-56.1831061437
 20
237.4576742566
 30
0.0
 40
11.9432450451
100
AcDbArc
 50
131.099943452
 51
228.900056548
  0
ARC
  5
38C
100
AcDbEntity
  8
2654___ W-_ GSP-_ SIGNAL-ANTRIEB
390
0
  6
DASHDOT
100
AcDbCircle
 10
-54.8745753496
 20
203.9152053811
 30
0.0
 40
13.933785886
100
AcDbArc
 50
131.0999434524
 51
228.9000565483
  0
ARC
  5
38D
100
AcDbEntity
  8
2654___ W-_ GSP-_ SIGNAL-ANTRIEB
390
0
  6
DASHDOT
100
AcDbCircle
 10
-32.6296401418
 20
143.7857821217
 30
0.0
 40
47.7728458706
100
AcDbArc
 50
131.0999434519
 51
228.9000565479
  0
ARC
  5
38E
100
AcDbEntity
  8
2654___ W-_ GSP-_ SIGNAL-ANTRIEB
390
0
  6
DASHDOT
100
AcDbCircle
 10
-31.0925266669
 20
198.2285700532
 30
0.0
 40
11.2797314315
100
AcDbArc
 50
131.099943452
 51
228.900056548
  0
ARC
  5
38F
100
AcDbEntity
  8
2654___ W-_ GSP-_ SIGNAL-ANTRIEB
390
0
  6
DASHDOT
100
AcDbCircle
 10
-18.6178969161
 20
132.1045909282
 30
0.0
 40
27.8675717719
100
AcDbArc
 50
131.099943452
 51
228.900056548
  0
ARC
  5
390
100
AcDbEntity
  8
2654___ W-_ GSP-_ SIGNAL-ANTRIEB
390
0
  6
DASHDOT
100
AcDbCircle
 10
-29.1401363998
 20
48.0283091409
 30
0.0
 40
53.0810890882
100
AcDbArc
 50
131.0999434521
 51
228.900056548
  0
ARC
  5
391
100
AcDbEntity
  8
2654___ W-_ GSP-_ SIGNAL-ANTRIEB
390
0
  6
DASHDOT
100
AcDbCircle
 10
7.2518902652
 20
245.8744070295
 30
0.0
 40
31.18513984
100
AcDbArc
 50
131.099943452
 51
228.900056548
  0
ARC
  5
392
100
AcDbEntity
  8
2654___ W-_ GSP-_ SIGNAL-ANTRIEB
390
0
  6
DASHDOT
100
AcDbCircle
 10
-56.8373715407
 20
265.3604850523
 30
0.0
 40
10.9479746247
100
AcDbArc
 50
131.0999434524
 51
228.9000565483
  0
MTEXT
  5
393
100
AcDbEntity
  8
2654___ W-_ GSP-_ SIGNAL-ANTRIEB
390
0
100
AcDbMText
 10
-68.9918506237
 20
266.3288299373
 30
0.0
 40
2.0
 41
0.0
 71
         5
 72
         1
  1
\W0.810845;>2654.4L\PM15x15x2\PT2 O2
  7
Arial
 73
         1
 44
0.66
  0
ARC
  5
394
100
AcDbEntity
  8
2654___ W-_ GSP-_ SIGNAL-ANTRIEB
390
0
  6
DASHDOT
100
AcDbCircle
 10
7.2518902652
 20
181.8694283666
 30
0.0
 40
31.18513984
100
AcDbArc
 50
131.099943452
 51
228.900056548
  0
LINE
  5
395
100
AcDbEntity
  8
MITTELLINIEN
390
0
 62
        94
100
AcDbLine
 10
157.583475641
 20
274.2675262317
 30
0.0
 11
157.583475641
 21
217.2675262317
 31
0.0
  0
LINE
  5
396
100
AcDbEntity
  8
MITTELLINIEN
390
0
 62
        94
100
AcDbLine
 10
157.583475641
 20
210.2625475688
 30
0.0
 11
157.583475641
 21
153.2625475688
 31
0.0
  0
ARC
  5
397
100
AcDbEntity
  8
2654_5R
390
0
100
AcDbCircle
 10
53.6759811631
 20
231.3479334414
 30
0.0
 40
1.1972144507
100
AcDbArc
 50
107.2381694522
 51
249.4968466475
  0
ARC
  5
398
100
AcDbEntity
  8
2654_5R
390
0
100
AcDbCircle
 10
52.2716592847
 20
230.1656042667
 30
0.0
 40
0.9868710792
100
AcDbArc
 50
259.3465182931
 51
363.5411672744
  0
ARC
  5
399
100
AcDbEntity
  8
2654_8P
390
0
  6
DASHED
100
AcDbCircle
 10
125.1831859956
 20
192.729877285
 30
0.0
 40
9.5197163823
100
AcDbArc
 50
150.0684881595
 51
203.1985905136
  0
CIRCLE
  5
39A
100
AcDbEntity
  8
2654_99P
390
0
  6
DIVIDE
100
AcDbCircle
 10
165.083475641
 20
186.2625475688
 30
0.0
 40
1.0
  0
ARC
  5
39B
100
AcDbEntity
  8
2654_99P
390
0
  6
DASHED
100
AcDbCircle
 10
163.583475641
 20
185.7625475688
 30
0.0
 40
1.5811388301
100
AcDbArc
 50
161.5650511771
 51
378.4349488229
  0
LINE
  5
39C
100
AcDbEntity
  8
2654_4-6_9 DREHHEBEL
390
0
100
AcDbLine
 10
44.3451861408
 20
266.5626785768
 30
0.0
 11
45.2215221922
 21
266.8485544678
 31
0.0
  0
LINE
  5
39D
100
AcDbEntity
  8
2654_4-6_9 DREHHEBEL
390
0
100
AcDbLine
 10
39.0892176387
 20
264.3824478143
 30
0.0
 11
39.0892176387
 21
273.3485544678
 31
0.0
  0
LINE
  5
39E
100
AcDbEntity
  8
2654_4-6_9 DREHHEBEL
390
0
100
AcDbLine
 10
44.3451861408
 20
269.1344303589
 30
0.0
 11
45.2215221922
 21
268.8485544678
 31
0.0
  0
LINE
  5
39F
100
AcDbEntity
  8
2654_4L
390
0
100
AcDbLine
 10
45.0625364046
 20
267.8485544678
 30
0.0
 11
46.0496488825
 21
267.8485544678
 31
0.0
  0
LINE
  5
3A0
100
AcDbEntity
  8
2654_4-6_9 DREHHEBEL
390
0
100
AcDbLine
 10
45.2215221922
 20
266.8485544678
 30
0.0
 11
46.0496488825
 21
266.8485544678
 31
0.0
  0
LINE
  5
3A1
100
AcDbEntity
  8
2654_4-6_9 DREHHEBEL
390
0
100
AcDbLine
 10
45.2215221922
 20
268.8485544678
 30
0.0
 11
46.0496488825
 21
268.8485544678
 31
0.0
  0
ARC
  5
3A2
100
AcDbEntity
  8
2654_4L
390
0
100
AcDbCircle
 10
57.8673922317
 20
275.6267290609
 30
0.0
 40
16.0
100
AcDbArc
 50
195.0
 51
207.1975102308
  0
ARC
  5
3A3
100
AcDbEntity
  8
2654_4L
390
0
100
AcDbCircle
 10
57.8673922318
 20
260.0703798748
 30
0.0
 40
16.0
100
AcDbArc
 50
152.8024897693
 51
165.0000000001
  0
ARC
  5
3A4
100
AcDbEntity
  8
2654_4-6_9 DREHHEBEL
390
0
100
AcDbCircle
 10
57.8673922318
 20
260.0703798748
 30
0.0
 40
15.0
100
AcDbArc
 50
154.3533474933
 51
165.0000000001
  0
ARC
  5
3A5
100
AcDbEntity
  8
2654_4-6_9 DREHHEBEL
390
0
100
AcDbCircle
 10
57.8673922318
 20
260.0703798748
 30
0.0
 40
17.0
100
AcDbArc
 50
152.7715387265
 51
165.0000000001
  0
ARC
  5
3A6
100
AcDbEntity
  8
2654_4-6_9 DREHHEBEL
390
0
100
AcDbCircle
 10
57.8673922317
 20
275.6267290609
 30
0.0
 40
17.0
100
AcDbArc
 50
195.0
 51
207.2284612736
  0
ARC
  5
3A7
100
AcDbEntity
  8
2654_4-6_9 DREHHEBEL
390
0
100
AcDbCircle
 10
57.8673922317
 20
275.6267290609
 30
0.0
 40
15.0
100
AcDbArc
 50
195.0
 51
205.6466525068
  0
ARC
  5
3A8
100
AcDbEntity
  8
2654_4-6_9 DREHHEBEL
390
0
100
AcDbCircle
 10
46.0496488825
 20
267.8485544678
 30
0.0
 40
1.0
100
AcDbArc
 50
270.0000000001
 51
450.0000000001
  0
ARC
  5
3A9
100
AcDbEntity
  8
2654_4-6_9 DREHHEBEL
390
0
100
AcDbCircle
 10
42.4125790111
 20
264.2114845964
 30
0.0
 40
1.0
100
AcDbArc
 50
165.0000000001
 51
345.0000000001
  0
ARC
  5
3AA
100
AcDbEntity
  8
2654_4-6_9 DREHHEBEL
390
0
100
AcDbCircle
 10
42.4125790111
 20
271.4856243392
 30
0.0
 40
1.0
100
AcDbArc
 50
15.0
 51
195.0
  0
LINE
  5
3AB
100
AcDbEntity
  8
2654_4L
390
0
100
AcDbLine
 10
38.0892176387
 20
263.9302107884
 30
0.0
 11
38.0892176387
 21
273.3485544678
 31
0.0
  0
LINE
  5
3AC
100
AcDbEntity
  8
2654_4L
390
0
100
AcDbLine
 10
43.6364124639
 20
268.3137806236
 30
0.0
 11
45.0625364046
 21
267.8485544678
 31
0.0
  0
LINE
  5
3AD
100
AcDbEntity
  8
2654_4L
390
0
100
AcDbLine
 10
43.6364124639
 20
267.3833283121
 30
0.0
 11
45.0625364046
 21
267.8485544678
 31
0.0
  0
LINE
  5
3AE
100
AcDbEntity
  8
2654_4L
390
0
  6
DASHED
100
AcDbLine
 10
50.0892176387
 20
267.8485544678
 30
0.0
 11
42.4125790111
 21
271.4856243392
 31
0.0
  0
ARC
  5
3AF
100
AcDbEntity
  8
2654_4L
390
0
  6
DASHED
100
AcDbCircle
 10
45.5560926436
 20
268.5220034572
 30
0.0
 40
0.8349438917
100
AcDbArc
 50
306.2368849546
 51
593.7631150455
  0
ARC
  5
3B0
100
AcDbEntity
  8
2654_4L
390
0
  6
DASHED
100
AcDbCircle
 10
43.1524360992
 20
254.7971461404
 30
0.0
 40
9.4433657705
100
AcDbArc
 50
18.8521504421
 51
94.49354362
  0
TEXT
  5
3B1
100
AcDbEntity
  8
2654_30R
390
0
100
AcDbText
 10
101.8186643549
 20
76.2038755879
 30
0.0
 40
2.0
  1
@2654.4L
 41
1.1351288941
  7
Arial
 11
101.8186643549
 21
78.2038755879
 31
0.0
100
AcDbText
 73
         3
  0
TEXT
  5
3B2
100
AcDbEntity
  8
2654_30L
390
0
100
AcDbText
 10
86.8186643549
 20
76.2038755879
 30
0.0
 40
2.0
  1
@2654.4L
 41
1.1351288941
  7
Arial
 11
86.8186643549
 21
78.2038755879
 31
0.0
100
AcDbText
 73
         3
  0
LINE
  5
3B3
100
AcDbEntity
  8
2654_30L
390
0
  6
DIVIDE
100
AcDbLine
 10
93.6103086946
 20
75.9835660554
 30
0.0
 11
108.6103086946
 21
75.9835660554
 31
0.0
  0
LINE
  5
3B4
100
AcDbEntity
  8
2654_30R
390
0
  6
DIVIDE
100
AcDbLine
 10
108.6103086946
 20
75.9835660554
 30
0.0
 11
123.6103086947
 21
75.9835660555
 31
0.0
  0
LINE
  5
3B5
100
AcDbEntity
  8
2654_30 GESTÄNGEWINKEL
390
0
100
AcDbLine
 10
93.6103086947
 20
74.9835660573
 30
0.0
 11
108.6103086947
 21
74.9835660573
 31
0.0
  0
LINE
  5
3B6
100
AcDbEntity
  8
2654_30 GESTÄNGEWINKEL
390
0
100
AcDbLine
 10
108.6103086947
 20
74.9835660554
 30
0.0
 11
123.6103086947
 21
74.9835660554
 31
0.0
  0
CIRCLE
  5
3B7
100
AcDbEntity
  8
2654_30R
370
        25
390
0
  6
PHANTOM
100
AcDbCircle
 10
108.6103086946
 20
75.9835660554
 30
0.0
 40
0.5
  0
LINE
  5
3B8
100
AcDbEntity
  8
2654_30 GESTÄNGEWINKEL
390
0
100
AcDbLine
 10
108.6103086947
 20
68.9835660554
 30
0.0
 11
123.6103086947
 21
68.9835660554
 31
0.0
  0
LINE
  5
3B9
100
AcDbEntity
  8
2654_30 GESTÄNGEWINKEL
390
0
100
AcDbLine
 10
93.6103086947
 20
68.9835660573
 30
0.0
 11
108.6103086947
 21
68.9835660573
 31
0.0
  0
LINE
  5
3BA
100
AcDbEntity
  8
2654_30 GESTÄNGEWINKEL
390
0
100
AcDbLine
 10
93.6103086947
 20
68.9835660573
 30
0.0
 11
93.6103086947
 21
74.9835660573
 31
0.0
  0
LINE
  5
3BB
100
AcDbEntity
  8
2654_30 GESTÄNGEWINKEL
390
0
100
AcDbLine
 10
123.6103086947
 20
68.9835660554
 30
0.0
 11
123.6103086947
 21
74.9835660554
 31
0.0
  0
LINE
  5
3BC
100
AcDbEntity
  8
2654_30 GESTÄNGEWINKEL
390
0
  6
DASHED
100
AcDbLine
 10
106.6103086947
 20
68.9835660573
 30
0.0
 11
106.6103086947
 21
74.9835660573
 31
0.0
  0
LINE
  5
3BD
100
AcDbEntity
  8
2654_30 GESTÄNGEWINKEL
390
0
100
AcDbLine
 10
108.6103086947
 20
68.9835660573
 30
0.0
 11
108.6103086947
 21
74.9935660554
 31
0.0
  0
LINE
  5
3BE
100
AcDbEntity
  8
2654_30 GESTÄNGEWINKEL
390
0
  6
DASHED
100
AcDbLine
 10
110.6103086947
 20
68.9835660554
 30
0.0
 11
110.6103086947
 21
74.9935660554
 31
0.0
  0
LINE
  5
3BF
100
AcDbEntity
  8
2654_30 GESTÄNGEWINKEL
390
0
100
AcDbLine
 10
108.6103086947
 20
68.9835660573
 30
0.0
 11
108.6103086947
 21
74.9835660573
 31
0.0
  0
CIRCLE
  5
3C0
100
AcDbEntity
  8
2654_30L
390
0
100
AcDbCircle
 10
96.6103086947
 20
71.9835660573
 30
0.0
 40
1.25
  0
CIRCLE
  5
3C1
100
AcDbEntity
  8
2654_30L
390
0
100
AcDbCircle
 10
103.6103086947
 20
71.9835660573
 30
0.0
 40
1.25
  0
CIRCLE
  5
3C2
100
AcDbEntity
  8
2654_30R
390
0
100
AcDbCircle
 10
120.6103086947
 20
71.9835660573
 30
0.0
 40
1.25
  0
CIRCLE
  5
3C3
100
AcDbEntity
  8
2654_30L
370
        25
390
0
  6
PHANTOM
100
AcDbCircle
 10
93.6103086946
 20
75.9835660554
 30
0.0
 40
0.5
  0
ARC
  5
3C4
100
AcDbEntity
  8
2654___ W-_ GSP-_ SIGNAL-ANTRIEB
390
0
  6
DASHDOT
100
AcDbCircle
 10
97.0997241448
 20
71.9835660564
 30
0.0
 40
5.3081089077
100
AcDbArc
 50
131.099943452
 51
228.900056548
  0
LINE
  5
3C5
100
AcDbEntity
  8
2654_30L
390
0
  6
DIVIDE
100
AcDbLine
 10
93.6103086946
 20
67.9835660573
 30
0.0
 11
108.6103086946
 21
67.9835660573
 31
0.0
  0
LINE
  5
3C6
100
AcDbEntity
  8
2654_30R
390
0
  6
DIVIDE
100
AcDbLine
 10
108.6103086946
 20
67.9835660573
 30
0.0
 11
123.6103086947
 21
67.9835660573
 31
0.0
  0
CIRCLE
  5
3C7
100
AcDbEntity
  8
2654_30L
370
        25
390
0
  6
PHANTOM
100
AcDbCircle
 10
93.6103086946
 20
67.9835660573
 30
0.0
 40
1.0
  0
CIRCLE
  5
3C8
100
AcDbEntity
  8
2654_30R
370
        25
390
0
  6
PHANTOM
100
AcDbCircle
 10
108.6103086946
 20
67.9835660573
 30
0.0
 40
1.0
  0
LINE
  5
3C9
100
AcDbEntity
  8
2654_30R
390
0
  6
DASHED
100
AcDbLine
 10
123.6103086947
 20
75.9835660555
 30
0.0
 11
120.6103086947
 21
71.9835660573
 31
0.0
  0
LINE
  5
3CA
100
AcDbEntity
  8
2654_30R
390
0
  6
DASHED
100
AcDbLine
 10
120.6103086947
 20
71.9835660573
 30
0.0
 11
123.6103086947
 21
67.9835660573
 31
0.0
  0
MTEXT
  5
3CB
100
AcDbEntity
  8
2654___ W-_ GSP-_ SIGNAL-ANTRIEB
390
0
100
AcDbMText
 10
89.4608578155
 20
71.7996614793
 30
0.0
 40
2.0
 41
0.0
 71
         5
 72
         1
  1
\W0.810848;>2654.30L\PM15x15x2\PT2 O2
  7
Arial
 73
         1
 44
0.66
  0
ARC
  5
3CC
100
AcDbEntity
  8
2654___ W-_ GSP-_ SIGNAL-ANTRIEB
390
0
  6
DASHDOT
100
AcDbCircle
 10
-27.3196508552
 20
86.0446598064
 30
0.0
 40
5.3081089077
100
AcDbArc
 50
131.099943452
 51
228.900056548
  0
MTEXT
  5
3CD
100
AcDbEntity
  8
2654___ W-_ GSP-_ SIGNAL-ANTRIEB
390
0
100
AcDbMText
 10
-34.9585171845
 20
85.8607552293
 30
0.0
 40
2.0
 41
0.0
 71
         5
 72
         1
  1
\W0.810848;>2654.30L\PM15x15x2\PT2 O2
  7
Arial
 73
         1
 44
0.66
  0
LINE
  5
3CE
100
AcDbEntity
  8
2654_30 GESTÄNGEWINKEL
390
0
100
AcDbLine
 10
93.6103086947
 20
73.8835660573
 30
0.0
 11
108.6103086947
 21
73.8835660573
 31
0.0
  0
LINE
  5
3CF
100
AcDbEntity
  8
2654_30 GESTÄNGEWINKEL
390
0
100
AcDbLine
 10
93.6103086947
 20
70.0835660573
 30
0.0
 11
108.6103086947
 21
70.0835660573
 31
0.0
  0
LINE
  5
3D0
100
AcDbEntity
  8
2654_30L
390
0
  6
DASHED
100
AcDbLine
 10
108.6103086946
 20
75.9835660554
 30
0.0
 11
109.1103086947
 21
72.8835660573
 31
0.0
  0
LINE
  5
3D1
100
AcDbEntity
  8
2654_30L
390
0
  6
DASHED
100
AcDbLine
 10
93.6103086947
 20
72.8835660573
 30
0.0
 11
96.6103086947
 21
71.9835660573
 31
0.0
  0
LINE
  5
3D2
100
AcDbEntity
  8
2654_30L
390
0
  6
DIVIDE
100
AcDbLine
 10
109.1103086947
 20
72.8835660573
 30
0.0
 11
93.6103086947
 21
72.8835660573
 31
0.0
  0
LINE
  5
3D3
100
AcDbEntity
  8
2654_30L
390
0
  6
DIVIDE
100
AcDbLine
 10
109.1103086947
 20
71.0835660573
 30
0.0
 11
93.6103086947
 21
71.0835660573
 31
0.0
  0
LINE
  5
3D4
100
AcDbEntity
  8
2654_30L
390
0
  6
DASHED
100
AcDbLine
 10
96.6103086947
 20
71.9835660573
 30
0.0
 11
93.6103086947
 21
71.0835660573
 31
0.0
  0
LINE
  5
3D5
100
AcDbEntity
  8
2654_30L
390
0
  6
DASHED
100
AcDbLine
 10
109.1103086947
 20
71.0835660573
 30
0.0
 11
103.6103086947
 21
71.9835660573
 31
0.0
  0
LINE
  5
3D6
100
AcDbEntity
  8
2654_30L
390
0
  6
DASHED
100
AcDbLine
 10
103.6103086947
 20
71.9835660573
 30
0.0
 11
108.6103086946
 21
67.9835660573
 31
0.0
  0
TEXT
  5
3D7
100
AcDbEntity
  8
BESCHRIFTUNG
390
0
100
AcDbText
 10
86.2391991056
 20
83.540107646
 30
0.0
 40
3.0
  1
2654.30L,R
 41
1.1351077638
  7
Arial
 11
86.2391991056
 21
86.540107646
 31
0.0
100
AcDbText
 73
         3
  0
LINE
  5
3D8
100
AcDbEntity
  8
MITTELLINIEN
390
0
100
AcDbLine
 10
105.9114816146
 20
254.250053863
 30
0.0
 11
105.9114816146
 21
227.250053863
 31
0.0
  0
MTEXT
  5
3D9
100
AcDbEntity
  8
2654_9P
390
0
100
AcDbMText
 10
104.6570551186
 20
251.6052665759
 30
0.0
 40
2.0
 41
0.0
 71
         5
 72
         1
  1
\W0.810867;MØ6 F150\PT6 O2 S10 I1,2\PB-0,5   D3
  7
Arial
 73
         1
 44
0.66
  0
CIRCLE
  5
3DA
100
AcDbEntity
  8
2654_9P
390
0
  6
PHANTOM
100
AcDbCircle
 10
105.9114816146
 20
249.250053863
 30
0.0
 40
0.5
  0
CIRCLE
  5
3DB
100
AcDbEntity
  8
2654_9P
390
0
  6
PHANTOM
100
AcDbCircle
 10
105.9114816146
 20
235.250053863
 30
0.0
 40
1.0
  0
ARC
  5
3DC
100
AcDbEntity
  8
2654___ W-_ GSP-_ SIGNAL-ANTRIEB
390
0
  6
DASHDOT
100
AcDbCircle
 10
112.0179586537
 20
242.250053863
 30
0.0
 40
9.2891905906
100
AcDbArc
 50
131.099943452
 51
228.900056548
  0
LINE
  5
3DD
100
AcDbEntity
  8
MITTELLINIEN
390
0
100
AcDbLine
 10
108.9114816146
 20
253.250053863
 30
0.0
 11
108.9114816146
 21
231.250053863
 31
0.0
  0
CIRCLE
  5
3DE
100
AcDbEntity
  8
2654_9P
390
0
100
AcDbCircle
 10
108.9114816146
 20
239.750053863
 30
0.0
 40
1.65
  0
LINE
  5
3DF
100
AcDbEntity
  8
2654_9P
390
0
  6
DIVIDE
100
AcDbLine
 10
105.9114816146
 20
249.250053863
 30
0.0
 11
112.9114816146
 21
249.250053863
 31
0.0
  0
LINE
  5
3E0
100
AcDbEntity
  8
2654_9P
390
0
  6
DIVIDE
100
AcDbLine
 10
106.4114816146
 20
236.250053863
 30
0.0
 11
106.4114816146
 21
242.250053863
 31
0.0
  0
LINE
  5
3E1
100
AcDbEntity
  8
2654_9P
390
0
  6
DIVIDE
100
AcDbLine
 10
106.4114816146
 20
242.250053863
 30
0.0
 11
111.4114816146
 21
242.250053863
 31
0.0
  0
LINE
  5
3E2
100
AcDbEntity
  8
2654_9P
390
0
  6
DIVIDE
100
AcDbLine
 10
111.4114816146
 20
242.250053863
 30
0.0
 11
111.4114816146
 21
235.250053863
 31
0.0
  0
LINE
  5
3E3
100
AcDbEntity
  8
2654_9P
390
0
  6
DIVIDE
100
AcDbLine
 10
111.4114816146
 20
235.250053863
 30
0.0
 11
105.9114816146
 21
235.250053863
 31
0.0
  0
LINE
  5
3E4
100
AcDbEntity
  8
2654_9P
390
0
  6
DASHED
100
AcDbLine
 10
112.9114816146
 20
249.250053863
 30
0.0
 11
108.9114816146
 21
239.750053863
 31
0.0
  0
LINE
  5
3E5
100
AcDbEntity
  8
2654_9P
390
0
  6
DASHED
100
AcDbLine
 10
108.9114816146
 20
239.750053863
 30
0.0
 11
106.4114816146
 21
236.250053863
 31
0.0
  0
MTEXT
  5
3E6
100
AcDbEntity
  8
2654___ W-_ GSP-_ SIGNAL-ANTRIEB
390
0
100
AcDbMText
 10
105.6535027006
 20
193.3370551259
 30
0.0
 40
2.0
 41
0.0
 71
         5
 72
         1
  1
\W0.810845;>2654.8P\PM12+x5\PT5 O2
  7
Arial
 73
         1
 44
0.66
  0
MTEXT
  5
3E7
100
AcDbEntity
  8
2654___ W-_ GSP-_ SIGNAL-ANTRIEB
390
0
100
AcDbMText
 10
-42.9053558632
 20
238.9066936246
 30
0.0
 40
2.0
 41
0.0
 71
         5
 72
         1
  1
\W0.810845;>2654.9P\PMØ6\PT6 O2
  7
Arial
 73
         1
 44
0.66
  0
ARC
  5
3E8
100
AcDbEntity
  8
2654___ W-_ GSP-_ SIGNAL-ANTRIEB
390
0
  6
DASHDOT
100
AcDbCircle
 10
-31.2873576516
 20
238.3347136685
 30
0.0
 40
9.2891905906
100
AcDbArc
 50
131.099943452
 51
228.900056548
  0
INSERT
  5
3E9
100
AcDbEntity
  8
BEMAßUNG
390
0
100
AcDbBlockReference
  2
D133371904
 10
0.0
 20
0.0
 30
0.0
  0
ARC
  5
3EA
100
AcDbEntity
  8
2654_99 RAHMENLEHRE
390
0
100
AcDbCircle
 10
176.0737449911
 20
190.2657672468
 30
0.0
 40
2.9916916334
100
AcDbArc
 50
89.8136418369
 51
270.186358163
  0
LINE
  5
3EB
100
AcDbEntity
  8
2654_99 RAHMENLEHRE
390
0
100
AcDbLine
 10
176.083475641
 20
193.2574430555
 30
0.0
 11
187.583475641
 21
193.2574430555
 31
0.0
  0
LINE
  5
3EC
100
AcDbEntity
  8
2654_99 RAHMENLEHRE
390
0
100
AcDbLine
 10
176.083475641
 20
187.2574430555
 30
0.0
 11
187.583475641
 21
189.4098311573
 31
0.0
  0
LINE
  5
3ED
100
AcDbEntity
  8
2654_99P
390
0
100
AcDbLine
 10
176.083475641
 20
192.2574430555
 30
0.0
 11
187.583475641
 21
192.2574430555
 31
0.0
  0
ARC
  5
3EE
100
AcDbEntity
  8
2654_99P
390
0
100
AcDbCircle
 10
176.0737449911
 20
190.2657672468
 30
0.0
 40
1.9916916334
100
AcDbArc
 50
89.8136418369
 51
270.186358163
  0
LINE
  5
3EF
100
AcDbEntity
  8
2654_99P
390
0
100
AcDbLine
 10
175.8995059907
 20
188.2403749797
 30
0.0
 11
187.583475641
 21
190.4271956108
 31
0.0
  0
LINE
  5
3F0
100
AcDbEntity
  8
STANDARD
390
0
100
AcDbLine
 10
10.0
 20
5.0
 30
0.0
 11
10.0
 21
292.0
 31
0.0
  0
LINE
  5
3F1
100
AcDbEntity
  8
STANDARD
390
0
100
AcDbLine
 10
15.0
 20
287.0
 30
0.0
 11
205.0
 21
287.0
 31
0.0
  0
LINE
  5
3F2
100
AcDbEntity
  8
STANDARD
390
0
100
AcDbLine
 10
10.0
 20
292.0
 30
0.0
 11
15.0
 21
292.0
 31
0.0
  0
LINE
  5
3F3
100
AcDbEntity
  8
STANDARD
390
0
100
AcDbLine
 10
10.0
 20
5.0
 30
0.0
 11
15.0
 21
5.0
 31
0.0
  0
LINE
  5
3F4
100
AcDbEntity
  8
STANDARD
390
0
100
AcDbLine
 10
10.0
 20
244.1666666667
 30
0.0
 11
15.0
 21
244.1666666667
 31
0.0
  0
LINE
  5
3F5
100
AcDbEntity
  8
STANDARD
390
0
100
AcDbLine
 10
10.0
 20
196.3333333333
 30
0.0
 11
15.0
 21
196.3333333333
 31
0.0
  0
LINE
  5
3F6
100
AcDbEntity
  8
STANDARD
390
0
100
AcDbLine
 10
10.0
 20
148.5
 30
0.0
 11
15.0
 21
148.5
 31
0.0
  0
LINE
  5
3F7
100
AcDbEntity
  8
STANDARD
390
0
100
AcDbLine
 10
10.0
 20
100.6666666667
 30
0.0
 11
15.0
 21
100.6666666667
 31
0.0
  0
LINE
  5
3F8
100
AcDbEntity
  8
STANDARD
390
0
100
AcDbLine
 10
10.0
 20
52.8333333333
 30
0.0
 11
15.0
 21
52.8333333333
 31
0.0
  0
LINE
  5
3F9
100
AcDbEntity
  8
STANDARD
390
0
100
AcDbLine
 10
157.5
 20
292.0
 30
0.0
 11
157.5
 21
287.0
 31
0.0
  0
LINE
  5
3FA
100
AcDbEntity
  8
STANDARD
390
0
100
AcDbLine
 10
110.0
 20
292.0
 30
0.0
 11
110.0
 21
287.0
 31
0.0
  0
LINE
  5
3FB
100
AcDbEntity
  8
STANDARD
390
0
100
AcDbLine
 10
62.5
 20
292.0
 30
0.0
 11
62.5
 21
287.0
 31
0.0
  0
TEXT
  5
3FC
100
AcDbEntity
  8
STANDARD
390
0
100
AcDbText
 10
10.9491078691
 20
267.8641561278
 30
0.0
 40
2.23125
  1
A
 41
1.547986837
  7
Arial
 72
         1
 11
12.6760806841
 21
270.0954061278
 31
0.0
100
AcDbText
 73
         3
  0
TEXT
  5
3FD
100
AcDbEntity
  8
STANDARD
390
0
100
AcDbText
 10
10.9491074243
 20
220.0308227945
 30
0.0
 40
2.23125
  1
B
 41
1.5479872357
  7
Arial
 72
         1
 11
12.6760806841
 21
222.2620727945
 31
0.0
100
AcDbText
 73
         3
  0
TEXT
  5
3FE
100
AcDbEntity
  8
STANDARD
390
0
100
AcDbText
 10
10.9489779593
 20
172.1974894612
 30
0.0
 40
2.23125
  1
C
 41
1.5481032827
  7
Arial
 72
         1
 11
12.6760806841
 21
174.4287394612
 31
0.0
100
AcDbText
 73
         3
  0
TEXT
  5
3FF
100
AcDbEntity
  8
STANDARD
390
0
100
AcDbText
 10
10.9489771034
 20
124.3641561278
 30
0.0
 40
2.23125
  1
D
 41
1.54810405
  7
Arial
 72
         1
 11
12.6760806841
 21
126.5954061278
 31
0.0
100
AcDbText
 73
         3
  0
TEXT
  5
400
100
AcDbEntity
  8
STANDARD
390
0
100
AcDbText
 10
10.9491076096
 20
76.5308227945
 30
0.0
 40
2.23125
  1
E
 41
1.5479870696
  7
Arial
 72
         1
 11
12.6760806841
 21
78.7620727945
 31
0.0
100
AcDbText
 73
         3
  0
TEXT
  5
401
100
AcDbEntity
  8
STANDARD
390
0
100
AcDbText
 10
10.9493506612
 20
28.6974894612
 30
0.0
 40
2.23125
  1
F
 41
1.5477692083
  7
Arial
 72
         1
 11
12.6760806841
 21
30.9287394612
 31
0.0
100
AcDbText
 73
         3
  0
TEXT
  5
402
100
AcDbEntity
  8
STANDARD
390
0
100
AcDbText
 10
36.7048241449
 20
288.48599354
 30
0.0
 40
2.23125
  1
1
 41
1.5479225906
  7
Arial
 72
         1
 11
38.0
 21
290.71724354
 31
0.0
100
AcDbText
 73
         3
  0
TEXT
  5
403
100
AcDbEntity
  8
STANDARD
390
0
100
AcDbText
 10
83.7730999712
 20
288.48599354
 30
0.0
 40
2.23125
  1
2
 41
1.5479215945
  7
Arial
 72
         1
 11
85.5
 21
290.71724354
 31
0.0
100
AcDbText
 73
         3
  0
TEXT
  5
404
100
AcDbEntity
  8
STANDARD
390
0
100
AcDbText
 10
131.2730986376
 20
288.48599354
 30
0.0
 40
2.23125
  1
3
 41
1.5479227899
  7
Arial
 72
         1
 11
133.0
 21
290.71724354
 31
0.0
100
AcDbText
 73
         3
  0
TEXT
  5
405
100
AcDbEntity
  8
STANDARD
390
0
100
AcDbText
 10
178.7730988598
 20
288.48599354
 30
0.0
 40
2.23125
  1
4
 41
1.5479225906
  7
Arial
 72
         1
 11
180.5
 21
290.71724354
 31
0.0
100
AcDbText
 73
         3
  0
LINE
  5
406
100
AcDbEntity
  8
STANDARD
390
0
100
AcDbLine
 10
205.0
 20
292.0
 30
0.0
 11
205.0
 21
287.0
 31
0.0
  0
LINE
  5
407
100
AcDbEntity
  8
STANDARD
390
0
100
AcDbLine
 10
205.0
 20
5.0
 30
0.0
 11
15.0
 21
5.0
 31
0.0
  0
LINE
  5
408
100
AcDbEntity
  8
STANDARD
390
0
100
AcDbLine
 10
15.0
 20
5.0
 30
0.0
 11
15.0
 21
287.0
 31
0.0
  0
LINE
  5
409
100
AcDbEntity
  8
STANDARD
390
0
100
AcDbLine
 10
15.0
 20
292.0
 30
0.0
 11
205.0
 21
292.0
 31
0.0
  0
LINE
  5
40A
100
AcDbEntity
  8
STANDARD
390
0
100
AcDbLine
 10
1.0
 20
1.0
 30
0.0
 11
1.0
 21
296.0
 31
0.0
  0
LINE
  5
40B
100
AcDbEntity
  8
STANDARD
390
0
100
AcDbLine
 10
209.0
 20
1.0
 30
0.0
 11
1.0
 21
1.0
 31
0.0
  0
LINE
  5
40C
100
AcDbEntity
  8
STANDARD
390
0
100
AcDbLine
 10
209.0
 20
296.0
 30
0.0
 11
209.0
 21
1.0
 31
0.0
  0
LINE
  5
40D
100
AcDbEntity
  8
STANDARD
390
0
100
AcDbLine
 10
1.0
 20
296.0
 30
0.0
 11
209.0
 21
296.0
 31
0.0
  0
LINE
  5
40E
100
AcDbEntity
  8
STANDARD
390
0
100
AcDbLine
 10
15.0
 20
287.0
 30
0.0
 11
15.0
 21
292.0
 31
0.0
  0
LINE
  5
40F
100
AcDbEntity
  8
STANDARD
390
0
100
AcDbLine
 10
205.0
 20
287.0
 30
0.0
 11
205.0
 21
5.0
 31
0.0
  0
MTEXT
  5
410
100
AcDbEntity
  8
STANDARD
390
0
100
AcDbMText
 10
203.6063292805
 20
81.4222772661
 30
0.0
 40
1.59375
 41
0.0
 71
         1
 72
         1
  1

  7
Arial
 11
0.0
 21
-1.0
 31
0.0
 73
         1
 44
1.0352941176
  0
MTEXT
  5
411
100
AcDbEntity
  8
STANDARD
390
0
100
AcDbMText
 10
116.6968769253
 20
27.5871143065
 30
0.0
 40
1.59375
 41
0.0
 71
         1
 72
         1
  1

  7
Arial
 11
0.0
 21
-1.0
 31
0.0
 73
         1
 44
1.0352941176
  0
MTEXT
  5
412
100
AcDbEntity
  8
STANDARD
390
0
100
AcDbMText
 10
203.6063292805
 20
125.7560948498
 30
0.0
 40
1.59375
 41
0.0
 71
         1
 72
         1
  1

  7
Arial
 11
0.0
 21
-1.0
 31
0.0
 73
         1
 44
1.0352941176
  0
LINE
  5
413
100
AcDbEntity
  8
STANDARD
390
0
100
AcDbLine
 10
205.0
 20
182.1150997151
 30
0.0
 11
205.0
 21
5.1236467236
 31
0.0
  0
LINE
  5
414
100
AcDbEntity
  8
STANDARD
370
         0
390
0
100
AcDbLine
 10
127.305982906
 20
34.4
 30
0.0
 11
127.305982906
 21
5.0
 31
0.0
  0
LINE
  5
415
100
AcDbEntity
  8
STANDARD
370
         0
390
0
100
AcDbLine
 10
81.105982906
 20
34.4
 30
0.0
 11
205.0
 21
34.4
 31
0.0
  0
LINE
  5
416
100
AcDbEntity
  8
STANDARD
370
         0
390
0
100
AcDbLine
 10
81.105982906
 20
27.4
 30
0.0
 11
205.0
 21
27.4
 31
0.0
  0
LINE
  5
417
100
AcDbEntity
  8
STANDARD
370
         0
390
0
100
AcDbLine
 10
81.105982906
 20
12.0
 30
0.0
 11
205.0
 21
12.0
 31
0.0
  0
LINE
  5
418
100
AcDbEntity
  8
STANDARD
370
         0
390
0
100
AcDbLine
 10
81.105982906
 20
34.4
 30
0.0
 11
81.105982906
 21
5.0
 31
0.0
  0
LINE
  5
419
100
AcDbEntity
  8
STANDARD
370
         0
390
0
100
AcDbLine
 10
165.105982906
 20
34.4
 30
0.0
 11
165.105982906
 21
27.4
 31
0.0
  0
TEXT
  5
41A
100
AcDbEntity
  8
BESCHRIFTUNG
390
0
100
AcDbText
 10
82.2010860399
 20
29.1386
 30
0.0
 40
3.3
  1
Stellwerk HMM
 41
1.3758039542
 51
15.0
  7
Arial
 11
82.2010860399
 21
32.4386
 31
0.0
100
AcDbText
 73
         3
  0
TEXT
  5
41B
100
AcDbEntity
  8
BESCHRIFTUNG
390
0
100
AcDbText
 10
128.6210415954
 20
21.6601111111
 30
0.0
 40
3.3
  1
Weichen- und Gsp-Antrieb 
 41
1.1301934992
 51
15.0
  7
Arial
 11
128.6210415954
 21
24.9601111111
 31
0.0
100
AcDbText
 73
         3
  0
TEXT
  5
41C
100
AcDbEntity
  8
BESCHRIFTUNG
390
0
100
AcDbText
 10
82.2010860399
 20
6.9230888889
 30
0.0
 40
3.3
  1
Dateiname
 41
1.1437088374
 51
15.0
  7
Arial
 11
82.2010860399
 21
10.2230888889
 31
0.0
100
AcDbText
 73
         3
  0
TEXT
  5
41D
100
AcDbEntity
  8
BESCHRIFTUNG
390
0
100
AcDbText
 10
82.4210415954
 20
21.6601111111
 30
0.0
 40
3.3
  1
Bl. 2654 Pv
 41
1.1437155269
 51
15.0
  7
Arial
 11
82.4210415954
 21
24.9601111111
 31
0.0
100
AcDbText
 73
         3
  0
TEXT
  5
41E
100
AcDbEntity
  8
BESCHRIFTUNG
390
0
100
AcDbText
 10
166.2010860399
 20
29.1386
 30
0.0
 40
3.3
  1
Maßstab 1:1
 41
1.1437192123
 51
15.0
  7
Arial
 11
166.2010860399
 21
32.4386
 31
0.0
100
AcDbText
 73
         3
  0
ENDSEC
  0
SECTION
  2
OBJECTS
  0
DICTIONARY
  5
19
100
AcDbDictionary
280
         0
281
         1
  3
ACAD_GROUP
350
1A
  3
ACAD_MLINESTYLE
350
1B
  3
ACAD_LAYOUT
350
1E
  3
ACAD_PLOTSETTINGS
350
22
  3
ACAD_PLOTSTYLENAME
350
1F
  3
ACAD_WIPEOUT_VARS
350
23
  0
DICTIONARY
  5
1A
102
{ACAD_REACTORS
330
19
102
}
100
AcDbDictionary
280
         0
281
         1
  0
DICTIONARY
  5
1B
102
{ACAD_REACTORS
330
19
102
}
100
AcDbDictionary
280
         0
281
         1
  3
Standard
350
1C
  0
MLINESTYLE
  5
1C
102
{ACAD_REACTORS
330
1B
102
}
100
AcDbMlineStyle
  2
Standard
 70
         0
  3

 62
         0
 51
90.0
 52
90.0
 71
         2
 49
0.5
 62
       256
  6
ByLayer
 49
-0.5
 62
       256
  6
ByLayer
  0
ACDBDICTIONARYWDFLT
  5
1F
102
{ACAD_REACTORS
330
19
102
}
100
AcDbDictionary
281
         1
  3
Normal
350
1D
100
AcDbDictionaryWithDefault
340
1D
  0
ACDBPLACEHOLDER
  5
1D
102
{ACAD_REACTORS
330
1F
102
}
  0
LAYOUT
  5
20
102
{ACAD_REACTORS
330
1E
102
}
100
AcDbPlotSettings
  1

  2

  4

  6

 40
0.0
 41
0.0
 42
0.0
 43
0.0
 44
0.0
 45
0.0
 46
0.0
 47
0.0
 48
0.0
 49
0.0
140
0.0
141
0.0
142
1.0
143
1.0
 70
      1024
 72
         0
 73
         0
 74
         0
  7

 75
         0
147
1.0
148
0.0
149
0.0
100
AcDbLayout
  1
Model
 70
         0
 71
         0
 10
0.0
 20
0.0
 11
0.0
 21
0.0
 12
0.0
 22
0.0
 32
0.0
 14
0.0
 24
0.0
 34
0.0
 15
0.0
 25
0.0
 35
0.0
146
0.0
 13
0.0
 23
0.0
 33
0.0
 16
0.0
 26
0.0
 36
0.0
 17
0.0
 27
0.0
 37
0.0
 76
         0
330
A
331
0
345
0
346
0
  0
LAYOUT
  5
21
102
{ACAD_REACTORS
330
1E
102
}
100
AcDbPlotSettings
  1

  2

  4

  6

 40
0.0
 41
0.0
 42
0.0
 43
0.0
 44
0.0
 45
0.0
 46
0.0
 47
0.0
 48
0.0
 49
0.0
140
0.0
141
0.0
142
1.0
143
1.0
 70
         0
 72
         0
 73
         0
 74
         0
  7

 75
         0
147
1.0
148
0.0
149
0.0
100
AcDbLayout
  1
Layout1
 70
         0
 71
         0
 10
0.0
 20
0.0
 11
0.0
 21
0.0
 12
0.0
 22
0.0
 32
0.0
 14
0.0
 24
0.0
 34
0.0
 15
0.0
 25
0.0
 35
0.0
146
0.0
 13
0.0
 23
0.0
 33
0.0
 16
0.0
 26
0.0
 36
0.0
 17
0.0
 27
0.0
 37
0.0
 76
         0
330
B
331
0
345
0
346
0
  0
DICTIONARY
  5
1E
102
{ACAD_REACTORS
330
19
102
}
100
AcDbDictionary
280
         0
281
         1
  3
Layout1
350
21
  3
Model
350
20
  0
DICTIONARY
  5
22
102
{ACAD_REACTORS
330
19
102
}
100
AcDbDictionary
280
         0
281
         1
  0
WIPEOUTVARIABLES
  5
23
100
AcDbWipeoutVariables
 70
         1
  0
ENDSEC
  0
EOF
