  0
SECTION
  2
HEADER
  9
$ACADVER
  1
AC1015
  9
$ACADMAINTVER
 70
         6
  9
$DWGCODEPAGE
  3
ANSI_1252
  9
$INSBASE
 10
0.0
 20
0.0
 30
0.0
  9
$EXTMIN
 10
0.0
 20
0.0
 30
0.0
  9
$EXTMAX
 10
210.0
 20
297.0
 30
0.0
  9
$LIMMIN
 10
0.0
 20
0.0
  9
$LIMMAX
 10
210.0
 20
297.0
  9
$ORTHOMODE
 70
         0
  9
$REGENMODE
 70
         1
  9
$FILLMODE
 70
         1
  9
$QTEXTMODE
 70
         0
  9
$MIRRTEXT
 70
         1
  9
$LTSCALE
 40
5.25
  9
$ATTMODE
 70
         1
  9
$TEXTSIZE
 40
0.2
  9
$TRACEWID
 40
0.05
  9
$TEXTSTYLE
  7
Standard
  9
$CLAYER
  8
0
  9
$CELTYPE
  6
CONTINUOUS
  9
$CECOLOR
 62
       256
  9
$CELTSCALE
 40
1.0
  9
$DISPSILH
 70
         0
  9
$DIMSCALE
 40
1.0
  9
$DIMASZ
 40
0.18
  9
$DIMEXO
 40
0.0625
  9
$DIMDLI
 40
0.38
  9
$DIMRND
 40
0.0
  9
$DIMDLE
 40
0.0
  9
$DIMEXE
 40
0.18
  9
$DIMTP
 40
0.0
  9
$DIMTM
 40
0.0
  9
$DIMTXT
 40
3.0
  9
$DIMCEN
 40
0.09
  9
$DIMTSZ
 40
0.0
  9
$DIMTOL
 70
         0
  9
$DIMLIM
 70
         0
  9
$DIMTIH
 70
         1
  9
$DIMTOH
 70
         1
  9
$DIMSE1
 70
         0
  9
$DIMSE2
 70
         0
  9
$DIMTAD
 70
         1
  9
$DIMZIN
 70
         0
  9
$DIMBLK
  1

  9
$DIMASO
 70
         1
  9
$DIMSHO
 70
         1
  9
$DIMPOST
  1
<>
  9
$DIMAPOST
  1

  9
$DIMALT
 70
         0
  9
$DIMALTD
 70
         2
  9
$DIMALTF
 40
25.4
  9
$DIMLFAC
 40
1.0
  9
$DIMTOFL
 70
         0
  9
$DIMTVP
 40
0.0
  9
$DIMTIX
 70
         0
  9
$DIMSOXD
 70
         0
  9
$DIMSAH
 70
         0
  9
$DIMBLK1
  1

  9
$DIMBLK2
  1

  9
$DIMSTYLE
  2
Standard
  9
$DIMCLRD
 70
         0
  9
$DIMCLRE
 70
         0
  9
$DIMCLRT
 70
         0
  9
$DIMTFAC
 40
1.0
  9
$DIMGAP
 40
0.09
  9
$DIMJUST
 70
         0
  9
$DIMSD1
 70
         0
  9
$DIMSD2
 70
         0
  9
$DIMTOLJ
 70
         1
  9
$DIMTZIN
 70
         0
  9
$DIMALTZ
 70
         0
  9
$DIMALTTZ
 70
         0
  9
$DIMUPT
 70
         0
  9
$DIMDEC
 70
         4
  9
$DIMTDEC
 70
         4
  9
$DIMALTU
 70
         2
  9
$DIMALTTD
 70
         2
  9
$DIMTXSTY
  7
Standard
  9
$DIMAUNIT
 70
         0
  9
$DIMADEC
 70
         0
  9
$DIMALTRND
 40
0.0
  9
$DIMAZIN
 70
         0
  9
$DIMDSEP
 70
         0
  9
$DIMATFIT
 70
         3
  9
$DIMFRAC
 70
         0
  9
$DIMLDRBLK
  1

  9
$DIMLUNIT
 70
         2
  9
$DIMLWD
 70
         0
  9
$DIMLWE
 70
         0
  9
$DIMTMOVE
 70
         0
  9
$LUNITS
 70
         2
  9
$LUPREC
 70
         4
  9
$SKETCHINC
 40
0.1
  9
$FILLETRAD
 40
0.0
  9
$AUNITS
 70
         0
  9
$AUPREC
 70
         0
  9
$MENU
  1
acad
  9
$ELEVATION
 40
0.0
  9
$PELEVATION
 40
0.0
  9
$THICKNESS
 40
0.0
  9
$LIMCHECK
 70
         0
  9
$CHAMFERA
 40
0.0
  9
$CHAMFERB
 40
0.0
  9
$CHAMFERC
 40
0.0
  9
$CHAMFERD
 40
0.0
  9
$SKPOLY
 70
         0
  9
$TDCREATE
 40
0.000000000
  9
$TDUCREATE
 40
0.000000000
  9
$TDUPDATE
 40
0.000000000
  9
$TDUUPDATE
 40
0.000000000
  9
$TDINDWG
 40
0.0000000000
  9
$TDUSRTIMER
 40
0.0000000000
  9
$USRTIMER
 70
         1
  9
$ANGBASE
 50
0.0
  9
$ANGDIR
 70
         0
  9
$PDMODE
 70
         0
  9
$PDSIZE
 40
0.0
  9
$PLINEWID
 40
0.0
  9
$SPLFRAME
 70
         0
  9
$SPLINETYPE
 70
         6
  9
$SPLINESEGS
 70
         8
  9
$HANDSEED
  5
352
  9
$SURFTAB1
 70
         6
  9
$SURFTAB2
 70
         6
  9
$SURFTYPE
 70
         6
  9
$SURFU
 70
         6
  9
$SURFV
 70
         6
  9
$UCSBASE
  2

  9
$UCSNAME
  2

  9
$UCSORG
 10
0.0
 20
0.0
 30
0.0
  9
$UCSXDIR
 10
1.0
 20
0.0
 30
0.0
  9
$UCSYDIR
 10
0.0
 20
1.0
 30
0.0
  9
$UCSORTHOREF
  2

  9
$UCSORTHOVIEW
 70
         0
  9
$UCSORGTOP
 10
0.0
 20
0.0
 30
0.0
  9
$UCSORGBOTTOM
 10
0.0
 20
0.0
 30
0.0
  9
$UCSORGLEFT
 10
0.0
 20
0.0
 30
0.0
  9
$UCSORGRIGHT
 10
0.0
 20
0.0
 30
0.0
  9
$UCSORGFRONT
 10
0.0
 20
0.0
 30
0.0
  9
$UCSORGBACK
 10
0.0
 20
0.0
 30
0.0
  9
$PUCSBASE
  2

  9
$PUCSNAME
  2

  9
$PUCSORG
 10
0.0
 20
0.0
 30
0.0
  9
$PUCSXDIR
 10
1.0
 20
0.0
 30
0.0
  9
$PUCSYDIR
 10
0.0
 20
1.0
 30
0.0
  9
$PUCSORTHOREF
  2

  9
$PUCSORTHOVIEW
 70
         0
  9
$PUCSORGTOP
 10
0.0
 20
0.0
 30
0.0
  9
$PUCSORGBOTTOM
 10
0.0
 20
0.0
 30
0.0
  9
$PUCSORGLEFT
 10
0.0
 20
0.0
 30
0.0
  9
$PUCSORGRIGHT
 10
0.0
 20
0.0
 30
0.0
  9
$PUCSORGFRONT
 10
0.0
 20
0.0
 30
0.0
  9
$PUCSORGBACK
 10
0.0
 20
0.0
 30
0.0
  9
$USERI1
 70
         0
  9
$USERI2
 70
         0
  9
$USERI3
 70
         0
  9
$USERI4
 70
         0
  9
$USERI5
 70
         0
  9
$USERR1
 40
0.0
  9
$USERR2
 40
0.0
  9
$USERR3
 40
0.0
  9
$USERR4
 40
0.0
  9
$USERR5
 40
0.0
  9
$WORLDVIEW
 70
         1
  9
$SHADEDGE
 70
         3
  9
$SHADEDIF
 70
        70
  9
$TILEMODE
 70
         1
  9
$MAXACTVP
 70
        16
  9
$PINSBASE
 10
0.0
 20
0.0
 30
0.0
  9
$PLIMCHECK
 70
         0
  9
$PEXTMIN
 10
1.0000000000E+20
 20
1.0000000000E+20
 30
1.0000000000E+20
  9
$PEXTMAX
 10
-1.0000000000E+20
 20
-1.0000000000E+20
 30
-1.0000000000E+20
  9
$PLIMMIN
 10
0.0
 20
0.0
  9
$PLIMMAX
 10
12.0
 20
9.0
  9
$UNITMODE
 70
         0
  9
$VISRETAIN
 70
         0
  9
$PLINEGEN
 70
         1
  9
$PSLTSCALE
 70
         0
  9
$TREEDEPTH
 70
      3020
  9
$CMLSTYLE
  2
Standard
  9
$CMLJUST
 70
         0
  9
$CMLSCALE
 40
1.0
  9
$PROXYGRAPHICS
 70
         0
  9
$MEASUREMENT
 70
         1
  9
$CELWEIGHT
370
         0
  9
$ENDCAPS
280
         0
  9
$JOINSTYLE
280
         0
  9
$LWDISPLAY
290
         0
  9
$INSUNITS
 70
         0
  9
$HYPERLINKBASE
  1

  9
$STYLESHEET
  1

  9
$XEDIT
290
         1
  9
$CEPSNTYPE
380
         0
  9
$PSTYLEMODE
290
         1
  9
$FINGERPRINTGUID
  2

  9
$VERSIONGUID
  2

  9
$EXTNAMES
290
         1
  9
$PSVPSCALE
 40
0.0
  0
ENDSEC
  0
SECTION
  2
CLASSES
  0
CLASS
  1
LWPOLYLINE
  2
AcDbPolyline
  3
AutoCAD 2000
 90
        0
280
         0
281
         1
  0
CLASS
  1
IMAGE
  2
AcDbRasterImage
  3
ISM
 90
      127
280
         0
281
         1
  0
CLASS
  1
OLE2FRAME
  2
AcDbOle2Frame
  3
AutoCAD 2000
 90
        0
280
         0
281
         1
  0
CLASS
  1
HATCH
  2
AcDbHatch
  3
AutoCAD 2000
 90
        0
280
         0
281
         1
  0
CLASS
  1
DICTIONARYVAR
  2
AcDbDictionaryVar
  3
AutoCAD 2000
 90
        0
280
         0
281
         0
  0
CLASS
  1
RASTERVARIABLES
  2
AcDbRasterVariables
  3
ISM
 90
        0
280
         0
281
         0
  0
CLASS
  1
IMAGEDEF
  2
AcDbRasterImageDef
  3
ISM
 90
        0
280
         0
281
         0
  0
CLASS
  1
IMAGEDEF_REACTOR
  2
AcDbRasterImageDefReactor
  3
ISM
 90
        1
280
         0
281
         0
  0
CLASS
  1
IDBUFFER
  2
AcDbIdBuffer
  3
AutoCAD 2000
 90
        0
280
         0
281
         0
  0
CLASS
  1
SPATIAL_FILTER
  2
AcDbSpatialFilter
  3
AutoCAD 2000
 90
        0
280
         0
281
         0
  0
CLASS
  1
XRECORD
  2
AcDbXrecord
  3
AutoCAD 2000
 90
        0
280
         0
281
         0
  0
CLASS
  1
SORTENTSTABLE
  2
AcDbSortentsTable
  3
AutoCAD 2000
 90
        0
280
         0
281
         0
  0
CLASS
  1
LAYER_INDEX
  2
AcDbLayerIndex
  3
AutoCAD 2000
 90
        0
280
         0
281
         0
  0
CLASS
  1
SPATIAL_INDEX
  2
AcDbSpatialIndex
  3
AutoCAD 2000
 90
        0
280
         0
281
         0
  0
CLASS
  1
OBJECT_PTR
  2
CAseDLPNTableRecord
  3
"ASE-LPNTableRecord"
 90
        1
280
         0
281
         0
  0
CLASS
  1
LAYOUT
  2
AcDbLayout
  3
AutoCAD 2000
 90
        0
280
         0
281
         0
  0
CLASS
  1
PLOTSETTINGS
  2
AcDbPlotSettings
  3
AutoCAD 2000
 90
        0
280
         0
281
         0
  0
CLASS
  1
ACDBDICTIONARYWDFLT
  2
AcDbDictionaryWithDefault
  3
AutoCAD 2000
 90
        0
280
         0
281
         0
  0
CLASS
  1
ACDBPLACEHOLDER
  2
AcDbPlaceHolder
  3
AutoCAD 2000
 90
        0
280
         0
281
         0
  0
CLASS
  1
VBA_PROJECT
  2
AcDbVbaProject
  3
acadvba
 90
        0
280
         0
281
         0
  0
CLASS
  1
WIPEOUT
  2
AcDbWipeout
  3
WipeOut|AutoCAD Express Tool|expresstools@autodesk.com
 90
      127
280
         0
281
         1
  0
CLASS
  1
WIPEOUTVARIABLES
  2
AcDbWipeoutVariables
  3
WipeOut|AutoCAD Express Tool|expresstools@autodesk.com
 90
        0
280
         0
281
         0
  0
CLASS
  1
RTEXT
  2
RText
  3
RText|AutoCAD Express Tool|expresstools@autodesk.com
 90
        0
280
         0
281
         1
  0
CLASS
  1
ARCALIGNEDTEXT
  2
AcDbArcAlignedText
  3
ATEXT|AutoCAD Express Tool|expresstools@autodesk.com
 90
        0
280
         0
281
         1
  0
ENDSEC
  0
SECTION
  2
TABLES
  0
TABLE
  2
VPORT
  5
7
100
AcDbSymbolTable
 70
         1
  0
VPORT
  5
15
100
AcDbSymbolTableRecord
100
AcDbViewportTableRecord
  2
*ACTIVE
 70
         0
 10
0.0
 20
0.0
 11
1.0
 21
1.0
 12
105.0
 22
148.5
 13
0.0
 23
0.0
 14
1.0
 24
1.0
 15
0.0
 25
0.0
 16
0.0
 26
0.0
 36
1.0
 17
0.0
 27
0.0
 37
0.0
 40
231.2943892345
 41
1.0
 42
50.0
 43
0.0
 44
0.0
 50
0.0
 51
0.0
 71
         0
 72
       100
 73
         1
 74
         1
 75
         0
 76
         0
 77
         0
 78
         0
281
         0
 65
         0
110
0.0
120
0.0
130
0.0
111
1.0
121
0.0
131
0.0
112
0.0
122
1.0
132
0.0
345
0
346
0
 79
         0
146
0.0
  0
ENDTAB
  0
TABLE
  2
LTYPE
  5
4
100
AcDbSymbolTable
 70
        12
  0
LTYPE
  5
11
100
AcDbSymbolTableRecord
100
AcDbLinetypeTableRecord
  2
ByBlock
 70
        64
  3

 72
        65
 73
         0
 40
0.0
  0
LTYPE
  5
12
100
AcDbSymbolTableRecord
100
AcDbLinetypeTableRecord
  2
ByLayer
 70
        64
  3

 72
        65
 73
         0
 40
0.0
  0
LTYPE
  5
13
100
AcDbSymbolTableRecord
100
AcDbLinetypeTableRecord
  2
CONTINUOUS
 70
        64
  3
Solid Line
 72
        65
 73
         0
 40
0.0
  0
LTYPE
  5
24
100
AcDbSymbolTableRecord
100
AcDbLinetypeTableRecord
  2
DOT
 70
        64
  3
. . . . . . . . . . . . . . . . . . . . . . 
 72
        65
 73
         2
 40
0.25
 49
0.0
 74
         0
 49
-0.25
 74
         0
  0
LTYPE
  5
25
100
AcDbSymbolTableRecord
100
AcDbLinetypeTableRecord
  2
HIDDEN
 70
         0
  3
_ _ _ _ _ _ _ _ _ _ _ _ _ _ _ _ _ _ _ _ _ _ _
 72
        65
 73
         2
 40
0.375
 49
0.25
 74
         0
 49
-0.125
 74
         0
  0
LTYPE
  5
26
100
AcDbSymbolTableRecord
100
AcDbLinetypeTableRecord
  2
DASHDOT
 70
         0
  3
__ . __ . __ . __ . __ . __ . __ . __ . __ . __
 72
        65
 73
         4
 40
1.0
 49
0.5
 74
         0
 49
-0.25
 74
         0
 49
0.0
 74
         0
 49
-0.25
 74
         0
  0
LTYPE
  5
27
100
AcDbSymbolTableRecord
100
AcDbLinetypeTableRecord
  2
DIVIDE
 70
         0
  3
__ . . __ . . __ . . __ . . __ . . __ . . __
 72
        65
 73
         6
 40
1.25
 49
0.5
 74
         0
 49
-0.25
 74
         0
 49
0.0
 74
         0
 49
-0.25
 74
         0
 49
0.0
 74
         0
 49
-0.25
 74
         0
  0
LTYPE
  5
28
100
AcDbSymbolTableRecord
100
AcDbLinetypeTableRecord
  2
DASHED
 70
         0
  3
__ __ __ __ __ __ __ __ __ __ __ __ __ __ __
 72
        65
 73
         2
 40
0.75
 49
0.5
 74
         0
 49
-0.25
 74
         0
  0
LTYPE
  5
29
100
AcDbSymbolTableRecord
100
AcDbLinetypeTableRecord
  2
BORDER
 70
         0
  3
__ __ . __ __ . __ __ . __ __ . __ __ .
 72
        65
 73
         6
 40
1.75
 49
0.5
 74
         0
 49
-0.25
 74
         0
 49
0.5
 74
         0
 49
-0.25
 74
         0
 49
0.0
 74
         0
 49
-0.25
 74
         0
  0
LTYPE
  5
2A
100
AcDbSymbolTableRecord
100
AcDbLinetypeTableRecord
  2
CENTER
 70
         0
  3
____ _ ____ _ ____ _ ____ _ ____ _ ____
 72
        65
 73
         4
 40
2.0
 49
1.25
 74
         0
 49
-0.25
 74
         0
 49
0.25
 74
         0
 49
-0.25
 74
         0
  0
LTYPE
  5
2B
100
AcDbSymbolTableRecord
100
AcDbLinetypeTableRecord
  2
DOT2
 70
         0
  3
........................................
 72
        65
 73
         2
 40
0.125
 49
0.0
 74
         0
 49
-0.125
 74
         0
  0
LTYPE
  5
2C
100
AcDbSymbolTableRecord
100
AcDbLinetypeTableRecord
  2
PHANTOM
 70
         0
  3
______  __  __  ______  __  __  ______
 72
        65
 73
         6
 40
2.5
 49
1.25
 74
         0
 49
-0.25
 74
         0
 49
0.25
 74
         0
 49
-0.25
 74
         0
 49
0.25
 74
         0
 49
-0.25
 74
         0
  0
ENDTAB
  0
TABLE
  2
LAYER
  5
2
100
AcDbSymbolTable
 70
       145
  0
LAYER
  5
14
100
AcDbSymbolTableRecord
100
AcDbLayerTableRecord
  2
0
 70
         0
 62
         7
  6
CONTINUOUS
290
         1
370
        -3
390
1D
  0
LAYER
  5
33
100
AcDbSymbolTableRecord
100
AcDbLayerTableRecord
  2
BESCHRIFTUNG
 70
        64
 62
         7
  6
CONTINUOUS
290
         1
370
        25
390
1D
  0
LAYER
  5
34
100
AcDbSymbolTableRecord
100
AcDbLayerTableRecord
  2
SCHRAFFUR
 70
        64
 62
         7
  6
CONTINUOUS
290
         1
370
        25
390
1D
  0
LAYER
  5
35
100
AcDbSymbolTableRecord
100
AcDbLayerTableRecord
  2
MASSTEXTE
 70
        64
 62
       212
  6
CONTINUOUS
290
         1
370
        25
390
1D
  0
LAYER
  5
36
100
AcDbSymbolTableRecord
100
AcDbLayerTableRecord
  2
MASSLINIEN
 70
        64
 62
       172
  6
CONTINUOUS
290
         1
370
        25
390
1D
  0
LAYER
  5
37
100
AcDbSymbolTableRecord
100
AcDbLayerTableRecord
  2
MASSGRENZEN
 70
        64
 62
       172
  6
CONTINUOUS
290
         1
370
        25
390
1D
  0
LAYER
  5
38
100
AcDbSymbolTableRecord
100
AcDbLayerTableRecord
  2
TOLERANZEN
 70
        64
 62
       212
  6
CONTINUOUS
290
         1
370
         0
390
1D
  0
LAYER
  5
39
100
AcDbSymbolTableRecord
100
AcDbLayerTableRecord
  2
BEMASSUNG
 70
        64
 62
         7
  6
CONTINUOUS
290
         1
370
        25
390
1D
  0
LAYER
  5
3A
100
AcDbSymbolTableRecord
100
AcDbLayerTableRecord
  2
HILFSLINIEN
 70
        64
 62
         3
  6
CONTINUOUS
290
         1
370
         0
390
1D
  0
LAYER
  5
3B
100
AcDbSymbolTableRecord
100
AcDbLayerTableRecord
  2
MITTELLINIEN
 70
        64
 62
         5
  6
DASHDOT
290
         1
370
        25
390
1D
  0
LAYER
  5
3C
100
AcDbSymbolTableRecord
100
AcDbLayerTableRecord
  2
BESCHRIFTUNG00
 70
        64
 62
         7
  6
CONTINUOUS
290
         1
370
        25
390
1D
  0
LAYER
  5
3D
100
AcDbSymbolTableRecord
100
AcDbLayerTableRecord
  2
BESCHRIFTUNG0
 70
        64
 62
         7
  6
CONTINUOUS
290
         1
370
        25
390
1D
  0
LAYER
  5
3E
100
AcDbSymbolTableRecord
100
AcDbLayerTableRecord
  2
GEWINDELINIEN
 70
        64
 62
       212
  6
CONTINUOUS
290
         1
370
        25
390
1D
  0
LAYER
  5
3F
100
AcDbSymbolTableRecord
100
AcDbLayerTableRecord
  2
UNSICHTBARE
 70
        64
 62
        92
  6
DASHED
290
         1
370
        25
390
1D
  0
LAYER
  5
40
100
AcDbSymbolTableRecord
100
AcDbLayerTableRecord
  2
VERDECKTE
 70
        64
 62
        92
  6
DASHED
290
         1
370
        25
390
1D
  0
LAYER
  5
41
100
AcDbSymbolTableRecord
100
AcDbLayerTableRecord
  2
LICHTKANTEN
 70
        64
 62
         8
  6
CONTINUOUS
290
         1
370
        25
390
1D
  0
LAYER
  5
42
100
AcDbSymbolTableRecord
100
AcDbLayerTableRecord
  2
SCHNITTVERLAUF
 70
        64
 62
        34
  6
DASHDOT
290
         1
370
        70
390
1D
  0
LAYER
  5
43
100
AcDbSymbolTableRecord
100
AcDbLayerTableRecord
  2
KENNZEICHNUNG
 70
        64
 62
         7
  6
CONTINUOUS
290
         1
370
         0
390
1D
  0
LAYER
  5
44
100
AcDbSymbolTableRecord
100
AcDbLayerTableRecord
  2
PFEILE
 70
        64
 62
         7
  6
CONTINUOUS
290
         1
370
        70
390
1D
  0
LAYER
  5
45
100
AcDbSymbolTableRecord
100
AcDbLayerTableRecord
  2
SCHNITTDARSTELLUNG
 70
        64
 62
         7
  6
CONTINUOUS
290
         1
370
         0
390
1D
  0
LAYER
  5
46
100
AcDbSymbolTableRecord
100
AcDbLayerTableRecord
  2
3201_3R
 70
        64
 62
        14
  6
CONTINUOUS
290
         1
370
         0
390
1D
  0
LAYER
  5
47
100
AcDbSymbolTableRecord
100
AcDbLayerTableRecord
  2
3201_3L
 70
        64
 62
        30
  6
CONTINUOUS
290
         1
370
         0
390
1D
  0
LAYER
  5
48
100
AcDbSymbolTableRecord
100
AcDbLayerTableRecord
  2
3201_1P
 70
        64
 62
        30
  6
CONTINUOUS
290
         1
370
         0
390
1D
  0
LAYER
  5
49
100
AcDbSymbolTableRecord
100
AcDbLayerTableRecord
  2
3201_2P
 70
        64
 62
        30
  6
CONTINUOUS
290
         1
370
         0
390
1D
  0
LAYER
  5
4A
100
AcDbSymbolTableRecord
100
AcDbLayerTableRecord
  2
3201_4P
 70
        64
 62
        30
  6
CONTINUOUS
290
         1
370
         0
390
1D
  0
LAYER
  5
4B
100
AcDbSymbolTableRecord
100
AcDbLayerTableRecord
  2
3201_6L
 70
        64
 62
        30
  6
CONTINUOUS
290
         1
370
         0
390
1D
  0
LAYER
  5
4C
100
AcDbSymbolTableRecord
100
AcDbLayerTableRecord
  2
3201_7L
 70
        64
 62
        30
  6
CONTINUOUS
290
         1
370
         0
390
1D
  0
LAYER
  5
4D
100
AcDbSymbolTableRecord
100
AcDbLayerTableRecord
  2
3201_9P
 70
        64
 62
        30
  6
CONTINUOUS
290
         1
370
         0
390
1D
  0
LAYER
  5
4E
100
AcDbSymbolTableRecord
100
AcDbLayerTableRecord
  2
3201_8R
 70
        64
 62
        14
  6
CONTINUOUS
290
         1
370
         0
390
1D
  0
LAYER
  5
4F
100
AcDbSymbolTableRecord
100
AcDbLayerTableRecord
  2
3201_8L
 70
        64
 62
        30
  6
CONTINUOUS
290
         1
370
         0
390
1D
  0
LAYER
  5
50
100
AcDbSymbolTableRecord
100
AcDbLayerTableRecord
  2
3201_9T
 70
        64
 62
        14
  6
CONTINUOUS
290
         1
370
         0
390
1D
  0
LAYER
  5
51
100
AcDbSymbolTableRecord
100
AcDbLayerTableRecord
  2
3201_11P
 70
        64
 62
        30
  6
CONTINUOUS
290
         1
370
         0
390
1D
  0
LAYER
  5
52
100
AcDbSymbolTableRecord
100
AcDbLayerTableRecord
  2
3201_6R
 70
        64
 62
        14
  6
CONTINUOUS
290
         1
370
         0
390
1D
  0
LAYER
  5
53
100
AcDbSymbolTableRecord
100
AcDbLayerTableRecord
  2
3201_7R
 70
        64
 62
        14
  6
CONTINUOUS
290
         1
370
         0
390
1D
  0
LAYER
  5
54
100
AcDbSymbolTableRecord
100
AcDbLayerTableRecord
  2
3201___ EINZELHEBEL JE
 70
        64
 62
         6
  6
DASHDOT
290
         1
370
         0
390
1D
  0
LAYER
  5
55
100
AcDbSymbolTableRecord
100
AcDbLayerTableRecord
  2
3202_1P
 70
        64
 62
        30
  6
CONTINUOUS
290
         1
370
         0
390
1D
  0
LAYER
  5
56
100
AcDbSymbolTableRecord
100
AcDbLayerTableRecord
  2
3202_2P
 70
        64
 62
        30
  6
CONTINUOUS
290
         1
370
         0
390
1D
  0
LAYER
  5
57
100
AcDbSymbolTableRecord
100
AcDbLayerTableRecord
  2
3202_9P
 70
        64
 62
        30
  6
CONTINUOUS
290
         1
370
         0
390
1D
  0
LAYER
  5
58
100
AcDbSymbolTableRecord
100
AcDbLayerTableRecord
  2
3202_9T
 70
        64
 62
        14
  6
CONTINUOUS
290
         1
370
         0
390
1D
  0
LAYER
  5
59
100
AcDbSymbolTableRecord
100
AcDbLayerTableRecord
  2
3202_11P
 70
        64
 62
        30
  6
CONTINUOUS
290
         1
370
         0
390
1D
  0
LAYER
  5
5A
100
AcDbSymbolTableRecord
100
AcDbLayerTableRecord
  2
3202_20T
 70
        64
 62
        14
  6
CONTINUOUS
290
         1
370
         0
390
1D
  0
LAYER
  5
5B
100
AcDbSymbolTableRecord
100
AcDbLayerTableRecord
  2
3202_20P
 70
        64
 62
        30
  6
CONTINUOUS
290
         1
370
         0
390
1D
  0
LAYER
  5
5C
100
AcDbSymbolTableRecord
100
AcDbLayerTableRecord
  2
3202___ DOPPELHEBEL JE
 70
        64
 62
         6
  6
DASHDOT
290
         1
370
         0
390
1D
  0
LAYER
  5
5D
100
AcDbSymbolTableRecord
100
AcDbLayerTableRecord
  2
3203_13P
 70
        64
 62
        30
  6
CONTINUOUS
290
         1
370
        13
390
1D
  0
LAYER
  5
5E
100
AcDbSymbolTableRecord
100
AcDbLayerTableRecord
  2
3203_14P
 70
        64
 62
        30
  6
CONTINUOUS
290
         1
370
        13
390
1D
  0
LAYER
  5
5F
100
AcDbSymbolTableRecord
100
AcDbLayerTableRecord
  2
3203_11P
 70
        64
 62
        30
  6
CONTINUOUS
290
         1
370
        13
390
1D
  0
LAYER
  5
60
100
AcDbSymbolTableRecord
100
AcDbLayerTableRecord
  2
3203_30P
 70
        64
 62
        30
  6
CONTINUOUS
290
         1
370
        13
390
1D
  0
LAYER
  5
61
100
AcDbSymbolTableRecord
100
AcDbLayerTableRecord
  2
3203___ EINZELHEBEL JE MIT SCHLOSS
 70
        64
 62
         6
  6
DASHDOT
290
         1
370
         0
390
1D
  0
LAYER
  5
62
100
AcDbSymbolTableRecord
100
AcDbLayerTableRecord
  2
3204_11P
 70
        64
 62
        30
  6
CONTINUOUS
290
         1
370
        13
390
1D
  0
LAYER
  5
63
100
AcDbSymbolTableRecord
100
AcDbLayerTableRecord
  2
3204_30P
 70
        64
 62
        30
  6
CONTINUOUS
290
         1
370
        13
390
1D
  0
LAYER
  5
64
100
AcDbSymbolTableRecord
100
AcDbLayerTableRecord
  2
3204___ DOPPELHEBEL JE MIT SCHLOSS
 70
        64
 62
         6
  6
DASHDOT
290
         1
370
         0
390
1D
  0
LAYER
  5
65
100
AcDbSymbolTableRecord
100
AcDbLayerTableRecord
  2
3206_1R
 70
        64
 62
        14
  6
CONTINUOUS
290
         1
370
        13
390
1D
  0
LAYER
  5
66
100
AcDbSymbolTableRecord
100
AcDbLayerTableRecord
  2
3206_3P
 70
        64
 62
        30
  6
CONTINUOUS
290
         1
370
        13
390
1D
  0
LAYER
  5
67
100
AcDbSymbolTableRecord
100
AcDbLayerTableRecord
  2
3206_1L
 70
        64
 62
        30
  6
CONTINUOUS
290
         1
370
        13
390
1D
  0
LAYER
  5
68
100
AcDbSymbolTableRecord
100
AcDbLayerTableRecord
  2
3206_4P
 70
        64
 62
        30
  6
CONTINUOUS
290
         1
370
        13
390
1D
  0
LAYER
  5
69
100
AcDbSymbolTableRecord
100
AcDbLayerTableRecord
  2
3206_2L
 70
        64
 62
        30
  6
CONTINUOUS
290
         1
370
        13
390
1D
  0
LAYER
  5
6A
100
AcDbSymbolTableRecord
100
AcDbLayerTableRecord
  2
3206_2R
 70
        64
 62
        14
  6
CONTINUOUS
290
         1
370
        13
390
1D
  0
LAYER
  5
6B
100
AcDbSymbolTableRecord
100
AcDbLayerTableRecord
  2
3206_5P
 70
        64
 62
        30
  6
CONTINUOUS
290
         1
370
        13
390
1D
  0
LAYER
  5
6C
100
AcDbSymbolTableRecord
100
AcDbLayerTableRecord
  2
3206_5T
 70
        64
 62
        15
  6
CONTINUOUS
290
         1
370
        13
390
1D
  0
LAYER
  5
6D
100
AcDbSymbolTableRecord
100
AcDbLayerTableRecord
  2
3206___ EINZELHEBEL JE GRUPPENPFADE
 70
        64
 62
         6
  6
DASHDOT
290
         1
370
         0
390
1D
  0
LAYER
  5
6E
100
AcDbSymbolTableRecord
100
AcDbLayerTableRecord
  2
3207_1R
 70
        64
 62
        14
  6
CONTINUOUS
290
         1
370
        13
390
1D
  0
LAYER
  5
6F
100
AcDbSymbolTableRecord
100
AcDbLayerTableRecord
  2
3207_3P
 70
        64
 62
        30
  6
CONTINUOUS
290
         1
370
        13
390
1D
  0
LAYER
  5
70
100
AcDbSymbolTableRecord
100
AcDbLayerTableRecord
  2
3207_1L
 70
        64
 62
        30
  6
CONTINUOUS
290
         1
370
        13
390
1D
  0
LAYER
  5
71
100
AcDbSymbolTableRecord
100
AcDbLayerTableRecord
  2
3207_4P
 70
        64
 62
        30
  6
CONTINUOUS
290
         1
370
        13
390
1D
  0
LAYER
  5
72
100
AcDbSymbolTableRecord
100
AcDbLayerTableRecord
  2
3207_2L
 70
        64
 62
        30
  6
CONTINUOUS
290
         1
370
        13
390
1D
  0
LAYER
  5
73
100
AcDbSymbolTableRecord
100
AcDbLayerTableRecord
  2
3207_2R
 70
        64
 62
        14
  6
CONTINUOUS
290
         1
370
        13
390
1D
  0
LAYER
  5
74
100
AcDbSymbolTableRecord
100
AcDbLayerTableRecord
  2
3207_5P
 70
        64
 62
        30
  6
CONTINUOUS
290
         1
370
        13
390
1D
  0
LAYER
  5
75
100
AcDbSymbolTableRecord
100
AcDbLayerTableRecord
  2
3207_5T
 70
        64
 62
        15
  6
CONTINUOUS
290
         1
370
        13
390
1D
  0
LAYER
  5
76
100
AcDbSymbolTableRecord
100
AcDbLayerTableRecord
  2
3207___ DOPPELHEBEL JE GRUPPENPFADE
 70
        64
 62
         6
  6
DASHDOT
290
         1
370
         0
390
1D
  0
LAYER
  5
77
100
AcDbSymbolTableRecord
100
AcDbLayerTableRecord
  2
3208_1R
 70
        64
 62
        14
  6
CONTINUOUS
290
         1
370
        13
390
1D
  0
LAYER
  5
78
100
AcDbSymbolTableRecord
100
AcDbLayerTableRecord
  2
3208_3P
 70
        64
 62
        30
  6
CONTINUOUS
290
         1
370
        13
390
1D
  0
LAYER
  5
79
100
AcDbSymbolTableRecord
100
AcDbLayerTableRecord
  2
3208_1L
 70
        64
 62
        30
  6
CONTINUOUS
290
         1
370
        13
390
1D
  0
LAYER
  5
7A
100
AcDbSymbolTableRecord
100
AcDbLayerTableRecord
  2
3208_4P
 70
        64
 62
        30
  6
CONTINUOUS
290
         1
370
        13
390
1D
  0
LAYER
  5
7B
100
AcDbSymbolTableRecord
100
AcDbLayerTableRecord
  2
3208_2L
 70
        64
 62
        30
  6
CONTINUOUS
290
         1
370
        13
390
1D
  0
LAYER
  5
7C
100
AcDbSymbolTableRecord
100
AcDbLayerTableRecord
  2
3208_2R
 70
        64
 62
        14
  6
CONTINUOUS
290
         1
370
        13
390
1D
  0
LAYER
  5
7D
100
AcDbSymbolTableRecord
100
AcDbLayerTableRecord
  2
3208_5P
 70
        64
 62
        30
  6
CONTINUOUS
290
         1
370
        13
390
1D
  0
LAYER
  5
7E
100
AcDbSymbolTableRecord
100
AcDbLayerTableRecord
  2
3208_5T
 70
        64
 62
        15
  6
CONTINUOUS
290
         1
370
        13
390
1D
  0
LAYER
  5
7F
100
AcDbSymbolTableRecord
100
AcDbLayerTableRecord
  2
3208___ EINZELHEBEL JE MIT SCHLOSS GRUPPENPFADE
 70
        64
 62
         6
  6
DASHDOT
290
         1
370
         0
390
1D
  0
LAYER
  5
80
100
AcDbSymbolTableRecord
100
AcDbLayerTableRecord
  2
3209_1R
 70
        64
 62
        14
  6
CONTINUOUS
290
         1
370
        13
390
1D
  0
LAYER
  5
81
100
AcDbSymbolTableRecord
100
AcDbLayerTableRecord
  2
3209_3P
 70
        64
 62
        30
  6
CONTINUOUS
290
         1
370
        13
390
1D
  0
LAYER
  5
82
100
AcDbSymbolTableRecord
100
AcDbLayerTableRecord
  2
3209_1L
 70
        64
 62
        30
  6
CONTINUOUS
290
         1
370
        13
390
1D
  0
LAYER
  5
83
100
AcDbSymbolTableRecord
100
AcDbLayerTableRecord
  2
3209_4P
 70
        64
 62
        30
  6
CONTINUOUS
290
         1
370
        13
390
1D
  0
LAYER
  5
84
100
AcDbSymbolTableRecord
100
AcDbLayerTableRecord
  2
3209_2L
 70
        64
 62
        30
  6
CONTINUOUS
290
         1
370
        13
390
1D
  0
LAYER
  5
85
100
AcDbSymbolTableRecord
100
AcDbLayerTableRecord
  2
3209_2R
 70
        64
 62
        14
  6
CONTINUOUS
290
         1
370
        13
390
1D
  0
LAYER
  5
86
100
AcDbSymbolTableRecord
100
AcDbLayerTableRecord
  2
3209_5P
 70
        64
 62
        30
  6
CONTINUOUS
290
         1
370
        13
390
1D
  0
LAYER
  5
87
100
AcDbSymbolTableRecord
100
AcDbLayerTableRecord
  2
3209_5T
 70
        64
 62
        15
  6
CONTINUOUS
290
         1
370
        13
390
1D
  0
LAYER
  5
88
100
AcDbSymbolTableRecord
100
AcDbLayerTableRecord
  2
3209___ DOPPELHEBEL JE MIT SCHLOSS GRUPPENPFADE
 70
        64
 62
         6
  6
DASHDOT
290
         1
370
         0
390
1D
  0
LAYER
  5
89
100
AcDbSymbolTableRecord
100
AcDbLayerTableRecord
  2
1088_1P
 70
        64
 62
        30
  6
CONTINUOUS
290
         1
370
        13
390
1D
  0
LAYER
  5
8A
100
AcDbSymbolTableRecord
100
AcDbLayerTableRecord
  2
1088_1R
 70
        64
 62
        14
  6
CONTINUOUS
290
         1
370
        13
390
1D
  0
LAYER
  5
8B
100
AcDbSymbolTableRecord
100
AcDbLayerTableRecord
  2
1088___ VORLAGEN
 70
        64
 62
       230
  6
CONTINUOUS
290
         1
370
        13
390
1D
  0
LAYER
  5
8C
100
AcDbSymbolTableRecord
100
AcDbLayerTableRecord
  2
FRÄSPFADE
 70
        64
 62
        30
  6
CONTINUOUS
290
         1
370
         0
390
1D
  0
LAYER
  5
8D
100
AcDbSymbolTableRecord
100
AcDbLayerTableRecord
  2
3201 HEBELSCHILDCHEN UMGELEGT
 70
        64
 62
        16
  6
DASHED
290
         1
370
        18
390
1D
  0
LAYER
  5
8E
100
AcDbSymbolTableRecord
100
AcDbLayerTableRecord
  2
3201 HEBELSCHILDCHEN
 70
        64
 62
        16
  6
CONTINUOUS
290
         1
370
        18
390
1D
  0
LAYER
  5
8F
100
AcDbSymbolTableRecord
100
AcDbLayerTableRecord
  2
3201 HEBELBOCK
 70
        64
 62
         7
  6
CONTINUOUS
290
         1
370
        18
390
1D
  0
LAYER
  5
90
100
AcDbSymbolTableRecord
100
AcDbLayerTableRecord
  2
3201 HEBELEISEN UMGELEGT
 70
        64
 62
         5
  6
DASHED
290
         1
370
        18
390
1D
  0
LAYER
  5
91
100
AcDbSymbolTableRecord
100
AcDbLayerTableRecord
  2
3201 HEBELEISEN
 70
        64
 62
         5
  6
CONTINUOUS
290
         1
370
        18
390
1D
  0
LAYER
  5
92
100
AcDbSymbolTableRecord
100
AcDbLayerTableRecord
  2
3201 HEBELROLLE UMGELEGT
 70
        64
 62
       134
  6
DASHED
290
         1
370
        18
390
1D
  0
LAYER
  5
93
100
AcDbSymbolTableRecord
100
AcDbLayerTableRecord
  2
3201 HEBELROLLE
 70
        64
 62
       134
  6
CONTINUOUS
290
         1
370
        18
390
1D
  0
LAYER
  5
94
100
AcDbSymbolTableRecord
100
AcDbLayerTableRecord
  2
3201-3204 WINKELHEBEL UMGELEGT
 70
        64
 62
       190
  6
DASHED
290
         1
370
        18
390
1D
  0
LAYER
  5
95
100
AcDbSymbolTableRecord
100
AcDbLayerTableRecord
  2
3201-3204 WINKELHEBEL
 70
        64
 62
       190
  6
CONTINUOUS
290
         1
370
        18
390
1D
  0
LAYER
  5
96
100
AcDbSymbolTableRecord
100
AcDbLayerTableRecord
  2
3201 HANDFALLE ANGEZOGEN
 70
        64
 62
        30
  6
HIDDEN
290
         1
370
        18
390
1D
  0
LAYER
  5
97
100
AcDbSymbolTableRecord
100
AcDbLayerTableRecord
  2
3201 HANDFALLE UMGELEGT
 70
        64
 62
        30
  6
DASHED
290
         1
370
        18
390
1D
  0
LAYER
  5
98
100
AcDbSymbolTableRecord
100
AcDbLayerTableRecord
  2
3201 HANDFALLE
 70
        64
 62
       114
  6
CONTINUOUS
290
         1
370
        18
390
1D
  0
LAYER
  5
99
100
AcDbSymbolTableRecord
100
AcDbLayerTableRecord
  2
3201 HEBELKLINKE UMGELEGT
 70
        64
 62
       171
  6
DASHED
290
         1
370
        18
390
1D
  0
LAYER
  5
9A
100
AcDbSymbolTableRecord
100
AcDbLayerTableRecord
  2
3201 HEBELKLINKE
 70
        64
 62
       171
  6
CONTINUOUS
290
         1
370
        18
390
1D
  0
LAYER
  5
9B
100
AcDbSymbolTableRecord
100
AcDbLayerTableRecord
  2
3201 SEILZUG
 70
        64
 62
        94
  6
DASHDOT
290
         1
370
        18
390
1D
  0
LAYER
  5
9C
100
AcDbSymbolTableRecord
100
AcDbLayerTableRecord
  2
3203 SCHLOSSRIEGELPLATTE AUFGESPERRT
 70
        64
 62
       172
  6
DASHED
290
         1
370
        18
390
1D
  0
LAYER
  5
9D
100
AcDbSymbolTableRecord
100
AcDbLayerTableRecord
  2
3203 SCHLOSSRIEGELPLATTE
 70
        64
 62
       172
  6
CONTINUOUS
290
         1
370
        18
390
1D
  0
LAYER
  5
9E
100
AcDbSymbolTableRecord
100
AcDbLayerTableRecord
  2
3201-3204 HEBEL JE
 70
        64
 62
         7
  6
CONTINUOUS
290
         1
370
         0
390
1D
  0
LAYER
  5
9F
100
AcDbSymbolTableRecord
100
AcDbLayerTableRecord
  2
2001 BODEN
 70
        64
 62
        14
  6
CONTINUOUS
290
         1
370
        18
390
1D
  0
LAYER
  5
A0
100
AcDbSymbolTableRecord
100
AcDbLayerTableRecord
  2
2001 GEBÄUDE
 70
        64
 62
         7
  6
CONTINUOUS
290
         1
370
         0
390
1D
  0
LAYER
  5
A1
100
AcDbSymbolTableRecord
100
AcDbLayerTableRecord
  2
2052 RIEGEL UMGESPERRT
 70
        64
 62
       230
  6
DASHED
290
         1
370
        18
390
1D
  0
LAYER
  5
A2
100
AcDbSymbolTableRecord
100
AcDbLayerTableRecord
  2
2052 RIEGEL
 70
        64
 62
       230
  6
CONTINUOUS
290
         1
370
        18
390
1D
  0
LAYER
  5
A3
100
AcDbSymbolTableRecord
100
AcDbLayerTableRecord
  2
2052 ZUHALTUNG ANGEHOBEN
 70
        64
 62
        94
  6
DASHED
290
         1
370
        18
390
1D
  0
LAYER
  5
A4
100
AcDbSymbolTableRecord
100
AcDbLayerTableRecord
  2
2052 ZUHALTUNG
 70
        64
 62
        94
  6
CONTINUOUS
290
         1
370
        18
390
1D
  0
LAYER
  5
A5
100
AcDbSymbolTableRecord
100
AcDbLayerTableRecord
  2
2052 GEHÄUSE
 70
        64
 62
         7
  6
CONTINUOUS
290
         1
370
        18
390
1D
  0
LAYER
  5
A6
100
AcDbSymbolTableRecord
100
AcDbLayerTableRecord
  2
2052 BESATZUNG
 70
        64
 62
         8
  6
CONTINUOUS
290
         1
370
        18
390
1D
  0
LAYER
  5
A7
100
AcDbSymbolTableRecord
100
AcDbLayerTableRecord
  2
2052 SCHLOSS MIT DORN
 70
        64
 62
         7
  6
CONTINUOUS
290
         1
370
         0
390
1D
  0
LAYER
  5
A8
100
AcDbSymbolTableRecord
100
AcDbLayerTableRecord
  2
2053 SCHILD
 70
        64
 62
        54
  6
CONTINUOUS
290
         1
370
        18
390
1D
  0
LAYER
  5
A9
100
AcDbSymbolTableRecord
100
AcDbLayerTableRecord
  2
2053 SCHLÜSSEL
 70
        64
 62
       190
  6
CONTINUOUS
290
         1
370
        18
390
1D
  0
LAYER
  5
AA
100
AcDbSymbolTableRecord
100
AcDbLayerTableRecord
  2
2053 SCHLÜSSEL MIT DORN
 70
        64
 62
         7
  6
CONTINUOUS
290
         1
370
         0
390
1D
  0
LAYER
  5
AB
100
AcDbSymbolTableRecord
100
AcDbLayerTableRecord
  2
3301 FAHRSTRAßENSCHIEBERANTRIEB VERDREHT
 70
        64
 62
       171
  6
DASHED
290
         1
370
        18
390
1D
  0
LAYER
  5
AC
100
AcDbSymbolTableRecord
100
AcDbLayerTableRecord
  2
3301 FAHRSTRAßENSCHIEBERANTRIEB
 70
        64
 62
       171
  6
CONTINUOUS
290
         1
370
        18
390
1D
  0
LAYER
  5
AD
100
AcDbSymbolTableRecord
100
AcDbLayerTableRecord
  2
3301 RAHMEN LÄNGS
 70
        64
 62
         7
  6
CONTINUOUS
290
         1
370
        18
390
1D
  0
LAYER
  5
AE
100
AcDbSymbolTableRecord
100
AcDbLayerTableRecord
  2
3301 HEBELANLENKUNG
 70
        64
 62
       230
  6
CONTINUOUS
290
         1
370
        18
390
1D
  0
LAYER
  5
AF
100
AcDbSymbolTableRecord
100
AcDbLayerTableRecord
  2
3301 FAHRSTRAßENSCHIEBER VERSCHOBEN
 70
        64
 62
       172
  6
DASHED
290
         1
370
        18
390
1D
  0
LAYER
  5
B0
100
AcDbSymbolTableRecord
100
AcDbLayerTableRecord
  2
3301 FAHRSTRAßENSCHIEBER
 70
        64
 62
       172
  6
CONTINUOUS
290
         1
370
        18
390
1D
  0
LAYER
  5
B1
100
AcDbSymbolTableRecord
100
AcDbLayerTableRecord
  2
3301 VERSCHLUSSBALKENANLENKUNG UMGELEGT
 70
        64
 62
       230
  6
DASHED
290
         1
370
        18
390
1D
  0
LAYER
  5
B2
100
AcDbSymbolTableRecord
100
AcDbLayerTableRecord
  2
3301 VERSCHLUSSBALKENANLENKUNG
 70
        64
 62
       230
  6
CONTINUOUS
290
         1
370
        18
390
1D
  0
LAYER
  5
B3
100
AcDbSymbolTableRecord
100
AcDbLayerTableRecord
  2
3301 ANLENKUNGSLAGER
 70
        64
 62
         7
  6
CONTINUOUS
290
         1
370
        18
390
1D
  0
LAYER
  5
B4
100
AcDbSymbolTableRecord
100
AcDbLayerTableRecord
  2
3301 RAHMEN QUER
 70
        64
 62
         8
  6
CONTINUOUS
290
         1
370
        18
390
1D
  0
LAYER
  5
B5
100
AcDbSymbolTableRecord
100
AcDbLayerTableRecord
  2
3301 FAHRSTRAßENSCHIEBERRECHEN
 70
        64
 62
        34
  6
BORDER
290
         1
370
        18
390
1D
  0
LAYER
  5
B6
100
AcDbSymbolTableRecord
100
AcDbLayerTableRecord
  2
3301 VERSCHLUSSBALKEN UMGELEGT
 70
        64
 62
       134
  6
DASHED
290
         1
370
        18
390
1D
  0
LAYER
  5
B7
100
AcDbSymbolTableRecord
100
AcDbLayerTableRecord
  2
3301 VERSCHLUSSBALKEN
 70
        64
 62
       134
  6
CONTINUOUS
290
         1
370
        18
390
1D
  0
LAYER
  5
B8
100
AcDbSymbolTableRecord
100
AcDbLayerTableRecord
  2
3301 VERSCHLUSSREGISTER JE
 70
        64
 62
         7
  6
CONTINUOUS
290
         1
370
         0
390
1D
  0
LAYER
  5
B9
100
AcDbSymbolTableRecord
100
AcDbLayerTableRecord
  2
3304 KLOBEN
 70
        64
 62
       190
  6
CONTINUOUS
290
         1
370
         0
390
1D
  0
LAYER
  5
BA
100
AcDbSymbolTableRecord
100
AcDbLayerTableRecord
  2
3211 TRÄGER JE
 70
        64
 62
         7
  6
CONTINUOUS
290
         1
370
        18
390
1D
  0
LAYER
  5
BB
100
AcDbSymbolTableRecord
100
AcDbLayerTableRecord
  2
3211 STÄNDER JE
 70
        64
 62
         7
  6
CONTINUOUS
290
         1
370
        18
390
1D
  0
LAYER
  5
BC
100
AcDbSymbolTableRecord
100
AcDbLayerTableRecord
  2
3211 HEBELBANK JE
 70
        64
 62
         9
  6
CONTINUOUS
290
         1
370
        18
390
1D
  0
LAYER
  5
BD
100
AcDbSymbolTableRecord
100
AcDbLayerTableRecord
  2
3302 HEBELBOCK
 70
        64
 62
       172
  6
CONTINUOUS
290
         1
370
        18
390
1D
  0
LAYER
  5
BE
100
AcDbSymbolTableRecord
100
AcDbLayerTableRecord
  2
3302 HEBELERSATZSCHLOSS JE
 70
        64
 62
         7
  6
CONTINUOUS
290
         1
370
         0
390
1D
  0
LAYER
  5
BF
100
AcDbSymbolTableRecord
100
AcDbLayerTableRecord
  2
1088 GEHÄUSE
 70
        64
 62
         7
  6
CONTINUOUS
290
         1
370
        18
390
1D
  0
LAYER
  5
C0
100
AcDbSymbolTableRecord
100
AcDbLayerTableRecord
  2
1088 BAUTEIL
 70
        64
 62
         7
  6
CONTINUOUS
290
         1
370
        18
390
1D
  0
LAYER
  5
C1
100
AcDbSymbolTableRecord
100
AcDbLayerTableRecord
  2
KONSTRUKTION
 70
        64
 62
         7
  6
CONTINUOUS
290
         1
370
         0
390
1D
  0
LAYER
  5
C2
100
AcDbSymbolTableRecord
100
AcDbLayerTableRecord
  2
STANDARD
 70
        64
 62
         7
  6
CONTINUOUS
290
         1
370
         0
390
1D
  0
ENDTAB
  0
TABLE
  2
STYLE
  5
3
100
AcDbSymbolTable
 70
         7
  0
STYLE
  5
17
100
AcDbSymbolTableRecord
100
AcDbTextStyleTableRecord
  2
Standard
 70
         0
 40
0.0
 41
1.0
 50
0.0
 71
         0
 42
0.0
  3
txt
  4

  0
STYLE
  5
2D
100
AcDbSymbolTableRecord
100
AcDbTextStyleTableRecord
  2
CADdy
 70
         0
 40
0.0
 41
1.0
 50
0.0
 71
         0
 42
3.5
  3
txt.shx
  4

  0
STYLE
  5
2E
100
AcDbSymbolTableRecord
100
AcDbTextStyleTableRecord
  2
Arial
 70
         0
 40
0.0
 41
1.0
 50
0.0
 71
         0
 42
3.5
  3
arial.ttf
  4

1001
ACAD
1000
Arial
1071
       34
  0
STYLE
  5
2F
100
AcDbSymbolTableRecord
100
AcDbTextStyleTableRecord
  2
Isonorm
 70
         0
 40
0.0
 41
1.0
 50
0.0
 71
         0
 42
3.5
  3
txt.shx
  4

  0
STYLE
  5
30
100
AcDbSymbolTableRecord
100
AcDbTextStyleTableRecord
  2
Tahoma
 70
         0
 40
0.0
 41
1.0
 50
0.0
 71
         0
 42
3.5
  3
tahoma.ttf
  4

1001
ACAD
1000
Tahoma
1071
       34
  0
STYLE
  5
31
100
AcDbSymbolTableRecord
100
AcDbTextStyleTableRecord
  2
Microsoft Sans Serif
 70
         0
 40
0.0
 41
1.0
 50
0.0
 71
         0
 42
3.5
  3
micross.ttf
  4

1001
ACAD
1000
Microsoft Sans Serif
1071
       34
  0
STYLE
  5
32
100
AcDbSymbolTableRecord
100
AcDbTextStyleTableRecord
  2
Arial Rounded MT Bold
 70
         0
 40
0.0
 41
1.0
 50
0.0
 71
         0
 42
3.5
  3
txt.shx
  4

  0
ENDTAB
  0
TABLE
  2
VIEW
  5
5
100
AcDbSymbolTable
 70
         0
  0
ENDTAB
  0
TABLE
  2
UCS
  5
6
100
AcDbSymbolTable
 70
         0
  0
ENDTAB
  0
TABLE
  2
APPID
  5
8
100
AcDbSymbolTable
 70
         1
  0
APPID
  5
16
100
AcDbSymbolTableRecord
100
AcDbRegAppTableRecord
  2
ACAD
 70
        64
  0
ENDTAB
  0
TABLE
  2
DIMSTYLE
  5
9
100
AcDbSymbolTable
 70
         1
100
AcDbDimStyleTable
 71
         0
  0
DIMSTYLE
105
18
100
AcDbSymbolTableRecord
100
AcDbDimStyleTableRecord
  2
Standard
 70
         0
  3

  4

 40
1.0
 41
0.18
 42
0.0625
 43
0.38
 44
0.18
 45
0.0
 46
0.0
 47
0.0
 48
0.0
 71
         0
 72
         0
 73
         1
 74
         1
 75
         0
 76
         0
 77
         0
 78
         0
 79
         0
140
0.18
141
0.09
142
0.0
143
25.4
144
1.0
145
0.0
146
1.0
147
0.09
148
0.0
170
         0
171
         2
172
         0
173
         0
174
         0
175
         0
176
         0
177
         0
178
         0
179
         0
271
         4
272
         4
273
         2
274
         2
275
         0
276
         0
277
         2
278
        46
279
         0
280
         0
281
         0
282
         0
283
         1
284
         0
285
         0
286
         0
288
         0
289
         3
340
17
341
0
342
0
343
0
344
0
371
        -2
372
        -2
  0
ENDTAB
  0
TABLE
  2
BLOCK_RECORD
  5
1
100
AcDbSymbolTable
 70
        16
  0
BLOCK_RECORD
  5
A
100
AcDbSymbolTableRecord
100
AcDbBlockTableRecord
  2
*MODEL_SPACE
340
20
  0
BLOCK_RECORD
  5
B
100
AcDbSymbolTableRecord
100
AcDbBlockTableRecord
  2
*PAPER_SPACE
340
21
  0
BLOCK_RECORD
  5
C3
100
AcDbSymbolTableRecord
100
AcDbBlockTableRecord
  2
D207210240
340
0
102
{BLKREFS
331
26C
102
}
  0
BLOCK_RECORD
  5
CC
100
AcDbSymbolTableRecord
100
AcDbBlockTableRecord
  2
D207218176
340
0
102
{BLKREFS
331
26D
102
}
  0
BLOCK_RECORD
  5
D5
100
AcDbSymbolTableRecord
100
AcDbBlockTableRecord
  2
D207217920
340
0
102
{BLKREFS
331
26E
102
}
  0
BLOCK_RECORD
  5
DE
100
AcDbSymbolTableRecord
100
AcDbBlockTableRecord
  2
D207217664
340
0
102
{BLKREFS
331
293
102
}
  0
BLOCK_RECORD
  5
E9
100
AcDbSymbolTableRecord
100
AcDbBlockTableRecord
  2
D207217408
340
0
102
{BLKREFS
331
294
102
}
  0
BLOCK_RECORD
  5
F4
100
AcDbSymbolTableRecord
100
AcDbBlockTableRecord
  2
D110842112
340
0
102
{BLKREFS
331
2A5
102
}
  0
BLOCK_RECORD
  5
FD
100
AcDbSymbolTableRecord
100
AcDbBlockTableRecord
  2
D110841344
340
0
102
{BLKREFS
331
2A6
102
}
  0
BLOCK_RECORD
  5
106
100
AcDbSymbolTableRecord
100
AcDbBlockTableRecord
  2
D110841856
340
0
102
{BLKREFS
331
2A7
102
}
  0
BLOCK_RECORD
  5
10F
100
AcDbSymbolTableRecord
100
AcDbBlockTableRecord
  2
D110839808
340
0
102
{BLKREFS
331
2A9
102
}
  0
BLOCK_RECORD
  5
118
100
AcDbSymbolTableRecord
100
AcDbBlockTableRecord
  2
D110840064
340
0
102
{BLKREFS
331
2AA
102
}
  0
BLOCK_RECORD
  5
121
100
AcDbSymbolTableRecord
100
AcDbBlockTableRecord
  2
D110839552
340
0
102
{BLKREFS
331
2AB
102
}
  0
BLOCK_RECORD
  5
12A
100
AcDbSymbolTableRecord
100
AcDbBlockTableRecord
  2
D110843648
340
0
102
{BLKREFS
331
2AC
102
}
  0
BLOCK_RECORD
  5
133
100
AcDbSymbolTableRecord
100
AcDbBlockTableRecord
  2
D110840320
340
0
102
{BLKREFS
331
2C2
102
}
  0
BLOCK_RECORD
  5
13C
100
AcDbSymbolTableRecord
100
AcDbBlockTableRecord
  2
D110843904
340
0
102
{BLKREFS
331
2C3
102
}
  0
BLOCK_RECORD
  5
145
100
AcDbSymbolTableRecord
100
AcDbBlockTableRecord
  2
D110840576
340
0
102
{BLKREFS
331
2D0
102
}
  0
BLOCK_RECORD
  5
14E
100
AcDbSymbolTableRecord
100
AcDbBlockTableRecord
  2
D110843136
340
0
102
{BLKREFS
331
31B
102
}
  0
ENDTAB
  0
ENDSEC
  0
SECTION
  2
BLOCKS
  0
BLOCK
  5
D
100
AcDbEntity
  8
0
390
0
100
AcDbBlockBegin
  2
*MODEL_SPACE
 70
         0
 10
0.0
 20
0.0
 30
0.0
  3
*MODEL_SPACE
  1

  0
ENDBLK
  5
E
100
AcDbEntity
  8
0
390
0
100
AcDbBlockEnd
  0
BLOCK
  5
F
100
AcDbEntity
 67
         1
  8
0
390
0
100
AcDbBlockBegin
  2
*PAPER_SPACE
 70
         0
 10
0.0
 20
0.0
 30
0.0
  3
*PAPER_SPACE
  1

  0
ENDBLK
  5
10
100
AcDbEntity
 67
         1
  8
0
390
0
100
AcDbBlockEnd
  0
BLOCK
  5
C4
100
AcDbEntity
  8
BEMASSUNG
390
0
100
AcDbBlockBegin
  2
D207210240
 70
         0
 10
0.0
 20
0.0
 30
0.0
  3
D207210240
  1

  0
LINE
  5
C5
100
AcDbEntity
  8
MASSLINIEN
390
0
 62
       172
100
AcDbLine
 10
29.9352150612
 20
182.572556022
 30
0.0
 11
84.9352150612
 21
182.572556022
 31
0.0
  0
LINE
  5
C6
100
AcDbEntity
  8
MASSLINIEN
390
0
 62
       172
100
AcDbLine
 10
29.9352150612
 20
188.334068016
 30
0.0
 11
29.9352150612
 21
180.572556022
 31
0.0
  0
LINE
  5
C7
100
AcDbEntity
  8
MASSLINIEN
390
0
 62
       172
100
AcDbLine
 10
84.9352150612
 20
277.189259237
 30
0.0
 11
84.9352150612
 21
180.572556022
 31
0.0
  0
SOLID
  5
C8
100
AcDbEntity
  8
MASSGRENZEN
390
0
100
AcDbTrace
 10
29.9352150612
 20
182.572556022
 30
0.0
 11
32.9095496454
 21
182.9641345986
 31
0.0
 12
32.9095496454
 22
182.1809774453
 32
0.0
 13
32.9095496454
 23
182.1809774453
 33
0.0
  0
SOLID
  5
C9
100
AcDbEntity
  8
MASSGRENZEN
390
0
100
AcDbTrace
 10
84.9352150612
 20
182.572556022
 30
0.0
 11
81.9608804771
 21
182.1809774453
 31
0.0
 12
81.9608804771
 22
182.9641345986
 32
0.0
 13
81.9608804771
 23
182.9641345986
 33
0.0
  0
MTEXT
  5
CA
100
AcDbEntity
  8
MASSTEXTE
390
0
 62
       212
100
AcDbMText
 10
57.4352150612
 20
185.028556022
 30
0.0
 40
2.0
 41
0.0
 71
         5
 72
         1
  1
\W1.135145;\A1;55
  7
Arial
 11
1.0
 21
0.0
 31
0.0
 73
         0
 44
0.0
  0
ENDBLK
  5
CB
100
AcDbEntity
  8
0
390
0
100
AcDbBlockEnd
  0
BLOCK
  5
CD
100
AcDbEntity
  8
BEMASSUNG
390
0
100
AcDbBlockBegin
  2
D207218176
 70
         0
 10
0.0
 20
0.0
 30
0.0
  3
D207218176
  1

  0
LINE
  5
CE
100
AcDbEntity
  8
MASSLINIEN
390
0
 62
       172
100
AcDbLine
 10
99.2760058966
 20
183.3218126369
 30
0.0
 11
154.2760058966
 21
183.3218126369
 31
0.0
  0
LINE
  5
CF
100
AcDbEntity
  8
MASSLINIEN
390
0
 62
       172
100
AcDbLine
 10
99.2760058966
 20
189.1874677315
 30
0.0
 11
99.2760058966
 21
181.3218126369
 31
0.0
  0
LINE
  5
D0
100
AcDbEntity
  8
MASSLINIEN
390
0
 62
       172
100
AcDbLine
 10
154.2760058966
 20
189.1874677315
 30
0.0
 11
154.2760058966
 21
181.3218126369
 31
0.0
  0
SOLID
  5
D1
100
AcDbEntity
  8
MASSGRENZEN
390
0
100
AcDbTrace
 10
99.2760058966
 20
183.3218126369
 30
0.0
 11
102.2503404807
 21
183.7133912135
 31
0.0
 12
102.2503404807
 22
182.9302340602
 32
0.0
 13
102.2503404807
 23
182.9302340602
 33
0.0
  0
SOLID
  5
D2
100
AcDbEntity
  8
MASSGRENZEN
390
0
100
AcDbTrace
 10
154.2760058966
 20
183.3218126369
 30
0.0
 11
151.3016713124
 21
182.9302340602
 31
0.0
 12
151.3016713124
 22
183.7133912135
 32
0.0
 13
151.3016713124
 23
183.7133912135
 33
0.0
  0
MTEXT
  5
D3
100
AcDbEntity
  8
MASSTEXTE
390
0
 62
       212
100
AcDbMText
 10
126.7760058966
 20
185.7778126369
 30
0.0
 40
2.0
 41
0.0
 71
         5
 72
         1
  1
\W1.135145;\A1;55
  7
Arial
 11
1.0
 21
0.0
 31
0.0
 73
         0
 44
0.0
  0
ENDBLK
  5
D4
100
AcDbEntity
  8
0
390
0
100
AcDbBlockEnd
  0
BLOCK
  5
D6
100
AcDbEntity
  8
BEMASSUNG
390
0
100
AcDbBlockBegin
  2
D207217920
 70
         0
 10
0.0
 20
0.0
 30
0.0
  3
D207217920
  1

  0
LINE
  5
D7
100
AcDbEntity
  8
MASSLINIEN
390
0
 62
       172
100
AcDbLine
 10
122.555667992
 20
40.7767889334
 30
0.0
 11
138.5556679911
 21
40.7769533338
 31
0.0
  0
LINE
  5
D8
100
AcDbEntity
  8
MASSLINIEN
390
0
 62
       172
100
AcDbLine
 10
122.554295771
 20
174.3259539386
 30
0.0
 11
122.555688542
 21
38.7767889335
 31
0.0
  0
LINE
  5
D9
100
AcDbEntity
  8
MASSLINIEN
390
0
 62
       172
100
AcDbLine
 10
138.5542957701
 20
174.326118339
 30
0.0
 11
138.5556885412
 21
38.7769533339
 31
0.0
  0
SOLID
  5
DA
100
AcDbEntity
  8
MASSGRENZEN
390
0
100
AcDbTrace
 10
122.555667992
 20
40.7767889334
 30
0.0
 11
125.5299985524
 21
41.1683980714
 31
0.0
 12
125.5300065994
 22
40.3852409181
 32
0.0
 13
125.5300065994
 23
40.3852409181
 33
0.0
  0
SOLID
  5
DB
100
AcDbEntity
  8
MASSGRENZEN
390
0
100
AcDbTrace
 10
138.5556679911
 20
40.7769533338
 30
0.0
 11
135.5813374306
 21
40.3853441958
 31
0.0
 12
135.5813293837
 22
41.1685013491
 32
0.0
 13
135.5813293837
 23
41.1685013491
 33
0.0
  0
MTEXT
  5
DC
100
AcDbEntity
  8
MASSTEXTE
390
0
 62
       212
100
AcDbMText
 10
130.5556427561
 20
43.2328711335
 30
0.0
 40
2.0
 41
0.0
 71
         5
 72
         1
  1
\W1.135145;\A1;16
  7
Arial
 11
0.9999999999
 21
0.000010275
 31
0.0
 73
         0
 44
0.0
  0
ENDBLK
  5
DD
100
AcDbEntity
  8
0
390
0
100
AcDbBlockEnd
  0
BLOCK
  5
DF
100
AcDbEntity
  8
BEMASSUNG
390
0
100
AcDbBlockBegin
  2
D207217664
 70
         0
 10
0.0
 20
0.0
 30
0.0
  3
D207217664
  1

  0
LINE
  5
E0
100
AcDbEntity
  8
MASSLINIEN
390
0
 62
       172
100
AcDbLine
 10
43.8701957642
 20
100.2160550314
 30
0.0
 11
46.1192288215
 21
97.6661824254
 31
0.0
  0
LINE
  5
E1
100
AcDbEntity
  8
MASSLINIEN
390
0
 62
       172
100
AcDbLine
 10
39.3513101525
 20
96.2303174305
 30
0.0
 11
45.3701208265
 21
101.5390156534
 31
0.0
  0
LINE
  5
E2
100
AcDbEntity
  8
MASSLINIEN
390
0
 62
       172
100
AcDbLine
 10
41.6003432098
 20
93.6804448245
 30
0.0
 11
47.6191538839
 21
98.9891430474
 31
0.0
  0
LINE
  5
E3
100
AcDbEntity
  8
MASSLINIEN
390
0
 62
       172
100
AcDbLine
 10
43.8701957642
 20
100.2160550314
 30
0.0
 11
36.8998085834
 21
108.1188287444
 31
0.0
  0
LINE
  5
E4
100
AcDbEntity
  8
MASSLINIEN
390
0
 62
       172
100
AcDbLine
 10
46.1192288215
 20
97.6661824254
 30
0.0
 11
50.1136895809
 21
93.1374068111
 31
0.0
  0
SOLID
  5
E5
100
AcDbEntity
  8
MASSGRENZEN
390
0
100
AcDbTrace
 10
43.8701957642
 20
100.2160550314
 30
0.0
 11
41.609062738
 21
102.187673006
 31
0.0
 12
42.196401259
 22
102.7057160433
 32
0.0
 13
42.196401259
 23
102.7057160433
 33
0.0
  0
SOLID
  5
E6
100
AcDbEntity
  8
MASSGRENZEN
390
0
100
AcDbTrace
 10
46.1192288215
 20
97.6661824254
 30
0.0
 11
48.3803618477
 21
95.6945644508
 31
0.0
 12
47.7930233267
 22
95.1765214135
 32
0.0
 13
47.7930233267
 23
95.1765214135
 33
0.0
  0
MTEXT
  5
E7
100
AcDbEntity
  8
MASSTEXTE
390
0
 62
       212
100
AcDbMText
 10
40.2594463847
 20
108.0226770249
 30
0.0
 40
2.0
 41
0.0
 71
         5
 72
         1
  1
\W1.135130;\A1;3.4
  7
Arial
 11
0.661480311
 21
-0.7499625312
 31
0.0
 73
         0
 44
0.0
  0
ENDBLK
  5
E8
100
AcDbEntity
  8
0
390
0
100
AcDbBlockEnd
  0
BLOCK
  5
EA
100
AcDbEntity
  8
BEMASSUNG
390
0
100
AcDbBlockBegin
  2
D207217408
 70
         0
 10
0.0
 20
0.0
 30
0.0
  3
D207217408
  1

  0
LINE
  5
EB
100
AcDbEntity
  8
MASSLINIEN
390
0
 62
       172
100
AcDbLine
 10
46.1192288215
 20
97.6661824254
 30
0.0
 11
48.3682618789
 21
95.1163098194
 31
0.0
  0
LINE
  5
EC
100
AcDbEntity
  8
MASSLINIEN
390
0
 62
       172
100
AcDbLine
 10
41.6003432098
 20
93.6804448245
 30
0.0
 11
47.6191538839
 21
98.9891430474
 31
0.0
  0
LINE
  5
ED
100
AcDbEntity
  8
MASSLINIEN
390
0
 62
       172
100
AcDbLine
 10
43.8493762672
 20
91.1305722185
 30
0.0
 11
49.8681869413
 21
96.4392704414
 31
0.0
  0
LINE
  5
EE
100
AcDbEntity
  8
MASSLINIEN
390
0
 62
       172
100
AcDbLine
 10
48.3682618789
 20
95.1163098194
 30
0.0
 11
55.3386490597
 21
87.2135361065
 31
0.0
  0
LINE
  5
EF
100
AcDbEntity
  8
MASSLINIEN
390
0
 62
       172
100
AcDbLine
 10
46.1192288215
 20
97.6661824254
 30
0.0
 11
42.1247680621
 21
102.1949580398
 31
0.0
  0
SOLID
  5
F0
100
AcDbEntity
  8
MASSGRENZEN
390
0
100
AcDbTrace
 10
46.1192288215
 20
97.6661824254
 30
0.0
 11
43.8580957953
 21
99.6378004
 31
0.0
 12
44.4454343163
 22
100.1558434373
 32
0.0
 13
44.4454343163
 23
100.1558434373
 33
0.0
  0
SOLID
  5
F1
100
AcDbEntity
  8
MASSGRENZEN
390
0
100
AcDbTrace
 10
48.3682618789
 20
95.1163098194
 30
0.0
 11
50.6293949051
 21
93.1446918448
 31
0.0
 12
50.0420563841
 22
92.6266488075
 32
0.0
 13
50.0420563841
 23
92.6266488075
 33
0.0
  0
MTEXT
  5
F2
100
AcDbEntity
  8
MASSTEXTE
390
0
 62
       212
100
AcDbMText
 10
55.6628272116
 20
90.5588791135
 30
0.0
 40
2.0
 41
0.0
 71
         5
 72
         1
  1
\W1.135130;\A1;3.4
  7
Arial
 11
0.661480311
 21
-0.7499625312
 31
0.0
 73
         0
 44
0.0
  0
ENDBLK
  5
F3
100
AcDbEntity
  8
0
390
0
100
AcDbBlockEnd
  0
BLOCK
  5
F5
100
AcDbEntity
  8
BEMASSUNG
390
0
100
AcDbBlockBegin
  2
D110842112
 70
         0
 10
0.0
 20
0.0
 30
0.0
  3
D110842112
  1

  0
LINE
  5
F6
100
AcDbEntity
  8
MASSLINIEN
390
0
 62
       172
100
AcDbLine
 10
103.4687416497
 20
264.1921277905
 30
0.0
 11
103.4687416497
 21
189.1874677315
 31
0.0
  0
LINE
  5
F7
100
AcDbEntity
  8
MASSLINIEN
390
0
 62
       172
100
AcDbLine
 10
99.2760058966
 20
264.1921277905
 30
0.0
 11
105.4687416497
 21
264.1921277905
 31
0.0
  0
LINE
  5
F8
100
AcDbEntity
  8
MASSLINIEN
390
0
 62
       172
100
AcDbLine
 10
99.2760058966
 20
189.1874677315
 30
0.0
 11
105.4687416497
 21
189.1874677315
 31
0.0
  0
SOLID
  5
F9
100
AcDbEntity
  8
MASSGRENZEN
390
0
100
AcDbTrace
 10
103.4687416497
 20
264.1921277905
 30
0.0
 11
103.8603202264
 21
261.2177932063
 31
0.0
 12
103.0771630731
 22
261.2177932063
 32
0.0
 13
103.0771630731
 23
261.2177932063
 33
0.0
  0
SOLID
  5
FA
100
AcDbEntity
  8
MASSGRENZEN
390
0
100
AcDbTrace
 10
103.4687416497
 20
189.1874677315
 30
0.0
 11
103.0771630731
 21
192.1618023157
 31
0.0
 12
103.8603202264
 22
192.1618023157
 32
0.0
 13
103.8603202264
 23
192.1618023157
 33
0.0
  0
MTEXT
  5
FB
100
AcDbEntity
  8
MASSTEXTE
390
0
 62
       212
100
AcDbMText
 10
101.0127416497
 20
226.689797761
 30
0.0
 40
2.0
 41
0.0
 71
         5
 72
         1
  1
\W1.135145;\A1;75
  7
Arial
 11
0.0
 21
1.0
 31
0.0
 73
         0
 44
0.0
  0
ENDBLK
  5
FC
100
AcDbEntity
  8
0
390
0
100
AcDbBlockEnd
  0
BLOCK
  5
FE
100
AcDbEntity
  8
BEMASSUNG
390
0
100
AcDbBlockBegin
  2
D110841344
 70
         0
 10
0.0
 20
0.0
 30
0.0
  3
D110841344
  1

  0
LINE
  5
FF
100
AcDbEntity
  8
MASSLINIEN
390
0
 62
       172
100
AcDbLine
 10
174.8194393828
 20
269.6344228708
 30
0.0
 11
174.8194393828
 21
229.6387763411
 31
0.0
  0
LINE
  5
100
100
AcDbEntity
  8
MASSLINIEN
390
0
 62
       172
100
AcDbLine
 10
170.0342189541
 20
269.6344228708
 30
0.0
 11
176.8194393828
 21
269.6344228708
 31
0.0
  0
LINE
  5
101
100
AcDbEntity
  8
MASSLINIEN
390
0
 62
       172
100
AcDbLine
 10
170.0342189541
 20
229.6387763411
 30
0.0
 11
176.8194393828
 21
229.6387763411
 31
0.0
  0
SOLID
  5
102
100
AcDbEntity
  8
MASSGRENZEN
390
0
100
AcDbTrace
 10
174.8194393828
 20
269.6344228708
 30
0.0
 11
175.2110179594
 21
266.6600882867
 31
0.0
 12
174.4278608061
 22
266.6600882867
 32
0.0
 13
174.4278608061
 23
266.6600882867
 33
0.0
  0
SOLID
  5
103
100
AcDbEntity
  8
MASSGRENZEN
390
0
100
AcDbTrace
 10
174.8194393828
 20
229.6387763411
 30
0.0
 11
174.4278608061
 21
232.6131109252
 31
0.0
 12
175.2110179594
 22
232.6131109252
 32
0.0
 13
175.2110179594
 23
232.6131109252
 33
0.0
  0
MTEXT
  5
104
100
AcDbEntity
  8
MASSTEXTE
390
0
 62
       212
100
AcDbMText
 10
172.3634393828
 20
249.636599606
 30
0.0
 40
2.0
 41
0.0
 71
         5
 72
         1
  1
\W1.135145;\A1;40
  7
Arial
 11
0.0
 21
1.0
 31
0.0
 73
         0
 44
0.0
  0
ENDBLK
  5
105
100
AcDbEntity
  8
0
390
0
100
AcDbBlockEnd
  0
BLOCK
  5
107
100
AcDbEntity
  8
BEMASSUNG
390
0
100
AcDbBlockBegin
  2
D110841856
 70
         0
 10
0.0
 20
0.0
 30
0.0
  3
D110841856
  1

  0
LINE
  5
108
100
AcDbEntity
  8
MASSLINIEN
390
0
 62
       172
100
AcDbLine
 10
174.7932826815
 20
218.0736792022
 30
0.0
 11
174.7932826815
 21
128.0709752415
 31
0.0
  0
LINE
  5
109
100
AcDbEntity
  8
MASSLINIEN
390
0
 62
       172
100
AcDbLine
 10
170.0342189541
 20
218.0736792022
 30
0.0
 11
176.7932826815
 21
218.0736792022
 31
0.0
  0
LINE
  5
10A
100
AcDbEntity
  8
MASSLINIEN
390
0
 62
       172
100
AcDbLine
 10
170.0342189541
 20
128.0709752415
 30
0.0
 11
176.7932826815
 21
128.0709752415
 31
0.0
  0
SOLID
  5
10B
100
AcDbEntity
  8
MASSGRENZEN
390
0
100
AcDbTrace
 10
174.7932826815
 20
218.0736792022
 30
0.0
 11
175.1848612581
 21
215.0993446181
 31
0.0
 12
174.4017041048
 22
215.0993446181
 32
0.0
 13
174.4017041048
 23
215.0993446181
 33
0.0
  0
SOLID
  5
10C
100
AcDbEntity
  8
MASSGRENZEN
390
0
100
AcDbTrace
 10
174.7932826815
 20
128.0709752415
 30
0.0
 11
174.4017041048
 21
131.0453098257
 31
0.0
 12
175.1848612581
 22
131.0453098257
 32
0.0
 13
175.1848612581
 23
131.0453098257
 33
0.0
  0
MTEXT
  5
10D
100
AcDbEntity
  8
MASSTEXTE
390
0
 62
       212
100
AcDbMText
 10
172.3372826815
 20
173.0723272219
 30
0.0
 40
2.0
 41
0.0
 71
         5
 72
         1
  1
\W1.135145;\A1;90
  7
Arial
 11
0.0
 21
1.0
 31
0.0
 73
         0
 44
0.0
  0
ENDBLK
  5
10E
100
AcDbEntity
  8
0
390
0
100
AcDbBlockEnd
  0
BLOCK
  5
110
100
AcDbEntity
  8
BEMASSUNG
390
0
100
AcDbBlockBegin
  2
D110839808
 70
         0
 10
0.0
 20
0.0
 30
0.0
  3
D110839808
  1

  0
LINE
  5
111
100
AcDbEntity
  8
MASSLINIEN
390
0
 62
       172
100
AcDbLine
 10
101.3376242916
 20
174.8859539386
 30
0.0
 11
101.3376242916
 21
46.8901184346
 31
0.0
  0
LINE
  5
112
100
AcDbEntity
  8
MASSLINIEN
390
0
 62
       172
100
AcDbLine
 10
122.554295771
 20
174.8859539386
 30
0.0
 11
99.3376242916
 21
174.8859539386
 31
0.0
  0
LINE
  5
113
100
AcDbEntity
  8
MASSLINIEN
390
0
 62
       172
100
AcDbLine
 10
122.5556051773
 20
46.8901184346
 30
0.0
 11
99.3376242916
 21
46.8901184346
 31
0.0
  0
SOLID
  5
114
100
AcDbEntity
  8
MASSGRENZEN
390
0
100
AcDbTrace
 10
101.3376242916
 20
174.8859539386
 30
0.0
 11
101.7292028682
 21
171.9116193545
 31
0.0
 12
100.9460457149
 22
171.9116193545
 32
0.0
 13
100.9460457149
 23
171.9116193545
 33
0.0
  0
SOLID
  5
115
100
AcDbEntity
  8
MASSGRENZEN
390
0
100
AcDbTrace
 10
101.3376242916
 20
46.8901184346
 30
0.0
 11
100.9460457149
 21
49.8644530187
 31
0.0
 12
101.7292028682
 22
49.8644530187
 32
0.0
 13
101.7292028682
 23
49.8644530187
 33
0.0
  0
MTEXT
  5
116
100
AcDbEntity
  8
MASSTEXTE
390
0
 62
       212
100
AcDbMText
 10
98.8816242916
 20
110.8880361866
 30
0.0
 40
2.0
 41
0.0
 71
         5
 72
         1
  1
\W1.135145;\A1;128
  7
Arial
 11
0.0
 21
1.0
 31
0.0
 73
         0
 44
0.0
  0
ENDBLK
  5
117
100
AcDbEntity
  8
0
390
0
100
AcDbBlockEnd
  0
BLOCK
  5
119
100
AcDbEntity
  8
BEMASSUNG
390
0
100
AcDbBlockBegin
  2
D110840064
 70
         0
 10
0.0
 20
0.0
 30
0.0
  3
D110840064
  1

  0
LINE
  5
11A
100
AcDbEntity
  8
MASSLINIEN
390
0
 62
       172
100
AcDbLine
 10
178.0340410948
 20
109.6868165167
 30
0.0
 11
178.0340410948
 21
96.6837663247
 31
0.0
  0
LINE
  5
11B
100
AcDbEntity
  8
MASSLINIEN
390
0
 62
       172
100
AcDbLine
 10
170.0342189542
 20
109.6868165167
 30
0.0
 11
180.0340410948
 21
109.6868165167
 31
0.0
  0
LINE
  5
11C
100
AcDbEntity
  8
MASSLINIEN
390
0
 62
       172
100
AcDbLine
 10
170.0342189539
 20
96.6837663247
 30
0.0
 11
180.0340410948
 21
96.6837663247
 31
0.0
  0
SOLID
  5
11D
100
AcDbEntity
  8
MASSGRENZEN
390
0
100
AcDbTrace
 10
178.0340410948
 20
109.6868165167
 30
0.0
 11
178.4256196714
 21
106.7124819326
 31
0.0
 12
177.6424625181
 22
106.7124819326
 32
0.0
 13
177.6424625181
 23
106.7124819326
 33
0.0
  0
SOLID
  5
11E
100
AcDbEntity
  8
MASSGRENZEN
390
0
100
AcDbTrace
 10
178.0340410948
 20
96.6837663247
 30
0.0
 11
177.6424625181
 21
99.6581009088
 31
0.0
 12
178.4256196714
 22
99.6581009088
 32
0.0
 13
178.4256196714
 23
99.6581009088
 33
0.0
  0
MTEXT
  5
11F
100
AcDbEntity
  8
MASSTEXTE
390
0
 62
       212
100
AcDbMText
 10
175.5780410948
 20
103.1852914207
 30
0.0
 40
2.0
 41
0.0
 71
         5
 72
         1
  1
\W1.135146;\A1;13
  7
Arial
 11
0.0
 21
1.0
 31
0.0
 73
         0
 44
0.0
  0
ENDBLK
  5
120
100
AcDbEntity
  8
0
390
0
100
AcDbBlockEnd
  0
BLOCK
  5
122
100
AcDbEntity
  8
BEMASSUNG
390
0
100
AcDbBlockBegin
  2
D110839552
 70
         0
 10
0.0
 20
0.0
 30
0.0
  3
D110839552
  1

  0
LINE
  5
123
100
AcDbEntity
  8
MASSLINIEN
390
0
 62
       172
100
AcDbLine
 10
174.3611815597
 20
76.1098899202
 30
0.0
 11
174.3611815597
 21
42.1098899202
 31
0.0
  0
LINE
  5
124
100
AcDbEntity
  8
MASSLINIEN
390
0
 62
       172
100
AcDbLine
 10
170.0342189541
 20
76.1098899202
 30
0.0
 11
176.3611815597
 21
76.1098899202
 31
0.0
  0
LINE
  5
125
100
AcDbEntity
  8
MASSLINIEN
390
0
 62
       172
100
AcDbLine
 10
170.0342189539
 20
42.1098899202
 30
0.0
 11
176.3611815597
 21
42.1098899202
 31
0.0
  0
SOLID
  5
126
100
AcDbEntity
  8
MASSGRENZEN
390
0
100
AcDbTrace
 10
174.3611815597
 20
76.1098899202
 30
0.0
 11
174.7527601364
 21
73.1355553361
 31
0.0
 12
173.969602983
 22
73.1355553361
 32
0.0
 13
173.969602983
 23
73.1355553361
 33
0.0
  0
SOLID
  5
127
100
AcDbEntity
  8
MASSGRENZEN
390
0
100
AcDbTrace
 10
174.3611815597
 20
42.1098899202
 30
0.0
 11
173.969602983
 21
45.0842245043
 31
0.0
 12
174.7527601364
 22
45.0842245043
 32
0.0
 13
174.7527601364
 23
45.0842245043
 33
0.0
  0
MTEXT
  5
128
100
AcDbEntity
  8
MASSTEXTE
390
0
 62
       212
100
AcDbMText
 10
171.9051815597
 20
59.1098899202
 30
0.0
 40
2.0
 41
0.0
 71
         5
 72
         1
  1
\W1.135146;\A1;34
  7
Arial
 11
0.0
 21
1.0
 31
0.0
 73
         0
 44
0.0
  0
ENDBLK
  5
129
100
AcDbEntity
  8
0
390
0
100
AcDbBlockEnd
  0
BLOCK
  5
12B
100
AcDbEntity
  8
BEMASSUNG
390
0
100
AcDbBlockBegin
  2
D110843648
 70
         0
 10
0.0
 20
0.0
 30
0.0
  3
D110843648
  1

  0
LINE
  5
12C
100
AcDbEntity
  8
MASSLINIEN
390
0
 62
       172
100
AcDbLine
 10
56.8312087488
 20
175.8785407665
 30
0.0
 11
56.8312087488
 21
112.8785407665
 31
0.0
  0
LINE
  5
12D
100
AcDbEntity
  8
MASSLINIEN
390
0
 62
       172
100
AcDbLine
 10
35.0556438865
 20
175.8785407665
 30
0.0
 11
58.8312087488
 21
175.8785407665
 31
0.0
  0
LINE
  5
12E
100
AcDbEntity
  8
MASSLINIEN
390
0
 62
       172
100
AcDbLine
 10
35.0556438865
 20
112.8785407665
 30
0.0
 11
58.8312087488
 21
112.8785407665
 31
0.0
  0
SOLID
  5
12F
100
AcDbEntity
  8
MASSGRENZEN
390
0
100
AcDbTrace
 10
56.8312087488
 20
175.8785407665
 30
0.0
 11
57.2227873254
 21
172.9042061824
 31
0.0
 12
56.4396301721
 22
172.9042061824
 32
0.0
 13
56.4396301721
 23
172.9042061824
 33
0.0
  0
SOLID
  5
130
100
AcDbEntity
  8
MASSGRENZEN
390
0
100
AcDbTrace
 10
56.8312087488
 20
112.8785407665
 30
0.0
 11
56.4396301721
 21
115.8528753506
 31
0.0
 12
57.2227873254
 22
115.8528753506
 32
0.0
 13
57.2227873254
 23
115.8528753506
 33
0.0
  0
MTEXT
  5
131
100
AcDbEntity
  8
MASSTEXTE
390
0
 62
       212
100
AcDbMText
 10
54.3752087488
 20
144.3785407665
 30
0.0
 40
2.0
 41
0.0
 71
         5
 72
         1
  1
\W1.135146;\A1;63
  7
Arial
 11
0.0
 21
1.0
 31
0.0
 73
         0
 44
0.0
  0
ENDBLK
  5
132
100
AcDbEntity
  8
0
390
0
100
AcDbBlockEnd
  0
BLOCK
  5
134
100
AcDbEntity
  8
BEMASSUNG
390
0
100
AcDbBlockBegin
  2
D110840320
 70
         0
 10
0.0
 20
0.0
 30
0.0
  3
D110840320
  1

  0
LINE
  5
135
100
AcDbEntity
  8
MASSLINIEN
390
0
 62
       172
100
AcDbLine
 10
144.7542519815
 20
124.4390873652
 30
0.0
 11
155.7570425542
 21
124.4390873652
 31
0.0
  0
LINE
  5
136
100
AcDbEntity
  8
MASSLINIEN
390
0
 62
       172
100
AcDbLine
 10
144.7542519815
 20
130.5321788637
 30
0.0
 11
144.7542519815
 21
122.4390873652
 31
0.0
  0
LINE
  5
137
100
AcDbEntity
  8
MASSLINIEN
390
0
 62
       172
100
AcDbLine
 10
155.7570425542
 20
130.4576184657
 30
0.0
 11
155.7570425542
 21
122.4390873652
 31
0.0
  0
SOLID
  5
138
100
AcDbEntity
  8
MASSGRENZEN
390
0
100
AcDbTrace
 10
144.7542519815
 20
124.4390873652
 30
0.0
 11
147.7285865657
 21
124.8306659418
 31
0.0
 12
147.7285865657
 22
124.0475087885
 32
0.0
 13
147.7285865657
 23
124.0475087885
 33
0.0
  0
SOLID
  5
139
100
AcDbEntity
  8
MASSGRENZEN
390
0
100
AcDbTrace
 10
155.7570425542
 20
124.4390873652
 30
0.0
 11
152.78270797
 21
124.0475087885
 31
0.0
 12
152.78270797
 22
124.8306659418
 32
0.0
 13
152.78270797
 23
124.8306659418
 33
0.0
  0
MTEXT
  5
13A
100
AcDbEntity
  8
MASSTEXTE
390
0
 62
       212
100
AcDbMText
 10
150.2556472679
 20
126.8950873652
 30
0.0
 40
2.0
 41
0.0
 71
         5
 72
         1
  1
\W1.135145;\A1;11
  7
Arial
 73
         0
 44
0.0
  0
ENDBLK
  5
13B
100
AcDbEntity
  8
0
390
0
100
AcDbBlockEnd
  0
BLOCK
  5
13D
100
AcDbEntity
  8
BEMASSUNG
390
0
100
AcDbBlockBegin
  2
D110843904
 70
         0
 10
0.0
 20
0.0
 30
0.0
  3
D110843904
  1

  0
LINE
  5
13E
100
AcDbEntity
  8
MASSLINIEN
390
0
 62
       172
100
AcDbLine
 10
161.0417336703
 20
130.4576184657
 30
0.0
 11
161.0417336703
 21
140.4536585258
 31
0.0
  0
LINE
  5
13F
100
AcDbEntity
  8
MASSLINIEN
390
0
 62
       172
100
AcDbLine
 10
155.7570425542
 20
130.4576184657
 30
0.0
 11
163.0417336703
 21
130.4576184657
 31
0.0
  0
LINE
  5
140
100
AcDbEntity
  8
MASSLINIEN
390
0
 62
       172
100
AcDbLine
 10
155.0383373514
 20
140.4536585258
 30
0.0
 11
163.0417336703
 21
140.4536585258
 31
0.0
  0
SOLID
  5
141
100
AcDbEntity
  8
MASSGRENZEN
390
0
100
AcDbTrace
 10
161.0417336703
 20
130.4576184657
 30
0.0
 11
160.6501550936
 21
133.4319530498
 31
0.0
 12
161.433312247
 22
133.4319530498
 32
0.0
 13
161.433312247
 23
133.4319530498
 33
0.0
  0
SOLID
  5
142
100
AcDbEntity
  8
MASSGRENZEN
390
0
100
AcDbTrace
 10
161.0417336703
 20
140.4536585258
 30
0.0
 11
161.433312247
 21
137.4793239417
 31
0.0
 12
160.6501550936
 22
137.4793239417
 32
0.0
 13
160.6501550936
 23
137.4793239417
 33
0.0
  0
MTEXT
  5
143
100
AcDbEntity
  8
MASSTEXTE
390
0
 62
       212
100
AcDbMText
 10
158.5857336703
 20
135.4556384957
 30
0.0
 40
2.0
 41
0.0
 71
         5
 72
         1
  1
\W1.135145;\A1;10
  7
Arial
 11
0.0
 21
1.0
 31
0.0
 73
         0
 44
0.0
  0
ENDBLK
  5
144
100
AcDbEntity
  8
0
390
0
100
AcDbBlockEnd
  0
BLOCK
  5
146
100
AcDbEntity
  8
BEMASSUNG
390
0
100
AcDbBlockBegin
  2
D110840576
 70
         0
 10
0.0
 20
0.0
 30
0.0
  3
D110840576
  1

  0
LINE
  5
147
100
AcDbEntity
  8
MASSLINIEN
390
0
 62
       172
100
AcDbLine
 10
204.5951240768
 20
134.8258353089
 30
0.0
 11
204.5951240768
 21
156.3225741635
 31
0.0
  0
LINE
  5
148
100
AcDbEntity
  8
MASSLINIEN
390
0
 62
       172
100
AcDbLine
 10
179.0397120234
 20
134.8258353089
 30
0.0
 11
206.5951240768
 21
134.8258353089
 31
0.0
  0
LINE
  5
149
100
AcDbEntity
  8
MASSLINIEN
390
0
 62
       172
100
AcDbLine
 10
194.8144816735
 20
156.3225741635
 30
0.0
 11
206.5951240768
 21
156.3225741635
 31
0.0
  0
SOLID
  5
14A
100
AcDbEntity
  8
MASSGRENZEN
390
0
100
AcDbTrace
 10
204.5951240768
 20
134.8258353089
 30
0.0
 11
204.2035455002
 21
137.800169893
 31
0.0
 12
204.9867026535
 22
137.800169893
 32
0.0
 13
204.9867026535
 23
137.800169893
 33
0.0
  0
SOLID
  5
14B
100
AcDbEntity
  8
MASSGRENZEN
390
0
100
AcDbTrace
 10
204.5951240768
 20
156.3225741635
 30
0.0
 11
204.9867026535
 21
153.3482395794
 31
0.0
 12
204.2035455002
 22
153.3482395794
 32
0.0
 13
204.2035455002
 23
153.3482395794
 33
0.0
  0
MTEXT
  5
14C
100
AcDbEntity
  8
MASSTEXTE
390
0
 62
       212
100
AcDbMText
 10
202.1391240768
 20
145.5742047362
 30
0.0
 40
2.0
 41
0.0
 71
         5
 72
         1
  1
\W1.135134;\A1;21.5
  7
Arial
 11
0.0
 21
1.0
 31
0.0
 73
         0
 44
0.0
  0
ENDBLK
  5
14D
100
AcDbEntity
  8
0
390
0
100
AcDbBlockEnd
  0
BLOCK
  5
14F
100
AcDbEntity
  8
BEMASSUNG
390
0
100
AcDbBlockBegin
  2
D110843136
 70
         0
 10
0.0
 20
0.0
 30
0.0
  3
D110843136
  1

  0
LINE
  5
150
100
AcDbEntity
  8
MASSLINIEN
390
0
 62
       172
100
AcDbLine
 10
20.0
 20
10.8271537831
 30
0.0
 11
20.0
 21
30.8268529554
 31
0.0
  0
LINE
  5
151
100
AcDbEntity
  8
MASSLINIEN
390
0
 62
       172
100
AcDbLine
 10
32.7779494372
 20
10.8271537831
 30
0.0
 11
18.0
 21
10.8271537831
 31
0.0
  0
LINE
  5
152
100
AcDbEntity
  8
MASSLINIEN
390
0
 62
       172
100
AcDbLine
 10
32.7779494371
 20
30.8268529554
 30
0.0
 11
18.0
 21
30.8268529554
 31
0.0
  0
SOLID
  5
153
100
AcDbEntity
  8
MASSGRENZEN
390
0
100
AcDbTrace
 10
20.0
 20
10.8271537831
 30
0.0
 11
19.6084214233
 21
13.8014883672
 31
0.0
 12
20.3915785767
 22
13.8014883672
 32
0.0
 13
20.3915785767
 23
13.8014883672
 33
0.0
  0
SOLID
  5
154
100
AcDbEntity
  8
MASSGRENZEN
390
0
100
AcDbTrace
 10
20.0
 20
30.8268529554
 30
0.0
 11
20.3915785767
 21
27.8525183712
 31
0.0
 12
19.6084214233
 22
27.8525183712
 32
0.0
 13
19.6084214233
 23
27.8525183712
 33
0.0
  0
MTEXT
  5
155
100
AcDbEntity
  8
MASSTEXTE
390
0
 62
       212
100
AcDbMText
 10
17.544
 20
20.8270033692
 30
0.0
 40
2.0
 41
0.0
 71
         5
 72
         1
  1
\W1.135145;\A1;20
  7
Arial
 11
0.0
 21
1.0
 31
0.0
 73
         0
 44
0.0
  0
ENDBLK
  5
156
100
AcDbEntity
  8
0
390
0
100
AcDbBlockEnd
  0
ENDSEC
  0
SECTION
  2
ENTITIES
  0
TEXT
  5
157
100
AcDbEntity
  8
BESCHRIFTUNG
390
0
100
AcDbText
 10
137.6929117117
 20
6.9230888889
 30
0.0
 40
3.3
  1
3201 Pv Einzelhebel JE
 41
1.1437343139
  7
Arial
 11
137.6929117117
 21
10.2230888889
 31
0.0
100
AcDbText
 73
         3
  0
TEXT
  5
158
100
AcDbEntity
  8
BESCHRIFTUNG
390
0
100
AcDbText
 10
138.2656987651
 20
29.3230888889
 30
0.0
 40
3.3
  1
2026-06-28
 41
1.1302027779
  7
Arial
 11
138.2656987651
 21
32.6230888889
 31
0.0
100
AcDbText
 73
         3
  0
ARC
  5
159
100
AcDbEntity
  8
3201 HEBELBOCK
390
0
100
AcDbCircle
 10
124.2760058966
 20
254.1874677315
 30
0.0
 40
9.0
100
AcDbArc
 50
8.7872210475
 51
171.2127789525
  0
ARC
  5
15A
100
AcDbEntity
  8
3201 HEBELBOCK
390
0
100
AcDbCircle
 10
36.8900423181
 20
231.0088732381
 30
0.0
 40
1.5
100
AcDbArc
 50
351.2127789525
 51
394.8609353441
  0
LINE
  5
15B
100
AcDbEntity
  8
3201 HEBELBOCK
390
0
100
AcDbLine
 10
31.9657743597
 20
189.334068016
 30
0.0
 11
69.9657743597
 21
189.334068016
 31
0.0
  0
LINE
  5
15C
100
AcDbEntity
  8
3201 HEBELBOCK
390
0
100
AcDbLine
 10
105.2760058966
 20
190.1874677315
 30
0.0
 11
143.2760058966
 21
190.1874677315
 31
0.0
  0
LINE
  5
15D
100
AcDbEntity
  8
3201 HEBELKLINKE
390
0
100
AcDbLine
 10
185.0343319907
 20
206.0725741635
 30
0.0
 11
185.0343319907
 21
130.9353172477
 31
0.0
  0
LINE
  5
15E
100
AcDbEntity
  8
3201 HEBELKLINKE
390
0
  6
DASHED
100
AcDbLine
 10
186.0343319907
 20
130.9353172477
 30
0.0
 11
186.0343319907
 21
206.0725741635
 31
0.0
  0
LINE
  5
15F
100
AcDbEntity
  8
3201 HEBELKLINKE
390
0
100
AcDbLine
 10
185.0343319907
 20
130.9353172477
 30
0.0
 11
186.0343319907
 21
130.9353172477
 31
0.0
  0
LINE
  5
160
100
AcDbEntity
  8
3201 HEBELKLINKE
390
0
100
AcDbLine
 10
194.8144816735
 20
145.8466469816
 30
0.0
 11
194.8144816735
 21
153.3225741635
 31
0.0
  0
LINE
  5
161
100
AcDbEntity
  8
3201 HEBELKLINKE
390
0
100
AcDbLine
 10
185.0343319907
 20
145.0948236435
 30
0.0
 11
186.0343319907
 21
145.0948236435
 31
0.0
  0
LINE
  5
162
100
AcDbEntity
  8
3201 HEBELKLINKE
390
0
100
AcDbLine
 10
198.0644816735
 20
156.3225741635
 30
0.0
 11
198.0644816735
 21
153.3225741635
 31
0.0
  0
LINE
  5
163
100
AcDbEntity
  8
3201 HEBELKLINKE
390
0
100
AcDbLine
 10
190.5644816735
 20
143.8648394345
 30
0.0
 11
190.5644816735
 21
155.0725741635
 31
0.0
  0
LINE
  5
164
100
AcDbEntity
  8
3201 HEBELSCHILDCHEN
390
0
100
AcDbLine
 10
173.0342189541
 20
108.6868165167
 30
0.0
 11
173.0342189541
 21
97.6837663247
 31
0.0
  0
LINE
  5
165
100
AcDbEntity
  8
3201 HEBELSCHILDCHEN
390
0
100
AcDbLine
 10
185.0342189541
 20
108.6868165167
 30
0.0
 11
173.0342189541
 21
108.6868165167
 31
0.0
  0
LINE
  5
166
100
AcDbEntity
  8
3201 HEBELSCHILDCHEN
390
0
100
AcDbLine
 10
173.0342189541
 20
97.6837663247
 30
0.0
 11
185.0342189541
 21
97.6837663247
 31
0.0
  0
LINE
  5
167
100
AcDbEntity
  8
3201 HEBELKLINKE
390
0
100
AcDbLine
 10
189.0644816735
 20
201.8453172477
 30
0.0
 11
186.0343319907
 21
201.8453172477
 31
0.0
  0
LINE
  5
168
100
AcDbEntity
  8
3201 HANDFALLE
390
0
100
AcDbLine
 10
188.7842189541
 20
264.887333518
 30
0.0
 11
188.7842189541
 21
256.887333518
 31
0.0
  0
LINE
  5
169
100
AcDbEntity
  8
3201 HEBELSCHILDCHEN
390
0
  6
DASHED
100
AcDbLine
 10
184.0342189542
 20
108.6868062417
 30
0.0
 11
184.0342189542
 21
97.6837560497
 31
0.0
  0
LINE
  5
16A
100
AcDbEntity
  8
3201 HANDFALLE
390
0
100
AcDbLine
 10
185.0342189541
 20
230.637333518
 30
0.0
 11
193.2842189541
 21
230.637333518
 31
0.0
  0
LINE
  5
16B
100
AcDbEntity
  8
3201 HANDFALLE
390
0
100
AcDbLine
 10
193.2842189541
 20
264.887333518
 30
0.0
 11
193.2842189541
 21
230.637333518
 31
0.0
  0
LINE
  5
16C
100
AcDbEntity
  8
3201 HANDFALLE
390
0
100
AcDbLine
 10
185.0342189541
 20
253.137333518
 30
0.0
 11
185.0342189541
 21
230.637333518
 31
0.0
  0
LINE
  5
16D
100
AcDbEntity
  8
3201 HANDFALLE
390
0
  6
DASHED
100
AcDbLine
 10
186.0342189541
 20
254.137333518
 30
0.0
 11
186.0342189541
 21
230.637333518
 31
0.0
  0
LINE
  5
16E
100
AcDbEntity
  8
3201 HANDFALLE
390
0
100
AcDbLine
 10
185.0342189541
 20
253.137333518
 30
0.0
 11
188.7842189541
 21
256.887333518
 31
0.0
  0
LINE
  5
16F
100
AcDbEntity
  8
3201 HEBELKLINKE
390
0
100
AcDbLine
 10
189.0644816735
 20
201.8453172477
 30
0.0
 11
189.0644816735
 21
217.0736792015
 31
0.0
  0
LINE
  5
170
100
AcDbEntity
  8
3201 HEBELBOCK
390
0
100
AcDbLine
 10
34.6224139163
 20
236.8884444244
 30
0.0
 11
38.1208549854
 21
231.8662530711
 31
0.0
  0
LINE
  5
171
100
AcDbEntity
  8
3201 HEBELKLINKE
390
0
100
AcDbLine
 10
186.0343319907
 20
206.0725741635
 30
0.0
 11
185.0343319907
 21
206.0725741635
 31
0.0
  0
LINE
  5
172
100
AcDbEntity
  8
3201 HEBELKLINKE
390
0
100
AcDbLine
 10
189.0644816735
 20
217.0736792015
 30
0.0
 11
194.8144816735
 21
217.0736792015
 31
0.0
  0
LINE
  5
173
100
AcDbEntity
  8
3201 HEBELBOCK
390
0
100
AcDbLine
 10
105.2760058966
 20
190.1874677315
 30
0.0
 11
115.3816435943
 21
255.56235654
 31
0.0
  0
LINE
  5
174
100
AcDbEntity
  8
3201 HEBELBOCK
390
0
100
AcDbLine
 10
143.2760058966
 20
190.1874677315
 30
0.0
 11
133.1703681988
 21
255.56235654
 31
0.0
  0
LINE
  5
175
100
AcDbEntity
  8
3201 HEBELKLINKE
390
0
  6
DASHED
100
AcDbLine
 10
181.0343319907
 20
155.0725741635
 30
0.0
 11
186.0343319907
 21
155.0725741635
 31
0.0
  0
LINE
  5
176
100
AcDbEntity
  8
3201 HEBELKLINKE
390
0
100
AcDbLine
 10
194.8144816735
 20
156.3225741635
 30
0.0
 11
198.0644816735
 21
156.3225741635
 31
0.0
  0
LINE
  5
177
100
AcDbEntity
  8
3201 HEBELKLINKE
390
0
100
AcDbLine
 10
198.0644816735
 20
153.3225741635
 30
0.0
 11
194.8144816735
 21
153.3225741635
 31
0.0
  0
LINE
  5
178
100
AcDbEntity
  8
3201 HEBELKLINKE
390
0
100
AcDbLine
 10
194.8144816735
 20
156.3225741635
 30
0.0
 11
194.8144816735
 21
217.0736792015
 31
0.0
  0
LINE
  5
179
100
AcDbEntity
  8
3201 HEBELROLLE
390
0
100
AcDbLine
 10
74.9782553247
 20
160.4935139255
 30
0.0
 11
70.8606859425
 21
153.6340418286
 31
0.0
  0
LINE
  5
17A
100
AcDbEntity
  8
3201 HEBELROLLE
390
0
100
AcDbLine
 10
76.699082988
 20
159.4595604155
 30
0.0
 11
72.5757510531
 21
152.6035503171
 31
0.0
  0
LINE
  5
17B
100
AcDbEntity
  8
3201 HEBELKLINKE
370
        70
390
0
 62
       175
100
AcDbLine
 10
144.9612882727
 20
130.530709453
 30
0.0
 11
155.7570425542
 21
130.4576184657
 31
0.0
  0
LINE
  5
17C
100
AcDbEntity
  8
3201 HEBELKLINKE
370
        70
390
0
 62
       175
100
AcDbLine
 10
155.7570425542
 20
130.4576184657
 30
0.0
 11
155.0383373514
 21
140.4536585258
 31
0.0
  0
LINE
  5
17D
100
AcDbEntity
  8
3201 HEBELKLINKE
370
        70
390
0
 62
       175
100
AcDbLine
 10
155.0383373514
 20
140.4536585258
 30
0.0
 11
157.3869669662
 21
138.5506289062
 31
0.0
  0
LINE
  5
17E
100
AcDbEntity
  8
3201 HEBELEISEN
390
0
100
AcDbLine
 10
123.5555949023
 20
47.8901287095
 30
0.0
 11
137.0555949016
 21
47.8902674224
 31
0.0
  0
LINE
  5
17F
100
AcDbEntity
  8
3201 HANDFALLE
390
0
100
AcDbLine
 10
185.0342189541
 20
266.9629800385
 30
0.0
 11
185.0342189541
 21
230.637333518
 31
0.0
  0
LINE
  5
180
100
AcDbEntity
  8
3201 HEBELKLINKE
390
0
100
AcDbLine
 10
185.0349715769
 20
143.8258969108
 30
0.0
 11
184.0189309258
 21
134.2950246271
 31
0.0
  0
LINE
  5
181
100
AcDbEntity
  8
3201 HEBELEISEN
390
0
100
AcDbLine
 10
133.5552385852
 20
82.5681568165
 30
0.0
 11
133.5553638799
 21
70.3740590269
 31
0.0
  0
LINE
  5
182
100
AcDbEntity
  8
3201 HEBELEISEN
390
0
100
AcDbLine
 10
134.8053894012
 20
67.8902443025
 30
0.0
 11
134.8054716014
 21
59.8902468717
 31
0.0
  0
LINE
  5
183
100
AcDbEntity
  8
3201 HEBELEISEN
390
0
100
AcDbLine
 10
137.0553894011
 20
67.8902674213
 30
0.0
 11
137.0555949016
 21
47.8902674224
 31
0.0
  0
LINE
  5
184
100
AcDbEntity
  8
3201 HEBELEISEN
390
0
100
AcDbLine
 10
131.0546906997
 20
135.8902057676
 30
0.0
 11
125.4174022944
 21
135.7834017302
 31
0.0
  0
LINE
  5
185
100
AcDbEntity
  8
3201 HEBELKLINKE
390
0
100
AcDbLine
 10
184.034218954
 20
217.0736792015
 30
0.0
 11
185.034218954
 21
217.0736894765
 31
0.0
  0
LINE
  5
186
100
AcDbEntity
  8
3201 HEBELEISEN
390
0
100
AcDbLine
 10
131.0547215248
 20
132.8902057677
 30
0.0
 11
131.0543362113
 21
170.3902057658
 31
0.0
  0
LINE
  5
187
100
AcDbEntity
  8
3201 HEBELEISEN
390
0
100
AcDbLine
 10
123.5552385857
 20
82.5680540662
 30
0.0
 11
133.5552385852
 21
82.5681568165
 31
0.0
  0
LINE
  5
188
100
AcDbEntity
  8
3201 HEBELEISEN
390
0
100
AcDbLine
 10
126.0546873079
 20
136.2202828552
 30
0.0
 11
126.0543362116
 21
170.3901543906
 31
0.0
  0
LINE
  5
189
100
AcDbEntity
  8
3201 HEBELKLINKE
390
0
100
AcDbLine
 10
177.4423159754
 20
206.0747138609
 30
0.0
 11
174.0315473779
 21
206.0746788151
 31
0.0
  0
LINE
  5
18A
100
AcDbEntity
  8
3201 HEBELEISEN
390
0
100
AcDbLine
 10
125.9045449991
 20
127.650310073
 30
0.0
 11
123.5552385857
 21
82.5680540662
 31
0.0
  0
LINE
  5
18B
100
AcDbEntity
  8
3201 HEBELEISEN
390
0
100
AcDbLine
 10
134.8053894012
 20
67.8902443025
 30
0.0
 11
137.0553894011
 21
67.8902674213
 31
0.0
  0
LINE
  5
18C
100
AcDbEntity
  8
3201 HEBELEISEN
390
0
100
AcDbLine
 10
131.0547215248
 20
132.8902057677
 30
0.0
 11
133.5552385852
 21
82.5681568165
 31
0.0
  0
LINE
  5
18D
100
AcDbEntity
  8
3201 HEBELKLINKE
390
0
100
AcDbLine
 10
177.4378613384
 20
164.0766396882
 30
0.0
 11
177.4418859858
 21
172.0766389394
 31
0.0
  0
LINE
  5
18E
100
AcDbEntity
  8
3201 HEBELKLINKE
390
0
100
AcDbLine
 10
174.0315473779
 20
206.0746788151
 30
0.0
 11
174.0322794621
 21
134.8257838574
 31
0.0
  0
LINE
  5
18F
100
AcDbEntity
  8
3201 HEBELEISEN
390
0
100
AcDbLine
 10
126.0543362116
 20
170.3901543906
 30
0.0
 11
131.0543362113
 21
170.3902057658
 31
0.0
  0
LINE
  5
190
100
AcDbEntity
  8
3201 HEBELKLINKE
390
0
100
AcDbLine
 10
180.6423152864
 20
206.0725393105
 30
0.0
 11
184.0343319907
 21
206.0725741635
 31
0.0
  0
LINE
  5
191
100
AcDbEntity
  8
3201 HEBELKLINKE
390
0
100
AcDbLine
 10
180.6372865562
 20
196.0766726954
 30
0.0
 11
180.6423152864
 21
206.0725393105
 31
0.0
  0
LINE
  5
192
100
AcDbEntity
  8
3201 HEBELKLINKE
390
0
100
AcDbLine
 10
177.4372869612
 20
196.0782825543
 30
0.0
 11
177.4423159754
 21
206.0747138609
 31
0.0
  0
LINE
  5
193
100
AcDbEntity
  8
3201 HEBELKLINKE
390
0
100
AcDbLine
 10
180.6393187674
 20
172.0783145321
 30
0.0
 11
180.6394009676
 21
164.0783145325
 31
0.0
  0
LINE
  5
194
100
AcDbEntity
  8
3201 HEBELEISEN
390
0
100
AcDbLine
 10
123.5555949023
 20
47.8901287095
 30
0.0
 11
123.5552385857
 21
82.5680540662
 31
0.0
  0
LINE
  5
195
100
AcDbEntity
  8
3201 HEBELEISEN
390
0
100
AcDbLine
 10
132.3053882828
 20
67.9990763485
 30
0.0
 11
132.3054716015
 21
59.8902211841
 31
0.0
  0
LINE
  5
196
100
AcDbEntity
  8
3201 HEBELEISEN
390
0
100
AcDbLine
 10
133.5553638799
 20
70.3740590269
 30
0.0
 11
132.3053882828
 21
67.9990763485
 31
0.0
  0
ARC
  5
197
100
AcDbEntity
  8
3201 HEBELKLINKE
390
0
100
AcDbCircle
 10
179.0372867587
 20
196.0774776248
 30
0.0
 40
1.6
100
AcDbArc
 50
179.9711755865
 51
359.9711755865
  0
ARC
  5
198
100
AcDbEntity
  8
3201 HEBELEISEN
390
0
100
AcDbCircle
 10
128.5547317999
 20
131.890181524
 30
0.0
 40
5.0
100
AcDbArc
 50
120.0005887156
 51
237.9920208625
  0
ARC
  5
199
100
AcDbEntity
  8
3201 HEBELEISEN
390
0
100
AcDbCircle
 10
128.5543362115
 20
170.3901800782
 30
0.0
 40
2.5
100
AcDbArc
 50
0.0005887156
 51
180.0005887156
  0
ARC
  5
19A
100
AcDbEntity
  8
3201 HANDFALLE
390
0
100
AcDbCircle
 10
174.0342189541
 20
233.6383916056
 30
0.0
 40
3.0
100
AcDbArc
 50
144.9003481464
 51
269.9944888042
  0
ARC
  5
19B
100
AcDbEntity
  8
3201 HEBELKLINKE
390
0
100
AcDbCircle
 10
179.0393189868
 20
172.0774767226
 30
0.0
 40
1.6
100
AcDbArc
 50
0.0300018446
 51
180.0300018446
  0
ARC
  5
19C
100
AcDbEntity
  8
3201 HEBELKLINKE
390
0
100
AcDbCircle
 10
180.039187997
 20
185.8258449168
 30
0.0
 40
5.0
100
AcDbArc
 50
213.805015263
 51
213.8091857989
  0
CIRCLE
  5
19D
100
AcDbEntity
  8
3201_7L
390
0
100
AcDbCircle
 10
179.0397120234
 20
134.8258353089
 30
0.0
 40
1.2
  0
ARC
  5
19E
100
AcDbEntity
  8
3201 HEBELKLINKE
390
0
100
AcDbCircle
 10
179.039401187
 20
164.077476723
 30
0.0
 40
1.6
100
AcDbArc
 50
180.0300018446
 51
360.0300018446
  0
ARC
  5
19F
100
AcDbEntity
  8
3201 HEBELKLINKE
390
0
100
AcDbCircle
 10
179.0397120234
 20
134.8258353089
 30
0.0
 40
5.0074325616
100
AcDbArc
 50
180.0005887156
 51
353.914953405
  0
ARC
  5
1A0
100
AcDbEntity
  8
3201 HEBELEISEN
390
0
100
AcDbCircle
 10
133.5554716014
 20
59.8902340279
 30
0.0
 40
1.25
100
AcDbArc
 50
180.0005887156
 51
360.0005887156
  0
CIRCLE
  5
1A1
100
AcDbEntity
  8
3201_6L
390
0
100
AcDbCircle
 10
182.5341227263
 20
232.6375740078
 30
0.0
 40
1.0
  0
CIRCLE
  5
1A2
100
AcDbEntity
  8
3201_9P
390
0
100
AcDbCircle
 10
41.4162791854
 20
135.8747317175
 30
0.0
 40
1.25
  0
CIRCLE
  5
1A3
100
AcDbEntity
  8
3201_9P
390
0
100
AcDbCircle
 10
60.0556438865
 20
144.3785407665
 30
0.0
 40
1.25
  0
ARC
  5
1A4
100
AcDbEntity
  8
3201 HANDFALLE
390
0
100
AcDbCircle
 10
191.0342189541
 20
264.887333518
 30
0.0
 40
2.25
100
AcDbArc
 50
0.0
 51
180.0
  0
CIRCLE
  5
1A5
100
AcDbEntity
  8
3201_9P
390
0
100
AcDbCircle
 10
42.9525080712
 20
130.5408117157
 30
0.0
 40
1.5
  0
CIRCLE
  5
1A6
100
AcDbEntity
  8
3201_2P
390
0
100
AcDbCircle
 10
124.2760058966
 20
254.1874677315
 30
0.0
 40
1.25
  0
CIRCLE
  5
1A7
100
AcDbEntity
  8
3201 HEBELROLLE
390
0
  6
DASHED
100
AcDbCircle
 10
60.0556438865
 20
144.3785407665
 30
0.0
 40
23.5
  0
CIRCLE
  5
1A8
100
AcDbEntity
  8
3201 HEBELROLLE
390
0
100
AcDbCircle
 10
60.0556438865
 20
144.3785407665
 30
0.0
 40
24.5
  0
LINE
  5
1A9
100
AcDbEntity
  8
3201 HEBELKLINKE
390
0
  6
DASHED
100
AcDbLine
 10
184.0349715769
 20
143.8258866358
 30
0.0
 11
185.0349715769
 21
143.8258969108
 31
0.0
  0
LINE
  5
1AA
100
AcDbEntity
  8
3201 HEBELSCHILDCHEN
390
0
100
AcDbLine
 10
185.0342189541
 20
108.6868165167
 30
0.0
 11
195.0342189536
 21
108.6869192669
 31
0.0
  0
LINE
  5
1AB
100
AcDbEntity
  8
3201 HANDFALLE
390
0
100
AcDbLine
 10
174.0339303886
 20
230.6383916194
 30
0.0
 11
185.0342189541
 21
230.637333518
 31
0.0
  0
LINE
  5
1AC
100
AcDbEntity
  8
3201 HEBELSCHILDCHEN
390
0
100
AcDbLine
 10
195.0342189536
 20
108.6869192669
 30
0.0
 11
195.0343320102
 21
97.6838690755
 31
0.0
  0
LINE
  5
1AD
100
AcDbEntity
  8
3201 HEBELKLINKE
390
0
100
AcDbLine
 10
184.0343242617
 20
206.824781594
 30
0.0
 11
184.034218954
 21
217.0736792015
 31
0.0
  0
LINE
  5
1AE
100
AcDbEntity
  8
3201 HEBELSCHILDCHEN
390
0
100
AcDbLine
 10
195.0343320102
 20
97.6838690755
 30
0.0
 11
185.0343320107
 21
97.6837663253
 31
0.0
  0
LINE
  5
1AF
100
AcDbEntity
  8
3201 HANDFALLE
390
0
  6
DASHED
100
AcDbLine
 10
184.0339303423
 20
230.6374297343
 30
0.0
 11
184.0374244522
 21
266.9630759187
 31
0.0
  0
LINE
  5
1B0
100
AcDbEntity
  8
3201 HANDFALLE
390
0
100
AcDbLine
 10
171.5797593202
 20
235.3633924477
 30
0.0
 11
184.0342189541
 21
253.0845249176
 31
0.0
  0
LINE
  5
1B1
100
AcDbEntity
  8
3201 HEBELKLINKE
390
0
  6
DASHED
100
AcDbLine
 10
184.0343242617
 20
206.824781594
 30
0.0
 11
184.0349715769
 21
143.8258866358
 31
0.0
  0
LINE
  5
1B2
100
AcDbEntity
  8
3201 HEBELSCHILDCHEN
390
0
  6
DASHED
100
AcDbLine
 10
186.034218954
 20
108.6868267917
 30
0.0
 11
186.0343320107
 21
97.6837766003
 31
0.0
  0
LINE
  5
1B3
100
AcDbEntity
  8
3201 HEBELKLINKE
390
0
100
AcDbLine
 10
185.0349715769
 20
143.8258969108
 30
0.0
 11
185.034218954
 21
217.0736894765
 31
0.0
  0
LINE
  5
1B4
100
AcDbEntity
  8
3201 HEBELSCHILDCHEN
390
0
100
AcDbLine
 10
185.0343320107
 20
97.6837663253
 30
0.0
 11
185.0342189541
 21
108.6868165167
 31
0.0
  0
CIRCLE
  5
1B5
100
AcDbEntity
  8
3201_7R
390
0
100
AcDbCircle
 10
187.2843319907
 20
169.4270090911
 30
0.0
 40
1.0
  0
ARC
  5
1B6
100
AcDbEntity
  8
3201 HEBELROLLE
390
0
100
AcDbCircle
 10
75.8386691564
 20
159.9765371705
 30
0.0
 40
1.0037813143
100
AcDbArc
 50
328.9765166844
 51
509.0246607467
  0
ARC
  5
1B7
100
AcDbEntity
  8
3201 HEBELROLLE
390
0
100
AcDbCircle
 10
71.718074842
 20
153.1193727358
 30
0.0
 40
1.0
100
AcDbArc
 50
149.0246607467
 51
328.9765166844
  0
CIRCLE
  5
1B8
100
AcDbEntity
  8
3201_6R
390
0
100
AcDbCircle
 10
189.9092189541
 20
233.637333518
 30
0.0
 40
1.8
  0
CIRCLE
  5
1B9
100
AcDbEntity
  8
3201_4P
390
0
100
AcDbCircle
 10
128.5548525146
 20
120.1418214965
 30
0.0
 40
1.25
  0
CIRCLE
  5
1BA
100
AcDbEntity
  8
3201_4P
390
0
100
AcDbCircle
 10
128.5551710404
 20
88.1418214981
 30
0.0
 40
1.25
  0
CIRCLE
  5
1BB
100
AcDbEntity
  8
3201_4P
390
0
100
AcDbCircle
 10
128.5554921518
 20
57.8901800841
 30
0.0
 40
1.25
  0
CIRCLE
  5
1BC
100
AcDbEntity
  8
3201_4P
390
0
100
AcDbCircle
 10
128.5547317999
 20
131.890181524
 30
0.0
 40
1.25
  0
CIRCLE
  5
1BD
100
AcDbEntity
  8
3201_1P
390
0
100
AcDbCircle
 10
50.9657743597
 20
253.334068016
 30
0.0
 40
1.25
  0
LINE
  5
1BE
100
AcDbEntity
  8
3201 HEBELBOCK
390
0
100
AcDbLine
 10
31.9657743597
 20
189.334068016
 30
0.0
 11
38.3724360351
 21
230.7797251034
 31
0.0
  0
CIRCLE
  5
1BF
100
AcDbEntity
  8
3201_8R
390
0
100
AcDbCircle
 10
192.034275482
 20
103.1853633462
 30
0.0
 40
1.75
  0
LINE
  5
1C0
100
AcDbEntity
  8
3201 HANDFALLE
390
0
100
AcDbLine
 10
184.0374244522
 20
266.9630759187
 30
0.0
 11
185.0342189541
 21
266.9629800385
 31
0.0
  0
LINE
  5
1C1
100
AcDbEntity
  8
3201 HEBELBOCK
390
0
100
AcDbLine
 10
197.0342189541
 20
43.1098899202
 30
0.0
 11
170.0342189541
 21
43.1098899202
 31
0.0
  0
LINE
  5
1C2
100
AcDbEntity
  8
3201 HEBELBOCK
390
0
100
AcDbLine
 10
170.0342189541
 20
43.1098899202
 30
0.0
 11
170.0342189541
 21
75.1098899202
 31
0.0
  0
LINE
  5
1C3
100
AcDbEntity
  8
3201 HEBELBOCK
390
0
  6
DASHED
100
AcDbLine
 10
183.0342189541
 20
43.1098899202
 30
0.0
 11
183.0342189541
 21
75.1098899202
 31
0.0
  0
LINE
  5
1C4
100
AcDbEntity
  8
3201 HEBELBOCK
390
0
100
AcDbLine
 10
185.0342189541
 20
43.1098899202
 30
0.0
 11
185.0342189541
 21
75.1098899202
 31
0.0
  0
CIRCLE
  5
1C5
100
AcDbEntity
  8
3201 HEBELROLLE
390
0
100
AcDbCircle
 10
41.4162791854
 20
64.2526811557
 30
0.0
 40
1.25
  0
CIRCLE
  5
1C6
100
AcDbEntity
  8
3201 HEBELROLLE
390
0
100
AcDbCircle
 10
60.0556438865
 20
72.7564902047
 30
0.0
 40
1.25
  0
CIRCLE
  5
1C7
100
AcDbEntity
  8
3201 HEBELROLLE
390
0
100
AcDbCircle
 10
42.9525080712
 20
58.9187611539
 30
0.0
 40
1.5
  0
LINE
  5
1C8
100
AcDbEntity
  8
3201 HEBELROLLE
390
0
100
AcDbLine
 10
74.9782553247
 20
88.8714633637
 30
0.0
 11
70.8606859425
 21
82.0119912668
 31
0.0
  0
LINE
  5
1C9
100
AcDbEntity
  8
3201 HEBELROLLE
390
0
100
AcDbLine
 10
76.699082988
 20
87.8375098537
 30
0.0
 11
72.5757510531
 21
80.9814997553
 31
0.0
  0
CIRCLE
  5
1CA
100
AcDbEntity
  8
3201 HEBELROLLE
390
0
  6
DASHED
100
AcDbCircle
 10
60.0556438865
 20
72.7564902047
 30
0.0
 40
23.5
  0
CIRCLE
  5
1CB
100
AcDbEntity
  8
3201 HEBELROLLE
390
0
100
AcDbCircle
 10
60.0556438865
 20
72.7564902047
 30
0.0
 40
24.5
  0
ARC
  5
1CC
100
AcDbEntity
  8
3201 HEBELROLLE
390
0
100
AcDbCircle
 10
75.8386691564
 20
88.3544866087
 30
0.0
 40
1.0037813143
100
AcDbArc
 50
328.9765166844
 51
509.0246607467
  0
ARC
  5
1CD
100
AcDbEntity
  8
3201 HEBELROLLE
390
0
100
AcDbCircle
 10
71.718074842
 20
81.497322174
 30
0.0
 40
1.0
100
AcDbArc
 50
149.0246607467
 51
328.9765166844
  0
LINE
  5
1CE
100
AcDbEntity
  8
3201 HEBELBOCK
390
0
100
AcDbLine
 10
170.0342189541
 20
75.1098899202
 30
0.0
 11
197.0342189541
 21
75.1098899202
 31
0.0
  0
LINE
  5
1CF
100
AcDbEntity
  8
3201 HEBELBOCK
390
0
  6
DASHED
100
AcDbLine
 10
187.0342189541
 20
43.1098899202
 30
0.0
 11
187.0342189541
 21
75.1098899202
 31
0.0
  0
LINE
  5
1D0
100
AcDbEntity
  8
3201 HEBELBOCK
390
0
100
AcDbLine
 10
197.0342189541
 20
43.1098899202
 30
0.0
 11
197.0342189541
 21
54.1098899202
 31
0.0
  0
CIRCLE
  5
1D1
100
AcDbEntity
  8
3201_3R
390
0
100
AcDbCircle
 10
191.5342189541
 20
47.6098899202
 30
0.0
 40
1.25
  0
CIRCLE
  5
1D2
100
AcDbEntity
  8
3201_3R
390
0
100
AcDbCircle
 10
191.5342189541
 20
70.6098899202
 30
0.0
 40
1.25
  0
CIRCLE
  5
1D3
100
AcDbEntity
  8
3201_3L
390
0
100
AcDbCircle
 10
176.5342189541
 20
49.6098899202
 30
0.0
 40
1.25
  0
CIRCLE
  5
1D4
100
AcDbEntity
  8
3201_3L
390
0
100
AcDbCircle
 10
176.5342189541
 20
68.6098899202
 30
0.0
 40
1.25
  0
CIRCLE
  5
1D5
100
AcDbEntity
  8
3201_1P
390
0
100
AcDbCircle
 10
41.4657743597
 20
197.834068016
 30
0.0
 40
1.5
  0
CIRCLE
  5
1D6
100
AcDbEntity
  8
3201_1P
390
0
100
AcDbCircle
 10
60.4657743597
 20
197.834068016
 30
0.0
 40
1.5
  0
CIRCLE
  5
1D7
100
AcDbEntity
  8
3201_2P
390
0
100
AcDbCircle
 10
114.7760058966
 20
198.6874677315
 30
0.0
 40
1.5
  0
CIRCLE
  5
1D8
100
AcDbEntity
  8
3201_2P
390
0
100
AcDbCircle
 10
133.7760058966
 20
198.6874677315
 30
0.0
 40
1.5
  0
CIRCLE
  5
1D9
100
AcDbEntity
  8
3201_1P
390
0
100
AcDbCircle
 10
69.7117557131
 20
241.6205466194
 30
0.0
 40
1.25
  0
CIRCLE
  5
1DA
100
AcDbEntity
  8
3201_7R
390
0
100
AcDbCircle
 10
191.9394816735
 20
212.0759693023
 30
0.0
 40
1.5
  0
TEXT
  5
1DB
100
AcDbEntity
  8
BESCHRIFTUNG
390
0
100
AcDbText
 10
49.2478170587
 20
278.6472869043
 30
0.0
 40
3.0
  1
3201.1P
 41
1.1350984069
  7
Arial
100
AcDbText
  0
TEXT
  5
1DC
100
AcDbEntity
  8
BESCHRIFTUNG
390
0
100
AcDbText
 10
104.1967966209
 20
278.6472869043
 30
0.0
 40
3.0
  1
3201.2P
 41
1.1350982978
  7
Arial
100
AcDbText
  0
TEXT
  5
1DD
100
AcDbEntity
  8
BESCHRIFTUNG
390
0
100
AcDbText
 10
162.2976404494
 20
83.6188483146
 30
0.0
 40
3.0
  1
3201.3L,R
 41
1.1351033103
  7
Arial
100
AcDbText
  0
TEXT
  5
1DE
100
AcDbEntity
  8
BESCHRIFTUNG
390
0
100
AcDbText
 10
96.7760391108
 20
176.8360476975
 30
0.0
 40
3.0
  1
3201.4P
 41
1.1350984069
  7
Arial
100
AcDbText
  0
TEXT
  5
1DF
100
AcDbEntity
  8
BESCHRIFTUNG
390
0
100
AcDbText
 10
161.2869789957
 20
279.6646848962
 30
0.0
 40
3.0
  1
3201.6L,R
 41
1.1351032927
  7
Arial
100
AcDbText
  0
TEXT
  5
1E0
100
AcDbEntity
  8
BESCHRIFTUNG
390
0
100
AcDbText
 10
163.5615589888
 20
223.2805025458
 30
0.0
 40
3.0
  1
3201.7L,R
 41
1.1351032399
  7
Arial
100
AcDbText
  0
TEXT
  5
1E1
100
AcDbEntity
  8
BESCHRIFTUNG
390
0
100
AcDbText
 10
162.8898153959
 20
115.9981523617
 30
0.0
 40
3.0
  1
3201.8L,R
 41
1.1351032751
  7
Arial
100
AcDbText
  0
TEXT
  5
1E2
100
AcDbEntity
  8
BESCHRIFTUNG
390
0
100
AcDbText
 10
67.1047618952
 20
107.234767689
 30
0.0
 40
3.0
  1
3201.9P,T
 41
1.1350940043
  7
Arial
100
AcDbText
  0
TEXT
  5
1E3
100
AcDbEntity
  8
BESCHRIFTUNG
390
0
100
AcDbText
 10
45.2281865512
 20
35.2733055614
 30
0.0
 40
3.0
  1
3201.11P
 41
1.1351045169
  7
Arial
100
AcDbText
  0
CIRCLE
  5
1E4
100
AcDbEntity
  8
3201_7L
390
0
100
AcDbCircle
 10
179.0391237186
 20
191.0816365636
 30
0.0
 40
1.25
  0
LINE
  5
1E5
100
AcDbEntity
  8
3201_1P
390
0
100
AcDbLine
 10
63.2136297338
 20
263.5248013926
 30
0.0
 11
70.433989977
 21
275.5417784863
 31
0.0
  0
LINE
  5
1E6
100
AcDbEntity
  8
3201_1P
390
0
100
AcDbLine
 10
38.3406735097
 20
244.4502984075
 30
0.0
 11
33.4173448266
 21
236.8688665211
 31
0.0
  0
LINE
  5
1E7
100
AcDbEntity
  8
3201_1P
390
0
100
AcDbLine
 10
33.4173448266
 20
236.8688665211
 30
0.0
 11
37.3003132072
 21
231.2946665158
 31
0.0
  0
LINE
  5
1E8
100
AcDbEntity
  8
3201_1P
390
0
100
AcDbLine
 10
30.9775118816
 20
189.4868334392
 30
0.0
 11
37.3841735571
 21
230.9324905266
 31
0.0
  0
LINE
  5
1E9
100
AcDbEntity
  8
3201_2P
390
0
100
AcDbLine
 10
104.2877434185
 20
190.3402331547
 30
0.0
 11
114.3933811162
 21
255.7151219632
 31
0.0
  0
ARC
  5
1EA
100
AcDbEntity
  8
3201_2P
390
0
100
AcDbCircle
 10
124.2760058966
 20
254.1874677315
 30
0.0
 40
10.0
100
AcDbArc
 50
8.7872210475
 51
64.1580672368
  0
LINE
  5
1EB
100
AcDbEntity
  8
3201_2P
390
0
100
AcDbLine
 10
144.4424626313
 20
189.1874677315
 30
0.0
 11
134.1586306769
 21
255.7151219632
 31
0.0
  0
LINE
  5
1EC
100
AcDbEntity
  8
3201_2P
390
0
  6
BORDER
100
AcDbLine
 10
99.2760058966
 20
189.1874677315
 30
0.0
 11
144.4424626313
 21
189.1874677315
 31
0.0
  0
LINE
  5
1ED
100
AcDbEntity
  8
3201_1P
390
0
  6
BORDER
100
AcDbLine
 10
29.9352150612
 20
188.334068016
 30
0.0
 11
70.2143024971
 21
188.334068016
 31
0.0
  0
LINE
  5
1EE
100
AcDbEntity
  8
3201_6L
390
0
  6
DIVIDE
100
AcDbLine
 10
174.0338342
 20
229.6383916241
 30
0.0
 11
185.0341227656
 21
229.6373335227
 31
0.0
  0
LINE
  5
1EF
100
AcDbEntity
  8
3201_6L
390
0
100
AcDbLine
 10
170.7616061088
 20
235.9383927284
 30
0.0
 11
183.2160657428
 21
253.6595251983
 31
0.0
  0
ARC
  5
1F0
100
AcDbEntity
  8
3201_6L
390
0
100
AcDbCircle
 10
174.0342189541
 20
233.6383916056
 30
0.0
 40
4.0
100
AcDbArc
 50
144.9003481464
 51
269.9944888042
  0
LINE
  5
1F1
100
AcDbEntity
  8
3201_6R
390
0
100
AcDbLine
 10
194.2842189541
 20
264.887333518
 30
0.0
 11
194.2842189541
 21
229.637333518
 31
0.0
  0
LINE
  5
1F2
100
AcDbEntity
  8
3201_6R
390
0
  6
DIVIDE
100
AcDbLine
 10
185.0341227656
 20
229.6373335227
 30
0.0
 11
194.2842189541
 21
229.637333518
 31
0.0
  0
LINE
  5
1F3
100
AcDbEntity
  8
3201_6R
390
0
100
AcDbLine
 10
182.4890276247
 20
252.006355751
 30
0.0
 11
187.7842189541
 21
257.3015470804
 31
0.0
  0
LINE
  5
1F4
100
AcDbEntity
  8
3201_6R
390
0
100
AcDbLine
 10
187.7842189541
 20
264.887333518
 30
0.0
 11
187.7842189541
 21
257.3015470804
 31
0.0
  0
ARC
  5
1F5
100
AcDbEntity
  8
3201_6R
390
0
100
AcDbCircle
 10
191.0342189541
 20
264.887333518
 30
0.0
 40
3.25
100
AcDbArc
 50
0.0
 51
180.0
  0
LINE
  5
1F6
100
AcDbEntity
  8
3201_6L
390
0
  6
DASHED
100
AcDbLine
 10
170.0342189541
 20
269.6344228708
 30
0.0
 11
174.0342189541
 21
233.6383916056
 31
0.0
  0
LINE
  5
1F7
100
AcDbEntity
  8
3201_2P
390
0
  6
DASHED
100
AcDbLine
 10
99.2760058966
 20
264.1921277905
 30
0.0
 11
124.2760058966
 21
254.1874677315
 31
0.0
  0
LINE
  5
1F8
100
AcDbEntity
  8
3201_2P
390
0
  6
DASHED
100
AcDbLine
 10
124.2760058966
 20
254.1874677315
 30
0.0
 11
114.7760058966
 21
198.6874677315
 31
0.0
  0
LINE
  5
1F9
100
AcDbEntity
  8
3201_2P
390
0
  6
DASHED
100
AcDbLine
 10
114.7760058966
 20
198.6874677315
 30
0.0
 11
133.7760058966
 21
198.6874677315
 31
0.0
  0
LINE
  5
1FA
100
AcDbEntity
  8
3201_2P
390
0
  6
DASHED
100
AcDbLine
 10
133.7760058966
 20
198.6874677315
 30
0.0
 11
104.2877434185
 21
190.3402331547
 31
0.0
  0
LINE
  5
1FB
100
AcDbEntity
  8
MITTELLINIEN
390
0
100
AcDbLine
 10
99.2760058966
 20
268.7921277905
 30
0.0
 11
99.2760058966
 21
184.1874677315
 31
0.0
  0
LINE
  5
1FC
100
AcDbEntity
  8
MITTELLINIEN
390
0
100
AcDbLine
 10
154.2760058966
 20
268.7921277905
 30
0.0
 11
154.2760058966
 21
184.1874677315
 31
0.0
  0
LINE
  5
1FD
100
AcDbEntity
  8
3201_1P
390
0
 62
         5
100
AcDbLine
 10
63.2136297338
 20
263.5248013926
 30
0.0
 11
65.9381042937
 21
268.0591940374
 31
0.0
  0
LINE
  5
1FE
100
AcDbEntity
  8
3201_1P
390
0
 62
         5
100
AcDbLine
 10
38.3406735097
 20
244.4502984075
 30
0.0
 11
35.1432338644
 21
239.526562366
 31
0.0
  0
ARC
  5
1FF
100
AcDbEntity
  8
3201_1P
390
0
100
AcDbCircle
 10
50.9657743597
 20
253.334068016
 30
0.0
 40
21.0
100
AcDbArc
 50
44.5230765296
 51
221.1095065969
  0
LINE
  5
200
100
AcDbEntity
  8
3201_1P
390
0
  6
DASHED
100
AcDbLine
 10
29.9352150612
 20
278.329259237
 30
0.0
 11
50.9657743597
 21
253.334068016
 31
0.0
  0
LINE
  5
201
100
AcDbEntity
  8
3201_1P
390
0
  6
DASHED
100
AcDbLine
 10
50.9657743597
 20
253.334068016
 30
0.0
 11
69.7117557131
 21
241.6205466194
 31
0.0
  0
LINE
  5
202
100
AcDbEntity
  8
3201_1P
390
0
  6
DASHED
100
AcDbLine
 10
60.4657743597
 20
197.834068016
 30
0.0
 11
41.4657743597
 21
197.834068016
 31
0.0
  0
LINE
  5
203
100
AcDbEntity
  8
3201_1P
390
0
  6
DASHED
100
AcDbLine
 10
41.4657743597
 20
197.834068016
 30
0.0
 11
30.9775118816
 21
189.4868334392
 31
0.0
  0
ARC
  5
204
100
AcDbEntity
  8
3201_1P
390
0
  6
DASHED
100
AcDbCircle
 10
36.8900423181
 20
231.0088732381
 30
0.0
 40
0.5
100
AcDbArc
 50
351.2127789525
 51
394.8609353441
  0
CIRCLE
  5
205
100
AcDbEntity
  8
3201_1P
390
0
  6
PHANTOM
100
AcDbCircle
 10
29.9352150612
 20
188.334068016
 30
0.0
 40
1.0
  0
CIRCLE
  5
206
100
AcDbEntity
  8
3201_1P
390
0
  6
PHANTOM
100
AcDbCircle
 10
29.9352150612
 20
278.329259237
 30
0.0
 40
0.5
  0
CIRCLE
  5
207
100
AcDbEntity
  8
3201_2P
390
0
  6
PHANTOM
100
AcDbCircle
 10
99.2760058966
 20
264.1921277905
 30
0.0
 40
0.5
  0
CIRCLE
  5
208
100
AcDbEntity
  8
3201_2P
390
0
  6
PHANTOM
100
AcDbCircle
 10
99.2760058966
 20
189.1874677315
 30
0.0
 40
1.0
  0
LINE
  5
209
100
AcDbEntity
  8
MITTELLINIEN
390
0
100
AcDbLine
 10
29.9352150612
 20
282.189259237
 30
0.0
 11
29.9352150612
 21
183.334068016
 31
0.0
  0
LINE
  5
20A
100
AcDbEntity
  8
MITTELLINIEN
390
0
100
AcDbLine
 10
84.9352150612
 20
282.189259237
 30
0.0
 11
84.9352150612
 21
183.334068016
 31
0.0
  0
CIRCLE
  5
20B
100
AcDbEntity
  8
3201_6L
390
0
  6
PHANTOM
100
AcDbCircle
 10
170.0342189541
 20
269.6344228708
 30
0.0
 40
0.5
  0
CIRCLE
  5
20C
100
AcDbEntity
  8
3201_6L
390
0
  6
PHANTOM
100
AcDbCircle
 10
170.0342189541
 20
229.6387763411
 30
0.0
 40
1.0
  0
CIRCLE
  5
20D
100
AcDbEntity
  8
3201_6R
390
0
  6
PHANTOM
100
AcDbCircle
 10
185.0342189541
 20
269.6329800431
 30
0.0
 40
0.5
  0
CIRCLE
  5
20E
100
AcDbEntity
  8
3201_6R
390
0
  6
PHANTOM
100
AcDbCircle
 10
185.0341227656
 20
229.6373335227
 30
0.0
 40
1.0
  0
LINE
  5
20F
100
AcDbEntity
  8
MITTELLINIEN
390
0
100
AcDbLine
 10
170.0342189541
 20
272.9644228708
 30
0.0
 11
170.0342189541
 21
37.1098899202
 31
0.0
  0
LINE
  5
210
100
AcDbEntity
  8
MITTELLINIEN
390
0
100
AcDbLine
 10
200.0342189541
 20
272.9644228708
 30
0.0
 11
200.0342189541
 21
37.1098899208
 31
0.0
  0
LINE
  5
211
100
AcDbEntity
  8
3201_4P
390
0
100
AcDbLine
 10
125.0546817258
 20
136.7635427336
 30
0.0
 11
125.0543362116
 21
170.3901441156
 31
0.0
  0
LINE
  5
212
100
AcDbEntity
  8
3201_4P
390
0
100
AcDbLine
 10
132.0547212696
 20
132.9150407281
 30
0.0
 11
132.0543362113
 21
170.3902160408
 31
0.0
  0
ARC
  5
213
100
AcDbEntity
  8
3201_4P
390
0
100
AcDbCircle
 10
128.5547317999
 20
131.890181524
 30
0.0
 40
6.0
100
AcDbArc
 50
125.6859234282
 51
232.1975338243
  0
LINE
  5
214
100
AcDbEntity
  8
3201_4P
390
0
100
AcDbLine
 10
132.0547212696
 20
132.9150407281
 30
0.0
 11
134.5552383301
 21
82.5929917768
 31
0.0
  0
LINE
  5
215
100
AcDbEntity
  8
3201_4P
390
0
100
AcDbLine
 10
124.8770854181
 20
127.1494097419
 30
0.0
 11
122.5552383182
 21
82.5940870437
 31
0.0
  0
LINE
  5
216
100
AcDbEntity
  8
3201_4P
390
0
100
AcDbLine
 10
122.5555949023
 20
47.8901184345
 30
0.0
 11
122.5552383182
 21
82.5940870437
 31
0.0
  0
LINE
  5
217
100
AcDbEntity
  8
3201_4P
390
0
100
AcDbLine
 10
134.5552383301
 20
82.5929917768
 30
0.0
 11
134.5553664187
 21
70.1269754694
 31
0.0
  0
LINE
  5
218
100
AcDbEntity
  8
3201_4P
390
0
100
AcDbLine
 10
133.3053908216
 20
67.7519927909
 30
0.0
 11
133.3054716014
 21
59.8902314591
 31
0.0
  0
ARC
  5
219
100
AcDbEntity
  8
3201_4P
390
0
100
AcDbCircle
 10
133.5554716014
 20
59.8902340279
 30
0.0
 40
0.25
100
AcDbArc
 50
180.0005887156
 51
360.0005887156
  0
LINE
  5
21A
100
AcDbEntity
  8
3201_4P
390
0
100
AcDbLine
 10
133.8053894012
 20
67.8902365962
 30
0.0
 11
133.8054716014
 21
59.8902365967
 31
0.0
  0
LINE
  5
21B
100
AcDbEntity
  8
3201_4P
390
0
100
AcDbLine
 10
134.8076457328
 20
68.8902443257
 30
0.0
 11
138.055379126
 21
68.8902776963
 31
0.0
  0
LINE
  5
21C
100
AcDbEntity
  8
3201_4P
390
0
100
AcDbLine
 10
138.055379126
 20
68.8902776963
 30
0.0
 11
138.0556051765
 21
46.8902776974
 31
0.0
  0
LINE
  5
21D
100
AcDbEntity
  8
3201_4P
390
0
100
AcDbLine
 10
134.5553664187
 20
70.1269754694
 30
0.0
 11
133.3053908216
 21
67.7519927909
 31
0.0
  0
ARC
  5
21E
100
AcDbEntity
  8
3201_4P
390
0
100
AcDbCircle
 10
134.8053894012
 20
67.8902468713
 30
0.0
 40
1.0
100
AcDbArc
 50
89.8707216083
 51
180.0005887156
  0
ARC
  5
21F
100
AcDbEntity
  8
3201_4P
390
0
  6
DIVIDE
100
AcDbCircle
 10
128.5543362115
 20
170.3901800782
 30
0.0
 40
3.5
100
AcDbArc
 50
0.0005887156
 51
180.0005887156
  0
LINE
  5
220
100
AcDbEntity
  8
3201_4P
390
0
  6
DIVIDE
100
AcDbLine
 10
122.5556051773
 20
46.8901184346
 30
0.0
 11
138.0556051765
 21
46.8902776974
 31
0.0
  0
LINE
  5
221
100
AcDbEntity
  8
3201_4P
390
0
  6
DASHED
100
AcDbLine
 10
122.554295771
 20
174.8859539386
 30
0.0
 11
128.5547317999
 21
131.890181524
 31
0.0
  0
LINE
  5
222
100
AcDbEntity
  8
3201_4P
390
0
  6
DASHED
100
AcDbLine
 10
128.5548525146
 20
120.1418214965
 30
0.0
 11
128.5548525146
 21
109.1418214965
 31
0.0
  0
LINE
  5
223
100
AcDbEntity
  8
3201_4P
390
0
  6
DASHED
100
AcDbLine
 10
128.5551710404
 20
88.1418214981
 30
0.0
 11
128.5554921518
 21
57.8901800841
 31
0.0
  0
LINE
  5
224
100
AcDbEntity
  8
3201_4P
390
0
  6
DASHED
100
AcDbLine
 10
128.5554921518
 20
57.8901800841
 30
0.0
 11
122.5555949023
 21
47.8901184345
 31
0.0
  0
CIRCLE
  5
225
100
AcDbEntity
  8
3201_4P
390
0
  6
PHANTOM
100
AcDbCircle
 10
122.5556051773
 20
46.8901184346
 30
0.0
 40
1.0
  0
CIRCLE
  5
226
100
AcDbEntity
  8
3201_4P
390
0
  6
PHANTOM
100
AcDbCircle
 10
122.554295771
 20
174.8859539386
 30
0.0
 40
0.5
  0
LINE
  5
227
100
AcDbEntity
  8
MITTELLINIEN
390
0
100
AcDbLine
 10
122.5542443958
 20
179.3259539383
 30
0.0
 11
122.5556565525
 21
41.8901184348
 31
0.0
  0
LINE
  5
228
100
AcDbEntity
  8
MITTELLINIEN
390
0
100
AcDbLine
 10
138.554244395
 20
179.3261183387
 30
0.0
 11
138.5556565516
 21
41.8902828352
 31
0.0
  0
CIRCLE
  5
229
100
AcDbEntity
  8
3201 HEBELKLINKE
370
        70
390
0
100
AcDbCircle
 10
144.7542519815
 20
130.5321788637
 30
0.0
 40
0.7
  0
LINE
  5
22A
100
AcDbEntity
  8
3201_7L
390
0
100
AcDbLine
 10
173.0315371029
 20
207.0746685401
 30
0.0
 11
173.0322794621
 21
134.8257735824
 31
0.0
  0
LINE
  5
22B
100
AcDbEntity
  8
3201_7L
390
0
100
AcDbLine
 10
178.4378612119
 20
164.0761366073
 30
0.0
 11
178.4419145801
 21
172.133225937
 31
0.0
  0
ARC
  5
22C
100
AcDbEntity
  8
3201_7L
390
0
100
AcDbCircle
 10
179.0393189868
 20
172.0774767226
 30
0.0
 40
0.6
100
AcDbArc
 50
0.0005887156
 51
174.6686521611
  0
LINE
  5
22D
100
AcDbEntity
  8
3201_7L
390
0
100
AcDbLine
 10
179.6393187759
 20
172.0774828876
 30
0.0
 11
179.6378592591
 21
164.0783014761
 31
0.0
  0
LINE
  5
22E
100
AcDbEntity
  8
3201_7L
390
0
100
AcDbLine
 10
178.4372868346
 20
196.0777794734
 30
0.0
 11
178.4428191881
 21
207.0747241411
 31
0.0
  0
ARC
  5
22F
100
AcDbEntity
  8
3201_7L
390
0
100
AcDbCircle
 10
179.0372867587
 20
196.0774776248
 30
0.0
 40
0.6
100
AcDbArc
 50
179.9711755865
 51
359.9711755865
  0
LINE
  5
230
100
AcDbEntity
  8
3201_7L
390
0
100
AcDbLine
 10
179.6372866828
 20
196.0771757763
 30
0.0
 11
179.6428182357
 21
207.0725290407
 31
0.0
  0
LINE
  5
231
100
AcDbEntity
  8
3201_7L
390
0
100
AcDbLine
 10
178.4428191881
 20
207.0747241411
 30
0.0
 11
173.0315371029
 21
207.0746685401
 31
0.0
  0
LINE
  5
232
100
AcDbEntity
  8
3201_7L
390
0
100
AcDbLine
 10
179.6428182357
 20
207.0725290407
 30
0.0
 11
186.1446618991
 21
207.0725958473
 31
0.0
  0
ARC
  5
233
100
AcDbEntity
  8
3201_7L
390
0
100
AcDbCircle
 10
179.0397120234
 20
134.8258353089
 30
0.0
 40
6.0074325616
100
AcDbArc
 50
180.0005887156
 51
353.914953405
  0
LINE
  5
234
100
AcDbEntity
  8
3201_7L
390
0
100
AcDbLine
 10
186.0293372206
 20
143.7198923515
 30
0.0
 11
185.0132965695
 21
134.1890200678
 31
0.0
  0
LINE
  5
235
100
AcDbEntity
  8
3201_7L
390
0
  6
DIVIDE
100
AcDbLine
 10
170.0342189541
 20
218.0736792015
 30
0.0
 11
185.0342189541
 21
218.0736792015
 31
0.0
  0
LINE
  5
236
100
AcDbEntity
  8
3201_7R
390
0
100
AcDbLine
 10
195.8144816735
 20
157.3225741635
 30
0.0
 11
195.8144816735
 21
218.0736792015
 31
0.0
  0
LINE
  5
237
100
AcDbEntity
  8
3201_7R
390
0
100
AcDbLine
 10
195.8144816735
 20
157.3225741635
 30
0.0
 11
199.0644816735
 21
157.3225741635
 31
0.0
  0
LINE
  5
238
100
AcDbEntity
  8
3201_7R
390
0
100
AcDbLine
 10
199.0644816735
 20
152.3225741635
 30
0.0
 11
195.8144816735
 21
152.3225741635
 31
0.0
  0
LINE
  5
239
100
AcDbEntity
  8
3201_7R
390
0
100
AcDbLine
 10
195.8144816735
 20
145.2095767208
 30
0.0
 11
195.8144816735
 21
152.8225741635
 31
0.0
  0
LINE
  5
23A
100
AcDbEntity
  8
3201_7R
390
0
100
AcDbLine
 10
187.0343319907
 20
154.0725741635
 30
0.0
 11
189.5644816735
 21
154.0725741635
 31
0.0
  0
LINE
  5
23B
100
AcDbEntity
  8
3201_7R
390
0
100
AcDbLine
 10
187.0343319907
 20
202.3453172477
 30
0.0
 11
187.0343319907
 21
207.0725741635
 31
0.0
  0
LINE
  5
23C
100
AcDbEntity
  8
3201_7R
390
0
100
AcDbLine
 10
188.0644816735
 20
202.3453172477
 30
0.0
 11
188.0644816735
 21
218.0736792015
 31
0.0
  0
LINE
  5
23D
100
AcDbEntity
  8
3201_7R
390
0
100
AcDbLine
 10
188.0644816735
 20
202.8453172477
 30
0.0
 11
187.0343319907
 21
202.8453172477
 31
0.0
  0
LINE
  5
23E
100
AcDbEntity
  8
3201_7R
390
0
  6
DIVIDE
100
AcDbLine
 10
188.0644816735
 20
218.0736792015
 30
0.0
 11
195.8144816735
 21
218.0736792015
 31
0.0
  0
ARC
  5
23F
100
AcDbEntity
  8
3201_7L
390
0
  6
DASHED
100
AcDbCircle
 10
185.9844921869
 20
203.700823095
 30
0.0
 40
14.4042359004
100
AcDbArc
 50
93.782652411
 51
241.1724213535
  0
LINE
  5
240
100
AcDbEntity
  8
3201_7R
390
0
100
AcDbLine
 10
187.0343319907
 20
130.9353172477
 30
0.0
 11
187.0343319907
 21
154.5725741635
 31
0.0
  0
LINE
  5
241
100
AcDbEntity
  8
3201_7L
390
0
  6
DASHED
100
AcDbLine
 10
186.0343319907
 20
154.0725741635
 30
0.0
 11
179.0397120234
 21
134.8258353089
 31
0.0
  0
LINE
  5
242
100
AcDbEntity
  8
3201_7L
390
0
  6
DASHED
100
AcDbLine
 10
186.0293372206
 20
143.7198923515
 30
0.0
 11
179.0397120234
 21
134.8258353089
 31
0.0
  0
LINE
  5
243
100
AcDbEntity
  8
3201_7R
390
0
  6
DASHED
100
AcDbLine
 10
185.0342189541
 20
218.0736792015
 30
0.0
 11
191.9394816735
 21
212.0759693023
 31
0.0
  0
CIRCLE
  5
244
100
AcDbEntity
  8
3201_7R
390
0
  6
PHANTOM
100
AcDbCircle
 10
185.0342189541
 20
128.0709752415
 30
0.0
 40
1.0
  0
CIRCLE
  5
245
100
AcDbEntity
  8
3201_7R
390
0
  6
PHANTOM
100
AcDbCircle
 10
185.0342189541
 20
218.0736792015
 30
0.0
 40
0.5
  0
CIRCLE
  5
246
100
AcDbEntity
  8
3201_7L
390
0
  6
PHANTOM
100
AcDbCircle
 10
170.0342189541
 20
218.0736792022
 30
0.0
 40
0.5
  0
CIRCLE
  5
247
100
AcDbEntity
  8
3201_7L
390
0
  6
PHANTOM
100
AcDbCircle
 10
170.0342189541
 20
128.0709752415
 30
0.0
 40
1.0
  0
LINE
  5
248
100
AcDbEntity
  8
3201_7L
390
0
  6
DIVIDE
100
AcDbLine
 10
170.0342189541
 20
128.0709752415
 30
0.0
 11
185.0342189541
 21
128.0709752415
 31
0.0
  0
LINE
  5
249
100
AcDbEntity
  8
3201_7R
390
0
  6
DIVIDE
100
AcDbLine
 10
185.0342189541
 20
128.0709752415
 30
0.0
 11
200.0342189541
 21
128.0709752415
 31
0.0
  0
ARC
  5
24A
100
AcDbEntity
  8
3201_7R
390
0
  6
DASHED
100
AcDbCircle
 10
190.8120883643
 20
117.1484327983
 30
0.0
 40
14.295090977
100
AcDbArc
 50
49.8248992351
 51
105.323550184
  0
CIRCLE
  5
24B
100
AcDbEntity
  8
3201_8L
390
0
  6
PHANTOM
100
AcDbCircle
 10
170.0342189542
 20
109.6868165167
 30
0.0
 40
0.5
  0
CIRCLE
  5
24C
100
AcDbEntity
  8
3201_8L
390
0
  6
PHANTOM
100
AcDbCircle
 10
170.0342189539
 20
96.6837663247
 30
0.0
 40
1.0
  0
CIRCLE
  5
24D
100
AcDbEntity
  8
3201_8R
390
0
  6
PHANTOM
100
AcDbCircle
 10
185.0342189541
 20
109.6868165166
 30
0.0
 40
0.5
  0
CIRCLE
  5
24E
100
AcDbEntity
  8
3201_8R
390
0
  6
PHANTOM
100
AcDbCircle
 10
185.0342189541
 20
96.6837663253
 30
0.0
 40
1.0
  0
LINE
  5
24F
100
AcDbEntity
  8
3201_8L
390
0
  6
DIVIDE
100
AcDbLine
 10
170.0342189542
 20
109.6868165167
 30
0.0
 11
185.0342189541
 21
109.6868165166
 31
0.0
  0
LINE
  5
250
100
AcDbEntity
  8
3201_8L
390
0
  6
DIVIDE
100
AcDbLine
 10
170.0342189539
 20
96.6837663247
 30
0.0
 11
185.0342189541
 21
96.6837663253
 31
0.0
  0
LINE
  5
251
100
AcDbEntity
  8
3201_8L
390
0
100
AcDbLine
 10
172.0342189541
 20
108.6868165167
 30
0.0
 11
172.0342189541
 21
97.6837663247
 31
0.0
  0
ARC
  5
252
100
AcDbEntity
  8
3201_8L
390
0
  6
DASHED
100
AcDbCircle
 10
179.0783160737
 20
102.113553962
 30
0.0
 40
9.6346813566
100
AcDbArc
 50
51.8171376269
 51
136.9802730825
  0
ARC
  5
253
100
AcDbEntity
  8
3201_8L
390
0
  6
DASHED
100
AcDbCircle
 10
179.1983980777
 20
105.8180949368
 30
0.0
 40
10.8394079398
100
AcDbArc
 50
228.6285329667
 51
302.5740563287
  0
LINE
  5
254
100
AcDbEntity
  8
3201_8R
390
0
100
AcDbLine
 10
196.0342189535
 20
108.686929542
 30
0.0
 11
196.0343320101
 21
97.6838793505
 31
0.0
  0
LINE
  5
255
100
AcDbEntity
  8
3201_8R
390
0
  6
DIVIDE
100
AcDbLine
 10
185.0342189541
 20
109.6868165166
 30
0.0
 11
200.0342189542
 21
109.6868165167
 31
0.0
  0
LINE
  5
256
100
AcDbEntity
  8
3201_8R
390
0
  6
DIVIDE
100
AcDbLine
 10
200.0342189539
 20
96.6837663247
 30
0.0
 11
185.0342189541
 21
96.6837663253
 31
0.0
  0
LINE
  5
257
100
AcDbEntity
  8
3201_8R
390
0
  6
DASHED
100
AcDbLine
 10
200.0342189542
 20
109.6868165167
 30
0.0
 11
192.034275482
 21
103.1853633462
 31
0.0
  0
LINE
  5
258
100
AcDbEntity
  8
3201_8R
390
0
  6
DASHED
100
AcDbLine
 10
192.034275482
 20
103.1853633462
 30
0.0
 11
196.0342189535
 21
108.686929542
 31
0.0
  0
LINE
  5
259
100
AcDbEntity
  8
3201_8R
390
0
  6
DASHED
100
AcDbLine
 10
196.0343320101
 20
97.6838793505
 30
0.0
 11
200.0342189539
 21
96.6837663247
 31
0.0
  0
CIRCLE
  5
25A
100
AcDbEntity
  8
3201_3L
390
0
  6
PHANTOM
100
AcDbCircle
 10
170.0342189541
 20
76.1098899202
 30
0.0
 40
0.5
  0
CIRCLE
  5
25B
100
AcDbEntity
  8
3201_3L
390
0
  6
PHANTOM
100
AcDbCircle
 10
170.0342189539
 20
42.1098899202
 30
0.0
 40
1.0
  0
CIRCLE
  5
25C
100
AcDbEntity
  8
3201_3R
390
0
  6
PHANTOM
100
AcDbCircle
 10
185.0342189541
 20
76.1098899208
 30
0.0
 40
0.5
  0
CIRCLE
  5
25D
100
AcDbEntity
  8
3201_3R
390
0
  6
PHANTOM
100
AcDbCircle
 10
185.0342189541
 20
42.1098899208
 30
0.0
 40
1.0
  0
LINE
  5
25E
100
AcDbEntity
  8
3201_3R
390
0
  6
DIVIDE
100
AcDbLine
 10
185.0342189541
 20
76.1098899208
 30
0.0
 11
200.0342189541
 21
76.1098899208
 31
0.0
  0
LINE
  5
25F
100
AcDbEntity
  8
3201_3R
390
0
100
AcDbLine
 10
198.0342189541
 20
43.1098899202
 30
0.0
 11
198.0342189541
 21
55.1098899202
 31
0.0
  0
ARC
  5
260
100
AcDbEntity
  8
3201_3R
390
0
  6
DASHED
100
AcDbCircle
 10
194.8815076076
 20
74.754989274
 30
0.0
 40
5.3278691785
100
AcDbArc
 50
231.0781135469
 51
374.7323723049
  0
LINE
  5
261
100
AcDbEntity
  8
3201_3R
390
0
  6
DASHED
100
AcDbLine
 10
191.5342189541
 20
70.6098899202
 30
0.0
 11
198.0342189541
 21
75.1098899202
 31
0.0
  0
LINE
  5
262
100
AcDbEntity
  8
3201_3R
390
0
  6
DASHED
100
AcDbLine
 10
198.0342189541
 20
43.1098899202
 30
0.0
 11
191.5342189541
 21
47.6098899202
 31
0.0
  0
LINE
  5
263
100
AcDbEntity
  8
3201_3R
390
0
  6
DIVIDE
100
AcDbLine
 10
185.0342189541
 20
42.1098899208
 30
0.0
 11
200.0342189539
 21
42.1098899202
 31
0.0
  0
ARC
  5
264
100
AcDbEntity
  8
3201_3R
390
0
  6
DASHED
100
AcDbCircle
 10
194.2958230787
 20
42.5596417492
 30
0.0
 40
5.7559937395
100
AcDbArc
 50
355.5185540288
 51
478.6709601241
  0
LINE
  5
265
100
AcDbEntity
  8
3201_3L
390
0
  6
DIVIDE
100
AcDbLine
 10
185.0342189541
 20
76.1098899208
 30
0.0
 11
170.0342189541
 21
76.1098899202
 31
0.0
  0
LINE
  5
266
100
AcDbEntity
  8
3201_3L
390
0
  6
DIVIDE
100
AcDbLine
 10
185.0342189541
 20
42.1098899208
 30
0.0
 11
170.0342189539
 21
42.1098899202
 31
0.0
  0
LINE
  5
267
100
AcDbEntity
  8
3201_3L
390
0
  6
DASHED
100
AcDbLine
 10
185.0342189541
 20
76.1098899208
 30
0.0
 11
176.5342189541
 21
68.6098899202
 31
0.0
  0
LINE
  5
268
100
AcDbEntity
  8
3201_3L
390
0
  6
DASHED
100
AcDbLine
 10
176.5342189541
 20
68.6098899202
 30
0.0
 11
176.5342189541
 21
49.6098899202
 31
0.0
  0
LINE
  5
269
100
AcDbEntity
  8
3201_3L
390
0
  6
DASHED
100
AcDbLine
 10
176.5342189541
 20
49.6098899202
 30
0.0
 11
185.0342189541
 21
42.1098899208
 31
0.0
  0
CIRCLE
  5
26A
100
AcDbEntity
  8
3201_11P
390
0
  6
PHANTOM
100
AcDbCircle
 10
32.7779494371
 20
30.8268529554
 30
0.0
 40
0.5
  0
CIRCLE
  5
26B
100
AcDbEntity
  8
3201_11P
390
0
  6
PHANTOM
100
AcDbCircle
 10
32.7779494372
 20
10.8271537831
 30
0.0
 40
1.0
  0
INSERT
  5
26C
100
AcDbEntity
  8
BEMASSUNG
390
0
100
AcDbBlockReference
  2
D207210240
 10
0.0
 20
0.0
 30
0.0
  0
INSERT
  5
26D
100
AcDbEntity
  8
BEMASSUNG
390
0
100
AcDbBlockReference
  2
D207218176
 10
0.0
 20
0.0
 30
0.0
  0
INSERT
  5
26E
100
AcDbEntity
  8
BEMASSUNG
390
0
100
AcDbBlockReference
  2
D207217920
 10
0.0
 20
0.0
 30
0.0
  0
LINE
  5
26F
100
AcDbEntity
  8
3201_7R
390
0
100
AcDbLine
 10
187.0343319907
 20
207.0725741635
 30
0.0
 11
184.3106581016
 21
207.0725741635
 31
0.0
  0
LINE
  5
270
100
AcDbEntity
  8
3201_7R
390
0
 62
         5
100
AcDbLine
 10
187.0343319907
 20
202.3453172477
 30
0.0
 11
187.0343319907
 21
202.8453172477
 31
0.0
  0
LINE
  5
271
100
AcDbEntity
  8
3201_7R
390
0
 62
         5
100
AcDbLine
 10
188.0644816735
 20
202.3453172477
 30
0.0
 11
188.0644816735
 21
202.8453172477
 31
0.0
  0
LINE
  5
272
100
AcDbEntity
  8
3201_7R
390
0
 62
         5
100
AcDbLine
 10
195.8144816735
 20
152.3225741635
 30
0.0
 11
195.8144816735
 21
152.8225741635
 31
0.0
  0
LINE
  5
273
100
AcDbEntity
  8
3201_7R
390
0
 62
         5
100
AcDbLine
 10
189.5644816735
 20
154.0725741635
 30
0.0
 11
189.5644816735
 21
154.5725741635
 31
0.0
  0
LINE
  5
274
100
AcDbEntity
  8
3201_7R
390
0
 62
         5
100
AcDbLine
 10
187.0343319907
 20
154.0725741635
 30
0.0
 11
187.0343319907
 21
154.5725741635
 31
0.0
  0
LINE
  5
275
100
AcDbEntity
  8
MITTELLINIEN
390
0
100
AcDbLine
 10
35.0556438865
 20
179.8785407665
 30
0.0
 11
35.0556438865
 21
37.2564902047
 31
0.0
  0
LINE
  5
276
100
AcDbEntity
  8
MITTELLINIEN
390
0
100
AcDbLine
 10
85.0556438865
 20
179.8785407665
 30
0.0
 11
85.0556438865
 21
36.8944106852
 31
0.0
  0
ARC
  5
277
100
AcDbEntity
  8
3201_9P
390
0
  6
BORDER
 62
        14
100
AcDbCircle
 10
60.0556438865
 20
144.3785407665
 30
0.0
 40
25.5
100
AcDbArc
 50
180.0
 51
360.0
  0
ARC
  5
278
100
AcDbEntity
  8
3201_9P
390
0
  6
DIVIDE
100
AcDbCircle
 10
60.0556438865
 20
144.3785407665
 30
0.0
 40
30.3
100
AcDbArc
 50
214.4031427086
 51
510.0722479873
  0
ARC
  5
279
100
AcDbEntity
  8
3201_9P
390
0
  6
DIVIDE
100
AcDbCircle
 10
60.0556438865
 20
144.3785407665
 30
0.0
 40
28.7
100
AcDbArc
 50
209.4155977161
 51
510.5844022839
  0
ARC
  5
27A
100
AcDbEntity
  8
3201_9P
390
0
  6
DIVIDE
100
AcDbCircle
 10
60.0556438865
 20
144.3785407665
 30
0.0
 40
27.1
100
AcDbArc
 50
202.7042851322
 51
517.2957148678
  0
ARC
  5
27B
100
AcDbEntity
  8
3201_9P
390
0
  6
DIVIDE
100
AcDbCircle
 10
54.2435826651
 20
142.8664770383
 30
0.0
 40
24.734200166
100
AcDbArc
 50
140.8744856833
 51
219.1255143167
  0
ARC
  5
27C
100
AcDbEntity
  8
3201_9P
390
0
  6
DIVIDE
100
AcDbCircle
 10
54.722838287
 20
142.5606305062
 30
0.0
 40
23.1849894948
100
AcDbArc
 50
148.0242963524
 51
211.9757036476
  0
ARC
  5
27D
100
AcDbEntity
  8
3201_9P
390
0
  6
BORDER
100
AcDbCircle
 10
60.0556438865
 20
144.3785407665
 30
0.0
 40
25.5
100
AcDbArc
 50
0.0
 51
180.0
  0
ARC
  5
27E
100
AcDbEntity
  8
3201_9P
390
0
  6
DIVIDE
100
AcDbCircle
 10
44.5536729794
 20
139.6145493885
 30
0.0
 40
11.0750259409
100
AcDbArc
 50
154.5225248622
 51
210.9509567732
  0
TEXT
  5
27F
100
AcDbEntity
  8
3201_9P
390
0
  6
DIVIDE
100
AcDbText
 10
33.7963366439
 20
149.0078471467
 30
0.0
 40
1.5
  1
N1
 41
1.1350267802
  7
Arial
100
AcDbText
  0
LINE
  5
280
100
AcDbEntity
  8
3201_9P
390
0
  6
DIVIDE
100
AcDbLine
 10
75.8356442242
 20
159.9788448327
 30
0.0
 11
71.718074842
 21
153.1193727358
 31
0.0
  0
LINE
  5
281
100
AcDbEntity
  8
3201_9P
390
0
  6
DASHED
100
AcDbLine
 10
34.5556438865
 20
144.3785407665
 30
0.0
 11
41.4162791854
 21
135.8747317175
 31
0.0
  0
LINE
  5
282
100
AcDbEntity
  8
3201_9P
390
0
  6
DASHED
100
AcDbLine
 10
41.4162791854
 20
135.8747317175
 30
0.0
 11
42.9525080712
 21
130.5408117157
 31
0.0
  0
LINE
  5
283
100
AcDbEntity
  8
3201_9P
390
0
  6
DASHED
100
AcDbLine
 10
42.9525080712
 20
130.5408117157
 30
0.0
 11
60.0556438865
 21
144.3785407665
 31
0.0
  0
LINE
  5
284
100
AcDbEntity
  8
3201_9P
390
0
  6
DASHED
100
AcDbLine
 10
60.0556438865
 20
144.3785407665
 30
0.0
 11
71.718074842
 21
153.1193727358
 31
0.0
  0
CIRCLE
  5
285
100
AcDbEntity
  8
3201_9P
390
0
  6
PHANTOM
100
AcDbCircle
 10
35.0556438865
 20
175.8785407665
 30
0.0
 40
0.5
  0
CIRCLE
  5
286
100
AcDbEntity
  8
3201_9P
390
0
  6
PHANTOM
100
AcDbCircle
 10
35.0556438865
 20
112.8785407665
 30
0.0
 40
1.0
  0
ARC
  5
287
100
AcDbEntity
  8
3201_9P
390
0
  6
DASHED
100
AcDbCircle
 10
49.5282466315
 20
166.525805417
 30
0.0
 40
17.2316536853
100
AcDbArc
 50
147.1279490405
 51
204.0787149752
  0
ARC
  5
288
100
AcDbEntity
  8
3201_9P
390
0
  6
DASHED
100
AcDbCircle
 10
20.2602606801
 20
166.8926138798
 30
0.0
 40
56.0037807519
100
AcDbArc
 50
285.3185568681
 51
352.9086404796
  0
ARC
  5
289
100
AcDbEntity
  8
3201_9T
390
0
 62
        11
100
AcDbCircle
 10
60.0556438865
 20
72.7564902047
 30
0.0
 40
26.5
100
AcDbArc
 50
134.2935843359
 51
314.4327335901
  0
ARC
  5
28A
100
AcDbEntity
  8
3201_9T
390
0
  6
DASHED
100
AcDbCircle
 10
40.046212779
 20
100.0317409626
 30
0.0
 40
6.538676015
100
AcDbArc
 50
139.7505295695
 51
283.7498140526
  0
LINE
  5
28B
100
AcDbEntity
  8
3201_9T
390
0
100
AcDbLine
 10
41.6003432098
 20
93.6804448245
 30
0.0
 11
41.5497626303
 21
91.7244199529
 31
0.0
  0
LINE
  5
28C
100
AcDbEntity
  8
3201_9T
390
0
100
AcDbLine
 10
41.5497626303
 20
91.7244199529
 30
0.0
 11
38.2468209805
 21
90.3171064653
 31
0.0
  0
ARC
  5
28D
100
AcDbEntity
  8
3201_9T
390
0
  6
DASHED
100
AcDbCircle
 10
72.3328821713
 20
63.4658641112
 30
0.0
 40
43.3918054874
100
AcDbArc
 50
141.7707822298
 51
210.786026744
  0
ARC
  5
28E
100
AcDbEntity
  8
3201_9T
390
0
100
AcDbCircle
 10
60.0786494532
 20
72.7789899601
 30
0.0
 40
26.4999804623
100
AcDbArc
 50
314.3631589629
 51
494.363158963
  0
TEXT
  5
28F
100
AcDbEntity
  8
3201_9T
390
0
  6
DASHED
100
AcDbText
 10
37.2247380742
 20
87.0428395901
 30
0.0
 40
1.5
  1
N1
 41
1.1350267802
  7
Arial
100
AcDbText
  0
CIRCLE
  5
290
100
AcDbEntity
  8
MITTELLINIEN
390
0
100
AcDbCircle
 10
60.0556438865
 20
144.3785407665
 30
0.0
 40
31.3
  0
CIRCLE
  5
291
100
AcDbEntity
  8
MITTELLINIEN
390
0
100
AcDbCircle
 10
60.0556438865
 20
72.7564902047
 30
0.0
 40
31.3
  0
LINE
  5
292
100
AcDbEntity
  8
MITTELLINIEN
390
0
100
AcDbLine
 10
36.0439085975
 20
99.9801300864
 30
0.0
 11
47.8182581332
 21
86.6307970315
 31
0.0
  0
INSERT
  5
293
100
AcDbEntity
  8
BEMASSUNG
390
0
100
AcDbBlockReference
  2
D207217664
 10
0.0
 20
0.0
 30
0.0
  0
INSERT
  5
294
100
AcDbEntity
  8
BEMASSUNG
390
0
100
AcDbBlockReference
  2
D207217408
 10
0.0
 20
0.0
 30
0.0
  0
MTEXT
  5
295
100
AcDbEntity
  8
3201_1P
390
0
  6
DIVIDE
100
AcDbMText
 10
29.6733181309
 20
279.6299170775
 30
0.0
 40
1.5
 41
0.0
 71
         5
 72
         1
  1
\W0.972837;M55+x2 T2 O2\PP4 U15  I1.2\PD1.4      B-0.3
  7
Arial
 73
         1
 44
0.66
  0
MTEXT
  5
296
100
AcDbEntity
  8
3201_6L
390
0
  6
DIVIDE
100
AcDbMText
 10
170.2077654363
 20
271.2955507991
 30
0.0
 40
1.5
 41
0.0
 71
         5
 72
         1
  1
\W0.864839;M15x15x1 T1 O2\PP4 U15  I1.5\PD0.5      B-0.4
  7
Arial
 73
         1
 44
0.66
  0
TEXT
  5
297
100
AcDbEntity
  8
3201_6R
390
0
  6
DIVIDE
100
AcDbText
 10
180.5397960579
 20
270.3103805465
 30
0.0
 40
1.5
  1
@3201.6L
 41
0.8648212531
  7
Arial
 72
         1
 11
185.0683146197
 21
271.0603805465
 31
0.0
100
AcDbText
 73
         2
  0
MTEXT
  5
298
100
AcDbEntity
  8
3201_4P
390
0
  6
DIVIDE
100
AcDbMText
 10
122.9438183379
 20
176.4262764415
 30
0.0
 40
1.5
 41
0.0
 71
         5
 72
         1
  1
\W0.864827;M20+x5 T5 O2\PP4 U15  I1.5\PD1.4      B-0.4
  7
Arial
 73
         1
 44
0.66
  0
TEXT
  5
299
100
AcDbEntity
  8
3201_7R
390
0
  6
DIVIDE
100
AcDbText
 10
180.5397960579
 20
218.7510797048
 30
0.0
 40
1.5
  1
@3201.6L
 41
0.8648212531
  7
Arial
 72
         1
 11
185.0683146197
 21
219.5010797048
 31
0.0
100
AcDbText
 73
         2
  0
TEXT
  5
29A
100
AcDbEntity
  8
3201_7L
390
0
  6
DIVIDE
100
AcDbText
 10
165.5397960579
 20
218.7510797056
 30
0.0
 40
1.5
  1
@3201.6L
 41
0.8648212531
  7
Arial
 72
         1
 11
170.0683146197
 21
219.5010797056
 31
0.0
100
AcDbText
 73
         2
  0
TEXT
  5
29B
100
AcDbEntity
  8
3201_8R
390
0
  6
DIVIDE
100
AcDbText
 10
180.5397960579
 20
110.36421702
 30
0.0
 40
1.5
  1
@3201.6L
 41
0.8648212531
  7
Arial
 72
         1
 11
185.0683146197
 21
111.11421702
 31
0.0
100
AcDbText
 73
         2
  0
TEXT
  5
29C
100
AcDbEntity
  8
3201_8L
390
0
  6
DIVIDE
100
AcDbText
 10
165.5397960579
 20
109.86421702
 30
0.0
 40
1.5
  1
@3201.6L
 41
0.8648212531
  7
Arial
 72
         1
 11
170.0683146197
 21
110.61421702
 31
0.0
100
AcDbText
 73
         2
  0
TEXT
  5
29D
100
AcDbEntity
  8
3201_3R
390
0
  6
DIVIDE
100
AcDbText
 10
180.5397959879
 20
76.7872904241
 30
0.0
 40
1.5
  1
@3201.3L
 41
0.8648212665
  7
Arial
 72
         1
 11
185.0683146197
 21
77.5372904241
 31
0.0
100
AcDbText
 73
         2
  0
TEXT
  5
29E
100
AcDbEntity
  8
3201_2P
390
0
  6
DIVIDE
100
AcDbText
 10
94.9404963118
 20
264.8695282938
 30
0.0
 40
1.5
  1
@3201.1P
 41
0.8648177058
  7
Arial
 72
         1
 11
99.3101015621
 21
265.6195282938
 31
0.0
100
AcDbText
 73
         2
  0
MTEXT
  5
29F
100
AcDbEntity
  8
3201_9P
390
0
  6
DIVIDE
100
AcDbMText
 10
35.4451664535
 20
176.9188632694
 30
0.0
 40
1.5
 41
0.0
 71
         5
 72
         1
  1
\W0.864827;M50+x5 T5 O2\PP4 U15  I1.4\PD1.5      B-0.3
  7
Arial
 73
         1
 44
0.66
  0
TEXT
  5
2A0
100
AcDbEntity
  8
3201_11P
390
0
  6
DIVIDE
100
AcDbText
 10
28.4424398524
 20
31.5042534587
 30
0.0
 40
1.5
  1
@3201.1P
 41
0.8648177058
  7
Arial
 72
         1
 11
32.8120451027
 21
32.2542534587
 31
0.0
100
AcDbText
 73
         2
  0
CIRCLE
  5
2A1
100
AcDbEntity
  8
3201_9T
390
0
  6
PHANTOM
100
AcDbCircle
 10
35.0556438865
 20
104.2564902047
 30
0.0
 40
0.5
  0
CIRCLE
  5
2A2
100
AcDbEntity
  8
3201_9T
390
0
  6
PHANTOM
100
AcDbCircle
 10
35.0556438865
 20
41.2564902047
 30
0.0
 40
1.0
  0
ARC
  5
2A3
100
AcDbEntity
  8
3201_7L
390
0
100
AcDbCircle
 10
179.0378602355
 20
164.0772190417
 30
0.0
 40
0.6
100
AcDbArc
 50
180.1033649267
 51
360.1033649267
  0
ARC
  5
2A4
100
AcDbEntity
  8
3201___ EINZELHEBEL JE
390
0
100
AcDbCircle
 10
174.6534664955
 20
233.3316636265
 30
0.0
 40
151.5524856573
100
AcDbArc
 50
162.7278370275
 51
197.2721629725
  0
INSERT
  5
2A5
100
AcDbEntity
  8
BEMASSUNG
390
0
100
AcDbBlockReference
  2
D110842112
 10
0.0
 20
0.0
 30
0.0
  0
INSERT
  5
2A6
100
AcDbEntity
  8
BEMASSUNG
390
0
100
AcDbBlockReference
  2
D110841344
 10
0.0
 20
0.0
 30
0.0
  0
INSERT
  5
2A7
100
AcDbEntity
  8
BEMASSUNG
390
0
100
AcDbBlockReference
  2
D110841856
 10
0.0
 20
0.0
 30
0.0
  0
MTEXT
  5
2A8
100
AcDbEntity
  8
3201_9T
390
0
  6
DIVIDE
100
AcDbMText
 10
34.9099502913
 20
104.2799019994
 30
0.0
 40
1.5
 41
0.0
 71
         5
 72
         1
  1
\W0.864843;M50+x5 T5\PO6         I1\PW1.8 B1.8
  7
Arial
 73
         1
 44
0.66
  0
INSERT
  5
2A9
100
AcDbEntity
  8
BEMASSUNG
390
0
100
AcDbBlockReference
  2
D110839808
 10
0.0
 20
0.0
 30
0.0
  0
INSERT
  5
2AA
100
AcDbEntity
  8
BEMASSUNG
390
0
100
AcDbBlockReference
  2
D110840064
 10
0.0
 20
0.0
 30
0.0
  0
INSERT
  5
2AB
100
AcDbEntity
  8
BEMASSUNG
390
0
100
AcDbBlockReference
  2
D110839552
 10
0.0
 20
0.0
 30
0.0
  0
INSERT
  5
2AC
100
AcDbEntity
  8
BEMASSUNG
390
0
100
AcDbBlockReference
  2
D110843648
 10
0.0
 20
0.0
 30
0.0
  0
ARC
  5
2AD
100
AcDbEntity
  8
3201___ EINZELHEBEL JE
390
0
100
AcDbCircle
 10
174.6346709186
 20
226.689797761
 30
0.0
 40
84.1745398059
100
AcDbArc
 50
153.5427110322
 51
206.4572889678
  0
ARC
  5
2AE
100
AcDbEntity
  8
3201___ EINZELHEBEL JE
390
0
100
AcDbCircle
 10
187.1706701913
 20
249.636599606
 30
0.0
 40
26.3357342092
100
AcDbArc
 50
130.5937951101
 51
229.4062048899
  0
ARC
  5
2AF
100
AcDbEntity
  8
3201___ EINZELHEBEL JE
390
0
100
AcDbCircle
 10
260.1859501816
 20
173.0723272219
 30
0.0
 40
100.7593981888
100
AcDbArc
 50
153.4728469575
 51
206.5271530425
  0
ARC
  5
2B0
100
AcDbEntity
  8
3201___ EINZELHEBEL JE
390
0
100
AcDbCircle
 10
169.6519362927
 20
103.1852914207
 30
0.0
 40
6.5127543027
100
AcDbArc
 50
86.6349444265
 51
273.3650555714
  0
ARC
  5
2B1
100
AcDbEntity
  8
3201___ EINZELHEBEL JE
390
0
100
AcDbCircle
 10
184.1637840794
 20
59.1098899201
 30
0.0
 40
22.1053072956
100
AcDbArc
 50
129.7316949036
 51
230.2683050958
  0
ARC
  5
2B2
100
AcDbEntity
  8
3201___ EINZELHEBEL JE
390
0
100
AcDbCircle
 10
321.1324910824
 20
110.8900676487
 30
0.0
 40
208.6355030074
100
AcDbArc
 50
162.1374021269
 51
197.8637701528
  0
ARC
  5
2B3
100
AcDbEntity
  8
3201___ EINZELHEBEL JE
390
0
100
AcDbCircle
 10
83.0273328742
 20
144.3785407665
 30
0.0
 40
57.3893103664
100
AcDbArc
 50
146.7096043108
 51
213.2903956892
  0
ARC
  5
2B4
100
AcDbEntity
  8
3201___ EINZELHEBEL JE
390
0
100
AcDbCircle
 10
76.5399815822
 20
72.7564902047
 30
0.0
 40
52.0883890522
100
AcDbArc
 50
142.7897718356
 51
217.2102281644
  0
ARC
  5
2B5
100
AcDbEntity
  8
3201___ EINZELHEBEL JE
390
0
100
AcDbCircle
 10
39.5620825185
 20
20.8270033692
 30
0.0
 40
12.0839336895
100
AcDbArc
 50
124.1538912032
 51
235.8461087972
  0
MTEXT
  5
2B6
100
AcDbEntity
  8
BESCHRIFTUNG
390
0
100
AcDbMText
 10
44.0593158615
 20
105.7995707366
 30
0.0
 40
1.5
 41
0.0
 71
         7
 72
         1
  1
\W1.135085;Zu W und B:\P1,8+1,5 (Rille)\P+1,7(Rest) = 5
  7
Arial
 73
         1
 44
0.66
  0
MTEXT
  5
2B7
100
AcDbEntity
  8
3201___ EINZELHEBEL JE
390
0
100
AcDbMText
 10
22.5801778094
 20
230.9198221906
 30
0.0
 40
2.0
 41
0.0
 71
         5
 72
         1
  1
\W1.135110;>3201.1P\PM55+x2\PT2 O2
  7
Arial
 73
         1
 44
0.66
  0
MTEXT
  5
2B8
100
AcDbEntity
  8
3201___ EINZELHEBEL JE
390
0
100
AcDbMText
 10
90.4601311126
 20
226.689797761
 30
0.0
 40
2.0
 41
0.0
 71
         5
 72
         1
  1
\W1.135110;>3201.2P\PM55+x2\PT2 O2
  7
Arial
 73
         1
 44
0.66
  0
MTEXT
  5
2B9
100
AcDbEntity
  8
3201___ EINZELHEBEL JE
390
0
100
AcDbMText
 10
160.8349359821
 20
249.636599606
 30
0.0
 40
2.0
 41
0.0
 71
         5
 72
         1
  1
\W1.135145;>3201.6L\PM15x15x1\PT2 O2
  7
Arial
 73
         1
 44
0.66
  0
MTEXT
  5
2BA
100
AcDbEntity
  8
3201___ EINZELHEBEL JE
390
0
100
AcDbMText
 10
159.4265519928
 20
173.0723272219
 30
0.0
 40
2.0
 41
0.0
 71
         5
 72
         1
  1
\W1.135145;>3201.7L\PM15x15x1\PT2 O2
  7
Arial
 73
         1
 44
0.66
  0
MTEXT
  5
2BB
100
AcDbEntity
  8
3201___ EINZELHEBEL JE
390
0
100
AcDbMText
 10
163.13918199
 20
103.1852914208
 30
0.0
 40
2.0
 41
0.0
 71
         5
 72
         1
  1
\W1.135145;>3201.8L\PM15x15x1\PT2 O2
  7
Arial
 73
         1
 44
0.66
  0
MTEXT
  5
2BC
100
AcDbEntity
  8
3201___ EINZELHEBEL JE
390
0
100
AcDbMText
 10
162.0584767838
 20
59.1098899202
 30
0.0
 40
2.0
 41
0.0
 71
         5
 72
         1
  1
\W1.135145;>3201.3L\PM15x15x2\PT2 O2
  7
Arial
 73
         1
 44
0.66
  0
MTEXT
  5
2BD
100
AcDbEntity
  8
3201___ EINZELHEBEL JE
390
0
100
AcDbMText
 10
112.4969880859
 20
110.8879332929
 30
0.0
 40
2.0
 41
0.0
 71
         5
 72
         1
  1
\W1.135110;>3201.4P\PM20+x5\PT5 O2
  7
Arial
 73
         1
 44
0.66
  0
MTEXT
  5
2BE
100
AcDbEntity
  8
3201___ EINZELHEBEL JE
390
0
100
AcDbMText
 10
28.2724845278
 20
22.3257838132
 30
0.0
 40
2.0
 41
0.0
 71
         5
 72
         1
  1
\W1.135114;>3201.11P\PM55+x2\PT2 O2
  7
Arial
 73
         1
 44
0.66
  0
MTEXT
  5
2BF
100
AcDbEntity
  8
3201___ EINZELHEBEL JE
390
0
100
AcDbMText
 10
25.6380225078
 20
144.3785407665
 30
0.0
 40
2.0
 41
0.0
 71
         5
 72
         1
  1
\W1.135110;>3201.9P\PM50+x5\PT5 O2
  7
Arial
 73
         1
 44
0.66
  0
MTEXT
  5
2C0
100
AcDbEntity
  8
3201___ EINZELHEBEL JE
390
0
100
AcDbMText
 10
24.4515925301
 20
72.7564902047
 30
0.0
 40
2.0
 41
0.0
 71
         5
 72
         1
  1
\W1.135136;>3201.9T\PM50+x5\PT5 O6
  7
Arial
 73
         1
 44
0.66
  0
MTEXT
  5
2C1
100
AcDbEntity
  8
3201_3L
390
0
  6
DIVIDE
100
AcDbMText
 10
170.4448799559
 20
77.2767219655
 30
0.0
 40
1.5
 41
0.0
 71
         5
 72
         1
  1
\W0.864838;M15x15x2 T2 O2\PP4 U15  I1.2\PD1.5      B-0.3
  7
Arial
 73
         1
 44
0.66
  0
INSERT
  5
2C2
100
AcDbEntity
  8
BEMASSUNG
390
0
100
AcDbBlockReference
  2
D110840320
 10
0.0
 20
0.0
 30
0.0
  0
INSERT
  5
2C3
100
AcDbEntity
  8
BEMASSUNG
390
0
100
AcDbBlockReference
  2
D110843904
 10
0.0
 20
0.0
 30
0.0
  0
TEXT
  5
2C4
100
AcDbEntity
  8
BESCHRIFTUNG
390
0
100
AcDbText
 10
140.6231236723
 20
143.3785657091
 30
0.0
 40
3.0
  1
3201.12/0
 41
1.1351355805
  7
Arial
100
AcDbText
  0
TEXT
  5
2C5
100
AcDbEntity
  8
BESCHRIFTUNG
390
0
100
AcDbText
 10
140.6231236723
 20
149.7790635754
 30
0.0
 40
3.5
  1
M
 41
1.1350193204
  7
Arial
100
AcDbText
  0
TEXT
  5
2C6
100
AcDbEntity
  8
BESCHRIFTUNG
390
0
100
AcDbText
 10
141.4828378378
 20
132.0720554765
 30
0.0
 40
3.0
  1
h=3
 41
1.1351584656
  7
Arial
100
AcDbText
  0
ARC
  5
2C7
100
AcDbEntity
  8
3201 HEBELBOCK
390
0
100
AcDbCircle
 10
50.9657743597
 20
253.334068016
 30
0.0
 40
20.0
100
AcDbArc
 50
46.7316897196
 51
217.2768821194
  0
ARC
  5
2C8
100
AcDbEntity
  8
3201 HEBELBOCK
390
0
100
AcDbCircle
 10
38.3408012344
 20
244.450215464
 30
0.0
 40
0.9998477068
100
AcDbArc
 50
327.0005887156
 51
507.0005887156
  0
ARC
  5
2C9
100
AcDbEntity
  8
3201 HEBELBOCK
390
0
100
AcDbCircle
 10
63.2136297338
 20
263.5248013926
 30
0.0
 40
1.0
100
AcDbArc
 50
149.0005887156
 51
329.0005887156
  0
LINE
  5
2CA
100
AcDbEntity
  8
3201 HEBELBOCK
390
0
100
AcDbLine
 10
39.1793496738
 20
243.9056679899
 30
0.0
 11
34.6224139163
 21
236.8884444244
 31
0.0
  0
LINE
  5
2CB
100
AcDbEntity
  8
3201 HEBELBOCK
390
0
100
AcDbLine
 10
37.5022527951
 20
244.9947629381
 30
0.0
 11
35.0514159157
 21
241.2207201997
 31
0.0
  0
LINE
  5
2CC
100
AcDbEntity
  8
3201 HEBELBOCK
390
0
100
AcDbLine
 10
62.3564571411
 20
264.0398306601
 30
0.0
 11
64.6740888447
 21
267.8971073272
 31
0.0
  0
LINE
  5
2CD
100
AcDbEntity
  8
3201 HEBELBOCK
390
0
100
AcDbLine
 10
64.0708023265
 20
263.0097721252
 30
0.0
 11
68.7514291743
 21
270.7998246599
 31
0.0
  0
ARC
  5
2CE
100
AcDbEntity
  8
3201_2P
390
0
100
AcDbCircle
 10
124.2760058966
 20
254.1874677315
 30
0.0
 40
10.0
100
AcDbArc
 50
115.8419327632
 51
171.2127789525
  0
ARC
  5
2CF
100
AcDbEntity
  8
3201_2P
390
0
  6
DIVIDE
100
AcDbCircle
 10
124.2760058966
 20
254.1874677315
 30
0.0
 40
10.0
100
AcDbArc
 50
64.1580672368
 51
115.8419327632
  0
INSERT
  5
2D0
100
AcDbEntity
  8
BEMASSUNG
390
0
100
AcDbBlockReference
  2
D110840576
 10
0.0
 20
0.0
 30
0.0
  0
LINE
  5
2D1
100
AcDbEntity
  8
3201 HEBELKLINKE
390
0
100
AcDbLine
 10
190.5644816735
 20
143.8648394345
 30
0.0
 11
194.8144816735
 21
145.8466469816
 31
0.0
  0
ARC
  5
2D2
100
AcDbEntity
  8
3201_7R
390
0
100
AcDbCircle
 10
190.5644816735
 20
143.8648394345
 30
0.0
 40
1.0
100
AcDbArc
 50
180.0
 51
295.0
  0
LINE
  5
2D3
100
AcDbEntity
  8
3201_7R
390
0
100
AcDbLine
 10
189.5644816735
 20
143.8648394345
 30
0.0
 11
189.5644816735
 21
154.5725741635
 31
0.0
  0
CIRCLE
  5
2D4
100
AcDbEntity
  8
3201_6L
390
0
100
AcDbCircle
 10
174.0342189541
 20
233.6383916056
 30
0.0
 40
1.25
  0
LINE
  5
2D5
100
AcDbEntity
  8
3201_6L
390
0
  6
DASHED
100
AcDbLine
 10
174.0342189541
 20
233.6383916056
 30
0.0
 11
182.5341227263
 21
232.6375740078
 31
0.0
  0
LINE
  5
2D6
100
AcDbEntity
  8
3201_6L
390
0
  6
DASHED
100
AcDbLine
 10
182.5341227263
 20
232.6375740078
 30
0.0
 11
183.2160657428
 21
253.6595251983
 31
0.0
  0
ARC
  5
2D7
100
AcDbEntity
  8
3201_6L
390
0
  6
DASHED
100
AcDbCircle
 10
177.5359740105
 20
248.3840632074
 30
0.0
 40
20.1906440864
100
AcDbArc
 50
248.1889991176
 51
291.7999784907
  0
LINE
  5
2D8
100
AcDbEntity
  8
3201_6R
390
0
  6
DASHED
100
AcDbLine
 10
185.0342189541
 20
269.6329800431
 30
0.0
 11
189.9092189541
 21
233.637333518
 31
0.0
  0
LINE
  5
2D9
100
AcDbEntity
  8
3201_6R
390
0
  6
DASHED
100
AcDbLine
 10
189.9092189541
 20
233.637333518
 30
0.0
 11
182.4890276247
 21
252.006355751
 31
0.0
  0
ARC
  5
2DA
100
AcDbEntity
  8
3201_7L
390
0
  6
DASHED
100
AcDbCircle
 10
372.5470981804
 20
164.9439177807
 30
0.0
 40
191.1038821354
100
AcDbArc
 50
167.2645880738
 51
191.1248245962
  0
LINE
  5
2DB
100
AcDbEntity
  8
3201 HEBELKLINKE
390
0
  6
DASHED
100
AcDbLine
 10
181.0342908906
 20
159.0725741635
 30
0.0
 11
181.0343319907
 21
155.0725741635
 31
0.0
  0
ARC
  5
2DC
100
AcDbEntity
  8
3201_7L
390
0
  6
DASHED
100
AcDbCircle
 10
201.8027604381
 20
178.0780614284
 30
0.0
 40
26.2159516897
100
AcDbArc
 50
150.2631212897
 51
212.2772611713
  0
ARC
  5
2DD
100
AcDbEntity
  8
3201_7R
390
0
  6
DASHED
100
AcDbCircle
 10
229.804969074
 20
191.7260012736
 30
0.0
 40
48.013015218
100
AcDbArc
 50
161.3592319947
 51
207.6737532489
  0
ARC
  5
2DE
100
AcDbEntity
  8
3201_7R
390
0
  6
DASHED
100
AcDbCircle
 10
21.9851522035
 20
209.0480110761
 30
0.0
 40
169.9813008441
100
AcDbArc
 50
346.5209174934
 51
361.0206911149
  0
LINE
  5
2DF
100
AcDbEntity
  8
3201_7R
390
0
100
AcDbLine
 10
190.9870999353
 20
142.9585316474
 30
0.0
 11
195.8144816735
 21
145.2095767208
 31
0.0
  0
LINE
  5
2E0
100
AcDbEntity
  8
3201_7R
390
0
100
AcDbLine
 10
199.0644816735
 20
157.3225741635
 30
0.0
 11
199.0644816735
 21
152.3225741635
 31
0.0
  0
LINE
  5
2E1
100
AcDbEntity
  8
3201 HEBELKLINKE
390
0
  6
DASHED
100
AcDbLine
 10
181.0342908906
 20
159.0725741635
 30
0.0
 11
186.0343319907
 21
159.0725741635
 31
0.0
  0
LINE
  5
2E2
100
AcDbEntity
  8
3201 HEBELKLINKE
390
0
100
AcDbLine
 10
186.0343319907
 20
155.0725741635
 30
0.0
 11
190.5644816735
 21
155.0725741635
 31
0.0
  0
LINE
  5
2E3
100
AcDbEntity
  8
3201 HEBELKLINKE
390
0
  6
DASHED
100
AcDbLine
 10
186.0343319907
 20
159.0725741635
 30
0.0
 11
190.5644405734
 21
159.0725741635
 31
0.0
  0
LINE
  5
2E4
100
AcDbEntity
  8
3201_7L
390
0
100
AcDbLine
 10
180.0342806155
 20
160.0725741635
 30
0.0
 11
186.0343319907
 21
160.0725741635
 31
0.0
  0
LINE
  5
2E5
100
AcDbEntity
  8
3201_7L
390
0
100
AcDbLine
 10
180.0343422657
 20
154.0725741635
 30
0.0
 11
186.0343319907
 21
154.0725741635
 31
0.0
  0
LINE
  5
2E6
100
AcDbEntity
  8
3201_7L
390
0
100
AcDbLine
 10
180.0342806155
 20
160.0725741635
 30
0.0
 11
180.0343422657
 21
154.0725741635
 31
0.0
  0
LINE
  5
2E7
100
AcDbEntity
  8
3201_7L
390
0
  6
DASHED
100
AcDbLine
 10
179.6378592591
 20
164.0783014761
 30
0.0
 11
186.0343319907
 21
160.0725741635
 31
0.0
  0
LINE
  5
2E8
100
AcDbEntity
  8
3201 HEBELKLINKE
390
0
  6
DASHED
100
AcDbLine
 10
190.5644405734
 20
159.0725741635
 30
0.0
 11
190.5644816735
 21
155.0725741635
 31
0.0
  0
LINE
  5
2E9
100
AcDbEntity
  8
3201_3R
390
0
100
AcDbLine
 10
192.0342189541
 20
63.1098899202
 30
0.0
 11
198.0342189541
 21
63.1098899202
 31
0.0
  0
LINE
  5
2EA
100
AcDbEntity
  8
3201_3R
390
0
100
AcDbLine
 10
198.0342189541
 20
55.1098899202
 30
0.0
 11
192.0342189541
 21
55.1098899202
 31
0.0
  0
LINE
  5
2EB
100
AcDbEntity
  8
3201_3R
390
0
100
AcDbLine
 10
192.0342189541
 20
55.1098899202
 30
0.0
 11
192.0342189541
 21
63.1098899202
 31
0.0
  0
LINE
  5
2EC
100
AcDbEntity
  8
3201_3R
390
0
100
AcDbLine
 10
198.0342189541
 20
63.1098899202
 30
0.0
 11
198.0342189541
 21
75.1098899202
 31
0.0
  0
LINE
  5
2ED
100
AcDbEntity
  8
3201 HEBELBOCK
390
0
100
AcDbLine
 10
197.0342189541
 20
64.1098899202
 30
0.0
 11
191.0342189541
 21
64.1098899202
 31
0.0
  0
LINE
  5
2EE
100
AcDbEntity
  8
3201 HEBELBOCK
390
0
100
AcDbLine
 10
191.0342189541
 20
64.1098899202
 30
0.0
 11
191.0342189541
 21
54.1098899202
 31
0.0
  0
LINE
  5
2EF
100
AcDbEntity
  8
3201 HEBELBOCK
390
0
100
AcDbLine
 10
191.0342189541
 20
54.1098899202
 30
0.0
 11
197.0342189541
 21
54.1098899202
 31
0.0
  0
LINE
  5
2F0
100
AcDbEntity
  8
3201 HEBELBOCK
390
0
100
AcDbLine
 10
197.0342189541
 20
64.1098899202
 30
0.0
 11
197.0342189541
 21
75.1098899202
 31
0.0
  0
CIRCLE
  5
2F1
100
AcDbEntity
  8
3201_1P
390
0
100
AcDbCircle
 10
77.4657743597
 20
197.834068016
 30
0.0
 40
1.25
  0
ARC
  5
2F2
100
AcDbEntity
  8
3201 HEBELBOCK
390
0
100
AcDbCircle
 10
70.4657743597
 20
269.769766125
 30
0.0
 40
2.0
100
AcDbArc
 50
0.0
 51
149.0005887156
  0
LINE
  5
2F3
100
AcDbEntity
  8
3201_1P
390
0
100
AcDbLine
 10
73.4657743597
 20
205.6115074429
 30
0.0
 11
73.4657743597
 21
274.0
 31
0.0
  0
ARC
  5
2F4
100
AcDbEntity
  8
3201_1P
390
0
  6
DIVIDE
100
AcDbCircle
 10
70.4657743597
 20
269.769766125
 30
0.0
 40
3.0
100
AcDbArc
 50
0.0
 51
149.0005887156
  0
ARC
  5
2F5
100
AcDbEntity
  8
3201_1P
390
0
  6
DASHED
100
AcDbCircle
 10
70.6224768358
 20
272.5520693806
 30
0.0
 40
2.9956448109
100
AcDbArc
 50
93.6074503885
 51
204.3937270426
  0
ARC
  5
2F6
100
AcDbEntity
  8
3201_1P
390
0
  6
DASHED
100
AcDbCircle
 10
75.7328871798
 20
271.8848830625
 30
0.0
 40
3.100567722
100
AcDbArc
 50
223.013515192
 51
496.986484808
  0
ARC
  5
2F7
100
AcDbEntity
  8
3201_1P
390
0
  6
DASHED
100
AcDbCircle
 10
68.9657743597
 20
203.5347840099
 30
0.0
 40
10.2346549938
100
AcDbArc
 50
213.8486693193
 51
326.1513306807
  0
LINE
  5
2F8
100
AcDbEntity
  8
MITTELLINIEN
390
0
100
AcDbLine
 10
32.7779494371
 20
35.8268529554
 30
0.0
 11
32.7779494372
 21
5.827153783
 31
0.0
  0
ARC
  5
2F9
100
AcDbEntity
  8
3201-3204 WINKELHEBEL
390
0
100
AcDbCircle
 10
46.0302580596
 20
22.3312438567
 30
0.0
 40
1.6
100
AcDbArc
 50
252.9638948121
 51
432.9638948121
  0
ARC
  5
2FA
100
AcDbEntity
  8
3201-3204 WINKELHEBEL
390
0
100
AcDbCircle
 10
60.2329256341
 20
17.5213753407
 30
0.0
 40
4.0
100
AcDbArc
 50
252.9638948121
 51
307.9679486135
  0
CIRCLE
  5
2FB
100
AcDbEntity
  8
3201_11P
390
0
100
AcDbCircle
 10
60.2329256341
 20
17.5213753407
 30
0.0
 40
1.25
  0
LINE
  5
2FC
100
AcDbEntity
  8
3201-3204 WINKELHEBEL
390
0
100
AcDbLine
 10
34.1238780614
 20
21.3381324515
 30
0.0
 11
34.9552795393
 21
24.0514077943
 31
0.0
  0
LINE
  5
2FD
100
AcDbEntity
  8
3201-3204 WINKELHEBEL
390
0
100
AcDbLine
 10
35.8927971915
 20
27.1109928401
 30
0.0
 11
46.4990168857
 21
23.8610363796
 31
0.0
  0
LINE
  5
2FE
100
AcDbEntity
  8
3201-3204 WINKELHEBEL
390
0
100
AcDbLine
 10
35.8927971915
 20
27.1109928401
 30
0.0
 11
36.7249906951
 21
29.8268529554
 31
0.0
  0
LINE
  5
2FF
100
AcDbEntity
  8
3201-3204 WINKELHEBEL
390
0
100
AcDbLine
 10
34.9552795393
 20
24.0514077943
 30
0.0
 11
45.5614992336
 21
20.8014513339
 31
0.0
  0
LINE
  5
300
100
AcDbEntity
  8
3201-3204 WINKELHEBEL
390
0
100
AcDbLine
 10
34.1238780614
 20
21.3381324515
 30
0.0
 11
59.061028569
 21
13.6968940335
 31
0.0
  0
ARC
  5
301
100
AcDbEntity
  8
3201-3204 WINKELHEBEL
390
0
100
AcDbCircle
 10
70.8757185755
 20
25.8268529554
 30
0.0
 40
4.0
100
AcDbArc
 50
307.9679486135
 51
450.0
  0
LINE
  5
302
100
AcDbEntity
  8
3201-3204 WINKELHEBEL
390
0
100
AcDbLine
 10
36.7249906951
 20
29.8268529554
 30
0.0
 11
70.8757185755
 21
29.8268529554
 31
0.0
  0
LINE
  5
303
100
AcDbEntity
  8
3201-3204 WINKELHEBEL
390
0
100
AcDbLine
 10
62.6938078903
 20
14.3679552099
 30
0.0
 11
73.3366008317
 21
22.6734328246
 31
0.0
  0
CIRCLE
  5
304
100
AcDbEntity
  8
3201_11P
390
0
100
AcDbCircle
 10
70.8757185755
 20
25.8268529554
 30
0.0
 40
1.25
  0
LINE
  5
305
100
AcDbEntity
  8
3201 HEBELBOCK
390
0
100
AcDbLine
 10
72.4657743597
 20
205.0096212378
 30
0.0
 11
72.4657743597
 21
269.769766125
 31
0.0
  0
LINE
  5
306
100
AcDbEntity
  8
3201 HEBELBOCK
390
0
100
AcDbLine
 10
69.9657743597
 20
189.334068016
 30
0.0
 11
79.3383382383
 21
194.299452829
 31
0.0
  0
LINE
  5
307
100
AcDbEntity
  8
3201 HEBELBOCK
390
0
100
AcDbLine
 10
72.4657743597
 20
205.0096212378
 30
0.0
 11
79.3383382383
 21
201.3686832031
 31
0.0
  0
ARC
  5
308
100
AcDbEntity
  8
3201 HEBELBOCK
390
0
100
AcDbCircle
 10
77.4657743597
 20
197.834068016
 30
0.0
 40
4.0
100
AcDbArc
 50
297.9136903702
 51
422.0863096298
  0
LINE
  5
309
100
AcDbEntity
  8
3201_1P
390
0
100
AcDbLine
 10
73.4657743597
 20
205.6115074429
 30
0.0
 11
79.806479208
 21
202.2523369998
 31
0.0
  0
ARC
  5
30A
100
AcDbEntity
  8
3201_1P
390
0
100
AcDbCircle
 10
77.4657743597
 20
197.834068016
 30
0.0
 40
5.0
100
AcDbArc
 50
297.9136903702
 51
422.0863096298
  0
LINE
  5
30B
100
AcDbEntity
  8
3201_1P
390
0
100
AcDbLine
 10
70.2143024971
 20
188.334068016
 30
0.0
 11
79.806479208
 21
193.4157990322
 31
0.0
  0
LINE
  5
30C
100
AcDbEntity
  8
3201_11P
390
0
  6
DIVIDE
100
AcDbLine
 10
35.9855171017
 20
30.8268529554
 30
0.0
 11
70.8757185755
 21
30.8268529554
 31
0.0
  0
LINE
  5
30D
100
AcDbEntity
  8
3201_11P
390
0
  6
DIVIDE
100
AcDbLine
 10
32.8747834683
 20
20.674986391
 30
0.0
 11
58.7680543027
 21
12.7407737067
 31
0.0
  0
LINE
  5
30E
100
AcDbEntity
  8
3201_11P
390
0
100
AcDbLine
 10
32.8747834683
 20
20.674986391
 30
0.0
 11
34.2921334788
 21
25.3005023874
 31
0.0
  0
LINE
  5
30F
100
AcDbEntity
  8
3201_11P
390
0
100
AcDbLine
 10
34.2921334788
 20
25.3005023874
 30
0.0
 11
45.8544734998
 21
21.7575716607
 31
0.0
  0
LINE
  5
310
100
AcDbEntity
  8
3201_11P
390
0
100
AcDbLine
 10
34.6437025984
 20
26.4478467796
 30
0.0
 11
46.2060426194
 21
22.9049160528
 31
0.0
  0
ARC
  5
311
100
AcDbEntity
  8
3201_11P
390
0
100
AcDbCircle
 10
46.0302580596
 20
22.3312438567
 30
0.0
 40
0.6
100
AcDbArc
 50
252.9638948121
 51
432.9638948121
  0
LINE
  5
312
100
AcDbEntity
  8
3201_11P
390
0
100
AcDbLine
 10
34.6437025984
 20
26.4478467796
 30
0.0
 11
35.9855171017
 21
30.8268529554
 31
0.0
  0
ARC
  5
313
100
AcDbEntity
  8
3201_11P
390
0
100
AcDbCircle
 10
70.8757185755
 20
25.8268529554
 30
0.0
 40
5.0
100
AcDbArc
 50
307.9679486135
 51
450.0
  0
LINE
  5
314
100
AcDbEntity
  8
3201_11P
390
0
100
AcDbLine
 10
63.3090284544
 20
13.5796001772
 30
0.0
 11
73.9518213957
 21
21.8850777919
 31
0.0
  0
ARC
  5
315
100
AcDbEntity
  8
3201_11P
390
0
100
AcDbCircle
 10
60.2329256341
 20
17.5213753407
 30
0.0
 40
5.0
100
AcDbArc
 50
252.9638948121
 51
307.9679486135
  0
LINE
  5
316
100
AcDbEntity
  8
3201_11P
390
0
  6
DASHED
100
AcDbLine
 10
32.7779494371
 20
30.8268529554
 30
0.0
 11
70.8757185755
 21
25.8268529554
 31
0.0
  0
LINE
  5
317
100
AcDbEntity
  8
3201_11P
390
0
  6
DASHED
100
AcDbLine
 10
70.8757185755
 20
25.8268529554
 30
0.0
 11
60.2329256341
 21
17.5213753407
 31
0.0
  0
LINE
  5
318
100
AcDbEntity
  8
3201_11P
390
0
  6
DASHED
100
AcDbLine
 10
60.2329256341
 20
17.5213753407
 30
0.0
 11
45.8544734998
 21
21.7575716607
 31
0.0
  0
LINE
  5
319
100
AcDbEntity
  8
3201_11P
390
0
  6
DASHED
100
AcDbLine
 10
45.8544734998
 20
21.7575716607
 30
0.0
 11
32.7779494372
 21
10.8271537831
 31
0.0
  0
LINE
  5
31A
100
AcDbEntity
  8
MITTELLINIEN
390
0
100
AcDbLine
 10
87.7779494371
 20
35.8268529555
 30
0.0
 11
87.7779494372
 21
5.8271537832
 31
0.0
  0
INSERT
  5
31B
100
AcDbEntity
  8
BEMASSUNG
390
0
100
AcDbBlockReference
  2
D110843136
 10
0.0
 20
0.0
 30
0.0
  0
ARC
  5
31C
100
AcDbEntity
  8
3201_4P
390
0
  6
DASHED
100
AcDbCircle
 10
117.6963772486
 20
126.0158899398
 30
0.0
 40
12.3454916945
100
AcDbArc
 50
331.5881086964
 51
388.4130687347
  0
CIRCLE
  5
31D
100
AcDbEntity
  8
3201_4P
390
0
100
AcDbCircle
 10
128.5548525146
 20
109.1418214965
 30
0.0
 40
1.25
  0
ARC
  5
31E
100
AcDbEntity
  8
3201_4P
390
0
  6
DASHED
100
AcDbCircle
 10
159.9509553681
 20
98.6422977077
 30
0.0
 40
33.1052152112
100
AcDbArc
 50
161.5089700517
 51
198.4927680609
  0
CIRCLE
  5
31F
100
AcDbEntity
  8
3201_1P
390
0
100
AcDbCircle
 10
60.0396806097
 20
210.334068016
 30
0.0
 40
1.25
  0
ARC
  5
320
100
AcDbEntity
  8
3201_1P
390
0
  6
DASHED
100
AcDbCircle
 10
80.2986665576
 20
220.1801173533
 30
0.0
 40
22.5249017576
100
AcDbArc
 50
205.9201686626
 51
262.7749414098
  0
ARC
  5
321
100
AcDbEntity
  8
3201_1P
390
0
  6
DASHED
100
AcDbCircle
 10
30.8209205163
 20
236.5051958868
 30
0.0
 40
39.2258062432
100
AcDbArc
 50
318.149321666
 51
367.4931576112
  0
LINE
  5
322
100
AcDbEntity
  8
STANDARD
390
0
100
AcDbLine
 10
10.0
 20
5.0
 30
0.0
 11
10.0
 21
292.0
 31
0.0
  0
LINE
  5
323
100
AcDbEntity
  8
STANDARD
390
0
100
AcDbLine
 10
15.0
 20
287.0
 30
0.0
 11
205.0
 21
287.0
 31
0.0
  0
LINE
  5
324
100
AcDbEntity
  8
STANDARD
390
0
100
AcDbLine
 10
10.0
 20
292.0
 30
0.0
 11
15.0
 21
292.0
 31
0.0
  0
LINE
  5
325
100
AcDbEntity
  8
STANDARD
390
0
100
AcDbLine
 10
10.0
 20
5.0
 30
0.0
 11
15.0
 21
5.0
 31
0.0
  0
LINE
  5
326
100
AcDbEntity
  8
STANDARD
390
0
100
AcDbLine
 10
10.0
 20
244.1666666667
 30
0.0
 11
15.0
 21
244.1666666667
 31
0.0
  0
LINE
  5
327
100
AcDbEntity
  8
STANDARD
390
0
100
AcDbLine
 10
10.0
 20
196.3333333333
 30
0.0
 11
15.0
 21
196.3333333333
 31
0.0
  0
LINE
  5
328
100
AcDbEntity
  8
STANDARD
390
0
100
AcDbLine
 10
10.0
 20
148.5
 30
0.0
 11
15.0
 21
148.5
 31
0.0
  0
LINE
  5
329
100
AcDbEntity
  8
STANDARD
390
0
100
AcDbLine
 10
10.0
 20
100.6666666667
 30
0.0
 11
15.0
 21
100.6666666667
 31
0.0
  0
LINE
  5
32A
100
AcDbEntity
  8
STANDARD
390
0
100
AcDbLine
 10
10.0
 20
52.8333333333
 30
0.0
 11
15.0
 21
52.8333333333
 31
0.0
  0
LINE
  5
32B
100
AcDbEntity
  8
STANDARD
390
0
100
AcDbLine
 10
157.5
 20
292.0
 30
0.0
 11
157.5
 21
287.0
 31
0.0
  0
LINE
  5
32C
100
AcDbEntity
  8
STANDARD
390
0
100
AcDbLine
 10
110.0
 20
292.0
 30
0.0
 11
110.0
 21
287.0
 31
0.0
  0
LINE
  5
32D
100
AcDbEntity
  8
STANDARD
390
0
100
AcDbLine
 10
62.5
 20
292.0
 30
0.0
 11
62.5
 21
287.0
 31
0.0
  0
TEXT
  5
32E
100
AcDbEntity
  8
STANDARD
390
0
100
AcDbText
 10
10.9491078691
 20
267.8641561278
 30
0.0
 40
2.23125
  1
A
 41
1.547986837
  7
Arial
 72
         1
 11
12.6760806841
 21
270.0954061278
 31
0.0
100
AcDbText
 73
         3
  0
TEXT
  5
32F
100
AcDbEntity
  8
STANDARD
390
0
100
AcDbText
 10
10.9491074243
 20
220.0308227945
 30
0.0
 40
2.23125
  1
B
 41
1.5479872357
  7
Arial
 72
         1
 11
12.6760806841
 21
222.2620727945
 31
0.0
100
AcDbText
 73
         3
  0
TEXT
  5
330
100
AcDbEntity
  8
STANDARD
390
0
100
AcDbText
 10
10.9489779593
 20
172.1974894612
 30
0.0
 40
2.23125
  1
C
 41
1.5481032827
  7
Arial
 72
         1
 11
12.6760806841
 21
174.4287394612
 31
0.0
100
AcDbText
 73
         3
  0
TEXT
  5
331
100
AcDbEntity
  8
STANDARD
390
0
100
AcDbText
 10
10.9489771034
 20
124.3641561278
 30
0.0
 40
2.23125
  1
D
 41
1.54810405
  7
Arial
 72
         1
 11
12.6760806841
 21
126.5954061278
 31
0.0
100
AcDbText
 73
         3
  0
TEXT
  5
332
100
AcDbEntity
  8
STANDARD
390
0
100
AcDbText
 10
10.9491076096
 20
76.5308227945
 30
0.0
 40
2.23125
  1
E
 41
1.5479870696
  7
Arial
 72
         1
 11
12.6760806841
 21
78.7620727945
 31
0.0
100
AcDbText
 73
         3
  0
TEXT
  5
333
100
AcDbEntity
  8
STANDARD
390
0
100
AcDbText
 10
10.9493506612
 20
28.6974894612
 30
0.0
 40
2.23125
  1
F
 41
1.5477692083
  7
Arial
 72
         1
 11
12.6760806841
 21
30.9287394612
 31
0.0
100
AcDbText
 73
         3
  0
TEXT
  5
334
100
AcDbEntity
  8
STANDARD
390
0
100
AcDbText
 10
36.7048241449
 20
288.48599354
 30
0.0
 40
2.23125
  1
1
 41
1.5479225906
  7
Arial
 72
         1
 11
38.0
 21
290.71724354
 31
0.0
100
AcDbText
 73
         3
  0
TEXT
  5
335
100
AcDbEntity
  8
STANDARD
390
0
100
AcDbText
 10
83.7730999712
 20
288.48599354
 30
0.0
 40
2.23125
  1
2
 41
1.5479215945
  7
Arial
 72
         1
 11
85.5
 21
290.71724354
 31
0.0
100
AcDbText
 73
         3
  0
TEXT
  5
336
100
AcDbEntity
  8
STANDARD
390
0
100
AcDbText
 10
131.2730986376
 20
288.48599354
 30
0.0
 40
2.23125
  1
3
 41
1.5479227899
  7
Arial
 72
         1
 11
133.0
 21
290.71724354
 31
0.0
100
AcDbText
 73
         3
  0
TEXT
  5
337
100
AcDbEntity
  8
STANDARD
390
0
100
AcDbText
 10
178.7730988598
 20
288.48599354
 30
0.0
 40
2.23125
  1
4
 41
1.5479225906
  7
Arial
 72
         1
 11
180.5
 21
290.71724354
 31
0.0
100
AcDbText
 73
         3
  0
LINE
  5
338
100
AcDbEntity
  8
STANDARD
390
0
100
AcDbLine
 10
205.0
 20
292.0
 30
0.0
 11
205.0
 21
287.0
 31
0.0
  0
LINE
  5
339
100
AcDbEntity
  8
STANDARD
390
0
100
AcDbLine
 10
205.0
 20
5.0
 30
0.0
 11
15.0
 21
5.0
 31
0.0
  0
LINE
  5
33A
100
AcDbEntity
  8
STANDARD
390
0
100
AcDbLine
 10
15.0
 20
5.0
 30
0.0
 11
15.0
 21
287.0
 31
0.0
  0
LINE
  5
33B
100
AcDbEntity
  8
STANDARD
390
0
100
AcDbLine
 10
15.0
 20
292.0
 30
0.0
 11
205.0
 21
292.0
 31
0.0
  0
LINE
  5
33C
100
AcDbEntity
  8
STANDARD
390
0
100
AcDbLine
 10
1.0
 20
1.0
 30
0.0
 11
1.0
 21
296.0
 31
0.0
  0
LINE
  5
33D
100
AcDbEntity
  8
STANDARD
390
0
100
AcDbLine
 10
209.0
 20
1.0
 30
0.0
 11
1.0
 21
1.0
 31
0.0
  0
LINE
  5
33E
100
AcDbEntity
  8
STANDARD
390
0
100
AcDbLine
 10
209.0
 20
296.0
 30
0.0
 11
209.0
 21
1.0
 31
0.0
  0
LINE
  5
33F
100
AcDbEntity
  8
STANDARD
390
0
100
AcDbLine
 10
1.0
 20
296.0
 30
0.0
 11
209.0
 21
296.0
 31
0.0
  0
LINE
  5
340
100
AcDbEntity
  8
STANDARD
390
0
100
AcDbLine
 10
15.0
 20
287.0
 30
0.0
 11
15.0
 21
292.0
 31
0.0
  0
LINE
  5
341
100
AcDbEntity
  8
STANDARD
390
0
100
AcDbLine
 10
205.0
 20
287.0
 30
0.0
 11
205.0
 21
5.0
 31
0.0
  0
MTEXT
  5
342
100
AcDbEntity
  8
STANDARD
390
0
100
AcDbMText
 10
203.6063292805
 20
81.4222772661
 30
0.0
 40
1.59375
 41
0.0
 71
         1
 72
         1
  1

  7
Arial
 11
0.0
 21
-1.0
 31
0.0
 73
         1
 44
1.0352941176
  0
MTEXT
  5
343
100
AcDbEntity
  8
STANDARD
390
0
100
AcDbMText
 10
124.6968769253
 20
27.5871143065
 30
0.0
 40
1.59375
 41
0.0
 71
         1
 72
         1
  1

  7
Arial
 11
0.0
 21
-1.0
 31
0.0
 73
         1
 44
1.0352941176
  0
MTEXT
  5
344
100
AcDbEntity
  8
STANDARD
390
0
100
AcDbMText
 10
203.6063292805
 20
125.7560948498
 30
0.0
 40
1.59375
 41
0.0
 71
         1
 72
         1
  1

  7
Arial
 11
0.0
 21
-1.0
 31
0.0
 73
         1
 44
1.0352941176
  0
LINE
  5
345
100
AcDbEntity
  8
STANDARD
390
0
100
AcDbLine
 10
205.0
 20
182.1150997151
 30
0.0
 11
205.0
 21
5.1236467236
 31
0.0
  0
LINE
  5
346
100
AcDbEntity
  8
STANDARD
370
         0
390
0
100
AcDbLine
 10
135.305982906
 20
34.4
 30
0.0
 11
135.305982906
 21
5.0
 31
0.0
  0
LINE
  5
347
100
AcDbEntity
  8
STANDARD
370
         0
390
0
100
AcDbLine
 10
89.105982906
 20
34.4
 30
0.0
 11
205.0
 21
34.4
 31
0.0
  0
LINE
  5
348
100
AcDbEntity
  8
STANDARD
370
         0
390
0
100
AcDbLine
 10
89.105982906
 20
27.4
 30
0.0
 11
205.0
 21
27.4
 31
0.0
  0
LINE
  5
349
100
AcDbEntity
  8
STANDARD
370
         0
390
0
100
AcDbLine
 10
89.105982906
 20
12.0
 30
0.0
 11
205.0
 21
12.0
 31
0.0
  0
LINE
  5
34A
100
AcDbEntity
  8
STANDARD
370
         0
390
0
100
AcDbLine
 10
89.105982906
 20
34.4
 30
0.0
 11
89.105982906
 21
5.0
 31
0.0
  0
LINE
  5
34B
100
AcDbEntity
  8
STANDARD
370
         0
390
0
100
AcDbLine
 10
173.105982906
 20
34.4
 30
0.0
 11
173.105982906
 21
27.4
 31
0.0
  0
TEXT
  5
34C
100
AcDbEntity
  8
BESCHRIFTUNG
390
0
100
AcDbText
 10
90.2010860399
 20
29.1386
 30
0.0
 40
3.3
  1
Stellwerk HMM
 41
1.3758039542
 51
15.0
  7
Arial
 11
90.2010860399
 21
32.4386
 31
0.0
100
AcDbText
 73
         3
  0
TEXT
  5
34D
100
AcDbEntity
  8
BESCHRIFTUNG
390
0
100
AcDbText
 10
136.6210415954
 20
21.6601111111
 30
0.0
 40
3.3
  1
Einzelhebel JE
 41
1.1302116931
 51
15.0
  7
Arial
 11
136.6210415954
 21
24.9601111111
 31
0.0
100
AcDbText
 73
         3
  0
TEXT
  5
34E
100
AcDbEntity
  8
BESCHRIFTUNG
390
0
100
AcDbText
 10
90.2010860399
 20
6.9230888889
 30
0.0
 40
3.3
  1
Dateiname
 41
1.1437088374
 51
15.0
  7
Arial
 11
90.2010860399
 21
10.2230888889
 31
0.0
100
AcDbText
 73
         3
  0
TEXT
  5
34F
100
AcDbEntity
  8
BESCHRIFTUNG
390
0
100
AcDbText
 10
90.4210415954
 20
21.6601111111
 30
0.0
 40
3.3
  1
Bl. 3201 Pv
 41
1.1437155269
 51
15.0
  7
Arial
 11
90.4210415954
 21
24.9601111111
 31
0.0
100
AcDbText
 73
         3
  0
TEXT
  5
350
100
AcDbEntity
  8
BESCHRIFTUNG
390
0
100
AcDbText
 10
174.2010860399
 20
29.1386
 30
0.0
 40
3.3
  1
Maßstab 1:1
 41
1.1437192123
 51
15.0
  7
Arial
 11
174.2010860399
 21
32.4386
 31
0.0
100
AcDbText
 73
         3
  0
ENDSEC
  0
SECTION
  2
OBJECTS
  0
DICTIONARY
  5
19
100
AcDbDictionary
280
         0
281
         1
  3
ACAD_GROUP
350
1A
  3
ACAD_MLINESTYLE
350
1B
  3
ACAD_LAYOUT
350
1E
  3
ACAD_PLOTSETTINGS
350
22
  3
ACAD_PLOTSTYLENAME
350
1F
  3
ACAD_WIPEOUT_VARS
350
23
  0
DICTIONARY
  5
1A
102
{ACAD_REACTORS
330
19
102
}
100
AcDbDictionary
280
         0
281
         1
  0
DICTIONARY
  5
1B
102
{ACAD_REACTORS
330
19
102
}
100
AcDbDictionary
280
         0
281
         1
  3
Standard
350
1C
  0
MLINESTYLE
  5
1C
102
{ACAD_REACTORS
330
1B
102
}
100
AcDbMlineStyle
  2
Standard
 70
         0
  3

 62
         0
 51
90.0
 52
90.0
 71
         2
 49
0.5
 62
       256
  6
ByLayer
 49
-0.5
 62
       256
  6
ByLayer
  0
ACDBDICTIONARYWDFLT
  5
1F
102
{ACAD_REACTORS
330
19
102
}
100
AcDbDictionary
281
         1
  3
Normal
350
1D
100
AcDbDictionaryWithDefault
340
1D
  0
ACDBPLACEHOLDER
  5
1D
102
{ACAD_REACTORS
330
1F
102
}
  0
LAYOUT
  5
20
102
{ACAD_REACTORS
330
1E
102
}
100
AcDbPlotSettings
  1

  2

  4

  6

 40
0.0
 41
0.0
 42
0.0
 43
0.0
 44
0.0
 45
0.0
 46
0.0
 47
0.0
 48
0.0
 49
0.0
140
0.0
141
0.0
142
1.0
143
1.0
 70
      1024
 72
         0
 73
         0
 74
         0
  7

 75
         0
147
1.0
148
0.0
149
0.0
100
AcDbLayout
  1
Model
 70
         0
 71
         0
 10
0.0
 20
0.0
 11
0.0
 21
0.0
 12
0.0
 22
0.0
 32
0.0
 14
0.0
 24
0.0
 34
0.0
 15
0.0
 25
0.0
 35
0.0
146
0.0
 13
0.0
 23
0.0
 33
0.0
 16
0.0
 26
0.0
 36
0.0
 17
0.0
 27
0.0
 37
0.0
 76
         0
330
A
331
0
345
0
346
0
  0
LAYOUT
  5
21
102
{ACAD_REACTORS
330
1E
102
}
100
AcDbPlotSettings
  1

  2

  4

  6

 40
0.0
 41
0.0
 42
0.0
 43
0.0
 44
0.0
 45
0.0
 46
0.0
 47
0.0
 48
0.0
 49
0.0
140
0.0
141
0.0
142
1.0
143
1.0
 70
         0
 72
         0
 73
         0
 74
         0
  7

 75
         0
147
1.0
148
0.0
149
0.0
100
AcDbLayout
  1
Layout1
 70
         0
 71
         0
 10
0.0
 20
0.0
 11
0.0
 21
0.0
 12
0.0
 22
0.0
 32
0.0
 14
0.0
 24
0.0
 34
0.0
 15
0.0
 25
0.0
 35
0.0
146
0.0
 13
0.0
 23
0.0
 33
0.0
 16
0.0
 26
0.0
 36
0.0
 17
0.0
 27
0.0
 37
0.0
 76
         0
330
B
331
0
345
0
346
0
  0
DICTIONARY
  5
1E
102
{ACAD_REACTORS
330
19
102
}
100
AcDbDictionary
280
         0
281
         1
  3
Layout1
350
21
  3
Model
350
20
  0
DICTIONARY
  5
22
102
{ACAD_REACTORS
330
19
102
}
100
AcDbDictionary
280
         0
281
         1
  0
WIPEOUTVARIABLES
  5
23
100
AcDbWipeoutVariables
 70
         1
  0
ENDSEC
  0
EOF
