  0
SECTION
  2
HEADER
  9
$ACADVER
  1
AC1015
  9
$ACADMAINTVER
 70
         6
  9
$DWGCODEPAGE
  3
ANSI_1252
  9
$INSBASE
 10
0.0
 20
0.0
 30
0.0
  9
$EXTMIN
 10
-81.8297271729
 20
0.0
 30
0.0
  9
$EXTMAX
 10
210.0
 20
297.0
 30
0.0
  9
$LIMMIN
 10
-81.8297271729
 20
0.0
  9
$LIMMAX
 10
210.0
 20
297.0
  9
$ORTHOMODE
 70
         0
  9
$REGENMODE
 70
         1
  9
$FILLMODE
 70
         1
  9
$QTEXTMODE
 70
         0
  9
$MIRRTEXT
 70
         1
  9
$LTSCALE
 40
7.2957431793
  9
$ATTMODE
 70
         1
  9
$TEXTSIZE
 40
0.2
  9
$TRACEWID
 40
0.05
  9
$TEXTSTYLE
  7
Standard
  9
$CLAYER
  8
0
  9
$CELTYPE
  6
CONTINUOUS
  9
$CECOLOR
 62
       256
  9
$CELTSCALE
 40
1.0
  9
$DISPSILH
 70
         0
  9
$DIMSCALE
 40
1.0
  9
$DIMASZ
 40
0.18
  9
$DIMEXO
 40
0.0625
  9
$DIMDLI
 40
0.38
  9
$DIMRND
 40
0.0
  9
$DIMDLE
 40
0.0
  9
$DIMEXE
 40
0.18
  9
$DIMTP
 40
0.0
  9
$DIMTM
 40
0.0
  9
$DIMTXT
 40
3.0
  9
$DIMCEN
 40
0.09
  9
$DIMTSZ
 40
0.0
  9
$DIMTOL
 70
         0
  9
$DIMLIM
 70
         0
  9
$DIMTIH
 70
         1
  9
$DIMTOH
 70
         1
  9
$DIMSE1
 70
         0
  9
$DIMSE2
 70
         0
  9
$DIMTAD
 70
         1
  9
$DIMZIN
 70
         0
  9
$DIMBLK
  1

  9
$DIMASO
 70
         1
  9
$DIMSHO
 70
         1
  9
$DIMPOST
  1
<>
  9
$DIMAPOST
  1

  9
$DIMALT
 70
         0
  9
$DIMALTD
 70
         2
  9
$DIMALTF
 40
25.4
  9
$DIMLFAC
 40
1.0
  9
$DIMTOFL
 70
         0
  9
$DIMTVP
 40
0.0
  9
$DIMTIX
 70
         0
  9
$DIMSOXD
 70
         0
  9
$DIMSAH
 70
         0
  9
$DIMBLK1
  1

  9
$DIMBLK2
  1

  9
$DIMSTYLE
  2
Standard
  9
$DIMCLRD
 70
         0
  9
$DIMCLRE
 70
         0
  9
$DIMCLRT
 70
         0
  9
$DIMTFAC
 40
1.0
  9
$DIMGAP
 40
0.09
  9
$DIMJUST
 70
         0
  9
$DIMSD1
 70
         0
  9
$DIMSD2
 70
         0
  9
$DIMTOLJ
 70
         1
  9
$DIMTZIN
 70
         0
  9
$DIMALTZ
 70
         0
  9
$DIMALTTZ
 70
         0
  9
$DIMUPT
 70
         0
  9
$DIMDEC
 70
         4
  9
$DIMTDEC
 70
         4
  9
$DIMALTU
 70
         2
  9
$DIMALTTD
 70
         2
  9
$DIMTXSTY
  7
Standard
  9
$DIMAUNIT
 70
         0
  9
$DIMADEC
 70
         0
  9
$DIMALTRND
 40
0.0
  9
$DIMAZIN
 70
         0
  9
$DIMDSEP
 70
         0
  9
$DIMATFIT
 70
         3
  9
$DIMFRAC
 70
         0
  9
$DIMLDRBLK
  1

  9
$DIMLUNIT
 70
         2
  9
$DIMLWD
 70
         0
  9
$DIMLWE
 70
         0
  9
$DIMTMOVE
 70
         0
  9
$LUNITS
 70
         2
  9
$LUPREC
 70
         4
  9
$SKETCHINC
 40
0.1
  9
$FILLETRAD
 40
0.0
  9
$AUNITS
 70
         0
  9
$AUPREC
 70
         0
  9
$MENU
  1
acad
  9
$ELEVATION
 40
0.0
  9
$PELEVATION
 40
0.0
  9
$THICKNESS
 40
0.0
  9
$LIMCHECK
 70
         0
  9
$CHAMFERA
 40
0.0
  9
$CHAMFERB
 40
0.0
  9
$CHAMFERC
 40
0.0
  9
$CHAMFERD
 40
0.0
  9
$SKPOLY
 70
         0
  9
$TDCREATE
 40
0.000000000
  9
$TDUCREATE
 40
0.000000000
  9
$TDUPDATE
 40
0.000000000
  9
$TDUUPDATE
 40
0.000000000
  9
$TDINDWG
 40
0.0000000000
  9
$TDUSRTIMER
 40
0.0000000000
  9
$USRTIMER
 70
         1
  9
$ANGBASE
 50
0.0
  9
$ANGDIR
 70
         0
  9
$PDMODE
 70
         0
  9
$PDSIZE
 40
0.0
  9
$PLINEWID
 40
0.0
  9
$SPLFRAME
 70
         0
  9
$SPLINETYPE
 70
         6
  9
$SPLINESEGS
 70
         8
  9
$HANDSEED
  5
291
  9
$SURFTAB1
 70
         6
  9
$SURFTAB2
 70
         6
  9
$SURFTYPE
 70
         6
  9
$SURFU
 70
         6
  9
$SURFV
 70
         6
  9
$UCSBASE
  2

  9
$UCSNAME
  2

  9
$UCSORG
 10
0.0
 20
0.0
 30
0.0
  9
$UCSXDIR
 10
1.0
 20
0.0
 30
0.0
  9
$UCSYDIR
 10
0.0
 20
1.0
 30
0.0
  9
$UCSORTHOREF
  2

  9
$UCSORTHOVIEW
 70
         0
  9
$UCSORGTOP
 10
0.0
 20
0.0
 30
0.0
  9
$UCSORGBOTTOM
 10
0.0
 20
0.0
 30
0.0
  9
$UCSORGLEFT
 10
0.0
 20
0.0
 30
0.0
  9
$UCSORGRIGHT
 10
0.0
 20
0.0
 30
0.0
  9
$UCSORGFRONT
 10
0.0
 20
0.0
 30
0.0
  9
$UCSORGBACK
 10
0.0
 20
0.0
 30
0.0
  9
$PUCSBASE
  2

  9
$PUCSNAME
  2

  9
$PUCSORG
 10
0.0
 20
0.0
 30
0.0
  9
$PUCSXDIR
 10
1.0
 20
0.0
 30
0.0
  9
$PUCSYDIR
 10
0.0
 20
1.0
 30
0.0
  9
$PUCSORTHOREF
  2

  9
$PUCSORTHOVIEW
 70
         0
  9
$PUCSORGTOP
 10
0.0
 20
0.0
 30
0.0
  9
$PUCSORGBOTTOM
 10
0.0
 20
0.0
 30
0.0
  9
$PUCSORGLEFT
 10
0.0
 20
0.0
 30
0.0
  9
$PUCSORGRIGHT
 10
0.0
 20
0.0
 30
0.0
  9
$PUCSORGFRONT
 10
0.0
 20
0.0
 30
0.0
  9
$PUCSORGBACK
 10
0.0
 20
0.0
 30
0.0
  9
$USERI1
 70
         0
  9
$USERI2
 70
         0
  9
$USERI3
 70
         0
  9
$USERI4
 70
         0
  9
$USERI5
 70
         0
  9
$USERR1
 40
0.0
  9
$USERR2
 40
0.0
  9
$USERR3
 40
0.0
  9
$USERR4
 40
0.0
  9
$USERR5
 40
0.0
  9
$WORLDVIEW
 70
         1
  9
$SHADEDGE
 70
         3
  9
$SHADEDIF
 70
        70
  9
$TILEMODE
 70
         1
  9
$MAXACTVP
 70
        16
  9
$PINSBASE
 10
0.0
 20
0.0
 30
0.0
  9
$PLIMCHECK
 70
         0
  9
$PEXTMIN
 10
1.0000000000E+20
 20
1.0000000000E+20
 30
1.0000000000E+20
  9
$PEXTMAX
 10
-1.0000000000E+20
 20
-1.0000000000E+20
 30
-1.0000000000E+20
  9
$PLIMMIN
 10
0.0
 20
0.0
  9
$PLIMMAX
 10
12.0
 20
9.0
  9
$UNITMODE
 70
         0
  9
$VISRETAIN
 70
         0
  9
$PLINEGEN
 70
         1
  9
$PSLTSCALE
 70
         0
  9
$TREEDEPTH
 70
      3020
  9
$CMLSTYLE
  2
Standard
  9
$CMLJUST
 70
         0
  9
$CMLSCALE
 40
1.0
  9
$PROXYGRAPHICS
 70
         0
  9
$MEASUREMENT
 70
         1
  9
$CELWEIGHT
370
         0
  9
$ENDCAPS
280
         0
  9
$JOINSTYLE
280
         0
  9
$LWDISPLAY
290
         0
  9
$INSUNITS
 70
         0
  9
$HYPERLINKBASE
  1

  9
$STYLESHEET
  1

  9
$XEDIT
290
         1
  9
$CEPSNTYPE
380
         0
  9
$PSTYLEMODE
290
         1
  9
$FINGERPRINTGUID
  2

  9
$VERSIONGUID
  2

  9
$EXTNAMES
290
         1
  9
$PSVPSCALE
 40
0.0
  0
ENDSEC
  0
SECTION
  2
CLASSES
  0
CLASS
  1
LWPOLYLINE
  2
AcDbPolyline
  3
AutoCAD 2000
 90
        0
280
         0
281
         1
  0
CLASS
  1
IMAGE
  2
AcDbRasterImage
  3
ISM
 90
      127
280
         0
281
         1
  0
CLASS
  1
OLE2FRAME
  2
AcDbOle2Frame
  3
AutoCAD 2000
 90
        0
280
         0
281
         1
  0
CLASS
  1
HATCH
  2
AcDbHatch
  3
AutoCAD 2000
 90
        0
280
         0
281
         1
  0
CLASS
  1
DICTIONARYVAR
  2
AcDbDictionaryVar
  3
AutoCAD 2000
 90
        0
280
         0
281
         0
  0
CLASS
  1
RASTERVARIABLES
  2
AcDbRasterVariables
  3
ISM
 90
        0
280
         0
281
         0
  0
CLASS
  1
IMAGEDEF
  2
AcDbRasterImageDef
  3
ISM
 90
        0
280
         0
281
         0
  0
CLASS
  1
IMAGEDEF_REACTOR
  2
AcDbRasterImageDefReactor
  3
ISM
 90
        1
280
         0
281
         0
  0
CLASS
  1
IDBUFFER
  2
AcDbIdBuffer
  3
AutoCAD 2000
 90
        0
280
         0
281
         0
  0
CLASS
  1
SPATIAL_FILTER
  2
AcDbSpatialFilter
  3
AutoCAD 2000
 90
        0
280
         0
281
         0
  0
CLASS
  1
XRECORD
  2
AcDbXrecord
  3
AutoCAD 2000
 90
        0
280
         0
281
         0
  0
CLASS
  1
SORTENTSTABLE
  2
AcDbSortentsTable
  3
AutoCAD 2000
 90
        0
280
         0
281
         0
  0
CLASS
  1
LAYER_INDEX
  2
AcDbLayerIndex
  3
AutoCAD 2000
 90
        0
280
         0
281
         0
  0
CLASS
  1
SPATIAL_INDEX
  2
AcDbSpatialIndex
  3
AutoCAD 2000
 90
        0
280
         0
281
         0
  0
CLASS
  1
OBJECT_PTR
  2
CAseDLPNTableRecord
  3
"ASE-LPNTableRecord"
 90
        1
280
         0
281
         0
  0
CLASS
  1
LAYOUT
  2
AcDbLayout
  3
AutoCAD 2000
 90
        0
280
         0
281
         0
  0
CLASS
  1
PLOTSETTINGS
  2
AcDbPlotSettings
  3
AutoCAD 2000
 90
        0
280
         0
281
         0
  0
CLASS
  1
ACDBDICTIONARYWDFLT
  2
AcDbDictionaryWithDefault
  3
AutoCAD 2000
 90
        0
280
         0
281
         0
  0
CLASS
  1
ACDBPLACEHOLDER
  2
AcDbPlaceHolder
  3
AutoCAD 2000
 90
        0
280
         0
281
         0
  0
CLASS
  1
VBA_PROJECT
  2
AcDbVbaProject
  3
acadvba
 90
        0
280
         0
281
         0
  0
CLASS
  1
WIPEOUT
  2
AcDbWipeout
  3
WipeOut|AutoCAD Express Tool|expresstools@autodesk.com
 90
      127
280
         0
281
         1
  0
CLASS
  1
WIPEOUTVARIABLES
  2
AcDbWipeoutVariables
  3
WipeOut|AutoCAD Express Tool|expresstools@autodesk.com
 90
        0
280
         0
281
         0
  0
CLASS
  1
RTEXT
  2
RText
  3
RText|AutoCAD Express Tool|expresstools@autodesk.com
 90
        0
280
         0
281
         1
  0
CLASS
  1
ARCALIGNEDTEXT
  2
AcDbArcAlignedText
  3
ATEXT|AutoCAD Express Tool|expresstools@autodesk.com
 90
        0
280
         0
281
         1
  0
ENDSEC
  0
SECTION
  2
TABLES
  0
TABLE
  2
VPORT
  5
7
100
AcDbSymbolTable
 70
         1
  0
VPORT
  5
15
100
AcDbSymbolTableRecord
100
AcDbViewportTableRecord
  2
*ACTIVE
 70
         0
 10
0.0
 20
0.0
 11
1.0
 21
1.0
 12
105.0
 22
148.5
 13
0.0
 23
0.0
 14
1.0
 24
1.0
 15
0.0
 25
0.0
 16
0.0
 26
0.0
 36
1.0
 17
0.0
 27
0.0
 37
0.0
 40
231.2943892345
 41
1.0
 42
50.0
 43
0.0
 44
0.0
 50
0.0
 51
0.0
 71
         0
 72
       100
 73
         1
 74
         1
 75
         0
 76
         0
 77
         0
 78
         0
281
         0
 65
         0
110
0.0
120
0.0
130
0.0
111
1.0
121
0.0
131
0.0
112
0.0
122
1.0
132
0.0
345
0
346
0
 79
         0
146
0.0
  0
ENDTAB
  0
TABLE
  2
LTYPE
  5
4
100
AcDbSymbolTable
 70
        12
  0
LTYPE
  5
11
100
AcDbSymbolTableRecord
100
AcDbLinetypeTableRecord
  2
ByBlock
 70
        64
  3

 72
        65
 73
         0
 40
0.0
  0
LTYPE
  5
12
100
AcDbSymbolTableRecord
100
AcDbLinetypeTableRecord
  2
ByLayer
 70
        64
  3

 72
        65
 73
         0
 40
0.0
  0
LTYPE
  5
13
100
AcDbSymbolTableRecord
100
AcDbLinetypeTableRecord
  2
CONTINUOUS
 70
        64
  3
Solid Line
 72
        65
 73
         0
 40
0.0
  0
LTYPE
  5
24
100
AcDbSymbolTableRecord
100
AcDbLinetypeTableRecord
  2
DOT
 70
        64
  3
. . . . . . . . . . . . . . . . . . . . . . 
 72
        65
 73
         2
 40
0.25
 49
0.0
 74
         0
 49
-0.25
 74
         0
  0
LTYPE
  5
25
100
AcDbSymbolTableRecord
100
AcDbLinetypeTableRecord
  2
HIDDEN
 70
         0
  3
_ _ _ _ _ _ _ _ _ _ _ _ _ _ _ _ _ _ _ _ _ _ _
 72
        65
 73
         2
 40
0.375
 49
0.25
 74
         0
 49
-0.125
 74
         0
  0
LTYPE
  5
26
100
AcDbSymbolTableRecord
100
AcDbLinetypeTableRecord
  2
DASHDOT
 70
         0
  3
__ . __ . __ . __ . __ . __ . __ . __ . __ . __
 72
        65
 73
         4
 40
1.0
 49
0.5
 74
         0
 49
-0.25
 74
         0
 49
0.0
 74
         0
 49
-0.25
 74
         0
  0
LTYPE
  5
27
100
AcDbSymbolTableRecord
100
AcDbLinetypeTableRecord
  2
DIVIDE
 70
         0
  3
__ . . __ . . __ . . __ . . __ . . __ . . __
 72
        65
 73
         6
 40
1.25
 49
0.5
 74
         0
 49
-0.25
 74
         0
 49
0.0
 74
         0
 49
-0.25
 74
         0
 49
0.0
 74
         0
 49
-0.25
 74
         0
  0
LTYPE
  5
28
100
AcDbSymbolTableRecord
100
AcDbLinetypeTableRecord
  2
DASHED
 70
         0
  3
__ __ __ __ __ __ __ __ __ __ __ __ __ __ __
 72
        65
 73
         2
 40
0.75
 49
0.5
 74
         0
 49
-0.25
 74
         0
  0
LTYPE
  5
29
100
AcDbSymbolTableRecord
100
AcDbLinetypeTableRecord
  2
BORDER
 70
         0
  3
__ __ . __ __ . __ __ . __ __ . __ __ .
 72
        65
 73
         6
 40
1.75
 49
0.5
 74
         0
 49
-0.25
 74
         0
 49
0.5
 74
         0
 49
-0.25
 74
         0
 49
0.0
 74
         0
 49
-0.25
 74
         0
  0
LTYPE
  5
2A
100
AcDbSymbolTableRecord
100
AcDbLinetypeTableRecord
  2
CENTER
 70
         0
  3
____ _ ____ _ ____ _ ____ _ ____ _ ____
 72
        65
 73
         4
 40
2.0
 49
1.25
 74
         0
 49
-0.25
 74
         0
 49
0.25
 74
         0
 49
-0.25
 74
         0
  0
LTYPE
  5
2B
100
AcDbSymbolTableRecord
100
AcDbLinetypeTableRecord
  2
DOT2
 70
         0
  3
........................................
 72
        65
 73
         2
 40
0.125
 49
0.0
 74
         0
 49
-0.125
 74
         0
  0
LTYPE
  5
2C
100
AcDbSymbolTableRecord
100
AcDbLinetypeTableRecord
  2
PHANTOM
 70
         0
  3
______  __  __  ______  __  __  ______
 72
        65
 73
         6
 40
2.5
 49
1.25
 74
         0
 49
-0.25
 74
         0
 49
0.25
 74
         0
 49
-0.25
 74
         0
 49
0.25
 74
         0
 49
-0.25
 74
         0
  0
ENDTAB
  0
TABLE
  2
LAYER
  5
2
100
AcDbSymbolTable
 70
       161
  0
LAYER
  5
14
100
AcDbSymbolTableRecord
100
AcDbLayerTableRecord
  2
0
 70
         0
 62
         7
  6
CONTINUOUS
290
         1
370
        -3
390
1D
  0
LAYER
  5
33
100
AcDbSymbolTableRecord
100
AcDbLayerTableRecord
  2
BESCHRIFTUNG
 70
        64
 62
         7
  6
CONTINUOUS
290
         1
370
        25
390
1D
  0
LAYER
  5
34
100
AcDbSymbolTableRecord
100
AcDbLayerTableRecord
  2
SCHRAFFUR
 70
        64
 62
         7
  6
CONTINUOUS
290
         1
370
        25
390
1D
  0
LAYER
  5
35
100
AcDbSymbolTableRecord
100
AcDbLayerTableRecord
  2
MASSTEXTE
 70
        64
 62
       212
  6
CONTINUOUS
290
         1
370
        25
390
1D
  0
LAYER
  5
36
100
AcDbSymbolTableRecord
100
AcDbLayerTableRecord
  2
MASSLINIEN
 70
        64
 62
       172
  6
CONTINUOUS
290
         1
370
        25
390
1D
  0
LAYER
  5
37
100
AcDbSymbolTableRecord
100
AcDbLayerTableRecord
  2
MASSGRENZEN
 70
        64
 62
       172
  6
CONTINUOUS
290
         1
370
        25
390
1D
  0
LAYER
  5
38
100
AcDbSymbolTableRecord
100
AcDbLayerTableRecord
  2
TOLERANZEN
 70
        64
 62
       212
  6
CONTINUOUS
290
         1
370
         0
390
1D
  0
LAYER
  5
39
100
AcDbSymbolTableRecord
100
AcDbLayerTableRecord
  2
BEMASSUNG
 70
        64
 62
         7
  6
CONTINUOUS
290
         1
370
        25
390
1D
  0
LAYER
  5
3A
100
AcDbSymbolTableRecord
100
AcDbLayerTableRecord
  2
HILFSLINIEN
 70
        64
 62
         3
  6
CONTINUOUS
290
         1
370
         0
390
1D
  0
LAYER
  5
3B
100
AcDbSymbolTableRecord
100
AcDbLayerTableRecord
  2
MITTELLINIEN
 70
        64
 62
         5
  6
DASHDOT
290
         1
370
        25
390
1D
  0
LAYER
  5
3C
100
AcDbSymbolTableRecord
100
AcDbLayerTableRecord
  2
BESCHRIFTUNG00
 70
        64
 62
         7
  6
CONTINUOUS
290
         1
370
        25
390
1D
  0
LAYER
  5
3D
100
AcDbSymbolTableRecord
100
AcDbLayerTableRecord
  2
BESCHRIFTUNG0
 70
        64
 62
         7
  6
CONTINUOUS
290
         1
370
        25
390
1D
  0
LAYER
  5
3E
100
AcDbSymbolTableRecord
100
AcDbLayerTableRecord
  2
GEWINDELINIEN
 70
        64
 62
       212
  6
CONTINUOUS
290
         1
370
        25
390
1D
  0
LAYER
  5
3F
100
AcDbSymbolTableRecord
100
AcDbLayerTableRecord
  2
UNSICHTBARE
 70
        64
 62
        92
  6
DASHED
290
         1
370
        25
390
1D
  0
LAYER
  5
40
100
AcDbSymbolTableRecord
100
AcDbLayerTableRecord
  2
VERDECKTE
 70
        64
 62
        92
  6
DASHED
290
         1
370
        25
390
1D
  0
LAYER
  5
41
100
AcDbSymbolTableRecord
100
AcDbLayerTableRecord
  2
LICHTKANTEN
 70
        64
 62
         8
  6
CONTINUOUS
290
         1
370
        25
390
1D
  0
LAYER
  5
42
100
AcDbSymbolTableRecord
100
AcDbLayerTableRecord
  2
SCHNITTVERLAUF
 70
        64
 62
        34
  6
DASHDOT
290
         1
370
        70
390
1D
  0
LAYER
  5
43
100
AcDbSymbolTableRecord
100
AcDbLayerTableRecord
  2
KENNZEICHNUNG
 70
        64
 62
         7
  6
CONTINUOUS
290
         1
370
         0
390
1D
  0
LAYER
  5
44
100
AcDbSymbolTableRecord
100
AcDbLayerTableRecord
  2
PFEILE
 70
        64
 62
         7
  6
CONTINUOUS
290
         1
370
        70
390
1D
  0
LAYER
  5
45
100
AcDbSymbolTableRecord
100
AcDbLayerTableRecord
  2
SCHNITTDARSTELLUNG
 70
        64
 62
         7
  6
CONTINUOUS
290
         1
370
         0
390
1D
  0
LAYER
  5
46
100
AcDbSymbolTableRecord
100
AcDbLayerTableRecord
  2
3201_3R
 70
        64
 62
        14
  6
CONTINUOUS
290
         1
370
         0
390
1D
  0
LAYER
  5
47
100
AcDbSymbolTableRecord
100
AcDbLayerTableRecord
  2
3201_3L
 70
        64
 62
        30
  6
CONTINUOUS
290
         1
370
         0
390
1D
  0
LAYER
  5
48
100
AcDbSymbolTableRecord
100
AcDbLayerTableRecord
  2
3201_1P
 70
        64
 62
        30
  6
CONTINUOUS
290
         1
370
         0
390
1D
  0
LAYER
  5
49
100
AcDbSymbolTableRecord
100
AcDbLayerTableRecord
  2
3201_2P
 70
        64
 62
        30
  6
CONTINUOUS
290
         1
370
         0
390
1D
  0
LAYER
  5
4A
100
AcDbSymbolTableRecord
100
AcDbLayerTableRecord
  2
3201_4P
 70
        64
 62
        30
  6
CONTINUOUS
290
         1
370
         0
390
1D
  0
LAYER
  5
4B
100
AcDbSymbolTableRecord
100
AcDbLayerTableRecord
  2
3201_6L
 70
        64
 62
        30
  6
CONTINUOUS
290
         1
370
         0
390
1D
  0
LAYER
  5
4C
100
AcDbSymbolTableRecord
100
AcDbLayerTableRecord
  2
3201_7L
 70
        64
 62
        30
  6
CONTINUOUS
290
         1
370
         0
390
1D
  0
LAYER
  5
4D
100
AcDbSymbolTableRecord
100
AcDbLayerTableRecord
  2
3201_9P
 70
        64
 62
        30
  6
CONTINUOUS
290
         1
370
         0
390
1D
  0
LAYER
  5
4E
100
AcDbSymbolTableRecord
100
AcDbLayerTableRecord
  2
3201_8R
 70
        64
 62
        14
  6
CONTINUOUS
290
         1
370
         0
390
1D
  0
LAYER
  5
4F
100
AcDbSymbolTableRecord
100
AcDbLayerTableRecord
  2
3201_8L
 70
        64
 62
        30
  6
CONTINUOUS
290
         1
370
         0
390
1D
  0
LAYER
  5
50
100
AcDbSymbolTableRecord
100
AcDbLayerTableRecord
  2
3201_9T
 70
        64
 62
        14
  6
CONTINUOUS
290
         1
370
         0
390
1D
  0
LAYER
  5
51
100
AcDbSymbolTableRecord
100
AcDbLayerTableRecord
  2
3201_11P
 70
        64
 62
        30
  6
CONTINUOUS
290
         1
370
         0
390
1D
  0
LAYER
  5
52
100
AcDbSymbolTableRecord
100
AcDbLayerTableRecord
  2
3201_6R
 70
        64
 62
        14
  6
CONTINUOUS
290
         1
370
         0
390
1D
  0
LAYER
  5
53
100
AcDbSymbolTableRecord
100
AcDbLayerTableRecord
  2
3201_7R
 70
        64
 62
        14
  6
CONTINUOUS
290
         1
370
         0
390
1D
  0
LAYER
  5
54
100
AcDbSymbolTableRecord
100
AcDbLayerTableRecord
  2
3201___ EINZELHEBEL DE
 70
        64
 62
         6
  6
DASHDOT
290
         1
370
         0
390
1D
  0
LAYER
  5
55
100
AcDbSymbolTableRecord
100
AcDbLayerTableRecord
  2
2201_8P
 70
        64
 62
        30
  6
CONTINUOUS
290
         1
370
        13
390
1D
  0
LAYER
  5
56
100
AcDbSymbolTableRecord
100
AcDbLayerTableRecord
  2
2201_9P
 70
        64
 62
        30
  6
CONTINUOUS
290
         1
370
        13
390
1D
  0
LAYER
  5
57
100
AcDbSymbolTableRecord
100
AcDbLayerTableRecord
  2
2201_1R
 70
        64
 62
       230
  6
CONTINUOUS
290
         1
370
        13
390
1D
  0
LAYER
  5
58
100
AcDbSymbolTableRecord
100
AcDbLayerTableRecord
  2
2201_7P
 70
        64
 62
        30
  6
CONTINUOUS
290
         1
370
        13
390
1D
  0
LAYER
  5
59
100
AcDbSymbolTableRecord
100
AcDbLayerTableRecord
  2
2201_0T
 70
        64
 62
        30
  6
CONTINUOUS
290
         1
370
        13
390
1D
  0
LAYER
  5
5A
100
AcDbSymbolTableRecord
100
AcDbLayerTableRecord
  2
2201_7V
 70
        64
 62
        30
  6
CONTINUOUS
290
         1
370
        13
390
1D
  0
LAYER
  5
5B
100
AcDbSymbolTableRecord
100
AcDbLayerTableRecord
  2
2201_0A
 70
        64
 62
       230
  6
CONTINUOUS
290
         1
370
        13
390
1D
  0
LAYER
  5
5C
100
AcDbSymbolTableRecord
100
AcDbLayerTableRecord
  2
2201_2P
 70
        64
 62
        30
  6
CONTINUOUS
290
         1
370
        13
390
1D
  0
LAYER
  5
5D
100
AcDbSymbolTableRecord
100
AcDbLayerTableRecord
  2
2201_4P
 70
        64
 62
        30
  6
CONTINUOUS
290
         1
370
        13
390
1D
  0
LAYER
  5
5E
100
AcDbSymbolTableRecord
100
AcDbLayerTableRecord
  2
2201_6P
 70
        64
 62
        30
  6
CONTINUOUS
290
         1
370
        13
390
1D
  0
LAYER
  5
5F
100
AcDbSymbolTableRecord
100
AcDbLayerTableRecord
  2
2201_3P
 70
        64
 62
        30
  6
CONTINUOUS
290
         1
370
        13
390
1D
  0
LAYER
  5
60
100
AcDbSymbolTableRecord
100
AcDbLayerTableRecord
  2
2201_5P
 70
        64
 62
        30
  6
CONTINUOUS
290
         1
370
        13
390
1D
  0
LAYER
  5
61
100
AcDbSymbolTableRecord
100
AcDbLayerTableRecord
  2
2201_1L
 70
        64
 62
        30
  6
CONTINUOUS
290
         1
370
        13
390
1D
  0
LAYER
  5
62
100
AcDbSymbolTableRecord
100
AcDbLayerTableRecord
  2
2201___ HEBELBOCK
 70
        64
 62
       190
  6
DASHDOT
290
         1
370
         0
390
1D
  0
LAYER
  5
63
100
AcDbSymbolTableRecord
100
AcDbLayerTableRecord
  2
3202_3R
 70
        64
 62
        14
  6
CONTINUOUS
290
         1
370
         0
390
1D
  0
LAYER
  5
64
100
AcDbSymbolTableRecord
100
AcDbLayerTableRecord
  2
3202_3L
 70
        64
 62
        30
  6
CONTINUOUS
290
         1
370
         0
390
1D
  0
LAYER
  5
65
100
AcDbSymbolTableRecord
100
AcDbLayerTableRecord
  2
3202_1P
 70
        64
 62
        30
  6
CONTINUOUS
290
         1
370
         0
390
1D
  0
LAYER
  5
66
100
AcDbSymbolTableRecord
100
AcDbLayerTableRecord
  2
3202_2P
 70
        64
 62
        30
  6
CONTINUOUS
290
         1
370
         0
390
1D
  0
LAYER
  5
67
100
AcDbSymbolTableRecord
100
AcDbLayerTableRecord
  2
3202_4P
 70
        64
 62
        30
  6
CONTINUOUS
290
         1
370
         0
390
1D
  0
LAYER
  5
68
100
AcDbSymbolTableRecord
100
AcDbLayerTableRecord
  2
3202_6L
 70
        64
 62
        30
  6
CONTINUOUS
290
         1
370
         0
390
1D
  0
LAYER
  5
69
100
AcDbSymbolTableRecord
100
AcDbLayerTableRecord
  2
3202_7L
 70
        64
 62
        30
  6
CONTINUOUS
290
         1
370
         0
390
1D
  0
LAYER
  5
6A
100
AcDbSymbolTableRecord
100
AcDbLayerTableRecord
  2
3202_9P
 70
        64
 62
        30
  6
CONTINUOUS
290
         1
370
         0
390
1D
  0
LAYER
  5
6B
100
AcDbSymbolTableRecord
100
AcDbLayerTableRecord
  2
3202_8R
 70
        64
 62
        14
  6
CONTINUOUS
290
         1
370
         0
390
1D
  0
LAYER
  5
6C
100
AcDbSymbolTableRecord
100
AcDbLayerTableRecord
  2
3202_8L
 70
        64
 62
        30
  6
CONTINUOUS
290
         1
370
         0
390
1D
  0
LAYER
  5
6D
100
AcDbSymbolTableRecord
100
AcDbLayerTableRecord
  2
3202_9T
 70
        64
 62
        14
  6
CONTINUOUS
290
         1
370
         0
390
1D
  0
LAYER
  5
6E
100
AcDbSymbolTableRecord
100
AcDbLayerTableRecord
  2
3202_11P
 70
        64
 62
        30
  6
CONTINUOUS
290
         1
370
         0
390
1D
  0
LAYER
  5
6F
100
AcDbSymbolTableRecord
100
AcDbLayerTableRecord
  2
3202_6R
 70
        64
 62
        14
  6
CONTINUOUS
290
         1
370
         0
390
1D
  0
LAYER
  5
70
100
AcDbSymbolTableRecord
100
AcDbLayerTableRecord
  2
3202_7R
 70
        64
 62
        14
  6
CONTINUOUS
290
         1
370
         0
390
1D
  0
LAYER
  5
71
100
AcDbSymbolTableRecord
100
AcDbLayerTableRecord
  2
3202_20T
 70
        64
 62
        14
  6
CONTINUOUS
290
         1
370
         0
390
1D
  0
LAYER
  5
72
100
AcDbSymbolTableRecord
100
AcDbLayerTableRecord
  2
3202_20P
 70
        64
 62
        30
  6
CONTINUOUS
290
         1
370
         0
390
1D
  0
LAYER
  5
73
100
AcDbSymbolTableRecord
100
AcDbLayerTableRecord
  2
3202___ DOPPELHEBEL DE
 70
        64
 62
         6
  6
DASHDOT
290
         1
370
         0
390
1D
  0
LAYER
  5
74
100
AcDbSymbolTableRecord
100
AcDbLayerTableRecord
  2
3203_13P
 70
        64
 62
        30
  6
CONTINUOUS
290
         1
370
        13
390
1D
  0
LAYER
  5
75
100
AcDbSymbolTableRecord
100
AcDbLayerTableRecord
  2
3203_14P
 70
        64
 62
        30
  6
CONTINUOUS
290
         1
370
        13
390
1D
  0
LAYER
  5
76
100
AcDbSymbolTableRecord
100
AcDbLayerTableRecord
  2
3203_11P
 70
        64
 62
        30
  6
CONTINUOUS
290
         1
370
        13
390
1D
  0
LAYER
  5
77
100
AcDbSymbolTableRecord
100
AcDbLayerTableRecord
  2
3203_30P
 70
        64
 62
        30
  6
CONTINUOUS
290
         1
370
        13
390
1D
  0
LAYER
  5
78
100
AcDbSymbolTableRecord
100
AcDbLayerTableRecord
  2
3203___ EINZELHEBEL DE MIT SCHLOSS
 70
        64
 62
         6
  6
DASHDOT
290
         1
370
         0
390
1D
  0
LAYER
  5
79
100
AcDbSymbolTableRecord
100
AcDbLayerTableRecord
  2
3204_11P
 70
        64
 62
        30
  6
CONTINUOUS
290
         1
370
        13
390
1D
  0
LAYER
  5
7A
100
AcDbSymbolTableRecord
100
AcDbLayerTableRecord
  2
3204_30P
 70
        64
 62
        30
  6
CONTINUOUS
290
         1
370
        13
390
1D
  0
LAYER
  5
7B
100
AcDbSymbolTableRecord
100
AcDbLayerTableRecord
  2
3204___ DOPPELHEBEL DE MIT SCHLOSS
 70
        64
 62
         6
  6
DASHDOT
290
         1
370
         0
390
1D
  0
LAYER
  5
7C
100
AcDbSymbolTableRecord
100
AcDbLayerTableRecord
  2
3211_1R
 70
        64
 62
        14
  6
CONTINUOUS
290
         1
370
        13
390
1D
  0
LAYER
  5
7D
100
AcDbSymbolTableRecord
100
AcDbLayerTableRecord
  2
3211_3P
 70
        64
 62
        30
  6
CONTINUOUS
290
         1
370
        13
390
1D
  0
LAYER
  5
7E
100
AcDbSymbolTableRecord
100
AcDbLayerTableRecord
  2
3211_1L
 70
        64
 62
        30
  6
CONTINUOUS
290
         1
370
        13
390
1D
  0
LAYER
  5
7F
100
AcDbSymbolTableRecord
100
AcDbLayerTableRecord
  2
3211_4P
 70
        64
 62
        30
  6
CONTINUOUS
290
         1
370
        13
390
1D
  0
LAYER
  5
80
100
AcDbSymbolTableRecord
100
AcDbLayerTableRecord
  2
3211_2L
 70
        64
 62
        30
  6
CONTINUOUS
290
         1
370
        13
390
1D
  0
LAYER
  5
81
100
AcDbSymbolTableRecord
100
AcDbLayerTableRecord
  2
3211_2R
 70
        64
 62
        14
  6
CONTINUOUS
290
         1
370
        13
390
1D
  0
LAYER
  5
82
100
AcDbSymbolTableRecord
100
AcDbLayerTableRecord
  2
3211_5P
 70
        64
 62
        30
  6
CONTINUOUS
290
         1
370
        13
390
1D
  0
LAYER
  5
83
100
AcDbSymbolTableRecord
100
AcDbLayerTableRecord
  2
3211_5T
 70
        64
 62
        15
  6
CONTINUOUS
290
         1
370
        13
390
1D
  0
LAYER
  5
84
100
AcDbSymbolTableRecord
100
AcDbLayerTableRecord
  2
3211___ EINZELHEBEL DE GRUPPENPFADE
 70
        64
 62
         6
  6
DASHDOT
290
         1
370
         0
390
1D
  0
LAYER
  5
85
100
AcDbSymbolTableRecord
100
AcDbLayerTableRecord
  2
3212_1R
 70
        64
 62
        14
  6
CONTINUOUS
290
         1
370
        13
390
1D
  0
LAYER
  5
86
100
AcDbSymbolTableRecord
100
AcDbLayerTableRecord
  2
3212_3P
 70
        64
 62
        30
  6
CONTINUOUS
290
         1
370
        13
390
1D
  0
LAYER
  5
87
100
AcDbSymbolTableRecord
100
AcDbLayerTableRecord
  2
3212_1L
 70
        64
 62
        30
  6
CONTINUOUS
290
         1
370
        13
390
1D
  0
LAYER
  5
88
100
AcDbSymbolTableRecord
100
AcDbLayerTableRecord
  2
3212_4P
 70
        64
 62
        30
  6
CONTINUOUS
290
         1
370
        13
390
1D
  0
LAYER
  5
89
100
AcDbSymbolTableRecord
100
AcDbLayerTableRecord
  2
3212_2L
 70
        64
 62
        30
  6
CONTINUOUS
290
         1
370
        13
390
1D
  0
LAYER
  5
8A
100
AcDbSymbolTableRecord
100
AcDbLayerTableRecord
  2
3212_2R
 70
        64
 62
        14
  6
CONTINUOUS
290
         1
370
        13
390
1D
  0
LAYER
  5
8B
100
AcDbSymbolTableRecord
100
AcDbLayerTableRecord
  2
3212_5P
 70
        64
 62
        30
  6
CONTINUOUS
290
         1
370
        13
390
1D
  0
LAYER
  5
8C
100
AcDbSymbolTableRecord
100
AcDbLayerTableRecord
  2
3212_5T
 70
        64
 62
        15
  6
CONTINUOUS
290
         1
370
        13
390
1D
  0
LAYER
  5
8D
100
AcDbSymbolTableRecord
100
AcDbLayerTableRecord
  2
3212___ DOPPELHEBEL DE GRUPPENPFADE
 70
        64
 62
         6
  6
DASHDOT
290
         1
370
         0
390
1D
  0
LAYER
  5
8E
100
AcDbSymbolTableRecord
100
AcDbLayerTableRecord
  2
3213_1R
 70
        64
 62
        14
  6
CONTINUOUS
290
         1
370
        13
390
1D
  0
LAYER
  5
8F
100
AcDbSymbolTableRecord
100
AcDbLayerTableRecord
  2
3213_3P
 70
        64
 62
        30
  6
CONTINUOUS
290
         1
370
        13
390
1D
  0
LAYER
  5
90
100
AcDbSymbolTableRecord
100
AcDbLayerTableRecord
  2
3213_1L
 70
        64
 62
        30
  6
CONTINUOUS
290
         1
370
        13
390
1D
  0
LAYER
  5
91
100
AcDbSymbolTableRecord
100
AcDbLayerTableRecord
  2
3213_4P
 70
        64
 62
        30
  6
CONTINUOUS
290
         1
370
        13
390
1D
  0
LAYER
  5
92
100
AcDbSymbolTableRecord
100
AcDbLayerTableRecord
  2
3213_2L
 70
        64
 62
        30
  6
CONTINUOUS
290
         1
370
        13
390
1D
  0
LAYER
  5
93
100
AcDbSymbolTableRecord
100
AcDbLayerTableRecord
  2
3213_2R
 70
        64
 62
        14
  6
CONTINUOUS
290
         1
370
        13
390
1D
  0
LAYER
  5
94
100
AcDbSymbolTableRecord
100
AcDbLayerTableRecord
  2
3213_5P
 70
        64
 62
        30
  6
CONTINUOUS
290
         1
370
        13
390
1D
  0
LAYER
  5
95
100
AcDbSymbolTableRecord
100
AcDbLayerTableRecord
  2
3213_5T
 70
        64
 62
        15
  6
CONTINUOUS
290
         1
370
        13
390
1D
  0
LAYER
  5
96
100
AcDbSymbolTableRecord
100
AcDbLayerTableRecord
  2
3213___ EINZELHEBEL DE MIT SCHLOSS GRUPPENPFADE
 70
        64
 62
         6
  6
DASHDOT
290
         1
370
         0
390
1D
  0
LAYER
  5
97
100
AcDbSymbolTableRecord
100
AcDbLayerTableRecord
  2
3214_1R
 70
        64
 62
        14
  6
CONTINUOUS
290
         1
370
        13
390
1D
  0
LAYER
  5
98
100
AcDbSymbolTableRecord
100
AcDbLayerTableRecord
  2
3214_3P
 70
        64
 62
        30
  6
CONTINUOUS
290
         1
370
        13
390
1D
  0
LAYER
  5
99
100
AcDbSymbolTableRecord
100
AcDbLayerTableRecord
  2
3214_1L
 70
        64
 62
        30
  6
CONTINUOUS
290
         1
370
        13
390
1D
  0
LAYER
  5
9A
100
AcDbSymbolTableRecord
100
AcDbLayerTableRecord
  2
3214_4P
 70
        64
 62
        30
  6
CONTINUOUS
290
         1
370
        13
390
1D
  0
LAYER
  5
9B
100
AcDbSymbolTableRecord
100
AcDbLayerTableRecord
  2
3214_2L
 70
        64
 62
        30
  6
CONTINUOUS
290
         1
370
        13
390
1D
  0
LAYER
  5
9C
100
AcDbSymbolTableRecord
100
AcDbLayerTableRecord
  2
3214_2R
 70
        64
 62
        14
  6
CONTINUOUS
290
         1
370
        13
390
1D
  0
LAYER
  5
9D
100
AcDbSymbolTableRecord
100
AcDbLayerTableRecord
  2
3214_5P
 70
        64
 62
        30
  6
CONTINUOUS
290
         1
370
        13
390
1D
  0
LAYER
  5
9E
100
AcDbSymbolTableRecord
100
AcDbLayerTableRecord
  2
3214_5T
 70
        64
 62
        15
  6
CONTINUOUS
290
         1
370
        13
390
1D
  0
LAYER
  5
9F
100
AcDbSymbolTableRecord
100
AcDbLayerTableRecord
  2
3214___ DOPPELHEBEL DE MIT SCHLOSS GRUPPENPFADE
 70
        64
 62
         6
  6
DASHDOT
290
         1
370
         0
390
1D
  0
LAYER
  5
A0
100
AcDbSymbolTableRecord
100
AcDbLayerTableRecord
  2
PFADE
 70
        64
 62
        30
  6
CONTINUOUS
290
         1
370
         0
390
1D
  0
LAYER
  5
A1
100
AcDbSymbolTableRecord
100
AcDbLayerTableRecord
  2
3201_8 HEBELSCHILDCHEN UMGELEGT
 70
        64
 62
        16
  6
DASHED
290
         1
370
        18
390
1D
  0
LAYER
  5
A2
100
AcDbSymbolTableRecord
100
AcDbLayerTableRecord
  2
3201_8 HEBELSCHILDCHEN
 70
        64
 62
        16
  6
CONTINUOUS
290
         1
370
        18
390
1D
  0
LAYER
  5
A3
100
AcDbSymbolTableRecord
100
AcDbLayerTableRecord
  2
3201_1-3HEBELBOCK
 70
        64
 62
         7
  6
CONTINUOUS
290
         1
370
        18
390
1D
  0
LAYER
  5
A4
100
AcDbSymbolTableRecord
100
AcDbLayerTableRecord
  2
3201_4 HEBELEISEN UMGELEGT
 70
        64
 62
         5
  6
DASHED
290
         1
370
        18
390
1D
  0
LAYER
  5
A5
100
AcDbSymbolTableRecord
100
AcDbLayerTableRecord
  2
3201_4 HEBELEISEN
 70
        64
 62
         5
  6
CONTINUOUS
290
         1
370
        18
390
1D
  0
LAYER
  5
A6
100
AcDbSymbolTableRecord
100
AcDbLayerTableRecord
  2
3201_9 HEBELROLLE UMGELEGT
 70
        64
 62
       134
  6
DASHED
290
         1
370
        18
390
1D
  0
LAYER
  5
A7
100
AcDbSymbolTableRecord
100
AcDbLayerTableRecord
  2
3201_9 HEBELROLLE
 70
        64
 62
       134
  6
CONTINUOUS
290
         1
370
        18
390
1D
  0
LAYER
  5
A8
100
AcDbSymbolTableRecord
100
AcDbLayerTableRecord
  2
3201_11_ 3202_11 WINKELHEBEL UMGELEGT
 70
        64
 62
       190
  6
DASHED
290
         1
370
        18
390
1D
  0
LAYER
  5
A9
100
AcDbSymbolTableRecord
100
AcDbLayerTableRecord
  2
3201_11_ 3202_11 WINKELHEBEL
 70
        64
 62
       190
  6
CONTINUOUS
290
         1
370
        18
390
1D
  0
LAYER
  5
AA
100
AcDbSymbolTableRecord
100
AcDbLayerTableRecord
  2
3201_6 HANDFALLE ANGEZOGEN
 70
        64
 62
        30
  6
HIDDEN
290
         1
370
        18
390
1D
  0
LAYER
  5
AB
100
AcDbSymbolTableRecord
100
AcDbLayerTableRecord
  2
3201_6 HANDFALLE UMGELEGT
 70
        64
 62
        30
  6
DASHED
290
         1
370
        18
390
1D
  0
LAYER
  5
AC
100
AcDbSymbolTableRecord
100
AcDbLayerTableRecord
  2
3201_6 HANDFALLE
 70
        64
 62
        30
  6
CONTINUOUS
290
         1
370
        18
390
1D
  0
LAYER
  5
AD
100
AcDbSymbolTableRecord
100
AcDbLayerTableRecord
  2
3201_7 HEBELKLINKE UMGELEGT
 70
        64
 62
       171
  6
DASHED
290
         1
370
        18
390
1D
  0
LAYER
  5
AE
100
AcDbSymbolTableRecord
100
AcDbLayerTableRecord
  2
3201_7 HEBELKLINKE
 70
        64
 62
       171
  6
CONTINUOUS
290
         1
370
        18
390
1D
  0
LAYER
  5
AF
100
AcDbSymbolTableRecord
100
AcDbLayerTableRecord
  2
3201_10 SEILZUG
 70
        64
 62
        94
  6
DASHDOT
290
         1
370
        18
390
1D
  0
LAYER
  5
B0
100
AcDbSymbolTableRecord
100
AcDbLayerTableRecord
  2
3201_21 WINKELHEBEL MIT VERRIEGELUNG UMGELEGT
 70
        64
 62
       190
  6
DASHED
290
         1
370
        18
390
1D
  0
LAYER
  5
B1
100
AcDbSymbolTableRecord
100
AcDbLayerTableRecord
  2
3203_11_ 3204_11 WINKELHEBEL MIT VERRIEGELUNG
 70
        64
 62
       190
  6
CONTINUOUS
290
         1
370
        18
390
1D
  0
LAYER
  5
B2
100
AcDbSymbolTableRecord
100
AcDbLayerTableRecord
  2
3203_12+13 SCHLOSSRIEGELPLATTE AUFGESPERRT
 70
        64
 62
       172
  6
DASHED
290
         1
370
        18
390
1D
  0
LAYER
  5
B3
100
AcDbSymbolTableRecord
100
AcDbLayerTableRecord
  2
3203_12+13 SCHLOSSRIEGELPLATTE
 70
        64
 62
       172
  6
CONTINUOUS
290
         1
370
        18
390
1D
  0
LAYER
  5
B4
100
AcDbSymbolTableRecord
100
AcDbLayerTableRecord
  2
3201__-3204__ HEBEL DE
 70
        64
 62
         7
  6
CONTINUOUS
290
         1
370
         0
390
1D
  0
LAYER
  5
B5
100
AcDbSymbolTableRecord
100
AcDbLayerTableRecord
  2
 2001_2 BODEN
 70
        64
 62
        14
  6
CONTINUOUS
290
         1
370
        18
390
1D
  0
LAYER
  5
B6
100
AcDbSymbolTableRecord
100
AcDbLayerTableRecord
  2
 2001_1 RAHMEN
 70
        64
 62
         7
  6
CONTINUOUS
290
         1
370
        18
390
1D
  0
LAYER
  5
B7
100
AcDbSymbolTableRecord
100
AcDbLayerTableRecord
  2
2001__ GEBÄUDE
 70
        64
 62
         7
  6
CONTINUOUS
290
         1
370
         0
390
1D
  0
LAYER
  5
B8
100
AcDbSymbolTableRecord
100
AcDbLayerTableRecord
  2
2101__ HEBELBANK
 70
        64
 62
         9
  6
CONTINUOUS
290
         1
370
        18
390
1D
  0
LAYER
  5
B9
100
AcDbSymbolTableRecord
100
AcDbLayerTableRecord
  2
2201_1 HEBELBOCK
 70
        64
 62
         7
  6
CONTINUOUS
290
         1
370
        13
390
1D
  0
LAYER
  5
BA
100
AcDbSymbolTableRecord
100
AcDbLayerTableRecord
  2
2201_2___4_7 HEBEL
 70
        64
 62
        34
  6
CONTINUOUS
290
         1
370
        13
390
1D
  0
LAYER
  5
BB
100
AcDbSymbolTableRecord
100
AcDbLayerTableRecord
  2
2201_6 RASTENGEWICHT
 70
        64
 62
       135
  6
CONTINUOUS
290
         1
370
        13
390
1D
  0
LAYER
  5
BC
100
AcDbSymbolTableRecord
100
AcDbLayerTableRecord
  2
2201_5 RASTE
 70
        64
 62
       114
  6
CONTINUOUS
290
         1
370
        13
390
1D
  0
LAYER
  5
BD
100
AcDbSymbolTableRecord
100
AcDbLayerTableRecord
  2
2201__ SIGNALHEBELBOCK
 70
        64
 62
         7
  6
CONTINUOUS
290
         1
370
         0
390
1D
  0
LAYER
  5
BE
100
AcDbSymbolTableRecord
100
AcDbLayerTableRecord
  2
3601_1 UNTERZUGRAHMEN
 70
        64
 62
         7
  6
CONTINUOUS
290
         1
370
         0
390
1D
  0
LAYER
  5
BF
100
AcDbSymbolTableRecord
100
AcDbLayerTableRecord
  2
3601_2-4 ROLLEN UMGELEGT
 70
        64
 62
       134
  6
DASHED
290
         1
370
        18
390
1D
  0
LAYER
  5
C0
100
AcDbSymbolTableRecord
100
AcDbLayerTableRecord
  2
3601_2-4 ROLLEN
 70
        64
 62
       134
  6
CONTINUOUS
290
         1
370
        18
390
1D
  0
LAYER
  5
C1
100
AcDbSymbolTableRecord
100
AcDbLayerTableRecord
  2
3601_5 ABTRIEB UMGELEGT
 70
        64
 62
       142
  6
DASHED
290
         1
370
        18
390
1D
  0
LAYER
  5
C2
100
AcDbSymbolTableRecord
100
AcDbLayerTableRecord
  2
3601_5 ABTRIEB
 70
        64
 62
       142
  6
CONTINUOUS
290
         1
370
        18
390
1D
  0
LAYER
  5
C3
100
AcDbSymbolTableRecord
100
AcDbLayerTableRecord
  2
3601_6 SCHALTER LINKS_OBEN
 70
        64
 62
       230
  6
DASHED
290
         1
370
        18
390
1D
  0
LAYER
  5
C4
100
AcDbSymbolTableRecord
100
AcDbLayerTableRecord
  2
3601_6 SCHALTER
 70
        64
 62
       230
  6
CONTINUOUS
290
         1
370
        18
390
1D
  0
LAYER
  5
C5
100
AcDbSymbolTableRecord
100
AcDbLayerTableRecord
  2
3601__ UNTERZUG
 70
        64
 62
         9
  6
CONTINUOUS
290
         1
370
        18
390
1D
  0
LAYER
  5
C6
100
AcDbSymbolTableRecord
100
AcDbLayerTableRecord
  2
2052_3 RIEGEL UMGESPERRT
 70
        64
 62
       230
  6
DASHED
290
         1
370
        18
390
1D
  0
LAYER
  5
C7
100
AcDbSymbolTableRecord
100
AcDbLayerTableRecord
  2
2052_3 RIEGEL
 70
        64
 62
       230
  6
CONTINUOUS
290
         1
370
        18
390
1D
  0
LAYER
  5
C8
100
AcDbSymbolTableRecord
100
AcDbLayerTableRecord
  2
2052_4 ZUHALTUNG ANGEHOBEN
 70
        64
 62
        94
  6
DASHED
290
         1
370
        18
390
1D
  0
LAYER
  5
C9
100
AcDbSymbolTableRecord
100
AcDbLayerTableRecord
  2
2052_4 ZUHALTUNG
 70
        64
 62
        94
  6
CONTINUOUS
290
         1
370
        18
390
1D
  0
LAYER
  5
CA
100
AcDbSymbolTableRecord
100
AcDbLayerTableRecord
  2
2052_1_2_7_8 GEHÄUSE
 70
        64
 62
         7
  6
CONTINUOUS
290
         1
370
        18
390
1D
  0
LAYER
  5
CB
100
AcDbSymbolTableRecord
100
AcDbLayerTableRecord
  2
2052_5_6 BESATZUNG
 70
        64
 62
         8
  6
CONTINUOUS
290
         1
370
        18
390
1D
  0
LAYER
  5
CC
100
AcDbSymbolTableRecord
100
AcDbLayerTableRecord
  2
2052__ SCHLOSS MIT DORN
 70
        64
 62
         7
  6
CONTINUOUS
290
         1
370
         0
390
1D
  0
LAYER
  5
CD
100
AcDbSymbolTableRecord
100
AcDbLayerTableRecord
  2
2053_5 SCHILD
 70
        64
 62
        54
  6
CONTINUOUS
290
         1
370
        18
390
1D
  0
LAYER
  5
CE
100
AcDbSymbolTableRecord
100
AcDbLayerTableRecord
  2
2053_1-4 SCHLÜSSEL
 70
        64
 62
       190
  6
CONTINUOUS
290
         1
370
        18
390
1D
  0
LAYER
  5
CF
100
AcDbSymbolTableRecord
100
AcDbLayerTableRecord
  2
2053__ SCHLÜSSEL
 70
        64
 62
         7
  6
CONTINUOUS
290
         1
370
         0
390
1D
  0
LAYER
  5
D0
100
AcDbSymbolTableRecord
100
AcDbLayerTableRecord
  2
KONSTRUKTION
 70
        64
 62
         7
  6
CONTINUOUS
290
         1
370
         0
390
1D
  0
LAYER
  5
D1
100
AcDbSymbolTableRecord
100
AcDbLayerTableRecord
  2
_TEMP
 70
        64
 62
         7
  6
CONTINUOUS
290
         1
370
        50
390
1D
  0
LAYER
  5
D2
100
AcDbSymbolTableRecord
100
AcDbLayerTableRecord
  2
STANDARD
 70
        64
 62
         7
  6
CONTINUOUS
290
         1
370
         0
390
1D
  0
ENDTAB
  0
TABLE
  2
STYLE
  5
3
100
AcDbSymbolTable
 70
         7
  0
STYLE
  5
17
100
AcDbSymbolTableRecord
100
AcDbTextStyleTableRecord
  2
Standard
 70
         0
 40
0.0
 41
1.0
 50
0.0
 71
         0
 42
0.0
  3
txt
  4

  0
STYLE
  5
2D
100
AcDbSymbolTableRecord
100
AcDbTextStyleTableRecord
  2
CADdy
 70
         0
 40
0.0
 41
1.0
 50
0.0
 71
         0
 42
3.5
  3
txt.shx
  4

  0
STYLE
  5
2E
100
AcDbSymbolTableRecord
100
AcDbTextStyleTableRecord
  2
Arial
 70
         0
 40
0.0
 41
1.0
 50
0.0
 71
         0
 42
3.5
  3
arial.ttf
  4

1001
ACAD
1000
Arial
1071
       34
  0
STYLE
  5
2F
100
AcDbSymbolTableRecord
100
AcDbTextStyleTableRecord
  2
Isonorm
 70
         0
 40
0.0
 41
1.0
 50
0.0
 71
         0
 42
3.5
  3
txt.shx
  4

  0
STYLE
  5
30
100
AcDbSymbolTableRecord
100
AcDbTextStyleTableRecord
  2
Tahoma
 70
         0
 40
0.0
 41
1.0
 50
0.0
 71
         0
 42
3.5
  3
tahoma.ttf
  4

1001
ACAD
1000
Tahoma
1071
       34
  0
STYLE
  5
31
100
AcDbSymbolTableRecord
100
AcDbTextStyleTableRecord
  2
Microsoft Sans Serif
 70
         0
 40
0.0
 41
1.0
 50
0.0
 71
         0
 42
3.5
  3
micross.ttf
  4

1001
ACAD
1000
Microsoft Sans Serif
1071
       34
  0
STYLE
  5
32
100
AcDbSymbolTableRecord
100
AcDbTextStyleTableRecord
  2
Arial Rounded MT Bold
 70
         0
 40
0.0
 41
1.0
 50
0.0
 71
         0
 42
3.5
  3
txt.shx
  4

  0
ENDTAB
  0
TABLE
  2
VIEW
  5
5
100
AcDbSymbolTable
 70
         0
  0
ENDTAB
  0
TABLE
  2
UCS
  5
6
100
AcDbSymbolTable
 70
         0
  0
ENDTAB
  0
TABLE
  2
APPID
  5
8
100
AcDbSymbolTable
 70
         1
  0
APPID
  5
16
100
AcDbSymbolTableRecord
100
AcDbRegAppTableRecord
  2
ACAD
 70
        64
  0
ENDTAB
  0
TABLE
  2
DIMSTYLE
  5
9
100
AcDbSymbolTable
 70
         1
100
AcDbDimStyleTable
 71
         0
  0
DIMSTYLE
105
18
100
AcDbSymbolTableRecord
100
AcDbDimStyleTableRecord
  2
Standard
 70
         0
  3

  4

 40
1.0
 41
0.18
 42
0.0625
 43
0.38
 44
0.18
 45
0.0
 46
0.0
 47
0.0
 48
0.0
 71
         0
 72
         0
 73
         1
 74
         1
 75
         0
 76
         0
 77
         0
 78
         0
 79
         0
140
0.18
141
0.09
142
0.0
143
25.4
144
1.0
145
0.0
146
1.0
147
0.09
148
0.0
170
         0
171
         2
172
         0
173
         0
174
         0
175
         0
176
         0
177
         0
178
         0
179
         0
271
         4
272
         4
273
         2
274
         2
275
         0
276
         0
277
         2
278
        46
279
         0
280
         0
281
         0
282
         0
283
         1
284
         0
285
         0
286
         0
288
         0
289
         3
340
17
341
0
342
0
343
0
344
0
371
        -2
372
        -2
  0
ENDTAB
  0
TABLE
  2
BLOCK_RECORD
  5
1
100
AcDbSymbolTable
 70
        13
  0
BLOCK_RECORD
  5
A
100
AcDbSymbolTableRecord
100
AcDbBlockTableRecord
  2
*MODEL_SPACE
340
20
  0
BLOCK_RECORD
  5
B
100
AcDbSymbolTableRecord
100
AcDbBlockTableRecord
  2
*PAPER_SPACE
340
21
  0
BLOCK_RECORD
  5
D3
100
AcDbSymbolTableRecord
100
AcDbBlockTableRecord
  2
D401831680
340
0
102
{BLKREFS
331
175
102
}
  0
BLOCK_RECORD
  5
DC
100
AcDbSymbolTableRecord
100
AcDbBlockTableRecord
  2
D333244672
340
0
102
{BLKREFS
331
194
102
}
  0
BLOCK_RECORD
  5
E7
100
AcDbSymbolTableRecord
100
AcDbBlockTableRecord
  2
D402024192
340
0
102
{BLKREFS
331
195
102
}
  0
BLOCK_RECORD
  5
F2
100
AcDbSymbolTableRecord
100
AcDbBlockTableRecord
  2
D402023936
340
0
102
{BLKREFS
331
1D0
102
}
  0
BLOCK_RECORD
  5
FB
100
AcDbSymbolTableRecord
100
AcDbBlockTableRecord
  2
D402023680
340
0
102
{BLKREFS
331
211
102
}
  0
BLOCK_RECORD
  5
106
100
AcDbSymbolTableRecord
100
AcDbBlockTableRecord
  2
D401980160
340
0
102
{BLKREFS
331
212
102
}
  0
BLOCK_RECORD
  5
111
100
AcDbSymbolTableRecord
100
AcDbBlockTableRecord
  2
D401979904
340
0
102
{BLKREFS
331
213
102
}
  0
BLOCK_RECORD
  5
11C
100
AcDbSymbolTableRecord
100
AcDbBlockTableRecord
  2
D401979648
340
0
102
{BLKREFS
331
21C
102
}
  0
BLOCK_RECORD
  5
125
100
AcDbSymbolTableRecord
100
AcDbBlockTableRecord
  2
D401979392
340
0
102
{BLKREFS
331
21D
102
}
  0
BLOCK_RECORD
  5
12E
100
AcDbSymbolTableRecord
100
AcDbBlockTableRecord
  2
D401979136
340
0
102
{BLKREFS
331
231
102
}
  0
BLOCK_RECORD
  5
137
100
AcDbSymbolTableRecord
100
AcDbBlockTableRecord
  2
D401978880
340
0
102
{BLKREFS
331
23E
102
}
  0
BLOCK_RECORD
  5
140
100
AcDbSymbolTableRecord
100
AcDbBlockTableRecord
  2
D401978624
340
0
102
{BLKREFS
331
248
102
}
  0
BLOCK_RECORD
  5
149
100
AcDbSymbolTableRecord
100
AcDbBlockTableRecord
  2
D401978368
340
0
102
{BLKREFS
331
24A
102
}
  0
ENDTAB
  0
ENDSEC
  0
SECTION
  2
BLOCKS
  0
BLOCK
  5
D
100
AcDbEntity
  8
0
390
0
100
AcDbBlockBegin
  2
*MODEL_SPACE
 70
         0
 10
0.0
 20
0.0
 30
0.0
  3
*MODEL_SPACE
  1

  0
ENDBLK
  5
E
100
AcDbEntity
  8
0
390
0
100
AcDbBlockEnd
  0
BLOCK
  5
F
100
AcDbEntity
 67
         1
  8
0
390
0
100
AcDbBlockBegin
  2
*PAPER_SPACE
 70
         0
 10
0.0
 20
0.0
 30
0.0
  3
*PAPER_SPACE
  1

  0
ENDBLK
  5
10
100
AcDbEntity
 67
         1
  8
0
390
0
100
AcDbBlockEnd
  0
BLOCK
  5
D4
100
AcDbEntity
  8
BEMASSUNG
390
0
100
AcDbBlockBegin
  2
D401831680
 70
         0
 10
0.0
 20
0.0
 30
0.0
  3
D401831680
  1

  0
LINE
  5
D5
100
AcDbEntity
  8
MASSLINIEN
390
0
 62
       172
100
AcDbLine
 10
26.1434594433
 20
185.6849315554
 30
0.0
 11
76.1434594433
 21
185.6849315554
 31
0.0
  0
LINE
  5
D6
100
AcDbEntity
  8
MASSLINIEN
390
0
 62
       172
100
AcDbLine
 10
26.1434594433
 20
191.4464435495
 30
0.0
 11
26.1434594433
 21
183.6849315554
 31
0.0
  0
LINE
  5
D7
100
AcDbEntity
  8
MASSLINIEN
390
0
 62
       172
100
AcDbLine
 10
76.1434594433
 20
280.3016347704
 30
0.0
 11
76.1434594433
 21
183.6849315554
 31
0.0
  0
SOLID
  5
D8
100
AcDbEntity
  8
MASSGRENZEN
390
0
100
AcDbTrace
 10
26.1434594433
 20
185.6849315554
 30
0.0
 11
29.1177940274
 21
186.0765101321
 31
0.0
 12
29.1177940274
 22
185.2933529787
 32
0.0
 13
29.1177940274
 23
185.2933529787
 33
0.0
  0
SOLID
  5
D9
100
AcDbEntity
  8
MASSGRENZEN
390
0
100
AcDbTrace
 10
76.1434594433
 20
185.6849315554
 30
0.0
 11
73.1691248591
 21
185.2933529787
 31
0.0
 12
73.1691248591
 22
186.0765101321
 32
0.0
 13
73.1691248591
 23
186.0765101321
 33
0.0
  0
MTEXT
  5
DA
100
AcDbEntity
  8
MASSTEXTE
390
0
 62
       212
100
AcDbMText
 10
51.1434594433
 20
188.1409315554
 30
0.0
 40
2.0
 41
0.0
 71
         5
 72
         1
  1
\W1.135145;\A1;50
  7
Arial
 11
1.0
 21
0.0
 31
0.0
 73
         0
 44
0.0
  0
ENDBLK
  5
DB
100
AcDbEntity
  8
0
390
0
100
AcDbBlockEnd
  0
BLOCK
  5
DD
100
AcDbEntity
  8
BEMASSUNG
390
0
100
AcDbBlockBegin
  2
D333244672
 70
         0
 10
0.0
 20
0.0
 30
0.0
  3
D333244672
  1

  0
LINE
  5
DE
100
AcDbEntity
  8
MASSLINIEN
390
0
 62
       172
100
AcDbLine
 10
102.429031556
 20
104.6747364922
 30
0.0
 11
104.6780646134
 21
102.1248638862
 31
0.0
  0
LINE
  5
DF
100
AcDbEntity
  8
MASSLINIEN
390
0
 62
       172
100
AcDbLine
 10
97.9101459443
 20
100.6889988913
 30
0.0
 11
103.9289566183
 21
105.9976971142
 31
0.0
  0
LINE
  5
E0
100
AcDbEntity
  8
MASSLINIEN
390
0
 62
       172
100
AcDbLine
 10
100.1591790017
 20
98.1391262853
 30
0.0
 11
106.1779896757
 21
103.4478245082
 31
0.0
  0
LINE
  5
E1
100
AcDbEntity
  8
MASSLINIEN
390
0
 62
       172
100
AcDbLine
 10
102.429031556
 20
104.6747364922
 30
0.0
 11
95.4586443752
 21
112.5775102052
 31
0.0
  0
LINE
  5
E2
100
AcDbEntity
  8
MASSLINIEN
390
0
 62
       172
100
AcDbLine
 10
104.6780646134
 20
102.1248638862
 30
0.0
 11
108.6725253728
 21
97.5960882719
 31
0.0
  0
SOLID
  5
E3
100
AcDbEntity
  8
MASSGRENZEN
390
0
100
AcDbTrace
 10
102.429031556
 20
104.6747364922
 30
0.0
 11
100.1678985298
 21
106.6463544668
 31
0.0
 12
100.7552370508
 22
107.1643975042
 32
0.0
 13
100.7552370508
 23
107.1643975042
 33
0.0
  0
SOLID
  5
E4
100
AcDbEntity
  8
MASSGRENZEN
390
0
100
AcDbTrace
 10
104.6780646134
 20
102.1248638862
 30
0.0
 11
106.9391976396
 21
100.1532459116
 31
0.0
 12
106.3518591186
 22
99.6352028743
 32
0.0
 13
106.3518591186
 23
99.6352028743
 33
0.0
  0
MTEXT
  5
E5
100
AcDbEntity
  8
MASSTEXTE
390
0
 62
       212
100
AcDbMText
 10
98.8182821765
 20
112.4813584858
 30
0.0
 40
2.0
 41
0.0
 71
         5
 72
         1
  1
\W1.135130;\A1;3.4
  7
Arial
 11
0.661480311
 21
-0.7499625312
 31
0.0
 73
         0
 44
0.0
  0
ENDBLK
  5
E6
100
AcDbEntity
  8
0
390
0
100
AcDbBlockEnd
  0
BLOCK
  5
E8
100
AcDbEntity
  8
BEMASSUNG
390
0
100
AcDbBlockBegin
  2
D402024192
 70
         0
 10
0.0
 20
0.0
 30
0.0
  3
D402024192
  1

  0
LINE
  5
E9
100
AcDbEntity
  8
MASSLINIEN
390
0
 62
       172
100
AcDbLine
 10
104.6780646134
 20
102.1248638862
 30
0.0
 11
106.9270976707
 21
99.5749912802
 31
0.0
  0
LINE
  5
EA
100
AcDbEntity
  8
MASSLINIEN
390
0
 62
       172
100
AcDbLine
 10
100.1591790017
 20
98.1391262853
 30
0.0
 11
106.1779896757
 21
103.4478245082
 31
0.0
  0
LINE
  5
EB
100
AcDbEntity
  8
MASSLINIEN
390
0
 62
       172
100
AcDbLine
 10
102.408212059
 20
95.5892536793
 30
0.0
 11
108.4270227331
 21
100.8979519022
 31
0.0
  0
LINE
  5
EC
100
AcDbEntity
  8
MASSLINIEN
390
0
 62
       172
100
AcDbLine
 10
106.9270976707
 20
99.5749912802
 30
0.0
 11
113.8974848515
 21
91.6722175673
 31
0.0
  0
LINE
  5
ED
100
AcDbEntity
  8
MASSLINIEN
390
0
 62
       172
100
AcDbLine
 10
104.6780646134
 20
102.1248638862
 30
0.0
 11
100.683603854
 21
106.6536395006
 31
0.0
  0
SOLID
  5
EE
100
AcDbEntity
  8
MASSGRENZEN
390
0
100
AcDbTrace
 10
104.6780646134
 20
102.1248638862
 30
0.0
 11
102.4169315872
 21
104.0964818608
 31
0.0
 12
103.0042701082
 22
104.6145248982
 32
0.0
 13
103.0042701082
 23
104.6145248982
 33
0.0
  0
SOLID
  5
EF
100
AcDbEntity
  8
MASSGRENZEN
390
0
100
AcDbTrace
 10
106.9270976707
 20
99.5749912802
 30
0.0
 11
109.1882306969
 21
97.6033733056
 31
0.0
 12
108.6008921759
 22
97.0853302683
 32
0.0
 13
108.6008921759
 23
97.0853302683
 33
0.0
  0
MTEXT
  5
F0
100
AcDbEntity
  8
MASSTEXTE
390
0
 62
       212
100
AcDbMText
 10
114.2216630034
 20
95.0175605743
 30
0.0
 40
2.0
 41
0.0
 71
         5
 72
         1
  1
\W1.135130;\A1;3.4
  7
Arial
 11
0.661480311
 21
-0.7499625312
 31
0.0
 73
         0
 44
0.0
  0
ENDBLK
  5
F1
100
AcDbEntity
  8
0
390
0
100
AcDbBlockEnd
  0
BLOCK
  5
F3
100
AcDbEntity
  8
BEMASSUNG
390
0
100
AcDbBlockBegin
  2
D402023936
 70
         0
 10
0.0
 20
0.0
 30
0.0
  3
D402023936
  1

  0
LINE
  5
F4
100
AcDbEntity
  8
MASSLINIEN
390
0
 62
       172
100
AcDbLine
 10
109.8871284603
 20
274.8903662321
 30
0.0
 11
109.8871284603
 21
257.8882279478
 31
0.0
  0
LINE
  5
F5
100
AcDbEntity
  8
MASSLINIEN
390
0
 62
       172
100
AcDbLine
 10
90.8852614193
 20
274.8903662321
 30
0.0
 11
111.8871284603
 21
274.8903662321
 31
0.0
  0
LINE
  5
F6
100
AcDbEntity
  8
MASSLINIEN
390
0
 62
       172
100
AcDbLine
 10
90.8852614194
 20
257.8882279478
 30
0.0
 11
111.8871284603
 21
257.8882279478
 31
0.0
  0
SOLID
  5
F7
100
AcDbEntity
  8
MASSGRENZEN
390
0
100
AcDbTrace
 10
109.8871284603
 20
274.8903662321
 30
0.0
 11
110.278707037
 21
271.916031648
 31
0.0
 12
109.4955498837
 22
271.916031648
 32
0.0
 13
109.4955498837
 23
271.916031648
 33
0.0
  0
SOLID
  5
F8
100
AcDbEntity
  8
MASSGRENZEN
390
0
100
AcDbTrace
 10
109.8871284603
 20
257.8882279478
 30
0.0
 11
109.4955498837
 21
260.8625625319
 31
0.0
 12
110.278707037
 22
260.8625625319
 32
0.0
 13
110.278707037
 23
260.8625625319
 33
0.0
  0
MTEXT
  5
F9
100
AcDbEntity
  8
MASSTEXTE
390
0
 62
       212
100
AcDbMText
 10
107.4311284603
 20
266.38929709
 30
0.0
 40
2.0
 41
0.0
 71
         5
 72
         1
  1
\W1.135145;\A1;17
  7
Arial
 11
0.0
 21
1.0
 31
0.0
 73
         0
 44
0.0
  0
ENDBLK
  5
FA
100
AcDbEntity
  8
0
390
0
100
AcDbBlockEnd
  0
BLOCK
  5
FC
100
AcDbEntity
  8
BEMASSUNG
390
0
100
AcDbBlockBegin
  2
D402023680
 70
         0
 10
0.0
 20
0.0
 30
0.0
  3
D402023680
  1

  0
LINE
  5
FD
100
AcDbEntity
  8
MASSLINIEN
390
0
 62
       172
100
AcDbLine
 10
29.3291163057
 20
60.4054355295
 30
0.0
 11
32.4115486291
 21
58.9706494916
 31
0.0
  0
LINE
  5
FE
100
AcDbEntity
  8
MASSLINIEN
390
0
 62
       172
100
AcDbLine
 10
26.5484652133
 20
54.4316048808
 30
0.0
 11
30.1731080926
 21
62.2186310136
 31
0.0
  0
LINE
  5
FF
100
AcDbEntity
  8
MASSLINIEN
390
0
 62
       172
100
AcDbLine
 10
29.6308975367
 20
52.996818843
 30
0.0
 11
33.255540416
 21
60.7838449757
 31
0.0
  0
LINE
  5
100
100
AcDbEntity
  8
MASSLINIEN
390
0
 62
       172
100
AcDbLine
 10
29.3291163057
 20
60.4054355295
 30
0.0
 11
19.7757899643
 21
64.8522417565
 31
0.0
  0
LINE
  5
101
100
AcDbEntity
  8
MASSLINIEN
390
0
 62
       172
100
AcDbLine
 10
32.4115486291
 20
58.9706494916
 30
0.0
 11
37.8861924621
 21
56.4223559007
 31
0.0
  0
SOLID
  5
102
100
AcDbEntity
  8
MASSGRENZEN
390
0
100
AcDbTrace
 10
29.3291163057
 20
60.4054355295
 30
0.0
 11
26.4673467363
 21
61.3055882562
 31
0.0
 12
26.7978358389
 22
62.0155967631
 32
0.0
 13
26.7978358389
 23
62.0155967631
 33
0.0
  0
SOLID
  5
103
100
AcDbEntity
  8
MASSGRENZEN
390
0
100
AcDbTrace
 10
32.4115486291
 20
58.9706494916
 30
0.0
 11
35.2733181985
 21
58.0704967648
 31
0.0
 12
34.9428290959
 22
57.3604882579
 32
0.0
 13
34.9428290959
 23
57.3604882579
 33
0.0
  0
MTEXT
  5
104
100
AcDbEntity
  8
MASSTEXTE
390
0
 62
       212
100
AcDbMText
 10
22.8923500312
 20
66.1105996777
 30
0.0
 40
2.0
 41
0.0
 71
         5
 72
         1
  1
\W1.135130;\A1;3.4
  7
Arial
 11
0.9065977421
 21
-0.4219958934
 31
0.0
 73
         0
 44
0.0
  0
ENDBLK
  5
105
100
AcDbEntity
  8
0
390
0
100
AcDbBlockEnd
  0
BLOCK
  5
107
100
AcDbEntity
  8
BEMASSUNG
390
0
100
AcDbBlockBegin
  2
D401980160
 70
         0
 10
0.0
 20
0.0
 30
0.0
  3
D401980160
  1

  0
LINE
  5
108
100
AcDbEntity
  8
MASSLINIEN
390
0
 62
       172
100
AcDbLine
 10
32.4115486291
 20
58.9706494916
 30
0.0
 11
35.4939809518
 21
57.535863454
 31
0.0
  0
LINE
  5
109
100
AcDbEntity
  8
MASSLINIEN
390
0
 62
       172
100
AcDbLine
 10
29.6308975367
 20
52.996818843
 30
0.0
 11
33.255540416
 21
60.7838449757
 31
0.0
  0
LINE
  5
10A
100
AcDbEntity
  8
MASSLINIEN
390
0
 62
       172
100
AcDbLine
 10
32.7133298594
 20
51.5620328054
 30
0.0
 11
36.3379727387
 21
59.3490589382
 31
0.0
  0
LINE
  5
10B
100
AcDbEntity
  8
MASSLINIEN
390
0
 62
       172
100
AcDbLine
 10
35.4939809518
 20
57.535863454
 30
0.0
 11
45.0473072933
 21
53.089057227
 31
0.0
  0
LINE
  5
10C
100
AcDbEntity
  8
MASSLINIEN
390
0
 62
       172
100
AcDbLine
 10
32.4115486291
 20
58.9706494916
 30
0.0
 11
26.9369047961
 21
61.5189430824
 31
0.0
  0
SOLID
  5
10D
100
AcDbEntity
  8
MASSGRENZEN
390
0
100
AcDbTrace
 10
32.4115486291
 20
58.9706494916
 30
0.0
 11
29.5497790597
 21
59.8708022184
 31
0.0
 12
29.8802681623
 22
60.5808107253
 32
0.0
 13
29.8802681623
 23
60.5808107253
 33
0.0
  0
SOLID
  5
10E
100
AcDbEntity
  8
MASSGRENZEN
390
0
100
AcDbTrace
 10
35.4939809518
 20
57.535863454
 30
0.0
 11
38.3557505212
 21
56.6357107273
 31
0.0
 12
38.0252614186
 22
55.9257022204
 32
0.0
 13
38.0252614186
 23
55.9257022204
 33
0.0
  0
MTEXT
  5
10F
100
AcDbEntity
  8
MASSTEXTE
390
0
 62
       212
100
AcDbMText
 10
44.0035910549
 20
56.2839074148
 30
0.0
 40
2.0
 41
0.0
 71
         5
 72
         1
  1
\W1.135130;\A1;3.4
  7
Arial
 11
0.9065977421
 21
-0.4219958934
 31
0.0
 73
         0
 44
0.0
  0
ENDBLK
  5
110
100
AcDbEntity
  8
0
390
0
100
AcDbBlockEnd
  0
BLOCK
  5
112
100
AcDbEntity
  8
BEMASSUNG
390
0
100
AcDbBlockBegin
  2
D401979904
 70
         0
 10
0.0
 20
0.0
 30
0.0
  3
D401979904
  1

  0
LINE
  5
113
100
AcDbEntity
  8
MASSLINIEN
390
0
 62
       172
100
AcDbLine
 10
29.0320892167
 20
46.5803276402
 30
0.0
 11
32.0320892167
 21
46.5803276402
 31
0.0
  0
LINE
  5
114
100
AcDbEntity
  8
MASSLINIEN
390
0
 62
       172
100
AcDbLine
 10
29.0320892167
 20
43.9661067238
 30
0.0
 11
29.0320892167
 21
48.5803276402
 31
0.0
  0
LINE
  5
115
100
AcDbEntity
  8
MASSLINIEN
390
0
 62
       172
100
AcDbLine
 10
32.0320892167
 20
43.9661067238
 30
0.0
 11
32.0320892167
 21
48.5803276402
 31
0.0
  0
LINE
  5
116
100
AcDbEntity
  8
MASSLINIEN
390
0
 62
       172
100
AcDbLine
 10
32.0320892167
 20
46.5803276402
 30
0.0
 11
39.9246472739
 21
46.5803276402
 31
0.0
  0
LINE
  5
117
100
AcDbEntity
  8
MASSLINIEN
390
0
 62
       172
100
AcDbLine
 10
29.0320892167
 20
46.5803276402
 30
0.0
 11
22.9934200485
 21
46.5803276402
 31
0.0
  0
SOLID
  5
118
100
AcDbEntity
  8
MASSGRENZEN
390
0
100
AcDbTrace
 10
29.0320892167
 20
46.5803276402
 30
0.0
 11
26.0577546326
 21
46.1887490635
 31
0.0
 12
26.0577546326
 22
46.9719062168
 32
0.0
 13
26.0577546326
 23
46.9719062168
 33
0.0
  0
SOLID
  5
119
100
AcDbEntity
  8
MASSGRENZEN
390
0
100
AcDbTrace
 10
32.0320892167
 20
46.5803276402
 30
0.0
 11
35.0064238008
 21
46.9719062168
 31
0.0
 12
35.0064238008
 22
46.1887490635
 32
0.0
 13
35.0064238008
 23
46.1887490635
 33
0.0
  0
MTEXT
  5
11A
100
AcDbEntity
  8
MASSTEXTE
390
0
 62
       212
100
AcDbMText
 10
38.9527028294
 20
49.0363276402
 30
0.0
 40
2.0
 41
0.0
 71
         5
 72
         1
  1
\W1.135146;\A1;3
  7
Arial
 73
         0
 44
0.0
  0
ENDBLK
  5
11B
100
AcDbEntity
  8
0
390
0
100
AcDbBlockEnd
  0
BLOCK
  5
11D
100
AcDbEntity
  8
BEMASSUNG
390
0
100
AcDbBlockBegin
  2
D401979648
 70
         0
 10
0.0
 20
0.0
 30
0.0
  3
D401979648
  1

  0
LINE
  5
11E
100
AcDbEntity
  8
MASSLINIEN
390
0
 62
       172
100
AcDbLine
 10
30.0320892164
 20
77.1893713922
 30
0.0
 11
68.0320892164
 21
77.1893713922
 31
0.0
  0
LINE
  5
11F
100
AcDbEntity
  8
MASSLINIEN
390
0
 62
       172
100
AcDbLine
 10
30.0320892164
 20
18.7661067238
 30
0.0
 11
30.0320892164
 21
79.1893713922
 31
0.0
  0
LINE
  5
120
100
AcDbEntity
  8
MASSLINIEN
390
0
 62
       172
100
AcDbLine
 10
68.0320892164
 20
18.2857969935
 30
0.0
 11
68.0320892164
 21
79.1893713922
 31
0.0
  0
SOLID
  5
121
100
AcDbEntity
  8
MASSGRENZEN
390
0
100
AcDbTrace
 10
30.0320892164
 20
77.1893713922
 30
0.0
 11
33.0064238005
 21
77.5809499689
 31
0.0
 12
33.0064238005
 22
76.7977928156
 32
0.0
 13
33.0064238005
 23
76.7977928156
 33
0.0
  0
SOLID
  5
122
100
AcDbEntity
  8
MASSGRENZEN
390
0
100
AcDbTrace
 10
68.0320892164
 20
77.1893713922
 30
0.0
 11
65.0577546323
 21
76.7977928156
 31
0.0
 12
65.0577546323
 22
77.5809499689
 32
0.0
 13
65.0577546323
 23
77.5809499689
 33
0.0
  0
MTEXT
  5
123
100
AcDbEntity
  8
MASSTEXTE
390
0
 62
       212
100
AcDbMText
 10
49.0320892164
 20
79.6453713922
 30
0.0
 40
2.0
 41
0.0
 71
         5
 72
         1
  1
\W1.135145;\A1;38
  7
Arial
 73
         0
 44
0.0
  0
ENDBLK
  5
124
100
AcDbEntity
  8
0
390
0
100
AcDbBlockEnd
  0
BLOCK
  5
126
100
AcDbEntity
  8
BEMASSUNG
390
0
100
AcDbBlockBegin
  2
D401979392
 70
         0
 10
0.0
 20
0.0
 30
0.0
  3
D401979392
  1

  0
LINE
  5
127
100
AcDbEntity
  8
MASSLINIEN
390
0
 62
       172
100
AcDbLine
 10
19.6572542766
 20
134.9612347489
 30
0.0
 11
19.6572542766
 21
84.9612347489
 31
0.0
  0
LINE
  5
128
100
AcDbEntity
  8
MASSLINIEN
390
0
 62
       172
100
AcDbLine
 10
30.0320892164
 20
134.9612347489
 30
0.0
 11
17.6572542766
 21
134.9612347489
 31
0.0
  0
LINE
  5
129
100
AcDbEntity
  8
MASSLINIEN
390
0
 62
       172
100
AcDbLine
 10
30.0320892164
 20
84.9612347489
 30
0.0
 11
17.6572542766
 21
84.9612347489
 31
0.0
  0
SOLID
  5
12A
100
AcDbEntity
  8
MASSGRENZEN
390
0
100
AcDbTrace
 10
19.6572542766
 20
134.9612347489
 30
0.0
 11
20.0488328532
 21
131.9869001648
 31
0.0
 12
19.2656756999
 22
131.9869001648
 32
0.0
 13
19.2656756999
 23
131.9869001648
 33
0.0
  0
SOLID
  5
12B
100
AcDbEntity
  8
MASSGRENZEN
390
0
100
AcDbTrace
 10
19.6572542766
 20
84.9612347489
 30
0.0
 11
19.2656756999
 21
87.9355693331
 31
0.0
 12
20.0488328532
 22
87.9355693331
 32
0.0
 13
20.0488328532
 23
87.9355693331
 33
0.0
  0
MTEXT
  5
12C
100
AcDbEntity
  8
MASSTEXTE
390
0
 62
       212
100
AcDbMText
 10
17.2012542766
 20
109.9612347489
 30
0.0
 40
2.0
 41
0.0
 71
         5
 72
         1
  1
\W1.135145;\A1;50
  7
Arial
 11
0.0
 21
1.0
 31
0.0
 73
         0
 44
0.0
  0
ENDBLK
  5
12D
100
AcDbEntity
  8
0
390
0
100
AcDbBlockEnd
  0
BLOCK
  5
12F
100
AcDbEntity
  8
BEMASSUNG
390
0
100
AcDbBlockBegin
  2
D401979136
 70
         0
 10
0.0
 20
0.0
 30
0.0
  3
D401979136
  1

  0
LINE
  5
130
100
AcDbEntity
  8
MASSLINIEN
390
0
 62
       172
100
AcDbLine
 10
156.4467894025
 20
281.0117626219
 30
0.0
 11
156.4467894025
 21
163.0070994377
 31
0.0
  0
LINE
  5
131
100
AcDbEntity
  8
MASSLINIEN
390
0
 62
       172
100
AcDbLine
 10
152.2540536494
 20
281.0117626219
 30
0.0
 11
158.4467894025
 21
281.0117626219
 31
0.0
  0
LINE
  5
132
100
AcDbEntity
  8
MASSLINIEN
390
0
 62
       172
100
AcDbLine
 10
152.2540536494
 20
163.0070994377
 30
0.0
 11
158.4467894025
 21
163.0070994377
 31
0.0
  0
SOLID
  5
133
100
AcDbEntity
  8
MASSGRENZEN
390
0
100
AcDbTrace
 10
156.4467894025
 20
281.0117626219
 30
0.0
 11
156.8383679792
 21
278.0374280378
 31
0.0
 12
156.0552108259
 22
278.0374280378
 32
0.0
 13
156.0552108259
 23
278.0374280378
 33
0.0
  0
SOLID
  5
134
100
AcDbEntity
  8
MASSGRENZEN
390
0
100
AcDbTrace
 10
156.4467894025
 20
163.0070994377
 30
0.0
 11
156.0552108259
 21
165.9814340218
 31
0.0
 12
156.8383679792
 22
165.9814340218
 32
0.0
 13
156.8383679792
 23
165.9814340218
 33
0.0
  0
MTEXT
  5
135
100
AcDbEntity
  8
MASSTEXTE
390
0
 62
       212
100
AcDbMText
 10
153.9907894025
 20
222.0094310298
 30
0.0
 40
2.0
 41
0.0
 71
         5
 72
         1
  1
\W1.135145;\A1;118
  7
Arial
 11
0.0
 21
1.0
 31
0.0
 73
         0
 44
0.0
  0
ENDBLK
  5
136
100
AcDbEntity
  8
0
390
0
100
AcDbBlockEnd
  0
BLOCK
  5
138
100
AcDbEntity
  8
BEMASSUNG
390
0
100
AcDbBlockBegin
  2
D401978880
 70
         0
 10
0.0
 20
0.0
 30
0.0
  3
D401978880
  1

  0
LINE
  5
139
100
AcDbEntity
  8
MASSLINIEN
390
0
 62
       172
100
AcDbLine
 10
79.7766593746
 20
185.3372222273
 30
0.0
 11
79.7766593746
 21
122.3372222273
 31
0.0
  0
LINE
  5
13A
100
AcDbEntity
  8
MASSLINIEN
390
0
 62
       172
100
AcDbLine
 10
93.6144796784
 20
185.3372222273
 30
0.0
 11
77.7766593746
 21
185.3372222273
 31
0.0
  0
LINE
  5
13B
100
AcDbEntity
  8
MASSLINIEN
390
0
 62
       172
100
AcDbLine
 10
93.6144796784
 20
122.3372222273
 30
0.0
 11
77.7766593746
 21
122.3372222273
 31
0.0
  0
SOLID
  5
13C
100
AcDbEntity
  8
MASSGRENZEN
390
0
100
AcDbTrace
 10
79.7766593746
 20
185.3372222273
 30
0.0
 11
80.1682379513
 21
182.3628876432
 31
0.0
 12
79.3850807979
 22
182.3628876432
 32
0.0
 13
79.3850807979
 23
182.3628876432
 33
0.0
  0
SOLID
  5
13D
100
AcDbEntity
  8
MASSGRENZEN
390
0
100
AcDbTrace
 10
79.7766593746
 20
122.3372222273
 30
0.0
 11
79.3850807979
 21
125.3115568114
 31
0.0
 12
80.1682379513
 22
125.3115568114
 32
0.0
 13
80.1682379513
 23
125.3115568114
 33
0.0
  0
MTEXT
  5
13E
100
AcDbEntity
  8
MASSTEXTE
390
0
 62
       212
100
AcDbMText
 10
77.3206593746
 20
153.8372222273
 30
0.0
 40
2.0
 41
0.0
 71
         5
 72
         1
  1
\W1.135146;\A1;63
  7
Arial
 11
0.0
 21
1.0
 31
0.0
 73
         0
 44
0.0
  0
ENDBLK
  5
13F
100
AcDbEntity
  8
0
390
0
100
AcDbBlockEnd
  0
BLOCK
  5
141
100
AcDbEntity
  8
BEMASSUNG
390
0
100
AcDbBlockBegin
  2
D401978624
 70
         0
 10
0.0
 20
0.0
 30
0.0
  3
D401978624
  1

  0
LINE
  5
142
100
AcDbEntity
  8
MASSLINIEN
390
0
 62
       172
100
AcDbLine
 10
152.2540536494
 20
147.6573876404
 30
0.0
 11
202.2540536494
 21
147.6573876404
 31
0.0
  0
LINE
  5
143
100
AcDbEntity
  8
MASSLINIEN
390
0
 62
       172
100
AcDbLine
 10
152.2540536494
 20
280.8017626219
 30
0.0
 11
152.2540536494
 21
145.6573876404
 31
0.0
  0
LINE
  5
144
100
AcDbEntity
  8
MASSLINIEN
390
0
 62
       172
100
AcDbLine
 10
202.2540536494
 20
280.8017626219
 30
0.0
 11
202.2540536494
 21
145.6573876404
 31
0.0
  0
SOLID
  5
145
100
AcDbEntity
  8
MASSGRENZEN
390
0
100
AcDbTrace
 10
152.2540536494
 20
147.6573876404
 30
0.0
 11
155.2283882335
 21
148.0489662171
 31
0.0
 12
155.2283882335
 22
147.2658090638
 32
0.0
 13
155.2283882335
 23
147.2658090638
 33
0.0
  0
SOLID
  5
146
100
AcDbEntity
  8
MASSGRENZEN
390
0
100
AcDbTrace
 10
202.2540536494
 20
147.6573876404
 30
0.0
 11
199.2797190652
 21
147.2658090638
 31
0.0
 12
199.2797190652
 22
148.0489662171
 32
0.0
 13
199.2797190652
 23
148.0489662171
 33
0.0
  0
MTEXT
  5
147
100
AcDbEntity
  8
MASSTEXTE
390
0
 62
       212
100
AcDbMText
 10
177.2540536494
 20
150.1133876404
 30
0.0
 40
2.0
 41
0.0
 71
         5
 72
         1
  1
\W1.135145;\A1;50
  7
Arial
 11
1.0
 21
0.0
 31
0.0
 73
         0
 44
0.0
  0
ENDBLK
  5
148
100
AcDbEntity
  8
0
390
0
100
AcDbBlockEnd
  0
BLOCK
  5
14A
100
AcDbEntity
  8
BEMASSUNG
390
0
100
AcDbBlockBegin
  2
D401978368
 70
         0
 10
0.0
 20
0.0
 30
0.0
  3
D401978368
  1

  0
LINE
  5
14B
100
AcDbEntity
  8
MASSLINIEN
390
0
 62
       172
100
AcDbLine
 10
93.6144796784
 20
196.7146863183
 30
0.0
 11
143.6144796784
 21
196.7146863183
 31
0.0
  0
LINE
  5
14C
100
AcDbEntity
  8
MASSLINIEN
390
0
 62
       172
100
AcDbLine
 10
93.6144796784
 20
46.7151716655
 30
0.0
 11
93.6144796784
 21
198.7146863183
 31
0.0
  0
LINE
  5
14D
100
AcDbEntity
  8
MASSLINIEN
390
0
 62
       172
100
AcDbLine
 10
143.6144796784
 20
46.353092146
 30
0.0
 11
143.6144796784
 21
198.7146863183
 31
0.0
  0
SOLID
  5
14E
100
AcDbEntity
  8
MASSGRENZEN
390
0
100
AcDbTrace
 10
93.6144796784
 20
196.7146863183
 30
0.0
 11
96.5888142625
 21
197.106264895
 31
0.0
 12
96.5888142625
 22
196.3231077417
 32
0.0
 13
96.5888142625
 23
196.3231077417
 33
0.0
  0
SOLID
  5
14F
100
AcDbEntity
  8
MASSGRENZEN
390
0
100
AcDbTrace
 10
143.6144796784
 20
196.7146863183
 30
0.0
 11
140.6401450942
 21
196.3231077417
 31
0.0
 12
140.6401450942
 22
197.106264895
 32
0.0
 13
140.6401450942
 23
197.106264895
 33
0.0
  0
MTEXT
  5
150
100
AcDbEntity
  8
MASSTEXTE
390
0
 62
       212
100
AcDbMText
 10
118.6144796784
 20
199.1706863183
 30
0.0
 40
2.0
 41
0.0
 71
         5
 72
         1
  1
\W1.135145;\A1;50
  7
Arial
 73
         0
 44
0.0
  0
ENDBLK
  5
151
100
AcDbEntity
  8
0
390
0
100
AcDbBlockEnd
  0
ENDSEC
  0
SECTION
  2
ENTITIES
  0
TEXT
  5
152
100
AcDbEntity
  8
BESCHRIFTUNG
390
0
100
AcDbText
 10
129.6929117117
 20
6.9230888889
 30
0.0
 40
3.3
  1
3202 Pv Doppelhebel DE
 41
1.143712236
  7
Arial
 11
129.6929117117
 21
10.2230888889
 31
0.0
100
AcDbText
 73
         3
  0
TEXT
  5
153
100
AcDbEntity
  8
BESCHRIFTUNG
390
0
100
AcDbText
 10
130.2656987651
 20
29.3230888889
 30
0.0
 40
3.3
  1
2026-04-19
 41
1.1302028095
  7
Arial
 11
130.2656987651
 21
32.6230888889
 31
0.0
100
AcDbText
 73
         3
  0
ARC
  5
154
100
AcDbEntity
  8
3201_1-3HEBELBOCK
390
0
100
AcDbCircle
 10
71.1740187417
 20
277.0429372036
 30
0.0
 40
2.0
100
AcDbArc
 50
0.0
 51
149.0005887156
  0
LINE
  5
155
100
AcDbEntity
  8
3201_1-3HEBELBOCK
390
0
100
AcDbLine
 10
73.1740187417
 20
227.4464435495
 30
0.0
 11
73.1740187417
 21
277.0429372036
 31
0.0
  0
LINE
  5
156
100
AcDbEntity
  8
3201_1-3HEBELBOCK
390
0
100
AcDbLine
 10
68.1740187417
 20
192.4464435495
 30
0.0
 11
73.1740187417
 21
227.4464435495
 31
0.0
  0
CIRCLE
  5
157
100
AcDbEntity
  8
3202_9P
390
0
100
AcDbCircle
 10
99.9751149773
 20
145.3334131783
 30
0.0
 40
1.25
  0
CIRCLE
  5
158
100
AcDbEntity
  8
3202_9P
390
0
100
AcDbCircle
 10
118.6144796784
 20
153.8372222273
 30
0.0
 40
1.25
  0
CIRCLE
  5
159
100
AcDbEntity
  8
3202_9P
390
0
100
AcDbCircle
 10
101.511343863
 20
139.9994931765
 30
0.0
 40
1.5
  0
CIRCLE
  5
15A
100
AcDbEntity
  8
3202_1P
390
0
100
AcDbCircle
 10
49.1740187417
 20
256.4464435495
 30
0.0
 40
1.25
  0
CIRCLE
  5
15B
100
AcDbEntity
  8
3202_1P
390
0
100
AcDbCircle
 10
39.6740187417
 20
200.9464435495
 30
0.0
 40
1.5
  0
CIRCLE
  5
15C
100
AcDbEntity
  8
3202_1P
390
0
100
AcDbCircle
 10
58.6740187417
 20
200.9464435495
 30
0.0
 40
1.5
  0
CIRCLE
  5
15D
100
AcDbEntity
  8
3202_1P
390
0
100
AcDbCircle
 10
67.9200000951
 20
244.7329221529
 30
0.0
 40
1.25
  0
TEXT
  5
15E
100
AcDbEntity
  8
BESCHRIFTUNG
390
0
100
AcDbText
 10
47.4560614408
 20
281.7596624377
 30
0.0
 40
3.0
  1
3202.1
 41
1.1351381522
  7
Arial
100
AcDbText
  0
TEXT
  5
15F
100
AcDbEntity
  8
BESCHRIFTUNG
390
0
100
AcDbText
 10
125.6635976871
 20
111.6934491498
 30
0.0
 40
3.0
  1
3202.9
 41
1.1351380459
  7
Arial
100
AcDbText
  0
ARC
  5
160
100
AcDbEntity
  8
3202_1P
390
0
100
AcDbCircle
 10
49.1740187417
 20
256.4464435495
 30
0.0
 40
21.0
100
AcDbArc
 50
44.5230765296
 51
72.2472098381
  0
LINE
  5
161
100
AcDbEntity
  8
3202_1P
390
0
100
AcDbLine
 10
61.1643594821
 20
266.2085906297
 30
0.0
 11
68.6025009636
 21
278.588025006
 31
0.0
  0
LINE
  5
162
100
AcDbEntity
  8
3202_1P
390
0
100
AcDbLine
 10
35.1619216266
 20
245.4268389424
 30
0.0
 11
31.6255892086
 21
239.9812420546
 31
0.0
  0
LINE
  5
163
100
AcDbEntity
  8
3202_1P
390
0
100
AcDbLine
 10
31.6255892086
 20
239.9812420546
 30
0.0
 11
35.5085575892
 21
234.4070420492
 31
0.0
  0
LINE
  5
164
100
AcDbEntity
  8
3202_1P
390
0
100
AcDbLine
 10
29.0865721934
 20
191.9575723182
 30
0.0
 11
35.5924179391
 21
234.04486606
 31
0.0
  0
LINE
  5
165
100
AcDbEntity
  8
3202_1P
390
0
100
AcDbLine
 10
69.0413141434
 20
191.4464435495
 30
0.0
 11
74.1740187417
 21
227.3753757376
 31
0.0
  0
LINE
  5
166
100
AcDbEntity
  8
3202_1P
390
0
100
AcDbLine
 10
74.1740187417
 20
227.3753757376
 30
0.0
 11
74.1740187417
 21
277.0429372036
 31
0.0
  0
ARC
  5
167
100
AcDbEntity
  8
3202_1P
390
0
100
AcDbCircle
 10
71.1740187417
 20
277.0429372036
 30
0.0
 40
3.0
100
AcDbArc
 50
0.0
 51
149.0005887156
  0
LINE
  5
168
100
AcDbEntity
  8
3202_1P
390
0
 62
         5
100
AcDbLine
 10
61.1643594821
 20
266.2085906297
 30
0.0
 11
64.1463486758
 21
271.1715695708
 31
0.0
  0
LINE
  5
169
100
AcDbEntity
  8
3202_1P
390
0
 62
         5
100
AcDbLine
 10
35.1619216266
 20
245.4268389424
 30
0.0
 11
33.3514782464
 21
242.6389378994
 31
0.0
  0
ARC
  5
16A
100
AcDbEntity
  8
3202_1P
390
0
100
AcDbCircle
 10
49.1740187417
 20
256.4464435495
 30
0.0
 40
21.0
100
AcDbArc
 50
107.7527901619
 51
221.1095065969
  0
ARC
  5
16B
100
AcDbEntity
  8
3202_1P
390
0
  6
DIVIDE
100
AcDbCircle
 10
49.1740187417
 20
256.4464435495
 30
0.0
 40
21.0
100
AcDbArc
 50
72.2472098381
 51
107.7527901619
  0
LINE
  5
16C
100
AcDbEntity
  8
3202_1P
390
0
  6
DASHED
100
AcDbLine
 10
26.1434594433
 20
281.4416347704
 30
0.0
 11
49.1740187417
 21
256.4464435495
 31
0.0
  0
LINE
  5
16D
100
AcDbEntity
  8
3202_1P
390
0
  6
DASHED
100
AcDbLine
 10
49.1740187417
 20
256.4464435495
 30
0.0
 11
67.9200000951
 21
244.7329221529
 31
0.0
  0
LINE
  5
16E
100
AcDbEntity
  8
3202_1P
390
0
  6
DASHED
100
AcDbLine
 10
67.9200000951
 20
244.7329221529
 30
0.0
 11
58.6740187417
 21
200.9464435495
 31
0.0
  0
LINE
  5
16F
100
AcDbEntity
  8
3202_1P
390
0
  6
DASHED
100
AcDbLine
 10
58.6740187417
 20
200.9464435495
 30
0.0
 11
39.6740187417
 21
200.9464435495
 31
0.0
  0
ARC
  5
170
100
AcDbEntity
  8
3202_1P
390
0
  6
DASHED
100
AcDbCircle
 10
35.0982867001
 20
234.1212487716
 30
0.0
 40
0.5
100
AcDbArc
 50
351.2127789525
 51
394.8609353441
  0
CIRCLE
  5
171
100
AcDbEntity
  8
3202_1P
390
0
  6
PHANTOM
100
AcDbCircle
 10
26.1434594433
 20
191.4464435495
 30
0.0
 40
1.0
  0
CIRCLE
  5
172
100
AcDbEntity
  8
3202_1P
390
0
  6
PHANTOM
100
AcDbCircle
 10
26.1434594433
 20
281.4416347704
 30
0.0
 40
0.5
  0
LINE
  5
173
100
AcDbEntity
  8
MITTELLINIEN
390
0
100
AcDbLine
 10
26.1434594433
 20
285.3016347704
 30
0.0
 11
26.1434594433
 21
186.4464435495
 31
0.0
  0
LINE
  5
174
100
AcDbEntity
  8
MITTELLINIEN
390
0
100
AcDbLine
 10
76.1434594433
 20
285.3016347704
 30
0.0
 11
76.1434594433
 21
186.6146519339
 31
0.0
  0
INSERT
  5
175
100
AcDbEntity
  8
BEMASSUNG
390
0
100
AcDbBlockReference
  2
D401831680
 10
0.0
 20
0.0
 30
0.0
  0
LINE
  5
176
100
AcDbEntity
  8
MITTELLINIEN
390
0
100
AcDbLine
 10
93.6144796784
 20
197.2191599805
 30
0.0
 11
93.6144796784
 21
41.7151716655
 31
0.0
  0
LINE
  5
177
100
AcDbEntity
  8
MITTELLINIEN
390
0
100
AcDbLine
 10
143.6144796784
 20
197.2191599805
 30
0.0
 11
143.6144796784
 21
41.353092146
 31
0.0
  0
ARC
  5
178
100
AcDbEntity
  8
3202_9P
390
0
  6
BORDER
 62
        14
100
AcDbCircle
 10
118.6144796784
 20
153.8372222273
 30
0.0
 40
25.5
100
AcDbArc
 50
180.0
 51
360.0
  0
ARC
  5
179
100
AcDbEntity
  8
3202_9P
390
0
  6
DIVIDE
100
AcDbCircle
 10
118.6144796784
 20
153.8372222273
 30
0.0
 40
30.3
100
AcDbArc
 50
214.4031427086
 51
510.0722479873
  0
ARC
  5
17A
100
AcDbEntity
  8
3202_9P
390
0
  6
DIVIDE
100
AcDbCircle
 10
118.6144796784
 20
153.8372222273
 30
0.0
 40
28.7
100
AcDbArc
 50
209.4155977161
 51
510.5844022839
  0
ARC
  5
17B
100
AcDbEntity
  8
3202_9P
390
0
  6
DIVIDE
100
AcDbCircle
 10
118.6144796784
 20
153.8372222273
 30
0.0
 40
27.1
100
AcDbArc
 50
202.7042851322
 51
517.2957148678
  0
ARC
  5
17C
100
AcDbEntity
  8
3202_9P
390
0
  6
DIVIDE
100
AcDbCircle
 10
112.8024184569
 20
152.3251584991
 30
0.0
 40
24.734200166
100
AcDbArc
 50
140.8744856833
 51
219.1255143167
  0
ARC
  5
17D
100
AcDbEntity
  8
3202_9P
390
0
  6
DIVIDE
100
AcDbCircle
 10
113.2816740788
 20
152.019311967
 30
0.0
 40
23.1849894948
100
AcDbArc
 50
148.0242963524
 51
211.9757036476
  0
ARC
  5
17E
100
AcDbEntity
  8
3202_9P
390
0
  6
BORDER
100
AcDbCircle
 10
118.6144796784
 20
153.8372222273
 30
0.0
 40
25.5
100
AcDbArc
 50
0.0
 51
180.0
  0
ARC
  5
17F
100
AcDbEntity
  8
3202_9P
390
0
  6
DIVIDE
100
AcDbCircle
 10
103.1125087713
 20
149.0732308493
 30
0.0
 40
11.0750259409
100
AcDbArc
 50
154.5225248622
 51
210.9509567732
  0
TEXT
  5
180
100
AcDbEntity
  8
3202_9P
390
0
  6
DIVIDE
100
AcDbText
 10
92.3551724358
 20
158.4665286075
 30
0.0
 40
1.5
  1
N1
 41
1.1350267802
  7
Arial
100
AcDbText
  0
LINE
  5
181
100
AcDbEntity
  8
3202_9P
390
0
  6
DIVIDE
100
AcDbLine
 10
134.394480016
 20
169.4375262935
 30
0.0
 11
130.2911114562
 21
162.6017113924
 31
0.0
  0
LINE
  5
182
100
AcDbEntity
  8
3202_9P
390
0
  6
DASHED
100
AcDbLine
 10
93.1144796784
 20
153.8372222273
 30
0.0
 11
99.9751149773
 21
145.3334131783
 31
0.0
  0
LINE
  5
183
100
AcDbEntity
  8
3202_9P
390
0
  6
DASHED
100
AcDbLine
 10
99.9751149773
 20
145.3334131783
 30
0.0
 11
101.511343863
 21
139.9994931765
 31
0.0
  0
LINE
  5
184
100
AcDbEntity
  8
3202_9P
390
0
  6
DASHED
100
AcDbLine
 10
101.511343863
 20
139.9994931765
 30
0.0
 11
118.6144796784
 21
153.8372222273
 31
0.0
  0
LINE
  5
185
100
AcDbEntity
  8
3202_9P
390
0
  6
DASHED
100
AcDbLine
 10
118.6144796784
 20
153.8372222273
 30
0.0
 11
134.394480016
 21
169.4375262935
 31
0.0
  0
CIRCLE
  5
186
100
AcDbEntity
  8
3202_9P
390
0
  6
PHANTOM
100
AcDbCircle
 10
93.6144796784
 20
185.3372222273
 30
0.0
 40
0.5
  0
CIRCLE
  5
187
100
AcDbEntity
  8
3202_9P
390
0
  6
PHANTOM
100
AcDbCircle
 10
93.6144796784
 20
122.3372222273
 30
0.0
 40
1.0
  0
ARC
  5
188
100
AcDbEntity
  8
3202_9P
390
0
  6
DASHED
100
AcDbCircle
 10
108.0870824234
 20
175.9844868778
 30
0.0
 40
17.2316536853
100
AcDbArc
 50
147.1279490405
 51
204.0787149752
  0
ARC
  5
189
100
AcDbEntity
  8
3202_9P
390
0
  6
DASHED
100
AcDbCircle
 10
80.7338605232
 20
171.3888348523
 30
0.0
 40
50.7146039217
100
AcDbArc
 50
284.7132986744
 51
352.3033822859
  0
ARC
  5
18A
100
AcDbEntity
  8
3202_9T
390
0
 62
        11
100
AcDbCircle
 10
118.6144796784
 20
77.2151716655
 30
0.0
 40
26.5
100
AcDbArc
 50
134.2935843359
 51
314.4327335901
  0
ARC
  5
18B
100
AcDbEntity
  8
3202_9T
390
0
  6
DASHED
100
AcDbCircle
 10
98.6050485708
 20
104.4904224234
 30
0.0
 40
6.538676015
100
AcDbArc
 50
139.7505295695
 51
283.7498140526
  0
LINE
  5
18C
100
AcDbEntity
  8
3202_9T
390
0
100
AcDbLine
 10
100.1591790017
 20
98.1391262853
 30
0.0
 11
100.1085984222
 21
96.1831014137
 31
0.0
  0
LINE
  5
18D
100
AcDbEntity
  8
3202_9T
390
0
100
AcDbLine
 10
100.1085984222
 20
96.1831014137
 30
0.0
 11
96.8056567723
 21
94.7757879262
 31
0.0
  0
ARC
  5
18E
100
AcDbEntity
  8
3202_9T
390
0
  6
DASHED
100
AcDbCircle
 10
130.8917179631
 20
67.9245455721
 30
0.0
 40
43.3918054874
100
AcDbArc
 50
141.7707822298
 51
210.786026744
  0
ARC
  5
18F
100
AcDbEntity
  8
3202_9T
390
0
100
AcDbCircle
 10
118.637485245
 20
77.2376714209
 30
0.0
 40
26.4999804623
100
AcDbArc
 50
314.3631589629
 51
494.363158963
  0
TEXT
  5
190
100
AcDbEntity
  8
3202_9T
390
0
  6
DASHED
100
AcDbText
 10
95.783573866
 20
91.5015210509
 30
0.0
 40
1.5
  1
N1
 41
1.1350267802
  7
Arial
100
AcDbText
  0
CIRCLE
  5
191
100
AcDbEntity
  8
MITTELLINIEN
390
0
100
AcDbCircle
 10
118.6144796784
 20
153.8372222273
 30
0.0
 40
31.3
  0
CIRCLE
  5
192
100
AcDbEntity
  8
MITTELLINIEN
390
0
100
AcDbCircle
 10
118.6144796784
 20
77.2151716655
 30
0.0
 40
31.3
  0
LINE
  5
193
100
AcDbEntity
  8
MITTELLINIEN
390
0
100
AcDbLine
 10
94.6027443893
 20
104.4388115472
 30
0.0
 11
106.377093925
 21
91.0894784923
 31
0.0
  0
INSERT
  5
194
100
AcDbEntity
  8
BEMASSUNG
390
0
100
AcDbBlockReference
  2
D333244672
 10
0.0
 20
0.0
 30
0.0
  0
INSERT
  5
195
100
AcDbEntity
  8
BEMASSUNG
390
0
100
AcDbBlockReference
  2
D402024192
 10
0.0
 20
0.0
 30
0.0
  0
MTEXT
  5
196
100
AcDbEntity
  8
3202_1P
390
0
  6
DIVIDE
100
AcDbMText
 10
25.8815625129
 20
282.7422926109
 30
0.0
 40
1.5
 41
0.0
 71
         5
 72
         1
  1
\W0.972837;M50+x2 T2 O2\PP4 U15  I1.2\PD1.4      B-0.3
  7
Arial
 73
         1
 44
0.66
  0
MTEXT
  5
197
100
AcDbEntity
  8
3202_9P
390
0
  6
DIVIDE
100
AcDbMText
 10
94.0040022453
 20
186.3775447302
 30
0.0
 40
1.5
 41
0.0
 71
         5
 72
         1
  1
\W0.864827;M50+x5 T5 O2\PP4 U15  I1.4\PD1.5      B-0.3
  7
Arial
 73
         1
 44
0.66
  0
CIRCLE
  5
198
100
AcDbEntity
  8
3202_9T
390
0
  6
PHANTOM
100
AcDbCircle
 10
93.6144796784
 20
108.7151716655
 30
0.0
 40
0.5
  0
CIRCLE
  5
199
100
AcDbEntity
  8
3202_9T
390
0
  6
PHANTOM
100
AcDbCircle
 10
93.6144796784
 20
45.7151716655
 30
0.0
 40
1.0
  0
ARC
  5
19A
100
AcDbEntity
  8
3201___ EINZELHEBEL DE
390
0
100
AcDbCircle
 10
170.8617108775
 20
236.4440391599
 30
0.0
 40
151.5524856573
100
AcDbArc
 50
162.7278370275
 51
197.2721629725
  0
MTEXT
  5
19B
100
AcDbEntity
  8
3202_9T
390
0
  6
DIVIDE
100
AcDbMText
 10
93.4687860831
 20
108.7385834602
 30
0.0
 40
1.5
 41
0.0
 71
         5
 72
         1
  1
\W0.864843;M50+x5 T5\PO6         I1\PW1.8 B1.8
  7
Arial
 73
         1
 44
0.66
  0
ARC
  5
19C
100
AcDbEntity
  8
3201___ EINZELHEBEL DE
390
0
100
AcDbCircle
 10
141.5861686661
 20
153.8372222273
 30
0.0
 40
57.3893103664
100
AcDbArc
 50
146.7096043108
 51
213.2903956892
  0
ARC
  5
19D
100
AcDbEntity
  8
3201___ EINZELHEBEL DE
390
0
100
AcDbCircle
 10
135.0988173741
 20
77.2151716655
 30
0.0
 40
52.0883890522
100
AcDbArc
 50
142.7897718356
 51
217.2102281644
  0
MTEXT
  5
19E
100
AcDbEntity
  8
BESCHRIFTUNG
390
0
100
AcDbMText
 10
102.6181516533
 20
110.2582521974
 30
0.0
 40
1.5
 41
0.0
 71
         7
 72
         1
  1
\W1.135085;Zu W und B:\P1,8+1,5 (Rille)\P+1,7(Rest) = 5
  7
Arial
 73
         1
 44
0.66
  0
MTEXT
  5
19F
100
AcDbEntity
  8
3201___ EINZELHEBEL DE
390
0
100
AcDbMText
 10
19.7884221914
 20
234.032197724
 30
0.0
 40
2.0
 41
0.0
 71
         5
 72
         1
  1
\W1.135110;>3202.1P\PM50+x2\PT2 O2
  7
Arial
 73
         1
 44
0.66
  0
MTEXT
  5
1A0
100
AcDbEntity
  8
3201___ EINZELHEBEL DE
390
0
100
AcDbMText
 10
87.5554732946
 20
129.4109313549
 30
0.0
 40
2.0
 41
0.0
 71
         5
 72
         1
  1
\W1.135110;>3202.9P\PM50+x5\PT5 O2
  7
Arial
 73
         1
 44
0.66
  0
MTEXT
  5
1A1
100
AcDbEntity
  8
3201___ EINZELHEBEL DE
390
0
100
AcDbMText
 10
83.0104283219
 20
77.2151716655
 30
0.0
 40
2.0
 41
0.0
 71
         5
 72
         1
  1
\W1.135136;>3202.9T\PM50+x5\PT5 O6
  7
Arial
 73
         1
 44
0.66
  0
LINE
  5
1A2
100
AcDbEntity
  8
3201_1-3HEBELBOCK
390
0
100
AcDbLine
 10
32.8306582983
 20
240.0008199578
 30
0.0
 11
36.6724448545
 21
234.4857385709
 31
0.0
  0
LINE
  5
1A3
100
AcDbEntity
  8
3201_1-3HEBELBOCK
390
0
100
AcDbLine
 10
30.1740187417
 20
192.4464435495
 30
0.0
 11
68.1740187417
 21
192.4464435495
 31
0.0
  0
LINE
  5
1A4
100
AcDbEntity
  8
3201_1-3HEBELBOCK
390
0
100
AcDbLine
 10
30.1740187417
 20
192.4464435495
 30
0.0
 11
36.6724448545
 21
234.4857385709
 31
0.0
  0
ARC
  5
1A5
100
AcDbEntity
  8
3201_1-3HEBELBOCK
390
0
100
AcDbCircle
 10
35.0982867001
 20
234.1212487716
 30
0.0
 40
1.5
100
AcDbArc
 50
351.2127789525
 51
394.8609353441
  0
LINE
  5
1A6
100
AcDbEntity
  8
3201_9 HEBELROLLE
390
0
100
AcDbLine
 10
133.5370911165
 20
169.9521953863
 30
0.0
 11
131.1237389842
 21
165.9317842954
 31
0.0
  0
LINE
  5
1A7
100
AcDbEntity
  8
3201_9 HEBELROLLE
390
0
100
AcDbLine
 10
135.2579187799
 20
168.9182418763
 30
0.0
 11
131.0929741213
 21
161.9930408281
 31
0.0
  0
CIRCLE
  5
1A8
100
AcDbEntity
  8
3201_9 HEBELROLLE
390
0
100
AcDbCircle
 10
118.6144796784
 20
153.8372222273
 30
0.0
 40
1.25
  0
CIRCLE
  5
1A9
100
AcDbEntity
  8
3201_9 HEBELROLLE
390
0
100
AcDbCircle
 10
99.9751149773
 20
145.3334131783
 30
0.0
 40
1.25
  0
ARC
  5
1AA
100
AcDbEntity
  8
3201_9 HEBELROLLE
390
0
100
AcDbCircle
 10
108.1554900281
 20
141.2051386503
 30
0.0
 40
1.0
100
AcDbArc
 50
230.3762539762
 51
342.7102356014
  0
ARC
  5
1AB
100
AcDbEntity
  8
3201_9 HEBELROLLE
390
0
100
AcDbCircle
 10
134.3975049482
 20
169.4352186313
 30
0.0
 40
1.0037813143
100
AcDbArc
 50
328.9765166844
 51
509.0246607467
  0
CIRCLE
  5
1AC
100
AcDbEntity
  8
3201_9 HEBELROLLE
390
0
100
AcDbCircle
 10
118.6144796784
 20
153.8372222273
 30
0.0
 40
24.5
  0
CIRCLE
  5
1AD
100
AcDbEntity
  8
3201_9 HEBELROLLE
390
0
100
AcDbCircle
 10
101.511343863
 20
139.9994931765
 30
0.0
 40
1.5
  0
CIRCLE
  5
1AE
100
AcDbEntity
  8
3201_9 HEBELROLLE
390
0
  6
DASHED
100
AcDbCircle
 10
118.6144796784
 20
153.8372222273
 30
0.0
 40
23.5
  0
LINE
  5
1AF
100
AcDbEntity
  8
3201_9 HEBELROLLE
390
0
100
AcDbLine
 10
133.5370911165
 20
93.3301448245
 30
0.0
 11
131.1770081204
 21
89.3984749591
 31
0.0
  0
LINE
  5
1B0
100
AcDbEntity
  8
3201_9 HEBELROLLE
390
0
100
AcDbLine
 10
135.2579187799
 20
92.2961913145
 30
0.0
 11
131.0929741213
 21
85.3709902663
 31
0.0
  0
LINE
  5
1B1
100
AcDbEntity
  8
3201_9 HEBELROLLE
390
0
100
AcDbLine
 10
109.6955234717
 20
66.3002482339
 30
0.0
 11
109.0465299699
 21
64.2088587704
 31
0.0
  0
CIRCLE
  5
1B2
100
AcDbEntity
  8
3201_9 HEBELROLLE
390
0
100
AcDbCircle
 10
118.6144796784
 20
77.2151716655
 30
0.0
 40
1.25
  0
CIRCLE
  5
1B3
100
AcDbEntity
  8
3201_9 HEBELROLLE
390
0
100
AcDbCircle
 10
99.9751149773
 20
68.7113626165
 30
0.0
 40
1.25
  0
ARC
  5
1B4
100
AcDbEntity
  8
3201_9 HEBELROLLE
390
0
100
AcDbCircle
 10
108.0917157009
 20
64.5060631887
 30
0.0
 40
1.0
100
AcDbArc
 50
230.3762539762
 51
342.7102356014
  0
ARC
  5
1B5
100
AcDbEntity
  8
3201_9 HEBELROLLE
390
0
100
AcDbCircle
 10
130.2360179867
 20
85.8863796175
 30
0.0
 40
1.0
100
AcDbArc
 50
216.7278173096
 51
328.9765166844
  0
ARC
  5
1B6
100
AcDbEntity
  8
3201_9 HEBELROLLE
390
0
100
AcDbCircle
 10
118.6144796784
 20
77.2151716655
 30
0.0
 40
13.5
100
AcDbArc
 50
36.7278173096
 51
227.0807113805
  0
ARC
  5
1B7
100
AcDbEntity
  8
3201_9 HEBELROLLE
390
0
100
AcDbCircle
 10
118.6144796784
 20
77.2151716655
 30
0.0
 40
17.5
100
AcDbArc
 50
44.1220218411
 51
230.3762539762
  0
ARC
  5
1B8
100
AcDbEntity
  8
3201_9 HEBELROLLE
390
0
100
AcDbCircle
 10
108.7404517855
 20
66.596623122
 30
0.0
 40
1.0
100
AcDbArc
 50
342.76
 51
407.0807113805
  0
ARC
  5
1B9
100
AcDbEntity
  8
3201_9 HEBELROLLE
390
0
100
AcDbCircle
 10
134.3975049482
 20
92.8131680695
 30
0.0
 40
1.0037813143
100
AcDbArc
 50
328.9765166844
 51
509.0246607467
  0
CIRCLE
  5
1BA
100
AcDbEntity
  8
3201_9 HEBELROLLE
390
0
100
AcDbCircle
 10
118.6144796784
 20
77.2151716655
 30
0.0
 40
24.5
  0
CIRCLE
  5
1BB
100
AcDbEntity
  8
3201_9 HEBELROLLE
390
0
100
AcDbCircle
 10
101.511343863
 20
63.3774426147
 30
0.0
 40
1.5
  0
CIRCLE
  5
1BC
100
AcDbEntity
  8
3201_9 HEBELROLLE
390
0
  6
DASHED
100
AcDbCircle
 10
118.6144796784
 20
77.2151716655
 30
0.0
 40
23.5
  0
LINE
  5
1BD
100
AcDbEntity
  8
MITTELLINIEN
390
0
100
AcDbLine
 10
90.8852614193
 20
279.8903662321
 30
0.0
 11
90.8852614194
 21
252.8882279478
 31
0.0
  0
LINE
  5
1BE
100
AcDbEntity
  8
MITTELLINIEN
390
0
100
AcDbLine
 10
140.8852614193
 20
279.8903662323
 30
0.0
 11
140.8852614194
 21
252.4876015824
 31
0.0
  0
CIRCLE
  5
1BF
100
AcDbEntity
  8
3202_11P
390
0
100
AcDbCircle
 10
136.5311114424
 20
269.8903662321
 30
0.0
 40
1.25
  0
LINE
  5
1C0
100
AcDbEntity
  8
3202_11P
390
0
  6
DIVIDE
100
AcDbLine
 10
90.8852614193
 20
274.8903662321
 30
0.0
 11
136.5311114424
 21
274.8903662321
 31
0.0
  0
LINE
  5
1C1
100
AcDbEntity
  8
3202_11P
390
0
  6
DIVIDE
100
AcDbLine
 10
90.6995209267
 20
264.4345914192
 30
0.0
 11
114.2021492886
 21
259.4491165965
 31
0.0
  0
LINE
  5
1C2
100
AcDbEntity
  8
3202_11P
390
0
100
AcDbLine
 10
91.9524057491
 20
270.3409669216
 30
0.0
 11
103.782160369
 21
267.8315903996
 31
0.0
  0
LINE
  5
1C3
100
AcDbEntity
  8
3202_11P
390
0
100
AcDbLine
 10
91.7033974104
 20
269.1670866691
 30
0.0
 11
103.5331520302
 21
266.6577101471
 31
0.0
  0
LINE
  5
1C4
100
AcDbEntity
  8
3202_11P
390
0
100
AcDbLine
 10
90.6995209267
 20
264.4345914192
 30
0.0
 11
91.7033974104
 21
269.1670866691
 31
0.0
  0
LINE
  5
1C5
100
AcDbEntity
  8
3202_11P
390
0
100
AcDbLine
 10
91.9524057491
 20
270.3409669216
 30
0.0
 11
92.7493362574
 21
274.0978731811
 31
0.0
  0
LINE
  5
1C6
100
AcDbEntity
  8
3202_11P
390
0
  6
DASHED
100
AcDbLine
 10
92.7493362574
 20
274.0978731811
 30
0.0
 11
136.5311114424
 21
269.8903662321
 31
0.0
  0
LINE
  5
1C7
100
AcDbEntity
  8
3202_11P
390
0
  6
DASHED
100
AcDbLine
 10
136.5311114424
 20
269.8903662321
 30
0.0
 11
115.2396840332
 21
264.3402843153
 31
0.0
  0
LINE
  5
1C8
100
AcDbEntity
  8
3202_11P
390
0
  6
DASHED
100
AcDbLine
 10
115.2396840332
 20
264.3402843153
 30
0.0
 11
90.8852614194
 21
257.8882279478
 31
0.0
  0
ARC
  5
1C9
100
AcDbEntity
  8
3202_11P
390
0
100
AcDbCircle
 10
136.5311114424
 20
269.8903662321
 30
0.0
 40
5.0
100
AcDbArc
 50
284.6102825129
 51
450.0
  0
ARC
  5
1CA
100
AcDbEntity
  8
3202_11P
390
0
100
AcDbCircle
 10
103.6576561996
 20
267.2446502734
 30
0.0
 40
0.6
100
AcDbArc
 50
258.0237070387
 51
438.0237070387
  0
CIRCLE
  5
1CB
100
AcDbEntity
  8
3202_11P
390
0
  6
PHANTOM
100
AcDbCircle
 10
90.8852614193
 20
274.8903662321
 30
0.0
 40
0.5
  0
CIRCLE
  5
1CC
100
AcDbEntity
  8
3202_11P
390
0
  6
PHANTOM
100
AcDbCircle
 10
90.8852614194
 20
257.8882279478
 30
0.0
 40
1.0
  0
ARC
  5
1CD
100
AcDbEntity
  8
3201___ EINZELHEBEL DE
390
0
100
AcDbCircle
 10
96.6525866074
 20
266.38929709
 30
0.0
 40
10.2727900974
100
AcDbArc
 50
124.1538912032
 51
235.8461087972
  0
TEXT
  5
1CE
100
AcDbEntity
  8
3202_11P
390
0
  6
DIVIDE
100
AcDbText
 10
86.3908574401
 20
275.5677667355
 30
0.0
 40
1.5
  1
@3202.1P
 41
0.8648176405
  7
Arial
 72
         1
 11
90.9193570849
 21
276.3177667355
 31
0.0
100
AcDbText
 73
         2
  0
MTEXT
  5
1CF
100
AcDbEntity
  8
3201___ EINZELHEBEL DE
390
0
100
AcDbMText
 10
86.37979651
 20
266.3892970899
 30
0.0
 40
2.0
 41
0.0
 71
         5
 72
         1
  1
\W1.135114;>3202.11P\PM50+x2\PT2 O2
  7
Arial
 73
         1
 44
0.66
  0
INSERT
  5
1D0
100
AcDbEntity
  8
BEMASSUNG
390
0
100
AcDbBlockReference
  2
D402023936
 10
0.0
 20
0.0
 30
0.0
  0
LINE
  5
1D1
100
AcDbEntity
  8
3201_9 HEBELROLLE
390
0
100
AcDbLine
 10
48.5320892167
 20
109.1612347489
 30
0.0
 11
49.5320892167
 21
109.1612347489
 31
0.0
  0
LINE
  5
1D2
100
AcDbEntity
  8
3201_9 HEBELROLLE
390
0
100
AcDbLine
 10
48.5320892167
 20
111.1612347489
 30
0.0
 11
49.5320892167
 21
111.1612347489
 31
0.0
  0
CIRCLE
  5
1D3
100
AcDbEntity
  8
3201_9 HEBELROLLE
390
0
  6
DASHED
100
AcDbCircle
 10
49.0320892167
 20
110.1612347489
 30
0.0
 40
17.0
  0
CIRCLE
  5
1D4
100
AcDbEntity
  8
3201_9 HEBELROLLE
390
0
100
AcDbCircle
 10
49.0320892167
 20
110.1612347489
 30
0.0
 40
18.0
  0
ARC
  5
1D5
100
AcDbEntity
  8
3201_9 HEBELROLLE
390
0
100
AcDbCircle
 10
49.5320892167
 20
110.1612347489
 30
0.0
 40
1.0
100
AcDbArc
 50
270.0
 51
450.0
  0
CIRCLE
  5
1D6
100
AcDbEntity
  8
3202_20P
390
0
100
AcDbCircle
 10
49.0320892167
 20
94.6612347489
 30
0.0
 40
1.75
  0
ARC
  5
1D7
100
AcDbEntity
  8
3201_9 HEBELROLLE
390
0
100
AcDbCircle
 10
48.5320892167
 20
110.1612347489
 30
0.0
 40
1.0
100
AcDbArc
 50
90.0
 51
270.0
  0
LINE
  5
1D8
100
AcDbEntity
  8
3201_9 HEBELROLLE
390
0
100
AcDbLine
 10
48.5320892167
 20
42.9661067238
 30
0.0
 11
49.5320892167
 21
42.9661067238
 31
0.0
  0
LINE
  5
1D9
100
AcDbEntity
  8
3201_9 HEBELROLLE
390
0
100
AcDbLine
 10
48.5320892167
 20
44.9661067238
 30
0.0
 11
49.5320892167
 21
44.9661067238
 31
0.0
  0
CIRCLE
  5
1DA
100
AcDbEntity
  8
3201_9 HEBELROLLE
390
0
  6
DASHED
100
AcDbCircle
 10
49.0320892167
 20
43.9661067238
 30
0.0
 40
17.0
  0
CIRCLE
  5
1DB
100
AcDbEntity
  8
3201_9 HEBELROLLE
390
0
100
AcDbCircle
 10
49.0320892167
 20
43.9661067238
 30
0.0
 40
18.0
  0
ARC
  5
1DC
100
AcDbEntity
  8
3201_9 HEBELROLLE
390
0
100
AcDbCircle
 10
49.5320892167
 20
43.9661067238
 30
0.0
 40
1.0
100
AcDbArc
 50
270.0
 51
450.0
  0
CIRCLE
  5
1DD
100
AcDbEntity
  8
3201_9 HEBELROLLE
390
0
100
AcDbCircle
 10
49.0320892167
 20
28.4661067238
 30
0.0
 40
1.75
  0
ARC
  5
1DE
100
AcDbEntity
  8
3201_9 HEBELROLLE
390
0
100
AcDbCircle
 10
48.5320892167
 20
43.9661067238
 30
0.0
 40
1.0
100
AcDbArc
 50
90.0
 51
270.0
  0
LINE
  5
1DF
100
AcDbEntity
  8
3201_11_ 3202_11 WINKELHEBEL
390
0
100
AcDbLine
 10
93.1381462418
 20
271.1116935164
 30
0.0
 11
93.7275698012
 21
273.8903662321
 31
0.0
  0
LINE
  5
1E0
100
AcDbEntity
  8
3201_11_ 3202_11 WINKELHEBEL
390
0
100
AcDbLine
 10
93.1381462418
 20
271.1116935164
 30
0.0
 11
103.9896673179
 21
268.8098239434
 31
0.0
  0
LINE
  5
1E1
100
AcDbEntity
  8
3201_11_ 3202_11 WINKELHEBEL
390
0
100
AcDbLine
 10
137.5400835338
 20
266.0197105618
 30
0.0
 11
116.2486561246
 21
260.4696286449
 31
0.0
  0
LINE
  5
1E2
100
AcDbEntity
  8
3201_11_ 3202_11 WINKELHEBEL
390
0
100
AcDbLine
 10
92.4741240052
 20
267.9813461764
 30
0.0
 11
103.3256450813
 21
265.6794766033
 31
0.0
  0
LINE
  5
1E3
100
AcDbEntity
  8
3201_11_ 3202_11 WINKELHEBEL
390
0
100
AcDbLine
 10
91.8852614194
 20
265.205318014
 30
0.0
 11
92.4741240052
 21
267.9813461764
 31
0.0
  0
LINE
  5
1E4
100
AcDbEntity
  8
3201_11_ 3202_11 WINKELHEBEL
390
0
100
AcDbLine
 10
91.8852614194
 20
265.205318014
 30
0.0
 11
114.4096562375
 21
260.4273501402
 31
0.0
  0
LINE
  5
1E5
100
AcDbEntity
  8
3201_11_ 3202_11 WINKELHEBEL
390
0
100
AcDbLine
 10
93.7275698012
 20
273.8903662321
 30
0.0
 11
136.5311114424
 21
273.8903662321
 31
0.0
  0
CIRCLE
  5
1E6
100
AcDbEntity
  8
3202_11P
390
0
100
AcDbCircle
 10
115.2396840332
 20
264.3402843153
 30
0.0
 40
1.25
  0
ARC
  5
1E7
100
AcDbEntity
  8
3201_11_ 3202_11 WINKELHEBEL
390
0
100
AcDbCircle
 10
103.6576561996
 20
267.2446502734
 30
0.0
 40
1.6
100
AcDbArc
 50
258.0237070387
 51
438.0237070387
  0
ARC
  5
1E8
100
AcDbEntity
  8
3201_11_ 3202_11 WINKELHEBEL
390
0
100
AcDbCircle
 10
115.2396840332
 20
264.3402843153
 30
0.0
 40
4.0
100
AcDbArc
 50
258.0237070387
 51
284.6102825129
  0
ARC
  5
1E9
100
AcDbEntity
  8
3201_11_ 3202_11 WINKELHEBEL
390
0
100
AcDbCircle
 10
136.5311114424
 20
269.8903662321
 30
0.0
 40
4.0
100
AcDbArc
 50
284.6102825129
 51
450.0
  0
ARC
  5
1EA
100
AcDbEntity
  8
3202_11P
390
0
100
AcDbCircle
 10
115.2396840332
 20
264.3402843153
 30
0.0
 40
5.0
100
AcDbArc
 50
258.0237070387
 51
284.6102825129
  0
LINE
  5
1EB
100
AcDbEntity
  8
3202_11P
390
0
100
AcDbLine
 10
137.7923265567
 20
265.0520466442
 30
0.0
 11
116.5008991475
 21
259.5019647273
 31
0.0
  0
CIRCLE
  5
1EC
100
AcDbEntity
  8
MITTELLINIEN
390
0
100
AcDbCircle
 10
49.0320892167
 20
110.1612347489
 30
0.0
 40
24.8
  0
CIRCLE
  5
1ED
100
AcDbEntity
  8
MITTELLINIEN
390
0
100
AcDbCircle
 10
49.0320892167
 20
43.9661067238
 30
0.0
 40
24.8
  0
LINE
  5
1EE
100
AcDbEntity
  8
3202_1P
390
0
100
AcDbLine
 10
38.3917737312
 20
191.4464435495
 30
0.0
 11
69.0413141434
 21
191.4464435495
 31
0.0
  0
LINE
  5
1EF
100
AcDbEntity
  8
3202_1P
390
0
  6
DIVIDE
100
AcDbLine
 10
38.3917737312
 20
191.4464435495
 30
0.0
 11
26.1434594433
 21
191.4464435495
 31
0.0
  0
ARC
  5
1F0
100
AcDbEntity
  8
3202_9P
390
0
  6
DIVIDE
100
AcDbCircle
 10
118.6144796784
 20
153.8372222273
 30
0.0
 40
14.6
100
AcDbArc
 50
36.8919222436
 51
227.2692549738
  0
ARC
  5
1F1
100
AcDbEntity
  8
3202_9P
390
0
  6
DIVIDE
100
AcDbCircle
 10
118.6144796784
 20
153.8372222273
 30
0.0
 40
16.4
100
AcDbArc
 50
41.0007176496
 51
230.232297619
  0
LINE
  5
1F2
100
AcDbEntity
  8
3202_9P
390
0
  6
DIVIDE
100
AcDbLine
 10
108.7075923178
 20
143.1127836488
 30
0.0
 11
108.123784807
 21
141.2314568354
 31
0.0
  0
LINE
  5
1F3
100
AcDbEntity
  8
MITTELLINIEN
390
0
100
AcDbLine
 10
30.0320892164
 20
139.9612347489
 30
0.0
 11
30.0320892164
 21
13.7661067238
 31
0.0
  0
LINE
  5
1F4
100
AcDbEntity
  8
MITTELLINIEN
390
0
100
AcDbLine
 10
68.0320892164
 20
139.9612347489
 30
0.0
 11
68.0320892164
 21
13.2857969935
 31
0.0
  0
TEXT
  5
1F5
100
AcDbEntity
  8
BESCHRIFTUNG
390
0
100
AcDbText
 10
20.7833076478
 20
9.3026773855
 30
0.0
 40
3.0
  1
3202.20/5
 41
1.1351354162
  7
Arial
100
AcDbText
  0
CIRCLE
  5
1F6
100
AcDbEntity
  8
3202_20P
390
0
100
AcDbCircle
 10
44.0849177296
 20
97.0644605554
 30
0.0
 40
1.25
  0
ARC
  5
1F7
100
AcDbEntity
  8
3202_20P
390
0
  6
BORDER
 62
        14
100
AcDbCircle
 10
49.0320892167
 20
110.1612347489
 30
0.0
 40
19.0
100
AcDbArc
 50
180.0
 51
360.0
  0
ARC
  5
1F8
100
AcDbEntity
  8
3202_20P
390
0
  6
DIVIDE
100
AcDbCircle
 10
49.0320892167
 20
110.1612347489
 30
0.0
 40
24.4
100
AcDbArc
 50
218.8593457034
 51
501.1406542966
  0
ARC
  5
1F9
100
AcDbEntity
  8
3202_20P
390
0
  6
DIVIDE
100
AcDbCircle
 10
49.0320892167
 20
110.1612347489
 30
0.0
 40
22.6
100
AcDbArc
 50
212.7850453879
 51
507.2149546121
  0
ARC
  5
1FA
100
AcDbEntity
  8
3202_20P
390
0
  6
DIVIDE
100
AcDbCircle
 10
49.0320892167
 20
110.1612347489
 30
0.0
 40
20.8
100
AcDbArc
 50
204.0118187051
 51
515.9881812949
  0
CIRCLE
  5
1FB
100
AcDbEntity
  8
3202_20P
390
0
  6
PHANTOM
100
AcDbCircle
 10
30.0320892164
 20
134.9612347489
 30
0.0
 40
0.5
  0
LINE
  5
1FC
100
AcDbEntity
  8
3202_20P
390
0
  6
CONTINUOUS
100
AcDbLine
 10
48.5320892167
 20
110.1612347489
 30
0.0
 11
49.5320892167
 21
110.1612347489
 31
0.0
  0
LINE
  5
1FD
100
AcDbEntity
  8
3202_20P
390
0
  6
DASHED
100
AcDbLine
 10
30.0320892164
 20
134.9612347489
 30
0.0
 11
48.5320892167
 21
110.1612347489
 31
0.0
  0
LINE
  5
1FE
100
AcDbEntity
  8
3202_20P
390
0
  6
DASHED
100
AcDbLine
 10
49.5320892167
 20
110.1612347489
 30
0.0
 11
49.0320892167
 21
94.6612347489
 31
0.0
  0
LINE
  5
1FF
100
AcDbEntity
  8
3202_20P
390
0
  6
DASHED
100
AcDbLine
 10
49.0320892167
 20
94.6612347489
 30
0.0
 11
44.0849177296
 21
97.0644605554
 31
0.0
  0
ARC
  5
200
100
AcDbEntity
  8
3202_20P
390
0
  6
BORDER
100
AcDbCircle
 10
49.0320892167
 20
110.1612347489
 30
0.0
 40
19.0
100
AcDbArc
 50
0.0
 51
180.0
  0
LINE
  5
201
100
AcDbEntity
  8
3202_20P
390
0
  6
DASHED
100
AcDbLine
 10
44.0849177296
 20
97.0644605554
 30
0.0
 11
30.0320892164
 21
110.1612347489
 31
0.0
  0
ARC
  5
202
100
AcDbEntity
  8
3202_20P
390
0
  6
DIVIDE
100
AcDbCircle
 10
36.6247122052
 20
105.9292139554
 30
0.0
 40
7.8340716023
100
AcDbArc
 50
147.3022645236
 51
212.6977354764
  0
ARC
  5
203
100
AcDbEntity
  8
3202_20P
390
0
  6
DIVIDE
100
AcDbCircle
 10
50.9041605469
 20
108.2744321264
 30
0.0
 40
23.2977109922
100
AcDbArc
 50
153.6223408831
 51
206.3776591169
  0
ARC
  5
204
100
AcDbEntity
  8
3202_20P
390
0
  6
DIVIDE
100
AcDbCircle
 10
54.313044918
 20
108.6256476719
 30
0.0
 40
27.9153502951
100
AcDbArc
 50
150.4361720065
 51
209.5638279935
  0
CIRCLE
  5
205
100
AcDbEntity
  8
3202_20P
390
0
  6
PHANTOM
100
AcDbCircle
 10
30.0320892164
 20
84.9612347489
 30
0.0
 40
1.0
  0
ARC
  5
206
100
AcDbEntity
  8
3202_20P
390
0
  6
DASHED
100
AcDbCircle
 10
13.8230199452
 20
105.215645242
 30
0.0
 40
25.9417630677
100
AcDbArc
 50
308.6693643326
 51
411.3306356674
  0
TEXT
  5
207
100
AcDbEntity
  8
3202_20P
390
0
  6
DASHED
 62
        15
100
AcDbText
 10
29.4083081525
 20
104.3628540924
 30
0.0
 40
1.5
  1
N1
 41
1.1350267802
  7
Arial
100
AcDbText
  0
ARC
  5
208
100
AcDbEntity
  8
3202_20T
390
0
 62
        30
100
AcDbCircle
 10
49.0320892167
 20
43.9661067238
 30
0.0
 40
20.0
100
AcDbArc
 50
155.0393391446
 51
335.0393391446
  0
CIRCLE
  5
209
100
AcDbEntity
  8
3201_9 HEBELROLLE
390
0
100
AcDbCircle
 10
44.0849177296
 20
30.8693325303
 30
0.0
 40
1.25
  0
ARC
  5
20A
100
AcDbEntity
  8
3202_20T
390
0
100
AcDbCircle
 10
49.0320892167
 20
43.9661067238
 30
0.0
 40
20.0
100
AcDbArc
 50
335.0393391446
 51
515.0393391446
  0
CIRCLE
  5
20B
100
AcDbEntity
  8
3202_20T
390
0
  6
PHANTOM
100
AcDbCircle
 10
30.0320892164
 20
68.7661067238
 30
0.0
 40
0.5
  0
CIRCLE
  5
20C
100
AcDbEntity
  8
3202_20T
390
0
  6
PHANTOM
100
AcDbCircle
 10
30.0320892164
 20
18.7661067238
 30
0.0
 40
1.0
  0
LINE
  5
20D
100
AcDbEntity
  8
3202_20T
390
0
100
AcDbLine
 10
29.6308975367
 20
52.996818843
 30
0.0
 11
30.9001343753
 21
52.4060245923
 31
0.0
  0
LINE
  5
20E
100
AcDbEntity
  8
3202_20T
390
0
100
AcDbLine
 10
30.9001343753
 20
52.4060245923
 30
0.0
 11
28.38750034
 21
49.6017921387
 31
0.0
  0
ARC
  5
20F
100
AcDbEntity
  8
3202_20T
390
0
  6
DASHED
100
AcDbCircle
 10
57.7723991124
 20
35.707305917
 30
0.0
 40
32.5042923816
100
AcDbArc
 50
154.6931342733
 51
211.412701118
  0
TEXT
  5
210
100
AcDbEntity
  8
3202_20T
390
0
  6
DASHED
 62
        11
100
AcDbText
 10
31.2995824373
 20
31.2351689205
 30
0.0
 40
1.5
  1
N1
 41
1.1350267802
  7
Arial
100
AcDbText
  0
INSERT
  5
211
100
AcDbEntity
  8
BEMASSUNG
390
0
100
AcDbBlockReference
  2
D402023680
 10
0.0
 20
0.0
 30
0.0
  0
INSERT
  5
212
100
AcDbEntity
  8
BEMASSUNG
390
0
100
AcDbBlockReference
  2
D401980160
 10
0.0
 20
0.0
 30
0.0
  0
INSERT
  5
213
100
AcDbEntity
  8
BEMASSUNG
390
0
100
AcDbBlockReference
  2
D401979904
 10
0.0
 20
0.0
 30
0.0
  0
TEXT
  5
214
100
AcDbEntity
  8
3202_20P
390
0
  6
DASHED
100
AcDbText
 10
21.8079925349
 20
133.4612347489
 30
0.0
 40
2.0
  1
@3202.9P
 41
1.1350966774
  7
Arial
 72
         1
 11
30.0320892164
 21
134.4612347489
 31
0.0
100
AcDbText
 73
         2
  0
TEXT
  5
215
100
AcDbEntity
  8
3202_20T
390
0
  6
DASHED
100
AcDbText
 10
20.3359517821
 20
67.6934692164
 30
0.0
 40
2.0
  1
@3202.9T
 41
1.1351201567
  7
Arial
 72
         1
 11
28.5602185777
 21
68.6934692164
 31
0.0
100
AcDbText
 73
         2
  0
ARC
  5
216
100
AcDbEntity
  8
3202_20T
390
0
  6
DASHED
100
AcDbCircle
 10
47.3436294027
 20
60.4359307264
 30
0.0
 40
19.2114875991
100
AcDbArc
 50
154.3035087448
 51
202.781758177
  0
ARC
  5
217
100
AcDbEntity
  8
3201_9 HEBELROLLE
390
0
100
AcDbCircle
 10
118.6144796784
 20
153.8372222273
 30
0.0
 40
17.4
100
AcDbArc
 50
44.0343714709
 51
230.3762539762
  0
ARC
  5
218
100
AcDbEntity
  8
3201_9 HEBELROLLE
390
0
100
AcDbCircle
 10
118.6144796784
 20
153.8372222273
 30
0.0
 40
13.6
100
AcDbArc
 50
36.7278173096
 51
227.4347008639
  0
ARC
  5
219
100
AcDbEntity
  8
3201_9 HEBELROLLE
390
0
100
AcDbCircle
 10
130.2955670787
 20
162.5528616949
 30
0.0
 40
0.9742984114
100
AcDbArc
 50
216.7278173096
 51
324.9291656475
  0
ARC
  5
21A
100
AcDbEntity
  8
3201_9 HEBELROLLE
390
0
100
AcDbCircle
 10
108.7386012032
 20
143.0842215138
 30
0.0
 40
1.0
100
AcDbArc
 50
342.76
 51
407.4347008639
  0
LINE
  5
21B
100
AcDbEntity
  8
3201_9 HEBELROLLE
390
0
100
AcDbLine
 10
109.6936728894
 20
142.7878466258
 30
0.0
 11
109.110304297
 21
140.9079342321
 31
0.0
  0
INSERT
  5
21C
100
AcDbEntity
  8
BEMASSUNG
390
0
100
AcDbBlockReference
  2
D401979648
 10
0.0
 20
0.0
 30
0.0
  0
INSERT
  5
21D
100
AcDbEntity
  8
BEMASSUNG
390
0
100
AcDbBlockReference
  2
D401979392
 10
0.0
 20
0.0
 30
0.0
  0
TEXT
  5
21E
100
AcDbEntity
  8
3202_2P
390
0
  6
DIVIDE
100
AcDbText
 10
147.7596496702
 20
281.8791631253
 30
0.0
 40
1.5
  1
@3202.1P
 41
0.8648176405
  7
Arial
 72
         1
 11
152.288149315
 21
282.6291631253
 31
0.0
100
AcDbText
 73
         2
  0
ARC
  5
21F
100
AcDbEntity
  8
3201_1-3HEBELBOCK
390
0
100
AcDbCircle
 10
177.2540536494
 20
271.197102563
 30
0.0
 40
9.0
100
AcDbArc
 50
8.7872210475
 51
171.2127789525
  0
CIRCLE
  5
220
100
AcDbEntity
  8
3202_2P
390
0
100
AcDbCircle
 10
177.2540536494
 20
271.197102563
 30
0.0
 40
1.5
  0
LINE
  5
221
100
AcDbEntity
  8
3201_1-3HEBELBOCK
390
0
100
AcDbLine
 10
158.2540536494
 20
207.197102563
 30
0.0
 11
173.2540536494
 21
207.197102563
 31
0.0
  0
LINE
  5
222
100
AcDbEntity
  8
3201_1-3HEBELBOCK
390
0
100
AcDbLine
 10
158.2540536494
 20
207.197102563
 30
0.0
 11
168.3596913471
 21
272.5719913715
 31
0.0
  0
LINE
  5
223
100
AcDbEntity
  8
3201_1-3HEBELBOCK
390
0
100
AcDbLine
 10
196.2540536494
 20
207.197102563
 30
0.0
 11
186.1484159516
 21
272.5719913715
 31
0.0
  0
LINE
  5
224
100
AcDbEntity
  8
3202_2P
390
0
100
AcDbLine
 10
157.0875969146
 20
206.197102563
 30
0.0
 11
167.371428869
 21
272.7247567946
 31
0.0
  0
LINE
  5
225
100
AcDbEntity
  8
3202_2P
390
0
100
AcDbLine
 10
197.4205103841
 20
206.197102563
 30
0.0
 11
187.1366784297
 21
272.7247567946
 31
0.0
  0
LINE
  5
226
100
AcDbEntity
  8
3202_2P
390
0
  6
DASHED
100
AcDbLine
 10
152.2540536494
 20
281.0117626219
 30
0.0
 11
177.2540536494
 21
271.197102563
 31
0.0
  0
LINE
  5
227
100
AcDbEntity
  8
3202_2P
390
0
  6
DASHED
100
AcDbLine
 10
177.2540536494
 20
271.197102563
 30
0.0
 11
167.7540536494
 21
215.697102563
 31
0.0
  0
LINE
  5
228
100
AcDbEntity
  8
3202_2P
390
0
  6
DASHED
100
AcDbLine
 10
167.7540536494
 20
215.697102563
 30
0.0
 11
186.7540536494
 21
215.697102563
 31
0.0
  0
CIRCLE
  5
229
100
AcDbEntity
  8
3202_2P
390
0
100
AcDbCircle
 10
167.7540536494
 20
215.697102563
 30
0.0
 40
1.5
  0
CIRCLE
  5
22A
100
AcDbEntity
  8
3202_2P
390
0
100
AcDbCircle
 10
186.7540536494
 20
215.697102563
 30
0.0
 40
1.5
  0
ARC
  5
22B
100
AcDbEntity
  8
3202_2P
390
0
100
AcDbCircle
 10
177.2540536494
 20
271.197102563
 30
0.0
 40
10.0
100
AcDbArc
 50
8.7872210475
 51
171.2127789525
  0
CIRCLE
  5
22C
100
AcDbEntity
  8
3202_2P
390
0
  6
PHANTOM
100
AcDbCircle
 10
152.2540536494
 20
281.0117626219
 30
0.0
 40
0.5
  0
CIRCLE
  5
22D
100
AcDbEntity
  8
3202_2P
390
0
  6
PHANTOM
100
AcDbCircle
 10
152.2540536494
 20
163.0070994377
 30
0.0
 40
1.0
  0
MTEXT
  5
22E
100
AcDbEntity
  8
3201___ EINZELHEBEL DE
390
0
100
AcDbMText
 10
146.3541856828
 20
241.8769283316
 30
0.0
 40
2.0
 41
0.0
 71
         5
 72
         1
  1
\W1.135110;>3202.2P\PM50+x2\PT2 O2
  7
Arial
 73
         1
 44
0.66
  0
LINE
  5
22F
100
AcDbEntity
  8
MITTELLINIEN
390
0
100
AcDbLine
 10
152.2540536494
 20
285.8017626219
 30
0.0
 11
152.2540536494
 21
157.8628720529
 31
0.0
  0
LINE
  5
230
100
AcDbEntity
  8
MITTELLINIEN
390
0
100
AcDbLine
 10
202.2540536494
 20
285.8017626219
 30
0.0
 11
202.2540536494
 21
158.0528148671
 31
0.0
  0
INSERT
  5
231
100
AcDbEntity
  8
BEMASSUNG
390
0
100
AcDbBlockReference
  2
D401979136
 10
0.0
 20
0.0
 30
0.0
  0
LINE
  5
232
100
AcDbEntity
  8
3201_1-3HEBELBOCK
390
0
100
AcDbLine
 10
167.6025654791
 20
164.0070994377
 30
0.0
 11
176.6792882881
 21
164.0070994377
 31
0.0
  0
LINE
  5
233
100
AcDbEntity
  8
3201_1-3HEBELBOCK
390
0
100
AcDbLine
 10
173.2540536494
 20
207.197102563
 30
0.0
 11
167.6025654791
 21
164.0070994377
 31
0.0
  0
CIRCLE
  5
234
100
AcDbEntity
  8
3202_2P
390
0
100
AcDbCircle
 10
172.7002167121
 20
169.0070994377
 30
0.0
 40
2.15
  0
LINE
  5
235
100
AcDbEntity
  8
3201_1-3HEBELBOCK
390
0
100
AcDbLine
 10
182.3307764584
 20
207.197102563
 30
0.0
 11
176.6792882881
 21
164.0070994377
 31
0.0
  0
LINE
  5
236
100
AcDbEntity
  8
3201_1-3HEBELBOCK
390
0
100
AcDbLine
 10
36.0260180117
 20
244.9213531131
 30
0.0
 11
32.8306582983
 21
240.0008199578
 31
0.0
  0
LINE
  5
237
100
AcDbEntity
  8
3201_1-3HEBELBOCK
390
0
100
AcDbLine
 10
34.348921133
 20
246.0104480613
 30
0.0
 11
33.2596602978
 21
244.3330957332
 31
0.0
  0
LINE
  5
238
100
AcDbEntity
  8
3201_1-3HEBELBOCK
390
0
100
AcDbLine
 10
62.0215320748
 20
265.6935613622
 30
0.0
 11
69.4596735563
 21
278.0729957385
 31
0.0
  0
LINE
  5
239
100
AcDbEntity
  8
3201_1-3HEBELBOCK
390
0
100
AcDbLine
 10
60.3071868894
 20
266.7236198972
 30
0.0
 11
62.8823332268
 21
271.0094828606
 31
0.0
  0
ARC
  5
23A
100
AcDbEntity
  8
3201_1-3HEBELBOCK
390
0
100
AcDbCircle
 10
49.1740187417
 20
256.4464435495
 30
0.0
 40
20.0
100
AcDbArc
 50
46.7316897196
 51
217.2768821194
  0
ARC
  5
23B
100
AcDbEntity
  8
3201_1-3HEBELBOCK
390
0
100
AcDbCircle
 10
35.1874695724
 20
245.4659005872
 30
0.0
 40
0.9998477068
100
AcDbArc
 50
327.0005887156
 51
507.0005887156
  0
ARC
  5
23C
100
AcDbEntity
  8
3201_1-3HEBELBOCK
390
0
100
AcDbCircle
 10
61.1643594821
 20
266.2085906297
 30
0.0
 40
1.0
100
AcDbArc
 50
149.0005887156
 51
329.0005887156
  0
LINE
  5
23D
100
AcDbEntity
  8
3202_1P
390
0
  6
DASHED
100
AcDbLine
 10
39.6740187417
 20
200.9464435495
 30
0.0
 11
29.0865721934
 21
191.9575723182
 31
0.0
  0
INSERT
  5
23E
100
AcDbEntity
  8
BEMASSUNG
390
0
100
AcDbBlockReference
  2
D401978880
 10
0.0
 20
0.0
 30
0.0
  0
LINE
  5
23F
100
AcDbEntity
  8
3202_2P
390
0
100
AcDbLine
 10
183.2084494492
 20
206.197102563
 30
0.0
 11
177.556961279
 21
163.0070994377
 31
0.0
  0
LINE
  5
240
100
AcDbEntity
  8
3202_2P
390
0
100
AcDbLine
 10
166.4631889568
 20
163.0070994377
 30
0.0
 11
177.556961279
 21
163.0070994377
 31
0.0
  0
LINE
  5
241
100
AcDbEntity
  8
3201_1-3HEBELBOCK
390
0
100
AcDbLine
 10
182.3307764584
 20
207.197102563
 30
0.0
 11
196.2540536494
 21
207.197102563
 31
0.0
  0
LINE
  5
242
100
AcDbEntity
  8
3202_2P
390
0
100
AcDbLine
 10
157.0875969146
 20
206.197102563
 30
0.0
 11
172.1146771271
 21
206.197102563
 31
0.0
  0
LINE
  5
243
100
AcDbEntity
  8
3202_2P
390
0
100
AcDbLine
 10
172.1146771271
 20
206.197102563
 30
0.0
 11
166.4631889568
 21
163.0070994377
 31
0.0
  0
LINE
  5
244
100
AcDbEntity
  8
3202_2P
390
0
100
AcDbLine
 10
183.2084494492
 20
206.197102563
 30
0.0
 11
196.2540536494
 21
206.197102563
 31
0.0
  0
LINE
  5
245
100
AcDbEntity
  8
3202_2P
390
0
  6
DASHED
100
AcDbLine
 10
186.7540536494
 20
215.697102563
 30
0.0
 11
197.4205103841
 21
206.197102563
 31
0.0
  0
LINE
  5
246
100
AcDbEntity
  8
3202_2P
390
0
  6
DASHED
100
AcDbLine
 10
196.2540536494
 20
206.197102563
 30
0.0
 11
172.7002167121
 21
169.0070994377
 31
0.0
  0
LINE
  5
247
100
AcDbEntity
  8
3202_2P
390
0
  6
DASHED
100
AcDbLine
 10
172.7002167121
 20
169.0070994377
 30
0.0
 11
152.2540536494
 21
163.0070994377
 31
0.0
  0
INSERT
  5
248
100
AcDbEntity
  8
BEMASSUNG
390
0
100
AcDbBlockReference
  2
D401978624
 10
0.0
 20
0.0
 30
0.0
  0
ARC
  5
249
100
AcDbEntity
  8
3201___ EINZELHEBEL DE
390
0
  6
DASHDOT
100
AcDbCircle
 10
422.0482119942
 20
222.0094310298
 30
0.0
 40
276.17053248
100
AcDbArc
 50
167.6639812981
 51
192.3360187019
  0
INSERT
  5
24A
100
AcDbEntity
  8
BEMASSUNG
390
0
100
AcDbBlockReference
  2
D401978368
 10
0.0
 20
0.0
 30
0.0
  0
MTEXT
  5
24B
100
AcDbEntity
  8
3201___ EINZELHEBEL DE
390
0
100
AcDbMText
 10
26.0299090698
 20
91.93685391
 30
0.0
 40
2.0
 41
0.0
 71
         5
 72
         1
  1
\W1.135114;>3202.20P\PM50+x5\PT5 O2
  7
Arial
 73
         1
 44
0.66
  0
ARC
  5
24C
100
AcDbEntity
  8
3201___ EINZELHEBEL DE
390
0
100
AcDbCircle
 10
68.1048582543
 20
109.9612347489
 30
0.0
 40
45.5470717194
100
AcDbArc
 50
146.7096043108
 51
213.2903956892
  0
MTEXT
  5
24D
100
AcDbEntity
  8
3201___ EINZELHEBEL DE
390
0
100
AcDbMText
 10
19.4280378599
 20
37.2661067238
 30
0.0
 40
2.0
 41
0.0
 71
         5
 72
         1
  1
\W1.135137;>3202.20T\PM50+x5\PT5 O6
  7
Arial
 73
         1
 44
0.66
  0
ARC
  5
24E
100
AcDbEntity
  8
3201___ EINZELHEBEL DE
390
0
100
AcDbCircle
 10
62.9561667527
 20
43.7661067238
 30
0.0
 40
41.3399913113
100
AcDbArc
 50
142.7897718356
 51
217.2102281644
  0
TEXT
  5
24F
100
AcDbEntity
  8
BESCHRIFTUNG
390
0
100
AcDbText
 10
23.7034271093
 20
143.5026337762
 30
0.0
 40
3.0
  1
3202.20
 41
1.1351390498
  7
Arial
100
AcDbText
  0
MTEXT
  5
250
100
AcDbEntity
  8
3201___ EINZELHEBEL DE
390
0
100
AcDbMText
 10
-67.6009147268
 20
96.5212429474
 30
0.0
 40
2.0
 41
0.0
 71
         5
 72
         1
  1
\W1.135114;>3202.20P\PM50+x5\PT5 O2
  7
Arial
 73
         1
 44
0.66
  0
MTEXT
  5
251
100
AcDbEntity
  8
3201___ EINZELHEBEL DE
390
0
100
AcDbMText
 10
-74.2027859367
 20
41.8504957612
 30
0.0
 40
2.0
 41
0.0
 71
         5
 72
         1
  1
\W1.135137;>3202.20T\PM50+x5\PT5 O6
  7
Arial
 73
         1
 44
0.66
  0
ARC
  5
252
100
AcDbEntity
  8
3201___ EINZELHEBEL DE
390
0
100
AcDbCircle
 10
-30.674657044
 20
48.3504957612
 30
0.0
 40
41.3399913113
100
AcDbArc
 50
142.7897718356
 51
217.2102281644
  0
ARC
  5
253
100
AcDbEntity
  8
3201___ EINZELHEBEL DE
390
0
100
AcDbCircle
 10
-25.5259655424
 20
114.5456237863
 30
0.0
 40
45.5470717194
100
AcDbArc
 50
146.7096043108
 51
213.2903956892
  0
MTEXT
  5
254
100
AcDbEntity
  8
3201___ EINZELHEBEL DE
390
0
100
AcDbMText
 10
-73.8424016052
 20
238.6165867614
 30
0.0
 40
2.0
 41
0.0
 71
         5
 72
         1
  1
\W1.135110;>3202.1P\PM50+x2\PT2 O2
  7
Arial
 73
         1
 44
0.66
  0
MTEXT
  5
255
100
AcDbEntity
  8
3201___ EINZELHEBEL DE
390
0
100
AcDbMText
 10
-40.2287613392
 20
133.9953203923
 30
0.0
 40
2.0
 41
0.0
 71
         5
 72
         1
  1
\W1.135110;>3202.9P\PM50+x5\PT5 O2
  7
Arial
 73
         1
 44
0.66
  0
MTEXT
  5
256
100
AcDbEntity
  8
3201___ EINZELHEBEL DE
390
0
100
AcDbMText
 10
-44.7738063119
 20
81.7995607029
 30
0.0
 40
2.0
 41
0.0
 71
         5
 72
         1
  1
\W1.135136;>3202.9T\PM50+x5\PT5 O6
  7
Arial
 73
         1
 44
0.66
  0
MTEXT
  5
257
100
AcDbEntity
  8
3201___ EINZELHEBEL DE
390
0
100
AcDbMText
 10
-41.7133629841
 20
274.4748345449
 30
0.0
 40
2.0
 41
0.0
 71
         5
 72
         1
  1
\W1.135114;>3202.11P\PM50+x2\PT2 O2
  7
Arial
 73
         1
 44
0.66
  0
MTEXT
  5
258
100
AcDbEntity
  8
3201___ EINZELHEBEL DE
390
0
100
AcDbMText
 10
-17.9552244296
 20
243.140846871
 30
0.0
 40
2.0
 41
0.0
 71
         5
 72
         1
  1
\W1.135110;>3201.2P\PM50+x2\PT2 O2
  7
Arial
 73
         1
 44
0.66
  0
ARC
  5
259
100
AcDbEntity
  8
3201___ EINZELHEBEL DE
390
0
100
AcDbCircle
 10
77.2308870809
 20
241.0284281973
 30
0.0
 40
151.5524856573
100
AcDbArc
 50
162.7278370275
 51
197.2721629725
  0
ARC
  5
25A
100
AcDbEntity
  8
3201___ EINZELHEBEL DE
390
0
100
AcDbCircle
 10
13.8019340323
 20
158.4216112647
 30
0.0
 40
57.3893103664
100
AcDbArc
 50
146.7096043108
 51
213.2903956892
  0
ARC
  5
25B
100
AcDbEntity
  8
3201___ EINZELHEBEL DE
390
0
100
AcDbCircle
 10
7.3145827403
 20
81.7995607029
 30
0.0
 40
52.0883890522
100
AcDbArc
 50
142.7897718356
 51
217.2102281644
  0
ARC
  5
25C
100
AcDbEntity
  8
3201___ EINZELHEBEL DE
390
0
100
AcDbCircle
 10
-31.4405728868
 20
274.474834545
 30
0.0
 40
10.2727900974
100
AcDbArc
 50
124.1538912032
 51
235.8461087972
  0
ARC
  5
25D
100
AcDbEntity
  8
3201___ EINZELHEBEL DE
390
0
  6
DASHDOT
100
AcDbCircle
 10
257.7388018818
 20
223.2733495692
 30
0.0
 40
276.17053248
100
AcDbArc
 50
167.6639812981
 51
192.3360187019
  0
TEXT
  5
25E
100
AcDbEntity
  8
BESCHRIFTUNG
390
0
100
AcDbText
 10
96.2151969753
 20
279.5224325595
 30
0.0
 40
3.0
  1
3202.11
 41
1.1351392746
  7
Arial
100
AcDbText
  0
TEXT
  5
25F
100
AcDbEntity
  8
BESCHRIFTUNG
390
0
  6
DASHED
100
AcDbText
 10
186.7833629491
 20
200.8314536182
 30
0.0
 40
2.0
  1
~80 v.ob.
 41
1.1351143978
  7
Arial
100
AcDbText
  0
TEXT
  5
260
100
AcDbEntity
  8
BESCHRIFTUNG
390
0
  6
DASHED
100
AcDbText
 10
182.7525515774
 20
164.24408886
 30
0.0
 40
2.0
  1
~115 v.ob.
 41
1.1351181079
  7
Arial
100
AcDbText
  0
LINE
  5
261
100
AcDbEntity
  8
STANDARD
390
0
100
AcDbLine
 10
10.0
 20
5.0
 30
0.0
 11
10.0
 21
292.0
 31
0.0
  0
LINE
  5
262
100
AcDbEntity
  8
STANDARD
390
0
100
AcDbLine
 10
15.0
 20
287.0
 30
0.0
 11
205.0
 21
287.0
 31
0.0
  0
LINE
  5
263
100
AcDbEntity
  8
STANDARD
390
0
100
AcDbLine
 10
10.0
 20
292.0
 30
0.0
 11
15.0
 21
292.0
 31
0.0
  0
LINE
  5
264
100
AcDbEntity
  8
STANDARD
390
0
100
AcDbLine
 10
10.0
 20
5.0
 30
0.0
 11
15.0
 21
5.0
 31
0.0
  0
LINE
  5
265
100
AcDbEntity
  8
STANDARD
390
0
100
AcDbLine
 10
10.0
 20
244.1666666667
 30
0.0
 11
15.0
 21
244.1666666667
 31
0.0
  0
LINE
  5
266
100
AcDbEntity
  8
STANDARD
390
0
100
AcDbLine
 10
10.0
 20
196.3333333333
 30
0.0
 11
15.0
 21
196.3333333333
 31
0.0
  0
LINE
  5
267
100
AcDbEntity
  8
STANDARD
390
0
100
AcDbLine
 10
10.0
 20
148.5
 30
0.0
 11
15.0
 21
148.5
 31
0.0
  0
LINE
  5
268
100
AcDbEntity
  8
STANDARD
390
0
100
AcDbLine
 10
10.0
 20
100.6666666667
 30
0.0
 11
15.0
 21
100.6666666667
 31
0.0
  0
LINE
  5
269
100
AcDbEntity
  8
STANDARD
390
0
100
AcDbLine
 10
10.0
 20
52.8333333333
 30
0.0
 11
15.0
 21
52.8333333333
 31
0.0
  0
LINE
  5
26A
100
AcDbEntity
  8
STANDARD
390
0
100
AcDbLine
 10
157.5
 20
292.0
 30
0.0
 11
157.5
 21
287.0
 31
0.0
  0
LINE
  5
26B
100
AcDbEntity
  8
STANDARD
390
0
100
AcDbLine
 10
110.0
 20
292.0
 30
0.0
 11
110.0
 21
287.0
 31
0.0
  0
LINE
  5
26C
100
AcDbEntity
  8
STANDARD
390
0
100
AcDbLine
 10
62.5
 20
292.0
 30
0.0
 11
62.5
 21
287.0
 31
0.0
  0
TEXT
  5
26D
100
AcDbEntity
  8
STANDARD
390
0
100
AcDbText
 10
10.9491078691
 20
267.8641561278
 30
0.0
 40
2.23125
  1
A
 41
1.547986837
  7
Arial
 72
         1
 11
12.6760806841
 21
270.0954061278
 31
0.0
100
AcDbText
 73
         3
  0
TEXT
  5
26E
100
AcDbEntity
  8
STANDARD
390
0
100
AcDbText
 10
10.9491074243
 20
220.0308227945
 30
0.0
 40
2.23125
  1
B
 41
1.5479872357
  7
Arial
 72
         1
 11
12.6760806841
 21
222.2620727945
 31
0.0
100
AcDbText
 73
         3
  0
TEXT
  5
26F
100
AcDbEntity
  8
STANDARD
390
0
100
AcDbText
 10
10.9489779593
 20
172.1974894612
 30
0.0
 40
2.23125
  1
C
 41
1.5481032827
  7
Arial
 72
         1
 11
12.6760806841
 21
174.4287394612
 31
0.0
100
AcDbText
 73
         3
  0
TEXT
  5
270
100
AcDbEntity
  8
STANDARD
390
0
100
AcDbText
 10
10.9489771034
 20
124.3641561278
 30
0.0
 40
2.23125
  1
D
 41
1.54810405
  7
Arial
 72
         1
 11
12.6760806841
 21
126.5954061278
 31
0.0
100
AcDbText
 73
         3
  0
TEXT
  5
271
100
AcDbEntity
  8
STANDARD
390
0
100
AcDbText
 10
10.9491076096
 20
76.5308227945
 30
0.0
 40
2.23125
  1
E
 41
1.5479870696
  7
Arial
 72
         1
 11
12.6760806841
 21
78.7620727945
 31
0.0
100
AcDbText
 73
         3
  0
TEXT
  5
272
100
AcDbEntity
  8
STANDARD
390
0
100
AcDbText
 10
10.9493506612
 20
28.6974894612
 30
0.0
 40
2.23125
  1
F
 41
1.5477692083
  7
Arial
 72
         1
 11
12.6760806841
 21
30.9287394612
 31
0.0
100
AcDbText
 73
         3
  0
TEXT
  5
273
100
AcDbEntity
  8
STANDARD
390
0
100
AcDbText
 10
36.7048241449
 20
288.48599354
 30
0.0
 40
2.23125
  1
1
 41
1.5479225906
  7
Arial
 72
         1
 11
38.0
 21
290.71724354
 31
0.0
100
AcDbText
 73
         3
  0
TEXT
  5
274
100
AcDbEntity
  8
STANDARD
390
0
100
AcDbText
 10
83.7730999712
 20
288.48599354
 30
0.0
 40
2.23125
  1
2
 41
1.5479215945
  7
Arial
 72
         1
 11
85.5
 21
290.71724354
 31
0.0
100
AcDbText
 73
         3
  0
TEXT
  5
275
100
AcDbEntity
  8
STANDARD
390
0
100
AcDbText
 10
131.2730986376
 20
288.48599354
 30
0.0
 40
2.23125
  1
3
 41
1.5479227899
  7
Arial
 72
         1
 11
133.0
 21
290.71724354
 31
0.0
100
AcDbText
 73
         3
  0
TEXT
  5
276
100
AcDbEntity
  8
STANDARD
390
0
100
AcDbText
 10
178.7730988598
 20
288.48599354
 30
0.0
 40
2.23125
  1
4
 41
1.5479225906
  7
Arial
 72
         1
 11
180.5
 21
290.71724354
 31
0.0
100
AcDbText
 73
         3
  0
LINE
  5
277
100
AcDbEntity
  8
STANDARD
390
0
100
AcDbLine
 10
205.0
 20
292.0
 30
0.0
 11
205.0
 21
287.0
 31
0.0
  0
LINE
  5
278
100
AcDbEntity
  8
STANDARD
390
0
100
AcDbLine
 10
205.0
 20
5.0
 30
0.0
 11
15.0
 21
5.0
 31
0.0
  0
LINE
  5
279
100
AcDbEntity
  8
STANDARD
390
0
100
AcDbLine
 10
15.0
 20
5.0
 30
0.0
 11
15.0
 21
287.0
 31
0.0
  0
LINE
  5
27A
100
AcDbEntity
  8
STANDARD
390
0
100
AcDbLine
 10
15.0
 20
292.0
 30
0.0
 11
205.0
 21
292.0
 31
0.0
  0
LINE
  5
27B
100
AcDbEntity
  8
STANDARD
390
0
100
AcDbLine
 10
1.0
 20
1.0
 30
0.0
 11
1.0
 21
296.0
 31
0.0
  0
LINE
  5
27C
100
AcDbEntity
  8
STANDARD
390
0
100
AcDbLine
 10
209.0
 20
1.0
 30
0.0
 11
1.0
 21
1.0
 31
0.0
  0
LINE
  5
27D
100
AcDbEntity
  8
STANDARD
390
0
100
AcDbLine
 10
209.0
 20
296.0
 30
0.0
 11
209.0
 21
1.0
 31
0.0
  0
LINE
  5
27E
100
AcDbEntity
  8
STANDARD
390
0
100
AcDbLine
 10
1.0
 20
296.0
 30
0.0
 11
209.0
 21
296.0
 31
0.0
  0
LINE
  5
27F
100
AcDbEntity
  8
STANDARD
390
0
100
AcDbLine
 10
15.0
 20
287.0
 30
0.0
 11
15.0
 21
292.0
 31
0.0
  0
LINE
  5
280
100
AcDbEntity
  8
STANDARD
390
0
100
AcDbLine
 10
205.0
 20
287.0
 30
0.0
 11
205.0
 21
5.0
 31
0.0
  0
MTEXT
  5
281
100
AcDbEntity
  8
STANDARD
390
0
100
AcDbMText
 10
203.6063292805
 20
81.4222772661
 30
0.0
 40
1.59375
 41
0.0
 71
         1
 72
         1
  1

  7
Arial
 11
0.0
 21
-1.0
 31
0.0
 73
         1
 44
1.0352941176
  0
MTEXT
  5
282
100
AcDbEntity
  8
STANDARD
390
0
100
AcDbMText
 10
116.6968769253
 20
27.5871143065
 30
0.0
 40
1.59375
 41
0.0
 71
         1
 72
         1
  1

  7
Arial
 11
0.0
 21
-1.0
 31
0.0
 73
         1
 44
1.0352941176
  0
MTEXT
  5
283
100
AcDbEntity
  8
STANDARD
390
0
100
AcDbMText
 10
203.6063292805
 20
125.7560948498
 30
0.0
 40
1.59375
 41
0.0
 71
         1
 72
         1
  1

  7
Arial
 11
0.0
 21
-1.0
 31
0.0
 73
         1
 44
1.0352941176
  0
LINE
  5
284
100
AcDbEntity
  8
STANDARD
390
0
100
AcDbLine
 10
205.0
 20
182.1150997151
 30
0.0
 11
205.0
 21
5.1236467236
 31
0.0
  0
LINE
  5
285
100
AcDbEntity
  8
STANDARD
370
         0
390
0
100
AcDbLine
 10
127.305982906
 20
34.4
 30
0.0
 11
127.305982906
 21
5.0
 31
0.0
  0
LINE
  5
286
100
AcDbEntity
  8
STANDARD
370
         0
390
0
100
AcDbLine
 10
81.105982906
 20
34.4
 30
0.0
 11
205.0
 21
34.4
 31
0.0
  0
LINE
  5
287
100
AcDbEntity
  8
STANDARD
370
         0
390
0
100
AcDbLine
 10
81.105982906
 20
27.4
 30
0.0
 11
205.0
 21
27.4
 31
0.0
  0
LINE
  5
288
100
AcDbEntity
  8
STANDARD
370
         0
390
0
100
AcDbLine
 10
81.105982906
 20
12.0
 30
0.0
 11
205.0
 21
12.0
 31
0.0
  0
LINE
  5
289
100
AcDbEntity
  8
STANDARD
370
         0
390
0
100
AcDbLine
 10
81.105982906
 20
34.4
 30
0.0
 11
81.105982906
 21
5.0
 31
0.0
  0
LINE
  5
28A
100
AcDbEntity
  8
STANDARD
370
         0
390
0
100
AcDbLine
 10
165.105982906
 20
34.4
 30
0.0
 11
165.105982906
 21
27.4
 31
0.0
  0
TEXT
  5
28B
100
AcDbEntity
  8
BESCHRIFTUNG
390
0
100
AcDbText
 10
82.2010860399
 20
29.1386
 30
0.0
 40
3.3
  1
Stellwerk HMM
 41
1.3758039542
 51
15.0
  7
Arial
 11
82.2010860399
 21
32.4386
 31
0.0
100
AcDbText
 73
         3
  0
TEXT
  5
28C
100
AcDbEntity
  8
BESCHRIFTUNG
390
0
100
AcDbText
 10
128.6210415954
 20
21.6601111111
 30
0.0
 40
3.3
  1
Doppelhebel DE
 41
1.1301611548
 51
15.0
  7
Arial
 11
128.6210415954
 21
24.9601111111
 31
0.0
100
AcDbText
 73
         3
  0
TEXT
  5
28D
100
AcDbEntity
  8
BESCHRIFTUNG
390
0
100
AcDbText
 10
82.2010860399
 20
6.9230888889
 30
0.0
 40
3.3
  1
Dateiname
 41
1.1437088374
 51
15.0
  7
Arial
 11
82.2010860399
 21
10.2230888889
 31
0.0
100
AcDbText
 73
         3
  0
TEXT
  5
28E
100
AcDbEntity
  8
BESCHRIFTUNG
390
0
100
AcDbText
 10
82.4210415954
 20
21.6601111111
 30
0.0
 40
3.3
  1
Bl. 3202 Pv
 41
1.1437154469
 51
15.0
  7
Arial
 11
82.4210415954
 21
24.9601111111
 31
0.0
100
AcDbText
 73
         3
  0
TEXT
  5
28F
100
AcDbEntity
  8
BESCHRIFTUNG
390
0
100
AcDbText
 10
166.2010860399
 20
29.1386
 30
0.0
 40
3.3
  1
Maßstab 1:1
 41
1.1437192123
 51
15.0
  7
Arial
 11
166.2010860399
 21
32.4386
 31
0.0
100
AcDbText
 73
         3
  0
ENDSEC
  0
SECTION
  2
OBJECTS
  0
DICTIONARY
  5
19
100
AcDbDictionary
280
         0
281
         1
  3
ACAD_GROUP
350
1A
  3
ACAD_MLINESTYLE
350
1B
  3
ACAD_LAYOUT
350
1E
  3
ACAD_PLOTSETTINGS
350
22
  3
ACAD_PLOTSTYLENAME
350
1F
  3
ACAD_WIPEOUT_VARS
350
23
  0
DICTIONARY
  5
1A
102
{ACAD_REACTORS
330
19
102
}
100
AcDbDictionary
280
         0
281
         1
  0
DICTIONARY
  5
1B
102
{ACAD_REACTORS
330
19
102
}
100
AcDbDictionary
280
         0
281
         1
  3
Standard
350
1C
  0
MLINESTYLE
  5
1C
102
{ACAD_REACTORS
330
1B
102
}
100
AcDbMlineStyle
  2
Standard
 70
         0
  3

 62
         0
 51
90.0
 52
90.0
 71
         2
 49
0.5
 62
       256
  6
ByLayer
 49
-0.5
 62
       256
  6
ByLayer
  0
ACDBDICTIONARYWDFLT
  5
1F
102
{ACAD_REACTORS
330
19
102
}
100
AcDbDictionary
281
         1
  3
Normal
350
1D
100
AcDbDictionaryWithDefault
340
1D
  0
ACDBPLACEHOLDER
  5
1D
102
{ACAD_REACTORS
330
1F
102
}
  0
LAYOUT
  5
20
102
{ACAD_REACTORS
330
1E
102
}
100
AcDbPlotSettings
  1

  2

  4

  6

 40
0.0
 41
0.0
 42
0.0
 43
0.0
 44
0.0
 45
0.0
 46
0.0
 47
0.0
 48
0.0
 49
0.0
140
0.0
141
0.0
142
1.0
143
1.0
 70
      1024
 72
         0
 73
         0
 74
         0
  7

 75
         0
147
1.0
148
0.0
149
0.0
100
AcDbLayout
  1
Model
 70
         0
 71
         0
 10
0.0
 20
0.0
 11
0.0
 21
0.0
 12
0.0
 22
0.0
 32
0.0
 14
0.0
 24
0.0
 34
0.0
 15
0.0
 25
0.0
 35
0.0
146
0.0
 13
0.0
 23
0.0
 33
0.0
 16
0.0
 26
0.0
 36
0.0
 17
0.0
 27
0.0
 37
0.0
 76
         0
330
A
331
0
345
0
346
0
  0
LAYOUT
  5
21
102
{ACAD_REACTORS
330
1E
102
}
100
AcDbPlotSettings
  1

  2

  4

  6

 40
0.0
 41
0.0
 42
0.0
 43
0.0
 44
0.0
 45
0.0
 46
0.0
 47
0.0
 48
0.0
 49
0.0
140
0.0
141
0.0
142
1.0
143
1.0
 70
         0
 72
         0
 73
         0
 74
         0
  7

 75
         0
147
1.0
148
0.0
149
0.0
100
AcDbLayout
  1
Layout1
 70
         0
 71
         0
 10
0.0
 20
0.0
 11
0.0
 21
0.0
 12
0.0
 22
0.0
 32
0.0
 14
0.0
 24
0.0
 34
0.0
 15
0.0
 25
0.0
 35
0.0
146
0.0
 13
0.0
 23
0.0
 33
0.0
 16
0.0
 26
0.0
 36
0.0
 17
0.0
 27
0.0
 37
0.0
 76
         0
330
B
331
0
345
0
346
0
  0
DICTIONARY
  5
1E
102
{ACAD_REACTORS
330
19
102
}
100
AcDbDictionary
280
         0
281
         1
  3
Layout1
350
21
  3
Model
350
20
  0
DICTIONARY
  5
22
102
{ACAD_REACTORS
330
19
102
}
100
AcDbDictionary
280
         0
281
         1
  0
WIPEOUTVARIABLES
  5
23
100
AcDbWipeoutVariables
 70
         1
  0
ENDSEC
  0
EOF
