  0
SECTION
  2
HEADER
  9
$ACADVER
  1
AC1015
  9
$ACADMAINTVER
 70
         6
  9
$DWGCODEPAGE
  3
ANSI_1252
  9
$INSBASE
 10
0.0
 20
0.0
 30
0.0
  9
$EXTMIN
 10
-48.7327308655
 20
0.0
 30
0.0
  9
$EXTMAX
 10
210.0
 20
297.0
 30
0.0
  9
$LIMMIN
 10
-48.7327308655
 20
0.0
  9
$LIMMAX
 10
210.0
 20
297.0
  9
$ORTHOMODE
 70
         0
  9
$REGENMODE
 70
         1
  9
$FILLMODE
 70
         1
  9
$QTEXTMODE
 70
         0
  9
$MIRRTEXT
 70
         1
  9
$LTSCALE
 40
6.4683182716
  9
$ATTMODE
 70
         1
  9
$TEXTSIZE
 40
0.2
  9
$TRACEWID
 40
0.05
  9
$TEXTSTYLE
  7
Standard
  9
$CLAYER
  8
0
  9
$CELTYPE
  6
CONTINUOUS
  9
$CECOLOR
 62
       256
  9
$CELTSCALE
 40
1.0
  9
$DISPSILH
 70
         0
  9
$DIMSCALE
 40
1.0
  9
$DIMASZ
 40
0.18
  9
$DIMEXO
 40
0.0625
  9
$DIMDLI
 40
0.38
  9
$DIMRND
 40
0.0
  9
$DIMDLE
 40
0.0
  9
$DIMEXE
 40
0.18
  9
$DIMTP
 40
0.0
  9
$DIMTM
 40
0.0
  9
$DIMTXT
 40
3.0
  9
$DIMCEN
 40
0.09
  9
$DIMTSZ
 40
0.0
  9
$DIMTOL
 70
         0
  9
$DIMLIM
 70
         0
  9
$DIMTIH
 70
         1
  9
$DIMTOH
 70
         1
  9
$DIMSE1
 70
         0
  9
$DIMSE2
 70
         0
  9
$DIMTAD
 70
         1
  9
$DIMZIN
 70
         0
  9
$DIMBLK
  1

  9
$DIMASO
 70
         1
  9
$DIMSHO
 70
         1
  9
$DIMPOST
  1
<>
  9
$DIMAPOST
  1

  9
$DIMALT
 70
         0
  9
$DIMALTD
 70
         2
  9
$DIMALTF
 40
25.4
  9
$DIMLFAC
 40
1.0
  9
$DIMTOFL
 70
         0
  9
$DIMTVP
 40
0.0
  9
$DIMTIX
 70
         0
  9
$DIMSOXD
 70
         0
  9
$DIMSAH
 70
         0
  9
$DIMBLK1
  1

  9
$DIMBLK2
  1

  9
$DIMSTYLE
  2
Standard
  9
$DIMCLRD
 70
         0
  9
$DIMCLRE
 70
         0
  9
$DIMCLRT
 70
         0
  9
$DIMTFAC
 40
1.0
  9
$DIMGAP
 40
0.09
  9
$DIMJUST
 70
         0
  9
$DIMSD1
 70
         0
  9
$DIMSD2
 70
         0
  9
$DIMTOLJ
 70
         1
  9
$DIMTZIN
 70
         0
  9
$DIMALTZ
 70
         0
  9
$DIMALTTZ
 70
         0
  9
$DIMUPT
 70
         0
  9
$DIMDEC
 70
         4
  9
$DIMTDEC
 70
         4
  9
$DIMALTU
 70
         2
  9
$DIMALTTD
 70
         2
  9
$DIMTXSTY
  7
Standard
  9
$DIMAUNIT
 70
         0
  9
$DIMADEC
 70
         0
  9
$DIMALTRND
 40
0.0
  9
$DIMAZIN
 70
         0
  9
$DIMDSEP
 70
         0
  9
$DIMATFIT
 70
         3
  9
$DIMFRAC
 70
         0
  9
$DIMLDRBLK
  1

  9
$DIMLUNIT
 70
         2
  9
$DIMLWD
 70
         0
  9
$DIMLWE
 70
         0
  9
$DIMTMOVE
 70
         0
  9
$LUNITS
 70
         2
  9
$LUPREC
 70
         4
  9
$SKETCHINC
 40
0.1
  9
$FILLETRAD
 40
0.0
  9
$AUNITS
 70
         0
  9
$AUPREC
 70
         0
  9
$MENU
  1
acad
  9
$ELEVATION
 40
0.0
  9
$PELEVATION
 40
0.0
  9
$THICKNESS
 40
0.0
  9
$LIMCHECK
 70
         0
  9
$CHAMFERA
 40
0.0
  9
$CHAMFERB
 40
0.0
  9
$CHAMFERC
 40
0.0
  9
$CHAMFERD
 40
0.0
  9
$SKPOLY
 70
         0
  9
$TDCREATE
 40
0.000000000
  9
$TDUCREATE
 40
0.000000000
  9
$TDUPDATE
 40
0.000000000
  9
$TDUUPDATE
 40
0.000000000
  9
$TDINDWG
 40
0.0000000000
  9
$TDUSRTIMER
 40
0.0000000000
  9
$USRTIMER
 70
         1
  9
$ANGBASE
 50
0.0
  9
$ANGDIR
 70
         0
  9
$PDMODE
 70
         0
  9
$PDSIZE
 40
0.0
  9
$PLINEWID
 40
0.0
  9
$SPLFRAME
 70
         0
  9
$SPLINETYPE
 70
         6
  9
$SPLINESEGS
 70
         8
  9
$HANDSEED
  5
21D
  9
$SURFTAB1
 70
         6
  9
$SURFTAB2
 70
         6
  9
$SURFTYPE
 70
         6
  9
$SURFU
 70
         6
  9
$SURFV
 70
         6
  9
$UCSBASE
  2

  9
$UCSNAME
  2

  9
$UCSORG
 10
0.0
 20
0.0
 30
0.0
  9
$UCSXDIR
 10
1.0
 20
0.0
 30
0.0
  9
$UCSYDIR
 10
0.0
 20
1.0
 30
0.0
  9
$UCSORTHOREF
  2

  9
$UCSORTHOVIEW
 70
         0
  9
$UCSORGTOP
 10
0.0
 20
0.0
 30
0.0
  9
$UCSORGBOTTOM
 10
0.0
 20
0.0
 30
0.0
  9
$UCSORGLEFT
 10
0.0
 20
0.0
 30
0.0
  9
$UCSORGRIGHT
 10
0.0
 20
0.0
 30
0.0
  9
$UCSORGFRONT
 10
0.0
 20
0.0
 30
0.0
  9
$UCSORGBACK
 10
0.0
 20
0.0
 30
0.0
  9
$PUCSBASE
  2

  9
$PUCSNAME
  2

  9
$PUCSORG
 10
0.0
 20
0.0
 30
0.0
  9
$PUCSXDIR
 10
1.0
 20
0.0
 30
0.0
  9
$PUCSYDIR
 10
0.0
 20
1.0
 30
0.0
  9
$PUCSORTHOREF
  2

  9
$PUCSORTHOVIEW
 70
         0
  9
$PUCSORGTOP
 10
0.0
 20
0.0
 30
0.0
  9
$PUCSORGBOTTOM
 10
0.0
 20
0.0
 30
0.0
  9
$PUCSORGLEFT
 10
0.0
 20
0.0
 30
0.0
  9
$PUCSORGRIGHT
 10
0.0
 20
0.0
 30
0.0
  9
$PUCSORGFRONT
 10
0.0
 20
0.0
 30
0.0
  9
$PUCSORGBACK
 10
0.0
 20
0.0
 30
0.0
  9
$USERI1
 70
         0
  9
$USERI2
 70
         0
  9
$USERI3
 70
         0
  9
$USERI4
 70
         0
  9
$USERI5
 70
         0
  9
$USERR1
 40
0.0
  9
$USERR2
 40
0.0
  9
$USERR3
 40
0.0
  9
$USERR4
 40
0.0
  9
$USERR5
 40
0.0
  9
$WORLDVIEW
 70
         1
  9
$SHADEDGE
 70
         3
  9
$SHADEDIF
 70
        70
  9
$TILEMODE
 70
         1
  9
$MAXACTVP
 70
        16
  9
$PINSBASE
 10
0.0
 20
0.0
 30
0.0
  9
$PLIMCHECK
 70
         0
  9
$PEXTMIN
 10
1.0000000000E+20
 20
1.0000000000E+20
 30
1.0000000000E+20
  9
$PEXTMAX
 10
-1.0000000000E+20
 20
-1.0000000000E+20
 30
-1.0000000000E+20
  9
$PLIMMIN
 10
0.0
 20
0.0
  9
$PLIMMAX
 10
12.0
 20
9.0
  9
$UNITMODE
 70
         0
  9
$VISRETAIN
 70
         0
  9
$PLINEGEN
 70
         1
  9
$PSLTSCALE
 70
         0
  9
$TREEDEPTH
 70
      3020
  9
$CMLSTYLE
  2
Standard
  9
$CMLJUST
 70
         0
  9
$CMLSCALE
 40
1.0
  9
$PROXYGRAPHICS
 70
         0
  9
$MEASUREMENT
 70
         1
  9
$CELWEIGHT
370
         0
  9
$ENDCAPS
280
         0
  9
$JOINSTYLE
280
         0
  9
$LWDISPLAY
290
         0
  9
$INSUNITS
 70
         0
  9
$HYPERLINKBASE
  1

  9
$STYLESHEET
  1

  9
$XEDIT
290
         1
  9
$CEPSNTYPE
380
         0
  9
$PSTYLEMODE
290
         1
  9
$FINGERPRINTGUID
  2

  9
$VERSIONGUID
  2

  9
$EXTNAMES
290
         1
  9
$PSVPSCALE
 40
0.0
  0
ENDSEC
  0
SECTION
  2
CLASSES
  0
CLASS
  1
LWPOLYLINE
  2
AcDbPolyline
  3
AutoCAD 2000
 90
        0
280
         0
281
         1
  0
CLASS
  1
IMAGE
  2
AcDbRasterImage
  3
ISM
 90
      127
280
         0
281
         1
  0
CLASS
  1
OLE2FRAME
  2
AcDbOle2Frame
  3
AutoCAD 2000
 90
        0
280
         0
281
         1
  0
CLASS
  1
HATCH
  2
AcDbHatch
  3
AutoCAD 2000
 90
        0
280
         0
281
         1
  0
CLASS
  1
DICTIONARYVAR
  2
AcDbDictionaryVar
  3
AutoCAD 2000
 90
        0
280
         0
281
         0
  0
CLASS
  1
RASTERVARIABLES
  2
AcDbRasterVariables
  3
ISM
 90
        0
280
         0
281
         0
  0
CLASS
  1
IMAGEDEF
  2
AcDbRasterImageDef
  3
ISM
 90
        0
280
         0
281
         0
  0
CLASS
  1
IMAGEDEF_REACTOR
  2
AcDbRasterImageDefReactor
  3
ISM
 90
        1
280
         0
281
         0
  0
CLASS
  1
IDBUFFER
  2
AcDbIdBuffer
  3
AutoCAD 2000
 90
        0
280
         0
281
         0
  0
CLASS
  1
SPATIAL_FILTER
  2
AcDbSpatialFilter
  3
AutoCAD 2000
 90
        0
280
         0
281
         0
  0
CLASS
  1
XRECORD
  2
AcDbXrecord
  3
AutoCAD 2000
 90
        0
280
         0
281
         0
  0
CLASS
  1
SORTENTSTABLE
  2
AcDbSortentsTable
  3
AutoCAD 2000
 90
        0
280
         0
281
         0
  0
CLASS
  1
LAYER_INDEX
  2
AcDbLayerIndex
  3
AutoCAD 2000
 90
        0
280
         0
281
         0
  0
CLASS
  1
SPATIAL_INDEX
  2
AcDbSpatialIndex
  3
AutoCAD 2000
 90
        0
280
         0
281
         0
  0
CLASS
  1
OBJECT_PTR
  2
CAseDLPNTableRecord
  3
"ASE-LPNTableRecord"
 90
        1
280
         0
281
         0
  0
CLASS
  1
LAYOUT
  2
AcDbLayout
  3
AutoCAD 2000
 90
        0
280
         0
281
         0
  0
CLASS
  1
PLOTSETTINGS
  2
AcDbPlotSettings
  3
AutoCAD 2000
 90
        0
280
         0
281
         0
  0
CLASS
  1
ACDBDICTIONARYWDFLT
  2
AcDbDictionaryWithDefault
  3
AutoCAD 2000
 90
        0
280
         0
281
         0
  0
CLASS
  1
ACDBPLACEHOLDER
  2
AcDbPlaceHolder
  3
AutoCAD 2000
 90
        0
280
         0
281
         0
  0
CLASS
  1
VBA_PROJECT
  2
AcDbVbaProject
  3
acadvba
 90
        0
280
         0
281
         0
  0
CLASS
  1
WIPEOUT
  2
AcDbWipeout
  3
WipeOut|AutoCAD Express Tool|expresstools@autodesk.com
 90
      127
280
         0
281
         1
  0
CLASS
  1
WIPEOUTVARIABLES
  2
AcDbWipeoutVariables
  3
WipeOut|AutoCAD Express Tool|expresstools@autodesk.com
 90
        0
280
         0
281
         0
  0
CLASS
  1
RTEXT
  2
RText
  3
RText|AutoCAD Express Tool|expresstools@autodesk.com
 90
        0
280
         0
281
         1
  0
CLASS
  1
ARCALIGNEDTEXT
  2
AcDbArcAlignedText
  3
ATEXT|AutoCAD Express Tool|expresstools@autodesk.com
 90
        0
280
         0
281
         1
  0
ENDSEC
  0
SECTION
  2
TABLES
  0
TABLE
  2
VPORT
  5
7
100
AcDbSymbolTable
 70
         1
  0
VPORT
  5
15
100
AcDbSymbolTableRecord
100
AcDbViewportTableRecord
  2
*ACTIVE
 70
         0
 10
0.0
 20
0.0
 11
1.0
 21
1.0
 12
105.0
 22
148.5
 13
0.0
 23
0.0
 14
1.0
 24
1.0
 15
0.0
 25
0.0
 16
0.0
 26
0.0
 36
1.0
 17
0.0
 27
0.0
 37
0.0
 40
231.2943892345
 41
1.0
 42
50.0
 43
0.0
 44
0.0
 50
0.0
 51
0.0
 71
         0
 72
       100
 73
         1
 74
         1
 75
         0
 76
         0
 77
         0
 78
         0
281
         0
 65
         0
110
0.0
120
0.0
130
0.0
111
1.0
121
0.0
131
0.0
112
0.0
122
1.0
132
0.0
345
0
346
0
 79
         0
146
0.0
  0
ENDTAB
  0
TABLE
  2
LTYPE
  5
4
100
AcDbSymbolTable
 70
        12
  0
LTYPE
  5
11
100
AcDbSymbolTableRecord
100
AcDbLinetypeTableRecord
  2
ByBlock
 70
        64
  3

 72
        65
 73
         0
 40
0.0
  0
LTYPE
  5
12
100
AcDbSymbolTableRecord
100
AcDbLinetypeTableRecord
  2
ByLayer
 70
        64
  3

 72
        65
 73
         0
 40
0.0
  0
LTYPE
  5
13
100
AcDbSymbolTableRecord
100
AcDbLinetypeTableRecord
  2
CONTINUOUS
 70
        64
  3
Solid Line
 72
        65
 73
         0
 40
0.0
  0
LTYPE
  5
24
100
AcDbSymbolTableRecord
100
AcDbLinetypeTableRecord
  2
DOT
 70
        64
  3
. . . . . . . . . . . . . . . . . . . . . . 
 72
        65
 73
         2
 40
0.25
 49
0.0
 74
         0
 49
-0.25
 74
         0
  0
LTYPE
  5
25
100
AcDbSymbolTableRecord
100
AcDbLinetypeTableRecord
  2
HIDDEN
 70
         0
  3
_ _ _ _ _ _ _ _ _ _ _ _ _ _ _ _ _ _ _ _ _ _ _
 72
        65
 73
         2
 40
0.375
 49
0.25
 74
         0
 49
-0.125
 74
         0
  0
LTYPE
  5
26
100
AcDbSymbolTableRecord
100
AcDbLinetypeTableRecord
  2
DASHDOT
 70
         0
  3
__ . __ . __ . __ . __ . __ . __ . __ . __ . __
 72
        65
 73
         4
 40
1.0
 49
0.5
 74
         0
 49
-0.25
 74
         0
 49
0.0
 74
         0
 49
-0.25
 74
         0
  0
LTYPE
  5
27
100
AcDbSymbolTableRecord
100
AcDbLinetypeTableRecord
  2
DIVIDE
 70
         0
  3
__ . . __ . . __ . . __ . . __ . . __ . . __
 72
        65
 73
         6
 40
1.25
 49
0.5
 74
         0
 49
-0.25
 74
         0
 49
0.0
 74
         0
 49
-0.25
 74
         0
 49
0.0
 74
         0
 49
-0.25
 74
         0
  0
LTYPE
  5
28
100
AcDbSymbolTableRecord
100
AcDbLinetypeTableRecord
  2
DASHED
 70
         0
  3
__ __ __ __ __ __ __ __ __ __ __ __ __ __ __
 72
        65
 73
         2
 40
0.75
 49
0.5
 74
         0
 49
-0.25
 74
         0
  0
LTYPE
  5
29
100
AcDbSymbolTableRecord
100
AcDbLinetypeTableRecord
  2
BORDER
 70
         0
  3
__ __ . __ __ . __ __ . __ __ . __ __ .
 72
        65
 73
         6
 40
1.75
 49
0.5
 74
         0
 49
-0.25
 74
         0
 49
0.5
 74
         0
 49
-0.25
 74
         0
 49
0.0
 74
         0
 49
-0.25
 74
         0
  0
LTYPE
  5
2A
100
AcDbSymbolTableRecord
100
AcDbLinetypeTableRecord
  2
CENTER
 70
         0
  3
____ _ ____ _ ____ _ ____ _ ____ _ ____
 72
        65
 73
         4
 40
2.0
 49
1.25
 74
         0
 49
-0.25
 74
         0
 49
0.25
 74
         0
 49
-0.25
 74
         0
  0
LTYPE
  5
2B
100
AcDbSymbolTableRecord
100
AcDbLinetypeTableRecord
  2
DOT2
 70
         0
  3
........................................
 72
        65
 73
         2
 40
0.125
 49
0.0
 74
         0
 49
-0.125
 74
         0
  0
LTYPE
  5
2C
100
AcDbSymbolTableRecord
100
AcDbLinetypeTableRecord
  2
PHANTOM
 70
         0
  3
______  __  __  ______  __  __  ______
 72
        65
 73
         6
 40
2.5
 49
1.25
 74
         0
 49
-0.25
 74
         0
 49
0.25
 74
         0
 49
-0.25
 74
         0
 49
0.25
 74
         0
 49
-0.25
 74
         0
  0
ENDTAB
  0
TABLE
  2
LAYER
  5
2
100
AcDbSymbolTable
 70
       161
  0
LAYER
  5
14
100
AcDbSymbolTableRecord
100
AcDbLayerTableRecord
  2
0
 70
         0
 62
         7
  6
CONTINUOUS
290
         1
370
        -3
390
1D
  0
LAYER
  5
33
100
AcDbSymbolTableRecord
100
AcDbLayerTableRecord
  2
BESCHRIFTUNG
 70
        64
 62
         7
  6
CONTINUOUS
290
         1
370
        25
390
1D
  0
LAYER
  5
34
100
AcDbSymbolTableRecord
100
AcDbLayerTableRecord
  2
SCHRAFFUR
 70
        64
 62
         7
  6
CONTINUOUS
290
         1
370
        25
390
1D
  0
LAYER
  5
35
100
AcDbSymbolTableRecord
100
AcDbLayerTableRecord
  2
MASSTEXTE
 70
        64
 62
       212
  6
CONTINUOUS
290
         1
370
        25
390
1D
  0
LAYER
  5
36
100
AcDbSymbolTableRecord
100
AcDbLayerTableRecord
  2
MASSLINIEN
 70
        64
 62
       172
  6
CONTINUOUS
290
         1
370
        25
390
1D
  0
LAYER
  5
37
100
AcDbSymbolTableRecord
100
AcDbLayerTableRecord
  2
MASSGRENZEN
 70
        64
 62
       172
  6
CONTINUOUS
290
         1
370
        25
390
1D
  0
LAYER
  5
38
100
AcDbSymbolTableRecord
100
AcDbLayerTableRecord
  2
TOLERANZEN
 70
        64
 62
       212
  6
CONTINUOUS
290
         1
370
         0
390
1D
  0
LAYER
  5
39
100
AcDbSymbolTableRecord
100
AcDbLayerTableRecord
  2
BEMASSUNG
 70
        64
 62
         7
  6
CONTINUOUS
290
         1
370
        25
390
1D
  0
LAYER
  5
3A
100
AcDbSymbolTableRecord
100
AcDbLayerTableRecord
  2
HILFSLINIEN
 70
        64
 62
         3
  6
CONTINUOUS
290
         1
370
         0
390
1D
  0
LAYER
  5
3B
100
AcDbSymbolTableRecord
100
AcDbLayerTableRecord
  2
MITTELLINIEN
 70
        64
 62
         5
  6
DASHDOT
290
         1
370
        25
390
1D
  0
LAYER
  5
3C
100
AcDbSymbolTableRecord
100
AcDbLayerTableRecord
  2
BESCHRIFTUNG00
 70
        64
 62
         7
  6
CONTINUOUS
290
         1
370
        25
390
1D
  0
LAYER
  5
3D
100
AcDbSymbolTableRecord
100
AcDbLayerTableRecord
  2
BESCHRIFTUNG0
 70
        64
 62
         7
  6
CONTINUOUS
290
         1
370
        25
390
1D
  0
LAYER
  5
3E
100
AcDbSymbolTableRecord
100
AcDbLayerTableRecord
  2
GEWINDELINIEN
 70
        64
 62
       212
  6
CONTINUOUS
290
         1
370
        25
390
1D
  0
LAYER
  5
3F
100
AcDbSymbolTableRecord
100
AcDbLayerTableRecord
  2
UNSICHTBARE
 70
        64
 62
        92
  6
DASHED
290
         1
370
        25
390
1D
  0
LAYER
  5
40
100
AcDbSymbolTableRecord
100
AcDbLayerTableRecord
  2
VERDECKTE
 70
        64
 62
        92
  6
DASHED
290
         1
370
        25
390
1D
  0
LAYER
  5
41
100
AcDbSymbolTableRecord
100
AcDbLayerTableRecord
  2
LICHTKANTEN
 70
        64
 62
         8
  6
CONTINUOUS
290
         1
370
        25
390
1D
  0
LAYER
  5
42
100
AcDbSymbolTableRecord
100
AcDbLayerTableRecord
  2
SCHNITTVERLAUF
 70
        64
 62
        34
  6
DASHDOT
290
         1
370
        70
390
1D
  0
LAYER
  5
43
100
AcDbSymbolTableRecord
100
AcDbLayerTableRecord
  2
KENNZEICHNUNG
 70
        64
 62
         7
  6
CONTINUOUS
290
         1
370
         0
390
1D
  0
LAYER
  5
44
100
AcDbSymbolTableRecord
100
AcDbLayerTableRecord
  2
PFEILE
 70
        64
 62
         7
  6
CONTINUOUS
290
         1
370
        70
390
1D
  0
LAYER
  5
45
100
AcDbSymbolTableRecord
100
AcDbLayerTableRecord
  2
SCHNITTDARSTELLUNG
 70
        64
 62
         7
  6
CONTINUOUS
290
         1
370
         0
390
1D
  0
LAYER
  5
46
100
AcDbSymbolTableRecord
100
AcDbLayerTableRecord
  2
3201_3R
 70
        64
 62
        14
  6
CONTINUOUS
290
         1
370
         0
390
1D
  0
LAYER
  5
47
100
AcDbSymbolTableRecord
100
AcDbLayerTableRecord
  2
3201_3L
 70
        64
 62
        30
  6
CONTINUOUS
290
         1
370
         0
390
1D
  0
LAYER
  5
48
100
AcDbSymbolTableRecord
100
AcDbLayerTableRecord
  2
3201_1P
 70
        64
 62
        30
  6
CONTINUOUS
290
         1
370
         0
390
1D
  0
LAYER
  5
49
100
AcDbSymbolTableRecord
100
AcDbLayerTableRecord
  2
3201_2P
 70
        64
 62
        30
  6
CONTINUOUS
290
         1
370
         0
390
1D
  0
LAYER
  5
4A
100
AcDbSymbolTableRecord
100
AcDbLayerTableRecord
  2
3201_4P
 70
        64
 62
        30
  6
CONTINUOUS
290
         1
370
         0
390
1D
  0
LAYER
  5
4B
100
AcDbSymbolTableRecord
100
AcDbLayerTableRecord
  2
3201_6L
 70
        64
 62
        30
  6
CONTINUOUS
290
         1
370
         0
390
1D
  0
LAYER
  5
4C
100
AcDbSymbolTableRecord
100
AcDbLayerTableRecord
  2
3201_7L
 70
        64
 62
        30
  6
CONTINUOUS
290
         1
370
         0
390
1D
  0
LAYER
  5
4D
100
AcDbSymbolTableRecord
100
AcDbLayerTableRecord
  2
3201_9P
 70
        64
 62
        30
  6
CONTINUOUS
290
         1
370
         0
390
1D
  0
LAYER
  5
4E
100
AcDbSymbolTableRecord
100
AcDbLayerTableRecord
  2
3201_8R
 70
        64
 62
        14
  6
CONTINUOUS
290
         1
370
         0
390
1D
  0
LAYER
  5
4F
100
AcDbSymbolTableRecord
100
AcDbLayerTableRecord
  2
3201_8L
 70
        64
 62
        30
  6
CONTINUOUS
290
         1
370
         0
390
1D
  0
LAYER
  5
50
100
AcDbSymbolTableRecord
100
AcDbLayerTableRecord
  2
3201_9T
 70
        64
 62
        14
  6
CONTINUOUS
290
         1
370
         0
390
1D
  0
LAYER
  5
51
100
AcDbSymbolTableRecord
100
AcDbLayerTableRecord
  2
3201_11P
 70
        64
 62
        30
  6
CONTINUOUS
290
         1
370
         0
390
1D
  0
LAYER
  5
52
100
AcDbSymbolTableRecord
100
AcDbLayerTableRecord
  2
3201_6R
 70
        64
 62
        14
  6
CONTINUOUS
290
         1
370
         0
390
1D
  0
LAYER
  5
53
100
AcDbSymbolTableRecord
100
AcDbLayerTableRecord
  2
3201_7R
 70
        64
 62
        14
  6
CONTINUOUS
290
         1
370
         0
390
1D
  0
LAYER
  5
54
100
AcDbSymbolTableRecord
100
AcDbLayerTableRecord
  2
3201___ EINZELHEBEL DE
 70
        64
 62
         6
  6
DASHDOT
290
         1
370
         0
390
1D
  0
LAYER
  5
55
100
AcDbSymbolTableRecord
100
AcDbLayerTableRecord
  2
2201_8P
 70
        64
 62
        30
  6
CONTINUOUS
290
         1
370
        13
390
1D
  0
LAYER
  5
56
100
AcDbSymbolTableRecord
100
AcDbLayerTableRecord
  2
2201_9P
 70
        64
 62
        30
  6
CONTINUOUS
290
         1
370
        13
390
1D
  0
LAYER
  5
57
100
AcDbSymbolTableRecord
100
AcDbLayerTableRecord
  2
2201_1R
 70
        64
 62
       230
  6
CONTINUOUS
290
         1
370
        13
390
1D
  0
LAYER
  5
58
100
AcDbSymbolTableRecord
100
AcDbLayerTableRecord
  2
2201_7P
 70
        64
 62
        30
  6
CONTINUOUS
290
         1
370
        13
390
1D
  0
LAYER
  5
59
100
AcDbSymbolTableRecord
100
AcDbLayerTableRecord
  2
2201_0T
 70
        64
 62
        30
  6
CONTINUOUS
290
         1
370
        13
390
1D
  0
LAYER
  5
5A
100
AcDbSymbolTableRecord
100
AcDbLayerTableRecord
  2
2201_7V
 70
        64
 62
        30
  6
CONTINUOUS
290
         1
370
        13
390
1D
  0
LAYER
  5
5B
100
AcDbSymbolTableRecord
100
AcDbLayerTableRecord
  2
2201_0A
 70
        64
 62
       230
  6
CONTINUOUS
290
         1
370
        13
390
1D
  0
LAYER
  5
5C
100
AcDbSymbolTableRecord
100
AcDbLayerTableRecord
  2
2201_2P
 70
        64
 62
        30
  6
CONTINUOUS
290
         1
370
        13
390
1D
  0
LAYER
  5
5D
100
AcDbSymbolTableRecord
100
AcDbLayerTableRecord
  2
2201_4P
 70
        64
 62
        30
  6
CONTINUOUS
290
         1
370
        13
390
1D
  0
LAYER
  5
5E
100
AcDbSymbolTableRecord
100
AcDbLayerTableRecord
  2
2201_6P
 70
        64
 62
        30
  6
CONTINUOUS
290
         1
370
        13
390
1D
  0
LAYER
  5
5F
100
AcDbSymbolTableRecord
100
AcDbLayerTableRecord
  2
2201_3P
 70
        64
 62
        30
  6
CONTINUOUS
290
         1
370
        13
390
1D
  0
LAYER
  5
60
100
AcDbSymbolTableRecord
100
AcDbLayerTableRecord
  2
2201_5P
 70
        64
 62
        30
  6
CONTINUOUS
290
         1
370
        13
390
1D
  0
LAYER
  5
61
100
AcDbSymbolTableRecord
100
AcDbLayerTableRecord
  2
2201_1L
 70
        64
 62
        30
  6
CONTINUOUS
290
         1
370
        13
390
1D
  0
LAYER
  5
62
100
AcDbSymbolTableRecord
100
AcDbLayerTableRecord
  2
2201___ HEBELBOCK
 70
        64
 62
       190
  6
DASHDOT
290
         1
370
         0
390
1D
  0
LAYER
  5
63
100
AcDbSymbolTableRecord
100
AcDbLayerTableRecord
  2
3202_3R
 70
        64
 62
        14
  6
CONTINUOUS
290
         1
370
         0
390
1D
  0
LAYER
  5
64
100
AcDbSymbolTableRecord
100
AcDbLayerTableRecord
  2
3202_3L
 70
        64
 62
        30
  6
CONTINUOUS
290
         1
370
         0
390
1D
  0
LAYER
  5
65
100
AcDbSymbolTableRecord
100
AcDbLayerTableRecord
  2
3202_1P
 70
        64
 62
        30
  6
CONTINUOUS
290
         1
370
         0
390
1D
  0
LAYER
  5
66
100
AcDbSymbolTableRecord
100
AcDbLayerTableRecord
  2
3202_2P
 70
        64
 62
        30
  6
CONTINUOUS
290
         1
370
         0
390
1D
  0
LAYER
  5
67
100
AcDbSymbolTableRecord
100
AcDbLayerTableRecord
  2
3202_4P
 70
        64
 62
        30
  6
CONTINUOUS
290
         1
370
         0
390
1D
  0
LAYER
  5
68
100
AcDbSymbolTableRecord
100
AcDbLayerTableRecord
  2
3202_6L
 70
        64
 62
        30
  6
CONTINUOUS
290
         1
370
         0
390
1D
  0
LAYER
  5
69
100
AcDbSymbolTableRecord
100
AcDbLayerTableRecord
  2
3202_7L
 70
        64
 62
        30
  6
CONTINUOUS
290
         1
370
         0
390
1D
  0
LAYER
  5
6A
100
AcDbSymbolTableRecord
100
AcDbLayerTableRecord
  2
3202_9P
 70
        64
 62
        30
  6
CONTINUOUS
290
         1
370
         0
390
1D
  0
LAYER
  5
6B
100
AcDbSymbolTableRecord
100
AcDbLayerTableRecord
  2
3202_8R
 70
        64
 62
        14
  6
CONTINUOUS
290
         1
370
         0
390
1D
  0
LAYER
  5
6C
100
AcDbSymbolTableRecord
100
AcDbLayerTableRecord
  2
3202_8L
 70
        64
 62
        30
  6
CONTINUOUS
290
         1
370
         0
390
1D
  0
LAYER
  5
6D
100
AcDbSymbolTableRecord
100
AcDbLayerTableRecord
  2
3202_9T
 70
        64
 62
        14
  6
CONTINUOUS
290
         1
370
         0
390
1D
  0
LAYER
  5
6E
100
AcDbSymbolTableRecord
100
AcDbLayerTableRecord
  2
3202_11P
 70
        64
 62
        30
  6
CONTINUOUS
290
         1
370
         0
390
1D
  0
LAYER
  5
6F
100
AcDbSymbolTableRecord
100
AcDbLayerTableRecord
  2
3202_6R
 70
        64
 62
        14
  6
CONTINUOUS
290
         1
370
         0
390
1D
  0
LAYER
  5
70
100
AcDbSymbolTableRecord
100
AcDbLayerTableRecord
  2
3202_7R
 70
        64
 62
        14
  6
CONTINUOUS
290
         1
370
         0
390
1D
  0
LAYER
  5
71
100
AcDbSymbolTableRecord
100
AcDbLayerTableRecord
  2
3202_20T
 70
        64
 62
        14
  6
CONTINUOUS
290
         1
370
         0
390
1D
  0
LAYER
  5
72
100
AcDbSymbolTableRecord
100
AcDbLayerTableRecord
  2
3202_20P
 70
        64
 62
        30
  6
CONTINUOUS
290
         1
370
         0
390
1D
  0
LAYER
  5
73
100
AcDbSymbolTableRecord
100
AcDbLayerTableRecord
  2
3202___ DOPPELHEBEL DE
 70
        64
 62
         6
  6
DASHDOT
290
         1
370
         0
390
1D
  0
LAYER
  5
74
100
AcDbSymbolTableRecord
100
AcDbLayerTableRecord
  2
3203_13P
 70
        64
 62
        30
  6
CONTINUOUS
290
         1
370
        13
390
1D
  0
LAYER
  5
75
100
AcDbSymbolTableRecord
100
AcDbLayerTableRecord
  2
3203_14P
 70
        64
 62
        30
  6
CONTINUOUS
290
         1
370
        13
390
1D
  0
LAYER
  5
76
100
AcDbSymbolTableRecord
100
AcDbLayerTableRecord
  2
3203_11P
 70
        64
 62
        30
  6
CONTINUOUS
290
         1
370
        13
390
1D
  0
LAYER
  5
77
100
AcDbSymbolTableRecord
100
AcDbLayerTableRecord
  2
3203_30P
 70
        64
 62
        30
  6
CONTINUOUS
290
         1
370
        13
390
1D
  0
LAYER
  5
78
100
AcDbSymbolTableRecord
100
AcDbLayerTableRecord
  2
3203___ EINZELHEBEL DE MIT SCHLOSS
 70
        64
 62
         6
  6
DASHDOT
290
         1
370
         0
390
1D
  0
LAYER
  5
79
100
AcDbSymbolTableRecord
100
AcDbLayerTableRecord
  2
3204_11P
 70
        64
 62
        30
  6
CONTINUOUS
290
         1
370
        13
390
1D
  0
LAYER
  5
7A
100
AcDbSymbolTableRecord
100
AcDbLayerTableRecord
  2
3204_30P
 70
        64
 62
        30
  6
CONTINUOUS
290
         1
370
        13
390
1D
  0
LAYER
  5
7B
100
AcDbSymbolTableRecord
100
AcDbLayerTableRecord
  2
3204___ DOPPELHEBEL DE MIT SCHLOSS
 70
        64
 62
         6
  6
DASHDOT
290
         1
370
         0
390
1D
  0
LAYER
  5
7C
100
AcDbSymbolTableRecord
100
AcDbLayerTableRecord
  2
3211_1R
 70
        64
 62
        14
  6
CONTINUOUS
290
         1
370
        13
390
1D
  0
LAYER
  5
7D
100
AcDbSymbolTableRecord
100
AcDbLayerTableRecord
  2
3211_3P
 70
        64
 62
        30
  6
CONTINUOUS
290
         1
370
        13
390
1D
  0
LAYER
  5
7E
100
AcDbSymbolTableRecord
100
AcDbLayerTableRecord
  2
3211_1L
 70
        64
 62
        30
  6
CONTINUOUS
290
         1
370
        13
390
1D
  0
LAYER
  5
7F
100
AcDbSymbolTableRecord
100
AcDbLayerTableRecord
  2
3211_4P
 70
        64
 62
        30
  6
CONTINUOUS
290
         1
370
        13
390
1D
  0
LAYER
  5
80
100
AcDbSymbolTableRecord
100
AcDbLayerTableRecord
  2
3211_2L
 70
        64
 62
        30
  6
CONTINUOUS
290
         1
370
        13
390
1D
  0
LAYER
  5
81
100
AcDbSymbolTableRecord
100
AcDbLayerTableRecord
  2
3211_2R
 70
        64
 62
        14
  6
CONTINUOUS
290
         1
370
        13
390
1D
  0
LAYER
  5
82
100
AcDbSymbolTableRecord
100
AcDbLayerTableRecord
  2
3211_5P
 70
        64
 62
        30
  6
CONTINUOUS
290
         1
370
        13
390
1D
  0
LAYER
  5
83
100
AcDbSymbolTableRecord
100
AcDbLayerTableRecord
  2
3211_5T
 70
        64
 62
        15
  6
CONTINUOUS
290
         1
370
        13
390
1D
  0
LAYER
  5
84
100
AcDbSymbolTableRecord
100
AcDbLayerTableRecord
  2
3211___ EINZELHEBEL DE GRUPPENPFADE
 70
        64
 62
         6
  6
DASHDOT
290
         1
370
         0
390
1D
  0
LAYER
  5
85
100
AcDbSymbolTableRecord
100
AcDbLayerTableRecord
  2
3212_1R
 70
        64
 62
        14
  6
CONTINUOUS
290
         1
370
        13
390
1D
  0
LAYER
  5
86
100
AcDbSymbolTableRecord
100
AcDbLayerTableRecord
  2
3212_3P
 70
        64
 62
        30
  6
CONTINUOUS
290
         1
370
        13
390
1D
  0
LAYER
  5
87
100
AcDbSymbolTableRecord
100
AcDbLayerTableRecord
  2
3212_1L
 70
        64
 62
        30
  6
CONTINUOUS
290
         1
370
        13
390
1D
  0
LAYER
  5
88
100
AcDbSymbolTableRecord
100
AcDbLayerTableRecord
  2
3212_4P
 70
        64
 62
        30
  6
CONTINUOUS
290
         1
370
        13
390
1D
  0
LAYER
  5
89
100
AcDbSymbolTableRecord
100
AcDbLayerTableRecord
  2
3212_2L
 70
        64
 62
        30
  6
CONTINUOUS
290
         1
370
        13
390
1D
  0
LAYER
  5
8A
100
AcDbSymbolTableRecord
100
AcDbLayerTableRecord
  2
3212_2R
 70
        64
 62
        14
  6
CONTINUOUS
290
         1
370
        13
390
1D
  0
LAYER
  5
8B
100
AcDbSymbolTableRecord
100
AcDbLayerTableRecord
  2
3212_5P
 70
        64
 62
        30
  6
CONTINUOUS
290
         1
370
        13
390
1D
  0
LAYER
  5
8C
100
AcDbSymbolTableRecord
100
AcDbLayerTableRecord
  2
3212_5T
 70
        64
 62
        15
  6
CONTINUOUS
290
         1
370
        13
390
1D
  0
LAYER
  5
8D
100
AcDbSymbolTableRecord
100
AcDbLayerTableRecord
  2
3212___ DOPPELHEBEL DE GRUPPENPFADE
 70
        64
 62
         6
  6
DASHDOT
290
         1
370
         0
390
1D
  0
LAYER
  5
8E
100
AcDbSymbolTableRecord
100
AcDbLayerTableRecord
  2
3213_1R
 70
        64
 62
        14
  6
CONTINUOUS
290
         1
370
        13
390
1D
  0
LAYER
  5
8F
100
AcDbSymbolTableRecord
100
AcDbLayerTableRecord
  2
3213_3P
 70
        64
 62
        30
  6
CONTINUOUS
290
         1
370
        13
390
1D
  0
LAYER
  5
90
100
AcDbSymbolTableRecord
100
AcDbLayerTableRecord
  2
3213_1L
 70
        64
 62
        30
  6
CONTINUOUS
290
         1
370
        13
390
1D
  0
LAYER
  5
91
100
AcDbSymbolTableRecord
100
AcDbLayerTableRecord
  2
3213_4P
 70
        64
 62
        30
  6
CONTINUOUS
290
         1
370
        13
390
1D
  0
LAYER
  5
92
100
AcDbSymbolTableRecord
100
AcDbLayerTableRecord
  2
3213_2L
 70
        64
 62
        30
  6
CONTINUOUS
290
         1
370
        13
390
1D
  0
LAYER
  5
93
100
AcDbSymbolTableRecord
100
AcDbLayerTableRecord
  2
3213_2R
 70
        64
 62
        14
  6
CONTINUOUS
290
         1
370
        13
390
1D
  0
LAYER
  5
94
100
AcDbSymbolTableRecord
100
AcDbLayerTableRecord
  2
3213_5P
 70
        64
 62
        30
  6
CONTINUOUS
290
         1
370
        13
390
1D
  0
LAYER
  5
95
100
AcDbSymbolTableRecord
100
AcDbLayerTableRecord
  2
3213_5T
 70
        64
 62
        15
  6
CONTINUOUS
290
         1
370
        13
390
1D
  0
LAYER
  5
96
100
AcDbSymbolTableRecord
100
AcDbLayerTableRecord
  2
3213___ EINZELHEBEL DE MIT SCHLOSS GRUPPENPFADE
 70
        64
 62
         6
  6
DASHDOT
290
         1
370
         0
390
1D
  0
LAYER
  5
97
100
AcDbSymbolTableRecord
100
AcDbLayerTableRecord
  2
3214_1R
 70
        64
 62
        14
  6
CONTINUOUS
290
         1
370
        13
390
1D
  0
LAYER
  5
98
100
AcDbSymbolTableRecord
100
AcDbLayerTableRecord
  2
3214_3P
 70
        64
 62
        30
  6
CONTINUOUS
290
         1
370
        13
390
1D
  0
LAYER
  5
99
100
AcDbSymbolTableRecord
100
AcDbLayerTableRecord
  2
3214_1L
 70
        64
 62
        30
  6
CONTINUOUS
290
         1
370
        13
390
1D
  0
LAYER
  5
9A
100
AcDbSymbolTableRecord
100
AcDbLayerTableRecord
  2
3214_4P
 70
        64
 62
        30
  6
CONTINUOUS
290
         1
370
        13
390
1D
  0
LAYER
  5
9B
100
AcDbSymbolTableRecord
100
AcDbLayerTableRecord
  2
3214_2L
 70
        64
 62
        30
  6
CONTINUOUS
290
         1
370
        13
390
1D
  0
LAYER
  5
9C
100
AcDbSymbolTableRecord
100
AcDbLayerTableRecord
  2
3214_2R
 70
        64
 62
        14
  6
CONTINUOUS
290
         1
370
        13
390
1D
  0
LAYER
  5
9D
100
AcDbSymbolTableRecord
100
AcDbLayerTableRecord
  2
3214_5P
 70
        64
 62
        30
  6
CONTINUOUS
290
         1
370
        13
390
1D
  0
LAYER
  5
9E
100
AcDbSymbolTableRecord
100
AcDbLayerTableRecord
  2
3214_5T
 70
        64
 62
        15
  6
CONTINUOUS
290
         1
370
        13
390
1D
  0
LAYER
  5
9F
100
AcDbSymbolTableRecord
100
AcDbLayerTableRecord
  2
3214___ DOPPELHEBEL DE MIT SCHLOSS GRUPPENPFADE
 70
        64
 62
         6
  6
DASHDOT
290
         1
370
         0
390
1D
  0
LAYER
  5
A0
100
AcDbSymbolTableRecord
100
AcDbLayerTableRecord
  2
PFADE
 70
        64
 62
        30
  6
CONTINUOUS
290
         1
370
         0
390
1D
  0
LAYER
  5
A1
100
AcDbSymbolTableRecord
100
AcDbLayerTableRecord
  2
3201_8 HEBELSCHILDCHEN UMGELEGT
 70
        64
 62
        16
  6
DASHED
290
         1
370
        18
390
1D
  0
LAYER
  5
A2
100
AcDbSymbolTableRecord
100
AcDbLayerTableRecord
  2
3201_8 HEBELSCHILDCHEN
 70
        64
 62
        16
  6
CONTINUOUS
290
         1
370
        18
390
1D
  0
LAYER
  5
A3
100
AcDbSymbolTableRecord
100
AcDbLayerTableRecord
  2
3201_1-3HEBELBOCK
 70
        64
 62
         7
  6
CONTINUOUS
290
         1
370
        18
390
1D
  0
LAYER
  5
A4
100
AcDbSymbolTableRecord
100
AcDbLayerTableRecord
  2
3201_4 HEBELEISEN UMGELEGT
 70
        64
 62
         5
  6
DASHED
290
         1
370
        18
390
1D
  0
LAYER
  5
A5
100
AcDbSymbolTableRecord
100
AcDbLayerTableRecord
  2
3201_4 HEBELEISEN
 70
        64
 62
         5
  6
CONTINUOUS
290
         1
370
        18
390
1D
  0
LAYER
  5
A6
100
AcDbSymbolTableRecord
100
AcDbLayerTableRecord
  2
3201_9 HEBELROLLE UMGELEGT
 70
        64
 62
       134
  6
DASHED
290
         1
370
        18
390
1D
  0
LAYER
  5
A7
100
AcDbSymbolTableRecord
100
AcDbLayerTableRecord
  2
3201_9 HEBELROLLE
 70
        64
 62
       134
  6
CONTINUOUS
290
         1
370
        18
390
1D
  0
LAYER
  5
A8
100
AcDbSymbolTableRecord
100
AcDbLayerTableRecord
  2
3201_11_ 3202_11 WINKELHEBEL UMGELEGT
 70
        64
 62
       190
  6
DASHED
290
         1
370
        18
390
1D
  0
LAYER
  5
A9
100
AcDbSymbolTableRecord
100
AcDbLayerTableRecord
  2
3201_11_ 3202_11 WINKELHEBEL
 70
        64
 62
       190
  6
CONTINUOUS
290
         1
370
        18
390
1D
  0
LAYER
  5
AA
100
AcDbSymbolTableRecord
100
AcDbLayerTableRecord
  2
3201_6 HANDFALLE ANGEZOGEN
 70
        64
 62
        30
  6
HIDDEN
290
         1
370
        18
390
1D
  0
LAYER
  5
AB
100
AcDbSymbolTableRecord
100
AcDbLayerTableRecord
  2
3201_6 HANDFALLE UMGELEGT
 70
        64
 62
        30
  6
DASHED
290
         1
370
        18
390
1D
  0
LAYER
  5
AC
100
AcDbSymbolTableRecord
100
AcDbLayerTableRecord
  2
3201_6 HANDFALLE
 70
        64
 62
        30
  6
CONTINUOUS
290
         1
370
        18
390
1D
  0
LAYER
  5
AD
100
AcDbSymbolTableRecord
100
AcDbLayerTableRecord
  2
3201_7 HEBELKLINKE UMGELEGT
 70
        64
 62
       171
  6
DASHED
290
         1
370
        18
390
1D
  0
LAYER
  5
AE
100
AcDbSymbolTableRecord
100
AcDbLayerTableRecord
  2
3201_7 HEBELKLINKE
 70
        64
 62
       171
  6
CONTINUOUS
290
         1
370
        18
390
1D
  0
LAYER
  5
AF
100
AcDbSymbolTableRecord
100
AcDbLayerTableRecord
  2
3201_10 SEILZUG
 70
        64
 62
        94
  6
DASHDOT
290
         1
370
        18
390
1D
  0
LAYER
  5
B0
100
AcDbSymbolTableRecord
100
AcDbLayerTableRecord
  2
3201_21 WINKELHEBEL MIT VERRIEGELUNG UMGELEGT
 70
        64
 62
       190
  6
DASHED
290
         1
370
        18
390
1D
  0
LAYER
  5
B1
100
AcDbSymbolTableRecord
100
AcDbLayerTableRecord
  2
3203_11_ 3204_11 WINKELHEBEL MIT VERRIEGELUNG
 70
        64
 62
       190
  6
CONTINUOUS
290
         1
370
        18
390
1D
  0
LAYER
  5
B2
100
AcDbSymbolTableRecord
100
AcDbLayerTableRecord
  2
3203_12+13 SCHLOSSRIEGELPLATTE AUFGESPERRT
 70
        64
 62
       172
  6
DASHED
290
         1
370
        18
390
1D
  0
LAYER
  5
B3
100
AcDbSymbolTableRecord
100
AcDbLayerTableRecord
  2
3203_12+13 SCHLOSSRIEGELPLATTE
 70
        64
 62
       172
  6
CONTINUOUS
290
         1
370
        18
390
1D
  0
LAYER
  5
B4
100
AcDbSymbolTableRecord
100
AcDbLayerTableRecord
  2
3201__-3204__ HEBEL DE
 70
        64
 62
         7
  6
CONTINUOUS
290
         1
370
         0
390
1D
  0
LAYER
  5
B5
100
AcDbSymbolTableRecord
100
AcDbLayerTableRecord
  2
 2001_2 BODEN
 70
        64
 62
        14
  6
CONTINUOUS
290
         1
370
        18
390
1D
  0
LAYER
  5
B6
100
AcDbSymbolTableRecord
100
AcDbLayerTableRecord
  2
 2001_1 RAHMEN
 70
        64
 62
         7
  6
CONTINUOUS
290
         1
370
        18
390
1D
  0
LAYER
  5
B7
100
AcDbSymbolTableRecord
100
AcDbLayerTableRecord
  2
2001__ GEBÄUDE
 70
        64
 62
         7
  6
CONTINUOUS
290
         1
370
         0
390
1D
  0
LAYER
  5
B8
100
AcDbSymbolTableRecord
100
AcDbLayerTableRecord
  2
2101__ HEBELBANK
 70
        64
 62
         9
  6
CONTINUOUS
290
         1
370
        18
390
1D
  0
LAYER
  5
B9
100
AcDbSymbolTableRecord
100
AcDbLayerTableRecord
  2
2201_1 HEBELBOCK
 70
        64
 62
         7
  6
CONTINUOUS
290
         1
370
        13
390
1D
  0
LAYER
  5
BA
100
AcDbSymbolTableRecord
100
AcDbLayerTableRecord
  2
2201_2___4_7 HEBEL
 70
        64
 62
        34
  6
CONTINUOUS
290
         1
370
        13
390
1D
  0
LAYER
  5
BB
100
AcDbSymbolTableRecord
100
AcDbLayerTableRecord
  2
2201_6 RASTENGEWICHT
 70
        64
 62
       135
  6
CONTINUOUS
290
         1
370
        13
390
1D
  0
LAYER
  5
BC
100
AcDbSymbolTableRecord
100
AcDbLayerTableRecord
  2
2201_5 RASTE
 70
        64
 62
       114
  6
CONTINUOUS
290
         1
370
        13
390
1D
  0
LAYER
  5
BD
100
AcDbSymbolTableRecord
100
AcDbLayerTableRecord
  2
2201__ SIGNALHEBELBOCK
 70
        64
 62
         7
  6
CONTINUOUS
290
         1
370
         0
390
1D
  0
LAYER
  5
BE
100
AcDbSymbolTableRecord
100
AcDbLayerTableRecord
  2
3601_1 UNTERZUGRAHMEN
 70
        64
 62
         7
  6
CONTINUOUS
290
         1
370
         0
390
1D
  0
LAYER
  5
BF
100
AcDbSymbolTableRecord
100
AcDbLayerTableRecord
  2
3601_2-4 ROLLEN UMGELEGT
 70
        64
 62
       134
  6
DASHED
290
         1
370
        18
390
1D
  0
LAYER
  5
C0
100
AcDbSymbolTableRecord
100
AcDbLayerTableRecord
  2
3601_2-4 ROLLEN
 70
        64
 62
       134
  6
CONTINUOUS
290
         1
370
        18
390
1D
  0
LAYER
  5
C1
100
AcDbSymbolTableRecord
100
AcDbLayerTableRecord
  2
3601_5 ABTRIEB UMGELEGT
 70
        64
 62
       142
  6
DASHED
290
         1
370
        18
390
1D
  0
LAYER
  5
C2
100
AcDbSymbolTableRecord
100
AcDbLayerTableRecord
  2
3601_5 ABTRIEB
 70
        64
 62
       142
  6
CONTINUOUS
290
         1
370
        18
390
1D
  0
LAYER
  5
C3
100
AcDbSymbolTableRecord
100
AcDbLayerTableRecord
  2
3601_6 SCHALTER LINKS_OBEN
 70
        64
 62
       230
  6
DASHED
290
         1
370
        18
390
1D
  0
LAYER
  5
C4
100
AcDbSymbolTableRecord
100
AcDbLayerTableRecord
  2
3601_6 SCHALTER
 70
        64
 62
       230
  6
CONTINUOUS
290
         1
370
        18
390
1D
  0
LAYER
  5
C5
100
AcDbSymbolTableRecord
100
AcDbLayerTableRecord
  2
3601__ UNTERZUG
 70
        64
 62
         9
  6
CONTINUOUS
290
         1
370
        18
390
1D
  0
LAYER
  5
C6
100
AcDbSymbolTableRecord
100
AcDbLayerTableRecord
  2
2052_3 RIEGEL UMGESPERRT
 70
        64
 62
       230
  6
DASHED
290
         1
370
        18
390
1D
  0
LAYER
  5
C7
100
AcDbSymbolTableRecord
100
AcDbLayerTableRecord
  2
2052_3 RIEGEL
 70
        64
 62
       230
  6
CONTINUOUS
290
         1
370
        18
390
1D
  0
LAYER
  5
C8
100
AcDbSymbolTableRecord
100
AcDbLayerTableRecord
  2
2052_4 ZUHALTUNG ANGEHOBEN
 70
        64
 62
        94
  6
DASHED
290
         1
370
        18
390
1D
  0
LAYER
  5
C9
100
AcDbSymbolTableRecord
100
AcDbLayerTableRecord
  2
2052_4 ZUHALTUNG
 70
        64
 62
        94
  6
CONTINUOUS
290
         1
370
        18
390
1D
  0
LAYER
  5
CA
100
AcDbSymbolTableRecord
100
AcDbLayerTableRecord
  2
2052_1_2_7_8 GEHÄUSE
 70
        64
 62
         7
  6
CONTINUOUS
290
         1
370
        18
390
1D
  0
LAYER
  5
CB
100
AcDbSymbolTableRecord
100
AcDbLayerTableRecord
  2
2052_5_6 BESATZUNG
 70
        64
 62
         8
  6
CONTINUOUS
290
         1
370
        18
390
1D
  0
LAYER
  5
CC
100
AcDbSymbolTableRecord
100
AcDbLayerTableRecord
  2
2052__ SCHLOSS MIT DORN
 70
        64
 62
         7
  6
CONTINUOUS
290
         1
370
         0
390
1D
  0
LAYER
  5
CD
100
AcDbSymbolTableRecord
100
AcDbLayerTableRecord
  2
2053_5 SCHILD
 70
        64
 62
        54
  6
CONTINUOUS
290
         1
370
        18
390
1D
  0
LAYER
  5
CE
100
AcDbSymbolTableRecord
100
AcDbLayerTableRecord
  2
2053_1-4 SCHLÜSSEL
 70
        64
 62
       190
  6
CONTINUOUS
290
         1
370
        18
390
1D
  0
LAYER
  5
CF
100
AcDbSymbolTableRecord
100
AcDbLayerTableRecord
  2
2053__ SCHLÜSSEL
 70
        64
 62
         7
  6
CONTINUOUS
290
         1
370
         0
390
1D
  0
LAYER
  5
D0
100
AcDbSymbolTableRecord
100
AcDbLayerTableRecord
  2
KONSTRUKTION
 70
        64
 62
         7
  6
CONTINUOUS
290
         1
370
         0
390
1D
  0
LAYER
  5
D1
100
AcDbSymbolTableRecord
100
AcDbLayerTableRecord
  2
_TEMP
 70
        64
 62
         7
  6
CONTINUOUS
290
         1
370
        50
390
1D
  0
LAYER
  5
D2
100
AcDbSymbolTableRecord
100
AcDbLayerTableRecord
  2
STANDARD
 70
        64
 62
         7
  6
CONTINUOUS
290
         1
370
         0
390
1D
  0
ENDTAB
  0
TABLE
  2
STYLE
  5
3
100
AcDbSymbolTable
 70
         7
  0
STYLE
  5
17
100
AcDbSymbolTableRecord
100
AcDbTextStyleTableRecord
  2
Standard
 70
         0
 40
0.0
 41
1.0
 50
0.0
 71
         0
 42
0.0
  3
txt
  4

  0
STYLE
  5
2D
100
AcDbSymbolTableRecord
100
AcDbTextStyleTableRecord
  2
CADdy
 70
         0
 40
0.0
 41
1.0
 50
0.0
 71
         0
 42
3.5
  3
txt.shx
  4

  0
STYLE
  5
2E
100
AcDbSymbolTableRecord
100
AcDbTextStyleTableRecord
  2
Arial
 70
         0
 40
0.0
 41
1.0
 50
0.0
 71
         0
 42
3.5
  3
arial.ttf
  4

1001
ACAD
1000
Arial
1071
       34
  0
STYLE
  5
2F
100
AcDbSymbolTableRecord
100
AcDbTextStyleTableRecord
  2
Isonorm
 70
         0
 40
0.0
 41
1.0
 50
0.0
 71
         0
 42
3.5
  3
txt.shx
  4

  0
STYLE
  5
30
100
AcDbSymbolTableRecord
100
AcDbTextStyleTableRecord
  2
Tahoma
 70
         0
 40
0.0
 41
1.0
 50
0.0
 71
         0
 42
3.5
  3
tahoma.ttf
  4

1001
ACAD
1000
Tahoma
1071
       34
  0
STYLE
  5
31
100
AcDbSymbolTableRecord
100
AcDbTextStyleTableRecord
  2
Microsoft Sans Serif
 70
         0
 40
0.0
 41
1.0
 50
0.0
 71
         0
 42
3.5
  3
micross.ttf
  4

1001
ACAD
1000
Microsoft Sans Serif
1071
       34
  0
STYLE
  5
32
100
AcDbSymbolTableRecord
100
AcDbTextStyleTableRecord
  2
Arial Rounded MT Bold
 70
         0
 40
0.0
 41
1.0
 50
0.0
 71
         0
 42
3.5
  3
txt.shx
  4

  0
ENDTAB
  0
TABLE
  2
VIEW
  5
5
100
AcDbSymbolTable
 70
         0
  0
ENDTAB
  0
TABLE
  2
UCS
  5
6
100
AcDbSymbolTable
 70
         0
  0
ENDTAB
  0
TABLE
  2
APPID
  5
8
100
AcDbSymbolTable
 70
         1
  0
APPID
  5
16
100
AcDbSymbolTableRecord
100
AcDbRegAppTableRecord
  2
ACAD
 70
        64
  0
ENDTAB
  0
TABLE
  2
DIMSTYLE
  5
9
100
AcDbSymbolTable
 70
         1
100
AcDbDimStyleTable
 71
         0
  0
DIMSTYLE
105
18
100
AcDbSymbolTableRecord
100
AcDbDimStyleTableRecord
  2
Standard
 70
         0
  3

  4

 40
1.0
 41
0.18
 42
0.0625
 43
0.38
 44
0.18
 45
0.0
 46
0.0
 47
0.0
 48
0.0
 71
         0
 72
         0
 73
         1
 74
         1
 75
         0
 76
         0
 77
         0
 78
         0
 79
         0
140
0.18
141
0.09
142
0.0
143
25.4
144
1.0
145
0.0
146
1.0
147
0.09
148
0.0
170
         0
171
         2
172
         0
173
         0
174
         0
175
         0
176
         0
177
         0
178
         0
179
         0
271
         4
272
         4
273
         2
274
         2
275
         0
276
         0
277
         2
278
        46
279
         0
280
         0
281
         0
282
         0
283
         1
284
         0
285
         0
286
         0
288
         0
289
         3
340
17
341
0
342
0
343
0
344
0
371
        -2
372
        -2
  0
ENDTAB
  0
TABLE
  2
BLOCK_RECORD
  5
1
100
AcDbSymbolTable
 70
         9
  0
BLOCK_RECORD
  5
A
100
AcDbSymbolTableRecord
100
AcDbBlockTableRecord
  2
*MODEL_SPACE
340
20
  0
BLOCK_RECORD
  5
B
100
AcDbSymbolTableRecord
100
AcDbBlockTableRecord
  2
*PAPER_SPACE
340
21
  0
BLOCK_RECORD
  5
D3
100
AcDbSymbolTableRecord
100
AcDbBlockTableRecord
  2
D401977088
340
0
102
{BLKREFS
331
1BB
102
}
  0
BLOCK_RECORD
  5
DC
100
AcDbSymbolTableRecord
100
AcDbBlockTableRecord
  2
D401976832
340
0
102
{BLKREFS
331
1BC
102
}
  0
BLOCK_RECORD
  5
E5
100
AcDbSymbolTableRecord
100
AcDbBlockTableRecord
  2
D401976576
340
0
102
{BLKREFS
331
1C6
102
}
  0
BLOCK_RECORD
  5
EE
100
AcDbSymbolTableRecord
100
AcDbBlockTableRecord
  2
D401976320
340
0
102
{BLKREFS
331
1C7
102
}
  0
BLOCK_RECORD
  5
F7
100
AcDbSymbolTableRecord
100
AcDbBlockTableRecord
  2
D401976064
340
0
102
{BLKREFS
331
1C8
102
}
  0
BLOCK_RECORD
  5
100
100
AcDbSymbolTableRecord
100
AcDbBlockTableRecord
  2
D401975808
340
0
102
{BLKREFS
331
1C9
102
}
  0
BLOCK_RECORD
  5
109
100
AcDbSymbolTableRecord
100
AcDbBlockTableRecord
  2
D554778368
340
0
102
{BLKREFS
331
1E4
102
}
  0
BLOCK_RECORD
  5
112
100
AcDbSymbolTableRecord
100
AcDbBlockTableRecord
  2
D554764288
340
0
102
{BLKREFS
331
1E5
102
}
  0
BLOCK_RECORD
  5
11B
100
AcDbSymbolTableRecord
100
AcDbBlockTableRecord
  2
D554774784
340
0
102
{BLKREFS
331
1E6
102
}
  0
ENDTAB
  0
ENDSEC
  0
SECTION
  2
BLOCKS
  0
BLOCK
  5
D
100
AcDbEntity
  8
0
390
0
100
AcDbBlockBegin
  2
*MODEL_SPACE
 70
         0
 10
0.0
 20
0.0
 30
0.0
  3
*MODEL_SPACE
  1

  0
ENDBLK
  5
E
100
AcDbEntity
  8
0
390
0
100
AcDbBlockEnd
  0
BLOCK
  5
F
100
AcDbEntity
 67
         1
  8
0
390
0
100
AcDbBlockBegin
  2
*PAPER_SPACE
 70
         0
 10
0.0
 20
0.0
 30
0.0
  3
*PAPER_SPACE
  1

  0
ENDBLK
  5
10
100
AcDbEntity
 67
         1
  8
0
390
0
100
AcDbBlockEnd
  0
BLOCK
  5
D4
100
AcDbEntity
  8
BEMASSUNG
390
0
100
AcDbBlockBegin
  2
D401977088
 70
         0
 10
0.0
 20
0.0
 30
0.0
  3
D401977088
  1

  0
LINE
  5
D5
100
AcDbEntity
  8
MASSLINIEN
390
0
 62
       172
100
AcDbLine
 10
60.1308918543
 20
162.2200942085
 30
0.0
 11
110.1308918543
 21
162.2200942087
 31
0.0
  0
LINE
  5
D6
100
AcDbEntity
  8
MASSLINIEN
390
0
 62
       172
100
AcDbLine
 10
60.130891854
 20
266.0444241573
 30
0.0
 11
60.1308918543
 21
160.2200942085
 31
0.0
  0
LINE
  5
D7
100
AcDbEntity
  8
MASSLINIEN
390
0
 62
       172
100
AcDbLine
 10
110.130891854
 20
265.6231179775
 30
0.0
 11
110.1308918543
 21
160.2200942087
 31
0.0
  0
SOLID
  5
D8
100
AcDbEntity
  8
MASSGRENZEN
390
0
100
AcDbTrace
 10
60.1308918543
 20
162.2200942085
 30
0.0
 11
63.1052264385
 21
162.6116727852
 31
0.0
 12
63.1052264385
 22
161.8285156318
 32
0.0
 13
63.1052264385
 23
161.8285156318
 33
0.0
  0
SOLID
  5
D9
100
AcDbEntity
  8
MASSGRENZEN
390
0
100
AcDbTrace
 10
110.1308918543
 20
162.2200942087
 30
0.0
 11
107.1565572702
 21
161.828515632
 31
0.0
 12
107.1565572702
 22
162.6116727853
 32
0.0
 13
107.1565572702
 23
162.6116727853
 33
0.0
  0
MTEXT
  5
DA
100
AcDbEntity
  8
MASSTEXTE
390
0
 62
       212
100
AcDbMText
 10
85.1308918543
 20
164.6760942086
 30
0.0
 40
2.0
 41
0.0
 71
         5
 72
         1
  1
\W1.135145;\A1;50
  7
Arial
 11
1.0
 21
0.0
 31
0.0
 73
         0
 44
0.0
  0
ENDBLK
  5
DB
100
AcDbEntity
  8
0
390
0
100
AcDbBlockEnd
  0
BLOCK
  5
DD
100
AcDbEntity
  8
BEMASSUNG
390
0
100
AcDbBlockBegin
  2
D401976832
 70
         0
 10
0.0
 20
0.0
 30
0.0
  3
D401976832
  1

  0
LINE
  5
DE
100
AcDbEntity
  8
MASSLINIEN
390
0
 62
       172
100
AcDbLine
 10
60.1308918546
 20
69.3445120984
 30
0.0
 11
100.1298307756
 21
69.3445120986
 31
0.0
  0
LINE
  5
DF
100
AcDbEntity
  8
MASSLINIEN
390
0
 62
       172
100
AcDbLine
 10
60.130891854
 20
266.0444241573
 30
0.0
 11
60.1308918546
 21
67.3445120984
 31
0.0
  0
LINE
  5
E0
100
AcDbEntity
  8
MASSLINIEN
390
0
 62
       172
100
AcDbLine
 10
100.1298307758
 20
149.5793258402
 30
0.0
 11
100.1298307756
 21
67.3445120986
 31
0.0
  0
SOLID
  5
E1
100
AcDbEntity
  8
MASSGRENZEN
390
0
100
AcDbTrace
 10
60.1308918546
 20
69.3445120984
 30
0.0
 11
63.1052264388
 21
69.7360906751
 31
0.0
 12
63.1052264388
 22
68.9529335218
 32
0.0
 13
63.1052264388
 23
68.9529335218
 33
0.0
  0
SOLID
  5
E2
100
AcDbEntity
  8
MASSGRENZEN
390
0
100
AcDbTrace
 10
100.1298307756
 20
69.3445120986
 30
0.0
 11
97.1554961915
 21
68.9529335219
 31
0.0
 12
97.1554961915
 22
69.7360906752
 32
0.0
 13
97.1554961915
 23
69.7360906752
 33
0.0
  0
MTEXT
  5
E3
100
AcDbEntity
  8
MASSTEXTE
390
0
 62
       212
100
AcDbMText
 10
80.1303613151
 20
71.8005120985
 30
0.0
 40
2.0
 41
0.0
 71
         5
 72
         1
  1
\W1.135145;\A1;40
  7
Arial
 11
1.0
 21
0.0
 31
0.0
 73
         0
 44
0.0
  0
ENDBLK
  5
E4
100
AcDbEntity
  8
0
390
0
100
AcDbBlockEnd
  0
BLOCK
  5
E6
100
AcDbEntity
  8
BEMASSUNG
390
0
100
AcDbBlockBegin
  2
D401976576
 70
         0
 10
0.0
 20
0.0
 30
0.0
  3
D401976576
  1

  0
LINE
  5
E7
100
AcDbEntity
  8
MASSLINIEN
390
0
 62
       172
100
AcDbLine
 10
38.1445673191
 20
261.2779864832
 30
0.0
 11
38.1445673191
 21
226.2779864832
 31
0.0
  0
LINE
  5
E8
100
AcDbEntity
  8
MASSLINIEN
390
0
 62
       172
100
AcDbLine
 10
60.1308918538
 20
261.2779864832
 30
0.0
 11
36.1445673191
 21
261.2779864832
 31
0.0
  0
LINE
  5
E9
100
AcDbEntity
  8
MASSLINIEN
390
0
 62
       172
100
AcDbLine
 10
60.1308918538
 20
226.2779864832
 30
0.0
 11
36.1445673191
 21
226.2779864832
 31
0.0
  0
SOLID
  5
EA
100
AcDbEntity
  8
MASSGRENZEN
390
0
100
AcDbTrace
 10
38.1445673191
 20
261.2779864832
 30
0.0
 11
38.5361458957
 21
258.3036518991
 31
0.0
 12
37.7529887424
 22
258.3036518991
 32
0.0
 13
37.7529887424
 23
258.3036518991
 33
0.0
  0
SOLID
  5
EB
100
AcDbEntity
  8
MASSGRENZEN
390
0
100
AcDbTrace
 10
38.1445673191
 20
226.2779864832
 30
0.0
 11
37.7529887424
 21
229.2523210673
 31
0.0
 12
38.5361458957
 22
229.2523210673
 32
0.0
 13
38.5361458957
 23
229.2523210673
 33
0.0
  0
MTEXT
  5
EC
100
AcDbEntity
  8
MASSTEXTE
390
0
 62
       212
100
AcDbMText
 10
35.6885673191
 20
243.7779864832
 30
0.0
 40
2.0
 41
0.0
 71
         5
 72
         1
  1
\W1.135145;\A1;35
  7
Arial
 11
0.0
 21
1.0
 31
0.0
 73
         0
 44
0.0
  0
ENDBLK
  5
ED
100
AcDbEntity
  8
0
390
0
100
AcDbBlockEnd
  0
BLOCK
  5
EF
100
AcDbEntity
  8
BEMASSUNG
390
0
100
AcDbBlockBegin
  2
D401976320
 70
         0
 10
0.0
 20
0.0
 30
0.0
  3
D401976320
  1

  0
LINE
  5
F0
100
AcDbEntity
  8
MASSLINIEN
390
0
 62
       172
100
AcDbLine
 10
38.1445673191
 20
203.8603314763
 30
0.0
 11
38.1445673191
 21
168.8603314763
 31
0.0
  0
LINE
  5
F1
100
AcDbEntity
  8
MASSLINIEN
390
0
 62
       172
100
AcDbLine
 10
60.1308918538
 20
203.8603314763
 30
0.0
 11
36.1445673191
 21
203.8603314763
 31
0.0
  0
LINE
  5
F2
100
AcDbEntity
  8
MASSLINIEN
390
0
 62
       172
100
AcDbLine
 10
60.1308918538
 20
168.8603314763
 30
0.0
 11
36.1445673191
 21
168.8603314763
 31
0.0
  0
SOLID
  5
F3
100
AcDbEntity
  8
MASSGRENZEN
390
0
100
AcDbTrace
 10
38.1445673191
 20
203.8603314763
 30
0.0
 11
38.5361458957
 21
200.8859968922
 31
0.0
 12
37.7529887424
 22
200.8859968922
 32
0.0
 13
37.7529887424
 23
200.8859968922
 33
0.0
  0
SOLID
  5
F4
100
AcDbEntity
  8
MASSGRENZEN
390
0
100
AcDbTrace
 10
38.1445673191
 20
168.8603314763
 30
0.0
 11
37.7529887424
 21
171.8346660604
 31
0.0
 12
38.5361458957
 22
171.8346660604
 32
0.0
 13
38.5361458957
 23
171.8346660604
 33
0.0
  0
MTEXT
  5
F5
100
AcDbEntity
  8
MASSTEXTE
390
0
 62
       212
100
AcDbMText
 10
35.6885673191
 20
186.3603314763
 30
0.0
 40
2.0
 41
0.0
 71
         5
 72
         1
  1
\W1.135145;\A1;35
  7
Arial
 11
0.0
 21
1.0
 31
0.0
 73
         0
 44
0.0
  0
ENDBLK
  5
F6
100
AcDbEntity
  8
0
390
0
100
AcDbBlockEnd
  0
BLOCK
  5
F8
100
AcDbEntity
  8
BEMASSUNG
390
0
100
AcDbBlockBegin
  2
D401976064
 70
         0
 10
0.0
 20
0.0
 30
0.0
  3
D401976064
  1

  0
LINE
  5
F9
100
AcDbEntity
  8
MASSLINIEN
390
0
 62
       172
100
AcDbLine
 10
38.1445673191
 20
144.5538896906
 30
0.0
 11
38.1445673191
 21
123.5564606742
 31
0.0
  0
LINE
  5
FA
100
AcDbEntity
  8
MASSLINIEN
390
0
 62
       172
100
AcDbLine
 10
60.1308918538
 20
144.5538896906
 30
0.0
 11
36.1445673191
 21
144.5538896906
 31
0.0
  0
LINE
  5
FB
100
AcDbEntity
  8
MASSLINIEN
390
0
 62
       172
100
AcDbLine
 10
60.1308918538
 20
123.5564606742
 30
0.0
 11
36.1445673191
 21
123.5564606742
 31
0.0
  0
SOLID
  5
FC
100
AcDbEntity
  8
MASSGRENZEN
390
0
100
AcDbTrace
 10
38.1445673191
 20
144.5538896906
 30
0.0
 11
38.5361458957
 21
141.5795551064
 31
0.0
 12
37.7529887424
 22
141.5795551064
 32
0.0
 13
37.7529887424
 23
141.5795551064
 33
0.0
  0
SOLID
  5
FD
100
AcDbEntity
  8
MASSGRENZEN
390
0
100
AcDbTrace
 10
38.1445673191
 20
123.5564606742
 30
0.0
 11
37.7529887424
 21
126.5307952583
 31
0.0
 12
38.5361458957
 22
126.5307952583
 32
0.0
 13
38.5361458957
 23
126.5307952583
 33
0.0
  0
MTEXT
  5
FE
100
AcDbEntity
  8
MASSTEXTE
390
0
 62
       212
100
AcDbMText
 10
35.6885673191
 20
134.0551751824
 30
0.0
 40
2.0
 41
0.0
 71
         5
 72
         1
  1
\W1.135145;\A1;21
  7
Arial
 11
0.0
 21
1.0
 31
0.0
 73
         0
 44
0.0
  0
ENDBLK
  5
FF
100
AcDbEntity
  8
0
390
0
100
AcDbBlockEnd
  0
BLOCK
  5
101
100
AcDbEntity
  8
BEMASSUNG
390
0
100
AcDbBlockBegin
  2
D401975808
 70
         0
 10
0.0
 20
0.0
 30
0.0
  3
D401975808
  1

  0
LINE
  5
102
100
AcDbEntity
  8
MASSLINIEN
390
0
 62
       172
100
AcDbLine
 10
38.0725322099
 20
104.5538896906
 30
0.0
 11
38.0725322099
 21
83.5564606742
 31
0.0
  0
LINE
  5
103
100
AcDbEntity
  8
MASSLINIEN
390
0
 62
       172
100
AcDbLine
 10
60.1308918538
 20
104.5538896906
 30
0.0
 11
36.0725322099
 21
104.5538896906
 31
0.0
  0
LINE
  5
104
100
AcDbEntity
  8
MASSLINIEN
390
0
 62
       172
100
AcDbLine
 10
60.1308918538
 20
83.5564606742
 30
0.0
 11
36.0725322099
 21
83.5564606742
 31
0.0
  0
SOLID
  5
105
100
AcDbEntity
  8
MASSGRENZEN
390
0
100
AcDbTrace
 10
38.0725322099
 20
104.5538896906
 30
0.0
 11
38.4641107865
 21
101.5795551064
 31
0.0
 12
37.6809536332
 22
101.5795551064
 32
0.0
 13
37.6809536332
 23
101.5795551064
 33
0.0
  0
SOLID
  5
106
100
AcDbEntity
  8
MASSGRENZEN
390
0
100
AcDbTrace
 10
38.0725322099
 20
83.5564606742
 30
0.0
 11
37.6809536332
 21
86.5307952583
 31
0.0
 12
38.4641107865
 22
86.5307952583
 32
0.0
 13
38.4641107865
 23
86.5307952583
 33
0.0
  0
MTEXT
  5
107
100
AcDbEntity
  8
MASSTEXTE
390
0
 62
       212
100
AcDbMText
 10
35.6165322099
 20
94.0551751824
 30
0.0
 40
2.0
 41
0.0
 71
         5
 72
         1
  1
\W1.135145;\A1;21
  7
Arial
 11
0.0
 21
1.0
 31
0.0
 73
         0
 44
0.0
  0
ENDBLK
  5
108
100
AcDbEntity
  8
0
390
0
100
AcDbBlockEnd
  0
BLOCK
  5
10A
100
AcDbEntity
  8
BEMASSUNG
390
0
100
AcDbBlockBegin
  2
D554778368
 70
         0
 10
0.0
 20
0.0
 30
0.0
  3
D554778368
  1

  0
LINE
  5
10B
100
AcDbEntity
  8
MASSLINIEN
390
0
 62
       172
100
AcDbLine
 10
124.3136800251
 20
262.8591317078
 30
0.0
 11
124.3136800251
 21
217.8591317082
 31
0.0
  0
LINE
  5
10C
100
AcDbEntity
  8
MASSLINIEN
390
0
 62
       172
100
AcDbLine
 10
140.2904143258
 20
262.8591317078
 30
0.0
 11
122.3136800251
 21
262.8591317078
 31
0.0
  0
LINE
  5
10D
100
AcDbEntity
  8
MASSLINIEN
390
0
 62
       172
100
AcDbLine
 10
140.2904143259
 20
217.8591317082
 30
0.0
 11
122.3136800251
 21
217.8591317082
 31
0.0
  0
SOLID
  5
10E
100
AcDbEntity
  8
MASSGRENZEN
390
0
100
AcDbTrace
 10
124.3136800251
 20
262.8591317078
 30
0.0
 11
124.7052586018
 21
259.8847971236
 31
0.0
 12
123.9221014485
 22
259.8847971236
 32
0.0
 13
123.9221014485
 23
259.8847971236
 33
0.0
  0
SOLID
  5
10F
100
AcDbEntity
  8
MASSGRENZEN
390
0
100
AcDbTrace
 10
124.3136800251
 20
217.8591317082
 30
0.0
 11
123.9221014485
 21
220.8334662924
 31
0.0
 12
124.7052586018
 22
220.8334662924
 32
0.0
 13
124.7052586018
 23
220.8334662924
 33
0.0
  0
MTEXT
  5
110
100
AcDbEntity
  8
MASSTEXTE
390
0
 62
       212
100
AcDbMText
 10
121.8576800251
 20
240.359131708
 30
0.0
 40
2.0
 41
0.0
 71
         5
 72
         1
  1
\W1.135145;\A1;45
  7
Arial
 11
0.0
 21
1.0
 31
0.0
 73
         0
 44
0.0
  0
ENDBLK
  5
111
100
AcDbEntity
  8
0
390
0
100
AcDbBlockEnd
  0
BLOCK
  5
113
100
AcDbEntity
  8
BEMASSUNG
390
0
100
AcDbBlockBegin
  2
D554764288
 70
         0
 10
0.0
 20
0.0
 30
0.0
  3
D554764288
  1

  0
LINE
  5
114
100
AcDbEntity
  8
MASSLINIEN
390
0
 62
       172
100
AcDbLine
 10
124.1083524347
 20
182.6258005618
 30
0.0
 11
124.1083524347
 21
137.6258005623
 31
0.0
  0
LINE
  5
115
100
AcDbEntity
  8
MASSLINIEN
390
0
 62
       172
100
AcDbLine
 10
140.2904143261
 20
182.6258005618
 30
0.0
 11
122.1083524347
 21
182.6258005618
 31
0.0
  0
LINE
  5
116
100
AcDbEntity
  8
MASSLINIEN
390
0
 62
       172
100
AcDbLine
 10
140.2904143262
 20
137.6258005623
 30
0.0
 11
122.1083524347
 21
137.6258005623
 31
0.0
  0
SOLID
  5
117
100
AcDbEntity
  8
MASSGRENZEN
390
0
100
AcDbTrace
 10
124.1083524347
 20
182.6258005618
 30
0.0
 11
124.4999310114
 21
179.6514659777
 31
0.0
 12
123.716773858
 22
179.6514659777
 32
0.0
 13
123.716773858
 23
179.6514659777
 33
0.0
  0
SOLID
  5
118
100
AcDbEntity
  8
MASSGRENZEN
390
0
100
AcDbTrace
 10
124.1083524347
 20
137.6258005623
 30
0.0
 11
123.716773858
 21
140.6001351464
 31
0.0
 12
124.4999310114
 22
140.6001351464
 32
0.0
 13
124.4999310114
 23
140.6001351464
 33
0.0
  0
MTEXT
  5
119
100
AcDbEntity
  8
MASSTEXTE
390
0
 62
       212
100
AcDbMText
 10
121.6523524347
 20
160.125800562
 30
0.0
 40
2.0
 41
0.0
 71
         5
 72
         1
  1
\W1.135145;\A1;45
  7
Arial
 11
0.0
 21
1.0
 31
0.0
 73
         0
 44
0.0
  0
ENDBLK
  5
11A
100
AcDbEntity
  8
0
390
0
100
AcDbBlockEnd
  0
BLOCK
  5
11C
100
AcDbEntity
  8
BEMASSUNG
390
0
100
AcDbBlockBegin
  2
D554774784
 70
         0
 10
0.0
 20
0.0
 30
0.0
  3
D554774784
  1

  0
LINE
  5
11D
100
AcDbEntity
  8
MASSLINIEN
390
0
 62
       172
100
AcDbLine
 10
140.2904143262
 20
125.7494662921
 30
0.0
 11
200.2904143262
 21
125.7494662921
 31
0.0
  0
LINE
  5
11E
100
AcDbEntity
  8
MASSLINIEN
390
0
 62
       172
100
AcDbLine
 10
140.2904143262
 20
268.6042142327
 30
0.0
 11
140.2904143262
 21
123.7494662921
 31
0.0
  0
LINE
  5
11F
100
AcDbEntity
  8
MASSLINIEN
390
0
 62
       172
100
AcDbLine
 10
200.2904143262
 20
268.6042142327
 30
0.0
 11
200.2904143262
 21
123.7494662921
 31
0.0
  0
SOLID
  5
120
100
AcDbEntity
  8
MASSGRENZEN
390
0
100
AcDbTrace
 10
140.2904143262
 20
125.7494662921
 30
0.0
 11
143.2647489104
 21
126.1410448688
 31
0.0
 12
143.2647489104
 22
125.3578877155
 32
0.0
 13
143.2647489104
 23
125.3578877155
 33
0.0
  0
SOLID
  5
121
100
AcDbEntity
  8
MASSGRENZEN
390
0
100
AcDbTrace
 10
200.2904143262
 20
125.7494662921
 30
0.0
 11
197.3160797421
 21
125.3578877155
 31
0.0
 12
197.3160797421
 22
126.1410448688
 32
0.0
 13
197.3160797421
 23
126.1410448688
 33
0.0
  0
MTEXT
  5
122
100
AcDbEntity
  8
MASSTEXTE
390
0
 62
       212
100
AcDbMText
 10
170.2904143262
 20
128.2054662921
 30
0.0
 40
2.0
 41
0.0
 71
         5
 72
         1
  1
\W1.135145;\A1;60
  7
Arial
 73
         0
 44
0.0
  0
ENDBLK
  5
123
100
AcDbEntity
  8
0
390
0
100
AcDbBlockEnd
  0
ENDSEC
  0
SECTION
  2
ENTITIES
  0
TEXT
  5
124
100
AcDbEntity
  8
BESCHRIFTUNG
390
0
100
AcDbText
 10
129.6929117117
 20
6.9230888889
 30
0.0
 40
3.3
  1
3203-3204 Pv Hebel DE mit Schloss
 41
0.9827985441
  7
Arial
 11
129.6929117117
 21
10.2230888889
 31
0.0
100
AcDbText
 73
         3
  0
TEXT
  5
125
100
AcDbEntity
  8
BESCHRIFTUNG
390
0
100
AcDbText
 10
129.6929117117
 20
29.3230888889
 30
0.0
 40
3.3
  1
2026-04-19
 41
1.0318366722
  7
Arial
 11
129.6929117117
 21
32.6230888889
 31
0.0
100
AcDbText
 73
         3
  0
TEXT
  5
126
100
AcDbEntity
  8
BESCHRIFTUNG
390
0
100
AcDbText
 10
61.0696325779
 20
271.4531750885
 30
0.0
 40
2.5
  1
3203.11
 41
1.1351394094
  7
Arial
 72
         1
 11
69.2493136165
 21
272.7031750885
 31
0.0
100
AcDbText
 73
         2
  0
MTEXT
  5
127
100
AcDbEntity
  8
3203_11P
390
0
100
AcDbMText
 10
51.4162391849
 20
258.2263430203
 30
0.0
 40
2.0
 41
0.0
 71
         7
 72
         1
  1
\W1.135098;M50+x2\PT2 O2 F150\PB-0.3    D1.6\PI1.2 P4 U20
  7
Arial
 73
         1
 44
0.66
  0
LINE
  5
128
100
AcDbEntity
  8
3203_11_ 3204_11 WINKELHEBEL MIT VERRIEGELUNG
390
0
100
AcDbLine
 10
61.2264773647
 20
194.3110252809
 30
0.0
 11
61.9918316855
 21
197.0436658111
 31
0.0
  0
LINE
  5
129
100
AcDbEntity
  8
3203_11_ 3204_11 WINKELHEBEL MIT VERRIEGELUNG
390
0
100
AcDbLine
 10
62.8548722319
 20
200.1250877256
 30
0.0
 11
73.5367906318
 21
197.1333102449
 31
0.0
  0
LINE
  5
12A
100
AcDbEntity
  8
3203_11_ 3204_11 WINKELHEBEL MIT VERRIEGELUNG
390
0
100
AcDbLine
 10
61.9918316855
 20
197.0436658111
 30
0.0
 11
72.6737500854
 21
194.0518883303
 31
0.0
  0
LINE
  5
12B
100
AcDbEntity
  8
3203_11_ 3204_11 WINKELHEBEL MIT VERRIEGELUNG
390
0
100
AcDbLine
 10
61.2264773647
 20
194.3110252809
 30
0.0
 11
75.1240061716
 21
190.4186239195
 31
0.0
  0
LINE
  5
12C
100
AcDbEntity
  8
3203_11_ 3204_11 WINKELHEBEL MIT VERRIEGELUNG
390
0
100
AcDbLine
 10
62.8548722319
 20
200.1250877256
 30
0.0
 11
63.6209556591
 21
202.8603314763
 31
0.0
  0
LINE
  5
12D
100
AcDbEntity
  8
3203_11_ 3204_11 WINKELHEBEL MIT VERRIEGELUNG
390
0
100
AcDbLine
 10
63.6209556591
 20
202.8603314763
 30
0.0
 11
106.3367124512
 21
200.1203864566
 31
0.0
  0
LINE
  5
12E
100
AcDbEntity
  8
3203_11_ 3204_11 WINKELHEBEL MIT VERRIEGELUNG
390
0
100
AcDbLine
 10
90.2016207603
 20
173.4468382618
 30
0.0
 11
95.764346863
 21
189.5511242109
 31
0.0
  0
LINE
  5
12F
100
AcDbEntity
  8
3203_11_ 3204_11 WINKELHEBEL MIT VERRIEGELUNG
390
0
100
AcDbLine
 10
106.8397979866
 20
192.2012861096
 30
0.0
 11
96.5197639476
 21
190.2064599516
 31
0.0
  0
LINE
  5
130
100
AcDbEntity
  8
3203_11_ 3204_11 WINKELHEBEL MIT VERRIEGELUNG
390
0
100
AcDbLine
 10
75.8033867357
 20
189.7707125199
 30
0.0
 11
81.2037845221
 21
173.5012603206
 31
0.0
  0
CIRCLE
  5
131
100
AcDbEntity
  8
3204_11P
390
0
100
AcDbCircle
 10
85.7119180126
 20
174.9976668268
 30
0.0
 40
1.25
  0
ARC
  5
132
100
AcDbEntity
  8
3203_11_ 3204_11 WINKELHEBEL MIT VERRIEGELUNG
390
0
100
AcDbCircle
 10
85.7119180126
 20
174.9976668268
 30
0.0
 40
4.75
100
AcDbArc
 50
198.3628028858
 51
340.944115761
  0
ARC
  5
133
100
AcDbEntity
  8
3203_11_ 3204_11 WINKELHEBEL MIT VERRIEGELUNG
390
0
100
AcDbCircle
 10
74.8543060009
 20
189.4556795712
 30
0.0
 40
1.0
100
AcDbArc
 50
18.3628028858
 51
74.3535739512
  0
ARC
  5
134
100
AcDbEntity
  8
3203_11_ 3204_11 WINKELHEBEL MIT VERRIEGELUNG
390
0
100
AcDbCircle
 10
96.7095474415
 20
189.2246339867
 30
0.0
 40
1.0
100
AcDbArc
 50
100.9401494254
 51
160.944115761
  0
CIRCLE
  5
135
100
AcDbEntity
  8
3204_11P
390
0
100
AcDbCircle
 10
106.0806640109
 20
196.1285899693
 30
0.0
 40
1.25
  0
ARC
  5
136
100
AcDbEntity
  8
3203_11_ 3204_11 WINKELHEBEL MIT VERRIEGELUNG
390
0
100
AcDbCircle
 10
106.0806640109
 20
196.1285899693
 30
0.0
 40
4.0
100
AcDbArc
 50
280.9401494254
 51
446.3298669125
  0
ARC
  5
137
100
AcDbEntity
  8
3203_11_ 3204_11 WINKELHEBEL MIT VERRIEGELUNG
390
0
100
AcDbCircle
 10
73.1052703586
 20
195.5925992876
 30
0.0
 40
1.6
100
AcDbArc
 50
254.3535739512
 51
434.3535739512
  0
CIRCLE
  5
138
100
AcDbEntity
  8
3204_11P
390
0
100
AcDbCircle
 10
84.4776302707
 20
191.9527997896
 30
0.0
 40
1.25
  0
LINE
  5
139
100
AcDbEntity
  8
MITTELLINIEN
390
0
100
AcDbLine
 10
60.130891854
 20
271.0444241573
 30
0.0
 11
60.1308918547
 21
63.2432584269
 31
0.0
  0
LINE
  5
13A
100
AcDbEntity
  8
MITTELLINIEN
390
0
100
AcDbLine
 10
110.130891854
 20
270.6231179775
 30
0.0
 11
110.1308918544
 21
155.4946323825
 31
0.0
  0
ARC
  5
13B
100
AcDbEntity
  8
3201___ EINZELHEBEL DE
390
0
100
AcDbCircle
 10
72.0033033238
 20
243.7779864832
 30
0.0
 40
21.1472020398
100
AcDbArc
 50
124.153891203
 51
235.846108797
  0
ARC
  5
13C
100
AcDbEntity
  8
3203_11_ 3204_11 WINKELHEBEL MIT VERRIEGELUNG
390
0
100
AcDbCircle
 10
73.1052703584
 20
253.0102542945
 30
0.0
 40
1.6
100
AcDbArc
 50
254.3535739512
 51
434.3535739512
  0
CIRCLE
  5
13D
100
AcDbEntity
  8
3203_11P
390
0
100
AcDbCircle
 10
106.0806640107
 20
253.5462449762
 30
0.0
 40
1.25
  0
CIRCLE
  5
13E
100
AcDbEntity
  8
3203_11P
390
0
  6
PHANTOM
100
AcDbCircle
 10
60.1308918538
 20
261.2779864832
 30
0.0
 40
0.5
  0
CIRCLE
  5
13F
100
AcDbEntity
  8
3203_11P
390
0
  6
PHANTOM
100
AcDbCircle
 10
60.1308918538
 20
226.2779864832
 30
0.0
 40
1.0
  0
LINE
  5
140
100
AcDbEntity
  8
3203_11_ 3204_11 WINKELHEBEL MIT VERRIEGELUNG
390
0
100
AcDbLine
 10
62.8548722317
 20
257.5427427325
 30
0.0
 11
63.6209556589
 21
260.2779864832
 31
0.0
  0
LINE
  5
141
100
AcDbEntity
  8
3203_11_ 3204_11 WINKELHEBEL MIT VERRIEGELUNG
390
0
100
AcDbLine
 10
76.5719591371
 20
246.9731067921
 30
0.0
 11
81.9537241453
 21
230.7597884381
 31
0.0
  0
LINE
  5
142
100
AcDbEntity
  8
3203_11_ 3204_11 WINKELHEBEL MIT VERRIEGELUNG
390
0
100
AcDbLine
 10
62.8548722317
 20
257.5427427325
 30
0.0
 11
73.5367906316
 21
254.5509652518
 31
0.0
  0
LINE
  5
143
100
AcDbEntity
  8
3203_11_ 3204_11 WINKELHEBEL MIT VERRIEGELUNG
390
0
100
AcDbLine
 10
61.9918316853
 20
254.461320818
 30
0.0
 11
72.6737500852
 21
251.4695433373
 31
0.0
  0
LINE
  5
144
100
AcDbEntity
  8
3203_11_ 3204_11 WINKELHEBEL MIT VERRIEGELUNG
390
0
100
AcDbLine
 10
61.2264773645
 20
251.7286802878
 30
0.0
 11
61.9918316853
 21
254.461320818
 31
0.0
  0
LINE
  5
145
100
AcDbEntity
  8
3203_11_ 3204_11 WINKELHEBEL MIT VERRIEGELUNG
390
0
100
AcDbLine
 10
61.2264773645
 20
251.7286802878
 30
0.0
 11
75.892578573
 21
247.6210181917
 31
0.0
  0
LINE
  5
146
100
AcDbEntity
  8
3203_11_ 3204_11 WINKELHEBEL MIT VERRIEGELUNG
390
0
100
AcDbLine
 10
90.9515603834
 20
230.7053663793
 30
0.0
 11
96.3531438799
 21
246.3431388667
 31
0.0
  0
LINE
  5
147
100
AcDbEntity
  8
3203_11_ 3204_11 WINKELHEBEL MIT VERRIEGELUNG
390
0
100
AcDbLine
 10
63.6209556589
 20
260.2779864832
 30
0.0
 11
106.336712451
 21
257.5380414636
 31
0.0
  0
LINE
  5
148
100
AcDbEntity
  8
3203_11_ 3204_11 WINKELHEBEL MIT VERRIEGELUNG
390
0
100
AcDbLine
 10
97.0395254132
 20
246.9825744688
 30
0.0
 11
107.1159401911
 21
249.6825416711
 31
0.0
  0
MTEXT
  5
149
100
AcDbEntity
  8
3201___ EINZELHEBEL DE
390
0
100
AcDbMText
 10
54.531924388
 20
238.6607934299
 30
0.0
 40
2.0
 41
0.0
 71
         5
 72
         1
  1
\W1.135114;>3203.11P\PM50+x2\PT2 O2
  7
Arial
 73
         1
 44
0.66
  0
ARC
  5
14A
100
AcDbEntity
  8
3203_11_ 3204_11 WINKELHEBEL MIT VERRIEGELUNG
390
0
100
AcDbCircle
 10
75.6228784022
 20
246.6580738434
 30
0.0
 40
1.0
100
AcDbArc
 50
18.3628028858
 51
74.3535739512
  0
ARC
  5
14B
100
AcDbEntity
  8
3203_11_ 3204_11 WINKELHEBEL MIT VERRIEGELUNG
390
0
100
AcDbCircle
 10
97.2983444583
 20
246.0166486425
 30
0.0
 40
1.0
100
AcDbArc
 50
105.0
 51
160.944115761
  0
CIRCLE
  5
14C
100
AcDbEntity
  8
3203_11P
390
0
100
AcDbCircle
 10
86.4618576358
 20
232.2561949443
 30
0.0
 40
1.25
  0
CIRCLE
  5
14D
100
AcDbEntity
  8
3203_11P
390
0
100
AcDbCircle
 10
87.4204099728
 20
248.5462449762
 30
0.0
 40
1.25
  0
ARC
  5
14E
100
AcDbEntity
  8
3203_11_ 3204_11 WINKELHEBEL MIT VERRIEGELUNG
390
0
100
AcDbCircle
 10
86.4618576358
 20
232.2561949443
 30
0.0
 40
4.75
100
AcDbArc
 50
198.3628028858
 51
340.944115761
  0
ARC
  5
14F
100
AcDbEntity
  8
3203_11_ 3204_11 WINKELHEBEL MIT VERRIEGELUNG
390
0
100
AcDbCircle
 10
106.0806640107
 20
253.5462449762
 30
0.0
 40
4.0
100
AcDbArc
 50
285.0
 51
446.3298669125
  0
TEXT
  5
150
100
AcDbEntity
  8
BESCHRIFTUNG
390
0
100
AcDbText
 10
61.3678607098
 20
211.7491056453
 30
0.0
 40
2.5
  1
3204.11
 41
1.135139387
  7
Arial
 72
         1
 11
69.5475415865
 21
212.9991056453
 31
0.0
100
AcDbText
 73
         2
  0
ARC
  5
151
100
AcDbEntity
  8
3201___ EINZELHEBEL DE
390
0
100
AcDbCircle
 10
72.0033033238
 20
186.3603314763
 30
0.0
 40
21.1472020398
100
AcDbArc
 50
124.153891203
 51
235.846108797
  0
CIRCLE
  5
152
100
AcDbEntity
  8
3204_11P
390
0
  6
PHANTOM
100
AcDbCircle
 10
60.1308918538
 20
203.8603314763
 30
0.0
 40
0.5
  0
CIRCLE
  5
153
100
AcDbEntity
  8
3204_11P
390
0
  6
PHANTOM
100
AcDbCircle
 10
60.1308918538
 20
168.8603314763
 30
0.0
 40
1.0
  0
MTEXT
  5
154
100
AcDbEntity
  8
3201___ EINZELHEBEL DE
390
0
100
AcDbMText
 10
55.6254269445
 20
195.3592623341
 30
0.0
 40
2.0
 41
0.0
 71
         5
 72
         1
  1
\W1.135114;>3204.11P\PM50+x2\PT2 O2
  7
Arial
 73
         1
 44
0.66
  0
TEXT
  5
155
100
AcDbEntity
  8
3204_11P
390
0
  6
DIVIDE
100
AcDbText
 10
55.1613762182
 20
204.5377319796
 30
0.0
 40
1.5
  1
@3203.11P
 41
0.8648217064
  7
Arial
 72
         1
 11
60.1649875194
 21
205.2877319796
 31
0.0
100
AcDbText
 73
         2
  0
LINE
  5
156
100
AcDbEntity
  8
3203_12+13 SCHLOSSRIEGELPLATTE
390
0
100
AcDbLine
 10
60.1308918545
 20
133.0650813684
 30
0.0
 11
63.1284560541
 21
135.5543859232
 31
0.0
  0
LINE
  5
157
100
AcDbEntity
  8
3203_12+13 SCHLOSSRIEGELPLATTE
390
0
100
AcDbLine
 10
68.7122102615
 20
140.5525695736
 30
0.0
 11
63.1284560541
 21
140.5525695736
 31
0.0
  0
LINE
  5
158
100
AcDbEntity
  8
3203_12+13 SCHLOSSRIEGELPLATTE
390
0
100
AcDbLine
 10
63.1284560541
 20
135.5543859232
 30
0.0
 11
63.1284560541
 21
136.0538896906
 31
0.0
  0
LINE
  5
159
100
AcDbEntity
  8
3203_12+13 SCHLOSSRIEGELPLATTE
390
0
100
AcDbLine
 10
69.8951467568
 20
143.5538896906
 30
0.0
 11
63.1284560541
 21
143.5538896906
 31
0.0
  0
LINE
  5
15A
100
AcDbEntity
  8
3203_12+13 SCHLOSSRIEGELPLATTE
390
0
100
AcDbLine
 10
83.6298307757
 20
133.0564606742
 30
0.0
 11
69.8951467568
 21
143.5538896906
 31
0.0
  0
LINE
  5
15B
100
AcDbEntity
  8
3203_12+13 SCHLOSSRIEGELPLATTE
390
0
100
AcDbLine
 10
96.6298307757
 20
124.5564606742
 30
0.0
 11
60.1308918545
 21
124.5564606742
 31
0.0
  0
LINE
  5
15C
100
AcDbEntity
  8
3203_12+13 SCHLOSSRIEGELPLATTE
390
0
100
AcDbLine
 10
68.6351467568
 20
136.0538896906
 30
0.0
 11
63.1284560541
 21
136.0538896906
 31
0.0
  0
LINE
  5
15D
100
AcDbEntity
  8
3203_12+13 SCHLOSSRIEGELPLATTE
390
0
100
AcDbLine
 10
60.1308918545
 20
133.0650813684
 30
0.0
 11
60.1308918545
 21
124.5564606742
 31
0.0
  0
LINE
  5
15E
100
AcDbEntity
  8
3203_12+13 SCHLOSSRIEGELPLATTE
390
0
100
AcDbLine
 10
96.6298307757
 20
124.5564606742
 30
0.0
 11
96.6298307757
 21
133.0564606742
 31
0.0
  0
LINE
  5
15F
100
AcDbEntity
  8
3203_12+13 SCHLOSSRIEGELPLATTE
390
0
100
AcDbLine
 10
63.1284560541
 20
140.5525695736
 30
0.0
 11
63.1284560541
 21
143.5538896906
 31
0.0
  0
LINE
  5
160
100
AcDbEntity
  8
3203_12+13 SCHLOSSRIEGELPLATTE
390
0
100
AcDbLine
 10
96.6298307757
 20
133.0564606742
 30
0.0
 11
83.6298307757
 21
133.0564606742
 31
0.0
  0
CIRCLE
  5
161
100
AcDbEntity
  8
3203_13P
390
0
100
AcDbCircle
 10
92.6298307757
 20
127.0564606742
 30
0.0
 40
1.25
  0
ARC
  5
162
100
AcDbEntity
  8
3203_12+13 SCHLOSSRIEGELPLATTE
390
0
100
AcDbCircle
 10
68.6351467568
 20
138.3038896906
 30
0.0
 40
2.25
100
AcDbArc
 50
269.9999999999
 51
448.0372100815
  0
CIRCLE
  5
163
100
AcDbEntity
  8
3203_13P
390
0
100
AcDbCircle
 10
87.6298307757
 20
130.0564606742
 30
0.0
 40
1.25
  0
LINE
  5
164
100
AcDbEntity
  8
3203_12+13 SCHLOSSRIEGELPLATTE
390
0
100
AcDbLine
 10
60.1342883977
 20
93.0679020021
 30
0.0
 11
63.1284560541
 21
95.5543859232
 31
0.0
  0
LINE
  5
165
100
AcDbEntity
  8
3203_12+13 SCHLOSSRIEGELPLATTE
390
0
100
AcDbLine
 10
60.1342883977
 20
92.5558746213
 30
0.0
 11
60.1342883977
 21
93.0679020021
 31
0.0
  0
LINE
  5
166
100
AcDbEntity
  8
3203_12+13 SCHLOSSRIEGELPLATTE
390
0
100
AcDbLine
 10
69.8951467568
 20
103.5538896906
 30
0.0
 11
63.1284560541
 21
103.5538896906
 31
0.0
  0
LINE
  5
167
100
AcDbEntity
  8
3203_12+13 SCHLOSSRIEGELPLATTE
390
0
100
AcDbLine
 10
83.6298307757
 20
93.0564606742
 30
0.0
 11
69.8951467568
 21
103.5538896906
 31
0.0
  0
LINE
  5
168
100
AcDbEntity
  8
3203_12+13 SCHLOSSRIEGELPLATTE
390
0
100
AcDbLine
 10
65.6351467567
 20
92.5558746214
 30
0.0
 11
60.1342883977
 21
92.5558746213
 31
0.0
  0
LINE
  5
169
100
AcDbEntity
  8
3203_12+13 SCHLOSSRIEGELPLATTE
390
0
100
AcDbLine
 10
96.6298307757
 20
84.5564606742
 30
0.0
 11
60.1308918545
 21
84.5564606742
 31
0.0
  0
LINE
  5
16A
100
AcDbEntity
  8
3203_12+13 SCHLOSSRIEGELPLATTE
390
0
100
AcDbLine
 10
65.6351467568
 20
88.0558746214
 30
0.0
 11
60.1308918545
 21
88.0558746213
 31
0.0
  0
LINE
  5
16B
100
AcDbEntity
  8
3203_12+13 SCHLOSSRIEGELPLATTE
390
0
100
AcDbLine
 10
60.1308918545
 20
88.0558746213
 30
0.0
 11
60.1308918545
 21
84.5564606742
 31
0.0
  0
LINE
  5
16C
100
AcDbEntity
  8
3203_12+13 SCHLOSSRIEGELPLATTE
390
0
100
AcDbLine
 10
96.6298307757
 20
84.5564606742
 30
0.0
 11
96.6298307757
 21
93.0564606742
 31
0.0
  0
LINE
  5
16D
100
AcDbEntity
  8
3203_12+13 SCHLOSSRIEGELPLATTE
390
0
100
AcDbLine
 10
63.1284560541
 20
95.5543859232
 30
0.0
 11
63.1284560541
 21
103.5538896906
 31
0.0
  0
LINE
  5
16E
100
AcDbEntity
  8
3203_12+13 SCHLOSSRIEGELPLATTE
390
0
100
AcDbLine
 10
96.6298307757
 20
93.0564606742
 30
0.0
 11
83.6298307757
 21
93.0564606742
 31
0.0
  0
CIRCLE
  5
16F
100
AcDbEntity
  8
3203_14P
390
0
100
AcDbCircle
 10
92.6298307757
 20
87.0564606742
 30
0.0
 40
1.25
  0
ARC
  5
170
100
AcDbEntity
  8
3203_12+13 SCHLOSSRIEGELPLATTE
390
0
100
AcDbCircle
 10
65.6351467568
 20
90.3058746214
 30
0.0
 40
2.25
100
AcDbArc
 50
270.0000000004
 51
450.0000000005
  0
CIRCLE
  5
171
100
AcDbEntity
  8
3203_14P
390
0
100
AcDbCircle
 10
87.6298307757
 20
90.0564606742
 30
0.0
 40
1.25
  0
MTEXT
  5
172
100
AcDbEntity
  8
3201___ EINZELHEBEL DE
390
0
100
AcDbMText
 10
55.6254269445
 20
136.0528205484
 30
0.0
 40
2.0
 41
0.0
 71
         5
 72
         1
  1
\W1.135114;>3203.13P\PM40+x2\PT2 O2
  7
Arial
 73
         1
 44
0.66
  0
ARC
  5
173
100
AcDbEntity
  8
3201___ EINZELHEBEL DE
390
0
100
AcDbCircle
 10
67.2534666279
 20
134.0551751823
 30
0.0
 40
12.6867678208
100
AcDbArc
 50
124.1538912029
 51
235.8461087969
  0
CIRCLE
  5
174
100
AcDbEntity
  8
3203_13P
390
0
  6
PHANTOM
100
AcDbCircle
 10
60.1308918538
 20
144.5538896906
 30
0.0
 40
0.5
  0
CIRCLE
  5
175
100
AcDbEntity
  8
3203_13P
390
0
  6
PHANTOM
100
AcDbCircle
 10
60.1308918538
 20
123.5564606742
 30
0.0
 40
1.0
  0
TEXT
  5
176
100
AcDbEntity
  8
3203_14P
390
0
  6
DIVIDE
100
AcDbText
 10
54.9973233188
 20
105.2312901939
 30
0.0
 40
1.5
  1
@3203.13P
 41
0.8648217181
  7
Arial
 72
         1
 11
60.1649875194
 21
105.9812901939
 31
0.0
100
AcDbText
 73
         2
  0
MTEXT
  5
177
100
AcDbEntity
  8
3201___ EINZELHEBEL DE
390
0
100
AcDbMText
 10
55.6254269445
 20
96.0528205484
 30
0.0
 40
2.0
 41
0.0
 71
         5
 72
         1
  1
\W1.135114;>3203.14P\PM40+x2\PT2 O2
  7
Arial
 73
         1
 44
0.66
  0
ARC
  5
178
100
AcDbEntity
  8
3201___ EINZELHEBEL DE
390
0
100
AcDbCircle
 10
67.2534666279
 20
94.0551751823
 30
0.0
 40
12.6867678208
100
AcDbArc
 50
124.1538912029
 51
235.8461087969
  0
CIRCLE
  5
179
100
AcDbEntity
  8
3203_14P
390
0
  6
PHANTOM
100
AcDbCircle
 10
60.1308918538
 20
104.5538896906
 30
0.0
 40
0.5
  0
CIRCLE
  5
17A
100
AcDbEntity
  8
3203_14P
390
0
  6
PHANTOM
100
AcDbCircle
 10
60.1308918538
 20
83.5564606742
 30
0.0
 40
1.0
  0
TEXT
  5
17B
100
AcDbEntity
  8
BESCHRIFTUNG
390
0
100
AcDbText
 10
61.0339958472
 20
152.4426638596
 30
0.0
 40
2.5
  1
3203.13
 41
1.1351394319
  7
Arial
 72
         1
 11
69.5475415866
 21
153.6926638596
 31
0.0
100
AcDbText
 73
         2
  0
TEXT
  5
17C
100
AcDbEntity
  8
BESCHRIFTUNG
390
0
100
AcDbText
 10
61.0339960159
 20
112.4426638596
 30
0.0
 40
2.5
  1
3203.14
 41
1.1351394094
  7
Arial
 72
         1
 11
69.5475415867
 21
113.6926638596
 31
0.0
100
AcDbText
 73
         2
  0
LINE
  5
17D
100
AcDbEntity
  8
3203_11P
390
0
  6
BORDER
100
AcDbLine
 10
63.684967769
 20
261.2759356051
 30
0.0
 11
106.4007245611
 21
258.5359905854
 31
0.0
  0
ARC
  5
17E
100
AcDbEntity
  8
3203_11P
390
0
100
AcDbCircle
 10
106.0806640107
 20
253.5462449762
 30
0.0
 40
5.0
100
AcDbArc
 50
285.0
 51
446.3298669125
  0
LINE
  5
17F
100
AcDbEntity
  8
3203_11P
390
0
  6
BORDER
100
AcDbLine
 10
97.2983444583
 20
246.0166486425
 30
0.0
 11
107.3747592362
 21
248.7166158448
 31
0.0
  0
LINE
  5
180
100
AcDbEntity
  8
3203_11P
390
0
100
AcDbLine
 10
91.8967609619
 20
230.3788761551
 30
0.0
 11
97.2983444583
 21
246.0166486425
 31
0.0
  0
ARC
  5
181
100
AcDbEntity
  8
3203_11P
390
0
100
AcDbCircle
 10
86.4618576358
 20
232.2561949443
 30
0.0
 40
5.75
100
AcDbArc
 50
198.3628028858
 51
340.944115761
  0
LINE
  5
182
100
AcDbEntity
  8
3203_11P
390
0
100
AcDbLine
 10
75.6228784022
 20
246.6580738434
 30
0.0
 11
81.0046434104
 21
230.4447554894
 31
0.0
  0
LINE
  5
183
100
AcDbEntity
  8
3203_11P
390
0
100
AcDbLine
 10
59.9938328455
 20
251.0354361103
 30
0.0
 11
75.6228784022
 21
246.6580738434
 31
0.0
  0
LINE
  5
184
100
AcDbEntity
  8
3203_11P
390
0
100
AcDbLine
 10
59.9938328455
 20
251.0354361103
 30
0.0
 11
61.2985875077
 21
255.693965337
 31
0.0
  0
LINE
  5
185
100
AcDbEntity
  8
3203_11P
390
0
100
AcDbLine
 10
61.2985875077
 20
255.693965337
 30
0.0
 11
72.9434502559
 21
252.4324876856
 31
0.0
  0
LINE
  5
186
100
AcDbEntity
  8
3203_11P
390
0
100
AcDbLine
 10
61.6222277126
 20
256.849498555
 30
0.0
 11
73.2670904608
 21
253.5880209035
 31
0.0
  0
ARC
  5
187
100
AcDbEntity
  8
3203_11P
390
0
100
AcDbCircle
 10
73.1052703584
 20
253.0102542945
 30
0.0
 40
0.6
100
AcDbArc
 50
254.3535739512
 51
434.3535739512
  0
LINE
  5
188
100
AcDbEntity
  8
3203_11P
390
0
100
AcDbLine
 10
61.6222277126
 20
256.849498555
 30
0.0
 11
62.6580113106
 21
260.547686654
 31
0.0
  0
LINE
  5
189
100
AcDbEntity
  8
3203_11P
390
0
  6
DASHED
100
AcDbLine
 10
62.6580113106
 20
260.547686654
 30
0.0
 11
106.0806640107
 21
253.5462449762
 31
0.0
  0
LINE
  5
18A
100
AcDbEntity
  8
3203_11P
390
0
  6
DASHED
100
AcDbLine
 10
106.0806640107
 20
253.5462449762
 30
0.0
 11
87.4204099728
 21
248.5462449762
 31
0.0
  0
LINE
  5
18B
100
AcDbEntity
  8
3203_11P
390
0
  6
DASHED
100
AcDbLine
 10
87.4204099728
 20
248.5462449762
 30
0.0
 11
86.4618576358
 21
232.2561949443
 31
0.0
  0
LINE
  5
18C
100
AcDbEntity
  8
3203_11P
390
0
  6
DASHED
100
AcDbLine
 10
86.4618576358
 20
232.2561949443
 30
0.0
 11
60.1308918541
 21
226.277986483
 31
0.0
  0
LINE
  5
18D
100
AcDbEntity
  8
3204_11P
390
0
  6
BORDER
100
AcDbLine
 10
63.6849677692
 20
203.8582805981
 30
0.0
 11
106.4007245613
 21
201.1183355785
 31
0.0
  0
ARC
  5
18E
100
AcDbEntity
  8
3204_11P
390
0
100
AcDbCircle
 10
106.0806640109
 20
196.1285899693
 30
0.0
 40
5.0
100
AcDbArc
 50
280.9401494254
 51
446.3298669125
  0
LINE
  5
18F
100
AcDbEntity
  8
3204_11P
390
0
  6
BORDER
100
AcDbLine
 10
107.0295814805
 20
191.2194601446
 30
0.0
 11
96.7095474415
 21
189.2246339867
 31
0.0
  0
LINE
  5
190
100
AcDbEntity
  8
3204_11P
390
0
100
AcDbLine
 10
91.1468213387
 20
173.1203480376
 30
0.0
 11
96.7095474415
 21
189.2246339867
 31
0.0
  0
ARC
  5
191
100
AcDbEntity
  8
3204_11P
390
0
100
AcDbCircle
 10
85.7119180126
 20
174.9976668268
 30
0.0
 40
5.75
100
AcDbArc
 50
198.3628028858
 51
340.944115761
  0
LINE
  5
192
100
AcDbEntity
  8
3204_11P
390
0
100
AcDbLine
 10
74.8543060009
 20
189.4556795712
 30
0.0
 11
80.2547037873
 21
173.1862273719
 31
0.0
  0
LINE
  5
193
100
AcDbEntity
  8
3204_11P
390
0
100
AcDbLine
 10
59.9938328457
 20
193.6177811034
 30
0.0
 11
74.8543060009
 21
189.4556795712
 31
0.0
  0
LINE
  5
194
100
AcDbEntity
  8
3204_11P
390
0
100
AcDbLine
 10
59.9938328457
 20
193.6177811034
 30
0.0
 11
61.2985875079
 21
198.2763103301
 31
0.0
  0
LINE
  5
195
100
AcDbEntity
  8
3204_11P
390
0
100
AcDbLine
 10
61.2985875079
 20
198.2763103301
 30
0.0
 11
72.9434502561
 21
195.0148326786
 31
0.0
  0
LINE
  5
196
100
AcDbEntity
  8
3204_11P
390
0
100
AcDbLine
 10
61.6222277128
 20
199.4318435481
 30
0.0
 11
73.267090461
 21
196.1703658966
 31
0.0
  0
ARC
  5
197
100
AcDbEntity
  8
3204_11P
390
0
100
AcDbCircle
 10
73.1052703586
 20
195.5925992876
 30
0.0
 40
0.6
100
AcDbArc
 50
254.3535739512
 51
434.3535739512
  0
LINE
  5
198
100
AcDbEntity
  8
3204_11P
390
0
100
AcDbLine
 10
61.6222277128
 20
199.4318435481
 30
0.0
 11
62.6580113109
 21
203.1300316471
 31
0.0
  0
LINE
  5
199
100
AcDbEntity
  8
3204_11P
390
0
  6
DASHED
100
AcDbLine
 10
60.1308918538
 20
203.8603314763
 30
0.0
 11
63.6849677692
 21
203.8582805981
 31
0.0
  0
LINE
  5
19A
100
AcDbEntity
  8
3204_11P
390
0
  6
DASHED
100
AcDbLine
 10
62.6580113109
 20
203.1300316471
 30
0.0
 11
106.0806640109
 21
196.1285899693
 31
0.0
  0
LINE
  5
19B
100
AcDbEntity
  8
3204_11P
390
0
  6
DASHED
100
AcDbLine
 10
106.0806640109
 20
196.1285899693
 30
0.0
 11
84.4776302707
 21
191.9527997896
 31
0.0
  0
LINE
  5
19C
100
AcDbEntity
  8
3204_11P
390
0
  6
DASHED
100
AcDbLine
 10
84.4776302707
 20
191.9527997896
 30
0.0
 11
85.7119180126
 21
174.9976668268
 31
0.0
  0
LINE
  5
19D
100
AcDbEntity
  8
3204_11P
390
0
  6
DASHED
100
AcDbLine
 10
85.7119180126
 20
174.9976668268
 30
0.0
 11
60.1308918544
 21
168.8603314759
 31
0.0
  0
LINE
  5
19E
100
AcDbEntity
  8
3203_13P
390
0
100
AcDbLine
 10
70.2335376866
 20
144.5538896906
 30
0.0
 11
62.1284560541
 21
144.5538896906
 31
0.0
  0
LINE
  5
19F
100
AcDbEntity
  8
3203_13P
390
0
100
AcDbLine
 10
83.9682217055
 20
134.0564606742
 30
0.0
 11
70.2335376866
 21
144.5538896906
 31
0.0
  0
LINE
  5
1A0
100
AcDbEntity
  8
3203_13P
390
0
100
AcDbLine
 10
97.6298307757
 20
134.0564606742
 30
0.0
 11
83.9682217055
 21
134.0564606742
 31
0.0
  0
LINE
  5
1A1
100
AcDbEntity
  8
3203_13P
390
0
100
AcDbLine
 10
97.6298307756
 20
123.5564606742
 30
0.0
 11
97.6298307757
 21
134.0564606742
 31
0.0
  0
LINE
  5
1A2
100
AcDbEntity
  8
3203_13P
390
0
100
AcDbLine
 10
97.6298307756
 20
123.5564606742
 30
0.0
 11
60.1308918545
 21
123.5564606742
 31
0.0
  0
LINE
  5
1A3
100
AcDbEntity
  8
3203_13P
390
0
100
AcDbLine
 10
59.4920209123
 20
133.8343952961
 30
0.0
 11
62.1284560541
 21
136.0238029517
 31
0.0
  0
LINE
  5
1A4
100
AcDbEntity
  8
3203_13P
390
0
100
AcDbLine
 10
62.1284560541
 20
136.0238029517
 30
0.0
 11
62.1284560541
 21
137.0538896906
 31
0.0
  0
LINE
  5
1A5
100
AcDbEntity
  8
3203_13P
390
0
100
AcDbLine
 10
68.6351467568
 20
137.0538896906
 30
0.0
 11
62.1284560541
 21
137.0538896906
 31
0.0
  0
ARC
  5
1A6
100
AcDbEntity
  8
3203_13P
390
0
100
AcDbCircle
 10
68.6351467568
 20
138.3038896906
 30
0.0
 40
1.25
100
AcDbArc
 50
269.9999999999
 51
447.3665379542
  0
LINE
  5
1A7
100
AcDbEntity
  8
3203_13P
390
0
100
AcDbLine
 10
68.6925797593
 20
139.5525695736
 30
0.0
 11
62.1284560541
 21
139.5525695736
 31
0.0
  0
LINE
  5
1A8
100
AcDbEntity
  8
3203_13P
390
0
100
AcDbLine
 10
62.1284560541
 20
139.5525695736
 30
0.0
 11
62.1284560541
 21
144.5538896906
 31
0.0
  0
LINE
  5
1A9
100
AcDbEntity
  8
3203_13P
390
0
  6
DASHED
100
AcDbLine
 10
60.1308918538
 20
144.5538896906
 30
0.0
 11
87.6298307757
 21
130.0564606742
 31
0.0
  0
LINE
  5
1AA
100
AcDbEntity
  8
3203_13P
390
0
  6
DASHED
100
AcDbLine
 10
87.6298307757
 20
130.0564606742
 30
0.0
 11
92.6298307757
 21
127.0564606742
 31
0.0
  0
LINE
  5
1AB
100
AcDbEntity
  8
3203_13P
390
0
  6
DASHED
100
AcDbLine
 10
92.6298307757
 20
127.0564606742
 30
0.0
 11
59.4920209123
 21
133.8343952961
 31
0.0
  0
LINE
  5
1AC
100
AcDbEntity
  8
3203_14P
390
0
100
AcDbLine
 10
83.9682217055
 20
94.0564606742
 30
0.0
 11
70.2335376866
 21
104.5538896906
 31
0.0
  0
LINE
  5
1AD
100
AcDbEntity
  8
3203_14P
390
0
100
AcDbLine
 10
70.2335376866
 20
104.5538896906
 30
0.0
 11
62.1284560541
 21
104.5538896906
 31
0.0
  0
LINE
  5
1AE
100
AcDbEntity
  8
3203_14P
390
0
100
AcDbLine
 10
97.6298307757
 20
94.0564606742
 30
0.0
 11
83.9682217055
 21
94.0564606742
 31
0.0
  0
LINE
  5
1AF
100
AcDbEntity
  8
3203_14P
390
0
100
AcDbLine
 10
97.6298307756
 20
83.5564606742
 30
0.0
 11
97.6298307757
 21
94.0564606742
 31
0.0
  0
LINE
  5
1B0
100
AcDbEntity
  8
3203_14P
390
0
100
AcDbLine
 10
97.6298307756
 20
83.5564606742
 30
0.0
 11
60.1308918545
 21
83.5564606742
 31
0.0
  0
LINE
  5
1B1
100
AcDbEntity
  8
3203_14P
390
0
100
AcDbLine
 10
65.6351467568
 20
89.0558746214
 30
0.0
 11
60.1308918545
 21
89.0558746213
 31
0.0
  0
ARC
  5
1B2
100
AcDbEntity
  8
3203_14P
390
0
100
AcDbCircle
 10
65.6351467568
 20
90.3058746214
 30
0.0
 40
1.25
100
AcDbArc
 50
270.0000000004
 51
450.0000000005
  0
LINE
  5
1B3
100
AcDbEntity
  8
3203_14P
390
0
100
AcDbLine
 10
65.6351467568
 20
91.5558746214
 30
0.0
 11
59.1342883978
 21
91.5558746213
 31
0.0
  0
LINE
  5
1B4
100
AcDbEntity
  8
3203_14P
390
0
100
AcDbLine
 10
62.1284560541
 20
96.0238029517
 30
0.0
 11
62.1284560541
 21
104.5538896906
 31
0.0
  0
LINE
  5
1B5
100
AcDbEntity
  8
3203_14P
390
0
100
AcDbLine
 10
59.1342883977
 20
93.5373190306
 30
0.0
 11
62.1284560541
 21
96.0238029517
 31
0.0
  0
LINE
  5
1B6
100
AcDbEntity
  8
3203_14P
390
0
100
AcDbLine
 10
59.1342883978
 20
91.5558746213
 30
0.0
 11
59.1342883977
 21
93.5373190306
 31
0.0
  0
LINE
  5
1B7
100
AcDbEntity
  8
3203_14P
390
0
  6
DASHED
100
AcDbLine
 10
60.1308918538
 20
104.5538896906
 30
0.0
 11
87.6298307757
 21
90.0564606742
 31
0.0
  0
LINE
  5
1B8
100
AcDbEntity
  8
3203_14P
390
0
  6
DASHED
100
AcDbLine
 10
87.6298307757
 20
90.0564606742
 30
0.0
 11
92.6298307757
 21
87.0564606742
 31
0.0
  0
LINE
  5
1B9
100
AcDbEntity
  8
3203_14P
390
0
  6
DASHED
100
AcDbLine
 10
92.6298307757
 20
87.0564606742
 30
0.0
 11
60.1308918546
 21
89.0558746213
 31
0.0
  0
LINE
  5
1BA
100
AcDbEntity
  8
MITTELLINIEN
390
0
100
AcDbLine
 10
100.1298307758
 20
154.5793258402
 30
0.0
 11
100.1298307756
 21
60.8944272716
 31
0.0
  0
INSERT
  5
1BB
100
AcDbEntity
  8
BEMASSUNG
390
0
100
AcDbBlockReference
  2
D401977088
 10
0.0
 20
0.0
 30
0.0
  0
INSERT
  5
1BC
100
AcDbEntity
  8
BEMASSUNG
390
0
100
AcDbBlockReference
  2
D401976832
 10
0.0
 20
0.0
 30
0.0
  0
LINE
  5
1BD
100
AcDbEntity
  8
3203_11P
390
0
  6
DASHED
100
AcDbLine
 10
60.1308918538
 20
261.2779864832
 30
0.0
 11
63.684967769
 21
261.2759356051
 31
0.0
  0
MTEXT
  5
1BE
100
AcDbEntity
  8
3201___ EINZELHEBEL DE
390
0
100
AcDbMText
 10
-19.1382581963
 20
239.0779282614
 30
0.0
 40
2.0
 41
0.0
 71
         5
 72
         1
  1
\W1.135114;>3203.11P\PM50+x2\PT2 O2
  7
Arial
 73
         1
 44
0.66
  0
ARC
  5
1BF
100
AcDbEntity
  8
3201___ EINZELHEBEL DE
390
0
100
AcDbCircle
 10
-1.6668792605
 20
244.1951213147
 30
0.0
 40
21.1472020398
100
AcDbArc
 50
124.153891203
 51
235.846108797
  0
ARC
  5
1C0
100
AcDbEntity
  8
3201___ EINZELHEBEL DE
390
0
100
AcDbCircle
 10
-1.6668792605
 20
186.7774663078
 30
0.0
 40
21.1472020398
100
AcDbArc
 50
124.153891203
 51
235.846108797
  0
MTEXT
  5
1C1
100
AcDbEntity
  8
3201___ EINZELHEBEL DE
390
0
100
AcDbMText
 10
-18.0447556398
 20
195.7763971656
 30
0.0
 40
2.0
 41
0.0
 71
         5
 72
         1
  1
\W1.135114;>3204.11P\PM50+x2\PT2 O2
  7
Arial
 73
         1
 44
0.66
  0
MTEXT
  5
1C2
100
AcDbEntity
  8
3201___ EINZELHEBEL DE
390
0
100
AcDbMText
 10
-18.0447556398
 20
136.4699553798
 30
0.0
 40
2.0
 41
0.0
 71
         5
 72
         1
  1
\W1.135114;>3203.13P\PM40+x2\PT2 O2
  7
Arial
 73
         1
 44
0.66
  0
MTEXT
  5
1C3
100
AcDbEntity
  8
3201___ EINZELHEBEL DE
390
0
100
AcDbMText
 10
-18.0447556398
 20
96.4699553798
 30
0.0
 40
2.0
 41
0.0
 71
         5
 72
         1
  1
\W1.135114;>3203.14P\PM40+x2\PT2 O2
  7
Arial
 73
         1
 44
0.66
  0
ARC
  5
1C4
100
AcDbEntity
  8
3201___ EINZELHEBEL DE
390
0
100
AcDbCircle
 10
-4.8671069266
 20
135.9820803237
 30
0.0
 40
12.6867678208
100
AcDbArc
 50
124.1538912029
 51
235.8461087969
  0
ARC
  5
1C5
100
AcDbEntity
  8
3201___ EINZELHEBEL DE
390
0
100
AcDbCircle
 10
-4.8671069266
 20
95.9820803237
 30
0.0
 40
12.6867678208
100
AcDbArc
 50
124.1538912029
 51
235.8461087969
  0
INSERT
  5
1C6
100
AcDbEntity
  8
BEMASSUNG
390
0
100
AcDbBlockReference
  2
D401976576
 10
0.0
 20
0.0
 30
0.0
  0
INSERT
  5
1C7
100
AcDbEntity
  8
BEMASSUNG
390
0
100
AcDbBlockReference
  2
D401976320
 10
0.0
 20
0.0
 30
0.0
  0
INSERT
  5
1C8
100
AcDbEntity
  8
BEMASSUNG
390
0
100
AcDbBlockReference
  2
D401976064
 10
0.0
 20
0.0
 30
0.0
  0
INSERT
  5
1C9
100
AcDbEntity
  8
BEMASSUNG
390
0
100
AcDbBlockReference
  2
D401975808
 10
0.0
 20
0.0
 30
0.0
  0
TEXT
  5
1CA
100
AcDbEntity
  8
BESCHRIFTUNG
390
0
100
AcDbText
 10
150.7179256732
 20
272.7170936279
 30
0.0
 40
2.5
  1
3203.30
 41
1.1351393195
  7
Arial
 72
         1
 11
159.4088360883
 21
273.9670936279
 31
0.0
100
AcDbText
 73
         2
  0
MTEXT
  5
1CB
100
AcDbEntity
  8
3203_30P
390
0
100
AcDbMText
 10
150.2352918013
 20
244.8525741394
 30
0.0
 40
2.0
 41
0.0
 71
         5
 72
         1
  1
\W1.135114;>3203.11P\PM50+x2\PT2 O2
  7
Arial
 73
         1
 44
0.66
  0
TEXT
  5
1CC
100
AcDbEntity
  8
BESCHRIFTUNG
390
0
100
AcDbText
 10
151.0161538153
 20
191.5264090161
 30
0.0
 40
2.5
  1
3204.30
 41
1.135139297
  7
Arial
 72
         1
 11
159.7070640583
 21
192.7764090161
 31
0.0
100
AcDbText
 73
         2
  0
CIRCLE
  5
1CD
100
AcDbEntity
  8
3203_30P
390
0
  6
PHANTOM
100
AcDbCircle
 10
140.2904143259
 20
217.8591317082
 30
0.0
 40
1.0
  0
MTEXT
  5
1CE
100
AcDbEntity
  8
3203_30P
390
0
100
AcDbMText
 10
142.3554323102
 20
228.3022156782
 30
0.0
 40
2.0
 41
0.0
 71
         5
 72
         1
  1
\W1.135119;>3203.=LP\PM40+x2\PT2 O2
  7
Arial
 73
         1
 44
0.66
  0
CIRCLE
  5
1CF
100
AcDbEntity
  8
3204_30P
390
0
  6
PHANTOM
100
AcDbCircle
 10
140.2904143261
 20
182.6258005618
 30
0.0
 40
0.5
  0
MTEXT
  5
1D0
100
AcDbEntity
  8
3204_30P
390
0
100
AcDbMText
 10
150.3021564061
 20
169.6075244303
 30
0.0
 40
2.0
 41
0.0
 71
         5
 72
         1
  1
\W1.135114;>3204.11P\PM50+x2\PT2 O2
  7
Arial
 73
         1
 44
0.66
  0
CIRCLE
  5
1D1
100
AcDbEntity
  8
3204_30P
390
0
  6
PHANTOM
100
AcDbCircle
 10
140.2904143256
 20
137.6258005623
 30
0.0
 40
1.0
  0
ARC
  5
1D2
100
AcDbEntity
  8
3203___ EINZELHEBEL DE MIT SCHLOSS
390
0
  6
DASHDOT
100
AcDbCircle
 10
171.9100739503
 20
160.1258005621
 30
0.0
 40
38.8078970666
100
AcDbArc
 50
144.5650066236
 51
215.4349933767
  0
MTEXT
  5
1D3
100
AcDbEntity
  8
3201___ EINZELHEBEL DE
390
0
100
AcDbMText
 10
133.8251656137
 20
166.4820947882
 30
0.0
 40
2.0
 41
0.0
 71
         5
 72
         1
  1
\W1.135114;>3204.30P\PM60+x2\PT2 O2\P:L13,14
  7
Arial
 73
         1
 44
0.66
  0
LINE
  5
1D4
100
AcDbEntity
  8
MITTELLINIEN
390
0
100
AcDbLine
 10
140.2904143262
 20
132.6258005623
 30
0.0
 11
140.2904143262
 21
273.6042142327
 31
0.0
  0
MTEXT
  5
1D5
100
AcDbEntity
  8
3201___ EINZELHEBEL DE
390
0
100
AcDbMText
 10
133.8251656134
 20
246.7154259342
 30
0.0
 40
2.0
 41
0.0
 71
         5
 72
         1
  1
\W1.135114;>3203.30P\PM60+x2\PT2 O2\P:L13,14
  7
Arial
 73
         1
 44
0.66
  0
ARC
  5
1D6
100
AcDbEntity
  8
3203___ EINZELHEBEL DE MIT SCHLOSS
390
0
  6
DASHDOT
100
AcDbCircle
 10
171.9100739499
 20
240.3591317081
 30
0.0
 40
38.8078970666
100
AcDbArc
 50
144.5650066236
 51
215.4349933767
  0
ARC
  5
1D7
100
AcDbEntity
  8
3203_30P
390
0
  6
DASHDOT
100
AcDbCircle
 10
203.0738497035
 20
245.3591317078
 30
0.0
 40
55.6088216948
100
AcDbArc
 50
161.6574003871
 51
198.3425996129
  0
ARC
  5
1D8
100
AcDbEntity
  8
3203_30P
390
0
  6
DASHDOT
100
AcDbCircle
 10
118.1696776001
 20
228.3578462165
 30
0.0
 40
24.4857101106
100
AcDbArc
 50
334.6105340998
 51
385.3894659
  0
ARC
  5
1D9
100
AcDbEntity
  8
3204_30P
390
0
  6
DASHDOT
100
AcDbCircle
 10
213.14390499
 20
165.1258005618
 30
0.0
 40
65.2442433371
100
AcDbArc
 50
164.4414537683
 51
195.5585462317
  0
ARC
  5
1DA
100
AcDbEntity
  8
3204_30P
390
0
  6
DASHDOT
100
AcDbCircle
 10
117.4569359569
 20
148.1245150705
 30
0.0
 40
25.1314691322
100
AcDbArc
 50
335.3072745345
 51
384.6927254653
  0
CIRCLE
  5
1DB
100
AcDbEntity
  8
3203_30P
390
0
  6
PHANTOM
100
AcDbCircle
 10
140.2904143258
 20
262.8591317078
 30
0.0
 40
0.5
  0
TEXT
  5
1DC
100
AcDbEntity
  8
3204_30P
390
0
  6
DIVIDE
100
AcDbText
 10
135.0707184094
 20
183.3032010651
 30
0.0
 40
1.5
  1
@3203.30P
 41
0.8648216596
  7
Arial
 72
         1
 11
140.3245099917
 21
184.0532010651
 31
0.0
100
AcDbText
 73
         2
  0
MTEXT
  5
1DD
100
AcDbEntity
  8
3204_30P
390
0
100
AcDbMText
 10
142.3554323099
 20
148.0688845323
 30
0.0
 40
2.0
 41
0.0
 71
         5
 72
         1
  1
\W1.135119;>3203.=LP\PM40+x2\PT2 O2
  7
Arial
 73
         1
 44
0.66
  0
LINE
  5
1DE
100
AcDbEntity
  8
3203_30P
390
0
  6
DASHED
100
AcDbLine
 10
140.2904143258
 20
262.8591317078
 30
0.0
 11
150.2904143256
 21
262.8591317078
 31
0.0
  0
LINE
  5
1DF
100
AcDbEntity
  8
3203_30P
390
0
  6
DASHED
100
AcDbLine
 10
150.2904143256
 20
227.8591317078
 30
0.0
 11
140.2904143262
 21
238.856560724
 31
0.0
  0
LINE
  5
1E0
100
AcDbEntity
  8
3204_30P
390
0
  6
DASHED
100
AcDbLine
 10
140.2904143261
 20
182.6258005618
 30
0.0
 11
150.2904143261
 21
182.6258005618
 31
0.0
  0
LINE
  5
1E1
100
AcDbEntity
  8
3204_30P
390
0
  6
DASHED
100
AcDbLine
 10
150.2904143261
 20
147.6258005618
 30
0.0
 11
140.2904143256
 21
158.6232295787
 31
0.0
  0
MTEXT
  5
1E2
100
AcDbEntity
  8
3203_30P
390
0
100
AcDbMText
 10
131.1651064765
 20
257.1382295693
 30
0.0
 40
2.0
 41
0.0
 71
         7
 72
         1
  1
\W1.134938;M60+x2\PT2 O2 F150\PB-0.3    D1.6\PI1.2 P4 U20\P:L13,14
  7
Arial
 73
         1
 44
0.66
  0
LINE
  5
1E3
100
AcDbEntity
  8
MITTELLINIEN
390
0
100
AcDbLine
 10
200.2904143262
 20
132.6258005623
 30
0.0
 11
200.2904143262
 21
273.6042142327
 31
0.0
  0
INSERT
  5
1E4
100
AcDbEntity
  8
BEMASSUNG
390
0
100
AcDbBlockReference
  2
D554778368
 10
0.0
 20
0.0
 30
0.0
  0
INSERT
  5
1E5
100
AcDbEntity
  8
BEMASSUNG
390
0
100
AcDbBlockReference
  2
D554764288
 10
0.0
 20
0.0
 30
0.0
  0
INSERT
  5
1E6
100
AcDbEntity
  8
BEMASSUNG
390
0
100
AcDbBlockReference
  2
D554774784
 10
0.0
 20
0.0
 30
0.0
  0
ARC
  5
1E7
100
AcDbEntity
  8
3203___ EINZELHEBEL DE MIT SCHLOSS
390
0
  6
DASHDOT
100
AcDbCircle
 10
-2.9319906569
 20
212.9742300227
 30
0.0
 40
38.8078970666
100
AcDbArc
 50
144.5650066236
 51
215.4349933767
  0
MTEXT
  5
1E8
100
AcDbEntity
  8
3201___ EINZELHEBEL DE
390
0
100
AcDbMText
 10
-41.0168989934
 20
219.3305242488
 30
0.0
 40
2.0
 41
0.0
 71
         5
 72
         1
  1
\W1.135114;>3203.30P\PM60+x2\PT2 O2\P:L13,14
  7
Arial
 73
         1
 44
0.66
  0
MTEXT
  5
1E9
100
AcDbEntity
  8
3201___ EINZELHEBEL DE
390
0
100
AcDbMText
 10
-41.016898993
 20
139.0971931028
 30
0.0
 40
2.0
 41
0.0
 71
         5
 72
         1
  1
\W1.135114;>3204.30P\PM60+x2\PT2 O2\P:L13,14
  7
Arial
 73
         1
 44
0.66
  0
ARC
  5
1EA
100
AcDbEntity
  8
3203___ EINZELHEBEL DE MIT SCHLOSS
390
0
  6
DASHDOT
100
AcDbCircle
 10
-2.9319906565
 20
132.7408988767
 30
0.0
 40
38.8078970666
100
AcDbArc
 50
144.5650066236
 51
215.4349933767
  0
CIRCLE
  5
1EB
100
AcDbEntity
  8
HILFSLINIEN
390
0
100
AcDbCircle
 10
140.29
 20
227.368
 30
0.0
 40
5.0
  0
MTEXT
  5
1EC
100
AcDbEntity
  8
3203_13P
390
0
100
AcDbMText
 10
51.4162391849
 20
141.5022462277
 30
0.0
 40
2.0
 41
0.0
 71
         7
 72
         1
  1
\W1.135098;M40+x2\PT2 O2 F150\PB-0.3    D1.6\PI1.2 P4 U20
  7
Arial
 73
         1
 44
0.66
  0
LINE
  5
1ED
100
AcDbEntity
  8
STANDARD
390
0
100
AcDbLine
 10
10.0
 20
5.0
 30
0.0
 11
10.0
 21
292.0
 31
0.0
  0
LINE
  5
1EE
100
AcDbEntity
  8
STANDARD
390
0
100
AcDbLine
 10
15.0
 20
287.0
 30
0.0
 11
205.0
 21
287.0
 31
0.0
  0
LINE
  5
1EF
100
AcDbEntity
  8
STANDARD
390
0
100
AcDbLine
 10
10.0
 20
292.0
 30
0.0
 11
15.0
 21
292.0
 31
0.0
  0
LINE
  5
1F0
100
AcDbEntity
  8
STANDARD
390
0
100
AcDbLine
 10
10.0
 20
5.0
 30
0.0
 11
15.0
 21
5.0
 31
0.0
  0
LINE
  5
1F1
100
AcDbEntity
  8
STANDARD
390
0
100
AcDbLine
 10
10.0
 20
244.1666666667
 30
0.0
 11
15.0
 21
244.1666666667
 31
0.0
  0
LINE
  5
1F2
100
AcDbEntity
  8
STANDARD
390
0
100
AcDbLine
 10
10.0
 20
196.3333333333
 30
0.0
 11
15.0
 21
196.3333333333
 31
0.0
  0
LINE
  5
1F3
100
AcDbEntity
  8
STANDARD
390
0
100
AcDbLine
 10
10.0
 20
148.5
 30
0.0
 11
15.0
 21
148.5
 31
0.0
  0
LINE
  5
1F4
100
AcDbEntity
  8
STANDARD
390
0
100
AcDbLine
 10
10.0
 20
100.6666666667
 30
0.0
 11
15.0
 21
100.6666666667
 31
0.0
  0
LINE
  5
1F5
100
AcDbEntity
  8
STANDARD
390
0
100
AcDbLine
 10
10.0
 20
52.8333333333
 30
0.0
 11
15.0
 21
52.8333333333
 31
0.0
  0
LINE
  5
1F6
100
AcDbEntity
  8
STANDARD
390
0
100
AcDbLine
 10
157.5
 20
292.0
 30
0.0
 11
157.5
 21
287.0
 31
0.0
  0
LINE
  5
1F7
100
AcDbEntity
  8
STANDARD
390
0
100
AcDbLine
 10
110.0
 20
292.0
 30
0.0
 11
110.0
 21
287.0
 31
0.0
  0
LINE
  5
1F8
100
AcDbEntity
  8
STANDARD
390
0
100
AcDbLine
 10
62.5
 20
292.0
 30
0.0
 11
62.5
 21
287.0
 31
0.0
  0
TEXT
  5
1F9
100
AcDbEntity
  8
STANDARD
390
0
100
AcDbText
 10
10.9491078691
 20
267.8641561278
 30
0.0
 40
2.23125
  1
A
 41
1.547986837
  7
Arial
 72
         1
 11
12.6760806841
 21
270.0954061278
 31
0.0
100
AcDbText
 73
         3
  0
TEXT
  5
1FA
100
AcDbEntity
  8
STANDARD
390
0
100
AcDbText
 10
10.9491074243
 20
220.0308227945
 30
0.0
 40
2.23125
  1
B
 41
1.5479872357
  7
Arial
 72
         1
 11
12.6760806841
 21
222.2620727945
 31
0.0
100
AcDbText
 73
         3
  0
TEXT
  5
1FB
100
AcDbEntity
  8
STANDARD
390
0
100
AcDbText
 10
10.9489779593
 20
172.1974894612
 30
0.0
 40
2.23125
  1
C
 41
1.5481032827
  7
Arial
 72
         1
 11
12.6760806841
 21
174.4287394612
 31
0.0
100
AcDbText
 73
         3
  0
TEXT
  5
1FC
100
AcDbEntity
  8
STANDARD
390
0
100
AcDbText
 10
10.9489771034
 20
124.3641561278
 30
0.0
 40
2.23125
  1
D
 41
1.54810405
  7
Arial
 72
         1
 11
12.6760806841
 21
126.5954061278
 31
0.0
100
AcDbText
 73
         3
  0
TEXT
  5
1FD
100
AcDbEntity
  8
STANDARD
390
0
100
AcDbText
 10
10.9491076096
 20
76.5308227945
 30
0.0
 40
2.23125
  1
E
 41
1.5479870696
  7
Arial
 72
         1
 11
12.6760806841
 21
78.7620727945
 31
0.0
100
AcDbText
 73
         3
  0
TEXT
  5
1FE
100
AcDbEntity
  8
STANDARD
390
0
100
AcDbText
 10
10.9493506612
 20
28.6974894612
 30
0.0
 40
2.23125
  1
F
 41
1.5477692083
  7
Arial
 72
         1
 11
12.6760806841
 21
30.9287394612
 31
0.0
100
AcDbText
 73
         3
  0
TEXT
  5
1FF
100
AcDbEntity
  8
STANDARD
390
0
100
AcDbText
 10
36.7048241449
 20
288.48599354
 30
0.0
 40
2.23125
  1
1
 41
1.5479225906
  7
Arial
 72
         1
 11
38.0
 21
290.71724354
 31
0.0
100
AcDbText
 73
         3
  0
TEXT
  5
200
100
AcDbEntity
  8
STANDARD
390
0
100
AcDbText
 10
83.7730999712
 20
288.48599354
 30
0.0
 40
2.23125
  1
2
 41
1.5479215945
  7
Arial
 72
         1
 11
85.5
 21
290.71724354
 31
0.0
100
AcDbText
 73
         3
  0
TEXT
  5
201
100
AcDbEntity
  8
STANDARD
390
0
100
AcDbText
 10
131.2730986376
 20
288.48599354
 30
0.0
 40
2.23125
  1
3
 41
1.5479227899
  7
Arial
 72
         1
 11
133.0
 21
290.71724354
 31
0.0
100
AcDbText
 73
         3
  0
TEXT
  5
202
100
AcDbEntity
  8
STANDARD
390
0
100
AcDbText
 10
178.7730988598
 20
288.48599354
 30
0.0
 40
2.23125
  1
4
 41
1.5479225906
  7
Arial
 72
         1
 11
180.5
 21
290.71724354
 31
0.0
100
AcDbText
 73
         3
  0
LINE
  5
203
100
AcDbEntity
  8
STANDARD
390
0
100
AcDbLine
 10
205.0
 20
292.0
 30
0.0
 11
205.0
 21
287.0
 31
0.0
  0
LINE
  5
204
100
AcDbEntity
  8
STANDARD
390
0
100
AcDbLine
 10
205.0
 20
5.0
 30
0.0
 11
15.0
 21
5.0
 31
0.0
  0
LINE
  5
205
100
AcDbEntity
  8
STANDARD
390
0
100
AcDbLine
 10
15.0
 20
5.0
 30
0.0
 11
15.0
 21
287.0
 31
0.0
  0
LINE
  5
206
100
AcDbEntity
  8
STANDARD
390
0
100
AcDbLine
 10
15.0
 20
292.0
 30
0.0
 11
205.0
 21
292.0
 31
0.0
  0
LINE
  5
207
100
AcDbEntity
  8
STANDARD
390
0
100
AcDbLine
 10
1.0
 20
1.0
 30
0.0
 11
1.0
 21
296.0
 31
0.0
  0
LINE
  5
208
100
AcDbEntity
  8
STANDARD
390
0
100
AcDbLine
 10
209.0
 20
1.0
 30
0.0
 11
1.0
 21
1.0
 31
0.0
  0
LINE
  5
209
100
AcDbEntity
  8
STANDARD
390
0
100
AcDbLine
 10
209.0
 20
296.0
 30
0.0
 11
209.0
 21
1.0
 31
0.0
  0
LINE
  5
20A
100
AcDbEntity
  8
STANDARD
390
0
100
AcDbLine
 10
1.0
 20
296.0
 30
0.0
 11
209.0
 21
296.0
 31
0.0
  0
LINE
  5
20B
100
AcDbEntity
  8
STANDARD
390
0
100
AcDbLine
 10
15.0
 20
287.0
 30
0.0
 11
15.0
 21
292.0
 31
0.0
  0
LINE
  5
20C
100
AcDbEntity
  8
STANDARD
390
0
100
AcDbLine
 10
205.0
 20
287.0
 30
0.0
 11
205.0
 21
5.0
 31
0.0
  0
MTEXT
  5
20D
100
AcDbEntity
  8
STANDARD
390
0
100
AcDbMText
 10
203.6063292805
 20
81.4222772661
 30
0.0
 40
1.59375
 41
0.0
 71
         1
 72
         1
  1

  7
Arial
 11
0.0
 21
-1.0
 31
0.0
 73
         1
 44
1.0352941176
  0
MTEXT
  5
20E
100
AcDbEntity
  8
STANDARD
390
0
100
AcDbMText
 10
116.6968769253
 20
27.5871143065
 30
0.0
 40
1.59375
 41
0.0
 71
         1
 72
         1
  1

  7
Arial
 11
0.0
 21
-1.0
 31
0.0
 73
         1
 44
1.0352941176
  0
MTEXT
  5
20F
100
AcDbEntity
  8
STANDARD
390
0
100
AcDbMText
 10
203.6063292805
 20
125.7560948498
 30
0.0
 40
1.59375
 41
0.0
 71
         1
 72
         1
  1

  7
Arial
 11
0.0
 21
-1.0
 31
0.0
 73
         1
 44
1.0352941176
  0
LINE
  5
210
100
AcDbEntity
  8
STANDARD
390
0
100
AcDbLine
 10
205.0
 20
182.1150997151
 30
0.0
 11
205.0
 21
5.1236467236
 31
0.0
  0
LINE
  5
211
100
AcDbEntity
  8
STANDARD
370
         0
390
0
100
AcDbLine
 10
127.305982906
 20
34.4
 30
0.0
 11
127.305982906
 21
5.0
 31
0.0
  0
LINE
  5
212
100
AcDbEntity
  8
STANDARD
370
         0
390
0
100
AcDbLine
 10
81.105982906
 20
34.4
 30
0.0
 11
205.0
 21
34.4
 31
0.0
  0
LINE
  5
213
100
AcDbEntity
  8
STANDARD
370
         0
390
0
100
AcDbLine
 10
81.105982906
 20
27.4
 30
0.0
 11
205.0
 21
27.4
 31
0.0
  0
LINE
  5
214
100
AcDbEntity
  8
STANDARD
370
         0
390
0
100
AcDbLine
 10
81.105982906
 20
12.0
 30
0.0
 11
205.0
 21
12.0
 31
0.0
  0
LINE
  5
215
100
AcDbEntity
  8
STANDARD
370
         0
390
0
100
AcDbLine
 10
81.105982906
 20
34.4
 30
0.0
 11
81.105982906
 21
5.0
 31
0.0
  0
LINE
  5
216
100
AcDbEntity
  8
STANDARD
370
         0
390
0
100
AcDbLine
 10
165.105982906
 20
34.4
 30
0.0
 11
165.105982906
 21
27.4
 31
0.0
  0
TEXT
  5
217
100
AcDbEntity
  8
BESCHRIFTUNG
390
0
100
AcDbText
 10
82.2010860399
 20
29.1386
 30
0.0
 40
3.3
  1
Stellwerk HMM
 41
1.3758039542
 51
15.0
  7
Arial
 11
82.2010860399
 21
32.4386
 31
0.0
100
AcDbText
 73
         3
  0
TEXT
  5
218
100
AcDbEntity
  8
BESCHRIFTUNG
390
0
100
AcDbText
 10
128.6210415954
 20
21.6601111111
 30
0.0
 40
3.3
  1
Hebel DE mit Schloss
 41
1.1301628061
 51
15.0
  7
Arial
 11
128.6210415954
 21
24.9601111111
 31
0.0
100
AcDbText
 73
         3
  0
TEXT
  5
219
100
AcDbEntity
  8
BESCHRIFTUNG
390
0
100
AcDbText
 10
82.2010860399
 20
6.9230888889
 30
0.0
 40
3.3
  1
Dateiname
 41
1.1437088374
 51
15.0
  7
Arial
 11
82.2010860399
 21
10.2230888889
 31
0.0
100
AcDbText
 73
         3
  0
TEXT
  5
21A
100
AcDbEntity
  8
BESCHRIFTUNG
390
0
100
AcDbText
 10
82.4210415954
 20
21.6601111111
 30
0.0
 40
3.3
  1
Bl. 3203-3204 Pv
 41
1.1437204726
 51
15.0
  7
Arial
 11
82.4210415954
 21
24.9601111111
 31
0.0
100
AcDbText
 73
         3
  0
TEXT
  5
21B
100
AcDbEntity
  8
BESCHRIFTUNG
390
0
100
AcDbText
 10
166.2010860399
 20
29.1386
 30
0.0
 40
3.3
  1
Maßstab 1:1
 41
1.1437192123
 51
15.0
  7
Arial
 11
166.2010860399
 21
32.4386
 31
0.0
100
AcDbText
 73
         3
  0
ENDSEC
  0
SECTION
  2
OBJECTS
  0
DICTIONARY
  5
19
100
AcDbDictionary
280
         0
281
         1
  3
ACAD_GROUP
350
1A
  3
ACAD_MLINESTYLE
350
1B
  3
ACAD_LAYOUT
350
1E
  3
ACAD_PLOTSETTINGS
350
22
  3
ACAD_PLOTSTYLENAME
350
1F
  3
ACAD_WIPEOUT_VARS
350
23
  0
DICTIONARY
  5
1A
102
{ACAD_REACTORS
330
19
102
}
100
AcDbDictionary
280
         0
281
         1
  0
DICTIONARY
  5
1B
102
{ACAD_REACTORS
330
19
102
}
100
AcDbDictionary
280
         0
281
         1
  3
Standard
350
1C
  0
MLINESTYLE
  5
1C
102
{ACAD_REACTORS
330
1B
102
}
100
AcDbMlineStyle
  2
Standard
 70
         0
  3

 62
         0
 51
90.0
 52
90.0
 71
         2
 49
0.5
 62
       256
  6
ByLayer
 49
-0.5
 62
       256
  6
ByLayer
  0
ACDBDICTIONARYWDFLT
  5
1F
102
{ACAD_REACTORS
330
19
102
}
100
AcDbDictionary
281
         1
  3
Normal
350
1D
100
AcDbDictionaryWithDefault
340
1D
  0
ACDBPLACEHOLDER
  5
1D
102
{ACAD_REACTORS
330
1F
102
}
  0
LAYOUT
  5
20
102
{ACAD_REACTORS
330
1E
102
}
100
AcDbPlotSettings
  1

  2

  4

  6

 40
0.0
 41
0.0
 42
0.0
 43
0.0
 44
0.0
 45
0.0
 46
0.0
 47
0.0
 48
0.0
 49
0.0
140
0.0
141
0.0
142
1.0
143
1.0
 70
      1024
 72
         0
 73
         0
 74
         0
  7

 75
         0
147
1.0
148
0.0
149
0.0
100
AcDbLayout
  1
Model
 70
         0
 71
         0
 10
0.0
 20
0.0
 11
0.0
 21
0.0
 12
0.0
 22
0.0
 32
0.0
 14
0.0
 24
0.0
 34
0.0
 15
0.0
 25
0.0
 35
0.0
146
0.0
 13
0.0
 23
0.0
 33
0.0
 16
0.0
 26
0.0
 36
0.0
 17
0.0
 27
0.0
 37
0.0
 76
         0
330
A
331
0
345
0
346
0
  0
LAYOUT
  5
21
102
{ACAD_REACTORS
330
1E
102
}
100
AcDbPlotSettings
  1

  2

  4

  6

 40
0.0
 41
0.0
 42
0.0
 43
0.0
 44
0.0
 45
0.0
 46
0.0
 47
0.0
 48
0.0
 49
0.0
140
0.0
141
0.0
142
1.0
143
1.0
 70
         0
 72
         0
 73
         0
 74
         0
  7

 75
         0
147
1.0
148
0.0
149
0.0
100
AcDbLayout
  1
Layout1
 70
         0
 71
         0
 10
0.0
 20
0.0
 11
0.0
 21
0.0
 12
0.0
 22
0.0
 32
0.0
 14
0.0
 24
0.0
 34
0.0
 15
0.0
 25
0.0
 35
0.0
146
0.0
 13
0.0
 23
0.0
 33
0.0
 16
0.0
 26
0.0
 36
0.0
 17
0.0
 27
0.0
 37
0.0
 76
         0
330
B
331
0
345
0
346
0
  0
DICTIONARY
  5
1E
102
{ACAD_REACTORS
330
19
102
}
100
AcDbDictionary
280
         0
281
         1
  3
Layout1
350
21
  3
Model
350
20
  0
DICTIONARY
  5
22
102
{ACAD_REACTORS
330
19
102
}
100
AcDbDictionary
280
         0
281
         1
  0
WIPEOUTVARIABLES
  5
23
100
AcDbWipeoutVariables
 70
         1
  0
ENDSEC
  0
EOF
