  0
SECTION
  2
HEADER
  9
$ACADVER
  1
AC1015
  9
$ACADMAINTVER
 70
         6
  9
$DWGCODEPAGE
  3
ANSI_1252
  9
$INSBASE
 10
0.0
 20
0.0
 30
0.0
  9
$EXTMIN
 10
-115.074432373
 20
0.0
 30
0.0
  9
$EXTMAX
 10
210.0
 20
297.0
 30
0.0
  9
$LIMMIN
 10
-115.074432373
 20
0.0
  9
$LIMMAX
 10
210.0
 20
297.0
  9
$ORTHOMODE
 70
         0
  9
$REGENMODE
 70
         1
  9
$FILLMODE
 70
         1
  9
$QTEXTMODE
 70
         0
  9
$MIRRTEXT
 70
         1
  9
$LTSCALE
 40
8.1268608093
  9
$ATTMODE
 70
         1
  9
$TEXTSIZE
 40
0.2
  9
$TRACEWID
 40
0.05
  9
$TEXTSTYLE
  7
Standard
  9
$CLAYER
  8
0
  9
$CELTYPE
  6
CONTINUOUS
  9
$CECOLOR
 62
       256
  9
$CELTSCALE
 40
1.0
  9
$DISPSILH
 70
         0
  9
$DIMSCALE
 40
1.0
  9
$DIMASZ
 40
0.18
  9
$DIMEXO
 40
0.0625
  9
$DIMDLI
 40
0.38
  9
$DIMRND
 40
0.0
  9
$DIMDLE
 40
0.0
  9
$DIMEXE
 40
0.18
  9
$DIMTP
 40
0.0
  9
$DIMTM
 40
0.0
  9
$DIMTXT
 40
3.0
  9
$DIMCEN
 40
0.09
  9
$DIMTSZ
 40
0.0
  9
$DIMTOL
 70
         0
  9
$DIMLIM
 70
         0
  9
$DIMTIH
 70
         1
  9
$DIMTOH
 70
         1
  9
$DIMSE1
 70
         0
  9
$DIMSE2
 70
         0
  9
$DIMTAD
 70
         1
  9
$DIMZIN
 70
         0
  9
$DIMBLK
  1

  9
$DIMASO
 70
         1
  9
$DIMSHO
 70
         1
  9
$DIMPOST
  1
<>
  9
$DIMAPOST
  1

  9
$DIMALT
 70
         0
  9
$DIMALTD
 70
         2
  9
$DIMALTF
 40
25.4
  9
$DIMLFAC
 40
1.0
  9
$DIMTOFL
 70
         0
  9
$DIMTVP
 40
0.0
  9
$DIMTIX
 70
         0
  9
$DIMSOXD
 70
         0
  9
$DIMSAH
 70
         0
  9
$DIMBLK1
  1

  9
$DIMBLK2
  1

  9
$DIMSTYLE
  2
Standard
  9
$DIMCLRD
 70
         0
  9
$DIMCLRE
 70
         0
  9
$DIMCLRT
 70
         0
  9
$DIMTFAC
 40
1.0
  9
$DIMGAP
 40
0.09
  9
$DIMJUST
 70
         0
  9
$DIMSD1
 70
         0
  9
$DIMSD2
 70
         0
  9
$DIMTOLJ
 70
         1
  9
$DIMTZIN
 70
         0
  9
$DIMALTZ
 70
         0
  9
$DIMALTTZ
 70
         0
  9
$DIMUPT
 70
         0
  9
$DIMDEC
 70
         4
  9
$DIMTDEC
 70
         4
  9
$DIMALTU
 70
         2
  9
$DIMALTTD
 70
         2
  9
$DIMTXSTY
  7
Standard
  9
$DIMAUNIT
 70
         0
  9
$DIMADEC
 70
         0
  9
$DIMALTRND
 40
0.0
  9
$DIMAZIN
 70
         0
  9
$DIMDSEP
 70
         0
  9
$DIMATFIT
 70
         3
  9
$DIMFRAC
 70
         0
  9
$DIMLDRBLK
  1

  9
$DIMLUNIT
 70
         2
  9
$DIMLWD
 70
         0
  9
$DIMLWE
 70
         0
  9
$DIMTMOVE
 70
         0
  9
$LUNITS
 70
         2
  9
$LUPREC
 70
         4
  9
$SKETCHINC
 40
0.1
  9
$FILLETRAD
 40
0.0
  9
$AUNITS
 70
         0
  9
$AUPREC
 70
         0
  9
$MENU
  1
acad
  9
$ELEVATION
 40
0.0
  9
$PELEVATION
 40
0.0
  9
$THICKNESS
 40
0.0
  9
$LIMCHECK
 70
         0
  9
$CHAMFERA
 40
0.0
  9
$CHAMFERB
 40
0.0
  9
$CHAMFERC
 40
0.0
  9
$CHAMFERD
 40
0.0
  9
$SKPOLY
 70
         0
  9
$TDCREATE
 40
0.000000000
  9
$TDUCREATE
 40
0.000000000
  9
$TDUPDATE
 40
0.000000000
  9
$TDUUPDATE
 40
0.000000000
  9
$TDINDWG
 40
0.0000000000
  9
$TDUSRTIMER
 40
0.0000000000
  9
$USRTIMER
 70
         1
  9
$ANGBASE
 50
0.0
  9
$ANGDIR
 70
         0
  9
$PDMODE
 70
         0
  9
$PDSIZE
 40
0.0
  9
$PLINEWID
 40
0.0
  9
$SPLFRAME
 70
         0
  9
$SPLINETYPE
 70
         6
  9
$SPLINESEGS
 70
         8
  9
$HANDSEED
  5
183
  9
$SURFTAB1
 70
         6
  9
$SURFTAB2
 70
         6
  9
$SURFTYPE
 70
         6
  9
$SURFU
 70
         6
  9
$SURFV
 70
         6
  9
$UCSBASE
  2

  9
$UCSNAME
  2

  9
$UCSORG
 10
0.0
 20
0.0
 30
0.0
  9
$UCSXDIR
 10
1.0
 20
0.0
 30
0.0
  9
$UCSYDIR
 10
0.0
 20
1.0
 30
0.0
  9
$UCSORTHOREF
  2

  9
$UCSORTHOVIEW
 70
         0
  9
$UCSORGTOP
 10
0.0
 20
0.0
 30
0.0
  9
$UCSORGBOTTOM
 10
0.0
 20
0.0
 30
0.0
  9
$UCSORGLEFT
 10
0.0
 20
0.0
 30
0.0
  9
$UCSORGRIGHT
 10
0.0
 20
0.0
 30
0.0
  9
$UCSORGFRONT
 10
0.0
 20
0.0
 30
0.0
  9
$UCSORGBACK
 10
0.0
 20
0.0
 30
0.0
  9
$PUCSBASE
  2

  9
$PUCSNAME
  2

  9
$PUCSORG
 10
0.0
 20
0.0
 30
0.0
  9
$PUCSXDIR
 10
1.0
 20
0.0
 30
0.0
  9
$PUCSYDIR
 10
0.0
 20
1.0
 30
0.0
  9
$PUCSORTHOREF
  2

  9
$PUCSORTHOVIEW
 70
         0
  9
$PUCSORGTOP
 10
0.0
 20
0.0
 30
0.0
  9
$PUCSORGBOTTOM
 10
0.0
 20
0.0
 30
0.0
  9
$PUCSORGLEFT
 10
0.0
 20
0.0
 30
0.0
  9
$PUCSORGRIGHT
 10
0.0
 20
0.0
 30
0.0
  9
$PUCSORGFRONT
 10
0.0
 20
0.0
 30
0.0
  9
$PUCSORGBACK
 10
0.0
 20
0.0
 30
0.0
  9
$USERI1
 70
         0
  9
$USERI2
 70
         0
  9
$USERI3
 70
         0
  9
$USERI4
 70
         0
  9
$USERI5
 70
         0
  9
$USERR1
 40
0.0
  9
$USERR2
 40
0.0
  9
$USERR3
 40
0.0
  9
$USERR4
 40
0.0
  9
$USERR5
 40
0.0
  9
$WORLDVIEW
 70
         1
  9
$SHADEDGE
 70
         3
  9
$SHADEDIF
 70
        70
  9
$TILEMODE
 70
         1
  9
$MAXACTVP
 70
        16
  9
$PINSBASE
 10
0.0
 20
0.0
 30
0.0
  9
$PLIMCHECK
 70
         0
  9
$PEXTMIN
 10
1.0000000000E+20
 20
1.0000000000E+20
 30
1.0000000000E+20
  9
$PEXTMAX
 10
-1.0000000000E+20
 20
-1.0000000000E+20
 30
-1.0000000000E+20
  9
$PLIMMIN
 10
0.0
 20
0.0
  9
$PLIMMAX
 10
12.0
 20
9.0
  9
$UNITMODE
 70
         0
  9
$VISRETAIN
 70
         0
  9
$PLINEGEN
 70
         1
  9
$PSLTSCALE
 70
         0
  9
$TREEDEPTH
 70
      3020
  9
$CMLSTYLE
  2
Standard
  9
$CMLJUST
 70
         0
  9
$CMLSCALE
 40
1.0
  9
$PROXYGRAPHICS
 70
         0
  9
$MEASUREMENT
 70
         1
  9
$CELWEIGHT
370
         0
  9
$ENDCAPS
280
         0
  9
$JOINSTYLE
280
         0
  9
$LWDISPLAY
290
         0
  9
$INSUNITS
 70
         0
  9
$HYPERLINKBASE
  1

  9
$STYLESHEET
  1

  9
$XEDIT
290
         1
  9
$CEPSNTYPE
380
         0
  9
$PSTYLEMODE
290
         1
  9
$FINGERPRINTGUID
  2

  9
$VERSIONGUID
  2

  9
$EXTNAMES
290
         1
  9
$PSVPSCALE
 40
0.0
  0
ENDSEC
  0
SECTION
  2
CLASSES
  0
CLASS
  1
LWPOLYLINE
  2
AcDbPolyline
  3
AutoCAD 2000
 90
        0
280
         0
281
         1
  0
CLASS
  1
IMAGE
  2
AcDbRasterImage
  3
ISM
 90
      127
280
         0
281
         1
  0
CLASS
  1
OLE2FRAME
  2
AcDbOle2Frame
  3
AutoCAD 2000
 90
        0
280
         0
281
         1
  0
CLASS
  1
HATCH
  2
AcDbHatch
  3
AutoCAD 2000
 90
        0
280
         0
281
         1
  0
CLASS
  1
DICTIONARYVAR
  2
AcDbDictionaryVar
  3
AutoCAD 2000
 90
        0
280
         0
281
         0
  0
CLASS
  1
RASTERVARIABLES
  2
AcDbRasterVariables
  3
ISM
 90
        0
280
         0
281
         0
  0
CLASS
  1
IMAGEDEF
  2
AcDbRasterImageDef
  3
ISM
 90
        0
280
         0
281
         0
  0
CLASS
  1
IMAGEDEF_REACTOR
  2
AcDbRasterImageDefReactor
  3
ISM
 90
        1
280
         0
281
         0
  0
CLASS
  1
IDBUFFER
  2
AcDbIdBuffer
  3
AutoCAD 2000
 90
        0
280
         0
281
         0
  0
CLASS
  1
SPATIAL_FILTER
  2
AcDbSpatialFilter
  3
AutoCAD 2000
 90
        0
280
         0
281
         0
  0
CLASS
  1
XRECORD
  2
AcDbXrecord
  3
AutoCAD 2000
 90
        0
280
         0
281
         0
  0
CLASS
  1
SORTENTSTABLE
  2
AcDbSortentsTable
  3
AutoCAD 2000
 90
        0
280
         0
281
         0
  0
CLASS
  1
LAYER_INDEX
  2
AcDbLayerIndex
  3
AutoCAD 2000
 90
        0
280
         0
281
         0
  0
CLASS
  1
SPATIAL_INDEX
  2
AcDbSpatialIndex
  3
AutoCAD 2000
 90
        0
280
         0
281
         0
  0
CLASS
  1
OBJECT_PTR
  2
CAseDLPNTableRecord
  3
"ASE-LPNTableRecord"
 90
        1
280
         0
281
         0
  0
CLASS
  1
LAYOUT
  2
AcDbLayout
  3
AutoCAD 2000
 90
        0
280
         0
281
         0
  0
CLASS
  1
PLOTSETTINGS
  2
AcDbPlotSettings
  3
AutoCAD 2000
 90
        0
280
         0
281
         0
  0
CLASS
  1
ACDBDICTIONARYWDFLT
  2
AcDbDictionaryWithDefault
  3
AutoCAD 2000
 90
        0
280
         0
281
         0
  0
CLASS
  1
ACDBPLACEHOLDER
  2
AcDbPlaceHolder
  3
AutoCAD 2000
 90
        0
280
         0
281
         0
  0
CLASS
  1
VBA_PROJECT
  2
AcDbVbaProject
  3
acadvba
 90
        0
280
         0
281
         0
  0
CLASS
  1
WIPEOUT
  2
AcDbWipeout
  3
WipeOut|AutoCAD Express Tool|expresstools@autodesk.com
 90
      127
280
         0
281
         1
  0
CLASS
  1
WIPEOUTVARIABLES
  2
AcDbWipeoutVariables
  3
WipeOut|AutoCAD Express Tool|expresstools@autodesk.com
 90
        0
280
         0
281
         0
  0
CLASS
  1
RTEXT
  2
RText
  3
RText|AutoCAD Express Tool|expresstools@autodesk.com
 90
        0
280
         0
281
         1
  0
CLASS
  1
ARCALIGNEDTEXT
  2
AcDbArcAlignedText
  3
ATEXT|AutoCAD Express Tool|expresstools@autodesk.com
 90
        0
280
         0
281
         1
  0
ENDSEC
  0
SECTION
  2
TABLES
  0
TABLE
  2
VPORT
  5
7
100
AcDbSymbolTable
 70
         1
  0
VPORT
  5
15
100
AcDbSymbolTableRecord
100
AcDbViewportTableRecord
  2
*ACTIVE
 70
         0
 10
0.0
 20
0.0
 11
1.0
 21
1.0
 12
47.4627836039
 22
148.5
 13
0.0
 23
0.0
 14
1.0
 24
1.0
 15
0.0
 25
0.0
 16
0.0
 26
0.0
 36
1.0
 17
0.0
 27
0.0
 37
0.0
 40
277.2159467177
 41
1.0
 42
50.0
 43
0.0
 44
0.0
 50
0.0
 51
0.0
 71
         0
 72
       100
 73
         1
 74
         1
 75
         0
 76
         0
 77
         0
 78
         0
281
         0
 65
         0
110
0.0
120
0.0
130
0.0
111
1.0
121
0.0
131
0.0
112
0.0
122
1.0
132
0.0
345
0
346
0
 79
         0
146
0.0
  0
ENDTAB
  0
TABLE
  2
LTYPE
  5
4
100
AcDbSymbolTable
 70
        12
  0
LTYPE
  5
11
100
AcDbSymbolTableRecord
100
AcDbLinetypeTableRecord
  2
ByBlock
 70
        64
  3

 72
        65
 73
         0
 40
0.0
  0
LTYPE
  5
12
100
AcDbSymbolTableRecord
100
AcDbLinetypeTableRecord
  2
ByLayer
 70
        64
  3

 72
        65
 73
         0
 40
0.0
  0
LTYPE
  5
13
100
AcDbSymbolTableRecord
100
AcDbLinetypeTableRecord
  2
CONTINUOUS
 70
        64
  3
Solid Line
 72
        65
 73
         0
 40
0.0
  0
LTYPE
  5
24
100
AcDbSymbolTableRecord
100
AcDbLinetypeTableRecord
  2
DOT
 70
        64
  3
. . . . . . . . . . . . . . . . . . . . . . 
 72
        65
 73
         2
 40
0.25
 49
0.0
 74
         0
 49
-0.25
 74
         0
  0
LTYPE
  5
25
100
AcDbSymbolTableRecord
100
AcDbLinetypeTableRecord
  2
HIDDEN
 70
         0
  3
_ _ _ _ _ _ _ _ _ _ _ _ _ _ _ _ _ _ _ _ _ _ _
 72
        65
 73
         2
 40
0.375
 49
0.25
 74
         0
 49
-0.125
 74
         0
  0
LTYPE
  5
26
100
AcDbSymbolTableRecord
100
AcDbLinetypeTableRecord
  2
DASHDOT
 70
         0
  3
__ . __ . __ . __ . __ . __ . __ . __ . __ . __
 72
        65
 73
         4
 40
1.0
 49
0.5
 74
         0
 49
-0.25
 74
         0
 49
0.0
 74
         0
 49
-0.25
 74
         0
  0
LTYPE
  5
27
100
AcDbSymbolTableRecord
100
AcDbLinetypeTableRecord
  2
DIVIDE
 70
         0
  3
__ . . __ . . __ . . __ . . __ . . __ . . __
 72
        65
 73
         6
 40
1.25
 49
0.5
 74
         0
 49
-0.25
 74
         0
 49
0.0
 74
         0
 49
-0.25
 74
         0
 49
0.0
 74
         0
 49
-0.25
 74
         0
  0
LTYPE
  5
28
100
AcDbSymbolTableRecord
100
AcDbLinetypeTableRecord
  2
DASHED
 70
         0
  3
__ __ __ __ __ __ __ __ __ __ __ __ __ __ __
 72
        65
 73
         2
 40
0.75
 49
0.5
 74
         0
 49
-0.25
 74
         0
  0
LTYPE
  5
29
100
AcDbSymbolTableRecord
100
AcDbLinetypeTableRecord
  2
BORDER
 70
         0
  3
__ __ . __ __ . __ __ . __ __ . __ __ .
 72
        65
 73
         6
 40
1.75
 49
0.5
 74
         0
 49
-0.25
 74
         0
 49
0.5
 74
         0
 49
-0.25
 74
         0
 49
0.0
 74
         0
 49
-0.25
 74
         0
  0
LTYPE
  5
2A
100
AcDbSymbolTableRecord
100
AcDbLinetypeTableRecord
  2
CENTER
 70
         0
  3
____ _ ____ _ ____ _ ____ _ ____ _ ____
 72
        65
 73
         4
 40
2.0
 49
1.25
 74
         0
 49
-0.25
 74
         0
 49
0.25
 74
         0
 49
-0.25
 74
         0
  0
LTYPE
  5
2B
100
AcDbSymbolTableRecord
100
AcDbLinetypeTableRecord
  2
DOT2
 70
         0
  3
........................................
 72
        65
 73
         2
 40
0.125
 49
0.0
 74
         0
 49
-0.125
 74
         0
  0
LTYPE
  5
2C
100
AcDbSymbolTableRecord
100
AcDbLinetypeTableRecord
  2
PHANTOM
 70
         0
  3
______  __  __  ______  __  __  ______
 72
        65
 73
         6
 40
2.5
 49
1.25
 74
         0
 49
-0.25
 74
         0
 49
0.25
 74
         0
 49
-0.25
 74
         0
 49
0.25
 74
         0
 49
-0.25
 74
         0
  0
ENDTAB
  0
TABLE
  2
LAYER
  5
2
100
AcDbSymbolTable
 70
       142
  0
LAYER
  5
14
100
AcDbSymbolTableRecord
100
AcDbLayerTableRecord
  2
0
 70
         0
 62
         7
  6
CONTINUOUS
290
         1
370
        -3
390
1D
  0
LAYER
  5
33
100
AcDbSymbolTableRecord
100
AcDbLayerTableRecord
  2
BESCHRIFTUNG
 70
        64
 62
         7
  6
CONTINUOUS
290
         1
370
        25
390
1D
  0
LAYER
  5
34
100
AcDbSymbolTableRecord
100
AcDbLayerTableRecord
  2
SCHRAFFUR
 70
        64
 62
         7
  6
CONTINUOUS
290
         1
370
        25
390
1D
  0
LAYER
  5
35
100
AcDbSymbolTableRecord
100
AcDbLayerTableRecord
  2
MASSTEXTE
 70
        64
 62
       212
  6
CONTINUOUS
290
         1
370
        25
390
1D
  0
LAYER
  5
36
100
AcDbSymbolTableRecord
100
AcDbLayerTableRecord
  2
MASSLINIEN
 70
        64
 62
       172
  6
CONTINUOUS
290
         1
370
        25
390
1D
  0
LAYER
  5
37
100
AcDbSymbolTableRecord
100
AcDbLayerTableRecord
  2
MASSGRENZEN
 70
        64
 62
       172
  6
CONTINUOUS
290
         1
370
        25
390
1D
  0
LAYER
  5
38
100
AcDbSymbolTableRecord
100
AcDbLayerTableRecord
  2
TOLERANZEN
 70
        64
 62
       212
  6
CONTINUOUS
290
         1
370
         0
390
1D
  0
LAYER
  5
39
100
AcDbSymbolTableRecord
100
AcDbLayerTableRecord
  2
BEMASSUNG
 70
        64
 62
         7
  6
CONTINUOUS
290
         1
370
        25
390
1D
  0
LAYER
  5
3A
100
AcDbSymbolTableRecord
100
AcDbLayerTableRecord
  2
HILFSLINIEN
 70
        64
 62
         3
  6
CONTINUOUS
290
         1
370
         0
390
1D
  0
LAYER
  5
3B
100
AcDbSymbolTableRecord
100
AcDbLayerTableRecord
  2
MITTELLINIEN
 70
        64
 62
         5
  6
DASHDOT
290
         1
370
        25
390
1D
  0
LAYER
  5
3C
100
AcDbSymbolTableRecord
100
AcDbLayerTableRecord
  2
BESCHRIFTUNG00
 70
        64
 62
         7
  6
CONTINUOUS
290
         1
370
        25
390
1D
  0
LAYER
  5
3D
100
AcDbSymbolTableRecord
100
AcDbLayerTableRecord
  2
BESCHRIFTUNG0
 70
        64
 62
         7
  6
CONTINUOUS
290
         1
370
        25
390
1D
  0
LAYER
  5
3E
100
AcDbSymbolTableRecord
100
AcDbLayerTableRecord
  2
GEWINDELINIEN
 70
        64
 62
       212
  6
CONTINUOUS
290
         1
370
        25
390
1D
  0
LAYER
  5
3F
100
AcDbSymbolTableRecord
100
AcDbLayerTableRecord
  2
UNSICHTBARE
 70
        64
 62
        92
  6
DASHED
290
         1
370
        25
390
1D
  0
LAYER
  5
40
100
AcDbSymbolTableRecord
100
AcDbLayerTableRecord
  2
VERDECKTE
 70
        64
 62
        92
  6
DASHED
290
         1
370
        25
390
1D
  0
LAYER
  5
41
100
AcDbSymbolTableRecord
100
AcDbLayerTableRecord
  2
LICHTKANTEN
 70
        64
 62
         8
  6
CONTINUOUS
290
         1
370
        25
390
1D
  0
LAYER
  5
42
100
AcDbSymbolTableRecord
100
AcDbLayerTableRecord
  2
SCHNITTVERLAUF
 70
        64
 62
        34
  6
DASHDOT
290
         1
370
        70
390
1D
  0
LAYER
  5
43
100
AcDbSymbolTableRecord
100
AcDbLayerTableRecord
  2
KENNZEICHNUNG
 70
        64
 62
         7
  6
CONTINUOUS
290
         1
370
         0
390
1D
  0
LAYER
  5
44
100
AcDbSymbolTableRecord
100
AcDbLayerTableRecord
  2
PFEILE
 70
        64
 62
         7
  6
CONTINUOUS
290
         1
370
        70
390
1D
  0
LAYER
  5
45
100
AcDbSymbolTableRecord
100
AcDbLayerTableRecord
  2
SCHNITTDARSTELLUNG
 70
        64
 62
         7
  6
CONTINUOUS
290
         1
370
         0
390
1D
  0
LAYER
  5
46
100
AcDbSymbolTableRecord
100
AcDbLayerTableRecord
  2
3201_3R
 70
        64
 62
        14
  6
CONTINUOUS
290
         1
370
         0
390
1D
  0
LAYER
  5
47
100
AcDbSymbolTableRecord
100
AcDbLayerTableRecord
  2
3201_3L
 70
        64
 62
        30
  6
CONTINUOUS
290
         1
370
         0
390
1D
  0
LAYER
  5
48
100
AcDbSymbolTableRecord
100
AcDbLayerTableRecord
  2
3201_1P
 70
        64
 62
        30
  6
CONTINUOUS
290
         1
370
         0
390
1D
  0
LAYER
  5
49
100
AcDbSymbolTableRecord
100
AcDbLayerTableRecord
  2
3201_2P
 70
        64
 62
        30
  6
CONTINUOUS
290
         1
370
         0
390
1D
  0
LAYER
  5
4A
100
AcDbSymbolTableRecord
100
AcDbLayerTableRecord
  2
3201_4P
 70
        64
 62
        30
  6
CONTINUOUS
290
         1
370
         0
390
1D
  0
LAYER
  5
4B
100
AcDbSymbolTableRecord
100
AcDbLayerTableRecord
  2
3201_6L
 70
        64
 62
        30
  6
CONTINUOUS
290
         1
370
         0
390
1D
  0
LAYER
  5
4C
100
AcDbSymbolTableRecord
100
AcDbLayerTableRecord
  2
3201_7L
 70
        64
 62
        30
  6
CONTINUOUS
290
         1
370
         0
390
1D
  0
LAYER
  5
4D
100
AcDbSymbolTableRecord
100
AcDbLayerTableRecord
  2
3201_9P
 70
        64
 62
        30
  6
CONTINUOUS
290
         1
370
         0
390
1D
  0
LAYER
  5
4E
100
AcDbSymbolTableRecord
100
AcDbLayerTableRecord
  2
3201_8R
 70
        64
 62
        14
  6
CONTINUOUS
290
         1
370
         0
390
1D
  0
LAYER
  5
4F
100
AcDbSymbolTableRecord
100
AcDbLayerTableRecord
  2
3201_8L
 70
        64
 62
        30
  6
CONTINUOUS
290
         1
370
         0
390
1D
  0
LAYER
  5
50
100
AcDbSymbolTableRecord
100
AcDbLayerTableRecord
  2
3201_9T
 70
        64
 62
        14
  6
CONTINUOUS
290
         1
370
         0
390
1D
  0
LAYER
  5
51
100
AcDbSymbolTableRecord
100
AcDbLayerTableRecord
  2
3201_11P
 70
        64
 62
        30
  6
CONTINUOUS
290
         1
370
         0
390
1D
  0
LAYER
  5
52
100
AcDbSymbolTableRecord
100
AcDbLayerTableRecord
  2
3201_6R
 70
        64
 62
        14
  6
CONTINUOUS
290
         1
370
         0
390
1D
  0
LAYER
  5
53
100
AcDbSymbolTableRecord
100
AcDbLayerTableRecord
  2
3201_7R
 70
        64
 62
        14
  6
CONTINUOUS
290
         1
370
         0
390
1D
  0
LAYER
  5
54
100
AcDbSymbolTableRecord
100
AcDbLayerTableRecord
  2
3201___ EINZELHEBEL JE
 70
        64
 62
         6
  6
DASHDOT
290
         1
370
         0
390
1D
  0
LAYER
  5
55
100
AcDbSymbolTableRecord
100
AcDbLayerTableRecord
  2
3202_3R
 70
        64
 62
        14
  6
CONTINUOUS
290
         1
370
         0
390
1D
  0
LAYER
  5
56
100
AcDbSymbolTableRecord
100
AcDbLayerTableRecord
  2
3202_3L
 70
        64
 62
        30
  6
CONTINUOUS
290
         1
370
         0
390
1D
  0
LAYER
  5
57
100
AcDbSymbolTableRecord
100
AcDbLayerTableRecord
  2
3202_1P
 70
        64
 62
        30
  6
CONTINUOUS
290
         1
370
         0
390
1D
  0
LAYER
  5
58
100
AcDbSymbolTableRecord
100
AcDbLayerTableRecord
  2
3202_2P
 70
        64
 62
        30
  6
CONTINUOUS
290
         1
370
         0
390
1D
  0
LAYER
  5
59
100
AcDbSymbolTableRecord
100
AcDbLayerTableRecord
  2
3202_4P
 70
        64
 62
        30
  6
CONTINUOUS
290
         1
370
         0
390
1D
  0
LAYER
  5
5A
100
AcDbSymbolTableRecord
100
AcDbLayerTableRecord
  2
3202_6L
 70
        64
 62
        30
  6
CONTINUOUS
290
         1
370
         0
390
1D
  0
LAYER
  5
5B
100
AcDbSymbolTableRecord
100
AcDbLayerTableRecord
  2
3202_7L
 70
        64
 62
        30
  6
CONTINUOUS
290
         1
370
         0
390
1D
  0
LAYER
  5
5C
100
AcDbSymbolTableRecord
100
AcDbLayerTableRecord
  2
3202_9P
 70
        64
 62
        30
  6
CONTINUOUS
290
         1
370
         0
390
1D
  0
LAYER
  5
5D
100
AcDbSymbolTableRecord
100
AcDbLayerTableRecord
  2
3202_8R
 70
        64
 62
        14
  6
CONTINUOUS
290
         1
370
         0
390
1D
  0
LAYER
  5
5E
100
AcDbSymbolTableRecord
100
AcDbLayerTableRecord
  2
3202_8L
 70
        64
 62
        30
  6
CONTINUOUS
290
         1
370
         0
390
1D
  0
LAYER
  5
5F
100
AcDbSymbolTableRecord
100
AcDbLayerTableRecord
  2
3202_9T
 70
        64
 62
        14
  6
CONTINUOUS
290
         1
370
         0
390
1D
  0
LAYER
  5
60
100
AcDbSymbolTableRecord
100
AcDbLayerTableRecord
  2
3202_11P
 70
        64
 62
        30
  6
CONTINUOUS
290
         1
370
         0
390
1D
  0
LAYER
  5
61
100
AcDbSymbolTableRecord
100
AcDbLayerTableRecord
  2
3202_6R
 70
        64
 62
        14
  6
CONTINUOUS
290
         1
370
         0
390
1D
  0
LAYER
  5
62
100
AcDbSymbolTableRecord
100
AcDbLayerTableRecord
  2
3202_7R
 70
        64
 62
        14
  6
CONTINUOUS
290
         1
370
         0
390
1D
  0
LAYER
  5
63
100
AcDbSymbolTableRecord
100
AcDbLayerTableRecord
  2
3202_20T
 70
        64
 62
        14
  6
CONTINUOUS
290
         1
370
         0
390
1D
  0
LAYER
  5
64
100
AcDbSymbolTableRecord
100
AcDbLayerTableRecord
  2
3202_20P
 70
        64
 62
        30
  6
CONTINUOUS
290
         1
370
         0
390
1D
  0
LAYER
  5
65
100
AcDbSymbolTableRecord
100
AcDbLayerTableRecord
  2
3202___ DOPPELHEBEL JE
 70
        64
 62
         6
  6
DASHDOT
290
         1
370
         0
390
1D
  0
LAYER
  5
66
100
AcDbSymbolTableRecord
100
AcDbLayerTableRecord
  2
3203_13P
 70
        64
 62
        30
  6
CONTINUOUS
290
         1
370
        13
390
1D
  0
LAYER
  5
67
100
AcDbSymbolTableRecord
100
AcDbLayerTableRecord
  2
3203_14P
 70
        64
 62
        30
  6
CONTINUOUS
290
         1
370
        13
390
1D
  0
LAYER
  5
68
100
AcDbSymbolTableRecord
100
AcDbLayerTableRecord
  2
3203_11P
 70
        64
 62
        30
  6
CONTINUOUS
290
         1
370
        13
390
1D
  0
LAYER
  5
69
100
AcDbSymbolTableRecord
100
AcDbLayerTableRecord
  2
3203_30P
 70
        64
 62
        30
  6
CONTINUOUS
290
         1
370
        13
390
1D
  0
LAYER
  5
6A
100
AcDbSymbolTableRecord
100
AcDbLayerTableRecord
  2
3203___ EINZELHEBEL JE MIT SCHLOSS
 70
        64
 62
         6
  6
DASHDOT
290
         1
370
         0
390
1D
  0
LAYER
  5
6B
100
AcDbSymbolTableRecord
100
AcDbLayerTableRecord
  2
3204_11P
 70
        64
 62
        30
  6
CONTINUOUS
290
         1
370
        13
390
1D
  0
LAYER
  5
6C
100
AcDbSymbolTableRecord
100
AcDbLayerTableRecord
  2
3204_30P
 70
        64
 62
        30
  6
CONTINUOUS
290
         1
370
        13
390
1D
  0
LAYER
  5
6D
100
AcDbSymbolTableRecord
100
AcDbLayerTableRecord
  2
3204___ DOPPELHEBEL JE MIT SCHLOSS
 70
        64
 62
         6
  6
DASHDOT
290
         1
370
         0
390
1D
  0
LAYER
  5
6E
100
AcDbSymbolTableRecord
100
AcDbLayerTableRecord
  2
3206_1R
 70
        64
 62
        14
  6
CONTINUOUS
290
         1
370
        13
390
1D
  0
LAYER
  5
6F
100
AcDbSymbolTableRecord
100
AcDbLayerTableRecord
  2
3206_3P
 70
        64
 62
        30
  6
CONTINUOUS
290
         1
370
        13
390
1D
  0
LAYER
  5
70
100
AcDbSymbolTableRecord
100
AcDbLayerTableRecord
  2
3206_1L
 70
        64
 62
        30
  6
CONTINUOUS
290
         1
370
        13
390
1D
  0
LAYER
  5
71
100
AcDbSymbolTableRecord
100
AcDbLayerTableRecord
  2
3206_4P
 70
        64
 62
        30
  6
CONTINUOUS
290
         1
370
        13
390
1D
  0
LAYER
  5
72
100
AcDbSymbolTableRecord
100
AcDbLayerTableRecord
  2
3206_2L
 70
        64
 62
        30
  6
CONTINUOUS
290
         1
370
        13
390
1D
  0
LAYER
  5
73
100
AcDbSymbolTableRecord
100
AcDbLayerTableRecord
  2
3206_2R
 70
        64
 62
        14
  6
CONTINUOUS
290
         1
370
        13
390
1D
  0
LAYER
  5
74
100
AcDbSymbolTableRecord
100
AcDbLayerTableRecord
  2
3206_5P
 70
        64
 62
        30
  6
CONTINUOUS
290
         1
370
        13
390
1D
  0
LAYER
  5
75
100
AcDbSymbolTableRecord
100
AcDbLayerTableRecord
  2
3206_5T
 70
        64
 62
        15
  6
CONTINUOUS
290
         1
370
        13
390
1D
  0
LAYER
  5
76
100
AcDbSymbolTableRecord
100
AcDbLayerTableRecord
  2
3206___ EINZELHEBEL JE GRUPPENPFADE
 70
        64
 62
         6
  6
DASHDOT
290
         1
370
         0
390
1D
  0
LAYER
  5
77
100
AcDbSymbolTableRecord
100
AcDbLayerTableRecord
  2
3207_1R
 70
        64
 62
        14
  6
CONTINUOUS
290
         1
370
        13
390
1D
  0
LAYER
  5
78
100
AcDbSymbolTableRecord
100
AcDbLayerTableRecord
  2
3207_3P
 70
        64
 62
        30
  6
CONTINUOUS
290
         1
370
        13
390
1D
  0
LAYER
  5
79
100
AcDbSymbolTableRecord
100
AcDbLayerTableRecord
  2
3207_1L
 70
        64
 62
        30
  6
CONTINUOUS
290
         1
370
        13
390
1D
  0
LAYER
  5
7A
100
AcDbSymbolTableRecord
100
AcDbLayerTableRecord
  2
3207_4P
 70
        64
 62
        30
  6
CONTINUOUS
290
         1
370
        13
390
1D
  0
LAYER
  5
7B
100
AcDbSymbolTableRecord
100
AcDbLayerTableRecord
  2
3207_2L
 70
        64
 62
        30
  6
CONTINUOUS
290
         1
370
        13
390
1D
  0
LAYER
  5
7C
100
AcDbSymbolTableRecord
100
AcDbLayerTableRecord
  2
3207_2R
 70
        64
 62
        14
  6
CONTINUOUS
290
         1
370
        13
390
1D
  0
LAYER
  5
7D
100
AcDbSymbolTableRecord
100
AcDbLayerTableRecord
  2
3207_5P
 70
        64
 62
        30
  6
CONTINUOUS
290
         1
370
        13
390
1D
  0
LAYER
  5
7E
100
AcDbSymbolTableRecord
100
AcDbLayerTableRecord
  2
3207_5T
 70
        64
 62
        15
  6
CONTINUOUS
290
         1
370
        13
390
1D
  0
LAYER
  5
7F
100
AcDbSymbolTableRecord
100
AcDbLayerTableRecord
  2
3207___ DOPPELHEBEL JE GRUPPENPFADE
 70
        64
 62
         6
  6
DASHDOT
290
         1
370
         0
390
1D
  0
LAYER
  5
80
100
AcDbSymbolTableRecord
100
AcDbLayerTableRecord
  2
3208_1R
 70
        64
 62
        14
  6
CONTINUOUS
290
         1
370
        13
390
1D
  0
LAYER
  5
81
100
AcDbSymbolTableRecord
100
AcDbLayerTableRecord
  2
3208_3P
 70
        64
 62
        30
  6
CONTINUOUS
290
         1
370
        13
390
1D
  0
LAYER
  5
82
100
AcDbSymbolTableRecord
100
AcDbLayerTableRecord
  2
3208_1L
 70
        64
 62
        30
  6
CONTINUOUS
290
         1
370
        13
390
1D
  0
LAYER
  5
83
100
AcDbSymbolTableRecord
100
AcDbLayerTableRecord
  2
3208_4P
 70
        64
 62
        30
  6
CONTINUOUS
290
         1
370
        13
390
1D
  0
LAYER
  5
84
100
AcDbSymbolTableRecord
100
AcDbLayerTableRecord
  2
3208_2L
 70
        64
 62
        30
  6
CONTINUOUS
290
         1
370
        13
390
1D
  0
LAYER
  5
85
100
AcDbSymbolTableRecord
100
AcDbLayerTableRecord
  2
3208_2R
 70
        64
 62
        14
  6
CONTINUOUS
290
         1
370
        13
390
1D
  0
LAYER
  5
86
100
AcDbSymbolTableRecord
100
AcDbLayerTableRecord
  2
3208_5P
 70
        64
 62
        30
  6
CONTINUOUS
290
         1
370
        13
390
1D
  0
LAYER
  5
87
100
AcDbSymbolTableRecord
100
AcDbLayerTableRecord
  2
3208_5T
 70
        64
 62
        15
  6
CONTINUOUS
290
         1
370
        13
390
1D
  0
LAYER
  5
88
100
AcDbSymbolTableRecord
100
AcDbLayerTableRecord
  2
3208___ EINZELHEBEL JE MIT SCHLOSS GRUPPENPFADE
 70
        64
 62
         6
  6
DASHDOT
290
         1
370
         0
390
1D
  0
LAYER
  5
89
100
AcDbSymbolTableRecord
100
AcDbLayerTableRecord
  2
3209_1R
 70
        64
 62
        14
  6
CONTINUOUS
290
         1
370
        13
390
1D
  0
LAYER
  5
8A
100
AcDbSymbolTableRecord
100
AcDbLayerTableRecord
  2
3209_3P
 70
        64
 62
        30
  6
CONTINUOUS
290
         1
370
        13
390
1D
  0
LAYER
  5
8B
100
AcDbSymbolTableRecord
100
AcDbLayerTableRecord
  2
3209_1L
 70
        64
 62
        30
  6
CONTINUOUS
290
         1
370
        13
390
1D
  0
LAYER
  5
8C
100
AcDbSymbolTableRecord
100
AcDbLayerTableRecord
  2
3209_4P
 70
        64
 62
        30
  6
CONTINUOUS
290
         1
370
        13
390
1D
  0
LAYER
  5
8D
100
AcDbSymbolTableRecord
100
AcDbLayerTableRecord
  2
3209_2L
 70
        64
 62
        30
  6
CONTINUOUS
290
         1
370
        13
390
1D
  0
LAYER
  5
8E
100
AcDbSymbolTableRecord
100
AcDbLayerTableRecord
  2
3209_2R
 70
        64
 62
        14
  6
CONTINUOUS
290
         1
370
        13
390
1D
  0
LAYER
  5
8F
100
AcDbSymbolTableRecord
100
AcDbLayerTableRecord
  2
3209_5P
 70
        64
 62
        30
  6
CONTINUOUS
290
         1
370
        13
390
1D
  0
LAYER
  5
90
100
AcDbSymbolTableRecord
100
AcDbLayerTableRecord
  2
3209_5T
 70
        64
 62
        15
  6
CONTINUOUS
290
         1
370
        13
390
1D
  0
LAYER
  5
91
100
AcDbSymbolTableRecord
100
AcDbLayerTableRecord
  2
3209___ DOPPELHEBEL JE MIT SCHLOSS GRUPPENPFADE
 70
        64
 62
         6
  6
DASHDOT
290
         1
370
         0
390
1D
  0
LAYER
  5
92
100
AcDbSymbolTableRecord
100
AcDbLayerTableRecord
  2
PFADE
 70
        64
 62
        30
  6
CONTINUOUS
290
         1
370
         0
390
1D
  0
LAYER
  5
93
100
AcDbSymbolTableRecord
100
AcDbLayerTableRecord
  2
3201_8 HEBELSCHILDCHEN UMGELEGT
 70
        64
 62
        16
  6
DASHED
290
         1
370
        18
390
1D
  0
LAYER
  5
94
100
AcDbSymbolTableRecord
100
AcDbLayerTableRecord
  2
3201_8 HEBELSCHILDCHEN
 70
        64
 62
        16
  6
CONTINUOUS
290
         1
370
        18
390
1D
  0
LAYER
  5
95
100
AcDbSymbolTableRecord
100
AcDbLayerTableRecord
  2
3201_1-3HEBELBOCK
 70
        64
 62
         7
  6
CONTINUOUS
290
         1
370
        18
390
1D
  0
LAYER
  5
96
100
AcDbSymbolTableRecord
100
AcDbLayerTableRecord
  2
3201_4 HEBELEISEN UMGELEGT
 70
        64
 62
         5
  6
DASHED
290
         1
370
        18
390
1D
  0
LAYER
  5
97
100
AcDbSymbolTableRecord
100
AcDbLayerTableRecord
  2
3201_4 HEBELEISEN
 70
        64
 62
         5
  6
CONTINUOUS
290
         1
370
        18
390
1D
  0
LAYER
  5
98
100
AcDbSymbolTableRecord
100
AcDbLayerTableRecord
  2
3201_9 HEBELROLLE UMGELEGT
 70
        64
 62
       134
  6
DASHED
290
         1
370
        18
390
1D
  0
LAYER
  5
99
100
AcDbSymbolTableRecord
100
AcDbLayerTableRecord
  2
3201_9 HEBELROLLE
 70
        64
 62
       134
  6
CONTINUOUS
290
         1
370
        18
390
1D
  0
LAYER
  5
9A
100
AcDbSymbolTableRecord
100
AcDbLayerTableRecord
  2
3201_11_ 3202_11 WINKELHEBEL UMGELEGT
 70
        64
 62
       190
  6
DASHED
290
         1
370
        18
390
1D
  0
LAYER
  5
9B
100
AcDbSymbolTableRecord
100
AcDbLayerTableRecord
  2
3201_11_ 3202_11 WINKELHEBEL
 70
        64
 62
       190
  6
CONTINUOUS
290
         1
370
        18
390
1D
  0
LAYER
  5
9C
100
AcDbSymbolTableRecord
100
AcDbLayerTableRecord
  2
3201_6 HANDFALLE ANGEZOGEN
 70
        64
 62
        30
  6
HIDDEN
290
         1
370
        18
390
1D
  0
LAYER
  5
9D
100
AcDbSymbolTableRecord
100
AcDbLayerTableRecord
  2
3201_6 HANDFALLE UMGELEGT
 70
        64
 62
        30
  6
DASHED
290
         1
370
        18
390
1D
  0
LAYER
  5
9E
100
AcDbSymbolTableRecord
100
AcDbLayerTableRecord
  2
3201_6 HANDFALLE
 70
        64
 62
        30
  6
CONTINUOUS
290
         1
370
        18
390
1D
  0
LAYER
  5
9F
100
AcDbSymbolTableRecord
100
AcDbLayerTableRecord
  2
3201_7 HEBELKLINKE UMGELEGT
 70
        64
 62
       171
  6
DASHED
290
         1
370
        18
390
1D
  0
LAYER
  5
A0
100
AcDbSymbolTableRecord
100
AcDbLayerTableRecord
  2
3201_7 HEBELKLINKE
 70
        64
 62
       171
  6
CONTINUOUS
290
         1
370
        18
390
1D
  0
LAYER
  5
A1
100
AcDbSymbolTableRecord
100
AcDbLayerTableRecord
  2
3201_10 SEILZUG
 70
        64
 62
        94
  6
DASHDOT
290
         1
370
        18
390
1D
  0
LAYER
  5
A2
100
AcDbSymbolTableRecord
100
AcDbLayerTableRecord
  2
3201_21 WINKELHEBEL MIT VERRIEGELUNG UMGELEGT
 70
        64
 62
       190
  6
DASHED
290
         1
370
        18
390
1D
  0
LAYER
  5
A3
100
AcDbSymbolTableRecord
100
AcDbLayerTableRecord
  2
3203_11_ 3204_11 WINKELHEBEL MIT VERRIEGELUNG
 70
        64
 62
       190
  6
CONTINUOUS
290
         1
370
        18
390
1D
  0
LAYER
  5
A4
100
AcDbSymbolTableRecord
100
AcDbLayerTableRecord
  2
3203_12+13 SCHLOSSRIEGELPLATTE AUFGESPERRT
 70
        64
 62
       172
  6
DASHED
290
         1
370
        18
390
1D
  0
LAYER
  5
A5
100
AcDbSymbolTableRecord
100
AcDbLayerTableRecord
  2
3203_12+13 SCHLOSSRIEGELPLATTE
 70
        64
 62
       172
  6
CONTINUOUS
290
         1
370
        18
390
1D
  0
LAYER
  5
A6
100
AcDbSymbolTableRecord
100
AcDbLayerTableRecord
  2
3201__-3204__ HEBEL JE
 70
        64
 62
         7
  6
CONTINUOUS
290
         1
370
         0
390
1D
  0
LAYER
  5
A7
100
AcDbSymbolTableRecord
100
AcDbLayerTableRecord
  2
 2001_2 BODEN
 70
        64
 62
        14
  6
CONTINUOUS
290
         1
370
        18
390
1D
  0
LAYER
  5
A8
100
AcDbSymbolTableRecord
100
AcDbLayerTableRecord
  2
 2001_1 RAHMEN
 70
        64
 62
         7
  6
CONTINUOUS
290
         1
370
        18
390
1D
  0
LAYER
  5
A9
100
AcDbSymbolTableRecord
100
AcDbLayerTableRecord
  2
2001__ GEBÄUDE
 70
        64
 62
         7
  6
CONTINUOUS
290
         1
370
         0
390
1D
  0
LAYER
  5
AA
100
AcDbSymbolTableRecord
100
AcDbLayerTableRecord
  2
2101__ HEBELBANK
 70
        64
 62
         9
  6
CONTINUOUS
290
         1
370
        18
390
1D
  0
LAYER
  5
AB
100
AcDbSymbolTableRecord
100
AcDbLayerTableRecord
  2
3601_1 UNTERZUGRAHMEN
 70
        64
 62
         7
  6
CONTINUOUS
290
         1
370
         0
390
1D
  0
LAYER
  5
AC
100
AcDbSymbolTableRecord
100
AcDbLayerTableRecord
  2
3601_2-4 ROLLEN UMGELEGT
 70
        64
 62
       134
  6
DASHED
290
         1
370
        18
390
1D
  0
LAYER
  5
AD
100
AcDbSymbolTableRecord
100
AcDbLayerTableRecord
  2
3601_2-4 ROLLEN
 70
        64
 62
       134
  6
CONTINUOUS
290
         1
370
        18
390
1D
  0
LAYER
  5
AE
100
AcDbSymbolTableRecord
100
AcDbLayerTableRecord
  2
3601_5 ABTRIEB UMGELEGT
 70
        64
 62
       142
  6
DASHED
290
         1
370
        18
390
1D
  0
LAYER
  5
AF
100
AcDbSymbolTableRecord
100
AcDbLayerTableRecord
  2
3601_5 ABTRIEB
 70
        64
 62
       142
  6
CONTINUOUS
290
         1
370
        18
390
1D
  0
LAYER
  5
B0
100
AcDbSymbolTableRecord
100
AcDbLayerTableRecord
  2
3601_6 SCHALTER LINKS_OBEN
 70
        64
 62
       230
  6
DASHED
290
         1
370
        18
390
1D
  0
LAYER
  5
B1
100
AcDbSymbolTableRecord
100
AcDbLayerTableRecord
  2
3601_6 SCHALTER
 70
        64
 62
       230
  6
CONTINUOUS
290
         1
370
        18
390
1D
  0
LAYER
  5
B2
100
AcDbSymbolTableRecord
100
AcDbLayerTableRecord
  2
3601__ UNTERZUG
 70
        64
 62
         9
  6
CONTINUOUS
290
         1
370
        18
390
1D
  0
LAYER
  5
B3
100
AcDbSymbolTableRecord
100
AcDbLayerTableRecord
  2
2052_3 RIEGEL UMGESPERRT
 70
        64
 62
       230
  6
DASHED
290
         1
370
        18
390
1D
  0
LAYER
  5
B4
100
AcDbSymbolTableRecord
100
AcDbLayerTableRecord
  2
2052_3 RIEGEL
 70
        64
 62
       230
  6
CONTINUOUS
290
         1
370
        18
390
1D
  0
LAYER
  5
B5
100
AcDbSymbolTableRecord
100
AcDbLayerTableRecord
  2
2052_4 ZUHALTUNG ANGEHOBEN
 70
        64
 62
        94
  6
DASHED
290
         1
370
        18
390
1D
  0
LAYER
  5
B6
100
AcDbSymbolTableRecord
100
AcDbLayerTableRecord
  2
2052_4 ZUHALTUNG
 70
        64
 62
        94
  6
CONTINUOUS
290
         1
370
        18
390
1D
  0
LAYER
  5
B7
100
AcDbSymbolTableRecord
100
AcDbLayerTableRecord
  2
2052_1_2_7_8 GEHÄUSE
 70
        64
 62
         7
  6
CONTINUOUS
290
         1
370
        18
390
1D
  0
LAYER
  5
B8
100
AcDbSymbolTableRecord
100
AcDbLayerTableRecord
  2
2052_5_6 BESATZUNG
 70
        64
 62
         8
  6
CONTINUOUS
290
         1
370
        18
390
1D
  0
LAYER
  5
B9
100
AcDbSymbolTableRecord
100
AcDbLayerTableRecord
  2
2052__ SCHLOSS MIT DORN
 70
        64
 62
         7
  6
CONTINUOUS
290
         1
370
         0
390
1D
  0
LAYER
  5
BA
100
AcDbSymbolTableRecord
100
AcDbLayerTableRecord
  2
2053_5 SCHILD
 70
        64
 62
        54
  6
CONTINUOUS
290
         1
370
        18
390
1D
  0
LAYER
  5
BB
100
AcDbSymbolTableRecord
100
AcDbLayerTableRecord
  2
2053_1-4 SCHLÜSSEL
 70
        64
 62
       190
  6
CONTINUOUS
290
         1
370
        18
390
1D
  0
LAYER
  5
BC
100
AcDbSymbolTableRecord
100
AcDbLayerTableRecord
  2
2053__ SCHLÜSSEL
 70
        64
 62
         7
  6
CONTINUOUS
290
         1
370
         0
390
1D
  0
LAYER
  5
BD
100
AcDbSymbolTableRecord
100
AcDbLayerTableRecord
  2
KONSTRUKTION
 70
        64
 62
         7
  6
CONTINUOUS
290
         1
370
         0
390
1D
  0
LAYER
  5
BE
100
AcDbSymbolTableRecord
100
AcDbLayerTableRecord
  2
_TEMP
 70
        64
 62
         7
  6
CONTINUOUS
290
         1
370
        50
390
1D
  0
LAYER
  5
BF
100
AcDbSymbolTableRecord
100
AcDbLayerTableRecord
  2
STANDARD
 70
        64
 62
         7
  6
CONTINUOUS
290
         1
370
         0
390
1D
  0
ENDTAB
  0
TABLE
  2
STYLE
  5
3
100
AcDbSymbolTable
 70
         7
  0
STYLE
  5
17
100
AcDbSymbolTableRecord
100
AcDbTextStyleTableRecord
  2
Standard
 70
         0
 40
0.0
 41
1.0
 50
0.0
 71
         0
 42
0.0
  3
txt
  4

  0
STYLE
  5
2D
100
AcDbSymbolTableRecord
100
AcDbTextStyleTableRecord
  2
CADdy
 70
         0
 40
0.0
 41
1.0
 50
0.0
 71
         0
 42
3.5
  3
txt.shx
  4

  0
STYLE
  5
2E
100
AcDbSymbolTableRecord
100
AcDbTextStyleTableRecord
  2
Arial
 70
         0
 40
0.0
 41
1.0
 50
0.0
 71
         0
 42
3.5
  3
arial.ttf
  4

1001
ACAD
1000
Arial
1071
       34
  0
STYLE
  5
2F
100
AcDbSymbolTableRecord
100
AcDbTextStyleTableRecord
  2
Isonorm
 70
         0
 40
0.0
 41
1.0
 50
0.0
 71
         0
 42
3.5
  3
txt.shx
  4

  0
STYLE
  5
30
100
AcDbSymbolTableRecord
100
AcDbTextStyleTableRecord
  2
Tahoma
 70
         0
 40
0.0
 41
1.0
 50
0.0
 71
         0
 42
3.5
  3
tahoma.ttf
  4

1001
ACAD
1000
Tahoma
1071
       34
  0
STYLE
  5
31
100
AcDbSymbolTableRecord
100
AcDbTextStyleTableRecord
  2
Microsoft Sans Serif
 70
         0
 40
0.0
 41
1.0
 50
0.0
 71
         0
 42
3.5
  3
micross.ttf
  4

1001
ACAD
1000
Microsoft Sans Serif
1071
       34
  0
STYLE
  5
32
100
AcDbSymbolTableRecord
100
AcDbTextStyleTableRecord
  2
Arial Rounded MT Bold
 70
         0
 40
0.0
 41
1.0
 50
0.0
 71
         0
 42
3.5
  3
txt.shx
  4

  0
ENDTAB
  0
TABLE
  2
VIEW
  5
5
100
AcDbSymbolTable
 70
         0
  0
ENDTAB
  0
TABLE
  2
UCS
  5
6
100
AcDbSymbolTable
 70
         0
  0
ENDTAB
  0
TABLE
  2
APPID
  5
8
100
AcDbSymbolTable
 70
         1
  0
APPID
  5
16
100
AcDbSymbolTableRecord
100
AcDbRegAppTableRecord
  2
ACAD
 70
        64
  0
ENDTAB
  0
TABLE
  2
DIMSTYLE
  5
9
100
AcDbSymbolTable
 70
         1
100
AcDbDimStyleTable
 71
         0
  0
DIMSTYLE
105
18
100
AcDbSymbolTableRecord
100
AcDbDimStyleTableRecord
  2
Standard
 70
         0
  3

  4

 40
1.0
 41
0.18
 42
0.0625
 43
0.38
 44
0.18
 45
0.0
 46
0.0
 47
0.0
 48
0.0
 71
         0
 72
         0
 73
         1
 74
         1
 75
         0
 76
         0
 77
         0
 78
         0
 79
         0
140
0.18
141
0.09
142
0.0
143
25.4
144
1.0
145
0.0
146
1.0
147
0.09
148
0.0
170
         0
171
         2
172
         0
173
         0
174
         0
175
         0
176
         0
177
         0
178
         0
179
         0
271
         4
272
         4
273
         2
274
         2
275
         0
276
         0
277
         2
278
        46
279
         0
280
         0
281
         0
282
         0
283
         1
284
         0
285
         0
286
         0
288
         0
289
         3
340
17
341
0
342
0
343
0
344
0
371
        -2
372
        -2
  0
ENDTAB
  0
TABLE
  2
BLOCK_RECORD
  5
1
100
AcDbSymbolTable
 70
         5
  0
BLOCK_RECORD
  5
A
100
AcDbSymbolTableRecord
100
AcDbBlockTableRecord
  2
*MODEL_SPACE
340
20
  0
BLOCK_RECORD
  5
B
100
AcDbSymbolTableRecord
100
AcDbBlockTableRecord
  2
*PAPER_SPACE
340
21
  0
BLOCK_RECORD
  5
C0
100
AcDbSymbolTableRecord
100
AcDbBlockTableRecord
  2
D358593024
340
0
102
{BLKREFS
331
121
102
}
  0
BLOCK_RECORD
  5
C9
100
AcDbSymbolTableRecord
100
AcDbBlockTableRecord
  2
D358541056
340
0
102
{BLKREFS
331
122
102
}
  0
BLOCK_RECORD
  5
D2
100
AcDbSymbolTableRecord
100
AcDbBlockTableRecord
  2
D358540800
340
0
102
{BLKREFS
331
12A
102
}
  0
BLOCK_RECORD
  5
DB
100
AcDbSymbolTableRecord
100
AcDbBlockTableRecord
  2
D358540544
340
0
102
{BLKREFS
331
136
102
}
  0
BLOCK_RECORD
  5
E4
100
AcDbSymbolTableRecord
100
AcDbBlockTableRecord
  2
D358540288
340
0
102
{BLKREFS
331
137
102
}
  0
ENDTAB
  0
ENDSEC
  0
SECTION
  2
BLOCKS
  0
BLOCK
  5
D
100
AcDbEntity
  8
0
390
0
100
AcDbBlockBegin
  2
*MODEL_SPACE
 70
         0
 10
0.0
 20
0.0
 30
0.0
  3
*MODEL_SPACE
  1

  0
ENDBLK
  5
E
100
AcDbEntity
  8
0
390
0
100
AcDbBlockEnd
  0
BLOCK
  5
F
100
AcDbEntity
 67
         1
  8
0
390
0
100
AcDbBlockBegin
  2
*PAPER_SPACE
 70
         0
 10
0.0
 20
0.0
 30
0.0
  3
*PAPER_SPACE
  1

  0
ENDBLK
  5
10
100
AcDbEntity
 67
         1
  8
0
390
0
100
AcDbBlockEnd
  0
BLOCK
  5
C1
100
AcDbEntity
  8
BEMASSUNG
390
0
100
AcDbBlockBegin
  2
D358593024
 70
         0
 10
0.0
 20
0.0
 30
0.0
  3
D358593024
  1

  0
LINE
  5
C2
100
AcDbEntity
  8
MASSLINIEN
390
0
 62
       172
100
AcDbLine
 10
47.0450111397
 20
261.3238189382
 30
0.0
 11
47.0450111397
 21
227.3238189382
 31
0.0
  0
LINE
  5
C3
100
AcDbEntity
  8
MASSLINIEN
390
0
 62
       172
100
AcDbLine
 10
33.8396964822
 20
261.3238189382
 30
0.0
 11
49.0450111397
 21
261.3238189382
 31
0.0
  0
LINE
  5
C4
100
AcDbEntity
  8
MASSLINIEN
390
0
 62
       172
100
AcDbLine
 10
33.839696482
 20
227.3238189382
 30
0.0
 11
49.0450111397
 21
227.3238189382
 31
0.0
  0
SOLID
  5
C5
100
AcDbEntity
  8
MASSGRENZEN
390
0
100
AcDbTrace
 10
47.0450111397
 20
261.3238189382
 30
0.0
 11
47.4365897164
 21
258.3494843541
 31
0.0
 12
46.6534325631
 22
258.3494843541
 32
0.0
 13
46.6534325631
 23
258.3494843541
 33
0.0
  0
SOLID
  5
C6
100
AcDbEntity
  8
MASSGRENZEN
390
0
100
AcDbTrace
 10
47.0450111397
 20
227.3238189382
 30
0.0
 11
46.6534325631
 21
230.2981535224
 31
0.0
 12
47.4365897164
 22
230.2981535224
 32
0.0
 13
47.4365897164
 23
230.2981535224
 33
0.0
  0
MTEXT
  5
C7
100
AcDbEntity
  8
MASSTEXTE
390
0
 62
       212
100
AcDbMText
 10
44.5890111397
 20
244.3238189382
 30
0.0
 40
2.0
 41
0.0
 71
         5
 72
         1
  1
\W1.135146;\A1;34
  7
Arial
 11
0.0
 21
1.0
 31
0.0
 73
         0
 44
0.0
  0
ENDBLK
  5
C8
100
AcDbEntity
  8
0
390
0
100
AcDbBlockEnd
  0
BLOCK
  5
CA
100
AcDbEntity
  8
BEMASSUNG
390
0
100
AcDbBlockBegin
  2
D358541056
 70
         0
 10
0.0
 20
0.0
 30
0.0
  3
D358541056
  1

  0
LINE
  5
CB
100
AcDbEntity
  8
MASSLINIEN
390
0
 62
       172
100
AcDbLine
 10
109.5510186603
 20
261.3238189382
 30
0.0
 11
109.5510186603
 21
118.3224182558
 31
0.0
  0
LINE
  5
CC
100
AcDbEntity
  8
MASSLINIEN
390
0
 62
       172
100
AcDbLine
 10
97.9697542135
 20
261.3238189382
 30
0.0
 11
111.5510186603
 21
261.3238189382
 31
0.0
  0
LINE
  5
CD
100
AcDbEntity
  8
MASSLINIEN
390
0
 62
       172
100
AcDbLine
 10
97.9697542133
 20
118.3224182558
 30
0.0
 11
111.5510186603
 21
118.3224182558
 31
0.0
  0
SOLID
  5
CE
100
AcDbEntity
  8
MASSGRENZEN
390
0
100
AcDbTrace
 10
109.5510186603
 20
261.3238189382
 30
0.0
 11
109.942597237
 21
258.3494843541
 31
0.0
 12
109.1594400837
 22
258.3494843541
 32
0.0
 13
109.1594400837
 23
258.3494843541
 33
0.0
  0
SOLID
  5
CF
100
AcDbEntity
  8
MASSGRENZEN
390
0
100
AcDbTrace
 10
109.5510186603
 20
118.3224182558
 30
0.0
 11
109.1594400837
 21
121.29675284
 31
0.0
 12
109.942597237
 22
121.29675284
 32
0.0
 13
109.942597237
 23
121.29675284
 33
0.0
  0
MTEXT
  5
D0
100
AcDbEntity
  8
MASSTEXTE
390
0
 62
       212
100
AcDbMText
 10
107.0950186603
 20
189.823118597
 30
0.0
 40
2.0
 41
0.0
 71
         5
 72
         1
  1
\W1.135145;\A1;143
  7
Arial
 11
0.0
 21
1.0
 31
0.0
 73
         0
 44
0.0
  0
ENDBLK
  5
D1
100
AcDbEntity
  8
0
390
0
100
AcDbBlockEnd
  0
BLOCK
  5
D3
100
AcDbEntity
  8
BEMASSUNG
390
0
100
AcDbBlockBegin
  2
D358540800
 70
         0
 10
0.0
 20
0.0
 30
0.0
  3
D358540800
  1

  0
LINE
  5
D4
100
AcDbEntity
  8
MASSLINIEN
390
0
 62
       172
100
AcDbLine
 10
147.4883140248
 20
261.5756320225
 30
0.0
 11
147.4883140248
 21
79.5736424582
 31
0.0
  0
LINE
  5
D5
100
AcDbEntity
  8
MASSLINIEN
390
0
 62
       172
100
AcDbLine
 10
135.0606097819
 20
261.5756320225
 30
0.0
 11
149.4883140248
 21
261.5756320225
 31
0.0
  0
LINE
  5
D6
100
AcDbEntity
  8
MASSLINIEN
390
0
 62
       172
100
AcDbLine
 10
135.060609782
 20
79.5736424582
 30
0.0
 11
149.4883140248
 21
79.5736424582
 31
0.0
  0
SOLID
  5
D7
100
AcDbEntity
  8
MASSGRENZEN
390
0
100
AcDbTrace
 10
147.4883140248
 20
261.5756320225
 30
0.0
 11
147.8798926015
 21
258.6012974384
 31
0.0
 12
147.0967354482
 22
258.6012974384
 32
0.0
 13
147.0967354482
 23
258.6012974384
 33
0.0
  0
SOLID
  5
D8
100
AcDbEntity
  8
MASSGRENZEN
390
0
100
AcDbTrace
 10
147.4883140248
 20
79.5736424582
 30
0.0
 11
147.0967354482
 21
82.5479770424
 31
0.0
 12
147.8798926015
 22
82.5479770424
 32
0.0
 13
147.8798926015
 23
82.5479770424
 33
0.0
  0
MTEXT
  5
D9
100
AcDbEntity
  8
MASSTEXTE
390
0
 62
       212
100
AcDbMText
 10
145.0323140248
 20
170.5746372404
 30
0.0
 40
2.0
 41
0.0
 71
         5
 72
         1
  1
\W1.135145;\A1;182
  7
Arial
 11
0.0
 21
1.0
 31
0.0
 73
         0
 44
0.0
  0
ENDBLK
  5
DA
100
AcDbEntity
  8
0
390
0
100
AcDbBlockEnd
  0
BLOCK
  5
DC
100
AcDbEntity
  8
BEMASSUNG
390
0
100
AcDbBlockBegin
  2
D358540544
 70
         0
 10
0.0
 20
0.0
 30
0.0
  3
D358540544
  1

  0
LINE
  5
DD
100
AcDbEntity
  8
MASSLINIEN
390
0
 62
       172
100
AcDbLine
 10
183.9949087079
 20
261.3238189382
 30
0.0
 11
183.9949087079
 21
133.3279834342
 31
0.0
  0
LINE
  5
DE
100
AcDbEntity
  8
MASSLINIEN
390
0
 62
       172
100
AcDbLine
 10
173.0030255123
 20
261.3238189382
 30
0.0
 11
185.9949087079
 21
261.3238189382
 31
0.0
  0
LINE
  5
DF
100
AcDbEntity
  8
MASSLINIEN
390
0
 62
       172
100
AcDbLine
 10
173.0043349186
 20
133.3279834342
 30
0.0
 11
185.9949087079
 21
133.3279834342
 31
0.0
  0
SOLID
  5
E0
100
AcDbEntity
  8
MASSGRENZEN
390
0
100
AcDbTrace
 10
183.9949087079
 20
261.3238189382
 30
0.0
 11
184.3864872845
 21
258.3494843541
 31
0.0
 12
183.6033301312
 22
258.3494843541
 32
0.0
 13
183.6033301312
 23
258.3494843541
 33
0.0
  0
SOLID
  5
E1
100
AcDbEntity
  8
MASSGRENZEN
390
0
100
AcDbTrace
 10
183.9949087079
 20
133.3279834342
 30
0.0
 11
183.6033301312
 21
136.3023180184
 31
0.0
 12
184.3864872845
 22
136.3023180184
 32
0.0
 13
184.3864872845
 23
136.3023180184
 33
0.0
  0
MTEXT
  5
E2
100
AcDbEntity
  8
MASSTEXTE
390
0
 62
       212
100
AcDbMText
 10
181.5389087079
 20
197.3259011862
 30
0.0
 40
2.0
 41
0.0
 71
         5
 72
         1
  1
\W1.135145;\A1;128
  7
Arial
 11
0.0
 21
1.0
 31
0.0
 73
         0
 44
0.0
  0
ENDBLK
  5
E3
100
AcDbEntity
  8
0
390
0
100
AcDbBlockEnd
  0
BLOCK
  5
E5
100
AcDbEntity
  8
BEMASSUNG
390
0
100
AcDbBlockBegin
  2
D358540288
 70
         0
 10
0.0
 20
0.0
 30
0.0
  3
D358540288
  1

  0
LINE
  5
E6
100
AcDbEntity
  8
MASSLINIEN
390
0
 62
       172
100
AcDbLine
 10
199.1619311798
 20
107.4901966292
 30
0.0
 11
199.1619311798
 21
44.4901966292
 31
0.0
  0
LINE
  5
E7
100
AcDbEntity
  8
MASSLINIEN
390
0
 62
       172
100
AcDbLine
 10
186.685950214
 20
107.4901966292
 30
0.0
 11
201.1619311798
 21
107.4901966292
 31
0.0
  0
LINE
  5
E8
100
AcDbEntity
  8
MASSLINIEN
390
0
 62
       172
100
AcDbLine
 10
186.685950214
 20
44.4901966292
 30
0.0
 11
201.1619311798
 21
44.4901966292
 31
0.0
  0
SOLID
  5
E9
100
AcDbEntity
  8
MASSGRENZEN
390
0
100
AcDbTrace
 10
199.1619311798
 20
107.4901966292
 30
0.0
 11
199.5535097564
 21
104.5158620451
 31
0.0
 12
198.7703526031
 22
104.5158620451
 32
0.0
 13
198.7703526031
 23
104.5158620451
 33
0.0
  0
SOLID
  5
EA
100
AcDbEntity
  8
MASSGRENZEN
390
0
100
AcDbTrace
 10
199.1619311798
 20
44.4901966292
 30
0.0
 11
198.7703526031
 21
47.4645312133
 31
0.0
 12
199.5535097564
 22
47.4645312133
 32
0.0
 13
199.5535097564
 23
47.4645312133
 33
0.0
  0
MTEXT
  5
EB
100
AcDbEntity
  8
MASSTEXTE
390
0
 62
       212
100
AcDbMText
 10
196.7059311798
 20
75.9901966292
 30
0.0
 40
2.0
 41
0.0
 71
         5
 72
         1
  1
\W1.135146;\A1;63
  7
Arial
 11
0.0
 21
1.0
 31
0.0
 73
         0
 44
0.0
  0
ENDBLK
  5
EC
100
AcDbEntity
  8
0
390
0
100
AcDbBlockEnd
  0
ENDSEC
  0
SECTION
  2
ENTITIES
  0
TEXT
  5
ED
100
AcDbEntity
  8
BESCHRIFTUNG
390
0
100
AcDbText
 10
129.6929117117
 20
6.9230888889
 30
0.0
 40
3.3
  1
3206 Pv Einzelhebel JE Gruppenpfade
 41
0.9089825003
  7
Arial
 11
129.6929117117
 21
10.2230888889
 31
0.0
100
AcDbText
 73
         3
  0
TEXT
  5
EE
100
AcDbEntity
  8
BESCHRIFTUNG
390
0
100
AcDbText
 10
129.6929117117
 20
29.3230888889
 30
0.0
 40
3.3
  1
2026-04-26
 41
1.0318366578
  7
Arial
 11
129.6929117117
 21
32.6230888889
 31
0.0
100
AcDbText
 73
         3
  0
MTEXT
  5
EF
100
AcDbEntity
  8
BESCHRIFTUNG
390
0
100
AcDbMText
 10
39.0313101865
 20
275.6432346121
 30
0.0
 40
2.5
 41
0.0
 71
         5
 72
         1
  1
\W1.135138;\L3206.1\P15x15x2
  7
Arial
 73
         1
 44
0.66
  0
MTEXT
  5
F0
100
AcDbEntity
  8
3206_1L
390
0
  6
DASHDOT
100
AcDbMText
 10
24.5991810137
 20
257.8672203453
 30
0.0
 40
2.0
 41
0.0
 71
         7
 72
         1
  1
\W1.135084;M15x15x2 \PT2 O2 F150\PB-0.3    D1.6\PI1.2 P4 U20
  7
Arial
 73
         1
 44
0.66
  0
MTEXT
  5
F1
100
AcDbEntity
  8
3206_5P
390
0
100
AcDbMText
 10
166.4079616338
 20
65.1878071654
 30
0.0
 40
2.0
 41
0.0
 71
         5
 72
         1
  1
\W1.135110;>3201.9P\PM50+x5\PT5 O2
  7
Arial
 73
         1
 44
0.66
  0
MTEXT
  5
F2
100
AcDbEntity
  8
3206_4P
390
0
100
AcDbMText
 10
171.1761097996
 20
186.5234088288
 30
0.0
 40
2.0
 41
0.0
 71
         5
 72
         1
  1
\W1.135110;>3201.4P\PM20+x5\PT5 O2
  7
Arial
 73
         1
 44
0.66
  0
MTEXT
  5
F3
100
AcDbEntity
  8
3206_2L
390
0
100
AcDbMText
 10
73.8825483811
 20
124.823943352
 30
0.0
 40
2.0
 41
0.0
 71
         5
 72
         1
  1
\W1.135145;>3201.8L\PM15x15x1\PT2 O2
  7
Arial
 73
         1
 44
0.66
  0
MTEXT
  5
F4
100
AcDbEntity
  8
3206_2L
390
0
100
AcDbMText
 10
72.7419158753
 20
165.5244309644
 30
0.0
 40
2.0
 41
0.0
 71
         5
 72
         1
  1
\W1.135145;>3201.7L\PM15x15x1\PT2 O2
  7
Arial
 73
         1
 44
0.66
  0
MTEXT
  5
F5
100
AcDbEntity
  8
3206_2L
390
0
100
AcDbMText
 10
74.1502998646
 20
230.5236062096
 30
0.0
 40
2.0
 41
0.0
 71
         5
 72
         1
  1
\W1.135145;>3201.6L\PM15x15x1\PT2 O2
  7
Arial
 73
         1
 44
0.66
  0
MTEXT
  5
F6
100
AcDbEntity
  8
3206_3P
390
0
100
AcDbMText
 10
132.9122537968
 20
209.9626910697
 30
0.0
 40
2.0
 41
0.0
 71
         5
 72
         1
  1
\W1.135110;>3201.1P\PM50+x2\PT2 O2
  7
Arial
 73
         1
 44
0.66
  0
MTEXT
  5
F7
100
AcDbEntity
  8
3206_3P
390
0
100
AcDbMText
 10
134.4751269705
 20
123.2757213082
 30
0.0
 40
2.0
 41
0.0
 71
         5
 72
         1
  1
\W1.135110;>3201.2P\PM50+x2\PT2 O2
  7
Arial
 73
         1
 44
0.66
  0
MTEXT
  5
F8
100
AcDbEntity
  8
3206_3P
390
0
100
AcDbMText
 10
133.6415418623
 20
86.0171136073
 30
0.0
 40
2.0
 41
0.0
 71
         5
 72
         1
  1
\W1.135114;>3201.11P\PM50+x2\PT2 O2
  7
Arial
 73
         1
 44
0.66
  0
ARC
  5
F9
100
AcDbEntity
  8
3206___ EINZELHEBEL JE GRUPPENPFADE
390
0
  6
DASHDOT
100
AcDbCircle
 10
47.9692616075
 20
244.3238189382
 30
0.0
 40
22.1053072956
100
AcDbArc
 50
129.7316949036
 51
230.2683050958
  0
MTEXT
  5
FA
100
AcDbEntity
  8
3206_1L
390
0
  6
DASHDOT
100
AcDbMText
 10
33.2866455324
 20
239.3368748886
 30
0.0
 40
2.0
 41
0.0
 71
         5
 72
         1
  1
\W1.135145;>3201.3L\PM15x15x2\PT2 O2
  7
Arial
 73
         1
 44
0.66
  0
ARC
  5
FB
100
AcDbEntity
  8
3206_1L
390
0
  6
DASHDOT
100
AcDbCircle
 10
164.2725114296
 20
244.3238189376
 30
0.0
 40
131.5359996926
100
AcDbArc
 50
172.5741967101
 51
187.4258032893
  0
ARC
  5
FC
100
AcDbEntity
  8
3206_2L
390
0
  6
DASHDOT
100
AcDbCircle
 10
158.903532199
 20
241.3259956734
 30
0.0
 40
86.1378475946
100
AcDbArc
 50
166.5756851762
 51
193.4243148238
  0
ARC
  5
FD
100
AcDbEntity
  8
3206_2L
390
0
  6
DASHDOT
100
AcDbCircle
 10
442.1414820478
 20
176.3268204282
 30
0.0
 40
369.7708532398
100
AcDbArc
 50
173.0097380931
 51
186.9902619069
  0
ARC
  5
FE
100
AcDbEntity
  8
3206_2L
390
0
  6
DASHDOT
100
AcDbCircle
 10
91.6617426229
 20
124.8239433515
 30
0.0
 40
17.7743030037
100
AcDbArc
 50
158.5442664592
 51
201.4557335388
  0
ARC
  5
FF
100
AcDbEntity
  8
3206_3P
390
0
  6
DASHDOT
100
AcDbCircle
 10
463.0839992639
 20
216.578036412
 30
0.0
 40
331.0953452678
100
AcDbArc
 50
172.189030654
 51
187.810969346
  0
ARC
  5
100
100
AcDbEntity
  8
3206_3P
390
0
  6
DASHDOT
100
AcDbCircle
 10
445.7629908029
 20
134.0781107721
 30
0.0
 40
312.9574960434
100
AcDbArc
 50
173.1175917172
 51
186.8824082828
  0
ARC
  5
101
100
AcDbEntity
  8
3206_3P
390
0
  6
DASHDOT
100
AcDbCircle
 10
154.2731799275
 20
88.0747116005
 30
0.0
 40
21.0093081313
100
AcDbArc
 50
156.1318397994
 51
203.868160201
  0
ARC
  5
102
100
AcDbEntity
  8
3206_4P
390
0
  6
DASHDOT
100
AcDbCircle
 10
726.5661073226
 20
197.3315641687
 30
0.0
 40
557.2495798239
100
AcDbArc
 50
173.4058401274
 51
186.5953321523
  0
ARC
  5
103
100
AcDbEntity
  8
3206_5P
390
0
  6
DASHDOT
100
AcDbCircle
 10
442.032098318
 20
75.9901966292
 30
0.0
 40
275.0601267809
100
AcDbArc
 50
173.4240358702
 51
186.5759641298
  0
ARC
  5
104
100
AcDbEntity
  8
3206_1R
390
0
  6
DASHDOT
100
AcDbCircle
 10
164.2725114296
 20
193.9327129532
 30
0.0
 40
131.5359996926
100
AcDbArc
 50
172.5741967101
 51
187.4258032893
  0
ARC
  5
105
100
AcDbEntity
  8
3206___ EINZELHEBEL JE GRUPPENPFADE
390
0
  6
DASHDOT
100
AcDbCircle
 10
47.9692616075
 20
193.9327129538
 30
0.0
 40
22.1053072956
100
AcDbArc
 50
129.7316949036
 51
230.2683050958
  0
MTEXT
  5
106
100
AcDbEntity
  8
3206_1R
390
0
  6
DASHDOT
100
AcDbMText
 10
33.2866455324
 20
188.9457689042
 30
0.0
 40
2.0
 41
0.0
 71
         5
 72
         1
  1
\W1.135111;>3201.3R\PM15x15x2\PT2 O2
  7
Arial
 73
         1
 44
0.66
  0
CIRCLE
  5
107
100
AcDbEntity
  8
3206_1L
390
0
  6
PHANTOM
100
AcDbCircle
 10
33.8396964822
 20
261.3238189382
 30
0.0
 40
0.5
  0
CIRCLE
  5
108
100
AcDbEntity
  8
3206_1L
390
0
  6
PHANTOM
100
AcDbCircle
 10
33.839696482
 20
227.3238189382
 30
0.0
 40
1.0
  0
MTEXT
  5
109
100
AcDbEntity
  8
3206___ EINZELHEBEL JE GRUPPENPFADE
390
0
  6
DASHDOT
100
AcDbMText
 10
24.6660780798
 20
248.0750545523
 30
0.0
 40
2.0
 41
0.0
 71
         5
 72
         1
  1
\W1.135145;>3206.1L\PM15x15x2\PT2 O2
  7
Arial
 73
         1
 44
0.66
  0
MTEXT
  5
10A
100
AcDbEntity
  8
3206___ EINZELHEBEL JE GRUPPENPFADE
390
0
  6
DASHDOT
100
AcDbMText
 10
24.3429977791
 20
197.1218814955
 30
0.0
 40
2.0
 41
0.0
 71
         5
 72
         1
  1
\W1.135111;>3206.1R\PM15x15x2\PT2 O2
  7
Arial
 73
         1
 44
0.66
  0
CIRCLE
  5
10B
100
AcDbEntity
  8
3206_1R
390
0
  6
PHANTOM
100
AcDbCircle
 10
33.8396964822
 20
210.9327129539
 30
0.0
 40
0.5
  0
CIRCLE
  5
10C
100
AcDbEntity
  8
3206_1R
390
0
  6
PHANTOM
100
AcDbCircle
 10
33.839696482
 20
176.9327129539
 30
0.0
 40
1.0
  0
TEXT
  5
10D
100
AcDbEntity
  8
3206_1R
390
0
  6
DASHDOT
100
AcDbText
 10
26.6992029687
 20
211.0299976696
 30
0.0
 40
2.0
  1
@3206.1L
 41
1.1351288941
  7
Arial
100
AcDbText
  0
ARC
  5
10E
100
AcDbEntity
  8
3206___ EINZELHEBEL JE GRUPPENPFADE
390
0
  6
DASHDOT
100
AcDbCircle
 10
248.7267987706
 20
189.8231185968
 30
0.0
 40
187.7550310173
100
AcDbArc
 50
157.6155717002
 51
202.3844282996
  0
ARC
  5
10F
100
AcDbEntity
  8
3206___ EINZELHEBEL JE GRUPPENPFADE
390
0
  6
DASHDOT
100
AcDbCircle
 10
398.0250002794
 20
170.5746372404
 30
0.0
 40
278.2650745621
100
AcDbArc
 50
160.9113997169
 51
199.0886002832
  0
ARC
  5
110
100
AcDbEntity
  8
3206___ EINZELHEBEL JE GRUPPENPFADE
390
0
  6
DASHDOT
100
AcDbCircle
 10
324.8662601575
 20
197.3274547511
 30
0.0
 40
164.796773834
100
AcDbArc
 50
157.1490587558
 51
202.8521135238
  0
ARC
  5
111
100
AcDbEntity
  8
3206___ EINZELHEBEL JE GRUPPENPFADE
390
0
  6
DASHDOT
100
AcDbCircle
 10
214.4053298942
 20
75.9901966292
 30
0.0
 40
55.4416162429
100
AcDbArc
 50
145.3776177856
 51
214.6223822144
  0
MTEXT
  5
112
100
AcDbEntity
  8
3206___ EINZELHEBEL JE GRUPPENPFADE
390
0
100
AcDbMText
 10
61.4179415993
 20
205.548005091
 30
0.0
 40
2.0
 41
0.0
 71
         5
 72
         1
  1
\W1.135145;>3206.2L\PM15x15x1\PT2 O2
  7
Arial
 73
         1
 44
0.66
  0
MTEXT
  5
113
100
AcDbEntity
  8
3206_2L
390
0
100
AcDbMText
 10
65.8786753957
 20
257.8672203453
 30
0.0
 40
2.0
 41
0.0
 71
         7
 72
         1
  1
\W1.135085;M15x15x1\PT2 O2 F150\PB-0.3    D1.6\PI1.2 P4 U20
  7
Arial
 73
         1
 44
0.66
  0
CIRCLE
  5
114
100
AcDbEntity
  8
3206_2L
390
0
  6
PHANTOM
100
AcDbCircle
 10
75.1191908642
 20
261.3238189382
 30
0.0
 40
0.5
  0
CIRCLE
  5
115
100
AcDbEntity
  8
3206_2L
390
0
  6
PHANTOM
100
AcDbCircle
 10
75.119190864
 20
118.3224182558
 30
0.0
 40
1.0
  0
MTEXT
  5
116
100
AcDbEntity
  8
3206___ EINZELHEBEL JE GRUPPENPFADE
390
0
100
AcDbMText
 10
84.2685049486
 20
205.548005091
 30
0.0
 40
2.0
 41
0.0
 71
         5
 72
         1
  1
\W1.135110;>3206.2R\PM15x15x1\PT2 O2
  7
Arial
 73
         1
 44
0.66
  0
TEXT
  5
117
100
AcDbEntity
  8
3206_2R
390
0
100
AcDbText
 10
90.3322140834
 20
262.218153407
 30
0.0
 40
2.0
  1
@3206.2L
 41
1.1351288064
  7
Arial
100
AcDbText
  0
MTEXT
  5
118
100
AcDbEntity
  8
3206_2R
390
0
100
AcDbMText
 10
96.7331117304
 20
124.823943352
 30
0.0
 40
2.0
 41
0.0
 71
         5
 72
         1
  1
\W1.135111;>3201.8R\PM15x15x1\PT2 O2
  7
Arial
 73
         1
 44
0.66
  0
MTEXT
  5
119
100
AcDbEntity
  8
3206_2R
390
0
100
AcDbMText
 10
95.5924792246
 20
165.5244309644
 30
0.0
 40
2.0
 41
0.0
 71
         5
 72
         1
  1
\W1.135110;>3201.7R\PM15x15x1\PT2 O2
  7
Arial
 73
         1
 44
0.66
  0
MTEXT
  5
11A
100
AcDbEntity
  8
3206_2R
390
0
100
AcDbMText
 10
97.0008632139
 20
230.5236062096
 30
0.0
 40
2.0
 41
0.0
 71
         5
 72
         1
  1
\W1.135111;>3201.6R\PM15x15x1\PT2 O2
  7
Arial
 73
         1
 44
0.66
  0
ARC
  5
11B
100
AcDbEntity
  8
3206_2R
390
0
  6
DASHDOT
100
AcDbCircle
 10
181.7540955482
 20
241.3259956734
 30
0.0
 40
86.1378475946
100
AcDbArc
 50
166.5756851762
 51
193.4243148238
  0
ARC
  5
11C
100
AcDbEntity
  8
3206_2R
390
0
  6
DASHDOT
100
AcDbCircle
 10
464.9920453971
 20
176.3268204282
 30
0.0
 40
369.7708532398
100
AcDbArc
 50
173.0097380931
 51
186.9902619069
  0
ARC
  5
11D
100
AcDbEntity
  8
3206_2R
390
0
  6
DASHDOT
100
AcDbCircle
 10
114.5123059722
 20
124.8239433515
 30
0.0
 40
17.7743030037
100
AcDbArc
 50
158.5442664592
 51
201.4557335388
  0
ARC
  5
11E
100
AcDbEntity
  8
3206___ EINZELHEBEL JE GRUPPENPFADE
390
0
  6
DASHDOT
100
AcDbCircle
 10
271.5773621199
 20
189.8231185968
 30
0.0
 40
187.7550310173
100
AcDbArc
 50
157.6155717002
 51
202.3844282996
  0
CIRCLE
  5
11F
100
AcDbEntity
  8
3206_2R
390
0
  6
PHANTOM
100
AcDbCircle
 10
97.9697542135
 20
261.3238189382
 30
0.0
 40
0.5
  0
CIRCLE
  5
120
100
AcDbEntity
  8
3206_2R
390
0
  6
PHANTOM
100
AcDbCircle
 10
97.9697542133
 20
118.3224182558
 30
0.0
 40
1.0
  0
INSERT
  5
121
100
AcDbEntity
  8
BEMASSUNG
390
0
100
AcDbBlockReference
  2
D358593024
 10
0.0
 20
0.0
 30
0.0
  0
INSERT
  5
122
100
AcDbEntity
  8
BEMASSUNG
390
0
100
AcDbBlockReference
  2
D358541056
 10
0.0
 20
0.0
 30
0.0
  0
MTEXT
  5
123
100
AcDbEntity
  8
3206_3P
390
0
100
AcDbMText
 10
125.9347626632
 20
258.6057070055
 30
0.0
 40
2.0
 41
0.0
 71
         7
 72
         1
  1
\W1.135082;M60x2\PT2 O2 F150\PB-0.3    D1.6\PI1.2 P4 U20
  7
Arial
 73
         1
 44
0.66
  0
CIRCLE
  5
124
100
AcDbEntity
  8
3206_3P
390
0
  6
PHANTOM
100
AcDbCircle
 10
135.0606097819
 20
261.5756320225
 30
0.0
 40
0.5
  0
MTEXT
  5
125
100
AcDbEntity
  8
3206_4P
390
0
100
AcDbMText
 10
163.8771783935
 20
258.3538939213
 30
0.0
 40
2.0
 41
0.0
 71
         7
 72
         1
  1
\W1.135098;M20+x5\PT5 O2 F150\PB-0.3    D1.6\PI1.2 P4 U20
  7
Arial
 73
         1
 44
0.66
  0
CIRCLE
  5
126
100
AcDbEntity
  8
3206_4P
390
0
  6
PHANTOM
100
AcDbCircle
 10
173.0030255123
 20
261.3238189382
 30
0.0
 40
0.5
  0
MTEXT
  5
127
100
AcDbEntity
  8
3206___ EINZELHEBEL JE GRUPPENPFADE
390
0
100
AcDbMText
 10
120.4812809819
 20
198.6781107831
 30
0.0
 40
2.0
 41
0.0
 71
         5
 72
         1
  1
\W1.135110;>3206.3P\PM60x2\PT2 O2
  7
Arial
 73
         1
 44
0.66
  0
MTEXT
  5
128
100
AcDbEntity
  8
3206___ EINZELHEBEL JE GRUPPENPFADE
390
0
100
AcDbMText
 10
159.4106820598
 20
204.5274863312
 30
0.0
 40
2.0
 41
0.0
 71
         5
 72
         1
  1
\W1.135110;>3206.4P\PM20+x5\PT5 O2
  7
Arial
 73
         1
 44
0.66
  0
CIRCLE
  5
129
100
AcDbEntity
  8
3206_3P
390
0
  6
PHANTOM
100
AcDbCircle
 10
135.060609782
 20
79.5736424582
 30
0.0
 40
1.0
  0
INSERT
  5
12A
100
AcDbEntity
  8
BEMASSUNG
390
0
100
AcDbBlockReference
  2
D358540800
 10
0.0
 20
0.0
 30
0.0
  0
CIRCLE
  5
12B
100
AcDbEntity
  8
3206_4P
390
0
  6
PHANTOM
100
AcDbCircle
 10
173.0043349186
 20
133.3279834342
 30
0.0
 40
1.0
  0
TEXT
  5
12C
100
AcDbEntity
  8
3206_5P
390
0
100
AcDbText
 10
161.1440808879
 20
108.3845310979
 30
0.0
 40
2.0
  1
@3206.4P
 41
1.1350968316
  7
Arial
100
AcDbText
  0
CIRCLE
  5
12D
100
AcDbEntity
  8
3206_5P
390
0
  6
PHANTOM
100
AcDbCircle
 10
168.7816210179
 20
107.4901966292
 30
0.0
 40
0.5
  0
CIRCLE
  5
12E
100
AcDbEntity
  8
3206_5P
390
0
  6
PHANTOM
100
AcDbCircle
 10
168.7816210179
 20
44.4901966292
 30
0.0
 40
1.0
  0
MTEXT
  5
12F
100
AcDbEntity
  8
3206___ EINZELHEBEL JE GRUPPENPFADE
390
0
100
AcDbMText
 10
158.3049093789
 20
83.1919140918
 30
0.0
 40
2.0
 41
0.0
 71
         5
 72
         1
  1
\W1.135110;>3206.5P\PM50x5\PT5 O2
  7
Arial
 73
         1
 44
0.66
  0
CIRCLE
  5
130
100
AcDbEntity
  8
3206_5T
390
0
  6
PHANTOM
100
AcDbCircle
 10
186.685950214
 20
107.4901966292
 30
0.0
 40
0.5
  0
CIRCLE
  5
131
100
AcDbEntity
  8
3206_5T
390
0
  6
PHANTOM
100
AcDbCircle
 10
186.685950214
 20
44.4901966292
 30
0.0
 40
1.0
  0
ARC
  5
132
100
AcDbEntity
  8
3206_5T
390
0
  6
DASHDOT
100
AcDbCircle
 10
459.9364275141
 20
75.9901966292
 30
0.0
 40
275.0601267809
100
AcDbArc
 50
173.4240358702
 51
186.5759641298
  0
MTEXT
  5
133
100
AcDbEntity
  8
3206_5T
390
0
100
AcDbMText
 10
184.31229083
 20
65.1878071654
 30
0.0
 40
2.0
 41
0.0
 71
         5
 72
         1
  1
\W1.135136;>3201.9T\PM50+x5\PT5 O6
  7
Arial
 73
         1
 44
0.66
  0
ARC
  5
134
100
AcDbEntity
  8
3206___ EINZELHEBEL JE GRUPPENPFADE
390
0
  6
DASHDOT
100
AcDbCircle
 10
232.3096590903
 20
75.9901966292
 30
0.0
 40
55.4416162429
100
AcDbArc
 50
145.3776177856
 51
214.6223822144
  0
MTEXT
  5
135
100
AcDbEntity
  8
3206___ EINZELHEBEL JE GRUPPENPFADE
390
0
100
AcDbMText
 10
176.209238575
 20
83.1919140918
 30
0.0
 40
2.0
 41
0.0
 71
         5
 72
         1
  1
\W1.135136;>3206.5T\PM50x5\PT5 O6
  7
Arial
 73
         1
 44
0.66
  0
INSERT
  5
136
100
AcDbEntity
  8
BEMASSUNG
390
0
100
AcDbBlockReference
  2
D358540544
 10
0.0
 20
0.0
 30
0.0
  0
INSERT
  5
137
100
AcDbEntity
  8
BEMASSUNG
390
0
100
AcDbBlockReference
  2
D358540288
 10
0.0
 20
0.0
 30
0.0
  0
MTEXT
  5
138
100
AcDbEntity
  8
3206_5T
390
0
100
AcDbMText
 10
177.5601030953
 20
104.5202716123
 30
0.0
 40
2.0
 41
0.0
 71
         7
 72
         1
  1
\W1.135081;M50x5\PT5 O6 F150\PB-0.3    D1.6\PI1.2 P4 U20
  7
Arial
 73
         1
 44
0.66
  0
MTEXT
  5
139
100
AcDbEntity
  8
BESCHRIFTUNG
390
0
100
AcDbMText
 10
80.6916885394
 20
275.624547245
 30
0.0
 40
2.5
 41
0.0
 71
         5
 72
         1
  1
\W1.135138;\L3206.2\P15x15x1
  7
Arial
 73
         1
 44
0.66
  0
MTEXT
  5
13A
100
AcDbEntity
  8
BESCHRIFTUNG
390
0
100
AcDbMText
 10
140.1331074571
 20
275.3763603293
 30
0.0
 40
2.5
 41
0.0
 71
         5
 72
         1
  1
\W1.135138;\L3206.3\P60x2
  7
Arial
 73
         1
 44
0.66
  0
MTEXT
  5
13B
100
AcDbEntity
  8
BESCHRIFTUNG
390
0
100
AcDbMText
 10
178.0755231875
 20
275.124547245
 30
0.0
 40
2.5
 41
0.0
 71
         5
 72
         1
  1
\W1.135138;\L3206.4\P50x5
  7
Arial
 73
         1
 44
0.66
  0
MTEXT
  5
13C
100
AcDbEntity
  8
BESCHRIFTUNG
390
0
100
AcDbMText
 10
174.8541186931
 20
121.290924936
 30
0.0
 40
2.5
 41
0.0
 71
         5
 72
         1
  1
\W1.135138;\L3211.5\P50x5
  7
Arial
 73
         1
 44
0.66
  0
ARC
  5
13D
100
AcDbEntity
  8
3206___ EINZELHEBEL JE GRUPPENPFADE
390
0
  6
DASHDOT
100
AcDbCircle
 10
-61.9664904013
 20
79.6440251147
 30
0.0
 40
22.1053072956
100
AcDbArc
 50
129.7316949036
 51
230.2683050958
  0
ARC
  5
13E
100
AcDbEntity
  8
3206___ EINZELHEBEL JE GRUPPENPFADE
390
0
  6
DASHDOT
100
AcDbCircle
 10
-61.9664904013
 20
29.2529191304
 30
0.0
 40
22.1053072956
100
AcDbArc
 50
129.7316949036
 51
230.2683050958
  0
ARC
  5
13F
100
AcDbEntity
  8
3206___ EINZELHEBEL JE GRUPPENPFADE
390
0
  6
DASHDOT
100
AcDbCircle
 10
83.8110129842
 20
167.7802048567
 30
0.0
 40
187.7550310173
100
AcDbArc
 50
157.6155717002
 51
202.3844282996
  0
ARC
  5
140
100
AcDbEntity
  8
3206___ EINZELHEBEL JE GRUPPENPFADE
390
0
  6
DASHDOT
100
AcDbCircle
 10
217.5488275748
 20
185.3579725401
 30
0.0
 40
278.2650745621
100
AcDbArc
 50
160.9113997169
 51
199.0886002832
  0
ARC
  5
141
100
AcDbEntity
  8
3206___ EINZELHEBEL JE GRUPPENPFADE
390
0
  6
DASHDOT
100
AcDbCircle
 10
127.2736618429
 20
193.9570053129
 30
0.0
 40
164.796773834
100
AcDbArc
 50
157.1490587558
 51
202.8521135238
  0
ARC
  5
142
100
AcDbEntity
  8
3206___ EINZELHEBEL JE GRUPPENPFADE
390
0
  6
DASHDOT
100
AcDbCircle
 10
16.8127315796
 20
72.619747191
 30
0.0
 40
55.4416162429
100
AcDbArc
 50
145.3776177856
 51
214.6223822144
  0
ARC
  5
143
100
AcDbEntity
  8
3206___ EINZELHEBEL JE GRUPPENPFADE
390
0
  6
DASHDOT
100
AcDbCircle
 10
106.6615763335
 20
167.7802048567
 30
0.0
 40
187.7550310173
100
AcDbArc
 50
157.6155717002
 51
202.3844282996
  0
ARC
  5
144
100
AcDbEntity
  8
3206___ EINZELHEBEL JE GRUPPENPFADE
390
0
  6
DASHDOT
100
AcDbCircle
 10
34.7170607757
 20
72.619747191
 30
0.0
 40
55.4416162429
100
AcDbArc
 50
145.3776177856
 51
214.6223822144
  0
MTEXT
  5
145
100
AcDbEntity
  8
3206___ EINZELHEBEL JE GRUPPENPFADE
390
0
  6
DASHDOT
100
AcDbMText
 10
-85.2696739289
 20
83.3952607288
 30
0.0
 40
2.0
 41
0.0
 71
         5
 72
         1
  1
\W1.135145;>3206.1L\PM15x15x2\PT2 O2
  7
Arial
 73
         1
 44
0.66
  0
MTEXT
  5
146
100
AcDbEntity
  8
3206___ EINZELHEBEL JE GRUPPENPFADE
390
0
100
AcDbMText
 10
-85.5927542297
 20
32.442087672
 30
0.0
 40
2.0
 41
0.0
 71
         5
 72
         1
  1
\W1.135111;>3206.1R\PM15x15x2\PT2 O2
  7
Arial
 73
         1
 44
0.66
  0
MTEXT
  5
147
100
AcDbEntity
  8
3206___ EINZELHEBEL JE GRUPPENPFADE
390
0
  6
DASHDOT
100
AcDbMText
 10
-103.4978441871
 20
183.5050913509
 30
0.0
 40
2.0
 41
0.0
 71
         5
 72
         1
  1
\W1.135145;>3206.2L\PM15x15x1\PT2 O2
  7
Arial
 73
         1
 44
0.66
  0
MTEXT
  5
148
100
AcDbEntity
  8
3206___ EINZELHEBEL JE GRUPPENPFADE
390
0
  6
DASHDOT
100
AcDbMText
 10
-80.6472808378
 20
183.5050913509
 30
0.0
 40
2.0
 41
0.0
 71
         5
 72
         1
  1
\W1.135110;>3206.2R\PM15x15x1\PT2 O2
  7
Arial
 73
         1
 44
0.66
  0
MTEXT
  5
149
100
AcDbEntity
  8
3206___ EINZELHEBEL JE GRUPPENPFADE
390
0
  6
DASHDOT
100
AcDbMText
 10
-59.9948917227
 20
213.4614460828
 30
0.0
 40
2.0
 41
0.0
 71
         5
 72
         1
  1
\W1.135110;>3206.3P\PM60x2\PT2 O2
  7
Arial
 73
         1
 44
0.66
  0
MTEXT
  5
14A
100
AcDbEntity
  8
3206___ EINZELHEBEL JE GRUPPENPFADE
390
0
  6
DASHDOT
100
AcDbMText
 10
-38.1819162548
 20
201.157036893
 30
0.0
 40
2.0
 41
0.0
 71
         5
 72
         1
  1
\W1.135110;>3206.4P\PM20+x5\PT5 O2
  7
Arial
 73
         1
 44
0.66
  0
MTEXT
  5
14B
100
AcDbEntity
  8
3206___ EINZELHEBEL JE GRUPPENPFADE
390
0
  6
DASHDOT
100
AcDbMText
 10
-39.2876889357
 20
79.8214646536
 30
0.0
 40
2.0
 41
0.0
 71
         5
 72
         1
  1
\W1.135110;>3206.5P\PM50x5\PT5 O2
  7
Arial
 73
         1
 44
0.66
  0
MTEXT
  5
14C
100
AcDbEntity
  8
3206___ EINZELHEBEL JE GRUPPENPFADE
390
0
  6
DASHDOT
100
AcDbMText
 10
-21.3833597396
 20
79.8214646536
 30
0.0
 40
2.0
 41
0.0
 71
         5
 72
         1
  1
\W1.135136;>3206.5T\PM50x5\PT5 O6
  7
Arial
 73
         1
 44
0.66
  0
MTEXT
  5
14D
100
AcDbEntity
  8
3206___ EINZELHEBEL JE GRUPPENPFADE
390
0
  6
DASHDOT
100
AcDbMText
 10
25.5213245098
 20
59.8820681248
 30
0.0
 40
3.0
 41
0.0
 71
         1
 72
         1
  1
\W1.135138;3206.1\P3206.2\P3206.3\P3206.4\P3206.5\P
  7
Arial
 73
         1
 44
0.66
  0
MTEXT
  5
14E
100
AcDbEntity
  8
3206___ EINZELHEBEL JE GRUPPENPFADE
390
0
  6
DASHED
100
AcDbMText
 10
45.5213245098
 20
59.8820681248
 30
0.0
 40
3.0
 41
0.0
 71
         1
 72
         1
  1
\W1.135100;15x15x2\P15x15x1\P60x2\P50x5\P50x5
  7
Arial
 73
         1
 44
0.66
  0
MTEXT
  5
14F
100
AcDbEntity
  8
3206___ EINZELHEBEL JE GRUPPENPFADE
390
0
  6
DASHED
100
AcDbMText
 10
65.5213245098
 20
59.8820681248
 30
0.0
 40
3.0
 41
0.0
 71
         1
 72
         1
  1
\W0.810867;Hebelbockwinkel\PHandfalle, Hebelklinke, Hebelschildchen\PHebelbock rechts, Hebelbock links, Winkelhebel\PHebeleisen\PHebelrolle\P
  7
Arial
 73
         1
 44
0.66
  0
MTEXT
  5
150
100
AcDbEntity
  8
3206___ EINZELHEBEL JE GRUPPENPFADE
390
0
  6
DASHDOT
100
AcDbMText
 10
-95.0744327922
 20
292.9301870466
 30
0.0
 40
3.0
 41
0.0
 71
         1
 72
         1
  1
\W1.135100;15x15x2\P15x15x1\P60x2\P50x5\P50x5
  7
Arial
 73
         1
 44
0.66
  0
MTEXT
  5
151
100
AcDbEntity
  8
3206___ EINZELHEBEL JE GRUPPENPFADE
390
0
  6
DASHDOT
100
AcDbMText
 10
-75.0744327922
 20
292.9301870466
 30
0.0
 40
3.0
 41
0.0
 71
         1
 72
         1
  1
\W0.810867;Hebelbockwinkel\PHandfalle, Hebelklinke, Hebelschildchen\PHebelbock rechts, Hebelbock links, Winkelhebel\PHebeleisen\PHebelrolle\P
  7
Arial
 73
         1
 44
0.66
  0
MTEXT
  5
152
100
AcDbEntity
  8
3206___ EINZELHEBEL JE GRUPPENPFADE
390
0
  6
DASHDOT
100
AcDbMText
 10
-115.0744327922
 20
292.9301870466
 30
0.0
 40
3.0
 41
0.0
 71
         1
 72
         1
  1
\W1.135138;3206.1\P3206.2\P3206.3\P3206.4\P3206.5\P
  7
Arial
 73
         1
 44
0.66
  0
LINE
  5
153
100
AcDbEntity
  8
STANDARD
390
0
100
AcDbLine
 10
10.0
 20
5.0
 30
0.0
 11
10.0
 21
292.0
 31
0.0
  0
LINE
  5
154
100
AcDbEntity
  8
STANDARD
390
0
100
AcDbLine
 10
15.0
 20
287.0
 30
0.0
 11
205.0
 21
287.0
 31
0.0
  0
LINE
  5
155
100
AcDbEntity
  8
STANDARD
390
0
100
AcDbLine
 10
10.0
 20
292.0
 30
0.0
 11
15.0
 21
292.0
 31
0.0
  0
LINE
  5
156
100
AcDbEntity
  8
STANDARD
390
0
100
AcDbLine
 10
10.0
 20
5.0
 30
0.0
 11
15.0
 21
5.0
 31
0.0
  0
LINE
  5
157
100
AcDbEntity
  8
STANDARD
390
0
100
AcDbLine
 10
10.0
 20
244.1666666667
 30
0.0
 11
15.0
 21
244.1666666667
 31
0.0
  0
LINE
  5
158
100
AcDbEntity
  8
STANDARD
390
0
100
AcDbLine
 10
10.0
 20
196.3333333333
 30
0.0
 11
15.0
 21
196.3333333333
 31
0.0
  0
LINE
  5
159
100
AcDbEntity
  8
STANDARD
390
0
100
AcDbLine
 10
10.0
 20
148.5
 30
0.0
 11
15.0
 21
148.5
 31
0.0
  0
LINE
  5
15A
100
AcDbEntity
  8
STANDARD
390
0
100
AcDbLine
 10
10.0
 20
100.6666666667
 30
0.0
 11
15.0
 21
100.6666666667
 31
0.0
  0
LINE
  5
15B
100
AcDbEntity
  8
STANDARD
390
0
100
AcDbLine
 10
10.0
 20
52.8333333333
 30
0.0
 11
15.0
 21
52.8333333333
 31
0.0
  0
LINE
  5
15C
100
AcDbEntity
  8
STANDARD
390
0
100
AcDbLine
 10
157.5
 20
292.0
 30
0.0
 11
157.5
 21
287.0
 31
0.0
  0
LINE
  5
15D
100
AcDbEntity
  8
STANDARD
390
0
100
AcDbLine
 10
110.0
 20
292.0
 30
0.0
 11
110.0
 21
287.0
 31
0.0
  0
LINE
  5
15E
100
AcDbEntity
  8
STANDARD
390
0
100
AcDbLine
 10
62.5
 20
292.0
 30
0.0
 11
62.5
 21
287.0
 31
0.0
  0
TEXT
  5
15F
100
AcDbEntity
  8
STANDARD
390
0
100
AcDbText
 10
10.9491078691
 20
267.8641561278
 30
0.0
 40
2.23125
  1
A
 41
1.547986837
  7
Arial
 72
         1
 11
12.6760806841
 21
270.0954061278
 31
0.0
100
AcDbText
 73
         3
  0
TEXT
  5
160
100
AcDbEntity
  8
STANDARD
390
0
100
AcDbText
 10
10.9491074243
 20
220.0308227945
 30
0.0
 40
2.23125
  1
B
 41
1.5479872357
  7
Arial
 72
         1
 11
12.6760806841
 21
222.2620727945
 31
0.0
100
AcDbText
 73
         3
  0
TEXT
  5
161
100
AcDbEntity
  8
STANDARD
390
0
100
AcDbText
 10
10.9489779593
 20
172.1974894612
 30
0.0
 40
2.23125
  1
C
 41
1.5481032827
  7
Arial
 72
         1
 11
12.6760806841
 21
174.4287394612
 31
0.0
100
AcDbText
 73
         3
  0
TEXT
  5
162
100
AcDbEntity
  8
STANDARD
390
0
100
AcDbText
 10
10.9489771034
 20
124.3641561278
 30
0.0
 40
2.23125
  1
D
 41
1.54810405
  7
Arial
 72
         1
 11
12.6760806841
 21
126.5954061278
 31
0.0
100
AcDbText
 73
         3
  0
TEXT
  5
163
100
AcDbEntity
  8
STANDARD
390
0
100
AcDbText
 10
10.9491076096
 20
76.5308227945
 30
0.0
 40
2.23125
  1
E
 41
1.5479870696
  7
Arial
 72
         1
 11
12.6760806841
 21
78.7620727945
 31
0.0
100
AcDbText
 73
         3
  0
TEXT
  5
164
100
AcDbEntity
  8
STANDARD
390
0
100
AcDbText
 10
10.9493506612
 20
28.6974894612
 30
0.0
 40
2.23125
  1
F
 41
1.5477692083
  7
Arial
 72
         1
 11
12.6760806841
 21
30.9287394612
 31
0.0
100
AcDbText
 73
         3
  0
TEXT
  5
165
100
AcDbEntity
  8
STANDARD
390
0
100
AcDbText
 10
36.7048241449
 20
288.48599354
 30
0.0
 40
2.23125
  1
1
 41
1.5479225906
  7
Arial
 72
         1
 11
38.0
 21
290.71724354
 31
0.0
100
AcDbText
 73
         3
  0
TEXT
  5
166
100
AcDbEntity
  8
STANDARD
390
0
100
AcDbText
 10
83.7730999712
 20
288.48599354
 30
0.0
 40
2.23125
  1
2
 41
1.5479215945
  7
Arial
 72
         1
 11
85.5
 21
290.71724354
 31
0.0
100
AcDbText
 73
         3
  0
TEXT
  5
167
100
AcDbEntity
  8
STANDARD
390
0
100
AcDbText
 10
131.2730986376
 20
288.48599354
 30
0.0
 40
2.23125
  1
3
 41
1.5479227899
  7
Arial
 72
         1
 11
133.0
 21
290.71724354
 31
0.0
100
AcDbText
 73
         3
  0
TEXT
  5
168
100
AcDbEntity
  8
STANDARD
390
0
100
AcDbText
 10
178.7730988598
 20
288.48599354
 30
0.0
 40
2.23125
  1
4
 41
1.5479225906
  7
Arial
 72
         1
 11
180.5
 21
290.71724354
 31
0.0
100
AcDbText
 73
         3
  0
LINE
  5
169
100
AcDbEntity
  8
STANDARD
390
0
100
AcDbLine
 10
205.0
 20
292.0
 30
0.0
 11
205.0
 21
287.0
 31
0.0
  0
LINE
  5
16A
100
AcDbEntity
  8
STANDARD
390
0
100
AcDbLine
 10
205.0
 20
5.0
 30
0.0
 11
15.0
 21
5.0
 31
0.0
  0
LINE
  5
16B
100
AcDbEntity
  8
STANDARD
390
0
100
AcDbLine
 10
15.0
 20
5.0
 30
0.0
 11
15.0
 21
287.0
 31
0.0
  0
LINE
  5
16C
100
AcDbEntity
  8
STANDARD
390
0
100
AcDbLine
 10
15.0
 20
292.0
 30
0.0
 11
205.0
 21
292.0
 31
0.0
  0
LINE
  5
16D
100
AcDbEntity
  8
STANDARD
390
0
100
AcDbLine
 10
1.0
 20
1.0
 30
0.0
 11
1.0
 21
296.0
 31
0.0
  0
LINE
  5
16E
100
AcDbEntity
  8
STANDARD
390
0
100
AcDbLine
 10
209.0
 20
1.0
 30
0.0
 11
1.0
 21
1.0
 31
0.0
  0
LINE
  5
16F
100
AcDbEntity
  8
STANDARD
390
0
100
AcDbLine
 10
209.0
 20
296.0
 30
0.0
 11
209.0
 21
1.0
 31
0.0
  0
LINE
  5
170
100
AcDbEntity
  8
STANDARD
390
0
100
AcDbLine
 10
1.0
 20
296.0
 30
0.0
 11
209.0
 21
296.0
 31
0.0
  0
LINE
  5
171
100
AcDbEntity
  8
STANDARD
390
0
100
AcDbLine
 10
15.0
 20
287.0
 30
0.0
 11
15.0
 21
292.0
 31
0.0
  0
LINE
  5
172
100
AcDbEntity
  8
STANDARD
390
0
100
AcDbLine
 10
205.0
 20
287.0
 30
0.0
 11
205.0
 21
5.0
 31
0.0
  0
MTEXT
  5
173
100
AcDbEntity
  8
STANDARD
390
0
100
AcDbMText
 10
203.6063292805
 20
81.4222772661
 30
0.0
 40
1.59375
 41
0.0
 71
         1
 72
         1
  1

  7
Arial
 11
0.0
 21
-1.0
 31
0.0
 73
         1
 44
1.0352941176
  0
MTEXT
  5
174
100
AcDbEntity
  8
STANDARD
390
0
100
AcDbMText
 10
116.6968769253
 20
27.5871143065
 30
0.0
 40
1.59375
 41
0.0
 71
         1
 72
         1
  1

  7
Arial
 11
0.0
 21
-1.0
 31
0.0
 73
         1
 44
1.0352941176
  0
MTEXT
  5
175
100
AcDbEntity
  8
STANDARD
390
0
100
AcDbMText
 10
203.6063292805
 20
125.7560948498
 30
0.0
 40
1.59375
 41
0.0
 71
         1
 72
         1
  1

  7
Arial
 11
0.0
 21
-1.0
 31
0.0
 73
         1
 44
1.0352941176
  0
LINE
  5
176
100
AcDbEntity
  8
STANDARD
390
0
100
AcDbLine
 10
205.0
 20
182.1150997151
 30
0.0
 11
205.0
 21
5.1236467236
 31
0.0
  0
LINE
  5
177
100
AcDbEntity
  8
STANDARD
370
         0
390
0
100
AcDbLine
 10
127.305982906
 20
34.4
 30
0.0
 11
127.305982906
 21
5.0
 31
0.0
  0
LINE
  5
178
100
AcDbEntity
  8
STANDARD
370
         0
390
0
100
AcDbLine
 10
81.105982906
 20
34.4
 30
0.0
 11
205.0
 21
34.4
 31
0.0
  0
LINE
  5
179
100
AcDbEntity
  8
STANDARD
370
         0
390
0
100
AcDbLine
 10
81.105982906
 20
27.4
 30
0.0
 11
205.0
 21
27.4
 31
0.0
  0
LINE
  5
17A
100
AcDbEntity
  8
STANDARD
370
         0
390
0
100
AcDbLine
 10
81.105982906
 20
12.0
 30
0.0
 11
205.0
 21
12.0
 31
0.0
  0
LINE
  5
17B
100
AcDbEntity
  8
STANDARD
370
         0
390
0
100
AcDbLine
 10
81.105982906
 20
34.4
 30
0.0
 11
81.105982906
 21
5.0
 31
0.0
  0
LINE
  5
17C
100
AcDbEntity
  8
STANDARD
370
         0
390
0
100
AcDbLine
 10
165.105982906
 20
34.4
 30
0.0
 11
165.105982906
 21
27.4
 31
0.0
  0
TEXT
  5
17D
100
AcDbEntity
  8
BESCHRIFTUNG
390
0
100
AcDbText
 10
82.2010860399
 20
29.1386
 30
0.0
 40
3.3
  1
Stellwerk HMM
 41
1.3758039542
 51
15.0
  7
Arial
 11
82.2010860399
 21
32.4386
 31
0.0
100
AcDbText
 73
         3
  0
TEXT
  5
17E
100
AcDbEntity
  8
BESCHRIFTUNG
390
0
100
AcDbText
 10
128.6210415954
 20
21.6601111111
 30
0.0
 40
3.3
  1
Einzelhebel JE Gruppenpfade
 41
1.1301977456
 51
15.0
  7
Arial
 11
128.6210415954
 21
24.9601111111
 31
0.0
100
AcDbText
 73
         3
  0
TEXT
  5
17F
100
AcDbEntity
  8
BESCHRIFTUNG
390
0
100
AcDbText
 10
82.2010860399
 20
6.9230888889
 30
0.0
 40
3.3
  1
Dateiname
 41
1.1437088374
 51
15.0
  7
Arial
 11
82.2010860399
 21
10.2230888889
 31
0.0
100
AcDbText
 73
         3
  0
TEXT
  5
180
100
AcDbEntity
  8
BESCHRIFTUNG
390
0
100
AcDbText
 10
82.4210415954
 20
21.6601111111
 30
0.0
 40
3.3
  1
Bl. 3206 Pv
 41
1.1437155269
 51
15.0
  7
Arial
 11
82.4210415954
 21
24.9601111111
 31
0.0
100
AcDbText
 73
         3
  0
TEXT
  5
181
100
AcDbEntity
  8
BESCHRIFTUNG
390
0
100
AcDbText
 10
166.2010860399
 20
29.1386
 30
0.0
 40
3.3
  1
Maßstab 1:1
 41
1.1437192123
 51
15.0
  7
Arial
 11
166.2010860399
 21
32.4386
 31
0.0
100
AcDbText
 73
         3
  0
ENDSEC
  0
SECTION
  2
OBJECTS
  0
DICTIONARY
  5
19
100
AcDbDictionary
280
         0
281
         1
  3
ACAD_GROUP
350
1A
  3
ACAD_MLINESTYLE
350
1B
  3
ACAD_LAYOUT
350
1E
  3
ACAD_PLOTSETTINGS
350
22
  3
ACAD_PLOTSTYLENAME
350
1F
  3
ACAD_WIPEOUT_VARS
350
23
  0
DICTIONARY
  5
1A
102
{ACAD_REACTORS
330
19
102
}
100
AcDbDictionary
280
         0
281
         1
  0
DICTIONARY
  5
1B
102
{ACAD_REACTORS
330
19
102
}
100
AcDbDictionary
280
         0
281
         1
  3
Standard
350
1C
  0
MLINESTYLE
  5
1C
102
{ACAD_REACTORS
330
1B
102
}
100
AcDbMlineStyle
  2
Standard
 70
         0
  3

 62
         0
 51
90.0
 52
90.0
 71
         2
 49
0.5
 62
       256
  6
ByLayer
 49
-0.5
 62
       256
  6
ByLayer
  0
ACDBDICTIONARYWDFLT
  5
1F
102
{ACAD_REACTORS
330
19
102
}
100
AcDbDictionary
281
         1
  3
Normal
350
1D
100
AcDbDictionaryWithDefault
340
1D
  0
ACDBPLACEHOLDER
  5
1D
102
{ACAD_REACTORS
330
1F
102
}
  0
LAYOUT
  5
20
102
{ACAD_REACTORS
330
1E
102
}
100
AcDbPlotSettings
  1

  2

  4

  6

 40
0.0
 41
0.0
 42
0.0
 43
0.0
 44
0.0
 45
0.0
 46
0.0
 47
0.0
 48
0.0
 49
0.0
140
0.0
141
0.0
142
1.0
143
1.0
 70
      1024
 72
         0
 73
         0
 74
         0
  7

 75
         0
147
1.0
148
0.0
149
0.0
100
AcDbLayout
  1
Model
 70
         0
 71
         0
 10
0.0
 20
0.0
 11
0.0
 21
0.0
 12
0.0
 22
0.0
 32
0.0
 14
0.0
 24
0.0
 34
0.0
 15
0.0
 25
0.0
 35
0.0
146
0.0
 13
0.0
 23
0.0
 33
0.0
 16
0.0
 26
0.0
 36
0.0
 17
0.0
 27
0.0
 37
0.0
 76
         0
330
A
331
0
345
0
346
0
  0
LAYOUT
  5
21
102
{ACAD_REACTORS
330
1E
102
}
100
AcDbPlotSettings
  1

  2

  4

  6

 40
0.0
 41
0.0
 42
0.0
 43
0.0
 44
0.0
 45
0.0
 46
0.0
 47
0.0
 48
0.0
 49
0.0
140
0.0
141
0.0
142
1.0
143
1.0
 70
         0
 72
         0
 73
         0
 74
         0
  7

 75
         0
147
1.0
148
0.0
149
0.0
100
AcDbLayout
  1
Layout1
 70
         0
 71
         0
 10
0.0
 20
0.0
 11
0.0
 21
0.0
 12
0.0
 22
0.0
 32
0.0
 14
0.0
 24
0.0
 34
0.0
 15
0.0
 25
0.0
 35
0.0
146
0.0
 13
0.0
 23
0.0
 33
0.0
 16
0.0
 26
0.0
 36
0.0
 17
0.0
 27
0.0
 37
0.0
 76
         0
330
B
331
0
345
0
346
0
  0
DICTIONARY
  5
1E
102
{ACAD_REACTORS
330
19
102
}
100
AcDbDictionary
280
         0
281
         1
  3
Layout1
350
21
  3
Model
350
20
  0
DICTIONARY
  5
22
102
{ACAD_REACTORS
330
19
102
}
100
AcDbDictionary
280
         0
281
         1
  0
WIPEOUTVARIABLES
  5
23
100
AcDbWipeoutVariables
 70
         1
  0
ENDSEC
  0
EOF
