  0
SECTION
  2
HEADER
  9
$ACADVER
  1
AC1015
  9
$ACADMAINTVER
 70
         6
  9
$DWGCODEPAGE
  3
ANSI_1252
  9
$INSBASE
 10
0.0
 20
0.0
 30
0.0
  9
$EXTMIN
 10
-116.7087860107
 20
0.0
 30
0.0
  9
$EXTMAX
 10
210.0
 20
297.0
 30
0.0
  9
$LIMMIN
 10
-116.7087860107
 20
0.0
  9
$LIMMAX
 10
210.0
 20
297.0
  9
$ORTHOMODE
 70
         0
  9
$REGENMODE
 70
         1
  9
$FILLMODE
 70
         1
  9
$QTEXTMODE
 70
         0
  9
$MIRRTEXT
 70
         1
  9
$LTSCALE
 40
8.1677196503
  9
$ATTMODE
 70
         1
  9
$TEXTSIZE
 40
0.2
  9
$TRACEWID
 40
0.05
  9
$TEXTSTYLE
  7
Standard
  9
$CLAYER
  8
0
  9
$CELTYPE
  6
CONTINUOUS
  9
$CECOLOR
 62
       256
  9
$CELTSCALE
 40
1.0
  9
$DISPSILH
 70
         0
  9
$DIMSCALE
 40
1.0
  9
$DIMASZ
 40
0.18
  9
$DIMEXO
 40
0.0625
  9
$DIMDLI
 40
0.38
  9
$DIMRND
 40
0.0
  9
$DIMDLE
 40
0.0
  9
$DIMEXE
 40
0.18
  9
$DIMTP
 40
0.0
  9
$DIMTM
 40
0.0
  9
$DIMTXT
 40
3.0
  9
$DIMCEN
 40
0.09
  9
$DIMTSZ
 40
0.0
  9
$DIMTOL
 70
         0
  9
$DIMLIM
 70
         0
  9
$DIMTIH
 70
         1
  9
$DIMTOH
 70
         1
  9
$DIMSE1
 70
         0
  9
$DIMSE2
 70
         0
  9
$DIMTAD
 70
         1
  9
$DIMZIN
 70
         0
  9
$DIMBLK
  1

  9
$DIMASO
 70
         1
  9
$DIMSHO
 70
         1
  9
$DIMPOST
  1
<>
  9
$DIMAPOST
  1

  9
$DIMALT
 70
         0
  9
$DIMALTD
 70
         2
  9
$DIMALTF
 40
25.4
  9
$DIMLFAC
 40
1.0
  9
$DIMTOFL
 70
         0
  9
$DIMTVP
 40
0.0
  9
$DIMTIX
 70
         0
  9
$DIMSOXD
 70
         0
  9
$DIMSAH
 70
         0
  9
$DIMBLK1
  1

  9
$DIMBLK2
  1

  9
$DIMSTYLE
  2
Standard
  9
$DIMCLRD
 70
         0
  9
$DIMCLRE
 70
         0
  9
$DIMCLRT
 70
         0
  9
$DIMTFAC
 40
1.0
  9
$DIMGAP
 40
0.09
  9
$DIMJUST
 70
         0
  9
$DIMSD1
 70
         0
  9
$DIMSD2
 70
         0
  9
$DIMTOLJ
 70
         1
  9
$DIMTZIN
 70
         0
  9
$DIMALTZ
 70
         0
  9
$DIMALTTZ
 70
         0
  9
$DIMUPT
 70
         0
  9
$DIMDEC
 70
         4
  9
$DIMTDEC
 70
         4
  9
$DIMALTU
 70
         2
  9
$DIMALTTD
 70
         2
  9
$DIMTXSTY
  7
Standard
  9
$DIMAUNIT
 70
         0
  9
$DIMADEC
 70
         0
  9
$DIMALTRND
 40
0.0
  9
$DIMAZIN
 70
         0
  9
$DIMDSEP
 70
         0
  9
$DIMATFIT
 70
         3
  9
$DIMFRAC
 70
         0
  9
$DIMLDRBLK
  1

  9
$DIMLUNIT
 70
         2
  9
$DIMLWD
 70
         0
  9
$DIMLWE
 70
         0
  9
$DIMTMOVE
 70
         0
  9
$LUNITS
 70
         2
  9
$LUPREC
 70
         4
  9
$SKETCHINC
 40
0.1
  9
$FILLETRAD
 40
0.0
  9
$AUNITS
 70
         0
  9
$AUPREC
 70
         0
  9
$MENU
  1
acad
  9
$ELEVATION
 40
0.0
  9
$PELEVATION
 40
0.0
  9
$THICKNESS
 40
0.0
  9
$LIMCHECK
 70
         0
  9
$CHAMFERA
 40
0.0
  9
$CHAMFERB
 40
0.0
  9
$CHAMFERC
 40
0.0
  9
$CHAMFERD
 40
0.0
  9
$SKPOLY
 70
         0
  9
$TDCREATE
 40
0.000000000
  9
$TDUCREATE
 40
0.000000000
  9
$TDUPDATE
 40
0.000000000
  9
$TDUUPDATE
 40
0.000000000
  9
$TDINDWG
 40
0.0000000000
  9
$TDUSRTIMER
 40
0.0000000000
  9
$USRTIMER
 70
         1
  9
$ANGBASE
 50
0.0
  9
$ANGDIR
 70
         0
  9
$PDMODE
 70
         0
  9
$PDSIZE
 40
0.0
  9
$PLINEWID
 40
0.0
  9
$SPLFRAME
 70
         0
  9
$SPLINETYPE
 70
         6
  9
$SPLINESEGS
 70
         8
  9
$HANDSEED
  5
18A
  9
$SURFTAB1
 70
         6
  9
$SURFTAB2
 70
         6
  9
$SURFTYPE
 70
         6
  9
$SURFU
 70
         6
  9
$SURFV
 70
         6
  9
$UCSBASE
  2

  9
$UCSNAME
  2

  9
$UCSORG
 10
0.0
 20
0.0
 30
0.0
  9
$UCSXDIR
 10
1.0
 20
0.0
 30
0.0
  9
$UCSYDIR
 10
0.0
 20
1.0
 30
0.0
  9
$UCSORTHOREF
  2

  9
$UCSORTHOVIEW
 70
         0
  9
$UCSORGTOP
 10
0.0
 20
0.0
 30
0.0
  9
$UCSORGBOTTOM
 10
0.0
 20
0.0
 30
0.0
  9
$UCSORGLEFT
 10
0.0
 20
0.0
 30
0.0
  9
$UCSORGRIGHT
 10
0.0
 20
0.0
 30
0.0
  9
$UCSORGFRONT
 10
0.0
 20
0.0
 30
0.0
  9
$UCSORGBACK
 10
0.0
 20
0.0
 30
0.0
  9
$PUCSBASE
  2

  9
$PUCSNAME
  2

  9
$PUCSORG
 10
0.0
 20
0.0
 30
0.0
  9
$PUCSXDIR
 10
1.0
 20
0.0
 30
0.0
  9
$PUCSYDIR
 10
0.0
 20
1.0
 30
0.0
  9
$PUCSORTHOREF
  2

  9
$PUCSORTHOVIEW
 70
         0
  9
$PUCSORGTOP
 10
0.0
 20
0.0
 30
0.0
  9
$PUCSORGBOTTOM
 10
0.0
 20
0.0
 30
0.0
  9
$PUCSORGLEFT
 10
0.0
 20
0.0
 30
0.0
  9
$PUCSORGRIGHT
 10
0.0
 20
0.0
 30
0.0
  9
$PUCSORGFRONT
 10
0.0
 20
0.0
 30
0.0
  9
$PUCSORGBACK
 10
0.0
 20
0.0
 30
0.0
  9
$USERI1
 70
         0
  9
$USERI2
 70
         0
  9
$USERI3
 70
         0
  9
$USERI4
 70
         0
  9
$USERI5
 70
         0
  9
$USERR1
 40
0.0
  9
$USERR2
 40
0.0
  9
$USERR3
 40
0.0
  9
$USERR4
 40
0.0
  9
$USERR5
 40
0.0
  9
$WORLDVIEW
 70
         1
  9
$SHADEDGE
 70
         3
  9
$SHADEDIF
 70
        70
  9
$TILEMODE
 70
         1
  9
$MAXACTVP
 70
        16
  9
$PINSBASE
 10
0.0
 20
0.0
 30
0.0
  9
$PLIMCHECK
 70
         0
  9
$PEXTMIN
 10
1.0000000000E+20
 20
1.0000000000E+20
 30
1.0000000000E+20
  9
$PEXTMAX
 10
-1.0000000000E+20
 20
-1.0000000000E+20
 30
-1.0000000000E+20
  9
$PLIMMIN
 10
0.0
 20
0.0
  9
$PLIMMAX
 10
12.0
 20
9.0
  9
$UNITMODE
 70
         0
  9
$VISRETAIN
 70
         0
  9
$PLINEGEN
 70
         1
  9
$PSLTSCALE
 70
         0
  9
$TREEDEPTH
 70
      3020
  9
$CMLSTYLE
  2
Standard
  9
$CMLJUST
 70
         0
  9
$CMLSCALE
 40
1.0
  9
$PROXYGRAPHICS
 70
         0
  9
$MEASUREMENT
 70
         1
  9
$CELWEIGHT
370
         0
  9
$ENDCAPS
280
         0
  9
$JOINSTYLE
280
         0
  9
$LWDISPLAY
290
         0
  9
$INSUNITS
 70
         0
  9
$HYPERLINKBASE
  1

  9
$STYLESHEET
  1

  9
$XEDIT
290
         1
  9
$CEPSNTYPE
380
         0
  9
$PSTYLEMODE
290
         1
  9
$FINGERPRINTGUID
  2

  9
$VERSIONGUID
  2

  9
$EXTNAMES
290
         1
  9
$PSVPSCALE
 40
0.0
  0
ENDSEC
  0
SECTION
  2
CLASSES
  0
CLASS
  1
LWPOLYLINE
  2
AcDbPolyline
  3
AutoCAD 2000
 90
        0
280
         0
281
         1
  0
CLASS
  1
IMAGE
  2
AcDbRasterImage
  3
ISM
 90
      127
280
         0
281
         1
  0
CLASS
  1
OLE2FRAME
  2
AcDbOle2Frame
  3
AutoCAD 2000
 90
        0
280
         0
281
         1
  0
CLASS
  1
HATCH
  2
AcDbHatch
  3
AutoCAD 2000
 90
        0
280
         0
281
         1
  0
CLASS
  1
DICTIONARYVAR
  2
AcDbDictionaryVar
  3
AutoCAD 2000
 90
        0
280
         0
281
         0
  0
CLASS
  1
RASTERVARIABLES
  2
AcDbRasterVariables
  3
ISM
 90
        0
280
         0
281
         0
  0
CLASS
  1
IMAGEDEF
  2
AcDbRasterImageDef
  3
ISM
 90
        0
280
         0
281
         0
  0
CLASS
  1
IMAGEDEF_REACTOR
  2
AcDbRasterImageDefReactor
  3
ISM
 90
        1
280
         0
281
         0
  0
CLASS
  1
IDBUFFER
  2
AcDbIdBuffer
  3
AutoCAD 2000
 90
        0
280
         0
281
         0
  0
CLASS
  1
SPATIAL_FILTER
  2
AcDbSpatialFilter
  3
AutoCAD 2000
 90
        0
280
         0
281
         0
  0
CLASS
  1
XRECORD
  2
AcDbXrecord
  3
AutoCAD 2000
 90
        0
280
         0
281
         0
  0
CLASS
  1
SORTENTSTABLE
  2
AcDbSortentsTable
  3
AutoCAD 2000
 90
        0
280
         0
281
         0
  0
CLASS
  1
LAYER_INDEX
  2
AcDbLayerIndex
  3
AutoCAD 2000
 90
        0
280
         0
281
         0
  0
CLASS
  1
SPATIAL_INDEX
  2
AcDbSpatialIndex
  3
AutoCAD 2000
 90
        0
280
         0
281
         0
  0
CLASS
  1
OBJECT_PTR
  2
CAseDLPNTableRecord
  3
"ASE-LPNTableRecord"
 90
        1
280
         0
281
         0
  0
CLASS
  1
LAYOUT
  2
AcDbLayout
  3
AutoCAD 2000
 90
        0
280
         0
281
         0
  0
CLASS
  1
PLOTSETTINGS
  2
AcDbPlotSettings
  3
AutoCAD 2000
 90
        0
280
         0
281
         0
  0
CLASS
  1
ACDBDICTIONARYWDFLT
  2
AcDbDictionaryWithDefault
  3
AutoCAD 2000
 90
        0
280
         0
281
         0
  0
CLASS
  1
ACDBPLACEHOLDER
  2
AcDbPlaceHolder
  3
AutoCAD 2000
 90
        0
280
         0
281
         0
  0
CLASS
  1
VBA_PROJECT
  2
AcDbVbaProject
  3
acadvba
 90
        0
280
         0
281
         0
  0
CLASS
  1
WIPEOUT
  2
AcDbWipeout
  3
WipeOut|AutoCAD Express Tool|expresstools@autodesk.com
 90
      127
280
         0
281
         1
  0
CLASS
  1
WIPEOUTVARIABLES
  2
AcDbWipeoutVariables
  3
WipeOut|AutoCAD Express Tool|expresstools@autodesk.com
 90
        0
280
         0
281
         0
  0
CLASS
  1
RTEXT
  2
RText
  3
RText|AutoCAD Express Tool|expresstools@autodesk.com
 90
        0
280
         0
281
         1
  0
CLASS
  1
ARCALIGNEDTEXT
  2
AcDbArcAlignedText
  3
ATEXT|AutoCAD Express Tool|expresstools@autodesk.com
 90
        0
280
         0
281
         1
  0
ENDSEC
  0
SECTION
  2
TABLES
  0
TABLE
  2
VPORT
  5
7
100
AcDbSymbolTable
 70
         1
  0
VPORT
  5
15
100
AcDbSymbolTableRecord
100
AcDbViewportTableRecord
  2
*ACTIVE
 70
         0
 10
0.0
 20
0.0
 11
1.0
 21
1.0
 12
46.6456062359
 22
148.5
 13
0.0
 23
0.0
 14
1.0
 24
1.0
 15
0.0
 25
0.0
 16
0.0
 26
0.0
 36
1.0
 17
0.0
 27
0.0
 37
0.0
 40
277.9764551758
 41
1.0
 42
50.0
 43
0.0
 44
0.0
 50
0.0
 51
0.0
 71
         0
 72
       100
 73
         1
 74
         1
 75
         0
 76
         0
 77
         0
 78
         0
281
         0
 65
         0
110
0.0
120
0.0
130
0.0
111
1.0
121
0.0
131
0.0
112
0.0
122
1.0
132
0.0
345
0
346
0
 79
         0
146
0.0
  0
ENDTAB
  0
TABLE
  2
LTYPE
  5
4
100
AcDbSymbolTable
 70
        12
  0
LTYPE
  5
11
100
AcDbSymbolTableRecord
100
AcDbLinetypeTableRecord
  2
ByBlock
 70
        64
  3

 72
        65
 73
         0
 40
0.0
  0
LTYPE
  5
12
100
AcDbSymbolTableRecord
100
AcDbLinetypeTableRecord
  2
ByLayer
 70
        64
  3

 72
        65
 73
         0
 40
0.0
  0
LTYPE
  5
13
100
AcDbSymbolTableRecord
100
AcDbLinetypeTableRecord
  2
CONTINUOUS
 70
        64
  3
Solid Line
 72
        65
 73
         0
 40
0.0
  0
LTYPE
  5
24
100
AcDbSymbolTableRecord
100
AcDbLinetypeTableRecord
  2
DOT
 70
        64
  3
. . . . . . . . . . . . . . . . . . . . . . 
 72
        65
 73
         2
 40
0.25
 49
0.0
 74
         0
 49
-0.25
 74
         0
  0
LTYPE
  5
25
100
AcDbSymbolTableRecord
100
AcDbLinetypeTableRecord
  2
HIDDEN
 70
         0
  3
_ _ _ _ _ _ _ _ _ _ _ _ _ _ _ _ _ _ _ _ _ _ _
 72
        65
 73
         2
 40
0.375
 49
0.25
 74
         0
 49
-0.125
 74
         0
  0
LTYPE
  5
26
100
AcDbSymbolTableRecord
100
AcDbLinetypeTableRecord
  2
DASHDOT
 70
         0
  3
__ . __ . __ . __ . __ . __ . __ . __ . __ . __
 72
        65
 73
         4
 40
1.0
 49
0.5
 74
         0
 49
-0.25
 74
         0
 49
0.0
 74
         0
 49
-0.25
 74
         0
  0
LTYPE
  5
27
100
AcDbSymbolTableRecord
100
AcDbLinetypeTableRecord
  2
DIVIDE
 70
         0
  3
__ . . __ . . __ . . __ . . __ . . __ . . __
 72
        65
 73
         6
 40
1.25
 49
0.5
 74
         0
 49
-0.25
 74
         0
 49
0.0
 74
         0
 49
-0.25
 74
         0
 49
0.0
 74
         0
 49
-0.25
 74
         0
  0
LTYPE
  5
28
100
AcDbSymbolTableRecord
100
AcDbLinetypeTableRecord
  2
DASHED
 70
         0
  3
__ __ __ __ __ __ __ __ __ __ __ __ __ __ __
 72
        65
 73
         2
 40
0.75
 49
0.5
 74
         0
 49
-0.25
 74
         0
  0
LTYPE
  5
29
100
AcDbSymbolTableRecord
100
AcDbLinetypeTableRecord
  2
BORDER
 70
         0
  3
__ __ . __ __ . __ __ . __ __ . __ __ .
 72
        65
 73
         6
 40
1.75
 49
0.5
 74
         0
 49
-0.25
 74
         0
 49
0.5
 74
         0
 49
-0.25
 74
         0
 49
0.0
 74
         0
 49
-0.25
 74
         0
  0
LTYPE
  5
2A
100
AcDbSymbolTableRecord
100
AcDbLinetypeTableRecord
  2
CENTER
 70
         0
  3
____ _ ____ _ ____ _ ____ _ ____ _ ____
 72
        65
 73
         4
 40
2.0
 49
1.25
 74
         0
 49
-0.25
 74
         0
 49
0.25
 74
         0
 49
-0.25
 74
         0
  0
LTYPE
  5
2B
100
AcDbSymbolTableRecord
100
AcDbLinetypeTableRecord
  2
DOT2
 70
         0
  3
........................................
 72
        65
 73
         2
 40
0.125
 49
0.0
 74
         0
 49
-0.125
 74
         0
  0
LTYPE
  5
2C
100
AcDbSymbolTableRecord
100
AcDbLinetypeTableRecord
  2
PHANTOM
 70
         0
  3
______  __  __  ______  __  __  ______
 72
        65
 73
         6
 40
2.5
 49
1.25
 74
         0
 49
-0.25
 74
         0
 49
0.25
 74
         0
 49
-0.25
 74
         0
 49
0.25
 74
         0
 49
-0.25
 74
         0
  0
ENDTAB
  0
TABLE
  2
LAYER
  5
2
100
AcDbSymbolTable
 70
       142
  0
LAYER
  5
14
100
AcDbSymbolTableRecord
100
AcDbLayerTableRecord
  2
0
 70
         0
 62
         7
  6
CONTINUOUS
290
         1
370
        -3
390
1D
  0
LAYER
  5
33
100
AcDbSymbolTableRecord
100
AcDbLayerTableRecord
  2
BESCHRIFTUNG
 70
        64
 62
         7
  6
CONTINUOUS
290
         1
370
        25
390
1D
  0
LAYER
  5
34
100
AcDbSymbolTableRecord
100
AcDbLayerTableRecord
  2
SCHRAFFUR
 70
        64
 62
         7
  6
CONTINUOUS
290
         1
370
        25
390
1D
  0
LAYER
  5
35
100
AcDbSymbolTableRecord
100
AcDbLayerTableRecord
  2
MASSTEXTE
 70
        64
 62
       212
  6
CONTINUOUS
290
         1
370
        25
390
1D
  0
LAYER
  5
36
100
AcDbSymbolTableRecord
100
AcDbLayerTableRecord
  2
MASSLINIEN
 70
        64
 62
       172
  6
CONTINUOUS
290
         1
370
        25
390
1D
  0
LAYER
  5
37
100
AcDbSymbolTableRecord
100
AcDbLayerTableRecord
  2
MASSGRENZEN
 70
        64
 62
       172
  6
CONTINUOUS
290
         1
370
        25
390
1D
  0
LAYER
  5
38
100
AcDbSymbolTableRecord
100
AcDbLayerTableRecord
  2
TOLERANZEN
 70
        64
 62
       212
  6
CONTINUOUS
290
         1
370
         0
390
1D
  0
LAYER
  5
39
100
AcDbSymbolTableRecord
100
AcDbLayerTableRecord
  2
BEMASSUNG
 70
        64
 62
         7
  6
CONTINUOUS
290
         1
370
        25
390
1D
  0
LAYER
  5
3A
100
AcDbSymbolTableRecord
100
AcDbLayerTableRecord
  2
HILFSLINIEN
 70
        64
 62
         3
  6
CONTINUOUS
290
         1
370
         0
390
1D
  0
LAYER
  5
3B
100
AcDbSymbolTableRecord
100
AcDbLayerTableRecord
  2
MITTELLINIEN
 70
        64
 62
         5
  6
DASHDOT
290
         1
370
        25
390
1D
  0
LAYER
  5
3C
100
AcDbSymbolTableRecord
100
AcDbLayerTableRecord
  2
BESCHRIFTUNG00
 70
        64
 62
         7
  6
CONTINUOUS
290
         1
370
        25
390
1D
  0
LAYER
  5
3D
100
AcDbSymbolTableRecord
100
AcDbLayerTableRecord
  2
BESCHRIFTUNG0
 70
        64
 62
         7
  6
CONTINUOUS
290
         1
370
        25
390
1D
  0
LAYER
  5
3E
100
AcDbSymbolTableRecord
100
AcDbLayerTableRecord
  2
GEWINDELINIEN
 70
        64
 62
       212
  6
CONTINUOUS
290
         1
370
        25
390
1D
  0
LAYER
  5
3F
100
AcDbSymbolTableRecord
100
AcDbLayerTableRecord
  2
UNSICHTBARE
 70
        64
 62
        92
  6
DASHED
290
         1
370
        25
390
1D
  0
LAYER
  5
40
100
AcDbSymbolTableRecord
100
AcDbLayerTableRecord
  2
VERDECKTE
 70
        64
 62
        92
  6
DASHED
290
         1
370
        25
390
1D
  0
LAYER
  5
41
100
AcDbSymbolTableRecord
100
AcDbLayerTableRecord
  2
LICHTKANTEN
 70
        64
 62
         8
  6
CONTINUOUS
290
         1
370
        25
390
1D
  0
LAYER
  5
42
100
AcDbSymbolTableRecord
100
AcDbLayerTableRecord
  2
SCHNITTVERLAUF
 70
        64
 62
        34
  6
DASHDOT
290
         1
370
        70
390
1D
  0
LAYER
  5
43
100
AcDbSymbolTableRecord
100
AcDbLayerTableRecord
  2
KENNZEICHNUNG
 70
        64
 62
         7
  6
CONTINUOUS
290
         1
370
         0
390
1D
  0
LAYER
  5
44
100
AcDbSymbolTableRecord
100
AcDbLayerTableRecord
  2
PFEILE
 70
        64
 62
         7
  6
CONTINUOUS
290
         1
370
        70
390
1D
  0
LAYER
  5
45
100
AcDbSymbolTableRecord
100
AcDbLayerTableRecord
  2
SCHNITTDARSTELLUNG
 70
        64
 62
         7
  6
CONTINUOUS
290
         1
370
         0
390
1D
  0
LAYER
  5
46
100
AcDbSymbolTableRecord
100
AcDbLayerTableRecord
  2
3201_3R
 70
        64
 62
        14
  6
CONTINUOUS
290
         1
370
         0
390
1D
  0
LAYER
  5
47
100
AcDbSymbolTableRecord
100
AcDbLayerTableRecord
  2
3201_3L
 70
        64
 62
        30
  6
CONTINUOUS
290
         1
370
         0
390
1D
  0
LAYER
  5
48
100
AcDbSymbolTableRecord
100
AcDbLayerTableRecord
  2
3201_1P
 70
        64
 62
        30
  6
CONTINUOUS
290
         1
370
         0
390
1D
  0
LAYER
  5
49
100
AcDbSymbolTableRecord
100
AcDbLayerTableRecord
  2
3201_2P
 70
        64
 62
        30
  6
CONTINUOUS
290
         1
370
         0
390
1D
  0
LAYER
  5
4A
100
AcDbSymbolTableRecord
100
AcDbLayerTableRecord
  2
3201_4P
 70
        64
 62
        30
  6
CONTINUOUS
290
         1
370
         0
390
1D
  0
LAYER
  5
4B
100
AcDbSymbolTableRecord
100
AcDbLayerTableRecord
  2
3201_6L
 70
        64
 62
        30
  6
CONTINUOUS
290
         1
370
         0
390
1D
  0
LAYER
  5
4C
100
AcDbSymbolTableRecord
100
AcDbLayerTableRecord
  2
3201_7L
 70
        64
 62
        30
  6
CONTINUOUS
290
         1
370
         0
390
1D
  0
LAYER
  5
4D
100
AcDbSymbolTableRecord
100
AcDbLayerTableRecord
  2
3201_9P
 70
        64
 62
        30
  6
CONTINUOUS
290
         1
370
         0
390
1D
  0
LAYER
  5
4E
100
AcDbSymbolTableRecord
100
AcDbLayerTableRecord
  2
3201_8R
 70
        64
 62
        14
  6
CONTINUOUS
290
         1
370
         0
390
1D
  0
LAYER
  5
4F
100
AcDbSymbolTableRecord
100
AcDbLayerTableRecord
  2
3201_8L
 70
        64
 62
        30
  6
CONTINUOUS
290
         1
370
         0
390
1D
  0
LAYER
  5
50
100
AcDbSymbolTableRecord
100
AcDbLayerTableRecord
  2
3201_9T
 70
        64
 62
        14
  6
CONTINUOUS
290
         1
370
         0
390
1D
  0
LAYER
  5
51
100
AcDbSymbolTableRecord
100
AcDbLayerTableRecord
  2
3201_11P
 70
        64
 62
        30
  6
CONTINUOUS
290
         1
370
         0
390
1D
  0
LAYER
  5
52
100
AcDbSymbolTableRecord
100
AcDbLayerTableRecord
  2
3201_6R
 70
        64
 62
        14
  6
CONTINUOUS
290
         1
370
         0
390
1D
  0
LAYER
  5
53
100
AcDbSymbolTableRecord
100
AcDbLayerTableRecord
  2
3201_7R
 70
        64
 62
        14
  6
CONTINUOUS
290
         1
370
         0
390
1D
  0
LAYER
  5
54
100
AcDbSymbolTableRecord
100
AcDbLayerTableRecord
  2
3201___ EINZELHEBEL JE
 70
        64
 62
         6
  6
DASHDOT
290
         1
370
         0
390
1D
  0
LAYER
  5
55
100
AcDbSymbolTableRecord
100
AcDbLayerTableRecord
  2
3202_3R
 70
        64
 62
        14
  6
CONTINUOUS
290
         1
370
         0
390
1D
  0
LAYER
  5
56
100
AcDbSymbolTableRecord
100
AcDbLayerTableRecord
  2
3202_3L
 70
        64
 62
        30
  6
CONTINUOUS
290
         1
370
         0
390
1D
  0
LAYER
  5
57
100
AcDbSymbolTableRecord
100
AcDbLayerTableRecord
  2
3202_1P
 70
        64
 62
        30
  6
CONTINUOUS
290
         1
370
         0
390
1D
  0
LAYER
  5
58
100
AcDbSymbolTableRecord
100
AcDbLayerTableRecord
  2
3202_2P
 70
        64
 62
        30
  6
CONTINUOUS
290
         1
370
         0
390
1D
  0
LAYER
  5
59
100
AcDbSymbolTableRecord
100
AcDbLayerTableRecord
  2
3202_4P
 70
        64
 62
        30
  6
CONTINUOUS
290
         1
370
         0
390
1D
  0
LAYER
  5
5A
100
AcDbSymbolTableRecord
100
AcDbLayerTableRecord
  2
3202_6L
 70
        64
 62
        30
  6
CONTINUOUS
290
         1
370
         0
390
1D
  0
LAYER
  5
5B
100
AcDbSymbolTableRecord
100
AcDbLayerTableRecord
  2
3202_7L
 70
        64
 62
        30
  6
CONTINUOUS
290
         1
370
         0
390
1D
  0
LAYER
  5
5C
100
AcDbSymbolTableRecord
100
AcDbLayerTableRecord
  2
3202_9P
 70
        64
 62
        30
  6
CONTINUOUS
290
         1
370
         0
390
1D
  0
LAYER
  5
5D
100
AcDbSymbolTableRecord
100
AcDbLayerTableRecord
  2
3202_8R
 70
        64
 62
        14
  6
CONTINUOUS
290
         1
370
         0
390
1D
  0
LAYER
  5
5E
100
AcDbSymbolTableRecord
100
AcDbLayerTableRecord
  2
3202_8L
 70
        64
 62
        30
  6
CONTINUOUS
290
         1
370
         0
390
1D
  0
LAYER
  5
5F
100
AcDbSymbolTableRecord
100
AcDbLayerTableRecord
  2
3202_9T
 70
        64
 62
        14
  6
CONTINUOUS
290
         1
370
         0
390
1D
  0
LAYER
  5
60
100
AcDbSymbolTableRecord
100
AcDbLayerTableRecord
  2
3202_11P
 70
        64
 62
        30
  6
CONTINUOUS
290
         1
370
         0
390
1D
  0
LAYER
  5
61
100
AcDbSymbolTableRecord
100
AcDbLayerTableRecord
  2
3202_6R
 70
        64
 62
        14
  6
CONTINUOUS
290
         1
370
         0
390
1D
  0
LAYER
  5
62
100
AcDbSymbolTableRecord
100
AcDbLayerTableRecord
  2
3202_7R
 70
        64
 62
        14
  6
CONTINUOUS
290
         1
370
         0
390
1D
  0
LAYER
  5
63
100
AcDbSymbolTableRecord
100
AcDbLayerTableRecord
  2
3202_20T
 70
        64
 62
        14
  6
CONTINUOUS
290
         1
370
         0
390
1D
  0
LAYER
  5
64
100
AcDbSymbolTableRecord
100
AcDbLayerTableRecord
  2
3202_20P
 70
        64
 62
        30
  6
CONTINUOUS
290
         1
370
         0
390
1D
  0
LAYER
  5
65
100
AcDbSymbolTableRecord
100
AcDbLayerTableRecord
  2
3202___ DOPPELHEBEL JE
 70
        64
 62
         6
  6
DASHDOT
290
         1
370
         0
390
1D
  0
LAYER
  5
66
100
AcDbSymbolTableRecord
100
AcDbLayerTableRecord
  2
3203_13P
 70
        64
 62
        30
  6
CONTINUOUS
290
         1
370
        13
390
1D
  0
LAYER
  5
67
100
AcDbSymbolTableRecord
100
AcDbLayerTableRecord
  2
3203_14P
 70
        64
 62
        30
  6
CONTINUOUS
290
         1
370
        13
390
1D
  0
LAYER
  5
68
100
AcDbSymbolTableRecord
100
AcDbLayerTableRecord
  2
3203_11P
 70
        64
 62
        30
  6
CONTINUOUS
290
         1
370
        13
390
1D
  0
LAYER
  5
69
100
AcDbSymbolTableRecord
100
AcDbLayerTableRecord
  2
3203_30P
 70
        64
 62
        30
  6
CONTINUOUS
290
         1
370
        13
390
1D
  0
LAYER
  5
6A
100
AcDbSymbolTableRecord
100
AcDbLayerTableRecord
  2
3203___ EINZELHEBEL JE MIT SCHLOSS
 70
        64
 62
         6
  6
DASHDOT
290
         1
370
         0
390
1D
  0
LAYER
  5
6B
100
AcDbSymbolTableRecord
100
AcDbLayerTableRecord
  2
3204_11P
 70
        64
 62
        30
  6
CONTINUOUS
290
         1
370
        13
390
1D
  0
LAYER
  5
6C
100
AcDbSymbolTableRecord
100
AcDbLayerTableRecord
  2
3204_30P
 70
        64
 62
        30
  6
CONTINUOUS
290
         1
370
        13
390
1D
  0
LAYER
  5
6D
100
AcDbSymbolTableRecord
100
AcDbLayerTableRecord
  2
3204___ DOPPELHEBEL JE MIT SCHLOSS
 70
        64
 62
         6
  6
DASHDOT
290
         1
370
         0
390
1D
  0
LAYER
  5
6E
100
AcDbSymbolTableRecord
100
AcDbLayerTableRecord
  2
3206_1R
 70
        64
 62
        14
  6
CONTINUOUS
290
         1
370
        13
390
1D
  0
LAYER
  5
6F
100
AcDbSymbolTableRecord
100
AcDbLayerTableRecord
  2
3206_3P
 70
        64
 62
        30
  6
CONTINUOUS
290
         1
370
        13
390
1D
  0
LAYER
  5
70
100
AcDbSymbolTableRecord
100
AcDbLayerTableRecord
  2
3206_1L
 70
        64
 62
        30
  6
CONTINUOUS
290
         1
370
        13
390
1D
  0
LAYER
  5
71
100
AcDbSymbolTableRecord
100
AcDbLayerTableRecord
  2
3206_4P
 70
        64
 62
        30
  6
CONTINUOUS
290
         1
370
        13
390
1D
  0
LAYER
  5
72
100
AcDbSymbolTableRecord
100
AcDbLayerTableRecord
  2
3206_2L
 70
        64
 62
        30
  6
CONTINUOUS
290
         1
370
        13
390
1D
  0
LAYER
  5
73
100
AcDbSymbolTableRecord
100
AcDbLayerTableRecord
  2
3206_2R
 70
        64
 62
        14
  6
CONTINUOUS
290
         1
370
        13
390
1D
  0
LAYER
  5
74
100
AcDbSymbolTableRecord
100
AcDbLayerTableRecord
  2
3206_5P
 70
        64
 62
        30
  6
CONTINUOUS
290
         1
370
        13
390
1D
  0
LAYER
  5
75
100
AcDbSymbolTableRecord
100
AcDbLayerTableRecord
  2
3206_5T
 70
        64
 62
        15
  6
CONTINUOUS
290
         1
370
        13
390
1D
  0
LAYER
  5
76
100
AcDbSymbolTableRecord
100
AcDbLayerTableRecord
  2
3206___ EINZELHEBEL JE GRUPPENPFADE
 70
        64
 62
         6
  6
DASHDOT
290
         1
370
         0
390
1D
  0
LAYER
  5
77
100
AcDbSymbolTableRecord
100
AcDbLayerTableRecord
  2
3207_1R
 70
        64
 62
        14
  6
CONTINUOUS
290
         1
370
        13
390
1D
  0
LAYER
  5
78
100
AcDbSymbolTableRecord
100
AcDbLayerTableRecord
  2
3207_3P
 70
        64
 62
        30
  6
CONTINUOUS
290
         1
370
        13
390
1D
  0
LAYER
  5
79
100
AcDbSymbolTableRecord
100
AcDbLayerTableRecord
  2
3207_1L
 70
        64
 62
        30
  6
CONTINUOUS
290
         1
370
        13
390
1D
  0
LAYER
  5
7A
100
AcDbSymbolTableRecord
100
AcDbLayerTableRecord
  2
3207_4P
 70
        64
 62
        30
  6
CONTINUOUS
290
         1
370
        13
390
1D
  0
LAYER
  5
7B
100
AcDbSymbolTableRecord
100
AcDbLayerTableRecord
  2
3207_2L
 70
        64
 62
        30
  6
CONTINUOUS
290
         1
370
        13
390
1D
  0
LAYER
  5
7C
100
AcDbSymbolTableRecord
100
AcDbLayerTableRecord
  2
3207_2R
 70
        64
 62
        14
  6
CONTINUOUS
290
         1
370
        13
390
1D
  0
LAYER
  5
7D
100
AcDbSymbolTableRecord
100
AcDbLayerTableRecord
  2
3207_5P
 70
        64
 62
        30
  6
CONTINUOUS
290
         1
370
        13
390
1D
  0
LAYER
  5
7E
100
AcDbSymbolTableRecord
100
AcDbLayerTableRecord
  2
3207_5T
 70
        64
 62
        15
  6
CONTINUOUS
290
         1
370
        13
390
1D
  0
LAYER
  5
7F
100
AcDbSymbolTableRecord
100
AcDbLayerTableRecord
  2
3207___ DOPPELHEBEL JE GRUPPENPFADE
 70
        64
 62
         6
  6
DASHDOT
290
         1
370
         0
390
1D
  0
LAYER
  5
80
100
AcDbSymbolTableRecord
100
AcDbLayerTableRecord
  2
3208_1R
 70
        64
 62
        14
  6
CONTINUOUS
290
         1
370
        13
390
1D
  0
LAYER
  5
81
100
AcDbSymbolTableRecord
100
AcDbLayerTableRecord
  2
3208_3P
 70
        64
 62
        30
  6
CONTINUOUS
290
         1
370
        13
390
1D
  0
LAYER
  5
82
100
AcDbSymbolTableRecord
100
AcDbLayerTableRecord
  2
3208_1L
 70
        64
 62
        30
  6
CONTINUOUS
290
         1
370
        13
390
1D
  0
LAYER
  5
83
100
AcDbSymbolTableRecord
100
AcDbLayerTableRecord
  2
3208_4P
 70
        64
 62
        30
  6
CONTINUOUS
290
         1
370
        13
390
1D
  0
LAYER
  5
84
100
AcDbSymbolTableRecord
100
AcDbLayerTableRecord
  2
3208_2L
 70
        64
 62
        30
  6
CONTINUOUS
290
         1
370
        13
390
1D
  0
LAYER
  5
85
100
AcDbSymbolTableRecord
100
AcDbLayerTableRecord
  2
3208_2R
 70
        64
 62
        14
  6
CONTINUOUS
290
         1
370
        13
390
1D
  0
LAYER
  5
86
100
AcDbSymbolTableRecord
100
AcDbLayerTableRecord
  2
3208_5P
 70
        64
 62
        30
  6
CONTINUOUS
290
         1
370
        13
390
1D
  0
LAYER
  5
87
100
AcDbSymbolTableRecord
100
AcDbLayerTableRecord
  2
3208_5T
 70
        64
 62
        15
  6
CONTINUOUS
290
         1
370
        13
390
1D
  0
LAYER
  5
88
100
AcDbSymbolTableRecord
100
AcDbLayerTableRecord
  2
3208___ EINZELHEBEL JE MIT SCHLOSS GRUPPENPFADE
 70
        64
 62
         6
  6
DASHDOT
290
         1
370
         0
390
1D
  0
LAYER
  5
89
100
AcDbSymbolTableRecord
100
AcDbLayerTableRecord
  2
3209_1R
 70
        64
 62
        14
  6
CONTINUOUS
290
         1
370
        13
390
1D
  0
LAYER
  5
8A
100
AcDbSymbolTableRecord
100
AcDbLayerTableRecord
  2
3209_3P
 70
        64
 62
        30
  6
CONTINUOUS
290
         1
370
        13
390
1D
  0
LAYER
  5
8B
100
AcDbSymbolTableRecord
100
AcDbLayerTableRecord
  2
3209_1L
 70
        64
 62
        30
  6
CONTINUOUS
290
         1
370
        13
390
1D
  0
LAYER
  5
8C
100
AcDbSymbolTableRecord
100
AcDbLayerTableRecord
  2
3209_4P
 70
        64
 62
        30
  6
CONTINUOUS
290
         1
370
        13
390
1D
  0
LAYER
  5
8D
100
AcDbSymbolTableRecord
100
AcDbLayerTableRecord
  2
3209_2L
 70
        64
 62
        30
  6
CONTINUOUS
290
         1
370
        13
390
1D
  0
LAYER
  5
8E
100
AcDbSymbolTableRecord
100
AcDbLayerTableRecord
  2
3209_2R
 70
        64
 62
        14
  6
CONTINUOUS
290
         1
370
        13
390
1D
  0
LAYER
  5
8F
100
AcDbSymbolTableRecord
100
AcDbLayerTableRecord
  2
3209_5P
 70
        64
 62
        30
  6
CONTINUOUS
290
         1
370
        13
390
1D
  0
LAYER
  5
90
100
AcDbSymbolTableRecord
100
AcDbLayerTableRecord
  2
3209_5T
 70
        64
 62
        15
  6
CONTINUOUS
290
         1
370
        13
390
1D
  0
LAYER
  5
91
100
AcDbSymbolTableRecord
100
AcDbLayerTableRecord
  2
3209___ DOPPELHEBEL JE MIT SCHLOSS GRUPPENPFADE
 70
        64
 62
         6
  6
DASHDOT
290
         1
370
         0
390
1D
  0
LAYER
  5
92
100
AcDbSymbolTableRecord
100
AcDbLayerTableRecord
  2
PFADE
 70
        64
 62
        30
  6
CONTINUOUS
290
         1
370
         0
390
1D
  0
LAYER
  5
93
100
AcDbSymbolTableRecord
100
AcDbLayerTableRecord
  2
3201_8 HEBELSCHILDCHEN UMGELEGT
 70
        64
 62
        16
  6
DASHED
290
         1
370
        18
390
1D
  0
LAYER
  5
94
100
AcDbSymbolTableRecord
100
AcDbLayerTableRecord
  2
3201_8 HEBELSCHILDCHEN
 70
        64
 62
        16
  6
CONTINUOUS
290
         1
370
        18
390
1D
  0
LAYER
  5
95
100
AcDbSymbolTableRecord
100
AcDbLayerTableRecord
  2
3201_1-3HEBELBOCK
 70
        64
 62
         7
  6
CONTINUOUS
290
         1
370
        18
390
1D
  0
LAYER
  5
96
100
AcDbSymbolTableRecord
100
AcDbLayerTableRecord
  2
3201_4 HEBELEISEN UMGELEGT
 70
        64
 62
         5
  6
DASHED
290
         1
370
        18
390
1D
  0
LAYER
  5
97
100
AcDbSymbolTableRecord
100
AcDbLayerTableRecord
  2
3201_4 HEBELEISEN
 70
        64
 62
         5
  6
CONTINUOUS
290
         1
370
        18
390
1D
  0
LAYER
  5
98
100
AcDbSymbolTableRecord
100
AcDbLayerTableRecord
  2
3201_9 HEBELROLLE UMGELEGT
 70
        64
 62
       134
  6
DASHED
290
         1
370
        18
390
1D
  0
LAYER
  5
99
100
AcDbSymbolTableRecord
100
AcDbLayerTableRecord
  2
3201_9 HEBELROLLE
 70
        64
 62
       134
  6
CONTINUOUS
290
         1
370
        18
390
1D
  0
LAYER
  5
9A
100
AcDbSymbolTableRecord
100
AcDbLayerTableRecord
  2
3201_11_ 3202_11 WINKELHEBEL UMGELEGT
 70
        64
 62
       190
  6
DASHED
290
         1
370
        18
390
1D
  0
LAYER
  5
9B
100
AcDbSymbolTableRecord
100
AcDbLayerTableRecord
  2
3201_11_ 3202_11 WINKELHEBEL
 70
        64
 62
       190
  6
CONTINUOUS
290
         1
370
        18
390
1D
  0
LAYER
  5
9C
100
AcDbSymbolTableRecord
100
AcDbLayerTableRecord
  2
3201_6 HANDFALLE ANGEZOGEN
 70
        64
 62
        30
  6
HIDDEN
290
         1
370
        18
390
1D
  0
LAYER
  5
9D
100
AcDbSymbolTableRecord
100
AcDbLayerTableRecord
  2
3201_6 HANDFALLE UMGELEGT
 70
        64
 62
        30
  6
DASHED
290
         1
370
        18
390
1D
  0
LAYER
  5
9E
100
AcDbSymbolTableRecord
100
AcDbLayerTableRecord
  2
3201_6 HANDFALLE
 70
        64
 62
        30
  6
CONTINUOUS
290
         1
370
        18
390
1D
  0
LAYER
  5
9F
100
AcDbSymbolTableRecord
100
AcDbLayerTableRecord
  2
3201_7 HEBELKLINKE UMGELEGT
 70
        64
 62
       171
  6
DASHED
290
         1
370
        18
390
1D
  0
LAYER
  5
A0
100
AcDbSymbolTableRecord
100
AcDbLayerTableRecord
  2
3201_7 HEBELKLINKE
 70
        64
 62
       171
  6
CONTINUOUS
290
         1
370
        18
390
1D
  0
LAYER
  5
A1
100
AcDbSymbolTableRecord
100
AcDbLayerTableRecord
  2
3201_10 SEILZUG
 70
        64
 62
        94
  6
DASHDOT
290
         1
370
        18
390
1D
  0
LAYER
  5
A2
100
AcDbSymbolTableRecord
100
AcDbLayerTableRecord
  2
3201_21 WINKELHEBEL MIT VERRIEGELUNG UMGELEGT
 70
        64
 62
       190
  6
DASHED
290
         1
370
        18
390
1D
  0
LAYER
  5
A3
100
AcDbSymbolTableRecord
100
AcDbLayerTableRecord
  2
3203_11_ 3204_11 WINKELHEBEL MIT VERRIEGELUNG
 70
        64
 62
       190
  6
CONTINUOUS
290
         1
370
        18
390
1D
  0
LAYER
  5
A4
100
AcDbSymbolTableRecord
100
AcDbLayerTableRecord
  2
3203_12+13 SCHLOSSRIEGELPLATTE AUFGESPERRT
 70
        64
 62
       172
  6
DASHED
290
         1
370
        18
390
1D
  0
LAYER
  5
A5
100
AcDbSymbolTableRecord
100
AcDbLayerTableRecord
  2
3203_12+13 SCHLOSSRIEGELPLATTE
 70
        64
 62
       172
  6
CONTINUOUS
290
         1
370
        18
390
1D
  0
LAYER
  5
A6
100
AcDbSymbolTableRecord
100
AcDbLayerTableRecord
  2
3201__-3204__ HEBEL JE
 70
        64
 62
         7
  6
CONTINUOUS
290
         1
370
         0
390
1D
  0
LAYER
  5
A7
100
AcDbSymbolTableRecord
100
AcDbLayerTableRecord
  2
 2001_2 BODEN
 70
        64
 62
        14
  6
CONTINUOUS
290
         1
370
        18
390
1D
  0
LAYER
  5
A8
100
AcDbSymbolTableRecord
100
AcDbLayerTableRecord
  2
 2001_1 RAHMEN
 70
        64
 62
         7
  6
CONTINUOUS
290
         1
370
        18
390
1D
  0
LAYER
  5
A9
100
AcDbSymbolTableRecord
100
AcDbLayerTableRecord
  2
2001__ GEBÄUDE
 70
        64
 62
         7
  6
CONTINUOUS
290
         1
370
         0
390
1D
  0
LAYER
  5
AA
100
AcDbSymbolTableRecord
100
AcDbLayerTableRecord
  2
2101__ HEBELBANK
 70
        64
 62
         9
  6
CONTINUOUS
290
         1
370
        18
390
1D
  0
LAYER
  5
AB
100
AcDbSymbolTableRecord
100
AcDbLayerTableRecord
  2
3601_1 UNTERZUGRAHMEN
 70
        64
 62
         7
  6
CONTINUOUS
290
         1
370
         0
390
1D
  0
LAYER
  5
AC
100
AcDbSymbolTableRecord
100
AcDbLayerTableRecord
  2
3601_2-4 ROLLEN UMGELEGT
 70
        64
 62
       134
  6
DASHED
290
         1
370
        18
390
1D
  0
LAYER
  5
AD
100
AcDbSymbolTableRecord
100
AcDbLayerTableRecord
  2
3601_2-4 ROLLEN
 70
        64
 62
       134
  6
CONTINUOUS
290
         1
370
        18
390
1D
  0
LAYER
  5
AE
100
AcDbSymbolTableRecord
100
AcDbLayerTableRecord
  2
3601_5 ABTRIEB UMGELEGT
 70
        64
 62
       142
  6
DASHED
290
         1
370
        18
390
1D
  0
LAYER
  5
AF
100
AcDbSymbolTableRecord
100
AcDbLayerTableRecord
  2
3601_5 ABTRIEB
 70
        64
 62
       142
  6
CONTINUOUS
290
         1
370
        18
390
1D
  0
LAYER
  5
B0
100
AcDbSymbolTableRecord
100
AcDbLayerTableRecord
  2
3601_6 SCHALTER LINKS_OBEN
 70
        64
 62
       230
  6
DASHED
290
         1
370
        18
390
1D
  0
LAYER
  5
B1
100
AcDbSymbolTableRecord
100
AcDbLayerTableRecord
  2
3601_6 SCHALTER
 70
        64
 62
       230
  6
CONTINUOUS
290
         1
370
        18
390
1D
  0
LAYER
  5
B2
100
AcDbSymbolTableRecord
100
AcDbLayerTableRecord
  2
3601__ UNTERZUG
 70
        64
 62
         9
  6
CONTINUOUS
290
         1
370
        18
390
1D
  0
LAYER
  5
B3
100
AcDbSymbolTableRecord
100
AcDbLayerTableRecord
  2
2052_3 RIEGEL UMGESPERRT
 70
        64
 62
       230
  6
DASHED
290
         1
370
        18
390
1D
  0
LAYER
  5
B4
100
AcDbSymbolTableRecord
100
AcDbLayerTableRecord
  2
2052_3 RIEGEL
 70
        64
 62
       230
  6
CONTINUOUS
290
         1
370
        18
390
1D
  0
LAYER
  5
B5
100
AcDbSymbolTableRecord
100
AcDbLayerTableRecord
  2
2052_4 ZUHALTUNG ANGEHOBEN
 70
        64
 62
        94
  6
DASHED
290
         1
370
        18
390
1D
  0
LAYER
  5
B6
100
AcDbSymbolTableRecord
100
AcDbLayerTableRecord
  2
2052_4 ZUHALTUNG
 70
        64
 62
        94
  6
CONTINUOUS
290
         1
370
        18
390
1D
  0
LAYER
  5
B7
100
AcDbSymbolTableRecord
100
AcDbLayerTableRecord
  2
2052_1_2_7_8 GEHÄUSE
 70
        64
 62
         7
  6
CONTINUOUS
290
         1
370
        18
390
1D
  0
LAYER
  5
B8
100
AcDbSymbolTableRecord
100
AcDbLayerTableRecord
  2
2052_5_6 BESATZUNG
 70
        64
 62
         8
  6
CONTINUOUS
290
         1
370
        18
390
1D
  0
LAYER
  5
B9
100
AcDbSymbolTableRecord
100
AcDbLayerTableRecord
  2
2052__ SCHLOSS MIT DORN
 70
        64
 62
         7
  6
CONTINUOUS
290
         1
370
         0
390
1D
  0
LAYER
  5
BA
100
AcDbSymbolTableRecord
100
AcDbLayerTableRecord
  2
2053_5 SCHILD
 70
        64
 62
        54
  6
CONTINUOUS
290
         1
370
        18
390
1D
  0
LAYER
  5
BB
100
AcDbSymbolTableRecord
100
AcDbLayerTableRecord
  2
2053_1-4 SCHLÜSSEL
 70
        64
 62
       190
  6
CONTINUOUS
290
         1
370
        18
390
1D
  0
LAYER
  5
BC
100
AcDbSymbolTableRecord
100
AcDbLayerTableRecord
  2
2053__ SCHLÜSSEL
 70
        64
 62
         7
  6
CONTINUOUS
290
         1
370
         0
390
1D
  0
LAYER
  5
BD
100
AcDbSymbolTableRecord
100
AcDbLayerTableRecord
  2
KONSTRUKTION
 70
        64
 62
         7
  6
CONTINUOUS
290
         1
370
         0
390
1D
  0
LAYER
  5
BE
100
AcDbSymbolTableRecord
100
AcDbLayerTableRecord
  2
_TEMP
 70
        64
 62
         7
  6
CONTINUOUS
290
         1
370
        50
390
1D
  0
LAYER
  5
BF
100
AcDbSymbolTableRecord
100
AcDbLayerTableRecord
  2
STANDARD
 70
        64
 62
         7
  6
CONTINUOUS
290
         1
370
         0
390
1D
  0
ENDTAB
  0
TABLE
  2
STYLE
  5
3
100
AcDbSymbolTable
 70
         7
  0
STYLE
  5
17
100
AcDbSymbolTableRecord
100
AcDbTextStyleTableRecord
  2
Standard
 70
         0
 40
0.0
 41
1.0
 50
0.0
 71
         0
 42
0.0
  3
txt
  4

  0
STYLE
  5
2D
100
AcDbSymbolTableRecord
100
AcDbTextStyleTableRecord
  2
CADdy
 70
         0
 40
0.0
 41
1.0
 50
0.0
 71
         0
 42
3.5
  3
txt.shx
  4

  0
STYLE
  5
2E
100
AcDbSymbolTableRecord
100
AcDbTextStyleTableRecord
  2
Arial
 70
         0
 40
0.0
 41
1.0
 50
0.0
 71
         0
 42
3.5
  3
arial.ttf
  4

1001
ACAD
1000
Arial
1071
       34
  0
STYLE
  5
2F
100
AcDbSymbolTableRecord
100
AcDbTextStyleTableRecord
  2
Isonorm
 70
         0
 40
0.0
 41
1.0
 50
0.0
 71
         0
 42
3.5
  3
txt.shx
  4

  0
STYLE
  5
30
100
AcDbSymbolTableRecord
100
AcDbTextStyleTableRecord
  2
Tahoma
 70
         0
 40
0.0
 41
1.0
 50
0.0
 71
         0
 42
3.5
  3
tahoma.ttf
  4

1001
ACAD
1000
Tahoma
1071
       34
  0
STYLE
  5
31
100
AcDbSymbolTableRecord
100
AcDbTextStyleTableRecord
  2
Microsoft Sans Serif
 70
         0
 40
0.0
 41
1.0
 50
0.0
 71
         0
 42
3.5
  3
micross.ttf
  4

1001
ACAD
1000
Microsoft Sans Serif
1071
       34
  0
STYLE
  5
32
100
AcDbSymbolTableRecord
100
AcDbTextStyleTableRecord
  2
Arial Rounded MT Bold
 70
         0
 40
0.0
 41
1.0
 50
0.0
 71
         0
 42
3.5
  3
txt.shx
  4

  0
ENDTAB
  0
TABLE
  2
VIEW
  5
5
100
AcDbSymbolTable
 70
         0
  0
ENDTAB
  0
TABLE
  2
UCS
  5
6
100
AcDbSymbolTable
 70
         0
  0
ENDTAB
  0
TABLE
  2
APPID
  5
8
100
AcDbSymbolTable
 70
         1
  0
APPID
  5
16
100
AcDbSymbolTableRecord
100
AcDbRegAppTableRecord
  2
ACAD
 70
        64
  0
ENDTAB
  0
TABLE
  2
DIMSTYLE
  5
9
100
AcDbSymbolTable
 70
         1
100
AcDbDimStyleTable
 71
         0
  0
DIMSTYLE
105
18
100
AcDbSymbolTableRecord
100
AcDbDimStyleTableRecord
  2
Standard
 70
         0
  3

  4

 40
1.0
 41
0.18
 42
0.0625
 43
0.38
 44
0.18
 45
0.0
 46
0.0
 47
0.0
 48
0.0
 71
         0
 72
         0
 73
         1
 74
         1
 75
         0
 76
         0
 77
         0
 78
         0
 79
         0
140
0.18
141
0.09
142
0.0
143
25.4
144
1.0
145
0.0
146
1.0
147
0.09
148
0.0
170
         0
171
         2
172
         0
173
         0
174
         0
175
         0
176
         0
177
         0
178
         0
179
         0
271
         4
272
         4
273
         2
274
         2
275
         0
276
         0
277
         2
278
        46
279
         0
280
         0
281
         0
282
         0
283
         1
284
         0
285
         0
286
         0
288
         0
289
         3
340
17
341
0
342
0
343
0
344
0
371
        -2
372
        -2
  0
ENDTAB
  0
TABLE
  2
BLOCK_RECORD
  5
1
100
AcDbSymbolTable
 70
         5
  0
BLOCK_RECORD
  5
A
100
AcDbSymbolTableRecord
100
AcDbBlockTableRecord
  2
*MODEL_SPACE
340
20
  0
BLOCK_RECORD
  5
B
100
AcDbSymbolTableRecord
100
AcDbBlockTableRecord
  2
*PAPER_SPACE
340
21
  0
BLOCK_RECORD
  5
C0
100
AcDbSymbolTableRecord
100
AcDbBlockTableRecord
  2
D358552320
340
0
102
{BLKREFS
331
11A
102
}
  0
BLOCK_RECORD
  5
C9
100
AcDbSymbolTableRecord
100
AcDbBlockTableRecord
  2
D358552064
340
0
102
{BLKREFS
331
11B
102
}
  0
BLOCK_RECORD
  5
D2
100
AcDbSymbolTableRecord
100
AcDbBlockTableRecord
  2
D358551808
340
0
102
{BLKREFS
331
12E
102
}
  0
BLOCK_RECORD
  5
DB
100
AcDbSymbolTableRecord
100
AcDbBlockTableRecord
  2
D358551552
340
0
102
{BLKREFS
331
138
102
}
  0
BLOCK_RECORD
  5
E4
100
AcDbSymbolTableRecord
100
AcDbBlockTableRecord
  2
D358551296
340
0
102
{BLKREFS
331
13D
102
}
  0
ENDTAB
  0
ENDSEC
  0
SECTION
  2
BLOCKS
  0
BLOCK
  5
D
100
AcDbEntity
  8
0
390
0
100
AcDbBlockBegin
  2
*MODEL_SPACE
 70
         0
 10
0.0
 20
0.0
 30
0.0
  3
*MODEL_SPACE
  1

  0
ENDBLK
  5
E
100
AcDbEntity
  8
0
390
0
100
AcDbBlockEnd
  0
BLOCK
  5
F
100
AcDbEntity
 67
         1
  8
0
390
0
100
AcDbBlockBegin
  2
*PAPER_SPACE
 70
         0
 10
0.0
 20
0.0
 30
0.0
  3
*PAPER_SPACE
  1

  0
ENDBLK
  5
10
100
AcDbEntity
 67
         1
  8
0
390
0
100
AcDbBlockEnd
  0
BLOCK
  5
C1
100
AcDbEntity
  8
BEMASSUNG
390
0
100
AcDbBlockBegin
  2
D358552320
 70
         0
 10
0.0
 20
0.0
 30
0.0
  3
D358552320
  1

  0
LINE
  5
C2
100
AcDbEntity
  8
MASSLINIEN
390
0
 62
       172
100
AcDbLine
 10
47.0450111397
 20
261.3238189382
 30
0.0
 11
47.0450111397
 21
227.3238189382
 31
0.0
  0
LINE
  5
C3
100
AcDbEntity
  8
MASSLINIEN
390
0
 62
       172
100
AcDbLine
 10
33.8396964822
 20
261.3238189382
 30
0.0
 11
49.0450111397
 21
261.3238189382
 31
0.0
  0
LINE
  5
C4
100
AcDbEntity
  8
MASSLINIEN
390
0
 62
       172
100
AcDbLine
 10
33.839696482
 20
227.3238189382
 30
0.0
 11
49.0450111397
 21
227.3238189382
 31
0.0
  0
SOLID
  5
C5
100
AcDbEntity
  8
MASSGRENZEN
390
0
100
AcDbTrace
 10
47.0450111397
 20
261.3238189382
 30
0.0
 11
47.4365897164
 21
258.3494843541
 31
0.0
 12
46.6534325631
 22
258.3494843541
 32
0.0
 13
46.6534325631
 23
258.3494843541
 33
0.0
  0
SOLID
  5
C6
100
AcDbEntity
  8
MASSGRENZEN
390
0
100
AcDbTrace
 10
47.0450111397
 20
227.3238189382
 30
0.0
 11
46.6534325631
 21
230.2981535224
 31
0.0
 12
47.4365897164
 22
230.2981535224
 32
0.0
 13
47.4365897164
 23
230.2981535224
 33
0.0
  0
MTEXT
  5
C7
100
AcDbEntity
  8
MASSTEXTE
390
0
 62
       212
100
AcDbMText
 10
44.5890111397
 20
244.3238189382
 30
0.0
 40
2.0
 41
0.0
 71
         5
 72
         1
  1
\W1.135146;\A1;34
  7
Arial
 11
0.0
 21
1.0
 31
0.0
 73
         0
 44
0.0
  0
ENDBLK
  5
C8
100
AcDbEntity
  8
0
390
0
100
AcDbBlockEnd
  0
BLOCK
  5
CA
100
AcDbEntity
  8
BEMASSUNG
390
0
100
AcDbBlockBegin
  2
D358552064
 70
         0
 10
0.0
 20
0.0
 30
0.0
  3
D358552064
  1

  0
LINE
  5
CB
100
AcDbEntity
  8
MASSLINIEN
390
0
 62
       172
100
AcDbLine
 10
127.9049512446
 20
261.3238189382
 30
0.0
 11
127.9049512446
 21
118.3224182558
 31
0.0
  0
LINE
  5
CC
100
AcDbEntity
  8
MASSLINIEN
390
0
 62
       172
100
AcDbLine
 10
116.3236867978
 20
261.3238189382
 30
0.0
 11
129.9049512446
 21
261.3238189382
 31
0.0
  0
LINE
  5
CD
100
AcDbEntity
  8
MASSLINIEN
390
0
 62
       172
100
AcDbLine
 10
116.3236867975
 20
118.3224182558
 30
0.0
 11
129.9049512446
 21
118.3224182558
 31
0.0
  0
SOLID
  5
CE
100
AcDbEntity
  8
MASSGRENZEN
390
0
100
AcDbTrace
 10
127.9049512446
 20
261.3238189382
 30
0.0
 11
128.2965298213
 21
258.3494843541
 31
0.0
 12
127.513372668
 22
258.3494843541
 32
0.0
 13
127.513372668
 23
258.3494843541
 33
0.0
  0
SOLID
  5
CF
100
AcDbEntity
  8
MASSGRENZEN
390
0
100
AcDbTrace
 10
127.9049512446
 20
118.3224182558
 30
0.0
 11
127.513372668
 21
121.29675284
 31
0.0
 12
128.2965298213
 22
121.29675284
 32
0.0
 13
128.2965298213
 23
121.29675284
 33
0.0
  0
MTEXT
  5
D0
100
AcDbEntity
  8
MASSTEXTE
390
0
 62
       212
100
AcDbMText
 10
125.4489512446
 20
189.823118597
 30
0.0
 40
2.0
 41
0.0
 71
         5
 72
         1
  1
\W1.135145;\A1;143
  7
Arial
 11
0.0
 21
1.0
 31
0.0
 73
         0
 44
0.0
  0
ENDBLK
  5
D1
100
AcDbEntity
  8
0
390
0
100
AcDbBlockEnd
  0
BLOCK
  5
D3
100
AcDbEntity
  8
BEMASSUNG
390
0
100
AcDbBlockBegin
  2
D358551808
 70
         0
 10
0.0
 20
0.0
 30
0.0
  3
D358551808
  1

  0
LINE
  5
D4
100
AcDbEntity
  8
MASSLINIEN
390
0
 62
       172
100
AcDbLine
 10
202.3488412921
 20
261.3238189382
 30
0.0
 11
202.3488412921
 21
133.3279834342
 31
0.0
  0
LINE
  5
D5
100
AcDbEntity
  8
MASSLINIEN
390
0
 62
       172
100
AcDbLine
 10
191.3569580965
 20
261.3238189382
 30
0.0
 11
204.3488412921
 21
261.3238189382
 31
0.0
  0
LINE
  5
D6
100
AcDbEntity
  8
MASSLINIEN
390
0
 62
       172
100
AcDbLine
 10
191.3582675029
 20
133.3279834342
 30
0.0
 11
204.3488412921
 21
133.3279834342
 31
0.0
  0
SOLID
  5
D7
100
AcDbEntity
  8
MASSGRENZEN
390
0
100
AcDbTrace
 10
202.3488412921
 20
261.3238189382
 30
0.0
 11
202.7404198688
 21
258.3494843541
 31
0.0
 12
201.9572627155
 22
258.3494843541
 32
0.0
 13
201.9572627155
 23
258.3494843541
 33
0.0
  0
SOLID
  5
D8
100
AcDbEntity
  8
MASSGRENZEN
390
0
100
AcDbTrace
 10
202.3488412921
 20
133.3279834342
 30
0.0
 11
201.9572627155
 21
136.3023180184
 31
0.0
 12
202.7404198688
 22
136.3023180184
 32
0.0
 13
202.7404198688
 23
136.3023180184
 33
0.0
  0
MTEXT
  5
D9
100
AcDbEntity
  8
MASSTEXTE
390
0
 62
       212
100
AcDbMText
 10
199.8928412921
 20
197.3259011862
 30
0.0
 40
2.0
 41
0.0
 71
         5
 72
         1
  1
\W1.135145;\A1;128
  7
Arial
 11
0.0
 21
1.0
 31
0.0
 73
         0
 44
0.0
  0
ENDBLK
  5
DA
100
AcDbEntity
  8
0
390
0
100
AcDbBlockEnd
  0
BLOCK
  5
DC
100
AcDbEntity
  8
BEMASSUNG
390
0
100
AcDbBlockBegin
  2
D358551552
 70
         0
 10
0.0
 20
0.0
 30
0.0
  3
D358551552
  1

  0
LINE
  5
DD
100
AcDbEntity
  8
MASSLINIEN
390
0
 62
       172
100
AcDbLine
 10
166.7463807888
 20
279.0952949438
 30
0.0
 11
166.7463807888
 21
38.1001037229
 31
0.0
  0
LINE
  5
DE
100
AcDbEntity
  8
MASSLINIEN
390
0
 62
       172
100
AcDbLine
 10
155.083081692
 20
279.0952949438
 30
0.0
 11
168.7463807888
 21
279.0952949438
 31
0.0
  0
LINE
  5
DF
100
AcDbEntity
  8
MASSLINIEN
390
0
 62
       172
100
AcDbLine
 10
155.083081692
 20
38.1001037229
 30
0.0
 11
168.7463807888
 21
38.1001037229
 31
0.0
  0
SOLID
  5
E0
100
AcDbEntity
  8
MASSGRENZEN
390
0
100
AcDbTrace
 10
166.7463807888
 20
279.0952949438
 30
0.0
 11
167.1379593654
 21
276.1209603597
 31
0.0
 12
166.3548022121
 22
276.1209603597
 32
0.0
 13
166.3548022121
 23
276.1209603597
 33
0.0
  0
SOLID
  5
E1
100
AcDbEntity
  8
MASSGRENZEN
390
0
100
AcDbTrace
 10
166.7463807888
 20
38.1001037229
 30
0.0
 11
166.3548022121
 21
41.074438307
 31
0.0
 12
167.1379593654
 22
41.074438307
 32
0.0
 13
167.1379593654
 23
41.074438307
 33
0.0
  0
MTEXT
  5
E2
100
AcDbEntity
  8
MASSTEXTE
390
0
 62
       212
100
AcDbMText
 10
164.2903807888
 20
158.5976993333
 30
0.0
 40
2.0
 41
0.0
 71
         5
 72
         1
  1
\W1.135145;\A1;241
  7
Arial
 11
0.0
 21
1.0
 31
0.0
 73
         0
 44
0.0
  0
ENDBLK
  5
E3
100
AcDbEntity
  8
0
390
0
100
AcDbBlockEnd
  0
BLOCK
  5
E5
100
AcDbEntity
  8
BEMASSUNG
390
0
100
AcDbBlockBegin
  2
D358551296
 70
         0
 10
0.0
 20
0.0
 30
0.0
  3
D358551296
  1

  0
LINE
  5
E6
100
AcDbEntity
  8
MASSLINIEN
390
0
 62
       172
100
AcDbLine
 10
77.4795268562
 20
144.7457865169
 30
0.0
 11
77.4795268562
 21
31.7457865169
 31
0.0
  0
LINE
  5
E7
100
AcDbEntity
  8
MASSLINIEN
390
0
 62
       172
100
AcDbLine
 10
65.8501481871
 20
144.7457865169
 30
0.0
 11
79.4795268562
 21
144.7457865169
 31
0.0
  0
LINE
  5
E8
100
AcDbEntity
  8
MASSLINIEN
390
0
 62
       172
100
AcDbLine
 10
65.8501481871
 20
31.7457865169
 30
0.0
 11
79.4795268562
 21
31.7457865169
 31
0.0
  0
SOLID
  5
E9
100
AcDbEntity
  8
MASSGRENZEN
390
0
100
AcDbTrace
 10
77.4795268562
 20
144.7457865169
 30
0.0
 11
77.8711054328
 21
141.7714519327
 31
0.0
 12
77.0879482795
 22
141.7714519327
 32
0.0
 13
77.0879482795
 23
141.7714519327
 33
0.0
  0
SOLID
  5
EA
100
AcDbEntity
  8
MASSGRENZEN
390
0
100
AcDbTrace
 10
77.4795268562
 20
31.7457865169
 30
0.0
 11
77.0879482795
 21
34.720121101
 31
0.0
 12
77.8711054328
 22
34.720121101
 32
0.0
 13
77.8711054328
 23
34.720121101
 33
0.0
  0
MTEXT
  5
EB
100
AcDbEntity
  8
MASSTEXTE
390
0
 62
       212
100
AcDbMText
 10
75.0235268562
 20
88.2457865169
 30
0.0
 40
2.0
 41
0.0
 71
         5
 72
         1
  1
\W1.135145;\A1;113
  7
Arial
 11
0.0
 21
1.0
 31
0.0
 73
         0
 44
0.0
  0
ENDBLK
  5
EC
100
AcDbEntity
  8
0
390
0
100
AcDbBlockEnd
  0
ENDSEC
  0
SECTION
  2
ENTITIES
  0
TEXT
  5
ED
100
AcDbEntity
  8
BESCHRIFTUNG
390
0
100
AcDbText
 10
129.6929117117
 20
6.9230888889
 30
0.0
 40
3.3
  1
3207 Pv Doppelhebel JE Gruppenpfade
 41
0.9089652111
  7
Arial
 11
129.6929117117
 21
10.2230888889
 31
0.0
100
AcDbText
 73
         3
  0
TEXT
  5
EE
100
AcDbEntity
  8
BESCHRIFTUNG
390
0
100
AcDbText
 10
129.6929117117
 20
29.3230888889
 30
0.0
 40
3.3
  1
2026-04-26
 41
1.0318366578
  7
Arial
 11
129.6929117117
 21
32.6230888889
 31
0.0
100
AcDbText
 73
         3
  0
MTEXT
  5
EF
100
AcDbEntity
  8
3207_1L
390
0
  6
DASHDOT
100
AcDbMText
 10
24.5991810137
 20
257.8672203453
 30
0.0
 40
2.0
 41
0.0
 71
         7
 72
         1
  1
\W1.135084;M15x15x2 \PT2 O2 F150\PB-0.3    D1.6\PI1.2 P4 U20
  7
Arial
 73
         1
 44
0.66
  0
MTEXT
  5
F0
100
AcDbEntity
  8
3207_5P
390
0
  6
DASHDOT
100
AcDbMText
 10
33.0581146632
 20
102.443397053
 30
0.0
 40
2.0
 41
0.0
 71
         5
 72
         1
  1
\W1.135110;>3202.9P\PM50+x5\PT5 O2
  7
Arial
 73
         1
 44
0.66
  0
MTEXT
  5
F1
100
AcDbEntity
  8
3207_4P
390
0
100
AcDbMText
 10
189.5300423839
 20
186.5234088288
 30
0.0
 40
2.0
 41
0.0
 71
         5
 72
         1
  1
\W1.135110;>3201.4P\PM20+x5\PT5 O2
  7
Arial
 73
         1
 44
0.66
  0
MTEXT
  5
F2
100
AcDbEntity
  8
3207_2L
390
0
100
AcDbMText
 10
92.2364809654
 20
124.823943352
 30
0.0
 40
2.0
 41
0.0
 71
         5
 72
         1
  1
\W1.135145;>3201.8L\PM15x15x1\PT2 O2
  7
Arial
 73
         1
 44
0.66
  0
MTEXT
  5
F3
100
AcDbEntity
  8
3207_2L
390
0
100
AcDbMText
 10
91.0958484596
 20
165.5244309644
 30
0.0
 40
2.0
 41
0.0
 71
         5
 72
         1
  1
\W1.135145;>3201.7L\PM15x15x1\PT2 O2
  7
Arial
 73
         1
 44
0.66
  0
MTEXT
  5
F4
100
AcDbEntity
  8
3207_2L
390
0
100
AcDbMText
 10
92.5042324489
 20
230.5236062096
 30
0.0
 40
2.0
 41
0.0
 71
         5
 72
         1
  1
\W1.135145;>3201.6L\PM15x15x1\PT2 O2
  7
Arial
 73
         1
 44
0.66
  0
ARC
  5
F5
100
AcDbEntity
  8
3207___ DOPPELHEBEL JE GRUPPENPFADE
390
0
  6
DASHDOT
100
AcDbCircle
 10
47.9692616075
 20
244.3238189382
 30
0.0
 40
22.1053072956
100
AcDbArc
 50
129.7316949036
 51
230.2683050958
  0
MTEXT
  5
F6
100
AcDbEntity
  8
3207_1L
390
0
  6
DASHDOT
100
AcDbMText
 10
33.2866455324
 20
239.3368748886
 30
0.0
 40
2.0
 41
0.0
 71
         5
 72
         1
  1
\W1.135145;>3201.3L\PM15x15x2\PT2 O2
  7
Arial
 73
         1
 44
0.66
  0
ARC
  5
F7
100
AcDbEntity
  8
3207_1L
390
0
  6
DASHDOT
100
AcDbCircle
 10
164.2725114296
 20
244.3238189376
 30
0.0
 40
131.5359996926
100
AcDbArc
 50
172.5741967101
 51
187.4258032893
  0
ARC
  5
F8
100
AcDbEntity
  8
3207_2L
390
0
  6
DASHDOT
100
AcDbCircle
 10
177.2574647832
 20
241.3259956734
 30
0.0
 40
86.1378475946
100
AcDbArc
 50
166.5756851762
 51
193.4243148238
  0
ARC
  5
F9
100
AcDbEntity
  8
3207_2L
390
0
  6
DASHDOT
100
AcDbCircle
 10
460.4954146321
 20
176.3268204282
 30
0.0
 40
369.7708532398
100
AcDbArc
 50
173.0097380931
 51
186.9902619069
  0
ARC
  5
FA
100
AcDbEntity
  8
3207_2L
390
0
  6
DASHDOT
100
AcDbCircle
 10
110.0156752072
 20
124.8239433515
 30
0.0
 40
17.7743030037
100
AcDbArc
 50
158.5442664592
 51
201.4557335388
  0
ARC
  5
FB
100
AcDbEntity
  8
3207_4P
390
0
  6
DASHDOT
100
AcDbCircle
 10
744.9200399069
 20
197.3315641687
 30
0.0
 40
557.2495798239
100
AcDbArc
 50
173.4058401274
 51
186.5953321523
  0
ARC
  5
FC
100
AcDbEntity
  8
3207_5P
390
0
  6
DASHDOT
100
AcDbCircle
 10
308.6822513473
 20
113.2457865169
 30
0.0
 40
275.0601267809
100
AcDbArc
 50
173.4240358702
 51
186.5759641298
  0
ARC
  5
FD
100
AcDbEntity
  8
3207_1R
390
0
  6
DASHDOT
100
AcDbCircle
 10
164.2725114296
 20
193.9327129532
 30
0.0
 40
131.5359996926
100
AcDbArc
 50
172.5741967101
 51
187.4258032893
  0
ARC
  5
FE
100
AcDbEntity
  8
3207___ DOPPELHEBEL JE GRUPPENPFADE
390
0
  6
DASHDOT
100
AcDbCircle
 10
47.9692616075
 20
193.9327129538
 30
0.0
 40
22.1053072956
100
AcDbArc
 50
129.7316949036
 51
230.2683050958
  0
MTEXT
  5
FF
100
AcDbEntity
  8
3207_1R
390
0
  6
DASHDOT
100
AcDbMText
 10
33.2866455324
 20
188.9457689042
 30
0.0
 40
2.0
 41
0.0
 71
         5
 72
         1
  1
\W1.135111;>3201.3R\PM15x15x2\PT2 O2
  7
Arial
 73
         1
 44
0.66
  0
CIRCLE
  5
100
100
AcDbEntity
  8
3207_1L
390
0
  6
PHANTOM
100
AcDbCircle
 10
33.8396964822
 20
261.3238189382
 30
0.0
 40
0.5
  0
CIRCLE
  5
101
100
AcDbEntity
  8
3207_1L
390
0
  6
PHANTOM
100
AcDbCircle
 10
33.839696482
 20
227.3238189382
 30
0.0
 40
1.0
  0
MTEXT
  5
102
100
AcDbEntity
  8
3207___ DOPPELHEBEL JE GRUPPENPFADE
390
0
  6
DASHDOT
100
AcDbMText
 10
24.6660780798
 20
248.0750545523
 30
0.0
 40
2.0
 41
0.0
 71
         5
 72
         1
  1
\W1.135145;>3207.1L\PM15x15x2\PT2 O2
  7
Arial
 73
         1
 44
0.66
  0
MTEXT
  5
103
100
AcDbEntity
  8
3207___ DOPPELHEBEL JE GRUPPENPFADE
390
0
  6
DASHDOT
100
AcDbMText
 10
24.3429977791
 20
197.1218814955
 30
0.0
 40
2.0
 41
0.0
 71
         5
 72
         1
  1
\W1.135110;>3207.1R\PM15x15x2\PT2 O2
  7
Arial
 73
         1
 44
0.66
  0
CIRCLE
  5
104
100
AcDbEntity
  8
3207_1R
390
0
  6
PHANTOM
100
AcDbCircle
 10
33.8396964822
 20
210.9327129539
 30
0.0
 40
0.5
  0
CIRCLE
  5
105
100
AcDbEntity
  8
3207_1R
390
0
  6
PHANTOM
100
AcDbCircle
 10
33.839696482
 20
176.9327129539
 30
0.0
 40
1.0
  0
TEXT
  5
106
100
AcDbEntity
  8
3207_1R
390
0
  6
DASHDOT
100
AcDbText
 10
26.6992029687
 20
211.0299976696
 30
0.0
 40
2.0
  1
@3207.1L
 41
1.1351288415
  7
Arial
100
AcDbText
  0
ARC
  5
107
100
AcDbEntity
  8
3207___ DOPPELHEBEL JE GRUPPENPFADE
390
0
  6
DASHDOT
100
AcDbCircle
 10
267.0807313549
 20
189.8231185968
 30
0.0
 40
187.7550310173
100
AcDbArc
 50
157.6155717002
 51
202.3844282996
  0
ARC
  5
108
100
AcDbEntity
  8
3207___ DOPPELHEBEL JE GRUPPENPFADE
390
0
  6
DASHDOT
100
AcDbCircle
 10
503.2834157871
 20
158.5976993333
 30
0.0
 40
368.4605042767
100
AcDbArc
 50
160.9113997168
 51
199.0886002832
  0
ARC
  5
109
100
AcDbEntity
  8
3207___ DOPPELHEBEL JE GRUPPENPFADE
390
0
  6
DASHDOT
100
AcDbCircle
 10
343.2201927418
 20
197.3274547511
 30
0.0
 40
164.796773834
100
AcDbArc
 50
157.1490587558
 51
202.8521135238
  0
ARC
  5
10A
100
AcDbEntity
  8
3207___ DOPPELHEBEL JE GRUPPENPFADE
390
0
  6
DASHDOT
100
AcDbCircle
 10
117.2647756824
 20
88.2457865169
 30
0.0
 40
99.4428989754
100
AcDbArc
 50
145.3776177856
 51
214.6223822144
  0
MTEXT
  5
10B
100
AcDbEntity
  8
3207___ DOPPELHEBEL JE GRUPPENPFADE
390
0
100
AcDbMText
 10
79.7718741836
 20
205.548005091
 30
0.0
 40
2.0
 41
0.0
 71
         5
 72
         1
  1
\W1.135145;>3207.2L\PM15x15x1\PT2 O2
  7
Arial
 73
         1
 44
0.66
  0
MTEXT
  5
10C
100
AcDbEntity
  8
3207_2L
390
0
100
AcDbMText
 10
84.2326079799
 20
257.8672203453
 30
0.0
 40
2.0
 41
0.0
 71
         7
 72
         1
  1
\W1.135085;M15x15x1\PT2 O2 F150\PB-0.3    D1.6\PI1.2 P4 U20
  7
Arial
 73
         1
 44
0.66
  0
CIRCLE
  5
10D
100
AcDbEntity
  8
3207_2L
390
0
  6
PHANTOM
100
AcDbCircle
 10
93.4731234485
 20
261.3238189382
 30
0.0
 40
0.5
  0
CIRCLE
  5
10E
100
AcDbEntity
  8
3207_2L
390
0
  6
PHANTOM
100
AcDbCircle
 10
93.4731234482
 20
118.3224182558
 30
0.0
 40
1.0
  0
MTEXT
  5
10F
100
AcDbEntity
  8
3207___ DOPPELHEBEL JE GRUPPENPFADE
390
0
100
AcDbMText
 10
102.6224375328
 20
205.548005091
 30
0.0
 40
2.0
 41
0.0
 71
         5
 72
         1
  1
\W1.135110;>3207.2R\PM15x15x1\PT2 O2
  7
Arial
 73
         1
 44
0.66
  0
TEXT
  5
110
100
AcDbEntity
  8
3207_2R
390
0
100
AcDbText
 10
108.6861466677
 20
262.218153407
 30
0.0
 40
2.0
  1
@3207.2L
 41
1.1351287537
  7
Arial
100
AcDbText
  0
MTEXT
  5
111
100
AcDbEntity
  8
3207_2R
390
0
100
AcDbMText
 10
115.0870443147
 20
124.823943352
 30
0.0
 40
2.0
 41
0.0
 71
         5
 72
         1
  1
\W1.135111;>3201.8R\PM15x15x1\PT2 O2
  7
Arial
 73
         1
 44
0.66
  0
MTEXT
  5
112
100
AcDbEntity
  8
3207_2R
390
0
100
AcDbMText
 10
113.9464118089
 20
165.5244309644
 30
0.0
 40
2.0
 41
0.0
 71
         5
 72
         1
  1
\W1.135110;>3201.7R\PM15x15x1\PT2 O2
  7
Arial
 73
         1
 44
0.66
  0
MTEXT
  5
113
100
AcDbEntity
  8
3207_2R
390
0
100
AcDbMText
 10
115.3547957982
 20
230.5236062096
 30
0.0
 40
2.0
 41
0.0
 71
         5
 72
         1
  1
\W1.135111;>3201.6R\PM15x15x1\PT2 O2
  7
Arial
 73
         1
 44
0.66
  0
ARC
  5
114
100
AcDbEntity
  8
3207_2R
390
0
  6
DASHDOT
100
AcDbCircle
 10
200.1080281325
 20
241.3259956734
 30
0.0
 40
86.1378475946
100
AcDbArc
 50
166.5756851762
 51
193.4243148238
  0
ARC
  5
115
100
AcDbEntity
  8
3207_2R
390
0
  6
DASHDOT
100
AcDbCircle
 10
483.3459779813
 20
176.3268204282
 30
0.0
 40
369.7708532398
100
AcDbArc
 50
173.0097380931
 51
186.9902619069
  0
ARC
  5
116
100
AcDbEntity
  8
3207_2R
390
0
  6
DASHDOT
100
AcDbCircle
 10
132.8662385565
 20
124.8239433515
 30
0.0
 40
17.7743030037
100
AcDbArc
 50
158.5442664592
 51
201.4557335388
  0
ARC
  5
117
100
AcDbEntity
  8
3207___ DOPPELHEBEL JE GRUPPENPFADE
390
0
  6
DASHDOT
100
AcDbCircle
 10
289.9312947042
 20
189.8231185968
 30
0.0
 40
187.7550310173
100
AcDbArc
 50
157.6155717002
 51
202.3844282996
  0
CIRCLE
  5
118
100
AcDbEntity
  8
3207_2R
390
0
  6
PHANTOM
100
AcDbCircle
 10
116.3236867978
 20
261.3238189382
 30
0.0
 40
0.5
  0
CIRCLE
  5
119
100
AcDbEntity
  8
3207_2R
390
0
  6
PHANTOM
100
AcDbCircle
 10
116.3236867975
 20
118.3224182558
 30
0.0
 40
1.0
  0
INSERT
  5
11A
100
AcDbEntity
  8
BEMASSUNG
390
0
100
AcDbBlockReference
  2
D358552320
 10
0.0
 20
0.0
 30
0.0
  0
INSERT
  5
11B
100
AcDbEntity
  8
BEMASSUNG
390
0
100
AcDbBlockReference
  2
D358552064
 10
0.0
 20
0.0
 30
0.0
  0
MTEXT
  5
11C
100
AcDbEntity
  8
3207_3P
390
0
100
AcDbMText
 10
145.9572345733
 20
276.1253699269
 30
0.0
 40
2.0
 41
0.0
 71
         7
 72
         1
  1
\W1.135082;M60x2\PT2 O2 F150\PB-0.3    D1.6\PI1.2 P4 U20
  7
Arial
 73
         1
 44
0.66
  0
CIRCLE
  5
11D
100
AcDbEntity
  8
3207_3P
390
0
  6
PHANTOM
100
AcDbCircle
 10
155.083081692
 20
279.0952949438
 30
0.0
 40
0.5
  0
MTEXT
  5
11E
100
AcDbEntity
  8
3207_4P
390
0
100
AcDbMText
 10
182.2311109778
 20
258.3538939213
 30
0.0
 40
2.0
 41
0.0
 71
         7
 72
         1
  1
\W1.135098;M20+x5\PT5 O2 F150\PB-0.3    D1.6\PI1.2 P4 U20
  7
Arial
 73
         1
 44
0.66
  0
CIRCLE
  5
11F
100
AcDbEntity
  8
3207_4P
390
0
  6
PHANTOM
100
AcDbCircle
 10
191.3569580965
 20
261.3238189382
 30
0.0
 40
0.5
  0
MTEXT
  5
120
100
AcDbEntity
  8
3207___ DOPPELHEBEL JE GRUPPENPFADE
390
0
100
AcDbMText
 10
140.5037528921
 20
216.1977737045
 30
0.0
 40
2.0
 41
0.0
 71
         5
 72
         1
  1
\W1.135110;>3207.3P\PM60x2\PT2 O2
  7
Arial
 73
         1
 44
0.66
  0
MTEXT
  5
121
100
AcDbEntity
  8
3207___ DOPPELHEBEL JE GRUPPENPFADE
390
0
100
AcDbMText
 10
177.764614644
 20
204.5274863312
 30
0.0
 40
2.0
 41
0.0
 71
         5
 72
         1
  1
\W1.135110;>3207.4P\PM20+x5\PT5 O2
  7
Arial
 73
         1
 44
0.66
  0
CIRCLE
  5
122
100
AcDbEntity
  8
3207_3P
390
0
  6
PHANTOM
100
AcDbCircle
 10
155.083081692
 20
38.1001037229
 30
0.0
 40
1.0
  0
CIRCLE
  5
123
100
AcDbEntity
  8
3207_4P
390
0
  6
PHANTOM
100
AcDbCircle
 10
191.3582675029
 20
133.3279834342
 30
0.0
 40
1.0
  0
TEXT
  5
124
100
AcDbEntity
  8
3207_5P
390
0
100
AcDbText
 10
27.7942339172
 20
145.6401209856
 30
0.0
 40
2.0
  1
@3207.4P
 41
1.1350967802
  7
Arial
100
AcDbText
  0
CIRCLE
  5
125
100
AcDbEntity
  8
3207_5P
390
0
  6
PHANTOM
100
AcDbCircle
 10
35.4317740472
 20
144.7457865169
 30
0.0
 40
0.5
  0
CIRCLE
  5
126
100
AcDbEntity
  8
3207_5P
390
0
  6
PHANTOM
100
AcDbCircle
 10
35.4317740472
 20
31.7457865169
 30
0.0
 40
1.0
  0
MTEXT
  5
127
100
AcDbEntity
  8
3207___ DOPPELHEBEL JE GRUPPENPFADE
390
0
  6
DASHDOT
100
AcDbMText
 10
24.9550624082
 20
120.4475039795
 30
0.0
 40
2.0
 41
0.0
 71
         5
 72
         1
  1
\W1.135110;>3207.5P\PM50x5\PT5 O2
  7
Arial
 73
         1
 44
0.66
  0
CIRCLE
  5
128
100
AcDbEntity
  8
3207_5T
390
0
  6
PHANTOM
100
AcDbCircle
 10
65.8501481871
 20
144.7457865169
 30
0.0
 40
0.5
  0
CIRCLE
  5
129
100
AcDbEntity
  8
3207_5T
390
0
  6
PHANTOM
100
AcDbCircle
 10
65.8501481871
 20
31.7457865169
 30
0.0
 40
1.0
  0
ARC
  5
12A
100
AcDbEntity
  8
3207_5T
390
0
  6
DASHDOT
100
AcDbCircle
 10
339.1006254872
 20
113.2457865169
 30
0.0
 40
275.0601267809
100
AcDbArc
 50
173.4240358702
 51
186.5759641298
  0
MTEXT
  5
12B
100
AcDbEntity
  8
3207_5T
390
0
100
AcDbMText
 10
63.4764888031
 20
102.443397053
 30
0.0
 40
2.0
 41
0.0
 71
         5
 72
         1
  1
\W1.135136;>3202.9T\PM50+x5\PT5 O6
  7
Arial
 73
         1
 44
0.66
  0
ARC
  5
12C
100
AcDbEntity
  8
3207___ DOPPELHEBEL JE GRUPPENPFADE
390
0
  6
DASHDOT
100
AcDbCircle
 10
147.6831498224
 20
88.2457865169
 30
0.0
 40
99.4428989754
100
AcDbArc
 50
145.3776177856
 51
214.6223822144
  0
MTEXT
  5
12D
100
AcDbEntity
  8
3207___ DOPPELHEBEL JE GRUPPENPFADE
390
0
100
AcDbMText
 10
55.3734365481
 20
120.4475039795
 30
0.0
 40
2.0
 41
0.0
 71
         5
 72
         1
  1
\W1.135136;>3207.5T\PM50x5\PT5 O6
  7
Arial
 73
         1
 44
0.66
  0
INSERT
  5
12E
100
AcDbEntity
  8
BEMASSUNG
390
0
100
AcDbBlockReference
  2
D358551808
 10
0.0
 20
0.0
 30
0.0
  0
MTEXT
  5
12F
100
AcDbEntity
  8
3207_5T
390
0
100
AcDbMText
 10
56.7243010684
 20
141.7758614999
 30
0.0
 40
2.0
 41
0.0
 71
         7
 72
         1
  1
\W1.135081;M50x5\PT5 O6 F150\PB-0.3    D1.6\PI1.2 P4 U20
  7
Arial
 73
         1
 44
0.66
  0
MTEXT
  5
130
100
AcDbEntity
  8
3207_3P
390
0
100
AcDbMText
 10
148.7280444402
 20
80.6858578975
 30
0.0
 40
2.0
 41
0.0
 71
         5
 72
         1
  1
\W1.135110;>3202.1P\PM50+x2\PT2 O2
  7
Arial
 73
         1
 44
0.66
  0
ARC
  5
131
100
AcDbEntity
  8
3207_3P
390
0
  6
DASHDOT
100
AcDbCircle
 10
299.8013331263
 20
83.0976993333
 30
0.0
 40
151.5524856573
100
AcDbArc
 50
162.7278370275
 51
197.2721629725
  0
MTEXT
  5
132
100
AcDbEntity
  8
3207_3P
390
0
100
AcDbMText
 10
149.1832137255
 20
239.9604606535
 30
0.0
 40
2.0
 41
0.0
 71
         5
 72
         1
  1
\W1.135110;>3202.2P\PM50+x2\PT2 O2
  7
Arial
 73
         1
 44
0.66
  0
ARC
  5
133
100
AcDbEntity
  8
3207_3P
390
0
  6
DASHDOT
100
AcDbCircle
 10
424.8772400369
 20
220.0929633517
 30
0.0
 40
276.17053248
100
AcDbArc
 50
167.6639812981
 51
192.3360187019
  0
MTEXT
  5
134
100
AcDbEntity
  8
3207_3P
390
0
100
AcDbMText
 10
150.5776167828
 20
152.5895626174
 30
0.0
 40
2.0
 41
0.0
 71
         5
 72
         1
  1
\W1.135114;>3202.11P\PM50+x2\PT2 O2
  7
Arial
 73
         1
 44
0.66
  0
ARC
  5
135
100
AcDbEntity
  8
3207_3P
390
0
  6
DASHDOT
100
AcDbCircle
 10
160.8504068801
 20
152.5895626174
 30
0.0
 40
10.2727900974
100
AcDbArc
 50
124.1538912032
 51
235.8461087972
  0
ARC
  5
136
100
AcDbEntity
  8
3207_3P
390
0
  6
DASHED
100
AcDbCircle
 10
159.2677050232
 20
136.0918942095
 30
0.0
 40
9.0253350209
100
AcDbArc
 50
117.6230789598
 51
242.3769210397
  0
TEXT
  5
137
100
AcDbEntity
  8
BESCHRIFTUNG
390
0
  6
DASHED
100
AcDbText
 10
154.3534882656
 20
134.8940989537
 30
0.0
 40
3.0
  1
160
 41
1.1351452038
  7
Arial
100
AcDbText
  0
INSERT
  5
138
100
AcDbEntity
  8
BEMASSUNG
390
0
100
AcDbBlockReference
  2
D358551552
 10
0.0
 20
0.0
 30
0.0
  0
MTEXT
  5
139
100
AcDbEntity
  8
3207_5P
390
0
  6
DASHDOT
100
AcDbMText
 10
34.3495377209
 20
69.589383206
 30
0.0
 40
2.0
 41
0.0
 71
         5
 72
         1
  1
\W1.135114;>3202.20P\PM50+x5\PT5 O2
  7
Arial
 73
         1
 44
0.66
  0
MTEXT
  5
13A
100
AcDbEntity
  8
3207_5T
390
0
100
AcDbMText
 10
64.7679118608
 20
69.589383206
 30
0.0
 40
2.0
 41
0.0
 71
         5
 72
         1
  1
\W1.135137;>3202.20T\PM50+x5\PT5 O6
  7
Arial
 73
         1
 44
0.66
  0
ARC
  5
13B
100
AcDbEntity
  8
3207_5P
390
0
  6
DASHDOT
100
AcDbCircle
 10
140.7377853917
 20
56.7457865169
 30
0.0
 40
108.2328786705
100
AcDbArc
 50
166.6450235592
 51
193.3549764408
  0
ARC
  5
13C
100
AcDbEntity
  8
3207_5T
390
0
  6
DASHDOT
100
AcDbCircle
 10
171.1561595317
 20
56.7457865169
 30
0.0
 40
108.2328786705
100
AcDbArc
 50
166.6450235592
 51
193.3549764408
  0
INSERT
  5
13D
100
AcDbEntity
  8
BEMASSUNG
390
0
100
AcDbBlockReference
  2
D358551296
 10
0.0
 20
0.0
 30
0.0
  0
TEXT
  5
13E
100
AcDbEntity
  8
BESCHRIFTUNG
390
0
  6
DASHED
100
AcDbText
 10
169.2065338916
 20
277.650953886
 30
0.0
 40
3.0
  1
[19]
 41
1.1351198131
  7
Arial
100
AcDbText
  0
MTEXT
  5
13F
100
AcDbEntity
  8
BESCHRIFTUNG
390
0
100
AcDbMText
 10
36.3653546481
 20
156.7473856102
 30
0.0
 40
2.5
 41
0.0
 71
         5
 72
         1
  1
\W1.135138;\L3207.5\P50x5
  7
Arial
 73
         1
 44
0.66
  0
MTEXT
  5
140
100
AcDbEntity
  8
BESCHRIFTUNG
390
0
100
AcDbMText
 10
137.6302984684
 20
275.3763603293
 30
0.0
 40
2.5
 41
0.0
 71
         5
 72
         1
  1
\W1.135138;\L3207.3\P60x2
  7
Arial
 73
         1
 44
0.66
  0
MTEXT
  5
141
100
AcDbEntity
  8
BESCHRIFTUNG
390
0
100
AcDbMText
 10
196.0123209403
 20
275.124547245
 30
0.0
 40
2.5
 41
0.0
 71
         5
 72
         1
  1
\W1.135138;\L3207.4\P50x5
  7
Arial
 73
         1
 44
0.66
  0
MTEXT
  5
142
100
AcDbEntity
  8
BESCHRIFTUNG
390
0
100
AcDbMText
 10
80.6916885394
 20
275.624547245
 30
0.0
 40
2.5
 41
0.0
 71
         5
 72
         1
  1
\W1.135138;\L3207.2\P15x15x1
  7
Arial
 73
         1
 44
0.66
  0
MTEXT
  5
143
100
AcDbEntity
  8
BESCHRIFTUNG
390
0
100
AcDbMText
 10
39.0313101865
 20
275.6432346121
 30
0.0
 40
2.5
 41
0.0
 71
         5
 72
         1
  1
\W1.135138;\L3207.1\P15x15x2
  7
Arial
 73
         1
 44
0.66
  0
ARC
  5
144
100
AcDbEntity
  8
3207___ DOPPELHEBEL JE GRUPPENPFADE
390
0
  6
DASHDOT
100
AcDbCircle
 10
-85.7664125886
 20
212.5351738759
 30
0.0
 40
22.1053072956
100
AcDbArc
 50
129.7316949036
 51
230.2683050958
  0
ARC
  5
145
100
AcDbEntity
  8
3207___ DOPPELHEBEL JE GRUPPENPFADE
390
0
  6
DASHDOT
100
AcDbCircle
 10
-85.7664125886
 20
162.1440678915
 30
0.0
 40
22.1053072956
100
AcDbArc
 50
129.7316949036
 51
230.2683050958
  0
ARC
  5
146
100
AcDbEntity
  8
3207___ DOPPELHEBEL JE GRUPPENPFADE
390
0
  6
DASHDOT
100
AcDbCircle
 10
101.0389250587
 20
222.6467377346
 30
0.0
 40
187.7550310173
100
AcDbArc
 50
157.6155717002
 51
202.3844282996
  0
ARC
  5
147
100
AcDbEntity
  8
3207___ DOPPELHEBEL JE GRUPPENPFADE
390
0
  6
DASHDOT
100
AcDbCircle
 10
326.8202765555
 20
173.1839858341
 30
0.0
 40
368.4605042767
100
AcDbArc
 50
160.9113997168
 51
199.0886002832
  0
ARC
  5
148
100
AcDbEntity
  8
3207___ DOPPELHEBEL JE GRUPPENPFADE
390
0
  6
DASHDOT
100
AcDbCircle
 10
143.830121052
 20
207.2241414308
 30
0.0
 40
164.796773834
100
AcDbArc
 50
157.1490587558
 51
202.8521135238
  0
ARC
  5
149
100
AcDbEntity
  8
3207___ DOPPELHEBEL JE GRUPPENPFADE
390
0
  6
DASHDOT
100
AcDbCircle
 10
-2.9231656975
 20
83.5526070869
 30
0.0
 40
99.4428989754
100
AcDbArc
 50
145.3776177856
 51
214.6223822144
  0
ARC
  5
14A
100
AcDbEntity
  8
3207___ DOPPELHEBEL JE GRUPPENPFADE
390
0
  6
DASHDOT
100
AcDbCircle
 10
123.889488408
 20
222.6467377346
 30
0.0
 40
187.7550310173
100
AcDbArc
 50
157.6155717002
 51
202.3844282996
  0
MTEXT
  5
14B
100
AcDbEntity
  8
3207___ DOPPELHEBEL JE GRUPPENPFADE
390
0
  6
DASHDOT
100
AcDbMText
 10
-109.0695961163
 20
216.28640949
 30
0.0
 40
2.0
 41
0.0
 71
         5
 72
         1
  1
\W1.135145;>3207.1L\PM15x15x2\PT2 O2
  7
Arial
 73
         1
 44
0.66
  0
MTEXT
  5
14C
100
AcDbEntity
  8
3207___ DOPPELHEBEL JE GRUPPENPFADE
390
0
  6
DASHDOT
100
AcDbMText
 10
-109.392676417
 20
165.3332364332
 30
0.0
 40
2.0
 41
0.0
 71
         5
 72
         1
  1
\W1.135110;>3207.1R\PM15x15x2\PT2 O2
  7
Arial
 73
         1
 44
0.66
  0
MTEXT
  5
14D
100
AcDbEntity
  8
3207___ DOPPELHEBEL JE GRUPPENPFADE
390
0
  6
DASHDOT
100
AcDbMText
 10
-86.2699321126
 20
238.3716242288
 30
0.0
 40
2.0
 41
0.0
 71
         5
 72
         1
  1
\W1.135145;>3207.2L\PM15x15x1\PT2 O2
  7
Arial
 73
         1
 44
0.66
  0
MTEXT
  5
14E
100
AcDbEntity
  8
3207___ DOPPELHEBEL JE GRUPPENPFADE
390
0
  6
DASHDOT
100
AcDbMText
 10
-63.4193687633
 20
238.3716242288
 30
0.0
 40
2.0
 41
0.0
 71
         5
 72
         1
  1
\W1.135110;>3207.2R\PM15x15x1\PT2 O2
  7
Arial
 73
         1
 44
0.66
  0
MTEXT
  5
14F
100
AcDbEntity
  8
3207___ DOPPELHEBEL JE GRUPPENPFADE
390
0
  6
DASHDOT
100
AcDbMText
 10
-35.9593863396
 20
230.7840602052
 30
0.0
 40
2.0
 41
0.0
 71
         5
 72
         1
  1
\W1.135110;>3207.3P\PM60x2\PT2 O2
  7
Arial
 73
         1
 44
0.66
  0
MTEXT
  5
150
100
AcDbEntity
  8
3207___ DOPPELHEBEL JE GRUPPENPFADE
390
0
  6
DASHDOT
100
AcDbMText
 10
-21.6254570458
 20
214.4241730109
 30
0.0
 40
2.0
 41
0.0
 71
         5
 72
         1
  1
\W1.135110;>3207.4P\PM20+x5\PT5 O2
  7
Arial
 73
         1
 44
0.66
  0
MTEXT
  5
151
100
AcDbEntity
  8
3207___ DOPPELHEBEL JE GRUPPENPFADE
390
0
  6
DASHDOT
100
AcDbMText
 10
-95.2328789718
 20
115.7543245495
 30
0.0
 40
2.0
 41
0.0
 71
         5
 72
         1
  1
\W1.135110;>3207.5P\PM50x5\PT5 O2
  7
Arial
 73
         1
 44
0.66
  0
MTEXT
  5
152
100
AcDbEntity
  8
3207___ DOPPELHEBEL JE GRUPPENPFADE
390
0
  6
DASHDOT
100
AcDbMText
 10
-64.8145048318
 20
115.7543245495
 30
0.0
 40
2.0
 41
0.0
 71
         5
 72
         1
  1
\W1.135136;>3207.5T\PM50x5\PT5 O6
  7
Arial
 73
         1
 44
0.66
  0
ARC
  5
153
100
AcDbEntity
  8
3207___ DOPPELHEBEL JE GRUPPENPFADE
390
0
  6
DASHDOT
100
AcDbCircle
 10
27.4952084424
 20
83.5526070869
 30
0.0
 40
99.4428989754
100
AcDbArc
 50
145.3776177856
 51
214.6223822144
  0
MTEXT
  5
154
100
AcDbEntity
  8
3207___ DOPPELHEBEL JE GRUPPENPFADE
390
0
  6
DASHED
100
AcDbMText
 10
106.9556186263
 20
107.1070697245
 30
0.0
 40
3.0
 41
0.0
 71
         1
 72
         1
  1
\W1.135100;15x15x2\P15x15x1\P60x2\P50x5\P50x5
  7
Arial
 73
         1
 44
0.66
  0
MTEXT
  5
155
100
AcDbEntity
  8
3207___ DOPPELHEBEL JE GRUPPENPFADE
390
0
  6
DASHED
100
AcDbMText
 10
126.9556186263
 20
107.1070697245
 30
0.0
 40
3.0
 41
0.0
 71
         1
 72
         1
  1
\W0.810867;Hebelbockwinkel\PHandfalle, Hebelklinke, Hebelschildchen\PHebelbock rechts, Hebelbock links, Winkelhebel\PHebeleisen\PHebelrolle, Kuppelrolle\P
  7
Arial
 73
         1
 44
0.66
  0
MTEXT
  5
156
100
AcDbEntity
  8
3207___ DOPPELHEBEL JE GRUPPENPFADE
390
0
  6
DASHED
100
AcDbMText
 10
86.9556186263
 20
107.1070697245
 30
0.0
 40
3.0
 41
0.0
 71
         1
 72
         1
  1
\W1.135138;3207.1\P3207.2\P3207.3\P3207.4\P3207.5\P
  7
Arial
 73
         1
 44
0.66
  0
MTEXT
  5
157
100
AcDbEntity
  8
3207___ DOPPELHEBEL JE GRUPPENPFADE
390
0
  6
DASHDOT
100
AcDbMText
 10
-94.0640784487
 20
283.0515447112
 30
0.0
 40
3.0
 41
0.0
 71
         1
 72
         1
  1
\W1.135100;15x15x2\P15x15x1\P60x2\P50x5\P50x5
  7
Arial
 73
         1
 44
0.66
  0
MTEXT
  5
158
100
AcDbEntity
  8
3207___ DOPPELHEBEL JE GRUPPENPFADE
390
0
  6
DASHDOT
100
AcDbMText
 10
-114.0640784487
 20
283.0515447112
 30
0.0
 40
3.0
 41
0.0
 71
         1
 72
         1
  1
\W1.135138;3207.1\P3207.2\P3207.3\P3207.4\P3207.5\P
  7
Arial
 73
         1
 44
0.66
  0
MTEXT
  5
159
100
AcDbEntity
  8
3207___ DOPPELHEBEL JE GRUPPENPFADE
390
0
  6
DASHDOT
100
AcDbMText
 10
-74.0640784487
 20
283.0515447112
 30
0.0
 40
3.0
 41
0.0
 71
         1
 72
         1
  1
\W0.810867;Hebelbockwinkel\PHandfalle, Hebelklinke, Hebelschildchen\PHebelbock rechts, Hebelbock links, Winkelhebel\PHebeleisen\PHebelrolle, Kuppelrolle\P
  7
Arial
 73
         1
 44
0.66
  0
LINE
  5
15A
100
AcDbEntity
  8
STANDARD
390
0
100
AcDbLine
 10
10.0
 20
5.0
 30
0.0
 11
10.0
 21
292.0
 31
0.0
  0
LINE
  5
15B
100
AcDbEntity
  8
STANDARD
390
0
100
AcDbLine
 10
15.0
 20
287.0
 30
0.0
 11
205.0
 21
287.0
 31
0.0
  0
LINE
  5
15C
100
AcDbEntity
  8
STANDARD
390
0
100
AcDbLine
 10
10.0
 20
292.0
 30
0.0
 11
15.0
 21
292.0
 31
0.0
  0
LINE
  5
15D
100
AcDbEntity
  8
STANDARD
390
0
100
AcDbLine
 10
10.0
 20
5.0
 30
0.0
 11
15.0
 21
5.0
 31
0.0
  0
LINE
  5
15E
100
AcDbEntity
  8
STANDARD
390
0
100
AcDbLine
 10
10.0
 20
244.1666666667
 30
0.0
 11
15.0
 21
244.1666666667
 31
0.0
  0
LINE
  5
15F
100
AcDbEntity
  8
STANDARD
390
0
100
AcDbLine
 10
10.0
 20
196.3333333333
 30
0.0
 11
15.0
 21
196.3333333333
 31
0.0
  0
LINE
  5
160
100
AcDbEntity
  8
STANDARD
390
0
100
AcDbLine
 10
10.0
 20
148.5
 30
0.0
 11
15.0
 21
148.5
 31
0.0
  0
LINE
  5
161
100
AcDbEntity
  8
STANDARD
390
0
100
AcDbLine
 10
10.0
 20
100.6666666667
 30
0.0
 11
15.0
 21
100.6666666667
 31
0.0
  0
LINE
  5
162
100
AcDbEntity
  8
STANDARD
390
0
100
AcDbLine
 10
10.0
 20
52.8333333333
 30
0.0
 11
15.0
 21
52.8333333333
 31
0.0
  0
LINE
  5
163
100
AcDbEntity
  8
STANDARD
390
0
100
AcDbLine
 10
157.5
 20
292.0
 30
0.0
 11
157.5
 21
287.0
 31
0.0
  0
LINE
  5
164
100
AcDbEntity
  8
STANDARD
390
0
100
AcDbLine
 10
110.0
 20
292.0
 30
0.0
 11
110.0
 21
287.0
 31
0.0
  0
LINE
  5
165
100
AcDbEntity
  8
STANDARD
390
0
100
AcDbLine
 10
62.5
 20
292.0
 30
0.0
 11
62.5
 21
287.0
 31
0.0
  0
TEXT
  5
166
100
AcDbEntity
  8
STANDARD
390
0
100
AcDbText
 10
10.9491078691
 20
267.8641561278
 30
0.0
 40
2.23125
  1
A
 41
1.547986837
  7
Arial
 72
         1
 11
12.6760806841
 21
270.0954061278
 31
0.0
100
AcDbText
 73
         3
  0
TEXT
  5
167
100
AcDbEntity
  8
STANDARD
390
0
100
AcDbText
 10
10.9491074243
 20
220.0308227945
 30
0.0
 40
2.23125
  1
B
 41
1.5479872357
  7
Arial
 72
         1
 11
12.6760806841
 21
222.2620727945
 31
0.0
100
AcDbText
 73
         3
  0
TEXT
  5
168
100
AcDbEntity
  8
STANDARD
390
0
100
AcDbText
 10
10.9489779593
 20
172.1974894612
 30
0.0
 40
2.23125
  1
C
 41
1.5481032827
  7
Arial
 72
         1
 11
12.6760806841
 21
174.4287394612
 31
0.0
100
AcDbText
 73
         3
  0
TEXT
  5
169
100
AcDbEntity
  8
STANDARD
390
0
100
AcDbText
 10
10.9489771034
 20
124.3641561278
 30
0.0
 40
2.23125
  1
D
 41
1.54810405
  7
Arial
 72
         1
 11
12.6760806841
 21
126.5954061278
 31
0.0
100
AcDbText
 73
         3
  0
TEXT
  5
16A
100
AcDbEntity
  8
STANDARD
390
0
100
AcDbText
 10
10.9491076096
 20
76.5308227945
 30
0.0
 40
2.23125
  1
E
 41
1.5479870696
  7
Arial
 72
         1
 11
12.6760806841
 21
78.7620727945
 31
0.0
100
AcDbText
 73
         3
  0
TEXT
  5
16B
100
AcDbEntity
  8
STANDARD
390
0
100
AcDbText
 10
10.9493506612
 20
28.6974894612
 30
0.0
 40
2.23125
  1
F
 41
1.5477692083
  7
Arial
 72
         1
 11
12.6760806841
 21
30.9287394612
 31
0.0
100
AcDbText
 73
         3
  0
TEXT
  5
16C
100
AcDbEntity
  8
STANDARD
390
0
100
AcDbText
 10
36.7048241449
 20
288.48599354
 30
0.0
 40
2.23125
  1
1
 41
1.5479225906
  7
Arial
 72
         1
 11
38.0
 21
290.71724354
 31
0.0
100
AcDbText
 73
         3
  0
TEXT
  5
16D
100
AcDbEntity
  8
STANDARD
390
0
100
AcDbText
 10
83.7730999712
 20
288.48599354
 30
0.0
 40
2.23125
  1
2
 41
1.5479215945
  7
Arial
 72
         1
 11
85.5
 21
290.71724354
 31
0.0
100
AcDbText
 73
         3
  0
TEXT
  5
16E
100
AcDbEntity
  8
STANDARD
390
0
100
AcDbText
 10
131.2730986376
 20
288.48599354
 30
0.0
 40
2.23125
  1
3
 41
1.5479227899
  7
Arial
 72
         1
 11
133.0
 21
290.71724354
 31
0.0
100
AcDbText
 73
         3
  0
TEXT
  5
16F
100
AcDbEntity
  8
STANDARD
390
0
100
AcDbText
 10
178.7730988598
 20
288.48599354
 30
0.0
 40
2.23125
  1
4
 41
1.5479225906
  7
Arial
 72
         1
 11
180.5
 21
290.71724354
 31
0.0
100
AcDbText
 73
         3
  0
LINE
  5
170
100
AcDbEntity
  8
STANDARD
390
0
100
AcDbLine
 10
205.0
 20
292.0
 30
0.0
 11
205.0
 21
287.0
 31
0.0
  0
LINE
  5
171
100
AcDbEntity
  8
STANDARD
390
0
100
AcDbLine
 10
205.0
 20
5.0
 30
0.0
 11
15.0
 21
5.0
 31
0.0
  0
LINE
  5
172
100
AcDbEntity
  8
STANDARD
390
0
100
AcDbLine
 10
15.0
 20
5.0
 30
0.0
 11
15.0
 21
287.0
 31
0.0
  0
LINE
  5
173
100
AcDbEntity
  8
STANDARD
390
0
100
AcDbLine
 10
15.0
 20
292.0
 30
0.0
 11
205.0
 21
292.0
 31
0.0
  0
LINE
  5
174
100
AcDbEntity
  8
STANDARD
390
0
100
AcDbLine
 10
1.0
 20
1.0
 30
0.0
 11
1.0
 21
296.0
 31
0.0
  0
LINE
  5
175
100
AcDbEntity
  8
STANDARD
390
0
100
AcDbLine
 10
209.0
 20
1.0
 30
0.0
 11
1.0
 21
1.0
 31
0.0
  0
LINE
  5
176
100
AcDbEntity
  8
STANDARD
390
0
100
AcDbLine
 10
209.0
 20
296.0
 30
0.0
 11
209.0
 21
1.0
 31
0.0
  0
LINE
  5
177
100
AcDbEntity
  8
STANDARD
390
0
100
AcDbLine
 10
1.0
 20
296.0
 30
0.0
 11
209.0
 21
296.0
 31
0.0
  0
LINE
  5
178
100
AcDbEntity
  8
STANDARD
390
0
100
AcDbLine
 10
15.0
 20
287.0
 30
0.0
 11
15.0
 21
292.0
 31
0.0
  0
LINE
  5
179
100
AcDbEntity
  8
STANDARD
390
0
100
AcDbLine
 10
205.0
 20
287.0
 30
0.0
 11
205.0
 21
5.0
 31
0.0
  0
MTEXT
  5
17A
100
AcDbEntity
  8
STANDARD
390
0
100
AcDbMText
 10
203.6063292805
 20
81.4222772661
 30
0.0
 40
1.59375
 41
0.0
 71
         1
 72
         1
  1

  7
Arial
 11
0.0
 21
-1.0
 31
0.0
 73
         1
 44
1.0352941176
  0
MTEXT
  5
17B
100
AcDbEntity
  8
STANDARD
390
0
100
AcDbMText
 10
116.6968769253
 20
27.5871143065
 30
0.0
 40
1.59375
 41
0.0
 71
         1
 72
         1
  1

  7
Arial
 11
0.0
 21
-1.0
 31
0.0
 73
         1
 44
1.0352941176
  0
MTEXT
  5
17C
100
AcDbEntity
  8
STANDARD
390
0
100
AcDbMText
 10
203.6063292805
 20
125.7560948498
 30
0.0
 40
1.59375
 41
0.0
 71
         1
 72
         1
  1

  7
Arial
 11
0.0
 21
-1.0
 31
0.0
 73
         1
 44
1.0352941176
  0
LINE
  5
17D
100
AcDbEntity
  8
STANDARD
390
0
100
AcDbLine
 10
205.0
 20
182.1150997151
 30
0.0
 11
205.0
 21
5.1236467236
 31
0.0
  0
LINE
  5
17E
100
AcDbEntity
  8
STANDARD
370
         0
390
0
100
AcDbLine
 10
127.305982906
 20
34.4
 30
0.0
 11
127.305982906
 21
5.0
 31
0.0
  0
LINE
  5
17F
100
AcDbEntity
  8
STANDARD
370
         0
390
0
100
AcDbLine
 10
81.105982906
 20
34.4
 30
0.0
 11
205.0
 21
34.4
 31
0.0
  0
LINE
  5
180
100
AcDbEntity
  8
STANDARD
370
         0
390
0
100
AcDbLine
 10
81.105982906
 20
27.4
 30
0.0
 11
205.0
 21
27.4
 31
0.0
  0
LINE
  5
181
100
AcDbEntity
  8
STANDARD
370
         0
390
0
100
AcDbLine
 10
81.105982906
 20
12.0
 30
0.0
 11
205.0
 21
12.0
 31
0.0
  0
LINE
  5
182
100
AcDbEntity
  8
STANDARD
370
         0
390
0
100
AcDbLine
 10
81.105982906
 20
34.4
 30
0.0
 11
81.105982906
 21
5.0
 31
0.0
  0
LINE
  5
183
100
AcDbEntity
  8
STANDARD
370
         0
390
0
100
AcDbLine
 10
165.105982906
 20
34.4
 30
0.0
 11
165.105982906
 21
27.4
 31
0.0
  0
TEXT
  5
184
100
AcDbEntity
  8
BESCHRIFTUNG
390
0
100
AcDbText
 10
82.2010860399
 20
29.1386
 30
0.0
 40
3.3
  1
Stellwerk HMM
 41
1.3758039542
 51
15.0
  7
Arial
 11
82.2010860399
 21
32.4386
 31
0.0
100
AcDbText
 73
         3
  0
TEXT
  5
185
100
AcDbEntity
  8
BESCHRIFTUNG
390
0
100
AcDbText
 10
128.6210415954
 20
21.6601111111
 30
0.0
 40
3.3
  1
Doppelhebel JE Gruppenpfade
 41
1.1301825078
 51
15.0
  7
Arial
 11
128.6210415954
 21
24.9601111111
 31
0.0
100
AcDbText
 73
         3
  0
TEXT
  5
186
100
AcDbEntity
  8
BESCHRIFTUNG
390
0
100
AcDbText
 10
82.2010860399
 20
6.9230888889
 30
0.0
 40
3.3
  1
Dateiname
 41
1.1437088374
 51
15.0
  7
Arial
 11
82.2010860399
 21
10.2230888889
 31
0.0
100
AcDbText
 73
         3
  0
TEXT
  5
187
100
AcDbEntity
  8
BESCHRIFTUNG
390
0
100
AcDbText
 10
82.4210415954
 20
21.6601111111
 30
0.0
 40
3.3
  1
Bl. 3207 Pv
 41
1.1437154789
 51
15.0
  7
Arial
 11
82.4210415954
 21
24.9601111111
 31
0.0
100
AcDbText
 73
         3
  0
TEXT
  5
188
100
AcDbEntity
  8
BESCHRIFTUNG
390
0
100
AcDbText
 10
166.2010860399
 20
29.1386
 30
0.0
 40
3.3
  1
Maßstab 1:1
 41
1.1437192123
 51
15.0
  7
Arial
 11
166.2010860399
 21
32.4386
 31
0.0
100
AcDbText
 73
         3
  0
ENDSEC
  0
SECTION
  2
OBJECTS
  0
DICTIONARY
  5
19
100
AcDbDictionary
280
         0
281
         1
  3
ACAD_GROUP
350
1A
  3
ACAD_MLINESTYLE
350
1B
  3
ACAD_LAYOUT
350
1E
  3
ACAD_PLOTSETTINGS
350
22
  3
ACAD_PLOTSTYLENAME
350
1F
  3
ACAD_WIPEOUT_VARS
350
23
  0
DICTIONARY
  5
1A
102
{ACAD_REACTORS
330
19
102
}
100
AcDbDictionary
280
         0
281
         1
  0
DICTIONARY
  5
1B
102
{ACAD_REACTORS
330
19
102
}
100
AcDbDictionary
280
         0
281
         1
  3
Standard
350
1C
  0
MLINESTYLE
  5
1C
102
{ACAD_REACTORS
330
1B
102
}
100
AcDbMlineStyle
  2
Standard
 70
         0
  3

 62
         0
 51
90.0
 52
90.0
 71
         2
 49
0.5
 62
       256
  6
ByLayer
 49
-0.5
 62
       256
  6
ByLayer
  0
ACDBDICTIONARYWDFLT
  5
1F
102
{ACAD_REACTORS
330
19
102
}
100
AcDbDictionary
281
         1
  3
Normal
350
1D
100
AcDbDictionaryWithDefault
340
1D
  0
ACDBPLACEHOLDER
  5
1D
102
{ACAD_REACTORS
330
1F
102
}
  0
LAYOUT
  5
20
102
{ACAD_REACTORS
330
1E
102
}
100
AcDbPlotSettings
  1

  2

  4

  6

 40
0.0
 41
0.0
 42
0.0
 43
0.0
 44
0.0
 45
0.0
 46
0.0
 47
0.0
 48
0.0
 49
0.0
140
0.0
141
0.0
142
1.0
143
1.0
 70
      1024
 72
         0
 73
         0
 74
         0
  7

 75
         0
147
1.0
148
0.0
149
0.0
100
AcDbLayout
  1
Model
 70
         0
 71
         0
 10
0.0
 20
0.0
 11
0.0
 21
0.0
 12
0.0
 22
0.0
 32
0.0
 14
0.0
 24
0.0
 34
0.0
 15
0.0
 25
0.0
 35
0.0
146
0.0
 13
0.0
 23
0.0
 33
0.0
 16
0.0
 26
0.0
 36
0.0
 17
0.0
 27
0.0
 37
0.0
 76
         0
330
A
331
0
345
0
346
0
  0
LAYOUT
  5
21
102
{ACAD_REACTORS
330
1E
102
}
100
AcDbPlotSettings
  1

  2

  4

  6

 40
0.0
 41
0.0
 42
0.0
 43
0.0
 44
0.0
 45
0.0
 46
0.0
 47
0.0
 48
0.0
 49
0.0
140
0.0
141
0.0
142
1.0
143
1.0
 70
         0
 72
         0
 73
         0
 74
         0
  7

 75
         0
147
1.0
148
0.0
149
0.0
100
AcDbLayout
  1
Layout1
 70
         0
 71
         0
 10
0.0
 20
0.0
 11
0.0
 21
0.0
 12
0.0
 22
0.0
 32
0.0
 14
0.0
 24
0.0
 34
0.0
 15
0.0
 25
0.0
 35
0.0
146
0.0
 13
0.0
 23
0.0
 33
0.0
 16
0.0
 26
0.0
 36
0.0
 17
0.0
 27
0.0
 37
0.0
 76
         0
330
B
331
0
345
0
346
0
  0
DICTIONARY
  5
1E
102
{ACAD_REACTORS
330
19
102
}
100
AcDbDictionary
280
         0
281
         1
  3
Layout1
350
21
  3
Model
350
20
  0
DICTIONARY
  5
22
102
{ACAD_REACTORS
330
19
102
}
100
AcDbDictionary
280
         0
281
         1
  0
WIPEOUTVARIABLES
  5
23
100
AcDbWipeoutVariables
 70
         1
  0
ENDSEC
  0
EOF
