  0
SECTION
  2
HEADER
  9
$ACADVER
  1
AC1015
  9
$ACADMAINTVER
 70
         6
  9
$DWGCODEPAGE
  3
ANSI_1252
  9
$INSBASE
 10
0.0
 20
0.0
 30
0.0
  9
$EXTMIN
 10
0.0
 20
0.0
 30
0.0
  9
$EXTMAX
 10
297.0
 20
210.0
 30
0.0
  9
$LIMMIN
 10
0.0
 20
0.0
  9
$LIMMAX
 10
297.0
 20
210.0
  9
$ORTHOMODE
 70
         0
  9
$REGENMODE
 70
         1
  9
$FILLMODE
 70
         1
  9
$QTEXTMODE
 70
         0
  9
$MIRRTEXT
 70
         1
  9
$LTSCALE
 40
7.425
  9
$ATTMODE
 70
         1
  9
$TEXTSIZE
 40
0.2
  9
$TRACEWID
 40
0.05
  9
$TEXTSTYLE
  7
Standard
  9
$CLAYER
  8
0
  9
$CELTYPE
  6
CONTINUOUS
  9
$CECOLOR
 62
       256
  9
$CELTSCALE
 40
1.0
  9
$DISPSILH
 70
         0
  9
$DIMSCALE
 40
1.0
  9
$DIMASZ
 40
0.18
  9
$DIMEXO
 40
0.0625
  9
$DIMDLI
 40
0.38
  9
$DIMRND
 40
0.0
  9
$DIMDLE
 40
0.0
  9
$DIMEXE
 40
0.18
  9
$DIMTP
 40
0.0
  9
$DIMTM
 40
0.0
  9
$DIMTXT
 40
3.0
  9
$DIMCEN
 40
0.09
  9
$DIMTSZ
 40
0.0
  9
$DIMTOL
 70
         0
  9
$DIMLIM
 70
         0
  9
$DIMTIH
 70
         1
  9
$DIMTOH
 70
         1
  9
$DIMSE1
 70
         0
  9
$DIMSE2
 70
         0
  9
$DIMTAD
 70
         1
  9
$DIMZIN
 70
         0
  9
$DIMBLK
  1

  9
$DIMASO
 70
         1
  9
$DIMSHO
 70
         1
  9
$DIMPOST
  1
<>
  9
$DIMAPOST
  1

  9
$DIMALT
 70
         0
  9
$DIMALTD
 70
         2
  9
$DIMALTF
 40
25.4
  9
$DIMLFAC
 40
1.0
  9
$DIMTOFL
 70
         0
  9
$DIMTVP
 40
0.0
  9
$DIMTIX
 70
         0
  9
$DIMSOXD
 70
         0
  9
$DIMSAH
 70
         0
  9
$DIMBLK1
  1

  9
$DIMBLK2
  1

  9
$DIMSTYLE
  2
Standard
  9
$DIMCLRD
 70
         0
  9
$DIMCLRE
 70
         0
  9
$DIMCLRT
 70
         0
  9
$DIMTFAC
 40
1.0
  9
$DIMGAP
 40
0.09
  9
$DIMJUST
 70
         0
  9
$DIMSD1
 70
         0
  9
$DIMSD2
 70
         0
  9
$DIMTOLJ
 70
         1
  9
$DIMTZIN
 70
         0
  9
$DIMALTZ
 70
         0
  9
$DIMALTTZ
 70
         0
  9
$DIMUPT
 70
         0
  9
$DIMDEC
 70
         4
  9
$DIMTDEC
 70
         4
  9
$DIMALTU
 70
         2
  9
$DIMALTTD
 70
         2
  9
$DIMTXSTY
  7
Standard
  9
$DIMAUNIT
 70
         0
  9
$DIMADEC
 70
         0
  9
$DIMALTRND
 40
0.0
  9
$DIMAZIN
 70
         0
  9
$DIMDSEP
 70
         0
  9
$DIMATFIT
 70
         3
  9
$DIMFRAC
 70
         0
  9
$DIMLDRBLK
  1

  9
$DIMLUNIT
 70
         2
  9
$DIMLWD
 70
         0
  9
$DIMLWE
 70
         0
  9
$DIMTMOVE
 70
         0
  9
$LUNITS
 70
         2
  9
$LUPREC
 70
         4
  9
$SKETCHINC
 40
0.1
  9
$FILLETRAD
 40
0.0
  9
$AUNITS
 70
         0
  9
$AUPREC
 70
         0
  9
$MENU
  1
acad
  9
$ELEVATION
 40
0.0
  9
$PELEVATION
 40
0.0
  9
$THICKNESS
 40
0.0
  9
$LIMCHECK
 70
         0
  9
$CHAMFERA
 40
0.0
  9
$CHAMFERB
 40
0.0
  9
$CHAMFERC
 40
0.0
  9
$CHAMFERD
 40
0.0
  9
$SKPOLY
 70
         0
  9
$TDCREATE
 40
0.000000000
  9
$TDUCREATE
 40
0.000000000
  9
$TDUPDATE
 40
0.000000000
  9
$TDUUPDATE
 40
0.000000000
  9
$TDINDWG
 40
0.0000000000
  9
$TDUSRTIMER
 40
0.0000000000
  9
$USRTIMER
 70
         1
  9
$ANGBASE
 50
0.0
  9
$ANGDIR
 70
         0
  9
$PDMODE
 70
         0
  9
$PDSIZE
 40
0.0
  9
$PLINEWID
 40
0.0
  9
$SPLFRAME
 70
         0
  9
$SPLINETYPE
 70
         6
  9
$SPLINESEGS
 70
         8
  9
$HANDSEED
  5
1A6
  9
$SURFTAB1
 70
         6
  9
$SURFTAB2
 70
         6
  9
$SURFTYPE
 70
         6
  9
$SURFU
 70
         6
  9
$SURFV
 70
         6
  9
$UCSBASE
  2

  9
$UCSNAME
  2

  9
$UCSORG
 10
0.0
 20
0.0
 30
0.0
  9
$UCSXDIR
 10
1.0
 20
0.0
 30
0.0
  9
$UCSYDIR
 10
0.0
 20
1.0
 30
0.0
  9
$UCSORTHOREF
  2

  9
$UCSORTHOVIEW
 70
         0
  9
$UCSORGTOP
 10
0.0
 20
0.0
 30
0.0
  9
$UCSORGBOTTOM
 10
0.0
 20
0.0
 30
0.0
  9
$UCSORGLEFT
 10
0.0
 20
0.0
 30
0.0
  9
$UCSORGRIGHT
 10
0.0
 20
0.0
 30
0.0
  9
$UCSORGFRONT
 10
0.0
 20
0.0
 30
0.0
  9
$UCSORGBACK
 10
0.0
 20
0.0
 30
0.0
  9
$PUCSBASE
  2

  9
$PUCSNAME
  2

  9
$PUCSORG
 10
0.0
 20
0.0
 30
0.0
  9
$PUCSXDIR
 10
1.0
 20
0.0
 30
0.0
  9
$PUCSYDIR
 10
0.0
 20
1.0
 30
0.0
  9
$PUCSORTHOREF
  2

  9
$PUCSORTHOVIEW
 70
         0
  9
$PUCSORGTOP
 10
0.0
 20
0.0
 30
0.0
  9
$PUCSORGBOTTOM
 10
0.0
 20
0.0
 30
0.0
  9
$PUCSORGLEFT
 10
0.0
 20
0.0
 30
0.0
  9
$PUCSORGRIGHT
 10
0.0
 20
0.0
 30
0.0
  9
$PUCSORGFRONT
 10
0.0
 20
0.0
 30
0.0
  9
$PUCSORGBACK
 10
0.0
 20
0.0
 30
0.0
  9
$USERI1
 70
         0
  9
$USERI2
 70
         0
  9
$USERI3
 70
         0
  9
$USERI4
 70
         0
  9
$USERI5
 70
         0
  9
$USERR1
 40
0.0
  9
$USERR2
 40
0.0
  9
$USERR3
 40
0.0
  9
$USERR4
 40
0.0
  9
$USERR5
 40
0.0
  9
$WORLDVIEW
 70
         1
  9
$SHADEDGE
 70
         3
  9
$SHADEDIF
 70
        70
  9
$TILEMODE
 70
         1
  9
$MAXACTVP
 70
        16
  9
$PINSBASE
 10
0.0
 20
0.0
 30
0.0
  9
$PLIMCHECK
 70
         0
  9
$PEXTMIN
 10
1.0000000000E+20
 20
1.0000000000E+20
 30
1.0000000000E+20
  9
$PEXTMAX
 10
-1.0000000000E+20
 20
-1.0000000000E+20
 30
-1.0000000000E+20
  9
$PLIMMIN
 10
0.0
 20
0.0
  9
$PLIMMAX
 10
12.0
 20
9.0
  9
$UNITMODE
 70
         0
  9
$VISRETAIN
 70
         0
  9
$PLINEGEN
 70
         1
  9
$PSLTSCALE
 70
         0
  9
$TREEDEPTH
 70
      3020
  9
$CMLSTYLE
  2
Standard
  9
$CMLJUST
 70
         0
  9
$CMLSCALE
 40
1.0
  9
$PROXYGRAPHICS
 70
         0
  9
$MEASUREMENT
 70
         1
  9
$CELWEIGHT
370
         0
  9
$ENDCAPS
280
         0
  9
$JOINSTYLE
280
         0
  9
$LWDISPLAY
290
         0
  9
$INSUNITS
 70
         0
  9
$HYPERLINKBASE
  1

  9
$STYLESHEET
  1

  9
$XEDIT
290
         1
  9
$CEPSNTYPE
380
         0
  9
$PSTYLEMODE
290
         1
  9
$FINGERPRINTGUID
  2

  9
$VERSIONGUID
  2

  9
$EXTNAMES
290
         1
  9
$PSVPSCALE
 40
0.0
  0
ENDSEC
  0
SECTION
  2
CLASSES
  0
CLASS
  1
LWPOLYLINE
  2
AcDbPolyline
  3
AutoCAD 2000
 90
        0
280
         0
281
         1
  0
CLASS
  1
IMAGE
  2
AcDbRasterImage
  3
ISM
 90
      127
280
         0
281
         1
  0
CLASS
  1
OLE2FRAME
  2
AcDbOle2Frame
  3
AutoCAD 2000
 90
        0
280
         0
281
         1
  0
CLASS
  1
HATCH
  2
AcDbHatch
  3
AutoCAD 2000
 90
        0
280
         0
281
         1
  0
CLASS
  1
DICTIONARYVAR
  2
AcDbDictionaryVar
  3
AutoCAD 2000
 90
        0
280
         0
281
         0
  0
CLASS
  1
RASTERVARIABLES
  2
AcDbRasterVariables
  3
ISM
 90
        0
280
         0
281
         0
  0
CLASS
  1
IMAGEDEF
  2
AcDbRasterImageDef
  3
ISM
 90
        0
280
         0
281
         0
  0
CLASS
  1
IMAGEDEF_REACTOR
  2
AcDbRasterImageDefReactor
  3
ISM
 90
        1
280
         0
281
         0
  0
CLASS
  1
IDBUFFER
  2
AcDbIdBuffer
  3
AutoCAD 2000
 90
        0
280
         0
281
         0
  0
CLASS
  1
SPATIAL_FILTER
  2
AcDbSpatialFilter
  3
AutoCAD 2000
 90
        0
280
         0
281
         0
  0
CLASS
  1
XRECORD
  2
AcDbXrecord
  3
AutoCAD 2000
 90
        0
280
         0
281
         0
  0
CLASS
  1
SORTENTSTABLE
  2
AcDbSortentsTable
  3
AutoCAD 2000
 90
        0
280
         0
281
         0
  0
CLASS
  1
LAYER_INDEX
  2
AcDbLayerIndex
  3
AutoCAD 2000
 90
        0
280
         0
281
         0
  0
CLASS
  1
SPATIAL_INDEX
  2
AcDbSpatialIndex
  3
AutoCAD 2000
 90
        0
280
         0
281
         0
  0
CLASS
  1
OBJECT_PTR
  2
CAseDLPNTableRecord
  3
"ASE-LPNTableRecord"
 90
        1
280
         0
281
         0
  0
CLASS
  1
LAYOUT
  2
AcDbLayout
  3
AutoCAD 2000
 90
        0
280
         0
281
         0
  0
CLASS
  1
PLOTSETTINGS
  2
AcDbPlotSettings
  3
AutoCAD 2000
 90
        0
280
         0
281
         0
  0
CLASS
  1
ACDBDICTIONARYWDFLT
  2
AcDbDictionaryWithDefault
  3
AutoCAD 2000
 90
        0
280
         0
281
         0
  0
CLASS
  1
ACDBPLACEHOLDER
  2
AcDbPlaceHolder
  3
AutoCAD 2000
 90
        0
280
         0
281
         0
  0
CLASS
  1
VBA_PROJECT
  2
AcDbVbaProject
  3
acadvba
 90
        0
280
         0
281
         0
  0
CLASS
  1
WIPEOUT
  2
AcDbWipeout
  3
WipeOut|AutoCAD Express Tool|expresstools@autodesk.com
 90
      127
280
         0
281
         1
  0
CLASS
  1
WIPEOUTVARIABLES
  2
AcDbWipeoutVariables
  3
WipeOut|AutoCAD Express Tool|expresstools@autodesk.com
 90
        0
280
         0
281
         0
  0
CLASS
  1
RTEXT
  2
RText
  3
RText|AutoCAD Express Tool|expresstools@autodesk.com
 90
        0
280
         0
281
         1
  0
CLASS
  1
ARCALIGNEDTEXT
  2
AcDbArcAlignedText
  3
ATEXT|AutoCAD Express Tool|expresstools@autodesk.com
 90
        0
280
         0
281
         1
  0
ENDSEC
  0
SECTION
  2
TABLES
  0
TABLE
  2
VPORT
  5
7
100
AcDbSymbolTable
 70
         1
  0
VPORT
  5
15
100
AcDbSymbolTableRecord
100
AcDbViewportTableRecord
  2
*ACTIVE
 70
         0
 10
0.0
 20
0.0
 11
1.0
 21
1.0
 12
148.5
 22
105.0
 13
0.0
 23
0.0
 14
1.0
 24
1.0
 15
0.0
 25
0.0
 16
0.0
 26
0.0
 36
1.0
 17
0.0
 27
0.0
 37
0.0
 40
231.2943892345
 41
1.0
 42
50.0
 43
0.0
 44
0.0
 50
0.0
 51
0.0
 71
         0
 72
       100
 73
         1
 74
         1
 75
         0
 76
         0
 77
         0
 78
         0
281
         0
 65
         0
110
0.0
120
0.0
130
0.0
111
1.0
121
0.0
131
0.0
112
0.0
122
1.0
132
0.0
345
0
346
0
 79
         0
146
0.0
  0
ENDTAB
  0
TABLE
  2
LTYPE
  5
4
100
AcDbSymbolTable
 70
        12
  0
LTYPE
  5
11
100
AcDbSymbolTableRecord
100
AcDbLinetypeTableRecord
  2
ByBlock
 70
        64
  3

 72
        65
 73
         0
 40
0.0
  0
LTYPE
  5
12
100
AcDbSymbolTableRecord
100
AcDbLinetypeTableRecord
  2
ByLayer
 70
        64
  3

 72
        65
 73
         0
 40
0.0
  0
LTYPE
  5
13
100
AcDbSymbolTableRecord
100
AcDbLinetypeTableRecord
  2
CONTINUOUS
 70
        64
  3
Solid Line
 72
        65
 73
         0
 40
0.0
  0
LTYPE
  5
24
100
AcDbSymbolTableRecord
100
AcDbLinetypeTableRecord
  2
DOT
 70
        64
  3
. . . . . . . . . . . . . . . . . . . . . . 
 72
        65
 73
         2
 40
0.25
 49
0.0
 74
         0
 49
-0.25
 74
         0
  0
LTYPE
  5
25
100
AcDbSymbolTableRecord
100
AcDbLinetypeTableRecord
  2
HIDDEN
 70
         0
  3
_ _ _ _ _ _ _ _ _ _ _ _ _ _ _ _ _ _ _ _ _ _ _
 72
        65
 73
         2
 40
0.375
 49
0.25
 74
         0
 49
-0.125
 74
         0
  0
LTYPE
  5
26
100
AcDbSymbolTableRecord
100
AcDbLinetypeTableRecord
  2
DASHDOT
 70
         0
  3
__ . __ . __ . __ . __ . __ . __ . __ . __ . __
 72
        65
 73
         4
 40
1.0
 49
0.5
 74
         0
 49
-0.25
 74
         0
 49
0.0
 74
         0
 49
-0.25
 74
         0
  0
LTYPE
  5
27
100
AcDbSymbolTableRecord
100
AcDbLinetypeTableRecord
  2
DIVIDE
 70
         0
  3
__ . . __ . . __ . . __ . . __ . . __ . . __
 72
        65
 73
         6
 40
1.25
 49
0.5
 74
         0
 49
-0.25
 74
         0
 49
0.0
 74
         0
 49
-0.25
 74
         0
 49
0.0
 74
         0
 49
-0.25
 74
         0
  0
LTYPE
  5
28
100
AcDbSymbolTableRecord
100
AcDbLinetypeTableRecord
  2
DASHED
 70
         0
  3
__ __ __ __ __ __ __ __ __ __ __ __ __ __ __
 72
        65
 73
         2
 40
0.75
 49
0.5
 74
         0
 49
-0.25
 74
         0
  0
LTYPE
  5
29
100
AcDbSymbolTableRecord
100
AcDbLinetypeTableRecord
  2
BORDER
 70
         0
  3
__ __ . __ __ . __ __ . __ __ . __ __ .
 72
        65
 73
         6
 40
1.75
 49
0.5
 74
         0
 49
-0.25
 74
         0
 49
0.5
 74
         0
 49
-0.25
 74
         0
 49
0.0
 74
         0
 49
-0.25
 74
         0
  0
LTYPE
  5
2A
100
AcDbSymbolTableRecord
100
AcDbLinetypeTableRecord
  2
CENTER
 70
         0
  3
____ _ ____ _ ____ _ ____ _ ____ _ ____
 72
        65
 73
         4
 40
2.0
 49
1.25
 74
         0
 49
-0.25
 74
         0
 49
0.25
 74
         0
 49
-0.25
 74
         0
  0
LTYPE
  5
2B
100
AcDbSymbolTableRecord
100
AcDbLinetypeTableRecord
  2
DOT2
 70
         0
  3
........................................
 72
        65
 73
         2
 40
0.125
 49
0.0
 74
         0
 49
-0.125
 74
         0
  0
LTYPE
  5
2C
100
AcDbSymbolTableRecord
100
AcDbLinetypeTableRecord
  2
PHANTOM
 70
         0
  3
______  __  __  ______  __  __  ______
 72
        65
 73
         6
 40
2.5
 49
1.25
 74
         0
 49
-0.25
 74
         0
 49
0.25
 74
         0
 49
-0.25
 74
         0
 49
0.25
 74
         0
 49
-0.25
 74
         0
  0
ENDTAB
  0
TABLE
  2
LAYER
  5
2
100
AcDbSymbolTable
 70
       103
  0
LAYER
  5
14
100
AcDbSymbolTableRecord
100
AcDbLayerTableRecord
  2
0
 70
         0
 62
         7
  6
CONTINUOUS
290
         1
370
        -3
390
1D
  0
LAYER
  5
33
100
AcDbSymbolTableRecord
100
AcDbLayerTableRecord
  2
BESCHRIFTUNG
 70
        64
 62
         7
  6
CONTINUOUS
290
         1
370
        25
390
1D
  0
LAYER
  5
34
100
AcDbSymbolTableRecord
100
AcDbLayerTableRecord
  2
SCHRAFFUR
 70
        64
 62
         7
  6
CONTINUOUS
290
         1
370
        25
390
1D
  0
LAYER
  5
35
100
AcDbSymbolTableRecord
100
AcDbLayerTableRecord
  2
MASSTEXTE
 70
        64
 62
       212
  6
CONTINUOUS
290
         1
370
        25
390
1D
  0
LAYER
  5
36
100
AcDbSymbolTableRecord
100
AcDbLayerTableRecord
  2
MASSLINIEN
 70
        64
 62
       172
  6
CONTINUOUS
290
         1
370
        25
390
1D
  0
LAYER
  5
37
100
AcDbSymbolTableRecord
100
AcDbLayerTableRecord
  2
MASSGRENZEN
 70
        64
 62
       172
  6
CONTINUOUS
290
         1
370
        25
390
1D
  0
LAYER
  5
38
100
AcDbSymbolTableRecord
100
AcDbLayerTableRecord
  2
TOLERANZEN
 70
        64
 62
       212
  6
CONTINUOUS
290
         1
370
         0
390
1D
  0
LAYER
  5
39
100
AcDbSymbolTableRecord
100
AcDbLayerTableRecord
  2
BEMASSUNG
 70
        64
 62
         7
  6
CONTINUOUS
290
         1
370
        25
390
1D
  0
LAYER
  5
3A
100
AcDbSymbolTableRecord
100
AcDbLayerTableRecord
  2
HILFSLINIEN
 70
        64
 62
         3
  6
CONTINUOUS
290
         1
370
         0
390
1D
  0
LAYER
  5
3B
100
AcDbSymbolTableRecord
100
AcDbLayerTableRecord
  2
MITTELLINIEN
 70
        64
 62
         5
  6
DASHDOT
290
         1
370
        13
390
1D
  0
LAYER
  5
3C
100
AcDbSymbolTableRecord
100
AcDbLayerTableRecord
  2
BESCHRIFTUNG0
 70
        64
 62
         7
  6
CONTINUOUS
290
         1
370
        25
390
1D
  0
LAYER
  5
3D
100
AcDbSymbolTableRecord
100
AcDbLayerTableRecord
  2
GEWINDELINIEN
 70
        64
 62
       212
  6
CONTINUOUS
290
         1
370
        25
390
1D
  0
LAYER
  5
3E
100
AcDbSymbolTableRecord
100
AcDbLayerTableRecord
  2
UNSICHTBARE
 70
        64
 62
        92
  6
DASHED
290
         1
370
        25
390
1D
  0
LAYER
  5
3F
100
AcDbSymbolTableRecord
100
AcDbLayerTableRecord
  2
VERDECKTE
 70
        64
 62
        92
  6
DASHED
290
         1
370
        25
390
1D
  0
LAYER
  5
40
100
AcDbSymbolTableRecord
100
AcDbLayerTableRecord
  2
LICHTKANTEN
 70
        64
 62
         8
  6
CONTINUOUS
290
         1
370
        25
390
1D
  0
LAYER
  5
41
100
AcDbSymbolTableRecord
100
AcDbLayerTableRecord
  2
SCHNITTVERLAUF
 70
        64
 62
        34
  6
DASHDOT
290
         1
370
        70
390
1D
  0
LAYER
  5
42
100
AcDbSymbolTableRecord
100
AcDbLayerTableRecord
  2
KENNZEICHNUNG
 70
        64
 62
         7
  6
CONTINUOUS
290
         1
370
         0
390
1D
  0
LAYER
  5
43
100
AcDbSymbolTableRecord
100
AcDbLayerTableRecord
  2
PFEILE
 70
        64
 62
         7
  6
CONTINUOUS
290
         1
370
        70
390
1D
  0
LAYER
  5
44
100
AcDbSymbolTableRecord
100
AcDbLayerTableRecord
  2
SCHNITTDARSTELLUNG
 70
        64
 62
         7
  6
CONTINUOUS
290
         1
370
         0
390
1D
  0
LAYER
  5
45
100
AcDbSymbolTableRecord
100
AcDbLayerTableRecord
  2
3211_24L~A
 70
        64
 62
         5
  6
CONTINUOUS
290
         1
370
        13
390
1D
  0
LAYER
  5
46
100
AcDbSymbolTableRecord
100
AcDbLayerTableRecord
  2
3211_24L
 70
        64
 62
        11
  6
CONTINUOUS
290
         1
370
        13
390
1D
  0
LAYER
  5
47
100
AcDbSymbolTableRecord
100
AcDbLayerTableRecord
  2
3211_3R
 70
        64
 62
        15
  6
CONTINUOUS
290
         1
370
        13
390
1D
  0
LAYER
  5
48
100
AcDbSymbolTableRecord
100
AcDbLayerTableRecord
  2
3211_24R
 70
        64
 62
        15
  6
CONTINUOUS
290
         1
370
        13
390
1D
  0
LAYER
  5
49
100
AcDbSymbolTableRecord
100
AcDbLayerTableRecord
  2
3211_14L~A
 70
        64
 62
         5
  6
CONTINUOUS
290
         1
370
        13
390
1D
  0
LAYER
  5
4A
100
AcDbSymbolTableRecord
100
AcDbLayerTableRecord
  2
3211_14L
 70
        64
 62
        11
  6
CONTINUOUS
290
         1
370
        13
390
1D
  0
LAYER
  5
4B
100
AcDbSymbolTableRecord
100
AcDbLayerTableRecord
  2
3211_14R
 70
        64
 62
        15
  6
CONTINUOUS
290
         1
370
        13
390
1D
  0
LAYER
  5
4C
100
AcDbSymbolTableRecord
100
AcDbLayerTableRecord
  2
3211_3L
 70
        64
 62
        11
  6
CONTINUOUS
290
         1
370
        13
390
1D
  0
LAYER
  5
4D
100
AcDbSymbolTableRecord
100
AcDbLayerTableRecord
  2
3211_4R
 70
        64
 62
        15
  6
CONTINUOUS
290
         1
370
        13
390
1D
  0
LAYER
  5
4E
100
AcDbSymbolTableRecord
100
AcDbLayerTableRecord
  2
3211_4L
 70
        64
 62
        11
  6
CONTINUOUS
290
         1
370
        13
390
1D
  0
LAYER
  5
4F
100
AcDbSymbolTableRecord
100
AcDbLayerTableRecord
  2
3211_5R
 70
        64
 62
        15
  6
CONTINUOUS
290
         1
370
        13
390
1D
  0
LAYER
  5
50
100
AcDbSymbolTableRecord
100
AcDbLayerTableRecord
  2
3211_5L
 70
        64
 62
        11
  6
CONTINUOUS
290
         1
370
        13
390
1D
  0
LAYER
  5
51
100
AcDbSymbolTableRecord
100
AcDbLayerTableRecord
  2
3211_6R
 70
        64
 62
        15
  6
CONTINUOUS
290
         1
370
        13
390
1D
  0
LAYER
  5
52
100
AcDbSymbolTableRecord
100
AcDbLayerTableRecord
  2
3211_6L
 70
        64
 62
        11
  6
CONTINUOUS
290
         1
370
        13
390
1D
  0
LAYER
  5
53
100
AcDbSymbolTableRecord
100
AcDbLayerTableRecord
  2
3211_7R
 70
        64
 62
        15
  6
CONTINUOUS
290
         1
370
        13
390
1D
  0
LAYER
  5
54
100
AcDbSymbolTableRecord
100
AcDbLayerTableRecord
  2
3211_7L
 70
        64
 62
        11
  6
CONTINUOUS
290
         1
370
        13
390
1D
  0
LAYER
  5
55
100
AcDbSymbolTableRecord
100
AcDbLayerTableRecord
  2
3211_94R
 70
        64
 62
        15
  6
CONTINUOUS
290
         1
370
        13
390
1D
  0
LAYER
  5
56
100
AcDbSymbolTableRecord
100
AcDbLayerTableRecord
  2
3211_94L~A
 70
        64
 62
         5
  6
CONTINUOUS
290
         1
370
        13
390
1D
  0
LAYER
  5
57
100
AcDbSymbolTableRecord
100
AcDbLayerTableRecord
  2
3211_94L
 70
        64
 62
        11
  6
CONTINUOUS
290
         1
370
        13
390
1D
  0
LAYER
  5
58
100
AcDbSymbolTableRecord
100
AcDbLayerTableRecord
  2
3211_84R
 70
        64
 62
        15
  6
CONTINUOUS
290
         1
370
        13
390
1D
  0
LAYER
  5
59
100
AcDbSymbolTableRecord
100
AcDbLayerTableRecord
  2
3211_84L~A
 70
        64
 62
         5
  6
CONTINUOUS
290
         1
370
        13
390
1D
  0
LAYER
  5
5A
100
AcDbSymbolTableRecord
100
AcDbLayerTableRecord
  2
3211_84L
 70
        64
 62
        11
  6
CONTINUOUS
290
         1
370
        13
390
1D
  0
LAYER
  5
5B
100
AcDbSymbolTableRecord
100
AcDbLayerTableRecord
  2
3210_52L
 70
        64
 62
        11
  6
CONTINUOUS
290
         1
370
        13
390
1D
  0
LAYER
  5
5C
100
AcDbSymbolTableRecord
100
AcDbLayerTableRecord
  2
3210_51L
 70
        64
 62
        30
  6
CONTINUOUS
290
         1
370
        13
390
1D
  0
LAYER
  5
5D
100
AcDbSymbolTableRecord
100
AcDbLayerTableRecord
  2
3210_24L
 70
        64
 62
        11
  6
CONTINUOUS
290
         1
370
        13
390
1D
  0
LAYER
  5
5E
100
AcDbSymbolTableRecord
100
AcDbLayerTableRecord
  2
3210_34L
 70
        64
 62
        11
  6
CONTINUOUS
290
         1
370
        13
390
1D
  0
LAYER
  5
5F
100
AcDbSymbolTableRecord
100
AcDbLayerTableRecord
  2
3210_61L
 70
        64
 62
        11
  6
CONTINUOUS
290
         1
370
        13
390
1D
  0
LAYER
  5
60
100
AcDbSymbolTableRecord
100
AcDbLayerTableRecord
  2
3210_62L
 70
        64
 62
        11
  6
CONTINUOUS
290
         1
370
        13
390
1D
  0
LAYER
  5
61
100
AcDbSymbolTableRecord
100
AcDbLayerTableRecord
  2
3210_52R
 70
        64
 62
        34
  6
CONTINUOUS
290
         1
370
        13
390
1D
  0
LAYER
  5
62
100
AcDbSymbolTableRecord
100
AcDbLayerTableRecord
  2
3210_51R
 70
        64
 62
        14
  6
CONTINUOUS
290
         1
370
        13
390
1D
  0
LAYER
  5
63
100
AcDbSymbolTableRecord
100
AcDbLayerTableRecord
  2
3210_24R
 70
        64
 62
        14
  6
CONTINUOUS
290
         1
370
        13
390
1D
  0
LAYER
  5
64
100
AcDbSymbolTableRecord
100
AcDbLayerTableRecord
  2
3210_34R
 70
        64
 62
        14
  6
CONTINUOUS
290
         1
370
        13
390
1D
  0
LAYER
  5
65
100
AcDbSymbolTableRecord
100
AcDbLayerTableRecord
  2
3210_61R
 70
        64
 62
        14
  6
CONTINUOUS
290
         1
370
        13
390
1D
  0
LAYER
  5
66
100
AcDbSymbolTableRecord
100
AcDbLayerTableRecord
  2
3210_62R
 70
        64
 62
        14
  6
CONTINUOUS
290
         1
370
        13
390
1D
  0
LAYER
  5
67
100
AcDbSymbolTableRecord
100
AcDbLayerTableRecord
  2
3210_14L
 70
        64
 62
        11
  6
CONTINUOUS
290
         1
370
        13
390
1D
  0
LAYER
  5
68
100
AcDbSymbolTableRecord
100
AcDbLayerTableRecord
  2
3210_14R
 70
        64
 62
        14
  6
CONTINUOUS
290
         1
370
        13
390
1D
  0
LAYER
  5
69
100
AcDbSymbolTableRecord
100
AcDbLayerTableRecord
  2
3210_94R
 70
        64
 62
        14
  6
CONTINUOUS
290
         1
370
        13
390
1D
  0
LAYER
  5
6A
100
AcDbSymbolTableRecord
100
AcDbLayerTableRecord
  2
3210_94L
 70
        64
 62
        11
  6
CONTINUOUS
290
         1
370
        13
390
1D
  0
LAYER
  5
6B
100
AcDbSymbolTableRecord
100
AcDbLayerTableRecord
  2
3210_84L
 70
        64
 62
        11
  6
CONTINUOUS
290
         1
370
        13
390
1D
  0
LAYER
  5
6C
100
AcDbSymbolTableRecord
100
AcDbLayerTableRecord
  2
3210_84R
 70
        64
 62
        15
  6
CONTINUOUS
290
         1
370
        13
390
1D
  0
LAYER
  5
6D
100
AcDbSymbolTableRecord
100
AcDbLayerTableRecord
  2
3210_87L
 70
        64
 62
        11
  6
CONTINUOUS
290
         1
370
        13
390
1D
  0
LAYER
  5
6E
100
AcDbSymbolTableRecord
100
AcDbLayerTableRecord
  2
3210_97L
 70
        64
 62
        11
  6
CONTINUOUS
290
         1
370
        13
390
1D
  0
LAYER
  5
6F
100
AcDbSymbolTableRecord
100
AcDbLayerTableRecord
  2
3210_87R
 70
        64
 62
        15
  6
CONTINUOUS
290
         1
370
        13
390
1D
  0
LAYER
  5
70
100
AcDbSymbolTableRecord
100
AcDbLayerTableRecord
  2
3210_97R
 70
        64
 62
        14
  6
CONTINUOUS
290
         1
370
        13
390
1D
  0
LAYER
  5
71
100
AcDbSymbolTableRecord
100
AcDbLayerTableRecord
  2
3210_17R
 70
        64
 62
        14
  6
CONTINUOUS
290
         1
370
        13
390
1D
  0
LAYER
  5
72
100
AcDbSymbolTableRecord
100
AcDbLayerTableRecord
  2
3210_37R
 70
        64
 62
        14
  6
CONTINUOUS
290
         1
370
        13
390
1D
  0
LAYER
  5
73
100
AcDbSymbolTableRecord
100
AcDbLayerTableRecord
  2
3210_17L
 70
        64
 62
        11
  6
CONTINUOUS
290
         1
370
        13
390
1D
  0
LAYER
  5
74
100
AcDbSymbolTableRecord
100
AcDbLayerTableRecord
  2
3210_27R
 70
        64
 62
        14
  6
CONTINUOUS
290
         1
370
        13
390
1D
  0
LAYER
  5
75
100
AcDbSymbolTableRecord
100
AcDbLayerTableRecord
  2
3210_27L
 70
        64
 62
        11
  6
CONTINUOUS
290
         1
370
        13
390
1D
  0
LAYER
  5
76
100
AcDbSymbolTableRecord
100
AcDbLayerTableRecord
  2
3210_37L
 70
        64
 62
        11
  6
CONTINUOUS
290
         1
370
        13
390
1D
  0
LAYER
  5
77
100
AcDbSymbolTableRecord
100
AcDbLayerTableRecord
  2
3211_27L~A
 70
        64
 62
         5
  6
CONTINUOUS
290
         1
370
        13
390
1D
  0
LAYER
  5
78
100
AcDbSymbolTableRecord
100
AcDbLayerTableRecord
  2
3211_27L
 70
        64
 62
        11
  6
CONTINUOUS
290
         1
370
        13
390
1D
  0
LAYER
  5
79
100
AcDbSymbolTableRecord
100
AcDbLayerTableRecord
  2
3211_27R
 70
        64
 62
        15
  6
CONTINUOUS
290
         1
370
        13
390
1D
  0
LAYER
  5
7A
100
AcDbSymbolTableRecord
100
AcDbLayerTableRecord
  2
3211_17L~A
 70
        64
 62
         5
  6
CONTINUOUS
290
         1
370
        13
390
1D
  0
LAYER
  5
7B
100
AcDbSymbolTableRecord
100
AcDbLayerTableRecord
  2
3211_17L
 70
        64
 62
        11
  6
CONTINUOUS
290
         1
370
        13
390
1D
  0
LAYER
  5
7C
100
AcDbSymbolTableRecord
100
AcDbLayerTableRecord
  2
3211_17R
 70
        64
 62
        15
  6
CONTINUOUS
290
         1
370
        13
390
1D
  0
LAYER
  5
7D
100
AcDbSymbolTableRecord
100
AcDbLayerTableRecord
  2
3211_97R
 70
        64
 62
        15
  6
CONTINUOUS
290
         1
370
        13
390
1D
  0
LAYER
  5
7E
100
AcDbSymbolTableRecord
100
AcDbLayerTableRecord
  2
3211_97L~A
 70
        64
 62
         5
  6
CONTINUOUS
290
         1
370
        13
390
1D
  0
LAYER
  5
7F
100
AcDbSymbolTableRecord
100
AcDbLayerTableRecord
  2
3211_97L
 70
        64
 62
        11
  6
CONTINUOUS
290
         1
370
        13
390
1D
  0
LAYER
  5
80
100
AcDbSymbolTableRecord
100
AcDbLayerTableRecord
  2
3211_87R
 70
        64
 62
        15
  6
CONTINUOUS
290
         1
370
        13
390
1D
  0
LAYER
  5
81
100
AcDbSymbolTableRecord
100
AcDbLayerTableRecord
  2
3211_87L~A
 70
        64
 62
         5
  6
CONTINUOUS
290
         1
370
        13
390
1D
  0
LAYER
  5
82
100
AcDbSymbolTableRecord
100
AcDbLayerTableRecord
  2
3211_87L
 70
        64
 62
        11
  6
CONTINUOUS
290
         1
370
        13
390
1D
  0
LAYER
  5
83
100
AcDbSymbolTableRecord
100
AcDbLayerTableRecord
  2
3211___ HEBELBANK JE
 70
        64
 62
       230
  6
CONTINUOUS
290
         1
370
        13
390
1D
  0
LAYER
  5
84
100
AcDbSymbolTableRecord
100
AcDbLayerTableRecord
  2
3209___ DOPPELHEBEL JE MIT SCHLOSS GRUPPENPFADE
 70
        64
 62
         6
  6
DASHDOT
290
         1
370
         0
390
1D
  0
LAYER
  5
85
100
AcDbSymbolTableRecord
100
AcDbLayerTableRecord
  2
3201_6R
 70
        64
 62
        14
  6
CONTINUOUS
290
         1
370
         0
390
1D
  0
LAYER
  5
86
100
AcDbSymbolTableRecord
100
AcDbLayerTableRecord
  2
3201_7R
 70
        64
 62
        14
  6
CONTINUOUS
290
         1
370
         0
390
1D
  0
LAYER
  5
87
100
AcDbSymbolTableRecord
100
AcDbLayerTableRecord
  2
3201___ EINZELHEBEL JE
 70
        64
 62
         6
  6
DASHDOT
290
         1
370
         0
390
1D
  0
LAYER
  5
88
100
AcDbSymbolTableRecord
100
AcDbLayerTableRecord
  2
FRÄSPFADE
 70
        64
 62
        30
  6
CONTINUOUS
290
         1
370
        13
390
1D
  0
LAYER
  5
89
100
AcDbSymbolTableRecord
100
AcDbLayerTableRecord
  2
3211 STÄNDER JE
 70
        64
 62
         7
  6
CONTINUOUS
290
         1
370
        18
390
1D
  0
LAYER
  5
8A
100
AcDbSymbolTableRecord
100
AcDbLayerTableRecord
  2
3211 TRÄGER JE
 70
        64
 62
         7
  6
CONTINUOUS
290
         1
370
        18
390
1D
  0
LAYER
  5
8B
100
AcDbSymbolTableRecord
100
AcDbLayerTableRecord
  2
3211 HEBELBANK JE
 70
        64
 62
         9
  6
CONTINUOUS
290
         1
370
        18
390
1D
  0
LAYER
  5
8C
100
AcDbSymbolTableRecord
100
AcDbLayerTableRecord
  2
2001 BODEN
 70
        64
 62
        14
  6
CONTINUOUS
290
         1
370
        18
390
1D
  0
LAYER
  5
8D
100
AcDbSymbolTableRecord
100
AcDbLayerTableRecord
  2
2001 GEBÄUDE
 70
        64
 62
         7
  6
CONTINUOUS
290
         1
370
         0
390
1D
  0
LAYER
  5
8E
100
AcDbSymbolTableRecord
100
AcDbLayerTableRecord
  2
3201 HEBELBOCK
 70
        64
 62
         7
  6
CONTINUOUS
290
         1
370
        18
390
1D
  0
LAYER
  5
8F
100
AcDbSymbolTableRecord
100
AcDbLayerTableRecord
  2
3201 SEILZUG
 70
        64
 62
        94
  6
DASHDOT
290
         1
370
        18
390
1D
  0
LAYER
  5
90
100
AcDbSymbolTableRecord
100
AcDbLayerTableRecord
  2
3201 HEBELROLLE
 70
        64
 62
       134
  6
CONTINUOUS
290
         1
370
        18
390
1D
  0
LAYER
  5
91
100
AcDbSymbolTableRecord
100
AcDbLayerTableRecord
  2
3201-3204 HEBEL JE
 70
        64
 62
         7
  6
CONTINUOUS
290
         1
370
         0
390
1D
  0
LAYER
  5
92
100
AcDbSymbolTableRecord
100
AcDbLayerTableRecord
  2
2501 ABTRIEBRAHMEN
 70
        64
 62
         7
  6
CONTINUOUS
290
         1
370
         0
390
1D
  0
LAYER
  5
93
100
AcDbSymbolTableRecord
100
AcDbLayerTableRecord
  2
2501 ROLLEN
 70
        64
 62
       134
  6
CONTINUOUS
290
         1
370
        18
390
1D
  0
LAYER
  5
94
100
AcDbSymbolTableRecord
100
AcDbLayerTableRecord
  2
2501 ABTRIEB
 70
        64
 62
         9
  6
CONTINUOUS
290
         1
370
        18
390
1D
  0
LAYER
  5
95
100
AcDbSymbolTableRecord
100
AcDbLayerTableRecord
  2
2052 GEHÄUSE
 70
        64
 62
         7
  6
CONTINUOUS
290
         1
370
        18
390
1D
  0
LAYER
  5
96
100
AcDbSymbolTableRecord
100
AcDbLayerTableRecord
  2
2052 SCHLOSS MIT DORN
 70
        64
 62
         7
  6
CONTINUOUS
290
         1
370
         0
390
1D
  0
LAYER
  5
97
100
AcDbSymbolTableRecord
100
AcDbLayerTableRecord
  2
KONSTRUKTION
 70
        64
 62
         7
  6
CONTINUOUS
290
         1
370
         0
390
1D
  0
LAYER
  5
98
100
AcDbSymbolTableRecord
100
AcDbLayerTableRecord
  2
STANDARD
 70
        64
 62
         7
  6
CONTINUOUS
290
         1
370
         0
390
1D
  0
ENDTAB
  0
TABLE
  2
STYLE
  5
3
100
AcDbSymbolTable
 70
         7
  0
STYLE
  5
17
100
AcDbSymbolTableRecord
100
AcDbTextStyleTableRecord
  2
Standard
 70
         0
 40
0.0
 41
1.0
 50
0.0
 71
         0
 42
0.0
  3
txt
  4

  0
STYLE
  5
2D
100
AcDbSymbolTableRecord
100
AcDbTextStyleTableRecord
  2
CADdy
 70
         0
 40
0.0
 41
1.0
 50
0.0
 71
         0
 42
3.5
  3
txt.shx
  4

  0
STYLE
  5
2E
100
AcDbSymbolTableRecord
100
AcDbTextStyleTableRecord
  2
Arial
 70
         0
 40
0.0
 41
1.0
 50
0.0
 71
         0
 42
3.5
  3
arial.ttf
  4

1001
ACAD
1000
Arial
1071
       34
  0
STYLE
  5
2F
100
AcDbSymbolTableRecord
100
AcDbTextStyleTableRecord
  2
Isonorm
 70
         0
 40
0.0
 41
1.0
 50
0.0
 71
         0
 42
3.5
  3
txt.shx
  4

  0
STYLE
  5
30
100
AcDbSymbolTableRecord
100
AcDbTextStyleTableRecord
  2
Tahoma
 70
         0
 40
0.0
 41
1.0
 50
0.0
 71
         0
 42
3.5
  3
tahoma.ttf
  4

1001
ACAD
1000
Tahoma
1071
       34
  0
STYLE
  5
31
100
AcDbSymbolTableRecord
100
AcDbTextStyleTableRecord
  2
Microsoft Sans Serif
 70
         0
 40
0.0
 41
1.0
 50
0.0
 71
         0
 42
3.5
  3
micross.ttf
  4

1001
ACAD
1000
Microsoft Sans Serif
1071
       34
  0
STYLE
  5
32
100
AcDbSymbolTableRecord
100
AcDbTextStyleTableRecord
  2
Arial Rounded MT Bold
 70
         0
 40
0.0
 41
1.0
 50
0.0
 71
         0
 42
3.5
  3
txt.shx
  4

  0
ENDTAB
  0
TABLE
  2
VIEW
  5
5
100
AcDbSymbolTable
 70
         0
  0
ENDTAB
  0
TABLE
  2
UCS
  5
6
100
AcDbSymbolTable
 70
         0
  0
ENDTAB
  0
TABLE
  2
APPID
  5
8
100
AcDbSymbolTable
 70
         1
  0
APPID
  5
16
100
AcDbSymbolTableRecord
100
AcDbRegAppTableRecord
  2
ACAD
 70
        64
  0
ENDTAB
  0
TABLE
  2
DIMSTYLE
  5
9
100
AcDbSymbolTable
 70
         1
100
AcDbDimStyleTable
 71
         0
  0
DIMSTYLE
105
18
100
AcDbSymbolTableRecord
100
AcDbDimStyleTableRecord
  2
Standard
 70
         0
  3

  4

 40
1.0
 41
0.18
 42
0.0625
 43
0.38
 44
0.18
 45
0.0
 46
0.0
 47
0.0
 48
0.0
 71
         0
 72
         0
 73
         1
 74
         1
 75
         0
 76
         0
 77
         0
 78
         0
 79
         0
140
0.18
141
0.09
142
0.0
143
25.4
144
1.0
145
0.0
146
1.0
147
0.09
148
0.0
170
         0
171
         2
172
         0
173
         0
174
         0
175
         0
176
         0
177
         0
178
         0
179
         0
271
         4
272
         4
273
         2
274
         2
275
         0
276
         0
277
         2
278
        46
279
         0
280
         0
281
         0
282
         0
283
         1
284
         0
285
         0
286
         0
288
         0
289
         3
340
17
341
0
342
0
343
0
344
0
371
        -2
372
        -2
  0
ENDTAB
  0
TABLE
  2
BLOCK_RECORD
  5
1
100
AcDbSymbolTable
 70
         0
  0
BLOCK_RECORD
  5
A
100
AcDbSymbolTableRecord
100
AcDbBlockTableRecord
  2
*MODEL_SPACE
340
20
  0
BLOCK_RECORD
  5
B
100
AcDbSymbolTableRecord
100
AcDbBlockTableRecord
  2
*PAPER_SPACE
340
21
  0
ENDTAB
  0
ENDSEC
  0
SECTION
  2
BLOCKS
  0
BLOCK
  5
D
100
AcDbEntity
  8
0
390
0
100
AcDbBlockBegin
  2
*MODEL_SPACE
 70
         0
 10
0.0
 20
0.0
 30
0.0
  3
*MODEL_SPACE
  1

  0
ENDBLK
  5
E
100
AcDbEntity
  8
0
390
0
100
AcDbBlockEnd
  0
BLOCK
  5
F
100
AcDbEntity
 67
         1
  8
0
390
0
100
AcDbBlockBegin
  2
*PAPER_SPACE
 70
         0
 10
0.0
 20
0.0
 30
0.0
  3
*PAPER_SPACE
  1

  0
ENDBLK
  5
10
100
AcDbEntity
 67
         1
  8
0
390
0
100
AcDbBlockEnd
  0
ENDSEC
  0
SECTION
  2
ENTITIES
  0
TEXT
  5
99
100
AcDbEntity
  8
BESCHRIFTUNG
390
0
100
AcDbText
 10
215.3145333333
 20
29.3230888889
 30
0.0
 40
3.3
  1
2026-07-20
 41
1.0318365423
  7
Arial
 11
215.3145333333
 21
32.6230888889
 31
0.0
100
AcDbText
 73
         3
  0
TEXT
  5
9A
100
AcDbEntity
  8
BESCHRIFTUNG
390
0
100
AcDbText
 10
215.3145333333
 20
6.9230888889
 30
0.0
 40
3.3
  1
3211 P.4h Hebelbank JE
 41
1.1437246669
  7
Arial
 11
215.3145333333
 21
10.2230888889
 31
0.0
100
AcDbText
 73
         3
  0
CIRCLE
  5
9B
100
AcDbEntity
  8
3210_37R
390
0
100
AcDbCircle
 10
41.9752587908
 20
180.2925845406
 30
0.0
 40
1.25
  0
CIRCLE
  5
9C
100
AcDbEntity
  8
3210_37R
390
0
100
AcDbCircle
 10
49.9752587908
 20
174.2925845406
 30
0.0
 40
1.25
  0
CIRCLE
  5
9D
100
AcDbEntity
  8
3210_17L
390
0
100
AcDbCircle
 10
41.9752587908
 20
81.5953984783
 30
0.0
 40
1.25
  0
CIRCLE
  5
9E
100
AcDbEntity
  8
3210_17L
390
0
100
AcDbCircle
 10
49.9752587908
 20
87.5953984783
 30
0.0
 40
1.25
  0
CIRCLE
  5
9F
100
AcDbEntity
  8
3210_17L
390
0
100
AcDbCircle
 10
280.9752587908
 20
87.5953984783
 30
0.0
 40
1.25
  0
CIRCLE
  5
A0
100
AcDbEntity
  8
3210_17L
390
0
100
AcDbCircle
 10
272.9752587909
 20
81.5953984783
 30
0.0
 40
1.25
  0
CIRCLE
  5
A1
100
AcDbEntity
  8
3210_17R
390
0
100
AcDbCircle
 10
59.9752587909
 20
101.5953984783
 30
0.0
 40
1.5
  0
CIRCLE
  5
A2
100
AcDbEntity
  8
3210_17R
390
0
100
AcDbCircle
 10
92.9752587909
 20
101.5953984783
 30
0.0
 40
1.5
  0
CIRCLE
  5
A3
100
AcDbEntity
  8
3210_17R
390
0
100
AcDbCircle
 10
125.9752587909
 20
101.5953984783
 30
0.0
 40
1.5
  0
CIRCLE
  5
A4
100
AcDbEntity
  8
3210_17R
390
0
100
AcDbCircle
 10
257.9752587909
 20
101.5953984783
 30
0.0
 40
1.5
  0
MTEXT
  5
A5
100
AcDbEntity
  8
3211___ HEBELBANK JE
390
0
100
AcDbMText
 10
15.7330652987
 20
36.6547978226
 30
0.0
 40
3.0
 41
0.0
 71
         1
 72
         1
  1
\W0.972812;3211.17\P\P\P3211.27\P\P\P
  7
Arial
 73
         1
 44
0.75
  0
MTEXT
  5
A6
100
AcDbEntity
  8
3211___ HEBELBANK JE
390
0
100
AcDbMText
 10
34.1518152987
 20
36.6547978226
 30
0.0
 40
3.0
 41
0.0
 71
         1
 72
         1
  1
\W0.972828;0\P\P\P0
  7
Arial
 73
         1
 44
0.75
  0
MTEXT
  5
A7
100
AcDbEntity
  8
3211___ HEBELBANK JE
390
0
100
AcDbMText
 10
44.1518152987
 20
36.6547978226
 30
0.0
 40
3.0
 41
0.0
 71
         1
 72
         1
  3
\W0.972784;Hebelbankträger vorn\P   :A1 linkes Ende kurz, :A2 linkes Ende lang\P   :C1 rechtes Ende kurz, :C2 rechtes Ende lang\PHebelbankträger hinten\P   :A1 linkes Ende kurz, :A2 linkes Ende lang\P   [:B2 Träger durchlaufend dzt.nicht unterstützt
  1
]\P   :B3 Ausnehmungen für Schlösser \P   :C1 rechtes Ende kurz, :C2 rechtes Ende lang\P
  7
Arial
 73
         1
 44
0.75
  0
TEXT
  5
A8
100
AcDbEntity
  8
BESCHRIFTUNG
390
0
100
AcDbText
 10
19.4997261001
 20
185.6450568196
 30
0.0
 40
3.0
  1
3210.37L,R
 41
0.9188455153
  7
Arial
100
AcDbText
  0
LINE
  5
A9
100
AcDbEntity
  8
3211 STÄNDER JE
390
0
  6
DASHED
100
AcDbLine
 10
38.4752587908
 20
166.7925845406
 30
0.0
 11
284.4752587908
 21
166.7925845406
 31
0.0
  0
LINE
  5
AA
100
AcDbEntity
  8
3211 STÄNDER JE
390
0
100
AcDbLine
 10
38.4752587908
 20
108.0953984783
 30
0.0
 11
284.4752587908
 21
108.0953984783
 31
0.0
  0
LINE
  5
AB
100
AcDbEntity
  8
3211 STÄNDER JE
390
0
100
AcDbLine
 10
38.4752587908
 20
153.7925845406
 30
0.0
 11
38.4752587908
 21
168.7925845406
 31
0.0
  0
LINE
  5
AC
100
AcDbEntity
  8
3211 STÄNDER JE
390
0
100
AcDbLine
 10
38.4752587908
 20
183.7925845406
 30
0.0
 11
284.4752587908
 21
183.7925845406
 31
0.0
  0
LINE
  5
AD
100
AcDbEntity
  8
3211 STÄNDER JE
390
0
  6
DASHED
100
AcDbLine
 10
38.4752587908
 20
170.7925845406
 30
0.0
 11
284.4752587908
 21
170.7925845406
 31
0.0
  0
LINE
  5
AE
100
AcDbEntity
  8
3211 STÄNDER JE
390
0
100
AcDbLine
 10
284.4752587908
 20
153.7925845406
 30
0.0
 11
284.4752587908
 21
168.7925845406
 31
0.0
  0
LINE
  5
AF
100
AcDbEntity
  8
3211 STÄNDER JE
390
0
100
AcDbLine
 10
38.4752587908
 20
168.7925845406
 30
0.0
 11
284.4752587908
 21
168.7925845406
 31
0.0
  0
LINE
  5
B0
100
AcDbEntity
  8
3211 STÄNDER JE
390
0
100
AcDbLine
 10
38.4752587908
 20
78.0953984783
 30
0.0
 11
284.4752587908
 21
78.0953984783
 31
0.0
  0
LINE
  5
B1
100
AcDbEntity
  8
3211 STÄNDER JE
390
0
100
AcDbLine
 10
38.4752587908
 20
108.0953984783
 30
0.0
 11
38.4752587908
 21
93.0953984783
 31
0.0
  0
LINE
  5
B2
100
AcDbEntity
  8
3211 STÄNDER JE
390
0
  6
DASHED
100
AcDbLine
 10
38.4752587908
 20
91.0953984783
 30
0.0
 11
284.4752587908
 21
91.0953984783
 31
0.0
  0
LINE
  5
B3
100
AcDbEntity
  8
3211 STÄNDER JE
390
0
100
AcDbLine
 10
284.4752587908
 20
108.0953984783
 30
0.0
 11
284.4752587908
 21
93.0953984783
 31
0.0
  0
LINE
  5
B4
100
AcDbEntity
  8
3211 STÄNDER JE
390
0
100
AcDbLine
 10
38.4752587908
 20
93.0953984783
 30
0.0
 11
284.4752587908
 21
93.0953984783
 31
0.0
  0
LINE
  5
B5
100
AcDbEntity
  8
3211 STÄNDER JE
390
0
  6
DASHED
100
AcDbLine
 10
38.4752587908
 20
95.0953984783
 30
0.0
 11
284.4752587908
 21
95.0953984783
 31
0.0
  0
CIRCLE
  5
B6
100
AcDbEntity
  8
3210_37R
390
0
100
AcDbCircle
 10
272.9752587909
 20
180.2925845406
 30
0.0
 40
1.25
  0
CIRCLE
  5
B7
100
AcDbEntity
  8
3210_37R
390
0
100
AcDbCircle
 10
280.9752587908
 20
174.2925845406
 30
0.0
 40
1.25
  0
CIRCLE
  5
B8
100
AcDbEntity
  8
3210_37L
390
0
100
AcDbCircle
 10
59.9752587909
 20
160.2925845406
 30
0.0
 40
1.5
  0
ARC
  5
B9
100
AcDbEntity
  8
3211_27R
390
0
  6
DASHDOT
100
AcDbCircle
 10
41.4752587908
 20
137.8110713781
 30
0.0
 40
4.0119346721
100
AcDbArc
 50
184.4205231577
 51
355.5794768423
  0
ARC
  5
BA
100
AcDbEntity
  8
3211_27R
390
0
  6
DASHDOT
100
AcDbCircle
 10
281.4752587908
 20
137.8110713781
 30
0.0
 40
4.0119346721
100
AcDbArc
 50
184.4205231577
 51
355.5794768423
  0
ARC
  5
BB
100
AcDbEntity
  8
3211_27R
390
0
  6
DASHDOT
100
AcDbCircle
 10
161.4752587908
 20
-676.941203591
 30
0.0
 40
822.6624352672
100
AcDbArc
 50
81.8939605704
 51
98.1060394296
  0
ARC
  5
BC
100
AcDbEntity
  8
3211_27L~A
390
0
  6
DASHDOT
100
AcDbCircle
 10
41.4752587908
 20
122.8110713781
 30
0.0
 40
4.0119346721
100
AcDbArc
 50
184.4205231577
 51
355.5794768423
  0
ARC
  5
BD
100
AcDbEntity
  8
3211_27L
390
0
  6
DASHDOT
100
AcDbCircle
 10
281.4752587908
 20
122.8110713781
 30
0.0
 40
4.0119346721
100
AcDbArc
 50
184.4205231577
 51
355.5794768423
  0
ARC
  5
BE
100
AcDbEntity
  8
3211_27L
390
0
  6
DASHDOT
100
AcDbCircle
 10
161.4752587908
 20
-691.941203591
 30
0.0
 40
822.6624352672
100
AcDbArc
 50
81.8939605704
 51
98.1060394296
  0
ARC
  5
BF
100
AcDbEntity
  8
3211_17R
390
0
  6
DASHDOT
100
AcDbCircle
 10
41.4752587908
 20
63.4046230138
 30
0.0
 40
4.0119346721
100
AcDbArc
 50
184.4205231577
 51
355.5794768423
  0
ARC
  5
C0
100
AcDbEntity
  8
3211_17R
390
0
  6
DASHDOT
100
AcDbCircle
 10
281.4752587908
 20
63.4046230138
 30
0.0
 40
4.0119346721
100
AcDbArc
 50
184.4205231577
 51
355.5794768423
  0
ARC
  5
C1
100
AcDbEntity
  8
3211_17R
390
0
  6
DASHDOT
100
AcDbCircle
 10
161.4752587908
 20
-751.3476519553
 30
0.0
 40
822.6624352672
100
AcDbArc
 50
81.8939605704
 51
98.1060394296
  0
ARC
  5
C2
100
AcDbEntity
  8
3211_17L~A
390
0
  6
DASHDOT
100
AcDbCircle
 10
41.4752587908
 20
49.5938000276
 30
0.0
 40
4.0119346721
100
AcDbArc
 50
184.4205231577
 51
355.5794768423
  0
ARC
  5
C3
100
AcDbEntity
  8
3211_17L
390
0
  6
DASHDOT
100
AcDbCircle
 10
281.4752587908
 20
49.5938000276
 30
0.0
 40
4.0119346721
100
AcDbArc
 50
184.4205231577
 51
355.5794768423
  0
ARC
  5
C4
100
AcDbEntity
  8
3211_17L
390
0
  6
DASHDOT
100
AcDbCircle
 10
161.4752587908
 20
-765.1584749416
 30
0.0
 40
822.6624352672
100
AcDbArc
 50
81.8939605704
 51
98.1060394296
  0
ARC
  5
C5
100
AcDbEntity
  8
3210_17R
390
0
  6
DASHED
100
AcDbCircle
 10
109.4752587909
 20
65.2774339647
 30
0.0
 40
39.8904066965
100
AcDbArc
 50
65.566722563
 51
114.433277437
  0
CIRCLE
  5
C6
100
AcDbEntity
  8
3211_17L
390
0
  6
PHANTOM
100
AcDbCircle
 10
37.4752587908
 20
49.2845754921
 30
0.0
 40
0.5
  0
CIRCLE
  5
C7
100
AcDbEntity
  8
3211_17L
390
0
  6
PHANTOM
100
AcDbCircle
 10
285.4752587908
 20
49.2845754921
 30
0.0
 40
1.0
  0
CIRCLE
  5
C8
100
AcDbEntity
  8
3211_17R
390
0
  6
PHANTOM
100
AcDbCircle
 10
37.4752587908
 20
63.0953984783
 30
0.0
 40
0.5
  0
CIRCLE
  5
C9
100
AcDbEntity
  8
3211_17R
390
0
  6
PHANTOM
100
AcDbCircle
 10
285.4752587908
 20
63.0953984783
 30
0.0
 40
1.0
  0
CIRCLE
  5
CA
100
AcDbEntity
  8
3211_27L
390
0
  6
PHANTOM
100
AcDbCircle
 10
37.4752587908
 20
122.5018468427
 30
0.0
 40
0.5
  0
CIRCLE
  5
CB
100
AcDbEntity
  8
3211_27L
390
0
  6
PHANTOM
100
AcDbCircle
 10
285.4752587908
 20
122.5018468427
 30
0.0
 40
1.0
  0
CIRCLE
  5
CC
100
AcDbEntity
  8
3211_27R
390
0
  6
PHANTOM
100
AcDbCircle
 10
37.4752587908
 20
137.5018468427
 30
0.0
 40
0.5
  0
CIRCLE
  5
CD
100
AcDbEntity
  8
3211_27R
390
0
  6
PHANTOM
100
AcDbCircle
 10
285.4752587908
 20
137.5018468427
 30
0.0
 40
1.0
  0
CIRCLE
  5
CE
100
AcDbEntity
  8
3210_37L
390
0
  6
PHANTOM
100
AcDbCircle
 10
277.4752587908
 20
153.7925845406
 30
0.0
 40
1.0
  0
CIRCLE
  5
CF
100
AcDbEntity
  8
3210_37L
390
0
  6
PHANTOM
100
AcDbCircle
 10
45.4752587908
 20
153.7925845405
 30
0.0
 40
0.5
  0
CIRCLE
  5
D0
100
AcDbEntity
  8
3210_37R
390
0
  6
PHANTOM
100
AcDbCircle
 10
277.4752587908
 20
168.7925845406
 30
0.0
 40
1.0
  0
CIRCLE
  5
D1
100
AcDbEntity
  8
3210_37R
390
0
  6
PHANTOM
100
AcDbCircle
 10
45.4752587908
 20
168.7925845405
 30
0.0
 40
0.5
  0
CIRCLE
  5
D2
100
AcDbEntity
  8
3210_17R
390
0
  6
PHANTOM
100
AcDbCircle
 10
277.4752587908
 20
93.0953984783
 30
0.0
 40
1.0
  0
CIRCLE
  5
D3
100
AcDbEntity
  8
3210_17R
390
0
  6
PHANTOM
100
AcDbCircle
 10
45.4752587908
 20
93.0953984783
 30
0.0
 40
0.5
  0
CIRCLE
  5
D4
100
AcDbEntity
  8
3210_17L
390
0
  6
PHANTOM
100
AcDbCircle
 10
277.4752587908
 20
78.0953984783
 30
0.0
 40
1.0
  0
CIRCLE
  5
D5
100
AcDbEntity
  8
3210_17L
390
0
  6
PHANTOM
100
AcDbCircle
 10
45.4752587908
 20
78.0953984783
 30
0.0
 40
0.5
  0
ARC
  5
D6
100
AcDbEntity
  8
3211___ HEBELBANK JE
390
0
  6
DASHDOT
100
AcDbCircle
 10
161.4752587908
 20
1255.4018344558
 30
0.0
 40
1124.7561434842
100
AcDbArc
 50
263.670496541
 51
276.329503459
  0
ARC
  5
D7
100
AcDbEntity
  8
3211___ HEBELBANK JE
390
0
  6
DASHDOT
100
AcDbCircle
 10
161.4752587908
 20
1240.4018344558
 30
0.0
 40
1124.7561434842
100
AcDbArc
 50
263.670496541
 51
276.329503459
  0
ARC
  5
D8
100
AcDbEntity
  8
3211___ HEBELBANK JE
390
0
  6
DASHDOT
100
AcDbCircle
 10
161.4752587908
 20
1180.9953860915
 30
0.0
 40
1124.7561434842
100
AcDbArc
 50
263.670496541
 51
276.329503459
  0
ARC
  5
D9
100
AcDbEntity
  8
3211___ HEBELBANK JE
390
0
  6
DASHDOT
100
AcDbCircle
 10
161.4752587908
 20
1167.1845631052
 30
0.0
 40
1124.7561434842
100
AcDbArc
 50
263.670496541
 51
276.329503459
  0
LINE
  5
DA
100
AcDbEntity
  8
3211 STÄNDER JE
390
0
100
AcDbLine
 10
38.4752587908
 20
168.7925845406
 30
0.0
 11
38.4752587908
 21
183.7925845406
 31
0.0
  0
LINE
  5
DB
100
AcDbEntity
  8
3211 STÄNDER JE
390
0
100
AcDbLine
 10
284.4752587908
 20
168.7925845406
 30
0.0
 11
284.4752587908
 21
183.7925845406
 31
0.0
  0
LINE
  5
DC
100
AcDbEntity
  8
3211 STÄNDER JE
390
0
100
AcDbLine
 10
38.4752587908
 20
93.0953984783
 30
0.0
 11
38.4752587908
 21
78.0953984783
 31
0.0
  0
LINE
  5
DD
100
AcDbEntity
  8
3211 STÄNDER JE
390
0
100
AcDbLine
 10
284.4752587908
 20
93.0953984783
 30
0.0
 11
284.4752587908
 21
78.0953984783
 31
0.0
  0
LINE
  5
DE
100
AcDbEntity
  8
3210_37R
390
0
  6
DASHED
100
AcDbLine
 10
41.9752587908
 20
180.2925845406
 30
0.0
 11
49.9752587908
 21
174.2925845406
 31
0.0
  0
LINE
  5
DF
100
AcDbEntity
  8
3210_37R
390
0
  6
DASHED
100
AcDbLine
 10
45.4752587908
 20
168.7925845406
 30
0.0
 11
41.9752587908
 21
180.2925845406
 31
0.0
  0
LINE
  5
E0
100
AcDbEntity
  8
3210_37R
390
0
  6
DASHED
100
AcDbLine
 10
272.9752587909
 20
180.2925845406
 30
0.0
 11
280.9752587908
 21
174.2925845406
 31
0.0
  0
LINE
  5
E1
100
AcDbEntity
  8
3210_37R
390
0
  6
DASHED
100
AcDbLine
 10
280.9752587908
 20
174.2925845406
 30
0.0
 11
277.4752587908
 21
168.7925845406
 31
0.0
  0
LINE
  5
E2
100
AcDbEntity
  8
3210_37L
390
0
  6
DASHED
100
AcDbLine
 10
45.4752587908
 20
153.7925845406
 30
0.0
 11
59.9752587909
 21
160.2925845395
 31
0.0
  0
LINE
  5
E3
100
AcDbEntity
  8
3210_17R
390
0
  6
DASHED
100
AcDbLine
 10
59.9752587909
 20
101.5953984783
 30
0.0
 11
92.9752587909
 21
101.5953984783
 31
0.0
  0
LINE
  5
E4
100
AcDbEntity
  8
3210_17L
390
0
  6
DASHED
100
AcDbLine
 10
45.4752587908
 20
78.0953984783
 30
0.0
 11
41.9752587908
 21
81.5953984783
 31
0.0
  0
LINE
  5
E5
100
AcDbEntity
  8
3210_17R
390
0
  6
DASHED
100
AcDbLine
 10
125.9752587909
 20
101.5953984783
 30
0.0
 11
158.9752587909
 21
101.5953984783
 31
0.0
  0
LINE
  5
E6
100
AcDbEntity
  8
3210_17R
390
0
  6
DASHED
100
AcDbLine
 10
257.9752587909
 20
101.5953984783
 30
0.0
 11
277.4752587908
 21
93.0953984783
 31
0.0
  0
LINE
  5
E7
100
AcDbEntity
  8
3210_17L
390
0
  6
DASHED
100
AcDbLine
 10
280.9752587908
 20
87.5953984783
 30
0.0
 11
277.4752587908
 21
78.0953984783
 31
0.0
  0
LINE
  5
E8
100
AcDbEntity
  8
3210_17L
390
0
  6
DASHED
100
AcDbLine
 10
49.9752587908
 20
87.5953984783
 30
0.0
 11
272.9752587909
 21
81.5953984783
 31
0.0
  0
LINE
  5
E9
100
AcDbEntity
  8
3210_17R
390
0
  6
DASHED
100
AcDbLine
 10
45.4752587908
 20
93.0953984783
 30
0.0
 11
59.9752587909
 21
101.5953984783
 31
0.0
  0
LINE
  5
EA
100
AcDbEntity
  8
3210_17L
390
0
  6
DASHED
100
AcDbLine
 10
272.9752587909
 20
81.5953984783
 30
0.0
 11
280.9752587908
 21
87.5953984783
 31
0.0
  0
LINE
  5
EB
100
AcDbEntity
  8
3210_17L
390
0
  6
DASHED
100
AcDbLine
 10
41.9752587908
 20
81.5953984783
 30
0.0
 11
49.9752587908
 21
87.5953984783
 31
0.0
  0
LINE
  5
EC
100
AcDbEntity
  8
MITTELLINIEN
390
0
100
AcDbLine
 10
33.4752587908
 20
137.5018468427
 30
0.0
 11
290.4752587908
 21
137.5018468427
 31
0.0
  0
LINE
  5
ED
100
AcDbEntity
  8
MITTELLINIEN
390
0
100
AcDbLine
 10
33.4752587908
 20
63.0953984783
 30
0.0
 11
290.4752587908
 21
63.0953984783
 31
0.0
  0
LINE
  5
EE
100
AcDbEntity
  8
MITTELLINIEN
390
0
100
AcDbLine
 10
45.4752587908
 20
36.3822013423
 30
0.0
 11
45.4752587908
 21
183.1990329049
 31
0.0
  0
LINE
  5
EF
100
AcDbEntity
  8
MITTELLINIEN
390
0
100
AcDbLine
 10
277.4752587908
 20
40.5818653554
 30
0.0
 11
277.4752587908
 21
183.1990329049
 31
0.0
  0
LINE
  5
F0
100
AcDbEntity
  8
MITTELLINIEN
390
0
100
AcDbLine
 10
33.4752587908
 20
122.5018468427
 30
0.0
 11
290.4752587908
 21
122.5018468427
 31
0.0
  0
LINE
  5
F1
100
AcDbEntity
  8
MITTELLINIEN
390
0
100
AcDbLine
 10
33.4752587908
 20
49.2845754921
 30
0.0
 11
290.4752587908
 21
49.2845754921
 31
0.0
  0
TEXT
  5
F2
100
AcDbEntity
  8
BESCHRIFTUNG
390
0
100
AcDbText
 10
19.4997261001
 20
109.9478707574
 30
0.0
 40
3.0
  1
3211.17L,R
 41
0.9188455662
  7
Arial
100
AcDbText
  0
MTEXT
  5
F3
100
AcDbEntity
  8
3211___ HEBELBANK JE
390
0
100
AcDbMText
 10
19.4997261001
 20
142.5768380193
 30
0.0
 40
3.0
 41
0.0
 71
         7
 72
         1
  1
\W0.918846;\L3211.27L,R\P15x15x2
  7
Arial
 73
         1
 44
0.66
  0
MTEXT
  5
F4
100
AcDbEntity
  8
3211___ HEBELBANK JE
390
0
100
AcDbMText
 10
19.4997261001
 20
68.1703896549
 30
0.0
 40
3.0
 41
0.0
 71
         7
 72
         1
  1
\W0.918846;\L3211.17L,R\P15x15x2
  7
Arial
 73
         1
 44
0.66
  0
TEXT
  5
F5
100
AcDbEntity
  8
3210_37R
390
0
100
AcDbText
 10
37.8643180966
 20
169.2009652099
 30
0.0
 40
2.0
  1
@3210.17L
 41
0.9728321719
  7
Arial
 72
         1
 11
45.3690234223
 21
170.2009652099
 31
0.0
100
AcDbText
 73
         2
  0
TEXT
  5
F6
100
AcDbEntity
  8
3210_17R
390
0
100
AcDbText
 10
37.8643180966
 20
93.5037791477
 30
0.0
 40
2.0
  1
@3210.17L
 41
0.9728321719
  7
Arial
 72
         1
 11
45.3690234223
 21
94.5037791477
 31
0.0
100
AcDbText
 73
         2
  0
TEXT
  5
F7
100
AcDbEntity
  8
3211_17R
390
0
100
AcDbText
 10
29.9815786074
 20
63.5037791477
 30
0.0
 40
2.0
  1
@3211.17L
 41
0.972832239
  7
Arial
 72
         1
 11
37.3690234223
 21
64.5037791477
 31
0.0
100
AcDbText
 73
         2
  0
MTEXT
  5
F8
100
AcDbEntity
  8
3211_27L
390
0
100
AcDbMText
 10
36.9726272951
 20
121.4025593462
 30
0.0
 40
2.0
 41
0.0
 71
         5
 72
         1
  1
\W0.972813;M15x15x2 \PT2 O2 F150\PB-0.3    D1.6\PI1.2 P4 U20\P:A?12 :B?3\P:C?12
  7
Arial
 73
         1
 44
0.66
  0
TEXT
  5
F9
100
AcDbEntity
  8
3211_27R
390
0
100
AcDbText
 10
29.7432744623
 20
137.910227512
 30
0.0
 40
2.0
  1
@3211.27L
 41
0.9728321719
  7
Arial
 72
         1
 11
37.3690234223
 21
138.910227512
 31
0.0
100
AcDbText
 73
         2
  0
MTEXT
  5
FA
100
AcDbEntity
  8
3211_17L
390
0
100
AcDbMText
 10
37.3939334749
 20
49.2822527562
 30
0.0
 40
2.0
 41
0.0
 71
         5
 72
         1
  1
\W0.972813;M15x15x2 \PT2 O2 F150\PB-0.3    D1.6\PI1.2 P4 U20\P:A?12 :C?12
  7
Arial
 73
         1
 44
0.66
  0
MTEXT
  5
FB
100
AcDbEntity
  8
3211_17R
390
0
100
AcDbMText
 10
40.9321980278
 20
60.0498108907
 30
0.0
 40
2.0
 41
0.0
 71
         5
 72
         1
  1
\W0.972822;>3210.5=AR\PT2 O2
  7
Arial
 73
         1
 44
0.66
  0
MTEXT
  5
FC
100
AcDbEntity
  8
3211_17L~A
390
0
100
AcDbMText
 10
40.9321980278
 20
46.2389879045
 30
0.0
 40
1.5
 41
0.0
 71
         5
 72
         1
  1
\W0.972916;>3210.5=AL\PT2 O2
  7
Arial
 73
         1
 44
0.66
  0
MTEXT
  5
FD
100
AcDbEntity
  8
3211_17R
390
0
100
AcDbMText
 10
88.0788289003
 20
67.8693139921
 30
0.0
 40
2.0
 41
0.0
 71
         5
 72
         1
  1
\W0.972799;>3210.17R\PT2 O2
  7
Arial
 73
         1
 44
0.66
  0
MTEXT
  5
FE
100
AcDbEntity
  8
3211_17R
390
0
100
AcDbMText
 10
280.9321980278
 20
60.0498108907
 30
0.0
 40
2.0
 41
0.0
 71
         5
 72
         1
  1
\W0.972789;>3210.6=CR\PT2 O2
  7
Arial
 73
         1
 44
0.66
  0
MTEXT
  5
FF
100
AcDbEntity
  8
3211_17L
390
0
100
AcDbMText
 10
280.9321980278
 20
46.2389879045
 30
0.0
 40
2.0
 41
0.0
 71
         5
 72
         1
  1
\W0.972797;>3210.6=CL\PT2 O2
  7
Arial
 73
         1
 44
0.66
  0
MTEXT
  5
100
100
AcDbEntity
  8
3211_17L
390
0
100
AcDbMText
 10
88.0788289003
 20
54.0584910059
 30
0.0
 40
2.0
 41
0.0
 71
         5
 72
         1
  1
\W0.972809;>3210.17L\PT2 O2
  7
Arial
 73
         1
 44
0.66
  0
MTEXT
  5
101
100
AcDbEntity
  8
3211_27R
390
0
100
AcDbMText
 10
40.9321980278
 20
134.4562592551
 30
0.0
 40
2.0
 41
0.0
 71
         5
 72
         1
  1
\W0.972822;>3210.5=AR\PT2 O2
  7
Arial
 73
         1
 44
0.66
  0
MTEXT
  5
102
100
AcDbEntity
  8
3211_27R
390
0
100
AcDbMText
 10
280.9321980278
 20
134.4562592551
 30
0.0
 40
2.0
 41
0.0
 71
         5
 72
         1
  1
\W0.972789;>3210.6=CR\PT2 O2
  7
Arial
 73
         1
 44
0.66
  0
MTEXT
  5
103
100
AcDbEntity
  8
3211_27L
390
0
100
AcDbMText
 10
88.0788289003
 20
127.4317924743
 30
0.0
 40
2.0
 41
0.0
 71
         5
 72
         1
  1
\W0.972831;>3210.=B7L\PT2 O2
  7
Arial
 73
         1
 44
0.66
  0
MTEXT
  5
104
100
AcDbEntity
  8
3211_27L
390
0
100
AcDbMText
 10
280.9321980278
 20
120.6454362688
 30
0.0
 40
2.0
 41
0.0
 71
         5
 72
         1
  1
\W0.972797;>3210.6=CL\PT2 O2
  7
Arial
 73
         1
 44
0.66
  0
MTEXT
  5
105
100
AcDbEntity
  8
3211_27R
390
0
100
AcDbMText
 10
88.0788289003
 20
142.2757623564
 30
0.0
 40
2.0
 41
0.0
 71
         5
 72
         1
  1
\W0.972822;>3210.=B7R\PT2 O2
  7
Arial
 73
         1
 44
0.66
  0
MTEXT
  5
106
100
AcDbEntity
  8
3211_27L~A
390
0
100
AcDbMText
 10
40.9321980278
 20
120.6454362688
 30
0.0
 40
1.5
 41
0.0
 71
         5
 72
         1
  1
\W0.972916;>3210.5=AL\PT2 O2
  7
Arial
 73
         1
 44
0.66
  0
MTEXT
  5
107
100
AcDbEntity
  8
3211___ HEBELBANK JE
390
0
100
AcDbMText
 10
88.0788289003
 20
134.0759322972
 30
0.0
 40
2.0
 41
0.0
 71
         5
 72
         1
  1
\W0.972799;>3211.27R\PT2 O2 M15x15x2\P:A?12 :B?3 :C?12
  7
Arial
 73
         1
 44
0.66
  0
MTEXT
  5
108
100
AcDbEntity
  8
3211___ HEBELBANK JE
390
0
100
AcDbMText
 10
88.0788289003
 20
119.0759322972
 30
0.0
 40
2.0
 41
0.0
 71
         5
 72
         1
  1
\W0.972809;>3211.27L\PT2 O2 M15x15x2\P:A?12 :B?3 :C?12
  7
Arial
 73
         1
 44
0.66
  0
MTEXT
  5
109
100
AcDbEntity
  8
3211___ HEBELBANK JE
390
0
100
AcDbMText
 10
88.0788289003
 20
60.8586609467
 30
0.0
 40
2.0
 41
0.0
 71
         5
 72
         1
  1
\W0.972799;>3211.17R\PT2 O2 M15x15x2\P:A?12 :C?12
  7
Arial
 73
         1
 44
0.66
  0
MTEXT
  5
10A
100
AcDbEntity
  8
3211___ HEBELBANK JE
390
0
100
AcDbMText
 10
88.0788289003
 20
45.8586609467
 30
0.0
 40
2.0
 41
0.0
 71
         5
 72
         1
  1
\W0.972809;>3211.17L\PT2 O2 M15x15x2\P:A?12 :C?12
  7
Arial
 73
         1
 44
0.66
  0
MTEXT
  5
10B
100
AcDbEntity
  8
3210_17L
390
0
100
AcDbMText
 10
45.3690234223
 20
79.2214143676
 30
0.0
 40
2.0
 41
0.0
 71
         5
 72
         1
  1
\W0.972813;M15x15x2 \PT2 O2 F150\PB-0.3    D1.6\PI1.2 P4 U20
  7
Arial
 73
         1
 44
0.66
  0
TEXT
  5
10C
100
AcDbEntity
  8
3210_37L
390
0
100
AcDbText
 10
37.8643180966
 20
154.2009652098
 30
0.0
 40
2.0
  1
@3210.17L
 41
0.9728321719
  7
Arial
 72
         1
 11
45.3690234223
 21
155.2009652098
 31
0.0
100
AcDbText
 73
         2
  0
TEXT
  5
10D
100
AcDbEntity
  8
BESCHRIFTUNG
390
0
  6
DASHDOT
100
AcDbText
 10
10.9321506115
 20
165.8983721934
 30
0.0
 40
5.0
  1
Hinten
 41
1.1350632079
  7
Arial
100
AcDbText
  0
TEXT
  5
10E
100
AcDbEntity
  8
BESCHRIFTUNG
390
0
  6
DASHDOT
100
AcDbText
 10
11.3534567913
 20
90.5261439964
 30
0.0
 40
5.0
  1
Vorne
 41
1.1350803449
  7
Arial
100
AcDbText
  0
ARC
  5
10F
100
AcDbEntity
  8
3210_17R
390
0
  6
DASHED
100
AcDbCircle
 10
175.4752587909
 20
65.2774339647
 30
0.0
 40
39.8904066965
100
AcDbArc
 50
65.566722563
 51
114.433277437
  0
CIRCLE
  5
110
100
AcDbEntity
  8
3210_17R
390
0
100
AcDbCircle
 10
191.9752587909
 20
101.5953984783
 30
0.0
 40
1.5
  0
CIRCLE
  5
111
100
AcDbEntity
  8
3210_17R
390
0
100
AcDbCircle
 10
158.9752587909
 20
101.5953984783
 30
0.0
 40
1.5
  0
LINE
  5
112
100
AcDbEntity
  8
3210_17R
390
0
  6
DASHED
100
AcDbLine
 10
191.9752587909
 20
101.5953984783
 30
0.0
 11
224.9752587909
 21
101.5953984783
 31
0.0
  0
CIRCLE
  5
113
100
AcDbEntity
  8
3210_17R
390
0
100
AcDbCircle
 10
224.9752587909
 20
101.5953984783
 30
0.0
 40
1.5
  0
ARC
  5
114
100
AcDbEntity
  8
3210_17R
390
0
  6
DASHED
100
AcDbCircle
 10
241.4752587909
 20
65.2774339647
 30
0.0
 40
39.8904066965
100
AcDbArc
 50
65.566722563
 51
114.433277437
  0
CIRCLE
  5
115
100
AcDbEntity
  8
3210_37R
390
0
100
AcDbCircle
 10
135.9752587909
 20
181.030839988
 30
0.0
 40
1.75
  0
ARC
  5
116
100
AcDbEntity
  8
3210_37R
390
0
  6
DASHED
100
AcDbCircle
 10
119.4752587909
 20
214.8816816423
 30
0.0
 40
37.65805997
100
AcDbArc
 50
244.0138918415
 51
295.9861081585
  0
CIRCLE
  5
117
100
AcDbEntity
  8
3210_37R
390
0
100
AcDbCircle
 10
102.9752587909
 20
181.030839988
 30
0.0
 40
1.75
  0
CIRCLE
  5
118
100
AcDbEntity
  8
3210_37R
390
0
100
AcDbCircle
 10
69.9752587909
 20
181.030839988
 30
0.0
 40
1.75
  0
LINE
  5
119
100
AcDbEntity
  8
3210_37R
390
0
  6
DASHED
100
AcDbLine
 10
49.9752587908
 20
174.2925845406
 30
0.0
 11
69.9752587909
 21
181.030839988
 31
0.0
  0
LINE
  5
11A
100
AcDbEntity
  8
3210_37R
390
0
  6
DASHED
100
AcDbLine
 10
135.9752587909
 20
181.030839988
 30
0.0
 11
168.9752587909
 21
181.030839988
 31
0.0
  0
LINE
  5
11B
100
AcDbEntity
  8
3210_37R
390
0
  6
DASHED
100
AcDbLine
 10
69.9752587909
 20
181.030839988
 30
0.0
 11
102.9752587909
 21
181.030839988
 31
0.0
  0
LINE
  5
11C
100
AcDbEntity
  8
3210_37R
390
0
  6
DASHED
100
AcDbLine
 10
201.9752587909
 20
181.030839988
 30
0.0
 11
234.9752587909
 21
181.030839988
 31
0.0
  0
CIRCLE
  5
11D
100
AcDbEntity
  8
3210_37R
390
0
100
AcDbCircle
 10
201.9752587909
 20
181.030839988
 30
0.0
 40
1.75
  0
ARC
  5
11E
100
AcDbEntity
  8
3210_37R
390
0
  6
DASHED
100
AcDbCircle
 10
185.4752587909
 20
214.8816816423
 30
0.0
 40
37.65805997
100
AcDbArc
 50
244.0138918415
 51
295.9861081585
  0
CIRCLE
  5
11F
100
AcDbEntity
  8
3210_37R
390
0
100
AcDbCircle
 10
168.9752587909
 20
181.030839988
 30
0.0
 40
1.75
  0
ARC
  5
120
100
AcDbEntity
  8
3210_37R
390
0
  6
DASHED
100
AcDbCircle
 10
251.4752587909
 20
214.8816816423
 30
0.0
 40
37.65805997
100
AcDbArc
 50
244.0138918415
 51
295.9861081585
  0
CIRCLE
  5
121
100
AcDbEntity
  8
3210_37R
390
0
100
AcDbCircle
 10
234.9752587909
 20
181.030839988
 30
0.0
 40
1.75
  0
ARC
  5
122
100
AcDbEntity
  8
3210_37R
390
0
  6
DASHED
100
AcDbCircle
 10
270.4219069389
 20
180.3003749241
 30
0.0
 40
2.5533637363
100
AcDbArc
 50
163.3766127034
 51
359.8251887184
  0
CIRCLE
  5
123
100
AcDbEntity
  8
3210_37R
390
0
100
AcDbCircle
 10
267.9752587909
 20
181.030839988
 30
0.0
 40
1.75
  0
CIRCLE
  5
124
100
AcDbEntity
  8
3210_37L
390
0
100
AcDbCircle
 10
224.9752587909
 20
160.2925845406
 30
0.0
 40
1.5
  0
CIRCLE
  5
125
100
AcDbEntity
  8
3210_37L
390
0
100
AcDbCircle
 10
158.9752587909
 20
160.2925845406
 30
0.0
 40
1.5
  0
LINE
  5
126
100
AcDbEntity
  8
3211 STÄNDER JE
390
0
100
AcDbLine
 10
278.4752587908
 20
164.2925845406
 30
0.0
 11
278.4752587908
 21
153.7925845406
 31
0.0
  0
LINE
  5
127
100
AcDbEntity
  8
3211 STÄNDER JE
390
0
100
AcDbLine
 10
278.4752587908
 20
153.7925845406
 30
0.0
 11
284.4752587908
 21
153.7925845406
 31
0.0
  0
LINE
  5
128
100
AcDbEntity
  8
3210_37L
390
0
  6
DASHED
100
AcDbLine
 10
158.9752587909
 20
160.2925845406
 30
0.0
 11
174.7252587909
 21
153.2895689185
 31
0.0
  0
LINE
  5
129
100
AcDbEntity
  8
3210_37L
390
0
  6
CONTINUOUS
100
AcDbLine
 10
171.9752587909
 20
163.2925845406
 30
0.0
 11
171.9752587909
 21
153.7925845406
 31
0.0
  0
LINE
  5
12A
100
AcDbEntity
  8
3210_37L
390
0
  6
DASHED
100
AcDbLine
 10
191.9752587909
 20
160.2925845406
 30
0.0
 11
177.4752587909
 21
153.7925845406
 31
0.0
  0
LINE
  5
12B
100
AcDbEntity
  8
3211 STÄNDER JE
390
0
100
AcDbLine
 10
203.9752587909
 20
164.2925845406
 30
0.0
 11
203.9752587909
 21
153.7925845406
 31
0.0
  0
LINE
  5
12C
100
AcDbEntity
  8
3211 STÄNDER JE
390
0
100
AcDbLine
 10
269.9752587909
 20
164.2925845406
 30
0.0
 11
278.4752587908
 21
164.2925845406
 31
0.0
  0
LINE
  5
12D
100
AcDbEntity
  8
3210_37L
390
0
  6
CONTINUOUS
100
AcDbLine
 10
171.9752587909
 20
163.2925845406
 30
0.0
 11
177.4752587909
 21
163.2925845406
 31
0.0
  0
LINE
  5
12E
100
AcDbEntity
  8
3210_37L
390
0
  6
CONTINUOUS
100
AcDbLine
 10
177.4752587909
 20
163.2925845406
 30
0.0
 11
177.4752587909
 21
153.7925845406
 31
0.0
  0
LINE
  5
12F
100
AcDbEntity
  8
3211 STÄNDER JE
390
0
100
AcDbLine
 10
170.9752587909
 20
164.2925845406
 30
0.0
 11
178.4752587909
 21
164.2925845406
 31
0.0
  0
LINE
  5
130
100
AcDbEntity
  8
3211 STÄNDER JE
390
0
100
AcDbLine
 10
236.9752587909
 20
164.2925845406
 30
0.0
 11
236.9752587909
 21
153.7925845406
 31
0.0
  0
LINE
  5
131
100
AcDbEntity
  8
3211 STÄNDER JE
390
0
100
AcDbLine
 10
244.4752587909
 20
164.2925845406
 30
0.0
 11
244.4752587909
 21
153.7925845406
 31
0.0
  0
LINE
  5
132
100
AcDbEntity
  8
3211 STÄNDER JE
390
0
100
AcDbLine
 10
236.9752587909
 20
164.2925845406
 30
0.0
 11
244.4752587909
 21
164.2925845406
 31
0.0
  0
LINE
  5
133
100
AcDbEntity
  8
3211 STÄNDER JE
390
0
100
AcDbLine
 10
269.9752587909
 20
164.2925845406
 30
0.0
 11
269.9752587909
 21
153.7925845406
 31
0.0
  0
LINE
  5
134
100
AcDbEntity
  8
3211 STÄNDER JE
390
0
100
AcDbLine
 10
170.9752587909
 20
164.2925845406
 30
0.0
 11
170.9752587909
 21
153.7925845406
 31
0.0
  0
LINE
  5
135
100
AcDbEntity
  8
3211 STÄNDER JE
390
0
100
AcDbLine
 10
178.4752587909
 20
164.2925845406
 30
0.0
 11
178.4752587909
 21
153.7925845406
 31
0.0
  0
LINE
  5
136
100
AcDbEntity
  8
3211 STÄNDER JE
390
0
100
AcDbLine
 10
203.9752587909
 20
164.2925845406
 30
0.0
 11
211.4752587909
 21
164.2925845406
 31
0.0
  0
LINE
  5
137
100
AcDbEntity
  8
3211 STÄNDER JE
390
0
100
AcDbLine
 10
211.4752587909
 20
164.2925845406
 30
0.0
 11
211.4752587909
 21
153.7925845406
 31
0.0
  0
LINE
  5
138
100
AcDbEntity
  8
3211 STÄNDER JE
390
0
100
AcDbLine
 10
178.4752587909
 20
153.7925845406
 30
0.0
 11
203.9752587909
 21
153.7925845406
 31
0.0
  0
LINE
  5
139
100
AcDbEntity
  8
3211 STÄNDER JE
390
0
100
AcDbLine
 10
211.4752587909
 20
153.7925845406
 30
0.0
 11
236.9752587909
 21
153.7925845406
 31
0.0
  0
LINE
  5
13A
100
AcDbEntity
  8
3211 STÄNDER JE
390
0
100
AcDbLine
 10
244.4752587909
 20
153.7925845406
 30
0.0
 11
269.9752587909
 21
153.7925845406
 31
0.0
  0
LINE
  5
13B
100
AcDbEntity
  8
3210_37L
390
0
  6
DASHED
100
AcDbLine
 10
191.9752587909
 20
160.2925845406
 30
0.0
 11
207.7252587909
 21
153.2895689185
 31
0.0
  0
LINE
  5
13C
100
AcDbEntity
  8
3210_37L
390
0
  6
CONTINUOUS
100
AcDbLine
 10
273.7252587909
 20
162.2925845406
 30
0.0
 11
273.7252587909
 21
153.2895689185
 31
0.0
  0
LINE
  5
13D
100
AcDbEntity
  8
3210_37L
390
0
  6
DASHED
100
AcDbLine
 10
257.9752587909
 20
160.2925845406
 30
0.0
 11
273.7252587909
 21
153.2895689185
 31
0.0
  0
LINE
  5
13E
100
AcDbEntity
  8
3210_37L
390
0
  6
CONTINUOUS
100
AcDbLine
 10
240.7252587909
 20
162.2925845406
 30
0.0
 11
240.7252587909
 21
153.2895689185
 31
0.0
  0
LINE
  5
13F
100
AcDbEntity
  8
3210_37L
390
0
  6
CONTINUOUS
100
AcDbLine
 10
207.7252587909
 20
162.2925845406
 30
0.0
 11
207.7252587909
 21
153.2895689185
 31
0.0
  0
LINE
  5
140
100
AcDbEntity
  8
3210_37L
390
0
  6
DASHED
100
AcDbLine
 10
240.7252587909
 20
162.2925845406
 30
0.0
 11
237.9752587909
 21
153.7925845406
 31
0.0
  0
LINE
  5
141
100
AcDbEntity
  8
3210_37L
390
0
  6
CONTINUOUS
100
AcDbLine
 10
237.9752587909
 20
163.2925845406
 30
0.0
 11
243.4752587909
 21
163.2925845406
 31
0.0
  0
LINE
  5
142
100
AcDbEntity
  8
3210_37L
390
0
  6
CONTINUOUS
100
AcDbLine
 10
270.9752587909
 20
163.2925845406
 30
0.0
 11
277.4752587908
 21
163.2925845406
 31
0.0
  0
LINE
  5
143
100
AcDbEntity
  8
3210_37L
390
0
  6
DASHED
100
AcDbLine
 10
224.9752587909
 20
160.2925845406
 30
0.0
 11
210.4752587909
 21
153.7925845406
 31
0.0
  0
LINE
  5
144
100
AcDbEntity
  8
3210_37L
390
0
  6
CONTINUOUS
100
AcDbLine
 10
204.9752587909
 20
163.2925845406
 30
0.0
 11
210.4752587909
 21
163.2925845406
 31
0.0
  0
LINE
  5
145
100
AcDbEntity
  8
3210_37L
390
0
  6
DASHED
100
AcDbLine
 10
257.9752587909
 20
160.2925845406
 30
0.0
 11
243.4752587909
 21
153.7925845406
 31
0.0
  0
LINE
  5
146
100
AcDbEntity
  8
3210_37L
390
0
  6
CONTINUOUS
100
AcDbLine
 10
237.9752587909
 20
163.2925845406
 30
0.0
 11
237.9752587909
 21
153.7925845406
 31
0.0
  0
LINE
  5
147
100
AcDbEntity
  8
3210_37L
390
0
  6
CONTINUOUS
100
AcDbLine
 10
243.4752587909
 20
163.2925845406
 30
0.0
 11
243.4752587909
 21
153.7925845406
 31
0.0
  0
LINE
  5
148
100
AcDbEntity
  8
3210_37L
390
0
  6
CONTINUOUS
100
AcDbLine
 10
210.4752587909
 20
163.2925845406
 30
0.0
 11
210.4752587909
 21
153.7925845406
 31
0.0
  0
LINE
  5
149
100
AcDbEntity
  8
3210_37L
390
0
  6
CONTINUOUS
100
AcDbLine
 10
204.9752587909
 20
163.2925845406
 30
0.0
 11
204.9752587909
 21
153.7925845406
 31
0.0
  0
LINE
  5
14A
100
AcDbEntity
  8
3210_37L
390
0
  6
DASHED
100
AcDbLine
 10
174.7252587909
 20
162.2925845406
 30
0.0
 11
171.9752587909
 21
153.7925845406
 31
0.0
  0
LINE
  5
14B
100
AcDbEntity
  8
3210_37L
390
0
  6
CONTINUOUS
100
AcDbLine
 10
270.9752587909
 20
163.2925845406
 30
0.0
 11
270.9752587909
 21
153.7925845406
 31
0.0
  0
LINE
  5
14C
100
AcDbEntity
  8
3210_37L
390
0
100
AcDbLine
 10
277.4752587908
 20
163.2925845406
 30
0.0
 11
277.4752587908
 21
153.7925845406
 31
0.0
  0
LINE
  5
14D
100
AcDbEntity
  8
3210_37L
390
0
  6
DASHED
100
AcDbLine
 10
273.7252587909
 20
162.2925845406
 30
0.0
 11
270.9752587909
 21
153.7925845406
 31
0.0
  0
LINE
  5
14E
100
AcDbEntity
  8
3210_37L
390
0
  6
DASHED
100
AcDbLine
 10
224.9752587909
 20
160.2925845406
 30
0.0
 11
240.7252587909
 21
153.2895689185
 31
0.0
  0
LINE
  5
14F
100
AcDbEntity
  8
3210_37L
390
0
  6
CONTINUOUS
100
AcDbLine
 10
174.7252587909
 20
162.2925845406
 30
0.0
 11
174.7252587909
 21
153.2895689185
 31
0.0
  0
LINE
  5
150
100
AcDbEntity
  8
3210_37L
390
0
  6
DASHED
100
AcDbLine
 10
207.7252587909
 20
162.2925845406
 30
0.0
 11
204.9752587909
 21
153.7925845406
 31
0.0
  0
CIRCLE
  5
151
100
AcDbEntity
  8
3210_37L
390
0
100
AcDbCircle
 10
191.9752587909
 20
160.2925845406
 30
0.0
 40
1.5
  0
CIRCLE
  5
152
100
AcDbEntity
  8
3210_37L
390
0
100
AcDbCircle
 10
257.9752587909
 20
160.2925845406
 30
0.0
 40
1.5
  0
LINE
  5
153
100
AcDbEntity
  8
3210_37L
390
0
  6
DASHED
100
AcDbLine
 10
75.7252587909
 20
162.2925845406
 30
0.0
 11
72.9752587909
 21
153.7925845406
 31
0.0
  0
LINE
  5
154
100
AcDbEntity
  8
3210_37L
390
0
  6
CONTINUOUS
100
AcDbLine
 10
75.7252587909
 20
162.2925845406
 30
0.0
 11
75.7252587909
 21
153.2895689185
 31
0.0
  0
LINE
  5
155
100
AcDbEntity
  8
3210_37L
390
0
  6
CONTINUOUS
100
AcDbLine
 10
105.9752587909
 20
163.2925845406
 30
0.0
 11
105.9752587909
 21
153.7925845406
 31
0.0
  0
LINE
  5
156
100
AcDbEntity
  8
3210_37L
390
0
  6
CONTINUOUS
100
AcDbLine
 10
144.4752587909
 20
163.2925845406
 30
0.0
 11
144.4752587909
 21
153.7925845406
 31
0.0
  0
LINE
  5
157
100
AcDbEntity
  8
3210_37L
390
0
  6
CONTINUOUS
100
AcDbLine
 10
111.4752587909
 20
163.2925845406
 30
0.0
 11
111.4752587909
 21
153.7925845406
 31
0.0
  0
LINE
  5
158
100
AcDbEntity
  8
3210_37L
390
0
  6
DASHED
100
AcDbLine
 10
108.7252587909
 20
162.2925845406
 30
0.0
 11
105.9752587909
 21
153.7925845406
 31
0.0
  0
LINE
  5
159
100
AcDbEntity
  8
3210_37L
390
0
  6
CONTINUOUS
100
AcDbLine
 10
138.9752587909
 20
163.2925845406
 30
0.0
 11
138.9752587909
 21
153.7925845406
 31
0.0
  0
LINE
  5
15A
100
AcDbEntity
  8
3210_37L
390
0
  6
DASHED
100
AcDbLine
 10
125.9752587909
 20
160.2925845406
 30
0.0
 11
141.7252587909
 21
153.2895689185
 31
0.0
  0
LINE
  5
15B
100
AcDbEntity
  8
3211 STÄNDER JE
390
0
100
AcDbLine
 10
79.4752587909
 20
164.2925845406
 30
0.0
 11
79.4752587909
 21
153.7925845406
 31
0.0
  0
LINE
  5
15C
100
AcDbEntity
  8
3211 STÄNDER JE
390
0
100
AcDbLine
 10
104.9752587909
 20
164.2925845406
 30
0.0
 11
112.4752587909
 21
164.2925845406
 31
0.0
  0
LINE
  5
15D
100
AcDbEntity
  8
3211 STÄNDER JE
390
0
100
AcDbLine
 10
137.9752587909
 20
164.2925845406
 30
0.0
 11
145.4752587909
 21
164.2925845406
 31
0.0
  0
LINE
  5
15E
100
AcDbEntity
  8
3211 STÄNDER JE
390
0
100
AcDbLine
 10
79.4752587909
 20
153.7925845406
 30
0.0
 11
104.9752587909
 21
153.7925845406
 31
0.0
  0
LINE
  5
15F
100
AcDbEntity
  8
3211 STÄNDER JE
390
0
100
AcDbLine
 10
145.4752587909
 20
164.2925845406
 30
0.0
 11
145.4752587909
 21
153.7925845406
 31
0.0
  0
LINE
  5
160
100
AcDbEntity
  8
3211 STÄNDER JE
390
0
100
AcDbLine
 10
112.4752587909
 20
153.7925845406
 30
0.0
 11
137.9752587909
 21
153.7925845406
 31
0.0
  0
LINE
  5
161
100
AcDbEntity
  8
3211 STÄNDER JE
390
0
100
AcDbLine
 10
112.4752587909
 20
164.2925845406
 30
0.0
 11
112.4752587909
 21
153.7925845406
 31
0.0
  0
LINE
  5
162
100
AcDbEntity
  8
3211 STÄNDER JE
390
0
100
AcDbLine
 10
71.9752587909
 20
164.2925845406
 30
0.0
 11
71.9752587909
 21
153.7925845406
 31
0.0
  0
LINE
  5
163
100
AcDbEntity
  8
3210_37L
390
0
  6
DASHED
100
AcDbLine
 10
92.9752587909
 20
160.2925845406
 30
0.0
 11
108.7252587909
 21
153.2895689185
 31
0.0
  0
LINE
  5
164
100
AcDbEntity
  8
3211 STÄNDER JE
390
0
100
AcDbLine
 10
145.4752587909
 20
153.7925845406
 30
0.0
 11
170.9752587909
 21
153.7925845406
 31
0.0
  0
LINE
  5
165
100
AcDbEntity
  8
3211 STÄNDER JE
390
0
100
AcDbLine
 10
71.9752587909
 20
164.2925845406
 30
0.0
 11
79.4752587909
 21
164.2925845406
 31
0.0
  0
LINE
  5
166
100
AcDbEntity
  8
3210_37L
390
0
  6
CONTINUOUS
100
AcDbLine
 10
105.9752587909
 20
163.2925845406
 30
0.0
 11
111.4752587909
 21
163.2925845406
 31
0.0
  0
LINE
  5
167
100
AcDbEntity
  8
3210_37L
390
0
  6
DASHED
100
AcDbLine
 10
158.9752587909
 20
160.2925845406
 30
0.0
 11
144.4752587909
 21
153.7925845406
 31
0.0
  0
LINE
  5
168
100
AcDbEntity
  8
3210_37L
390
0
  6
CONTINUOUS
100
AcDbLine
 10
141.7252587909
 20
162.2925845406
 30
0.0
 11
141.7252587909
 21
153.2895689185
 31
0.0
  0
LINE
  5
169
100
AcDbEntity
  8
3210_37L
390
0
  6
DASHED
100
AcDbLine
 10
141.7252587909
 20
162.2925845406
 30
0.0
 11
138.9752587909
 21
153.7925845406
 31
0.0
  0
LINE
  5
16A
100
AcDbEntity
  8
3210_37L
390
0
  6
CONTINUOUS
100
AcDbLine
 10
138.9752587909
 20
163.2925845406
 30
0.0
 11
144.4752587909
 21
163.2925845406
 31
0.0
  0
LINE
  5
16B
100
AcDbEntity
  8
3210_37L
390
0
  6
CONTINUOUS
100
AcDbLine
 10
108.7252587909
 20
162.2925845406
 30
0.0
 11
108.7252587909
 21
153.2895689185
 31
0.0
  0
LINE
  5
16C
100
AcDbEntity
  8
3210_37L
390
0
  6
DASHED
100
AcDbLine
 10
125.9752587909
 20
160.2925845406
 30
0.0
 11
111.4752587909
 21
153.7925845406
 31
0.0
  0
CIRCLE
  5
16D
100
AcDbEntity
  8
3210_37L
390
0
100
AcDbCircle
 10
92.9752587909
 20
160.2925845406
 30
0.0
 40
1.5
  0
CIRCLE
  5
16E
100
AcDbEntity
  8
3210_37L
390
0
100
AcDbCircle
 10
125.9752587909
 20
160.2925845406
 30
0.0
 40
1.5
  0
LINE
  5
16F
100
AcDbEntity
  8
3211 STÄNDER JE
390
0
100
AcDbLine
 10
137.9752587909
 20
164.2925845406
 30
0.0
 11
137.9752587909
 21
153.7925845406
 31
0.0
  0
LINE
  5
170
100
AcDbEntity
  8
3210_37L
390
0
  6
DASHED
100
AcDbLine
 10
59.9752587909
 20
160.2925845406
 30
0.0
 11
75.7252587909
 21
153.2895689185
 31
0.0
  0
LINE
  5
171
100
AcDbEntity
  8
3210_37L
390
0
  6
CONTINUOUS
100
AcDbLine
 10
72.9752587909
 20
163.2925845406
 30
0.0
 11
72.9752587909
 21
153.7925845406
 31
0.0
  0
LINE
  5
172
100
AcDbEntity
  8
3210_37L
390
0
  6
DASHED
100
AcDbLine
 10
92.9752587909
 20
160.2925845406
 30
0.0
 11
78.4752587909
 21
153.7925845406
 31
0.0
  0
LINE
  5
173
100
AcDbEntity
  8
3210_37L
390
0
  6
CONTINUOUS
100
AcDbLine
 10
72.9752587909
 20
163.2925845406
 30
0.0
 11
78.4752587909
 21
163.2925845406
 31
0.0
  0
LINE
  5
174
100
AcDbEntity
  8
3210_37L
390
0
  6
CONTINUOUS
100
AcDbLine
 10
78.4752587909
 20
163.2925845406
 30
0.0
 11
78.4752587909
 21
153.7925845406
 31
0.0
  0
LINE
  5
175
100
AcDbEntity
  8
3211 STÄNDER JE
390
0
100
AcDbLine
 10
104.9752587909
 20
164.2925845406
 30
0.0
 11
104.9752587909
 21
153.7925845406
 31
0.0
  0
LINE
  5
176
100
AcDbEntity
  8
3211 STÄNDER JE
390
0
100
AcDbLine
 10
38.4752587908
 20
153.7925845406
 30
0.0
 11
71.9752587909
 21
153.7925845406
 31
0.0
  0
LINE
  5
177
100
AcDbEntity
  8
STANDARD
390
0
100
AcDbLine
 10
292.0
 20
200.0
 30
0.0
 11
5.0
 21
200.0
 31
0.0
  0
LINE
  5
178
100
AcDbEntity
  8
STANDARD
390
0
100
AcDbLine
 10
10.0
 20
195.0
 30
0.0
 11
10.0
 21
5.0
 31
0.0
  0
LINE
  5
179
100
AcDbEntity
  8
STANDARD
390
0
100
AcDbLine
 10
5.0
 20
200.0
 30
0.0
 11
5.0
 21
195.0
 31
0.0
  0
LINE
  5
17A
100
AcDbEntity
  8
STANDARD
390
0
100
AcDbLine
 10
292.0
 20
200.0
 30
0.0
 11
292.0
 21
195.0
 31
0.0
  0
LINE
  5
17B
100
AcDbEntity
  8
STANDARD
390
0
100
AcDbLine
 10
52.8333333333
 20
200.0
 30
0.0
 11
52.8333333333
 21
195.0
 31
0.0
  0
LINE
  5
17C
100
AcDbEntity
  8
STANDARD
390
0
100
AcDbLine
 10
100.6666666667
 20
200.0
 30
0.0
 11
100.6666666667
 21
195.0
 31
0.0
  0
LINE
  5
17D
100
AcDbEntity
  8
STANDARD
390
0
100
AcDbLine
 10
148.5
 20
200.0
 30
0.0
 11
148.5
 21
195.0
 31
0.0
  0
LINE
  5
17E
100
AcDbEntity
  8
STANDARD
390
0
100
AcDbLine
 10
196.3333333333
 20
200.0
 30
0.0
 11
196.3333333333
 21
195.0
 31
0.0
  0
LINE
  5
17F
100
AcDbEntity
  8
STANDARD
390
0
100
AcDbLine
 10
244.1666666667
 20
200.0
 30
0.0
 11
244.1666666667
 21
195.0
 31
0.0
  0
LINE
  5
180
100
AcDbEntity
  8
STANDARD
390
0
100
AcDbLine
 10
5.0
 20
52.5
 30
0.0
 11
10.0
 21
52.5
 31
0.0
  0
LINE
  5
181
100
AcDbEntity
  8
STANDARD
390
0
100
AcDbLine
 10
5.0
 20
100.0
 30
0.0
 11
10.0
 21
100.0
 31
0.0
  0
LINE
  5
182
100
AcDbEntity
  8
STANDARD
390
0
100
AcDbLine
 10
5.0
 20
147.5
 30
0.0
 11
10.0
 21
147.5
 31
0.0
  0
TEXT
  5
183
100
AcDbEntity
  8
STANDARD
390
0
100
AcDbText
 10
27.6214908115
 20
196.4732039063
 30
0.0
 40
2.23125
  1
1
 41
1.5479225906
  7
Arial
 72
         1
 11
28.9166666667
 21
196.4732039063
 31
0.0
100
AcDbText
  0
TEXT
  5
184
100
AcDbEntity
  8
STANDARD
390
0
100
AcDbText
 10
75.0230999712
 20
196.4732039063
 30
0.0
 40
2.23125
  1
2
 41
1.5479215945
  7
Arial
 72
         1
 11
76.75
 21
196.4732039063
 31
0.0
100
AcDbText
  0
TEXT
  5
185
100
AcDbEntity
  8
STANDARD
390
0
100
AcDbText
 10
122.8564319709
 20
196.4732039063
 30
0.0
 40
2.23125
  1
3
 41
1.5479227899
  7
Arial
 72
         1
 11
124.5833333333
 21
196.4732039063
 31
0.0
100
AcDbText
  0
TEXT
  5
186
100
AcDbEntity
  8
STANDARD
390
0
100
AcDbText
 10
170.6897655265
 20
196.4732039063
 30
0.0
 40
2.23125
  1
4
 41
1.5479225906
  7
Arial
 72
         1
 11
172.4166666667
 21
196.4732039063
 31
0.0
100
AcDbText
  0
TEXT
  5
187
100
AcDbEntity
  8
STANDARD
390
0
100
AcDbText
 10
218.5230997489
 20
196.4732039063
 30
0.0
 40
2.23125
  1
5
 41
1.5479217937
  7
Arial
 72
         1
 11
220.25
 21
196.4732039063
 31
0.0
100
AcDbText
  0
TEXT
  5
188
100
AcDbEntity
  8
STANDARD
390
0
100
AcDbText
 10
266.3564321932
 20
196.4732039063
 30
0.0
 40
2.23125
  1
6
 41
1.5479225906
  7
Arial
 72
         1
 11
268.0833333333
 21
196.4732039063
 31
0.0
100
AcDbText
  0
TEXT
  5
189
100
AcDbEntity
  8
STANDARD
390
0
100
AcDbText
 10
5.773027185
 20
172.7232039063
 30
0.0
 40
2.23125
  1
A
 41
1.547986837
  7
Arial
 72
         1
 11
7.5
 21
172.7232039063
 31
0.0
100
AcDbText
  0
TEXT
  5
18A
100
AcDbEntity
  8
STANDARD
390
0
100
AcDbText
 10
5.7730267401
 20
125.2232039063
 30
0.0
 40
2.23125
  1
B
 41
1.5479872357
  7
Arial
 72
         1
 11
7.5
 21
125.2232039063
 31
0.0
100
AcDbText
  0
TEXT
  5
18B
100
AcDbEntity
  8
STANDARD
390
0
100
AcDbText
 10
5.7728972752
 20
77.7232039063
 30
0.0
 40
2.23125
  1
C
 41
1.5481032827
  7
Arial
 72
         1
 11
7.5
 21
77.7232039063
 31
0.0
100
AcDbText
  0
TEXT
  5
18C
100
AcDbEntity
  8
STANDARD
390
0
100
AcDbText
 10
5.7728964192
 20
30.2232039062
 30
0.0
 40
2.23125
  1
D
 41
1.54810405
  7
Arial
 72
         1
 11
7.5
 21
30.2232039062
 31
0.0
100
AcDbText
  0
LINE
  5
18D
100
AcDbEntity
  8
STANDARD
390
0
100
AcDbLine
 10
5.0
 20
5.0
 30
0.0
 11
10.0
 21
5.0
 31
0.0
  0
LINE
  5
18E
100
AcDbEntity
  8
STANDARD
390
0
100
AcDbLine
 10
292.0
 20
5.0
 30
0.0
 11
292.0
 21
195.0
 31
0.0
  0
LINE
  5
18F
100
AcDbEntity
  8
STANDARD
390
0
100
AcDbLine
 10
292.0
 20
195.0
 30
0.0
 11
10.0
 21
195.0
 31
0.0
  0
LINE
  5
190
100
AcDbEntity
  8
STANDARD
390
0
100
AcDbLine
 10
5.0
 20
195.0
 30
0.0
 11
5.0
 21
5.0
 31
0.0
  0
LINE
  5
191
100
AcDbEntity
  8
STANDARD
390
0
100
AcDbLine
 10
296.0
 20
209.0
 30
0.0
 11
1.0
 21
209.0
 31
0.0
  0
LINE
  5
192
100
AcDbEntity
  8
STANDARD
390
0
100
AcDbLine
 10
296.0
 20
1.0
 30
0.0
 11
296.0
 21
209.0
 31
0.0
  0
LINE
  5
193
100
AcDbEntity
  8
STANDARD
390
0
100
AcDbLine
 10
1.0
 20
1.0
 30
0.0
 11
296.0
 21
1.0
 31
0.0
  0
LINE
  5
194
100
AcDbEntity
  8
STANDARD
390
0
100
AcDbLine
 10
1.0
 20
209.0
 30
0.0
 11
1.0
 21
1.0
 31
0.0
  0
LINE
  5
195
100
AcDbEntity
  8
STANDARD
390
0
100
AcDbLine
 10
10.0
 20
195.0
 30
0.0
 11
5.0
 21
195.0
 31
0.0
  0
LINE
  5
196
100
AcDbEntity
  8
STANDARD
390
0
100
AcDbLine
 10
10.0
 20
5.0
 30
0.0
 11
292.0
 21
5.0
 31
0.0
  0
MTEXT
  5
197
100
AcDbEntity
  8
STANDARD
390
0
100
AcDbMText
 10
215.5777227339
 20
6.520569157
 30
0.0
 40
1.59375
 41
0.0
 71
         7
 72
         1
  1

  7
Arial
 73
         1
 44
1.0352941176
  0
MTEXT
  5
198
100
AcDbEntity
  8
STANDARD
390
0
100
AcDbMText
 10
269.4128856935
 20
6.5165742187
 30
0.0
 40
1.59375
 41
0.0
 71
         7
 72
         1
  1

  7
Arial
 73
         1
 44
1.0352941176
  0
MTEXT
  5
199
100
AcDbEntity
  8
STANDARD
390
0
100
AcDbMText
 10
171.2439051502
 20
6.520569157
 30
0.0
 40
1.59375
 41
0.0
 71
         7
 72
         1
  1

  7
Arial
 73
         1
 44
1.0352941176
  0
TEXT
  5
19A
100
AcDbEntity
  8
BESCHRIFTUNG
390
0
100
AcDbText
 10
169.1145333333
 20
29.1386
 30
0.0
 40
3.3
  1
Stellwerk HMM
 41
1.3758039542
 51
15.0
  7
Arial
 11
169.1145333333
 21
32.4386
 31
0.0
100
AcDbText
 73
         3
  0
TEXT
  5
19B
100
AcDbEntity
  8
BESCHRIFTUNG
390
0
100
AcDbText
 10
215.5344888889
 20
21.6601111111
 30
0.0
 40
3.3
  1
Hebelbank JE Habelbankträger L=7
 41
1.03183872
 51
15.0
  7
Arial
 11
215.5344888889
 21
24.9601111111
 31
0.0
100
AcDbText
 73
         3
  0
TEXT
  5
19C
100
AcDbEntity
  8
BESCHRIFTUNG
390
0
100
AcDbText
 10
169.1145333333
 20
6.9230888889
 30
0.0
 40
3.3
  1
Dateiname
 41
1.1437088374
 51
15.0
  7
Arial
 11
169.1145333333
 21
10.2230888889
 31
0.0
100
AcDbText
 73
         3
  0
TEXT
  5
19D
100
AcDbEntity
  8
BESCHRIFTUNG
390
0
100
AcDbText
 10
169.3344888889
 20
21.6601111111
 30
0.0
 40
3.3
  1
Bl. 3211 P.4h
 41
1.1437204062
 51
15.0
  7
Arial
 11
169.3344888889
 21
24.9601111111
 31
0.0
100
AcDbText
 73
         3
  0
TEXT
  5
19E
100
AcDbEntity
  8
BESCHRIFTUNG
390
0
100
AcDbText
 10
253.1145333333
 20
29.1386
 30
0.0
 40
3.3
  1
Maßstab 1:1
 41
1.1437192123
 51
15.0
  7
Arial
 11
253.1145333333
 21
32.4386
 31
0.0
100
AcDbText
 73
         3
  0
LINE
  5
19F
100
AcDbEntity
  8
STANDARD
370
         0
390
0
100
AcDbLine
 10
214.2194301994
 20
34.4
 30
0.0
 11
214.2194301994
 21
5.0
 31
0.0
  0
LINE
  5
1A0
100
AcDbEntity
  8
STANDARD
370
         0
390
0
100
AcDbLine
 10
168.0194301994
 20
34.4
 30
0.0
 11
291.9134472934
 21
34.4
 31
0.0
  0
LINE
  5
1A1
100
AcDbEntity
  8
STANDARD
370
         0
390
0
100
AcDbLine
 10
168.0194301994
 20
27.4
 30
0.0
 11
291.9134472934
 21
27.4
 31
0.0
  0
LINE
  5
1A2
100
AcDbEntity
  8
STANDARD
370
         0
390
0
100
AcDbLine
 10
168.0194301994
 20
12.0
 30
0.0
 11
291.9134472934
 21
12.0
 31
0.0
  0
LINE
  5
1A3
100
AcDbEntity
  8
STANDARD
370
         0
390
0
100
AcDbLine
 10
168.0194301994
 20
34.4
 30
0.0
 11
168.0194301994
 21
5.0
 31
0.0
  0
LINE
  5
1A4
100
AcDbEntity
  8
STANDARD
370
         0
390
0
100
AcDbLine
 10
252.0194301994
 20
34.4
 30
0.0
 11
252.0194301994
 21
27.4
 31
0.0
  0
ENDSEC
  0
SECTION
  2
OBJECTS
  0
DICTIONARY
  5
19
100
AcDbDictionary
280
         0
281
         1
  3
ACAD_GROUP
350
1A
  3
ACAD_MLINESTYLE
350
1B
  3
ACAD_LAYOUT
350
1E
  3
ACAD_PLOTSETTINGS
350
22
  3
ACAD_PLOTSTYLENAME
350
1F
  3
ACAD_WIPEOUT_VARS
350
23
  0
DICTIONARY
  5
1A
102
{ACAD_REACTORS
330
19
102
}
100
AcDbDictionary
280
         0
281
         1
  0
DICTIONARY
  5
1B
102
{ACAD_REACTORS
330
19
102
}
100
AcDbDictionary
280
         0
281
         1
  3
Standard
350
1C
  0
MLINESTYLE
  5
1C
102
{ACAD_REACTORS
330
1B
102
}
100
AcDbMlineStyle
  2
Standard
 70
         0
  3

 62
         0
 51
90.0
 52
90.0
 71
         2
 49
0.5
 62
       256
  6
ByLayer
 49
-0.5
 62
       256
  6
ByLayer
  0
ACDBDICTIONARYWDFLT
  5
1F
102
{ACAD_REACTORS
330
19
102
}
100
AcDbDictionary
281
         1
  3
Normal
350
1D
100
AcDbDictionaryWithDefault
340
1D
  0
ACDBPLACEHOLDER
  5
1D
102
{ACAD_REACTORS
330
1F
102
}
  0
LAYOUT
  5
20
102
{ACAD_REACTORS
330
1E
102
}
100
AcDbPlotSettings
  1

  2

  4

  6

 40
0.0
 41
0.0
 42
0.0
 43
0.0
 44
0.0
 45
0.0
 46
0.0
 47
0.0
 48
0.0
 49
0.0
140
0.0
141
0.0
142
1.0
143
1.0
 70
      1024
 72
         0
 73
         0
 74
         0
  7

 75
         0
147
1.0
148
0.0
149
0.0
100
AcDbLayout
  1
Model
 70
         0
 71
         0
 10
0.0
 20
0.0
 11
0.0
 21
0.0
 12
0.0
 22
0.0
 32
0.0
 14
0.0
 24
0.0
 34
0.0
 15
0.0
 25
0.0
 35
0.0
146
0.0
 13
0.0
 23
0.0
 33
0.0
 16
0.0
 26
0.0
 36
0.0
 17
0.0
 27
0.0
 37
0.0
 76
         0
330
A
331
0
345
0
346
0
  0
LAYOUT
  5
21
102
{ACAD_REACTORS
330
1E
102
}
100
AcDbPlotSettings
  1

  2

  4

  6

 40
0.0
 41
0.0
 42
0.0
 43
0.0
 44
0.0
 45
0.0
 46
0.0
 47
0.0
 48
0.0
 49
0.0
140
0.0
141
0.0
142
1.0
143
1.0
 70
         0
 72
         0
 73
         0
 74
         0
  7

 75
         0
147
1.0
148
0.0
149
0.0
100
AcDbLayout
  1
Layout1
 70
         0
 71
         0
 10
0.0
 20
0.0
 11
0.0
 21
0.0
 12
0.0
 22
0.0
 32
0.0
 14
0.0
 24
0.0
 34
0.0
 15
0.0
 25
0.0
 35
0.0
146
0.0
 13
0.0
 23
0.0
 33
0.0
 16
0.0
 26
0.0
 36
0.0
 17
0.0
 27
0.0
 37
0.0
 76
         0
330
B
331
0
345
0
346
0
  0
DICTIONARY
  5
1E
102
{ACAD_REACTORS
330
19
102
}
100
AcDbDictionary
280
         0
281
         1
  3
Layout1
350
21
  3
Model
350
20
  0
DICTIONARY
  5
22
102
{ACAD_REACTORS
330
19
102
}
100
AcDbDictionary
280
         0
281
         1
  0
WIPEOUTVARIABLES
  5
23
100
AcDbWipeoutVariables
 70
         1
  0
ENDSEC
  0
EOF
