  0
SECTION
  2
HEADER
  9
$ACADVER
  1
AC1015
  9
$ACADMAINTVER
 70
         6
  9
$DWGCODEPAGE
  3
ANSI_1252
  9
$INSBASE
 10
0.0
 20
0.0
 30
0.0
  9
$EXTMIN
 10
0.0
 20
0.0
 30
0.0
  9
$EXTMAX
 10
297.0
 20
210.0
 30
0.0
  9
$LIMMIN
 10
0.0
 20
0.0
  9
$LIMMAX
 10
297.0
 20
210.0
  9
$ORTHOMODE
 70
         0
  9
$REGENMODE
 70
         1
  9
$FILLMODE
 70
         1
  9
$QTEXTMODE
 70
         0
  9
$MIRRTEXT
 70
         1
  9
$LTSCALE
 40
7.425
  9
$ATTMODE
 70
         1
  9
$TEXTSIZE
 40
0.2
  9
$TRACEWID
 40
0.05
  9
$TEXTSTYLE
  7
Standard
  9
$CLAYER
  8
0
  9
$CELTYPE
  6
CONTINUOUS
  9
$CECOLOR
 62
       256
  9
$CELTSCALE
 40
1.0
  9
$DISPSILH
 70
         0
  9
$DIMSCALE
 40
1.0
  9
$DIMASZ
 40
0.18
  9
$DIMEXO
 40
0.0625
  9
$DIMDLI
 40
0.38
  9
$DIMRND
 40
0.0
  9
$DIMDLE
 40
0.0
  9
$DIMEXE
 40
0.18
  9
$DIMTP
 40
0.0
  9
$DIMTM
 40
0.0
  9
$DIMTXT
 40
3.0
  9
$DIMCEN
 40
0.09
  9
$DIMTSZ
 40
0.0
  9
$DIMTOL
 70
         0
  9
$DIMLIM
 70
         0
  9
$DIMTIH
 70
         1
  9
$DIMTOH
 70
         1
  9
$DIMSE1
 70
         0
  9
$DIMSE2
 70
         0
  9
$DIMTAD
 70
         1
  9
$DIMZIN
 70
         0
  9
$DIMBLK
  1

  9
$DIMASO
 70
         1
  9
$DIMSHO
 70
         1
  9
$DIMPOST
  1
<>
  9
$DIMAPOST
  1

  9
$DIMALT
 70
         0
  9
$DIMALTD
 70
         2
  9
$DIMALTF
 40
25.4
  9
$DIMLFAC
 40
1.0
  9
$DIMTOFL
 70
         0
  9
$DIMTVP
 40
0.0
  9
$DIMTIX
 70
         0
  9
$DIMSOXD
 70
         0
  9
$DIMSAH
 70
         0
  9
$DIMBLK1
  1

  9
$DIMBLK2
  1

  9
$DIMSTYLE
  2
Standard
  9
$DIMCLRD
 70
         0
  9
$DIMCLRE
 70
         0
  9
$DIMCLRT
 70
         0
  9
$DIMTFAC
 40
1.0
  9
$DIMGAP
 40
0.09
  9
$DIMJUST
 70
         0
  9
$DIMSD1
 70
         0
  9
$DIMSD2
 70
         0
  9
$DIMTOLJ
 70
         1
  9
$DIMTZIN
 70
         0
  9
$DIMALTZ
 70
         0
  9
$DIMALTTZ
 70
         0
  9
$DIMUPT
 70
         0
  9
$DIMDEC
 70
         4
  9
$DIMTDEC
 70
         4
  9
$DIMALTU
 70
         2
  9
$DIMALTTD
 70
         2
  9
$DIMTXSTY
  7
Standard
  9
$DIMAUNIT
 70
         0
  9
$DIMADEC
 70
         0
  9
$DIMALTRND
 40
0.0
  9
$DIMAZIN
 70
         0
  9
$DIMDSEP
 70
         0
  9
$DIMATFIT
 70
         3
  9
$DIMFRAC
 70
         0
  9
$DIMLDRBLK
  1

  9
$DIMLUNIT
 70
         2
  9
$DIMLWD
 70
         0
  9
$DIMLWE
 70
         0
  9
$DIMTMOVE
 70
         0
  9
$LUNITS
 70
         2
  9
$LUPREC
 70
         4
  9
$SKETCHINC
 40
0.1
  9
$FILLETRAD
 40
0.0
  9
$AUNITS
 70
         0
  9
$AUPREC
 70
         0
  9
$MENU
  1
acad
  9
$ELEVATION
 40
0.0
  9
$PELEVATION
 40
0.0
  9
$THICKNESS
 40
0.0
  9
$LIMCHECK
 70
         0
  9
$CHAMFERA
 40
0.0
  9
$CHAMFERB
 40
0.0
  9
$CHAMFERC
 40
0.0
  9
$CHAMFERD
 40
0.0
  9
$SKPOLY
 70
         0
  9
$TDCREATE
 40
0.000000000
  9
$TDUCREATE
 40
0.000000000
  9
$TDUPDATE
 40
0.000000000
  9
$TDUUPDATE
 40
0.000000000
  9
$TDINDWG
 40
0.0000000000
  9
$TDUSRTIMER
 40
0.0000000000
  9
$USRTIMER
 70
         1
  9
$ANGBASE
 50
0.0
  9
$ANGDIR
 70
         0
  9
$PDMODE
 70
         0
  9
$PDSIZE
 40
0.0
  9
$PLINEWID
 40
0.0
  9
$SPLFRAME
 70
         0
  9
$SPLINETYPE
 70
         6
  9
$SPLINESEGS
 70
         8
  9
$HANDSEED
  5
23F
  9
$SURFTAB1
 70
         6
  9
$SURFTAB2
 70
         6
  9
$SURFTYPE
 70
         6
  9
$SURFU
 70
         6
  9
$SURFV
 70
         6
  9
$UCSBASE
  2

  9
$UCSNAME
  2

  9
$UCSORG
 10
0.0
 20
0.0
 30
0.0
  9
$UCSXDIR
 10
1.0
 20
0.0
 30
0.0
  9
$UCSYDIR
 10
0.0
 20
1.0
 30
0.0
  9
$UCSORTHOREF
  2

  9
$UCSORTHOVIEW
 70
         0
  9
$UCSORGTOP
 10
0.0
 20
0.0
 30
0.0
  9
$UCSORGBOTTOM
 10
0.0
 20
0.0
 30
0.0
  9
$UCSORGLEFT
 10
0.0
 20
0.0
 30
0.0
  9
$UCSORGRIGHT
 10
0.0
 20
0.0
 30
0.0
  9
$UCSORGFRONT
 10
0.0
 20
0.0
 30
0.0
  9
$UCSORGBACK
 10
0.0
 20
0.0
 30
0.0
  9
$PUCSBASE
  2

  9
$PUCSNAME
  2

  9
$PUCSORG
 10
0.0
 20
0.0
 30
0.0
  9
$PUCSXDIR
 10
1.0
 20
0.0
 30
0.0
  9
$PUCSYDIR
 10
0.0
 20
1.0
 30
0.0
  9
$PUCSORTHOREF
  2

  9
$PUCSORTHOVIEW
 70
         0
  9
$PUCSORGTOP
 10
0.0
 20
0.0
 30
0.0
  9
$PUCSORGBOTTOM
 10
0.0
 20
0.0
 30
0.0
  9
$PUCSORGLEFT
 10
0.0
 20
0.0
 30
0.0
  9
$PUCSORGRIGHT
 10
0.0
 20
0.0
 30
0.0
  9
$PUCSORGFRONT
 10
0.0
 20
0.0
 30
0.0
  9
$PUCSORGBACK
 10
0.0
 20
0.0
 30
0.0
  9
$USERI1
 70
         0
  9
$USERI2
 70
         0
  9
$USERI3
 70
         0
  9
$USERI4
 70
         0
  9
$USERI5
 70
         0
  9
$USERR1
 40
0.0
  9
$USERR2
 40
0.0
  9
$USERR3
 40
0.0
  9
$USERR4
 40
0.0
  9
$USERR5
 40
0.0
  9
$WORLDVIEW
 70
         1
  9
$SHADEDGE
 70
         3
  9
$SHADEDIF
 70
        70
  9
$TILEMODE
 70
         1
  9
$MAXACTVP
 70
        16
  9
$PINSBASE
 10
0.0
 20
0.0
 30
0.0
  9
$PLIMCHECK
 70
         0
  9
$PEXTMIN
 10
1.0000000000E+20
 20
1.0000000000E+20
 30
1.0000000000E+20
  9
$PEXTMAX
 10
-1.0000000000E+20
 20
-1.0000000000E+20
 30
-1.0000000000E+20
  9
$PLIMMIN
 10
0.0
 20
0.0
  9
$PLIMMAX
 10
12.0
 20
9.0
  9
$UNITMODE
 70
         0
  9
$VISRETAIN
 70
         0
  9
$PLINEGEN
 70
         1
  9
$PSLTSCALE
 70
         0
  9
$TREEDEPTH
 70
      3020
  9
$CMLSTYLE
  2
Standard
  9
$CMLJUST
 70
         0
  9
$CMLSCALE
 40
1.0
  9
$PROXYGRAPHICS
 70
         0
  9
$MEASUREMENT
 70
         1
  9
$CELWEIGHT
370
         0
  9
$ENDCAPS
280
         0
  9
$JOINSTYLE
280
         0
  9
$LWDISPLAY
290
         0
  9
$INSUNITS
 70
         0
  9
$HYPERLINKBASE
  1

  9
$STYLESHEET
  1

  9
$XEDIT
290
         1
  9
$CEPSNTYPE
380
         0
  9
$PSTYLEMODE
290
         1
  9
$FINGERPRINTGUID
  2

  9
$VERSIONGUID
  2

  9
$EXTNAMES
290
         1
  9
$PSVPSCALE
 40
0.0
  0
ENDSEC
  0
SECTION
  2
CLASSES
  0
CLASS
  1
LWPOLYLINE
  2
AcDbPolyline
  3
AutoCAD 2000
 90
        0
280
         0
281
         1
  0
CLASS
  1
IMAGE
  2
AcDbRasterImage
  3
ISM
 90
      127
280
         0
281
         1
  0
CLASS
  1
OLE2FRAME
  2
AcDbOle2Frame
  3
AutoCAD 2000
 90
        0
280
         0
281
         1
  0
CLASS
  1
HATCH
  2
AcDbHatch
  3
AutoCAD 2000
 90
        0
280
         0
281
         1
  0
CLASS
  1
DICTIONARYVAR
  2
AcDbDictionaryVar
  3
AutoCAD 2000
 90
        0
280
         0
281
         0
  0
CLASS
  1
RASTERVARIABLES
  2
AcDbRasterVariables
  3
ISM
 90
        0
280
         0
281
         0
  0
CLASS
  1
IMAGEDEF
  2
AcDbRasterImageDef
  3
ISM
 90
        0
280
         0
281
         0
  0
CLASS
  1
IMAGEDEF_REACTOR
  2
AcDbRasterImageDefReactor
  3
ISM
 90
        1
280
         0
281
         0
  0
CLASS
  1
IDBUFFER
  2
AcDbIdBuffer
  3
AutoCAD 2000
 90
        0
280
         0
281
         0
  0
CLASS
  1
SPATIAL_FILTER
  2
AcDbSpatialFilter
  3
AutoCAD 2000
 90
        0
280
         0
281
         0
  0
CLASS
  1
XRECORD
  2
AcDbXrecord
  3
AutoCAD 2000
 90
        0
280
         0
281
         0
  0
CLASS
  1
SORTENTSTABLE
  2
AcDbSortentsTable
  3
AutoCAD 2000
 90
        0
280
         0
281
         0
  0
CLASS
  1
LAYER_INDEX
  2
AcDbLayerIndex
  3
AutoCAD 2000
 90
        0
280
         0
281
         0
  0
CLASS
  1
SPATIAL_INDEX
  2
AcDbSpatialIndex
  3
AutoCAD 2000
 90
        0
280
         0
281
         0
  0
CLASS
  1
OBJECT_PTR
  2
CAseDLPNTableRecord
  3
"ASE-LPNTableRecord"
 90
        1
280
         0
281
         0
  0
CLASS
  1
LAYOUT
  2
AcDbLayout
  3
AutoCAD 2000
 90
        0
280
         0
281
         0
  0
CLASS
  1
PLOTSETTINGS
  2
AcDbPlotSettings
  3
AutoCAD 2000
 90
        0
280
         0
281
         0
  0
CLASS
  1
ACDBDICTIONARYWDFLT
  2
AcDbDictionaryWithDefault
  3
AutoCAD 2000
 90
        0
280
         0
281
         0
  0
CLASS
  1
ACDBPLACEHOLDER
  2
AcDbPlaceHolder
  3
AutoCAD 2000
 90
        0
280
         0
281
         0
  0
CLASS
  1
VBA_PROJECT
  2
AcDbVbaProject
  3
acadvba
 90
        0
280
         0
281
         0
  0
CLASS
  1
WIPEOUT
  2
AcDbWipeout
  3
WipeOut|AutoCAD Express Tool|expresstools@autodesk.com
 90
      127
280
         0
281
         1
  0
CLASS
  1
WIPEOUTVARIABLES
  2
AcDbWipeoutVariables
  3
WipeOut|AutoCAD Express Tool|expresstools@autodesk.com
 90
        0
280
         0
281
         0
  0
CLASS
  1
RTEXT
  2
RText
  3
RText|AutoCAD Express Tool|expresstools@autodesk.com
 90
        0
280
         0
281
         1
  0
CLASS
  1
ARCALIGNEDTEXT
  2
AcDbArcAlignedText
  3
ATEXT|AutoCAD Express Tool|expresstools@autodesk.com
 90
        0
280
         0
281
         1
  0
ENDSEC
  0
SECTION
  2
TABLES
  0
TABLE
  2
VPORT
  5
7
100
AcDbSymbolTable
 70
         1
  0
VPORT
  5
15
100
AcDbSymbolTableRecord
100
AcDbViewportTableRecord
  2
*ACTIVE
 70
         0
 10
0.0
 20
0.0
 11
1.0
 21
1.0
 12
148.5
 22
105.0
 13
0.0
 23
0.0
 14
1.0
 24
1.0
 15
0.0
 25
0.0
 16
0.0
 26
0.0
 36
1.0
 17
0.0
 27
0.0
 37
0.0
 40
231.2943892345
 41
1.0
 42
50.0
 43
0.0
 44
0.0
 50
0.0
 51
0.0
 71
         0
 72
       100
 73
         1
 74
         1
 75
         0
 76
         0
 77
         0
 78
         0
281
         0
 65
         0
110
0.0
120
0.0
130
0.0
111
1.0
121
0.0
131
0.0
112
0.0
122
1.0
132
0.0
345
0
346
0
 79
         0
146
0.0
  0
ENDTAB
  0
TABLE
  2
LTYPE
  5
4
100
AcDbSymbolTable
 70
        12
  0
LTYPE
  5
11
100
AcDbSymbolTableRecord
100
AcDbLinetypeTableRecord
  2
ByBlock
 70
        64
  3

 72
        65
 73
         0
 40
0.0
  0
LTYPE
  5
12
100
AcDbSymbolTableRecord
100
AcDbLinetypeTableRecord
  2
ByLayer
 70
        64
  3

 72
        65
 73
         0
 40
0.0
  0
LTYPE
  5
13
100
AcDbSymbolTableRecord
100
AcDbLinetypeTableRecord
  2
CONTINUOUS
 70
        64
  3
Solid Line
 72
        65
 73
         0
 40
0.0
  0
LTYPE
  5
24
100
AcDbSymbolTableRecord
100
AcDbLinetypeTableRecord
  2
DOT
 70
        64
  3
. . . . . . . . . . . . . . . . . . . . . . 
 72
        65
 73
         2
 40
0.25
 49
0.0
 74
         0
 49
-0.25
 74
         0
  0
LTYPE
  5
25
100
AcDbSymbolTableRecord
100
AcDbLinetypeTableRecord
  2
HIDDEN
 70
         0
  3
_ _ _ _ _ _ _ _ _ _ _ _ _ _ _ _ _ _ _ _ _ _ _
 72
        65
 73
         2
 40
0.375
 49
0.25
 74
         0
 49
-0.125
 74
         0
  0
LTYPE
  5
26
100
AcDbSymbolTableRecord
100
AcDbLinetypeTableRecord
  2
DASHDOT
 70
         0
  3
__ . __ . __ . __ . __ . __ . __ . __ . __ . __
 72
        65
 73
         4
 40
1.0
 49
0.5
 74
         0
 49
-0.25
 74
         0
 49
0.0
 74
         0
 49
-0.25
 74
         0
  0
LTYPE
  5
27
100
AcDbSymbolTableRecord
100
AcDbLinetypeTableRecord
  2
DIVIDE
 70
         0
  3
__ . . __ . . __ . . __ . . __ . . __ . . __
 72
        65
 73
         6
 40
1.25
 49
0.5
 74
         0
 49
-0.25
 74
         0
 49
0.0
 74
         0
 49
-0.25
 74
         0
 49
0.0
 74
         0
 49
-0.25
 74
         0
  0
LTYPE
  5
28
100
AcDbSymbolTableRecord
100
AcDbLinetypeTableRecord
  2
DASHED
 70
         0
  3
__ __ __ __ __ __ __ __ __ __ __ __ __ __ __
 72
        65
 73
         2
 40
0.75
 49
0.5
 74
         0
 49
-0.25
 74
         0
  0
LTYPE
  5
29
100
AcDbSymbolTableRecord
100
AcDbLinetypeTableRecord
  2
BORDER
 70
         0
  3
__ __ . __ __ . __ __ . __ __ . __ __ .
 72
        65
 73
         6
 40
1.75
 49
0.5
 74
         0
 49
-0.25
 74
         0
 49
0.5
 74
         0
 49
-0.25
 74
         0
 49
0.0
 74
         0
 49
-0.25
 74
         0
  0
LTYPE
  5
2A
100
AcDbSymbolTableRecord
100
AcDbLinetypeTableRecord
  2
CENTER
 70
         0
  3
____ _ ____ _ ____ _ ____ _ ____ _ ____
 72
        65
 73
         4
 40
2.0
 49
1.25
 74
         0
 49
-0.25
 74
         0
 49
0.25
 74
         0
 49
-0.25
 74
         0
  0
LTYPE
  5
2B
100
AcDbSymbolTableRecord
100
AcDbLinetypeTableRecord
  2
DOT2
 70
         0
  3
........................................
 72
        65
 73
         2
 40
0.125
 49
0.0
 74
         0
 49
-0.125
 74
         0
  0
LTYPE
  5
2C
100
AcDbSymbolTableRecord
100
AcDbLinetypeTableRecord
  2
PHANTOM
 70
         0
  3
______  __  __  ______  __  __  ______
 72
        65
 73
         6
 40
2.5
 49
1.25
 74
         0
 49
-0.25
 74
         0
 49
0.25
 74
         0
 49
-0.25
 74
         0
 49
0.25
 74
         0
 49
-0.25
 74
         0
  0
ENDTAB
  0
TABLE
  2
LAYER
  5
2
100
AcDbSymbolTable
 70
       194
  0
LAYER
  5
14
100
AcDbSymbolTableRecord
100
AcDbLayerTableRecord
  2
0
 70
         0
 62
         7
  6
CONTINUOUS
290
         1
370
        -3
390
1D
  0
LAYER
  5
2F
100
AcDbSymbolTableRecord
100
AcDbLayerTableRecord
  2
SCHRAFFUR
 70
        64
 62
         7
  6
CONTINUOUS
290
         1
370
         0
390
1D
  0
LAYER
  5
30
100
AcDbSymbolTableRecord
100
AcDbLayerTableRecord
  2
VERDECKTE KANTEN
 70
        64
 62
        92
  6
DASHED
290
         1
370
        35
390
1D
  0
LAYER
  5
31
100
AcDbSymbolTableRecord
100
AcDbLayerTableRecord
  2
TANGENTIALE KANTEN
 70
        64
 62
         7
  6
CONTINUOUS
290
         1
370
        13
390
1D
  0
LAYER
  5
32
100
AcDbSymbolTableRecord
100
AcDbLayerTableRecord
  2
MITTELLINIEN
 70
        64
 62
         5
  6
DASHDOT
290
         1
370
        13
390
1D
  0
LAYER
  5
33
100
AcDbSymbolTableRecord
100
AcDbLayerTableRecord
  2
2052 GEHƒUSE
 70
        64
 62
         7
  6
CONTINUOUS
290
         1
370
        18
390
1D
  0
LAYER
  5
34
100
AcDbSymbolTableRecord
100
AcDbLayerTableRecord
  2
2052 ZUHALTUNG
 70
        64
 62
        94
  6
CONTINUOUS
290
         1
370
        18
390
1D
  0
LAYER
  5
35
100
AcDbSymbolTableRecord
100
AcDbLayerTableRecord
  2
2052 BESATZUNG
 70
        64
 62
         8
  6
CONTINUOUS
290
         1
370
        18
390
1D
  0
LAYER
  5
36
100
AcDbSymbolTableRecord
100
AcDbLayerTableRecord
  2
2052 RIEGEL UMGESPERRT
 70
        64
 62
       230
  6
DASHED
290
         1
370
        18
390
1D
  0
LAYER
  5
37
100
AcDbSymbolTableRecord
100
AcDbLayerTableRecord
  2
2052 RIEGEL
 70
        64
 62
       230
  6
CONTINUOUS
290
         1
370
        18
390
1D
  0
LAYER
  5
38
100
AcDbSymbolTableRecord
100
AcDbLayerTableRecord
  2
2052 SCHLOSS MIT DORN
 70
        64
 62
         7
  6
CONTINUOUS
290
         1
370
         0
390
1D
  0
LAYER
  5
39
100
AcDbSymbolTableRecord
100
AcDbLayerTableRecord
  2
3301 VERSCHLUSSBALKEN UMGELEGT
 70
        64
 62
       134
  6
DASHED
290
         1
370
        18
390
1D
  0
LAYER
  5
3A
100
AcDbSymbolTableRecord
100
AcDbLayerTableRecord
  2
3301 VERSCHLUSSBALKEN
 70
        64
 62
       134
  6
CONTINUOUS
290
         1
370
        18
390
1D
  0
LAYER
  5
3B
100
AcDbSymbolTableRecord
100
AcDbLayerTableRecord
  2
3301 FAHRSTRAﬂENSCHIEBERANTRIEB VERDREHT
 70
        64
 62
       171
  6
DASHED
290
         1
370
        18
390
1D
  0
LAYER
  5
3C
100
AcDbSymbolTableRecord
100
AcDbLayerTableRecord
  2
3301 FAHRSTRAﬂENSCHIEBERANTRIEB
 70
        64
 62
       171
  6
CONTINUOUS
290
         1
370
        18
390
1D
  0
LAYER
  5
3D
100
AcDbSymbolTableRecord
100
AcDbLayerTableRecord
  2
3301 RAHMEN LƒNGS
 70
        64
 62
         7
  6
CONTINUOUS
290
         1
370
        18
390
1D
  0
LAYER
  5
3E
100
AcDbSymbolTableRecord
100
AcDbLayerTableRecord
  2
3301 VERSCHLUSSST‹CKE VERSCHOBEN
 70
        64
 62
       190
  6
DASHED
290
         1
370
        18
390
1D
  0
LAYER
  5
3F
100
AcDbSymbolTableRecord
100
AcDbLayerTableRecord
  2
3301 VERSCHLUSSST‹CKE
 70
        64
 62
       190
  6
CONTINUOUS
290
         1
370
        18
390
1D
  0
LAYER
  5
40
100
AcDbSymbolTableRecord
100
AcDbLayerTableRecord
  2
3301 RAHMEN QUER
 70
        64
 62
         8
  6
CONTINUOUS
290
         1
370
        18
390
1D
  0
LAYER
  5
41
100
AcDbSymbolTableRecord
100
AcDbLayerTableRecord
  2
3301 ANLENKUNGSLAGER
 70
        64
 62
       252
  6
CONTINUOUS
290
         1
370
        18
390
1D
  0
LAYER
  5
42
100
AcDbSymbolTableRecord
100
AcDbLayerTableRecord
  2
3301 VERSCHLUSSBALKENANLENKUNG UMGELEGT
 70
        64
 62
       230
  6
DASHED
290
         1
370
        18
390
1D
  0
LAYER
  5
43
100
AcDbSymbolTableRecord
100
AcDbLayerTableRecord
  2
3301 VERSCHLUSSBALKENANLENKUNG
 70
        64
 62
       230
  6
CONTINUOUS
290
         1
370
        18
390
1D
  0
LAYER
  5
44
100
AcDbSymbolTableRecord
100
AcDbLayerTableRecord
  2
3301 FAHRSTRAﬂENSCHIEBER
 70
        64
 62
       172
  6
CONTINUOUS
290
         1
370
        18
390
1D
  0
LAYER
  5
45
100
AcDbSymbolTableRecord
100
AcDbLayerTableRecord
  2
3301 GRUPPENVERSCHLUSS UMGELEGT
 70
        64
 62
       234
  6
DASHED
290
         1
370
        18
390
1D
  0
LAYER
  5
46
100
AcDbSymbolTableRecord
100
AcDbLayerTableRecord
  2
3301 GRUPPENVERSCHLUSS
 70
        64
 62
       234
  6
CONTINUOUS
290
         1
370
        18
390
1D
  0
LAYER
  5
47
100
AcDbSymbolTableRecord
100
AcDbLayerTableRecord
  2
3301 VERSCHLUSSREGISTER JE
 70
        64
 62
         7
  6
CONTINUOUS
290
         1
370
         0
390
1D
  0
LAYER
  5
48
100
AcDbSymbolTableRecord
100
AcDbLayerTableRecord
  2
3303 HEBELBOCK
 70
        64
 62
       172
  6
CONTINUOUS
290
         1
370
        18
390
1D
  0
LAYER
  5
49
100
AcDbSymbolTableRecord
100
AcDbLayerTableRecord
  2
3303 HEBELEISEN UMGELEGT
 70
        64
 62
         5
  6
DASHED
290
         1
370
        18
390
1D
  0
LAYER
  5
4A
100
AcDbSymbolTableRecord
100
AcDbLayerTableRecord
  2
3303 HEBELEISEN
 70
        64
 62
         5
  6
CONTINUOUS
290
         1
370
        18
390
1D
  0
LAYER
  5
4B
100
AcDbSymbolTableRecord
100
AcDbLayerTableRecord
  2
3303 HANDFALLE ANGEZOGEN
 70
        64
 62
       134
  6
DIVIDE
290
         1
370
        18
390
1D
  0
LAYER
  5
4C
100
AcDbSymbolTableRecord
100
AcDbLayerTableRecord
  2
3303 HANDFALLE UMGELEGT
 70
        64
 62
       134
  6
DASHED
290
         1
370
        18
390
1D
  0
LAYER
  5
4D
100
AcDbSymbolTableRecord
100
AcDbLayerTableRecord
  2
3302 HANDFALLE
 70
        64
 62
       134
  6
CONTINUOUS
290
         1
370
        18
390
1D
  0
LAYER
  5
4E
100
AcDbSymbolTableRecord
100
AcDbLayerTableRecord
  2
3303 HEBELERSATZSCHLOSS JE
 70
        64
 62
         7
  6
CONTINUOUS
290
         1
370
         0
390
1D
  0
LAYER
  5
4F
100
AcDbSymbolTableRecord
100
AcDbLayerTableRecord
  2
3211 TRƒGER JE
 70
        64
 62
         7
  6
CONTINUOUS
290
         1
370
        18
390
1D
  0
LAYER
  5
50
100
AcDbSymbolTableRecord
100
AcDbLayerTableRecord
  2
3211 STƒNDER JE
 70
        64
 62
         7
  6
CONTINUOUS
290
         1
370
        18
390
1D
  0
LAYER
  5
51
100
AcDbSymbolTableRecord
100
AcDbLayerTableRecord
  2
3211 HEBELBANK JE
 70
        64
 62
         9
  6
CONTINUOUS
290
         1
370
        18
390
1D
  0
LAYER
  5
52
100
AcDbSymbolTableRecord
100
AcDbLayerTableRecord
  2
3304 KLOBEN
 70
        64
 62
       190
  6
CONTINUOUS
290
         1
370
         0
390
1D
  0
LAYER
  5
53
100
AcDbSymbolTableRecord
100
AcDbLayerTableRecord
  2
3201-3204 WINKELHEBEL
 70
        64
 62
       190
  6
CONTINUOUS
290
         1
370
        18
390
1D
  0
LAYER
  5
54
100
AcDbSymbolTableRecord
100
AcDbLayerTableRecord
  2
3201 HEBELBOCK
 70
        64
 62
         7
  6
CONTINUOUS
290
         1
370
        18
390
1D
  0
LAYER
  5
55
100
AcDbSymbolTableRecord
100
AcDbLayerTableRecord
  2
3201 SEILZUG
 70
        64
 62
        94
  6
DASHDOT
290
         1
370
        18
390
1D
  0
LAYER
  5
56
100
AcDbSymbolTableRecord
100
AcDbLayerTableRecord
  2
3201-3204 HEBEL JE
 70
        64
 62
         7
  6
CONTINUOUS
290
         1
370
         0
390
1D
  0
LAYER
  5
57
100
AcDbSymbolTableRecord
100
AcDbLayerTableRecord
  2
2053 SCHILD
 70
        64
 62
        54
  6
CONTINUOUS
290
         1
370
        18
390
1D
  0
LAYER
  5
58
100
AcDbSymbolTableRecord
100
AcDbLayerTableRecord
  2
2053 SCHL‹SSEL
 70
        64
 62
       190
  6
CONTINUOUS
290
         1
370
        18
390
1D
  0
LAYER
  5
59
100
AcDbSymbolTableRecord
100
AcDbLayerTableRecord
  2
2053 SCHL‹SSEL MIT DORN
 70
        64
 62
         7
  6
CONTINUOUS
290
         1
370
         0
390
1D
  0
LAYER
  5
5A
100
AcDbSymbolTableRecord
100
AcDbLayerTableRecord
  2
2001 BODEN
 70
        64
 62
        14
  6
CONTINUOUS
290
         1
370
        18
390
1D
  0
LAYER
  5
5B
100
AcDbSymbolTableRecord
100
AcDbLayerTableRecord
  2
2001 GEBƒUDE
 70
        64
 62
         7
  6
CONTINUOUS
290
         1
370
         0
390
1D
  0
LAYER
  5
5C
100
AcDbSymbolTableRecord
100
AcDbLayerTableRecord
  2
1088 GEHƒUSE
 70
        64
 62
         7
  6
CONTINUOUS
290
         1
370
        18
390
1D
  0
LAYER
  5
5D
100
AcDbSymbolTableRecord
100
AcDbLayerTableRecord
  2
1088 BAUTEIL
 70
        64
 62
         7
  6
CONTINUOUS
290
         1
370
        18
390
1D
  0
LAYER
  5
5E
100
AcDbSymbolTableRecord
100
AcDbLayerTableRecord
  2
3305 HEBELBOCK
 70
        64
 62
         7
  6
CONTINUOUS
290
         1
370
        13
390
1D
  0
LAYER
  5
5F
100
AcDbSymbolTableRecord
100
AcDbLayerTableRecord
  2
3305 HEBELSCHILD
 70
        64
 62
       171
  6
CONTINUOUS
290
         1
370
        18
390
1D
  0
LAYER
  5
60
100
AcDbSymbolTableRecord
100
AcDbLayerTableRecord
  2
3305 HANDFALLE NACH UNTEN UMGELEGT
 70
        64
 62
        30
  6
DASHDOT
290
         1
370
        13
390
1D
  0
LAYER
  5
61
100
AcDbSymbolTableRecord
100
AcDbLayerTableRecord
  2
3305 HANDFALLE ANGEZOGEN
 70
        64
 62
        30
  6
DASHDOT
290
         1
370
        13
390
1D
  0
LAYER
  5
62
100
AcDbSymbolTableRecord
100
AcDbLayerTableRecord
  2
3305 HANDFALLE NACH OBEN UMGELEGT
 70
        64
 62
        30
  6
DASHDOT
290
         1
370
        13
390
1D
  0
LAYER
  5
63
100
AcDbSymbolTableRecord
100
AcDbLayerTableRecord
  2
3305 HANDFALLE
 70
        64
 62
        30
  6
CONTINUOUS
290
         1
370
        13
390
1D
  0
LAYER
  5
64
100
AcDbSymbolTableRecord
100
AcDbLayerTableRecord
  2
3305 HEBEL NACH OBEN UMGELEGT
 70
        64
 62
         5
  6
DASHDOT
290
         1
370
        13
390
1D
  0
LAYER
  5
65
100
AcDbSymbolTableRecord
100
AcDbLayerTableRecord
  2
3305 HEBEL NACH UNTEN UMGELEGT
 70
        64
 62
         5
  6
DASHED
290
         1
370
        13
390
1D
  0
LAYER
  5
66
100
AcDbSymbolTableRecord
100
AcDbLayerTableRecord
  2
3305 HEBEL
 70
        64
 62
         5
  6
CONTINUOUS
290
         1
370
        13
390
1D
  0
LAYER
  5
67
100
AcDbSymbolTableRecord
100
AcDbLayerTableRecord
  2
3305 FAHRSTRAﬂENHEBEL JE
 70
        64
 62
         7
  6
CONTINUOUS
290
         1
370
        13
390
1D
  0
LAYER
  5
68
100
AcDbSymbolTableRecord
100
AcDbLayerTableRecord
  2
KONSTRUKTION
 70
        64
 62
         7
  6
CONTINUOUS
290
         1
370
        18
390
1D
  0
LAYER
  5
69
100
AcDbSymbolTableRecord
100
AcDbLayerTableRecord
  2
MASSLINIEN
 70
        64
 62
       172
  6
CONTINUOUS
290
         1
370
        25
390
1D
  0
LAYER
  5
6A
100
AcDbSymbolTableRecord
100
AcDbLayerTableRecord
  2
TOLERANZEN
 70
        64
 62
       212
  6
CONTINUOUS
290
         1
370
         0
390
1D
  0
LAYER
  5
6B
100
AcDbSymbolTableRecord
100
AcDbLayerTableRecord
  2
MASSGRENZEN
 70
        64
 62
       172
  6
CONTINUOUS
290
         1
370
        25
390
1D
  0
LAYER
  5
6C
100
AcDbSymbolTableRecord
100
AcDbLayerTableRecord
  2
MASSTEXTE
 70
        64
 62
       212
  6
CONTINUOUS
290
         1
370
        25
390
1D
  0
LAYER
  5
6D
100
AcDbSymbolTableRecord
100
AcDbLayerTableRecord
  2
BEMASSUNG
 70
        64
 62
         7
  6
CONTINUOUS
290
         1
370
        25
390
1D
  0
LAYER
  5
6E
100
AcDbSymbolTableRecord
100
AcDbLayerTableRecord
  2
BESCHRIFTUNG
 70
        64
 62
         7
  6
CONTINUOUS
290
         1
370
        25
390
1D
  0
LAYER
  5
6F
100
AcDbSymbolTableRecord
100
AcDbLayerTableRecord
  2
UNSICHTBARE
 70
        64
 62
        92
  6
DASHED
290
         1
370
        25
390
1D
  0
LAYER
  5
70
100
AcDbSymbolTableRecord
100
AcDbLayerTableRecord
  2
HILFSLINIEN
 70
        64
 62
         3
  6
CONTINUOUS
290
         1
370
         0
390
1D
  0
LAYER
  5
71
100
AcDbSymbolTableRecord
100
AcDbLayerTableRecord
  2
3303_5L
 70
        64
 62
        30
  6
CONTINUOUS
290
         1
370
        13
390
1D
  0
LAYER
  5
72
100
AcDbSymbolTableRecord
100
AcDbLayerTableRecord
  2
3303_1P
 70
        64
 62
        30
  6
CONTINUOUS
290
         1
370
        13
390
1D
  0
LAYER
  5
73
100
AcDbSymbolTableRecord
100
AcDbLayerTableRecord
  2
3303_2R
 70
        64
 62
        14
  6
CONTINUOUS
290
         1
370
        13
390
1D
  0
LAYER
  5
74
100
AcDbSymbolTableRecord
100
AcDbLayerTableRecord
  2
3303_2L
 70
        64
 62
        30
  6
CONTINUOUS
290
         1
370
        13
390
1D
  0
LAYER
  5
75
100
AcDbSymbolTableRecord
100
AcDbLayerTableRecord
  2
3303_6L
 70
        64
 62
        30
  6
CONTINUOUS
290
         1
370
        13
390
1D
  0
LAYER
  5
76
100
AcDbSymbolTableRecord
100
AcDbLayerTableRecord
  2
3303_6R
 70
        64
 62
        14
  6
CONTINUOUS
290
         1
370
        13
390
1D
  0
LAYER
  5
77
100
AcDbSymbolTableRecord
100
AcDbLayerTableRecord
  2
3303_4P
 70
        64
 62
        30
  6
CONTINUOUS
290
         1
370
        13
390
1D
  0
LAYER
  5
78
100
AcDbSymbolTableRecord
100
AcDbLayerTableRecord
  2
3303_5R
 70
        64
 62
        14
  6
CONTINUOUS
290
         1
370
        13
390
1D
  0
LAYER
  5
79
100
AcDbSymbolTableRecord
100
AcDbLayerTableRecord
  2
3303___ HEBELERSATZSCHLOSS JE
 70
        64
 62
         6
  6
DASHDOT
290
         1
370
        13
390
1D
  0
LAYER
  5
7A
100
AcDbSymbolTableRecord
100
AcDbLayerTableRecord
  2
1088_1P
 70
        64
 62
        30
  6
CONTINUOUS
290
         1
370
        13
390
1D
  0
LAYER
  5
7B
100
AcDbSymbolTableRecord
100
AcDbLayerTableRecord
  2
1088_1R
 70
        64
 62
        14
  6
CONTINUOUS
290
         1
370
        13
390
1D
  0
LAYER
  5
7C
100
AcDbSymbolTableRecord
100
AcDbLayerTableRecord
  2
1088___ VORLAGEN
 70
        64
 62
       230
  6
CONTINUOUS
290
         1
370
        13
390
1D
  0
LAYER
  5
7D
100
AcDbSymbolTableRecord
100
AcDbLayerTableRecord
  2
3305_1P
 70
        64
 62
        30
  6
CONTINUOUS
290
         1
370
        13
390
1D
  0
LAYER
  5
7E
100
AcDbSymbolTableRecord
100
AcDbLayerTableRecord
  2
3305_2R
 70
        64
 62
        14
  6
CONTINUOUS
290
         1
370
        13
390
1D
  0
LAYER
  5
7F
100
AcDbSymbolTableRecord
100
AcDbLayerTableRecord
  2
3305_8L
 70
        64
 62
        30
  6
CONTINUOUS
290
         1
370
        13
390
1D
  0
LAYER
  5
80
100
AcDbSymbolTableRecord
100
AcDbLayerTableRecord
  2
3305_8R
 70
        64
 62
        14
  6
CONTINUOUS
290
         1
370
        13
390
1D
  0
LAYER
  5
81
100
AcDbSymbolTableRecord
100
AcDbLayerTableRecord
  2
3305_6P
 70
        64
 62
        30
  6
CONTINUOUS
290
         1
370
        13
390
1D
  0
LAYER
  5
82
100
AcDbSymbolTableRecord
100
AcDbLayerTableRecord
  2
3305_2L
 70
        64
 62
        30
  6
CONTINUOUS
290
         1
370
        13
390
1D
  0
LAYER
  5
83
100
AcDbSymbolTableRecord
100
AcDbLayerTableRecord
  2
3305_7L
 70
        64
 62
        30
  6
CONTINUOUS
290
         1
370
        13
390
1D
  0
LAYER
  5
84
100
AcDbSymbolTableRecord
100
AcDbLayerTableRecord
  2
3305_7R
 70
        64
 62
        14
  6
CONTINUOUS
290
         1
370
        13
390
1D
  0
LAYER
  5
85
100
AcDbSymbolTableRecord
100
AcDbLayerTableRecord
  2
3305___ FAHRSTRAﬂENHEBEL JE
 70
        64
 62
         6
  6
DASHDOT
290
         1
370
        13
390
1D
  0
LAYER
  5
86
100
AcDbSymbolTableRecord
100
AcDbLayerTableRecord
  2
3304_1P
 70
        64
 62
        30
  6
CONTINUOUS
290
         1
370
        13
390
1D
  0
LAYER
  5
87
100
AcDbSymbolTableRecord
100
AcDbLayerTableRecord
  2
3304___ KLOBEN
 70
        64
 62
         6
  6
DASHDOT
290
         1
370
         0
390
1D
  0
LAYER
  5
88
100
AcDbSymbolTableRecord
100
AcDbLayerTableRecord
  2
3301_711L # LI_ENDE LANG
 70
        64
 62
        30
  6
CONTINUOUS
290
         1
370
        18
390
1D
  0
LAYER
  5
89
100
AcDbSymbolTableRecord
100
AcDbLayerTableRecord
  2
3301_712L # LI_ENDE KURZ
 70
        64
 62
        30
  6
CONTINUOUS
290
         1
370
        18
390
1D
  0
LAYER
  5
8A
100
AcDbSymbolTableRecord
100
AcDbLayerTableRecord
  2
3301_714L # RE_ENDE KURZ
 70
        64
 62
        30
  6
CONTINUOUS
290
         1
370
        18
390
1D
  0
LAYER
  5
8B
100
AcDbSymbolTableRecord
100
AcDbLayerTableRecord
  2
3301_715L # RE_ENDE LANG
 70
        64
 62
        30
  6
CONTINUOUS
290
         1
370
        18
390
1D
  0
LAYER
  5
8C
100
AcDbSymbolTableRecord
100
AcDbLayerTableRecord
  2
3301_713L # MITTE
 70
        64
 62
        30
  6
CONTINUOUS
290
         1
370
        18
390
1D
  0
LAYER
  5
8D
100
AcDbSymbolTableRecord
100
AcDbLayerTableRecord
  2
3301_71L~A
 70
        64
 62
         5
  6
CONTINUOUS
290
         1
370
         0
390
1D
  0
LAYER
  5
8E
100
AcDbSymbolTableRecord
100
AcDbLayerTableRecord
  2
3301_71L # RAHMENWINKEL VO
 70
        64
 62
        11
  6
CONTINUOUS
290
         1
370
        18
390
1D
  0
LAYER
  5
8F
100
AcDbSymbolTableRecord
100
AcDbLayerTableRecord
  2
3301_711R # LI_ENDE LANG
 70
        64
 62
        14
  6
CONTINUOUS
290
         1
370
        18
390
1D
  0
LAYER
  5
90
100
AcDbSymbolTableRecord
100
AcDbLayerTableRecord
  2
3301_712R # LI_ENDE KURZ
 70
        64
 62
        14
  6
CONTINUOUS
290
         1
370
        18
390
1D
  0
LAYER
  5
91
100
AcDbSymbolTableRecord
100
AcDbLayerTableRecord
  2
3301_713R # MITTE
 70
        64
 62
        14
  6
CONTINUOUS
290
         1
370
        18
390
1D
  0
LAYER
  5
92
100
AcDbSymbolTableRecord
100
AcDbLayerTableRecord
  2
3301_714R # RE_ENDE KURZ
 70
        64
 62
        14
  6
CONTINUOUS
290
         1
370
        18
390
1D
  0
LAYER
  5
93
100
AcDbSymbolTableRecord
100
AcDbLayerTableRecord
  2
3301_715R # RE_ENDE LANG
 70
        64
 62
        14
  6
CONTINUOUS
290
         1
370
        18
390
1D
  0
LAYER
  5
94
100
AcDbSymbolTableRecord
100
AcDbLayerTableRecord
  2
3301_71R~A
 70
        64
 62
         5
  6
CONTINUOUS
290
         1
370
         0
390
1D
  0
LAYER
  5
95
100
AcDbSymbolTableRecord
100
AcDbLayerTableRecord
  2
3301_71R # RAHMENWINKEL VO
 70
        64
 62
        15
  6
CONTINUOUS
290
         1
370
        18
390
1D
  0
LAYER
  5
96
100
AcDbSymbolTableRecord
100
AcDbLayerTableRecord
  2
3301_721P # LI_ENDE LANG
 70
        64
 62
        30
  6
CONTINUOUS
290
         1
370
        18
390
1D
  0
LAYER
  5
97
100
AcDbSymbolTableRecord
100
AcDbLayerTableRecord
  2
3301_722P # LI_ENDE KURZ
 70
        64
 62
        30
  6
CONTINUOUS
290
         1
370
        18
390
1D
  0
LAYER
  5
98
100
AcDbSymbolTableRecord
100
AcDbLayerTableRecord
  2
3301_723P # MITTE
 70
        64
 62
        30
  6
CONTINUOUS
290
         1
370
        18
390
1D
  0
LAYER
  5
99
100
AcDbSymbolTableRecord
100
AcDbLayerTableRecord
  2
3301_724P # RE_ENDE KURZ
 70
        64
 62
        30
  6
CONTINUOUS
290
         1
370
        18
390
1D
  0
LAYER
  5
9A
100
AcDbSymbolTableRecord
100
AcDbLayerTableRecord
  2
3301_725P # RE_ENDE LANG
 70
        64
 62
        30
  6
CONTINUOUS
290
         1
370
        18
390
1D
  0
LAYER
  5
9B
100
AcDbSymbolTableRecord
100
AcDbLayerTableRecord
  2
3301_72P~A
 70
        64
 62
         5
  6
CONTINUOUS
290
         1
370
        18
390
1D
  0
LAYER
  5
9C
100
AcDbSymbolTableRecord
100
AcDbLayerTableRecord
  2
3301_72P # RAHMENWANGE VO
 70
        64
 62
        30
  6
CONTINUOUS
290
         1
370
        18
390
1D
  0
LAYER
  5
9D
100
AcDbSymbolTableRecord
100
AcDbLayerTableRecord
  2
3301_741L # LI_ENDE LANG
 70
        64
 62
        30
  6
CONTINUOUS
290
         1
370
        18
390
1D
  0
LAYER
  5
9E
100
AcDbSymbolTableRecord
100
AcDbLayerTableRecord
  2
3301_742L # LI_ENDE KURZ
 70
        64
 62
        30
  6
CONTINUOUS
290
         1
370
        18
390
1D
  0
LAYER
  5
9F
100
AcDbSymbolTableRecord
100
AcDbLayerTableRecord
  2
3301_743L # MITTE
 70
        64
 62
        30
  6
CONTINUOUS
290
         1
370
        18
390
1D
  0
LAYER
  5
A0
100
AcDbSymbolTableRecord
100
AcDbLayerTableRecord
  2
3301_744L # RE_ENDE KURZ
 70
        64
 62
        30
  6
CONTINUOUS
290
         1
370
        18
390
1D
  0
LAYER
  5
A1
100
AcDbSymbolTableRecord
100
AcDbLayerTableRecord
  2
3301_745L # RE_ENDE LANG
 70
        64
 62
        30
  6
CONTINUOUS
290
         1
370
        18
390
1D
  0
LAYER
  5
A2
100
AcDbSymbolTableRecord
100
AcDbLayerTableRecord
  2
3301_74L~A
 70
        64
 62
         5
  6
CONTINUOUS
290
         1
370
         0
390
1D
  0
LAYER
  5
A3
100
AcDbSymbolTableRecord
100
AcDbLayerTableRecord
  2
3301_74L # RAHMENWINKEL HI
 70
        64
 62
        11
  6
CONTINUOUS
290
         1
370
        18
390
1D
  0
LAYER
  5
A4
100
AcDbSymbolTableRecord
100
AcDbLayerTableRecord
  2
3301_745R # RE_ENDE LANG
 70
        64
 62
        14
  6
CONTINUOUS
290
         1
370
        18
390
1D
  0
LAYER
  5
A5
100
AcDbSymbolTableRecord
100
AcDbLayerTableRecord
  2
3301_744R # RE_ENDE KURZ
 70
        64
 62
        14
  6
CONTINUOUS
290
         1
370
        18
390
1D
  0
LAYER
  5
A6
100
AcDbSymbolTableRecord
100
AcDbLayerTableRecord
  2
3301_741R # LI_ENDE LANG
 70
        64
 62
        14
  6
CONTINUOUS
290
         1
370
        18
390
1D
  0
LAYER
  5
A7
100
AcDbSymbolTableRecord
100
AcDbLayerTableRecord
  2
3301_743R # MITTE
 70
        64
 62
        14
  6
CONTINUOUS
290
         1
370
        18
390
1D
  0
LAYER
  5
A8
100
AcDbSymbolTableRecord
100
AcDbLayerTableRecord
  2
3301_742R # LI_ENDE KURZ
 70
        64
 62
        14
  6
CONTINUOUS
290
         1
370
        18
390
1D
  0
LAYER
  5
A9
100
AcDbSymbolTableRecord
100
AcDbLayerTableRecord
  2
3301_74R~A
 70
        64
 62
         5
  6
CONTINUOUS
290
         1
370
         0
390
1D
  0
LAYER
  5
AA
100
AcDbSymbolTableRecord
100
AcDbLayerTableRecord
  2
3301_74R # RAHMENWINKEL HI
 70
        64
 62
        14
  6
CONTINUOUS
290
         1
370
        18
390
1D
  0
LAYER
  5
AB
100
AcDbSymbolTableRecord
100
AcDbLayerTableRecord
  2
3301_731P # LI_ENDE LANG
 70
        64
 62
        30
  6
CONTINUOUS
290
         1
370
        18
390
1D
  0
LAYER
  5
AC
100
AcDbSymbolTableRecord
100
AcDbLayerTableRecord
  2
3301_732P # LI_ENDE KURZ
 70
        64
 62
        30
  6
CONTINUOUS
290
         1
370
        18
390
1D
  0
LAYER
  5
AD
100
AcDbSymbolTableRecord
100
AcDbLayerTableRecord
  2
3301_733P # MITTE
 70
        64
 62
        30
  6
CONTINUOUS
290
         1
370
        18
390
1D
  0
LAYER
  5
AE
100
AcDbSymbolTableRecord
100
AcDbLayerTableRecord
  2
3301_734P # RE_ENDE KURZ
 70
        64
 62
        30
  6
CONTINUOUS
290
         1
370
        18
390
1D
  0
LAYER
  5
AF
100
AcDbSymbolTableRecord
100
AcDbLayerTableRecord
  2
3301_735P # RE_ENDE LANG
 70
        64
 62
        30
  6
CONTINUOUS
290
         1
370
        18
390
1D
  0
LAYER
  5
B0
100
AcDbSymbolTableRecord
100
AcDbLayerTableRecord
  2
3301_73P~A
 70
        64
 62
         5
  6
CONTINUOUS
290
         1
370
        18
390
1D
  0
LAYER
  5
B1
100
AcDbSymbolTableRecord
100
AcDbLayerTableRecord
  2
3301_73P # RAHMENWANGE HI
 70
        64
 62
        30
  6
CONTINUOUS
290
         1
370
        18
390
1D
  0
LAYER
  5
B2
100
AcDbSymbolTableRecord
100
AcDbLayerTableRecord
  2
3301_76P # FSTRSCHIEBER HI
 70
        64
 62
        30
  6
CONTINUOUS
290
         1
370
        18
390
1D
  0
LAYER
  5
B3
100
AcDbSymbolTableRecord
100
AcDbLayerTableRecord
  2
3301_75P # FSTRSCHIEBER VO
 70
        64
 62
        30
  6
CONTINUOUS
290
         1
370
        18
390
1D
  0
LAYER
  5
B4
100
AcDbSymbolTableRecord
100
AcDbLayerTableRecord
  2
3301_413L # MITTE
 70
        64
 62
        30
  6
CONTINUOUS
290
         1
370
        18
390
1D
  0
LAYER
  5
B5
100
AcDbSymbolTableRecord
100
AcDbLayerTableRecord
  2
3301_41L # RAHMENWINKEL VO
 70
        64
 62
        11
  6
CONTINUOUS
290
         1
370
        18
390
1D
  0
LAYER
  5
B6
100
AcDbSymbolTableRecord
100
AcDbLayerTableRecord
  2
3301_413R # MITTE
 70
        64
 62
        34
  6
CONTINUOUS
290
         1
370
        18
390
1D
  0
LAYER
  5
B7
100
AcDbSymbolTableRecord
100
AcDbLayerTableRecord
  2
3301_41R # RAHMENWINKEL VO
 70
        64
 62
        15
  6
CONTINUOUS
290
         1
370
        18
390
1D
  0
LAYER
  5
B8
100
AcDbSymbolTableRecord
100
AcDbLayerTableRecord
  2
3301_46P # FSTRSCHIEBER HI
 70
        64
 62
        30
  6
CONTINUOUS
290
         1
370
        18
390
1D
  0
LAYER
  5
B9
100
AcDbSymbolTableRecord
100
AcDbLayerTableRecord
  2
3301_433P # MITTE
 70
        64
 62
        30
  6
CONTINUOUS
290
         1
370
        18
390
1D
  0
LAYER
  5
BA
100
AcDbSymbolTableRecord
100
AcDbLayerTableRecord
  2
3301_43P # RAHMENWANGE HI
 70
        64
 62
        30
  6
CONTINUOUS
290
         1
370
        18
390
1D
  0
LAYER
  5
BB
100
AcDbSymbolTableRecord
100
AcDbLayerTableRecord
  2
3301_423P # MITTE
 70
        64
 62
        30
  6
CONTINUOUS
290
         1
370
        18
390
1D
  0
LAYER
  5
BC
100
AcDbSymbolTableRecord
100
AcDbLayerTableRecord
  2
3301_42P # RAHMENWANGE VO
 70
        64
 62
        30
  6
CONTINUOUS
290
         1
370
        18
390
1D
  0
LAYER
  5
BD
100
AcDbSymbolTableRecord
100
AcDbLayerTableRecord
  2
3301_443R # MITTE
 70
        64
 62
        14
  6
CONTINUOUS
290
         1
370
        18
390
1D
  0
LAYER
  5
BE
100
AcDbSymbolTableRecord
100
AcDbLayerTableRecord
  2
3301_44R # RAHMENWINKEL HI
 70
        64
 62
        15
  6
CONTINUOUS
290
         1
370
        18
390
1D
  0
LAYER
  5
BF
100
AcDbSymbolTableRecord
100
AcDbLayerTableRecord
  2
3301_443L # MITTE
 70
        64
 62
        30
  6
CONTINUOUS
290
         1
370
        18
390
1D
  0
LAYER
  5
C0
100
AcDbSymbolTableRecord
100
AcDbLayerTableRecord
  2
3301_44L # RAHMENWINKEL HI
 70
        64
 62
        11
  6
CONTINUOUS
290
         1
370
        18
390
1D
  0
LAYER
  5
C1
100
AcDbSymbolTableRecord
100
AcDbLayerTableRecord
  2
3301_45P # FSTRSCHIEBER VO
 70
        64
 62
        30
  6
CONTINUOUS
290
         1
370
        18
390
1D
  0
LAYER
  5
C2
100
AcDbSymbolTableRecord
100
AcDbLayerTableRecord
  2
3301_10E # GRU_VERSCHL_ANTR LI
 70
        64
 62
        11
  6
CONTINUOUS
290
         1
370
        18
390
1D
  0
LAYER
  5
C3
100
AcDbSymbolTableRecord
100
AcDbLayerTableRecord
  2
3301_10C # VERSCHLST_ SIG FREI LI
 70
        64
 62
        30
  6
CONTINUOUS
290
         1
370
        18
390
1D
  0
LAYER
  5
C4
100
AcDbSymbolTableRecord
100
AcDbLayerTableRecord
  2
3301_10B # VERSCHLST_ W- LI
 70
        64
 62
        30
  6
CONTINUOUS
290
         1
370
        18
390
1D
  0
LAYER
  5
C5
100
AcDbSymbolTableRecord
100
AcDbLayerTableRecord
  2
3301_10D # VERSCHLST_ SIG BEIDE LI
 70
        64
 62
        30
  6
CONTINUOUS
290
         1
370
        18
390
1D
  0
LAYER
  5
C6
100
AcDbSymbolTableRecord
100
AcDbLayerTableRecord
  2
3301_10I # VERSCHLST_ SIG BEIDE RE
 70
        64
 62
        15
  6
CONTINUOUS
290
         1
370
        18
390
1D
  0
LAYER
  5
C7
100
AcDbSymbolTableRecord
100
AcDbLayerTableRecord
  2
3301_10J # GRU_VERSCHL_ANTR RE
 70
        64
 62
        15
  6
CONTINUOUS
290
         1
370
        18
390
1D
  0
LAYER
  5
C8
100
AcDbSymbolTableRecord
100
AcDbLayerTableRecord
  2
3301_10G # VERSCHLST_ W- RE
 70
        64
 62
        15
  6
CONTINUOUS
290
         1
370
        18
390
1D
  0
LAYER
  5
C9
100
AcDbSymbolTableRecord
100
AcDbLayerTableRecord
  2
3301_10F # VERSCHLST_ W+ RE
 70
        64
 62
        15
  6
CONTINUOUS
290
         1
370
        18
390
1D
  0
LAYER
  5
CA
100
AcDbSymbolTableRecord
100
AcDbLayerTableRecord
  2
3301_10H # VERSCHLST_ SIG FREI RE
 70
        64
 62
        15
  6
CONTINUOUS
290
         1
370
        18
390
1D
  0
LAYER
  5
CB
100
AcDbSymbolTableRecord
100
AcDbLayerTableRecord
  2
3301_10A # VERSCHLST_ W+ LI
 70
        64
 62
        30
  6
CONTINUOUS
290
         1
370
        18
390
1D
  0
LAYER
  5
CC
100
AcDbSymbolTableRecord
100
AcDbLayerTableRecord
  2
3301_10T # VERSCHLST_ ANTRIEB UNTEN
 70
        64
 62
        30
  6
CONTINUOUS
290
         1
370
        18
390
1D
  0
LAYER
  5
CD
100
AcDbSymbolTableRecord
100
AcDbLayerTableRecord
  2
3301_10S # VERSCHLST_ F‹HRUNG UNTEN
 70
        64
 62
        30
  6
CONTINUOUS
290
         1
370
        18
390
1D
  0
LAYER
  5
CE
100
AcDbSymbolTableRecord
100
AcDbLayerTableRecord
  2
3301_10R # VERSCHLST_ UNTEN GERADE
 70
        64
 62
        30
  6
CONTINUOUS
290
         1
370
        18
390
1D
  0
LAYER
  5
CF
100
AcDbSymbolTableRecord
100
AcDbLayerTableRecord
  2
3301_10M # VERSCHLST_ LEER LI
 70
        64
 62
        30
  6
CONTINUOUS
290
         1
370
        18
390
1D
  0
LAYER
  5
D0
100
AcDbSymbolTableRecord
100
AcDbLayerTableRecord
  2
3301_10N # VERSCHLST_ LEER RE
 70
        64
 62
        15
  6
CONTINUOUS
290
         1
370
        18
390
1D
  0
LAYER
  5
D1
100
AcDbSymbolTableRecord
100
AcDbLayerTableRecord
  2
3301_10P # VERSCHLUSSST‹CK
 70
        64
 62
        30
  6
CONTINUOUS
290
         1
370
        18
390
1D
  0
LAYER
  5
D2
100
AcDbSymbolTableRecord
100
AcDbLayerTableRecord
  2
3301_32P # FSTRSCHIEBERANTRIEBSWELLE
 70
        64
 62
        30
  6
CONTINUOUS
290
         1
370
        18
390
1D
  0
LAYER
  5
D3
100
AcDbSymbolTableRecord
100
AcDbLayerTableRecord
  2
3301_33Q # VERSCHLUSSBALKEN
 70
        64
 62
        30
  6
CONTINUOUS
290
         1
370
        18
390
1D
  0
LAYER
  5
D4
100
AcDbSymbolTableRecord
100
AcDbLayerTableRecord
  2
3301_33P # VERSCHLUSSBALKEN
 70
        64
 62
        30
  6
CONTINUOUS
290
         1
370
        18
390
1D
  0
LAYER
  5
D5
100
AcDbSymbolTableRecord
100
AcDbLayerTableRecord
  2
3301_31R # SCHIEBERRECHEN
 70
        64
 62
        15
  6
CONTINUOUS
290
         1
370
        18
390
1D
  0
LAYER
  5
D6
100
AcDbSymbolTableRecord
100
AcDbLayerTableRecord
  2
3301_31L # SCHIEBERRECHEN
 70
        64
 62
        11
  6
CONTINUOUS
290
         1
370
        18
390
1D
  0
LAYER
  5
D7
100
AcDbSymbolTableRecord
100
AcDbLayerTableRecord
  2
3301_12S # 4 VERSCHLUSSBALKENWINKEL
 70
        64
 62
        15
  6
CONTINUOUS
290
         1
370
        18
390
1D
  0
LAYER
  5
D8
100
AcDbSymbolTableRecord
100
AcDbLayerTableRecord
  2
3301_12R # VERSCHLUSSBALKENWINKEL
 70
        64
 62
        15
  6
CONTINUOUS
290
         1
370
        18
390
1D
  0
LAYER
  5
D9
100
AcDbSymbolTableRecord
100
AcDbLayerTableRecord
  2
3301_12M # 4 VERSCHLUSSBALKENWINKEL
 70
        64
 62
        11
  6
CONTINUOUS
290
         1
370
        18
390
1D
  0
LAYER
  5
DA
100
AcDbSymbolTableRecord
100
AcDbLayerTableRecord
  2
3301_12L # VERSCHLUSSBALKENWINKEL
 70
        64
 62
        11
  6
CONTINUOUS
290
         1
370
        18
390
1D
  0
LAYER
  5
DB
100
AcDbSymbolTableRecord
100
AcDbLayerTableRecord
  2
3301_13S # 4 FSTRSCHIEBERANTRIEBSST‹CKE
 70
        64
 62
        15
  6
CONTINUOUS
290
         1
370
        18
390
1D
  0
LAYER
  5
DC
100
AcDbSymbolTableRecord
100
AcDbLayerTableRecord
  2
3301_13R # FSTRSCHIEBERANTRIEBSST‹CK
 70
        64
 62
        15
  6
CONTINUOUS
290
         1
370
        18
390
1D
  0
LAYER
  5
DD
100
AcDbSymbolTableRecord
100
AcDbLayerTableRecord
  2
3301_13M # 4 FSTRSCHIEBERANTRIEBSST‹CKE
 70
        64
 62
        11
  6
CONTINUOUS
290
         1
370
        18
390
1D
  0
LAYER
  5
DE
100
AcDbSymbolTableRecord
100
AcDbLayerTableRecord
  2
3301_13L # FSTRSCHIEBERANTRIEBSST‹CK
 70
        64
 62
        11
  6
CONTINUOUS
290
         1
370
        18
390
1D
  0
LAYER
  5
DF
100
AcDbSymbolTableRecord
100
AcDbLayerTableRecord
  2
3301_14S # 4 FSTRSCHIEBERANTRIEBSKURBELN
 70
        64
 62
        15
  6
CONTINUOUS
290
         1
370
        18
390
1D
  0
LAYER
  5
E0
100
AcDbSymbolTableRecord
100
AcDbLayerTableRecord
  2
3301_14R # FSTRSCHIEBERANTRIEBSKURBEL
 70
        64
 62
        15
  6
CONTINUOUS
290
         1
370
        18
390
1D
  0
LAYER
  5
E1
100
AcDbSymbolTableRecord
100
AcDbLayerTableRecord
  2
3301_14M # 4 FSTRSCHIEBERANTRIEBSKURBELN
 70
        64
 62
        11
  6
CONTINUOUS
290
         1
370
        18
390
1D
  0
LAYER
  5
E2
100
AcDbSymbolTableRecord
100
AcDbLayerTableRecord
  2
3301_14L # FSTRSCHIEBERANTRIEBSKURBEL
 70
        64
 62
        11
  6
CONTINUOUS
290
         1
370
        18
390
1D
  0
LAYER
  5
E3
100
AcDbSymbolTableRecord
100
AcDbLayerTableRecord
  2
3301_34P # GRUPPENVERSCHLUSSWELLE
 70
        64
 62
        30
  6
CONTINUOUS
290
         1
370
        18
390
1D
  0
LAYER
  5
E4
100
AcDbSymbolTableRecord
100
AcDbLayerTableRecord
  2
3301_21P # GRUPPENVERSCHLUSSSPERRSCHWINGE
 70
        64
 62
        30
  6
CONTINUOUS
290
         1
370
        18
390
1D
  0
LAYER
  5
E5
100
AcDbSymbolTableRecord
100
AcDbLayerTableRecord
  2
3301_20S # 3 GRUPPENVERSCHLUSSANTRIEBE
 70
        64
 62
        15
  6
CONTINUOUS
290
         1
370
        18
390
1D
  0
LAYER
  5
E6
100
AcDbSymbolTableRecord
100
AcDbLayerTableRecord
  2
3301_20R # GRUPPENVERSCHLUSSANTRIEB
 70
        64
 62
        15
  6
CONTINUOUS
290
         1
370
        18
390
1D
  0
LAYER
  5
E7
100
AcDbSymbolTableRecord
100
AcDbLayerTableRecord
  2
3301_20M # 3 GRUPPENVERSCHLUSSANTRIEBE
 70
        64
 62
        11
  6
CONTINUOUS
290
         1
370
        18
390
1D
  0
LAYER
  5
E8
100
AcDbSymbolTableRecord
100
AcDbLayerTableRecord
  2
3301_20L # GRUPPENVERSCHLUSSANTRIEB
 70
        64
 62
        11
  6
CONTINUOUS
290
         1
370
        18
390
1D
  0
LAYER
  5
E9
100
AcDbSymbolTableRecord
100
AcDbLayerTableRecord
  2
3301_22P # GRUPPENVERSCHLUSSSCHWINGENLAGER
 70
        64
 62
        30
  6
CONTINUOUS
290
         1
370
        18
390
1D
  0
LAYER
  5
EA
100
AcDbSymbolTableRecord
100
AcDbLayerTableRecord
  2
3301_24µ # GRUPPENVERSCHLUSSSCHWINGENR÷LLCHEN
 70
        64
 62
        30
  6
CONTINUOUS
290
         1
370
        18
390
1D
  0
LAYER
  5
EB
100
AcDbSymbolTableRecord
100
AcDbLayerTableRecord
  2
3301___ VERSCHLUSSREGISTER
 70
        64
 62
       230
  6
CONTINUOUS
290
         1
370
         0
390
1D
  0
LAYER
  5
EC
100
AcDbSymbolTableRecord
100
AcDbLayerTableRecord
  2
FRƒSPFADE
 70
        64
 62
        30
  6
CONTINUOUS
290
         1
370
         0
390
1D
  0
LAYER
  5
ED
100
AcDbSymbolTableRecord
100
AcDbLayerTableRecord
  2
BESCHRIFTUNG0
 70
        64
 62
         7
  6
CONTINUOUS
290
         1
370
        25
390
1D
  0
LAYER
  5
EE
100
AcDbSymbolTableRecord
100
AcDbLayerTableRecord
  2
GEWINDELINIEN
 70
        64
 62
       212
  6
CONTINUOUS
290
         1
370
        25
390
1D
  0
LAYER
  5
EF
100
AcDbSymbolTableRecord
100
AcDbLayerTableRecord
  2
STANDARD
 70
        64
 62
         7
  6
CONTINUOUS
290
         1
370
         0
390
1D
  0
ENDTAB
  0
TABLE
  2
STYLE
  5
3
100
AcDbSymbolTable
 70
         3
  0
STYLE
  5
17
100
AcDbSymbolTableRecord
100
AcDbTextStyleTableRecord
  2
Standard
 70
         0
 40
0.0
 41
1.0
 50
0.0
 71
         0
 42
0.0
  3
txt
  4

  0
STYLE
  5
2D
100
AcDbSymbolTableRecord
100
AcDbTextStyleTableRecord
  2
CADdy
 70
         0
 40
0.0
 41
1.0
 50
0.0
 71
         0
 42
3.5
  3
txt.shx
  4

  0
STYLE
  5
2E
100
AcDbSymbolTableRecord
100
AcDbTextStyleTableRecord
  2
Arial
 70
         0
 40
0.0
 41
1.0
 50
0.0
 71
         0
 42
3.5
  3
arial.ttf
  4

1001
ACAD
1000
Arial
1071
       34
  0
ENDTAB
  0
TABLE
  2
VIEW
  5
5
100
AcDbSymbolTable
 70
         0
  0
ENDTAB
  0
TABLE
  2
UCS
  5
6
100
AcDbSymbolTable
 70
         0
  0
ENDTAB
  0
TABLE
  2
APPID
  5
8
100
AcDbSymbolTable
 70
         1
  0
APPID
  5
16
100
AcDbSymbolTableRecord
100
AcDbRegAppTableRecord
  2
ACAD
 70
        64
  0
ENDTAB
  0
TABLE
  2
DIMSTYLE
  5
9
100
AcDbSymbolTable
 70
         1
100
AcDbDimStyleTable
 71
         0
  0
DIMSTYLE
105
18
100
AcDbSymbolTableRecord
100
AcDbDimStyleTableRecord
  2
Standard
 70
         0
  3

  4

 40
1.0
 41
0.18
 42
0.0625
 43
0.38
 44
0.18
 45
0.0
 46
0.0
 47
0.0
 48
0.0
 71
         0
 72
         0
 73
         1
 74
         1
 75
         0
 76
         0
 77
         0
 78
         0
 79
         0
140
0.18
141
0.09
142
0.0
143
25.4
144
1.0
145
0.0
146
1.0
147
0.09
148
0.0
170
         0
171
         2
172
         0
173
         0
174
         0
175
         0
176
         0
177
         0
178
         0
179
         0
271
         4
272
         4
273
         2
274
         2
275
         0
276
         0
277
         2
278
        46
279
         0
280
         0
281
         0
282
         0
283
         1
284
         0
285
         0
286
         0
288
         0
289
         3
340
17
341
0
342
0
343
0
344
0
371
        -2
372
        -2
  0
ENDTAB
  0
TABLE
  2
BLOCK_RECORD
  5
1
100
AcDbSymbolTable
 70
         7
  0
BLOCK_RECORD
  5
A
100
AcDbSymbolTableRecord
100
AcDbBlockTableRecord
  2
*MODEL_SPACE
340
20
  0
BLOCK_RECORD
  5
B
100
AcDbSymbolTableRecord
100
AcDbBlockTableRecord
  2
*PAPER_SPACE
340
21
  0
BLOCK_RECORD
  5
F0
100
AcDbSymbolTableRecord
100
AcDbBlockTableRecord
  2
D399217920
340
0
102
{BLKREFS
331
1A0
102
}
  0
BLOCK_RECORD
  5
FB
100
AcDbSymbolTableRecord
100
AcDbBlockTableRecord
  2
D399216640
340
0
102
{BLKREFS
331
20A
102
}
  0
BLOCK_RECORD
  5
104
100
AcDbSymbolTableRecord
100
AcDbBlockTableRecord
  2
D399215360
340
0
102
{BLKREFS
331
20B
102
}
  0
BLOCK_RECORD
  5
10D
100
AcDbSymbolTableRecord
100
AcDbBlockTableRecord
  2
D399207168
340
0
102
{BLKREFS
331
20C
102
}
  0
BLOCK_RECORD
  5
116
100
AcDbSymbolTableRecord
100
AcDbBlockTableRecord
  2
D399213568
340
0
102
{BLKREFS
331
20D
102
}
  0
BLOCK_RECORD
  5
11F
100
AcDbSymbolTableRecord
100
AcDbBlockTableRecord
  2
D399217664
340
0
102
{BLKREFS
331
20E
102
}
  0
BLOCK_RECORD
  5
128
100
AcDbSymbolTableRecord
100
AcDbBlockTableRecord
  2
D399213312
340
0
102
{BLKREFS
331
20F
102
}
  0
ENDTAB
  0
ENDSEC
  0
SECTION
  2
BLOCKS
  0
BLOCK
  5
D
100
AcDbEntity
  8
0
390
0
100
AcDbBlockBegin
  2
*MODEL_SPACE
 70
         0
 10
0.0
 20
0.0
 30
0.0
  3
*MODEL_SPACE
  1

  0
ENDBLK
  5
E
100
AcDbEntity
  8
0
390
0
100
AcDbBlockEnd
  0
BLOCK
  5
F
100
AcDbEntity
 67
         1
  8
0
390
0
100
AcDbBlockBegin
  2
*PAPER_SPACE
 70
         0
 10
0.0
 20
0.0
 30
0.0
  3
*PAPER_SPACE
  1

  0
ENDBLK
  5
10
100
AcDbEntity
 67
         1
  8
0
390
0
100
AcDbBlockEnd
  0
BLOCK
  5
F1
100
AcDbEntity
  8
BEMASSUNG
390
0
100
AcDbBlockBegin
  2
D399217920
 70
         0
 10
0.0
 20
0.0
 30
0.0
  3
D399217920
  1

  0
LINE
  5
F2
100
AcDbEntity
  8
MASSLINIEN
390
0
 62
       172
100
AcDbLine
 10
197.5407400342
 20
168.0
 30
0.0
 11
197.5407400342
 21
164.0000000004
 31
0.0
  0
LINE
  5
F3
100
AcDbEntity
  8
MASSLINIEN
390
0
 62
       172
100
AcDbLine
 10
189.0
 20
168.0
 30
0.0
 11
199.5407400342
 21
168.0
 31
0.0
  0
LINE
  5
F4
100
AcDbEntity
  8
MASSLINIEN
390
0
 62
       172
100
AcDbLine
 10
189.0
 20
164.0000000004
 30
0.0
 11
199.5407400342
 21
164.0000000004
 31
0.0
  0
LINE
  5
F5
100
AcDbEntity
  8
MASSLINIEN
390
0
 62
       172
100
AcDbLine
 10
197.5407400342
 20
168.0
 30
0.0
 11
197.5407400342
 21
176.1445025016
 31
0.0
  0
LINE
  5
F6
100
AcDbEntity
  8
MASSLINIEN
390
0
 62
       172
100
AcDbLine
 10
197.5407400342
 20
164.0000000004
 30
0.0
 11
197.5407400342
 21
157.9613308321
 31
0.0
  0
SOLID
  5
F7
100
AcDbEntity
  8
MASSGRENZEN
390
0
100
AcDbTrace
 10
197.5407400342
 20
168.0
 30
0.0
 11
197.1491614575
 21
170.9743345841
 31
0.0
 12
197.9323186108
 22
170.9743345841
 32
0.0
 13
197.9323186108
 23
170.9743345841
 33
0.0
  0
SOLID
  5
F8
100
AcDbEntity
  8
MASSGRENZEN
390
0
100
AcDbTrace
 10
197.5407400342
 20
164.0000000004
 30
0.0
 11
197.9323186108
 21
161.0256654163
 31
0.0
 12
197.1491614575
 22
161.0256654163
 32
0.0
 13
197.1491614575
 23
161.0256654163
 33
0.0
  0
MTEXT
  5
F9
100
AcDbEntity
  8
MASSTEXTE
390
0
 62
       212
100
AcDbMText
 10
193.9281150342
 20
175.0465858349
 30
0.0
 40
1.9125
 41
0.0
 71
         5
 72
         1
  1
\W1.356636;\A1;4
  7
Arial
 11
0.0
 21
1.0
 31
0.0
 73
         0
 44
0.0
  0
ENDBLK
  5
FA
100
AcDbEntity
  8
0
390
0
100
AcDbBlockEnd
  0
BLOCK
  5
FC
100
AcDbEntity
  8
BEMASSUNG
390
0
100
AcDbBlockBegin
  2
D399216640
 70
         0
 10
0.0
 20
0.0
 30
0.0
  3
D399216640
  1

  0
LINE
  5
FD
100
AcDbEntity
  8
MASSLINIEN
390
0
 62
       172
100
AcDbLine
 10
82.0
 20
174.2433169887
 30
0.0
 11
82.0
 21
148.2433169887
 31
0.0
  0
LINE
  5
FE
100
AcDbEntity
  8
MASSLINIEN
390
0
 62
       172
100
AcDbLine
 10
67.5350579305
 20
174.2433169887
 30
0.0
 11
84.0
 21
174.2433169887
 31
0.0
  0
LINE
  5
FF
100
AcDbEntity
  8
MASSLINIEN
390
0
 62
       172
100
AcDbLine
 10
67.4941898356
 20
148.2433169887
 30
0.0
 11
84.0
 21
148.2433169887
 31
0.0
  0
SOLID
  5
100
100
AcDbEntity
  8
MASSGRENZEN
390
0
100
AcDbTrace
 10
82.0
 20
174.2433169887
 30
0.0
 11
82.3915785767
 21
171.2689824046
 31
0.0
 12
81.6084214233
 22
171.2689824046
 32
0.0
 13
81.6084214233
 23
171.2689824046
 33
0.0
  0
SOLID
  5
101
100
AcDbEntity
  8
MASSGRENZEN
390
0
100
AcDbTrace
 10
82.0
 20
148.2433169887
 30
0.0
 11
81.6084214233
 21
151.2176515728
 31
0.0
 12
82.3915785767
 22
151.2176515728
 32
0.0
 13
82.3915785767
 23
151.2176515728
 33
0.0
  0
MTEXT
  5
102
100
AcDbEntity
  8
MASSTEXTE
390
0
 62
       212
100
AcDbMText
 10
78.387375
 20
161.2433169887
 30
0.0
 40
1.9125
 41
0.0
 71
         5
 72
         1
  1
\W1.356636;\A1;26
  7
Arial
 11
0.0
 21
1.0
 31
0.0
 73
         0
 44
0.0
  0
ENDBLK
  5
103
100
AcDbEntity
  8
0
390
0
100
AcDbBlockEnd
  0
BLOCK
  5
105
100
AcDbEntity
  8
BEMASSUNG
390
0
100
AcDbBlockBegin
  2
D399215360
 70
         0
 10
0.0
 20
0.0
 30
0.0
  3
D399215360
  1

  0
LINE
  5
106
100
AcDbEntity
  8
MASSLINIEN
390
0
 62
       172
100
AcDbLine
 10
82.0001636364
 20
134.1937738838
 30
0.0
 11
82.0001636364
 21
56.1937738838
 31
0.0
  0
LINE
  5
107
100
AcDbEntity
  8
MASSLINIEN
390
0
 62
       172
100
AcDbLine
 10
57.3797578214
 20
134.1937738838
 30
0.0
 11
84.0001636364
 21
134.1937738838
 31
0.0
  0
LINE
  5
108
100
AcDbEntity
  8
MASSLINIEN
390
0
 62
       172
100
AcDbLine
 10
57.3797578214
 20
56.1937738838
 30
0.0
 11
84.0001636364
 21
56.1937738838
 31
0.0
  0
SOLID
  5
109
100
AcDbEntity
  8
MASSGRENZEN
390
0
100
AcDbTrace
 10
82.0001636364
 20
134.1937738838
 30
0.0
 11
82.3917422131
 21
131.2194392996
 31
0.0
 12
81.6085850597
 22
131.2194392996
 32
0.0
 13
81.6085850597
 23
131.2194392996
 33
0.0
  0
SOLID
  5
10A
100
AcDbEntity
  8
MASSGRENZEN
390
0
100
AcDbTrace
 10
82.0001636364
 20
56.1937738838
 30
0.0
 11
81.6085850597
 21
59.1681084679
 31
0.0
 12
82.3917422131
 22
59.1681084679
 32
0.0
 13
82.3917422131
 23
59.1681084679
 33
0.0
  0
MTEXT
  5
10B
100
AcDbEntity
  8
MASSTEXTE
390
0
 62
       212
100
AcDbMText
 10
78.3875386364
 20
95.1937738838
 30
0.0
 40
1.9125
 41
0.0
 71
         5
 72
         1
  1
\W1.356636;\A1;78
  7
Arial
 11
0.0
 21
1.0
 31
0.0
 73
         0
 44
0.0
  0
ENDBLK
  5
10C
100
AcDbEntity
  8
0
390
0
100
AcDbBlockEnd
  0
BLOCK
  5
10E
100
AcDbEntity
  8
BEMASSUNG
390
0
100
AcDbBlockBegin
  2
D399207168
 70
         0
 10
0.0
 20
0.0
 30
0.0
  3
D399207168
  1

  0
LINE
  5
10F
100
AcDbEntity
  8
MASSLINIEN
390
0
 62
       172
100
AcDbLine
 10
172.0
 20
109.2433169887
 30
0.0
 11
172.0
 21
87.2433169887
 31
0.0
  0
LINE
  5
110
100
AcDbEntity
  8
MASSLINIEN
390
0
 62
       172
100
AcDbLine
 10
162.0
 20
109.2433169887
 30
0.0
 11
174.0
 21
109.2433169887
 31
0.0
  0
LINE
  5
111
100
AcDbEntity
  8
MASSLINIEN
390
0
 62
       172
100
AcDbLine
 10
162.0
 20
87.2433169887
 30
0.0
 11
174.0
 21
87.2433169887
 31
0.0
  0
SOLID
  5
112
100
AcDbEntity
  8
MASSGRENZEN
390
0
100
AcDbTrace
 10
172.0
 20
109.2433169887
 30
0.0
 11
172.3915785767
 21
106.2689824046
 31
0.0
 12
171.6084214233
 22
106.2689824046
 32
0.0
 13
171.6084214233
 23
106.2689824046
 33
0.0
  0
SOLID
  5
113
100
AcDbEntity
  8
MASSGRENZEN
390
0
100
AcDbTrace
 10
172.0
 20
87.2433169887
 30
0.0
 11
171.6084214233
 21
90.2176515728
 31
0.0
 12
172.3915785767
 22
90.2176515728
 32
0.0
 13
172.3915785767
 23
90.2176515728
 33
0.0
  0
MTEXT
  5
114
100
AcDbEntity
  8
MASSTEXTE
390
0
 62
       212
100
AcDbMText
 10
168.387375
 20
98.2433169887
 30
0.0
 40
1.9125
 41
0.0
 71
         5
 72
         1
  1
\W1.356636;\A1;22
  7
Arial
 11
0.0
 21
1.0
 31
0.0
 73
         0
 44
0.0
  0
ENDBLK
  5
115
100
AcDbEntity
  8
0
390
0
100
AcDbBlockEnd
  0
BLOCK
  5
117
100
AcDbEntity
  8
BEMASSUNG
390
0
100
AcDbBlockBegin
  2
D399213568
 70
         0
 10
0.0
 20
0.0
 30
0.0
  3
D399213568
  1

  0
LINE
  5
118
100
AcDbEntity
  8
MASSLINIEN
390
0
 62
       172
100
AcDbLine
 10
172.0
 20
174.2433169887
 30
0.0
 11
172.0
 21
141.2009231392
 31
0.0
  0
LINE
  5
119
100
AcDbEntity
  8
MASSLINIEN
390
0
 62
       172
100
AcDbLine
 10
102.0
 20
174.2433169887
 30
0.0
 11
174.0
 21
174.2433169887
 31
0.0
  0
LINE
  5
11A
100
AcDbEntity
  8
MASSLINIEN
390
0
 62
       172
100
AcDbLine
 10
102.0
 20
141.2009231392
 30
0.0
 11
174.0
 21
141.2009231392
 31
0.0
  0
SOLID
  5
11B
100
AcDbEntity
  8
MASSGRENZEN
390
0
100
AcDbTrace
 10
172.0
 20
174.2433169887
 30
0.0
 11
172.3915785767
 21
171.2689824046
 31
0.0
 12
171.6084214233
 22
171.2689824046
 32
0.0
 13
171.6084214233
 23
171.2689824046
 33
0.0
  0
SOLID
  5
11C
100
AcDbEntity
  8
MASSGRENZEN
390
0
100
AcDbTrace
 10
172.0
 20
141.2009231392
 30
0.0
 11
171.6084214233
 21
144.1752577234
 31
0.0
 12
172.3915785767
 22
144.1752577234
 32
0.0
 13
172.3915785767
 23
144.1752577234
 33
0.0
  0
MTEXT
  5
11D
100
AcDbEntity
  8
MASSTEXTE
390
0
 62
       212
100
AcDbMText
 10
168.387375
 20
157.722120064
 30
0.0
 40
1.9125
 41
0.0
 71
         5
 72
         1
  1
\W1.356637;\A1;33
  7
Arial
 11
0.0
 21
1.0
 31
0.0
 73
         0
 44
0.0
  0
ENDBLK
  5
11E
100
AcDbEntity
  8
0
390
0
100
AcDbBlockEnd
  0
BLOCK
  5
120
100
AcDbEntity
  8
BEMASSUNG
390
0
100
AcDbBlockBegin
  2
D399217664
 70
         0
 10
0.0
 20
0.0
 30
0.0
  3
D399217664
  1

  0
LINE
  5
121
100
AcDbEntity
  8
MASSLINIEN
390
0
 62
       172
100
AcDbLine
 10
102.0
 20
128.0
 30
0.0
 11
162.0
 21
128.0
 31
0.0
  0
LINE
  5
122
100
AcDbEntity
  8
MASSLINIEN
390
0
 62
       172
100
AcDbLine
 10
102.0
 20
82.0
 30
0.0
 11
102.0
 21
130.0
 31
0.0
  0
LINE
  5
123
100
AcDbEntity
  8
MASSLINIEN
390
0
 62
       172
100
AcDbLine
 10
162.0
 20
174.2433169887
 30
0.0
 11
162.0
 21
130.0
 31
0.0
  0
SOLID
  5
124
100
AcDbEntity
  8
MASSGRENZEN
390
0
100
AcDbTrace
 10
102.0
 20
128.0
 30
0.0
 11
104.9743345841
 21
128.3915785767
 31
0.0
 12
104.9743345841
 22
127.6084214233
 32
0.0
 13
104.9743345841
 23
127.6084214233
 33
0.0
  0
SOLID
  5
125
100
AcDbEntity
  8
MASSGRENZEN
390
0
100
AcDbTrace
 10
162.0
 20
128.0
 30
0.0
 11
159.0256654159
 21
127.6084214233
 31
0.0
 12
159.0256654159
 22
128.3915785767
 32
0.0
 13
159.0256654159
 23
128.3915785767
 33
0.0
  0
MTEXT
  5
126
100
AcDbEntity
  8
MASSTEXTE
390
0
 62
       212
100
AcDbMText
 10
132.0
 20
131.612625
 30
0.0
 40
1.9125
 41
0.0
 71
         5
 72
         1
  1
\W1.356636;\A1;60
  7
Arial
 11
1.0
 21
0.0
 31
0.0
 73
         0
 44
0.0
  0
ENDBLK
  5
127
100
AcDbEntity
  8
0
390
0
100
AcDbBlockEnd
  0
BLOCK
  5
129
100
AcDbEntity
  8
BEMASSUNG
390
0
100
AcDbBlockBegin
  2
D399213312
 70
         0
 10
0.0
 20
0.0
 30
0.0
  3
D399213312
  1

  0
LINE
  5
12A
100
AcDbEntity
  8
MASSLINIEN
390
0
 62
       172
100
AcDbLine
 10
264.0
 20
174.2433169885
 30
0.0
 11
264.0
 21
95.2
 31
0.0
  0
LINE
  5
12B
100
AcDbEntity
  8
MASSLINIEN
390
0
 62
       172
100
AcDbLine
 10
243.0
 20
174.2433169885
 30
0.0
 11
266.0
 21
174.2433169885
 31
0.0
  0
LINE
  5
12C
100
AcDbEntity
  8
MASSLINIEN
390
0
 62
       172
100
AcDbLine
 10
243.0
 20
95.2
 30
0.0
 11
266.0
 21
95.2
 31
0.0
  0
SOLID
  5
12D
100
AcDbEntity
  8
MASSGRENZEN
390
0
100
AcDbTrace
 10
264.0
 20
174.2433169885
 30
0.0
 11
264.3915785767
 21
171.2689824043
 31
0.0
 12
263.6084214233
 22
171.2689824043
 32
0.0
 13
263.6084214233
 23
171.2689824043
 33
0.0
  0
SOLID
  5
12E
100
AcDbEntity
  8
MASSGRENZEN
390
0
100
AcDbTrace
 10
264.0
 20
95.2
 30
0.0
 11
263.6084214233
 21
98.1743345841
 31
0.0
 12
264.3915785767
 22
98.1743345841
 32
0.0
 13
264.3915785767
 23
98.1743345841
 33
0.0
  0
MTEXT
  5
12F
100
AcDbEntity
  8
MASSTEXTE
390
0
 62
       212
100
AcDbMText
 10
260.387375
 20
134.7216584942
 30
0.0
 40
1.9125
 41
0.0
 71
         5
 72
         1
  1
\W1.356636;\A1;79
  7
Arial
 11
0.0
 21
1.0
 31
0.0
 73
         0
 44
0.0
  0
ENDBLK
  5
130
100
AcDbEntity
  8
0
390
0
100
AcDbBlockEnd
  0
ENDSEC
  0
SECTION
  2
ENTITIES
  0
TEXT
  5
131
100
AcDbEntity
  8
BESCHRIFTUNG
390
0
100
AcDbText
 10
215.3145333333
 20
29.3230888889
 30
0.0
 40
3.3
  1
2026-09-17
 41
1.0318366289
  7
Arial
 11
215.3145333333
 21
32.6230888889
 31
0.0
100
AcDbText
 73
         3
  0
TEXT
  5
132
100
AcDbEntity
  8
BESCHRIFTUNG
390
0
100
AcDbText
 10
215.3145333333
 20
6.9230888889
 30
0.0
 40
3.3
  1
3301 P.8h Gruppenverschluss JE
 41
0.982787123
  7
Arial
 11
215.3145333333
 21
10.2230888889
 31
0.0
100
AcDbText
 73
         3
  0
ARC
  5
133
100
AcDbEntity
  8
1088___ VORLAGEN
390
0
  6
DASHDOT
100
AcDbCircle
 10
77.1610906914
 20
161.2433169887
 30
0.0
 40
37.1315566496
100
AcDbArc
 50
159.5061696428
 51
200.4938303572
  0
MTEXT
  5
134
100
AcDbEntity
  8
1088___ VORLAGEN
390
0
100
AcDbMText
 10
39.8519214712
 20
161.5979243243
 30
0.0
 40
2.0
 41
0.0
 71
         5
 72
         1
  1
\W0.972809;>3301.20L\PM15x15x2\PT2 O2
  7
Arial
 11
1.0
 21
0.0
 31
0.0
 73
         1
 44
0.66
  0
MTEXT
  5
135
100
AcDbEntity
  8
3301_20L # GRUPPENVERSCHLUSSANTRIEB
390
0
100
AcDbMText
 10
42.3296047232
 20
175.2427096228
 30
0.0
 40
2.0
 41
0.0
 71
         5
 72
         1
  1
\W0.972813;M15x15x2 \PT2 O2 F150\PB-0.3    D1.2\PI1.2 P4 U20
  7
Arial
 73
         1
 44
0.66
  0
TEXT
  5
136
100
AcDbEntity
  8
BESCHRIFTUNG
390
0
100
AcDbText
 10
29.8663186533
 20
182.653979889
 30
0.0
 40
2.5
  1
3301.20L,R
 41
1.1351077638
  7
Arial
 72
         1
 11
41.8568936225
 21
183.903979889
 31
0.0
100
AcDbText
 73
         2
  0
CIRCLE
  5
137
100
AcDbEntity
  8
3301_20L # GRUPPENVERSCHLUSSANTRIEB
390
0
  6
PHANTOM
100
AcDbCircle
 10
42.379594185
 20
174.2433169887
 30
0.0
 40
0.5
  0
CIRCLE
  5
138
100
AcDbEntity
  8
3301_20L # GRUPPENVERSCHLUSSANTRIEB
390
0
  6
PHANTOM
100
AcDbCircle
 10
42.379594185
 20
148.2433169887
 30
0.0
 40
1.0
  0
LINE
  5
139
100
AcDbEntity
  8
3301_20L # GRUPPENVERSCHLUSSANTRIEB
390
0
  6
DIVIDE
100
AcDbLine
 10
42.379594185
 20
174.2433169887
 30
0.0
 11
57.3949018926
 21
174.2433169887
 31
0.0
  0
LINE
  5
13A
100
AcDbEntity
  8
3301_20L # GRUPPENVERSCHLUSSANTRIEB
390
0
  6
DIVIDE
100
AcDbLine
 10
42.379594185
 20
148.2433169887
 30
0.0
 11
57.379594185
 21
148.2433169887
 31
0.0
  0
MTEXT
  5
13B
100
AcDbEntity
  8
1088___ VORLAGEN
390
0
100
AcDbMText
 10
95.0927331012
 20
157.5979243243
 30
0.0
 40
2.0
 41
0.0
 71
         5
 72
         1
  1
\W0.972838;>3301.21P\PM60x2\PT2 O2
  7
Arial
 11
1.0
 21
0.0
 31
0.0
 73
         1
 44
0.66
  0
CIRCLE
  5
13C
100
AcDbEntity
  8
3301_21P # GRUPPENVERSCHLUSSSPERRSCHWINGE
390
0
  6
PHANTOM
100
AcDbCircle
 10
102.0
 20
141.2009231392
 30
0.0
 40
1.0
  0
CIRCLE
  5
13D
100
AcDbEntity
  8
3301_21P # GRUPPENVERSCHLUSSSPERRSCHWINGE
390
0
  6
PHANTOM
100
AcDbCircle
 10
102.0
 20
174.2433169887
 30
0.0
 40
0.5
  0
MTEXT
  5
13E
100
AcDbEntity
  8
3301_21P # GRUPPENVERSCHLUSSSPERRSCHWINGE
390
0
100
AcDbMText
 10
101.5704163532
 20
175.2427096228
 30
0.0
 40
2.0
 41
0.0
 71
         5
 72
         1
  1
\W0.972842;M60x2\PT2 O2 F150\PB-0.3    D1.2\PI1.2 P4 U20
  7
Arial
 73
         1
 44
0.66
  0
LINE
  5
13F
100
AcDbEntity
  8
3301_34P # GRUPPENVERSCHLUSSWELLE
390
0
  6
DIVIDE
100
AcDbLine
 10
243.0
 20
95.2
 30
0.0
 11
249.0
 21
95.2
 31
0.0
  0
LINE
  5
140
100
AcDbEntity
  8
3301_34P # GRUPPENVERSCHLUSSWELLE
390
0
  6
DIVIDE
100
AcDbLine
 10
243.0
 20
174.2433169885
 30
0.0
 11
249.0
 21
174.2433169885
 31
0.0
  0
MTEXT
  5
141
100
AcDbEntity
  8
1088___ VORLAGEN
390
0
100
AcDbMText
 10
236.3279810763
 20
134.5979243241
 30
0.0
 40
2.0
 41
0.0
 71
         5
 72
         1
  1
\W0.972838;>3301.34P\PMÿ6x1\PT6 O2
  7
Arial
 11
1.0
 21
0.0
 31
0.0
 73
         1
 44
0.66
  0
MTEXT
  5
142
100
AcDbEntity
  8
3301_34P # GRUPPENVERSCHLUSSWELLE
390
0
100
AcDbMText
 10
241.5704163532
 20
175.2427096224
 30
0.0
 40
2.0
 41
0.0
 71
         5
 72
         1
  1
\W0.972867;Mÿ6x1\PT6 O2 F150\PB-0.3    D4\PI1.6 P4 U20
  7
Arial
 73
         1
 44
0.66
  0
CIRCLE
  5
143
100
AcDbEntity
  8
3301_34P # GRUPPENVERSCHLUSSWELLE
390
0
  6
PHANTOM
100
AcDbCircle
 10
243.0
 20
95.2
 30
0.0
 40
1.0
  0
CIRCLE
  5
144
100
AcDbEntity
  8
3301_34P # GRUPPENVERSCHLUSSWELLE
390
0
  6
PHANTOM
100
AcDbCircle
 10
243.0
 20
174.2433169885
 30
0.0
 40
0.5
  0
ARC
  5
145
100
AcDbEntity
  8
1088___ VORLAGEN
390
0
  6
DASHDOT
100
AcDbCircle
 10
348.7401866803
 20
134.7216584942
 30
0.0
 40
112.8846693281
100
AcDbArc
 50
159.5061696428
 51
200.4938303572
  0
LINE
  5
146
100
AcDbEntity
  8
3301_20R # GRUPPENVERSCHLUSSANTRIEB
390
0
  6
DIVIDE
100
AcDbLine
 10
57.379594185
 20
148.2433169887
 30
0.0
 11
67.5350579305
 21
148.2433169887
 31
0.0
  0
LINE
  5
147
100
AcDbEntity
  8
3301_20R # GRUPPENVERSCHLUSSANTRIEB
390
0
  6
DIVIDE
100
AcDbLine
 10
59.0
 20
174.2433169887
 30
0.0
 11
67.5350579305
 21
174.2433169887
 31
0.0
  0
CIRCLE
  5
148
100
AcDbEntity
  8
3301_20R # GRUPPENVERSCHLUSSANTRIEB
390
0
  6
PHANTOM
100
AcDbCircle
 10
57.379594185
 20
148.2433169887
 30
0.0
 40
1.0
  0
CIRCLE
  5
149
100
AcDbEntity
  8
3301_20R # GRUPPENVERSCHLUSSANTRIEB
390
0
  6
PHANTOM
100
AcDbCircle
 10
57.3797578214
 20
174.2433169887
 30
0.0
 40
0.5
  0
TEXT
  5
14A
100
AcDbEntity
  8
3301_20R # GRUPPENVERSCHLUSSANTRIEB
390
0
100
AcDbText
 10
51.9500105382
 20
174.9993926341
 30
0.0
 40
2.0
  1
@3301.20L
 41
0.9728321584
  7
Arial
100
AcDbText
  0
TEXT
  5
14B
100
AcDbEntity
  8
BESCHRIFTUNG
390
0
100
AcDbText
 10
85.9185243983
 20
182.4106629003
 30
0.0
 40
2.5
  1
3301.21P
 41
1.1351045359
  7
Arial
 72
         1
 11
95.4772994375
 21
183.6606629003
 31
0.0
100
AcDbText
 73
         2
  0
TEXT
  5
14C
100
AcDbEntity
  8
BESCHRIFTUNG
390
0
100
AcDbText
 10
91.9505275917
 20
119.653979889
 30
0.0
 40
2.5
  1
3301.22P
 41
1.135104441
  7
Arial
 72
         1
 11
101.8568936225
 21
120.903979889
 31
0.0
100
AcDbText
 73
         2
  0
LINE
  5
14D
100
AcDbEntity
  8
MITTELLINIEN
390
0
100
AcDbLine
 10
42.379594185
 20
51.2433169887
 30
0.0
 11
42.379594185
 21
179.2433169887
 31
0.0
  0
LINE
  5
14E
100
AcDbEntity
  8
MITTELLINIEN
390
0
100
AcDbLine
 10
72.379594185
 20
51.2433169887
 30
0.0
 11
72.379594185
 21
179.0
 31
0.0
  0
LINE
  5
14F
100
AcDbEntity
  8
MITTELLINIEN
390
0
100
AcDbLine
 10
102.0
 20
179.2433169887
 30
0.0
 11
102.0
 21
77.0
 31
0.0
  0
CIRCLE
  5
150
100
AcDbEntity
  8
3301_20R # GRUPPENVERSCHLUSSANTRIEB
390
0
100
AcDbCircle
 10
62.579594185
 20
161.2433169887
 30
0.0
 40
3.2
  0
ARC
  5
151
100
AcDbEntity
  8
3301 GRUPPENVERSCHLUSS
390
0
100
AcDbCircle
 10
101.7314574737
 20
158.122120064
 30
0.0
 40
3.3199372501
100
AcDbArc
 50
274.6396001553
 51
445.3603998447
  0
CIRCLE
  5
152
100
AcDbEntity
  8
3301_20R # GRUPPENVERSCHLUSSANTRIEB
390
0
100
AcDbCircle
 10
67.4962892967
 20
169.0949662097
 30
0.0
 40
1.25
  0
ARC
  5
153
100
AcDbEntity
  8
3301 GRUPPENVERSCHLUSS
390
0
100
AcDbCircle
 10
101.7314576317
 20
158.1221199936
 30
0.0
 40
20.9999998283
100
AcDbArc
 50
328.5121520328
 51
342.1866899884
  0
ARC
  5
154
100
AcDbEntity
  8
3301 GRUPPENVERSCHLUSS
390
0
100
AcDbCircle
 10
101.7314574782
 20
158.1221200649
 30
0.0
 40
14.4999999957
100
AcDbArc
 50
345.4386914944
 51
374.5613084989
  0
ARC
  5
155
100
AcDbEntity
  8
3301 GRUPPENVERSCHLUSS
390
0
100
AcDbCircle
 10
101.7314576317
 20
158.1221199936
 30
0.0
 40
24.9999998283
100
AcDbArc
 50
322.7821038903
 51
348.8736149486
  0
ARC
  5
156
100
AcDbEntity
  8
3301 GRUPPENVERSCHLUSS
390
0
100
AcDbCircle
 10
101.7314574731
 20
158.122120064
 30
0.0
 40
6.0185425268
100
AcDbArc
 50
321.6458486064
 51
398.3541513936
  0
ARC
  5
157
100
AcDbEntity
  8
3301 GRUPPENVERSCHLUSS
390
0
100
AcDbCircle
 10
67.514623883
 20
169.113300796
 30
0.0
 40
4.1300568893
100
AcDbArc
 50
352.0686440397
 51
449.7456456671
  0
ARC
  5
158
100
AcDbEntity
  8
3301 GRUPPENVERSCHLUSS
390
0
100
AcDbCircle
 10
67.514623883
 20
153.3733331814
 30
0.0
 40
4.1300568893
100
AcDbArc
 50
270.2543543329
 51
367.9313559603
  0
CIRCLE
  5
159
100
AcDbEntity
  8
3301_20R # GRUPPENVERSCHLUSSANTRIEB
390
0
100
AcDbCircle
 10
67.4962892967
 20
153.3916677677
 30
0.0
 40
1.25
  0
LINE
  5
15A
100
AcDbEntity
  8
3301 GRUPPENVERSCHLUSS
390
0
100
AcDbLine
 10
119.6392277179
 20
147.1534480899
 30
0.0
 11
109.7877610376
 21
151.7472624471
 31
0.0
  0
LINE
  5
15B
100
AcDbEntity
  8
3301 GRUPPENVERSCHLUSS
390
0
  6
DASHED
100
AcDbLine
 10
59.379594185
 20
149.2433169887
 30
0.0
 11
59.379594185
 21
173.2433169887
 31
0.0
  0
LINE
  5
15C
100
AcDbEntity
  8
3301 GRUPPENVERSCHLUSS
390
0
100
AcDbLine
 10
67.5329584693
 20
173.2433169887
 30
0.0
 11
57.379594185
 21
173.2433169887
 31
0.0
  0
LINE
  5
15D
100
AcDbEntity
  8
3301 GRUPPENVERSCHLUSS
390
0
100
AcDbLine
 10
57.379594185
 20
173.2433169887
 30
0.0
 11
57.379594185
 21
149.2433169887
 31
0.0
  0
LINE
  5
15E
100
AcDbEntity
  8
3301 GRUPPENVERSCHLUSS
390
0
100
AcDbLine
 10
67.0847357116
 20
164.9664397658
 30
0.0
 11
71.6051730461
 21
168.5434083032
 31
0.0
  0
LINE
  5
15F
100
AcDbEntity
  8
3301 GRUPPENVERSCHLUSS
390
0
100
AcDbLine
 10
112.5366803966
 20
143.8451527845
 30
0.0
 11
102.0
 21
148.758487545
 31
0.0
  0
LINE
  5
160
100
AcDbEntity
  8
3301 GRUPPENVERSCHLUSS
390
0
100
AcDbLine
 10
106.4511398688
 20
161.8567488581
 30
0.0
 11
109.7877610376
 21
164.4969776809
 31
0.0
  0
LINE
  5
161
100
AcDbEntity
  8
3301 GRUPPENVERSCHLUSS
390
0
100
AcDbLine
 10
243.0
 20
173.0
 30
0.0
 11
249.0
 21
173.0
 31
0.0
  0
LINE
  5
162
100
AcDbEntity
  8
3301 GRUPPENVERSCHLUSS
390
0
100
AcDbLine
 10
126.2615550238
 20
153.2977740949
 30
0.0
 11
125.7615550237
 21
158.122120064
 31
0.0
  0
LINE
  5
163
100
AcDbEntity
  8
3301 GRUPPENVERSCHLUSS
390
0
100
AcDbLine
 10
127.3960053375
 20
147.965015232
 30
0.0
 11
143.287903902
 21
171.9250692754
 31
0.0
  0
LINE
  5
164
100
AcDbEntity
  8
3301 GRUPPENVERSCHLUSS
390
0
100
AcDbLine
 10
102.0
 20
148.758487545
 30
0.0
 11
102.0
 21
154.8130615488
 31
0.0
  0
LINE
  5
165
100
AcDbEntity
  8
3301 GRUPPENVERSCHLUSS
390
0
100
AcDbLine
 10
148.2566316739
 20
168.5612956553
 30
0.0
 11
132.3961402262
 21
144.648593803
 31
0.0
  0
LINE
  5
166
100
AcDbEntity
  8
3301 GRUPPENVERSCHLUSS
390
0
100
AcDbLine
 10
115.7657054495
 20
161.7676493453
 30
0.0
 11
121.7246828803
 21
164.5463661561
 31
0.0
  0
LINE
  5
167
100
AcDbEntity
  8
3301 GRUPPENVERSCHLUSS
390
0
100
AcDbLine
 10
125.7615550237
 20
158.122120064
 30
0.0
 11
126.2615550238
 21
162.9464660331
 31
0.0
  0
LINE
  5
168
100
AcDbEntity
  8
3301 GRUPPENVERSCHLUSS
390
0
100
AcDbLine
 10
102.0
 20
167.4857525829
 30
0.0
 11
102.0
 21
161.4311785791
 31
0.0
  0
LINE
  5
169
100
AcDbEntity
  8
3301 GRUPPENVERSCHLUSS
390
0
100
AcDbLine
 10
119.6392277179
 20
169.090792038
 30
0.0
 11
109.7877610376
 21
164.4969776809
 31
0.0
  0
LINE
  5
16A
100
AcDbEntity
  8
3301 GRUPPENVERSCHLUSS
390
0
100
AcDbLine
 10
121.6399833709
 20
143.0009231392
 30
0.0
 11
112.5366803966
 21
143.8451527845
 31
0.0
  0
LINE
  5
16B
100
AcDbEntity
  8
3301 GRUPPENVERSCHLUSS
390
0
100
AcDbLine
 10
106.4511398688
 20
154.3874912698
 30
0.0
 11
109.7877610376
 21
151.7472624471
 31
0.0
  0
LINE
  5
16C
100
AcDbEntity
  8
3301 GRUPPENVERSCHLUSS
390
0
100
AcDbLine
 10
112.5366803966
 20
172.3990873434
 30
0.0
 11
102.0
 21
167.4857525829
 31
0.0
  0
LINE
  5
16D
100
AcDbEntity
  8
3301 GRUPPENVERSCHLUSS
390
0
100
AcDbLine
 10
121.6399833709
 20
173.2433169887
 30
0.0
 11
112.5366803966
 21
172.3990873434
 31
0.0
  0
LINE
  5
16E
100
AcDbEntity
  8
3301 GRUPPENVERSCHLUSS
390
0
100
AcDbLine
 10
67.0847357116
 20
157.5201942116
 30
0.0
 11
67.0847357116
 21
164.9664397658
 31
0.0
  0
LINE
  5
16F
100
AcDbEntity
  8
3301 GRUPPENVERSCHLUSS
390
0
100
AcDbLine
 10
67.0847357116
 20
157.5201942116
 30
0.0
 11
71.6051730461
 21
153.9432256742
 31
0.0
  0
LINE
  5
170
100
AcDbEntity
  8
3301 GRUPPENVERSCHLUSS
390
0
100
AcDbLine
 10
67.5329584693
 20
149.2433169887
 30
0.0
 11
57.379594185
 21
149.2433169887
 31
0.0
  0
LINE
  5
171
100
AcDbEntity
  8
3301 GRUPPENVERSCHLUSS
390
0
100
AcDbLine
 10
115.7657054495
 20
154.4765907826
 30
0.0
 11
121.7246828803
 21
151.6978739719
 31
0.0
  0
CIRCLE
  5
172
100
AcDbEntity
  8
3301_21P # GRUPPENVERSCHLUSSSPERRSCHWINGE
390
0
100
AcDbCircle
 10
145.7722677879
 20
170.2431824654
 30
0.0
 40
1.25
  0
ARC
  5
173
100
AcDbEntity
  8
3301 GRUPPENVERSCHLUSS
390
0
100
AcDbCircle
 10
129.8803692234
 20
146.283128422
 30
0.0
 40
3.0001345235
100
AcDbArc
 50
145.9024352753
 51
326.9876058377
  0
ARC
  5
174
100
AcDbEntity
  8
3301 GRUPPENVERSCHLUSS
390
0
100
AcDbCircle
 10
145.7722677879
 20
170.2431824654
 30
0.0
 40
3.0001345236
100
AcDbArc
 50
325.9024352753
 51
506.987605976
  0
CIRCLE
  5
175
100
AcDbEntity
  8
3301_21P # GRUPPENVERSCHLUSSSPERRSCHWINGE
390
0
100
AcDbCircle
 10
129.8803692234
 20
146.283128422
 30
0.0
 40
1.25
  0
CIRCLE
  5
176
100
AcDbEntity
  8
3301_21P # GRUPPENVERSCHLUSSSPERRSCHWINGE
390
0
100
AcDbCircle
 10
139.6757014789
 20
161.2377671924
 30
0.0
 40
1.25
  0
ARC
  5
177
100
AcDbEntity
  8
3301 GRUPPENVERSCHLUSS
390
0
100
AcDbCircle
 10
101.7314576317
 20
158.1221201343
 30
0.0
 40
20.9999998283
100
AcDbArc
 50
17.8133100116
 51
31.4878479672
  0
ARC
  5
178
100
AcDbEntity
  8
3301 GRUPPENVERSCHLUSS
390
0
100
AcDbCircle
 10
101.7314576317
 20
158.1221201343
 30
0.0
 40
24.9999998283
100
AcDbArc
 50
11.1263850514
 51
37.2178961097
  0
LINE
  5
179
100
AcDbEntity
  8
3301 GRUPPENVERSCHLUSS
390
0
100
AcDbLine
 10
49.3795941849
 20
149.2433169887
 30
0.0
 11
49.3795941849
 21
173.2433169887
 31
0.0
  0
LINE
  5
17A
100
AcDbEntity
  8
3301 GRUPPENVERSCHLUSS
390
0
100
AcDbLine
 10
57.379594185
 20
149.2433169887
 30
0.0
 11
49.3795941849
 21
149.2433169887
 31
0.0
  0
LINE
  5
17B
100
AcDbEntity
  8
3301 GRUPPENVERSCHLUSS
390
0
100
AcDbLine
 10
49.3795941849
 20
173.2433169887
 30
0.0
 11
57.379594185
 21
173.2433169887
 31
0.0
  0
LINE
  5
17C
100
AcDbEntity
  8
3301 GRUPPENVERSCHLUSS
390
0
  6
DASHED
100
AcDbLine
 10
55.379594185
 20
149.2433169887
 30
0.0
 11
55.3795941849
 21
173.2433169887
 31
0.0
  0
LINE
  5
17D
100
AcDbEntity
  8
3301 GRUPPENVERSCHLUSS
390
0
100
AcDbLine
 10
246.25
 20
160.0
 30
0.0
 11
246.25
 21
162.0
 31
0.0
  0
LINE
  5
17E
100
AcDbEntity
  8
3301 GRUPPENVERSCHLUSS
390
0
100
AcDbLine
 10
243.0
 20
96.2
 30
0.0
 11
249.0
 21
96.2
 31
0.0
  0
LINE
  5
17F
100
AcDbEntity
  8
3301 GRUPPENVERSCHLUSS
390
0
100
AcDbLine
 10
249.0
 20
96.2
 30
0.0
 11
249.0
 21
173.0
 31
0.0
  0
LINE
  5
180
100
AcDbEntity
  8
3301 GRUPPENVERSCHLUSS
390
0
  6
DASHED
100
AcDbLine
 10
248.0
 20
96.2
 30
0.0
 11
248.0
 21
173.0
 31
0.0
  0
LINE
  5
181
100
AcDbEntity
  8
3301 GRUPPENVERSCHLUSS
390
0
  6
DASHED
100
AcDbLine
 10
244.0
 20
96.2
 30
0.0
 11
244.0
 21
173.0
 31
0.0
  0
LINE
  5
182
100
AcDbEntity
  8
3301 GRUPPENVERSCHLUSS
390
0
100
AcDbLine
 10
243.0
 20
96.2
 30
0.0
 11
243.0
 21
173.0
 31
0.0
  0
LINE
  5
183
100
AcDbEntity
  8
MITTELLINIEN
390
0
100
AcDbLine
 10
57.379594185
 20
51.2433169887
 30
0.0
 11
57.379594185
 21
179.2433169887
 31
0.0
  0
CIRCLE
  5
184
100
AcDbEntity
  8
3301_20L # GRUPPENVERSCHLUSSANTRIEB
390
0
100
AcDbCircle
 10
53.379594185
 20
161.2433169887
 30
0.0
 40
1.5
  0
CIRCLE
  5
185
100
AcDbEntity
  8
3301_22P # GRUPPENVERSCHLUSSSCHWINGENLAGER
390
0
100
AcDbCircle
 10
144.0
 20
102.511859515
 30
0.0
 40
3.25
  0
CIRCLE
  5
186
100
AcDbEntity
  8
3301_22P # GRUPPENVERSCHLUSSSCHWINGENLAGER
390
0
100
AcDbCircle
 10
111.0
 20
102.511859515
 30
0.0
 40
3.25
  0
CIRCLE
  5
187
100
AcDbEntity
  8
3301_22P # GRUPPENVERSCHLUSSSCHWINGENLAGER
390
0
100
AcDbCircle
 10
138.25
 20
91.2433169887
 30
0.0
 40
1.25
  0
CIRCLE
  5
188
100
AcDbEntity
  8
3301_22P # GRUPPENVERSCHLUSSSCHWINGENLAGER
390
0
100
AcDbCircle
 10
105.25
 20
91.2433169887
 30
0.0
 40
1.25
  0
ARC
  5
189
100
AcDbEntity
  8
3301 RAHMEN LƒNGS
390
0
100
AcDbCircle
 10
111.0
 20
96.2433169887
 30
0.0
 40
1.75
100
AcDbArc
 50
0.0
 51
180.0
  0
ARC
  5
18A
100
AcDbEntity
  8
3301 RAHMEN LƒNGS
390
0
100
AcDbCircle
 10
144.0
 20
96.2433169887
 30
0.0
 40
1.75
100
AcDbArc
 50
0.0
 51
180.0
  0
CIRCLE
  5
18B
100
AcDbEntity
  8
3301_22P # GRUPPENVERSCHLUSSSCHWINGENLAGER
390
0
100
AcDbCircle
 10
159.0
 20
102.511859515
 30
0.0
 40
1.25
  0
CIRCLE
  5
18C
100
AcDbEntity
  8
3301_22P # GRUPPENVERSCHLUSSSCHWINGENLAGER
390
0
100
AcDbCircle
 10
126.0
 20
102.511859515
 30
0.0
 40
1.25
  0
LINE
  5
18D
100
AcDbEntity
  8
3301 RAHMEN LƒNGS
390
0
100
AcDbLine
 10
102.0
 20
108.2433169887
 30
0.0
 11
162.0
 21
108.2433169887
 31
0.0
  0
LINE
  5
18E
100
AcDbEntity
  8
3301 RAHMEN LƒNGS
390
0
100
AcDbLine
 10
162.0
 20
108.2433169887
 30
0.0
 11
162.0
 21
88.2433169887
 31
0.0
  0
LINE
  5
18F
100
AcDbEntity
  8
3301 RAHMEN LƒNGS
390
0
100
AcDbLine
 10
162.0
 20
88.2433169887
 30
0.0
 11
145.75
 21
88.2433169887
 31
0.0
  0
LINE
  5
190
100
AcDbEntity
  8
3301 RAHMEN LƒNGS
390
0
100
AcDbLine
 10
102.0
 20
88.2433169887
 30
0.0
 11
102.0
 21
108.2433169887
 31
0.0
  0
LINE
  5
191
100
AcDbEntity
  8
3301 RAHMEN LƒNGS
390
0
100
AcDbLine
 10
119.25
 20
88.2433169887
 30
0.0
 11
112.75
 21
88.2433169887
 31
0.0
  0
LINE
  5
192
100
AcDbEntity
  8
3301 RAHMEN LƒNGS
390
0
100
AcDbLine
 10
142.25
 20
88.2433169887
 30
0.0
 11
112.75
 21
88.2433169887
 31
0.0
  0
LINE
  5
193
100
AcDbEntity
  8
3301 RAHMEN LƒNGS
390
0
100
AcDbLine
 10
109.25
 20
88.2433169887
 30
0.0
 11
102.0
 21
88.2433169887
 31
0.0
  0
LINE
  5
194
100
AcDbEntity
  8
3301 RAHMEN LƒNGS
390
0
100
AcDbLine
 10
109.25
 20
96.2433169887
 30
0.0
 11
109.25
 21
88.2433169887
 31
0.0
  0
LINE
  5
195
100
AcDbEntity
  8
3301 RAHMEN LƒNGS
390
0
100
AcDbLine
 10
112.75
 20
96.2433169887
 30
0.0
 11
112.75
 21
88.2433169887
 31
0.0
  0
LINE
  5
196
100
AcDbEntity
  8
3301 RAHMEN LƒNGS
390
0
100
AcDbLine
 10
142.25
 20
96.2433169887
 30
0.0
 11
142.25
 21
88.2433169887
 31
0.0
  0
LINE
  5
197
100
AcDbEntity
  8
3301 RAHMEN LƒNGS
390
0
100
AcDbLine
 10
145.75
 20
96.2433169887
 30
0.0
 11
145.75
 21
88.2433169887
 31
0.0
  0
LINE
  5
198
100
AcDbEntity
  8
MITTELLINIEN
390
0
100
AcDbLine
 10
191.0
 20
173.0
 30
0.0
 11
191.0
 21
159.0000000004
 31
0.0
  0
LINE
  5
199
100
AcDbEntity
  8
3301 FAHRSTRAﬂENSCHIEBERANTRIEB
390
0
  6
DASHED
100
AcDbLine
 10
192.5
 20
168.0
 30
0.0
 11
192.5
 21
164.0000000004
 31
0.0
  0
LINE
  5
19A
100
AcDbEntity
  8
3301 FAHRSTRAﬂENSCHIEBERANTRIEB
390
0
100
AcDbLine
 10
193.0
 20
168.0
 30
0.0
 11
193.0
 21
164.0000000004
 31
0.0
  0
LINE
  5
19B
100
AcDbEntity
  8
3301 FAHRSTRAﬂENSCHIEBERANTRIEB
390
0
100
AcDbLine
 10
189.0
 20
168.0
 30
0.0
 11
189.0
 21
164.0000000004
 31
0.0
  0
LINE
  5
19C
100
AcDbEntity
  8
3301 FAHRSTRAﬂENSCHIEBERANTRIEB
390
0
  6
DASHED
100
AcDbLine
 10
189.5
 20
168.0
 30
0.0
 11
189.5
 21
164.0000000004
 31
0.0
  0
LINE
  5
19D
100
AcDbEntity
  8
3301 FAHRSTRAﬂENSCHIEBERANTRIEB
390
0
100
AcDbLine
 10
189.0
 20
168.0
 30
0.0
 11
193.0
 21
168.0
 31
0.0
  0
LINE
  5
19E
100
AcDbEntity
  8
3301 FAHRSTRAﬂENSCHIEBERANTRIEB
390
0
100
AcDbLine
 10
189.0
 20
164.0000000004
 30
0.0
 11
193.0
 21
164.0000000004
 31
0.0
  0
TEXT
  5
19F
100
AcDbEntity
  8
BESCHRIFTUNG
390
0
  6
DASHDOT
100
AcDbText
 10
181.9237840989
 20
182.0198890629
 30
0.0
 40
1.9125
  1
3301.24µ/4
 41
1.3565769894
  7
Arial
 72
         1
 11
193.5407400342
 21
182.9761390629
 31
0.0
100
AcDbText
 73
         2
  0
INSERT
  5
1A0
100
AcDbEntity
  8
BEMASSUNG
390
0
100
AcDbBlockReference
  2
D399217920
 10
0.0
 20
0.0
 30
0.0
  0
CIRCLE
  5
1A1
100
AcDbEntity
  8
3301_20M # 3 GRUPPENVERSCHLUSSANTRIEBE
390
0
  6
PHANTOM
100
AcDbCircle
 10
42.379594185
 20
134.2433169887
 30
0.0
 40
0.5
  0
CIRCLE
  5
1A2
100
AcDbEntity
  8
3301_20M # 3 GRUPPENVERSCHLUSSANTRIEBE
390
0
  6
PHANTOM
100
AcDbCircle
 10
42.379594185
 20
56.2433169887
 30
0.0
 40
1.0
  0
CIRCLE
  5
1A3
100
AcDbEntity
  8
3301_20S # 3 GRUPPENVERSCHLUSSANTRIEBE
390
0
  6
PHANTOM
100
AcDbCircle
 10
57.3797578214
 20
56.1937738838
 30
0.0
 40
1.0
  0
CIRCLE
  5
1A4
100
AcDbEntity
  8
3301_20S # 3 GRUPPENVERSCHLUSSANTRIEBE
390
0
  6
PHANTOM
100
AcDbCircle
 10
57.3797578214
 20
134.1937738838
 30
0.0
 40
0.5
  0
LINE
  5
1A5
100
AcDbEntity
  8
MITTELLINIEN
390
0
100
AcDbLine
 10
162.0
 20
179.2433169887
 30
0.0
 11
162.0
 21
77.0
 31
0.0
  0
TEXT
  5
1A6
100
AcDbEntity
  8
BESCHRIFTUNG
390
0
100
AcDbText
 10
225.95052577
 20
181.653979889
 30
0.0
 40
2.5
  1
3301.34P
 41
1.1351046498
  7
Arial
 72
         1
 11
235.8568936225
 21
182.903979889
 31
0.0
100
AcDbText
 73
         2
  0
LINE
  5
1A7
100
AcDbEntity
  8
MITTELLINIEN
390
0
100
AcDbLine
 10
243.0
 20
179.2433169885
 30
0.0
 11
243.0
 21
91.0
 31
0.0
  0
CIRCLE
  5
1A8
100
AcDbEntity
  8
3301_34P # GRUPPENVERSCHLUSSWELLE
390
0
100
AcDbCircle
 10
246.0
 20
153.0
 30
0.0
 40
1.25
  0
CIRCLE
  5
1A9
100
AcDbEntity
  8
3301_34P # GRUPPENVERSCHLUSSWELLE
390
0
100
AcDbCircle
 10
246.0
 20
142.0
 30
0.0
 40
1.25
  0
CIRCLE
  5
1AA
100
AcDbEntity
  8
3301_34P # GRUPPENVERSCHLUSSWELLE
390
0
100
AcDbCircle
 10
246.0
 20
131.0
 30
0.0
 40
1.25
  0
CIRCLE
  5
1AB
100
AcDbEntity
  8
3301_34P # GRUPPENVERSCHLUSSWELLE
390
0
100
AcDbCircle
 10
246.0
 20
120.0
 30
0.0
 40
1.25
  0
CIRCLE
  5
1AC
100
AcDbEntity
  8
3301_34P # GRUPPENVERSCHLUSSWELLE
390
0
100
AcDbCircle
 10
246.0
 20
108.0
 30
0.0
 40
1.25
  0
CIRCLE
  5
1AD
100
AcDbEntity
  8
3301_34P # GRUPPENVERSCHLUSSWELLE
390
0
100
AcDbCircle
 10
246.0
 20
100.0
 30
0.0
 40
1.25
  0
LINE
  5
1AE
100
AcDbEntity
  8
3301_34P # GRUPPENVERSCHLUSSWELLE
390
0
  6
DASHED
100
AcDbLine
 10
249.0
 20
174.2433169885
 30
0.0
 11
246.0
 21
153.0
 31
0.0
  0
LINE
  5
1AF
100
AcDbEntity
  8
3301_34P # GRUPPENVERSCHLUSSWELLE
390
0
  6
DASHED
100
AcDbLine
 10
246.0
 20
153.0
 30
0.0
 11
246.0
 21
142.0
 31
0.0
  0
LINE
  5
1B0
100
AcDbEntity
  8
3301_34P # GRUPPENVERSCHLUSSWELLE
390
0
  6
DASHED
100
AcDbLine
 10
246.0
 20
131.0
 30
0.0
 11
246.0
 21
120.0
 31
0.0
  0
LINE
  5
1B1
100
AcDbEntity
  8
3301_34P # GRUPPENVERSCHLUSSWELLE
390
0
  6
DASHED
100
AcDbLine
 10
246.0
 20
108.0
 30
0.0
 11
246.0
 21
100.0
 31
0.0
  0
LINE
  5
1B2
100
AcDbEntity
  8
3301_34P # GRUPPENVERSCHLUSSWELLE
390
0
  6
DASHED
100
AcDbLine
 10
246.0
 20
100.0
 30
0.0
 11
249.0
 21
95.2
 31
0.0
  0
ARC
  5
1B3
100
AcDbEntity
  8
3301_34P # GRUPPENVERSCHLUSSWELLE
390
0
  6
DASHED
100
AcDbCircle
 10
231.5
 20
136.5
 30
0.0
 40
15.5080624193
100
AcDbArc
 50
339.227745318
 51
380.772254682
  0
ARC
  5
1B4
100
AcDbEntity
  8
3301_34P # GRUPPENVERSCHLUSSWELLE
390
0
  6
DASHED
100
AcDbCircle
 10
228.5
 20
114.0
 30
0.0
 40
18.5
100
AcDbArc
 50
341.0753555839
 51
378.9246444161
  0
ARC
  5
1B5
100
AcDbEntity
  8
3301___ VERSCHLUSSREGISTER
390
0
  6
DASHDOT
100
AcDbCircle
 10
121.1194126493
 20
157.722120064
 30
0.0
 40
25.2685948933
100
AcDbArc
 50
139.1695110892
 51
220.8304889108
  0
LINE
  5
1B6
100
AcDbEntity
  8
3301_21P # GRUPPENVERSCHLUSSSPERRSCHWINGE
390
0
100
AcDbLine
 10
112.2714364247
 20
173.378779967
 30
0.0
 11
101.5773817383
 21
168.3920603699
 31
0.0
  0
ARC
  5
1B7
100
AcDbEntity
  8
3301_21P # GRUPPENVERSCHLUSSSPERRSCHWINGE
390
0
100
AcDbCircle
 10
101.7314576317
 20
158.1221201343
 30
0.0
 40
25.9999998283
100
AcDbArc
 50
10.7930226386
 51
38.4497863298
  0
LINE
  5
1B8
100
AcDbEntity
  8
3301_21P # GRUPPENVERSCHLUSSSPERRSCHWINGE
390
0
100
AcDbLine
 10
126.7669114059
 20
158.122120064
 30
0.0
 11
127.2715190843
 21
162.9909241017
 31
0.0
  0
ARC
  5
1B9
100
AcDbEntity
  8
3301_21P # GRUPPENVERSCHLUSSSPERRSCHWINGE
390
0
100
AcDbCircle
 10
101.7314576317
 20
158.1221199936
 30
0.0
 40
25.9999998283
100
AcDbArc
 50
321.5502136702
 51
349.2069773614
  0
LINE
  5
1BA
100
AcDbEntity
  8
3301_21P # GRUPPENVERSCHLUSSSPERRSCHWINGE
390
0
100
AcDbLine
 10
112.2714364247
 20
142.8654601609
 30
0.0
 11
101.5773817383
 21
147.852179758
 31
0.0
  0
ARC
  5
1BB
100
AcDbEntity
  8
3301_21P # GRUPPENVERSCHLUSSSPERRSCHWINGE
390
0
100
AcDbCircle
 10
101.7314574737
 20
158.122120064
 30
0.0
 40
2.3199372501
100
AcDbArc
 50
276.6471291901
 51
445.3603998447
  0
ARC
  5
1BC
100
AcDbEntity
  8
3301_21P # GRUPPENVERSCHLUSSSPERRSCHWINGE
390
0
100
AcDbCircle
 10
101.7314574731
 20
158.122120064
 30
0.0
 40
7.0185425268
100
AcDbArc
 50
329.8372112888
 51
390.1627887112
  0
LINE
  5
1BD
100
AcDbEntity
  8
3301_21P # GRUPPENVERSCHLUSSSPERRSCHWINGE
390
0
100
AcDbLine
 10
107.7996985412
 20
161.6486466184
 30
0.0
 11
110.3164783906
 21
163.6401447126
 31
0.0
  0
LINE
  5
1BE
100
AcDbEntity
  8
3301_21P # GRUPPENVERSCHLUSSSPERRSCHWINGE
390
0
100
AcDbLine
 10
119.2346718036
 20
167.7987665981
 30
0.0
 11
110.3164783906
 21
163.6401447126
 31
0.0
  0
ARC
  5
1BF
100
AcDbEntity
  8
3301_21P # GRUPPENVERSCHLUSSSPERRSCHWINGE
390
0
100
AcDbCircle
 10
101.7314576317
 20
158.1221201343
 30
0.0
 40
19.9999998283
100
AcDbArc
 50
20.3333780968
 51
28.9359979661
  0
LINE
  5
1C0
100
AcDbEntity
  8
3301_21P # GRUPPENVERSCHLUSSSPERRSCHWINGE
390
0
100
AcDbLine
 10
114.5650807934
 20
162.3111667925
 30
0.0
 11
120.4851907797
 21
165.0717594163
 31
0.0
  0
ARC
  5
1C1
100
AcDbEntity
  8
3301_21P # GRUPPENVERSCHLUSSSPERRSCHWINGE
390
0
100
AcDbCircle
 10
101.7314574782
 20
158.1221200649
 30
0.0
 40
13.4999999957
100
AcDbArc
 50
341.9227037883
 51
378.0772962046
  0
LINE
  5
1C2
100
AcDbEntity
  8
3301_21P # GRUPPENVERSCHLUSSSPERRSCHWINGE
390
0
100
AcDbLine
 10
114.5650807928
 20
153.9330733356
 30
0.0
 11
120.4851907797
 21
151.1724807117
 31
0.0
  0
ARC
  5
1C3
100
AcDbEntity
  8
3301_21P # GRUPPENVERSCHLUSSSPERRSCHWINGE
390
0
100
AcDbCircle
 10
101.7314576317
 20
158.1221199936
 30
0.0
 40
19.9999998283
100
AcDbArc
 50
331.0640020339
 51
339.6666219032
  0
LINE
  5
1C4
100
AcDbEntity
  8
3301_21P # GRUPPENVERSCHLUSSSPERRSCHWINGE
390
0
100
AcDbLine
 10
119.2346718036
 20
148.4454735299
 30
0.0
 11
110.3164783906
 21
152.6040954153
 31
0.0
  0
LINE
  5
1C5
100
AcDbEntity
  8
3301_21P # GRUPPENVERSCHLUSSSPERRSCHWINGE
390
0
100
AcDbLine
 10
107.7996985412
 20
154.5955935095
 30
0.0
 11
110.3164783906
 21
152.6040954153
 31
0.0
  0
LINE
  5
1C6
100
AcDbEntity
  8
3301_21P # GRUPPENVERSCHLUSSSPERRSCHWINGE
390
0
100
AcDbLine
 10
126.562649522
 20
148.5177521358
 30
0.0
 11
142.456977385
 21
172.4814688078
 31
0.0
  0
LINE
  5
1C7
100
AcDbEntity
  8
3301_21P # GRUPPENVERSCHLUSSSPERRSCHWINGE
390
0
100
AcDbLine
 10
149.0875581909
 20
168.0048961229
 30
0.0
 11
133.2319253394
 21
144.0995195269
 31
0.0
  0
ARC
  5
1C8
100
AcDbEntity
  8
3301_21P # GRUPPENVERSCHLUSSSPERRSCHWINGE
390
0
100
AcDbCircle
 10
145.7722677879
 20
170.2431824654
 30
0.0
 40
4.0001345236
100
AcDbArc
 50
325.9751257337
 51
408.5911061717
  0
ARC
  5
1C9
100
AcDbEntity
  8
3301_21P # GRUPPENVERSCHLUSSSPERRSCHWINGE
390
0
100
AcDbCircle
 10
129.8803692234
 20
146.283128422
 30
0.0
 40
4.0001345235
100
AcDbArc
 50
146.0384259207
 51
235.1372551227
  0
LINE
  5
1CA
100
AcDbEntity
  8
3301_21P # GRUPPENVERSCHLUSSSPERRSCHWINGE
390
0
  6
DIVIDE
100
AcDbLine
 10
122.0934465278
 20
174.2896616688
 30
0.0
 11
112.2714364247
 21
173.378779967
 31
0.0
  0
LINE
  5
1CB
100
AcDbEntity
  8
3301_21P # GRUPPENVERSCHLUSSSPERRSCHWINGE
390
0
  6
DIVIDE
100
AcDbLine
 10
122.0934465278
 20
141.9545784591
 30
0.0
 11
112.2714364247
 21
142.8654601609
 31
0.0
  0
LINE
  5
1CC
100
AcDbEntity
  8
3301_21P # GRUPPENVERSCHLUSSSPERRSCHWINGE
390
0
100
AcDbLine
 10
127.2715190843
 20
153.2533160263
 30
0.0
 11
126.7669114059
 21
158.122120064
 31
0.0
  0
LINE
  5
1CD
100
AcDbEntity
  8
3301_21P # GRUPPENVERSCHLUSSSPERRSCHWINGE
390
0
  6
DASHED
100
AcDbLine
 10
102.0
 20
174.2433169887
 30
0.0
 11
145.7722677879
 21
170.2431824654
 31
0.0
  0
LINE
  5
1CE
100
AcDbEntity
  8
3301_21P # GRUPPENVERSCHLUSSSPERRSCHWINGE
390
0
  6
DASHED
100
AcDbLine
 10
145.7722677879
 20
170.2431824654
 30
0.0
 11
139.6757014789
 21
161.2377671924
 31
0.0
  0
LINE
  5
1CF
100
AcDbEntity
  8
3301_21P # GRUPPENVERSCHLUSSSPERRSCHWINGE
390
0
  6
DASHED
100
AcDbLine
 10
129.8803692234
 20
146.283128422
 30
0.0
 11
126.562649522
 21
148.5177521358
 31
0.0
  0
LINE
  5
1D0
100
AcDbEntity
  8
3301_21P # GRUPPENVERSCHLUSSSPERRSCHWINGE
390
0
  6
DASHED
100
AcDbLine
 10
126.5626079929
 20
148.5177506773
 30
0.0
 11
101.5773817383
 21
147.852179758
 31
0.0
  0
ARC
  5
1D1
100
AcDbEntity
  8
3301_21P # GRUPPENVERSCHLUSSSPERRSCHWINGE
390
0
  6
DASHED
100
AcDbCircle
 10
156.0344862607
 20
139.8374101177
 30
0.0
 40
26.9366872956
100
AcDbArc
 50
127.3948907241
 51
166.1552764862
  0
ARC
  5
1D2
100
AcDbEntity
  8
3301_21P # GRUPPENVERSCHLUSSSPERRSCHWINGE
390
0
  6
DASHED
100
AcDbCircle
 10
105.3637632592
 20
164.5685221655
 30
0.0
 40
5.3810899847
100
AcDbArc
 50
134.7202461658
 51
230.1977382044
  0
ARC
  5
1D3
100
AcDbEntity
  8
3301_21P # GRUPPENVERSCHLUSSSPERRSCHWINGE
390
0
  6
DASHED
100
AcDbCircle
 10
106.1209082335
 20
161.0010445647
 30
0.0
 40
6.6217928175
100
AcDbArc
 50
231.5138709553
 51
284.6862045795
  0
ARC
  5
1D4
100
AcDbEntity
  8
3301_21P # GRUPPENVERSCHLUSSSPERRSCHWINGE
390
0
  6
DASHED
100
AcDbCircle
 10
96.7373100553
 20
151.4325197486
 30
0.0
 40
11.5057148683
100
AcDbArc
 50
297.2193264948
 51
375.9568460148
  0
ARC
  5
1D5
100
AcDbEntity
  8
3301_21P # GRUPPENVERSCHLUSSSPERRSCHWINGE
390
0
  6
DIVIDE
100
AcDbCircle
 10
145.7722677879
 20
170.2431824654
 30
0.0
 40
4.0001345236
100
AcDbArc
 50
48.5911061717
 51
145.9751257338
  0
ARC
  5
1D6
100
AcDbEntity
  8
3301_21P # GRUPPENVERSCHLUSSSPERRSCHWINGE
390
0
  6
DIVIDE
100
AcDbCircle
 10
129.8803692234
 20
146.283128422
 30
0.0
 40
4.0001345235
100
AcDbArc
 50
235.1372551227
 51
326.9149153978
  0
LINE
  5
1D7
100
AcDbEntity
  8
3301_20L # GRUPPENVERSCHLUSSANTRIEB
390
0
100
AcDbLine
 10
48.3795941849
 20
149.2433169887
 30
0.0
 11
48.3795941849
 21
173.2433169887
 31
0.0
  0
ARC
  5
1D8
100
AcDbEntity
  8
3301_20R # GRUPPENVERSCHLUSSANTRIEB
390
0
100
AcDbCircle
 10
67.514623883
 20
169.113300796
 30
0.0
 40
5.1300568893
100
AcDbArc
 50
347.3830595052
 51
449.7717787935
  0
LINE
  5
1D9
100
AcDbEntity
  8
3301_20R # GRUPPENVERSCHLUSSANTRIEB
390
0
100
AcDbLine
 10
68.0847357116
 20
164.4825271758
 30
0.0
 11
72.5208012945
 21
167.9927333452
 31
0.0
  0
LINE
  5
1DA
100
AcDbEntity
  8
3301_20R # GRUPPENVERSCHLUSSANTRIEB
390
0
100
AcDbLine
 10
68.0847357116
 20
158.0041068016
 30
0.0
 11
68.0847357116
 21
164.4825271758
 31
0.0
  0
LINE
  5
1DB
100
AcDbEntity
  8
3301_20R # GRUPPENVERSCHLUSSANTRIEB
390
0
100
AcDbLine
 10
68.0847357116
 20
158.0041068016
 30
0.0
 11
72.5208012945
 21
154.4939006322
 31
0.0
  0
ARC
  5
1DC
100
AcDbEntity
  8
3301_20R # GRUPPENVERSCHLUSSANTRIEB
390
0
100
AcDbCircle
 10
67.514623883
 20
153.3733331814
 30
0.0
 40
5.1300568893
100
AcDbArc
 50
270.2282212065
 51
372.6169404948
  0
LINE
  5
1DD
100
AcDbEntity
  8
3301_20R # GRUPPENVERSCHLUSSANTRIEB
390
0
  6
DASHED
100
AcDbLine
 10
57.3797578214
 20
174.2433169887
 30
0.0
 11
67.4962892967
 21
169.0949662097
 31
0.0
  0
LINE
  5
1DE
100
AcDbEntity
  8
3301_20R # GRUPPENVERSCHLUSSANTRIEB
390
0
  6
DASHED
100
AcDbLine
 10
67.4962892967
 20
169.0949662097
 30
0.0
 11
62.579594185
 21
161.2433169887
 31
0.0
  0
LINE
  5
1DF
100
AcDbEntity
  8
3301_20R # GRUPPENVERSCHLUSSANTRIEB
390
0
  6
DASHED
100
AcDbLine
 10
62.579594185
 20
161.2433169887
 30
0.0
 11
67.4962892967
 21
153.3916677677
 31
0.0
  0
LINE
  5
1E0
100
AcDbEntity
  8
3301_20R # GRUPPENVERSCHLUSSANTRIEB
390
0
  6
DASHED
100
AcDbLine
 10
67.4962892967
 20
153.3916677677
 30
0.0
 11
59.0
 21
174.2433169887
 31
0.0
  0
LINE
  5
1E1
100
AcDbEntity
  8
3301_20L # GRUPPENVERSCHLUSSANTRIEB
390
0
  6
DASHED
100
AcDbLine
 10
57.3949018926
 20
174.2433169887
 30
0.0
 11
53.379594185
 21
161.2433169887
 31
0.0
  0
LINE
  5
1E2
100
AcDbEntity
  8
3301_20L # GRUPPENVERSCHLUSSANTRIEB
390
0
  6
DASHED
100
AcDbLine
 10
53.379594185
 20
161.2433169887
 30
0.0
 11
48.3795941849
 21
173.2433169887
 31
0.0
  0
LINE
  5
1E3
100
AcDbEntity
  8
3301_20L # GRUPPENVERSCHLUSSANTRIEB
390
0
  6
DASHED
100
AcDbLine
 10
48.3795941849
 20
149.2433169887
 30
0.0
 11
57.379594185
 21
148.2433169887
 31
0.0
  0
ARC
  5
1E4
100
AcDbEntity
  8
3301___ VERSCHLUSSREGISTER
390
0
  6
DASHDOT
100
AcDbCircle
 10
114.7299214518
 20
98.2433169887
 30
0.0
 40
16.8241166238
100
AcDbArc
 50
139.1695110892
 51
220.8304889108
  0
MTEXT
  5
1E5
100
AcDbEntity
  8
1088___ VORLAGEN
390
0
100
AcDbMText
 10
97.0927331012
 20
97.5979243243
 30
0.0
 40
2.0
 41
0.0
 71
         5
 72
         1
  1
\W0.972838;>3301.22P\PM60x2\PT2 O2
  7
Arial
 11
1.0
 21
0.0
 31
0.0
 73
         1
 44
0.66
  0
TEXT
  5
1E6
100
AcDbEntity
  8
3301_22P # GRUPPENVERSCHLUSSSCHWINGENLAGER
390
0
100
AcDbText
 10
94.0655061769
 20
109.2427096228
 30
0.0
 40
2.0
  1
@3301.21P
 41
0.9728587266
  7
Arial
 72
         1
 11
101.5704163532
 21
110.2427096228
 31
0.0
100
AcDbText
 73
         2
  0
CIRCLE
  5
1E7
100
AcDbEntity
  8
3301_22P # GRUPPENVERSCHLUSSSCHWINGENLAGER
390
0
  6
PHANTOM
100
AcDbCircle
 10
102.0
 20
87.2433169887
 30
0.0
 40
1.0
  0
CIRCLE
  5
1E8
100
AcDbEntity
  8
3301_22P # GRUPPENVERSCHLUSSSCHWINGENLAGER
390
0
  6
PHANTOM
100
AcDbCircle
 10
102.0
 20
109.2433169887
 30
0.0
 40
0.5
  0
LINE
  5
1E9
100
AcDbEntity
  8
3301_22P # GRUPPENVERSCHLUSSSCHWINGENLAGER
390
0
  6
DIVIDE
100
AcDbLine
 10
102.0
 20
109.2433169887
 30
0.0
 11
162.0
 21
109.2433169887
 31
0.0
  0
LINE
  5
1EA
100
AcDbEntity
  8
3301_22P # GRUPPENVERSCHLUSSSCHWINGENLAGER
390
0
  6
DIVIDE
100
AcDbLine
 10
143.25
 20
87.2433169887
 30
0.0
 11
111.75
 21
87.2433169887
 31
0.0
  0
LINE
  5
1EB
100
AcDbEntity
  8
3301_22P # GRUPPENVERSCHLUSSSCHWINGENLAGER
390
0
100
AcDbLine
 10
110.25
 20
96.2433169887
 30
0.0
 11
110.25
 21
87.2433169887
 31
0.0
  0
LINE
  5
1EC
100
AcDbEntity
  8
3301_22P # GRUPPENVERSCHLUSSSCHWINGENLAGER
390
0
100
AcDbLine
 10
111.75
 20
96.2433169887
 30
0.0
 11
111.75
 21
87.2433169887
 31
0.0
  0
ARC
  5
1ED
100
AcDbEntity
  8
3301_22P # GRUPPENVERSCHLUSSSCHWINGENLAGER
390
0
100
AcDbCircle
 10
111.0
 20
96.2433169887
 30
0.0
 40
0.75
100
AcDbArc
 50
0.0
 51
180.0
  0
ARC
  5
1EE
100
AcDbEntity
  8
3301_22P # GRUPPENVERSCHLUSSSCHWINGENLAGER
390
0
100
AcDbCircle
 10
144.0
 20
96.2433169887
 30
0.0
 40
0.75
100
AcDbArc
 50
0.0
 51
180.0
  0
LINE
  5
1EF
100
AcDbEntity
  8
3301_22P # GRUPPENVERSCHLUSSSCHWINGENLAGER
390
0
100
AcDbLine
 10
143.25
 20
96.2433169887
 30
0.0
 11
143.25
 21
87.2433169887
 31
0.0
  0
LINE
  5
1F0
100
AcDbEntity
  8
3301_22P # GRUPPENVERSCHLUSSSCHWINGENLAGER
390
0
100
AcDbLine
 10
144.75
 20
96.2433169887
 30
0.0
 11
144.75
 21
87.2433169887
 31
0.0
  0
LINE
  5
1F1
100
AcDbEntity
  8
3301_22P # GRUPPENVERSCHLUSSSCHWINGENLAGER
390
0
100
AcDbLine
 10
162.0
 20
87.2433169887
 30
0.0
 11
144.75
 21
87.2433169887
 31
0.0
  0
LINE
  5
1F2
100
AcDbEntity
  8
3301_22P # GRUPPENVERSCHLUSSSCHWINGENLAGER
390
0
100
AcDbLine
 10
110.25
 20
87.2433169887
 30
0.0
 11
102.0
 21
87.2433169887
 31
0.0
  0
LINE
  5
1F3
100
AcDbEntity
  8
3301_22P # GRUPPENVERSCHLUSSSCHWINGENLAGER
390
0
  6
DASHED
100
AcDbLine
 10
162.0
 20
109.2433169887
 30
0.0
 11
159.0
 21
102.511859515
 31
0.0
  0
LINE
  5
1F4
100
AcDbEntity
  8
3301_22P # GRUPPENVERSCHLUSSSCHWINGENLAGER
390
0
  6
DASHED
100
AcDbLine
 10
159.0
 20
102.511859515
 30
0.0
 11
144.0
 21
102.511859515
 31
0.0
  0
LINE
  5
1F5
100
AcDbEntity
  8
3301_22P # GRUPPENVERSCHLUSSSCHWINGENLAGER
390
0
  6
DASHED
100
AcDbLine
 10
144.0
 20
102.511859515
 30
0.0
 11
138.25
 21
91.2433169887
 31
0.0
  0
LINE
  5
1F6
100
AcDbEntity
  8
3301_22P # GRUPPENVERSCHLUSSSCHWINGENLAGER
390
0
  6
DASHED
100
AcDbLine
 10
138.25
 20
91.2433169887
 30
0.0
 11
105.25
 21
91.2433169887
 31
0.0
  0
LINE
  5
1F7
100
AcDbEntity
  8
3301_22P # GRUPPENVERSCHLUSSSCHWINGENLAGER
390
0
  6
DASHED
100
AcDbLine
 10
105.25
 20
91.2433169887
 30
0.0
 11
111.0
 21
102.511859515
 31
0.0
  0
LINE
  5
1F8
100
AcDbEntity
  8
3301_22P # GRUPPENVERSCHLUSSSCHWINGENLAGER
390
0
  6
DASHED
100
AcDbLine
 10
111.0
 20
102.511859515
 30
0.0
 11
126.0
 21
102.511859515
 31
0.0
  0
LINE
  5
1F9
100
AcDbEntity
  8
3301_22P # GRUPPENVERSCHLUSSSCHWINGENLAGER
390
0
  6
DASHED
100
AcDbLine
 10
126.0
 20
102.511859515
 30
0.0
 11
162.0
 21
87.2433169887
 31
0.0
  0
ARC
  5
1FA
100
AcDbEntity
  8
3301_20M # 3 GRUPPENVERSCHLUSSANTRIEBE
390
0
  6
DASHDOT
100
AcDbCircle
 10
37.4976025304
 20
121.2433169887
 30
0.0
 40
13.8864625631
100
AcDbArc
 50
290.5830561497
 51
429.4169438503
  0
MTEXT
  5
1FB
100
AcDbEntity
  8
3301_20M # 3 GRUPPENVERSCHLUSSANTRIEBE
390
0
100
AcDbMText
 10
51.2064525229
 20
121.5979243243
 30
0.0
 40
2.0
 41
0.0
 71
         5
 72
         1
  1
\W0.972809;>3301.20L\PM15x15x2\PT2 O2
  7
Arial
 11
1.0
 21
0.0
 31
0.0
 73
         1
 44
0.66
  0
ARC
  5
1FC
100
AcDbEntity
  8
3301_20M # 3 GRUPPENVERSCHLUSSANTRIEBE
390
0
  6
DASHDOT
100
AcDbCircle
 10
37.4976025304
 20
95.2433169887
 30
0.0
 40
13.8864625631
100
AcDbArc
 50
290.5830561497
 51
429.4169438503
  0
MTEXT
  5
1FD
100
AcDbEntity
  8
3301_20M # 3 GRUPPENVERSCHLUSSANTRIEBE
390
0
100
AcDbMText
 10
51.2064525229
 20
95.5979243243
 30
0.0
 40
2.0
 41
0.0
 71
         5
 72
         1
  1
\W0.972809;>3301.20L\PM15x15x2\PT2 O2
  7
Arial
 11
1.0
 21
0.0
 31
0.0
 73
         1
 44
0.66
  0
ARC
  5
1FE
100
AcDbEntity
  8
3301_20M # 3 GRUPPENVERSCHLUSSANTRIEBE
390
0
  6
DASHDOT
100
AcDbCircle
 10
37.4976025304
 20
69.2433169887
 30
0.0
 40
13.8864625631
100
AcDbArc
 50
290.5830561497
 51
429.4169438503
  0
MTEXT
  5
1FF
100
AcDbEntity
  8
3301_20M # 3 GRUPPENVERSCHLUSSANTRIEBE
390
0
100
AcDbMText
 10
51.2064525229
 20
69.5979243243
 30
0.0
 40
2.0
 41
0.0
 71
         5
 72
         1
  1
\W0.972809;>3301.20L\PM15x15x2\PT2 O2
  7
Arial
 11
1.0
 21
0.0
 31
0.0
 73
         1
 44
0.66
  0
ARC
  5
200
100
AcDbEntity
  8
3301_20S # 3 GRUPPENVERSCHLUSSANTRIEBE
390
0
  6
DASHDOT
100
AcDbCircle
 10
52.4977661668
 20
121.1937738838
 30
0.0
 40
13.8864625631
100
AcDbArc
 50
290.5830561497
 51
429.4169438503
  0
ARC
  5
201
100
AcDbEntity
  8
3301_20S # 3 GRUPPENVERSCHLUSSANTRIEBE
390
0
  6
DASHDOT
100
AcDbCircle
 10
52.4977661668
 20
95.1937738838
 30
0.0
 40
13.8864625631
100
AcDbArc
 50
290.5830561497
 51
429.4169438503
  0
ARC
  5
202
100
AcDbEntity
  8
3301_20S # 3 GRUPPENVERSCHLUSSANTRIEBE
390
0
  6
DASHDOT
100
AcDbCircle
 10
52.4977661668
 20
69.1937738838
 30
0.0
 40
13.8864625631
100
AcDbArc
 50
290.5830561497
 51
429.4169438503
  0
MTEXT
  5
203
100
AcDbEntity
  8
3301_20S # 3 GRUPPENVERSCHLUSSANTRIEBE
390
0
100
AcDbMText
 10
66.2066161593
 20
121.5483812194
 30
0.0
 40
2.0
 41
0.0
 71
         5
 72
         1
  1
\W0.972799;>3301.20R\PM15x15x2\PT2 O2
  7
Arial
 11
1.0
 21
0.0
 31
0.0
 73
         1
 44
0.66
  0
MTEXT
  5
204
100
AcDbEntity
  8
3301_20S # 3 GRUPPENVERSCHLUSSANTRIEBE
390
0
100
AcDbMText
 10
66.2066161593
 20
95.5483812194
 30
0.0
 40
2.0
 41
0.0
 71
         5
 72
         1
  1
\W0.972799;>3301.20R\PM15x15x2\PT2 O2
  7
Arial
 11
1.0
 21
0.0
 31
0.0
 73
         1
 44
0.66
  0
MTEXT
  5
205
100
AcDbEntity
  8
3301_20S # 3 GRUPPENVERSCHLUSSANTRIEBE
390
0
100
AcDbMText
 10
66.2066161593
 20
69.5483812194
 30
0.0
 40
2.0
 41
0.0
 71
         5
 72
         1
  1
\W0.972799;>3301.20R\PM15x15x2\PT2 O2
  7
Arial
 11
1.0
 21
0.0
 31
0.0
 73
         1
 44
0.66
  0
TEXT
  5
206
100
AcDbEntity
  8
3301_20M # 3 GRUPPENVERSCHLUSSANTRIEBE
390
0
100
AcDbText
 10
34.3242616835
 20
134.2427096228
 30
0.0
 40
2.0
  1
@3301.20L
 41
0.9728321584
  7
Arial
 72
         1
 11
41.9500105382
 21
135.2427096228
 31
0.0
100
AcDbText
 73
         2
  0
TEXT
  5
207
100
AcDbEntity
  8
3301_20S # 3 GRUPPENVERSCHLUSSANTRIEBE
390
0
100
AcDbText
 10
48.8244253199
 20
134.1931665179
 30
0.0
 40
2.0
  1
@3301.20L
 41
0.9728321584
  7
Arial
 72
         1
 11
56.4501741746
 21
135.1931665179
 31
0.0
100
AcDbText
 73
         2
  0
ARC
  5
208
100
AcDbEntity
  8
3301___ VERSCHLUSSREGISTER
390
0
  6
DASHDOT
100
AcDbCircle
 10
128.8537438972
 20
95.2433169887
 30
0.0
 40
94.8618920771
100
AcDbArc
 50
155.7245380422
 51
204.2754619578
  0
MTEXT
  5
209
100
AcDbEntity
  8
1088___ VORLAGEN
390
0
100
AcDbMText
 10
33.8142392495
 20
95.5979243243
 30
0.0
 40
2.0
 41
0.0
 71
         5
 72
         1
  1
\W0.972828;>3301.20M\PM15x15x2\PT2 O2
  7
Arial
 11
1.0
 21
0.0
 31
0.0
 73
         1
 44
0.66
  0
INSERT
  5
20A
100
AcDbEntity
  8
BEMASSUNG
390
0
100
AcDbBlockReference
  2
D399216640
 10
0.0
 20
0.0
 30
0.0
  0
INSERT
  5
20B
100
AcDbEntity
  8
BEMASSUNG
390
0
100
AcDbBlockReference
  2
D399215360
 10
0.0
 20
0.0
 30
0.0
  0
INSERT
  5
20C
100
AcDbEntity
  8
BEMASSUNG
390
0
100
AcDbBlockReference
  2
D399207168
 10
0.0
 20
0.0
 30
0.0
  0
INSERT
  5
20D
100
AcDbEntity
  8
BEMASSUNG
390
0
100
AcDbBlockReference
  2
D399213568
 10
0.0
 20
0.0
 30
0.0
  0
INSERT
  5
20E
100
AcDbEntity
  8
BEMASSUNG
390
0
100
AcDbBlockReference
  2
D399217664
 10
0.0
 20
0.0
 30
0.0
  0
INSERT
  5
20F
100
AcDbEntity
  8
BEMASSUNG
390
0
100
AcDbBlockReference
  2
D399213312
 10
0.0
 20
0.0
 30
0.0
  0
LINE
  5
210
100
AcDbEntity
  8
STANDARD
390
0
100
AcDbLine
 10
292.0
 20
200.0
 30
0.0
 11
5.0
 21
200.0
 31
0.0
  0
LINE
  5
211
100
AcDbEntity
  8
STANDARD
390
0
100
AcDbLine
 10
10.0
 20
195.0
 30
0.0
 11
10.0
 21
5.0
 31
0.0
  0
LINE
  5
212
100
AcDbEntity
  8
STANDARD
390
0
100
AcDbLine
 10
5.0
 20
200.0
 30
0.0
 11
5.0
 21
195.0
 31
0.0
  0
LINE
  5
213
100
AcDbEntity
  8
STANDARD
390
0
100
AcDbLine
 10
292.0
 20
200.0
 30
0.0
 11
292.0
 21
195.0
 31
0.0
  0
LINE
  5
214
100
AcDbEntity
  8
STANDARD
390
0
100
AcDbLine
 10
52.8333333333
 20
200.0
 30
0.0
 11
52.8333333333
 21
195.0
 31
0.0
  0
LINE
  5
215
100
AcDbEntity
  8
STANDARD
390
0
100
AcDbLine
 10
100.6666666667
 20
200.0
 30
0.0
 11
100.6666666667
 21
195.0
 31
0.0
  0
LINE
  5
216
100
AcDbEntity
  8
STANDARD
390
0
100
AcDbLine
 10
148.5
 20
200.0
 30
0.0
 11
148.5
 21
195.0
 31
0.0
  0
LINE
  5
217
100
AcDbEntity
  8
STANDARD
390
0
100
AcDbLine
 10
196.3333333333
 20
200.0
 30
0.0
 11
196.3333333333
 21
195.0
 31
0.0
  0
LINE
  5
218
100
AcDbEntity
  8
STANDARD
390
0
100
AcDbLine
 10
244.1666666667
 20
200.0
 30
0.0
 11
244.1666666667
 21
195.0
 31
0.0
  0
LINE
  5
219
100
AcDbEntity
  8
STANDARD
390
0
100
AcDbLine
 10
5.0
 20
52.5
 30
0.0
 11
10.0
 21
52.5
 31
0.0
  0
LINE
  5
21A
100
AcDbEntity
  8
STANDARD
390
0
100
AcDbLine
 10
5.0
 20
100.0
 30
0.0
 11
10.0
 21
100.0
 31
0.0
  0
LINE
  5
21B
100
AcDbEntity
  8
STANDARD
390
0
100
AcDbLine
 10
5.0
 20
147.5
 30
0.0
 11
10.0
 21
147.5
 31
0.0
  0
TEXT
  5
21C
100
AcDbEntity
  8
STANDARD
390
0
100
AcDbText
 10
27.6214908115
 20
196.4732039063
 30
0.0
 40
2.23125
  1
1
 41
1.5479225906
  7
Arial
 72
         1
 11
28.9166666667
 21
196.4732039063
 31
0.0
100
AcDbText
  0
TEXT
  5
21D
100
AcDbEntity
  8
STANDARD
390
0
100
AcDbText
 10
75.0230999712
 20
196.4732039063
 30
0.0
 40
2.23125
  1
2
 41
1.5479215945
  7
Arial
 72
         1
 11
76.75
 21
196.4732039063
 31
0.0
100
AcDbText
  0
TEXT
  5
21E
100
AcDbEntity
  8
STANDARD
390
0
100
AcDbText
 10
122.8564319709
 20
196.4732039063
 30
0.0
 40
2.23125
  1
3
 41
1.5479227899
  7
Arial
 72
         1
 11
124.5833333333
 21
196.4732039063
 31
0.0
100
AcDbText
  0
TEXT
  5
21F
100
AcDbEntity
  8
STANDARD
390
0
100
AcDbText
 10
170.6897655265
 20
196.4732039063
 30
0.0
 40
2.23125
  1
4
 41
1.5479225906
  7
Arial
 72
         1
 11
172.4166666667
 21
196.4732039063
 31
0.0
100
AcDbText
  0
TEXT
  5
220
100
AcDbEntity
  8
STANDARD
390
0
100
AcDbText
 10
218.5230997489
 20
196.4732039063
 30
0.0
 40
2.23125
  1
5
 41
1.5479217937
  7
Arial
 72
         1
 11
220.25
 21
196.4732039063
 31
0.0
100
AcDbText
  0
TEXT
  5
221
100
AcDbEntity
  8
STANDARD
390
0
100
AcDbText
 10
266.3564321932
 20
196.4732039063
 30
0.0
 40
2.23125
  1
6
 41
1.5479225906
  7
Arial
 72
         1
 11
268.0833333333
 21
196.4732039063
 31
0.0
100
AcDbText
  0
TEXT
  5
222
100
AcDbEntity
  8
STANDARD
390
0
100
AcDbText
 10
5.773027185
 20
172.7232039063
 30
0.0
 40
2.23125
  1
A
 41
1.547986837
  7
Arial
 72
         1
 11
7.5
 21
172.7232039063
 31
0.0
100
AcDbText
  0
TEXT
  5
223
100
AcDbEntity
  8
STANDARD
390
0
100
AcDbText
 10
5.7730267401
 20
125.2232039063
 30
0.0
 40
2.23125
  1
B
 41
1.5479872357
  7
Arial
 72
         1
 11
7.5
 21
125.2232039063
 31
0.0
100
AcDbText
  0
TEXT
  5
224
100
AcDbEntity
  8
STANDARD
390
0
100
AcDbText
 10
5.7728972752
 20
77.7232039063
 30
0.0
 40
2.23125
  1
C
 41
1.5481032827
  7
Arial
 72
         1
 11
7.5
 21
77.7232039063
 31
0.0
100
AcDbText
  0
TEXT
  5
225
100
AcDbEntity
  8
STANDARD
390
0
100
AcDbText
 10
5.7728964192
 20
30.2232039062
 30
0.0
 40
2.23125
  1
D
 41
1.54810405
  7
Arial
 72
         1
 11
7.5
 21
30.2232039062
 31
0.0
100
AcDbText
  0
LINE
  5
226
100
AcDbEntity
  8
STANDARD
390
0
100
AcDbLine
 10
5.0
 20
5.0
 30
0.0
 11
10.0
 21
5.0
 31
0.0
  0
LINE
  5
227
100
AcDbEntity
  8
STANDARD
390
0
100
AcDbLine
 10
292.0
 20
5.0
 30
0.0
 11
292.0
 21
195.0
 31
0.0
  0
LINE
  5
228
100
AcDbEntity
  8
STANDARD
390
0
100
AcDbLine
 10
292.0
 20
195.0
 30
0.0
 11
10.0
 21
195.0
 31
0.0
  0
LINE
  5
229
100
AcDbEntity
  8
STANDARD
390
0
100
AcDbLine
 10
5.0
 20
195.0
 30
0.0
 11
5.0
 21
5.0
 31
0.0
  0
LINE
  5
22A
100
AcDbEntity
  8
STANDARD
390
0
100
AcDbLine
 10
296.0
 20
209.0
 30
0.0
 11
1.0
 21
209.0
 31
0.0
  0
LINE
  5
22B
100
AcDbEntity
  8
STANDARD
390
0
100
AcDbLine
 10
296.0
 20
1.0
 30
0.0
 11
296.0
 21
209.0
 31
0.0
  0
LINE
  5
22C
100
AcDbEntity
  8
STANDARD
390
0
100
AcDbLine
 10
1.0
 20
1.0
 30
0.0
 11
296.0
 21
1.0
 31
0.0
  0
LINE
  5
22D
100
AcDbEntity
  8
STANDARD
390
0
100
AcDbLine
 10
1.0
 20
209.0
 30
0.0
 11
1.0
 21
1.0
 31
0.0
  0
LINE
  5
22E
100
AcDbEntity
  8
STANDARD
390
0
100
AcDbLine
 10
10.0
 20
195.0
 30
0.0
 11
5.0
 21
195.0
 31
0.0
  0
LINE
  5
22F
100
AcDbEntity
  8
STANDARD
390
0
100
AcDbLine
 10
10.0
 20
5.0
 30
0.0
 11
292.0
 21
5.0
 31
0.0
  0
MTEXT
  5
230
100
AcDbEntity
  8
STANDARD
390
0
100
AcDbMText
 10
215.5777227339
 20
6.520569157
 30
0.0
 40
1.59375
 41
0.0
 71
         7
 72
         1
  1

  7
Arial
 73
         1
 44
1.0352941176
  0
MTEXT
  5
231
100
AcDbEntity
  8
STANDARD
390
0
100
AcDbMText
 10
269.4128856935
 20
6.5165742187
 30
0.0
 40
1.59375
 41
0.0
 71
         7
 72
         1
  1

  7
Arial
 73
         1
 44
1.0352941176
  0
MTEXT
  5
232
100
AcDbEntity
  8
STANDARD
390
0
100
AcDbMText
 10
171.2439051502
 20
6.520569157
 30
0.0
 40
1.59375
 41
0.0
 71
         7
 72
         1
  1

  7
Arial
 73
         1
 44
1.0352941176
  0
TEXT
  5
233
100
AcDbEntity
  8
BESCHRIFTUNG
390
0
100
AcDbText
 10
169.1145333333
 20
29.1386
 30
0.0
 40
3.3
  1
Stellwerk HMM
 41
1.3758039542
 51
15.0
  7
Arial
 11
169.1145333333
 21
32.4386
 31
0.0
100
AcDbText
 73
         3
  0
TEXT
  5
234
100
AcDbEntity
  8
BESCHRIFTUNG
390
0
100
AcDbText
 10
215.5344888889
 20
21.6601111111
 30
0.0
 40
3.3
  1
Gruppenverschluss JE
 41
1.1302145355
 51
15.0
  7
Arial
 11
215.5344888889
 21
24.9601111111
 31
0.0
100
AcDbText
 73
         3
  0
TEXT
  5
235
100
AcDbEntity
  8
BESCHRIFTUNG
390
0
100
AcDbText
 10
169.1145333333
 20
6.9230888889
 30
0.0
 40
3.3
  1
Dateiname
 41
1.1437088374
 51
15.0
  7
Arial
 11
169.1145333333
 21
10.2230888889
 31
0.0
100
AcDbText
 73
         3
  0
TEXT
  5
236
100
AcDbEntity
  8
BESCHRIFTUNG
390
0
100
AcDbText
 10
169.3344888889
 20
21.6601111111
 30
0.0
 40
3.3
  1
Bl. 3301 P.8h
 41
1.1437204062
 51
15.0
  7
Arial
 11
169.3344888889
 21
24.9601111111
 31
0.0
100
AcDbText
 73
         3
  0
TEXT
  5
237
100
AcDbEntity
  8
BESCHRIFTUNG
390
0
100
AcDbText
 10
253.1145333333
 20
29.1386
 30
0.0
 40
3.3
  1
Maﬂstab 1:1
 41
1.1437192123
 51
15.0
  7
Arial
 11
253.1145333333
 21
32.4386
 31
0.0
100
AcDbText
 73
         3
  0
LINE
  5
238
100
AcDbEntity
  8
STANDARD
370
         0
390
0
100
AcDbLine
 10
214.2194301994
 20
34.4
 30
0.0
 11
214.2194301994
 21
5.0
 31
0.0
  0
LINE
  5
239
100
AcDbEntity
  8
STANDARD
370
         0
390
0
100
AcDbLine
 10
168.0194301994
 20
34.4
 30
0.0
 11
291.9134472934
 21
34.4
 31
0.0
  0
LINE
  5
23A
100
AcDbEntity
  8
STANDARD
370
         0
390
0
100
AcDbLine
 10
168.0194301994
 20
27.4
 30
0.0
 11
291.9134472934
 21
27.4
 31
0.0
  0
LINE
  5
23B
100
AcDbEntity
  8
STANDARD
370
         0
390
0
100
AcDbLine
 10
168.0194301994
 20
12.0
 30
0.0
 11
291.9134472934
 21
12.0
 31
0.0
  0
LINE
  5
23C
100
AcDbEntity
  8
STANDARD
370
         0
390
0
100
AcDbLine
 10
168.0194301994
 20
34.4
 30
0.0
 11
168.0194301994
 21
5.0
 31
0.0
  0
LINE
  5
23D
100
AcDbEntity
  8
STANDARD
370
         0
390
0
100
AcDbLine
 10
252.0194301994
 20
34.4
 30
0.0
 11
252.0194301994
 21
27.4
 31
0.0
  0
ENDSEC
  0
SECTION
  2
OBJECTS
  0
DICTIONARY
  5
19
100
AcDbDictionary
280
         0
281
         1
  3
ACAD_GROUP
350
1A
  3
ACAD_MLINESTYLE
350
1B
  3
ACAD_LAYOUT
350
1E
  3
ACAD_PLOTSETTINGS
350
22
  3
ACAD_PLOTSTYLENAME
350
1F
  3
ACAD_WIPEOUT_VARS
350
23
  0
DICTIONARY
  5
1A
102
{ACAD_REACTORS
330
19
102
}
100
AcDbDictionary
280
         0
281
         1
  0
DICTIONARY
  5
1B
102
{ACAD_REACTORS
330
19
102
}
100
AcDbDictionary
280
         0
281
         1
  3
Standard
350
1C
  0
MLINESTYLE
  5
1C
102
{ACAD_REACTORS
330
1B
102
}
100
AcDbMlineStyle
  2
Standard
 70
         0
  3

 62
         0
 51
90.0
 52
90.0
 71
         2
 49
0.5
 62
       256
  6
ByLayer
 49
-0.5
 62
       256
  6
ByLayer
  0
ACDBDICTIONARYWDFLT
  5
1F
102
{ACAD_REACTORS
330
19
102
}
100
AcDbDictionary
281
         1
  3
Normal
350
1D
100
AcDbDictionaryWithDefault
340
1D
  0
ACDBPLACEHOLDER
  5
1D
102
{ACAD_REACTORS
330
1F
102
}
  0
LAYOUT
  5
20
102
{ACAD_REACTORS
330
1E
102
}
100
AcDbPlotSettings
  1

  2

  4

  6

 40
0.0
 41
0.0
 42
0.0
 43
0.0
 44
0.0
 45
0.0
 46
0.0
 47
0.0
 48
0.0
 49
0.0
140
0.0
141
0.0
142
1.0
143
1.0
 70
      1024
 72
         0
 73
         0
 74
         0
  7

 75
         0
147
1.0
148
0.0
149
0.0
100
AcDbLayout
  1
Model
 70
         0
 71
         0
 10
0.0
 20
0.0
 11
0.0
 21
0.0
 12
0.0
 22
0.0
 32
0.0
 14
0.0
 24
0.0
 34
0.0
 15
0.0
 25
0.0
 35
0.0
146
0.0
 13
0.0
 23
0.0
 33
0.0
 16
0.0
 26
0.0
 36
0.0
 17
0.0
 27
0.0
 37
0.0
 76
         0
330
A
331
0
345
0
346
0
  0
LAYOUT
  5
21
102
{ACAD_REACTORS
330
1E
102
}
100
AcDbPlotSettings
  1

  2

  4

  6

 40
0.0
 41
0.0
 42
0.0
 43
0.0
 44
0.0
 45
0.0
 46
0.0
 47
0.0
 48
0.0
 49
0.0
140
0.0
141
0.0
142
1.0
143
1.0
 70
         0
 72
         0
 73
         0
 74
         0
  7

 75
         0
147
1.0
148
0.0
149
0.0
100
AcDbLayout
  1
Layout1
 70
         0
 71
         0
 10
0.0
 20
0.0
 11
0.0
 21
0.0
 12
0.0
 22
0.0
 32
0.0
 14
0.0
 24
0.0
 34
0.0
 15
0.0
 25
0.0
 35
0.0
146
0.0
 13
0.0
 23
0.0
 33
0.0
 16
0.0
 26
0.0
 36
0.0
 17
0.0
 27
0.0
 37
0.0
 76
         0
330
B
331
0
345
0
346
0
  0
DICTIONARY
  5
1E
102
{ACAD_REACTORS
330
19
102
}
100
AcDbDictionary
280
         0
281
         1
  3
Layout1
350
21
  3
Model
350
20
  0
DICTIONARY
  5
22
102
{ACAD_REACTORS
330
19
102
}
100
AcDbDictionary
280
         0
281
         1
  0
WIPEOUTVARIABLES
  5
23
100
AcDbWipeoutVariables
 70
         1
  0
ENDSEC
  0
EOF
