  0
SECTION
  2
HEADER
  9
$ACADVER
  1
AC1015
  9
$ACADMAINTVER
 70
         6
  9
$DWGCODEPAGE
  3
ANSI_1252
  9
$INSBASE
 10
0.0
 20
0.0
 30
0.0
  9
$EXTMIN
 10
0.0
 20
0.0
 30
0.0
  9
$EXTMAX
 10
297.0
 20
210.0
 30
0.0
  9
$LIMMIN
 10
0.0
 20
0.0
  9
$LIMMAX
 10
297.0
 20
210.0
  9
$ORTHOMODE
 70
         0
  9
$REGENMODE
 70
         1
  9
$FILLMODE
 70
         1
  9
$QTEXTMODE
 70
         0
  9
$MIRRTEXT
 70
         1
  9
$LTSCALE
 40
7.425
  9
$ATTMODE
 70
         1
  9
$TEXTSIZE
 40
0.2
  9
$TRACEWID
 40
0.05
  9
$TEXTSTYLE
  7
Standard
  9
$CLAYER
  8
0
  9
$CELTYPE
  6
CONTINUOUS
  9
$CECOLOR
 62
       256
  9
$CELTSCALE
 40
1.0
  9
$DISPSILH
 70
         0
  9
$DIMSCALE
 40
1.0
  9
$DIMASZ
 40
0.18
  9
$DIMEXO
 40
0.0625
  9
$DIMDLI
 40
0.38
  9
$DIMRND
 40
0.0
  9
$DIMDLE
 40
0.0
  9
$DIMEXE
 40
0.18
  9
$DIMTP
 40
0.0
  9
$DIMTM
 40
0.0
  9
$DIMTXT
 40
3.0
  9
$DIMCEN
 40
0.09
  9
$DIMTSZ
 40
0.0
  9
$DIMTOL
 70
         0
  9
$DIMLIM
 70
         0
  9
$DIMTIH
 70
         1
  9
$DIMTOH
 70
         1
  9
$DIMSE1
 70
         0
  9
$DIMSE2
 70
         0
  9
$DIMTAD
 70
         1
  9
$DIMZIN
 70
         0
  9
$DIMBLK
  1

  9
$DIMASO
 70
         1
  9
$DIMSHO
 70
         1
  9
$DIMPOST
  1
<>
  9
$DIMAPOST
  1

  9
$DIMALT
 70
         0
  9
$DIMALTD
 70
         2
  9
$DIMALTF
 40
25.4
  9
$DIMLFAC
 40
1.0
  9
$DIMTOFL
 70
         0
  9
$DIMTVP
 40
0.0
  9
$DIMTIX
 70
         0
  9
$DIMSOXD
 70
         0
  9
$DIMSAH
 70
         0
  9
$DIMBLK1
  1

  9
$DIMBLK2
  1

  9
$DIMSTYLE
  2
Standard
  9
$DIMCLRD
 70
         0
  9
$DIMCLRE
 70
         0
  9
$DIMCLRT
 70
         0
  9
$DIMTFAC
 40
1.0
  9
$DIMGAP
 40
0.09
  9
$DIMJUST
 70
         0
  9
$DIMSD1
 70
         0
  9
$DIMSD2
 70
         0
  9
$DIMTOLJ
 70
         1
  9
$DIMTZIN
 70
         0
  9
$DIMALTZ
 70
         0
  9
$DIMALTTZ
 70
         0
  9
$DIMUPT
 70
         0
  9
$DIMDEC
 70
         4
  9
$DIMTDEC
 70
         4
  9
$DIMALTU
 70
         2
  9
$DIMALTTD
 70
         2
  9
$DIMTXSTY
  7
Standard
  9
$DIMAUNIT
 70
         0
  9
$DIMADEC
 70
         0
  9
$DIMALTRND
 40
0.0
  9
$DIMAZIN
 70
         0
  9
$DIMDSEP
 70
         0
  9
$DIMATFIT
 70
         3
  9
$DIMFRAC
 70
         0
  9
$DIMLDRBLK
  1

  9
$DIMLUNIT
 70
         2
  9
$DIMLWD
 70
         0
  9
$DIMLWE
 70
         0
  9
$DIMTMOVE
 70
         0
  9
$LUNITS
 70
         2
  9
$LUPREC
 70
         4
  9
$SKETCHINC
 40
0.1
  9
$FILLETRAD
 40
0.0
  9
$AUNITS
 70
         0
  9
$AUPREC
 70
         0
  9
$MENU
  1
acad
  9
$ELEVATION
 40
0.0
  9
$PELEVATION
 40
0.0
  9
$THICKNESS
 40
0.0
  9
$LIMCHECK
 70
         0
  9
$CHAMFERA
 40
0.0
  9
$CHAMFERB
 40
0.0
  9
$CHAMFERC
 40
0.0
  9
$CHAMFERD
 40
0.0
  9
$SKPOLY
 70
         0
  9
$TDCREATE
 40
0.000000000
  9
$TDUCREATE
 40
0.000000000
  9
$TDUPDATE
 40
0.000000000
  9
$TDUUPDATE
 40
0.000000000
  9
$TDINDWG
 40
0.0000000000
  9
$TDUSRTIMER
 40
0.0000000000
  9
$USRTIMER
 70
         1
  9
$ANGBASE
 50
0.0
  9
$ANGDIR
 70
         0
  9
$PDMODE
 70
         0
  9
$PDSIZE
 40
0.0
  9
$PLINEWID
 40
0.0
  9
$SPLFRAME
 70
         0
  9
$SPLINETYPE
 70
         6
  9
$SPLINESEGS
 70
         8
  9
$HANDSEED
  5
280
  9
$SURFTAB1
 70
         6
  9
$SURFTAB2
 70
         6
  9
$SURFTYPE
 70
         6
  9
$SURFU
 70
         6
  9
$SURFV
 70
         6
  9
$UCSBASE
  2

  9
$UCSNAME
  2

  9
$UCSORG
 10
0.0
 20
0.0
 30
0.0
  9
$UCSXDIR
 10
1.0
 20
0.0
 30
0.0
  9
$UCSYDIR
 10
0.0
 20
1.0
 30
0.0
  9
$UCSORTHOREF
  2

  9
$UCSORTHOVIEW
 70
         0
  9
$UCSORGTOP
 10
0.0
 20
0.0
 30
0.0
  9
$UCSORGBOTTOM
 10
0.0
 20
0.0
 30
0.0
  9
$UCSORGLEFT
 10
0.0
 20
0.0
 30
0.0
  9
$UCSORGRIGHT
 10
0.0
 20
0.0
 30
0.0
  9
$UCSORGFRONT
 10
0.0
 20
0.0
 30
0.0
  9
$UCSORGBACK
 10
0.0
 20
0.0
 30
0.0
  9
$PUCSBASE
  2

  9
$PUCSNAME
  2

  9
$PUCSORG
 10
0.0
 20
0.0
 30
0.0
  9
$PUCSXDIR
 10
1.0
 20
0.0
 30
0.0
  9
$PUCSYDIR
 10
0.0
 20
1.0
 30
0.0
  9
$PUCSORTHOREF
  2

  9
$PUCSORTHOVIEW
 70
         0
  9
$PUCSORGTOP
 10
0.0
 20
0.0
 30
0.0
  9
$PUCSORGBOTTOM
 10
0.0
 20
0.0
 30
0.0
  9
$PUCSORGLEFT
 10
0.0
 20
0.0
 30
0.0
  9
$PUCSORGRIGHT
 10
0.0
 20
0.0
 30
0.0
  9
$PUCSORGFRONT
 10
0.0
 20
0.0
 30
0.0
  9
$PUCSORGBACK
 10
0.0
 20
0.0
 30
0.0
  9
$USERI1
 70
         0
  9
$USERI2
 70
         0
  9
$USERI3
 70
         0
  9
$USERI4
 70
         0
  9
$USERI5
 70
         0
  9
$USERR1
 40
0.0
  9
$USERR2
 40
0.0
  9
$USERR3
 40
0.0
  9
$USERR4
 40
0.0
  9
$USERR5
 40
0.0
  9
$WORLDVIEW
 70
         1
  9
$SHADEDGE
 70
         3
  9
$SHADEDIF
 70
        70
  9
$TILEMODE
 70
         1
  9
$MAXACTVP
 70
        16
  9
$PINSBASE
 10
0.0
 20
0.0
 30
0.0
  9
$PLIMCHECK
 70
         0
  9
$PEXTMIN
 10
1.0000000000E+20
 20
1.0000000000E+20
 30
1.0000000000E+20
  9
$PEXTMAX
 10
-1.0000000000E+20
 20
-1.0000000000E+20
 30
-1.0000000000E+20
  9
$PLIMMIN
 10
0.0
 20
0.0
  9
$PLIMMAX
 10
12.0
 20
9.0
  9
$UNITMODE
 70
         0
  9
$VISRETAIN
 70
         0
  9
$PLINEGEN
 70
         1
  9
$PSLTSCALE
 70
         0
  9
$TREEDEPTH
 70
      3020
  9
$CMLSTYLE
  2
Standard
  9
$CMLJUST
 70
         0
  9
$CMLSCALE
 40
1.0
  9
$PROXYGRAPHICS
 70
         0
  9
$MEASUREMENT
 70
         1
  9
$CELWEIGHT
370
         0
  9
$ENDCAPS
280
         0
  9
$JOINSTYLE
280
         0
  9
$LWDISPLAY
290
         0
  9
$INSUNITS
 70
         0
  9
$HYPERLINKBASE
  1

  9
$STYLESHEET
  1

  9
$XEDIT
290
         1
  9
$CEPSNTYPE
380
         0
  9
$PSTYLEMODE
290
         1
  9
$FINGERPRINTGUID
  2

  9
$VERSIONGUID
  2

  9
$EXTNAMES
290
         1
  9
$PSVPSCALE
 40
0.0
  0
ENDSEC
  0
SECTION
  2
CLASSES
  0
CLASS
  1
LWPOLYLINE
  2
AcDbPolyline
  3
AutoCAD 2000
 90
        0
280
         0
281
         1
  0
CLASS
  1
IMAGE
  2
AcDbRasterImage
  3
ISM
 90
      127
280
         0
281
         1
  0
CLASS
  1
OLE2FRAME
  2
AcDbOle2Frame
  3
AutoCAD 2000
 90
        0
280
         0
281
         1
  0
CLASS
  1
HATCH
  2
AcDbHatch
  3
AutoCAD 2000
 90
        0
280
         0
281
         1
  0
CLASS
  1
DICTIONARYVAR
  2
AcDbDictionaryVar
  3
AutoCAD 2000
 90
        0
280
         0
281
         0
  0
CLASS
  1
RASTERVARIABLES
  2
AcDbRasterVariables
  3
ISM
 90
        0
280
         0
281
         0
  0
CLASS
  1
IMAGEDEF
  2
AcDbRasterImageDef
  3
ISM
 90
        0
280
         0
281
         0
  0
CLASS
  1
IMAGEDEF_REACTOR
  2
AcDbRasterImageDefReactor
  3
ISM
 90
        1
280
         0
281
         0
  0
CLASS
  1
IDBUFFER
  2
AcDbIdBuffer
  3
AutoCAD 2000
 90
        0
280
         0
281
         0
  0
CLASS
  1
SPATIAL_FILTER
  2
AcDbSpatialFilter
  3
AutoCAD 2000
 90
        0
280
         0
281
         0
  0
CLASS
  1
XRECORD
  2
AcDbXrecord
  3
AutoCAD 2000
 90
        0
280
         0
281
         0
  0
CLASS
  1
SORTENTSTABLE
  2
AcDbSortentsTable
  3
AutoCAD 2000
 90
        0
280
         0
281
         0
  0
CLASS
  1
LAYER_INDEX
  2
AcDbLayerIndex
  3
AutoCAD 2000
 90
        0
280
         0
281
         0
  0
CLASS
  1
SPATIAL_INDEX
  2
AcDbSpatialIndex
  3
AutoCAD 2000
 90
        0
280
         0
281
         0
  0
CLASS
  1
OBJECT_PTR
  2
CAseDLPNTableRecord
  3
"ASE-LPNTableRecord"
 90
        1
280
         0
281
         0
  0
CLASS
  1
LAYOUT
  2
AcDbLayout
  3
AutoCAD 2000
 90
        0
280
         0
281
         0
  0
CLASS
  1
PLOTSETTINGS
  2
AcDbPlotSettings
  3
AutoCAD 2000
 90
        0
280
         0
281
         0
  0
CLASS
  1
ACDBDICTIONARYWDFLT
  2
AcDbDictionaryWithDefault
  3
AutoCAD 2000
 90
        0
280
         0
281
         0
  0
CLASS
  1
ACDBPLACEHOLDER
  2
AcDbPlaceHolder
  3
AutoCAD 2000
 90
        0
280
         0
281
         0
  0
CLASS
  1
VBA_PROJECT
  2
AcDbVbaProject
  3
acadvba
 90
        0
280
         0
281
         0
  0
CLASS
  1
WIPEOUT
  2
AcDbWipeout
  3
WipeOut|AutoCAD Express Tool|expresstools@autodesk.com
 90
      127
280
         0
281
         1
  0
CLASS
  1
WIPEOUTVARIABLES
  2
AcDbWipeoutVariables
  3
WipeOut|AutoCAD Express Tool|expresstools@autodesk.com
 90
        0
280
         0
281
         0
  0
CLASS
  1
RTEXT
  2
RText
  3
RText|AutoCAD Express Tool|expresstools@autodesk.com
 90
        0
280
         0
281
         1
  0
CLASS
  1
ARCALIGNEDTEXT
  2
AcDbArcAlignedText
  3
ATEXT|AutoCAD Express Tool|expresstools@autodesk.com
 90
        0
280
         0
281
         1
  0
ENDSEC
  0
SECTION
  2
TABLES
  0
TABLE
  2
VPORT
  5
7
100
AcDbSymbolTable
 70
         1
  0
VPORT
  5
15
100
AcDbSymbolTableRecord
100
AcDbViewportTableRecord
  2
*ACTIVE
 70
         0
 10
0.0
 20
0.0
 11
1.0
 21
1.0
 12
148.5
 22
105.0
 13
0.0
 23
0.0
 14
1.0
 24
1.0
 15
0.0
 25
0.0
 16
0.0
 26
0.0
 36
1.0
 17
0.0
 27
0.0
 37
0.0
 40
231.2943892345
 41
1.0
 42
50.0
 43
0.0
 44
0.0
 50
0.0
 51
0.0
 71
         0
 72
       100
 73
         1
 74
         1
 75
         0
 76
         0
 77
         0
 78
         0
281
         0
 65
         0
110
0.0
120
0.0
130
0.0
111
1.0
121
0.0
131
0.0
112
0.0
122
1.0
132
0.0
345
0
346
0
 79
         0
146
0.0
  0
ENDTAB
  0
TABLE
  2
LTYPE
  5
4
100
AcDbSymbolTable
 70
        12
  0
LTYPE
  5
11
100
AcDbSymbolTableRecord
100
AcDbLinetypeTableRecord
  2
ByBlock
 70
        64
  3

 72
        65
 73
         0
 40
0.0
  0
LTYPE
  5
12
100
AcDbSymbolTableRecord
100
AcDbLinetypeTableRecord
  2
ByLayer
 70
        64
  3

 72
        65
 73
         0
 40
0.0
  0
LTYPE
  5
13
100
AcDbSymbolTableRecord
100
AcDbLinetypeTableRecord
  2
CONTINUOUS
 70
        64
  3
Solid Line
 72
        65
 73
         0
 40
0.0
  0
LTYPE
  5
24
100
AcDbSymbolTableRecord
100
AcDbLinetypeTableRecord
  2
DOT
 70
        64
  3
. . . . . . . . . . . . . . . . . . . . . . 
 72
        65
 73
         2
 40
0.25
 49
0.0
 74
         0
 49
-0.25
 74
         0
  0
LTYPE
  5
25
100
AcDbSymbolTableRecord
100
AcDbLinetypeTableRecord
  2
HIDDEN
 70
         0
  3
_ _ _ _ _ _ _ _ _ _ _ _ _ _ _ _ _ _ _ _ _ _ _
 72
        65
 73
         2
 40
0.375
 49
0.25
 74
         0
 49
-0.125
 74
         0
  0
LTYPE
  5
26
100
AcDbSymbolTableRecord
100
AcDbLinetypeTableRecord
  2
DASHDOT
 70
         0
  3
__ . __ . __ . __ . __ . __ . __ . __ . __ . __
 72
        65
 73
         4
 40
1.0
 49
0.5
 74
         0
 49
-0.25
 74
         0
 49
0.0
 74
         0
 49
-0.25
 74
         0
  0
LTYPE
  5
27
100
AcDbSymbolTableRecord
100
AcDbLinetypeTableRecord
  2
DIVIDE
 70
         0
  3
__ . . __ . . __ . . __ . . __ . . __ . . __
 72
        65
 73
         6
 40
1.25
 49
0.5
 74
         0
 49
-0.25
 74
         0
 49
0.0
 74
         0
 49
-0.25
 74
         0
 49
0.0
 74
         0
 49
-0.25
 74
         0
  0
LTYPE
  5
28
100
AcDbSymbolTableRecord
100
AcDbLinetypeTableRecord
  2
DASHED
 70
         0
  3
__ __ __ __ __ __ __ __ __ __ __ __ __ __ __
 72
        65
 73
         2
 40
0.75
 49
0.5
 74
         0
 49
-0.25
 74
         0
  0
LTYPE
  5
29
100
AcDbSymbolTableRecord
100
AcDbLinetypeTableRecord
  2
BORDER
 70
         0
  3
__ __ . __ __ . __ __ . __ __ . __ __ .
 72
        65
 73
         6
 40
1.75
 49
0.5
 74
         0
 49
-0.25
 74
         0
 49
0.5
 74
         0
 49
-0.25
 74
         0
 49
0.0
 74
         0
 49
-0.25
 74
         0
  0
LTYPE
  5
2A
100
AcDbSymbolTableRecord
100
AcDbLinetypeTableRecord
  2
CENTER
 70
         0
  3
____ _ ____ _ ____ _ ____ _ ____ _ ____
 72
        65
 73
         4
 40
2.0
 49
1.25
 74
         0
 49
-0.25
 74
         0
 49
0.25
 74
         0
 49
-0.25
 74
         0
  0
LTYPE
  5
2B
100
AcDbSymbolTableRecord
100
AcDbLinetypeTableRecord
  2
DOT2
 70
         0
  3
........................................
 72
        65
 73
         2
 40
0.125
 49
0.0
 74
         0
 49
-0.125
 74
         0
  0
LTYPE
  5
2C
100
AcDbSymbolTableRecord
100
AcDbLinetypeTableRecord
  2
PHANTOM
 70
         0
  3
______  __  __  ______  __  __  ______
 72
        65
 73
         6
 40
2.5
 49
1.25
 74
         0
 49
-0.25
 74
         0
 49
0.25
 74
         0
 49
-0.25
 74
         0
 49
0.25
 74
         0
 49
-0.25
 74
         0
  0
ENDTAB
  0
TABLE
  2
LAYER
  5
2
100
AcDbSymbolTable
 70
       194
  0
LAYER
  5
14
100
AcDbSymbolTableRecord
100
AcDbLayerTableRecord
  2
0
 70
         0
 62
         7
  6
CONTINUOUS
290
         1
370
        -3
390
1D
  0
LAYER
  5
2F
100
AcDbSymbolTableRecord
100
AcDbLayerTableRecord
  2
SCHRAFFUR
 70
        64
 62
         7
  6
CONTINUOUS
290
         1
370
         0
390
1D
  0
LAYER
  5
30
100
AcDbSymbolTableRecord
100
AcDbLayerTableRecord
  2
VERDECKTE KANTEN
 70
        64
 62
        92
  6
DASHED
290
         1
370
        35
390
1D
  0
LAYER
  5
31
100
AcDbSymbolTableRecord
100
AcDbLayerTableRecord
  2
TANGENTIALE KANTEN
 70
        64
 62
         7
  6
CONTINUOUS
290
         1
370
        13
390
1D
  0
LAYER
  5
32
100
AcDbSymbolTableRecord
100
AcDbLayerTableRecord
  2
MITTELLINIEN
 70
        64
 62
         5
  6
DASHDOT
290
         1
370
        13
390
1D
  0
LAYER
  5
33
100
AcDbSymbolTableRecord
100
AcDbLayerTableRecord
  2
2052 GEHÄUSE
 70
        64
 62
         7
  6
CONTINUOUS
290
         1
370
        18
390
1D
  0
LAYER
  5
34
100
AcDbSymbolTableRecord
100
AcDbLayerTableRecord
  2
2052 ZUHALTUNG
 70
        64
 62
        94
  6
CONTINUOUS
290
         1
370
        18
390
1D
  0
LAYER
  5
35
100
AcDbSymbolTableRecord
100
AcDbLayerTableRecord
  2
2052 BESATZUNG
 70
        64
 62
         8
  6
CONTINUOUS
290
         1
370
        18
390
1D
  0
LAYER
  5
36
100
AcDbSymbolTableRecord
100
AcDbLayerTableRecord
  2
2052 RIEGEL UMGESPERRT
 70
        64
 62
       230
  6
DASHED
290
         1
370
        18
390
1D
  0
LAYER
  5
37
100
AcDbSymbolTableRecord
100
AcDbLayerTableRecord
  2
2052 RIEGEL
 70
        64
 62
       230
  6
CONTINUOUS
290
         1
370
        18
390
1D
  0
LAYER
  5
38
100
AcDbSymbolTableRecord
100
AcDbLayerTableRecord
  2
2052 SCHLOSS MIT DORN
 70
        64
 62
         7
  6
CONTINUOUS
290
         1
370
         0
390
1D
  0
LAYER
  5
39
100
AcDbSymbolTableRecord
100
AcDbLayerTableRecord
  2
3301 VERSCHLUSSBALKEN UMGELEGT
 70
        64
 62
       134
  6
DASHED
290
         1
370
        18
390
1D
  0
LAYER
  5
3A
100
AcDbSymbolTableRecord
100
AcDbLayerTableRecord
  2
3301 VERSCHLUSSBALKEN
 70
        64
 62
       134
  6
CONTINUOUS
290
         1
370
        18
390
1D
  0
LAYER
  5
3B
100
AcDbSymbolTableRecord
100
AcDbLayerTableRecord
  2
3301 FAHRSTRAßENSCHIEBERANTRIEB VERDREHT
 70
        64
 62
       171
  6
DASHED
290
         1
370
        18
390
1D
  0
LAYER
  5
3C
100
AcDbSymbolTableRecord
100
AcDbLayerTableRecord
  2
3301 FAHRSTRAßENSCHIEBERANTRIEB
 70
        64
 62
       171
  6
CONTINUOUS
290
         1
370
        18
390
1D
  0
LAYER
  5
3D
100
AcDbSymbolTableRecord
100
AcDbLayerTableRecord
  2
3301 RAHMEN LÄNGS
 70
        64
 62
         7
  6
CONTINUOUS
290
         1
370
        18
390
1D
  0
LAYER
  5
3E
100
AcDbSymbolTableRecord
100
AcDbLayerTableRecord
  2
3301 VERSCHLUSSSTÜCKE VERSCHOBEN
 70
        64
 62
       190
  6
DASHED
290
         1
370
        18
390
1D
  0
LAYER
  5
3F
100
AcDbSymbolTableRecord
100
AcDbLayerTableRecord
  2
3301 VERSCHLUSSSTÜCKE
 70
        64
 62
       190
  6
CONTINUOUS
290
         1
370
        18
390
1D
  0
LAYER
  5
40
100
AcDbSymbolTableRecord
100
AcDbLayerTableRecord
  2
3301 RAHMEN QUER
 70
        64
 62
         8
  6
CONTINUOUS
290
         1
370
        18
390
1D
  0
LAYER
  5
41
100
AcDbSymbolTableRecord
100
AcDbLayerTableRecord
  2
3301 ANLENKUNGSLAGER
 70
        64
 62
       252
  6
CONTINUOUS
290
         1
370
        18
390
1D
  0
LAYER
  5
42
100
AcDbSymbolTableRecord
100
AcDbLayerTableRecord
  2
3301 VERSCHLUSSBALKENANLENKUNG UMGELEGT
 70
        64
 62
       230
  6
DASHED
290
         1
370
        18
390
1D
  0
LAYER
  5
43
100
AcDbSymbolTableRecord
100
AcDbLayerTableRecord
  2
3301 VERSCHLUSSBALKENANLENKUNG
 70
        64
 62
       230
  6
CONTINUOUS
290
         1
370
        18
390
1D
  0
LAYER
  5
44
100
AcDbSymbolTableRecord
100
AcDbLayerTableRecord
  2
3301 FAHRSTRAßENSCHIEBER
 70
        64
 62
       172
  6
CONTINUOUS
290
         1
370
        18
390
1D
  0
LAYER
  5
45
100
AcDbSymbolTableRecord
100
AcDbLayerTableRecord
  2
3301 GRUPPENVERSCHLUSS UMGELEGT
 70
        64
 62
       234
  6
DASHED
290
         1
370
        18
390
1D
  0
LAYER
  5
46
100
AcDbSymbolTableRecord
100
AcDbLayerTableRecord
  2
3301 GRUPPENVERSCHLUSS
 70
        64
 62
       234
  6
CONTINUOUS
290
         1
370
        18
390
1D
  0
LAYER
  5
47
100
AcDbSymbolTableRecord
100
AcDbLayerTableRecord
  2
3301 VERSCHLUSSREGISTER JE
 70
        64
 62
         7
  6
CONTINUOUS
290
         1
370
         0
390
1D
  0
LAYER
  5
48
100
AcDbSymbolTableRecord
100
AcDbLayerTableRecord
  2
3303 HEBELBOCK
 70
        64
 62
       172
  6
CONTINUOUS
290
         1
370
        18
390
1D
  0
LAYER
  5
49
100
AcDbSymbolTableRecord
100
AcDbLayerTableRecord
  2
3303 HEBELEISEN UMGELEGT
 70
        64
 62
         5
  6
DASHED
290
         1
370
        18
390
1D
  0
LAYER
  5
4A
100
AcDbSymbolTableRecord
100
AcDbLayerTableRecord
  2
3303 HEBELEISEN
 70
        64
 62
         5
  6
CONTINUOUS
290
         1
370
        18
390
1D
  0
LAYER
  5
4B
100
AcDbSymbolTableRecord
100
AcDbLayerTableRecord
  2
3303 HANDFALLE ANGEZOGEN
 70
        64
 62
       134
  6
DIVIDE
290
         1
370
        18
390
1D
  0
LAYER
  5
4C
100
AcDbSymbolTableRecord
100
AcDbLayerTableRecord
  2
3303 HANDFALLE UMGELEGT
 70
        64
 62
       134
  6
DASHED
290
         1
370
        18
390
1D
  0
LAYER
  5
4D
100
AcDbSymbolTableRecord
100
AcDbLayerTableRecord
  2
3302 HANDFALLE
 70
        64
 62
       134
  6
CONTINUOUS
290
         1
370
        18
390
1D
  0
LAYER
  5
4E
100
AcDbSymbolTableRecord
100
AcDbLayerTableRecord
  2
3303 HEBELERSATZSCHLOSS JE
 70
        64
 62
         7
  6
CONTINUOUS
290
         1
370
         0
390
1D
  0
LAYER
  5
4F
100
AcDbSymbolTableRecord
100
AcDbLayerTableRecord
  2
3211 TRÄGER JE
 70
        64
 62
         7
  6
CONTINUOUS
290
         1
370
        18
390
1D
  0
LAYER
  5
50
100
AcDbSymbolTableRecord
100
AcDbLayerTableRecord
  2
3211 STÄNDER JE
 70
        64
 62
         7
  6
CONTINUOUS
290
         1
370
        18
390
1D
  0
LAYER
  5
51
100
AcDbSymbolTableRecord
100
AcDbLayerTableRecord
  2
3211 HEBELBANK JE
 70
        64
 62
         9
  6
CONTINUOUS
290
         1
370
        18
390
1D
  0
LAYER
  5
52
100
AcDbSymbolTableRecord
100
AcDbLayerTableRecord
  2
3304 KLOBEN
 70
        64
 62
       190
  6
CONTINUOUS
290
         1
370
         0
390
1D
  0
LAYER
  5
53
100
AcDbSymbolTableRecord
100
AcDbLayerTableRecord
  2
3201-3204 WINKELHEBEL
 70
        64
 62
       190
  6
CONTINUOUS
290
         1
370
        18
390
1D
  0
LAYER
  5
54
100
AcDbSymbolTableRecord
100
AcDbLayerTableRecord
  2
3201 HEBELBOCK
 70
        64
 62
         7
  6
CONTINUOUS
290
         1
370
        18
390
1D
  0
LAYER
  5
55
100
AcDbSymbolTableRecord
100
AcDbLayerTableRecord
  2
3201 SEILZUG
 70
        64
 62
        94
  6
DASHDOT
290
         1
370
        18
390
1D
  0
LAYER
  5
56
100
AcDbSymbolTableRecord
100
AcDbLayerTableRecord
  2
3201-3204 HEBEL JE
 70
        64
 62
         7
  6
CONTINUOUS
290
         1
370
         0
390
1D
  0
LAYER
  5
57
100
AcDbSymbolTableRecord
100
AcDbLayerTableRecord
  2
2053 SCHILD
 70
        64
 62
        54
  6
CONTINUOUS
290
         1
370
        18
390
1D
  0
LAYER
  5
58
100
AcDbSymbolTableRecord
100
AcDbLayerTableRecord
  2
2053 SCHLÜSSEL
 70
        64
 62
       190
  6
CONTINUOUS
290
         1
370
        18
390
1D
  0
LAYER
  5
59
100
AcDbSymbolTableRecord
100
AcDbLayerTableRecord
  2
2053 SCHLÜSSEL MIT DORN
 70
        64
 62
         7
  6
CONTINUOUS
290
         1
370
         0
390
1D
  0
LAYER
  5
5A
100
AcDbSymbolTableRecord
100
AcDbLayerTableRecord
  2
2001 BODEN
 70
        64
 62
        14
  6
CONTINUOUS
290
         1
370
        18
390
1D
  0
LAYER
  5
5B
100
AcDbSymbolTableRecord
100
AcDbLayerTableRecord
  2
2001 GEBÄUDE
 70
        64
 62
         7
  6
CONTINUOUS
290
         1
370
         0
390
1D
  0
LAYER
  5
5C
100
AcDbSymbolTableRecord
100
AcDbLayerTableRecord
  2
1088 GEHÄUSE
 70
        64
 62
         7
  6
CONTINUOUS
290
         1
370
        18
390
1D
  0
LAYER
  5
5D
100
AcDbSymbolTableRecord
100
AcDbLayerTableRecord
  2
1088 BAUTEIL
 70
        64
 62
         7
  6
CONTINUOUS
290
         1
370
        18
390
1D
  0
LAYER
  5
5E
100
AcDbSymbolTableRecord
100
AcDbLayerTableRecord
  2
3305 HEBELBOCK
 70
        64
 62
         7
  6
CONTINUOUS
290
         1
370
        13
390
1D
  0
LAYER
  5
5F
100
AcDbSymbolTableRecord
100
AcDbLayerTableRecord
  2
3305 HEBELSCHILD
 70
        64
 62
       171
  6
CONTINUOUS
290
         1
370
        18
390
1D
  0
LAYER
  5
60
100
AcDbSymbolTableRecord
100
AcDbLayerTableRecord
  2
3305 HANDFALLE NACH UNTEN UMGELEGT
 70
        64
 62
        30
  6
DASHDOT
290
         1
370
        13
390
1D
  0
LAYER
  5
61
100
AcDbSymbolTableRecord
100
AcDbLayerTableRecord
  2
3305 HANDFALLE ANGEZOGEN
 70
        64
 62
        30
  6
DASHDOT
290
         1
370
        13
390
1D
  0
LAYER
  5
62
100
AcDbSymbolTableRecord
100
AcDbLayerTableRecord
  2
3305 HANDFALLE NACH OBEN UMGELEGT
 70
        64
 62
        30
  6
DASHDOT
290
         1
370
        13
390
1D
  0
LAYER
  5
63
100
AcDbSymbolTableRecord
100
AcDbLayerTableRecord
  2
3305 HANDFALLE
 70
        64
 62
        30
  6
CONTINUOUS
290
         1
370
        13
390
1D
  0
LAYER
  5
64
100
AcDbSymbolTableRecord
100
AcDbLayerTableRecord
  2
3305 HEBEL NACH OBEN UMGELEGT
 70
        64
 62
         5
  6
DASHDOT
290
         1
370
        13
390
1D
  0
LAYER
  5
65
100
AcDbSymbolTableRecord
100
AcDbLayerTableRecord
  2
3305 HEBEL NACH UNTEN UMGELEGT
 70
        64
 62
         5
  6
DASHED
290
         1
370
        13
390
1D
  0
LAYER
  5
66
100
AcDbSymbolTableRecord
100
AcDbLayerTableRecord
  2
3305 HEBEL
 70
        64
 62
         5
  6
CONTINUOUS
290
         1
370
        13
390
1D
  0
LAYER
  5
67
100
AcDbSymbolTableRecord
100
AcDbLayerTableRecord
  2
3305 FAHRSTRAßENHEBEL JE
 70
        64
 62
         7
  6
CONTINUOUS
290
         1
370
        13
390
1D
  0
LAYER
  5
68
100
AcDbSymbolTableRecord
100
AcDbLayerTableRecord
  2
KONSTRUKTION
 70
        64
 62
         7
  6
CONTINUOUS
290
         1
370
        18
390
1D
  0
LAYER
  5
69
100
AcDbSymbolTableRecord
100
AcDbLayerTableRecord
  2
MASSLINIEN
 70
        64
 62
       172
  6
CONTINUOUS
290
         1
370
        25
390
1D
  0
LAYER
  5
6A
100
AcDbSymbolTableRecord
100
AcDbLayerTableRecord
  2
TOLERANZEN
 70
        64
 62
       212
  6
CONTINUOUS
290
         1
370
         0
390
1D
  0
LAYER
  5
6B
100
AcDbSymbolTableRecord
100
AcDbLayerTableRecord
  2
MASSGRENZEN
 70
        64
 62
       172
  6
CONTINUOUS
290
         1
370
        25
390
1D
  0
LAYER
  5
6C
100
AcDbSymbolTableRecord
100
AcDbLayerTableRecord
  2
MASSTEXTE
 70
        64
 62
       212
  6
CONTINUOUS
290
         1
370
        25
390
1D
  0
LAYER
  5
6D
100
AcDbSymbolTableRecord
100
AcDbLayerTableRecord
  2
BEMASSUNG
 70
        64
 62
         7
  6
CONTINUOUS
290
         1
370
        25
390
1D
  0
LAYER
  5
6E
100
AcDbSymbolTableRecord
100
AcDbLayerTableRecord
  2
BESCHRIFTUNG
 70
        64
 62
         7
  6
CONTINUOUS
290
         1
370
        25
390
1D
  0
LAYER
  5
6F
100
AcDbSymbolTableRecord
100
AcDbLayerTableRecord
  2
UNSICHTBARE
 70
        64
 62
        92
  6
DASHED
290
         1
370
        25
390
1D
  0
LAYER
  5
70
100
AcDbSymbolTableRecord
100
AcDbLayerTableRecord
  2
HILFSLINIEN
 70
        64
 62
         3
  6
CONTINUOUS
290
         1
370
         0
390
1D
  0
LAYER
  5
71
100
AcDbSymbolTableRecord
100
AcDbLayerTableRecord
  2
3303_5L
 70
        64
 62
        30
  6
CONTINUOUS
290
         1
370
        13
390
1D
  0
LAYER
  5
72
100
AcDbSymbolTableRecord
100
AcDbLayerTableRecord
  2
3303_1P
 70
        64
 62
        30
  6
CONTINUOUS
290
         1
370
        13
390
1D
  0
LAYER
  5
73
100
AcDbSymbolTableRecord
100
AcDbLayerTableRecord
  2
3303_2R
 70
        64
 62
        14
  6
CONTINUOUS
290
         1
370
        13
390
1D
  0
LAYER
  5
74
100
AcDbSymbolTableRecord
100
AcDbLayerTableRecord
  2
3303_2L
 70
        64
 62
        30
  6
CONTINUOUS
290
         1
370
        13
390
1D
  0
LAYER
  5
75
100
AcDbSymbolTableRecord
100
AcDbLayerTableRecord
  2
3303_6L
 70
        64
 62
        30
  6
CONTINUOUS
290
         1
370
        13
390
1D
  0
LAYER
  5
76
100
AcDbSymbolTableRecord
100
AcDbLayerTableRecord
  2
3303_6R
 70
        64
 62
        14
  6
CONTINUOUS
290
         1
370
        13
390
1D
  0
LAYER
  5
77
100
AcDbSymbolTableRecord
100
AcDbLayerTableRecord
  2
3303_4P
 70
        64
 62
        30
  6
CONTINUOUS
290
         1
370
        13
390
1D
  0
LAYER
  5
78
100
AcDbSymbolTableRecord
100
AcDbLayerTableRecord
  2
3303_5R
 70
        64
 62
        14
  6
CONTINUOUS
290
         1
370
        13
390
1D
  0
LAYER
  5
79
100
AcDbSymbolTableRecord
100
AcDbLayerTableRecord
  2
3303___ HEBELERSATZSCHLOSS JE
 70
        64
 62
         6
  6
DASHDOT
290
         1
370
        13
390
1D
  0
LAYER
  5
7A
100
AcDbSymbolTableRecord
100
AcDbLayerTableRecord
  2
1088_1P
 70
        64
 62
        30
  6
CONTINUOUS
290
         1
370
        13
390
1D
  0
LAYER
  5
7B
100
AcDbSymbolTableRecord
100
AcDbLayerTableRecord
  2
1088_1R
 70
        64
 62
        14
  6
CONTINUOUS
290
         1
370
        13
390
1D
  0
LAYER
  5
7C
100
AcDbSymbolTableRecord
100
AcDbLayerTableRecord
  2
1088___ VORLAGEN
 70
        64
 62
       230
  6
CONTINUOUS
290
         1
370
        13
390
1D
  0
LAYER
  5
7D
100
AcDbSymbolTableRecord
100
AcDbLayerTableRecord
  2
3305_1P
 70
        64
 62
        30
  6
CONTINUOUS
290
         1
370
        13
390
1D
  0
LAYER
  5
7E
100
AcDbSymbolTableRecord
100
AcDbLayerTableRecord
  2
3305_2R
 70
        64
 62
        14
  6
CONTINUOUS
290
         1
370
        13
390
1D
  0
LAYER
  5
7F
100
AcDbSymbolTableRecord
100
AcDbLayerTableRecord
  2
3305_8L
 70
        64
 62
        30
  6
CONTINUOUS
290
         1
370
        13
390
1D
  0
LAYER
  5
80
100
AcDbSymbolTableRecord
100
AcDbLayerTableRecord
  2
3305_8R
 70
        64
 62
        14
  6
CONTINUOUS
290
         1
370
        13
390
1D
  0
LAYER
  5
81
100
AcDbSymbolTableRecord
100
AcDbLayerTableRecord
  2
3305_6P
 70
        64
 62
        30
  6
CONTINUOUS
290
         1
370
        13
390
1D
  0
LAYER
  5
82
100
AcDbSymbolTableRecord
100
AcDbLayerTableRecord
  2
3305_2L
 70
        64
 62
        30
  6
CONTINUOUS
290
         1
370
        13
390
1D
  0
LAYER
  5
83
100
AcDbSymbolTableRecord
100
AcDbLayerTableRecord
  2
3305_7L
 70
        64
 62
        30
  6
CONTINUOUS
290
         1
370
        13
390
1D
  0
LAYER
  5
84
100
AcDbSymbolTableRecord
100
AcDbLayerTableRecord
  2
3305_7R
 70
        64
 62
        14
  6
CONTINUOUS
290
         1
370
        13
390
1D
  0
LAYER
  5
85
100
AcDbSymbolTableRecord
100
AcDbLayerTableRecord
  2
3305___ FAHRSTRAßENHEBEL JE
 70
        64
 62
         6
  6
DASHDOT
290
         1
370
        13
390
1D
  0
LAYER
  5
86
100
AcDbSymbolTableRecord
100
AcDbLayerTableRecord
  2
3304_1P
 70
        64
 62
        30
  6
CONTINUOUS
290
         1
370
        13
390
1D
  0
LAYER
  5
87
100
AcDbSymbolTableRecord
100
AcDbLayerTableRecord
  2
3304___ KLOBEN
 70
        64
 62
         6
  6
DASHDOT
290
         1
370
         0
390
1D
  0
LAYER
  5
88
100
AcDbSymbolTableRecord
100
AcDbLayerTableRecord
  2
3301_711L # LI_ENDE LANG
 70
        64
 62
        30
  6
CONTINUOUS
290
         1
370
        18
390
1D
  0
LAYER
  5
89
100
AcDbSymbolTableRecord
100
AcDbLayerTableRecord
  2
3301_712L # LI_ENDE KURZ
 70
        64
 62
        30
  6
CONTINUOUS
290
         1
370
        18
390
1D
  0
LAYER
  5
8A
100
AcDbSymbolTableRecord
100
AcDbLayerTableRecord
  2
3301_714L # RE_ENDE KURZ
 70
        64
 62
        30
  6
CONTINUOUS
290
         1
370
        18
390
1D
  0
LAYER
  5
8B
100
AcDbSymbolTableRecord
100
AcDbLayerTableRecord
  2
3301_715L # RE_ENDE LANG
 70
        64
 62
        30
  6
CONTINUOUS
290
         1
370
        18
390
1D
  0
LAYER
  5
8C
100
AcDbSymbolTableRecord
100
AcDbLayerTableRecord
  2
3301_713L # MITTE
 70
        64
 62
        30
  6
CONTINUOUS
290
         1
370
        18
390
1D
  0
LAYER
  5
8D
100
AcDbSymbolTableRecord
100
AcDbLayerTableRecord
  2
3301_71L~A
 70
        64
 62
         5
  6
CONTINUOUS
290
         1
370
         0
390
1D
  0
LAYER
  5
8E
100
AcDbSymbolTableRecord
100
AcDbLayerTableRecord
  2
3301_71L # RAHMENWINKEL VO
 70
        64
 62
        11
  6
CONTINUOUS
290
         1
370
        18
390
1D
  0
LAYER
  5
8F
100
AcDbSymbolTableRecord
100
AcDbLayerTableRecord
  2
3301_711R # LI_ENDE LANG
 70
        64
 62
        14
  6
CONTINUOUS
290
         1
370
        18
390
1D
  0
LAYER
  5
90
100
AcDbSymbolTableRecord
100
AcDbLayerTableRecord
  2
3301_712R # LI_ENDE KURZ
 70
        64
 62
        14
  6
CONTINUOUS
290
         1
370
        18
390
1D
  0
LAYER
  5
91
100
AcDbSymbolTableRecord
100
AcDbLayerTableRecord
  2
3301_713R # MITTE
 70
        64
 62
        14
  6
CONTINUOUS
290
         1
370
        18
390
1D
  0
LAYER
  5
92
100
AcDbSymbolTableRecord
100
AcDbLayerTableRecord
  2
3301_714R # RE_ENDE KURZ
 70
        64
 62
        14
  6
CONTINUOUS
290
         1
370
        18
390
1D
  0
LAYER
  5
93
100
AcDbSymbolTableRecord
100
AcDbLayerTableRecord
  2
3301_715R # RE_ENDE LANG
 70
        64
 62
        14
  6
CONTINUOUS
290
         1
370
        18
390
1D
  0
LAYER
  5
94
100
AcDbSymbolTableRecord
100
AcDbLayerTableRecord
  2
3301_71R~A
 70
        64
 62
         5
  6
CONTINUOUS
290
         1
370
         0
390
1D
  0
LAYER
  5
95
100
AcDbSymbolTableRecord
100
AcDbLayerTableRecord
  2
3301_71R # RAHMENWINKEL VO
 70
        64
 62
        15
  6
CONTINUOUS
290
         1
370
        18
390
1D
  0
LAYER
  5
96
100
AcDbSymbolTableRecord
100
AcDbLayerTableRecord
  2
3301_721P # LI_ENDE LANG
 70
        64
 62
        30
  6
CONTINUOUS
290
         1
370
        18
390
1D
  0
LAYER
  5
97
100
AcDbSymbolTableRecord
100
AcDbLayerTableRecord
  2
3301_722P # LI_ENDE KURZ
 70
        64
 62
        30
  6
CONTINUOUS
290
         1
370
        18
390
1D
  0
LAYER
  5
98
100
AcDbSymbolTableRecord
100
AcDbLayerTableRecord
  2
3301_723P # MITTE
 70
        64
 62
        30
  6
CONTINUOUS
290
         1
370
        18
390
1D
  0
LAYER
  5
99
100
AcDbSymbolTableRecord
100
AcDbLayerTableRecord
  2
3301_724P # RE_ENDE KURZ
 70
        64
 62
        30
  6
CONTINUOUS
290
         1
370
        18
390
1D
  0
LAYER
  5
9A
100
AcDbSymbolTableRecord
100
AcDbLayerTableRecord
  2
3301_725P # RE_ENDE LANG
 70
        64
 62
        30
  6
CONTINUOUS
290
         1
370
        18
390
1D
  0
LAYER
  5
9B
100
AcDbSymbolTableRecord
100
AcDbLayerTableRecord
  2
3301_72P~A
 70
        64
 62
         5
  6
CONTINUOUS
290
         1
370
        18
390
1D
  0
LAYER
  5
9C
100
AcDbSymbolTableRecord
100
AcDbLayerTableRecord
  2
3301_72P # RAHMENWANGE VO
 70
        64
 62
        30
  6
CONTINUOUS
290
         1
370
        18
390
1D
  0
LAYER
  5
9D
100
AcDbSymbolTableRecord
100
AcDbLayerTableRecord
  2
3301_741L # LI_ENDE LANG
 70
        64
 62
        30
  6
CONTINUOUS
290
         1
370
        18
390
1D
  0
LAYER
  5
9E
100
AcDbSymbolTableRecord
100
AcDbLayerTableRecord
  2
3301_742L # LI_ENDE KURZ
 70
        64
 62
        30
  6
CONTINUOUS
290
         1
370
        18
390
1D
  0
LAYER
  5
9F
100
AcDbSymbolTableRecord
100
AcDbLayerTableRecord
  2
3301_743L # MITTE
 70
        64
 62
        30
  6
CONTINUOUS
290
         1
370
        18
390
1D
  0
LAYER
  5
A0
100
AcDbSymbolTableRecord
100
AcDbLayerTableRecord
  2
3301_744L # RE_ENDE KURZ
 70
        64
 62
        30
  6
CONTINUOUS
290
         1
370
        18
390
1D
  0
LAYER
  5
A1
100
AcDbSymbolTableRecord
100
AcDbLayerTableRecord
  2
3301_745L # RE_ENDE LANG
 70
        64
 62
        30
  6
CONTINUOUS
290
         1
370
        18
390
1D
  0
LAYER
  5
A2
100
AcDbSymbolTableRecord
100
AcDbLayerTableRecord
  2
3301_74L~A
 70
        64
 62
         5
  6
CONTINUOUS
290
         1
370
         0
390
1D
  0
LAYER
  5
A3
100
AcDbSymbolTableRecord
100
AcDbLayerTableRecord
  2
3301_74L # RAHMENWINKEL HI
 70
        64
 62
        11
  6
CONTINUOUS
290
         1
370
        18
390
1D
  0
LAYER
  5
A4
100
AcDbSymbolTableRecord
100
AcDbLayerTableRecord
  2
3301_745R # RE_ENDE LANG
 70
        64
 62
        14
  6
CONTINUOUS
290
         1
370
        18
390
1D
  0
LAYER
  5
A5
100
AcDbSymbolTableRecord
100
AcDbLayerTableRecord
  2
3301_744R # RE_ENDE KURZ
 70
        64
 62
        14
  6
CONTINUOUS
290
         1
370
        18
390
1D
  0
LAYER
  5
A6
100
AcDbSymbolTableRecord
100
AcDbLayerTableRecord
  2
3301_741R # LI_ENDE LANG
 70
        64
 62
        14
  6
CONTINUOUS
290
         1
370
        18
390
1D
  0
LAYER
  5
A7
100
AcDbSymbolTableRecord
100
AcDbLayerTableRecord
  2
3301_743R # MITTE
 70
        64
 62
        14
  6
CONTINUOUS
290
         1
370
        18
390
1D
  0
LAYER
  5
A8
100
AcDbSymbolTableRecord
100
AcDbLayerTableRecord
  2
3301_742R # LI_ENDE KURZ
 70
        64
 62
        14
  6
CONTINUOUS
290
         1
370
        18
390
1D
  0
LAYER
  5
A9
100
AcDbSymbolTableRecord
100
AcDbLayerTableRecord
  2
3301_74R~A
 70
        64
 62
         5
  6
CONTINUOUS
290
         1
370
         0
390
1D
  0
LAYER
  5
AA
100
AcDbSymbolTableRecord
100
AcDbLayerTableRecord
  2
3301_74R # RAHMENWINKEL HI
 70
        64
 62
        14
  6
CONTINUOUS
290
         1
370
        18
390
1D
  0
LAYER
  5
AB
100
AcDbSymbolTableRecord
100
AcDbLayerTableRecord
  2
3301_731P # LI_ENDE LANG
 70
        64
 62
        30
  6
CONTINUOUS
290
         1
370
        18
390
1D
  0
LAYER
  5
AC
100
AcDbSymbolTableRecord
100
AcDbLayerTableRecord
  2
3301_732P # LI_ENDE KURZ
 70
        64
 62
        30
  6
CONTINUOUS
290
         1
370
        18
390
1D
  0
LAYER
  5
AD
100
AcDbSymbolTableRecord
100
AcDbLayerTableRecord
  2
3301_733P # MITTE
 70
        64
 62
        30
  6
CONTINUOUS
290
         1
370
        18
390
1D
  0
LAYER
  5
AE
100
AcDbSymbolTableRecord
100
AcDbLayerTableRecord
  2
3301_734P # RE_ENDE KURZ
 70
        64
 62
        30
  6
CONTINUOUS
290
         1
370
        18
390
1D
  0
LAYER
  5
AF
100
AcDbSymbolTableRecord
100
AcDbLayerTableRecord
  2
3301_735P # RE_ENDE LANG
 70
        64
 62
        30
  6
CONTINUOUS
290
         1
370
        18
390
1D
  0
LAYER
  5
B0
100
AcDbSymbolTableRecord
100
AcDbLayerTableRecord
  2
3301_73P~A
 70
        64
 62
         5
  6
CONTINUOUS
290
         1
370
        18
390
1D
  0
LAYER
  5
B1
100
AcDbSymbolTableRecord
100
AcDbLayerTableRecord
  2
3301_73P # RAHMENWANGE HI
 70
        64
 62
        30
  6
CONTINUOUS
290
         1
370
        18
390
1D
  0
LAYER
  5
B2
100
AcDbSymbolTableRecord
100
AcDbLayerTableRecord
  2
3301_76P # FSTRSCHIEBER HI
 70
        64
 62
        30
  6
CONTINUOUS
290
         1
370
        18
390
1D
  0
LAYER
  5
B3
100
AcDbSymbolTableRecord
100
AcDbLayerTableRecord
  2
3301_75P # FSTRSCHIEBER VO
 70
        64
 62
        30
  6
CONTINUOUS
290
         1
370
        18
390
1D
  0
LAYER
  5
B4
100
AcDbSymbolTableRecord
100
AcDbLayerTableRecord
  2
3301_413L # MITTE
 70
        64
 62
        30
  6
CONTINUOUS
290
         1
370
        18
390
1D
  0
LAYER
  5
B5
100
AcDbSymbolTableRecord
100
AcDbLayerTableRecord
  2
3301_41L # RAHMENWINKEL VO
 70
        64
 62
        11
  6
CONTINUOUS
290
         1
370
        18
390
1D
  0
LAYER
  5
B6
100
AcDbSymbolTableRecord
100
AcDbLayerTableRecord
  2
3301_413R # MITTE
 70
        64
 62
        34
  6
CONTINUOUS
290
         1
370
        18
390
1D
  0
LAYER
  5
B7
100
AcDbSymbolTableRecord
100
AcDbLayerTableRecord
  2
3301_41R # RAHMENWINKEL VO
 70
        64
 62
        15
  6
CONTINUOUS
290
         1
370
        18
390
1D
  0
LAYER
  5
B8
100
AcDbSymbolTableRecord
100
AcDbLayerTableRecord
  2
3301_46P # FSTRSCHIEBER HI
 70
        64
 62
        30
  6
CONTINUOUS
290
         1
370
        18
390
1D
  0
LAYER
  5
B9
100
AcDbSymbolTableRecord
100
AcDbLayerTableRecord
  2
3301_433P # MITTE
 70
        64
 62
        30
  6
CONTINUOUS
290
         1
370
        18
390
1D
  0
LAYER
  5
BA
100
AcDbSymbolTableRecord
100
AcDbLayerTableRecord
  2
3301_43P # RAHMENWANGE HI
 70
        64
 62
        30
  6
CONTINUOUS
290
         1
370
        18
390
1D
  0
LAYER
  5
BB
100
AcDbSymbolTableRecord
100
AcDbLayerTableRecord
  2
3301_423P # MITTE
 70
        64
 62
        30
  6
CONTINUOUS
290
         1
370
        18
390
1D
  0
LAYER
  5
BC
100
AcDbSymbolTableRecord
100
AcDbLayerTableRecord
  2
3301_42P # RAHMENWANGE VO
 70
        64
 62
        30
  6
CONTINUOUS
290
         1
370
        18
390
1D
  0
LAYER
  5
BD
100
AcDbSymbolTableRecord
100
AcDbLayerTableRecord
  2
3301_443R # MITTE
 70
        64
 62
        14
  6
CONTINUOUS
290
         1
370
        18
390
1D
  0
LAYER
  5
BE
100
AcDbSymbolTableRecord
100
AcDbLayerTableRecord
  2
3301_44R # RAHMENWINKEL HI
 70
        64
 62
        15
  6
CONTINUOUS
290
         1
370
        18
390
1D
  0
LAYER
  5
BF
100
AcDbSymbolTableRecord
100
AcDbLayerTableRecord
  2
3301_443L # MITTE
 70
        64
 62
        30
  6
CONTINUOUS
290
         1
370
        18
390
1D
  0
LAYER
  5
C0
100
AcDbSymbolTableRecord
100
AcDbLayerTableRecord
  2
3301_44L # RAHMENWINKEL HI
 70
        64
 62
        11
  6
CONTINUOUS
290
         1
370
        18
390
1D
  0
LAYER
  5
C1
100
AcDbSymbolTableRecord
100
AcDbLayerTableRecord
  2
3301_45P # FSTRSCHIEBER VO
 70
        64
 62
        30
  6
CONTINUOUS
290
         1
370
        18
390
1D
  0
LAYER
  5
C2
100
AcDbSymbolTableRecord
100
AcDbLayerTableRecord
  2
3301_10E # GRU_VERSCHL_ANTR LI
 70
        64
 62
        11
  6
CONTINUOUS
290
         1
370
        18
390
1D
  0
LAYER
  5
C3
100
AcDbSymbolTableRecord
100
AcDbLayerTableRecord
  2
3301_10C # VERSCHLST_ SIG FREI LI
 70
        64
 62
        30
  6
CONTINUOUS
290
         1
370
        18
390
1D
  0
LAYER
  5
C4
100
AcDbSymbolTableRecord
100
AcDbLayerTableRecord
  2
3301_10B # VERSCHLST_ W- LI
 70
        64
 62
        30
  6
CONTINUOUS
290
         1
370
        18
390
1D
  0
LAYER
  5
C5
100
AcDbSymbolTableRecord
100
AcDbLayerTableRecord
  2
3301_10D # VERSCHLST_ SIG BEIDE LI
 70
        64
 62
        30
  6
CONTINUOUS
290
         1
370
        18
390
1D
  0
LAYER
  5
C6
100
AcDbSymbolTableRecord
100
AcDbLayerTableRecord
  2
3301_10I # VERSCHLST_ SIG BEIDE RE
 70
        64
 62
        15
  6
CONTINUOUS
290
         1
370
        18
390
1D
  0
LAYER
  5
C7
100
AcDbSymbolTableRecord
100
AcDbLayerTableRecord
  2
3301_10J # GRU_VERSCHL_ANTR RE
 70
        64
 62
        15
  6
CONTINUOUS
290
         1
370
        18
390
1D
  0
LAYER
  5
C8
100
AcDbSymbolTableRecord
100
AcDbLayerTableRecord
  2
3301_10G # VERSCHLST_ W- RE
 70
        64
 62
        15
  6
CONTINUOUS
290
         1
370
        18
390
1D
  0
LAYER
  5
C9
100
AcDbSymbolTableRecord
100
AcDbLayerTableRecord
  2
3301_10F # VERSCHLST_ W+ RE
 70
        64
 62
        15
  6
CONTINUOUS
290
         1
370
        18
390
1D
  0
LAYER
  5
CA
100
AcDbSymbolTableRecord
100
AcDbLayerTableRecord
  2
3301_10H # VERSCHLST_ SIG FREI RE
 70
        64
 62
        15
  6
CONTINUOUS
290
         1
370
        18
390
1D
  0
LAYER
  5
CB
100
AcDbSymbolTableRecord
100
AcDbLayerTableRecord
  2
3301_10A # VERSCHLST_ W+ LI
 70
        64
 62
        30
  6
CONTINUOUS
290
         1
370
        18
390
1D
  0
LAYER
  5
CC
100
AcDbSymbolTableRecord
100
AcDbLayerTableRecord
  2
3301_10T # VERSCHLST_ ANTRIEB UNTEN
 70
        64
 62
        30
  6
CONTINUOUS
290
         1
370
        18
390
1D
  0
LAYER
  5
CD
100
AcDbSymbolTableRecord
100
AcDbLayerTableRecord
  2
3301_10S # VERSCHLST_ FÜHRUNG UNTEN
 70
        64
 62
        30
  6
CONTINUOUS
290
         1
370
        18
390
1D
  0
LAYER
  5
CE
100
AcDbSymbolTableRecord
100
AcDbLayerTableRecord
  2
3301_10R # VERSCHLST_ UNTEN GERADE
 70
        64
 62
        30
  6
CONTINUOUS
290
         1
370
        18
390
1D
  0
LAYER
  5
CF
100
AcDbSymbolTableRecord
100
AcDbLayerTableRecord
  2
3301_10M # VERSCHLST_ LEER LI
 70
        64
 62
        30
  6
CONTINUOUS
290
         1
370
        18
390
1D
  0
LAYER
  5
D0
100
AcDbSymbolTableRecord
100
AcDbLayerTableRecord
  2
3301_10N # VERSCHLST_ LEER RE
 70
        64
 62
        15
  6
CONTINUOUS
290
         1
370
        18
390
1D
  0
LAYER
  5
D1
100
AcDbSymbolTableRecord
100
AcDbLayerTableRecord
  2
3301_10P # VERSCHLUSSSTÜCK
 70
        64
 62
        30
  6
CONTINUOUS
290
         1
370
        18
390
1D
  0
LAYER
  5
D2
100
AcDbSymbolTableRecord
100
AcDbLayerTableRecord
  2
3301_32P # FSTRSCHIEBERANTRIEBSWELLE
 70
        64
 62
        30
  6
CONTINUOUS
290
         1
370
        18
390
1D
  0
LAYER
  5
D3
100
AcDbSymbolTableRecord
100
AcDbLayerTableRecord
  2
3301_33Q # VERSCHLUSSBALKEN
 70
        64
 62
        30
  6
CONTINUOUS
290
         1
370
        18
390
1D
  0
LAYER
  5
D4
100
AcDbSymbolTableRecord
100
AcDbLayerTableRecord
  2
3301_33P # VERSCHLUSSBALKEN
 70
        64
 62
        30
  6
CONTINUOUS
290
         1
370
        18
390
1D
  0
LAYER
  5
D5
100
AcDbSymbolTableRecord
100
AcDbLayerTableRecord
  2
3301_31R # SCHIEBERRECHEN
 70
        64
 62
        15
  6
CONTINUOUS
290
         1
370
        18
390
1D
  0
LAYER
  5
D6
100
AcDbSymbolTableRecord
100
AcDbLayerTableRecord
  2
3301_31L # SCHIEBERRECHEN
 70
        64
 62
        11
  6
CONTINUOUS
290
         1
370
        18
390
1D
  0
LAYER
  5
D7
100
AcDbSymbolTableRecord
100
AcDbLayerTableRecord
  2
3301_12S # 4 VERSCHLUSSBALKENWINKEL
 70
        64
 62
        15
  6
CONTINUOUS
290
         1
370
        18
390
1D
  0
LAYER
  5
D8
100
AcDbSymbolTableRecord
100
AcDbLayerTableRecord
  2
3301_12R # VERSCHLUSSBALKENWINKEL
 70
        64
 62
        15
  6
CONTINUOUS
290
         1
370
        18
390
1D
  0
LAYER
  5
D9
100
AcDbSymbolTableRecord
100
AcDbLayerTableRecord
  2
3301_12M # 4 VERSCHLUSSBALKENWINKEL
 70
        64
 62
        11
  6
CONTINUOUS
290
         1
370
        18
390
1D
  0
LAYER
  5
DA
100
AcDbSymbolTableRecord
100
AcDbLayerTableRecord
  2
3301_12L # VERSCHLUSSBALKENWINKEL
 70
        64
 62
        11
  6
CONTINUOUS
290
         1
370
        18
390
1D
  0
LAYER
  5
DB
100
AcDbSymbolTableRecord
100
AcDbLayerTableRecord
  2
3301_13S # 4 FSTRSCHIEBERANTRIEBSSTÜCKE
 70
        64
 62
        15
  6
CONTINUOUS
290
         1
370
        18
390
1D
  0
LAYER
  5
DC
100
AcDbSymbolTableRecord
100
AcDbLayerTableRecord
  2
3301_13R # FSTRSCHIEBERANTRIEBSSTÜCK
 70
        64
 62
        15
  6
CONTINUOUS
290
         1
370
        18
390
1D
  0
LAYER
  5
DD
100
AcDbSymbolTableRecord
100
AcDbLayerTableRecord
  2
3301_13M # 4 FSTRSCHIEBERANTRIEBSSTÜCKE
 70
        64
 62
        11
  6
CONTINUOUS
290
         1
370
        18
390
1D
  0
LAYER
  5
DE
100
AcDbSymbolTableRecord
100
AcDbLayerTableRecord
  2
3301_13L # FSTRSCHIEBERANTRIEBSSTÜCK
 70
        64
 62
        11
  6
CONTINUOUS
290
         1
370
        18
390
1D
  0
LAYER
  5
DF
100
AcDbSymbolTableRecord
100
AcDbLayerTableRecord
  2
3301_14S # 4 FSTRSCHIEBERANTRIEBSKURBELN
 70
        64
 62
        15
  6
CONTINUOUS
290
         1
370
        18
390
1D
  0
LAYER
  5
E0
100
AcDbSymbolTableRecord
100
AcDbLayerTableRecord
  2
3301_14R # FSTRSCHIEBERANTRIEBSKURBEL
 70
        64
 62
        15
  6
CONTINUOUS
290
         1
370
        18
390
1D
  0
LAYER
  5
E1
100
AcDbSymbolTableRecord
100
AcDbLayerTableRecord
  2
3301_14M # 4 FSTRSCHIEBERANTRIEBSKURBELN
 70
        64
 62
        11
  6
CONTINUOUS
290
         1
370
        18
390
1D
  0
LAYER
  5
E2
100
AcDbSymbolTableRecord
100
AcDbLayerTableRecord
  2
3301_14L # FSTRSCHIEBERANTRIEBSKURBEL
 70
        64
 62
        11
  6
CONTINUOUS
290
         1
370
        18
390
1D
  0
LAYER
  5
E3
100
AcDbSymbolTableRecord
100
AcDbLayerTableRecord
  2
3301_34P # GRUPPENVERSCHLUSSWELLE
 70
        64
 62
        30
  6
CONTINUOUS
290
         1
370
        18
390
1D
  0
LAYER
  5
E4
100
AcDbSymbolTableRecord
100
AcDbLayerTableRecord
  2
3301_21P # GRUPPENVERSCHLUSSSPERRSCHWINGE
 70
        64
 62
        30
  6
CONTINUOUS
290
         1
370
        18
390
1D
  0
LAYER
  5
E5
100
AcDbSymbolTableRecord
100
AcDbLayerTableRecord
  2
3301_20S # 3 GRUPPENVERSCHLUSSANTRIEBE
 70
        64
 62
        15
  6
CONTINUOUS
290
         1
370
        18
390
1D
  0
LAYER
  5
E6
100
AcDbSymbolTableRecord
100
AcDbLayerTableRecord
  2
3301_20R # GRUPPENVERSCHLUSSANTRIEB
 70
        64
 62
        15
  6
CONTINUOUS
290
         1
370
        18
390
1D
  0
LAYER
  5
E7
100
AcDbSymbolTableRecord
100
AcDbLayerTableRecord
  2
3301_20M # 3 GRUPPENVERSCHLUSSANTRIEBE
 70
        64
 62
        11
  6
CONTINUOUS
290
         1
370
        18
390
1D
  0
LAYER
  5
E8
100
AcDbSymbolTableRecord
100
AcDbLayerTableRecord
  2
3301_20L # GRUPPENVERSCHLUSSANTRIEB
 70
        64
 62
        11
  6
CONTINUOUS
290
         1
370
        18
390
1D
  0
LAYER
  5
E9
100
AcDbSymbolTableRecord
100
AcDbLayerTableRecord
  2
3301_22P # GRUPPENVERSCHLUSSSCHWINGENLAGER
 70
        64
 62
        30
  6
CONTINUOUS
290
         1
370
        18
390
1D
  0
LAYER
  5
EA
100
AcDbSymbolTableRecord
100
AcDbLayerTableRecord
  2
3301_24µ # GRUPPENVERSCHLUSSSCHWINGENRÖLLCHEN
 70
        64
 62
        30
  6
CONTINUOUS
290
         1
370
        18
390
1D
  0
LAYER
  5
EB
100
AcDbSymbolTableRecord
100
AcDbLayerTableRecord
  2
3301___ VERSCHLUSSREGISTER
 70
        64
 62
       230
  6
CONTINUOUS
290
         1
370
         0
390
1D
  0
LAYER
  5
EC
100
AcDbSymbolTableRecord
100
AcDbLayerTableRecord
  2
FRÄSPFADE
 70
        64
 62
        30
  6
CONTINUOUS
290
         1
370
         0
390
1D
  0
LAYER
  5
ED
100
AcDbSymbolTableRecord
100
AcDbLayerTableRecord
  2
BESCHRIFTUNG0
 70
        64
 62
         7
  6
CONTINUOUS
290
         1
370
        25
390
1D
  0
LAYER
  5
EE
100
AcDbSymbolTableRecord
100
AcDbLayerTableRecord
  2
GEWINDELINIEN
 70
        64
 62
       212
  6
CONTINUOUS
290
         1
370
        25
390
1D
  0
LAYER
  5
EF
100
AcDbSymbolTableRecord
100
AcDbLayerTableRecord
  2
STANDARD
 70
        64
 62
         7
  6
CONTINUOUS
290
         1
370
         0
390
1D
  0
ENDTAB
  0
TABLE
  2
STYLE
  5
3
100
AcDbSymbolTable
 70
         3
  0
STYLE
  5
17
100
AcDbSymbolTableRecord
100
AcDbTextStyleTableRecord
  2
Standard
 70
         0
 40
0.0
 41
1.0
 50
0.0
 71
         0
 42
0.0
  3
txt
  4

  0
STYLE
  5
2D
100
AcDbSymbolTableRecord
100
AcDbTextStyleTableRecord
  2
CADdy
 70
         0
 40
0.0
 41
1.0
 50
0.0
 71
         0
 42
3.5
  3
txt.shx
  4

  0
STYLE
  5
2E
100
AcDbSymbolTableRecord
100
AcDbTextStyleTableRecord
  2
Arial
 70
         0
 40
0.0
 41
1.0
 50
0.0
 71
         0
 42
3.5
  3
arial.ttf
  4

1001
ACAD
1000
Arial
1071
       34
  0
ENDTAB
  0
TABLE
  2
VIEW
  5
5
100
AcDbSymbolTable
 70
         0
  0
ENDTAB
  0
TABLE
  2
UCS
  5
6
100
AcDbSymbolTable
 70
         0
  0
ENDTAB
  0
TABLE
  2
APPID
  5
8
100
AcDbSymbolTable
 70
         1
  0
APPID
  5
16
100
AcDbSymbolTableRecord
100
AcDbRegAppTableRecord
  2
ACAD
 70
        64
  0
ENDTAB
  0
TABLE
  2
DIMSTYLE
  5
9
100
AcDbSymbolTable
 70
         1
100
AcDbDimStyleTable
 71
         0
  0
DIMSTYLE
105
18
100
AcDbSymbolTableRecord
100
AcDbDimStyleTableRecord
  2
Standard
 70
         0
  3

  4

 40
1.0
 41
0.18
 42
0.0625
 43
0.38
 44
0.18
 45
0.0
 46
0.0
 47
0.0
 48
0.0
 71
         0
 72
         0
 73
         1
 74
         1
 75
         0
 76
         0
 77
         0
 78
         0
 79
         0
140
0.18
141
0.09
142
0.0
143
25.4
144
1.0
145
0.0
146
1.0
147
0.09
148
0.0
170
         0
171
         2
172
         0
173
         0
174
         0
175
         0
176
         0
177
         0
178
         0
179
         0
271
         4
272
         4
273
         2
274
         2
275
         0
276
         0
277
         2
278
        46
279
         0
280
         0
281
         0
282
         0
283
         1
284
         0
285
         0
286
         0
288
         0
289
         3
340
17
341
0
342
0
343
0
344
0
371
        -2
372
        -2
  0
ENDTAB
  0
TABLE
  2
BLOCK_RECORD
  5
1
100
AcDbSymbolTable
 70
         0
  0
BLOCK_RECORD
  5
A
100
AcDbSymbolTableRecord
100
AcDbBlockTableRecord
  2
*MODEL_SPACE
340
20
  0
BLOCK_RECORD
  5
B
100
AcDbSymbolTableRecord
100
AcDbBlockTableRecord
  2
*PAPER_SPACE
340
21
  0
ENDTAB
  0
ENDSEC
  0
SECTION
  2
BLOCKS
  0
BLOCK
  5
D
100
AcDbEntity
  8
0
390
0
100
AcDbBlockBegin
  2
*MODEL_SPACE
 70
         0
 10
0.0
 20
0.0
 30
0.0
  3
*MODEL_SPACE
  1

  0
ENDBLK
  5
E
100
AcDbEntity
  8
0
390
0
100
AcDbBlockEnd
  0
BLOCK
  5
F
100
AcDbEntity
 67
         1
  8
0
390
0
100
AcDbBlockBegin
  2
*PAPER_SPACE
 70
         0
 10
0.0
 20
0.0
 30
0.0
  3
*PAPER_SPACE
  1

  0
ENDBLK
  5
10
100
AcDbEntity
 67
         1
  8
0
390
0
100
AcDbBlockEnd
  0
ENDSEC
  0
SECTION
  2
ENTITIES
  0
TEXT
  5
F0
100
AcDbEntity
  8
BESCHRIFTUNG
390
0
100
AcDbText
 10
215.3145333333
 20
29.3230888889
 30
0.0
 40
3.3
  1
2026-09-20
 41
1.0318365278
  7
Arial
 11
215.3145333333
 21
32.6230888889
 31
0.0
100
AcDbText
 73
         3
  0
TEXT
  5
F1
100
AcDbEntity
  8
BESCHRIFTUNG
390
0
100
AcDbText
 10
215.3145333333
 20
6.9230888889
 30
0.0
 40
3.3
  1
3301 P.6h Verschlussregister JE
 41
0.9827813311
  7
Arial
 11
215.3145333333
 21
10.2230888889
 31
0.0
100
AcDbText
 73
         3
  0
CIRCLE
  5
F2
100
AcDbEntity
  8
3301 VERSCHLUSSSTÜCKE
390
0
100
AcDbCircle
 10
41.875
 20
174.5364254379
 30
0.0
 40
1.25
  0
CIRCLE
  5
F3
100
AcDbEntity
  8
3301 VERSCHLUSSSTÜCKE
390
0
100
AcDbCircle
 10
37.375
 20
174.5364254379
 30
0.0
 40
1.5
  0
CIRCLE
  5
F4
100
AcDbEntity
  8
3301 VERSCHLUSSSTÜCKE
390
0
100
AcDbCircle
 10
46.375
 20
174.5364254379
 30
0.0
 40
1.5
  0
LINE
  5
F5
100
AcDbEntity
  8
3301 VERSCHLUSSSTÜCKE
390
0
100
AcDbLine
 10
176.125
 20
58.0364254379
 30
0.0
 11
147.125
 21
58.0364254379
 31
0.0
  0
LINE
  5
F6
100
AcDbEntity
  8
3301 VERSCHLUSSSTÜCKE
390
0
100
AcDbLine
 10
147.125
 20
58.0364254379
 30
0.0
 11
147.125
 21
48.0364254379
 31
0.0
  0
LINE
  5
F7
100
AcDbEntity
  8
3301 VERSCHLUSSSTÜCKE
390
0
100
AcDbLine
 10
147.125
 20
48.0364254379
 30
0.0
 11
176.125
 21
48.0364254379
 31
0.0
  0
LINE
  5
F8
100
AcDbEntity
  8
3301 VERSCHLUSSSTÜCKE
390
0
100
AcDbLine
 10
27.375
 20
168.0364254379
 30
0.0
 11
27.375
 21
185.6049679642
 31
0.0
  0
LINE
  5
F9
100
AcDbEntity
  8
3301 VERSCHLUSSSTÜCKE
390
0
100
AcDbLine
 10
29.375
 20
186.1049679642
 30
0.0
 11
38.2795411926
 21
186.1049679642
 31
0.0
  0
LINE
  5
FA
100
AcDbEntity
  8
3301 VERSCHLUSSSTÜCKE
390
0
100
AcDbLine
 10
176.125
 20
48.0364254379
 30
0.0
 11
176.125
 21
58.0364254379
 31
0.0
  0
LINE
  5
FB
100
AcDbEntity
  8
3301 VERSCHLUSSSTÜCKE
390
0
100
AcDbLine
 10
41.875
 20
178.0364254379
 30
0.0
 11
39.375
 21
178.0364254379
 31
0.0
  0
LINE
  5
FC
100
AcDbEntity
  8
3301 VERSCHLUSSSTÜCKE
390
0
100
AcDbLine
 10
27.375
 20
185.6049679642
 30
0.0
 11
29.375
 21
186.1049679642
 31
0.0
  0
LINE
  5
FD
100
AcDbEntity
  8
3301 VERSCHLUSSSTÜCKE
390
0
100
AcDbLine
 10
38.2795411926
 20
186.1049679642
 30
0.0
 11
39.3753212363
 21
178.0760271385
 31
0.0
  0
CIRCLE
  5
FE
100
AcDbEntity
  8
3301_10P # VERSCHLUSSSTÜCK
390
0
100
AcDbCircle
 10
161.625
 20
54.5364254379
 30
0.0
 40
1.25
  0
CIRCLE
  5
FF
100
AcDbEntity
  8
3301_10P # VERSCHLUSSSTÜCK
390
0
100
AcDbCircle
 10
166.125
 20
54.5364254379
 30
0.0
 40
1.5
  0
CIRCLE
  5
100
100
AcDbEntity
  8
3301_10P # VERSCHLUSSSTÜCK
390
0
100
AcDbCircle
 10
157.125
 20
54.5364254379
 30
0.0
 40
1.5
  0
CIRCLE
  5
101
100
AcDbEntity
  8
3301 VERSCHLUSSSTÜCKE
390
0
100
AcDbCircle
 10
41.875
 20
144.5364254379
 30
0.0
 40
1.25
  0
CIRCLE
  5
102
100
AcDbEntity
  8
3301 VERSCHLUSSSTÜCKE
390
0
100
AcDbCircle
 10
46.375
 20
144.5364254379
 30
0.0
 40
1.5
  0
CIRCLE
  5
103
100
AcDbEntity
  8
3301 VERSCHLUSSSTÜCKE
390
0
100
AcDbCircle
 10
37.375
 20
144.5364254379
 30
0.0
 40
1.5
  0
CIRCLE
  5
104
100
AcDbEntity
  8
3301 VERSCHLUSSSTÜCKE
390
0
100
AcDbCircle
 10
46.375
 20
84.5364254378
 30
0.0
 40
1.5
  0
CIRCLE
  5
105
100
AcDbEntity
  8
3301 VERSCHLUSSSTÜCKE
390
0
100
AcDbCircle
 10
37.375
 20
84.5364254378
 30
0.0
 40
1.5
  0
CIRCLE
  5
106
100
AcDbEntity
  8
3301 VERSCHLUSSSTÜCKE
390
0
100
AcDbCircle
 10
41.875
 20
84.5364254378
 30
0.0
 40
1.25
  0
LINE
  5
107
100
AcDbEntity
  8
3301 VERSCHLUSSSTÜCKE
390
0
100
AcDbLine
 10
147.125
 20
168.0364254379
 30
0.0
 11
176.125
 21
168.0364254379
 31
0.0
  0
LINE
  5
108
100
AcDbEntity
  8
3301 VERSCHLUSSSTÜCKE
390
0
100
AcDbLine
 10
27.375
 20
148.0364254379
 30
0.0
 11
27.375
 21
138.0364254379
 31
0.0
  0
LINE
  5
109
100
AcDbEntity
  8
3301 VERSCHLUSSSTÜCKE
390
0
100
AcDbLine
 10
27.375
 20
161.0332687333
 30
0.0
 11
27.375
 21
158.0332687333
 31
0.0
  0
LINE
  5
10A
100
AcDbEntity
  8
3301 VERSCHLUSSSTÜCKE
390
0
100
AcDbLine
 10
33.375
 20
157.5332687333
 30
0.0
 11
33.375
 21
148.0364254379
 31
0.0
  0
LINE
  5
10B
100
AcDbEntity
  8
3301 VERSCHLUSSSTÜCKE
390
0
100
AcDbLine
 10
37.3505132664
 20
162.0332687333
 30
0.0
 11
39.4926193508
 21
148.0364254379
 31
0.0
  0
LINE
  5
10C
100
AcDbEntity
  8
3301 VERSCHLUSSSTÜCKE
390
0
100
AcDbLine
 10
27.375
 20
148.0364254379
 30
0.0
 11
33.375
 21
148.0364254379
 31
0.0
  0
LINE
  5
10D
100
AcDbEntity
  8
3301 VERSCHLUSSSTÜCKE
390
0
100
AcDbLine
 10
39.4926193508
 20
148.0364254379
 30
0.0
 11
41.875
 21
148.0364254379
 31
0.0
  0
LINE
  5
10E
100
AcDbEntity
  8
3301 VERSCHLUSSSTÜCKE
390
0
100
AcDbLine
 10
29.375
 20
157.5332687333
 30
0.0
 11
27.375
 21
158.0332687333
 31
0.0
  0
LINE
  5
10F
100
AcDbEntity
  8
3301 VERSCHLUSSSTÜCKE
390
0
100
AcDbLine
 10
29.375
 20
157.5332687333
 30
0.0
 11
33.375
 21
157.5332687333
 31
0.0
  0
LINE
  5
110
100
AcDbEntity
  8
3301 VERSCHLUSSSTÜCKE
390
0
100
AcDbLine
 10
37.3505132664
 20
162.0332687333
 30
0.0
 11
27.375
 21
161.0332687333
 31
0.0
  0
LINE
  5
111
100
AcDbEntity
  8
3301 VERSCHLUSSSTÜCKE
390
0
100
AcDbLine
 10
27.375
 20
78.0364254378
 30
0.0
 11
21.25
 21
92.0364254378
 31
0.0
  0
LINE
  5
112
100
AcDbEntity
  8
3301 VERSCHLUSSSTÜCKE
390
0
100
AcDbLine
 10
176.125
 20
138.0364254379
 30
0.0
 11
176.125
 21
134.0364254379
 31
0.0
  0
LINE
  5
113
100
AcDbEntity
  8
3301 VERSCHLUSSSTÜCKE
390
0
100
AcDbLine
 10
147.125
 20
134.0364254379
 30
0.0
 11
147.125
 21
138.0364254382
 31
0.0
  0
LINE
  5
114
100
AcDbEntity
  8
3301 VERSCHLUSSSTÜCKE
390
0
100
AcDbLine
 10
23.25
 20
96.104967964
 30
0.0
 11
27.3249758243
 21
96.104967964
 31
0.0
  0
LINE
  5
115
100
AcDbEntity
  8
3301 VERSCHLUSSSTÜCKE
390
0
100
AcDbLine
 10
39.375
 20
88.0364254378
 30
0.0
 11
39.0584629374
 21
90.1047262069
 31
0.0
  0
LINE
  5
116
100
AcDbEntity
  8
3301 VERSCHLUSSSTÜCKE
390
0
100
AcDbLine
 10
21.25
 20
95.604967964
 30
0.0
 11
21.25
 21
92.0364254378
 31
0.0
  0
LINE
  5
117
100
AcDbEntity
  8
3301 VERSCHLUSSSTÜCKE
390
0
100
AcDbLine
 10
153.125
 20
136.0364254379
 30
0.0
 11
153.125
 21
138.0364254379
 31
0.0
  0
LINE
  5
118
100
AcDbEntity
  8
3301 VERSCHLUSSSTÜCKE
390
0
100
AcDbLine
 10
153.125
 20
136.0364254379
 30
0.0
 11
170.125
 21
136.0364254379
 31
0.0
  0
LINE
  5
119
100
AcDbEntity
  8
3301 VERSCHLUSSSTÜCKE
390
0
100
AcDbLine
 10
147.125
 20
134.0364254379
 30
0.0
 11
176.125
 21
134.0364254379
 31
0.0
  0
LINE
  5
11A
100
AcDbEntity
  8
3301 VERSCHLUSSSTÜCKE
390
0
100
AcDbLine
 10
29.3249758243
 20
95.604967964
 30
0.0
 11
29.875
 21
90.1047262069
 31
0.0
  0
LINE
  5
11B
100
AcDbEntity
  8
3301 VERSCHLUSSSTÜCKE
390
0
100
AcDbLine
 10
29.875
 20
90.1047262069
 30
0.0
 11
39.0584629374
 21
90.1047262069
 31
0.0
  0
LINE
  5
11C
100
AcDbEntity
  8
3301 VERSCHLUSSSTÜCKE
390
0
100
AcDbLine
 10
27.275
 20
108.0364254379
 30
0.0
 11
21.25
 21
122.0364254379
 31
0.0
  0
LINE
  5
11D
100
AcDbEntity
  8
3301 VERSCHLUSSSTÜCKE
390
0
100
AcDbLine
 10
21.25
 20
125.6049679642
 30
0.0
 11
21.25
 21
122.0364254379
 31
0.0
  0
LINE
  5
11E
100
AcDbEntity
  8
3301 VERSCHLUSSSTÜCKE
390
0
100
AcDbLine
 10
23.375
 20
126.1049679642
 30
0.0
 11
38.1401734271
 21
126.1049679642
 31
0.0
  0
LINE
  5
11F
100
AcDbEntity
  8
3301 VERSCHLUSSSTÜCKE
390
0
100
AcDbLine
 10
39.375
 20
118.0364254379
 30
0.0
 11
38.1401734271
 21
126.1049679642
 31
0.0
  0
LINE
  5
120
100
AcDbEntity
  8
3301 VERSCHLUSSSTÜCKE
390
0
100
AcDbLine
 10
40.375
 20
108.0364254379
 30
0.0
 11
27.375
 21
108.0364254379
 31
0.0
  0
LINE
  5
121
100
AcDbEntity
  8
3301 VERSCHLUSSSTÜCKE
390
0
100
AcDbLine
 10
170.125
 20
138.0364254379
 30
0.0
 11
153.125
 21
138.0364254379
 31
0.0
  0
CIRCLE
  5
122
100
AcDbEntity
  8
3301 VERSCHLUSSSTÜCKE
390
0
100
AcDbCircle
 10
41.875
 20
114.5364254379
 30
0.0
 40
1.25
  0
CIRCLE
  5
123
100
AcDbEntity
  8
3301 VERSCHLUSSSTÜCKE
390
0
100
AcDbCircle
 10
37.375
 20
114.5364254379
 30
0.0
 40
1.5
  0
CIRCLE
  5
124
100
AcDbEntity
  8
3301 VERSCHLUSSSTÜCKE
390
0
100
AcDbCircle
 10
46.375
 20
114.5364254379
 30
0.0
 40
1.5
  0
LINE
  5
125
100
AcDbEntity
  8
3301 VERSCHLUSSSTÜCKE
390
0
100
AcDbLine
 10
170.125
 20
136.0364254379
 30
0.0
 11
170.125
 21
138.0364254379
 31
0.0
  0
LINE
  5
126
100
AcDbEntity
  8
3301 VERSCHLUSSSTÜCKE
390
0
100
AcDbLine
 10
21.25
 20
125.6049679642
 30
0.0
 11
23.375
 21
126.1049679642
 31
0.0
  0
LINE
  5
127
100
AcDbEntity
  8
3301 VERSCHLUSSSTÜCKE
390
0
100
AcDbLine
 10
21.25
 20
95.604967964
 30
0.0
 11
23.25
 21
96.104967964
 31
0.0
  0
LINE
  5
128
100
AcDbEntity
  8
3301 VERSCHLUSSSTÜCKE
390
0
100
AcDbLine
 10
27.3249758243
 20
96.104967964
 30
0.0
 11
29.3249758243
 21
95.604967964
 31
0.0
  0
CIRCLE
  5
129
100
AcDbEntity
  8
3301 VERSCHLUSSSTÜCKE
390
0
100
AcDbCircle
 10
41.875
 20
54.5364254379
 30
0.0
 40
1.25
  0
CIRCLE
  5
12A
100
AcDbEntity
  8
3301 VERSCHLUSSSTÜCKE
390
0
100
AcDbCircle
 10
46.375
 20
54.5364254379
 30
0.0
 40
1.5
  0
CIRCLE
  5
12B
100
AcDbEntity
  8
3301 VERSCHLUSSSTÜCKE
390
0
100
AcDbCircle
 10
37.375
 20
54.5364254379
 30
0.0
 40
1.5
  0
ARC
  5
12C
100
AcDbEntity
  8
3301 VERSCHLUSSSTÜCKE
390
0
100
AcDbCircle
 10
36.5536020361
 20
72.3494169951
 30
0.0
 40
1.55
100
AcDbArc
 50
198.0504227093
 51
377.6896183094
  0
ARC
  5
12D
100
AcDbEntity
  8
3301 VERSCHLUSSSTÜCKE
390
0
100
AcDbCircle
 10
25.6
 20
80.3049679642
 30
0.0
 40
11.3717108553
100
AcDbArc
 50
307.869167756
 51
317.8477671917
  0
ARC
  5
12E
100
AcDbEntity
  8
3301 VERSCHLUSSSTÜCKE
390
0
100
AcDbCircle
 10
34.4012631864
 20
72.3378301497
 30
0.0
 40
0.5
100
AcDbArc
 50
18.0504227093
 51
137.8477671917
  0
LINE
  5
12F
100
AcDbEntity
  8
3301 VERSCHLUSSSTÜCKE
390
0
100
AcDbLine
 10
40.875
 20
77.3049679642
 30
0.0
 11
40.875
 21
58.0364254384
 31
0.0
  0
LINE
  5
130
100
AcDbEntity
  8
3301 VERSCHLUSSSTÜCKE
390
0
100
AcDbLine
 10
36.6
 20
77.3049679642
 30
0.0
 11
38.030312696
 21
72.8204006751
 31
0.0
  0
LINE
  5
131
100
AcDbEntity
  8
3301 VERSCHLUSSSTÜCKE
390
0
100
AcDbLine
 10
27.375
 20
63.0364254379
 30
0.0
 11
27.375
 21
48.0364254379
 31
0.0
  0
LINE
  5
132
100
AcDbEntity
  8
3301 VERSCHLUSSSTÜCKE
390
0
100
AcDbLine
 10
36.6
 20
77.3049679642
 30
0.0
 11
40.925
 21
77.3049679642
 31
0.0
  0
LINE
  5
133
100
AcDbEntity
  8
3301 VERSCHLUSSSTÜCKE
390
0
100
AcDbLine
 10
32.5806439518
 20
71.3279741582
 30
0.0
 11
32.5806439518
 21
58.0364254379
 31
0.0
  0
LINE
  5
134
100
AcDbEntity
  8
3301 VERSCHLUSSSTÜCKE
390
0
100
AcDbLine
 10
35.0798865261
 20
71.869143536
 30
0.0
 11
34.8766552864
 21
72.492757072
 31
0.0
  0
LINE
  5
135
100
AcDbEntity
  8
3301 VERSCHLUSSSTÜCKE
390
0
100
AcDbLine
 10
27.375
 20
63.0364254379
 30
0.0
 11
29.5806439518
 21
63.0364254379
 31
0.0
  0
CIRCLE
  5
136
100
AcDbEntity
  8
3301_10P # VERSCHLUSSSTÜCK
390
0
  6
PHANTOM
100
AcDbCircle
 10
136.625
 20
78.0364254379
 30
0.0
 40
0.5
  0
CIRCLE
  5
137
100
AcDbEntity
  8
3301_10P # VERSCHLUSSSTÜCK
390
0
  6
PHANTOM
100
AcDbCircle
 10
136.625
 20
43.0364254379
 30
0.0
 40
1.0
  0
ARC
  5
138
100
AcDbEntity
  8
3301_10P # VERSCHLUSSSTÜCK
390
0
  6
DASHDOT
100
AcDbCircle
 10
161.625
 20
66.839011644
 30
0.0
 40
25.1474137925
100
AcDbArc
 50
231.9487879236
 51
308.0512120762
  0
ARC
  5
139
100
AcDbEntity
  8
3301_10P # VERSCHLUSSSTÜCK
390
0
  6
DASHDOT
100
AcDbCircle
 10
171.4439655174
 20
55.7088392312
 30
0.0
 40
10.3674931297
100
AcDbArc
 50
303.227588574
 51
521.2788006513
  0
ARC
  5
13A
100
AcDbEntity
  8
3301_10P # VERSCHLUSSSTÜCK
390
0
  6
DASHDOT
100
AcDbCircle
 10
151.8060344828
 20
55.708839231
 30
0.0
 40
10.3674931296
100
AcDbArc
 50
18.7211993497
 51
236.7724114248
  0
LINE
  5
13B
100
AcDbEntity
  8
3301_10P # VERSCHLUSSSTÜCK
390
0
  6
DASHED
100
AcDbLine
 10
136.625
 20
78.0364254379
 30
0.0
 11
157.125
 21
54.5364254379
 31
0.0
  0
LINE
  5
13C
100
AcDbEntity
  8
3301_10P # VERSCHLUSSSTÜCK
390
0
  6
DASHED
100
AcDbLine
 10
157.125
 20
54.5364254379
 30
0.0
 11
161.625
 21
54.5364254378
 31
0.0
  0
ARC
  5
13D
100
AcDbEntity
  8
3301_10P # VERSCHLUSSSTÜCK
390
0
  6
DASHED
100
AcDbCircle
 10
163.8750000001
 20
53.6622301116
 30
0.0
 40
2.413859455
100
AcDbArc
 50
21.2327043376
 51
158.7672956706
  0
ARC
  5
13E
100
AcDbEntity
  8
3301_10P # VERSCHLUSSSTÜCK
390
0
  6
DASHED
100
AcDbCircle
 10
147.0941367775
 20
74.8687273647
 30
0.0
 40
27.8491697656
100
AcDbArc
 50
268.0057337067
 51
313.1063567325
  0
LINE
  5
13F
100
AcDbEntity
  8
3301_10P # VERSCHLUSSSTÜCK
390
0
  6
DASHED
100
AcDbLine
 10
146.125
 20
47.0364254379
 30
0.0
 11
136.625
 21
43.0364254379
 31
0.0
  0
MTEXT
  5
140
100
AcDbEntity
  8
3301_10P # VERSCHLUSSSTÜCK
390
0
  6
DASHED
100
AcDbMText
 10
136.625
 20
76.0871848129
 30
0.0
 40
1.275
 41
0.0
 71
         5
 72
         1
  1
\W1.271926;M50+x2 E[A-Z]$\PT2 O2 F150\PB-0.3    D1.2\PI1.2 P4 U20\P:L?ABCDEM\P:R?FGHIJN\P:U?RST
  7
Arial
 73
         1
 44
1.0352941176
  0
MTEXT
  5
141
100
AcDbEntity
  8
3301_10P # VERSCHLUSSSTÜCK
390
0
  6
DASHED
100
AcDbMText
 10
143.0
 20
52.050759375
 30
0.0
 40
1.275
 41
0.0
 71
         5
 72
         1
  1
\W1.271948;N1\P>3301.10=L\PM50+x2 T2 O2\P
  7
Arial
 73
         1
 44
0.9411764706
  0
MTEXT
  5
142
100
AcDbEntity
  8
3301_10P # VERSCHLUSSSTÜCK
390
0
  6
DASHED
100
AcDbMText
 10
180.0
 20
60.050759375
 30
0.0
 40
1.275
 41
0.0
 71
         5
 72
         1
  1
\W1.271894;>3301.10=R\PM50+x2 T2 O2\P
  7
Arial
 73
         1
 44
0.9411764706
  0
MTEXT
  5
143
100
AcDbEntity
  8
3301_10P # VERSCHLUSSSTÜCK
390
0
  6
DASHED
100
AcDbMText
 10
161.625
 20
42.0871848128
 30
0.0
 40
1.275
 41
0.0
 71
         5
 72
         1
  1
\W1.271894;>3301.10=U\PM50+x2 T2 O2\P
  7
Arial
 73
         1
 44
0.9411764706
  0
ARC
  5
144
100
AcDbEntity
  8
3301___ VERSCHLUSSREGISTER
390
0
  6
DASHDOT
100
AcDbCircle
 10
18.8522727275
 20
192.7636981651
 30
0.0
 40
26.8045516209
100
AcDbArc
 50
286.2990690598
 51
329.194541714
  0
ARC
  5
145
100
AcDbEntity
  8
3301___ VERSCHLUSSREGISTER
390
0
  6
DASHDOT
100
AcDbCircle
 10
18.8522727277
 20
162.7636981654
 30
0.0
 40
26.8045516208
100
AcDbArc
 50
286.2990690595
 51
329.1945417137
  0
ARC
  5
146
100
AcDbEntity
  8
3301___ VERSCHLUSSREGISTER
390
0
  6
DASHDOT
100
AcDbCircle
 10
18.852272728
 20
132.7636981655
 30
0.0
 40
26.8045516205
100
AcDbArc
 50
286.2990690588
 51
329.194541713
  0
ARC
  5
147
100
AcDbEntity
  8
3301___ VERSCHLUSSREGISTER
390
0
  6
DASHDOT
100
AcDbCircle
 10
18.8522727277
 20
102.7636981654
 30
0.0
 40
26.8045516208
100
AcDbArc
 50
286.2990690595
 51
329.1945417137
  0
ARC
  5
148
100
AcDbEntity
  8
3301___ VERSCHLUSSREGISTER
390
0
  6
DASHDOT
100
AcDbCircle
 10
18.8522727269
 20
72.7636981654
 30
0.0
 40
26.8045516213
100
AcDbArc
 50
286.2990690609
 51
329.1945417151
  0
LINE
  5
149
100
AcDbEntity
  8
3301 VERSCHLUSSSTÜCKE
390
0
100
AcDbLine
 10
39.375
 20
118.0364254379
 30
0.0
 11
41.875
 21
118.0364254379
 31
0.0
  0
LINE
  5
14A
100
AcDbEntity
  8
3301 VERSCHLUSSSTÜCKE
390
0
100
AcDbLine
 10
41.875
 20
88.0364254379
 30
0.0
 11
39.375
 21
88.0364254379
 31
0.0
  0
LINE
  5
14B
100
AcDbEntity
  8
3301 VERSCHLUSSSTÜCKE
390
0
100
AcDbLine
 10
41.875
 20
58.0364254384
 30
0.0
 11
40.875
 21
58.0364254384
 31
0.0
  0
LINE
  5
14C
100
AcDbEntity
  8
3301 VERSCHLUSSSTÜCKE
390
0
100
AcDbLine
 10
171.725
 20
105.9364254378
 30
0.0
 11
171.725
 21
102.0364254378
 31
0.0
  0
LINE
  5
14D
100
AcDbEntity
  8
3301 VERSCHLUSSSTÜCKE
390
0
100
AcDbLine
 10
147.125
 20
108.0364254378
 30
0.0
 11
163.125
 21
108.0364254378
 31
0.0
  0
LINE
  5
14E
100
AcDbEntity
  8
3301 VERSCHLUSSSTÜCKE
390
0
100
AcDbLine
 10
167.525
 20
105.9364254378
 30
0.0
 11
167.525
 21
102.0364254378
 31
0.0
  0
LINE
  5
14F
100
AcDbEntity
  8
3301 VERSCHLUSSSTÜCKE
390
0
100
AcDbLine
 10
163.125
 20
102.0364254378
 30
0.0
 11
163.125
 21
108.0364254378
 31
0.0
  0
LINE
  5
150
100
AcDbEntity
  8
3301 VERSCHLUSSSTÜCKE
390
0
100
AcDbLine
 10
167.525
 20
102.0364254378
 30
0.0
 11
163.125
 21
102.0364254378
 31
0.0
  0
LINE
  5
151
100
AcDbEntity
  8
3301 VERSCHLUSSSTÜCKE
390
0
100
AcDbLine
 10
176.125
 20
108.0364254378
 30
0.0
 11
176.125
 21
102.0364254378
 31
0.0
  0
LINE
  5
152
100
AcDbEntity
  8
3301 VERSCHLUSSSTÜCKE
390
0
100
AcDbLine
 10
176.125
 20
102.0364254378
 30
0.0
 11
171.725
 21
102.0364254378
 31
0.0
  0
ARC
  5
153
100
AcDbEntity
  8
3301 VERSCHLUSSSTÜCKE
390
0
100
AcDbCircle
 10
169.625
 20
105.9364254378
 30
0.0
 40
2.1
100
AcDbArc
 50
0.0
 51
180.0
  0
ARC
  5
154
100
AcDbEntity
  8
3301___ VERSCHLUSSREGISTER
390
0
  6
DASHDOT
100
AcDbCircle
 10
161.625
 20
151.9978582897
 30
0.0
 40
21.5964928142
100
AcDbArc
 50
44.134335836
 51
135.865664164
  0
CIRCLE
  5
155
100
AcDbEntity
  8
3301_10A # VERSCHLST_ W+ LI
390
0
  6
PHANTOM
100
AcDbCircle
 10
26.375
 20
167.0364254379
 30
0.0
 40
0.5
  0
CIRCLE
  5
156
100
AcDbEntity
  8
3301_10A # VERSCHLST_ W+ LI
390
0
  6
PHANTOM
100
AcDbCircle
 10
41.875
 20
179.0364254379
 30
0.0
 40
1.0
  0
MTEXT
  5
157
100
AcDbEntity
  8
3301_10A # VERSCHLST_ W+ LI
390
0
  6
DASHED
100
AcDbMText
 10
25.875
 20
166.0871848129
 30
0.0
 40
1.275
 41
0.0
 71
         5
 72
         1
  1
\W1.271908;M50+x2 \PT2 O2  F150\PB-0.3 I1.2\P
  7
Arial
 73
         1
 44
1.0352941176
  0
CIRCLE
  5
158
100
AcDbEntity
  8
3301_10B # VERSCHLST_ W- LI
390
0
  6
PHANTOM
100
AcDbCircle
 10
26.375
 20
137.0364254382
 30
0.0
 40
0.5
  0
CIRCLE
  5
159
100
AcDbEntity
  8
3301_10B # VERSCHLST_ W- LI
390
0
  6
PHANTOM
100
AcDbCircle
 10
41.875
 20
149.0364254382
 30
0.0
 40
1.0
  0
TEXT
  5
15A
100
AcDbEntity
  8
3301_10B # VERSCHLST_ W- LI
390
0
  6
DASHED
100
AcDbText
 10
19.7176780338
 20
135.4496848132
 30
0.0
 40
1.275
  1
@3301.10A
 41
1.2719070631
  7
Arial
 72
         1
 11
25.875
 21
136.0871848132
 31
0.0
100
AcDbText
 73
         2
  0
CIRCLE
  5
15B
100
AcDbEntity
  8
3301_10C # VERSCHLST_ SIG FREI LI
390
0
  6
PHANTOM
100
AcDbCircle
 10
41.875
 20
119.0364254385
 30
0.0
 40
1.0
  0
CIRCLE
  5
15C
100
AcDbEntity
  8
3301_10C # VERSCHLST_ SIG FREI LI
390
0
  6
PHANTOM
100
AcDbCircle
 10
26.375
 20
107.0364254385
 30
0.0
 40
0.5
  0
TEXT
  5
15D
100
AcDbEntity
  8
3301_10C # VERSCHLST_ SIG FREI LI
390
0
  6
DASHED
100
AcDbText
 10
19.7176780338
 20
105.4496848135
 30
0.0
 40
1.275
  1
@3301.10A
 41
1.2719070631
  7
Arial
 72
         1
 11
25.875
 21
106.0871848135
 31
0.0
100
AcDbText
 73
         2
  0
CIRCLE
  5
15E
100
AcDbEntity
  8
3301_10D # VERSCHLST_ SIG BEIDE LI
390
0
  6
PHANTOM
100
AcDbCircle
 10
41.875
 20
89.0364254382
 30
0.0
 40
1.0
  0
CIRCLE
  5
15F
100
AcDbEntity
  8
3301_10D # VERSCHLST_ SIG BEIDE LI
390
0
  6
PHANTOM
100
AcDbCircle
 10
26.375
 20
77.0364254382
 30
0.0
 40
0.5
  0
TEXT
  5
160
100
AcDbEntity
  8
3301_10D # VERSCHLST_ SIG BEIDE LI
390
0
  6
DASHED
100
AcDbText
 10
19.7176780338
 20
75.4496848132
 30
0.0
 40
1.275
  1
@3301.10A
 41
1.2719070631
  7
Arial
 72
         1
 11
25.875
 21
76.0871848132
 31
0.0
100
AcDbText
 73
         2
  0
CIRCLE
  5
161
100
AcDbEntity
  8
3301_10E # GRU_VERSCHL_ANTR LI
390
0
  6
PHANTOM
100
AcDbCircle
 10
41.875
 20
59.0364254382
 30
0.0
 40
1.0
  0
CIRCLE
  5
162
100
AcDbEntity
  8
3301_10E # GRU_VERSCHL_ANTR LI
390
0
  6
PHANTOM
100
AcDbCircle
 10
26.375
 20
47.0364254379
 30
0.0
 40
0.5
  0
TEXT
  5
163
100
AcDbEntity
  8
3301_10E # GRU_VERSCHL_ANTR LI
390
0
  6
DASHED
100
AcDbText
 10
19.7176780338
 20
45.4496848132
 30
0.0
 40
1.275
  1
@3301.10A
 41
1.2719070631
  7
Arial
 72
         1
 11
25.875
 21
46.0871848132
 31
0.0
100
AcDbText
 73
         2
  0
MTEXT
  5
164
100
AcDbEntity
  8
3301_10R # VERSCHLST_ UNTEN GERADE
390
0
  6
DASHED
100
AcDbMText
 10
177.125
 20
167.0871848129
 30
0.0
 40
1.275
 41
0.0
 71
         5
 72
         1
  1
\W1.271908;M50+x2 \PT2 O2 F150\PB-0.3    D1.2\PI1.2 P4 U20\P
  7
Arial
 73
         1
 44
1.0352941176
  0
CIRCLE
  5
165
100
AcDbEntity
  8
3301_10R # VERSCHLST_ UNTEN GERADE
390
0
  6
PHANTOM
100
AcDbCircle
 10
177.125
 20
167.0364254379
 30
0.0
 40
0.5
  0
TEXT
  5
166
100
AcDbEntity
  8
3301_10S # VERSCHLST_ FÜHRUNG UNTEN
390
0
  6
DASHED
100
AcDbText
 10
169.4676785058
 20
136.4496848135
 30
0.0
 40
1.275
  1
@3301.10R
 41
1.2719069656
  7
Arial
 72
         1
 11
175.625
 21
137.0871848135
 31
0.0
100
AcDbText
 73
         2
  0
TEXT
  5
167
100
AcDbEntity
  8
3301_10T # VERSCHLST_ ANTRIEB UNTEN
390
0
  6
DASHED
100
AcDbText
 10
169.4676785058
 20
106.4496848132
 30
0.0
 40
1.275
  1
@3301.10R
 41
1.2719069656
  7
Arial
 72
         1
 11
175.625
 21
107.0871848132
 31
0.0
100
AcDbText
 73
         2
  0
CIRCLE
  5
168
100
AcDbEntity
  8
3301_10R # VERSCHLST_ UNTEN GERADE
390
0
  6
PHANTOM
100
AcDbCircle
 10
146.125
 20
167.0364254379
 30
0.0
 40
1.0
  0
LINE
  5
169
100
AcDbEntity
  8
3301_10A # VERSCHLST_ W+ LI
390
0
100
AcDbLine
 10
26.375
 20
167.0364254379
 30
0.0
 11
26.375
 21
186.3857443706
 31
0.0
  0
LINE
  5
16A
100
AcDbEntity
  8
3301_10A # VERSCHLST_ W+ LI
390
0
100
AcDbLine
 10
26.375
 20
186.3857443706
 30
0.0
 11
29.2518943744
 21
187.1049679642
 31
0.0
  0
LINE
  5
16B
100
AcDbEntity
  8
3301_10A # VERSCHLST_ W+ LI
390
0
100
AcDbLine
 10
39.152332673
 20
187.1049679642
 30
0.0
 11
40.2535175084
 21
179.0364254379
 31
0.0
  0
LINE
  5
16C
100
AcDbEntity
  8
3301_10A # VERSCHLST_ W+ LI
390
0
100
AcDbLine
 10
41.875
 20
179.0364254379
 30
0.0
 11
40.2535175084
 21
179.0364254379
 31
0.0
  0
LINE
  5
16D
100
AcDbEntity
  8
3301_10A # VERSCHLST_ W+ LI
390
0
100
AcDbLine
 10
29.2518943744
 20
187.1049679642
 30
0.0
 11
39.152332673
 21
187.1049679642
 31
0.0
  0
LINE
  5
16E
100
AcDbEntity
  8
3301_10B # VERSCHLST_ W- LI
390
0
100
AcDbLine
 10
26.375
 20
149.0364254379
 30
0.0
 11
26.375
 21
137.0364254382
 31
0.0
  0
LINE
  5
16F
100
AcDbEntity
  8
3301_10B # VERSCHLST_ W- LI
390
0
100
AcDbLine
 10
26.375
 20
149.0364254379
 30
0.0
 11
32.375
 21
149.0364254379
 31
0.0
  0
LINE
  5
170
100
AcDbEntity
  8
3301_10B # VERSCHLST_ W- LI
390
0
100
AcDbLine
 10
32.375
 20
156.5332687333
 30
0.0
 11
32.375
 21
149.0364254379
 31
0.0
  0
LINE
  5
171
100
AcDbEntity
  8
3301_10B # VERSCHLST_ W- LI
390
0
100
AcDbLine
 10
29.2518943744
 20
156.5332687333
 30
0.0
 11
32.375
 21
156.5332687333
 31
0.0
  0
LINE
  5
172
100
AcDbEntity
  8
3301_10B # VERSCHLST_ W- LI
390
0
100
AcDbLine
 10
29.2518943744
 20
156.5332687333
 30
0.0
 11
26.375
 21
157.2524923269
 31
0.0
  0
LINE
  5
173
100
AcDbEntity
  8
3301_10B # VERSCHLST_ W- LI
390
0
100
AcDbLine
 10
26.375
 20
161.9380352817
 30
0.0
 11
26.375
 21
157.2524923269
 31
0.0
  0
LINE
  5
174
100
AcDbEntity
  8
3301_10B # VERSCHLST_ W- LI
390
0
100
AcDbLine
 10
38.1953854506
 20
163.122975358
 30
0.0
 11
26.375
 21
161.9380352817
 31
0.0
  0
LINE
  5
175
100
AcDbEntity
  8
3301_10B # VERSCHLST_ W- LI
390
0
100
AcDbLine
 10
38.1953854506
 20
163.122975358
 30
0.0
 11
40.3512204239
 21
149.0364254379
 31
0.0
  0
LINE
  5
176
100
AcDbEntity
  8
3301_10B # VERSCHLST_ W- LI
390
0
100
AcDbLine
 10
40.3512204239
 20
149.0364254379
 30
0.0
 11
41.875
 21
149.0364254379
 31
0.0
  0
LINE
  5
177
100
AcDbEntity
  8
3301_10C # VERSCHLST_ SIG FREI LI
390
0
100
AcDbLine
 10
25.8073303697
 20
108.9170832484
 30
0.0
 11
20.25
 21
121.8303820328
 31
0.0
  0
LINE
  5
178
100
AcDbEntity
  8
3301_10C # VERSCHLST_ SIG FREI LI
390
0
100
AcDbLine
 10
20.25
 20
126.3969826228
 30
0.0
 11
20.25
 21
121.8303820328
 31
0.0
  0
LINE
  5
179
100
AcDbEntity
  8
3301_10C # VERSCHLST_ SIG FREI LI
390
0
100
AcDbLine
 10
20.25
 20
126.3969826228
 30
0.0
 11
23.2589377009
 21
127.1049679642
 31
0.0
  0
LINE
  5
17A
100
AcDbEntity
  8
3301_10C # VERSCHLST_ SIG FREI LI
390
0
100
AcDbLine
 10
23.2589377009
 20
127.1049679642
 30
0.0
 11
38.9987745002
 21
127.1049679642
 31
0.0
  0
LINE
  5
17B
100
AcDbEntity
  8
3301_10C # VERSCHLST_ SIG FREI LI
390
0
100
AcDbLine
 10
40.2336010731
 20
119.0364254379
 30
0.0
 11
38.9987745002
 21
127.1049679642
 31
0.0
  0
LINE
  5
17C
100
AcDbEntity
  8
3301_10C # VERSCHLST_ SIG FREI LI
390
0
100
AcDbLine
 10
40.2336010731
 20
119.0364254379
 30
0.0
 11
41.875
 21
119.0364254379
 31
0.0
  0
LINE
  5
17D
100
AcDbEntity
  8
3301_10D # VERSCHLST_ SIG BEIDE LI
390
0
100
AcDbLine
 10
20.25
 20
96.3857443704
 30
0.0
 11
20.25
 21
91.8303820326
 31
0.0
  0
LINE
  5
17E
100
AcDbEntity
  8
3301_10D # VERSCHLST_ SIG BEIDE LI
390
0
100
AcDbLine
 10
20.25
 20
96.3857443704
 30
0.0
 11
23.1268943744
 21
97.104967964
 31
0.0
  0
LINE
  5
17F
100
AcDbEntity
  8
3301_10D # VERSCHLST_ SIG BEIDE LI
390
0
100
AcDbLine
 10
23.1268943744
 20
97.104967964
 30
0.0
 11
27.4480814499
 21
97.104967964
 31
0.0
  0
LINE
  5
180
100
AcDbEntity
  8
3301_10D # VERSCHLST_ SIG BEIDE LI
390
0
100
AcDbLine
 10
27.4480814499
 20
97.104967964
 30
0.0
 11
30.2500116412
 21
96.4044854162
 31
0.0
  0
LINE
  5
181
100
AcDbEntity
  8
3301_10D # VERSCHLST_ SIG BEIDE LI
390
0
100
AcDbLine
 10
30.2500116412
 20
96.4044854162
 30
0.0
 11
30.7799875621
 21
91.1047262069
 31
0.0
  0
LINE
  5
182
100
AcDbEntity
  8
3301_10D # VERSCHLST_ SIG BEIDE LI
390
0
100
AcDbLine
 10
30.7799875621
 20
91.1047262069
 30
0.0
 11
39.9170640106
 21
91.1047262069
 31
0.0
  0
LINE
  5
183
100
AcDbEntity
  8
3301_10D # VERSCHLST_ SIG BEIDE LI
390
0
100
AcDbLine
 10
40.2336010731
 20
89.0364254379
 30
0.0
 11
39.9170640106
 21
91.1047262069
 31
0.0
  0
LINE
  5
184
100
AcDbEntity
  8
3301_10D # VERSCHLST_ SIG BEIDE LI
390
0
100
AcDbLine
 10
41.875
 20
89.0364254379
 30
0.0
 11
40.2336010731
 21
89.0364254379
 31
0.0
  0
LINE
  5
185
100
AcDbEntity
  8
3301_10E # GRU_VERSCHL_ANTR LI
390
0
100
AcDbLine
 10
26.375
 20
64.0364254379
 30
0.0
 11
26.375
 21
47.0364254379
 31
0.0
  0
ARC
  5
186
100
AcDbEntity
  8
3301_10E # GRU_VERSCHL_ANTR LI
390
0
100
AcDbCircle
 10
34.4012631864
 20
72.3378301497
 30
0.0
 40
1.5
100
AcDbArc
 50
18.0504227093
 51
137.8477671917
  0
ARC
  5
187
100
AcDbEntity
  8
3301_10E # GRU_VERSCHL_ANTR LI
390
0
100
AcDbCircle
 10
36.5536020361
 20
72.3494169951
 30
0.0
 40
0.55
100
AcDbArc
 50
198.0504227093
 51
377.6896183094
  0
LINE
  5
188
100
AcDbEntity
  8
3301_10E # GRU_VERSCHL_ANTR LI
390
0
100
AcDbLine
 10
36.0306707261
 20
72.1789973806
 30
0.0
 11
35.8274394864
 21
72.8026109166
 31
0.0
  0
LINE
  5
189
100
AcDbEntity
  8
3301_10E # GRU_VERSCHL_ANTR LI
390
0
100
AcDbLine
 10
35.2314287999
 20
78.3049679642
 30
0.0
 11
37.0775961412
 21
72.5165402364
 31
0.0
  0
LINE
  5
18A
100
AcDbEntity
  8
3301_10E # GRU_VERSCHL_ANTR LI
390
0
100
AcDbLine
 10
35.2314287999
 20
78.3049679642
 30
0.0
 11
41.875
 21
78.3049679642
 31
0.0
  0
LINE
  5
18B
100
AcDbEntity
  8
3301_10E # GRU_VERSCHL_ANTR LI
390
0
100
AcDbLine
 10
41.875
 20
78.3049679642
 30
0.0
 11
41.875
 21
59.0364254379
 31
0.0
  0
LINE
  5
18C
100
AcDbEntity
  8
3301_10C # VERSCHLST_ SIG FREI LI
390
0
100
AcDbLine
 10
25.8073303697
 20
108.9170832484
 30
0.0
 11
26.375
 21
107.0364254385
 31
0.0
  0
LINE
  5
18D
100
AcDbEntity
  8
3301_10D # VERSCHLST_ SIG BEIDE LI
390
0
100
AcDbLine
 10
25.8073303697
 20
78.9170832482
 30
0.0
 11
20.25
 21
91.8303820326
 31
0.0
  0
LINE
  5
18E
100
AcDbEntity
  8
3301_10D # VERSCHLST_ SIG BEIDE LI
390
0
100
AcDbLine
 10
25.8073303697
 20
78.9170832482
 30
0.0
 11
26.375
 21
77.0364254382
 31
0.0
  0
LINE
  5
18F
100
AcDbEntity
  8
MITTELLINIEN
390
0
100
AcDbLine
 10
146.125
 20
63.0364254379
 30
0.0
 11
146.125
 21
43.0364254379
 31
0.0
  0
LINE
  5
190
100
AcDbEntity
  8
MITTELLINIEN
390
0
100
AcDbLine
 10
181.125
 20
59.0364254379
 30
0.0
 11
142.125
 21
59.0364254379
 31
0.0
  0
LINE
  5
191
100
AcDbEntity
  8
MITTELLINIEN
390
0
100
AcDbLine
 10
142.125
 20
47.0364254379
 30
0.0
 11
181.125
 21
47.0364254379
 31
0.0
  0
LINE
  5
192
100
AcDbEntity
  8
MITTELLINIEN
390
0
100
AcDbLine
 10
177.125
 20
43.0364254379
 30
0.0
 11
177.125
 21
63.0364254379
 31
0.0
  0
LINE
  5
193
100
AcDbEntity
  8
3301_10R # VERSCHLST_ UNTEN GERADE
390
0
  6
DIVIDE
100
AcDbLine
 10
146.125
 20
167.0364254379
 30
0.0
 11
177.125
 21
167.0364254379
 31
0.0
  0
ARC
  5
194
100
AcDbEntity
  8
3301___ VERSCHLUSSREGISTER
390
0
  6
DASHDOT
100
AcDbCircle
 10
161.5878097444
 20
121.99785829
 30
0.0
 40
21.5964928142
100
AcDbArc
 50
44.134335836
 51
135.865664164
  0
CIRCLE
  5
195
100
AcDbEntity
  8
3301_10S # VERSCHLST_ FÜHRUNG UNTEN
390
0
  6
PHANTOM
100
AcDbCircle
 10
146.0878097444
 20
137.0364254382
 30
0.0
 40
1.0
  0
CIRCLE
  5
196
100
AcDbEntity
  8
3301_10S # VERSCHLST_ FÜHRUNG UNTEN
390
0
  6
PHANTOM
100
AcDbCircle
 10
177.0878097444
 20
137.0364254382
 30
0.0
 40
0.5
  0
ARC
  5
197
100
AcDbEntity
  8
3301___ VERSCHLUSSREGISTER
390
0
  6
DASHDOT
100
AcDbCircle
 10
161.625
 20
91.9978582895
 30
0.0
 40
21.5964928142
100
AcDbArc
 50
44.134335836
 51
135.865664164
  0
CIRCLE
  5
198
100
AcDbEntity
  8
3301_10T # VERSCHLST_ ANTRIEB UNTEN
390
0
  6
PHANTOM
100
AcDbCircle
 10
146.125
 20
107.0364254378
 30
0.0
 40
1.0
  0
LINE
  5
199
100
AcDbEntity
  8
3301_10T # VERSCHLST_ ANTRIEB UNTEN
390
0
  6
DIVIDE
100
AcDbLine
 10
146.125
 20
107.0364254378
 30
0.0
 11
162.125
 21
107.0364254378
 31
0.0
  0
CIRCLE
  5
19A
100
AcDbEntity
  8
3301_10T # VERSCHLST_ ANTRIEB UNTEN
390
0
  6
PHANTOM
100
AcDbCircle
 10
177.125
 20
107.0364254378
 30
0.0
 40
0.5
  0
LINE
  5
19B
100
AcDbEntity
  8
3301_10S # VERSCHLST_ FÜHRUNG UNTEN
390
0
  6
DIVIDE
100
AcDbLine
 10
146.0878097444
 20
133.0364254379
 30
0.0
 11
177.0878097444
 21
133.0364254379
 31
0.0
  0
LINE
  5
19C
100
AcDbEntity
  8
3301_10S # VERSCHLST_ FÜHRUNG UNTEN
390
0
100
AcDbLine
 10
169.125
 20
137.0364254379
 30
0.0
 11
154.125
 21
137.0364254379
 31
0.0
  0
LINE
  5
19D
100
AcDbEntity
  8
3301_10S # VERSCHLST_ FÜHRUNG UNTEN
390
0
100
AcDbLine
 10
146.0878097444
 20
137.0364254382
 30
0.0
 11
146.0878097444
 21
131.0
 31
0.0
  0
LINE
  5
19E
100
AcDbEntity
  8
3301_10S # VERSCHLST_ FÜHRUNG UNTEN
390
0
100
AcDbLine
 10
177.0878097444
 20
137.0364254382
 30
0.0
 11
177.0878097444
 21
133.0364254379
 31
0.0
  0
LINE
  5
19F
100
AcDbEntity
  8
HILFSLINIEN
390
0
100
AcDbLine
 10
170.125
 20
138.0364254379
 30
0.0
 11
153.125
 21
138.0364254379
 31
0.0
  0
LINE
  5
1A0
100
AcDbEntity
  8
3301_10S # VERSCHLST_ FÜHRUNG UNTEN
390
0
  6
DASHED
100
AcDbLine
 10
146.0878097444
 20
131.0
 30
0.0
 11
169.125
 21
137.0364254379
 31
0.0
  0
LINE
  5
1A1
100
AcDbEntity
  8
3301_10S # VERSCHLST_ FÜHRUNG UNTEN
390
0
  6
DASHED
100
AcDbLine
 10
146.0878097444
 20
133.0364254379
 30
0.0
 11
154.125
 21
137.0364254379
 31
0.0
  0
LINE
  5
1A2
100
AcDbEntity
  8
3301_10T # VERSCHLST_ ANTRIEB UNTEN
390
0
100
AcDbLine
 10
162.125
 20
101.0364254378
 30
0.0
 11
162.125
 21
107.0364254378
 31
0.0
  0
LINE
  5
1A3
100
AcDbEntity
  8
3301_10T # VERSCHLST_ ANTRIEB UNTEN
390
0
  6
DIVIDE
100
AcDbLine
 10
168.525
 20
101.0364254378
 30
0.0
 11
162.125
 21
101.0364254378
 31
0.0
  0
LINE
  5
1A4
100
AcDbEntity
  8
3301_10T # VERSCHLST_ ANTRIEB UNTEN
390
0
100
AcDbLine
 10
168.525
 20
105.9364254378
 30
0.0
 11
168.525
 21
101.0364254378
 31
0.0
  0
ARC
  5
1A5
100
AcDbEntity
  8
3301_10T # VERSCHLST_ ANTRIEB UNTEN
390
0
100
AcDbCircle
 10
169.625
 20
105.9364254378
 30
0.0
 40
1.1
100
AcDbArc
 50
0.0
 51
180.0
  0
LINE
  5
1A6
100
AcDbEntity
  8
3301_10T # VERSCHLST_ ANTRIEB UNTEN
390
0
100
AcDbLine
 10
170.725
 20
105.9364254378
 30
0.0
 11
170.725
 21
101.0364254378
 31
0.0
  0
LINE
  5
1A7
100
AcDbEntity
  8
3301_10T # VERSCHLST_ ANTRIEB UNTEN
390
0
  6
DIVIDE
100
AcDbLine
 10
177.125
 20
101.0364254378
 30
0.0
 11
170.725
 21
101.0364254378
 31
0.0
  0
LINE
  5
1A8
100
AcDbEntity
  8
3301_10T # VERSCHLST_ ANTRIEB UNTEN
390
0
100
AcDbLine
 10
177.125
 20
107.0364254378
 30
0.0
 11
177.125
 21
101.0364254378
 31
0.0
  0
CIRCLE
  5
1A9
100
AcDbEntity
  8
3301 VERSCHLUSSSTÜCKE
390
0
100
AcDbCircle
 10
74.875
 20
174.5364254379
 30
0.0
 40
1.25
  0
CIRCLE
  5
1AA
100
AcDbEntity
  8
3301 VERSCHLUSSSTÜCKE
390
0
100
AcDbCircle
 10
79.375
 20
174.5364254379
 30
0.0
 40
1.5
  0
CIRCLE
  5
1AB
100
AcDbEntity
  8
3301 VERSCHLUSSSTÜCKE
390
0
100
AcDbCircle
 10
70.375
 20
174.5364254379
 30
0.0
 40
1.5
  0
CIRCLE
  5
1AC
100
AcDbEntity
  8
3301_10G # VERSCHLST_ W- RE
390
0
  6
PHANTOM
100
AcDbCircle
 10
74.875
 20
149.0364254382
 30
0.0
 40
0.5
  0
CIRCLE
  5
1AD
100
AcDbEntity
  8
3301_10G # VERSCHLST_ W- RE
390
0
  6
PHANTOM
100
AcDbCircle
 10
90.375
 20
137.0364254382
 30
0.0
 40
1.0
  0
CIRCLE
  5
1AE
100
AcDbEntity
  8
3301 VERSCHLUSSSTÜCKE
390
0
100
AcDbCircle
 10
74.875
 20
54.5364254379
 30
0.0
 40
1.25
  0
CIRCLE
  5
1AF
100
AcDbEntity
  8
3301 VERSCHLUSSSTÜCKE
390
0
100
AcDbCircle
 10
70.375
 20
54.5364254379
 30
0.0
 40
1.5
  0
CIRCLE
  5
1B0
100
AcDbEntity
  8
3301 VERSCHLUSSSTÜCKE
390
0
100
AcDbCircle
 10
79.375
 20
54.5364254379
 30
0.0
 40
1.5
  0
ARC
  5
1B1
100
AcDbEntity
  8
3301 VERSCHLUSSSTÜCKE
390
0
100
AcDbCircle
 10
80.1963979639
 20
72.3494169951
 30
0.0
 40
1.55
100
AcDbArc
 50
162.3103816906
 51
341.9495772907
  0
ARC
  5
1B2
100
AcDbEntity
  8
3301 VERSCHLUSSSTÜCKE
390
0
100
AcDbCircle
 10
91.15
 20
80.3049679642
 30
0.0
 40
11.3717108553
100
AcDbArc
 50
222.1522328083
 51
232.130832244
  0
ARC
  5
1B3
100
AcDbEntity
  8
3301 VERSCHLUSSSTÜCKE
390
0
100
AcDbCircle
 10
82.3487368136
 20
72.3378301497
 30
0.0
 40
0.5
100
AcDbArc
 50
42.1522328083
 51
161.9495772907
  0
CIRCLE
  5
1B4
100
AcDbEntity
  8
3301_10H # VERSCHLST_ SIG FREI RE
390
0
  6
PHANTOM
100
AcDbCircle
 10
90.375
 20
107.0364254385
 30
0.0
 40
1.0
  0
CIRCLE
  5
1B5
100
AcDbEntity
  8
3301_10H # VERSCHLST_ SIG FREI RE
390
0
  6
PHANTOM
100
AcDbCircle
 10
74.875
 20
119.0364254385
 30
0.0
 40
0.5
  0
LINE
  5
1B6
100
AcDbEntity
  8
3301_10G # VERSCHLST_ W- RE
390
0
100
AcDbLine
 10
90.375
 20
161.9380352817
 30
0.0
 11
90.375
 21
157.2524923269
 31
0.0
  0
LINE
  5
1B7
100
AcDbEntity
  8
3301_10H # VERSCHLST_ SIG FREI RE
390
0
100
AcDbLine
 10
96.5
 20
126.3969826228
 30
0.0
 11
93.4910622991
 21
127.1049679642
 31
0.0
  0
LINE
  5
1B8
100
AcDbEntity
  8
3301_10G # VERSCHLST_ W- RE
390
0
100
AcDbLine
 10
84.375
 20
156.5332687333
 30
0.0
 11
84.375
 21
149.0364254379
 31
0.0
  0
LINE
  5
1B9
100
AcDbEntity
  8
3301_10G # VERSCHLST_ W- RE
390
0
100
AcDbLine
 10
76.3987795761
 20
149.0364254379
 30
0.0
 11
74.875
 21
149.0364254379
 31
0.0
  0
LINE
  5
1BA
100
AcDbEntity
  8
3301_10G # VERSCHLST_ W- RE
390
0
100
AcDbLine
 10
90.375
 20
149.0364254379
 30
0.0
 11
90.375
 21
137.0364254382
 31
0.0
  0
LINE
  5
1BB
100
AcDbEntity
  8
3301_10G # VERSCHLST_ W- RE
390
0
100
AcDbLine
 10
78.5546145494
 20
163.122975358
 30
0.0
 11
90.375
 21
161.9380352817
 31
0.0
  0
LINE
  5
1BC
100
AcDbEntity
  8
3301 VERSCHLUSSSTÜCKE
390
0
100
AcDbLine
 10
89.375
 20
168.0364254379
 30
0.0
 11
89.375
 21
185.6049679642
 31
0.0
  0
LINE
  5
1BD
100
AcDbEntity
  8
3301_10G # VERSCHLST_ W- RE
390
0
100
AcDbLine
 10
87.4981056256
 20
156.5332687333
 30
0.0
 11
90.375
 21
157.2524923269
 31
0.0
  0
LINE
  5
1BE
100
AcDbEntity
  8
3301_10G # VERSCHLST_ W- RE
390
0
100
AcDbLine
 10
90.375
 20
149.0364254379
 30
0.0
 11
84.375
 21
149.0364254379
 31
0.0
  0
LINE
  5
1BF
100
AcDbEntity
  8
3301_10H # VERSCHLST_ SIG FREI RE
390
0
100
AcDbLine
 10
93.4910622991
 20
127.1049679642
 30
0.0
 11
77.7512254998
 21
127.1049679642
 31
0.0
  0
LINE
  5
1C0
100
AcDbEntity
  8
3301 VERSCHLUSSSTÜCKE
390
0
100
AcDbLine
 10
87.375
 20
186.1049679642
 30
0.0
 11
78.4704588074
 21
186.1049679642
 31
0.0
  0
LINE
  5
1C1
100
AcDbEntity
  8
3301_10H # VERSCHLST_ SIG FREI RE
390
0
100
AcDbLine
 10
96.5
 20
126.3969826228
 30
0.0
 11
96.5
 21
121.8303820328
 31
0.0
  0
LINE
  5
1C2
100
AcDbEntity
  8
3301_10G # VERSCHLST_ W- RE
390
0
100
AcDbLine
 10
78.5546145494
 20
163.122975358
 30
0.0
 11
76.3987795761
 21
149.0364254379
 31
0.0
  0
LINE
  5
1C3
100
AcDbEntity
  8
3301_10H # VERSCHLST_ SIG FREI RE
390
0
100
AcDbLine
 10
90.9426696303
 20
108.9170832484
 30
0.0
 11
96.5
 21
121.8303820328
 31
0.0
  0
LINE
  5
1C4
100
AcDbEntity
  8
3301 VERSCHLUSSSTÜCKE
390
0
100
AcDbLine
 10
74.875
 20
58.0364254384
 30
0.0
 11
75.875
 21
58.0364254384
 31
0.0
  0
LINE
  5
1C5
100
AcDbEntity
  8
3301_10G # VERSCHLST_ W- RE
390
0
100
AcDbLine
 10
87.4981056256
 20
156.5332687333
 30
0.0
 11
84.375
 21
156.5332687333
 31
0.0
  0
LINE
  5
1C6
100
AcDbEntity
  8
3301 VERSCHLUSSSTÜCKE
390
0
100
AcDbLine
 10
74.875
 20
178.0364254379
 30
0.0
 11
77.375
 21
178.0364254379
 31
0.0
  0
LINE
  5
1C7
100
AcDbEntity
  8
3301 VERSCHLUSSSTÜCKE
390
0
100
AcDbLine
 10
89.375
 20
185.6049679642
 30
0.0
 11
87.375
 21
186.1049679642
 31
0.0
  0
LINE
  5
1C8
100
AcDbEntity
  8
3301 VERSCHLUSSSTÜCKE
390
0
100
AcDbLine
 10
78.4704588074
 20
186.1049679642
 30
0.0
 11
77.3746787637
 21
178.0760271385
 31
0.0
  0
LINE
  5
1C9
100
AcDbEntity
  8
3301_10I # VERSCHLST_ SIG BEIDE RE
390
0
100
AcDbLine
 10
90.9426696303
 20
78.9170832482
 30
0.0
 11
90.375
 21
77.0364254382
 31
0.0
  0
LINE
  5
1CA
100
AcDbEntity
  8
3301_10I # VERSCHLST_ SIG BEIDE RE
390
0
100
AcDbLine
 10
90.9426696303
 20
78.9170832482
 30
0.0
 11
96.5
 21
91.8303820326
 31
0.0
  0
CIRCLE
  5
1CB
100
AcDbEntity
  8
3301_10I # VERSCHLST_ SIG BEIDE RE
390
0
  6
PHANTOM
100
AcDbCircle
 10
90.375
 20
77.0364254382
 30
0.0
 40
1.0
  0
ARC
  5
1CC
100
AcDbEntity
  8
3301___ VERSCHLUSSREGISTER
390
0
  6
DASHDOT
100
AcDbCircle
 10
97.8977272725
 20
192.7636981651
 30
0.0
 40
26.8045516209
100
AcDbArc
 50
210.805458286
 51
253.7009309402
  0
LINE
  5
1CD
100
AcDbEntity
  8
3301_10I # VERSCHLST_ SIG BEIDE RE
390
0
100
AcDbLine
 10
86.4999883588
 20
96.4044854162
 30
0.0
 11
85.9700124379
 21
91.1047262069
 31
0.0
  0
LINE
  5
1CE
100
AcDbEntity
  8
3301_10J # GRU_VERSCHL_ANTR RE
390
0
100
AcDbLine
 10
81.5185712001
 20
78.3049679642
 30
0.0
 11
74.875
 21
78.3049679642
 31
0.0
  0
LINE
  5
1CF
100
AcDbEntity
  8
3301_10J # GRU_VERSCHL_ANTR RE
390
0
100
AcDbLine
 10
81.5185712001
 20
78.3049679642
 30
0.0
 11
79.6724038588
 21
72.5165402364
 31
0.0
  0
LINE
  5
1D0
100
AcDbEntity
  8
3301_10J # GRU_VERSCHL_ANTR RE
390
0
100
AcDbLine
 10
74.875
 20
78.3049679642
 30
0.0
 11
74.875
 21
59.0364254379
 31
0.0
  0
LINE
  5
1D1
100
AcDbEntity
  8
3301_10I # VERSCHLST_ SIG BEIDE RE
390
0
100
AcDbLine
 10
74.875
 20
89.0364254379
 30
0.0
 11
76.5163989269
 21
89.0364254379
 31
0.0
  0
LINE
  5
1D2
100
AcDbEntity
  8
3301_10J # GRU_VERSCHL_ANTR RE
390
0
100
AcDbLine
 10
80.7193292739
 20
72.1789973806
 30
0.0
 11
80.9225605136
 21
72.8026109166
 31
0.0
  0
LINE
  5
1D3
100
AcDbEntity
  8
3301_10J # GRU_VERSCHL_ANTR RE
390
0
100
AcDbLine
 10
90.375
 20
64.0364254379
 30
0.0
 11
90.375
 21
47.0364254382
 31
0.0
  0
LINE
  5
1D4
100
AcDbEntity
  8
3301_10I # VERSCHLST_ SIG BEIDE RE
390
0
100
AcDbLine
 10
96.5
 20
96.3857443704
 30
0.0
 11
93.6231056256
 21
97.104967964
 31
0.0
  0
LINE
  5
1D5
100
AcDbEntity
  8
3301_10I # VERSCHLST_ SIG BEIDE RE
390
0
100
AcDbLine
 10
89.3019185501
 20
97.104967964
 30
0.0
 11
86.4999883588
 21
96.4044854162
 31
0.0
  0
LINE
  5
1D6
100
AcDbEntity
  8
3301_10I # VERSCHLST_ SIG BEIDE RE
390
0
100
AcDbLine
 10
85.9700124379
 20
91.1047262069
 30
0.0
 11
76.8329359894
 21
91.1047262069
 31
0.0
  0
LINE
  5
1D7
100
AcDbEntity
  8
3301_10I # VERSCHLST_ SIG BEIDE RE
390
0
100
AcDbLine
 10
93.6231056256
 20
97.104967964
 30
0.0
 11
89.3019185501
 21
97.104967964
 31
0.0
  0
LINE
  5
1D8
100
AcDbEntity
  8
3301_10I # VERSCHLST_ SIG BEIDE RE
390
0
100
AcDbLine
 10
76.5163989269
 20
89.0364254379
 30
0.0
 11
76.8329359894
 21
91.1047262069
 31
0.0
  0
LINE
  5
1D9
100
AcDbEntity
  8
3301_10I # VERSCHLST_ SIG BEIDE RE
390
0
100
AcDbLine
 10
96.5
 20
96.3857443704
 30
0.0
 11
96.5
 21
91.8303820326
 31
0.0
  0
CIRCLE
  5
1DA
100
AcDbEntity
  8
3301_10I # VERSCHLST_ SIG BEIDE RE
390
0
  6
PHANTOM
100
AcDbCircle
 10
74.875
 20
89.0364254382
 30
0.0
 40
0.5
  0
TEXT
  5
1DB
100
AcDbEntity
  8
3301_10H # VERSCHLST_ SIG FREI RE
390
0
  6
DASHED
100
AcDbText
 10
69.3176780338
 20
117.4496848139
 30
0.0
 40
1.275
  1
@3301.10A
 41
1.2719070631
  7
Arial
 72
         1
 11
75.475
 21
118.0871848139
 31
0.0
100
AcDbText
 73
         2
  0
TEXT
  5
1DC
100
AcDbEntity
  8
3301_10I # VERSCHLST_ SIG BEIDE RE
390
0
  6
DASHED
100
AcDbText
 10
69.3176780338
 20
87.4496848135
 30
0.0
 40
1.275
  1
@3301.10A
 41
1.2719070631
  7
Arial
 72
         1
 11
75.475
 21
88.0871848135
 31
0.0
100
AcDbText
 73
         2
  0
TEXT
  5
1DD
100
AcDbEntity
  8
3301_10J # GRU_VERSCHL_ANTR RE
390
0
  6
DASHED
100
AcDbText
 10
69.3176780338
 20
57.4496848135
 30
0.0
 40
1.275
  1
@3301.10A
 50
360.0
 41
1.2719070631
  7
Arial
 72
         1
 11
75.475
 21
58.0871848135
 31
0.0
100
AcDbText
 73
         2
  0
ARC
  5
1DE
100
AcDbEntity
  8
3301___ VERSCHLUSSREGISTER
390
0
  6
DASHDOT
100
AcDbCircle
 10
97.897727272
 20
132.7636981655
 30
0.0
 40
26.8045516205
100
AcDbArc
 50
210.805458287
 51
253.7009309412
  0
CIRCLE
  5
1DF
100
AcDbEntity
  8
3301_10J # GRU_VERSCHL_ANTR RE
390
0
  6
PHANTOM
100
AcDbCircle
 10
74.875
 20
59.0364254382
 30
0.0
 40
0.5
  0
ARC
  5
1E0
100
AcDbEntity
  8
3301___ VERSCHLUSSREGISTER
390
0
  6
DASHDOT
100
AcDbCircle
 10
97.8977272723
 20
102.7636981654
 30
0.0
 40
26.8045516208
100
AcDbArc
 50
210.8054582863
 51
253.7009309405
  0
ARC
  5
1E1
100
AcDbEntity
  8
3301___ VERSCHLUSSREGISTER
390
0
  6
DASHDOT
100
AcDbCircle
 10
97.8977272727
 20
72.7636981655
 30
0.0
 40
26.804551621
100
AcDbArc
 50
210.8054582856
 51
253.7009309398
  0
ARC
  5
1E2
100
AcDbEntity
  8
3301___ VERSCHLUSSREGISTER
390
0
  6
DASHDOT
100
AcDbCircle
 10
97.8977272723
 20
162.7636981654
 30
0.0
 40
26.8045516208
100
AcDbArc
 50
210.8054582863
 51
253.7009309405
  0
LINE
  5
1E3
100
AcDbEntity
  8
3301 VERSCHLUSSSTÜCKE
390
0
100
AcDbLine
 10
95.5
 20
125.6049679642
 30
0.0
 11
93.375
 21
126.1049679642
 31
0.0
  0
LINE
  5
1E4
100
AcDbEntity
  8
3301 VERSCHLUSSSTÜCKE
390
0
100
AcDbLine
 10
95.5
 20
95.604967964
 30
0.0
 11
93.5
 21
96.104967964
 31
0.0
  0
LINE
  5
1E5
100
AcDbEntity
  8
3301 VERSCHLUSSSTÜCKE
390
0
100
AcDbLine
 10
76.375
 20
108.0364254379
 30
0.0
 11
89.375
 21
108.0364254379
 31
0.0
  0
LINE
  5
1E6
100
AcDbEntity
  8
3301 VERSCHLUSSSTÜCKE
390
0
100
AcDbLine
 10
77.375
 20
118.0364254379
 30
0.0
 11
74.875
 21
118.0364254379
 31
0.0
  0
LINE
  5
1E7
100
AcDbEntity
  8
3301 VERSCHLUSSSTÜCKE
390
0
100
AcDbLine
 10
74.875
 20
88.0364254379
 30
0.0
 11
77.375
 21
88.0364254379
 31
0.0
  0
LINE
  5
1E8
100
AcDbEntity
  8
3301 VERSCHLUSSSTÜCKE
390
0
100
AcDbLine
 10
75.875
 20
77.3049679642
 30
0.0
 11
75.875
 21
58.0364254384
 31
0.0
  0
LINE
  5
1E9
100
AcDbEntity
  8
3301 VERSCHLUSSSTÜCKE
390
0
100
AcDbLine
 10
80.15
 20
77.3049679642
 30
0.0
 11
78.719687304
 21
72.8204006751
 31
0.0
  0
LINE
  5
1EA
100
AcDbEntity
  8
3301 VERSCHLUSSSTÜCKE
390
0
100
AcDbLine
 10
89.375
 20
63.0364254379
 30
0.0
 11
89.375
 21
48.0364254382
 31
0.0
  0
LINE
  5
1EB
100
AcDbEntity
  8
3301 VERSCHLUSSSTÜCKE
390
0
100
AcDbLine
 10
80.15
 20
77.3049679642
 30
0.0
 11
75.825
 21
77.3049679642
 31
0.0
  0
LINE
  5
1EC
100
AcDbEntity
  8
3301 VERSCHLUSSSTÜCKE
390
0
100
AcDbLine
 10
84.1693560482
 20
71.3279741582
 30
0.0
 11
84.1693560482
 21
58.0364254379
 31
0.0
  0
LINE
  5
1ED
100
AcDbEntity
  8
3301 VERSCHLUSSSTÜCKE
390
0
100
AcDbLine
 10
81.6701134739
 20
71.869143536
 30
0.0
 11
81.8733447136
 21
72.492757072
 31
0.0
  0
LINE
  5
1EE
100
AcDbEntity
  8
3301 VERSCHLUSSSTÜCKE
390
0
100
AcDbLine
 10
89.4250241757
 20
96.104967964
 30
0.0
 11
87.4250241757
 21
95.604967964
 31
0.0
  0
LINE
  5
1EF
100
AcDbEntity
  8
3301_10F # VERSCHLST_ W+ RE
390
0
100
AcDbLine
 10
77.597667327
 20
187.1049679642
 30
0.0
 11
76.4964824916
 21
179.0364254379
 31
0.0
  0
LINE
  5
1F0
100
AcDbEntity
  8
3301_10F # VERSCHLST_ W+ RE
390
0
100
AcDbLine
 10
74.875
 20
179.0364254379
 30
0.0
 11
76.4964824916
 21
179.0364254379
 31
0.0
  0
LINE
  5
1F1
100
AcDbEntity
  8
3301_10F # VERSCHLST_ W+ RE
390
0
100
AcDbLine
 10
90.375
 20
186.3857443706
 30
0.0
 11
87.4981056256
 21
187.1049679642
 31
0.0
  0
LINE
  5
1F2
100
AcDbEntity
  8
3301_10F # VERSCHLST_ W+ RE
390
0
100
AcDbLine
 10
90.375
 20
167.0364254379
 30
0.0
 11
90.375
 21
186.3857443706
 31
0.0
  0
LINE
  5
1F3
100
AcDbEntity
  8
3301 VERSCHLUSSSTÜCKE
390
0
100
AcDbLine
 10
89.375
 20
63.0364254379
 30
0.0
 11
87.1693560482
 21
63.0364254379
 31
0.0
  0
LINE
  5
1F4
100
AcDbEntity
  8
3301 VERSCHLUSSSTÜCKE
390
0
100
AcDbLine
 10
83.375
 20
157.5332687333
 30
0.0
 11
83.375
 21
148.0364254379
 31
0.0
  0
LINE
  5
1F5
100
AcDbEntity
  8
3301 VERSCHLUSSSTÜCKE
390
0
100
AcDbLine
 10
79.3994867336
 20
162.0332687333
 30
0.0
 11
77.2573806492
 21
148.0364254379
 31
0.0
  0
LINE
  5
1F6
100
AcDbEntity
  8
3301 VERSCHLUSSSTÜCKE
390
0
100
AcDbLine
 10
89.375
 20
161.0332687333
 30
0.0
 11
89.375
 21
158.0332687333
 31
0.0
  0
LINE
  5
1F7
100
AcDbEntity
  8
3301 VERSCHLUSSSTÜCKE
390
0
100
AcDbLine
 10
89.375
 20
148.0364254379
 30
0.0
 11
89.375
 21
138.0364254379
 31
0.0
  0
LINE
  5
1F8
100
AcDbEntity
  8
3301_10F # VERSCHLST_ W+ RE
390
0
100
AcDbLine
 10
87.4981056256
 20
187.1049679642
 30
0.0
 11
77.597667327
 21
187.1049679642
 31
0.0
  0
LINE
  5
1F9
100
AcDbEntity
  8
3301 VERSCHLUSSSTÜCKE
390
0
100
AcDbLine
 10
77.375
 20
88.0364254378
 30
0.0
 11
77.6915370626
 21
90.1047262069
 31
0.0
  0
LINE
  5
1FA
100
AcDbEntity
  8
3301 VERSCHLUSSSTÜCKE
390
0
100
AcDbLine
 10
95.5
 20
95.604967964
 30
0.0
 11
95.5
 21
92.0364254378
 31
0.0
  0
LINE
  5
1FB
100
AcDbEntity
  8
3301 VERSCHLUSSSTÜCKE
390
0
100
AcDbLine
 10
93.5
 20
96.104967964
 30
0.0
 11
89.4250241757
 21
96.104967964
 31
0.0
  0
LINE
  5
1FC
100
AcDbEntity
  8
3301 VERSCHLUSSSTÜCKE
390
0
100
AcDbLine
 10
89.375
 20
78.0364254378
 30
0.0
 11
95.5
 21
92.0364254378
 31
0.0
  0
LINE
  5
1FD
100
AcDbEntity
  8
3301_10H # VERSCHLST_ SIG FREI RE
390
0
100
AcDbLine
 10
76.5163989269
 20
119.0364254379
 30
0.0
 11
77.7512254998
 21
127.1049679642
 31
0.0
  0
LINE
  5
1FE
100
AcDbEntity
  8
3301 VERSCHLUSSSTÜCKE
390
0
100
AcDbLine
 10
87.4250241757
 20
95.604967964
 30
0.0
 11
86.875
 21
90.1047262069
 31
0.0
  0
LINE
  5
1FF
100
AcDbEntity
  8
3301 VERSCHLUSSSTÜCKE
390
0
100
AcDbLine
 10
89.475
 20
108.0364254379
 30
0.0
 11
95.5
 21
122.0364254379
 31
0.0
  0
LINE
  5
200
100
AcDbEntity
  8
3301 VERSCHLUSSSTÜCKE
390
0
100
AcDbLine
 10
95.5
 20
125.6049679642
 30
0.0
 11
95.5
 21
122.0364254379
 31
0.0
  0
LINE
  5
201
100
AcDbEntity
  8
3301 VERSCHLUSSSTÜCKE
390
0
100
AcDbLine
 10
89.375
 20
148.0364254379
 30
0.0
 11
83.375
 21
148.0364254379
 31
0.0
  0
LINE
  5
202
100
AcDbEntity
  8
3301 VERSCHLUSSSTÜCKE
390
0
100
AcDbLine
 10
86.875
 20
90.1047262069
 30
0.0
 11
77.6915370626
 21
90.1047262069
 31
0.0
  0
LINE
  5
203
100
AcDbEntity
  8
3301 VERSCHLUSSSTÜCKE
390
0
100
AcDbLine
 10
87.375
 20
157.5332687333
 30
0.0
 11
89.375
 21
158.0332687333
 31
0.0
  0
LINE
  5
204
100
AcDbEntity
  8
3301_10H # VERSCHLST_ SIG FREI RE
390
0
100
AcDbLine
 10
90.9426696303
 20
108.9170832484
 30
0.0
 11
90.375
 21
107.0364254385
 31
0.0
  0
LINE
  5
205
100
AcDbEntity
  8
3301 VERSCHLUSSSTÜCKE
390
0
100
AcDbLine
 10
79.3994867336
 20
162.0332687333
 30
0.0
 11
89.375
 21
161.0332687333
 31
0.0
  0
LINE
  5
206
100
AcDbEntity
  8
3301 VERSCHLUSSSTÜCKE
390
0
100
AcDbLine
 10
77.2573806492
 20
148.0364254379
 30
0.0
 11
74.875
 21
148.0364254379
 31
0.0
  0
LINE
  5
207
100
AcDbEntity
  8
3301 VERSCHLUSSSTÜCKE
390
0
100
AcDbLine
 10
87.375
 20
157.5332687333
 30
0.0
 11
83.375
 21
157.5332687333
 31
0.0
  0
LINE
  5
208
100
AcDbEntity
  8
3301_10H # VERSCHLST_ SIG FREI RE
390
0
100
AcDbLine
 10
76.5163989269
 20
119.0364254379
 30
0.0
 11
74.875
 21
119.0364254379
 31
0.0
  0
LINE
  5
209
100
AcDbEntity
  8
3301 VERSCHLUSSSTÜCKE
390
0
100
AcDbLine
 10
77.375
 20
118.0364254379
 30
0.0
 11
78.6098265729
 21
126.1049679642
 31
0.0
  0
LINE
  5
20A
100
AcDbEntity
  8
3301 VERSCHLUSSSTÜCKE
390
0
100
AcDbLine
 10
93.375
 20
126.1049679642
 30
0.0
 11
78.6098265729
 21
126.1049679642
 31
0.0
  0
ARC
  5
20B
100
AcDbEntity
  8
3301_10J # GRU_VERSCHL_ANTR RE
390
0
100
AcDbCircle
 10
80.1963979639
 20
72.3494169951
 30
0.0
 40
0.55
100
AcDbArc
 50
162.3103816906
 51
341.9495772907
  0
CIRCLE
  5
20C
100
AcDbEntity
  8
3301 VERSCHLUSSSTÜCKE
390
0
100
AcDbCircle
 10
74.875
 20
84.5364254378
 30
0.0
 40
1.25
  0
CIRCLE
  5
20D
100
AcDbEntity
  8
3301 VERSCHLUSSSTÜCKE
390
0
100
AcDbCircle
 10
79.375
 20
84.5364254378
 30
0.0
 40
1.5
  0
CIRCLE
  5
20E
100
AcDbEntity
  8
3301 VERSCHLUSSSTÜCKE
390
0
100
AcDbCircle
 10
70.375
 20
84.5364254378
 30
0.0
 40
1.5
  0
CIRCLE
  5
20F
100
AcDbEntity
  8
3301 VERSCHLUSSSTÜCKE
390
0
100
AcDbCircle
 10
70.375
 20
114.5364254379
 30
0.0
 40
1.5
  0
CIRCLE
  5
210
100
AcDbEntity
  8
3301 VERSCHLUSSSTÜCKE
390
0
100
AcDbCircle
 10
79.375
 20
114.5364254379
 30
0.0
 40
1.5
  0
CIRCLE
  5
211
100
AcDbEntity
  8
3301 VERSCHLUSSSTÜCKE
390
0
100
AcDbCircle
 10
74.875
 20
114.5364254379
 30
0.0
 40
1.25
  0
ARC
  5
212
100
AcDbEntity
  8
3301_10J # GRU_VERSCHL_ANTR RE
390
0
100
AcDbCircle
 10
82.3487368136
 20
72.3378301497
 30
0.0
 40
1.5
100
AcDbArc
 50
42.1522328083
 51
161.9495772907
  0
CIRCLE
  5
213
100
AcDbEntity
  8
3301_10F # VERSCHLST_ W+ RE
390
0
  6
PHANTOM
100
AcDbCircle
 10
90.375
 20
167.0364254379
 30
0.0
 40
1.0
  0
CIRCLE
  5
214
100
AcDbEntity
  8
3301_10F # VERSCHLST_ W+ RE
390
0
  6
PHANTOM
100
AcDbCircle
 10
74.875
 20
179.0364254379
 30
0.0
 40
0.5
  0
CIRCLE
  5
215
100
AcDbEntity
  8
3301 VERSCHLUSSSTÜCKE
390
0
100
AcDbCircle
 10
79.375
 20
144.5364254379
 30
0.0
 40
1.5
  0
CIRCLE
  5
216
100
AcDbEntity
  8
3301 VERSCHLUSSSTÜCKE
390
0
100
AcDbCircle
 10
70.375
 20
144.5364254379
 30
0.0
 40
1.5
  0
CIRCLE
  5
217
100
AcDbEntity
  8
3301 VERSCHLUSSSTÜCKE
390
0
100
AcDbCircle
 10
74.875
 20
144.5364254379
 30
0.0
 40
1.25
  0
TEXT
  5
218
100
AcDbEntity
  8
3301_10G # VERSCHLST_ W- RE
390
0
  6
DASHED
100
AcDbText
 10
69.3176780338
 20
147.4496848135
 30
0.0
 40
1.275
  1
@3301.10A
 41
1.2719070631
  7
Arial
 72
         1
 11
75.475
 21
148.0871848135
 31
0.0
100
AcDbText
 73
         2
  0
TEXT
  5
219
100
AcDbEntity
  8
3301_10F # VERSCHLST_ W+ RE
390
0
  6
DASHED
100
AcDbText
 10
69.3176780338
 20
177.4496848135
 30
0.0
 40
1.275
  1
@3301.10A
 41
1.2719070631
  7
Arial
 72
         1
 11
75.475
 21
178.0871848135
 31
0.0
100
AcDbText
 73
         2
  0
MTEXT
  5
21A
100
AcDbEntity
  8
BESCHRIFTUNG
390
0
100
AcDbMText
 10
221.0
 20
132.5323890625
 30
0.0
 40
1.9125
 41
0.0
 71
         1
 72
         1
  1
\W1.356574;Zuordnung zu Hentzen, S.312\P1 = AN, ME\P2 = AF\P3 = BG\P4 = BN, MG\P5 = AF, BE\P6 = CH\P7 = MH, CN\P8 = AG, CF\P9 = BG, CF\P10 = MI, DN
  7
Arial
 73
         1
 44
1.0352941176
  0
TEXT
  5
21B
100
AcDbEntity
  8
3301_10M # VERSCHLST_ LEER LI
390
0
  6
DASHED
100
AcDbText
 10
19.7176780338
 20
15.4496848134
 30
0.0
 40
1.275
  1
@3301.10A
 41
1.2719070631
  7
Arial
 72
         1
 11
25.875
 21
16.0871848134
 31
0.0
100
AcDbText
 73
         2
  0
TEXT
  5
21C
100
AcDbEntity
  8
3301_10N # VERSCHLST_ LEER RE
390
0
  6
DASHED
100
AcDbText
 10
69.3176780338
 20
27.4496848137
 30
0.0
 40
1.275
  1
@3301.10A
 41
1.2719070631
  7
Arial
 72
         1
 11
75.475
 21
28.0871848137
 31
0.0
100
AcDbText
 73
         2
  0
CIRCLE
  5
21D
100
AcDbEntity
  8
3301 VERSCHLUSSSTÜCKE
390
0
100
AcDbCircle
 10
41.875
 20
24.5364254378
 30
0.0
 40
1.25
  0
CIRCLE
  5
21E
100
AcDbEntity
  8
3301 VERSCHLUSSSTÜCKE
390
0
100
AcDbCircle
 10
37.375
 20
24.5364254378
 30
0.0
 40
1.5
  0
CIRCLE
  5
21F
100
AcDbEntity
  8
3301 VERSCHLUSSSTÜCKE
390
0
100
AcDbCircle
 10
46.375
 20
24.5364254378
 30
0.0
 40
1.5
  0
ARC
  5
220
100
AcDbEntity
  8
3301___ VERSCHLUSSREGISTER
390
0
  6
DASHDOT
100
AcDbCircle
 10
18.852272728
 20
42.7636981654
 30
0.0
 40
26.8045516205
100
AcDbArc
 50
286.2990690588
 51
329.194541713
  0
CIRCLE
  5
221
100
AcDbEntity
  8
3301_10M # VERSCHLST_ LEER LI
390
0
  6
PHANTOM
100
AcDbCircle
 10
41.875
 20
29.0364254384
 30
0.0
 40
1.0
  0
CIRCLE
  5
222
100
AcDbEntity
  8
3301_10M # VERSCHLST_ LEER LI
390
0
  6
PHANTOM
100
AcDbCircle
 10
26.375
 20
17.0364254384
 30
0.0
 40
0.5
  0
CIRCLE
  5
223
100
AcDbEntity
  8
3301_10N # VERSCHLST_ LEER RE
390
0
  6
PHANTOM
100
AcDbCircle
 10
90.375
 20
17.0364254385
 30
0.0
 40
1.0
  0
CIRCLE
  5
224
100
AcDbEntity
  8
3301_10N # VERSCHLST_ LEER RE
390
0
  6
PHANTOM
100
AcDbCircle
 10
74.875
 20
29.0364254384
 30
0.0
 40
0.5
  0
ARC
  5
225
100
AcDbEntity
  8
3301___ VERSCHLUSSREGISTER
390
0
  6
DASHDOT
100
AcDbCircle
 10
97.8977272718
 20
42.7636981654
 30
0.0
 40
26.8045516204
100
AcDbArc
 50
210.8054582872
 51
253.7009309414
  0
CIRCLE
  5
226
100
AcDbEntity
  8
3301 VERSCHLUSSSTÜCKE
390
0
100
AcDbCircle
 10
70.375
 20
24.5364254378
 30
0.0
 40
1.5
  0
CIRCLE
  5
227
100
AcDbEntity
  8
3301 VERSCHLUSSSTÜCKE
390
0
100
AcDbCircle
 10
79.375
 20
24.5364254378
 30
0.0
 40
1.5
  0
CIRCLE
  5
228
100
AcDbEntity
  8
3301 VERSCHLUSSSTÜCKE
390
0
100
AcDbCircle
 10
74.875
 20
24.5364254378
 30
0.0
 40
1.25
  0
LINE
  5
229
100
AcDbEntity
  8
3301 VERSCHLUSSSTÜCKE
390
0
100
AcDbLine
 10
40.375
 20
18.0364254378
 30
0.0
 11
27.375
 21
18.0364254378
 31
0.0
  0
LINE
  5
22A
100
AcDbEntity
  8
3301 VERSCHLUSSSTÜCKE
390
0
100
AcDbLine
 10
27.375
 20
28.0364254378
 30
0.0
 11
41.875
 21
28.0364254378
 31
0.0
  0
LINE
  5
22B
100
AcDbEntity
  8
3301_10M # VERSCHLST_ LEER LI
390
0
100
AcDbLine
 10
26.375
 20
29.0364254378
 30
0.0
 11
41.875
 21
29.0364254378
 31
0.0
  0
LINE
  5
22C
100
AcDbEntity
  8
3301 VERSCHLUSSSTÜCKE
390
0
100
AcDbLine
 10
76.375
 20
18.0364254378
 30
0.0
 11
89.375
 21
18.0364254378
 31
0.0
  0
LINE
  5
22D
100
AcDbEntity
  8
3301 VERSCHLUSSSTÜCKE
390
0
100
AcDbLine
 10
89.375
 20
28.0364254378
 30
0.0
 11
74.875
 21
28.0364254378
 31
0.0
  0
LINE
  5
22E
100
AcDbEntity
  8
3301_10N # VERSCHLST_ LEER RE
390
0
100
AcDbLine
 10
90.375
 20
29.0364254378
 30
0.0
 11
74.875
 21
29.0364254378
 31
0.0
  0
LINE
  5
22F
100
AcDbEntity
  8
3301 VERSCHLUSSSTÜCKE
390
0
100
AcDbLine
 10
27.375
 20
28.0364254384
 30
0.0
 11
27.375
 21
18.0364254378
 31
0.0
  0
LINE
  5
230
100
AcDbEntity
  8
3301_10M # VERSCHLST_ LEER LI
390
0
100
AcDbLine
 10
26.375
 20
29.0364254384
 30
0.0
 11
26.375
 21
17.0364254384
 31
0.0
  0
LINE
  5
231
100
AcDbEntity
  8
3301_10N # VERSCHLST_ LEER RE
390
0
100
AcDbLine
 10
90.375
 20
29.0364254384
 30
0.0
 11
90.375
 21
17.0364254384
 31
0.0
  0
LINE
  5
232
100
AcDbEntity
  8
3301 VERSCHLUSSSTÜCKE
390
0
100
AcDbLine
 10
89.375
 20
28.0364254384
 30
0.0
 11
89.375
 21
18.0364254378
 31
0.0
  0
TEXT
  5
233
100
AcDbEntity
  8
BESCHRIFTUNG
390
0
100
AcDbText
 10
49.3377973983
 20
188.1198890625
 30
0.0
 40
1.9125
  1
3301.10A,F
 41
1.3565852548
  7
Arial
 72
         1
 11
60.0
 21
189.0761390625
 31
0.0
100
AcDbText
 73
         2
  0
TEXT
  5
234
100
AcDbEntity
  8
BESCHRIFTUNG
390
0
100
AcDbText
 10
49.3379385571
 20
159.1198890628
 30
0.0
 40
1.9125
  1
3301.10B,G
 41
1.3565672947
  7
Arial
 72
         1
 11
60.0
 21
160.0761390628
 31
0.0
100
AcDbText
 73
         2
  0
TEXT
  5
235
100
AcDbEntity
  8
BESCHRIFTUNG
390
0
100
AcDbText
 10
49.3378806405
 20
128.1198890631
 30
0.0
 40
1.9125
  1
3301.10C,H
 41
1.3565746636
  7
Arial
 72
         1
 11
60.0
 21
129.0761390631
 31
0.0
100
AcDbText
 73
         2
  0
TEXT
  5
236
100
AcDbEntity
  8
BESCHRIFTUNG
390
0
100
AcDbText
 10
49.6224169138
 20
98.1198890628
 30
0.0
 40
1.9125
  1
3301.10D,I
 41
1.3565468087
  7
Arial
 72
         1
 11
60.0
 21
99.0761390628
 31
0.0
100
AcDbText
 73
         2
  0
TEXT
  5
237
100
AcDbEntity
  8
BESCHRIFTUNG
390
0
100
AcDbText
 10
48.2843114417
 20
68.4214583365
 30
0.0
 40
1.9125
  1
3301.10E,J
 41
1.3565905589
  7
Arial
 72
         1
 11
58.9465557316
 21
69.3777083365
 31
0.0
100
AcDbText
 73
         2
  0
TEXT
  5
238
100
AcDbEntity
  8
BESCHRIFTUNG
390
0
100
AcDbText
 10
49.3379167678
 20
38.1198890629
 30
0.0
 40
1.9125
  1
3301.10M,N
 41
1.356570067
  7
Arial
 72
         1
 11
60.0
 21
39.0761390629
 31
0.0
100
AcDbText
 73
         2
  0
TEXT
  5
239
100
AcDbEntity
  8
BESCHRIFTUNG
390
0
100
AcDbText
 10
138.1613307472
 20
187.6198890625
 30
0.0
 40
1.9125
  1
3301.10R
 41
1.3565980846
  7
Arial
 72
         1
 11
146.75
 21
188.5761390625
 31
0.0
100
AcDbText
 73
         2
  0
TEXT
  5
23A
100
AcDbEntity
  8
BESCHRIFTUNG
390
0
100
AcDbText
 10
138.1241484274
 20
154.1198890625
 30
0.0
 40
1.9125
  1
3301.10S
 41
1.3565968311
  7
Arial
 72
         1
 11
146.7128097444
 21
155.0761390625
 31
0.0
100
AcDbText
 73
         2
  0
TEXT
  5
23B
100
AcDbEntity
  8
BESCHRIFTUNG
390
0
100
AcDbText
 10
138.0362312674
 20
117.0834636246
 30
0.0
 40
1.9125
  1
3301.10T
 41
1.3566137976
  7
Arial
 72
         1
 11
146.625
 21
118.0397136246
 31
0.0
100
AcDbText
 73
         2
  0
TEXT
  5
23C
100
AcDbEntity
  8
BESCHRIFTUNG
390
0
100
AcDbText
 10
137.0363385394
 20
95.0834636246
 30
0.0
 40
1.9125
  1
3301.10P
 41
1.3565968538
  7
Arial
 72
         1
 11
145.625
 21
96.0397136246
 31
0.0
100
AcDbText
 73
         2
  0
MTEXT
  5
23D
100
AcDbEntity
  8
3301___ VERSCHLUSSREGISTER
390
0
  6
DASHDOT
100
AcDbMText
 10
192.0
 20
90.5323890625
 30
0.0
 40
1.9125
 41
0.0
 71
         1
 72
         1
  1
\W1.356597;3301.10P\P
  7
Arial
 73
         1
 44
1.0352941176
  0
TEXT
  5
23E
100
AcDbEntity
  8
3301___ VERSCHLUSSREGISTER
390
0
  6
DASHDOT
100
AcDbText
 10
211.0
 20
88.6198890625
 30
0.0
 40
1.9125
  1
0
 41
1.356635514
  7
Arial
 11
211.0
 21
90.5323890625
 31
0.0
100
AcDbText
 73
         3
  0
MTEXT
  5
23F
100
AcDbEntity
  8
3301___ VERSCHLUSSREGISTER
390
0
  6
DASHDOT
100
AcDbMText
 10
218.0
 20
90.5323890625
 30
0.0
 40
1.9125
 41
0.0
 71
         1
 72
         1
  3
\W1.356652;Verschlussstück\P  :LA W + li,\P    :LB W – li,\P    :LC Sig frei li,\P    :LD Sig beide frei li, \P    :LE Gruppenverschlussantrieb li,\P    :LM Leerstück li\P  :RF W + re,\P    :RG W – re,\P    :RH Sig frei re,\P    :RI Sig beide frei r
  1
e, \P    :RJ Gruppenverschlussantrieb re,\P    :RN Leerstück re\P  :UR Verschlussstück unten gerade,\P    :US Verschlussstück Führung unten\P    :UT Verschlussstück Antrieb unten
  7
Arial
 73
         1
 44
1.0352941176
  0
CIRCLE
  5
240
100
AcDbEntity
  8
3301_10J # GRU_VERSCHL_ANTR RE
390
0
  6
PHANTOM
100
AcDbCircle
 10
90.375
 20
47.0364254382
 30
0.0
 40
1.0
  0
ARC
  5
241
100
AcDbEntity
  8
3301___ VERSCHLUSSREGISTER
390
0
  6
DASHDOT
100
AcDbCircle
 10
167.1654077701
 20
60.5364254379
 30
0.0
 40
35.1989560465
100
AcDbArc
 50
150.1868020253
 51
209.8131979747
  0
MTEXT
  5
242
100
AcDbEntity
  8
3301___ VERSCHLUSSREGISTER
390
0
  6
DASHDOT
100
AcDbMText
 10
130.9664517236
 20
59.5871848129
 30
0.0
 40
1.275
 41
0.0
 71
         5
 72
         1
  1
\W1.271919;>3301.10P\PM50+x2 T2 O2\P:L?ABCDEM\P:R?FGHIJN\P:U?RST
  7
Arial
 73
         1
 44
0.9411764706
  0
LINE
  5
243
100
AcDbEntity
  8
3301 VERSCHLUSSSTÜCKE
390
0
100
AcDbLine
 10
29.5806439518
 20
63.0364254379
 30
0.0
 11
29.5806439518
 21
58.0364254379
 31
0.0
  0
LINE
  5
244
100
AcDbEntity
  8
3301 VERSCHLUSSSTÜCKE
390
0
100
AcDbLine
 10
87.1693560482
 20
63.0364254379
 30
0.0
 11
87.1693560482
 21
58.0364254379
 31
0.0
  0
LINE
  5
245
100
AcDbEntity
  8
3301 VERSCHLUSSSTÜCKE
390
0
100
AcDbLine
 10
29.5806439518
 20
58.0364254379
 30
0.0
 11
32.5806439518
 21
58.0364254379
 31
0.0
  0
LINE
  5
246
100
AcDbEntity
  8
3301 VERSCHLUSSSTÜCKE
390
0
100
AcDbLine
 10
84.1693560482
 20
58.0364254379
 30
0.0
 11
87.1693560482
 21
58.0364254379
 31
0.0
  0
LINE
  5
247
100
AcDbEntity
  8
3301_10E # GRU_VERSCHL_ANTR LI
390
0
100
AcDbLine
 10
26.375
 20
64.0364254379
 30
0.0
 11
30.5806439518
 21
64.0364254379
 31
0.0
  0
LINE
  5
248
100
AcDbEntity
  8
3301_10E # GRU_VERSCHL_ANTR LI
390
0
100
AcDbLine
 10
30.5806439518
 20
64.0364254379
 30
0.0
 11
30.5806439518
 21
59.0364254379
 31
0.0
  0
LINE
  5
249
100
AcDbEntity
  8
3301_10E # GRU_VERSCHL_ANTR LI
390
0
100
AcDbLine
 10
31.5806439518
 20
71.8312271146
 30
0.0
 11
31.5806439518
 21
59.0364254379
 31
0.0
  0
LINE
  5
24A
100
AcDbEntity
  8
3301_10E # GRU_VERSCHL_ANTR LI
390
0
100
AcDbLine
 10
30.5806439518
 20
59.0364254379
 30
0.0
 11
31.5806439518
 21
59.0364254379
 31
0.0
  0
ARC
  5
24B
100
AcDbEntity
  8
3301_10E # GRU_VERSCHL_ANTR LI
390
0
100
AcDbCircle
 10
25.6
 20
80.3049679642
 30
0.0
 40
10.3717108553
100
AcDbArc
 50
305.2138914064
 51
317.8477671917
  0
LINE
  5
24C
100
AcDbEntity
  8
3301_10J # GRU_VERSCHL_ANTR RE
390
0
100
AcDbLine
 10
90.375
 20
64.0364254379
 30
0.0
 11
86.1693560482
 21
64.0364254379
 31
0.0
  0
LINE
  5
24D
100
AcDbEntity
  8
3301_10J # GRU_VERSCHL_ANTR RE
390
0
100
AcDbLine
 10
86.1693560482
 20
64.0364254379
 30
0.0
 11
86.1693560482
 21
59.0364254379
 31
0.0
  0
LINE
  5
24E
100
AcDbEntity
  8
3301_10J # GRU_VERSCHL_ANTR RE
390
0
100
AcDbLine
 10
85.1693560482
 20
71.8312271146
 30
0.0
 11
85.1693560482
 21
59.0364254379
 31
0.0
  0
ARC
  5
24F
100
AcDbEntity
  8
3301_10J # GRU_VERSCHL_ANTR RE
390
0
100
AcDbCircle
 10
91.15
 20
80.3049679642
 30
0.0
 40
10.3717108553
100
AcDbArc
 50
222.1522328083
 51
234.7861085936
  0
LINE
  5
250
100
AcDbEntity
  8
3301_10J # GRU_VERSCHL_ANTR RE
390
0
100
AcDbLine
 10
85.1693560482
 20
59.0364254379
 30
0.0
 11
86.1693560482
 21
59.0364254379
 31
0.0
  0
LINE
  5
251
100
AcDbEntity
  8
STANDARD
390
0
100
AcDbLine
 10
292.0
 20
200.0
 30
0.0
 11
5.0
 21
200.0
 31
0.0
  0
LINE
  5
252
100
AcDbEntity
  8
STANDARD
390
0
100
AcDbLine
 10
10.0
 20
195.0
 30
0.0
 11
10.0
 21
5.0
 31
0.0
  0
LINE
  5
253
100
AcDbEntity
  8
STANDARD
390
0
100
AcDbLine
 10
5.0
 20
200.0
 30
0.0
 11
5.0
 21
195.0
 31
0.0
  0
LINE
  5
254
100
AcDbEntity
  8
STANDARD
390
0
100
AcDbLine
 10
292.0
 20
200.0
 30
0.0
 11
292.0
 21
195.0
 31
0.0
  0
LINE
  5
255
100
AcDbEntity
  8
STANDARD
390
0
100
AcDbLine
 10
52.8333333333
 20
200.0
 30
0.0
 11
52.8333333333
 21
195.0
 31
0.0
  0
LINE
  5
256
100
AcDbEntity
  8
STANDARD
390
0
100
AcDbLine
 10
100.6666666667
 20
200.0
 30
0.0
 11
100.6666666667
 21
195.0
 31
0.0
  0
LINE
  5
257
100
AcDbEntity
  8
STANDARD
390
0
100
AcDbLine
 10
148.5
 20
200.0
 30
0.0
 11
148.5
 21
195.0
 31
0.0
  0
LINE
  5
258
100
AcDbEntity
  8
STANDARD
390
0
100
AcDbLine
 10
196.3333333333
 20
200.0
 30
0.0
 11
196.3333333333
 21
195.0
 31
0.0
  0
LINE
  5
259
100
AcDbEntity
  8
STANDARD
390
0
100
AcDbLine
 10
244.1666666667
 20
200.0
 30
0.0
 11
244.1666666667
 21
195.0
 31
0.0
  0
LINE
  5
25A
100
AcDbEntity
  8
STANDARD
390
0
100
AcDbLine
 10
5.0
 20
52.5
 30
0.0
 11
10.0
 21
52.5
 31
0.0
  0
LINE
  5
25B
100
AcDbEntity
  8
STANDARD
390
0
100
AcDbLine
 10
5.0
 20
100.0
 30
0.0
 11
10.0
 21
100.0
 31
0.0
  0
LINE
  5
25C
100
AcDbEntity
  8
STANDARD
390
0
100
AcDbLine
 10
5.0
 20
147.5
 30
0.0
 11
10.0
 21
147.5
 31
0.0
  0
TEXT
  5
25D
100
AcDbEntity
  8
STANDARD
390
0
100
AcDbText
 10
27.6214908115
 20
196.4732039063
 30
0.0
 40
2.23125
  1
1
 41
1.5479225906
  7
Arial
 72
         1
 11
28.9166666667
 21
196.4732039063
 31
0.0
100
AcDbText
  0
TEXT
  5
25E
100
AcDbEntity
  8
STANDARD
390
0
100
AcDbText
 10
75.0230999712
 20
196.4732039063
 30
0.0
 40
2.23125
  1
2
 41
1.5479215945
  7
Arial
 72
         1
 11
76.75
 21
196.4732039063
 31
0.0
100
AcDbText
  0
TEXT
  5
25F
100
AcDbEntity
  8
STANDARD
390
0
100
AcDbText
 10
122.8564319709
 20
196.4732039063
 30
0.0
 40
2.23125
  1
3
 41
1.5479227899
  7
Arial
 72
         1
 11
124.5833333333
 21
196.4732039063
 31
0.0
100
AcDbText
  0
TEXT
  5
260
100
AcDbEntity
  8
STANDARD
390
0
100
AcDbText
 10
170.6897655265
 20
196.4732039063
 30
0.0
 40
2.23125
  1
4
 41
1.5479225906
  7
Arial
 72
         1
 11
172.4166666667
 21
196.4732039063
 31
0.0
100
AcDbText
  0
TEXT
  5
261
100
AcDbEntity
  8
STANDARD
390
0
100
AcDbText
 10
218.5230997489
 20
196.4732039063
 30
0.0
 40
2.23125
  1
5
 41
1.5479217937
  7
Arial
 72
         1
 11
220.25
 21
196.4732039063
 31
0.0
100
AcDbText
  0
TEXT
  5
262
100
AcDbEntity
  8
STANDARD
390
0
100
AcDbText
 10
266.3564321932
 20
196.4732039063
 30
0.0
 40
2.23125
  1
6
 41
1.5479225906
  7
Arial
 72
         1
 11
268.0833333333
 21
196.4732039063
 31
0.0
100
AcDbText
  0
TEXT
  5
263
100
AcDbEntity
  8
STANDARD
390
0
100
AcDbText
 10
5.773027185
 20
172.7232039063
 30
0.0
 40
2.23125
  1
A
 41
1.547986837
  7
Arial
 72
         1
 11
7.5
 21
172.7232039063
 31
0.0
100
AcDbText
  0
TEXT
  5
264
100
AcDbEntity
  8
STANDARD
390
0
100
AcDbText
 10
5.7730267401
 20
125.2232039063
 30
0.0
 40
2.23125
  1
B
 41
1.5479872357
  7
Arial
 72
         1
 11
7.5
 21
125.2232039063
 31
0.0
100
AcDbText
  0
TEXT
  5
265
100
AcDbEntity
  8
STANDARD
390
0
100
AcDbText
 10
5.7728972752
 20
77.7232039063
 30
0.0
 40
2.23125
  1
C
 41
1.5481032827
  7
Arial
 72
         1
 11
7.5
 21
77.7232039063
 31
0.0
100
AcDbText
  0
TEXT
  5
266
100
AcDbEntity
  8
STANDARD
390
0
100
AcDbText
 10
5.7728964192
 20
30.2232039062
 30
0.0
 40
2.23125
  1
D
 41
1.54810405
  7
Arial
 72
         1
 11
7.5
 21
30.2232039062
 31
0.0
100
AcDbText
  0
LINE
  5
267
100
AcDbEntity
  8
STANDARD
390
0
100
AcDbLine
 10
5.0
 20
5.0
 30
0.0
 11
10.0
 21
5.0
 31
0.0
  0
LINE
  5
268
100
AcDbEntity
  8
STANDARD
390
0
100
AcDbLine
 10
292.0
 20
5.0
 30
0.0
 11
292.0
 21
195.0
 31
0.0
  0
LINE
  5
269
100
AcDbEntity
  8
STANDARD
390
0
100
AcDbLine
 10
292.0
 20
195.0
 30
0.0
 11
10.0
 21
195.0
 31
0.0
  0
LINE
  5
26A
100
AcDbEntity
  8
STANDARD
390
0
100
AcDbLine
 10
5.0
 20
195.0
 30
0.0
 11
5.0
 21
5.0
 31
0.0
  0
LINE
  5
26B
100
AcDbEntity
  8
STANDARD
390
0
100
AcDbLine
 10
296.0
 20
209.0
 30
0.0
 11
1.0
 21
209.0
 31
0.0
  0
LINE
  5
26C
100
AcDbEntity
  8
STANDARD
390
0
100
AcDbLine
 10
296.0
 20
1.0
 30
0.0
 11
296.0
 21
209.0
 31
0.0
  0
LINE
  5
26D
100
AcDbEntity
  8
STANDARD
390
0
100
AcDbLine
 10
1.0
 20
1.0
 30
0.0
 11
296.0
 21
1.0
 31
0.0
  0
LINE
  5
26E
100
AcDbEntity
  8
STANDARD
390
0
100
AcDbLine
 10
1.0
 20
209.0
 30
0.0
 11
1.0
 21
1.0
 31
0.0
  0
LINE
  5
26F
100
AcDbEntity
  8
STANDARD
390
0
100
AcDbLine
 10
10.0
 20
195.0
 30
0.0
 11
5.0
 21
195.0
 31
0.0
  0
LINE
  5
270
100
AcDbEntity
  8
STANDARD
390
0
100
AcDbLine
 10
10.0
 20
5.0
 30
0.0
 11
292.0
 21
5.0
 31
0.0
  0
MTEXT
  5
271
100
AcDbEntity
  8
STANDARD
390
0
100
AcDbMText
 10
215.5777227339
 20
6.520569157
 30
0.0
 40
1.59375
 41
0.0
 71
         7
 72
         1
  1

  7
Arial
 73
         1
 44
1.0352941176
  0
MTEXT
  5
272
100
AcDbEntity
  8
STANDARD
390
0
100
AcDbMText
 10
269.4128856935
 20
6.5165742187
 30
0.0
 40
1.59375
 41
0.0
 71
         7
 72
         1
  1

  7
Arial
 73
         1
 44
1.0352941176
  0
MTEXT
  5
273
100
AcDbEntity
  8
STANDARD
390
0
100
AcDbMText
 10
171.2439051502
 20
6.520569157
 30
0.0
 40
1.59375
 41
0.0
 71
         7
 72
         1
  1

  7
Arial
 73
         1
 44
1.0352941176
  0
TEXT
  5
274
100
AcDbEntity
  8
BESCHRIFTUNG
390
0
100
AcDbText
 10
169.1145333333
 20
29.1386
 30
0.0
 40
3.3
  1
Stellwerk HMM
 41
1.3758039542
 51
15.0
  7
Arial
 11
169.1145333333
 21
32.4386
 31
0.0
100
AcDbText
 73
         3
  0
MTEXT
  5
275
100
AcDbEntity
  8
BESCHRIFTUNG
390
0
100
AcDbMText
 10
215.5344888889
 20
24.9601111111
 30
0.0
 40
3.3
 41
0.0
 71
         1
 72
         1
  1
\W1.080977;Verschlussregister JE\PVerschlussstücke
  7
Arial
 73
         1
 44
0.7272727273
  0
TEXT
  5
276
100
AcDbEntity
  8
BESCHRIFTUNG
390
0
100
AcDbText
 10
169.1145333333
 20
6.9230888889
 30
0.0
 40
3.3
  1
Dateiname
 41
1.1437088374
 51
15.0
  7
Arial
 11
169.1145333333
 21
10.2230888889
 31
0.0
100
AcDbText
 73
         3
  0
TEXT
  5
277
100
AcDbEntity
  8
BESCHRIFTUNG
390
0
100
AcDbText
 10
169.3344888889
 20
21.6601111111
 30
0.0
 40
3.3
  1
Bl. 3301 P.6h
 41
1.1437204198
 51
15.0
  7
Arial
 11
169.3344888889
 21
24.9601111111
 31
0.0
100
AcDbText
 73
         3
  0
TEXT
  5
278
100
AcDbEntity
  8
BESCHRIFTUNG
390
0
100
AcDbText
 10
253.1145333333
 20
29.1386
 30
0.0
 40
3.3
  1
Maßstab 1:1
 41
1.1437192123
 51
15.0
  7
Arial
 11
253.1145333333
 21
32.4386
 31
0.0
100
AcDbText
 73
         3
  0
LINE
  5
279
100
AcDbEntity
  8
STANDARD
370
         0
390
0
100
AcDbLine
 10
214.2194301994
 20
34.4
 30
0.0
 11
214.2194301994
 21
5.0
 31
0.0
  0
LINE
  5
27A
100
AcDbEntity
  8
STANDARD
370
         0
390
0
100
AcDbLine
 10
168.0194301994
 20
34.4
 30
0.0
 11
291.9134472934
 21
34.4
 31
0.0
  0
LINE
  5
27B
100
AcDbEntity
  8
STANDARD
370
         0
390
0
100
AcDbLine
 10
168.0194301994
 20
27.4
 30
0.0
 11
291.9134472934
 21
27.4
 31
0.0
  0
LINE
  5
27C
100
AcDbEntity
  8
STANDARD
370
         0
390
0
100
AcDbLine
 10
168.0194301994
 20
12.0
 30
0.0
 11
291.9134472934
 21
12.0
 31
0.0
  0
LINE
  5
27D
100
AcDbEntity
  8
STANDARD
370
         0
390
0
100
AcDbLine
 10
168.0194301994
 20
34.4
 30
0.0
 11
168.0194301994
 21
5.0
 31
0.0
  0
LINE
  5
27E
100
AcDbEntity
  8
STANDARD
370
         0
390
0
100
AcDbLine
 10
252.0194301994
 20
34.4
 30
0.0
 11
252.0194301994
 21
27.4
 31
0.0
  0
ENDSEC
  0
SECTION
  2
OBJECTS
  0
DICTIONARY
  5
19
100
AcDbDictionary
280
         0
281
         1
  3
ACAD_GROUP
350
1A
  3
ACAD_MLINESTYLE
350
1B
  3
ACAD_LAYOUT
350
1E
  3
ACAD_PLOTSETTINGS
350
22
  3
ACAD_PLOTSTYLENAME
350
1F
  3
ACAD_WIPEOUT_VARS
350
23
  0
DICTIONARY
  5
1A
102
{ACAD_REACTORS
330
19
102
}
100
AcDbDictionary
280
         0
281
         1
  0
DICTIONARY
  5
1B
102
{ACAD_REACTORS
330
19
102
}
100
AcDbDictionary
280
         0
281
         1
  3
Standard
350
1C
  0
MLINESTYLE
  5
1C
102
{ACAD_REACTORS
330
1B
102
}
100
AcDbMlineStyle
  2
Standard
 70
         0
  3

 62
         0
 51
90.0
 52
90.0
 71
         2
 49
0.5
 62
       256
  6
ByLayer
 49
-0.5
 62
       256
  6
ByLayer
  0
ACDBDICTIONARYWDFLT
  5
1F
102
{ACAD_REACTORS
330
19
102
}
100
AcDbDictionary
281
         1
  3
Normal
350
1D
100
AcDbDictionaryWithDefault
340
1D
  0
ACDBPLACEHOLDER
  5
1D
102
{ACAD_REACTORS
330
1F
102
}
  0
LAYOUT
  5
20
102
{ACAD_REACTORS
330
1E
102
}
100
AcDbPlotSettings
  1

  2

  4

  6

 40
0.0
 41
0.0
 42
0.0
 43
0.0
 44
0.0
 45
0.0
 46
0.0
 47
0.0
 48
0.0
 49
0.0
140
0.0
141
0.0
142
1.0
143
1.0
 70
      1024
 72
         0
 73
         0
 74
         0
  7

 75
         0
147
1.0
148
0.0
149
0.0
100
AcDbLayout
  1
Model
 70
         0
 71
         0
 10
0.0
 20
0.0
 11
0.0
 21
0.0
 12
0.0
 22
0.0
 32
0.0
 14
0.0
 24
0.0
 34
0.0
 15
0.0
 25
0.0
 35
0.0
146
0.0
 13
0.0
 23
0.0
 33
0.0
 16
0.0
 26
0.0
 36
0.0
 17
0.0
 27
0.0
 37
0.0
 76
         0
330
A
331
0
345
0
346
0
  0
LAYOUT
  5
21
102
{ACAD_REACTORS
330
1E
102
}
100
AcDbPlotSettings
  1

  2

  4

  6

 40
0.0
 41
0.0
 42
0.0
 43
0.0
 44
0.0
 45
0.0
 46
0.0
 47
0.0
 48
0.0
 49
0.0
140
0.0
141
0.0
142
1.0
143
1.0
 70
         0
 72
         0
 73
         0
 74
         0
  7

 75
         0
147
1.0
148
0.0
149
0.0
100
AcDbLayout
  1
Layout1
 70
         0
 71
         0
 10
0.0
 20
0.0
 11
0.0
 21
0.0
 12
0.0
 22
0.0
 32
0.0
 14
0.0
 24
0.0
 34
0.0
 15
0.0
 25
0.0
 35
0.0
146
0.0
 13
0.0
 23
0.0
 33
0.0
 16
0.0
 26
0.0
 36
0.0
 17
0.0
 27
0.0
 37
0.0
 76
         0
330
B
331
0
345
0
346
0
  0
DICTIONARY
  5
1E
102
{ACAD_REACTORS
330
19
102
}
100
AcDbDictionary
280
         0
281
         1
  3
Layout1
350
21
  3
Model
350
20
  0
DICTIONARY
  5
22
102
{ACAD_REACTORS
330
19
102
}
100
AcDbDictionary
280
         0
281
         1
  0
WIPEOUTVARIABLES
  5
23
100
AcDbWipeoutVariables
 70
         1
  0
ENDSEC
  0
EOF
