  0
SECTION
  2
HEADER
  9
$ACADVER
  1
AC1015
  9
$ACADMAINTVER
 70
         6
  9
$DWGCODEPAGE
  3
ANSI_1252
  9
$INSBASE
 10
0.0
 20
0.0
 30
0.0
  9
$EXTMIN
 10
0.0
 20
0.0
 30
0.0
  9
$EXTMAX
 10
297.0
 20
210.0
 30
0.0
  9
$LIMMIN
 10
0.0
 20
0.0
  9
$LIMMAX
 10
297.0
 20
210.0
  9
$ORTHOMODE
 70
         0
  9
$REGENMODE
 70
         1
  9
$FILLMODE
 70
         1
  9
$QTEXTMODE
 70
         0
  9
$MIRRTEXT
 70
         1
  9
$LTSCALE
 40
7.425
  9
$ATTMODE
 70
         1
  9
$TEXTSIZE
 40
0.2
  9
$TRACEWID
 40
0.05
  9
$TEXTSTYLE
  7
Standard
  9
$CLAYER
  8
0
  9
$CELTYPE
  6
CONTINUOUS
  9
$CECOLOR
 62
       256
  9
$CELTSCALE
 40
1.0
  9
$DISPSILH
 70
         0
  9
$DIMSCALE
 40
1.0
  9
$DIMASZ
 40
0.18
  9
$DIMEXO
 40
0.0625
  9
$DIMDLI
 40
0.38
  9
$DIMRND
 40
0.0
  9
$DIMDLE
 40
0.0
  9
$DIMEXE
 40
0.18
  9
$DIMTP
 40
0.0
  9
$DIMTM
 40
0.0
  9
$DIMTXT
 40
3.0
  9
$DIMCEN
 40
0.09
  9
$DIMTSZ
 40
0.0
  9
$DIMTOL
 70
         0
  9
$DIMLIM
 70
         0
  9
$DIMTIH
 70
         1
  9
$DIMTOH
 70
         1
  9
$DIMSE1
 70
         0
  9
$DIMSE2
 70
         0
  9
$DIMTAD
 70
         1
  9
$DIMZIN
 70
         0
  9
$DIMBLK
  1

  9
$DIMASO
 70
         1
  9
$DIMSHO
 70
         1
  9
$DIMPOST
  1
<>
  9
$DIMAPOST
  1

  9
$DIMALT
 70
         0
  9
$DIMALTD
 70
         2
  9
$DIMALTF
 40
25.4
  9
$DIMLFAC
 40
1.0
  9
$DIMTOFL
 70
         0
  9
$DIMTVP
 40
0.0
  9
$DIMTIX
 70
         0
  9
$DIMSOXD
 70
         0
  9
$DIMSAH
 70
         0
  9
$DIMBLK1
  1

  9
$DIMBLK2
  1

  9
$DIMSTYLE
  2
Standard
  9
$DIMCLRD
 70
         0
  9
$DIMCLRE
 70
         0
  9
$DIMCLRT
 70
         0
  9
$DIMTFAC
 40
1.0
  9
$DIMGAP
 40
0.09
  9
$DIMJUST
 70
         0
  9
$DIMSD1
 70
         0
  9
$DIMSD2
 70
         0
  9
$DIMTOLJ
 70
         1
  9
$DIMTZIN
 70
         0
  9
$DIMALTZ
 70
         0
  9
$DIMALTTZ
 70
         0
  9
$DIMUPT
 70
         0
  9
$DIMDEC
 70
         4
  9
$DIMTDEC
 70
         4
  9
$DIMALTU
 70
         2
  9
$DIMALTTD
 70
         2
  9
$DIMTXSTY
  7
Standard
  9
$DIMAUNIT
 70
         0
  9
$DIMADEC
 70
         0
  9
$DIMALTRND
 40
0.0
  9
$DIMAZIN
 70
         0
  9
$DIMDSEP
 70
         0
  9
$DIMATFIT
 70
         3
  9
$DIMFRAC
 70
         0
  9
$DIMLDRBLK
  1

  9
$DIMLUNIT
 70
         2
  9
$DIMLWD
 70
         0
  9
$DIMLWE
 70
         0
  9
$DIMTMOVE
 70
         0
  9
$LUNITS
 70
         2
  9
$LUPREC
 70
         4
  9
$SKETCHINC
 40
0.1
  9
$FILLETRAD
 40
0.0
  9
$AUNITS
 70
         0
  9
$AUPREC
 70
         0
  9
$MENU
  1
acad
  9
$ELEVATION
 40
0.0
  9
$PELEVATION
 40
0.0
  9
$THICKNESS
 40
0.0
  9
$LIMCHECK
 70
         0
  9
$CHAMFERA
 40
0.0
  9
$CHAMFERB
 40
0.0
  9
$CHAMFERC
 40
0.0
  9
$CHAMFERD
 40
0.0
  9
$SKPOLY
 70
         0
  9
$TDCREATE
 40
0.000000000
  9
$TDUCREATE
 40
0.000000000
  9
$TDUPDATE
 40
0.000000000
  9
$TDUUPDATE
 40
0.000000000
  9
$TDINDWG
 40
0.0000000000
  9
$TDUSRTIMER
 40
0.0000000000
  9
$USRTIMER
 70
         1
  9
$ANGBASE
 50
0.0
  9
$ANGDIR
 70
         0
  9
$PDMODE
 70
         0
  9
$PDSIZE
 40
0.0
  9
$PLINEWID
 40
0.0
  9
$SPLFRAME
 70
         0
  9
$SPLINETYPE
 70
         6
  9
$SPLINESEGS
 70
         8
  9
$HANDSEED
  5
346
  9
$SURFTAB1
 70
         6
  9
$SURFTAB2
 70
         6
  9
$SURFTYPE
 70
         6
  9
$SURFU
 70
         6
  9
$SURFV
 70
         6
  9
$UCSBASE
  2

  9
$UCSNAME
  2

  9
$UCSORG
 10
0.0
 20
0.0
 30
0.0
  9
$UCSXDIR
 10
1.0
 20
0.0
 30
0.0
  9
$UCSYDIR
 10
0.0
 20
1.0
 30
0.0
  9
$UCSORTHOREF
  2

  9
$UCSORTHOVIEW
 70
         0
  9
$UCSORGTOP
 10
0.0
 20
0.0
 30
0.0
  9
$UCSORGBOTTOM
 10
0.0
 20
0.0
 30
0.0
  9
$UCSORGLEFT
 10
0.0
 20
0.0
 30
0.0
  9
$UCSORGRIGHT
 10
0.0
 20
0.0
 30
0.0
  9
$UCSORGFRONT
 10
0.0
 20
0.0
 30
0.0
  9
$UCSORGBACK
 10
0.0
 20
0.0
 30
0.0
  9
$PUCSBASE
  2

  9
$PUCSNAME
  2

  9
$PUCSORG
 10
0.0
 20
0.0
 30
0.0
  9
$PUCSXDIR
 10
1.0
 20
0.0
 30
0.0
  9
$PUCSYDIR
 10
0.0
 20
1.0
 30
0.0
  9
$PUCSORTHOREF
  2

  9
$PUCSORTHOVIEW
 70
         0
  9
$PUCSORGTOP
 10
0.0
 20
0.0
 30
0.0
  9
$PUCSORGBOTTOM
 10
0.0
 20
0.0
 30
0.0
  9
$PUCSORGLEFT
 10
0.0
 20
0.0
 30
0.0
  9
$PUCSORGRIGHT
 10
0.0
 20
0.0
 30
0.0
  9
$PUCSORGFRONT
 10
0.0
 20
0.0
 30
0.0
  9
$PUCSORGBACK
 10
0.0
 20
0.0
 30
0.0
  9
$USERI1
 70
         0
  9
$USERI2
 70
         0
  9
$USERI3
 70
         0
  9
$USERI4
 70
         0
  9
$USERI5
 70
         0
  9
$USERR1
 40
0.0
  9
$USERR2
 40
0.0
  9
$USERR3
 40
0.0
  9
$USERR4
 40
0.0
  9
$USERR5
 40
0.0
  9
$WORLDVIEW
 70
         1
  9
$SHADEDGE
 70
         3
  9
$SHADEDIF
 70
        70
  9
$TILEMODE
 70
         1
  9
$MAXACTVP
 70
        16
  9
$PINSBASE
 10
0.0
 20
0.0
 30
0.0
  9
$PLIMCHECK
 70
         0
  9
$PEXTMIN
 10
1.0000000000E+20
 20
1.0000000000E+20
 30
1.0000000000E+20
  9
$PEXTMAX
 10
-1.0000000000E+20
 20
-1.0000000000E+20
 30
-1.0000000000E+20
  9
$PLIMMIN
 10
0.0
 20
0.0
  9
$PLIMMAX
 10
12.0
 20
9.0
  9
$UNITMODE
 70
         0
  9
$VISRETAIN
 70
         0
  9
$PLINEGEN
 70
         1
  9
$PSLTSCALE
 70
         0
  9
$TREEDEPTH
 70
      3020
  9
$CMLSTYLE
  2
Standard
  9
$CMLJUST
 70
         0
  9
$CMLSCALE
 40
1.0
  9
$PROXYGRAPHICS
 70
         0
  9
$MEASUREMENT
 70
         1
  9
$CELWEIGHT
370
         0
  9
$ENDCAPS
280
         0
  9
$JOINSTYLE
280
         0
  9
$LWDISPLAY
290
         0
  9
$INSUNITS
 70
         0
  9
$HYPERLINKBASE
  1

  9
$STYLESHEET
  1

  9
$XEDIT
290
         1
  9
$CEPSNTYPE
380
         0
  9
$PSTYLEMODE
290
         1
  9
$FINGERPRINTGUID
  2

  9
$VERSIONGUID
  2

  9
$EXTNAMES
290
         1
  9
$PSVPSCALE
 40
0.0
  0
ENDSEC
  0
SECTION
  2
CLASSES
  0
CLASS
  1
LWPOLYLINE
  2
AcDbPolyline
  3
AutoCAD 2000
 90
        0
280
         0
281
         1
  0
CLASS
  1
IMAGE
  2
AcDbRasterImage
  3
ISM
 90
      127
280
         0
281
         1
  0
CLASS
  1
OLE2FRAME
  2
AcDbOle2Frame
  3
AutoCAD 2000
 90
        0
280
         0
281
         1
  0
CLASS
  1
HATCH
  2
AcDbHatch
  3
AutoCAD 2000
 90
        0
280
         0
281
         1
  0
CLASS
  1
DICTIONARYVAR
  2
AcDbDictionaryVar
  3
AutoCAD 2000
 90
        0
280
         0
281
         0
  0
CLASS
  1
RASTERVARIABLES
  2
AcDbRasterVariables
  3
ISM
 90
        0
280
         0
281
         0
  0
CLASS
  1
IMAGEDEF
  2
AcDbRasterImageDef
  3
ISM
 90
        0
280
         0
281
         0
  0
CLASS
  1
IMAGEDEF_REACTOR
  2
AcDbRasterImageDefReactor
  3
ISM
 90
        1
280
         0
281
         0
  0
CLASS
  1
IDBUFFER
  2
AcDbIdBuffer
  3
AutoCAD 2000
 90
        0
280
         0
281
         0
  0
CLASS
  1
SPATIAL_FILTER
  2
AcDbSpatialFilter
  3
AutoCAD 2000
 90
        0
280
         0
281
         0
  0
CLASS
  1
XRECORD
  2
AcDbXrecord
  3
AutoCAD 2000
 90
        0
280
         0
281
         0
  0
CLASS
  1
SORTENTSTABLE
  2
AcDbSortentsTable
  3
AutoCAD 2000
 90
        0
280
         0
281
         0
  0
CLASS
  1
LAYER_INDEX
  2
AcDbLayerIndex
  3
AutoCAD 2000
 90
        0
280
         0
281
         0
  0
CLASS
  1
SPATIAL_INDEX
  2
AcDbSpatialIndex
  3
AutoCAD 2000
 90
        0
280
         0
281
         0
  0
CLASS
  1
OBJECT_PTR
  2
CAseDLPNTableRecord
  3
"ASE-LPNTableRecord"
 90
        1
280
         0
281
         0
  0
CLASS
  1
LAYOUT
  2
AcDbLayout
  3
AutoCAD 2000
 90
        0
280
         0
281
         0
  0
CLASS
  1
PLOTSETTINGS
  2
AcDbPlotSettings
  3
AutoCAD 2000
 90
        0
280
         0
281
         0
  0
CLASS
  1
ACDBDICTIONARYWDFLT
  2
AcDbDictionaryWithDefault
  3
AutoCAD 2000
 90
        0
280
         0
281
         0
  0
CLASS
  1
ACDBPLACEHOLDER
  2
AcDbPlaceHolder
  3
AutoCAD 2000
 90
        0
280
         0
281
         0
  0
CLASS
  1
VBA_PROJECT
  2
AcDbVbaProject
  3
acadvba
 90
        0
280
         0
281
         0
  0
CLASS
  1
WIPEOUT
  2
AcDbWipeout
  3
WipeOut|AutoCAD Express Tool|expresstools@autodesk.com
 90
      127
280
         0
281
         1
  0
CLASS
  1
WIPEOUTVARIABLES
  2
AcDbWipeoutVariables
  3
WipeOut|AutoCAD Express Tool|expresstools@autodesk.com
 90
        0
280
         0
281
         0
  0
CLASS
  1
RTEXT
  2
RText
  3
RText|AutoCAD Express Tool|expresstools@autodesk.com
 90
        0
280
         0
281
         1
  0
CLASS
  1
ARCALIGNEDTEXT
  2
AcDbArcAlignedText
  3
ATEXT|AutoCAD Express Tool|expresstools@autodesk.com
 90
        0
280
         0
281
         1
  0
ENDSEC
  0
SECTION
  2
TABLES
  0
TABLE
  2
VPORT
  5
7
100
AcDbSymbolTable
 70
         1
  0
VPORT
  5
15
100
AcDbSymbolTableRecord
100
AcDbViewportTableRecord
  2
*ACTIVE
 70
         0
 10
0.0
 20
0.0
 11
1.0
 21
1.0
 12
148.5
 22
105.0
 13
0.0
 23
0.0
 14
1.0
 24
1.0
 15
0.0
 25
0.0
 16
0.0
 26
0.0
 36
1.0
 17
0.0
 27
0.0
 37
0.0
 40
231.2943892345
 41
1.0
 42
50.0
 43
0.0
 44
0.0
 50
0.0
 51
0.0
 71
         0
 72
       100
 73
         1
 74
         1
 75
         0
 76
         0
 77
         0
 78
         0
281
         0
 65
         0
110
0.0
120
0.0
130
0.0
111
1.0
121
0.0
131
0.0
112
0.0
122
1.0
132
0.0
345
0
346
0
 79
         0
146
0.0
  0
ENDTAB
  0
TABLE
  2
LTYPE
  5
4
100
AcDbSymbolTable
 70
        12
  0
LTYPE
  5
11
100
AcDbSymbolTableRecord
100
AcDbLinetypeTableRecord
  2
ByBlock
 70
        64
  3

 72
        65
 73
         0
 40
0.0
  0
LTYPE
  5
12
100
AcDbSymbolTableRecord
100
AcDbLinetypeTableRecord
  2
ByLayer
 70
        64
  3

 72
        65
 73
         0
 40
0.0
  0
LTYPE
  5
13
100
AcDbSymbolTableRecord
100
AcDbLinetypeTableRecord
  2
CONTINUOUS
 70
        64
  3
Solid Line
 72
        65
 73
         0
 40
0.0
  0
LTYPE
  5
24
100
AcDbSymbolTableRecord
100
AcDbLinetypeTableRecord
  2
DOT
 70
        64
  3
. . . . . . . . . . . . . . . . . . . . . . 
 72
        65
 73
         2
 40
0.25
 49
0.0
 74
         0
 49
-0.25
 74
         0
  0
LTYPE
  5
25
100
AcDbSymbolTableRecord
100
AcDbLinetypeTableRecord
  2
HIDDEN
 70
         0
  3
_ _ _ _ _ _ _ _ _ _ _ _ _ _ _ _ _ _ _ _ _ _ _
 72
        65
 73
         2
 40
0.375
 49
0.25
 74
         0
 49
-0.125
 74
         0
  0
LTYPE
  5
26
100
AcDbSymbolTableRecord
100
AcDbLinetypeTableRecord
  2
DASHDOT
 70
         0
  3
__ . __ . __ . __ . __ . __ . __ . __ . __ . __
 72
        65
 73
         4
 40
1.0
 49
0.5
 74
         0
 49
-0.25
 74
         0
 49
0.0
 74
         0
 49
-0.25
 74
         0
  0
LTYPE
  5
27
100
AcDbSymbolTableRecord
100
AcDbLinetypeTableRecord
  2
DIVIDE
 70
         0
  3
__ . . __ . . __ . . __ . . __ . . __ . . __
 72
        65
 73
         6
 40
1.25
 49
0.5
 74
         0
 49
-0.25
 74
         0
 49
0.0
 74
         0
 49
-0.25
 74
         0
 49
0.0
 74
         0
 49
-0.25
 74
         0
  0
LTYPE
  5
28
100
AcDbSymbolTableRecord
100
AcDbLinetypeTableRecord
  2
DASHED
 70
         0
  3
__ __ __ __ __ __ __ __ __ __ __ __ __ __ __
 72
        65
 73
         2
 40
0.75
 49
0.5
 74
         0
 49
-0.25
 74
         0
  0
LTYPE
  5
29
100
AcDbSymbolTableRecord
100
AcDbLinetypeTableRecord
  2
BORDER
 70
         0
  3
__ __ . __ __ . __ __ . __ __ . __ __ .
 72
        65
 73
         6
 40
1.75
 49
0.5
 74
         0
 49
-0.25
 74
         0
 49
0.5
 74
         0
 49
-0.25
 74
         0
 49
0.0
 74
         0
 49
-0.25
 74
         0
  0
LTYPE
  5
2A
100
AcDbSymbolTableRecord
100
AcDbLinetypeTableRecord
  2
CENTER
 70
         0
  3
____ _ ____ _ ____ _ ____ _ ____ _ ____
 72
        65
 73
         4
 40
2.0
 49
1.25
 74
         0
 49
-0.25
 74
         0
 49
0.25
 74
         0
 49
-0.25
 74
         0
  0
LTYPE
  5
2B
100
AcDbSymbolTableRecord
100
AcDbLinetypeTableRecord
  2
DOT2
 70
         0
  3
........................................
 72
        65
 73
         2
 40
0.125
 49
0.0
 74
         0
 49
-0.125
 74
         0
  0
LTYPE
  5
2C
100
AcDbSymbolTableRecord
100
AcDbLinetypeTableRecord
  2
PHANTOM
 70
         0
  3
______  __  __  ______  __  __  ______
 72
        65
 73
         6
 40
2.5
 49
1.25
 74
         0
 49
-0.25
 74
         0
 49
0.25
 74
         0
 49
-0.25
 74
         0
 49
0.25
 74
         0
 49
-0.25
 74
         0
  0
ENDTAB
  0
TABLE
  2
LAYER
  5
2
100
AcDbSymbolTable
 70
       194
  0
LAYER
  5
14
100
AcDbSymbolTableRecord
100
AcDbLayerTableRecord
  2
0
 70
         0
 62
         7
  6
CONTINUOUS
290
         1
370
        -3
390
1D
  0
LAYER
  5
2F
100
AcDbSymbolTableRecord
100
AcDbLayerTableRecord
  2
SCHRAFFUR
 70
        64
 62
         7
  6
CONTINUOUS
290
         1
370
         0
390
1D
  0
LAYER
  5
30
100
AcDbSymbolTableRecord
100
AcDbLayerTableRecord
  2
VERDECKTE KANTEN
 70
        64
 62
        92
  6
DASHED
290
         1
370
        35
390
1D
  0
LAYER
  5
31
100
AcDbSymbolTableRecord
100
AcDbLayerTableRecord
  2
TANGENTIALE KANTEN
 70
        64
 62
         7
  6
CONTINUOUS
290
         1
370
        13
390
1D
  0
LAYER
  5
32
100
AcDbSymbolTableRecord
100
AcDbLayerTableRecord
  2
MITTELLINIEN
 70
        64
 62
         5
  6
DASHDOT
290
         1
370
        13
390
1D
  0
LAYER
  5
33
100
AcDbSymbolTableRecord
100
AcDbLayerTableRecord
  2
2052 GEHƒUSE
 70
        64
 62
         7
  6
CONTINUOUS
290
         1
370
        18
390
1D
  0
LAYER
  5
34
100
AcDbSymbolTableRecord
100
AcDbLayerTableRecord
  2
2052 ZUHALTUNG
 70
        64
 62
        94
  6
CONTINUOUS
290
         1
370
        18
390
1D
  0
LAYER
  5
35
100
AcDbSymbolTableRecord
100
AcDbLayerTableRecord
  2
2052 BESATZUNG
 70
        64
 62
         8
  6
CONTINUOUS
290
         1
370
        18
390
1D
  0
LAYER
  5
36
100
AcDbSymbolTableRecord
100
AcDbLayerTableRecord
  2
2052 RIEGEL UMGESPERRT
 70
        64
 62
       230
  6
DASHED
290
         1
370
        18
390
1D
  0
LAYER
  5
37
100
AcDbSymbolTableRecord
100
AcDbLayerTableRecord
  2
2052 RIEGEL
 70
        64
 62
       230
  6
CONTINUOUS
290
         1
370
        18
390
1D
  0
LAYER
  5
38
100
AcDbSymbolTableRecord
100
AcDbLayerTableRecord
  2
2052 SCHLOSS MIT DORN
 70
        64
 62
         7
  6
CONTINUOUS
290
         1
370
         0
390
1D
  0
LAYER
  5
39
100
AcDbSymbolTableRecord
100
AcDbLayerTableRecord
  2
3301 VERSCHLUSSBALKEN UMGELEGT
 70
        64
 62
       134
  6
DASHED
290
         1
370
        18
390
1D
  0
LAYER
  5
3A
100
AcDbSymbolTableRecord
100
AcDbLayerTableRecord
  2
3301 VERSCHLUSSBALKEN
 70
        64
 62
       134
  6
CONTINUOUS
290
         1
370
        18
390
1D
  0
LAYER
  5
3B
100
AcDbSymbolTableRecord
100
AcDbLayerTableRecord
  2
3301 FAHRSTRAﬂENSCHIEBERANTRIEB VERDREHT
 70
        64
 62
       171
  6
DASHED
290
         1
370
        18
390
1D
  0
LAYER
  5
3C
100
AcDbSymbolTableRecord
100
AcDbLayerTableRecord
  2
3301 FAHRSTRAﬂENSCHIEBERANTRIEB
 70
        64
 62
       171
  6
CONTINUOUS
290
         1
370
        18
390
1D
  0
LAYER
  5
3D
100
AcDbSymbolTableRecord
100
AcDbLayerTableRecord
  2
3301 RAHMEN LƒNGS
 70
        64
 62
         7
  6
CONTINUOUS
290
         1
370
        18
390
1D
  0
LAYER
  5
3E
100
AcDbSymbolTableRecord
100
AcDbLayerTableRecord
  2
3301 VERSCHLUSSST‹CKE VERSCHOBEN
 70
        64
 62
       190
  6
DASHED
290
         1
370
        18
390
1D
  0
LAYER
  5
3F
100
AcDbSymbolTableRecord
100
AcDbLayerTableRecord
  2
3301 VERSCHLUSSST‹CKE
 70
        64
 62
       190
  6
CONTINUOUS
290
         1
370
        18
390
1D
  0
LAYER
  5
40
100
AcDbSymbolTableRecord
100
AcDbLayerTableRecord
  2
3301 RAHMEN QUER
 70
        64
 62
         8
  6
CONTINUOUS
290
         1
370
        18
390
1D
  0
LAYER
  5
41
100
AcDbSymbolTableRecord
100
AcDbLayerTableRecord
  2
3301 ANLENKUNGSLAGER
 70
        64
 62
       252
  6
CONTINUOUS
290
         1
370
        18
390
1D
  0
LAYER
  5
42
100
AcDbSymbolTableRecord
100
AcDbLayerTableRecord
  2
3301 VERSCHLUSSBALKENANLENKUNG UMGELEGT
 70
        64
 62
       230
  6
DASHED
290
         1
370
        18
390
1D
  0
LAYER
  5
43
100
AcDbSymbolTableRecord
100
AcDbLayerTableRecord
  2
3301 VERSCHLUSSBALKENANLENKUNG
 70
        64
 62
       230
  6
CONTINUOUS
290
         1
370
        18
390
1D
  0
LAYER
  5
44
100
AcDbSymbolTableRecord
100
AcDbLayerTableRecord
  2
3301 FAHRSTRAﬂENSCHIEBER
 70
        64
 62
       172
  6
CONTINUOUS
290
         1
370
        18
390
1D
  0
LAYER
  5
45
100
AcDbSymbolTableRecord
100
AcDbLayerTableRecord
  2
3301 GRUPPENVERSCHLUSS UMGELEGT
 70
        64
 62
       234
  6
DASHED
290
         1
370
        18
390
1D
  0
LAYER
  5
46
100
AcDbSymbolTableRecord
100
AcDbLayerTableRecord
  2
3301 GRUPPENVERSCHLUSS
 70
        64
 62
       234
  6
CONTINUOUS
290
         1
370
        18
390
1D
  0
LAYER
  5
47
100
AcDbSymbolTableRecord
100
AcDbLayerTableRecord
  2
3301 VERSCHLUSSREGISTER JE
 70
        64
 62
         7
  6
CONTINUOUS
290
         1
370
         0
390
1D
  0
LAYER
  5
48
100
AcDbSymbolTableRecord
100
AcDbLayerTableRecord
  2
3303 HEBELBOCK
 70
        64
 62
       172
  6
CONTINUOUS
290
         1
370
        18
390
1D
  0
LAYER
  5
49
100
AcDbSymbolTableRecord
100
AcDbLayerTableRecord
  2
3303 HEBELEISEN UMGELEGT
 70
        64
 62
         5
  6
DASHED
290
         1
370
        18
390
1D
  0
LAYER
  5
4A
100
AcDbSymbolTableRecord
100
AcDbLayerTableRecord
  2
3303 HEBELEISEN
 70
        64
 62
         5
  6
CONTINUOUS
290
         1
370
        18
390
1D
  0
LAYER
  5
4B
100
AcDbSymbolTableRecord
100
AcDbLayerTableRecord
  2
3303 HANDFALLE ANGEZOGEN
 70
        64
 62
       134
  6
DIVIDE
290
         1
370
        18
390
1D
  0
LAYER
  5
4C
100
AcDbSymbolTableRecord
100
AcDbLayerTableRecord
  2
3303 HANDFALLE UMGELEGT
 70
        64
 62
       134
  6
DASHED
290
         1
370
        18
390
1D
  0
LAYER
  5
4D
100
AcDbSymbolTableRecord
100
AcDbLayerTableRecord
  2
3302 HANDFALLE
 70
        64
 62
       134
  6
CONTINUOUS
290
         1
370
        18
390
1D
  0
LAYER
  5
4E
100
AcDbSymbolTableRecord
100
AcDbLayerTableRecord
  2
3303 HEBELERSATZSCHLOSS JE
 70
        64
 62
         7
  6
CONTINUOUS
290
         1
370
         0
390
1D
  0
LAYER
  5
4F
100
AcDbSymbolTableRecord
100
AcDbLayerTableRecord
  2
3211 TRƒGER JE
 70
        64
 62
         7
  6
CONTINUOUS
290
         1
370
        18
390
1D
  0
LAYER
  5
50
100
AcDbSymbolTableRecord
100
AcDbLayerTableRecord
  2
3211 STƒNDER JE
 70
        64
 62
         7
  6
CONTINUOUS
290
         1
370
        18
390
1D
  0
LAYER
  5
51
100
AcDbSymbolTableRecord
100
AcDbLayerTableRecord
  2
3211 HEBELBANK JE
 70
        64
 62
         9
  6
CONTINUOUS
290
         1
370
        18
390
1D
  0
LAYER
  5
52
100
AcDbSymbolTableRecord
100
AcDbLayerTableRecord
  2
3304 KLOBEN
 70
        64
 62
       190
  6
CONTINUOUS
290
         1
370
         0
390
1D
  0
LAYER
  5
53
100
AcDbSymbolTableRecord
100
AcDbLayerTableRecord
  2
3201-3204 WINKELHEBEL
 70
        64
 62
       190
  6
CONTINUOUS
290
         1
370
        18
390
1D
  0
LAYER
  5
54
100
AcDbSymbolTableRecord
100
AcDbLayerTableRecord
  2
3201 HEBELBOCK
 70
        64
 62
         7
  6
CONTINUOUS
290
         1
370
        18
390
1D
  0
LAYER
  5
55
100
AcDbSymbolTableRecord
100
AcDbLayerTableRecord
  2
3201 SEILZUG
 70
        64
 62
        94
  6
DASHDOT
290
         1
370
        18
390
1D
  0
LAYER
  5
56
100
AcDbSymbolTableRecord
100
AcDbLayerTableRecord
  2
3201-3204 HEBEL JE
 70
        64
 62
         7
  6
CONTINUOUS
290
         1
370
         0
390
1D
  0
LAYER
  5
57
100
AcDbSymbolTableRecord
100
AcDbLayerTableRecord
  2
2053 SCHILD
 70
        64
 62
        54
  6
CONTINUOUS
290
         1
370
        18
390
1D
  0
LAYER
  5
58
100
AcDbSymbolTableRecord
100
AcDbLayerTableRecord
  2
2053 SCHL‹SSEL
 70
        64
 62
       190
  6
CONTINUOUS
290
         1
370
        18
390
1D
  0
LAYER
  5
59
100
AcDbSymbolTableRecord
100
AcDbLayerTableRecord
  2
2053 SCHL‹SSEL MIT DORN
 70
        64
 62
         7
  6
CONTINUOUS
290
         1
370
         0
390
1D
  0
LAYER
  5
5A
100
AcDbSymbolTableRecord
100
AcDbLayerTableRecord
  2
2001 BODEN
 70
        64
 62
        14
  6
CONTINUOUS
290
         1
370
        18
390
1D
  0
LAYER
  5
5B
100
AcDbSymbolTableRecord
100
AcDbLayerTableRecord
  2
2001 GEBƒUDE
 70
        64
 62
         7
  6
CONTINUOUS
290
         1
370
         0
390
1D
  0
LAYER
  5
5C
100
AcDbSymbolTableRecord
100
AcDbLayerTableRecord
  2
1088 GEHƒUSE
 70
        64
 62
         7
  6
CONTINUOUS
290
         1
370
        18
390
1D
  0
LAYER
  5
5D
100
AcDbSymbolTableRecord
100
AcDbLayerTableRecord
  2
1088 BAUTEIL
 70
        64
 62
         7
  6
CONTINUOUS
290
         1
370
        18
390
1D
  0
LAYER
  5
5E
100
AcDbSymbolTableRecord
100
AcDbLayerTableRecord
  2
3305 HEBELBOCK
 70
        64
 62
         7
  6
CONTINUOUS
290
         1
370
        13
390
1D
  0
LAYER
  5
5F
100
AcDbSymbolTableRecord
100
AcDbLayerTableRecord
  2
3305 HEBELSCHILD
 70
        64
 62
       171
  6
CONTINUOUS
290
         1
370
        18
390
1D
  0
LAYER
  5
60
100
AcDbSymbolTableRecord
100
AcDbLayerTableRecord
  2
3305 HANDFALLE NACH UNTEN UMGELEGT
 70
        64
 62
        30
  6
DASHDOT
290
         1
370
        13
390
1D
  0
LAYER
  5
61
100
AcDbSymbolTableRecord
100
AcDbLayerTableRecord
  2
3305 HANDFALLE ANGEZOGEN
 70
        64
 62
        30
  6
DASHDOT
290
         1
370
        13
390
1D
  0
LAYER
  5
62
100
AcDbSymbolTableRecord
100
AcDbLayerTableRecord
  2
3305 HANDFALLE NACH OBEN UMGELEGT
 70
        64
 62
        30
  6
DASHDOT
290
         1
370
        13
390
1D
  0
LAYER
  5
63
100
AcDbSymbolTableRecord
100
AcDbLayerTableRecord
  2
3305 HANDFALLE
 70
        64
 62
        30
  6
CONTINUOUS
290
         1
370
        13
390
1D
  0
LAYER
  5
64
100
AcDbSymbolTableRecord
100
AcDbLayerTableRecord
  2
3305 HEBEL NACH OBEN UMGELEGT
 70
        64
 62
         5
  6
DASHDOT
290
         1
370
        13
390
1D
  0
LAYER
  5
65
100
AcDbSymbolTableRecord
100
AcDbLayerTableRecord
  2
3305 HEBEL NACH UNTEN UMGELEGT
 70
        64
 62
         5
  6
DASHED
290
         1
370
        13
390
1D
  0
LAYER
  5
66
100
AcDbSymbolTableRecord
100
AcDbLayerTableRecord
  2
3305 HEBEL
 70
        64
 62
         5
  6
CONTINUOUS
290
         1
370
        13
390
1D
  0
LAYER
  5
67
100
AcDbSymbolTableRecord
100
AcDbLayerTableRecord
  2
3305 FAHRSTRAﬂENHEBEL JE
 70
        64
 62
         7
  6
CONTINUOUS
290
         1
370
        13
390
1D
  0
LAYER
  5
68
100
AcDbSymbolTableRecord
100
AcDbLayerTableRecord
  2
KONSTRUKTION
 70
        64
 62
         7
  6
CONTINUOUS
290
         1
370
        18
390
1D
  0
LAYER
  5
69
100
AcDbSymbolTableRecord
100
AcDbLayerTableRecord
  2
MASSLINIEN
 70
        64
 62
       172
  6
CONTINUOUS
290
         1
370
        25
390
1D
  0
LAYER
  5
6A
100
AcDbSymbolTableRecord
100
AcDbLayerTableRecord
  2
TOLERANZEN
 70
        64
 62
       212
  6
CONTINUOUS
290
         1
370
         0
390
1D
  0
LAYER
  5
6B
100
AcDbSymbolTableRecord
100
AcDbLayerTableRecord
  2
MASSGRENZEN
 70
        64
 62
       172
  6
CONTINUOUS
290
         1
370
        25
390
1D
  0
LAYER
  5
6C
100
AcDbSymbolTableRecord
100
AcDbLayerTableRecord
  2
MASSTEXTE
 70
        64
 62
       212
  6
CONTINUOUS
290
         1
370
        25
390
1D
  0
LAYER
  5
6D
100
AcDbSymbolTableRecord
100
AcDbLayerTableRecord
  2
BEMASSUNG
 70
        64
 62
         7
  6
CONTINUOUS
290
         1
370
        25
390
1D
  0
LAYER
  5
6E
100
AcDbSymbolTableRecord
100
AcDbLayerTableRecord
  2
BESCHRIFTUNG
 70
        64
 62
         7
  6
CONTINUOUS
290
         1
370
        25
390
1D
  0
LAYER
  5
6F
100
AcDbSymbolTableRecord
100
AcDbLayerTableRecord
  2
UNSICHTBARE
 70
        64
 62
        92
  6
DASHED
290
         1
370
        25
390
1D
  0
LAYER
  5
70
100
AcDbSymbolTableRecord
100
AcDbLayerTableRecord
  2
HILFSLINIEN
 70
        64
 62
         3
  6
CONTINUOUS
290
         1
370
         0
390
1D
  0
LAYER
  5
71
100
AcDbSymbolTableRecord
100
AcDbLayerTableRecord
  2
3303_5L
 70
        64
 62
        30
  6
CONTINUOUS
290
         1
370
        13
390
1D
  0
LAYER
  5
72
100
AcDbSymbolTableRecord
100
AcDbLayerTableRecord
  2
3303_1P
 70
        64
 62
        30
  6
CONTINUOUS
290
         1
370
        13
390
1D
  0
LAYER
  5
73
100
AcDbSymbolTableRecord
100
AcDbLayerTableRecord
  2
3303_2R
 70
        64
 62
        14
  6
CONTINUOUS
290
         1
370
        13
390
1D
  0
LAYER
  5
74
100
AcDbSymbolTableRecord
100
AcDbLayerTableRecord
  2
3303_2L
 70
        64
 62
        30
  6
CONTINUOUS
290
         1
370
        13
390
1D
  0
LAYER
  5
75
100
AcDbSymbolTableRecord
100
AcDbLayerTableRecord
  2
3303_6L
 70
        64
 62
        30
  6
CONTINUOUS
290
         1
370
        13
390
1D
  0
LAYER
  5
76
100
AcDbSymbolTableRecord
100
AcDbLayerTableRecord
  2
3303_6R
 70
        64
 62
        14
  6
CONTINUOUS
290
         1
370
        13
390
1D
  0
LAYER
  5
77
100
AcDbSymbolTableRecord
100
AcDbLayerTableRecord
  2
3303_4P
 70
        64
 62
        30
  6
CONTINUOUS
290
         1
370
        13
390
1D
  0
LAYER
  5
78
100
AcDbSymbolTableRecord
100
AcDbLayerTableRecord
  2
3303_5R
 70
        64
 62
        14
  6
CONTINUOUS
290
         1
370
        13
390
1D
  0
LAYER
  5
79
100
AcDbSymbolTableRecord
100
AcDbLayerTableRecord
  2
3303___ HEBELERSATZSCHLOSS JE
 70
        64
 62
         6
  6
DASHDOT
290
         1
370
        13
390
1D
  0
LAYER
  5
7A
100
AcDbSymbolTableRecord
100
AcDbLayerTableRecord
  2
1088_1P
 70
        64
 62
        30
  6
CONTINUOUS
290
         1
370
        13
390
1D
  0
LAYER
  5
7B
100
AcDbSymbolTableRecord
100
AcDbLayerTableRecord
  2
1088_1R
 70
        64
 62
        14
  6
CONTINUOUS
290
         1
370
        13
390
1D
  0
LAYER
  5
7C
100
AcDbSymbolTableRecord
100
AcDbLayerTableRecord
  2
1088___ VORLAGEN
 70
        64
 62
       230
  6
CONTINUOUS
290
         1
370
        13
390
1D
  0
LAYER
  5
7D
100
AcDbSymbolTableRecord
100
AcDbLayerTableRecord
  2
3305_1P
 70
        64
 62
        30
  6
CONTINUOUS
290
         1
370
        13
390
1D
  0
LAYER
  5
7E
100
AcDbSymbolTableRecord
100
AcDbLayerTableRecord
  2
3305_2R
 70
        64
 62
        14
  6
CONTINUOUS
290
         1
370
        13
390
1D
  0
LAYER
  5
7F
100
AcDbSymbolTableRecord
100
AcDbLayerTableRecord
  2
3305_8L
 70
        64
 62
        30
  6
CONTINUOUS
290
         1
370
        13
390
1D
  0
LAYER
  5
80
100
AcDbSymbolTableRecord
100
AcDbLayerTableRecord
  2
3305_8R
 70
        64
 62
        14
  6
CONTINUOUS
290
         1
370
        13
390
1D
  0
LAYER
  5
81
100
AcDbSymbolTableRecord
100
AcDbLayerTableRecord
  2
3305_6P
 70
        64
 62
        30
  6
CONTINUOUS
290
         1
370
        13
390
1D
  0
LAYER
  5
82
100
AcDbSymbolTableRecord
100
AcDbLayerTableRecord
  2
3305_2L
 70
        64
 62
        30
  6
CONTINUOUS
290
         1
370
        13
390
1D
  0
LAYER
  5
83
100
AcDbSymbolTableRecord
100
AcDbLayerTableRecord
  2
3305_7L
 70
        64
 62
        30
  6
CONTINUOUS
290
         1
370
        13
390
1D
  0
LAYER
  5
84
100
AcDbSymbolTableRecord
100
AcDbLayerTableRecord
  2
3305_7R
 70
        64
 62
        14
  6
CONTINUOUS
290
         1
370
        13
390
1D
  0
LAYER
  5
85
100
AcDbSymbolTableRecord
100
AcDbLayerTableRecord
  2
3305___ FAHRSTRAﬂENHEBEL JE
 70
        64
 62
         6
  6
DASHDOT
290
         1
370
        13
390
1D
  0
LAYER
  5
86
100
AcDbSymbolTableRecord
100
AcDbLayerTableRecord
  2
3304_1P
 70
        64
 62
        30
  6
CONTINUOUS
290
         1
370
        13
390
1D
  0
LAYER
  5
87
100
AcDbSymbolTableRecord
100
AcDbLayerTableRecord
  2
3304___ KLOBEN
 70
        64
 62
         6
  6
DASHDOT
290
         1
370
         0
390
1D
  0
LAYER
  5
88
100
AcDbSymbolTableRecord
100
AcDbLayerTableRecord
  2
3301_711L # LI_ENDE LANG
 70
        64
 62
        30
  6
CONTINUOUS
290
         1
370
        18
390
1D
  0
LAYER
  5
89
100
AcDbSymbolTableRecord
100
AcDbLayerTableRecord
  2
3301_712L # LI_ENDE KURZ
 70
        64
 62
        30
  6
CONTINUOUS
290
         1
370
        18
390
1D
  0
LAYER
  5
8A
100
AcDbSymbolTableRecord
100
AcDbLayerTableRecord
  2
3301_714L # RE_ENDE KURZ
 70
        64
 62
        30
  6
CONTINUOUS
290
         1
370
        18
390
1D
  0
LAYER
  5
8B
100
AcDbSymbolTableRecord
100
AcDbLayerTableRecord
  2
3301_715L # RE_ENDE LANG
 70
        64
 62
        30
  6
CONTINUOUS
290
         1
370
        18
390
1D
  0
LAYER
  5
8C
100
AcDbSymbolTableRecord
100
AcDbLayerTableRecord
  2
3301_713L # MITTE
 70
        64
 62
        30
  6
CONTINUOUS
290
         1
370
        18
390
1D
  0
LAYER
  5
8D
100
AcDbSymbolTableRecord
100
AcDbLayerTableRecord
  2
3301_71L~A
 70
        64
 62
         5
  6
CONTINUOUS
290
         1
370
         0
390
1D
  0
LAYER
  5
8E
100
AcDbSymbolTableRecord
100
AcDbLayerTableRecord
  2
3301_71L # RAHMENWINKEL VO
 70
        64
 62
        11
  6
CONTINUOUS
290
         1
370
        18
390
1D
  0
LAYER
  5
8F
100
AcDbSymbolTableRecord
100
AcDbLayerTableRecord
  2
3301_711R # LI_ENDE LANG
 70
        64
 62
        14
  6
CONTINUOUS
290
         1
370
        18
390
1D
  0
LAYER
  5
90
100
AcDbSymbolTableRecord
100
AcDbLayerTableRecord
  2
3301_712R # LI_ENDE KURZ
 70
        64
 62
        14
  6
CONTINUOUS
290
         1
370
        18
390
1D
  0
LAYER
  5
91
100
AcDbSymbolTableRecord
100
AcDbLayerTableRecord
  2
3301_713R # MITTE
 70
        64
 62
        14
  6
CONTINUOUS
290
         1
370
        18
390
1D
  0
LAYER
  5
92
100
AcDbSymbolTableRecord
100
AcDbLayerTableRecord
  2
3301_714R # RE_ENDE KURZ
 70
        64
 62
        14
  6
CONTINUOUS
290
         1
370
        18
390
1D
  0
LAYER
  5
93
100
AcDbSymbolTableRecord
100
AcDbLayerTableRecord
  2
3301_715R # RE_ENDE LANG
 70
        64
 62
        14
  6
CONTINUOUS
290
         1
370
        18
390
1D
  0
LAYER
  5
94
100
AcDbSymbolTableRecord
100
AcDbLayerTableRecord
  2
3301_71R~A
 70
        64
 62
         5
  6
CONTINUOUS
290
         1
370
         0
390
1D
  0
LAYER
  5
95
100
AcDbSymbolTableRecord
100
AcDbLayerTableRecord
  2
3301_71R # RAHMENWINKEL VO
 70
        64
 62
        15
  6
CONTINUOUS
290
         1
370
        18
390
1D
  0
LAYER
  5
96
100
AcDbSymbolTableRecord
100
AcDbLayerTableRecord
  2
3301_721P # LI_ENDE LANG
 70
        64
 62
        30
  6
CONTINUOUS
290
         1
370
        18
390
1D
  0
LAYER
  5
97
100
AcDbSymbolTableRecord
100
AcDbLayerTableRecord
  2
3301_722P # LI_ENDE KURZ
 70
        64
 62
        30
  6
CONTINUOUS
290
         1
370
        18
390
1D
  0
LAYER
  5
98
100
AcDbSymbolTableRecord
100
AcDbLayerTableRecord
  2
3301_723P # MITTE
 70
        64
 62
        30
  6
CONTINUOUS
290
         1
370
        18
390
1D
  0
LAYER
  5
99
100
AcDbSymbolTableRecord
100
AcDbLayerTableRecord
  2
3301_724P # RE_ENDE KURZ
 70
        64
 62
        30
  6
CONTINUOUS
290
         1
370
        18
390
1D
  0
LAYER
  5
9A
100
AcDbSymbolTableRecord
100
AcDbLayerTableRecord
  2
3301_725P # RE_ENDE LANG
 70
        64
 62
        30
  6
CONTINUOUS
290
         1
370
        18
390
1D
  0
LAYER
  5
9B
100
AcDbSymbolTableRecord
100
AcDbLayerTableRecord
  2
3301_72P~A
 70
        64
 62
         5
  6
CONTINUOUS
290
         1
370
        18
390
1D
  0
LAYER
  5
9C
100
AcDbSymbolTableRecord
100
AcDbLayerTableRecord
  2
3301_72P # RAHMENWANGE VO
 70
        64
 62
        30
  6
CONTINUOUS
290
         1
370
        18
390
1D
  0
LAYER
  5
9D
100
AcDbSymbolTableRecord
100
AcDbLayerTableRecord
  2
3301_741L # LI_ENDE LANG
 70
        64
 62
        30
  6
CONTINUOUS
290
         1
370
        18
390
1D
  0
LAYER
  5
9E
100
AcDbSymbolTableRecord
100
AcDbLayerTableRecord
  2
3301_742L # LI_ENDE KURZ
 70
        64
 62
        30
  6
CONTINUOUS
290
         1
370
        18
390
1D
  0
LAYER
  5
9F
100
AcDbSymbolTableRecord
100
AcDbLayerTableRecord
  2
3301_743L # MITTE
 70
        64
 62
        30
  6
CONTINUOUS
290
         1
370
        18
390
1D
  0
LAYER
  5
A0
100
AcDbSymbolTableRecord
100
AcDbLayerTableRecord
  2
3301_744L # RE_ENDE KURZ
 70
        64
 62
        30
  6
CONTINUOUS
290
         1
370
        18
390
1D
  0
LAYER
  5
A1
100
AcDbSymbolTableRecord
100
AcDbLayerTableRecord
  2
3301_745L # RE_ENDE LANG
 70
        64
 62
        30
  6
CONTINUOUS
290
         1
370
        18
390
1D
  0
LAYER
  5
A2
100
AcDbSymbolTableRecord
100
AcDbLayerTableRecord
  2
3301_74L~A
 70
        64
 62
         5
  6
CONTINUOUS
290
         1
370
         0
390
1D
  0
LAYER
  5
A3
100
AcDbSymbolTableRecord
100
AcDbLayerTableRecord
  2
3301_74L # RAHMENWINKEL HI
 70
        64
 62
        11
  6
CONTINUOUS
290
         1
370
        18
390
1D
  0
LAYER
  5
A4
100
AcDbSymbolTableRecord
100
AcDbLayerTableRecord
  2
3301_745R # RE_ENDE LANG
 70
        64
 62
        14
  6
CONTINUOUS
290
         1
370
        18
390
1D
  0
LAYER
  5
A5
100
AcDbSymbolTableRecord
100
AcDbLayerTableRecord
  2
3301_744R # RE_ENDE KURZ
 70
        64
 62
        14
  6
CONTINUOUS
290
         1
370
        18
390
1D
  0
LAYER
  5
A6
100
AcDbSymbolTableRecord
100
AcDbLayerTableRecord
  2
3301_741R # LI_ENDE LANG
 70
        64
 62
        14
  6
CONTINUOUS
290
         1
370
        18
390
1D
  0
LAYER
  5
A7
100
AcDbSymbolTableRecord
100
AcDbLayerTableRecord
  2
3301_743R # MITTE
 70
        64
 62
        14
  6
CONTINUOUS
290
         1
370
        18
390
1D
  0
LAYER
  5
A8
100
AcDbSymbolTableRecord
100
AcDbLayerTableRecord
  2
3301_742R # LI_ENDE KURZ
 70
        64
 62
        14
  6
CONTINUOUS
290
         1
370
        18
390
1D
  0
LAYER
  5
A9
100
AcDbSymbolTableRecord
100
AcDbLayerTableRecord
  2
3301_74R~A
 70
        64
 62
         5
  6
CONTINUOUS
290
         1
370
         0
390
1D
  0
LAYER
  5
AA
100
AcDbSymbolTableRecord
100
AcDbLayerTableRecord
  2
3301_74R # RAHMENWINKEL HI
 70
        64
 62
        14
  6
CONTINUOUS
290
         1
370
        18
390
1D
  0
LAYER
  5
AB
100
AcDbSymbolTableRecord
100
AcDbLayerTableRecord
  2
3301_731P # LI_ENDE LANG
 70
        64
 62
        30
  6
CONTINUOUS
290
         1
370
        18
390
1D
  0
LAYER
  5
AC
100
AcDbSymbolTableRecord
100
AcDbLayerTableRecord
  2
3301_732P # LI_ENDE KURZ
 70
        64
 62
        30
  6
CONTINUOUS
290
         1
370
        18
390
1D
  0
LAYER
  5
AD
100
AcDbSymbolTableRecord
100
AcDbLayerTableRecord
  2
3301_733P # MITTE
 70
        64
 62
        30
  6
CONTINUOUS
290
         1
370
        18
390
1D
  0
LAYER
  5
AE
100
AcDbSymbolTableRecord
100
AcDbLayerTableRecord
  2
3301_734P # RE_ENDE KURZ
 70
        64
 62
        30
  6
CONTINUOUS
290
         1
370
        18
390
1D
  0
LAYER
  5
AF
100
AcDbSymbolTableRecord
100
AcDbLayerTableRecord
  2
3301_735P # RE_ENDE LANG
 70
        64
 62
        30
  6
CONTINUOUS
290
         1
370
        18
390
1D
  0
LAYER
  5
B0
100
AcDbSymbolTableRecord
100
AcDbLayerTableRecord
  2
3301_73P~A
 70
        64
 62
         5
  6
CONTINUOUS
290
         1
370
        18
390
1D
  0
LAYER
  5
B1
100
AcDbSymbolTableRecord
100
AcDbLayerTableRecord
  2
3301_73P # RAHMENWANGE HI
 70
        64
 62
        30
  6
CONTINUOUS
290
         1
370
        18
390
1D
  0
LAYER
  5
B2
100
AcDbSymbolTableRecord
100
AcDbLayerTableRecord
  2
3301_76P # FSTRSCHIEBER HI
 70
        64
 62
        30
  6
CONTINUOUS
290
         1
370
        18
390
1D
  0
LAYER
  5
B3
100
AcDbSymbolTableRecord
100
AcDbLayerTableRecord
  2
3301_75P # FSTRSCHIEBER VO
 70
        64
 62
        30
  6
CONTINUOUS
290
         1
370
        18
390
1D
  0
LAYER
  5
B4
100
AcDbSymbolTableRecord
100
AcDbLayerTableRecord
  2
3301_413L # MITTE
 70
        64
 62
        30
  6
CONTINUOUS
290
         1
370
        18
390
1D
  0
LAYER
  5
B5
100
AcDbSymbolTableRecord
100
AcDbLayerTableRecord
  2
3301_41L # RAHMENWINKEL VO
 70
        64
 62
        11
  6
CONTINUOUS
290
         1
370
        18
390
1D
  0
LAYER
  5
B6
100
AcDbSymbolTableRecord
100
AcDbLayerTableRecord
  2
3301_413R # MITTE
 70
        64
 62
        34
  6
CONTINUOUS
290
         1
370
        18
390
1D
  0
LAYER
  5
B7
100
AcDbSymbolTableRecord
100
AcDbLayerTableRecord
  2
3301_41R # RAHMENWINKEL VO
 70
        64
 62
        15
  6
CONTINUOUS
290
         1
370
        18
390
1D
  0
LAYER
  5
B8
100
AcDbSymbolTableRecord
100
AcDbLayerTableRecord
  2
3301_46P # FSTRSCHIEBER HI
 70
        64
 62
        30
  6
CONTINUOUS
290
         1
370
        18
390
1D
  0
LAYER
  5
B9
100
AcDbSymbolTableRecord
100
AcDbLayerTableRecord
  2
3301_433P # MITTE
 70
        64
 62
        30
  6
CONTINUOUS
290
         1
370
        18
390
1D
  0
LAYER
  5
BA
100
AcDbSymbolTableRecord
100
AcDbLayerTableRecord
  2
3301_43P # RAHMENWANGE HI
 70
        64
 62
        30
  6
CONTINUOUS
290
         1
370
        18
390
1D
  0
LAYER
  5
BB
100
AcDbSymbolTableRecord
100
AcDbLayerTableRecord
  2
3301_423P # MITTE
 70
        64
 62
        30
  6
CONTINUOUS
290
         1
370
        18
390
1D
  0
LAYER
  5
BC
100
AcDbSymbolTableRecord
100
AcDbLayerTableRecord
  2
3301_42P # RAHMENWANGE VO
 70
        64
 62
        30
  6
CONTINUOUS
290
         1
370
        18
390
1D
  0
LAYER
  5
BD
100
AcDbSymbolTableRecord
100
AcDbLayerTableRecord
  2
3301_443R # MITTE
 70
        64
 62
        14
  6
CONTINUOUS
290
         1
370
        18
390
1D
  0
LAYER
  5
BE
100
AcDbSymbolTableRecord
100
AcDbLayerTableRecord
  2
3301_44R # RAHMENWINKEL HI
 70
        64
 62
        15
  6
CONTINUOUS
290
         1
370
        18
390
1D
  0
LAYER
  5
BF
100
AcDbSymbolTableRecord
100
AcDbLayerTableRecord
  2
3301_443L # MITTE
 70
        64
 62
        30
  6
CONTINUOUS
290
         1
370
        18
390
1D
  0
LAYER
  5
C0
100
AcDbSymbolTableRecord
100
AcDbLayerTableRecord
  2
3301_44L # RAHMENWINKEL HI
 70
        64
 62
        11
  6
CONTINUOUS
290
         1
370
        18
390
1D
  0
LAYER
  5
C1
100
AcDbSymbolTableRecord
100
AcDbLayerTableRecord
  2
3301_45P # FSTRSCHIEBER VO
 70
        64
 62
        30
  6
CONTINUOUS
290
         1
370
        18
390
1D
  0
LAYER
  5
C2
100
AcDbSymbolTableRecord
100
AcDbLayerTableRecord
  2
3301_10E # GRU_VERSCHL_ANTR LI
 70
        64
 62
        11
  6
CONTINUOUS
290
         1
370
        18
390
1D
  0
LAYER
  5
C3
100
AcDbSymbolTableRecord
100
AcDbLayerTableRecord
  2
3301_10C # VERSCHLST_ SIG FREI LI
 70
        64
 62
        30
  6
CONTINUOUS
290
         1
370
        18
390
1D
  0
LAYER
  5
C4
100
AcDbSymbolTableRecord
100
AcDbLayerTableRecord
  2
3301_10B # VERSCHLST_ W- LI
 70
        64
 62
        30
  6
CONTINUOUS
290
         1
370
        18
390
1D
  0
LAYER
  5
C5
100
AcDbSymbolTableRecord
100
AcDbLayerTableRecord
  2
3301_10D # VERSCHLST_ SIG BEIDE LI
 70
        64
 62
        30
  6
CONTINUOUS
290
         1
370
        18
390
1D
  0
LAYER
  5
C6
100
AcDbSymbolTableRecord
100
AcDbLayerTableRecord
  2
3301_10I # VERSCHLST_ SIG BEIDE RE
 70
        64
 62
        15
  6
CONTINUOUS
290
         1
370
        18
390
1D
  0
LAYER
  5
C7
100
AcDbSymbolTableRecord
100
AcDbLayerTableRecord
  2
3301_10J # GRU_VERSCHL_ANTR RE
 70
        64
 62
        15
  6
CONTINUOUS
290
         1
370
        18
390
1D
  0
LAYER
  5
C8
100
AcDbSymbolTableRecord
100
AcDbLayerTableRecord
  2
3301_10G # VERSCHLST_ W- RE
 70
        64
 62
        15
  6
CONTINUOUS
290
         1
370
        18
390
1D
  0
LAYER
  5
C9
100
AcDbSymbolTableRecord
100
AcDbLayerTableRecord
  2
3301_10F # VERSCHLST_ W+ RE
 70
        64
 62
        15
  6
CONTINUOUS
290
         1
370
        18
390
1D
  0
LAYER
  5
CA
100
AcDbSymbolTableRecord
100
AcDbLayerTableRecord
  2
3301_10H # VERSCHLST_ SIG FREI RE
 70
        64
 62
        15
  6
CONTINUOUS
290
         1
370
        18
390
1D
  0
LAYER
  5
CB
100
AcDbSymbolTableRecord
100
AcDbLayerTableRecord
  2
3301_10A # VERSCHLST_ W+ LI
 70
        64
 62
        30
  6
CONTINUOUS
290
         1
370
        18
390
1D
  0
LAYER
  5
CC
100
AcDbSymbolTableRecord
100
AcDbLayerTableRecord
  2
3301_10T # VERSCHLST_ ANTRIEB UNTEN
 70
        64
 62
        30
  6
CONTINUOUS
290
         1
370
        18
390
1D
  0
LAYER
  5
CD
100
AcDbSymbolTableRecord
100
AcDbLayerTableRecord
  2
3301_10S # VERSCHLST_ F‹HRUNG UNTEN
 70
        64
 62
        30
  6
CONTINUOUS
290
         1
370
        18
390
1D
  0
LAYER
  5
CE
100
AcDbSymbolTableRecord
100
AcDbLayerTableRecord
  2
3301_10R # VERSCHLST_ UNTEN GERADE
 70
        64
 62
        30
  6
CONTINUOUS
290
         1
370
        18
390
1D
  0
LAYER
  5
CF
100
AcDbSymbolTableRecord
100
AcDbLayerTableRecord
  2
3301_10M # VERSCHLST_ LEER LI
 70
        64
 62
        30
  6
CONTINUOUS
290
         1
370
        18
390
1D
  0
LAYER
  5
D0
100
AcDbSymbolTableRecord
100
AcDbLayerTableRecord
  2
3301_10N # VERSCHLST_ LEER RE
 70
        64
 62
        15
  6
CONTINUOUS
290
         1
370
        18
390
1D
  0
LAYER
  5
D1
100
AcDbSymbolTableRecord
100
AcDbLayerTableRecord
  2
3301_10P # VERSCHLUSSST‹CK
 70
        64
 62
        30
  6
CONTINUOUS
290
         1
370
        18
390
1D
  0
LAYER
  5
D2
100
AcDbSymbolTableRecord
100
AcDbLayerTableRecord
  2
3301_32P # FSTRSCHIEBERANTRIEBSWELLE
 70
        64
 62
        30
  6
CONTINUOUS
290
         1
370
        18
390
1D
  0
LAYER
  5
D3
100
AcDbSymbolTableRecord
100
AcDbLayerTableRecord
  2
3301_33Q # VERSCHLUSSBALKEN
 70
        64
 62
        30
  6
CONTINUOUS
290
         1
370
        18
390
1D
  0
LAYER
  5
D4
100
AcDbSymbolTableRecord
100
AcDbLayerTableRecord
  2
3301_33P # VERSCHLUSSBALKEN
 70
        64
 62
        30
  6
CONTINUOUS
290
         1
370
        18
390
1D
  0
LAYER
  5
D5
100
AcDbSymbolTableRecord
100
AcDbLayerTableRecord
  2
3301_31R # SCHIEBERRECHEN
 70
        64
 62
        15
  6
CONTINUOUS
290
         1
370
        18
390
1D
  0
LAYER
  5
D6
100
AcDbSymbolTableRecord
100
AcDbLayerTableRecord
  2
3301_31L # SCHIEBERRECHEN
 70
        64
 62
        11
  6
CONTINUOUS
290
         1
370
        18
390
1D
  0
LAYER
  5
D7
100
AcDbSymbolTableRecord
100
AcDbLayerTableRecord
  2
3301_12S # 4 VERSCHLUSSBALKENWINKEL
 70
        64
 62
        15
  6
CONTINUOUS
290
         1
370
        18
390
1D
  0
LAYER
  5
D8
100
AcDbSymbolTableRecord
100
AcDbLayerTableRecord
  2
3301_12R # VERSCHLUSSBALKENWINKEL
 70
        64
 62
        15
  6
CONTINUOUS
290
         1
370
        18
390
1D
  0
LAYER
  5
D9
100
AcDbSymbolTableRecord
100
AcDbLayerTableRecord
  2
3301_12M # 4 VERSCHLUSSBALKENWINKEL
 70
        64
 62
        11
  6
CONTINUOUS
290
         1
370
        18
390
1D
  0
LAYER
  5
DA
100
AcDbSymbolTableRecord
100
AcDbLayerTableRecord
  2
3301_12L # VERSCHLUSSBALKENWINKEL
 70
        64
 62
        11
  6
CONTINUOUS
290
         1
370
        18
390
1D
  0
LAYER
  5
DB
100
AcDbSymbolTableRecord
100
AcDbLayerTableRecord
  2
3301_13S # 4 FSTRSCHIEBERANTRIEBSST‹CKE
 70
        64
 62
        15
  6
CONTINUOUS
290
         1
370
        18
390
1D
  0
LAYER
  5
DC
100
AcDbSymbolTableRecord
100
AcDbLayerTableRecord
  2
3301_13R # FSTRSCHIEBERANTRIEBSST‹CK
 70
        64
 62
        15
  6
CONTINUOUS
290
         1
370
        18
390
1D
  0
LAYER
  5
DD
100
AcDbSymbolTableRecord
100
AcDbLayerTableRecord
  2
3301_13M # 4 FSTRSCHIEBERANTRIEBSST‹CKE
 70
        64
 62
        11
  6
CONTINUOUS
290
         1
370
        18
390
1D
  0
LAYER
  5
DE
100
AcDbSymbolTableRecord
100
AcDbLayerTableRecord
  2
3301_13L # FSTRSCHIEBERANTRIEBSST‹CK
 70
        64
 62
        11
  6
CONTINUOUS
290
         1
370
        18
390
1D
  0
LAYER
  5
DF
100
AcDbSymbolTableRecord
100
AcDbLayerTableRecord
  2
3301_14S # 4 FSTRSCHIEBERANTRIEBSKURBELN
 70
        64
 62
        15
  6
CONTINUOUS
290
         1
370
        18
390
1D
  0
LAYER
  5
E0
100
AcDbSymbolTableRecord
100
AcDbLayerTableRecord
  2
3301_14R # FSTRSCHIEBERANTRIEBSKURBEL
 70
        64
 62
        15
  6
CONTINUOUS
290
         1
370
        18
390
1D
  0
LAYER
  5
E1
100
AcDbSymbolTableRecord
100
AcDbLayerTableRecord
  2
3301_14M # 4 FSTRSCHIEBERANTRIEBSKURBELN
 70
        64
 62
        11
  6
CONTINUOUS
290
         1
370
        18
390
1D
  0
LAYER
  5
E2
100
AcDbSymbolTableRecord
100
AcDbLayerTableRecord
  2
3301_14L # FSTRSCHIEBERANTRIEBSKURBEL
 70
        64
 62
        11
  6
CONTINUOUS
290
         1
370
        18
390
1D
  0
LAYER
  5
E3
100
AcDbSymbolTableRecord
100
AcDbLayerTableRecord
  2
3301_34P # GRUPPENVERSCHLUSSWELLE
 70
        64
 62
        30
  6
CONTINUOUS
290
         1
370
        18
390
1D
  0
LAYER
  5
E4
100
AcDbSymbolTableRecord
100
AcDbLayerTableRecord
  2
3301_21P # GRUPPENVERSCHLUSSSPERRSCHWINGE
 70
        64
 62
        30
  6
CONTINUOUS
290
         1
370
        18
390
1D
  0
LAYER
  5
E5
100
AcDbSymbolTableRecord
100
AcDbLayerTableRecord
  2
3301_20S # 3 GRUPPENVERSCHLUSSANTRIEBE
 70
        64
 62
        15
  6
CONTINUOUS
290
         1
370
        18
390
1D
  0
LAYER
  5
E6
100
AcDbSymbolTableRecord
100
AcDbLayerTableRecord
  2
3301_20R # GRUPPENVERSCHLUSSANTRIEB
 70
        64
 62
        15
  6
CONTINUOUS
290
         1
370
        18
390
1D
  0
LAYER
  5
E7
100
AcDbSymbolTableRecord
100
AcDbLayerTableRecord
  2
3301_20M # 3 GRUPPENVERSCHLUSSANTRIEBE
 70
        64
 62
        11
  6
CONTINUOUS
290
         1
370
        18
390
1D
  0
LAYER
  5
E8
100
AcDbSymbolTableRecord
100
AcDbLayerTableRecord
  2
3301_20L # GRUPPENVERSCHLUSSANTRIEB
 70
        64
 62
        11
  6
CONTINUOUS
290
         1
370
        18
390
1D
  0
LAYER
  5
E9
100
AcDbSymbolTableRecord
100
AcDbLayerTableRecord
  2
3301_22P # GRUPPENVERSCHLUSSSCHWINGENLAGER
 70
        64
 62
        30
  6
CONTINUOUS
290
         1
370
        18
390
1D
  0
LAYER
  5
EA
100
AcDbSymbolTableRecord
100
AcDbLayerTableRecord
  2
3301_24µ # GRUPPENVERSCHLUSSSCHWINGENR÷LLCHEN
 70
        64
 62
        30
  6
CONTINUOUS
290
         1
370
        18
390
1D
  0
LAYER
  5
EB
100
AcDbSymbolTableRecord
100
AcDbLayerTableRecord
  2
3301___ VERSCHLUSSREGISTER
 70
        64
 62
       230
  6
CONTINUOUS
290
         1
370
         0
390
1D
  0
LAYER
  5
EC
100
AcDbSymbolTableRecord
100
AcDbLayerTableRecord
  2
FRƒSPFADE
 70
        64
 62
        30
  6
CONTINUOUS
290
         1
370
         0
390
1D
  0
LAYER
  5
ED
100
AcDbSymbolTableRecord
100
AcDbLayerTableRecord
  2
BESCHRIFTUNG0
 70
        64
 62
         7
  6
CONTINUOUS
290
         1
370
        25
390
1D
  0
LAYER
  5
EE
100
AcDbSymbolTableRecord
100
AcDbLayerTableRecord
  2
GEWINDELINIEN
 70
        64
 62
       212
  6
CONTINUOUS
290
         1
370
        25
390
1D
  0
LAYER
  5
EF
100
AcDbSymbolTableRecord
100
AcDbLayerTableRecord
  2
STANDARD
 70
        64
 62
         7
  6
CONTINUOUS
290
         1
370
         0
390
1D
  0
ENDTAB
  0
TABLE
  2
STYLE
  5
3
100
AcDbSymbolTable
 70
         3
  0
STYLE
  5
17
100
AcDbSymbolTableRecord
100
AcDbTextStyleTableRecord
  2
Standard
 70
         0
 40
0.0
 41
1.0
 50
0.0
 71
         0
 42
0.0
  3
txt
  4

  0
STYLE
  5
2D
100
AcDbSymbolTableRecord
100
AcDbTextStyleTableRecord
  2
CADdy
 70
         0
 40
0.0
 41
1.0
 50
0.0
 71
         0
 42
3.5
  3
txt.shx
  4

  0
STYLE
  5
2E
100
AcDbSymbolTableRecord
100
AcDbTextStyleTableRecord
  2
Arial
 70
         0
 40
0.0
 41
1.0
 50
0.0
 71
         0
 42
3.5
  3
arial.ttf
  4

1001
ACAD
1000
Arial
1071
       34
  0
ENDTAB
  0
TABLE
  2
VIEW
  5
5
100
AcDbSymbolTable
 70
         0
  0
ENDTAB
  0
TABLE
  2
UCS
  5
6
100
AcDbSymbolTable
 70
         0
  0
ENDTAB
  0
TABLE
  2
APPID
  5
8
100
AcDbSymbolTable
 70
         1
  0
APPID
  5
16
100
AcDbSymbolTableRecord
100
AcDbRegAppTableRecord
  2
ACAD
 70
        64
  0
ENDTAB
  0
TABLE
  2
DIMSTYLE
  5
9
100
AcDbSymbolTable
 70
         1
100
AcDbDimStyleTable
 71
         0
  0
DIMSTYLE
105
18
100
AcDbSymbolTableRecord
100
AcDbDimStyleTableRecord
  2
Standard
 70
         0
  3

  4

 40
1.0
 41
0.18
 42
0.0625
 43
0.38
 44
0.18
 45
0.0
 46
0.0
 47
0.0
 48
0.0
 71
         0
 72
         0
 73
         1
 74
         1
 75
         0
 76
         0
 77
         0
 78
         0
 79
         0
140
0.18
141
0.09
142
0.0
143
25.4
144
1.0
145
0.0
146
1.0
147
0.09
148
0.0
170
         0
171
         2
172
         0
173
         0
174
         0
175
         0
176
         0
177
         0
178
         0
179
         0
271
         4
272
         4
273
         2
274
         2
275
         0
276
         0
277
         2
278
        46
279
         0
280
         0
281
         0
282
         0
283
         1
284
         0
285
         0
286
         0
288
         0
289
         3
340
17
341
0
342
0
343
0
344
0
371
        -2
372
        -2
  0
ENDTAB
  0
TABLE
  2
BLOCK_RECORD
  5
1
100
AcDbSymbolTable
 70
         4
  0
BLOCK_RECORD
  5
A
100
AcDbSymbolTableRecord
100
AcDbBlockTableRecord
  2
*MODEL_SPACE
340
20
  0
BLOCK_RECORD
  5
B
100
AcDbSymbolTableRecord
100
AcDbBlockTableRecord
  2
*PAPER_SPACE
340
21
  0
BLOCK_RECORD
  5
F0
100
AcDbSymbolTableRecord
100
AcDbBlockTableRecord
  2
D399130368
340
0
102
{BLKREFS
331
2C3
102
}
  0
BLOCK_RECORD
  5
FB
100
AcDbSymbolTableRecord
100
AcDbBlockTableRecord
  2
D399130624
340
0
102
{BLKREFS
331
2C4
102
}
  0
BLOCK_RECORD
  5
104
100
AcDbSymbolTableRecord
100
AcDbBlockTableRecord
  2
D399130880
340
0
102
{BLKREFS
331
2C5
102
}
  0
BLOCK_RECORD
  5
10D
100
AcDbSymbolTableRecord
100
AcDbBlockTableRecord
  2
D399219712
340
0
102
{BLKREFS
331
2C6
102
}
  0
ENDTAB
  0
ENDSEC
  0
SECTION
  2
BLOCKS
  0
BLOCK
  5
D
100
AcDbEntity
  8
0
390
0
100
AcDbBlockBegin
  2
*MODEL_SPACE
 70
         0
 10
0.0
 20
0.0
 30
0.0
  3
*MODEL_SPACE
  1

  0
ENDBLK
  5
E
100
AcDbEntity
  8
0
390
0
100
AcDbBlockEnd
  0
BLOCK
  5
F
100
AcDbEntity
 67
         1
  8
0
390
0
100
AcDbBlockBegin
  2
*PAPER_SPACE
 70
         0
 10
0.0
 20
0.0
 30
0.0
  3
*PAPER_SPACE
  1

  0
ENDBLK
  5
10
100
AcDbEntity
 67
         1
  8
0
390
0
100
AcDbBlockEnd
  0
BLOCK
  5
F1
100
AcDbEntity
  8
BEMASSUNG
390
0
100
AcDbBlockBegin
  2
D399130368
 70
         0
 10
0.0
 20
0.0
 30
0.0
  3
D399130368
  1

  0
LINE
  5
F2
100
AcDbEntity
  8
MASSLINIEN
390
0
 62
       172
100
AcDbLine
 10
148.5407400342
 20
20.0
 30
0.0
 11
148.5407400342
 21
12.0000000004
 31
0.0
  0
LINE
  5
F3
100
AcDbEntity
  8
MASSLINIEN
390
0
 62
       172
100
AcDbLine
 10
140.0
 20
20.0
 30
0.0
 11
150.5407400342
 21
20.0
 31
0.0
  0
LINE
  5
F4
100
AcDbEntity
  8
MASSLINIEN
390
0
 62
       172
100
AcDbLine
 10
140.0
 20
12.0000000004
 30
0.0
 11
150.5407400342
 21
12.0000000004
 31
0.0
  0
LINE
  5
F5
100
AcDbEntity
  8
MASSLINIEN
390
0
 62
       172
100
AcDbLine
 10
148.5407400342
 20
20.0
 30
0.0
 11
148.5407400342
 21
28.1445025016
 31
0.0
  0
LINE
  5
F6
100
AcDbEntity
  8
MASSLINIEN
390
0
 62
       172
100
AcDbLine
 10
148.5407400342
 20
12.0000000004
 30
0.0
 11
148.5407400342
 21
5.9613308321
 31
0.0
  0
SOLID
  5
F7
100
AcDbEntity
  8
MASSGRENZEN
390
0
100
AcDbTrace
 10
148.5407400342
 20
20.0
 30
0.0
 11
148.1491614575
 21
22.9743345841
 31
0.0
 12
148.9323186108
 22
22.9743345841
 32
0.0
 13
148.9323186108
 23
22.9743345841
 33
0.0
  0
SOLID
  5
F8
100
AcDbEntity
  8
MASSGRENZEN
390
0
100
AcDbTrace
 10
148.5407400342
 20
12.0000000004
 30
0.0
 11
148.9323186108
 21
9.0256654163
 31
0.0
 12
148.1491614575
 22
9.0256654163
 32
0.0
 13
148.1491614575
 23
9.0256654163
 33
0.0
  0
MTEXT
  5
F9
100
AcDbEntity
  8
MASSTEXTE
390
0
 62
       212
100
AcDbMText
 10
144.9281150342
 20
27.0465858349
 30
0.0
 40
1.9125
 41
0.0
 71
         5
 72
         1
  1
\W1.356636;\A1;8
  7
Arial
 11
0.0
 21
1.0
 31
0.0
 73
         0
 44
0.0
  0
ENDBLK
  5
FA
100
AcDbEntity
  8
0
390
0
100
AcDbBlockEnd
  0
BLOCK
  5
FC
100
AcDbEntity
  8
BEMASSUNG
390
0
100
AcDbBlockBegin
  2
D399130624
 70
         0
 10
0.0
 20
0.0
 30
0.0
  3
D399130624
  1

  0
LINE
  5
FD
100
AcDbEntity
  8
MASSLINIEN
390
0
 62
       172
100
AcDbLine
 10
120.2314574737
 20
70.0
 30
0.0
 11
148.2314574738
 21
70.0
 31
0.0
  0
LINE
  5
FE
100
AcDbEntity
  8
MASSLINIEN
390
0
 62
       172
100
AcDbLine
 10
120.2314574737
 20
175.5961260153
 30
0.0
 11
120.2314574737
 21
68.0
 31
0.0
  0
LINE
  5
FF
100
AcDbEntity
  8
MASSLINIEN
390
0
 62
       172
100
AcDbLine
 10
148.2314574738
 20
175.5961260153
 30
0.0
 11
148.2314574738
 21
68.0
 31
0.0
  0
SOLID
  5
100
100
AcDbEntity
  8
MASSGRENZEN
390
0
100
AcDbTrace
 10
120.2314574737
 20
70.0
 30
0.0
 11
123.2057920579
 21
70.3915785767
 31
0.0
 12
123.2057920579
 22
69.6084214233
 32
0.0
 13
123.2057920579
 23
69.6084214233
 33
0.0
  0
SOLID
  5
101
100
AcDbEntity
  8
MASSGRENZEN
390
0
100
AcDbTrace
 10
148.2314574738
 20
70.0
 30
0.0
 11
145.2571228896
 21
69.6084214233
 31
0.0
 12
145.2571228896
 22
70.3915785767
 32
0.0
 13
145.2571228896
 23
70.3915785767
 33
0.0
  0
MTEXT
  5
102
100
AcDbEntity
  8
MASSTEXTE
390
0
 62
       212
100
AcDbMText
 10
134.2314574737
 20
73.612625
 30
0.0
 40
1.9125
 41
0.0
 71
         5
 72
         1
  1
\W1.356636;\A1;28
  7
Arial
 73
         0
 44
0.0
  0
ENDBLK
  5
103
100
AcDbEntity
  8
0
390
0
100
AcDbBlockEnd
  0
BLOCK
  5
105
100
AcDbEntity
  8
BEMASSUNG
390
0
100
AcDbBlockBegin
  2
D399130880
 70
         0
 10
0.0
 20
0.0
 30
0.0
  3
D399130880
  1

  0
LINE
  5
106
100
AcDbEntity
  8
MASSLINIEN
390
0
 62
       172
100
AcDbLine
 10
173.7314574737
 20
71.0
 30
0.0
 11
233.7314574737
 21
71.0
 31
0.0
  0
LINE
  5
107
100
AcDbEntity
  8
MASSLINIEN
390
0
 62
       172
100
AcDbLine
 10
173.7314574737
 20
175.5961260153
 30
0.0
 11
173.7314574737
 21
69.0
 31
0.0
  0
LINE
  5
108
100
AcDbEntity
  8
MASSLINIEN
390
0
 62
       172
100
AcDbLine
 10
233.7314574737
 20
175.5961260153
 30
0.0
 11
233.7314574737
 21
69.0
 31
0.0
  0
SOLID
  5
109
100
AcDbEntity
  8
MASSGRENZEN
390
0
100
AcDbTrace
 10
173.7314574737
 20
71.0
 30
0.0
 11
176.7057920579
 21
71.3915785767
 31
0.0
 12
176.7057920579
 22
70.6084214233
 32
0.0
 13
176.7057920579
 23
70.6084214233
 33
0.0
  0
SOLID
  5
10A
100
AcDbEntity
  8
MASSGRENZEN
390
0
100
AcDbTrace
 10
233.7314574737
 20
71.0
 30
0.0
 11
230.7571228896
 21
70.6084214233
 31
0.0
 12
230.7571228896
 22
71.3915785767
 32
0.0
 13
230.7571228896
 23
71.3915785767
 33
0.0
  0
MTEXT
  5
10B
100
AcDbEntity
  8
MASSTEXTE
390
0
 62
       212
100
AcDbMText
 10
203.7314574737
 20
74.612625
 30
0.0
 40
1.9125
 41
0.0
 71
         5
 72
         1
  1
\W1.356636;\A1;60
  7
Arial
 73
         0
 44
0.0
  0
ENDBLK
  5
10C
100
AcDbEntity
  8
0
390
0
100
AcDbBlockEnd
  0
BLOCK
  5
10E
100
AcDbEntity
  8
BEMASSUNG
390
0
100
AcDbBlockBegin
  2
D399219712
 70
         0
 10
0.0
 20
0.0
 30
0.0
  3
D399219712
  1

  0
LINE
  5
10F
100
AcDbEntity
  8
MASSLINIEN
390
0
 62
       172
100
AcDbLine
 10
244.0
 20
175.5961260153
 30
0.0
 11
244.0
 21
76.5961260162
 31
0.0
  0
LINE
  5
110
100
AcDbEntity
  8
MASSLINIEN
390
0
 62
       172
100
AcDbLine
 10
233.7314574737
 20
175.5961260153
 30
0.0
 11
246.0
 21
175.5961260153
 31
0.0
  0
LINE
  5
111
100
AcDbEntity
  8
MASSLINIEN
390
0
 62
       172
100
AcDbLine
 10
233.7314574737
 20
76.5961260162
 30
0.0
 11
246.0
 21
76.5961260162
 31
0.0
  0
SOLID
  5
112
100
AcDbEntity
  8
MASSGRENZEN
390
0
100
AcDbTrace
 10
244.0
 20
175.5961260153
 30
0.0
 11
244.3915785767
 21
172.6217914312
 31
0.0
 12
243.6084214233
 22
172.6217914312
 32
0.0
 13
243.6084214233
 23
172.6217914312
 33
0.0
  0
SOLID
  5
113
100
AcDbEntity
  8
MASSGRENZEN
390
0
100
AcDbTrace
 10
244.0
 20
76.5961260162
 30
0.0
 11
243.6084214233
 21
79.5704606004
 31
0.0
 12
244.3915785767
 22
79.5704606004
 32
0.0
 13
244.3915785767
 23
79.5704606004
 33
0.0
  0
MTEXT
  5
114
100
AcDbEntity
  8
MASSTEXTE
390
0
 62
       212
100
AcDbMText
 10
240.387375
 20
126.0961260158
 30
0.0
 40
1.9125
 41
0.0
 71
         5
 72
         1
  1
\W1.356636;\A1;99
  7
Arial
 11
0.0
 21
1.0
 31
0.0
 73
         0
 44
0.0
  0
ENDBLK
  5
115
100
AcDbEntity
  8
0
390
0
100
AcDbBlockEnd
  0
ENDSEC
  0
SECTION
  2
ENTITIES
  0
TEXT
  5
116
100
AcDbEntity
  8
BESCHRIFTUNG
390
0
100
AcDbText
 10
215.3145333333
 20
29.3230888889
 30
0.0
 40
3.3
  1
2026-09-15
 41
1.0318366145
  7
Arial
 11
215.3145333333
 21
32.6230888889
 31
0.0
100
AcDbText
 73
         3
  0
TEXT
  5
117
100
AcDbEntity
  8
BESCHRIFTUNG
390
0
100
AcDbText
 10
215.3145333333
 20
6.9230888889
 30
0.0
 40
3.3
  1
3301 P.7h Verschlussregister JE
 41
1.1437198013
  7
Arial
 11
215.3145333333
 21
10.2230888889
 31
0.0
100
AcDbText
 73
         3
  0
MTEXT
  5
118
100
AcDbEntity
  8
3301_12M # 4 VERSCHLUSSBALKENWINKEL
390
0
  6
DASHDOT
100
AcDbMText
 10
28.0216981903
 20
42.550759375
 30
0.0
 40
1.275
 41
0.0
 71
         5
 72
         1
  1
\W1.017338;>3301.12L\PM15x15x2 T2 O2
  7
Arial
 73
         1
 44
1.0352941176
  0
MTEXT
  5
119
100
AcDbEntity
  8
3301_12M # 4 VERSCHLUSSBALKENWINKEL
390
0
  6
DASHDOT
100
AcDbMText
 10
28.0216981903
 20
31.550759375
 30
0.0
 40
1.275
 41
0.0
 71
         5
 72
         1
  1
\W1.017338;>3301.12L\PM15x15x2 T2 O2
  7
Arial
 73
         1
 44
1.0352941176
  0
MTEXT
  5
11A
100
AcDbEntity
  8
3301_12M # 4 VERSCHLUSSBALKENWINKEL
390
0
  6
DASHDOT
100
AcDbMText
 10
28.0216981903
 20
20.550759375
 30
0.0
 40
1.275
 41
0.0
 71
         5
 72
         1
  1
\W1.017338;>3301.12L\PM15x15x2 T2 O2
  7
Arial
 73
         1
 44
1.0352941176
  0
MTEXT
  5
11B
100
AcDbEntity
  8
3301_12S # 4 VERSCHLUSSBALKENWINKEL
390
0
  6
DASHDOT
100
AcDbMText
 10
43.0216981903
 20
20.550759375
 30
0.0
 40
1.275
 41
0.0
 71
         5
 72
         1
  1
\W1.017370;>3301.12R\PM15x15x2 T2 O2
  7
Arial
 73
         1
 44
1.0352941176
  0
MTEXT
  5
11C
100
AcDbEntity
  8
3301_12S # 4 VERSCHLUSSBALKENWINKEL
390
0
  6
DASHDOT
100
AcDbMText
 10
43.0216981903
 20
31.550759375
 30
0.0
 40
1.275
 41
0.0
 71
         5
 72
         1
  1
\W1.017370;>3301.12R\PM15x15x2 T2 O2
  7
Arial
 73
         1
 44
1.0352941176
  0
MTEXT
  5
11D
100
AcDbEntity
  8
3301_12S # 4 VERSCHLUSSBALKENWINKEL
390
0
  6
DASHDOT
100
AcDbMText
 10
43.0216981903
 20
42.550759375
 30
0.0
 40
1.275
 41
0.0
 71
         5
 72
         1
  1
\W1.017370;>3301.12R\PM15x15x2 T2 O2
  7
Arial
 73
         1
 44
1.0352941176
  0
MTEXT
  5
11E
100
AcDbEntity
  8
3301_13M # 4 FSTRSCHIEBERANTRIEBSST‹CKE
390
0
  6
DASHDOT
100
AcDbMText
 10
76.0
 20
146.050759375
 30
0.0
 40
1.275
 41
0.0
 71
         5
 72
         1
  1
\W1.017338;>3301.13L\PM15x15x2 T2 O2
  7
Arial
 73
         1
 44
1.0352941176
  0
MTEXT
  5
11F
100
AcDbEntity
  8
3301_13S # 4 FSTRSCHIEBERANTRIEBSST‹CKE
390
0
  6
DASHDOT
100
AcDbMText
 10
91.0
 20
146.050759375
 30
0.0
 40
1.275
 41
0.0
 71
         5
 72
         1
  1
\W1.017370;>3301.13R\PM15x15x2 T2 O2
  7
Arial
 73
         1
 44
1.0352941176
  0
MTEXT
  5
120
100
AcDbEntity
  8
3301_12S # 4 VERSCHLUSSBALKENWINKEL
390
0
  6
DASHDOT
100
AcDbMText
 10
43.0216981903
 20
53.550759375
 30
0.0
 40
1.275
 41
0.0
 71
         5
 72
         1
  1
\W1.017370;>3301.12R\PM15x15x2 T2 O2
  7
Arial
 73
         1
 44
1.0352941176
  0
CIRCLE
  5
121
100
AcDbEntity
  8
3301_33P # VERSCHLUSSBALKEN
390
0
100
AcDbCircle
 10
125.2314574737
 20
171.0961260157
 30
0.0
 40
1.25
  0
ARC
  5
122
100
AcDbEntity
  8
3301 VERSCHLUSSBALKENANLENKUNG
390
0
100
AcDbCircle
 10
134.2314574737
 20
156.0961260163
 30
0.0
 40
3.5
100
AcDbArc
 50
179.9999999999
 51
359.9999999999
  0
ARC
  5
123
100
AcDbEntity
  8
3301 RAHMEN QUER
390
0
100
AcDbCircle
 10
36.0
 20
167.5
 30
0.0
 40
1.0
100
AcDbArc
 50
270.0
 51
360.0
  0
ARC
  5
124
100
AcDbEntity
  8
3301 VERSCHLUSSBALKEN
390
0
100
AcDbCircle
 10
143.2314574738
 20
171.0961260157
 30
0.0
 40
3.5
100
AcDbArc
 50
0.0
 51
180.0
  0
ARC
  5
125
100
AcDbEntity
  8
3301 RAHMEN QUER
390
0
100
AcDbCircle
 10
29.0
 20
158.5
 30
0.0
 40
1.0
100
AcDbArc
 50
360.0
 51
450.0
  0
CIRCLE
  5
126
100
AcDbEntity
  8
3301_31R # SCHIEBERRECHEN
390
0
  6
PHANTOM
100
AcDbCircle
 10
39.0
 20
91.0
 30
0.0
 40
1.0
  0
CIRCLE
  5
127
100
AcDbEntity
  8
3301_31R # SCHIEBERRECHEN
390
0
  6
PHANTOM
100
AcDbCircle
 10
39.0
 20
186.0
 30
0.0
 40
0.5
  0
ARC
  5
128
100
AcDbEntity
  8
3301_31R # SCHIEBERRECHEN
390
0
  6
CONTINUOUS
100
AcDbCircle
 10
53.0
 20
174.0
 30
0.0
 40
2.0
100
AcDbArc
 50
270.0
 51
360.0
  0
ARC
  5
129
100
AcDbEntity
  8
3301 RAHMEN QUER
390
0
100
AcDbCircle
 10
26.0
 20
165.5
 30
0.0
 40
1.0
100
AcDbArc
 50
90.0
 51
180.0
  0
ARC
  5
12A
100
AcDbEntity
  8
3301 RAHMEN QUER
390
0
100
AcDbCircle
 10
36.0
 20
109.5
 30
0.0
 40
1.0
100
AcDbArc
 50
0.0
 51
90.0
  0
ARC
  5
12B
100
AcDbEntity
  8
3301_31R # SCHIEBERRECHEN
390
0
  6
CONTINUOUS
100
AcDbCircle
 10
53.0
 20
103.0
 30
0.0
 40
2.0
100
AcDbArc
 50
0.0
 51
90.0
  0
CIRCLE
  5
12C
100
AcDbEntity
  8
3301_31R # SCHIEBERRECHEN
390
0
100
AcDbCircle
 10
43.0
 20
176.0
 30
0.0
 40
1.25
  0
CIRCLE
  5
12D
100
AcDbEntity
  8
3301_31R # SCHIEBERRECHEN
390
0
100
AcDbCircle
 10
50.0
 20
181.0
 30
0.0
 40
1.25
  0
ARC
  5
12E
100
AcDbEntity
  8
3301 RAHMEN QUER
390
0
100
AcDbCircle
 10
32.75
 20
157.25
 30
0.0
 40
1.0
100
AcDbArc
 50
284.4775121859
 51
450.0
  0
CIRCLE
  5
12F
100
AcDbEntity
  8
3301_33P # VERSCHLUSSBALKEN
390
0
100
AcDbCircle
 10
125.2314574737
 20
81.0961260157
 30
0.0
 40
1.25
  0
CIRCLE
  5
130
100
AcDbEntity
  8
3301_31R # SCHIEBERRECHEN
390
0
100
AcDbCircle
 10
50.0
 20
101.0
 30
0.0
 40
1.25
  0
CIRCLE
  5
131
100
AcDbEntity
  8
3301_31R # SCHIEBERRECHEN
390
0
100
AcDbCircle
 10
43.0
 20
96.0
 30
0.0
 40
1.25
  0
ARC
  5
132
100
AcDbEntity
  8
3301 RAHMEN QUER
390
0
100
AcDbCircle
 10
26.0
 20
111.5
 30
0.0
 40
1.0
100
AcDbArc
 50
180.0
 51
270.0
  0
ARC
  5
133
100
AcDbEntity
  8
3301 RAHMEN QUER
390
0
100
AcDbCircle
 10
32.75
 20
124.25
 30
0.0
 40
1.0
100
AcDbArc
 50
284.4775121859
 51
450.0
  0
CIRCLE
  5
134
100
AcDbEntity
  8
3301_12L # VERSCHLUSSBALKENWINKEL
390
0
  6
PHANTOM
100
AcDbCircle
 10
24.0
 20
79.0
 30
0.0
 40
0.5
  0
CIRCLE
  5
135
100
AcDbEntity
  8
3301_12L # VERSCHLUSSBALKENWINKEL
390
0
  6
PHANTOM
100
AcDbCircle
 10
24.0
 20
68.0
 30
0.0
 40
1.0
  0
ARC
  5
136
100
AcDbEntity
  8
3301 RAHMEN QUER
390
0
100
AcDbCircle
 10
32.75
 20
119.75
 30
0.0
 40
1.0
100
AcDbArc
 50
270.0
 51
435.5224878141
  0
ARC
  5
137
100
AcDbEntity
  8
3301 RAHMEN QUER
390
0
100
AcDbCircle
 10
32.75
 20
135.25
 30
0.0
 40
1.0
100
AcDbArc
 50
284.4775121859
 51
450.0
  0
CIRCLE
  5
138
100
AcDbEntity
  8
3301_12R # VERSCHLUSSBALKENWINKEL
390
0
  6
PHANTOM
100
AcDbCircle
 10
39.0
 20
79.0
 30
0.0
 40
0.5
  0
CIRCLE
  5
139
100
AcDbEntity
  8
3301_12R # VERSCHLUSSBALKENWINKEL
390
0
  6
PHANTOM
100
AcDbCircle
 10
39.0
 20
68.0
 30
0.0
 40
1.0
  0
CIRCLE
  5
13A
100
AcDbEntity
  8
3301_12L # VERSCHLUSSBALKENWINKEL
390
0
100
AcDbCircle
 10
28.5
 20
73.5
 30
0.0
 40
1.25
  0
ARC
  5
13B
100
AcDbEntity
  8
3301 RAHMEN QUER
390
0
100
AcDbCircle
 10
32.75
 20
130.75
 30
0.0
 40
1.0
100
AcDbArc
 50
270.0
 51
435.5224878141
  0
ARC
  5
13C
100
AcDbEntity
  8
3301 RAHMEN QUER
390
0
100
AcDbCircle
 10
32.75
 20
146.25
 30
0.0
 40
1.0
100
AcDbArc
 50
284.4775121859
 51
450.0
  0
CIRCLE
  5
13D
100
AcDbEntity
  8
3301_12R # VERSCHLUSSBALKENWINKEL
390
0
100
AcDbCircle
 10
49.0
 20
73.5
 30
0.0
 40
1.5
  0
ARC
  5
13E
100
AcDbEntity
  8
3301 VERSCHLUSSBALKENANLENKUNG
390
0
100
AcDbCircle
 10
134.2314574737
 20
132.0961260163
 30
0.0
 40
3.5
100
AcDbArc
 50
179.9999999999
 51
359.9999999999
  0
ARC
  5
13F
100
AcDbEntity
  8
3301 RAHMEN QUER
390
0
100
AcDbCircle
 10
32.75
 20
141.75
 30
0.0
 40
1.0
100
AcDbArc
 50
270.0
 51
435.5224878141
  0
ARC
  5
140
100
AcDbEntity
  8
3301 VERSCHLUSSBALKEN
390
0
100
AcDbCircle
 10
125.2314574737
 20
171.0961260157
 30
0.0
 40
3.5
100
AcDbArc
 50
0.0
 51
180.0
  0
ARC
  5
141
100
AcDbEntity
  8
3301 VERSCHLUSSBALKENANLENKUNG
390
0
100
AcDbCircle
 10
134.2314574737
 20
147.0961260162
 30
0.0
 40
3.5
100
AcDbArc
 50
359.9999999999
 51
539.9999999999
  0
ARC
  5
142
100
AcDbEntity
  8
3301 RAHMEN QUER
390
0
100
AcDbCircle
 10
29.0
 20
152.0
 30
0.0
 40
1.0
100
AcDbArc
 50
270.0
 51
330.0
  0
ARC
  5
143
100
AcDbEntity
  8
3301 VERSCHLUSSBALKENANLENKUNG
390
0
100
AcDbCircle
 10
134.2314574737
 20
171.0961260162
 30
0.0
 40
3.5
100
AcDbArc
 50
359.9999999999
 51
539.9999999999
  0
CIRCLE
  5
144
100
AcDbEntity
  8
3301_33P # VERSCHLUSSBALKEN
390
0
100
AcDbCircle
 10
143.2314574738
 20
171.0961260157
 30
0.0
 40
1.25
  0
ARC
  5
145
100
AcDbEntity
  8
3301 VERSCHLUSSBALKEN
390
0
100
AcDbCircle
 10
143.2314574738
 20
81.0961260157
 30
0.0
 40
3.5
100
AcDbArc
 50
180.0
 51
360.0
  0
ARC
  5
146
100
AcDbEntity
  8
3301 VERSCHLUSSBALKEN
390
0
100
AcDbCircle
 10
125.2314574737
 20
81.0961260157
 30
0.0
 40
3.5
100
AcDbArc
 50
180.0
 51
360.0
  0
ARC
  5
147
100
AcDbEntity
  8
3301_31L # SCHIEBERRECHEN
390
0
  6
DASHED
100
AcDbCircle
 10
37.0
 20
90.0
 30
0.0
 40
2.2360679775
100
AcDbArc
 50
116.5650511771
 51
386.5650511771
  0
ARC
  5
148
100
AcDbEntity
  8
3301_31L # SCHIEBERRECHEN
390
0
  6
DASHED
100
AcDbCircle
 10
37.1666666667
 20
186.5
 30
0.0
 40
1.9002923752
100
AcDbArc
 50
344.7448812969
 51
592.1250163489
  0
CIRCLE
  5
149
100
AcDbEntity
  8
3301_31L # SCHIEBERRECHEN
390
0
  6
PHANTOM
100
AcDbCircle
 10
24.0
 20
91.0
 30
0.0
 40
1.0
  0
CIRCLE
  5
14A
100
AcDbEntity
  8
3301_31L # SCHIEBERRECHEN
390
0
  6
PHANTOM
100
AcDbCircle
 10
24.0
 20
186.0
 30
0.0
 40
0.5
  0
ARC
  5
14B
100
AcDbEntity
  8
3301_31L # SCHIEBERRECHEN
390
0
100
AcDbCircle
 10
29.8660254038
 20
118.75
 30
0.0
 40
1.0
100
AcDbArc
 50
90.0
 51
165.5224878141
  0
ARC
  5
14C
100
AcDbEntity
  8
3301_31L # SCHIEBERRECHEN
390
0
100
AcDbCircle
 10
29.8660254038
 20
129.75
 30
0.0
 40
1.0
100
AcDbArc
 50
90.0
 51
165.5224878141
  0
ARC
  5
14D
100
AcDbEntity
  8
3301_31L # SCHIEBERRECHEN
390
0
100
AcDbCircle
 10
29.8660254038
 20
140.75
 30
0.0
 40
1.0
100
AcDbArc
 50
90.0
 51
165.5224878141
  0
ARC
  5
14E
100
AcDbEntity
  8
3301_31L # SCHIEBERRECHEN
390
0
100
AcDbCircle
 10
29.8660254038
 20
151.75
 30
0.0
 40
1.0
100
AcDbArc
 50
90.0
 51
165.5224878141
  0
ARC
  5
14F
100
AcDbEntity
  8
3301_31L # SCHIEBERRECHEN
390
0
100
AcDbCircle
 10
26.0
 20
111.5
 30
0.0
 40
2.0
100
AcDbArc
 50
180.0
 51
270.0
  0
ARC
  5
150
100
AcDbEntity
  8
3301_31L # SCHIEBERRECHEN
390
0
100
AcDbCircle
 10
26.0
 20
165.5
 30
0.0
 40
2.0
100
AcDbArc
 50
90.0
 51
180.0
  0
LINE
  5
151
100
AcDbEntity
  8
3301_31L # SCHIEBERRECHEN
390
0
  6
DASHED
100
AcDbLine
 10
32.0
 20
123.75
 30
0.0
 11
32.75
 21
124.25
 31
0.0
  0
LINE
  5
152
100
AcDbEntity
  8
3301_31L # SCHIEBERRECHEN
390
0
  6
DIVIDE
100
AcDbLine
 10
24.0
 20
186.0
 30
0.0
 11
39.0
 21
186.0
 31
0.0
  0
LINE
  5
153
100
AcDbEntity
  8
3301_31L # SCHIEBERRECHEN
390
0
  6
DASHED
100
AcDbLine
 10
32.0
 20
120.25
 30
0.0
 11
32.75
 21
119.75
 31
0.0
  0
LINE
  5
154
100
AcDbEntity
  8
3301_31L # SCHIEBERRECHEN
390
0
100
AcDbLine
 10
29.0
 20
124.25
 30
0.0
 11
32.75
 21
124.25
 31
0.0
  0
LINE
  5
155
100
AcDbEntity
  8
3301_31L # SCHIEBERRECHEN
390
0
100
AcDbLine
 10
29.8660254038
 20
119.75
 30
0.0
 11
32.75
 21
119.75
 31
0.0
  0
LINE
  5
156
100
AcDbEntity
  8
3301_31L # SCHIEBERRECHEN
390
0
100
AcDbLine
 10
29.0
 20
125.5
 30
0.0
 11
29.0
 21
124.25
 31
0.0
  0
LINE
  5
157
100
AcDbEntity
  8
3301_31L # SCHIEBERRECHEN
390
0
100
AcDbLine
 10
29.0
 20
135.25
 30
0.0
 11
32.75
 21
135.25
 31
0.0
  0
LINE
  5
158
100
AcDbEntity
  8
3301_31L # SCHIEBERRECHEN
390
0
  6
DASHED
100
AcDbLine
 10
32.0
 20
131.25
 30
0.0
 11
32.75
 21
130.75
 31
0.0
  0
LINE
  5
159
100
AcDbEntity
  8
3301_31L # SCHIEBERRECHEN
390
0
100
AcDbLine
 10
29.0
 20
136.5
 30
0.0
 11
29.0
 21
135.25
 31
0.0
  0
LINE
  5
15A
100
AcDbEntity
  8
3301_31L # SCHIEBERRECHEN
390
0
100
AcDbLine
 10
29.8660254038
 20
130.75
 30
0.0
 11
32.75
 21
130.75
 31
0.0
  0
LINE
  5
15B
100
AcDbEntity
  8
3301_31L # SCHIEBERRECHEN
390
0
100
AcDbLine
 10
24.0
 20
130.0
 30
0.0
 11
28.8977795672
 21
130.0
 31
0.0
  0
LINE
  5
15C
100
AcDbEntity
  8
3301_31L # SCHIEBERRECHEN
390
0
100
AcDbLine
 10
24.0
 20
119.0
 30
0.0
 11
28.8977795672
 21
119.0
 31
0.0
  0
LINE
  5
15D
100
AcDbEntity
  8
3301_31L # SCHIEBERRECHEN
390
0
100
AcDbLine
 10
32.0
 20
120.25
 30
0.0
 11
32.0
 21
123.75
 31
0.0
  0
LINE
  5
15E
100
AcDbEntity
  8
3301_31L # SCHIEBERRECHEN
390
0
100
AcDbLine
 10
24.0
 20
125.5
 30
0.0
 11
29.0
 21
125.5
 31
0.0
  0
LINE
  5
15F
100
AcDbEntity
  8
3301_31L # SCHIEBERRECHEN
390
0
  6
DASHED
100
AcDbLine
 10
32.0
 20
134.75
 30
0.0
 11
32.75
 21
135.25
 31
0.0
  0
LINE
  5
160
100
AcDbEntity
  8
3301 FAHRSTRAﬂENSCHIEBERANTRIEB
390
0
100
AcDbLine
 10
277.0
 20
167.6
 30
0.0
 11
283.0
 21
167.6
 31
0.0
  0
LINE
  5
161
100
AcDbEntity
  8
3301_31L # SCHIEBERRECHEN
390
0
  6
DASHED
100
AcDbLine
 10
32.0
 20
145.75
 30
0.0
 11
32.75
 21
146.25
 31
0.0
  0
LINE
  5
162
100
AcDbEntity
  8
3301 FAHRSTRAﬂENSCHIEBERANTRIEB
390
0
  6
DASHED
100
AcDbLine
 10
143.5
 20
20.0
 30
0.0
 11
143.5
 21
12.0000000004
 31
0.0
  0
LINE
  5
163
100
AcDbEntity
  8
3301 FAHRSTRAﬂENSCHIEBERANTRIEB
390
0
100
AcDbLine
 10
144.0
 20
20.0
 30
0.0
 11
144.0
 21
12.0000000004
 31
0.0
  0
LINE
  5
164
100
AcDbEntity
  8
3301 FAHRSTRAﬂENSCHIEBERANTRIEB
390
0
100
AcDbLine
 10
140.0
 20
20.0
 30
0.0
 11
140.0
 21
12.0000000004
 31
0.0
  0
LINE
  5
165
100
AcDbEntity
  8
3301 FAHRSTRAﬂENSCHIEBERANTRIEB
390
0
100
AcDbLine
 10
277.0
 20
83.6
 30
0.0
 11
283.0
 21
83.6
 31
0.0
  0
LINE
  5
166
100
AcDbEntity
  8
3301_31L # SCHIEBERRECHEN
390
0
100
AcDbLine
 10
29.0
 20
146.25
 30
0.0
 11
32.75
 21
146.25
 31
0.0
  0
LINE
  5
167
100
AcDbEntity
  8
3301_31L # SCHIEBERRECHEN
390
0
100
AcDbLine
 10
32.0
 20
131.25
 30
0.0
 11
32.0
 21
134.75
 31
0.0
  0
LINE
  5
168
100
AcDbEntity
  8
3301_31L # SCHIEBERRECHEN
390
0
100
AcDbLine
 10
24.0
 20
136.5
 30
0.0
 11
29.0
 21
136.5
 31
0.0
  0
LINE
  5
169
100
AcDbEntity
  8
3301 RAHMEN QUER
390
0
100
AcDbLine
 10
26.0
 20
110.5
 30
0.0
 11
36.0
 21
110.5
 31
0.0
  0
LINE
  5
16A
100
AcDbEntity
  8
3301 FAHRSTRAﬂENSCHIEBERANTRIEB
390
0
100
AcDbLine
 10
277.0
 20
83.6
 30
0.0
 11
277.0
 21
167.6
 31
0.0
  0
LINE
  5
16B
100
AcDbEntity
  8
3301 RAHMEN QUER
390
0
100
AcDbLine
 10
37.0
 20
185.0
 30
0.0
 11
54.0
 21
185.0
 31
0.0
  0
LINE
  5
16C
100
AcDbEntity
  8
3301 VERSCHLUSSBALKENANLENKUNG
390
0
100
AcDbLine
 10
137.7314574737
 20
156.0961260163
 30
0.0
 11
137.7314574738
 21
171.0961260162
 31
0.0
  0
LINE
  5
16D
100
AcDbEntity
  8
3301 VERSCHLUSSBALKENANLENKUNG
390
0
100
AcDbLine
 10
130.7314574738
 20
171.0961260162
 30
0.0
 11
130.7314574737
 21
156.0961260163
 31
0.0
  0
LINE
  5
16E
100
AcDbEntity
  8
3301 FAHRSTRAﬂENSCHIEBERANTRIEB
390
0
100
AcDbLine
 10
283.0
 20
83.6
 30
0.0
 11
283.0
 21
167.6
 31
0.0
  0
LINE
  5
16F
100
AcDbEntity
  8
3301 FAHRSTRAﬂENSCHIEBERANTRIEB
390
0
  6
DASHED
100
AcDbLine
 10
282.0
 20
83.6
 30
0.0
 11
282.0
 21
167.6
 31
0.0
  0
LINE
  5
170
100
AcDbEntity
  8
3301 FAHRSTRAﬂENSCHIEBERANTRIEB
390
0
  6
DASHED
100
AcDbLine
 10
278.0
 20
83.6
 30
0.0
 11
278.0
 21
167.6
 31
0.0
  0
LINE
  5
171
100
AcDbEntity
  8
3301 RAHMEN QUER
390
0
100
AcDbLine
 10
33.0
 20
131.7182458366
 30
0.0
 11
33.0
 21
134.2817541634
 31
0.0
  0
LINE
  5
172
100
AcDbEntity
  8
3301 RAHMEN QUER
390
0
100
AcDbLine
 10
29.8660254038
 20
118.75
 30
0.0
 11
32.75
 21
118.75
 31
0.0
  0
LINE
  5
173
100
AcDbEntity
  8
3301 RAHMEN QUER
390
0
100
AcDbLine
 10
33.0
 20
120.7182458366
 30
0.0
 11
33.0
 21
123.2817541634
 31
0.0
  0
LINE
  5
174
100
AcDbEntity
  8
3301 RAHMEN QUER
390
0
100
AcDbLine
 10
30.0
 20
125.25
 30
0.0
 11
32.75
 21
125.25
 31
0.0
  0
LINE
  5
175
100
AcDbEntity
  8
3301 RAHMEN QUER
390
0
100
AcDbLine
 10
29.8660254038
 20
129.75
 30
0.0
 11
32.75
 21
129.75
 31
0.0
  0
LINE
  5
176
100
AcDbEntity
  8
3301 RAHMEN QUER
390
0
100
AcDbLine
 10
37.0
 20
92.0
 30
0.0
 11
39.0
 21
92.0
 31
0.0
  0
LINE
  5
177
100
AcDbEntity
  8
3301 RAHMEN QUER
390
0
100
AcDbLine
 10
37.0
 20
185.0
 30
0.0
 11
37.0
 21
167.5
 31
0.0
  0
LINE
  5
178
100
AcDbEntity
  8
3301 RAHMEN QUER
390
0
100
AcDbLine
 10
39.0
 20
185.0
 30
0.0
 11
39.0
 21
92.0
 31
0.0
  0
LINE
  5
179
100
AcDbEntity
  8
3301 RAHMEN QUER
390
0
100
AcDbLine
 10
30.0
 20
136.5
 30
0.0
 11
30.0
 21
136.25
 31
0.0
  0
LINE
  5
17A
100
AcDbEntity
  8
3301 RAHMEN QUER
390
0
100
AcDbLine
 10
30.0
 20
147.25
 30
0.0
 11
32.75
 21
147.25
 31
0.0
  0
LINE
  5
17B
100
AcDbEntity
  8
3301 RAHMEN QUER
390
0
100
AcDbLine
 10
29.8660254038
 20
118.5
 30
0.0
 11
29.8660254038
 21
118.75
 31
0.0
  0
LINE
  5
17C
100
AcDbEntity
  8
3301 RAHMEN QUER
390
0
100
AcDbLine
 10
30.0
 20
125.5
 30
0.0
 11
30.0
 21
125.25
 31
0.0
  0
LINE
  5
17D
100
AcDbEntity
  8
3301 RAHMEN QUER
390
0
100
AcDbLine
 10
29.8660254038
 20
129.5
 30
0.0
 11
29.8660254038
 21
129.75
 31
0.0
  0
LINE
  5
17E
100
AcDbEntity
  8
3301 RAHMEN QUER
390
0
100
AcDbLine
 10
33.0
 20
142.7182458366
 30
0.0
 11
33.0
 21
145.2817541634
 31
0.0
  0
LINE
  5
17F
100
AcDbEntity
  8
3301 RAHMEN QUER
390
0
100
AcDbLine
 10
29.8660254038
 20
140.75
 30
0.0
 11
32.75
 21
140.75
 31
0.0
  0
LINE
  5
180
100
AcDbEntity
  8
3301 RAHMEN QUER
390
0
100
AcDbLine
 10
30.0
 20
136.25
 30
0.0
 11
32.75
 21
136.25
 31
0.0
  0
LINE
  5
181
100
AcDbEntity
  8
3301 RAHMEN QUER
390
0
100
AcDbLine
 10
25.0
 20
129.0
 30
0.0
 11
29.0
 21
129.0
 31
0.0
  0
LINE
  5
182
100
AcDbEntity
  8
3301 RAHMEN QUER
390
0
100
AcDbLine
 10
33.0
 20
153.7182458366
 30
0.0
 11
33.0
 21
156.2817541634
 31
0.0
  0
LINE
  5
183
100
AcDbEntity
  8
3301 RAHMEN QUER
390
0
100
AcDbLine
 10
25.0
 20
126.5
 30
0.0
 11
29.0
 21
126.5
 31
0.0
  0
LINE
  5
184
100
AcDbEntity
  8
3301 RAHMEN QUER
390
0
100
AcDbLine
 10
25.0
 20
118.0
 30
0.0
 11
29.0
 21
118.0
 31
0.0
  0
LINE
  5
185
100
AcDbEntity
  8
3301 RAHMEN QUER
390
0
100
AcDbLine
 10
25.0
 20
137.5
 30
0.0
 11
29.0
 21
137.5
 31
0.0
  0
LINE
  5
186
100
AcDbEntity
  8
3301 RAHMEN QUER
390
0
100
AcDbLine
 10
29.8660254038
 20
151.5
 30
0.0
 11
29.8660254038
 21
151.75
 31
0.0
  0
LINE
  5
187
100
AcDbEntity
  8
3301 RAHMEN QUER
390
0
100
AcDbLine
 10
30.0
 20
147.5
 30
0.0
 11
30.0
 21
147.25
 31
0.0
  0
LINE
  5
188
100
AcDbEntity
  8
3301 RAHMEN QUER
390
0
100
AcDbLine
 10
29.8660254038
 20
140.5
 30
0.0
 11
29.8660254038
 21
140.75
 31
0.0
  0
LINE
  5
189
100
AcDbEntity
  8
3301 RAHMEN QUER
390
0
100
AcDbLine
 10
25.0
 20
129.0
 30
0.0
 11
25.0
 21
126.5
 31
0.0
  0
LINE
  5
18A
100
AcDbEntity
  8
3301 RAHMEN QUER
390
0
100
AcDbLine
 10
25.0
 20
151.0
 30
0.0
 11
29.0
 21
151.0
 31
0.0
  0
LINE
  5
18B
100
AcDbEntity
  8
3301 RAHMEN QUER
390
0
100
AcDbLine
 10
25.0
 20
151.0
 30
0.0
 11
25.0
 21
148.5
 31
0.0
  0
LINE
  5
18C
100
AcDbEntity
  8
3301 RAHMEN QUER
390
0
100
AcDbLine
 10
25.0
 20
118.0
 30
0.0
 11
25.0
 21
111.5
 31
0.0
  0
LINE
  5
18D
100
AcDbEntity
  8
3301 RAHMEN QUER
390
0
100
AcDbLine
 10
25.0
 20
140.0
 30
0.0
 11
25.0
 21
137.5
 31
0.0
  0
LINE
  5
18E
100
AcDbEntity
  8
3301 RAHMEN QUER
390
0
100
AcDbLine
 10
29.8660254038
 20
151.75
 30
0.0
 11
32.75
 21
151.75
 31
0.0
  0
LINE
  5
18F
100
AcDbEntity
  8
3301 RAHMEN QUER
390
0
100
AcDbLine
 10
25.0
 20
140.0
 30
0.0
 11
29.0
 21
140.0
 31
0.0
  0
LINE
  5
190
100
AcDbEntity
  8
3301 RAHMEN QUER
390
0
100
AcDbLine
 10
25.0
 20
148.5
 30
0.0
 11
29.0
 21
148.5
 31
0.0
  0
LINE
  5
191
100
AcDbEntity
  8
3301 RAHMEN QUER
390
0
100
AcDbLine
 10
26.0
 20
166.5
 30
0.0
 11
36.0
 21
166.5
 31
0.0
  0
LINE
  5
192
100
AcDbEntity
  8
3301 RAHMEN QUER
390
0
100
AcDbLine
 10
25.0
 20
165.5
 30
0.0
 11
25.0
 21
159.5
 31
0.0
  0
LINE
  5
193
100
AcDbEntity
  8
3301 RAHMEN QUER
390
0
100
AcDbLine
 10
25.0
 20
159.5
 30
0.0
 11
29.0
 21
159.5
 31
0.0
  0
LINE
  5
194
100
AcDbEntity
  8
3301 RAHMEN QUER
390
0
100
AcDbLine
 10
33.0
 20
155.0171351602
 30
0.0
 11
33.0
 21
156.2817541634
 31
0.0
  0
LINE
  5
195
100
AcDbEntity
  8
3301 RAHMEN QUER
390
0
100
AcDbLine
 10
30.0
 20
158.25
 30
0.0
 11
32.75
 21
158.25
 31
0.0
  0
LINE
  5
196
100
AcDbEntity
  8
3301 RAHMEN QUER
390
0
100
AcDbLine
 10
30.0
 20
158.5
 30
0.0
 11
30.0
 21
158.25
 31
0.0
  0
LINE
  5
197
100
AcDbEntity
  8
3301 VERSCHLUSSBALKEN
390
0
100
AcDbLine
 10
128.7314574737
 20
81.0961260157
 30
0.0
 11
128.7314574737
 21
171.0961260157
 31
0.0
  0
LINE
  5
198
100
AcDbEntity
  8
3301 VERSCHLUSSBALKEN
390
0
100
AcDbLine
 10
121.7314574737
 20
81.0961260157
 30
0.0
 11
121.7314574737
 21
171.0961260157
 31
0.0
  0
LINE
  5
199
100
AcDbEntity
  8
3301 RAHMEN QUER
390
0
100
AcDbLine
 10
44.0
 20
173.0
 30
0.0
 11
53.0
 21
173.0
 31
0.0
  0
LINE
  5
19A
100
AcDbEntity
  8
3301 RAHMEN QUER
390
0
100
AcDbLine
 10
54.0
 20
174.0
 30
0.0
 11
54.0
 21
185.0
 31
0.0
  0
LINE
  5
19B
100
AcDbEntity
  8
3301 RAHMEN QUER
390
0
100
AcDbLine
 10
54.0
 20
92.0
 30
0.0
 11
54.0
 21
103.0
 31
0.0
  0
LINE
  5
19C
100
AcDbEntity
  8
3301 RAHMEN QUER
390
0
  6
DASHED
100
AcDbLine
 10
39.0
 20
107.0
 30
0.0
 11
39.0
 21
92.0
 31
0.0
  0
LINE
  5
19D
100
AcDbEntity
  8
3301 RAHMEN QUER
390
0
100
AcDbLine
 10
44.0
 20
104.0
 30
0.0
 11
53.0
 21
104.0
 31
0.0
  0
LINE
  5
19E
100
AcDbEntity
  8
3301 RAHMEN QUER
390
0
100
AcDbLine
 10
39.0
 20
168.0
 30
0.0
 11
39.0
 21
108.0
 31
0.0
  0
LINE
  5
19F
100
AcDbEntity
  8
3301 RAHMEN QUER
390
0
  6
DASHED
100
AcDbLine
 10
39.0
 20
185.0
 30
0.0
 11
39.0
 21
168.0
 31
0.0
  0
LINE
  5
1A0
100
AcDbEntity
  8
3301 RAHMEN QUER
390
0
100
AcDbLine
 10
39.0
 20
92.0
 30
0.0
 11
54.0
 21
92.0
 31
0.0
  0
LINE
  5
1A1
100
AcDbEntity
  8
3301_31L # SCHIEBERRECHEN
390
0
  6
DASHED
100
AcDbLine
 10
32.0
 20
142.25
 30
0.0
 11
32.75
 21
141.75
 31
0.0
  0
LINE
  5
1A2
100
AcDbEntity
  8
3301_31L # SCHIEBERRECHEN
390
0
100
AcDbLine
 10
32.0
 20
142.25
 30
0.0
 11
32.0
 21
145.75
 31
0.0
  0
LINE
  5
1A3
100
AcDbEntity
  8
3301_31L # SCHIEBERRECHEN
390
0
100
AcDbLine
 10
24.0
 20
141.0
 30
0.0
 11
28.8977795672
 21
141.0
 31
0.0
  0
LINE
  5
1A4
100
AcDbEntity
  8
3301_31L # SCHIEBERRECHEN
390
0
100
AcDbLine
 10
29.8660254038
 20
141.75
 30
0.0
 11
32.75
 21
141.75
 31
0.0
  0
LINE
  5
1A5
100
AcDbEntity
  8
3301_31L # SCHIEBERRECHEN
390
0
100
AcDbLine
 10
29.0
 20
147.5
 30
0.0
 11
29.0
 21
146.25
 31
0.0
  0
LINE
  5
1A6
100
AcDbEntity
  8
3301_31L # SCHIEBERRECHEN
390
0
100
AcDbLine
 10
24.0
 20
147.5
 30
0.0
 11
29.0
 21
147.5
 31
0.0
  0
LINE
  5
1A7
100
AcDbEntity
  8
3301_31L # SCHIEBERRECHEN
390
0
  6
DASHED
100
AcDbLine
 10
32.0
 20
153.25
 30
0.0
 11
32.75
 21
152.75
 31
0.0
  0
LINE
  5
1A8
100
AcDbEntity
  8
3301 RAHMEN QUER
390
0
100
AcDbLine
 10
43.0
 20
172.0
 30
0.0
 11
43.0
 21
105.0
 31
0.0
  0
LINE
  5
1A9
100
AcDbEntity
  8
3301 FAHRSTRAﬂENSCHIEBERANTRIEB
390
0
  6
DASHED
100
AcDbLine
 10
140.5
 20
20.0
 30
0.0
 11
140.5
 21
12.0000000004
 31
0.0
  0
CIRCLE
  5
1AA
100
AcDbEntity
  8
UNSICHTBARE
390
0
100
AcDbCircle
 10
49.0
 20
73.5
 30
0.0
 40
2.75
  0
LINE
  5
1AB
100
AcDbEntity
  8
MITTELLINIEN
390
0
100
AcDbLine
 10
56.75
 20
73.5
 30
0.0
 11
41.25
 21
73.5
 31
0.0
  0
LINE
  5
1AC
100
AcDbEntity
  8
MITTELLINIEN
390
0
100
AcDbLine
 10
49.0
 20
81.25
 30
0.0
 11
49.0
 21
65.75
 31
0.0
  0
LINE
  5
1AD
100
AcDbEntity
  8
UNSICHTBARE
390
0
100
AcDbLine
 10
47.3382990642
 20
75.7273863607
 30
0.0
 11
51.1860256657
 21
71.8796597592
 31
0.0
  0
LINE
  5
1AE
100
AcDbEntity
  8
UNSICHTBARE
390
0
100
AcDbLine
 10
46.772613895
 20
75.161700745
 30
0.0
 11
50.6203404965
 21
71.3139741435
 31
0.0
  0
CIRCLE
  5
1AF
100
AcDbEntity
  8
UNSICHTBARE
390
0
100
AcDbCircle
 10
43.0
 20
96.0
 30
0.0
 40
2.75
  0
LINE
  5
1B0
100
AcDbEntity
  8
MITTELLINIEN
390
0
100
AcDbLine
 10
35.25
 20
96.0
 30
0.0
 11
50.75
 21
96.0
 31
0.0
  0
LINE
  5
1B1
100
AcDbEntity
  8
MITTELLINIEN
390
0
100
AcDbLine
 10
43.0
 20
88.25
 30
0.0
 11
43.0
 21
103.75
 31
0.0
  0
LINE
  5
1B2
100
AcDbEntity
  8
UNSICHTBARE
390
0
100
AcDbLine
 10
44.6617009358
 20
93.7726136393
 30
0.0
 11
40.8139743343
 21
97.6203402408
 31
0.0
  0
LINE
  5
1B3
100
AcDbEntity
  8
UNSICHTBARE
390
0
100
AcDbLine
 10
45.227386105
 20
94.338299255
 30
0.0
 11
41.3796595035
 21
98.1860258565
 31
0.0
  0
CIRCLE
  5
1B4
100
AcDbEntity
  8
UNSICHTBARE
390
0
100
AcDbCircle
 10
50.0
 20
101.0
 30
0.0
 40
2.75
  0
LINE
  5
1B5
100
AcDbEntity
  8
MITTELLINIEN
390
0
100
AcDbLine
 10
42.25
 20
101.0
 30
0.0
 11
57.75
 21
101.0
 31
0.0
  0
LINE
  5
1B6
100
AcDbEntity
  8
MITTELLINIEN
390
0
100
AcDbLine
 10
50.0
 20
93.25
 30
0.0
 11
50.0
 21
108.75
 31
0.0
  0
LINE
  5
1B7
100
AcDbEntity
  8
UNSICHTBARE
390
0
100
AcDbLine
 10
51.6617009358
 20
98.7726136393
 30
0.0
 11
47.8139743343
 21
102.6203402408
 31
0.0
  0
LINE
  5
1B8
100
AcDbEntity
  8
UNSICHTBARE
390
0
100
AcDbLine
 10
52.227386105
 20
99.338299255
 30
0.0
 11
48.3796595035
 21
103.1860258565
 31
0.0
  0
CIRCLE
  5
1B9
100
AcDbEntity
  8
UNSICHTBARE
390
0
100
AcDbCircle
 10
43.0
 20
176.0
 30
0.0
 40
2.75
  0
LINE
  5
1BA
100
AcDbEntity
  8
MITTELLINIEN
390
0
100
AcDbLine
 10
35.25
 20
176.0
 30
0.0
 11
50.75
 21
176.0
 31
0.0
  0
LINE
  5
1BB
100
AcDbEntity
  8
MITTELLINIEN
390
0
100
AcDbLine
 10
43.0
 20
168.25
 30
0.0
 11
43.0
 21
183.75
 31
0.0
  0
LINE
  5
1BC
100
AcDbEntity
  8
UNSICHTBARE
390
0
100
AcDbLine
 10
44.6617009358
 20
173.7726136393
 30
0.0
 11
40.8139743343
 21
177.6203402408
 31
0.0
  0
LINE
  5
1BD
100
AcDbEntity
  8
UNSICHTBARE
390
0
100
AcDbLine
 10
45.227386105
 20
174.338299255
 30
0.0
 11
41.3796595035
 21
178.1860258565
 31
0.0
  0
CIRCLE
  5
1BE
100
AcDbEntity
  8
UNSICHTBARE
390
0
100
AcDbCircle
 10
50.0
 20
181.0
 30
0.0
 40
2.75
  0
LINE
  5
1BF
100
AcDbEntity
  8
MITTELLINIEN
390
0
100
AcDbLine
 10
42.25
 20
181.0
 30
0.0
 11
57.75
 21
181.0
 31
0.0
  0
LINE
  5
1C0
100
AcDbEntity
  8
MITTELLINIEN
390
0
100
AcDbLine
 10
50.0
 20
173.25
 30
0.0
 11
50.0
 21
188.75
 31
0.0
  0
LINE
  5
1C1
100
AcDbEntity
  8
UNSICHTBARE
390
0
100
AcDbLine
 10
51.6617009358
 20
178.7726136393
 30
0.0
 11
47.8139743343
 21
182.6203402408
 31
0.0
  0
LINE
  5
1C2
100
AcDbEntity
  8
UNSICHTBARE
390
0
100
AcDbLine
 10
52.227386105
 20
179.338299255
 30
0.0
 11
48.3796595035
 21
183.1860258565
 31
0.0
  0
CIRCLE
  5
1C3
100
AcDbEntity
  8
UNSICHTBARE
390
0
100
AcDbCircle
 10
28.5
 20
73.5
 30
0.0
 40
2.75
  0
LINE
  5
1C4
100
AcDbEntity
  8
MITTELLINIEN
390
0
100
AcDbLine
 10
36.25
 20
73.5
 30
0.0
 11
20.75
 21
73.5
 31
0.0
  0
LINE
  5
1C5
100
AcDbEntity
  8
MITTELLINIEN
390
0
100
AcDbLine
 10
28.5
 20
81.25
 30
0.0
 11
28.5
 21
65.75
 31
0.0
  0
LINE
  5
1C6
100
AcDbEntity
  8
UNSICHTBARE
390
0
100
AcDbLine
 10
26.8382990642
 20
75.7273863607
 30
0.0
 11
30.6860256657
 21
71.8796597592
 31
0.0
  0
LINE
  5
1C7
100
AcDbEntity
  8
UNSICHTBARE
390
0
100
AcDbLine
 10
26.272613895
 20
75.161700745
 30
0.0
 11
30.1203404965
 21
71.3139741435
 31
0.0
  0
LINE
  5
1C8
100
AcDbEntity
  8
3301_31L # SCHIEBERRECHEN
390
0
  6
DIVIDE
100
AcDbLine
 10
39.0
 20
91.0
 30
0.0
 11
24.0
 21
91.0
 31
0.0
  0
LINE
  5
1C9
100
AcDbEntity
  8
3301_31R # SCHIEBERRECHEN
390
0
100
AcDbLine
 10
44.0
 20
172.0
 30
0.0
 11
44.0
 21
105.0
 31
0.0
  0
LINE
  5
1CA
100
AcDbEntity
  8
3301_31R # SCHIEBERRECHEN
390
0
  6
DIVIDE
100
AcDbLine
 10
44.0
 20
172.0
 30
0.0
 11
53.0
 21
172.0
 31
0.0
  0
LINE
  5
1CB
100
AcDbEntity
  8
3301_31R # SCHIEBERRECHEN
390
0
  6
DIVIDE
100
AcDbLine
 10
44.0
 20
105.0
 30
0.0
 11
53.0
 21
105.0
 31
0.0
  0
LINE
  5
1CC
100
AcDbEntity
  8
3301_31R # SCHIEBERRECHEN
390
0
  6
DIVIDE
100
AcDbLine
 10
39.0
 20
186.0
 30
0.0
 11
54.0
 21
186.0
 31
0.0
  0
LINE
  5
1CD
100
AcDbEntity
  8
3301_31R # SCHIEBERRECHEN
390
0
  6
DIVIDE
100
AcDbLine
 10
39.0
 20
91.0
 30
0.0
 11
54.0
 21
91.0
 31
0.0
  0
LINE
  5
1CE
100
AcDbEntity
  8
3301_31R # SCHIEBERRECHEN
390
0
  6
DASHED
100
AcDbLine
 10
55.0
 20
174.0
 30
0.0
 11
43.0
 21
176.0
 31
0.0
  0
LINE
  5
1CF
100
AcDbEntity
  8
3301_31R # SCHIEBERRECHEN
390
0
  6
DASHED
100
AcDbLine
 10
43.0
 20
176.0
 30
0.0
 11
50.0
 21
181.0
 31
0.0
  0
LINE
  5
1D0
100
AcDbEntity
  8
3301_31R # SCHIEBERRECHEN
390
0
  6
DASHED
100
AcDbLine
 10
50.0
 20
181.0
 30
0.0
 11
54.0
 21
186.0
 31
0.0
  0
LINE
  5
1D1
100
AcDbEntity
  8
3301_31R # SCHIEBERRECHEN
390
0
  6
DASHED
100
AcDbLine
 10
54.0
 20
91.0
 30
0.0
 11
43.0
 21
96.0
 31
0.0
  0
LINE
  5
1D2
100
AcDbEntity
  8
3301_31R # SCHIEBERRECHEN
390
0
  6
DASHED
100
AcDbLine
 10
43.0
 20
96.0
 30
0.0
 11
50.0
 21
101.0
 31
0.0
  0
LINE
  5
1D3
100
AcDbEntity
  8
3301_31R # SCHIEBERRECHEN
390
0
  6
DASHED
100
AcDbLine
 10
50.0
 20
101.0
 30
0.0
 11
55.0
 21
103.0
 31
0.0
  0
LINE
  5
1D4
100
AcDbEntity
  8
3301 ANLENKUNGSLAGER
390
0
100
AcDbLine
 10
39.0
 20
69.0
 30
0.0
 11
39.0
 21
78.0
 31
0.0
  0
LINE
  5
1D5
100
AcDbEntity
  8
3301 ANLENKUNGSLAGER
390
0
  6
DASHED
100
AcDbLine
 10
41.0
 20
69.0
 30
0.0
 11
41.0
 21
78.0
 31
0.0
  0
LINE
  5
1D6
100
AcDbEntity
  8
3301 ANLENKUNGSLAGER
390
0
100
AcDbLine
 10
54.0
 20
74.0
 30
0.0
 11
50.0
 21
78.0
 31
0.0
  0
LINE
  5
1D7
100
AcDbEntity
  8
3301 ANLENKUNGSLAGER
390
0
100
AcDbLine
 10
50.0
 20
78.0
 30
0.0
 11
39.0
 21
78.0
 31
0.0
  0
LINE
  5
1D8
100
AcDbEntity
  8
3301 ANLENKUNGSLAGER
390
0
100
AcDbLine
 10
54.0
 20
69.0
 30
0.0
 11
54.0
 21
74.0
 31
0.0
  0
LINE
  5
1D9
100
AcDbEntity
  8
3301 ANLENKUNGSLAGER
390
0
  6
DASHED
100
AcDbLine
 10
37.0
 20
78.0
 30
0.0
 11
37.0
 21
69.0
 31
0.0
  0
LINE
  5
1DA
100
AcDbEntity
  8
3301 ANLENKUNGSLAGER
390
0
100
AcDbLine
 10
24.0
 20
78.0
 30
0.0
 11
39.0
 21
78.0
 31
0.0
  0
LINE
  5
1DB
100
AcDbEntity
  8
3301 ANLENKUNGSLAGER
390
0
100
AcDbLine
 10
24.0
 20
69.0
 30
0.0
 11
39.0
 21
69.0
 31
0.0
  0
LINE
  5
1DC
100
AcDbEntity
  8
3301 ANLENKUNGSLAGER
390
0
100
AcDbLine
 10
24.0
 20
69.0
 30
0.0
 11
24.0
 21
78.0
 31
0.0
  0
LINE
  5
1DD
100
AcDbEntity
  8
3301 ANLENKUNGSLAGER
390
0
100
AcDbLine
 10
54.0
 20
69.0
 30
0.0
 11
39.0
 21
69.0
 31
0.0
  0
LINE
  5
1DE
100
AcDbEntity
  8
3301_12L # VERSCHLUSSBALKENWINKEL
390
0
  6
DIVIDE
100
AcDbLine
 10
24.0
 20
79.0
 30
0.0
 11
39.0
 21
79.0
 31
0.0
  0
LINE
  5
1DF
100
AcDbEntity
  8
3301_12L # VERSCHLUSSBALKENWINKEL
390
0
  6
DIVIDE
100
AcDbLine
 10
39.0
 20
68.0
 30
0.0
 11
24.0
 21
68.0
 31
0.0
  0
LINE
  5
1E0
100
AcDbEntity
  8
3301_12L # VERSCHLUSSBALKENWINKEL
390
0
  6
DASHED
100
AcDbLine
 10
39.0
 20
79.0
 30
0.0
 11
28.5
 21
73.5
 31
0.0
  0
LINE
  5
1E1
100
AcDbEntity
  8
3301_12L # VERSCHLUSSBALKENWINKEL
390
0
  6
DASHED
100
AcDbLine
 10
28.5
 20
73.5
 30
0.0
 11
39.0
 21
68.0
 31
0.0
  0
LINE
  5
1E2
100
AcDbEntity
  8
3301_12R # VERSCHLUSSBALKENWINKEL
390
0
  6
DIVIDE
100
AcDbLine
 10
39.0
 20
79.0
 30
0.0
 11
50.4142135624
 21
79.0
 31
0.0
  0
LINE
  5
1E3
100
AcDbEntity
  8
3301_12R # VERSCHLUSSBALKENWINKEL
390
0
  6
DIVIDE
100
AcDbLine
 10
39.0
 20
68.0
 30
0.0
 11
54.0
 21
68.0
 31
0.0
  0
LINE
  5
1E4
100
AcDbEntity
  8
3301_12R # VERSCHLUSSBALKENWINKEL
390
0
100
AcDbLine
 10
54.7071067812
 20
74.7071067812
 30
0.0
 11
50.4142135624
 21
79.0
 31
0.0
  0
LINE
  5
1E5
100
AcDbEntity
  8
3301_12R # VERSCHLUSSBALKENWINKEL
390
0
  6
DASHED
100
AcDbLine
 10
54.7071067812
 20
74.7071067812
 30
0.0
 11
49.0
 21
73.5
 31
0.0
  0
LINE
  5
1E6
100
AcDbEntity
  8
3301_12R # VERSCHLUSSBALKENWINKEL
390
0
  6
DASHED
100
AcDbLine
 10
49.0
 20
73.5
 30
0.0
 11
54.0
 21
68.0
 31
0.0
  0
LINE
  5
1E7
100
AcDbEntity
  8
3301 VERSCHLUSSBALKENANLENKUNG
390
0
100
AcDbLine
 10
130.7314574738
 20
147.0961260162
 30
0.0
 11
130.7314574737
 21
132.0961260163
 31
0.0
  0
LINE
  5
1E8
100
AcDbEntity
  8
3301 VERSCHLUSSBALKENANLENKUNG
390
0
100
AcDbLine
 10
137.7314574737
 20
132.0961260163
 30
0.0
 11
137.7314574738
 21
147.0961260162
 31
0.0
  0
LINE
  5
1E9
100
AcDbEntity
  8
3301 VERSCHLUSSBALKEN
390
0
100
AcDbLine
 10
146.7314574738
 20
81.0961260157
 30
0.0
 11
146.7314574738
 21
171.0961260157
 31
0.0
  0
LINE
  5
1EA
100
AcDbEntity
  8
3301 VERSCHLUSSBALKEN
390
0
100
AcDbLine
 10
139.7314574738
 20
81.0961260157
 30
0.0
 11
139.7314574738
 21
171.0961260157
 31
0.0
  0
LINE
  5
1EB
100
AcDbEntity
  8
3301 VERSCHLUSSBALKENANLENKUNG
390
0
100
AcDbLine
 10
130.7314574738
 20
120.0961260162
 30
0.0
 11
130.7314574737
 21
105.0961260162
 31
0.0
  0
LINE
  5
1EC
100
AcDbEntity
  8
3301 VERSCHLUSSBALKENANLENKUNG
390
0
100
AcDbLine
 10
137.7314574737
 20
105.0961260162
 30
0.0
 11
137.7314574738
 21
120.0961260162
 31
0.0
  0
LINE
  5
1ED
100
AcDbEntity
  8
3301 VERSCHLUSSBALKENANLENKUNG
390
0
100
AcDbLine
 10
137.7314574737
 20
81.0961260162
 30
0.0
 11
137.7314574738
 21
96.0961260162
 31
0.0
  0
LINE
  5
1EE
100
AcDbEntity
  8
3301 VERSCHLUSSBALKENANLENKUNG
390
0
100
AcDbLine
 10
130.7314574738
 20
96.0961260162
 30
0.0
 11
130.7314574737
 21
81.0961260162
 31
0.0
  0
LINE
  5
1EF
100
AcDbEntity
  8
3301_33P # VERSCHLUSSBALKEN
390
0
100
AcDbLine
 10
120.7314574737
 20
171.0961260157
 30
0.0
 11
120.7314574737
 21
81.0961260157
 31
0.0
  0
LINE
  5
1F0
100
AcDbEntity
  8
3301_33P # VERSCHLUSSBALKEN
390
0
100
AcDbLine
 10
147.7314574738
 20
171.0961260157
 30
0.0
 11
147.7314574738
 21
81.0961260157
 31
0.0
  0
LINE
  5
1F1
100
AcDbEntity
  8
3301_33P # VERSCHLUSSBALKEN
390
0
  6
BORDER
100
AcDbLine
 10
129.7314574737
 20
147.0961260162
 30
0.0
 11
129.7314574737
 21
132.0961260163
 31
0.0
  0
LINE
  5
1F2
100
AcDbEntity
  8
3301_33P # VERSCHLUSSBALKEN
390
0
  6
BORDER
100
AcDbLine
 10
138.7314574737
 20
156.0961260163
 30
0.0
 11
138.7314574737
 21
168.0961260157
 31
0.0
  0
LINE
  5
1F3
100
AcDbEntity
  8
3301_33P # VERSCHLUSSBALKEN
390
0
  6
BORDER
100
AcDbLine
 10
138.7314574737
 20
147.0961260162
 30
0.0
 11
138.7314574737
 21
132.0961260163
 31
0.0
  0
LINE
  5
1F4
100
AcDbEntity
  8
3301_33P # VERSCHLUSSBALKEN
390
0
  6
BORDER
100
AcDbLine
 10
129.7314574737
 20
120.0961260162
 30
0.0
 11
129.7314574737
 21
105.0961260162
 31
0.0
  0
LINE
  5
1F5
100
AcDbEntity
  8
3301_33P # VERSCHLUSSBALKEN
390
0
  6
BORDER
100
AcDbLine
 10
138.7314574737
 20
120.0961260162
 30
0.0
 11
138.7314574737
 21
105.0961260162
 31
0.0
  0
LINE
  5
1F6
100
AcDbEntity
  8
3301_33P # VERSCHLUSSBALKEN
390
0
  6
BORDER
100
AcDbLine
 10
129.7314574737
 20
96.0961260162
 30
0.0
 11
129.7314574737
 21
84.0961260157
 31
0.0
  0
LINE
  5
1F7
100
AcDbEntity
  8
3301_33P # VERSCHLUSSBALKEN
390
0
  6
BORDER
100
AcDbLine
 10
138.7314574737
 20
96.0961260162
 30
0.0
 11
138.7314574737
 21
84.0961260157
 31
0.0
  0
LINE
  5
1F8
100
AcDbEntity
  8
3301_33P # VERSCHLUSSBALKEN
390
0
  6
DASHED
100
AcDbLine
 10
120.2314574737
 20
175.5961260153
 30
0.0
 11
125.2314574737
 21
171.0961260157
 31
0.0
  0
LINE
  5
1F9
100
AcDbEntity
  8
3301_33P # VERSCHLUSSBALKEN
390
0
  6
DASHED
100
AcDbLine
 10
125.2314574737
 20
171.0961260157
 30
0.0
 11
134.2314574737
 21
171.0961260162
 31
0.0
  0
LINE
  5
1FA
100
AcDbEntity
  8
3301_33P # VERSCHLUSSBALKEN
390
0
  6
DASHED
100
AcDbLine
 10
143.2314574738
 20
171.0961260157
 30
0.0
 11
134.2314574737
 21
156.0961260163
 31
0.0
  0
LINE
  5
1FB
100
AcDbEntity
  8
3301_33P # VERSCHLUSSBALKEN
390
0
  6
DASHED
100
AcDbLine
 10
134.2314574737
 20
156.0961260163
 30
0.0
 11
134.2314574737
 21
147.0961260162
 31
0.0
  0
LINE
  5
1FC
100
AcDbEntity
  8
3301_33P # VERSCHLUSSBALKEN
390
0
  6
DASHED
100
AcDbLine
 10
134.2314574737
 20
132.0961260163
 30
0.0
 11
134.2314574737
 21
120.0961260162
 31
0.0
  0
LINE
  5
1FD
100
AcDbEntity
  8
3301_33P # VERSCHLUSSBALKEN
390
0
  6
DASHED
100
AcDbLine
 10
134.2314574737
 20
105.0961260162
 30
0.0
 11
134.2314574737
 21
96.0961260162
 31
0.0
  0
LINE
  5
1FE
100
AcDbEntity
  8
3301_33P # VERSCHLUSSBALKEN
390
0
  6
DASHED
100
AcDbLine
 10
134.2314574737
 20
96.0961260162
 30
0.0
 11
143.2314574737
 21
81.0961260162
 31
0.0
  0
LINE
  5
1FF
100
AcDbEntity
  8
3301_33P # VERSCHLUSSBALKEN
390
0
  6
DASHED
100
AcDbLine
 10
143.2314574738
 20
81.0961260157
 30
0.0
 11
134.2314574737
 21
81.0961260162
 31
0.0
  0
LINE
  5
200
100
AcDbEntity
  8
3301_33P # VERSCHLUSSBALKEN
390
0
100
AcDbLine
 10
129.7314574737
 20
149.0961260162
 30
0.0
 11
129.7314574737
 21
168.0961260157
 31
0.0
  0
LINE
  5
201
100
AcDbEntity
  8
3301_33P # VERSCHLUSSBALKEN
390
0
100
AcDbLine
 10
129.7314574737
 20
132.0961260163
 30
0.0
 11
129.7314574737
 21
122.0961260162
 31
0.0
  0
LINE
  5
202
100
AcDbEntity
  8
3301_33P # VERSCHLUSSBALKEN
390
0
100
AcDbLine
 10
129.7314574737
 20
105.0961260162
 30
0.0
 11
129.7314574737
 21
98.0961260162
 31
0.0
  0
LINE
  5
203
100
AcDbEntity
  8
3301_33P # VERSCHLUSSBALKEN
390
0
  6
DASHED
100
AcDbLine
 10
129.7314574737
 20
168.0961260157
 30
0.0
 11
138.7314574737
 21
168.0961260157
 31
0.0
  0
LINE
  5
204
100
AcDbEntity
  8
3301_33P # VERSCHLUSSBALKEN
390
0
100
AcDbLine
 10
138.7314574737
 20
154.0961260163
 30
0.0
 11
138.7314574738
 21
149.0961260162
 31
0.0
  0
LINE
  5
205
100
AcDbEntity
  8
3301_33P # VERSCHLUSSBALKEN
390
0
100
AcDbLine
 10
138.7314574738
 20
130.0961260162
 30
0.0
 11
138.7314574738
 21
122.0961260162
 31
0.0
  0
LINE
  5
206
100
AcDbEntity
  8
3301_33P # VERSCHLUSSBALKEN
390
0
100
AcDbLine
 10
138.7314574737
 20
103.0961260162
 30
0.0
 11
138.7314574738
 21
98.0961260162
 31
0.0
  0
LINE
  5
207
100
AcDbEntity
  8
3301_33Q # VERSCHLUSSBALKEN
390
0
  6
DASHED
100
AcDbLine
 10
173.7314574737
 20
76.5961260162
 30
0.0
 11
233.7314574737
 21
175.5961260153
 31
0.0
  0
LINE
  5
208
100
AcDbEntity
  8
3301_33Q # VERSCHLUSSBALKEN
390
0
  6
DASHED
100
AcDbLine
 10
233.7314574737
 20
76.5961260162
 30
0.0
 11
173.7314574737
 21
76.5961260162
 31
0.0
  0
LINE
  5
209
100
AcDbEntity
  8
3301 FAHRSTRAﬂENSCHIEBERANTRIEB
390
0
100
AcDbLine
 10
102.0
 20
75.5
 30
0.0
 11
102.0
 21
85.5
 31
0.0
  0
LINE
  5
20A
100
AcDbEntity
  8
3301 FAHRSTRAﬂENSCHIEBERANTRIEB
390
0
100
AcDbLine
 10
102.0
 20
85.5
 30
0.0
 11
87.0
 21
85.5
 31
0.0
  0
LINE
  5
20B
100
AcDbEntity
  8
3301 FAHRSTRAﬂENSCHIEBERANTRIEB
390
0
100
AcDbLine
 10
87.0
 20
85.5
 30
0.0
 11
87.0
 21
75.5
 31
0.0
  0
LINE
  5
20C
100
AcDbEntity
  8
3301 FAHRSTRAﬂENSCHIEBERANTRIEB
390
0
100
AcDbLine
 10
87.0
 20
75.5
 30
0.0
 11
102.0
 21
75.5
 31
0.0
  0
LINE
  5
20D
100
AcDbEntity
  8
3301 FAHRSTRAﬂENSCHIEBERANTRIEB
390
0
  6
DASHED
100
AcDbLine
 10
88.0
 20
85.5
 30
0.0
 11
88.0
 21
75.5
 31
0.0
  0
LINE
  5
20E
100
AcDbEntity
  8
3301_32P # FSTRSCHIEBERANTRIEBSWELLE
390
0
  6
DIVIDE
100
AcDbLine
 10
277.0
 20
168.6
 30
0.0
 11
283.0
 21
168.6
 31
0.0
  0
LINE
  5
20F
100
AcDbEntity
  8
3301_32P # FSTRSCHIEBERANTRIEBSWELLE
390
0
  6
DIVIDE
100
AcDbLine
 10
277.0
 20
82.6
 30
0.0
 11
283.0
 21
82.6
 31
0.0
  0
LINE
  5
210
100
AcDbEntity
  8
3301_32P # FSTRSCHIEBERANTRIEBSWELLE
390
0
  6
DASHED
100
AcDbLine
 10
283.0
 20
168.6
 30
0.0
 11
280.0
 21
149.6
 31
0.0
  0
LINE
  5
211
100
AcDbEntity
  8
3301_32P # FSTRSCHIEBERANTRIEBSWELLE
390
0
  6
DASHED
100
AcDbLine
 10
280.0
 20
149.6
 30
0.0
 11
280.0
 21
138.6
 31
0.0
  0
LINE
  5
212
100
AcDbEntity
  8
3301_32P # FSTRSCHIEBERANTRIEBSWELLE
390
0
  6
DASHED
100
AcDbLine
 10
280.0
 20
127.6
 30
0.0
 11
280.0
 21
116.6
 31
0.0
  0
LINE
  5
213
100
AcDbEntity
  8
3301_32P # FSTRSCHIEBERANTRIEBSWELLE
390
0
  6
DASHED
100
AcDbLine
 10
280.0
 20
106.6
 30
0.0
 11
280.0
 21
97.1
 31
0.0
  0
LINE
  5
214
100
AcDbEntity
  8
3301_32P # FSTRSCHIEBERANTRIEBSWELLE
390
0
  6
DASHED
100
AcDbLine
 10
280.0
 20
97.1
 30
0.0
 11
283.0
 21
82.6
 31
0.0
  0
LINE
  5
215
100
AcDbEntity
  8
3301 FAHRSTRAﬂENSCHIEBERANTRIEB
390
0
100
AcDbLine
 10
140.0
 20
20.0
 30
0.0
 11
144.0
 21
20.0
 31
0.0
  0
LINE
  5
216
100
AcDbEntity
  8
3301 FAHRSTRAﬂENSCHIEBERANTRIEB
390
0
100
AcDbLine
 10
140.0
 20
12.0000000004
 30
0.0
 11
144.0
 21
12.0000000004
 31
0.0
  0
LINE
  5
217
100
AcDbEntity
  8
3301 FAHRSTRAﬂENSCHIEBERANTRIEB
390
0
100
AcDbLine
 10
72.0
 20
176.0
 30
0.0
 11
87.0
 21
176.0
 31
0.0
  0
LINE
  5
218
100
AcDbEntity
  8
3301 FAHRSTRAﬂENSCHIEBERANTRIEB
390
0
100
AcDbLine
 10
87.0
 20
176.0
 30
0.0
 11
87.0
 21
166.0
 31
0.0
  0
LINE
  5
219
100
AcDbEntity
  8
3301 FAHRSTRAﬂENSCHIEBERANTRIEB
390
0
100
AcDbLine
 10
87.0
 20
166.0
 30
0.0
 11
72.0
 21
166.0
 31
0.0
  0
LINE
  5
21A
100
AcDbEntity
  8
3301 FAHRSTRAﬂENSCHIEBERANTRIEB
390
0
100
AcDbLine
 10
72.0
 20
166.0
 30
0.0
 11
72.0
 21
176.0
 31
0.0
  0
LINE
  5
21B
100
AcDbEntity
  8
3301 FAHRSTRAﬂENSCHIEBERANTRIEB
390
0
100
AcDbLine
 10
87.0
 20
176.0
 30
0.0
 11
98.0
 21
176.0
 31
0.0
  0
LINE
  5
21C
100
AcDbEntity
  8
3301 FAHRSTRAﬂENSCHIEBERANTRIEB
390
0
100
AcDbLine
 10
98.0
 20
176.0
 30
0.0
 11
98.0
 21
166.0
 31
0.0
  0
LINE
  5
21D
100
AcDbEntity
  8
3301 FAHRSTRAﬂENSCHIEBERANTRIEB
390
0
100
AcDbLine
 10
98.0
 20
166.0
 30
0.0
 11
87.0
 21
166.0
 31
0.0
  0
LINE
  5
21E
100
AcDbEntity
  8
3301_13L # FSTRSCHIEBERANTRIEBSST‹CK
390
0
  6
DIVIDE
100
AcDbLine
 10
72.0
 20
177.0
 30
0.0
 11
87.0
 21
177.0
 31
0.0
  0
LINE
  5
21F
100
AcDbEntity
  8
3301_13L # FSTRSCHIEBERANTRIEBSST‹CK
390
0
  6
DIVIDE
100
AcDbLine
 10
72.0
 20
165.0
 30
0.0
 11
87.0
 21
165.0
 31
0.0
  0
LINE
  5
220
100
AcDbEntity
  8
3301_13R # FSTRSCHIEBERANTRIEBSST‹CK
390
0
100
AcDbLine
 10
99.0
 20
176.0
 30
0.0
 11
99.0
 21
166.0
 31
0.0
  0
LINE
  5
221
100
AcDbEntity
  8
3301_13L # FSTRSCHIEBERANTRIEBSST‹CK
390
0
  6
DASHED
100
AcDbLine
 10
87.0
 20
177.0
 30
0.0
 11
81.8
 21
171.0
 31
0.0
  0
LINE
  5
222
100
AcDbEntity
  8
3301_13L # FSTRSCHIEBERANTRIEBSST‹CK
390
0
  6
DASHED
100
AcDbLine
 10
81.8
 20
171.0
 30
0.0
 11
74.3
 21
171.0
 31
0.0
  0
LINE
  5
223
100
AcDbEntity
  8
3301_13L # FSTRSCHIEBERANTRIEBSST‹CK
390
0
  6
DASHED
100
AcDbLine
 10
74.3
 20
171.0
 30
0.0
 11
87.0
 21
165.0
 31
0.0
  0
LINE
  5
224
100
AcDbEntity
  8
3301_13R # FSTRSCHIEBERANTRIEBSST‹CK
390
0
  6
DIVIDE
100
AcDbLine
 10
87.0
 20
177.0
 30
0.0
 11
102.0
 21
177.0
 31
0.0
  0
LINE
  5
225
100
AcDbEntity
  8
3301_13R # FSTRSCHIEBERANTRIEBSST‹CK
390
0
  6
DIVIDE
100
AcDbLine
 10
87.0
 20
165.0
 30
0.0
 11
102.0
 21
165.0
 31
0.0
  0
LINE
  5
226
100
AcDbEntity
  8
3301_13R # FSTRSCHIEBERANTRIEBSST‹CK
390
0
  6
DASHED
100
AcDbLine
 10
102.0
 20
177.0
 30
0.0
 11
99.0
 21
176.0
 31
0.0
  0
LINE
  5
227
100
AcDbEntity
  8
3301_13R # FSTRSCHIEBERANTRIEBSST‹CK
390
0
  6
DASHED
100
AcDbLine
 10
99.0
 20
166.0
 30
0.0
 11
92.5
 21
171.0
 31
0.0
  0
LINE
  5
228
100
AcDbEntity
  8
3301 FAHRSTRAﬂENSCHIEBERANTRIEB
390
0
100
AcDbLine
 10
72.0
 20
85.5
 30
0.0
 11
87.0
 21
85.5
 31
0.0
  0
LINE
  5
229
100
AcDbEntity
  8
3301 FAHRSTRAﬂENSCHIEBERANTRIEB
390
0
100
AcDbLine
 10
72.0
 20
75.5
 30
0.0
 11
72.0
 21
85.5
 31
0.0
  0
LINE
  5
22A
100
AcDbEntity
  8
3301 FAHRSTRAﬂENSCHIEBERANTRIEB
390
0
100
AcDbLine
 10
87.0
 20
85.5
 30
0.0
 11
87.0
 21
75.5
 31
0.0
  0
LINE
  5
22B
100
AcDbEntity
  8
3301 FAHRSTRAﬂENSCHIEBERANTRIEB
390
0
  6
DASHED
100
AcDbLine
 10
86.0
 20
75.5
 30
0.0
 11
86.0
 21
85.5
 31
0.0
  0
CIRCLE
  5
22C
100
AcDbEntity
  8
3301_33P # VERSCHLUSSBALKEN
390
0
100
AcDbCircle
 10
134.2314574737
 20
120.0961260162
 30
0.0
 40
1.25
  0
CIRCLE
  5
22D
100
AcDbEntity
  8
3301_33P # VERSCHLUSSBALKEN
390
0
100
AcDbCircle
 10
134.2314574737
 20
105.0961260162
 30
0.0
 40
1.25
  0
CIRCLE
  5
22E
100
AcDbEntity
  8
3301_33P # VERSCHLUSSBALKEN
390
0
100
AcDbCircle
 10
134.2314574737
 20
96.0961260162
 30
0.0
 40
1.25
  0
CIRCLE
  5
22F
100
AcDbEntity
  8
3301_33P # VERSCHLUSSBALKEN
390
0
100
AcDbCircle
 10
134.2314574737
 20
81.0961260162
 30
0.0
 40
1.25
  0
ARC
  5
230
100
AcDbEntity
  8
3301_33P # VERSCHLUSSBALKEN
390
0
100
AcDbCircle
 10
125.2314574737
 20
81.0961260157
 30
0.0
 40
4.5
100
AcDbArc
 50
180.0
 51
231.0575587305
  0
ARC
  5
231
100
AcDbEntity
  8
3301_33P # VERSCHLUSSBALKEN
390
0
100
AcDbCircle
 10
134.2314574737
 20
81.0961260162
 30
0.0
 40
4.5
100
AcDbArc
 50
179.9999999999
 51
359.9999999999
  0
ARC
  5
232
100
AcDbEntity
  8
3301_33P # VERSCHLUSSBALKEN
390
0
100
AcDbCircle
 10
143.2314574738
 20
81.0961260157
 30
0.0
 40
4.5
100
AcDbArc
 50
180.0
 51
231.0575587304
  0
ARC
  5
233
100
AcDbEntity
  8
3301_33P # VERSCHLUSSBALKEN
390
0
100
AcDbCircle
 10
134.2314574737
 20
96.0961260162
 30
0.0
 40
4.5
100
AcDbArc
 50
359.9999999999
 51
539.9999999999
  0
ARC
  5
234
100
AcDbEntity
  8
3301_33P # VERSCHLUSSBALKEN
390
0
100
AcDbCircle
 10
134.2314574737
 20
105.0961260162
 30
0.0
 40
4.5
100
AcDbArc
 50
179.9999999999
 51
359.9999999999
  0
ARC
  5
235
100
AcDbEntity
  8
3301_33P # VERSCHLUSSBALKEN
390
0
100
AcDbCircle
 10
134.2314574737
 20
120.0961260162
 30
0.0
 40
4.5
100
AcDbArc
 50
359.9999999999
 51
539.9999999999
  0
ARC
  5
236
100
AcDbEntity
  8
3301_33P # VERSCHLUSSBALKEN
390
0
100
AcDbCircle
 10
134.2314574737
 20
132.0961260163
 30
0.0
 40
4.5
100
AcDbArc
 50
179.9999999999
 51
359.9999999999
  0
ARC
  5
237
100
AcDbEntity
  8
3301_33P # VERSCHLUSSBALKEN
390
0
100
AcDbCircle
 10
134.2314574737
 20
147.0961260162
 30
0.0
 40
4.5
100
AcDbArc
 50
359.9999999999
 51
539.9999999999
  0
ARC
  5
238
100
AcDbEntity
  8
3301_33P # VERSCHLUSSBALKEN
390
0
100
AcDbCircle
 10
134.2314574737
 20
156.0961260163
 30
0.0
 40
4.5
100
AcDbArc
 50
179.9999999999
 51
359.9999999999
  0
ARC
  5
239
100
AcDbEntity
  8
3301_33P # VERSCHLUSSBALKEN
390
0
100
AcDbCircle
 10
134.2314574737
 20
171.0961260162
 30
0.0
 40
4.5
100
AcDbArc
 50
359.9999999999
 51
539.9999999999
  0
ARC
  5
23A
100
AcDbEntity
  8
3301_33P # VERSCHLUSSBALKEN
390
0
100
AcDbCircle
 10
125.2314574737
 20
171.0961260157
 30
0.0
 40
4.5
100
AcDbArc
 50
0.0
 51
51.057558731
  0
ARC
  5
23B
100
AcDbEntity
  8
3301_33P # VERSCHLUSSBALKEN
390
0
100
AcDbCircle
 10
143.2314574738
 20
171.0961260157
 30
0.0
 40
4.5
100
AcDbArc
 50
0.0
 51
51.0575587312
  0
CIRCLE
  5
23C
100
AcDbEntity
  8
3301_33P # VERSCHLUSSBALKEN
390
0
  6
PHANTOM
100
AcDbCircle
 10
120.2314574737
 20
175.5961260153
 30
0.0
 40
0.5
  0
CIRCLE
  5
23D
100
AcDbEntity
  8
3301_33P # VERSCHLUSSBALKEN
390
0
  6
PHANTOM
100
AcDbCircle
 10
120.2314574737
 20
76.5961260162
 30
0.0
 40
1.0
  0
ARC
  5
23E
100
AcDbEntity
  8
3301_33P # VERSCHLUSSBALKEN
390
0
  6
DASHED
100
AcDbCircle
 10
138.731457474
 20
174.8612003762
 30
0.0
 40
5.8673490554
100
AcDbArc
 50
219.9186564036
 51
320.0813435892
  0
ARC
  5
23F
100
AcDbEntity
  8
3301_33P # VERSCHLUSSBALKEN
390
0
  6
DASHED
100
AcDbCircle
 10
119.3132719279
 20
139.5961260163
 30
0.0
 40
16.6973728467
100
AcDbArc
 50
333.3093979115
 51
386.6906020885
  0
ARC
  5
240
100
AcDbEntity
  8
3301_33P # VERSCHLUSSBALKEN
390
0
  6
DASHED
100
AcDbCircle
 10
119.3132719279
 20
112.5961260162
 30
0.0
 40
16.6973728467
100
AcDbArc
 50
333.3093979115
 51
386.6906020885
  0
ARC
  5
241
100
AcDbEntity
  8
3301_33P # VERSCHLUSSBALKEN
390
0
  6
DASHED
100
AcDbCircle
 10
129.7314574739
 20
79.073758506
 30
0.0
 40
4.933555548
100
AcDbArc
 50
24.1998657028
 51
155.8001343045
  0
ARC
  5
242
100
AcDbEntity
  8
3301___ VERSCHLUSSREGISTER
390
0
  6
DASHDOT
100
AcDbCircle
 10
329.7907339845
 20
126.0961260158
 30
0.0
 40
215.3261256133
100
AcDbArc
 50
166.7097660514
 51
193.2902339486
  0
ARC
  5
243
100
AcDbEntity
  8
3301_33P # VERSCHLUSSBALKEN
390
0
  6
DASHED
100
AcDbCircle
 10
126.9904668305
 20
83.3326119806
 30
0.0
 40
2.8453441599
100
AcDbArc
 50
15.5653936205
 51
231.8147414314
  0
ARC
  5
244
100
AcDbEntity
  8
3301_33P # VERSCHLUSSBALKEN
390
0
  6
DASHED
100
AcDbCircle
 10
156.4658613312
 20
105.3896713523
 30
0.0
 40
27.7114444442
100
AcDbArc
 50
195.2597949208
 51
230.2106576215
  0
ARC
  5
245
100
AcDbEntity
  8
3301_33P # VERSCHLUSSBALKEN
390
0
  6
DASHED
100
AcDbCircle
 10
141.5614102545
 20
113.5961260162
 30
0.0
 40
14.5670100842
100
AcDbArc
 50
144.3021829469
 51
215.6978170531
  0
ARC
  5
246
100
AcDbEntity
  8
3301_33P # VERSCHLUSSBALKEN
390
0
  6
DASHED
100
AcDbCircle
 10
137.2828450154
 20
140.5961260163
 30
0.0
 40
11.3698484512
100
AcDbArc
 50
131.6178409281
 51
228.3821590719
  0
ARC
  5
247
100
AcDbEntity
  8
3301_33P # VERSCHLUSSBALKEN
390
0
  6
DASHED
100
AcDbCircle
 10
134.0596703316
 20
154.3230838769
 30
0.0
 40
4.677296759
100
AcDbArc
 50
357.218727713
 51
517.7236568685
  0
ARC
  5
248
100
AcDbEntity
  8
3301_33P # VERSCHLUSSBALKEN
390
0
  6
DASHED
100
AcDbCircle
 10
127.5909018779
 20
139.5961260162
 30
0.0
 40
14.6411057978
100
AcDbArc
 50
319.5444377273
 51
400.4555622727
  0
ARC
  5
249
100
AcDbEntity
  8
3301_33P # VERSCHLUSSBALKEN
390
0
  6
DASHED
100
AcDbCircle
 10
127.590901878
 20
112.5961260163
 30
0.0
 40
14.6411057978
100
AcDbArc
 50
319.5444377269
 51
400.4555622729
  0
ARC
  5
24A
100
AcDbEntity
  8
3301_33P # VERSCHLUSSBALKEN
390
0
  6
DASHED
100
AcDbCircle
 10
112.3380908874
 20
108.0126318127
 30
0.0
 40
28.1948024816
100
AcDbArc
 50
287.3190307262
 51
339.4078151924
  0
ARC
  5
24B
100
AcDbEntity
  8
3301_33P # VERSCHLUSSBALKEN
390
0
  6
DASHED
100
AcDbCircle
 10
116.4627956348
 20
79.2926439981
 30
0.0
 40
4.6340070439
100
AcDbArc
 50
324.415873157
 51
382.9037433496
  0
ARC
  5
24C
100
AcDbEntity
  8
3301___ VERSCHLUSSREGISTER
390
0
  6
DASHDOT
100
AcDbCircle
 10
180.2142857143
 20
138.5
 30
0.0
 40
163.2763089405
100
AcDbArc
 50
163.0870829926
 51
196.9129170074
  0
ARC
  5
24D
100
AcDbEntity
  8
3301___ VERSCHLUSSREGISTER
390
0
  6
DASHDOT
100
AcDbCircle
 10
23.5
 20
73.5
 30
0.0
 40
5.5226805086
100
AcDbArc
 50
84.8055710923
 51
275.1944289077
  0
CIRCLE
  5
24E
100
AcDbEntity
  8
3301_12M # 4 VERSCHLUSSBALKENWINKEL
390
0
  6
PHANTOM
100
AcDbCircle
 10
24.0
 20
59.0
 30
0.0
 40
0.5
  0
CIRCLE
  5
24F
100
AcDbEntity
  8
3301_12M # 4 VERSCHLUSSBALKENWINKEL
390
0
  6
PHANTOM
100
AcDbCircle
 10
24.0
 20
15.0
 30
0.0
 40
1.0
  0
ARC
  5
250
100
AcDbEntity
  8
3301_12M # 4 VERSCHLUSSBALKENWINKEL
390
0
  6
DASHDOT
100
AcDbCircle
 10
22.25
 20
53.5
 30
0.0
 40
5.7716981903
100
AcDbArc
 50
287.6501242199
 51
432.3498757801
  0
ARC
  5
251
100
AcDbEntity
  8
3301_12M # 4 VERSCHLUSSBALKENWINKEL
390
0
  6
DASHDOT
100
AcDbCircle
 10
22.25
 20
42.5
 30
0.0
 40
5.7716981903
100
AcDbArc
 50
287.6501242199
 51
432.3498757801
  0
ARC
  5
252
100
AcDbEntity
  8
3301_12M # 4 VERSCHLUSSBALKENWINKEL
390
0
  6
DASHDOT
100
AcDbCircle
 10
22.25
 20
31.5
 30
0.0
 40
5.7716981903
100
AcDbArc
 50
287.6501242199
 51
432.3498757801
  0
ARC
  5
253
100
AcDbEntity
  8
3301_12M # 4 VERSCHLUSSBALKENWINKEL
390
0
  6
DASHDOT
100
AcDbCircle
 10
22.25
 20
20.5
 30
0.0
 40
5.7716981903
100
AcDbArc
 50
287.6501242199
 51
432.3498757801
  0
CIRCLE
  5
254
100
AcDbEntity
  8
3301_12S # 4 VERSCHLUSSBALKENWINKEL
390
0
  6
PHANTOM
100
AcDbCircle
 10
39.0
 20
15.0
 30
0.0
 40
1.0
  0
ARC
  5
255
100
AcDbEntity
  8
3301_12S # 4 VERSCHLUSSBALKENWINKEL
390
0
  6
DASHDOT
100
AcDbCircle
 10
37.25
 20
53.5
 30
0.0
 40
5.7716981903
100
AcDbArc
 50
287.6501242199
 51
432.3498757801
  0
ARC
  5
256
100
AcDbEntity
  8
3301_12S # 4 VERSCHLUSSBALKENWINKEL
390
0
  6
DASHDOT
100
AcDbCircle
 10
37.25
 20
20.5
 30
0.0
 40
5.7716981903
100
AcDbArc
 50
287.6501242199
 51
432.3498757801
  0
ARC
  5
257
100
AcDbEntity
  8
3301_12S # 4 VERSCHLUSSBALKENWINKEL
390
0
  6
DASHDOT
100
AcDbCircle
 10
37.25
 20
31.5
 30
0.0
 40
5.7716981903
100
AcDbArc
 50
287.6501242199
 51
432.3498757801
  0
CIRCLE
  5
258
100
AcDbEntity
  8
3301_12S # 4 VERSCHLUSSBALKENWINKEL
390
0
  6
PHANTOM
100
AcDbCircle
 10
39.0
 20
59.0
 30
0.0
 40
0.5
  0
ARC
  5
259
100
AcDbEntity
  8
3301_12S # 4 VERSCHLUSSBALKENWINKEL
390
0
  6
DASHDOT
100
AcDbCircle
 10
37.25
 20
42.5
 30
0.0
 40
5.7716981903
100
AcDbArc
 50
287.6501242199
 51
432.3498757801
  0
CIRCLE
  5
25A
100
AcDbEntity
  8
3301_33Q # VERSCHLUSSBALKEN
390
0
  6
PHANTOM
100
AcDbCircle
 10
173.7314574737
 20
175.5961260153
 30
0.0
 40
0.5
  0
CIRCLE
  5
25B
100
AcDbEntity
  8
3301_33Q # VERSCHLUSSBALKEN
390
0
  6
PHANTOM
100
AcDbCircle
 10
173.7314574737
 20
76.5961260162
 30
0.0
 40
1.0
  0
ARC
  5
25C
100
AcDbEntity
  8
3301___ VERSCHLUSSREGISTER
390
0
  6
DASHDOT
100
AcDbCircle
 10
383.2907339845
 20
126.0961260158
 30
0.0
 40
215.3261256133
100
AcDbArc
 50
166.7097660514
 51
193.2902339486
  0
ARC
  5
25D
100
AcDbEntity
  8
3301_33Q # VERSCHLUSSBALKEN
390
0
  6
DASHDOT
100
AcDbCircle
 10
11.3704663556
 20
126.0961260158
 30
0.0
 40
169.7390392244
100
AcDbArc
 50
343.0447845127
 51
376.9552154873
  0
ARC
  5
25E
100
AcDbEntity
  8
3301___ VERSCHLUSSREGISTER
390
0
  6
DASHDOT
100
AcDbCircle
 10
54.7857142857
 20
37.0
 30
0.0
 40
37.8386073222
100
AcDbArc
 50
144.4497490725
 51
215.5502509275
  0
ARC
  5
25F
100
AcDbEntity
  8
3301_33P # VERSCHLUSSBALKEN
390
0
  6
DIVIDE
100
AcDbCircle
 10
125.2314574737
 20
171.0961260157
 30
0.0
 40
4.5
100
AcDbArc
 50
51.057558731
 51
128.9424412695
  0
ARC
  5
260
100
AcDbEntity
  8
3301_33P # VERSCHLUSSBALKEN
390
0
100
AcDbCircle
 10
125.2314574737
 20
171.0961260157
 30
0.0
 40
4.5
100
AcDbArc
 50
128.9424412695
 51
180.0
  0
ARC
  5
261
100
AcDbEntity
  8
3301_33P # VERSCHLUSSBALKEN
390
0
100
AcDbCircle
 10
143.2314574738
 20
171.0961260157
 30
0.0
 40
4.5
100
AcDbArc
 50
128.9424412696
 51
180.0
  0
ARC
  5
262
100
AcDbEntity
  8
3301_33P # VERSCHLUSSBALKEN
390
0
  6
DIVIDE
100
AcDbCircle
 10
143.2314574738
 20
171.0961260157
 30
0.0
 40
4.5
100
AcDbArc
 50
51.0575587312
 51
128.9424412696
  0
ARC
  5
263
100
AcDbEntity
  8
3301_33P # VERSCHLUSSBALKEN
390
0
  6
DIVIDE
100
AcDbCircle
 10
125.2314574737
 20
81.0961260157
 30
0.0
 40
4.5
100
AcDbArc
 50
231.0575587305
 51
308.942441269
  0
ARC
  5
264
100
AcDbEntity
  8
3301_33P # VERSCHLUSSBALKEN
390
0
100
AcDbCircle
 10
125.2314574737
 20
81.0961260157
 30
0.0
 40
4.5
100
AcDbArc
 50
308.942441269
 51
360.0
  0
ARC
  5
265
100
AcDbEntity
  8
3301_33P # VERSCHLUSSBALKEN
390
0
  6
DIVIDE
100
AcDbCircle
 10
143.2314574738
 20
81.0961260157
 30
0.0
 40
4.5
100
AcDbArc
 50
231.0575587304
 51
308.9424412688
  0
ARC
  5
266
100
AcDbEntity
  8
3301_33P # VERSCHLUSSBALKEN
390
0
100
AcDbCircle
 10
143.2314574738
 20
81.0961260157
 30
0.0
 40
4.5
100
AcDbArc
 50
308.9424412688
 51
360.0
  0
ARC
  5
267
100
AcDbEntity
  8
3301_33Q # VERSCHLUSSBALKEN
390
0
  6
DASHDOT
100
AcDbCircle
 10
396.0924485919
 20
126.0961260158
 30
0.0
 40
169.7390392244
100
AcDbArc
 50
163.0447845127
 51
196.9552154873
  0
CIRCLE
  5
268
100
AcDbEntity
  8
3301_32P # FSTRSCHIEBERANTRIEBSWELLE
390
0
100
AcDbCircle
 10
280.0
 20
149.6
 30
0.0
 40
1.25
  0
CIRCLE
  5
269
100
AcDbEntity
  8
3301_32P # FSTRSCHIEBERANTRIEBSWELLE
390
0
100
AcDbCircle
 10
280.0
 20
138.6
 30
0.0
 40
1.25
  0
CIRCLE
  5
26A
100
AcDbEntity
  8
3301_32P # FSTRSCHIEBERANTRIEBSWELLE
390
0
100
AcDbCircle
 10
280.0
 20
127.6
 30
0.0
 40
1.25
  0
CIRCLE
  5
26B
100
AcDbEntity
  8
3301_32P # FSTRSCHIEBERANTRIEBSWELLE
390
0
100
AcDbCircle
 10
280.0
 20
116.6
 30
0.0
 40
1.25
  0
CIRCLE
  5
26C
100
AcDbEntity
  8
3301_32P # FSTRSCHIEBERANTRIEBSWELLE
390
0
100
AcDbCircle
 10
280.0
 20
106.6
 30
0.0
 40
1.25
  0
CIRCLE
  5
26D
100
AcDbEntity
  8
3301_32P # FSTRSCHIEBERANTRIEBSWELLE
390
0
  6
DIVIDE
100
AcDbCircle
 10
280.0
 20
97.1
 30
0.0
 40
1.0
  0
CIRCLE
  5
26E
100
AcDbEntity
  8
3301_32P # FSTRSCHIEBERANTRIEBSWELLE
390
0
  6
PHANTOM
100
AcDbCircle
 10
277.0
 20
168.6
 30
0.0
 40
0.5
  0
CIRCLE
  5
26F
100
AcDbEntity
  8
3301_32P # FSTRSCHIEBERANTRIEBSWELLE
390
0
  6
PHANTOM
100
AcDbCircle
 10
277.0
 20
82.6
 30
0.0
 40
1.0
  0
ARC
  5
270
100
AcDbEntity
  8
3301_32P # FSTRSCHIEBERANTRIEBSWELLE
390
0
  6
DASHED
100
AcDbCircle
 10
265.78
 20
133.1
 30
0.0
 40
15.2465865032
100
AcDbArc
 50
338.8545671216
 51
381.1454328784
  0
ARC
  5
271
100
AcDbEntity
  8
3301_32P # FSTRSCHIEBERANTRIEBSWELLE
390
0
  6
DASHED
100
AcDbCircle
 10
268.08
 20
111.6
 30
0.0
 40
12.9261904674
100
AcDbArc
 50
337.2437492598
 51
382.7562507402
  0
CIRCLE
  5
272
100
AcDbEntity
  8
3301_13L # FSTRSCHIEBERANTRIEBSST‹CK
390
0
  6
PHANTOM
100
AcDbCircle
 10
72.0
 20
177.0
 30
0.0
 40
0.5
  0
CIRCLE
  5
273
100
AcDbEntity
  8
3301_13R # FSTRSCHIEBERANTRIEBSST‹CK
390
0
  6
PHANTOM
100
AcDbCircle
 10
87.0
 20
177.0
 30
0.0
 40
0.5
  0
CIRCLE
  5
274
100
AcDbEntity
  8
3301_13L # FSTRSCHIEBERANTRIEBSST‹CK
390
0
100
AcDbCircle
 10
74.3
 20
171.0
 30
0.0
 40
1.25
  0
CIRCLE
  5
275
100
AcDbEntity
  8
3301_13L # FSTRSCHIEBERANTRIEBSST‹CK
390
0
100
AcDbCircle
 10
81.8
 20
171.0
 30
0.0
 40
3.2
  0
CIRCLE
  5
276
100
AcDbEntity
  8
3301_13R # FSTRSCHIEBERANTRIEBSST‹CK
390
0
100
AcDbCircle
 10
92.5
 20
171.0
 30
0.0
 40
1.5
  0
CIRCLE
  5
277
100
AcDbEntity
  8
3301_13L # FSTRSCHIEBERANTRIEBSST‹CK
390
0
  6
PHANTOM
100
AcDbCircle
 10
72.0
 20
165.0
 30
0.0
 40
1.0
  0
CIRCLE
  5
278
100
AcDbEntity
  8
3301_13R # FSTRSCHIEBERANTRIEBSST‹CK
390
0
  6
PHANTOM
100
AcDbCircle
 10
87.0
 20
165.0
 30
0.0
 40
1.0
  0
ARC
  5
279
100
AcDbEntity
  8
3301_13R # FSTRSCHIEBERANTRIEBSST‹CK
390
0
  6
DASHED
100
AcDbCircle
 10
95.25
 20
164.8333333333
 30
0.0
 40
6.7520572997
100
AcDbArc
 50
1.4144232114
 51
114.0342881594
  0
CIRCLE
  5
27A
100
AcDbEntity
  8
3301_14L # FSTRSCHIEBERANTRIEBSKURBEL
390
0
100
AcDbCircle
 10
74.0
 20
80.5
 30
0.0
 40
1.25
  0
CIRCLE
  5
27B
100
AcDbEntity
  8
3301_14L # FSTRSCHIEBERANTRIEBSKURBEL
390
0
100
AcDbCircle
 10
82.8
 20
80.5
 30
0.0
 40
3.2
  0
CIRCLE
  5
27C
100
AcDbEntity
  8
3301_14R # FSTRSCHIEBERANTRIEBSKURBEL
390
0
100
AcDbCircle
 10
98.0
 20
80.5
 30
0.0
 40
1.5
  0
CIRCLE
  5
27D
100
AcDbEntity
  8
3301_14L # FSTRSCHIEBERANTRIEBSKURBEL
390
0
  6
PHANTOM
100
AcDbCircle
 10
72.0
 20
86.5
 30
0.0
 40
0.5
  0
CIRCLE
  5
27E
100
AcDbEntity
  8
3301_14L # FSTRSCHIEBERANTRIEBSKURBEL
390
0
  6
PHANTOM
100
AcDbCircle
 10
72.0
 20
74.5
 30
0.0
 40
1.0
  0
CIRCLE
  5
27F
100
AcDbEntity
  8
3301_14R # FSTRSCHIEBERANTRIEBSKURBEL
390
0
  6
PHANTOM
100
AcDbCircle
 10
87.0
 20
74.5
 30
0.0
 40
1.0
  0
CIRCLE
  5
280
100
AcDbEntity
  8
3301_14R # FSTRSCHIEBERANTRIEBSKURBEL
390
0
  6
PHANTOM
100
AcDbCircle
 10
87.0
 20
86.5
 30
0.0
 40
0.5
  0
ARC
  5
281
100
AcDbEntity
  8
3301___ VERSCHLUSSREGISTER
390
0
  6
DASHDOT
100
AcDbCircle
 10
72.2
 20
171.0
 30
0.0
 40
6.0033324079
100
AcDbArc
 50
91.909152433
 51
268.090847567
  0
ARC
  5
282
100
AcDbEntity
  8
3301_13M # 4 FSTRSCHIEBERANTRIEBSST‹CKE
390
0
  6
DASHDOT
100
AcDbCircle
 10
69.5
 20
146.0
 30
0.0
 40
6.5
100
AcDbArc
 50
292.619864948
 51
427.380135052
  0
ARC
  5
283
100
AcDbEntity
  8
3301_13S # 4 FSTRSCHIEBERANTRIEBSST‹CKE
390
0
  6
DASHDOT
100
AcDbCircle
 10
84.625
 20
146.0
 30
0.0
 40
6.4529547496
100
AcDbArc
 50
291.595310449
 51
428.404689551
  0
ARC
  5
284
100
AcDbEntity
  8
3301_13M # 4 FSTRSCHIEBERANTRIEBSST‹CKE
390
0
  6
DASHDOT
100
AcDbCircle
 10
69.5
 20
134.0
 30
0.0
 40
6.5
100
AcDbArc
 50
292.619864948
 51
427.380135052
  0
ARC
  5
285
100
AcDbEntity
  8
3301_13S # 4 FSTRSCHIEBERANTRIEBSST‹CKE
390
0
  6
DASHDOT
100
AcDbCircle
 10
84.625
 20
134.0
 30
0.0
 40
6.4529547496
100
AcDbArc
 50
291.595310449
 51
428.404689551
  0
ARC
  5
286
100
AcDbEntity
  8
3301_13M # 4 FSTRSCHIEBERANTRIEBSST‹CKE
390
0
  6
DASHDOT
100
AcDbCircle
 10
69.5
 20
122.0
 30
0.0
 40
6.5
100
AcDbArc
 50
292.619864948
 51
427.380135052
  0
ARC
  5
287
100
AcDbEntity
  8
3301_13S # 4 FSTRSCHIEBERANTRIEBSST‹CKE
390
0
  6
DASHDOT
100
AcDbCircle
 10
84.625
 20
122.0
 30
0.0
 40
6.4529547496
100
AcDbArc
 50
291.595310449
 51
428.404689551
  0
ARC
  5
288
100
AcDbEntity
  8
3301_13M # 4 FSTRSCHIEBERANTRIEBSST‹CKE
390
0
  6
DASHDOT
100
AcDbCircle
 10
69.5
 20
110.0
 30
0.0
 40
6.5
100
AcDbArc
 50
292.619864948
 51
427.380135052
  0
ARC
  5
289
100
AcDbEntity
  8
3301_13S # 4 FSTRSCHIEBERANTRIEBSST‹CKE
390
0
  6
DASHDOT
100
AcDbCircle
 10
84.625
 20
110.0
 30
0.0
 40
6.4529547496
100
AcDbArc
 50
291.595310449
 51
428.404689551
  0
ARC
  5
28A
100
AcDbEntity
  8
3301_14S # 4 FSTRSCHIEBERANTRIEBSKURBELN
390
0
  6
DASHDOT
100
AcDbCircle
 10
84.625
 20
19.5
 30
0.0
 40
6.4529547496
100
AcDbArc
 50
291.595310449
 51
428.404689551
  0
ARC
  5
28B
100
AcDbEntity
  8
3301_14M # 4 FSTRSCHIEBERANTRIEBSKURBELN
390
0
  6
DASHDOT
100
AcDbCircle
 10
69.5
 20
19.5
 30
0.0
 40
6.5
100
AcDbArc
 50
292.619864948
 51
427.380135052
  0
ARC
  5
28C
100
AcDbEntity
  8
3301_14M # 4 FSTRSCHIEBERANTRIEBSKURBELN
390
0
  6
DASHDOT
100
AcDbCircle
 10
69.5
 20
55.5
 30
0.0
 40
6.5
100
AcDbArc
 50
292.619864948
 51
427.380135052
  0
ARC
  5
28D
100
AcDbEntity
  8
3301_14S # 4 FSTRSCHIEBERANTRIEBSKURBELN
390
0
  6
DASHDOT
100
AcDbCircle
 10
84.625
 20
31.5
 30
0.0
 40
6.4529547496
100
AcDbArc
 50
291.595310449
 51
428.404689551
  0
ARC
  5
28E
100
AcDbEntity
  8
3301_14S # 4 FSTRSCHIEBERANTRIEBSKURBELN
390
0
  6
DASHDOT
100
AcDbCircle
 10
84.625
 20
55.5
 30
0.0
 40
6.4529547496
100
AcDbArc
 50
291.595310449
 51
428.404689551
  0
ARC
  5
28F
100
AcDbEntity
  8
3301_14M # 4 FSTRSCHIEBERANTRIEBSKURBELN
390
0
  6
DASHDOT
100
AcDbCircle
 10
69.5
 20
43.5
 30
0.0
 40
6.5
100
AcDbArc
 50
292.619864948
 51
427.380135052
  0
ARC
  5
290
100
AcDbEntity
  8
3301_14S # 4 FSTRSCHIEBERANTRIEBSKURBELN
390
0
  6
DASHDOT
100
AcDbCircle
 10
84.625
 20
43.5
 30
0.0
 40
6.4529547496
100
AcDbArc
 50
291.595310449
 51
428.404689551
  0
ARC
  5
291
100
AcDbEntity
  8
3301_14M # 4 FSTRSCHIEBERANTRIEBSKURBELN
390
0
  6
DASHDOT
100
AcDbCircle
 10
69.5
 20
31.5
 30
0.0
 40
6.5
100
AcDbArc
 50
292.619864948
 51
427.380135052
  0
LINE
  5
292
100
AcDbEntity
  8
3301 FAHRSTRAﬂENSCHIEBERANTRIEB
390
0
100
AcDbLine
 10
87.0
 20
75.5
 30
0.0
 11
72.0
 21
75.5
 31
0.0
  0
LINE
  5
293
100
AcDbEntity
  8
3301_14L # FSTRSCHIEBERANTRIEBSKURBEL
390
0
  6
DIVIDE
100
AcDbLine
 10
72.0
 20
86.5
 30
0.0
 11
87.0
 21
86.5
 31
0.0
  0
LINE
  5
294
100
AcDbEntity
  8
3301_14L # FSTRSCHIEBERANTRIEBSKURBEL
390
0
  6
DIVIDE
100
AcDbLine
 10
72.0
 20
74.5
 30
0.0
 11
87.0
 21
74.5
 31
0.0
  0
LINE
  5
295
100
AcDbEntity
  8
3301_14R # FSTRSCHIEBERANTRIEBSKURBEL
390
0
  6
DIVIDE
100
AcDbLine
 10
87.0
 20
86.5
 30
0.0
 11
102.0
 21
86.5
 31
0.0
  0
LINE
  5
296
100
AcDbEntity
  8
3301_14R # FSTRSCHIEBERANTRIEBSKURBEL
390
0
  6
DIVIDE
100
AcDbLine
 10
87.0
 20
74.5
 30
0.0
 11
102.0
 21
74.5
 31
0.0
  0
LINE
  5
297
100
AcDbEntity
  8
3301_14R # FSTRSCHIEBERANTRIEBSKURBEL
390
0
  6
DASHED
100
AcDbLine
 10
102.0
 20
86.5
 30
0.0
 11
98.0
 21
80.5
 31
0.0
  0
LINE
  5
298
100
AcDbEntity
  8
3301_14R # FSTRSCHIEBERANTRIEBSKURBEL
390
0
  6
DASHED
100
AcDbLine
 10
98.0
 20
80.5
 30
0.0
 11
102.0
 21
74.5
 31
0.0
  0
LINE
  5
299
100
AcDbEntity
  8
3301_14L # FSTRSCHIEBERANTRIEBSKURBEL
390
0
  6
DASHED
100
AcDbLine
 10
87.0
 20
86.5
 30
0.0
 11
82.8
 21
80.5
 31
0.0
  0
LINE
  5
29A
100
AcDbEntity
  8
3301_14L # FSTRSCHIEBERANTRIEBSKURBEL
390
0
  6
DASHED
100
AcDbLine
 10
82.8
 20
80.5
 30
0.0
 11
74.0
 21
80.5
 31
0.0
  0
LINE
  5
29B
100
AcDbEntity
  8
3301_14L # FSTRSCHIEBERANTRIEBSKURBEL
390
0
  6
DASHED
100
AcDbLine
 10
74.0
 20
80.5
 30
0.0
 11
87.0
 21
74.5
 31
0.0
  0
ARC
  5
29C
100
AcDbEntity
  8
3301___ VERSCHLUSSREGISTER
390
0
  6
DASHDOT
100
AcDbCircle
 10
106.1428571429
 20
128.0
 30
0.0
 40
41.7340951007
100
AcDbArc
 50
144.8955092626
 51
215.1044907374
  0
ARC
  5
29D
100
AcDbEntity
  8
3301___ VERSCHLUSSREGISTER
390
0
  6
DASHDOT
100
AcDbCircle
 10
103.609375
 20
37.5
 30
0.0
 40
39.6881920461
100
AcDbArc
 50
142.7917453849
 51
217.2082546151
  0
ARC
  5
29E
100
AcDbEntity
  8
3301___ VERSCHLUSSREGISTER
390
0
  6
DASHDOT
100
AcDbCircle
 10
420.72
 20
125.6
 30
0.0
 40
150.0147939371
100
AcDbArc
 50
163.3431916567
 51
196.6568083433
  0
ARC
  5
29F
100
AcDbEntity
  8
3301___ VERSCHLUSSREGISTER
390
0
  6
DASHDOT
100
AcDbCircle
 10
72.2
 20
80.5
 30
0.0
 40
6.0033324079
100
AcDbArc
 50
91.909152433
 51
268.090847567
  0
CIRCLE
  5
2A0
100
AcDbEntity
  8
3301_13M # 4 FSTRSCHIEBERANTRIEBSST‹CKE
390
0
  6
PHANTOM
100
AcDbCircle
 10
72.0
 20
152.0
 30
0.0
 40
0.5
  0
CIRCLE
  5
2A1
100
AcDbEntity
  8
3301_13S # 4 FSTRSCHIEBERANTRIEBSST‹CKE
390
0
  6
PHANTOM
100
AcDbCircle
 10
87.0
 20
152.0
 30
0.0
 40
0.5
  0
CIRCLE
  5
2A2
100
AcDbEntity
  8
3301_13M # 4 FSTRSCHIEBERANTRIEBSST‹CKE
390
0
  6
PHANTOM
100
AcDbCircle
 10
72.0
 20
104.0
 30
0.0
 40
1.0
  0
CIRCLE
  5
2A3
100
AcDbEntity
  8
3301_13S # 4 FSTRSCHIEBERANTRIEBSST‹CKE
390
0
  6
PHANTOM
100
AcDbCircle
 10
87.0
 20
104.0
 30
0.0
 40
1.0
  0
CIRCLE
  5
2A4
100
AcDbEntity
  8
3301_14M # 4 FSTRSCHIEBERANTRIEBSKURBELN
390
0
  6
PHANTOM
100
AcDbCircle
 10
72.0
 20
13.5
 30
0.0
 40
1.0
  0
CIRCLE
  5
2A5
100
AcDbEntity
  8
3301_14S # 4 FSTRSCHIEBERANTRIEBSKURBELN
390
0
  6
PHANTOM
100
AcDbCircle
 10
87.0
 20
13.5
 30
0.0
 40
1.0
  0
CIRCLE
  5
2A6
100
AcDbEntity
  8
3301_14M # 4 FSTRSCHIEBERANTRIEBSKURBELN
390
0
  6
PHANTOM
100
AcDbCircle
 10
72.0
 20
61.5
 30
0.0
 40
0.5
  0
CIRCLE
  5
2A7
100
AcDbEntity
  8
3301_14S # 4 FSTRSCHIEBERANTRIEBSKURBELN
390
0
  6
PHANTOM
100
AcDbCircle
 10
87.0
 20
61.5
 30
0.0
 40
0.5
  0
MTEXT
  5
2A8
100
AcDbEntity
  8
3301_13M # 4 FSTRSCHIEBERANTRIEBSST‹CKE
390
0
  6
DASHDOT
100
AcDbMText
 10
76.0
 20
134.050759375
 30
0.0
 40
1.275
 41
0.0
 71
         5
 72
         1
  1
\W1.017338;>3301.13L\PM15x15x2 T2 O2
  7
Arial
 73
         1
 44
1.0352941176
  0
MTEXT
  5
2A9
100
AcDbEntity
  8
3301_13S # 4 FSTRSCHIEBERANTRIEBSST‹CKE
390
0
  6
DASHDOT
100
AcDbMText
 10
91.0
 20
134.050759375
 30
0.0
 40
1.275
 41
0.0
 71
         5
 72
         1
  1
\W1.017370;>3301.13R\PM15x15x2 T2 O2
  7
Arial
 73
         1
 44
1.0352941176
  0
MTEXT
  5
2AA
100
AcDbEntity
  8
3301_13M # 4 FSTRSCHIEBERANTRIEBSST‹CKE
390
0
  6
DASHDOT
100
AcDbMText
 10
76.0
 20
122.050759375
 30
0.0
 40
1.275
 41
0.0
 71
         5
 72
         1
  1
\W1.017338;>3301.13L\PM15x15x2 T2 O2
  7
Arial
 73
         1
 44
1.0352941176
  0
MTEXT
  5
2AB
100
AcDbEntity
  8
3301_13S # 4 FSTRSCHIEBERANTRIEBSST‹CKE
390
0
  6
DASHDOT
100
AcDbMText
 10
91.0
 20
122.050759375
 30
0.0
 40
1.275
 41
0.0
 71
         5
 72
         1
  1
\W1.017370;>3301.13R\PM15x15x2 T2 O2
  7
Arial
 73
         1
 44
1.0352941176
  0
MTEXT
  5
2AC
100
AcDbEntity
  8
3301_13M # 4 FSTRSCHIEBERANTRIEBSST‹CKE
390
0
  6
DASHDOT
100
AcDbMText
 10
76.0
 20
110.050759375
 30
0.0
 40
1.275
 41
0.0
 71
         5
 72
         1
  1
\W1.017338;>3301.13L\PM15x15x2 T2 O2
  7
Arial
 73
         1
 44
1.0352941176
  0
MTEXT
  5
2AD
100
AcDbEntity
  8
3301_13S # 4 FSTRSCHIEBERANTRIEBSST‹CKE
390
0
  6
DASHDOT
100
AcDbMText
 10
91.0
 20
110.050759375
 30
0.0
 40
1.275
 41
0.0
 71
         5
 72
         1
  1
\W1.017370;>3301.13R\PM15x15x2 T2 O2
  7
Arial
 73
         1
 44
1.0352941176
  0
MTEXT
  5
2AE
100
AcDbEntity
  8
3301_14M # 4 FSTRSCHIEBERANTRIEBSKURBELN
390
0
  6
DASHDOT
100
AcDbMText
 10
76.0
 20
55.550759375
 30
0.0
 40
1.275
 41
0.0
 71
         5
 72
         1
  1
\W1.017338;>3301.14L\PM15x15x1 T1 O2
  7
Arial
 73
         1
 44
1.0352941176
  0
MTEXT
  5
2AF
100
AcDbEntity
  8
3301_14S # 4 FSTRSCHIEBERANTRIEBSKURBELN
390
0
  6
DASHDOT
100
AcDbMText
 10
91.0
 20
55.550759375
 30
0.0
 40
1.275
 41
0.0
 71
         5
 72
         1
  1
\W1.017370;>3301.14R\PM15x15x1 T1 O2
  7
Arial
 73
         1
 44
1.0352941176
  0
MTEXT
  5
2B0
100
AcDbEntity
  8
3301_14S # 4 FSTRSCHIEBERANTRIEBSKURBELN
390
0
  6
DASHDOT
100
AcDbMText
 10
91.0
 20
43.550759375
 30
0.0
 40
1.275
 41
0.0
 71
         5
 72
         1
  1
\W1.017370;>3301.14R\PM15x15x1 T1 O2
  7
Arial
 73
         1
 44
1.0352941176
  0
MTEXT
  5
2B1
100
AcDbEntity
  8
3301_14M # 4 FSTRSCHIEBERANTRIEBSKURBELN
390
0
  6
DASHDOT
100
AcDbMText
 10
76.0
 20
43.550759375
 30
0.0
 40
1.275
 41
0.0
 71
         5
 72
         1
  1
\W1.017338;>3301.14L\PM15x15x1 T1 O2
  7
Arial
 73
         1
 44
1.0352941176
  0
MTEXT
  5
2B2
100
AcDbEntity
  8
3301_14S # 4 FSTRSCHIEBERANTRIEBSKURBELN
390
0
  6
DASHDOT
100
AcDbMText
 10
91.0
 20
31.550759375
 30
0.0
 40
1.275
 41
0.0
 71
         5
 72
         1
  1
\W1.017370;>3301.14R\PM15x15x1 T1 O2
  7
Arial
 73
         1
 44
1.0352941176
  0
MTEXT
  5
2B3
100
AcDbEntity
  8
3301_14M # 4 FSTRSCHIEBERANTRIEBSKURBELN
390
0
  6
DASHDOT
100
AcDbMText
 10
76.0
 20
31.550759375
 30
0.0
 40
1.275
 41
0.0
 71
         5
 72
         1
  1
\W1.017338;>3301.14L\PM15x15x1 T1 O2
  7
Arial
 73
         1
 44
1.0352941176
  0
MTEXT
  5
2B4
100
AcDbEntity
  8
3301_14S # 4 FSTRSCHIEBERANTRIEBSKURBELN
390
0
  6
DASHDOT
100
AcDbMText
 10
91.0
 20
19.550759375
 30
0.0
 40
1.275
 41
0.0
 71
         5
 72
         1
  1
\W1.017370;>3301.14R\PM15x15x1 T1 O2
  7
Arial
 73
         1
 44
1.0352941176
  0
MTEXT
  5
2B5
100
AcDbEntity
  8
3301_14M # 4 FSTRSCHIEBERANTRIEBSKURBELN
390
0
  6
DASHDOT
100
AcDbMText
 10
76.0
 20
19.550759375
 30
0.0
 40
1.275
 41
0.0
 71
         5
 72
         1
  1
\W1.017338;>3301.14L\PM15x15x1 T1 O2
  7
Arial
 73
         1
 44
1.0352941176
  0
MTEXT
  5
2B6
100
AcDbEntity
  8
3301_33Q # VERSCHLUSSBALKEN
390
0
  6
DASHDOT
100
AcDbMText
 10
181.0315508304
 20
126.1468853908
 30
0.0
 40
1.275
 41
0.0
 71
         5
 72
         1
  1
\W1.017368;>3301.33P\PM28+x2 T2 O2
  7
Arial
 73
         1
 44
1.0352941176
  0
MTEXT
  5
2B7
100
AcDbEntity
  8
3301_33Q # VERSCHLUSSBALKEN
390
0
  6
DASHDOT
100
AcDbMText
 10
226.2754546179
 20
126.1468853908
 30
0.0
 40
1.275
 41
0.0
 71
         5
 72
         1
  1
\W1.017368;>3301.33P\PM28+x2 T2 O2
  7
Arial
 73
         1
 44
1.0352941176
  0
MTEXT
  5
2B8
100
AcDbEntity
  8
3301_12M # 4 VERSCHLUSSBALKENWINKEL
390
0
  6
DASHDOT
100
AcDbMText
 10
28.0216981903
 20
53.550759375
 30
0.0
 40
1.275
 41
0.0
 71
         5
 72
         1
  1
\W1.017338;>3301.12L\PM15x15x2 T2 O2
  7
Arial
 73
         1
 44
1.0352941176
  0
ARC
  5
2B9
100
AcDbEntity
  8
3301 VERSCHLUSSBALKENANLENKUNG
390
0
100
AcDbCircle
 10
134.2314574737
 20
105.0961260162
 30
0.0
 40
3.5
100
AcDbArc
 50
179.9999999999
 51
359.9999999999
  0
ARC
  5
2BA
100
AcDbEntity
  8
3301 VERSCHLUSSBALKENANLENKUNG
390
0
100
AcDbCircle
 10
134.2314574737
 20
120.0961260162
 30
0.0
 40
3.5
100
AcDbArc
 50
359.9999999999
 51
539.9999999999
  0
CIRCLE
  5
2BB
100
AcDbEntity
  8
3301_33P # VERSCHLUSSBALKEN
390
0
100
AcDbCircle
 10
143.2314574738
 20
81.0961260157
 30
0.0
 40
1.25
  0
LINE
  5
2BC
100
AcDbEntity
  8
3301 RAHMEN QUER
390
0
  6
DASHED
100
AcDbLine
 10
37.0
 20
167.5
 30
0.0
 11
37.0
 21
109.5
 31
0.0
  0
LINE
  5
2BD
100
AcDbEntity
  8
3301 RAHMEN QUER
390
0
  6
DASHED
100
AcDbLine
 10
41.0
 20
185.0
 30
0.0
 11
41.0
 21
92.0
 31
0.0
  0
LINE
  5
2BE
100
AcDbEntity
  8
3301_31L # SCHIEBERRECHEN
390
0
100
AcDbLine
 10
24.0
 20
158.5
 30
0.0
 11
29.0
 21
158.5
 31
0.0
  0
LINE
  5
2BF
100
AcDbEntity
  8
3301_31L # SCHIEBERRECHEN
390
0
100
AcDbLine
 10
26.0
 20
167.5
 30
0.0
 11
36.0
 21
167.5
 31
0.0
  0
LINE
  5
2C0
100
AcDbEntity
  8
3301_31L # SCHIEBERRECHEN
390
0
100
AcDbLine
 10
36.0
 20
185.0
 30
0.0
 11
36.0
 21
167.5
 31
0.0
  0
LINE
  5
2C1
100
AcDbEntity
  8
3301 RAHMEN QUER
390
0
100
AcDbLine
 10
37.0
 20
109.5
 30
0.0
 11
37.0
 21
92.0
 31
0.0
  0
LINE
  5
2C2
100
AcDbEntity
  8
3301_31L # SCHIEBERRECHEN
390
0
100
AcDbLine
 10
24.0
 20
165.5
 30
0.0
 11
24.0
 21
158.5
 31
0.0
  0
INSERT
  5
2C3
100
AcDbEntity
  8
BEMASSUNG
390
0
100
AcDbBlockReference
  2
D399130368
 10
0.0
 20
0.0
 30
0.0
  0
INSERT
  5
2C4
100
AcDbEntity
  8
BEMASSUNG
390
0
100
AcDbBlockReference
  2
D399130624
 10
0.0
 20
0.0
 30
0.0
  0
INSERT
  5
2C5
100
AcDbEntity
  8
BEMASSUNG
390
0
100
AcDbBlockReference
  2
D399130880
 10
0.0
 20
0.0
 30
0.0
  0
INSERT
  5
2C6
100
AcDbEntity
  8
BEMASSUNG
390
0
100
AcDbBlockReference
  2
D399219712
 10
0.0
 20
0.0
 30
0.0
  0
MTEXT
  5
2C7
100
AcDbEntity
  8
3301___ VERSCHLUSSREGISTER
390
0
  6
DASHDOT
100
AcDbMText
 10
270.7052060629
 20
125.650759375
 30
0.0
 40
1.275
 41
0.0
 71
         5
 72
         1
  1
\W1.017368;>3305.32P\PMÿ6x1 T2 O2
  7
Arial
 73
         1
 44
1.0352941176
  0
MTEXT
  5
2C8
100
AcDbEntity
  8
3301___ VERSCHLUSSREGISTER
390
0
  6
DASHDOT
100
AcDbMText
 10
165.0
 20
127.050759375
 30
0.0
 40
1.275
 41
0.0
 71
         5
 72
         1
  1
\W1.017335;>3301.33Q\PM60x2 T2 O2
  7
Arial
 73
         1
 44
1.0352941176
  0
MTEXT
  5
2C9
100
AcDbEntity
  8
3301___ VERSCHLUSSREGISTER
390
0
  6
DASHDOT
100
AcDbMText
 10
111.0
 20
122.050759375
 30
0.0
 40
1.275
 41
0.0
 71
         5
 72
         1
  1
\W1.017368;>3305.33P\PM28+x2 T2 O2
  7
Arial
 73
         1
 44
1.0352941176
  0
MTEXT
  5
2CA
100
AcDbEntity
  8
3301___ VERSCHLUSSREGISTER
390
0
  6
DASHDOT
100
AcDbMText
 10
63.9211829539
 20
37.550759375
 30
0.0
 40
1.275
 41
0.0
 71
         5
 72
         1
  1
\W1.017337;>3301.14M\PM15x15x1 T2 O2
  7
Arial
 73
         1
 44
1.0352941176
  0
MTEXT
  5
2CB
100
AcDbEntity
  8
3301___ VERSCHLUSSREGISTER
390
0
  6
DASHDOT
100
AcDbMText
 10
66.0
 20
80.050759375
 30
0.0
 40
1.275
 41
0.0
 71
         5
 72
         1
  1
\W1.017338;>3305.14L\PM15x15x1 T2 O2
  7
Arial
 73
         1
 44
1.0352941176
  0
MTEXT
  5
2CC
100
AcDbEntity
  8
3301___ VERSCHLUSSREGISTER
390
0
  6
DASHDOT
100
AcDbMText
 10
64.4087620421
 20
128.050759375
 30
0.0
 40
1.275
 41
0.0
 71
         5
 72
         1
  1
\W1.017337;>3301.13M\PM15x15x2 T2 O2
  7
Arial
 73
         1
 44
1.0352941176
  0
MTEXT
  5
2CD
100
AcDbEntity
  8
3301___ VERSCHLUSSREGISTER
390
0
  6
DASHDOT
100
AcDbMText
 10
66.1966675921
 20
171.050759375
 30
0.0
 40
1.275
 41
0.0
 71
         5
 72
         1
  1
\W1.356604;>3301.13L\PM15x15x2 T2 O2
  7
Arial
 73
         1
 44
1.0352941176
  0
MTEXT
  5
2CE
100
AcDbEntity
  8
3301___ VERSCHLUSSREGISTER
390
0
  6
DASHDOT
100
AcDbMText
 10
16.9471069635
 20
37.050759375
 30
0.0
 40
1.275
 41
0.0
 71
         5
 72
         1
  1
\W1.017337;>3301.12M\PM15x15x2 T2 O2
  7
Arial
 73
         1
 44
1.0352941176
  0
MTEXT
  5
2CF
100
AcDbEntity
  8
3301___ VERSCHLUSSREGISTER
390
0
  6
DASHDOT
100
AcDbMText
 10
17.9773194914
 20
73.550759375
 30
0.0
 40
1.275
 41
0.0
 71
         5
 72
         1
  1
\W1.356604;>3301.12L\PM15x15x2 T2 O2
  7
Arial
 73
         1
 44
1.0352941176
  0
MTEXT
  5
2D0
100
AcDbEntity
  8
3301___ VERSCHLUSSREGISTER
390
0
  6
DASHDOT
100
AcDbMText
 10
16.9379767738
 20
138.550759375
 30
0.0
 40
1.275
 41
0.0
 71
         5
 72
         1
  1
\W1.017338;>3301.31L\PM15x15x2 T2 O2
  7
Arial
 73
         1
 44
1.0352941176
  0
TEXT
  5
2D1
100
AcDbEntity
  8
3301_33Q # VERSCHLUSSBALKEN
390
0
  6
DASHED
100
AcDbText
 10
186.7761216906
 20
76.1198890625
 30
0.0
 40
1.9125
  1
N1
 41
1.3566142192
  7
Arial
 72
         1
 11
189.0
 21
77.0761390625
 31
0.0
100
AcDbText
 73
         2
  0
MTEXT
  5
2D2
100
AcDbEntity
  8
3301_32P # FSTRSCHIEBERANTRIEBSWELLE
390
0
100
AcDbMText
 10
277.0
 20
168.650759375
 30
0.0
 40
1.275
 41
0.0
 71
         5
 72
         1
  1
\W1.017345;Mÿ6x1\PT6 O2 F150\PB-0.3    D4\PI1.6 P4 U20
  7
Arial
 73
         1
 44
1.0352941176
  0
MTEXT
  5
2D3
100
AcDbEntity
  8
3301_33P # VERSCHLUSSBALKEN
390
0
100
AcDbMText
 10
120.2314574737
 20
176.1468853907
 30
0.0
 40
1.275
 41
0.0
 71
         5
 72
         1
  1
\W1.356600;M28+x2 \PT2 O2 F150\PB-0.3    D1.2\PI1.2 P4 U20\P
  7
Arial
 73
         1
 44
1.0352941176
  0
MTEXT
  5
2D4
100
AcDbEntity
  8
3301_33Q # VERSCHLUSSBALKEN
390
0
100
AcDbMText
 10
173.2314574737
 20
176.1468853907
 30
0.0
 40
1.275
 41
0.0
 71
         5
 72
         1
  1
\W1.356599;M60x2 \PT2 O2 F150\PB-0.3    D1.2\PI1.2 P4 U20\P
  7
Arial
 73
         1
 44
1.0352941176
  0
MTEXT
  5
2D5
100
AcDbEntity
  8
3301_31L # SCHIEBERRECHEN
390
0
100
AcDbMText
 10
24.0
 20
186.050759375
 30
0.0
 40
1.275
 41
0.0
 71
         5
 72
         1
  1
\W1.356626;M15x15x2 \PT2 O2 F150\PB-0.3    D1.2\PI1.2 P4 U20
  7
Arial
 73
         1
 44
1.0352941176
  0
TEXT
  5
2D6
100
AcDbEntity
  8
3301_31R # SCHIEBERRECHEN
390
0
100
AcDbText
 10
32.3284926224
 20
185.913259375
 30
0.0
 40
1.275
  1
@3301.31L
 41
1.356588283
  7
Arial
 72
         1
 11
39.0
 21
186.550759375
 31
0.0
100
AcDbText
 73
         2
  0
TEXT
  5
2D7
100
AcDbEntity
  8
3301_12L # VERSCHLUSSBALKENWINKEL
390
0
100
AcDbText
 10
17.3284926224
 20
78.913259375
 30
0.0
 40
1.275
  1
@3301.31L
 41
1.356588283
  7
Arial
 72
         1
 11
24.0
 21
79.550759375
 31
0.0
100
AcDbText
 73
         2
  0
TEXT
  5
2D8
100
AcDbEntity
  8
3301_12R # VERSCHLUSSBALKENWINKEL
390
0
100
AcDbText
 10
32.3284926224
 20
78.913259375
 30
0.0
 40
1.275
  1
@3301.31L
 41
1.356588283
  7
Arial
 72
         1
 11
39.0
 21
79.550759375
 31
0.0
100
AcDbText
 73
         2
  0
TEXT
  5
2D9
100
AcDbEntity
  8
3301_12S # 4 VERSCHLUSSBALKENWINKEL
390
0
100
AcDbText
 10
33.9969610174
 20
58.913259375
 30
0.0
 40
1.275
  1
@3301.31L
 41
1.017320926
  7
Arial
 72
         1
 11
39.0
 21
59.550759375
 31
0.0
100
AcDbText
 73
         2
  0
TEXT
  5
2DA
100
AcDbEntity
  8
3301_12M # 4 VERSCHLUSSBALKENWINKEL
390
0
100
AcDbText
 10
18.9969610174
 20
58.913259375
 30
0.0
 40
1.275
  1
@3301.31L
 41
1.017320926
  7
Arial
 72
         1
 11
24.0
 21
59.550759375
 31
0.0
100
AcDbText
 73
         2
  0
TEXT
  5
2DB
100
AcDbEntity
  8
3301_13R # FSTRSCHIEBERANTRIEBSST‹CK
390
0
100
AcDbText
 10
80.3284926224
 20
176.913259375
 30
0.0
 40
1.275
  1
@3301.31L
 41
1.356588283
  7
Arial
 72
         1
 11
87.0
 21
177.550759375
 31
0.0
100
AcDbText
 73
         2
  0
TEXT
  5
2DC
100
AcDbEntity
  8
3301_13L # FSTRSCHIEBERANTRIEBSST‹CK
390
0
100
AcDbText
 10
65.3284926224
 20
176.913259375
 30
0.0
 40
1.275
  1
@3301.31L
 41
1.356588283
  7
Arial
 72
         1
 11
72.0
 21
177.550759375
 31
0.0
100
AcDbText
 73
         2
  0
TEXT
  5
2DD
100
AcDbEntity
  8
3301_14R # FSTRSCHIEBERANTRIEBSKURBEL
390
0
100
AcDbText
 10
80.3284927145
 20
86.413259375
 30
0.0
 40
1.275
  1
@3301.14L
 41
1.3565882643
  7
Arial
 72
         1
 11
87.0
 21
87.050759375
 31
0.0
100
AcDbText
 73
         2
  0
MTEXT
  5
2DE
100
AcDbEntity
  8
3301_14L # FSTRSCHIEBERANTRIEBSKURBEL
390
0
  6
DASHDOT
100
AcDbMText
 10
72.0
 20
87.050759375
 30
0.0
 40
1.275
 41
0.0
 71
         5
 72
         1
  1
\W1.017356;M15x15x1\PT1 O2 F150\PB-0.3    D0.6\PI1.4 P4 U20
  7
Arial
 73
         1
 44
1.0352941176
  0
TEXT
  5
2DF
100
AcDbEntity
  8
BESCHRIFTUNG
390
0
  6
DASHDOT
100
AcDbText
 10
10.1897686684
 20
176.1198890625
 30
0.0
 40
1.9125
  1
3301.31L,R
 41
1.3565780495
  7
Arial
 72
         1
 11
21.0
 21
177.0761390625
 31
0.0
100
AcDbText
 73
         2
  0
TEXT
  5
2E0
100
AcDbEntity
  8
BESCHRIFTUNG
390
0
  6
DASHDOT
100
AcDbText
 10
10.1897695663
 20
83.1198890625
 30
0.0
 40
1.9125
  1
3301.12L,R
 41
1.3565779368
  7
Arial
 72
         1
 11
21.0
 21
84.0761390625
 31
0.0
100
AcDbText
 73
         2
  0
TEXT
  5
2E1
100
AcDbEntity
  8
BESCHRIFTUNG
390
0
  6
DASHDOT
100
AcDbText
 10
61.1897686684
 20
185.1198890625
 30
0.0
 40
1.9125
  1
3301.13L,R
 41
1.3565780495
  7
Arial
 72
         1
 11
72.0
 21
186.0761390625
 31
0.0
100
AcDbText
 73
         2
  0
TEXT
  5
2E2
100
AcDbEntity
  8
BESCHRIFTUNG
390
0
  6
DASHDOT
100
AcDbText
 10
61.1897688181
 20
95.1198890625
 30
0.0
 40
1.9125
  1
3301.14L,R
 41
1.3565780307
  7
Arial
 72
         1
 11
72.0
 21
96.0761390625
 31
0.0
100
AcDbText
 73
         2
  0
TEXT
  5
2E3
100
AcDbEntity
  8
BESCHRIFTUNG
390
0
  6
DASHDOT
100
AcDbText
 10
61.1898422069
 20
68.1198890625
 30
0.0
 40
1.9125
  1
3301.14M,S
 41
1.3565688211
  7
Arial
 72
         1
 11
72.0
 21
69.0761390625
 31
0.0
100
AcDbText
 73
         2
  0
TEXT
  5
2E4
100
AcDbEntity
  8
BESCHRIFTUNG
390
0
  6
DASHDOT
100
AcDbText
 10
61.1898420634
 20
158.1198890625
 30
0.0
 40
1.9125
  1
3301.13M,S
 41
1.3565688391
  7
Arial
 72
         1
 11
72.0
 21
159.0761390625
 31
0.0
100
AcDbText
 73
         2
  0
TEXT
  5
2E5
100
AcDbEntity
  8
BESCHRIFTUNG
390
0
  6
DASHDOT
100
AcDbText
 10
108.9428650361
 20
187.1198890625
 30
0.0
 40
1.9125
  1
3301.33P
 41
1.3565970126
  7
Arial
 72
         1
 11
118.0
 21
188.0761390625
 31
0.0
100
AcDbText
 73
         2
  0
TEXT
  5
2E6
100
AcDbEntity
  8
BESCHRIFTUNG
390
0
  6
DASHDOT
100
AcDbText
 10
162.3285285028
 20
186.6331469042
 30
0.0
 40
1.9125
  1
3301.33Q
 41
1.3565909689
  7
Arial
 72
         1
 11
171.3856231171
 21
187.5893969042
 31
0.0
100
AcDbText
 73
         2
  0
TEXT
  5
2E7
100
AcDbEntity
  8
BESCHRIFTUNG
390
0
  6
DASHDOT
100
AcDbText
 10
10.1898429244
 20
63.1198890625
 30
0.0
 40
1.9125
  1
3301.12M,S
 41
1.3565687311
  7
Arial
 72
         1
 11
21.0
 21
64.0761390625
 31
0.0
100
AcDbText
 73
         2
  0
TEXT
  5
2E8
100
AcDbEntity
  8
BESCHRIFTUNG
390
0
  6
DASHDOT
100
AcDbText
 10
260.7686705641
 20
177.6331469042
 30
0.0
 40
1.9125
  1
3301.32P/6
 41
1.3565765944
  7
Arial
 72
         1
 11
272.3856231171
 21
178.5893969042
 31
0.0
100
AcDbText
 73
         2
  0
TEXT
  5
2E9
100
AcDbEntity
  8
BESCHRIFTUNG
390
0
  6
DASHDOT
100
AcDbText
 10
133.2605066559
 20
30.0198890629
 30
0.0
 40
1.9125
  1
3301.14µ/4
 41
1.356577086
  7
Arial
 72
         1
 11
144.5407400342
 21
30.9761390629
 31
0.0
100
AcDbText
 73
         2
  0
TEXT
  5
2EA
100
AcDbEntity
  8
3301_13S # 4 FSTRSCHIEBERANTRIEBSST‹CKE
390
0
100
AcDbText
 10
82.4969610174
 20
151.913259375
 30
0.0
 40
1.275
  1
@3301.31L
 41
1.017320926
  7
Arial
 72
         1
 11
87.5
 21
152.550759375
 31
0.0
100
AcDbText
 73
         2
  0
TEXT
  5
2EB
100
AcDbEntity
  8
3301_13M # 4 FSTRSCHIEBERANTRIEBSST‹CKE
390
0
100
AcDbText
 10
67.4969610174
 20
151.913259375
 30
0.0
 40
1.275
  1
@3301.31L
 41
1.017320926
  7
Arial
 72
         1
 11
72.5
 21
152.550759375
 31
0.0
100
AcDbText
 73
         2
  0
TEXT
  5
2EC
100
AcDbEntity
  8
3301_14S # 4 FSTRSCHIEBERANTRIEBSKURBELN
390
0
100
AcDbText
 10
82.4969610864
 20
61.413259375
 30
0.0
 40
1.275
  1
@3301.14L
 41
1.017320912
  7
Arial
 72
         1
 11
87.5
 21
62.050759375
 31
0.0
100
AcDbText
 73
         2
  0
TEXT
  5
2ED
100
AcDbEntity
  8
3301_14M # 4 FSTRSCHIEBERANTRIEBSKURBELN
390
0
100
AcDbText
 10
65.8284927145
 20
61.413259375
 30
0.0
 40
1.275
  1
@3301.14L
 41
1.3565882643
  7
Arial
 72
         1
 11
72.5
 21
62.050759375
 31
0.0
100
AcDbText
 73
         2
  0
LINE
  5
2EE
100
AcDbEntity
  8
3301_31L # SCHIEBERRECHEN
390
0
100
AcDbLine
 10
32.0
 20
153.25
 30
0.0
 11
32.0
 21
156.75
 31
0.0
  0
LINE
  5
2EF
100
AcDbEntity
  8
3301_31L # SCHIEBERRECHEN
390
0
100
AcDbLine
 10
29.0
 20
158.5
 30
0.0
 11
29.0
 21
157.25
 31
0.0
  0
LINE
  5
2F0
100
AcDbEntity
  8
3301_31L # SCHIEBERRECHEN
390
0
100
AcDbLine
 10
24.0
 20
152.0
 30
0.0
 11
28.8977795672
 21
152.0
 31
0.0
  0
LINE
  5
2F1
100
AcDbEntity
  8
3301_31L # SCHIEBERRECHEN
390
0
100
AcDbLine
 10
29.0
 20
157.25
 30
0.0
 11
32.75
 21
157.25
 31
0.0
  0
LINE
  5
2F2
100
AcDbEntity
  8
3301_31L # SCHIEBERRECHEN
390
0
100
AcDbLine
 10
29.8660254038
 20
152.75
 30
0.0
 11
32.75
 21
152.75
 31
0.0
  0
LINE
  5
2F3
100
AcDbEntity
  8
3301_31L # SCHIEBERRECHEN
390
0
100
AcDbLine
 10
24.0
 20
141.0
 30
0.0
 11
24.0
 21
136.5
 31
0.0
  0
LINE
  5
2F4
100
AcDbEntity
  8
3301_31L # SCHIEBERRECHEN
390
0
100
AcDbLine
 10
24.0
 20
152.0
 30
0.0
 11
24.0
 21
147.5
 31
0.0
  0
LINE
  5
2F5
100
AcDbEntity
  8
3301_31L # SCHIEBERRECHEN
390
0
100
AcDbLine
 10
24.0
 20
119.0
 30
0.0
 11
24.0
 21
111.5
 31
0.0
  0
LINE
  5
2F6
100
AcDbEntity
  8
3301_31L # SCHIEBERRECHEN
390
0
100
AcDbLine
 10
24.0
 20
130.0
 30
0.0
 11
24.0
 21
125.5
 31
0.0
  0
LINE
  5
2F7
100
AcDbEntity
  8
3301_31L # SCHIEBERRECHEN
390
0
100
AcDbLine
 10
36.0
 20
109.5
 30
0.0
 11
36.0
 21
92.0
 31
0.0
  0
LINE
  5
2F8
100
AcDbEntity
  8
3301_31L # SCHIEBERRECHEN
390
0
  6
DASHED
100
AcDbLine
 10
32.0
 20
156.75
 30
0.0
 11
32.75
 21
157.25
 31
0.0
  0
LINE
  5
2F9
100
AcDbEntity
  8
3301_31L # SCHIEBERRECHEN
390
0
100
AcDbLine
 10
26.0
 20
109.5
 30
0.0
 11
36.0
 21
109.5
 31
0.0
  0
LINE
  5
2FA
100
AcDbEntity
  8
MITTELLINIEN
390
0
100
AcDbLine
 10
39.0
 20
194.0
 30
0.0
 11
39.0
 21
7.0
 31
0.0
  0
LINE
  5
2FB
100
AcDbEntity
  8
MITTELLINIEN
390
0
100
AcDbLine
 10
24.0
 20
194.0
 30
0.0
 11
24.0
 21
7.0
 31
0.0
  0
LINE
  5
2FC
100
AcDbEntity
  8
MITTELLINIEN
390
0
100
AcDbLine
 10
54.0
 20
194.0
 30
0.0
 11
54.0
 21
7.0
 31
0.0
  0
LINE
  5
2FD
100
AcDbEntity
  8
MITTELLINIEN
390
0
100
AcDbLine
 10
120.2314574737
 20
180.5961260153
 30
0.0
 11
120.2314574737
 21
71.5961260162
 31
0.0
  0
LINE
  5
2FE
100
AcDbEntity
  8
MITTELLINIEN
390
0
100
AcDbLine
 10
148.2314574738
 20
180.5961260153
 30
0.0
 11
148.2314574738
 21
71.5961260162
 31
0.0
  0
LINE
  5
2FF
100
AcDbEntity
  8
MITTELLINIEN
390
0
100
AcDbLine
 10
173.7314574737
 20
180.5961260153
 30
0.0
 11
173.7314574737
 21
71.5961260162
 31
0.0
  0
LINE
  5
300
100
AcDbEntity
  8
MITTELLINIEN
390
0
100
AcDbLine
 10
233.7314574737
 20
180.5961260153
 30
0.0
 11
233.7314574737
 21
71.5961260162
 31
0.0
  0
LINE
  5
301
100
AcDbEntity
  8
MITTELLINIEN
390
0
100
AcDbLine
 10
277.0
 20
172.6
 30
0.0
 11
277.0
 21
78.6
 31
0.0
  0
LINE
  5
302
100
AcDbEntity
  8
MITTELLINIEN
390
0
100
AcDbLine
 10
87.0
 20
183.0
 30
0.0
 11
87.0
 21
5.0
 31
0.0
  0
LINE
  5
303
100
AcDbEntity
  8
MITTELLINIEN
390
0
100
AcDbLine
 10
72.0
 20
183.0
 30
0.0
 11
72.0
 21
5.0
 31
0.0
  0
LINE
  5
304
100
AcDbEntity
  8
MITTELLINIEN
390
0
100
AcDbLine
 10
102.0
 20
183.0
 30
0.0
 11
102.0
 21
5.0
 31
0.0
  0
LINE
  5
305
100
AcDbEntity
  8
MITTELLINIEN
390
0
100
AcDbLine
 10
142.0
 20
25.0
 30
0.0
 11
142.0
 21
7.0000000004
 31
0.0
  0
CIRCLE
  5
306
100
AcDbEntity
  8
3301_33P # VERSCHLUSSBALKEN
390
0
100
AcDbCircle
 10
134.2314574737
 20
132.0961260163
 30
0.0
 40
1.25
  0
CIRCLE
  5
307
100
AcDbEntity
  8
3301_33P # VERSCHLUSSBALKEN
390
0
100
AcDbCircle
 10
134.2314574737
 20
147.0961260162
 30
0.0
 40
1.25
  0
CIRCLE
  5
308
100
AcDbEntity
  8
3301_33P # VERSCHLUSSBALKEN
390
0
100
AcDbCircle
 10
134.2314574737
 20
171.0961260162
 30
0.0
 40
1.25
  0
CIRCLE
  5
309
100
AcDbEntity
  8
3301_33P # VERSCHLUSSBALKEN
390
0
100
AcDbCircle
 10
134.2314574737
 20
156.0961260163
 30
0.0
 40
1.25
  0
ARC
  5
30A
100
AcDbEntity
  8
3301 VERSCHLUSSBALKENANLENKUNG
390
0
100
AcDbCircle
 10
134.2314574737
 20
81.0961260162
 30
0.0
 40
3.5
100
AcDbArc
 50
179.9999999999
 51
359.9999999999
  0
ARC
  5
30B
100
AcDbEntity
  8
3301 VERSCHLUSSBALKENANLENKUNG
390
0
100
AcDbCircle
 10
134.2314574737
 20
96.0961260162
 30
0.0
 40
3.5
100
AcDbArc
 50
359.9999999999
 51
539.9999999999
  0
ARC
  5
30C
100
AcDbEntity
  8
3301 RAHMEN QUER
390
0
100
AcDbCircle
 10
53.0
 20
174.0
 30
0.0
 40
1.0
100
AcDbArc
 50
270.0
 51
360.0
  0
ARC
  5
30D
100
AcDbEntity
  8
3301 RAHMEN QUER
390
0
100
AcDbCircle
 10
44.0
 20
172.0
 30
0.0
 40
1.0
100
AcDbArc
 50
90.0
 51
180.0
  0
ARC
  5
30E
100
AcDbEntity
  8
3301 RAHMEN QUER
390
0
100
AcDbCircle
 10
44.0
 20
105.0
 30
0.0
 40
1.0
100
AcDbArc
 50
180.0
 51
270.0
  0
ARC
  5
30F
100
AcDbEntity
  8
3301 RAHMEN QUER
390
0
100
AcDbCircle
 10
53.0
 20
103.0
 30
0.0
 40
1.0
100
AcDbArc
 50
0.0
 51
90.0
  0
ARC
  5
310
100
AcDbEntity
  8
3301 RAHMEN QUER
390
0
100
AcDbCircle
 10
32.75
 20
152.75
 30
0.0
 40
1.0
100
AcDbArc
 50
270.0
 51
435.5224878141
  0
ARC
  5
311
100
AcDbEntity
  8
3301 RAHMEN QUER
390
0
100
AcDbCircle
 10
29.0
 20
147.5
 30
0.0
 40
1.0
100
AcDbArc
 50
360.0
 51
450.0
  0
ARC
  5
312
100
AcDbEntity
  8
3301 RAHMEN QUER
390
0
100
AcDbCircle
 10
29.0
 20
141.0
 30
0.0
 40
1.0
100
AcDbArc
 50
270.0
 51
330.0
  0
ARC
  5
313
100
AcDbEntity
  8
3301 RAHMEN QUER
390
0
100
AcDbCircle
 10
29.0
 20
136.5
 30
0.0
 40
1.0
100
AcDbArc
 50
360.0
 51
450.0
  0
ARC
  5
314
100
AcDbEntity
  8
3301 RAHMEN QUER
390
0
100
AcDbCircle
 10
29.0
 20
130.0
 30
0.0
 40
1.0
100
AcDbArc
 50
270.0
 51
330.0
  0
ARC
  5
315
100
AcDbEntity
  8
3301 RAHMEN QUER
390
0
100
AcDbCircle
 10
29.0
 20
125.5
 30
0.0
 40
1.0
100
AcDbArc
 50
360.0
 51
450.0
  0
ARC
  5
316
100
AcDbEntity
  8
3301 RAHMEN QUER
390
0
100
AcDbCircle
 10
29.0
 20
119.0
 30
0.0
 40
1.0
100
AcDbArc
 50
270.0
 51
330.0
  0
LINE
  5
317
100
AcDbEntity
  8
STANDARD
390
0
100
AcDbLine
 10
292.0
 20
200.0
 30
0.0
 11
5.0
 21
200.0
 31
0.0
  0
LINE
  5
318
100
AcDbEntity
  8
STANDARD
390
0
100
AcDbLine
 10
10.0
 20
195.0
 30
0.0
 11
10.0
 21
5.0
 31
0.0
  0
LINE
  5
319
100
AcDbEntity
  8
STANDARD
390
0
100
AcDbLine
 10
5.0
 20
200.0
 30
0.0
 11
5.0
 21
195.0
 31
0.0
  0
LINE
  5
31A
100
AcDbEntity
  8
STANDARD
390
0
100
AcDbLine
 10
292.0
 20
200.0
 30
0.0
 11
292.0
 21
195.0
 31
0.0
  0
LINE
  5
31B
100
AcDbEntity
  8
STANDARD
390
0
100
AcDbLine
 10
52.8333333333
 20
200.0
 30
0.0
 11
52.8333333333
 21
195.0
 31
0.0
  0
LINE
  5
31C
100
AcDbEntity
  8
STANDARD
390
0
100
AcDbLine
 10
100.6666666667
 20
200.0
 30
0.0
 11
100.6666666667
 21
195.0
 31
0.0
  0
LINE
  5
31D
100
AcDbEntity
  8
STANDARD
390
0
100
AcDbLine
 10
148.5
 20
200.0
 30
0.0
 11
148.5
 21
195.0
 31
0.0
  0
LINE
  5
31E
100
AcDbEntity
  8
STANDARD
390
0
100
AcDbLine
 10
196.3333333333
 20
200.0
 30
0.0
 11
196.3333333333
 21
195.0
 31
0.0
  0
LINE
  5
31F
100
AcDbEntity
  8
STANDARD
390
0
100
AcDbLine
 10
244.1666666667
 20
200.0
 30
0.0
 11
244.1666666667
 21
195.0
 31
0.0
  0
LINE
  5
320
100
AcDbEntity
  8
STANDARD
390
0
100
AcDbLine
 10
5.0
 20
52.5
 30
0.0
 11
10.0
 21
52.5
 31
0.0
  0
LINE
  5
321
100
AcDbEntity
  8
STANDARD
390
0
100
AcDbLine
 10
5.0
 20
100.0
 30
0.0
 11
10.0
 21
100.0
 31
0.0
  0
LINE
  5
322
100
AcDbEntity
  8
STANDARD
390
0
100
AcDbLine
 10
5.0
 20
147.5
 30
0.0
 11
10.0
 21
147.5
 31
0.0
  0
TEXT
  5
323
100
AcDbEntity
  8
STANDARD
390
0
100
AcDbText
 10
27.6214908115
 20
196.4732039063
 30
0.0
 40
2.23125
  1
1
 41
1.5479225906
  7
Arial
 72
         1
 11
28.9166666667
 21
196.4732039063
 31
0.0
100
AcDbText
  0
TEXT
  5
324
100
AcDbEntity
  8
STANDARD
390
0
100
AcDbText
 10
75.0230999712
 20
196.4732039063
 30
0.0
 40
2.23125
  1
2
 41
1.5479215945
  7
Arial
 72
         1
 11
76.75
 21
196.4732039063
 31
0.0
100
AcDbText
  0
TEXT
  5
325
100
AcDbEntity
  8
STANDARD
390
0
100
AcDbText
 10
122.8564319709
 20
196.4732039063
 30
0.0
 40
2.23125
  1
3
 41
1.5479227899
  7
Arial
 72
         1
 11
124.5833333333
 21
196.4732039063
 31
0.0
100
AcDbText
  0
TEXT
  5
326
100
AcDbEntity
  8
STANDARD
390
0
100
AcDbText
 10
170.6897655265
 20
196.4732039063
 30
0.0
 40
2.23125
  1
4
 41
1.5479225906
  7
Arial
 72
         1
 11
172.4166666667
 21
196.4732039063
 31
0.0
100
AcDbText
  0
TEXT
  5
327
100
AcDbEntity
  8
STANDARD
390
0
100
AcDbText
 10
218.5230997489
 20
196.4732039063
 30
0.0
 40
2.23125
  1
5
 41
1.5479217937
  7
Arial
 72
         1
 11
220.25
 21
196.4732039063
 31
0.0
100
AcDbText
  0
TEXT
  5
328
100
AcDbEntity
  8
STANDARD
390
0
100
AcDbText
 10
266.3564321932
 20
196.4732039063
 30
0.0
 40
2.23125
  1
6
 41
1.5479225906
  7
Arial
 72
         1
 11
268.0833333333
 21
196.4732039063
 31
0.0
100
AcDbText
  0
TEXT
  5
329
100
AcDbEntity
  8
STANDARD
390
0
100
AcDbText
 10
5.773027185
 20
172.7232039063
 30
0.0
 40
2.23125
  1
A
 41
1.547986837
  7
Arial
 72
         1
 11
7.5
 21
172.7232039063
 31
0.0
100
AcDbText
  0
TEXT
  5
32A
100
AcDbEntity
  8
STANDARD
390
0
100
AcDbText
 10
5.7730267401
 20
125.2232039063
 30
0.0
 40
2.23125
  1
B
 41
1.5479872357
  7
Arial
 72
         1
 11
7.5
 21
125.2232039063
 31
0.0
100
AcDbText
  0
TEXT
  5
32B
100
AcDbEntity
  8
STANDARD
390
0
100
AcDbText
 10
5.7728972752
 20
77.7232039063
 30
0.0
 40
2.23125
  1
C
 41
1.5481032827
  7
Arial
 72
         1
 11
7.5
 21
77.7232039063
 31
0.0
100
AcDbText
  0
TEXT
  5
32C
100
AcDbEntity
  8
STANDARD
390
0
100
AcDbText
 10
5.7728964192
 20
30.2232039062
 30
0.0
 40
2.23125
  1
D
 41
1.54810405
  7
Arial
 72
         1
 11
7.5
 21
30.2232039062
 31
0.0
100
AcDbText
  0
LINE
  5
32D
100
AcDbEntity
  8
STANDARD
390
0
100
AcDbLine
 10
5.0
 20
5.0
 30
0.0
 11
10.0
 21
5.0
 31
0.0
  0
LINE
  5
32E
100
AcDbEntity
  8
STANDARD
390
0
100
AcDbLine
 10
292.0
 20
5.0
 30
0.0
 11
292.0
 21
195.0
 31
0.0
  0
LINE
  5
32F
100
AcDbEntity
  8
STANDARD
390
0
100
AcDbLine
 10
292.0
 20
195.0
 30
0.0
 11
10.0
 21
195.0
 31
0.0
  0
LINE
  5
330
100
AcDbEntity
  8
STANDARD
390
0
100
AcDbLine
 10
5.0
 20
195.0
 30
0.0
 11
5.0
 21
5.0
 31
0.0
  0
LINE
  5
331
100
AcDbEntity
  8
STANDARD
390
0
100
AcDbLine
 10
296.0
 20
209.0
 30
0.0
 11
1.0
 21
209.0
 31
0.0
  0
LINE
  5
332
100
AcDbEntity
  8
STANDARD
390
0
100
AcDbLine
 10
296.0
 20
1.0
 30
0.0
 11
296.0
 21
209.0
 31
0.0
  0
LINE
  5
333
100
AcDbEntity
  8
STANDARD
390
0
100
AcDbLine
 10
1.0
 20
1.0
 30
0.0
 11
296.0
 21
1.0
 31
0.0
  0
LINE
  5
334
100
AcDbEntity
  8
STANDARD
390
0
100
AcDbLine
 10
1.0
 20
209.0
 30
0.0
 11
1.0
 21
1.0
 31
0.0
  0
LINE
  5
335
100
AcDbEntity
  8
STANDARD
390
0
100
AcDbLine
 10
10.0
 20
195.0
 30
0.0
 11
5.0
 21
195.0
 31
0.0
  0
LINE
  5
336
100
AcDbEntity
  8
STANDARD
390
0
100
AcDbLine
 10
10.0
 20
5.0
 30
0.0
 11
292.0
 21
5.0
 31
0.0
  0
MTEXT
  5
337
100
AcDbEntity
  8
STANDARD
390
0
100
AcDbMText
 10
215.5777227339
 20
6.520569157
 30
0.0
 40
1.59375
 41
0.0
 71
         7
 72
         1
  1

  7
Arial
 73
         1
 44
1.0352941176
  0
MTEXT
  5
338
100
AcDbEntity
  8
STANDARD
390
0
100
AcDbMText
 10
269.4128856935
 20
6.5165742187
 30
0.0
 40
1.59375
 41
0.0
 71
         7
 72
         1
  1

  7
Arial
 73
         1
 44
1.0352941176
  0
MTEXT
  5
339
100
AcDbEntity
  8
STANDARD
390
0
100
AcDbMText
 10
171.2439051502
 20
6.520569157
 30
0.0
 40
1.59375
 41
0.0
 71
         7
 72
         1
  1

  7
Arial
 73
         1
 44
1.0352941176
  0
TEXT
  5
33A
100
AcDbEntity
  8
BESCHRIFTUNG
390
0
100
AcDbText
 10
169.1145333333
 20
29.1386
 30
0.0
 40
3.3
  1
Stellwerk HMM
 41
1.3758039542
 51
15.0
  7
Arial
 11
169.1145333333
 21
32.4386
 31
0.0
100
AcDbText
 73
         3
  0
MTEXT
  5
33B
100
AcDbEntity
  8
BESCHRIFTUNG
390
0
100
AcDbMText
 10
215.5344888889
 20
24.9601111111
 30
0.0
 40
3.3
 41
0.0
 71
         1
 72
         1
  1
\W1.130224;Verschlussregister JE\PQuerteile B=4
  7
Arial
 73
         1
 44
0.7272727273
  0
TEXT
  5
33C
100
AcDbEntity
  8
BESCHRIFTUNG
390
0
100
AcDbText
 10
169.1145333333
 20
6.9230888889
 30
0.0
 40
3.3
  1
Dateiname
 41
1.1437088374
 51
15.0
  7
Arial
 11
169.1145333333
 21
10.2230888889
 31
0.0
100
AcDbText
 73
         3
  0
TEXT
  5
33D
100
AcDbEntity
  8
BESCHRIFTUNG
390
0
100
AcDbText
 10
169.3344888889
 20
21.6601111111
 30
0.0
 40
3.3
  1
Bl. 3301 P.7h
 41
1.1437203789
 51
15.0
  7
Arial
 11
169.3344888889
 21
24.9601111111
 31
0.0
100
AcDbText
 73
         3
  0
TEXT
  5
33E
100
AcDbEntity
  8
BESCHRIFTUNG
390
0
100
AcDbText
 10
253.1145333333
 20
29.1386
 30
0.0
 40
3.3
  1
Maﬂstab 1:1
 41
1.1437192123
 51
15.0
  7
Arial
 11
253.1145333333
 21
32.4386
 31
0.0
100
AcDbText
 73
         3
  0
LINE
  5
33F
100
AcDbEntity
  8
STANDARD
370
         0
390
0
100
AcDbLine
 10
214.2194301994
 20
34.4
 30
0.0
 11
214.2194301994
 21
5.0
 31
0.0
  0
LINE
  5
340
100
AcDbEntity
  8
STANDARD
370
         0
390
0
100
AcDbLine
 10
168.0194301994
 20
34.4
 30
0.0
 11
291.9134472934
 21
34.4
 31
0.0
  0
LINE
  5
341
100
AcDbEntity
  8
STANDARD
370
         0
390
0
100
AcDbLine
 10
168.0194301994
 20
27.4
 30
0.0
 11
291.9134472934
 21
27.4
 31
0.0
  0
LINE
  5
342
100
AcDbEntity
  8
STANDARD
370
         0
390
0
100
AcDbLine
 10
168.0194301994
 20
12.0
 30
0.0
 11
291.9134472934
 21
12.0
 31
0.0
  0
LINE
  5
343
100
AcDbEntity
  8
STANDARD
370
         0
390
0
100
AcDbLine
 10
168.0194301994
 20
34.4
 30
0.0
 11
168.0194301994
 21
5.0
 31
0.0
  0
LINE
  5
344
100
AcDbEntity
  8
STANDARD
370
         0
390
0
100
AcDbLine
 10
252.0194301994
 20
34.4
 30
0.0
 11
252.0194301994
 21
27.4
 31
0.0
  0
ENDSEC
  0
SECTION
  2
OBJECTS
  0
DICTIONARY
  5
19
100
AcDbDictionary
280
         0
281
         1
  3
ACAD_GROUP
350
1A
  3
ACAD_MLINESTYLE
350
1B
  3
ACAD_LAYOUT
350
1E
  3
ACAD_PLOTSETTINGS
350
22
  3
ACAD_PLOTSTYLENAME
350
1F
  3
ACAD_WIPEOUT_VARS
350
23
  0
DICTIONARY
  5
1A
102
{ACAD_REACTORS
330
19
102
}
100
AcDbDictionary
280
         0
281
         1
  0
DICTIONARY
  5
1B
102
{ACAD_REACTORS
330
19
102
}
100
AcDbDictionary
280
         0
281
         1
  3
Standard
350
1C
  0
MLINESTYLE
  5
1C
102
{ACAD_REACTORS
330
1B
102
}
100
AcDbMlineStyle
  2
Standard
 70
         0
  3

 62
         0
 51
90.0
 52
90.0
 71
         2
 49
0.5
 62
       256
  6
ByLayer
 49
-0.5
 62
       256
  6
ByLayer
  0
ACDBDICTIONARYWDFLT
  5
1F
102
{ACAD_REACTORS
330
19
102
}
100
AcDbDictionary
281
         1
  3
Normal
350
1D
100
AcDbDictionaryWithDefault
340
1D
  0
ACDBPLACEHOLDER
  5
1D
102
{ACAD_REACTORS
330
1F
102
}
  0
LAYOUT
  5
20
102
{ACAD_REACTORS
330
1E
102
}
100
AcDbPlotSettings
  1

  2

  4

  6

 40
0.0
 41
0.0
 42
0.0
 43
0.0
 44
0.0
 45
0.0
 46
0.0
 47
0.0
 48
0.0
 49
0.0
140
0.0
141
0.0
142
1.0
143
1.0
 70
      1024
 72
         0
 73
         0
 74
         0
  7

 75
         0
147
1.0
148
0.0
149
0.0
100
AcDbLayout
  1
Model
 70
         0
 71
         0
 10
0.0
 20
0.0
 11
0.0
 21
0.0
 12
0.0
 22
0.0
 32
0.0
 14
0.0
 24
0.0
 34
0.0
 15
0.0
 25
0.0
 35
0.0
146
0.0
 13
0.0
 23
0.0
 33
0.0
 16
0.0
 26
0.0
 36
0.0
 17
0.0
 27
0.0
 37
0.0
 76
         0
330
A
331
0
345
0
346
0
  0
LAYOUT
  5
21
102
{ACAD_REACTORS
330
1E
102
}
100
AcDbPlotSettings
  1

  2

  4

  6

 40
0.0
 41
0.0
 42
0.0
 43
0.0
 44
0.0
 45
0.0
 46
0.0
 47
0.0
 48
0.0
 49
0.0
140
0.0
141
0.0
142
1.0
143
1.0
 70
         0
 72
         0
 73
         0
 74
         0
  7

 75
         0
147
1.0
148
0.0
149
0.0
100
AcDbLayout
  1
Layout1
 70
         0
 71
         0
 10
0.0
 20
0.0
 11
0.0
 21
0.0
 12
0.0
 22
0.0
 32
0.0
 14
0.0
 24
0.0
 34
0.0
 15
0.0
 25
0.0
 35
0.0
146
0.0
 13
0.0
 23
0.0
 33
0.0
 16
0.0
 26
0.0
 36
0.0
 17
0.0
 27
0.0
 37
0.0
 76
         0
330
B
331
0
345
0
346
0
  0
DICTIONARY
  5
1E
102
{ACAD_REACTORS
330
19
102
}
100
AcDbDictionary
280
         0
281
         1
  3
Layout1
350
21
  3
Model
350
20
  0
DICTIONARY
  5
22
102
{ACAD_REACTORS
330
19
102
}
100
AcDbDictionary
280
         0
281
         1
  0
WIPEOUTVARIABLES
  5
23
100
AcDbWipeoutVariables
 70
         1
  0
ENDSEC
  0
EOF
