  0
SECTION
  2
HEADER
  9
$ACADVER
  1
AC1015
  9
$ACADMAINTVER
 70
         6
  9
$DWGCODEPAGE
  3
ANSI_1252
  9
$INSBASE
 10
0.0
 20
0.0
 30
0.0
  9
$EXTMIN
 10
0.0
 20
0.0
 30
0.0
  9
$EXTMAX
 10
297.0
 20
210.0
 30
0.0
  9
$LIMMIN
 10
0.0
 20
0.0
  9
$LIMMAX
 10
297.0
 20
210.0
  9
$ORTHOMODE
 70
         0
  9
$REGENMODE
 70
         1
  9
$FILLMODE
 70
         1
  9
$QTEXTMODE
 70
         0
  9
$MIRRTEXT
 70
         1
  9
$LTSCALE
 40
7.425
  9
$ATTMODE
 70
         1
  9
$TEXTSIZE
 40
0.2
  9
$TRACEWID
 40
0.05
  9
$TEXTSTYLE
  7
Standard
  9
$CLAYER
  8
0
  9
$CELTYPE
  6
CONTINUOUS
  9
$CECOLOR
 62
       256
  9
$CELTSCALE
 40
1.0
  9
$DISPSILH
 70
         0
  9
$DIMSCALE
 40
1.0
  9
$DIMASZ
 40
0.18
  9
$DIMEXO
 40
0.0625
  9
$DIMDLI
 40
0.38
  9
$DIMRND
 40
0.0
  9
$DIMDLE
 40
0.0
  9
$DIMEXE
 40
0.18
  9
$DIMTP
 40
0.0
  9
$DIMTM
 40
0.0
  9
$DIMTXT
 40
3.0
  9
$DIMCEN
 40
0.09
  9
$DIMTSZ
 40
0.0
  9
$DIMTOL
 70
         0
  9
$DIMLIM
 70
         0
  9
$DIMTIH
 70
         1
  9
$DIMTOH
 70
         1
  9
$DIMSE1
 70
         0
  9
$DIMSE2
 70
         0
  9
$DIMTAD
 70
         1
  9
$DIMZIN
 70
         0
  9
$DIMBLK
  1

  9
$DIMASO
 70
         1
  9
$DIMSHO
 70
         1
  9
$DIMPOST
  1
<>
  9
$DIMAPOST
  1

  9
$DIMALT
 70
         0
  9
$DIMALTD
 70
         2
  9
$DIMALTF
 40
25.4
  9
$DIMLFAC
 40
1.0
  9
$DIMTOFL
 70
         0
  9
$DIMTVP
 40
0.0
  9
$DIMTIX
 70
         0
  9
$DIMSOXD
 70
         0
  9
$DIMSAH
 70
         0
  9
$DIMBLK1
  1

  9
$DIMBLK2
  1

  9
$DIMSTYLE
  2
Standard
  9
$DIMCLRD
 70
         0
  9
$DIMCLRE
 70
         0
  9
$DIMCLRT
 70
         0
  9
$DIMTFAC
 40
1.0
  9
$DIMGAP
 40
0.09
  9
$DIMJUST
 70
         0
  9
$DIMSD1
 70
         0
  9
$DIMSD2
 70
         0
  9
$DIMTOLJ
 70
         1
  9
$DIMTZIN
 70
         0
  9
$DIMALTZ
 70
         0
  9
$DIMALTTZ
 70
         0
  9
$DIMUPT
 70
         0
  9
$DIMDEC
 70
         4
  9
$DIMTDEC
 70
         4
  9
$DIMALTU
 70
         2
  9
$DIMALTTD
 70
         2
  9
$DIMTXSTY
  7
Standard
  9
$DIMAUNIT
 70
         0
  9
$DIMADEC
 70
         0
  9
$DIMALTRND
 40
0.0
  9
$DIMAZIN
 70
         0
  9
$DIMDSEP
 70
         0
  9
$DIMATFIT
 70
         3
  9
$DIMFRAC
 70
         0
  9
$DIMLDRBLK
  1

  9
$DIMLUNIT
 70
         2
  9
$DIMLWD
 70
         0
  9
$DIMLWE
 70
         0
  9
$DIMTMOVE
 70
         0
  9
$LUNITS
 70
         2
  9
$LUPREC
 70
         4
  9
$SKETCHINC
 40
0.1
  9
$FILLETRAD
 40
0.0
  9
$AUNITS
 70
         0
  9
$AUPREC
 70
         0
  9
$MENU
  1
acad
  9
$ELEVATION
 40
0.0
  9
$PELEVATION
 40
0.0
  9
$THICKNESS
 40
0.0
  9
$LIMCHECK
 70
         0
  9
$CHAMFERA
 40
0.0
  9
$CHAMFERB
 40
0.0
  9
$CHAMFERC
 40
0.0
  9
$CHAMFERD
 40
0.0
  9
$SKPOLY
 70
         0
  9
$TDCREATE
 40
0.000000000
  9
$TDUCREATE
 40
0.000000000
  9
$TDUPDATE
 40
0.000000000
  9
$TDUUPDATE
 40
0.000000000
  9
$TDINDWG
 40
0.0000000000
  9
$TDUSRTIMER
 40
0.0000000000
  9
$USRTIMER
 70
         1
  9
$ANGBASE
 50
0.0
  9
$ANGDIR
 70
         0
  9
$PDMODE
 70
         0
  9
$PDSIZE
 40
0.0
  9
$PLINEWID
 40
0.0
  9
$SPLFRAME
 70
         0
  9
$SPLINETYPE
 70
         6
  9
$SPLINESEGS
 70
         8
  9
$HANDSEED
  5
207
  9
$SURFTAB1
 70
         6
  9
$SURFTAB2
 70
         6
  9
$SURFTYPE
 70
         6
  9
$SURFU
 70
         6
  9
$SURFV
 70
         6
  9
$UCSBASE
  2

  9
$UCSNAME
  2

  9
$UCSORG
 10
0.0
 20
0.0
 30
0.0
  9
$UCSXDIR
 10
1.0
 20
0.0
 30
0.0
  9
$UCSYDIR
 10
0.0
 20
1.0
 30
0.0
  9
$UCSORTHOREF
  2

  9
$UCSORTHOVIEW
 70
         0
  9
$UCSORGTOP
 10
0.0
 20
0.0
 30
0.0
  9
$UCSORGBOTTOM
 10
0.0
 20
0.0
 30
0.0
  9
$UCSORGLEFT
 10
0.0
 20
0.0
 30
0.0
  9
$UCSORGRIGHT
 10
0.0
 20
0.0
 30
0.0
  9
$UCSORGFRONT
 10
0.0
 20
0.0
 30
0.0
  9
$UCSORGBACK
 10
0.0
 20
0.0
 30
0.0
  9
$PUCSBASE
  2

  9
$PUCSNAME
  2

  9
$PUCSORG
 10
0.0
 20
0.0
 30
0.0
  9
$PUCSXDIR
 10
1.0
 20
0.0
 30
0.0
  9
$PUCSYDIR
 10
0.0
 20
1.0
 30
0.0
  9
$PUCSORTHOREF
  2

  9
$PUCSORTHOVIEW
 70
         0
  9
$PUCSORGTOP
 10
0.0
 20
0.0
 30
0.0
  9
$PUCSORGBOTTOM
 10
0.0
 20
0.0
 30
0.0
  9
$PUCSORGLEFT
 10
0.0
 20
0.0
 30
0.0
  9
$PUCSORGRIGHT
 10
0.0
 20
0.0
 30
0.0
  9
$PUCSORGFRONT
 10
0.0
 20
0.0
 30
0.0
  9
$PUCSORGBACK
 10
0.0
 20
0.0
 30
0.0
  9
$USERI1
 70
         0
  9
$USERI2
 70
         0
  9
$USERI3
 70
         0
  9
$USERI4
 70
         0
  9
$USERI5
 70
         0
  9
$USERR1
 40
0.0
  9
$USERR2
 40
0.0
  9
$USERR3
 40
0.0
  9
$USERR4
 40
0.0
  9
$USERR5
 40
0.0
  9
$WORLDVIEW
 70
         1
  9
$SHADEDGE
 70
         3
  9
$SHADEDIF
 70
        70
  9
$TILEMODE
 70
         1
  9
$MAXACTVP
 70
        16
  9
$PINSBASE
 10
0.0
 20
0.0
 30
0.0
  9
$PLIMCHECK
 70
         0
  9
$PEXTMIN
 10
1.0000000000E+20
 20
1.0000000000E+20
 30
1.0000000000E+20
  9
$PEXTMAX
 10
-1.0000000000E+20
 20
-1.0000000000E+20
 30
-1.0000000000E+20
  9
$PLIMMIN
 10
0.0
 20
0.0
  9
$PLIMMAX
 10
12.0
 20
9.0
  9
$UNITMODE
 70
         0
  9
$VISRETAIN
 70
         0
  9
$PLINEGEN
 70
         1
  9
$PSLTSCALE
 70
         0
  9
$TREEDEPTH
 70
      3020
  9
$CMLSTYLE
  2
Standard
  9
$CMLJUST
 70
         0
  9
$CMLSCALE
 40
1.0
  9
$PROXYGRAPHICS
 70
         0
  9
$MEASUREMENT
 70
         1
  9
$CELWEIGHT
370
         0
  9
$ENDCAPS
280
         0
  9
$JOINSTYLE
280
         0
  9
$LWDISPLAY
290
         0
  9
$INSUNITS
 70
         0
  9
$HYPERLINKBASE
  1

  9
$STYLESHEET
  1

  9
$XEDIT
290
         1
  9
$CEPSNTYPE
380
         0
  9
$PSTYLEMODE
290
         1
  9
$FINGERPRINTGUID
  2

  9
$VERSIONGUID
  2

  9
$EXTNAMES
290
         1
  9
$PSVPSCALE
 40
0.0
  0
ENDSEC
  0
SECTION
  2
CLASSES
  0
CLASS
  1
LWPOLYLINE
  2
AcDbPolyline
  3
AutoCAD 2000
 90
        0
280
         0
281
         1
  0
CLASS
  1
IMAGE
  2
AcDbRasterImage
  3
ISM
 90
      127
280
         0
281
         1
  0
CLASS
  1
OLE2FRAME
  2
AcDbOle2Frame
  3
AutoCAD 2000
 90
        0
280
         0
281
         1
  0
CLASS
  1
HATCH
  2
AcDbHatch
  3
AutoCAD 2000
 90
        0
280
         0
281
         1
  0
CLASS
  1
DICTIONARYVAR
  2
AcDbDictionaryVar
  3
AutoCAD 2000
 90
        0
280
         0
281
         0
  0
CLASS
  1
RASTERVARIABLES
  2
AcDbRasterVariables
  3
ISM
 90
        0
280
         0
281
         0
  0
CLASS
  1
IMAGEDEF
  2
AcDbRasterImageDef
  3
ISM
 90
        0
280
         0
281
         0
  0
CLASS
  1
IMAGEDEF_REACTOR
  2
AcDbRasterImageDefReactor
  3
ISM
 90
        1
280
         0
281
         0
  0
CLASS
  1
IDBUFFER
  2
AcDbIdBuffer
  3
AutoCAD 2000
 90
        0
280
         0
281
         0
  0
CLASS
  1
SPATIAL_FILTER
  2
AcDbSpatialFilter
  3
AutoCAD 2000
 90
        0
280
         0
281
         0
  0
CLASS
  1
XRECORD
  2
AcDbXrecord
  3
AutoCAD 2000
 90
        0
280
         0
281
         0
  0
CLASS
  1
SORTENTSTABLE
  2
AcDbSortentsTable
  3
AutoCAD 2000
 90
        0
280
         0
281
         0
  0
CLASS
  1
LAYER_INDEX
  2
AcDbLayerIndex
  3
AutoCAD 2000
 90
        0
280
         0
281
         0
  0
CLASS
  1
SPATIAL_INDEX
  2
AcDbSpatialIndex
  3
AutoCAD 2000
 90
        0
280
         0
281
         0
  0
CLASS
  1
OBJECT_PTR
  2
CAseDLPNTableRecord
  3
"ASE-LPNTableRecord"
 90
        1
280
         0
281
         0
  0
CLASS
  1
LAYOUT
  2
AcDbLayout
  3
AutoCAD 2000
 90
        0
280
         0
281
         0
  0
CLASS
  1
PLOTSETTINGS
  2
AcDbPlotSettings
  3
AutoCAD 2000
 90
        0
280
         0
281
         0
  0
CLASS
  1
ACDBDICTIONARYWDFLT
  2
AcDbDictionaryWithDefault
  3
AutoCAD 2000
 90
        0
280
         0
281
         0
  0
CLASS
  1
ACDBPLACEHOLDER
  2
AcDbPlaceHolder
  3
AutoCAD 2000
 90
        0
280
         0
281
         0
  0
CLASS
  1
VBA_PROJECT
  2
AcDbVbaProject
  3
acadvba
 90
        0
280
         0
281
         0
  0
CLASS
  1
WIPEOUT
  2
AcDbWipeout
  3
WipeOut|AutoCAD Express Tool|expresstools@autodesk.com
 90
      127
280
         0
281
         1
  0
CLASS
  1
WIPEOUTVARIABLES
  2
AcDbWipeoutVariables
  3
WipeOut|AutoCAD Express Tool|expresstools@autodesk.com
 90
        0
280
         0
281
         0
  0
CLASS
  1
RTEXT
  2
RText
  3
RText|AutoCAD Express Tool|expresstools@autodesk.com
 90
        0
280
         0
281
         1
  0
CLASS
  1
ARCALIGNEDTEXT
  2
AcDbArcAlignedText
  3
ATEXT|AutoCAD Express Tool|expresstools@autodesk.com
 90
        0
280
         0
281
         1
  0
ENDSEC
  0
SECTION
  2
TABLES
  0
TABLE
  2
VPORT
  5
7
100
AcDbSymbolTable
 70
         1
  0
VPORT
  5
15
100
AcDbSymbolTableRecord
100
AcDbViewportTableRecord
  2
*ACTIVE
 70
         0
 10
0.0
 20
0.0
 11
1.0
 21
1.0
 12
148.5
 22
105.0
 13
0.0
 23
0.0
 14
1.0
 24
1.0
 15
0.0
 25
0.0
 16
0.0
 26
0.0
 36
1.0
 17
0.0
 27
0.0
 37
0.0
 40
231.2943892345
 41
1.0
 42
50.0
 43
0.0
 44
0.0
 50
0.0
 51
0.0
 71
         0
 72
       100
 73
         1
 74
         1
 75
         0
 76
         0
 77
         0
 78
         0
281
         0
 65
         0
110
0.0
120
0.0
130
0.0
111
1.0
121
0.0
131
0.0
112
0.0
122
1.0
132
0.0
345
0
346
0
 79
         0
146
0.0
  0
ENDTAB
  0
TABLE
  2
LTYPE
  5
4
100
AcDbSymbolTable
 70
        12
  0
LTYPE
  5
11
100
AcDbSymbolTableRecord
100
AcDbLinetypeTableRecord
  2
ByBlock
 70
        64
  3

 72
        65
 73
         0
 40
0.0
  0
LTYPE
  5
12
100
AcDbSymbolTableRecord
100
AcDbLinetypeTableRecord
  2
ByLayer
 70
        64
  3

 72
        65
 73
         0
 40
0.0
  0
LTYPE
  5
13
100
AcDbSymbolTableRecord
100
AcDbLinetypeTableRecord
  2
CONTINUOUS
 70
        64
  3
Solid Line
 72
        65
 73
         0
 40
0.0
  0
LTYPE
  5
24
100
AcDbSymbolTableRecord
100
AcDbLinetypeTableRecord
  2
DOT
 70
        64
  3
. . . . . . . . . . . . . . . . . . . . . . 
 72
        65
 73
         2
 40
0.25
 49
0.0
 74
         0
 49
-0.25
 74
         0
  0
LTYPE
  5
25
100
AcDbSymbolTableRecord
100
AcDbLinetypeTableRecord
  2
HIDDEN
 70
         0
  3
_ _ _ _ _ _ _ _ _ _ _ _ _ _ _ _ _ _ _ _ _ _ _
 72
        65
 73
         2
 40
0.375
 49
0.25
 74
         0
 49
-0.125
 74
         0
  0
LTYPE
  5
26
100
AcDbSymbolTableRecord
100
AcDbLinetypeTableRecord
  2
DASHDOT
 70
         0
  3
__ . __ . __ . __ . __ . __ . __ . __ . __ . __
 72
        65
 73
         4
 40
1.0
 49
0.5
 74
         0
 49
-0.25
 74
         0
 49
0.0
 74
         0
 49
-0.25
 74
         0
  0
LTYPE
  5
27
100
AcDbSymbolTableRecord
100
AcDbLinetypeTableRecord
  2
DIVIDE
 70
         0
  3
__ . . __ . . __ . . __ . . __ . . __ . . __
 72
        65
 73
         6
 40
1.25
 49
0.5
 74
         0
 49
-0.25
 74
         0
 49
0.0
 74
         0
 49
-0.25
 74
         0
 49
0.0
 74
         0
 49
-0.25
 74
         0
  0
LTYPE
  5
28
100
AcDbSymbolTableRecord
100
AcDbLinetypeTableRecord
  2
DASHED
 70
         0
  3
__ __ __ __ __ __ __ __ __ __ __ __ __ __ __
 72
        65
 73
         2
 40
0.75
 49
0.5
 74
         0
 49
-0.25
 74
         0
  0
LTYPE
  5
29
100
AcDbSymbolTableRecord
100
AcDbLinetypeTableRecord
  2
BORDER
 70
         0
  3
__ __ . __ __ . __ __ . __ __ . __ __ .
 72
        65
 73
         6
 40
1.75
 49
0.5
 74
         0
 49
-0.25
 74
         0
 49
0.5
 74
         0
 49
-0.25
 74
         0
 49
0.0
 74
         0
 49
-0.25
 74
         0
  0
LTYPE
  5
2A
100
AcDbSymbolTableRecord
100
AcDbLinetypeTableRecord
  2
CENTER
 70
         0
  3
____ _ ____ _ ____ _ ____ _ ____ _ ____
 72
        65
 73
         4
 40
2.0
 49
1.25
 74
         0
 49
-0.25
 74
         0
 49
0.25
 74
         0
 49
-0.25
 74
         0
  0
LTYPE
  5
2B
100
AcDbSymbolTableRecord
100
AcDbLinetypeTableRecord
  2
DOT2
 70
         0
  3
........................................
 72
        65
 73
         2
 40
0.125
 49
0.0
 74
         0
 49
-0.125
 74
         0
  0
LTYPE
  5
2C
100
AcDbSymbolTableRecord
100
AcDbLinetypeTableRecord
  2
PHANTOM
 70
         0
  3
______  __  __  ______  __  __  ______
 72
        65
 73
         6
 40
2.5
 49
1.25
 74
         0
 49
-0.25
 74
         0
 49
0.25
 74
         0
 49
-0.25
 74
         0
 49
0.25
 74
         0
 49
-0.25
 74
         0
  0
ENDTAB
  0
TABLE
  2
LAYER
  5
2
100
AcDbSymbolTable
 70
       194
  0
LAYER
  5
14
100
AcDbSymbolTableRecord
100
AcDbLayerTableRecord
  2
0
 70
         0
 62
         7
  6
CONTINUOUS
290
         1
370
        -3
390
1D
  0
LAYER
  5
2F
100
AcDbSymbolTableRecord
100
AcDbLayerTableRecord
  2
SCHRAFFUR
 70
        64
 62
         7
  6
CONTINUOUS
290
         1
370
         0
390
1D
  0
LAYER
  5
30
100
AcDbSymbolTableRecord
100
AcDbLayerTableRecord
  2
VERDECKTE KANTEN
 70
        64
 62
        92
  6
DASHED
290
         1
370
        35
390
1D
  0
LAYER
  5
31
100
AcDbSymbolTableRecord
100
AcDbLayerTableRecord
  2
TANGENTIALE KANTEN
 70
        64
 62
         7
  6
CONTINUOUS
290
         1
370
        13
390
1D
  0
LAYER
  5
32
100
AcDbSymbolTableRecord
100
AcDbLayerTableRecord
  2
MITTELLINIEN
 70
        64
 62
         5
  6
DASHDOT
290
         1
370
        13
390
1D
  0
LAYER
  5
33
100
AcDbSymbolTableRecord
100
AcDbLayerTableRecord
  2
2052 GEHÄUSE
 70
        64
 62
         7
  6
CONTINUOUS
290
         1
370
        18
390
1D
  0
LAYER
  5
34
100
AcDbSymbolTableRecord
100
AcDbLayerTableRecord
  2
2052 ZUHALTUNG
 70
        64
 62
        94
  6
CONTINUOUS
290
         1
370
        18
390
1D
  0
LAYER
  5
35
100
AcDbSymbolTableRecord
100
AcDbLayerTableRecord
  2
2052 BESATZUNG
 70
        64
 62
         8
  6
CONTINUOUS
290
         1
370
        18
390
1D
  0
LAYER
  5
36
100
AcDbSymbolTableRecord
100
AcDbLayerTableRecord
  2
2052 RIEGEL UMGESPERRT
 70
        64
 62
       230
  6
DASHED
290
         1
370
        18
390
1D
  0
LAYER
  5
37
100
AcDbSymbolTableRecord
100
AcDbLayerTableRecord
  2
2052 RIEGEL
 70
        64
 62
       230
  6
CONTINUOUS
290
         1
370
        18
390
1D
  0
LAYER
  5
38
100
AcDbSymbolTableRecord
100
AcDbLayerTableRecord
  2
2052 SCHLOSS MIT DORN
 70
        64
 62
         7
  6
CONTINUOUS
290
         1
370
         0
390
1D
  0
LAYER
  5
39
100
AcDbSymbolTableRecord
100
AcDbLayerTableRecord
  2
3301 VERSCHLUSSBALKEN UMGELEGT
 70
        64
 62
       134
  6
DASHED
290
         1
370
        18
390
1D
  0
LAYER
  5
3A
100
AcDbSymbolTableRecord
100
AcDbLayerTableRecord
  2
3301 VERSCHLUSSBALKEN
 70
        64
 62
       134
  6
CONTINUOUS
290
         1
370
        18
390
1D
  0
LAYER
  5
3B
100
AcDbSymbolTableRecord
100
AcDbLayerTableRecord
  2
3301 FAHRSTRAßENSCHIEBERANTRIEB VERDREHT
 70
        64
 62
       171
  6
DASHED
290
         1
370
        18
390
1D
  0
LAYER
  5
3C
100
AcDbSymbolTableRecord
100
AcDbLayerTableRecord
  2
3301 FAHRSTRAßENSCHIEBERANTRIEB
 70
        64
 62
       171
  6
CONTINUOUS
290
         1
370
        18
390
1D
  0
LAYER
  5
3D
100
AcDbSymbolTableRecord
100
AcDbLayerTableRecord
  2
3301 RAHMEN LÄNGS
 70
        64
 62
         7
  6
CONTINUOUS
290
         1
370
        18
390
1D
  0
LAYER
  5
3E
100
AcDbSymbolTableRecord
100
AcDbLayerTableRecord
  2
3301 VERSCHLUSSSTÜCKE VERSCHOBEN
 70
        64
 62
       190
  6
DASHED
290
         1
370
        18
390
1D
  0
LAYER
  5
3F
100
AcDbSymbolTableRecord
100
AcDbLayerTableRecord
  2
3301 VERSCHLUSSSTÜCKE
 70
        64
 62
       190
  6
CONTINUOUS
290
         1
370
        18
390
1D
  0
LAYER
  5
40
100
AcDbSymbolTableRecord
100
AcDbLayerTableRecord
  2
3301 RAHMEN QUER
 70
        64
 62
         8
  6
CONTINUOUS
290
         1
370
        18
390
1D
  0
LAYER
  5
41
100
AcDbSymbolTableRecord
100
AcDbLayerTableRecord
  2
3301 ANLENKUNGSLAGER
 70
        64
 62
       252
  6
CONTINUOUS
290
         1
370
        18
390
1D
  0
LAYER
  5
42
100
AcDbSymbolTableRecord
100
AcDbLayerTableRecord
  2
3301 VERSCHLUSSBALKENANLENKUNG UMGELEGT
 70
        64
 62
       230
  6
DASHED
290
         1
370
        18
390
1D
  0
LAYER
  5
43
100
AcDbSymbolTableRecord
100
AcDbLayerTableRecord
  2
3301 VERSCHLUSSBALKENANLENKUNG
 70
        64
 62
       230
  6
CONTINUOUS
290
         1
370
        18
390
1D
  0
LAYER
  5
44
100
AcDbSymbolTableRecord
100
AcDbLayerTableRecord
  2
3301 FAHRSTRAßENSCHIEBER
 70
        64
 62
       172
  6
CONTINUOUS
290
         1
370
        18
390
1D
  0
LAYER
  5
45
100
AcDbSymbolTableRecord
100
AcDbLayerTableRecord
  2
3301 GRUPPENVERSCHLUSS UMGELEGT
 70
        64
 62
       234
  6
DASHED
290
         1
370
        18
390
1D
  0
LAYER
  5
46
100
AcDbSymbolTableRecord
100
AcDbLayerTableRecord
  2
3301 GRUPPENVERSCHLUSS
 70
        64
 62
       234
  6
CONTINUOUS
290
         1
370
        18
390
1D
  0
LAYER
  5
47
100
AcDbSymbolTableRecord
100
AcDbLayerTableRecord
  2
3301 VERSCHLUSSREGISTER JE
 70
        64
 62
         7
  6
CONTINUOUS
290
         1
370
         0
390
1D
  0
LAYER
  5
48
100
AcDbSymbolTableRecord
100
AcDbLayerTableRecord
  2
3303 HEBELBOCK
 70
        64
 62
       172
  6
CONTINUOUS
290
         1
370
        18
390
1D
  0
LAYER
  5
49
100
AcDbSymbolTableRecord
100
AcDbLayerTableRecord
  2
3303 HEBELEISEN UMGELEGT
 70
        64
 62
         5
  6
DASHED
290
         1
370
        18
390
1D
  0
LAYER
  5
4A
100
AcDbSymbolTableRecord
100
AcDbLayerTableRecord
  2
3303 HEBELEISEN
 70
        64
 62
         5
  6
CONTINUOUS
290
         1
370
        18
390
1D
  0
LAYER
  5
4B
100
AcDbSymbolTableRecord
100
AcDbLayerTableRecord
  2
3303 HANDFALLE ANGEZOGEN
 70
        64
 62
       134
  6
DIVIDE
290
         1
370
        18
390
1D
  0
LAYER
  5
4C
100
AcDbSymbolTableRecord
100
AcDbLayerTableRecord
  2
3303 HANDFALLE UMGELEGT
 70
        64
 62
       134
  6
DASHED
290
         1
370
        18
390
1D
  0
LAYER
  5
4D
100
AcDbSymbolTableRecord
100
AcDbLayerTableRecord
  2
3302 HANDFALLE
 70
        64
 62
       134
  6
CONTINUOUS
290
         1
370
        18
390
1D
  0
LAYER
  5
4E
100
AcDbSymbolTableRecord
100
AcDbLayerTableRecord
  2
3303 HEBELERSATZSCHLOSS JE
 70
        64
 62
         7
  6
CONTINUOUS
290
         1
370
         0
390
1D
  0
LAYER
  5
4F
100
AcDbSymbolTableRecord
100
AcDbLayerTableRecord
  2
3211 TRÄGER JE
 70
        64
 62
         7
  6
CONTINUOUS
290
         1
370
        18
390
1D
  0
LAYER
  5
50
100
AcDbSymbolTableRecord
100
AcDbLayerTableRecord
  2
3211 STÄNDER JE
 70
        64
 62
         7
  6
CONTINUOUS
290
         1
370
        18
390
1D
  0
LAYER
  5
51
100
AcDbSymbolTableRecord
100
AcDbLayerTableRecord
  2
3211 HEBELBANK JE
 70
        64
 62
         9
  6
CONTINUOUS
290
         1
370
        18
390
1D
  0
LAYER
  5
52
100
AcDbSymbolTableRecord
100
AcDbLayerTableRecord
  2
3304 KLOBEN
 70
        64
 62
       190
  6
CONTINUOUS
290
         1
370
         0
390
1D
  0
LAYER
  5
53
100
AcDbSymbolTableRecord
100
AcDbLayerTableRecord
  2
3201-3204 WINKELHEBEL
 70
        64
 62
       190
  6
CONTINUOUS
290
         1
370
        18
390
1D
  0
LAYER
  5
54
100
AcDbSymbolTableRecord
100
AcDbLayerTableRecord
  2
3201 HEBELBOCK
 70
        64
 62
         7
  6
CONTINUOUS
290
         1
370
        18
390
1D
  0
LAYER
  5
55
100
AcDbSymbolTableRecord
100
AcDbLayerTableRecord
  2
3201 SEILZUG
 70
        64
 62
        94
  6
DASHDOT
290
         1
370
        18
390
1D
  0
LAYER
  5
56
100
AcDbSymbolTableRecord
100
AcDbLayerTableRecord
  2
3201-3204 HEBEL JE
 70
        64
 62
         7
  6
CONTINUOUS
290
         1
370
         0
390
1D
  0
LAYER
  5
57
100
AcDbSymbolTableRecord
100
AcDbLayerTableRecord
  2
2053 SCHILD
 70
        64
 62
        54
  6
CONTINUOUS
290
         1
370
        18
390
1D
  0
LAYER
  5
58
100
AcDbSymbolTableRecord
100
AcDbLayerTableRecord
  2
2053 SCHLÜSSEL
 70
        64
 62
       190
  6
CONTINUOUS
290
         1
370
        18
390
1D
  0
LAYER
  5
59
100
AcDbSymbolTableRecord
100
AcDbLayerTableRecord
  2
2053 SCHLÜSSEL MIT DORN
 70
        64
 62
         7
  6
CONTINUOUS
290
         1
370
         0
390
1D
  0
LAYER
  5
5A
100
AcDbSymbolTableRecord
100
AcDbLayerTableRecord
  2
2001 BODEN
 70
        64
 62
        14
  6
CONTINUOUS
290
         1
370
        18
390
1D
  0
LAYER
  5
5B
100
AcDbSymbolTableRecord
100
AcDbLayerTableRecord
  2
2001 GEBÄUDE
 70
        64
 62
         7
  6
CONTINUOUS
290
         1
370
         0
390
1D
  0
LAYER
  5
5C
100
AcDbSymbolTableRecord
100
AcDbLayerTableRecord
  2
1088 GEHÄUSE
 70
        64
 62
         7
  6
CONTINUOUS
290
         1
370
        18
390
1D
  0
LAYER
  5
5D
100
AcDbSymbolTableRecord
100
AcDbLayerTableRecord
  2
1088 BAUTEIL
 70
        64
 62
         7
  6
CONTINUOUS
290
         1
370
        18
390
1D
  0
LAYER
  5
5E
100
AcDbSymbolTableRecord
100
AcDbLayerTableRecord
  2
3305 HEBELBOCK
 70
        64
 62
         7
  6
CONTINUOUS
290
         1
370
        13
390
1D
  0
LAYER
  5
5F
100
AcDbSymbolTableRecord
100
AcDbLayerTableRecord
  2
3305 HEBELSCHILD
 70
        64
 62
       171
  6
CONTINUOUS
290
         1
370
        18
390
1D
  0
LAYER
  5
60
100
AcDbSymbolTableRecord
100
AcDbLayerTableRecord
  2
3305 HANDFALLE NACH UNTEN UMGELEGT
 70
        64
 62
        30
  6
DASHDOT
290
         1
370
        13
390
1D
  0
LAYER
  5
61
100
AcDbSymbolTableRecord
100
AcDbLayerTableRecord
  2
3305 HANDFALLE ANGEZOGEN
 70
        64
 62
        30
  6
DASHDOT
290
         1
370
        13
390
1D
  0
LAYER
  5
62
100
AcDbSymbolTableRecord
100
AcDbLayerTableRecord
  2
3305 HANDFALLE NACH OBEN UMGELEGT
 70
        64
 62
        30
  6
DASHDOT
290
         1
370
        13
390
1D
  0
LAYER
  5
63
100
AcDbSymbolTableRecord
100
AcDbLayerTableRecord
  2
3305 HANDFALLE
 70
        64
 62
        30
  6
CONTINUOUS
290
         1
370
        13
390
1D
  0
LAYER
  5
64
100
AcDbSymbolTableRecord
100
AcDbLayerTableRecord
  2
3305 HEBEL NACH OBEN UMGELEGT
 70
        64
 62
         5
  6
DASHDOT
290
         1
370
        13
390
1D
  0
LAYER
  5
65
100
AcDbSymbolTableRecord
100
AcDbLayerTableRecord
  2
3305 HEBEL NACH UNTEN UMGELEGT
 70
        64
 62
         5
  6
DASHED
290
         1
370
        13
390
1D
  0
LAYER
  5
66
100
AcDbSymbolTableRecord
100
AcDbLayerTableRecord
  2
3305 HEBEL
 70
        64
 62
         5
  6
CONTINUOUS
290
         1
370
        13
390
1D
  0
LAYER
  5
67
100
AcDbSymbolTableRecord
100
AcDbLayerTableRecord
  2
3305 FAHRSTRAßENHEBEL JE
 70
        64
 62
         7
  6
CONTINUOUS
290
         1
370
        13
390
1D
  0
LAYER
  5
68
100
AcDbSymbolTableRecord
100
AcDbLayerTableRecord
  2
KONSTRUKTION
 70
        64
 62
         7
  6
CONTINUOUS
290
         1
370
        18
390
1D
  0
LAYER
  5
69
100
AcDbSymbolTableRecord
100
AcDbLayerTableRecord
  2
MASSLINIEN
 70
        64
 62
       172
  6
CONTINUOUS
290
         1
370
        25
390
1D
  0
LAYER
  5
6A
100
AcDbSymbolTableRecord
100
AcDbLayerTableRecord
  2
TOLERANZEN
 70
        64
 62
       212
  6
CONTINUOUS
290
         1
370
         0
390
1D
  0
LAYER
  5
6B
100
AcDbSymbolTableRecord
100
AcDbLayerTableRecord
  2
MASSGRENZEN
 70
        64
 62
       172
  6
CONTINUOUS
290
         1
370
        25
390
1D
  0
LAYER
  5
6C
100
AcDbSymbolTableRecord
100
AcDbLayerTableRecord
  2
MASSTEXTE
 70
        64
 62
       212
  6
CONTINUOUS
290
         1
370
        25
390
1D
  0
LAYER
  5
6D
100
AcDbSymbolTableRecord
100
AcDbLayerTableRecord
  2
BEMASSUNG
 70
        64
 62
         7
  6
CONTINUOUS
290
         1
370
        25
390
1D
  0
LAYER
  5
6E
100
AcDbSymbolTableRecord
100
AcDbLayerTableRecord
  2
BESCHRIFTUNG
 70
        64
 62
         7
  6
CONTINUOUS
290
         1
370
        25
390
1D
  0
LAYER
  5
6F
100
AcDbSymbolTableRecord
100
AcDbLayerTableRecord
  2
UNSICHTBARE
 70
        64
 62
        92
  6
DASHED
290
         1
370
        25
390
1D
  0
LAYER
  5
70
100
AcDbSymbolTableRecord
100
AcDbLayerTableRecord
  2
HILFSLINIEN
 70
        64
 62
         3
  6
CONTINUOUS
290
         1
370
         0
390
1D
  0
LAYER
  5
71
100
AcDbSymbolTableRecord
100
AcDbLayerTableRecord
  2
3303_5L
 70
        64
 62
        30
  6
CONTINUOUS
290
         1
370
        13
390
1D
  0
LAYER
  5
72
100
AcDbSymbolTableRecord
100
AcDbLayerTableRecord
  2
3303_1P
 70
        64
 62
        30
  6
CONTINUOUS
290
         1
370
        13
390
1D
  0
LAYER
  5
73
100
AcDbSymbolTableRecord
100
AcDbLayerTableRecord
  2
3303_2R
 70
        64
 62
        14
  6
CONTINUOUS
290
         1
370
        13
390
1D
  0
LAYER
  5
74
100
AcDbSymbolTableRecord
100
AcDbLayerTableRecord
  2
3303_2L
 70
        64
 62
        30
  6
CONTINUOUS
290
         1
370
        13
390
1D
  0
LAYER
  5
75
100
AcDbSymbolTableRecord
100
AcDbLayerTableRecord
  2
3303_6L
 70
        64
 62
        30
  6
CONTINUOUS
290
         1
370
        13
390
1D
  0
LAYER
  5
76
100
AcDbSymbolTableRecord
100
AcDbLayerTableRecord
  2
3303_6R
 70
        64
 62
        14
  6
CONTINUOUS
290
         1
370
        13
390
1D
  0
LAYER
  5
77
100
AcDbSymbolTableRecord
100
AcDbLayerTableRecord
  2
3303_4P
 70
        64
 62
        30
  6
CONTINUOUS
290
         1
370
        13
390
1D
  0
LAYER
  5
78
100
AcDbSymbolTableRecord
100
AcDbLayerTableRecord
  2
3303_5R
 70
        64
 62
        14
  6
CONTINUOUS
290
         1
370
        13
390
1D
  0
LAYER
  5
79
100
AcDbSymbolTableRecord
100
AcDbLayerTableRecord
  2
3303___ HEBELERSATZSCHLOSS JE
 70
        64
 62
         6
  6
DASHDOT
290
         1
370
        13
390
1D
  0
LAYER
  5
7A
100
AcDbSymbolTableRecord
100
AcDbLayerTableRecord
  2
1088_1P
 70
        64
 62
        30
  6
CONTINUOUS
290
         1
370
        13
390
1D
  0
LAYER
  5
7B
100
AcDbSymbolTableRecord
100
AcDbLayerTableRecord
  2
1088_1R
 70
        64
 62
        14
  6
CONTINUOUS
290
         1
370
        13
390
1D
  0
LAYER
  5
7C
100
AcDbSymbolTableRecord
100
AcDbLayerTableRecord
  2
1088___ VORLAGEN
 70
        64
 62
       230
  6
CONTINUOUS
290
         1
370
        13
390
1D
  0
LAYER
  5
7D
100
AcDbSymbolTableRecord
100
AcDbLayerTableRecord
  2
3305_1P
 70
        64
 62
        30
  6
CONTINUOUS
290
         1
370
        13
390
1D
  0
LAYER
  5
7E
100
AcDbSymbolTableRecord
100
AcDbLayerTableRecord
  2
3305_2R
 70
        64
 62
        14
  6
CONTINUOUS
290
         1
370
        13
390
1D
  0
LAYER
  5
7F
100
AcDbSymbolTableRecord
100
AcDbLayerTableRecord
  2
3305_8L
 70
        64
 62
        30
  6
CONTINUOUS
290
         1
370
        13
390
1D
  0
LAYER
  5
80
100
AcDbSymbolTableRecord
100
AcDbLayerTableRecord
  2
3305_8R
 70
        64
 62
        14
  6
CONTINUOUS
290
         1
370
        13
390
1D
  0
LAYER
  5
81
100
AcDbSymbolTableRecord
100
AcDbLayerTableRecord
  2
3305_6P
 70
        64
 62
        30
  6
CONTINUOUS
290
         1
370
        13
390
1D
  0
LAYER
  5
82
100
AcDbSymbolTableRecord
100
AcDbLayerTableRecord
  2
3305_2L
 70
        64
 62
        30
  6
CONTINUOUS
290
         1
370
        13
390
1D
  0
LAYER
  5
83
100
AcDbSymbolTableRecord
100
AcDbLayerTableRecord
  2
3305_7L
 70
        64
 62
        30
  6
CONTINUOUS
290
         1
370
        13
390
1D
  0
LAYER
  5
84
100
AcDbSymbolTableRecord
100
AcDbLayerTableRecord
  2
3305_7R
 70
        64
 62
        14
  6
CONTINUOUS
290
         1
370
        13
390
1D
  0
LAYER
  5
85
100
AcDbSymbolTableRecord
100
AcDbLayerTableRecord
  2
3305___ FAHRSTRAßENHEBEL JE
 70
        64
 62
         6
  6
DASHDOT
290
         1
370
        13
390
1D
  0
LAYER
  5
86
100
AcDbSymbolTableRecord
100
AcDbLayerTableRecord
  2
3304_1P
 70
        64
 62
        30
  6
CONTINUOUS
290
         1
370
        13
390
1D
  0
LAYER
  5
87
100
AcDbSymbolTableRecord
100
AcDbLayerTableRecord
  2
3304___ KLOBEN
 70
        64
 62
         6
  6
DASHDOT
290
         1
370
         0
390
1D
  0
LAYER
  5
88
100
AcDbSymbolTableRecord
100
AcDbLayerTableRecord
  2
3301_711L # LI_ENDE LANG
 70
        64
 62
        30
  6
CONTINUOUS
290
         1
370
        18
390
1D
  0
LAYER
  5
89
100
AcDbSymbolTableRecord
100
AcDbLayerTableRecord
  2
3301_712L # LI_ENDE KURZ
 70
        64
 62
        30
  6
CONTINUOUS
290
         1
370
        18
390
1D
  0
LAYER
  5
8A
100
AcDbSymbolTableRecord
100
AcDbLayerTableRecord
  2
3301_714L # RE_ENDE KURZ
 70
        64
 62
        30
  6
CONTINUOUS
290
         1
370
        18
390
1D
  0
LAYER
  5
8B
100
AcDbSymbolTableRecord
100
AcDbLayerTableRecord
  2
3301_715L # RE_ENDE LANG
 70
        64
 62
        30
  6
CONTINUOUS
290
         1
370
        18
390
1D
  0
LAYER
  5
8C
100
AcDbSymbolTableRecord
100
AcDbLayerTableRecord
  2
3301_713L # MITTE
 70
        64
 62
        30
  6
CONTINUOUS
290
         1
370
        18
390
1D
  0
LAYER
  5
8D
100
AcDbSymbolTableRecord
100
AcDbLayerTableRecord
  2
3301_71L~A
 70
        64
 62
         5
  6
CONTINUOUS
290
         1
370
         0
390
1D
  0
LAYER
  5
8E
100
AcDbSymbolTableRecord
100
AcDbLayerTableRecord
  2
3301_71L # RAHMENWINKEL VO
 70
        64
 62
        11
  6
CONTINUOUS
290
         1
370
        18
390
1D
  0
LAYER
  5
8F
100
AcDbSymbolTableRecord
100
AcDbLayerTableRecord
  2
3301_711R # LI_ENDE LANG
 70
        64
 62
        14
  6
CONTINUOUS
290
         1
370
        18
390
1D
  0
LAYER
  5
90
100
AcDbSymbolTableRecord
100
AcDbLayerTableRecord
  2
3301_712R # LI_ENDE KURZ
 70
        64
 62
        14
  6
CONTINUOUS
290
         1
370
        18
390
1D
  0
LAYER
  5
91
100
AcDbSymbolTableRecord
100
AcDbLayerTableRecord
  2
3301_713R # MITTE
 70
        64
 62
        14
  6
CONTINUOUS
290
         1
370
        18
390
1D
  0
LAYER
  5
92
100
AcDbSymbolTableRecord
100
AcDbLayerTableRecord
  2
3301_714R # RE_ENDE KURZ
 70
        64
 62
        14
  6
CONTINUOUS
290
         1
370
        18
390
1D
  0
LAYER
  5
93
100
AcDbSymbolTableRecord
100
AcDbLayerTableRecord
  2
3301_715R # RE_ENDE LANG
 70
        64
 62
        14
  6
CONTINUOUS
290
         1
370
        18
390
1D
  0
LAYER
  5
94
100
AcDbSymbolTableRecord
100
AcDbLayerTableRecord
  2
3301_71R~A
 70
        64
 62
         5
  6
CONTINUOUS
290
         1
370
         0
390
1D
  0
LAYER
  5
95
100
AcDbSymbolTableRecord
100
AcDbLayerTableRecord
  2
3301_71R # RAHMENWINKEL VO
 70
        64
 62
        15
  6
CONTINUOUS
290
         1
370
        18
390
1D
  0
LAYER
  5
96
100
AcDbSymbolTableRecord
100
AcDbLayerTableRecord
  2
3301_721P # LI_ENDE LANG
 70
        64
 62
        30
  6
CONTINUOUS
290
         1
370
        18
390
1D
  0
LAYER
  5
97
100
AcDbSymbolTableRecord
100
AcDbLayerTableRecord
  2
3301_722P # LI_ENDE KURZ
 70
        64
 62
        30
  6
CONTINUOUS
290
         1
370
        18
390
1D
  0
LAYER
  5
98
100
AcDbSymbolTableRecord
100
AcDbLayerTableRecord
  2
3301_723P # MITTE
 70
        64
 62
        30
  6
CONTINUOUS
290
         1
370
        18
390
1D
  0
LAYER
  5
99
100
AcDbSymbolTableRecord
100
AcDbLayerTableRecord
  2
3301_724P # RE_ENDE KURZ
 70
        64
 62
        30
  6
CONTINUOUS
290
         1
370
        18
390
1D
  0
LAYER
  5
9A
100
AcDbSymbolTableRecord
100
AcDbLayerTableRecord
  2
3301_725P # RE_ENDE LANG
 70
        64
 62
        30
  6
CONTINUOUS
290
         1
370
        18
390
1D
  0
LAYER
  5
9B
100
AcDbSymbolTableRecord
100
AcDbLayerTableRecord
  2
3301_72P~A
 70
        64
 62
         5
  6
CONTINUOUS
290
         1
370
        18
390
1D
  0
LAYER
  5
9C
100
AcDbSymbolTableRecord
100
AcDbLayerTableRecord
  2
3301_72P # RAHMENWANGE VO
 70
        64
 62
        30
  6
CONTINUOUS
290
         1
370
        18
390
1D
  0
LAYER
  5
9D
100
AcDbSymbolTableRecord
100
AcDbLayerTableRecord
  2
3301_741L # LI_ENDE LANG
 70
        64
 62
        30
  6
CONTINUOUS
290
         1
370
        18
390
1D
  0
LAYER
  5
9E
100
AcDbSymbolTableRecord
100
AcDbLayerTableRecord
  2
3301_742L # LI_ENDE KURZ
 70
        64
 62
        30
  6
CONTINUOUS
290
         1
370
        18
390
1D
  0
LAYER
  5
9F
100
AcDbSymbolTableRecord
100
AcDbLayerTableRecord
  2
3301_743L # MITTE
 70
        64
 62
        30
  6
CONTINUOUS
290
         1
370
        18
390
1D
  0
LAYER
  5
A0
100
AcDbSymbolTableRecord
100
AcDbLayerTableRecord
  2
3301_744L # RE_ENDE KURZ
 70
        64
 62
        30
  6
CONTINUOUS
290
         1
370
        18
390
1D
  0
LAYER
  5
A1
100
AcDbSymbolTableRecord
100
AcDbLayerTableRecord
  2
3301_745L # RE_ENDE LANG
 70
        64
 62
        30
  6
CONTINUOUS
290
         1
370
        18
390
1D
  0
LAYER
  5
A2
100
AcDbSymbolTableRecord
100
AcDbLayerTableRecord
  2
3301_74L~A
 70
        64
 62
         5
  6
CONTINUOUS
290
         1
370
         0
390
1D
  0
LAYER
  5
A3
100
AcDbSymbolTableRecord
100
AcDbLayerTableRecord
  2
3301_74L # RAHMENWINKEL HI
 70
        64
 62
        11
  6
CONTINUOUS
290
         1
370
        18
390
1D
  0
LAYER
  5
A4
100
AcDbSymbolTableRecord
100
AcDbLayerTableRecord
  2
3301_745R # RE_ENDE LANG
 70
        64
 62
        14
  6
CONTINUOUS
290
         1
370
        18
390
1D
  0
LAYER
  5
A5
100
AcDbSymbolTableRecord
100
AcDbLayerTableRecord
  2
3301_744R # RE_ENDE KURZ
 70
        64
 62
        14
  6
CONTINUOUS
290
         1
370
        18
390
1D
  0
LAYER
  5
A6
100
AcDbSymbolTableRecord
100
AcDbLayerTableRecord
  2
3301_741R # LI_ENDE LANG
 70
        64
 62
        14
  6
CONTINUOUS
290
         1
370
        18
390
1D
  0
LAYER
  5
A7
100
AcDbSymbolTableRecord
100
AcDbLayerTableRecord
  2
3301_743R # MITTE
 70
        64
 62
        14
  6
CONTINUOUS
290
         1
370
        18
390
1D
  0
LAYER
  5
A8
100
AcDbSymbolTableRecord
100
AcDbLayerTableRecord
  2
3301_742R # LI_ENDE KURZ
 70
        64
 62
        14
  6
CONTINUOUS
290
         1
370
        18
390
1D
  0
LAYER
  5
A9
100
AcDbSymbolTableRecord
100
AcDbLayerTableRecord
  2
3301_74R~A
 70
        64
 62
         5
  6
CONTINUOUS
290
         1
370
         0
390
1D
  0
LAYER
  5
AA
100
AcDbSymbolTableRecord
100
AcDbLayerTableRecord
  2
3301_74R # RAHMENWINKEL HI
 70
        64
 62
        14
  6
CONTINUOUS
290
         1
370
        18
390
1D
  0
LAYER
  5
AB
100
AcDbSymbolTableRecord
100
AcDbLayerTableRecord
  2
3301_731P # LI_ENDE LANG
 70
        64
 62
        30
  6
CONTINUOUS
290
         1
370
        18
390
1D
  0
LAYER
  5
AC
100
AcDbSymbolTableRecord
100
AcDbLayerTableRecord
  2
3301_732P # LI_ENDE KURZ
 70
        64
 62
        30
  6
CONTINUOUS
290
         1
370
        18
390
1D
  0
LAYER
  5
AD
100
AcDbSymbolTableRecord
100
AcDbLayerTableRecord
  2
3301_733P # MITTE
 70
        64
 62
        30
  6
CONTINUOUS
290
         1
370
        18
390
1D
  0
LAYER
  5
AE
100
AcDbSymbolTableRecord
100
AcDbLayerTableRecord
  2
3301_734P # RE_ENDE KURZ
 70
        64
 62
        30
  6
CONTINUOUS
290
         1
370
        18
390
1D
  0
LAYER
  5
AF
100
AcDbSymbolTableRecord
100
AcDbLayerTableRecord
  2
3301_735P # RE_ENDE LANG
 70
        64
 62
        30
  6
CONTINUOUS
290
         1
370
        18
390
1D
  0
LAYER
  5
B0
100
AcDbSymbolTableRecord
100
AcDbLayerTableRecord
  2
3301_73P~A
 70
        64
 62
         5
  6
CONTINUOUS
290
         1
370
        18
390
1D
  0
LAYER
  5
B1
100
AcDbSymbolTableRecord
100
AcDbLayerTableRecord
  2
3301_73P # RAHMENWANGE HI
 70
        64
 62
        30
  6
CONTINUOUS
290
         1
370
        18
390
1D
  0
LAYER
  5
B2
100
AcDbSymbolTableRecord
100
AcDbLayerTableRecord
  2
3301_76P # FSTRSCHIEBER HI
 70
        64
 62
        30
  6
CONTINUOUS
290
         1
370
        18
390
1D
  0
LAYER
  5
B3
100
AcDbSymbolTableRecord
100
AcDbLayerTableRecord
  2
3301_75P # FSTRSCHIEBER VO
 70
        64
 62
        30
  6
CONTINUOUS
290
         1
370
        18
390
1D
  0
LAYER
  5
B4
100
AcDbSymbolTableRecord
100
AcDbLayerTableRecord
  2
3301_413L # MITTE
 70
        64
 62
        30
  6
CONTINUOUS
290
         1
370
        18
390
1D
  0
LAYER
  5
B5
100
AcDbSymbolTableRecord
100
AcDbLayerTableRecord
  2
3301_41L # RAHMENWINKEL VO
 70
        64
 62
        11
  6
CONTINUOUS
290
         1
370
        18
390
1D
  0
LAYER
  5
B6
100
AcDbSymbolTableRecord
100
AcDbLayerTableRecord
  2
3301_413R # MITTE
 70
        64
 62
        34
  6
CONTINUOUS
290
         1
370
        18
390
1D
  0
LAYER
  5
B7
100
AcDbSymbolTableRecord
100
AcDbLayerTableRecord
  2
3301_41R # RAHMENWINKEL VO
 70
        64
 62
        15
  6
CONTINUOUS
290
         1
370
        18
390
1D
  0
LAYER
  5
B8
100
AcDbSymbolTableRecord
100
AcDbLayerTableRecord
  2
3301_46P # FSTRSCHIEBER HI
 70
        64
 62
        30
  6
CONTINUOUS
290
         1
370
        18
390
1D
  0
LAYER
  5
B9
100
AcDbSymbolTableRecord
100
AcDbLayerTableRecord
  2
3301_433P # MITTE
 70
        64
 62
        30
  6
CONTINUOUS
290
         1
370
        18
390
1D
  0
LAYER
  5
BA
100
AcDbSymbolTableRecord
100
AcDbLayerTableRecord
  2
3301_43P # RAHMENWANGE HI
 70
        64
 62
        30
  6
CONTINUOUS
290
         1
370
        18
390
1D
  0
LAYER
  5
BB
100
AcDbSymbolTableRecord
100
AcDbLayerTableRecord
  2
3301_423P # MITTE
 70
        64
 62
        30
  6
CONTINUOUS
290
         1
370
        18
390
1D
  0
LAYER
  5
BC
100
AcDbSymbolTableRecord
100
AcDbLayerTableRecord
  2
3301_42P # RAHMENWANGE VO
 70
        64
 62
        30
  6
CONTINUOUS
290
         1
370
        18
390
1D
  0
LAYER
  5
BD
100
AcDbSymbolTableRecord
100
AcDbLayerTableRecord
  2
3301_443R # MITTE
 70
        64
 62
        14
  6
CONTINUOUS
290
         1
370
        18
390
1D
  0
LAYER
  5
BE
100
AcDbSymbolTableRecord
100
AcDbLayerTableRecord
  2
3301_44R # RAHMENWINKEL HI
 70
        64
 62
        15
  6
CONTINUOUS
290
         1
370
        18
390
1D
  0
LAYER
  5
BF
100
AcDbSymbolTableRecord
100
AcDbLayerTableRecord
  2
3301_443L # MITTE
 70
        64
 62
        30
  6
CONTINUOUS
290
         1
370
        18
390
1D
  0
LAYER
  5
C0
100
AcDbSymbolTableRecord
100
AcDbLayerTableRecord
  2
3301_44L # RAHMENWINKEL HI
 70
        64
 62
        11
  6
CONTINUOUS
290
         1
370
        18
390
1D
  0
LAYER
  5
C1
100
AcDbSymbolTableRecord
100
AcDbLayerTableRecord
  2
3301_45P # FSTRSCHIEBER VO
 70
        64
 62
        30
  6
CONTINUOUS
290
         1
370
        18
390
1D
  0
LAYER
  5
C2
100
AcDbSymbolTableRecord
100
AcDbLayerTableRecord
  2
3301_10E # GRU_VERSCHL_ANTR LI
 70
        64
 62
        11
  6
CONTINUOUS
290
         1
370
        18
390
1D
  0
LAYER
  5
C3
100
AcDbSymbolTableRecord
100
AcDbLayerTableRecord
  2
3301_10C # VERSCHLST_ SIG FREI LI
 70
        64
 62
        30
  6
CONTINUOUS
290
         1
370
        18
390
1D
  0
LAYER
  5
C4
100
AcDbSymbolTableRecord
100
AcDbLayerTableRecord
  2
3301_10B # VERSCHLST_ W- LI
 70
        64
 62
        30
  6
CONTINUOUS
290
         1
370
        18
390
1D
  0
LAYER
  5
C5
100
AcDbSymbolTableRecord
100
AcDbLayerTableRecord
  2
3301_10D # VERSCHLST_ SIG BEIDE LI
 70
        64
 62
        30
  6
CONTINUOUS
290
         1
370
        18
390
1D
  0
LAYER
  5
C6
100
AcDbSymbolTableRecord
100
AcDbLayerTableRecord
  2
3301_10I # VERSCHLST_ SIG BEIDE RE
 70
        64
 62
        15
  6
CONTINUOUS
290
         1
370
        18
390
1D
  0
LAYER
  5
C7
100
AcDbSymbolTableRecord
100
AcDbLayerTableRecord
  2
3301_10J # GRU_VERSCHL_ANTR RE
 70
        64
 62
        15
  6
CONTINUOUS
290
         1
370
        18
390
1D
  0
LAYER
  5
C8
100
AcDbSymbolTableRecord
100
AcDbLayerTableRecord
  2
3301_10G # VERSCHLST_ W- RE
 70
        64
 62
        15
  6
CONTINUOUS
290
         1
370
        18
390
1D
  0
LAYER
  5
C9
100
AcDbSymbolTableRecord
100
AcDbLayerTableRecord
  2
3301_10F # VERSCHLST_ W+ RE
 70
        64
 62
        15
  6
CONTINUOUS
290
         1
370
        18
390
1D
  0
LAYER
  5
CA
100
AcDbSymbolTableRecord
100
AcDbLayerTableRecord
  2
3301_10H # VERSCHLST_ SIG FREI RE
 70
        64
 62
        15
  6
CONTINUOUS
290
         1
370
        18
390
1D
  0
LAYER
  5
CB
100
AcDbSymbolTableRecord
100
AcDbLayerTableRecord
  2
3301_10A # VERSCHLST_ W+ LI
 70
        64
 62
        30
  6
CONTINUOUS
290
         1
370
        18
390
1D
  0
LAYER
  5
CC
100
AcDbSymbolTableRecord
100
AcDbLayerTableRecord
  2
3301_10T # VERSCHLST_ ANTRIEB UNTEN
 70
        64
 62
        30
  6
CONTINUOUS
290
         1
370
        18
390
1D
  0
LAYER
  5
CD
100
AcDbSymbolTableRecord
100
AcDbLayerTableRecord
  2
3301_10S # VERSCHLST_ FÜHRUNG UNTEN
 70
        64
 62
        30
  6
CONTINUOUS
290
         1
370
        18
390
1D
  0
LAYER
  5
CE
100
AcDbSymbolTableRecord
100
AcDbLayerTableRecord
  2
3301_10R # VERSCHLST_ UNTEN GERADE
 70
        64
 62
        30
  6
CONTINUOUS
290
         1
370
        18
390
1D
  0
LAYER
  5
CF
100
AcDbSymbolTableRecord
100
AcDbLayerTableRecord
  2
3301_10M # VERSCHLST_ LEER LI
 70
        64
 62
        30
  6
CONTINUOUS
290
         1
370
        18
390
1D
  0
LAYER
  5
D0
100
AcDbSymbolTableRecord
100
AcDbLayerTableRecord
  2
3301_10N # VERSCHLST_ LEER RE
 70
        64
 62
        15
  6
CONTINUOUS
290
         1
370
        18
390
1D
  0
LAYER
  5
D1
100
AcDbSymbolTableRecord
100
AcDbLayerTableRecord
  2
3301_10P # VERSCHLUSSSTÜCK
 70
        64
 62
        30
  6
CONTINUOUS
290
         1
370
        18
390
1D
  0
LAYER
  5
D2
100
AcDbSymbolTableRecord
100
AcDbLayerTableRecord
  2
3301_32P # FSTRSCHIEBERANTRIEBSWELLE
 70
        64
 62
        30
  6
CONTINUOUS
290
         1
370
        18
390
1D
  0
LAYER
  5
D3
100
AcDbSymbolTableRecord
100
AcDbLayerTableRecord
  2
3301_33Q # VERSCHLUSSBALKEN
 70
        64
 62
        30
  6
CONTINUOUS
290
         1
370
        18
390
1D
  0
LAYER
  5
D4
100
AcDbSymbolTableRecord
100
AcDbLayerTableRecord
  2
3301_33P # VERSCHLUSSBALKEN
 70
        64
 62
        30
  6
CONTINUOUS
290
         1
370
        18
390
1D
  0
LAYER
  5
D5
100
AcDbSymbolTableRecord
100
AcDbLayerTableRecord
  2
3301_31R # SCHIEBERRECHEN
 70
        64
 62
        15
  6
CONTINUOUS
290
         1
370
        18
390
1D
  0
LAYER
  5
D6
100
AcDbSymbolTableRecord
100
AcDbLayerTableRecord
  2
3301_31L # SCHIEBERRECHEN
 70
        64
 62
        11
  6
CONTINUOUS
290
         1
370
        18
390
1D
  0
LAYER
  5
D7
100
AcDbSymbolTableRecord
100
AcDbLayerTableRecord
  2
3301_12S # 4 VERSCHLUSSBALKENWINKEL
 70
        64
 62
        15
  6
CONTINUOUS
290
         1
370
        18
390
1D
  0
LAYER
  5
D8
100
AcDbSymbolTableRecord
100
AcDbLayerTableRecord
  2
3301_12R # VERSCHLUSSBALKENWINKEL
 70
        64
 62
        15
  6
CONTINUOUS
290
         1
370
        18
390
1D
  0
LAYER
  5
D9
100
AcDbSymbolTableRecord
100
AcDbLayerTableRecord
  2
3301_12M # 4 VERSCHLUSSBALKENWINKEL
 70
        64
 62
        11
  6
CONTINUOUS
290
         1
370
        18
390
1D
  0
LAYER
  5
DA
100
AcDbSymbolTableRecord
100
AcDbLayerTableRecord
  2
3301_12L # VERSCHLUSSBALKENWINKEL
 70
        64
 62
        11
  6
CONTINUOUS
290
         1
370
        18
390
1D
  0
LAYER
  5
DB
100
AcDbSymbolTableRecord
100
AcDbLayerTableRecord
  2
3301_13S # 4 FSTRSCHIEBERANTRIEBSSTÜCKE
 70
        64
 62
        15
  6
CONTINUOUS
290
         1
370
        18
390
1D
  0
LAYER
  5
DC
100
AcDbSymbolTableRecord
100
AcDbLayerTableRecord
  2
3301_13R # FSTRSCHIEBERANTRIEBSSTÜCK
 70
        64
 62
        15
  6
CONTINUOUS
290
         1
370
        18
390
1D
  0
LAYER
  5
DD
100
AcDbSymbolTableRecord
100
AcDbLayerTableRecord
  2
3301_13M # 4 FSTRSCHIEBERANTRIEBSSTÜCKE
 70
        64
 62
        11
  6
CONTINUOUS
290
         1
370
        18
390
1D
  0
LAYER
  5
DE
100
AcDbSymbolTableRecord
100
AcDbLayerTableRecord
  2
3301_13L # FSTRSCHIEBERANTRIEBSSTÜCK
 70
        64
 62
        11
  6
CONTINUOUS
290
         1
370
        18
390
1D
  0
LAYER
  5
DF
100
AcDbSymbolTableRecord
100
AcDbLayerTableRecord
  2
3301_14S # 4 FSTRSCHIEBERANTRIEBSKURBELN
 70
        64
 62
        15
  6
CONTINUOUS
290
         1
370
        18
390
1D
  0
LAYER
  5
E0
100
AcDbSymbolTableRecord
100
AcDbLayerTableRecord
  2
3301_14R # FSTRSCHIEBERANTRIEBSKURBEL
 70
        64
 62
        15
  6
CONTINUOUS
290
         1
370
        18
390
1D
  0
LAYER
  5
E1
100
AcDbSymbolTableRecord
100
AcDbLayerTableRecord
  2
3301_14M # 4 FSTRSCHIEBERANTRIEBSKURBELN
 70
        64
 62
        11
  6
CONTINUOUS
290
         1
370
        18
390
1D
  0
LAYER
  5
E2
100
AcDbSymbolTableRecord
100
AcDbLayerTableRecord
  2
3301_14L # FSTRSCHIEBERANTRIEBSKURBEL
 70
        64
 62
        11
  6
CONTINUOUS
290
         1
370
        18
390
1D
  0
LAYER
  5
E3
100
AcDbSymbolTableRecord
100
AcDbLayerTableRecord
  2
3301_34P # GRUPPENVERSCHLUSSWELLE
 70
        64
 62
        30
  6
CONTINUOUS
290
         1
370
        18
390
1D
  0
LAYER
  5
E4
100
AcDbSymbolTableRecord
100
AcDbLayerTableRecord
  2
3301_21P # GRUPPENVERSCHLUSSSPERRSCHWINGE
 70
        64
 62
        30
  6
CONTINUOUS
290
         1
370
        18
390
1D
  0
LAYER
  5
E5
100
AcDbSymbolTableRecord
100
AcDbLayerTableRecord
  2
3301_20S # 3 GRUPPENVERSCHLUSSANTRIEBE
 70
        64
 62
        15
  6
CONTINUOUS
290
         1
370
        18
390
1D
  0
LAYER
  5
E6
100
AcDbSymbolTableRecord
100
AcDbLayerTableRecord
  2
3301_20R # GRUPPENVERSCHLUSSANTRIEB
 70
        64
 62
        15
  6
CONTINUOUS
290
         1
370
        18
390
1D
  0
LAYER
  5
E7
100
AcDbSymbolTableRecord
100
AcDbLayerTableRecord
  2
3301_20M # 3 GRUPPENVERSCHLUSSANTRIEBE
 70
        64
 62
        11
  6
CONTINUOUS
290
         1
370
        18
390
1D
  0
LAYER
  5
E8
100
AcDbSymbolTableRecord
100
AcDbLayerTableRecord
  2
3301_20L # GRUPPENVERSCHLUSSANTRIEB
 70
        64
 62
        11
  6
CONTINUOUS
290
         1
370
        18
390
1D
  0
LAYER
  5
E9
100
AcDbSymbolTableRecord
100
AcDbLayerTableRecord
  2
3301_22P # GRUPPENVERSCHLUSSSCHWINGENLAGER
 70
        64
 62
        30
  6
CONTINUOUS
290
         1
370
        18
390
1D
  0
LAYER
  5
EA
100
AcDbSymbolTableRecord
100
AcDbLayerTableRecord
  2
3301_24µ # GRUPPENVERSCHLUSSSCHWINGENRÖLLCHEN
 70
        64
 62
        30
  6
CONTINUOUS
290
         1
370
        18
390
1D
  0
LAYER
  5
EB
100
AcDbSymbolTableRecord
100
AcDbLayerTableRecord
  2
3301___ VERSCHLUSSREGISTER
 70
        64
 62
       230
  6
CONTINUOUS
290
         1
370
         0
390
1D
  0
LAYER
  5
EC
100
AcDbSymbolTableRecord
100
AcDbLayerTableRecord
  2
FRÄSPFADE
 70
        64
 62
        30
  6
CONTINUOUS
290
         1
370
         0
390
1D
  0
LAYER
  5
ED
100
AcDbSymbolTableRecord
100
AcDbLayerTableRecord
  2
BESCHRIFTUNG0
 70
        64
 62
         7
  6
CONTINUOUS
290
         1
370
        25
390
1D
  0
LAYER
  5
EE
100
AcDbSymbolTableRecord
100
AcDbLayerTableRecord
  2
GEWINDELINIEN
 70
        64
 62
       212
  6
CONTINUOUS
290
         1
370
        25
390
1D
  0
LAYER
  5
EF
100
AcDbSymbolTableRecord
100
AcDbLayerTableRecord
  2
STANDARD
 70
        64
 62
         7
  6
CONTINUOUS
290
         1
370
         0
390
1D
  0
ENDTAB
  0
TABLE
  2
STYLE
  5
3
100
AcDbSymbolTable
 70
         3
  0
STYLE
  5
17
100
AcDbSymbolTableRecord
100
AcDbTextStyleTableRecord
  2
Standard
 70
         0
 40
0.0
 41
1.0
 50
0.0
 71
         0
 42
0.0
  3
txt
  4

  0
STYLE
  5
2D
100
AcDbSymbolTableRecord
100
AcDbTextStyleTableRecord
  2
CADdy
 70
         0
 40
0.0
 41
1.0
 50
0.0
 71
         0
 42
3.5
  3
txt.shx
  4

  0
STYLE
  5
2E
100
AcDbSymbolTableRecord
100
AcDbTextStyleTableRecord
  2
Arial
 70
         0
 40
0.0
 41
1.0
 50
0.0
 71
         0
 42
3.5
  3
arial.ttf
  4

1001
ACAD
1000
Arial
1071
       34
  0
ENDTAB
  0
TABLE
  2
VIEW
  5
5
100
AcDbSymbolTable
 70
         0
  0
ENDTAB
  0
TABLE
  2
UCS
  5
6
100
AcDbSymbolTable
 70
         0
  0
ENDTAB
  0
TABLE
  2
APPID
  5
8
100
AcDbSymbolTable
 70
         1
  0
APPID
  5
16
100
AcDbSymbolTableRecord
100
AcDbRegAppTableRecord
  2
ACAD
 70
        64
  0
ENDTAB
  0
TABLE
  2
DIMSTYLE
  5
9
100
AcDbSymbolTable
 70
         1
100
AcDbDimStyleTable
 71
         0
  0
DIMSTYLE
105
18
100
AcDbSymbolTableRecord
100
AcDbDimStyleTableRecord
  2
Standard
 70
         0
  3

  4

 40
1.0
 41
0.18
 42
0.0625
 43
0.38
 44
0.18
 45
0.0
 46
0.0
 47
0.0
 48
0.0
 71
         0
 72
         0
 73
         1
 74
         1
 75
         0
 76
         0
 77
         0
 78
         0
 79
         0
140
0.18
141
0.09
142
0.0
143
25.4
144
1.0
145
0.0
146
1.0
147
0.09
148
0.0
170
         0
171
         2
172
         0
173
         0
174
         0
175
         0
176
         0
177
         0
178
         0
179
         0
271
         4
272
         4
273
         2
274
         2
275
         0
276
         0
277
         2
278
        46
279
         0
280
         0
281
         0
282
         0
283
         1
284
         0
285
         0
286
         0
288
         0
289
         3
340
17
341
0
342
0
343
0
344
0
371
        -2
372
        -2
  0
ENDTAB
  0
TABLE
  2
BLOCK_RECORD
  5
1
100
AcDbSymbolTable
 70
         0
  0
BLOCK_RECORD
  5
A
100
AcDbSymbolTableRecord
100
AcDbBlockTableRecord
  2
*MODEL_SPACE
340
20
  0
BLOCK_RECORD
  5
B
100
AcDbSymbolTableRecord
100
AcDbBlockTableRecord
  2
*PAPER_SPACE
340
21
  0
ENDTAB
  0
ENDSEC
  0
SECTION
  2
BLOCKS
  0
BLOCK
  5
D
100
AcDbEntity
  8
0
390
0
100
AcDbBlockBegin
  2
*MODEL_SPACE
 70
         0
 10
0.0
 20
0.0
 30
0.0
  3
*MODEL_SPACE
  1

  0
ENDBLK
  5
E
100
AcDbEntity
  8
0
390
0
100
AcDbBlockEnd
  0
BLOCK
  5
F
100
AcDbEntity
 67
         1
  8
0
390
0
100
AcDbBlockBegin
  2
*PAPER_SPACE
 70
         0
 10
0.0
 20
0.0
 30
0.0
  3
*PAPER_SPACE
  1

  0
ENDBLK
  5
10
100
AcDbEntity
 67
         1
  8
0
390
0
100
AcDbBlockEnd
  0
ENDSEC
  0
SECTION
  2
ENTITIES
  0
TEXT
  5
F0
100
AcDbEntity
  8
BESCHRIFTUNG
390
0
100
AcDbText
 10
215.3145333333
 20
29.3230888889
 30
0.0
 40
3.3
  1
2026-09-20
 41
1.0318365278
  7
Arial
 11
215.3145333333
 21
32.6230888889
 31
0.0
100
AcDbText
 73
         3
  0
TEXT
  5
F1
100
AcDbEntity
  8
BESCHRIFTUNG
390
0
100
AcDbText
 10
215.3145333333
 20
6.9230888889
 30
0.0
 40
3.3
  1
3301 P.1h Verschlussregister JE
 41
0.9827813311
  7
Arial
 11
215.3145333333
 21
10.2230888889
 31
0.0
100
AcDbText
 73
         3
  0
LINE
  5
F2
100
AcDbEntity
  8
3301 RAHMEN LÄNGS
390
0
100
AcDbLine
 10
33.25
 20
187.0
 30
0.0
 11
33.25
 21
172.0
 31
0.0
  0
LINE
  5
F3
100
AcDbEntity
  8
3301 RAHMEN LÄNGS
390
0
100
AcDbLine
 10
33.25
 20
172.0
 30
0.0
 11
33.25
 21
157.0
 31
0.0
  0
LINE
  5
F4
100
AcDbEntity
  8
3301 RAHMEN LÄNGS
390
0
100
AcDbLine
 10
33.25
 20
172.0
 30
0.0
 11
263.25
 21
172.0
 31
0.0
  0
LINE
  5
F5
100
AcDbEntity
  8
3301 RAHMEN LÄNGS
390
0
  6
DASHED
100
AcDbLine
 10
33.25
 20
174.0
 30
0.0
 11
263.25
 21
174.0
 31
0.0
  0
LINE
  5
F6
100
AcDbEntity
  8
3301 RAHMEN LÄNGS
390
0
100
AcDbLine
 10
33.25
 20
187.0
 30
0.0
 11
263.25
 21
187.0
 31
0.0
  0
LINE
  5
F7
100
AcDbEntity
  8
3301 RAHMEN LÄNGS
390
0
100
AcDbLine
 10
263.25
 20
172.0
 30
0.0
 11
263.25
 21
157.0
 31
0.0
  0
LINE
  5
F8
100
AcDbEntity
  8
3301 RAHMEN LÄNGS
390
0
100
AcDbLine
 10
263.25
 20
187.0
 30
0.0
 11
263.25
 21
172.0
 31
0.0
  0
LINE
  5
F9
100
AcDbEntity
  8
3301 RAHMEN LÄNGS
390
0
100
AcDbLine
 10
33.25
 20
157.0
 30
0.0
 11
263.25
 21
157.0
 31
0.0
  0
LINE
  5
FA
100
AcDbEntity
  8
3301 RAHMEN LÄNGS
390
0
  6
DASHED
100
AcDbLine
 10
33.25
 20
170.0
 30
0.0
 11
263.25
 21
170.0
 31
0.0
  0
CIRCLE
  5
FB
100
AcDbEntity
  8
3301_713L # MITTE
390
0
100
AcDbCircle
 10
66.375
 20
169.0
 30
0.0
 40
1.0
  0
CIRCLE
  5
FC
100
AcDbEntity
  8
3301_713L # MITTE
390
0
100
AcDbCircle
 10
45.5
 20
161.5
 30
0.0
 40
1.25
  0
CIRCLE
  5
FD
100
AcDbEntity
  8
3301_713L # MITTE
390
0
100
AcDbCircle
 10
99.375
 20
169.0
 30
0.0
 40
1.0
  0
CIRCLE
  5
FE
100
AcDbEntity
  8
3301_713L # MITTE
390
0
100
AcDbCircle
 10
78.5
 20
161.5
 30
0.0
 40
1.25
  0
CIRCLE
  5
FF
100
AcDbEntity
  8
3301_713L # MITTE
390
0
100
AcDbCircle
 10
132.375
 20
169.0
 30
0.0
 40
1.0
  0
CIRCLE
  5
100
100
AcDbEntity
  8
3301_713L # MITTE
390
0
100
AcDbCircle
 10
111.5
 20
161.5
 30
0.0
 40
1.25
  0
CIRCLE
  5
101
100
AcDbEntity
  8
3301_713L # MITTE
390
0
100
AcDbCircle
 10
165.375
 20
169.0
 30
0.0
 40
1.0
  0
CIRCLE
  5
102
100
AcDbEntity
  8
3301_713L # MITTE
390
0
100
AcDbCircle
 10
144.5
 20
161.5
 30
0.0
 40
1.25
  0
CIRCLE
  5
103
100
AcDbEntity
  8
3301_713L # MITTE
390
0
100
AcDbCircle
 10
177.5
 20
161.5
 30
0.0
 40
1.25
  0
CIRCLE
  5
104
100
AcDbEntity
  8
3301_713L # MITTE
390
0
100
AcDbCircle
 10
198.375
 20
169.0
 30
0.0
 40
1.0
  0
CIRCLE
  5
105
100
AcDbEntity
  8
3301_713L # MITTE
390
0
100
AcDbCircle
 10
210.5
 20
161.5
 30
0.0
 40
1.25
  0
CIRCLE
  5
106
100
AcDbEntity
  8
3301_713L # MITTE
390
0
100
AcDbCircle
 10
231.375
 20
169.0
 30
0.0
 40
1.0
  0
CIRCLE
  5
107
100
AcDbEntity
  8
3301_713L # MITTE
390
0
100
AcDbCircle
 10
242.75
 20
161.5
 30
0.0
 40
1.25
  0
CIRCLE
  5
108
100
AcDbEntity
  8
3301_713R # MITTE
390
0
100
AcDbCircle
 10
36.25
 20
183.0
 30
0.0
 40
1.25
  0
CIRCLE
  5
109
100
AcDbEntity
  8
3301 RAHMEN LÄNGS
390
0
100
AcDbCircle
 10
29.25
 20
178.0
 30
0.0
 40
1.25
  0
CIRCLE
  5
10A
100
AcDbEntity
  8
3301_713R # MITTE
390
0
100
AcDbCircle
 10
260.25
 20
178.0
 30
0.0
 40
1.25
  0
CIRCLE
  5
10B
100
AcDbEntity
  8
3301 RAHMEN LÄNGS
390
0
100
AcDbCircle
 10
267.25
 20
183.0
 30
0.0
 40
1.25
  0
LINE
  5
10C
100
AcDbEntity
  8
3301 RAHMEN LÄNGS
390
0
100
AcDbLine
 10
25.25
 20
145.0
 30
0.0
 11
25.25
 21
130.0
 31
0.0
  0
LINE
  5
10D
100
AcDbEntity
  8
3301 RAHMEN LÄNGS
390
0
100
AcDbLine
 10
25.25
 20
130.0
 30
0.0
 11
25.25
 21
115.0
 31
0.0
  0
LINE
  5
10E
100
AcDbEntity
  8
3301 RAHMEN LÄNGS
390
0
100
AcDbLine
 10
25.25
 20
130.0
 30
0.0
 11
35.25
 21
130.0
 31
0.0
  0
LINE
  5
10F
100
AcDbEntity
  8
3301 RAHMEN LÄNGS
390
0
  6
DASHED
100
AcDbLine
 10
25.25
 20
132.0
 30
0.0
 11
35.25
 21
132.0
 31
0.0
  0
LINE
  5
110
100
AcDbEntity
  8
3301 RAHMEN LÄNGS
390
0
100
AcDbLine
 10
25.25
 20
145.0
 30
0.0
 11
35.25
 21
145.0
 31
0.0
  0
LINE
  5
111
100
AcDbEntity
  8
3301 RAHMEN LÄNGS
390
0
100
AcDbLine
 10
25.25
 20
115.0
 30
0.0
 11
35.25
 21
115.0
 31
0.0
  0
LINE
  5
112
100
AcDbEntity
  8
3301 RAHMEN LÄNGS
390
0
  6
DASHED
100
AcDbLine
 10
25.25
 20
128.0
 30
0.0
 11
35.25
 21
128.0
 31
0.0
  0
CIRCLE
  5
113
100
AcDbEntity
  8
3301_711R # LI_ENDE LANG
390
0
100
AcDbCircle
 10
29.25
 20
136.0
 30
0.0
 40
1.25
  0
LINE
  5
114
100
AcDbEntity
  8
3301 RAHMEN LÄNGS
390
0
100
AcDbLine
 10
271.25
 20
145.0
 30
0.0
 11
271.25
 21
130.0
 31
0.0
  0
CIRCLE
  5
115
100
AcDbEntity
  8
3301 RAHMEN LÄNGS
390
0
100
AcDbCircle
 10
260.25
 20
136.0
 30
0.0
 40
1.25
  0
CIRCLE
  5
116
100
AcDbEntity
  8
3301_715R # RE_ENDE LANG
390
0
100
AcDbCircle
 10
267.25
 20
141.0
 30
0.0
 40
1.25
  0
LINE
  5
117
100
AcDbEntity
  8
3301 RAHMEN LÄNGS
390
0
100
AcDbLine
 10
53.25
 20
145.0
 30
0.0
 11
53.25
 21
130.0
 31
0.0
  0
LINE
  5
118
100
AcDbEntity
  8
3301 RAHMEN LÄNGS
390
0
100
AcDbLine
 10
53.25
 20
130.0
 30
0.0
 11
53.25
 21
115.0
 31
0.0
  0
LINE
  5
119
100
AcDbEntity
  8
3301 RAHMEN LÄNGS
390
0
100
AcDbLine
 10
53.25
 20
130.0
 30
0.0
 11
55.25
 21
130.0
 31
0.0
  0
LINE
  5
11A
100
AcDbEntity
  8
3301 RAHMEN LÄNGS
390
0
  6
DASHED
100
AcDbLine
 10
53.25
 20
132.0
 30
0.0
 11
55.25
 21
132.0
 31
0.0
  0
LINE
  5
11B
100
AcDbEntity
  8
3301 RAHMEN LÄNGS
390
0
100
AcDbLine
 10
53.25
 20
145.0
 30
0.0
 11
55.25
 21
145.0
 31
0.0
  0
LINE
  5
11C
100
AcDbEntity
  8
3301 RAHMEN LÄNGS
390
0
100
AcDbLine
 10
53.25
 20
115.0
 30
0.0
 11
55.25
 21
115.0
 31
0.0
  0
LINE
  5
11D
100
AcDbEntity
  8
3301 RAHMEN LÄNGS
390
0
  6
DASHED
100
AcDbLine
 10
53.25
 20
128.0
 30
0.0
 11
55.25
 21
128.0
 31
0.0
  0
LINE
  5
11E
100
AcDbEntity
  8
3301 RAHMEN LÄNGS
390
0
  6
DASHED
100
AcDbLine
 10
243.25
 20
128.0
 30
0.0
 11
241.25
 21
128.0
 31
0.0
  0
LINE
  5
11F
100
AcDbEntity
  8
3301 RAHMEN LÄNGS
390
0
  6
DASHED
100
AcDbLine
 10
243.25
 20
132.0
 30
0.0
 11
241.25
 21
132.0
 31
0.0
  0
LINE
  5
120
100
AcDbEntity
  8
3301 RAHMEN LÄNGS
390
0
100
AcDbLine
 10
243.25
 20
145.0
 30
0.0
 11
243.25
 21
130.0
 31
0.0
  0
LINE
  5
121
100
AcDbEntity
  8
3301 RAHMEN LÄNGS
390
0
100
AcDbLine
 10
243.25
 20
130.0
 30
0.0
 11
241.25
 21
130.0
 31
0.0
  0
LINE
  5
122
100
AcDbEntity
  8
3301 RAHMEN LÄNGS
390
0
100
AcDbLine
 10
243.25
 20
130.0
 30
0.0
 11
243.25
 21
115.0
 31
0.0
  0
LINE
  5
123
100
AcDbEntity
  8
3301 RAHMEN LÄNGS
390
0
100
AcDbLine
 10
243.25
 20
115.0
 30
0.0
 11
241.25
 21
115.0
 31
0.0
  0
LINE
  5
124
100
AcDbEntity
  8
3301 RAHMEN LÄNGS
390
0
100
AcDbLine
 10
243.25
 20
145.0
 30
0.0
 11
241.25
 21
145.0
 31
0.0
  0
LINE
  5
125
100
AcDbEntity
  8
3301 RAHMEN LÄNGS
390
0
  6
DASHED
100
AcDbLine
 10
271.25
 20
132.0
 30
0.0
 11
261.25
 21
132.0
 31
0.0
  0
LINE
  5
126
100
AcDbEntity
  8
3301 RAHMEN LÄNGS
390
0
  6
DASHED
100
AcDbLine
 10
271.25
 20
128.0
 30
0.0
 11
261.25
 21
128.0
 31
0.0
  0
LINE
  5
127
100
AcDbEntity
  8
3301 RAHMEN LÄNGS
390
0
100
AcDbLine
 10
271.25
 20
145.0
 30
0.0
 11
261.25
 21
145.0
 31
0.0
  0
LINE
  5
128
100
AcDbEntity
  8
3301 RAHMEN LÄNGS
390
0
100
AcDbLine
 10
271.25
 20
115.0
 30
0.0
 11
261.25
 21
115.0
 31
0.0
  0
LINE
  5
129
100
AcDbEntity
  8
3301 RAHMEN LÄNGS
390
0
100
AcDbLine
 10
271.25
 20
130.0
 30
0.0
 11
261.25
 21
130.0
 31
0.0
  0
LINE
  5
12A
100
AcDbEntity
  8
3301 RAHMEN LÄNGS
390
0
100
AcDbLine
 10
271.25
 20
130.0
 30
0.0
 11
271.25
 21
115.0
 31
0.0
  0
LINE
  5
12B
100
AcDbEntity
  8
MITTELLINIEN
390
0
100
AcDbLine
 10
19.0
 20
172.0
 30
0.0
 11
277.0
 21
172.0
 31
0.0
  0
CIRCLE
  5
12C
100
AcDbEntity
  8
3301_713L # MITTE
390
0
  6
PHANTOM
100
AcDbCircle
 10
35.25
 20
157.0
 30
0.0
 40
0.5
  0
CIRCLE
  5
12D
100
AcDbEntity
  8
3301_713L # MITTE
390
0
  6
PHANTOM
100
AcDbCircle
 10
261.25
 20
157.0
 30
0.0
 40
1.0
  0
LINE
  5
12E
100
AcDbEntity
  8
3301_713L # MITTE
390
0
  6
DASHED
100
AcDbLine
 10
35.25
 20
157.0
 30
0.0
 11
45.5
 21
161.5
 31
0.0
  0
LINE
  5
12F
100
AcDbEntity
  8
3301_713L # MITTE
390
0
  6
DASHED
100
AcDbLine
 10
45.5
 20
161.5
 30
0.0
 11
66.375
 21
169.0
 31
0.0
  0
LINE
  5
130
100
AcDbEntity
  8
3301_713L # MITTE
390
0
  6
DASHED
100
AcDbLine
 10
66.375
 20
169.0
 30
0.0
 11
78.5
 21
161.5
 31
0.0
  0
LINE
  5
131
100
AcDbEntity
  8
3301_713L # MITTE
390
0
  6
DASHED
100
AcDbLine
 10
78.5
 20
161.5
 30
0.0
 11
99.375
 21
169.0
 31
0.0
  0
LINE
  5
132
100
AcDbEntity
  8
3301_713L # MITTE
390
0
  6
DASHED
100
AcDbLine
 10
132.375
 20
169.0
 30
0.0
 11
144.5
 21
161.5
 31
0.0
  0
LINE
  5
133
100
AcDbEntity
  8
3301_713L # MITTE
390
0
  6
DASHED
100
AcDbLine
 10
111.5
 20
161.5
 30
0.0
 11
132.375
 21
169.0
 31
0.0
  0
LINE
  5
134
100
AcDbEntity
  8
3301_713L # MITTE
390
0
  6
DASHED
100
AcDbLine
 10
165.375
 20
169.0
 30
0.0
 11
177.5
 21
161.5
 31
0.0
  0
LINE
  5
135
100
AcDbEntity
  8
3301_713L # MITTE
390
0
  6
DASHED
100
AcDbLine
 10
144.5
 20
161.5
 30
0.0
 11
165.375
 21
169.0
 31
0.0
  0
LINE
  5
136
100
AcDbEntity
  8
3301_713L # MITTE
390
0
  6
DASHED
100
AcDbLine
 10
198.375
 20
169.0
 30
0.0
 11
210.5
 21
161.5
 31
0.0
  0
LINE
  5
137
100
AcDbEntity
  8
3301_713L # MITTE
390
0
  6
DASHED
100
AcDbLine
 10
177.5
 20
161.5
 30
0.0
 11
198.375
 21
169.0
 31
0.0
  0
LINE
  5
138
100
AcDbEntity
  8
3301_713L # MITTE
390
0
  6
DASHED
100
AcDbLine
 10
231.375
 20
169.0
 30
0.0
 11
242.75
 21
161.5
 31
0.0
  0
LINE
  5
139
100
AcDbEntity
  8
3301_713L # MITTE
390
0
  6
DASHED
100
AcDbLine
 10
210.5
 20
161.5
 30
0.0
 11
231.375
 21
169.0
 31
0.0
  0
LINE
  5
13A
100
AcDbEntity
  8
3301_713L # MITTE
390
0
  6
DASHED
100
AcDbLine
 10
242.75
 20
161.5
 30
0.0
 11
261.25
 21
157.0
 31
0.0
  0
LINE
  5
13B
100
AcDbEntity
  8
MITTELLINIEN
390
0
100
AcDbLine
 10
19.0
 20
157.0
 30
0.0
 11
277.0
 21
157.0
 31
0.0
  0
LINE
  5
13C
100
AcDbEntity
  8
MITTELLINIEN
390
0
100
AcDbLine
 10
19.0
 20
187.0
 30
0.0
 11
277.0
 21
187.0
 31
0.0
  0
CIRCLE
  5
13D
100
AcDbEntity
  8
3301_711L # LI_ENDE LANG
390
0
  6
PHANTOM
100
AcDbCircle
 10
24.25
 20
115.0
 30
0.0
 40
0.5
  0
CIRCLE
  5
13E
100
AcDbEntity
  8
3301_711L # LI_ENDE LANG
390
0
  6
PHANTOM
100
AcDbCircle
 10
35.25
 20
115.0
 30
0.0
 40
1.0
  0
CIRCLE
  5
13F
100
AcDbEntity
  8
3301_712L # LI_ENDE KURZ
390
0
  6
PHANTOM
100
AcDbCircle
 10
44.25
 20
115.0
 30
0.0
 40
0.5
  0
CIRCLE
  5
140
100
AcDbEntity
  8
3301_712L # LI_ENDE KURZ
390
0
  6
PHANTOM
100
AcDbCircle
 10
55.25
 20
115.0
 30
0.0
 40
1.0
  0
LINE
  5
141
100
AcDbEntity
  8
3301_711L # LI_ENDE LANG
390
0
  6
DIVIDE
100
AcDbLine
 10
24.25
 20
130.0
 30
0.0
 11
24.25
 21
115.0
 31
0.0
  0
LINE
  5
142
100
AcDbEntity
  8
3301_712L # LI_ENDE KURZ
390
0
  6
DIVIDE
100
AcDbLine
 10
52.25
 20
130.0
 30
0.0
 11
52.25
 21
115.0
 31
0.0
  0
LINE
  5
143
100
AcDbEntity
  8
3301_711L # LI_ENDE LANG
390
0
  6
DASHED
100
AcDbLine
 10
24.25
 20
130.0
 30
0.0
 11
35.25
 21
115.0
 31
0.0
  0
LINE
  5
144
100
AcDbEntity
  8
3301_712L # LI_ENDE KURZ
390
0
  6
DASHED
100
AcDbLine
 10
44.25
 20
115.0
 30
0.0
 11
52.25
 21
130.0
 31
0.0
  0
LINE
  5
145
100
AcDbEntity
  8
3301_712L # LI_ENDE KURZ
390
0
  6
DASHED
100
AcDbLine
 10
52.25
 20
115.0
 30
0.0
 11
55.25
 21
115.0
 31
0.0
  0
CIRCLE
  5
146
100
AcDbEntity
  8
3301_715L # RE_ENDE LANG
390
0
  6
PHANTOM
100
AcDbCircle
 10
272.25
 20
115.0
 30
0.0
 40
1.0
  0
CIRCLE
  5
147
100
AcDbEntity
  8
3301_715L # RE_ENDE LANG
390
0
  6
PHANTOM
100
AcDbCircle
 10
261.25
 20
115.0
 30
0.0
 40
0.5
  0
CIRCLE
  5
148
100
AcDbEntity
  8
3301_714L # RE_ENDE KURZ
390
0
  6
PHANTOM
100
AcDbCircle
 10
252.25
 20
115.0
 30
0.0
 40
1.0
  0
CIRCLE
  5
149
100
AcDbEntity
  8
3301_714L # RE_ENDE KURZ
390
0
  6
PHANTOM
100
AcDbCircle
 10
241.25
 20
115.0
 30
0.0
 40
0.5
  0
LINE
  5
14A
100
AcDbEntity
  8
3301_714L # RE_ENDE KURZ
390
0
  6
DASHED
100
AcDbLine
 10
244.25
 20
115.0
 30
0.0
 11
241.25
 21
115.0
 31
0.0
  0
LINE
  5
14B
100
AcDbEntity
  8
3301 RAHMEN LÄNGS
390
0
100
AcDbLine
 10
243.25
 20
115.0
 30
0.0
 11
241.25
 21
115.0
 31
0.0
  0
LINE
  5
14C
100
AcDbEntity
  8
3301_714L # RE_ENDE KURZ
390
0
  6
DASHED
100
AcDbLine
 10
252.25
 20
115.0
 30
0.0
 11
244.25
 21
130.0
 31
0.0
  0
LINE
  5
14D
100
AcDbEntity
  8
3301 RAHMEN LÄNGS
390
0
100
AcDbLine
 10
271.25
 20
115.0
 30
0.0
 11
261.25
 21
115.0
 31
0.0
  0
LINE
  5
14E
100
AcDbEntity
  8
3301_715L # RE_ENDE LANG
390
0
  6
DASHED
100
AcDbLine
 10
272.25
 20
130.0
 30
0.0
 11
261.25
 21
115.0
 31
0.0
  0
LINE
  5
14F
100
AcDbEntity
  8
3301_714L # RE_ENDE KURZ
390
0
  6
DIVIDE
100
AcDbLine
 10
244.25
 20
130.0
 30
0.0
 11
244.25
 21
115.0
 31
0.0
  0
LINE
  5
150
100
AcDbEntity
  8
3301_715L # RE_ENDE LANG
390
0
  6
DIVIDE
100
AcDbLine
 10
272.25
 20
130.0
 30
0.0
 11
272.25
 21
115.0
 31
0.0
  0
LINE
  5
151
100
AcDbEntity
  8
3301_413L # MITTE
390
0
  6
DASHED
100
AcDbLine
 10
115.875
 20
127.0
 30
0.0
 11
128.0
 21
119.5
 31
0.0
  0
LINE
  5
152
100
AcDbEntity
  8
3301_413L # MITTE
390
0
  6
DASHED
100
AcDbLine
 10
95.0
 20
119.5
 30
0.0
 11
115.875
 21
127.0
 31
0.0
  0
LINE
  5
153
100
AcDbEntity
  8
3301_413L # MITTE
390
0
  6
DASHED
100
AcDbLine
 10
84.75
 20
115.0
 30
0.0
 11
95.0
 21
119.5
 31
0.0
  0
CIRCLE
  5
154
100
AcDbEntity
  8
3301_413L # MITTE
390
0
  6
PHANTOM
100
AcDbCircle
 10
84.75
 20
115.0
 30
0.0
 40
0.5
  0
LINE
  5
155
100
AcDbEntity
  8
MITTELLINIEN
390
0
100
AcDbLine
 10
68.5
 20
130.0
 30
0.0
 11
229.0
 21
130.0
 31
0.0
  0
LINE
  5
156
100
AcDbEntity
  8
3301_413L # MITTE
390
0
  6
DASHED
100
AcDbLine
 10
148.875
 20
127.0
 30
0.0
 11
161.0
 21
119.5
 31
0.0
  0
LINE
  5
157
100
AcDbEntity
  8
3301_413L # MITTE
390
0
  6
DASHED
100
AcDbLine
 10
161.0
 20
119.5
 30
0.0
 11
181.875
 21
127.0
 31
0.0
  0
LINE
  5
158
100
AcDbEntity
  8
3301_413L # MITTE
390
0
  6
DASHED
100
AcDbLine
 10
181.875
 20
127.0
 30
0.0
 11
194.0
 21
119.5
 31
0.0
  0
LINE
  5
159
100
AcDbEntity
  8
3301 RAHMEN LÄNGS
390
0
100
AcDbLine
 10
82.75
 20
145.0
 30
0.0
 11
82.75
 21
130.0
 31
0.0
  0
LINE
  5
15A
100
AcDbEntity
  8
3301 RAHMEN LÄNGS
390
0
100
AcDbLine
 10
82.75
 20
130.0
 30
0.0
 11
82.75
 21
115.0
 31
0.0
  0
LINE
  5
15B
100
AcDbEntity
  8
3301 RAHMEN LÄNGS
390
0
100
AcDbLine
 10
82.75
 20
130.0
 30
0.0
 11
213.75
 21
130.0
 31
0.0
  0
LINE
  5
15C
100
AcDbEntity
  8
3301 RAHMEN LÄNGS
390
0
  6
DASHED
100
AcDbLine
 10
82.75
 20
132.0
 30
0.0
 11
213.75
 21
132.0
 31
0.0
  0
LINE
  5
15D
100
AcDbEntity
  8
3301 RAHMEN LÄNGS
390
0
100
AcDbLine
 10
82.75
 20
145.0
 30
0.0
 11
213.75
 21
145.0
 31
0.0
  0
LINE
  5
15E
100
AcDbEntity
  8
3301 RAHMEN LÄNGS
390
0
100
AcDbLine
 10
82.75
 20
115.0
 30
0.0
 11
213.75
 21
115.0
 31
0.0
  0
LINE
  5
15F
100
AcDbEntity
  8
3301 RAHMEN LÄNGS
390
0
  6
DASHED
100
AcDbLine
 10
82.75
 20
128.0
 30
0.0
 11
213.75
 21
128.0
 31
0.0
  0
CIRCLE
  5
160
100
AcDbEntity
  8
3301_413L # MITTE
390
0
100
AcDbCircle
 10
115.875
 20
127.0
 30
0.0
 40
1.0
  0
CIRCLE
  5
161
100
AcDbEntity
  8
3301_413L # MITTE
390
0
100
AcDbCircle
 10
95.0
 20
119.5
 30
0.0
 40
1.25
  0
CIRCLE
  5
162
100
AcDbEntity
  8
3301_413L # MITTE
390
0
100
AcDbCircle
 10
148.875
 20
127.0
 30
0.0
 40
1.0
  0
CIRCLE
  5
163
100
AcDbEntity
  8
3301_413L # MITTE
390
0
100
AcDbCircle
 10
128.0
 20
119.5
 30
0.0
 40
1.25
  0
CIRCLE
  5
164
100
AcDbEntity
  8
3301_413L # MITTE
390
0
100
AcDbCircle
 10
181.875
 20
127.0
 30
0.0
 40
1.0
  0
CIRCLE
  5
165
100
AcDbEntity
  8
3301_413L # MITTE
390
0
100
AcDbCircle
 10
161.0
 20
119.5
 30
0.0
 40
1.25
  0
CIRCLE
  5
166
100
AcDbEntity
  8
3301_413L # MITTE
390
0
100
AcDbCircle
 10
194.0
 20
119.5
 30
0.0
 40
1.25
  0
CIRCLE
  5
167
100
AcDbEntity
  8
3301_413R # MITTE
390
0
100
AcDbCircle
 10
85.75
 20
141.0
 30
0.0
 40
1.25
  0
CIRCLE
  5
168
100
AcDbEntity
  8
3301 RAHMEN LÄNGS
390
0
100
AcDbCircle
 10
78.75
 20
136.0
 30
0.0
 40
1.25
  0
CIRCLE
  5
169
100
AcDbEntity
  8
3301_413L # MITTE
390
0
  6
PHANTOM
100
AcDbCircle
 10
211.75
 20
115.0
 30
0.0
 40
1.0
  0
LINE
  5
16A
100
AcDbEntity
  8
3301_413L # MITTE
390
0
  6
DASHED
100
AcDbLine
 10
194.0
 20
119.5
 30
0.0
 11
211.75
 21
115.0
 31
0.0
  0
LINE
  5
16B
100
AcDbEntity
  8
3301 RAHMEN LÄNGS
390
0
100
AcDbLine
 10
213.75
 20
130.0
 30
0.0
 11
213.75
 21
115.0
 31
0.0
  0
LINE
  5
16C
100
AcDbEntity
  8
3301 RAHMEN LÄNGS
390
0
100
AcDbLine
 10
213.75
 20
145.0
 30
0.0
 11
213.75
 21
130.0
 31
0.0
  0
CIRCLE
  5
16D
100
AcDbEntity
  8
3301_413L # MITTE
390
0
100
AcDbCircle
 10
194.0
 20
119.5
 30
0.0
 40
1.25
  0
CIRCLE
  5
16E
100
AcDbEntity
  8
3301_413R # MITTE
390
0
100
AcDbCircle
 10
210.75
 20
136.0
 30
0.0
 40
1.25
  0
CIRCLE
  5
16F
100
AcDbEntity
  8
3301 RAHMEN LÄNGS
390
0
100
AcDbCircle
 10
217.75
 20
141.0
 30
0.0
 40
1.25
  0
CIRCLE
  5
170
100
AcDbEntity
  8
3301_71L # RAHMENWINKEL VO
390
0
  6
PHANTOM
100
AcDbCircle
 10
22.25
 20
74.0
 30
0.0
 40
0.5
  0
CIRCLE
  5
171
100
AcDbEntity
  8
3301_71L # RAHMENWINKEL VO
390
0
  6
PHANTOM
100
AcDbCircle
 10
270.25
 20
74.0
 30
0.0
 40
1.0
  0
ARC
  5
172
100
AcDbEntity
  8
3301_71L~A
390
0
  6
DASHDOT
100
AcDbCircle
 10
27.75
 20
73.4440217391
 30
0.0
 40
5.5280296514
100
AcDbArc
 50
5.7722478856
 51
174.2277521144
  0
ARC
  5
173
100
AcDbEntity
  8
3301_71L # RAHMENWINKEL VO
390
0
  6
DASHDOT
100
AcDbCircle
 10
264.75
 20
72.6015625
 30
0.0
 40
5.6750002151
100
AcDbArc
 50
14.2658079671
 51
165.7341920329
  0
ARC
  5
174
100
AcDbEntity
  8
3301___ VERSCHLUSSREGISTER
390
0
  6
DASHDOT
100
AcDbCircle
 10
146.25
 20
1032.8831740443
 30
0.0
 40
966.8675925199
100
AcDbArc
 50
262.6315677403
 51
277.3684322597
  0
CIRCLE
  5
175
100
AcDbEntity
  8
3301_41L # RAHMENWINKEL VO
390
0
  6
PHANTOM
100
AcDbCircle
 10
166.25
 20
21.0
 30
0.0
 40
1.0
  0
ARC
  5
176
100
AcDbEntity
  8
3301_41L # RAHMENWINKEL VO
390
0
  6
DASHDOT
100
AcDbCircle
 10
160.75
 20
19.6015625
 30
0.0
 40
5.6750002151
100
AcDbArc
 50
14.2658079671
 51
165.7341920329
  0
ARC
  5
177
100
AcDbEntity
  8
3301___ VERSCHLUSSREGISTER
390
0
  6
DASHDOT
100
AcDbCircle
 10
91.75
 20
597.1031973089
 30
0.0
 40
580.9002874414
100
AcDbArc
 50
262.6315677403
 51
277.3684322597
  0
CIRCLE
  5
178
100
AcDbEntity
  8
3301_41L # RAHMENWINKEL VO
390
0
  6
PHANTOM
100
AcDbCircle
 10
17.25
 20
21.0
 30
0.0
 40
0.5
  0
ARC
  5
179
100
AcDbEntity
  8
3301_41L # RAHMENWINKEL VO
390
0
  6
DASHDOT
100
AcDbCircle
 10
22.75
 20
20.4440217391
 30
0.0
 40
5.5280296514
100
AcDbArc
 50
5.7722478856
 51
174.2277521144
  0
ARC
  5
17A
100
AcDbEntity
  8
3301_41L # RAHMENWINKEL VO
390
0
  6
DASHDOT
100
AcDbCircle
 10
91.75
 20
-472.5234375
 30
0.0
 40
497.5918340988
100
AcDbArc
 50
82.6682271845
 51
97.3317728155
  0
TEXT
  5
17B
100
AcDbEntity
  8
3301_71L~A
390
0
  6
DASHDOT
100
AcDbText
 10
20.4885588729
 20
76.4412079845
 30
0.0
 40
1.275
  1
>3301.71=AL
 41
1.356602443
  7
Arial
 72
         1
 11
28.75
 21
77.0787079845
 31
0.0
100
AcDbText
 73
         2
  0
TEXT
  5
17C
100
AcDbEntity
  8
3301_71L # RAHMENWINKEL VO
390
0
  6
DASHDOT
100
AcDbText
 10
135.8371103489
 20
81.1734355063
 30
0.0
 40
1.275
  1
>3301.713L
 41
1.3566072564
  7
Arial
 72
         1
 11
143.25
 21
81.8109355063
 31
0.0
100
AcDbText
 73
         2
  0
MTEXT
  5
17D
100
AcDbEntity
  8
3301___ VERSCHLUSSREGISTER
390
0
  6
DASHDOT
100
AcDbMText
 10
187.0
 20
57.5323890625
 30
0.0
 40
1.9125
 41
0.0
 71
         1
 72
         1
  1
\W1.356598;3301.41\P\P\P3301.71
  7
Arial
 73
         1
 44
1.0352941176
  0
TEXT
  5
17E
100
AcDbEntity
  8
BESCHRIFTUNG
390
0
100
AcDbText
 10
78.0550385277
 20
149.5190329394
 30
0.0
 40
2.5
  1
3301.413
 41
1.1351403314
  7
Arial
 72
         1
 11
87.6141150029
 21
150.7690329394
 31
0.0
100
AcDbText
 73
         2
  0
MTEXT
  5
17F
100
AcDbEntity
  8
3301___ VERSCHLUSSREGISTER
390
0
  6
DASHDOT
100
AcDbMText
 10
206.0
 20
57.5323890625
 30
0.0
 40
1.9125
 41
0.0
 71
         1
 72
         1
  1
\W1.356636;0\P\P\P0
  7
Arial
 73
         1
 44
1.0352941176
  0
TEXT
  5
180
100
AcDbEntity
  8
BESCHRIFTUNG
390
0
100
AcDbText
 10
15.6218542719
 20
149.5190329394
 30
0.0
 40
2.5
  1
3301.711
 41
1.1351402535
  7
Arial
 72
         1
 11
24.8568936225
 21
150.7690329394
 31
0.0
100
AcDbText
 73
         2
  0
TEXT
  5
181
100
AcDbEntity
  8
3301_41L # RAHMENWINKEL VO
390
0
  6
DASHDOT
100
AcDbText
 10
15.4885588729
 20
23.4412079845
 30
0.0
 40
1.275
  1
>3301.71=AL
 41
1.356602443
  7
Arial
 72
         1
 11
23.75
 21
24.0787079845
 31
0.0
100
AcDbText
 73
         2
  0
TEXT
  5
182
100
AcDbEntity
  8
3301_41L # RAHMENWINKEL VO
390
0
  6
DASHDOT
100
AcDbText
 10
83.3371100491
 20
24.3448627762
 30
0.0
 40
1.275
  1
>3301.413L
 41
1.3566073113
  7
Arial
 72
         1
 11
90.75
 21
24.9823627762
 31
0.0
100
AcDbText
 73
         2
  0
MTEXT
  5
183
100
AcDbEntity
  8
1088___ VORLAGEN
390
0
100
AcDbMText
 10
86.4723272862
 20
11.0167505186
 30
0.0
 40
2.0
 41
0.0
 71
         7
 72
         1
  1
\W0.972809;>3301.41L\PM15x15x2\PT2 O2\P:A?12 :C?45
  7
Arial
 11
1.0
 21
0.0
 31
0.0
 73
         1
 44
0.66
  0
TEXT
  5
184
100
AcDbEntity
  8
3301_41L # RAHMENWINKEL VO
390
0
  6
DASHDOT
100
AcDbText
 10
153.4885531951
 20
24.1366966599
 30
0.0
 40
1.275
  1
>3301.71=CL
 41
1.3566033753
  7
Arial
 72
         1
 11
161.75
 21
24.7741966599
 31
0.0
100
AcDbText
 73
         2
  0
TEXT
  5
185
100
AcDbEntity
  8
BESCHRIFTUNG
390
0
100
AcDbText
 10
34.3050400042
 20
149.5190329394
 30
0.0
 40
2.5
  1
3301.712
 41
1.1351401561
  7
Arial
 72
         1
 11
43.8641150029
 21
150.7690329394
 31
0.0
100
AcDbText
 73
         2
  0
TEXT
  5
186
100
AcDbEntity
  8
BESCHRIFTUNG
390
0
100
AcDbText
 10
223.3050391839
 20
149.5190329394
 30
0.0
 40
2.5
  1
3301.714
 41
1.1351402535
  7
Arial
 72
         1
 11
232.8641150029
 21
150.7690329394
 31
0.0
100
AcDbText
 73
         2
  0
TEXT
  5
187
100
AcDbEntity
  8
BESCHRIFTUNG
390
0
100
AcDbText
 10
251.3050398401
 20
149.5190329394
 30
0.0
 40
2.5
  1
3301.715
 41
1.1351401756
  7
Arial
 72
         1
 11
260.8641150029
 21
150.7690329394
 31
0.0
100
AcDbText
 73
         2
  0
MTEXT
  5
188
100
AcDbEntity
  8
3301_71L # RAHMENWINKEL VO
390
0
100
AcDbMText
 10
16.022743669
 20
68.8697640782
 30
0.0
 40
2.0
 41
0.0
 71
         7
 72
         1
  1
\W0.972813;M15x15x2 \PT2 O2 F150\PB-0.3    D1.2\PI1.2 P4 U20\P:A?12 :C?45
  7
Arial
 73
         1
 44
0.66
  0
TEXT
  5
189
100
AcDbEntity
  8
3301_41L # RAHMENWINKEL VO
390
0
  6
DASHDOT
100
AcDbText
 10
10.7427394861
 20
20.1198890625
 30
0.0
 40
1.9125
  1
@3301.71L
 41
1.3565882081
  7
Arial
 72
         1
 11
20.75
 21
21.0761390625
 31
0.0
100
AcDbText
 73
         2
  0
TEXT
  5
18A
100
AcDbEntity
  8
BESCHRIFTUNG
390
0
100
AcDbText
 10
12.2978176394
 20
190.5190329394
 30
0.0
 40
2.5
  1
3301.713
 41
1.135140273
  7
Arial
 72
         1
 11
21.8568936225
 21
191.7690329394
 31
0.0
100
AcDbText
 73
         2
  0
MTEXT
  5
18B
100
AcDbEntity
  8
1088___ VORLAGEN
390
0
100
AcDbMText
 10
90.7223272862
 20
62.2196603861
 30
0.0
 40
2.0
 41
0.0
 71
         7
 72
         1
  1
\W0.972809;>3301.71L\PM15x15x2\PT2 O2\P:A?12 :C?45
  7
Arial
 11
1.0
 21
0.0
 31
0.0
 73
         1
 44
0.66
  0
TEXT
  5
18C
100
AcDbEntity
  8
BESCHRIFTUNG
390
0
100
AcDbText
 10
13.6772122599
 20
107.5190329394
 30
0.0
 40
2.5
  1
3301.71
 41
1.1351394544
  7
Arial
 72
         1
 11
21.8568936225
 21
108.7690329394
 31
0.0
100
AcDbText
 73
         2
  0
TEXT
  5
18D
100
AcDbEntity
  8
BESCHRIFTUNG
390
0
100
AcDbText
 10
15.6731103117
 20
55.5829441297
 30
0.0
 40
2.5
  1
3301.41
 41
1.1351395218
  7
Arial
 72
         1
 11
23.8527921602
 21
56.8329441297
 31
0.0
100
AcDbText
 73
         2
  0
TEXT
  5
18E
100
AcDbEntity
  8
3301_71L # RAHMENWINKEL VO
390
0
  6
DASHDOT
100
AcDbText
 10
257.4885531951
 20
77.1366966599
 30
0.0
 40
1.275
  1
>3301.71=CL
 41
1.3566033753
  7
Arial
 72
         1
 11
265.75
 21
77.7741966599
 31
0.0
100
AcDbText
 73
         2
  0
MTEXT
  5
18F
100
AcDbEntity
  8
3301___ VERSCHLUSSREGISTER
390
0
  6
DASHDOT
100
AcDbMText
 10
213.0
 20
57.5323890625
 30
0.0
 40
1.9125
 41
0.0
 71
         1
 72
         1
  1
\W1.356583;Rahmenwinkel vorne L=4\P   :A1 linkes Ende lang, :A2 linkes Ende kurz\P   :C4 rechtes Ende kurz, :C5 rechtes Ende lang\PRahmenwinkel vorne L=7\P   :A1 linkes Ende lang, :A2 linkes Ende kurz\P   :C4 rechtes Ende kurz, :C5 rechtes Ende lang\P\P\P
  7
Arial
 73
         1
 44
1.0352941176
  0
ARC
  5
190
100
AcDbEntity
  8
3301_71L # RAHMENWINKEL VO
390
0
  6
DASHDOT
100
AcDbCircle
 10
146.25
 20
-804.2385580709
 30
0.0
 40
885.4783819396
100
AcDbArc
 50
82.6682271845
 51
97.3317728155
  0
LINE
  5
191
100
AcDbEntity
  8
3301_713L # MITTE
390
0
  6
DASHED
100
AcDbLine
 10
99.375
 20
169.0
 30
0.0
 11
111.5
 21
161.5
 31
0.0
  0
LINE
  5
192
100
AcDbEntity
  8
3301_413L # MITTE
390
0
  6
DASHED
100
AcDbLine
 10
128.0
 20
119.5
 30
0.0
 11
148.875
 21
127.0
 31
0.0
  0
TEXT
  5
193
100
AcDbEntity
  8
3301_41R # RAHMENWINKEL VO
390
0
  6
DASHDOT
100
AcDbText
 10
153.4885764031
 20
39.1366966599
 30
0.0
 40
1.275
  1
>3301.71=CR
 41
1.3565995643
  7
Arial
 72
         1
 11
161.75
 21
39.7741966599
 31
0.0
100
AcDbText
 73
         2
  0
TEXT
  5
194
100
AcDbEntity
  8
3301_41R # RAHMENWINKEL VO
390
0
  6
DASHDOT
100
AcDbText
 10
10.7427394861
 20
35.1198890625
 30
0.0
 40
1.9125
  1
@3301.71L
 41
1.3565882081
  7
Arial
 72
         1
 11
20.75
 21
36.0761390625
 31
0.0
100
AcDbText
 73
         2
  0
CIRCLE
  5
195
100
AcDbEntity
  8
3301_711R # LI_ENDE LANG
390
0
  6
PHANTOM
100
AcDbCircle
 10
24.25
 20
130.0
 30
0.0
 40
0.5
  0
CIRCLE
  5
196
100
AcDbEntity
  8
3301_711R # LI_ENDE LANG
390
0
  6
PHANTOM
100
AcDbCircle
 10
35.25
 20
130.0
 30
0.0
 40
1.0
  0
CIRCLE
  5
197
100
AcDbEntity
  8
3301_712R # LI_ENDE KURZ
390
0
  6
PHANTOM
100
AcDbCircle
 10
44.25
 20
130.0
 30
0.0
 40
0.5
  0
CIRCLE
  5
198
100
AcDbEntity
  8
3301_712R # LI_ENDE KURZ
390
0
  6
PHANTOM
100
AcDbCircle
 10
55.25
 20
130.0
 30
0.0
 40
1.0
  0
CIRCLE
  5
199
100
AcDbEntity
  8
3301_715R # RE_ENDE LANG
390
0
  6
PHANTOM
100
AcDbCircle
 10
272.25
 20
130.0
 30
0.0
 40
1.0
  0
CIRCLE
  5
19A
100
AcDbEntity
  8
3301_715R # RE_ENDE LANG
390
0
  6
PHANTOM
100
AcDbCircle
 10
261.25
 20
130.0
 30
0.0
 40
0.5
  0
CIRCLE
  5
19B
100
AcDbEntity
  8
3301_714R # RE_ENDE KURZ
390
0
  6
PHANTOM
100
AcDbCircle
 10
252.25
 20
130.0
 30
0.0
 40
1.0
  0
CIRCLE
  5
19C
100
AcDbEntity
  8
3301_714R # RE_ENDE KURZ
390
0
  6
PHANTOM
100
AcDbCircle
 10
241.25
 20
130.0
 30
0.0
 40
0.5
  0
LINE
  5
19D
100
AcDbEntity
  8
3301_712R # LI_ENDE KURZ
390
0
  6
DASHED
100
AcDbLine
 10
52.25
 20
130.0
 30
0.0
 11
55.25
 21
130.0
 31
0.0
  0
LINE
  5
19E
100
AcDbEntity
  8
3301_713R # MITTE
390
0
  6
DASHED
100
AcDbLine
 10
35.25
 20
172.0
 30
0.0
 11
36.25
 21
183.0
 31
0.0
  0
TEXT
  5
19F
100
AcDbEntity
  8
3301_71R # RAHMENWINKEL VO
390
0
  6
DASHDOT
100
AcDbText
 10
257.4885764031
 20
92.1366966599
 30
0.0
 40
1.275
  1
>3301.71=CR
 41
1.3565995643
  7
Arial
 72
         1
 11
265.75
 21
92.7741966599
 31
0.0
100
AcDbText
 73
         2
  0
CIRCLE
  5
1A0
100
AcDbEntity
  8
3301_713R # MITTE
390
0
  6
PHANTOM
100
AcDbCircle
 10
261.25
 20
172.0
 30
0.0
 40
1.0
  0
CIRCLE
  5
1A1
100
AcDbEntity
  8
3301_713R # MITTE
390
0
  6
PHANTOM
100
AcDbCircle
 10
35.25
 20
172.0
 30
0.0
 40
0.5
  0
LINE
  5
1A2
100
AcDbEntity
  8
3301_413R # MITTE
390
0
  6
DASHED
100
AcDbLine
 10
210.75
 20
136.0
 30
0.0
 11
211.75
 21
130.0
 31
0.0
  0
LINE
  5
1A3
100
AcDbEntity
  8
3301_714R # RE_ENDE KURZ
390
0
  6
DASHED
100
AcDbLine
 10
252.25
 20
130.0
 30
0.0
 11
244.25
 21
145.0
 31
0.0
  0
LINE
  5
1A4
100
AcDbEntity
  8
3301_714R # RE_ENDE KURZ
390
0
  6
DASHED
100
AcDbLine
 10
244.25
 20
130.0
 30
0.0
 11
241.25
 21
130.0
 31
0.0
  0
LINE
  5
1A5
100
AcDbEntity
  8
3301_712R # LI_ENDE KURZ
390
0
  6
DASHED
100
AcDbLine
 10
44.25
 20
130.0
 30
0.0
 11
52.25
 21
145.0
 31
0.0
  0
LINE
  5
1A6
100
AcDbEntity
  8
3301_711R # LI_ENDE LANG
390
0
  6
DASHED
100
AcDbLine
 10
24.25
 20
145.0
 30
0.0
 11
29.25
 21
136.0
 31
0.0
  0
LINE
  5
1A7
100
AcDbEntity
  8
3301_713R # MITTE
390
0
  6
DASHED
100
AcDbLine
 10
260.25
 20
178.0
 30
0.0
 11
261.25
 21
172.0
 31
0.0
  0
LINE
  5
1A8
100
AcDbEntity
  8
3301_714R # RE_ENDE KURZ
390
0
  6
DIVIDE
100
AcDbLine
 10
244.25
 20
145.0
 30
0.0
 11
244.25
 21
130.0
 31
0.0
  0
LINE
  5
1A9
100
AcDbEntity
  8
3301_715R # RE_ENDE LANG
390
0
  6
DASHED
100
AcDbLine
 10
272.25
 20
145.0
 30
0.0
 11
267.25
 21
141.0
 31
0.0
  0
LINE
  5
1AA
100
AcDbEntity
  8
3301_715R # RE_ENDE LANG
390
0
  6
DIVIDE
100
AcDbLine
 10
272.25
 20
145.0
 30
0.0
 11
272.25
 21
130.0
 31
0.0
  0
TEXT
  5
1AB
100
AcDbEntity
  8
3301_41R # RAHMENWINKEL VO
390
0
  6
DASHDOT
100
AcDbText
 10
15.4885821357
 20
38.4412079845
 30
0.0
 40
1.275
  1
>3301.71=AR
 41
1.356598623
  7
Arial
 72
         1
 11
23.75
 21
39.0787079845
 31
0.0
100
AcDbText
 73
         2
  0
TEXT
  5
1AC
100
AcDbEntity
  8
3301_71R~A
390
0
  6
DASHDOT
100
AcDbText
 10
20.4885821357
 20
91.4412079845
 30
0.0
 40
1.275
  1
>3301.71=AR
 41
1.356598623
  7
Arial
 72
         1
 11
28.75
 21
92.0787079845
 31
0.0
100
AcDbText
 73
         2
  0
TEXT
  5
1AD
100
AcDbEntity
  8
3301_41R # RAHMENWINKEL VO
390
0
  6
DASHDOT
100
AcDbText
 10
83.3371343768
 20
39.3448627762
 30
0.0
 40
1.275
  1
>3301.413R
 41
1.3566028591
  7
Arial
 72
         1
 11
90.75
 21
39.9823627762
 31
0.0
100
AcDbText
 73
         2
  0
TEXT
  5
1AE
100
AcDbEntity
  8
3301_71R # RAHMENWINKEL VO
390
0
  6
DASHDOT
100
AcDbText
 10
135.8371346674
 20
96.1734355063
 30
0.0
 40
1.275
  1
>3301.713R
 41
1.356602806
  7
Arial
 72
         1
 11
143.25
 21
96.8109355063
 31
0.0
100
AcDbText
 73
         2
  0
LINE
  5
1AF
100
AcDbEntity
  8
3301_712R # LI_ENDE KURZ
390
0
  6
DIVIDE
100
AcDbLine
 10
52.25
 20
145.0
 30
0.0
 11
52.25
 21
130.0
 31
0.0
  0
LINE
  5
1B0
100
AcDbEntity
  8
3301_711R # LI_ENDE LANG
390
0
  6
DIVIDE
100
AcDbLine
 10
24.25
 20
145.0
 30
0.0
 11
24.25
 21
130.0
 31
0.0
  0
LINE
  5
1B1
100
AcDbEntity
  8
3301_413R # MITTE
390
0
  6
DASHED
100
AcDbLine
 10
84.75
 20
130.0
 30
0.0
 11
85.75
 21
141.0
 31
0.0
  0
CIRCLE
  5
1B2
100
AcDbEntity
  8
3301_71R # RAHMENWINKEL VO
390
0
  6
PHANTOM
100
AcDbCircle
 10
270.25
 20
89.0
 30
0.0
 40
1.0
  0
ARC
  5
1B3
100
AcDbEntity
  8
3301_71R~A
390
0
  6
DASHDOT
100
AcDbCircle
 10
27.75
 20
88.4440217391
 30
0.0
 40
5.5280296514
100
AcDbArc
 50
5.7722478856
 51
174.2277521144
  0
ARC
  5
1B4
100
AcDbEntity
  8
3301_71R # RAHMENWINKEL VO
390
0
  6
DASHDOT
100
AcDbCircle
 10
264.75
 20
87.6015625
 30
0.0
 40
5.6750002151
100
AcDbArc
 50
14.2658079671
 51
165.7341920329
  0
CIRCLE
  5
1B5
100
AcDbEntity
  8
3301_41R # RAHMENWINKEL VO
390
0
  6
PHANTOM
100
AcDbCircle
 10
166.25
 20
36.0
 30
0.0
 40
1.0
  0
ARC
  5
1B6
100
AcDbEntity
  8
3301_41R # RAHMENWINKEL VO
390
0
  6
DASHDOT
100
AcDbCircle
 10
160.75
 20
34.6015625
 30
0.0
 40
5.6750002151
100
AcDbArc
 50
14.2658079671
 51
165.7341920329
  0
ARC
  5
1B7
100
AcDbEntity
  8
3301_71R # RAHMENWINKEL VO
390
0
  6
DASHDOT
100
AcDbCircle
 10
146.25
 20
-789.2385580709
 30
0.0
 40
885.4783819396
100
AcDbArc
 50
82.6682271845
 51
97.3317728155
  0
ARC
  5
1B8
100
AcDbEntity
  8
3301_41R # RAHMENWINKEL VO
390
0
  6
DASHDOT
100
AcDbCircle
 10
91.75
 20
-457.5234375
 30
0.0
 40
497.5918340988
100
AcDbArc
 50
82.6682271845
 51
97.3317728155
  0
ARC
  5
1B9
100
AcDbEntity
  8
3301_41R # RAHMENWINKEL VO
390
0
  6
DASHDOT
100
AcDbCircle
 10
22.75
 20
35.4440217391
 30
0.0
 40
5.5280296514
100
AcDbArc
 50
5.7722478856
 51
174.2277521144
  0
CIRCLE
  5
1BA
100
AcDbEntity
  8
3301_41R # RAHMENWINKEL VO
390
0
  6
PHANTOM
100
AcDbCircle
 10
17.25
 20
36.0
 30
0.0
 40
0.5
  0
CIRCLE
  5
1BB
100
AcDbEntity
  8
3301_413R # MITTE
390
0
  6
PHANTOM
100
AcDbCircle
 10
84.75
 20
130.0
 30
0.0
 40
0.5
  0
CIRCLE
  5
1BC
100
AcDbEntity
  8
3301_413R # MITTE
390
0
  6
PHANTOM
100
AcDbCircle
 10
211.75
 20
130.0
 30
0.0
 40
1.0
  0
TEXT
  5
1BD
100
AcDbEntity
  8
3301_413L # MITTE
390
0
  6
DASHDOT
100
AcDbText
 10
71.469635197
 20
113.6198890625
 30
0.0
 40
1.9125
  1
@3301.713L
 41
1.3565928913
  7
Arial
 72
         1
 11
82.75
 21
114.5761390625
 31
0.0
100
AcDbText
 73
         2
  0
TEXT
  5
1BE
100
AcDbEntity
  8
3301_712L # LI_ENDE KURZ
390
0
  6
DASHDOT
100
AcDbText
 10
29.969635197
 20
113.6198890625
 30
0.0
 40
1.9125
  1
@3301.713L
 41
1.3565928913
  7
Arial
 72
         1
 11
41.25
 21
114.5761390625
 31
0.0
100
AcDbText
 73
         2
  0
TEXT
  5
1BF
100
AcDbEntity
  8
3301_715L # RE_ENDE LANG
390
0
  6
DASHDOT
100
AcDbText
 10
246.969635197
 20
113.6198890625
 30
0.0
 40
1.9125
  1
@3301.713L
 41
1.3565928913
  7
Arial
 72
         1
 11
258.25
 21
114.5761390625
 31
0.0
100
AcDbText
 73
         2
  0
TEXT
  5
1C0
100
AcDbEntity
  8
3301_714L # RE_ENDE KURZ
390
0
  6
DASHDOT
100
AcDbText
 10
226.969635197
 20
113.6198890625
 30
0.0
 40
1.9125
  1
@3301.713L
 41
1.3565928913
  7
Arial
 72
         1
 11
238.25
 21
114.5761390625
 31
0.0
100
AcDbText
 73
         2
  0
TEXT
  5
1C1
100
AcDbEntity
  8
3301_711L # LI_ENDE LANG
390
0
  6
DASHDOT
100
AcDbText
 10
8.969635197
 20
114.147837672
 30
0.0
 40
1.9125
  1
@3301.713L
 41
1.3565928913
  7
Arial
 72
         1
 11
20.25
 21
115.104087672
 31
0.0
100
AcDbText
 73
         2
  0
MTEXT
  5
1C2
100
AcDbEntity
  8
3301_713L # MITTE
390
0
100
AcDbMText
 10
28.9500105382
 20
153.3644456845
 30
0.0
 40
2.0
 41
0.0
 71
         7
 72
         1
  1
\W0.972813;M15x15x2 \PT2 O2 F150\PB-0.3    D1.2\PI1.2 P4 U20
  7
Arial
 73
         1
 44
0.66
  0
TEXT
  5
1C3
100
AcDbEntity
  8
3301_713R # MITTE
390
0
  6
DASHDOT
100
AcDbText
 10
23.469635197
 20
170.6198890625
 30
0.0
 40
1.9125
  1
@3301.713L
 41
1.3565928913
  7
Arial
 72
         1
 11
34.75
 21
171.5761390625
 31
0.0
100
AcDbText
 73
         2
  0
LINE
  5
1C4
100
AcDbEntity
  8
3301_713R # MITTE
390
0
  6
DASHED
100
AcDbLine
 10
36.25
 20
183.0
 30
0.0
 11
260.25
 21
178.0
 31
0.0
  0
TEXT
  5
1C5
100
AcDbEntity
  8
3301_714R # RE_ENDE KURZ
390
0
  6
DASHDOT
100
AcDbText
 10
226.969635197
 20
128.6198890625
 30
0.0
 40
1.9125
  1
@3301.713L
 41
1.3565928913
  7
Arial
 72
         1
 11
238.25
 21
129.5761390625
 31
0.0
100
AcDbText
 73
         2
  0
TEXT
  5
1C6
100
AcDbEntity
  8
3301_711R # LI_ENDE LANG
390
0
  6
DASHDOT
100
AcDbText
 10
8.969635197
 20
129.147837672
 30
0.0
 40
1.9125
  1
@3301.713L
 41
1.3565928913
  7
Arial
 72
         1
 11
20.25
 21
130.104087672
 31
0.0
100
AcDbText
 73
         2
  0
TEXT
  5
1C7
100
AcDbEntity
  8
3301_712R # LI_ENDE KURZ
390
0
  6
DASHDOT
100
AcDbText
 10
29.969635197
 20
128.6198890625
 30
0.0
 40
1.9125
  1
@3301.713L
 41
1.3565928913
  7
Arial
 72
         1
 11
41.25
 21
129.5761390625
 31
0.0
100
AcDbText
 73
         2
  0
TEXT
  5
1C8
100
AcDbEntity
  8
3301_413R # MITTE
390
0
  6
DASHDOT
100
AcDbText
 10
71.469635197
 20
128.6198890625
 30
0.0
 40
1.9125
  1
@3301.713L
 41
1.3565928913
  7
Arial
 72
         1
 11
82.75
 21
129.5761390625
 31
0.0
100
AcDbText
 73
         2
  0
TEXT
  5
1C9
100
AcDbEntity
  8
3301_715R # RE_ENDE LANG
390
0
  6
DASHDOT
100
AcDbText
 10
246.969635197
 20
128.6198890625
 30
0.0
 40
1.9125
  1
@3301.713L
 41
1.3565928913
  7
Arial
 72
         1
 11
258.25
 21
129.5761390625
 31
0.0
100
AcDbText
 73
         2
  0
LINE
  5
1CA
100
AcDbEntity
  8
3301_413R # MITTE
390
0
  6
DASHED
100
AcDbLine
 10
85.75
 20
141.0
 30
0.0
 11
210.75
 21
136.0
 31
0.0
  0
CIRCLE
  5
1CB
100
AcDbEntity
  8
3301_71R # RAHMENWINKEL VO
390
0
  6
PHANTOM
100
AcDbCircle
 10
22.25
 20
89.0
 30
0.0
 40
0.5
  0
TEXT
  5
1CC
100
AcDbEntity
  8
3301_71R # RAHMENWINKEL VO
390
0
  6
DASHDOT
100
AcDbText
 10
11.7427394861
 20
88.1198890625
 30
0.0
 40
1.9125
  1
@3301.71L
 41
1.3565882081
  7
Arial
 72
         1
 11
21.75
 21
89.0761390625
 31
0.0
100
AcDbText
 73
         2
  0
LINE
  5
1CD
100
AcDbEntity
  8
MITTELLINIEN
390
0
100
AcDbLine
 10
68.5
 20
145.0
 30
0.0
 11
229.0
 21
145.0
 31
0.0
  0
LINE
  5
1CE
100
AcDbEntity
  8
MITTELLINIEN
390
0
100
AcDbLine
 10
68.5
 20
115.0
 30
0.0
 11
229.0
 21
115.0
 31
0.0
  0
LINE
  5
1CF
100
AcDbEntity
  8
MITTELLINIEN
390
0
100
AcDbLine
 10
17.25
 20
89.0
 30
0.0
 11
275.25
 21
89.0
 31
0.0
  0
LINE
  5
1D0
100
AcDbEntity
  8
MITTELLINIEN
390
0
100
AcDbLine
 10
17.25
 20
74.0
 30
0.0
 11
275.25
 21
74.0
 31
0.0
  0
LINE
  5
1D1
100
AcDbEntity
  8
MITTELLINIEN
390
0
100
AcDbLine
 10
12.25
 20
36.0
 30
0.0
 11
171.25
 21
36.0
 31
0.0
  0
LINE
  5
1D2
100
AcDbEntity
  8
MITTELLINIEN
390
0
100
AcDbLine
 10
12.25
 20
21.0
 30
0.0
 11
171.25
 21
21.0
 31
0.0
  0
LINE
  5
1D3
100
AcDbEntity
  8
MITTELLINIEN
390
0
100
AcDbLine
 10
12.25
 20
51.0
 30
0.0
 11
171.25
 21
51.0
 31
0.0
  0
LINE
  5
1D4
100
AcDbEntity
  8
MITTELLINIEN
390
0
100
AcDbLine
 10
17.25
 20
104.0
 30
0.0
 11
275.25
 21
104.0
 31
0.0
  0
LINE
  5
1D5
100
AcDbEntity
  8
3301_711R # LI_ENDE LANG
390
0
  6
DASHED
100
AcDbLine
 10
29.25
 20
136.0
 30
0.0
 11
35.25
 21
130.0
 31
0.0
  0
LINE
  5
1D6
100
AcDbEntity
  8
3301_715R # RE_ENDE LANG
390
0
  6
DASHED
100
AcDbLine
 10
267.25
 20
141.0
 30
0.0
 11
261.25
 21
130.0
 31
0.0
  0
CIRCLE
  5
1D7
100
AcDbEntity
  8
3301 RAHMEN LÄNGS
390
0
100
AcDbCircle
 10
36.25
 20
141.0
 30
0.0
 40
1.25
  0
LINE
  5
1D8
100
AcDbEntity
  8
STANDARD
390
0
100
AcDbLine
 10
292.0
 20
200.0
 30
0.0
 11
5.0
 21
200.0
 31
0.0
  0
LINE
  5
1D9
100
AcDbEntity
  8
STANDARD
390
0
100
AcDbLine
 10
10.0
 20
195.0
 30
0.0
 11
10.0
 21
5.0
 31
0.0
  0
LINE
  5
1DA
100
AcDbEntity
  8
STANDARD
390
0
100
AcDbLine
 10
5.0
 20
200.0
 30
0.0
 11
5.0
 21
195.0
 31
0.0
  0
LINE
  5
1DB
100
AcDbEntity
  8
STANDARD
390
0
100
AcDbLine
 10
292.0
 20
200.0
 30
0.0
 11
292.0
 21
195.0
 31
0.0
  0
LINE
  5
1DC
100
AcDbEntity
  8
STANDARD
390
0
100
AcDbLine
 10
52.8333333333
 20
200.0
 30
0.0
 11
52.8333333333
 21
195.0
 31
0.0
  0
LINE
  5
1DD
100
AcDbEntity
  8
STANDARD
390
0
100
AcDbLine
 10
100.6666666667
 20
200.0
 30
0.0
 11
100.6666666667
 21
195.0
 31
0.0
  0
LINE
  5
1DE
100
AcDbEntity
  8
STANDARD
390
0
100
AcDbLine
 10
148.5
 20
200.0
 30
0.0
 11
148.5
 21
195.0
 31
0.0
  0
LINE
  5
1DF
100
AcDbEntity
  8
STANDARD
390
0
100
AcDbLine
 10
196.3333333333
 20
200.0
 30
0.0
 11
196.3333333333
 21
195.0
 31
0.0
  0
LINE
  5
1E0
100
AcDbEntity
  8
STANDARD
390
0
100
AcDbLine
 10
244.1666666667
 20
200.0
 30
0.0
 11
244.1666666667
 21
195.0
 31
0.0
  0
LINE
  5
1E1
100
AcDbEntity
  8
STANDARD
390
0
100
AcDbLine
 10
5.0
 20
52.5
 30
0.0
 11
10.0
 21
52.5
 31
0.0
  0
LINE
  5
1E2
100
AcDbEntity
  8
STANDARD
390
0
100
AcDbLine
 10
5.0
 20
100.0
 30
0.0
 11
10.0
 21
100.0
 31
0.0
  0
LINE
  5
1E3
100
AcDbEntity
  8
STANDARD
390
0
100
AcDbLine
 10
5.0
 20
147.5
 30
0.0
 11
10.0
 21
147.5
 31
0.0
  0
TEXT
  5
1E4
100
AcDbEntity
  8
STANDARD
390
0
100
AcDbText
 10
27.6214908115
 20
196.4732039063
 30
0.0
 40
2.23125
  1
1
 41
1.5479225906
  7
Arial
 72
         1
 11
28.9166666667
 21
196.4732039063
 31
0.0
100
AcDbText
  0
TEXT
  5
1E5
100
AcDbEntity
  8
STANDARD
390
0
100
AcDbText
 10
75.0230999712
 20
196.4732039063
 30
0.0
 40
2.23125
  1
2
 41
1.5479215945
  7
Arial
 72
         1
 11
76.75
 21
196.4732039063
 31
0.0
100
AcDbText
  0
TEXT
  5
1E6
100
AcDbEntity
  8
STANDARD
390
0
100
AcDbText
 10
122.8564319709
 20
196.4732039063
 30
0.0
 40
2.23125
  1
3
 41
1.5479227899
  7
Arial
 72
         1
 11
124.5833333333
 21
196.4732039063
 31
0.0
100
AcDbText
  0
TEXT
  5
1E7
100
AcDbEntity
  8
STANDARD
390
0
100
AcDbText
 10
170.6897655265
 20
196.4732039063
 30
0.0
 40
2.23125
  1
4
 41
1.5479225906
  7
Arial
 72
         1
 11
172.4166666667
 21
196.4732039063
 31
0.0
100
AcDbText
  0
TEXT
  5
1E8
100
AcDbEntity
  8
STANDARD
390
0
100
AcDbText
 10
218.5230997489
 20
196.4732039063
 30
0.0
 40
2.23125
  1
5
 41
1.5479217937
  7
Arial
 72
         1
 11
220.25
 21
196.4732039063
 31
0.0
100
AcDbText
  0
TEXT
  5
1E9
100
AcDbEntity
  8
STANDARD
390
0
100
AcDbText
 10
266.3564321932
 20
196.4732039063
 30
0.0
 40
2.23125
  1
6
 41
1.5479225906
  7
Arial
 72
         1
 11
268.0833333333
 21
196.4732039063
 31
0.0
100
AcDbText
  0
TEXT
  5
1EA
100
AcDbEntity
  8
STANDARD
390
0
100
AcDbText
 10
5.773027185
 20
172.7232039063
 30
0.0
 40
2.23125
  1
A
 41
1.547986837
  7
Arial
 72
         1
 11
7.5
 21
172.7232039063
 31
0.0
100
AcDbText
  0
TEXT
  5
1EB
100
AcDbEntity
  8
STANDARD
390
0
100
AcDbText
 10
5.7730267401
 20
125.2232039063
 30
0.0
 40
2.23125
  1
B
 41
1.5479872357
  7
Arial
 72
         1
 11
7.5
 21
125.2232039063
 31
0.0
100
AcDbText
  0
TEXT
  5
1EC
100
AcDbEntity
  8
STANDARD
390
0
100
AcDbText
 10
5.7728972752
 20
77.7232039063
 30
0.0
 40
2.23125
  1
C
 41
1.5481032827
  7
Arial
 72
         1
 11
7.5
 21
77.7232039063
 31
0.0
100
AcDbText
  0
TEXT
  5
1ED
100
AcDbEntity
  8
STANDARD
390
0
100
AcDbText
 10
5.7728964192
 20
30.2232039062
 30
0.0
 40
2.23125
  1
D
 41
1.54810405
  7
Arial
 72
         1
 11
7.5
 21
30.2232039062
 31
0.0
100
AcDbText
  0
LINE
  5
1EE
100
AcDbEntity
  8
STANDARD
390
0
100
AcDbLine
 10
5.0
 20
5.0
 30
0.0
 11
10.0
 21
5.0
 31
0.0
  0
LINE
  5
1EF
100
AcDbEntity
  8
STANDARD
390
0
100
AcDbLine
 10
292.0
 20
5.0
 30
0.0
 11
292.0
 21
195.0
 31
0.0
  0
LINE
  5
1F0
100
AcDbEntity
  8
STANDARD
390
0
100
AcDbLine
 10
292.0
 20
195.0
 30
0.0
 11
10.0
 21
195.0
 31
0.0
  0
LINE
  5
1F1
100
AcDbEntity
  8
STANDARD
390
0
100
AcDbLine
 10
5.0
 20
195.0
 30
0.0
 11
5.0
 21
5.0
 31
0.0
  0
LINE
  5
1F2
100
AcDbEntity
  8
STANDARD
390
0
100
AcDbLine
 10
296.0
 20
209.0
 30
0.0
 11
1.0
 21
209.0
 31
0.0
  0
LINE
  5
1F3
100
AcDbEntity
  8
STANDARD
390
0
100
AcDbLine
 10
296.0
 20
1.0
 30
0.0
 11
296.0
 21
209.0
 31
0.0
  0
LINE
  5
1F4
100
AcDbEntity
  8
STANDARD
390
0
100
AcDbLine
 10
1.0
 20
1.0
 30
0.0
 11
296.0
 21
1.0
 31
0.0
  0
LINE
  5
1F5
100
AcDbEntity
  8
STANDARD
390
0
100
AcDbLine
 10
1.0
 20
209.0
 30
0.0
 11
1.0
 21
1.0
 31
0.0
  0
LINE
  5
1F6
100
AcDbEntity
  8
STANDARD
390
0
100
AcDbLine
 10
10.0
 20
195.0
 30
0.0
 11
5.0
 21
195.0
 31
0.0
  0
LINE
  5
1F7
100
AcDbEntity
  8
STANDARD
390
0
100
AcDbLine
 10
10.0
 20
5.0
 30
0.0
 11
292.0
 21
5.0
 31
0.0
  0
MTEXT
  5
1F8
100
AcDbEntity
  8
STANDARD
390
0
100
AcDbMText
 10
215.5777227339
 20
6.520569157
 30
0.0
 40
1.59375
 41
0.0
 71
         7
 72
         1
  1

  7
Arial
 73
         1
 44
1.0352941176
  0
MTEXT
  5
1F9
100
AcDbEntity
  8
STANDARD
390
0
100
AcDbMText
 10
269.4128856935
 20
6.5165742187
 30
0.0
 40
1.59375
 41
0.0
 71
         7
 72
         1
  1

  7
Arial
 73
         1
 44
1.0352941176
  0
MTEXT
  5
1FA
100
AcDbEntity
  8
STANDARD
390
0
100
AcDbMText
 10
171.2439051502
 20
6.520569157
 30
0.0
 40
1.59375
 41
0.0
 71
         7
 72
         1
  1

  7
Arial
 73
         1
 44
1.0352941176
  0
TEXT
  5
1FB
100
AcDbEntity
  8
BESCHRIFTUNG
390
0
100
AcDbText
 10
169.1145333333
 20
29.1386
 30
0.0
 40
3.3
  1
Stellwerk HMM
 41
1.3758039542
 51
15.0
  7
Arial
 11
169.1145333333
 21
32.4386
 31
0.0
100
AcDbText
 73
         3
  0
MTEXT
  5
1FC
100
AcDbEntity
  8
BESCHRIFTUNG
390
0
100
AcDbMText
 10
215.5344888889
 20
24.9601111111
 30
0.0
 40
3.3
 41
0.0
 71
         1
 72
         1
  1
\W1.130224;Verschlussregister JE\PRahmen vorne L=4 und L=7
  7
Arial
 73
         1
 44
0.7272727273
  0
TEXT
  5
1FD
100
AcDbEntity
  8
BESCHRIFTUNG
390
0
100
AcDbText
 10
169.1145333333
 20
6.9230888889
 30
0.0
 40
3.3
  1
Dateiname
 41
1.1437088374
 51
15.0
  7
Arial
 11
169.1145333333
 21
10.2230888889
 31
0.0
100
AcDbText
 73
         3
  0
TEXT
  5
1FE
100
AcDbEntity
  8
BESCHRIFTUNG
390
0
100
AcDbText
 10
169.3344888889
 20
21.6601111111
 30
0.0
 40
3.3
  1
Bl. 3301 P.1h
 41
1.1437204198
 51
15.0
  7
Arial
 11
169.3344888889
 21
24.9601111111
 31
0.0
100
AcDbText
 73
         3
  0
TEXT
  5
1FF
100
AcDbEntity
  8
BESCHRIFTUNG
390
0
100
AcDbText
 10
253.1145333333
 20
29.1386
 30
0.0
 40
3.3
  1
Maßstab 1:1
 41
1.1437192123
 51
15.0
  7
Arial
 11
253.1145333333
 21
32.4386
 31
0.0
100
AcDbText
 73
         3
  0
LINE
  5
200
100
AcDbEntity
  8
STANDARD
370
         0
390
0
100
AcDbLine
 10
214.2194301994
 20
34.4
 30
0.0
 11
214.2194301994
 21
5.0
 31
0.0
  0
LINE
  5
201
100
AcDbEntity
  8
STANDARD
370
         0
390
0
100
AcDbLine
 10
168.0194301994
 20
34.4
 30
0.0
 11
291.9134472934
 21
34.4
 31
0.0
  0
LINE
  5
202
100
AcDbEntity
  8
STANDARD
370
         0
390
0
100
AcDbLine
 10
168.0194301994
 20
27.4
 30
0.0
 11
291.9134472934
 21
27.4
 31
0.0
  0
LINE
  5
203
100
AcDbEntity
  8
STANDARD
370
         0
390
0
100
AcDbLine
 10
168.0194301994
 20
12.0
 30
0.0
 11
291.9134472934
 21
12.0
 31
0.0
  0
LINE
  5
204
100
AcDbEntity
  8
STANDARD
370
         0
390
0
100
AcDbLine
 10
168.0194301994
 20
34.4
 30
0.0
 11
168.0194301994
 21
5.0
 31
0.0
  0
LINE
  5
205
100
AcDbEntity
  8
STANDARD
370
         0
390
0
100
AcDbLine
 10
252.0194301994
 20
34.4
 30
0.0
 11
252.0194301994
 21
27.4
 31
0.0
  0
ENDSEC
  0
SECTION
  2
OBJECTS
  0
DICTIONARY
  5
19
100
AcDbDictionary
280
         0
281
         1
  3
ACAD_GROUP
350
1A
  3
ACAD_MLINESTYLE
350
1B
  3
ACAD_LAYOUT
350
1E
  3
ACAD_PLOTSETTINGS
350
22
  3
ACAD_PLOTSTYLENAME
350
1F
  3
ACAD_WIPEOUT_VARS
350
23
  0
DICTIONARY
  5
1A
102
{ACAD_REACTORS
330
19
102
}
100
AcDbDictionary
280
         0
281
         1
  0
DICTIONARY
  5
1B
102
{ACAD_REACTORS
330
19
102
}
100
AcDbDictionary
280
         0
281
         1
  3
Standard
350
1C
  0
MLINESTYLE
  5
1C
102
{ACAD_REACTORS
330
1B
102
}
100
AcDbMlineStyle
  2
Standard
 70
         0
  3

 62
         0
 51
90.0
 52
90.0
 71
         2
 49
0.5
 62
       256
  6
ByLayer
 49
-0.5
 62
       256
  6
ByLayer
  0
ACDBDICTIONARYWDFLT
  5
1F
102
{ACAD_REACTORS
330
19
102
}
100
AcDbDictionary
281
         1
  3
Normal
350
1D
100
AcDbDictionaryWithDefault
340
1D
  0
ACDBPLACEHOLDER
  5
1D
102
{ACAD_REACTORS
330
1F
102
}
  0
LAYOUT
  5
20
102
{ACAD_REACTORS
330
1E
102
}
100
AcDbPlotSettings
  1

  2

  4

  6

 40
0.0
 41
0.0
 42
0.0
 43
0.0
 44
0.0
 45
0.0
 46
0.0
 47
0.0
 48
0.0
 49
0.0
140
0.0
141
0.0
142
1.0
143
1.0
 70
      1024
 72
         0
 73
         0
 74
         0
  7

 75
         0
147
1.0
148
0.0
149
0.0
100
AcDbLayout
  1
Model
 70
         0
 71
         0
 10
0.0
 20
0.0
 11
0.0
 21
0.0
 12
0.0
 22
0.0
 32
0.0
 14
0.0
 24
0.0
 34
0.0
 15
0.0
 25
0.0
 35
0.0
146
0.0
 13
0.0
 23
0.0
 33
0.0
 16
0.0
 26
0.0
 36
0.0
 17
0.0
 27
0.0
 37
0.0
 76
         0
330
A
331
0
345
0
346
0
  0
LAYOUT
  5
21
102
{ACAD_REACTORS
330
1E
102
}
100
AcDbPlotSettings
  1

  2

  4

  6

 40
0.0
 41
0.0
 42
0.0
 43
0.0
 44
0.0
 45
0.0
 46
0.0
 47
0.0
 48
0.0
 49
0.0
140
0.0
141
0.0
142
1.0
143
1.0
 70
         0
 72
         0
 73
         0
 74
         0
  7

 75
         0
147
1.0
148
0.0
149
0.0
100
AcDbLayout
  1
Layout1
 70
         0
 71
         0
 10
0.0
 20
0.0
 11
0.0
 21
0.0
 12
0.0
 22
0.0
 32
0.0
 14
0.0
 24
0.0
 34
0.0
 15
0.0
 25
0.0
 35
0.0
146
0.0
 13
0.0
 23
0.0
 33
0.0
 16
0.0
 26
0.0
 36
0.0
 17
0.0
 27
0.0
 37
0.0
 76
         0
330
B
331
0
345
0
346
0
  0
DICTIONARY
  5
1E
102
{ACAD_REACTORS
330
19
102
}
100
AcDbDictionary
280
         0
281
         1
  3
Layout1
350
21
  3
Model
350
20
  0
DICTIONARY
  5
22
102
{ACAD_REACTORS
330
19
102
}
100
AcDbDictionary
280
         0
281
         1
  0
WIPEOUTVARIABLES
  5
23
100
AcDbWipeoutVariables
 70
         1
  0
ENDSEC
  0
EOF
