  0
SECTION
  2
HEADER
  9
$ACADVER
  1
AC1015
  9
$ACADMAINTVER
 70
         6
  9
$DWGCODEPAGE
  3
ANSI_1252
  9
$INSBASE
 10
0.0
 20
0.0
 30
0.0
  9
$EXTMIN
 10
-106.0
 20
0.0
 30
0.0
  9
$EXTMAX
 10
105.0
 20
178.1908874512
 30
0.0
  9
$LIMMIN
 10
-106.0
 20
0.0
  9
$LIMMAX
 10
105.0
 20
178.1908874512
  9
$ORTHOMODE
 70
         0
  9
$REGENMODE
 70
         1
  9
$FILLMODE
 70
         1
  9
$QTEXTMODE
 70
         0
  9
$MIRRTEXT
 70
         1
  9
$LTSCALE
 40
5.275
  9
$ATTMODE
 70
         1
  9
$TEXTSIZE
 40
0.2
  9
$TRACEWID
 40
0.05
  9
$TEXTSTYLE
  7
Standard
  9
$CLAYER
  8
0
  9
$CELTYPE
  6
CONTINUOUS
  9
$CECOLOR
 62
       256
  9
$CELTSCALE
 40
1.0
  9
$DISPSILH
 70
         0
  9
$DIMSCALE
 40
1.0
  9
$DIMASZ
 40
0.18
  9
$DIMEXO
 40
0.0625
  9
$DIMDLI
 40
0.38
  9
$DIMRND
 40
0.0
  9
$DIMDLE
 40
0.0
  9
$DIMEXE
 40
0.18
  9
$DIMTP
 40
0.0
  9
$DIMTM
 40
0.0
  9
$DIMTXT
 40
3.0
  9
$DIMCEN
 40
0.09
  9
$DIMTSZ
 40
0.0
  9
$DIMTOL
 70
         0
  9
$DIMLIM
 70
         0
  9
$DIMTIH
 70
         1
  9
$DIMTOH
 70
         1
  9
$DIMSE1
 70
         0
  9
$DIMSE2
 70
         0
  9
$DIMTAD
 70
         1
  9
$DIMZIN
 70
         0
  9
$DIMBLK
  1

  9
$DIMASO
 70
         1
  9
$DIMSHO
 70
         1
  9
$DIMPOST
  1
<>
  9
$DIMAPOST
  1

  9
$DIMALT
 70
         0
  9
$DIMALTD
 70
         2
  9
$DIMALTF
 40
25.4
  9
$DIMLFAC
 40
1.0
  9
$DIMTOFL
 70
         0
  9
$DIMTVP
 40
0.0
  9
$DIMTIX
 70
         0
  9
$DIMSOXD
 70
         0
  9
$DIMSAH
 70
         0
  9
$DIMBLK1
  1

  9
$DIMBLK2
  1

  9
$DIMSTYLE
  2
Standard
  9
$DIMCLRD
 70
         0
  9
$DIMCLRE
 70
         0
  9
$DIMCLRT
 70
         0
  9
$DIMTFAC
 40
1.0
  9
$DIMGAP
 40
0.09
  9
$DIMJUST
 70
         0
  9
$DIMSD1
 70
         0
  9
$DIMSD2
 70
         0
  9
$DIMTOLJ
 70
         1
  9
$DIMTZIN
 70
         0
  9
$DIMALTZ
 70
         0
  9
$DIMALTTZ
 70
         0
  9
$DIMUPT
 70
         0
  9
$DIMDEC
 70
         4
  9
$DIMTDEC
 70
         4
  9
$DIMALTU
 70
         2
  9
$DIMALTTD
 70
         2
  9
$DIMTXSTY
  7
Standard
  9
$DIMAUNIT
 70
         0
  9
$DIMADEC
 70
         0
  9
$DIMALTRND
 40
0.0
  9
$DIMAZIN
 70
         0
  9
$DIMDSEP
 70
         0
  9
$DIMATFIT
 70
         3
  9
$DIMFRAC
 70
         0
  9
$DIMLDRBLK
  1

  9
$DIMLUNIT
 70
         2
  9
$DIMLWD
 70
         0
  9
$DIMLWE
 70
         0
  9
$DIMTMOVE
 70
         0
  9
$LUNITS
 70
         2
  9
$LUPREC
 70
         4
  9
$SKETCHINC
 40
0.1
  9
$FILLETRAD
 40
0.0
  9
$AUNITS
 70
         0
  9
$AUPREC
 70
         0
  9
$MENU
  1
acad
  9
$ELEVATION
 40
0.0
  9
$PELEVATION
 40
0.0
  9
$THICKNESS
 40
0.0
  9
$LIMCHECK
 70
         0
  9
$CHAMFERA
 40
0.0
  9
$CHAMFERB
 40
0.0
  9
$CHAMFERC
 40
0.0
  9
$CHAMFERD
 40
0.0
  9
$SKPOLY
 70
         0
  9
$TDCREATE
 40
0.000000000
  9
$TDUCREATE
 40
0.000000000
  9
$TDUPDATE
 40
0.000000000
  9
$TDUUPDATE
 40
0.000000000
  9
$TDINDWG
 40
0.0000000000
  9
$TDUSRTIMER
 40
0.0000000000
  9
$USRTIMER
 70
         1
  9
$ANGBASE
 50
0.0
  9
$ANGDIR
 70
         0
  9
$PDMODE
 70
         0
  9
$PDSIZE
 40
0.0
  9
$PLINEWID
 40
0.0
  9
$SPLFRAME
 70
         0
  9
$SPLINETYPE
 70
         6
  9
$SPLINESEGS
 70
         8
  9
$HANDSEED
  5
23B
  9
$SURFTAB1
 70
         6
  9
$SURFTAB2
 70
         6
  9
$SURFTYPE
 70
         6
  9
$SURFU
 70
         6
  9
$SURFV
 70
         6
  9
$UCSBASE
  2

  9
$UCSNAME
  2

  9
$UCSORG
 10
0.0
 20
0.0
 30
0.0
  9
$UCSXDIR
 10
1.0
 20
0.0
 30
0.0
  9
$UCSYDIR
 10
0.0
 20
1.0
 30
0.0
  9
$UCSORTHOREF
  2

  9
$UCSORTHOVIEW
 70
         0
  9
$UCSORGTOP
 10
0.0
 20
0.0
 30
0.0
  9
$UCSORGBOTTOM
 10
0.0
 20
0.0
 30
0.0
  9
$UCSORGLEFT
 10
0.0
 20
0.0
 30
0.0
  9
$UCSORGRIGHT
 10
0.0
 20
0.0
 30
0.0
  9
$UCSORGFRONT
 10
0.0
 20
0.0
 30
0.0
  9
$UCSORGBACK
 10
0.0
 20
0.0
 30
0.0
  9
$PUCSBASE
  2

  9
$PUCSNAME
  2

  9
$PUCSORG
 10
0.0
 20
0.0
 30
0.0
  9
$PUCSXDIR
 10
1.0
 20
0.0
 30
0.0
  9
$PUCSYDIR
 10
0.0
 20
1.0
 30
0.0
  9
$PUCSORTHOREF
  2

  9
$PUCSORTHOVIEW
 70
         0
  9
$PUCSORGTOP
 10
0.0
 20
0.0
 30
0.0
  9
$PUCSORGBOTTOM
 10
0.0
 20
0.0
 30
0.0
  9
$PUCSORGLEFT
 10
0.0
 20
0.0
 30
0.0
  9
$PUCSORGRIGHT
 10
0.0
 20
0.0
 30
0.0
  9
$PUCSORGFRONT
 10
0.0
 20
0.0
 30
0.0
  9
$PUCSORGBACK
 10
0.0
 20
0.0
 30
0.0
  9
$USERI1
 70
         0
  9
$USERI2
 70
         0
  9
$USERI3
 70
         0
  9
$USERI4
 70
         0
  9
$USERI5
 70
         0
  9
$USERR1
 40
0.0
  9
$USERR2
 40
0.0
  9
$USERR3
 40
0.0
  9
$USERR4
 40
0.0
  9
$USERR5
 40
0.0
  9
$WORLDVIEW
 70
         1
  9
$SHADEDGE
 70
         3
  9
$SHADEDIF
 70
        70
  9
$TILEMODE
 70
         1
  9
$MAXACTVP
 70
        16
  9
$PINSBASE
 10
0.0
 20
0.0
 30
0.0
  9
$PLIMCHECK
 70
         0
  9
$PEXTMIN
 10
1.0000000000E+20
 20
1.0000000000E+20
 30
1.0000000000E+20
  9
$PEXTMAX
 10
-1.0000000000E+20
 20
-1.0000000000E+20
 30
-1.0000000000E+20
  9
$PLIMMIN
 10
0.0
 20
0.0
  9
$PLIMMAX
 10
12.0
 20
9.0
  9
$UNITMODE
 70
         0
  9
$VISRETAIN
 70
         0
  9
$PLINEGEN
 70
         1
  9
$PSLTSCALE
 70
         0
  9
$TREEDEPTH
 70
      3020
  9
$CMLSTYLE
  2
Standard
  9
$CMLJUST
 70
         0
  9
$CMLSCALE
 40
1.0
  9
$PROXYGRAPHICS
 70
         0
  9
$MEASUREMENT
 70
         1
  9
$CELWEIGHT
370
         0
  9
$ENDCAPS
280
         0
  9
$JOINSTYLE
280
         0
  9
$LWDISPLAY
290
         0
  9
$INSUNITS
 70
         0
  9
$HYPERLINKBASE
  1

  9
$STYLESHEET
  1

  9
$XEDIT
290
         1
  9
$CEPSNTYPE
380
         0
  9
$PSTYLEMODE
290
         1
  9
$FINGERPRINTGUID
  2

  9
$VERSIONGUID
  2

  9
$EXTNAMES
290
         1
  9
$PSVPSCALE
 40
0.0
  0
ENDSEC
  0
SECTION
  2
CLASSES
  0
CLASS
  1
LWPOLYLINE
  2
AcDbPolyline
  3
AutoCAD 2000
 90
        0
280
         0
281
         1
  0
CLASS
  1
IMAGE
  2
AcDbRasterImage
  3
ISM
 90
      127
280
         0
281
         1
  0
CLASS
  1
OLE2FRAME
  2
AcDbOle2Frame
  3
AutoCAD 2000
 90
        0
280
         0
281
         1
  0
CLASS
  1
HATCH
  2
AcDbHatch
  3
AutoCAD 2000
 90
        0
280
         0
281
         1
  0
CLASS
  1
DICTIONARYVAR
  2
AcDbDictionaryVar
  3
AutoCAD 2000
 90
        0
280
         0
281
         0
  0
CLASS
  1
RASTERVARIABLES
  2
AcDbRasterVariables
  3
ISM
 90
        0
280
         0
281
         0
  0
CLASS
  1
IMAGEDEF
  2
AcDbRasterImageDef
  3
ISM
 90
        0
280
         0
281
         0
  0
CLASS
  1
IMAGEDEF_REACTOR
  2
AcDbRasterImageDefReactor
  3
ISM
 90
        1
280
         0
281
         0
  0
CLASS
  1
IDBUFFER
  2
AcDbIdBuffer
  3
AutoCAD 2000
 90
        0
280
         0
281
         0
  0
CLASS
  1
SPATIAL_FILTER
  2
AcDbSpatialFilter
  3
AutoCAD 2000
 90
        0
280
         0
281
         0
  0
CLASS
  1
XRECORD
  2
AcDbXrecord
  3
AutoCAD 2000
 90
        0
280
         0
281
         0
  0
CLASS
  1
SORTENTSTABLE
  2
AcDbSortentsTable
  3
AutoCAD 2000
 90
        0
280
         0
281
         0
  0
CLASS
  1
LAYER_INDEX
  2
AcDbLayerIndex
  3
AutoCAD 2000
 90
        0
280
         0
281
         0
  0
CLASS
  1
SPATIAL_INDEX
  2
AcDbSpatialIndex
  3
AutoCAD 2000
 90
        0
280
         0
281
         0
  0
CLASS
  1
OBJECT_PTR
  2
CAseDLPNTableRecord
  3
"ASE-LPNTableRecord"
 90
        1
280
         0
281
         0
  0
CLASS
  1
LAYOUT
  2
AcDbLayout
  3
AutoCAD 2000
 90
        0
280
         0
281
         0
  0
CLASS
  1
PLOTSETTINGS
  2
AcDbPlotSettings
  3
AutoCAD 2000
 90
        0
280
         0
281
         0
  0
CLASS
  1
ACDBDICTIONARYWDFLT
  2
AcDbDictionaryWithDefault
  3
AutoCAD 2000
 90
        0
280
         0
281
         0
  0
CLASS
  1
ACDBPLACEHOLDER
  2
AcDbPlaceHolder
  3
AutoCAD 2000
 90
        0
280
         0
281
         0
  0
CLASS
  1
VBA_PROJECT
  2
AcDbVbaProject
  3
acadvba
 90
        0
280
         0
281
         0
  0
CLASS
  1
WIPEOUT
  2
AcDbWipeout
  3
WipeOut|AutoCAD Express Tool|expresstools@autodesk.com
 90
      127
280
         0
281
         1
  0
CLASS
  1
WIPEOUTVARIABLES
  2
AcDbWipeoutVariables
  3
WipeOut|AutoCAD Express Tool|expresstools@autodesk.com
 90
        0
280
         0
281
         0
  0
CLASS
  1
RTEXT
  2
RText
  3
RText|AutoCAD Express Tool|expresstools@autodesk.com
 90
        0
280
         0
281
         1
  0
CLASS
  1
ARCALIGNEDTEXT
  2
AcDbArcAlignedText
  3
ATEXT|AutoCAD Express Tool|expresstools@autodesk.com
 90
        0
280
         0
281
         1
  0
ENDSEC
  0
SECTION
  2
TABLES
  0
TABLE
  2
VPORT
  5
7
100
AcDbSymbolTable
 70
         1
  0
VPORT
  5
15
100
AcDbSymbolTableRecord
100
AcDbViewportTableRecord
  2
*ACTIVE
 70
         0
 10
0.0
 20
0.0
 11
1.0
 21
1.0
 12
52.5
 22
74.25
 13
0.0
 23
0.0
 14
1.0
 24
1.0
 15
0.0
 25
0.0
 16
0.0
 26
0.0
 36
1.0
 17
0.0
 27
0.0
 37
0.0
 40
115.6471946172
 41
1.0
 42
50.0
 43
0.0
 44
0.0
 50
0.0
 51
0.0
 71
         0
 72
       100
 73
         1
 74
         1
 75
         0
 76
         0
 77
         0
 78
         0
281
         0
 65
         0
110
0.0
120
0.0
130
0.0
111
1.0
121
0.0
131
0.0
112
0.0
122
1.0
132
0.0
345
0
346
0
 79
         0
146
0.0
  0
ENDTAB
  0
TABLE
  2
LTYPE
  5
4
100
AcDbSymbolTable
 70
        12
  0
LTYPE
  5
11
100
AcDbSymbolTableRecord
100
AcDbLinetypeTableRecord
  2
ByBlock
 70
        64
  3

 72
        65
 73
         0
 40
0.0
  0
LTYPE
  5
12
100
AcDbSymbolTableRecord
100
AcDbLinetypeTableRecord
  2
ByLayer
 70
        64
  3

 72
        65
 73
         0
 40
0.0
  0
LTYPE
  5
13
100
AcDbSymbolTableRecord
100
AcDbLinetypeTableRecord
  2
CONTINUOUS
 70
        64
  3
Solid Line
 72
        65
 73
         0
 40
0.0
  0
LTYPE
  5
24
100
AcDbSymbolTableRecord
100
AcDbLinetypeTableRecord
  2
DOT
 70
        64
  3
. . . . . . . . . . . . . . . . . . . . . . 
 72
        65
 73
         2
 40
0.25
 49
0.0
 74
         0
 49
-0.25
 74
         0
  0
LTYPE
  5
25
100
AcDbSymbolTableRecord
100
AcDbLinetypeTableRecord
  2
HIDDEN
 70
         0
  3
_ _ _ _ _ _ _ _ _ _ _ _ _ _ _ _ _ _ _ _ _ _ _
 72
        65
 73
         2
 40
0.375
 49
0.25
 74
         0
 49
-0.125
 74
         0
  0
LTYPE
  5
26
100
AcDbSymbolTableRecord
100
AcDbLinetypeTableRecord
  2
DASHDOT
 70
         0
  3
__ . __ . __ . __ . __ . __ . __ . __ . __ . __
 72
        65
 73
         4
 40
1.0
 49
0.5
 74
         0
 49
-0.25
 74
         0
 49
0.0
 74
         0
 49
-0.25
 74
         0
  0
LTYPE
  5
27
100
AcDbSymbolTableRecord
100
AcDbLinetypeTableRecord
  2
DIVIDE
 70
         0
  3
__ . . __ . . __ . . __ . . __ . . __ . . __
 72
        65
 73
         6
 40
1.25
 49
0.5
 74
         0
 49
-0.25
 74
         0
 49
0.0
 74
         0
 49
-0.25
 74
         0
 49
0.0
 74
         0
 49
-0.25
 74
         0
  0
LTYPE
  5
28
100
AcDbSymbolTableRecord
100
AcDbLinetypeTableRecord
  2
DASHED
 70
         0
  3
__ __ __ __ __ __ __ __ __ __ __ __ __ __ __
 72
        65
 73
         2
 40
0.75
 49
0.5
 74
         0
 49
-0.25
 74
         0
  0
LTYPE
  5
29
100
AcDbSymbolTableRecord
100
AcDbLinetypeTableRecord
  2
BORDER
 70
         0
  3
__ __ . __ __ . __ __ . __ __ . __ __ .
 72
        65
 73
         6
 40
1.75
 49
0.5
 74
         0
 49
-0.25
 74
         0
 49
0.5
 74
         0
 49
-0.25
 74
         0
 49
0.0
 74
         0
 49
-0.25
 74
         0
  0
LTYPE
  5
2A
100
AcDbSymbolTableRecord
100
AcDbLinetypeTableRecord
  2
CENTER
 70
         0
  3
____ _ ____ _ ____ _ ____ _ ____ _ ____
 72
        65
 73
         4
 40
2.0
 49
1.25
 74
         0
 49
-0.25
 74
         0
 49
0.25
 74
         0
 49
-0.25
 74
         0
  0
LTYPE
  5
2B
100
AcDbSymbolTableRecord
100
AcDbLinetypeTableRecord
  2
DOT2
 70
         0
  3
........................................
 72
        65
 73
         2
 40
0.125
 49
0.0
 74
         0
 49
-0.125
 74
         0
  0
LTYPE
  5
2C
100
AcDbSymbolTableRecord
100
AcDbLinetypeTableRecord
  2
PHANTOM
 70
         0
  3
______  __  __  ______  __  __  ______
 72
        65
 73
         6
 40
2.5
 49
1.25
 74
         0
 49
-0.25
 74
         0
 49
0.25
 74
         0
 49
-0.25
 74
         0
 49
0.25
 74
         0
 49
-0.25
 74
         0
  0
ENDTAB
  0
TABLE
  2
LAYER
  5
2
100
AcDbSymbolTable
 70
       109
  0
LAYER
  5
14
100
AcDbSymbolTableRecord
100
AcDbLayerTableRecord
  2
0
 70
         0
 62
         7
  6
CONTINUOUS
290
         1
370
        -3
390
1D
  0
LAYER
  5
33
100
AcDbSymbolTableRecord
100
AcDbLayerTableRecord
  2
BESCHRIFTUNG
 70
        64
 62
         7
  6
CONTINUOUS
290
         1
370
        25
390
1D
  0
LAYER
  5
34
100
AcDbSymbolTableRecord
100
AcDbLayerTableRecord
  2
SCHRAFFUR
 70
        64
 62
         7
  6
CONTINUOUS
290
         1
370
        25
390
1D
  0
LAYER
  5
35
100
AcDbSymbolTableRecord
100
AcDbLayerTableRecord
  2
MASSTEXTE
 70
        64
 62
       212
  6
CONTINUOUS
290
         1
370
        25
390
1D
  0
LAYER
  5
36
100
AcDbSymbolTableRecord
100
AcDbLayerTableRecord
  2
MASSLINIEN
 70
        64
 62
       172
  6
CONTINUOUS
290
         1
370
        25
390
1D
  0
LAYER
  5
37
100
AcDbSymbolTableRecord
100
AcDbLayerTableRecord
  2
MASSGRENZEN
 70
        64
 62
       172
  6
CONTINUOUS
290
         1
370
        25
390
1D
  0
LAYER
  5
38
100
AcDbSymbolTableRecord
100
AcDbLayerTableRecord
  2
TOLERANZEN
 70
        64
 62
       212
  6
CONTINUOUS
290
         1
370
         0
390
1D
  0
LAYER
  5
39
100
AcDbSymbolTableRecord
100
AcDbLayerTableRecord
  2
BEMASSUNG
 70
        64
 62
         7
  6
CONTINUOUS
290
         1
370
        25
390
1D
  0
LAYER
  5
3A
100
AcDbSymbolTableRecord
100
AcDbLayerTableRecord
  2
HILFSLINIEN
 70
        64
 62
         3
  6
CONTINUOUS
290
         1
370
         0
390
1D
  0
LAYER
  5
3B
100
AcDbSymbolTableRecord
100
AcDbLayerTableRecord
  2
MITTELLINIEN
 70
        64
 62
         5
  6
DASHDOT
290
         1
370
        13
390
1D
  0
LAYER
  5
3C
100
AcDbSymbolTableRecord
100
AcDbLayerTableRecord
  2
GEWINDELINIEN
 70
        64
 62
       212
  6
CONTINUOUS
290
         1
370
        25
390
1D
  0
LAYER
  5
3D
100
AcDbSymbolTableRecord
100
AcDbLayerTableRecord
  2
UNSICHTBARE
 70
        64
 62
        92
  6
DASHED
290
         1
370
        25
390
1D
  0
LAYER
  5
3E
100
AcDbSymbolTableRecord
100
AcDbLayerTableRecord
  2
VERDECKTE
 70
        64
 62
        92
  6
DASHED
290
         1
370
        25
390
1D
  0
LAYER
  5
3F
100
AcDbSymbolTableRecord
100
AcDbLayerTableRecord
  2
LICHTKANTEN
 70
        64
 62
         8
  6
CONTINUOUS
290
         1
370
        25
390
1D
  0
LAYER
  5
40
100
AcDbSymbolTableRecord
100
AcDbLayerTableRecord
  2
3301 RAHMEN LÄNGS
 70
        64
 62
         7
  6
CONTINUOUS
290
         1
370
        18
390
1D
  0
LAYER
  5
41
100
AcDbSymbolTableRecord
100
AcDbLayerTableRecord
  2
3301 VERSCHLUSSBALKENANLENKUNG UMGELEGT
 70
        64
 62
       230
  6
DASHED
290
         1
370
        18
390
1D
  0
LAYER
  5
42
100
AcDbSymbolTableRecord
100
AcDbLayerTableRecord
  2
3301 VERSCHLUSSBALKENANLENKUNG
 70
        64
 62
       230
  6
CONTINUOUS
290
         1
370
        18
390
1D
  0
LAYER
  5
43
100
AcDbSymbolTableRecord
100
AcDbLayerTableRecord
  2
3301 VERSCHLUSSBALKEN UMGELEGT
 70
        64
 62
       134
  6
DASHED
290
         1
370
        18
390
1D
  0
LAYER
  5
44
100
AcDbSymbolTableRecord
100
AcDbLayerTableRecord
  2
3301 VERSCHLUSSBALKEN
 70
        64
 62
       134
  6
CONTINUOUS
290
         1
370
        18
390
1D
  0
LAYER
  5
45
100
AcDbSymbolTableRecord
100
AcDbLayerTableRecord
  2
3301 FAHRSTRAßENSCHIEBER VERSCHOBEN
 70
        64
 62
       172
  6
DASHED
290
         1
370
        18
390
1D
  0
LAYER
  5
46
100
AcDbSymbolTableRecord
100
AcDbLayerTableRecord
  2
3301 FAHRSTRAßENSCHIEBER
 70
        64
 62
       172
  6
CONTINUOUS
290
         1
370
        18
390
1D
  0
LAYER
  5
47
100
AcDbSymbolTableRecord
100
AcDbLayerTableRecord
  2
3301 VERSCHLUSSSTÜCKE VERSCHOBEN
 70
        64
 62
       190
  6
DASHED
290
         1
370
        18
390
1D
  0
LAYER
  5
48
100
AcDbSymbolTableRecord
100
AcDbLayerTableRecord
  2
3301 VERSCHLUSSSTÜCKE
 70
        64
 62
       190
  6
CONTINUOUS
290
         1
370
        18
390
1D
  0
LAYER
  5
49
100
AcDbSymbolTableRecord
100
AcDbLayerTableRecord
  2
3301 HEBELANLENKUNG
 70
        64
 62
       230
  6
CONTINUOUS
290
         1
370
        18
390
1D
  0
LAYER
  5
4A
100
AcDbSymbolTableRecord
100
AcDbLayerTableRecord
  2
3301 RAHMEN QUER
 70
        64
 62
         8
  6
CONTINUOUS
290
         1
370
        18
390
1D
  0
LAYER
  5
4B
100
AcDbSymbolTableRecord
100
AcDbLayerTableRecord
  2
3301 ANLENKUNGSLAGER
 70
        64
 62
       252
  6
CONTINUOUS
290
         1
370
        18
390
1D
  0
LAYER
  5
4C
100
AcDbSymbolTableRecord
100
AcDbLayerTableRecord
  2
3301 FAHRSTRAßENSCHIEBERANTRIEB VERDREHT
 70
        64
 62
       171
  6
DASHED
290
         1
370
        18
390
1D
  0
LAYER
  5
4D
100
AcDbSymbolTableRecord
100
AcDbLayerTableRecord
  2
3301 FAHRSTRAßENSCHIEBERANTRIEB
 70
        64
 62
       171
  6
CONTINUOUS
290
         1
370
        18
390
1D
  0
LAYER
  5
4E
100
AcDbSymbolTableRecord
100
AcDbLayerTableRecord
  2
3301 VERSCHLUSSREGISTER JE
 70
        64
 62
         7
  6
CONTINUOUS
290
         1
370
         0
390
1D
  0
LAYER
  5
4F
100
AcDbSymbolTableRecord
100
AcDbLayerTableRecord
  2
3302 HEBELBOCK
 70
        64
 62
       172
  6
CONTINUOUS
290
         1
370
        18
390
1D
  0
LAYER
  5
50
100
AcDbSymbolTableRecord
100
AcDbLayerTableRecord
  2
3302 HANDFALLE UMGELEGT
 70
        64
 62
       134
  6
DASHED
290
         1
370
        18
390
1D
  0
LAYER
  5
51
100
AcDbSymbolTableRecord
100
AcDbLayerTableRecord
  2
3302 HANDFALLE ANGEZOGEN
 70
        64
 62
       134
  6
DIVIDE
290
         1
370
        18
390
1D
  0
LAYER
  5
52
100
AcDbSymbolTableRecord
100
AcDbLayerTableRecord
  2
3302 HANDFALLE
 70
        64
 62
       134
  6
CONTINUOUS
290
         1
370
        18
390
1D
  0
LAYER
  5
53
100
AcDbSymbolTableRecord
100
AcDbLayerTableRecord
  2
3302 HEBELEISEN UMGELEGT
 70
        64
 62
         5
  6
DASHED
290
         1
370
        18
390
1D
  0
LAYER
  5
54
100
AcDbSymbolTableRecord
100
AcDbLayerTableRecord
  2
3302 HEBELEISEN
 70
        64
 62
         5
  6
CONTINUOUS
290
         1
370
        18
390
1D
  0
LAYER
  5
55
100
AcDbSymbolTableRecord
100
AcDbLayerTableRecord
  2
3302 HEBELERSATZSCHLOSS JE
 70
        64
 62
         7
  6
CONTINUOUS
290
         1
370
         0
390
1D
  0
LAYER
  5
56
100
AcDbSymbolTableRecord
100
AcDbLayerTableRecord
  2
2052 GEHÄUSE
 70
        64
 62
         7
  6
CONTINUOUS
290
         1
370
        18
390
1D
  0
LAYER
  5
57
100
AcDbSymbolTableRecord
100
AcDbLayerTableRecord
  2
2052 RIEGEL UMGESPERRT
 70
        64
 62
       230
  6
DASHED
290
         1
370
        18
390
1D
  0
LAYER
  5
58
100
AcDbSymbolTableRecord
100
AcDbLayerTableRecord
  2
2052 RIEGEL
 70
        64
 62
       230
  6
CONTINUOUS
290
         1
370
        18
390
1D
  0
LAYER
  5
59
100
AcDbSymbolTableRecord
100
AcDbLayerTableRecord
  2
2052 ZUHALTUNG
 70
        64
 62
        94
  6
CONTINUOUS
290
         1
370
        18
390
1D
  0
LAYER
  5
5A
100
AcDbSymbolTableRecord
100
AcDbLayerTableRecord
  2
2052 BESATZUNG
 70
        64
 62
         8
  6
CONTINUOUS
290
         1
370
        18
390
1D
  0
LAYER
  5
5B
100
AcDbSymbolTableRecord
100
AcDbLayerTableRecord
  2
2052 SCHLOSS MIT DORN
 70
        64
 62
         7
  6
CONTINUOUS
290
         1
370
         0
390
1D
  0
LAYER
  5
5C
100
AcDbSymbolTableRecord
100
AcDbLayerTableRecord
  2
2053 SCHILD
 70
        64
 62
        54
  6
CONTINUOUS
290
         1
370
        18
390
1D
  0
LAYER
  5
5D
100
AcDbSymbolTableRecord
100
AcDbLayerTableRecord
  2
2053 SCHLÜSSEL
 70
        64
 62
       190
  6
CONTINUOUS
290
         1
370
        18
390
1D
  0
LAYER
  5
5E
100
AcDbSymbolTableRecord
100
AcDbLayerTableRecord
  2
2053 SCHLÜSSEL MIT DORN
 70
        64
 62
         7
  6
CONTINUOUS
290
         1
370
         0
390
1D
  0
LAYER
  5
5F
100
AcDbSymbolTableRecord
100
AcDbLayerTableRecord
  2
2001 BODEN
 70
        64
 62
        14
  6
CONTINUOUS
290
         1
370
        18
390
1D
  0
LAYER
  5
60
100
AcDbSymbolTableRecord
100
AcDbLayerTableRecord
  2
2001 GEBÄUDE
 70
        64
 62
         7
  6
CONTINUOUS
290
         1
370
         0
390
1D
  0
LAYER
  5
61
100
AcDbSymbolTableRecord
100
AcDbLayerTableRecord
  2
3304 KLOBEN
 70
        64
 62
       190
  6
CONTINUOUS
290
         1
370
         0
390
1D
  0
LAYER
  5
62
100
AcDbSymbolTableRecord
100
AcDbLayerTableRecord
  2
3201-3204 WINKELHEBEL UMGELEGT
 70
        64
 62
       190
  6
DASHED
290
         1
370
        18
390
1D
  0
LAYER
  5
63
100
AcDbSymbolTableRecord
100
AcDbLayerTableRecord
  2
3201-3204 WINKELHEBEL
 70
        64
 62
       190
  6
CONTINUOUS
290
         1
370
        18
390
1D
  0
LAYER
  5
64
100
AcDbSymbolTableRecord
100
AcDbLayerTableRecord
  2
3201 HEBELBOCK
 70
        64
 62
         7
  6
CONTINUOUS
290
         1
370
        18
390
1D
  0
LAYER
  5
65
100
AcDbSymbolTableRecord
100
AcDbLayerTableRecord
  2
3201 SEILZUG
 70
        64
 62
        94
  6
DASHDOT
290
         1
370
        18
390
1D
  0
LAYER
  5
66
100
AcDbSymbolTableRecord
100
AcDbLayerTableRecord
  2
3201 HEBELKLINKE UMGELEGT
 70
        64
 62
       171
  6
DASHED
290
         1
370
        18
390
1D
  0
LAYER
  5
67
100
AcDbSymbolTableRecord
100
AcDbLayerTableRecord
  2
3201 HEBELKLINKE
 70
        64
 62
       171
  6
CONTINUOUS
290
         1
370
        18
390
1D
  0
LAYER
  5
68
100
AcDbSymbolTableRecord
100
AcDbLayerTableRecord
  2
3201 HANDFALLE UMGELEGT
 70
        64
 62
        30
  6
DASHED
290
         1
370
        18
390
1D
  0
LAYER
  5
69
100
AcDbSymbolTableRecord
100
AcDbLayerTableRecord
  2
3201 HANDFALLE ANGEZOGEN
 70
        64
 62
        30
  6
HIDDEN
290
         1
370
        18
390
1D
  0
LAYER
  5
6A
100
AcDbSymbolTableRecord
100
AcDbLayerTableRecord
  2
3201 HANDFALLE
 70
        64
 62
       114
  6
CONTINUOUS
290
         1
370
        18
390
1D
  0
LAYER
  5
6B
100
AcDbSymbolTableRecord
100
AcDbLayerTableRecord
  2
3201 HEBELEISEN UMGELEGT
 70
        64
 62
         5
  6
DASHED
290
         1
370
        18
390
1D
  0
LAYER
  5
6C
100
AcDbSymbolTableRecord
100
AcDbLayerTableRecord
  2
3201 HEBELEISEN
 70
        64
 62
         5
  6
CONTINUOUS
290
         1
370
        18
390
1D
  0
LAYER
  5
6D
100
AcDbSymbolTableRecord
100
AcDbLayerTableRecord
  2
3201 HEBELSCHILDCHEN UMGELEGT
 70
        64
 62
        16
  6
DASHED
290
         1
370
        18
390
1D
  0
LAYER
  5
6E
100
AcDbSymbolTableRecord
100
AcDbLayerTableRecord
  2
3201 HEBELSCHILDCHEN
 70
        64
 62
        16
  6
CONTINUOUS
290
         1
370
        18
390
1D
  0
LAYER
  5
6F
100
AcDbSymbolTableRecord
100
AcDbLayerTableRecord
  2
3201 HEBELROLLE
 70
        64
 62
       134
  6
CONTINUOUS
290
         1
370
        18
390
1D
  0
LAYER
  5
70
100
AcDbSymbolTableRecord
100
AcDbLayerTableRecord
  2
3201-3204 HEBEL JE
 70
        64
 62
         7
  6
CONTINUOUS
290
         1
370
         0
390
1D
  0
LAYER
  5
71
100
AcDbSymbolTableRecord
100
AcDbLayerTableRecord
  2
3211 STÄNDER JE
 70
        64
 62
         7
  6
CONTINUOUS
290
         1
370
        18
390
1D
  0
LAYER
  5
72
100
AcDbSymbolTableRecord
100
AcDbLayerTableRecord
  2
3211 TRÄGER JE
 70
        64
 62
         7
  6
CONTINUOUS
290
         1
370
        18
390
1D
  0
LAYER
  5
73
100
AcDbSymbolTableRecord
100
AcDbLayerTableRecord
  2
3211 HEBELBANK JE
 70
        64
 62
         9
  6
CONTINUOUS
290
         1
370
        18
390
1D
  0
LAYER
  5
74
100
AcDbSymbolTableRecord
100
AcDbLayerTableRecord
  2
2501 ABTRIEBRAHMEN
 70
        64
 62
         7
  6
CONTINUOUS
290
         1
370
         0
390
1D
  0
LAYER
  5
75
100
AcDbSymbolTableRecord
100
AcDbLayerTableRecord
  2
2501 ROLLEN
 70
        64
 62
       134
  6
CONTINUOUS
290
         1
370
        18
390
1D
  0
LAYER
  5
76
100
AcDbSymbolTableRecord
100
AcDbLayerTableRecord
  2
2501 ABTRIEB
 70
        64
 62
         9
  6
CONTINUOUS
290
         1
370
        18
390
1D
  0
LAYER
  5
77
100
AcDbSymbolTableRecord
100
AcDbLayerTableRecord
  2
3303 HEBELBOCK
 70
        64
 62
         7
  6
CONTINUOUS
290
         1
370
        13
390
1D
  0
LAYER
  5
78
100
AcDbSymbolTableRecord
100
AcDbLayerTableRecord
  2
3303 HEBEL NACH OBEN UMGELEGT
 70
        64
 62
         5
  6
DASHDOT
290
         1
370
        13
390
1D
  0
LAYER
  5
79
100
AcDbSymbolTableRecord
100
AcDbLayerTableRecord
  2
3303 HEBEL NACH UNTEN UMGELEGT
 70
        64
 62
         5
  6
DASHED
290
         1
370
        13
390
1D
  0
LAYER
  5
7A
100
AcDbSymbolTableRecord
100
AcDbLayerTableRecord
  2
3303 HEBEL
 70
        64
 62
         5
  6
CONTINUOUS
290
         1
370
        13
390
1D
  0
LAYER
  5
7B
100
AcDbSymbolTableRecord
100
AcDbLayerTableRecord
  2
3303 HANDFALLE ANGEZOGEN
 70
        64
 62
        30
  6
DASHDOT
290
         1
370
        13
390
1D
  0
LAYER
  5
7C
100
AcDbSymbolTableRecord
100
AcDbLayerTableRecord
  2
3303 HANDFALLE NACH OBEN UMGELEGT
 70
        64
 62
        30
  6
DASHDOT
290
         1
370
        13
390
1D
  0
LAYER
  5
7D
100
AcDbSymbolTableRecord
100
AcDbLayerTableRecord
  2
3303 HANDFALLE NACH UNTEN UMGELEGT
 70
        64
 62
        30
  6
DASHDOT
290
         1
370
        13
390
1D
  0
LAYER
  5
7E
100
AcDbSymbolTableRecord
100
AcDbLayerTableRecord
  2
3303 HANDFALLE
 70
        64
 62
        30
  6
CONTINUOUS
290
         1
370
        13
390
1D
  0
LAYER
  5
7F
100
AcDbSymbolTableRecord
100
AcDbLayerTableRecord
  2
3303 HEBELSCHILD
 70
        64
 62
       171
  6
CONTINUOUS
290
         1
370
        18
390
1D
  0
LAYER
  5
80
100
AcDbSymbolTableRecord
100
AcDbLayerTableRecord
  2
3303 FAHRSTRAßENHEBEL JE
 70
        64
 62
         7
  6
CONTINUOUS
290
         1
370
        13
390
1D
  0
LAYER
  5
81
100
AcDbSymbolTableRecord
100
AcDbLayerTableRecord
  2
2101 HEBELBANK
 70
        64
 62
         9
  6
CONTINUOUS
290
         1
370
        18
390
1D
  0
LAYER
  5
82
100
AcDbSymbolTableRecord
100
AcDbLayerTableRecord
  2
1088 GEHÄUSE
 70
        64
 62
         7
  6
CONTINUOUS
290
         1
370
        18
390
1D
  0
LAYER
  5
83
100
AcDbSymbolTableRecord
100
AcDbLayerTableRecord
  2
1088 BAUTEIL
 70
        64
 62
         7
  6
CONTINUOUS
290
         1
370
        18
390
1D
  0
LAYER
  5
84
100
AcDbSymbolTableRecord
100
AcDbLayerTableRecord
  2
KONSTRUKTION
 70
        64
 62
         7
  6
CONTINUOUS
290
         1
370
        18
390
1D
  0
LAYER
  5
85
100
AcDbSymbolTableRecord
100
AcDbLayerTableRecord
  2
SCHNITTDARSTELLUNG
 70
        64
 62
         7
  6
CONTINUOUS
290
         1
370
         0
390
1D
  0
LAYER
  5
86
100
AcDbSymbolTableRecord
100
AcDbLayerTableRecord
  2
3303_2L
 70
        64
 62
        30
  6
CONTINUOUS
290
         1
370
        13
390
1D
  0
LAYER
  5
87
100
AcDbSymbolTableRecord
100
AcDbLayerTableRecord
  2
3303_2R
 70
        64
 62
        14
  6
CONTINUOUS
290
         1
370
        13
390
1D
  0
LAYER
  5
88
100
AcDbSymbolTableRecord
100
AcDbLayerTableRecord
  2
3303_1P
 70
        64
 62
        30
  6
CONTINUOUS
290
         1
370
        13
390
1D
  0
LAYER
  5
89
100
AcDbSymbolTableRecord
100
AcDbLayerTableRecord
  2
3303_6P
 70
        64
 62
        30
  6
CONTINUOUS
290
         1
370
        13
390
1D
  0
LAYER
  5
8A
100
AcDbSymbolTableRecord
100
AcDbLayerTableRecord
  2
3303_7R
 70
        64
 62
        14
  6
CONTINUOUS
290
         1
370
        13
390
1D
  0
LAYER
  5
8B
100
AcDbSymbolTableRecord
100
AcDbLayerTableRecord
  2
3303_7L
 70
        64
 62
        30
  6
CONTINUOUS
290
         1
370
        13
390
1D
  0
LAYER
  5
8C
100
AcDbSymbolTableRecord
100
AcDbLayerTableRecord
  2
3303_8R
 70
        64
 62
        14
  6
CONTINUOUS
290
         1
370
        13
390
1D
  0
LAYER
  5
8D
100
AcDbSymbolTableRecord
100
AcDbLayerTableRecord
  2
3303_8L
 70
        64
 62
        30
  6
CONTINUOUS
290
         1
370
        13
390
1D
  0
LAYER
  5
8E
100
AcDbSymbolTableRecord
100
AcDbLayerTableRecord
  2
3303___ FAHRSTRAßENHEBEL JE
 70
        64
 62
         6
  6
DASHDOT
290
         1
370
        13
390
1D
  0
LAYER
  5
8F
100
AcDbSymbolTableRecord
100
AcDbLayerTableRecord
  2
3304_1P
 70
        64
 62
        30
  6
CONTINUOUS
290
         1
370
        13
390
1D
  0
LAYER
  5
90
100
AcDbSymbolTableRecord
100
AcDbLayerTableRecord
  2
3304___ KLOBEN
 70
        64
 62
         6
  6
DASHDOT
290
         1
370
         0
390
1D
  0
LAYER
  5
91
100
AcDbSymbolTableRecord
100
AcDbLayerTableRecord
  2
1088_1P
 70
        64
 62
        30
  6
CONTINUOUS
290
         1
370
        13
390
1D
  0
LAYER
  5
92
100
AcDbSymbolTableRecord
100
AcDbLayerTableRecord
  2
1088_1R
 70
        64
 62
        14
  6
CONTINUOUS
290
         1
370
        13
390
1D
  0
LAYER
  5
93
100
AcDbSymbolTableRecord
100
AcDbLayerTableRecord
  2
1088___ VORLAGEN
 70
        64
 62
       230
  6
CONTINUOUS
290
         1
370
        13
390
1D
  0
LAYER
  5
94
100
AcDbSymbolTableRecord
100
AcDbLayerTableRecord
  2
3302_2L
 70
        64
 62
        30
  6
CONTINUOUS
290
         1
370
        13
390
1D
  0
LAYER
  5
95
100
AcDbSymbolTableRecord
100
AcDbLayerTableRecord
  2
3302_2R
 70
        64
 62
        14
  6
CONTINUOUS
290
         1
370
        13
390
1D
  0
LAYER
  5
96
100
AcDbSymbolTableRecord
100
AcDbLayerTableRecord
  2
3302_1P
 70
        64
 62
        30
  6
CONTINUOUS
290
         1
370
        13
390
1D
  0
LAYER
  5
97
100
AcDbSymbolTableRecord
100
AcDbLayerTableRecord
  2
3302_4P
 70
        64
 62
        30
  6
CONTINUOUS
290
         1
370
        13
390
1D
  0
LAYER
  5
98
100
AcDbSymbolTableRecord
100
AcDbLayerTableRecord
  2
3302_5R
 70
        64
 62
        14
  6
CONTINUOUS
290
         1
370
        13
390
1D
  0
LAYER
  5
99
100
AcDbSymbolTableRecord
100
AcDbLayerTableRecord
  2
3302_5L
 70
        64
 62
        30
  6
CONTINUOUS
290
         1
370
        13
390
1D
  0
LAYER
  5
9A
100
AcDbSymbolTableRecord
100
AcDbLayerTableRecord
  2
3302_6R
 70
        64
 62
        14
  6
CONTINUOUS
290
         1
370
        13
390
1D
  0
LAYER
  5
9B
100
AcDbSymbolTableRecord
100
AcDbLayerTableRecord
  2
3302_6L
 70
        64
 62
        30
  6
CONTINUOUS
290
         1
370
        13
390
1D
  0
LAYER
  5
9C
100
AcDbSymbolTableRecord
100
AcDbLayerTableRecord
  2
3302___ HEBELERSATZSCHLOSS JE
 70
        64
 62
         6
  6
DASHDOT
290
         1
370
        13
390
1D
  0
LAYER
  5
9D
100
AcDbSymbolTableRecord
100
AcDbLayerTableRecord
  2
FRÄSPFADE
 70
        64
 62
        30
  6
CONTINUOUS
290
         1
370
         0
390
1D
  0
LAYER
  5
9E
100
AcDbSymbolTableRecord
100
AcDbLayerTableRecord
  2
STANDARD
 70
        64
 62
         7
  6
CONTINUOUS
290
         1
370
         0
390
1D
  0
ENDTAB
  0
TABLE
  2
STYLE
  5
3
100
AcDbSymbolTable
 70
         7
  0
STYLE
  5
17
100
AcDbSymbolTableRecord
100
AcDbTextStyleTableRecord
  2
Standard
 70
         0
 40
0.0
 41
1.0
 50
0.0
 71
         0
 42
0.0
  3
txt
  4

  0
STYLE
  5
2D
100
AcDbSymbolTableRecord
100
AcDbTextStyleTableRecord
  2
CADdy
 70
         0
 40
0.0
 41
1.0
 50
0.0
 71
         0
 42
3.5
  3
txt.shx
  4

  0
STYLE
  5
2E
100
AcDbSymbolTableRecord
100
AcDbTextStyleTableRecord
  2
Arial
 70
         0
 40
0.0
 41
1.0
 50
0.0
 71
         0
 42
3.5
  3
arial.ttf
  4

1001
ACAD
1000
Arial
1071
       34
  0
STYLE
  5
2F
100
AcDbSymbolTableRecord
100
AcDbTextStyleTableRecord
  2
Isonorm
 70
         0
 40
0.0
 41
1.0
 50
0.0
 71
         0
 42
3.5
  3
txt.shx
  4

  0
STYLE
  5
30
100
AcDbSymbolTableRecord
100
AcDbTextStyleTableRecord
  2
Tahoma
 70
         0
 40
0.0
 41
1.0
 50
0.0
 71
         0
 42
3.5
  3
tahoma.ttf
  4

1001
ACAD
1000
Tahoma
1071
       34
  0
STYLE
  5
31
100
AcDbSymbolTableRecord
100
AcDbTextStyleTableRecord
  2
Microsoft Sans Serif
 70
         0
 40
0.0
 41
1.0
 50
0.0
 71
         0
 42
3.5
  3
micross.ttf
  4

1001
ACAD
1000
Microsoft Sans Serif
1071
       34
  0
STYLE
  5
32
100
AcDbSymbolTableRecord
100
AcDbTextStyleTableRecord
  2
Arial Rounded MT Bold
 70
         0
 40
0.0
 41
1.0
 50
0.0
 71
         0
 42
3.5
  3
txt.shx
  4

  0
ENDTAB
  0
TABLE
  2
VIEW
  5
5
100
AcDbSymbolTable
 70
         0
  0
ENDTAB
  0
TABLE
  2
UCS
  5
6
100
AcDbSymbolTable
 70
         0
  0
ENDTAB
  0
TABLE
  2
APPID
  5
8
100
AcDbSymbolTable
 70
         1
  0
APPID
  5
16
100
AcDbSymbolTableRecord
100
AcDbRegAppTableRecord
  2
ACAD
 70
        64
  0
ENDTAB
  0
TABLE
  2
DIMSTYLE
  5
9
100
AcDbSymbolTable
 70
         1
100
AcDbDimStyleTable
 71
         0
  0
DIMSTYLE
105
18
100
AcDbSymbolTableRecord
100
AcDbDimStyleTableRecord
  2
Standard
 70
         0
  3

  4

 40
1.0
 41
0.18
 42
0.0625
 43
0.38
 44
0.18
 45
0.0
 46
0.0
 47
0.0
 48
0.0
 71
         0
 72
         0
 73
         1
 74
         1
 75
         0
 76
         0
 77
         0
 78
         0
 79
         0
140
0.18
141
0.09
142
0.0
143
25.4
144
1.0
145
0.0
146
1.0
147
0.09
148
0.0
170
         0
171
         2
172
         0
173
         0
174
         0
175
         0
176
         0
177
         0
178
         0
179
         0
271
         4
272
         4
273
         2
274
         2
275
         0
276
         0
277
         2
278
        46
279
         0
280
         0
281
         0
282
         0
283
         1
284
         0
285
         0
286
         0
288
         0
289
         3
340
17
341
0
342
0
343
0
344
0
371
        -2
372
        -2
  0
ENDTAB
  0
TABLE
  2
BLOCK_RECORD
  5
1
100
AcDbSymbolTable
 70
         4
  0
BLOCK_RECORD
  5
A
100
AcDbSymbolTableRecord
100
AcDbBlockTableRecord
  2
*MODEL_SPACE
340
20
  0
BLOCK_RECORD
  5
B
100
AcDbSymbolTableRecord
100
AcDbBlockTableRecord
  2
*PAPER_SPACE
340
21
  0
BLOCK_RECORD
  5
9F
100
AcDbSymbolTableRecord
100
AcDbBlockTableRecord
  2
D486182144
340
0
102
{BLKREFS
331
F0
102
}
  0
BLOCK_RECORD
  5
A8
100
AcDbSymbolTableRecord
100
AcDbBlockTableRecord
  2
D486183168
340
0
102
{BLKREFS
331
16D
102
}
  0
BLOCK_RECORD
  5
B1
100
AcDbSymbolTableRecord
100
AcDbBlockTableRecord
  2
D486187776
340
0
102
{BLKREFS
331
173
102
}
  0
BLOCK_RECORD
  5
BA
100
AcDbSymbolTableRecord
100
AcDbBlockTableRecord
  2
D486181376
340
0
102
{BLKREFS
331
1E2
102
}
  0
ENDTAB
  0
ENDSEC
  0
SECTION
  2
BLOCKS
  0
BLOCK
  5
D
100
AcDbEntity
  8
0
390
0
100
AcDbBlockBegin
  2
*MODEL_SPACE
 70
         0
 10
0.0
 20
0.0
 30
0.0
  3
*MODEL_SPACE
  1

  0
ENDBLK
  5
E
100
AcDbEntity
  8
0
390
0
100
AcDbBlockEnd
  0
BLOCK
  5
F
100
AcDbEntity
 67
         1
  8
0
390
0
100
AcDbBlockBegin
  2
*PAPER_SPACE
 70
         0
 10
0.0
 20
0.0
 30
0.0
  3
*PAPER_SPACE
  1

  0
ENDBLK
  5
10
100
AcDbEntity
 67
         1
  8
0
390
0
100
AcDbBlockEnd
  0
BLOCK
  5
A0
100
AcDbEntity
  8
BEMASSUNG
390
0
100
AcDbBlockBegin
  2
D486182144
 70
         0
 10
0.0
 20
0.0
 30
0.0
  3
D486182144
  1

  0
ARC
  5
A1
100
AcDbEntity
  8
MASSLINIEN
390
0
 62
       172
100
AcDbCircle
 10
73.5
 20
118.75
 30
0.0
 40
15.2643375225
100
AcDbArc
 50
90.0
 51
135.0024463739
  0
LINE
  5
A2
100
AcDbEntity
  8
MASSLINIEN
390
0
 62
       172
100
AcDbLine
 10
73.5
 20
130.5
 30
0.0
 11
73.5
 21
135.0143375225
 31
0.0
  0
LINE
  5
A3
100
AcDbEntity
  8
MASSLINIEN
390
0
 62
       172
100
AcDbLine
 10
65.1911405781
 20
127.0581499208
 30
0.0
 11
61.9988856115
 21
130.2501322978
 31
0.0
  0
SOLID
  5
A4
100
AcDbEntity
  8
MASSGRENZEN
390
0
100
AcDbTrace
 10
73.5
 20
134.0143375225
 30
0.0
 11
72.0128327079
 21
133.8185482341
 31
0.0
 12
72.0128327079
 22
134.2101268108
 32
0.0
 13
72.0128327079
 23
134.2101268108
 33
0.0
  0
SOLID
  5
A5
100
AcDbEntity
  8
MASSGRENZEN
390
0
100
AcDbTrace
 10
62.7060225836
 20
129.5430557088
 30
0.0
 11
63.6191139152
 21
130.7331247069
 31
0.0
 12
63.8960136043
 22
130.4562486626
 32
0.0
 13
63.8960136043
 23
130.4562486626
 33
0.0
  0
MTEXT
  5
A6
100
AcDbEntity
  8
MASSTEXTE
390
0
 62
       212
100
AcDbMText
 10
67.1883303828
 20
133.9867983382
 30
0.0
 40
1.0
 41
0.0
 71
         5
 72
         1
  1
\W1.135147;\A1;45°
  7
Arial
 11
0.9238713625
 21
0.3827031558
 31
0.0
 73
         0
 44
0.0
  0
ENDBLK
  5
A7
100
AcDbEntity
  8
0
390
0
100
AcDbBlockEnd
  0
BLOCK
  5
A9
100
AcDbEntity
  8
BEMASSUNG
390
0
100
AcDbBlockBegin
  2
D486183168
 70
         0
 10
0.0
 20
0.0
 30
0.0
  3
D486183168
  1

  0
LINE
  5
AA
100
AcDbEntity
  8
MASSLINIEN
390
0
 62
       172
100
AcDbLine
 10
32.0
 20
31.0
 30
0.0
 11
82.0
 21
31.0
 31
0.0
  0
LINE
  5
AB
100
AcDbEntity
  8
MASSLINIEN
390
0
 62
       172
100
AcDbLine
 10
32.0
 20
62.0
 30
0.0
 11
32.0
 21
30.0
 31
0.0
  0
LINE
  5
AC
100
AcDbEntity
  8
MASSLINIEN
390
0
 62
       172
100
AcDbLine
 10
82.0
 20
62.0
 30
0.0
 11
82.0
 21
30.0
 31
0.0
  0
SOLID
  5
AD
100
AcDbEntity
  8
MASSGRENZEN
390
0
100
AcDbTrace
 10
32.0
 20
31.0
 30
0.0
 11
33.4871672921
 21
31.1957892883
 31
0.0
 12
33.4871672921
 22
30.8042107117
 32
0.0
 13
33.4871672921
 23
30.8042107117
 33
0.0
  0
SOLID
  5
AE
100
AcDbEntity
  8
MASSGRENZEN
390
0
100
AcDbTrace
 10
82.0
 20
31.0
 30
0.0
 11
80.5128327079
 21
30.8042107117
 31
0.0
 12
80.5128327079
 22
31.1957892883
 32
0.0
 13
80.5128327079
 23
31.1957892883
 33
0.0
  0
MTEXT
  5
AF
100
AcDbEntity
  8
MASSTEXTE
390
0
 62
       212
100
AcDbMText
 10
57.0
 20
32.228
 30
0.0
 40
1.0
 41
0.0
 71
         5
 72
         1
  1
\W1.135145;\A1;50
  7
Arial
 73
         0
 44
0.0
  0
ENDBLK
  5
B0
100
AcDbEntity
  8
0
390
0
100
AcDbBlockEnd
  0
BLOCK
  5
B2
100
AcDbEntity
  8
BEMASSUNG
390
0
100
AcDbBlockBegin
  2
D486187776
 70
         0
 10
0.0
 20
0.0
 30
0.0
  3
D486187776
  1

  0
LINE
  5
B3
100
AcDbEntity
  8
MASSLINIEN
390
0
 62
       172
100
AcDbLine
 10
23.0
 20
40.5
 30
0.0
 11
23.0
 21
61.5
 31
0.0
  0
LINE
  5
B4
100
AcDbEntity
  8
MASSLINIEN
390
0
 62
       172
100
AcDbLine
 10
32.0
 20
40.5
 30
0.0
 11
22.0
 21
40.5
 31
0.0
  0
LINE
  5
B5
100
AcDbEntity
  8
MASSLINIEN
390
0
 62
       172
100
AcDbLine
 10
32.0
 20
61.5
 30
0.0
 11
22.0
 21
61.5
 31
0.0
  0
SOLID
  5
B6
100
AcDbEntity
  8
MASSGRENZEN
390
0
100
AcDbTrace
 10
23.0
 20
40.5
 30
0.0
 11
22.8042107117
 21
41.9871672921
 31
0.0
 12
23.1957892883
 22
41.9871672921
 32
0.0
 13
23.1957892883
 23
41.9871672921
 33
0.0
  0
SOLID
  5
B7
100
AcDbEntity
  8
MASSGRENZEN
390
0
100
AcDbTrace
 10
23.0
 20
61.5
 30
0.0
 11
23.1957892883
 21
60.0128327079
 31
0.0
 12
22.8042107117
 22
60.0128327079
 32
0.0
 13
22.8042107117
 23
60.0128327079
 33
0.0
  0
MTEXT
  5
B8
100
AcDbEntity
  8
MASSTEXTE
390
0
 62
       212
100
AcDbMText
 10
21.772
 20
51.0
 30
0.0
 40
1.0
 41
0.0
 71
         5
 72
         1
  1
\W1.135145;\A1;21
  7
Arial
 11
0.0
 21
1.0
 31
0.0
 73
         0
 44
0.0
  0
ENDBLK
  5
B9
100
AcDbEntity
  8
0
390
0
100
AcDbBlockEnd
  0
BLOCK
  5
BB
100
AcDbEntity
  8
BEMASSUNG
390
0
100
AcDbBlockBegin
  2
D486181376
 70
         0
 10
0.0
 20
0.0
 30
0.0
  3
D486181376
  1

  0
ARC
  5
BC
100
AcDbEntity
  8
MASSLINIEN
390
0
 62
       172
100
AcDbCircle
 10
-58.5
 20
161.75
 30
0.0
 40
15.2643375225
100
AcDbArc
 50
90.0
 51
135.0024463739
  0
LINE
  5
BD
100
AcDbEntity
  8
MASSLINIEN
390
0
 62
       172
100
AcDbLine
 10
-58.5
 20
173.5
 30
0.0
 11
-58.5
 21
178.0143375225
 31
0.0
  0
LINE
  5
BE
100
AcDbEntity
  8
MASSLINIEN
390
0
 62
       172
100
AcDbLine
 10
-66.8088594219
 20
170.0581499208
 30
0.0
 11
-70.0011143885
 21
173.2501322978
 31
0.0
  0
SOLID
  5
BF
100
AcDbEntity
  8
MASSGRENZEN
390
0
100
AcDbTrace
 10
-58.5
 20
177.0143375225
 30
0.0
 11
-59.9871672921
 21
176.8185482341
 31
0.0
 12
-59.9871672921
 22
177.2101268108
 32
0.0
 13
-59.9871672921
 23
177.2101268108
 33
0.0
  0
SOLID
  5
C0
100
AcDbEntity
  8
MASSGRENZEN
390
0
100
AcDbTrace
 10
-69.2939774164
 20
172.5430557088
 30
0.0
 11
-68.3808860848
 21
173.7331247069
 31
0.0
 12
-68.1039863957
 22
173.4562486626
 32
0.0
 13
-68.1039863957
 23
173.4562486626
 33
0.0
  0
MTEXT
  5
C1
100
AcDbEntity
  8
MASSTEXTE
390
0
 62
       212
100
AcDbMText
 10
-64.8116696172
 20
176.9867983382
 30
0.0
 40
1.0
 41
0.0
 71
         5
 72
         1
  1
\W1.135147;\A1;45°
  7
Arial
 11
0.9238713625
 21
0.3827031558
 31
0.0
 73
         0
 44
0.0
  0
ENDBLK
  5
C2
100
AcDbEntity
  8
0
390
0
100
AcDbBlockEnd
  0
ENDSEC
  0
SECTION
  2
ENTITIES
  0
TEXT
  5
C3
100
AcDbEntity
  8
BESCHRIFTUNG
390
0
100
AcDbText
 10
64.8464558559
 20
3.4615444444
 30
0.0
 40
1.65
  1
3304 KPv Kloben
 41
0.9828014828
  7
Arial
 11
64.8464558559
 21
5.1115444444
 31
0.0
100
AcDbText
 73
         3
  0
TEXT
  5
C4
100
AcDbEntity
  8
BESCHRIFTUNG
390
0
100
AcDbText
 10
64.8464558559
 20
14.6615444444
 30
0.0
 40
1.65
  1
2026-06-16
 41
0.9828172203
  7
Arial
 11
64.8464558559
 21
16.3115444444
 31
0.0
100
AcDbText
 73
         3
  0
MTEXT
  5
C5
100
AcDbEntity
  8
3304_1P
390
0
100
AcDbMText
 10
27.1801012596
 20
59.9795462337
 30
0.0
 40
1.0
 41
0.0
 71
         7
 72
         1
  1
\W1.135081;M50x5\PT5 O2 F150\PB-0.3    D1.6\PI1.4 P4 U20
  7
Arial
 73
         1
 44
0.66
  0
MTEXT
  5
C6
100
AcDbEntity
  8
3304___ KLOBEN
390
0
100
AcDbMText
 10
23.7024180076
 20
49.8347609352
 30
0.0
 40
1.0
 41
0.0
 71
         7
 72
         1
  1
\W1.135110;>3304.1P\PM50x5\PT5 O2
  7
Arial
 11
1.0
 21
0.0
 31
0.0
 73
         1
 44
0.66
  0
LINE
  5
C7
100
AcDbEntity
  8
3304 KLOBEN
390
0
100
AcDbLine
 10
24.0
 20
116.0
 30
0.0
 11
30.0
 21
116.0
 31
0.0
  0
LINE
  5
C8
100
AcDbEntity
  8
3304 KLOBEN
390
0
100
AcDbLine
 10
30.0
 20
116.0
 30
0.0
 11
30.0
 21
130.0
 31
0.0
  0
LINE
  5
C9
100
AcDbEntity
  8
3304 KLOBEN
390
0
100
AcDbLine
 10
30.0
 20
130.0
 30
0.0
 11
27.8660254038
 21
130.0
 31
0.0
  0
LINE
  5
CA
100
AcDbEntity
  8
3304 KLOBEN
390
0
100
AcDbLine
 10
24.0
 20
130.0
 30
0.0
 11
24.0
 21
116.0
 31
0.0
  0
LINE
  5
CB
100
AcDbEntity
  8
3304 KLOBEN
390
0
100
AcDbLine
 10
26.1339745962
 20
130.0
 30
0.0
 11
24.0
 21
130.0
 31
0.0
  0
CIRCLE
  5
CC
100
AcDbEntity
  8
3304 KLOBEN
390
0
100
AcDbCircle
 10
27.0
 20
118.75
 30
0.0
 40
1.25
  0
ARC
  5
CD
100
AcDbEntity
  8
3304 KLOBEN
390
0
100
AcDbCircle
 10
26.5
 20
123.0
 30
0.0
 40
1.0
100
AcDbArc
 50
90.0
 51
270.0
  0
ARC
  5
CE
100
AcDbEntity
  8
3304 KLOBEN
390
0
100
AcDbCircle
 10
27.5
 20
123.0
 30
0.0
 40
1.0
100
AcDbArc
 50
270.0
 51
450.0
  0
LINE
  5
CF
100
AcDbEntity
  8
3304 KLOBEN
390
0
100
AcDbLine
 10
26.5
 20
124.0
 30
0.0
 11
27.5
 21
124.0
 31
0.0
  0
LINE
  5
D0
100
AcDbEntity
  8
3304 KLOBEN
390
0
100
AcDbLine
 10
27.5
 20
122.0
 30
0.0
 11
26.5
 21
122.0
 31
0.0
  0
LINE
  5
D1
100
AcDbEntity
  8
3304 KLOBEN
390
0
  6
DIVIDE
100
AcDbLine
 10
43.25
 20
130.0
 30
0.0
 11
43.25
 21
123.6614378278
 31
0.0
  0
LINE
  5
D2
100
AcDbEntity
  8
3304 KLOBEN
390
0
  6
DIVIDE
100
AcDbLine
 10
45.75
 20
130.0
 30
0.0
 11
45.75
 21
123.6614378278
 31
0.0
  0
CIRCLE
  5
D3
100
AcDbEntity
  8
3304 KLOBEN
390
0
  6
HIDDEN
100
AcDbCircle
 10
64.5
 20
118.75
 30
0.0
 40
3.0
  0
LINE
  5
D4
100
AcDbEntity
  8
MITTELLINIEN
390
0
100
AcDbLine
 10
59.0
 20
118.75
 30
0.0
 11
70.0
 21
118.75
 31
0.0
  0
LINE
  5
D5
100
AcDbEntity
  8
MITTELLINIEN
390
0
100
AcDbLine
 10
64.5
 20
113.25
 30
0.0
 11
64.5
 21
124.25
 31
0.0
  0
CIRCLE
  5
D6
100
AcDbEntity
  8
3304 KLOBEN
390
0
  6
HIDDEN
100
AcDbCircle
 10
64.5
 20
118.75
 30
0.0
 40
2.0
  0
LINE
  5
D7
100
AcDbEntity
  8
3304 KLOBEN
390
0
  6
HIDDEN
100
AcDbLine
 10
60.5
 20
123.75
 30
0.0
 11
75.5
 21
123.75
 31
0.0
  0
LINE
  5
D8
100
AcDbEntity
  8
3304 KLOBEN
390
0
  6
HIDDEN
100
AcDbLine
 10
75.5
 20
123.75
 30
0.0
 11
75.5
 21
113.75
 31
0.0
  0
LINE
  5
D9
100
AcDbEntity
  8
3304 KLOBEN
390
0
  6
HIDDEN
100
AcDbLine
 10
75.5
 20
113.75
 30
0.0
 11
60.5
 21
113.75
 31
0.0
  0
LINE
  5
DA
100
AcDbEntity
  8
3304 KLOBEN
390
0
  6
HIDDEN
100
AcDbLine
 10
60.5
 20
113.75
 30
0.0
 11
60.5
 21
123.75
 31
0.0
  0
LINE
  5
DB
100
AcDbEntity
  8
3304 KLOBEN
390
0
  6
HIDDEN
100
AcDbLine
 10
61.5
 20
123.75
 30
0.0
 11
61.5
 21
113.75
 31
0.0
  0
ARC
  5
DC
100
AcDbEntity
  8
3304 KLOBEN
390
0
100
AcDbCircle
 10
27.0
 20
130.5
 30
0.0
 40
1.0
100
AcDbArc
 50
210.0
 51
330.0
  0
LINE
  5
DD
100
AcDbEntity
  8
3304 KLOBEN
390
0
100
AcDbLine
 10
73.0
 20
124.0
 30
0.0
 11
74.0
 21
124.0
 31
0.0
  0
LINE
  5
DE
100
AcDbEntity
  8
3304 KLOBEN
390
0
100
AcDbLine
 10
72.6339745962
 20
130.0
 30
0.0
 11
70.5
 21
130.0
 31
0.0
  0
LINE
  5
DF
100
AcDbEntity
  8
3304 KLOBEN
390
0
  6
DIVIDE
100
AcDbLine
 10
72.25
 20
130.0
 30
0.0
 11
72.25
 21
123.6614378278
 31
0.0
  0
LINE
  5
E0
100
AcDbEntity
  8
3304 KLOBEN
390
0
  6
DIVIDE
100
AcDbLine
 10
74.75
 20
130.0
 30
0.0
 11
74.75
 21
123.6614378278
 31
0.0
  0
LINE
  5
E1
100
AcDbEntity
  8
3304 KLOBEN
390
0
100
AcDbLine
 10
74.0
 20
122.0
 30
0.0
 11
73.0
 21
122.0
 31
0.0
  0
LINE
  5
E2
100
AcDbEntity
  8
3304 KLOBEN
390
0
100
AcDbLine
 10
70.5
 20
116.0
 30
0.0
 11
76.5
 21
116.0
 31
0.0
  0
LINE
  5
E3
100
AcDbEntity
  8
3304 KLOBEN
390
0
100
AcDbLine
 10
76.5
 20
130.0
 30
0.0
 11
74.3660254038
 21
130.0
 31
0.0
  0
LINE
  5
E4
100
AcDbEntity
  8
3304 KLOBEN
390
0
100
AcDbLine
 10
76.5
 20
116.0
 30
0.0
 11
76.5
 21
130.0
 31
0.0
  0
LINE
  5
E5
100
AcDbEntity
  8
3304 KLOBEN
390
0
100
AcDbLine
 10
70.5
 20
130.0
 30
0.0
 11
70.5
 21
116.0
 31
0.0
  0
ARC
  5
E6
100
AcDbEntity
  8
3304 KLOBEN
390
0
100
AcDbCircle
 10
73.0
 20
123.0
 30
0.0
 40
1.0
100
AcDbArc
 50
90.0
 51
270.0
  0
ARC
  5
E7
100
AcDbEntity
  8
3304 KLOBEN
390
0
100
AcDbCircle
 10
74.0
 20
123.0
 30
0.0
 40
1.0
100
AcDbArc
 50
270.0
 51
450.0
  0
ARC
  5
E8
100
AcDbEntity
  8
3304 KLOBEN
390
0
100
AcDbCircle
 10
73.5
 20
130.5
 30
0.0
 40
1.0
100
AcDbArc
 50
210.0
 51
330.0
  0
LINE
  5
E9
100
AcDbEntity
  8
3304 KLOBEN
390
0
  6
DASHED
100
AcDbLine
 10
64.9323627756
 20
126.0922130445
 30
0.0
 11
63.4234792971
 21
124.5832007101
 31
0.0
  0
LINE
  5
EA
100
AcDbEntity
  8
3304 KLOBEN
390
0
  6
DASHED
100
AcDbLine
 10
67.6659388311
 20
128.8260225426
 30
0.0
 11
66.1570553526
 21
127.3170102081
 31
0.0
  0
LINE
  5
EB
100
AcDbEntity
  8
3304 KLOBEN
390
0
  6
DASHED
100
AcDbLine
 10
77.5658564402
 20
118.9269502965
 30
0.0
 11
67.6659388311
 21
128.8260225426
 31
0.0
  0
LINE
  5
EC
100
AcDbEntity
  8
3304 KLOBEN
390
0
  6
DASHED
100
AcDbLine
 10
63.4234792971
 20
124.5832007101
 30
0.0
 11
73.3233969062
 21
114.684128464
 31
0.0
  0
LINE
  5
ED
100
AcDbEntity
  8
3304 KLOBEN
390
0
  6
DASHED
100
AcDbLine
 10
73.3233969062
 20
114.684128464
 30
0.0
 11
77.5658564402
 21
118.9269502965
 31
0.0
  0
CIRCLE
  5
EE
100
AcDbEntity
  8
3304 KLOBEN
390
0
100
AcDbCircle
 10
73.5
 20
118.75
 30
0.0
 40
1.25
  0
ARC
  5
EF
100
AcDbEntity
  8
3304 KLOBEN
390
0
  6
DASHED
100
AcDbCircle
 10
65.1911405781
 20
127.0581499208
 30
0.0
 40
1.0
100
AcDbArc
 50
255.0024463739
 51
375.0024463739
  0
INSERT
  5
F0
100
AcDbEntity
  8
BEMASSUNG
390
0
100
AcDbBlockReference
  2
D486182144
 10
0.0
 20
0.0
 30
0.0
  0
LINE
  5
F1
100
AcDbEntity
  8
3304 KLOBEN
390
0
100
AcDbLine
 10
47.0
 20
116.0
 30
0.0
 11
42.0
 21
116.0
 31
0.0
  0
LINE
  5
F2
100
AcDbEntity
  8
3304 KLOBEN
390
0
100
AcDbLine
 10
42.0
 20
116.0
 30
0.0
 11
42.0
 21
130.0
 31
0.0
  0
LINE
  5
F3
100
AcDbEntity
  8
3304 KLOBEN
390
0
100
AcDbLine
 10
42.0
 20
130.0
 30
0.0
 11
47.0
 21
130.0
 31
0.0
  0
LINE
  5
F4
100
AcDbEntity
  8
3304 KLOBEN
390
0
100
AcDbLine
 10
47.0
 20
130.0
 30
0.0
 11
47.0
 21
116.0
 31
0.0
  0
LINE
  5
F5
100
AcDbEntity
  8
MITTELLINIEN
390
0
100
AcDbLine
 10
44.5
 20
132.5
 30
0.0
 11
44.5
 21
121.1614378278
 31
0.0
  0
LINE
  5
F6
100
AcDbEntity
  8
MITTELLINIEN
390
0
100
AcDbLine
 10
23.25
 20
118.75
 30
0.0
 11
30.75
 21
118.75
 31
0.0
  0
LINE
  5
F7
100
AcDbEntity
  8
MITTELLINIEN
390
0
100
AcDbLine
 10
27.0
 20
115.0
 30
0.0
 11
27.0
 21
122.5
 31
0.0
  0
LINE
  5
F8
100
AcDbEntity
  8
3304 KLOBEN
390
0
  6
DASHED
100
AcDbLine
 10
47.0
 20
124.0
 30
0.0
 11
43.0
 21
124.0
 31
0.0
  0
LINE
  5
F9
100
AcDbEntity
  8
3304 KLOBEN
390
0
  6
DASHED
100
AcDbLine
 10
47.0
 20
122.0
 30
0.0
 11
43.0
 21
122.0
 31
0.0
  0
LINE
  5
FA
100
AcDbEntity
  8
3304 KLOBEN
390
0
  6
DASHED
100
AcDbLine
 10
47.0
 20
120.0
 30
0.0
 11
42.0
 21
120.0
 31
0.0
  0
LINE
  5
FB
100
AcDbEntity
  8
3304 KLOBEN
390
0
  6
DASHED
100
AcDbLine
 10
47.0
 20
117.5
 30
0.0
 11
42.0
 21
117.5
 31
0.0
  0
LINE
  5
FC
100
AcDbEntity
  8
3304 KLOBEN
390
0
  6
DASHED
100
AcDbLine
 10
43.0
 20
124.0
 30
0.0
 11
43.0
 21
122.0
 31
0.0
  0
LINE
  5
FD
100
AcDbEntity
  8
MITTELLINIEN
390
0
100
AcDbLine
 10
49.5
 20
118.75
 30
0.0
 11
39.5
 21
118.75
 31
0.0
  0
LINE
  5
FE
100
AcDbEntity
  8
3304 KLOBEN
390
0
100
AcDbLine
 10
36.5
 20
54.0
 30
0.0
 11
37.5
 21
54.0
 31
0.0
  0
LINE
  5
FF
100
AcDbEntity
  8
3304 KLOBEN
390
0
100
AcDbLine
 10
36.1339745962
 20
60.0
 30
0.0
 11
34.0
 21
60.0
 31
0.0
  0
LINE
  5
100
100
AcDbEntity
  8
3304 KLOBEN
390
0
100
AcDbLine
 10
37.5
 20
52.0
 30
0.0
 11
36.5
 21
52.0
 31
0.0
  0
LINE
  5
101
100
AcDbEntity
  8
3304 KLOBEN
390
0
100
AcDbLine
 10
34.0
 20
46.0
 30
0.0
 11
40.0
 21
46.0
 31
0.0
  0
LINE
  5
102
100
AcDbEntity
  8
3304 KLOBEN
390
0
100
AcDbLine
 10
40.0
 20
60.0
 30
0.0
 11
37.8660254038
 21
60.0
 31
0.0
  0
LINE
  5
103
100
AcDbEntity
  8
3304 KLOBEN
390
0
100
AcDbLine
 10
40.0
 20
46.0
 30
0.0
 11
40.0
 21
60.0
 31
0.0
  0
LINE
  5
104
100
AcDbEntity
  8
3304 KLOBEN
390
0
100
AcDbLine
 10
34.0
 20
60.0
 30
0.0
 11
34.0
 21
46.0
 31
0.0
  0
CIRCLE
  5
105
100
AcDbEntity
  8
3304_1P
390
0
100
AcDbCircle
 10
37.0
 20
48.75
 30
0.0
 40
1.25
  0
ARC
  5
106
100
AcDbEntity
  8
3304 KLOBEN
390
0
100
AcDbCircle
 10
36.5
 20
53.0
 30
0.0
 40
1.0
100
AcDbArc
 50
90.0
 51
270.0
  0
ARC
  5
107
100
AcDbEntity
  8
3304 KLOBEN
390
0
100
AcDbCircle
 10
37.5
 20
53.0
 30
0.0
 40
1.0
100
AcDbArc
 50
270.0
 51
450.0
  0
LINE
  5
108
100
AcDbEntity
  8
MITTELLINIEN
390
0
100
AcDbLine
 10
32.0
 20
64.5
 30
0.0
 11
32.0
 21
37.5
 31
0.0
  0
LINE
  5
109
100
AcDbEntity
  8
3304 KLOBEN
390
0
100
AcDbLine
 10
45.5
 20
52.0
 30
0.0
 11
44.5
 21
52.0
 31
0.0
  0
LINE
  5
10A
100
AcDbEntity
  8
3304 KLOBEN
390
0
100
AcDbLine
 10
42.0
 20
46.0
 30
0.0
 11
48.0
 21
46.0
 31
0.0
  0
LINE
  5
10B
100
AcDbEntity
  8
3304 KLOBEN
390
0
100
AcDbLine
 10
44.5
 20
54.0
 30
0.0
 11
45.5
 21
54.0
 31
0.0
  0
LINE
  5
10C
100
AcDbEntity
  8
3304 KLOBEN
390
0
100
AcDbLine
 10
48.0
 20
46.0
 30
0.0
 11
48.0
 21
60.0
 31
0.0
  0
LINE
  5
10D
100
AcDbEntity
  8
3304 KLOBEN
390
0
100
AcDbLine
 10
48.0
 20
60.0
 30
0.0
 11
45.8660254038
 21
60.0
 31
0.0
  0
LINE
  5
10E
100
AcDbEntity
  8
3304 KLOBEN
390
0
100
AcDbLine
 10
44.1339745962
 20
60.0
 30
0.0
 11
42.0
 21
60.0
 31
0.0
  0
LINE
  5
10F
100
AcDbEntity
  8
3304 KLOBEN
390
0
100
AcDbLine
 10
42.0
 20
60.0
 30
0.0
 11
42.0
 21
46.0
 31
0.0
  0
CIRCLE
  5
110
100
AcDbEntity
  8
3304_1P
390
0
100
AcDbCircle
 10
45.0
 20
48.75
 30
0.0
 40
1.25
  0
ARC
  5
111
100
AcDbEntity
  8
3304 KLOBEN
390
0
100
AcDbCircle
 10
44.5
 20
53.0
 30
0.0
 40
1.0
100
AcDbArc
 50
90.0
 51
270.0
  0
ARC
  5
112
100
AcDbEntity
  8
3304 KLOBEN
390
0
100
AcDbCircle
 10
45.5
 20
53.0
 30
0.0
 40
1.0
100
AcDbArc
 50
270.0
 51
450.0
  0
LINE
  5
113
100
AcDbEntity
  8
3304 KLOBEN
390
0
100
AcDbLine
 10
52.1339745962
 20
60.0
 30
0.0
 11
50.0
 21
60.0
 31
0.0
  0
LINE
  5
114
100
AcDbEntity
  8
3304 KLOBEN
390
0
100
AcDbLine
 10
56.0
 20
46.0
 30
0.0
 11
56.0
 21
60.0
 31
0.0
  0
LINE
  5
115
100
AcDbEntity
  8
3304 KLOBEN
390
0
100
AcDbLine
 10
56.0
 20
60.0
 30
0.0
 11
53.8660254038
 21
60.0
 31
0.0
  0
LINE
  5
116
100
AcDbEntity
  8
3304 KLOBEN
390
0
100
AcDbLine
 10
50.0
 20
46.0
 30
0.0
 11
56.0
 21
46.0
 31
0.0
  0
LINE
  5
117
100
AcDbEntity
  8
3304 KLOBEN
390
0
100
AcDbLine
 10
53.5
 20
52.0
 30
0.0
 11
52.5
 21
52.0
 31
0.0
  0
LINE
  5
118
100
AcDbEntity
  8
3304 KLOBEN
390
0
100
AcDbLine
 10
52.5
 20
54.0
 30
0.0
 11
53.5
 21
54.0
 31
0.0
  0
LINE
  5
119
100
AcDbEntity
  8
3304 KLOBEN
390
0
100
AcDbLine
 10
50.0
 20
60.0
 30
0.0
 11
50.0
 21
46.0
 31
0.0
  0
CIRCLE
  5
11A
100
AcDbEntity
  8
3304_1P
390
0
100
AcDbCircle
 10
53.0
 20
48.75
 30
0.0
 40
1.25
  0
ARC
  5
11B
100
AcDbEntity
  8
3304 KLOBEN
390
0
100
AcDbCircle
 10
52.5
 20
53.0
 30
0.0
 40
1.0
100
AcDbArc
 50
90.0
 51
270.0
  0
ARC
  5
11C
100
AcDbEntity
  8
3304 KLOBEN
390
0
100
AcDbCircle
 10
53.5
 20
53.0
 30
0.0
 40
1.0
100
AcDbArc
 50
270.0
 51
450.0
  0
LINE
  5
11D
100
AcDbEntity
  8
3304 KLOBEN
390
0
100
AcDbLine
 10
60.5
 20
54.0
 30
0.0
 11
61.5
 21
54.0
 31
0.0
  0
LINE
  5
11E
100
AcDbEntity
  8
3304 KLOBEN
390
0
100
AcDbLine
 10
58.0
 20
60.0
 30
0.0
 11
58.0
 21
46.0
 31
0.0
  0
LINE
  5
11F
100
AcDbEntity
  8
3304 KLOBEN
390
0
100
AcDbLine
 10
60.1339745962
 20
60.0
 30
0.0
 11
58.0
 21
60.0
 31
0.0
  0
LINE
  5
120
100
AcDbEntity
  8
3304 KLOBEN
390
0
100
AcDbLine
 10
64.0
 20
60.0
 30
0.0
 11
61.8660254038
 21
60.0
 31
0.0
  0
LINE
  5
121
100
AcDbEntity
  8
3304 KLOBEN
390
0
100
AcDbLine
 10
58.0
 20
46.0
 30
0.0
 11
64.0
 21
46.0
 31
0.0
  0
LINE
  5
122
100
AcDbEntity
  8
3304 KLOBEN
390
0
100
AcDbLine
 10
64.0
 20
46.0
 30
0.0
 11
64.0
 21
60.0
 31
0.0
  0
LINE
  5
123
100
AcDbEntity
  8
3304 KLOBEN
390
0
100
AcDbLine
 10
61.5
 20
52.0
 30
0.0
 11
60.5
 21
52.0
 31
0.0
  0
CIRCLE
  5
124
100
AcDbEntity
  8
3304_1P
390
0
100
AcDbCircle
 10
61.0
 20
48.75
 30
0.0
 40
1.25
  0
ARC
  5
125
100
AcDbEntity
  8
3304 KLOBEN
390
0
100
AcDbCircle
 10
60.5
 20
53.0
 30
0.0
 40
1.0
100
AcDbArc
 50
90.0
 51
270.0
  0
ARC
  5
126
100
AcDbEntity
  8
3304 KLOBEN
390
0
100
AcDbCircle
 10
61.5
 20
53.0
 30
0.0
 40
1.0
100
AcDbArc
 50
270.0
 51
450.0
  0
LINE
  5
127
100
AcDbEntity
  8
3304 KLOBEN
390
0
100
AcDbLine
 10
68.5
 20
54.0
 30
0.0
 11
69.5
 21
54.0
 31
0.0
  0
LINE
  5
128
100
AcDbEntity
  8
3304 KLOBEN
390
0
100
AcDbLine
 10
68.1339745962
 20
60.0
 30
0.0
 11
66.0
 21
60.0
 31
0.0
  0
LINE
  5
129
100
AcDbEntity
  8
3304 KLOBEN
390
0
100
AcDbLine
 10
66.0
 20
46.0
 30
0.0
 11
72.0
 21
46.0
 31
0.0
  0
LINE
  5
12A
100
AcDbEntity
  8
3304 KLOBEN
390
0
100
AcDbLine
 10
69.5
 20
52.0
 30
0.0
 11
68.5
 21
52.0
 31
0.0
  0
LINE
  5
12B
100
AcDbEntity
  8
3304 KLOBEN
390
0
100
AcDbLine
 10
66.0
 20
60.0
 30
0.0
 11
66.0
 21
46.0
 31
0.0
  0
LINE
  5
12C
100
AcDbEntity
  8
3304 KLOBEN
390
0
100
AcDbLine
 10
72.0
 20
46.0
 30
0.0
 11
72.0
 21
60.0
 31
0.0
  0
LINE
  5
12D
100
AcDbEntity
  8
3304 KLOBEN
390
0
100
AcDbLine
 10
72.0
 20
60.0
 30
0.0
 11
69.8660254038
 21
60.0
 31
0.0
  0
CIRCLE
  5
12E
100
AcDbEntity
  8
3304_1P
390
0
100
AcDbCircle
 10
69.0
 20
48.75
 30
0.0
 40
1.25
  0
ARC
  5
12F
100
AcDbEntity
  8
3304 KLOBEN
390
0
100
AcDbCircle
 10
68.5
 20
53.0
 30
0.0
 40
1.0
100
AcDbArc
 50
90.0
 51
270.0
  0
ARC
  5
130
100
AcDbEntity
  8
3304 KLOBEN
390
0
100
AcDbCircle
 10
69.5
 20
53.0
 30
0.0
 40
1.0
100
AcDbArc
 50
270.0
 51
450.0
  0
LINE
  5
131
100
AcDbEntity
  8
3304 KLOBEN
390
0
100
AcDbLine
 10
77.5
 20
52.0
 30
0.0
 11
76.5
 21
52.0
 31
0.0
  0
LINE
  5
132
100
AcDbEntity
  8
3304 KLOBEN
390
0
100
AcDbLine
 10
74.0
 20
60.0
 30
0.0
 11
74.0
 21
46.0
 31
0.0
  0
LINE
  5
133
100
AcDbEntity
  8
3304 KLOBEN
390
0
100
AcDbLine
 10
74.0
 20
46.0
 30
0.0
 11
80.0
 21
46.0
 31
0.0
  0
LINE
  5
134
100
AcDbEntity
  8
3304 KLOBEN
390
0
100
AcDbLine
 10
76.1339745962
 20
60.0
 30
0.0
 11
74.0
 21
60.0
 31
0.0
  0
LINE
  5
135
100
AcDbEntity
  8
3304 KLOBEN
390
0
100
AcDbLine
 10
76.5
 20
54.0
 30
0.0
 11
77.5
 21
54.0
 31
0.0
  0
LINE
  5
136
100
AcDbEntity
  8
3304 KLOBEN
390
0
100
AcDbLine
 10
80.0
 20
46.0
 30
0.0
 11
80.0
 21
60.0
 31
0.0
  0
LINE
  5
137
100
AcDbEntity
  8
3304 KLOBEN
390
0
100
AcDbLine
 10
80.0
 20
60.0
 30
0.0
 11
77.8660254038
 21
60.0
 31
0.0
  0
CIRCLE
  5
138
100
AcDbEntity
  8
3304_1P
390
0
100
AcDbCircle
 10
77.0
 20
48.75
 30
0.0
 40
1.25
  0
ARC
  5
139
100
AcDbEntity
  8
3304 KLOBEN
390
0
100
AcDbCircle
 10
76.5
 20
53.0
 30
0.0
 40
1.0
100
AcDbArc
 50
90.0
 51
270.0
  0
ARC
  5
13A
100
AcDbEntity
  8
3304 KLOBEN
390
0
100
AcDbCircle
 10
77.5
 20
53.0
 30
0.0
 40
1.0
100
AcDbArc
 50
270.0
 51
450.0
  0
LINE
  5
13B
100
AcDbEntity
  8
MITTELLINIEN
390
0
100
AcDbLine
 10
82.0
 20
64.5
 30
0.0
 11
82.0
 21
39.5
 31
0.0
  0
LINE
  5
13C
100
AcDbEntity
  8
3304_1P
390
0
  6
DIVIDE
100
AcDbLine
 10
36.5
 20
53.0
 30
0.0
 11
37.5
 21
53.0
 31
0.0
  0
LINE
  5
13D
100
AcDbEntity
  8
3304_1P
390
0
  6
DIVIDE
100
AcDbLine
 10
44.5
 20
53.0
 30
0.0
 11
45.5
 21
53.0
 31
0.0
  0
LINE
  5
13E
100
AcDbEntity
  8
3304_1P
390
0
  6
DIVIDE
100
AcDbLine
 10
52.5
 20
53.0
 30
0.0
 11
53.5
 21
53.0
 31
0.0
  0
LINE
  5
13F
100
AcDbEntity
  8
3304_1P
390
0
  6
DIVIDE
100
AcDbLine
 10
60.5
 20
53.0
 30
0.0
 11
61.5
 21
53.0
 31
0.0
  0
LINE
  5
140
100
AcDbEntity
  8
3304_1P
390
0
  6
DIVIDE
100
AcDbLine
 10
68.5
 20
53.0
 30
0.0
 11
69.5
 21
53.0
 31
0.0
  0
LINE
  5
141
100
AcDbEntity
  8
3304_1P
390
0
100
AcDbLine
 10
41.0
 20
45.5
 30
0.0
 11
41.0
 21
60.5
 31
0.0
  0
LINE
  5
142
100
AcDbEntity
  8
3304_1P
390
0
  6
DIVIDE
100
AcDbLine
 10
76.5
 20
53.0
 30
0.0
 11
77.5
 21
53.0
 31
0.0
  0
LINE
  5
143
100
AcDbEntity
  8
3304_1P
390
0
100
AcDbLine
 10
49.0
 20
45.5
 30
0.0
 11
49.0
 21
60.5
 31
0.0
  0
LINE
  5
144
100
AcDbEntity
  8
3304_1P
390
0
100
AcDbLine
 10
57.0
 20
45.5
 30
0.0
 11
57.0
 21
60.5
 31
0.0
  0
LINE
  5
145
100
AcDbEntity
  8
3304_1P
390
0
100
AcDbLine
 10
65.0
 20
45.5
 30
0.0
 11
65.0
 21
60.5
 31
0.0
  0
LINE
  5
146
100
AcDbEntity
  8
3304_1P
390
0
100
AcDbLine
 10
73.0
 20
45.5
 30
0.0
 11
73.0
 21
60.5
 31
0.0
  0
LINE
  5
147
100
AcDbEntity
  8
3304_1P
390
0
100
AcDbLine
 10
81.0
 20
45.5
 30
0.0
 11
81.0
 21
60.5
 31
0.0
  0
CIRCLE
  5
148
100
AcDbEntity
  8
3304_1P
390
0
  6
DIVIDE
100
AcDbCircle
 10
37.0
 20
60.5
 30
0.0
 40
1.0
  0
CIRCLE
  5
149
100
AcDbEntity
  8
3304_1P
390
0
  6
DIVIDE
100
AcDbCircle
 10
45.0
 20
60.5
 30
0.0
 40
1.0
  0
CIRCLE
  5
14A
100
AcDbEntity
  8
3304_1P
390
0
  6
DIVIDE
100
AcDbCircle
 10
53.0
 20
60.5
 30
0.0
 40
1.0
  0
CIRCLE
  5
14B
100
AcDbEntity
  8
3304_1P
390
0
  6
DIVIDE
100
AcDbCircle
 10
61.0
 20
60.5
 30
0.0
 40
1.0
  0
CIRCLE
  5
14C
100
AcDbEntity
  8
3304_1P
390
0
  6
DIVIDE
100
AcDbCircle
 10
69.0
 20
60.5
 30
0.0
 40
1.0
  0
CIRCLE
  5
14D
100
AcDbEntity
  8
3304_1P
390
0
  6
DIVIDE
100
AcDbCircle
 10
77.0
 20
60.5
 30
0.0
 40
1.0
  0
LINE
  5
14E
100
AcDbEntity
  8
3304_1P
390
0
  6
DIVIDE
100
AcDbLine
 10
36.0
 20
45.0
 30
0.0
 11
78.0
 21
45.0
 31
0.0
  0
CIRCLE
  5
14F
100
AcDbEntity
  8
3304_1P
390
0
  6
PHANTOM
100
AcDbCircle
 10
32.0
 20
61.5
 30
0.0
 40
0.5
  0
LINE
  5
150
100
AcDbEntity
  8
3304_1P
390
0
  6
DASHED
100
AcDbLine
 10
32.0
 20
61.5
 30
0.0
 11
37.0
 21
60.5
 31
0.0
  0
LINE
  5
151
100
AcDbEntity
  8
3304_1P
390
0
  6
DASHED
100
AcDbLine
 10
37.0
 20
60.5
 30
0.0
 11
36.5
 21
53.0
 31
0.0
  0
LINE
  5
152
100
AcDbEntity
  8
3304_1P
390
0
  6
DASHED
100
AcDbLine
 10
37.5
 20
53.0
 30
0.0
 11
37.0
 21
48.75
 31
0.0
  0
LINE
  5
153
100
AcDbEntity
  8
3304_1P
390
0
  6
DASHED
100
AcDbLine
 10
37.0
 20
48.75
 30
0.0
 11
45.0
 21
48.75
 31
0.0
  0
LINE
  5
154
100
AcDbEntity
  8
3304_1P
390
0
  6
DASHED
100
AcDbLine
 10
45.0
 20
48.75
 30
0.0
 11
45.5
 21
53.0
 31
0.0
  0
LINE
  5
155
100
AcDbEntity
  8
3304_1P
390
0
  6
DASHED
100
AcDbLine
 10
44.5
 20
53.0
 30
0.0
 11
45.0
 21
60.5
 31
0.0
  0
LINE
  5
156
100
AcDbEntity
  8
3304_1P
390
0
  6
DASHED
100
AcDbLine
 10
53.5
 20
53.0
 30
0.0
 11
53.0
 21
48.75
 31
0.0
  0
LINE
  5
157
100
AcDbEntity
  8
3304_1P
390
0
  6
DASHED
100
AcDbLine
 10
53.0
 20
60.5
 30
0.0
 11
52.5
 21
53.0
 31
0.0
  0
LINE
  5
158
100
AcDbEntity
  8
3304_1P
390
0
  6
DASHED
100
AcDbLine
 10
60.5
 20
53.0
 30
0.0
 11
61.0
 21
60.5
 31
0.0
  0
LINE
  5
159
100
AcDbEntity
  8
3304_1P
390
0
  6
DASHED
100
AcDbLine
 10
61.0
 20
48.75
 30
0.0
 11
61.5
 21
53.0
 31
0.0
  0
LINE
  5
15A
100
AcDbEntity
  8
3304_1P
390
0
  6
DASHED
100
AcDbLine
 10
53.0
 20
48.75
 30
0.0
 11
61.0
 21
48.75
 31
0.0
  0
LINE
  5
15B
100
AcDbEntity
  8
3304_1P
390
0
  6
DASHED
100
AcDbLine
 10
69.5
 20
53.0
 30
0.0
 11
69.0
 21
48.75
 31
0.0
  0
LINE
  5
15C
100
AcDbEntity
  8
3304_1P
390
0
  6
DASHED
100
AcDbLine
 10
69.0
 20
60.5
 30
0.0
 11
68.5
 21
53.0
 31
0.0
  0
LINE
  5
15D
100
AcDbEntity
  8
3304_1P
390
0
  6
DASHED
100
AcDbLine
 10
76.5
 20
53.0
 30
0.0
 11
77.0
 21
60.5
 31
0.0
  0
LINE
  5
15E
100
AcDbEntity
  8
3304_1P
390
0
  6
DASHED
100
AcDbLine
 10
77.0
 20
48.75
 30
0.0
 11
77.5
 21
53.0
 31
0.0
  0
LINE
  5
15F
100
AcDbEntity
  8
3304_1P
390
0
  6
DASHED
100
AcDbLine
 10
69.0
 20
48.75
 30
0.0
 11
77.0
 21
48.75
 31
0.0
  0
LINE
  5
160
100
AcDbEntity
  8
3304_1P
390
0
  6
DASHED
100
AcDbLine
 10
77.0
 20
60.5
 30
0.0
 11
81.0
 21
60.5
 31
0.0
  0
LINE
  5
161
100
AcDbEntity
  8
3304_1P
390
0
100
AcDbLine
 10
33.0
 20
45.5
 30
0.0
 11
33.0
 21
60.5
 31
0.0
  0
ARC
  5
162
100
AcDbEntity
  8
3304_1P
390
0
  6
DASHED
100
AcDbCircle
 10
77.0
 20
38.75
 30
0.0
 40
7.8461774132
100
AcDbArc
 50
59.3493320429
 51
120.6506679571
  0
ARC
  5
163
100
AcDbEntity
  8
3304_1P
390
0
  6
DASHED
100
AcDbCircle
 10
69.0
 20
67.25
 30
0.0
 40
7.8461774132
100
AcDbArc
 50
239.3493320429
 51
300.6506679571
  0
ARC
  5
164
100
AcDbEntity
  8
3304_1P
390
0
  6
DASHED
100
AcDbCircle
 10
53.0
 20
67.25
 30
0.0
 40
7.8461774132
100
AcDbArc
 50
239.3493320429
 51
300.6506679571
  0
ARC
  5
165
100
AcDbEntity
  8
3304_1P
390
0
  6
DASHED
100
AcDbCircle
 10
61.0
 20
38.75
 30
0.0
 40
7.8461774132
100
AcDbArc
 50
59.3493320429
 51
120.6506679571
  0
ARC
  5
166
100
AcDbEntity
  8
3304_1P
390
0
  6
DASHED
100
AcDbCircle
 10
37.0
 20
67.25
 30
0.0
 40
7.8461774132
100
AcDbArc
 50
239.3493320429
 51
300.6506679571
  0
ARC
  5
167
100
AcDbEntity
  8
3304_1P
390
0
  6
DASHED
100
AcDbCircle
 10
45.0
 20
38.75
 30
0.0
 40
7.8461774132
100
AcDbArc
 50
59.3493320429
 51
120.6506679571
  0
ARC
  5
168
100
AcDbEntity
  8
3304_1P
390
0
  6
DASHED
100
AcDbCircle
 10
49.0
 20
44.75
 30
0.0
 40
16.25
100
AcDbArc
 50
75.7499673022
 51
104.2500326978
  0
ARC
  5
169
100
AcDbEntity
  8
3304_1P
390
0
  6
DASHED
100
AcDbCircle
 10
65.0
 20
44.75
 30
0.0
 40
16.25
100
AcDbArc
 50
75.7499673022
 51
104.2500326978
  0
CIRCLE
  5
16A
100
AcDbEntity
  8
3304_1P
390
0
  6
PHANTOM
100
AcDbCircle
 10
32.0
 20
40.5
 30
0.0
 40
1.0
  0
LINE
  5
16B
100
AcDbEntity
  8
3304_1P
390
0
  6
DASHED
100
AcDbLine
 10
33.0
 20
45.5
 30
0.0
 11
36.0
 21
45.0
 31
0.0
  0
ARC
  5
16C
100
AcDbEntity
  8
3304___ KLOBEN
390
0
  6
DASHDOT
100
AcDbCircle
 10
38.1041666667
 20
51.0
 30
0.0
 40
12.1454045093
100
AcDbArc
 50
120.1715441087
 51
239.8284558913
  0
INSERT
  5
16D
100
AcDbEntity
  8
BEMASSUNG
390
0
100
AcDbBlockReference
  2
D486183168
 10
0.0
 20
0.0
 30
0.0
  0
LINE
  5
16E
100
AcDbEntity
  8
3304_1P
390
0
  6
DIVIDE
100
AcDbLine
 10
72.0
 20
61.0
 30
0.0
 11
78.0
 21
61.0
 31
0.0
  0
LINE
  5
16F
100
AcDbEntity
  8
3304_1P
390
0
  6
DIVIDE
100
AcDbLine
 10
36.0
 20
61.0
 30
0.0
 11
42.0
 21
61.0
 31
0.0
  0
LINE
  5
170
100
AcDbEntity
  8
3304_1P
390
0
100
AcDbLine
 10
42.0
 20
61.0
 30
0.0
 11
72.0
 21
61.0
 31
0.0
  0
ARC
  5
171
100
AcDbEntity
  8
3304_1P
390
0
  6
DASHED
100
AcDbCircle
 10
74.1
 20
53.0
 30
0.0
 40
8.9
100
AcDbArc
 50
295.9892335838
 51
424.0107664162
  0
ARC
  5
172
100
AcDbEntity
  8
3304_1P
390
0
  6
DASHED
100
AcDbCircle
 10
59.625
 20
45.75
 30
0.0
 40
28.1194438956
100
AcDbArc
 50
147.1576503333
 51
190.760469306
  0
INSERT
  5
173
100
AcDbEntity
  8
BEMASSUNG
390
0
100
AcDbBlockReference
  2
D486187776
 10
0.0
 20
0.0
 30
0.0
  0
TEXT
  5
174
100
AcDbEntity
  8
BESCHRIFTUNG
390
0
100
AcDbText
 10
13.0
 20
135.0
 30
0.0
 40
2.5
  1
3304
 41
1.1351453378
  7
Arial
100
AcDbText
  0
TEXT
  5
175
100
AcDbEntity
  8
BESCHRIFTUNG
390
0
100
AcDbText
 10
13.0
 20
71.0
 30
0.0
 40
2.5
  1
3304.1P
 41
1.1350985377
  7
Arial
100
AcDbText
  0
LINE
  5
176
100
AcDbEntity
  8
MITTELLINIEN
390
0
100
AcDbLine
 10
99.0
 20
118.75
 30
0.0
 11
89.0
 21
118.75
 31
0.0
  0
LINE
  5
177
100
AcDbEntity
  8
3304 KLOBEN
390
0
  6
DASHED
100
AcDbLine
 10
92.5
 20
124.0
 30
0.0
 11
92.5
 21
122.0
 31
0.0
  0
LINE
  5
178
100
AcDbEntity
  8
3304 KLOBEN
390
0
100
AcDbLine
 10
91.5
 20
116.0
 30
0.0
 11
91.5
 21
130.0
 31
0.0
  0
LINE
  5
179
100
AcDbEntity
  8
3304 KLOBEN
390
0
100
AcDbLine
 10
96.5
 20
130.0
 30
0.0
 11
96.5
 21
116.0
 31
0.0
  0
LINE
  5
17A
100
AcDbEntity
  8
3304 KLOBEN
390
0
  6
DASHED
100
AcDbLine
 10
96.5
 20
124.0
 30
0.0
 11
92.5
 21
124.0
 31
0.0
  0
LINE
  5
17B
100
AcDbEntity
  8
3304 KLOBEN
390
0
100
AcDbLine
 10
96.5
 20
116.0
 30
0.0
 11
91.5
 21
116.0
 31
0.0
  0
LINE
  5
17C
100
AcDbEntity
  8
3304 KLOBEN
390
0
  6
DASHED
100
AcDbLine
 10
96.5
 20
122.0
 30
0.0
 11
92.5
 21
122.0
 31
0.0
  0
LINE
  5
17D
100
AcDbEntity
  8
3304 KLOBEN
390
0
100
AcDbLine
 10
91.5
 20
130.0
 30
0.0
 11
96.5
 21
130.0
 31
0.0
  0
LINE
  5
17E
100
AcDbEntity
  8
3304 KLOBEN
390
0
  6
DASHED
100
AcDbLine
 10
96.5
 20
117.5
 30
0.0
 11
91.5
 21
117.5
 31
0.0
  0
LINE
  5
17F
100
AcDbEntity
  8
3304 KLOBEN
390
0
  6
DASHED
100
AcDbLine
 10
96.5
 20
120.0
 30
0.0
 11
91.5
 21
120.0
 31
0.0
  0
LINE
  5
180
100
AcDbEntity
  8
MITTELLINIEN
390
0
100
AcDbLine
 10
94.0
 20
132.5
 30
0.0
 11
94.0
 21
121.1614378278
 31
0.0
  0
LINE
  5
181
100
AcDbEntity
  8
3304 KLOBEN
390
0
  6
DIVIDE
100
AcDbLine
 10
92.75
 20
130.0
 30
0.0
 11
92.75
 21
123.6614378278
 31
0.0
  0
LINE
  5
182
100
AcDbEntity
  8
3304 KLOBEN
390
0
  6
DIVIDE
100
AcDbLine
 10
95.25
 20
130.0
 30
0.0
 11
95.25
 21
123.6614378278
 31
0.0
  0
LINE
  5
183
100
AcDbEntity
  8
3304 KLOBEN
390
0
  6
DASHED
100
AcDbLine
 10
81.0
 20
120.75
 30
0.0
 11
101.0
 21
120.75
 31
0.0
  0
LINE
  5
184
100
AcDbEntity
  8
3304 KLOBEN
390
0
  6
HIDDEN
100
AcDbLine
 10
81.0
 20
121.75
 30
0.0
 11
101.0
 21
121.75
 31
0.0
  0
LINE
  5
185
100
AcDbEntity
  8
3304 KLOBEN
390
0
  6
DASHED
100
AcDbLine
 10
81.0
 20
116.75
 30
0.0
 11
101.0
 21
116.75
 31
0.0
  0
LINE
  5
186
100
AcDbEntity
  8
3304 KLOBEN
390
0
  6
HIDDEN
100
AcDbLine
 10
81.0
 20
115.75
 30
0.0
 11
101.0
 21
115.75
 31
0.0
  0
LINE
  5
187
100
AcDbEntity
  8
UNSICHTBARE
390
0
100
AcDbLine
 10
60.0
 20
115.25
 30
0.0
 11
60.5
 21
115.25
 31
0.0
  0
LINE
  5
188
100
AcDbEntity
  8
UNSICHTBARE
390
0
100
AcDbLine
 10
60.0
 20
122.25
 30
0.0
 11
60.0
 21
115.25
 31
0.0
  0
LINE
  5
189
100
AcDbEntity
  8
UNSICHTBARE
390
0
100
AcDbLine
 10
60.5
 20
122.25
 30
0.0
 11
60.0
 21
122.25
 31
0.0
  0
LINE
  5
18A
100
AcDbEntity
  8
UNSICHTBARE
390
0
100
AcDbLine
 10
60.5
 20
115.25
 30
0.0
 11
60.5
 21
122.25
 31
0.0
  0
LINE
  5
18B
100
AcDbEntity
  8
MITTELLINIEN
390
0
100
AcDbLine
 10
61.0
 20
118.75
 30
0.0
 11
59.5
 21
118.75
 31
0.0
  0
LINE
  5
18C
100
AcDbEntity
  8
UNSICHTBARE
390
0
100
AcDbLine
 10
60.0
 20
121.5
 30
0.0
 11
58.1
 21
121.5
 31
0.0
  0
LINE
  5
18D
100
AcDbEntity
  8
UNSICHTBARE
390
0
100
AcDbLine
 10
60.0
 20
116.0
 30
0.0
 11
58.1
 21
116.0
 31
0.0
  0
LINE
  5
18E
100
AcDbEntity
  8
MITTELLINIEN
390
0
100
AcDbLine
 10
53.0
 20
118.75
 30
0.0
 11
73.0
 21
118.75
 31
0.0
  0
LINE
  5
18F
100
AcDbEntity
  8
UNSICHTBARE
390
0
100
AcDbLine
 10
60.0
 20
116.0
 30
0.0
 11
60.0
 21
121.5
 31
0.0
  0
LINE
  5
190
100
AcDbEntity
  8
UNSICHTBARE
390
0
100
AcDbLine
 10
58.0
 20
121.4
 30
0.0
 11
58.0
 21
119.15
 31
0.0
  0
LINE
  5
191
100
AcDbEntity
  8
UNSICHTBARE
390
0
100
AcDbLine
 10
58.0
 20
116.1
 30
0.0
 11
58.0
 21
118.35
 31
0.0
  0
ARC
  5
192
100
AcDbEntity
  8
UNSICHTBARE
390
0
100
AcDbCircle
 10
58.1
 20
121.4
 30
0.0
 40
0.1
100
AcDbArc
 50
90.0
 51
180.0
  0
ARC
  5
193
100
AcDbEntity
  8
UNSICHTBARE
390
0
100
AcDbCircle
 10
58.1
 20
116.1
 30
0.0
 40
0.1
100
AcDbArc
 50
180.0
 51
270.0
  0
LINE
  5
194
100
AcDbEntity
  8
UNSICHTBARE
390
0
100
AcDbLine
 10
58.0
 20
118.35
 30
0.0
 11
58.85
 21
118.35
 31
0.0
  0
LINE
  5
195
100
AcDbEntity
  8
UNSICHTBARE
390
0
100
AcDbLine
 10
58.0
 20
119.15
 30
0.0
 11
58.85
 21
119.15
 31
0.0
  0
LINE
  5
196
100
AcDbEntity
  8
UNSICHTBARE
390
0
100
AcDbLine
 10
58.85
 20
119.15
 30
0.0
 11
58.85
 21
118.35
 31
0.0
  0
LINE
  5
197
100
AcDbEntity
  8
UNSICHTBARE
390
0
100
AcDbLine
 10
60.0
 20
120.25
 30
0.0
 11
67.693265
 21
120.25
 31
0.0
  0
LINE
  5
198
100
AcDbEntity
  8
UNSICHTBARE
390
0
100
AcDbLine
 10
61.5
 20
119.943265
 30
0.0
 11
68.0
 21
119.943265
 31
0.0
  0
LINE
  5
199
100
AcDbEntity
  8
UNSICHTBARE
390
0
100
AcDbLine
 10
61.5
 20
117.556735
 30
0.0
 11
68.0
 21
117.556735
 31
0.0
  0
LINE
  5
19A
100
AcDbEntity
  8
UNSICHTBARE
390
0
100
AcDbLine
 10
60.0
 20
117.25
 30
0.0
 11
67.693265
 21
117.25
 31
0.0
  0
LINE
  5
19B
100
AcDbEntity
  8
UNSICHTBARE
390
0
100
AcDbLine
 10
61.5
 20
120.25
 30
0.0
 11
61.5
 21
117.25
 31
0.0
  0
LINE
  5
19C
100
AcDbEntity
  8
UNSICHTBARE
390
0
100
AcDbLine
 10
68.0
 20
119.943265
 30
0.0
 11
68.0
 21
117.556735
 31
0.0
  0
LINE
  5
19D
100
AcDbEntity
  8
UNSICHTBARE
390
0
100
AcDbLine
 10
67.693265
 20
120.25
 30
0.0
 11
67.693265
 21
117.25
 31
0.0
  0
LINE
  5
19E
100
AcDbEntity
  8
UNSICHTBARE
390
0
100
AcDbLine
 10
67.693265
 20
120.25
 30
0.0
 11
68.0
 21
119.943265
 31
0.0
  0
LINE
  5
19F
100
AcDbEntity
  8
UNSICHTBARE
390
0
100
AcDbLine
 10
67.693265
 20
117.25
 30
0.0
 11
68.0
 21
117.556735
 31
0.0
  0
LINE
  5
1A0
100
AcDbEntity
  8
3304 KLOBEN
390
0
  6
DASHED
100
AcDbLine
 10
83.0
 20
123.75
 30
0.0
 11
98.0
 21
123.75
 31
0.0
  0
LINE
  5
1A1
100
AcDbEntity
  8
3304 KLOBEN
390
0
  6
DASHED
100
AcDbLine
 10
98.0
 20
123.75
 30
0.0
 11
98.0
 21
113.75
 31
0.0
  0
LINE
  5
1A2
100
AcDbEntity
  8
3304 KLOBEN
390
0
  6
DASHED
100
AcDbLine
 10
98.0
 20
113.75
 30
0.0
 11
83.0
 21
113.75
 31
0.0
  0
LINE
  5
1A3
100
AcDbEntity
  8
3304 KLOBEN
390
0
  6
DASHED
100
AcDbLine
 10
83.0
 20
113.75
 30
0.0
 11
83.0
 21
123.75
 31
0.0
  0
LINE
  5
1A4
100
AcDbEntity
  8
3304 KLOBEN
390
0
  6
DASHED
100
AcDbLine
 10
97.0
 20
123.75
 30
0.0
 11
97.0
 21
113.75
 31
0.0
  0
LINE
  5
1A5
100
AcDbEntity
  8
3304 KLOBEN
390
0
  6
DASHED
100
AcDbLine
 10
-41.5
 20
167.0
 30
0.0
 11
-41.5
 21
165.0
 31
0.0
  0
LINE
  5
1A6
100
AcDbEntity
  8
3304 KLOBEN
390
0
100
AcDbLine
 10
-42.5
 20
159.0
 30
0.0
 11
-42.5
 21
173.0
 31
0.0
  0
LINE
  5
1A7
100
AcDbEntity
  8
3304 KLOBEN
390
0
100
AcDbLine
 10
-37.5
 20
173.0
 30
0.0
 11
-37.5
 21
159.0
 31
0.0
  0
LINE
  5
1A8
100
AcDbEntity
  8
3304 KLOBEN
390
0
  6
DASHED
100
AcDbLine
 10
-37.5
 20
167.0
 30
0.0
 11
-41.5
 21
167.0
 31
0.0
  0
LINE
  5
1A9
100
AcDbEntity
  8
3304 KLOBEN
390
0
100
AcDbLine
 10
-37.5
 20
159.0
 30
0.0
 11
-42.5
 21
159.0
 31
0.0
  0
LINE
  5
1AA
100
AcDbEntity
  8
3304 KLOBEN
390
0
  6
DASHED
100
AcDbLine
 10
-37.5
 20
165.0
 30
0.0
 11
-41.5
 21
165.0
 31
0.0
  0
LINE
  5
1AB
100
AcDbEntity
  8
3304 KLOBEN
390
0
100
AcDbLine
 10
-42.5
 20
173.0
 30
0.0
 11
-37.5
 21
173.0
 31
0.0
  0
LINE
  5
1AC
100
AcDbEntity
  8
3304 KLOBEN
390
0
  6
DASHED
100
AcDbLine
 10
-37.5
 20
160.5
 30
0.0
 11
-42.5
 21
160.5
 31
0.0
  0
LINE
  5
1AD
100
AcDbEntity
  8
3304 KLOBEN
390
0
  6
DASHED
100
AcDbLine
 10
-37.5
 20
163.0
 30
0.0
 11
-42.5
 21
163.0
 31
0.0
  0
LINE
  5
1AE
100
AcDbEntity
  8
3304 KLOBEN
390
0
  6
DIVIDE
100
AcDbLine
 10
-41.25
 20
173.0
 30
0.0
 11
-41.25
 21
166.6614378278
 31
0.0
  0
LINE
  5
1AF
100
AcDbEntity
  8
3304 KLOBEN
390
0
  6
DIVIDE
100
AcDbLine
 10
-38.75
 20
173.0
 30
0.0
 11
-38.75
 21
166.6614378278
 31
0.0
  0
LINE
  5
1B0
100
AcDbEntity
  8
3304 KLOBEN
390
0
  6
DASHED
100
AcDbLine
 10
-37.0
 20
166.75
 30
0.0
 11
-37.0
 21
156.75
 31
0.0
  0
LINE
  5
1B1
100
AcDbEntity
  8
3304 KLOBEN
390
0
  6
DASHED
100
AcDbLine
 10
-53.0
 20
163.75
 30
0.0
 11
-33.0
 21
163.75
 31
0.0
  0
LINE
  5
1B2
100
AcDbEntity
  8
3304 KLOBEN
390
0
  6
DASHED
100
AcDbLine
 10
-51.0
 20
156.75
 30
0.0
 11
-51.0
 21
166.75
 31
0.0
  0
LINE
  5
1B3
100
AcDbEntity
  8
3304 KLOBEN
390
0
  6
HIDDEN
100
AcDbLine
 10
-53.0
 20
158.75
 30
0.0
 11
-33.0
 21
158.75
 31
0.0
  0
LINE
  5
1B4
100
AcDbEntity
  8
3304 KLOBEN
390
0
  6
DASHED
100
AcDbLine
 10
-53.0
 20
159.75
 30
0.0
 11
-33.0
 21
159.75
 31
0.0
  0
LINE
  5
1B5
100
AcDbEntity
  8
3304 KLOBEN
390
0
  6
DASHED
100
AcDbLine
 10
-51.0
 20
166.75
 30
0.0
 11
-36.0
 21
166.75
 31
0.0
  0
LINE
  5
1B6
100
AcDbEntity
  8
3304 KLOBEN
390
0
  6
DASHED
100
AcDbLine
 10
-36.0
 20
166.75
 30
0.0
 11
-36.0
 21
156.75
 31
0.0
  0
LINE
  5
1B7
100
AcDbEntity
  8
3304 KLOBEN
390
0
  6
DASHED
100
AcDbLine
 10
-36.0
 20
156.75
 30
0.0
 11
-51.0
 21
156.75
 31
0.0
  0
LINE
  5
1B8
100
AcDbEntity
  8
3304 KLOBEN
390
0
  6
HIDDEN
100
AcDbLine
 10
-53.0
 20
164.75
 30
0.0
 11
-33.0
 21
164.75
 31
0.0
  0
LINE
  5
1B9
100
AcDbEntity
  8
MITTELLINIEN
390
0
100
AcDbLine
 10
-35.0
 20
161.75
 30
0.0
 11
-45.0
 21
161.75
 31
0.0
  0
LINE
  5
1BA
100
AcDbEntity
  8
MITTELLINIEN
390
0
100
AcDbLine
 10
-40.0
 20
175.5
 30
0.0
 11
-40.0
 21
164.1614378278
 31
0.0
  0
CIRCLE
  5
1BB
100
AcDbEntity
  8
3304 KLOBEN
390
0
100
AcDbCircle
 10
-103.0
 20
161.75
 30
0.0
 40
1.25
  0
ARC
  5
1BC
100
AcDbEntity
  8
3304 KLOBEN
390
0
100
AcDbCircle
 10
-103.5
 20
166.0
 30
0.0
 40
1.0
100
AcDbArc
 50
90.0
 51
270.0
  0
ARC
  5
1BD
100
AcDbEntity
  8
3304 KLOBEN
390
0
100
AcDbCircle
 10
-102.5
 20
166.0
 30
0.0
 40
1.0
100
AcDbArc
 50
270.0
 51
450.0
  0
ARC
  5
1BE
100
AcDbEntity
  8
3304 KLOBEN
390
0
100
AcDbCircle
 10
-103.0
 20
173.5
 30
0.0
 40
1.0
100
AcDbArc
 50
210.0
 51
330.0
  0
LINE
  5
1BF
100
AcDbEntity
  8
3304 KLOBEN
390
0
100
AcDbLine
 10
-106.0
 20
159.0
 30
0.0
 11
-100.0
 21
159.0
 31
0.0
  0
LINE
  5
1C0
100
AcDbEntity
  8
3304 KLOBEN
390
0
100
AcDbLine
 10
-100.0
 20
159.0
 30
0.0
 11
-100.0
 21
173.0
 31
0.0
  0
LINE
  5
1C1
100
AcDbEntity
  8
3304 KLOBEN
390
0
100
AcDbLine
 10
-100.0
 20
173.0
 30
0.0
 11
-102.1339745962
 21
173.0
 31
0.0
  0
LINE
  5
1C2
100
AcDbEntity
  8
3304 KLOBEN
390
0
100
AcDbLine
 10
-106.0
 20
173.0
 30
0.0
 11
-106.0
 21
159.0
 31
0.0
  0
LINE
  5
1C3
100
AcDbEntity
  8
3304 KLOBEN
390
0
100
AcDbLine
 10
-103.8660254038
 20
173.0
 30
0.0
 11
-106.0
 21
173.0
 31
0.0
  0
LINE
  5
1C4
100
AcDbEntity
  8
3304 KLOBEN
390
0
100
AcDbLine
 10
-103.5
 20
167.0
 30
0.0
 11
-102.5
 21
167.0
 31
0.0
  0
LINE
  5
1C5
100
AcDbEntity
  8
3304 KLOBEN
390
0
100
AcDbLine
 10
-102.5
 20
165.0
 30
0.0
 11
-103.5
 21
165.0
 31
0.0
  0
LINE
  5
1C6
100
AcDbEntity
  8
MITTELLINIEN
390
0
100
AcDbLine
 10
-103.0
 20
158.0
 30
0.0
 11
-103.0
 21
165.5
 31
0.0
  0
LINE
  5
1C7
100
AcDbEntity
  8
MITTELLINIEN
390
0
100
AcDbLine
 10
-106.75
 20
161.75
 30
0.0
 11
-99.25
 21
161.75
 31
0.0
  0
CIRCLE
  5
1C8
100
AcDbEntity
  8
3304 KLOBEN
390
0
  6
HIDDEN
100
AcDbCircle
 10
-67.5
 20
161.75
 30
0.0
 40
3.0
  0
CIRCLE
  5
1C9
100
AcDbEntity
  8
3304 KLOBEN
390
0
  6
HIDDEN
100
AcDbCircle
 10
-67.5
 20
161.75
 30
0.0
 40
2.0
  0
ARC
  5
1CA
100
AcDbEntity
  8
3304 KLOBEN
390
0
100
AcDbCircle
 10
-59.0
 20
166.0
 30
0.0
 40
1.0
100
AcDbArc
 50
90.0
 51
270.0
  0
ARC
  5
1CB
100
AcDbEntity
  8
3304 KLOBEN
390
0
100
AcDbCircle
 10
-58.0
 20
166.0
 30
0.0
 40
1.0
100
AcDbArc
 50
270.0
 51
450.0
  0
ARC
  5
1CC
100
AcDbEntity
  8
3304 KLOBEN
390
0
100
AcDbCircle
 10
-58.5
 20
173.5
 30
0.0
 40
1.0
100
AcDbArc
 50
210.0
 51
330.0
  0
CIRCLE
  5
1CD
100
AcDbEntity
  8
3304 KLOBEN
390
0
100
AcDbCircle
 10
-58.5
 20
161.75
 30
0.0
 40
1.25
  0
ARC
  5
1CE
100
AcDbEntity
  8
3304 KLOBEN
390
0
  6
DASHED
100
AcDbCircle
 10
-66.8088594219
 20
170.0581499208
 30
0.0
 40
1.0
100
AcDbArc
 50
255.0024463739
 51
375.0024463739
  0
LINE
  5
1CF
100
AcDbEntity
  8
3304 KLOBEN
390
0
  6
HIDDEN
100
AcDbLine
 10
-71.5
 20
166.75
 30
0.0
 11
-56.5
 21
166.75
 31
0.0
  0
LINE
  5
1D0
100
AcDbEntity
  8
3304 KLOBEN
390
0
  6
HIDDEN
100
AcDbLine
 10
-56.5
 20
166.75
 30
0.0
 11
-56.5
 21
156.75
 31
0.0
  0
LINE
  5
1D1
100
AcDbEntity
  8
3304 KLOBEN
390
0
  6
HIDDEN
100
AcDbLine
 10
-56.5
 20
156.75
 30
0.0
 11
-71.5
 21
156.75
 31
0.0
  0
LINE
  5
1D2
100
AcDbEntity
  8
3304 KLOBEN
390
0
  6
HIDDEN
100
AcDbLine
 10
-71.5
 20
156.75
 30
0.0
 11
-71.5
 21
166.75
 31
0.0
  0
LINE
  5
1D3
100
AcDbEntity
  8
3304 KLOBEN
390
0
  6
HIDDEN
100
AcDbLine
 10
-70.5
 20
166.75
 30
0.0
 11
-70.5
 21
156.75
 31
0.0
  0
LINE
  5
1D4
100
AcDbEntity
  8
3304 KLOBEN
390
0
100
AcDbLine
 10
-59.0
 20
167.0
 30
0.0
 11
-58.0
 21
167.0
 31
0.0
  0
LINE
  5
1D5
100
AcDbEntity
  8
3304 KLOBEN
390
0
100
AcDbLine
 10
-59.3660254038
 20
173.0
 30
0.0
 11
-61.5
 21
173.0
 31
0.0
  0
LINE
  5
1D6
100
AcDbEntity
  8
3304 KLOBEN
390
0
  6
DIVIDE
100
AcDbLine
 10
-59.75
 20
173.0
 30
0.0
 11
-59.75
 21
166.6614378278
 31
0.0
  0
LINE
  5
1D7
100
AcDbEntity
  8
3304 KLOBEN
390
0
  6
DIVIDE
100
AcDbLine
 10
-57.25
 20
173.0
 30
0.0
 11
-57.25
 21
166.6614378278
 31
0.0
  0
LINE
  5
1D8
100
AcDbEntity
  8
3304 KLOBEN
390
0
100
AcDbLine
 10
-58.0
 20
165.0
 30
0.0
 11
-59.0
 21
165.0
 31
0.0
  0
LINE
  5
1D9
100
AcDbEntity
  8
3304 KLOBEN
390
0
100
AcDbLine
 10
-61.5
 20
159.0
 30
0.0
 11
-55.5
 21
159.0
 31
0.0
  0
LINE
  5
1DA
100
AcDbEntity
  8
3304 KLOBEN
390
0
100
AcDbLine
 10
-55.5
 20
173.0
 30
0.0
 11
-57.6339745962
 21
173.0
 31
0.0
  0
LINE
  5
1DB
100
AcDbEntity
  8
3304 KLOBEN
390
0
100
AcDbLine
 10
-55.5
 20
159.0
 30
0.0
 11
-55.5
 21
173.0
 31
0.0
  0
LINE
  5
1DC
100
AcDbEntity
  8
3304 KLOBEN
390
0
100
AcDbLine
 10
-61.5
 20
173.0
 30
0.0
 11
-61.5
 21
159.0
 31
0.0
  0
LINE
  5
1DD
100
AcDbEntity
  8
3304 KLOBEN
390
0
  6
DASHED
100
AcDbLine
 10
-67.0676372244
 20
169.0922130445
 30
0.0
 11
-68.5765207029
 21
167.5832007101
 31
0.0
  0
LINE
  5
1DE
100
AcDbEntity
  8
3304 KLOBEN
390
0
  6
DASHED
100
AcDbLine
 10
-64.3340611689
 20
171.8260225426
 30
0.0
 11
-65.8429446474
 21
170.3170102081
 31
0.0
  0
LINE
  5
1DF
100
AcDbEntity
  8
3304 KLOBEN
390
0
  6
DASHED
100
AcDbLine
 10
-54.4341435598
 20
161.9269502965
 30
0.0
 11
-64.3340611689
 21
171.8260225426
 31
0.0
  0
LINE
  5
1E0
100
AcDbEntity
  8
3304 KLOBEN
390
0
  6
DASHED
100
AcDbLine
 10
-68.5765207029
 20
167.5832007101
 30
0.0
 11
-58.6766030938
 21
157.684128464
 31
0.0
  0
LINE
  5
1E1
100
AcDbEntity
  8
3304 KLOBEN
390
0
  6
DASHED
100
AcDbLine
 10
-58.6766030938
 20
157.684128464
 30
0.0
 11
-54.4341435598
 21
161.9269502965
 31
0.0
  0
INSERT
  5
1E2
100
AcDbEntity
  8
BEMASSUNG
390
0
100
AcDbBlockReference
  2
D486181376
 10
0.0
 20
0.0
 30
0.0
  0
LINE
  5
1E3
100
AcDbEntity
  8
MITTELLINIEN
390
0
100
AcDbLine
 10
-67.5
 20
156.25
 30
0.0
 11
-67.5
 21
167.25
 31
0.0
  0
LINE
  5
1E4
100
AcDbEntity
  8
MITTELLINIEN
390
0
100
AcDbLine
 10
-73.0
 20
161.75
 30
0.0
 11
-62.0
 21
161.75
 31
0.0
  0
LINE
  5
1E5
100
AcDbEntity
  8
UNSICHTBARE
390
0
100
AcDbLine
 10
-72.0
 20
164.5
 30
0.0
 11
-73.9
 21
164.5
 31
0.0
  0
LINE
  5
1E6
100
AcDbEntity
  8
UNSICHTBARE
390
0
100
AcDbLine
 10
-72.0
 20
159.0
 30
0.0
 11
-73.9
 21
159.0
 31
0.0
  0
LINE
  5
1E7
100
AcDbEntity
  8
MITTELLINIEN
390
0
100
AcDbLine
 10
-79.0
 20
161.75
 30
0.0
 11
-59.0
 21
161.75
 31
0.0
  0
LINE
  5
1E8
100
AcDbEntity
  8
UNSICHTBARE
390
0
100
AcDbLine
 10
-72.0
 20
159.0
 30
0.0
 11
-72.0
 21
164.5
 31
0.0
  0
LINE
  5
1E9
100
AcDbEntity
  8
UNSICHTBARE
390
0
100
AcDbLine
 10
-74.0
 20
164.4
 30
0.0
 11
-74.0
 21
162.15
 31
0.0
  0
LINE
  5
1EA
100
AcDbEntity
  8
UNSICHTBARE
390
0
100
AcDbLine
 10
-74.0
 20
159.1
 30
0.0
 11
-74.0
 21
161.35
 31
0.0
  0
ARC
  5
1EB
100
AcDbEntity
  8
UNSICHTBARE
390
0
100
AcDbCircle
 10
-73.9
 20
164.4
 30
0.0
 40
0.1
100
AcDbArc
 50
90.0
 51
180.0
  0
ARC
  5
1EC
100
AcDbEntity
  8
UNSICHTBARE
390
0
100
AcDbCircle
 10
-73.9
 20
159.1
 30
0.0
 40
0.1
100
AcDbArc
 50
180.0
 51
270.0
  0
LINE
  5
1ED
100
AcDbEntity
  8
UNSICHTBARE
390
0
100
AcDbLine
 10
-74.0
 20
161.35
 30
0.0
 11
-73.15
 21
161.35
 31
0.0
  0
LINE
  5
1EE
100
AcDbEntity
  8
UNSICHTBARE
390
0
100
AcDbLine
 10
-74.0
 20
162.15
 30
0.0
 11
-73.15
 21
162.15
 31
0.0
  0
LINE
  5
1EF
100
AcDbEntity
  8
UNSICHTBARE
390
0
100
AcDbLine
 10
-73.15
 20
162.15
 30
0.0
 11
-73.15
 21
161.35
 31
0.0
  0
LINE
  5
1F0
100
AcDbEntity
  8
UNSICHTBARE
390
0
100
AcDbLine
 10
-72.0
 20
163.25
 30
0.0
 11
-64.306735
 21
163.25
 31
0.0
  0
LINE
  5
1F1
100
AcDbEntity
  8
UNSICHTBARE
390
0
100
AcDbLine
 10
-70.5
 20
162.943265
 30
0.0
 11
-64.0
 21
162.943265
 31
0.0
  0
LINE
  5
1F2
100
AcDbEntity
  8
UNSICHTBARE
390
0
100
AcDbLine
 10
-70.5
 20
160.556735
 30
0.0
 11
-64.0
 21
160.556735
 31
0.0
  0
LINE
  5
1F3
100
AcDbEntity
  8
UNSICHTBARE
390
0
100
AcDbLine
 10
-72.0
 20
160.25
 30
0.0
 11
-64.306735
 21
160.25
 31
0.0
  0
LINE
  5
1F4
100
AcDbEntity
  8
UNSICHTBARE
390
0
100
AcDbLine
 10
-70.5
 20
163.25
 30
0.0
 11
-70.5
 21
160.25
 31
0.0
  0
LINE
  5
1F5
100
AcDbEntity
  8
UNSICHTBARE
390
0
100
AcDbLine
 10
-64.0
 20
162.943265
 30
0.0
 11
-64.0
 21
160.556735
 31
0.0
  0
LINE
  5
1F6
100
AcDbEntity
  8
UNSICHTBARE
390
0
100
AcDbLine
 10
-64.306735
 20
163.25
 30
0.0
 11
-64.306735
 21
160.25
 31
0.0
  0
LINE
  5
1F7
100
AcDbEntity
  8
UNSICHTBARE
390
0
100
AcDbLine
 10
-64.306735
 20
163.25
 30
0.0
 11
-64.0
 21
162.943265
 31
0.0
  0
LINE
  5
1F8
100
AcDbEntity
  8
UNSICHTBARE
390
0
100
AcDbLine
 10
-64.306735
 20
160.25
 30
0.0
 11
-64.0
 21
160.556735
 31
0.0
  0
LINE
  5
1F9
100
AcDbEntity
  8
UNSICHTBARE
390
0
100
AcDbLine
 10
-72.0
 20
158.25
 30
0.0
 11
-71.5
 21
158.25
 31
0.0
  0
LINE
  5
1FA
100
AcDbEntity
  8
UNSICHTBARE
390
0
100
AcDbLine
 10
-72.0
 20
165.25
 30
0.0
 11
-72.0
 21
158.25
 31
0.0
  0
LINE
  5
1FB
100
AcDbEntity
  8
UNSICHTBARE
390
0
100
AcDbLine
 10
-71.5
 20
165.25
 30
0.0
 11
-72.0
 21
165.25
 31
0.0
  0
LINE
  5
1FC
100
AcDbEntity
  8
UNSICHTBARE
390
0
100
AcDbLine
 10
-71.5
 20
158.25
 30
0.0
 11
-71.5
 21
165.25
 31
0.0
  0
LINE
  5
1FD
100
AcDbEntity
  8
MITTELLINIEN
390
0
100
AcDbLine
 10
-71.0
 20
161.75
 30
0.0
 11
-72.5
 21
161.75
 31
0.0
  0
LINE
  5
1FE
100
AcDbEntity
  8
3304 KLOBEN
390
0
  6
DIVIDE
100
AcDbLine
 10
-90.75
 20
173.0
 30
0.0
 11
-90.75
 21
166.6614378278
 31
0.0
  0
LINE
  5
1FF
100
AcDbEntity
  8
3304 KLOBEN
390
0
  6
DIVIDE
100
AcDbLine
 10
-88.25
 20
173.0
 30
0.0
 11
-88.25
 21
166.6614378278
 31
0.0
  0
LINE
  5
200
100
AcDbEntity
  8
3304 KLOBEN
390
0
100
AcDbLine
 10
-87.0
 20
159.0
 30
0.0
 11
-92.0
 21
159.0
 31
0.0
  0
LINE
  5
201
100
AcDbEntity
  8
3304 KLOBEN
390
0
100
AcDbLine
 10
-92.0
 20
159.0
 30
0.0
 11
-92.0
 21
173.0
 31
0.0
  0
LINE
  5
202
100
AcDbEntity
  8
3304 KLOBEN
390
0
100
AcDbLine
 10
-92.0
 20
173.0
 30
0.0
 11
-87.0
 21
173.0
 31
0.0
  0
LINE
  5
203
100
AcDbEntity
  8
3304 KLOBEN
390
0
100
AcDbLine
 10
-87.0
 20
173.0
 30
0.0
 11
-87.0
 21
159.0
 31
0.0
  0
LINE
  5
204
100
AcDbEntity
  8
3304 KLOBEN
390
0
  6
DASHED
100
AcDbLine
 10
-87.0
 20
167.0
 30
0.0
 11
-91.0
 21
167.0
 31
0.0
  0
LINE
  5
205
100
AcDbEntity
  8
3304 KLOBEN
390
0
  6
DASHED
100
AcDbLine
 10
-87.0
 20
165.0
 30
0.0
 11
-91.0
 21
165.0
 31
0.0
  0
LINE
  5
206
100
AcDbEntity
  8
3304 KLOBEN
390
0
  6
DASHED
100
AcDbLine
 10
-87.0
 20
163.0
 30
0.0
 11
-92.0
 21
163.0
 31
0.0
  0
LINE
  5
207
100
AcDbEntity
  8
3304 KLOBEN
390
0
  6
DASHED
100
AcDbLine
 10
-87.0
 20
160.5
 30
0.0
 11
-92.0
 21
160.5
 31
0.0
  0
LINE
  5
208
100
AcDbEntity
  8
3304 KLOBEN
390
0
  6
DASHED
100
AcDbLine
 10
-91.0
 20
167.0
 30
0.0
 11
-91.0
 21
165.0
 31
0.0
  0
LINE
  5
209
100
AcDbEntity
  8
MITTELLINIEN
390
0
100
AcDbLine
 10
-84.5
 20
161.75
 30
0.0
 11
-94.5
 21
161.75
 31
0.0
  0
LINE
  5
20A
100
AcDbEntity
  8
MITTELLINIEN
390
0
100
AcDbLine
 10
-89.5
 20
175.5
 30
0.0
 11
-89.5
 21
164.1614378278
 31
0.0
  0
LINE
  5
20B
100
AcDbEntity
  8
STANDARD
390
0
100
AcDbLine
 10
5.0
 20
2.5
 30
0.0
 11
5.0
 21
146.0
 31
0.0
  0
LINE
  5
20C
100
AcDbEntity
  8
STANDARD
390
0
100
AcDbLine
 10
7.5
 20
143.5
 30
0.0
 11
102.5
 21
143.5
 31
0.0
  0
LINE
  5
20D
100
AcDbEntity
  8
STANDARD
390
0
100
AcDbLine
 10
5.0
 20
146.0
 30
0.0
 11
7.5
 21
146.0
 31
0.0
  0
LINE
  5
20E
100
AcDbEntity
  8
STANDARD
390
0
100
AcDbLine
 10
5.0
 20
2.5
 30
0.0
 11
7.5
 21
2.5
 31
0.0
  0
LINE
  5
20F
100
AcDbEntity
  8
STANDARD
390
0
100
AcDbLine
 10
5.0
 20
122.0833333333
 30
0.0
 11
7.5
 21
122.0833333333
 31
0.0
  0
LINE
  5
210
100
AcDbEntity
  8
STANDARD
390
0
100
AcDbLine
 10
5.0
 20
98.1666666667
 30
0.0
 11
7.5
 21
98.1666666667
 31
0.0
  0
LINE
  5
211
100
AcDbEntity
  8
STANDARD
390
0
100
AcDbLine
 10
5.0
 20
74.25
 30
0.0
 11
7.5
 21
74.25
 31
0.0
  0
LINE
  5
212
100
AcDbEntity
  8
STANDARD
390
0
100
AcDbLine
 10
5.0
 20
50.3333333333
 30
0.0
 11
7.5
 21
50.3333333333
 31
0.0
  0
LINE
  5
213
100
AcDbEntity
  8
STANDARD
390
0
100
AcDbLine
 10
5.0
 20
26.4166666667
 30
0.0
 11
7.5
 21
26.4166666667
 31
0.0
  0
LINE
  5
214
100
AcDbEntity
  8
STANDARD
390
0
100
AcDbLine
 10
78.75
 20
146.0
 30
0.0
 11
78.75
 21
143.5
 31
0.0
  0
LINE
  5
215
100
AcDbEntity
  8
STANDARD
390
0
100
AcDbLine
 10
55.0
 20
146.0
 30
0.0
 11
55.0
 21
143.5
 31
0.0
  0
LINE
  5
216
100
AcDbEntity
  8
STANDARD
390
0
100
AcDbLine
 10
31.25
 20
146.0
 30
0.0
 11
31.25
 21
143.5
 31
0.0
  0
TEXT
  5
217
100
AcDbEntity
  8
STANDARD
390
0
100
AcDbText
 10
5.4745539346
 20
133.9320780639
 30
0.0
 40
1.115625
  1
A
 41
1.547986837
  7
Arial
 72
         1
 11
6.3380403421
 21
135.0477030639
 31
0.0
100
AcDbText
 73
         3
  0
TEXT
  5
218
100
AcDbEntity
  8
STANDARD
390
0
100
AcDbText
 10
5.4745537121
 20
110.0154113973
 30
0.0
 40
1.115625
  1
B
 41
1.5479872357
  7
Arial
 72
         1
 11
6.3380403421
 21
111.1310363973
 31
0.0
100
AcDbText
 73
         3
  0
TEXT
  5
219
100
AcDbEntity
  8
STANDARD
390
0
100
AcDbText
 10
5.4744889797
 20
86.0987447306
 30
0.0
 40
1.115625
  1
C
 41
1.5481032827
  7
Arial
 72
         1
 11
6.3380403421
 21
87.2143697306
 31
0.0
100
AcDbText
 73
         3
  0
TEXT
  5
21A
100
AcDbEntity
  8
STANDARD
390
0
100
AcDbText
 10
5.4744885517
 20
62.1820780639
 30
0.0
 40
1.115625
  1
D
 41
1.54810405
  7
Arial
 72
         1
 11
6.3380403421
 21
63.2977030639
 31
0.0
100
AcDbText
 73
         3
  0
TEXT
  5
21B
100
AcDbEntity
  8
STANDARD
390
0
100
AcDbText
 10
5.4745538048
 20
38.2654113973
 30
0.0
 40
1.115625
  1
E
 41
1.5479870696
  7
Arial
 72
         1
 11
6.3380403421
 21
39.3810363973
 31
0.0
100
AcDbText
 73
         3
  0
TEXT
  5
21C
100
AcDbEntity
  8
STANDARD
390
0
100
AcDbText
 10
5.4746753306
 20
14.3487447306
 30
0.0
 40
1.115625
  1
F
 41
1.5477692083
  7
Arial
 72
         1
 11
6.3380403421
 21
15.4643697306
 31
0.0
100
AcDbText
 73
         3
  0
TEXT
  5
21D
100
AcDbEntity
  8
STANDARD
390
0
100
AcDbText
 10
18.3524120724
 20
144.24299677
 30
0.0
 40
1.115625
  1
1
 41
1.5479225906
  7
Arial
 72
         1
 11
19.0
 21
145.35862177
 31
0.0
100
AcDbText
 73
         3
  0
TEXT
  5
21E
100
AcDbEntity
  8
STANDARD
390
0
100
AcDbText
 10
41.8865499856
 20
144.24299677
 30
0.0
 40
1.115625
  1
2
 41
1.5479215945
  7
Arial
 72
         1
 11
42.75
 21
145.35862177
 31
0.0
100
AcDbText
 73
         3
  0
TEXT
  5
21F
100
AcDbEntity
  8
STANDARD
390
0
100
AcDbText
 10
65.6365493188
 20
144.24299677
 30
0.0
 40
1.115625
  1
3
 41
1.5479227899
  7
Arial
 72
         1
 11
66.5
 21
145.35862177
 31
0.0
100
AcDbText
 73
         3
  0
TEXT
  5
220
100
AcDbEntity
  8
STANDARD
390
0
100
AcDbText
 10
89.3865494299
 20
144.24299677
 30
0.0
 40
1.115625
  1
4
 41
1.5479225906
  7
Arial
 72
         1
 11
90.25
 21
145.35862177
 31
0.0
100
AcDbText
 73
         3
  0
LINE
  5
221
100
AcDbEntity
  8
STANDARD
390
0
100
AcDbLine
 10
102.5
 20
146.0
 30
0.0
 11
102.5
 21
143.5
 31
0.0
  0
LINE
  5
222
100
AcDbEntity
  8
STANDARD
390
0
100
AcDbLine
 10
102.5
 20
2.5
 30
0.0
 11
7.5
 21
2.5
 31
0.0
  0
LINE
  5
223
100
AcDbEntity
  8
STANDARD
390
0
100
AcDbLine
 10
7.5
 20
2.5
 30
0.0
 11
7.5
 21
143.5
 31
0.0
  0
LINE
  5
224
100
AcDbEntity
  8
STANDARD
390
0
100
AcDbLine
 10
7.5
 20
146.0
 30
0.0
 11
102.5
 21
146.0
 31
0.0
  0
LINE
  5
225
100
AcDbEntity
  8
STANDARD
390
0
100
AcDbLine
 10
0.5
 20
0.5
 30
0.0
 11
0.5
 21
148.0
 31
0.0
  0
LINE
  5
226
100
AcDbEntity
  8
STANDARD
390
0
100
AcDbLine
 10
104.5
 20
0.5
 30
0.0
 11
0.5
 21
0.5
 31
0.0
  0
LINE
  5
227
100
AcDbEntity
  8
STANDARD
390
0
100
AcDbLine
 10
104.5
 20
148.0
 30
0.0
 11
104.5
 21
0.5
 31
0.0
  0
LINE
  5
228
100
AcDbEntity
  8
STANDARD
390
0
100
AcDbLine
 10
0.5
 20
148.0
 30
0.0
 11
104.5
 21
148.0
 31
0.0
  0
LINE
  5
229
100
AcDbEntity
  8
STANDARD
390
0
100
AcDbLine
 10
7.5
 20
143.5
 30
0.0
 11
7.5
 21
146.0
 31
0.0
  0
LINE
  5
22A
100
AcDbEntity
  8
STANDARD
390
0
100
AcDbLine
 10
102.5
 20
143.5
 30
0.0
 11
102.5
 21
2.5
 31
0.0
  0
MTEXT
  5
22B
100
AcDbEntity
  8
STANDARD
390
0
100
AcDbMText
 10
101.8031646402
 20
40.711138633
 30
0.0
 40
0.796875
 41
0.0
 71
         1
 72
         1
  1

  7
Arial
 11
0.0
 21
-1.0
 31
0.0
 73
         1
 44
1.0352941176
  0
MTEXT
  5
22C
100
AcDbEntity
  8
STANDARD
390
0
100
AcDbMText
 10
58.3484384627
 20
13.7935571533
 30
0.0
 40
0.796875
 41
0.0
 71
         1
 72
         1
  1

  7
Arial
 11
0.0
 21
-1.0
 31
0.0
 73
         1
 44
1.0352941176
  0
MTEXT
  5
22D
100
AcDbEntity
  8
STANDARD
390
0
100
AcDbMText
 10
101.8031646402
 20
62.8780474249
 30
0.0
 40
0.796875
 41
0.0
 71
         1
 72
         1
  1

  7
Arial
 11
0.0
 21
-1.0
 31
0.0
 73
         1
 44
1.0352941176
  0
LINE
  5
22E
100
AcDbEntity
  8
STANDARD
390
0
100
AcDbLine
 10
102.5
 20
91.0575498575
 30
0.0
 11
102.5
 21
2.5618233618
 31
0.0
  0
LINE
  5
22F
100
AcDbEntity
  8
STANDARD
370
         0
390
0
100
AcDbLine
 10
63.652991453
 20
17.2
 30
0.0
 11
63.652991453
 21
2.5
 31
0.0
  0
LINE
  5
230
100
AcDbEntity
  8
STANDARD
370
         0
390
0
100
AcDbLine
 10
40.552991453
 20
17.2
 30
0.0
 11
102.5
 21
17.2
 31
0.0
  0
LINE
  5
231
100
AcDbEntity
  8
STANDARD
370
         0
390
0
100
AcDbLine
 10
40.552991453
 20
13.7
 30
0.0
 11
102.5
 21
13.7
 31
0.0
  0
LINE
  5
232
100
AcDbEntity
  8
STANDARD
370
         0
390
0
100
AcDbLine
 10
40.552991453
 20
6.0
 30
0.0
 11
102.5
 21
6.0
 31
0.0
  0
LINE
  5
233
100
AcDbEntity
  8
STANDARD
370
         0
390
0
100
AcDbLine
 10
40.552991453
 20
17.2
 30
0.0
 11
40.552991453
 21
2.5
 31
0.0
  0
LINE
  5
234
100
AcDbEntity
  8
STANDARD
370
         0
390
0
100
AcDbLine
 10
82.552991453
 20
17.2
 30
0.0
 11
82.552991453
 21
13.7
 31
0.0
  0
TEXT
  5
235
100
AcDbEntity
  8
BESCHRIFTUNG
390
0
100
AcDbText
 10
41.1005430199
 20
14.5693
 30
0.0
 40
1.65
  1
Stellwerk HMM
 41
1.3758039542
 51
15.0
  7
Arial
 11
41.1005430199
 21
16.2193
 31
0.0
100
AcDbText
 73
         3
  0
TEXT
  5
236
100
AcDbEntity
  8
BESCHRIFTUNG
390
0
100
AcDbText
 10
64.3105207977
 20
10.8300555556
 30
0.0
 40
1.65
  1
Kloben
 41
1.1301990728
 51
15.0
  7
Arial
 11
64.3105207977
 21
12.4800555556
 31
0.0
100
AcDbText
 73
         3
  0
TEXT
  5
237
100
AcDbEntity
  8
BESCHRIFTUNG
390
0
100
AcDbText
 10
41.1005430199
 20
3.4615444444
 30
0.0
 40
1.65
  1
Dateiname
 41
1.1437088374
 51
15.0
  7
Arial
 11
41.1005430199
 21
5.1115444444
 31
0.0
100
AcDbText
 73
         3
  0
TEXT
  5
238
100
AcDbEntity
  8
BESCHRIFTUNG
390
0
100
AcDbText
 10
41.2105207977
 20
10.8300555556
 30
0.0
 40
1.65
  1
Bl. 3304 KPv
 41
1.1437026121
 51
15.0
  7
Arial
 11
41.2105207977
 21
12.4800555556
 31
0.0
100
AcDbText
 73
         3
  0
TEXT
  5
239
100
AcDbEntity
  8
BESCHRIFTUNG
390
0
100
AcDbText
 10
83.1005430199
 20
14.5693
 30
0.0
 40
1.65
  1
Maßstab 2:1
 41
1.1437191386
 51
15.0
  7
Arial
 11
83.1005430199
 21
16.2193
 31
0.0
100
AcDbText
 73
         3
  0
ENDSEC
  0
SECTION
  2
OBJECTS
  0
DICTIONARY
  5
19
100
AcDbDictionary
280
         0
281
         1
  3
ACAD_GROUP
350
1A
  3
ACAD_MLINESTYLE
350
1B
  3
ACAD_LAYOUT
350
1E
  3
ACAD_PLOTSETTINGS
350
22
  3
ACAD_PLOTSTYLENAME
350
1F
  3
ACAD_WIPEOUT_VARS
350
23
  0
DICTIONARY
  5
1A
102
{ACAD_REACTORS
330
19
102
}
100
AcDbDictionary
280
         0
281
         1
  0
DICTIONARY
  5
1B
102
{ACAD_REACTORS
330
19
102
}
100
AcDbDictionary
280
         0
281
         1
  3
Standard
350
1C
  0
MLINESTYLE
  5
1C
102
{ACAD_REACTORS
330
1B
102
}
100
AcDbMlineStyle
  2
Standard
 70
         0
  3

 62
         0
 51
90.0
 52
90.0
 71
         2
 49
0.5
 62
       256
  6
ByLayer
 49
-0.5
 62
       256
  6
ByLayer
  0
ACDBDICTIONARYWDFLT
  5
1F
102
{ACAD_REACTORS
330
19
102
}
100
AcDbDictionary
281
         1
  3
Normal
350
1D
100
AcDbDictionaryWithDefault
340
1D
  0
ACDBPLACEHOLDER
  5
1D
102
{ACAD_REACTORS
330
1F
102
}
  0
LAYOUT
  5
20
102
{ACAD_REACTORS
330
1E
102
}
100
AcDbPlotSettings
  1

  2

  4

  6

 40
0.0
 41
0.0
 42
0.0
 43
0.0
 44
0.0
 45
0.0
 46
0.0
 47
0.0
 48
0.0
 49
0.0
140
0.0
141
0.0
142
1.0
143
1.0
 70
      1024
 72
         0
 73
         0
 74
         0
  7

 75
         0
147
1.0
148
0.0
149
0.0
100
AcDbLayout
  1
Model
 70
         0
 71
         0
 10
0.0
 20
0.0
 11
0.0
 21
0.0
 12
0.0
 22
0.0
 32
0.0
 14
0.0
 24
0.0
 34
0.0
 15
0.0
 25
0.0
 35
0.0
146
0.0
 13
0.0
 23
0.0
 33
0.0
 16
0.0
 26
0.0
 36
0.0
 17
0.0
 27
0.0
 37
0.0
 76
         0
330
A
331
0
345
0
346
0
  0
LAYOUT
  5
21
102
{ACAD_REACTORS
330
1E
102
}
100
AcDbPlotSettings
  1

  2

  4

  6

 40
0.0
 41
0.0
 42
0.0
 43
0.0
 44
0.0
 45
0.0
 46
0.0
 47
0.0
 48
0.0
 49
0.0
140
0.0
141
0.0
142
1.0
143
1.0
 70
         0
 72
         0
 73
         0
 74
         0
  7

 75
         0
147
1.0
148
0.0
149
0.0
100
AcDbLayout
  1
Layout1
 70
         0
 71
         0
 10
0.0
 20
0.0
 11
0.0
 21
0.0
 12
0.0
 22
0.0
 32
0.0
 14
0.0
 24
0.0
 34
0.0
 15
0.0
 25
0.0
 35
0.0
146
0.0
 13
0.0
 23
0.0
 33
0.0
 16
0.0
 26
0.0
 36
0.0
 17
0.0
 27
0.0
 37
0.0
 76
         0
330
B
331
0
345
0
346
0
  0
DICTIONARY
  5
1E
102
{ACAD_REACTORS
330
19
102
}
100
AcDbDictionary
280
         0
281
         1
  3
Layout1
350
21
  3
Model
350
20
  0
DICTIONARY
  5
22
102
{ACAD_REACTORS
330
19
102
}
100
AcDbDictionary
280
         0
281
         1
  0
WIPEOUTVARIABLES
  5
23
100
AcDbWipeoutVariables
 70
         1
  0
ENDSEC
  0
EOF
