  0
SECTION
  2
HEADER
  9
$ACADVER
  1
AC1015
  9
$ACADMAINTVER
 70
         6
  9
$DWGCODEPAGE
  3
ANSI_1252
  9
$INSBASE
 10
0.0
 20
0.0
 30
0.0
  9
$EXTMIN
 10
0.0
 20
0.0
 30
0.0
  9
$EXTMAX
 10
210.0
 20
297.0
 30
0.0
  9
$LIMMIN
 10
0.0
 20
0.0
  9
$LIMMAX
 10
210.0
 20
297.0
  9
$ORTHOMODE
 70
         0
  9
$REGENMODE
 70
         1
  9
$FILLMODE
 70
         1
  9
$QTEXTMODE
 70
         0
  9
$MIRRTEXT
 70
         1
  9
$LTSCALE
 40
5.25
  9
$ATTMODE
 70
         1
  9
$TEXTSIZE
 40
0.2
  9
$TRACEWID
 40
0.05
  9
$TEXTSTYLE
  7
Standard
  9
$CLAYER
  8
0
  9
$CELTYPE
  6
CONTINUOUS
  9
$CECOLOR
 62
       256
  9
$CELTSCALE
 40
1.0
  9
$DISPSILH
 70
         0
  9
$DIMSCALE
 40
1.0
  9
$DIMASZ
 40
0.18
  9
$DIMEXO
 40
0.0625
  9
$DIMDLI
 40
0.38
  9
$DIMRND
 40
0.0
  9
$DIMDLE
 40
0.0
  9
$DIMEXE
 40
0.18
  9
$DIMTP
 40
0.0
  9
$DIMTM
 40
0.0
  9
$DIMTXT
 40
3.0
  9
$DIMCEN
 40
0.09
  9
$DIMTSZ
 40
0.0
  9
$DIMTOL
 70
         0
  9
$DIMLIM
 70
         0
  9
$DIMTIH
 70
         1
  9
$DIMTOH
 70
         1
  9
$DIMSE1
 70
         0
  9
$DIMSE2
 70
         0
  9
$DIMTAD
 70
         1
  9
$DIMZIN
 70
         0
  9
$DIMBLK
  1

  9
$DIMASO
 70
         1
  9
$DIMSHO
 70
         1
  9
$DIMPOST
  1
<>
  9
$DIMAPOST
  1

  9
$DIMALT
 70
         0
  9
$DIMALTD
 70
         2
  9
$DIMALTF
 40
25.4
  9
$DIMLFAC
 40
1.0
  9
$DIMTOFL
 70
         0
  9
$DIMTVP
 40
0.0
  9
$DIMTIX
 70
         0
  9
$DIMSOXD
 70
         0
  9
$DIMSAH
 70
         0
  9
$DIMBLK1
  1

  9
$DIMBLK2
  1

  9
$DIMSTYLE
  2
Standard
  9
$DIMCLRD
 70
         0
  9
$DIMCLRE
 70
         0
  9
$DIMCLRT
 70
         0
  9
$DIMTFAC
 40
1.0
  9
$DIMGAP
 40
0.09
  9
$DIMJUST
 70
         0
  9
$DIMSD1
 70
         0
  9
$DIMSD2
 70
         0
  9
$DIMTOLJ
 70
         1
  9
$DIMTZIN
 70
         0
  9
$DIMALTZ
 70
         0
  9
$DIMALTTZ
 70
         0
  9
$DIMUPT
 70
         0
  9
$DIMDEC
 70
         4
  9
$DIMTDEC
 70
         4
  9
$DIMALTU
 70
         2
  9
$DIMALTTD
 70
         2
  9
$DIMTXSTY
  7
Standard
  9
$DIMAUNIT
 70
         0
  9
$DIMADEC
 70
         0
  9
$DIMALTRND
 40
0.0
  9
$DIMAZIN
 70
         0
  9
$DIMDSEP
 70
         0
  9
$DIMATFIT
 70
         3
  9
$DIMFRAC
 70
         0
  9
$DIMLDRBLK
  1

  9
$DIMLUNIT
 70
         2
  9
$DIMLWD
 70
         0
  9
$DIMLWE
 70
         0
  9
$DIMTMOVE
 70
         0
  9
$LUNITS
 70
         2
  9
$LUPREC
 70
         4
  9
$SKETCHINC
 40
0.1
  9
$FILLETRAD
 40
0.0
  9
$AUNITS
 70
         0
  9
$AUPREC
 70
         0
  9
$MENU
  1
acad
  9
$ELEVATION
 40
0.0
  9
$PELEVATION
 40
0.0
  9
$THICKNESS
 40
0.0
  9
$LIMCHECK
 70
         0
  9
$CHAMFERA
 40
0.0
  9
$CHAMFERB
 40
0.0
  9
$CHAMFERC
 40
0.0
  9
$CHAMFERD
 40
0.0
  9
$SKPOLY
 70
         0
  9
$TDCREATE
 40
0.000000000
  9
$TDUCREATE
 40
0.000000000
  9
$TDUPDATE
 40
0.000000000
  9
$TDUUPDATE
 40
0.000000000
  9
$TDINDWG
 40
0.0000000000
  9
$TDUSRTIMER
 40
0.0000000000
  9
$USRTIMER
 70
         1
  9
$ANGBASE
 50
0.0
  9
$ANGDIR
 70
         0
  9
$PDMODE
 70
         0
  9
$PDSIZE
 40
0.0
  9
$PLINEWID
 40
0.0
  9
$SPLFRAME
 70
         0
  9
$SPLINETYPE
 70
         6
  9
$SPLINESEGS
 70
         8
  9
$HANDSEED
  5
444
  9
$SURFTAB1
 70
         6
  9
$SURFTAB2
 70
         6
  9
$SURFTYPE
 70
         6
  9
$SURFU
 70
         6
  9
$SURFV
 70
         6
  9
$UCSBASE
  2

  9
$UCSNAME
  2

  9
$UCSORG
 10
0.0
 20
0.0
 30
0.0
  9
$UCSXDIR
 10
1.0
 20
0.0
 30
0.0
  9
$UCSYDIR
 10
0.0
 20
1.0
 30
0.0
  9
$UCSORTHOREF
  2

  9
$UCSORTHOVIEW
 70
         0
  9
$UCSORGTOP
 10
0.0
 20
0.0
 30
0.0
  9
$UCSORGBOTTOM
 10
0.0
 20
0.0
 30
0.0
  9
$UCSORGLEFT
 10
0.0
 20
0.0
 30
0.0
  9
$UCSORGRIGHT
 10
0.0
 20
0.0
 30
0.0
  9
$UCSORGFRONT
 10
0.0
 20
0.0
 30
0.0
  9
$UCSORGBACK
 10
0.0
 20
0.0
 30
0.0
  9
$PUCSBASE
  2

  9
$PUCSNAME
  2

  9
$PUCSORG
 10
0.0
 20
0.0
 30
0.0
  9
$PUCSXDIR
 10
1.0
 20
0.0
 30
0.0
  9
$PUCSYDIR
 10
0.0
 20
1.0
 30
0.0
  9
$PUCSORTHOREF
  2

  9
$PUCSORTHOVIEW
 70
         0
  9
$PUCSORGTOP
 10
0.0
 20
0.0
 30
0.0
  9
$PUCSORGBOTTOM
 10
0.0
 20
0.0
 30
0.0
  9
$PUCSORGLEFT
 10
0.0
 20
0.0
 30
0.0
  9
$PUCSORGRIGHT
 10
0.0
 20
0.0
 30
0.0
  9
$PUCSORGFRONT
 10
0.0
 20
0.0
 30
0.0
  9
$PUCSORGBACK
 10
0.0
 20
0.0
 30
0.0
  9
$USERI1
 70
         0
  9
$USERI2
 70
         0
  9
$USERI3
 70
         0
  9
$USERI4
 70
         0
  9
$USERI5
 70
         0
  9
$USERR1
 40
0.0
  9
$USERR2
 40
0.0
  9
$USERR3
 40
0.0
  9
$USERR4
 40
0.0
  9
$USERR5
 40
0.0
  9
$WORLDVIEW
 70
         1
  9
$SHADEDGE
 70
         3
  9
$SHADEDIF
 70
        70
  9
$TILEMODE
 70
         1
  9
$MAXACTVP
 70
        16
  9
$PINSBASE
 10
0.0
 20
0.0
 30
0.0
  9
$PLIMCHECK
 70
         0
  9
$PEXTMIN
 10
1.0000000000E+20
 20
1.0000000000E+20
 30
1.0000000000E+20
  9
$PEXTMAX
 10
-1.0000000000E+20
 20
-1.0000000000E+20
 30
-1.0000000000E+20
  9
$PLIMMIN
 10
0.0
 20
0.0
  9
$PLIMMAX
 10
12.0
 20
9.0
  9
$UNITMODE
 70
         0
  9
$VISRETAIN
 70
         0
  9
$PLINEGEN
 70
         1
  9
$PSLTSCALE
 70
         0
  9
$TREEDEPTH
 70
      3020
  9
$CMLSTYLE
  2
Standard
  9
$CMLJUST
 70
         0
  9
$CMLSCALE
 40
1.0
  9
$PROXYGRAPHICS
 70
         0
  9
$MEASUREMENT
 70
         1
  9
$CELWEIGHT
370
         0
  9
$ENDCAPS
280
         0
  9
$JOINSTYLE
280
         0
  9
$LWDISPLAY
290
         0
  9
$INSUNITS
 70
         0
  9
$HYPERLINKBASE
  1

  9
$STYLESHEET
  1

  9
$XEDIT
290
         1
  9
$CEPSNTYPE
380
         0
  9
$PSTYLEMODE
290
         1
  9
$FINGERPRINTGUID
  2

  9
$VERSIONGUID
  2

  9
$EXTNAMES
290
         1
  9
$PSVPSCALE
 40
0.0
  0
ENDSEC
  0
SECTION
  2
CLASSES
  0
CLASS
  1
LWPOLYLINE
  2
AcDbPolyline
  3
AutoCAD 2000
 90
        0
280
         0
281
         1
  0
CLASS
  1
IMAGE
  2
AcDbRasterImage
  3
ISM
 90
      127
280
         0
281
         1
  0
CLASS
  1
OLE2FRAME
  2
AcDbOle2Frame
  3
AutoCAD 2000
 90
        0
280
         0
281
         1
  0
CLASS
  1
HATCH
  2
AcDbHatch
  3
AutoCAD 2000
 90
        0
280
         0
281
         1
  0
CLASS
  1
DICTIONARYVAR
  2
AcDbDictionaryVar
  3
AutoCAD 2000
 90
        0
280
         0
281
         0
  0
CLASS
  1
RASTERVARIABLES
  2
AcDbRasterVariables
  3
ISM
 90
        0
280
         0
281
         0
  0
CLASS
  1
IMAGEDEF
  2
AcDbRasterImageDef
  3
ISM
 90
        0
280
         0
281
         0
  0
CLASS
  1
IMAGEDEF_REACTOR
  2
AcDbRasterImageDefReactor
  3
ISM
 90
        1
280
         0
281
         0
  0
CLASS
  1
IDBUFFER
  2
AcDbIdBuffer
  3
AutoCAD 2000
 90
        0
280
         0
281
         0
  0
CLASS
  1
SPATIAL_FILTER
  2
AcDbSpatialFilter
  3
AutoCAD 2000
 90
        0
280
         0
281
         0
  0
CLASS
  1
XRECORD
  2
AcDbXrecord
  3
AutoCAD 2000
 90
        0
280
         0
281
         0
  0
CLASS
  1
SORTENTSTABLE
  2
AcDbSortentsTable
  3
AutoCAD 2000
 90
        0
280
         0
281
         0
  0
CLASS
  1
LAYER_INDEX
  2
AcDbLayerIndex
  3
AutoCAD 2000
 90
        0
280
         0
281
         0
  0
CLASS
  1
SPATIAL_INDEX
  2
AcDbSpatialIndex
  3
AutoCAD 2000
 90
        0
280
         0
281
         0
  0
CLASS
  1
OBJECT_PTR
  2
CAseDLPNTableRecord
  3
"ASE-LPNTableRecord"
 90
        1
280
         0
281
         0
  0
CLASS
  1
LAYOUT
  2
AcDbLayout
  3
AutoCAD 2000
 90
        0
280
         0
281
         0
  0
CLASS
  1
PLOTSETTINGS
  2
AcDbPlotSettings
  3
AutoCAD 2000
 90
        0
280
         0
281
         0
  0
CLASS
  1
ACDBDICTIONARYWDFLT
  2
AcDbDictionaryWithDefault
  3
AutoCAD 2000
 90
        0
280
         0
281
         0
  0
CLASS
  1
ACDBPLACEHOLDER
  2
AcDbPlaceHolder
  3
AutoCAD 2000
 90
        0
280
         0
281
         0
  0
CLASS
  1
VBA_PROJECT
  2
AcDbVbaProject
  3
acadvba
 90
        0
280
         0
281
         0
  0
CLASS
  1
WIPEOUT
  2
AcDbWipeout
  3
WipeOut|AutoCAD Express Tool|expresstools@autodesk.com
 90
      127
280
         0
281
         1
  0
CLASS
  1
WIPEOUTVARIABLES
  2
AcDbWipeoutVariables
  3
WipeOut|AutoCAD Express Tool|expresstools@autodesk.com
 90
        0
280
         0
281
         0
  0
CLASS
  1
RTEXT
  2
RText
  3
RText|AutoCAD Express Tool|expresstools@autodesk.com
 90
        0
280
         0
281
         1
  0
CLASS
  1
ARCALIGNEDTEXT
  2
AcDbArcAlignedText
  3
ATEXT|AutoCAD Express Tool|expresstools@autodesk.com
 90
        0
280
         0
281
         1
  0
ENDSEC
  0
SECTION
  2
TABLES
  0
TABLE
  2
VPORT
  5
7
100
AcDbSymbolTable
 70
         1
  0
VPORT
  5
15
100
AcDbSymbolTableRecord
100
AcDbViewportTableRecord
  2
*ACTIVE
 70
         0
 10
0.0
 20
0.0
 11
1.0
 21
1.0
 12
105.0
 22
148.5
 13
0.0
 23
0.0
 14
1.0
 24
1.0
 15
0.0
 25
0.0
 16
0.0
 26
0.0
 36
1.0
 17
0.0
 27
0.0
 37
0.0
 40
231.2943892345
 41
1.0
 42
50.0
 43
0.0
 44
0.0
 50
0.0
 51
0.0
 71
         0
 72
       100
 73
         1
 74
         1
 75
         0
 76
         0
 77
         0
 78
         0
281
         0
 65
         0
110
0.0
120
0.0
130
0.0
111
1.0
121
0.0
131
0.0
112
0.0
122
1.0
132
0.0
345
0
346
0
 79
         0
146
0.0
  0
ENDTAB
  0
TABLE
  2
LTYPE
  5
4
100
AcDbSymbolTable
 70
        12
  0
LTYPE
  5
11
100
AcDbSymbolTableRecord
100
AcDbLinetypeTableRecord
  2
ByBlock
 70
        64
  3

 72
        65
 73
         0
 40
0.0
  0
LTYPE
  5
12
100
AcDbSymbolTableRecord
100
AcDbLinetypeTableRecord
  2
ByLayer
 70
        64
  3

 72
        65
 73
         0
 40
0.0
  0
LTYPE
  5
13
100
AcDbSymbolTableRecord
100
AcDbLinetypeTableRecord
  2
CONTINUOUS
 70
        64
  3
Solid Line
 72
        65
 73
         0
 40
0.0
  0
LTYPE
  5
24
100
AcDbSymbolTableRecord
100
AcDbLinetypeTableRecord
  2
DOT
 70
        64
  3
. . . . . . . . . . . . . . . . . . . . . . 
 72
        65
 73
         2
 40
0.25
 49
0.0
 74
         0
 49
-0.25
 74
         0
  0
LTYPE
  5
25
100
AcDbSymbolTableRecord
100
AcDbLinetypeTableRecord
  2
HIDDEN
 70
         0
  3
_ _ _ _ _ _ _ _ _ _ _ _ _ _ _ _ _ _ _ _ _ _ _
 72
        65
 73
         2
 40
0.375
 49
0.25
 74
         0
 49
-0.125
 74
         0
  0
LTYPE
  5
26
100
AcDbSymbolTableRecord
100
AcDbLinetypeTableRecord
  2
DASHDOT
 70
         0
  3
__ . __ . __ . __ . __ . __ . __ . __ . __ . __
 72
        65
 73
         4
 40
1.0
 49
0.5
 74
         0
 49
-0.25
 74
         0
 49
0.0
 74
         0
 49
-0.25
 74
         0
  0
LTYPE
  5
27
100
AcDbSymbolTableRecord
100
AcDbLinetypeTableRecord
  2
DIVIDE
 70
         0
  3
__ . . __ . . __ . . __ . . __ . . __ . . __
 72
        65
 73
         6
 40
1.25
 49
0.5
 74
         0
 49
-0.25
 74
         0
 49
0.0
 74
         0
 49
-0.25
 74
         0
 49
0.0
 74
         0
 49
-0.25
 74
         0
  0
LTYPE
  5
28
100
AcDbSymbolTableRecord
100
AcDbLinetypeTableRecord
  2
DASHED
 70
         0
  3
__ __ __ __ __ __ __ __ __ __ __ __ __ __ __
 72
        65
 73
         2
 40
0.75
 49
0.5
 74
         0
 49
-0.25
 74
         0
  0
LTYPE
  5
29
100
AcDbSymbolTableRecord
100
AcDbLinetypeTableRecord
  2
BORDER
 70
         0
  3
__ __ . __ __ . __ __ . __ __ . __ __ .
 72
        65
 73
         6
 40
1.75
 49
0.5
 74
         0
 49
-0.25
 74
         0
 49
0.5
 74
         0
 49
-0.25
 74
         0
 49
0.0
 74
         0
 49
-0.25
 74
         0
  0
LTYPE
  5
2A
100
AcDbSymbolTableRecord
100
AcDbLinetypeTableRecord
  2
CENTER
 70
         0
  3
____ _ ____ _ ____ _ ____ _ ____ _ ____
 72
        65
 73
         4
 40
2.0
 49
1.25
 74
         0
 49
-0.25
 74
         0
 49
0.25
 74
         0
 49
-0.25
 74
         0
  0
LTYPE
  5
2B
100
AcDbSymbolTableRecord
100
AcDbLinetypeTableRecord
  2
DOT2
 70
         0
  3
........................................
 72
        65
 73
         2
 40
0.125
 49
0.0
 74
         0
 49
-0.125
 74
         0
  0
LTYPE
  5
2C
100
AcDbSymbolTableRecord
100
AcDbLinetypeTableRecord
  2
PHANTOM
 70
         0
  3
______  __  __  ______  __  __  ______
 72
        65
 73
         6
 40
2.5
 49
1.25
 74
         0
 49
-0.25
 74
         0
 49
0.25
 74
         0
 49
-0.25
 74
         0
 49
0.25
 74
         0
 49
-0.25
 74
         0
  0
ENDTAB
  0
TABLE
  2
LAYER
  5
2
100
AcDbSymbolTable
 70
        98
  0
LAYER
  5
14
100
AcDbSymbolTableRecord
100
AcDbLayerTableRecord
  2
0
 70
         0
 62
         7
  6
CONTINUOUS
290
         1
370
        -3
390
1D
  0
LAYER
  5
33
100
AcDbSymbolTableRecord
100
AcDbLayerTableRecord
  2
_TEMP
 70
        64
 62
         7
  6
CONTINUOUS
290
         1
370
        50
390
1D
  0
LAYER
  5
34
100
AcDbSymbolTableRecord
100
AcDbLayerTableRecord
  2
BESCHRIFTUNG
 70
        64
 62
         7
  6
CONTINUOUS
290
         1
370
        25
390
1D
  0
LAYER
  5
35
100
AcDbSymbolTableRecord
100
AcDbLayerTableRecord
  2
SCHRAFFUR
 70
        64
 62
         7
  6
CONTINUOUS
290
         1
370
        25
390
1D
  0
LAYER
  5
36
100
AcDbSymbolTableRecord
100
AcDbLayerTableRecord
  2
MASSTEXTE
 70
        64
 62
       212
  6
CONTINUOUS
290
         1
370
        25
390
1D
  0
LAYER
  5
37
100
AcDbSymbolTableRecord
100
AcDbLayerTableRecord
  2
MASSLINIEN
 70
        64
 62
       172
  6
CONTINUOUS
290
         1
370
        25
390
1D
  0
LAYER
  5
38
100
AcDbSymbolTableRecord
100
AcDbLayerTableRecord
  2
MASSGRENZEN
 70
        64
 62
       172
  6
CONTINUOUS
290
         1
370
        25
390
1D
  0
LAYER
  5
39
100
AcDbSymbolTableRecord
100
AcDbLayerTableRecord
  2
TOLERANZEN
 70
        64
 62
       212
  6
CONTINUOUS
290
         1
370
         0
390
1D
  0
LAYER
  5
3A
100
AcDbSymbolTableRecord
100
AcDbLayerTableRecord
  2
BEMASSUNG
 70
        64
 62
         7
  6
CONTINUOUS
290
         1
370
        25
390
1D
  0
LAYER
  5
3B
100
AcDbSymbolTableRecord
100
AcDbLayerTableRecord
  2
HILFSLINIEN
 70
        64
 62
         3
  6
CONTINUOUS
290
         1
370
         0
390
1D
  0
LAYER
  5
3C
100
AcDbSymbolTableRecord
100
AcDbLayerTableRecord
  2
MITTELLINIEN
 70
        64
 62
         5
  6
DASHDOT
290
         1
370
        25
390
1D
  0
LAYER
  5
3D
100
AcDbSymbolTableRecord
100
AcDbLayerTableRecord
  2
BESCHRIFTUNG00
 70
        64
 62
         7
  6
CONTINUOUS
290
         1
370
        25
390
1D
  0
LAYER
  5
3E
100
AcDbSymbolTableRecord
100
AcDbLayerTableRecord
  2
BESCHRIFTUNG0
 70
        64
 62
         7
  6
CONTINUOUS
290
         1
370
        25
390
1D
  0
LAYER
  5
3F
100
AcDbSymbolTableRecord
100
AcDbLayerTableRecord
  2
GEWINDELINIEN
 70
        64
 62
       212
  6
CONTINUOUS
290
         1
370
        25
390
1D
  0
LAYER
  5
40
100
AcDbSymbolTableRecord
100
AcDbLayerTableRecord
  2
UNSICHTBARE
 70
        64
 62
        92
  6
DASHED
290
         1
370
        25
390
1D
  0
LAYER
  5
41
100
AcDbSymbolTableRecord
100
AcDbLayerTableRecord
  2
VERDECKTE
 70
        64
 62
        92
  6
DASHED
290
         1
370
        25
390
1D
  0
LAYER
  5
42
100
AcDbSymbolTableRecord
100
AcDbLayerTableRecord
  2
LICHTKANTEN
 70
        64
 62
         8
  6
CONTINUOUS
290
         1
370
        25
390
1D
  0
LAYER
  5
43
100
AcDbSymbolTableRecord
100
AcDbLayerTableRecord
  2
SCHNITTVERLAUF
 70
        64
 62
        34
  6
DASHDOT
290
         1
370
        70
390
1D
  0
LAYER
  5
44
100
AcDbSymbolTableRecord
100
AcDbLayerTableRecord
  2
KENNZEICHNUNG
 70
        64
 62
         7
  6
CONTINUOUS
290
         1
370
         0
390
1D
  0
LAYER
  5
45
100
AcDbSymbolTableRecord
100
AcDbLayerTableRecord
  2
PFEILE
 70
        64
 62
         7
  6
CONTINUOUS
290
         1
370
        70
390
1D
  0
LAYER
  5
46
100
AcDbSymbolTableRecord
100
AcDbLayerTableRecord
  2
SCHNITTDARSTELLUNG
 70
        64
 62
         7
  6
CONTINUOUS
290
         1
370
         0
390
1D
  0
LAYER
  5
47
100
AcDbSymbolTableRecord
100
AcDbLayerTableRecord
  2
___ BESCHRIFTUNG01
 70
        64
 62
         7
  6
CONTINUOUS
290
         1
370
        25
390
1D
  0
LAYER
  5
48
100
AcDbSymbolTableRecord
100
AcDbLayerTableRecord
  2
A ROLLE OBEN
 70
        64
 62
        94
  6
CONTINUOUS
290
         1
370
        18
390
1D
  0
LAYER
  5
49
100
AcDbSymbolTableRecord
100
AcDbLayerTableRecord
  2
_K ROLLE
 70
        64
 62
        94
  6
CONTINUOUS
290
         1
370
        18
390
1D
  0
LAYER
  5
4A
100
AcDbSymbolTableRecord
100
AcDbLayerTableRecord
  2
A HEBELFALLE OBEN
 70
        64
 62
        30
  6
CONTINUOUS
290
         1
370
        18
390
1D
  0
LAYER
  5
4B
100
AcDbSymbolTableRecord
100
AcDbLayerTableRecord
  2
_D HEBELFALLE
 70
        64
 62
        30
  6
CONTINUOUS
290
         1
370
        18
390
1D
  0
LAYER
  5
4C
100
AcDbSymbolTableRecord
100
AcDbLayerTableRecord
  2
2050_4R
 70
        64
 62
        15
  6
CONTINUOUS
290
         1
370
        13
390
1D
  0
LAYER
  5
4D
100
AcDbSymbolTableRecord
100
AcDbLayerTableRecord
  2
2050_4L
 70
        64
 62
        11
  6
CONTINUOUS
290
         1
370
        13
390
1D
  0
LAYER
  5
4E
100
AcDbSymbolTableRecord
100
AcDbLayerTableRecord
  2
2050_3R
 70
        64
 62
        15
  6
CONTINUOUS
290
         1
370
        13
390
1D
  0
LAYER
  5
4F
100
AcDbSymbolTableRecord
100
AcDbLayerTableRecord
  2
2050_3L
 70
        64
 62
        11
  6
CONTINUOUS
290
         1
370
        13
390
1D
  0
LAYER
  5
50
100
AcDbSymbolTableRecord
100
AcDbLayerTableRecord
  2
2050_2R
 70
        64
 62
        14
  6
CONTINUOUS
290
         1
370
        13
390
1D
  0
LAYER
  5
51
100
AcDbSymbolTableRecord
100
AcDbLayerTableRecord
  2
2050_2L
 70
        64
 62
        11
  6
CONTINUOUS
290
         1
370
        13
390
1D
  0
LAYER
  5
52
100
AcDbSymbolTableRecord
100
AcDbLayerTableRecord
  2
2050_1R
 70
        64
 62
        15
  6
CONTINUOUS
290
         1
370
        13
390
1D
  0
LAYER
  5
53
100
AcDbSymbolTableRecord
100
AcDbLayerTableRecord
  2
2050_1L
 70
        64
 62
        11
  6
CONTINUOUS
290
         1
370
        13
390
1D
  0
LAYER
  5
54
100
AcDbSymbolTableRecord
100
AcDbLayerTableRecord
  2
2050___ SCHLOSS
 70
        64
 62
         6
  6
DASHDOT
290
         1
370
        13
390
1D
  0
LAYER
  5
55
100
AcDbSymbolTableRecord
100
AcDbLayerTableRecord
  2
___ 8901_1P
 70
        64
 62
        54
  6
CONTINUOUS
290
         1
370
        13
390
1D
  0
LAYER
  5
56
100
AcDbSymbolTableRecord
100
AcDbLayerTableRecord
  2
___ 8901_2P
 70
        64
 62
        54
  6
CONTINUOUS
290
         1
370
        13
390
1D
  0
LAYER
  5
57
100
AcDbSymbolTableRecord
100
AcDbLayerTableRecord
  2
___ 8901___
 70
        64
 62
         7
  6
CONTINUOUS
290
         1
370
        13
390
1D
  0
LAYER
  5
58
100
AcDbSymbolTableRecord
100
AcDbLayerTableRecord
  2
2051_3E
 70
        64
 62
        11
  6
CONTINUOUS
290
         1
370
        13
390
1D
  0
LAYER
  5
59
100
AcDbSymbolTableRecord
100
AcDbLayerTableRecord
  2
2051_3D
 70
        64
 62
        11
  6
CONTINUOUS
290
         1
370
        13
390
1D
  0
LAYER
  5
5A
100
AcDbSymbolTableRecord
100
AcDbLayerTableRecord
  2
2051_3C
 70
        64
 62
        11
  6
CONTINUOUS
290
         1
370
        13
390
1D
  0
LAYER
  5
5B
100
AcDbSymbolTableRecord
100
AcDbLayerTableRecord
  2
2051_3B
 70
        64
 62
        11
  6
CONTINUOUS
290
         1
370
        13
390
1D
  0
LAYER
  5
5C
100
AcDbSymbolTableRecord
100
AcDbLayerTableRecord
  2
2051_3A
 70
        64
 62
        11
  6
CONTINUOUS
290
         1
370
        13
390
1D
  0
LAYER
  5
5D
100
AcDbSymbolTableRecord
100
AcDbLayerTableRecord
  2
2051_3__
 70
        64
 62
        11
  6
CONTINUOUS
290
         1
370
        13
390
1D
  0
LAYER
  5
5E
100
AcDbSymbolTableRecord
100
AcDbLayerTableRecord
  2
2051_2P
 70
        64
 62
        34
  6
CONTINUOUS
290
         1
370
        13
390
1D
  0
LAYER
  5
5F
100
AcDbSymbolTableRecord
100
AcDbLayerTableRecord
  2
2051_1P
 70
        64
 62
        11
  6
CONTINUOUS
290
         1
370
        13
390
1D
  0
LAYER
  5
60
100
AcDbSymbolTableRecord
100
AcDbLayerTableRecord
  2
2051_9Q
 70
        64
 62
         7
  6
CONTINUOUS
290
         1
370
         0
390
1D
  0
LAYER
  5
61
100
AcDbSymbolTableRecord
100
AcDbLayerTableRecord
  2
2051_3F
 70
        64
 62
         7
  6
CONTINUOUS
290
         1
370
         0
390
1D
  0
LAYER
  5
62
100
AcDbSymbolTableRecord
100
AcDbLayerTableRecord
  2
2051_3G
 70
        64
 62
         7
  6
CONTINUOUS
290
         1
370
         0
390
1D
  0
LAYER
  5
63
100
AcDbSymbolTableRecord
100
AcDbLayerTableRecord
  2
2051_3H
 70
        64
 62
         7
  6
CONTINUOUS
290
         1
370
         0
390
1D
  0
LAYER
  5
64
100
AcDbSymbolTableRecord
100
AcDbLayerTableRecord
  2
2051_3K
 70
        64
 62
         7
  6
CONTINUOUS
290
         1
370
         0
390
1D
  0
LAYER
  5
65
100
AcDbSymbolTableRecord
100
AcDbLayerTableRecord
  2
2051_3M
 70
        64
 62
         7
  6
CONTINUOUS
290
         1
370
         0
390
1D
  0
LAYER
  5
66
100
AcDbSymbolTableRecord
100
AcDbLayerTableRecord
  2
2051_3P
 70
        64
 62
         7
  6
CONTINUOUS
290
         1
370
         0
390
1D
  0
LAYER
  5
67
100
AcDbSymbolTableRecord
100
AcDbLayerTableRecord
  2
2051_3Q
 70
        64
 62
         7
  6
CONTINUOUS
290
         1
370
         0
390
1D
  0
LAYER
  5
68
100
AcDbSymbolTableRecord
100
AcDbLayerTableRecord
  2
2051_3R
 70
        64
 62
         7
  6
CONTINUOUS
290
         1
370
         0
390
1D
  0
LAYER
  5
69
100
AcDbSymbolTableRecord
100
AcDbLayerTableRecord
  2
2051_3T
 70
        64
 62
         7
  6
CONTINUOUS
290
         1
370
         0
390
1D
  0
LAYER
  5
6A
100
AcDbSymbolTableRecord
100
AcDbLayerTableRecord
  2
2051_3U
 70
        64
 62
         7
  6
CONTINUOUS
290
         1
370
         0
390
1D
  0
LAYER
  5
6B
100
AcDbSymbolTableRecord
100
AcDbLayerTableRecord
  2
2051_3V
 70
        64
 62
         7
  6
CONTINUOUS
290
         1
370
         0
390
1D
  0
LAYER
  5
6C
100
AcDbSymbolTableRecord
100
AcDbLayerTableRecord
  2
2051_3W
 70
        64
 62
         7
  6
CONTINUOUS
290
         1
370
         0
390
1D
  0
LAYER
  5
6D
100
AcDbSymbolTableRecord
100
AcDbLayerTableRecord
  2
2051_3X
 70
        64
 62
         7
  6
CONTINUOUS
290
         1
370
         0
390
1D
  0
LAYER
  5
6E
100
AcDbSymbolTableRecord
100
AcDbLayerTableRecord
  2
2051___ SCHLÜSSEL
 70
        64
 62
       230
  6
CONTINUOUS
290
         1
370
        13
390
1D
  0
LAYER
  5
6F
100
AcDbSymbolTableRecord
100
AcDbLayerTableRecord
  2
2913_2P
 70
        64
 62
       230
  6
CONTINUOUS
290
         1
370
        18
390
1D
  0
LAYER
  5
70
100
AcDbSymbolTableRecord
100
AcDbLayerTableRecord
  2
2913___ AUFSPANNANSCHLAG
 70
        64
 62
         7
  6
CONTINUOUS
290
         1
370
         0
390
1D
  0
LAYER
  5
71
100
AcDbSymbolTableRecord
100
AcDbLayerTableRecord
  2
8001_1L
 70
        64
 62
         7
  6
CONTINUOUS
290
         1
370
         0
390
1D
  0
LAYER
  5
72
100
AcDbSymbolTableRecord
100
AcDbLayerTableRecord
  2
8001_2R
 70
        64
 62
         7
  6
CONTINUOUS
290
         1
370
         0
390
1D
  0
LAYER
  5
73
100
AcDbSymbolTableRecord
100
AcDbLayerTableRecord
  2
8001___ DEMOPROJEKT A_C-ABHÄNGIGKEIT
 70
        64
 62
         7
  6
CONTINUOUS
290
         1
370
         0
390
1D
  0
LAYER
  5
74
100
AcDbSymbolTableRecord
100
AcDbLayerTableRecord
  2
1084___
 70
        64
 62
         7
  6
CONTINUOUS
290
         1
370
         0
390
1D
  0
LAYER
  5
75
100
AcDbSymbolTableRecord
100
AcDbLayerTableRecord
  2
8002_1L
 70
        64
 62
         7
  6
DASHDOT
290
         1
370
         0
390
1D
  0
LAYER
  5
76
100
AcDbSymbolTableRecord
100
AcDbLayerTableRecord
  2
8002_2R
 70
        64
 62
         7
  6
DASHDOT
290
         1
370
         0
390
1D
  0
LAYER
  5
77
100
AcDbSymbolTableRecord
100
AcDbLayerTableRecord
  2
8002___ DEMOPROJEKT EINZELSCHLOSS
 70
        64
 62
         7
  6
CONTINUOUS
290
         1
370
         0
390
1D
  0
LAYER
  5
78
100
AcDbSymbolTableRecord
100
AcDbLayerTableRecord
  2
2914_1P
 70
        64
 62
       134
  6
CONTINUOUS
290
         1
370
         0
390
1D
  0
LAYER
  5
79
100
AcDbSymbolTableRecord
100
AcDbLayerTableRecord
  2
2914___ KAMM-NULLANSCHLAG
 70
        64
 62
         7
  6
CONTINUOUS
290
         1
370
         0
390
1D
  0
LAYER
  5
7A
100
AcDbSymbolTableRecord
100
AcDbLayerTableRecord
  2
PFADE
 70
        64
 62
        30
  6
CONTINUOUS
290
         1
370
        13
390
1D
  0
LAYER
  5
7B
100
AcDbSymbolTableRecord
100
AcDbLayerTableRecord
  2
2050_5_6 BESATZUNG
 70
        64
 62
         8
  6
CONTINUOUS
290
         1
370
        18
390
1D
  0
LAYER
  5
7C
100
AcDbSymbolTableRecord
100
AcDbLayerTableRecord
  2
2050_1_2 GEHÄUSE
 70
        64
 62
         7
  6
CONTINUOUS
290
         1
370
        18
390
1D
  0
LAYER
  5
7D
100
AcDbSymbolTableRecord
100
AcDbLayerTableRecord
  2
2050_3 RIEGEL UMGESPERRT
 70
        64
 62
       230
  6
DASHED
290
         1
370
        18
390
1D
  0
LAYER
  5
7E
100
AcDbSymbolTableRecord
100
AcDbLayerTableRecord
  2
2050_3 RIEGEL
 70
        64
 62
       230
  6
CONTINUOUS
290
         1
370
        18
390
1D
  0
LAYER
  5
7F
100
AcDbSymbolTableRecord
100
AcDbLayerTableRecord
  2
2050_4 ZUHALTUNG ANGEHOBEN
 70
        64
 62
        94
  6
HIDDEN
290
         1
370
        18
390
1D
  0
LAYER
  5
80
100
AcDbSymbolTableRecord
100
AcDbLayerTableRecord
  2
2050_4 ZUHALTUNG
 70
        64
 62
        94
  6
CONTINUOUS
290
         1
370
        18
390
1D
  0
LAYER
  5
81
100
AcDbSymbolTableRecord
100
AcDbLayerTableRecord
  2
2050__ SCHLOSS
 70
        64
 62
         7
  6
CONTINUOUS
290
         1
370
         0
390
1D
  0
LAYER
  5
82
100
AcDbSymbolTableRecord
100
AcDbLayerTableRecord
  2
2913_2 AUFSPANNANSCHLAG
 70
        64
 62
         6
  6
CONTINUOUS
290
         1
370
        18
390
1D
  0
LAYER
  5
83
100
AcDbSymbolTableRecord
100
AcDbLayerTableRecord
  2
2913_3 AUFSPANNANSCHLAGWINKEL
 70
        64
 62
       214
  6
CONTINUOUS
290
         1
370
        18
390
1D
  0
LAYER
  5
84
100
AcDbSymbolTableRecord
100
AcDbLayerTableRecord
  2
2913_1 AUFSPANNPLATTE
 70
        64
 62
         7
  6
CONTINUOUS
290
         1
370
        18
390
1D
  0
LAYER
  5
85
100
AcDbSymbolTableRecord
100
AcDbLayerTableRecord
  2
2913_9 HALBZEUGE
 70
        64
 62
        30
  6
CONTINUOUS
290
         1
370
        18
390
1D
  0
LAYER
  5
86
100
AcDbSymbolTableRecord
100
AcDbLayerTableRecord
  2
2913_4 NULLANSCHLÄGE
 70
        64
 62
       230
  6
CONTINUOUS
290
         1
370
         0
390
1D
  0
LAYER
  5
87
100
AcDbSymbolTableRecord
100
AcDbLayerTableRecord
  2
2913_5 NULLPFADE
 70
        64
 62
        94
  6
CONTINUOUS
290
         1
370
         0
390
1D
  0
LAYER
  5
88
100
AcDbSymbolTableRecord
100
AcDbLayerTableRecord
  2
2913__ AUFSPANNPLATTE
 70
        64
 62
         7
  6
CONTINUOUS
290
         1
370
        18
390
1D
  0
LAYER
  5
89
100
AcDbSymbolTableRecord
100
AcDbLayerTableRecord
  2
2051_1-4 SCHLÜSSEL
 70
        64
 62
       190
  6
CONTINUOUS
290
         1
370
        18
390
1D
  0
LAYER
  5
8A
100
AcDbSymbolTableRecord
100
AcDbLayerTableRecord
  2
2051__ SCHLÜSSEL
 70
        64
 62
         7
  6
CONTINUOUS
290
         1
370
         0
390
1D
  0
LAYER
  5
8B
100
AcDbSymbolTableRecord
100
AcDbLayerTableRecord
  2
2910__  MYDXF2GCODE-PARAMS
 70
        64
 62
         7
  6
CONTINUOUS
290
         1
370
         0
390
1D
  0
LAYER
  5
8C
100
AcDbSymbolTableRecord
100
AcDbLayerTableRecord
  2
___ 2913_1 AUFSPANNPLATTE0
 70
        64
 62
         7
  6
CONTINUOUS
290
         1
370
        18
390
1D
  0
LAYER
  5
8D
100
AcDbSymbolTableRecord
100
AcDbLayerTableRecord
  2
2913__
 70
        64
 62
         7
  6
CONTINUOUS
290
         1
370
        18
390
1D
  0
LAYER
  5
8E
100
AcDbSymbolTableRecord
100
AcDbLayerTableRecord
  2
KONSTRUKTION
 70
        64
 62
         7
  6
CONTINUOUS
290
         1
370
         0
390
1D
  0
LAYER
  5
8F
100
AcDbSymbolTableRecord
100
AcDbLayerTableRecord
  2
GEOMETRIE
 70
        64
 62
         7
  6
CONTINUOUS
290
         1
370
         0
390
1D
  0
LAYER
  5
90
100
AcDbSymbolTableRecord
100
AcDbLayerTableRecord
  2
_S SCHILD
 70
        64
 62
       171
  6
CONTINUOUS
290
         1
370
         0
390
1D
  0
LAYER
  5
91
100
AcDbSymbolTableRecord
100
AcDbLayerTableRecord
  2
_A RAHMEN
 70
        64
 62
         7
  6
CONTINUOUS
290
         1
370
         0
390
1D
  0
LAYER
  5
92
100
AcDbSymbolTableRecord
100
AcDbLayerTableRecord
  2
_B STÄNDER
 70
        64
 62
         7
  6
CONTINUOUS
290
         1
370
        18
390
1D
  0
LAYER
  5
93
100
AcDbSymbolTableRecord
100
AcDbLayerTableRecord
  2
STANDARD
 70
        64
 62
         7
  6
CONTINUOUS
290
         1
370
         0
390
1D
  0
ENDTAB
  0
TABLE
  2
STYLE
  5
3
100
AcDbSymbolTable
 70
         7
  0
STYLE
  5
17
100
AcDbSymbolTableRecord
100
AcDbTextStyleTableRecord
  2
Standard
 70
         0
 40
0.0
 41
1.0
 50
0.0
 71
         0
 42
0.0
  3
txt
  4

  0
STYLE
  5
2D
100
AcDbSymbolTableRecord
100
AcDbTextStyleTableRecord
  2
CADdy
 70
         0
 40
0.0
 41
1.0
 50
0.0
 71
         0
 42
3.5
  3
txt.shx
  4

  0
STYLE
  5
2E
100
AcDbSymbolTableRecord
100
AcDbTextStyleTableRecord
  2
Arial
 70
         0
 40
0.0
 41
1.0
 50
0.0
 71
         0
 42
3.5
  3
arial.ttf
  4

1001
ACAD
1000
Arial
1071
       34
  0
STYLE
  5
2F
100
AcDbSymbolTableRecord
100
AcDbTextStyleTableRecord
  2
Isonorm
 70
         0
 40
0.0
 41
1.0
 50
0.0
 71
         0
 42
3.5
  3
txt.shx
  4

  0
STYLE
  5
30
100
AcDbSymbolTableRecord
100
AcDbTextStyleTableRecord
  2
Tahoma
 70
         0
 40
0.0
 41
1.0
 50
0.0
 71
         0
 42
3.5
  3
tahoma.ttf
  4

1001
ACAD
1000
Tahoma
1071
       34
  0
STYLE
  5
31
100
AcDbSymbolTableRecord
100
AcDbTextStyleTableRecord
  2
Microsoft Sans Serif
 70
         0
 40
0.0
 41
1.0
 50
0.0
 71
         0
 42
3.5
  3
micross.ttf
  4

1001
ACAD
1000
Microsoft Sans Serif
1071
       34
  0
STYLE
  5
32
100
AcDbSymbolTableRecord
100
AcDbTextStyleTableRecord
  2
Arial Rounded MT Bold
 70
         0
 40
0.0
 41
1.0
 50
0.0
 71
         0
 42
3.5
  3
txt.shx
  4

  0
ENDTAB
  0
TABLE
  2
VIEW
  5
5
100
AcDbSymbolTable
 70
         0
  0
ENDTAB
  0
TABLE
  2
UCS
  5
6
100
AcDbSymbolTable
 70
         0
  0
ENDTAB
  0
TABLE
  2
APPID
  5
8
100
AcDbSymbolTable
 70
         1
  0
APPID
  5
16
100
AcDbSymbolTableRecord
100
AcDbRegAppTableRecord
  2
ACAD
 70
        64
  0
ENDTAB
  0
TABLE
  2
DIMSTYLE
  5
9
100
AcDbSymbolTable
 70
         1
100
AcDbDimStyleTable
 71
         0
  0
DIMSTYLE
105
18
100
AcDbSymbolTableRecord
100
AcDbDimStyleTableRecord
  2
Standard
 70
         0
  3

  4

 40
1.0
 41
0.18
 42
0.0625
 43
0.38
 44
0.18
 45
0.0
 46
0.0
 47
0.0
 48
0.0
 71
         0
 72
         0
 73
         1
 74
         1
 75
         0
 76
         0
 77
         0
 78
         0
 79
         0
140
0.18
141
0.09
142
0.0
143
25.4
144
1.0
145
0.0
146
1.0
147
0.09
148
0.0
170
         0
171
         2
172
         0
173
         0
174
         0
175
         0
176
         0
177
         0
178
         0
179
         0
271
         4
272
         4
273
         2
274
         2
275
         0
276
         0
277
         2
278
        46
279
         0
280
         0
281
         0
282
         0
283
         1
284
         0
285
         0
286
         0
288
         0
289
         3
340
17
341
0
342
0
343
0
344
0
371
        -2
372
        -2
  0
ENDTAB
  0
TABLE
  2
BLOCK_RECORD
  5
1
100
AcDbSymbolTable
 70
        11
  0
BLOCK_RECORD
  5
A
100
AcDbSymbolTableRecord
100
AcDbBlockTableRecord
  2
*MODEL_SPACE
340
20
  0
BLOCK_RECORD
  5
B
100
AcDbSymbolTableRecord
100
AcDbBlockTableRecord
  2
*PAPER_SPACE
340
21
  0
BLOCK_RECORD
  5
94
100
AcDbSymbolTableRecord
100
AcDbBlockTableRecord
  2
D363520256
340
0
102
{BLKREFS
331
268
102
}
  0
BLOCK_RECORD
  5
9D
100
AcDbSymbolTableRecord
100
AcDbBlockTableRecord
  2
D363536128
340
0
102
{BLKREFS
331
273
102
}
  0
BLOCK_RECORD
  5
A6
100
AcDbSymbolTableRecord
100
AcDbBlockTableRecord
  2
D363535872
340
0
102
{BLKREFS
331
274
102
}
  0
BLOCK_RECORD
  5
AF
100
AcDbSymbolTableRecord
100
AcDbBlockTableRecord
  2
@2.5l
340
0
102
{BLKREFS
331
347
331
348
331
3F2
102
}
  0
BLOCK_RECORD
  5
B5
100
AcDbSymbolTableRecord
100
AcDbBlockTableRecord
  2
Ø3.5l
340
0
102
{BLKREFS
331
349
102
}
  0
BLOCK_RECORD
  5
BB
100
AcDbSymbolTableRecord
100
AcDbBlockTableRecord
  2
Ø4r
340
0
102
{BLKREFS
331
34A
102
}
  0
BLOCK_RECORD
  5
C1
100
AcDbSymbolTableRecord
100
AcDbBlockTableRecord
  2
Ø3l
340
0
102
{BLKREFS
331
355
102
}
  0
BLOCK_RECORD
  5
C7
100
AcDbSymbolTableRecord
100
AcDbBlockTableRecord
  2
X
340
0
102
{BLKREFS
331
383
331
384
331
385
331
386
331
387
331
388
102
}
  0
BLOCK_RECORD
  5
CC
100
AcDbSymbolTableRecord
100
AcDbBlockTableRecord
  2
D363606016
340
0
102
{BLKREFS
331
3ED
102
}
  0
BLOCK_RECORD
  5
D5
100
AcDbSymbolTableRecord
100
AcDbBlockTableRecord
  2
D363605504
340
0
102
{BLKREFS
331
408
102
}
  0
BLOCK_RECORD
  5
DE
100
AcDbSymbolTableRecord
100
AcDbBlockTableRecord
  2
D363605248
340
0
102
{BLKREFS
331
409
102
}
  0
ENDTAB
  0
ENDSEC
  0
SECTION
  2
BLOCKS
  0
BLOCK
  5
D
100
AcDbEntity
  8
0
390
0
100
AcDbBlockBegin
  2
*MODEL_SPACE
 70
         0
 10
0.0
 20
0.0
 30
0.0
  3
*MODEL_SPACE
  1

  0
ENDBLK
  5
E
100
AcDbEntity
  8
0
390
0
100
AcDbBlockEnd
  0
BLOCK
  5
F
100
AcDbEntity
 67
         1
  8
0
390
0
100
AcDbBlockBegin
  2
*PAPER_SPACE
 70
         0
 10
0.0
 20
0.0
 30
0.0
  3
*PAPER_SPACE
  1

  0
ENDBLK
  5
10
100
AcDbEntity
 67
         1
  8
0
390
0
100
AcDbBlockEnd
  0
BLOCK
  5
95
100
AcDbEntity
  8
BEMASSUNG
390
0
100
AcDbBlockBegin
  2
D363520256
 70
         0
 10
0.0
 20
0.0
 30
0.0
  3
D363520256
  1

  0
LINE
  5
96
100
AcDbEntity
  8
MASSLINIEN
390
0
 62
       172
100
AcDbLine
 10
126.2396960787
 20
265.2288104294
 30
0.0
 11
106.2396960787
 21
265.2288104294
 31
0.0
  0
LINE
  5
97
100
AcDbEntity
  8
MASSLINIEN
390
0
 62
       172
100
AcDbLine
 10
126.2396960787
 20
271.1476310808
 30
0.0
 11
126.2396960787
 21
263.2288104294
 31
0.0
  0
LINE
  5
98
100
AcDbEntity
  8
MASSLINIEN
390
0
 62
       172
100
AcDbLine
 10
106.2396960787
 20
272.1476310808
 30
0.0
 11
106.2396960787
 21
263.2288104294
 31
0.0
  0
SOLID
  5
99
100
AcDbEntity
  8
MASSGRENZEN
390
0
100
AcDbTrace
 10
126.2396960787
 20
265.2288104294
 30
0.0
 11
123.2653614946
 21
264.8372318527
 31
0.0
 12
123.2653614946
 22
265.6203890061
 32
0.0
 13
123.2653614946
 23
265.6203890061
 33
0.0
  0
SOLID
  5
9A
100
AcDbEntity
  8
MASSGRENZEN
390
0
100
AcDbTrace
 10
106.2396960787
 20
265.2288104294
 30
0.0
 11
109.2140306628
 21
265.6203890061
 31
0.0
 12
109.2140306628
 22
264.8372318527
 32
0.0
 13
109.2140306628
 23
264.8372318527
 33
0.0
  0
MTEXT
  5
9B
100
AcDbEntity
  8
MASSTEXTE
390
0
 62
       212
100
AcDbMText
 10
116.2396960787
 20
267.6848104294
 30
0.0
 40
2.0
 41
0.0
 71
         5
 72
         1
  1
\W1.135145;\A1;20
  7
Arial
 73
         0
 44
0.0
  0
ENDBLK
  5
9C
100
AcDbEntity
  8
0
390
0
100
AcDbBlockEnd
  0
BLOCK
  5
9E
100
AcDbEntity
  8
BEMASSUNG
390
0
100
AcDbBlockBegin
  2
D363536128
 70
         0
 10
0.0
 20
0.0
 30
0.0
  3
D363536128
  1

  0
LINE
  5
9F
100
AcDbEntity
  8
MASSLINIEN
390
0
 62
       172
100
AcDbLine
 10
94.5603416244
 20
245.1476310808
 30
0.0
 11
94.5603416244
 21
272.1476310808
 31
0.0
  0
LINE
  5
A0
100
AcDbEntity
  8
MASSLINIEN
390
0
 62
       172
100
AcDbLine
 10
106.2396960787
 20
245.1476310808
 30
0.0
 11
92.5603416244
 21
245.1476310808
 31
0.0
  0
LINE
  5
A1
100
AcDbEntity
  8
MASSLINIEN
390
0
 62
       172
100
AcDbLine
 10
106.2396960787
 20
272.1476310808
 30
0.0
 11
92.5603416244
 21
272.1476310808
 31
0.0
  0
SOLID
  5
A2
100
AcDbEntity
  8
MASSGRENZEN
390
0
100
AcDbTrace
 10
94.5603416244
 20
245.1476310808
 30
0.0
 11
94.1687630478
 21
248.1219656649
 31
0.0
 12
94.9519202011
 22
248.1219656649
 32
0.0
 13
94.9519202011
 23
248.1219656649
 33
0.0
  0
SOLID
  5
A3
100
AcDbEntity
  8
MASSGRENZEN
390
0
100
AcDbTrace
 10
94.5603416244
 20
272.1476310808
 30
0.0
 11
94.9519202011
 21
269.1732964967
 31
0.0
 12
94.1687630478
 22
269.1732964967
 32
0.0
 13
94.1687630478
 23
269.1732964967
 33
0.0
  0
MTEXT
  5
A4
100
AcDbEntity
  8
MASSTEXTE
390
0
 62
       212
100
AcDbMText
 10
92.1043416244
 20
258.6476310808
 30
0.0
 40
2.0
 41
0.0
 71
         5
 72
         1
  1
\W1.135145;\A1;27
  7
Arial
 11
0.0
 21
1.0
 31
0.0
 73
         0
 44
0.0
  0
ENDBLK
  5
A5
100
AcDbEntity
  8
0
390
0
100
AcDbBlockEnd
  0
BLOCK
  5
A7
100
AcDbEntity
  8
BEMASSUNG
390
0
100
AcDbBlockBegin
  2
D363535872
 70
         0
 10
0.0
 20
0.0
 30
0.0
  3
D363535872
  1

  0
LINE
  5
A8
100
AcDbEntity
  8
MASSLINIEN
390
0
 62
       172
100
AcDbLine
 10
94.6686903559
 20
202.9190956785
 30
0.0
 11
94.6686903559
 21
229.9190956785
 31
0.0
  0
LINE
  5
A9
100
AcDbEntity
  8
MASSLINIEN
390
0
 62
       172
100
AcDbLine
 10
106.3480448101
 20
202.9190956785
 30
0.0
 11
92.6686903559
 21
202.9190956785
 31
0.0
  0
LINE
  5
AA
100
AcDbEntity
  8
MASSLINIEN
390
0
 62
       172
100
AcDbLine
 10
106.3480448101
 20
229.9190956785
 30
0.0
 11
92.6686903559
 21
229.9190956785
 31
0.0
  0
SOLID
  5
AB
100
AcDbEntity
  8
MASSGRENZEN
390
0
100
AcDbTrace
 10
94.6686903559
 20
202.9190956785
 30
0.0
 11
94.2771117792
 21
205.8934302626
 31
0.0
 12
95.0602689325
 22
205.8934302626
 32
0.0
 13
95.0602689325
 23
205.8934302626
 33
0.0
  0
SOLID
  5
AC
100
AcDbEntity
  8
MASSGRENZEN
390
0
100
AcDbTrace
 10
94.6686903559
 20
229.9190956785
 30
0.0
 11
95.0602689325
 21
226.9447610944
 31
0.0
 12
94.2771117792
 22
226.9447610944
 32
0.0
 13
94.2771117792
 23
226.9447610944
 33
0.0
  0
MTEXT
  5
AD
100
AcDbEntity
  8
MASSTEXTE
390
0
 62
       212
100
AcDbMText
 10
92.2126903559
 20
216.4190956785
 30
0.0
 40
2.0
 41
0.0
 71
         5
 72
         1
  1
\W1.135145;\A1;27
  7
Arial
 11
0.0
 21
1.0
 31
0.0
 73
         0
 44
0.0
  0
ENDBLK
  5
AE
100
AcDbEntity
  8
0
390
0
100
AcDbBlockEnd
  0
BLOCK
  5
B0
100
AcDbEntity
  8
2050_1_2 GEHÄUSE
390
0
100
AcDbBlockBegin
  2
@2.5l
 70
        66
 10
76.2626396484
 20
279.0155115967
 30
0.0
  3
@2.5l
  1

  0
TEXT
  5
B1
100
AcDbEntity
  8
BESCHRIFTUNG
390
0
100
AcDbText
 10
67.193706041
 20
275.6266858863
 30
0.0
 40
2.0
  1
@2,5
 41
1.1351133816
  7
Arial
100
AcDbText
  0
LINE
  5
B2
100
AcDbEntity
  8
MITTELLINIEN
390
0
100
AcDbLine
 10
70.5126396484
 20
279.0155115967
 30
0.0
 11
82.0126396484
 21
279.0155115967
 31
0.0
  0
LINE
  5
B3
100
AcDbEntity
  8
MITTELLINIEN
390
0
100
AcDbLine
 10
76.2626396484
 20
273.2655115967
 30
0.0
 11
76.2626396484
 21
284.7655115967
 31
0.0
  0
ENDBLK
  5
B4
100
AcDbEntity
  8
0
390
0
100
AcDbBlockEnd
  0
BLOCK
  5
B6
100
AcDbEntity
  8
2050_1_2 GEHÄUSE
390
0
100
AcDbBlockBegin
  2
Ø3.5l
 70
        66
 10
71.3869983855
 20
226.5763514745
 30
0.0
  3
Ø3.5l
  1

  0
LINE
  5
B7
100
AcDbEntity
  8
MITTELLINIEN
390
0
100
AcDbLine
 10
65.6369983855
 20
226.5763514745
 30
0.0
 11
77.1369983855
 21
226.5763514745
 31
0.0
  0
LINE
  5
B8
100
AcDbEntity
  8
MITTELLINIEN
390
0
100
AcDbLine
 10
71.3869983855
 20
220.8263514745
 30
0.0
 11
71.3869983855
 21
232.3263514745
 31
0.0
  0
TEXT
  5
B9
100
AcDbEntity
  8
BESCHRIFTUNG
390
0
100
AcDbText
 10
62.6945098374
 20
223.1875257641
 30
0.0
 40
2.0
  1
Ø3,5
 41
1.1350860059
  7
Arial
100
AcDbText
  0
ENDBLK
  5
BA
100
AcDbEntity
  8
0
390
0
100
AcDbBlockEnd
  0
BLOCK
  5
BC
100
AcDbEntity
  8
2050_1_2 GEHÄUSE
390
0
100
AcDbBlockBegin
  2
Ø4r
 70
        66
 10
40.9370709961
 20
194.0989552734
 30
0.0
  3
Ø4r
  1

  0
TEXT
  5
BD
100
AcDbEntity
  8
BESCHRIFTUNG
390
0
100
AcDbText
 10
42.6954103943
 20
195.8903363422
 30
0.0
 40
2.0
  1
Ø4
 41
1.1350649007
  7
Arial
100
AcDbText
  0
LINE
  5
BE
100
AcDbEntity
  8
MITTELLINIEN
390
0
100
AcDbLine
 10
40.9370709961
 20
188.3489552734
 30
0.0
 11
40.9370709961
 21
199.8489552734
 31
0.0
  0
LINE
  5
BF
100
AcDbEntity
  8
MITTELLINIEN
390
0
100
AcDbLine
 10
35.1870709961
 20
194.0989552734
 30
0.0
 11
46.6870709961
 21
194.0989552734
 31
0.0
  0
ENDBLK
  5
C0
100
AcDbEntity
  8
0
390
0
100
AcDbBlockEnd
  0
BLOCK
  5
C2
100
AcDbEntity
  8
2050_1_2 GEHÄUSE
390
0
100
AcDbBlockBegin
  2
Ø3l
 70
        66
 10
223.4338185292
 20
352.4400991127
 30
0.0
  3
Ø3l
  1

  0
LINE
  5
C3
100
AcDbEntity
  8
MITTELLINIEN
390
0
100
AcDbLine
 10
223.4338185292
 20
346.6900991127
 30
0.0
 11
223.4338185292
 21
358.1900991127
 31
0.0
  0
LINE
  5
C4
100
AcDbEntity
  8
MITTELLINIEN
390
0
100
AcDbLine
 10
217.6838185292
 20
352.4400991127
 30
0.0
 11
229.1838185292
 21
352.4400991127
 31
0.0
  0
TEXT
  5
C5
100
AcDbEntity
  8
BESCHRIFTUNG
390
0
100
AcDbText
 10
216.9858897624
 20
354.2314801814
 30
0.0
 40
2.0
  1
Ø3
 41
1.1350649616
  7
Arial
100
AcDbText
  0
ENDBLK
  5
C6
100
AcDbEntity
  8
0
390
0
100
AcDbBlockEnd
  0
BLOCK
  5
C8
100
AcDbEntity
  8
2050_1R
390
0
100
AcDbBlockBegin
  2
X
 70
        66
 10
104.5547320313
 20
209.8532390625
 30
0.0
  3
X
  1

  0
LINE
  5
C9
100
AcDbEntity
  8
MITTELLINIEN
390
0
100
AcDbLine
 10
98.8047320313
 20
209.8532390625
 30
0.0
 11
110.3047320313
 21
209.8532390625
 31
0.0
  0
LINE
  5
CA
100
AcDbEntity
  8
MITTELLINIEN
390
0
100
AcDbLine
 10
104.5547320313
 20
204.1032390625
 30
0.0
 11
104.5547320313
 21
215.6032390625
 31
0.0
  0
ENDBLK
  5
CB
100
AcDbEntity
  8
0
390
0
100
AcDbBlockEnd
  0
BLOCK
  5
CD
100
AcDbEntity
  8
BEMASSUNG
390
0
100
AcDbBlockBegin
  2
D363606016
 70
         0
 10
0.0
 20
0.0
 30
0.0
  3
D363606016
  1

  0
LINE
  5
CE
100
AcDbEntity
  8
MASSLINIEN
390
0
 62
       172
100
AcDbLine
 10
137.2966061345
 20
175.7260599428
 30
0.0
 11
187.2966061345
 21
175.7260599428
 31
0.0
  0
LINE
  5
CF
100
AcDbEntity
  8
MASSLINIEN
390
0
 62
       172
100
AcDbLine
 10
137.2966061345
 20
181.4889433025
 30
0.0
 11
137.2966061345
 21
173.7260599428
 31
0.0
  0
LINE
  5
D0
100
AcDbEntity
  8
MASSLINIEN
390
0
 62
       172
100
AcDbLine
 10
187.2966061345
 20
197.5100693429
 30
0.0
 11
187.2966061345
 21
173.7260599428
 31
0.0
  0
SOLID
  5
D1
100
AcDbEntity
  8
MASSGRENZEN
390
0
100
AcDbTrace
 10
137.2966061345
 20
175.7260599428
 30
0.0
 11
140.2709407186
 21
176.1176385195
 31
0.0
 12
140.2709407186
 22
175.3344813661
 32
0.0
 13
140.2709407186
 23
175.3344813661
 33
0.0
  0
SOLID
  5
D2
100
AcDbEntity
  8
MASSGRENZEN
390
0
100
AcDbTrace
 10
187.2966061345
 20
175.7260599428
 30
0.0
 11
184.3222715504
 21
175.3344813661
 31
0.0
 12
184.3222715504
 22
176.1176385195
 32
0.0
 13
184.3222715504
 23
176.1176385195
 33
0.0
  0
MTEXT
  5
D3
100
AcDbEntity
  8
MASSTEXTE
390
0
 62
       212
100
AcDbMText
 10
162.2966061345
 20
178.1820599428
 30
0.0
 40
2.0
 41
0.0
 71
         5
 72
         1
  1
\W1.135145;\A1;50
  7
Arial
 73
         0
 44
0.0
  0
ENDBLK
  5
D4
100
AcDbEntity
  8
0
390
0
100
AcDbBlockEnd
  0
BLOCK
  5
D6
100
AcDbEntity
  8
BEMASSUNG
390
0
100
AcDbBlockBegin
  2
D363605504
 70
         0
 10
0.0
 20
0.0
 30
0.0
  3
D363605504
  1

  0
LINE
  5
D7
100
AcDbEntity
  8
MASSLINIEN
390
0
 62
       172
100
AcDbLine
 10
94.8720585878
 20
102.9713128751
 30
0.0
 11
94.8720585878
 21
70.4713128751
 31
0.0
  0
LINE
  5
D8
100
AcDbEntity
  8
MASSLINIEN
390
0
 62
       172
100
AcDbLine
 10
105.1020334624
 20
102.9713128751
 30
0.0
 11
92.8720585878
 21
102.9713128751
 31
0.0
  0
LINE
  5
D9
100
AcDbEntity
  8
MASSLINIEN
390
0
 62
       172
100
AcDbLine
 10
105.1020334624
 20
70.4713128751
 30
0.0
 11
92.8720585878
 21
70.4713128751
 31
0.0
  0
SOLID
  5
DA
100
AcDbEntity
  8
MASSGRENZEN
390
0
100
AcDbTrace
 10
94.8720585878
 20
102.9713128751
 30
0.0
 11
95.2636371645
 21
99.996978291
 31
0.0
 12
94.4804800111
 22
99.996978291
 32
0.0
 13
94.4804800111
 23
99.996978291
 33
0.0
  0
SOLID
  5
DB
100
AcDbEntity
  8
MASSGRENZEN
390
0
100
AcDbTrace
 10
94.8720585878
 20
70.4713128751
 30
0.0
 11
94.4804800111
 21
73.4456474592
 31
0.0
 12
95.2636371645
 22
73.4456474592
 32
0.0
 13
95.2636371645
 23
73.4456474592
 33
0.0
  0
MTEXT
  5
DC
100
AcDbEntity
  8
MASSTEXTE
390
0
 62
       212
100
AcDbMText
 10
92.4160585878
 20
86.7213128751
 30
0.0
 40
2.0
 41
0.0
 71
         5
 72
         1
  1
\W1.135134;\A1;32.5
  7
Arial
 11
0.0
 21
1.0
 31
0.0
 73
         0
 44
0.0
  0
ENDBLK
  5
DD
100
AcDbEntity
  8
0
390
0
100
AcDbBlockEnd
  0
BLOCK
  5
DF
100
AcDbEntity
  8
BEMASSUNG
390
0
100
AcDbBlockBegin
  2
D363605248
 70
         0
 10
0.0
 20
0.0
 30
0.0
  3
D363605248
  1

  0
LINE
  5
E0
100
AcDbEntity
  8
MASSLINIEN
390
0
 62
       172
100
AcDbLine
 10
104.6121808819
 20
40.3724740484
 30
0.0
 11
100.6121808819
 21
40.3724740484
 31
0.0
  0
LINE
  5
E1
100
AcDbEntity
  8
MASSLINIEN
390
0
 62
       172
100
AcDbLine
 10
104.6121808819
 20
55.4715647748
 30
0.0
 11
104.6121808819
 21
38.3724740484
 31
0.0
  0
LINE
  5
E2
100
AcDbEntity
  8
MASSLINIEN
390
0
 62
       172
100
AcDbLine
 10
100.6121808819
 20
56.4715647748
 30
0.0
 11
100.6121808819
 21
38.3724740484
 31
0.0
  0
LINE
  5
E3
100
AcDbEntity
  8
MASSLINIEN
390
0
 62
       172
100
AcDbLine
 10
104.6121808819
 20
40.3724740484
 30
0.0
 11
112.504738939
 21
40.3724740484
 31
0.0
  0
LINE
  5
E4
100
AcDbEntity
  8
MASSLINIEN
390
0
 62
       172
100
AcDbLine
 10
100.6121808819
 20
40.3724740484
 30
0.0
 11
94.5735117136
 21
40.3724740484
 31
0.0
  0
SOLID
  5
E5
100
AcDbEntity
  8
MASSGRENZEN
390
0
100
AcDbTrace
 10
104.6121808819
 20
40.3724740484
 30
0.0
 11
107.586515466
 21
40.7640526251
 31
0.0
 12
107.586515466
 22
39.9808954718
 32
0.0
 13
107.586515466
 23
39.9808954718
 33
0.0
  0
SOLID
  5
E6
100
AcDbEntity
  8
MASSGRENZEN
390
0
100
AcDbTrace
 10
100.6121808819
 20
40.3724740484
 30
0.0
 11
97.6378462977
 21
39.9808954718
 31
0.0
 12
97.6378462977
 22
40.7640526251
 32
0.0
 13
97.6378462977
 23
40.7640526251
 33
0.0
  0
MTEXT
  5
E7
100
AcDbEntity
  8
MASSTEXTE
390
0
 62
       212
100
AcDbMText
 10
111.5327944945
 20
42.8284740484
 30
0.0
 40
2.0
 41
0.0
 71
         5
 72
         1
  1
\W1.135145;\A1;4
  7
Arial
 73
         0
 44
0.0
  0
ENDBLK
  5
E8
100
AcDbEntity
  8
0
390
0
100
AcDbBlockEnd
  0
ENDSEC
  0
SECTION
  2
ENTITIES
  0
LINE
  5
E9
100
AcDbEntity
  8
2051_1-4 SCHLÜSSEL
390
0
100
AcDbLine
 10
106.3480448101
 20
214.1690956785
 30
0.0
 11
106.3480448101
 21
203.9190956785
 31
0.0
  0
LINE
  5
EA
100
AcDbEntity
  8
2051_1-4 SCHLÜSSEL
390
0
100
AcDbLine
 10
112.8480448101
 20
214.1690956785
 30
0.0
 11
112.8480448101
 21
215.1690956785
 31
0.0
  0
LINE
  5
EB
100
AcDbEntity
  8
2051_1-4 SCHLÜSSEL
390
0
100
AcDbLine
 10
106.3480448101
 20
214.1690956785
 30
0.0
 11
112.8480448101
 21
214.1690956785
 31
0.0
  0
LINE
  5
EC
100
AcDbEntity
  8
2051_1-4 SCHLÜSSEL
390
0
100
AcDbLine
 10
106.3480448101
 20
217.6690956785
 30
0.0
 11
106.3480448101
 21
215.1690956785
 31
0.0
  0
LINE
  5
ED
100
AcDbEntity
  8
2051_1-4 SCHLÜSSEL
390
0
100
AcDbLine
 10
112.8480448101
 20
218.6690956785
 30
0.0
 11
112.8480448101
 21
217.6690956785
 31
0.0
  0
LINE
  5
EE
100
AcDbEntity
  8
2051_1-4 SCHLÜSSEL
390
0
100
AcDbLine
 10
112.8480448101
 20
217.6690956785
 30
0.0
 11
106.3480448101
 21
217.6690956785
 31
0.0
  0
LINE
  5
EF
100
AcDbEntity
  8
2051_1-4 SCHLÜSSEL
390
0
100
AcDbLine
 10
112.8480448101
 20
218.6690956785
 30
0.0
 11
106.3480448101
 21
218.6690956785
 31
0.0
  0
LINE
  5
F0
100
AcDbEntity
  8
2051_1-4 SCHLÜSSEL
390
0
100
AcDbLine
 10
106.3480448101
 20
228.9190956785
 30
0.0
 11
106.3480448101
 21
218.6690956785
 31
0.0
  0
LINE
  5
F1
100
AcDbEntity
  8
2051_1-4 SCHLÜSSEL
390
0
100
AcDbLine
 10
112.8480448101
 20
215.1690956785
 30
0.0
 11
106.3480448101
 21
215.1690956785
 31
0.0
  0
LINE
  5
F2
100
AcDbEntity
  8
2051_1-4 SCHLÜSSEL
390
0
100
AcDbLine
 10
126.2396960787
 20
246.1476310808
 30
0.0
 11
106.2396960787
 21
246.1476310808
 31
0.0
  0
LINE
  5
F3
100
AcDbEntity
  8
2051_1-4 SCHLÜSSEL
390
0
100
AcDbLine
 10
126.2396960787
 20
271.1476310808
 30
0.0
 11
126.2396960787
 21
246.1476310808
 31
0.0
  0
LINE
  5
F4
100
AcDbEntity
  8
2051_1-4 SCHLÜSSEL
390
0
100
AcDbLine
 10
106.2396960787
 20
256.3976310808
 30
0.0
 11
106.2396960787
 21
246.1476310808
 31
0.0
  0
LINE
  5
F5
100
AcDbEntity
  8
2051_1-4 SCHLÜSSEL
390
0
100
AcDbLine
 10
112.7396960787
 20
256.3976310808
 30
0.0
 11
112.7396960787
 21
257.3976310808
 31
0.0
  0
LINE
  5
F6
100
AcDbEntity
  8
2051_1-4 SCHLÜSSEL
390
0
100
AcDbLine
 10
106.2396960787
 20
256.3976310808
 30
0.0
 11
112.7396960787
 21
256.3976310808
 31
0.0
  0
LINE
  5
F7
100
AcDbEntity
  8
2051_1-4 SCHLÜSSEL
390
0
100
AcDbLine
 10
106.2396960787
 20
259.8976310808
 30
0.0
 11
106.2396960787
 21
257.3976310808
 31
0.0
  0
LINE
  5
F8
100
AcDbEntity
  8
2051_1-4 SCHLÜSSEL
390
0
100
AcDbLine
 10
112.7396960787
 20
260.8976310808
 30
0.0
 11
112.7396960787
 21
259.8976310808
 31
0.0
  0
LINE
  5
F9
100
AcDbEntity
  8
2051_1-4 SCHLÜSSEL
390
0
100
AcDbLine
 10
112.7396960787
 20
259.8976310808
 30
0.0
 11
106.2396960787
 21
259.8976310808
 31
0.0
  0
LINE
  5
FA
100
AcDbEntity
  8
2051_1-4 SCHLÜSSEL
390
0
100
AcDbLine
 10
112.7396960787
 20
260.8976310808
 30
0.0
 11
106.2396960787
 21
260.8976310808
 31
0.0
  0
LINE
  5
FB
100
AcDbEntity
  8
2051_1-4 SCHLÜSSEL
390
0
100
AcDbLine
 10
106.2396960787
 20
271.1476310808
 30
0.0
 11
106.2396960787
 21
260.8976310808
 31
0.0
  0
TEXT
  5
FC
100
AcDbEntity
  8
BESCHRIFTUNG
390
0
100
AcDbText
 10
125.6505154188
 20
226.0994646256
 30
0.0
 40
2.0
  1
Ø2,5
 50
270.0
 41
1.135085781
  7
Arial
100
AcDbText
  0
TEXT
  5
FD
100
AcDbEntity
  8
BESCHRIFTUNG
390
0
100
AcDbText
 10
123.523648288
 20
257.417024154
 30
0.0
 40
2.0
  1
Ø2,5
 50
270.0
 41
1.135085781
  7
Arial
100
AcDbText
  0
LINE
  5
FE
100
AcDbEntity
  8
2051_1-4 SCHLÜSSEL
390
0
100
AcDbLine
 10
112.7396960787
 20
257.3976310808
 30
0.0
 11
106.2396960787
 21
257.3976310808
 31
0.0
  0
LINE
  5
FF
100
AcDbEntity
  8
2051_1-4 SCHLÜSSEL
390
0
100
AcDbLine
 10
126.2396960787
 20
271.1476310808
 30
0.0
 11
106.2396960787
 21
271.1476310808
 31
0.0
  0
LINE
  5
100
100
AcDbEntity
  8
MITTELLINIEN
390
0
100
AcDbLine
 10
122.84170769
 20
222.1690956785
 30
0.0
 11
122.84170769
 21
210.6690956785
 31
0.0
  0
LINE
  5
101
100
AcDbEntity
  8
MITTELLINIEN
390
0
100
AcDbLine
 10
117.09170769
 20
216.4190956785
 30
0.0
 11
128.59170769
 21
216.4190956785
 31
0.0
  0
LINE
  5
102
100
AcDbEntity
  8
MITTELLINIEN
390
0
100
AcDbLine
 10
122.7333589586
 20
264.3976310808
 30
0.0
 11
122.7333589586
 21
252.8976310808
 31
0.0
  0
LINE
  5
103
100
AcDbEntity
  8
MITTELLINIEN
390
0
100
AcDbLine
 10
116.9833589586
 20
258.6476310808
 30
0.0
 11
128.4833589586
 21
258.6476310808
 31
0.0
  0
CIRCLE
  5
104
100
AcDbEntity
  8
2051_3A
370
         0
390
0
100
AcDbCircle
 10
142.2966061345
 20
187.4889433025
 30
0.0
 40
2.0
  0
LINE
  5
105
100
AcDbEntity
  8
2051_1-4 SCHLÜSSEL
390
0
100
AcDbLine
 10
181.2966061345
 20
188.2389433025
 30
0.0
 11
181.2966061345
 21
195.4889433025
 31
0.0
  0
LINE
  5
106
100
AcDbEntity
  8
2051_1-4 SCHLÜSSEL
390
0
100
AcDbLine
 10
184.2966061345
 20
195.4889433025
 30
0.0
 11
184.2966061345
 21
197.9889433025
 31
0.0
  0
LINE
  5
107
100
AcDbEntity
  8
2051_1-4 SCHLÜSSEL
390
0
100
AcDbLine
 10
181.2966061345
 20
195.4889433025
 30
0.0
 11
184.2966061345
 21
195.4889433025
 31
0.0
  0
LINE
  5
108
100
AcDbEntity
  8
2051_1-4 SCHLÜSSEL
390
0
100
AcDbLine
 10
173.7966061345
 20
191.4889433025
 30
0.0
 11
173.7966061345
 21
192.2389433025
 31
0.0
  0
LINE
  5
109
100
AcDbEntity
  8
2051_1-4 SCHLÜSSEL
390
0
100
AcDbLine
 10
168.7966061345
 20
191.4889433025
 30
0.0
 11
168.7966061345
 21
195.4889433025
 31
0.0
  0
LINE
  5
10A
100
AcDbEntity
  8
2051_1-4 SCHLÜSSEL
390
0
100
AcDbLine
 10
142.7966061345
 20
195.4889433025
 30
0.0
 11
142.7966061345
 21
197.9889433025
 31
0.0
  0
LINE
  5
10B
100
AcDbEntity
  8
2051_1-4 SCHLÜSSEL
390
0
100
AcDbLine
 10
178.7966061345
 20
188.2389433025
 30
0.0
 11
181.2966061345
 21
188.2389433025
 31
0.0
  0
LINE
  5
10C
100
AcDbEntity
  8
2051_1-4 SCHLÜSSEL
390
0
100
AcDbLine
 10
142.7966061345
 20
195.4889433025
 30
0.0
 11
168.7966061345
 21
195.4889433025
 31
0.0
  0
LINE
  5
10D
100
AcDbEntity
  8
2051_1-4 SCHLÜSSEL
390
0
100
AcDbLine
 10
142.7966061345
 20
197.9889433025
 30
0.0
 11
184.2966061345
 21
197.9889433025
 31
0.0
  0
LINE
  5
10E
100
AcDbEntity
  8
2051_1-4 SCHLÜSSEL
390
0
100
AcDbLine
 10
178.7966061345
 20
188.2389433025
 30
0.0
 11
178.7966061345
 21
189.4889433025
 31
0.0
  0
LINE
  5
10F
100
AcDbEntity
  8
2050_5_6 BESATZUNG
370
         0
390
0
100
AcDbLine
 10
137.2966061345
 20
191.9889433025
 30
0.0
 11
137.2966061345
 21
182.4889433025
 31
0.0
  0
LINE
  5
110
100
AcDbEntity
  8
2050_5_6 BESATZUNG
370
         0
390
0
100
AcDbLine
 10
158.2966061345
 20
191.9889433025
 30
0.0
 11
137.2966061345
 21
191.9889433025
 31
0.0
  0
LINE
  5
111
100
AcDbEntity
  8
2050_5_6 BESATZUNG
370
         0
390
0
100
AcDbLine
 10
137.2966061345
 20
182.4889433025
 30
0.0
 11
160.2966061345
 21
182.4889433025
 31
0.0
  0
TEXT
  5
112
100
AcDbEntity
  8
BESCHRIFTUNG
390
0
100
AcDbText
 10
146.1037206561
 20
183.4499800416
 30
0.0
 40
2.5
  1
2050.5A
 41
0.9081105319
  7
Arial
100
AcDbText
  0
TEXT
  5
113
100
AcDbEntity
  8
BESCHRIFTUNG
390
0
100
AcDbText
 10
169.3307460506
 20
178.6476573329
 30
0.0
 40
3.0
  1
2200
 41
1.1351447168
  7
Arial
100
AcDbText
  0
TEXT
  5
114
100
AcDbEntity
  8
BESCHRIFTUNG
390
0
100
AcDbText
 10
169.2480019761
 20
143.6476573329
 30
0.0
 40
3.0
  1
2110
 41
1.1351450821
  7
Arial
100
AcDbText
  0
TEXT
  5
115
100
AcDbEntity
  8
BESCHRIFTUNG
390
0
100
AcDbText
 10
169.1652579016
 20
109.1104687802
 30
0.0
 40
3.0
  1
2101
 41
1.1351450821
  7
Arial
100
AcDbText
  0
TEXT
  5
116
100
AcDbEntity
  8
BESCHRIFTUNG
390
0
100
AcDbText
 10
169.201500454
 20
74.2993708143
 30
0.0
 40
3.0
  1
2020
 41
1.1351447168
  7
Arial
100
AcDbText
  0
TEXT
  5
117
100
AcDbEntity
  8
BESCHRIFTUNG
390
0
100
AcDbText
 10
168.9997697527
 20
38.3976573329
 30
0.0
 40
3.0
  1
2011
 41
1.1348803794
  7
Arial
100
AcDbText
  0
LINE
  5
118
100
AcDbEntity
  8
2051_1-4 SCHLÜSSEL
390
0
100
AcDbLine
 10
171.2966061345
 20
189.4889433025
 30
0.0
 11
169.2966061345
 21
189.4889433025
 31
0.0
  0
LINE
  5
119
100
AcDbEntity
  8
2051_1-4 SCHLÜSSEL
390
0
100
AcDbLine
 10
173.7966061345
 20
189.9889433025
 30
0.0
 11
173.7966061345
 21
191.4889433025
 31
0.0
  0
LINE
  5
11A
100
AcDbEntity
  8
2051_1-4 SCHLÜSSEL
390
0
100
AcDbLine
 10
173.2966061345
 20
189.4889433025
 30
0.0
 11
171.2966061345
 21
189.4889433025
 31
0.0
  0
LINE
  5
11B
100
AcDbEntity
  8
2051_1-4 SCHLÜSSEL
390
0
100
AcDbLine
 10
176.2966061345
 20
193.4889433025
 30
0.0
 11
175.0466061345
 21
193.4889433025
 31
0.0
  0
LINE
  5
11C
100
AcDbEntity
  8
2051_1-4 SCHLÜSSEL
390
0
100
AcDbLine
 10
168.7966061345
 20
189.9889433025
 30
0.0
 11
168.7966061345
 21
191.4889433025
 31
0.0
  0
ARC
  5
11D
100
AcDbEntity
  8
2051_1-4 SCHLÜSSEL
390
0
100
AcDbCircle
 10
169.2966061345
 20
189.9889433025
 30
0.0
 40
0.5
100
AcDbArc
 50
180.0
 51
270.0
  0
ARC
  5
11E
100
AcDbEntity
  8
2051_1-4 SCHLÜSSEL
390
0
100
AcDbCircle
 10
175.0466061345
 20
192.2389433025
 30
0.0
 40
1.25
100
AcDbArc
 50
90.0
 51
180.0
  0
ARC
  5
11F
100
AcDbEntity
  8
2051_1-4 SCHLÜSSEL
390
0
100
AcDbCircle
 10
173.2966061345
 20
189.9889433025
 30
0.0
 40
0.5
100
AcDbArc
 50
270.0
 51
360.0
  0
LINE
  5
120
100
AcDbEntity
  8
2051_1-4 SCHLÜSSEL
390
0
100
AcDbLine
 10
178.7966061345
 20
189.4889433025
 30
0.0
 11
178.7966061345
 21
191.4889433025
 31
0.0
  0
ARC
  5
121
100
AcDbEntity
  8
2051_1-4 SCHLÜSSEL
390
0
100
AcDbCircle
 10
177.5466061345
 20
192.2389433025
 30
0.0
 40
1.25
100
AcDbArc
 50
360.0
 51
450.0
  0
LINE
  5
122
100
AcDbEntity
  8
2051_1-4 SCHLÜSSEL
390
0
100
AcDbLine
 10
177.5466061345
 20
193.4889433025
 30
0.0
 11
176.2966061345
 21
193.4889433025
 31
0.0
  0
LINE
  5
123
100
AcDbEntity
  8
2051_1-4 SCHLÜSSEL
390
0
100
AcDbLine
 10
178.7966061345
 20
191.4889433025
 30
0.0
 11
178.7966061345
 21
192.2389433025
 31
0.0
  0
LINE
  5
124
100
AcDbEntity
  8
2050_5_6 BESATZUNG
370
         0
390
0
100
AcDbLine
 10
162.2966061345
 20
184.4889433025
 30
0.0
 11
162.2966061345
 21
186.4889433025
 31
0.0
  0
LINE
  5
125
100
AcDbEntity
  8
2050_5_6 BESATZUNG
370
         0
390
0
100
AcDbLine
 10
160.2966061345
 20
186.9889433025
 30
0.0
 11
161.7966061345
 21
186.9889433025
 31
0.0
  0
ARC
  5
126
100
AcDbEntity
  8
2050_5_6 BESATZUNG
390
0
100
AcDbCircle
 10
161.7966061345
 20
186.4889433025
 30
0.0
 40
0.5
100
AcDbArc
 50
360.0
 51
450.0
  0
LINE
  5
127
100
AcDbEntity
  8
2050_5_6 BESATZUNG
370
         0
390
0
100
AcDbLine
 10
162.2966061345
 20
182.9889433025
 30
0.0
 11
162.2966061345
 21
184.4889433025
 31
0.0
  0
LINE
  5
128
100
AcDbEntity
  8
2050_5_6 BESATZUNG
370
         0
390
0
100
AcDbLine
 10
161.7966061345
 20
182.4889433025
 30
0.0
 11
160.2966061345
 21
182.4889433025
 31
0.0
  0
ARC
  5
129
100
AcDbEntity
  8
2050_5_6 BESATZUNG
390
0
100
AcDbCircle
 10
161.7966061345
 20
182.9889433025
 30
0.0
 40
0.5
100
AcDbArc
 50
270.0
 51
360.0
  0
LINE
  5
12A
100
AcDbEntity
  8
2050_5_6 BESATZUNG
370
         0
390
0
100
AcDbLine
 10
160.2966061345
 20
182.4889433025
 30
0.0
 11
158.2966061345
 21
182.4889433025
 31
0.0
  0
LINE
  5
12B
100
AcDbEntity
  8
2050_5_6 BESATZUNG
370
         0
390
0
100
AcDbLine
 10
159.5466061345
 20
186.9889433025
 30
0.0
 11
160.2966061345
 21
186.9889433025
 31
0.0
  0
ARC
  5
12C
100
AcDbEntity
  8
2050_5_6 BESATZUNG
390
0
100
AcDbCircle
 10
159.5466061345
 20
188.2389433025
 30
0.0
 40
1.25
100
AcDbArc
 50
180.0
 51
270.0
  0
LINE
  5
12D
100
AcDbEntity
  8
2050_5_6 BESATZUNG
370
         0
390
0
100
AcDbLine
 10
158.2966061345
 20
188.2389433025
 30
0.0
 11
158.2966061345
 21
189.7389433025
 31
0.0
  0
LINE
  5
12E
100
AcDbEntity
  8
2050_5_6 BESATZUNG
370
         0
390
0
100
AcDbLine
 10
158.2966061345
 20
189.7389433025
 30
0.0
 11
158.2966061345
 21
191.9889433025
 31
0.0
  0
ARC
  5
12F
100
AcDbEntity
  8
2050_5_6 BESATZUNG
390
0
100
AcDbCircle
 10
161.5466061345
 20
118.2389433025
 30
0.0
 40
1.25
100
AcDbArc
 50
180.0
 51
270.0
  0
ARC
  5
130
100
AcDbEntity
  8
2050_5_6 BESATZUNG
390
0
100
AcDbCircle
 10
161.5466061345
 20
113.7389433025
 30
0.0
 40
1.25
100
AcDbArc
 50
90.0
 51
180.0
  0
CIRCLE
  5
131
100
AcDbEntity
  8
2051_3C
370
         0
390
0
100
AcDbCircle
 10
142.2966061345
 20
117.4889433025
 30
0.0
 40
2.0
  0
LINE
  5
132
100
AcDbEntity
  8
2050_5_6 BESATZUNG
370
         0
390
0
100
AcDbLine
 10
158.2966061345
 20
120.7389433025
 30
0.0
 11
158.2966061345
 21
121.9889433025
 31
0.0
  0
LINE
  5
133
100
AcDbEntity
  8
2050_5_6 BESATZUNG
370
         0
390
0
100
AcDbLine
 10
159.7966061345
 20
112.4889433025
 30
0.0
 11
158.2966061345
 21
112.4889433025
 31
0.0
  0
LINE
  5
134
100
AcDbEntity
  8
2050_5_6 BESATZUNG
370
         0
390
0
100
AcDbLine
 10
160.2966061345
 20
112.9889433025
 30
0.0
 11
160.2966061345
 21
113.7389433025
 31
0.0
  0
ARC
  5
135
100
AcDbEntity
  8
2050_5_6 BESATZUNG
390
0
100
AcDbCircle
 10
159.5466061345
 20
120.7389433025
 30
0.0
 40
1.25
100
AcDbArc
 50
180.0
 51
270.0
  0
ARC
  5
136
100
AcDbEntity
  8
2050_5_6 BESATZUNG
390
0
100
AcDbCircle
 10
161.7966061345
 20
116.4889433025
 30
0.0
 40
0.5
100
AcDbArc
 50
360.0
 51
450.0
  0
ARC
  5
137
100
AcDbEntity
  8
2050_5_6 BESATZUNG
390
0
100
AcDbCircle
 10
161.7966061345
 20
115.4889433025
 30
0.0
 40
0.5
100
AcDbArc
 50
270.0
 51
360.0
  0
LINE
  5
138
100
AcDbEntity
  8
2050_5_6 BESATZUNG
370
         0
390
0
100
AcDbLine
 10
162.2966061345
 20
115.4889433025
 30
0.0
 11
162.2966061345
 21
116.4889433025
 31
0.0
  0
LINE
  5
139
100
AcDbEntity
  8
2050_5_6 BESATZUNG
370
         0
390
0
100
AcDbLine
 10
161.5466061345
 20
116.9889433025
 30
0.0
 11
161.7966061345
 21
116.9889433025
 31
0.0
  0
LINE
  5
13A
100
AcDbEntity
  8
2050_5_6 BESATZUNG
370
         0
390
0
100
AcDbLine
 10
161.7966061345
 20
114.9889433025
 30
0.0
 11
161.5466061345
 21
114.9889433025
 31
0.0
  0
ARC
  5
13B
100
AcDbEntity
  8
2050_5_6 BESATZUNG
390
0
100
AcDbCircle
 10
159.7966061345
 20
118.9889433025
 30
0.0
 40
0.5
100
AcDbArc
 50
360.0
 51
450.0
  0
ARC
  5
13C
100
AcDbEntity
  8
2050_5_6 BESATZUNG
390
0
100
AcDbCircle
 10
159.7966061345
 20
112.9889433025
 30
0.0
 40
0.5
100
AcDbArc
 50
270.0
 51
360.0
  0
TEXT
  5
13D
100
AcDbEntity
  8
BESCHRIFTUNG
390
0
100
AcDbText
 10
169.8383308191
 20
135.9221077117
 30
0.0
 40
2.5
  1
2051.3C
 41
1.1350995518
  7
Arial
 72
         1
 11
178.3515774577
 21
137.1721077117
 31
0.0
100
AcDbText
 73
         2
  0
TEXT
  5
13E
100
AcDbEntity
  8
BESCHRIFTUNG
390
0
100
AcDbText
 10
146.1037206561
 20
113.4499800416
 30
0.0
 40
2.5
  1
2050.5C
 41
0.9081110249
  7
Arial
100
AcDbText
  0
MTEXT
  5
13F
100
AcDbEntity
  8
BESCHRIFTUNG
390
0
100
AcDbMText
 10
164.5667662949
 20
121.9591037749
 30
0.0
 40
1.8
 41
0.0
 71
         2
 72
         1
  1
\W1.135146;a\Pb\Pc\Pd
  7
Arial
 73
         1
 44
0.8333333333
  0
LINE
  5
140
100
AcDbEntity
  8
2051_1-4 SCHLÜSSEL
390
0
100
AcDbLine
 10
181.2966061345
 20
118.2389433025
 30
0.0
 11
181.2966061345
 21
125.4889433025
 31
0.0
  0
LINE
  5
141
100
AcDbEntity
  8
2051_1-4 SCHLÜSSEL
390
0
100
AcDbLine
 10
181.2966061345
 20
125.4889433025
 30
0.0
 11
184.2966061345
 21
125.4889433025
 31
0.0
  0
LINE
  5
142
100
AcDbEntity
  8
2051_1-4 SCHLÜSSEL
390
0
100
AcDbLine
 10
173.7966061345
 20
121.9889433025
 30
0.0
 11
173.7966061345
 21
122.2389433025
 31
0.0
  0
LINE
  5
143
100
AcDbEntity
  8
2051_1-4 SCHLÜSSEL
390
0
100
AcDbLine
 10
168.7966061345
 20
121.4889433025
 30
0.0
 11
168.7966061345
 21
125.4889433025
 31
0.0
  0
LINE
  5
144
100
AcDbEntity
  8
2051_1-4 SCHLÜSSEL
390
0
100
AcDbLine
 10
142.7966061345
 20
125.4889433025
 30
0.0
 11
142.7966061345
 21
127.9889433025
 31
0.0
  0
LINE
  5
145
100
AcDbEntity
  8
2051_1-4 SCHLÜSSEL
390
0
100
AcDbLine
 10
178.7966061345
 20
118.2389433025
 30
0.0
 11
181.2966061345
 21
118.2389433025
 31
0.0
  0
LINE
  5
146
100
AcDbEntity
  8
2051_1-4 SCHLÜSSEL
390
0
100
AcDbLine
 10
142.7966061345
 20
125.4889433025
 30
0.0
 11
168.7966061345
 21
125.4889433025
 31
0.0
  0
LINE
  5
147
100
AcDbEntity
  8
2051_1-4 SCHLÜSSEL
390
0
100
AcDbLine
 10
142.7966061345
 20
127.9889433025
 30
0.0
 11
184.2966061345
 21
127.9889433025
 31
0.0
  0
LINE
  5
148
100
AcDbEntity
  8
2051_1-4 SCHLÜSSEL
390
0
100
AcDbLine
 10
178.7966061345
 20
118.2389433025
 30
0.0
 11
178.7966061345
 21
119.4889433025
 31
0.0
  0
LINE
  5
149
100
AcDbEntity
  8
2050_5_6 BESATZUNG
370
         0
390
0
100
AcDbLine
 10
137.2966061345
 20
121.9889433025
 30
0.0
 11
137.2966061345
 21
112.4889433025
 31
0.0
  0
LINE
  5
14A
100
AcDbEntity
  8
2050_5_6 BESATZUNG
370
         0
390
0
100
AcDbLine
 10
158.2966061345
 20
121.9889433025
 30
0.0
 11
137.2966061345
 21
121.9889433025
 31
0.0
  0
LINE
  5
14B
100
AcDbEntity
  8
2050_5_6 BESATZUNG
370
         0
390
0
100
AcDbLine
 10
137.2966061345
 20
112.4889433025
 30
0.0
 11
159.7966061345
 21
112.4889433025
 31
0.0
  0
LINE
  5
14C
100
AcDbEntity
  8
MITTELLINIEN
390
0
100
AcDbLine
 10
187.2966061345
 20
109.4903063607
 30
0.0
 11
187.2966061345
 21
132.5100693429
 31
0.0
  0
ARC
  5
14D
100
AcDbEntity
  8
2051_1-4 SCHLÜSSEL
390
0
100
AcDbCircle
 10
170.7966061345
 20
119.9889433025
 30
0.0
 40
0.5
100
AcDbArc
 50
270.0
 51
360.0
  0
ARC
  5
14E
100
AcDbEntity
  8
2051_1-4 SCHLÜSSEL
390
0
100
AcDbCircle
 10
172.5466061345
 20
120.2389433025
 30
0.0
 40
1.25
100
AcDbArc
 50
90.0
 51
180.0
  0
ARC
  5
14F
100
AcDbEntity
  8
2051_1-4 SCHLÜSSEL
390
0
100
AcDbCircle
 10
175.0466061345
 20
122.2389433025
 30
0.0
 40
1.25
100
AcDbArc
 50
360.0
 51
450.0
  0
ARC
  5
150
100
AcDbEntity
  8
2051_1-4 SCHLÜSSEL
390
0
100
AcDbCircle
 10
169.2966061345
 20
119.9889433025
 30
0.0
 40
0.5
100
AcDbArc
 50
180.0
 51
270.0
  0
ARC
  5
151
100
AcDbEntity
  8
2051_1-4 SCHLÜSSEL
390
0
100
AcDbCircle
 10
175.0466061345
 20
122.2389433025
 30
0.0
 40
1.25
100
AcDbArc
 50
90.0
 51
180.0
  0
ARC
  5
152
100
AcDbEntity
  8
2051_1-4 SCHLÜSSEL
390
0
100
AcDbCircle
 10
173.2966061345
 20
121.9889433025
 30
0.0
 40
0.5
100
AcDbArc
 50
270.0
 51
360.0
  0
ARC
  5
153
100
AcDbEntity
  8
2051_1-4 SCHLÜSSEL
390
0
100
AcDbCircle
 10
176.7966061345
 20
121.9889433025
 30
0.0
 40
0.5
100
AcDbArc
 50
180.0
 51
270.0
  0
ARC
  5
154
100
AcDbEntity
  8
2051_1-4 SCHLÜSSEL
390
0
100
AcDbCircle
 10
177.5466061345
 20
120.2389433025
 30
0.0
 40
1.25
100
AcDbArc
 50
360.0
 51
450.0
  0
LINE
  5
155
100
AcDbEntity
  8
2051_1-4 SCHLÜSSEL
390
0
100
AcDbLine
 10
173.2966061345
 20
121.4889433025
 30
0.0
 11
172.5466061345
 21
121.4889433025
 31
0.0
  0
LINE
  5
156
100
AcDbEntity
  8
2051_1-4 SCHLÜSSEL
390
0
100
AcDbLine
 10
170.7966061345
 20
119.4889433025
 30
0.0
 11
169.2966061345
 21
119.4889433025
 31
0.0
  0
LINE
  5
157
100
AcDbEntity
  8
2051_1-4 SCHLÜSSEL
390
0
100
AcDbLine
 10
171.2966061345
 20
119.9889433025
 30
0.0
 11
171.2966061345
 21
120.2389433025
 31
0.0
  0
LINE
  5
158
100
AcDbEntity
  8
2051_1-4 SCHLÜSSEL
390
0
100
AcDbLine
 10
176.2966061345
 20
121.9889433025
 30
0.0
 11
176.2966061345
 21
122.2389433025
 31
0.0
  0
LINE
  5
159
100
AcDbEntity
  8
2051_1-4 SCHLÜSSEL
390
0
100
AcDbLine
 10
168.7966061345
 20
119.9889433025
 30
0.0
 11
168.7966061345
 21
121.4889433025
 31
0.0
  0
LINE
  5
15A
100
AcDbEntity
  8
2051_1-4 SCHLÜSSEL
390
0
100
AcDbLine
 10
178.7966061345
 20
119.4889433025
 30
0.0
 11
178.7966061345
 21
120.2389433025
 31
0.0
  0
LINE
  5
15B
100
AcDbEntity
  8
2051_1-4 SCHLÜSSEL
390
0
100
AcDbLine
 10
177.5466061345
 20
121.4889433025
 30
0.0
 11
176.7966061345
 21
121.4889433025
 31
0.0
  0
LINE
  5
15C
100
AcDbEntity
  8
2050_5_6 BESATZUNG
370
         0
390
0
100
AcDbLine
 10
159.5466061345
 20
119.4889433025
 30
0.0
 11
159.7966061345
 21
119.4889433025
 31
0.0
  0
LINE
  5
15D
100
AcDbEntity
  8
2050_5_6 BESATZUNG
370
         0
390
0
100
AcDbLine
 10
160.2966061345
 20
118.2389433025
 30
0.0
 11
160.2966061345
 21
118.9889433025
 31
0.0
  0
LINE
  5
15E
100
AcDbEntity
  8
2051_3C
390
0
  6
DIVIDE
 62
        34
100
AcDbLine
 10
142.7966061345
 20
124.4889433025
 30
0.0
 11
135.2966061345
 21
124.4889433025
 31
0.0
  0
LINE
  5
15F
100
AcDbEntity
  8
2051_3C
390
0
100
AcDbLine
 10
170.7966061345
 20
118.4889433025
 30
0.0
 11
169.2966061345
 21
118.4889433025
 31
0.0
  0
LINE
  5
160
100
AcDbEntity
  8
2051_3C
390
0
100
AcDbLine
 10
177.7966061345
 20
117.2389433025
 30
0.0
 11
182.2966061345
 21
117.2389433025
 31
0.0
  0
LINE
  5
161
100
AcDbEntity
  8
2051_3C
390
0
  6
DIVIDE
 62
        15
100
AcDbLine
 10
182.2966061345
 20
124.4889433025
 30
0.0
 11
185.2966061345
 21
124.4889433025
 31
0.0
  0
LINE
  5
162
100
AcDbEntity
  8
2051_3C
390
0
100
AcDbLine
 10
141.7966061345
 20
128.9889433025
 30
0.0
 11
182.5466061345
 21
128.9889433025
 31
0.0
  0
LINE
  5
163
100
AcDbEntity
  8
2051_3C
390
0
100
AcDbLine
 10
142.7966061345
 20
124.4889433025
 30
0.0
 11
167.7966061345
 21
124.4889433025
 31
0.0
  0
LINE
  5
164
100
AcDbEntity
  8
2051_3C
390
0
  6
DIVIDE
 62
        15
100
AcDbLine
 10
185.2966061345
 20
124.4889433025
 30
0.0
 11
185.2966061345
 21
128.9889433025
 31
0.0
  0
LINE
  5
165
100
AcDbEntity
  8
2051_3C
390
0
100
AcDbLine
 10
142.7966061345
 20
111.4889433025
 30
0.0
 11
159.7966061345
 21
111.4889433025
 31
0.0
  0
LINE
  5
166
100
AcDbEntity
  8
2051_1-4 SCHLÜSSEL
390
0
100
AcDbLine
 10
184.2966061345
 20
125.4889433025
 30
0.0
 11
184.2966061345
 21
127.9889433025
 31
0.0
  0
LINE
  5
167
100
AcDbEntity
  8
2051_3C
390
0
  6
DIVIDE
 62
        14
100
AcDbLine
 10
182.5466061345
 20
128.9889433025
 30
0.0
 11
185.2966061345
 21
128.9889433025
 31
0.0
  0
LINE
  5
168
100
AcDbEntity
  8
2051_3C
390
0
100
AcDbLine
 10
159.2966061345
 20
122.9889433025
 30
0.0
 11
142.7966061345
 21
122.9889433025
 31
0.0
  0
LINE
  5
169
100
AcDbEntity
  8
2051_3C
390
0
  6
DIVIDE
 62
        34
100
AcDbLine
 10
142.7966061345
 20
122.9889433025
 30
0.0
 11
135.2966061345
 21
122.9889433025
 31
0.0
  0
LINE
  5
16A
100
AcDbEntity
  8
2051_3C
390
0
  6
DIVIDE
 62
        34
100
AcDbLine
 10
135.2966061345
 20
122.9889433025
 30
0.0
 11
135.2966061345
 21
124.4889433025
 31
0.0
  0
LINE
  5
16B
100
AcDbEntity
  8
2051_3C
390
0
  6
DIVIDE
 62
        34
100
AcDbLine
 10
142.7966061345
 20
111.4889433025
 30
0.0
 11
135.2966061345
 21
111.4889433025
 31
0.0
  0
CIRCLE
  5
16C
100
AcDbEntity
  8
2051_3C
390
0
  6
PHANTOM
100
AcDbCircle
 10
137.2966061345
 20
111.4889433025
 30
0.0
 40
1.0
  0
LINE
  5
16D
100
AcDbEntity
  8
2051_3A
390
0
  6
DIVIDE
 62
        34
100
AcDbLine
 10
147.7966061345
 20
194.4889433025
 30
0.0
 11
135.2966061345
 21
194.4889433025
 31
0.0
  0
LINE
  5
16E
100
AcDbEntity
  8
2051_3A
390
0
100
AcDbLine
 10
177.7966061345
 20
187.2389433025
 30
0.0
 11
182.2966061345
 21
187.2389433025
 31
0.0
  0
LINE
  5
16F
100
AcDbEntity
  8
2051_3A
390
0
  6
DIVIDE
 62
        34
100
AcDbLine
 10
182.2966061345
 20
194.4889433025
 30
0.0
 11
185.2966061345
 21
194.4889433025
 31
0.0
  0
LINE
  5
170
100
AcDbEntity
  8
2051_3A
390
0
100
AcDbLine
 10
141.7966061345
 20
198.9889433025
 30
0.0
 11
182.5466061345
 21
198.9889433025
 31
0.0
  0
LINE
  5
171
100
AcDbEntity
  8
2051_3A
390
0
100
AcDbLine
 10
147.7966061345
 20
194.4889433025
 30
0.0
 11
167.7966061345
 21
194.4889433025
 31
0.0
  0
LINE
  5
172
100
AcDbEntity
  8
2051_3A
390
0
  6
DIVIDE
 62
        34
100
AcDbLine
 10
185.2966061345
 20
194.4889433025
 30
0.0
 11
185.2966061345
 21
198.9889433025
 31
0.0
  0
LINE
  5
173
100
AcDbEntity
  8
2051_3A
390
0
100
AcDbLine
 10
142.7966061345
 20
181.4889433025
 30
0.0
 11
161.7966061345
 21
181.4889433025
 31
0.0
  0
LINE
  5
174
100
AcDbEntity
  8
2051_3A
390
0
  6
DIVIDE
 62
        34
100
AcDbLine
 10
182.5466061345
 20
198.9889433025
 30
0.0
 11
185.2966061345
 21
198.9889433025
 31
0.0
  0
LINE
  5
175
100
AcDbEntity
  8
2051_3A
390
0
100
AcDbLine
 10
159.5466061345
 20
192.9889433025
 30
0.0
 11
142.7966061345
 21
192.9889433025
 31
0.0
  0
LINE
  5
176
100
AcDbEntity
  8
2051_3A
390
0
  6
DIVIDE
 62
        34
100
AcDbLine
 10
142.7966061345
 20
192.9889433025
 30
0.0
 11
135.2966061345
 21
192.9889433025
 31
0.0
  0
LINE
  5
177
100
AcDbEntity
  8
2051_3A
390
0
  6
DIVIDE
 62
        34
100
AcDbLine
 10
135.2966061345
 20
192.9889433025
 30
0.0
 11
135.2966061345
 21
194.4889433025
 31
0.0
  0
LINE
  5
178
100
AcDbEntity
  8
2051_3A
390
0
  6
DIVIDE
 62
        34
100
AcDbLine
 10
142.7966061345
 20
181.4889433025
 30
0.0
 11
135.2966061345
 21
181.4889433025
 31
0.0
  0
CIRCLE
  5
179
100
AcDbEntity
  8
2051_3A
390
0
  6
PHANTOM
100
AcDbCircle
 10
137.2966061345
 20
181.4889433025
 30
0.0
 40
1.0
  0
TEXT
  5
17A
100
AcDbEntity
  8
BESCHRIFTUNG
390
0
100
AcDbText
 10
170.0038279477
 20
208.720967123
 30
0.0
 40
2.5
  1
2051.3A
 41
1.1350983545
  7
Arial
 72
         1
 11
178.5170656067
 21
209.970967123
 31
0.0
100
AcDbText
 73
         2
  0
LINE
  5
17B
100
AcDbEntity
  8
MITTELLINIEN
390
0
100
AcDbLine
 10
187.2966061345
 20
179.4903063606
 30
0.0
 11
187.2966061345
 21
202.5100693429
 31
0.0
  0
LINE
  5
17C
100
AcDbEntity
  8
2051_3B
390
0
100
AcDbLine
 10
159.2966061345
 20
157.9889433025
 30
0.0
 11
142.7966061345
 21
157.9889433025
 31
0.0
  0
LINE
  5
17D
100
AcDbEntity
  8
2051_3B
390
0
  6
DIVIDE
 62
        34
100
AcDbLine
 10
142.7966061345
 20
157.9889433025
 30
0.0
 11
135.2966061345
 21
157.9889433025
 31
0.0
  0
LINE
  5
17E
100
AcDbEntity
  8
2051_3B
390
0
  6
DIVIDE
 62
        34
100
AcDbLine
 10
135.2966061345
 20
157.9889433025
 30
0.0
 11
135.2966061345
 21
159.4889433025
 31
0.0
  0
LINE
  5
17F
100
AcDbEntity
  8
2051_3B
390
0
  6
DIVIDE
 62
        34
100
AcDbLine
 10
142.7966061345
 20
146.4889433025
 30
0.0
 11
135.2966061345
 21
146.4889433025
 31
0.0
  0
LINE
  5
180
100
AcDbEntity
  8
2051_3B
390
0
100
AcDbLine
 10
177.7966061345
 20
152.2389433025
 30
0.0
 11
182.2966061345
 21
152.2389433025
 31
0.0
  0
LINE
  5
181
100
AcDbEntity
  8
2051_3B
390
0
  6
DIVIDE
 62
        15
100
AcDbLine
 10
182.2966061345
 20
159.4889433025
 30
0.0
 11
185.2966061345
 21
159.4889433025
 31
0.0
  0
LINE
  5
182
100
AcDbEntity
  8
2051_3B
390
0
100
AcDbLine
 10
142.7966061345
 20
146.4889433025
 30
0.0
 11
161.7966061345
 21
146.4889433025
 31
0.0
  0
LINE
  5
183
100
AcDbEntity
  8
2051_3B
390
0
  6
DIVIDE
 62
        15
100
AcDbLine
 10
185.2966061345
 20
159.4889433025
 30
0.0
 11
185.2966061345
 21
163.9889433025
 31
0.0
  0
LINE
  5
184
100
AcDbEntity
  8
2051_3B
390
0
100
AcDbLine
 10
142.7966061345
 20
159.4889433025
 30
0.0
 11
167.7966061345
 21
159.4889433025
 31
0.0
  0
LINE
  5
185
100
AcDbEntity
  8
2051_3B
390
0
100
AcDbLine
 10
141.7966061345
 20
163.9889433025
 30
0.0
 11
182.5466061345
 21
163.9889433025
 31
0.0
  0
LINE
  5
186
100
AcDbEntity
  8
2051_3B
390
0
  6
DIVIDE
 62
        14
100
AcDbLine
 10
182.5466061345
 20
163.9889433025
 30
0.0
 11
185.2966061345
 21
163.9889433025
 31
0.0
  0
LINE
  5
187
100
AcDbEntity
  8
2051_3B
390
0
  6
DIVIDE
 62
        34
100
AcDbLine
 10
142.7966061345
 20
159.4889433025
 30
0.0
 11
135.2966061345
 21
159.4889433025
 31
0.0
  0
TEXT
  5
188
100
AcDbEntity
  8
BESCHRIFTUNG
390
0
100
AcDbText
 10
169.9210834807
 20
170.4592962644
 30
0.0
 40
2.5
  1
2051.3B
 41
1.1350984069
  7
Arial
 72
         1
 11
178.4343215322
 21
171.7092962644
 31
0.0
100
AcDbText
 73
         2
  0
LINE
  5
189
100
AcDbEntity
  8
MITTELLINIEN
390
0
100
AcDbLine
 10
187.2966061345
 20
144.4903063607
 30
0.0
 11
187.2966061345
 21
167.5100693429
 31
0.0
  0
CIRCLE
  5
18A
100
AcDbEntity
  8
2051_3B
390
0
  6
PHANTOM
100
AcDbCircle
 10
137.2966061345
 20
146.4889433025
 30
0.0
 40
1.0
  0
CIRCLE
  5
18B
100
AcDbEntity
  8
2051_3B
370
         0
390
0
100
AcDbCircle
 10
142.2966061345
 20
152.4889433025
 30
0.0
 40
2.0
  0
TEXT
  5
18C
100
AcDbEntity
  8
BESCHRIFTUNG
390
0
100
AcDbText
 10
146.1037206561
 20
148.4499800416
 30
0.0
 40
2.5
  1
2050.5B
 41
0.9081105737
  7
Arial
100
AcDbText
  0
LINE
  5
18D
100
AcDbEntity
  8
2051_1-4 SCHLÜSSEL
390
0
100
AcDbLine
 10
181.2966061345
 20
153.2389433025
 30
0.0
 11
181.2966061345
 21
160.4889433025
 31
0.0
  0
LINE
  5
18E
100
AcDbEntity
  8
2051_1-4 SCHLÜSSEL
390
0
100
AcDbLine
 10
184.2966061345
 20
160.4889433025
 30
0.0
 11
184.2966061345
 21
162.9889433025
 31
0.0
  0
LINE
  5
18F
100
AcDbEntity
  8
2051_1-4 SCHLÜSSEL
390
0
100
AcDbLine
 10
181.2966061345
 20
160.4889433025
 30
0.0
 11
184.2966061345
 21
160.4889433025
 31
0.0
  0
LINE
  5
190
100
AcDbEntity
  8
2051_1-4 SCHLÜSSEL
390
0
100
AcDbLine
 10
168.7966061345
 20
156.4889433025
 30
0.0
 11
168.7966061345
 21
160.4889433025
 31
0.0
  0
LINE
  5
191
100
AcDbEntity
  8
2051_1-4 SCHLÜSSEL
390
0
100
AcDbLine
 10
142.7966061345
 20
160.4889433025
 30
0.0
 11
142.7966061345
 21
162.9889433025
 31
0.0
  0
LINE
  5
192
100
AcDbEntity
  8
2051_1-4 SCHLÜSSEL
390
0
100
AcDbLine
 10
175.7966061345
 20
156.4889433025
 30
0.0
 11
173.7966061345
 21
156.4889433025
 31
0.0
  0
LINE
  5
193
100
AcDbEntity
  8
2051_1-4 SCHLÜSSEL
390
0
100
AcDbLine
 10
178.7966061345
 20
153.2389433025
 30
0.0
 11
181.2966061345
 21
153.2389433025
 31
0.0
  0
LINE
  5
194
100
AcDbEntity
  8
2051_1-4 SCHLÜSSEL
390
0
100
AcDbLine
 10
142.7966061345
 20
160.4889433025
 30
0.0
 11
168.7966061345
 21
160.4889433025
 31
0.0
  0
LINE
  5
195
100
AcDbEntity
  8
2051_1-4 SCHLÜSSEL
390
0
100
AcDbLine
 10
142.7966061345
 20
162.9889433025
 30
0.0
 11
184.2966061345
 21
162.9889433025
 31
0.0
  0
LINE
  5
196
100
AcDbEntity
  8
2051_1-4 SCHLÜSSEL
390
0
100
AcDbLine
 10
178.7966061345
 20
153.2389433025
 30
0.0
 11
178.7966061345
 21
154.4889433025
 31
0.0
  0
LINE
  5
197
100
AcDbEntity
  8
2050_5_6 BESATZUNG
370
         0
390
0
100
AcDbLine
 10
137.2966061345
 20
156.9889433025
 30
0.0
 11
137.2966061345
 21
147.4889433025
 31
0.0
  0
LINE
  5
198
100
AcDbEntity
  8
2050_5_6 BESATZUNG
370
         0
390
0
100
AcDbLine
 10
158.2966061345
 20
156.9889433025
 30
0.0
 11
137.2966061345
 21
156.9889433025
 31
0.0
  0
LINE
  5
199
100
AcDbEntity
  8
2050_5_6 BESATZUNG
370
         0
390
0
100
AcDbLine
 10
137.2966061345
 20
147.4889433025
 30
0.0
 11
161.7966061345
 21
147.4889433025
 31
0.0
  0
LINE
  5
19A
100
AcDbEntity
  8
2050_5_6 BESATZUNG
370
         0
390
0
100
AcDbLine
 10
160.2966061345
 20
150.7389433025
 30
0.0
 11
160.2966061345
 21
152.4889433025
 31
0.0
  0
LINE
  5
19B
100
AcDbEntity
  8
2051_1-4 SCHLÜSSEL
390
0
100
AcDbLine
 10
173.7966061345
 20
156.4889433025
 30
0.0
 11
172.5466061345
 21
156.4889433025
 31
0.0
  0
LINE
  5
19C
100
AcDbEntity
  8
2051_1-4 SCHLÜSSEL
390
0
100
AcDbLine
 10
170.7966061345
 20
154.4889433025
 30
0.0
 11
169.2966061345
 21
154.4889433025
 31
0.0
  0
LINE
  5
19D
100
AcDbEntity
  8
2051_1-4 SCHLÜSSEL
390
0
100
AcDbLine
 10
171.2966061345
 20
154.9889433025
 30
0.0
 11
171.2966061345
 21
155.2389433025
 31
0.0
  0
LINE
  5
19E
100
AcDbEntity
  8
2051_1-4 SCHLÜSSEL
390
0
100
AcDbLine
 10
176.2966061345
 20
156.9889433025
 30
0.0
 11
176.2966061345
 21
157.2389433025
 31
0.0
  0
LINE
  5
19F
100
AcDbEntity
  8
2051_1-4 SCHLÜSSEL
390
0
100
AcDbLine
 10
168.7966061345
 20
154.9889433025
 30
0.0
 11
168.7966061345
 21
156.4889433025
 31
0.0
  0
LINE
  5
1A0
100
AcDbEntity
  8
2051_1-4 SCHLÜSSEL
390
0
100
AcDbLine
 10
178.7966061345
 20
154.4889433025
 30
0.0
 11
178.7966061345
 21
156.4889433025
 31
0.0
  0
LINE
  5
1A1
100
AcDbEntity
  8
2051_1-4 SCHLÜSSEL
390
0
100
AcDbLine
 10
178.7966061345
 20
156.4889433025
 30
0.0
 11
178.7966061345
 21
157.2389433025
 31
0.0
  0
LINE
  5
1A2
100
AcDbEntity
  8
2050_5_6 BESATZUNG
370
         0
390
0
100
AcDbLine
 10
160.2966061345
 20
152.4889433025
 30
0.0
 11
160.2966061345
 21
153.9889433025
 31
0.0
  0
LINE
  5
1A3
100
AcDbEntity
  8
2050_5_6 BESATZUNG
370
         0
390
0
100
AcDbLine
 10
159.5466061345
 20
154.4889433025
 30
0.0
 11
159.7966061345
 21
154.4889433025
 31
0.0
  0
LINE
  5
1A4
100
AcDbEntity
  8
2050_5_6 BESATZUNG
370
         0
390
0
100
AcDbLine
 10
162.2966061345
 20
147.9889433025
 30
0.0
 11
162.2966061345
 21
148.9889433025
 31
0.0
  0
LINE
  5
1A5
100
AcDbEntity
  8
2050_5_6 BESATZUNG
370
         0
390
0
100
AcDbLine
 10
161.5466061345
 20
149.4889433025
 30
0.0
 11
161.7966061345
 21
149.4889433025
 31
0.0
  0
LINE
  5
1A6
100
AcDbEntity
  8
2050_5_6 BESATZUNG
370
         0
390
0
100
AcDbLine
 10
158.2966061345
 20
155.7389433025
 30
0.0
 11
158.2966061345
 21
156.9889433025
 31
0.0
  0
ARC
  5
1A7
100
AcDbEntity
  8
2051_1-4 SCHLÜSSEL
390
0
100
AcDbCircle
 10
170.7966061345
 20
154.9889433025
 30
0.0
 40
0.5
100
AcDbArc
 50
270.0
 51
360.0
  0
ARC
  5
1A8
100
AcDbEntity
  8
2051_1-4 SCHLÜSSEL
390
0
100
AcDbCircle
 10
172.5466061345
 20
155.2389433025
 30
0.0
 40
1.25
100
AcDbArc
 50
90.0
 51
180.0
  0
ARC
  5
1A9
100
AcDbEntity
  8
2051_1-4 SCHLÜSSEL
390
0
100
AcDbCircle
 10
169.2966061345
 20
154.9889433025
 30
0.0
 40
0.5
100
AcDbArc
 50
180.0
 51
270.0
  0
ARC
  5
1AA
100
AcDbEntity
  8
2051_1-4 SCHLÜSSEL
390
0
100
AcDbCircle
 10
177.5466061345
 20
157.2389433025
 30
0.0
 40
1.25
100
AcDbArc
 50
90.0
 51
180.0
  0
ARC
  5
1AB
100
AcDbEntity
  8
2051_1-4 SCHLÜSSEL
390
0
100
AcDbCircle
 10
177.5466061345
 20
157.2389433025
 30
0.0
 40
1.25
100
AcDbArc
 50
360.0
 51
450.0
  0
ARC
  5
1AC
100
AcDbEntity
  8
2051_1-4 SCHLÜSSEL
390
0
100
AcDbCircle
 10
175.7966061345
 20
156.9889433025
 30
0.0
 40
0.5
100
AcDbArc
 50
270.0
 51
360.0
  0
ARC
  5
1AD
100
AcDbEntity
  8
2050_5_6 BESATZUNG
390
0
100
AcDbCircle
 10
159.5466061345
 20
155.7389433025
 30
0.0
 40
1.25
100
AcDbArc
 50
180.0
 51
270.0
  0
ARC
  5
1AE
100
AcDbEntity
  8
2050_5_6 BESATZUNG
390
0
100
AcDbCircle
 10
159.7966061345
 20
153.9889433025
 30
0.0
 40
0.5
100
AcDbArc
 50
360.0
 51
450.0
  0
ARC
  5
1AF
100
AcDbEntity
  8
2050_5_6 BESATZUNG
390
0
100
AcDbCircle
 10
161.5466061345
 20
150.7389433025
 30
0.0
 40
1.25
100
AcDbArc
 50
180.0
 51
270.0
  0
ARC
  5
1B0
100
AcDbEntity
  8
2050_5_6 BESATZUNG
390
0
100
AcDbCircle
 10
161.7966061345
 20
148.9889433025
 30
0.0
 40
0.5
100
AcDbArc
 50
360.0
 51
450.0
  0
ARC
  5
1B1
100
AcDbEntity
  8
2050_5_6 BESATZUNG
390
0
100
AcDbCircle
 10
161.7966061345
 20
147.9889433025
 30
0.0
 40
0.5
100
AcDbArc
 50
270.0
 51
360.0
  0
MTEXT
  5
1B2
100
AcDbEntity
  8
BESCHRIFTUNG
390
0
100
AcDbMText
 10
164.5667662949
 20
156.9591037749
 30
0.0
 40
1.8
 41
0.0
 71
         2
 72
         1
  1
\W1.135146;a\Pb\Pc\Pd
  7
Arial
 73
         1
 44
0.8333333333
  0
MTEXT
  5
1B3
100
AcDbEntity
  8
BESCHRIFTUNG
390
0
100
AcDbMText
 10
164.5667662949
 20
191.9591037749
 30
0.0
 40
1.8
 41
0.0
 71
         2
 72
         1
  1
\W1.135146;a\Pb\Pc\Pd
  7
Arial
 73
         1
 44
0.8333333333
  0
LINE
  5
1B4
100
AcDbEntity
  8
2051_3B
390
0
100
AcDbLine
 10
170.7966061345
 20
153.4889433025
 30
0.0
 11
169.2966061345
 21
153.4889433025
 31
0.0
  0
LINE
  5
1B5
100
AcDbEntity
  8
2051_3B
390
0
100
AcDbLine
 10
175.7966061345
 20
155.4889433025
 30
0.0
 11
172.5466061345
 21
155.4889433025
 31
0.0
  0
MTEXT
  5
1B6
100
AcDbEntity
  8
BESCHRIFTUNG
390
0
100
AcDbMText
 10
164.5667662949
 20
86.9591037749
 30
0.0
 40
1.8
 41
0.0
 71
         2
 72
         1
  1
\W1.135146;a\Pb\Pc\Pd
  7
Arial
 73
         1
 44
0.8333333333
  0
LINE
  5
1B7
100
AcDbEntity
  8
2051_3D
390
0
100
AcDbLine
 10
159.5466061345
 20
87.9889433025
 30
0.0
 11
142.7966061345
 21
87.9889433025
 31
0.0
  0
LINE
  5
1B8
100
AcDbEntity
  8
2051_3D
390
0
  6
DIVIDE
 62
        34
100
AcDbLine
 10
142.7966061345
 20
87.9889433025
 30
0.0
 11
135.2966061345
 21
87.9889433025
 31
0.0
  0
LINE
  5
1B9
100
AcDbEntity
  8
2051_3D
390
0
  6
DIVIDE
 62
        34
100
AcDbLine
 10
135.2966061345
 20
87.9889433025
 30
0.0
 11
135.2966061345
 21
89.4889433025
 31
0.0
  0
LINE
  5
1BA
100
AcDbEntity
  8
2051_3D
390
0
  6
DIVIDE
 62
        34
100
AcDbLine
 10
142.7966061345
 20
76.4889433025
 30
0.0
 11
135.2966061345
 21
76.4889433025
 31
0.0
  0
LINE
  5
1BB
100
AcDbEntity
  8
2051_3D
390
0
100
AcDbLine
 10
177.7966061345
 20
82.2389433025
 30
0.0
 11
182.2966061345
 21
82.2389433025
 31
0.0
  0
LINE
  5
1BC
100
AcDbEntity
  8
2051_3D
390
0
  6
DIVIDE
 62
        15
100
AcDbLine
 10
182.2966061345
 20
89.4889433025
 30
0.0
 11
185.2966061345
 21
89.4889433025
 31
0.0
  0
LINE
  5
1BD
100
AcDbEntity
  8
2051_3D
390
0
100
AcDbLine
 10
142.7966061345
 20
76.4889433025
 30
0.0
 11
161.7966061345
 21
76.4889433025
 31
0.0
  0
LINE
  5
1BE
100
AcDbEntity
  8
2051_3D
390
0
  6
DIVIDE
 62
        15
100
AcDbLine
 10
185.2966061345
 20
89.4889433025
 30
0.0
 11
185.2966061345
 21
93.9889433025
 31
0.0
  0
LINE
  5
1BF
100
AcDbEntity
  8
2051_3D
390
0
100
AcDbLine
 10
142.7966061345
 20
89.4889433025
 30
0.0
 11
167.7966061345
 21
89.4889433025
 31
0.0
  0
LINE
  5
1C0
100
AcDbEntity
  8
2051_3D
390
0
100
AcDbLine
 10
141.7966061345
 20
93.9889433025
 30
0.0
 11
182.5466061345
 21
93.9889433025
 31
0.0
  0
LINE
  5
1C1
100
AcDbEntity
  8
2051_3D
390
0
  6
DIVIDE
 62
        14
100
AcDbLine
 10
182.5466061345
 20
93.9889433025
 30
0.0
 11
185.2966061345
 21
93.9889433025
 31
0.0
  0
LINE
  5
1C2
100
AcDbEntity
  8
2051_3D
390
0
  6
DIVIDE
 62
        34
100
AcDbLine
 10
142.7966061345
 20
89.4889433025
 30
0.0
 11
135.2966061345
 21
89.4889433025
 31
0.0
  0
TEXT
  5
1C3
100
AcDbEntity
  8
BESCHRIFTUNG
390
0
100
AcDbText
 10
169.8745725656
 20
101.1110097458
 30
0.0
 40
2.5
  1
2051.3D
 41
1.1350996593
  7
Arial
 72
         1
 11
178.3878200101
 21
102.3610097458
 31
0.0
100
AcDbText
 73
         2
  0
LINE
  5
1C4
100
AcDbEntity
  8
MITTELLINIEN
390
0
100
AcDbLine
 10
187.2966061345
 20
74.4903063607
 30
0.0
 11
187.2966061345
 21
97.5100693429
 31
0.0
  0
CIRCLE
  5
1C5
100
AcDbEntity
  8
2051_3D
390
0
  6
PHANTOM
100
AcDbCircle
 10
137.2966061345
 20
76.4889433025
 30
0.0
 40
1.0
  0
CIRCLE
  5
1C6
100
AcDbEntity
  8
2051_3D
370
         0
390
0
100
AcDbCircle
 10
142.2966061345
 20
82.4889433025
 30
0.0
 40
2.0
  0
ARC
  5
1C7
100
AcDbEntity
  8
2051_1-4 SCHLÜSSEL
390
0
100
AcDbCircle
 10
172.5466061345
 20
87.2389433025
 30
0.0
 40
1.25
100
AcDbArc
 50
360.0
 51
450.0
  0
ARC
  5
1C8
100
AcDbEntity
  8
2051_1-4 SCHLÜSSEL
390
0
100
AcDbCircle
 10
172.5466061345
 20
87.2389433025
 30
0.0
 40
1.25
100
AcDbArc
 50
90.0
 51
180.0
  0
TEXT
  5
1C9
100
AcDbEntity
  8
BESCHRIFTUNG
390
0
100
AcDbText
 10
146.1037206561
 20
78.4499800416
 30
0.0
 40
2.5
  1
2050.5D
 41
0.9081111109
  7
Arial
100
AcDbText
  0
LINE
  5
1CA
100
AcDbEntity
  8
2051_1-4 SCHLÜSSEL
390
0
100
AcDbLine
 10
181.2966061345
 20
83.2389433025
 30
0.0
 11
181.2966061345
 21
90.4889433025
 31
0.0
  0
LINE
  5
1CB
100
AcDbEntity
  8
2051_1-4 SCHLÜSSEL
390
0
100
AcDbLine
 10
184.2966061345
 20
90.4889433025
 30
0.0
 11
184.2966061345
 21
92.9889433025
 31
0.0
  0
LINE
  5
1CC
100
AcDbEntity
  8
2051_1-4 SCHLÜSSEL
390
0
100
AcDbLine
 10
171.2966061345
 20
86.4889433025
 30
0.0
 11
171.2966061345
 21
87.2389433025
 31
0.0
  0
LINE
  5
1CD
100
AcDbEntity
  8
2051_1-4 SCHLÜSSEL
390
0
100
AcDbLine
 10
181.2966061345
 20
90.4889433025
 30
0.0
 11
184.2966061345
 21
90.4889433025
 31
0.0
  0
LINE
  5
1CE
100
AcDbEntity
  8
2051_1-4 SCHLÜSSEL
390
0
100
AcDbLine
 10
173.7966061345
 20
86.4889433025
 30
0.0
 11
173.7966061345
 21
87.2389433025
 31
0.0
  0
LINE
  5
1CF
100
AcDbEntity
  8
2051_1-4 SCHLÜSSEL
390
0
100
AcDbLine
 10
168.7966061345
 20
86.4889433025
 30
0.0
 11
168.7966061345
 21
90.4889433025
 31
0.0
  0
LINE
  5
1D0
100
AcDbEntity
  8
2051_1-4 SCHLÜSSEL
390
0
100
AcDbLine
 10
142.7966061345
 20
90.4889433025
 30
0.0
 11
142.7966061345
 21
92.9889433025
 31
0.0
  0
LINE
  5
1D1
100
AcDbEntity
  8
2051_1-4 SCHLÜSSEL
390
0
100
AcDbLine
 10
178.7966061345
 20
83.2389433025
 30
0.0
 11
181.2966061345
 21
83.2389433025
 31
0.0
  0
LINE
  5
1D2
100
AcDbEntity
  8
2051_1-4 SCHLÜSSEL
390
0
100
AcDbLine
 10
142.7966061345
 20
90.4889433025
 30
0.0
 11
168.7966061345
 21
90.4889433025
 31
0.0
  0
LINE
  5
1D3
100
AcDbEntity
  8
2051_1-4 SCHLÜSSEL
390
0
100
AcDbLine
 10
142.7966061345
 20
92.9889433025
 30
0.0
 11
184.2966061345
 21
92.9889433025
 31
0.0
  0
LINE
  5
1D4
100
AcDbEntity
  8
2051_1-4 SCHLÜSSEL
390
0
100
AcDbLine
 10
176.2966061345
 20
84.9889433025
 30
0.0
 11
176.2966061345
 21
86.4889433025
 31
0.0
  0
LINE
  5
1D5
100
AcDbEntity
  8
2051_1-4 SCHLÜSSEL
390
0
100
AcDbLine
 10
178.7966061345
 20
83.2389433025
 30
0.0
 11
178.7966061345
 21
84.4889433025
 31
0.0
  0
LINE
  5
1D6
100
AcDbEntity
  8
2050_5_6 BESATZUNG
370
         0
390
0
100
AcDbLine
 10
137.2966061345
 20
86.9889433025
 30
0.0
 11
137.2966061345
 21
77.4889433025
 31
0.0
  0
LINE
  5
1D7
100
AcDbEntity
  8
2050_5_6 BESATZUNG
370
         0
390
0
100
AcDbLine
 10
158.2966061345
 20
86.9889433025
 30
0.0
 11
137.2966061345
 21
86.9889433025
 31
0.0
  0
LINE
  5
1D8
100
AcDbEntity
  8
2050_5_6 BESATZUNG
370
         0
390
0
100
AcDbLine
 10
162.2966061345
 20
82.9889433025
 30
0.0
 11
162.2966061345
 21
83.9889433025
 31
0.0
  0
LINE
  5
1D9
100
AcDbEntity
  8
2050_5_6 BESATZUNG
370
         0
390
0
100
AcDbLine
 10
160.2966061345
 20
84.4889433025
 30
0.0
 11
161.7966061345
 21
84.4889433025
 31
0.0
  0
LINE
  5
1DA
100
AcDbEntity
  8
2050_5_6 BESATZUNG
370
         0
390
0
100
AcDbLine
 10
161.7966061345
 20
82.4889433025
 30
0.0
 11
160.2966061345
 21
82.4889433025
 31
0.0
  0
LINE
  5
1DB
100
AcDbEntity
  8
2050_5_6 BESATZUNG
370
         0
390
0
100
AcDbLine
 10
137.2966061345
 20
77.4889433025
 30
0.0
 11
160.2966061345
 21
77.4889433025
 31
0.0
  0
LINE
  5
1DC
100
AcDbEntity
  8
2051_1-4 SCHLÜSSEL
390
0
100
AcDbLine
 10
170.7966061345
 20
84.4889433025
 30
0.0
 11
169.2966061345
 21
84.4889433025
 31
0.0
  0
LINE
  5
1DD
100
AcDbEntity
  8
2051_1-4 SCHLÜSSEL
390
0
100
AcDbLine
 10
175.7966061345
 20
84.4889433025
 30
0.0
 11
174.2966061345
 21
84.4889433025
 31
0.0
  0
LINE
  5
1DE
100
AcDbEntity
  8
2051_1-4 SCHLÜSSEL
390
0
100
AcDbLine
 10
173.7966061345
 20
84.9889433025
 30
0.0
 11
173.7966061345
 21
86.4889433025
 31
0.0
  0
LINE
  5
1DF
100
AcDbEntity
  8
2051_1-4 SCHLÜSSEL
390
0
100
AcDbLine
 10
171.2966061345
 20
84.9889433025
 30
0.0
 11
171.2966061345
 21
86.4889433025
 31
0.0
  0
LINE
  5
1E0
100
AcDbEntity
  8
2051_1-4 SCHLÜSSEL
390
0
100
AcDbLine
 10
176.2966061345
 20
86.4889433025
 30
0.0
 11
176.2966061345
 21
87.2389433025
 31
0.0
  0
LINE
  5
1E1
100
AcDbEntity
  8
2051_1-4 SCHLÜSSEL
390
0
100
AcDbLine
 10
168.7966061345
 20
84.9889433025
 30
0.0
 11
168.7966061345
 21
86.4889433025
 31
0.0
  0
LINE
  5
1E2
100
AcDbEntity
  8
2051_1-4 SCHLÜSSEL
390
0
100
AcDbLine
 10
178.7966061345
 20
84.4889433025
 30
0.0
 11
178.7966061345
 21
86.4889433025
 31
0.0
  0
LINE
  5
1E3
100
AcDbEntity
  8
2051_1-4 SCHLÜSSEL
390
0
100
AcDbLine
 10
178.7966061345
 20
86.4889433025
 30
0.0
 11
178.7966061345
 21
87.2389433025
 31
0.0
  0
LINE
  5
1E4
100
AcDbEntity
  8
2050_5_6 BESATZUNG
370
         0
390
0
100
AcDbLine
 10
159.5466061345
 20
84.4889433025
 30
0.0
 11
160.2966061345
 21
84.4889433025
 31
0.0
  0
LINE
  5
1E5
100
AcDbEntity
  8
2050_5_6 BESATZUNG
370
         0
390
0
100
AcDbLine
 10
160.2966061345
 20
82.4889433025
 30
0.0
 11
159.5466061345
 21
82.4889433025
 31
0.0
  0
LINE
  5
1E6
100
AcDbEntity
  8
2050_5_6 BESATZUNG
370
         0
390
0
100
AcDbLine
 10
162.2966061345
 20
77.9889433025
 30
0.0
 11
162.2966061345
 21
78.9889433025
 31
0.0
  0
LINE
  5
1E7
100
AcDbEntity
  8
2050_5_6 BESATZUNG
370
         0
390
0
100
AcDbLine
 10
160.2966061345
 20
79.4889433025
 30
0.0
 11
161.7966061345
 21
79.4889433025
 31
0.0
  0
LINE
  5
1E8
100
AcDbEntity
  8
2050_5_6 BESATZUNG
370
         0
390
0
100
AcDbLine
 10
161.7966061345
 20
77.4889433025
 30
0.0
 11
160.2966061345
 21
77.4889433025
 31
0.0
  0
LINE
  5
1E9
100
AcDbEntity
  8
2050_5_6 BESATZUNG
370
         0
390
0
100
AcDbLine
 10
159.5466061345
 20
79.4889433025
 30
0.0
 11
160.2966061345
 21
79.4889433025
 31
0.0
  0
LINE
  5
1EA
100
AcDbEntity
  8
2050_5_6 BESATZUNG
370
         0
390
0
100
AcDbLine
 10
160.2966061345
 20
77.4889433025
 30
0.0
 11
158.2966061345
 21
77.4889433025
 31
0.0
  0
LINE
  5
1EB
100
AcDbEntity
  8
2050_5_6 BESATZUNG
370
         0
390
0
100
AcDbLine
 10
158.2966061345
 20
80.7389433025
 30
0.0
 11
158.2966061345
 21
81.2389433025
 31
0.0
  0
LINE
  5
1EC
100
AcDbEntity
  8
2050_5_6 BESATZUNG
370
         0
390
0
100
AcDbLine
 10
158.2966061345
 20
85.7389433025
 30
0.0
 11
158.2966061345
 21
86.9889433025
 31
0.0
  0
ARC
  5
1ED
100
AcDbEntity
  8
2050_5_6 BESATZUNG
390
0
100
AcDbCircle
 10
161.7966061345
 20
83.9889433025
 30
0.0
 40
0.5
100
AcDbArc
 50
360.0
 51
450.0
  0
ARC
  5
1EE
100
AcDbEntity
  8
2050_5_6 BESATZUNG
390
0
100
AcDbCircle
 10
161.7966061345
 20
82.9889433025
 30
0.0
 40
0.5
100
AcDbArc
 50
270.0
 51
360.0
  0
ARC
  5
1EF
100
AcDbEntity
  8
2051_1-4 SCHLÜSSEL
390
0
100
AcDbCircle
 10
174.2966061345
 20
84.9889433025
 30
0.0
 40
0.5
100
AcDbArc
 50
180.0
 51
270.0
  0
ARC
  5
1F0
100
AcDbEntity
  8
2051_1-4 SCHLÜSSEL
390
0
100
AcDbCircle
 10
170.7966061345
 20
84.9889433025
 30
0.0
 40
0.5
100
AcDbArc
 50
270.0
 51
360.0
  0
ARC
  5
1F1
100
AcDbEntity
  8
2051_1-4 SCHLÜSSEL
390
0
100
AcDbCircle
 10
169.2966061345
 20
84.9889433025
 30
0.0
 40
0.5
100
AcDbArc
 50
180.0
 51
270.0
  0
ARC
  5
1F2
100
AcDbEntity
  8
2051_1-4 SCHLÜSSEL
390
0
100
AcDbCircle
 10
177.5466061345
 20
87.2389433025
 30
0.0
 40
1.25
100
AcDbArc
 50
90.0
 51
180.0
  0
ARC
  5
1F3
100
AcDbEntity
  8
2051_1-4 SCHLÜSSEL
390
0
100
AcDbCircle
 10
177.5466061345
 20
87.2389433025
 30
0.0
 40
1.25
100
AcDbArc
 50
360.0
 51
450.0
  0
ARC
  5
1F4
100
AcDbEntity
  8
2051_1-4 SCHLÜSSEL
390
0
100
AcDbCircle
 10
175.7966061345
 20
84.9889433025
 30
0.0
 40
0.5
100
AcDbArc
 50
270.0
 51
360.0
  0
ARC
  5
1F5
100
AcDbEntity
  8
2050_5_6 BESATZUNG
390
0
100
AcDbCircle
 10
159.5466061345
 20
85.7389433025
 30
0.0
 40
1.25
100
AcDbArc
 50
180.0
 51
270.0
  0
ARC
  5
1F6
100
AcDbEntity
  8
2050_5_6 BESATZUNG
390
0
100
AcDbCircle
 10
159.5466061345
 20
81.2389433025
 30
0.0
 40
1.25
100
AcDbArc
 50
90.0
 51
180.0
  0
ARC
  5
1F7
100
AcDbEntity
  8
2050_5_6 BESATZUNG
390
0
100
AcDbCircle
 10
161.7966061345
 20
78.9889433025
 30
0.0
 40
0.5
100
AcDbArc
 50
360.0
 51
450.0
  0
ARC
  5
1F8
100
AcDbEntity
  8
2050_5_6 BESATZUNG
390
0
100
AcDbCircle
 10
161.7966061345
 20
77.9889433025
 30
0.0
 40
0.5
100
AcDbArc
 50
270.0
 51
360.0
  0
ARC
  5
1F9
100
AcDbEntity
  8
2050_5_6 BESATZUNG
390
0
100
AcDbCircle
 10
159.5466061345
 20
80.7389433025
 30
0.0
 40
1.25
100
AcDbArc
 50
180.0
 51
270.0
  0
MTEXT
  5
1FA
100
AcDbEntity
  8
BESCHRIFTUNG
390
0
100
AcDbMText
 10
164.5667662949
 20
51.9591037749
 30
0.0
 40
1.8
 41
0.0
 71
         2
 72
         1
  1
\W1.135146;a\Pb\Pc\Pd
  7
Arial
 73
         1
 44
0.8333333333
  0
LINE
  5
1FB
100
AcDbEntity
  8
2051_3E
390
0
100
AcDbLine
 10
159.2966061345
 20
52.9889433025
 30
0.0
 11
142.7966061345
 21
52.9889433025
 31
0.0
  0
LINE
  5
1FC
100
AcDbEntity
  8
2051_3E
390
0
  6
DIVIDE
 62
        15
100
AcDbLine
 10
142.7966061345
 20
52.9889433025
 30
0.0
 11
135.2966061345
 21
52.9889433025
 31
0.0
  0
LINE
  5
1FD
100
AcDbEntity
  8
2051_3E
390
0
  6
DIVIDE
 62
        15
100
AcDbLine
 10
135.2966061345
 20
52.9889433025
 30
0.0
 11
135.2966061345
 21
54.4889433025
 31
0.0
  0
LINE
  5
1FE
100
AcDbEntity
  8
2051_3E
390
0
  6
DIVIDE
 62
        34
100
AcDbLine
 10
142.7966061345
 20
41.4889433025
 30
0.0
 11
135.2966061345
 21
41.4889433025
 31
0.0
  0
LINE
  5
1FF
100
AcDbEntity
  8
2051_3E
390
0
100
AcDbLine
 10
177.7966061345
 20
47.2389433025
 30
0.0
 11
182.2966061345
 21
47.2389433025
 31
0.0
  0
LINE
  5
200
100
AcDbEntity
  8
2051_3E
390
0
  6
DIVIDE
 62
        15
100
AcDbLine
 10
182.2966061345
 20
54.4889433025
 30
0.0
 11
185.2966061345
 21
54.4889433025
 31
0.0
  0
LINE
  5
201
100
AcDbEntity
  8
2051_3E
390
0
100
AcDbLine
 10
142.7966061345
 20
41.4889433025
 30
0.0
 11
159.7966061345
 21
41.4889433025
 31
0.0
  0
LINE
  5
202
100
AcDbEntity
  8
2051_3E
390
0
  6
DIVIDE
 62
        15
100
AcDbLine
 10
185.2966061345
 20
54.4889433025
 30
0.0
 11
185.2966061345
 21
58.9889433025
 31
0.0
  0
LINE
  5
203
100
AcDbEntity
  8
2051_3E
390
0
100
AcDbLine
 10
142.7966061345
 20
54.4889433025
 30
0.0
 11
167.7966061345
 21
54.4889433025
 31
0.0
  0
LINE
  5
204
100
AcDbEntity
  8
2051_3E
390
0
100
AcDbLine
 10
141.7966061345
 20
58.9889433025
 30
0.0
 11
182.5466061345
 21
58.9889433025
 31
0.0
  0
LINE
  5
205
100
AcDbEntity
  8
2051_3E
390
0
  6
DIVIDE
 62
        14
100
AcDbLine
 10
182.5466061345
 20
58.9889433025
 30
0.0
 11
185.2966061345
 21
58.9889433025
 31
0.0
  0
LINE
  5
206
100
AcDbEntity
  8
2051_3E
390
0
  6
DIVIDE
 62
        34
100
AcDbLine
 10
142.7966061345
 20
54.4889433025
 30
0.0
 11
135.2966061345
 21
54.4889433025
 31
0.0
  0
TEXT
  5
207
100
AcDbEntity
  8
BESCHRIFTUNG
390
0
100
AcDbText
 10
169.6728514208
 20
65.4592962644
 30
0.0
 40
2.5
  1
2051.3E
 41
1.1350983851
  7
Arial
 72
         1
 11
178.1860893088
 21
66.7092962644
 31
0.0
100
AcDbText
 73
         2
  0
LINE
  5
208
100
AcDbEntity
  8
MITTELLINIEN
390
0
100
AcDbLine
 10
187.2966061345
 20
39.4903063607
 30
0.0
 11
187.2966061345
 21
62.5100693429
 31
0.0
  0
CIRCLE
  5
209
100
AcDbEntity
  8
2051_3E
390
0
  6
PHANTOM
100
AcDbCircle
 10
137.2966061345
 20
41.4889433025
 30
0.0
 40
1.0
  0
CIRCLE
  5
20A
100
AcDbEntity
  8
2051_3E
370
         0
390
0
100
AcDbCircle
 10
142.2966061345
 20
47.4889433025
 30
0.0
 40
2.0
  0
ARC
  5
20B
100
AcDbEntity
  8
2051_1-4 SCHLÜSSEL
390
0
100
AcDbCircle
 10
172.5466061345
 20
52.2389433025
 30
0.0
 40
1.25
100
AcDbArc
 50
360.0
 51
450.0
  0
ARC
  5
20C
100
AcDbEntity
  8
2051_1-4 SCHLÜSSEL
390
0
100
AcDbCircle
 10
172.5466061345
 20
52.2389433025
 30
0.0
 40
1.25
100
AcDbArc
 50
90.0
 51
180.0
  0
ARC
  5
20D
100
AcDbEntity
  8
2051_1-4 SCHLÜSSEL
390
0
100
AcDbCircle
 10
174.2966061345
 20
51.9889433025
 30
0.0
 40
0.5
100
AcDbArc
 50
180.0
 51
270.0
  0
ARC
  5
20E
100
AcDbEntity
  8
2050_5_6 BESATZUNG
390
0
100
AcDbCircle
 10
161.5466061345
 20
46.2389433025
 30
0.0
 40
1.25
100
AcDbArc
 50
90.0
 51
180.0
  0
TEXT
  5
20F
100
AcDbEntity
  8
BESCHRIFTUNG
390
0
100
AcDbText
 10
146.1037206561
 20
43.4499800416
 30
0.0
 40
2.5
  1
2050.5E
 41
0.9081105563
  7
Arial
100
AcDbText
  0
LINE
  5
210
100
AcDbEntity
  8
2051_1-4 SCHLÜSSEL
390
0
100
AcDbLine
 10
181.2966061345
 20
48.2389433025
 30
0.0
 11
181.2966061345
 21
55.4889433025
 31
0.0
  0
LINE
  5
211
100
AcDbEntity
  8
2051_1-4 SCHLÜSSEL
390
0
100
AcDbLine
 10
184.2966061345
 20
55.4889433025
 30
0.0
 11
184.2966061345
 21
57.9889433025
 31
0.0
  0
LINE
  5
212
100
AcDbEntity
  8
2051_1-4 SCHLÜSSEL
390
0
100
AcDbLine
 10
171.2966061345
 20
51.4889433025
 30
0.0
 11
171.2966061345
 21
52.2389433025
 31
0.0
  0
LINE
  5
213
100
AcDbEntity
  8
2051_1-4 SCHLÜSSEL
390
0
100
AcDbLine
 10
181.2966061345
 20
55.4889433025
 30
0.0
 11
184.2966061345
 21
55.4889433025
 31
0.0
  0
LINE
  5
214
100
AcDbEntity
  8
2051_1-4 SCHLÜSSEL
390
0
100
AcDbLine
 10
173.7966061345
 20
51.9889433025
 30
0.0
 11
173.7966061345
 21
52.2389433025
 31
0.0
  0
LINE
  5
215
100
AcDbEntity
  8
2051_1-4 SCHLÜSSEL
390
0
100
AcDbLine
 10
168.7966061345
 20
51.4889433025
 30
0.0
 11
168.7966061345
 21
55.4889433025
 31
0.0
  0
LINE
  5
216
100
AcDbEntity
  8
2051_1-4 SCHLÜSSEL
390
0
100
AcDbLine
 10
142.7966061345
 20
55.4889433025
 30
0.0
 11
142.7966061345
 21
57.9889433025
 31
0.0
  0
LINE
  5
217
100
AcDbEntity
  8
2051_1-4 SCHLÜSSEL
390
0
100
AcDbLine
 10
176.2966061345
 20
51.4889433025
 30
0.0
 11
174.2966061345
 21
51.4889433025
 31
0.0
  0
LINE
  5
218
100
AcDbEntity
  8
2051_1-4 SCHLÜSSEL
390
0
100
AcDbLine
 10
178.7966061345
 20
48.2389433025
 30
0.0
 11
181.2966061345
 21
48.2389433025
 31
0.0
  0
LINE
  5
219
100
AcDbEntity
  8
2051_1-4 SCHLÜSSEL
390
0
100
AcDbLine
 10
142.7966061345
 20
55.4889433025
 30
0.0
 11
168.7966061345
 21
55.4889433025
 31
0.0
  0
LINE
  5
21A
100
AcDbEntity
  8
2051_1-4 SCHLÜSSEL
390
0
100
AcDbLine
 10
142.7966061345
 20
57.9889433025
 30
0.0
 11
184.2966061345
 21
57.9889433025
 31
0.0
  0
LINE
  5
21B
100
AcDbEntity
  8
2051_1-4 SCHLÜSSEL
390
0
100
AcDbLine
 10
178.7966061345
 20
48.2389433025
 30
0.0
 11
178.7966061345
 21
49.4889433025
 31
0.0
  0
LINE
  5
21C
100
AcDbEntity
  8
2050_5_6 BESATZUNG
370
         0
390
0
100
AcDbLine
 10
137.2966061345
 20
51.9889433025
 30
0.0
 11
137.2966061345
 21
42.4889433025
 31
0.0
  0
LINE
  5
21D
100
AcDbEntity
  8
2050_5_6 BESATZUNG
370
         0
390
0
100
AcDbLine
 10
158.2966061345
 20
51.9889433025
 30
0.0
 11
137.2966061345
 21
51.9889433025
 31
0.0
  0
LINE
  5
21E
100
AcDbEntity
  8
2050_5_6 BESATZUNG
370
         0
390
0
100
AcDbLine
 10
162.2966061345
 20
47.9889433025
 30
0.0
 11
162.2966061345
 21
48.9889433025
 31
0.0
  0
LINE
  5
21F
100
AcDbEntity
  8
2050_5_6 BESATZUNG
370
         0
390
0
100
AcDbLine
 10
160.2966061345
 20
49.4889433025
 30
0.0
 11
161.7966061345
 21
49.4889433025
 31
0.0
  0
LINE
  5
220
100
AcDbEntity
  8
2050_5_6 BESATZUNG
370
         0
390
0
100
AcDbLine
 10
161.7966061345
 20
47.4889433025
 30
0.0
 11
161.5466061345
 21
47.4889433025
 31
0.0
  0
LINE
  5
221
100
AcDbEntity
  8
2050_5_6 BESATZUNG
370
         0
390
0
100
AcDbLine
 10
137.2966061345
 20
42.4889433025
 30
0.0
 11
159.7966061345
 21
42.4889433025
 31
0.0
  0
LINE
  5
222
100
AcDbEntity
  8
2050_5_6 BESATZUNG
370
         0
390
0
100
AcDbLine
 10
160.2966061345
 20
44.9889433025
 30
0.0
 11
160.2966061345
 21
46.2389433025
 31
0.0
  0
LINE
  5
223
100
AcDbEntity
  8
2051_1-4 SCHLÜSSEL
390
0
100
AcDbLine
 10
170.7966061345
 20
49.4889433025
 30
0.0
 11
169.2966061345
 21
49.4889433025
 31
0.0
  0
LINE
  5
224
100
AcDbEntity
  8
2051_1-4 SCHLÜSSEL
390
0
100
AcDbLine
 10
171.2966061345
 20
49.9889433025
 30
0.0
 11
171.2966061345
 21
51.4889433025
 31
0.0
  0
LINE
  5
225
100
AcDbEntity
  8
2051_1-4 SCHLÜSSEL
390
0
100
AcDbLine
 10
168.7966061345
 20
49.9889433025
 30
0.0
 11
168.7966061345
 21
51.4889433025
 31
0.0
  0
LINE
  5
226
100
AcDbEntity
  8
2051_1-4 SCHLÜSSEL
390
0
100
AcDbLine
 10
178.7966061345
 20
49.4889433025
 30
0.0
 11
178.7966061345
 21
50.2389433025
 31
0.0
  0
LINE
  5
227
100
AcDbEntity
  8
2051_1-4 SCHLÜSSEL
390
0
100
AcDbLine
 10
177.5466061345
 20
51.4889433025
 30
0.0
 11
176.2966061345
 21
51.4889433025
 31
0.0
  0
LINE
  5
228
100
AcDbEntity
  8
2050_5_6 BESATZUNG
370
         0
390
0
100
AcDbLine
 10
159.5466061345
 20
49.4889433025
 30
0.0
 11
160.2966061345
 21
49.4889433025
 31
0.0
  0
LINE
  5
229
100
AcDbEntity
  8
2050_5_6 BESATZUNG
370
         0
390
0
100
AcDbLine
 10
160.2966061345
 20
42.9889433025
 30
0.0
 11
160.2966061345
 21
44.9889433025
 31
0.0
  0
LINE
  5
22A
100
AcDbEntity
  8
2050_5_6 BESATZUNG
370
         0
390
0
100
AcDbLine
 10
159.7966061345
 20
42.4889433025
 30
0.0
 11
158.2966061345
 21
42.4889433025
 31
0.0
  0
LINE
  5
22B
100
AcDbEntity
  8
2050_5_6 BESATZUNG
370
         0
390
0
100
AcDbLine
 10
158.2966061345
 20
50.7389433025
 30
0.0
 11
158.2966061345
 21
51.9889433025
 31
0.0
  0
ARC
  5
22C
100
AcDbEntity
  8
2050_5_6 BESATZUNG
390
0
100
AcDbCircle
 10
161.7966061345
 20
48.9889433025
 30
0.0
 40
0.5
100
AcDbArc
 50
360.0
 51
450.0
  0
ARC
  5
22D
100
AcDbEntity
  8
2050_5_6 BESATZUNG
390
0
100
AcDbCircle
 10
161.7966061345
 20
47.9889433025
 30
0.0
 40
0.5
100
AcDbArc
 50
270.0
 51
360.0
  0
ARC
  5
22E
100
AcDbEntity
  8
2051_1-4 SCHLÜSSEL
390
0
100
AcDbCircle
 10
170.7966061345
 20
49.9889433025
 30
0.0
 40
0.5
100
AcDbArc
 50
270.0
 51
360.0
  0
ARC
  5
22F
100
AcDbEntity
  8
2051_1-4 SCHLÜSSEL
390
0
100
AcDbCircle
 10
169.2966061345
 20
49.9889433025
 30
0.0
 40
0.5
100
AcDbArc
 50
180.0
 51
270.0
  0
ARC
  5
230
100
AcDbEntity
  8
2051_1-4 SCHLÜSSEL
390
0
100
AcDbCircle
 10
177.5466061345
 20
50.2389433025
 30
0.0
 40
1.25
100
AcDbArc
 50
360.0
 51
450.0
  0
ARC
  5
231
100
AcDbEntity
  8
2050_5_6 BESATZUNG
390
0
100
AcDbCircle
 10
159.5466061345
 20
50.7389433025
 30
0.0
 40
1.25
100
AcDbArc
 50
180.0
 51
270.0
  0
ARC
  5
232
100
AcDbEntity
  8
2050_5_6 BESATZUNG
390
0
100
AcDbCircle
 10
159.7966061345
 20
42.9889433025
 30
0.0
 40
0.5
100
AcDbArc
 50
270.0
 51
360.0
  0
LINE
  5
233
100
AcDbEntity
  8
2051_3D
390
0
100
AcDbLine
 10
159.5466061345
 20
85.4889433025
 30
0.0
 11
159.5466061345
 21
87.9889433025
 31
0.0
  0
LINE
  5
234
100
AcDbEntity
  8
2051_3D
390
0
100
AcDbLine
 10
170.7966061345
 20
83.4889433025
 30
0.0
 11
169.2966061345
 21
83.4889433025
 31
0.0
  0
LINE
  5
235
100
AcDbEntity
  8
2051_3D
390
0
100
AcDbLine
 10
175.7966061345
 20
83.4889433025
 30
0.0
 11
174.2966061345
 21
83.4889433025
 31
0.0
  0
LINE
  5
236
100
AcDbEntity
  8
2051_3E
390
0
100
AcDbLine
 10
177.5466061345
 20
50.4889433025
 30
0.0
 11
176.2966061345
 21
50.4889433025
 31
0.0
  0
LINE
  5
237
100
AcDbEntity
  8
2051_3E
390
0
100
AcDbLine
 10
176.2966061345
 20
50.4889433025
 30
0.0
 11
174.2966061345
 21
50.4889433025
 31
0.0
  0
LINE
  5
238
100
AcDbEntity
  8
2051_3E
390
0
100
AcDbLine
 10
170.7966061345
 20
48.4889433025
 30
0.0
 11
169.2966061345
 21
48.4889433025
 31
0.0
  0
MTEXT
  5
239
100
AcDbEntity
  8
BESCHRIFTUNG
390
0
100
AcDbMText
 10
149.1599681924
 20
274.5044779679
 30
0.0
 40
2.8
 41
0.0
 71
         1
 72
         1
  1
\W1.135076;Bartformen:\PA\PB\PC\PD\PE\PF\PG\PH\PK
  7
Arial
 73
         1
 44
0.6642857143
  0
MTEXT
  5
23A
100
AcDbEntity
  8
BESCHRIFTUNG
390
0
100
AcDbMText
 10
154.6978758847
 20
274.5044779679
 30
0.0
 40
2.8
 41
0.0
 71
         1
 72
         1
  1
\W1.000000;\P2200\P2110\P2101\P2020\P2011\P2002\P1210\P1201\P1120
  7
Arial
 73
         1
 44
0.6642857143
  0
MTEXT
  5
23B
100
AcDbEntity
  8
BESCHRIFTUNG
390
0
100
AcDbMText
 10
175.0035374232
 20
274.5044779679
 30
0.0
 40
2.8
 41
0.0
 71
         1
 72
         1
  1
\W1.000000;\PM\PP\PQ\PR\PT\PU\PV\PW\PX
  7
Arial
 73
         1
 44
0.6642857143
  0
MTEXT
  5
23C
100
AcDbEntity
  8
BESCHRIFTUNG
390
0
100
AcDbMText
 10
180.5414451155
 20
274.5044779679
 30
0.0
 40
2.8
 41
0.0
 71
         1
 72
         1
  1
\W1.000000;\P1102\P1021\P1012\P0220\P0211\P0202\P0121\P0112\P0022
  7
Arial
 73
         1
 44
0.6642857143
  0
LINE
  5
23D
100
AcDbEntity
  8
2051_3A
390
0
  6
DASHED
100
AcDbLine
 10
142.2966061345
 20
187.4889433025
 30
0.0
 11
135.2966061345
 21
181.4889433025
 31
0.0
  0
CIRCLE
  5
23E
100
AcDbEntity
  8
2051_3A
390
0
  6
PHANTOM
100
AcDbCircle
 10
137.2966061345
 20
198.9889433025
 30
0.0
 40
0.5
  0
LINE
  5
23F
100
AcDbEntity
  8
2051_3B
390
0
  6
DASHED
 62
        54
100
AcDbLine
 10
135.2966061345
 20
146.4889433025
 30
0.0
 11
142.2966061345
 21
152.4889433025
 31
0.0
  0
CIRCLE
  5
240
100
AcDbEntity
  8
2051_3B
390
0
  6
PHANTOM
 62
        54
100
AcDbCircle
 10
137.2966061345
 20
163.9889433025
 30
0.0
 40
0.5
  0
LINE
  5
241
100
AcDbEntity
  8
2051_3C
390
0
  6
DASHED
 62
        54
100
AcDbLine
 10
135.2966061345
 20
111.4889433025
 30
0.0
 11
142.2966061345
 21
117.4889433025
 31
0.0
  0
CIRCLE
  5
242
100
AcDbEntity
  8
2051_3C
390
0
  6
PHANTOM
 62
        54
100
AcDbCircle
 10
137.2966061345
 20
128.9889433025
 30
0.0
 40
0.5
  0
LINE
  5
243
100
AcDbEntity
  8
2051_3B
390
0
  6
DASHED
 62
        54
100
AcDbLine
 10
137.2966061345
 20
146.4889433025
 30
0.0
 11
142.2966061345
 21
152.4889433025
 31
0.0
  0
LINE
  5
244
100
AcDbEntity
  8
2051_3C
390
0
  6
DASHED
 62
        54
100
AcDbLine
 10
142.2966061345
 20
117.4889433025
 30
0.0
 11
137.2966061345
 21
111.4889433025
 31
0.0
  0
LINE
  5
245
100
AcDbEntity
  8
2051_3D
390
0
  6
DASHED
 62
        54
100
AcDbLine
 10
142.2966061345
 20
82.4889433025
 30
0.0
 11
135.2966061345
 21
76.4889433025
 31
0.0
  0
LINE
  5
246
100
AcDbEntity
  8
2051_3D
390
0
  6
DASHED
 62
        54
100
AcDbLine
 10
142.2966061345
 20
82.4889433025
 30
0.0
 11
137.2966061345
 21
76.4889433025
 31
0.0
  0
LINE
  5
247
100
AcDbEntity
  8
2051_3E
390
0
  6
DASHED
 62
        54
100
AcDbLine
 10
142.2966061345
 20
47.4889433025
 30
0.0
 11
135.2966061345
 21
41.4889433025
 31
0.0
  0
LINE
  5
248
100
AcDbEntity
  8
2051_3E
390
0
  6
DASHED
 62
        54
100
AcDbLine
 10
142.2966061345
 20
47.4889433025
 30
0.0
 11
137.2966061345
 21
41.4889433025
 31
0.0
  0
CIRCLE
  5
249
100
AcDbEntity
  8
2051_3E
390
0
  6
PHANTOM
 62
        54
100
AcDbCircle
 10
137.2966061345
 20
58.9889433025
 30
0.0
 40
0.5
  0
CIRCLE
  5
24A
100
AcDbEntity
  8
2051_3D
390
0
  6
PHANTOM
 62
        54
100
AcDbCircle
 10
137.2966061345
 20
93.9889433025
 30
0.0
 40
0.5
  0
LINE
  5
24B
100
AcDbEntity
  8
2051_3B
390
0
100
AcDbLine
 10
141.7966061345
 20
160.0183550672
 30
0.0
 11
141.7966061345
 21
163.9889433025
 31
0.0
  0
LINE
  5
24C
100
AcDbEntity
  8
2051_3B
390
0
  6
DASHED
 62
        54
100
AcDbLine
 10
141.7966061345
 20
160.0183550672
 30
0.0
 11
137.2966061345
 21
163.9889433025
 31
0.0
  0
LINE
  5
24D
100
AcDbEntity
  8
2051_3C
390
0
100
AcDbLine
 10
141.7966061345
 20
125.0183550672
 30
0.0
 11
141.7966061345
 21
128.9889433025
 31
0.0
  0
LINE
  5
24E
100
AcDbEntity
  8
2051_3C
390
0
  6
DASHED
 62
        54
100
AcDbLine
 10
141.7966061345
 20
125.0183550672
 30
0.0
 11
137.2966061345
 21
128.9889433025
 31
0.0
  0
LINE
  5
24F
100
AcDbEntity
  8
2051_3D
390
0
100
AcDbLine
 10
141.7966061345
 20
90.0183550672
 30
0.0
 11
141.7966061345
 21
93.9889433025
 31
0.0
  0
LINE
  5
250
100
AcDbEntity
  8
2051_3D
390
0
  6
DASHED
 62
        54
100
AcDbLine
 10
141.7966061345
 20
90.0183550672
 30
0.0
 11
137.2966061345
 21
93.9889433025
 31
0.0
  0
LINE
  5
251
100
AcDbEntity
  8
2051_3E
390
0
100
AcDbLine
 10
141.7966061345
 20
55.0183550672
 30
0.0
 11
141.7966061345
 21
58.9889433025
 31
0.0
  0
LINE
  5
252
100
AcDbEntity
  8
2051_3E
390
0
  6
DASHED
 62
        54
100
AcDbLine
 10
141.7966061345
 20
55.0183550672
 30
0.0
 11
137.2966061345
 21
58.9889433025
 31
0.0
  0
LINE
  5
253
100
AcDbEntity
  8
2051_3A
390
0
100
AcDbLine
 10
141.7966061345
 20
195.0183550672
 30
0.0
 11
141.7966061345
 21
198.9889433025
 31
0.0
  0
LINE
  5
254
100
AcDbEntity
  8
2051_3A
390
0
  6
DASHED
100
AcDbLine
 10
142.2966061345
 20
187.4889433025
 30
0.0
 11
137.2966061345
 21
181.4889433025
 31
0.0
  0
LINE
  5
255
100
AcDbEntity
  8
2051_3A
390
0
  6
DASHED
100
AcDbLine
 10
137.2966061345
 20
198.9889433025
 30
0.0
 11
141.7966061345
 21
195.0183550672
 31
0.0
  0
LINE
  5
256
100
AcDbEntity
  8
2051_3A
390
0
100
AcDbLine
 10
160.2966061345
 20
187.9889433025
 30
0.0
 11
161.7966061345
 21
187.9889433025
 31
0.0
  0
LINE
  5
257
100
AcDbEntity
  8
2051_3A
390
0
100
AcDbLine
 10
159.5466061345
 20
187.9889433025
 30
0.0
 11
160.2966061345
 21
187.9889433025
 31
0.0
  0
LINE
  5
258
100
AcDbEntity
  8
2051_3A
390
0
100
AcDbLine
 10
159.5466061345
 20
187.9889433025
 30
0.0
 11
159.5466061345
 21
189.4889433025
 31
0.0
  0
LINE
  5
259
100
AcDbEntity
  8
2051_3A
390
0
100
AcDbLine
 10
159.5466061345
 20
189.4889433025
 30
0.0
 11
159.5466061345
 21
192.9889433025
 31
0.0
  0
LINE
  5
25A
100
AcDbEntity
  8
2051_3A
390
0
100
AcDbLine
 10
171.2966061345
 20
188.4889433025
 30
0.0
 11
169.2966061345
 21
188.4889433025
 31
0.0
  0
LINE
  5
25B
100
AcDbEntity
  8
2051_3A
390
0
100
AcDbLine
 10
173.2966061345
 20
188.4889433025
 30
0.0
 11
171.2966061345
 21
188.4889433025
 31
0.0
  0
LINE
  5
25C
100
AcDbEntity
  8
2051_3A
390
0
100
AcDbLine
 10
176.2966061345
 20
192.4889433025
 30
0.0
 11
174.7966061345
 21
192.4889433025
 31
0.0
  0
LINE
  5
25D
100
AcDbEntity
  8
2051_3A
390
0
100
AcDbLine
 10
177.7966061345
 20
192.4889433025
 30
0.0
 11
176.2966061345
 21
192.4889433025
 31
0.0
  0
TEXT
  5
25E
100
AcDbEntity
  8
BESCHRIFTUNG
390
0
100
AcDbText
 10
93.3115809917
 20
238.0174200039
 30
0.0
 40
2.5
  1
2051.2
 41
1.1351380193
  7
Arial
 72
         1
 11
100.4391918107
 21
239.2674200039
 31
0.0
100
AcDbText
 73
         2
  0
TEXT
  5
25F
100
AcDbEntity
  8
BESCHRIFTUNG
390
0
100
AcDbText
 10
92.81212377
 20
280.2132077798
 30
0.0
 40
2.5
  1
2051.1
 41
1.1351381522
  7
Arial
 72
         1
 11
99.6229526829
 21
281.4632077798
 31
0.0
100
AcDbText
 73
         2
  0
CIRCLE
  5
260
100
AcDbEntity
  8
2051_1P
390
0
  6
PHANTOM
100
AcDbCircle
 10
106.2396960787
 20
245.1476310808
 30
0.0
 40
1.0
  0
CIRCLE
  5
261
100
AcDbEntity
  8
2051_1P
390
0
  6
PHANTOM
100
AcDbCircle
 10
106.2396960787
 20
272.1476310808
 30
0.0
 40
0.5
  0
CIRCLE
  5
262
100
AcDbEntity
  8
2051_2P
390
0
  6
PHANTOM
100
AcDbCircle
 10
106.3480448101
 20
202.9190956785
 30
0.0
 40
1.0
  0
CIRCLE
  5
263
100
AcDbEntity
  8
2051_2P
390
0
  6
PHANTOM
100
AcDbCircle
 10
106.3480448101
 20
229.9190956785
 30
0.0
 40
0.5
  0
CIRCLE
  5
264
100
AcDbEntity
  8
2051_1P
390
0
100
AcDbCircle
 10
122.7333589586
 20
258.6476310808
 30
0.0
 40
1.25
  0
CIRCLE
  5
265
100
AcDbEntity
  8
2051_2P
390
0
100
AcDbCircle
 10
122.84170769
 20
216.4190956785
 30
0.0
 40
1.25
  0
MTEXT
  5
266
100
AcDbEntity
  8
2051___ SCHLÜSSEL
390
0
100
AcDbMText
 10
96.5046295436
 20
249.592659763
 30
0.0
 40
2.0
 41
0.0
 71
         7
 72
         1
  1
\W1.135110;>2051.1P\PM25x2 T2 O2
  7
Arial
 73
         1
 44
0.66
  0
MTEXT
  5
267
100
AcDbEntity
  8
2051___ SCHLÜSSEL
390
0
100
AcDbMText
 10
96.6800298371
 20
207.8841528253
 30
0.0
 40
2.0
 41
0.0
 71
         7
 72
         1
  1
\W1.135110;>2051.2P\PM25x2 T2 O2
  7
Arial
 11
1.0
 21
0.0
 31
0.0
 73
         1
 44
0.66
  0
INSERT
  5
268
100
AcDbEntity
  8
BEMASSUNG
390
0
100
AcDbBlockReference
  2
D363520256
 10
0.0
 20
0.0
 30
0.0
  0
TEXT
  5
269
100
AcDbEntity
  8
BESCHRIFTUNG
390
0
100
AcDbText
 10
169.2730720907
 20
113.5901656706
 30
0.0
 40
2.0
  1
a b c d
 41
1.1350955198
  7
Arial
100
AcDbText
  0
TEXT
  5
26A
100
AcDbEntity
  8
BESCHRIFTUNG
390
0
100
AcDbText
 10
169.2730720907
 20
183.5901656706
 30
0.0
 40
2.0
  1
a b c d
 41
1.1350955198
  7
Arial
100
AcDbText
  0
TEXT
  5
26B
100
AcDbEntity
  8
BESCHRIFTUNG
390
0
100
AcDbText
 10
169.2730720907
 20
148.5901656706
 30
0.0
 40
2.0
  1
a b c d
 41
1.1350955198
  7
Arial
100
AcDbText
  0
TEXT
  5
26C
100
AcDbEntity
  8
BESCHRIFTUNG
390
0
100
AcDbText
 10
169.2730720907
 20
78.5901656706
 30
0.0
 40
2.0
  1
a b c d
 41
1.1350955198
  7
Arial
100
AcDbText
  0
TEXT
  5
26D
100
AcDbEntity
  8
BESCHRIFTUNG
390
0
100
AcDbText
 10
169.2730720907
 20
43.5901656706
 30
0.0
 40
2.0
  1
a b c d
 41
1.1350955198
  7
Arial
100
AcDbText
  0
MTEXT
  5
26E
100
AcDbEntity
  8
2051___ SCHLÜSSEL
390
0
100
AcDbMText
 10
123.6448924974
 20
186.5863890421
 30
0.0
 40
2.0
 41
0.0
 71
         7
 72
         1
  1
\W1.135110;>2051.3A\PM50x2 T2 O2
  7
Arial
 73
         1
 44
0.66
  0
MTEXT
  5
26F
100
AcDbEntity
  8
2051___ SCHLÜSSEL
390
0
100
AcDbMText
 10
123.6448924974
 20
151.5863890421
 30
0.0
 40
2.0
 41
0.0
 71
         7
 72
         1
  1
\W1.135110;>2051.3B\PM50x2 T2 O2
  7
Arial
 73
         1
 44
0.66
  0
MTEXT
  5
270
100
AcDbEntity
  8
2051___ SCHLÜSSEL
390
0
100
AcDbMText
 10
123.6448924974
 20
116.5863890421
 30
0.0
 40
2.0
 41
0.0
 71
         7
 72
         1
  1
\W1.135111;>2051.3C\PM50x2 T2 O2
  7
Arial
 73
         1
 44
0.66
  0
MTEXT
  5
271
100
AcDbEntity
  8
2051___ SCHLÜSSEL
390
0
100
AcDbMText
 10
123.6448924974
 20
81.5863890421
 30
0.0
 40
2.0
 41
0.0
 71
         7
 72
         1
  1
\W1.135111;>2051.3D\PM50x2 T2 O2
  7
Arial
 73
         1
 44
0.66
  0
MTEXT
  5
272
100
AcDbEntity
  8
2051___ SCHLÜSSEL
390
0
100
AcDbMText
 10
123.6448924974
 20
46.5863890421
 30
0.0
 40
2.0
 41
0.0
 71
         7
 72
         1
  1
\W1.135110;>2051.3E\PM50x2 T2 O2
  7
Arial
 73
         1
 44
0.66
  0
INSERT
  5
273
100
AcDbEntity
  8
BEMASSUNG
390
0
100
AcDbBlockReference
  2
D363536128
 10
0.0
 20
0.0
 30
0.0
  0
INSERT
  5
274
100
AcDbEntity
  8
BEMASSUNG
390
0
100
AcDbBlockReference
  2
D363535872
 10
0.0
 20
0.0
 30
0.0
  0
MTEXT
  5
275
100
AcDbEntity
  8
2051_3E
390
0
100
AcDbMText
 10
121.0888693033
 20
60.9340857178
 30
0.0
 40
2.0
 41
0.0
 71
         7
 72
         1
  1
\W1.135094;M50x2 T2 O2 F150\PB-0.3 D1.6 I1.2 S9
  7
Arial
 73
         1
 44
0.66
  0
MTEXT
  5
276
100
AcDbEntity
  8
2051_3D
390
0
100
AcDbMText
 10
121.0888693033
 20
95.9340857178
 30
0.0
 40
2.0
 41
0.0
 71
         7
 72
         1
  1
\W1.135094;M50x2 T2 O2 F150\PB-0.3 D1.6 I1.2 S9
  7
Arial
 73
         1
 44
0.66
  0
MTEXT
  5
277
100
AcDbEntity
  8
2051_3C
390
0
100
AcDbMText
 10
121.0888693033
 20
130.9340857178
 30
0.0
 40
2.0
 41
0.0
 71
         7
 72
         1
  1
\W1.135094;M50x2 T2 O2 F150\PB-0.3 D1.6 I1.2 S9
  7
Arial
 73
         1
 44
0.66
  0
MTEXT
  5
278
100
AcDbEntity
  8
2051_3B
390
0
100
AcDbMText
 10
121.0888693033
 20
165.9340857178
 30
0.0
 40
2.0
 41
0.0
 71
         7
 72
         1
  1
\W1.135094;M50x2 T2 O2 F150\PB-0.3 D1.6 I1.2 S9
  7
Arial
 73
         1
 44
0.66
  0
MTEXT
  5
279
100
AcDbEntity
  8
2051_3A
390
0
100
AcDbMText
 10
123.0888693033
 20
200.9340857178
 30
0.0
 40
2.0
 41
0.0
 71
         7
 72
         1
  1
\W1.135094;M50x2 T2 O2 F150\PB-0.3 D1.6 I1.2 S9
  7
Arial
 73
         1
 44
0.66
  0
MTEXT
  5
27A
100
AcDbEntity
  8
2051_2P
390
0
100
AcDbMText
 10
94.6526599185
 20
230.8659437237
 30
0.0
 40
2.0
 41
0.0
 71
         7
 72
         1
  1
\W1.135102;M25/50/60x2 T2 O2 F150\PB-0.3 D1.6 I1.2 S9
  7
Arial
 73
         1
 44
0.66
  0
MTEXT
  5
27B
100
AcDbEntity
  8
2051_1P
390
0
100
AcDbMText
 10
95.137850069
 20
273.1530396527
 30
0.0
 40
2.0
 41
0.0
 71
         7
 72
         1
  1
\W1.135102;M25/50/60x2 T2 O2 F150\PB-0.3 D1.6 I1.2 S9
  7
Arial
 73
         1
 44
0.66
  0
LINE
  5
27C
100
AcDbEntity
  8
2051_2P
390
0
  6
DIVIDE
100
AcDbLine
 10
112.8480448101
 20
217.6690956785
 30
0.0
 11
103.5931898361
 21
217.6690956785
 31
0.0
  0
LINE
  5
27D
100
AcDbEntity
  8
2051_2P
390
0
  6
DIVIDE
100
AcDbLine
 10
103.5931898361
 20
215.1690956785
 30
0.0
 11
112.8480448101
 21
215.1690956785
 31
0.0
  0
LINE
  5
27E
100
AcDbEntity
  8
2051_2P
390
0
  6
DIVIDE
100
AcDbLine
 10
103.5931898361
 20
215.1690956785
 30
0.0
 11
103.5931898361
 21
217.6690956785
 31
0.0
  0
LINE
  5
27F
100
AcDbEntity
  8
2051_2P
390
0
  6
DASHED
100
AcDbLine
 10
112.8480448101
 20
217.6690956785
 30
0.0
 11
122.84170769
 21
216.4190956785
 31
0.0
  0
LINE
  5
280
100
AcDbEntity
  8
2051_2P
390
0
  6
DASHED
100
AcDbLine
 10
122.84170769
 20
216.4190956785
 30
0.0
 11
127.0694321312
 21
217.1116275067
 31
0.0
  0
LINE
  5
281
100
AcDbEntity
  8
2051_2P
390
0
  6
DASHED
100
AcDbLine
 10
112.8480448101
 20
215.1690956785
 30
0.0
 11
127.0694321312
 21
215.7265638503
 31
0.0
  0
LINE
  5
282
100
AcDbEntity
  8
2051_1P
390
0
  6
DIVIDE
100
AcDbLine
 10
127.2396960787
 20
272.1476310808
 30
0.0
 11
106.2396960787
 21
272.1476310808
 31
0.0
  0
LINE
  5
283
100
AcDbEntity
  8
2051_1P
390
0
  6
DIVIDE
100
AcDbLine
 10
127.2396960787
 20
245.1476310808
 30
0.0
 11
106.2396960787
 21
245.1476310808
 31
0.0
  0
LINE
  5
284
100
AcDbEntity
  8
2051_1P
390
0
  6
DIVIDE
100
AcDbLine
 10
112.7396960787
 20
259.8976310808
 30
0.0
 11
103.2419049386
 21
259.8976310808
 31
0.0
  0
LINE
  5
285
100
AcDbEntity
  8
2051_1P
390
0
  6
DIVIDE
100
AcDbLine
 10
103.2419049386
 20
257.3976310808
 30
0.0
 11
112.7396960787
 21
257.3976310808
 31
0.0
  0
LINE
  5
286
100
AcDbEntity
  8
2051_1P
390
0
  6
DIVIDE
100
AcDbLine
 10
103.2419049386
 20
257.3976310808
 30
0.0
 11
103.2419049386
 21
259.8976310808
 31
0.0
  0
LINE
  5
287
100
AcDbEntity
  8
2051_1P
390
0
  6
DASHED
100
AcDbLine
 10
106.2396960787
 20
245.1476310808
 30
0.0
 11
122.7333589586
 21
258.6476310808
 31
0.0
  0
LINE
  5
288
100
AcDbEntity
  8
2051_1P
390
0
  6
DASHED
100
AcDbLine
 10
122.7333589586
 20
258.6476310808
 30
0.0
 11
112.7396960787
 21
259.8976310808
 31
0.0
  0
LINE
  5
289
100
AcDbEntity
  8
2051_1P
390
0
  6
DASHED
100
AcDbLine
 10
112.7396960787
 20
257.3976310808
 30
0.0
 11
106.2396960787
 21
245.1476310808
 31
0.0
  0
LINE
  5
28A
100
AcDbEntity
  8
2051_1-4 SCHLÜSSEL
390
0
100
AcDbLine
 10
114.3480448101
 20
228.9190956785
 30
0.0
 11
126.3480448101
 21
216.4190956785
 31
0.0
  0
LINE
  5
28B
100
AcDbEntity
  8
2051_1-4 SCHLÜSSEL
390
0
100
AcDbLine
 10
126.3480448101
 20
216.4190956785
 30
0.0
 11
114.3480448101
 21
203.9190956785
 31
0.0
  0
LINE
  5
28C
100
AcDbEntity
  8
2051_1-4 SCHLÜSSEL
390
0
100
AcDbLine
 10
114.3480448101
 20
228.9190956785
 30
0.0
 11
106.3480448101
 21
228.9190956785
 31
0.0
  0
LINE
  5
28D
100
AcDbEntity
  8
2051_1-4 SCHLÜSSEL
390
0
100
AcDbLine
 10
114.3480448101
 20
203.9190956785
 30
0.0
 11
106.3480448101
 21
203.9190956785
 31
0.0
  0
LINE
  5
28E
100
AcDbEntity
  8
2051_2P
390
0
100
AcDbLine
 10
127.0694321312
 20
215.7265638503
 30
0.0
 11
114.7742626862
 21
202.9190956785
 31
0.0
  0
LINE
  5
28F
100
AcDbEntity
  8
2051_2P
390
0
100
AcDbLine
 10
114.7742626862
 20
229.9190956785
 30
0.0
 11
127.0694321312
 21
217.1116275067
 31
0.0
  0
LINE
  5
290
100
AcDbEntity
  8
2051_2P
390
0
  6
DIVIDE
100
AcDbLine
 10
114.7742626862
 20
229.9190956785
 30
0.0
 11
106.3480448101
 21
229.9190956785
 31
0.0
  0
LINE
  5
291
100
AcDbEntity
  8
2051_2P
390
0
  6
DIVIDE
100
AcDbLine
 10
114.7742626862
 20
202.9190956785
 30
0.0
 11
106.3480448101
 21
202.9190956785
 31
0.0
  0
ARC
  5
292
100
AcDbEntity
  8
2051___ SCHLÜSSEL
390
0
  6
DASHDOT
100
AcDbCircle
 10
123.2958646098
 20
216.4190956785
 30
0.0
 40
21.6674547643
100
AcDbArc
 50
141.4604825965
 51
218.5395174035
  0
ARC
  5
293
100
AcDbEntity
  8
2051___ SCHLÜSSEL
390
0
  6
DASHDOT
100
AcDbCircle
 10
117.0929110594
 20
258.6476310808
 30
0.0
 40
17.3217284189
100
AcDbArc
 50
128.797257958
 51
231.202742042
  0
LINE
  5
294
100
AcDbEntity
  8
2051_3A
390
0
100
AcDbLine
 10
167.7966061345
 20
189.9889433025
 30
0.0
 11
167.7966061345
 21
194.4889433025
 31
0.0
  0
LINE
  5
295
100
AcDbEntity
  8
2051_3A
390
0
100
AcDbLine
 10
182.2966061345
 20
187.2389433025
 30
0.0
 11
182.2966061345
 21
194.4889433025
 31
0.0
  0
LINE
  5
296
100
AcDbEntity
  8
2051_3A
390
0
100
AcDbLine
 10
177.7966061345
 20
187.2389433025
 30
0.0
 11
177.7966061345
 21
192.4889433025
 31
0.0
  0
LINE
  5
297
100
AcDbEntity
  8
2051_3A
390
0
100
AcDbLine
 10
174.7966061345
 20
189.9889433025
 30
0.0
 11
174.7966061345
 21
192.4889433025
 31
0.0
  0
ARC
  5
298
100
AcDbEntity
  8
2051_3A
390
0
100
AcDbCircle
 10
173.2966061345
 20
189.9889433025
 30
0.0
 40
1.5
100
AcDbArc
 50
270.0
 51
360.0
  0
ARC
  5
299
100
AcDbEntity
  8
2051_3A
390
0
100
AcDbCircle
 10
169.2966061345
 20
189.9889433025
 30
0.0
 40
1.5
100
AcDbArc
 50
180.0
 51
270.0
  0
LINE
  5
29A
100
AcDbEntity
  8
2051_3A
390
0
100
AcDbLine
 10
163.2966061345
 20
182.9889433025
 30
0.0
 11
163.2966061345
 21
186.4889433025
 31
0.0
  0
ARC
  5
29B
100
AcDbEntity
  8
2051_3A
390
0
100
AcDbCircle
 10
161.7966061345
 20
186.4889433025
 30
0.0
 40
1.5
100
AcDbArc
 50
360.0
 51
450.0
  0
ARC
  5
29C
100
AcDbEntity
  8
2051_3A
390
0
100
AcDbCircle
 10
161.7966061345
 20
182.9889433025
 30
0.0
 40
1.5
100
AcDbArc
 50
270.0
 51
360.0
  0
LINE
  5
29D
100
AcDbEntity
  8
2051_3B
390
0
100
AcDbLine
 10
159.2966061345
 20
155.4031568648
 30
0.0
 11
159.2966061345
 21
157.9889433025
 31
0.0
  0
LINE
  5
29E
100
AcDbEntity
  8
2051_3B
390
0
100
AcDbLine
 10
161.2966061345
 20
150.7389433025
 30
0.0
 11
161.2966061345
 21
153.9889433025
 31
0.0
  0
ARC
  5
29F
100
AcDbEntity
  8
2051_3B
390
0
100
AcDbCircle
 10
159.7966061345
 20
153.9889433025
 30
0.0
 40
1.5
100
AcDbArc
 50
0.0
 51
109.4712206345
  0
LINE
  5
2A0
100
AcDbEntity
  8
2051_3B
390
0
100
AcDbLine
 10
163.2966061345
 20
147.9889433025
 30
0.0
 11
163.2966061345
 21
148.9889433025
 31
0.0
  0
ARC
  5
2A1
100
AcDbEntity
  8
2051_3B
390
0
100
AcDbCircle
 10
161.7966061345
 20
148.9889433025
 30
0.0
 40
1.5
100
AcDbArc
 50
360.0
 51
450.0
  0
ARC
  5
2A2
100
AcDbEntity
  8
2051_3B
390
0
100
AcDbCircle
 10
161.5466061345
 20
150.7389433025
 30
0.0
 40
0.25
100
AcDbArc
 50
180.0
 51
270.0
  0
ARC
  5
2A3
100
AcDbEntity
  8
2051_3B
390
0
100
AcDbCircle
 10
161.7966061345
 20
147.9889433025
 30
0.0
 40
1.5
100
AcDbArc
 50
270.0
 51
360.0
  0
LINE
  5
2A4
100
AcDbEntity
  8
2051_3B
390
0
100
AcDbLine
 10
167.7966061345
 20
154.9889433025
 30
0.0
 11
167.7966061345
 21
159.4889433025
 31
0.0
  0
ARC
  5
2A5
100
AcDbEntity
  8
2051_3B
390
0
100
AcDbCircle
 10
169.2966061345
 20
154.9889433025
 30
0.0
 40
1.5
100
AcDbArc
 50
180.0
 51
270.0
  0
ARC
  5
2A6
100
AcDbEntity
  8
2051_3B
390
0
100
AcDbCircle
 10
170.7966061345
 20
154.9889433025
 30
0.0
 40
1.5
100
AcDbArc
 50
270.0
 51
360.0
  0
ARC
  5
2A7
100
AcDbEntity
  8
2051_3B
390
0
100
AcDbCircle
 10
172.5466061345
 20
155.2389433025
 30
0.0
 40
0.25
100
AcDbArc
 50
90.0
 51
180.0
  0
LINE
  5
2A8
100
AcDbEntity
  8
2051_3B
390
0
100
AcDbLine
 10
177.2966061345
 20
156.9889433025
 30
0.0
 11
177.2966061345
 21
157.2389433025
 31
0.0
  0
ARC
  5
2A9
100
AcDbEntity
  8
2051_3B
390
0
100
AcDbCircle
 10
177.5466061345
 20
157.2389433025
 30
0.0
 40
0.25
100
AcDbArc
 50
90.0
 51
180.0
  0
ARC
  5
2AA
100
AcDbEntity
  8
2051_3B
390
0
100
AcDbCircle
 10
177.5466061345
 20
157.2389433025
 30
0.0
 40
0.25
100
AcDbArc
 50
0.0
 51
90.0
  0
LINE
  5
2AB
100
AcDbEntity
  8
2051_3B
390
0
100
AcDbLine
 10
177.7966061345
 20
152.2389433025
 30
0.0
 11
177.7966061345
 21
157.2389433025
 31
0.0
  0
LINE
  5
2AC
100
AcDbEntity
  8
2051_3B
390
0
100
AcDbLine
 10
182.2966061345
 20
152.2389433025
 30
0.0
 11
182.2966061345
 21
159.4889433025
 31
0.0
  0
ARC
  5
2AD
100
AcDbEntity
  8
2051_3B
390
0
100
AcDbCircle
 10
175.7966061345
 20
156.9889433025
 30
0.0
 40
1.5
100
AcDbArc
 50
270.0
 51
360.0
  0
LINE
  5
2AE
100
AcDbEntity
  8
2051_3B
390
0
100
AcDbLine
 10
161.5466061345
 20
150.4889433025
 30
0.0
 11
161.7966061345
 21
150.4889433025
 31
0.0
  0
LINE
  5
2AF
100
AcDbEntity
  8
2051_3B
390
0
100
AcDbLine
 10
172.2966061345
 20
155.2389433025
 30
0.0
 11
172.2966061345
 21
154.9889433025
 31
0.0
  0
LINE
  5
2B0
100
AcDbEntity
  8
2051_3C
390
0
100
AcDbLine
 10
159.2966061345
 20
120.7389433025
 30
0.0
 11
159.2966061345
 21
122.9889433025
 31
0.0
  0
ARC
  5
2B1
100
AcDbEntity
  8
2051_3C
390
0
100
AcDbCircle
 10
159.5466061345
 20
120.7389433025
 30
0.0
 40
0.25
100
AcDbArc
 50
180.0
 51
270.0
  0
ARC
  5
2B2
100
AcDbEntity
  8
2051_3C
390
0
100
AcDbCircle
 10
159.7966061345
 20
118.9889433025
 30
0.0
 40
1.5
100
AcDbArc
 50
360.0
 51
450.0
  0
LINE
  5
2B3
100
AcDbEntity
  8
2051_3C
390
0
100
AcDbLine
 10
159.5466061345
 20
120.4889433025
 30
0.0
 11
159.7966061345
 21
120.4889433025
 31
0.0
  0
LINE
  5
2B4
100
AcDbEntity
  8
2051_3C
390
0
100
AcDbLine
 10
161.2966061345
 20
117.9889433025
 30
0.0
 11
161.7966061345
 21
117.9889433025
 31
0.0
  0
LINE
  5
2B5
100
AcDbEntity
  8
2051_3C
390
0
100
AcDbLine
 10
161.2966061345
 20
117.9889433025
 30
0.0
 11
161.2966061345
 21
118.9889433025
 31
0.0
  0
ARC
  5
2B6
100
AcDbEntity
  8
2051_3C
390
0
100
AcDbCircle
 10
161.7966061345
 20
116.4889433025
 30
0.0
 40
1.5
100
AcDbArc
 50
360.0
 51
450.0
  0
ARC
  5
2B7
100
AcDbEntity
  8
2051_3C
390
0
100
AcDbCircle
 10
161.7966061345
 20
115.4889433025
 30
0.0
 40
1.5
100
AcDbArc
 50
270.0
 51
360.0
  0
LINE
  5
2B8
100
AcDbEntity
  8
2051_3C
390
0
100
AcDbLine
 10
163.2966061345
 20
115.4889433025
 30
0.0
 11
163.2966061345
 21
116.4889433025
 31
0.0
  0
LINE
  5
2B9
100
AcDbEntity
  8
2051_3C
390
0
100
AcDbLine
 10
161.2966061345
 20
112.9889433025
 30
0.0
 11
161.2966061345
 21
113.7389433025
 31
0.0
  0
ARC
  5
2BA
100
AcDbEntity
  8
2051_3C
390
0
100
AcDbCircle
 10
161.5466061345
 20
113.7389433025
 30
0.0
 40
0.25
100
AcDbArc
 50
90.0
 51
180.0
  0
ARC
  5
2BB
100
AcDbEntity
  8
2051_3C
390
0
100
AcDbCircle
 10
159.7966061345
 20
112.9889433025
 30
0.0
 40
1.5
100
AcDbArc
 50
270.0
 51
360.0
  0
ARC
  5
2BC
100
AcDbEntity
  8
2051_3C
390
0
100
AcDbCircle
 10
169.2966061345
 20
119.9889433025
 30
0.0
 40
1.5
100
AcDbArc
 50
180.0
 51
270.0
  0
LINE
  5
2BD
100
AcDbEntity
  8
2051_3C
390
0
100
AcDbLine
 10
167.7966061345
 20
119.9889433025
 30
0.0
 11
167.7966061345
 21
124.4889433025
 31
0.0
  0
ARC
  5
2BE
100
AcDbEntity
  8
2051_3C
390
0
100
AcDbCircle
 10
170.7966061345
 20
119.9889433025
 30
0.0
 40
1.5
100
AcDbArc
 50
270.0
 51
360.0
  0
LINE
  5
2BF
100
AcDbEntity
  8
2051_3C
390
0
100
AcDbLine
 10
173.2966061345
 20
120.4889433025
 30
0.0
 11
172.5466061345
 21
120.4889433025
 31
0.0
  0
ARC
  5
2C0
100
AcDbEntity
  8
2051_3C
390
0
100
AcDbCircle
 10
172.5466061345
 20
120.2389433025
 30
0.0
 40
0.25
100
AcDbArc
 50
90.0
 51
180.0
  0
LINE
  5
2C1
100
AcDbEntity
  8
2051_3C
390
0
100
AcDbLine
 10
172.2966061345
 20
119.9889433025
 30
0.0
 11
172.2966061345
 21
120.2389433025
 31
0.0
  0
ARC
  5
2C2
100
AcDbEntity
  8
2051_3C
390
0
100
AcDbCircle
 10
175.0466061345
 20
122.2389433025
 30
0.0
 40
0.25
100
AcDbArc
 50
90.0
 51
180.0
  0
ARC
  5
2C3
100
AcDbEntity
  8
2051_3C
390
0
100
AcDbCircle
 10
175.0466061345
 20
122.2389433025
 30
0.0
 40
0.25
100
AcDbArc
 50
360.0
 51
450.0
  0
ARC
  5
2C4
100
AcDbEntity
  8
2051_3C
390
0
100
AcDbCircle
 10
176.7966061345
 20
121.9889433025
 30
0.0
 40
1.5
100
AcDbArc
 50
180.0
 51
270.0
  0
LINE
  5
2C5
100
AcDbEntity
  8
2051_3C
390
0
100
AcDbLine
 10
175.2966061345
 20
121.9889433025
 30
0.0
 11
175.2966061345
 21
122.2389433025
 31
0.0
  0
LINE
  5
2C6
100
AcDbEntity
  8
2051_3C
390
0
100
AcDbLine
 10
174.7966061345
 20
121.9889433025
 30
0.0
 11
174.7966061345
 21
122.2389433025
 31
0.0
  0
ARC
  5
2C7
100
AcDbEntity
  8
2051_3C
390
0
100
AcDbCircle
 10
173.2966061345
 20
121.9889433025
 30
0.0
 40
1.5
100
AcDbArc
 50
270.0
 51
360.0
  0
LINE
  5
2C8
100
AcDbEntity
  8
2051_3C
390
0
100
AcDbLine
 10
177.5466061345
 20
120.4889433025
 30
0.0
 11
176.7966061345
 21
120.4889433025
 31
0.0
  0
ARC
  5
2C9
100
AcDbEntity
  8
2051_3C
390
0
100
AcDbCircle
 10
177.5466061345
 20
120.2389433025
 30
0.0
 40
0.25
100
AcDbArc
 50
0.0
 51
90.0
  0
LINE
  5
2CA
100
AcDbEntity
  8
2051_3C
390
0
100
AcDbLine
 10
177.7966061345
 20
117.2389433025
 30
0.0
 11
177.7966061345
 21
120.2389433025
 31
0.0
  0
LINE
  5
2CB
100
AcDbEntity
  8
2051_3C
390
0
100
AcDbLine
 10
182.2966061345
 20
117.2389433025
 30
0.0
 11
182.2966061345
 21
124.4889433025
 31
0.0
  0
LINE
  5
2CC
100
AcDbEntity
  8
2051_3C
390
0
100
AcDbLine
 10
161.5466061345
 20
113.9889433025
 30
0.0
 11
161.7966061345
 21
113.9889433025
 31
0.0
  0
LINE
  5
2CD
100
AcDbEntity
  8
2051_3D
390
0
100
AcDbLine
 10
159.5466061345
 20
85.4889433025
 30
0.0
 11
161.7966061345
 21
85.4889433025
 31
0.0
  0
LINE
  5
2CE
100
AcDbEntity
  8
2051_3D
390
0
100
AcDbLine
 10
163.2966061345
 20
82.9889433025
 30
0.0
 11
163.2966061345
 21
83.9889433025
 31
0.0
  0
LINE
  5
2CF
100
AcDbEntity
  8
2051_3D
390
0
100
AcDbLine
 10
161.7966061345
 20
81.4889433025
 30
0.0
 11
159.5466061345
 21
81.4889433025
 31
0.0
  0
ARC
  5
2D0
100
AcDbEntity
  8
2051_3D
390
0
100
AcDbCircle
 10
159.5466061345
 20
81.2389433025
 30
0.0
 40
0.25
100
AcDbArc
 50
90.0
 51
180.0
  0
LINE
  5
2D1
100
AcDbEntity
  8
2051_3D
390
0
100
AcDbLine
 10
159.2966061345
 20
80.7389433025
 30
0.0
 11
159.2966061345
 21
81.2389433025
 31
0.0
  0
ARC
  5
2D2
100
AcDbEntity
  8
2051_3D
390
0
100
AcDbCircle
 10
159.5466061345
 20
80.7389433025
 30
0.0
 40
0.25
100
AcDbArc
 50
180.0
 51
270.0
  0
LINE
  5
2D3
100
AcDbEntity
  8
2051_3D
390
0
100
AcDbLine
 10
159.5466061345
 20
80.4889433025
 30
0.0
 11
161.7966061345
 21
80.4889433025
 31
0.0
  0
LINE
  5
2D4
100
AcDbEntity
  8
2051_3D
390
0
100
AcDbLine
 10
163.2966061345
 20
77.9889433025
 30
0.0
 11
163.2966061345
 21
78.9889433025
 31
0.0
  0
ARC
  5
2D5
100
AcDbEntity
  8
2051_3D
390
0
100
AcDbCircle
 10
161.7966061345
 20
78.9889433025
 30
0.0
 40
1.5
100
AcDbArc
 50
360.0
 51
450.0
  0
ARC
  5
2D6
100
AcDbEntity
  8
2051_3D
390
0
100
AcDbCircle
 10
161.7966061345
 20
77.9889433025
 30
0.0
 40
1.5
100
AcDbArc
 50
270.0
 51
360.0
  0
ARC
  5
2D7
100
AcDbEntity
  8
2051_3D
390
0
100
AcDbCircle
 10
169.2966061345
 20
84.9889433025
 30
0.0
 40
1.5
100
AcDbArc
 50
180.0
 51
270.0
  0
ARC
  5
2D8
100
AcDbEntity
  8
2051_3D
390
0
100
AcDbCircle
 10
170.7966061345
 20
84.9889433025
 30
0.0
 40
1.5
100
AcDbArc
 50
270.0
 51
360.0
  0
LINE
  5
2D9
100
AcDbEntity
  8
2051_3D
390
0
100
AcDbLine
 10
172.2966061345
 20
84.9889433025
 30
0.0
 11
172.2966061345
 21
87.2389433025
 31
0.0
  0
ARC
  5
2DA
100
AcDbEntity
  8
2051_3D
390
0
100
AcDbCircle
 10
172.5466061345
 20
87.2389433025
 30
0.0
 40
0.25
100
AcDbArc
 50
90.0
 51
180.0
  0
ARC
  5
2DB
100
AcDbEntity
  8
2051_3D
390
0
100
AcDbCircle
 10
172.5466061345
 20
87.2389433025
 30
0.0
 40
0.25
100
AcDbArc
 50
0.0
 51
90.0
  0
LINE
  5
2DC
100
AcDbEntity
  8
2051_3D
390
0
100
AcDbLine
 10
172.7966061345
 20
84.9889433025
 30
0.0
 11
172.7966061345
 21
87.2389433025
 31
0.0
  0
ARC
  5
2DD
100
AcDbEntity
  8
2051_3D
390
0
100
AcDbCircle
 10
174.2966061345
 20
84.9889433025
 30
0.0
 40
1.5
100
AcDbArc
 50
180.0
 51
270.0
  0
ARC
  5
2DE
100
AcDbEntity
  8
2051_3D
390
0
100
AcDbCircle
 10
175.7966061345
 20
84.9889433025
 30
0.0
 40
1.5
100
AcDbArc
 50
270.0
 51
360.0
  0
LINE
  5
2DF
100
AcDbEntity
  8
2051_3D
390
0
100
AcDbLine
 10
177.2966061345
 20
84.9889433025
 30
0.0
 11
177.2966061345
 21
87.2389433025
 31
0.0
  0
ARC
  5
2E0
100
AcDbEntity
  8
2051_3D
390
0
100
AcDbCircle
 10
177.5466061345
 20
87.2389433025
 30
0.0
 40
0.25
100
AcDbArc
 50
90.0
 51
180.0
  0
ARC
  5
2E1
100
AcDbEntity
  8
2051_3D
390
0
100
AcDbCircle
 10
177.5466061345
 20
87.2389433025
 30
0.0
 40
0.25
100
AcDbArc
 50
0.0
 51
90.0
  0
LINE
  5
2E2
100
AcDbEntity
  8
2051_3D
390
0
100
AcDbLine
 10
177.7966061345
 20
82.2389433025
 30
0.0
 11
177.7966061345
 21
87.2389433025
 31
0.0
  0
LINE
  5
2E3
100
AcDbEntity
  8
2051_3D
390
0
100
AcDbLine
 10
182.2966061345
 20
82.2389433025
 30
0.0
 11
182.2966061345
 21
89.4889433025
 31
0.0
  0
LINE
  5
2E4
100
AcDbEntity
  8
2051_3D
390
0
100
AcDbLine
 10
167.7966061345
 20
84.9889433025
 30
0.0
 11
167.7966061345
 21
89.4889433025
 31
0.0
  0
ARC
  5
2E5
100
AcDbEntity
  8
2051_3D
390
0
100
AcDbCircle
 10
161.7966061345
 20
83.9889433025
 30
0.0
 40
1.5
100
AcDbArc
 50
360.0
 51
450.0
  0
ARC
  5
2E6
100
AcDbEntity
  8
2051_3D
390
0
100
AcDbCircle
 10
161.7966061345
 20
82.9889433025
 30
0.0
 40
1.5
100
AcDbArc
 50
270.0
 51
360.0
  0
LINE
  5
2E7
100
AcDbEntity
  8
2051_3E
390
0
100
AcDbLine
 10
159.2966061345
 20
50.7389433025
 30
0.0
 11
159.2966061345
 21
52.9889433025
 31
0.0
  0
LINE
  5
2E8
100
AcDbEntity
  8
2051_3E
390
0
100
AcDbLine
 10
159.5466061345
 20
50.4889433025
 30
0.0
 11
161.7966061345
 21
50.4889433025
 31
0.0
  0
ARC
  5
2E9
100
AcDbEntity
  8
2051_3E
390
0
100
AcDbCircle
 10
161.7966061345
 20
48.9889433025
 30
0.0
 40
1.5
100
AcDbArc
 50
360.0
 51
450.0
  0
LINE
  5
2EA
100
AcDbEntity
  8
2051_3E
390
0
100
AcDbLine
 10
163.2966061345
 20
47.9889433025
 30
0.0
 11
163.2966061345
 21
48.9889433025
 31
0.0
  0
ARC
  5
2EB
100
AcDbEntity
  8
2051_3E
390
0
100
AcDbCircle
 10
161.7966061345
 20
47.9889433025
 30
0.0
 40
1.5
100
AcDbArc
 50
270.0
 51
360.0
  0
LINE
  5
2EC
100
AcDbEntity
  8
2051_3E
390
0
100
AcDbLine
 10
161.7966061345
 20
46.4889433025
 30
0.0
 11
161.5466061345
 21
46.4889433025
 31
0.0
  0
ARC
  5
2ED
100
AcDbEntity
  8
2051_3E
390
0
100
AcDbCircle
 10
161.5466061345
 20
46.2389433025
 30
0.0
 40
0.25
100
AcDbArc
 50
90.0
 51
180.0
  0
LINE
  5
2EE
100
AcDbEntity
  8
2051_3E
390
0
100
AcDbLine
 10
161.2966061345
 20
42.9889433025
 30
0.0
 11
161.2966061345
 21
46.2389433025
 31
0.0
  0
ARC
  5
2EF
100
AcDbEntity
  8
2051_3E
390
0
100
AcDbCircle
 10
159.7966061345
 20
42.9889433025
 30
0.0
 40
1.5
100
AcDbArc
 50
270.0
 51
360.0
  0
LINE
  5
2F0
100
AcDbEntity
  8
2051_3E
390
0
100
AcDbLine
 10
167.7966061345
 20
49.9889433025
 30
0.0
 11
167.7966061345
 21
54.4889433025
 31
0.0
  0
ARC
  5
2F1
100
AcDbEntity
  8
2051_3E
390
0
100
AcDbCircle
 10
169.2966061345
 20
49.9889433025
 30
0.0
 40
1.5
100
AcDbArc
 50
180.0
 51
270.0
  0
ARC
  5
2F2
100
AcDbEntity
  8
2051_3E
390
0
100
AcDbCircle
 10
170.7966061345
 20
49.9889433025
 30
0.0
 40
1.5
100
AcDbArc
 50
270.0
 51
360.0
  0
LINE
  5
2F3
100
AcDbEntity
  8
2051_3E
390
0
100
AcDbLine
 10
172.2966061345
 20
49.9889433025
 30
0.0
 11
172.2966061345
 21
52.2389433025
 31
0.0
  0
ARC
  5
2F4
100
AcDbEntity
  8
2051_3E
390
0
100
AcDbCircle
 10
172.5466061345
 20
52.2389433025
 30
0.0
 40
0.25
100
AcDbArc
 50
90.0
 51
180.0
  0
ARC
  5
2F5
100
AcDbEntity
  8
2051_3E
390
0
100
AcDbCircle
 10
172.5466061345
 20
52.2389433025
 30
0.0
 40
0.25
100
AcDbArc
 50
360.0
 51
450.0
  0
ARC
  5
2F6
100
AcDbEntity
  8
2051_3E
390
0
100
AcDbCircle
 10
174.2966061345
 20
51.9889433025
 30
0.0
 40
1.5
100
AcDbArc
 50
180.0
 51
270.0
  0
LINE
  5
2F7
100
AcDbEntity
  8
2051_3E
390
0
100
AcDbLine
 10
177.7966061345
 20
47.2389433025
 30
0.0
 11
177.7966061345
 21
50.2389433025
 31
0.0
  0
LINE
  5
2F8
100
AcDbEntity
  8
2051_3E
390
0
100
AcDbLine
 10
182.2966061345
 20
47.2389433025
 30
0.0
 11
182.2966061345
 21
54.4889433025
 31
0.0
  0
ARC
  5
2F9
100
AcDbEntity
  8
2051_3E
390
0
100
AcDbCircle
 10
177.5466061345
 20
50.2389433025
 30
0.0
 40
0.25
100
AcDbArc
 50
0.0
 51
90.0
  0
ARC
  5
2FA
100
AcDbEntity
  8
2051_3E
390
0
100
AcDbCircle
 10
159.5466061345
 20
50.7389433025
 30
0.0
 40
0.25
100
AcDbArc
 50
180.0
 51
270.0
  0
LINE
  5
2FB
100
AcDbEntity
  8
2051_3E
390
0
100
AcDbLine
 10
172.7966061345
 20
52.2389433025
 30
0.0
 11
172.7966061345
 21
51.9889433025
 31
0.0
  0
LINE
  5
2FC
100
AcDbEntity
  8
2050_3 RIEGEL
390
0
100
AcDbLine
 10
43.6096849063
 20
74.4401893185
 30
0.0
 11
43.6096849063
 21
113.8161509138
 31
0.0
  0
LINE
  5
2FD
100
AcDbEntity
  8
2050_3 RIEGEL
370
         0
390
0
100
AcDbLine
 10
32.6096849063
 20
30.8161509138
 30
0.0
 11
43.6096849063
 21
30.8161509138
 31
0.0
  0
LINE
  5
2FE
100
AcDbEntity
  8
2050_3 RIEGEL
370
         0
390
0
100
AcDbLine
 10
43.6096849063
 20
57.8161509138
 30
0.0
 11
32.6096849063
 21
57.8161509138
 31
0.0
  0
LINE
  5
2FF
100
AcDbEntity
  8
2050_3 RIEGEL
370
         0
390
0
100
AcDbLine
 10
32.6096849063
 20
91.8161509138
 30
0.0
 11
37.1305587104
 21
91.8161509138
 31
0.0
  0
LINE
  5
300
100
AcDbEntity
  8
2050_4 ZUHALTUNG
370
         0
390
0
100
AcDbLine
 10
91.9848388428
 20
134.6902034285
 30
0.0
 11
91.9848388428
 21
138.1902034297
 31
0.0
  0
LINE
  5
301
100
AcDbEntity
  8
2050_3 RIEGEL
370
         0
390
0
100
AcDbLine
 10
37.1305587104
 20
59.8161509138
 30
0.0
 11
37.1305587104
 21
91.8161509138
 31
0.0
  0
LINE
  5
302
100
AcDbEntity
  8
2050_3 RIEGEL
370
         0
390
0
100
AcDbLine
 10
32.6096849063
 20
51.8161509138
 30
0.0
 11
43.6096849063
 21
51.8161509138
 31
0.0
  0
LINE
  5
303
100
AcDbEntity
  8
2050_3 RIEGEL
370
         0
390
0
100
AcDbLine
 10
40.6096849063
 20
64.3161509138
 30
0.0
 11
43.6096849063
 21
64.3161509138
 31
0.0
  0
LINE
  5
304
100
AcDbEntity
  8
2050_3 RIEGEL
370
         0
390
0
100
AcDbLine
 10
40.6096849063
 20
64.3161509138
 30
0.0
 11
40.6096849063
 21
74.4401893185
 31
0.0
  0
LINE
  5
305
100
AcDbEntity
  8
2050_3 RIEGEL
390
0
100
AcDbLine
 10
32.6096849063
 20
30.8161509138
 30
0.0
 11
32.6096849063
 21
51.8161509138
 31
0.0
  0
LINE
  5
306
100
AcDbEntity
  8
2050_3 RIEGEL
390
0
100
AcDbLine
 10
32.6096849063
 20
57.8161509138
 30
0.0
 11
32.6096849063
 21
59.8161509138
 31
0.0
  0
LINE
  5
307
100
AcDbEntity
  8
2050_3 RIEGEL
370
         0
390
0
100
AcDbLine
 10
43.6096849063
 20
51.3161509138
 30
0.0
 11
43.6096849063
 21
30.8161509138
 31
0.0
  0
LINE
  5
308
100
AcDbEntity
  8
2050_3 RIEGEL
390
0
100
AcDbLine
 10
32.6096849063
 20
91.8161509138
 30
0.0
 11
32.6096849063
 21
113.8161509138
 31
0.0
  0
LINE
  5
309
100
AcDbEntity
  8
2050_4 ZUHALTUNG
370
         0
390
0
100
AcDbLine
 10
91.9848388428
 20
138.1902034297
 30
0.0
 11
97.4013518396
 21
138.1900869658
 31
0.0
  0
LINE
  5
30A
100
AcDbEntity
  8
2050_4 ZUHALTUNG
370
         0
390
0
100
AcDbLine
 10
91.9848388428
 20
134.6902034285
 30
0.0
 11
98.4013518396
 21
134.690065463
 31
0.0
  0
LINE
  5
30B
100
AcDbEntity
  8
2050_1_2 GEHÄUSE
370
         0
390
0
100
AcDbLine
 10
58.6096849063
 20
194.4461882938
 30
0.0
 11
58.6096849063
 21
143.4461882938
 31
0.0
  0
LINE
  5
30C
100
AcDbEntity
  8
2050_1_2 GEHÄUSE
370
         0
390
0
100
AcDbLine
 10
28.6096849063
 20
194.4461882938
 30
0.0
 11
58.6096849063
 21
194.4461882938
 31
0.0
  0
LINE
  5
30D
100
AcDbEntity
  8
2050_1_2 GEHÄUSE
370
         0
390
0
100
AcDbLine
 10
58.6096849063
 20
143.4461882938
 30
0.0
 11
28.6096849063
 21
143.4461882938
 31
0.0
  0
ARC
  5
30E
100
AcDbEntity
  8
2050_3 RIEGEL
390
0
100
AcDbCircle
 10
35.8805587104
 20
90.5661509138
 30
0.0
 40
1.25
100
AcDbArc
 50
0.0
 51
90.0
  0
ARC
  5
30F
100
AcDbEntity
  8
2050_3 RIEGEL
390
0
100
AcDbCircle
 10
35.8805587104
 20
61.0661509138
 30
0.0
 40
1.25
100
AcDbArc
 50
270.0
 51
360.0
  0
LINE
  5
310
100
AcDbEntity
  8
2050_3 RIEGEL
390
0
100
AcDbLine
 10
43.6096849063
 20
30.8161509138
 30
0.0
 11
43.6096849063
 21
64.3161509138
 31
0.0
  0
LINE
  5
311
100
AcDbEntity
  8
2050_3 RIEGEL
390
0
100
AcDbLine
 10
43.6096849063
 20
113.8161509138
 30
0.0
 11
32.6096849063
 21
113.8161509138
 31
0.0
  0
LINE
  5
312
100
AcDbEntity
  8
2050_4 ZUHALTUNG
390
0
100
AcDbLine
 10
97.4013518396
 20
163.599207471
 30
0.0
 11
97.4013518396
 21
138.1900869658
 31
0.0
  0
LINE
  5
313
100
AcDbEntity
  8
2050_4 ZUHALTUNG
390
0
100
AcDbLine
 10
86.4013518396
 20
165.435489938
 30
0.0
 11
86.4013518396
 21
163.599207471
 31
0.0
  0
LINE
  5
314
100
AcDbEntity
  8
2050_4 ZUHALTUNG
390
0
100
AcDbLine
 10
98.4013518396
 20
165.435489938
 30
0.0
 11
86.4013518396
 21
165.435489938
 31
0.0
  0
LINE
  5
315
100
AcDbEntity
  8
2050_4 ZUHALTUNG
390
0
100
AcDbLine
 10
98.4013518396
 20
134.690065463
 30
0.0
 11
98.4013518396
 21
165.435489938
 31
0.0
  0
LINE
  5
316
100
AcDbEntity
  8
2050_3 RIEGEL
370
         0
390
0
100
AcDbLine
 10
43.6096849063
 20
113.8161509138
 30
0.0
 11
43.6096849063
 21
57.3161509138
 31
0.0
  0
LINE
  5
317
100
AcDbEntity
  8
2050_4 ZUHALTUNG
390
0
100
AcDbLine
 10
104.817469635
 20
133.190065463
 30
0.0
 11
98.4013518396
 21
134.690065463
 31
0.0
  0
LINE
  5
318
100
AcDbEntity
  8
2050_4 ZUHALTUNG
390
0
100
AcDbLine
 10
110.3899388185
 20
165.1726354793
 30
0.0
 11
110.2347300642
 21
162.5107696278
 31
0.0
  0
LINE
  5
319
100
AcDbEntity
  8
2050_4 ZUHALTUNG
390
0
100
AcDbLine
 10
109.4425819353
 20
168.6839427751
 30
0.0
 11
98.4013518396
 21
165.435489938
 31
0.0
  0
LINE
  5
31A
100
AcDbEntity
  8
2050_4 ZUHALTUNG
390
0
100
AcDbLine
 10
86.4013518396
 20
163.599207471
 30
0.0
 11
97.4013518396
 21
163.599207471
 31
0.0
  0
LINE
  5
31B
100
AcDbEntity
  8
2050_4 ZUHALTUNG
390
0
100
AcDbLine
 10
98.4013518396
 20
134.690065463
 30
0.0
 11
98.4013518396
 21
165.7049994789
 31
0.0
  0
LINE
  5
31C
100
AcDbEntity
  8
2050_3 RIEGEL
390
0
100
AcDbLine
 10
50.1096849063
 20
113.8161509138
 30
0.0
 11
43.6096849063
 21
113.8161509138
 31
0.0
  0
LINE
  5
31D
100
AcDbEntity
  8
2050_3 RIEGEL
370
         0
390
0
100
AcDbLine
 10
54.1096849063
 20
61.8161509138
 30
0.0
 11
50.1096849063
 21
61.8161509138
 31
0.0
  0
LINE
  5
31E
100
AcDbEntity
  8
2050_3 RIEGEL
370
         0
390
0
100
AcDbLine
 10
50.1096849063
 20
61.8161509138
 30
0.0
 11
50.1096849063
 21
30.8161509138
 31
0.0
  0
LINE
  5
31F
100
AcDbEntity
  8
2050_3 RIEGEL
370
         0
390
0
100
AcDbLine
 10
50.1096849063
 20
113.8161509138
 30
0.0
 11
50.1096849063
 21
82.7612647995
 31
0.0
  0
LINE
  5
320
100
AcDbEntity
  8
2050_3 RIEGEL
390
0
100
AcDbLine
 10
50.1096849063
 20
30.8161509138
 30
0.0
 11
43.6096849063
 21
30.8161509138
 31
0.0
  0
LINE
  5
321
100
AcDbEntity
  8
2050_3 RIEGEL
370
         0
390
0
100
AcDbLine
 10
54.1096849063
 20
82.7612647995
 30
0.0
 11
54.1096849063
 21
74.4401893185
 31
0.0
  0
LINE
  5
322
100
AcDbEntity
  8
2050_3 RIEGEL
370
         0
390
0
100
AcDbLine
 10
50.1096849063
 20
82.7612647995
 30
0.0
 11
54.1096849063
 21
82.7612647995
 31
0.0
  0
LINE
  5
323
100
AcDbEntity
  8
2050_3 RIEGEL
370
         0
390
0
100
AcDbLine
 10
54.1096849063
 20
64.3161509138
 30
0.0
 11
54.1096849063
 21
61.8161509138
 31
0.0
  0
LINE
  5
324
100
AcDbEntity
  8
2050_3 RIEGEL
370
         0
390
0
100
AcDbLine
 10
54.1096849063
 20
64.3161509138
 30
0.0
 11
43.6096849063
 21
64.3161509138
 31
0.0
  0
LINE
  5
325
100
AcDbEntity
  8
2050_3 RIEGEL
370
         0
390
0
100
AcDbLine
 10
54.1096849063
 20
74.4401893185
 30
0.0
 11
40.6096849063
 21
74.4401893185
 31
0.0
  0
LINE
  5
326
100
AcDbEntity
  8
2050_1_2 GEHÄUSE
370
         0
390
0
100
AcDbLine
 10
43.6096849063
 20
143.4461882938
 30
0.0
 11
43.6096849063
 21
194.4461882938
 31
0.0
  0
LINE
  5
327
100
AcDbEntity
  8
2050_1_2 GEHÄUSE
370
         0
390
0
100
AcDbLine
 10
48.8596849063
 20
167.6336419969
 30
0.0
 11
48.8596849063
 21
174.9461882938
 31
0.0
  0
LINE
  5
328
100
AcDbEntity
  8
2050_1_2 GEHÄUSE
370
         0
390
0
100
AcDbLine
 10
46.3596849063
 20
174.9461882938
 30
0.0
 11
48.8596849063
 21
174.9461882938
 31
0.0
  0
LINE
  5
329
100
AcDbEntity
  8
2050_1_2 GEHÄUSE
370
         0
390
0
100
AcDbLine
 10
46.3596849063
 20
167.6336419969
 30
0.0
 11
46.3596849063
 21
174.9461882938
 31
0.0
  0
LINE
  5
32A
100
AcDbEntity
  8
2050_3 RIEGEL
390
0
100
AcDbLine
 10
32.6096849063
 20
59.8161509138
 30
0.0
 11
37.1305587104
 21
59.8161509138
 31
0.0
  0
LINE
  5
32B
100
AcDbEntity
  8
2050_4 ZUHALTUNG
390
0
100
AcDbLine
 10
110.3899388185
 20
165.1726354793
 30
0.0
 11
109.4425819353
 21
168.6839427751
 31
0.0
  0
LINE
  5
32C
100
AcDbEntity
  8
2050_4 ZUHALTUNG
390
0
100
AcDbLine
 10
110.2347300642
 20
162.5107696278
 30
0.0
 11
102.6298604386
 21
151.4422734701
 31
0.0
  0
LINE
  5
32D
100
AcDbEntity
  8
2050_4 ZUHALTUNG
390
0
100
AcDbLine
 10
104.817469635
 20
133.190065463
 30
0.0
 11
101.4990975921
 21
144.1697147876
 31
0.0
  0
ARC
  5
32E
100
AcDbEntity
  8
2050_4 ZUHALTUNG
390
0
100
AcDbCircle
 10
96.1513518396
 20
162.349207471
 30
0.0
 40
1.25
100
AcDbArc
 50
0.0
 51
90.0
  0
CIRCLE
  5
32F
100
AcDbEntity
  8
2050_3 RIEGEL
370
         0
390
0
100
AcDbCircle
 10
35.6096849063
 20
33.8161509138
 30
0.0
 40
1.25
  0
ARC
  5
330
100
AcDbEntity
  8
2050_4 ZUHALTUNG
390
0
100
AcDbCircle
 10
109.6356116341
 20
146.628807963
 30
0.0
 40
8.5
100
AcDbArc
 50
145.5080766087
 51
196.8163567232
  0
CIRCLE
  5
331
100
AcDbEntity
  8
2050_3 RIEGEL
370
         0
390
0
100
AcDbCircle
 10
38.6096849063
 20
110.8161509138
 30
0.0
 40
1.25
  0
CIRCLE
  5
332
100
AcDbEntity
  8
2050_3 RIEGEL
370
         0
390
0
100
AcDbCircle
 10
38.6096849063
 20
38.8161509138
 30
0.0
 40
1.25
  0
CIRCLE
  5
333
100
AcDbEntity
  8
2050_3 RIEGEL
370
         0
390
0
100
AcDbCircle
 10
35.6096849063
 20
105.8161509138
 30
0.0
 40
1.25
  0
ARC
  5
334
100
AcDbEntity
  8
2050_3 RIEGEL
390
0
100
AcDbCircle
 10
51.3596849063
 20
84.0112647995
 30
0.0
 40
1.25
100
AcDbArc
 50
180.0
 51
270.0
  0
CIRCLE
  5
335
100
AcDbEntity
  8
2050_3 RIEGEL
370
         0
390
0
100
AcDbCircle
 10
48.1096849063
 20
108.8161509138
 30
0.0
 40
1.25
  0
CIRCLE
  5
336
100
AcDbEntity
  8
2050_1_2 GEHÄUSE
370
         0
390
0
100
AcDbCircle
 10
48.1096849063
 20
184.4461882938
 30
0.0
 40
1.75
  0
CIRCLE
  5
337
100
AcDbEntity
  8
2050_1_2 GEHÄUSE
370
         0
390
0
100
AcDbCircle
 10
48.1096849063
 20
153.4461882938
 30
0.0
 40
1.75
  0
ARC
  5
338
100
AcDbEntity
  8
2050_1_2 GEHÄUSE
370
         0
390
0
100
AcDbCircle
 10
47.6096849063
 20
165.9461882938
 30
0.0
 40
2.1
100
AcDbArc
 50
126.5296072297
 51
413.4703927703
  0
ARC
  5
339
100
AcDbEntity
  8
2050_3 RIEGEL
390
0
100
AcDbCircle
 10
51.3596849063
 20
60.5661509138
 30
0.0
 40
1.25
100
AcDbArc
 50
90.0
 51
180.0
  0
CIRCLE
  5
33A
100
AcDbEntity
  8
2050_3 RIEGEL
370
         0
390
0
100
AcDbCircle
 10
48.1096849063
 20
35.8161509138
 30
0.0
 40
1.25
  0
LINE
  5
33B
100
AcDbEntity
  8
2050_1_2 GEHÄUSE
370
         0
390
0
100
AcDbLine
 10
58.6096849063
 20
266.7234705882
 30
0.0
 11
28.6096849063
 21
266.7234705882
 31
0.0
  0
LINE
  5
33C
100
AcDbEntity
  8
2050_1_2 GEHÄUSE
370
         0
390
0
100
AcDbLine
 10
28.6096849063
 20
215.7234705882
 30
0.0
 11
58.6096849063
 21
215.7234705882
 31
0.0
  0
LINE
  5
33D
100
AcDbEntity
  8
2050_1_2 GEHÄUSE
370
         0
390
0
100
AcDbLine
 10
28.6096849063
 20
259.7234705882
 30
0.0
 11
41.6096849063
 21
259.7234705882
 31
0.0
  0
LINE
  5
33E
100
AcDbEntity
  8
2050_1_2 GEHÄUSE
370
         0
390
0
100
AcDbLine
 10
58.6096849063
 20
215.7234705882
 30
0.0
 11
58.6096849063
 21
266.7234705882
 31
0.0
  0
CIRCLE
  5
33F
100
AcDbEntity
  8
2050_1_2 GEHÄUSE
370
         0
390
0
100
AcDbCircle
 10
54.1096849063
 20
256.7234705882
 30
0.0
 40
1.5
  0
CIRCLE
  5
340
100
AcDbEntity
  8
2050_1_2 GEHÄUSE
370
         0
390
0
100
AcDbCircle
 10
54.1096849063
 20
225.7234705882
 30
0.0
 40
1.5
  0
CIRCLE
  5
341
100
AcDbEntity
  8
2050_1_2 GEHÄUSE
370
         0
390
0
100
AcDbCircle
 10
54.8596849063
 20
238.2234705882
 30
0.0
 40
1.5
  0
LINE
  5
342
100
AcDbEntity
  8
2050_1_2 GEHÄUSE
390
0
100
AcDbLine
 10
28.6096849063
 20
143.4461882938
 30
0.0
 11
28.6096849063
 21
194.4461882938
 31
0.0
  0
LINE
  5
343
100
AcDbEntity
  8
2050_1_2 GEHÄUSE
390
0
100
AcDbLine
 10
28.6096849063
 20
266.7234705882
 30
0.0
 11
28.6096849063
 21
259.7234705882
 31
0.0
  0
LINE
  5
344
100
AcDbEntity
  8
2050_1_2 GEHÄUSE
370
         0
390
0
100
AcDbLine
 10
41.6096849063
 20
222.7234705882
 30
0.0
 11
28.6096849063
 21
222.7234705882
 31
0.0
  0
LINE
  5
345
100
AcDbEntity
  8
2050_1_2 GEHÄUSE
390
0
100
AcDbLine
 10
28.6096849063
 20
222.7234705882
 30
0.0
 11
28.6096849063
 21
215.7234705882
 31
0.0
  0
LINE
  5
346
100
AcDbEntity
  8
2050_1_2 GEHÄUSE
370
         0
390
0
100
AcDbLine
 10
41.6096849063
 20
259.7234705882
 30
0.0
 11
41.6096849063
 21
222.7234705882
 31
0.0
  0
INSERT
  5
347
100
AcDbEntity
  8
2050_1_2 GEHÄUSE
390
0
100
AcDbBlockReference
  2
@2.5l
 10
54.1096849063
 20
225.7234705882
 30
0.0
  0
INSERT
  5
348
100
AcDbEntity
  8
2050_1_2 GEHÄUSE
390
0
100
AcDbBlockReference
  2
@2.5l
 10
54.1096849063
 20
256.7234705882
 30
0.0
  0
INSERT
  5
349
100
AcDbEntity
  8
2050_1_2 GEHÄUSE
390
0
100
AcDbBlockReference
  2
Ø3.5l
 10
54.8596849063
 20
238.2234705882
 30
0.0
  0
INSERT
  5
34A
100
AcDbEntity
  8
2050_1_2 GEHÄUSE
390
0
100
AcDbBlockReference
  2
Ø4r
 10
47.6096849063
 20
165.9461882938
 30
0.0
  0
LINE
  5
34B
100
AcDbEntity
  8
MITTELLINIEN
390
0
100
AcDbLine
 10
28.6096849063
 20
138.4461882938
 30
0.0
 11
28.6096849063
 21
199.4461882938
 31
0.0
  0
LINE
  5
34C
100
AcDbEntity
  8
MITTELLINIEN
390
0
100
AcDbLine
 10
58.6096849063
 20
138.4461882938
 30
0.0
 11
58.6096849063
 21
199.4461882938
 31
0.0
  0
LINE
  5
34D
100
AcDbEntity
  8
MITTELLINIEN
390
0
100
AcDbLine
 10
28.6096849063
 20
271.7234705882
 30
0.0
 11
28.6096849063
 21
210.7234705882
 31
0.0
  0
LINE
  5
34E
100
AcDbEntity
  8
MITTELLINIEN
390
0
100
AcDbLine
 10
58.6096849063
 20
271.7234705882
 30
0.0
 11
58.6096849063
 21
210.7234705882
 31
0.0
  0
LINE
  5
34F
100
AcDbEntity
  8
MITTELLINIEN
390
0
100
AcDbLine
 10
43.6096849063
 20
271.7234705882
 30
0.0
 11
43.6096849063
 21
210.7234705882
 31
0.0
  0
LINE
  5
350
100
AcDbEntity
  8
MITTELLINIEN
390
0
100
AcDbLine
 10
43.6096849063
 20
138.4461882938
 30
0.0
 11
43.6096849063
 21
199.4461882938
 31
0.0
  0
LINE
  5
351
100
AcDbEntity
  8
MITTELLINIEN
390
0
100
AcDbLine
 10
58.6096849063
 20
25.8161509138
 30
0.0
 11
58.6096849063
 21
118.8161509138
 31
0.0
  0
LINE
  5
352
100
AcDbEntity
  8
MITTELLINIEN
390
0
100
AcDbLine
 10
28.6096849063
 20
25.8161509138
 30
0.0
 11
28.6096849063
 21
118.8161509138
 31
0.0
  0
LINE
  5
353
100
AcDbEntity
  8
MITTELLINIEN
390
0
100
AcDbLine
 10
83.4013518396
 20
129.690065463
 30
0.0
 11
83.4013518396
 21
170.435489938
 31
0.0
  0
LINE
  5
354
100
AcDbEntity
  8
MITTELLINIEN
390
0
100
AcDbLine
 10
113.4013518396
 20
129.690065463
 30
0.0
 11
113.4013518396
 21
170.7049994789
 31
0.0
  0
INSERT
  5
355
100
AcDbEntity
  8
2050_1_2 GEHÄUSE
390
0
100
AcDbBlockReference
  2
Ø3l
 10
108.385143216
 20
165.0789054731
 30
0.0
 50
90.0
  0
CIRCLE
  5
356
100
AcDbEntity
  8
2050_1_2 GEHÄUSE
390
0
100
AcDbCircle
 10
108.385143216
 20
165.0789054731
 30
0.0
 40
1.5
  0
TEXT
  5
357
100
AcDbEntity
  8
BESCHRIFTUNG
390
0
100
AcDbText
 10
36.545749117
 20
205.7364433983
 30
0.0
 40
2.5
  1
2050.2
 41
1.1351378865
  7
Arial
 72
         1
 11
43.8430641016
 21
206.9864433983
 31
0.0
100
AcDbText
 73
         2
  0
TEXT
  5
358
100
AcDbEntity
  8
BESCHRIFTUNG
390
0
100
AcDbText
 10
37.1213646798
 20
281.1341334885
 30
0.0
 40
2.5
  1
2050.1
 41
1.1351380193
  7
Arial
 72
         1
 11
44.0869843438
 21
282.3841334885
 31
0.0
100
AcDbText
 73
         2
  0
TEXT
  5
359
100
AcDbEntity
  8
BESCHRIFTUNG
390
0
100
AcDbText
 10
36.3018278501
 20
127.7877079095
 30
0.0
 40
2.5
  1
2050.3
 41
1.1351380459
  7
Arial
 72
         1
 11
43.5991438594
 21
129.0377079095
 31
0.0
100
AcDbText
 73
         2
  0
TEXT
  5
35A
100
AcDbEntity
  8
BESCHRIFTUNG
390
0
100
AcDbText
 10
90.8802796645
 20
179.8049970099
 30
0.0
 40
2.5
  1
2050.4
 41
1.1351380193
  7
Arial
 72
         1
 11
98.177595503
 21
181.0549970099
 31
0.0
100
AcDbText
 73
         2
  0
CIRCLE
  5
35B
100
AcDbEntity
  8
2050_2L
390
0
  6
PHANTOM
100
AcDbCircle
 10
28.6096849063
 20
195.4461882938
 30
0.0
 40
0.5
  0
CIRCLE
  5
35C
100
AcDbEntity
  8
2050_2R
390
0
  6
PHANTOM
100
AcDbCircle
 10
43.6096849063
 20
195.4461882938
 30
0.0
 40
0.5
  0
CIRCLE
  5
35D
100
AcDbEntity
  8
2050_1L
390
0
  6
PHANTOM
100
AcDbCircle
 10
28.6096849063
 20
267.7234705882
 30
0.0
 40
0.5
  0
CIRCLE
  5
35E
100
AcDbEntity
  8
2050_1R
390
0
  6
PHANTOM
100
AcDbCircle
 10
43.6096849063
 20
267.7234705882
 30
0.0
 40
0.5
  0
CIRCLE
  5
35F
100
AcDbEntity
  8
2050_4L
390
0
  6
PHANTOM
100
AcDbCircle
 10
83.4013518396
 20
169.6839427751
 30
0.0
 40
0.5
  0
CIRCLE
  5
360
100
AcDbEntity
  8
2050_4R
390
0
  6
PHANTOM
100
AcDbCircle
 10
98.4013518396
 20
169.6839427751
 30
0.0
 40
0.5
  0
CIRCLE
  5
361
100
AcDbEntity
  8
2050_3L
390
0
  6
PHANTOM
100
AcDbCircle
 10
28.6096849063
 20
114.8161509138
 30
0.0
 40
0.5
  0
CIRCLE
  5
362
100
AcDbEntity
  8
2050_3R
390
0
  6
PHANTOM
100
AcDbCircle
 10
43.6096849063
 20
114.8161509138
 30
0.0
 40
0.5
  0
CIRCLE
  5
363
100
AcDbEntity
  8
2050_4L
390
0
  6
PHANTOM
100
AcDbCircle
 10
83.4013518396
 20
132.190065463
 30
0.0
 40
1.0
  0
CIRCLE
  5
364
100
AcDbEntity
  8
2050_4R
390
0
  6
PHANTOM
100
AcDbCircle
 10
98.4013518396
 20
132.190065463
 30
0.0
 40
1.0
  0
CIRCLE
  5
365
100
AcDbEntity
  8
2050_1R
390
0
  6
PHANTOM
100
AcDbCircle
 10
43.6096849063
 20
214.7234705882
 30
0.0
 40
1.0
  0
CIRCLE
  5
366
100
AcDbEntity
  8
2050_1L
390
0
  6
PHANTOM
100
AcDbCircle
 10
28.6096849063
 20
214.7234705882
 30
0.0
 40
1.0
  0
CIRCLE
  5
367
100
AcDbEntity
  8
2050_3R
390
0
  6
PHANTOM
100
AcDbCircle
 10
43.6096849063
 20
29.8161509138
 30
0.0
 40
1.0
  0
CIRCLE
  5
368
100
AcDbEntity
  8
2050_3L
390
0
  6
PHANTOM
100
AcDbCircle
 10
28.6096849063
 20
29.8161509138
 30
0.0
 40
1.0
  0
CIRCLE
  5
369
100
AcDbEntity
  8
2050_2R
390
0
  6
PHANTOM
100
AcDbCircle
 10
43.6096849063
 20
142.4461882938
 30
0.0
 40
1.0
  0
CIRCLE
  5
36A
100
AcDbEntity
  8
2050_2L
390
0
  6
PHANTOM
100
AcDbCircle
 10
28.6096849063
 20
142.4461882938
 30
0.0
 40
1.0
  0
LINE
  5
36B
100
AcDbEntity
  8
2050_2L
390
0
  6
DIVIDE
100
AcDbLine
 10
28.6096849063
 20
195.4461882938
 30
0.0
 11
43.6096849063
 21
195.4461882938
 31
0.0
  0
LINE
  5
36C
100
AcDbEntity
  8
2050_2L
390
0
  6
DIVIDE
100
AcDbLine
 10
28.6096849063
 20
142.4461882938
 30
0.0
 11
43.6096849063
 21
142.4461882938
 31
0.0
  0
LINE
  5
36D
100
AcDbEntity
  8
2050_2L
390
0
  6
DASHED
100
AcDbLine
 10
43.6096849063
 20
195.4461882938
 30
0.0
 11
43.6096849063
 21
142.4461882938
 31
0.0
  0
LINE
  5
36E
100
AcDbEntity
  8
2050_2R
390
0
  6
DASHED
100
AcDbLine
 10
58.6096849063
 20
195.4461882938
 30
0.0
 11
48.1096849063
 21
184.4461882938
 31
0.0
  0
LINE
  5
36F
100
AcDbEntity
  8
2050_2R
390
0
  6
DASHED
100
AcDbLine
 10
48.1096849063
 20
184.4461882938
 30
0.0
 11
47.6096849063
 21
165.9461882938
 31
0.0
  0
LINE
  5
370
100
AcDbEntity
  8
2050_2R
390
0
  6
DASHED
100
AcDbLine
 10
48.1096849063
 20
153.4461882938
 30
0.0
 11
58.6096849063
 21
142.4461882938
 31
0.0
  0
LINE
  5
371
100
AcDbEntity
  8
2050_2R
390
0
  6
DIVIDE
100
AcDbLine
 10
43.6096849063
 20
142.4461882938
 30
0.0
 11
58.6096849063
 21
142.4461882938
 31
0.0
  0
LINE
  5
372
100
AcDbEntity
  8
2050_2R
390
0
  6
DIVIDE
100
AcDbLine
 10
43.6096849063
 20
195.4461882938
 30
0.0
 11
58.6096849063
 21
195.4461882938
 31
0.0
  0
LINE
  5
373
100
AcDbEntity
  8
2050_1L
390
0
100
AcDbLine
 10
28.6096849063
 20
258.7234705882
 30
0.0
 11
40.6096849063
 21
258.7234705882
 31
0.0
  0
LINE
  5
374
100
AcDbEntity
  8
2050_1L
390
0
100
AcDbLine
 10
40.6096849063
 20
258.7234705882
 30
0.0
 11
40.6096849063
 21
223.7234705882
 31
0.0
  0
LINE
  5
375
100
AcDbEntity
  8
2050_1L
390
0
100
AcDbLine
 10
40.6096849063
 20
223.7234705882
 30
0.0
 11
28.6096849063
 21
223.7234705882
 31
0.0
  0
LINE
  5
376
100
AcDbEntity
  8
2050_1L
390
0
  6
DIVIDE
100
AcDbLine
 10
28.6096849063
 20
267.7234705882
 30
0.0
 11
43.6096849063
 21
267.7234705882
 31
0.0
  0
LINE
  5
377
100
AcDbEntity
  8
2050_1L
390
0
  6
DIVIDE
100
AcDbLine
 10
28.6096849063
 20
214.7234705882
 30
0.0
 11
43.6096849063
 21
214.7234705882
 31
0.0
  0
LINE
  5
378
100
AcDbEntity
  8
2050_1L
390
0
  6
DASHED
100
AcDbLine
 10
43.6096849063
 20
267.7234705882
 30
0.0
 11
28.6096849063
 21
258.7234705882
 31
0.0
  0
LINE
  5
379
100
AcDbEntity
  8
2050_1L
390
0
  6
DASHED
100
AcDbLine
 10
28.6096849063
 20
223.7234705882
 30
0.0
 11
43.6096849063
 21
214.7234705882
 31
0.0
  0
LINE
  5
37A
100
AcDbEntity
  8
2050_1R
390
0
  6
DIVIDE
100
AcDbLine
 10
58.6096849063
 20
267.7234705882
 30
0.0
 11
43.6096849063
 21
267.7234705882
 31
0.0
  0
LINE
  5
37B
100
AcDbEntity
  8
2050_1R
390
0
  6
DIVIDE
100
AcDbLine
 10
58.6096849063
 20
214.7234705882
 30
0.0
 11
43.6096849063
 21
214.7234705882
 31
0.0
  0
LINE
  5
37C
100
AcDbEntity
  8
2050_1R
390
0
  6
DASHED
100
AcDbLine
 10
54.1096849063
 20
225.7234705882
 30
0.0
 11
58.6096849063
 21
214.7234705882
 31
0.0
  0
LINE
  5
37D
100
AcDbEntity
  8
2050_1R
390
0
  6
DASHED
100
AcDbLine
 10
54.1096849063
 20
225.7234705882
 30
0.0
 11
54.8596849063
 21
238.2234705882
 31
0.0
  0
LINE
  5
37E
100
AcDbEntity
  8
2050_1R
390
0
  6
DASHED
100
AcDbLine
 10
54.8596849063
 20
238.2234705882
 30
0.0
 11
54.1096849063
 21
256.7234705882
 31
0.0
  0
LINE
  5
37F
100
AcDbEntity
  8
2050_1R
390
0
  6
DASHED
100
AcDbLine
 10
54.1096849063
 20
256.7234705882
 30
0.0
 11
58.6096849063
 21
267.7234705882
 31
0.0
  0
CIRCLE
  5
380
100
AcDbEntity
  8
2050_1R
390
0
100
AcDbCircle
 10
54.1096849063
 20
256.7234705882
 30
0.0
 40
1.25
  0
CIRCLE
  5
381
100
AcDbEntity
  8
2050_1R
390
0
100
AcDbCircle
 10
54.1096849063
 20
225.7234705882
 30
0.0
 40
1.25
  0
CIRCLE
  5
382
100
AcDbEntity
  8
2050_1R
390
0
100
AcDbCircle
 10
54.8596849063
 20
238.2234705882
 30
0.0
 40
1.75
  0
INSERT
  5
383
100
AcDbEntity
  8
2050_1R
390
0
100
AcDbBlockReference
  2
X
 10
38.6096849063
 20
110.8161509138
 30
0.0
  0
INSERT
  5
384
100
AcDbEntity
  8
2050_1R
390
0
100
AcDbBlockReference
  2
X
 10
35.6096849063
 20
105.8161509138
 30
0.0
  0
INSERT
  5
385
100
AcDbEntity
  8
2050_1R
390
0
100
AcDbBlockReference
  2
X
 10
48.1096849063
 20
108.8161509138
 30
0.0
  0
INSERT
  5
386
100
AcDbEntity
  8
2050_1R
390
0
100
AcDbBlockReference
  2
X
 10
38.6096849063
 20
38.8161509138
 30
0.0
  0
INSERT
  5
387
100
AcDbEntity
  8
2050_1R
390
0
100
AcDbBlockReference
  2
X
 10
35.6096849063
 20
33.8161509138
 30
0.0
  0
INSERT
  5
388
100
AcDbEntity
  8
2050_1R
390
0
100
AcDbBlockReference
  2
X
 10
48.1096849063
 20
35.8161509138
 30
0.0
  0
LINE
  5
389
100
AcDbEntity
  8
2050_3L
390
0
  6
DIVIDE
100
AcDbLine
 10
28.6096849063
 20
114.8161509138
 30
0.0
 11
43.6096849063
 21
114.8161509138
 31
0.0
  0
LINE
  5
38A
100
AcDbEntity
  8
2050_3L
390
0
  6
DIVIDE
100
AcDbLine
 10
28.6096849063
 20
29.8161509138
 30
0.0
 11
43.6096849063
 21
29.8161509138
 31
0.0
  0
LINE
  5
38B
100
AcDbEntity
  8
2050_3L
390
0
100
AcDbLine
 10
31.6096849063
 20
90.8161509138
 30
0.0
 11
31.6096849063
 21
114.8161509138
 31
0.0
  0
LINE
  5
38C
100
AcDbEntity
  8
2050_3L
390
0
100
AcDbLine
 10
31.6096849063
 20
29.8161509138
 30
0.0
 11
31.6096849063
 21
52.8161509138
 31
0.0
  0
LINE
  5
38D
100
AcDbEntity
  8
2050_3L
390
0
100
AcDbLine
 10
31.6096849063
 20
52.8161509138
 30
0.0
 11
44.6096849063
 21
52.8161509138
 31
0.0
  0
LINE
  5
38E
100
AcDbEntity
  8
2050_3L
390
0
100
AcDbLine
 10
44.6096849063
 20
56.8161509138
 30
0.0
 11
31.6096849063
 21
56.8161509138
 31
0.0
  0
LINE
  5
38F
100
AcDbEntity
  8
2050_3L
390
0
100
AcDbLine
 10
31.6096849063
 20
60.8161509138
 30
0.0
 11
36.1305587104
 21
60.8161509138
 31
0.0
  0
LINE
  5
390
100
AcDbEntity
  8
2050_3L
390
0
100
AcDbLine
 10
36.1305587104
 20
60.8161509138
 30
0.0
 11
36.1305587104
 21
90.8161509138
 31
0.0
  0
LINE
  5
391
100
AcDbEntity
  8
2050_3L
390
0
100
AcDbLine
 10
31.6096849063
 20
90.8161509138
 30
0.0
 11
36.1305587104
 21
90.8161509138
 31
0.0
  0
LINE
  5
392
100
AcDbEntity
  8
2050_3L
390
0
100
AcDbLine
 10
44.6096849063
 20
52.8161509138
 30
0.0
 11
44.6096849063
 21
56.8161509138
 31
0.0
  0
LINE
  5
393
100
AcDbEntity
  8
2050_3L
390
0
100
AcDbLine
 10
31.6096849063
 20
56.8161509138
 30
0.0
 11
31.6096849063
 21
60.8161509138
 31
0.0
  0
LINE
  5
394
100
AcDbEntity
  8
2050_3R
390
0
100
AcDbLine
 10
51.1096849063
 20
114.8161509138
 30
0.0
 11
51.1096849063
 21
83.7612647995
 31
0.0
  0
LINE
  5
395
100
AcDbEntity
  8
2050_3R
390
0
100
AcDbLine
 10
51.1096849063
 20
83.7612647995
 30
0.0
 11
55.1096849063
 21
83.7612647995
 31
0.0
  0
LINE
  5
396
100
AcDbEntity
  8
2050_3R
390
0
100
AcDbLine
 10
55.1096849063
 20
83.7612647995
 30
0.0
 11
55.1096849063
 21
73.4401893185
 31
0.0
  0
LINE
  5
397
100
AcDbEntity
  8
2050_3R
390
0
100
AcDbLine
 10
55.1096849063
 20
73.4401893185
 30
0.0
 11
42.6096849063
 21
73.4401893185
 31
0.0
  0
LINE
  5
398
100
AcDbEntity
  8
2050_3R
390
0
100
AcDbLine
 10
55.1096849063
 20
65.3161509138
 30
0.0
 11
42.6096849063
 21
65.3161509138
 31
0.0
  0
LINE
  5
399
100
AcDbEntity
  8
2050_3R
390
0
100
AcDbLine
 10
55.1096849063
 20
65.3161509138
 30
0.0
 11
55.1096849063
 21
60.8161509138
 31
0.0
  0
LINE
  5
39A
100
AcDbEntity
  8
2050_3R
390
0
100
AcDbLine
 10
51.1096849063
 20
60.8161509138
 30
0.0
 11
51.1096849063
 21
29.8161509138
 31
0.0
  0
LINE
  5
39B
100
AcDbEntity
  8
2050_3R
390
0
100
AcDbLine
 10
55.1096849063
 20
60.8161509138
 30
0.0
 11
51.1096849063
 21
60.8161509138
 31
0.0
  0
LINE
  5
39C
100
AcDbEntity
  8
2050_3R
390
0
  6
DIVIDE
100
AcDbLine
 10
58.6096849063
 20
114.8161509138
 30
0.0
 11
43.6096849063
 21
114.8161509138
 31
0.0
  0
LINE
  5
39D
100
AcDbEntity
  8
2050_3R
390
0
  6
DIVIDE
100
AcDbLine
 10
58.6096849063
 20
29.8161509138
 30
0.0
 11
43.6096849063
 21
29.8161509138
 31
0.0
  0
CIRCLE
  5
39E
100
AcDbEntity
  8
2050_3L
390
0
100
AcDbCircle
 10
38.6096849063
 20
110.8161509138
 30
0.0
 40
1.25
  0
CIRCLE
  5
39F
100
AcDbEntity
  8
2050_3L
390
0
100
AcDbCircle
 10
35.6096849063
 20
105.8161509138
 30
0.0
 40
1.25
  0
CIRCLE
  5
3A0
100
AcDbEntity
  8
2050_3R
390
0
100
AcDbCircle
 10
48.1096849063
 20
108.8161509138
 30
0.0
 40
1.25
  0
CIRCLE
  5
3A1
100
AcDbEntity
  8
2050_3L
390
0
100
AcDbCircle
 10
38.6096849063
 20
38.8161509138
 30
0.0
 40
1.25
  0
CIRCLE
  5
3A2
100
AcDbEntity
  8
2050_3L
390
0
100
AcDbCircle
 10
35.6096849063
 20
33.8161509138
 30
0.0
 40
1.25
  0
CIRCLE
  5
3A3
100
AcDbEntity
  8
2050_3R
390
0
100
AcDbCircle
 10
48.1096849063
 20
35.8161509138
 30
0.0
 40
1.25
  0
LINE
  5
3A4
100
AcDbEntity
  8
2050_3R
390
0
  6
DASHED
100
AcDbLine
 10
58.6096849063
 20
29.8161509138
 30
0.0
 11
48.1096849063
 21
35.8161509138
 31
0.0
  0
LINE
  5
3A5
100
AcDbEntity
  8
2050_3R
390
0
  6
DASHED
100
AcDbLine
 10
48.1096849063
 20
35.8161509138
 30
0.0
 11
51.1096849063
 21
29.8161509138
 31
0.0
  0
LINE
  5
3A6
100
AcDbEntity
  8
2050_3L
390
0
  6
DASHED
100
AcDbLine
 10
43.6096849063
 20
29.8161509138
 30
0.0
 11
35.6096849063
 21
33.8161509138
 31
0.0
  0
LINE
  5
3A7
100
AcDbEntity
  8
2050_3L
390
0
  6
DASHED
100
AcDbLine
 10
35.6096849063
 20
33.8161509138
 30
0.0
 11
38.6096849063
 21
38.8161509138
 31
0.0
  0
LINE
  5
3A8
100
AcDbEntity
  8
2050_3L
390
0
  6
DASHED
100
AcDbLine
 10
38.6096849063
 20
38.8161509138
 30
0.0
 11
31.6096849063
 21
29.8161509138
 31
0.0
  0
LINE
  5
3A9
100
AcDbEntity
  8
2050_3L
390
0
  6
DASHED
100
AcDbLine
 10
31.6096849063
 20
114.8161509138
 30
0.0
 11
35.6096849063
 21
105.8161509138
 31
0.0
  0
LINE
  5
3AA
100
AcDbEntity
  8
2050_3L
390
0
  6
DASHED
100
AcDbLine
 10
35.6096849063
 20
105.8161509138
 30
0.0
 11
38.6096849063
 21
110.8161509138
 31
0.0
  0
LINE
  5
3AB
100
AcDbEntity
  8
2050_3L
390
0
  6
DASHED
100
AcDbLine
 10
38.6096849063
 20
110.8161509138
 30
0.0
 11
43.6096849063
 21
114.8161509138
 31
0.0
  0
LINE
  5
3AC
100
AcDbEntity
  8
2050_3R
390
0
  6
DASHED
100
AcDbLine
 10
58.6096849063
 20
114.8161509138
 30
0.0
 11
48.1096849063
 21
108.8161509138
 31
0.0
  0
LINE
  5
3AD
100
AcDbEntity
  8
2050_3R
390
0
  6
DASHED
100
AcDbLine
 10
48.1096849063
 20
108.8161509138
 30
0.0
 11
51.1096849063
 21
114.8161509138
 31
0.0
  0
LINE
  5
3AE
100
AcDbEntity
  8
2050_3L
390
0
100
AcDbLine
 10
41.6096849063
 20
65.3161509138
 30
0.0
 11
41.6096849063
 21
73.4401893185
 31
0.0
  0
LINE
  5
3AF
100
AcDbEntity
  8
2050_3L
390
0
100
AcDbLine
 10
44.6281182418
 20
73.4401893185
 30
0.0
 11
41.6096849063
 21
73.4401893185
 31
0.0
  0
LINE
  5
3B0
100
AcDbEntity
  8
2050_3L
390
0
100
AcDbLine
 10
41.6096849063
 20
65.3161509138
 30
0.0
 11
44.9330185446
 21
65.3161509138
 31
0.0
  0
LINE
  5
3B1
100
AcDbEntity
  8
2050_3R
390
0
100
AcDbLine
 10
42.6096849063
 20
73.4401893185
 30
0.0
 11
42.6096849063
 21
65.3161509138
 31
0.0
  0
LINE
  5
3B2
100
AcDbEntity
  8
2050_3L
390
0
  6
DASHED
100
AcDbLine
 10
36.1305587104
 20
60.8161509138
 30
0.0
 11
44.9330185446
 21
65.3161509138
 31
0.0
  0
LINE
  5
3B3
100
AcDbEntity
  8
2050_3L
390
0
  6
DASHED
100
AcDbLine
 10
44.6281182418
 20
73.4401893185
 30
0.0
 11
36.1305587104
 21
60.8161509138
 31
0.0
  0
TEXT
  5
3B4
100
AcDbEntity
  8
2050_3L
390
0
  6
DASHED
100
AcDbText
 10
38.377662035
 20
60.5012315528
 30
0.0
 40
3.0
  1
N1
 41
1.1350267802
  7
Arial
100
AcDbText
  0
CIRCLE
  5
3B5
100
AcDbEntity
  8
2050_2R
390
0
100
AcDbCircle
 10
47.6096849063
 20
165.9461882938
 30
0.0
 40
2.25
  0
LINE
  5
3B6
100
AcDbEntity
  8
2050_2R
390
0
100
AcDbLine
 10
47.3596849063
 20
167.6336419969
 30
0.0
 11
47.3596849063
 21
173.9461882938
 31
0.0
  0
LINE
  5
3B7
100
AcDbEntity
  8
2050_2R
390
0
100
AcDbLine
 10
47.8596849063
 20
167.6336419969
 30
0.0
 11
47.8596849063
 21
173.9461882938
 31
0.0
  0
ARC
  5
3B8
100
AcDbEntity
  8
2050_2R
390
0
100
AcDbCircle
 10
47.6096849063
 20
173.9461882938
 30
0.0
 40
0.25
100
AcDbArc
 50
0.0
 51
180.0
  0
LINE
  5
3B9
100
AcDbEntity
  8
2050_2R
390
0
  6
DASHED
100
AcDbLine
 10
47.3596849063
 20
167.6336419969
 30
0.0
 11
47.6096849063
 21
165.9461882938
 31
0.0
  0
LINE
  5
3BA
100
AcDbEntity
  8
2050_2R
390
0
  6
DASHED
100
AcDbLine
 10
47.8596849063
 20
167.6336419969
 30
0.0
 11
48.1096849063
 21
153.4461882938
 31
0.0
  0
CIRCLE
  5
3BB
100
AcDbEntity
  8
2050_2R
390
0
100
AcDbCircle
 10
48.1096849063
 20
153.4461882938
 30
0.0
 40
1.75
  0
CIRCLE
  5
3BC
100
AcDbEntity
  8
2050_2R
390
0
100
AcDbCircle
 10
48.1096849063
 20
184.4461882938
 30
0.0
 40
1.75
  0
LINE
  5
3BD
100
AcDbEntity
  8
2050_4L
390
0
  6
DIVIDE
100
AcDbLine
 10
98.4013518396
 20
166.435489938
 30
0.0
 11
85.4013518396
 21
166.435489938
 31
0.0
  0
LINE
  5
3BE
100
AcDbEntity
  8
2050_4L
390
0
  6
DIVIDE
100
AcDbLine
 10
85.4013518396
 20
166.435489938
 30
0.0
 11
85.4013518396
 21
162.599207471
 31
0.0
  0
LINE
  5
3BF
100
AcDbEntity
  8
2050_4L
390
0
  6
DIVIDE
100
AcDbLine
 10
85.4013518396
 20
162.599207471
 30
0.0
 11
96.4013518396
 21
162.599207471
 31
0.0
  0
LINE
  5
3C0
100
AcDbEntity
  8
2050_4L
390
0
  6
DIVIDE
100
AcDbLine
 10
83.4013518396
 20
169.6839427751
 30
0.0
 11
98.4013518396
 21
166.435489938
 31
0.0
  0
LINE
  5
3C1
100
AcDbEntity
  8
2050_4L
390
0
100
AcDbLine
 10
96.4013518396
 20
162.599207471
 30
0.0
 11
96.4013518396
 21
139.1901084677
 31
0.0
  0
LINE
  5
3C2
100
AcDbEntity
  8
2050_4L
390
0
100
AcDbLine
 10
90.9848388428
 20
139.1902249316
 30
0.0
 11
96.4013518396
 21
139.1901084677
 31
0.0
  0
LINE
  5
3C3
100
AcDbEntity
  8
2050_4L
390
0
100
AcDbLine
 10
90.9848388428
 20
133.6902249299
 30
0.0
 11
90.9848388428
 21
139.1902249316
 31
0.0
  0
LINE
  5
3C4
100
AcDbEntity
  8
2050_4L
390
0
100
AcDbLine
 10
90.9848388428
 20
133.6902249299
 30
0.0
 11
98.4013303379
 21
133.6900654632
 31
0.0
  0
LINE
  5
3C5
100
AcDbEntity
  8
2050_4L
390
0
  6
DIVIDE
100
AcDbLine
 10
83.4013518396
 20
132.190065463
 30
0.0
 11
98.4013303379
 21
133.6900654632
 31
0.0
  0
LINE
  5
3C6
100
AcDbEntity
  8
2050_4R
390
0
  6
DIVIDE
100
AcDbLine
 10
110.1416143761
 20
169.9319878827
 30
0.0
 11
98.1191029706
 21
166.3948311577
 31
0.0
  0
LINE
  5
3C7
100
AcDbEntity
  8
2050_4R
390
0
  6
DASHED
100
AcDbLine
 10
98.4013518396
 20
169.6839427751
 30
0.0
 11
108.385143216
 21
165.0789054731
 31
0.0
  0
LINE
  5
3C8
100
AcDbEntity
  8
2050_4R
390
0
  6
DASHED
100
AcDbLine
 10
108.385143216
 20
165.0789054731
 30
0.0
 11
98.1191029706
 21
166.3948311577
 31
0.0
  0
LINE
  5
3C9
100
AcDbEntity
  8
2050_4R
390
0
100
AcDbLine
 10
111.3976898596
 20
165.2764382291
 30
0.0
 11
110.1416143761
 21
169.9319878827
 31
0.0
  0
LINE
  5
3CA
100
AcDbEntity
  8
2050_4R
390
0
100
AcDbLine
 10
111.3976898596
 20
165.2764382291
 30
0.0
 11
111.2168068082
 21
162.1742522737
 31
0.0
  0
LINE
  5
3CB
100
AcDbEntity
  8
2050_4R
390
0
100
AcDbLine
 10
111.2168068082
 20
162.1742522737
 30
0.0
 11
103.4540664616
 21
150.8759834105
 31
0.0
  0
ARC
  5
3CC
100
AcDbEntity
  8
2050_4R
390
0
100
AcDbCircle
 10
109.6356116341
 20
146.628807963
 30
0.0
 40
7.5
100
AcDbArc
 50
145.5080766087
 51
196.8163567232
  0
LINE
  5
3CD
100
AcDbEntity
  8
2050_4R
390
0
100
AcDbLine
 10
105.7747065811
 20
133.4793705425
 30
0.0
 11
102.4563345382
 21
144.459019867
 31
0.0
  0
LINE
  5
3CE
100
AcDbEntity
  8
2050_4R
390
0
100
AcDbLine
 10
104.5898218043
 20
132.2163219315
 30
0.0
 11
98.1737040089
 21
133.7163219315
 31
0.0
  0
ARC
  5
3CF
100
AcDbEntity
  8
2050_4R
390
0
100
AcDbCircle
 10
104.817469635
 20
133.190065463
 30
0.0
 40
1.0
100
AcDbArc
 50
256.8413708502
 51
376.8163567232
  0
LINE
  5
3D0
100
AcDbEntity
  8
2050_4R
390
0
  6
DASHED
100
AcDbLine
 10
98.1737040089
 20
133.7163219315
 30
0.0
 11
98.4013518396
 21
132.190065463
 31
0.0
  0
CIRCLE
  5
3D1
100
AcDbEntity
  8
2050_4R
390
0
100
AcDbCircle
 10
108.385143216
 20
165.0789054731
 30
0.0
 40
1.5
  0
ARC
  5
3D2
100
AcDbEntity
  8
2050___ SCHLOSS
390
0
100
AcDbCircle
 10
74.751846548
 20
168.9461882938
 30
0.0
 40
53.2104226723
100
AcDbArc
 50
150.130729093
 51
209.869270907
  0
ARC
  5
3D3
100
AcDbEntity
  8
2050___ SCHLOSS
390
0
100
AcDbCircle
 10
-44.782231011
 20
72.3161509138
 30
0.0
 40
98.0784420733
100
AcDbArc
 50
334.3211380482
 51
385.6788619518
  0
ARC
  5
3D4
100
AcDbEntity
  8
2050___ SCHLOSS
390
0
100
AcDbCircle
 10
113.6547967699
 20
150.9370041191
 30
0.0
 40
35.5909909826
100
AcDbArc
 50
148.2150390556
 51
211.7849609444
  0
ARC
  5
3D5
100
AcDbEntity
  8
2050___ SCHLOSS
390
0
100
AcDbCircle
 10
139.0752944889
 20
72.3161509138
 30
0.0
 40
118.3592028549
100
AcDbArc
 50
158.9565127462
 51
201.0434872538
  0
ARC
  5
3D6
100
AcDbEntity
  8
2050___ SCHLOSS
390
0
100
AcDbCircle
 10
99.5104277848
 20
241.2234705882
 30
0.0
 40
75.6912500935
100
AcDbArc
 50
159.5061696428
 51
200.4938303572
  0
MTEXT
  5
3D7
100
AcDbEntity
  8
2050_1L
390
0
100
AcDbMText
 10
20.1801012596
 20
264.4795462337
 30
0.0
 40
2.0
 41
0.0
 71
         7
 72
         1
  1
\W1.135084;M15x15x2 \PT2 O2 F150\PB-0.3   D1.6\PI1.2 S9
  7
Arial
 73
         1
 44
0.66
  0
MTEXT
  5
3D8
100
AcDbEntity
  8
2050_1R
390
0
100
AcDbMText
 10
42.6600257972
 20
267.0407087769
 30
0.0
 40
2.0
 41
0.0
 71
         7
 72
         1
  1
\W1.135084;M15x15x2 \PT2 O2 F150\PB-0.3   D1.6\PI1.2 S9
  7
Arial
 73
         1
 44
0.66
  0
MTEXT
  5
3D9
100
AcDbEntity
  8
2050_2L
390
0
100
AcDbMText
 10
20.465473548
 20
192.2022639393
 30
0.0
 40
2.0
 41
0.0
 71
         7
 72
         1
  1
\W1.135084;M15x15x2 \PT2 O2 F150\PB-0.3   D1.6\PI1.2 S9
  7
Arial
 73
         1
 44
0.66
  0
MTEXT
  5
3DA
100
AcDbEntity
  8
2050_2R
390
0
100
AcDbMText
 10
40.7086638595
 20
194.7634264825
 30
0.0
 40
2.0
 41
0.0
 71
         7
 72
         1
  1
\W1.135084;M15x15x2 \PT2 O2 F150\PB-0.3   D1.6\PI1.2 S9
  7
Arial
 73
         1
 44
0.66
  0
MTEXT
  5
3DB
100
AcDbEntity
  8
2050_3L
390
0
100
AcDbMText
 10
20.465473548
 20
111.5722265593
 30
0.0
 40
2.0
 41
0.0
 71
         7
 72
         1
  1
\W1.135084;M15x15x2 \PT2 O2 F150\PB-0.3   D1.6\PI1.2 S9
  7
Arial
 73
         1
 44
0.66
  0
MTEXT
  5
3DC
100
AcDbEntity
  8
2050_3R
390
0
100
AcDbMText
 10
42.7819859183
 20
114.1333891025
 30
0.0
 40
2.0
 41
0.0
 71
         7
 72
         1
  1
\W1.135084;M15x15x2 \PT2 O2 F150\PB-0.3   D1.6\PI1.2 S9
  7
Arial
 73
         1
 44
0.66
  0
MTEXT
  5
3DD
100
AcDbEntity
  8
2050_4L
390
0
100
AcDbMText
 10
75.2571404813
 20
166.4400184205
 30
0.0
 40
2.0
 41
0.0
 71
         7
 72
         1
  1
\W1.135085;M15x15x1\PT1 O2 F150\PB-0.3   D0.6\PI1.4 S9
  7
Arial
 73
         1
 44
0.66
  0
MTEXT
  5
3DE
100
AcDbEntity
  8
2050_4R
390
0
100
AcDbMText
 10
94.1587694605
 20
168.3913803583
 30
0.0
 40
2.0
 41
0.0
 71
         7
 72
         1
  1
\W1.135085;M15x15x1\PT1 O2 F150\PB-0.3   D0.6\PI1.4 S9
  7
Arial
 73
         1
 44
0.66
  0
MTEXT
  5
3DF
100
AcDbEntity
  8
2050___ SCHLOSS
390
0
100
AcDbMText
 10
17.7024180076
 20
236.8347609352
 30
0.0
 40
2.0
 41
0.0
 71
         7
 72
         1
  1
\W1.135145;>2050.1L\PM15x15x2\PT2 O2
  7
Arial
 11
1.0
 21
0.0
 31
0.0
 73
         1
 44
0.66
  0
MTEXT
  5
3E0
100
AcDbEntity
  8
2050___ SCHLOSS
390
0
100
AcDbMText
 10
58.003750793
 20
240.4098791662
 30
0.0
 40
2.0
 41
0.0
 71
         7
 72
         1
  1
\W1.135110;>2050.1R\PM15x15x2\PT2 O2
  7
Arial
 11
1.0
 21
0.0
 31
0.0
 73
         1
 44
0.66
  0
MTEXT
  5
3E1
100
AcDbEntity
  8
2050___ SCHLOSS
390
0
100
AcDbMText
 10
53.1570792812
 20
170.15606571
 30
0.0
 40
2.0
 41
0.0
 71
         7
 72
         1
  1
\W1.135110;>2050.2R\PM15x15x2\PT2 O2
  7
Arial
 11
1.0
 21
0.0
 31
0.0
 73
         1
 44
0.66
  0
MTEXT
  5
3E2
100
AcDbEntity
  8
2050___ SCHLOSS
390
0
100
AcDbMText
 10
16.4023750145
 20
164.357364071
 30
0.0
 40
2.0
 41
0.0
 71
         7
 72
         1
  1
\W1.135145;>2050.2L\PM15x15x2\PT2 O2
  7
Arial
 11
1.0
 21
0.0
 31
0.0
 73
         1
 44
0.66
  0
MTEXT
  5
3E3
100
AcDbEntity
  8
2050___ SCHLOSS
390
0
100
AcDbMText
 10
15.4273427697
 20
72.0543115624
 30
0.0
 40
2.0
 41
0.0
 71
         7
 72
         1
  1
\W1.135145;>2050.3L\PM15x15x2\PT2 O2
  7
Arial
 11
1.0
 21
0.0
 31
0.0
 73
         1
 44
0.66
  0
MTEXT
  5
3E4
100
AcDbEntity
  8
2050___ SCHLOSS
390
0
100
AcDbMText
 10
47.7571544479
 20
66.2410953643
 30
0.0
 40
2.0
 41
0.0
 71
         7
 72
         1
  1
\W1.135110;>2050.3R\PM15x15x2\PT2 O2
  7
Arial
 11
1.0
 21
0.0
 31
0.0
 73
         1
 44
0.66
  0
MTEXT
  5
3E5
100
AcDbEntity
  8
2050___ SCHLOSS
390
0
100
AcDbMText
 10
71.0358971808
 20
146.5126781298
 30
0.0
 40
2.0
 41
0.0
 71
         7
 72
         1
  1
\W1.135145;>2050.4L\PM15x15x1\PT1 O2
  7
Arial
 11
1.0
 21
0.0
 31
0.0
 73
         1
 44
0.66
  0
MTEXT
  5
3E6
100
AcDbEntity
  8
2050___ SCHLOSS
390
0
100
AcDbMText
 10
103.0030721159
 20
143.5436035248
 30
0.0
 40
2.0
 41
0.0
 71
         7
 72
         1
  1
\W1.135110;>2050.4R\PM15x15x1\PT1 O2
  7
Arial
 11
1.0
 21
0.0
 31
0.0
 73
         1
 44
0.66
  0
LINE
  5
3E7
100
AcDbEntity
  8
2051_1P
390
0
100
AcDbLine
 10
127.2396960787
 20
272.1476310808
 30
0.0
 11
127.2396960787
 21
245.1476310808
 31
0.0
  0
ARC
  5
3E8
100
AcDbEntity
  8
2051___ SCHLÜSSEL
390
0
  6
DASHDOT
100
AcDbCircle
 10
143.186580057
 20
190.2389433025
 30
0.0
 40
10.5477150515
100
AcDbArc
 50
123.946069332
 51
236.053930668
  0
ARC
  5
3E9
100
AcDbEntity
  8
2051___ SCHLÜSSEL
390
0
  6
DASHDOT
100
AcDbCircle
 10
143.186580057
 20
155.2389433025
 30
0.0
 40
10.5477150515
100
AcDbArc
 50
123.946069332
 51
236.053930668
  0
ARC
  5
3EA
100
AcDbEntity
  8
2051___ SCHLÜSSEL
390
0
  6
DASHDOT
100
AcDbCircle
 10
143.186580057
 20
120.2389433025
 30
0.0
 40
10.5477150515
100
AcDbArc
 50
123.946069332
 51
236.053930668
  0
ARC
  5
3EB
100
AcDbEntity
  8
2051___ SCHLÜSSEL
390
0
  6
DASHDOT
100
AcDbCircle
 10
143.186580057
 20
85.2389433025
 30
0.0
 40
10.5477150515
100
AcDbArc
 50
123.946069332
 51
236.053930668
  0
ARC
  5
3EC
100
AcDbEntity
  8
2051___ SCHLÜSSEL
390
0
  6
DASHDOT
100
AcDbCircle
 10
143.186580057
 20
50.2389433025
 30
0.0
 40
10.5477150515
100
AcDbArc
 50
123.946069332
 51
236.053930668
  0
INSERT
  5
3ED
100
AcDbEntity
  8
BEMASSUNG
390
0
100
AcDbBlockReference
  2
D363606016
 10
0.0
 20
0.0
 30
0.0
  0
ARC
  5
3EE
100
AcDbEntity
  8
2050___ SCHLOSS
390
0
  6
DASHDOT
100
AcDbCircle
 10
78.6012313024
 20
150.9370041191
 30
0.0
 40
27.2670585554
100
AcDbArc
 50
316.5650446417
 51
403.4349553583
  0
ARC
  5
3EF
100
AcDbEntity
  8
2050___ SCHLOSS
390
0
  6
DASHDOT
100
AcDbCircle
 10
24.9715048966
 20
168.9461882938
 30
0.0
 40
32.3980208358
100
AcDbArc
 50
305.1197762617
 51
414.8802237383
  0
ARC
  5
3F0
100
AcDbEntity
  8
2050___ SCHLOSS
390
0
  6
DASHDOT
100
AcDbCircle
 10
33.0688190369
 20
241.2234705882
 30
0.0
 40
28.5194644634
100
AcDbArc
 50
291.6911056149
 51
428.3088943851
  0
LINE
  5
3F1
100
AcDbEntity
  8
MITTELLINIEN
390
0
100
AcDbLine
 10
137.2966061345
 20
34.7829316176
 30
0.0
 11
137.2966061345
 21
208.8348638841
 31
0.0
  0
INSERT
  5
3F2
100
AcDbEntity
  8
2050_1_2 GEHÄUSE
390
0
100
AcDbBlockReference
  2
@2.5l
 10
36.8596849063
 20
189.4461882938
 30
0.0
  0
CIRCLE
  5
3F3
100
AcDbEntity
  8
2050_1_2 GEHÄUSE
370
         0
390
0
100
AcDbCircle
 10
36.8596849063
 20
189.4461882938
 30
0.0
 40
1.5
  0
CIRCLE
  5
3F4
100
AcDbEntity
  8
2050_2L
390
0
100
AcDbCircle
 10
36.8596849063
 20
189.4461882938
 30
0.0
 40
1.25
  0
LINE
  5
3F5
100
AcDbEntity
  8
2050_2L
390
0
  6
DASHED
100
AcDbLine
 10
28.6096849063
 20
195.4461882938
 30
0.0
 11
36.8596849063
 21
189.4461882938
 31
0.0
  0
CIRCLE
  5
3F6
100
AcDbEntity
  8
2050_2L
390
0
  6
PHANTOM
100
AcDbCircle
 10
36.8596849063
 20
189.4461882938
 30
0.0
 40
0.75
  0
TEXT
  5
3F7
100
AcDbEntity
  8
2050_2L
390
0
  6
PHANTOM
100
AcDbText
 10
30.9080107185
 20
190.5764493737
 30
0.0
 40
2.0
  1
N1
 41
1.1350267802
  7
Arial
100
AcDbText
  0
LINE
  5
3F8
100
AcDbEntity
  8
2051_1-4 SCHLÜSSEL
390
0
 62
        11
100
AcDbLine
 10
101.1020334624
 20
102.9713128751
 30
0.0
 11
101.1020334624
 21
70.4713128751
 31
0.0
  0
LINE
  5
3F9
100
AcDbEntity
  8
2051_1-4 SCHLÜSSEL
390
0
  6
DASHED
 62
        11
100
AcDbLine
 10
104.6020334624
 20
102.9713128751
 30
0.0
 11
104.6020334624
 21
70.4713128751
 31
0.0
  0
LINE
  5
3FA
100
AcDbEntity
  8
2051_1-4 SCHLÜSSEL
390
0
 62
        11
100
AcDbLine
 10
105.1020334624
 20
102.9713128751
 30
0.0
 11
105.1020334624
 21
70.4713128751
 31
0.0
  0
LINE
  5
3FB
100
AcDbEntity
  8
2051_1-4 SCHLÜSSEL
390
0
  6
DASHED
 62
        11
100
AcDbLine
 10
101.6020334624
 20
102.9713128751
 30
0.0
 11
101.6020334624
 21
70.4713128751
 31
0.0
  0
LINE
  5
3FC
100
AcDbEntity
  8
2050_5_6 BESATZUNG
370
         0
390
0
100
AcDbLine
 10
100.6121808819
 20
56.4715647748
 30
0.0
 11
100.6121808819
 21
55.4715647748
 31
0.0
  0
LINE
  5
3FD
100
AcDbEntity
  8
2050_5_6 BESATZUNG
370
         0
390
0
100
AcDbLine
 10
100.6121808819
 20
50.4715647748
 30
0.0
 11
104.6121808819
 21
50.4715647748
 31
0.0
  0
LINE
  5
3FE
100
AcDbEntity
  8
2050_5_6 BESATZUNG
370
         0
390
0
100
AcDbLine
 10
100.6121808819
 20
51.4715647748
 30
0.0
 11
100.6121808819
 21
50.4715647748
 31
0.0
  0
LINE
  5
3FF
100
AcDbEntity
  8
2050_5_6 BESATZUNG
370
         0
390
0
100
AcDbLine
 10
100.6121808819
 20
55.4715647748
 30
0.0
 11
104.6121808819
 21
55.4715647748
 31
0.0
  0
LINE
  5
400
100
AcDbEntity
  8
2050_5_6 BESATZUNG
370
         0
390
0
100
AcDbLine
 10
100.6121808819
 20
51.4715647748
 30
0.0
 11
104.6121808819
 21
51.4715647748
 31
0.0
  0
LINE
  5
401
100
AcDbEntity
  8
2050_5_6 BESATZUNG
370
         0
390
0
100
AcDbLine
 10
100.6121808819
 20
56.4715647748
 30
0.0
 11
104.6121808819
 21
56.4715647748
 31
0.0
  0
TEXT
  5
402
100
AcDbEntity
  8
BESCHRIFTUNG
390
0
100
AcDbText
 10
81.1408611122
 20
106.1254706621
 30
0.0
 40
2.5
  1
2051.4/4
 41
1.1351342752
  7
Arial
 72
         1
 11
91.0474875139
 21
107.3754706621
 31
0.0
100
AcDbText
 73
         2
  0
TEXT
  5
403
100
AcDbEntity
  8
BESCHRIFTUNG
390
0
100
AcDbText
 10
82.4223207721
 20
59.4592922794
 30
0.0
 40
2.5
  1
2050.6/6
 41
1.1351341708
  7
Arial
100
AcDbText
  0
LINE
  5
404
100
AcDbEntity
  8
2051_1-4 SCHLÜSSEL
390
0
 62
        11
100
AcDbLine
 10
101.1020334624
 20
102.9713128751
 30
0.0
 11
105.1020334624
 21
102.9713128751
 31
0.0
  0
LINE
  5
405
100
AcDbEntity
  8
2051_1-4 SCHLÜSSEL
390
0
 62
        11
100
AcDbLine
 10
101.1020334624
 20
70.4713128751
 30
0.0
 11
105.1020334624
 21
70.4713128751
 31
0.0
  0
LINE
  5
406
100
AcDbEntity
  8
2050_5_6 BESATZUNG
370
         0
390
0
100
AcDbLine
 10
104.6121808819
 20
56.4715647748
 30
0.0
 11
104.6121808819
 21
55.4715647748
 31
0.0
  0
LINE
  5
407
100
AcDbEntity
  8
2050_5_6 BESATZUNG
370
         0
390
0
100
AcDbLine
 10
104.6121808819
 20
51.4715647748
 30
0.0
 11
104.6121808819
 21
50.4715647748
 31
0.0
  0
INSERT
  5
408
100
AcDbEntity
  8
BEMASSUNG
390
0
100
AcDbBlockReference
  2
D363605504
 10
0.0
 20
0.0
 30
0.0
  0
INSERT
  5
409
100
AcDbEntity
  8
BEMASSUNG
390
0
100
AcDbBlockReference
  2
D363605248
 10
0.0
 20
0.0
 30
0.0
  0
TEXT
  5
40A
100
AcDbEntity
  8
BESCHRIFTUNG
390
0
100
AcDbText
 10
77.8703602941
 20
105.7101617647
 30
0.0
 40
3.0
  1
M
 41
1.1350193204
  7
Arial
100
AcDbText
  0
TEXT
  5
40B
100
AcDbEntity
  8
BESCHRIFTUNG
390
0
100
AcDbText
 10
76.1058308824
 20
58.9501323529
 30
0.0
 40
3.0
  1
M
 41
1.1350193204
  7
Arial
100
AcDbText
  0
TEXT
  5
40C
100
AcDbEntity
  8
BESCHRIFTUNG
390
0
100
AcDbText
 10
49.934437212
 20
181.0573625834
 30
0.0
 40
2.0
  1
Ø3,5
 41
1.1350860059
  7
Arial
100
AcDbText
  0
LINE
  5
40D
100
AcDbEntity
  8
MITTELLINIEN
390
0
100
AcDbLine
 10
42.3596849063
 20
184.4461882938
 30
0.0
 11
53.8596849063
 21
184.4461882938
 31
0.0
  0
LINE
  5
40E
100
AcDbEntity
  8
MITTELLINIEN
390
0
100
AcDbLine
 10
48.1096849063
 20
178.6961882938
 30
0.0
 11
48.1096849063
 21
190.1961882938
 31
0.0
  0
TEXT
  5
40F
100
AcDbEntity
  8
BESCHRIFTUNG
390
0
100
AcDbText
 10
49.934437212
 20
150.0573625834
 30
0.0
 40
2.0
  1
Ø3,5
 41
1.1350860059
  7
Arial
100
AcDbText
  0
LINE
  5
410
100
AcDbEntity
  8
MITTELLINIEN
390
0
100
AcDbLine
 10
42.3596849063
 20
153.4461882938
 30
0.0
 11
53.8596849063
 21
153.4461882938
 31
0.0
  0
LINE
  5
411
100
AcDbEntity
  8
MITTELLINIEN
390
0
100
AcDbLine
 10
48.1096849063
 20
147.6961882938
 30
0.0
 11
48.1096849063
 21
159.1961882938
 31
0.0
  0
LINE
  5
412
100
AcDbEntity
  8
STANDARD
390
0
100
AcDbLine
 10
10.0
 20
5.0
 30
0.0
 11
10.0
 21
292.0
 31
0.0
  0
LINE
  5
413
100
AcDbEntity
  8
STANDARD
390
0
100
AcDbLine
 10
15.0
 20
287.0
 30
0.0
 11
205.0
 21
287.0
 31
0.0
  0
LINE
  5
414
100
AcDbEntity
  8
STANDARD
390
0
100
AcDbLine
 10
10.0
 20
292.0
 30
0.0
 11
15.0
 21
292.0
 31
0.0
  0
LINE
  5
415
100
AcDbEntity
  8
STANDARD
390
0
100
AcDbLine
 10
10.0
 20
5.0
 30
0.0
 11
15.0
 21
5.0
 31
0.0
  0
LINE
  5
416
100
AcDbEntity
  8
STANDARD
390
0
100
AcDbLine
 10
10.0
 20
244.1666666667
 30
0.0
 11
15.0
 21
244.1666666667
 31
0.0
  0
LINE
  5
417
100
AcDbEntity
  8
STANDARD
390
0
100
AcDbLine
 10
10.0
 20
196.3333333333
 30
0.0
 11
15.0
 21
196.3333333333
 31
0.0
  0
LINE
  5
418
100
AcDbEntity
  8
STANDARD
390
0
100
AcDbLine
 10
10.0
 20
148.5
 30
0.0
 11
15.0
 21
148.5
 31
0.0
  0
LINE
  5
419
100
AcDbEntity
  8
STANDARD
390
0
100
AcDbLine
 10
10.0
 20
100.6666666667
 30
0.0
 11
15.0
 21
100.6666666667
 31
0.0
  0
LINE
  5
41A
100
AcDbEntity
  8
STANDARD
390
0
100
AcDbLine
 10
10.0
 20
52.8333333333
 30
0.0
 11
15.0
 21
52.8333333333
 31
0.0
  0
LINE
  5
41B
100
AcDbEntity
  8
STANDARD
390
0
100
AcDbLine
 10
157.5
 20
292.0
 30
0.0
 11
157.5
 21
287.0
 31
0.0
  0
LINE
  5
41C
100
AcDbEntity
  8
STANDARD
390
0
100
AcDbLine
 10
110.0
 20
292.0
 30
0.0
 11
110.0
 21
287.0
 31
0.0
  0
LINE
  5
41D
100
AcDbEntity
  8
STANDARD
390
0
100
AcDbLine
 10
62.5
 20
292.0
 30
0.0
 11
62.5
 21
287.0
 31
0.0
  0
TEXT
  5
41E
100
AcDbEntity
  8
STANDARD
390
0
100
AcDbText
 10
10.9491078691
 20
267.8641561278
 30
0.0
 40
2.23125
  1
A
 41
1.547986837
  7
Arial
 72
         1
 11
12.6760806841
 21
270.0954061278
 31
0.0
100
AcDbText
 73
         3
  0
TEXT
  5
41F
100
AcDbEntity
  8
STANDARD
390
0
100
AcDbText
 10
10.9491074243
 20
220.0308227945
 30
0.0
 40
2.23125
  1
B
 41
1.5479872357
  7
Arial
 72
         1
 11
12.6760806841
 21
222.2620727945
 31
0.0
100
AcDbText
 73
         3
  0
TEXT
  5
420
100
AcDbEntity
  8
STANDARD
390
0
100
AcDbText
 10
10.9489779593
 20
172.1974894612
 30
0.0
 40
2.23125
  1
C
 41
1.5481032827
  7
Arial
 72
         1
 11
12.6760806841
 21
174.4287394612
 31
0.0
100
AcDbText
 73
         3
  0
TEXT
  5
421
100
AcDbEntity
  8
STANDARD
390
0
100
AcDbText
 10
10.9489771034
 20
124.3641561278
 30
0.0
 40
2.23125
  1
D
 41
1.54810405
  7
Arial
 72
         1
 11
12.6760806841
 21
126.5954061278
 31
0.0
100
AcDbText
 73
         3
  0
TEXT
  5
422
100
AcDbEntity
  8
STANDARD
390
0
100
AcDbText
 10
10.9491076096
 20
76.5308227945
 30
0.0
 40
2.23125
  1
E
 41
1.5479870696
  7
Arial
 72
         1
 11
12.6760806841
 21
78.7620727945
 31
0.0
100
AcDbText
 73
         3
  0
TEXT
  5
423
100
AcDbEntity
  8
STANDARD
390
0
100
AcDbText
 10
10.9493506612
 20
28.6974894612
 30
0.0
 40
2.23125
  1
F
 41
1.5477692083
  7
Arial
 72
         1
 11
12.6760806841
 21
30.9287394612
 31
0.0
100
AcDbText
 73
         3
  0
TEXT
  5
424
100
AcDbEntity
  8
STANDARD
390
0
100
AcDbText
 10
36.7048241449
 20
288.48599354
 30
0.0
 40
2.23125
  1
1
 41
1.5479225906
  7
Arial
 72
         1
 11
38.0
 21
290.71724354
 31
0.0
100
AcDbText
 73
         3
  0
TEXT
  5
425
100
AcDbEntity
  8
STANDARD
390
0
100
AcDbText
 10
83.7730999712
 20
288.48599354
 30
0.0
 40
2.23125
  1
2
 41
1.5479215945
  7
Arial
 72
         1
 11
85.5
 21
290.71724354
 31
0.0
100
AcDbText
 73
         3
  0
TEXT
  5
426
100
AcDbEntity
  8
STANDARD
390
0
100
AcDbText
 10
131.2730986376
 20
288.48599354
 30
0.0
 40
2.23125
  1
3
 41
1.5479227899
  7
Arial
 72
         1
 11
133.0
 21
290.71724354
 31
0.0
100
AcDbText
 73
         3
  0
TEXT
  5
427
100
AcDbEntity
  8
STANDARD
390
0
100
AcDbText
 10
178.7730988598
 20
288.48599354
 30
0.0
 40
2.23125
  1
4
 41
1.5479225906
  7
Arial
 72
         1
 11
180.5
 21
290.71724354
 31
0.0
100
AcDbText
 73
         3
  0
LINE
  5
428
100
AcDbEntity
  8
STANDARD
390
0
100
AcDbLine
 10
205.0
 20
292.0
 30
0.0
 11
205.0
 21
287.0
 31
0.0
  0
LINE
  5
429
100
AcDbEntity
  8
STANDARD
390
0
100
AcDbLine
 10
205.0
 20
5.0
 30
0.0
 11
15.0
 21
5.0
 31
0.0
  0
LINE
  5
42A
100
AcDbEntity
  8
STANDARD
390
0
100
AcDbLine
 10
15.0
 20
5.0
 30
0.0
 11
15.0
 21
287.0
 31
0.0
  0
LINE
  5
42B
100
AcDbEntity
  8
STANDARD
390
0
100
AcDbLine
 10
15.0
 20
292.0
 30
0.0
 11
205.0
 21
292.0
 31
0.0
  0
LINE
  5
42C
100
AcDbEntity
  8
STANDARD
390
0
100
AcDbLine
 10
1.0
 20
1.0
 30
0.0
 11
1.0
 21
296.0
 31
0.0
  0
LINE
  5
42D
100
AcDbEntity
  8
STANDARD
390
0
100
AcDbLine
 10
209.0
 20
1.0
 30
0.0
 11
1.0
 21
1.0
 31
0.0
  0
LINE
  5
42E
100
AcDbEntity
  8
STANDARD
390
0
100
AcDbLine
 10
209.0
 20
296.0
 30
0.0
 11
209.0
 21
1.0
 31
0.0
  0
LINE
  5
42F
100
AcDbEntity
  8
STANDARD
390
0
100
AcDbLine
 10
1.0
 20
296.0
 30
0.0
 11
209.0
 21
296.0
 31
0.0
  0
LINE
  5
430
100
AcDbEntity
  8
STANDARD
390
0
100
AcDbLine
 10
15.0
 20
287.0
 30
0.0
 11
15.0
 21
292.0
 31
0.0
  0
LINE
  5
431
100
AcDbEntity
  8
STANDARD
390
0
100
AcDbLine
 10
205.0
 20
287.0
 30
0.0
 11
205.0
 21
5.0
 31
0.0
  0
MTEXT
  5
432
100
AcDbEntity
  8
STANDARD
390
0
100
AcDbMText
 10
203.6063292805
 20
81.4222772661
 30
0.0
 40
1.59375
 41
0.0
 71
         1
 72
         1
  1

  7
Arial
 11
0.0
 21
-1.0
 31
0.0
 73
         1
 44
1.0352941176
  0
MTEXT
  5
433
100
AcDbEntity
  8
STANDARD
390
0
100
AcDbMText
 10
203.6103242188
 20
27.5871143065
 30
0.0
 40
1.59375
 41
0.0
 71
         1
 72
         1
  1

  7
Arial
 11
0.0
 21
-1.0
 31
0.0
 73
         1
 44
1.0352941176
  0
MTEXT
  5
434
100
AcDbEntity
  8
STANDARD
390
0
100
AcDbMText
 10
203.6063292805
 20
125.7560948498
 30
0.0
 40
1.59375
 41
0.0
 71
         1
 72
         1
  1

  7
Arial
 11
0.0
 21
-1.0
 31
0.0
 73
         1
 44
1.0352941176
  0
LINE
  5
435
100
AcDbEntity
  8
STANDARD
370
         0
390
0
100
AcDbLine
 10
81.105982906
 20
30.4
 30
0.0
 11
205.0
 21
30.4
 31
0.0
  0
LINE
  5
436
100
AcDbEntity
  8
STANDARD
370
         0
390
0
100
AcDbLine
 10
81.105982906
 20
23.4
 30
0.0
 11
205.0
 21
23.4
 31
0.0
  0
LINE
  5
437
100
AcDbEntity
  8
STANDARD
370
         0
390
0
100
AcDbLine
 10
81.105982906
 20
12.0
 30
0.0
 11
205.0
 21
12.0
 31
0.0
  0
LINE
  5
438
100
AcDbEntity
  8
STANDARD
390
0
100
AcDbLine
 10
205.0
 20
182.1150997151
 30
0.0
 11
205.0
 21
5.1236467236
 31
0.0
  0
LINE
  5
439
100
AcDbEntity
  8
STANDARD
370
         0
390
0
100
AcDbLine
 10
81.105982906
 20
30.4
 30
0.0
 11
81.105982906
 21
5.0
 31
0.0
  0
LINE
  5
43A
100
AcDbEntity
  8
STANDARD
370
         0
390
0
100
AcDbLine
 10
127.305982906
 20
30.4
 30
0.0
 11
127.305982906
 21
5.0
 31
0.0
  0
LINE
  5
43B
100
AcDbEntity
  8
STANDARD
370
         0
390
0
100
AcDbLine
 10
165.105982906
 20
30.4
 30
0.0
 11
165.105982906
 21
23.4
 31
0.0
  0
TEXT
  5
43C
100
AcDbEntity
  8
BESCHRIFTUNG0
390
0
100
AcDbText
 10
82.2010860399
 20
25.1136
 30
0.0
 40
3.325
  1
Stellwerk HMM
 41
1.3653781858
  7
Arial
 11
82.2010860399
 21
28.4386
 31
0.0
100
AcDbText
 73
         3
  0
MTEXT
  5
43D
100
AcDbEntity
  8
BESCHRIFTUNG0
390
0
100
AcDbMText
 10
128.6210415954
 20
20.9601111111
 30
0.0
 40
3.325
 41
0.0
 71
         1
 72
         1
  1
\W1.134991;Schloss, Schlüssel\P
  7
Arial
 73
         1
 44
0.66
  0
TEXT
  5
43E
100
AcDbEntity
  8
BESCHRIFTUNG0
390
0
100
AcDbText
 10
82.2010860399
 20
6.8980888889
 30
0.0
 40
3.325
  1
Dateiname
 41
1.1350744463
 51
15.0
  7
Arial
 11
82.2010860399
 21
10.2230888889
 31
0.0
100
AcDbText
 73
         3
  0
TEXT
  5
43F
100
AcDbEntity
  8
BESCHRIFTUNG0
390
0
100
AcDbText
 10
82.4210415954
 20
17.6351111111
 30
0.0
 40
3.325
  1
Bl. 2050...2051 P.1v
 41
1.0728515966
 51
15.0
  7
Arial
 11
82.4210415954
 21
20.9601111111
 31
0.0
100
AcDbText
 73
         3
  0
TEXT
  5
440
100
AcDbEntity
  8
BESCHRIFTUNG0
390
0
100
AcDbText
 10
128.4049046008
 20
6.8734679633
 30
0.0
 40
2.975
  1
2050-2051 P.1v
 41
1.134905048
 51
15.0
  7
Arial
 11
128.4049046008
 21
9.8484679633
 31
0.0
100
AcDbText
 73
         3
  0
TEXT
  5
441
100
AcDbEntity
  8
BESCHRIFTUNG0
390
0
100
AcDbText
 10
166.2010860399
 20
25.1136
 30
0.0
 40
3.325
  1
Maßstab 1:1
 41
1.1349345608
 51
15.0
  7
Arial
 11
166.2010860399
 21
28.4386
 31
0.0
100
AcDbText
 73
         3
  0
TEXT
  5
442
100
AcDbEntity
  8
BESCHRIFTUNG0
390
0
100
AcDbText
 10
128.4010860399
 20
25.2980888889
 30
0.0
 40
3.325
  1
2025-01-17
 41
1.1351374168
 51
15.0
  7
Arial
 11
128.4010860399
 21
28.6230888889
 31
0.0
100
AcDbText
 73
         3
  0
ENDSEC
  0
SECTION
  2
OBJECTS
  0
DICTIONARY
  5
19
100
AcDbDictionary
280
         0
281
         1
  3
ACAD_GROUP
350
1A
  3
ACAD_MLINESTYLE
350
1B
  3
ACAD_LAYOUT
350
1E
  3
ACAD_PLOTSETTINGS
350
22
  3
ACAD_PLOTSTYLENAME
350
1F
  3
ACAD_WIPEOUT_VARS
350
23
  0
DICTIONARY
  5
1A
102
{ACAD_REACTORS
330
19
102
}
100
AcDbDictionary
280
         0
281
         1
  0
DICTIONARY
  5
1B
102
{ACAD_REACTORS
330
19
102
}
100
AcDbDictionary
280
         0
281
         1
  3
Standard
350
1C
  0
MLINESTYLE
  5
1C
102
{ACAD_REACTORS
330
1B
102
}
100
AcDbMlineStyle
  2
Standard
 70
         0
  3

 62
         0
 51
90.0
 52
90.0
 71
         2
 49
0.5
 62
       256
  6
ByLayer
 49
-0.5
 62
       256
  6
ByLayer
  0
ACDBDICTIONARYWDFLT
  5
1F
102
{ACAD_REACTORS
330
19
102
}
100
AcDbDictionary
281
         1
  3
Normal
350
1D
100
AcDbDictionaryWithDefault
340
1D
  0
ACDBPLACEHOLDER
  5
1D
102
{ACAD_REACTORS
330
1F
102
}
  0
LAYOUT
  5
20
102
{ACAD_REACTORS
330
1E
102
}
100
AcDbPlotSettings
  1

  2

  4

  6

 40
0.0
 41
0.0
 42
0.0
 43
0.0
 44
0.0
 45
0.0
 46
0.0
 47
0.0
 48
0.0
 49
0.0
140
0.0
141
0.0
142
1.0
143
1.0
 70
      1024
 72
         0
 73
         0
 74
         0
  7

 75
         0
147
1.0
148
0.0
149
0.0
100
AcDbLayout
  1
Model
 70
         0
 71
         0
 10
0.0
 20
0.0
 11
0.0
 21
0.0
 12
0.0
 22
0.0
 32
0.0
 14
0.0
 24
0.0
 34
0.0
 15
0.0
 25
0.0
 35
0.0
146
0.0
 13
0.0
 23
0.0
 33
0.0
 16
0.0
 26
0.0
 36
0.0
 17
0.0
 27
0.0
 37
0.0
 76
         0
330
A
331
0
345
0
346
0
  0
LAYOUT
  5
21
102
{ACAD_REACTORS
330
1E
102
}
100
AcDbPlotSettings
  1

  2

  4

  6

 40
0.0
 41
0.0
 42
0.0
 43
0.0
 44
0.0
 45
0.0
 46
0.0
 47
0.0
 48
0.0
 49
0.0
140
0.0
141
0.0
142
1.0
143
1.0
 70
         0
 72
         0
 73
         0
 74
         0
  7

 75
         0
147
1.0
148
0.0
149
0.0
100
AcDbLayout
  1
Layout1
 70
         0
 71
         0
 10
0.0
 20
0.0
 11
0.0
 21
0.0
 12
0.0
 22
0.0
 32
0.0
 14
0.0
 24
0.0
 34
0.0
 15
0.0
 25
0.0
 35
0.0
146
0.0
 13
0.0
 23
0.0
 33
0.0
 16
0.0
 26
0.0
 36
0.0
 17
0.0
 27
0.0
 37
0.0
 76
         0
330
B
331
0
345
0
346
0
  0
DICTIONARY
  5
1E
102
{ACAD_REACTORS
330
19
102
}
100
AcDbDictionary
280
         0
281
         1
  3
Layout1
350
21
  3
Model
350
20
  0
DICTIONARY
  5
22
102
{ACAD_REACTORS
330
19
102
}
100
AcDbDictionary
280
         0
281
         1
  0
WIPEOUTVARIABLES
  5
23
100
AcDbWipeoutVariables
 70
         1
  0
ENDSEC
  0
EOF
