  0
SECTION
  2
HEADER
  9
$ACADVER
  1
AC1015
  9
$ACADMAINTVER
 70
         6
  9
$DWGCODEPAGE
  3
ANSI_1252
  9
$INSBASE
 10
0.0
 20
0.0
 30
0.0
  9
$EXTMIN
 10
-0.3684085906
 20
-279.6678771973
 30
0.0
  9
$EXTMAX
 10
210.0
 20
297.0
 30
0.0
  9
$LIMMIN
 10
-0.3684085906
 20
-279.6678771973
  9
$LIMMAX
 10
210.0
 20
297.0
  9
$ORTHOMODE
 70
         0
  9
$REGENMODE
 70
         1
  9
$FILLMODE
 70
         1
  9
$QTEXTMODE
 70
         0
  9
$MIRRTEXT
 70
         1
  9
$LTSCALE
 40
5.2592102148
  9
$ATTMODE
 70
         1
  9
$TEXTSIZE
 40
0.2
  9
$TRACEWID
 40
0.05
  9
$TEXTSTYLE
  7
Standard
  9
$CLAYER
  8
0
  9
$CELTYPE
  6
CONTINUOUS
  9
$CECOLOR
 62
       256
  9
$CELTSCALE
 40
1.0
  9
$DISPSILH
 70
         0
  9
$DIMSCALE
 40
1.0
  9
$DIMASZ
 40
0.18
  9
$DIMEXO
 40
0.0625
  9
$DIMDLI
 40
0.38
  9
$DIMRND
 40
0.0
  9
$DIMDLE
 40
0.0
  9
$DIMEXE
 40
0.18
  9
$DIMTP
 40
0.0
  9
$DIMTM
 40
0.0
  9
$DIMTXT
 40
3.0
  9
$DIMCEN
 40
0.09
  9
$DIMTSZ
 40
0.0
  9
$DIMTOL
 70
         0
  9
$DIMLIM
 70
         0
  9
$DIMTIH
 70
         1
  9
$DIMTOH
 70
         1
  9
$DIMSE1
 70
         0
  9
$DIMSE2
 70
         0
  9
$DIMTAD
 70
         1
  9
$DIMZIN
 70
         0
  9
$DIMBLK
  1

  9
$DIMASO
 70
         1
  9
$DIMSHO
 70
         1
  9
$DIMPOST
  1
<>
  9
$DIMAPOST
  1

  9
$DIMALT
 70
         0
  9
$DIMALTD
 70
         2
  9
$DIMALTF
 40
25.4
  9
$DIMLFAC
 40
1.0
  9
$DIMTOFL
 70
         0
  9
$DIMTVP
 40
0.0
  9
$DIMTIX
 70
         0
  9
$DIMSOXD
 70
         0
  9
$DIMSAH
 70
         0
  9
$DIMBLK1
  1

  9
$DIMBLK2
  1

  9
$DIMSTYLE
  2
Standard
  9
$DIMCLRD
 70
         0
  9
$DIMCLRE
 70
         0
  9
$DIMCLRT
 70
         0
  9
$DIMTFAC
 40
1.0
  9
$DIMGAP
 40
0.09
  9
$DIMJUST
 70
         0
  9
$DIMSD1
 70
         0
  9
$DIMSD2
 70
         0
  9
$DIMTOLJ
 70
         1
  9
$DIMTZIN
 70
         0
  9
$DIMALTZ
 70
         0
  9
$DIMALTTZ
 70
         0
  9
$DIMUPT
 70
         0
  9
$DIMDEC
 70
         4
  9
$DIMTDEC
 70
         4
  9
$DIMALTU
 70
         2
  9
$DIMALTTD
 70
         2
  9
$DIMTXSTY
  7
Standard
  9
$DIMAUNIT
 70
         0
  9
$DIMADEC
 70
         0
  9
$DIMALTRND
 40
0.0
  9
$DIMAZIN
 70
         0
  9
$DIMDSEP
 70
         0
  9
$DIMATFIT
 70
         3
  9
$DIMFRAC
 70
         0
  9
$DIMLDRBLK
  1

  9
$DIMLUNIT
 70
         2
  9
$DIMLWD
 70
         0
  9
$DIMLWE
 70
         0
  9
$DIMTMOVE
 70
         0
  9
$LUNITS
 70
         2
  9
$LUPREC
 70
         4
  9
$SKETCHINC
 40
0.1
  9
$FILLETRAD
 40
0.0
  9
$AUNITS
 70
         0
  9
$AUPREC
 70
         0
  9
$MENU
  1
acad
  9
$ELEVATION
 40
0.0
  9
$PELEVATION
 40
0.0
  9
$THICKNESS
 40
0.0
  9
$LIMCHECK
 70
         0
  9
$CHAMFERA
 40
0.0
  9
$CHAMFERB
 40
0.0
  9
$CHAMFERC
 40
0.0
  9
$CHAMFERD
 40
0.0
  9
$SKPOLY
 70
         0
  9
$TDCREATE
 40
0.000000000
  9
$TDUCREATE
 40
0.000000000
  9
$TDUPDATE
 40
0.000000000
  9
$TDUUPDATE
 40
0.000000000
  9
$TDINDWG
 40
0.0000000000
  9
$TDUSRTIMER
 40
0.0000000000
  9
$USRTIMER
 70
         1
  9
$ANGBASE
 50
0.0
  9
$ANGDIR
 70
         0
  9
$PDMODE
 70
         0
  9
$PDSIZE
 40
0.0
  9
$PLINEWID
 40
0.0
  9
$SPLFRAME
 70
         0
  9
$SPLINETYPE
 70
         6
  9
$SPLINESEGS
 70
         8
  9
$HANDSEED
  5
34D
  9
$SURFTAB1
 70
         6
  9
$SURFTAB2
 70
         6
  9
$SURFTYPE
 70
         6
  9
$SURFU
 70
         6
  9
$SURFV
 70
         6
  9
$UCSBASE
  2

  9
$UCSNAME
  2

  9
$UCSORG
 10
0.0
 20
0.0
 30
0.0
  9
$UCSXDIR
 10
1.0
 20
0.0
 30
0.0
  9
$UCSYDIR
 10
0.0
 20
1.0
 30
0.0
  9
$UCSORTHOREF
  2

  9
$UCSORTHOVIEW
 70
         0
  9
$UCSORGTOP
 10
0.0
 20
0.0
 30
0.0
  9
$UCSORGBOTTOM
 10
0.0
 20
0.0
 30
0.0
  9
$UCSORGLEFT
 10
0.0
 20
0.0
 30
0.0
  9
$UCSORGRIGHT
 10
0.0
 20
0.0
 30
0.0
  9
$UCSORGFRONT
 10
0.0
 20
0.0
 30
0.0
  9
$UCSORGBACK
 10
0.0
 20
0.0
 30
0.0
  9
$PUCSBASE
  2

  9
$PUCSNAME
  2

  9
$PUCSORG
 10
0.0
 20
0.0
 30
0.0
  9
$PUCSXDIR
 10
1.0
 20
0.0
 30
0.0
  9
$PUCSYDIR
 10
0.0
 20
1.0
 30
0.0
  9
$PUCSORTHOREF
  2

  9
$PUCSORTHOVIEW
 70
         0
  9
$PUCSORGTOP
 10
0.0
 20
0.0
 30
0.0
  9
$PUCSORGBOTTOM
 10
0.0
 20
0.0
 30
0.0
  9
$PUCSORGLEFT
 10
0.0
 20
0.0
 30
0.0
  9
$PUCSORGRIGHT
 10
0.0
 20
0.0
 30
0.0
  9
$PUCSORGFRONT
 10
0.0
 20
0.0
 30
0.0
  9
$PUCSORGBACK
 10
0.0
 20
0.0
 30
0.0
  9
$USERI1
 70
         0
  9
$USERI2
 70
         0
  9
$USERI3
 70
         0
  9
$USERI4
 70
         0
  9
$USERI5
 70
         0
  9
$USERR1
 40
0.0
  9
$USERR2
 40
0.0
  9
$USERR3
 40
0.0
  9
$USERR4
 40
0.0
  9
$USERR5
 40
0.0
  9
$WORLDVIEW
 70
         1
  9
$SHADEDGE
 70
         3
  9
$SHADEDIF
 70
        70
  9
$TILEMODE
 70
         1
  9
$MAXACTVP
 70
        16
  9
$PINSBASE
 10
0.0
 20
0.0
 30
0.0
  9
$PLIMCHECK
 70
         0
  9
$PEXTMIN
 10
1.0000000000E+20
 20
1.0000000000E+20
 30
1.0000000000E+20
  9
$PEXTMAX
 10
-1.0000000000E+20
 20
-1.0000000000E+20
 30
-1.0000000000E+20
  9
$PLIMMIN
 10
0.0
 20
0.0
  9
$PLIMMAX
 10
12.0
 20
9.0
  9
$UNITMODE
 70
         0
  9
$VISRETAIN
 70
         0
  9
$PLINEGEN
 70
         1
  9
$PSLTSCALE
 70
         0
  9
$TREEDEPTH
 70
      3020
  9
$CMLSTYLE
  2
Standard
  9
$CMLJUST
 70
         0
  9
$CMLSCALE
 40
1.0
  9
$PROXYGRAPHICS
 70
         0
  9
$MEASUREMENT
 70
         1
  9
$CELWEIGHT
370
         0
  9
$ENDCAPS
280
         0
  9
$JOINSTYLE
280
         0
  9
$LWDISPLAY
290
         0
  9
$INSUNITS
 70
         0
  9
$HYPERLINKBASE
  1

  9
$STYLESHEET
  1

  9
$XEDIT
290
         1
  9
$CEPSNTYPE
380
         0
  9
$PSTYLEMODE
290
         1
  9
$FINGERPRINTGUID
  2

  9
$VERSIONGUID
  2

  9
$EXTNAMES
290
         1
  9
$PSVPSCALE
 40
0.0
  0
ENDSEC
  0
SECTION
  2
CLASSES
  0
CLASS
  1
LWPOLYLINE
  2
AcDbPolyline
  3
AutoCAD 2000
 90
        0
280
         0
281
         1
  0
CLASS
  1
IMAGE
  2
AcDbRasterImage
  3
ISM
 90
      127
280
         0
281
         1
  0
CLASS
  1
OLE2FRAME
  2
AcDbOle2Frame
  3
AutoCAD 2000
 90
        0
280
         0
281
         1
  0
CLASS
  1
HATCH
  2
AcDbHatch
  3
AutoCAD 2000
 90
        0
280
         0
281
         1
  0
CLASS
  1
DICTIONARYVAR
  2
AcDbDictionaryVar
  3
AutoCAD 2000
 90
        0
280
         0
281
         0
  0
CLASS
  1
RASTERVARIABLES
  2
AcDbRasterVariables
  3
ISM
 90
        0
280
         0
281
         0
  0
CLASS
  1
IMAGEDEF
  2
AcDbRasterImageDef
  3
ISM
 90
        0
280
         0
281
         0
  0
CLASS
  1
IMAGEDEF_REACTOR
  2
AcDbRasterImageDefReactor
  3
ISM
 90
        1
280
         0
281
         0
  0
CLASS
  1
IDBUFFER
  2
AcDbIdBuffer
  3
AutoCAD 2000
 90
        0
280
         0
281
         0
  0
CLASS
  1
SPATIAL_FILTER
  2
AcDbSpatialFilter
  3
AutoCAD 2000
 90
        0
280
         0
281
         0
  0
CLASS
  1
XRECORD
  2
AcDbXrecord
  3
AutoCAD 2000
 90
        0
280
         0
281
         0
  0
CLASS
  1
SORTENTSTABLE
  2
AcDbSortentsTable
  3
AutoCAD 2000
 90
        0
280
         0
281
         0
  0
CLASS
  1
LAYER_INDEX
  2
AcDbLayerIndex
  3
AutoCAD 2000
 90
        0
280
         0
281
         0
  0
CLASS
  1
SPATIAL_INDEX
  2
AcDbSpatialIndex
  3
AutoCAD 2000
 90
        0
280
         0
281
         0
  0
CLASS
  1
OBJECT_PTR
  2
CAseDLPNTableRecord
  3
"ASE-LPNTableRecord"
 90
        1
280
         0
281
         0
  0
CLASS
  1
LAYOUT
  2
AcDbLayout
  3
AutoCAD 2000
 90
        0
280
         0
281
         0
  0
CLASS
  1
PLOTSETTINGS
  2
AcDbPlotSettings
  3
AutoCAD 2000
 90
        0
280
         0
281
         0
  0
CLASS
  1
ACDBDICTIONARYWDFLT
  2
AcDbDictionaryWithDefault
  3
AutoCAD 2000
 90
        0
280
         0
281
         0
  0
CLASS
  1
ACDBPLACEHOLDER
  2
AcDbPlaceHolder
  3
AutoCAD 2000
 90
        0
280
         0
281
         0
  0
CLASS
  1
VBA_PROJECT
  2
AcDbVbaProject
  3
acadvba
 90
        0
280
         0
281
         0
  0
CLASS
  1
WIPEOUT
  2
AcDbWipeout
  3
WipeOut|AutoCAD Express Tool|expresstools@autodesk.com
 90
      127
280
         0
281
         1
  0
CLASS
  1
WIPEOUTVARIABLES
  2
AcDbWipeoutVariables
  3
WipeOut|AutoCAD Express Tool|expresstools@autodesk.com
 90
        0
280
         0
281
         0
  0
CLASS
  1
RTEXT
  2
RText
  3
RText|AutoCAD Express Tool|expresstools@autodesk.com
 90
        0
280
         0
281
         1
  0
CLASS
  1
ARCALIGNEDTEXT
  2
AcDbArcAlignedText
  3
ATEXT|AutoCAD Express Tool|expresstools@autodesk.com
 90
        0
280
         0
281
         1
  0
ENDSEC
  0
SECTION
  2
TABLES
  0
TABLE
  2
VPORT
  5
7
100
AcDbSymbolTable
 70
         1
  0
VPORT
  5
15
100
AcDbSymbolTableRecord
100
AcDbViewportTableRecord
  2
*ACTIVE
 70
         0
 10
0.0
 20
0.0
 11
1.0
 21
1.0
 12
105.0
 22
148.5
 13
0.0
 23
0.0
 14
1.0
 24
1.0
 15
0.0
 25
0.0
 16
0.0
 26
0.0
 36
1.0
 17
0.0
 27
0.0
 37
0.0
 40
231.2943892345
 41
1.0
 42
50.0
 43
0.0
 44
0.0
 50
0.0
 51
0.0
 71
         0
 72
       100
 73
         1
 74
         1
 75
         0
 76
         0
 77
         0
 78
         0
281
         0
 65
         0
110
0.0
120
0.0
130
0.0
111
1.0
121
0.0
131
0.0
112
0.0
122
1.0
132
0.0
345
0
346
0
 79
         0
146
0.0
  0
ENDTAB
  0
TABLE
  2
LTYPE
  5
4
100
AcDbSymbolTable
 70
        12
  0
LTYPE
  5
11
100
AcDbSymbolTableRecord
100
AcDbLinetypeTableRecord
  2
ByBlock
 70
        64
  3

 72
        65
 73
         0
 40
0.0
  0
LTYPE
  5
12
100
AcDbSymbolTableRecord
100
AcDbLinetypeTableRecord
  2
ByLayer
 70
        64
  3

 72
        65
 73
         0
 40
0.0
  0
LTYPE
  5
13
100
AcDbSymbolTableRecord
100
AcDbLinetypeTableRecord
  2
CONTINUOUS
 70
        64
  3
Solid Line
 72
        65
 73
         0
 40
0.0
  0
LTYPE
  5
24
100
AcDbSymbolTableRecord
100
AcDbLinetypeTableRecord
  2
DOT
 70
        64
  3
. . . . . . . . . . . . . . . . . . . . . . 
 72
        65
 73
         2
 40
0.25
 49
0.0
 74
         0
 49
-0.25
 74
         0
  0
LTYPE
  5
25
100
AcDbSymbolTableRecord
100
AcDbLinetypeTableRecord
  2
HIDDEN
 70
         0
  3
_ _ _ _ _ _ _ _ _ _ _ _ _ _ _ _ _ _ _ _ _ _ _
 72
        65
 73
         2
 40
0.375
 49
0.25
 74
         0
 49
-0.125
 74
         0
  0
LTYPE
  5
26
100
AcDbSymbolTableRecord
100
AcDbLinetypeTableRecord
  2
DASHDOT
 70
         0
  3
__ . __ . __ . __ . __ . __ . __ . __ . __ . __
 72
        65
 73
         4
 40
1.0
 49
0.5
 74
         0
 49
-0.25
 74
         0
 49
0.0
 74
         0
 49
-0.25
 74
         0
  0
LTYPE
  5
27
100
AcDbSymbolTableRecord
100
AcDbLinetypeTableRecord
  2
DIVIDE
 70
         0
  3
__ . . __ . . __ . . __ . . __ . . __ . . __
 72
        65
 73
         6
 40
1.25
 49
0.5
 74
         0
 49
-0.25
 74
         0
 49
0.0
 74
         0
 49
-0.25
 74
         0
 49
0.0
 74
         0
 49
-0.25
 74
         0
  0
LTYPE
  5
28
100
AcDbSymbolTableRecord
100
AcDbLinetypeTableRecord
  2
DASHED
 70
         0
  3
__ __ __ __ __ __ __ __ __ __ __ __ __ __ __
 72
        65
 73
         2
 40
0.75
 49
0.5
 74
         0
 49
-0.25
 74
         0
  0
LTYPE
  5
29
100
AcDbSymbolTableRecord
100
AcDbLinetypeTableRecord
  2
BORDER
 70
         0
  3
__ __ . __ __ . __ __ . __ __ . __ __ .
 72
        65
 73
         6
 40
1.75
 49
0.5
 74
         0
 49
-0.25
 74
         0
 49
0.5
 74
         0
 49
-0.25
 74
         0
 49
0.0
 74
         0
 49
-0.25
 74
         0
  0
LTYPE
  5
2A
100
AcDbSymbolTableRecord
100
AcDbLinetypeTableRecord
  2
CENTER
 70
         0
  3
____ _ ____ _ ____ _ ____ _ ____ _ ____
 72
        65
 73
         4
 40
2.0
 49
1.25
 74
         0
 49
-0.25
 74
         0
 49
0.25
 74
         0
 49
-0.25
 74
         0
  0
LTYPE
  5
2B
100
AcDbSymbolTableRecord
100
AcDbLinetypeTableRecord
  2
DOT2
 70
         0
  3
........................................
 72
        65
 73
         2
 40
0.125
 49
0.0
 74
         0
 49
-0.125
 74
         0
  0
LTYPE
  5
2C
100
AcDbSymbolTableRecord
100
AcDbLinetypeTableRecord
  2
PHANTOM
 70
         0
  3
______  __  __  ______  __  __  ______
 72
        65
 73
         6
 40
2.5
 49
1.25
 74
         0
 49
-0.25
 74
         0
 49
0.25
 74
         0
 49
-0.25
 74
         0
 49
0.25
 74
         0
 49
-0.25
 74
         0
  0
ENDTAB
  0
TABLE
  2
LAYER
  5
2
100
AcDbSymbolTable
 70
        64
  0
LAYER
  5
14
100
AcDbSymbolTableRecord
100
AcDbLayerTableRecord
  2
0
 70
         0
 62
         7
  6
CONTINUOUS
290
         1
370
        -3
390
1D
  0
LAYER
  5
33
100
AcDbSymbolTableRecord
100
AcDbLayerTableRecord
  2
BESCHRIFTUNG
 70
        64
 62
         7
  6
CONTINUOUS
290
         1
370
        25
390
1D
  0
LAYER
  5
34
100
AcDbSymbolTableRecord
100
AcDbLayerTableRecord
  2
SCHRAFFUR
 70
        64
 62
         7
  6
CONTINUOUS
290
         1
370
        25
390
1D
  0
LAYER
  5
35
100
AcDbSymbolTableRecord
100
AcDbLayerTableRecord
  2
MASSTEXTE
 70
        64
 62
       212
  6
CONTINUOUS
290
         1
370
        25
390
1D
  0
LAYER
  5
36
100
AcDbSymbolTableRecord
100
AcDbLayerTableRecord
  2
MASSLINIEN
 70
        64
 62
       172
  6
CONTINUOUS
290
         1
370
        25
390
1D
  0
LAYER
  5
37
100
AcDbSymbolTableRecord
100
AcDbLayerTableRecord
  2
MASSGRENZEN
 70
        64
 62
       172
  6
CONTINUOUS
290
         1
370
        25
390
1D
  0
LAYER
  5
38
100
AcDbSymbolTableRecord
100
AcDbLayerTableRecord
  2
TOLERANZEN
 70
        64
 62
       212
  6
CONTINUOUS
290
         1
370
         0
390
1D
  0
LAYER
  5
39
100
AcDbSymbolTableRecord
100
AcDbLayerTableRecord
  2
BEMASSUNG
 70
        64
 62
         7
  6
CONTINUOUS
290
         1
370
        25
390
1D
  0
LAYER
  5
3A
100
AcDbSymbolTableRecord
100
AcDbLayerTableRecord
  2
HILFSLINIEN
 70
        64
 62
         3
  6
CONTINUOUS
290
         1
370
         0
390
1D
  0
LAYER
  5
3B
100
AcDbSymbolTableRecord
100
AcDbLayerTableRecord
  2
MITTELLINIEN
 70
        64
 62
         5
  6
DASHDOT
290
         1
370
        25
390
1D
  0
LAYER
  5
3C
100
AcDbSymbolTableRecord
100
AcDbLayerTableRecord
  2
BESCHRIFTUNG00
 70
        64
 62
         7
  6
CONTINUOUS
290
         1
370
        25
390
1D
  0
LAYER
  5
3D
100
AcDbSymbolTableRecord
100
AcDbLayerTableRecord
  2
BESCHRIFTUNG0
 70
        64
 62
         7
  6
CONTINUOUS
290
         1
370
        25
390
1D
  0
LAYER
  5
3E
100
AcDbSymbolTableRecord
100
AcDbLayerTableRecord
  2
GEWINDELINIEN
 70
        64
 62
       212
  6
CONTINUOUS
290
         1
370
        25
390
1D
  0
LAYER
  5
3F
100
AcDbSymbolTableRecord
100
AcDbLayerTableRecord
  2
UNSICHTBARE
 70
        64
 62
        92
  6
DASHED
290
         1
370
        25
390
1D
  0
LAYER
  5
40
100
AcDbSymbolTableRecord
100
AcDbLayerTableRecord
  2
VERDECKTE
 70
        64
 62
        92
  6
DASHED
290
         1
370
        25
390
1D
  0
LAYER
  5
41
100
AcDbSymbolTableRecord
100
AcDbLayerTableRecord
  2
LICHTKANTEN
 70
        64
 62
         8
  6
CONTINUOUS
290
         1
370
        25
390
1D
  0
LAYER
  5
42
100
AcDbSymbolTableRecord
100
AcDbLayerTableRecord
  2
SCHNITTVERLAUF
 70
        64
 62
        34
  6
DASHDOT
290
         1
370
        70
390
1D
  0
LAYER
  5
43
100
AcDbSymbolTableRecord
100
AcDbLayerTableRecord
  2
KENNZEICHNUNG
 70
        64
 62
         7
  6
CONTINUOUS
290
         1
370
         0
390
1D
  0
LAYER
  5
44
100
AcDbSymbolTableRecord
100
AcDbLayerTableRecord
  2
PFEILE
 70
        64
 62
         7
  6
CONTINUOUS
290
         1
370
        70
390
1D
  0
LAYER
  5
45
100
AcDbSymbolTableRecord
100
AcDbLayerTableRecord
  2
SCHNITTDARSTELLUNG
 70
        64
 62
         7
  6
CONTINUOUS
290
         1
370
         0
390
1D
  0
LAYER
  5
46
100
AcDbSymbolTableRecord
100
AcDbLayerTableRecord
  2
2201_1 HEBELBOCK
 70
        64
 62
         7
  6
CONTINUOUS
290
         1
370
        13
390
1D
  0
LAYER
  5
47
100
AcDbSymbolTableRecord
100
AcDbLayerTableRecord
  2
2201_2___4_7 HEBEL UMGESCHLAGEN
 70
        64
 62
        34
  6
DASHED
290
         1
370
        13
390
1D
  0
LAYER
  5
48
100
AcDbSymbolTableRecord
100
AcDbLayerTableRecord
  2
2201_2___4_7 HEBEL
 70
        64
 62
        34
  6
CONTINUOUS
290
         1
370
        13
390
1D
  0
LAYER
  5
49
100
AcDbSymbolTableRecord
100
AcDbLayerTableRecord
  2
2201_5 RASTE AUSGEKLINKT
 70
        64
 62
        94
  6
DASHED
290
         1
370
        13
390
1D
  0
LAYER
  5
4A
100
AcDbSymbolTableRecord
100
AcDbLayerTableRecord
  2
2201_6 RASTENGEWICHT
 70
        64
 62
       135
  6
CONTINUOUS
290
         1
370
        13
390
1D
  0
LAYER
  5
4B
100
AcDbSymbolTableRecord
100
AcDbLayerTableRecord
  2
2201_5 RASTE
 70
        64
 62
       114
  6
CONTINUOUS
290
         1
370
        13
390
1D
  0
LAYER
  5
4C
100
AcDbSymbolTableRecord
100
AcDbLayerTableRecord
  2
2201__ SIGNALHEBELBOCK
 70
        64
 62
         7
  6
CONTINUOUS
290
         1
370
         0
390
1D
  0
LAYER
  5
4D
100
AcDbSymbolTableRecord
100
AcDbLayerTableRecord
  2
2052_5_6 BESATZUNG
 70
        64
 62
         8
  6
CONTINUOUS
290
         1
370
        18
390
1D
  0
LAYER
  5
4E
100
AcDbSymbolTableRecord
100
AcDbLayerTableRecord
  2
2052_3 RIEGEL UMGESPERRT
 70
        64
 62
       230
  6
DASHED
290
         1
370
        18
390
1D
  0
LAYER
  5
4F
100
AcDbSymbolTableRecord
100
AcDbLayerTableRecord
  2
2052_3 RIEGEL
 70
        64
 62
       230
  6
CONTINUOUS
290
         1
370
        18
390
1D
  0
LAYER
  5
50
100
AcDbSymbolTableRecord
100
AcDbLayerTableRecord
  2
2052_4 ZUHALTUNG ANGEHOBEN
 70
        64
 62
        94
  6
DASHED
290
         1
370
        18
390
1D
  0
LAYER
  5
51
100
AcDbSymbolTableRecord
100
AcDbLayerTableRecord
  2
2052_4 ZUHALTUNG
 70
        64
 62
        94
  6
CONTINUOUS
290
         1
370
        18
390
1D
  0
LAYER
  5
52
100
AcDbSymbolTableRecord
100
AcDbLayerTableRecord
  2
2052_1_2_7_8 GEHÄUSE
 70
        64
 62
         7
  6
CONTINUOUS
290
         1
370
        18
390
1D
  0
LAYER
  5
53
100
AcDbSymbolTableRecord
100
AcDbLayerTableRecord
  2
2052__ SCHLOSS MIT DORN
 70
        64
 62
         7
  6
CONTINUOUS
290
         1
370
         0
390
1D
  0
LAYER
  5
54
100
AcDbSymbolTableRecord
100
AcDbLayerTableRecord
  2
2053_1-4 SCHLÜSSEL
 70
        64
 62
       190
  6
CONTINUOUS
290
         1
370
        18
390
1D
  0
LAYER
  5
55
100
AcDbSymbolTableRecord
100
AcDbLayerTableRecord
  2
2053__ SCHLÜSSEL
 70
        64
 62
         7
  6
CONTINUOUS
290
         1
370
         0
390
1D
  0
LAYER
  5
56
100
AcDbSymbolTableRecord
100
AcDbLayerTableRecord
  2
KONSTRUKTION
 70
        64
 62
         7
  6
CONTINUOUS
290
         1
370
         0
390
1D
  0
LAYER
  5
57
100
AcDbSymbolTableRecord
100
AcDbLayerTableRecord
  2
2201_1L
 70
        64
 62
        30
  6
CONTINUOUS
290
         1
370
        13
390
1D
  0
LAYER
  5
58
100
AcDbSymbolTableRecord
100
AcDbLayerTableRecord
  2
2201_2P
 70
        64
 62
        30
  6
CONTINUOUS
290
         1
370
        13
390
1D
  0
LAYER
  5
59
100
AcDbSymbolTableRecord
100
AcDbLayerTableRecord
  2
2201_3P
 70
        64
 62
        30
  6
CONTINUOUS
290
         1
370
        13
390
1D
  0
LAYER
  5
5A
100
AcDbSymbolTableRecord
100
AcDbLayerTableRecord
  2
2201_4P
 70
        64
 62
        30
  6
CONTINUOUS
290
         1
370
        13
390
1D
  0
LAYER
  5
5B
100
AcDbSymbolTableRecord
100
AcDbLayerTableRecord
  2
2201_5P
 70
        64
 62
        30
  6
CONTINUOUS
290
         1
370
        13
390
1D
  0
LAYER
  5
5C
100
AcDbSymbolTableRecord
100
AcDbLayerTableRecord
  2
2201_6P
 70
        64
 62
        30
  6
CONTINUOUS
290
         1
370
        13
390
1D
  0
LAYER
  5
5D
100
AcDbSymbolTableRecord
100
AcDbLayerTableRecord
  2
2201_7P
 70
        64
 62
        30
  6
CONTINUOUS
290
         1
370
        13
390
1D
  0
LAYER
  5
5E
100
AcDbSymbolTableRecord
100
AcDbLayerTableRecord
  2
2201_8P
 70
        64
 62
        30
  6
CONTINUOUS
290
         1
370
        13
390
1D
  0
LAYER
  5
5F
100
AcDbSymbolTableRecord
100
AcDbLayerTableRecord
  2
2201_9P
 70
        64
 62
        30
  6
CONTINUOUS
290
         1
370
        13
390
1D
  0
LAYER
  5
60
100
AcDbSymbolTableRecord
100
AcDbLayerTableRecord
  2
2201_0T
 70
        64
 62
        30
  6
CONTINUOUS
290
         1
370
        13
390
1D
  0
LAYER
  5
61
100
AcDbSymbolTableRecord
100
AcDbLayerTableRecord
  2
2201_1R
 70
        64
 62
       230
  6
CONTINUOUS
290
         1
370
        13
390
1D
  0
LAYER
  5
62
100
AcDbSymbolTableRecord
100
AcDbLayerTableRecord
  2
2201_0A
 70
        64
 62
       230
  6
CONTINUOUS
290
         1
370
        13
390
1D
  0
LAYER
  5
63
100
AcDbSymbolTableRecord
100
AcDbLayerTableRecord
  2
2201_7V
 70
        64
 62
        30
  6
CONTINUOUS
290
         1
370
        13
390
1D
  0
LAYER
  5
64
100
AcDbSymbolTableRecord
100
AcDbLayerTableRecord
  2
2201___ HEBELBOCK
 70
        64
 62
       190
  6
DASHDOT
290
         1
370
         0
390
1D
  0
LAYER
  5
65
100
AcDbSymbolTableRecord
100
AcDbLayerTableRecord
  2
2208_1L
 70
        64
 62
        14
  6
CONTINUOUS
290
         1
370
        13
390
1D
  0
LAYER
  5
66
100
AcDbSymbolTableRecord
100
AcDbLayerTableRecord
  2
2208_2R
 70
        64
 62
        14
  6
CONTINUOUS
290
         1
370
        13
390
1D
  0
LAYER
  5
67
100
AcDbSymbolTableRecord
100
AcDbLayerTableRecord
  2
2208_3T
 70
        64
 62
        14
  6
CONTINUOUS
290
         1
370
        13
390
1D
  0
LAYER
  5
68
100
AcDbSymbolTableRecord
100
AcDbLayerTableRecord
  2
2208___ HEBELBOCK GESAMT
 70
        64
 62
       230
  6
CONTINUOUS
290
         1
370
        13
390
1D
  0
LAYER
  5
69
100
AcDbSymbolTableRecord
100
AcDbLayerTableRecord
  2
2206_1L
 70
        64
 62
        14
  6
CONTINUOUS
290
         1
370
        13
390
1D
  0
LAYER
  5
6A
100
AcDbSymbolTableRecord
100
AcDbLayerTableRecord
  2
2206_3T
 70
        64
 62
        54
  6
CONTINUOUS
290
         1
370
        13
390
1D
  0
LAYER
  5
6B
100
AcDbSymbolTableRecord
100
AcDbLayerTableRecord
  2
2206_2R
 70
        64
 62
        14
  6
CONTINUOUS
290
         1
370
        13
390
1D
  0
LAYER
  5
6C
100
AcDbSymbolTableRecord
100
AcDbLayerTableRecord
  2
2206___ HEBELBOCK EINZELTEILE
 70
        64
 62
       230
  6
CONTINUOUS
290
         1
370
        13
390
1D
  0
LAYER
  5
6D
100
AcDbSymbolTableRecord
100
AcDbLayerTableRecord
  2
1088_1P
 70
        64
 62
        30
  6
CONTINUOUS
290
         1
370
         0
390
1D
  0
LAYER
  5
6E
100
AcDbSymbolTableRecord
100
AcDbLayerTableRecord
  2
108____ VORLAGEN
 70
        64
 62
       230
  6
CONTINUOUS
290
         1
370
        13
390
1D
  0
LAYER
  5
6F
100
AcDbSymbolTableRecord
100
AcDbLayerTableRecord
  2
PFADE
 70
        64
 62
        30
  6
CONTINUOUS
290
         1
370
        13
390
1D
  0
LAYER
  5
70
100
AcDbSymbolTableRecord
100
AcDbLayerTableRecord
  2
_TEMP
 70
        64
 62
         7
  6
CONTINUOUS
290
         1
370
        50
390
1D
  0
LAYER
  5
71
100
AcDbSymbolTableRecord
100
AcDbLayerTableRecord
  2
STANDARD
 70
        64
 62
         7
  6
CONTINUOUS
290
         1
370
         0
390
1D
  0
ENDTAB
  0
TABLE
  2
STYLE
  5
3
100
AcDbSymbolTable
 70
         7
  0
STYLE
  5
17
100
AcDbSymbolTableRecord
100
AcDbTextStyleTableRecord
  2
Standard
 70
         0
 40
0.0
 41
1.0
 50
0.0
 71
         0
 42
0.0
  3
txt
  4

  0
STYLE
  5
2D
100
AcDbSymbolTableRecord
100
AcDbTextStyleTableRecord
  2
CADdy
 70
         0
 40
0.0
 41
1.0
 50
0.0
 71
         0
 42
3.5
  3
txt.shx
  4

  0
STYLE
  5
2E
100
AcDbSymbolTableRecord
100
AcDbTextStyleTableRecord
  2
Arial
 70
         0
 40
0.0
 41
1.0
 50
0.0
 71
         0
 42
3.5
  3
arial.ttf
  4

1001
ACAD
1000
Arial
1071
       34
  0
STYLE
  5
2F
100
AcDbSymbolTableRecord
100
AcDbTextStyleTableRecord
  2
Isonorm
 70
         0
 40
0.0
 41
1.0
 50
0.0
 71
         0
 42
3.5
  3
txt.shx
  4

  0
STYLE
  5
30
100
AcDbSymbolTableRecord
100
AcDbTextStyleTableRecord
  2
Tahoma
 70
         0
 40
0.0
 41
1.0
 50
0.0
 71
         0
 42
3.5
  3
tahoma.ttf
  4

1001
ACAD
1000
Tahoma
1071
       34
  0
STYLE
  5
31
100
AcDbSymbolTableRecord
100
AcDbTextStyleTableRecord
  2
Microsoft Sans Serif
 70
         0
 40
0.0
 41
1.0
 50
0.0
 71
         0
 42
3.5
  3
micross.ttf
  4

1001
ACAD
1000
Microsoft Sans Serif
1071
       34
  0
STYLE
  5
32
100
AcDbSymbolTableRecord
100
AcDbTextStyleTableRecord
  2
Arial Rounded MT Bold
 70
         0
 40
0.0
 41
1.0
 50
0.0
 71
         0
 42
3.5
  3
txt.shx
  4

  0
ENDTAB
  0
TABLE
  2
VIEW
  5
5
100
AcDbSymbolTable
 70
         0
  0
ENDTAB
  0
TABLE
  2
UCS
  5
6
100
AcDbSymbolTable
 70
         0
  0
ENDTAB
  0
TABLE
  2
APPID
  5
8
100
AcDbSymbolTable
 70
         1
  0
APPID
  5
16
100
AcDbSymbolTableRecord
100
AcDbRegAppTableRecord
  2
ACAD
 70
        64
  0
ENDTAB
  0
TABLE
  2
DIMSTYLE
  5
9
100
AcDbSymbolTable
 70
         1
100
AcDbDimStyleTable
 71
         0
  0
DIMSTYLE
105
18
100
AcDbSymbolTableRecord
100
AcDbDimStyleTableRecord
  2
Standard
 70
         0
  3

  4

 40
1.0
 41
0.18
 42
0.0625
 43
0.38
 44
0.18
 45
0.0
 46
0.0
 47
0.0
 48
0.0
 71
         0
 72
         0
 73
         1
 74
         1
 75
         0
 76
         0
 77
         0
 78
         0
 79
         0
140
0.18
141
0.09
142
0.0
143
25.4
144
1.0
145
0.0
146
1.0
147
0.09
148
0.0
170
         0
171
         2
172
         0
173
         0
174
         0
175
         0
176
         0
177
         0
178
         0
179
         0
271
         4
272
         4
273
         2
274
         2
275
         0
276
         0
277
         2
278
        46
279
         0
280
         0
281
         0
282
         0
283
         1
284
         0
285
         0
286
         0
288
         0
289
         3
340
17
341
0
342
0
343
0
344
0
371
        -2
372
        -2
  0
ENDTAB
  0
TABLE
  2
BLOCK_RECORD
  5
1
100
AcDbSymbolTable
 70
        18
  0
BLOCK_RECORD
  5
A
100
AcDbSymbolTableRecord
100
AcDbBlockTableRecord
  2
*MODEL_SPACE
340
20
  0
BLOCK_RECORD
  5
B
100
AcDbSymbolTableRecord
100
AcDbBlockTableRecord
  2
*PAPER_SPACE
340
21
  0
BLOCK_RECORD
  5
72
100
AcDbSymbolTableRecord
100
AcDbBlockTableRecord
  2
D201497088
340
0
102
{BLKREFS
331
16F
102
}
  0
BLOCK_RECORD
  5
7D
100
AcDbSymbolTableRecord
100
AcDbBlockTableRecord
  2
D201496832
340
0
102
{BLKREFS
331
1A1
102
}
  0
BLOCK_RECORD
  5
86
100
AcDbSymbolTableRecord
100
AcDbBlockTableRecord
  2
D201457152
340
0
102
{BLKREFS
331
1A2
102
}
  0
BLOCK_RECORD
  5
91
100
AcDbSymbolTableRecord
100
AcDbBlockTableRecord
  2
D201457408
340
0
102
{BLKREFS
331
1D4
102
}
  0
BLOCK_RECORD
  5
9C
100
AcDbSymbolTableRecord
100
AcDbBlockTableRecord
  2
D201441536
340
0
102
{BLKREFS
331
1D5
102
}
  0
BLOCK_RECORD
  5
A7
100
AcDbSymbolTableRecord
100
AcDbBlockTableRecord
  2
D201441792
340
0
102
{BLKREFS
331
221
102
}
  0
BLOCK_RECORD
  5
B0
100
AcDbSymbolTableRecord
100
AcDbBlockTableRecord
  2
D201442048
340
0
102
{BLKREFS
331
27C
102
}
  0
BLOCK_RECORD
  5
B9
100
AcDbSymbolTableRecord
100
AcDbBlockTableRecord
  2
D201442304
340
0
102
{BLKREFS
331
27E
102
}
  0
BLOCK_RECORD
  5
C2
100
AcDbSymbolTableRecord
100
AcDbBlockTableRecord
  2
D201442560
340
0
102
{BLKREFS
331
27F
102
}
  0
BLOCK_RECORD
  5
CB
100
AcDbSymbolTableRecord
100
AcDbBlockTableRecord
  2
D201442816
340
0
102
{BLKREFS
331
280
102
}
  0
BLOCK_RECORD
  5
D4
100
AcDbSymbolTableRecord
100
AcDbBlockTableRecord
  2
D201443072
340
0
102
{BLKREFS
331
281
102
}
  0
BLOCK_RECORD
  5
DD
100
AcDbSymbolTableRecord
100
AcDbBlockTableRecord
  2
D201443328
340
0
102
{BLKREFS
331
282
102
}
  0
BLOCK_RECORD
  5
E6
100
AcDbSymbolTableRecord
100
AcDbBlockTableRecord
  2
D201443584
340
0
102
{BLKREFS
331
283
102
}
  0
BLOCK_RECORD
  5
EF
100
AcDbSymbolTableRecord
100
AcDbBlockTableRecord
  2
D201443840
340
0
102
{BLKREFS
331
284
102
}
  0
BLOCK_RECORD
  5
F8
100
AcDbSymbolTableRecord
100
AcDbBlockTableRecord
  2
D201444096
340
0
102
{BLKREFS
331
285
102
}
  0
BLOCK_RECORD
  5
101
100
AcDbSymbolTableRecord
100
AcDbBlockTableRecord
  2
D296180224
340
0
102
{BLKREFS
331
2E6
102
}
  0
BLOCK_RECORD
  5
10A
100
AcDbSymbolTableRecord
100
AcDbBlockTableRecord
  2
D550418176
340
0
102
{BLKREFS
331
2E7
102
}
  0
BLOCK_RECORD
  5
115
100
AcDbSymbolTableRecord
100
AcDbBlockTableRecord
  2
_A315417472
340
0
102
{BLKREFS
331
31C
102
}
  0
ENDTAB
  0
ENDSEC
  0
SECTION
  2
BLOCKS
  0
BLOCK
  5
D
100
AcDbEntity
  8
0
390
0
100
AcDbBlockBegin
  2
*MODEL_SPACE
 70
         0
 10
0.0
 20
0.0
 30
0.0
  3
*MODEL_SPACE
  1

  0
ENDBLK
  5
E
100
AcDbEntity
  8
0
390
0
100
AcDbBlockEnd
  0
BLOCK
  5
F
100
AcDbEntity
 67
         1
  8
0
390
0
100
AcDbBlockBegin
  2
*PAPER_SPACE
 70
         0
 10
0.0
 20
0.0
 30
0.0
  3
*PAPER_SPACE
  1

  0
ENDBLK
  5
10
100
AcDbEntity
 67
         1
  8
0
390
0
100
AcDbBlockEnd
  0
BLOCK
  5
73
100
AcDbEntity
  8
BEMASSUNG
390
0
100
AcDbBlockBegin
  2
D201497088
 70
         0
 10
0.0
 20
0.0
 30
0.0
  3
D201497088
  1

  0
LINE
  5
74
100
AcDbEntity
  8
MASSLINIEN
390
0
 62
       172
100
AcDbLine
 10
37.2919787045
 20
136.6523949792
 30
0.0
 11
41.7919787045
 21
136.6523949792
 31
0.0
  0
LINE
  5
75
100
AcDbEntity
  8
MASSLINIEN
390
0
 62
       172
100
AcDbLine
 10
37.2919787045
 20
129.6022317393
 30
0.0
 11
37.2919787045
 21
138.6523949792
 31
0.0
  0
LINE
  5
76
100
AcDbEntity
  8
MASSLINIEN
390
0
 62
       172
100
AcDbLine
 10
41.7919787045
 20
129.6022317393
 30
0.0
 11
41.7919787045
 21
138.6523949792
 31
0.0
  0
LINE
  5
77
100
AcDbEntity
  8
MASSLINIEN
390
0
 62
       172
100
AcDbLine
 10
41.7919787045
 20
136.6523949792
 30
0.0
 11
54.5339812061
 21
136.6523949792
 31
0.0
  0
LINE
  5
78
100
AcDbEntity
  8
MASSLINIEN
390
0
 62
       172
100
AcDbLine
 10
37.2919787045
 20
136.6523949792
 30
0.0
 11
31.2533095363
 21
136.6523949792
 31
0.0
  0
SOLID
  5
79
100
AcDbEntity
  8
MASSGRENZEN
390
0
100
AcDbTrace
 10
37.2919787045
 20
136.6523949792
 30
0.0
 11
34.3176441204
 21
136.2608164025
 31
0.0
 12
34.3176441204
 22
137.0439735558
 32
0.0
 13
34.3176441204
 23
137.0439735558
 33
0.0
  0
SOLID
  5
7A
100
AcDbEntity
  8
MASSGRENZEN
390
0
100
AcDbTrace
 10
41.7919787045
 20
136.6523949792
 30
0.0
 11
44.7663132886
 21
137.0439735558
 31
0.0
 12
44.7663132886
 22
136.2608164025
 32
0.0
 13
44.7663132886
 23
136.2608164025
 33
0.0
  0
MTEXT
  5
7B
100
AcDbEntity
  8
MASSTEXTE
390
0
 62
       212
100
AcDbMText
 10
51.1373145394
 20
139.8363949792
 30
0.0
 40
3.0
 41
0.0
 71
         5
 72
         1
  1
\W1.135130;\A1;4.5
  7
Arial
 73
         0
 44
0.0
  0
ENDBLK
  5
7C
100
AcDbEntity
  8
0
390
0
100
AcDbBlockEnd
  0
BLOCK
  5
7E
100
AcDbEntity
  8
BEMASSUNG
390
0
100
AcDbBlockBegin
  2
D201496832
 70
         0
 10
0.0
 20
0.0
 30
0.0
  3
D201496832
  1

  0
LINE
  5
7F
100
AcDbEntity
  8
MASSLINIEN
390
0
 62
       172
100
AcDbLine
 10
101.584050408
 20
30.5382613308
 30
0.0
 11
161.584050408
 21
30.5382613308
 31
0.0
  0
LINE
  5
80
100
AcDbEntity
  8
MASSLINIEN
390
0
 62
       172
100
AcDbLine
 10
101.584050408
 20
51.1037525066
 30
0.0
 11
101.584050408
 21
28.5382613308
 31
0.0
  0
LINE
  5
81
100
AcDbEntity
  8
MASSLINIEN
390
0
 62
       172
100
AcDbLine
 10
161.584050408
 20
51.1037525066
 30
0.0
 11
161.584050408
 21
28.5382613308
 31
0.0
  0
SOLID
  5
82
100
AcDbEntity
  8
MASSGRENZEN
390
0
100
AcDbTrace
 10
101.584050408
 20
30.5382613308
 30
0.0
 11
104.5583849921
 21
30.9298399075
 31
0.0
 12
104.5583849921
 22
30.1466827541
 32
0.0
 13
104.5583849921
 23
30.1466827541
 33
0.0
  0
SOLID
  5
83
100
AcDbEntity
  8
MASSGRENZEN
390
0
100
AcDbTrace
 10
161.584050408
 20
30.5382613308
 30
0.0
 11
158.6097158238
 21
30.1466827541
 31
0.0
 12
158.6097158238
 22
30.9298399075
 32
0.0
 13
158.6097158238
 23
30.9298399075
 33
0.0
  0
MTEXT
  5
84
100
AcDbEntity
  8
MASSTEXTE
390
0
 62
       212
100
AcDbMText
 10
131.584050408
 20
33.7222613308
 30
0.0
 40
3.0
 41
0.0
 71
         5
 72
         1
  1
\W1.135145;\A1;60
  7
Arial
 73
         0
 44
0.0
  0
ENDBLK
  5
85
100
AcDbEntity
  8
0
390
0
100
AcDbBlockEnd
  0
BLOCK
  5
87
100
AcDbEntity
  8
BEMASSUNG
390
0
100
AcDbBlockBegin
  2
D201457152
 70
         0
 10
0.0
 20
0.0
 30
0.0
  3
D201457152
  1

  0
LINE
  5
88
100
AcDbEntity
  8
MASSLINIEN
390
0
 62
       172
100
AcDbLine
 10
70.6810409525
 20
50.8178217285
 30
0.0
 11
70.6810409525
 21
40.8178217285
 31
0.0
  0
LINE
  5
89
100
AcDbEntity
  8
MASSLINIEN
390
0
 62
       172
100
AcDbLine
 10
101.584050408
 20
50.8178217285
 30
0.0
 11
68.6810409525
 21
50.8178217285
 31
0.0
  0
LINE
  5
8A
100
AcDbEntity
  8
MASSLINIEN
390
0
 62
       172
100
AcDbLine
 10
101.584050408
 20
40.8178217285
 30
0.0
 11
68.6810409525
 21
40.8178217285
 31
0.0
  0
LINE
  5
8B
100
AcDbEntity
  8
MASSLINIEN
390
0
 62
       172
100
AcDbLine
 10
70.6810409525
 20
50.8178217285
 30
0.0
 11
70.6810409525
 21
62.2381575634
 31
0.0
  0
LINE
  5
8C
100
AcDbEntity
  8
MASSLINIEN
390
0
 62
       172
100
AcDbLine
 10
70.6810409525
 20
40.8178217285
 30
0.0
 11
70.6810409525
 21
34.7791525603
 31
0.0
  0
SOLID
  5
8D
100
AcDbEntity
  8
MASSGRENZEN
390
0
100
AcDbTrace
 10
70.6810409525
 20
50.8178217285
 30
0.0
 11
70.2894623758
 21
53.7921563126
 31
0.0
 12
71.0726195292
 22
53.7921563126
 32
0.0
 13
71.0726195292
 23
53.7921563126
 33
0.0
  0
SOLID
  5
8E
100
AcDbEntity
  8
MASSGRENZEN
390
0
100
AcDbTrace
 10
70.6810409525
 20
40.8178217285
 30
0.0
 11
71.0726195292
 21
37.8434871444
 31
0.0
 12
70.2894623758
 22
37.8434871444
 32
0.0
 13
70.2894623758
 23
37.8434871444
 33
0.0
  0
MTEXT
  5
8F
100
AcDbEntity
  8
MASSTEXTE
390
0
 62
       212
100
AcDbMText
 10
67.4970409525
 20
59.5023242301
 30
0.0
 40
3.0
 41
0.0
 71
         5
 72
         1
  1
\W1.135145;\A1;10
  7
Arial
 11
0.0
 21
1.0
 31
0.0
 73
         0
 44
0.0
  0
ENDBLK
  5
90
100
AcDbEntity
  8
0
390
0
100
AcDbBlockEnd
  0
BLOCK
  5
92
100
AcDbEntity
  8
BEMASSUNG
390
0
100
AcDbBlockBegin
  2
D201457408
 70
         0
 10
0.0
 20
0.0
 30
0.0
  3
D201457408
  1

  0
LINE
  5
93
100
AcDbEntity
  8
MASSLINIEN
390
0
 62
       172
100
AcDbLine
 10
104.395866672
 20
156.4599353285
 30
0.0
 11
106.7625884883
 21
153.5523206528
 31
0.0
  0
LINE
  5
94
100
AcDbEntity
  8
MASSLINIEN
390
0
 62
       172
100
AcDbLine
 10
98.1263892098
 20
151.3567456897
 30
0.0
 11
105.9469753459
 21
157.7224969632
 31
0.0
  0
LINE
  5
95
100
AcDbEntity
  8
MASSLINIEN
390
0
 62
       172
100
AcDbLine
 10
100.4286665105
 20
148.3966748745
 30
0.0
 11
108.3136971622
 21
154.8148822876
 31
0.0
  0
LINE
  5
96
100
AcDbEntity
  8
MASSLINIEN
390
0
 62
       172
100
AcDbLine
 10
104.395866672
 20
156.4599353285
 30
0.0
 11
94.6818210885
 21
168.3940381471
 31
0.0
  0
LINE
  5
97
100
AcDbEntity
  8
MASSLINIEN
390
0
 62
       172
100
AcDbLine
 10
106.7625884883
 20
153.5523206528
 30
0.0
 11
110.5746844966
 21
148.8690045898
 31
0.0
  0
SOLID
  5
98
100
AcDbEntity
  8
MASSGRENZEN
390
0
100
AcDbTrace
 10
104.395866672
 20
156.4599353285
 30
0.0
 11
102.2145358412
 21
158.5194973709
 31
0.0
 12
102.821916768
 22
159.0138894588
 32
0.0
 13
102.821916768
 23
159.0138894588
 33
0.0
  0
SOLID
  5
99
100
AcDbEntity
  8
MASSGRENZEN
390
0
100
AcDbTrace
 10
106.7625884883
 20
153.5523206528
 30
0.0
 11
108.9439193191
 21
151.4927586104
 31
0.0
 12
108.3365383923
 22
150.9983665225
 32
0.0
 13
108.3365383923
 23
150.9983665225
 33
0.0
  0
MTEXT
  5
9A
100
AcDbEntity
  8
MASSTEXTE
390
0
 62
       212
100
AcDbMText
 10
100.1305685218
 20
166.7437429467
 30
0.0
 40
3.0
 41
0.0
 71
         5
 72
         1
  1
\W1.135134;\A1;3.75
  7
Arial
 11
0.6312808174
 21
-0.775554337
 31
0.0
 73
         0
 44
0.0
  0
ENDBLK
  5
9B
100
AcDbEntity
  8
0
390
0
100
AcDbBlockEnd
  0
BLOCK
  5
9D
100
AcDbEntity
  8
BEMASSUNG
390
0
100
AcDbBlockBegin
  2
D201441536
 70
         0
 10
0.0
 20
0.0
 30
0.0
  3
D201441536
  1

  0
LINE
  5
9E
100
AcDbEntity
  8
MASSLINIEN
390
0
 62
       172
100
AcDbLine
 10
106.7625884883
 20
153.5523206528
 30
0.0
 11
108.9727089854
 21
150.8370971111
 31
0.0
  0
LINE
  5
9F
100
AcDbEntity
  8
MASSLINIEN
390
0
 62
       172
100
AcDbLine
 10
100.4286665105
 20
148.3966748745
 30
0.0
 11
108.3136971622
 21
154.8148822876
 31
0.0
  0
LINE
  5
A0
100
AcDbEntity
  8
MASSLINIEN
390
0
 62
       172
100
AcDbLine
 10
102.6387870076
 20
145.6814513328
 30
0.0
 11
110.5238176593
 21
152.0996587458
 31
0.0
  0
LINE
  5
A1
100
AcDbEntity
  8
MASSLINIEN
390
0
 62
       172
100
AcDbLine
 10
108.9727089854
 20
150.8370971111
 30
0.0
 11
117.0164907395
 21
140.9549818091
 31
0.0
  0
LINE
  5
A2
100
AcDbEntity
  8
MASSLINIEN
390
0
 62
       172
100
AcDbLine
 10
106.7625884883
 20
153.5523206528
 30
0.0
 11
102.9504924799
 21
158.2356367159
 31
0.0
  0
SOLID
  5
A3
100
AcDbEntity
  8
MASSGRENZEN
390
0
100
AcDbTrace
 10
106.7625884883
 20
153.5523206528
 30
0.0
 11
104.5812576575
 21
155.6118826952
 31
0.0
 12
105.1886385843
 22
156.1062747831
 32
0.0
 13
105.1886385843
 23
156.1062747831
 33
0.0
  0
SOLID
  5
A4
100
AcDbEntity
  8
MASSGRENZEN
390
0
100
AcDbTrace
 10
108.9727089854
 20
150.8370971111
 30
0.0
 11
111.1540398162
 21
148.7775350686
 31
0.0
 12
110.5466588894
 22
148.2831429808
 32
0.0
 13
110.5466588894
 23
148.2831429808
 33
0.0
  0
MTEXT
  5
A5
100
AcDbEntity
  8
MASSTEXTE
390
0
 62
       212
100
AcDbMText
 10
117.3416052388
 20
145.5992794962
 30
0.0
 40
3.0
 41
0.0
 71
         5
 72
         1
  1
\W1.135130;\A1;3.5
  7
Arial
 11
0.6312808174
 21
-0.775554337
 31
0.0
 73
         0
 44
0.0
  0
ENDBLK
  5
A6
100
AcDbEntity
  8
0
390
0
100
AcDbBlockEnd
  0
BLOCK
  5
A8
100
AcDbEntity
  8
BEMASSUNG
390
0
100
AcDbBlockBegin
  2
D201441792
 70
         0
 10
0.0
 20
0.0
 30
0.0
  3
D201441792
  1

  0
LINE
  5
A9
100
AcDbEntity
  8
MASSLINIEN
390
0
 62
       172
100
AcDbLine
 10
38.8912332265
 20
280.8074029187
 30
0.0
 11
87.1412332265
 21
280.8074029187
 31
0.0
  0
LINE
  5
AA
100
AcDbEntity
  8
MASSLINIEN
390
0
 62
       172
100
AcDbLine
 10
38.8912332265
 20
225.2574337727
 30
0.0
 11
38.8912332265
 21
282.8074029187
 31
0.0
  0
LINE
  5
AB
100
AcDbEntity
  8
MASSLINIEN
390
0
 62
       172
100
AcDbLine
 10
87.1412332265
 20
252.2574337727
 30
0.0
 11
87.1412332265
 21
282.8074029187
 31
0.0
  0
SOLID
  5
AC
100
AcDbEntity
  8
MASSGRENZEN
390
0
100
AcDbTrace
 10
38.8912332265
 20
280.8074029187
 30
0.0
 11
41.8655678106
 21
281.1989814954
 31
0.0
 12
41.8655678106
 22
280.4158243421
 32
0.0
 13
41.8655678106
 23
280.4158243421
 33
0.0
  0
SOLID
  5
AD
100
AcDbEntity
  8
MASSGRENZEN
390
0
100
AcDbTrace
 10
87.1412332265
 20
280.8074029187
 30
0.0
 11
84.1668986424
 21
280.4158243421
 31
0.0
 12
84.1668986424
 22
281.1989814954
 32
0.0
 13
84.1668986424
 23
281.1989814954
 33
0.0
  0
MTEXT
  5
AE
100
AcDbEntity
  8
MASSTEXTE
390
0
 62
       212
100
AcDbMText
 10
63.0162332265
 20
283.9914029187
 30
0.0
 40
3.0
 41
0.0
 71
         5
 72
         1
  1
\W1.135137;\A1;48.25
  7
Arial
 73
         0
 44
0.0
  0
ENDBLK
  5
AF
100
AcDbEntity
  8
0
390
0
100
AcDbBlockEnd
  0
BLOCK
  5
B1
100
AcDbEntity
  8
BEMASSUNG
390
0
100
AcDbBlockBegin
  2
D201442048
 70
         0
 10
0.0
 20
0.0
 30
0.0
  3
D201442048
  1

  0
LINE
  5
B2
100
AcDbEntity
  8
MASSLINIEN
390
0
 62
       172
100
AcDbLine
 10
107.8660260212
 20
-8.5045045533
 30
0.0
 11
107.8660260212
 21
-62.5045045533
 31
0.0
  0
LINE
  5
B3
100
AcDbEntity
  8
MASSLINIEN
390
0
 62
       172
100
AcDbLine
 10
92.0770841198
 20
-8.5045045533
 30
0.0
 11
109.8660260212
 21
-8.5045045533
 31
0.0
  0
LINE
  5
B4
100
AcDbEntity
  8
MASSLINIEN
390
0
 62
       172
100
AcDbLine
 10
92.0770841198
 20
-62.5045045533
 30
0.0
 11
109.8660260212
 21
-62.5045045533
 31
0.0
  0
SOLID
  5
B5
100
AcDbEntity
  8
MASSGRENZEN
390
0
100
AcDbTrace
 10
107.8660260212
 20
-8.5045045533
 30
0.0
 11
108.2576045979
 21
-11.4788391374
 31
0.0
 12
107.4744474445
 22
-11.4788391374
 32
0.0
 13
107.4744474445
 23
-11.4788391374
 33
0.0
  0
SOLID
  5
B6
100
AcDbEntity
  8
MASSGRENZEN
390
0
100
AcDbTrace
 10
107.8660260212
 20
-62.5045045533
 30
0.0
 11
107.4744474445
 21
-59.5301699692
 31
0.0
 12
108.2576045979
 22
-59.5301699692
 32
0.0
 13
108.2576045979
 23
-59.5301699692
 33
0.0
  0
MTEXT
  5
B7
100
AcDbEntity
  8
MASSTEXTE
390
0
 62
       212
100
AcDbMText
 10
104.6820260212
 20
-35.5045045533
 30
0.0
 40
3.0
 41
0.0
 71
         5
 72
         1
  1
\W1.135145;\A1;54
  7
Arial
 11
0.0
 21
1.0
 31
0.0
 73
         0
 44
0.0
  0
ENDBLK
  5
B8
100
AcDbEntity
  8
0
390
0
100
AcDbBlockEnd
  0
BLOCK
  5
BA
100
AcDbEntity
  8
BEMASSUNG
390
0
100
AcDbBlockBegin
  2
D201442304
 70
         0
 10
0.0
 20
0.0
 30
0.0
  3
D201442304
  1

  0
LINE
  5
BB
100
AcDbEntity
  8
MASSLINIEN
390
0
 62
       172
100
AcDbLine
 10
86.1409318879
 20
-65.7597383052
 30
0.0
 11
86.1409318879
 21
-119.7597383052
 31
0.0
  0
LINE
  5
BC
100
AcDbEntity
  8
MASSLINIEN
390
0
 62
       172
100
AcDbLine
 10
72.5391392675
 20
-65.7597383052
 30
0.0
 11
88.1409318879
 21
-65.7597383052
 31
0.0
  0
LINE
  5
BD
100
AcDbEntity
  8
MASSLINIEN
390
0
 62
       172
100
AcDbLine
 10
72.5391392675
 20
-119.7597383052
 30
0.0
 11
88.1409318879
 21
-119.7597383052
 31
0.0
  0
SOLID
  5
BE
100
AcDbEntity
  8
MASSGRENZEN
390
0
100
AcDbTrace
 10
86.1409318879
 20
-65.7597383052
 30
0.0
 11
86.5325104646
 21
-68.7340728893
 31
0.0
 12
85.7493533113
 22
-68.7340728893
 32
0.0
 13
85.7493533113
 23
-68.7340728893
 33
0.0
  0
SOLID
  5
BF
100
AcDbEntity
  8
MASSGRENZEN
390
0
100
AcDbTrace
 10
86.1409318879
 20
-119.7597383052
 30
0.0
 11
85.7493533113
 21
-116.785403721
 31
0.0
 12
86.5325104646
 22
-116.785403721
 32
0.0
 13
86.5325104646
 23
-116.785403721
 33
0.0
  0
MTEXT
  5
C0
100
AcDbEntity
  8
MASSTEXTE
390
0
 62
       212
100
AcDbMText
 10
82.9569318879
 20
-92.7597383052
 30
0.0
 40
3.0
 41
0.0
 71
         5
 72
         1
  1
\W1.135145;\A1;54
  7
Arial
 11
0.0
 21
1.0
 31
0.0
 73
         0
 44
0.0
  0
ENDBLK
  5
C1
100
AcDbEntity
  8
0
390
0
100
AcDbBlockEnd
  0
BLOCK
  5
C3
100
AcDbEntity
  8
BEMASSUNG
390
0
100
AcDbBlockBegin
  2
D201442560
 70
         0
 10
0.0
 20
0.0
 30
0.0
  3
D201442560
  1

  0
LINE
  5
C4
100
AcDbEntity
  8
MASSLINIEN
390
0
 62
       172
100
AcDbLine
 10
154.6302116979
 20
-162.0610459327
 30
0.0
 11
154.6302116979
 21
-224.0610459327
 31
0.0
  0
LINE
  5
C5
100
AcDbEntity
  8
MASSLINIEN
390
0
 62
       172
100
AcDbLine
 10
142.6314108394
 20
-162.0610459327
 30
0.0
 11
156.6302116979
 21
-162.0610459327
 31
0.0
  0
LINE
  5
C6
100
AcDbEntity
  8
MASSLINIEN
390
0
 62
       172
100
AcDbLine
 10
142.6314108394
 20
-224.0610459327
 30
0.0
 11
156.6302116979
 21
-224.0610459327
 31
0.0
  0
SOLID
  5
C7
100
AcDbEntity
  8
MASSGRENZEN
390
0
100
AcDbTrace
 10
154.6302116979
 20
-162.0610459327
 30
0.0
 11
155.0217902746
 21
-165.0353805168
 31
0.0
 12
154.2386331213
 22
-165.0353805168
 32
0.0
 13
154.2386331213
 23
-165.0353805168
 33
0.0
  0
SOLID
  5
C8
100
AcDbEntity
  8
MASSGRENZEN
390
0
100
AcDbTrace
 10
154.6302116979
 20
-224.0610459327
 30
0.0
 11
154.2386331213
 21
-221.0867113486
 31
0.0
 12
155.0217902746
 22
-221.0867113486
 32
0.0
 13
155.0217902746
 23
-221.0867113486
 33
0.0
  0
MTEXT
  5
C9
100
AcDbEntity
  8
MASSTEXTE
390
0
 62
       212
100
AcDbMText
 10
151.4462116979
 20
-193.0610459327
 30
0.0
 40
3.0
 41
0.0
 71
         5
 72
         1
  1
\W1.135145;\A1;62
  7
Arial
 11
0.0
 21
1.0
 31
0.0
 73
         0
 44
0.0
  0
ENDBLK
  5
CA
100
AcDbEntity
  8
0
390
0
100
AcDbBlockEnd
  0
BLOCK
  5
CC
100
AcDbEntity
  8
BEMASSUNG
390
0
100
AcDbBlockBegin
  2
D201442816
 70
         0
 10
0.0
 20
0.0
 30
0.0
  3
D201442816
  1

  0
LINE
  5
CD
100
AcDbEntity
  8
MASSLINIEN
390
0
 62
       172
100
AcDbLine
 10
104.1838066766
 20
-197.3267628632
 30
0.0
 11
104.1838066766
 21
-217.3267628632
 31
0.0
  0
LINE
  5
CE
100
AcDbEntity
  8
MASSLINIEN
390
0
 62
       172
100
AcDbLine
 10
90.1274227596
 20
-197.3267628632
 30
0.0
 11
106.1838066766
 21
-197.3267628632
 31
0.0
  0
LINE
  5
CF
100
AcDbEntity
  8
MASSLINIEN
390
0
 62
       172
100
AcDbLine
 10
90.1274227596
 20
-217.3267628632
 30
0.0
 11
106.1838066766
 21
-217.3267628632
 31
0.0
  0
SOLID
  5
D0
100
AcDbEntity
  8
MASSGRENZEN
390
0
100
AcDbTrace
 10
104.1838066766
 20
-197.3267628632
 30
0.0
 11
104.5753852532
 21
-200.3010974473
 31
0.0
 12
103.7922280999
 22
-200.3010974473
 32
0.0
 13
103.7922280999
 23
-200.3010974473
 33
0.0
  0
SOLID
  5
D1
100
AcDbEntity
  8
MASSGRENZEN
390
0
100
AcDbTrace
 10
104.1838066766
 20
-217.3267628632
 30
0.0
 11
103.7922280999
 21
-214.352428279
 31
0.0
 12
104.5753852532
 22
-214.352428279
 32
0.0
 13
104.5753852532
 23
-214.352428279
 33
0.0
  0
MTEXT
  5
D2
100
AcDbEntity
  8
MASSTEXTE
390
0
 62
       212
100
AcDbMText
 10
100.9998066766
 20
-207.3267628632
 30
0.0
 40
3.0
 41
0.0
 71
         5
 72
         1
  1
\W1.135145;\A1;20
  7
Arial
 11
0.0
 21
1.0
 31
0.0
 73
         0
 44
0.0
  0
ENDBLK
  5
D3
100
AcDbEntity
  8
0
390
0
100
AcDbBlockEnd
  0
BLOCK
  5
D5
100
AcDbEntity
  8
BEMASSUNG
390
0
100
AcDbBlockBegin
  2
D201443072
 70
         0
 10
0.0
 20
0.0
 30
0.0
  3
D201443072
  1

  0
LINE
  5
D6
100
AcDbEntity
  8
MASSLINIEN
390
0
 62
       172
100
AcDbLine
 10
38.6403023422
 20
-130.1678768174
 30
0.0
 11
38.6403023422
 21
-279.6678768174
 31
0.0
  0
LINE
  5
D7
100
AcDbEntity
  8
MASSLINIEN
390
0
 62
       172
100
AcDbLine
 10
15.7919787045
 20
-130.1678768174
 30
0.0
 11
40.6403023422
 21
-130.1678768174
 31
0.0
  0
LINE
  5
D8
100
AcDbEntity
  8
MASSLINIEN
390
0
 62
       172
100
AcDbLine
 10
15.7919787045
 20
-279.6678768174
 30
0.0
 11
40.6403023422
 21
-279.6678768174
 31
0.0
  0
SOLID
  5
D9
100
AcDbEntity
  8
MASSGRENZEN
390
0
100
AcDbTrace
 10
38.6403023422
 20
-130.1678768174
 30
0.0
 11
39.0318809189
 21
-133.1422114015
 31
0.0
 12
38.2487237656
 22
-133.1422114015
 32
0.0
 13
38.2487237656
 23
-133.1422114015
 33
0.0
  0
SOLID
  5
DA
100
AcDbEntity
  8
MASSGRENZEN
390
0
100
AcDbTrace
 10
38.6403023422
 20
-279.6678768174
 30
0.0
 11
38.2487237656
 21
-276.6935422332
 31
0.0
 12
39.0318809189
 22
-276.6935422332
 32
0.0
 13
39.0318809189
 23
-276.6935422332
 33
0.0
  0
MTEXT
  5
DB
100
AcDbEntity
  8
MASSTEXTE
390
0
 62
       212
100
AcDbMText
 10
35.4563023422
 20
-204.9178768174
 30
0.0
 40
3.0
 41
0.0
 71
         5
 72
         1
  1
\W1.135137;\A1;149.5
  7
Arial
 11
0.0
 21
1.0
 31
0.0
 73
         0
 44
0.0
  0
ENDBLK
  5
DC
100
AcDbEntity
  8
0
390
0
100
AcDbBlockEnd
  0
BLOCK
  5
DE
100
AcDbEntity
  8
BEMASSUNG
390
0
100
AcDbBlockBegin
  2
D201443328
 70
         0
 10
0.0
 20
0.0
 30
0.0
  3
D201443328
  1

  0
LINE
  5
DF
100
AcDbEntity
  8
MASSLINIEN
390
0
 62
       172
100
AcDbLine
 10
27.5936443084
 20
-64.8288271141
 30
0.0
 11
27.5936443084
 21
-118.8288271141
 31
0.0
  0
LINE
  5
E0
100
AcDbEntity
  8
MASSLINIEN
390
0
 62
       172
100
AcDbLine
 10
13.219826093
 20
-64.8288271141
 30
0.0
 11
29.5936443084
 21
-64.8288271141
 31
0.0
  0
LINE
  5
E1
100
AcDbEntity
  8
MASSLINIEN
390
0
 62
       172
100
AcDbLine
 10
13.219826093
 20
-118.8288271141
 30
0.0
 11
29.5936443084
 21
-118.8288271141
 31
0.0
  0
SOLID
  5
E2
100
AcDbEntity
  8
MASSGRENZEN
390
0
100
AcDbTrace
 10
27.5936443084
 20
-64.8288271141
 30
0.0
 11
27.985222885
 21
-67.8031616982
 31
0.0
 12
27.2020657317
 22
-67.8031616982
 32
0.0
 13
27.2020657317
 23
-67.8031616982
 33
0.0
  0
SOLID
  5
E3
100
AcDbEntity
  8
MASSGRENZEN
390
0
100
AcDbTrace
 10
27.5936443084
 20
-118.8288271141
 30
0.0
 11
27.2020657317
 21
-115.8544925299
 31
0.0
 12
27.985222885
 22
-115.8544925299
 32
0.0
 13
27.985222885
 23
-115.8544925299
 33
0.0
  0
MTEXT
  5
E4
100
AcDbEntity
  8
MASSTEXTE
390
0
 62
       212
100
AcDbMText
 10
24.4096443084
 20
-91.8288271141
 30
0.0
 40
3.0
 41
0.0
 71
         5
 72
         1
  1
\W1.135145;\A1;54
  7
Arial
 11
0.0
 21
1.0
 31
0.0
 73
         0
 44
0.0
  0
ENDBLK
  5
E5
100
AcDbEntity
  8
0
390
0
100
AcDbBlockEnd
  0
BLOCK
  5
E7
100
AcDbEntity
  8
BEMASSUNG
390
0
100
AcDbBlockBegin
  2
D201443584
 70
         0
 10
0.0
 20
0.0
 30
0.0
  3
D201443584
  1

  0
LINE
  5
E8
100
AcDbEntity
  8
MASSLINIEN
390
0
 62
       172
100
AcDbLine
 10
145.7928852708
 20
-66.7399615269
 30
0.0
 11
145.7928852708
 21
-120.7399615269
 31
0.0
  0
LINE
  5
E9
100
AcDbEntity
  8
MASSLINIEN
390
0
 62
       172
100
AcDbLine
 10
132.1582092632
 20
-66.7399615269
 30
0.0
 11
147.7928852708
 21
-66.7399615269
 31
0.0
  0
LINE
  5
EA
100
AcDbEntity
  8
MASSLINIEN
390
0
 62
       172
100
AcDbLine
 10
132.1582092632
 20
-120.7399615269
 30
0.0
 11
147.7928852708
 21
-120.7399615269
 31
0.0
  0
SOLID
  5
EB
100
AcDbEntity
  8
MASSGRENZEN
390
0
100
AcDbTrace
 10
145.7928852708
 20
-66.7399615269
 30
0.0
 11
146.1844638475
 21
-69.714296111
 31
0.0
 12
145.4013066942
 22
-69.714296111
 32
0.0
 13
145.4013066942
 23
-69.714296111
 33
0.0
  0
SOLID
  5
EC
100
AcDbEntity
  8
MASSGRENZEN
390
0
100
AcDbTrace
 10
145.7928852708
 20
-120.7399615269
 30
0.0
 11
145.4013066942
 21
-117.7656269427
 31
0.0
 12
146.1844638475
 22
-117.7656269427
 32
0.0
 13
146.1844638475
 23
-117.7656269427
 33
0.0
  0
MTEXT
  5
ED
100
AcDbEntity
  8
MASSTEXTE
390
0
 62
       212
100
AcDbMText
 10
142.6088852708
 20
-93.7399615269
 30
0.0
 40
3.0
 41
0.0
 71
         5
 72
         1
  1
\W1.135145;\A1;54
  7
Arial
 11
0.0
 21
1.0
 31
0.0
 73
         0
 44
0.0
  0
ENDBLK
  5
EE
100
AcDbEntity
  8
0
390
0
100
AcDbBlockEnd
  0
BLOCK
  5
F0
100
AcDbEntity
  8
BEMASSUNG
390
0
100
AcDbBlockBegin
  2
D201443840
 70
         0
 10
0.0
 20
0.0
 30
0.0
  3
D201443840
  1

  0
LINE
  5
F1
100
AcDbEntity
  8
MASSLINIEN
390
0
 62
       172
100
AcDbLine
 10
190.6112954719
 20
-115.676969484
 30
0.0
 11
190.6112954719
 21
-256.6769694844
 31
0.0
  0
LINE
  5
F2
100
AcDbEntity
  8
MASSLINIEN
390
0
 62
       172
100
AcDbLine
 10
173.9009350941
 20
-115.676969484
 30
0.0
 11
192.6112954719
 21
-115.676969484
 31
0.0
  0
LINE
  5
F3
100
AcDbEntity
  8
MASSLINIEN
390
0
 62
       172
100
AcDbLine
 10
173.9009350941
 20
-256.6769694844
 30
0.0
 11
192.6112954719
 21
-256.6769694844
 31
0.0
  0
SOLID
  5
F4
100
AcDbEntity
  8
MASSGRENZEN
390
0
100
AcDbTrace
 10
190.6112954719
 20
-115.676969484
 30
0.0
 11
191.0028740485
 21
-118.6513040681
 31
0.0
 12
190.2197168952
 22
-118.6513040681
 32
0.0
 13
190.2197168952
 23
-118.6513040681
 33
0.0
  0
SOLID
  5
F5
100
AcDbEntity
  8
MASSGRENZEN
390
0
100
AcDbTrace
 10
190.6112954719
 20
-256.6769694844
 30
0.0
 11
190.2197168952
 21
-253.7026349003
 31
0.0
 12
191.0028740485
 22
-253.7026349003
 32
0.0
 13
191.0028740485
 23
-253.7026349003
 33
0.0
  0
MTEXT
  5
F6
100
AcDbEntity
  8
MASSTEXTE
390
0
 62
       212
100
AcDbMText
 10
187.4272954719
 20
-186.1769694842
 30
0.0
 40
3.0
 41
0.0
 71
         5
 72
         1
  1
\W1.135145;\A1;141
  7
Arial
 11
0.0
 21
1.0
 31
0.0
 73
         0
 44
0.0
  0
ENDBLK
  5
F7
100
AcDbEntity
  8
0
390
0
100
AcDbBlockEnd
  0
BLOCK
  5
F9
100
AcDbEntity
  8
BEMASSUNG
390
0
100
AcDbBlockBegin
  2
D201444096
 70
         0
 10
0.0
 20
0.0
 30
0.0
  3
D201444096
  1

  0
LINE
  5
FA
100
AcDbEntity
  8
MASSLINIEN
390
0
 62
       172
100
AcDbLine
 10
164.9404258629
 20
-8.0640199718
 30
0.0
 11
164.9404258629
 21
-62.0640199718
 31
0.0
  0
LINE
  5
FB
100
AcDbEntity
  8
MASSLINIEN
390
0
 62
       172
100
AcDbLine
 10
149.0369450449
 20
-8.0640199718
 30
0.0
 11
166.9404258629
 21
-8.0640199718
 31
0.0
  0
LINE
  5
FC
100
AcDbEntity
  8
MASSLINIEN
390
0
 62
       172
100
AcDbLine
 10
149.0369450449
 20
-62.0640199718
 30
0.0
 11
166.9404258629
 21
-62.0640199718
 31
0.0
  0
SOLID
  5
FD
100
AcDbEntity
  8
MASSGRENZEN
390
0
100
AcDbTrace
 10
164.9404258629
 20
-8.0640199718
 30
0.0
 11
165.3320044396
 21
-11.0383545559
 31
0.0
 12
164.5488472862
 22
-11.0383545559
 32
0.0
 13
164.5488472862
 23
-11.0383545559
 33
0.0
  0
SOLID
  5
FE
100
AcDbEntity
  8
MASSGRENZEN
390
0
100
AcDbTrace
 10
164.9404258629
 20
-62.0640199718
 30
0.0
 11
164.5488472862
 21
-59.0896853877
 31
0.0
 12
165.3320044396
 22
-59.0896853877
 32
0.0
 13
165.3320044396
 23
-59.0896853877
 33
0.0
  0
MTEXT
  5
FF
100
AcDbEntity
  8
MASSTEXTE
390
0
 62
       212
100
AcDbMText
 10
161.7564258629
 20
-35.0640199718
 30
0.0
 40
3.0
 41
0.0
 71
         5
 72
         1
  1
\W1.135145;\A1;54
  7
Arial
 11
0.0
 21
1.0
 31
0.0
 73
         0
 44
0.0
  0
ENDBLK
  5
100
100
AcDbEntity
  8
0
390
0
100
AcDbBlockEnd
  0
BLOCK
  5
102
100
AcDbEntity
  8
BEMASSUNG
390
0
100
AcDbBlockBegin
  2
D296180224
 70
         0
 10
0.0
 20
0.0
 30
0.0
  3
D296180224
  1

  0
LINE
  5
103
100
AcDbEntity
  8
MASSLINIEN
390
0
 62
       172
100
AcDbLine
 10
66.1429638785
 20
63.7560274578
 30
0.0
 11
83.1429638785
 21
63.7560274578
 31
0.0
  0
LINE
  5
104
100
AcDbEntity
  8
MASSLINIEN
390
0
 62
       172
100
AcDbLine
 10
66.1429638785
 20
74.872620441
 30
0.0
 11
66.1429638785
 21
61.7560274578
 31
0.0
  0
LINE
  5
105
100
AcDbEntity
  8
MASSLINIEN
390
0
 62
       172
100
AcDbLine
 10
83.1429638785
 20
74.872620441
 30
0.0
 11
83.1429638785
 21
61.7560274578
 31
0.0
  0
SOLID
  5
106
100
AcDbEntity
  8
MASSGRENZEN
390
0
100
AcDbTrace
 10
66.1429638785
 20
63.7560274578
 30
0.0
 11
69.1172984626
 21
64.1476060344
 31
0.0
 12
69.1172984626
 22
63.3644488811
 32
0.0
 13
69.1172984626
 23
63.3644488811
 33
0.0
  0
SOLID
  5
107
100
AcDbEntity
  8
MASSGRENZEN
390
0
100
AcDbTrace
 10
83.1429638785
 20
63.7560274578
 30
0.0
 11
80.1686292944
 21
63.3644488811
 31
0.0
 12
80.1686292944
 22
64.1476060344
 32
0.0
 13
80.1686292944
 23
64.1476060344
 33
0.0
  0
MTEXT
  5
108
100
AcDbEntity
  8
MASSTEXTE
390
0
 62
       212
100
AcDbMText
 10
74.6429638785
 20
66.9400274578
 30
0.0
 40
3.0
 41
0.0
 71
         5
 72
         1
  1
\W1.135145;\A1;17
  7
Arial
 73
         0
 44
0.0
  0
ENDBLK
  5
109
100
AcDbEntity
  8
0
390
0
100
AcDbBlockEnd
  0
BLOCK
  5
10B
100
AcDbEntity
  8
BEMASSUNG
390
0
100
AcDbBlockBegin
  2
D550418176
 70
         0
 10
0.0
 20
0.0
 30
0.0
  3
D550418176
  1

  0
LINE
  5
10C
100
AcDbEntity
  8
MASSLINIEN
390
0
 62
       172
100
AcDbLine
 10
95.6176417155
 20
63.7560274578
 30
0.0
 11
102.6176417155
 21
63.7560274578
 31
0.0
  0
LINE
  5
10D
100
AcDbEntity
  8
MASSLINIEN
390
0
 62
       172
100
AcDbLine
 10
95.6176417155
 20
74.872620441
 30
0.0
 11
95.6176417155
 21
61.7560274578
 31
0.0
  0
LINE
  5
10E
100
AcDbEntity
  8
MASSLINIEN
390
0
 62
       172
100
AcDbLine
 10
102.6176417155
 20
74.872620441
 30
0.0
 11
102.6176417155
 21
61.7560274578
 31
0.0
  0
LINE
  5
10F
100
AcDbEntity
  8
MASSLINIEN
390
0
 62
       172
100
AcDbLine
 10
102.6176417155
 20
63.7560274578
 30
0.0
 11
111.3921442171
 21
63.7560274578
 31
0.0
  0
LINE
  5
110
100
AcDbEntity
  8
MASSLINIEN
390
0
 62
       172
100
AcDbLine
 10
95.6176417155
 20
63.7560274578
 30
0.0
 11
89.5789725473
 21
63.7560274578
 31
0.0
  0
SOLID
  5
111
100
AcDbEntity
  8
MASSGRENZEN
390
0
100
AcDbTrace
 10
95.6176417155
 20
63.7560274578
 30
0.0
 11
92.6433071314
 21
63.3644488811
 31
0.0
 12
92.6433071314
 22
64.1476060344
 32
0.0
 13
92.6433071314
 23
64.1476060344
 33
0.0
  0
SOLID
  5
112
100
AcDbEntity
  8
MASSGRENZEN
390
0
100
AcDbTrace
 10
102.6176417155
 20
63.7560274578
 30
0.0
 11
105.5919762997
 21
64.1476060344
 31
0.0
 12
105.5919762997
 22
63.3644488811
 32
0.0
 13
105.5919762997
 23
63.3644488811
 33
0.0
  0
MTEXT
  5
113
100
AcDbEntity
  8
MASSTEXTE
390
0
 62
       212
100
AcDbMText
 10
109.9792275504
 20
66.9400274578
 30
0.0
 40
3.0
 41
0.0
 71
         5
 72
         1
  1
\W1.135145;\A1;7
  7
Arial
 73
         0
 44
0.0
  0
ENDBLK
  5
114
100
AcDbEntity
  8
0
390
0
100
AcDbBlockEnd
  0
BLOCK
  5
116
100
AcDbEntity
  8
2201_3P
390
0
100
AcDbBlockBegin
  2
_A315417472
 70
        66
 10
123.0411529541
 20
139.3468933105
 30
0.0
  3
_A315417472
  1

  0
LINE
  5
117
100
AcDbEntity
  8
2201_3P
370
        25
390
0
  6
CONTINUOUS
 62
       172
100
AcDbLine
 10
123.0411562423
 20
143.6702605478
 30
0.0
 11
134.8587945648
 21
150.4931772145
 31
0.0
  0
LINE
  5
118
100
AcDbEntity
  8
2201_3P
370
        25
390
0
  6
CONTINUOUS
 62
       172
100
AcDbLine
 10
131.3107536
 20
139.3468977662
 30
0.0
 11
126.3712832612
 21
147.9023113554
 31
0.0
  0
LINE
  5
119
100
AcDbEntity
  8
2201_3P
370
        25
390
0
  6
CONTINUOUS
 62
       172
100
AcDbLine
 10
133.9088298113
 20
140.8468977662
 30
0.0
 11
128.9693594726
 21
149.4023113554
 31
0.0
  0
LINE
  5
11A
100
AcDbEntity
  8
2201_3P
370
        25
390
0
  6
CONTINUOUS
 62
       172
100
AcDbLine
 10
132.3494194935
 20
149.4965448348
 30
0.0
 11
129.9693594726
 21
147.6702605478
 31
0.0
  0
LINE
  5
11B
100
AcDbEntity
  8
2201_3P
370
        25
390
0
  6
CONTINUOUS
 62
       172
100
AcDbLine
 10
129.9693594726
 20
147.6702605478
 30
0.0
 11
132.7409980701
 21
148.8183108449
 31
0.0
  0
LINE
  5
11C
100
AcDbEntity
  8
2201_3P
370
        25
390
0
  6
CONTINUOUS
 62
       172
100
AcDbLine
 10
132.7409980701
 20
148.8183108449
 30
0.0
 11
132.3494194935
 21
149.4965448348
 31
0.0
  0
HATCH
  5
11D
100
AcDbEntity
  8
2201_3P
390
0
  6
CONTINUOUS
 62
       172
100
AcDbHatch
 10
0.0
 20
0.0
 30
0.0
210
0.0
220
0.0
230
1.0
  2
SOLID
 70
         1
 71
         1
 91
        1
 92
        5
 93
        3
 72
         1
 10
132.34941949345196
 20
149.49654483481271
 11
129.96935947257825
 21
147.67026054778654
 72
         1
 10
129.96935947257825
 20
147.67026054778654
 11
132.74099807011211
 21
148.81831084488181
 72
         1
 10
132.74099807011211
 20
148.81831084488181
 11
132.34941949345196
 21
149.49654483481271
 97
        0
 75
         0
 76
         1
 47
1.224757
 98
        1
 10
132.34941949345196
 20
149.49653483481271
  0
LINE
  5
11E
100
AcDbEntity
  8
2201_3P
370
        25
390
0
  6
CONTINUOUS
 62
       172
100
AcDbLine
 10
124.9912232404
 20
144.3439762608
 30
0.0
 11
127.3712832612
 21
146.1702605478
 31
0.0
  0
LINE
  5
11F
100
AcDbEntity
  8
2201_3P
370
        25
390
0
  6
CONTINUOUS
 62
       172
100
AcDbLine
 10
127.3712832612
 20
146.1702605478
 30
0.0
 11
124.5996446637
 21
145.0222102507
 31
0.0
  0
LINE
  5
120
100
AcDbEntity
  8
2201_3P
370
        25
390
0
  6
CONTINUOUS
 62
       172
100
AcDbLine
 10
124.5996446637
 20
145.0222102507
 30
0.0
 11
124.9912232404
 21
144.3439762608
 31
0.0
  0
HATCH
  5
121
100
AcDbEntity
  8
2201_3P
390
0
  6
CONTINUOUS
 62
       172
100
AcDbHatch
 10
0.0
 20
0.0
 30
0.0
210
0.0
220
0.0
230
1.0
  2
SOLID
 70
         1
 71
         1
 91
        1
 92
        5
 93
        3
 72
         1
 10
124.9912232403514
 20
144.34397626076048
 11
127.37128326122512
 21
146.17026054778665
 72
         1
 10
127.37128326122512
 20
146.17026054778665
 11
124.59964466369125
 21
145.02221025069139
 72
         1
 10
124.59964466369125
 20
145.02221025069139
 11
124.9912232403514
 21
144.34397626076048
 97
        0
 75
         0
 76
         1
 47
1.224757
 98
        1
 10
124.9912232403514
 20
144.34398626076049
  0
TEXT
  5
122
100
AcDbEntity
  8
2201_3P
390
0
  6
CONTINUOUS
 62
       212
100
AcDbText
 10
131.6338082141
 20
150.7873507608
 30
0.0
 40
3.0
  1
3
 50
30.0
 41
1.1351455935
  7
Arial
100
AcDbText
  0
ENDBLK
  5
123
100
AcDbEntity
  8
0
390
0
100
AcDbBlockEnd
  0
ENDSEC
  0
SECTION
  2
ENTITIES
  0
CIRCLE
  5
124
100
AcDbEntity
  8
2201_1L
390
0
100
AcDbCircle
 10
32.7919787045
 20
149.8321231826
 30
0.0
 40
1.25
  0
LINE
  5
125
100
AcDbEntity
  8
2201_1 HEBELBOCK
390
0
100
AcDbLine
 10
29.7919787045
 20
154.8321231826
 30
0.0
 11
44.7919787045
 21
154.8321231826
 31
0.0
  0
LINE
  5
126
100
AcDbEntity
  8
2201_1 HEBELBOCK
390
0
100
AcDbLine
 10
29.7919787045
 20
7.3321231826
 30
0.0
 11
44.7919787045
 21
7.3321231826
 31
0.0
  0
LINE
  5
127
100
AcDbEntity
  8
2201_1 HEBELBOCK
390
0
100
AcDbLine
 10
59.7919787045
 20
154.8321231826
 30
0.0
 11
44.7919787045
 21
154.8321231826
 31
0.0
  0
LINE
  5
128
100
AcDbEntity
  8
2201_1 HEBELBOCK
390
0
100
AcDbLine
 10
59.7919787045
 20
7.3321231826
 30
0.0
 11
44.7919787045
 21
7.3321231826
 31
0.0
  0
ARC
  5
129
100
AcDbEntity
  8
2201_1 HEBELBOCK
390
0
100
AcDbCircle
 10
39.5419787045
 20
133.2489992309
 30
0.0
 40
2.25
100
AcDbArc
 50
0.0
 51
180.0
  0
ARC
  5
12A
100
AcDbEntity
  8
2201_1 HEBELBOCK
390
0
100
AcDbCircle
 10
39.5419787045
 20
129.6022317393
 30
0.0
 40
2.25
100
AcDbArc
 50
180.0
 51
360.0
  0
CIRCLE
  5
12B
100
AcDbEntity
  8
2201_1R
390
0
100
AcDbCircle
 10
53.2919787045
 20
29.3321231826
 30
0.0
 40
1.75
  0
CIRCLE
  5
12C
100
AcDbEntity
  8
2201_1R
390
0
100
AcDbCircle
 10
53.2919787045
 20
11.3321231826
 30
0.0
 40
1.75
  0
LINE
  5
12D
100
AcDbEntity
  8
2201_1 HEBELBOCK
390
0
100
AcDbLine
 10
37.2919787045
 20
133.2489992309
 30
0.0
 11
37.2919787045
 21
129.6022317393
 31
0.0
  0
LINE
  5
12E
100
AcDbEntity
  8
2201_1 HEBELBOCK
390
0
100
AcDbLine
 10
41.7919787045
 20
133.2489992309
 30
0.0
 11
41.7919787045
 21
129.6022317393
 31
0.0
  0
LINE
  5
12F
100
AcDbEntity
  8
2201_1 HEBELBOCK
390
0
100
AcDbLine
 10
59.7919787045
 20
154.8321231826
 30
0.0
 11
59.7919787045
 21
7.3321231826
 31
0.0
  0
LINE
  5
130
100
AcDbEntity
  8
2201_1 HEBELBOCK
390
0
100
AcDbLine
 10
44.7919787045
 20
154.8321231826
 30
0.0
 11
44.7919787045
 21
7.3321231826
 31
0.0
  0
LINE
  5
131
100
AcDbEntity
  8
2201_1 HEBELBOCK
390
0
100
AcDbLine
 10
29.7919787045
 20
154.8321231826
 30
0.0
 11
29.7919787045
 21
7.3321231826
 31
0.0
  0
LINE
  5
132
100
AcDbEntity
  8
MITTELLINIEN
390
0
100
AcDbLine
 10
186.3808335215
 20
80.5127231666
 30
0.0
 11
187.0197791989
 21
79.6515355144
 31
0.0
  0
CIRCLE
  5
133
100
AcDbEntity
  8
2201_1L
370
         0
390
0
100
AcDbCircle
 10
39.2919787045
 20
109.3321231826
 30
0.0
 40
1.75
  0
CIRCLE
  5
134
100
AcDbEntity
  8
2201_1L
370
         0
390
0
100
AcDbCircle
 10
39.2919787045
 20
78.3321231826
 30
0.0
 40
1.75
  0
CIRCLE
  5
135
100
AcDbEntity
  8
2201_1L
390
0
100
AcDbCircle
 10
31.7919787045
 20
131.3762855316
 30
0.0
 40
1.25
  0
ARC
  5
136
100
AcDbEntity
  8
2201_2___4_7 HEBEL
390
0
100
AcDbCircle
 10
192.9009350941
 20
143.823030516
 30
0.0
 40
2.5
100
AcDbArc
 50
360.0
 51
540.0
  0
CIRCLE
  5
137
100
AcDbEntity
  8
2201_2P
390
0
100
AcDbCircle
 10
192.9009350941
 20
46.323030516
 30
0.0
 40
1.5
  0
LINE
  5
138
100
AcDbEntity
  8
2201_2___4_7 HEBEL
390
0
100
AcDbLine
 10
190.4009350941
 20
109.2283519351
 30
0.0
 11
190.4009350941
 21
143.823030516
 31
0.0
  0
LINE
  5
139
100
AcDbEntity
  8
2201_2___4_7 HEBEL
390
0
  6
DOT
100
AcDbLine
 10
187.9009350941
 20
71.0009558745
 30
0.0
 11
197.9009350941
 21
71.0009558745
 31
0.0
  0
LINE
  5
13A
100
AcDbEntity
  8
2201_2___4_7 HEBEL
390
0
100
AcDbLine
 10
195.4009350941
 20
109.323030516
 30
0.0
 11
195.4009350941
 21
143.823030516
 31
0.0
  0
LINE
  5
13B
100
AcDbEntity
  8
2201_2___4_7 HEBEL
390
0
100
AcDbLine
 10
190.4009350941
 20
143.823030516
 30
0.0
 11
195.4009350941
 21
143.823030516
 31
0.0
  0
LINE
  5
13C
100
AcDbEntity
  8
2201_2___4_7 HEBEL
390
0
100
AcDbLine
 10
195.4009350941
 20
109.323030516
 30
0.0
 11
190.4009350941
 21
109.2283519351
 31
0.0
  0
LINE
  5
13D
100
AcDbEntity
  8
2201_2___4_7 HEBEL
390
0
100
AcDbLine
 10
187.9009350941
 20
41.323030516
 30
0.0
 11
197.9009350941
 21
41.323030516
 31
0.0
  0
LINE
  5
13E
100
AcDbEntity
  8
2201_2___4_7 HEBEL
390
0
100
AcDbLine
 10
187.9009350941
 20
41.323030516
 30
0.0
 11
187.9009350941
 21
71.0009558745
 31
0.0
  0
LINE
  5
13F
100
AcDbEntity
  8
2201_2___4_7 HEBEL
390
0
100
AcDbLine
 10
197.9009350941
 20
71.0009558745
 30
0.0
 11
197.9009350941
 21
41.323030516
 31
0.0
  0
LINE
  5
140
100
AcDbEntity
  8
2201_2___4_7 HEBEL
390
0
100
AcDbLine
 10
190.4009350941
 20
109.2283519351
 30
0.0
 11
187.9009350941
 21
71.0009558745
 31
0.0
  0
LINE
  5
141
100
AcDbEntity
  8
2201_2___4_7 HEBEL
390
0
100
AcDbLine
 10
197.9009350941
 20
71.0009558745
 30
0.0
 11
195.4009350941
 21
109.323030516
 31
0.0
  0
ARC
  5
142
100
AcDbEntity
  8
2201_2___4_7 HEBEL
390
0
  6
DASHED
100
AcDbCircle
 10
59.8912332265
 20
252.2574337727
 30
0.0
 40
19.0
100
AcDbArc
 50
284.4775121859
 51
285.8205592933
  0
ARC
  5
143
100
AcDbEntity
  8
2201_2___4_7 HEBEL
390
0
  6
DASHED
100
AcDbCircle
 10
127.0770841198
 20
250.4954954467
 30
0.0
 40
19.0
100
AcDbArc
 50
283.8554788707
 51
286.4236839003
  0
ARC
  5
144
100
AcDbEntity
  8
2201_2___4_7 HEBEL
390
0
100
AcDbCircle
 10
127.0770841198
 20
250.4954954467
 30
0.0
 40
20.0
100
AcDbArc
 50
283.1499308411
 51
632.7225739834
  0
ARC
  5
145
100
AcDbEntity
  8
2201_2___4_7 HEBEL
390
0
  6
DASHED
100
AcDbCircle
 10
127.0770841198
 20
250.4954954467
 30
0.0
 40
19.0
100
AcDbArc
 50
118.0371587852
 51
272.8659839826
  0
ARC
  5
146
100
AcDbEntity
  8
2201_2___4_7 HEBEL
390
0
  6
DASHED
100
AcDbCircle
 10
127.0770841198
 20
250.4954954467
 30
0.0
 40
19.0
100
AcDbArc
 50
298.0371587852
 51
466.4236839003
  0
CIRCLE
  5
147
100
AcDbEntity
  8
2201_3P
390
0
100
AcDbCircle
 10
118.5770841198
 20
260.9835839284
 30
0.0
 40
1.25
  0
CIRCLE
  5
148
100
AcDbEntity
  8
2201_3P
390
0
100
AcDbCircle
 10
145.0770841198
 20
250.4954954467
 30
0.0
 40
1.75
  0
LINE
  5
149
100
AcDbEntity
  8
2201_5 RASTE
390
0
100
AcDbLine
 10
160.7700022907
 20
43.7648483866
 30
0.0
 11
160.8606738076
 21
43.7647526933
 31
0.0
  0
LINE
  5
14A
100
AcDbEntity
  8
2201_5 RASTE
390
0
100
AcDbLine
 10
158.819024687
 20
39.4520202233
 30
0.0
 11
158.9002327846
 21
39.4116893665
 31
0.0
  0
ARC
  5
14B
100
AcDbEntity
  8
2201_5 RASTE
390
0
100
AcDbCircle
 10
108.3011747455
 20
38.5859022035
 30
0.0
 40
6.1837125811
100
AcDbArc
 50
57.9451578521
 51
121.9339041437
  0
ARC
  5
14C
100
AcDbEntity
  8
2201_5 RASTE
390
0
100
AcDbCircle
 10
103.5839741025
 20
45.8352921622
 30
0.0
 40
2.0
100
AcDbArc
 50
89.9395309979
 51
269.9395309979
  0
ARC
  5
14D
100
AcDbEntity
  8
2201_5 RASTE
390
0
100
AcDbCircle
 10
120.1376083601
 20
45.8178217285
 30
0.0
 40
3.5
100
AcDbArc
 50
214.7894355769
 51
325.0896264188
  0
ARC
  5
14E
100
AcDbEntity
  8
2201_5 RASTE
390
0
100
AcDbCircle
 10
120.1376083601
 20
45.8178217285
 30
0.0
 40
3.5
100
AcDbArc
 50
34.7894355769
 51
145.0896264188
  0
CIRCLE
  5
14F
100
AcDbEntity
  8
2201_7P
390
0
100
AcDbCircle
 10
120.1376083601
 20
45.8178217285
 30
0.0
 40
1.75
  0
CIRCLE
  5
150
100
AcDbEntity
  8
2201_7P
390
0
100
AcDbCircle
 10
158.5824693293
 20
45.8178217285
 30
0.0
 40
1.25
  0
CIRCLE
  5
151
100
AcDbEntity
  8
2201_7P
390
0
100
AcDbCircle
 10
150.5825807412
 20
45.7756011378
 30
0.0
 40
1.25
  0
ARC
  5
152
100
AcDbEntity
  8
2201_5 RASTE
390
0
100
AcDbCircle
 10
158.5824693293
 20
45.8178217285
 30
0.0
 40
3.0
100
AcDbArc
 50
270.3023841109
 51
450.3023841109
  0
ARC
  5
153
100
AcDbEntity
  8
2201_5 RASTE
390
0
100
AcDbCircle
 10
150.5825807412
 20
45.7756011378
 30
0.0
 40
3.0
100
AcDbArc
 50
90.3023841109
 51
138.1292161021
  0
ARC
  5
154
100
AcDbEntity
  8
2201_5 RASTE
390
0
100
AcDbCircle
 10
150.5825807412
 20
45.7756011378
 30
0.0
 40
3.0
100
AcDbArc
 50
221.7498458937
 51
270.3023841109
  0
LINE
  5
155
100
AcDbEntity
  8
2201_5 RASTE
390
0
100
AcDbLine
 10
103.5860848685
 20
47.8352910484
 30
0.0
 11
117.2674394024
 21
47.8208519715
 31
0.0
  0
LINE
  5
156
100
AcDbEntity
  8
2201_5 RASTE
390
0
100
AcDbLine
 10
103.5818633365
 20
43.835293276
 30
0.0
 11
105.0303580298
 21
43.8337645585
 31
0.0
  0
LINE
  5
157
100
AcDbEntity
  8
2201_5 RASTE
390
0
100
AcDbLine
 10
123.0077666695
 20
43.8047020298
 30
0.0
 11
148.344403243
 21
43.7779621597
 31
0.0
  0
LINE
  5
158
100
AcDbEntity
  8
2201_5 RASTE
390
0
100
AcDbLine
 10
123.0119882014
 20
47.8046998021
 30
0.0
 11
148.348624775
 21
47.777959932
 31
0.0
  0
LINE
  5
159
100
AcDbEntity
  8
2201_5 RASTE
390
0
100
AcDbLine
 10
111.583061178
 20
43.8268489433
 30
0.0
 11
117.2632178704
 21
43.8208541992
 31
0.0
  0
LINE
  5
15A
100
AcDbEntity
  8
2201_5 RASTE
390
0
100
AcDbLine
 10
150.5667480197
 20
48.7755593583
 30
0.0
 11
158.5666366078
 21
48.817779949
 31
0.0
  0
LINE
  5
15B
100
AcDbEntity
  8
2201_5 RASTE
390
0
100
AcDbLine
 10
158.5983020508
 20
42.817863508
 30
0.0
 11
150.5984134627
 21
42.7756429172
 31
0.0
  0
CIRCLE
  5
15C
100
AcDbEntity
  8
2201_6 RASTENGEWICHT
390
0
100
AcDbCircle
 10
129.7157514113
 20
79.5158494964
 30
0.0
 40
8.0
  0
ARC
  5
15D
100
AcDbEntity
  8
2201_6 RASTENGEWICHT
390
0
100
AcDbCircle
 10
129.7157514113
 20
79.5158494964
 30
0.0
 40
3.8
100
AcDbArc
 50
230.422868837
 51
335.9273070453
  0
ARC
  5
15E
100
AcDbEntity
  8
2201_6 RASTENGEWICHT
390
0
100
AcDbCircle
 10
129.7157514113
 20
79.5158494964
 30
0.0
 40
3.8
100
AcDbArc
 50
50.422868837
 51
155.9273070453
  0
CIRCLE
  5
15F
100
AcDbEntity
  8
2201_8P
390
0
100
AcDbCircle
 10
129.7157514113
 20
79.5158494964
 30
0.0
 40
1.25
  0
LINE
  5
160
100
AcDbEntity
  8
2201_6 RASTENGEWICHT
390
0
100
AcDbLine
 10
121.7309578406
 20
80.0088724514
 30
0.0
 11
126.246242416
 21
81.0658518614
 31
0.0
  0
LINE
  5
161
100
AcDbEntity
  8
2201_6 RASTENGEWICHT
390
0
100
AcDbLine
 10
132.1367937275
 20
82.4447663786
 30
0.0
 11
136.6520783029
 21
83.5017457886
 31
0.0
  0
LINE
  5
162
100
AcDbEntity
  8
2201_6 RASTENGEWICHT
390
0
100
AcDbLine
 10
122.7794245196
 20
75.5299532042
 30
0.0
 11
127.294709095
 21
76.5869326142
 31
0.0
  0
LINE
  5
163
100
AcDbEntity
  8
2201_6 RASTENGEWICHT
390
0
100
AcDbLine
 10
133.1852604065
 20
77.9658471314
 30
0.0
 11
137.7005449819
 21
79.0228265414
 31
0.0
  0
CIRCLE
  5
164
100
AcDbEntity
  8
2201_2___4_7 HEBEL
390
0
100
AcDbCircle
 10
48.219826093
 20
194.1711728859
 30
0.0
 40
20.0
  0
CIRCLE
  5
165
100
AcDbEntity
  8
2201_2___4_7 HEBEL
390
0
  6
DASHED
100
AcDbCircle
 10
48.219826093
 20
194.1711728859
 30
0.0
 40
19.0
  0
CIRCLE
  5
166
100
AcDbEntity
  8
2201_9P
390
0
100
AcDbCircle
 10
30.219826093
 20
194.1711728859
 30
0.0
 40
1.5
  0
CIRCLE
  5
167
100
AcDbEntity
  8
2201_9P
390
0
100
AcDbCircle
 10
37.8685025062
 20
187.1611728859
 30
0.0
 40
1.25
  0
CIRCLE
  5
168
100
AcDbEntity
  8
2201_9P
390
0
100
AcDbCircle
 10
34.5023223108
 20
200.239952828
 30
0.0
 40
1.25
  0
CIRCLE
  5
169
100
AcDbEntity
  8
2201_2___4_7 HEBEL
390
0
100
AcDbCircle
 10
114.8562709281
 20
129.8468977662
 30
0.0
 40
20.0
  0
CIRCLE
  5
16A
100
AcDbEntity
  8
2201_2___4_7 HEBEL
390
0
  6
DASHED
100
AcDbCircle
 10
114.8562709281
 20
129.8468977662
 30
0.0
 40
19.0
  0
LINE
  5
16B
100
AcDbEntity
  8
2201_1L
390
0
  6
DIVIDE
100
AcDbLine
 10
29.7919787045
 20
155.8321231826
 30
0.0
 11
44.7919787045
 21
155.8321231826
 31
0.0
  0
LINE
  5
16C
100
AcDbEntity
  8
2201_1R
390
0
  6
DIVIDE
100
AcDbLine
 10
59.7919787045
 20
155.8321231826
 30
0.0
 11
44.7919787045
 21
155.8321231826
 31
0.0
  0
LINE
  5
16D
100
AcDbEntity
  8
2201_1L
390
0
  6
DIVIDE
100
AcDbLine
 10
29.7919787045
 20
6.3321231826
 30
0.0
 11
44.7919787045
 21
6.3321231826
 31
0.0
  0
LINE
  5
16E
100
AcDbEntity
  8
2201_1R
390
0
  6
DIVIDE
100
AcDbLine
 10
59.7919787045
 20
6.3321231826
 30
0.0
 11
44.7919787045
 21
6.3321231826
 31
0.0
  0
INSERT
  5
16F
100
AcDbEntity
  8
BEMASSUNG
390
0
100
AcDbBlockReference
  2
D201497088
 10
0.0
 20
0.0
 30
0.0
  0
LINE
  5
170
100
AcDbEntity
  8
2201_1L
390
0
100
AcDbLine
 10
38.2919787045
 20
133.2489992309
 30
0.0
 11
38.2919787045
 21
129.6022317393
 31
0.0
  0
ARC
  5
171
100
AcDbEntity
  8
2201_1L
390
0
100
AcDbCircle
 10
39.5419787045
 20
133.2489992309
 30
0.0
 40
1.25
100
AcDbArc
 50
0.0
 51
180.0
  0
LINE
  5
172
100
AcDbEntity
  8
2201_1L
390
0
100
AcDbLine
 10
40.7919787045
 20
133.2489992309
 30
0.0
 11
40.7919787045
 21
129.6022317393
 31
0.0
  0
ARC
  5
173
100
AcDbEntity
  8
2201_1L
390
0
100
AcDbCircle
 10
39.5419787045
 20
129.6022317393
 30
0.0
 40
1.25
100
AcDbArc
 50
180.0
 51
360.0
  0
LINE
  5
174
100
AcDbEntity
  8
2201_1L
390
0
100
AcDbLine
 10
39.5419787045
 20
133.2489992309
 30
0.0
 11
39.5419787045
 21
129.6022317393
 31
0.0
  0
LINE
  5
175
100
AcDbEntity
  8
2201_1L
390
0
100
AcDbLine
 10
39.5419787045
 20
133.2489992309
 30
0.0
 11
38.2919787045
 21
133.2489992309
 31
0.0
  0
TEXT
  5
176
100
AcDbEntity
  8
2201_1L
390
0
100
AcDbText
 10
37.634609005
 20
131.0216031504
 30
0.0
 40
1.0
  1
N1
 41
0.8108667405
  7
Arial
100
AcDbText
  0
LINE
  5
177
100
AcDbEntity
  8
2201_1L
390
0
  6
HIDDEN
100
AcDbLine
 10
44.7919787045
 20
155.8321231826
 30
0.0
 11
32.7919787045
 21
149.8321231826
 31
0.0
  0
LINE
  5
178
100
AcDbEntity
  8
2201_1L
390
0
  6
HIDDEN
100
AcDbLine
 10
32.7919787045
 20
149.8321231826
 30
0.0
 11
31.7919787045
 21
131.3762855316
 31
0.0
  0
LINE
  5
179
100
AcDbEntity
  8
2201_1L
390
0
  6
HIDDEN
100
AcDbLine
 10
31.7919787045
 20
131.3762855316
 30
0.0
 11
38.2919787045
 21
133.2489992309
 31
0.0
  0
LINE
  5
17A
100
AcDbEntity
  8
2201_1L
390
0
  6
HIDDEN
100
AcDbLine
 10
39.5419787045
 20
129.6022317393
 30
0.0
 11
39.2919787045
 21
109.3321231826
 31
0.0
  0
LINE
  5
17B
100
AcDbEntity
  8
2201_1L
390
0
  6
HIDDEN
100
AcDbLine
 10
31.7919787045
 20
109.3321231826
 30
0.0
 11
31.7919787045
 21
78.3321231826
 31
0.0
  0
LINE
  5
17C
100
AcDbEntity
  8
2201_1L
390
0
  6
HIDDEN
100
AcDbLine
 10
39.2919787045
 20
78.3321231826
 30
0.0
 11
32.7919787045
 21
35.3321231826
 31
0.0
  0
LINE
  5
17D
100
AcDbEntity
  8
2201_1R
390
0
  6
HIDDEN
100
AcDbLine
 10
59.7919787045
 20
155.8321231826
 30
0.0
 11
53.2919787045
 21
29.3321231826
 31
0.0
  0
LINE
  5
17E
100
AcDbEntity
  8
2201_1R
390
0
  6
HIDDEN
100
AcDbLine
 10
53.2919787045
 20
29.3321231826
 30
0.0
 11
53.2919787045
 21
11.3321231826
 31
0.0
  0
LINE
  5
17F
100
AcDbEntity
  8
2201_1R
390
0
  6
HIDDEN
100
AcDbLine
 10
53.2919787045
 20
11.3321231826
 30
0.0
 11
59.7919787045
 21
6.3321231826
 31
0.0
  0
LINE
  5
180
100
AcDbEntity
  8
2201_1L
390
0
  6
HIDDEN
100
AcDbLine
 10
32.7919787045
 20
11.3321231826
 30
0.0
 11
44.7919787045
 21
6.3321231826
 31
0.0
  0
ARC
  5
181
100
AcDbEntity
  8
2201___ HEBELBOCK
390
0
  6
DASHDOT
100
AcDbCircle
 10
426.4623971179
 20
81.0821231826
 30
0.0
 40
403.6520572774
100
AcDbArc
 50
169.3281257433
 51
190.6718742567
  0
CIRCLE
  5
182
100
AcDbEntity
  8
2201_1L
390
0
  6
PHANTOM
100
AcDbCircle
 10
29.7919787045
 20
155.8321231826
 30
0.0
 40
0.5
  0
CIRCLE
  5
183
100
AcDbEntity
  8
2201_1L
390
0
  6
PHANTOM
100
AcDbCircle
 10
29.7919787045
 20
6.3321231826
 30
0.0
 40
1.0
  0
CIRCLE
  5
184
100
AcDbEntity
  8
2201_1R
390
0
  6
PHANTOM
100
AcDbCircle
 10
44.7919787045
 20
6.3321231826
 30
0.0
 40
1.0
  0
CIRCLE
  5
185
100
AcDbEntity
  8
2201_1R
390
0
  6
PHANTOM
100
AcDbCircle
 10
44.7919787045
 20
155.8321231826
 30
0.0
 40
0.5
  0
ARC
  5
186
100
AcDbEntity
  8
2201_7P
390
0
  6
DIVIDE
100
AcDbCircle
 10
120.1376083601
 20
45.8178217285
 30
0.0
 40
4.5
100
AcDbArc
 50
41.5777256549
 51
138.1292161021
  0
LINE
  5
187
100
AcDbEntity
  8
2201_7P
390
0
  6
DIVIDE
100
AcDbLine
 10
150.5614704458
 20
49.7755454318
 30
0.0
 11
158.5613590339
 21
49.8177660226
 31
0.0
  0
LINE
  5
188
100
AcDbEntity
  8
2201_7P
390
0
  6
DIVIDE
100
AcDbLine
 10
158.6035796247
 20
41.8178774345
 30
0.0
 11
150.6036910366
 21
41.7756568437
 31
0.0
  0
ARC
  5
189
100
AcDbEntity
  8
2201_7P
390
0
  6
DIVIDE
100
AcDbCircle
 10
120.1376083601
 20
45.8178217285
 30
0.0
 40
4.5
100
AcDbArc
 50
221.7498458937
 51
317.9566321411
  0
LINE
  5
18A
100
AcDbEntity
  8
2201_7P
390
0
100
AcDbLine
 10
123.5038610008
 20
48.8041812446
 30
0.0
 11
147.9399970526
 21
48.7783917479
 31
0.0
  0
LINE
  5
18B
100
AcDbEntity
  8
2201_7P
390
0
100
AcDbLine
 10
123.4794799888
 20
42.8042036344
 30
0.0
 11
147.9336647547
 21
42.7783950894
 31
0.0
  0
ARC
  5
18C
100
AcDbEntity
  8
2201_7P
390
0
100
AcDbCircle
 10
150.5825807412
 20
45.7756011378
 30
0.0
 40
4.0
100
AcDbArc
 50
228.5299088886
 51
270.3023841109
  0
ARC
  5
18D
100
AcDbEntity
  8
2201_7P
390
0
100
AcDbCircle
 10
150.5825807412
 20
45.7756011378
 30
0.0
 40
4.0
100
AcDbArc
 50
90.3023841109
 51
131.3491531072
  0
ARC
  5
18E
100
AcDbEntity
  8
2201_7P
390
0
100
AcDbCircle
 10
158.5824693293
 20
45.8178217285
 30
0.0
 40
4.0
100
AcDbArc
 50
270.3023841109
 51
450.3023841109
  0
ARC
  5
18F
100
AcDbEntity
  8
2201_7P
390
0
100
AcDbCircle
 10
103.5839741025
 20
45.8352921622
 30
0.0
 40
3.0
100
AcDbArc
 50
89.9395309979
 51
269.9395309979
  0
LINE
  5
190
100
AcDbEntity
  8
2201_7P
390
0
100
AcDbLine
 10
103.5871402514
 20
48.8352904914
 30
0.0
 11
116.7866744107
 21
48.8213599199
 31
0.0
  0
LINE
  5
191
100
AcDbEntity
  8
2201_7P
390
0
100
AcDbLine
 10
103.5808079535
 20
42.8352938329
 30
0.0
 11
105.3297725862
 21
42.8334480044
 31
0.0
  0
ARC
  5
192
100
AcDbEntity
  8
2201_7P
390
0
100
AcDbCircle
 10
108.3011747455
 20
38.5859022035
 30
0.0
 40
5.1837125811
100
AcDbArc
 50
54.9040643096
 51
124.9749976862
  0
LINE
  5
193
100
AcDbEntity
  8
2201_7P
390
0
100
AcDbLine
 10
111.2815358557
 20
42.8271666112
 30
0.0
 11
116.7803421128
 21
42.8213632614
 31
0.0
  0
LINE
  5
194
100
AcDbEntity
  8
MITTELLINIEN
390
0
100
AcDbLine
 10
101.584050408
 20
35.615352007
 30
0.0
 11
101.584050408
 21
56.1037525066
 31
0.0
  0
LINE
  5
195
100
AcDbEntity
  8
MITTELLINIEN
390
0
100
AcDbLine
 10
161.584050408
 20
35.615352007
 30
0.0
 11
161.584050408
 21
56.1037525066
 31
0.0
  0
CIRCLE
  5
196
100
AcDbEntity
  8
2201_7P
390
0
  6
PHANTOM
100
AcDbCircle
 10
101.584050408
 20
50.8178217285
 30
0.0
 40
0.5
  0
CIRCLE
  5
197
100
AcDbEntity
  8
2201_7P
390
0
  6
PHANTOM
100
AcDbCircle
 10
101.584050408
 20
40.8178217285
 30
0.0
 40
1.0
  0
LINE
  5
198
100
AcDbEntity
  8
2201_7P
390
0
  6
DASHED
100
AcDbLine
 10
150.5825807412
 20
45.7756011378
 30
0.0
 11
158.5824693293
 21
45.8178217285
 31
0.0
  0
LINE
  5
199
100
AcDbEntity
  8
2201_7P
390
0
  6
DASHED
100
AcDbLine
 10
158.5824693293
 20
45.8178217285
 30
0.0
 11
147.9399970526
 21
48.7783917479
 31
0.0
  0
TEXT
  5
19A
100
AcDbEntity
  8
2201_7P
390
0
  6
HIDDEN
100
AcDbText
 10
105.7890765382
 20
48.4302386538
 30
0.0
 40
2.0
  1
N1
 41
1.1350267802
  7
Arial
100
AcDbText
  0
TEXT
  5
19B
100
AcDbEntity
  8
2201_7P
390
0
  6
HIDDEN
100
AcDbText
 10
152.1642591396
 20
46.5793444479
 30
0.0
 40
2.0
  1
N1
 41
1.1350267802
  7
Arial
100
AcDbText
  0
LINE
  5
19C
100
AcDbEntity
  8
2201_7P
390
0
  6
DASHED
100
AcDbLine
 10
150.5825807412
 20
45.7756011378
 30
0.0
 11
120.1376083601
 21
45.8178217285
 31
0.0
  0
LINE
  5
19D
100
AcDbEntity
  8
2201_7P
390
0
  6
DASHED
100
AcDbLine
 10
120.1376083601
 20
45.8178217285
 30
0.0
 11
147.9399970526
 21
48.7783917479
 31
0.0
  0
LINE
  5
19E
100
AcDbEntity
  8
2201_7P
390
0
  6
DASHED
100
AcDbLine
 10
103.5871402514
 20
48.8352904914
 30
0.0
 11
101.584050408
 21
40.8178217285
 31
0.0
  0
LINE
  5
19F
100
AcDbEntity
  8
2201_7P
390
0
  6
DASHED
100
AcDbLine
 10
101.584050408
 20
50.8178217285
 30
0.0
 11
103.5871402514
 21
48.8352904914
 31
0.0
  0
ARC
  5
1A0
100
AcDbEntity
  8
2201___ HEBELBOCK
390
0
  6
DASHED
100
AcDbCircle
 10
101.6828468688
 20
45.8178217285
 30
0.0
 40
5.0009759788
100
AcDbArc
 50
91.1319767434
 51
268.8680232566
  0
INSERT
  5
1A1
100
AcDbEntity
  8
BEMASSUNG
390
0
100
AcDbBlockReference
  2
D201496832
 10
0.0
 20
0.0
 30
0.0
  0
INSERT
  5
1A2
100
AcDbEntity
  8
BEMASSUNG
390
0
100
AcDbBlockReference
  2
D201457152
 10
0.0
 20
0.0
 30
0.0
  0
LINE
  5
1A3
100
AcDbEntity
  8
MITTELLINIEN
390
0
100
AcDbLine
 10
187.9009350941
 20
24.323030516
 30
0.0
 11
187.9009350941
 21
175.323030516
 31
0.0
  0
LINE
  5
1A4
100
AcDbEntity
  8
2201_2P
390
0
100
AcDbLine
 10
196.4009350941
 20
109.3556141612
 30
0.0
 11
196.4009350941
 21
141.823030516
 31
0.0
  0
LINE
  5
1A5
100
AcDbEntity
  8
2201_2P
390
0
100
AcDbLine
 10
189.4009350941
 20
109.261016109
 30
0.0
 11
189.4009350941
 21
143.823030516
 31
0.0
  0
LINE
  5
1A6
100
AcDbEntity
  8
2201_2P
390
0
100
AcDbLine
 10
198.9009350941
 20
71.0335395197
 30
0.0
 11
196.4009350941
 21
109.3556141612
 31
0.0
  0
LINE
  5
1A7
100
AcDbEntity
  8
2201_2P
390
0
100
AcDbLine
 10
189.4009350941
 20
109.261016109
 30
0.0
 11
186.9009350941
 21
71.0336200485
 31
0.0
  0
LINE
  5
1A8
100
AcDbEntity
  8
2201_2P
390
0
100
AcDbLine
 10
186.9009350941
 20
30.323030516
 30
0.0
 11
186.9009350941
 21
71.0336200485
 31
0.0
  0
LINE
  5
1A9
100
AcDbEntity
  8
2201_2P
390
0
100
AcDbLine
 10
198.9009350941
 20
71.0335395197
 30
0.0
 11
198.9009350941
 21
30.323030516
 31
0.0
  0
LINE
  5
1AA
100
AcDbEntity
  8
2201_2P
390
0
  6
DIVIDE
100
AcDbLine
 10
187.9009350941
 20
40.323030516
 30
0.0
 11
198.9009350941
 21
40.323030516
 31
0.0
  0
ARC
  5
1AB
100
AcDbEntity
  8
2201_2P
390
0
  6
DIVIDE
100
AcDbCircle
 10
192.9009350941
 20
143.823030516
 30
0.0
 40
3.5
100
AcDbArc
 50
360.0
 51
540.0
  0
CIRCLE
  5
1AC
100
AcDbEntity
  8
2201_2P
390
0
100
AcDbCircle
 10
192.9009350941
 20
55.9731600488
 30
0.0
 40
1.25
  0
LINE
  5
1AD
100
AcDbEntity
  8
2201_2P
390
0
  6
DASHED
100
AcDbLine
 10
192.9009350941
 20
55.9731600488
 30
0.0
 11
192.9009350941
 21
46.323030516
 31
0.0
  0
LINE
  5
1AE
100
AcDbEntity
  8
2201_2P
390
0
100
AcDbLine
 10
190.4009350941
 20
170.323030516
 30
0.0
 11
190.4009350941
 21
146.2725202588
 31
0.0
  0
LINE
  5
1AF
100
AcDbEntity
  8
2201_2P
390
0
100
AcDbLine
 10
195.4009350941
 20
170.323030516
 30
0.0
 11
195.4009350941
 21
146.2725202588
 31
0.0
  0
LINE
  5
1B0
100
AcDbEntity
  8
2201_2P
390
0
  6
DIVIDE
100
AcDbLine
 10
190.4009350941
 20
170.323030516
 30
0.0
 11
195.4009350941
 21
170.323030516
 31
0.0
  0
ARC
  5
1B1
100
AcDbEntity
  8
2201_2P
390
0
  6
DASHED
100
AcDbCircle
 10
196.2562509718
 20
145.192832487
 30
0.0
 40
1.3774218435
100
AcDbArc
 50
276.0294599208
 51
488.3858486764
  0
ARC
  5
1B2
100
AcDbEntity
  8
2201_2P
390
0
  6
DASHED
100
AcDbCircle
 10
194.9827177669
 20
146.1807606476
 30
0.0
 40
4.5827014181
100
AcDbArc
 50
178.8526876756
 51
288.0274077839
  0
CIRCLE
  5
1B3
100
AcDbEntity
  8
2201_2P
390
0
  6
PHANTOM
100
AcDbCircle
 10
187.9009350941
 20
170.323030516
 30
0.0
 40
0.5
  0
ARC
  5
1B4
100
AcDbEntity
  8
2201_2P
390
0
  6
DASHED
100
AcDbCircle
 10
-235.854832463
 20
94.5098683296
 30
0.0
 40
430.4841299033
100
AcDbArc
 50
354.8640372202
 51
370.1433411193
  0
LINE
  5
1B5
100
AcDbEntity
  8
2201_2P
390
0
  6
DIVIDE
100
AcDbLine
 10
186.9009350941
 20
30.323030516
 30
0.0
 11
198.9009350941
 21
30.323030516
 31
0.0
  0
CIRCLE
  5
1B6
100
AcDbEntity
  8
2201_2P
390
0
  6
PHANTOM
100
AcDbCircle
 10
187.9009350941
 20
29.323030516
 30
0.0
 40
1.0
  0
ARC
  5
1B7
100
AcDbEntity
  8
2201_2P
390
0
  6
DASHED
100
AcDbCircle
 10
203.5490814781
 20
35.323030516
 30
0.0
 40
6.8268048754
100
AcDbArc
 50
132.9114333092
 51
227.0885666908
  0
ARC
  5
1B8
100
AcDbEntity
  8
2201_2P
390
0
  6
DASHED
100
AcDbCircle
 10
193.6384562268
 20
27.2102980562
 30
0.0
 40
6.1141464813
100
AcDbArc
 50
30.604122817
 51
159.7847349984
  0
LINE
  5
1B9
100
AcDbEntity
  8
2201_2P
390
0
  6
DASHED
100
AcDbLine
 10
192.9009350941
 20
46.323030516
 30
0.0
 11
187.9009350941
 21
40.323030516
 31
0.0
  0
TEXT
  5
1BA
100
AcDbEntity
  8
2201_2P
390
0
  6
DASHED
100
AcDbText
 10
197.8106605458
 20
34.1506858247
 30
0.0
 40
3.0
  1
N1
 41
1.1350267802
  7
Arial
100
AcDbText
  0
ARC
  5
1BB
100
AcDbEntity
  8
2201___ HEBELBOCK
390
0
  6
DASHDOT
100
AcDbCircle
 10
441.6527772792
 20
99.823030516
 30
0.0
 40
263.3633372593
100
AcDbArc
 50
164.4730849169
 51
195.5269150831
  0
ARC
  5
1BC
100
AcDbEntity
  8
2201_8P
390
0
  6
BORDER
100
AcDbCircle
 10
129.7157514113
 20
79.5158494964
 30
0.0
 40
9.0
100
AcDbArc
 50
135.0
 51
491.8422683009
  0
LINE
  5
1BD
100
AcDbEntity
  8
2201_8P
390
0
  6
DIVIDE
100
AcDbLine
 10
121.9588853795
 20
79.0351943542
 30
0.0
 11
127.0048024533
 21
80.2163891078
 31
0.0
  0
ARC
  5
1BE
100
AcDbEntity
  8
2201_8P
390
0
  6
DIVIDE
100
AcDbCircle
 10
129.7157514113
 20
79.5158494964
 30
0.0
 40
2.8
100
AcDbArc
 50
40.8390924373
 51
165.5110834449
  0
LINE
  5
1BF
100
AcDbEntity
  8
2201_8P
390
0
  6
DIVIDE
100
AcDbLine
 10
131.8340887681
 20
81.3468729377
 30
0.0
 11
136.8800058418
 21
82.5280676914
 31
0.0
  0
LINE
  5
1C0
100
AcDbEntity
  8
2201_8P
390
0
  6
DIVIDE
100
AcDbLine
 10
132.4267003692
 20
78.815309885
 30
0.0
 11
137.472617443
 21
79.9965046386
 31
0.0
  0
ARC
  5
1C1
100
AcDbEntity
  8
2201_8P
390
0
  6
DIVIDE
100
AcDbCircle
 10
129.7157514113
 20
79.5158494964
 30
0.0
 40
2.8
100
AcDbArc
 50
220.8390924373
 51
345.5110834449
  0
LINE
  5
1C2
100
AcDbEntity
  8
2201_8P
390
0
  6
DIVIDE
100
AcDbLine
 10
122.5514969807
 20
76.5036313014
 30
0.0
 11
127.5974140544
 21
77.684826055
 31
0.0
  0
CIRCLE
  5
1C3
100
AcDbEntity
  8
2201_8P
390
0
  6
DIVIDE
100
AcDbCircle
 10
129.7157514113
 20
79.5158494964
 30
0.0
 40
2.0
  0
LINE
  5
1C4
100
AcDbEntity
  8
2201_8P
390
0
  6
DIVIDE
100
AcDbLine
 10
129.7157514113
 20
79.5158494964
 30
0.0
 11
121.9263266335
 21
77.6924291851
 31
0.0
  0
LINE
  5
1C5
100
AcDbEntity
  8
2201_8P
390
0
  6
DIVIDE
 62
        14
100
AcDbLine
 10
129.7157514113
 20
79.5158494964
 30
0.0
 11
137.505176189
 21
81.3392698077
 31
0.0
  0
ARC
  5
1C6
100
AcDbEntity
  8
2201_8P
390
0
  6
DIVIDE
100
AcDbCircle
 10
121.77497576
 20
78.36787639
 30
0.0
 40
0.6921965136
100
AcDbArc
 50
74.592049469
 51
282.6299319962
  0
ARC
  5
1C7
100
AcDbEntity
  8
2201_8P
390
0
  6
DIVIDE
100
AcDbCircle
 10
137.1724087885
 20
81.261372549
 30
0.0
 40
1.3000061796
100
AcDbArc
 50
283.3517506125
 51
462.9984252697
  0
CIRCLE
  5
1C8
100
AcDbEntity
  8
2201_8P
390
0
  6
PHANTOM
100
AcDbCircle
 10
119.7157514113
 20
89.5158494964
 30
0.0
 40
0.5
  0
CIRCLE
  5
1C9
100
AcDbEntity
  8
2201_8P
390
0
  6
PHANTOM
100
AcDbCircle
 10
119.7157514113
 20
69.5158494964
 30
0.0
 40
1.0
  0
LINE
  5
1CA
100
AcDbEntity
  8
2201_8P
390
0
  6
DASHED
100
AcDbLine
 10
119.7157514113
 20
89.5158494964
 30
0.0
 11
123.3517903806
 21
85.8798105271
 31
0.0
  0
LINE
  5
1CB
100
AcDbEntity
  8
2201_8P
390
0
  6
HIDDEN
100
AcDbLine
 10
122.5514969807
 20
76.5036313014
 30
0.0
 11
119.7157514113
 21
69.5158494964
 31
0.0
  0
ARC
  5
1CC
100
AcDbEntity
  8
2201___ HEBELBOCK
390
0
  6
HIDDEN
100
AcDbCircle
 10
136.6370628348
 20
79.5158494964
 30
0.0
 40
19.6552990385
100
AcDbArc
 50
149.4181549605
 51
210.5818450395
  0
LINE
  5
1CD
100
AcDbEntity
  8
MITTELLINIEN
390
0
100
AcDbLine
 10
119.7157514113
 20
94.5158494964
 30
0.0
 11
119.7157514113
 21
64.5158494964
 31
0.0
  0
CIRCLE
  5
1CE
100
AcDbEntity
  8
2201_0T
390
0
  6
PHANTOM
100
AcDbCircle
 10
93.8562709281
 20
156.8468977662
 30
0.0
 40
0.5
  0
CIRCLE
  5
1CF
100
AcDbEntity
  8
2201_0T
390
0
  6
PHANTOM
100
AcDbCircle
 10
93.8562709281
 20
102.8468977662
 30
0.0
 40
1.0
  0
LINE
  5
1D0
100
AcDbEntity
  8
2201_0T
390
0
  6
DASHED
100
AcDbLine
 10
93.8562709281
 20
156.8468977662
 30
0.0
 11
100.4286665105
 21
148.3966748745
 31
0.0
  0
LINE
  5
1D1
100
AcDbEntity
  8
2201_0T
390
0
  6
CONTINUOUS
100
AcDbLine
 10
100.4286665105
 20
148.3966748745
 30
0.0
 11
101.3495774307
 21
147.2126465485
 31
0.0
  0
ARC
  5
1D2
100
AcDbEntity
  8
2201_0T
390
0
  6
CONTINUOUS
100
AcDbCircle
 10
114.8562709281
 20
129.8468977662
 30
0.0
 40
22.0
100
AcDbArc
 50
307.8749836511
 51
487.8749836511
  0
LINE
  5
1D3
100
AcDbEntity
  8
2201_0T
390
0
  6
HIDDEN
100
AcDbLine
 10
99.2325874307
 20
147.572906389
 30
0.0
 11
93.8562709281
 21
102.8468977662
 31
0.0
  0
INSERT
  5
1D4
100
AcDbEntity
  8
BEMASSUNG
390
0
100
AcDbBlockReference
  2
D201457408
 10
0.0
 20
0.0
 30
0.0
  0
INSERT
  5
1D5
100
AcDbEntity
  8
BEMASSUNG
390
0
100
AcDbBlockReference
  2
D201441536
 10
0.0
 20
0.0
 30
0.0
  0
ARC
  5
1D6
100
AcDbEntity
  8
2201_0A
390
0
  6
BORDER
100
AcDbCircle
 10
59.8912332265
 20
252.2574337727
 30
0.0
 40
21.0
100
AcDbArc
 50
181.0432186757
 51
540.0
  0
ARC
  5
1D7
100
AcDbEntity
  8
2201_0A
390
0
  6
DIVIDE
100
AcDbCircle
 10
59.8912332265
 20
252.2574337727
 30
0.0
 40
22.75
100
AcDbArc
 50
194.7529189177
 51
525.2470810823
  0
ARC
  5
1D8
100
AcDbEntity
  8
2201_0A
390
0
  6
DIVIDE
100
AcDbCircle
 10
59.8912332265
 20
252.2574337727
 30
0.0
 40
24.5
100
AcDbArc
 50
206.1089056776
 51
513.8910943224
  0
ARC
  5
1D9
100
AcDbEntity
  8
2201_0A
390
0
  6
DIVIDE
100
AcDbCircle
 10
59.8912332265
 20
252.2574337727
 30
0.0
 40
26.25
100
AcDbArc
 50
213.0604753048
 51
506.9395246952
  0
CIRCLE
  5
1DA
100
AcDbEntity
  8
MITTELLINIEN
390
0
100
AcDbCircle
 10
59.8912332265
 20
252.2574337727
 30
0.0
 40
27.25
  0
CIRCLE
  5
1DB
100
AcDbEntity
  8
MITTELLINIEN
390
0
100
AcDbCircle
 10
114.8562709281
 20
129.8468977662
 30
0.0
 40
27.25
  0
LINE
  5
1DC
100
AcDbEntity
  8
MITTELLINIEN
390
0
100
AcDbLine
 10
93.8562709281
 20
161.8468977662
 30
0.0
 11
93.8562709281
 21
97.8468977662
 31
0.0
  0
CIRCLE
  5
1DD
100
AcDbEntity
  8
2201_0A
390
0
  6
PHANTOM
100
AcDbCircle
 10
38.8912332265
 20
274.2574337727
 30
0.0
 40
0.5
  0
CIRCLE
  5
1DE
100
AcDbEntity
  8
2201_0A
390
0
  6
PHANTOM
100
AcDbCircle
 10
38.8912332265
 20
230.2574337727
 30
0.0
 40
1.0
  0
LINE
  5
1DF
100
AcDbEntity
  8
MITTELLINIEN
390
0
100
AcDbLine
 10
38.8912332265
 20
284.2574337727
 30
0.0
 11
38.8912332265
 21
220.2574337727
 31
0.0
  0
ARC
  5
1E0
100
AcDbEntity
  8
2201_0A
390
0
  6
DASHED
 62
        11
100
AcDbCircle
 10
56.0094161413
 20
250.4883966901
 30
0.0
 40
22.0407647312
100
AcDbArc
 50
145.2885835954
 51
214.7114164046
  0
ARC
  5
1E1
100
AcDbEntity
  8
2201_0A
390
0
  6
DASHED
 62
        11
100
AcDbCircle
 10
54.8017214439
 20
249.763126666
 30
0.0
 40
18.8321346057
100
AcDbArc
 50
153.8910943224
 51
206.1089056776
  0
MTEXT
  5
1E2
100
AcDbEntity
  8
2201_8P
390
0
  6
DIVIDE
100
AcDbMText
 10
111.2344373736
 20
88.837805018
 30
0.0
 40
2.0
 41
0.0
 71
         7
 72
         1
  1
\W1.135091;M20+x5 T5 O2\PP4 U15  I1.1\PD3        B-0.4
  7
Arial
 73
         1
 44
0.66
  0
MTEXT
  5
1E3
100
AcDbEntity
  8
BESCHRIFTUNG
390
0
  6
DIVIDE
100
AcDbMText
 10
61.395028278
 20
21.6119186443
 30
0.0
 40
3.0
 41
0.0
 71
         7
 72
         1
  1
\W1.135139;\L2201.1L\P2201.1R
  7
Arial
 73
         1
 44
0.66
  0
TEXT
  5
1E4
100
AcDbEntity
  8
BESCHRIFTUNG
390
0
  6
DIVIDE
100
AcDbText
 10
161.4158348456
 20
155.2170401945
 30
0.0
 40
3.0
  1
2201.2P
 41
1.135098167
  7
Arial
100
AcDbText
  0
TEXT
  5
1E5
100
AcDbEntity
  8
BESCHRIFTUNG
390
0
  6
DIVIDE
100
AcDbText
 10
51.9241110116
 20
249.9003201813
 30
0.0
 40
3.0
  1
2201.0A
 41
1.1350982019
  7
Arial
100
AcDbText
  0
TEXT
  5
1E6
100
AcDbEntity
  8
BESCHRIFTUNG
390
0
  6
DIVIDE
100
AcDbText
 10
178.4222885531
 20
256.15554974
 30
0.0
 40
3.0
  1
2201.5P
 41
1.1350981888
  7
Arial
 72
         2
 11
198.8540559511
 21
256.15554974
 31
0.0
100
AcDbText
  0
TEXT
  5
1E7
100
AcDbEntity
  8
BESCHRIFTUNG
390
0
  6
DIVIDE
100
AcDbText
 10
150.9188448188
 20
197.5907061952
 30
0.0
 40
3.0
  1
2201.6P
 41
1.135098276
  7
Arial
 72
         2
 11
171.3506137871
 21
197.5907061952
 31
0.0
100
AcDbText
  0
TEXT
  5
1E8
100
AcDbEntity
  8
BESCHRIFTUNG
390
0
  6
DIVIDE
100
AcDbText
 10
119.4402757381
 20
239.8576202246
 30
0.0
 40
3.0
  1
2201.3P
 41
1.1350982978
  7
Arial
100
AcDbText
  0
TEXT
  5
1E9
100
AcDbEntity
  8
BESCHRIFTUNG
390
0
  6
DIVIDE
100
AcDbText
 10
106.4703900019
 20
130.041021754
 30
0.0
 40
3.0
  1
2201.0T
 41
1.1351281645
  7
Arial
100
AcDbText
  0
TEXT
  5
1EA
100
AcDbEntity
  8
BESCHRIFTUNG
390
0
  6
DIVIDE
100
AcDbText
 10
118.042102815
 20
54.7962298403
 30
0.0
 40
3.0
  1
2201.7P
 41
1.1350982106
  7
Arial
100
AcDbText
  0
TEXT
  5
1EB
100
AcDbEntity
  8
BESCHRIFTUNG
390
0
  6
DIVIDE
100
AcDbText
 10
91.4701472468
 20
90.2832387829
 30
0.0
 40
3.0
  1
2201.8P
 41
1.1350982542
  7
Arial
100
AcDbText
  0
TEXT
  5
1EC
100
AcDbEntity
  8
BESCHRIFTUNG
390
0
  6
DIVIDE
100
AcDbText
 10
40.7209491087
 20
202.5950969678
 30
0.0
 40
3.0
  1
2201.9P
 41
1.1350981888
  7
Arial
100
AcDbText
  0
MTEXT
  5
1ED
100
AcDbEntity
  8
2201_1L
390
0
  6
DIVIDE
100
AcDbMText
 10
24.624405279
 20
155.0627447841
 30
0.0
 40
1.5
 41
0.0
 71
         7
 72
         1
  1
\W0.972833;M15x15x2 T2 O2\PP4 U15  I1.1\PD1.4      B-0.4
  7
Arial
 73
         1
 44
0.66
  0
MTEXT
  5
1EE
100
AcDbEntity
  8
2201_2P
390
0
  6
DIVIDE
100
AcDbMText
 10
176.0260645076
 20
164.9157016435
 30
0.0
 40
2.0
 41
0.0
 71
         7
 72
         1
  1
\W1.135091;M15+x5 T5 O2\PP4 U15  I1.1\PD2 B-0.4    A20
  7
Arial
 73
         1
 44
0.66
  0
MTEXT
  5
1EF
100
AcDbEntity
  8
2201_7P
390
0
  6
DIVIDE
100
AcDbMText
 10
91.5112525468
 20
50.2148083976
 30
0.0
 40
2.0
 41
0.0
 71
         7
 72
         1
  1
\W1.135091;M60+x2 T2 O2\PP4 U15  I1.1\PD1.4      B-0.4
  7
Arial
 73
         1
 44
0.66
  0
MTEXT
  5
1F0
100
AcDbEntity
  8
2201_0T
390
0
  6
DIVIDE
100
AcDbMText
 10
84.4381658928
 20
153.306987237
 30
0.0
 40
2.0
 41
0.0
 71
         7
 72
         1
  1
\W1.135098;M50+x5 T5 \PO6 I1\PW1.8 B1.8
  7
Arial
 73
         1
 44
0.66
  0
MTEXT
  5
1F1
100
AcDbEntity
  8
2201_0A
390
0
  6
DIVIDE
100
AcDbMText
 10
27.791027012
 20
272.1996534489
 30
0.0
 40
2.0
 41
0.0
 71
         7
 72
         1
  1
\W1.135091;M50+x5 T5 O2\PP4 U20  I1.1\PD1         B-0.4
  7
Arial
 73
         1
 44
0.66
  0
MTEXT
  5
1F2
100
AcDbEntity
  8
2201_1R
390
0
  6
DIVIDE
100
AcDbMText
 10
40.767269995
 20
155.1579958184
 30
0.0
 40
1.5
 41
0.0
 71
         7
 72
         1
  1
\W0.972833;M15x15x2 T2 O2\PP4 U15  I1.1\PD1.4     B-0.4
  7
Arial
 73
         1
 44
0.66
  0
ARC
  5
1F3
100
AcDbEntity
  8
2201_0A
390
0
  6
DIVIDE
 62
        11
100
AcDbCircle
 10
48.667012202
 20
247.2642576323
 30
0.0
 40
10.805444688
100
AcDbArc
 50
154.7407793241
 51
184.2466171595
  0
LINE
  5
1F4
100
AcDbEntity
  8
2201_8P
390
0
  6
HIDDEN
100
AcDbLine
 10
123.712011232
 20
86.2207062331
 30
0.0
 11
129.7157514113
 21
79.5158494964
 31
0.0
  0
TEXT
  5
1F5
100
AcDbEntity
  8
2201_8P
390
0
  6
HIDDEN
 62
        14
100
AcDbText
 10
132.5201157694
 20
79.7178260517
 30
0.0
 40
1.3
  1
N1
 41
1.1350267802
  7
Arial
100
AcDbText
  0
MTEXT
  5
1F6
100
AcDbEntity
  8
2201___ HEBELBOCK
390
0
  6
DASHDOT
100
AcDbMText
 10
30.4207316043
 20
258.9332051859
 30
0.0
 40
1.5
 41
0.0
 71
         7
 72
         1
  1
\W1.135110;>2203.0A\PM50+x5 \PT5 O2
  7
Arial
 73
         1
 44
0.66
  0
CIRCLE
  5
1F7
100
AcDbEntity
  8
2201_4P
390
0
100
AcDbCircle
 10
89.5391392675
 20
193.2402616948
 30
0.0
 40
1.75
  0
CIRCLE
  5
1F8
100
AcDbEntity
  8
2201_2___4_7 HEBEL
390
0
100
AcDbCircle
 10
59.8912332265
 20
252.2574337727
 30
0.0
 40
20.0
  0
CIRCLE
  5
1F9
100
AcDbEntity
  8
2201_2___4_7 HEBEL
390
0
  6
DASHED
100
AcDbCircle
 10
59.8912332265
 20
252.2574337727
 30
0.0
 40
19.0
  0
TEXT
  5
1FA
100
AcDbEntity
  8
BESCHRIFTUNG
390
0
  6
DIVIDE
100
AcDbText
 10
98.5014043471
 20
182.713484483
 30
0.0
 40
3.0
  1
2201.4P
 41
1.135098276
  7
Arial
100
AcDbText
  0
CIRCLE
  5
1FB
100
AcDbEntity
  8
2201___ HEBELBOCK
390
0
  6
PHANTOM
100
AcDbCircle
 10
38.8912332265
 20
279.2574337727
 30
0.0
 40
0.5
  0
CIRCLE
  5
1FC
100
AcDbEntity
  8
2201___ HEBELBOCK
390
0
  6
PHANTOM
100
AcDbCircle
 10
38.8912332265
 20
225.2574337727
 30
0.0
 40
1.0
  0
CIRCLE
  5
1FD
100
AcDbEntity
  8
2201_9P
390
0
  6
PHANTOM
100
AcDbCircle
 10
27.219826093
 20
167.1711728859
 30
0.0
 40
1.0
  0
CIRCLE
  5
1FE
100
AcDbEntity
  8
2201_9P
390
0
  6
PHANTOM
100
AcDbCircle
 10
27.219826093
 20
221.1711728859
 30
0.0
 40
0.5
  0
CIRCLE
  5
1FF
100
AcDbEntity
  8
2201_4P
390
0
  6
PHANTOM
100
AcDbCircle
 10
86.5391392675
 20
166.2402616948
 30
0.0
 40
1.0
  0
CIRCLE
  5
200
100
AcDbEntity
  8
2201_6P
390
0
  6
PHANTOM
100
AcDbCircle
 10
146.1582092632
 20
165.2600384731
 30
0.0
 40
1.0
  0
CIRCLE
  5
201
100
AcDbEntity
  8
2201_3P
390
0
  6
PHANTOM
100
AcDbCircle
 10
106.0770841198
 20
223.4954954467
 30
0.0
 40
1.0
  0
CIRCLE
  5
202
100
AcDbEntity
  8
2201_3P
390
0
  6
PHANTOM
100
AcDbCircle
 10
106.0770841198
 20
277.4954954467
 30
0.0
 40
0.5
  0
CIRCLE
  5
203
100
AcDbEntity
  8
2201_5P
390
0
  6
PHANTOM
100
AcDbCircle
 10
163.0369450449
 20
223.9359800282
 30
0.0
 40
1.0
  0
CIRCLE
  5
204
100
AcDbEntity
  8
2201_5P
390
0
  6
PHANTOM
100
AcDbCircle
 10
163.0369450449
 20
277.9359800282
 30
0.0
 40
0.5
  0
ARC
  5
205
100
AcDbEntity
  8
2201___ HEBELBOCK
390
0
  6
DASHDOT
 62
       134
100
AcDbCircle
 10
99.251224229
 20
252.2574337727
 30
0.0
 40
64.2442877914
100
AcDbArc
 50
159.9742213986
 51
200.0257786014
  0
ARC
  5
206
100
AcDbEntity
  8
2201_9P
390
0
  6
DASHDOT
100
AcDbCircle
 10
87.5798170955
 20
194.1711728859
 30
0.0
 40
64.2442877914
100
AcDbArc
 50
159.9742213986
 51
200.0257786014
  0
MTEXT
  5
207
100
AcDbEntity
  8
2201_9P
390
0
  6
DASHDOT
100
AcDbMText
 10
20.844904569
 20
205.5476549414
 30
0.0
 40
1.5
 41
0.0
 71
         7
 72
         1
  1
\W1.135110;>2201.0A\PM50+x5 \PT5 O2
  7
Arial
 73
         1
 44
0.66
  0
ARC
  5
208
100
AcDbEntity
  8
2201_4P
390
0
  6
DASHDOT
100
AcDbCircle
 10
146.89913027
 20
193.2402616948
 30
0.0
 40
64.2442877914
100
AcDbArc
 50
159.9742213986
 51
200.0257786014
  0
MTEXT
  5
209
100
AcDbEntity
  8
2201_4P
390
0
  6
DASHDOT
100
AcDbMText
 10
80.1642177435
 20
204.6167437503
 30
0.0
 40
1.5
 41
0.0
 71
         7
 72
         1
  1
\W1.135110;>2201.0A\PM50+x5 \PT5 O2
  7
Arial
 73
         1
 44
0.66
  0
ARC
  5
20A
100
AcDbEntity
  8
2201_6P
390
0
  6
DASHDOT
100
AcDbCircle
 10
206.5182002657
 20
192.2600384731
 30
0.0
 40
64.2442877914
100
AcDbArc
 50
159.9742213986
 51
200.0257786014
  0
MTEXT
  5
20B
100
AcDbEntity
  8
2201_6P
390
0
  6
DASHDOT
100
AcDbMText
 10
139.7832877392
 20
203.6365205286
 30
0.0
 40
1.5
 41
0.0
 71
         7
 72
         1
  1
\W1.135110;>2201.0A\PM50+x5 \PT5 O2
  7
Arial
 73
         1
 44
0.66
  0
ARC
  5
20C
100
AcDbEntity
  8
2201_3P
390
0
  6
DASHDOT
100
AcDbCircle
 10
166.4370751223
 20
250.4954954467
 30
0.0
 40
64.2442877914
100
AcDbArc
 50
159.9742213986
 51
200.0257786014
  0
MTEXT
  5
20D
100
AcDbEntity
  8
2201_3P
390
0
  6
DASHDOT
100
AcDbMText
 10
99.7021625958
 20
261.8719775022
 30
0.0
 40
1.5
 41
0.0
 71
         7
 72
         1
  1
\W1.135110;>2201.0A\PM50+x5 \PT5 O2
  7
Arial
 73
         1
 44
0.66
  0
ARC
  5
20E
100
AcDbEntity
  8
2201_5P
390
0
  6
DASHDOT
100
AcDbCircle
 10
223.3969360474
 20
250.9359800282
 30
0.0
 40
64.2442877914
100
AcDbArc
 50
159.9742213986
 51
200.0257786014
  0
MTEXT
  5
20F
100
AcDbEntity
  8
2201_5P
390
0
  6
DASHDOT
100
AcDbMText
 10
156.6620235209
 20
262.3124620837
 30
0.0
 40
1.5
 41
0.0
 71
         7
 72
         1
  1
\W1.135110;>2201.0A\PM50+x5 \PT5 O2
  7
Arial
 73
         1
 44
0.66
  0
LINE
  5
210
100
AcDbEntity
  8
MITTELLINIEN
390
0
100
AcDbLine
 10
27.219826093
 20
226.1711728859
 30
0.0
 11
27.219826093
 21
162.1711728859
 31
0.0
  0
LINE
  5
211
100
AcDbEntity
  8
MITTELLINIEN
390
0
100
AcDbLine
 10
86.5391392675
 20
225.2402616948
 30
0.0
 11
86.5391392675
 21
161.2402616948
 31
0.0
  0
LINE
  5
212
100
AcDbEntity
  8
MITTELLINIEN
390
0
100
AcDbLine
 10
146.1582092632
 20
224.2600384731
 30
0.0
 11
146.1582092632
 21
160.2600384731
 31
0.0
  0
LINE
  5
213
100
AcDbEntity
  8
MITTELLINIEN
390
0
100
AcDbLine
 10
106.0770841198
 20
282.4954954467
 30
0.0
 11
106.0770841198
 21
218.4954954467
 31
0.0
  0
LINE
  5
214
100
AcDbEntity
  8
MITTELLINIEN
390
0
100
AcDbLine
 10
163.0369450449
 20
282.9359800282
 30
0.0
 11
163.0369450449
 21
218.9359800282
 31
0.0
  0
ARC
  5
215
100
AcDbEntity
  8
2201_0A
390
0
  6
HIDDEN
100
AcDbCircle
 10
35.6107898139
 20
241.2574337727
 30
0.0
 40
11.4787328997
100
AcDbArc
 50
286.6057448607
 51
433.3942551393
  0
ARC
  5
216
100
AcDbEntity
  8
2201_0A
390
0
  6
DASHED
 62
        11
100
AcDbCircle
 10
37.509800821
 20
270.5322054151
 30
0.0
 40
3.9731199084
100
AcDbArc
 50
69.6536277286
 51
275.5090654808
  0
ARC
  5
217
100
AcDbEntity
  8
2201_9P
390
0
  6
DASHED
100
AcDbCircle
 10
27.2138517673
 20
218.6711728859
 30
0.0
 40
2.5000071385
100
AcDbArc
 50
270.1369211999
 51
449.8630788001
  0
LINE
  5
218
100
AcDbEntity
  8
2201_9P
390
0
  6
DASHED
100
AcDbLine
 10
27.219826093
 20
172.1711728859
 30
0.0
 11
30.219826093
 21
194.1711728859
 31
0.0
  0
LINE
  5
219
100
AcDbEntity
  8
2201_9P
390
0
  6
DASHED
100
AcDbLine
 10
30.219826093
 20
194.1711728859
 30
0.0
 11
34.5023223108
 21
200.239952828
 31
0.0
  0
LINE
  5
21A
100
AcDbEntity
  8
2201_9P
390
0
  6
DASHED
100
AcDbLine
 10
37.8685025062
 20
187.1611728859
 30
0.0
 11
27.219826093
 21
167.1711728859
 31
0.0
  0
ARC
  5
21B
100
AcDbEntity
  8
2201_0T
390
0
  6
CONTINUOUS
 62
         6
100
AcDbCircle
 10
114.8562709281
 20
129.8468977662
 30
0.0
 40
22.0
100
AcDbArc
 50
127.8749836511
 51
307.8749836511
  0
TEXT
  5
21C
100
AcDbEntity
  8
2201_0T
390
0
 62
         6
100
AcDbText
 10
90.6673047745
 20
132.6375730967
 30
0.0
 40
2.0
  1
N1
 41
1.1350267802
  7
Arial
100
AcDbText
  0
ARC
  5
21D
100
AcDbEntity
  8
2201_4P
390
0
  6
DASHED
100
AcDbCircle
 10
86.5331649418
 20
217.7402616948
 30
0.0
 40
2.5000071385
100
AcDbArc
 50
270.1369211999
 51
449.8630788001
  0
ARC
  5
21E
100
AcDbEntity
  8
2201_6P
390
0
  6
DASHED
100
AcDbCircle
 10
146.1522349374
 20
216.7600384731
 30
0.0
 40
2.5000071385
100
AcDbArc
 50
270.1369211999
 51
449.8630788001
  0
ARC
  5
21F
100
AcDbEntity
  8
2201_3P
390
0
  6
DASHED
100
AcDbCircle
 10
106.0711097941
 20
274.9954954467
 30
0.0
 40
2.5000071385
100
AcDbArc
 50
270.1369211999
 51
449.8630788001
  0
ARC
  5
220
100
AcDbEntity
  8
2201_5P
390
0
  6
DASHED
100
AcDbCircle
 10
163.0309707191
 20
275.4359800282
 30
0.0
 40
2.5000071385
100
AcDbArc
 50
270.1369211999
 51
449.8630788001
  0
INSERT
  5
221
100
AcDbEntity
  8
BEMASSUNG
390
0
100
AcDbBlockReference
  2
D201441792
 10
0.0
 20
0.0
 30
0.0
  0
MTEXT
  5
222
100
AcDbEntity
  8
2201_9P
390
0
  6
DIVIDE
100
AcDbMText
 10
16.1196198785
 20
219.1133925622
 30
0.0
 40
2.0
 41
0.0
 71
         7
 72
         1
  1
\W1.135091;M50+x5 T5 O2\PP4 U15  I1.1\PD1         B-0.4
  7
Arial
 73
         1
 44
0.66
  0
CIRCLE
  5
223
100
AcDbEntity
  8
2201_4P
390
0
  6
PHANTOM
100
AcDbCircle
 10
86.5391392675
 20
220.2402616948
 30
0.0
 40
0.5
  0
CIRCLE
  5
224
100
AcDbEntity
  8
2201_6P
390
0
  6
PHANTOM
100
AcDbCircle
 10
146.1582092632
 20
219.2600384731
 30
0.0
 40
0.5
  0
MTEXT
  5
225
100
AcDbEntity
  8
BESCHRIFTUNG
390
0
100
AcDbMText
 10
99.5802978546
 20
121.2875199478
 30
0.0
 40
2.5
 41
0.0
 71
         7
 72
         1
  1
\W1.135038;Rille fräsen mit\P6mm-T-Nutfräser
  7
Arial
 73
         1
 44
0.66
  0
CIRCLE
  5
226
100
AcDbEntity
  8
2201_4P
390
0
100
AcDbCircle
 10
107.5391392675
 20
193.2402616948
 30
0.0
 40
1.25
  0
CIRCLE
  5
227
100
AcDbEntity
  8
2201_3P
390
0
100
AcDbCircle
 10
127.0770841198
 20
250.4954954467
 30
0.0
 40
1.25
  0
CIRCLE
  5
228
100
AcDbEntity
  8
2201_9P
390
0
100
AcDbCircle
 10
48.219826093
 20
194.1711728859
 30
0.0
 40
1.25
  0
CIRCLE
  5
229
100
AcDbEntity
  8
2201_6P
390
0
100
AcDbCircle
 10
167.1582092632
 20
192.2600384731
 30
0.0
 40
1.25
  0
CIRCLE
  5
22A
100
AcDbEntity
  8
2201_5P
390
0
100
AcDbCircle
 10
184.0369450449
 20
250.9359800282
 30
0.0
 40
1.25
  0
LINE
  5
22B
100
AcDbEntity
  8
2201_9P
390
0
  6
DASHED
100
AcDbLine
 10
34.5023223108
 20
200.239952828
 30
0.0
 11
48.219826093
 21
194.1711728859
 31
0.0
  0
LINE
  5
22C
100
AcDbEntity
  8
2201_9P
390
0
  6
DASHED
100
AcDbLine
 10
48.219826093
 20
194.1711728859
 30
0.0
 11
42.0085020549
 21
189.9648140428
 31
0.0
  0
MTEXT
  5
22D
100
AcDbEntity
  8
BESCHRIFTUNG
390
0
  6
DASHED
100
AcDbMText
 10
122.2633506137
 20
276.7543613928
 30
0.0
 40
3.0
 41
0.0
 71
         7
 72
         1
  1
\W1.135092;Grdst. oben\Plinker Hebel
  7
Arial
 73
         1
 44
0.66
  0
CIRCLE
  5
22E
100
AcDbEntity
  8
2201_3P
390
0
100
AcDbCircle
 10
132.8270841198
 20
258.2454954467
 30
0.0
 40
1.5
  0
CIRCLE
  5
22F
100
AcDbEntity
  8
2201_3P
390
0
100
AcDbCircle
 10
140.7945879021
 20
244.4267155047
 30
0.0
 40
1.25
  0
CIRCLE
  5
230
100
AcDbEntity
  8
2201_4P
390
0
100
AcDbCircle
 10
101.7891392675
 20
200.9902616948
 30
0.0
 40
1.5
  0
CIRCLE
  5
231
100
AcDbEntity
  8
2201_4P
390
0
100
AcDbCircle
 10
93.8216354853
 20
187.1714817528
 30
0.0
 40
1.25
  0
CIRCLE
  5
232
100
AcDbEntity
  8
2201_6P
390
0
100
AcDbCircle
 10
185.1582092632
 20
192.2600384731
 30
0.0
 40
1.75
  0
CIRCLE
  5
233
100
AcDbEntity
  8
2201_6P
390
0
100
AcDbCircle
 10
172.9082092632
 20
184.5100384731
 30
0.0
 40
1.5
  0
CIRCLE
  5
234
100
AcDbEntity
  8
2201_6P
390
0
100
AcDbCircle
 10
180.8757130454
 20
198.3288184152
 30
0.0
 40
1.25
  0
CIRCLE
  5
235
100
AcDbEntity
  8
2201_5P
390
0
100
AcDbCircle
 10
192.5369450449
 20
240.4478915465
 30
0.0
 40
1.25
  0
CIRCLE
  5
236
100
AcDbEntity
  8
2201_5P
390
0
100
AcDbCircle
 10
166.0369450449
 20
250.9359800282
 30
0.0
 40
1.5
  0
CIRCLE
  5
237
100
AcDbEntity
  8
2201_5P
390
0
100
AcDbCircle
 10
178.2869450449
 20
243.1859800282
 30
0.0
 40
1.75
  0
CIRCLE
  5
238
100
AcDbEntity
  8
2201_5P
390
0
100
AcDbCircle
 10
170.3194412627
 20
257.0047599702
 30
0.0
 40
1.25
  0
LINE
  5
239
100
AcDbEntity
  8
2201_4P
390
0
  6
DASHED
100
AcDbLine
 10
86.5391392675
 20
171.2402616948
 30
0.0
 11
98.6375873692
 21
173.575280457
 31
0.0
  0
LINE
  5
23A
100
AcDbEntity
  8
2201_4P
390
0
  6
DASHED
100
AcDbLine
 10
101.7891392675
 20
200.9902616948
 30
0.0
 11
89.5391392675
 21
193.2402616948
 31
0.0
  0
LINE
  5
23B
100
AcDbEntity
  8
2201_4P
390
0
  6
DASHED
100
AcDbLine
 10
89.5391392675
 20
193.2402616948
 30
0.0
 11
93.8216354853
 21
187.1714817528
 31
0.0
  0
LINE
  5
23C
100
AcDbEntity
  8
2201_4P
390
0
  6
DASHED
100
AcDbLine
 10
105.5891392675
 20
173.2628369359
 30
0.0
 11
86.5391392675
 21
166.2402616948
 31
0.0
  0
MTEXT
  5
23D
100
AcDbEntity
  8
2201_4P
390
0
  6
DIVIDE
100
AcDbMText
 10
78.8717439901
 20
218.4737030054
 30
0.0
 40
2.0
 41
0.0
 71
         7
 72
         1
  1
\W1.135091;M50+x5 T5 O2\PP4 U20  I1.1\PD1         B-0.4
  7
Arial
 73
         1
 44
0.66
  0
LINE
  5
23E
100
AcDbEntity
  8
2201_3P
390
0
  6
DASHED
100
AcDbLine
 10
106.0770841198
 20
228.4954954467
 30
0.0
 11
129.0270841198
 21
230.488637518
 31
0.0
  0
LINE
  5
23F
100
AcDbEntity
  8
2201_3P
390
0
  6
DASHED
100
AcDbLine
 10
130.6270841198
 20
230.4777050777
 30
0.0
 11
127.0770841198
 21
250.4954954467
 31
0.0
  0
LINE
  5
240
100
AcDbEntity
  8
2201_3P
390
0
  6
DASHED
100
AcDbLine
 10
127.0770841198
 20
250.4954954467
 30
0.0
 11
118.5770841198
 21
260.9835839284
 31
0.0
  0
LINE
  5
241
100
AcDbEntity
  8
2201_3P
390
0
  6
DASHED
100
AcDbLine
 10
132.8270841198
 20
258.2454954467
 30
0.0
 11
145.0770841198
 21
250.4954954467
 31
0.0
  0
LINE
  5
242
100
AcDbEntity
  8
2201_3P
390
0
  6
DASHED
100
AcDbLine
 10
145.0770841198
 20
250.4954954467
 30
0.0
 11
140.7945879021
 21
244.4267155047
 31
0.0
  0
LINE
  5
243
100
AcDbEntity
  8
2201_3P
390
0
  6
DASHED
100
AcDbLine
 10
133.9918353639
 20
231.4625549425
 30
0.0
 11
106.0770841198
 21
223.4954954467
 31
0.0
  0
MTEXT
  5
244
100
AcDbEntity
  8
2201_3P
390
0
  6
DIVIDE
100
AcDbMText
 10
98.4096888423
 20
275.7289367572
 30
0.0
 40
2.0
 41
0.0
 71
         7
 72
         1
  1
\W1.135091;M50+x5 T5 O2\PP4 U20  I1.1\PD1         B-0.4
  7
Arial
 73
         1
 44
0.66
  0
LINE
  5
245
100
AcDbEntity
  8
2201_6P
390
0
  6
DASHED
100
AcDbLine
 10
146.1582092632
 20
170.2600384731
 30
0.0
 11
158.2566573648
 21
172.5950572353
 31
0.0
  0
LINE
  5
246
100
AcDbEntity
  8
2201_6P
390
0
  6
DASHED
100
AcDbLine
 10
163.6082092632
 20
172.4369266306
 30
0.0
 11
172.9082092632
 21
184.5100384731
 31
0.0
  0
LINE
  5
247
100
AcDbEntity
  8
2201_6P
390
0
  6
DASHED
100
AcDbLine
 10
185.1582092632
 20
192.2600384731
 30
0.0
 11
172.9082092632
 21
184.5100384731
 31
0.0
  0
LINE
  5
248
100
AcDbEntity
  8
2201_6P
390
0
  6
DASHED
100
AcDbLine
 10
185.1582092632
 20
192.2600384731
 30
0.0
 11
180.8757130454
 21
198.3288184152
 31
0.0
  0
LINE
  5
249
100
AcDbEntity
  8
2201_6P
390
0
  6
DASHED
100
AcDbLine
 10
167.1582092632
 20
192.2600384731
 30
0.0
 11
160.2434580191
 21
173.2270979689
 31
0.0
  0
LINE
  5
24A
100
AcDbEntity
  8
2201_6P
390
0
  6
DASHED
100
AcDbLine
 10
165.2082092632
 20
172.2918120079
 30
0.0
 11
146.1582092632
 21
165.2600384731
 31
0.0
  0
MTEXT
  5
24B
100
AcDbEntity
  8
2201_6P
390
0
  6
DIVIDE
100
AcDbMText
 10
138.4908139857
 20
217.4934797837
 30
0.0
 40
2.0
 41
0.0
 71
         7
 72
         1
  1
\W1.135091;M50+x5 T5 O2\PP4 U20  I1.1\PD1         B-0.4
  7
Arial
 73
         1
 44
0.66
  0
MTEXT
  5
24C
100
AcDbEntity
  8
2201_5P
390
0
  6
DIVIDE
100
AcDbMText
 10
155.3695497674
 20
276.1694213387
 30
0.0
 40
2.0
 41
0.0
 71
         7
 72
         1
  1
\W1.135091;M50+x5 T5 O2\PP4 U20  I1.1\PD1         B-0.4
  7
Arial
 73
         1
 44
0.66
  0
LINE
  5
24D
100
AcDbEntity
  8
2201_5P
390
0
  6
DASHED
100
AcDbLine
 10
163.0369450449
 20
228.9359800282
 30
0.0
 11
187.5869450449
 21
230.8333208401
 31
0.0
  0
LINE
  5
24E
100
AcDbEntity
  8
2201_5P
390
0
  6
DASHED
100
AcDbLine
 10
185.9869450449
 20
230.6237559408
 30
0.0
 11
178.2869450449
 21
243.1859800282
 31
0.0
  0
LINE
  5
24F
100
AcDbEntity
  8
2201_5P
390
0
  6
DASHED
100
AcDbLine
 10
178.2869450449
 20
243.1859800282
 30
0.0
 11
166.0369450449
 21
250.9359800282
 31
0.0
  0
LINE
  5
250
100
AcDbEntity
  8
2201_5P
390
0
  6
DASHED
100
AcDbLine
 10
166.0369450449
 20
250.9359800282
 30
0.0
 11
170.3194412627
 21
257.0047599702
 31
0.0
  0
LINE
  5
251
100
AcDbEntity
  8
2201_5P
390
0
  6
DASHED
100
AcDbLine
 10
184.0369450449
 20
250.9359800282
 30
0.0
 11
192.5369450449
 21
240.4478915465
 31
0.0
  0
LINE
  5
252
100
AcDbEntity
  8
2201_4P
390
0
  6
DASHED
100
AcDbLine
 10
103.9891392675
 20
173.2812360254
 30
0.0
 11
93.8216354853
 21
187.1714817528
 31
0.0
  0
LINE
  5
253
100
AcDbEntity
  8
2201_4P
390
0
  6
DASHED
100
AcDbLine
 10
101.7891392675
 20
200.9902616948
 30
0.0
 11
114.3912928165
 21
212.1200437343
 31
0.0
  0
LINE
  5
254
100
AcDbEntity
  8
2201_4P
390
0
  6
DASHED
100
AcDbLine
 10
115.9591046973
 20
211.7269400571
 30
0.0
 11
107.5391392675
 21
193.2402616948
 31
0.0
  0
LINE
  5
255
100
AcDbEntity
  8
2201_4P
390
0
  6
DASHED
100
AcDbLine
 10
107.5391392675
 20
193.2402616948
 30
0.0
 11
100.6243880235
 21
174.2073211906
 31
0.0
  0
LINE
  5
256
100
AcDbEntity
  8
2201_3P
390
0
  6
DASHED
100
AcDbLine
 10
118.5770841198
 20
260.9835839284
 30
0.0
 11
117.7554100957
 21
271.188394081
 31
0.0
  0
LINE
  5
257
100
AcDbEntity
  8
2201_3P
390
0
  6
DASHED
100
AcDbLine
 10
119.4099621153
 20
271.3692697124
 30
0.0
 11
132.8270841198
 21
258.2454954467
 31
0.0
  0
LINE
  5
258
100
AcDbEntity
  8
2201_3P
390
0
  6
DASHED
100
AcDbLine
 10
140.7945879021
 20
244.4267155047
 30
0.0
 11
135.9786360182
 21
230.8305142089
 31
0.0
  0
LINE
  5
259
100
AcDbEntity
  8
2201_6P
390
0
  6
DASHED
100
AcDbLine
 10
180.8757130454
 20
198.3288184152
 30
0.0
 11
175.5781746929
 21
210.7467168354
 31
0.0
  0
LINE
  5
25A
100
AcDbEntity
  8
2201_6P
390
0
  6
DASHED
100
AcDbLine
 10
174.0103628121
 20
211.1398205126
 30
0.0
 11
167.1582092632
 21
192.2600384731
 31
0.0
  0
LINE
  5
25B
100
AcDbEntity
  8
2201_5P
390
0
  6
DASHED
100
AcDbLine
 10
170.3194412627
 20
257.0047599702
 30
0.0
 11
175.6169796151
 21
269.4226583904
 31
0.0
  0
LINE
  5
25C
100
AcDbEntity
  8
2201_5P
390
0
  6
DASHED
100
AcDbLine
 10
177.184791496
 20
269.8157620677
 30
0.0
 11
184.0369450449
 21
250.9359800282
 31
0.0
  0
LINE
  5
25D
100
AcDbEntity
  8
2201_5P
390
0
  6
DASHED
100
AcDbLine
 10
192.5369450449
 20
240.4478915465
 30
0.0
 11
192.6379786568
 21
232.006280166
 31
0.0
  0
LINE
  5
25E
100
AcDbEntity
  8
2201_5P
390
0
  6
DASHED
100
AcDbLine
 10
190.951696289
 20
231.903039524
 30
0.0
 11
163.0369450449
 21
223.9359800282
 31
0.0
  0
ARC
  5
25F
100
AcDbEntity
  8
2201___ HEBELBOCK
390
0
100
AcDbCircle
 10
137.0234411251
 20
250.4954954467
 30
0.0
 40
41.0691734991
100
AcDbArc
 50
138.8960343473
 51
221.1039656527
  0
MTEXT
  5
260
100
AcDbEntity
  8
2201___ HEBELBOCK
390
0
  6
DASHDOT
100
AcDbMText
 10
92.2865732566
 20
249.0898432463
 30
0.0
 40
1.5
 41
0.0
 71
         7
 72
         1
  1
\W1.135110;>2201.3P\PM50+x5 \PT5 O2
  7
Arial
 73
         1
 44
0.66
  0
ARC
  5
261
100
AcDbEntity
  8
2201___ HEBELBOCK
390
0
100
AcDbCircle
 10
193.9833020502
 20
250.9359800282
 30
0.0
 40
41.0691734991
100
AcDbArc
 50
138.8960343473
 51
221.1039656527
  0
MTEXT
  5
262
100
AcDbEntity
  8
2201___ HEBELBOCK
390
0
  6
DASHDOT
100
AcDbMText
 10
149.2464341816
 20
249.5303278278
 30
0.0
 40
1.5
 41
0.0
 71
         7
 72
         1
  1
\W1.135110;>2201.5P\PM50+x5 \PT5 O2
  7
Arial
 73
         1
 44
0.66
  0
ARC
  5
263
100
AcDbEntity
  8
2201___ HEBELBOCK
390
0
100
AcDbCircle
 10
177.1045662685
 20
192.2600384731
 30
0.0
 40
41.0691734991
100
AcDbArc
 50
138.8960343473
 51
221.1039656527
  0
MTEXT
  5
264
100
AcDbEntity
  8
2201___ HEBELBOCK
390
0
  6
DASHDOT
100
AcDbMText
 10
132.3676983999
 20
190.8543862728
 30
0.0
 40
1.5
 41
0.0
 71
         7
 72
         1
  1
\W1.135110;>2201.6P\PM50+x5 \PT5 O2
  7
Arial
 73
         1
 44
0.66
  0
ARC
  5
265
100
AcDbEntity
  8
2201___ HEBELBOCK
390
0
100
AcDbCircle
 10
117.4854962729
 20
193.2402616948
 30
0.0
 40
41.0691734991
100
AcDbArc
 50
138.8960343473
 51
221.1039656527
  0
MTEXT
  5
266
100
AcDbEntity
  8
2201___ HEBELBOCK
390
0
  6
DASHDOT
100
AcDbMText
 10
72.7486284043
 20
191.8346094945
 30
0.0
 40
1.5
 41
0.0
 71
         7
 72
         1
  1
\W1.135110;>2201.4P\PM50+x5 \PT5 O2
  7
Arial
 73
         1
 44
0.66
  0
ARC
  5
267
100
AcDbEntity
  8
2201___ HEBELBOCK
390
0
100
AcDbCircle
 10
58.1661830983
 20
194.1711728859
 30
0.0
 40
41.0691734991
100
AcDbArc
 50
138.8960343473
 51
221.1039656527
  0
MTEXT
  5
268
100
AcDbEntity
  8
2201___ HEBELBOCK
390
0
  6
DASHDOT
100
AcDbMText
 10
13.4293152298
 20
192.7655206856
 30
0.0
 40
1.5
 41
0.0
 71
         7
 72
         1
  1
\W1.135110;>2201.9P\PM50+x5 \PT5 O2
  7
Arial
 73
         1
 44
0.66
  0
MTEXT
  5
269
100
AcDbEntity
  8
2201___ HEBELBOCK
390
0
  6
DASHDOT
100
AcDbMText
 10
171.9639633211
 20
98.2736087476
 30
0.0
 40
1.5
 41
0.0
 71
         7
 72
         1
  1
\W1.135110;>2201.2P\PM20+x5\PT5 O2
  7
Arial
 73
         1
 44
0.66
  0
MTEXT
  5
26A
100
AcDbEntity
  8
2201___ HEBELBOCK
390
0
  6
DASHDOT
100
AcDbMText
 10
111.1562870974
 20
77.8982610962
 30
0.0
 40
1.5
 41
0.0
 71
         7
 72
         1
  1
\W1.135110;>2201.8P\PM20+x5 \PT5 O2
  7
Arial
 73
         1
 44
0.66
  0
MTEXT
  5
26B
100
AcDbEntity
  8
2201___ HEBELBOCK
390
0
  6
DASHDOT
100
AcDbMText
 10
90.8563941911
 20
44.2002333284
 30
0.0
 40
1.5
 41
0.0
 71
         7
 72
         1
  1
\W1.135110;>2201.7P\PM60+x2\PT2 O2
  7
Arial
 73
         1
 44
0.66
  0
MTEXT
  5
26C
100
AcDbEntity
  8
2201___ HEBELBOCK
390
0
  6
DASHDOT
100
AcDbMText
 10
16.9848631416
 20
79.4645347825
 30
0.0
 40
1.5
 41
0.0
 71
         7
 72
         1
  1
\W1.135145;>2201.1L\PM15x15x2 \PT5 O2
  7
Arial
 73
         1
 44
0.66
  0
LINE
  5
26D
100
AcDbEntity
  8
MITTELLINIEN
390
0
100
AcDbLine
 10
154.7899230348
 20
128.9389540673
 30
0.0
 11
154.7899230348
 21
56.9389540673
 31
0.0
  0
LINE
  5
26E
100
AcDbEntity
  8
MITTELLINIEN
390
0
100
AcDbLine
 10
169.7899230348
 20
128.9389540673
 30
0.0
 11
169.7899230348
 21
56.9389540673
 31
0.0
  0
CIRCLE
  5
26F
100
AcDbEntity
  8
2201_7V
390
0
  6
PHANTOM
100
AcDbCircle
 10
154.7899230348
 20
123.9389540673
 30
0.0
 40
0.5
  0
CIRCLE
  5
270
100
AcDbEntity
  8
2201_7V
390
0
  6
PHANTOM
100
AcDbCircle
 10
154.7899230348
 20
61.9389540673
 30
0.0
 40
1.0
  0
MTEXT
  5
271
100
AcDbEntity
  8
2201_7V
390
0
  6
DASHDOT
100
AcDbMText
 10
159.1964155259
 20
70.681965809
 30
0.0
 40
1.5
 41
0.0
 71
         1
 72
         1
  1
\W1.135110;>2201.7P\PM60+x2 \PT2 O2
  7
Arial
 73
         1
 44
0.66
  0
ARC
  5
272
100
AcDbEntity
  8
2201_7V
390
0
  6
DASHDOT
100
AcDbCircle
 10
162.2899230348
 20
63.8401576065
 30
0.0
 40
5.0009759788
100
AcDbArc
 50
1.1319767434
 51
178.8680232566
  0
ARC
  5
273
100
AcDbEntity
  8
2201_7V
390
0
  6
DASHED
100
AcDbCircle
 10
4.8499884983
 20
87.6393734616
 30
0.0
 40
154.2713308459
100
AcDbArc
 50
351.162757791
 51
373.6091302697
  0
LINE
  5
274
100
AcDbEntity
  8
2201_7V
390
0
  6
DASHED
100
AcDbLine
 10
167.2899230348
 20
63.9389540673
 30
0.0
 11
154.7899230348
 21
61.9389540673
 31
0.0
  0
MTEXT
  5
275
100
AcDbEntity
  8
2201_7V
390
0
  6
DIVIDE
100
AcDbMText
 10
146.3086089972
 20
123.2609095889
 30
0.0
 40
2.0
 41
0.0
 71
         7
 72
         1
  1
\W1.135091;M15+x2 T2 O2\PP4 U15  I1.1\PD1.4        B-0.4
  7
Arial
 73
         1
 44
0.66
  0
ARC
  5
276
100
AcDbEntity
  8
2201___ HEBELBOCK
390
0
100
AcDbCircle
 10
224.5564679958
 20
92.9389540673
 30
0.0
 40
76.3437672361
100
AcDbArc
 50
156.0425540248
 51
203.9574459752
  0
MTEXT
  5
277
100
AcDbEntity
  8
2201___ HEBELBOCK
390
0
  6
DASHDOT
100
AcDbMText
 10
142.3872240609
 20
91.3213656672
 30
0.0
 40
1.5
 41
0.0
 71
         7
 72
         1
  1
\W1.135110;>2201.7V\PM15+x2 \PT2 O2
  7
Arial
 73
         1
 44
0.66
  0
TEXT
  5
278
100
AcDbEntity
  8
BESCHRIFTUNG
390
0
  6
DIVIDE
100
AcDbText
 10
150.3606557952
 20
133.4751880621
 30
0.0
 40
3.0
  1
2201.7V
 41
1.1350982433
  7
Arial
100
AcDbText
  0
ARC
  5
279
100
AcDbEntity
  8
2201___ HEBELBOCK
390
0
100
AcDbCircle
 10
124.8026279334
 20
129.8468977662
 30
0.0
 40
41.0691734991
100
AcDbArc
 50
138.8960343473
 51
221.1039656527
  0
MTEXT
  5
27A
100
AcDbEntity
  8
2201___ HEBELBOCK
390
0
  6
DASHDOT
100
AcDbMText
 10
78.5917361914
 20
128.4412455658
 30
0.0
 40
1.5
 41
0.0
 71
         7
 72
         1
  1
\W1.135136;>2201.0T\PM50+x5 \PT5 O2
  7
Arial
 73
         1
 44
0.66
  0
CIRCLE
  5
27B
100
AcDbEntity
  8
2201___ HEBELBOCK
390
0
  6
PHANTOM
100
AcDbCircle
 10
24.8912332265
 20
-6.7425662273
 30
0.0
 40
0.5
  0
INSERT
  5
27C
100
AcDbEntity
  8
BEMASSUNG
390
0
100
AcDbBlockReference
  2
D201442048
 10
0.0
 20
0.0
 30
0.0
  0
ARC
  5
27D
100
AcDbEntity
  8
2201___ HEBELBOCK
390
0
100
AcDbCircle
 10
179.9833020502
 20
-35.0640199718
 30
0.0
 40
41.0691734991
100
AcDbArc
 50
138.8960343473
 51
221.1039656527
  0
INSERT
  5
27E
100
AcDbEntity
  8
BEMASSUNG
390
0
100
AcDbBlockReference
  2
D201442304
 10
0.0
 20
0.0
 30
0.0
  0
INSERT
  5
27F
100
AcDbEntity
  8
BEMASSUNG
390
0
100
AcDbBlockReference
  2
D201442560
 10
0.0
 20
0.0
 30
0.0
  0
INSERT
  5
280
100
AcDbEntity
  8
BEMASSUNG
390
0
100
AcDbBlockReference
  2
D201442816
 10
0.0
 20
0.0
 30
0.0
  0
INSERT
  5
281
100
AcDbEntity
  8
BEMASSUNG
390
0
100
AcDbBlockReference
  2
D201443072
 10
0.0
 20
0.0
 30
0.0
  0
INSERT
  5
282
100
AcDbEntity
  8
BEMASSUNG
390
0
100
AcDbBlockReference
  2
D201443328
 10
0.0
 20
0.0
 30
0.0
  0
INSERT
  5
283
100
AcDbEntity
  8
BEMASSUNG
390
0
100
AcDbBlockReference
  2
D201443584
 10
0.0
 20
0.0
 30
0.0
  0
INSERT
  5
284
100
AcDbEntity
  8
BEMASSUNG
390
0
100
AcDbBlockReference
  2
D201443840
 10
0.0
 20
0.0
 30
0.0
  0
INSERT
  5
285
100
AcDbEntity
  8
BEMASSUNG
390
0
100
AcDbBlockReference
  2
D201444096
 10
0.0
 20
0.0
 30
0.0
  0
MTEXT
  5
286
100
AcDbEntity
  8
2201___ HEBELBOCK
390
0
  6
DASHDOT
100
AcDbMText
 10
70.7620413957
 20
-160.2632422668
 30
0.0
 40
1.5
 41
0.0
 71
         5
 72
         1
  1
\W1.135136;>2201.0T\PM50+x5 \PT5 O2
  7
Arial
 73
         1
 44
0.66
  0
MTEXT
  5
287
100
AcDbEntity
  8
2201___ HEBELBOCK
390
0
  6
DASHDOT
100
AcDbMText
 10
83.6142661013
 20
-36.2441951481
 30
0.0
 40
1.5
 41
0.0
 71
         5
 72
         1
  1
\W1.135110;>2201.3P\PM50+x5 \PT5 O2
  7
Arial
 73
         1
 44
0.66
  0
MTEXT
  5
288
100
AcDbEntity
  8
2201___ HEBELBOCK
390
0
  6
DASHDOT
100
AcDbMText
 10
8.3125559863
 20
-205.8695036119
 30
0.0
 40
1.5
 41
0.0
 71
         5
 72
         1
  1
\W1.135145;>2201.1L\PM15x15x2 \PT5 O2
  7
Arial
 73
         1
 44
0.66
  0
MTEXT
  5
289
100
AcDbEntity
  8
2201___ HEBELBOCK
390
0
  6
DASHDOT
100
AcDbMText
 10
123.6953912446
 20
-94.4796521217
 30
0.0
 40
1.5
 41
0.0
 71
         5
 72
         1
  1
\W1.135110;>2201.6P\PM50+x5 \PT5 O2
  7
Arial
 73
         1
 44
0.66
  0
MTEXT
  5
28A
100
AcDbEntity
  8
2201___ HEBELBOCK
390
0
  6
DASHDOT
100
AcDbMText
 10
82.1840870358
 20
-241.1338050661
 30
0.0
 40
1.5
 41
0.0
 71
         5
 72
         1
  1
\W1.135110;>2201.7P\PM60+x2\PT5 O2
  7
Arial
 73
         1
 44
0.66
  0
MTEXT
  5
28B
100
AcDbEntity
  8
2201___ HEBELBOCK
390
0
  6
DASHDOT
100
AcDbMText
 10
4.7570080745
 20
-92.5685177088
 30
0.0
 40
1.5
 41
0.0
 71
         5
 72
         1
  1
\W1.135110;>2201.9P\PM50+x5 \PT5 O2
  7
Arial
 73
         1
 44
0.66
  0
MTEXT
  5
28C
100
AcDbEntity
  8
2201___ HEBELBOCK
390
0
  6
DASHDOT
100
AcDbMText
 10
64.076321249
 20
-93.4994289
 30
0.0
 40
1.5
 41
0.0
 71
         5
 72
         1
  1
\W1.135110;>2201.4P\PM50+x5 \PT5 O2
  7
Arial
 73
         1
 44
0.66
  0
MTEXT
  5
28D
100
AcDbEntity
  8
2201___ HEBELBOCK
390
0
  6
DASHDOT
100
AcDbMText
 10
134.8199608412
 20
-190.6986753171
 30
0.0
 40
1.5
 41
0.0
 71
         5
 72
         1
  1
\W1.135110;>2201.7V\PM10+x2 \PT5 O2
  7
Arial
 73
         1
 44
0.66
  0
MTEXT
  5
28E
100
AcDbEntity
  8
2201___ HEBELBOCK
390
0
  6
DASHDOT
100
AcDbMText
 10
140.5741270263
 20
-35.8037105666
 30
0.0
 40
1.5
 41
0.0
 71
         5
 72
         1
  1
\W1.135110;>2201.5P\PM50+x5 \PT5 O2
  7
Arial
 73
         1
 44
0.66
  0
MTEXT
  5
28F
100
AcDbEntity
  8
2201___ HEBELBOCK
390
0
  6
DASHDOT
100
AcDbMText
 10
86.8956512904
 20
-208.2783896577
 30
0.0
 40
1.5
 41
0.0
 71
         5
 72
         1
  1
\W1.135110;>2201.8P\PM20+x5 \PT5 O2
  7
Arial
 73
         1
 44
0.66
  0
MTEXT
  5
290
100
AcDbEntity
  8
2201___ HEBELBOCK
390
0
  6
DASHDOT
100
AcDbMText
 10
163.2916561658
 20
-187.0604296468
 30
0.0
 40
1.5
 41
0.0
 71
         5
 72
         1
  1
\W1.135110;>2201.2P\PM20+x5\PT5 O2
  7
Arial
 73
         1
 44
0.66
  0
ARC
  5
291
100
AcDbEntity
  8
2201___ HEBELBOCK
390
0
100
AcDbCircle
 10
44.1661830983
 20
-91.8288271141
 30
0.0
 40
41.0691734991
100
AcDbArc
 50
138.8960343473
 51
221.1039656527
  0
ARC
  5
292
100
AcDbEntity
  8
2201___ HEBELBOCK
390
0
100
AcDbCircle
 10
123.0234411251
 20
-35.5045045533
 30
0.0
 40
41.0691734991
100
AcDbArc
 50
138.8960343473
 51
221.1039656527
  0
ARC
  5
293
100
AcDbEntity
  8
2201___ HEBELBOCK
390
0
100
AcDbCircle
 10
103.4854962729
 20
-92.7597383052
 30
0.0
 40
41.0691734991
100
AcDbArc
 50
138.8960343473
 51
221.1039656527
  0
ARC
  5
294
100
AcDbEntity
  8
2201___ HEBELBOCK
390
0
100
AcDbCircle
 10
212.3979558004
 20
-193.0610459327
 30
0.0
 40
76.3437672361
100
AcDbArc
 50
156.0425540248
 51
203.9574459752
  0
ARC
  5
295
100
AcDbEntity
  8
2201___ HEBELBOCK
390
0
100
AcDbCircle
 10
111.6452402929
 20
-159.523551672
 30
0.0
 40
41.0691734991
100
AcDbArc
 50
138.8960343473
 51
221.1039656527
  0
ARC
  5
296
100
AcDbEntity
  8
2201___ HEBELBOCK
390
0
  6
DASHED
100
AcDbCircle
 10
87.6828468688
 20
-240.1821782715
 30
0.0
 40
5.0009759788
100
AcDbArc
 50
91.1319767434
 51
268.8680232566
  0
ARC
  5
297
100
AcDbEntity
  8
2201___ HEBELBOCK
390
0
  6
DASHDOT
100
AcDbCircle
 10
412.4623971179
 20
-204.9178768174
 30
0.0
 40
403.6520572774
100
AcDbArc
 50
169.3281257433
 51
190.6718742567
  0
ARC
  5
298
100
AcDbEntity
  8
2201___ HEBELBOCK
390
0
  6
DASHDOT
100
AcDbCircle
 10
427.65277728
 20
-186.1769694842
 30
0.0
 40
263.36333726
100
AcDbArc
 50
164.4730849169
 51
195.5269150831
  0
ARC
  5
299
100
AcDbEntity
  8
2201___ HEBELBOCK
390
0
  6
HIDDEN
100
AcDbCircle
 10
107.0487341831
 20
-207.3267628632
 30
0.0
 40
19.6552990385
100
AcDbArc
 50
149.4181549605
 51
210.5818450395
  0
ARC
  5
29A
100
AcDbEntity
  8
2201___ HEBELBOCK
390
0
100
AcDbCircle
 10
163.1045662685
 20
-93.7399615269
 30
0.0
 40
41.0691734991
100
AcDbArc
 50
138.8960343473
 51
221.1039656527
  0
LINE
  5
29B
100
AcDbEntity
  8
HILFSLINIEN
390
0
100
AcDbLine
 10
172.9009350941
 20
-256.676969484
 30
0.0
 11
179.7112410625
 21
-256.676969484
 31
0.0
  0
MTEXT
  5
29C
100
AcDbEntity
  8
BESCHRIFTUNG
390
0
  6
DASHED
100
AcDbMText
 10
109.0500744361
 20
215.4332692072
 30
0.0
 40
3.0
 41
0.0
 71
         7
 72
         1
  1
\W1.135092;Grdst. oben\Prechter Hebel
  7
Arial
 73
         1
 44
0.66
  0
MTEXT
  5
29D
100
AcDbEntity
  8
BESCHRIFTUNG
390
0
  6
DASHED
100
AcDbMText
 10
168.6691444318
 20
214.4530459855
 30
0.0
 40
3.0
 41
0.0
 71
         7
 72
         1
  1
\W1.135091;Grdst. unten\Prechter Hebel
  7
Arial
 73
         1
 44
0.66
  0
MTEXT
  5
29E
100
AcDbEntity
  8
BESCHRIFTUNG
390
0
  6
DASHED
100
AcDbMText
 10
178.4361745018
 20
276.2237266704
 30
0.0
 40
3.0
 41
0.0
 71
         7
 72
         1
  1
\W1.135091;Grdst. unten\Plinker Hebel
  7
Arial
 73
         1
 44
0.66
  0
LINE
  5
29F
100
AcDbEntity
  8
MITTELLINIEN
390
0
100
AcDbLine
 10
139.7157514113
 20
94.5158494964
 30
0.0
 11
139.7157514113
 21
64.5158494964
 31
0.0
  0
MTEXT
  5
2A0
100
AcDbEntity
  8
BESCHRIFTUNG
390
0
  6
PHANTOM
100
AcDbMText
 10
68.8467116136
 20
147.6682646841
 30
0.0
 40
2.0
 41
0.0
 71
         7
 72
         1
  1
\W1.026932;Zu W und B: \P1,8+1,5(Rille)\P+1,7(Rest)=5
  7
Arial
 73
         1
 44
0.66
  0
ARC
  5
2A1
100
AcDbEntity
  8
2201_2___4_7 HEBEL
390
0
100
AcDbCircle
 10
120.2993631554
 20
267.0786193985
 30
0.0
 40
1.8
100
AcDbArc
 50
202.2304213454
 51
382.2304213398
  0
LINE
  5
2A2
100
AcDbEntity
  8
2201_2___4_7 HEBEL
390
0
100
AcDbLine
 10
131.6270841198
 20
231.0199338373
 30
0.0
 11
131.6270841198
 21
235.4954954467
 31
0.0
  0
ARC
  5
2A3
100
AcDbEntity
  8
2201_2___4_7 HEBEL
390
0
100
AcDbCircle
 10
129.8270841198
 20
235.4954954467
 30
0.0
 40
1.8
100
AcDbArc
 50
0.0
 51
180.0
  0
LINE
  5
2A4
100
AcDbEntity
  8
2201_2___4_7 HEBEL
390
0
100
AcDbLine
 10
128.0270841198
 20
230.5180706877
 30
0.0
 11
128.0270841198
 21
235.4954954467
 31
0.0
  0
LINE
  5
2A5
100
AcDbEntity
  8
2201_2___4_7 HEBEL
390
0
100
AcDbLine
 10
184.9869450449
 20
230.9585552692
 30
0.0
 11
184.9869450449
 21
235.9359800282
 31
0.0
  0
LINE
  5
2A6
100
AcDbEntity
  8
2201_2___4_7 HEBEL
390
0
100
AcDbLine
 10
188.5869450449
 20
231.4604184188
 30
0.0
 11
188.5869450449
 21
235.9359800282
 31
0.0
  0
ARC
  5
2A7
100
AcDbEntity
  8
2201_2___4_7 HEBEL
390
0
100
AcDbCircle
 10
186.7869450449
 20
235.9359800282
 30
0.0
 40
1.8
100
AcDbArc
 50
0.0
 51
180.0
  0
ARC
  5
2A8
100
AcDbEntity
  8
2201_2___4_7 HEBEL
390
0
  6
DASHED
100
AcDbCircle
 10
184.0369450449
 20
250.9359800282
 30
0.0
 40
19.0
100
AcDbArc
 50
283.8554788707
 51
286.4236839003
  0
ARC
  5
2A9
100
AcDbEntity
  8
2201_2___4_7 HEBEL
390
0
100
AcDbCircle
 10
184.0369450449
 20
250.9359800282
 30
0.0
 40
20.0
100
AcDbArc
 50
283.1499308411
 51
632.7225739834
  0
ARC
  5
2AA
100
AcDbEntity
  8
2201_2___4_7 HEBEL
390
0
  6
DASHED
100
AcDbCircle
 10
184.0369450449
 20
250.9359800282
 30
0.0
 40
19.0
100
AcDbArc
 50
118.0371587852
 51
272.8659839826
  0
ARC
  5
2AB
100
AcDbEntity
  8
2201_2___4_7 HEBEL
390
0
  6
DASHED
100
AcDbCircle
 10
184.0369450449
 20
250.9359800282
 30
0.0
 40
19.0
100
AcDbArc
 50
298.0371587852
 51
466.4236839003
  0
ARC
  5
2AC
100
AcDbEntity
  8
2201_2___4_7 HEBEL
390
0
100
AcDbCircle
 10
164.4082092632
 20
177.2600384731
 30
0.0
 40
1.8
100
AcDbArc
 50
0.0
 51
180.0
  0
ARC
  5
2AD
100
AcDbEntity
  8
2201_2___4_7 HEBEL
390
0
  6
DASHED
100
AcDbCircle
 10
167.1582092632
 20
192.2600384731
 30
0.0
 40
19.0
100
AcDbArc
 50
253.5763160997
 51
256.1445211293
  0
ARC
  5
2AE
100
AcDbEntity
  8
2201_2___4_7 HEBEL
390
0
100
AcDbCircle
 10
167.1582092632
 20
192.2600384731
 30
0.0
 40
20.0
100
AcDbArc
 50
267.2774260166
 51
616.8500691589
  0
ARC
  5
2AF
100
AcDbEntity
  8
2201_2___4_7 HEBEL
390
0
  6
DASHED
100
AcDbCircle
 10
167.1582092632
 20
192.2600384731
 30
0.0
 40
19.0
100
AcDbArc
 50
267.1340160174
 51
421.9628412148
  0
ARC
  5
2B0
100
AcDbEntity
  8
2201_2___4_7 HEBEL
390
0
  6
DASHED
100
AcDbCircle
 10
167.1582092632
 20
192.2600384731
 30
0.0
 40
19.0
100
AcDbArc
 50
73.5763160997
 51
241.9628412148
  0
LINE
  5
2B1
100
AcDbEntity
  8
2201_2___4_7 HEBEL
390
0
100
AcDbLine
 10
162.6082092632
 20
172.7844768638
 30
0.0
 11
162.6082092632
 21
177.2600384731
 31
0.0
  0
LINE
  5
2B2
100
AcDbEntity
  8
2201_2___4_7 HEBEL
390
0
100
AcDbLine
 10
166.2082092632
 20
172.2826137142
 30
0.0
 11
166.2082092632
 21
177.2600384731
 31
0.0
  0
ARC
  5
2B3
100
AcDbEntity
  8
2201_2___4_7 HEBEL
390
0
100
AcDbCircle
 10
104.7891392675
 20
178.2402616948
 30
0.0
 40
1.8
100
AcDbArc
 50
0.0
 51
180.0
  0
ARC
  5
2B4
100
AcDbEntity
  8
2201_2___4_7 HEBEL
390
0
  6
DASHED
100
AcDbCircle
 10
107.5391392675
 20
193.2402616948
 30
0.0
 40
19.0
100
AcDbArc
 50
253.5763160997
 51
256.1445211293
  0
ARC
  5
2B5
100
AcDbEntity
  8
2201_2___4_7 HEBEL
390
0
100
AcDbCircle
 10
107.5391392675
 20
193.2402616948
 30
0.0
 40
20.0
100
AcDbArc
 50
267.2774260166
 51
616.8500691589
  0
ARC
  5
2B6
100
AcDbEntity
  8
2201_2___4_7 HEBEL
390
0
  6
DASHED
100
AcDbCircle
 10
107.5391392675
 20
193.2402616948
 30
0.0
 40
19.0
100
AcDbArc
 50
267.1340160174
 51
421.9628412148
  0
ARC
  5
2B7
100
AcDbEntity
  8
2201_2___4_7 HEBEL
390
0
  6
DASHED
100
AcDbCircle
 10
107.5391392675
 20
193.2402616948
 30
0.0
 40
19.0
100
AcDbArc
 50
73.5763160997
 51
241.9628412148
  0
LINE
  5
2B8
100
AcDbEntity
  8
2201_2___4_7 HEBEL
390
0
100
AcDbLine
 10
102.9891392675
 20
173.7647000855
 30
0.0
 11
102.9891392675
 21
178.2402616948
 31
0.0
  0
LINE
  5
2B9
100
AcDbEntity
  8
2201_2___4_7 HEBEL
390
0
100
AcDbLine
 10
106.5891392675
 20
173.2628369359
 30
0.0
 11
106.5891392675
 21
178.2402616948
 31
0.0
  0
LINE
  5
2BA
100
AcDbEntity
  8
2201_3P
390
0
100
AcDbLine
 10
130.6270841198
 20
230.4777050777
 30
0.0
 11
130.6270841198
 21
235.4954954467
 31
0.0
  0
LINE
  5
2BB
100
AcDbEntity
  8
2201_3P
390
0
100
AcDbLine
 10
129.0270841198
 20
230.488637518
 30
0.0
 11
129.0270841198
 21
235.4954954467
 31
0.0
  0
ARC
  5
2BC
100
AcDbEntity
  8
2201_3P
390
0
100
AcDbCircle
 10
129.8270841198
 20
235.4954954467
 30
0.0
 40
0.8
100
AcDbArc
 50
0.0
 51
180.0
  0
LINE
  5
2BD
100
AcDbEntity
  8
2201_4P
390
0
100
AcDbLine
 10
105.5891392675
 20
173.2628369359
 30
0.0
 11
105.5891392675
 21
178.2402616948
 31
0.0
  0
LINE
  5
2BE
100
AcDbEntity
  8
2201_4P
390
0
100
AcDbLine
 10
103.9891392675
 20
173.2812360254
 30
0.0
 11
103.9891392675
 21
178.2402616948
 31
0.0
  0
ARC
  5
2BF
100
AcDbEntity
  8
2201_4P
390
0
100
AcDbCircle
 10
104.7891392675
 20
178.2402616948
 30
0.0
 40
0.8
100
AcDbArc
 50
0.0
 51
180.0
  0
LINE
  5
2C0
100
AcDbEntity
  8
2201_6P
390
0
100
AcDbLine
 10
165.2082092632
 20
172.2918120079
 30
0.0
 11
165.2082092632
 21
177.2600384731
 31
0.0
  0
ARC
  5
2C1
100
AcDbEntity
  8
2201_6P
390
0
100
AcDbCircle
 10
164.4082092632
 20
177.2600384731
 30
0.0
 40
0.8
100
AcDbArc
 50
0.0
 51
180.0
  0
LINE
  5
2C2
100
AcDbEntity
  8
2201_6P
390
0
100
AcDbLine
 10
163.6082092632
 20
172.4369266306
 30
0.0
 11
163.6082092632
 21
177.2600384731
 31
0.0
  0
LINE
  5
2C3
100
AcDbEntity
  8
2201_5P
390
0
100
AcDbLine
 10
187.5869450449
 20
230.8333208401
 30
0.0
 11
187.5869450449
 21
235.9359800282
 31
0.0
  0
ARC
  5
2C4
100
AcDbEntity
  8
2201_5P
390
0
100
AcDbCircle
 10
186.7869450449
 20
235.9359800282
 30
0.0
 40
0.8
100
AcDbArc
 50
0.0
 51
180.0
  0
LINE
  5
2C5
100
AcDbEntity
  8
2201_5P
390
0
100
AcDbLine
 10
185.9869450449
 20
230.6237559408
 30
0.0
 11
185.9869450449
 21
235.9359800282
 31
0.0
  0
LINE
  5
2C6
100
AcDbEntity
  8
2201_0T
390
0
100
AcDbLine
 10
101.3495774307
 20
147.2126465485
 30
0.0
 11
99.2325874307
 21
147.572906389
 31
0.0
  0
TEXT
  5
2C7
100
AcDbEntity
  8
BESCHRIFTUNG0
390
0
100
AcDbText
 10
128.4049046008
 20
6.8484679633
 30
0.0
 40
3.0
  1
2201 Pv Doppelhebelbock m. Schl
 41
1.1350660526
  7
Arial
 11
128.4049046008
 21
9.8484679633
 31
0.0
100
AcDbText
 73
         3
  0
LINE
  5
2C8
100
AcDbEntity
  8
MITTELLINIEN
390
0
100
AcDbLine
 10
202.9009350941
 20
24.323030516
 30
0.0
 11
202.9009350941
 21
175.323030516
 31
0.0
  0
TEXT
  5
2C9
100
AcDbEntity
  8
BESCHRIFTUNG0
390
0
100
AcDbText
 10
128.4010860399
 20
22.6230888889
 30
0.0
 40
3.0
  1
2024-10-26
 41
1.1351374485
  7
Arial
 11
128.4010860399
 21
25.6230888889
 31
0.0
100
AcDbText
 73
         3
  0
ARC
  5
2CA
100
AcDbEntity
  8
2201_8P
390
0
  6
DASHED
100
AcDbCircle
 10
133.6952849059
 20
80.0652144379
 30
0.0
 40
4.0172737863
100
AcDbArc
 50
18.4903101668
 51
187.8598657154
  0
CIRCLE
  5
2CB
100
AcDbEntity
  8
2201_1L
370
         0
390
0
100
AcDbCircle
 10
31.7919787045
 20
109.3321231826
 30
0.0
 40
1.75
  0
CIRCLE
  5
2CC
100
AcDbEntity
  8
2201_1L
370
         0
390
0
100
AcDbCircle
 10
31.7919787045
 20
78.3321231826
 30
0.0
 40
1.75
  0
LINE
  5
2CD
100
AcDbEntity
  8
2201_1L
390
0
  6
DASHED
100
AcDbLine
 10
31.7919787045
 20
109.3321231826
 30
0.0
 11
39.2919787045
 21
109.3321231826
 31
0.0
  0
LINE
  5
2CE
100
AcDbEntity
  8
2201_1L
390
0
  6
DASHED
100
AcDbLine
 10
31.7919787045
 20
78.3321231826
 30
0.0
 11
39.2919787045
 21
78.3321231826
 31
0.0
  0
CIRCLE
  5
2CF
100
AcDbEntity
  8
2201_1L
390
0
100
AcDbCircle
 10
32.7919787045
 20
11.3321231826
 30
0.0
 40
1.25
  0
CIRCLE
  5
2D0
100
AcDbEntity
  8
2201_1L
390
0
100
AcDbCircle
 10
32.7919787045
 20
35.3321231826
 30
0.0
 40
1.25
  0
CIRCLE
  5
2D1
100
AcDbEntity
  8
2201_1L
390
0
100
AcDbCircle
 10
39.7919787045
 20
35.3321231826
 30
0.0
 40
1.25
  0
LINE
  5
2D2
100
AcDbEntity
  8
2201_1L
390
0
  6
HIDDEN
100
AcDbLine
 10
32.7919787045
 20
35.3321231826
 30
0.0
 11
39.7919787045
 21
35.3321231826
 31
0.0
  0
LINE
  5
2D3
100
AcDbEntity
  8
2201_1L
390
0
  6
HIDDEN
100
AcDbLine
 10
39.7919787045
 20
35.3321231826
 30
0.0
 11
32.7919787045
 21
11.3321231826
 31
0.0
  0
CIRCLE
  5
2D4
100
AcDbEntity
  8
2201_9P
390
0
100
AcDbCircle
 10
42.0085020549
 20
189.9648140428
 30
0.0
 40
1.25
  0
LINE
  5
2D5
100
AcDbEntity
  8
2201_9P
390
0
  6
DASHED
100
AcDbLine
 10
42.0085020549
 20
189.9648140428
 30
0.0
 11
37.8685025062
 21
187.1611728859
 31
0.0
  0
LINE
  5
2D6
100
AcDbEntity
  8
2201_2___4_7 HEBEL
390
0
100
AcDbLine
 10
102.6176417155
 20
71.372620441
 30
0.0
 11
95.6176417155
 21
71.372620441
 31
0.0
  0
LINE
  5
2D7
100
AcDbEntity
  8
2201_2___4_7 HEBEL
390
0
100
AcDbLine
 10
102.6176417155
 20
70.872620441
 30
0.0
 11
95.6176417155
 21
70.872620441
 31
0.0
  0
LINE
  5
2D8
100
AcDbEntity
  8
2201_2___4_7 HEBEL
390
0
100
AcDbLine
 10
66.1429638785
 20
74.872620441
 30
0.0
 11
66.1429638785
 21
70.872620441
 31
0.0
  0
LINE
  5
2D9
100
AcDbEntity
  8
2201_2___4_7 HEBEL
390
0
100
AcDbLine
 10
83.1429638785
 20
70.872620441
 30
0.0
 11
83.1429638785
 21
74.872620441
 31
0.0
  0
LINE
  5
2DA
100
AcDbEntity
  8
2201_2___4_7 HEBEL
390
0
100
AcDbLine
 10
66.1429638785
 20
71.372620441
 30
0.0
 11
83.1429638785
 21
71.372620441
 31
0.0
  0
LINE
  5
2DB
100
AcDbEntity
  8
2201_2___4_7 HEBEL
390
0
100
AcDbLine
 10
66.1429638785
 20
74.872620441
 30
0.0
 11
83.1429638785
 21
74.872620441
 31
0.0
  0
LINE
  5
2DC
100
AcDbEntity
  8
2201_2___4_7 HEBEL
390
0
100
AcDbLine
 10
102.6176417155
 20
74.872620441
 30
0.0
 11
102.6176417155
 21
70.872620441
 31
0.0
  0
LINE
  5
2DD
100
AcDbEntity
  8
2201_2___4_7 HEBEL
390
0
100
AcDbLine
 10
66.1429638785
 20
70.872620441
 30
0.0
 11
83.1429638785
 21
70.872620441
 31
0.0
  0
LINE
  5
2DE
100
AcDbEntity
  8
2201_2___4_7 HEBEL
390
0
100
AcDbLine
 10
66.1429638785
 20
74.372620441
 30
0.0
 11
83.1429638785
 21
74.372620441
 31
0.0
  0
LINE
  5
2DF
100
AcDbEntity
  8
2201_2___4_7 HEBEL
390
0
100
AcDbLine
 10
102.6176417155
 20
74.872620441
 30
0.0
 11
95.6176417155
 21
74.872620441
 31
0.0
  0
LINE
  5
2E0
100
AcDbEntity
  8
2201_2___4_7 HEBEL
390
0
100
AcDbLine
 10
95.6176417155
 20
70.872620441
 30
0.0
 11
95.6176417155
 21
74.872620441
 31
0.0
  0
LINE
  5
2E1
100
AcDbEntity
  8
2201_2___4_7 HEBEL
390
0
100
AcDbLine
 10
102.6176417155
 20
74.372620441
 30
0.0
 11
95.6176417155
 21
74.372620441
 31
0.0
  0
TEXT
  5
2E2
100
AcDbEntity
  8
BESCHRIFTUNG
390
0
  6
DIVIDE
100
AcDbText
 10
64.0852455614
 20
81.0145028279
 30
0.0
 40
3.0
  1
2201.14/4
 41
1.1351356536
  7
Arial
100
AcDbText
  0
TEXT
  5
2E3
100
AcDbEntity
  8
BESCHRIFTUNG
390
0
  6
DIVIDE
100
AcDbText
 10
86.471550161
 20
81.0145028279
 30
0.0
 40
3.0
  1
2201.15/4
 41
1.1351355805
  7
Arial
100
AcDbText
  0
LINE
  5
2E4
100
AcDbEntity
  8
MITTELLINIEN
390
0
100
AcDbLine
 10
61.1429638785
 20
72.872620441
 30
0.0
 11
88.1429638785
 21
72.872620441
 31
0.0
  0
LINE
  5
2E5
100
AcDbEntity
  8
MITTELLINIEN
390
0
100
AcDbLine
 10
107.6176417155
 20
72.872620441
 30
0.0
 11
90.6176417155
 21
72.872620441
 31
0.0
  0
INSERT
  5
2E6
100
AcDbEntity
  8
BEMASSUNG
390
0
100
AcDbBlockReference
  2
D296180224
 10
0.0
 20
0.0
 30
0.0
  0
INSERT
  5
2E7
100
AcDbEntity
  8
BEMASSUNG
390
0
100
AcDbBlockReference
  2
D550418176
 10
0.0
 20
0.0
 30
0.0
  0
TEXT
  5
2E8
100
AcDbEntity
  8
BESCHRIFTUNG
390
0
100
AcDbText
 10
62.6756585724
 20
86.476087814
 30
0.0
 40
3.0
  1
M
 41
1.1350193204
  7
Arial
100
AcDbText
  0
TEXT
  5
2E9
100
AcDbEntity
  8
BESCHRIFTUNG
390
0
100
AcDbText
 10
85.1736987948
 20
86.476087814
 30
0.0
 40
3.0
  1
M
 41
1.1350193204
  7
Arial
100
AcDbText
  0
LINE
  5
2EA
100
AcDbEntity
  8
2201_2___4_7 HEBEL
390
0
100
AcDbLine
 10
118.6331574457
 20
266.39762121
 30
0.0
 11
117.8749390986
 21
268.2527623258
 31
0.0
  0
LINE
  5
2EB
100
AcDbEntity
  8
2201_2___4_7 HEBEL
390
0
100
AcDbLine
 10
121.9655688652
 20
267.7596175869
 30
0.0
 11
121.2097881591
 21
269.6087944997
 31
0.0
  0
LINE
  5
2EC
100
AcDbEntity
  8
2201_3P
390
0
  6
DIVIDE
100
AcDbLine
 10
119.5588272845
 20
266.7759535369
 30
0.0
 11
117.7554100957
 21
271.188394081
 31
0.0
  0
LINE
  5
2ED
100
AcDbEntity
  8
2201_3P
390
0
  6
DIVIDE
100
AcDbLine
 10
121.0398990264
 20
267.3812852599
 30
0.0
 11
119.4099621153
 21
271.3692697124
 31
0.0
  0
ARC
  5
2EE
100
AcDbEntity
  8
2201_3P
390
0
  6
DIVIDE
100
AcDbCircle
 10
120.2993631554
 20
267.0786193985
 30
0.0
 40
0.8
100
AcDbArc
 50
202.2304213454
 51
382.2304213398
  0
LINE
  5
2EF
100
AcDbEntity
  8
2201_2___4_7 HEBEL
390
0
100
AcDbLine
 10
135.5210107939
 20
234.5933696834
 30
0.0
 11
136.279229141
 21
232.7382285676
 31
0.0
  0
LINE
  5
2F0
100
AcDbEntity
  8
2201_2___4_7 HEBEL
390
0
100
AcDbLine
 10
132.1885993745
 20
233.2313733066
 30
0.0
 11
132.9443800805
 21
231.3821963938
 31
0.0
  0
ARC
  5
2F1
100
AcDbEntity
  8
2201_3P
390
0
  6
DIVIDE
100
AcDbCircle
 10
133.8548050843
 20
233.9123714949
 30
0.0
 40
0.8
100
AcDbArc
 50
22.2304213454
 51
202.2304213398
  0
ARC
  5
2F2
100
AcDbEntity
  8
2201_2___4_7 HEBEL
390
0
100
AcDbCircle
 10
133.8548050843
 20
233.9123714949
 30
0.0
 40
1.8
100
AcDbArc
 50
22.2304213454
 51
202.2304213398
  0
LINE
  5
2F3
100
AcDbEntity
  8
2201_3P
390
0
  6
DIVIDE
100
AcDbLine
 10
134.5953409552
 20
234.2150373565
 30
0.0
 11
135.9786360182
 21
230.8305142089
 31
0.0
  0
LINE
  5
2F4
100
AcDbEntity
  8
2201_3P
390
0
  6
DIVIDE
100
AcDbLine
 10
133.1142692132
 20
233.6097056335
 30
0.0
 11
133.9918353639
 21
231.4625549425
 31
0.0
  0
LINE
  5
2F5
100
AcDbEntity
  8
2201_2___4_7 HEBEL
390
0
100
AcDbLine
 10
175.5930183708
 20
266.8381057915
 30
0.0
 11
174.8348000237
 21
268.6932469073
 31
0.0
  0
LINE
  5
2F6
100
AcDbEntity
  8
2201_2___4_7 HEBEL
390
0
100
AcDbLine
 10
178.9254297903
 20
268.2001021684
 30
0.0
 11
178.1696490842
 21
270.0492790812
 31
0.0
  0
LINE
  5
2F7
100
AcDbEntity
  8
2201_5P
390
0
  6
DIVIDE
100
AcDbLine
 10
190.0741301383
 20
234.050190215
 30
0.0
 11
190.951696289
 21
231.903039524
 31
0.0
  0
LINE
  5
2F8
100
AcDbEntity
  8
2201_2___4_7 HEBEL
390
0
100
AcDbLine
 10
192.480871719
 20
235.0338542649
 30
0.0
 11
193.2390900661
 21
233.1787131491
 31
0.0
  0
LINE
  5
2F9
100
AcDbEntity
  8
2201_5P
390
0
  6
DIVIDE
100
AcDbLine
 10
191.5552018803
 20
234.655521938
 30
0.0
 11
192.6379786568
 21
232.006280166
 31
0.0
  0
LINE
  5
2FA
100
AcDbEntity
  8
2201_2___4_7 HEBEL
390
0
100
AcDbLine
 10
189.1484602995
 20
233.6718578881
 30
0.0
 11
189.9042410056
 21
231.8226809752
 31
0.0
  0
ARC
  5
2FB
100
AcDbEntity
  8
2201_5P
390
0
  6
DIVIDE
100
AcDbCircle
 10
177.2592240805
 20
267.51910398
 30
0.0
 40
0.8
100
AcDbArc
 50
202.2304213454
 51
382.2304213398
  0
ARC
  5
2FC
100
AcDbEntity
  8
2201_5P
390
0
  6
DIVIDE
100
AcDbCircle
 10
190.8146660093
 20
234.3528560764
 30
0.0
 40
0.8
100
AcDbArc
 50
22.2304213454
 51
202.2304213398
  0
ARC
  5
2FD
100
AcDbEntity
  8
2201_2___4_7 HEBEL
390
0
100
AcDbCircle
 10
190.8146660093
 20
234.3528560764
 30
0.0
 40
1.8
100
AcDbArc
 50
22.2304213454
 51
202.2304213398
  0
ARC
  5
2FE
100
AcDbEntity
  8
2201_2___4_7 HEBEL
390
0
  6
DASHED
100
AcDbCircle
 10
184.0369450449
 20
250.9359800282
 30
0.0
 40
19.0
100
AcDbArc
 50
283.8554788707
 51
286.4236839003
  0
ARC
  5
2FF
100
AcDbEntity
  8
2201_2___4_7 HEBEL
390
0
100
AcDbCircle
 10
177.2592240805
 20
267.51910398
 30
0.0
 40
1.8
100
AcDbArc
 50
202.2304213454
 51
382.2304213398
  0
LINE
  5
300
100
AcDbEntity
  8
2201_5P
390
0
  6
DIVIDE
100
AcDbLine
 10
176.5186882095
 20
267.2164381184
 30
0.0
 11
175.6169796151
 21
269.4226583904
 31
0.0
  0
LINE
  5
301
100
AcDbEntity
  8
2201_5P
390
0
  6
DIVIDE
100
AcDbLine
 10
177.9997599515
 20
267.8217698414
 30
0.0
 11
177.184791496
 21
269.8157620677
 31
0.0
  0
LINE
  5
302
100
AcDbEntity
  8
2201_4P
390
0
  6
DIVIDE
100
AcDbLine
 10
113.5763243609
 20
210.1260515081
 30
0.0
 11
114.3912928165
 21
212.1200437343
 31
0.0
  0
LINE
  5
303
100
AcDbEntity
  8
2201_2___4_7 HEBEL
390
0
100
AcDbLine
 10
102.4276240129
 20
175.9761395547
 30
0.0
 11
101.6718433068
 21
174.1269626419
 31
0.0
  0
LINE
  5
304
100
AcDbEntity
  8
2201_4P
390
0
  6
DIVIDE
100
AcDbLine
 10
100.0208824322
 20
176.9598036047
 30
0.0
 11
98.6375873692
 21
173.575280457
 31
0.0
  0
LINE
  5
305
100
AcDbEntity
  8
2201_2___4_7 HEBEL
390
0
100
AcDbLine
 10
99.0952125934
 20
177.3381359316
 30
0.0
 11
98.3369942463
 21
175.4829948157
 31
0.0
  0
LINE
  5
306
100
AcDbEntity
  8
2201_4P
390
0
  6
DIVIDE
100
AcDbLine
 10
101.5019541741
 20
176.3544718816
 30
0.0
 11
100.6243880235
 21
174.2073211906
 31
0.0
  0
LINE
  5
307
100
AcDbEntity
  8
2201_2___4_7 HEBEL
390
0
100
AcDbLine
 10
112.6506545222
 20
210.504383835
 30
0.0
 11
113.4064352282
 21
212.3535607478
 31
0.0
  0
LINE
  5
308
100
AcDbEntity
  8
2201_2___4_7 HEBEL
390
0
100
AcDbLine
 10
115.9830659417
 20
209.1423874581
 30
0.0
 11
116.7412842888
 21
210.9975285739
 31
0.0
  0
ARC
  5
309
100
AcDbEntity
  8
2201_4P
390
0
  6
DIVIDE
100
AcDbCircle
 10
114.316860232
 20
209.8233856466
 30
0.0
 40
0.8
100
AcDbArc
 50
157.7695786602
 51
337.7695786546
  0
ARC
  5
30A
100
AcDbEntity
  8
2201_4P
390
0
  6
DIVIDE
100
AcDbCircle
 10
100.7614183031
 20
176.6571377431
 30
0.0
 40
0.8
100
AcDbArc
 50
337.7695786602
 51
517.7695786546
  0
ARC
  5
30B
100
AcDbEntity
  8
2201_2___4_7 HEBEL
390
0
100
AcDbCircle
 10
100.7614183031
 20
176.6571377431
 30
0.0
 40
1.8
100
AcDbArc
 50
337.7695786602
 51
517.7695786546
  0
ARC
  5
30C
100
AcDbEntity
  8
2201_2___4_7 HEBEL
390
0
100
AcDbCircle
 10
114.316860232
 20
209.8233856466
 30
0.0
 40
1.8
100
AcDbArc
 50
157.7695786602
 51
337.7695786546
  0
LINE
  5
30D
100
AcDbEntity
  8
2201_6P
390
0
  6
DIVIDE
100
AcDbLine
 10
173.1953943566
 20
209.1458282864
 30
0.0
 11
174.0103628121
 21
211.1398205126
 31
0.0
  0
LINE
  5
30E
100
AcDbEntity
  8
2201_6P
390
0
  6
DIVIDE
100
AcDbLine
 10
174.6764660985
 20
208.5404965633
 30
0.0
 11
175.5781746929
 21
210.7467168354
 31
0.0
  0
LINE
  5
30F
100
AcDbEntity
  8
2201_2___4_7 HEBEL
390
0
100
AcDbLine
 10
162.0466940085
 20
174.995916333
 30
0.0
 11
161.2909133025
 21
173.1467394202
 31
0.0
  0
LINE
  5
310
100
AcDbEntity
  8
2201_6P
390
0
  6
DIVIDE
100
AcDbLine
 10
159.6399524278
 20
175.979580383
 30
0.0
 11
158.2566573648
 21
172.5950572353
 31
0.0
  0
LINE
  5
311
100
AcDbEntity
  8
2201_2___4_7 HEBEL
390
0
100
AcDbLine
 10
158.714282589
 20
176.3579127099
 30
0.0
 11
157.9560642419
 21
174.502771594
 31
0.0
  0
LINE
  5
312
100
AcDbEntity
  8
2201_6P
390
0
  6
DIVIDE
100
AcDbLine
 10
161.1210241698
 20
175.3742486599
 30
0.0
 11
160.2434580191
 21
173.2270979689
 31
0.0
  0
LINE
  5
313
100
AcDbEntity
  8
2201_2___4_7 HEBEL
390
0
100
AcDbLine
 10
172.2697245178
 20
209.5241606133
 30
0.0
 11
173.0255052239
 21
211.3733375261
 31
0.0
  0
LINE
  5
314
100
AcDbEntity
  8
2201_2___4_7 HEBEL
390
0
100
AcDbLine
 10
175.6021359373
 20
208.1621642364
 30
0.0
 11
176.3603542844
 21
210.0173053522
 31
0.0
  0
ARC
  5
315
100
AcDbEntity
  8
2201_6P
390
0
  6
DIVIDE
100
AcDbCircle
 10
173.9359302276
 20
208.8431624249
 30
0.0
 40
0.8
100
AcDbArc
 50
157.7695786602
 51
337.7695786546
  0
ARC
  5
316
100
AcDbEntity
  8
2201_6P
390
0
  6
DIVIDE
100
AcDbCircle
 10
160.3804882987
 20
175.6769145214
 30
0.0
 40
0.8
100
AcDbArc
 50
337.7695786602
 51
517.7695786546
  0
ARC
  5
317
100
AcDbEntity
  8
2201_2___4_7 HEBEL
390
0
100
AcDbCircle
 10
160.3804882987
 20
175.6769145214
 30
0.0
 40
1.8
100
AcDbArc
 50
337.7695786602
 51
517.7695786546
  0
ARC
  5
318
100
AcDbEntity
  8
2201_2___4_7 HEBEL
390
0
100
AcDbCircle
 10
173.9359302276
 20
208.8431624249
 30
0.0
 40
1.8
100
AcDbArc
 50
157.7695786602
 51
337.7695786546
  0
LINE
  5
319
100
AcDbEntity
  8
2201_4P
390
0
  6
DIVIDE
100
AcDbLine
 10
115.057396103
 20
209.520719785
 30
0.0
 11
115.9591046985
 21
211.7269400597
 31
0.0
  0
CIRCLE
  5
31A
100
AcDbEntity
  8
HILFSLINIEN
390
0
100
AcDbCircle
 10
175.617
 20
269.423
 30
0.0
 40
15.0
  0
CIRCLE
  5
31B
100
AcDbEntity
  8
HILFSLINIEN
390
0
100
AcDbCircle
 10
176.37
 20
271.81
 30
0.0
 40
7.5
  0
INSERT
  5
31C
100
AcDbEntity
  8
2201_3P
390
0
100
AcDbBlockReference
  2
_A315417472
 10
123.0411529541
 20
139.3468933105
 30
0.0
  0
LINE
  5
31D
100
AcDbEntity
  8
STANDARD
390
0
100
AcDbLine
 10
10.0
 20
5.0
 30
0.0
 11
10.0
 21
292.0
 31
0.0
  0
LINE
  5
31E
100
AcDbEntity
  8
STANDARD
390
0
100
AcDbLine
 10
15.0
 20
287.0
 30
0.0
 11
205.0
 21
287.0
 31
0.0
  0
LINE
  5
31F
100
AcDbEntity
  8
STANDARD
390
0
100
AcDbLine
 10
10.0
 20
292.0
 30
0.0
 11
15.0
 21
292.0
 31
0.0
  0
LINE
  5
320
100
AcDbEntity
  8
STANDARD
390
0
100
AcDbLine
 10
10.0
 20
5.0
 30
0.0
 11
15.0
 21
5.0
 31
0.0
  0
LINE
  5
321
100
AcDbEntity
  8
STANDARD
390
0
100
AcDbLine
 10
10.0
 20
244.1666666667
 30
0.0
 11
15.0
 21
244.1666666667
 31
0.0
  0
LINE
  5
322
100
AcDbEntity
  8
STANDARD
390
0
100
AcDbLine
 10
10.0
 20
196.3333333333
 30
0.0
 11
15.0
 21
196.3333333333
 31
0.0
  0
LINE
  5
323
100
AcDbEntity
  8
STANDARD
390
0
100
AcDbLine
 10
10.0
 20
148.5
 30
0.0
 11
15.0
 21
148.5
 31
0.0
  0
LINE
  5
324
100
AcDbEntity
  8
STANDARD
390
0
100
AcDbLine
 10
10.0
 20
100.6666666667
 30
0.0
 11
15.0
 21
100.6666666667
 31
0.0
  0
LINE
  5
325
100
AcDbEntity
  8
STANDARD
390
0
100
AcDbLine
 10
10.0
 20
52.8333333333
 30
0.0
 11
15.0
 21
52.8333333333
 31
0.0
  0
LINE
  5
326
100
AcDbEntity
  8
STANDARD
390
0
100
AcDbLine
 10
157.5
 20
292.0
 30
0.0
 11
157.5
 21
287.0
 31
0.0
  0
LINE
  5
327
100
AcDbEntity
  8
STANDARD
390
0
100
AcDbLine
 10
110.0
 20
292.0
 30
0.0
 11
110.0
 21
287.0
 31
0.0
  0
LINE
  5
328
100
AcDbEntity
  8
STANDARD
390
0
100
AcDbLine
 10
62.5
 20
292.0
 30
0.0
 11
62.5
 21
287.0
 31
0.0
  0
TEXT
  5
329
100
AcDbEntity
  8
STANDARD
390
0
100
AcDbText
 10
10.9491078691
 20
267.8641561278
 30
0.0
 40
2.23125
  1
A
 41
1.547986837
  7
Arial
 72
         1
 11
12.6760806841
 21
270.0954061278
 31
0.0
100
AcDbText
 73
         3
  0
TEXT
  5
32A
100
AcDbEntity
  8
STANDARD
390
0
100
AcDbText
 10
10.9491074243
 20
220.0308227945
 30
0.0
 40
2.23125
  1
B
 41
1.5479872357
  7
Arial
 72
         1
 11
12.6760806841
 21
222.2620727945
 31
0.0
100
AcDbText
 73
         3
  0
TEXT
  5
32B
100
AcDbEntity
  8
STANDARD
390
0
100
AcDbText
 10
10.9489779593
 20
172.1974894612
 30
0.0
 40
2.23125
  1
C
 41
1.5481032827
  7
Arial
 72
         1
 11
12.6760806841
 21
174.4287394612
 31
0.0
100
AcDbText
 73
         3
  0
TEXT
  5
32C
100
AcDbEntity
  8
STANDARD
390
0
100
AcDbText
 10
10.9489771034
 20
124.3641561278
 30
0.0
 40
2.23125
  1
D
 41
1.54810405
  7
Arial
 72
         1
 11
12.6760806841
 21
126.5954061278
 31
0.0
100
AcDbText
 73
         3
  0
TEXT
  5
32D
100
AcDbEntity
  8
STANDARD
390
0
100
AcDbText
 10
10.9491076096
 20
76.5308227945
 30
0.0
 40
2.23125
  1
E
 41
1.5479870696
  7
Arial
 72
         1
 11
12.6760806841
 21
78.7620727945
 31
0.0
100
AcDbText
 73
         3
  0
TEXT
  5
32E
100
AcDbEntity
  8
STANDARD
390
0
100
AcDbText
 10
10.9493506612
 20
28.6974894612
 30
0.0
 40
2.23125
  1
F
 41
1.5477692083
  7
Arial
 72
         1
 11
12.6760806841
 21
30.9287394612
 31
0.0
100
AcDbText
 73
         3
  0
TEXT
  5
32F
100
AcDbEntity
  8
STANDARD
390
0
100
AcDbText
 10
36.7048241449
 20
288.48599354
 30
0.0
 40
2.23125
  1
1
 41
1.5479225906
  7
Arial
 72
         1
 11
38.0
 21
290.71724354
 31
0.0
100
AcDbText
 73
         3
  0
TEXT
  5
330
100
AcDbEntity
  8
STANDARD
390
0
100
AcDbText
 10
83.7730999712
 20
288.48599354
 30
0.0
 40
2.23125
  1
2
 41
1.5479215945
  7
Arial
 72
         1
 11
85.5
 21
290.71724354
 31
0.0
100
AcDbText
 73
         3
  0
TEXT
  5
331
100
AcDbEntity
  8
STANDARD
390
0
100
AcDbText
 10
131.2730986376
 20
288.48599354
 30
0.0
 40
2.23125
  1
3
 41
1.5479227899
  7
Arial
 72
         1
 11
133.0
 21
290.71724354
 31
0.0
100
AcDbText
 73
         3
  0
TEXT
  5
332
100
AcDbEntity
  8
STANDARD
390
0
100
AcDbText
 10
178.7730988598
 20
288.48599354
 30
0.0
 40
2.23125
  1
4
 41
1.5479225906
  7
Arial
 72
         1
 11
180.5
 21
290.71724354
 31
0.0
100
AcDbText
 73
         3
  0
LINE
  5
333
100
AcDbEntity
  8
STANDARD
390
0
100
AcDbLine
 10
205.0
 20
292.0
 30
0.0
 11
205.0
 21
287.0
 31
0.0
  0
LINE
  5
334
100
AcDbEntity
  8
STANDARD
390
0
100
AcDbLine
 10
205.0
 20
5.0
 30
0.0
 11
15.0
 21
5.0
 31
0.0
  0
LINE
  5
335
100
AcDbEntity
  8
STANDARD
390
0
100
AcDbLine
 10
15.0
 20
5.0
 30
0.0
 11
15.0
 21
287.0
 31
0.0
  0
LINE
  5
336
100
AcDbEntity
  8
STANDARD
390
0
100
AcDbLine
 10
15.0
 20
292.0
 30
0.0
 11
205.0
 21
292.0
 31
0.0
  0
LINE
  5
337
100
AcDbEntity
  8
STANDARD
390
0
100
AcDbLine
 10
1.0
 20
1.0
 30
0.0
 11
1.0
 21
296.0
 31
0.0
  0
LINE
  5
338
100
AcDbEntity
  8
STANDARD
390
0
100
AcDbLine
 10
209.0
 20
1.0
 30
0.0
 11
1.0
 21
1.0
 31
0.0
  0
LINE
  5
339
100
AcDbEntity
  8
STANDARD
390
0
100
AcDbLine
 10
209.0
 20
296.0
 30
0.0
 11
209.0
 21
1.0
 31
0.0
  0
LINE
  5
33A
100
AcDbEntity
  8
STANDARD
390
0
100
AcDbLine
 10
1.0
 20
296.0
 30
0.0
 11
209.0
 21
296.0
 31
0.0
  0
LINE
  5
33B
100
AcDbEntity
  8
STANDARD
390
0
100
AcDbLine
 10
15.0
 20
287.0
 30
0.0
 11
15.0
 21
292.0
 31
0.0
  0
LINE
  5
33C
100
AcDbEntity
  8
STANDARD
390
0
100
AcDbLine
 10
205.0
 20
287.0
 30
0.0
 11
205.0
 21
5.0
 31
0.0
  0
MTEXT
  5
33D
100
AcDbEntity
  8
STANDARD
390
0
100
AcDbMText
 10
203.6063292805
 20
81.4222772661
 30
0.0
 40
1.59375
 41
0.0
 71
         1
 72
         1
  1

  7
Arial
 11
0.0
 21
-1.0
 31
0.0
 73
         1
 44
1.0352941176
  0
MTEXT
  5
33E
100
AcDbEntity
  8
STANDARD
390
0
100
AcDbMText
 10
203.6103242188
 20
27.5871143065
 30
0.0
 40
1.59375
 41
0.0
 71
         1
 72
         1
  1

  7
Arial
 11
0.0
 21
-1.0
 31
0.0
 73
         1
 44
1.0352941176
  0
MTEXT
  5
33F
100
AcDbEntity
  8
STANDARD
390
0
100
AcDbMText
 10
203.6063292805
 20
125.7560948498
 30
0.0
 40
1.59375
 41
0.0
 71
         1
 72
         1
  1

  7
Arial
 11
0.0
 21
-1.0
 31
0.0
 73
         1
 44
1.0352941176
  0
LINE
  5
340
100
AcDbEntity
  8
STANDARD
370
         0
390
0
100
AcDbLine
 10
81.105982906
 20
27.4
 30
0.0
 11
205.0
 21
27.4
 31
0.0
  0
LINE
  5
341
100
AcDbEntity
  8
STANDARD
370
         0
390
0
100
AcDbLine
 10
81.105982906
 20
20.4
 30
0.0
 11
205.0
 21
20.4
 31
0.0
  0
LINE
  5
342
100
AcDbEntity
  8
STANDARD
370
         0
390
0
100
AcDbLine
 10
81.105982906
 20
12.0
 30
0.0
 11
205.0
 21
12.0
 31
0.0
  0
LINE
  5
343
100
AcDbEntity
  8
STANDARD
390
0
100
AcDbLine
 10
205.0
 20
182.1150997151
 30
0.0
 11
205.0
 21
5.1236467236
 31
0.0
  0
LINE
  5
344
100
AcDbEntity
  8
STANDARD
370
         0
390
0
100
AcDbLine
 10
81.105982906
 20
27.4
 30
0.0
 11
81.105982906
 21
5.0
 31
0.0
  0
LINE
  5
345
100
AcDbEntity
  8
STANDARD
370
         0
390
0
100
AcDbLine
 10
127.305982906
 20
27.4
 30
0.0
 11
127.305982906
 21
5.0
 31
0.0
  0
LINE
  5
346
100
AcDbEntity
  8
STANDARD
370
         0
390
0
100
AcDbLine
 10
165.105982906
 20
27.4
 30
0.0
 11
165.105982906
 21
20.4
 31
0.0
  0
TEXT
  5
347
100
AcDbEntity
  8
BESCHRIFTUNG0
390
0
100
AcDbText
 10
82.2010860399
 20
22.1136
 30
0.0
 40
3.325
  1
Stellwerk HMM
 41
1.3653781858
  7
Arial
 11
82.2010860399
 21
25.4386
 31
0.0
100
AcDbText
 73
         3
  0
TEXT
  5
348
100
AcDbEntity
  8
BESCHRIFTUNG0
390
0
100
AcDbText
 10
128.6210415954
 20
14.6351111111
 30
0.0
 40
3.325
  1
Hebelbock mit Schlössern
 41
1.1349655524
 51
15.0
  7
Arial
 11
128.6210415954
 21
17.9601111111
 31
0.0
100
AcDbText
 73
         3
  0
TEXT
  5
349
100
AcDbEntity
  8
BESCHRIFTUNG0
390
0
100
AcDbText
 10
82.2010860399
 20
6.8980888889
 30
0.0
 40
3.325
  1
Dateiname
 41
1.1350744463
 51
15.0
  7
Arial
 11
82.2010860399
 21
10.2230888889
 31
0.0
100
AcDbText
 73
         3
  0
TEXT
  5
34A
100
AcDbEntity
  8
BESCHRIFTUNG0
390
0
100
AcDbText
 10
82.4210415954
 20
14.6351111111
 30
0.0
 40
3.325
  1
Bl. 2201 Pv
 41
1.1349493355
 51
15.0
  7
Arial
 11
82.4210415954
 21
17.9601111111
 31
0.0
100
AcDbText
 73
         3
  0
TEXT
  5
34B
100
AcDbEntity
  8
BESCHRIFTUNG0
390
0
100
AcDbText
 10
166.2010860399
 20
22.1136
 30
0.0
 40
3.325
  1
Maßstab 1:1
 41
1.1349345608
 51
15.0
  7
Arial
 11
166.2010860399
 21
25.4386
 31
0.0
100
AcDbText
 73
         3
  0
ENDSEC
  0
SECTION
  2
OBJECTS
  0
DICTIONARY
  5
19
100
AcDbDictionary
280
         0
281
         1
  3
ACAD_GROUP
350
1A
  3
ACAD_MLINESTYLE
350
1B
  3
ACAD_LAYOUT
350
1E
  3
ACAD_PLOTSETTINGS
350
22
  3
ACAD_PLOTSTYLENAME
350
1F
  3
ACAD_WIPEOUT_VARS
350
23
  0
DICTIONARY
  5
1A
102
{ACAD_REACTORS
330
19
102
}
100
AcDbDictionary
280
         0
281
         1
  0
DICTIONARY
  5
1B
102
{ACAD_REACTORS
330
19
102
}
100
AcDbDictionary
280
         0
281
         1
  3
Standard
350
1C
  0
MLINESTYLE
  5
1C
102
{ACAD_REACTORS
330
1B
102
}
100
AcDbMlineStyle
  2
Standard
 70
         0
  3

 62
         0
 51
90.0
 52
90.0
 71
         2
 49
0.5
 62
       256
  6
ByLayer
 49
-0.5
 62
       256
  6
ByLayer
  0
ACDBDICTIONARYWDFLT
  5
1F
102
{ACAD_REACTORS
330
19
102
}
100
AcDbDictionary
281
         1
  3
Normal
350
1D
100
AcDbDictionaryWithDefault
340
1D
  0
ACDBPLACEHOLDER
  5
1D
102
{ACAD_REACTORS
330
1F
102
}
  0
LAYOUT
  5
20
102
{ACAD_REACTORS
330
1E
102
}
100
AcDbPlotSettings
  1

  2

  4

  6

 40
0.0
 41
0.0
 42
0.0
 43
0.0
 44
0.0
 45
0.0
 46
0.0
 47
0.0
 48
0.0
 49
0.0
140
0.0
141
0.0
142
1.0
143
1.0
 70
      1024
 72
         0
 73
         0
 74
         0
  7

 75
         0
147
1.0
148
0.0
149
0.0
100
AcDbLayout
  1
Model
 70
         0
 71
         0
 10
0.0
 20
0.0
 11
0.0
 21
0.0
 12
0.0
 22
0.0
 32
0.0
 14
0.0
 24
0.0
 34
0.0
 15
0.0
 25
0.0
 35
0.0
146
0.0
 13
0.0
 23
0.0
 33
0.0
 16
0.0
 26
0.0
 36
0.0
 17
0.0
 27
0.0
 37
0.0
 76
         0
330
A
331
0
345
0
346
0
  0
LAYOUT
  5
21
102
{ACAD_REACTORS
330
1E
102
}
100
AcDbPlotSettings
  1

  2

  4

  6

 40
0.0
 41
0.0
 42
0.0
 43
0.0
 44
0.0
 45
0.0
 46
0.0
 47
0.0
 48
0.0
 49
0.0
140
0.0
141
0.0
142
1.0
143
1.0
 70
         0
 72
         0
 73
         0
 74
         0
  7

 75
         0
147
1.0
148
0.0
149
0.0
100
AcDbLayout
  1
Layout1
 70
         0
 71
         0
 10
0.0
 20
0.0
 11
0.0
 21
0.0
 12
0.0
 22
0.0
 32
0.0
 14
0.0
 24
0.0
 34
0.0
 15
0.0
 25
0.0
 35
0.0
146
0.0
 13
0.0
 23
0.0
 33
0.0
 16
0.0
 26
0.0
 36
0.0
 17
0.0
 27
0.0
 37
0.0
 76
         0
330
B
331
0
345
0
346
0
  0
DICTIONARY
  5
1E
102
{ACAD_REACTORS
330
19
102
}
100
AcDbDictionary
280
         0
281
         1
  3
Layout1
350
21
  3
Model
350
20
  0
DICTIONARY
  5
22
102
{ACAD_REACTORS
330
19
102
}
100
AcDbDictionary
280
         0
281
         1
  0
WIPEOUTVARIABLES
  5
23
100
AcDbWipeoutVariables
 70
         1
  0
ENDSEC
  0
EOF
