  0
SECTION
  2
HEADER
  9
$ACADVER
  1
AC1015
  9
$ACADMAINTVER
 70
         6
  9
$DWGCODEPAGE
  3
ANSI_1252
  9
$INSBASE
 10
0.0
 20
0.0
 30
0.0
  9
$EXTMIN
 10
0.0
 20
0.0
 30
0.0
  9
$EXTMAX
 10
148.5
 20
105.0
 30
0.0
  9
$LIMMIN
 10
0.0
 20
0.0
  9
$LIMMAX
 10
148.5
 20
105.0
  9
$ORTHOMODE
 70
         0
  9
$REGENMODE
 70
         1
  9
$FILLMODE
 70
         1
  9
$QTEXTMODE
 70
         0
  9
$MIRRTEXT
 70
         1
  9
$LTSCALE
 40
3.7125
  9
$ATTMODE
 70
         1
  9
$TEXTSIZE
 40
0.2
  9
$TRACEWID
 40
0.05
  9
$TEXTSTYLE
  7
Standard
  9
$CLAYER
  8
0
  9
$CELTYPE
  6
CONTINUOUS
  9
$CECOLOR
 62
       256
  9
$CELTSCALE
 40
1.0
  9
$DISPSILH
 70
         0
  9
$DIMSCALE
 40
1.0
  9
$DIMASZ
 40
0.18
  9
$DIMEXO
 40
0.0625
  9
$DIMDLI
 40
0.38
  9
$DIMRND
 40
0.0
  9
$DIMDLE
 40
0.0
  9
$DIMEXE
 40
0.18
  9
$DIMTP
 40
0.0
  9
$DIMTM
 40
0.0
  9
$DIMTXT
 40
3.0
  9
$DIMCEN
 40
0.09
  9
$DIMTSZ
 40
0.0
  9
$DIMTOL
 70
         0
  9
$DIMLIM
 70
         0
  9
$DIMTIH
 70
         1
  9
$DIMTOH
 70
         1
  9
$DIMSE1
 70
         0
  9
$DIMSE2
 70
         0
  9
$DIMTAD
 70
         1
  9
$DIMZIN
 70
         0
  9
$DIMBLK
  1

  9
$DIMASO
 70
         1
  9
$DIMSHO
 70
         1
  9
$DIMPOST
  1
<>
  9
$DIMAPOST
  1

  9
$DIMALT
 70
         0
  9
$DIMALTD
 70
         2
  9
$DIMALTF
 40
25.4
  9
$DIMLFAC
 40
1.0
  9
$DIMTOFL
 70
         0
  9
$DIMTVP
 40
0.0
  9
$DIMTIX
 70
         0
  9
$DIMSOXD
 70
         0
  9
$DIMSAH
 70
         0
  9
$DIMBLK1
  1

  9
$DIMBLK2
  1

  9
$DIMSTYLE
  2
Standard
  9
$DIMCLRD
 70
         0
  9
$DIMCLRE
 70
         0
  9
$DIMCLRT
 70
         0
  9
$DIMTFAC
 40
1.0
  9
$DIMGAP
 40
0.09
  9
$DIMJUST
 70
         0
  9
$DIMSD1
 70
         0
  9
$DIMSD2
 70
         0
  9
$DIMTOLJ
 70
         1
  9
$DIMTZIN
 70
         0
  9
$DIMALTZ
 70
         0
  9
$DIMALTTZ
 70
         0
  9
$DIMUPT
 70
         0
  9
$DIMDEC
 70
         4
  9
$DIMTDEC
 70
         4
  9
$DIMALTU
 70
         2
  9
$DIMALTTD
 70
         2
  9
$DIMTXSTY
  7
Standard
  9
$DIMAUNIT
 70
         0
  9
$DIMADEC
 70
         0
  9
$DIMALTRND
 40
0.0
  9
$DIMAZIN
 70
         0
  9
$DIMDSEP
 70
         0
  9
$DIMATFIT
 70
         3
  9
$DIMFRAC
 70
         0
  9
$DIMLDRBLK
  1

  9
$DIMLUNIT
 70
         2
  9
$DIMLWD
 70
         0
  9
$DIMLWE
 70
         0
  9
$DIMTMOVE
 70
         0
  9
$LUNITS
 70
         2
  9
$LUPREC
 70
         4
  9
$SKETCHINC
 40
0.1
  9
$FILLETRAD
 40
0.0
  9
$AUNITS
 70
         0
  9
$AUPREC
 70
         0
  9
$MENU
  1
acad
  9
$ELEVATION
 40
0.0
  9
$PELEVATION
 40
0.0
  9
$THICKNESS
 40
0.0
  9
$LIMCHECK
 70
         0
  9
$CHAMFERA
 40
0.0
  9
$CHAMFERB
 40
0.0
  9
$CHAMFERC
 40
0.0
  9
$CHAMFERD
 40
0.0
  9
$SKPOLY
 70
         0
  9
$TDCREATE
 40
0.000000000
  9
$TDUCREATE
 40
0.000000000
  9
$TDUPDATE
 40
0.000000000
  9
$TDUUPDATE
 40
0.000000000
  9
$TDINDWG
 40
0.0000000000
  9
$TDUSRTIMER
 40
0.0000000000
  9
$USRTIMER
 70
         1
  9
$ANGBASE
 50
0.0
  9
$ANGDIR
 70
         0
  9
$PDMODE
 70
         0
  9
$PDSIZE
 40
0.0
  9
$PLINEWID
 40
0.0
  9
$SPLFRAME
 70
         0
  9
$SPLINETYPE
 70
         6
  9
$SPLINESEGS
 70
         8
  9
$HANDSEED
  5
1F8
  9
$SURFTAB1
 70
         6
  9
$SURFTAB2
 70
         6
  9
$SURFTYPE
 70
         6
  9
$SURFU
 70
         6
  9
$SURFV
 70
         6
  9
$UCSBASE
  2

  9
$UCSNAME
  2

  9
$UCSORG
 10
0.0
 20
0.0
 30
0.0
  9
$UCSXDIR
 10
1.0
 20
0.0
 30
0.0
  9
$UCSYDIR
 10
0.0
 20
1.0
 30
0.0
  9
$UCSORTHOREF
  2

  9
$UCSORTHOVIEW
 70
         0
  9
$UCSORGTOP
 10
0.0
 20
0.0
 30
0.0
  9
$UCSORGBOTTOM
 10
0.0
 20
0.0
 30
0.0
  9
$UCSORGLEFT
 10
0.0
 20
0.0
 30
0.0
  9
$UCSORGRIGHT
 10
0.0
 20
0.0
 30
0.0
  9
$UCSORGFRONT
 10
0.0
 20
0.0
 30
0.0
  9
$UCSORGBACK
 10
0.0
 20
0.0
 30
0.0
  9
$PUCSBASE
  2

  9
$PUCSNAME
  2

  9
$PUCSORG
 10
0.0
 20
0.0
 30
0.0
  9
$PUCSXDIR
 10
1.0
 20
0.0
 30
0.0
  9
$PUCSYDIR
 10
0.0
 20
1.0
 30
0.0
  9
$PUCSORTHOREF
  2

  9
$PUCSORTHOVIEW
 70
         0
  9
$PUCSORGTOP
 10
0.0
 20
0.0
 30
0.0
  9
$PUCSORGBOTTOM
 10
0.0
 20
0.0
 30
0.0
  9
$PUCSORGLEFT
 10
0.0
 20
0.0
 30
0.0
  9
$PUCSORGRIGHT
 10
0.0
 20
0.0
 30
0.0
  9
$PUCSORGFRONT
 10
0.0
 20
0.0
 30
0.0
  9
$PUCSORGBACK
 10
0.0
 20
0.0
 30
0.0
  9
$USERI1
 70
         0
  9
$USERI2
 70
         0
  9
$USERI3
 70
         0
  9
$USERI4
 70
         0
  9
$USERI5
 70
         0
  9
$USERR1
 40
0.0
  9
$USERR2
 40
0.0
  9
$USERR3
 40
0.0
  9
$USERR4
 40
0.0
  9
$USERR5
 40
0.0
  9
$WORLDVIEW
 70
         1
  9
$SHADEDGE
 70
         3
  9
$SHADEDIF
 70
        70
  9
$TILEMODE
 70
         1
  9
$MAXACTVP
 70
        16
  9
$PINSBASE
 10
0.0
 20
0.0
 30
0.0
  9
$PLIMCHECK
 70
         0
  9
$PEXTMIN
 10
1.0000000000E+20
 20
1.0000000000E+20
 30
1.0000000000E+20
  9
$PEXTMAX
 10
-1.0000000000E+20
 20
-1.0000000000E+20
 30
-1.0000000000E+20
  9
$PLIMMIN
 10
0.0
 20
0.0
  9
$PLIMMAX
 10
12.0
 20
9.0
  9
$UNITMODE
 70
         0
  9
$VISRETAIN
 70
         0
  9
$PLINEGEN
 70
         1
  9
$PSLTSCALE
 70
         0
  9
$TREEDEPTH
 70
      3020
  9
$CMLSTYLE
  2
Standard
  9
$CMLJUST
 70
         0
  9
$CMLSCALE
 40
1.0
  9
$PROXYGRAPHICS
 70
         0
  9
$MEASUREMENT
 70
         1
  9
$CELWEIGHT
370
         0
  9
$ENDCAPS
280
         0
  9
$JOINSTYLE
280
         0
  9
$LWDISPLAY
290
         0
  9
$INSUNITS
 70
         0
  9
$HYPERLINKBASE
  1

  9
$STYLESHEET
  1

  9
$XEDIT
290
         1
  9
$CEPSNTYPE
380
         0
  9
$PSTYLEMODE
290
         1
  9
$FINGERPRINTGUID
  2

  9
$VERSIONGUID
  2

  9
$EXTNAMES
290
         1
  9
$PSVPSCALE
 40
0.0
  0
ENDSEC
  0
SECTION
  2
CLASSES
  0
CLASS
  1
LWPOLYLINE
  2
AcDbPolyline
  3
AutoCAD 2000
 90
        0
280
         0
281
         1
  0
CLASS
  1
IMAGE
  2
AcDbRasterImage
  3
ISM
 90
      127
280
         0
281
         1
  0
CLASS
  1
OLE2FRAME
  2
AcDbOle2Frame
  3
AutoCAD 2000
 90
        0
280
         0
281
         1
  0
CLASS
  1
HATCH
  2
AcDbHatch
  3
AutoCAD 2000
 90
        0
280
         0
281
         1
  0
CLASS
  1
DICTIONARYVAR
  2
AcDbDictionaryVar
  3
AutoCAD 2000
 90
        0
280
         0
281
         0
  0
CLASS
  1
RASTERVARIABLES
  2
AcDbRasterVariables
  3
ISM
 90
        0
280
         0
281
         0
  0
CLASS
  1
IMAGEDEF
  2
AcDbRasterImageDef
  3
ISM
 90
        0
280
         0
281
         0
  0
CLASS
  1
IMAGEDEF_REACTOR
  2
AcDbRasterImageDefReactor
  3
ISM
 90
        1
280
         0
281
         0
  0
CLASS
  1
IDBUFFER
  2
AcDbIdBuffer
  3
AutoCAD 2000
 90
        0
280
         0
281
         0
  0
CLASS
  1
SPATIAL_FILTER
  2
AcDbSpatialFilter
  3
AutoCAD 2000
 90
        0
280
         0
281
         0
  0
CLASS
  1
XRECORD
  2
AcDbXrecord
  3
AutoCAD 2000
 90
        0
280
         0
281
         0
  0
CLASS
  1
SORTENTSTABLE
  2
AcDbSortentsTable
  3
AutoCAD 2000
 90
        0
280
         0
281
         0
  0
CLASS
  1
LAYER_INDEX
  2
AcDbLayerIndex
  3
AutoCAD 2000
 90
        0
280
         0
281
         0
  0
CLASS
  1
SPATIAL_INDEX
  2
AcDbSpatialIndex
  3
AutoCAD 2000
 90
        0
280
         0
281
         0
  0
CLASS
  1
OBJECT_PTR
  2
CAseDLPNTableRecord
  3
"ASE-LPNTableRecord"
 90
        1
280
         0
281
         0
  0
CLASS
  1
LAYOUT
  2
AcDbLayout
  3
AutoCAD 2000
 90
        0
280
         0
281
         0
  0
CLASS
  1
PLOTSETTINGS
  2
AcDbPlotSettings
  3
AutoCAD 2000
 90
        0
280
         0
281
         0
  0
CLASS
  1
ACDBDICTIONARYWDFLT
  2
AcDbDictionaryWithDefault
  3
AutoCAD 2000
 90
        0
280
         0
281
         0
  0
CLASS
  1
ACDBPLACEHOLDER
  2
AcDbPlaceHolder
  3
AutoCAD 2000
 90
        0
280
         0
281
         0
  0
CLASS
  1
VBA_PROJECT
  2
AcDbVbaProject
  3
acadvba
 90
        0
280
         0
281
         0
  0
CLASS
  1
WIPEOUT
  2
AcDbWipeout
  3
WipeOut|AutoCAD Express Tool|expresstools@autodesk.com
 90
      127
280
         0
281
         1
  0
CLASS
  1
WIPEOUTVARIABLES
  2
AcDbWipeoutVariables
  3
WipeOut|AutoCAD Express Tool|expresstools@autodesk.com
 90
        0
280
         0
281
         0
  0
CLASS
  1
RTEXT
  2
RText
  3
RText|AutoCAD Express Tool|expresstools@autodesk.com
 90
        0
280
         0
281
         1
  0
CLASS
  1
ARCALIGNEDTEXT
  2
AcDbArcAlignedText
  3
ATEXT|AutoCAD Express Tool|expresstools@autodesk.com
 90
        0
280
         0
281
         1
  0
ENDSEC
  0
SECTION
  2
TABLES
  0
TABLE
  2
VPORT
  5
7
100
AcDbSymbolTable
 70
         1
  0
VPORT
  5
15
100
AcDbSymbolTableRecord
100
AcDbViewportTableRecord
  2
*ACTIVE
 70
         0
 10
0.0
 20
0.0
 11
1.0
 21
1.0
 12
74.25
 22
52.5
 13
0.0
 23
0.0
 14
1.0
 24
1.0
 15
0.0
 25
0.0
 16
0.0
 26
0.0
 36
1.0
 17
0.0
 27
0.0
 37
0.0
 40
115.6471946172
 41
1.0
 42
50.0
 43
0.0
 44
0.0
 50
0.0
 51
0.0
 71
         0
 72
       100
 73
         1
 74
         1
 75
         0
 76
         0
 77
         0
 78
         0
281
         0
 65
         0
110
0.0
120
0.0
130
0.0
111
1.0
121
0.0
131
0.0
112
0.0
122
1.0
132
0.0
345
0
346
0
 79
         0
146
0.0
  0
ENDTAB
  0
TABLE
  2
LTYPE
  5
4
100
AcDbSymbolTable
 70
        12
  0
LTYPE
  5
11
100
AcDbSymbolTableRecord
100
AcDbLinetypeTableRecord
  2
ByBlock
 70
        64
  3

 72
        65
 73
         0
 40
0.0
  0
LTYPE
  5
12
100
AcDbSymbolTableRecord
100
AcDbLinetypeTableRecord
  2
ByLayer
 70
        64
  3

 72
        65
 73
         0
 40
0.0
  0
LTYPE
  5
13
100
AcDbSymbolTableRecord
100
AcDbLinetypeTableRecord
  2
CONTINUOUS
 70
        64
  3
Solid Line
 72
        65
 73
         0
 40
0.0
  0
LTYPE
  5
24
100
AcDbSymbolTableRecord
100
AcDbLinetypeTableRecord
  2
DOT
 70
        64
  3
. . . . . . . . . . . . . . . . . . . . . . 
 72
        65
 73
         2
 40
0.25
 49
0.0
 74
         0
 49
-0.25
 74
         0
  0
LTYPE
  5
25
100
AcDbSymbolTableRecord
100
AcDbLinetypeTableRecord
  2
HIDDEN
 70
         0
  3
_ _ _ _ _ _ _ _ _ _ _ _ _ _ _ _ _ _ _ _ _ _ _
 72
        65
 73
         2
 40
0.375
 49
0.25
 74
         0
 49
-0.125
 74
         0
  0
LTYPE
  5
26
100
AcDbSymbolTableRecord
100
AcDbLinetypeTableRecord
  2
DASHDOT
 70
         0
  3
__ . __ . __ . __ . __ . __ . __ . __ . __ . __
 72
        65
 73
         4
 40
1.0
 49
0.5
 74
         0
 49
-0.25
 74
         0
 49
0.0
 74
         0
 49
-0.25
 74
         0
  0
LTYPE
  5
27
100
AcDbSymbolTableRecord
100
AcDbLinetypeTableRecord
  2
DIVIDE
 70
         0
  3
__ . . __ . . __ . . __ . . __ . . __ . . __
 72
        65
 73
         6
 40
1.25
 49
0.5
 74
         0
 49
-0.25
 74
         0
 49
0.0
 74
         0
 49
-0.25
 74
         0
 49
0.0
 74
         0
 49
-0.25
 74
         0
  0
LTYPE
  5
28
100
AcDbSymbolTableRecord
100
AcDbLinetypeTableRecord
  2
DASHED
 70
         0
  3
__ __ __ __ __ __ __ __ __ __ __ __ __ __ __
 72
        65
 73
         2
 40
0.75
 49
0.5
 74
         0
 49
-0.25
 74
         0
  0
LTYPE
  5
29
100
AcDbSymbolTableRecord
100
AcDbLinetypeTableRecord
  2
BORDER
 70
         0
  3
__ __ . __ __ . __ __ . __ __ . __ __ .
 72
        65
 73
         6
 40
1.75
 49
0.5
 74
         0
 49
-0.25
 74
         0
 49
0.5
 74
         0
 49
-0.25
 74
         0
 49
0.0
 74
         0
 49
-0.25
 74
         0
  0
LTYPE
  5
2A
100
AcDbSymbolTableRecord
100
AcDbLinetypeTableRecord
  2
CENTER
 70
         0
  3
____ _ ____ _ ____ _ ____ _ ____ _ ____
 72
        65
 73
         4
 40
2.0
 49
1.25
 74
         0
 49
-0.25
 74
         0
 49
0.25
 74
         0
 49
-0.25
 74
         0
  0
LTYPE
  5
2B
100
AcDbSymbolTableRecord
100
AcDbLinetypeTableRecord
  2
DOT2
 70
         0
  3
........................................
 72
        65
 73
         2
 40
0.125
 49
0.0
 74
         0
 49
-0.125
 74
         0
  0
LTYPE
  5
2C
100
AcDbSymbolTableRecord
100
AcDbLinetypeTableRecord
  2
PHANTOM
 70
         0
  3
______  __  __  ______  __  __  ______
 72
        65
 73
         6
 40
2.5
 49
1.25
 74
         0
 49
-0.25
 74
         0
 49
0.25
 74
         0
 49
-0.25
 74
         0
 49
0.25
 74
         0
 49
-0.25
 74
         0
  0
ENDTAB
  0
TABLE
  2
LAYER
  5
2
100
AcDbSymbolTable
 70
        84
  0
LAYER
  5
14
100
AcDbSymbolTableRecord
100
AcDbLayerTableRecord
  2
0
 70
         0
 62
         7
  6
CONTINUOUS
290
         1
370
        -3
390
1D
  0
LAYER
  5
33
100
AcDbSymbolTableRecord
100
AcDbLayerTableRecord
  2
_TEMP
 70
        64
 62
         7
  6
CONTINUOUS
290
         1
370
        50
390
1D
  0
LAYER
  5
34
100
AcDbSymbolTableRecord
100
AcDbLayerTableRecord
  2
BESCHRIFTUNG
 70
        64
 62
         7
  6
CONTINUOUS
290
         1
370
        25
390
1D
  0
LAYER
  5
35
100
AcDbSymbolTableRecord
100
AcDbLayerTableRecord
  2
SCHRAFFUR
 70
        64
 62
         7
  6
CONTINUOUS
290
         1
370
        25
390
1D
  0
LAYER
  5
36
100
AcDbSymbolTableRecord
100
AcDbLayerTableRecord
  2
MASSTEXTE
 70
        64
 62
       212
  6
CONTINUOUS
290
         1
370
        25
390
1D
  0
LAYER
  5
37
100
AcDbSymbolTableRecord
100
AcDbLayerTableRecord
  2
MASSLINIEN
 70
        64
 62
       172
  6
CONTINUOUS
290
         1
370
        25
390
1D
  0
LAYER
  5
38
100
AcDbSymbolTableRecord
100
AcDbLayerTableRecord
  2
MASSGRENZEN
 70
        64
 62
       172
  6
CONTINUOUS
290
         1
370
        25
390
1D
  0
LAYER
  5
39
100
AcDbSymbolTableRecord
100
AcDbLayerTableRecord
  2
TOLERANZEN
 70
        64
 62
       212
  6
CONTINUOUS
290
         1
370
         0
390
1D
  0
LAYER
  5
3A
100
AcDbSymbolTableRecord
100
AcDbLayerTableRecord
  2
BEMASSUNG
 70
        64
 62
         7
  6
CONTINUOUS
290
         1
370
        25
390
1D
  0
LAYER
  5
3B
100
AcDbSymbolTableRecord
100
AcDbLayerTableRecord
  2
HILFSLINIEN
 70
        64
 62
         3
  6
CONTINUOUS
290
         1
370
         0
390
1D
  0
LAYER
  5
3C
100
AcDbSymbolTableRecord
100
AcDbLayerTableRecord
  2
MITTELLINIEN
 70
        64
 62
         5
  6
DASHDOT
290
         1
370
        25
390
1D
  0
LAYER
  5
3D
100
AcDbSymbolTableRecord
100
AcDbLayerTableRecord
  2
BESCHRIFTUNG00
 70
        64
 62
         7
  6
CONTINUOUS
290
         1
370
        25
390
1D
  0
LAYER
  5
3E
100
AcDbSymbolTableRecord
100
AcDbLayerTableRecord
  2
BESCHRIFTUNG0
 70
        64
 62
         7
  6
CONTINUOUS
290
         1
370
        25
390
1D
  0
LAYER
  5
3F
100
AcDbSymbolTableRecord
100
AcDbLayerTableRecord
  2
GEWINDELINIEN
 70
        64
 62
       212
  6
CONTINUOUS
290
         1
370
        25
390
1D
  0
LAYER
  5
40
100
AcDbSymbolTableRecord
100
AcDbLayerTableRecord
  2
UNSICHTBARE
 70
        64
 62
        92
  6
DASHED
290
         1
370
        25
390
1D
  0
LAYER
  5
41
100
AcDbSymbolTableRecord
100
AcDbLayerTableRecord
  2
VERDECKTE
 70
        64
 62
        92
  6
DASHED
290
         1
370
        25
390
1D
  0
LAYER
  5
42
100
AcDbSymbolTableRecord
100
AcDbLayerTableRecord
  2
LICHTKANTEN
 70
        64
 62
         8
  6
CONTINUOUS
290
         1
370
        25
390
1D
  0
LAYER
  5
43
100
AcDbSymbolTableRecord
100
AcDbLayerTableRecord
  2
SCHNITTVERLAUF
 70
        64
 62
        34
  6
DASHDOT
290
         1
370
        70
390
1D
  0
LAYER
  5
44
100
AcDbSymbolTableRecord
100
AcDbLayerTableRecord
  2
KENNZEICHNUNG
 70
        64
 62
         7
  6
CONTINUOUS
290
         1
370
         0
390
1D
  0
LAYER
  5
45
100
AcDbSymbolTableRecord
100
AcDbLayerTableRecord
  2
PFEILE
 70
        64
 62
         7
  6
CONTINUOUS
290
         1
370
        70
390
1D
  0
LAYER
  5
46
100
AcDbSymbolTableRecord
100
AcDbLayerTableRecord
  2
SCHNITTDARSTELLUNG
 70
        64
 62
         7
  6
CONTINUOUS
290
         1
370
         0
390
1D
  0
LAYER
  5
47
100
AcDbSymbolTableRecord
100
AcDbLayerTableRecord
  2
GEHÄUSE
 70
        64
 62
         7
  6
CONTINUOUS
290
         1
370
        18
390
1D
  0
LAYER
  5
48
100
AcDbSymbolTableRecord
100
AcDbLayerTableRecord
  2
_RIEGEL
 70
        64
 62
       230
  6
DASHED
290
         1
370
        18
390
1D
  0
LAYER
  5
49
100
AcDbSymbolTableRecord
100
AcDbLayerTableRecord
  2
RIEGEL
 70
        64
 62
       230
  6
CONTINUOUS
290
         1
370
        18
390
1D
  0
LAYER
  5
4A
100
AcDbSymbolTableRecord
100
AcDbLayerTableRecord
  2
_ZUHALTUNG
 70
        64
 62
        94
  6
HIDDEN
290
         1
370
        18
390
1D
  0
LAYER
  5
4B
100
AcDbSymbolTableRecord
100
AcDbLayerTableRecord
  2
ZUHALTUNG
 70
        64
 62
        94
  6
CONTINUOUS
290
         1
370
        18
390
1D
  0
LAYER
  5
4C
100
AcDbSymbolTableRecord
100
AcDbLayerTableRecord
  2
WIPPE
 70
        64
 62
         5
  6
CONTINUOUS
290
         1
370
        18
390
1D
  0
LAYER
  5
4D
100
AcDbSymbolTableRecord
100
AcDbLayerTableRecord
  2
AUSSCHLUSS
 70
        64
 62
        14
  6
CONTINUOUS
290
         1
370
        18
390
1D
  0
LAYER
  5
4E
100
AcDbSymbolTableRecord
100
AcDbLayerTableRecord
  2
BESATZUNG
 70
        64
 62
         8
  6
CONTINUOUS
290
         1
370
        18
390
1D
  0
LAYER
  5
4F
100
AcDbSymbolTableRecord
100
AcDbLayerTableRecord
  2
 SCHLOSS
 70
        64
 62
         7
  6
CONTINUOUS
290
         1
370
        18
390
1D
  0
LAYER
  5
50
100
AcDbSymbolTableRecord
100
AcDbLayerTableRecord
  2
 SCHLÜSSEL
 70
        64
 62
       190
  6
CONTINUOUS
290
         1
370
         0
390
1D
  0
LAYER
  5
51
100
AcDbSymbolTableRecord
100
AcDbLayerTableRecord
  2
BESCHRIFTUNG01
 70
        64
 62
         7
  6
CONTINUOUS
290
         1
370
        25
390
1D
  0
LAYER
  5
52
100
AcDbSymbolTableRecord
100
AcDbLayerTableRecord
  2
FRONTLAGER
 70
        64
 62
         8
  6
CONTINUOUS
290
         1
370
        18
390
1D
  0
LAYER
  5
53
100
AcDbSymbolTableRecord
100
AcDbLayerTableRecord
  2
 FRONTPLATTE
 70
        64
 62
        34
  6
CONTINUOUS
290
         1
370
        18
390
1D
  0
LAYER
  5
54
100
AcDbSymbolTableRecord
100
AcDbLayerTableRecord
  2
_ANTRIEBSSSTANGE
 70
        64
 62
        55
  6
DASHED
290
         1
370
        18
390
1D
  0
LAYER
  5
55
100
AcDbSymbolTableRecord
100
AcDbLayerTableRecord
  2
 ANTRIEBSSTANGE
 70
        64
 62
        54
  6
CONTINUOUS
290
         1
370
        18
390
1D
  0
LAYER
  5
56
100
AcDbSymbolTableRecord
100
AcDbLayerTableRecord
  2
_ANTRIEBSSCHEIBE
 70
        64
 62
       190
  6
DASHED
290
         1
370
        18
390
1D
  0
LAYER
  5
57
100
AcDbSymbolTableRecord
100
AcDbLayerTableRecord
  2
ANTRIEBSSCHEIBE
 70
        64
 62
       190
  6
CONTINUOUS
290
         1
370
        18
390
1D
  0
LAYER
  5
58
100
AcDbSymbolTableRecord
100
AcDbLayerTableRecord
  2
GRUNDPLATTE
 70
        64
 62
         7
  6
HIDDEN
290
         1
370
        18
390
1D
  0
LAYER
  5
59
100
AcDbSymbolTableRecord
100
AcDbLayerTableRecord
  2
WEICHENBOCK
 70
        64
 62
         5
  6
CONTINUOUS
290
         1
370
        25
390
1D
  0
LAYER
  5
5A
100
AcDbSymbolTableRecord
100
AcDbLayerTableRecord
  2
_WEICHENSIGNAL
 70
        64
 62
        14
  6
DASHED
290
         1
370
        18
390
1D
  0
LAYER
  5
5B
100
AcDbSymbolTableRecord
100
AcDbLayerTableRecord
  2
WEICHENSIGNAL
 70
        64
 62
        14
  6
CONTINUOUS
290
         1
370
        25
390
1D
  0
LAYER
  5
5C
100
AcDbSymbolTableRecord
100
AcDbLayerTableRecord
  2
WEICHENGEWICHT
 70
        64
 62
       230
  6
CONTINUOUS
290
         1
370
        25
390
1D
  0
LAYER
  5
5D
100
AcDbSymbolTableRecord
100
AcDbLayerTableRecord
  2
ANTRIEBSRAHMEN
 70
        64
 62
        94
  6
CONTINUOUS
290
         1
370
        18
390
1D
  0
LAYER
  5
5E
100
AcDbSymbolTableRecord
100
AcDbLayerTableRecord
  2
STELLDRAHT
 70
        64
 62
        30
  6
CONTINUOUS
290
         1
370
        25
390
1D
  0
LAYER
  5
5F
100
AcDbSymbolTableRecord
100
AcDbLayerTableRecord
  2
ENDLAGENFEDER
 70
        64
 62
         8
  6
DASHDOT
290
         1
370
        35
390
1D
  0
LAYER
  5
60
100
AcDbSymbolTableRecord
100
AcDbLayerTableRecord
  2
 ANTRIEB
 70
        64
 62
        94
  6
CONTINUOUS
290
         1
370
        18
390
1D
  0
LAYER
  5
61
100
AcDbSymbolTableRecord
100
AcDbLayerTableRecord
  2
_A RAHMEN
 70
        64
 62
         7
  6
CONTINUOUS
290
         1
370
         0
390
1D
  0
LAYER
  5
62
100
AcDbSymbolTableRecord
100
AcDbLayerTableRecord
  2
A HEBEL OBEN
 70
        64
 62
         5
  6
CONTINUOUS
290
         1
370
        18
390
1D
  0
LAYER
  5
63
100
AcDbSymbolTableRecord
100
AcDbLayerTableRecord
  2
_F HEBEL
 70
        64
 62
         5
  6
CONTINUOUS
290
         1
370
        18
390
1D
  0
LAYER
  5
64
100
AcDbSymbolTableRecord
100
AcDbLayerTableRecord
  2
GEWICHT
 70
        64
 62
        55
  6
HIDDEN
290
         1
370
        18
390
1D
  0
LAYER
  5
65
100
AcDbSymbolTableRecord
100
AcDbLayerTableRecord
  2
WINKEL
 70
        64
 62
        55
  6
CONTINUOUS
290
         1
370
        18
390
1D
  0
LAYER
  5
66
100
AcDbSymbolTableRecord
100
AcDbLayerTableRecord
  2
SPERRSCHEIBE
 70
        64
 62
        55
  6
BORDER
290
         1
370
        18
390
1D
  0
LAYER
  5
67
100
AcDbSymbolTableRecord
100
AcDbLayerTableRecord
  2
 ANTRIEBSWELLE
 70
        64
 62
        55
  6
CONTINUOUS
290
         1
370
        18
390
1D
  0
LAYER
  5
68
100
AcDbSymbolTableRecord
100
AcDbLayerTableRecord
  2
2600__ WEICHENBOCK
 70
        64
 62
         7
  6
CONTINUOUS
290
         1
370
         0
390
1D
  0
LAYER
  5
69
100
AcDbSymbolTableRecord
100
AcDbLayerTableRecord
  2
GLEIS
 70
        64
 62
        34
  6
CONTINUOUS
290
         1
370
         0
390
1D
  0
LAYER
  5
6A
100
AcDbSymbolTableRecord
100
AcDbLayerTableRecord
  2
SPERRSCHUH ABGELEGT
 70
        64
 62
         7
  6
DASHED
290
         1
370
         0
390
1D
  0
LAYER
  5
6B
100
AcDbSymbolTableRecord
100
AcDbLayerTableRecord
  2
SPERRSCHUH
 70
        64
 62
         7
  6
CONTINUOUS
290
         1
370
         0
390
1D
  0
LAYER
  5
6C
100
AcDbSymbolTableRecord
100
AcDbLayerTableRecord
  2
SPERRSCHUHRAHMEN
 70
        64
 62
        94
  6
CONTINUOUS
290
         1
370
         0
390
1D
  0
LAYER
  5
6D
100
AcDbSymbolTableRecord
100
AcDbLayerTableRecord
  2
SPERRSCHUHANTRIEB
 70
        64
 62
         5
  6
CONTINUOUS
290
         1
370
         0
390
1D
  0
LAYER
  5
6E
100
AcDbSymbolTableRecord
100
AcDbLayerTableRecord
  2
2601__ SBW-GLEISSPERRSCHUH
 70
        64
 62
         7
  6
CONTINUOUS
290
         1
370
         0
390
1D
  0
LAYER
  5
6F
100
AcDbSymbolTableRecord
100
AcDbLayerTableRecord
  2
2913_1 AUFSPANNPLATTE
 70
        64
 62
         7
  6
CONTINUOUS
290
         1
370
        18
390
1D
  0
LAYER
  5
70
100
AcDbSymbolTableRecord
100
AcDbLayerTableRecord
  2
2913__ AUFSPANNPLATTE
 70
        64
 62
         7
  6
CONTINUOUS
290
         1
370
        18
390
1D
  0
LAYER
  5
71
100
AcDbSymbolTableRecord
100
AcDbLayerTableRecord
  2
RAHMEN
 70
        64
 62
         7
  6
CONTINUOUS
290
         1
370
         0
390
1D
  0
LAYER
  5
72
100
AcDbSymbolTableRecord
100
AcDbLayerTableRecord
  2
STELLEINRICHTUNG
 70
        64
 62
       230
  6
CONTINUOUS
290
         1
370
         0
390
1D
  0
LAYER
  5
73
100
AcDbSymbolTableRecord
100
AcDbLayerTableRecord
  2
WEICHE
 70
        64
 62
        70
  6
CONTINUOUS
290
         1
370
         0
390
1D
  0
LAYER
  5
74
100
AcDbSymbolTableRecord
100
AcDbLayerTableRecord
  2
2654__ WEICHENANTRIEB
 70
        64
 62
         7
  6
CONTINUOUS
290
         1
370
         0
390
1D
  0
LAYER
  5
75
100
AcDbSymbolTableRecord
100
AcDbLayerTableRecord
  2
KONSTRUKTION
 70
        64
 62
         7
  6
CONTINUOUS
290
         1
370
         0
390
1D
  0
LAYER
  5
76
100
AcDbSymbolTableRecord
100
AcDbLayerTableRecord
  2
2600_1P
 70
        64
 62
        30
  6
CONTINUOUS
290
         1
370
        13
390
1D
  0
LAYER
  5
77
100
AcDbSymbolTableRecord
100
AcDbLayerTableRecord
  2
2600_7P
 70
        64
 62
        15
  6
CONTINUOUS
290
         1
370
         0
390
1D
  0
LAYER
  5
78
100
AcDbSymbolTableRecord
100
AcDbLayerTableRecord
  2
2600___ WEICHENBOCK
 70
        64
 62
         7
  6
CONTINUOUS
290
         1
370
         0
390
1D
  0
LAYER
  5
79
100
AcDbSymbolTableRecord
100
AcDbLayerTableRecord
  2
2601_1O
 70
        64
 62
        34
  6
CONTINUOUS
290
         1
370
        13
390
1D
  0
LAYER
  5
7A
100
AcDbSymbolTableRecord
100
AcDbLayerTableRecord
  2
2601_1U
 70
        64
 62
        11
  6
CONTINUOUS
290
         1
370
        13
390
1D
  0
LAYER
  5
7B
100
AcDbSymbolTableRecord
100
AcDbLayerTableRecord
  2
2601___ SBW-GLEISSPERRSCHUH
 70
        64
 62
         7
  6
CONTINUOUS
290
         1
370
         0
390
1D
  0
LAYER
  5
7C
100
AcDbSymbolTableRecord
100
AcDbLayerTableRecord
  2
1084___
 70
        64
 62
       230
  6
CONTINUOUS
290
         1
370
        13
390
1D
  0
LAYER
  5
7D
100
AcDbSymbolTableRecord
100
AcDbLayerTableRecord
  2
___ 8901_2P
 70
        64
 62
        54
  6
CONTINUOUS
290
         1
370
        13
390
1D
  0
LAYER
  5
7E
100
AcDbSymbolTableRecord
100
AcDbLayerTableRecord
  2
___ 8901___
 70
        64
 62
       230
  6
CONTINUOUS
290
         1
370
        13
390
1D
  0
LAYER
  5
7F
100
AcDbSymbolTableRecord
100
AcDbLayerTableRecord
  2
8601_1O
 70
        64
 62
        11
  6
CONTINUOUS
290
         1
370
         0
390
1D
  0
LAYER
  5
80
100
AcDbSymbolTableRecord
100
AcDbLayerTableRecord
  2
8601_2U
 70
        64
 62
        15
  6
CONTINUOUS
290
         1
370
         0
390
1D
  0
LAYER
  5
81
100
AcDbSymbolTableRecord
100
AcDbLayerTableRecord
  2
8602_1O
 70
        64
 62
       230
  6
CONTINUOUS
290
         1
370
         0
390
1D
  0
LAYER
  5
82
100
AcDbSymbolTableRecord
100
AcDbLayerTableRecord
  2
8602_2U
 70
        64
 62
        14
  6
CONTINUOUS
290
         1
370
         0
390
1D
  0
LAYER
  5
83
100
AcDbSymbolTableRecord
100
AcDbLayerTableRecord
  2
8601___
 70
        64
 62
         7
  6
CONTINUOUS
290
         1
370
         0
390
1D
  0
LAYER
  5
84
100
AcDbSymbolTableRecord
100
AcDbLayerTableRecord
  2
PFADE
 70
        64
 62
         7
  6
CONTINUOUS
290
         1
370
         0
390
1D
  0
LAYER
  5
85
100
AcDbSymbolTableRecord
100
AcDbLayerTableRecord
  2
STANDARD
 70
        64
 62
         7
  6
CONTINUOUS
290
         1
370
         0
390
1D
  0
ENDTAB
  0
TABLE
  2
STYLE
  5
3
100
AcDbSymbolTable
 70
         7
  0
STYLE
  5
17
100
AcDbSymbolTableRecord
100
AcDbTextStyleTableRecord
  2
Standard
 70
         0
 40
0.0
 41
1.0
 50
0.0
 71
         0
 42
0.0
  3
txt
  4

  0
STYLE
  5
2D
100
AcDbSymbolTableRecord
100
AcDbTextStyleTableRecord
  2
CADdy
 70
         0
 40
0.0
 41
1.0
 50
0.0
 71
         0
 42
3.5
  3
txt.shx
  4

  0
STYLE
  5
2E
100
AcDbSymbolTableRecord
100
AcDbTextStyleTableRecord
  2
Arial
 70
         0
 40
0.0
 41
1.0
 50
0.0
 71
         0
 42
3.5
  3
arial.ttf
  4

1001
ACAD
1000
Arial
1071
       34
  0
STYLE
  5
2F
100
AcDbSymbolTableRecord
100
AcDbTextStyleTableRecord
  2
Isonorm
 70
         0
 40
0.0
 41
1.0
 50
0.0
 71
         0
 42
3.5
  3
txt.shx
  4

  0
STYLE
  5
30
100
AcDbSymbolTableRecord
100
AcDbTextStyleTableRecord
  2
Tahoma
 70
         0
 40
0.0
 41
1.0
 50
0.0
 71
         0
 42
3.5
  3
tahoma.ttf
  4

1001
ACAD
1000
Tahoma
1071
       34
  0
STYLE
  5
31
100
AcDbSymbolTableRecord
100
AcDbTextStyleTableRecord
  2
Microsoft Sans Serif
 70
         0
 40
0.0
 41
1.0
 50
0.0
 71
         0
 42
3.5
  3
micross.ttf
  4

1001
ACAD
1000
Microsoft Sans Serif
1071
       34
  0
STYLE
  5
32
100
AcDbSymbolTableRecord
100
AcDbTextStyleTableRecord
  2
Arial Rounded MT Bold
 70
         0
 40
0.0
 41
1.0
 50
0.0
 71
         0
 42
3.5
  3
txt.shx
  4

  0
ENDTAB
  0
TABLE
  2
VIEW
  5
5
100
AcDbSymbolTable
 70
         0
  0
ENDTAB
  0
TABLE
  2
UCS
  5
6
100
AcDbSymbolTable
 70
         0
  0
ENDTAB
  0
TABLE
  2
APPID
  5
8
100
AcDbSymbolTable
 70
         1
  0
APPID
  5
16
100
AcDbSymbolTableRecord
100
AcDbRegAppTableRecord
  2
ACAD
 70
        64
  0
ENDTAB
  0
TABLE
  2
DIMSTYLE
  5
9
100
AcDbSymbolTable
 70
         1
100
AcDbDimStyleTable
 71
         0
  0
DIMSTYLE
105
18
100
AcDbSymbolTableRecord
100
AcDbDimStyleTableRecord
  2
Standard
 70
         0
  3

  4

 40
1.0
 41
0.18
 42
0.0625
 43
0.38
 44
0.18
 45
0.0
 46
0.0
 47
0.0
 48
0.0
 71
         0
 72
         0
 73
         1
 74
         1
 75
         0
 76
         0
 77
         0
 78
         0
 79
         0
140
0.18
141
0.09
142
0.0
143
25.4
144
1.0
145
0.0
146
1.0
147
0.09
148
0.0
170
         0
171
         2
172
         0
173
         0
174
         0
175
         0
176
         0
177
         0
178
         0
179
         0
271
         4
272
         4
273
         2
274
         2
275
         0
276
         0
277
         2
278
        46
279
         0
280
         0
281
         0
282
         0
283
         1
284
         0
285
         0
286
         0
288
         0
289
         3
340
17
341
0
342
0
343
0
344
0
371
        -2
372
        -2
  0
ENDTAB
  0
TABLE
  2
BLOCK_RECORD
  5
1
100
AcDbSymbolTable
 70
         9
  0
BLOCK_RECORD
  5
A
100
AcDbSymbolTableRecord
100
AcDbBlockTableRecord
  2
*MODEL_SPACE
340
20
  0
BLOCK_RECORD
  5
B
100
AcDbSymbolTableRecord
100
AcDbBlockTableRecord
  2
*PAPER_SPACE
340
21
  0
BLOCK_RECORD
  5
86
100
AcDbSymbolTableRecord
100
AcDbBlockTableRecord
  2
D207894528
340
0
102
{BLKREFS
331
15B
102
}
  0
BLOCK_RECORD
  5
8F
100
AcDbSymbolTableRecord
100
AcDbBlockTableRecord
  2
D207895552
340
0
102
{BLKREFS
331
15C
102
}
  0
BLOCK_RECORD
  5
98
100
AcDbSymbolTableRecord
100
AcDbBlockTableRecord
  2
D207886848
340
0
102
{BLKREFS
331
1A9
102
}
  0
BLOCK_RECORD
  5
A1
100
AcDbSymbolTableRecord
100
AcDbBlockTableRecord
  2
D207887360
340
0
102
{BLKREFS
331
1AB
102
}
  0
BLOCK_RECORD
  5
AA
100
AcDbSymbolTableRecord
100
AcDbBlockTableRecord
  2
D207887616
340
0
102
{BLKREFS
331
1AC
102
}
  0
BLOCK_RECORD
  5
B3
100
AcDbSymbolTableRecord
100
AcDbBlockTableRecord
  2
D207888128
340
0
102
{BLKREFS
331
1BB
102
}
  0
BLOCK_RECORD
  5
BC
100
AcDbSymbolTableRecord
100
AcDbBlockTableRecord
  2
D208441856
340
0
102
{BLKREFS
331
1BF
102
}
  0
BLOCK_RECORD
  5
C7
100
AcDbSymbolTableRecord
100
AcDbBlockTableRecord
  2
D208441600
340
0
102
{BLKREFS
331
1C0
102
}
  0
BLOCK_RECORD
  5
D0
100
AcDbSymbolTableRecord
100
AcDbBlockTableRecord
  2
D495962112
340
0
102
{BLKREFS
331
1C6
102
}
  0
ENDTAB
  0
ENDSEC
  0
SECTION
  2
BLOCKS
  0
BLOCK
  5
D
100
AcDbEntity
  8
0
390
0
100
AcDbBlockBegin
  2
*MODEL_SPACE
 70
         0
 10
0.0
 20
0.0
 30
0.0
  3
*MODEL_SPACE
  1

  0
ENDBLK
  5
E
100
AcDbEntity
  8
0
390
0
100
AcDbBlockEnd
  0
BLOCK
  5
F
100
AcDbEntity
 67
         1
  8
0
390
0
100
AcDbBlockBegin
  2
*PAPER_SPACE
 70
         0
 10
0.0
 20
0.0
 30
0.0
  3
*PAPER_SPACE
  1

  0
ENDBLK
  5
10
100
AcDbEntity
 67
         1
  8
0
390
0
100
AcDbBlockEnd
  0
BLOCK
  5
87
100
AcDbEntity
  8
BEMASSUNG
390
0
100
AcDbBlockBegin
  2
D207894528
 70
         0
 10
0.0
 20
0.0
 30
0.0
  3
D207894528
  1

  0
LINE
  5
88
100
AcDbEntity
  8
MASSLINIEN
390
0
 62
       172
100
AcDbLine
 10
50.0
 20
12.3126705647
 30
0.0
 11
60.0
 21
12.3126705647
 31
0.0
  0
LINE
  5
89
100
AcDbEntity
  8
MASSLINIEN
390
0
 62
       172
100
AcDbLine
 10
50.0
 20
12.3126705647
 30
0.0
 11
50.0
 21
11.3126705647
 31
0.0
  0
LINE
  5
8A
100
AcDbEntity
  8
MASSLINIEN
390
0
 62
       172
100
AcDbLine
 10
60.0
 20
12.6578528347
 30
0.0
 11
60.0
 21
11.3126705647
 31
0.0
  0
SOLID
  5
8B
100
AcDbEntity
  8
MASSGRENZEN
390
0
100
AcDbTrace
 10
50.0
 20
12.3126705647
 30
0.0
 11
51.4871672921
 21
12.508459853
 31
0.0
 12
51.4871672921
 22
12.1168812763
 32
0.0
 13
51.4871672921
 23
12.1168812763
 33
0.0
  0
SOLID
  5
8C
100
AcDbEntity
  8
MASSGRENZEN
390
0
100
AcDbTrace
 10
60.0
 20
12.3126705647
 30
0.0
 11
58.5128327079
 21
12.1168812763
 31
0.0
 12
58.5128327079
 22
12.508459853
 32
0.0
 13
58.5128327079
 23
12.508459853
 33
0.0
  0
MTEXT
  5
8D
100
AcDbEntity
  8
MASSTEXTE
390
0
 62
       212
100
AcDbMText
 10
55.0
 20
13.9046705647
 30
0.0
 40
1.5
 41
0.0
 71
         5
 72
         1
  1
\W1.135145;\A1;10
  7
Arial
 73
         0
 44
0.0
  0
ENDBLK
  5
8E
100
AcDbEntity
  8
0
390
0
100
AcDbBlockEnd
  0
BLOCK
  5
90
100
AcDbEntity
  8
BEMASSUNG
390
0
100
AcDbBlockBegin
  2
D207895552
 70
         0
 10
0.0
 20
0.0
 30
0.0
  3
D207895552
  1

  0
LINE
  5
91
100
AcDbEntity
  8
MASSLINIEN
390
0
 62
       172
100
AcDbLine
 10
25.0
 20
12.3584008248
 30
0.0
 11
35.0
 21
12.3584008248
 31
0.0
  0
LINE
  5
92
100
AcDbEntity
  8
MASSLINIEN
390
0
 62
       172
100
AcDbLine
 10
25.0
 20
26.6578528347
 30
0.0
 11
25.0
 21
11.3584008248
 31
0.0
  0
LINE
  5
93
100
AcDbEntity
  8
MASSLINIEN
390
0
 62
       172
100
AcDbLine
 10
35.0
 20
26.6578528347
 30
0.0
 11
35.0
 21
11.3584008248
 31
0.0
  0
SOLID
  5
94
100
AcDbEntity
  8
MASSGRENZEN
390
0
100
AcDbTrace
 10
25.0
 20
12.3584008248
 30
0.0
 11
26.4871672921
 21
12.5541901132
 31
0.0
 12
26.4871672921
 22
12.1626115365
 32
0.0
 13
26.4871672921
 23
12.1626115365
 33
0.0
  0
SOLID
  5
95
100
AcDbEntity
  8
MASSGRENZEN
390
0
100
AcDbTrace
 10
35.0
 20
12.3584008248
 30
0.0
 11
33.5128327079
 21
12.1626115365
 31
0.0
 12
33.5128327079
 22
12.5541901132
 32
0.0
 13
33.5128327079
 23
12.5541901132
 33
0.0
  0
MTEXT
  5
96
100
AcDbEntity
  8
MASSTEXTE
390
0
 62
       212
100
AcDbMText
 10
30.0
 20
13.9504008248
 30
0.0
 40
1.5
 41
0.0
 71
         5
 72
         1
  1
\W1.135145;\A1;10
  7
Arial
 73
         0
 44
0.0
  0
ENDBLK
  5
97
100
AcDbEntity
  8
0
390
0
100
AcDbBlockEnd
  0
BLOCK
  5
99
100
AcDbEntity
  8
BEMASSUNG
390
0
100
AcDbBlockBegin
  2
D207886848
 70
         0
 10
0.0
 20
0.0
 30
0.0
  3
D207886848
  1

  0
LINE
  5
9A
100
AcDbEntity
  8
MASSLINIEN
390
0
 62
       172
100
AcDbLine
 10
80.5373076923
 20
77.6426696833
 30
0.0
 11
80.5373076923
 21
65.6426696833
 31
0.0
  0
LINE
  5
9B
100
AcDbEntity
  8
MASSLINIEN
390
0
 62
       172
100
AcDbLine
 10
88.5373076923
 20
77.6426696833
 30
0.0
 11
79.5373076923
 21
77.6426696833
 31
0.0
  0
LINE
  5
9C
100
AcDbEntity
  8
MASSLINIEN
390
0
 62
       172
100
AcDbLine
 10
88.5373076923
 20
65.6426696833
 30
0.0
 11
79.5373076923
 21
65.6426696833
 31
0.0
  0
SOLID
  5
9D
100
AcDbEntity
  8
MASSGRENZEN
390
0
100
AcDbTrace
 10
80.5373076923
 20
77.6426696833
 30
0.0
 11
80.7330969806
 21
76.1555023912
 31
0.0
 12
80.341518404
 22
76.1555023912
 32
0.0
 13
80.341518404
 23
76.1555023912
 33
0.0
  0
SOLID
  5
9E
100
AcDbEntity
  8
MASSGRENZEN
390
0
100
AcDbTrace
 10
80.5373076923
 20
65.6426696833
 30
0.0
 11
80.341518404
 21
67.1298369753
 31
0.0
 12
80.7330969806
 22
67.1298369753
 32
0.0
 13
80.7330969806
 23
67.1298369753
 33
0.0
  0
MTEXT
  5
9F
100
AcDbEntity
  8
MASSTEXTE
390
0
 62
       212
100
AcDbMText
 10
78.9453076923
 20
71.6426696833
 30
0.0
 40
1.5
 41
0.0
 71
         5
 72
         1
  1
\W1.135145;\A1;12
  7
Arial
 11
0.0
 21
1.0
 31
0.0
 73
         0
 44
0.0
  0
ENDBLK
  5
A0
100
AcDbEntity
  8
0
390
0
100
AcDbBlockEnd
  0
BLOCK
  5
A2
100
AcDbEntity
  8
BEMASSUNG
390
0
100
AcDbBlockBegin
  2
D207887360
 70
         0
 10
0.0
 20
0.0
 30
0.0
  3
D207887360
  1

  0
LINE
  5
A3
100
AcDbEntity
  8
MASSLINIEN
390
0
 62
       172
100
AcDbLine
 10
88.5373076923
 20
54.6426696833
 30
0.0
 11
113.5373076923
 21
54.6426696833
 31
0.0
  0
LINE
  5
A4
100
AcDbEntity
  8
MASSLINIEN
390
0
 62
       172
100
AcDbLine
 10
88.5373076923
 20
77.6426696833
 30
0.0
 11
88.5373076923
 21
53.6426696833
 31
0.0
  0
LINE
  5
A5
100
AcDbEntity
  8
MASSLINIEN
390
0
 62
       172
100
AcDbLine
 10
113.5373076923
 20
77.6426696833
 30
0.0
 11
113.5373076923
 21
53.6426696833
 31
0.0
  0
SOLID
  5
A6
100
AcDbEntity
  8
MASSGRENZEN
390
0
100
AcDbTrace
 10
88.5373076923
 20
54.6426696833
 30
0.0
 11
90.0244749844
 21
54.8384589716
 31
0.0
 12
90.0244749844
 22
54.4468803949
 32
0.0
 13
90.0244749844
 23
54.4468803949
 33
0.0
  0
SOLID
  5
A7
100
AcDbEntity
  8
MASSGRENZEN
390
0
100
AcDbTrace
 10
113.5373076923
 20
54.6426696833
 30
0.0
 11
112.0501404002
 21
54.4468803949
 31
0.0
 12
112.0501404002
 22
54.8384589716
 32
0.0
 13
112.0501404002
 23
54.8384589716
 33
0.0
  0
MTEXT
  5
A8
100
AcDbEntity
  8
MASSTEXTE
390
0
 62
       212
100
AcDbMText
 10
101.0373076923
 20
56.2346696833
 30
0.0
 40
1.5
 41
0.0
 71
         5
 72
         1
  1
\W1.135145;\A1;25
  7
Arial
 73
         0
 44
0.0
  0
ENDBLK
  5
A9
100
AcDbEntity
  8
0
390
0
100
AcDbBlockEnd
  0
BLOCK
  5
AB
100
AcDbEntity
  8
BEMASSUNG
390
0
100
AcDbBlockBegin
  2
D207887616
 70
         0
 10
0.0
 20
0.0
 30
0.0
  3
D207887616
  1

  0
LINE
  5
AC
100
AcDbEntity
  8
MASSLINIEN
390
0
 62
       172
100
AcDbLine
 10
14.0
 20
28.1336120521
 30
0.0
 11
14.0
 21
19.1378528347
 31
0.0
  0
LINE
  5
AD
100
AcDbEntity
  8
MASSLINIEN
390
0
 62
       172
100
AcDbLine
 10
25.0
 20
28.1336120521
 30
0.0
 11
13.0
 21
28.1336120521
 31
0.0
  0
LINE
  5
AE
100
AcDbEntity
  8
MASSLINIEN
390
0
 62
       172
100
AcDbLine
 10
25.0
 20
19.1378528347
 30
0.0
 11
13.0
 21
19.1378528347
 31
0.0
  0
SOLID
  5
AF
100
AcDbEntity
  8
MASSGRENZEN
390
0
100
AcDbTrace
 10
14.0
 20
28.1336120521
 30
0.0
 11
14.1957892883
 21
26.64644476
 31
0.0
 12
13.8042107117
 22
26.64644476
 32
0.0
 13
13.8042107117
 23
26.64644476
 33
0.0
  0
SOLID
  5
B0
100
AcDbEntity
  8
MASSGRENZEN
390
0
100
AcDbTrace
 10
14.0
 20
19.1378528347
 30
0.0
 11
13.8042107117
 21
20.6250201268
 31
0.0
 12
14.1957892883
 22
20.6250201268
 32
0.0
 13
14.1957892883
 23
20.6250201268
 33
0.0
  0
MTEXT
  5
B1
100
AcDbEntity
  8
MASSTEXTE
390
0
 62
       212
100
AcDbMText
 10
12.408
 20
23.6357324434
 30
0.0
 40
1.5
 41
0.0
 71
         5
 72
         1
  1
\W1.135145;\A1;9
  7
Arial
 11
0.0
 21
1.0
 31
0.0
 73
         0
 44
0.0
  0
ENDBLK
  5
B2
100
AcDbEntity
  8
0
390
0
100
AcDbBlockEnd
  0
BLOCK
  5
B4
100
AcDbEntity
  8
BEMASSUNG
390
0
100
AcDbBlockBegin
  2
D207888128
 70
         0
 10
0.0
 20
0.0
 30
0.0
  3
D207888128
  1

  0
LINE
  5
B5
100
AcDbEntity
  8
MASSLINIEN
390
0
 62
       172
100
AcDbLine
 10
15.1161425339
 20
77.5833855135
 30
0.0
 11
15.1161425339
 21
65.5833855135
 31
0.0
  0
LINE
  5
B6
100
AcDbEntity
  8
MASSLINIEN
390
0
 62
       172
100
AcDbLine
 10
23.1161425339
 20
77.5833855135
 30
0.0
 11
14.1161425339
 21
77.5833855135
 31
0.0
  0
LINE
  5
B7
100
AcDbEntity
  8
MASSLINIEN
390
0
 62
       172
100
AcDbLine
 10
23.1161425339
 20
65.5833855135
 30
0.0
 11
14.1161425339
 21
65.5833855135
 31
0.0
  0
SOLID
  5
B8
100
AcDbEntity
  8
MASSGRENZEN
390
0
100
AcDbTrace
 10
15.1161425339
 20
77.5833855135
 30
0.0
 11
15.3119318223
 21
76.0962182215
 31
0.0
 12
14.9203532456
 22
76.0962182215
 32
0.0
 13
14.9203532456
 23
76.0962182215
 33
0.0
  0
SOLID
  5
B9
100
AcDbEntity
  8
MASSGRENZEN
390
0
100
AcDbTrace
 10
15.1161425339
 20
65.5833855135
 30
0.0
 11
14.9203532456
 21
67.0705528056
 31
0.0
 12
15.3119318223
 22
67.0705528056
 32
0.0
 13
15.3119318223
 23
67.0705528056
 33
0.0
  0
MTEXT
  5
BA
100
AcDbEntity
  8
MASSTEXTE
390
0
 62
       212
100
AcDbMText
 10
13.5241425339
 20
71.5833855135
 30
0.0
 40
1.5
 41
0.0
 71
         5
 72
         1
  1
\W1.135145;\A1;12
  7
Arial
 11
0.0
 21
1.0
 31
0.0
 73
         0
 44
0.0
  0
ENDBLK
  5
BB
100
AcDbEntity
  8
0
390
0
100
AcDbBlockEnd
  0
BLOCK
  5
BD
100
AcDbEntity
  8
BEMASSUNG
390
0
100
AcDbBlockBegin
  2
D208441856
 70
         0
 10
0.0
 20
0.0
 30
0.0
  3
D208441856
  1

  0
LINE
  5
BE
100
AcDbEntity
  8
MASSLINIEN
390
0
 62
       172
100
AcDbLine
 10
39.666854638
 20
25.1336120521
 30
0.0
 11
39.666854638
 21
27.1336120521
 31
0.0
  0
LINE
  5
BF
100
AcDbEntity
  8
MASSLINIEN
390
0
 62
       172
100
AcDbLine
 10
29.5
 20
25.1336120521
 30
0.0
 11
40.666854638
 21
25.1336120521
 31
0.0
  0
LINE
  5
C0
100
AcDbEntity
  8
MASSLINIEN
390
0
 62
       172
100
AcDbLine
 10
34.0
 20
27.1336120521
 30
0.0
 11
40.666854638
 21
27.1336120521
 31
0.0
  0
LINE
  5
C1
100
AcDbEntity
  8
MASSLINIEN
390
0
 62
       172
100
AcDbLine
 10
39.666854638
 20
27.1336120521
 30
0.0
 11
39.666854638
 21
31.6108633029
 31
0.0
  0
LINE
  5
C2
100
AcDbEntity
  8
MASSLINIEN
390
0
 62
       172
100
AcDbLine
 10
39.666854638
 20
25.1336120521
 30
0.0
 11
39.666854638
 21
22.069277468
 31
0.0
  0
SOLID
  5
C3
100
AcDbEntity
  8
MASSGRENZEN
390
0
100
AcDbTrace
 10
39.666854638
 20
25.1336120521
 30
0.0
 11
39.8626439263
 21
23.64644476
 31
0.0
 12
39.4710653497
 22
23.64644476
 32
0.0
 13
39.4710653497
 23
23.64644476
 33
0.0
  0
SOLID
  5
C4
100
AcDbEntity
  8
MASSGRENZEN
390
0
100
AcDbTrace
 10
39.666854638
 20
27.1336120521
 30
0.0
 11
39.4710653497
 21
28.6207793442
 31
0.0
 12
39.8626439263
 22
28.6207793442
 32
0.0
 13
39.8626439263
 23
28.6207793442
 33
0.0
  0
MTEXT
  5
C5
100
AcDbEntity
  8
MASSTEXTE
390
0
 62
       212
100
AcDbMText
 10
38.074854638
 20
30.8594049696
 30
0.0
 40
1.5
 41
0.0
 71
         5
 72
         1
  1
\W1.135145;\A1;2
  7
Arial
 11
0.0
 21
1.0
 31
0.0
 73
         0
 44
0.0
  0
ENDBLK
  5
C6
100
AcDbEntity
  8
0
390
0
100
AcDbBlockEnd
  0
BLOCK
  5
C8
100
AcDbEntity
  8
BEMASSUNG
390
0
100
AcDbBlockBegin
  2
D208441600
 70
         0
 10
0.0
 20
0.0
 30
0.0
  3
D208441600
  1

  0
LINE
  5
C9
100
AcDbEntity
  8
MASSLINIEN
390
0
 62
       172
100
AcDbLine
 10
44.666854638
 20
21.1336120521
 30
0.0
 11
44.666854638
 21
27.1336120521
 31
0.0
  0
LINE
  5
CA
100
AcDbEntity
  8
MASSLINIEN
390
0
 62
       172
100
AcDbLine
 10
34.0
 20
21.1336120521
 30
0.0
 11
45.666854638
 21
21.1336120521
 31
0.0
  0
LINE
  5
CB
100
AcDbEntity
  8
MASSLINIEN
390
0
 62
       172
100
AcDbLine
 10
34.0
 20
27.1336120521
 30
0.0
 11
45.666854638
 21
27.1336120521
 31
0.0
  0
SOLID
  5
CC
100
AcDbEntity
  8
MASSGRENZEN
390
0
100
AcDbTrace
 10
44.666854638
 20
21.1336120521
 30
0.0
 11
44.4710653497
 21
22.6207793442
 31
0.0
 12
44.8626439263
 22
22.6207793442
 32
0.0
 13
44.8626439263
 23
22.6207793442
 33
0.0
  0
SOLID
  5
CD
100
AcDbEntity
  8
MASSGRENZEN
390
0
100
AcDbTrace
 10
44.666854638
 20
27.1336120521
 30
0.0
 11
44.8626439263
 21
25.64644476
 31
0.0
 12
44.4710653497
 22
25.64644476
 32
0.0
 13
44.4710653497
 23
25.64644476
 33
0.0
  0
MTEXT
  5
CE
100
AcDbEntity
  8
MASSTEXTE
390
0
 62
       212
100
AcDbMText
 10
43.074854638
 20
24.1336120521
 30
0.0
 40
1.5
 41
0.0
 71
         5
 72
         1
  1
\W1.135145;\A1;6
  7
Arial
 11
0.0
 21
1.0
 31
0.0
 73
         0
 44
0.0
  0
ENDBLK
  5
CF
100
AcDbEntity
  8
0
390
0
100
AcDbBlockEnd
  0
BLOCK
  5
D1
100
AcDbEntity
  8
BEMASSUNG
390
0
100
AcDbBlockBegin
  2
D495962112
 70
         0
 10
0.0
 20
0.0
 30
0.0
  3
D495962112
  1

  0
LINE
  5
D2
100
AcDbEntity
  8
MASSLINIEN
390
0
 62
       172
100
AcDbLine
 10
71.1466039559
 20
28.1336120521
 30
0.0
 11
71.1466039559
 21
19.1378528347
 31
0.0
  0
LINE
  5
D3
100
AcDbEntity
  8
MASSLINIEN
390
0
 62
       172
100
AcDbLine
 10
60.0
 20
28.1336120521
 30
0.0
 11
72.1466039559
 21
28.1336120521
 31
0.0
  0
LINE
  5
D4
100
AcDbEntity
  8
MASSLINIEN
390
0
 62
       172
100
AcDbLine
 10
60.0
 20
19.1378528347
 30
0.0
 11
72.1466039559
 21
19.1378528347
 31
0.0
  0
SOLID
  5
D5
100
AcDbEntity
  8
MASSGRENZEN
390
0
100
AcDbTrace
 10
71.1466039559
 20
28.1336120521
 30
0.0
 11
71.3423932443
 21
26.64644476
 31
0.0
 12
70.9508146676
 22
26.64644476
 32
0.0
 13
70.9508146676
 23
26.64644476
 33
0.0
  0
SOLID
  5
D6
100
AcDbEntity
  8
MASSGRENZEN
390
0
100
AcDbTrace
 10
71.1466039559
 20
19.1378528347
 30
0.0
 11
70.9508146676
 21
20.6250201268
 31
0.0
 12
71.3423932443
 22
20.6250201268
 32
0.0
 13
71.3423932443
 23
20.6250201268
 33
0.0
  0
MTEXT
  5
D7
100
AcDbEntity
  8
MASSTEXTE
390
0
 62
       212
100
AcDbMText
 10
69.5546039559
 20
23.6357324434
 30
0.0
 40
1.5
 41
0.0
 71
         5
 72
         1
  1
\W1.135145;\A1;9
  7
Arial
 11
0.0
 21
1.0
 31
0.0
 73
         0
 44
0.0
  0
ENDBLK
  5
D8
100
AcDbEntity
  8
0
390
0
100
AcDbBlockEnd
  0
ENDSEC
  0
SECTION
  2
ENTITIES
  0
LINE
  5
D9
100
AcDbEntity
  8
2600__ WEICHENBOCK
390
0
100
AcDbLine
 10
41.6159131235
 20
67.5833855135
 30
0.0
 11
41.6159131235
 21
75.5833855135
 31
0.0
  0
LINE
  5
DA
100
AcDbEntity
  8
2600__ WEICHENBOCK
390
0
100
AcDbLine
 10
41.6159131235
 20
75.5833855135
 30
0.0
 11
35.6159131235
 21
75.5833855135
 31
0.0
  0
LINE
  5
DB
100
AcDbEntity
  8
2600__ WEICHENBOCK
390
0
100
AcDbLine
 10
42.6159131235
 20
66.5833855135
 30
0.0
 11
42.6159131235
 21
76.5833855135
 31
0.0
  0
LINE
  5
DC
100
AcDbEntity
  8
2600__ WEICHENBOCK
390
0
100
AcDbLine
 10
35.6159131235
 20
76.5833855135
 30
0.0
 11
42.6159131235
 21
76.5833855135
 31
0.0
  0
LINE
  5
DD
100
AcDbEntity
  8
2600__ WEICHENBOCK
390
0
100
AcDbLine
 10
41.6159131235
 20
67.5833855135
 30
0.0
 11
36.6159131235
 21
67.5833855135
 31
0.0
  0
LINE
  5
DE
100
AcDbEntity
  8
2600__ WEICHENBOCK
390
0
100
AcDbLine
 10
42.6159131235
 20
66.5833855135
 30
0.0
 11
36.6159131235
 21
66.5833855135
 31
0.0
  0
ARC
  5
DF
100
AcDbEntity
  8
2600__ WEICHENBOCK
390
0
100
AcDbCircle
 10
36.6159131235
 20
68.5833855135
 30
0.0
 40
1.0
100
AcDbArc
 50
180.0
 51
270.0
  0
ARC
  5
E0
100
AcDbEntity
  8
2600__ WEICHENBOCK
390
0
100
AcDbCircle
 10
36.6159131235
 20
68.5833855135
 30
0.0
 40
2.0
100
AcDbArc
 50
180.0
 51
270.0
  0
LINE
  5
E1
100
AcDbEntity
  8
2600__ WEICHENBOCK
390
0
100
AcDbLine
 10
35.6159131235
 20
68.5833855135
 30
0.0
 11
35.6159131235
 21
72.5833855135
 31
0.0
  0
LINE
  5
E2
100
AcDbEntity
  8
2600__ WEICHENBOCK
390
0
100
AcDbLine
 10
34.6159131235
 20
68.5833855135
 30
0.0
 11
34.6159131235
 21
72.5833855135
 31
0.0
  0
ARC
  5
E3
100
AcDbEntity
  8
2600__ WEICHENBOCK
390
0
100
AcDbCircle
 10
40.6159131235
 20
68.5833855135
 30
0.0
 40
1.0
100
AcDbArc
 50
270.0
 51
360.0
  0
LINE
  5
E4
100
AcDbEntity
  8
2600__ WEICHENBOCK
390
0
 62
        94
100
AcDbLine
 10
104.8976873023
 20
69.7238085133
 30
0.0
 11
109.48347374
 21
69.7238085133
 31
0.0
  0
LINE
  5
E5
100
AcDbEntity
  8
2600__ WEICHENBOCK
390
0
 62
        94
100
AcDbLine
 10
109.48347374
 20
69.7238085133
 30
0.0
 11
110.1905805211
 21
69.0167017322
 31
0.0
  0
LINE
  5
E6
100
AcDbEntity
  8
2600__ WEICHENBOCK
390
0
 62
        94
100
AcDbLine
 10
110.1905805211
 20
69.0167017322
 30
0.0
 11
110.8976873023
 21
69.7238085133
 31
0.0
  0
LINE
  5
E7
100
AcDbEntity
  8
2600__ WEICHENBOCK
390
0
 62
        94
100
AcDbLine
 10
110.8976873023
 20
71.1380220757
 30
0.0
 11
111.6047940835
 21
70.4309152945
 31
0.0
  0
LINE
  5
E8
100
AcDbEntity
  8
2600__ WEICHENBOCK
390
0
 62
        94
100
AcDbLine
 10
110.8976873023
 20
75.7238085133
 30
0.0
 11
110.8976873023
 21
71.1380220757
 31
0.0
  0
LINE
  5
E9
100
AcDbEntity
  8
2600__ WEICHENBOCK
390
0
 62
        94
100
AcDbLine
 10
111.6047940835
 20
70.4309152945
 30
0.0
 11
110.8976873023
 21
69.7238085133
 31
0.0
  0
LINE
  5
EA
100
AcDbEntity
  8
2600__ WEICHENBOCK
390
0
 62
        94
100
AcDbLine
 10
104.8976873023
 20
69.7238085133
 30
0.0
 11
105.8976873023
 21
74.7238085133
 31
0.0
  0
LINE
  5
EB
100
AcDbEntity
  8
2600__ WEICHENBOCK
390
0
 62
        94
100
AcDbLine
 10
105.8976873023
 20
74.7238085133
 30
0.0
 11
110.8976873023
 21
75.7238085133
 31
0.0
  0
LINE
  5
EC
100
AcDbEntity
  8
2600__ WEICHENBOCK
390
0
 62
        94
100
AcDbLine
 10
109.48347374
 20
69.7238085133
 30
0.0
 11
110.8976873023
 21
71.1380220757
 31
0.0
  0
LINE
  5
ED
100
AcDbEntity
  8
2600__ WEICHENBOCK
390
0
 62
         5
100
AcDbLine
 10
89.0373076923
 20
71.6426696833
 30
0.0
 11
91.0373076923
 21
71.6426696833
 31
0.0
  0
LINE
  5
EE
100
AcDbEntity
  8
2600__ WEICHENBOCK
390
0
 62
         5
100
AcDbLine
 10
89.0373076923
 20
70.6426696833
 30
0.0
 11
91.0373076923
 21
70.6426696833
 31
0.0
  0
LINE
  5
EF
100
AcDbEntity
  8
2600__ WEICHENBOCK
390
0
 62
         5
100
AcDbLine
 10
91.0373076923
 20
71.6426696833
 30
0.0
 11
92.0373076923
 21
74.6426696833
 31
0.0
  0
LINE
  5
F0
100
AcDbEntity
  8
2600__ WEICHENBOCK
390
0
 62
         5
100
AcDbLine
 10
92.0373076923
 20
74.6426696833
 30
0.0
 11
98.0373076923
 21
74.6426696833
 31
0.0
  0
LINE
  5
F1
100
AcDbEntity
  8
2600__ WEICHENBOCK
390
0
 62
         5
100
AcDbLine
 10
91.0373076923
 20
70.6426696833
 30
0.0
 11
92.0373076923
 21
67.6426696833
 31
0.0
  0
LINE
  5
F2
100
AcDbEntity
  8
2600__ WEICHENBOCK
390
0
 62
         5
100
AcDbLine
 10
98.0373076923
 20
67.6426696833
 30
0.0
 11
92.0373076923
 21
67.6426696833
 31
0.0
  0
LINE
  5
F3
100
AcDbEntity
  8
2600__ WEICHENBOCK
390
0
 62
         5
100
AcDbLine
 10
98.0373076923
 20
67.6426696833
 30
0.0
 11
99.0373076923
 21
70.6426696833
 31
0.0
  0
LINE
  5
F4
100
AcDbEntity
  8
2600__ WEICHENBOCK
390
0
 62
         5
100
AcDbLine
 10
99.0373076923
 20
71.6426696833
 30
0.0
 11
98.0373076923
 21
74.6426696833
 31
0.0
  0
LINE
  5
F5
100
AcDbEntity
  8
2600__ WEICHENBOCK
390
0
 62
        94
100
AcDbLine
 10
29.1161425339
 20
69.6033855135
 30
0.0
 11
29.1161425339
 21
76.6033855135
 31
0.0
  0
LINE
  5
F6
100
AcDbEntity
  8
2600__ WEICHENBOCK
390
0
 62
        94
100
AcDbLine
 10
29.1161425339
 20
76.6033855135
 30
0.0
 11
23.1161425339
 21
76.6033855135
 31
0.0
  0
LINE
  5
F7
100
AcDbEntity
  8
2600__ WEICHENBOCK
390
0
 62
        94
100
AcDbLine
 10
29.1161425339
 20
69.6033855135
 30
0.0
 11
23.1161425339
 21
69.6033855135
 31
0.0
  0
LINE
  5
F8
100
AcDbEntity
  8
2600__ WEICHENBOCK
390
0
 62
        94
100
AcDbLine
 10
23.1161425339
 20
76.6033855135
 30
0.0
 11
23.1161425339
 21
69.6033855135
 31
0.0
  0
LINE
  5
F9
100
AcDbEntity
  8
2600__ WEICHENBOCK
390
0
100
AcDbLine
 10
35.6159131235
 20
72.5833855135
 30
0.0
 11
34.6159131235
 21
72.5833855135
 31
0.0
  0
LINE
  5
FA
100
AcDbEntity
  8
2600__ WEICHENBOCK
390
0
100
AcDbLine
 10
35.6159131235
 20
75.5833855135
 30
0.0
 11
35.6159131235
 21
76.5833855135
 31
0.0
  0
ARC
  5
FB
100
AcDbEntity
  8
2600__ WEICHENBOCK
390
0
100
AcDbCircle
 10
40.6159131235
 20
74.5833855135
 30
0.0
 40
1.0
100
AcDbArc
 50
360.0
 51
450.0
  0
TEXT
  5
FC
100
AcDbEntity
  8
BESCHRIFTUNG
390
0
100
AcDbText
 10
31.7664686382
 20
82.6582192099
 30
0.0
 40
1.5
  1
2600.1P
 41
1.135098276
  7
Arial
100
AcDbText
  0
MTEXT
  5
FD
100
AcDbEntity
  8
BESCHRIFTUNG
390
0
100
AcDbMText
 10
106.4344270205
 20
96.1656762632
 30
0.0
 40
1.5
 41
0.0
 71
         1
 72
         1
  1
\W1.135138;2600.1\P2600.3\P2600.4\P2600.5\P2600.6\P2600.7\P2600.8\P
  7
Arial
 73
         1
 44
0.66
  0
MTEXT
  5
FE
100
AcDbEntity
  8
BESCHRIFTUNG
390
0
100
AcDbMText
 10
117.4344270205
 20
96.1656762632
 30
0.0
 40
1.5
 41
0.0
 71
         1
 72
         1
  1
\W1.135081;Weichenbock\PWeichensignal\PWeichensignalachse\PWeichengewicht\PWeichengewichthebel\PWeichengewichtkipphebel\PWeichengewichtstößer\P
  7
Arial
 73
         1
 44
0.66
  0
CIRCLE
  5
FF
100
AcDbEntity
  8
2600__ WEICHENBOCK
390
0
100
AcDbCircle
 10
54.1161425339
 20
69.5682409502
 30
0.0
 40
2.5
  0
CIRCLE
  5
100
100
AcDbEntity
  8
2600_1P
390
0
  6
PHANTOM
100
AcDbCircle
 10
23.1161425339
 20
77.5833855135
 30
0.0
 40
0.5
  0
LINE
  5
101
100
AcDbEntity
  8
2600_1P
390
0
100
AcDbLine
 10
30.1161425339
 20
68.5985300769
 30
0.0
 11
30.1161425339
 21
77.5833855135
 31
0.0
  0
LINE
  5
102
100
AcDbEntity
  8
2600_1P
390
0
  6
DIVIDE
100
AcDbLine
 10
23.1161425339
 20
77.5833855135
 30
0.0
 11
30.1161425339
 21
77.5833855135
 31
0.0
  0
LINE
  5
103
100
AcDbEntity
  8
2600_1P
390
0
100
AcDbLine
 10
40.6159131235
 20
74.5833855135
 30
0.0
 11
40.6159131235
 21
68.5833855135
 31
0.0
  0
LINE
  5
104
100
AcDbEntity
  8
2600_1P
390
0
100
AcDbLine
 10
40.6159131235
 20
68.5833855135
 30
0.0
 11
36.6159131235
 21
68.5833855135
 31
0.0
  0
LINE
  5
105
100
AcDbEntity
  8
2600_1P
390
0
100
AcDbLine
 10
36.6159131235
 20
68.5833855135
 30
0.0
 11
36.6159131235
 21
72.5833855135
 31
0.0
  0
LINE
  5
106
100
AcDbEntity
  8
2600_1P
390
0
100
AcDbLine
 10
36.6159131235
 20
72.5833855135
 30
0.0
 11
38.6159131235
 21
69.5833855135
 31
0.0
  0
LINE
  5
107
100
AcDbEntity
  8
2600_1P
390
0
100
AcDbLine
 10
38.6159131235
 20
69.5833855135
 30
0.0
 11
38.6159131235
 21
73.5833855135
 31
0.0
  0
LINE
  5
108
100
AcDbEntity
  8
2600_1P
390
0
100
AcDbLine
 10
38.6159131235
 20
73.5833855135
 30
0.0
 11
33.6159131235
 21
73.5833855135
 31
0.0
  0
ARC
  5
109
100
AcDbEntity
  8
2600_1P
390
0
  6
DIVIDE
100
AcDbCircle
 10
36.6159131235
 20
68.5833855135
 30
0.0
 40
3.0
100
AcDbArc
 50
180.0
 51
270.0
  0
LINE
  5
10A
100
AcDbEntity
  8
2600_1P
390
0
  6
DASHED
100
AcDbLine
 10
43.6159131235
 20
76.5682409502
 30
0.0
 11
54.1161425339
 21
69.5682409502
 31
0.0
  0
CIRCLE
  5
10B
100
AcDbEntity
  8
2600_1P
390
0
  6
PHANTOM
100
AcDbCircle
 10
23.1161425339
 20
65.5833855135
 30
0.0
 40
1.0
  0
CIRCLE
  5
10C
100
AcDbEntity
  8
2600_1P
390
0
100
AcDbCircle
 10
54.1161425339
 20
69.5682409502
 30
0.0
 40
1.5
  0
CIRCLE
  5
10D
100
AcDbEntity
  8
2600_1P
390
0
100
AcDbCircle
 10
54.1161425339
 20
69.5682409502
 30
0.0
 40
3.0
  0
TEXT
  5
10E
100
AcDbEntity
  8
2600_1P
390
0
100
AcDbText
 10
53.4006229245
 20
72.0091213846
 30
0.0
 40
0.75
  1
B3
 41
1.1350204087
  7
Arial
 11
53.4006229245
 21
72.7591213846
 31
0.0
100
AcDbText
 73
         3
  0
TEXT
  5
10F
100
AcDbEntity
  8
2600_1P
390
0
100
AcDbText
 10
54.9183174495
 20
69.3464124781
 30
0.0
 40
0.75
  1
B3
 41
1.1350204087
  7
Arial
 11
54.9183174495
 21
70.0964124781
 31
0.0
100
AcDbText
 73
         3
  0
ARC
  5
110
100
AcDbEntity
  8
2600_1P
390
0
100
AcDbCircle
 10
54.1161425339
 20
69.5682409502
 30
0.0
 40
3.5
100
AcDbArc
 50
45.0
 51
135.0
  0
ARC
  5
111
100
AcDbEntity
  8
2600_1P
390
0
100
AcDbCircle
 10
54.1161425339
 20
69.5682409502
 30
0.0
 40
3.5
100
AcDbArc
 50
225.0
 51
315.0
  0
ARC
  5
112
100
AcDbEntity
  8
2600_1P
390
0
  6
DIVIDE
100
AcDbCircle
 10
54.1161425339
 20
69.5682409502
 30
0.0
 40
3.5
100
AcDbArc
 50
315.0
 51
405.0
  0
ARC
  5
113
100
AcDbEntity
  8
2600_1P
390
0
  6
DIVIDE
100
AcDbCircle
 10
54.1161425339
 20
69.5682409502
 30
0.0
 40
3.5
100
AcDbArc
 50
135.0
 51
225.0
  0
LINE
  5
114
100
AcDbEntity
  8
2600_1P
390
0
  6
DASHED
100
AcDbLine
 10
54.1161425339
 20
69.5682409502
 30
0.0
 11
51.6412687998
 21
67.0933672161
 31
0.0
  0
LINE
  5
115
100
AcDbEntity
  8
2600_1P
390
0
  6
DASHED
100
AcDbLine
 10
51.6412687998
 20
67.0933672161
 30
0.0
 11
23.1161425339
 21
65.5833855135
 31
0.0
  0
TEXT
  5
116
100
AcDbEntity
  8
2600_1P
390
0
100
AcDbText
 10
51.9049540072
 20
65.7455140187
 30
0.0
 40
0.75
  1
N1
 41
1.1350267802
  7
Arial
 11
51.9049540072
 21
66.4955140187
 31
0.0
100
AcDbText
 73
         3
  0
MTEXT
  5
117
100
AcDbEntity
  8
2600_7P
390
0
100
AcDbMText
 10
84.2171247357
 20
80.4951764172
 30
0.0
 40
1.0
 41
0.0
 71
         1
 72
         1
  1
\W1.135110;M0,3x25auf4 F150\PT4,3 O2 S6 I1,0\PB3,7   
  7
Arial
 73
         1
 44
0.66
  0
CIRCLE
  5
118
100
AcDbEntity
  8
2600__ WEICHENBOCK
390
0
 62
        94
100
AcDbCircle
 10
107.3976873023
 20
73.2238085133
 30
0.0
 40
0.5
  0
TEXT
  5
119
100
AcDbEntity
  8
BESCHRIFTUNG
390
0
100
AcDbText
 10
75.1876337966
 20
78.732647943
 30
0.0
 40
1.5
  1
2600.7
 41
1.1351380459
  7
Arial
100
AcDbText
  0
TEXT
  5
11A
100
AcDbEntity
  8
BESCHRIFTUNG
390
0
100
AcDbText
 10
116.1876337966
 20
70.732647943
 30
0.0
 40
1.5
  1
2600.8
 41
1.135138099
  7
Arial
100
AcDbText
  0
LINE
  5
11B
100
AcDbEntity
  8
MITTELLINIEN
390
0
100
AcDbLine
 10
25.0
 20
29.1578528347
 30
0.0
 11
25.0
 21
10.1578528347
 31
0.0
  0
LINE
  5
11C
100
AcDbEntity
  8
MITTELLINIEN
390
0
100
AcDbLine
 10
35.0
 20
29.1578528347
 30
0.0
 11
35.0
 21
8.1578528347
 31
0.0
  0
TEXT
  5
11D
100
AcDbEntity
  8
BESCHRIFTUNG
390
0
100
AcDbText
 10
10.6503261043
 20
31.7478310945
 30
0.0
 40
1.5
  1
2601.1O
 41
1.1351116663
  7
Arial
100
AcDbText
  0
LINE
  5
11E
100
AcDbEntity
  8
SPERRSCHUH
390
0
100
AcDbLine
 10
25.0
 20
27.1336120521
 30
0.0
 11
29.5
 21
25.1336120521
 31
0.0
  0
LINE
  5
11F
100
AcDbEntity
  8
SPERRSCHUH
390
0
100
AcDbLine
 10
29.5
 20
26.2279295856
 30
0.0
 11
31.5377855495
 21
27.1336120521
 31
0.0
  0
LINE
  5
120
100
AcDbEntity
  8
SPERRSCHUH
390
0
100
AcDbLine
 10
29.5
 20
25.1336120521
 30
0.0
 11
34.0
 21
27.1336120521
 31
0.0
  0
LINE
  5
121
100
AcDbEntity
  8
SPERRSCHUH
390
0
100
AcDbLine
 10
27.4622144504
 20
27.1336120521
 30
0.0
 11
29.5
 21
26.2279295856
 31
0.0
  0
LINE
  5
122
100
AcDbEntity
  8
SPERRSCHUH
390
0
100
AcDbLine
 10
25.0
 20
21.1336120521
 30
0.0
 11
25.0
 21
24.6336120521
 31
0.0
  0
LINE
  5
123
100
AcDbEntity
  8
SPERRSCHUH
390
0
100
AcDbLine
 10
34.0
 20
27.1336120521
 30
0.0
 11
34.0
 21
23.6336120521
 31
0.0
  0
LINE
  5
124
100
AcDbEntity
  8
SPERRSCHUH
390
0
100
AcDbLine
 10
34.0
 20
24.6336120521
 30
0.0
 11
34.0
 21
21.1336120521
 31
0.0
  0
LINE
  5
125
100
AcDbEntity
  8
SPERRSCHUH
390
0
100
AcDbLine
 10
25.0
 20
27.1336120521
 30
0.0
 11
34.0
 21
27.1336120521
 31
0.0
  0
LINE
  5
126
100
AcDbEntity
  8
SPERRSCHUH
390
0
100
AcDbLine
 10
25.0
 20
23.6336120521
 30
0.0
 11
25.0
 21
27.1336120521
 31
0.0
  0
ARC
  5
127
100
AcDbEntity
  8
SPERRSCHUH
390
0
100
AcDbCircle
 10
29.5
 20
27.3222471192
 30
0.0
 40
1.0
100
AcDbArc
 50
246.0375110254
 51
293.9624889746
  0
LINE
  5
128
100
AcDbEntity
  8
2601_1O
390
0
  6
DIVIDE
100
AcDbLine
 10
25.0
 20
28.1336120521
 30
0.0
 11
27.6744289009
 21
28.1336120521
 31
0.0
  0
LINE
  5
129
100
AcDbEntity
  8
2601_1O
390
0
  6
DIVIDE
100
AcDbLine
 10
27.6744289009
 20
28.1336120521
 30
0.0
 11
29.5
 21
27.3222471192
 31
0.0
  0
LINE
  5
12A
100
AcDbEntity
  8
2601_1O
390
0
  6
DIVIDE
100
AcDbLine
 10
29.5
 20
27.3222471192
 30
0.0
 11
31.3255710991
 21
28.1336120521
 31
0.0
  0
LINE
  5
12B
100
AcDbEntity
  8
2601_1O
390
0
  6
DIVIDE
100
AcDbLine
 10
24.0
 20
26.483738963
 30
0.0
 11
29.5
 21
24.0392945186
 31
0.0
  0
LINE
  5
12C
100
AcDbEntity
  8
2601_1O
390
0
  6
DIVIDE
100
AcDbLine
 10
29.5
 20
24.0392945186
 30
0.0
 11
34.6
 21
26.3059611852
 31
0.0
  0
LINE
  5
12D
100
AcDbEntity
  8
2601_1O
390
0
  6
DIVIDE
100
AcDbLine
 10
31.3255710991
 20
28.1336120521
 30
0.0
 11
34.6
 21
28.1336120521
 31
0.0
  0
LINE
  5
12E
100
AcDbEntity
  8
2601_1O
390
0
  6
DIVIDE
100
AcDbLine
 10
34.6
 20
28.1336120521
 30
0.0
 11
34.6
 21
26.3059611852
 31
0.0
  0
CIRCLE
  5
12F
100
AcDbEntity
  8
2601_1O
390
0
  6
PHANTOM
100
AcDbCircle
 10
25.0
 20
28.1336120521
 30
0.0
 40
0.5
  0
LINE
  5
130
100
AcDbEntity
  8
SPERRSCHUH
390
0
100
AcDbLine
 10
34.0
 20
21.1336120521
 30
0.0
 11
25.0
 21
21.1336120521
 31
0.0
  0
LINE
  5
131
100
AcDbEntity
  8
2601_1O
390
0
100
AcDbLine
 10
35.0
 20
20.1336120521
 30
0.0
 11
24.0
 21
20.1336120521
 31
0.0
  0
LINE
  5
132
100
AcDbEntity
  8
2601_1O
390
0
  6
DIVIDE
100
AcDbLine
 10
24.0
 20
26.483738963
 30
0.0
 11
24.0
 21
24.4922626627
 31
0.0
  0
LINE
  5
133
100
AcDbEntity
  8
2601_1O
390
0
  6
DIVIDE
100
AcDbLine
 10
24.0
 20
24.4922626627
 30
0.0
 11
29.5
 21
22.0478182183
 31
0.0
  0
LINE
  5
134
100
AcDbEntity
  8
2601_1O
390
0
  6
DIVIDE
100
AcDbLine
 10
29.5
 20
22.0478182183
 30
0.0
 11
34.6
 21
24.3144848849
 31
0.0
  0
LINE
  5
135
100
AcDbEntity
  8
2601_1O
390
0
  6
DIVIDE
100
AcDbLine
 10
24.0
 20
22.5007863624
 30
0.0
 11
29.5
 21
20.056341918
 31
0.0
  0
LINE
  5
136
100
AcDbEntity
  8
2601_1O
390
0
  6
DIVIDE
100
AcDbLine
 10
29.5
 20
20.056341918
 30
0.0
 11
34.6
 21
22.3230085846
 31
0.0
  0
LINE
  5
137
100
AcDbEntity
  8
2601_1O
390
0
  6
DIVIDE
100
AcDbLine
 10
34.6
 20
24.3144848849
 30
0.0
 11
34.6
 21
22.3230085846
 31
0.0
  0
LINE
  5
138
100
AcDbEntity
  8
2601_1O
390
0
  6
DIVIDE
100
AcDbLine
 10
24.0
 20
22.5007863624
 30
0.0
 11
24.0
 21
20.1336120521
 31
0.0
  0
CIRCLE
  5
139
100
AcDbEntity
  8
2601_1O
390
0
  6
PHANTOM
100
AcDbCircle
 10
25.0
 20
19.1378528347
 30
0.0
 40
1.0
  0
MTEXT
  5
13A
100
AcDbEntity
  8
2601_1O
390
0
100
AcDbMText
 10
21.6798170434
 20
31.5103595687
 30
0.0
 40
1.0
 41
0.0
 71
         1
 72
         1
  1
\W1.135100;M10x5 F150\PT5 O2 S12 I0,8\PB1      D4,2
  7
Arial
 73
         1
 44
0.66
  0
CIRCLE
  5
13B
100
AcDbEntity
  8
2601_1U
390
0
  6
PHANTOM
100
AcDbCircle
 10
60.0
 20
28.1336120521
 30
0.0
 40
0.5
  0
LINE
  5
13C
100
AcDbEntity
  8
SPERRSCHUH
390
0
100
AcDbLine
 10
60.0
 20
23.6336120521
 30
0.0
 11
60.0
 21
27.1336120521
 31
0.0
  0
LINE
  5
13D
100
AcDbEntity
  8
SPERRSCHUH
390
0
100
AcDbLine
 10
60.0
 20
27.1336120521
 30
0.0
 11
51.0
 21
27.1336120521
 31
0.0
  0
LINE
  5
13E
100
AcDbEntity
  8
SPERRSCHUH
390
0
100
AcDbLine
 10
51.0
 20
27.1336120521
 30
0.0
 11
51.0
 21
23.6336120521
 31
0.0
  0
LINE
  5
13F
100
AcDbEntity
  8
SPERRSCHUH
390
0
100
AcDbLine
 10
51.0
 20
24.6336120521
 30
0.0
 11
51.0
 21
21.1336120521
 31
0.0
  0
LINE
  5
140
100
AcDbEntity
  8
SPERRSCHUH
390
0
  6
DASHED
100
AcDbLine
 10
57.5377855496
 20
27.1336120521
 30
0.0
 11
55.5
 21
26.2279295856
 31
0.0
  0
LINE
  5
141
100
AcDbEntity
  8
SPERRSCHUH
390
0
  6
DASHED
100
AcDbLine
 10
55.5
 20
26.2279295856
 30
0.0
 11
53.4622144505
 21
27.1336120521
 31
0.0
  0
LINE
  5
142
100
AcDbEntity
  8
SPERRSCHUH
390
0
100
AcDbLine
 10
60.0
 20
21.1336120521
 30
0.0
 11
60.0
 21
24.6336120521
 31
0.0
  0
LINE
  5
143
100
AcDbEntity
  8
SPERRSCHUH
390
0
  6
DASHED
100
AcDbLine
 10
55.5
 20
25.1336120521
 30
0.0
 11
51.0
 21
27.1336120521
 31
0.0
  0
LINE
  5
144
100
AcDbEntity
  8
SPERRSCHUH
390
0
  6
DASHED
100
AcDbLine
 10
60.0
 20
27.1336120521
 30
0.0
 11
55.5
 21
25.1336120521
 31
0.0
  0
ARC
  5
145
100
AcDbEntity
  8
SPERRSCHUH
390
0
  6
DASHED
100
AcDbCircle
 10
55.5
 20
27.3222471192
 30
0.0
 40
1.0
100
AcDbArc
 50
246.0375110254
 51
293.9624889746
  0
LINE
  5
146
100
AcDbEntity
  8
MITTELLINIEN
390
0
100
AcDbLine
 10
50.0
 20
29.1578528347
 30
0.0
 11
50.0
 21
8.1578528347
 31
0.0
  0
LINE
  5
147
100
AcDbEntity
  8
MITTELLINIEN
390
0
100
AcDbLine
 10
60.0
 20
29.1578528347
 30
0.0
 11
60.0
 21
10.1578528347
 31
0.0
  0
CIRCLE
  5
148
100
AcDbEntity
  8
2601_1U
390
0
  6
PHANTOM
100
AcDbCircle
 10
60.0
 20
19.1378528347
 30
0.0
 40
1.0
  0
LINE
  5
149
100
AcDbEntity
  8
SPERRSCHUH
390
0
100
AcDbLine
 10
51.0
 20
21.1336120521
 30
0.0
 11
60.0
 21
21.1336120521
 31
0.0
  0
LINE
  5
14A
100
AcDbEntity
  8
SPERRSCHUH
390
0
100
AcDbLine
 10
58.4
 20
21.1336120521
 30
0.0
 11
58.4
 21
24.6336120521
 31
0.0
  0
LINE
  5
14B
100
AcDbEntity
  8
SPERRSCHUH
390
0
100
AcDbLine
 10
52.6
 20
24.6336120521
 30
0.0
 11
52.6
 21
21.1336120521
 31
0.0
  0
LINE
  5
14C
100
AcDbEntity
  8
SPERRSCHUH
390
0
100
AcDbLine
 10
51.0
 20
24.6336120521
 30
0.0
 11
60.0
 21
24.6336120521
 31
0.0
  0
LINE
  5
14D
100
AcDbEntity
  8
2601_1U
390
0
100
AcDbLine
 10
49.9030368694
 20
26.3336120521
 30
0.0
 11
61.5
 21
26.3336120521
 31
0.0
  0
LINE
  5
14E
100
AcDbEntity
  8
2601_1U
390
0
  6
DIVIDE
100
AcDbLine
 10
61.5
 20
25.6336120521
 30
0.0
 11
49.9030368694
 21
25.6336120521
 31
0.0
  0
LINE
  5
14F
100
AcDbEntity
  8
2601_1U
390
0
  6
DIVIDE
100
AcDbLine
 10
53.6
 20
26.5578528347
 30
0.0
 11
53.6
 21
20.6578528347
 31
0.0
  0
LINE
  5
150
100
AcDbEntity
  8
2601_1U
390
0
  6
DIVIDE
100
AcDbLine
 10
57.4
 20
20.6578528347
 30
0.0
 11
57.4
 21
27.5184813554
 31
0.0
  0
LINE
  5
151
100
AcDbEntity
  8
2601_1U
390
0
  6
DIVIDE
100
AcDbLine
 10
49.9030368694
 20
25.6336120521
 30
0.0
 11
53.6
 21
26.5578528347
 31
0.0
  0
LINE
  5
152
100
AcDbEntity
  8
2601_1U
390
0
100
AcDbLine
 10
53.6
 20
20.6578528347
 30
0.0
 11
57.4
 21
20.6578528347
 31
0.0
  0
LINE
  5
153
100
AcDbEntity
  8
2601_1U
390
0
  6
DIVIDE
100
AcDbLine
 10
55.5
 20
26.2665347849
 30
0.0
 11
55.5
 21
19.7714139831
 31
0.0
  0
LINE
  5
154
100
AcDbEntity
  8
2601_1U
390
0
  6
DIVIDE
100
AcDbLine
 10
61.5
 20
26.3336120521
 30
0.0
 11
61.5
 21
25.6336120521
 31
0.0
  0
LINE
  5
155
100
AcDbEntity
  8
2601_1U
390
0
  6
DIVIDE
100
AcDbLine
 10
57.4
 20
27.5184813554
 30
0.0
 11
55.5
 21
26.2665347849
 31
0.0
  0
MTEXT
  5
156
100
AcDbEntity
  8
2601_1U
390
0
100
AcDbMText
 10
55.4455931129
 20
31.5103595687
 30
0.0
 40
1.0
 41
0.0
 71
         1
 72
         1
  1
\W1.135100;M10x5 F150\PT5 O2 S12 I0,8\PB1,5     D2
  7
Arial
 73
         1
 44
0.66
  0
TEXT
  5
157
100
AcDbEntity
  8
BESCHRIFTUNG
390
0
100
AcDbText
 10
42.6860247032
 20
31.3986835033
 30
0.0
 40
1.5
  1
2601.1U
 41
1.1350995088
  7
Arial
100
AcDbText
  0
MTEXT
  5
158
100
AcDbEntity
  8
BESCHRIFTUNG
390
0
  6
DASHDOT
100
AcDbMText
 10
16.9871805948
 20
24.5189004276
 30
0.0
 40
1.0
 41
0.0
 71
         1
 72
         1
  1
\W1.135121;>2601.1O\PM10x5\PT5 O2
  7
Arial
 73
         1
 44
0.66
  0
MTEXT
  5
159
100
AcDbEntity
  8
BESCHRIFTUNG
390
0
  6
DASHDOT
100
AcDbMText
 10
60.9919080081
 20
24.8116726801
 30
0.0
 40
1.0
 41
0.0
 71
         1
 72
         1
  1
\W1.135111;>2601.1U\PM10x5\PT5 O2
  7
Arial
 73
         1
 44
0.66
  0
MTEXT
  5
15A
100
AcDbEntity
  8
BESCHRIFTUNG
390
0
  6
DASHDOT
100
AcDbMText
 10
83.3049438298
 20
74.5037172761
 30
0.0
 40
1.0
 41
0.0
 71
         1
 72
         1
  1
\W1.135110;>2600.7P\PM0,3x25auf4\PT4,3 O2
  7
Arial
 73
         1
 44
0.66
  0
INSERT
  5
15B
100
AcDbEntity
  8
BEMASSUNG
390
0
100
AcDbBlockReference
  2
D207894528
 10
0.0
 20
0.0
 30
0.0
  0
INSERT
  5
15C
100
AcDbEntity
  8
BEMASSUNG
390
0
100
AcDbBlockReference
  2
D207895552
 10
0.0
 20
0.0
 30
0.0
  0
LINE
  5
15D
100
AcDbEntity
  8
SPERRSCHUH
390
0
100
AcDbLine
 10
60.0
 20
25.3336120521
 30
0.0
 11
51.0
 21
25.3336120521
 31
0.0
  0
LINE
  5
15E
100
AcDbEntity
  8
2600_1P
390
0
  6
DIVIDE
100
AcDbLine
 10
30.1161425339
 20
68.5985300769
 30
0.0
 11
23.1161425339
 21
68.5985300769
 31
0.0
  0
LINE
  5
15F
100
AcDbEntity
  8
2600_1P
390
0
100
AcDbLine
 10
33.6159131235
 20
68.5833855135
 30
0.0
 11
33.6159131235
 21
73.5833855135
 31
0.0
  0
LINE
  5
160
100
AcDbEntity
  8
2600_1P
390
0
100
AcDbLine
 10
34.6159131235
 20
74.5833855135
 30
0.0
 11
34.6159131235
 21
76.5833855135
 31
0.0
  0
LINE
  5
161
100
AcDbEntity
  8
2600_1P
390
0
100
AcDbLine
 10
40.6159131235
 20
74.5833855135
 30
0.0
 11
34.6159131235
 21
74.5833855135
 31
0.0
  0
LINE
  5
162
100
AcDbEntity
  8
2601_1O
390
0
100
AcDbLine
 10
35.0
 20
27.645798294
 30
0.0
 11
35.0
 21
20.1336120521
 31
0.0
  0
LINE
  5
163
100
AcDbEntity
  8
2600__ WEICHENBOCK
390
0
 62
         5
100
AcDbLine
 10
89.0373076923
 20
71.6426696833
 30
0.0
 11
89.0373076923
 21
70.6426696833
 31
0.0
  0
LINE
  5
164
100
AcDbEntity
  8
2600__ WEICHENBOCK
390
0
 62
         5
100
AcDbLine
 10
99.0373076923
 20
71.6426696833
 30
0.0
 11
99.0373076923
 21
70.6426696833
 31
0.0
  0
LINE
  5
165
100
AcDbEntity
  8
2600_7P
390
0
100
AcDbLine
 10
90.3165484723
 20
72.6426696833
 30
0.0
 11
91.3165484723
 21
75.6426696833
 31
0.0
  0
LINE
  5
166
100
AcDbEntity
  8
2600_7P
390
0
100
AcDbLine
 10
88.0373076923
 20
72.6426696833
 30
0.0
 11
90.3165484723
 21
72.6426696833
 31
0.0
  0
LINE
  5
167
100
AcDbEntity
  8
2600_7P
390
0
100
AcDbLine
 10
88.0373076923
 20
69.6426696833
 30
0.0
 11
90.3165484723
 21
69.6426696833
 31
0.0
  0
LINE
  5
168
100
AcDbEntity
  8
2600_7P
390
0
100
AcDbLine
 10
90.3165484723
 20
69.6426696833
 30
0.0
 11
91.3165484723
 21
66.6426696833
 31
0.0
  0
LINE
  5
169
100
AcDbEntity
  8
2600_7P
390
0
100
AcDbLine
 10
98.7580669124
 20
66.6426696833
 30
0.0
 11
100.0373076923
 21
70.4803920231
 31
0.0
  0
LINE
  5
16A
100
AcDbEntity
  8
2600_7P
390
0
100
AcDbLine
 10
100.0373076923
 20
71.8049473434
 30
0.0
 11
100.0373076923
 21
70.4803920231
 31
0.0
  0
LINE
  5
16B
100
AcDbEntity
  8
2600_7P
390
0
100
AcDbLine
 10
100.0373076923
 20
71.8049473434
 30
0.0
 11
98.7580669124
 21
75.6426696833
 31
0.0
  0
LINE
  5
16C
100
AcDbEntity
  8
2600_7P
390
0
100
AcDbLine
 10
105.0478507167
 20
75.5736450989
 30
0.0
 11
106.3976873023
 21
75.8436124161
 31
0.0
  0
LINE
  5
16D
100
AcDbEntity
  8
2600_7P
390
0
100
AcDbLine
 10
103.6778833996
 20
68.7238085133
 30
0.0
 11
105.0478507167
 21
75.5736450989
 31
0.0
  0
LINE
  5
16E
100
AcDbEntity
  8
2600_7P
390
0
100
AcDbLine
 10
111.8976873023
 20
76.9436124161
 30
0.0
 11
111.8976873023
 21
71.5522356381
 31
0.0
  0
LINE
  5
16F
100
AcDbEntity
  8
2600_7P
390
0
100
AcDbLine
 10
103.6778833996
 20
68.7238085133
 30
0.0
 11
106.3976873023
 21
68.7238085133
 31
0.0
  0
LINE
  5
170
100
AcDbEntity
  8
2600_7P
390
0
100
AcDbLine
 10
109.0692601776
 20
68.7238085133
 30
0.0
 11
111.720093825
 21
66.0729748659
 31
0.0
  0
LINE
  5
171
100
AcDbEntity
  8
2600_7P
390
0
100
AcDbLine
 10
111.8976873023
 20
71.5522356381
 30
0.0
 11
114.4436970426
 21
69.0062258978
 31
0.0
  0
LINE
  5
172
100
AcDbEntity
  8
2600_7P
390
0
100
AcDbLine
 10
93.5373076923
 20
71.6426696833
 30
0.0
 11
93.5373076923
 21
70.6426696833
 31
0.0
  0
LINE
  5
173
100
AcDbEntity
  8
2600_7P
390
0
100
AcDbLine
 10
88.0373076923
 20
72.6426696833
 30
0.0
 11
88.0373076923
 21
69.6426696833
 31
0.0
  0
LINE
  5
174
100
AcDbEntity
  8
2600_7P
390
0
100
AcDbLine
 10
91.3165484723
 20
75.6426696833
 30
0.0
 11
93.0373076923
 21
75.6426696833
 31
0.0
  0
LINE
  5
175
100
AcDbEntity
  8
2600_7P
390
0
100
AcDbLine
 10
98.7580669124
 20
66.6426696833
 30
0.0
 11
97.0373076923
 21
66.6426696833
 31
0.0
  0
LINE
  5
176
100
AcDbEntity
  8
2600_7P
390
0
100
AcDbLine
 10
93.0373076923
 20
66.6426696833
 30
0.0
 11
91.3165484723
 21
66.6426696833
 31
0.0
  0
LINE
  5
177
100
AcDbEntity
  8
2600_7P
390
0
100
AcDbLine
 10
97.0373076923
 20
75.6426696833
 30
0.0
 11
98.7580669124
 21
75.6426696833
 31
0.0
  0
LINE
  5
178
100
AcDbEntity
  8
2600_7P
390
0
  6
DASHED
100
AcDbLine
 10
93.0373076923
 20
66.6426696833
 30
0.0
 11
93.5373076923
 21
70.6426696833
 31
0.0
  0
LINE
  5
179
100
AcDbEntity
  8
2600_7P
390
0
  6
DASHED
100
AcDbLine
 10
93.5373076923
 20
71.6426696833
 30
0.0
 11
97.0373076923
 21
75.6426696833
 31
0.0
  0
LINE
  5
17A
100
AcDbEntity
  8
2600_7P
390
0
100
AcDbLine
 10
109.8976873023
 20
76.5436124161
 30
0.0
 11
111.8976873023
 21
76.9436124161
 31
0.0
  0
LINE
  5
17B
100
AcDbEntity
  8
2600_7P
390
0
  6
DASHED
100
AcDbLine
 10
88.5373076923
 20
65.6426696833
 30
0.0
 11
109.8976873023
 21
76.5436124161
 31
0.0
  0
LINE
  5
17C
100
AcDbEntity
  8
2600_7P
390
0
100
AcDbLine
 10
114.4436970426
 20
69.0062258978
 30
0.0
 11
111.720093825
 21
66.0729748659
 31
0.0
  0
ARC
  5
17D
100
AcDbEntity
  8
2600__ WEICHENBOCK
390
0
 62
         5
100
AcDbCircle
 10
90.3165484723
 20
69.6426696833
 30
0.0
 40
1.0
100
AcDbArc
 50
18.4349488229
 51
90.0
  0
ARC
  5
17E
100
AcDbEntity
  8
2600__ WEICHENBOCK
390
0
 62
         5
100
AcDbCircle
 10
90.3165484723
 20
72.6426696833
 30
0.0
 40
1.0
100
AcDbArc
 50
270.0
 51
341.5650511771
  0
CIRCLE
  5
17F
100
AcDbEntity
  8
2600_7P
390
0
  6
PHANTOM
100
AcDbCircle
 10
88.5373076923
 20
77.6426696833
 30
0.0
 40
0.5
  0
CIRCLE
  5
180
100
AcDbEntity
  8
2600_7P
390
0
  6
PHANTOM
100
AcDbCircle
 10
88.5373076923
 20
65.6426696833
 30
0.0
 40
1.0
  0
LINE
  5
181
100
AcDbEntity
  8
2600_7P
390
0
  6
DASHED
100
AcDbLine
 10
88.5373076923
 20
77.6426696833
 30
0.0
 11
93.0373076923
 21
75.6426696833
 31
0.0
  0
LINE
  5
182
100
AcDbEntity
  8
2600_7P
390
0
  6
DASHED
100
AcDbLine
 10
106.3976873023
 20
68.7238085133
 30
0.0
 11
97.0373076923
 21
66.6426696833
 31
0.0
  0
LINE
  5
183
100
AcDbEntity
  8
2600_7P
390
0
  6
DASHED
100
AcDbLine
 10
109.0692601776
 20
68.7238085133
 30
0.0
 11
106.3976873023
 21
75.8436124161
 31
0.0
  0
MTEXT
  5
184
100
AcDbEntity
  8
BESCHRIFTUNG
390
0
  6
DASHED
100
AcDbMText
 10
93.5373076923
 20
64.6426696833
 30
0.0
 40
1.5
 41
0.0
 71
         1
 72
         1
  1
\W1.135068;0,3mm-Bronze-\Pblech aufkleben\Pauf 4mm-MDF
  7
Arial
 73
         1
 44
0.66
  0
LINE
  5
185
100
AcDbEntity
  8
MITTELLINIEN
390
0
100
AcDbLine
 10
88.5373076923
 20
57.1426696833
 30
0.0
 11
88.5373076923
 21
80.1426696833
 31
0.0
  0
LINE
  5
186
100
AcDbEntity
  8
MITTELLINIEN
390
0
100
AcDbLine
 10
113.5373076923
 20
57.1426696833
 30
0.0
 11
113.5373076923
 21
80.1426696833
 31
0.0
  0
MTEXT
  5
187
100
AcDbEntity
  8
BESCHRIFTUNG
390
0
  6
DASHDOT
100
AcDbMText
 10
15.9610665692
 20
73.2890021686
 30
0.0
 40
1.0
 41
0.0
 71
         1
 72
         1
  1
\W1.135110;>2600.1P\PM50x5\PT5 O2
  7
Arial
 73
         1
 44
0.66
  0
MTEXT
  5
188
100
AcDbEntity
  8
2600_1P
390
0
100
AcDbMText
 10
18.5617356468
 20
80.4601330301
 30
0.0
 40
1.0
 41
0.0
 71
         1
 72
         1
  1
\W1.135100;M50x5 F150\PT5 O2 S12 I0,7\PB-0,3     D1
  7
Arial
 73
         1
 44
0.66
  0
LINE
  5
189
100
AcDbEntity
  8
2600__ WEICHENBOCK
390
0
 62
         5
100
AcDbLine
 10
92.5373076923
 20
71.6426696833
 30
0.0
 11
92.5373076923
 21
70.6426696833
 31
0.0
  0
LINE
  5
18A
100
AcDbEntity
  8
2600__ WEICHENBOCK
390
0
 62
         5
100
AcDbLine
 10
94.5373076923
 20
71.6426696833
 30
0.0
 11
94.5373076923
 21
70.6426696833
 31
0.0
  0
ARC
  5
18B
100
AcDbEntity
  8
2600__ WEICHENBOCK
390
0
 62
         5
100
AcDbCircle
 10
93.5373076923
 20
70.6426696833
 30
0.0
 40
1.0
100
AcDbArc
 50
180.0
 51
360.0
  0
ARC
  5
18C
100
AcDbEntity
  8
2600__ WEICHENBOCK
390
0
 62
         5
100
AcDbCircle
 10
93.5373076923
 20
71.6426696833
 30
0.0
 40
1.0
100
AcDbArc
 50
0.0
 51
180.0
  0
LINE
  5
18D
100
AcDbEntity
  8
2600___ WEICHENBOCK
390
0
100
AcDbLine
 10
42.6159131235
 20
74.5682409502
 30
0.0
 11
46.6159131235
 21
74.5682409502
 31
0.0
  0
LINE
  5
18E
100
AcDbEntity
  8
2600___ WEICHENBOCK
390
0
100
AcDbLine
 10
46.6159131235
 20
74.5682409502
 30
0.0
 11
46.6159131235
 21
75.5682409502
 31
0.0
  0
LINE
  5
18F
100
AcDbEntity
  8
2600___ WEICHENBOCK
390
0
100
AcDbLine
 10
46.6159131235
 20
75.5682409502
 30
0.0
 11
42.6159131235
 21
75.5682409502
 31
0.0
  0
LINE
  5
190
100
AcDbEntity
  8
2600___ WEICHENBOCK
390
0
100
AcDbLine
 10
42.6159131235
 20
68.0833855135
 30
0.0
 11
46.6159131235
 21
68.0833855135
 31
0.0
  0
LINE
  5
191
100
AcDbEntity
  8
2600___ WEICHENBOCK
390
0
100
AcDbLine
 10
46.6159131235
 20
68.0833855135
 30
0.0
 11
46.6159131235
 21
72.0833855135
 31
0.0
  0
LINE
  5
192
100
AcDbEntity
  8
2600___ WEICHENBOCK
390
0
100
AcDbLine
 10
42.6159131235
 20
69.0833855135
 30
0.0
 11
46.6159131235
 21
69.0833855135
 31
0.0
  0
LINE
  5
193
100
AcDbEntity
  8
2600___ WEICHENBOCK
390
0
100
AcDbLine
 10
42.6159131235
 20
71.0833855135
 30
0.0
 11
46.6159131235
 21
71.0833855135
 31
0.0
  0
LINE
  5
194
100
AcDbEntity
  8
2600___ WEICHENBOCK
390
0
100
AcDbLine
 10
42.6159131235
 20
72.0833855135
 30
0.0
 11
46.6159131235
 21
72.0833855135
 31
0.0
  0
ARC
  5
195
100
AcDbEntity
  8
2600__ WEICHENBOCK
390
0
100
AcDbCircle
 10
43.6163719444
 20
76.5682409502
 30
0.0
 40
1.0
100
AcDbArc
 50
180.0
 51
270.0
  0
ARC
  5
196
100
AcDbEntity
  8
2600__ WEICHENBOCK
390
0
100
AcDbCircle
 10
43.6163719444
 20
73.5682410555
 30
0.0
 40
1.0
100
AcDbArc
 50
90.0
 51
180.0
  0
ARC
  5
197
100
AcDbEntity
  8
2600__ WEICHENBOCK
390
0
100
AcDbCircle
 10
43.6163719444
 20
67.0833856188
 30
0.0
 40
1.0
100
AcDbArc
 50
90.0
 51
180.0
  0
ARC
  5
198
100
AcDbEntity
  8
2600__ WEICHENBOCK
390
0
100
AcDbCircle
 10
43.6163719444
 20
73.0833854083
 30
0.0
 40
1.0
100
AcDbArc
 50
180.0
 51
270.0
  0
LINE
  5
199
100
AcDbEntity
  8
2600_1P
390
0
100
AcDbLine
 10
43.6159131235
 20
67.0833855135
 30
0.0
 11
47.6159131235
 21
67.0833855135
 31
0.0
  0
LINE
  5
19A
100
AcDbEntity
  8
2600_1P
390
0
100
AcDbLine
 10
43.6159131235
 20
73.0833855135
 30
0.0
 11
47.6159131235
 21
73.0833855135
 31
0.0
  0
LINE
  5
19B
100
AcDbEntity
  8
2600_1P
390
0
100
AcDbLine
 10
43.6159131235
 20
73.5682409502
 30
0.0
 11
47.6159131235
 21
73.5682409502
 31
0.0
  0
LINE
  5
19C
100
AcDbEntity
  8
2600_1P
390
0
100
AcDbLine
 10
47.6159131235
 20
76.5682409502
 30
0.0
 11
43.6159131235
 21
76.5682409502
 31
0.0
  0
LINE
  5
19D
100
AcDbEntity
  8
2600_1P
390
0
  6
DIVIDE
100
AcDbLine
 10
43.6159131235
 20
70.0833855135
 30
0.0
 11
47.6159131235
 21
70.0833855135
 31
0.0
  0
ARC
  5
19E
100
AcDbEntity
  8
2600__ WEICHENBOCK
390
0
100
AcDbCircle
 10
43.6159131235
 20
70.0833855135
 30
0.0
 40
1.0
100
AcDbArc
 50
90.0
 51
270.0
  0
LINE
  5
19F
100
AcDbEntity
  8
2600_1P
390
0
  6
DIVIDE
100
AcDbLine
 10
43.6159131235
 20
68.5833855135
 30
0.0
 11
47.6159131235
 21
68.5833855135
 31
0.0
  0
LINE
  5
1A0
100
AcDbEntity
  8
2600_1P
390
0
  6
DIVIDE
100
AcDbLine
 10
43.6159131235
 20
68.5833855135
 30
0.0
 11
43.6159131235
 21
70.0833855135
 31
0.0
  0
LINE
  5
1A1
100
AcDbEntity
  8
2600_1P
390
0
  6
DIVIDE
100
AcDbLine
 10
43.6159131235
 20
71.5833855135
 30
0.0
 11
47.6159131235
 21
71.5833855135
 31
0.0
  0
LINE
  5
1A2
100
AcDbEntity
  8
2600_1P
390
0
  6
DIVIDE
100
AcDbLine
 10
43.6159131235
 20
75.0682409502
 30
0.0
 11
47.6159131235
 21
75.0682409502
 31
0.0
  0
LINE
  5
1A3
100
AcDbEntity
  8
2600_1P
390
0
  6
DIVIDE
100
AcDbLine
 10
47.6159131235
 20
67.0833855135
 30
0.0
 11
47.6159131235
 21
68.5833855135
 31
0.0
  0
LINE
  5
1A4
100
AcDbEntity
  8
2600_1P
390
0
  6
DIVIDE
100
AcDbLine
 10
47.6159131235
 20
70.0833855135
 30
0.0
 11
47.6159131235
 21
71.5833855135
 31
0.0
  0
LINE
  5
1A5
100
AcDbEntity
  8
2600_1P
390
0
  6
DIVIDE
100
AcDbLine
 10
43.6159131235
 20
71.5833855135
 30
0.0
 11
43.6159131235
 21
73.0833855135
 31
0.0
  0
LINE
  5
1A6
100
AcDbEntity
  8
2600_1P
390
0
100
AcDbLine
 10
47.6159131235
 20
73.0833855135
 30
0.0
 11
47.6159131235
 21
73.5682409502
 31
0.0
  0
LINE
  5
1A7
100
AcDbEntity
  8
2600_1P
390
0
  6
DIVIDE
100
AcDbLine
 10
43.6159131235
 20
73.5682409502
 30
0.0
 11
43.6159131235
 21
75.0682409502
 31
0.0
  0
LINE
  5
1A8
100
AcDbEntity
  8
2600_1P
390
0
  6
DIVIDE
100
AcDbLine
 10
47.6159131235
 20
75.0682409502
 30
0.0
 11
47.6159131235
 21
76.5682409502
 31
0.0
  0
INSERT
  5
1A9
100
AcDbEntity
  8
BEMASSUNG
390
0
100
AcDbBlockReference
  2
D207886848
 10
0.0
 20
0.0
 30
0.0
  0
ARC
  5
1AA
100
AcDbEntity
  8
2600___ WEICHENBOCK
390
0
  6
DASHDOT
100
AcDbCircle
 10
95.5373076923
 20
71.6426696833
 30
0.0
 40
9.2195444573
100
AcDbArc
 50
139.398705355
 51
220.601294645
  0
INSERT
  5
1AB
100
AcDbEntity
  8
BEMASSUNG
390
0
100
AcDbBlockReference
  2
D207887360
 10
0.0
 20
0.0
 30
0.0
  0
INSERT
  5
1AC
100
AcDbEntity
  8
BEMASSUNG
390
0
100
AcDbBlockReference
  2
D207887616
 10
0.0
 20
0.0
 30
0.0
  0
LINE
  5
1AD
100
AcDbEntity
  8
MITTELLINIEN
390
0
100
AcDbLine
 10
23.1161425339
 20
83.0682409502
 30
0.0
 11
23.1161425339
 21
60.0682409502
 31
0.0
  0
LINE
  5
1AE
100
AcDbEntity
  8
MITTELLINIEN
390
0
100
AcDbLine
 10
73.1161425339
 20
82.0682409502
 30
0.0
 11
73.1161425339
 21
59.0682409502
 31
0.0
  0
LINE
  5
1AF
100
AcDbEntity
  8
2600_1P
390
0
  6
DIVIDE
100
AcDbLine
 10
34.6159131235
 20
77.5833855135
 30
0.0
 11
42.6159131235
 21
77.5833855135
 31
0.0
  0
LINE
  5
1B0
100
AcDbEntity
  8
2600_1P
390
0
  6
DASHED
100
AcDbLine
 10
23.1161425339
 20
68.5985300769
 30
0.0
 11
42.6159131235
 21
77.5833855135
 31
0.0
  0
LINE
  5
1B1
100
AcDbEntity
  8
2600_1P
390
0
  6
DIVIDE
100
AcDbLine
 10
43.6159131235
 20
65.5833855135
 30
0.0
 11
36.6159131235
 21
65.5833855135
 31
0.0
  0
LINE
  5
1B2
100
AcDbEntity
  8
2600_1P
390
0
100
AcDbLine
 10
43.6159131235
 20
67.0833855135
 30
0.0
 11
43.6159131235
 21
65.5833855135
 31
0.0
  0
ARC
  5
1B3
100
AcDbEntity
  8
2600___ WEICHENBOCK
390
0
  6
DASHDOT
100
AcDbCircle
 10
26.9393412654
 20
71.5833855135
 30
0.0
 40
7.1145518861
100
AcDbArc
 50
122.505278596
 51
237.494721404
  0
TEXT
  5
1B4
100
AcDbEntity
  8
2600_1P
390
0
100
AcDbText
 10
43.9266206945
 20
74.6475892787
 30
0.0
 40
0.75
  1
D3
 41
1.1350274794
  7
Arial
 11
43.9266206945
 21
75.3975892787
 31
0.0
100
AcDbText
 73
         3
  0
TEXT
  5
1B5
100
AcDbEntity
  8
2600_1P
390
0
100
AcDbText
 10
43.4637168249
 20
73.7217815396
 30
0.0
 40
0.75
  1
D3
 41
1.1350274794
  7
Arial
 11
43.4637168249
 21
74.4717815396
 31
0.0
100
AcDbText
 73
         3
  0
TEXT
  5
1B6
100
AcDbEntity
  8
2600_1P
390
0
100
AcDbText
 10
44.6857830406
 20
71.4257783464
 30
0.0
 40
0.75
  1
D3,5
 41
1.1350638771
  7
Arial
 11
44.6857830406
 21
72.1757783464
 31
0.0
100
AcDbText
 73
         3
  0
TEXT
  5
1B7
100
AcDbEntity
  8
2600_1P
390
0
100
AcDbText
 10
42.093521371
 20
72.0182952995
 30
0.0
 40
0.75
  1
D3,5
 41
1.1350638771
  7
Arial
 11
42.093521371
 21
72.7682952995
 31
0.0
100
AcDbText
 73
         3
  0
TEXT
  5
1B8
100
AcDbEntity
  8
2600_1P
390
0
100
AcDbText
 10
42.1675859901
 20
68.8890651412
 30
0.0
 40
0.75
  1
D3,5
 41
1.1350638771
  7
Arial
 11
42.1675859901
 21
69.6390651412
 31
0.0
100
AcDbText
 73
         3
  0
TEXT
  5
1B9
100
AcDbEntity
  8
2600_1P
390
0
100
AcDbText
 10
44.6117184215
 20
68.0188058664
 30
0.0
 40
0.75
  1
D3,5
 41
1.1350638771
  7
Arial
 11
44.6117184215
 21
68.7688058664
 31
0.0
100
AcDbText
 73
         3
  0
TEXT
  5
1BA
100
AcDbEntity
  8
2600_1P
390
0
100
AcDbText
 10
44.6487507311
 20
69.7222921064
 30
0.0
 40
0.75
  1
D1,5
 41
1.1350638386
  7
Arial
 11
44.6487507311
 21
70.4722921064
 31
0.0
100
AcDbText
 73
         3
  0
INSERT
  5
1BB
100
AcDbEntity
  8
BEMASSUNG
390
0
100
AcDbBlockReference
  2
D207888128
 10
0.0
 20
0.0
 30
0.0
  0
LINE
  5
1BC
100
AcDbEntity
  8
2600_1P
390
0
  6
DIVIDE
100
AcDbLine
 10
34.6159131235
 20
76.5833855135
 30
0.0
 11
34.6159131235
 21
77.5833855135
 31
0.0
  0
LINE
  5
1BD
100
AcDbEntity
  8
2601_1U
390
0
100
AcDbLine
 10
49.9030368694
 20
28.1336120521
 30
0.0
 11
60.0
 21
28.1336120521
 31
0.0
  0
LINE
  5
1BE
100
AcDbEntity
  8
2601_1U
390
0
100
AcDbLine
 10
49.9030368694
 20
28.1336120521
 30
0.0
 11
49.9030368694
 21
26.3336120521
 31
0.0
  0
INSERT
  5
1BF
100
AcDbEntity
  8
BEMASSUNG
390
0
100
AcDbBlockReference
  2
D208441856
 10
0.0
 20
0.0
 30
0.0
  0
INSERT
  5
1C0
100
AcDbEntity
  8
BEMASSUNG
390
0
100
AcDbBlockReference
  2
D208441600
 10
0.0
 20
0.0
 30
0.0
  0
LINE
  5
1C1
100
AcDbEntity
  8
2601_1U
390
0
  6
DASHED
100
AcDbLine
 10
55.5
 20
19.7714139831
 30
0.0
 11
60.0
 21
19.1378528347
 31
0.0
  0
LINE
  5
1C2
100
AcDbEntity
  8
2601_1O
390
0
  6
DASHED
100
AcDbLine
 10
35.0
 20
27.645798294
 30
0.0
 11
25.0
 21
19.1378528347
 31
0.0
  0
ARC
  5
1C3
100
AcDbEntity
  8
2601___ SBW-GLEISSPERRSCHUH
390
0
  6
DASHDOT
100
AcDbCircle
 10
26.1253980776
 20
23.6357324434
 30
0.0
 40
4.6365333825
100
AcDbArc
 50
104.0473708972
 51
255.9526291028
  0
ARC
  5
1C4
100
AcDbEntity
  8
2601___ SBW-GLEISSPERRSCHUH
390
0
  6
DASHDOT
100
AcDbCircle
 10
58.7617564113
 20
23.6357324434
 30
0.0
 40
4.6652082653
100
AcDbArc
 50
285.391961845
 51
434.608038155
  0
TEXT
  5
1C5
100
AcDbEntity
  8
2601_1O
390
0
100
AcDbText
 10
34.3560129533
 20
24.9611024086
 30
0.0
 40
0.75
  1
B-0,2
 41
1.1350640914
  7
Arial
 11
34.3560129533
 21
25.7111024086
 31
0.0
100
AcDbText
 73
         3
  0
INSERT
  5
1C6
100
AcDbEntity
  8
BEMASSUNG
390
0
100
AcDbBlockReference
  2
D495962112
 10
0.0
 20
0.0
 30
0.0
  0
LINE
  5
1C7
100
AcDbEntity
  8
STANDARD
390
0
100
AcDbLine
 10
146.0
 20
100.0
 30
0.0
 11
2.5
 21
100.0
 31
0.0
  0
LINE
  5
1C8
100
AcDbEntity
  8
STANDARD
390
0
100
AcDbLine
 10
5.0
 20
97.5
 30
0.0
 11
5.0
 21
2.5
 31
0.0
  0
LINE
  5
1C9
100
AcDbEntity
  8
STANDARD
390
0
100
AcDbLine
 10
2.5
 20
100.0
 30
0.0
 11
2.5
 21
97.5
 31
0.0
  0
LINE
  5
1CA
100
AcDbEntity
  8
STANDARD
390
0
100
AcDbLine
 10
146.0
 20
100.0
 30
0.0
 11
146.0
 21
97.5
 31
0.0
  0
LINE
  5
1CB
100
AcDbEntity
  8
STANDARD
390
0
100
AcDbLine
 10
26.4166666667
 20
100.0
 30
0.0
 11
26.4166666667
 21
97.5
 31
0.0
  0
LINE
  5
1CC
100
AcDbEntity
  8
STANDARD
390
0
100
AcDbLine
 10
50.3333333333
 20
100.0
 30
0.0
 11
50.3333333333
 21
97.5
 31
0.0
  0
LINE
  5
1CD
100
AcDbEntity
  8
STANDARD
390
0
100
AcDbLine
 10
74.25
 20
100.0
 30
0.0
 11
74.25
 21
97.5
 31
0.0
  0
LINE
  5
1CE
100
AcDbEntity
  8
STANDARD
390
0
100
AcDbLine
 10
98.1666666667
 20
100.0
 30
0.0
 11
98.1666666667
 21
97.5
 31
0.0
  0
LINE
  5
1CF
100
AcDbEntity
  8
STANDARD
390
0
100
AcDbLine
 10
122.0833333333
 20
100.0
 30
0.0
 11
122.0833333333
 21
97.5
 31
0.0
  0
LINE
  5
1D0
100
AcDbEntity
  8
STANDARD
390
0
100
AcDbLine
 10
2.5
 20
26.25
 30
0.0
 11
5.0
 21
26.25
 31
0.0
  0
LINE
  5
1D1
100
AcDbEntity
  8
STANDARD
390
0
100
AcDbLine
 10
2.5
 20
50.0
 30
0.0
 11
5.0
 21
50.0
 31
0.0
  0
LINE
  5
1D2
100
AcDbEntity
  8
STANDARD
390
0
100
AcDbLine
 10
2.5
 20
73.75
 30
0.0
 11
5.0
 21
73.75
 31
0.0
  0
TEXT
  5
1D3
100
AcDbEntity
  8
STANDARD
390
0
100
AcDbText
 10
13.8107454058
 20
98.2366019531
 30
0.0
 40
1.115625
  1
1
 41
1.5479225906
  7
Arial
 72
         1
 11
14.4583333333
 21
98.2366019531
 31
0.0
100
AcDbText
  0
TEXT
  5
1D4
100
AcDbEntity
  8
STANDARD
390
0
100
AcDbText
 10
37.5115499856
 20
98.2366019531
 30
0.0
 40
1.115625
  1
2
 41
1.5479215945
  7
Arial
 72
         1
 11
38.375
 21
98.2366019531
 31
0.0
100
AcDbText
  0
TEXT
  5
1D5
100
AcDbEntity
  8
STANDARD
390
0
100
AcDbText
 10
61.4282159854
 20
98.2366019531
 30
0.0
 40
1.115625
  1
3
 41
1.5479227899
  7
Arial
 72
         1
 11
62.2916666667
 21
98.2366019531
 31
0.0
100
AcDbText
  0
TEXT
  5
1D6
100
AcDbEntity
  8
STANDARD
390
0
100
AcDbText
 10
85.3448827632
 20
98.2366019531
 30
0.0
 40
1.115625
  1
4
 41
1.5479225906
  7
Arial
 72
         1
 11
86.2083333333
 21
98.2366019531
 31
0.0
100
AcDbText
  0
TEXT
  5
1D7
100
AcDbEntity
  8
STANDARD
390
0
100
AcDbText
 10
109.2615498744
 20
98.2366019531
 30
0.0
 40
1.115625
  1
5
 41
1.5479217937
  7
Arial
 72
         1
 11
110.125
 21
98.2366019531
 31
0.0
100
AcDbText
  0
TEXT
  5
1D8
100
AcDbEntity
  8
STANDARD
390
0
100
AcDbText
 10
133.1782160966
 20
98.2366019531
 30
0.0
 40
1.115625
  1
6
 41
1.5479225906
  7
Arial
 72
         1
 11
134.0416666667
 21
98.2366019531
 31
0.0
100
AcDbText
  0
TEXT
  5
1D9
100
AcDbEntity
  8
STANDARD
390
0
100
AcDbText
 10
2.8865135925
 20
86.3616019531
 30
0.0
 40
1.115625
  1
A
 41
1.547986837
  7
Arial
 72
         1
 11
3.75
 21
86.3616019531
 31
0.0
100
AcDbText
  0
TEXT
  5
1DA
100
AcDbEntity
  8
STANDARD
390
0
100
AcDbText
 10
2.8865133701
 20
62.6116019531
 30
0.0
 40
1.115625
  1
B
 41
1.5479872357
  7
Arial
 72
         1
 11
3.75
 21
62.6116019531
 31
0.0
100
AcDbText
  0
TEXT
  5
1DB
100
AcDbEntity
  8
STANDARD
390
0
100
AcDbText
 10
2.8864486376
 20
38.8616019531
 30
0.0
 40
1.115625
  1
C
 41
1.5481032827
  7
Arial
 72
         1
 11
3.75
 21
38.8616019531
 31
0.0
100
AcDbText
  0
TEXT
  5
1DC
100
AcDbEntity
  8
STANDARD
390
0
100
AcDbText
 10
2.8864482096
 20
15.1116019531
 30
0.0
 40
1.115625
  1
D
 41
1.54810405
  7
Arial
 72
         1
 11
3.75
 21
15.1116019531
 31
0.0
100
AcDbText
  0
LINE
  5
1DD
100
AcDbEntity
  8
STANDARD
390
0
100
AcDbLine
 10
2.5
 20
2.5
 30
0.0
 11
5.0
 21
2.5
 31
0.0
  0
LINE
  5
1DE
100
AcDbEntity
  8
STANDARD
390
0
100
AcDbLine
 10
146.0
 20
2.5
 30
0.0
 11
146.0
 21
97.5
 31
0.0
  0
LINE
  5
1DF
100
AcDbEntity
  8
STANDARD
390
0
100
AcDbLine
 10
146.0
 20
97.5
 30
0.0
 11
5.0
 21
97.5
 31
0.0
  0
LINE
  5
1E0
100
AcDbEntity
  8
STANDARD
390
0
100
AcDbLine
 10
2.5
 20
97.5
 30
0.0
 11
2.5
 21
2.5
 31
0.0
  0
LINE
  5
1E1
100
AcDbEntity
  8
STANDARD
390
0
100
AcDbLine
 10
148.0
 20
104.5
 30
0.0
 11
0.5
 21
104.5
 31
0.0
  0
LINE
  5
1E2
100
AcDbEntity
  8
STANDARD
390
0
100
AcDbLine
 10
148.0
 20
0.5
 30
0.0
 11
148.0
 21
104.5
 31
0.0
  0
LINE
  5
1E3
100
AcDbEntity
  8
STANDARD
390
0
100
AcDbLine
 10
0.5
 20
0.5
 30
0.0
 11
148.0
 21
0.5
 31
0.0
  0
LINE
  5
1E4
100
AcDbEntity
  8
STANDARD
390
0
100
AcDbLine
 10
0.5
 20
104.5
 30
0.0
 11
0.5
 21
0.5
 31
0.0
  0
LINE
  5
1E5
100
AcDbEntity
  8
STANDARD
390
0
100
AcDbLine
 10
5.0
 20
97.5
 30
0.0
 11
2.5
 21
97.5
 31
0.0
  0
LINE
  5
1E6
100
AcDbEntity
  8
STANDARD
390
0
100
AcDbLine
 10
5.0
 20
2.5
 30
0.0
 11
146.0
 21
2.5
 31
0.0
  0
MTEXT
  5
1E7
100
AcDbEntity
  8
STANDARD
390
0
100
AcDbMText
 10
107.788861367
 20
3.2602845785
 30
0.0
 40
0.796875
 41
0.0
 71
         7
 72
         1
  1

  7
Arial
 73
         1
 44
1.0352941176
  0
MTEXT
  5
1E8
100
AcDbEntity
  8
STANDARD
390
0
100
AcDbMText
 10
134.7064428467
 20
3.2582871094
 30
0.0
 40
0.796875
 41
0.0
 71
         7
 72
         1
  1

  7
Arial
 73
         1
 44
1.0352941176
  0
MTEXT
  5
1E9
100
AcDbEntity
  8
STANDARD
390
0
100
AcDbMText
 10
85.6219525751
 20
3.2602845785
 30
0.0
 40
0.796875
 41
0.0
 71
         7
 72
         1
  1

  7
Arial
 73
         1
 44
1.0352941176
  0
LINE
  5
1EA
100
AcDbEntity
  8
_TEMP
370
         0
390
0
100
AcDbLine
 10
84.0097150997
 20
17.2
 30
0.0
 11
145.9567236467
 21
17.2
 31
0.0
  0
LINE
  5
1EB
100
AcDbEntity
  8
_TEMP
370
         0
390
0
100
AcDbLine
 10
84.0097150997
 20
13.7
 30
0.0
 11
145.9567236467
 21
13.7
 31
0.0
  0
LINE
  5
1EC
100
AcDbEntity
  8
_TEMP
370
         0
390
0
100
AcDbLine
 10
84.0097150997
 20
6.0
 30
0.0
 11
145.9567236467
 21
6.0
 31
0.0
  0
LINE
  5
1ED
100
AcDbEntity
  8
_TEMP
370
         0
390
0
100
AcDbLine
 10
84.0097150997
 20
17.2
 30
0.0
 11
84.0097150997
 21
2.5
 31
0.0
  0
LINE
  5
1EE
100
AcDbEntity
  8
_TEMP
370
         0
390
0
100
AcDbLine
 10
107.1097150997
 20
17.2
 30
0.0
 11
107.1097150997
 21
2.5
 31
0.0
  0
LINE
  5
1EF
100
AcDbEntity
  8
_TEMP
370
         0
390
0
100
AcDbLine
 10
126.0097150997
 20
17.2
 30
0.0
 11
126.0097150997
 21
13.7
 31
0.0
  0
TEXT
  5
1F0
100
AcDbEntity
  8
BESCHRIFTUNG
390
0
100
AcDbText
 10
84.5572666667
 20
14.5568
 30
0.0
 40
1.6625
  1
Stellwerk HMM
 41
1.3653781858
  7
Arial
 11
84.5572666667
 21
16.2193
 31
0.0
100
AcDbText
 73
         3
  0
MTEXT
  5
1F1
100
AcDbEntity
  8
BESCHRIFTUNG
390
0
100
AcDbMText
 10
107.7672444444
 20
12.4800555556
 30
0.0
 40
1.6625
 41
0.0
 71
         1
 72
         1
  1
\W1.024174;Weichenbock ca. H0\PSüdbahn-Gleissperrschuh ca. H0
  7
Arial
 73
         1
 44
0.66
  0
TEXT
  5
1F2
100
AcDbEntity
  8
BESCHRIFTUNG
390
0
100
AcDbText
 10
84.5572666667
 20
3.4490444444
 30
0.0
 40
1.6625
  1
Dateiname
 41
1.1350744463
 51
15.0
  7
Arial
 11
84.5572666667
 21
5.1115444444
 31
0.0
100
AcDbText
 73
         3
  0
TEXT
  5
1F3
100
AcDbEntity
  8
BESCHRIFTUNG
390
0
100
AcDbText
 10
84.6672444444
 20
10.8175555556
 30
0.0
 40
1.6625
  1
Bl. 2600, 2601 Ph
 41
1.134910279
 51
15.0
  7
Arial
 11
84.6672444444
 21
12.4800555556
 31
0.0
100
AcDbText
 73
         3
  0
TEXT
  5
1F4
100
AcDbEntity
  8
BESCHRIFTUNG
390
0
100
AcDbText
 10
126.5572666667
 20
14.5568
 30
0.0
 40
1.6625
  1
Maßstab 2:1
 41
1.1349344878
 51
15.0
  7
Arial
 11
126.5572666667
 21
16.2193
 31
0.0
100
AcDbText
 73
         3
  0
TEXT
  5
1F5
100
AcDbEntity
  8
BESCHRIFTUNG
390
0
100
AcDbText
 10
107.6572666667
 20
14.8115444444
 30
0.0
 40
1.5
  1
2025-03-11
 41
1.1351374803
 51
15.0
  7
Arial
 11
107.6572666667
 21
16.3115444444
 31
0.0
100
AcDbText
 73
         3
  0
TEXT
  5
1F6
100
AcDbEntity
  8
BESCHRIFTUNG
390
0
100
AcDbText
 10
107.6572666667
 20
3.4490444444
 30
0.0
 40
1.6625
  1
2600-2601 Ph
 41
1.1351142408
 51
15.0
  7
Arial
 11
107.6572666667
 21
5.1115444444
 31
0.0
100
AcDbText
 73
         3
  0
ENDSEC
  0
SECTION
  2
OBJECTS
  0
DICTIONARY
  5
19
100
AcDbDictionary
280
         0
281
         1
  3
ACAD_GROUP
350
1A
  3
ACAD_MLINESTYLE
350
1B
  3
ACAD_LAYOUT
350
1E
  3
ACAD_PLOTSETTINGS
350
22
  3
ACAD_PLOTSTYLENAME
350
1F
  3
ACAD_WIPEOUT_VARS
350
23
  0
DICTIONARY
  5
1A
102
{ACAD_REACTORS
330
19
102
}
100
AcDbDictionary
280
         0
281
         1
  0
DICTIONARY
  5
1B
102
{ACAD_REACTORS
330
19
102
}
100
AcDbDictionary
280
         0
281
         1
  3
Standard
350
1C
  0
MLINESTYLE
  5
1C
102
{ACAD_REACTORS
330
1B
102
}
100
AcDbMlineStyle
  2
Standard
 70
         0
  3

 62
         0
 51
90.0
 52
90.0
 71
         2
 49
0.5
 62
       256
  6
ByLayer
 49
-0.5
 62
       256
  6
ByLayer
  0
ACDBDICTIONARYWDFLT
  5
1F
102
{ACAD_REACTORS
330
19
102
}
100
AcDbDictionary
281
         1
  3
Normal
350
1D
100
AcDbDictionaryWithDefault
340
1D
  0
ACDBPLACEHOLDER
  5
1D
102
{ACAD_REACTORS
330
1F
102
}
  0
LAYOUT
  5
20
102
{ACAD_REACTORS
330
1E
102
}
100
AcDbPlotSettings
  1

  2

  4

  6

 40
0.0
 41
0.0
 42
0.0
 43
0.0
 44
0.0
 45
0.0
 46
0.0
 47
0.0
 48
0.0
 49
0.0
140
0.0
141
0.0
142
1.0
143
1.0
 70
      1024
 72
         0
 73
         0
 74
         0
  7

 75
         0
147
1.0
148
0.0
149
0.0
100
AcDbLayout
  1
Model
 70
         0
 71
         0
 10
0.0
 20
0.0
 11
0.0
 21
0.0
 12
0.0
 22
0.0
 32
0.0
 14
0.0
 24
0.0
 34
0.0
 15
0.0
 25
0.0
 35
0.0
146
0.0
 13
0.0
 23
0.0
 33
0.0
 16
0.0
 26
0.0
 36
0.0
 17
0.0
 27
0.0
 37
0.0
 76
         0
330
A
331
0
345
0
346
0
  0
LAYOUT
  5
21
102
{ACAD_REACTORS
330
1E
102
}
100
AcDbPlotSettings
  1

  2

  4

  6

 40
0.0
 41
0.0
 42
0.0
 43
0.0
 44
0.0
 45
0.0
 46
0.0
 47
0.0
 48
0.0
 49
0.0
140
0.0
141
0.0
142
1.0
143
1.0
 70
         0
 72
         0
 73
         0
 74
         0
  7

 75
         0
147
1.0
148
0.0
149
0.0
100
AcDbLayout
  1
Layout1
 70
         0
 71
         0
 10
0.0
 20
0.0
 11
0.0
 21
0.0
 12
0.0
 22
0.0
 32
0.0
 14
0.0
 24
0.0
 34
0.0
 15
0.0
 25
0.0
 35
0.0
146
0.0
 13
0.0
 23
0.0
 33
0.0
 16
0.0
 26
0.0
 36
0.0
 17
0.0
 27
0.0
 37
0.0
 76
         0
330
B
331
0
345
0
346
0
  0
DICTIONARY
  5
1E
102
{ACAD_REACTORS
330
19
102
}
100
AcDbDictionary
280
         0
281
         1
  3
Layout1
350
21
  3
Model
350
20
  0
DICTIONARY
  5
22
102
{ACAD_REACTORS
330
19
102
}
100
AcDbDictionary
280
         0
281
         1
  0
WIPEOUTVARIABLES
  5
23
100
AcDbWipeoutVariables
 70
         1
  0
ENDSEC
  0
EOF
