  0
SECTION
  2
HEADER
  9
$ACADVER
  1
AC1015
  9
$ACADMAINTVER
 70
         6
  9
$DWGCODEPAGE
  3
ANSI_1252
  9
$INSBASE
 10
0.0
 20
0.0
 30
0.0
  9
$EXTMIN
 10
-96.8931884766
 20
-30.2856750488
 30
0.0
  9
$EXTMAX
 10
297.0
 20
210.0
 30
0.0
  9
$LIMMIN
 10
-96.8931884766
 20
-30.2856750488
  9
$LIMMAX
 10
297.0
 20
210.0
  9
$ORTHOMODE
 70
         0
  9
$REGENMODE
 70
         1
  9
$FILLMODE
 70
         1
  9
$QTEXTMODE
 70
         0
  9
$MIRRTEXT
 70
         1
  9
$LTSCALE
 40
9.8473297119
  9
$ATTMODE
 70
         1
  9
$TEXTSIZE
 40
0.2
  9
$TRACEWID
 40
0.05
  9
$TEXTSTYLE
  7
Standard
  9
$CLAYER
  8
0
  9
$CELTYPE
  6
CONTINUOUS
  9
$CECOLOR
 62
       256
  9
$CELTSCALE
 40
1.0
  9
$DISPSILH
 70
         0
  9
$DIMSCALE
 40
1.0
  9
$DIMASZ
 40
0.18
  9
$DIMEXO
 40
0.0625
  9
$DIMDLI
 40
0.38
  9
$DIMRND
 40
0.0
  9
$DIMDLE
 40
0.0
  9
$DIMEXE
 40
0.18
  9
$DIMTP
 40
0.0
  9
$DIMTM
 40
0.0
  9
$DIMTXT
 40
3.0
  9
$DIMCEN
 40
0.09
  9
$DIMTSZ
 40
0.0
  9
$DIMTOL
 70
         0
  9
$DIMLIM
 70
         0
  9
$DIMTIH
 70
         1
  9
$DIMTOH
 70
         1
  9
$DIMSE1
 70
         0
  9
$DIMSE2
 70
         0
  9
$DIMTAD
 70
         1
  9
$DIMZIN
 70
         0
  9
$DIMBLK
  1

  9
$DIMASO
 70
         1
  9
$DIMSHO
 70
         1
  9
$DIMPOST
  1
<>
  9
$DIMAPOST
  1

  9
$DIMALT
 70
         0
  9
$DIMALTD
 70
         2
  9
$DIMALTF
 40
25.4
  9
$DIMLFAC
 40
1.0
  9
$DIMTOFL
 70
         0
  9
$DIMTVP
 40
0.0
  9
$DIMTIX
 70
         0
  9
$DIMSOXD
 70
         0
  9
$DIMSAH
 70
         0
  9
$DIMBLK1
  1

  9
$DIMBLK2
  1

  9
$DIMSTYLE
  2
Standard
  9
$DIMCLRD
 70
         0
  9
$DIMCLRE
 70
         0
  9
$DIMCLRT
 70
         0
  9
$DIMTFAC
 40
1.0
  9
$DIMGAP
 40
0.09
  9
$DIMJUST
 70
         0
  9
$DIMSD1
 70
         0
  9
$DIMSD2
 70
         0
  9
$DIMTOLJ
 70
         1
  9
$DIMTZIN
 70
         0
  9
$DIMALTZ
 70
         0
  9
$DIMALTTZ
 70
         0
  9
$DIMUPT
 70
         0
  9
$DIMDEC
 70
         4
  9
$DIMTDEC
 70
         4
  9
$DIMALTU
 70
         2
  9
$DIMALTTD
 70
         2
  9
$DIMTXSTY
  7
Standard
  9
$DIMAUNIT
 70
         0
  9
$DIMADEC
 70
         0
  9
$DIMALTRND
 40
0.0
  9
$DIMAZIN
 70
         0
  9
$DIMDSEP
 70
         0
  9
$DIMATFIT
 70
         3
  9
$DIMFRAC
 70
         0
  9
$DIMLDRBLK
  1

  9
$DIMLUNIT
 70
         2
  9
$DIMLWD
 70
         0
  9
$DIMLWE
 70
         0
  9
$DIMTMOVE
 70
         0
  9
$LUNITS
 70
         2
  9
$LUPREC
 70
         4
  9
$SKETCHINC
 40
0.1
  9
$FILLETRAD
 40
0.0
  9
$AUNITS
 70
         0
  9
$AUPREC
 70
         0
  9
$MENU
  1
acad
  9
$ELEVATION
 40
0.0
  9
$PELEVATION
 40
0.0
  9
$THICKNESS
 40
0.0
  9
$LIMCHECK
 70
         0
  9
$CHAMFERA
 40
0.0
  9
$CHAMFERB
 40
0.0
  9
$CHAMFERC
 40
0.0
  9
$CHAMFERD
 40
0.0
  9
$SKPOLY
 70
         0
  9
$TDCREATE
 40
0.000000000
  9
$TDUCREATE
 40
0.000000000
  9
$TDUPDATE
 40
0.000000000
  9
$TDUUPDATE
 40
0.000000000
  9
$TDINDWG
 40
0.0000000000
  9
$TDUSRTIMER
 40
0.0000000000
  9
$USRTIMER
 70
         1
  9
$ANGBASE
 50
0.0
  9
$ANGDIR
 70
         0
  9
$PDMODE
 70
         0
  9
$PDSIZE
 40
0.0
  9
$PLINEWID
 40
0.0
  9
$SPLFRAME
 70
         0
  9
$SPLINETYPE
 70
         6
  9
$SPLINESEGS
 70
         8
  9
$HANDSEED
  5
385
  9
$SURFTAB1
 70
         6
  9
$SURFTAB2
 70
         6
  9
$SURFTYPE
 70
         6
  9
$SURFU
 70
         6
  9
$SURFV
 70
         6
  9
$UCSBASE
  2

  9
$UCSNAME
  2

  9
$UCSORG
 10
0.0
 20
0.0
 30
0.0
  9
$UCSXDIR
 10
1.0
 20
0.0
 30
0.0
  9
$UCSYDIR
 10
0.0
 20
1.0
 30
0.0
  9
$UCSORTHOREF
  2

  9
$UCSORTHOVIEW
 70
         0
  9
$UCSORGTOP
 10
0.0
 20
0.0
 30
0.0
  9
$UCSORGBOTTOM
 10
0.0
 20
0.0
 30
0.0
  9
$UCSORGLEFT
 10
0.0
 20
0.0
 30
0.0
  9
$UCSORGRIGHT
 10
0.0
 20
0.0
 30
0.0
  9
$UCSORGFRONT
 10
0.0
 20
0.0
 30
0.0
  9
$UCSORGBACK
 10
0.0
 20
0.0
 30
0.0
  9
$PUCSBASE
  2

  9
$PUCSNAME
  2

  9
$PUCSORG
 10
0.0
 20
0.0
 30
0.0
  9
$PUCSXDIR
 10
1.0
 20
0.0
 30
0.0
  9
$PUCSYDIR
 10
0.0
 20
1.0
 30
0.0
  9
$PUCSORTHOREF
  2

  9
$PUCSORTHOVIEW
 70
         0
  9
$PUCSORGTOP
 10
0.0
 20
0.0
 30
0.0
  9
$PUCSORGBOTTOM
 10
0.0
 20
0.0
 30
0.0
  9
$PUCSORGLEFT
 10
0.0
 20
0.0
 30
0.0
  9
$PUCSORGRIGHT
 10
0.0
 20
0.0
 30
0.0
  9
$PUCSORGFRONT
 10
0.0
 20
0.0
 30
0.0
  9
$PUCSORGBACK
 10
0.0
 20
0.0
 30
0.0
  9
$USERI1
 70
         0
  9
$USERI2
 70
         0
  9
$USERI3
 70
         0
  9
$USERI4
 70
         0
  9
$USERI5
 70
         0
  9
$USERR1
 40
0.0
  9
$USERR2
 40
0.0
  9
$USERR3
 40
0.0
  9
$USERR4
 40
0.0
  9
$USERR5
 40
0.0
  9
$WORLDVIEW
 70
         1
  9
$SHADEDGE
 70
         3
  9
$SHADEDIF
 70
        70
  9
$TILEMODE
 70
         1
  9
$MAXACTVP
 70
        16
  9
$PINSBASE
 10
0.0
 20
0.0
 30
0.0
  9
$PLIMCHECK
 70
         0
  9
$PEXTMIN
 10
1.0000000000E+20
 20
1.0000000000E+20
 30
1.0000000000E+20
  9
$PEXTMAX
 10
-1.0000000000E+20
 20
-1.0000000000E+20
 30
-1.0000000000E+20
  9
$PLIMMIN
 10
0.0
 20
0.0
  9
$PLIMMAX
 10
12.0
 20
9.0
  9
$UNITMODE
 70
         0
  9
$VISRETAIN
 70
         0
  9
$PLINEGEN
 70
         1
  9
$PSLTSCALE
 70
         0
  9
$TREEDEPTH
 70
      3020
  9
$CMLSTYLE
  2
Standard
  9
$CMLJUST
 70
         0
  9
$CMLSCALE
 40
1.0
  9
$PROXYGRAPHICS
 70
         0
  9
$MEASUREMENT
 70
         1
  9
$CELWEIGHT
370
         0
  9
$ENDCAPS
280
         0
  9
$JOINSTYLE
280
         0
  9
$LWDISPLAY
290
         0
  9
$INSUNITS
 70
         0
  9
$HYPERLINKBASE
  1

  9
$STYLESHEET
  1

  9
$XEDIT
290
         1
  9
$CEPSNTYPE
380
         0
  9
$PSTYLEMODE
290
         1
  9
$FINGERPRINTGUID
  2

  9
$VERSIONGUID
  2

  9
$EXTNAMES
290
         1
  9
$PSVPSCALE
 40
0.0
  0
ENDSEC
  0
SECTION
  2
CLASSES
  0
CLASS
  1
LWPOLYLINE
  2
AcDbPolyline
  3
AutoCAD 2000
 90
        0
280
         0
281
         1
  0
CLASS
  1
IMAGE
  2
AcDbRasterImage
  3
ISM
 90
      127
280
         0
281
         1
  0
CLASS
  1
OLE2FRAME
  2
AcDbOle2Frame
  3
AutoCAD 2000
 90
        0
280
         0
281
         1
  0
CLASS
  1
HATCH
  2
AcDbHatch
  3
AutoCAD 2000
 90
        0
280
         0
281
         1
  0
CLASS
  1
DICTIONARYVAR
  2
AcDbDictionaryVar
  3
AutoCAD 2000
 90
        0
280
         0
281
         0
  0
CLASS
  1
RASTERVARIABLES
  2
AcDbRasterVariables
  3
ISM
 90
        0
280
         0
281
         0
  0
CLASS
  1
IMAGEDEF
  2
AcDbRasterImageDef
  3
ISM
 90
        0
280
         0
281
         0
  0
CLASS
  1
IMAGEDEF_REACTOR
  2
AcDbRasterImageDefReactor
  3
ISM
 90
        1
280
         0
281
         0
  0
CLASS
  1
IDBUFFER
  2
AcDbIdBuffer
  3
AutoCAD 2000
 90
        0
280
         0
281
         0
  0
CLASS
  1
SPATIAL_FILTER
  2
AcDbSpatialFilter
  3
AutoCAD 2000
 90
        0
280
         0
281
         0
  0
CLASS
  1
XRECORD
  2
AcDbXrecord
  3
AutoCAD 2000
 90
        0
280
         0
281
         0
  0
CLASS
  1
SORTENTSTABLE
  2
AcDbSortentsTable
  3
AutoCAD 2000
 90
        0
280
         0
281
         0
  0
CLASS
  1
LAYER_INDEX
  2
AcDbLayerIndex
  3
AutoCAD 2000
 90
        0
280
         0
281
         0
  0
CLASS
  1
SPATIAL_INDEX
  2
AcDbSpatialIndex
  3
AutoCAD 2000
 90
        0
280
         0
281
         0
  0
CLASS
  1
OBJECT_PTR
  2
CAseDLPNTableRecord
  3
"ASE-LPNTableRecord"
 90
        1
280
         0
281
         0
  0
CLASS
  1
LAYOUT
  2
AcDbLayout
  3
AutoCAD 2000
 90
        0
280
         0
281
         0
  0
CLASS
  1
PLOTSETTINGS
  2
AcDbPlotSettings
  3
AutoCAD 2000
 90
        0
280
         0
281
         0
  0
CLASS
  1
ACDBDICTIONARYWDFLT
  2
AcDbDictionaryWithDefault
  3
AutoCAD 2000
 90
        0
280
         0
281
         0
  0
CLASS
  1
ACDBPLACEHOLDER
  2
AcDbPlaceHolder
  3
AutoCAD 2000
 90
        0
280
         0
281
         0
  0
CLASS
  1
VBA_PROJECT
  2
AcDbVbaProject
  3
acadvba
 90
        0
280
         0
281
         0
  0
CLASS
  1
WIPEOUT
  2
AcDbWipeout
  3
WipeOut|AutoCAD Express Tool|expresstools@autodesk.com
 90
      127
280
         0
281
         1
  0
CLASS
  1
WIPEOUTVARIABLES
  2
AcDbWipeoutVariables
  3
WipeOut|AutoCAD Express Tool|expresstools@autodesk.com
 90
        0
280
         0
281
         0
  0
CLASS
  1
RTEXT
  2
RText
  3
RText|AutoCAD Express Tool|expresstools@autodesk.com
 90
        0
280
         0
281
         1
  0
CLASS
  1
ARCALIGNEDTEXT
  2
AcDbArcAlignedText
  3
ATEXT|AutoCAD Express Tool|expresstools@autodesk.com
 90
        0
280
         0
281
         1
  0
ENDSEC
  0
SECTION
  2
TABLES
  0
TABLE
  2
VPORT
  5
7
100
AcDbSymbolTable
 70
         1
  0
VPORT
  5
15
100
AcDbSymbolTableRecord
100
AcDbViewportTableRecord
  2
*ACTIVE
 70
         0
 10
0.0
 20
0.0
 11
1.0
 21
1.0
 12
148.5
 22
105.0
 13
0.0
 23
0.0
 14
1.0
 24
1.0
 15
0.0
 25
0.0
 16
0.0
 26
0.0
 36
1.0
 17
0.0
 27
0.0
 37
0.0
 40
231.2943892345
 41
1.0
 42
50.0
 43
0.0
 44
0.0
 50
0.0
 51
0.0
 71
         0
 72
       100
 73
         1
 74
         1
 75
         0
 76
         0
 77
         0
 78
         0
281
         0
 65
         0
110
0.0
120
0.0
130
0.0
111
1.0
121
0.0
131
0.0
112
0.0
122
1.0
132
0.0
345
0
346
0
 79
         0
146
0.0
  0
ENDTAB
  0
TABLE
  2
LTYPE
  5
4
100
AcDbSymbolTable
 70
        12
  0
LTYPE
  5
11
100
AcDbSymbolTableRecord
100
AcDbLinetypeTableRecord
  2
ByBlock
 70
        64
  3

 72
        65
 73
         0
 40
0.0
  0
LTYPE
  5
12
100
AcDbSymbolTableRecord
100
AcDbLinetypeTableRecord
  2
ByLayer
 70
        64
  3

 72
        65
 73
         0
 40
0.0
  0
LTYPE
  5
13
100
AcDbSymbolTableRecord
100
AcDbLinetypeTableRecord
  2
CONTINUOUS
 70
        64
  3
Solid Line
 72
        65
 73
         0
 40
0.0
  0
LTYPE
  5
24
100
AcDbSymbolTableRecord
100
AcDbLinetypeTableRecord
  2
DOT
 70
        64
  3
. . . . . . . . . . . . . . . . . . . . . . 
 72
        65
 73
         2
 40
0.25
 49
0.0
 74
         0
 49
-0.25
 74
         0
  0
LTYPE
  5
25
100
AcDbSymbolTableRecord
100
AcDbLinetypeTableRecord
  2
HIDDEN
 70
         0
  3
_ _ _ _ _ _ _ _ _ _ _ _ _ _ _ _ _ _ _ _ _ _ _
 72
        65
 73
         2
 40
0.375
 49
0.25
 74
         0
 49
-0.125
 74
         0
  0
LTYPE
  5
26
100
AcDbSymbolTableRecord
100
AcDbLinetypeTableRecord
  2
DASHDOT
 70
         0
  3
__ . __ . __ . __ . __ . __ . __ . __ . __ . __
 72
        65
 73
         4
 40
1.0
 49
0.5
 74
         0
 49
-0.25
 74
         0
 49
0.0
 74
         0
 49
-0.25
 74
         0
  0
LTYPE
  5
27
100
AcDbSymbolTableRecord
100
AcDbLinetypeTableRecord
  2
DIVIDE
 70
         0
  3
__ . . __ . . __ . . __ . . __ . . __ . . __
 72
        65
 73
         6
 40
1.25
 49
0.5
 74
         0
 49
-0.25
 74
         0
 49
0.0
 74
         0
 49
-0.25
 74
         0
 49
0.0
 74
         0
 49
-0.25
 74
         0
  0
LTYPE
  5
28
100
AcDbSymbolTableRecord
100
AcDbLinetypeTableRecord
  2
DASHED
 70
         0
  3
__ __ __ __ __ __ __ __ __ __ __ __ __ __ __
 72
        65
 73
         2
 40
0.75
 49
0.5
 74
         0
 49
-0.25
 74
         0
  0
LTYPE
  5
29
100
AcDbSymbolTableRecord
100
AcDbLinetypeTableRecord
  2
BORDER
 70
         0
  3
__ __ . __ __ . __ __ . __ __ . __ __ .
 72
        65
 73
         6
 40
1.75
 49
0.5
 74
         0
 49
-0.25
 74
         0
 49
0.5
 74
         0
 49
-0.25
 74
         0
 49
0.0
 74
         0
 49
-0.25
 74
         0
  0
LTYPE
  5
2A
100
AcDbSymbolTableRecord
100
AcDbLinetypeTableRecord
  2
CENTER
 70
         0
  3
____ _ ____ _ ____ _ ____ _ ____ _ ____
 72
        65
 73
         4
 40
2.0
 49
1.25
 74
         0
 49
-0.25
 74
         0
 49
0.25
 74
         0
 49
-0.25
 74
         0
  0
LTYPE
  5
2B
100
AcDbSymbolTableRecord
100
AcDbLinetypeTableRecord
  2
DOT2
 70
         0
  3
........................................
 72
        65
 73
         2
 40
0.125
 49
0.0
 74
         0
 49
-0.125
 74
         0
  0
LTYPE
  5
2C
100
AcDbSymbolTableRecord
100
AcDbLinetypeTableRecord
  2
PHANTOM
 70
         0
  3
______  __  __  ______  __  __  ______
 72
        65
 73
         6
 40
2.5
 49
1.25
 74
         0
 49
-0.25
 74
         0
 49
0.25
 74
         0
 49
-0.25
 74
         0
 49
0.25
 74
         0
 49
-0.25
 74
         0
  0
ENDTAB
  0
TABLE
  2
LAYER
  5
2
100
AcDbSymbolTable
 70
       120
  0
LAYER
  5
14
100
AcDbSymbolTableRecord
100
AcDbLayerTableRecord
  2
0
 70
         0
 62
         7
  6
CONTINUOUS
290
         1
370
        -3
390
1D
  0
LAYER
  5
33
100
AcDbSymbolTableRecord
100
AcDbLayerTableRecord
  2
BESCHRIFTUNG
 70
        64
 62
         7
  6
CONTINUOUS
290
         1
370
        25
390
1D
  0
LAYER
  5
34
100
AcDbSymbolTableRecord
100
AcDbLayerTableRecord
  2
SCHRAFFUR
 70
        64
 62
         7
  6
CONTINUOUS
290
         1
370
        25
390
1D
  0
LAYER
  5
35
100
AcDbSymbolTableRecord
100
AcDbLayerTableRecord
  2
MASSTEXTE
 70
        64
 62
       212
  6
CONTINUOUS
290
         1
370
        25
390
1D
  0
LAYER
  5
36
100
AcDbSymbolTableRecord
100
AcDbLayerTableRecord
  2
MASSLINIEN
 70
        64
 62
       172
  6
CONTINUOUS
290
         1
370
        25
390
1D
  0
LAYER
  5
37
100
AcDbSymbolTableRecord
100
AcDbLayerTableRecord
  2
MASSGRENZEN
 70
        64
 62
       172
  6
CONTINUOUS
290
         1
370
        25
390
1D
  0
LAYER
  5
38
100
AcDbSymbolTableRecord
100
AcDbLayerTableRecord
  2
TOLERANZEN
 70
        64
 62
       212
  6
CONTINUOUS
290
         1
370
         0
390
1D
  0
LAYER
  5
39
100
AcDbSymbolTableRecord
100
AcDbLayerTableRecord
  2
BEMAßUNG
 70
        64
 62
         7
  6
CONTINUOUS
290
         1
370
        25
390
1D
  0
LAYER
  5
3A
100
AcDbSymbolTableRecord
100
AcDbLayerTableRecord
  2
HILFSLINIEN
 70
        64
 62
         3
  6
CONTINUOUS
290
         1
370
         0
390
1D
  0
LAYER
  5
3B
100
AcDbSymbolTableRecord
100
AcDbLayerTableRecord
  2
MITTELLINIEN
 70
        64
 62
         5
  6
DASHDOT
290
         1
370
        25
390
1D
  0
LAYER
  5
3C
100
AcDbSymbolTableRecord
100
AcDbLayerTableRecord
  2
BESCHRIFTUNG00
 70
        64
 62
         7
  6
CONTINUOUS
290
         1
370
        25
390
1D
  0
LAYER
  5
3D
100
AcDbSymbolTableRecord
100
AcDbLayerTableRecord
  2
GEWINDELINIEN
 70
        64
 62
       212
  6
CONTINUOUS
290
         1
370
        25
390
1D
  0
LAYER
  5
3E
100
AcDbSymbolTableRecord
100
AcDbLayerTableRecord
  2
UNSICHTBARE
 70
        64
 62
        92
  6
DASHED
290
         1
370
        25
390
1D
  0
LAYER
  5
3F
100
AcDbSymbolTableRecord
100
AcDbLayerTableRecord
  2
VERDECKTE
 70
        64
 62
        92
  6
DASHED
290
         1
370
        25
390
1D
  0
LAYER
  5
40
100
AcDbSymbolTableRecord
100
AcDbLayerTableRecord
  2
LICHTKANTEN
 70
        64
 62
         8
  6
CONTINUOUS
290
         1
370
        25
390
1D
  0
LAYER
  5
41
100
AcDbSymbolTableRecord
100
AcDbLayerTableRecord
  2
SCHNITTVERLAUF
 70
        64
 62
        34
  6
DASHDOT
290
         1
370
        70
390
1D
  0
LAYER
  5
42
100
AcDbSymbolTableRecord
100
AcDbLayerTableRecord
  2
KENNZEICHNUNG
 70
        64
 62
         7
  6
CONTINUOUS
290
         1
370
         0
390
1D
  0
LAYER
  5
43
100
AcDbSymbolTableRecord
100
AcDbLayerTableRecord
  2
PFEILE
 70
        64
 62
         7
  6
CONTINUOUS
290
         1
370
        70
390
1D
  0
LAYER
  5
44
100
AcDbSymbolTableRecord
100
AcDbLayerTableRecord
  2
SCHNITTDARSTELLUNG
 70
        64
 62
         7
  6
CONTINUOUS
290
         1
370
         0
390
1D
  0
LAYER
  5
45
100
AcDbSymbolTableRecord
100
AcDbLayerTableRecord
  2
2650__ WEICHENBOCK
 70
        64
 62
         7
  6
CONTINUOUS
290
         1
370
         0
390
1D
  0
LAYER
  5
46
100
AcDbSymbolTableRecord
100
AcDbLayerTableRecord
  2
GLEIS
 70
        64
 62
        34
  6
CONTINUOUS
290
         1
370
         0
390
1D
  0
LAYER
  5
47
100
AcDbSymbolTableRecord
100
AcDbLayerTableRecord
  2
SPERRSCHUH ABGELEGT
 70
        64
 62
         7
  6
DASHED
290
         1
370
         0
390
1D
  0
LAYER
  5
48
100
AcDbSymbolTableRecord
100
AcDbLayerTableRecord
  2
SPERRSCHUH
 70
        64
 62
         7
  6
CONTINUOUS
290
         1
370
         0
390
1D
  0
LAYER
  5
49
100
AcDbSymbolTableRecord
100
AcDbLayerTableRecord
  2
SPERRSCHUHRAHMEN
 70
        64
 62
        94
  6
CONTINUOUS
290
         1
370
         0
390
1D
  0
LAYER
  5
4A
100
AcDbSymbolTableRecord
100
AcDbLayerTableRecord
  2
SPERRSCHUHANTRIEB
 70
        64
 62
         5
  6
CONTINUOUS
290
         1
370
         0
390
1D
  0
LAYER
  5
4B
100
AcDbSymbolTableRecord
100
AcDbLayerTableRecord
  2
2651__ SBW-GLEISSPERRSCHUH
 70
        64
 62
         7
  6
CONTINUOUS
290
         1
370
         0
390
1D
  0
LAYER
  5
4C
100
AcDbSymbolTableRecord
100
AcDbLayerTableRecord
  2
2654_1 RAHMEN
 70
        64
 62
         7
  6
CONTINUOUS
290
         1
370
        13
390
1D
  0
LAYER
  5
4D
100
AcDbSymbolTableRecord
100
AcDbLayerTableRecord
  2
2654_2 STELLEINRICHTUNG
 70
        64
 62
       230
  6
CONTINUOUS
290
         1
370
         0
390
1D
  0
LAYER
  5
4E
100
AcDbSymbolTableRecord
100
AcDbLayerTableRecord
  2
WEICHE
 70
        64
 62
        70
  6
CONTINUOUS
290
         1
370
         0
390
1D
  0
LAYER
  5
4F
100
AcDbSymbolTableRecord
100
AcDbLayerTableRecord
  2
2654__ WEICHENANTRIEB
 70
        64
 62
         7
  6
CONTINUOUS
290
         1
370
         0
390
1D
  0
LAYER
  5
50
100
AcDbSymbolTableRecord
100
AcDbLayerTableRecord
  2
2655_1 RAHMEN
 70
        64
 62
         7
  6
CONTINUOUS
290
         1
370
        13
390
1D
  0
LAYER
  5
51
100
AcDbSymbolTableRecord
100
AcDbLayerTableRecord
  2
2655_2 SCHIEBER UMGESTELLT
 70
        64
 62
       230
  6
DASHED
290
         1
370
        13
390
1D
  0
LAYER
  5
52
100
AcDbSymbolTableRecord
100
AcDbLayerTableRecord
  2
2655_2 SCHIEBER
 70
        64
 62
       230
  6
CONTINUOUS
290
         1
370
        13
390
1D
  0
LAYER
  5
53
100
AcDbSymbolTableRecord
100
AcDbLayerTableRecord
  2
2655_3 DREHHEBEL UMGESTELLT
 70
        64
 62
       150
  6
DASHED
290
         1
370
        13
390
1D
  0
LAYER
  5
54
100
AcDbSymbolTableRecord
100
AcDbLayerTableRecord
  2
2655_3 DREHHEBEL
 70
        64
 62
       150
  6
CONTINUOUS
290
         1
370
        13
390
1D
  0
LAYER
  5
55
100
AcDbSymbolTableRecord
100
AcDbLayerTableRecord
  2
2655_5 STELLHEBEL UMGESTELLT
 70
        64
 62
       172
  6
DASHED
290
         1
370
        18
390
1D
  0
LAYER
  5
56
100
AcDbSymbolTableRecord
100
AcDbLayerTableRecord
  2
2655_5 STELLHEBEL
 70
        64
 62
       172
  6
CONTINUOUS
290
         1
370
        13
390
1D
  0
LAYER
  5
57
100
AcDbSymbolTableRecord
100
AcDbLayerTableRecord
  2
2655_4 DRAHT
 70
        64
 62
       190
  6
CONTINUOUS
290
         1
370
        25
390
1D
  0
LAYER
  5
58
100
AcDbSymbolTableRecord
100
AcDbLayerTableRecord
  2
2655_6 STELLVERSTELLUNG UMGESTELLT
 70
        64
 62
       211
  6
DASHED
290
         1
370
        18
390
1D
  0
LAYER
  5
59
100
AcDbSymbolTableRecord
100
AcDbLayerTableRecord
  2
2655_6 STELLVERSTELLUNG
 70
        64
 62
       230
  6
CONTINUOUS
290
         1
370
        13
390
1D
  0
LAYER
  5
5A
100
AcDbSymbolTableRecord
100
AcDbLayerTableRecord
  2
2655_8 STELLANSCHLAG UMGESTELLT
 70
        64
 62
       131
  6
DASHED
290
         1
370
        18
390
1D
  0
LAYER
  5
5B
100
AcDbSymbolTableRecord
100
AcDbLayerTableRecord
  2
2655_8 STELLANSCHLAG
 70
        64
 62
         6
  6
CONTINUOUS
290
         1
370
        13
390
1D
  0
LAYER
  5
5C
100
AcDbSymbolTableRecord
100
AcDbLayerTableRecord
  2
2655_9 RIEGELSCHIEBER LINKS
 70
        64
 62
       171
  6
DASHED
290
         1
370
        18
390
1D
  0
LAYER
  5
5D
100
AcDbSymbolTableRecord
100
AcDbLayerTableRecord
  2
2655_9 RIEGELSCHIEBER RECHTS
 70
        64
 62
       171
  6
HIDDEN
290
         1
370
        18
390
1D
  0
LAYER
  5
5E
100
AcDbSymbolTableRecord
100
AcDbLayerTableRecord
  2
2655_9 RIEGELSCHIEBER
 70
        64
 62
       171
  6
CONTINUOUS
290
         1
370
        13
390
1D
  0
LAYER
  5
5F
100
AcDbSymbolTableRecord
100
AcDbLayerTableRecord
  2
2655_10 ZUNGENSCHIEBER UMGESTELLT
 70
        64
 62
       171
  6
DASHED
290
         1
370
        18
390
1D
  0
LAYER
  5
60
100
AcDbSymbolTableRecord
100
AcDbLayerTableRecord
  2
2655_10 ZUNGENSCHIEBER
 70
        64
 62
       171
  6
CONTINUOUS
290
         1
370
        13
390
1D
  0
LAYER
  5
61
100
AcDbSymbolTableRecord
100
AcDbLayerTableRecord
  2
2655_99 RAHMENLEHRE
 70
        64
 62
         7
  6
CONTINUOUS
290
         1
370
        13
390
1D
  0
LAYER
  5
62
100
AcDbSymbolTableRecord
100
AcDbLayerTableRecord
  2
2655_11 VERRIEGELUNG UMGESTELLT
 70
        64
 62
       190
  6
DASHED
290
         1
370
        13
390
1D
  0
LAYER
  5
63
100
AcDbSymbolTableRecord
100
AcDbLayerTableRecord
  2
2655_11 VERRIEGELUNG
 70
        64
 62
       190
  6
CONTINUOUS
290
         1
370
        13
390
1D
  0
LAYER
  5
64
100
AcDbSymbolTableRecord
100
AcDbLayerTableRecord
  2
2655_12 SIGNALPLATTE
 70
        64
 62
       172
  6
CONTINUOUS
290
         1
370
        13
390
1D
  0
LAYER
  5
65
100
AcDbSymbolTableRecord
100
AcDbLayerTableRecord
  2
2655__ WEICHENANTRIEB
 70
        64
 62
        14
  6
CONTINUOUS
290
         1
370
        13
390
1D
  0
LAYER
  5
66
100
AcDbSymbolTableRecord
100
AcDbLayerTableRecord
  2
2201_2___ HEBEL UMGESCHLAGEN
 70
        64
 62
        34
  6
DASHED
290
         1
370
        13
390
1D
  0
LAYER
  5
67
100
AcDbSymbolTableRecord
100
AcDbLayerTableRecord
  2
2201_2___ HEBEL
 70
        64
 62
        34
  6
CONTINUOUS
290
         1
370
        13
390
1D
  0
LAYER
  5
68
100
AcDbSymbolTableRecord
100
AcDbLayerTableRecord
  2
2201__
 70
        64
 62
         7
  6
CONTINUOUS
290
         1
370
         0
390
1D
  0
LAYER
  5
69
100
AcDbSymbolTableRecord
100
AcDbLayerTableRecord
  2
2653_1 RAHMEN
 70
        64
 62
         7
  6
CONTINUOUS
290
         1
370
        13
390
1D
  0
LAYER
  5
6A
100
AcDbSymbolTableRecord
100
AcDbLayerTableRecord
  2
2653_2 SCHIEBER UNTEN
 70
        64
 62
       230
  6
CONTINUOUS
290
         1
370
        13
390
1D
  0
LAYER
  5
6B
100
AcDbSymbolTableRecord
100
AcDbLayerTableRecord
  2
2653_3 SCHIEBER OBEN
 70
        64
 62
       230
  6
CONTINUOUS
290
         1
370
        13
390
1D
  0
LAYER
  5
6C
100
AcDbSymbolTableRecord
100
AcDbLayerTableRecord
  2
2653__ WEICHENSTELLUNG
 70
        64
 62
        14
  6
CONTINUOUS
290
         1
370
         0
390
1D
  0
LAYER
  5
6D
100
AcDbSymbolTableRecord
100
AcDbLayerTableRecord
  2
2052_4 ZUHALTUNG ANGEHOBEN
 70
        64
 62
        94
  6
DASHED
290
         1
370
        18
390
1D
  0
LAYER
  5
6E
100
AcDbSymbolTableRecord
100
AcDbLayerTableRecord
  2
2052_4 ZUHALTUNG
 70
        64
 62
        94
  6
CONTINUOUS
290
         1
370
        18
390
1D
  0
LAYER
  5
6F
100
AcDbSymbolTableRecord
100
AcDbLayerTableRecord
  2
2052_1_2_7_8 GEHÄUSE
 70
        64
 62
         7
  6
CONTINUOUS
290
         1
370
        18
390
1D
  0
LAYER
  5
70
100
AcDbSymbolTableRecord
100
AcDbLayerTableRecord
  2
2052_5_6 BESATZUNG
 70
        64
 62
         8
  6
CONTINUOUS
290
         1
370
        18
390
1D
  0
LAYER
  5
71
100
AcDbSymbolTableRecord
100
AcDbLayerTableRecord
  2
2052_3 RIEGEL UMGESPERRT
 70
        64
 62
       230
  6
DASHED
290
         1
370
        18
390
1D
  0
LAYER
  5
72
100
AcDbSymbolTableRecord
100
AcDbLayerTableRecord
  2
2052_3 RIEGEL
 70
        64
 62
       230
  6
CONTINUOUS
290
         1
370
        18
390
1D
  0
LAYER
  5
73
100
AcDbSymbolTableRecord
100
AcDbLayerTableRecord
  2
2052__ SCHLOSS MIT DORN
 70
        64
 62
         7
  6
CONTINUOUS
290
         1
370
         0
390
1D
  0
LAYER
  5
74
100
AcDbSymbolTableRecord
100
AcDbLayerTableRecord
  2
2053_5 SCHILD
 70
        64
 62
        54
  6
CONTINUOUS
290
         1
370
        18
390
1D
  0
LAYER
  5
75
100
AcDbSymbolTableRecord
100
AcDbLayerTableRecord
  2
2053_1-4 SCHLÜSSEL
 70
        64
 62
       190
  6
CONTINUOUS
290
         1
370
        18
390
1D
  0
LAYER
  5
76
100
AcDbSymbolTableRecord
100
AcDbLayerTableRecord
  2
2053__ SCHLÜSSEL
 70
        64
 62
         7
  6
CONTINUOUS
290
         1
370
         0
390
1D
  0
LAYER
  5
77
100
AcDbSymbolTableRecord
100
AcDbLayerTableRecord
  2
KONSTRUKTION
 70
        64
 62
         7
  6
CONTINUOUS
290
         1
370
         0
390
1D
  0
LAYER
  5
78
100
AcDbSymbolTableRecord
100
AcDbLayerTableRecord
  2
2650_1P
 70
        64
 62
        30
  6
CONTINUOUS
290
         1
370
        13
390
1D
  0
LAYER
  5
79
100
AcDbSymbolTableRecord
100
AcDbLayerTableRecord
  2
2650_7P
 70
        64
 62
        15
  6
CONTINUOUS
290
         1
370
        13
390
1D
  0
LAYER
  5
7A
100
AcDbSymbolTableRecord
100
AcDbLayerTableRecord
  2
2650___ WEICHENBOCK
 70
        64
 62
       230
  6
CONTINUOUS
290
         1
370
        13
390
1D
  0
LAYER
  5
7B
100
AcDbSymbolTableRecord
100
AcDbLayerTableRecord
  2
2651_1O
 70
        64
 62
        34
  6
CONTINUOUS
290
         1
370
        13
390
1D
  0
LAYER
  5
7C
100
AcDbSymbolTableRecord
100
AcDbLayerTableRecord
  2
2651_1U
 70
        64
 62
        11
  6
CONTINUOUS
290
         1
370
        13
390
1D
  0
LAYER
  5
7D
100
AcDbSymbolTableRecord
100
AcDbLayerTableRecord
  2
2651___ SBW-GLEISSPERRSCHUH
 70
        64
 62
       230
  6
CONTINUOUS
290
         1
370
        13
390
1D
  0
LAYER
  5
7E
100
AcDbSymbolTableRecord
100
AcDbLayerTableRecord
  2
2658_01O
 70
        64
 62
        11
  6
CONTINUOUS
290
         1
370
         0
390
1D
  0
LAYER
  5
7F
100
AcDbSymbolTableRecord
100
AcDbLayerTableRecord
  2
2658_02U
 70
        64
 62
        15
  6
CONTINUOUS
290
         1
370
         0
390
1D
  0
LAYER
  5
80
100
AcDbSymbolTableRecord
100
AcDbLayerTableRecord
  2
2658_12L
 70
        64
 62
        14
  6
CONTINUOUS
290
         1
370
        13
390
1D
  0
LAYER
  5
81
100
AcDbSymbolTableRecord
100
AcDbLayerTableRecord
  2
2658_11P
 70
        64
 62
        34
  6
CONTINUOUS
290
         1
370
        13
390
1D
  0
LAYER
  5
82
100
AcDbSymbolTableRecord
100
AcDbLayerTableRecord
  2
2658_13R
 70
        64
 62
        14
  6
CONTINUOUS
290
         1
370
        13
390
1D
  0
LAYER
  5
83
100
AcDbSymbolTableRecord
100
AcDbLayerTableRecord
  2
2658_21P
 70
        64
 62
        34
  6
CONTINUOUS
290
         1
370
        13
390
1D
  0
LAYER
  5
84
100
AcDbSymbolTableRecord
100
AcDbLayerTableRecord
  2
2658___
 70
        64
 62
       230
  6
CONTINUOUS
290
         1
370
        13
390
1D
  0
LAYER
  5
85
100
AcDbSymbolTableRecord
100
AcDbLayerTableRecord
  2
2655_1P
 70
        64
 62
        30
  6
CONTINUOUS
290
         1
370
        13
390
1D
  0
LAYER
  5
86
100
AcDbSymbolTableRecord
100
AcDbLayerTableRecord
  2
2655_2P
 70
        64
 62
        30
  6
CONTINUOUS
290
         1
370
        13
390
1D
  0
LAYER
  5
87
100
AcDbSymbolTableRecord
100
AcDbLayerTableRecord
  2
2655_3L
 70
        64
 62
        30
  6
CONTINUOUS
290
         1
370
        13
390
1D
  0
LAYER
  5
88
100
AcDbSymbolTableRecord
100
AcDbLayerTableRecord
  2
2655_3R
 70
        64
 62
        14
  6
CONTINUOUS
290
         1
370
        13
390
1D
  0
LAYER
  5
89
100
AcDbSymbolTableRecord
100
AcDbLayerTableRecord
  2
2655_5L
 70
        64
 62
        30
  6
CONTINUOUS
290
         1
370
        13
390
1D
  0
LAYER
  5
8A
100
AcDbSymbolTableRecord
100
AcDbLayerTableRecord
  2
2655_5R
 70
        64
 62
        14
  6
CONTINUOUS
290
         1
370
        13
390
1D
  0
LAYER
  5
8B
100
AcDbSymbolTableRecord
100
AcDbLayerTableRecord
  2
2655_6P
 70
        64
 62
        30
  6
CONTINUOUS
290
         1
370
        13
390
1D
  0
LAYER
  5
8C
100
AcDbSymbolTableRecord
100
AcDbLayerTableRecord
  2
2655_78L
 70
        64
 62
        30
  6
CONTINUOUS
290
         1
370
        13
390
1D
  0
LAYER
  5
8D
100
AcDbSymbolTableRecord
100
AcDbLayerTableRecord
  2
2655_11P
 70
        64
 62
        30
  6
CONTINUOUS
290
         1
370
        13
390
1D
  0
LAYER
  5
8E
100
AcDbSymbolTableRecord
100
AcDbLayerTableRecord
  2
2655_13R
 70
        64
 62
        14
  6
CONTINUOUS
290
         1
370
        13
390
1D
  0
LAYER
  5
8F
100
AcDbSymbolTableRecord
100
AcDbLayerTableRecord
  2
2655_13L
 70
        64
 62
        30
  6
CONTINUOUS
290
         1
370
        13
390
1D
  0
LAYER
  5
90
100
AcDbSymbolTableRecord
100
AcDbLayerTableRecord
  2
2655_78R
 70
        64
 62
        14
  6
CONTINUOUS
290
         1
370
        13
390
1D
  0
LAYER
  5
91
100
AcDbSymbolTableRecord
100
AcDbLayerTableRecord
  2
2655_9R
 70
        64
 62
        14
  6
CONTINUOUS
290
         1
370
        13
390
1D
  0
LAYER
  5
92
100
AcDbSymbolTableRecord
100
AcDbLayerTableRecord
  2
2655_9L
 70
        64
 62
        30
  6
CONTINUOUS
290
         1
370
        13
390
1D
  0
LAYER
  5
93
100
AcDbSymbolTableRecord
100
AcDbLayerTableRecord
  2
2655_6Q
 70
        64
 62
        30
  6
CONTINUOUS
290
         1
370
        13
390
1D
  0
LAYER
  5
94
100
AcDbSymbolTableRecord
100
AcDbLayerTableRecord
  2
2655_99P
 70
        64
 62
        30
  6
CONTINUOUS
290
         1
370
        13
390
1D
  0
LAYER
  5
95
100
AcDbSymbolTableRecord
100
AcDbLayerTableRecord
  2
2655_10R
 70
        64
 62
        14
  6
CONTINUOUS
290
         1
370
        13
390
1D
  0
LAYER
  5
96
100
AcDbSymbolTableRecord
100
AcDbLayerTableRecord
  2
2655_10L
 70
        64
 62
        30
  6
CONTINUOUS
290
         1
370
        13
390
1D
  0
LAYER
  5
97
100
AcDbSymbolTableRecord
100
AcDbLayerTableRecord
  2
2655___ W-_ GSP-_ SIGNAL-ANTRIEB
 70
        64
 62
       230
  6
CONTINUOUS
290
         1
370
        13
390
1D
  0
LAYER
  5
98
100
AcDbSymbolTableRecord
100
AcDbLayerTableRecord
  2
2656_01L
 70
        64
 62
        34
  6
CONTINUOUS
290
         1
370
        13
390
1D
  0
LAYER
  5
99
100
AcDbSymbolTableRecord
100
AcDbLayerTableRecord
  2
2656_02R
 70
        64
 62
        14
  6
CONTINUOUS
290
         1
370
        13
390
1D
  0
LAYER
  5
9A
100
AcDbSymbolTableRecord
100
AcDbLayerTableRecord
  2
2656_11L
 70
        64
 62
        34
  6
CONTINUOUS
290
         1
370
        13
390
1D
  0
LAYER
  5
9B
100
AcDbSymbolTableRecord
100
AcDbLayerTableRecord
  2
2656_12R
 70
        64
 62
        14
  6
CONTINUOUS
290
         1
370
        13
390
1D
  0
LAYER
  5
9C
100
AcDbSymbolTableRecord
100
AcDbLayerTableRecord
  2
2656___
 70
        64
 62
       230
  6
CONTINUOUS
290
         1
370
        13
390
1D
  0
LAYER
  5
9D
100
AcDbSymbolTableRecord
100
AcDbLayerTableRecord
  2
1088_1P
 70
        64
 62
        30
  6
CONTINUOUS
290
         1
370
         0
390
1D
  0
LAYER
  5
9E
100
AcDbSymbolTableRecord
100
AcDbLayerTableRecord
  2
108____ VORLAGEN
 70
        64
 62
       230
  6
CONTINUOUS
290
         1
370
        13
390
1D
  0
LAYER
  5
9F
100
AcDbSymbolTableRecord
100
AcDbLayerTableRecord
  2
2653_1P
 70
        64
 62
        30
  6
CONTINUOUS
290
         1
370
        13
390
1D
  0
LAYER
  5
A0
100
AcDbSymbolTableRecord
100
AcDbLayerTableRecord
  2
2653_2P
 70
        64
 62
        34
  6
CONTINUOUS
290
         1
370
        13
390
1D
  0
LAYER
  5
A1
100
AcDbSymbolTableRecord
100
AcDbLayerTableRecord
  2
2653_3P
 70
        64
 62
        34
  6
CONTINUOUS
290
         1
370
        13
390
1D
  0
LAYER
  5
A2
100
AcDbSymbolTableRecord
100
AcDbLayerTableRecord
  2
2653___ WEICHENSTELLUNG
 70
        64
 62
       230
  6
CONTINUOUS
290
         1
370
        13
390
1D
  0
LAYER
  5
A3
100
AcDbSymbolTableRecord
100
AcDbLayerTableRecord
  2
PFADE
 70
        64
 62
         7
  6
CONTINUOUS
290
         1
370
         0
390
1D
  0
LAYER
  5
A4
100
AcDbSymbolTableRecord
100
AcDbLayerTableRecord
  2
MASSGRENZEN0
 70
        64
 62
       172
  6
CONTINUOUS
290
         1
370
        25
390
1D
  0
LAYER
  5
A5
100
AcDbSymbolTableRecord
100
AcDbLayerTableRecord
  2
MASSTEXTE0
 70
        64
 62
       212
  6
CONTINUOUS
290
         1
370
        25
390
1D
  0
LAYER
  5
A6
100
AcDbSymbolTableRecord
100
AcDbLayerTableRecord
  2
TOLERANZEN0
 70
        64
 62
       212
  6
CONTINUOUS
290
         1
370
         0
390
1D
  0
LAYER
  5
A7
100
AcDbSymbolTableRecord
100
AcDbLayerTableRecord
  2
MASSLINIEN0
 70
        64
 62
       172
  6
CONTINUOUS
290
         1
370
        25
390
1D
  0
LAYER
  5
A8
100
AcDbSymbolTableRecord
100
AcDbLayerTableRecord
  2
BEMASSUNG
 70
        64
 62
         7
  6
CONTINUOUS
290
         1
370
        25
390
1D
  0
LAYER
  5
A9
100
AcDbSymbolTableRecord
100
AcDbLayerTableRecord
  2
STANDARD
 70
        64
 62
         7
  6
CONTINUOUS
290
         1
370
         0
390
1D
  0
ENDTAB
  0
TABLE
  2
STYLE
  5
3
100
AcDbSymbolTable
 70
         7
  0
STYLE
  5
17
100
AcDbSymbolTableRecord
100
AcDbTextStyleTableRecord
  2
Standard
 70
         0
 40
0.0
 41
1.0
 50
0.0
 71
         0
 42
0.0
  3
txt
  4

  0
STYLE
  5
2D
100
AcDbSymbolTableRecord
100
AcDbTextStyleTableRecord
  2
CADdy
 70
         0
 40
0.0
 41
1.0
 50
0.0
 71
         0
 42
3.5
  3
txt.shx
  4

  0
STYLE
  5
2E
100
AcDbSymbolTableRecord
100
AcDbTextStyleTableRecord
  2
Arial
 70
         0
 40
0.0
 41
1.0
 50
0.0
 71
         0
 42
3.5
  3
arial.ttf
  4

1001
ACAD
1000
Arial
1071
       34
  0
STYLE
  5
2F
100
AcDbSymbolTableRecord
100
AcDbTextStyleTableRecord
  2
Isonorm
 70
         0
 40
0.0
 41
1.0
 50
0.0
 71
         0
 42
3.5
  3
txt.shx
  4

  0
STYLE
  5
30
100
AcDbSymbolTableRecord
100
AcDbTextStyleTableRecord
  2
Tahoma
 70
         0
 40
0.0
 41
1.0
 50
0.0
 71
         0
 42
3.5
  3
tahoma.ttf
  4

1001
ACAD
1000
Tahoma
1071
       34
  0
STYLE
  5
31
100
AcDbSymbolTableRecord
100
AcDbTextStyleTableRecord
  2
Microsoft Sans Serif
 70
         0
 40
0.0
 41
1.0
 50
0.0
 71
         0
 42
3.5
  3
micross.ttf
  4

1001
ACAD
1000
Microsoft Sans Serif
1071
       34
  0
STYLE
  5
32
100
AcDbSymbolTableRecord
100
AcDbTextStyleTableRecord
  2
Arial Rounded MT Bold
 70
         0
 40
0.0
 41
1.0
 50
0.0
 71
         0
 42
3.5
  3
txt.shx
  4

  0
ENDTAB
  0
TABLE
  2
VIEW
  5
5
100
AcDbSymbolTable
 70
         0
  0
ENDTAB
  0
TABLE
  2
UCS
  5
6
100
AcDbSymbolTable
 70
         0
  0
ENDTAB
  0
TABLE
  2
APPID
  5
8
100
AcDbSymbolTable
 70
         1
  0
APPID
  5
16
100
AcDbSymbolTableRecord
100
AcDbRegAppTableRecord
  2
ACAD
 70
        64
  0
ENDTAB
  0
TABLE
  2
DIMSTYLE
  5
9
100
AcDbSymbolTable
 70
         1
100
AcDbDimStyleTable
 71
         0
  0
DIMSTYLE
105
18
100
AcDbSymbolTableRecord
100
AcDbDimStyleTableRecord
  2
Standard
 70
         0
  3

  4

 40
1.0
 41
0.18
 42
0.0625
 43
0.38
 44
0.18
 45
0.0
 46
0.0
 47
0.0
 48
0.0
 71
         0
 72
         0
 73
         1
 74
         1
 75
         0
 76
         0
 77
         0
 78
         0
 79
         0
140
0.18
141
0.09
142
0.0
143
25.4
144
1.0
145
0.0
146
1.0
147
0.09
148
0.0
170
         0
171
         2
172
         0
173
         0
174
         0
175
         0
176
         0
177
         0
178
         0
179
         0
271
         4
272
         4
273
         2
274
         2
275
         0
276
         0
277
         2
278
        46
279
         0
280
         0
281
         0
282
         0
283
         1
284
         0
285
         0
286
         0
288
         0
289
         3
340
17
341
0
342
0
343
0
344
0
371
        -2
372
        -2
  0
ENDTAB
  0
TABLE
  2
BLOCK_RECORD
  5
1
100
AcDbSymbolTable
 70
        10
  0
BLOCK_RECORD
  5
A
100
AcDbSymbolTableRecord
100
AcDbBlockTableRecord
  2
*MODEL_SPACE
340
20
  0
BLOCK_RECORD
  5
B
100
AcDbSymbolTableRecord
100
AcDbBlockTableRecord
  2
*PAPER_SPACE
340
21
  0
BLOCK_RECORD
  5
AA
100
AcDbSymbolTableRecord
100
AcDbBlockTableRecord
  2
D405876736
340
0
102
{BLKREFS
331
1B4
102
}
  0
BLOCK_RECORD
  5
B3
100
AcDbSymbolTableRecord
100
AcDbBlockTableRecord
  2
D405876480
340
0
102
{BLKREFS
331
1B5
102
}
  0
BLOCK_RECORD
  5
BC
100
AcDbSymbolTableRecord
100
AcDbBlockTableRecord
  2
D405876224
340
0
102
{BLKREFS
331
1B6
102
}
  0
BLOCK_RECORD
  5
C5
100
AcDbSymbolTableRecord
100
AcDbBlockTableRecord
  2
D405875968
340
0
102
{BLKREFS
331
1C2
102
}
  0
BLOCK_RECORD
  5
CE
100
AcDbSymbolTableRecord
100
AcDbBlockTableRecord
  2
D405875712
340
0
102
{BLKREFS
331
220
102
}
  0
BLOCK_RECORD
  5
D7
100
AcDbSymbolTableRecord
100
AcDbBlockTableRecord
  2
D405875456
340
0
102
{BLKREFS
331
227
102
}
  0
BLOCK_RECORD
  5
E2
100
AcDbSymbolTableRecord
100
AcDbBlockTableRecord
  2
D405875200
340
0
102
{BLKREFS
331
228
102
}
  0
BLOCK_RECORD
  5
ED
100
AcDbSymbolTableRecord
100
AcDbBlockTableRecord
  2
D405888768
340
0
102
{BLKREFS
331
304
102
}
  0
BLOCK_RECORD
  5
F6
100
AcDbSymbolTableRecord
100
AcDbBlockTableRecord
  2
D405825280
340
0
102
{BLKREFS
331
311
102
}
  0
BLOCK_RECORD
  5
FF
100
AcDbSymbolTableRecord
100
AcDbBlockTableRecord
  2
_A407156080
340
0
102
{BLKREFS
331
354
102
}
  0
ENDTAB
  0
ENDSEC
  0
SECTION
  2
BLOCKS
  0
BLOCK
  5
D
100
AcDbEntity
  8
0
390
0
100
AcDbBlockBegin
  2
*MODEL_SPACE
 70
         0
 10
0.0
 20
0.0
 30
0.0
  3
*MODEL_SPACE
  1

  0
ENDBLK
  5
E
100
AcDbEntity
  8
0
390
0
100
AcDbBlockEnd
  0
BLOCK
  5
F
100
AcDbEntity
 67
         1
  8
0
390
0
100
AcDbBlockBegin
  2
*PAPER_SPACE
 70
         0
 10
0.0
 20
0.0
 30
0.0
  3
*PAPER_SPACE
  1

  0
ENDBLK
  5
10
100
AcDbEntity
 67
         1
  8
0
390
0
100
AcDbBlockEnd
  0
BLOCK
  5
AB
100
AcDbEntity
  8
BEMAßUNG
390
0
100
AcDbBlockBegin
  2
D405876736
 70
         0
 10
0.0
 20
0.0
 30
0.0
  3
D405876736
  1

  0
LINE
  5
AC
100
AcDbEntity
  8
BEMAßUNG
390
0
 62
       172
100
AcDbLine
 10
67.0
 20
181.4913670786
 30
0.0
 11
67.0
 21
134.4913670786
 31
0.0
  0
LINE
  5
AD
100
AcDbEntity
  8
BEMAßUNG
390
0
 62
       172
100
AcDbLine
 10
26.7795971288
 20
181.4913670786
 30
0.0
 11
69.0
 21
181.4913670786
 31
0.0
  0
LINE
  5
AE
100
AcDbEntity
  8
BEMAßUNG
390
0
 62
       172
100
AcDbLine
 10
26.7795971288
 20
134.4913670786
 30
0.0
 11
69.0
 21
134.4913670786
 31
0.0
  0
SOLID
  5
AF
100
AcDbEntity
  8
BEMAßUNG
390
0
100
AcDbTrace
 10
67.0
 20
181.4913670786
 30
0.0
 11
67.3915785767
 21
178.5170324945
 31
0.0
 12
66.6084214233
 22
178.5170324945
 32
0.0
 13
66.6084214233
 23
178.5170324945
 33
0.0
  0
SOLID
  5
B0
100
AcDbEntity
  8
BEMAßUNG
390
0
100
AcDbTrace
 10
67.0
 20
134.4913670786
 30
0.0
 11
66.6084214233
 21
137.4657016627
 31
0.0
 12
67.3915785767
 22
137.4657016627
 32
0.0
 13
67.3915785767
 23
137.4657016627
 33
0.0
  0
MTEXT
  5
B1
100
AcDbEntity
  8
BEMAßUNG
390
0
 62
       212
100
AcDbMText
 10
63.816
 20
157.9913670786
 30
0.0
 40
3.0
 41
0.0
 71
         5
 72
         1
  1
\W1.135145;\A1;47
  7
Arial
 11
0.0
 21
1.0
 31
0.0
 73
         0
 44
0.0
  0
ENDBLK
  5
B2
100
AcDbEntity
  8
0
390
0
100
AcDbBlockEnd
  0
BLOCK
  5
B4
100
AcDbEntity
  8
BEMAßUNG
390
0
100
AcDbBlockBegin
  2
D405876480
 70
         0
 10
0.0
 20
0.0
 30
0.0
  3
D405876480
  1

  0
LINE
  5
B5
100
AcDbEntity
  8
BEMAßUNG
390
0
 62
       172
100
AcDbLine
 10
67.0
 20
114.7979347356
 30
0.0
 11
67.0
 21
52.7979347356
 31
0.0
  0
LINE
  5
B6
100
AcDbEntity
  8
BEMAßUNG
390
0
 62
       172
100
AcDbLine
 10
26.7795971288
 20
114.7979347356
 30
0.0
 11
69.0
 21
114.7979347356
 31
0.0
  0
LINE
  5
B7
100
AcDbEntity
  8
BEMAßUNG
390
0
 62
       172
100
AcDbLine
 10
26.7795971288
 20
52.7979347356
 30
0.0
 11
69.0
 21
52.7979347356
 31
0.0
  0
SOLID
  5
B8
100
AcDbEntity
  8
BEMAßUNG
390
0
100
AcDbTrace
 10
67.0
 20
114.7979347356
 30
0.0
 11
67.3915785767
 21
111.8236001515
 31
0.0
 12
66.6084214233
 22
111.8236001515
 32
0.0
 13
66.6084214233
 23
111.8236001515
 33
0.0
  0
SOLID
  5
B9
100
AcDbEntity
  8
BEMAßUNG
390
0
100
AcDbTrace
 10
67.0
 20
52.7979347356
 30
0.0
 11
66.6084214233
 21
55.7722693197
 31
0.0
 12
67.3915785767
 22
55.7722693197
 32
0.0
 13
67.3915785767
 23
55.7722693197
 33
0.0
  0
MTEXT
  5
BA
100
AcDbEntity
  8
BEMAßUNG
390
0
 62
       212
100
AcDbMText
 10
63.816
 20
83.7979347356
 30
0.0
 40
3.0
 41
0.0
 71
         5
 72
         1
  1
\W1.135145;\A1;62
  7
Arial
 11
0.0
 21
1.0
 31
0.0
 73
         0
 44
0.0
  0
ENDBLK
  5
BB
100
AcDbEntity
  8
0
390
0
100
AcDbBlockEnd
  0
BLOCK
  5
BD
100
AcDbEntity
  8
BEMAßUNG
390
0
100
AcDbBlockBegin
  2
D405876224
 70
         0
 10
0.0
 20
0.0
 30
0.0
  3
D405876224
  1

  0
LINE
  5
BE
100
AcDbEntity
  8
BEMAßUNG
390
0
 62
       172
100
AcDbLine
 10
220.2020380883
 20
178.791844791
 30
0.0
 11
220.2020380883
 21
101.791844791
 31
0.0
  0
LINE
  5
BF
100
AcDbEntity
  8
BEMAßUNG
390
0
 62
       172
100
AcDbLine
 10
197.2680946468
 20
178.791844791
 30
0.0
 11
222.2020380883
 21
178.791844791
 31
0.0
  0
LINE
  5
C0
100
AcDbEntity
  8
BEMAßUNG
390
0
 62
       172
100
AcDbLine
 10
197.2680946468
 20
101.791844791
 30
0.0
 11
222.2020380883
 21
101.791844791
 31
0.0
  0
SOLID
  5
C1
100
AcDbEntity
  8
BEMAßUNG
390
0
100
AcDbTrace
 10
220.2020380883
 20
178.791844791
 30
0.0
 11
220.5936166649
 21
175.8175102068
 31
0.0
 12
219.8104595116
 22
175.8175102068
 32
0.0
 13
219.8104595116
 23
175.8175102068
 33
0.0
  0
SOLID
  5
C2
100
AcDbEntity
  8
BEMAßUNG
390
0
100
AcDbTrace
 10
220.2020380883
 20
101.791844791
 30
0.0
 11
219.8104595116
 21
104.7661793751
 31
0.0
 12
220.5936166649
 22
104.7661793751
 32
0.0
 13
220.5936166649
 23
104.7661793751
 33
0.0
  0
MTEXT
  5
C3
100
AcDbEntity
  8
BEMAßUNG
390
0
 62
       212
100
AcDbMText
 10
217.0180380883
 20
140.291844791
 30
0.0
 40
3.0
 41
0.0
 71
         5
 72
         1
  1
\W1.135145;\A1;77
  7
Arial
 11
0.0
 21
1.0
 31
0.0
 73
         0
 44
0.0
  0
ENDBLK
  5
C4
100
AcDbEntity
  8
0
390
0
100
AcDbBlockEnd
  0
BLOCK
  5
C6
100
AcDbEntity
  8
BEMAßUNG
390
0
100
AcDbBlockBegin
  2
D405875968
 70
         0
 10
0.0
 20
0.0
 30
0.0
  3
D405875968
  1

  0
LINE
  5
C7
100
AcDbEntity
  8
BEMAßUNG
390
0
 62
       172
100
AcDbLine
 10
120.0694434118
 20
106.2194717449
 30
0.0
 11
120.0694434118
 21
129.2194717441
 31
0.0
  0
LINE
  5
C8
100
AcDbEntity
  8
BEMAßUNG
390
0
 62
       172
100
AcDbLine
 10
97.2950612483
 20
106.2194717449
 30
0.0
 11
122.0694434118
 21
106.2194717449
 31
0.0
  0
LINE
  5
C9
100
AcDbEntity
  8
BEMAßUNG
390
0
 62
       172
100
AcDbLine
 10
97.2950612483
 20
129.2194717441
 30
0.0
 11
122.0694434118
 21
129.2194717441
 31
0.0
  0
SOLID
  5
CA
100
AcDbEntity
  8
BEMAßUNG
390
0
100
AcDbTrace
 10
120.0694434118
 20
106.2194717449
 30
0.0
 11
119.6778648351
 21
109.193806329
 31
0.0
 12
120.4610219884
 22
109.193806329
 32
0.0
 13
120.4610219884
 23
109.193806329
 33
0.0
  0
SOLID
  5
CB
100
AcDbEntity
  8
BEMAßUNG
390
0
100
AcDbTrace
 10
120.0694434118
 20
129.2194717441
 30
0.0
 11
120.4610219884
 21
126.2451371599
 31
0.0
 12
119.6778648351
 22
126.2451371599
 32
0.0
 13
119.6778648351
 23
126.2451371599
 33
0.0
  0
MTEXT
  5
CC
100
AcDbEntity
  8
BEMAßUNG
390
0
 62
       212
100
AcDbMText
 10
116.8854434118
 20
117.7194717445
 30
0.0
 40
3.0
 41
0.0
 71
         5
 72
         1
  1
\W1.135145;\A1;23
  7
Arial
 11
0.0
 21
1.0
 31
0.0
 73
         0
 44
0.0
  0
ENDBLK
  5
CD
100
AcDbEntity
  8
0
390
0
100
AcDbBlockEnd
  0
BLOCK
  5
CF
100
AcDbEntity
  8
BEMAßUNG
390
0
100
AcDbBlockBegin
  2
D405875712
 70
         0
 10
0.0
 20
0.0
 30
0.0
  3
D405875712
  1

  0
LINE
  5
D0
100
AcDbEntity
  8
BEMAßUNG
390
0
 62
       172
100
AcDbLine
 10
120.2914722703
 20
152.9411712072
 30
0.0
 11
120.2886969494
 21
178.9395231113
 31
0.0
  0
LINE
  5
D1
100
AcDbEntity
  8
BEMAßUNG
390
0
 62
       172
100
AcDbLine
 10
94.8589741482
 20
152.9384562912
 30
0.0
 11
122.2914722589
 21
152.941384707
 31
0.0
  0
LINE
  5
D2
100
AcDbEntity
  8
BEMAßUNG
390
0
 62
       172
100
AcDbLine
 10
110.2950612483
 20
178.9384562919
 30
0.0
 11
122.288696938
 21
178.9397366111
 31
0.0
  0
SOLID
  5
D3
100
AcDbEntity
  8
BEMAßUNG
390
0
100
AcDbTrace
 10
120.2914722703
 20
152.9411712072
 30
0.0
 11
119.899576186
 21
155.9154639735
 31
0.0
 12
120.6827333349
 22
155.9155475754
 32
0.0
 13
120.6827333349
 23
155.9155475754
 33
0.0
  0
SOLID
  5
D4
100
AcDbEntity
  8
BEMAßUNG
390
0
100
AcDbTrace
 10
120.2886969494
 20
178.9395231113
 30
0.0
 11
120.6805930337
 21
175.9652303451
 31
0.0
 12
119.8974358848
 22
175.9651467432
 32
0.0
 13
119.8974358848
 23
175.9651467432
 33
0.0
  0
MTEXT
  5
D5
100
AcDbEntity
  8
BEMAßUNG
390
0
 62
       212
100
AcDbMText
 10
123.4740845917
 20
165.9406870509
 30
0.0
 40
3.0
 41
0.0
 71
         5
 72
         1
  1
\W1.135145;\A1;26
  7
Arial
 11
0.0001067499
 21
-0.9999999943
 31
0.0
 73
         0
 44
0.0
  0
ENDBLK
  5
D6
100
AcDbEntity
  8
0
390
0
100
AcDbBlockEnd
  0
BLOCK
  5
D8
100
AcDbEntity
  8
BEMAßUNG
390
0
100
AcDbBlockBegin
  2
D405875456
 70
         0
 10
0.0
 20
0.0
 30
0.0
  3
D405875456
  1

  0
LINE
  5
D9
100
AcDbEntity
  8
BEMAßUNG
390
0
 62
       172
100
AcDbLine
 10
205.6274338639
 20
45.2150206542
 30
0.0
 11
213.6274338639
 21
45.2150206542
 31
0.0
  0
LINE
  5
DA
100
AcDbEntity
  8
BEMAßUNG
390
0
 62
       172
100
AcDbLine
 10
205.6274338639
 20
50.7746113702
 30
0.0
 11
205.6274338639
 21
43.2150206542
 31
0.0
  0
LINE
  5
DB
100
AcDbEntity
  8
BEMAßUNG
390
0
 62
       172
100
AcDbLine
 10
213.6274338639
 20
64.2746113702
 30
0.0
 11
213.6274338639
 21
43.2150206542
 31
0.0
  0
LINE
  5
DC
100
AcDbEntity
  8
BEMAßUNG
390
0
 62
       172
100
AcDbLine
 10
213.6274338639
 20
45.2150206542
 30
0.0
 11
222.4019363655
 21
45.2150206542
 31
0.0
  0
LINE
  5
DD
100
AcDbEntity
  8
BEMAßUNG
390
0
 62
       172
100
AcDbLine
 10
205.6274338639
 20
45.2150206542
 30
0.0
 11
199.5887646957
 21
45.2150206542
 31
0.0
  0
SOLID
  5
DE
100
AcDbEntity
  8
BEMAßUNG
390
0
100
AcDbTrace
 10
205.6274338639
 20
45.2150206542
 30
0.0
 11
202.6530992798
 21
44.8234420775
 31
0.0
 12
202.6530992798
 22
45.6065992308
 32
0.0
 13
202.6530992798
 23
45.6065992308
 33
0.0
  0
SOLID
  5
DF
100
AcDbEntity
  8
BEMAßUNG
390
0
100
AcDbTrace
 10
213.6274338639
 20
45.2150206542
 30
0.0
 11
216.6017684481
 21
45.6065992308
 31
0.0
 12
216.6017684481
 22
44.8234420775
 32
0.0
 13
216.6017684481
 23
44.8234420775
 33
0.0
  0
MTEXT
  5
E0
100
AcDbEntity
  8
BEMAßUNG
390
0
 62
       212
100
AcDbMText
 10
220.9890196989
 20
48.3990206542
 30
0.0
 40
3.0
 41
0.0
 71
         5
 72
         1
  1
\W1.135145;\A1;8
  7
Arial
 11
1.0
 21
0.0
 31
0.0
 73
         0
 44
0.0
  0
ENDBLK
  5
E1
100
AcDbEntity
  8
0
390
0
100
AcDbBlockEnd
  0
BLOCK
  5
E3
100
AcDbEntity
  8
BEMAßUNG
390
0
100
AcDbBlockBegin
  2
D405875200
 70
         0
 10
0.0
 20
0.0
 30
0.0
  3
D405875200
  1

  0
LINE
  5
E4
100
AcDbEntity
  8
BEMAßUNG
390
0
 62
       172
100
AcDbLine
 10
222.5093725454
 20
50.7746113702
 30
0.0
 11
222.5093725454
 21
65.2746113702
 31
0.0
  0
LINE
  5
E5
100
AcDbEntity
  8
BEMAßUNG
390
0
 62
       172
100
AcDbLine
 10
213.6274338639
 20
50.7746113702
 30
0.0
 11
224.5093725454
 21
50.7746113702
 31
0.0
  0
LINE
  5
E6
100
AcDbEntity
  8
BEMAßUNG
390
0
 62
       172
100
AcDbLine
 10
205.6274338639
 20
65.2746113702
 30
0.0
 11
224.5093725454
 21
65.2746113702
 31
0.0
  0
LINE
  5
E7
100
AcDbEntity
  8
BEMAßUNG
390
0
 62
       172
100
AcDbLine
 10
222.5093725454
 20
65.2746113702
 30
0.0
 11
222.5093725454
 21
80.6624472051
 31
0.0
  0
LINE
  5
E8
100
AcDbEntity
  8
BEMAßUNG
390
0
 62
       172
100
AcDbLine
 10
222.5093725454
 20
50.7746113702
 30
0.0
 11
222.5093725454
 21
44.7359422019
 31
0.0
  0
SOLID
  5
E9
100
AcDbEntity
  8
BEMAßUNG
390
0
100
AcDbTrace
 10
222.5093725454
 20
50.7746113702
 30
0.0
 11
222.900951122
 21
47.800276786
 31
0.0
 12
222.1177939687
 22
47.800276786
 32
0.0
 13
222.1177939687
 23
47.800276786
 33
0.0
  0
SOLID
  5
EA
100
AcDbEntity
  8
BEMAßUNG
390
0
100
AcDbTrace
 10
222.5093725454
 20
65.2746113702
 30
0.0
 11
222.1177939687
 21
68.2489459543
 31
0.0
 12
222.900951122
 22
68.2489459543
 32
0.0
 13
222.900951122
 23
68.2489459543
 33
0.0
  0
MTEXT
  5
EB
100
AcDbEntity
  8
BEMAßUNG
390
0
 62
       212
100
AcDbMText
 10
219.3253725454
 20
75.9428638717
 30
0.0
 40
3.0
 41
0.0
 71
         5
 72
         1
  1
\W1.135134;\A1;14.5
  7
Arial
 11
0.0
 21
1.0
 31
0.0
 73
         0
 44
0.0
  0
ENDBLK
  5
EC
100
AcDbEntity
  8
0
390
0
100
AcDbBlockEnd
  0
BLOCK
  5
EE
100
AcDbEntity
  8
BEMAßUNG
390
0
100
AcDbBlockBegin
  2
D405888768
 70
         0
 10
0.0
 20
0.0
 30
0.0
  3
D405888768
  1

  0
LINE
  5
EF
100
AcDbEntity
  8
BEMAßUNG
390
0
 62
       172
100
AcDbLine
 10
287.1068275862
 20
154.6576289941
 30
0.0
 11
287.1068275862
 21
107.6576289941
 31
0.0
  0
LINE
  5
F0
100
AcDbEntity
  8
BEMAßUNG
390
0
 62
       172
100
AcDbLine
 10
248.9991507923
 20
154.6576289941
 30
0.0
 11
289.1068275862
 21
154.6576289941
 31
0.0
  0
LINE
  5
F1
100
AcDbEntity
  8
BEMAßUNG
390
0
 62
       172
100
AcDbLine
 10
248.9991507923
 20
107.6576289941
 30
0.0
 11
289.1068275862
 21
107.6576289941
 31
0.0
  0
SOLID
  5
F2
100
AcDbEntity
  8
BEMAßUNG
390
0
100
AcDbTrace
 10
287.1068275862
 20
154.6576289941
 30
0.0
 11
287.4984061629
 21
151.68329441
 31
0.0
 12
286.7152490095
 22
151.68329441
 32
0.0
 13
286.7152490095
 23
151.68329441
 33
0.0
  0
SOLID
  5
F3
100
AcDbEntity
  8
BEMAßUNG
390
0
100
AcDbTrace
 10
287.1068275862
 20
107.6576289941
 30
0.0
 11
286.7152490095
 21
110.6319635782
 31
0.0
 12
287.4984061629
 22
110.6319635782
 32
0.0
 13
287.4984061629
 23
110.6319635782
 33
0.0
  0
MTEXT
  5
F4
100
AcDbEntity
  8
BEMAßUNG
390
0
 62
       212
100
AcDbMText
 10
283.9228275862
 20
131.1576289941
 30
0.0
 40
3.0
 41
0.0
 71
         5
 72
         1
  1
\W1.135145;\A1;47
  7
Arial
 11
0.0
 21
1.0
 31
0.0
 73
         0
 44
0.0
  0
ENDBLK
  5
F5
100
AcDbEntity
  8
0
390
0
100
AcDbBlockEnd
  0
BLOCK
  5
F7
100
AcDbEntity
  8
BEMAßUNG
390
0
100
AcDbBlockBegin
  2
D405825280
 70
         0
 10
0.0
 20
0.0
 30
0.0
  3
D405825280
  1

  0
LINE
  5
F8
100
AcDbEntity
  8
BEMAßUNG
390
0
 62
       172
100
AcDbLine
 10
119.9023858668
 20
58.13564105
 30
0.0
 11
119.9023858668
 21
80.1395103034
 31
0.0
  0
LINE
  5
F9
100
AcDbEntity
  8
BEMAßUNG
390
0
 62
       172
100
AcDbLine
 10
97.2950612483
 20
58.13564105
 30
0.0
 11
121.9023858668
 21
58.13564105
 31
0.0
  0
LINE
  5
FA
100
AcDbEntity
  8
BEMAßUNG
390
0
 62
       172
100
AcDbLine
 10
101.9160288923
 20
80.1395103034
 30
0.0
 11
121.9023858668
 21
80.1395103034
 31
0.0
  0
SOLID
  5
FB
100
AcDbEntity
  8
BEMAßUNG
390
0
100
AcDbTrace
 10
119.9023858668
 20
58.13564105
 30
0.0
 11
119.5108072901
 21
61.1099756341
 31
0.0
 12
120.2939644434
 22
61.1099756341
 32
0.0
 13
120.2939644434
 23
61.1099756341
 33
0.0
  0
SOLID
  5
FC
100
AcDbEntity
  8
BEMAßUNG
390
0
100
AcDbTrace
 10
119.9023858668
 20
80.1395103034
 30
0.0
 11
120.2939644434
 21
77.1651757193
 31
0.0
 12
119.5108072901
 22
77.1651757193
 32
0.0
 13
119.5108072901
 23
77.1651757193
 33
0.0
  0
MTEXT
  5
FD
100
AcDbEntity
  8
BEMAßUNG
390
0
 62
       212
100
AcDbMText
 10
116.7183858668
 20
69.1375756767
 30
0.0
 40
3.0
 41
0.0
 71
         5
 72
         1
  1
\W1.135145;\A1;22
  7
Arial
 11
0.0
 21
1.0
 31
0.0
 73
         0
 44
0.0
  0
ENDBLK
  5
FE
100
AcDbEntity
  8
0
390
0
100
AcDbBlockEnd
  0
BLOCK
  5
100
100
AcDbEntity
  8
2655_12 SIGNALPLATTE
390
0
100
AcDbBlockBegin
  2
_A407156080
 70
        66
 10
273.4493103027
 20
142.8307647705
 30
0.0
  3
_A407156080
  1

  0
LINE
  5
101
100
AcDbEntity
  8
2655_12 SIGNALPLATTE
370
        25
390
0
  6
CONTINUOUS
 62
         7
100
AcDbLine
 10
279.8044242407
 20
158.0089320988
 30
0.0
 11
279.8044242407
 21
188.1597654321
 31
0.0
  0
LINE
  5
102
100
AcDbEntity
  8
2655_12 SIGNALPLATTE
370
        25
390
0
  6
CONTINUOUS
 62
         7
100
AcDbLine
 10
273.449306509
 20
142.8307591965
 30
0.0
 11
279.8044242407
 21
158.0089320988
 31
0.0
  0
LINE
  5
103
100
AcDbEntity
  8
2655_12 SIGNALPLATTE
370
         0
390
0
  6
CONTINUOUS
 62
       172
100
AcDbLine
 10
274.2368398203
 20
145.7255461116
 30
0.0
 11
273.449306509
 21
142.8307591965
 31
0.0
  0
LINE
  5
104
100
AcDbEntity
  8
2655_12 SIGNALPLATTE
370
         0
390
0
  6
CONTINUOUS
 62
       172
100
AcDbLine
 10
273.449306509
 20
142.8307591965
 30
0.0
 11
274.9592312585
 21
145.4230800198
 31
0.0
  0
LINE
  5
105
100
AcDbEntity
  8
2655_12 SIGNALPLATTE
370
         0
390
0
  6
CONTINUOUS
 62
       172
100
AcDbLine
 10
274.9592312585
 20
145.4230800198
 30
0.0
 11
274.2368398203
 21
145.7255461116
 31
0.0
  0
HATCH
  5
106
100
AcDbEntity
  8
2655_12 SIGNALPLATTE
390
0
  6
CONTINUOUS
 62
       172
100
AcDbHatch
 10
0.0
 20
0.0
 30
0.0
210
0.0
220
0.0
230
1.0
  2
SOLID
 70
         1
 71
         1
 91
        1
 92
        5
 93
        3
 72
         1
 10
274.23683982026989
 20
145.72554611158625
 11
273.44930650897766
 21
142.83075919652583
 72
         1
 10
273.44930650897766
 20
142.83075919652583
 11
274.95923125854898
 21
145.42308001977128
 72
         1
 10
274.95923125854898
 20
145.42308001977128
 11
274.23683982026989
 21
145.72554611158625
 97
        0
 75
         0
 76
         1
 47
1.224757
 98
        1
 10
274.23683982026989
 20
145.72553611158625
  0
ENDBLK
  5
107
100
AcDbEntity
  8
0
390
0
100
AcDbBlockEnd
  0
ENDSEC
  0
SECTION
  2
ENTITIES
  0
LINE
  5
108
100
AcDbEntity
  8
2655_1 RAHMEN
390
0
100
AcDbLine
 10
26.7795971288
 20
180.4913670786
 30
0.0
 11
26.7795971288
 21
135.4913670786
 31
0.0
  0
LINE
  5
109
100
AcDbEntity
  8
2655_1 RAHMEN
390
0
100
AcDbLine
 10
26.7795971288
 20
180.4913670786
 30
0.0
 11
56.7795971288
 21
180.4913670786
 31
0.0
  0
LINE
  5
10A
100
AcDbEntity
  8
2655_1 RAHMEN
390
0
100
AcDbLine
 10
26.7795971288
 20
135.4913670786
 30
0.0
 11
56.7795971288
 21
135.4913670786
 31
0.0
  0
LINE
  5
10B
100
AcDbEntity
  8
2655_1 RAHMEN
390
0
100
AcDbLine
 10
56.7795971288
 20
180.4913670786
 30
0.0
 11
56.7795971288
 21
135.4913670786
 31
0.0
  0
CIRCLE
  5
10C
100
AcDbEntity
  8
2655_1P
390
0
100
AcDbCircle
 10
32.1295971288
 20
137.9913670786
 30
0.0
 40
1.25
  0
LINE
  5
10D
100
AcDbEntity
  8
2655_1 RAHMEN
390
0
100
AcDbLine
 10
26.7795971288
 20
113.7979347356
 30
0.0
 11
26.7795971288
 21
53.7979347356
 31
0.0
  0
LINE
  5
10E
100
AcDbEntity
  8
2655_1 RAHMEN
390
0
100
AcDbLine
 10
26.7795971288
 20
113.7979347356
 30
0.0
 11
56.7795971288
 21
113.7979347356
 31
0.0
  0
LINE
  5
10F
100
AcDbEntity
  8
2655_1 RAHMEN
390
0
100
AcDbLine
 10
26.7795971288
 20
53.7979347356
 30
0.0
 11
56.7795971288
 21
53.7979347356
 31
0.0
  0
LINE
  5
110
100
AcDbEntity
  8
2655_1 RAHMEN
390
0
100
AcDbLine
 10
56.7795971288
 20
113.7979347356
 30
0.0
 11
56.7795971288
 21
53.7979347356
 31
0.0
  0
CIRCLE
  5
111
100
AcDbEntity
  8
2655_2P
390
0
100
AcDbCircle
 10
200.7680946468
 20
135.7897091672
 30
0.0
 40
1.25
  0
LINE
  5
112
100
AcDbEntity
  8
2655_2 SCHIEBER
390
0
100
AcDbLine
 10
197.2680946468
 20
102.791844791
 30
0.0
 11
197.2680946468
 21
177.791844791
 31
0.0
  0
LINE
  5
113
100
AcDbEntity
  8
2655_2 SCHIEBER
390
0
100
AcDbLine
 10
212.2680946468
 20
102.791844791
 30
0.0
 11
212.2680946468
 21
177.791844791
 31
0.0
  0
LINE
  5
114
100
AcDbEntity
  8
2655_2 SCHIEBER
390
0
100
AcDbLine
 10
197.2680946468
 20
177.791844791
 30
0.0
 11
212.2680946468
 21
177.791844791
 31
0.0
  0
CIRCLE
  5
115
100
AcDbEntity
  8
2655_2P
390
0
100
AcDbCircle
 10
200.7680946468
 20
105.791844791
 30
0.0
 40
1.25
  0
CIRCLE
  5
116
100
AcDbEntity
  8
2655_2P
390
0
100
AcDbCircle
 10
200.7680946468
 20
174.791844791
 30
0.0
 40
1.25
  0
LINE
  5
117
100
AcDbEntity
  8
2655_2 SCHIEBER
390
0
100
AcDbLine
 10
197.2680946468
 20
102.791844791
 30
0.0
 11
212.2680946468
 21
102.791844791
 31
0.0
  0
TEXT
  5
118
100
AcDbEntity
  8
BESCHRIFTUNG
390
0
100
AcDbText
 10
16.2738416988
 20
190.0220849421
 30
0.0
 40
3.0
  1
2655.1
 41
1.1351381787
  7
Arial
 11
16.2738416988
 21
193.0220849421
 31
0.0
100
AcDbText
 73
         3
  0
TEXT
  5
119
100
AcDbEntity
  8
BESCHRIFTUNG
390
0
100
AcDbText
 10
17.045965251
 20
122.4103861004
 30
0.0
 40
3.0
  1
2655.11
 41
1.135139297
  7
Arial
 11
17.045965251
 21
125.4103861004
 31
0.0
100
AcDbText
 73
         3
  0
TEXT
  5
11A
100
AcDbEntity
  8
BESCHRIFTUNG
390
0
100
AcDbText
 10
179.9609349949
 20
188.892292882
 30
0.0
 40
3.0
  1
2655.2
 41
1.1351380459
  7
Arial
 11
179.9609349949
 21
191.892292882
 31
0.0
100
AcDbText
 73
         3
  0
TEXT
  5
11B
100
AcDbEntity
  8
BESCHRIFTUNG
390
0
100
AcDbText
 10
76.5850545712
 20
137.8311211929
 30
0.0
 40
3.0
  1
2655.5
 41
1.1351380725
  7
Arial
 11
76.5850545712
 21
140.8311211929
 31
0.0
100
AcDbText
 73
         3
  0
TEXT
  5
11C
100
AcDbEntity
  8
BESCHRIFTUNG
390
0
100
AcDbText
 10
191.6530332941
 20
73.0344823345
 30
0.0
 40
3.0
  1
2655.6
 41
1.1351381787
  7
Arial
 11
191.6530332941
 21
76.0344823345
 31
0.0
100
AcDbText
 73
         3
  0
LINE
  5
11D
100
AcDbEntity
  8
2655_1P
390
0
  6
DIVIDE
100
AcDbLine
 10
26.7795971288
 20
181.4913670786
 30
0.0
 11
56.7795971288
 21
181.4913670786
 31
0.0
  0
LINE
  5
11E
100
AcDbEntity
  8
2655_1P
390
0
  6
DIVIDE
100
AcDbLine
 10
26.7795971288
 20
134.4913670786
 30
0.0
 11
56.7795971288
 21
134.4913670786
 31
0.0
  0
LINE
  5
11F
100
AcDbEntity
  8
2655_1P
390
0
100
AcDbLine
 10
38.7795971288
 20
175.4913670786
 30
0.0
 11
38.7795971288
 21
150.4913670786
 31
0.0
  0
LINE
  5
120
100
AcDbEntity
  8
2655_1P
390
0
100
AcDbLine
 10
51.7795971288
 20
175.4913670786
 30
0.0
 11
38.7795971288
 21
175.4913670786
 31
0.0
  0
LINE
  5
121
100
AcDbEntity
  8
2655_1P
390
0
100
AcDbLine
 10
51.7795971288
 20
170.4913670786
 30
0.0
 11
54.2795971288
 21
170.4913670786
 31
0.0
  0
LINE
  5
122
100
AcDbEntity
  8
2655_1P
390
0
100
AcDbLine
 10
51.7795971288
 20
175.4913670786
 30
0.0
 11
51.7795971288
 21
170.4913670786
 31
0.0
  0
LINE
  5
123
100
AcDbEntity
  8
2655_1P
390
0
100
AcDbLine
 10
51.7795971288
 20
156.4913670786
 30
0.0
 11
51.7795971288
 21
150.4913670786
 31
0.0
  0
LINE
  5
124
100
AcDbEntity
  8
2655_1P
390
0
100
AcDbLine
 10
38.7795971288
 20
150.4913670786
 30
0.0
 11
51.7795971288
 21
150.4913670786
 31
0.0
  0
LINE
  5
125
100
AcDbEntity
  8
2655_1P
390
0
100
AcDbLine
 10
54.2795971288
 20
170.4913670786
 30
0.0
 11
54.2795971288
 21
156.4913670786
 31
0.0
  0
LINE
  5
126
100
AcDbEntity
  8
2655_1P
390
0
100
AcDbLine
 10
51.7795971288
 20
156.4913670786
 30
0.0
 11
54.2795971288
 21
156.4913670786
 31
0.0
  0
CIRCLE
  5
127
100
AcDbEntity
  8
2655_1P
390
0
  6
PHANTOM
100
AcDbCircle
 10
26.7795971288
 20
181.4913670786
 30
0.0
 40
0.5
  0
CIRCLE
  5
128
100
AcDbEntity
  8
2655_1P
390
0
  6
PHANTOM
100
AcDbCircle
 10
26.7795971288
 20
134.4913670786
 30
0.0
 40
1.0
  0
LINE
  5
129
100
AcDbEntity
  8
2655_1P
390
0
  6
DASHED
100
AcDbLine
 10
56.7795971288
 20
181.4913670786
 30
0.0
 11
51.7795971288
 21
175.4913670786
 31
0.0
  0
LINE
  5
12A
100
AcDbEntity
  8
2655_1P
390
0
  6
DASHED
100
AcDbLine
 10
32.1295971288
 20
176.4913670786
 30
0.0
 11
32.1295971288
 21
137.9913670786
 31
0.0
  0
LINE
  5
12B
100
AcDbEntity
  8
2655_1P
390
0
  6
DASHED
100
AcDbLine
 10
32.1295971288
 20
137.9913670786
 30
0.0
 11
56.7795971288
 21
134.4913670786
 31
0.0
  0
TEXT
  5
12C
100
AcDbEntity
  8
2655_1P
390
0
  6
DASHED
100
AcDbText
 10
42.5999923012
 20
174.6456383071
 30
0.0
 40
1.5
  1
N1
 41
0.8648415648
  7
Arial
 11
42.5999923012
 21
176.1456383071
 31
0.0
100
AcDbText
 73
         3
  0
MTEXT
  5
12D
100
AcDbEntity
  8
2655_1P
390
0
100
AcDbMText
 10
17.2649258199
 20
187.0146738092
 30
0.0
 40
2.0
 41
0.0
 71
         1
 72
         1
  1
\W1.135101;M15x30x15 F150\PT2 O2 S4 I1,2\PB-0,3     D1,2
  7
Arial
 73
         1
 44
0.66
  0
MTEXT
  5
12E
100
AcDbEntity
  8
2655_11P
390
0
100
AcDbMText
 10
17.2649258199
 20
120.3212414662
 30
0.0
 40
2.0
 41
0.0
 71
         1
 72
         1
  1
\W1.135101;M15x30x15 F150\PT2 O2 S4 I1,2\PB-0,3     D1,2
  7
Arial
 73
         1
 44
0.66
  0
TEXT
  5
12F
100
AcDbEntity
  8
2655_11P
390
0
  6
DASHED
100
AcDbText
 10
42.5999923012
 20
107.9522059642
 30
0.0
 40
1.5
  1
N1
 41
0.8648415648
  7
Arial
 11
42.5999923012
 21
109.4522059642
 31
0.0
100
AcDbText
 73
         3
  0
LINE
  5
130
100
AcDbEntity
  8
2655_11P
390
0
  6
DIVIDE
100
AcDbLine
 10
26.7795971288
 20
52.7979347356
 30
0.0
 11
56.7795971288
 21
52.7979347356
 31
0.0
  0
LINE
  5
131
100
AcDbEntity
  8
2655_11P
390
0
100
AcDbLine
 10
38.7795971288
 20
108.7979347356
 30
0.0
 11
38.7795971288
 21
83.7979347356
 31
0.0
  0
LINE
  5
132
100
AcDbEntity
  8
2655_11P
390
0
  6
DIVIDE
100
AcDbLine
 10
26.7795971288
 20
114.7979347356
 30
0.0
 11
56.7795971288
 21
114.7979347356
 31
0.0
  0
LINE
  5
133
100
AcDbEntity
  8
2655_11P
390
0
  6
DASHED
100
AcDbLine
 10
32.1295971288
 20
71.2979347356
 30
0.0
 11
56.7795971288
 21
52.7979347356
 31
0.0
  0
LINE
  5
134
100
AcDbEntity
  8
2655_11P
390
0
100
AcDbLine
 10
54.2795971288
 20
103.7979347356
 30
0.0
 11
54.2795971288
 21
89.7979347356
 31
0.0
  0
CIRCLE
  5
135
100
AcDbEntity
  8
2655_11P
390
0
  6
PHANTOM
100
AcDbCircle
 10
26.7795971288
 20
52.7979347356
 30
0.0
 40
1.0
  0
CIRCLE
  5
136
100
AcDbEntity
  8
2655_11P
390
0
  6
PHANTOM
100
AcDbCircle
 10
26.7795971288
 20
114.7979347356
 30
0.0
 40
0.5
  0
LINE
  5
137
100
AcDbEntity
  8
2655_2P
390
0
  6
DIVIDE
100
AcDbLine
 10
197.2680946468
 20
178.791844791
 30
0.0
 11
212.2680946468
 21
178.791844791
 31
0.0
  0
LINE
  5
138
100
AcDbEntity
  8
2655_2P
390
0
  6
DIVIDE
100
AcDbLine
 10
197.2680946468
 20
101.791844791
 30
0.0
 11
212.2680946468
 21
101.791844791
 31
0.0
  0
LINE
  5
139
100
AcDbEntity
  8
2655_2P
390
0
100
AcDbLine
 10
200.1180946468
 20
169.301844791
 30
0.0
 11
200.1180946468
 21
145.301844791
 31
0.0
  0
LINE
  5
13A
100
AcDbEntity
  8
2655_2P
390
0
100
AcDbLine
 10
201.4180946468
 20
169.301844791
 30
0.0
 11
201.4180946468
 21
145.301844791
 31
0.0
  0
LINE
  5
13B
100
AcDbEntity
  8
2655_2P
390
0
100
AcDbLine
 10
205.1180946468
 20
145.431844791
 30
0.0
 11
205.1180946468
 21
125.431844791
 31
0.0
  0
LINE
  5
13C
100
AcDbEntity
  8
2655_2P
390
0
100
AcDbLine
 10
206.4180946468
 20
145.431844791
 30
0.0
 11
206.4180946468
 21
125.431844791
 31
0.0
  0
ARC
  5
13D
100
AcDbEntity
  8
2655_2P
390
0
100
AcDbCircle
 10
205.7680946468
 20
145.431844791
 30
0.0
 40
0.65
100
AcDbArc
 50
0.0
 51
180.0
  0
ARC
  5
13E
100
AcDbEntity
  8
2655_2P
390
0
100
AcDbCircle
 10
205.7680946468
 20
125.431844791
 30
0.0
 40
0.65
100
AcDbArc
 50
180.0
 51
360.0
  0
ARC
  5
13F
100
AcDbEntity
  8
2655_2P
390
0
100
AcDbCircle
 10
200.7680946468
 20
145.301844791
 30
0.0
 40
0.65
100
AcDbArc
 50
180.0
 51
360.0
  0
ARC
  5
140
100
AcDbEntity
  8
2655_2P
390
0
100
AcDbCircle
 10
200.7680946468
 20
169.301844791
 30
0.0
 40
0.65
100
AcDbArc
 50
0.0
 51
180.0
  0
LINE
  5
141
100
AcDbEntity
  8
2655_2P
390
0
  6
DASHED
100
AcDbLine
 10
200.7680946468
 20
174.791844791
 30
0.0
 11
200.1180946468
 21
169.301844791
 31
0.0
  0
LINE
  5
142
100
AcDbEntity
  8
2655_2P
390
0
  6
DASHED
100
AcDbLine
 10
200.1180946468
 20
169.301844791
 30
0.0
 11
205.1180946468
 21
145.431844791
 31
0.0
  0
LINE
  5
143
100
AcDbEntity
  8
2655_2P
390
0
  6
DASHED
100
AcDbLine
 10
205.1180946468
 20
145.431844791
 30
0.0
 11
200.7680946468
 21
135.7897091672
 31
0.0
  0
LINE
  5
144
100
AcDbEntity
  8
2655_2P
390
0
  6
DASHED
100
AcDbLine
 10
200.7680946468
 20
135.7897091672
 30
0.0
 11
200.7680946468
 21
105.791844791
 31
0.0
  0
CIRCLE
  5
145
100
AcDbEntity
  8
2655_2P
390
0
  6
PHANTOM
100
AcDbCircle
 10
197.2680946468
 20
178.791844791
 30
0.0
 40
0.5
  0
CIRCLE
  5
146
100
AcDbEntity
  8
2655_2P
390
0
  6
PHANTOM
100
AcDbCircle
 10
197.2680946468
 20
101.791844791
 30
0.0
 40
1.0
  0
MTEXT
  5
147
100
AcDbEntity
  8
2655_2P
390
0
100
AcDbMText
 10
186.8835819646
 20
184.3151515215
 30
0.0
 40
2.0
 41
0.0
 71
         1
 72
         1
  1
\W1.135100;M15x2 F150\PT2 O2 S4 I1,2\PB-0,3     D1,2
  7
Arial
 73
         1
 44
0.66
  0
TEXT
  5
148
100
AcDbEntity
  8
2655_2P
390
0
  6
DASHED
100
AcDbText
 10
203.9431342657
 20
140.8123327972
 30
0.0
 40
1.5
  1
N1
 41
0.8648415648
  7
Arial
 11
203.9431342657
 21
142.3123327972
 31
0.0
100
AcDbText
 73
         3
  0
TEXT
  5
149
100
AcDbEntity
  8
2655_2P
390
0
  6
DASHED
100
AcDbText
 10
198.8758118682
 20
159.1680931659
 30
0.0
 40
1.5
  1
N1
 41
0.8648415648
  7
Arial
 11
198.8758118682
 21
160.6680931659
 31
0.0
100
AcDbText
 73
         3
  0
ARC
  5
14A
100
AcDbEntity
  8
2655___ W-_ GSP-_ SIGNAL-ANTRIEB
390
0
  6
DASHDOT
100
AcDbCircle
 10
47.279912903
 20
157.9913670786
 30
0.0
 40
31.18513984
100
AcDbArc
 50
131.099943452
 51
228.900056548
  0
ARC
  5
14B
100
AcDbEntity
  8
2655___ W-_ GSP-_ SIGNAL-ANTRIEB
390
0
  6
DASHDOT
100
AcDbCircle
 10
58.3963707734
 20
83.7979347356
 30
0.0
 40
44.2788931173
100
AcDbArc
 50
135.5643437355
 51
224.4356562645
  0
ARC
  5
14C
100
AcDbEntity
  8
2655___ W-_ GSP-_ SIGNAL-ANTRIEB
390
0
  6
DASHDOT
100
AcDbCircle
 10
251.3336087604
 20
140.291844791
 30
0.0
 40
66.3726586508
100
AcDbArc
 50
144.5453689783
 51
215.4546310217
  0
MTEXT
  5
14D
100
AcDbEntity
  8
2655___ W-_ GSP-_ SIGNAL-ANTRIEB
390
0
100
AcDbMText
 10
184.8066758803
 20
140.8063432264
 30
0.0
 40
2.0
 41
0.0
 71
         5
 72
         1
  1
\W0.810845;>2655.2P\PM15x2\PT2 O2
  7
Arial
 73
         1
 44
0.66
  0
MTEXT
  5
14E
100
AcDbEntity
  8
2655___ W-_ GSP-_ SIGNAL-ANTRIEB
390
0
100
AcDbMText
 10
13.9632034268
 20
85.3124331711
 30
0.0
 40
2.0
 41
0.0
 71
         5
 72
         1
  1
\W0.810848;>2655.11P\PM15x30x15\PT2 O2
  7
Arial
 73
         1
 44
0.66
  0
MTEXT
  5
14F
100
AcDbEntity
  8
2655___ W-_ GSP-_ SIGNAL-ANTRIEB
390
0
100
AcDbMText
 10
15.9404988336
 20
159.505865514
 30
0.0
 40
2.0
 41
0.0
 71
         5
 72
         1
  1
\W0.810845;>2655.1P\PM15x30x15\PT2 O2
  7
Arial
 73
         1
 44
0.66
  0
TEXT
  5
150
100
AcDbEntity
  8
BESCHRIFTUNG
390
0
100
AcDbText
 10
215.3145333333
 20
29.3230888889
 30
0.0
 40
3.3
  1
2025-11-17
 41
1.1302028412
  7
Arial
 11
215.3145333333
 21
32.6230888889
 31
0.0
100
AcDbText
 73
         3
  0
TEXT
  5
151
100
AcDbEntity
  8
BESCHRIFTUNG
390
0
100
AcDbText
 10
215.3145333333
 20
6.9230888889
 30
0.0
 40
3.3
  1
2655 P.1h W-, Gsp-, Signal-Antrieb
 41
0.9828143746
  7
Arial
 11
215.3145333333
 21
10.2230888889
 31
0.0
100
AcDbText
 73
         3
  0
CIRCLE
  5
152
100
AcDbEntity
  8
2655_5 STELLHEBEL
390
0
100
AcDbCircle
 10
100.4436865936
 20
116.7194717449
 30
0.0
 40
0.5
  0
CIRCLE
  5
153
100
AcDbEntity
  8
2655_6P
390
0
100
AcDbCircle
 10
208.6274338639
 20
61.2746113702
 30
0.0
 40
1.0
  0
CIRCLE
  5
154
100
AcDbEntity
  8
2655_5R
390
0
100
AcDbCircle
 10
100.2970891971
 20
125.1965991827
 30
0.0
 40
1.25
  0
ARC
  5
155
100
AcDbEntity
  8
2655_5 STELLHEBEL
390
0
100
AcDbCircle
 10
100.2970891971
 20
125.1965991827
 30
0.0
 40
3.0020279488
100
AcDbArc
 50
2.9786718388
 51
180.0
  0
LINE
  5
156
100
AcDbEntity
  8
2655_6 STELLVERSTELLUNG
390
0
 62
       230
100
AcDbLine
 10
212.6274338639
 20
64.2746113702
 30
0.0
 11
212.6274338639
 21
51.7746113702
 31
0.0
  0
LINE
  5
157
100
AcDbEntity
  8
2655_6 STELLVERSTELLUNG
390
0
 62
       230
100
AcDbLine
 10
211.6274338639
 20
58.2746113702
 30
0.0
 11
211.6274338639
 21
51.7746113702
 31
0.0
  0
LINE
  5
158
100
AcDbEntity
  8
2655_6 STELLVERSTELLUNG
390
0
 62
       230
100
AcDbLine
 10
207.6274338639
 20
58.2746113702
 30
0.0
 11
211.6274338639
 21
58.2746113702
 31
0.0
  0
LINE
  5
159
100
AcDbEntity
  8
2655_5 STELLHEBEL
390
0
100
AcDbLine
 10
112.2950612483
 20
117.3287425704
 30
0.0
 11
112.2950612483
 21
107.2194717449
 31
0.0
  0
LINE
  5
15A
100
AcDbEntity
  8
2655_5 STELLHEBEL
390
0
100
AcDbLine
 10
95.2950612483
 20
119.7194717449
 30
0.0
 11
88.2950612483
 21
119.7194717449
 31
0.0
  0
LINE
  5
15B
100
AcDbEntity
  8
2655_6 STELLVERSTELLUNG
390
0
 62
       230
100
AcDbLine
 10
212.6274338639
 20
51.7746113702
 30
0.0
 11
211.6274338639
 21
51.7746113702
 31
0.0
  0
LINE
  5
15C
100
AcDbEntity
  8
2655_6 STELLVERSTELLUNG
390
0
  6
DASHED
 62
       230
100
AcDbLine
 10
208.6274338639
 20
60.2746113702
 30
0.0
 11
206.6274338639
 21
60.2746113702
 31
0.0
  0
LINE
  5
15D
100
AcDbEntity
  8
2655_6 STELLVERSTELLUNG
390
0
  6
DASHED
 62
       230
100
AcDbLine
 10
208.6274338639
 20
62.2746113702
 30
0.0
 11
206.6274338639
 21
62.2746113702
 31
0.0
  0
LINE
  5
15E
100
AcDbEntity
  8
2655_6 STELLVERSTELLUNG
390
0
 62
       230
100
AcDbLine
 10
207.6274338639
 20
58.2746113702
 30
0.0
 11
207.6274338639
 21
51.7746113702
 31
0.0
  0
LINE
  5
15F
100
AcDbEntity
  8
2655_6 STELLVERSTELLUNG
390
0
 62
       230
100
AcDbLine
 10
207.6274338639
 20
51.7746113702
 30
0.0
 11
206.6274338639
 21
51.7746113702
 31
0.0
  0
LINE
  5
160
100
AcDbEntity
  8
2655_6 STELLVERSTELLUNG
390
0
 62
       230
100
AcDbLine
 10
206.6274338639
 20
64.2746113702
 30
0.0
 11
206.6274338639
 21
51.7746113702
 31
0.0
  0
LINE
  5
161
100
AcDbEntity
  8
2655_6 STELLVERSTELLUNG
390
0
 62
       230
100
AcDbLine
 10
212.6274338639
 20
64.2746113702
 30
0.0
 11
206.6274338639
 21
64.2746113702
 31
0.0
  0
LINE
  5
162
100
AcDbEntity
  8
2655_5 STELLHEBEL
390
0
100
AcDbLine
 10
88.2950612483
 20
107.2194717449
 30
0.0
 11
112.2950612483
 21
107.2194717449
 31
0.0
  0
LINE
  5
163
100
AcDbEntity
  8
2655_5 STELLHEBEL
390
0
100
AcDbLine
 10
112.2950612483
 20
117.3287425704
 30
0.0
 11
103.2950612483
 21
122.2524241345
 31
0.0
  0
LINE
  5
164
100
AcDbEntity
  8
2655_5 STELLHEBEL
390
0
100
AcDbLine
 10
97.2950612483
 20
125.1965991827
 30
0.0
 11
97.2950612483
 21
107.2194717449
 31
0.0
  0
LINE
  5
165
100
AcDbEntity
  8
2655_5 STELLHEBEL
390
0
100
AcDbLine
 10
103.2950612483
 20
125.3525972119
 30
0.0
 11
103.2950612483
 21
122.2524241345
 31
0.0
  0
LINE
  5
166
100
AcDbEntity
  8
2655_1 RAHMEN
390
0
100
AcDbLine
 10
37.7795971288
 20
109.7979347356
 30
0.0
 11
37.7795971288
 21
82.7979347356
 31
0.0
  0
LINE
  5
167
100
AcDbEntity
  8
2655_1 RAHMEN
390
0
100
AcDbLine
 10
37.7795971288
 20
149.4913670786
 30
0.0
 11
52.7795971288
 21
149.4913670786
 31
0.0
  0
LINE
  5
168
100
AcDbEntity
  8
2655_1 RAHMEN
390
0
100
AcDbLine
 10
37.7795971288
 20
176.4913670786
 30
0.0
 11
37.7795971288
 21
149.4913670786
 31
0.0
  0
LINE
  5
169
100
AcDbEntity
  8
2655_1 RAHMEN
390
0
100
AcDbLine
 10
52.7795971288
 20
176.4913670786
 30
0.0
 11
37.7795971288
 21
176.4913670786
 31
0.0
  0
LINE
  5
16A
100
AcDbEntity
  8
2655_1 RAHMEN
390
0
100
AcDbLine
 10
52.7795971288
 20
171.4913670786
 30
0.0
 11
54.7795971288
 21
171.4913670786
 31
0.0
  0
LINE
  5
16B
100
AcDbEntity
  8
2655_1 RAHMEN
390
0
100
AcDbLine
 10
52.7795971288
 20
155.4913670786
 30
0.0
 11
54.7795971288
 21
155.4913670786
 31
0.0
  0
LINE
  5
16C
100
AcDbEntity
  8
2655_1 RAHMEN
390
0
100
AcDbLine
 10
52.7795971288
 20
176.4913670786
 30
0.0
 11
52.7795971288
 21
171.4913670786
 31
0.0
  0
LINE
  5
16D
100
AcDbEntity
  8
2655_1 RAHMEN
390
0
100
AcDbLine
 10
52.7795971288
 20
155.4913670786
 30
0.0
 11
52.7795971288
 21
149.4913670786
 31
0.0
  0
LINE
  5
16E
100
AcDbEntity
  8
2655_1 RAHMEN
390
0
100
AcDbLine
 10
54.7795971288
 20
171.4913670786
 30
0.0
 11
54.7795971288
 21
155.4913670786
 31
0.0
  0
LINE
  5
16F
100
AcDbEntity
  8
2655_1 RAHMEN
390
0
100
AcDbLine
 10
54.7795971288
 20
104.7979347356
 30
0.0
 11
54.7795971288
 21
88.7979347356
 31
0.0
  0
LINE
  5
170
100
AcDbEntity
  8
2655_2 SCHIEBER
390
0
100
AcDbLine
 10
207.4180946468
 20
145.431844791
 30
0.0
 11
207.4180946468
 21
125.431844791
 31
0.0
  0
LINE
  5
171
100
AcDbEntity
  8
2655_2 SCHIEBER
390
0
100
AcDbLine
 10
202.4180946468
 20
169.301844791
 30
0.0
 11
202.4180946468
 21
145.301844791
 31
0.0
  0
LINE
  5
172
100
AcDbEntity
  8
2655_2 SCHIEBER
390
0
100
AcDbLine
 10
199.1180946468
 20
169.301844791
 30
0.0
 11
199.1180946468
 21
145.301844791
 31
0.0
  0
LINE
  5
173
100
AcDbEntity
  8
2655_2 SCHIEBER
390
0
  6
DASHED
100
AcDbLine
 10
204.1180946468
 20
145.431844791
 30
0.0
 11
204.1180946468
 21
125.431844791
 31
0.0
  0
LINE
  5
174
100
AcDbEntity
  8
2655_2 SCHIEBER
390
0
  6
DASHED
100
AcDbLine
 10
207.4180946468
 20
145.431844791
 30
0.0
 11
207.4180946468
 21
125.431844791
 31
0.0
  0
LINE
  5
175
100
AcDbEntity
  8
2655_2 SCHIEBER
390
0
100
AcDbLine
 10
204.1180946468
 20
145.431844791
 30
0.0
 11
204.1180946468
 21
125.431844791
 31
0.0
  0
ARC
  5
176
100
AcDbEntity
  8
2655_2 SCHIEBER
390
0
100
AcDbCircle
 10
200.7680946468
 20
169.301844791
 30
0.0
 40
1.65
100
AcDbArc
 50
0.0
 51
180.0
  0
ARC
  5
177
100
AcDbEntity
  8
2655_2 SCHIEBER
390
0
100
AcDbCircle
 10
200.7680946468
 20
145.301844791
 30
0.0
 40
1.65
100
AcDbArc
 50
180.0
 51
360.0
  0
ARC
  5
178
100
AcDbEntity
  8
2655_2 SCHIEBER
390
0
100
AcDbCircle
 10
205.7680946468
 20
125.431844791
 30
0.0
 40
1.65
100
AcDbArc
 50
180.0
 51
360.0
  0
ARC
  5
179
100
AcDbEntity
  8
2655_2 SCHIEBER
390
0
100
AcDbCircle
 10
205.7680946468
 20
145.431844791
 30
0.0
 40
1.65
100
AcDbArc
 50
0.0
 51
180.0
  0
LINE
  5
17A
100
AcDbEntity
  8
2655_5 STELLHEBEL
390
0
100
AcDbLine
 10
88.2950612483
 20
119.7194717449
 30
0.0
 11
88.2950612483
 21
107.2194717449
 31
0.0
  0
CIRCLE
  5
17B
100
AcDbEntity
  8
2655_5L
390
0
100
AcDbCircle
 10
92.2950612483
 20
110.2194717449
 30
0.0
 40
1.25
  0
LINE
  5
17C
100
AcDbEntity
  8
MITTELLINIEN
390
0
100
AcDbLine
 10
82.2950612483
 20
102.2194717449
 30
0.0
 11
82.2950612483
 21
134.2194717449
 31
0.0
  0
CIRCLE
  5
17D
100
AcDbEntity
  8
2655_5R
390
0
  6
PHANTOM
100
AcDbCircle
 10
97.2950612483
 20
106.2194717449
 30
0.0
 40
1.0
  0
CIRCLE
  5
17E
100
AcDbEntity
  8
2655_5L
390
0
  6
PHANTOM
100
AcDbCircle
 10
82.2950612483
 20
106.2194717442
 30
0.0
 40
1.0
  0
MTEXT
  5
17F
100
AcDbEntity
  8
2655_5L
390
0
100
AcDbMText
 10
74.2999579369
 20
134.9221421391
 30
0.0
 40
2.0
 41
0.0
 71
         1
 72
         1
  1
\W0.810867;M15x15x2 F150\PT2 O2 S4 I1,2\PB-0,3     D1,5
  7
Arial
 73
         1
 44
0.66
  0
MTEXT
  5
180
100
AcDbEntity
  8
2655_5R
390
0
100
AcDbMText
 10
91.3671677281
 20
134.9221421391
 30
0.0
 40
2.0
 41
0.0
 71
         1
 72
         1
  1
\W0.810867;M15x15x2 F150\PT2 O2 S4 I1,2\PB-0,3     D1,5
  7
Arial
 73
         1
 44
0.66
  0
MTEXT
  5
181
100
AcDbEntity
  8
2655___ W-_ GSP-_ SIGNAL-ANTRIEB
390
0
100
AcDbMText
 10
76.7393124981
 20
117.4839701803
 30
0.0
 40
2.0
 41
0.0
 71
         5
 72
         1
  1
\W0.810845;>2655.5L\PM15x15x2\PT2 O2
  7
Arial
 73
         1
 44
0.66
  0
CIRCLE
  5
182
100
AcDbEntity
  8
2655_5L
390
0
  6
PHANTOM
100
AcDbCircle
 10
82.2950612483
 20
129.2194717449
 30
0.0
 40
0.5
  0
CIRCLE
  5
183
100
AcDbEntity
  8
2655_5R
390
0
  6
PHANTOM
100
AcDbCircle
 10
97.2950612483
 20
129.2194717441
 30
0.0
 40
0.5
  0
ARC
  5
184
100
AcDbEntity
  8
2655___ W-_ GSP-_ SIGNAL-ANTRIEB
390
0
  6
DASHDOT
100
AcDbCircle
 10
94.5904162363
 20
117.7194717445
 30
0.0
 40
16.8352533182
100
AcDbArc
 50
136.9143872695
 51
223.0856127305
  0
LINE
  5
185
100
AcDbEntity
  8
2655_5L
390
0
100
AcDbLine
 10
87.2950612483
 20
120.7194717449
 30
0.0
 11
87.2950612483
 21
106.2194717449
 31
0.0
  0
LINE
  5
186
100
AcDbEntity
  8
2655_5L
390
0
100
AcDbLine
 10
94.2950612483
 20
120.7194717449
 30
0.0
 11
87.2950612483
 21
120.7194717449
 31
0.0
  0
LINE
  5
187
100
AcDbEntity
  8
2655_5L
390
0
  6
DIVIDE
100
AcDbLine
 10
82.2950612483
 20
129.2194717449
 30
0.0
 11
94.2950612483
 21
129.2194717442
 31
0.0
  0
LINE
  5
188
100
AcDbEntity
  8
2655_5 STELLHEBEL
390
0
100
AcDbLine
 10
95.2950612483
 20
128.7194717441
 30
0.0
 11
95.2950612483
 21
119.7194717449
 31
0.0
  0
LINE
  5
189
100
AcDbEntity
  8
2655_5L
390
0
100
AcDbLine
 10
94.2950612483
 20
129.2194717442
 30
0.0
 11
94.2950612483
 21
120.7194717449
 31
0.0
  0
ARC
  5
18A
100
AcDbEntity
  8
2655_5R
390
0
100
AcDbCircle
 10
100.2970891971
 20
125.1965991827
 30
0.0
 40
4.0020279488
100
AcDbArc
 50
357.4202492744
 51
540.0
  0
LINE
  5
18B
100
AcDbEntity
  8
2655_5R
390
0
100
AcDbLine
 10
104.2950612483
 20
125.0164681744
 30
0.0
 11
104.2950612483
 21
122.8452132452
 31
0.0
  0
LINE
  5
18C
100
AcDbEntity
  8
2655_5R
390
0
  6
DASHED
100
AcDbLine
 10
113.2950612483
 20
117.9215316811
 30
0.0
 11
113.2950612483
 21
106.2194717449
 31
0.0
  0
LINE
  5
18D
100
AcDbEntity
  8
2655_5R
390
0
  6
DIVIDE
100
AcDbLine
 10
113.2950612483
 20
117.9215316811
 30
0.0
 11
104.2950612483
 21
122.8452132452
 31
0.0
  0
CIRCLE
  5
18E
100
AcDbEntity
  8
2655_5R
390
0
  6
DIVIDE
100
AcDbCircle
 10
100.4436865936
 20
116.7194717449
 30
0.0
 40
1.0
  0
LINE
  5
18F
100
AcDbEntity
  8
2655_5L
390
0
  6
DASHED
100
AcDbLine
 10
97.2950612483
 20
106.2194717449
 30
0.0
 11
92.2950612483
 21
110.2194717449
 31
0.0
  0
LINE
  5
190
100
AcDbEntity
  8
2655_5L
390
0
  6
DASHED
100
AcDbLine
 10
92.2950612483
 20
116.7194717449
 30
0.0
 11
82.2950612483
 21
106.2194717442
 31
0.0
  0
LINE
  5
191
100
AcDbEntity
  8
2655_5R
390
0
  6
DASHED
100
AcDbLine
 10
100.4436865936
 20
116.7194717449
 30
0.0
 11
100.2970891971
 21
125.1965991827
 31
0.0
  0
LINE
  5
192
100
AcDbEntity
  8
2655_5R
390
0
  6
DASHED
100
AcDbLine
 10
97.2950612483
 20
129.2194717441
 30
0.0
 11
100.2970891971
 21
125.1965991827
 31
0.0
  0
LINE
  5
193
100
AcDbEntity
  8
2655_5R
390
0
  6
DASHED
100
AcDbLine
 10
100.4436865936
 20
116.7194717449
 30
0.0
 11
96.2950612483
 21
125.1965991827
 31
0.0
  0
LINE
  5
194
100
AcDbEntity
  8
2655_5L
390
0
100
AcDbLine
 10
87.2950612483
 20
106.2194717449
 30
0.0
 11
97.2950612483
 21
106.2194717449
 31
0.0
  0
LINE
  5
195
100
AcDbEntity
  8
2655_5R
390
0
  6
DIVIDE
100
AcDbLine
 10
97.2950612483
 20
106.2194717449
 30
0.0
 11
113.2950612483
 21
106.2194717449
 31
0.0
  0
MTEXT
  5
196
100
AcDbEntity
  8
2655_6P
390
0
100
AcDbMText
 10
204.8367560354
 20
66.8977243126
 30
0.0
 40
2.0
 41
0.0
 71
         5
 72
         1
  1
\W0.810851;M10+x5 F150\PT5 O2 S6 I1,2\PB-0,5   D3
  7
Arial
 73
         1
 44
0.66
  0
CIRCLE
  5
197
100
AcDbEntity
  8
2655_6P
390
0
  6
PHANTOM
100
AcDbCircle
 10
205.6274338639
 20
65.2746113702
 30
0.0
 40
0.5
  0
CIRCLE
  5
198
100
AcDbEntity
  8
2655_6P
390
0
  6
PHANTOM
100
AcDbCircle
 10
205.6274338639
 20
50.7746113702
 30
0.0
 40
1.0
  0
LINE
  5
199
100
AcDbEntity
  8
2655_6P
390
0
  6
DIVIDE
100
AcDbLine
 10
213.4323190083
 20
65.2746113702
 30
0.0
 11
205.6274338639
 21
65.2746113702
 31
0.0
  0
LINE
  5
19A
100
AcDbEntity
  8
2655_6P
390
0
  6
DIVIDE
100
AcDbLine
 10
208.6274338639
 20
50.7746113702
 30
0.0
 11
205.6274338639
 21
50.7746113702
 31
0.0
  0
LINE
  5
19B
100
AcDbEntity
  8
2655_6P
390
0
100
AcDbLine
 10
208.6274338639
 20
57.2746113702
 30
0.0
 11
208.6274338639
 21
50.7746113702
 31
0.0
  0
LINE
  5
19C
100
AcDbEntity
  8
2655_6P
390
0
100
AcDbLine
 10
208.6274338639
 20
57.2746113702
 30
0.0
 11
210.6274338639
 21
57.2746113702
 31
0.0
  0
LINE
  5
19D
100
AcDbEntity
  8
2655_6P
390
0
100
AcDbLine
 10
210.6274338639
 20
57.2746113702
 30
0.0
 11
210.6274338639
 21
50.7746113702
 31
0.0
  0
LINE
  5
19E
100
AcDbEntity
  8
2655_6P
390
0
  6
DIVIDE
100
AcDbLine
 10
213.6274338639
 20
50.7746113702
 30
0.0
 11
210.6274338639
 21
50.7746113702
 31
0.0
  0
LINE
  5
19F
100
AcDbEntity
  8
2655_6P
390
0
100
AcDbLine
 10
213.6274338639
 20
64.2746113702
 30
0.0
 11
213.6274338639
 21
50.7746113702
 31
0.0
  0
LINE
  5
1A0
100
AcDbEntity
  8
2655_6P
390
0
  6
DASHED
100
AcDbLine
 10
213.4323190083
 20
65.2746113702
 30
0.0
 11
208.6274338639
 21
61.2746113702
 31
0.0
  0
LINE
  5
1A1
100
AcDbEntity
  8
2655_6P
390
0
  6
DIVIDE
100
AcDbLine
 10
208.6274338639
 20
61.2746113702
 30
0.0
 11
205.4323190083
 21
61.2746113702
 31
0.0
  0
ARC
  5
1A2
100
AcDbEntity
  8
2655_6P
390
0
  6
HIDDEN
100
AcDbCircle
 10
208.902326411
 20
64.4888928813
 30
0.0
 40
4.7299637427
100
AcDbArc
 50
222.8090605812
 51
357.4034410441
  0
LINE
  5
1A3
100
AcDbEntity
  8
2655_8 STELLANSCHLAG
390
0
100
AcDbLine
 10
95.2950612483
 20
107.8501868094
 30
0.0
 11
95.2950612483
 21
102.3501868095
 31
0.0
  0
TEXT
  5
1A4
100
AcDbEntity
  8
2655_6P
390
0
  6
DASHED
100
AcDbText
 10
205.4323190083
 20
60.5132164341
 30
0.0
 40
1.5
  1
D4
 41
1.1350274158
  7
Arial
 11
205.4323190083
 21
62.0132164341
 31
0.0
100
AcDbText
 73
         3
  0
MTEXT
  5
1A5
100
AcDbEntity
  8
BESCHRIFTUNG
390
0
  6
DASHED
100
AcDbMText
 10
12.0474462465
 20
35.658737815
 30
0.0
 40
3.0
 41
0.0
 71
         1
 72
         1
  1
\W1.000000;\P\PW quer kurz\PW längs kurz\PW quer lang\PW längs lang\PGs, Sig quer\PGs, Sig längs
  7
Arial
 73
         1
 44
0.72
  0
MTEXT
  5
1A6
100
AcDbEntity
  8
BESCHRIFTUNG
390
0
  6
DASHED
100
AcDbMText
 10
84.9878530743
 20
35.658737815
 30
0.0
 40
3.0
 41
0.0
 71
         3
 72
         1
  1
\W0.918886;15x30x15\P\P.1\P.1\P.11\P.11\P.1\P.1\P
  7
Arial
 73
         1
 44
0.72
  0
MTEXT
  5
1A7
100
AcDbEntity
  8
BESCHRIFTUNG
390
0
  6
DASHED
100
AcDbMText
 10
65.9878530743
 20
35.658737815
 30
0.0
 40
3.0
 41
0.0
 71
         3
 72
         1
  1
\W0.918886;15x2\P\P.2\P.2\P.2\P.2\P.2\P.2
  7
Arial
 73
         1
 44
0.72
  0
MTEXT
  5
1A8
100
AcDbEntity
  8
BESCHRIFTUNG
390
0
  6
DASHED
100
AcDbMText
 10
54.9878530743
 20
35.658737815
 30
0.0
 40
3.0
 41
0.0
 71
         3
 72
         1
  1
\W0.918893;15x15x2\P\P.3+.5\P.13+.5(+.9)\P.3+.5\P.13+.5(+.9)\P.3+.78\P.13+.78\P
  7
Arial
 73
         1
 44
0.72
  0
MTEXT
  5
1A9
100
AcDbEntity
  8
BESCHRIFTUNG
390
0
  6
DASHED
100
AcDbMText
 10
93.9878530743
 20
35.658737815
 30
0.0
 40
3.0
 41
0.0
 71
         3
 72
         1
  1
\W0.918886;10x5\P\P.6\P.6\P.6\P.6\P.6\P.6
  7
Arial
 73
         1
 44
0.72
  0
MTEXT
  5
1AA
100
AcDbEntity
  8
2655___ W-_ GSP-_ SIGNAL-ANTRIEB
390
0
100
AcDbMText
 10
204.0716851137
 20
57.5391098056
 30
0.0
 40
2.0
 41
0.0
 71
         5
 72
         1
  1
\W0.810845;>2655.6P\PM10+x5\PT5 O2
  7
Arial
 73
         1
 44
0.66
  0
ARC
  5
1AB
100
AcDbEntity
  8
2655___ W-_ GSP-_ SIGNAL-ANTRIEB
390
0
  6
DASHDOT
100
AcDbCircle
 10
213.3788533127
 20
58.0246113702
 30
0.0
 40
10.6135292655
100
AcDbArc
 50
136.9143872695
 51
223.0856127305
  0
ARC
  5
1AC
100
AcDbEntity
  8
2655___ W-_ GSP-_ SIGNAL-ANTRIEB
390
0
  6
DASHDOT
100
AcDbCircle
 10
-57.720087097
 20
180.9913670786
 30
0.0
 40
31.18513984
100
AcDbArc
 50
131.099943452
 51
228.900056548
  0
ARC
  5
1AD
100
AcDbEntity
  8
2655___ W-_ GSP-_ SIGNAL-ANTRIEB
390
0
  6
DASHDOT
100
AcDbCircle
 10
-46.6036292266
 20
106.7979347356
 30
0.0
 40
44.2788931173
100
AcDbArc
 50
135.5643437355
 51
224.4356562645
  0
ARC
  5
1AE
100
AcDbEntity
  8
2655___ W-_ GSP-_ SIGNAL-ANTRIEB
390
0
  6
DASHDOT
100
AcDbCircle
 10
-68.4193659361
 20
61.4747538031
 30
0.0
 40
10.6135292655
100
AcDbArc
 50
136.9143872695
 51
223.0856127305
  0
ARC
  5
1AF
100
AcDbEntity
  8
2655___ W-_ GSP-_ SIGNAL-ANTRIEB
390
0
  6
DASHDOT
100
AcDbCircle
 10
10.1315706721
 20
168.2949932172
 30
0.0
 40
66.3726586508
100
AcDbArc
 50
144.5453689783
 51
215.4546310217
  0
MTEXT
  5
1B0
100
AcDbEntity
  8
2655___ W-_ GSP-_ SIGNAL-ANTRIEB
390
0
100
AcDbMText
 10
-56.395362208
 20
168.8094916526
 30
0.0
 40
2.0
 41
0.0
 71
         5
 72
         1
  1
\W0.810845;>2655.2P\PM15x2\PT2 O2
  7
Arial
 73
         1
 44
0.66
  0
MTEXT
  5
1B1
100
AcDbEntity
  8
2655___ W-_ GSP-_ SIGNAL-ANTRIEB
390
0
100
AcDbMText
 10
-91.0367965732
 20
108.3124331711
 30
0.0
 40
2.0
 41
0.0
 71
         5
 72
         1
  1
\W0.810848;>2655.11P\PM15x30x15\PT2 O2
  7
Arial
 73
         1
 44
0.66
  0
MTEXT
  5
1B2
100
AcDbEntity
  8
2655___ W-_ GSP-_ SIGNAL-ANTRIEB
390
0
100
AcDbMText
 10
-89.0595011664
 20
182.505865514
 30
0.0
 40
2.0
 41
0.0
 71
         5
 72
         1
  1
\W0.810845;>2655.1P\PM15x30x15\PT2 O2
  7
Arial
 73
         1
 44
0.66
  0
MTEXT
  5
1B3
100
AcDbEntity
  8
2655___ W-_ GSP-_ SIGNAL-ANTRIEB
390
0
100
AcDbMText
 10
-78.7265341351
 20
60.9892522386
 30
0.0
 40
2.0
 41
0.0
 71
         5
 72
         1
  1
\W0.810845;>2655.6P\PM10+x5\PT5 O2
  7
Arial
 73
         1
 44
0.66
  0
INSERT
  5
1B4
100
AcDbEntity
  8
BEMAßUNG
390
0
100
AcDbBlockReference
  2
D405876736
 10
0.0
 20
0.0
 30
0.0
  0
INSERT
  5
1B5
100
AcDbEntity
  8
BEMAßUNG
390
0
100
AcDbBlockReference
  2
D405876480
 10
0.0
 20
0.0
 30
0.0
  0
INSERT
  5
1B6
100
AcDbEntity
  8
BEMAßUNG
390
0
100
AcDbBlockReference
  2
D405876224
 10
0.0
 20
0.0
 30
0.0
  0
CIRCLE
  5
1B7
100
AcDbEntity
  8
2655_2P
390
0
100
AcDbCircle
 10
208.7680946468
 20
105.791844791
 30
0.0
 40
1.25
  0
CIRCLE
  5
1B8
100
AcDbEntity
  8
2655_2P
390
0
100
AcDbCircle
 10
208.7680946468
 20
174.791844791
 30
0.0
 40
1.25
  0
LINE
  5
1B9
100
AcDbEntity
  8
2655_2P
390
0
  6
DASHED
100
AcDbLine
 10
200.7680946468
 20
174.791844791
 30
0.0
 11
208.7680946468
 21
174.791844791
 31
0.0
  0
LINE
  5
1BA
100
AcDbEntity
  8
2655_2P
390
0
  6
DASHED
100
AcDbLine
 10
208.7680946468
 20
174.791844791
 30
0.0
 11
212.2680946468
 21
178.791844791
 31
0.0
  0
LINE
  5
1BB
100
AcDbEntity
  8
2655_2P
390
0
  6
DASHED
100
AcDbLine
 10
200.7680946468
 20
105.791844791
 30
0.0
 11
208.7680946468
 21
105.791844791
 31
0.0
  0
LINE
  5
1BC
100
AcDbEntity
  8
2655_2P
390
0
  6
DASHED
100
AcDbLine
 10
208.7680946468
 20
105.791844791
 30
0.0
 11
212.2680946468
 21
101.791844791
 31
0.0
  0
CIRCLE
  5
1BD
100
AcDbEntity
  8
2655_1P
390
0
100
AcDbCircle
 10
32.1295971288
 20
176.4913670786
 30
0.0
 40
1.25
  0
CIRCLE
  5
1BE
100
AcDbEntity
  8
2655_11P
390
0
100
AcDbCircle
 10
32.1295971288
 20
109.7979347356
 30
0.0
 40
1.25
  0
CIRCLE
  5
1BF
100
AcDbEntity
  8
2655_11P
390
0
100
AcDbCircle
 10
32.1295971288
 20
71.2979347356
 30
0.0
 40
1.25
  0
LINE
  5
1C0
100
AcDbEntity
  8
2655_11P
390
0
  6
DASHED
100
AcDbLine
 10
32.1295971288
 20
109.7979347356
 30
0.0
 11
32.1295971288
 21
71.2979347356
 31
0.0
  0
ARC
  5
1C1
100
AcDbEntity
  8
2655_1P
390
0
  6
DASHED
100
AcDbCircle
 10
41.046572936
 20
158.1486916898
 30
0.0
 40
20.395249397
100
AcDbArc
 50
58.2474892414
 51
115.925905801
  0
INSERT
  5
1C2
100
AcDbEntity
  8
BEMAßUNG
390
0
100
AcDbBlockReference
  2
D405875968
 10
0.0
 20
0.0
 30
0.0
  0
ARC
  5
1C3
100
AcDbEntity
  8
2655___ W-_ GSP-_ SIGNAL-ANTRIEB
390
0
  6
DASHDOT
100
AcDbCircle
 10
-16.2210574969
 20
191.1467074188
 30
0.0
 40
12.1636160272
100
AcDbArc
 50
115.2445938472
 51
244.7554061528
  0
MTEXT
  5
1C4
100
AcDbEntity
  8
2655___ W-_ GSP-_ SIGNAL-ANTRIEB
390
0
100
AcDbMText
 10
-27.9643865423
 20
190.5470717336
 30
0.0
 40
2.0
 41
0.0
 71
         5
 72
         1
  1
\W0.810845;>2655.3L\PM15x15x2\PT2 O2
  7
Arial
 73
         1
 44
0.66
  0
MTEXT
  5
1C5
100
AcDbEntity
  8
2655___ W-_ GSP-_ SIGNAL-ANTRIEB
390
0
100
AcDbMText
 10
-26.9643865423
 20
67.976488497
 30
0.0
 40
2.0
 41
0.0
 71
         5
 72
         1
  1
\W0.810848;>2655.78L\PM15x15x2\PT2 O2
  7
Arial
 73
         1
 44
0.66
  0
MTEXT
  5
1C6
100
AcDbEntity
  8
2655___ W-_ GSP-_ SIGNAL-ANTRIEB
390
0
100
AcDbMText
 10
-26.9643865423
 20
108.42265951
 30
0.0
 40
2.0
 41
0.0
 71
         5
 72
         1
  1
\W0.810845;>2655.5L\PM15x15x2\PT2 O2
  7
Arial
 73
         1
 44
0.66
  0
ARC
  5
1C7
100
AcDbEntity
  8
2655___ W-_ GSP-_ SIGNAL-ANTRIEB
390
0
  6
DASHDOT
100
AcDbCircle
 10
-6.1700126416
 20
65.465279421
 30
0.0
 40
20.8610752491
100
AcDbArc
 50
136.9267574444
 51
223.0979829055
  0
ARC
  5
1C8
100
AcDbEntity
  8
2655___ W-_ GSP-_ SIGNAL-ANTRIEB
390
0
  6
DASHDOT
100
AcDbCircle
 10
-9.113282804
 20
108.6581610742
 30
0.0
 40
16.8352533182
100
AcDbArc
 50
136.9143872695
 51
223.0856127305
  0
MTEXT
  5
1C9
100
AcDbEntity
  8
2655___ W-_ GSP-_ SIGNAL-ANTRIEB
390
0
100
AcDbMText
 10
-59.6716137593
 20
82.3803717765
 30
0.0
 40
2.0
 41
0.0
 71
         5
 72
         1
  1
\W0.810845;>2655.9L\PM15x15x2\PT2 O2
  7
Arial
 73
         1
 44
0.66
  0
ARC
  5
1CA
100
AcDbEntity
  8
2655___ W-_ GSP-_ SIGNAL-ANTRIEB
390
0
  6
DASHDOT
100
AcDbCircle
 10
3.3445714511
 20
84.365873341
 30
0.0
 40
62.0627457514
100
AcDbArc
 50
144.5453689783
 51
215.4546310217
  0
LINE
  5
1CB
100
AcDbEntity
  8
2655_11P
390
0
100
AcDbLine
 10
51.7795971288
 20
108.7979347356
 30
0.0
 11
38.7795971288
 21
108.7979347356
 31
0.0
  0
LINE
  5
1CC
100
AcDbEntity
  8
2655_11P
390
0
100
AcDbLine
 10
51.7795971288
 20
103.7979347356
 30
0.0
 11
54.2795971288
 21
103.7979347356
 31
0.0
  0
LINE
  5
1CD
100
AcDbEntity
  8
2655_11P
390
0
100
AcDbLine
 10
51.7795971288
 20
108.7979347356
 30
0.0
 11
51.7795971288
 21
103.7979347356
 31
0.0
  0
LINE
  5
1CE
100
AcDbEntity
  8
2655_11P
390
0
100
AcDbLine
 10
51.7795971288
 20
89.7979347356
 30
0.0
 11
51.7795971288
 21
83.7979347356
 31
0.0
  0
LINE
  5
1CF
100
AcDbEntity
  8
2655_11P
390
0
100
AcDbLine
 10
38.7795971288
 20
83.7979347356
 30
0.0
 11
51.7795971288
 21
83.7979347356
 31
0.0
  0
LINE
  5
1D0
100
AcDbEntity
  8
2655_11P
390
0
100
AcDbLine
 10
51.7795971288
 20
89.7979347356
 30
0.0
 11
54.2795971288
 21
89.7979347356
 31
0.0
  0
LINE
  5
1D1
100
AcDbEntity
  8
2655_11P
390
0
  6
DASHED
100
AcDbLine
 10
56.7795971288
 20
114.7979347356
 30
0.0
 11
51.7795971288
 21
108.7979347356
 31
0.0
  0
ARC
  5
1D2
100
AcDbEntity
  8
2655_11P
390
0
  6
DASHED
100
AcDbCircle
 10
41.046572936
 20
91.4552593468
 30
0.0
 40
20.395249397
100
AcDbArc
 50
58.2474892414
 51
115.925905801
  0
LINE
  5
1D3
100
AcDbEntity
  8
2655_1 RAHMEN
390
0
100
AcDbLine
 10
37.7795971288
 20
82.7979347356
 30
0.0
 11
52.7795971288
 21
82.7979347356
 31
0.0
  0
LINE
  5
1D4
100
AcDbEntity
  8
2655_1 RAHMEN
390
0
100
AcDbLine
 10
52.7795971288
 20
109.7979347356
 30
0.0
 11
37.7795971288
 21
109.7979347356
 31
0.0
  0
LINE
  5
1D5
100
AcDbEntity
  8
2655_1 RAHMEN
390
0
100
AcDbLine
 10
52.7795971288
 20
104.7979347356
 30
0.0
 11
54.7795971288
 21
104.7979347356
 31
0.0
  0
LINE
  5
1D6
100
AcDbEntity
  8
2655_1 RAHMEN
390
0
100
AcDbLine
 10
52.7795971288
 20
88.7979347356
 30
0.0
 11
54.7795971288
 21
88.7979347356
 31
0.0
  0
LINE
  5
1D7
100
AcDbEntity
  8
2655_1 RAHMEN
390
0
100
AcDbLine
 10
52.7795971288
 20
109.7979347356
 30
0.0
 11
52.7795971288
 21
104.7979347356
 31
0.0
  0
LINE
  5
1D8
100
AcDbEntity
  8
2655_1 RAHMEN
390
0
100
AcDbLine
 10
52.7795971288
 20
88.7979347356
 30
0.0
 11
52.7795971288
 21
82.7979347356
 31
0.0
  0
CIRCLE
  5
1D9
100
AcDbEntity
  8
2655_3 DREHHEBEL
390
0
100
AcDbCircle
 10
95.2950612484
 20
168.9384562914
 30
0.0
 40
0.5
  0
ARC
  5
1DA
100
AcDbEntity
  8
2655_3 DREHHEBEL
390
0
100
AcDbCircle
 10
86.838628306
 20
161.6248565011
 30
0.0
 40
1.5
100
AcDbArc
 50
104.290046219
 51
284.290046219
  0
ARC
  5
1DB
100
AcDbEntity
  8
2655_3 DREHHEBEL
390
0
100
AcDbCircle
 10
92.9842103998
 20
165.0480796329
 30
0.0
 40
1.5
100
AcDbArc
 50
329.2900462187
 51
509.2900462186
  0
ARC
  5
1DC
100
AcDbEntity
  8
2655_3 DREHHEBEL
390
0
100
AcDbCircle
 10
92.9180747687
 20
158.0137166938
 30
0.0
 40
1.5
100
AcDbArc
 50
194.290046219
 51
374.290046219
  0
ARC
  5
1DD
100
AcDbEntity
  8
2655_3 DREHHEBEL
390
0
100
AcDbCircle
 10
95.2950612484
 20
168.9384562914
 30
0.0
 40
14.5
100
AcDbArc
 50
213.1448119997
 51
277.928141766
  0
CIRCLE
  5
1DE
100
AcDbEntity
  8
2655_3 DREHHEBEL
390
0
100
AcDbCircle
 10
94.3040099742
 20
171.7700313605
 30
0.0
 40
0.5
  0
CIRCLE
  5
1DF
100
AcDbEntity
  8
2655_3 DREHHEBEL
390
0
100
AcDbCircle
 10
94.2950612484
 20
174.8545360745
 30
0.0
 40
0.5
  0
CIRCLE
  5
1E0
100
AcDbEntity
  8
2655_3 DREHHEBEL
390
0
100
AcDbCircle
 10
95.2950612484
 20
168.9384562914
 30
0.0
 40
0.5
  0
CIRCLE
  5
1E1
100
AcDbEntity
  8
2655_3 DREHHEBEL
390
0
  6
DASHDOT
100
AcDbCircle
 10
92.8789733002
 20
163.9204274759
 30
0.0
 40
2.0
  0
CIRCLE
  5
1E2
100
AcDbEntity
  8
2655_3 DREHHEBEL
390
0
  6
DASHDOT
100
AcDbCircle
 10
92.8789733002
 20
163.9204274759
 30
0.0
 40
3.0
  0
LINE
  5
1E3
100
AcDbEntity
  8
2655_3 DREHHEBEL
390
0
100
AcDbLine
 10
86.4683823078
 20
163.0784444416
 30
0.0
 11
90.7115796037
 21
164.1592368553
 31
0.0
  0
LINE
  5
1E4
100
AcDbEntity
  8
2655_3 DREHHEBEL
390
0
100
AcDbLine
 10
94.2738557457
 20
164.2820411992
 30
0.0
 11
93.2908702954
 21
162.627159988
 31
0.0
  0
LINE
  5
1E5
100
AcDbEntity
  8
2655_3 DREHHEBEL
390
0
100
AcDbLine
 10
90.8474101643
 20
160.066117263
 30
0.0
 11
91.4644868282
 21
157.6434706955
 31
0.0
  0
LINE
  5
1E6
100
AcDbEntity
  8
2655_3 DREHHEBEL
390
0
100
AcDbLine
 10
87.2088743043
 20
160.1712685606
 30
0.0
 11
89.6315208718
 21
160.7883452244
 31
0.0
  0
LINE
  5
1E7
100
AcDbEntity
  8
2655_3 DREHHEBEL
390
0
100
AcDbLine
 10
82.2950612483
 20
162.326355127
 30
0.0
 11
93.8188035463
 21
177.9384562919
 31
0.0
  0
LINE
  5
1E8
100
AcDbEntity
  8
2655_3 DREHHEBEL
390
0
100
AcDbLine
 10
94.3716627092
 20
158.383962692
 30
0.0
 11
93.2908702954
 21
162.627159988
 31
0.0
  0
LINE
  5
1E9
100
AcDbEntity
  8
2655_3 DREHHEBEL
390
0
100
AcDbLine
 10
90.7115796037
 20
164.1592368553
 30
0.0
 11
91.694565054
 21
165.8141180666
 31
0.0
  0
LINE
  5
1EA
100
AcDbEntity
  8
2655_3 DREHHEBEL
390
0
  6
DASHED
100
AcDbLine
 10
99.2950612483
 20
154.4384562914
 30
0.0
 11
99.2950612484
 21
177.9384562914
 31
0.0
  0
LINE
  5
1EB
100
AcDbEntity
  8
2655_3 DREHHEBEL
390
0
100
AcDbLine
 10
97.2950612483
 20
154.577049675
 30
0.0
 11
97.2950612484
 21
177.9384562913
 31
0.0
  0
LINE
  5
1EC
100
AcDbEntity
  8
2655_3 DREHHEBEL
390
0
100
AcDbLine
 10
83.1543367483
 20
161.0104799667
 30
0.0
 11
82.2950612483
 21
162.326355127
 31
0.0
  0
CIRCLE
  5
1ED
100
AcDbEntity
  8
2655_13L
390
0
  6
PHANTOM
100
AcDbCircle
 10
82.2950612483
 20
178.937115095
 30
0.0
 40
0.5
  0
CIRCLE
  5
1EE
100
AcDbEntity
  8
2655_13R
390
0
  6
PHANTOM
100
AcDbCircle
 10
97.2950612483
 20
178.937115095
 30
0.0
 40
0.5
  0
CIRCLE
  5
1EF
100
AcDbEntity
  8
2655_13R
390
0
  6
PHANTOM
100
AcDbCircle
 10
97.2950612483
 20
152.937115095
 30
0.0
 40
1.0
  0
CIRCLE
  5
1F0
100
AcDbEntity
  8
2655_13L
390
0
  6
PHANTOM
100
AcDbCircle
 10
82.2950612483
 20
152.937115095
 30
0.0
 40
1.0
  0
ARC
  5
1F1
100
AcDbEntity
  8
2655___ W-_ GSP-_ SIGNAL-ANTRIEB
390
0
  6
DASHDOT
100
AcDbCircle
 10
96.1934412133
 20
165.9377856931
 30
0.0
 40
19.0301742123
100
AcDbArc
 50
136.9143872695
 51
223.0856127305
  0
TEXT
  5
1F2
100
AcDbEntity
  8
BESCHRIFTUNG
390
0
100
AcDbText
 10
76.2927883991
 20
189.0488788536
 30
0.0
 40
3.0
  1
2655.13
 41
1.1351393195
  7
Arial
 11
76.2927883991
 21
192.0488788536
 31
0.0
100
AcDbText
 73
         3
  0
MTEXT
  5
1F3
100
AcDbEntity
  8
2655_13L
390
0
100
AcDbMText
 10
74.299957937
 20
184.6397854892
 30
0.0
 40
2.0
 41
0.0
 71
         1
 72
         1
  1
\W0.810867;M15x15x2 F150\PT2 O2 S4 I1,2\PB-0,3     D1,5
  7
Arial
 73
         1
 44
0.66
  0
MTEXT
  5
1F4
100
AcDbEntity
  8
2655_13R
390
0
100
AcDbMText
 10
91.3671677281
 20
184.6397854892
 30
0.0
 40
2.0
 41
0.0
 71
         1
 72
         1
  1
\W0.810867;M15x15x2 F150\PT2 O2 S4 I1,2\PB-0,3     D1,5
  7
Arial
 73
         1
 44
0.66
  0
MTEXT
  5
1F5
100
AcDbEntity
  8
2655___ W-_ GSP-_ SIGNAL-ANTRIEB
390
0
100
AcDbMText
 10
77.0858724124
 20
168.7054440151
 30
0.0
 40
2.0
 41
0.0
 71
         5
 72
         1
  1
\W0.810848;>2655.13L\PM15x15x2\PT2 O2
  7
Arial
 73
         1
 44
0.66
  0
LINE
  5
1F6
100
AcDbEntity
  8
2655_13L
390
0
  6
DIVIDE
100
AcDbLine
 10
93.3130288279
 20
178.9371150949
 30
0.0
 11
82.2950612483
 21
178.937115095
 31
0.0
  0
CIRCLE
  5
1F7
100
AcDbEntity
  8
2655_13R
390
0
100
AcDbCircle
 10
105.2950612483
 20
171.077049675
 30
0.0
 40
1.25
  0
CIRCLE
  5
1F8
100
AcDbEntity
  8
2655_13R
390
0
100
AcDbCircle
 10
106.7950612483
 20
163.8770496751
 30
0.0
 40
1.25
  0
LINE
  5
1F9
100
AcDbEntity
  8
2655_13R
390
0
100
AcDbLine
 10
100.2950612483
 20
168.0770496747
 30
0.0
 11
101.2950612483
 21
168.0770496747
 31
0.0
  0
LINE
  5
1FA
100
AcDbEntity
  8
2655_3 DREHHEBEL
390
0
100
AcDbLine
 10
102.2950612483
 20
171.0770496747
 30
0.0
 11
99.2950612483
 21
171.0770496747
 31
0.0
  0
LINE
  5
1FB
100
AcDbEntity
  8
2655_13R
390
0
100
AcDbLine
 10
101.2950612483
 20
168.0770496747
 30
0.0
 11
101.2950612483
 21
169.5770496747
 31
0.0
  0
LINE
  5
1FC
100
AcDbEntity
  8
2655_13R
390
0
100
AcDbLine
 10
101.2950612483
 20
170.0770496747
 30
0.0
 11
100.2950612483
 21
170.0770496747
 31
0.0
  0
LINE
  5
1FD
100
AcDbEntity
  8
2655_3 DREHHEBEL
390
0
100
AcDbLine
 10
102.2950612483
 20
167.0770496747
 30
0.0
 11
102.2950612483
 21
171.0770496747
 31
0.0
  0
LINE
  5
1FE
100
AcDbEntity
  8
2655_3 DREHHEBEL
390
0
100
AcDbLine
 10
99.2950612483
 20
167.0770496747
 30
0.0
 11
102.2950612483
 21
167.0770496747
 31
0.0
  0
LINE
  5
1FF
100
AcDbEntity
  8
2655_3 DREHHEBEL
390
0
100
AcDbLine
 10
93.8188035463
 20
177.9384562919
 30
0.0
 11
109.2950612483
 21
177.9384562919
 31
0.0
  0
LINE
  5
200
100
AcDbEntity
  8
2655_3 DREHHEBEL
390
0
100
AcDbLine
 10
109.2950612483
 20
177.9384562919
 30
0.0
 11
109.2950612483
 21
154.577049675
 31
0.0
  0
LINE
  5
201
100
AcDbEntity
  8
2655_3 DREHHEBEL
390
0
100
AcDbLine
 10
99.2950612483
 20
171.0770496747
 30
0.0
 11
99.2950612483
 21
167.0770496747
 31
0.0
  0
LINE
  5
202
100
AcDbEntity
  8
2655_13R
390
0
100
AcDbLine
 10
100.2950612483
 20
170.0770496747
 30
0.0
 11
100.2950612483
 21
168.0770496747
 31
0.0
  0
LINE
  5
203
100
AcDbEntity
  8
2655_13R
390
0
  6
DASHED
100
AcDbLine
 10
101.2950612483
 20
169.5770496747
 30
0.0
 11
106.7950612483
 21
163.8770496751
 31
0.0
  0
LINE
  5
204
100
AcDbEntity
  8
2655_3 DREHHEBEL
390
0
100
AcDbLine
 10
109.2950612483
 20
154.577049675
 30
0.0
 11
97.2950612483
 21
154.577049675
 31
0.0
  0
LINE
  5
205
100
AcDbEntity
  8
2655_3 DREHHEBEL
390
0
  6
DASHED
100
AcDbLine
 10
95.2950612483
 20
154.4384562914
 30
0.0
 11
95.2950612484
 21
177.9384562914
 31
0.0
  0
LINE
  5
206
100
AcDbEntity
  8
2655_13L
390
0
100
AcDbLine
 10
81.1897319709
 20
162.5127511959
 30
0.0
 11
93.3130288279
 21
178.9371150949
 31
0.0
  0
ARC
  5
207
100
AcDbEntity
  8
2655_13L
390
0
100
AcDbCircle
 10
95.2950612484
 20
168.9384562914
 30
0.0
 40
15.5
100
AcDbArc
 50
204.4917125838
 51
277.928141766
  0
LINE
  5
208
100
AcDbEntity
  8
2655_13L
390
0
100
AcDbLine
 10
86.9620436388
 20
161.1403271876
 30
0.0
 11
91.2453464742
 21
162.2313349554
 31
0.0
  0
LINE
  5
209
100
AcDbEntity
  8
2655_13L
390
0
100
AcDbLine
 10
86.7152129733
 20
162.1093858146
 30
0.0
 11
91.3598074953
 21
163.2924188376
 31
0.0
  0
ARC
  5
20A
100
AcDbEntity
  8
2655_13L
390
0
100
AcDbCircle
 10
86.838628306
 20
161.6248565011
 30
0.0
 40
0.5
100
AcDbArc
 50
104.290046219
 51
284.290046219
  0
ARC
  5
20B
100
AcDbEntity
  8
2655_13L
390
0
100
AcDbCircle
 10
92.9180747687
 20
158.0137166938
 30
0.0
 40
0.5
100
AcDbArc
 50
194.290046219
 51
374.290046219
  0
LINE
  5
20C
100
AcDbEntity
  8
2655_13L
390
0
100
AcDbLine
 10
91.7744030111
 20
160.4780984262
 30
0.0
 11
92.4335454552
 21
157.890301361
 31
0.0
  0
LINE
  5
20D
100
AcDbEntity
  8
2655_13L
390
0
100
AcDbLine
 10
93.4026040822
 20
158.1371320265
 30
0.0
 11
92.2195710592
 21
162.7817265485
 31
0.0
  0
ARC
  5
20E
100
AcDbEntity
  8
2655_13L
390
0
100
AcDbCircle
 10
92.9842103998
 20
165.0480796329
 30
0.0
 40
0.5
100
AcDbArc
 50
329.2900462187
 51
509.2900462186
  0
LINE
  5
20F
100
AcDbEntity
  8
2655_13L
390
0
100
AcDbLine
 10
91.3598074953
 20
163.2924188376
 30
0.0
 11
92.5543286179
 21
165.3034257775
 31
0.0
  0
LINE
  5
210
100
AcDbEntity
  8
2655_13L
390
0
100
AcDbLine
 10
93.4140921818
 20
164.7927334883
 30
0.0
 11
92.2195710592
 21
162.7817265485
 31
0.0
  0
CIRCLE
  5
211
100
AcDbEntity
  8
2655_13L
390
0
100
AcDbCircle
 10
95.2950612484
 20
168.9384562914
 30
0.0
 40
1.25
  0
CIRCLE
  5
212
100
AcDbEntity
  8
2655_13L
390
0
  6
DIVIDE
100
AcDbCircle
 10
94.3040099742
 20
171.7700313605
 30
0.0
 40
1.0
  0
CIRCLE
  5
213
100
AcDbEntity
  8
2655_13L
390
0
  6
DIVIDE
100
AcDbCircle
 10
94.2950612484
 20
174.8545360745
 30
0.0
 40
1.0
  0
LINE
  5
214
100
AcDbEntity
  8
2655_13R
390
0
  6
DIVIDE
100
AcDbLine
 10
97.2950612483
 20
178.9371150942
 30
0.0
 11
110.2950612483
 21
178.9384562919
 31
0.0
  0
LINE
  5
215
100
AcDbEntity
  8
2655_13R
390
0
100
AcDbLine
 10
110.2950612483
 20
178.9384562919
 30
0.0
 11
110.2950612483
 21
153.577049675
 31
0.0
  0
LINE
  5
216
100
AcDbEntity
  8
2655_13R
390
0
  6
DIVIDE
100
AcDbLine
 10
110.2950612483
 20
153.577049675
 30
0.0
 11
97.2950612483
 21
153.577049675
 31
0.0
  0
LINE
  5
217
100
AcDbEntity
  8
2655_13R
390
0
  6
DASHED
100
AcDbLine
 10
105.2950612483
 20
171.077049675
 30
0.0
 11
101.2950612483
 21
170.0770496747
 31
0.0
  0
LINE
  5
218
100
AcDbEntity
  8
2655_13R
390
0
  6
DASHED
100
AcDbLine
 10
97.2950612483
 20
153.577049675
 30
0.0
 11
106.7950612483
 21
163.8770496751
 31
0.0
  0
LINE
  5
219
100
AcDbEntity
  8
2655_13R
390
0
  6
DASHED
100
AcDbLine
 10
105.2950612483
 20
171.077049675
 30
0.0
 11
97.2950612483
 21
152.937115095
 31
0.0
  0
LINE
  5
21A
100
AcDbEntity
  8
2655_13L
390
0
  6
DASHED
100
AcDbLine
 10
97.4329922828
 20
153.5866078394
 30
0.0
 11
89.3128201277
 21
161.736200612
 31
0.0
  0
LINE
  5
21B
100
AcDbEntity
  8
2655_13L
390
0
  6
DASHED
100
AcDbLine
 10
91.2453464742
 20
162.2313349554
 30
0.0
 11
95.2950612484
 21
168.9384562914
 31
0.0
  0
LINE
  5
21C
100
AcDbEntity
  8
2655_13L
390
0
  6
DASHED
100
AcDbLine
 10
95.2950612484
 20
168.9384562914
 30
0.0
 11
94.3040099742
 21
171.7700313605
 31
0.0
  0
LINE
  5
21D
100
AcDbEntity
  8
2655_13L
390
0
  6
DASHED
100
AcDbLine
 10
94.3040099742
 20
171.7700313605
 30
0.0
 11
94.2950612484
 21
174.8545360745
 31
0.0
  0
ARC
  5
21E
100
AcDbEntity
  8
2655_13L
390
0
  6
DASHED
100
AcDbCircle
 10
99.0707291933
 20
164.0121218743
 30
0.0
 40
11.8475714814
100
AcDbArc
 50
113.771652385
 51
249.1762016072
  0
LINE
  5
21F
100
AcDbEntity
  8
2655_13L
390
0
  6
DIVIDE
100
AcDbLine
 10
94.8589741482
 20
152.9384562912
 30
0.0
 11
82.2950612483
 21
152.937115095
 31
0.0
  0
INSERT
  5
220
100
AcDbEntity
  8
BEMAßUNG
390
0
100
AcDbBlockReference
  2
D405875712
 10
0.0
 20
0.0
 30
0.0
  0
CIRCLE
  5
221
100
AcDbEntity
  8
2655_5L
390
0
100
AcDbCircle
 10
92.2950612483
 20
116.7194717449
 30
0.0
 40
1.25
  0
LINE
  5
222
100
AcDbEntity
  8
2655_5L
390
0
  6
DASHED
100
AcDbLine
 10
92.2950612483
 20
116.7194717449
 30
0.0
 11
92.2950612483
 21
110.2194717449
 31
0.0
  0
ARC
  5
223
100
AcDbEntity
  8
2655_3 DREHHEBEL
390
0
100
AcDbCircle
 10
89.9287962409
 20
159.9042115493
 30
0.0
 40
0.9327727486
100
AcDbArc
 50
9.9957228529
 51
108.5843695851
  0
ARC
  5
224
100
AcDbEntity
  8
2655_13L
390
0
100
AcDbCircle
 10
89.9287962409
 20
159.9042115493
 30
0.0
 40
1.9327727486
100
AcDbArc
 50
17.2729528697
 51
108.5843695851
  0
ARC
  5
225
100
AcDbEntity
  8
2655___ W-_ GSP-_ SIGNAL-ANTRIEB
390
0
  6
DASHDOT
100
AcDbCircle
 10
-7.2986367056
 20
151.1616803357
 30
0.0
 40
19.0311559244
100
AcDbArc
 50
136.9143872695
 51
223.0856127305
  0
MTEXT
  5
226
100
AcDbEntity
  8
2655___ W-_ GSP-_ SIGNAL-ANTRIEB
390
0
100
AcDbMText
 10
-26.406922484
 20
153.9300092559
 30
0.0
 40
2.0
 41
0.0
 71
         5
 72
         1
  1
\W0.810848;>2655.13L\PM15x15x2\PT2 O2
  7
Arial
 73
         1
 44
0.66
  0
INSERT
  5
227
100
AcDbEntity
  8
BEMAßUNG
390
0
100
AcDbBlockReference
  2
D405875456
 10
0.0
 20
0.0
 30
0.0
  0
INSERT
  5
228
100
AcDbEntity
  8
BEMAßUNG
390
0
100
AcDbBlockReference
  2
D405875200
 10
0.0
 20
0.0
 30
0.0
  0
MTEXT
  5
229
100
AcDbEntity
  8
2655___ W-_ GSP-_ SIGNAL-ANTRIEB
390
0
100
AcDbMText
 10
-25.3771039127
 20
88.9319892109
 30
0.0
 40
2.0
 41
0.0
 71
         5
 72
         1
  1
\W0.810846;>2655.6Q\PM50+x5\PT5 O2
  7
Arial
 73
         1
 44
0.66
  0
ARC
  5
22A
100
AcDbEntity
  8
2655___ W-_ GSP-_ SIGNAL-ANTRIEB
390
0
  6
DASHDOT
100
AcDbCircle
 10
-27.3850667736
 20
71.7816533659
 30
0.0
 40
18.3256183611
100
AcDbArc
 50
64.116205361
 51
115.883794639
  0
TEXT
  5
22B
100
AcDbEntity
  8
BESCHRIFTUNG
390
0
100
AcDbText
 10
249.5561181096
 20
187.9027938973
 30
0.0
 40
3.0
  1
2655.99
 41
1.1351391172
  7
Arial
 11
249.5561181096
 21
190.9027938973
 31
0.0
100
AcDbText
 73
         3
  0
MTEXT
  5
22C
100
AcDbEntity
  8
2655___ W-_ GSP-_ SIGNAL-ANTRIEB
390
0
100
AcDbMText
 10
-40.6945435225
 20
-2.6390362254
 30
0.0
 40
2.0
 41
0.0
 71
         5
 72
         1
  1
\W0.810848;>2655.99L\PM15x15x2\PT2 O2
  7
Arial
 73
         1
 44
0.66
  0
ARC
  5
22D
100
AcDbEntity
  8
2655___ W-_ GSP-_ SIGNAL-ANTRIEB
390
0
  6
DASHDOT
100
AcDbCircle
 10
41.5200679716
 20
1.7143244852
 30
0.0
 40
82.2589907296
100
AcDbArc
 50
157.1067621436
 51
202.8932378564
  0
LINE
  5
22E
100
AcDbEntity
  8
HILFSLINIEN
390
0
100
AcDbLine
 10
2.0
 20
171.9378714432
 30
0.0
 11
2.0
 21
111.9378714432
 31
0.0
  0
LINE
  5
22F
100
AcDbEntity
  8
2655_99 RAHMENLEHRE
390
0
  6
DASHED
100
AcDbLine
 10
28.7795971288
 20
180.4913670786
 30
0.0
 11
28.7795971288
 21
135.4913670786
 31
0.0
  0
LINE
  5
230
100
AcDbEntity
  8
2655_99 RAHMENLEHRE
390
0
  6
DASHED
100
AcDbLine
 10
54.7795971288
 20
180.4913670786
 30
0.0
 11
54.7795971288
 21
135.4913670786
 31
0.0
  0
LINE
  5
231
100
AcDbEntity
  8
2655_99 RAHMENLEHRE
390
0
  6
DASHED
100
AcDbLine
 10
54.7795971288
 20
113.7979347356
 30
0.0
 11
54.7795971288
 21
53.7979347356
 31
0.0
  0
LINE
  5
232
100
AcDbEntity
  8
2655_99 RAHMENLEHRE
390
0
  6
DASHED
100
AcDbLine
 10
28.7795971288
 20
113.7979347356
 30
0.0
 11
28.7795971288
 21
53.7979347356
 31
0.0
  0
LINE
  5
233
100
AcDbEntity
  8
2655_10 ZUNGENSCHIEBER
390
0
100
AcDbLine
 10
149.8780097264
 20
179.3868554756
 30
0.0
 11
149.8780097264
 21
109.3868554756
 31
0.0
  0
LINE
  5
234
100
AcDbEntity
  8
2655_9 RIEGELSCHIEBER
390
0
  6
DASHED
100
AcDbLine
 10
151.8813056976
 20
88.9227864875
 30
0.0
 11
151.8813056976
 21
12.9227864875
 31
0.0
  0
LINE
  5
235
100
AcDbEntity
  8
2655_9 RIEGELSCHIEBER
390
0
100
AcDbLine
 10
154.6376464813
 20
46.9227864875
 30
0.0
 11
151.8813056976
 21
46.9227864875
 31
0.0
  0
LINE
  5
236
100
AcDbEntity
  8
2655_9 RIEGELSCHIEBER
390
0
100
AcDbLine
 10
157.9706048482
 20
12.9227864875
 30
0.0
 11
149.8813056976
 21
12.9227864875
 31
0.0
  0
LINE
  5
237
100
AcDbEntity
  8
2655_9 RIEGELSCHIEBER
390
0
100
AcDbLine
 10
157.9706048482
 20
29.5052009396
 30
0.0
 11
154.6376464813
 21
29.5052009396
 31
0.0
  0
LINE
  5
238
100
AcDbEntity
  8
2655_9 RIEGELSCHIEBER
390
0
100
AcDbLine
 10
157.9706048482
 20
88.9227864875
 30
0.0
 11
149.8813056976
 21
88.9227864875
 31
0.0
  0
LINE
  5
239
100
AcDbEntity
  8
2655_9 RIEGELSCHIEBER
390
0
100
AcDbLine
 10
149.8813056976
 20
88.9227864875
 30
0.0
 11
149.8813056976
 21
12.9227864875
 31
0.0
  0
LINE
  5
23A
100
AcDbEntity
  8
2655_9 RIEGELSCHIEBER
390
0
100
AcDbLine
 10
157.9706048482
 20
12.9227864875
 30
0.0
 11
157.9706048482
 21
29.5052009396
 31
0.0
  0
LINE
  5
23B
100
AcDbEntity
  8
2655_9 RIEGELSCHIEBER
390
0
100
AcDbLine
 10
154.6376464813
 20
29.5052009396
 30
0.0
 11
154.6376464813
 21
46.9227864875
 31
0.0
  0
LINE
  5
23C
100
AcDbEntity
  8
2655_9 RIEGELSCHIEBER
390
0
100
AcDbLine
 10
157.9706048482
 20
64.2549613849
 30
0.0
 11
157.9706048482
 21
88.9227864875
 31
0.0
  0
LINE
  5
23D
100
AcDbEntity
  8
2655_9 RIEGELSCHIEBER
390
0
100
AcDbLine
 10
157.9706048482
 20
64.2549613849
 30
0.0
 11
153.9259552729
 21
64.2549613849
 31
0.0
  0
LINE
  5
23E
100
AcDbEntity
  8
2655_9 RIEGELSCHIEBER
390
0
100
AcDbLine
 10
153.9259552729
 20
68.2549613849
 30
0.0
 11
153.9259552729
 21
64.2549613849
 31
0.0
  0
LINE
  5
23F
100
AcDbEntity
  8
2655_9 RIEGELSCHIEBER
390
0
100
AcDbLine
 10
153.9259552729
 20
68.2549613849
 30
0.0
 11
151.9036304853
 21
68.2549613849
 31
0.0
  0
CIRCLE
  5
240
100
AcDbEntity
  8
2655_9R
390
0
100
AcDbCircle
 10
154.7359552729
 20
15.9203218558
 30
0.0
 40
1.25
  0
CIRCLE
  5
241
100
AcDbEntity
  8
2655_9R
390
0
100
AcDbCircle
 10
154.7359552729
 20
85.9225840666
 30
0.0
 40
1.25
  0
CIRCLE
  5
242
100
AcDbEntity
  8
2655_10R
390
0
100
AcDbCircle
 10
154.7326593017
 20
176.3866530547
 30
0.0
 40
1.25
  0
CIRCLE
  5
243
100
AcDbEntity
  8
2655_10R
390
0
100
AcDbCircle
 10
154.7326593017
 20
112.3843908439
 30
0.0
 40
1.25
  0
ARC
  5
244
100
AcDbEntity
  8
2655_10 ZUNGENSCHIEBER
390
0
100
AcDbCircle
 10
143.7272756213
 20
169.8868554756
 30
0.0
 40
1.5
100
AcDbArc
 50
0.0
 51
180.0
  0
ARC
  5
245
100
AcDbEntity
  8
2655_10 ZUNGENSCHIEBER
390
0
100
AcDbCircle
 10
143.7272756213
 20
157.8868554756
 30
0.0
 40
1.5
100
AcDbArc
 50
180.0
 51
360.0
  0
ARC
  5
246
100
AcDbEntity
  8
2655_10 ZUNGENSCHIEBER
390
0
100
AcDbCircle
 10
143.7272756213
 20
130.8870578965
 30
0.0
 40
1.5
100
AcDbArc
 50
0.0
 51
180.0
  0
ARC
  5
247
100
AcDbEntity
  8
2655_10 ZUNGENSCHIEBER
390
0
100
AcDbCircle
 10
143.7272756213
 20
118.8870578965
 30
0.0
 40
1.5
100
AcDbArc
 50
180.0
 51
360.0
  0
CIRCLE
  5
248
100
AcDbEntity
  8
2655_10L
390
0
100
AcDbCircle
 10
143.7326593017
 20
112.3845932648
 30
0.0
 40
1.25
  0
CIRCLE
  5
249
100
AcDbEntity
  8
2655_10L
390
0
100
AcDbCircle
 10
143.7326593017
 20
176.3868554756
 30
0.0
 40
1.25
  0
ARC
  5
24A
100
AcDbEntity
  8
2655_9 RIEGELSCHIEBER
390
0
100
AcDbCircle
 10
143.7272756213
 20
79.8811689946
 30
0.0
 40
1.5
100
AcDbArc
 50
0.0
 51
180.0
  0
ARC
  5
24B
100
AcDbEntity
  8
2655_9 RIEGELSCHIEBER
390
0
100
AcDbCircle
 10
143.7272756213
 20
60.8811689946
 30
0.0
 40
1.5
100
AcDbArc
 50
180.0
 51
360.0
  0
ARC
  5
24C
100
AcDbEntity
  8
2655_9 RIEGELSCHIEBER
390
0
100
AcDbCircle
 10
143.7272756213
 20
40.8813714155
 30
0.0
 40
1.5
100
AcDbArc
 50
0.0
 51
180.0
  0
ARC
  5
24D
100
AcDbEntity
  8
2655_9 RIEGELSCHIEBER
390
0
100
AcDbCircle
 10
143.7272756213
 20
21.8813714155
 30
0.0
 40
1.5
100
AcDbArc
 50
180.0
 51
360.0
  0
CIRCLE
  5
24E
100
AcDbEntity
  8
2655_9L
390
0
100
AcDbCircle
 10
143.7326593017
 20
15.9203218558
 30
0.0
 40
1.25
  0
CIRCLE
  5
24F
100
AcDbEntity
  8
2655_9L
390
0
100
AcDbCircle
 10
143.7326593017
 20
85.9227864875
 30
0.0
 40
1.25
  0
LINE
  5
250
100
AcDbEntity
  8
2655_10 ZUNGENSCHIEBER
390
0
100
AcDbLine
 10
157.967308877
 20
179.3868554756
 30
0.0
 11
149.8780097264
 21
179.3868554756
 31
0.0
  0
LINE
  5
251
100
AcDbEntity
  8
2655_10 ZUNGENSCHIEBER
390
0
100
AcDbLine
 10
157.967308877
 20
109.3868554756
 30
0.0
 11
149.8780097264
 21
109.3868554756
 31
0.0
  0
LINE
  5
252
100
AcDbEntity
  8
2655_10 ZUNGENSCHIEBER
390
0
100
AcDbLine
 10
157.967308877
 20
109.3868554756
 30
0.0
 11
157.967308877
 21
146.5438410458
 31
0.0
  0
LINE
  5
253
100
AcDbEntity
  8
2655_10 ZUNGENSCHIEBER
390
0
  6
DASHED
100
AcDbLine
 10
151.8780097264
 20
179.3868554756
 30
0.0
 11
151.8780097264
 21
109.3868554756
 31
0.0
  0
LINE
  5
254
100
AcDbEntity
  8
2655_10 ZUNGENSCHIEBER
390
0
100
AcDbLine
 10
157.967308877
 20
153.0438410458
 30
0.0
 11
151.8780097264
 21
153.0438410458
 31
0.0
  0
LINE
  5
255
100
AcDbEntity
  8
2655_10 ZUNGENSCHIEBER
390
0
100
AcDbLine
 10
157.967308877
 20
146.5438410458
 30
0.0
 11
151.8780097264
 21
146.5438410458
 31
0.0
  0
LINE
  5
256
100
AcDbEntity
  8
2655_10 ZUNGENSCHIEBER
390
0
100
AcDbLine
 10
157.967308877
 20
153.0438410458
 30
0.0
 11
157.967308877
 21
179.3868554756
 31
0.0
  0
LINE
  5
257
100
AcDbEntity
  8
2655_10 ZUNGENSCHIEBER
390
0
  6
DASHED
100
AcDbLine
 10
151.8780097264
 20
153.0438410458
 30
0.0
 11
149.8780097264
 21
153.0438410458
 31
0.0
  0
LINE
  5
258
100
AcDbEntity
  8
2655_10 ZUNGENSCHIEBER
390
0
  6
DASHED
100
AcDbLine
 10
151.8780097264
 20
146.5438410458
 30
0.0
 11
149.8780097264
 21
146.5438410458
 31
0.0
  0
LINE
  5
259
100
AcDbEntity
  8
2655_9 RIEGELSCHIEBER
390
0
  6
DASHED
100
AcDbLine
 10
151.9036304853
 20
68.2549613849
 30
0.0
 11
149.8813056976
 21
68.2549613849
 31
0.0
  0
LINE
  5
25A
100
AcDbEntity
  8
2655_9 RIEGELSCHIEBER
390
0
  6
DASHED
100
AcDbLine
 10
151.8813056976
 20
46.9227864875
 30
0.0
 11
149.8813056976
 21
46.9227864875
 31
0.0
  0
LINE
  5
25B
100
AcDbEntity
  8
2655_10 ZUNGENSCHIEBER
390
0
100
AcDbLine
 10
142.2272756213
 20
130.8870578965
 30
0.0
 11
142.2272756213
 21
118.8870578965
 31
0.0
  0
LINE
  5
25C
100
AcDbEntity
  8
2655_10 ZUNGENSCHIEBER
390
0
100
AcDbLine
 10
145.2272756213
 20
118.8870578965
 30
0.0
 11
145.2272756213
 21
130.8870578965
 31
0.0
  0
LINE
  5
25D
100
AcDbEntity
  8
2655_10 ZUNGENSCHIEBER
390
0
100
AcDbLine
 10
142.2272756213
 20
169.8868554756
 30
0.0
 11
142.2272756213
 21
157.8868554756
 31
0.0
  0
LINE
  5
25E
100
AcDbEntity
  8
2655_10 ZUNGENSCHIEBER
390
0
100
AcDbLine
 10
145.2272756213
 20
169.8868554756
 30
0.0
 11
145.2272756213
 21
157.8868554756
 31
0.0
  0
LINE
  5
25F
100
AcDbEntity
  8
2655_10 ZUNGENSCHIEBER
390
0
100
AcDbLine
 10
140.8780097264
 20
109.3870578965
 30
0.0
 11
140.8780097264
 21
179.3868554756
 31
0.0
  0
LINE
  5
260
100
AcDbEntity
  8
2655_10 ZUNGENSCHIEBER
390
0
100
AcDbLine
 10
140.8780097264
 20
179.3868554756
 30
0.0
 11
149.8780097264
 21
179.3868554756
 31
0.0
  0
LINE
  5
261
100
AcDbEntity
  8
2655_10 ZUNGENSCHIEBER
390
0
100
AcDbLine
 10
149.8780097264
 20
179.3868554756
 30
0.0
 11
149.8780097264
 21
152.1311689948
 31
0.0
  0
LINE
  5
262
100
AcDbEntity
  8
2655_10 ZUNGENSCHIEBER
390
0
100
AcDbLine
 10
149.8780097264
 20
109.3870578965
 30
0.0
 11
140.8780097264
 21
109.3870578965
 31
0.0
  0
LINE
  5
263
100
AcDbEntity
  8
2655_10 ZUNGENSCHIEBER
390
0
100
AcDbLine
 10
147.8780097264
 20
153.0511689948
 30
0.0
 11
145.3780097264
 21
153.0511689948
 31
0.0
  0
LINE
  5
264
100
AcDbEntity
  8
2655_10 ZUNGENSCHIEBER
390
0
100
AcDbLine
 10
145.3780097264
 20
146.5511689948
 30
0.0
 11
145.3780097264
 21
153.0511689948
 31
0.0
  0
LINE
  5
265
100
AcDbEntity
  8
2655_10 ZUNGENSCHIEBER
390
0
100
AcDbLine
 10
145.3780097264
 20
146.5511689948
 30
0.0
 11
147.8780097264
 21
146.5511689948
 31
0.0
  0
LINE
  5
266
100
AcDbEntity
  8
2655_10 ZUNGENSCHIEBER
390
0
100
AcDbLine
 10
149.8780097264
 20
145.6311689948
 30
0.0
 11
149.8780097264
 21
109.3870578965
 31
0.0
  0
LINE
  5
267
100
AcDbEntity
  8
2655_10 ZUNGENSCHIEBER
390
0
  6
DASHED
100
AcDbLine
 10
147.8780097264
 20
179.3868554756
 30
0.0
 11
147.8780097264
 21
153.0511689948
 31
0.0
  0
LINE
  5
268
100
AcDbEntity
  8
2655_10 ZUNGENSCHIEBER
390
0
  6
DASHED
100
AcDbLine
 10
147.8780097264
 20
146.5511689948
 30
0.0
 11
147.8780097264
 21
109.3870578965
 31
0.0
  0
LINE
  5
269
100
AcDbEntity
  8
2655_9 RIEGELSCHIEBER
390
0
100
AcDbLine
 10
142.2272756213
 20
41.3682364704
 30
0.0
 11
142.2272756213
 21
21.8813714155
 31
0.0
  0
LINE
  5
26A
100
AcDbEntity
  8
2655_9 RIEGELSCHIEBER
390
0
100
AcDbLine
 10
145.2272756213
 20
21.8813714155
 30
0.0
 11
145.2272756213
 21
40.8813714155
 31
0.0
  0
LINE
  5
26B
100
AcDbEntity
  8
2655_9 RIEGELSCHIEBER
390
0
100
AcDbLine
 10
142.2272756213
 20
79.8811689946
 30
0.0
 11
142.2272756213
 21
60.8811689946
 31
0.0
  0
LINE
  5
26C
100
AcDbEntity
  8
2655_9 RIEGELSCHIEBER
390
0
100
AcDbLine
 10
145.2272756213
 20
79.8811689946
 30
0.0
 11
145.2272756213
 21
60.8811689946
 31
0.0
  0
LINE
  5
26D
100
AcDbEntity
  8
2655_9 RIEGELSCHIEBER
390
0
100
AcDbLine
 10
140.8780097264
 20
12.9227864875
 30
0.0
 11
140.8780097264
 21
88.9227864875
 31
0.0
  0
LINE
  5
26E
100
AcDbEntity
  8
2655_9 RIEGELSCHIEBER
390
0
100
AcDbLine
 10
140.8780097264
 20
88.9227864875
 30
0.0
 11
149.8780097264
 21
88.9227864875
 31
0.0
  0
LINE
  5
26F
100
AcDbEntity
  8
2655_9 RIEGELSCHIEBER
390
0
100
AcDbLine
 10
149.8780097264
 20
88.9227864875
 30
0.0
 11
149.8780097264
 21
64.2549613849
 31
0.0
  0
LINE
  5
270
100
AcDbEntity
  8
2655_9 RIEGELSCHIEBER
390
0
100
AcDbLine
 10
149.8780097264
 20
12.9227864875
 30
0.0
 11
140.8780097264
 21
12.9227864875
 31
0.0
  0
LINE
  5
271
100
AcDbEntity
  8
2655_9 RIEGELSCHIEBER
390
0
  6
DASHED
100
AcDbLine
 10
149.8780097264
 20
68.254961385
 30
0.0
 11
148.1280097264
 21
68.254961385
 31
0.0
  0
LINE
  5
272
100
AcDbEntity
  8
2655_9 RIEGELSCHIEBER
390
0
100
AcDbLine
 10
146.3780097264
 20
46.9227864875
 30
0.0
 11
146.3780097264
 21
68.254961385
 31
0.0
  0
LINE
  5
273
100
AcDbEntity
  8
2655_9 RIEGELSCHIEBER
390
0
100
AcDbLine
 10
146.3780097264
 20
46.9227864875
 30
0.0
 11
149.8780097264
 21
46.9227864875
 31
0.0
  0
LINE
  5
274
100
AcDbEntity
  8
2655_9 RIEGELSCHIEBER
390
0
100
AcDbLine
 10
149.8780097264
 20
46.9227864875
 30
0.0
 11
149.8780097264
 21
12.9227864875
 31
0.0
  0
LINE
  5
275
100
AcDbEntity
  8
2655_9 RIEGELSCHIEBER
390
0
  6
DASHED
100
AcDbLine
 10
147.8780097264
 20
88.9227864875
 30
0.0
 11
147.8780097264
 21
64.2549613849
 31
0.0
  0
LINE
  5
276
100
AcDbEntity
  8
2655_9 RIEGELSCHIEBER
390
0
  6
DASHED
100
AcDbLine
 10
147.8780097264
 20
46.9227864875
 30
0.0
 11
147.8780097264
 21
12.9227864875
 31
0.0
  0
LINE
  5
277
100
AcDbEntity
  8
2655_9 RIEGELSCHIEBER
390
0
100
AcDbLine
 10
147.8780097264
 20
64.2549613849
 30
0.0
 11
149.8780097264
 21
64.2549613849
 31
0.0
  0
LINE
  5
278
100
AcDbEntity
  8
2655_9 RIEGELSCHIEBER
390
0
100
AcDbLine
 10
147.8780097264
 20
29.5052009396
 30
0.0
 11
149.8780097264
 21
29.5052009396
 31
0.0
  0
LINE
  5
279
100
AcDbEntity
  8
2655_9 RIEGELSCHIEBER
390
0
100
AcDbLine
 10
148.1280097264
 20
68.254961385
 30
0.0
 11
146.3780097264
 21
68.254961385
 31
0.0
  0
TEXT
  5
27A
100
AcDbEntity
  8
BESCHRIFTUNG
390
0
100
AcDbText
 10
127.0764130132
 20
188.3139774887
 30
0.0
 40
3.0
  1
2655.10
 41
1.1351391847
  7
Arial
 11
127.0764130132
 21
191.3139774887
 31
0.0
100
AcDbText
 73
         3
  0
TEXT
  5
27B
100
AcDbEntity
  8
BESCHRIFTUNG
390
0
100
AcDbText
 10
127.7376128003
 20
99.325600462
 30
0.0
 40
3.0
  1
2655.9
 41
1.13487331
  7
Arial
 11
127.7376128003
 21
102.325600462
 31
0.0
100
AcDbText
 73
         3
  0
LINE
  5
27C
100
AcDbEntity
  8
MITTELLINIEN
390
0
100
AcDbLine
 10
134.8780097264
 20
184.3868554756
 30
0.0
 11
134.8780097264
 21
104.3868554756
 31
0.0
  0
LINE
  5
27D
100
AcDbEntity
  8
MITTELLINIEN
390
0
100
AcDbLine
 10
164.8780097264
 20
184.3868554756
 30
0.0
 11
164.8780097264
 21
104.3868554756
 31
0.0
  0
LINE
  5
27E
100
AcDbEntity
  8
MITTELLINIEN
390
0
100
AcDbLine
 10
164.8813056976
 20
94.9227864875
 30
0.0
 11
164.8813056976
 21
6.9227864875
 31
0.0
  0
LINE
  5
27F
100
AcDbEntity
  8
MITTELLINIEN
390
0
100
AcDbLine
 10
134.8813056976
 20
93.9227864875
 30
0.0
 11
134.8813056976
 21
7.9227864875
 31
0.0
  0
CIRCLE
  5
280
100
AcDbEntity
  8
2655_10L
390
0
  6
PHANTOM
100
AcDbCircle
 10
134.8780097264
 20
180.3868554756
 30
0.0
 40
0.5
  0
CIRCLE
  5
281
100
AcDbEntity
  8
2655_10L
390
0
  6
PHANTOM
100
AcDbCircle
 10
134.8780097264
 20
108.3870578965
 30
0.0
 40
1.0
  0
LINE
  5
282
100
AcDbEntity
  8
2655_10L
390
0
  6
DIVIDE
100
AcDbLine
 10
134.8780097264
 20
180.3868554756
 30
0.0
 11
149.8780097264
 21
180.3868554756
 31
0.0
  0
LINE
  5
283
100
AcDbEntity
  8
2655_10L
390
0
  6
DIVIDE
100
AcDbLine
 10
149.8783209114
 20
108.3868554714
 30
0.0
 11
134.8780097264
 21
108.3870578965
 31
0.0
  0
LINE
  5
284
100
AcDbEntity
  8
2655_10L
390
0
100
AcDbLine
 10
139.8780097264
 20
109.0363873481
 30
0.0
 11
139.8780097264
 21
180.0415031211
 31
0.0
  0
LINE
  5
285
100
AcDbEntity
  8
2655_10L
390
0
100
AcDbLine
 10
143.2272756213
 20
169.8868554756
 30
0.0
 11
143.2272756213
 21
157.8868554756
 31
0.0
  0
ARC
  5
286
100
AcDbEntity
  8
2655_10L
390
0
100
AcDbCircle
 10
143.7272756213
 20
169.8868554756
 30
0.0
 40
0.5
100
AcDbArc
 50
0.0
 51
180.0
  0
LINE
  5
287
100
AcDbEntity
  8
2655_10L
390
0
100
AcDbLine
 10
144.2272756213
 20
169.8868554756
 30
0.0
 11
144.2272756213
 21
157.8868554756
 31
0.0
  0
ARC
  5
288
100
AcDbEntity
  8
2655_10L
390
0
100
AcDbCircle
 10
143.7272756213
 20
157.8868554756
 30
0.0
 40
0.5
100
AcDbArc
 50
180.0
 51
360.0
  0
LINE
  5
289
100
AcDbEntity
  8
2655_10L
390
0
100
AcDbLine
 10
146.3780097264
 20
147.5511689948
 30
0.0
 11
146.3780097264
 21
152.0511689948
 31
0.0
  0
LINE
  5
28A
100
AcDbEntity
  8
2655_10L
390
0
100
AcDbLine
 10
150.6681272086
 20
152.0511689948
 30
0.0
 11
146.3780097264
 21
152.0511689948
 31
0.0
  0
LINE
  5
28B
100
AcDbEntity
  8
2655_10L
390
0
100
AcDbLine
 10
146.3780097264
 20
147.5511689948
 30
0.0
 11
150.5552414919
 21
147.5511689948
 31
0.0
  0
ARC
  5
28C
100
AcDbEntity
  8
2655_10L
390
0
100
AcDbCircle
 10
143.7272756213
 20
130.8870578965
 30
0.0
 40
0.5
100
AcDbArc
 50
0.0
 51
180.0
  0
LINE
  5
28D
100
AcDbEntity
  8
2655_10L
390
0
100
AcDbLine
 10
143.2272756213
 20
130.8870578965
 30
0.0
 11
143.2272756213
 21
118.8870578965
 31
0.0
  0
LINE
  5
28E
100
AcDbEntity
  8
2655_10L
390
0
100
AcDbLine
 10
144.2272756213
 20
118.8870578965
 30
0.0
 11
144.2272756213
 21
130.8870578965
 31
0.0
  0
ARC
  5
28F
100
AcDbEntity
  8
2655_10L
390
0
100
AcDbCircle
 10
143.7272756213
 20
118.8870578965
 30
0.0
 40
0.5
100
AcDbArc
 50
180.0
 51
360.0
  0
LINE
  5
290
100
AcDbEntity
  8
2655_10R
390
0
  6
DIVIDE
100
AcDbLine
 10
164.8780097264
 20
180.3868554756
 30
0.0
 11
149.8780097264
 21
180.3868554756
 31
0.0
  0
LINE
  5
291
100
AcDbEntity
  8
2655_10R
390
0
  6
DIVIDE
100
AcDbLine
 10
164.8780097264
 20
108.3868554756
 30
0.0
 11
149.8780097264
 21
108.3870578965
 31
0.0
  0
LINE
  5
292
100
AcDbEntity
  8
2655_10R
390
0
100
AcDbLine
 10
158.967308877
 20
152.0438410458
 30
0.0
 11
158.967308877
 21
179.8157316878
 31
0.0
  0
LINE
  5
293
100
AcDbEntity
  8
2655_10R
390
0
100
AcDbLine
 10
158.967308877
 20
147.5438410458
 30
0.0
 11
148.4666256092
 21
147.5438410458
 31
0.0
  0
LINE
  5
294
100
AcDbEntity
  8
2655_10R
390
0
100
AcDbLine
 10
158.967308877
 20
152.0438410458
 30
0.0
 11
148.5230684675
 21
152.0438410458
 31
0.0
  0
LINE
  5
295
100
AcDbEntity
  8
2655_10R
390
0
100
AcDbLine
 10
158.967308877
 20
109.0363873481
 30
0.0
 11
158.967308877
 21
147.5438410458
 31
0.0
  0
ARC
  5
296
100
AcDbEntity
  8
2655___ W-_ GSP-_ SIGNAL-ANTRIEB
390
0
  6
DASHDOT
100
AcDbCircle
 10
233.0675277672
 20
144.3869566861
 30
0.0
 40
104.5809455204
100
AcDbArc
 50
159.8652008525
 51
200.1347991475
  0
CIRCLE
  5
297
100
AcDbEntity
  8
2655_10R
390
0
  6
PHANTOM
100
AcDbCircle
 10
149.8780097264
 20
180.3868554756
 30
0.0
 40
0.5
  0
CIRCLE
  5
298
100
AcDbEntity
  8
2655_10R
390
0
  6
PHANTOM
100
AcDbCircle
 10
149.8780097264
 20
108.3870578965
 30
0.0
 40
1.0
  0
ARC
  5
299
100
AcDbEntity
  8
2655___ W-_ GSP-_ SIGNAL-ANTRIEB
390
0
  6
DASHDOT
100
AcDbCircle
 10
274.827537755
 20
50.9227864875
 30
0.0
 40
145.2788624235
100
AcDbArc
 50
164.4279916678
 51
195.5720083322
  0
CIRCLE
  5
29A
100
AcDbEntity
  8
2655_9L
390
0
  6
PHANTOM
100
AcDbCircle
 10
134.8813056976
 20
89.9227864875
 30
0.0
 40
0.5
  0
CIRCLE
  5
29B
100
AcDbEntity
  8
2655_9L
390
0
  6
PHANTOM
100
AcDbCircle
 10
134.8813056976
 20
11.9227864875
 30
0.0
 40
1.0
  0
CIRCLE
  5
29C
100
AcDbEntity
  8
2655_9R
390
0
  6
PHANTOM
100
AcDbCircle
 10
149.8813056976
 20
11.9227864875
 30
0.0
 40
1.0
  0
CIRCLE
  5
29D
100
AcDbEntity
  8
2655_9R
390
0
  6
PHANTOM
100
AcDbCircle
 10
149.8813056976
 20
89.9227864875
 30
0.0
 40
0.5
  0
LINE
  5
29E
100
AcDbEntity
  8
2655_9L
390
0
  6
DIVIDE
100
AcDbLine
 10
134.8813056976
 20
89.9227864875
 30
0.0
 11
149.8780097264
 21
89.9227864875
 31
0.0
  0
LINE
  5
29F
100
AcDbEntity
  8
2655_9L
390
0
  6
DIVIDE
100
AcDbLine
 10
149.8780097264
 20
11.9227864875
 30
0.0
 11
134.8813056976
 21
11.9227864875
 31
0.0
  0
LINE
  5
2A0
100
AcDbEntity
  8
2655_9L
390
0
100
AcDbLine
 10
139.8780097264
 20
12.9227864875
 30
0.0
 11
139.8780097264
 21
89.4622444723
 31
0.0
  0
LINE
  5
2A1
100
AcDbEntity
  8
2655_9L
390
0
100
AcDbLine
 10
143.2272756213
 20
79.8811689946
 30
0.0
 11
143.2272756213
 21
60.8811689946
 31
0.0
  0
LINE
  5
2A2
100
AcDbEntity
  8
2655_9L
390
0
100
AcDbLine
 10
144.2272756213
 20
79.8811689946
 30
0.0
 11
144.2272756213
 21
60.8811689946
 31
0.0
  0
ARC
  5
2A3
100
AcDbEntity
  8
2655_9L
390
0
100
AcDbCircle
 10
143.7272756213
 20
79.8811689946
 30
0.0
 40
0.5
100
AcDbArc
 50
0.0
 51
180.0
  0
ARC
  5
2A4
100
AcDbEntity
  8
2655_9L
390
0
100
AcDbCircle
 10
143.7272756213
 20
60.8811689946
 30
0.0
 40
0.5
100
AcDbArc
 50
180.0
 51
360.0
  0
ARC
  5
2A5
100
AcDbEntity
  8
2655_9L
390
0
100
AcDbCircle
 10
143.7272756213
 20
40.8813714155
 30
0.0
 40
0.5
100
AcDbArc
 50
0.0
 51
180.0
  0
LINE
  5
2A6
100
AcDbEntity
  8
2655_9L
390
0
100
AcDbLine
 10
143.2272756213
 20
40.8813714155
 30
0.0
 11
143.2272756213
 21
21.8813714155
 31
0.0
  0
LINE
  5
2A7
100
AcDbEntity
  8
2655_9L
390
0
100
AcDbLine
 10
144.2272756213
 20
21.8813714155
 30
0.0
 11
144.2272756213
 21
40.8813714155
 31
0.0
  0
ARC
  5
2A8
100
AcDbEntity
  8
2655_9L
390
0
100
AcDbCircle
 10
143.7272756213
 20
21.8813714155
 30
0.0
 40
0.5
100
AcDbArc
 50
180.0
 51
360.0
  0
LINE
  5
2A9
100
AcDbEntity
  8
2655_9L
390
0
100
AcDbLine
 10
147.3780097264
 20
47.9227864875
 30
0.0
 11
147.3780097264
 21
67.254961385
 31
0.0
  0
LINE
  5
2AA
100
AcDbEntity
  8
2655_9L
390
0
100
AcDbLine
 10
147.3780097264
 20
47.9227864875
 30
0.0
 11
151.2325557918
 21
47.9227864875
 31
0.0
  0
LINE
  5
2AB
100
AcDbEntity
  8
2655_9L
390
0
100
AcDbLine
 10
151.3454415085
 20
67.254961385
 30
0.0
 11
147.3780097264
 21
67.254961385
 31
0.0
  0
LINE
  5
2AC
100
AcDbEntity
  8
2655_9R
390
0
  6
DIVIDE
100
AcDbLine
 10
164.8813056976
 20
89.9227864875
 30
0.0
 11
149.8813056976
 21
89.9227864875
 31
0.0
  0
LINE
  5
2AD
100
AcDbEntity
  8
2655_9R
390
0
  6
DIVIDE
100
AcDbLine
 10
164.8813056976
 20
11.9227864875
 30
0.0
 11
149.8813056976
 21
11.9227864875
 31
0.0
  0
LINE
  5
2AE
100
AcDbEntity
  8
2655_9R
390
0
100
AcDbLine
 10
158.9706048482
 20
63.2549613849
 30
0.0
 11
158.9706048482
 21
89.4622444723
 31
0.0
  0
LINE
  5
2AF
100
AcDbEntity
  8
2655_9R
390
0
100
AcDbLine
 10
158.9706048482
 20
63.2549613849
 30
0.0
 11
152.9259552729
 21
63.2549613849
 31
0.0
  0
LINE
  5
2B0
100
AcDbEntity
  8
2655_9R
390
0
100
AcDbLine
 10
152.9259552729
 20
67.2549613849
 30
0.0
 11
152.9259552729
 21
63.2549613849
 31
0.0
  0
LINE
  5
2B1
100
AcDbEntity
  8
2655_9R
390
0
100
AcDbLine
 10
152.9259552729
 20
67.2549613849
 30
0.0
 11
149.4263843254
 21
67.2549613849
 31
0.0
  0
LINE
  5
2B2
100
AcDbEntity
  8
2655_9R
390
0
100
AcDbLine
 10
155.6376464813
 20
30.5052009396
 30
0.0
 11
155.6376464813
 21
47.9227864875
 31
0.0
  0
LINE
  5
2B3
100
AcDbEntity
  8
2655_9R
390
0
100
AcDbLine
 10
155.6376464813
 20
47.9227864875
 30
0.0
 11
149.3134986088
 21
47.9227864875
 31
0.0
  0
LINE
  5
2B4
100
AcDbEntity
  8
2655_9R
390
0
100
AcDbLine
 10
158.9706048482
 20
30.5052009396
 30
0.0
 11
155.6376464813
 21
30.5052009396
 31
0.0
  0
LINE
  5
2B5
100
AcDbEntity
  8
2655_9R
390
0
100
AcDbLine
 10
158.9706048482
 20
12.5039238603
 30
0.0
 11
158.9706048482
 21
30.5052009396
 31
0.0
  0
LINE
  5
2B6
100
AcDbEntity
  8
2655_9R
390
0
  6
DASHED
100
AcDbLine
 10
164.8813056976
 20
89.9227864875
 30
0.0
 11
154.7359552729
 21
85.9225840666
 31
0.0
  0
LINE
  5
2B7
100
AcDbEntity
  8
2655_10L
390
0
  6
DASHED
100
AcDbLine
 10
143.7326593017
 20
176.3868554756
 30
0.0
 11
139.8780097264
 21
180.0415031211
 31
0.0
  0
LINE
  5
2B8
100
AcDbEntity
  8
2655_10L
390
0
  6
DASHED
100
AcDbLine
 10
139.8780097264
 20
109.0363873481
 30
0.0
 11
143.7326593017
 21
112.3845932648
 31
0.0
  0
LINE
  5
2B9
100
AcDbEntity
  8
2655_10L
390
0
  6
DASHED
100
AcDbLine
 10
143.7326593017
 20
112.3845932648
 30
0.0
 11
149.8783209114
 21
108.3868554714
 31
0.0
  0
LINE
  5
2BA
100
AcDbEntity
  8
2655_10R
390
0
  6
DASHED
100
AcDbLine
 10
164.8780097264
 20
180.3868554756
 30
0.0
 11
154.7326593017
 21
176.3866530547
 31
0.0
  0
LINE
  5
2BB
100
AcDbEntity
  8
2655_10R
390
0
  6
DASHED
100
AcDbLine
 10
154.7326593017
 20
176.3866530547
 30
0.0
 11
158.967308877
 21
179.8157316878
 31
0.0
  0
LINE
  5
2BC
100
AcDbEntity
  8
2655_10R
390
0
  6
DASHED
100
AcDbLine
 10
158.967308877
 20
109.0363873481
 30
0.0
 11
154.7326593017
 21
112.3843908439
 31
0.0
  0
LINE
  5
2BD
100
AcDbEntity
  8
2655_10R
390
0
  6
DASHED
100
AcDbLine
 10
154.7326593017
 20
112.3843908439
 30
0.0
 11
164.8780097264
 21
108.3868554756
 31
0.0
  0
LINE
  5
2BE
100
AcDbEntity
  8
2655_10L
390
0
  6
DASHED
100
AcDbLine
 10
149.8780097264
 20
180.3868554756
 30
0.0
 11
144.2272756213
 21
169.8868554756
 31
0.0
  0
LINE
  5
2BF
100
AcDbEntity
  8
2655_10L
390
0
  6
DASHED
100
AcDbLine
 10
144.2272756213
 20
169.8868554756
 30
0.0
 11
150.6681272086
 21
152.0511689948
 31
0.0
  0
LINE
  5
2C0
100
AcDbEntity
  8
2655_10L
390
0
  6
DASHED
100
AcDbLine
 10
150.5552414919
 20
147.5511689948
 30
0.0
 11
144.2272756213
 21
118.8870578965
 31
0.0
  0
ARC
  5
2C1
100
AcDbEntity
  8
2655_10L
390
0
  6
DASHED
100
AcDbCircle
 10
202.6851365033
 20
148.1419416752
 30
0.0
 40
65.3694861827
100
AcDbArc
 50
154.4003008859
 51
206.5853974929
  0
ARC
  5
2C2
100
AcDbEntity
  8
2655_10R
390
0
100
AcDbCircle
 10
151.8927822863
 20
149.7512212285
 30
0.0
 40
4.0756688834
100
AcDbArc
 50
145.7701803042
 51
212.7925894778
  0
LINE
  5
2C3
100
AcDbEntity
  8
2655_9L
390
0
  6
DASHED
100
AcDbLine
 10
149.8780097264
 20
89.9227864875
 30
0.0
 11
144.2272756213
 21
79.8811689946
 31
0.0
  0
LINE
  5
2C4
100
AcDbEntity
  8
2655_9L
390
0
  6
DASHED
100
AcDbLine
 10
144.2272756213
 20
79.8811689946
 30
0.0
 11
151.3454415085
 21
67.254961385
 31
0.0
  0
LINE
  5
2C5
100
AcDbEntity
  8
2655_9L
390
0
  6
DASHED
100
AcDbLine
 10
151.2325557918
 20
47.9227864875
 30
0.0
 11
144.2272756213
 21
40.8813714155
 31
0.0
  0
ARC
  5
2C6
100
AcDbEntity
  8
2655_9L
390
0
  6
DASHED
100
AcDbCircle
 10
116.8542314202
 20
28.9383573559
 30
0.0
 40
29.8650152128
100
AcDbArc
 50
334.1576895617
 51
383.5719155824
  0
ARC
  5
2C7
100
AcDbEntity
  8
2655_9L
390
0
  6
DASHED
100
AcDbCircle
 10
234.5933989623
 20
50.9215541716
 30
0.0
 40
97.3691957207
100
AcDbArc
 50
158.9323952153
 51
201.0676047847
  0
LINE
  5
2C8
100
AcDbEntity
  8
2655_9L
390
0
  6
DASHED
100
AcDbLine
 10
143.7326593017
 20
85.9227864875
 30
0.0
 11
139.8780097264
 21
89.4622444723
 31
0.0
  0
LINE
  5
2C9
100
AcDbEntity
  8
2655_9L
390
0
  6
DASHED
100
AcDbLine
 10
139.8780097264
 20
12.9227864875
 30
0.0
 11
149.8780097264
 21
11.9227864875
 31
0.0
  0
ARC
  5
2CA
100
AcDbEntity
  8
2655_9R
390
0
  6
DASHED
100
AcDbCircle
 10
175.2001240616
 20
57.4380446224
 30
0.0
 40
27.5800202087
100
AcDbArc
 50
159.1487466396
 51
200.1821303409
  0
LINE
  5
2CB
100
AcDbEntity
  8
2655_9R
390
0
  6
DASHED
100
AcDbLine
 10
154.7359552729
 20
85.9225840666
 30
0.0
 11
158.9706048482
 21
89.4622444723
 31
0.0
  0
LINE
  5
2CC
100
AcDbEntity
  8
2655_9R
390
0
  6
DASHED
100
AcDbLine
 10
158.9706048482
 20
12.5039238603
 30
0.0
 11
154.7359552729
 21
15.9203218558
 31
0.0
  0
LINE
  5
2CD
100
AcDbEntity
  8
2655_9R
390
0
  6
DASHED
100
AcDbLine
 10
154.7359552729
 20
15.9203218558
 30
0.0
 11
164.8813056976
 21
11.9227864875
 31
0.0
  0
MTEXT
  5
2CE
100
AcDbEntity
  8
2655_10L
390
0
100
AcDbMText
 10
134.0425859381
 20
182.7690145437
 30
0.0
 40
2.0
 41
0.0
 71
         5
 72
         1
  1
\W0.810867;M15x15x2 F150\PT2 O2 S4 I1,2\PB-0,3     D1,5
  7
Arial
 73
         1
 44
0.66
  0
MTEXT
  5
2CF
100
AcDbEntity
  8
2655_10R
390
0
100
AcDbMText
 10
150.801628629
 20
182.7690145437
 30
0.0
 40
2.0
 41
0.0
 71
         5
 72
         1
  1
\W0.810867;M15x15x2 F150\PT2 O2 S4 I1,2\PB-0,3     D1,5
  7
Arial
 73
         1
 44
0.66
  0
MTEXT
  5
2D0
100
AcDbEntity
  8
2655_9L
390
0
100
AcDbMText
 10
134.0458819093
 20
92.3049455556
 30
0.0
 40
2.0
 41
0.0
 71
         5
 72
         1
  1
\W0.810867;M15x15x2 F150\PT2 O2 S4 I1,2\PB-0,3     D1,5
  7
Arial
 73
         1
 44
0.66
  0
MTEXT
  5
2D1
100
AcDbEntity
  8
2655_9R
390
0
100
AcDbMText
 10
150.8049246002
 20
92.3049455556
 30
0.0
 40
2.0
 41
0.0
 71
         5
 72
         1
  1
\W0.810867;M15x15x2 F150\PT2 O2 S4 I1,2\PB-0,3     D1,5
  7
Arial
 73
         1
 44
0.66
  0
CIRCLE
  5
2D2
100
AcDbEntity
  8
2655_99P
390
0
100
AcDbCircle
 10
259.9991507923
 20
150.1576289941
 30
0.0
 40
1.5
  0
CIRCLE
  5
2D3
100
AcDbEntity
  8
2655_99P
390
0
100
AcDbCircle
 10
259.9991507923
 20
146.1576289941
 30
0.0
 40
1.5
  0
CIRCLE
  5
2D4
100
AcDbEntity
  8
2655_99P
390
0
100
AcDbCircle
 10
254.9991507923
 20
126.1576289941
 30
0.0
 40
1.5
  0
CIRCLE
  5
2D5
100
AcDbEntity
  8
2655_99P
390
0
100
AcDbCircle
 10
272.9991507923
 20
121.6576289941
 30
0.0
 40
1.75
  0
CIRCLE
  5
2D6
100
AcDbEntity
  8
2655_99P
390
0
100
AcDbCircle
 10
272.9991507923
 20
112.6576289941
 30
0.0
 40
1.75
  0
LINE
  5
2D7
102
{ACAD_REACTORS
330
355
102
}
100
AcDbEntity
  8
2655_1 RAHMEN
390
0
100
AcDbLine
 10
261.9991507923
 20
153.6576289941
 30
0.0
 11
276.9991507923
 21
153.6576289941
 31
0.0
  0
LINE
  5
2D8
100
AcDbEntity
  8
2655_1 RAHMEN
390
0
100
AcDbLine
 10
261.9991507923
 20
133.6576289941
 30
0.0
 11
263.9991507923
 21
133.6576289941
 31
0.0
  0
LINE
  5
2D9
100
AcDbEntity
  8
2655_1 RAHMEN
390
0
100
AcDbLine
 10
265.9991507923
 20
108.6576289941
 30
0.0
 11
265.9991507923
 21
153.6576289941
 31
0.0
  0
LINE
  5
2DA
100
AcDbEntity
  8
2655_1 RAHMEN
390
0
100
AcDbLine
 10
265.9991507923
 20
108.6576289941
 30
0.0
 11
250.9991507923
 21
108.6576289941
 31
0.0
  0
LINE
  5
2DB
102
{ACAD_REACTORS
330
355
102
}
100
AcDbEntity
  8
2655_1 RAHMEN
390
0
  6
DOT
100
AcDbLine
 10
271.9991507923
 20
134.6576289941
 30
0.0
 11
271.9991507923
 21
153.6576289941
 31
0.0
  0
LINE
  5
2DC
100
AcDbEntity
  8
2655_1 RAHMEN
390
0
100
AcDbLine
 10
250.9991507923
 20
108.6576289941
 30
0.0
 11
250.9991507923
 21
153.6576289941
 31
0.0
  0
LINE
  5
2DD
100
AcDbEntity
  8
2655_1 RAHMEN
390
0
100
AcDbLine
 10
261.9991507923
 20
139.6576289941
 30
0.0
 11
263.9991507923
 21
139.6576289941
 31
0.0
  0
LINE
  5
2DE
100
AcDbEntity
  8
2655_1 RAHMEN
390
0
100
AcDbLine
 10
265.9991507923
 20
153.6576289941
 30
0.0
 11
250.9991507923
 21
153.6576289941
 31
0.0
  0
LINE
  5
2DF
100
AcDbEntity
  8
2655_1 RAHMEN
390
0
100
AcDbLine
 10
261.9991507923
 20
112.6576289941
 30
0.0
 11
263.9991507923
 21
112.6576289941
 31
0.0
  0
LINE
  5
2E0
100
AcDbEntity
  8
2655_1 RAHMEN
390
0
100
AcDbLine
 10
261.9991507923
 20
108.6576289941
 30
0.0
 11
261.9991507923
 21
153.6576289941
 31
0.0
  0
LINE
  5
2E1
100
AcDbEntity
  8
2655_1 RAHMEN
390
0
100
AcDbLine
 10
261.9991507923
 20
108.6576289941
 30
0.0
 11
276.9991507923
 21
108.6576289941
 31
0.0
  0
LINE
  5
2E2
100
AcDbEntity
  8
2655_1 RAHMEN
390
0
  6
DASHED
100
AcDbLine
 10
263.9991507923
 20
108.6576289941
 30
0.0
 11
263.9991507923
 21
153.6576289941
 31
0.0
  0
LINE
  5
2E3
100
AcDbEntity
  8
2655_1 RAHMEN
390
0
100
AcDbLine
 10
261.9991507923
 20
117.6576289941
 30
0.0
 11
263.9991507923
 21
117.6576289941
 31
0.0
  0
LINE
  5
2E4
102
{ACAD_REACTORS
330
355
102
}
100
AcDbEntity
  8
2655_1 RAHMEN
390
0
  6
DOT
100
AcDbLine
 10
272.9991507923
 20
133.6576289941
 30
0.0
 11
276.9991507923
 21
133.6576289941
 31
0.0
  0
LINE
  5
2E5
100
AcDbEntity
  8
2655_1 RAHMEN
390
0
100
AcDbLine
 10
265.9991507923
 20
112.6576289941
 30
0.0
 11
263.9991507923
 21
112.6576289941
 31
0.0
  0
LINE
  5
2E6
102
{ACAD_REACTORS
330
355
102
}
100
AcDbEntity
  8
2655_1 RAHMEN
390
0
100
AcDbLine
 10
276.9991507923
 20
108.6576289941
 30
0.0
 11
276.9991507923
 21
153.6576289941
 31
0.0
  0
LINE
  5
2E7
100
AcDbEntity
  8
2655_1 RAHMEN
390
0
  6
DASHED
100
AcDbLine
 10
263.9991507923
 20
108.6576289941
 30
0.0
 11
263.9991507923
 21
153.6576289941
 31
0.0
  0
LINE
  5
2E8
100
AcDbEntity
  8
2655_1 RAHMEN
390
0
100
AcDbLine
 10
265.9991507923
 20
139.6576289941
 30
0.0
 11
263.9991507923
 21
139.6576289941
 31
0.0
  0
LINE
  5
2E9
100
AcDbEntity
  8
2655_1 RAHMEN
390
0
100
AcDbLine
 10
265.9991507923
 20
133.6576289941
 30
0.0
 11
263.9991507923
 21
133.6576289941
 31
0.0
  0
LINE
  5
2EA
100
AcDbEntity
  8
2655_1 RAHMEN
390
0
100
AcDbLine
 10
265.9991507923
 20
117.6576289941
 30
0.0
 11
263.9991507923
 21
117.6576289941
 31
0.0
  0
TEXT
  5
2EB
100
AcDbEntity
  8
BESCHRIFTUNG
390
0
  6
PHANTOM
100
AcDbText
 10
258.3363597596
 20
92.4515514774
 30
0.0
 40
3.0
  1
unten
 50
90.0
 41
1.1351367906
  7
Arial
 11
255.3363597596
 21
92.4515514774
 31
0.0
100
AcDbText
 73
         3
  0
TEXT
  5
2EC
100
AcDbEntity
  8
BESCHRIFTUNG
390
0
  6
PHANTOM
100
AcDbText
 10
271.9617122328
 20
93.0246966433
 30
0.0
 40
3.0
  1
oben
 50
90.0
 41
1.1351449725
  7
Arial
 11
268.9617122328
 21
93.0246966433
 31
0.0
100
AcDbText
 73
         3
  0
MTEXT
  5
2ED
100
AcDbEntity
  8
BESCHRIFTUNG
390
0
100
AcDbMText
 10
260.9297849068
 20
110.6580506203
 30
0.0
 40
2.0
 41
0.0
 71
         7
 72
         1
  1
\W1.135062;alle\P@2,5
  7
Arial
 11
0.0
 21
1.0
 31
0.0
 73
         1
 44
0.66
  0
TEXT
  5
2EE
100
AcDbEntity
  8
BESCHRIFTUNG
390
0
100
AcDbText
 10
278.9371693011
 20
158.0089320988
 30
0.0
 40
3.0
  1
man. absägen
 50
90.0
 41
1.1351083706
  7
Arial
 11
275.9371693011
 21
158.0089320988
 31
0.0
100
AcDbText
 73
         3
  0
TEXT
  5
2EF
100
AcDbEntity
  8
BESCHRIFTUNG
390
0
100
AcDbText
 10
271.818928944
 20
115.0522566966
 30
0.0
 40
2.0
  1
Ø4
 50
90.0
 41
1.1350649007
  7
Arial
100
AcDbText
  0
TEXT
  5
2F0
100
AcDbEntity
  8
BESCHRIFTUNG
390
0
100
AcDbText
 10
272.3396663609
 20
128.2789870854
 30
0.0
 40
2.0
  1
Ø2
 50
90.0
 41
1.1350645962
  7
Arial
100
AcDbText
  0
CIRCLE
  5
2F1
102
{ACAD_REACTORS
330
355
102
}
100
AcDbEntity
  8
2655_99P
390
0
100
AcDbCircle
 10
272.9991507923
 20
134.6576289941
 30
0.0
 40
1.0
  0
CIRCLE
  5
2F2
100
AcDbEntity
  8
2655_99P
390
0
100
AcDbCircle
 10
272.9991507923
 20
126.1576289941
 30
0.0
 40
1.0
  0
LINE
  5
2F3
100
AcDbEntity
  8
2655___ W-_ GSP-_ SIGNAL-ANTRIEB
390
0
100
AcDbLine
 10
248.9991507923
 20
108.6576289941
 30
0.0
 11
248.9991507923
 21
153.6576289941
 31
0.0
  0
LINE
  5
2F4
100
AcDbEntity
  8
2655___ W-_ GSP-_ SIGNAL-ANTRIEB
390
0
100
AcDbLine
 10
278.9991507923
 20
108.6576289941
 30
0.0
 11
278.9991507923
 21
153.6576289941
 31
0.0
  0
ARC
  5
2F5
100
AcDbEntity
  8
2655___ W-_ GSP-_ SIGNAL-ANTRIEB
390
0
  6
DASHDOT
100
AcDbCircle
 10
304.649764402
 20
131.157628994
 30
0.0
 40
60.408946317
100
AcDbArc
 50
157.1067621435
 51
202.8932378563
  0
CIRCLE
  5
2F6
100
AcDbEntity
  8
2655_99P
390
0
  6
PHANTOM
100
AcDbCircle
 10
248.9991507923
 20
107.6576289941
 30
0.0
 40
1.0
  0
CIRCLE
  5
2F7
100
AcDbEntity
  8
2655_99P
390
0
  6
PHANTOM
100
AcDbCircle
 10
248.9991507923
 20
154.6576289941
 30
0.0
 40
0.5
  0
MTEXT
  5
2F8
100
AcDbEntity
  8
2655___ W-_ GSP-_ SIGNAL-ANTRIEB
390
0
100
AcDbMText
 10
242.564098256
 20
135.3042682836
 30
0.0
 40
2.0
 41
0.0
 71
         5
 72
         1
  1
\W0.810848;>2655.99P\PM15x30x15\PT2 O2
  7
Arial
 73
         1
 44
0.66
  0
MTEXT
  5
2F9
100
AcDbEntity
  8
2655_99P
390
0
100
AcDbMText
 10
239.4844794834
 20
160.1809357247
 30
0.0
 40
2.0
 41
0.0
 71
         1
 72
         1
  1
\W1.135101;M15x30x15 F150\PT2 O2 S4 I1,2\PB-0,3     D1,2
  7
Arial
 73
         1
 44
0.66
  0
LINE
  5
2FA
100
AcDbEntity
  8
2655_99P
390
0
  6
DIVIDE
100
AcDbLine
 10
248.9991507923
 20
107.6576289941
 30
0.0
 11
278.9991507923
 21
107.6576289941
 31
0.0
  0
LINE
  5
2FB
100
AcDbEntity
  8
2655_99P
390
0
  6
DIVIDE
100
AcDbLine
 10
248.9991507923
 20
154.6576289941
 30
0.0
 11
278.9991507923
 21
154.6576289941
 31
0.0
  0
LINE
  5
2FC
100
AcDbEntity
  8
2655_99P
390
0
  6
DASHED
100
AcDbLine
 10
278.9991507923
 20
154.6576289941
 30
0.0
 11
259.9991507923
 21
150.1576289941
 31
0.0
  0
LINE
  5
2FD
100
AcDbEntity
  8
2655_99P
390
0
  6
DASHED
100
AcDbLine
 10
259.9991507923
 20
150.1576289941
 30
0.0
 11
259.9991507923
 21
146.1576289941
 31
0.0
  0
LINE
  5
2FE
100
AcDbEntity
  8
2655_99P
390
0
  6
DASHED
100
AcDbLine
 10
259.9991507923
 20
146.1576289941
 30
0.0
 11
272.9991507923
 21
134.6576289941
 31
0.0
  0
LINE
  5
2FF
100
AcDbEntity
  8
2655_99P
390
0
  6
DASHED
100
AcDbLine
 10
272.9991507923
 20
134.6576289941
 30
0.0
 11
272.9991507923
 21
126.1576289941
 31
0.0
  0
LINE
  5
300
100
AcDbEntity
  8
2655_99P
390
0
  6
DASHED
100
AcDbLine
 10
272.9991507923
 20
126.1576289941
 30
0.0
 11
254.9991507923
 21
126.1576289941
 31
0.0
  0
LINE
  5
301
100
AcDbEntity
  8
2655_99P
390
0
  6
DASHED
100
AcDbLine
 10
272.9991507923
 20
121.6576289941
 30
0.0
 11
272.9991507923
 21
112.6576289941
 31
0.0
  0
LINE
  5
302
100
AcDbEntity
  8
2655_99P
390
0
  6
DASHED
100
AcDbLine
 10
254.9991507923
 20
126.1576289941
 30
0.0
 11
272.9991507923
 21
121.6576289941
 31
0.0
  0
LINE
  5
303
100
AcDbEntity
  8
2655_99P
390
0
  6
DASHED
100
AcDbLine
 10
272.9991507923
 20
112.6576289941
 30
0.0
 11
278.9991507923
 21
107.6576289941
 31
0.0
  0
INSERT
  5
304
100
AcDbEntity
  8
BEMAßUNG
390
0
100
AcDbBlockReference
  2
D405888768
 10
0.0
 20
0.0
 30
0.0
  0
ARC
  5
305
100
AcDbEntity
  8
2655_6Q
390
0
  6
DASHDOT
100
AcDbCircle
 10
275.5018709548
 20
51.3665175532
 30
0.0
 40
10.6135292655
100
AcDbArc
 50
136.9143872695
 51
223.0856127305
  0
ARC
  5
306
100
AcDbEntity
  8
2655_6Q
390
0
  6
DASHDOT
100
AcDbCircle
 10
283.5018709548
 20
51.3665175532
 30
0.0
 40
10.6135292655
100
AcDbArc
 50
136.9143872695
 51
223.0856127305
  0
CIRCLE
  5
307
100
AcDbEntity
  8
2655_6Q
390
0
  6
PHANTOM
100
AcDbCircle
 10
267.7504515061
 20
58.6165175532
 30
0.0
 40
0.5
  0
CIRCLE
  5
308
100
AcDbEntity
  8
2655_6Q
390
0
  6
PHANTOM
100
AcDbCircle
 10
283.7504515061
 20
58.6165175532
 30
0.0
 40
1.0
  0
ARC
  5
309
100
AcDbEntity
  8
2655___ W-_ GSP-_ SIGNAL-ANTRIEB
390
0
  6
DASHDOT
100
AcDbCircle
 10
275.7504515061
 20
42.1293016476
 30
0.0
 40
18.3256183611
100
AcDbArc
 50
64.116205361
 51
115.883794639
  0
MTEXT
  5
30A
100
AcDbEntity
  8
2655_6Q
390
0
100
AcDbMText
 10
274.1947027558
 20
50.8810159886
 30
0.0
 40
1.5
 41
0.0
 71
         5
 72
         1
  1
\W0.648575;>2655.6P\PM10+x5\PT5 O2
  7
Arial
 73
         1
 44
0.66
  0
MTEXT
  5
30B
100
AcDbEntity
  8
2655_6Q
390
0
100
AcDbMText
 10
266.1947027558
 20
50.8810159886
 30
0.0
 40
1.5
 41
0.0
 71
         5
 72
         1
  1
\W0.648575;>2655.6P\PM10+x5\PT5 O2
  7
Arial
 73
         1
 44
0.66
  0
MTEXT
  5
30C
100
AcDbEntity
  8
2655_6Q
390
0
100
AcDbMText
 10
266.9597736776
 20
60.2396304957
 30
0.0
 40
2.0
 41
0.0
 71
         5
 72
         1
  1
\W0.648577;M20+x5 F150\PT5 O2 S6 I1,2\PB-0,5   D3
  7
Arial
 73
         1
 44
0.66
  0
MTEXT
  5
30D
100
AcDbEntity
  8
2655___ W-_ GSP-_ SIGNAL-ANTRIEB
390
0
100
AcDbMText
 10
277.758414367
 20
59.2796374926
 30
0.0
 40
2.0
 41
0.0
 71
         5
 72
         1
  1
\W0.810846;>2655.6Q\PM50+x5\PT5 O2
  7
Arial
 73
         1
 44
0.66
  0
MTEXT
  5
30E
100
AcDbEntity
  8
BESCHRIFTUNG
390
0
100
AcDbMText
 10
243.274481963
 20
73.3054649434
 30
0.0
 40
3.0
 41
0.0
 71
         1
 72
         1
  1
\W1.135112;\L2655.6Q\P= 2x2655.6P
  7
Arial
 73
         1
 44
0.66
  0
LINE
  5
30F
100
AcDbEntity
  8
2655_6Q
390
0
  6
HIDDEN
100
AcDbLine
 10
267.7504515061
 20
44.1165175532
 30
0.0
 11
275.7504515061
 21
58.6165175532
 31
0.0
  0
LINE
  5
310
100
AcDbEntity
  8
2655_6Q
390
0
  6
HIDDEN
100
AcDbLine
 10
275.7504515061
 20
44.1165175532
 30
0.0
 11
283.7504515061
 21
58.6165175532
 31
0.0
  0
INSERT
  5
311
100
AcDbEntity
  8
BEMAßUNG
390
0
100
AcDbBlockReference
  2
D405825280
 10
0.0
 20
0.0
 30
0.0
  0
LINE
  5
312
100
AcDbEntity
  8
2655_3R
390
0
  6
DIVIDE
100
AcDbLine
 10
113.2950612483
 20
58.13564105
 30
0.0
 11
97.2950612483
 21
58.13564105
 31
0.0
  0
LINE
  5
313
100
AcDbEntity
  8
2655_3L
390
0
100
AcDbLine
 10
94.2950612483
 20
73.7734415563
 30
0.0
 11
82.2950612483
 21
73.7734415563
 31
0.0
  0
LINE
  5
314
100
AcDbEntity
  8
2655_3L
390
0
100
AcDbLine
 10
94.2950612483
 20
79.1395103036
 30
0.0
 11
94.2950612483
 21
73.7734415563
 31
0.0
  0
LINE
  5
315
100
AcDbEntity
  8
2655_3 DREHHEBEL
390
0
100
AcDbLine
 10
95.2950612483
 20
79.1395103036
 30
0.0
 11
101.8322269697
 21
79.1395103034
 31
0.0
  0
LINE
  5
316
100
AcDbEntity
  8
2655_3R
390
0
100
AcDbLine
 10
103.6950612483
 20
74.85564105
 30
0.0
 11
103.6950612483
 21
70.1041691874
 31
0.0
  0
LINE
  5
317
100
AcDbEntity
  8
2655_3 DREHHEBEL
390
0
100
AcDbLine
 10
95.2950612483
 20
72.7734415563
 30
0.0
 11
82.2950612483
 21
72.7734415563
 31
0.0
  0
LINE
  5
318
100
AcDbEntity
  8
2655_3 DREHHEBEL
390
0
100
AcDbLine
 10
97.2950612483
 20
79.1395103036
 30
0.0
 11
97.2950612483
 21
59.13564105
 31
0.0
  0
LINE
  5
319
100
AcDbEntity
  8
2655_3 DREHHEBEL
390
0
100
AcDbLine
 10
82.2950612483
 20
72.7734415563
 30
0.0
 11
82.2950612483
 21
59.13564105
 31
0.0
  0
LINE
  5
31A
100
AcDbEntity
  8
2655_3 DREHHEBEL
390
0
100
AcDbLine
 10
95.2950612483
 20
79.1395103036
 30
0.0
 11
95.2950612483
 21
72.7734415563
 31
0.0
  0
TEXT
  5
31B
100
AcDbEntity
  8
BESCHRIFTUNG
390
0
100
AcDbText
 10
77.0649119512
 20
88.8094952079
 30
0.0
 40
3.0
  1
2655.3
 41
1.1351382053
  7
Arial
 11
77.0649119512
 21
91.8094952079
 31
0.0
100
AcDbText
 73
         3
  0
MTEXT
  5
31C
100
AcDbEntity
  8
2655_3L
390
0
100
AcDbMText
 10
74.299957937
 20
85.9734735546
 30
0.0
 40
2.0
 41
0.0
 71
         1
 72
         1
  1
\W0.810867;M15x15x2 F150\PT2 O2 S4 I1,2\PB-0,3     D1,5
  7
Arial
 73
         1
 44
0.66
  0
MTEXT
  5
31D
100
AcDbEntity
  8
2655_3R
390
0
100
AcDbMText
 10
90.3671677281
 20
85.9734735546
 30
0.0
 40
2.0
 41
0.0
 71
         1
 72
         1
  1
\W0.810867;M15x15x2 F150\PT2 O2 S4 I1,2\PB-0,3     D1,5
  7
Arial
 73
         1
 44
0.66
  0
MTEXT
  5
31E
100
AcDbEntity
  8
2655___ W-_ GSP-_ SIGNAL-ANTRIEB
390
0
100
AcDbMText
 10
75.7393124981
 20
68.5379399918
 30
0.0
 40
2.0
 41
0.0
 71
         5
 72
         1
  1
\W0.810845;>2655.3L\PM15x15x2\PT2 O2
  7
Arial
 73
         1
 44
0.66
  0
CIRCLE
  5
31F
100
AcDbEntity
  8
2655_3R
390
0
100
AcDbCircle
 10
99.2950612483
 20
64.85564105
 30
0.0
 40
1.25
  0
CIRCLE
  5
320
100
AcDbEntity
  8
2655_3L
390
0
100
AcDbCircle
 10
87.2915396904
 20
62.7734394898
 30
0.0
 40
1.25
  0
ARC
  5
321
100
AcDbEntity
  8
2655_3R
390
0
100
AcDbCircle
 10
104.2950612483
 20
74.85564105
 30
0.0
 40
0.6
100
AcDbArc
 50
0.0
 51
180.0
  0
ARC
  5
322
100
AcDbEntity
  8
2655_3R
390
0
100
AcDbCircle
 10
109.2950612483
 20
69.85564105
 30
0.0
 40
0.6
100
AcDbArc
 50
270.0
 51
450.0
  0
ARC
  5
323
100
AcDbEntity
  8
2655_3R
390
0
100
AcDbCircle
 10
102.4946754586
 20
68.0552552602
 30
0.0
 40
0.6
100
AcDbArc
 50
134.9999999997
 51
315.0000000004
  0
CIRCLE
  5
324
100
AcDbEntity
  8
2655_3R
390
0
  6
DIVIDE
100
AcDbCircle
 10
100.7950612483
 20
63.35564105
 30
0.0
 40
1.0
  0
CIRCLE
  5
325
100
AcDbEntity
  8
2655_3R
390
0
  6
DIVIDE
100
AcDbCircle
 10
102.2903655734
 20
61.8603367249
 30
0.0
 40
1.0
  0
CIRCLE
  5
326
100
AcDbEntity
  8
2655_3L
390
0
  6
PHANTOM
100
AcDbCircle
 10
82.2950612483
 20
80.1395103041
 30
0.0
 40
0.5
  0
CIRCLE
  5
327
100
AcDbEntity
  8
2655_3L
390
0
  6
PHANTOM
100
AcDbCircle
 10
82.2950612483
 20
58.13564105
 30
0.0
 40
1.0
  0
CIRCLE
  5
328
100
AcDbEntity
  8
2655_3R
390
0
  6
PHANTOM
100
AcDbCircle
 10
97.2917809223
 20
80.1395103036
 30
0.0
 40
0.5
  0
CIRCLE
  5
329
100
AcDbEntity
  8
2655_3R
390
0
  6
PHANTOM
100
AcDbCircle
 10
97.2950612483
 20
58.13564105
 30
0.0
 40
1.0
  0
ARC
  5
32A
100
AcDbEntity
  8
2655___ W-_ GSP-_ SIGNAL-ANTRIEB
390
0
  6
DASHDOT
100
AcDbCircle
 10
87.4826415434
 20
69.1375756771
 30
0.0
 40
12.1636160272
100
AcDbArc
 50
115.2445938472
 51
244.7554061528
  0
ARC
  5
32B
100
AcDbEntity
  8
2655_3 DREHHEBEL
390
0
100
AcDbCircle
 10
99.2950612483
 20
64.35564105
 30
0.0
 40
15.0
100
AcDbArc
 50
29.9264348666
 51
80.2619246785
  0
ARC
  5
32C
100
AcDbEntity
  8
2655_3 DREHHEBEL
390
0
100
AcDbCircle
 10
102.4946754586
 20
68.0552552602
 30
0.0
 40
1.6
100
AcDbArc
 50
134.9999999997
 51
314.9999999996
  0
ARC
  5
32D
100
AcDbEntity
  8
2655_3 DREHHEBEL
390
0
100
AcDbCircle
 10
104.2950612483
 20
74.85564105
 30
0.0
 40
1.6
100
AcDbArc
 50
360.0
 51
540.0
  0
CIRCLE
  5
32E
100
AcDbEntity
  8
2655_3 DREHHEBEL
390
0
100
AcDbCircle
 10
99.2950612483
 20
64.85564105
 30
0.0
 40
0.5
  0
ARC
  5
32F
100
AcDbEntity
  8
2655_3 DREHHEBEL
390
0
100
AcDbCircle
 10
109.2950612483
 20
69.85564105
 30
0.0
 40
1.6
100
AcDbArc
 50
270.0
 51
450.0
  0
CIRCLE
  5
330
100
AcDbEntity
  8
2655_3 DREHHEBEL
390
0
100
AcDbCircle
 10
102.2903655734
 20
61.8603367249
 30
0.0
 40
0.5
  0
CIRCLE
  5
331
100
AcDbEntity
  8
2655_3 DREHHEBEL
390
0
100
AcDbCircle
 10
100.7950612483
 20
63.35564105
 30
0.0
 40
0.5
  0
ARC
  5
332
100
AcDbEntity
  8
2655_3R
390
0
100
AcDbCircle
 10
99.2950612483
 20
64.35564105
 30
0.0
 40
16.0
100
AcDbArc
 50
29.4912519884
 51
80.5718603215
  0
LINE
  5
333
100
AcDbEntity
  8
2655_3R
390
0
100
AcDbLine
 10
104.8950612483
 20
70.45564105
 30
0.0
 11
104.8950612483
 21
74.85564105
 31
0.0
  0
LINE
  5
334
100
AcDbEntity
  8
2655_3R
390
0
100
AcDbLine
 10
109.2950612483
 20
70.45564105
 30
0.0
 11
104.8950612483
 21
70.45564105
 31
0.0
  0
LINE
  5
335
100
AcDbEntity
  8
2655_3R
390
0
100
AcDbLine
 10
109.2950612483
 20
69.25564105
 30
0.0
 11
104.9163815919
 21
69.25564105
 31
0.0
  0
LINE
  5
336
100
AcDbEntity
  8
2655_3R
390
0
100
AcDbLine
 10
102.0704113899
 20
68.4795193289
 30
0.0
 11
103.6950612483
 21
70.1041691874
 31
0.0
  0
LINE
  5
337
100
AcDbEntity
  8
2655_3L
390
0
  6
DIVIDE
100
AcDbLine
 10
82.2950612483
 20
80.1395103041
 30
0.0
 11
97.2950612483
 21
80.1395103045
 31
0.0
  0
LINE
  5
338
100
AcDbEntity
  8
2655_3L
390
0
  6
DIVIDE
100
AcDbLine
 10
97.2950612483
 20
58.13564105
 30
0.0
 11
82.2950612483
 21
58.13564105
 31
0.0
  0
LINE
  5
339
100
AcDbEntity
  8
2655_3L
390
0
  6
DASHED
100
AcDbLine
 10
97.2950612483
 20
80.1395103045
 30
0.0
 11
94.2950612483
 21
79.1395103036
 31
0.0
  0
LINE
  5
33A
100
AcDbEntity
  8
2655_3L
390
0
  6
DASHED
100
AcDbLine
 10
82.2950612483
 20
73.7734415563
 30
0.0
 11
93.2950612483
 21
65.2734415563
 31
0.0
  0
LINE
  5
33B
100
AcDbEntity
  8
2655_3L
390
0
  6
DASHED
100
AcDbLine
 10
87.2915396904
 20
62.7734394898
 30
0.0
 11
97.2950612483
 21
58.13564105
 31
0.0
  0
LINE
  5
33C
100
AcDbEntity
  8
2655_3R
390
0
  6
DASHED
100
AcDbLine
 10
104.5728787076
 20
69.2849303719
 30
0.0
 11
99.2950612483
 21
64.85564105
 31
0.0
  0
LINE
  5
33D
100
AcDbEntity
  8
2655_3R
390
0
  6
DASHED
100
AcDbLine
 10
99.2950612483
 20
64.85564105
 30
0.0
 11
100.7950612483
 21
63.35564105
 31
0.0
  0
LINE
  5
33E
100
AcDbEntity
  8
2655_3L
390
0
100
AcDbLine
 10
93.2950612483
 20
63.2734415563
 30
0.0
 11
93.2950612483
 21
64.7392250288
 31
0.0
  0
LINE
  5
33F
100
AcDbEntity
  8
2655_3L
390
0
100
AcDbLine
 10
94.2950612483
 20
65.2734415563
 30
0.0
 11
94.2950612483
 21
63.2734415563
 31
0.0
  0
LINE
  5
340
100
AcDbEntity
  8
2655_3L
390
0
100
AcDbLine
 10
93.2950612483
 20
65.2734415563
 30
0.0
 11
94.2950612483
 21
65.2734415563
 31
0.0
  0
LINE
  5
341
100
AcDbEntity
  8
2655_3L
390
0
100
AcDbLine
 10
94.2950612483
 20
63.2734415563
 30
0.0
 11
93.2950612483
 21
63.2734415563
 31
0.0
  0
LINE
  5
342
100
AcDbEntity
  8
2655_3L
390
0
  6
DASHED
100
AcDbLine
 10
93.2950612483
 20
64.7392250288
 30
0.0
 11
87.2915396904
 21
62.7734394898
 31
0.0
  0
LINE
  5
343
100
AcDbEntity
  8
2655_3 DREHHEBEL
390
0
100
AcDbLine
 10
95.2950612483
 20
66.2734415563
 30
0.0
 11
95.2950612483
 21
62.2734415563
 31
0.0
  0
LINE
  5
344
100
AcDbEntity
  8
2655_3 DREHHEBEL
390
0
100
AcDbLine
 10
95.2950612483
 20
62.2734415563
 30
0.0
 11
92.2950612483
 21
62.2734415563
 31
0.0
  0
LINE
  5
345
100
AcDbEntity
  8
2655_3 DREHHEBEL
390
0
100
AcDbLine
 10
92.2950612483
 20
62.2734415563
 30
0.0
 11
92.2950612483
 21
66.2734415563
 31
0.0
  0
LINE
  5
346
100
AcDbEntity
  8
2655_3 DREHHEBEL
390
0
100
AcDbLine
 10
92.2950612483
 20
66.2734415563
 30
0.0
 11
95.2950612483
 21
66.2734415563
 31
0.0
  0
LINE
  5
347
100
AcDbEntity
  8
2655_3R
390
0
100
AcDbLine
 10
102.9189395273
 20
67.6309911915
 30
0.0
 11
104.5728787076
 21
69.2849303719
 31
0.0
  0
LINE
  5
348
100
AcDbEntity
  8
2655_3 DREHHEBEL
390
0
100
AcDbLine
 10
109.2950612483
 20
68.25564105
 30
0.0
 11
104.9578029481
 21
68.25564105
 31
0.0
  0
LINE
  5
349
100
AcDbEntity
  8
2655_3 DREHHEBEL
390
0
100
AcDbLine
 10
109.2950612483
 20
71.45564105
 30
0.0
 11
105.8950612483
 21
71.45564105
 31
0.0
  0
LINE
  5
34A
100
AcDbEntity
  8
2655_3 DREHHEBEL
390
0
100
AcDbLine
 10
105.8950612483
 20
71.45564105
 30
0.0
 11
105.8950612483
 21
74.85564105
 31
0.0
  0
LINE
  5
34B
100
AcDbEntity
  8
2655_3 DREHHEBEL
390
0
100
AcDbLine
 10
102.6950612483
 20
74.85564105
 30
0.0
 11
102.6950612483
 21
70.5183827498
 31
0.0
  0
LINE
  5
34C
100
AcDbEntity
  8
2655_3 DREHHEBEL
390
0
100
AcDbLine
 10
104.9578029481
 20
68.25564105
 30
0.0
 11
103.6260463084
 21
66.9238844103
 31
0.0
  0
LINE
  5
34D
100
AcDbEntity
  8
2655_3 DREHHEBEL
390
0
100
AcDbLine
 10
101.3633046087
 20
69.1866261101
 30
0.0
 11
102.6950612483
 21
70.5183827498
 31
0.0
  0
LINE
  5
34E
100
AcDbEntity
  8
2655_3 DREHHEBEL
390
0
100
AcDbLine
 10
112.2950612483
 20
71.8389558235
 30
0.0
 11
112.2950612483
 21
59.13564105
 31
0.0
  0
LINE
  5
34F
100
AcDbEntity
  8
2655_3 DREHHEBEL
390
0
100
AcDbLine
 10
112.2950612483
 20
59.13564105
 30
0.0
 11
82.2950612483
 21
59.13564105
 31
0.0
  0
LINE
  5
350
100
AcDbEntity
  8
2655_3R
390
0
  6
DASHED
100
AcDbLine
 10
113.2219551654
 20
72.2322917229
 30
0.0
 11
104.9163815919
 21
69.25564105
 31
0.0
  0
LINE
  5
351
100
AcDbEntity
  8
2655_3R
390
0
  6
DASHED
100
AcDbLine
 10
102.2903655734
 20
61.8603367249
 30
0.0
 11
113.2950612483
 21
58.13564105
 31
0.0
  0
LINE
  5
352
100
AcDbEntity
  8
2655_3R
390
0
  6
DIVIDE
100
AcDbLine
 10
97.2917809223
 20
80.1395103036
 30
0.0
 11
101.9160288923
 21
80.1395103034
 31
0.0
  0
LINE
  5
353
100
AcDbEntity
  8
2655_3R
390
0
  6
DASHED
100
AcDbLine
 10
100.7950612483
 20
63.35564105
 30
0.0
 11
102.2903655734
 21
61.8603367249
 31
0.0
  0
INSERT
  5
354
100
AcDbEntity
  8
2655_12 SIGNALPLATTE
390
0
100
AcDbBlockReference
  2
_A407156080
 10
273.4493103027
 20
142.8307647705
 30
0.0
  0
HATCH
  5
355
100
AcDbEntity
  8
SCHRAFFUR
370
        25
390
0
100
AcDbHatch
 10
0.0
 20
0.0
 30
0.0
210
0.0
220
0.0
230
1.0
  2
ANSI31
 70
         0
 71
         1
 91
        1
 92
        5
 93
        5
 72
         2
 10
272.99915079229243
 20
134.65762899411254
 40
1.0
 50
180.0
 51
450.0
 73
         0
 72
         1
 10
272.99915079229243
 20
133.65762899411254
 11
276.99915079229243
 21
133.65762899411254
 72
         1
 10
276.99915079229243
 20
133.65762899411254
 11
276.99915079229243
 21
153.65762899411254
 72
         1
 10
276.99915079229243
 20
153.65762899411254
 11
271.99915079229243
 21
153.65762899411254
 72
         1
 10
271.99915079229243
 20
153.65762899411254
 11
271.99915079229243
 21
134.65762899411254
 97
        0
 75
         0
 76
         1
 52
0.0
 41
24.0
 77
         0
 78
         1
 53
135.0
 43
0.0
 44
0.0
 45
-2.1213203435596428
 46
-2.1213203435596424
 79
         0
 47
1.224757
 98
        1
 10
272.9991607922924
 20
133.65762899411254
  0
LINE
  5
356
100
AcDbEntity
  8
STANDARD
390
0
100
AcDbLine
 10
292.0
 20
200.0
 30
0.0
 11
5.0
 21
200.0
 31
0.0
  0
LINE
  5
357
100
AcDbEntity
  8
STANDARD
390
0
100
AcDbLine
 10
10.0
 20
195.0
 30
0.0
 11
10.0
 21
5.0
 31
0.0
  0
LINE
  5
358
100
AcDbEntity
  8
STANDARD
390
0
100
AcDbLine
 10
5.0
 20
200.0
 30
0.0
 11
5.0
 21
195.0
 31
0.0
  0
LINE
  5
359
100
AcDbEntity
  8
STANDARD
390
0
100
AcDbLine
 10
292.0
 20
200.0
 30
0.0
 11
292.0
 21
195.0
 31
0.0
  0
LINE
  5
35A
100
AcDbEntity
  8
STANDARD
390
0
100
AcDbLine
 10
52.8333333333
 20
200.0
 30
0.0
 11
52.8333333333
 21
195.0
 31
0.0
  0
LINE
  5
35B
100
AcDbEntity
  8
STANDARD
390
0
100
AcDbLine
 10
100.6666666667
 20
200.0
 30
0.0
 11
100.6666666667
 21
195.0
 31
0.0
  0
LINE
  5
35C
100
AcDbEntity
  8
STANDARD
390
0
100
AcDbLine
 10
148.5
 20
200.0
 30
0.0
 11
148.5
 21
195.0
 31
0.0
  0
LINE
  5
35D
100
AcDbEntity
  8
STANDARD
390
0
100
AcDbLine
 10
196.3333333333
 20
200.0
 30
0.0
 11
196.3333333333
 21
195.0
 31
0.0
  0
LINE
  5
35E
100
AcDbEntity
  8
STANDARD
390
0
100
AcDbLine
 10
244.1666666667
 20
200.0
 30
0.0
 11
244.1666666667
 21
195.0
 31
0.0
  0
LINE
  5
35F
100
AcDbEntity
  8
STANDARD
390
0
100
AcDbLine
 10
5.0
 20
52.5
 30
0.0
 11
10.0
 21
52.5
 31
0.0
  0
LINE
  5
360
100
AcDbEntity
  8
STANDARD
390
0
100
AcDbLine
 10
5.0
 20
100.0
 30
0.0
 11
10.0
 21
100.0
 31
0.0
  0
LINE
  5
361
100
AcDbEntity
  8
STANDARD
390
0
100
AcDbLine
 10
5.0
 20
147.5
 30
0.0
 11
10.0
 21
147.5
 31
0.0
  0
TEXT
  5
362
100
AcDbEntity
  8
STANDARD
390
0
100
AcDbText
 10
27.6214908115
 20
196.4732039063
 30
0.0
 40
2.23125
  1
1
 41
1.5479225906
  7
Arial
 72
         1
 11
28.9166666667
 21
196.4732039063
 31
0.0
100
AcDbText
  0
TEXT
  5
363
100
AcDbEntity
  8
STANDARD
390
0
100
AcDbText
 10
75.0230999712
 20
196.4732039063
 30
0.0
 40
2.23125
  1
2
 41
1.5479215945
  7
Arial
 72
         1
 11
76.75
 21
196.4732039063
 31
0.0
100
AcDbText
  0
TEXT
  5
364
100
AcDbEntity
  8
STANDARD
390
0
100
AcDbText
 10
122.8564319709
 20
196.4732039063
 30
0.0
 40
2.23125
  1
3
 41
1.5479227899
  7
Arial
 72
         1
 11
124.5833333333
 21
196.4732039063
 31
0.0
100
AcDbText
  0
TEXT
  5
365
100
AcDbEntity
  8
STANDARD
390
0
100
AcDbText
 10
170.6897655265
 20
196.4732039063
 30
0.0
 40
2.23125
  1
4
 41
1.5479225906
  7
Arial
 72
         1
 11
172.4166666667
 21
196.4732039063
 31
0.0
100
AcDbText
  0
TEXT
  5
366
100
AcDbEntity
  8
STANDARD
390
0
100
AcDbText
 10
218.5230997489
 20
196.4732039063
 30
0.0
 40
2.23125
  1
5
 41
1.5479217937
  7
Arial
 72
         1
 11
220.25
 21
196.4732039063
 31
0.0
100
AcDbText
  0
TEXT
  5
367
100
AcDbEntity
  8
STANDARD
390
0
100
AcDbText
 10
266.3564321932
 20
196.4732039063
 30
0.0
 40
2.23125
  1
6
 41
1.5479225906
  7
Arial
 72
         1
 11
268.0833333333
 21
196.4732039063
 31
0.0
100
AcDbText
  0
TEXT
  5
368
100
AcDbEntity
  8
STANDARD
390
0
100
AcDbText
 10
5.773027185
 20
172.7232039063
 30
0.0
 40
2.23125
  1
A
 41
1.547986837
  7
Arial
 72
         1
 11
7.5
 21
172.7232039063
 31
0.0
100
AcDbText
  0
TEXT
  5
369
100
AcDbEntity
  8
STANDARD
390
0
100
AcDbText
 10
5.7730267401
 20
125.2232039063
 30
0.0
 40
2.23125
  1
B
 41
1.5479872357
  7
Arial
 72
         1
 11
7.5
 21
125.2232039063
 31
0.0
100
AcDbText
  0
TEXT
  5
36A
100
AcDbEntity
  8
STANDARD
390
0
100
AcDbText
 10
5.7728972752
 20
77.7232039063
 30
0.0
 40
2.23125
  1
C
 41
1.5481032827
  7
Arial
 72
         1
 11
7.5
 21
77.7232039063
 31
0.0
100
AcDbText
  0
TEXT
  5
36B
100
AcDbEntity
  8
STANDARD
390
0
100
AcDbText
 10
5.7728964192
 20
30.2232039062
 30
0.0
 40
2.23125
  1
D
 41
1.54810405
  7
Arial
 72
         1
 11
7.5
 21
30.2232039062
 31
0.0
100
AcDbText
  0
LINE
  5
36C
100
AcDbEntity
  8
STANDARD
390
0
100
AcDbLine
 10
5.0
 20
5.0
 30
0.0
 11
10.0
 21
5.0
 31
0.0
  0
LINE
  5
36D
100
AcDbEntity
  8
STANDARD
390
0
100
AcDbLine
 10
292.0
 20
5.0
 30
0.0
 11
292.0
 21
195.0
 31
0.0
  0
LINE
  5
36E
100
AcDbEntity
  8
STANDARD
390
0
100
AcDbLine
 10
292.0
 20
195.0
 30
0.0
 11
10.0
 21
195.0
 31
0.0
  0
LINE
  5
36F
100
AcDbEntity
  8
STANDARD
390
0
100
AcDbLine
 10
5.0
 20
195.0
 30
0.0
 11
5.0
 21
5.0
 31
0.0
  0
LINE
  5
370
100
AcDbEntity
  8
STANDARD
390
0
100
AcDbLine
 10
296.0
 20
209.0
 30
0.0
 11
1.0
 21
209.0
 31
0.0
  0
LINE
  5
371
100
AcDbEntity
  8
STANDARD
390
0
100
AcDbLine
 10
296.0
 20
1.0
 30
0.0
 11
296.0
 21
209.0
 31
0.0
  0
LINE
  5
372
100
AcDbEntity
  8
STANDARD
390
0
100
AcDbLine
 10
1.0
 20
1.0
 30
0.0
 11
296.0
 21
1.0
 31
0.0
  0
LINE
  5
373
100
AcDbEntity
  8
STANDARD
390
0
100
AcDbLine
 10
1.0
 20
209.0
 30
0.0
 11
1.0
 21
1.0
 31
0.0
  0
LINE
  5
374
100
AcDbEntity
  8
STANDARD
390
0
100
AcDbLine
 10
10.0
 20
195.0
 30
0.0
 11
5.0
 21
195.0
 31
0.0
  0
LINE
  5
375
100
AcDbEntity
  8
STANDARD
390
0
100
AcDbLine
 10
10.0
 20
5.0
 30
0.0
 11
292.0
 21
5.0
 31
0.0
  0
MTEXT
  5
376
100
AcDbEntity
  8
STANDARD
390
0
100
AcDbMText
 10
215.5777227339
 20
6.520569157
 30
0.0
 40
1.59375
 41
0.0
 71
         7
 72
         1
  1

  7
Arial
 73
         1
 44
1.0352941176
  0
MTEXT
  5
377
100
AcDbEntity
  8
STANDARD
390
0
100
AcDbMText
 10
269.4128856935
 20
6.5165742187
 30
0.0
 40
1.59375
 41
0.0
 71
         7
 72
         1
  1

  7
Arial
 73
         1
 44
1.0352941176
  0
MTEXT
  5
378
100
AcDbEntity
  8
STANDARD
390
0
100
AcDbMText
 10
171.2439051502
 20
6.520569157
 30
0.0
 40
1.59375
 41
0.0
 71
         7
 72
         1
  1

  7
Arial
 73
         1
 44
1.0352941176
  0
TEXT
  5
379
100
AcDbEntity
  8
BESCHRIFTUNG
390
0
100
AcDbText
 10
169.1145333333
 20
29.1136
 30
0.0
 40
3.325
  1
Stellwerk HMM
 41
1.3653781858
 51
15.0
  7
Arial
 11
169.1145333333
 21
32.4386
 31
0.0
100
AcDbText
 73
         3
  0
TEXT
  5
37A
100
AcDbEntity
  8
BESCHRIFTUNG
390
0
100
AcDbText
 10
215.5344888889
 20
21.6351111111
 30
0.0
 40
3.325
  1
W-, Gsp- und Signal-Antrieb 
 41
1.1216077706
 51
15.0
  7
Arial
 11
215.5344888889
 21
24.9601111111
 31
0.0
100
AcDbText
 73
         3
  0
TEXT
  5
37B
100
AcDbEntity
  8
BESCHRIFTUNG
390
0
100
AcDbText
 10
169.1145333333
 20
6.8980888889
 30
0.0
 40
3.325
  1
Dateiname
 41
1.1350744463
 51
15.0
  7
Arial
 11
169.1145333333
 21
10.2230888889
 31
0.0
100
AcDbText
 73
         3
  0
TEXT
  5
37C
100
AcDbEntity
  8
BESCHRIFTUNG
390
0
100
AcDbText
 10
169.3344888889
 20
21.6351111111
 30
0.0
 40
3.325
  1
Bl. 2655 P.1h
 41
1.1349235719
 51
15.0
  7
Arial
 11
169.3344888889
 21
24.9601111111
 31
0.0
100
AcDbText
 73
         3
  0
TEXT
  5
37D
100
AcDbEntity
  8
BESCHRIFTUNG
390
0
100
AcDbText
 10
253.1145333333
 20
29.1136
 30
0.0
 40
3.325
  1
Maßstab 1:1
 41
1.1349345608
 51
15.0
  7
Arial
 11
253.1145333333
 21
32.4386
 31
0.0
100
AcDbText
 73
         3
  0
LINE
  5
37E
100
AcDbEntity
  8
STANDARD
370
         0
390
0
100
AcDbLine
 10
168.0194301994
 20
34.4
 30
0.0
 11
291.9134472934
 21
34.4
 31
0.0
  0
LINE
  5
37F
100
AcDbEntity
  8
STANDARD
370
         0
390
0
100
AcDbLine
 10
168.0194301994
 20
27.4
 30
0.0
 11
291.9134472934
 21
27.4
 31
0.0
  0
LINE
  5
380
100
AcDbEntity
  8
STANDARD
370
         0
390
0
100
AcDbLine
 10
168.0194301994
 20
12.0
 30
0.0
 11
291.9134472934
 21
12.0
 31
0.0
  0
LINE
  5
381
100
AcDbEntity
  8
STANDARD
370
         0
390
0
100
AcDbLine
 10
168.0194301994
 20
34.4
 30
0.0
 11
168.0194301994
 21
5.0
 31
0.0
  0
LINE
  5
382
100
AcDbEntity
  8
STANDARD
370
         0
390
0
100
AcDbLine
 10
214.2194301994
 20
34.4
 30
0.0
 11
214.2194301994
 21
5.0
 31
0.0
  0
LINE
  5
383
100
AcDbEntity
  8
STANDARD
370
         0
390
0
100
AcDbLine
 10
252.0194301994
 20
34.4
 30
0.0
 11
252.0194301994
 21
27.4
 31
0.0
  0
ENDSEC
  0
SECTION
  2
OBJECTS
  0
DICTIONARY
  5
19
100
AcDbDictionary
280
         0
281
         1
  3
ACAD_GROUP
350
1A
  3
ACAD_MLINESTYLE
350
1B
  3
ACAD_LAYOUT
350
1E
  3
ACAD_PLOTSETTINGS
350
22
  3
ACAD_PLOTSTYLENAME
350
1F
  3
ACAD_WIPEOUT_VARS
350
23
  0
DICTIONARY
  5
1A
102
{ACAD_REACTORS
330
19
102
}
100
AcDbDictionary
280
         0
281
         1
  0
DICTIONARY
  5
1B
102
{ACAD_REACTORS
330
19
102
}
100
AcDbDictionary
280
         0
281
         1
  3
Standard
350
1C
  0
MLINESTYLE
  5
1C
102
{ACAD_REACTORS
330
1B
102
}
100
AcDbMlineStyle
  2
Standard
 70
         0
  3

 62
         0
 51
90.0
 52
90.0
 71
         2
 49
0.5
 62
       256
  6
ByLayer
 49
-0.5
 62
       256
  6
ByLayer
  0
ACDBDICTIONARYWDFLT
  5
1F
102
{ACAD_REACTORS
330
19
102
}
100
AcDbDictionary
281
         1
  3
Normal
350
1D
100
AcDbDictionaryWithDefault
340
1D
  0
ACDBPLACEHOLDER
  5
1D
102
{ACAD_REACTORS
330
1F
102
}
  0
LAYOUT
  5
20
102
{ACAD_REACTORS
330
1E
102
}
100
AcDbPlotSettings
  1

  2

  4

  6

 40
0.0
 41
0.0
 42
0.0
 43
0.0
 44
0.0
 45
0.0
 46
0.0
 47
0.0
 48
0.0
 49
0.0
140
0.0
141
0.0
142
1.0
143
1.0
 70
      1024
 72
         0
 73
         0
 74
         0
  7

 75
         0
147
1.0
148
0.0
149
0.0
100
AcDbLayout
  1
Model
 70
         0
 71
         0
 10
0.0
 20
0.0
 11
0.0
 21
0.0
 12
0.0
 22
0.0
 32
0.0
 14
0.0
 24
0.0
 34
0.0
 15
0.0
 25
0.0
 35
0.0
146
0.0
 13
0.0
 23
0.0
 33
0.0
 16
0.0
 26
0.0
 36
0.0
 17
0.0
 27
0.0
 37
0.0
 76
         0
330
A
331
0
345
0
346
0
  0
LAYOUT
  5
21
102
{ACAD_REACTORS
330
1E
102
}
100
AcDbPlotSettings
  1

  2

  4

  6

 40
0.0
 41
0.0
 42
0.0
 43
0.0
 44
0.0
 45
0.0
 46
0.0
 47
0.0
 48
0.0
 49
0.0
140
0.0
141
0.0
142
1.0
143
1.0
 70
         0
 72
         0
 73
         0
 74
         0
  7

 75
         0
147
1.0
148
0.0
149
0.0
100
AcDbLayout
  1
Layout1
 70
         0
 71
         0
 10
0.0
 20
0.0
 11
0.0
 21
0.0
 12
0.0
 22
0.0
 32
0.0
 14
0.0
 24
0.0
 34
0.0
 15
0.0
 25
0.0
 35
0.0
146
0.0
 13
0.0
 23
0.0
 33
0.0
 16
0.0
 26
0.0
 36
0.0
 17
0.0
 27
0.0
 37
0.0
 76
         0
330
B
331
0
345
0
346
0
  0
DICTIONARY
  5
1E
102
{ACAD_REACTORS
330
19
102
}
100
AcDbDictionary
280
         0
281
         1
  3
Layout1
350
21
  3
Model
350
20
  0
DICTIONARY
  5
22
102
{ACAD_REACTORS
330
19
102
}
100
AcDbDictionary
280
         0
281
         1
  0
WIPEOUTVARIABLES
  5
23
100
AcDbWipeoutVariables
 70
         1
  0
ENDSEC
  0
EOF
