  0
SECTION
  2
HEADER
  9
$ACADVER
  1
AC1015
  9
$ACADMAINTVER
 70
         6
  9
$DWGCODEPAGE
  3
ANSI_1252
  9
$INSBASE
 10
0.0
 20
0.0
 30
0.0
  9
$EXTMIN
 10
-96.8931884766
 20
0.0
 30
0.0
  9
$EXTMAX
 10
314.9122314453
 20
210.0
 30
0.0
  9
$LIMMIN
 10
-96.8931884766
 20
0.0
  9
$LIMMAX
 10
314.9122314453
 20
210.0
  9
$ORTHOMODE
 70
         0
  9
$REGENMODE
 70
         1
  9
$FILLMODE
 70
         1
  9
$QTEXTMODE
 70
         0
  9
$MIRRTEXT
 70
         1
  9
$LTSCALE
 40
10.295135498
  9
$ATTMODE
 70
         1
  9
$TEXTSIZE
 40
0.2
  9
$TRACEWID
 40
0.05
  9
$TEXTSTYLE
  7
Standard
  9
$CLAYER
  8
0
  9
$CELTYPE
  6
CONTINUOUS
  9
$CECOLOR
 62
       256
  9
$CELTSCALE
 40
1.0
  9
$DISPSILH
 70
         0
  9
$DIMSCALE
 40
1.0
  9
$DIMASZ
 40
0.18
  9
$DIMEXO
 40
0.0625
  9
$DIMDLI
 40
0.38
  9
$DIMRND
 40
0.0
  9
$DIMDLE
 40
0.0
  9
$DIMEXE
 40
0.18
  9
$DIMTP
 40
0.0
  9
$DIMTM
 40
0.0
  9
$DIMTXT
 40
3.0
  9
$DIMCEN
 40
0.09
  9
$DIMTSZ
 40
0.0
  9
$DIMTOL
 70
         0
  9
$DIMLIM
 70
         0
  9
$DIMTIH
 70
         1
  9
$DIMTOH
 70
         1
  9
$DIMSE1
 70
         0
  9
$DIMSE2
 70
         0
  9
$DIMTAD
 70
         1
  9
$DIMZIN
 70
         0
  9
$DIMBLK
  1

  9
$DIMASO
 70
         1
  9
$DIMSHO
 70
         1
  9
$DIMPOST
  1
<>
  9
$DIMAPOST
  1

  9
$DIMALT
 70
         0
  9
$DIMALTD
 70
         2
  9
$DIMALTF
 40
25.4
  9
$DIMLFAC
 40
1.0
  9
$DIMTOFL
 70
         0
  9
$DIMTVP
 40
0.0
  9
$DIMTIX
 70
         0
  9
$DIMSOXD
 70
         0
  9
$DIMSAH
 70
         0
  9
$DIMBLK1
  1

  9
$DIMBLK2
  1

  9
$DIMSTYLE
  2
Standard
  9
$DIMCLRD
 70
         0
  9
$DIMCLRE
 70
         0
  9
$DIMCLRT
 70
         0
  9
$DIMTFAC
 40
1.0
  9
$DIMGAP
 40
0.09
  9
$DIMJUST
 70
         0
  9
$DIMSD1
 70
         0
  9
$DIMSD2
 70
         0
  9
$DIMTOLJ
 70
         1
  9
$DIMTZIN
 70
         0
  9
$DIMALTZ
 70
         0
  9
$DIMALTTZ
 70
         0
  9
$DIMUPT
 70
         0
  9
$DIMDEC
 70
         4
  9
$DIMTDEC
 70
         4
  9
$DIMALTU
 70
         2
  9
$DIMALTTD
 70
         2
  9
$DIMTXSTY
  7
Standard
  9
$DIMAUNIT
 70
         0
  9
$DIMADEC
 70
         0
  9
$DIMALTRND
 40
0.0
  9
$DIMAZIN
 70
         0
  9
$DIMDSEP
 70
         0
  9
$DIMATFIT
 70
         3
  9
$DIMFRAC
 70
         0
  9
$DIMLDRBLK
  1

  9
$DIMLUNIT
 70
         2
  9
$DIMLWD
 70
         0
  9
$DIMLWE
 70
         0
  9
$DIMTMOVE
 70
         0
  9
$LUNITS
 70
         2
  9
$LUPREC
 70
         4
  9
$SKETCHINC
 40
0.1
  9
$FILLETRAD
 40
0.0
  9
$AUNITS
 70
         0
  9
$AUPREC
 70
         0
  9
$MENU
  1
acad
  9
$ELEVATION
 40
0.0
  9
$PELEVATION
 40
0.0
  9
$THICKNESS
 40
0.0
  9
$LIMCHECK
 70
         0
  9
$CHAMFERA
 40
0.0
  9
$CHAMFERB
 40
0.0
  9
$CHAMFERC
 40
0.0
  9
$CHAMFERD
 40
0.0
  9
$SKPOLY
 70
         0
  9
$TDCREATE
 40
0.000000000
  9
$TDUCREATE
 40
0.000000000
  9
$TDUPDATE
 40
0.000000000
  9
$TDUUPDATE
 40
0.000000000
  9
$TDINDWG
 40
0.0000000000
  9
$TDUSRTIMER
 40
0.0000000000
  9
$USRTIMER
 70
         1
  9
$ANGBASE
 50
0.0
  9
$ANGDIR
 70
         0
  9
$PDMODE
 70
         0
  9
$PDSIZE
 40
0.0
  9
$PLINEWID
 40
0.0
  9
$SPLFRAME
 70
         0
  9
$SPLINETYPE
 70
         6
  9
$SPLINESEGS
 70
         8
  9
$HANDSEED
  5
317
  9
$SURFTAB1
 70
         6
  9
$SURFTAB2
 70
         6
  9
$SURFTYPE
 70
         6
  9
$SURFU
 70
         6
  9
$SURFV
 70
         6
  9
$UCSBASE
  2

  9
$UCSNAME
  2

  9
$UCSORG
 10
0.0
 20
0.0
 30
0.0
  9
$UCSXDIR
 10
1.0
 20
0.0
 30
0.0
  9
$UCSYDIR
 10
0.0
 20
1.0
 30
0.0
  9
$UCSORTHOREF
  2

  9
$UCSORTHOVIEW
 70
         0
  9
$UCSORGTOP
 10
0.0
 20
0.0
 30
0.0
  9
$UCSORGBOTTOM
 10
0.0
 20
0.0
 30
0.0
  9
$UCSORGLEFT
 10
0.0
 20
0.0
 30
0.0
  9
$UCSORGRIGHT
 10
0.0
 20
0.0
 30
0.0
  9
$UCSORGFRONT
 10
0.0
 20
0.0
 30
0.0
  9
$UCSORGBACK
 10
0.0
 20
0.0
 30
0.0
  9
$PUCSBASE
  2

  9
$PUCSNAME
  2

  9
$PUCSORG
 10
0.0
 20
0.0
 30
0.0
  9
$PUCSXDIR
 10
1.0
 20
0.0
 30
0.0
  9
$PUCSYDIR
 10
0.0
 20
1.0
 30
0.0
  9
$PUCSORTHOREF
  2

  9
$PUCSORTHOVIEW
 70
         0
  9
$PUCSORGTOP
 10
0.0
 20
0.0
 30
0.0
  9
$PUCSORGBOTTOM
 10
0.0
 20
0.0
 30
0.0
  9
$PUCSORGLEFT
 10
0.0
 20
0.0
 30
0.0
  9
$PUCSORGRIGHT
 10
0.0
 20
0.0
 30
0.0
  9
$PUCSORGFRONT
 10
0.0
 20
0.0
 30
0.0
  9
$PUCSORGBACK
 10
0.0
 20
0.0
 30
0.0
  9
$USERI1
 70
         0
  9
$USERI2
 70
         0
  9
$USERI3
 70
         0
  9
$USERI4
 70
         0
  9
$USERI5
 70
         0
  9
$USERR1
 40
0.0
  9
$USERR2
 40
0.0
  9
$USERR3
 40
0.0
  9
$USERR4
 40
0.0
  9
$USERR5
 40
0.0
  9
$WORLDVIEW
 70
         1
  9
$SHADEDGE
 70
         3
  9
$SHADEDIF
 70
        70
  9
$TILEMODE
 70
         1
  9
$MAXACTVP
 70
        16
  9
$PINSBASE
 10
0.0
 20
0.0
 30
0.0
  9
$PLIMCHECK
 70
         0
  9
$PEXTMIN
 10
1.0000000000E+20
 20
1.0000000000E+20
 30
1.0000000000E+20
  9
$PEXTMAX
 10
-1.0000000000E+20
 20
-1.0000000000E+20
 30
-1.0000000000E+20
  9
$PLIMMIN
 10
0.0
 20
0.0
  9
$PLIMMAX
 10
12.0
 20
9.0
  9
$UNITMODE
 70
         0
  9
$VISRETAIN
 70
         0
  9
$PLINEGEN
 70
         1
  9
$PSLTSCALE
 70
         0
  9
$TREEDEPTH
 70
      3020
  9
$CMLSTYLE
  2
Standard
  9
$CMLJUST
 70
         0
  9
$CMLSCALE
 40
1.0
  9
$PROXYGRAPHICS
 70
         0
  9
$MEASUREMENT
 70
         1
  9
$CELWEIGHT
370
         0
  9
$ENDCAPS
280
         0
  9
$JOINSTYLE
280
         0
  9
$LWDISPLAY
290
         0
  9
$INSUNITS
 70
         0
  9
$HYPERLINKBASE
  1

  9
$STYLESHEET
  1

  9
$XEDIT
290
         1
  9
$CEPSNTYPE
380
         0
  9
$PSTYLEMODE
290
         1
  9
$FINGERPRINTGUID
  2

  9
$VERSIONGUID
  2

  9
$EXTNAMES
290
         1
  9
$PSVPSCALE
 40
0.0
  0
ENDSEC
  0
SECTION
  2
CLASSES
  0
CLASS
  1
LWPOLYLINE
  2
AcDbPolyline
  3
AutoCAD 2000
 90
        0
280
         0
281
         1
  0
CLASS
  1
IMAGE
  2
AcDbRasterImage
  3
ISM
 90
      127
280
         0
281
         1
  0
CLASS
  1
OLE2FRAME
  2
AcDbOle2Frame
  3
AutoCAD 2000
 90
        0
280
         0
281
         1
  0
CLASS
  1
HATCH
  2
AcDbHatch
  3
AutoCAD 2000
 90
        0
280
         0
281
         1
  0
CLASS
  1
DICTIONARYVAR
  2
AcDbDictionaryVar
  3
AutoCAD 2000
 90
        0
280
         0
281
         0
  0
CLASS
  1
RASTERVARIABLES
  2
AcDbRasterVariables
  3
ISM
 90
        0
280
         0
281
         0
  0
CLASS
  1
IMAGEDEF
  2
AcDbRasterImageDef
  3
ISM
 90
        0
280
         0
281
         0
  0
CLASS
  1
IMAGEDEF_REACTOR
  2
AcDbRasterImageDefReactor
  3
ISM
 90
        1
280
         0
281
         0
  0
CLASS
  1
IDBUFFER
  2
AcDbIdBuffer
  3
AutoCAD 2000
 90
        0
280
         0
281
         0
  0
CLASS
  1
SPATIAL_FILTER
  2
AcDbSpatialFilter
  3
AutoCAD 2000
 90
        0
280
         0
281
         0
  0
CLASS
  1
XRECORD
  2
AcDbXrecord
  3
AutoCAD 2000
 90
        0
280
         0
281
         0
  0
CLASS
  1
SORTENTSTABLE
  2
AcDbSortentsTable
  3
AutoCAD 2000
 90
        0
280
         0
281
         0
  0
CLASS
  1
LAYER_INDEX
  2
AcDbLayerIndex
  3
AutoCAD 2000
 90
        0
280
         0
281
         0
  0
CLASS
  1
SPATIAL_INDEX
  2
AcDbSpatialIndex
  3
AutoCAD 2000
 90
        0
280
         0
281
         0
  0
CLASS
  1
OBJECT_PTR
  2
CAseDLPNTableRecord
  3
"ASE-LPNTableRecord"
 90
        1
280
         0
281
         0
  0
CLASS
  1
LAYOUT
  2
AcDbLayout
  3
AutoCAD 2000
 90
        0
280
         0
281
         0
  0
CLASS
  1
PLOTSETTINGS
  2
AcDbPlotSettings
  3
AutoCAD 2000
 90
        0
280
         0
281
         0
  0
CLASS
  1
ACDBDICTIONARYWDFLT
  2
AcDbDictionaryWithDefault
  3
AutoCAD 2000
 90
        0
280
         0
281
         0
  0
CLASS
  1
ACDBPLACEHOLDER
  2
AcDbPlaceHolder
  3
AutoCAD 2000
 90
        0
280
         0
281
         0
  0
CLASS
  1
VBA_PROJECT
  2
AcDbVbaProject
  3
acadvba
 90
        0
280
         0
281
         0
  0
CLASS
  1
WIPEOUT
  2
AcDbWipeout
  3
WipeOut|AutoCAD Express Tool|expresstools@autodesk.com
 90
      127
280
         0
281
         1
  0
CLASS
  1
WIPEOUTVARIABLES
  2
AcDbWipeoutVariables
  3
WipeOut|AutoCAD Express Tool|expresstools@autodesk.com
 90
        0
280
         0
281
         0
  0
CLASS
  1
RTEXT
  2
RText
  3
RText|AutoCAD Express Tool|expresstools@autodesk.com
 90
        0
280
         0
281
         1
  0
CLASS
  1
ARCALIGNEDTEXT
  2
AcDbArcAlignedText
  3
ATEXT|AutoCAD Express Tool|expresstools@autodesk.com
 90
        0
280
         0
281
         1
  0
ENDSEC
  0
SECTION
  2
TABLES
  0
TABLE
  2
VPORT
  5
7
100
AcDbSymbolTable
 70
         1
  0
VPORT
  5
15
100
AcDbSymbolTableRecord
100
AcDbViewportTableRecord
  2
*ACTIVE
 70
         0
 10
0.0
 20
0.0
 11
1.0
 21
1.0
 12
148.5
 22
105.0
 13
0.0
 23
0.0
 14
1.0
 24
1.0
 15
0.0
 25
0.0
 16
0.0
 26
0.0
 36
1.0
 17
0.0
 27
0.0
 37
0.0
 40
231.2943892345
 41
1.0
 42
50.0
 43
0.0
 44
0.0
 50
0.0
 51
0.0
 71
         0
 72
       100
 73
         1
 74
         1
 75
         0
 76
         0
 77
         0
 78
         0
281
         0
 65
         0
110
0.0
120
0.0
130
0.0
111
1.0
121
0.0
131
0.0
112
0.0
122
1.0
132
0.0
345
0
346
0
 79
         0
146
0.0
  0
ENDTAB
  0
TABLE
  2
LTYPE
  5
4
100
AcDbSymbolTable
 70
        12
  0
LTYPE
  5
11
100
AcDbSymbolTableRecord
100
AcDbLinetypeTableRecord
  2
ByBlock
 70
        64
  3

 72
        65
 73
         0
 40
0.0
  0
LTYPE
  5
12
100
AcDbSymbolTableRecord
100
AcDbLinetypeTableRecord
  2
ByLayer
 70
        64
  3

 72
        65
 73
         0
 40
0.0
  0
LTYPE
  5
13
100
AcDbSymbolTableRecord
100
AcDbLinetypeTableRecord
  2
CONTINUOUS
 70
        64
  3
Solid Line
 72
        65
 73
         0
 40
0.0
  0
LTYPE
  5
24
100
AcDbSymbolTableRecord
100
AcDbLinetypeTableRecord
  2
DOT
 70
        64
  3
. . . . . . . . . . . . . . . . . . . . . . 
 72
        65
 73
         2
 40
0.25
 49
0.0
 74
         0
 49
-0.25
 74
         0
  0
LTYPE
  5
25
100
AcDbSymbolTableRecord
100
AcDbLinetypeTableRecord
  2
HIDDEN
 70
         0
  3
_ _ _ _ _ _ _ _ _ _ _ _ _ _ _ _ _ _ _ _ _ _ _
 72
        65
 73
         2
 40
0.375
 49
0.25
 74
         0
 49
-0.125
 74
         0
  0
LTYPE
  5
26
100
AcDbSymbolTableRecord
100
AcDbLinetypeTableRecord
  2
DASHDOT
 70
         0
  3
__ . __ . __ . __ . __ . __ . __ . __ . __ . __
 72
        65
 73
         4
 40
1.0
 49
0.5
 74
         0
 49
-0.25
 74
         0
 49
0.0
 74
         0
 49
-0.25
 74
         0
  0
LTYPE
  5
27
100
AcDbSymbolTableRecord
100
AcDbLinetypeTableRecord
  2
DIVIDE
 70
         0
  3
__ . . __ . . __ . . __ . . __ . . __ . . __
 72
        65
 73
         6
 40
1.25
 49
0.5
 74
         0
 49
-0.25
 74
         0
 49
0.0
 74
         0
 49
-0.25
 74
         0
 49
0.0
 74
         0
 49
-0.25
 74
         0
  0
LTYPE
  5
28
100
AcDbSymbolTableRecord
100
AcDbLinetypeTableRecord
  2
DASHED
 70
         0
  3
__ __ __ __ __ __ __ __ __ __ __ __ __ __ __
 72
        65
 73
         2
 40
0.75
 49
0.5
 74
         0
 49
-0.25
 74
         0
  0
LTYPE
  5
29
100
AcDbSymbolTableRecord
100
AcDbLinetypeTableRecord
  2
BORDER
 70
         0
  3
__ __ . __ __ . __ __ . __ __ . __ __ .
 72
        65
 73
         6
 40
1.75
 49
0.5
 74
         0
 49
-0.25
 74
         0
 49
0.5
 74
         0
 49
-0.25
 74
         0
 49
0.0
 74
         0
 49
-0.25
 74
         0
  0
LTYPE
  5
2A
100
AcDbSymbolTableRecord
100
AcDbLinetypeTableRecord
  2
CENTER
 70
         0
  3
____ _ ____ _ ____ _ ____ _ ____ _ ____
 72
        65
 73
         4
 40
2.0
 49
1.25
 74
         0
 49
-0.25
 74
         0
 49
0.25
 74
         0
 49
-0.25
 74
         0
  0
LTYPE
  5
2B
100
AcDbSymbolTableRecord
100
AcDbLinetypeTableRecord
  2
DOT2
 70
         0
  3
........................................
 72
        65
 73
         2
 40
0.125
 49
0.0
 74
         0
 49
-0.125
 74
         0
  0
LTYPE
  5
2C
100
AcDbSymbolTableRecord
100
AcDbLinetypeTableRecord
  2
PHANTOM
 70
         0
  3
______  __  __  ______  __  __  ______
 72
        65
 73
         6
 40
2.5
 49
1.25
 74
         0
 49
-0.25
 74
         0
 49
0.25
 74
         0
 49
-0.25
 74
         0
 49
0.25
 74
         0
 49
-0.25
 74
         0
  0
ENDTAB
  0
TABLE
  2
LAYER
  5
2
100
AcDbSymbolTable
 70
        93
  0
LAYER
  5
14
100
AcDbSymbolTableRecord
100
AcDbLayerTableRecord
  2
0
 70
         0
 62
         7
  6
CONTINUOUS
290
         1
370
        -3
390
1D
  0
LAYER
  5
33
100
AcDbSymbolTableRecord
100
AcDbLayerTableRecord
  2
BESCHRIFTUNG
 70
        64
 62
         7
  6
CONTINUOUS
290
         1
370
        25
390
1D
  0
LAYER
  5
34
100
AcDbSymbolTableRecord
100
AcDbLayerTableRecord
  2
SCHRAFFUR
 70
        64
 62
         7
  6
CONTINUOUS
290
         1
370
        25
390
1D
  0
LAYER
  5
35
100
AcDbSymbolTableRecord
100
AcDbLayerTableRecord
  2
MASSTEXTE
 70
        64
 62
       212
  6
CONTINUOUS
290
         1
370
        25
390
1D
  0
LAYER
  5
36
100
AcDbSymbolTableRecord
100
AcDbLayerTableRecord
  2
MASSLINIEN
 70
        64
 62
       172
  6
CONTINUOUS
290
         1
370
        25
390
1D
  0
LAYER
  5
37
100
AcDbSymbolTableRecord
100
AcDbLayerTableRecord
  2
MASSGRENZEN
 70
        64
 62
       172
  6
CONTINUOUS
290
         1
370
        25
390
1D
  0
LAYER
  5
38
100
AcDbSymbolTableRecord
100
AcDbLayerTableRecord
  2
TOLERANZEN
 70
        64
 62
       212
  6
CONTINUOUS
290
         1
370
         0
390
1D
  0
LAYER
  5
39
100
AcDbSymbolTableRecord
100
AcDbLayerTableRecord
  2
BEMAßUNG
 70
        64
 62
         7
  6
CONTINUOUS
290
         1
370
        25
390
1D
  0
LAYER
  5
3A
100
AcDbSymbolTableRecord
100
AcDbLayerTableRecord
  2
HILFSLINIEN
 70
        64
 62
         3
  6
CONTINUOUS
290
         1
370
         0
390
1D
  0
LAYER
  5
3B
100
AcDbSymbolTableRecord
100
AcDbLayerTableRecord
  2
MITTELLINIEN
 70
        64
 62
         5
  6
DASHDOT
290
         1
370
        25
390
1D
  0
LAYER
  5
3C
100
AcDbSymbolTableRecord
100
AcDbLayerTableRecord
  2
GEWINDELINIEN
 70
        64
 62
       212
  6
CONTINUOUS
290
         1
370
        25
390
1D
  0
LAYER
  5
3D
100
AcDbSymbolTableRecord
100
AcDbLayerTableRecord
  2
UNSICHTBARE
 70
        64
 62
        92
  6
DASHED
290
         1
370
        25
390
1D
  0
LAYER
  5
3E
100
AcDbSymbolTableRecord
100
AcDbLayerTableRecord
  2
VERDECKTE
 70
        64
 62
        92
  6
DASHED
290
         1
370
        25
390
1D
  0
LAYER
  5
3F
100
AcDbSymbolTableRecord
100
AcDbLayerTableRecord
  2
LICHTKANTEN
 70
        64
 62
         8
  6
CONTINUOUS
290
         1
370
        25
390
1D
  0
LAYER
  5
40
100
AcDbSymbolTableRecord
100
AcDbLayerTableRecord
  2
SCHNITTVERLAUF
 70
        64
 62
        34
  6
DASHDOT
290
         1
370
        70
390
1D
  0
LAYER
  5
41
100
AcDbSymbolTableRecord
100
AcDbLayerTableRecord
  2
KENNZEICHNUNG
 70
        64
 62
         7
  6
CONTINUOUS
290
         1
370
         0
390
1D
  0
LAYER
  5
42
100
AcDbSymbolTableRecord
100
AcDbLayerTableRecord
  2
PFEILE
 70
        64
 62
         7
  6
CONTINUOUS
290
         1
370
        70
390
1D
  0
LAYER
  5
43
100
AcDbSymbolTableRecord
100
AcDbLayerTableRecord
  2
SCHNITTDARSTELLUNG
 70
        64
 62
         7
  6
CONTINUOUS
290
         1
370
         0
390
1D
  0
LAYER
  5
44
100
AcDbSymbolTableRecord
100
AcDbLayerTableRecord
  2
2650__ WEICHENBOCK
 70
        64
 62
         7
  6
CONTINUOUS
290
         1
370
         0
390
1D
  0
LAYER
  5
45
100
AcDbSymbolTableRecord
100
AcDbLayerTableRecord
  2
GLEIS
 70
        64
 62
        34
  6
CONTINUOUS
290
         1
370
         0
390
1D
  0
LAYER
  5
46
100
AcDbSymbolTableRecord
100
AcDbLayerTableRecord
  2
SPERRSCHUH ABGELEGT
 70
        64
 62
         7
  6
DASHED
290
         1
370
         0
390
1D
  0
LAYER
  5
47
100
AcDbSymbolTableRecord
100
AcDbLayerTableRecord
  2
SPERRSCHUH
 70
        64
 62
         7
  6
CONTINUOUS
290
         1
370
         0
390
1D
  0
LAYER
  5
48
100
AcDbSymbolTableRecord
100
AcDbLayerTableRecord
  2
SPERRSCHUHRAHMEN
 70
        64
 62
        94
  6
CONTINUOUS
290
         1
370
         0
390
1D
  0
LAYER
  5
49
100
AcDbSymbolTableRecord
100
AcDbLayerTableRecord
  2
SPERRSCHUHANTRIEB
 70
        64
 62
         5
  6
CONTINUOUS
290
         1
370
         0
390
1D
  0
LAYER
  5
4A
100
AcDbSymbolTableRecord
100
AcDbLayerTableRecord
  2
2651__ SBW-GLEISSPERRSCHUH
 70
        64
 62
         7
  6
CONTINUOUS
290
         1
370
         0
390
1D
  0
LAYER
  5
4B
100
AcDbSymbolTableRecord
100
AcDbLayerTableRecord
  2
2654_1 RAHMEN
 70
        64
 62
         7
  6
CONTINUOUS
290
         1
370
         0
390
1D
  0
LAYER
  5
4C
100
AcDbSymbolTableRecord
100
AcDbLayerTableRecord
  2
2654_2 STELLEINRICHTUNG
 70
        64
 62
       230
  6
CONTINUOUS
290
         1
370
         0
390
1D
  0
LAYER
  5
4D
100
AcDbSymbolTableRecord
100
AcDbLayerTableRecord
  2
WEICHE
 70
        64
 62
        70
  6
CONTINUOUS
290
         1
370
         0
390
1D
  0
LAYER
  5
4E
100
AcDbSymbolTableRecord
100
AcDbLayerTableRecord
  2
2654__ WEICHENANTRIEB
 70
        64
 62
         7
  6
CONTINUOUS
290
         1
370
         0
390
1D
  0
LAYER
  5
4F
100
AcDbSymbolTableRecord
100
AcDbLayerTableRecord
  2
2655_1 RAHMEN
 70
        64
 62
         7
  6
CONTINUOUS
290
         1
370
        13
390
1D
  0
LAYER
  5
50
100
AcDbSymbolTableRecord
100
AcDbLayerTableRecord
  2
2655_2 SCHIEBER
 70
        64
 62
       230
  6
CONTINUOUS
290
         1
370
        13
390
1D
  0
LAYER
  5
51
100
AcDbSymbolTableRecord
100
AcDbLayerTableRecord
  2
2655_3 DREHHEBEL UMGESTELLT
 70
        64
 62
       150
  6
DASHED
290
         1
370
        13
390
1D
  0
LAYER
  5
52
100
AcDbSymbolTableRecord
100
AcDbLayerTableRecord
  2
2655_3 DREHHEBEL
 70
        64
 62
       150
  6
CONTINUOUS
290
         1
370
        13
390
1D
  0
LAYER
  5
53
100
AcDbSymbolTableRecord
100
AcDbLayerTableRecord
  2
2655_5 STELLHEBEL UMGESTELLT
 70
        64
 62
       172
  6
DASHED
290
         1
370
        18
390
1D
  0
LAYER
  5
54
100
AcDbSymbolTableRecord
100
AcDbLayerTableRecord
  2
2655_5 STELLHEBEL
 70
        64
 62
       172
  6
CONTINUOUS
290
         1
370
        13
390
1D
  0
LAYER
  5
55
100
AcDbSymbolTableRecord
100
AcDbLayerTableRecord
  2
2655_4 DRAHT
 70
        64
 62
       190
  6
CONTINUOUS
290
         1
370
        25
390
1D
  0
LAYER
  5
56
100
AcDbSymbolTableRecord
100
AcDbLayerTableRecord
  2
2655_6 STELLVERSTELLUNG UMGESTELLT
 70
        64
 62
       211
  6
DASHED
290
         1
370
        18
390
1D
  0
LAYER
  5
57
100
AcDbSymbolTableRecord
100
AcDbLayerTableRecord
  2
2655_6 STELLVERSTELLUNG
 70
        64
 62
       230
  6
CONTINUOUS
290
         1
370
        13
390
1D
  0
LAYER
  5
58
100
AcDbSymbolTableRecord
100
AcDbLayerTableRecord
  2
2655_8 STELLANSCHLAG UMGESTELLT
 70
        64
 62
       131
  6
DASHED
290
         1
370
        18
390
1D
  0
LAYER
  5
59
100
AcDbSymbolTableRecord
100
AcDbLayerTableRecord
  2
2655_8 STELLANSCHLAG
 70
        64
 62
         6
  6
CONTINUOUS
290
         1
370
        13
390
1D
  0
LAYER
  5
5A
100
AcDbSymbolTableRecord
100
AcDbLayerTableRecord
  2
2655_9 RIEGELSCHIEBER UMGESTELLT
 70
        64
 62
         6
  6
DASHED
290
         1
370
        18
390
1D
  0
LAYER
  5
5B
100
AcDbSymbolTableRecord
100
AcDbLayerTableRecord
  2
2655_9 RIEGELSCHIEBER
 70
        64
 62
       171
  6
CONTINUOUS
290
         1
370
        13
390
1D
  0
LAYER
  5
5C
100
AcDbSymbolTableRecord
100
AcDbLayerTableRecord
  2
2655_10 VERRIEGELUNGSSCHIEBER UMGESTELLT
 70
        64
 62
       171
  6
DASHED
290
         1
370
        18
390
1D
  0
LAYER
  5
5D
100
AcDbSymbolTableRecord
100
AcDbLayerTableRecord
  2
2655_10 VERRIEGELUNGSSCHIEBER
 70
        64
 62
       171
  6
CONTINUOUS
290
         1
370
        13
390
1D
  0
LAYER
  5
5E
100
AcDbSymbolTableRecord
100
AcDbLayerTableRecord
  2
2655__ WEICHENANTRIEB
 70
        64
 62
         7
  6
CONTINUOUS
290
         1
370
         0
390
1D
  0
LAYER
  5
5F
100
AcDbSymbolTableRecord
100
AcDbLayerTableRecord
  2
2201_2___ HEBEL UMGESCHLAGEN
 70
        64
 62
        34
  6
DASHED
290
         1
370
        13
390
1D
  0
LAYER
  5
60
100
AcDbSymbolTableRecord
100
AcDbLayerTableRecord
  2
2201_2___ HEBEL
 70
        64
 62
        34
  6
CONTINUOUS
290
         1
370
        13
390
1D
  0
LAYER
  5
61
100
AcDbSymbolTableRecord
100
AcDbLayerTableRecord
  2
2201__
 70
        64
 62
         7
  6
CONTINUOUS
290
         1
370
         0
390
1D
  0
LAYER
  5
62
100
AcDbSymbolTableRecord
100
AcDbLayerTableRecord
  2
KONSTRUKTION
 70
        64
 62
         7
  6
CONTINUOUS
290
         1
370
         0
390
1D
  0
LAYER
  5
63
100
AcDbSymbolTableRecord
100
AcDbLayerTableRecord
  2
2650_1P
 70
        64
 62
        30
  6
CONTINUOUS
290
         1
370
        13
390
1D
  0
LAYER
  5
64
100
AcDbSymbolTableRecord
100
AcDbLayerTableRecord
  2
2650_7P
 70
        64
 62
        15
  6
CONTINUOUS
290
         1
370
        13
390
1D
  0
LAYER
  5
65
100
AcDbSymbolTableRecord
100
AcDbLayerTableRecord
  2
2650___ WEICHENBOCK
 70
        64
 62
       230
  6
CONTINUOUS
290
         1
370
        13
390
1D
  0
LAYER
  5
66
100
AcDbSymbolTableRecord
100
AcDbLayerTableRecord
  2
2651_1O
 70
        64
 62
        34
  6
CONTINUOUS
290
         1
370
        13
390
1D
  0
LAYER
  5
67
100
AcDbSymbolTableRecord
100
AcDbLayerTableRecord
  2
2651_1U
 70
        64
 62
        11
  6
CONTINUOUS
290
         1
370
        13
390
1D
  0
LAYER
  5
68
100
AcDbSymbolTableRecord
100
AcDbLayerTableRecord
  2
2651___ SBW-GLEISSPERRSCHUH
 70
        64
 62
       230
  6
CONTINUOUS
290
         1
370
        13
390
1D
  0
LAYER
  5
69
100
AcDbSymbolTableRecord
100
AcDbLayerTableRecord
  2
2658_01O
 70
        64
 62
        11
  6
CONTINUOUS
290
         1
370
         0
390
1D
  0
LAYER
  5
6A
100
AcDbSymbolTableRecord
100
AcDbLayerTableRecord
  2
2658_02U
 70
        64
 62
        15
  6
CONTINUOUS
290
         1
370
         0
390
1D
  0
LAYER
  5
6B
100
AcDbSymbolTableRecord
100
AcDbLayerTableRecord
  2
2658_12L
 70
        64
 62
        14
  6
CONTINUOUS
290
         1
370
        13
390
1D
  0
LAYER
  5
6C
100
AcDbSymbolTableRecord
100
AcDbLayerTableRecord
  2
2658_11P
 70
        64
 62
        34
  6
CONTINUOUS
290
         1
370
        13
390
1D
  0
LAYER
  5
6D
100
AcDbSymbolTableRecord
100
AcDbLayerTableRecord
  2
2658_13R
 70
        64
 62
        14
  6
CONTINUOUS
290
         1
370
        13
390
1D
  0
LAYER
  5
6E
100
AcDbSymbolTableRecord
100
AcDbLayerTableRecord
  2
2658___
 70
        64
 62
       230
  6
CONTINUOUS
290
         1
370
        13
390
1D
  0
LAYER
  5
6F
100
AcDbSymbolTableRecord
100
AcDbLayerTableRecord
  2
2655_1P
 70
        64
 62
        30
  6
CONTINUOUS
290
         1
370
        13
390
1D
  0
LAYER
  5
70
100
AcDbSymbolTableRecord
100
AcDbLayerTableRecord
  2
2655_2P
 70
        64
 62
        30
  6
CONTINUOUS
290
         1
370
        13
390
1D
  0
LAYER
  5
71
100
AcDbSymbolTableRecord
100
AcDbLayerTableRecord
  2
2655_3L
 70
        64
 62
        30
  6
CONTINUOUS
290
         1
370
        13
390
1D
  0
LAYER
  5
72
100
AcDbSymbolTableRecord
100
AcDbLayerTableRecord
  2
2655_3R
 70
        64
 62
        14
  6
CONTINUOUS
290
         1
370
        13
390
1D
  0
LAYER
  5
73
100
AcDbSymbolTableRecord
100
AcDbLayerTableRecord
  2
2655_5L
 70
        64
 62
        30
  6
CONTINUOUS
290
         1
370
        13
390
1D
  0
LAYER
  5
74
100
AcDbSymbolTableRecord
100
AcDbLayerTableRecord
  2
2655_5R
 70
        64
 62
        14
  6
CONTINUOUS
290
         1
370
        13
390
1D
  0
LAYER
  5
75
100
AcDbSymbolTableRecord
100
AcDbLayerTableRecord
  2
2655_6P
 70
        64
 62
        30
  6
CONTINUOUS
290
         1
370
        13
390
1D
  0
LAYER
  5
76
100
AcDbSymbolTableRecord
100
AcDbLayerTableRecord
  2
2655_78L
 70
        64
 62
        30
  6
CONTINUOUS
290
         1
370
        13
390
1D
  0
LAYER
  5
77
100
AcDbSymbolTableRecord
100
AcDbLayerTableRecord
  2
2655_11P
 70
        64
 62
        30
  6
CONTINUOUS
290
         1
370
        13
390
1D
  0
LAYER
  5
78
100
AcDbSymbolTableRecord
100
AcDbLayerTableRecord
  2
2655_13R
 70
        64
 62
        14
  6
CONTINUOUS
290
         1
370
        13
390
1D
  0
LAYER
  5
79
100
AcDbSymbolTableRecord
100
AcDbLayerTableRecord
  2
2655_13L
 70
        64
 62
        30
  6
CONTINUOUS
290
         1
370
        13
390
1D
  0
LAYER
  5
7A
100
AcDbSymbolTableRecord
100
AcDbLayerTableRecord
  2
2655_78R
 70
        64
 62
        14
  6
CONTINUOUS
290
         1
370
        13
390
1D
  0
LAYER
  5
7B
100
AcDbSymbolTableRecord
100
AcDbLayerTableRecord
  2
2655_9R
 70
        64
 62
        14
  6
CONTINUOUS
290
         1
370
        13
390
1D
  0
LAYER
  5
7C
100
AcDbSymbolTableRecord
100
AcDbLayerTableRecord
  2
2655_9L
 70
        64
 62
        30
  6
CONTINUOUS
290
         1
370
        13
390
1D
  0
LAYER
  5
7D
100
AcDbSymbolTableRecord
100
AcDbLayerTableRecord
  2
2655_6Q
 70
        64
 62
        30
  6
CONTINUOUS
290
         1
370
        13
390
1D
  0
LAYER
  5
7E
100
AcDbSymbolTableRecord
100
AcDbLayerTableRecord
  2
2655___ W-_ GSP-_ SIGNAL-ANTRIEB
 70
        64
 62
       230
  6
CONTINUOUS
290
         1
370
        13
390
1D
  0
LAYER
  5
7F
100
AcDbSymbolTableRecord
100
AcDbLayerTableRecord
  2
2656_01L
 70
        64
 62
        34
  6
CONTINUOUS
290
         1
370
        13
390
1D
  0
LAYER
  5
80
100
AcDbSymbolTableRecord
100
AcDbLayerTableRecord
  2
2656_02R
 70
        64
 62
        14
  6
CONTINUOUS
290
         1
370
        13
390
1D
  0
LAYER
  5
81
100
AcDbSymbolTableRecord
100
AcDbLayerTableRecord
  2
2656_11L
 70
        64
 62
        34
  6
CONTINUOUS
290
         1
370
        13
390
1D
  0
LAYER
  5
82
100
AcDbSymbolTableRecord
100
AcDbLayerTableRecord
  2
2656_12R
 70
        64
 62
        14
  6
CONTINUOUS
290
         1
370
        13
390
1D
  0
LAYER
  5
83
100
AcDbSymbolTableRecord
100
AcDbLayerTableRecord
  2
2656___
 70
        64
 62
         7
  6
CONTINUOUS
290
         1
370
         0
390
1D
  0
LAYER
  5
84
100
AcDbSymbolTableRecord
100
AcDbLayerTableRecord
  2
1088_1P
 70
        64
 62
        30
  6
CONTINUOUS
290
         1
370
         0
390
1D
  0
LAYER
  5
85
100
AcDbSymbolTableRecord
100
AcDbLayerTableRecord
  2
108____ VORLAGEN
 70
        64
 62
       230
  6
CONTINUOUS
290
         1
370
        13
390
1D
  0
LAYER
  5
86
100
AcDbSymbolTableRecord
100
AcDbLayerTableRecord
  2
PFADE
 70
        64
 62
         7
  6
CONTINUOUS
290
         1
370
         0
390
1D
  0
LAYER
  5
87
100
AcDbSymbolTableRecord
100
AcDbLayerTableRecord
  2
_TEMP
 70
        64
 62
         7
  6
CONTINUOUS
290
         1
370
        50
390
1D
  0
LAYER
  5
88
100
AcDbSymbolTableRecord
100
AcDbLayerTableRecord
  2
MASSGRENZEN0
 70
        64
 62
       172
  6
CONTINUOUS
290
         1
370
        25
390
1D
  0
LAYER
  5
89
100
AcDbSymbolTableRecord
100
AcDbLayerTableRecord
  2
MASSTEXTE0
 70
        64
 62
       212
  6
CONTINUOUS
290
         1
370
        25
390
1D
  0
LAYER
  5
8A
100
AcDbSymbolTableRecord
100
AcDbLayerTableRecord
  2
TOLERANZEN0
 70
        64
 62
       212
  6
CONTINUOUS
290
         1
370
         0
390
1D
  0
LAYER
  5
8B
100
AcDbSymbolTableRecord
100
AcDbLayerTableRecord
  2
MASSLINIEN0
 70
        64
 62
       172
  6
CONTINUOUS
290
         1
370
        25
390
1D
  0
LAYER
  5
8C
100
AcDbSymbolTableRecord
100
AcDbLayerTableRecord
  2
BEMASSUNG
 70
        64
 62
         7
  6
CONTINUOUS
290
         1
370
        25
390
1D
  0
LAYER
  5
8D
100
AcDbSymbolTableRecord
100
AcDbLayerTableRecord
  2
_S SCHILD
 70
        64
 62
       171
  6
CONTINUOUS
290
         1
370
         0
390
1D
  0
LAYER
  5
8E
100
AcDbSymbolTableRecord
100
AcDbLayerTableRecord
  2
STANDARD
 70
        64
 62
         7
  6
CONTINUOUS
290
         1
370
         0
390
1D
  0
ENDTAB
  0
TABLE
  2
STYLE
  5
3
100
AcDbSymbolTable
 70
         7
  0
STYLE
  5
17
100
AcDbSymbolTableRecord
100
AcDbTextStyleTableRecord
  2
Standard
 70
         0
 40
0.0
 41
1.0
 50
0.0
 71
         0
 42
0.0
  3
txt
  4

  0
STYLE
  5
2D
100
AcDbSymbolTableRecord
100
AcDbTextStyleTableRecord
  2
CADdy
 70
         0
 40
0.0
 41
1.0
 50
0.0
 71
         0
 42
3.5
  3
txt.shx
  4

  0
STYLE
  5
2E
100
AcDbSymbolTableRecord
100
AcDbTextStyleTableRecord
  2
Arial
 70
         0
 40
0.0
 41
1.0
 50
0.0
 71
         0
 42
3.5
  3
arial.ttf
  4

1001
ACAD
1000
Arial
1071
       34
  0
STYLE
  5
2F
100
AcDbSymbolTableRecord
100
AcDbTextStyleTableRecord
  2
Isonorm
 70
         0
 40
0.0
 41
1.0
 50
0.0
 71
         0
 42
3.5
  3
txt.shx
  4

  0
STYLE
  5
30
100
AcDbSymbolTableRecord
100
AcDbTextStyleTableRecord
  2
Tahoma
 70
         0
 40
0.0
 41
1.0
 50
0.0
 71
         0
 42
3.5
  3
tahoma.ttf
  4

1001
ACAD
1000
Tahoma
1071
       34
  0
STYLE
  5
31
100
AcDbSymbolTableRecord
100
AcDbTextStyleTableRecord
  2
Microsoft Sans Serif
 70
         0
 40
0.0
 41
1.0
 50
0.0
 71
         0
 42
3.5
  3
micross.ttf
  4

1001
ACAD
1000
Microsoft Sans Serif
1071
       34
  0
STYLE
  5
32
100
AcDbSymbolTableRecord
100
AcDbTextStyleTableRecord
  2
Arial Rounded MT Bold
 70
         0
 40
0.0
 41
1.0
 50
0.0
 71
         0
 42
3.5
  3
txt.shx
  4

  0
ENDTAB
  0
TABLE
  2
VIEW
  5
5
100
AcDbSymbolTable
 70
         0
  0
ENDTAB
  0
TABLE
  2
UCS
  5
6
100
AcDbSymbolTable
 70
         0
  0
ENDTAB
  0
TABLE
  2
APPID
  5
8
100
AcDbSymbolTable
 70
         1
  0
APPID
  5
16
100
AcDbSymbolTableRecord
100
AcDbRegAppTableRecord
  2
ACAD
 70
        64
  0
ENDTAB
  0
TABLE
  2
DIMSTYLE
  5
9
100
AcDbSymbolTable
 70
         1
100
AcDbDimStyleTable
 71
         0
  0
DIMSTYLE
105
18
100
AcDbSymbolTableRecord
100
AcDbDimStyleTableRecord
  2
Standard
 70
         0
  3

  4

 40
1.0
 41
0.18
 42
0.0625
 43
0.38
 44
0.18
 45
0.0
 46
0.0
 47
0.0
 48
0.0
 71
         0
 72
         0
 73
         1
 74
         1
 75
         0
 76
         0
 77
         0
 78
         0
 79
         0
140
0.18
141
0.09
142
0.0
143
25.4
144
1.0
145
0.0
146
1.0
147
0.09
148
0.0
170
         0
171
         2
172
         0
173
         0
174
         0
175
         0
176
         0
177
         0
178
         0
179
         0
271
         4
272
         4
273
         2
274
         2
275
         0
276
         0
277
         2
278
        46
279
         0
280
         0
281
         0
282
         0
283
         1
284
         0
285
         0
286
         0
288
         0
289
         3
340
17
341
0
342
0
343
0
344
0
371
        -2
372
        -2
  0
ENDTAB
  0
TABLE
  2
BLOCK_RECORD
  5
1
100
AcDbSymbolTable
 70
        10
  0
BLOCK_RECORD
  5
A
100
AcDbSymbolTableRecord
100
AcDbBlockTableRecord
  2
*MODEL_SPACE
340
20
  0
BLOCK_RECORD
  5
B
100
AcDbSymbolTableRecord
100
AcDbBlockTableRecord
  2
*PAPER_SPACE
340
21
  0
BLOCK_RECORD
  5
8F
100
AcDbSymbolTableRecord
100
AcDbBlockTableRecord
  2
D337105408
340
0
102
{BLKREFS
331
214
102
}
  0
BLOCK_RECORD
  5
98
100
AcDbSymbolTableRecord
100
AcDbBlockTableRecord
  2
D337105664
340
0
102
{BLKREFS
331
215
102
}
  0
BLOCK_RECORD
  5
A1
100
AcDbSymbolTableRecord
100
AcDbBlockTableRecord
  2
D337105920
340
0
102
{BLKREFS
331
216
102
}
  0
BLOCK_RECORD
  5
AA
100
AcDbSymbolTableRecord
100
AcDbBlockTableRecord
  2
D337106432
340
0
102
{BLKREFS
331
26E
102
}
  0
BLOCK_RECORD
  5
B3
100
AcDbSymbolTableRecord
100
AcDbBlockTableRecord
  2
D337106688
340
0
102
{BLKREFS
331
26F
102
}
  0
BLOCK_RECORD
  5
BC
100
AcDbSymbolTableRecord
100
AcDbBlockTableRecord
  2
D337106944
340
0
102
{BLKREFS
331
270
102
}
  0
BLOCK_RECORD
  5
C5
100
AcDbSymbolTableRecord
100
AcDbBlockTableRecord
  2
D337107200
340
0
102
{BLKREFS
331
271
102
}
  0
BLOCK_RECORD
  5
CE
100
AcDbSymbolTableRecord
100
AcDbBlockTableRecord
  2
D337107456
340
0
102
{BLKREFS
331
2D2
102
}
  0
BLOCK_RECORD
  5
D7
100
AcDbSymbolTableRecord
100
AcDbBlockTableRecord
  2
D406246400
340
0
102
{BLKREFS
331
2D9
102
}
  0
BLOCK_RECORD
  5
E2
100
AcDbSymbolTableRecord
100
AcDbBlockTableRecord
  2
D197634304
340
0
102
{BLKREFS
331
2DA
102
}
  0
ENDTAB
  0
ENDSEC
  0
SECTION
  2
BLOCKS
  0
BLOCK
  5
D
100
AcDbEntity
  8
0
390
0
100
AcDbBlockBegin
  2
*MODEL_SPACE
 70
         0
 10
0.0
 20
0.0
 30
0.0
  3
*MODEL_SPACE
  1

  0
ENDBLK
  5
E
100
AcDbEntity
  8
0
390
0
100
AcDbBlockEnd
  0
BLOCK
  5
F
100
AcDbEntity
 67
         1
  8
0
390
0
100
AcDbBlockBegin
  2
*PAPER_SPACE
 70
         0
 10
0.0
 20
0.0
 30
0.0
  3
*PAPER_SPACE
  1

  0
ENDBLK
  5
10
100
AcDbEntity
 67
         1
  8
0
390
0
100
AcDbBlockEnd
  0
BLOCK
  5
90
100
AcDbEntity
  8
BEMAßUNG
390
0
100
AcDbBlockBegin
  2
D337105408
 70
         0
 10
0.0
 20
0.0
 30
0.0
  3
D337105408
  1

  0
LINE
  5
91
100
AcDbEntity
  8
BEMAßUNG
390
0
 62
       172
100
AcDbLine
 10
67.0
 20
181.4913670786
 30
0.0
 11
67.0
 21
134.4913670786
 31
0.0
  0
LINE
  5
92
100
AcDbEntity
  8
BEMAßUNG
390
0
 62
       172
100
AcDbLine
 10
26.7795971288
 20
181.4913670786
 30
0.0
 11
69.0
 21
181.4913670786
 31
0.0
  0
LINE
  5
93
100
AcDbEntity
  8
BEMAßUNG
390
0
 62
       172
100
AcDbLine
 10
26.7795971288
 20
134.4913670786
 30
0.0
 11
69.0
 21
134.4913670786
 31
0.0
  0
SOLID
  5
94
100
AcDbEntity
  8
BEMAßUNG
390
0
100
AcDbTrace
 10
67.0
 20
181.4913670786
 30
0.0
 11
67.3915785767
 21
178.5170324945
 31
0.0
 12
66.6084214233
 22
178.5170324945
 32
0.0
 13
66.6084214233
 23
178.5170324945
 33
0.0
  0
SOLID
  5
95
100
AcDbEntity
  8
BEMAßUNG
390
0
100
AcDbTrace
 10
67.0
 20
134.4913670786
 30
0.0
 11
66.6084214233
 21
137.4657016627
 31
0.0
 12
67.3915785767
 22
137.4657016627
 32
0.0
 13
67.3915785767
 23
137.4657016627
 33
0.0
  0
MTEXT
  5
96
100
AcDbEntity
  8
BEMAßUNG
390
0
 62
       212
100
AcDbMText
 10
63.816
 20
157.9913670786
 30
0.0
 40
3.0
 41
0.0
 71
         5
 72
         1
  1
\W1.135145;\A1;47
  7
Arial
 11
0.0
 21
1.0
 31
0.0
 73
         0
 44
0.0
  0
ENDBLK
  5
97
100
AcDbEntity
  8
0
390
0
100
AcDbBlockEnd
  0
BLOCK
  5
99
100
AcDbEntity
  8
BEMAßUNG
390
0
100
AcDbBlockBegin
  2
D337105664
 70
         0
 10
0.0
 20
0.0
 30
0.0
  3
D337105664
  1

  0
LINE
  5
9A
100
AcDbEntity
  8
BEMAßUNG
390
0
 62
       172
100
AcDbLine
 10
67.0
 20
114.7979347356
 30
0.0
 11
67.0
 21
52.7979347356
 31
0.0
  0
LINE
  5
9B
100
AcDbEntity
  8
BEMAßUNG
390
0
 62
       172
100
AcDbLine
 10
26.7795971288
 20
114.7979347356
 30
0.0
 11
69.0
 21
114.7979347356
 31
0.0
  0
LINE
  5
9C
100
AcDbEntity
  8
BEMAßUNG
390
0
 62
       172
100
AcDbLine
 10
26.7795971288
 20
52.7979347356
 30
0.0
 11
69.0
 21
52.7979347356
 31
0.0
  0
SOLID
  5
9D
100
AcDbEntity
  8
BEMAßUNG
390
0
100
AcDbTrace
 10
67.0
 20
114.7979347356
 30
0.0
 11
67.3915785767
 21
111.8236001515
 31
0.0
 12
66.6084214233
 22
111.8236001515
 32
0.0
 13
66.6084214233
 23
111.8236001515
 33
0.0
  0
SOLID
  5
9E
100
AcDbEntity
  8
BEMAßUNG
390
0
100
AcDbTrace
 10
67.0
 20
52.7979347356
 30
0.0
 11
66.6084214233
 21
55.7722693197
 31
0.0
 12
67.3915785767
 22
55.7722693197
 32
0.0
 13
67.3915785767
 23
55.7722693197
 33
0.0
  0
MTEXT
  5
9F
100
AcDbEntity
  8
BEMAßUNG
390
0
 62
       212
100
AcDbMText
 10
63.816
 20
83.7979347356
 30
0.0
 40
3.0
 41
0.0
 71
         5
 72
         1
  1
\W1.135145;\A1;62
  7
Arial
 11
0.0
 21
1.0
 31
0.0
 73
         0
 44
0.0
  0
ENDBLK
  5
A0
100
AcDbEntity
  8
0
390
0
100
AcDbBlockEnd
  0
BLOCK
  5
A2
100
AcDbEntity
  8
BEMAßUNG
390
0
100
AcDbBlockBegin
  2
D337105920
 70
         0
 10
0.0
 20
0.0
 30
0.0
  3
D337105920
  1

  0
LINE
  5
A3
100
AcDbEntity
  8
BEMAßUNG
390
0
 62
       172
100
AcDbLine
 10
183.8070895522
 20
176.6757021724
 30
0.0
 11
183.8070895522
 21
99.6757021724
 31
0.0
  0
LINE
  5
A4
100
AcDbEntity
  8
BEMAßUNG
390
0
 62
       172
100
AcDbLine
 10
160.8731461107
 20
176.6757021724
 30
0.0
 11
185.8070895522
 21
176.6757021724
 31
0.0
  0
LINE
  5
A5
100
AcDbEntity
  8
BEMAßUNG
390
0
 62
       172
100
AcDbLine
 10
160.8731461107
 20
99.6757021724
 30
0.0
 11
185.8070895522
 21
99.6757021724
 31
0.0
  0
SOLID
  5
A6
100
AcDbEntity
  8
BEMAßUNG
390
0
100
AcDbTrace
 10
183.8070895522
 20
176.6757021724
 30
0.0
 11
184.1986681289
 21
173.7013675883
 31
0.0
 12
183.4155109756
 22
173.7013675883
 32
0.0
 13
183.4155109756
 23
173.7013675883
 33
0.0
  0
SOLID
  5
A7
100
AcDbEntity
  8
BEMAßUNG
390
0
100
AcDbTrace
 10
183.8070895522
 20
99.6757021724
 30
0.0
 11
183.4155109756
 21
102.6500367565
 31
0.0
 12
184.1986681289
 22
102.6500367565
 32
0.0
 13
184.1986681289
 23
102.6500367565
 33
0.0
  0
MTEXT
  5
A8
100
AcDbEntity
  8
BEMAßUNG
390
0
 62
       212
100
AcDbMText
 10
180.6230895522
 20
138.1757021724
 30
0.0
 40
3.0
 41
0.0
 71
         5
 72
         1
  1
\W1.135145;\A1;77
  7
Arial
 11
0.0
 21
1.0
 31
0.0
 73
         0
 44
0.0
  0
ENDBLK
  5
A9
100
AcDbEntity
  8
0
390
0
100
AcDbBlockEnd
  0
BLOCK
  5
AB
100
AcDbEntity
  8
BEMAßUNG
390
0
100
AcDbBlockBegin
  2
D337106432
 70
         0
 10
0.0
 20
0.0
 30
0.0
  3
D337106432
  1

  0
LINE
  5
AC
100
AcDbEntity
  8
BEMAßUNG
390
0
 62
       172
100
AcDbLine
 10
240.1360944732
 20
102.0266105093
 30
0.0
 11
240.1360944732
 21
174.0264080884
 31
0.0
  0
LINE
  5
AD
100
AcDbEntity
  8
BEMAßUNG
390
0
 62
       172
100
AcDbLine
 10
225.9457406759
 20
102.0266105093
 30
0.0
 11
242.1360944732
 21
102.0266105093
 31
0.0
  0
LINE
  5
AE
100
AcDbEntity
  8
BEMAßUNG
390
0
 62
       172
100
AcDbLine
 10
225.9457406759
 20
174.0264080884
 30
0.0
 11
242.1360944732
 21
174.0264080884
 31
0.0
  0
SOLID
  5
AF
100
AcDbEntity
  8
BEMAßUNG
390
0
100
AcDbTrace
 10
240.1360944732
 20
102.0266105093
 30
0.0
 11
239.7445158966
 21
105.0009450934
 31
0.0
 12
240.5276730499
 22
105.0009450934
 32
0.0
 13
240.5276730499
 23
105.0009450934
 33
0.0
  0
SOLID
  5
B0
100
AcDbEntity
  8
BEMAßUNG
390
0
100
AcDbTrace
 10
240.1360944732
 20
174.0264080884
 30
0.0
 11
240.5276730499
 21
171.0520735043
 31
0.0
 12
239.7445158966
 22
171.0520735043
 32
0.0
 13
239.7445158966
 23
171.0520735043
 33
0.0
  0
MTEXT
  5
B1
100
AcDbEntity
  8
BEMAßUNG
390
0
 62
       212
100
AcDbMText
 10
236.9520944732
 20
138.0265092989
 30
0.0
 40
3.0
 41
0.0
 71
         5
 72
         1
  1
\W1.135145;\A1;72
  7
Arial
 11
0.0
 21
1.0
 31
0.0
 73
         0
 44
0.0
  0
ENDBLK
  5
B2
100
AcDbEntity
  8
0
390
0
100
AcDbBlockEnd
  0
BLOCK
  5
B4
100
AcDbEntity
  8
BEMAßUNG
390
0
100
AcDbBlockBegin
  2
D337106688
 70
         0
 10
0.0
 20
0.0
 30
0.0
  3
D337106688
  1

  0
LINE
  5
B5
100
AcDbEntity
  8
BEMAßUNG
390
0
 62
       172
100
AcDbLine
 10
138.6134777766
 20
158.1203543363
 30
0.0
 11
138.6134777766
 21
180.1242235897
 31
0.0
  0
LINE
  5
B6
100
AcDbEntity
  8
BEMAßUNG
390
0
 62
       172
100
AcDbLine
 10
116.0061531581
 20
158.1203543363
 30
0.0
 11
140.6134777766
 21
158.1203543363
 31
0.0
  0
LINE
  5
B7
100
AcDbEntity
  8
BEMAßUNG
390
0
 62
       172
100
AcDbLine
 10
120.6271208021
 20
180.1242235897
 30
0.0
 11
140.6134777766
 21
180.1242235897
 31
0.0
  0
SOLID
  5
B8
100
AcDbEntity
  8
BEMAßUNG
390
0
100
AcDbTrace
 10
138.6134777766
 20
158.1203543363
 30
0.0
 11
138.2218991999
 21
161.0946889204
 31
0.0
 12
139.0050563532
 22
161.0946889204
 32
0.0
 13
139.0050563532
 23
161.0946889204
 33
0.0
  0
SOLID
  5
B9
100
AcDbEntity
  8
BEMAßUNG
390
0
100
AcDbTrace
 10
138.6134777766
 20
180.1242235897
 30
0.0
 11
139.0050563532
 21
177.1498890056
 31
0.0
 12
138.2218991999
 22
177.1498890056
 32
0.0
 13
138.2218991999
 23
177.1498890056
 33
0.0
  0
MTEXT
  5
BA
100
AcDbEntity
  8
BEMAßUNG
390
0
 62
       212
100
AcDbMText
 10
135.4294777766
 20
169.122288963
 30
0.0
 40
3.0
 41
0.0
 71
         5
 72
         1
  1
\W1.135145;\A1;22
  7
Arial
 11
0.0
 21
1.0
 31
0.0
 73
         0
 44
0.0
  0
ENDBLK
  5
BB
100
AcDbEntity
  8
0
390
0
100
AcDbBlockEnd
  0
BLOCK
  5
BD
100
AcDbEntity
  8
BEMAßUNG
390
0
100
AcDbBlockBegin
  2
D337106944
 70
         0
 10
0.0
 20
0.0
 30
0.0
  3
D337106944
  1

  0
LINE
  5
BE
100
AcDbEntity
  8
BEMAßUNG
390
0
 62
       172
100
AcDbLine
 10
138.7805353216
 20
75.1337426191
 30
0.0
 11
138.7805353216
 21
98.1337426183
 31
0.0
  0
LINE
  5
BF
100
AcDbEntity
  8
BEMAßUNG
390
0
 62
       172
100
AcDbLine
 10
116.0061531581
 20
75.1337426191
 30
0.0
 11
140.7805353216
 21
75.1337426191
 31
0.0
  0
LINE
  5
C0
100
AcDbEntity
  8
BEMAßUNG
390
0
 62
       172
100
AcDbLine
 10
116.0061531581
 20
98.1337426183
 30
0.0
 11
140.7805353216
 21
98.1337426183
 31
0.0
  0
SOLID
  5
C1
100
AcDbEntity
  8
BEMAßUNG
390
0
100
AcDbTrace
 10
138.7805353216
 20
75.1337426191
 30
0.0
 11
138.3889567449
 21
78.1080772032
 31
0.0
 12
139.1721138982
 22
78.1080772032
 32
0.0
 13
139.1721138982
 23
78.1080772032
 33
0.0
  0
SOLID
  5
C2
100
AcDbEntity
  8
BEMAßUNG
390
0
100
AcDbTrace
 10
138.7805353216
 20
98.1337426183
 30
0.0
 11
139.1721138982
 21
95.1594080342
 31
0.0
 12
138.3889567449
 22
95.1594080342
 32
0.0
 13
138.3889567449
 23
95.1594080342
 33
0.0
  0
MTEXT
  5
C3
100
AcDbEntity
  8
BEMAßUNG
390
0
 62
       212
100
AcDbMText
 10
135.5965353216
 20
86.6337426187
 30
0.0
 40
3.0
 41
0.0
 71
         5
 72
         1
  1
\W1.135145;\A1;23
  7
Arial
 11
0.0
 21
1.0
 31
0.0
 73
         0
 44
0.0
  0
ENDBLK
  5
C4
100
AcDbEntity
  8
0
390
0
100
AcDbBlockEnd
  0
BLOCK
  5
C6
100
AcDbEntity
  8
BEMAßUNG
390
0
100
AcDbBlockBegin
  2
D337107200
 70
         0
 10
0.0
 20
0.0
 30
0.0
  3
D337107200
  1

  0
LINE
  5
C7
100
AcDbEntity
  8
BEMAßUNG
390
0
 62
       172
100
AcDbLine
 10
138.7434782689
 20
57.687571604
 30
0.0
 11
138.7434782674
 21
29.1875716048
 31
0.0
  0
LINE
  5
C8
100
AcDbEntity
  8
BEMAßUNG
390
0
 62
       172
100
AcDbLine
 10
116.0061531581
 20
57.6875716052
 30
0.0
 11
140.7434782689
 21
57.6875716039
 31
0.0
  0
LINE
  5
C9
100
AcDbEntity
  8
BEMAßUNG
390
0
 62
       172
100
AcDbLine
 10
124.512306316
 20
29.1875716056
 30
0.0
 11
140.7434782674
 21
29.1875716047
 31
0.0
  0
SOLID
  5
CA
100
AcDbEntity
  8
BEMAßUNG
390
0
100
AcDbTrace
 10
138.7434782689
 20
57.687571604
 30
0.0
 11
139.1350568454
 21
54.7132370198
 31
0.0
 12
138.3518996921
 22
54.7132370199
 32
0.0
 13
138.3518996921
 23
54.7132370199
 33
0.0
  0
SOLID
  5
CB
100
AcDbEntity
  8
BEMAßUNG
390
0
100
AcDbTrace
 10
138.7434782674
 20
29.1875716048
 30
0.0
 11
138.3518996909
 21
32.1619061889
 31
0.0
 12
139.1350568442
 22
32.1619061889
 32
0.0
 13
139.1350568442
 23
32.1619061889
 33
0.0
  0
MTEXT
  5
CC
100
AcDbEntity
  8
BEMAßUNG
390
0
 62
       212
100
AcDbMText
 10
135.5594782682
 20
43.4375716046
 30
0.0
 40
3.0
 41
0.0
 71
         5
 72
         1
  1
\W1.135134;\A1;28.5
  7
Arial
 11
0.0000000001
 21
1.0
 31
0.0
 73
         0
 44
0.0
  0
ENDBLK
  5
CD
100
AcDbEntity
  8
0
390
0
100
AcDbBlockEnd
  0
BLOCK
  5
CF
100
AcDbEntity
  8
BEMAßUNG
390
0
100
AcDbBlockBegin
  2
D337107456
 70
         0
 10
0.0
 20
0.0
 30
0.0
  3
D337107456
  1

  0
LINE
  5
D0
100
AcDbEntity
  8
BEMAßUNG
390
0
 62
       172
100
AcDbLine
 10
139.0025641801
 20
113.9795505176
 30
0.0
 11
138.9997888592
 21
139.9779024217
 31
0.0
  0
LINE
  5
D1
100
AcDbEntity
  8
BEMAßUNG
390
0
 62
       172
100
AcDbLine
 10
113.570066058
 20
113.9768356015
 30
0.0
 11
141.0025641687
 21
113.9797640173
 31
0.0
  0
LINE
  5
D2
100
AcDbEntity
  8
BEMAßUNG
390
0
 62
       172
100
AcDbLine
 10
129.0061531581
 20
139.9768356023
 30
0.0
 11
140.9997888478
 21
139.9781159214
 31
0.0
  0
SOLID
  5
D3
100
AcDbEntity
  8
BEMAßUNG
390
0
100
AcDbTrace
 10
139.0025641801
 20
113.9795505176
 30
0.0
 11
138.6106680958
 21
116.9538432838
 31
0.0
 12
139.3938252446
 22
116.9539268857
 32
0.0
 13
139.3938252446
 23
116.9539268857
 33
0.0
  0
SOLID
  5
D4
100
AcDbEntity
  8
BEMAßUNG
390
0
100
AcDbTrace
 10
138.9997888592
 20
139.9779024217
 30
0.0
 11
139.3916849434
 21
137.0036096555
 31
0.0
 12
138.6085277946
 22
137.0035260535
 32
0.0
 13
138.6085277946
 23
137.0035260535
 33
0.0
  0
MTEXT
  5
D5
100
AcDbEntity
  8
BEMAßUNG
390
0
 62
       212
100
AcDbMText
 10
142.1851765015
 20
126.9790663612
 30
0.0
 40
3.0
 41
0.0
 71
         5
 72
         1
  1
\W1.135145;\A1;26
  7
Arial
 11
0.0001067499
 21
-0.9999999943
 31
0.0
 73
         0
 44
0.0
  0
ENDBLK
  5
D6
100
AcDbEntity
  8
0
390
0
100
AcDbBlockEnd
  0
BLOCK
  5
D8
100
AcDbEntity
  8
BEMAßUNG
390
0
100
AcDbBlockBegin
  2
D406246400
 70
         0
 10
0.0
 20
0.0
 30
0.0
  3
D406246400
  1

  0
LINE
  5
D9
100
AcDbEntity
  8
BEMAßUNG
390
0
 62
       172
100
AcDbLine
 10
164.0022044078
 20
62.0825131753
 30
0.0
 11
172.0022044078
 21
62.0825131753
 31
0.0
  0
LINE
  5
DA
100
AcDbEntity
  8
BEMAßUNG
390
0
 62
       172
100
AcDbLine
 10
164.0022044078
 20
67.6421038913
 30
0.0
 11
164.0022044078
 21
60.0825131753
 31
0.0
  0
LINE
  5
DB
100
AcDbEntity
  8
BEMAßUNG
390
0
 62
       172
100
AcDbLine
 10
172.0022044078
 20
81.1421038913
 30
0.0
 11
172.0022044078
 21
60.0825131753
 31
0.0
  0
LINE
  5
DC
100
AcDbEntity
  8
BEMAßUNG
390
0
 62
       172
100
AcDbLine
 10
172.0022044078
 20
62.0825131753
 30
0.0
 11
180.7767069094
 21
62.0825131753
 31
0.0
  0
LINE
  5
DD
100
AcDbEntity
  8
BEMAßUNG
390
0
 62
       172
100
AcDbLine
 10
164.0022044078
 20
62.0825131753
 30
0.0
 11
157.9635352396
 21
62.0825131753
 31
0.0
  0
SOLID
  5
DE
100
AcDbEntity
  8
BEMAßUNG
390
0
100
AcDbTrace
 10
164.0022044078
 20
62.0825131753
 30
0.0
 11
161.0278698237
 21
61.6909345986
 31
0.0
 12
161.0278698237
 22
62.4740917519
 32
0.0
 13
161.0278698237
 23
62.4740917519
 33
0.0
  0
SOLID
  5
DF
100
AcDbEntity
  8
BEMAßUNG
390
0
100
AcDbTrace
 10
172.0022044078
 20
62.0825131753
 30
0.0
 11
174.976538992
 21
62.4740917519
 31
0.0
 12
174.976538992
 22
61.6909345986
 32
0.0
 13
174.976538992
 23
61.6909345986
 33
0.0
  0
MTEXT
  5
E0
100
AcDbEntity
  8
BEMAßUNG
390
0
 62
       212
100
AcDbMText
 10
179.3637902428
 20
65.2665131753
 30
0.0
 40
3.0
 41
0.0
 71
         5
 72
         1
  1
\W1.135145;\A1;8
  7
Arial
 11
1.0
 21
0.0
 31
0.0
 73
         0
 44
0.0
  0
ENDBLK
  5
E1
100
AcDbEntity
  8
0
390
0
100
AcDbBlockEnd
  0
BLOCK
  5
E3
100
AcDbEntity
  8
BEMAßUNG
390
0
100
AcDbBlockBegin
  2
D197634304
 70
         0
 10
0.0
 20
0.0
 30
0.0
  3
D197634304
  1

  0
LINE
  5
E4
100
AcDbEntity
  8
BEMAßUNG
390
0
 62
       172
100
AcDbLine
 10
180.8841430893
 20
67.6421038913
 30
0.0
 11
180.8841430893
 21
82.1421038913
 31
0.0
  0
LINE
  5
E5
100
AcDbEntity
  8
BEMAßUNG
390
0
 62
       172
100
AcDbLine
 10
172.0022044078
 20
67.6421038913
 30
0.0
 11
182.8841430893
 21
67.6421038913
 31
0.0
  0
LINE
  5
E6
100
AcDbEntity
  8
BEMAßUNG
390
0
 62
       172
100
AcDbLine
 10
164.0022044078
 20
82.1421038913
 30
0.0
 11
182.8841430893
 21
82.1421038913
 31
0.0
  0
LINE
  5
E7
100
AcDbEntity
  8
BEMAßUNG
390
0
 62
       172
100
AcDbLine
 10
180.8841430893
 20
82.1421038913
 30
0.0
 11
180.8841430893
 21
97.5299397262
 31
0.0
  0
LINE
  5
E8
100
AcDbEntity
  8
BEMAßUNG
390
0
 62
       172
100
AcDbLine
 10
180.8841430893
 20
67.6421038913
 30
0.0
 11
180.8841430893
 21
61.603434723
 31
0.0
  0
SOLID
  5
E9
100
AcDbEntity
  8
BEMAßUNG
390
0
100
AcDbTrace
 10
180.8841430893
 20
67.6421038913
 30
0.0
 11
181.2757216659
 21
64.6677693071
 31
0.0
 12
180.4925645126
 22
64.6677693071
 32
0.0
 13
180.4925645126
 23
64.6677693071
 33
0.0
  0
SOLID
  5
EA
100
AcDbEntity
  8
BEMAßUNG
390
0
100
AcDbTrace
 10
180.8841430893
 20
82.1421038913
 30
0.0
 11
180.4925645126
 21
85.1164384754
 31
0.0
 12
181.2757216659
 22
85.1164384754
 32
0.0
 13
181.2757216659
 23
85.1164384754
 33
0.0
  0
MTEXT
  5
EB
100
AcDbEntity
  8
BEMAßUNG
390
0
 62
       212
100
AcDbMText
 10
177.7001430893
 20
92.8103563928
 30
0.0
 40
3.0
 41
0.0
 71
         5
 72
         1
  1
\W1.135134;\A1;14.5
  7
Arial
 11
0.0
 21
1.0
 31
0.0
 73
         0
 44
0.0
  0
ENDBLK
  5
EC
100
AcDbEntity
  8
0
390
0
100
AcDbBlockEnd
  0
ENDSEC
  0
SECTION
  2
ENTITIES
  0
CIRCLE
  5
ED
100
AcDbEntity
  8
2655_3R
390
0
100
AcDbCircle
 10
118.0061531581
 20
164.8403543363
 30
0.0
 40
1.25
  0
LINE
  5
EE
100
AcDbEntity
  8
2655_1 RAHMEN
390
0
100
AcDbLine
 10
26.7795971288
 20
180.4913670786
 30
0.0
 11
26.7795971288
 21
135.4913670786
 31
0.0
  0
LINE
  5
EF
100
AcDbEntity
  8
2655_3 DREHHEBEL
390
0
100
AcDbLine
 10
114.0061531581
 20
172.7581548427
 30
0.0
 11
101.0061531581
 21
172.7581548427
 31
0.0
  0
LINE
  5
F0
100
AcDbEntity
  8
2655_3 DREHHEBEL
390
0
100
AcDbLine
 10
116.0061531581
 20
179.12422359
 30
0.0
 11
116.0061531581
 21
159.1203543363
 31
0.0
  0
LINE
  5
F1
100
AcDbEntity
  8
2655_2 SCHIEBER
390
0
100
AcDbLine
 10
314.9122200772
 20
159.7024710425
 30
0.0
 11
314.9122200772
 21
157.7024710425
 31
0.0
  0
LINE
  5
F2
100
AcDbEntity
  8
2655_3 DREHHEBEL
390
0
100
AcDbLine
 10
311.1122200772
 20
162.9524710425
 30
0.0
 11
311.1122200772
 21
160.9524710425
 31
0.0
  0
LINE
  5
F3
100
AcDbEntity
  8
2655_1 RAHMEN
390
0
100
AcDbLine
 10
26.7795971288
 20
180.4913670786
 30
0.0
 11
56.7795971288
 21
180.4913670786
 31
0.0
  0
LINE
  5
F4
100
AcDbEntity
  8
2655_1 RAHMEN
390
0
100
AcDbLine
 10
26.7795971288
 20
135.4913670786
 30
0.0
 11
56.7795971288
 21
135.4913670786
 31
0.0
  0
LINE
  5
F5
100
AcDbEntity
  8
2655_1 RAHMEN
390
0
100
AcDbLine
 10
56.7795971288
 20
180.4913670786
 30
0.0
 11
56.7795971288
 21
135.4913670786
 31
0.0
  0
CIRCLE
  5
F6
100
AcDbEntity
  8
2655_1P
390
0
100
AcDbCircle
 10
32.1295971288
 20
137.9913670786
 30
0.0
 40
1.25
  0
LINE
  5
F7
100
AcDbEntity
  8
2655_1 RAHMEN
390
0
100
AcDbLine
 10
26.7795971288
 20
113.7979347356
 30
0.0
 11
26.7795971288
 21
53.7979347356
 31
0.0
  0
LINE
  5
F8
100
AcDbEntity
  8
2655_1 RAHMEN
390
0
100
AcDbLine
 10
26.7795971288
 20
113.7979347356
 30
0.0
 11
56.7795971288
 21
113.7979347356
 31
0.0
  0
LINE
  5
F9
100
AcDbEntity
  8
2655_1 RAHMEN
390
0
100
AcDbLine
 10
26.7795971288
 20
53.7979347356
 30
0.0
 11
56.7795971288
 21
53.7979347356
 31
0.0
  0
LINE
  5
FA
100
AcDbEntity
  8
2655_1 RAHMEN
390
0
100
AcDbLine
 10
56.7795971288
 20
113.7979347356
 30
0.0
 11
56.7795971288
 21
53.7979347356
 31
0.0
  0
LINE
  5
FB
100
AcDbEntity
  8
2655_3 DREHHEBEL
390
0
100
AcDbLine
 10
101.0061531581
 20
172.7581548427
 30
0.0
 11
101.0061531581
 21
159.1203543363
 31
0.0
  0
CIRCLE
  5
FC
100
AcDbEntity
  8
2655_3L
390
0
100
AcDbCircle
 10
106.0026316001
 20
162.7581527761
 30
0.0
 40
1.25
  0
CIRCLE
  5
FD
100
AcDbEntity
  8
2655_2P
390
0
100
AcDbCircle
 10
164.3731461107
 20
133.6735665486
 30
0.0
 40
1.25
  0
LINE
  5
FE
100
AcDbEntity
  8
2655_2 SCHIEBER
390
0
100
AcDbLine
 10
160.8731461107
 20
100.6757021724
 30
0.0
 11
160.8731461107
 21
175.6757021724
 31
0.0
  0
LINE
  5
FF
100
AcDbEntity
  8
2655_2 SCHIEBER
390
0
100
AcDbLine
 10
175.8731461107
 20
100.6757021724
 30
0.0
 11
175.8731461107
 21
175.6757021724
 31
0.0
  0
LINE
  5
100
100
AcDbEntity
  8
2655_2 SCHIEBER
390
0
100
AcDbLine
 10
160.8731461107
 20
175.6757021724
 30
0.0
 11
175.8731461107
 21
175.6757021724
 31
0.0
  0
CIRCLE
  5
101
100
AcDbEntity
  8
2655_2P
390
0
100
AcDbCircle
 10
164.3731461107
 20
103.6757021724
 30
0.0
 40
1.25
  0
CIRCLE
  5
102
100
AcDbEntity
  8
2655_2P
390
0
100
AcDbCircle
 10
164.3731461107
 20
172.6757021724
 30
0.0
 40
1.25
  0
LINE
  5
103
100
AcDbEntity
  8
2655_2 SCHIEBER
390
0
100
AcDbLine
 10
160.8731461107
 20
100.6757021724
 30
0.0
 11
175.8731461107
 21
100.6757021724
 31
0.0
  0
TEXT
  5
104
100
AcDbEntity
  8
BESCHRIFTUNG
390
0
100
AcDbText
 10
16.2738416988
 20
190.0220849421
 30
0.0
 40
3.0
  1
2655.1
 41
1.1351381787
  7
Arial
 11
16.2738416988
 21
193.0220849421
 31
0.0
100
AcDbText
 73
         3
  0
TEXT
  5
105
100
AcDbEntity
  8
BESCHRIFTUNG
390
0
100
AcDbText
 10
17.045965251
 20
122.4103861004
 30
0.0
 40
3.0
  1
2655.11
 41
1.135139297
  7
Arial
 11
17.045965251
 21
125.4103861004
 31
0.0
100
AcDbText
 73
         3
  0
TEXT
  5
106
100
AcDbEntity
  8
BESCHRIFTUNG
390
0
100
AcDbText
 10
144.6926300928
 20
187.9027938973
 30
0.0
 40
3.0
  1
2655.2
 41
1.1351380459
  7
Arial
 11
144.6926300928
 21
190.9027938973
 31
0.0
100
AcDbText
 73
         3
  0
TEXT
  5
107
100
AcDbEntity
  8
BESCHRIFTUNG
390
0
100
AcDbText
 10
95.776003861
 20
188.7942084942
 30
0.0
 40
3.0
  1
2655.3
 41
1.1351382053
  7
Arial
 11
95.776003861
 21
191.7942084942
 31
0.0
100
AcDbText
 73
         3
  0
TEXT
  5
108
100
AcDbEntity
  8
BESCHRIFTUNG
390
0
100
AcDbText
 10
103.9952287564
 20
68.0417794042
 30
0.0
 40
3.0
  1
2655.78
 41
1.1351392071
  7
Arial
 11
103.9952287564
 21
71.0417794042
 31
0.0
100
AcDbText
 73
         3
  0
TEXT
  5
109
100
AcDbEntity
  8
BESCHRIFTUNG
390
0
100
AcDbText
 10
95.296146481
 20
106.7453920672
 30
0.0
 40
3.0
  1
2655.5
 41
1.1351380725
  7
Arial
 11
95.296146481
 21
109.7453920672
 31
0.0
100
AcDbText
 73
         3
  0
TEXT
  5
10A
100
AcDbEntity
  8
BESCHRIFTUNG
390
0
100
AcDbText
 10
150.027803838
 20
89.9019748556
 30
0.0
 40
3.0
  1
2655.6
 41
1.1351381787
  7
Arial
 11
150.027803838
 21
92.9019748556
 31
0.0
100
AcDbText
 73
         3
  0
LINE
  5
10B
100
AcDbEntity
  8
2655_1P
390
0
  6
DIVIDE
100
AcDbLine
 10
26.7795971288
 20
181.4913670786
 30
0.0
 11
56.7795971288
 21
181.4913670786
 31
0.0
  0
LINE
  5
10C
100
AcDbEntity
  8
2655_1P
390
0
  6
DIVIDE
100
AcDbLine
 10
26.7795971288
 20
134.4913670786
 30
0.0
 11
56.7795971288
 21
134.4913670786
 31
0.0
  0
LINE
  5
10D
100
AcDbEntity
  8
2655_1P
390
0
100
AcDbLine
 10
38.7795971288
 20
175.4913670786
 30
0.0
 11
38.7795971288
 21
150.4913670786
 31
0.0
  0
LINE
  5
10E
100
AcDbEntity
  8
2655_1P
390
0
100
AcDbLine
 10
51.7795971288
 20
175.4913670786
 30
0.0
 11
38.7795971288
 21
175.4913670786
 31
0.0
  0
LINE
  5
10F
100
AcDbEntity
  8
2655_1P
390
0
100
AcDbLine
 10
51.7795971288
 20
170.4913670786
 30
0.0
 11
54.2795971288
 21
170.4913670786
 31
0.0
  0
LINE
  5
110
100
AcDbEntity
  8
2655_1P
390
0
100
AcDbLine
 10
51.7795971288
 20
175.4913670786
 30
0.0
 11
51.7795971288
 21
170.4913670786
 31
0.0
  0
LINE
  5
111
100
AcDbEntity
  8
2655_1P
390
0
100
AcDbLine
 10
51.7795971288
 20
156.4913670786
 30
0.0
 11
51.7795971288
 21
150.4913670786
 31
0.0
  0
LINE
  5
112
100
AcDbEntity
  8
2655_1P
390
0
100
AcDbLine
 10
38.7795971288
 20
150.4913670786
 30
0.0
 11
51.7795971288
 21
150.4913670786
 31
0.0
  0
LINE
  5
113
100
AcDbEntity
  8
2655_1P
390
0
100
AcDbLine
 10
54.2795971288
 20
170.4913670786
 30
0.0
 11
54.2795971288
 21
156.4913670786
 31
0.0
  0
LINE
  5
114
100
AcDbEntity
  8
2655_1P
390
0
100
AcDbLine
 10
51.7795971288
 20
156.4913670786
 30
0.0
 11
54.2795971288
 21
156.4913670786
 31
0.0
  0
CIRCLE
  5
115
100
AcDbEntity
  8
2655_1P
390
0
  6
PHANTOM
100
AcDbCircle
 10
26.7795971288
 20
181.4913670786
 30
0.0
 40
0.5
  0
CIRCLE
  5
116
100
AcDbEntity
  8
2655_1P
390
0
  6
PHANTOM
100
AcDbCircle
 10
26.7795971288
 20
134.4913670786
 30
0.0
 40
1.0
  0
LINE
  5
117
100
AcDbEntity
  8
2655_1P
390
0
  6
DASHED
100
AcDbLine
 10
56.7795971288
 20
181.4913670786
 30
0.0
 11
51.7795971288
 21
175.4913670786
 31
0.0
  0
LINE
  5
118
100
AcDbEntity
  8
2655_1P
390
0
  6
DASHED
100
AcDbLine
 10
32.1295971288
 20
176.4913670786
 30
0.0
 11
32.1295971288
 21
137.9913670786
 31
0.0
  0
LINE
  5
119
100
AcDbEntity
  8
2655_1P
390
0
  6
DASHED
100
AcDbLine
 10
32.1295971288
 20
137.9913670786
 30
0.0
 11
56.7795971288
 21
134.4913670786
 31
0.0
  0
TEXT
  5
11A
100
AcDbEntity
  8
2655_1P
390
0
  6
DASHED
100
AcDbText
 10
42.5999923012
 20
174.6456383071
 30
0.0
 40
1.5
  1
N1
 41
0.8648415648
  7
Arial
 11
42.5999923012
 21
176.1456383071
 31
0.0
100
AcDbText
 73
         3
  0
MTEXT
  5
11B
100
AcDbEntity
  8
2655_1P
390
0
100
AcDbMText
 10
17.2649258199
 20
187.0146738092
 30
0.0
 40
2.0
 41
0.0
 71
         1
 72
         1
  1
\W1.135101;M15x30x15 F150\PT2 O2 S4 I1,2\PB-0,3     D1,2
  7
Arial
 73
         1
 44
0.66
  0
MTEXT
  5
11C
100
AcDbEntity
  8
2655_11P
390
0
100
AcDbMText
 10
17.2649258199
 20
120.3212414662
 30
0.0
 40
2.0
 41
0.0
 71
         1
 72
         1
  1
\W1.135101;M15x30x15 F150\PT2 O2 S4 I1,2\PB-0,3     D1,2
  7
Arial
 73
         1
 44
0.66
  0
TEXT
  5
11D
100
AcDbEntity
  8
2655_11P
390
0
  6
DASHED
100
AcDbText
 10
42.5999923012
 20
107.9522059642
 30
0.0
 40
1.5
  1
N1
 41
0.8648415648
  7
Arial
 11
42.5999923012
 21
109.4522059642
 31
0.0
100
AcDbText
 73
         3
  0
LINE
  5
11E
100
AcDbEntity
  8
2655_11P
390
0
  6
DIVIDE
100
AcDbLine
 10
26.7795971288
 20
52.7979347356
 30
0.0
 11
56.7795971288
 21
52.7979347356
 31
0.0
  0
LINE
  5
11F
100
AcDbEntity
  8
2655_11P
390
0
100
AcDbLine
 10
38.7795971288
 20
108.7979347356
 30
0.0
 11
38.7795971288
 21
83.7979347356
 31
0.0
  0
LINE
  5
120
100
AcDbEntity
  8
2655_11P
390
0
  6
DIVIDE
100
AcDbLine
 10
26.7795971288
 20
114.7979347356
 30
0.0
 11
56.7795971288
 21
114.7979347356
 31
0.0
  0
LINE
  5
121
100
AcDbEntity
  8
2655_11P
390
0
  6
DASHED
100
AcDbLine
 10
32.1295971288
 20
71.2979347356
 30
0.0
 11
56.7795971288
 21
52.7979347356
 31
0.0
  0
LINE
  5
122
100
AcDbEntity
  8
2655_11P
390
0
100
AcDbLine
 10
54.2795971288
 20
103.7979347356
 30
0.0
 11
54.2795971288
 21
89.7979347356
 31
0.0
  0
CIRCLE
  5
123
100
AcDbEntity
  8
2655_11P
390
0
  6
PHANTOM
100
AcDbCircle
 10
26.7795971288
 20
52.7979347356
 30
0.0
 40
1.0
  0
CIRCLE
  5
124
100
AcDbEntity
  8
2655_11P
390
0
  6
PHANTOM
100
AcDbCircle
 10
26.7795971288
 20
114.7979347356
 30
0.0
 40
0.5
  0
LINE
  5
125
100
AcDbEntity
  8
2655_2P
390
0
  6
DIVIDE
100
AcDbLine
 10
160.8731461107
 20
176.6757021724
 30
0.0
 11
175.8731461107
 21
176.6757021724
 31
0.0
  0
LINE
  5
126
100
AcDbEntity
  8
2655_2P
390
0
  6
DIVIDE
100
AcDbLine
 10
160.8731461107
 20
99.6757021724
 30
0.0
 11
175.8731461107
 21
99.6757021724
 31
0.0
  0
LINE
  5
127
100
AcDbEntity
  8
2655_2P
390
0
100
AcDbLine
 10
163.8731461107
 20
167.1857021724
 30
0.0
 11
163.8731461107
 21
143.1857021724
 31
0.0
  0
LINE
  5
128
100
AcDbEntity
  8
2655_2P
390
0
100
AcDbLine
 10
164.8731461107
 20
167.1857021724
 30
0.0
 11
164.8731461107
 21
143.1857021724
 31
0.0
  0
LINE
  5
129
100
AcDbEntity
  8
2655_2P
390
0
100
AcDbLine
 10
168.8731461107
 20
143.3157021724
 30
0.0
 11
168.8731461107
 21
123.3157021724
 31
0.0
  0
LINE
  5
12A
100
AcDbEntity
  8
2655_2P
390
0
100
AcDbLine
 10
169.8731461107
 20
143.3157021724
 30
0.0
 11
169.8731461107
 21
123.3157021724
 31
0.0
  0
ARC
  5
12B
100
AcDbEntity
  8
2655_2P
390
0
100
AcDbCircle
 10
169.3731461107
 20
143.3157021724
 30
0.0
 40
0.5
100
AcDbArc
 50
0.0
 51
180.0
  0
ARC
  5
12C
100
AcDbEntity
  8
2655_2P
390
0
100
AcDbCircle
 10
169.3731461107
 20
123.3157021724
 30
0.0
 40
0.5
100
AcDbArc
 50
180.0
 51
360.0
  0
ARC
  5
12D
100
AcDbEntity
  8
2655_2P
390
0
100
AcDbCircle
 10
164.3731461107
 20
143.1857021724
 30
0.0
 40
0.5
100
AcDbArc
 50
180.0
 51
360.0
  0
ARC
  5
12E
100
AcDbEntity
  8
2655_2P
390
0
100
AcDbCircle
 10
164.3731461107
 20
167.1857021724
 30
0.0
 40
0.5
100
AcDbArc
 50
0.0
 51
180.0
  0
LINE
  5
12F
100
AcDbEntity
  8
2655_2P
390
0
  6
DASHED
100
AcDbLine
 10
164.3731461107
 20
172.6757021724
 30
0.0
 11
163.8731461107
 21
167.1857021724
 31
0.0
  0
LINE
  5
130
100
AcDbEntity
  8
2655_2P
390
0
  6
DASHED
100
AcDbLine
 10
163.8731461107
 20
167.1857021724
 30
0.0
 11
168.8731461107
 21
143.3157021724
 31
0.0
  0
LINE
  5
131
100
AcDbEntity
  8
2655_2P
390
0
  6
DASHED
100
AcDbLine
 10
168.8731461107
 20
143.3157021724
 30
0.0
 11
164.3731461107
 21
133.6735665486
 31
0.0
  0
LINE
  5
132
100
AcDbEntity
  8
2655_2P
390
0
  6
DASHED
100
AcDbLine
 10
164.3731461107
 20
133.6735665486
 30
0.0
 11
164.3731461107
 21
103.6757021724
 31
0.0
  0
CIRCLE
  5
133
100
AcDbEntity
  8
2655_2P
390
0
  6
PHANTOM
100
AcDbCircle
 10
160.8731461107
 20
176.6757021724
 30
0.0
 40
0.5
  0
CIRCLE
  5
134
100
AcDbEntity
  8
2655_2P
390
0
  6
PHANTOM
100
AcDbCircle
 10
160.8731461107
 20
99.6757021724
 30
0.0
 40
1.0
  0
MTEXT
  5
135
100
AcDbEntity
  8
2655_2P
390
0
100
AcDbMText
 10
150.4886334286
 20
182.1990089029
 30
0.0
 40
2.0
 41
0.0
 71
         1
 72
         1
  1
\W1.135100;M15x2 F150\PT2 O2 S4 I1,2\PB-0,3     D1,2
  7
Arial
 73
         1
 44
0.66
  0
TEXT
  5
136
100
AcDbEntity
  8
2655_2P
390
0
  6
DASHED
100
AcDbText
 10
167.5481857296
 20
138.6961901786
 30
0.0
 40
1.5
  1
N1
 41
0.8648415648
  7
Arial
 11
167.5481857296
 21
140.1961901786
 31
0.0
100
AcDbText
 73
         3
  0
TEXT
  5
137
100
AcDbEntity
  8
2655_2P
390
0
  6
DASHED
100
AcDbText
 10
162.4808633321
 20
157.0519505473
 30
0.0
 40
1.5
  1
N1
 41
0.8648415648
  7
Arial
 11
162.4808633321
 21
158.5519505473
 31
0.0
100
AcDbText
 73
         3
  0
LINE
  5
138
100
AcDbEntity
  8
2655_3 DREHHEBEL
390
0
100
AcDbLine
 10
114.0061531581
 20
179.12422359
 30
0.0
 11
114.0061531581
 21
172.7581548427
 31
0.0
  0
LINE
  5
139
100
AcDbEntity
  8
2655_3 DREHHEBEL
390
0
100
AcDbLine
 10
114.0061531581
 20
179.12422359
 30
0.0
 11
120.5433188795
 21
179.1242235897
 31
0.0
  0
LINE
  5
13A
100
AcDbEntity
  8
2655_3L
390
0
100
AcDbLine
 10
113.0061531581
 20
179.12422359
 30
0.0
 11
113.0061531581
 21
173.7581548427
 31
0.0
  0
LINE
  5
13B
100
AcDbEntity
  8
2655_3L
390
0
100
AcDbLine
 10
113.0061531581
 20
173.7581548427
 30
0.0
 11
101.0061531581
 21
173.7581548427
 31
0.0
  0
LINE
  5
13C
100
AcDbEntity
  8
2655_3R
390
0
  6
DIVIDE
100
AcDbLine
 10
132.0061531581
 20
158.1203543363
 30
0.0
 11
116.0061531581
 21
158.1203543363
 31
0.0
  0
LINE
  5
13D
100
AcDbEntity
  8
2655_3R
390
0
100
AcDbLine
 10
122.4061531581
 20
174.8403543363
 30
0.0
 11
122.4061531581
 21
170.0888824737
 31
0.0
  0
LINE
  5
13E
100
AcDbEntity
  8
2655_3R
390
0
100
AcDbLine
 10
123.6061531581
 20
170.4403543363
 30
0.0
 11
123.6061531581
 21
174.8403543363
 31
0.0
  0
LINE
  5
13F
100
AcDbEntity
  8
2655_3R
390
0
100
AcDbLine
 10
128.0061531581
 20
170.4403543363
 30
0.0
 11
123.6061531581
 21
170.4403543363
 31
0.0
  0
LINE
  5
140
100
AcDbEntity
  8
2655_3R
390
0
100
AcDbLine
 10
128.0061531581
 20
169.2403543363
 30
0.0
 11
123.6274735017
 21
169.2403543363
 31
0.0
  0
LINE
  5
141
100
AcDbEntity
  8
2655_3R
390
0
100
AcDbLine
 10
120.7815032996
 20
168.4642326153
 30
0.0
 11
122.4061531581
 21
170.0888824737
 31
0.0
  0
ARC
  5
142
100
AcDbEntity
  8
2655_3R
390
0
100
AcDbCircle
 10
123.0061531581
 20
174.8403543363
 30
0.0
 40
0.6
100
AcDbArc
 50
0.0
 51
180.0
  0
ARC
  5
143
100
AcDbEntity
  8
2655_3R
390
0
100
AcDbCircle
 10
128.0061531581
 20
169.8403543363
 30
0.0
 40
0.6
100
AcDbArc
 50
270.0
 51
450.0
  0
ARC
  5
144
100
AcDbEntity
  8
2655_3R
390
0
100
AcDbCircle
 10
121.2057673683
 20
168.0399685466
 30
0.0
 40
0.6
100
AcDbArc
 50
134.9999999997
 51
315.0000000004
  0
LINE
  5
145
100
AcDbEntity
  8
2655_3L
390
0
  6
DIVIDE
100
AcDbLine
 10
101.0061531581
 20
180.1242235905
 30
0.0
 11
116.0061531581
 21
180.1242235908
 31
0.0
  0
CIRCLE
  5
146
100
AcDbEntity
  8
2655_3R
390
0
  6
DIVIDE
100
AcDbCircle
 10
119.5061531581
 20
163.3403543363
 30
0.0
 40
1.0
  0
CIRCLE
  5
147
100
AcDbEntity
  8
2655_3R
390
0
  6
DIVIDE
100
AcDbCircle
 10
121.0014574832
 20
161.8450500112
 30
0.0
 40
1.0
  0
CIRCLE
  5
148
100
AcDbEntity
  8
2655_3L
390
0
  6
PHANTOM
100
AcDbCircle
 10
101.0061531581
 20
180.1242235905
 30
0.0
 40
0.5
  0
CIRCLE
  5
149
100
AcDbEntity
  8
2655_3L
390
0
  6
PHANTOM
100
AcDbCircle
 10
101.0061531581
 20
158.1203543363
 30
0.0
 40
1.0
  0
CIRCLE
  5
14A
100
AcDbEntity
  8
2655_3R
390
0
  6
PHANTOM
100
AcDbCircle
 10
116.0028728321
 20
180.1242235899
 30
0.0
 40
0.5
  0
CIRCLE
  5
14B
100
AcDbEntity
  8
2655_3R
390
0
  6
PHANTOM
100
AcDbCircle
 10
116.0061531581
 20
158.1203543363
 30
0.0
 40
1.0
  0
LINE
  5
14C
100
AcDbEntity
  8
2655_3L
390
0
  6
DIVIDE
100
AcDbLine
 10
116.0061531581
 20
158.1203543363
 30
0.0
 11
101.0061531581
 21
158.1203543363
 31
0.0
  0
LINE
  5
14D
100
AcDbEntity
  8
2655_3L
390
0
  6
DASHED
100
AcDbLine
 10
116.0061531581
 20
180.1242235908
 30
0.0
 11
113.0061531581
 21
179.12422359
 31
0.0
  0
LINE
  5
14E
100
AcDbEntity
  8
2655_3L
390
0
  6
DASHED
100
AcDbLine
 10
101.0061531581
 20
173.7581548427
 30
0.0
 11
112.0061531581
 21
165.2581548427
 31
0.0
  0
LINE
  5
14F
100
AcDbEntity
  8
2655_3L
390
0
  6
DASHED
100
AcDbLine
 10
106.0026316001
 20
162.7581527761
 30
0.0
 11
116.0061531581
 21
158.1203543363
 31
0.0
  0
LINE
  5
150
100
AcDbEntity
  8
2655_3R
390
0
  6
DASHED
100
AcDbLine
 10
123.2839706174
 20
169.2696436582
 30
0.0
 11
118.0061531581
 21
164.8403543363
 31
0.0
  0
LINE
  5
151
100
AcDbEntity
  8
2655_3R
390
0
  6
DASHED
100
AcDbLine
 10
118.0061531581
 20
164.8403543363
 30
0.0
 11
119.5061531581
 21
163.3403543363
 31
0.0
  0
MTEXT
  5
152
100
AcDbEntity
  8
2655_3L
390
0
100
AcDbMText
 10
93.0110498467
 20
185.9581868409
 30
0.0
 40
2.0
 41
0.0
 71
         1
 72
         1
  1
\W0.810867;M15x15x2 F150\PT2 O2 S4 I1,2\PB-0,3     D1,5
  7
Arial
 73
         1
 44
0.66
  0
MTEXT
  5
153
100
AcDbEntity
  8
2655_3R
390
0
100
AcDbMText
 10
109.0782596379
 20
185.9581868409
 30
0.0
 40
2.0
 41
0.0
 71
         1
 72
         1
  1
\W0.810867;M15x15x2 F150\PT2 O2 S4 I1,2\PB-0,3     D1,5
  7
Arial
 73
         1
 44
0.66
  0
ARC
  5
154
100
AcDbEntity
  8
2655___ W-_ GSP-_ SIGNAL-ANTRIEB
390
0
  6
DASHDOT
100
AcDbCircle
 10
47.279912903
 20
157.9913670786
 30
0.0
 40
31.18513984
100
AcDbArc
 50
131.099943452
 51
228.900056548
  0
ARC
  5
155
100
AcDbEntity
  8
2655___ W-_ GSP-_ SIGNAL-ANTRIEB
390
0
  6
DASHDOT
100
AcDbCircle
 10
58.3963707734
 20
83.7979347356
 30
0.0
 40
44.2788931173
100
AcDbArc
 50
135.5643437355
 51
224.4356562645
  0
ARC
  5
156
100
AcDbEntity
  8
2655___ W-_ GSP-_ SIGNAL-ANTRIEB
390
0
  6
DASHDOT
100
AcDbCircle
 10
214.9386602243
 20
138.1757021724
 30
0.0
 40
66.3726586508
100
AcDbArc
 50
144.5453689783
 51
215.4546310217
  0
ARC
  5
157
100
AcDbEntity
  8
2655___ W-_ GSP-_ SIGNAL-ANTRIEB
390
0
  6
DASHDOT
100
AcDbCircle
 10
106.1937334532
 20
169.1222889634
 30
0.0
 40
12.1636160272
100
AcDbArc
 50
115.2445938472
 51
244.7554061528
  0
MTEXT
  5
158
100
AcDbEntity
  8
2655___ W-_ GSP-_ SIGNAL-ANTRIEB
390
0
100
AcDbMText
 10
94.4504044078
 20
168.5226532781
 30
0.0
 40
2.0
 41
0.0
 71
         5
 72
         1
  1
\W0.810845;>2655.3L\PM15x15x2\PT2 O2
  7
Arial
 73
         1
 44
0.66
  0
MTEXT
  5
159
100
AcDbEntity
  8
2655___ W-_ GSP-_ SIGNAL-ANTRIEB
390
0
100
AcDbMText
 10
148.4117273442
 20
138.6902006078
 30
0.0
 40
2.0
 41
0.0
 71
         5
 72
         1
  1
\W0.810845;>2655.2P\PM15x2\PT2 O2
  7
Arial
 73
         1
 44
0.66
  0
MTEXT
  5
15A
100
AcDbEntity
  8
2655___ W-_ GSP-_ SIGNAL-ANTRIEB
390
0
100
AcDbMText
 10
13.9632034268
 20
85.3124331711
 30
0.0
 40
2.0
 41
0.0
 71
         5
 72
         1
  1
\W0.810848;>2655.11P\PM15x30x15\PT2 O2
  7
Arial
 73
         1
 44
0.66
  0
MTEXT
  5
15B
100
AcDbEntity
  8
2655___ W-_ GSP-_ SIGNAL-ANTRIEB
390
0
100
AcDbMText
 10
15.9404988336
 20
159.505865514
 30
0.0
 40
2.0
 41
0.0
 71
         5
 72
         1
  1
\W0.810845;>2655.1P\PM15x30x15\PT2 O2
  7
Arial
 73
         1
 44
0.66
  0
LINE
  5
15C
100
AcDbEntity
  8
2655_3L
390
0
100
AcDbLine
 10
112.0061531581
 20
163.2581548427
 30
0.0
 11
112.0061531581
 21
164.7239383151
 31
0.0
  0
LINE
  5
15D
100
AcDbEntity
  8
2655_3L
390
0
100
AcDbLine
 10
113.0061531581
 20
165.2581548427
 30
0.0
 11
113.0061531581
 21
163.2581548427
 31
0.0
  0
LINE
  5
15E
100
AcDbEntity
  8
2655_3L
390
0
100
AcDbLine
 10
112.0061531581
 20
165.2581548427
 30
0.0
 11
113.0061531581
 21
165.2581548427
 31
0.0
  0
LINE
  5
15F
100
AcDbEntity
  8
2655_3L
390
0
100
AcDbLine
 10
113.0061531581
 20
163.2581548427
 30
0.0
 11
112.0061531581
 21
163.2581548427
 31
0.0
  0
LINE
  5
160
100
AcDbEntity
  8
2655_3L
390
0
  6
DASHED
100
AcDbLine
 10
112.0061531581
 20
164.7239383151
 30
0.0
 11
106.0026316001
 21
162.7581527761
 31
0.0
  0
LINE
  5
161
100
AcDbEntity
  8
2655_3 DREHHEBEL
390
0
100
AcDbLine
 10
114.0061531581
 20
166.2581548427
 30
0.0
 11
114.0061531581
 21
162.2581548427
 31
0.0
  0
LINE
  5
162
100
AcDbEntity
  8
2655_3 DREHHEBEL
390
0
100
AcDbLine
 10
114.0061531581
 20
162.2581548427
 30
0.0
 11
111.0061531581
 21
162.2581548427
 31
0.0
  0
LINE
  5
163
100
AcDbEntity
  8
2655_3 DREHHEBEL
390
0
100
AcDbLine
 10
111.0061531581
 20
162.2581548427
 30
0.0
 11
111.0061531581
 21
166.2581548427
 31
0.0
  0
LINE
  5
164
100
AcDbEntity
  8
2655_3 DREHHEBEL
390
0
100
AcDbLine
 10
111.0061531581
 20
166.2581548427
 30
0.0
 11
114.0061531581
 21
166.2581548427
 31
0.0
  0
LINE
  5
165
100
AcDbEntity
  8
2655_3R
390
0
100
AcDbLine
 10
121.6300314371
 20
167.6157044779
 30
0.0
 11
123.2839706174
 21
169.2696436582
 31
0.0
  0
TEXT
  5
166
100
AcDbEntity
  8
BESCHRIFTUNG
390
0
100
AcDbText
 10
215.3145333333
 20
29.3230888889
 30
0.0
 40
3.3
  1
2025-08-16
 41
1.1302027937
  7
Arial
 11
215.3145333333
 21
32.6230888889
 31
0.0
100
AcDbText
 73
         3
  0
TEXT
  5
167
100
AcDbEntity
  8
BESCHRIFTUNG
390
0
100
AcDbText
 10
215.3145333333
 20
6.9230888889
 30
0.0
 40
3.3
  1
2655 Ph W-, Gsp-, Signal-Antrieb
 41
1.1301924947
  7
Arial
 11
215.3145333333
 21
10.2230888889
 31
0.0
100
AcDbText
 73
         3
  0
MTEXT
  5
168
100
AcDbEntity
  8
BESCHRIFTUNG
390
0
100
AcDbMText
 10
243.8948930097
 20
81.032613143
 30
0.0
 40
3.0
 41
0.0
 71
         1
 72
         1
  1
\W1.135077;Rahmen\PSchieber\PDrehhebel quer\PKuppeldraht\PStellhebel (hor.)\PStellverstellung\PStellhebel (vert.)\PStellanschlag (vert.)\PRiegelschieber\PVerriegelungsschieber\PRahmen lang\PRiegelzapfen\PDrehhebel längs\P
  7
Arial
 73
         1
 44
0.66
  0
CIRCLE
  5
169
100
AcDbEntity
  8
2655_5 STELLHEBEL
390
0
100
AcDbCircle
 10
119.1547785034
 20
85.6337426191
 30
0.0
 40
0.5
  0
CIRCLE
  5
16A
100
AcDbEntity
  8
2655_6P
390
0
100
AcDbCircle
 10
167.0022044078
 20
78.1421038913
 30
0.0
 40
1.0
  0
CIRCLE
  5
16B
100
AcDbEntity
  8
2655_5R
390
0
100
AcDbCircle
 10
119.0081811069
 20
94.1108700569
 30
0.0
 40
1.25
  0
ARC
  5
16C
100
AcDbEntity
  8
2655_3 DREHHEBEL
390
0
100
AcDbCircle
 10
118.0061531581
 20
164.3403543363
 30
0.0
 40
15.0
100
AcDbArc
 50
29.9264348666
 51
80.2619246785
  0
ARC
  5
16D
100
AcDbEntity
  8
2655_3 DREHHEBEL
390
0
100
AcDbCircle
 10
121.2057673683
 20
168.0399685466
 30
0.0
 40
1.6
100
AcDbArc
 50
134.9999999997
 51
314.9999999996
  0
ARC
  5
16E
100
AcDbEntity
  8
2655_3 DREHHEBEL
390
0
100
AcDbCircle
 10
123.0061531581
 20
174.8403543363
 30
0.0
 40
1.6
100
AcDbArc
 50
360.0
 51
540.0
  0
CIRCLE
  5
16F
100
AcDbEntity
  8
2655_3 DREHHEBEL
390
0
100
AcDbCircle
 10
118.0061531581
 20
164.8403543363
 30
0.0
 40
0.5
  0
MTEXT
  5
170
100
AcDbEntity
  8
BESCHRIFTUNG
390
0
100
AcDbMText
 10
209.478624353
 20
81.032613143
 30
0.0
 40
3.0
 41
0.0
 71
         1
 72
         1
  1
\W1.135138;2655.1\P2655.2\P2655.3\P2655.4/0\P2655.5\P2655.6\P2655.7\P2655.8\P2655.9\P2655.10\P2655.11\P2655.12/6(+4)\P2655.13
  7
Arial
 73
         1
 44
0.66
  0
ARC
  5
171
100
AcDbEntity
  8
2655_3 DREHHEBEL
390
0
100
AcDbCircle
 10
128.0061531581
 20
169.8403543363
 30
0.0
 40
1.6
100
AcDbArc
 50
270.0
 51
450.0
  0
CIRCLE
  5
172
100
AcDbEntity
  8
2655_3 DREHHEBEL
390
0
100
AcDbCircle
 10
121.0014574832
 20
161.8450500112
 30
0.0
 40
0.5
  0
CIRCLE
  5
173
100
AcDbEntity
  8
2655_3 DREHHEBEL
390
0
100
AcDbCircle
 10
119.5061531581
 20
163.3403543363
 30
0.0
 40
0.5
  0
ARC
  5
174
100
AcDbEntity
  8
2655_5 STELLHEBEL
390
0
100
AcDbCircle
 10
119.0081811069
 20
94.1108700569
 30
0.0
 40
3.0020279488
100
AcDbArc
 50
2.9786718388
 51
180.0
  0
CIRCLE
  5
175
100
AcDbEntity
  8
2655_78R
390
0
100
AcDbCircle
 10
118.5061531581
 20
53.5884473735
 30
0.0
 40
1.25
  0
CIRCLE
  5
176
100
AcDbEntity
  8
2655_78R
390
0
100
AcDbCircle
 10
128.505738988
 20
53.5681004188
 30
0.0
 40
1.25
  0
ARC
  5
177
100
AcDbEntity
  8
2655_5 STELLHEBEL
390
0
100
AcDbCircle
 10
118.5061531581
 20
53.5884473735
 30
0.0
 40
2.5
100
AcDbArc
 50
90.0
 51
180.0000000004
  0
LINE
  5
178
100
AcDbEntity
  8
2655_6 STELLVERSTELLUNG
390
0
 62
       230
100
AcDbLine
 10
171.0022044078
 20
81.1421038913
 30
0.0
 11
171.0022044078
 21
68.6421038913
 31
0.0
  0
LINE
  5
179
100
AcDbEntity
  8
2655_6 STELLVERSTELLUNG
390
0
 62
       230
100
AcDbLine
 10
170.0022044078
 20
75.1421038913
 30
0.0
 11
170.0022044078
 21
68.6421038913
 31
0.0
  0
LINE
  5
17A
100
AcDbEntity
  8
2655_6 STELLVERSTELLUNG
390
0
 62
       230
100
AcDbLine
 10
166.0022044078
 20
75.1421038913
 30
0.0
 11
170.0022044078
 21
75.1421038913
 31
0.0
  0
LINE
  5
17B
100
AcDbEntity
  8
2655_5 STELLHEBEL
390
0
100
AcDbLine
 10
131.0061531581
 20
86.2430134446
 30
0.0
 11
131.0061531581
 21
76.1337426191
 31
0.0
  0
LINE
  5
17C
100
AcDbEntity
  8
2655_5 STELLHEBEL
390
0
100
AcDbLine
 10
114.0061531581
 20
88.6337426191
 30
0.0
 11
107.0061531581
 21
88.6337426191
 31
0.0
  0
LINE
  5
17D
100
AcDbEntity
  8
2655_6 STELLVERSTELLUNG
390
0
 62
       230
100
AcDbLine
 10
171.0022044078
 20
68.6421038913
 30
0.0
 11
170.0022044078
 21
68.6421038913
 31
0.0
  0
LINE
  5
17E
100
AcDbEntity
  8
2655_6 STELLVERSTELLUNG
390
0
  6
DASHED
 62
       230
100
AcDbLine
 10
167.0022044078
 20
77.1421038913
 30
0.0
 11
165.0022044078
 21
77.1421038913
 31
0.0
  0
LINE
  5
17F
100
AcDbEntity
  8
2655_6 STELLVERSTELLUNG
390
0
  6
DASHED
 62
       230
100
AcDbLine
 10
167.0022044078
 20
79.1421038913
 30
0.0
 11
165.0022044078
 21
79.1421038913
 31
0.0
  0
LINE
  5
180
100
AcDbEntity
  8
2655_6 STELLVERSTELLUNG
390
0
 62
       230
100
AcDbLine
 10
166.0022044078
 20
75.1421038913
 30
0.0
 11
166.0022044078
 21
68.6421038913
 31
0.0
  0
LINE
  5
181
100
AcDbEntity
  8
2655_6 STELLVERSTELLUNG
390
0
 62
       230
100
AcDbLine
 10
166.0022044078
 20
68.6421038913
 30
0.0
 11
165.0022044078
 21
68.6421038913
 31
0.0
  0
LINE
  5
182
100
AcDbEntity
  8
2655_6 STELLVERSTELLUNG
390
0
 62
       230
100
AcDbLine
 10
165.0022044078
 20
81.1421038913
 30
0.0
 11
165.0022044078
 21
68.6421038913
 31
0.0
  0
LINE
  5
183
100
AcDbEntity
  8
2655_6 STELLVERSTELLUNG
390
0
 62
       230
100
AcDbLine
 10
171.0022044078
 20
81.1421038913
 30
0.0
 11
165.0022044078
 21
81.1421038913
 31
0.0
  0
LINE
  5
184
100
AcDbEntity
  8
2655_5 STELLHEBEL
390
0
100
AcDbLine
 10
107.0061531581
 20
76.1337426191
 30
0.0
 11
131.0061531581
 21
76.1337426191
 31
0.0
  0
LINE
  5
185
100
AcDbEntity
  8
2655_5 STELLHEBEL
390
0
100
AcDbLine
 10
131.0061531581
 20
86.2430134446
 30
0.0
 11
122.0061531581
 21
91.1666950087
 31
0.0
  0
LINE
  5
186
100
AcDbEntity
  8
2655_3 DREHHEBEL
390
0
100
AcDbLine
 10
128.0061531581
 20
168.2403543363
 30
0.0
 11
123.6688948579
 21
168.2403543363
 31
0.0
  0
LINE
  5
187
100
AcDbEntity
  8
2655_3 DREHHEBEL
390
0
100
AcDbLine
 10
128.0061531581
 20
171.4403543363
 30
0.0
 11
124.6061531581
 21
171.4403543363
 31
0.0
  0
LINE
  5
188
100
AcDbEntity
  8
2655_3 DREHHEBEL
390
0
100
AcDbLine
 10
124.6061531581
 20
171.4403543363
 30
0.0
 11
124.6061531581
 21
174.8403543363
 31
0.0
  0
LINE
  5
189
100
AcDbEntity
  8
2655_3 DREHHEBEL
390
0
100
AcDbLine
 10
121.4061531581
 20
174.8403543363
 30
0.0
 11
121.4061531581
 21
170.5030960361
 31
0.0
  0
LINE
  5
18A
100
AcDbEntity
  8
2655_3 DREHHEBEL
390
0
100
AcDbLine
 10
123.6688948579
 20
168.2403543363
 30
0.0
 11
122.3371382182
 21
166.9085976967
 31
0.0
  0
LINE
  5
18B
100
AcDbEntity
  8
2655_3 DREHHEBEL
390
0
100
AcDbLine
 10
120.0743965185
 20
169.1713393965
 30
0.0
 11
121.4061531581
 21
170.5030960361
 31
0.0
  0
LINE
  5
18C
100
AcDbEntity
  8
2655_3 DREHHEBEL
390
0
100
AcDbLine
 10
131.0061531581
 20
171.8236691098
 30
0.0
 11
131.0061531581
 21
159.1203543363
 31
0.0
  0
LINE
  5
18D
100
AcDbEntity
  8
2655_3 DREHHEBEL
390
0
100
AcDbLine
 10
131.0061531581
 20
159.1203543363
 30
0.0
 11
101.0061531581
 21
159.1203543363
 31
0.0
  0
CIRCLE
  5
18E
100
AcDbEntity
  8
2655_78R
390
0
100
AcDbCircle
 10
120.5127204863
 20
33.1672246512
 30
0.0
 40
1.25
  0
LINE
  5
18F
100
AcDbEntity
  8
2655_5 STELLHEBEL
390
0
100
AcDbLine
 10
116.0061531581
 20
94.1108700569
 30
0.0
 11
116.0061531581
 21
76.1337426191
 31
0.0
  0
LINE
  5
190
100
AcDbEntity
  8
2655_5 STELLHEBEL
390
0
100
AcDbLine
 10
122.0061531581
 20
94.2668680861
 30
0.0
 11
122.0061531581
 21
91.1666950087
 31
0.0
  0
LINE
  5
191
100
AcDbEntity
  8
2655_5 STELLHEBEL
390
0
100
AcDbLine
 10
114.0061531581
 20
50.1875716061
 30
0.0
 11
107.0061531581
 21
50.1875716061
 31
0.0
  0
LINE
  5
192
100
AcDbEntity
  8
2655_5 STELLHEBEL
390
0
100
AcDbLine
 10
116.0061531581
 20
53.5884473734
 30
0.0
 11
116.0061531581
 21
37.6875716061
 31
0.0
  0
LINE
  5
193
100
AcDbEntity
  8
2655_5 STELLHEBEL
390
0
100
AcDbLine
 10
131.0061531581
 20
56.0884473735
 30
0.0
 11
131.0061531581
 21
37.6875716061
 31
0.0
  0
LINE
  5
194
100
AcDbEntity
  8
2655_5 STELLHEBEL
390
0
100
AcDbLine
 10
107.0061531581
 20
37.6875716061
 30
0.0
 11
131.0061531581
 21
37.6875716061
 31
0.0
  0
LINE
  5
195
100
AcDbEntity
  8
2655_5 STELLHEBEL
390
0
100
AcDbLine
 10
118.5061531581
 20
56.0884473735
 30
0.0
 11
131.0061531581
 21
56.0884473735
 31
0.0
  0
LINE
  5
196
100
AcDbEntity
  8
2655_8 STELLANSCHLAG
390
0
100
AcDbLine
 10
116.0123063163
 20
35.6875716061
 30
0.0
 11
116.0123063163
 21
30.187571606
 31
0.0
  0
LINE
  5
197
100
AcDbEntity
  8
2655_8 STELLANSCHLAG
390
0
100
AcDbLine
 10
108.5123063163
 20
35.6875716064
 30
0.0
 11
123.5123063163
 21
35.6875716057
 31
0.0
  0
LINE
  5
198
100
AcDbEntity
  8
2655_8 STELLANSCHLAG
390
0
100
AcDbLine
 10
123.5123063168
 20
35.6875716056
 30
0.0
 11
123.5123063161
 21
30.1875716057
 31
0.0
  0
LINE
  5
199
100
AcDbEntity
  8
2655_8 STELLANSCHLAG
390
0
100
AcDbLine
 10
123.5123063164
 20
30.1875716056
 30
0.0
 11
114.0123063163
 21
30.1875716062
 31
0.0
  0
LINE
  5
19A
100
AcDbEntity
  8
2655_8 STELLANSCHLAG
390
0
100
AcDbLine
 10
108.5123063163
 20
34.15806937
 30
0.0
 11
114.0123063163
 21
34.15806937
 31
0.0
  0
LINE
  5
19B
100
AcDbEntity
  8
2655_1 RAHMEN
390
0
100
AcDbLine
 10
37.7795971288
 20
109.7979347356
 30
0.0
 11
37.7795971288
 21
82.7979347356
 31
0.0
  0
LINE
  5
19C
100
AcDbEntity
  8
2655_1 RAHMEN
390
0
100
AcDbLine
 10
37.7795971288
 20
149.4913670786
 30
0.0
 11
52.7795971288
 21
149.4913670786
 31
0.0
  0
LINE
  5
19D
100
AcDbEntity
  8
2655_1 RAHMEN
390
0
100
AcDbLine
 10
37.7795971288
 20
176.4913670786
 30
0.0
 11
37.7795971288
 21
149.4913670786
 31
0.0
  0
LINE
  5
19E
100
AcDbEntity
  8
2655_1 RAHMEN
390
0
100
AcDbLine
 10
52.7795971288
 20
176.4913670786
 30
0.0
 11
37.7795971288
 21
176.4913670786
 31
0.0
  0
LINE
  5
19F
100
AcDbEntity
  8
2655_1 RAHMEN
390
0
100
AcDbLine
 10
52.7795971288
 20
171.4913670786
 30
0.0
 11
54.7795971288
 21
171.4913670786
 31
0.0
  0
LINE
  5
1A0
100
AcDbEntity
  8
2655_1 RAHMEN
390
0
100
AcDbLine
 10
52.7795971288
 20
155.4913670786
 30
0.0
 11
54.7795971288
 21
155.4913670786
 31
0.0
  0
LINE
  5
1A1
100
AcDbEntity
  8
2655_1 RAHMEN
390
0
100
AcDbLine
 10
52.7795971288
 20
176.4913670786
 30
0.0
 11
52.7795971288
 21
171.4913670786
 31
0.0
  0
LINE
  5
1A2
100
AcDbEntity
  8
2655_1 RAHMEN
390
0
100
AcDbLine
 10
52.7795971288
 20
155.4913670786
 30
0.0
 11
52.7795971288
 21
149.4913670786
 31
0.0
  0
LINE
  5
1A3
100
AcDbEntity
  8
2655_1 RAHMEN
390
0
100
AcDbLine
 10
54.7795971288
 20
171.4913670786
 30
0.0
 11
54.7795971288
 21
155.4913670786
 31
0.0
  0
LINE
  5
1A4
100
AcDbEntity
  8
2655_1 RAHMEN
390
0
100
AcDbLine
 10
54.7795971288
 20
104.7979347356
 30
0.0
 11
54.7795971288
 21
88.7979347356
 31
0.0
  0
LINE
  5
1A5
100
AcDbEntity
  8
2655_2 SCHIEBER
390
0
100
AcDbLine
 10
170.8731461107
 20
143.3157021724
 30
0.0
 11
170.8731461107
 21
123.3157021724
 31
0.0
  0
LINE
  5
1A6
100
AcDbEntity
  8
2655_2 SCHIEBER
390
0
100
AcDbLine
 10
165.8731461107
 20
167.1857021724
 30
0.0
 11
165.8731461107
 21
143.1857021724
 31
0.0
  0
LINE
  5
1A7
100
AcDbEntity
  8
2655_2 SCHIEBER
390
0
100
AcDbLine
 10
162.8731461107
 20
167.1857021724
 30
0.0
 11
162.8731461107
 21
143.1857021724
 31
0.0
  0
LINE
  5
1A8
100
AcDbEntity
  8
2655_2 SCHIEBER
390
0
  6
DASHED
100
AcDbLine
 10
167.8731461107
 20
143.3157021724
 30
0.0
 11
167.8731461107
 21
123.3157021724
 31
0.0
  0
LINE
  5
1A9
100
AcDbEntity
  8
2655_2 SCHIEBER
390
0
  6
DASHED
100
AcDbLine
 10
170.8731461107
 20
143.3157021724
 30
0.0
 11
170.8731461107
 21
123.3157021724
 31
0.0
  0
LINE
  5
1AA
100
AcDbEntity
  8
2655_2 SCHIEBER
390
0
100
AcDbLine
 10
167.8731461107
 20
143.3157021724
 30
0.0
 11
167.8731461107
 21
123.3157021724
 31
0.0
  0
ARC
  5
1AB
100
AcDbEntity
  8
2655_2 SCHIEBER
390
0
  6
DASHED
100
AcDbCircle
 10
169.3731461107
 20
123.3157021724
 30
0.0
 40
1.5
100
AcDbArc
 50
180.0
 51
360.0
  0
ARC
  5
1AC
100
AcDbEntity
  8
2655_2 SCHIEBER
390
0
  6
DASHED
100
AcDbCircle
 10
169.3731461107
 20
143.3157021724
 30
0.0
 40
1.5
100
AcDbArc
 50
0.0
 51
180.0
  0
ARC
  5
1AD
100
AcDbEntity
  8
2655_2 SCHIEBER
390
0
100
AcDbCircle
 10
164.3731461107
 20
167.1857021724
 30
0.0
 40
1.5
100
AcDbArc
 50
0.0
 51
180.0
  0
ARC
  5
1AE
100
AcDbEntity
  8
2655_2 SCHIEBER
390
0
100
AcDbCircle
 10
164.3731461107
 20
143.1857021724
 30
0.0
 40
1.5
100
AcDbArc
 50
180.0
 51
360.0
  0
ARC
  5
1AF
100
AcDbEntity
  8
2655_2 SCHIEBER
390
0
100
AcDbCircle
 10
169.3731461107
 20
123.3157021724
 30
0.0
 40
1.5
100
AcDbArc
 50
180.0
 51
360.0
  0
ARC
  5
1B0
100
AcDbEntity
  8
2655_2 SCHIEBER
390
0
100
AcDbCircle
 10
169.3731461107
 20
143.3157021724
 30
0.0
 40
1.5
100
AcDbArc
 50
0.0
 51
180.0
  0
LINE
  5
1B1
100
AcDbEntity
  8
2655_5 STELLHEBEL
390
0
100
AcDbLine
 10
107.0061531581
 20
88.6337426191
 30
0.0
 11
107.0061531581
 21
76.1337426191
 31
0.0
  0
LINE
  5
1B2
100
AcDbEntity
  8
2655_5 STELLHEBEL
390
0
100
AcDbLine
 10
107.0061531581
 20
50.1875716061
 30
0.0
 11
107.0061531581
 21
37.6875716061
 31
0.0
  0
CIRCLE
  5
1B3
100
AcDbEntity
  8
2655_5L
390
0
100
AcDbCircle
 10
111.0061531581
 20
79.1337426191
 30
0.0
 40
1.25
  0
CIRCLE
  5
1B4
100
AcDbEntity
  8
2655_78L
390
0
100
AcDbCircle
 10
111.0061531581
 20
46.8247681039
 30
0.0
 40
1.25
  0
LINE
  5
1B5
100
AcDbEntity
  8
MITTELLINIEN
390
0
100
AcDbLine
 10
116.0061531581
 20
32.6875716061
 30
0.0
 11
116.0061531581
 21
62.6875716061
 31
0.0
  0
LINE
  5
1B6
100
AcDbEntity
  8
MITTELLINIEN
390
0
100
AcDbLine
 10
101.0061531581
 20
71.1337426191
 30
0.0
 11
101.0061531581
 21
103.1337426191
 31
0.0
  0
LINE
  5
1B7
100
AcDbEntity
  8
MITTELLINIEN
390
0
100
AcDbLine
 10
101.0061531581
 20
32.6875716061
 30
0.0
 11
101.0061531581
 21
62.6875716061
 31
0.0
  0
MTEXT
  5
1B8
100
AcDbEntity
  8
2655_78L
390
0
100
AcDbMText
 10
93.0110498467
 20
63.3902420002
 30
0.0
 40
2.0
 41
0.0
 71
         1
 72
         1
  1
\W0.810867;M15x15x2 F150\PT2 O2 S4 I1,2\PB-0,3     D1,5
  7
Arial
 73
         1
 44
0.66
  0
MTEXT
  5
1B9
100
AcDbEntity
  8
2655_78R
390
0
100
AcDbMText
 10
110.0782596379
 20
63.3902420002
 30
0.0
 40
2.0
 41
0.0
 71
         1
 72
         1
  1
\W0.810867;M15x15x2 F150\PT2 O2 S4 I1,2\PB-0,3     D1,5
  7
Arial
 73
         1
 44
0.66
  0
MTEXT
  5
1BA
100
AcDbEntity
  8
2655___ W-_ GSP-_ SIGNAL-ANTRIEB
390
0
100
AcDbMText
 10
95.4504044078
 20
45.9520700415
 30
0.0
 40
2.0
 41
0.0
 71
         5
 72
         1
  1
\W0.810848;>2655.78L\PM15x15x2\PT2 O2
  7
Arial
 73
         1
 44
0.66
  0
CIRCLE
  5
1BB
100
AcDbEntity
  8
2655_78L
390
0
  6
PHANTOM
100
AcDbCircle
 10
101.0061531581
 20
57.6875716061
 30
0.0
 40
0.5
  0
CIRCLE
  5
1BC
100
AcDbEntity
  8
2655_78R
390
0
  6
PHANTOM
100
AcDbCircle
 10
116.0061531581
 20
57.6875716052
 30
0.0
 40
0.5
  0
CIRCLE
  5
1BD
100
AcDbEntity
  8
2655_5R
390
0
  6
PHANTOM
100
AcDbCircle
 10
116.0061531581
 20
75.1337426191
 30
0.0
 40
1.0
  0
CIRCLE
  5
1BE
100
AcDbEntity
  8
2655_5L
390
0
  6
PHANTOM
100
AcDbCircle
 10
101.0061531581
 20
75.1337426184
 30
0.0
 40
1.0
  0
ARC
  5
1BF
100
AcDbEntity
  8
2655___ W-_ GSP-_ SIGNAL-ANTRIEB
390
0
  6
DASHDOT
100
AcDbCircle
 10
116.2447783086
 20
43.4408609655
 30
0.0
 40
20.8610752491
100
AcDbArc
 50
136.9267574444
 51
223.0979829055
  0
MTEXT
  5
1C0
100
AcDbEntity
  8
2655_5L
390
0
100
AcDbMText
 10
93.0110498467
 20
103.8364130133
 30
0.0
 40
2.0
 41
0.0
 71
         1
 72
         1
  1
\W0.810867;M15x15x2 F150\PT2 O2 S4 I1,2\PB-0,3     D1,5
  7
Arial
 73
         1
 44
0.66
  0
MTEXT
  5
1C1
100
AcDbEntity
  8
2655_5R
390
0
100
AcDbMText
 10
110.0782596379
 20
103.8364130133
 30
0.0
 40
2.0
 41
0.0
 71
         1
 72
         1
  1
\W0.810867;M15x15x2 F150\PT2 O2 S4 I1,2\PB-0,3     D1,5
  7
Arial
 73
         1
 44
0.66
  0
MTEXT
  5
1C2
100
AcDbEntity
  8
2655___ W-_ GSP-_ SIGNAL-ANTRIEB
390
0
100
AcDbMText
 10
95.4504044078
 20
86.3982410546
 30
0.0
 40
2.0
 41
0.0
 71
         5
 72
         1
  1
\W0.810845;>2655.5L\PM15x15x2\PT2 O2
  7
Arial
 73
         1
 44
0.66
  0
CIRCLE
  5
1C3
100
AcDbEntity
  8
2655_5L
390
0
  6
PHANTOM
100
AcDbCircle
 10
101.0061531581
 20
98.1337426191
 30
0.0
 40
0.5
  0
CIRCLE
  5
1C4
100
AcDbEntity
  8
2655_5R
390
0
  6
PHANTOM
100
AcDbCircle
 10
116.0061531581
 20
98.1337426183
 30
0.0
 40
0.5
  0
ARC
  5
1C5
100
AcDbEntity
  8
2655___ W-_ GSP-_ SIGNAL-ANTRIEB
390
0
  6
DASHDOT
100
AcDbCircle
 10
113.3015081461
 20
86.6337426188
 30
0.0
 40
16.8352533182
100
AcDbArc
 50
136.9143872695
 51
223.0856127305
  0
LINE
  5
1C6
100
AcDbEntity
  8
2655_5L
390
0
100
AcDbLine
 10
106.0061531581
 20
89.6337426191
 30
0.0
 11
106.0061531581
 21
75.1337426191
 31
0.0
  0
LINE
  5
1C7
100
AcDbEntity
  8
2655_5L
390
0
100
AcDbLine
 10
113.0061531581
 20
89.6337426191
 30
0.0
 11
106.0061531581
 21
89.6337426191
 31
0.0
  0
LINE
  5
1C8
100
AcDbEntity
  8
2655_78L
390
0
100
AcDbLine
 10
106.0061531581
 20
36.6875716061
 30
0.0
 11
116.0061531581
 21
36.6875716061
 31
0.0
  0
LINE
  5
1C9
100
AcDbEntity
  8
2655_5L
390
0
  6
DIVIDE
100
AcDbLine
 10
101.0061531581
 20
98.1337426191
 30
0.0
 11
113.0061531581
 21
98.1337426185
 31
0.0
  0
LINE
  5
1CA
100
AcDbEntity
  8
2655_5 STELLHEBEL
390
0
100
AcDbLine
 10
114.0061531581
 20
97.6337426183
 30
0.0
 11
114.0061531581
 21
88.6337426191
 31
0.0
  0
LINE
  5
1CB
100
AcDbEntity
  8
2655_5 STELLHEBEL
390
0
100
AcDbLine
 10
114.0061531581
 20
50.1875716061
 30
0.0
 11
114.0061531581
 21
57.6875716061
 31
0.0
  0
LINE
  5
1CC
100
AcDbEntity
  8
2655_5L
390
0
100
AcDbLine
 10
113.0061531581
 20
98.1337426185
 30
0.0
 11
113.0061531581
 21
89.6337426191
 31
0.0
  0
ARC
  5
1CD
100
AcDbEntity
  8
2655_5R
390
0
100
AcDbCircle
 10
119.0081811069
 20
94.1108700569
 30
0.0
 40
4.0020279488
100
AcDbArc
 50
357.4202492744
 51
540.0
  0
LINE
  5
1CE
100
AcDbEntity
  8
2655_5R
390
0
100
AcDbLine
 10
123.0061531581
 20
93.9307390487
 30
0.0
 11
123.0061531581
 21
91.7594841194
 31
0.0
  0
LINE
  5
1CF
100
AcDbEntity
  8
2655_5R
390
0
  6
DASHED
100
AcDbLine
 10
132.0061531581
 20
86.8358025553
 30
0.0
 11
132.0061531581
 21
75.1337426191
 31
0.0
  0
LINE
  5
1D0
100
AcDbEntity
  8
2655_5R
390
0
  6
DIVIDE
100
AcDbLine
 10
132.0061531581
 20
86.8358025553
 30
0.0
 11
123.0061531581
 21
91.7594841194
 31
0.0
  0
LINE
  5
1D1
100
AcDbEntity
  8
2655_78R
390
0
  6
DIVIDE
100
AcDbLine
 10
116.0061531581
 20
36.6875716061
 30
0.0
 11
132.0061531581
 21
36.6875716061
 31
0.0
  0
CIRCLE
  5
1D2
100
AcDbEntity
  8
2655_5R
390
0
  6
DIVIDE
100
AcDbCircle
 10
119.1547785034
 20
85.6337426191
 30
0.0
 40
1.0
  0
LINE
  5
1D3
100
AcDbEntity
  8
2655_5L
390
0
  6
DASHED
100
AcDbLine
 10
116.0061531581
 20
75.1337426191
 30
0.0
 11
111.0061531581
 21
79.1337426191
 31
0.0
  0
LINE
  5
1D4
100
AcDbEntity
  8
2655_5L
390
0
  6
DASHED
100
AcDbLine
 10
111.0061531581
 20
85.6337426191
 30
0.0
 11
101.0061531581
 21
75.1337426184
 31
0.0
  0
LINE
  5
1D5
100
AcDbEntity
  8
2655_5R
390
0
  6
DASHED
100
AcDbLine
 10
119.1547785034
 20
85.6337426191
 30
0.0
 11
119.0081811069
 21
94.1108700569
 31
0.0
  0
LINE
  5
1D6
100
AcDbEntity
  8
2655_5R
390
0
  6
DASHED
100
AcDbLine
 10
116.0061531581
 20
98.1337426183
 30
0.0
 11
119.0081811069
 21
94.1108700569
 31
0.0
  0
LINE
  5
1D7
100
AcDbEntity
  8
2655_5R
390
0
  6
DASHED
100
AcDbLine
 10
119.1547785034
 20
85.6337426191
 30
0.0
 11
115.0061531581
 21
94.1108700569
 31
0.0
  0
LINE
  5
1D8
100
AcDbEntity
  8
2655_78L
390
0
100
AcDbLine
 10
106.0061531581
 20
51.1875716061
 30
0.0
 11
106.0061531581
 21
36.6875716061
 31
0.0
  0
LINE
  5
1D9
100
AcDbEntity
  8
2655_5L
390
0
100
AcDbLine
 10
106.0061531581
 20
75.1337426191
 30
0.0
 11
116.0061531581
 21
75.1337426191
 31
0.0
  0
LINE
  5
1DA
100
AcDbEntity
  8
2655_78L
390
0
100
AcDbLine
 10
113.0061531581
 20
51.1875716061
 30
0.0
 11
106.0061531581
 21
51.1875716061
 31
0.0
  0
LINE
  5
1DB
100
AcDbEntity
  8
2655_78L
390
0
100
AcDbLine
 10
113.0061531581
 20
51.1875716061
 30
0.0
 11
113.0061531581
 21
57.6875716061
 31
0.0
  0
LINE
  5
1DC
100
AcDbEntity
  8
2655_78L
390
0
  6
DASHED
100
AcDbLine
 10
116.0061531581
 20
36.6875716061
 30
0.0
 11
111.0061531581
 21
46.8247681039
 31
0.0
  0
LINE
  5
1DD
100
AcDbEntity
  8
2655_78L
390
0
  6
DASHED
100
AcDbLine
 10
111.0061531581
 20
46.8247681039
 30
0.0
 11
107.5123063163
 21
35.6875716064
 31
0.0
  0
LINE
  5
1DE
100
AcDbEntity
  8
2655_78L
390
0
  6
DIVIDE
100
AcDbLine
 10
101.0061531581
 20
57.6875716061
 30
0.0
 11
113.0061531581
 21
57.6875716061
 31
0.0
  0
LINE
  5
1DF
100
AcDbEntity
  8
2655_78R
390
0
  6
DIVIDE
100
AcDbLine
 10
118.5061531581
 20
57.0884473735
 30
0.0
 11
132.0061531581
 21
57.0884473735
 31
0.0
  0
ARC
  5
1E0
100
AcDbEntity
  8
2655_78R
390
0
100
AcDbCircle
 10
118.5061531581
 20
53.5884473735
 30
0.0
 40
3.5
100
AcDbArc
 50
90.0
 51
180.0000000004
  0
LINE
  5
1E1
100
AcDbEntity
  8
2655_5R
390
0
  6
DIVIDE
100
AcDbLine
 10
116.0061531581
 20
75.1337426191
 30
0.0
 11
132.0061531581
 21
75.1337426191
 31
0.0
  0
LINE
  5
1E2
100
AcDbEntity
  8
2655_78R
390
0
  6
DASHED
100
AcDbLine
 10
128.505738988
 20
53.5681004188
 30
0.0
 11
118.5061531581
 21
53.5884473735
 31
0.0
  0
MTEXT
  5
1E3
100
AcDbEntity
  8
2655_6P
390
0
100
AcDbMText
 10
163.2115265793
 20
83.7652168337
 30
0.0
 40
2.0
 41
0.0
 71
         5
 72
         1
  1
\W0.810851;M10+x5 F150\PT5 O2 S6 I1,2\PB-0,5   D3
  7
Arial
 73
         1
 44
0.66
  0
CIRCLE
  5
1E4
100
AcDbEntity
  8
2655_6P
390
0
  6
PHANTOM
100
AcDbCircle
 10
164.0022044078
 20
82.1421038913
 30
0.0
 40
0.5
  0
CIRCLE
  5
1E5
100
AcDbEntity
  8
2655_6P
390
0
  6
PHANTOM
100
AcDbCircle
 10
164.0022044078
 20
67.6421038913
 30
0.0
 40
1.0
  0
LINE
  5
1E6
100
AcDbEntity
  8
2655_6P
390
0
  6
DIVIDE
100
AcDbLine
 10
171.8070895522
 20
82.1421038913
 30
0.0
 11
164.0022044078
 21
82.1421038913
 31
0.0
  0
LINE
  5
1E7
100
AcDbEntity
  8
2655_6P
390
0
  6
DIVIDE
100
AcDbLine
 10
167.0022044078
 20
67.6421038913
 30
0.0
 11
164.0022044078
 21
67.6421038913
 31
0.0
  0
LINE
  5
1E8
100
AcDbEntity
  8
2655_6P
390
0
100
AcDbLine
 10
167.0022044078
 20
74.1421038913
 30
0.0
 11
167.0022044078
 21
67.6421038913
 31
0.0
  0
LINE
  5
1E9
100
AcDbEntity
  8
2655_6P
390
0
100
AcDbLine
 10
167.0022044078
 20
74.1421038913
 30
0.0
 11
169.0022044078
 21
74.1421038913
 31
0.0
  0
LINE
  5
1EA
100
AcDbEntity
  8
2655_6P
390
0
100
AcDbLine
 10
169.0022044078
 20
74.1421038913
 30
0.0
 11
169.0022044078
 21
67.6421038913
 31
0.0
  0
LINE
  5
1EB
100
AcDbEntity
  8
2655_6P
390
0
  6
DIVIDE
100
AcDbLine
 10
172.0022044078
 20
67.6421038913
 30
0.0
 11
169.0022044078
 21
67.6421038913
 31
0.0
  0
LINE
  5
1EC
100
AcDbEntity
  8
2655_6P
390
0
100
AcDbLine
 10
172.0022044078
 20
81.1421038913
 30
0.0
 11
172.0022044078
 21
67.6421038913
 31
0.0
  0
LINE
  5
1ED
100
AcDbEntity
  8
2655_6P
390
0
  6
DASHED
100
AcDbLine
 10
171.8070895522
 20
82.1421038913
 30
0.0
 11
167.0022044078
 21
78.1421038913
 31
0.0
  0
LINE
  5
1EE
100
AcDbEntity
  8
2655_6P
390
0
  6
DIVIDE
100
AcDbLine
 10
167.0022044078
 20
78.1421038913
 30
0.0
 11
163.8070895522
 21
78.1421038913
 31
0.0
  0
ARC
  5
1EF
100
AcDbEntity
  8
2655_6P
390
0
  6
HIDDEN
100
AcDbCircle
 10
167.2770969549
 20
81.3563854024
 30
0.0
 40
4.7299637427
100
AcDbArc
 50
222.8090605812
 51
357.4034410441
  0
LINE
  5
1F0
100
AcDbEntity
  8
2655_8 STELLANSCHLAG
390
0
100
AcDbLine
 10
108.5123063163
 20
35.6875716064
 30
0.0
 11
108.5123063163
 21
34.15806937
 31
0.0
  0
CIRCLE
  5
1F1
100
AcDbEntity
  8
2655_78L
390
0
  6
PHANTOM
100
AcDbCircle
 10
101.0123063163
 20
29.1875716065
 30
0.0
 40
1.0
  0
LINE
  5
1F2
100
AcDbEntity
  8
2655_78L
390
0
  6
DIVIDE
100
AcDbLine
 10
101.0123063163
 20
29.1875716065
 30
0.0
 11
113.0123063163
 21
29.1875716062
 31
0.0
  0
LINE
  5
1F3
100
AcDbEntity
  8
2655_78L
390
0
100
AcDbLine
 10
107.5123063163
 20
35.6875716064
 30
0.0
 11
107.5123063163
 21
33.15806937
 31
0.0
  0
LINE
  5
1F4
100
AcDbEntity
  8
2655_78L
390
0
100
AcDbLine
 10
107.5123063163
 20
33.15806937
 30
0.0
 11
113.0123063163
 21
33.15806937
 31
0.0
  0
LINE
  5
1F5
100
AcDbEntity
  8
2655_78L
390
0
100
AcDbLine
 10
113.0123063163
 20
33.15806937
 30
0.0
 11
113.0123063163
 21
29.1875716062
 31
0.0
  0
CIRCLE
  5
1F6
100
AcDbEntity
  8
2655_78R
390
0
  6
PHANTOM
100
AcDbCircle
 10
116.0061531581
 20
29.1875716061
 30
0.0
 40
1.0
  0
LINE
  5
1F7
100
AcDbEntity
  8
2655_8 STELLANSCHLAG
390
0
100
AcDbLine
 10
114.0061531581
 20
76.7644576837
 30
0.0
 11
114.0061531581
 21
71.2644576838
 31
0.0
  0
LINE
  5
1F8
100
AcDbEntity
  8
2655_8 STELLANSCHLAG
390
0
100
AcDbLine
 10
114.0123063163
 20
34.15806937
 30
0.0
 11
114.0123063163
 21
30.1875716062
 31
0.0
  0
LINE
  5
1F9
100
AcDbEntity
  8
2655_78R
390
0
100
AcDbLine
 10
124.512306316
 20
29.1875716056
 30
0.0
 11
116.0061531581
 21
29.187571606
 31
0.0
  0
LINE
  5
1FA
100
AcDbEntity
  8
2655_78R
390
0
100
AcDbLine
 10
124.5123063169
 20
36.6875716061
 30
0.0
 11
124.512306316
 21
29.1875716056
 31
0.0
  0
LINE
  5
1FB
100
AcDbEntity
  8
2655_78R
390
0
  6
DASHED
100
AcDbLine
 10
116.0061531581
 20
36.6875716061
 30
0.0
 11
120.5127204863
 21
33.1672246512
 31
0.0
  0
LINE
  5
1FC
100
AcDbEntity
  8
2655_78R
390
0
  6
DASHED
100
AcDbLine
 10
120.5127204863
 20
33.1672246512
 30
0.0
 11
124.5123063169
 21
36.6875716061
 31
0.0
  0
LINE
  5
1FD
100
AcDbEntity
  8
2655_3R
390
0
  6
DASHED
100
AcDbLine
 10
131.9330470752
 20
172.2170050093
 30
0.0
 11
123.6274735017
 21
169.2403543363
 31
0.0
  0
LINE
  5
1FE
100
AcDbEntity
  8
2655_3R
390
0
  6
DASHED
100
AcDbLine
 10
121.0014574832
 20
161.8450500112
 30
0.0
 11
132.0061531581
 21
158.1203543363
 31
0.0
  0
LINE
  5
1FF
100
AcDbEntity
  8
2655_78R
390
0
  6
DASHED
100
AcDbLine
 10
116.0061531581
 20
57.6875716052
 30
0.0
 11
115.0061531581
 21
53.5884473734
 31
0.0
  0
LINE
  5
200
100
AcDbEntity
  8
2655_78R
390
0
  6
DASHED
100
AcDbLine
 10
132.0061531581
 20
57.0884473735
 30
0.0
 11
128.505738988
 21
53.5681004188
 31
0.0
  0
LINE
  5
201
100
AcDbEntity
  8
2655_78R
390
0
  6
DASHED
100
AcDbLine
 10
118.5061531581
 20
53.5884473735
 30
0.0
 11
132.0061531581
 21
36.6875716061
 31
0.0
  0
TEXT
  5
202
100
AcDbEntity
  8
2655_6P
390
0
  6
DASHED
100
AcDbText
 10
163.8070895522
 20
77.3807089552
 30
0.0
 40
1.5
  1
D4
 41
1.1350274158
  7
Arial
 11
163.8070895522
 21
78.8807089552
 31
0.0
100
AcDbText
 73
         3
  0
MTEXT
  5
203
100
AcDbEntity
  8
BESCHRIFTUNG
390
0
  6
DASHED
100
AcDbMText
 10
12.0474462465
 20
35.658737815
 30
0.0
 40
3.0
 41
0.0
 71
         1
 72
         1
  1
\W1.000000;\P\PW quer kurz\PW längs kurz\PW quer lang\PW längs lang\PGs, Sig quer\PGs, Sig längs
  7
Arial
 73
         1
 44
0.72
  0
MTEXT
  5
204
100
AcDbEntity
  8
BESCHRIFTUNG
390
0
  6
DASHED
100
AcDbMText
 10
84.9878530743
 20
35.658737815
 30
0.0
 40
3.0
 41
0.0
 71
         3
 72
         1
  1
\W0.918886;15x30x15\P\P.1\P.1\P.11\P.11\P.1\P.1\P
  7
Arial
 73
         1
 44
0.72
  0
MTEXT
  5
205
100
AcDbEntity
  8
BESCHRIFTUNG
390
0
  6
DASHED
100
AcDbMText
 10
65.9878530743
 20
35.658737815
 30
0.0
 40
3.0
 41
0.0
 71
         3
 72
         1
  1
\W0.918886;15x2\P\P.2\P.2\P.2\P.2\P.2\P.2
  7
Arial
 73
         1
 44
0.72
  0
MTEXT
  5
206
100
AcDbEntity
  8
BESCHRIFTUNG
390
0
  6
DASHED
100
AcDbMText
 10
54.9878530743
 20
35.658737815
 30
0.0
 40
3.0
 41
0.0
 71
         3
 72
         1
  1
\W0.918893;15x15x2\P\P.3+.5\P.13+.5(+.9)\P.3+.5\P.13+.5(+.9)\P.3+.78\P.13+.78\P
  7
Arial
 73
         1
 44
0.72
  0
MTEXT
  5
207
100
AcDbEntity
  8
BESCHRIFTUNG
390
0
  6
DASHED
100
AcDbMText
 10
93.9878530743
 20
35.658737815
 30
0.0
 40
3.0
 41
0.0
 71
         3
 72
         1
  1
\W0.918886;10x5\P\P.6\P.6\P.6\P.6\P.6\P.6
  7
Arial
 73
         1
 44
0.72
  0
MTEXT
  5
208
100
AcDbEntity
  8
2655___ W-_ GSP-_ SIGNAL-ANTRIEB
390
0
100
AcDbMText
 10
162.4464556576
 20
74.4066023267
 30
0.0
 40
2.0
 41
0.0
 71
         5
 72
         1
  1
\W0.810845;>2655.6P\PM10+x5\PT5 O2
  7
Arial
 73
         1
 44
0.66
  0
ARC
  5
209
100
AcDbEntity
  8
2655___ W-_ GSP-_ SIGNAL-ANTRIEB
390
0
  6
DASHDOT
100
AcDbCircle
 10
171.7536238566
 20
74.8921038913
 30
0.0
 40
10.6135292655
100
AcDbArc
 50
136.9143872695
 51
223.0856127305
  0
LINE
  5
20A
100
AcDbEntity
  8
2655_3R
390
0
  6
DIVIDE
100
AcDbLine
 10
116.0028728321
 20
180.1242235899
 30
0.0
 11
120.6271208021
 21
180.1242235897
 31
0.0
  0
LINE
  5
20B
100
AcDbEntity
  8
2655_3R
390
0
  6
DASHED
100
AcDbLine
 10
119.5061531581
 20
163.3403543363
 30
0.0
 11
121.0014574832
 21
161.8450500112
 31
0.0
  0
ARC
  5
20C
100
AcDbEntity
  8
2655___ W-_ GSP-_ SIGNAL-ANTRIEB
390
0
  6
DASHDOT
100
AcDbCircle
 10
-57.720087097
 20
180.9913670786
 30
0.0
 40
31.18513984
100
AcDbArc
 50
131.099943452
 51
228.900056548
  0
ARC
  5
20D
100
AcDbEntity
  8
2655___ W-_ GSP-_ SIGNAL-ANTRIEB
390
0
  6
DASHDOT
100
AcDbCircle
 10
-46.6036292266
 20
106.7979347356
 30
0.0
 40
44.2788931173
100
AcDbArc
 50
135.5643437355
 51
224.4356562645
  0
ARC
  5
20E
100
AcDbEntity
  8
2655___ W-_ GSP-_ SIGNAL-ANTRIEB
390
0
  6
DASHDOT
100
AcDbCircle
 10
-68.4193659361
 20
61.4747538031
 30
0.0
 40
10.6135292655
100
AcDbArc
 50
136.9143872695
 51
223.0856127305
  0
ARC
  5
20F
100
AcDbEntity
  8
2655___ W-_ GSP-_ SIGNAL-ANTRIEB
390
0
  6
DASHDOT
100
AcDbCircle
 10
10.1315706721
 20
168.2949932172
 30
0.0
 40
66.3726586508
100
AcDbArc
 50
144.5453689783
 51
215.4546310217
  0
MTEXT
  5
210
100
AcDbEntity
  8
2655___ W-_ GSP-_ SIGNAL-ANTRIEB
390
0
100
AcDbMText
 10
-56.395362208
 20
168.8094916526
 30
0.0
 40
2.0
 41
0.0
 71
         5
 72
         1
  1
\W0.810845;>2655.2P\PM15x2\PT2 O2
  7
Arial
 73
         1
 44
0.66
  0
MTEXT
  5
211
100
AcDbEntity
  8
2655___ W-_ GSP-_ SIGNAL-ANTRIEB
390
0
100
AcDbMText
 10
-91.0367965732
 20
108.3124331711
 30
0.0
 40
2.0
 41
0.0
 71
         5
 72
         1
  1
\W0.810848;>2655.11P\PM15x30x15\PT2 O2
  7
Arial
 73
         1
 44
0.66
  0
MTEXT
  5
212
100
AcDbEntity
  8
2655___ W-_ GSP-_ SIGNAL-ANTRIEB
390
0
100
AcDbMText
 10
-89.0595011664
 20
182.505865514
 30
0.0
 40
2.0
 41
0.0
 71
         5
 72
         1
  1
\W0.810845;>2655.1P\PM15x30x15\PT2 O2
  7
Arial
 73
         1
 44
0.66
  0
MTEXT
  5
213
100
AcDbEntity
  8
2655___ W-_ GSP-_ SIGNAL-ANTRIEB
390
0
100
AcDbMText
 10
-78.7265341351
 20
60.9892522386
 30
0.0
 40
2.0
 41
0.0
 71
         5
 72
         1
  1
\W0.810845;>2655.6P\PM10+x5\PT5 O2
  7
Arial
 73
         1
 44
0.66
  0
INSERT
  5
214
100
AcDbEntity
  8
BEMAßUNG
390
0
100
AcDbBlockReference
  2
D337105408
 10
0.0
 20
0.0
 30
0.0
  0
INSERT
  5
215
100
AcDbEntity
  8
BEMAßUNG
390
0
100
AcDbBlockReference
  2
D337105664
 10
0.0
 20
0.0
 30
0.0
  0
INSERT
  5
216
100
AcDbEntity
  8
BEMAßUNG
390
0
100
AcDbBlockReference
  2
D337105920
 10
0.0
 20
0.0
 30
0.0
  0
ARC
  5
217
100
AcDbEntity
  8
2655_3R
390
0
100
AcDbCircle
 10
118.0061531581
 20
164.3403543363
 30
0.0
 40
16.0
100
AcDbArc
 50
29.4912519884
 51
80.5718603215
  0
CIRCLE
  5
218
100
AcDbEntity
  8
2655_2P
390
0
100
AcDbCircle
 10
172.3731461107
 20
103.6757021724
 30
0.0
 40
1.25
  0
CIRCLE
  5
219
100
AcDbEntity
  8
2655_2P
390
0
100
AcDbCircle
 10
172.3731461107
 20
172.6757021724
 30
0.0
 40
1.25
  0
LINE
  5
21A
100
AcDbEntity
  8
2655_2P
390
0
  6
DASHED
100
AcDbLine
 10
164.3731461107
 20
172.6757021724
 30
0.0
 11
172.3731461107
 21
172.6757021724
 31
0.0
  0
LINE
  5
21B
100
AcDbEntity
  8
2655_2P
390
0
  6
DASHED
100
AcDbLine
 10
172.3731461107
 20
172.6757021724
 30
0.0
 11
175.8731461107
 21
176.6757021724
 31
0.0
  0
LINE
  5
21C
100
AcDbEntity
  8
2655_2P
390
0
  6
DASHED
100
AcDbLine
 10
164.3731461107
 20
103.6757021724
 30
0.0
 11
172.3731461107
 21
103.6757021724
 31
0.0
  0
LINE
  5
21D
100
AcDbEntity
  8
2655_2P
390
0
  6
DASHED
100
AcDbLine
 10
172.3731461107
 20
103.6757021724
 30
0.0
 11
175.8731461107
 21
99.6757021724
 31
0.0
  0
CIRCLE
  5
21E
100
AcDbEntity
  8
2655_1P
390
0
100
AcDbCircle
 10
32.1295971288
 20
176.4913670786
 30
0.0
 40
1.25
  0
CIRCLE
  5
21F
100
AcDbEntity
  8
2655_11P
390
0
100
AcDbCircle
 10
32.1295971288
 20
109.7979347356
 30
0.0
 40
1.25
  0
CIRCLE
  5
220
100
AcDbEntity
  8
2655_11P
390
0
100
AcDbCircle
 10
32.1295971288
 20
71.2979347356
 30
0.0
 40
1.25
  0
LINE
  5
221
100
AcDbEntity
  8
2655_11P
390
0
  6
DASHED
100
AcDbLine
 10
32.1295971288
 20
109.7979347356
 30
0.0
 11
32.1295971288
 21
71.2979347356
 31
0.0
  0
ARC
  5
222
100
AcDbEntity
  8
2655_9 RIEGELSCHIEBER
390
0
100
AcDbCircle
 10
223.096474781
 20
163.0264080884
 30
0.0
 40
1.5
100
AcDbArc
 50
0.0
 51
180.0
  0
CIRCLE
  5
223
100
AcDbEntity
  8
2655_9R
390
0
100
AcDbCircle
 10
223.0910911007
 20
106.0266105093
 30
0.0
 40
1.25
  0
ARC
  5
224
100
AcDbEntity
  8
2655_9 RIEGELSCHIEBER
390
0
100
AcDbCircle
 10
223.096474781
 20
151.0264080884
 30
0.0
 40
1.5
100
AcDbArc
 50
180.0
 51
360.0
  0
CIRCLE
  5
225
100
AcDbEntity
  8
2655_9R
390
0
100
AcDbCircle
 10
223.0910911007
 20
170.0288727201
 30
0.0
 40
1.25
  0
ARC
  5
226
100
AcDbEntity
  8
2655_9 RIEGELSCHIEBER
390
0
100
AcDbCircle
 10
223.096474781
 20
113.0266105093
 30
0.0
 40
1.5
100
AcDbArc
 50
180.0
 51
360.0
  0
ARC
  5
227
100
AcDbEntity
  8
2655_9 RIEGELSCHIEBER
390
0
100
AcDbCircle
 10
223.096474781
 20
125.0266105093
 30
0.0
 40
1.5
100
AcDbArc
 50
0.0
 51
180.0
  0
CIRCLE
  5
228
100
AcDbEntity
  8
2655_9L
390
0
100
AcDbCircle
 10
212.0910911007
 20
170.0288727201
 30
0.0
 40
1.25
  0
CIRCLE
  5
229
100
AcDbEntity
  8
2655_9L
390
0
100
AcDbCircle
 10
212.0910911007
 20
106.0266105093
 30
0.0
 40
1.25
  0
LINE
  5
22A
100
AcDbEntity
  8
2655_9 RIEGELSCHIEBER
390
0
100
AcDbLine
 10
208.8564415254
 20
173.0264080884
 30
0.0
 11
216.9457406759
 21
173.0264080884
 31
0.0
  0
LINE
  5
22B
100
AcDbEntity
  8
2655_9 RIEGELSCHIEBER
390
0
100
AcDbLine
 10
224.596474781
 20
151.0264080884
 30
0.0
 11
224.596474781
 21
163.0264080884
 31
0.0
  0
LINE
  5
22C
100
AcDbEntity
  8
2655_9 RIEGELSCHIEBER
390
0
100
AcDbLine
 10
225.9457406759
 20
173.0264080884
 30
0.0
 11
225.9457406759
 21
103.0266105093
 31
0.0
  0
LINE
  5
22D
100
AcDbEntity
  8
2655_9 RIEGELSCHIEBER
390
0
100
AcDbLine
 10
208.8564415254
 20
103.0264080884
 30
0.0
 11
216.9457406759
 21
103.0264080884
 31
0.0
  0
LINE
  5
22E
100
AcDbEntity
  8
2655_9 RIEGELSCHIEBER
390
0
100
AcDbLine
 10
224.596474781
 20
113.0266105093
 30
0.0
 11
224.596474781
 21
125.0266105093
 31
0.0
  0
LINE
  5
22F
100
AcDbEntity
  8
2655_9 RIEGELSCHIEBER
390
0
100
AcDbLine
 10
221.596474781
 20
163.0264080884
 30
0.0
 11
221.596474781
 21
151.0264080884
 31
0.0
  0
LINE
  5
230
100
AcDbEntity
  8
2655_9 RIEGELSCHIEBER
390
0
100
AcDbLine
 10
216.9457406759
 20
130.9016105093
 30
0.0
 11
221.4457406759
 21
130.9016105093
 31
0.0
  0
LINE
  5
231
100
AcDbEntity
  8
2655_9 RIEGELSCHIEBER
390
0
100
AcDbLine
 10
221.596474781
 20
113.0266105093
 30
0.0
 11
221.596474781
 21
125.0266105093
 31
0.0
  0
LINE
  5
232
100
AcDbEntity
  8
2655_9 RIEGELSCHIEBER
390
0
100
AcDbLine
 10
216.9457406759
 20
173.0264080884
 30
0.0
 11
225.9457406759
 21
173.0264080884
 31
0.0
  0
LINE
  5
233
100
AcDbEntity
  8
2655_9 RIEGELSCHIEBER
390
0
100
AcDbLine
 10
225.9457406759
 20
103.0266105093
 30
0.0
 11
216.9457406759
 21
103.0266105093
 31
0.0
  0
LINE
  5
234
100
AcDbEntity
  8
2655_9 RIEGELSCHIEBER
390
0
100
AcDbLine
 10
208.8564415254
 20
130.9014080884
 30
0.0
 11
214.9457406759
 21
130.9014080884
 31
0.0
  0
LINE
  5
235
100
AcDbEntity
  8
2655_9 RIEGELSCHIEBER
390
0
  6
DASHED
100
AcDbLine
 10
214.9457406759
 20
137.1514080884
 30
0.0
 11
216.9457406759
 21
137.1514080884
 31
0.0
  0
LINE
  5
236
100
AcDbEntity
  8
2655_9 RIEGELSCHIEBER
390
0
100
AcDbLine
 10
221.4457406759
 20
137.1516105093
 30
0.0
 11
221.4457406759
 21
130.9016105093
 31
0.0
  0
LINE
  5
237
100
AcDbEntity
  8
2655_9 RIEGELSCHIEBER
390
0
100
AcDbLine
 10
208.8564415254
 20
137.1514080884
 30
0.0
 11
214.9457406759
 21
137.1514080884
 31
0.0
  0
LINE
  5
238
100
AcDbEntity
  8
2655_9 RIEGELSCHIEBER
390
0
100
AcDbLine
 10
208.8564415254
 20
130.9014080884
 30
0.0
 11
208.8564415254
 21
103.0264080884
 31
0.0
  0
LINE
  5
239
100
AcDbEntity
  8
2655_9 RIEGELSCHIEBER
390
0
  6
DASHED
100
AcDbLine
 10
218.9457406759
 20
103.0266105093
 30
0.0
 11
218.9457406759
 21
131.9016105093
 31
0.0
  0
LINE
  5
23A
100
AcDbEntity
  8
2655_9 RIEGELSCHIEBER
390
0
  6
DASHED
100
AcDbLine
 10
214.9457406759
 20
130.9014080884
 30
0.0
 11
216.9457406759
 21
130.9014080884
 31
0.0
  0
LINE
  5
23B
100
AcDbEntity
  8
2655_9 RIEGELSCHIEBER
390
0
100
AcDbLine
 10
221.4457406759
 20
137.1516105093
 30
0.0
 11
216.9457406759
 21
137.1516105093
 31
0.0
  0
LINE
  5
23C
100
AcDbEntity
  8
2655_9 RIEGELSCHIEBER
390
0
  6
DASHED
100
AcDbLine
 10
214.9457406759
 20
103.0264080884
 30
0.0
 11
214.9457406759
 21
173.0264080884
 31
0.0
  0
LINE
  5
23D
100
AcDbEntity
  8
2655_9 RIEGELSCHIEBER
390
0
  6
DASHED
100
AcDbLine
 10
218.9457406759
 20
138.1516105093
 30
0.0
 11
218.9457406759
 21
173.0264080884
 31
0.0
  0
LINE
  5
23E
100
AcDbEntity
  8
2655_9 RIEGELSCHIEBER
390
0
100
AcDbLine
 10
208.8564415254
 20
173.0264080884
 30
0.0
 11
208.8564415254
 21
137.1514080884
 31
0.0
  0
LINE
  5
23F
100
AcDbEntity
  8
2655_9 RIEGELSCHIEBER
390
0
100
AcDbLine
 10
216.9457406759
 20
103.0264080884
 30
0.0
 11
216.9457406759
 21
173.0264080884
 31
0.0
  0
LINE
  5
240
100
AcDbEntity
  8
2655_9L
390
0
100
AcDbLine
 10
207.8564415254
 20
173.0264080884
 30
0.0
 11
207.8564415254
 21
136.1514080884
 31
0.0
  0
LINE
  5
241
100
AcDbEntity
  8
2655_9L
390
0
100
AcDbLine
 10
207.8564415254
 20
136.1514080884
 30
0.0
 11
218.4457406759
 21
136.1514080884
 31
0.0
  0
LINE
  5
242
100
AcDbEntity
  8
2655_9L
390
0
100
AcDbLine
 10
207.8564415254
 20
131.9014080884
 30
0.0
 11
218.4457406759
 21
131.9014080884
 31
0.0
  0
LINE
  5
243
100
AcDbEntity
  8
2655_9L
390
0
100
AcDbLine
 10
207.8564415254
 20
131.9014080884
 30
0.0
 11
207.8564415254
 21
103.0264080884
 31
0.0
  0
LINE
  5
244
100
AcDbEntity
  8
2655_9L
390
0
100
AcDbLine
 10
208.8564415254
 20
102.0264080884
 30
0.0
 11
216.9457406759
 21
102.0264080884
 31
0.0
  0
LINE
  5
245
100
AcDbEntity
  8
2655_9L
390
0
100
AcDbLine
 10
208.8564415254
 20
174.0264080884
 30
0.0
 11
216.9457406759
 21
174.0264080884
 31
0.0
  0
LINE
  5
246
100
AcDbEntity
  8
2655_9L
390
0
  6
DIVIDE
100
AcDbLine
 10
208.8564415254
 20
174.0264080884
 30
0.0
 11
201.9457406759
 21
174.0264080884
 31
0.0
  0
LINE
  5
247
100
AcDbEntity
  8
2655_9L
390
0
  6
DIVIDE
100
AcDbLine
 10
208.8564415254
 20
102.0264080884
 30
0.0
 11
201.9457406759
 21
102.0264080884
 31
0.0
  0
CIRCLE
  5
248
100
AcDbEntity
  8
2655_9L
390
0
  6
PHANTOM
100
AcDbCircle
 10
201.9457406759
 20
174.0264080884
 30
0.0
 40
0.5
  0
CIRCLE
  5
249
100
AcDbEntity
  8
2655_9L
390
0
  6
PHANTOM
100
AcDbCircle
 10
201.9457406759
 20
102.0264080884
 30
0.0
 40
1.0
  0
MTEXT
  5
24A
100
AcDbEntity
  8
2655_9L
390
0
100
AcDbMText
 10
201.1103168876
 20
176.4085671566
 30
0.0
 40
2.0
 41
0.0
 71
         5
 72
         1
  1
\W0.810867;M15x15x2 F150\PT2 O2 S4 I1,2\PB-0,3     D1,5
  7
Arial
 73
         1
 44
0.66
  0
TEXT
  5
24B
100
AcDbEntity
  8
BESCHRIFTUNG
390
0
100
AcDbText
 10
214.3436928604
 20
187.9027938973
 30
0.0
 40
3.0
  1
2655.9
 41
1.1351380725
  7
Arial
 11
214.3436928604
 21
190.9027938973
 31
0.0
100
AcDbText
 73
         3
  0
LINE
  5
24C
100
AcDbEntity
  8
2655_9L
390
0
  6
DASHED
100
AcDbLine
 10
216.9457406759
 20
174.0264080884
 30
0.0
 11
212.0910911007
 21
170.0288727201
 31
0.0
  0
LINE
  5
24D
100
AcDbEntity
  8
2655_9L
390
0
  6
DASHED
100
AcDbLine
 10
212.0910911007
 20
170.0288727201
 30
0.0
 11
207.8564415254
 21
173.0264080884
 31
0.0
  0
LINE
  5
24E
100
AcDbEntity
  8
2655_9L
390
0
  6
DASHED
100
AcDbLine
 10
207.8564415254
 20
103.0264080884
 30
0.0
 11
212.0910911007
 21
106.0266105093
 31
0.0
  0
LINE
  5
24F
100
AcDbEntity
  8
2655_9L
390
0
  6
DASHED
100
AcDbLine
 10
212.0910911007
 20
106.0266105093
 30
0.0
 11
216.9457406759
 21
102.0264080884
 31
0.0
  0
LINE
  5
250
100
AcDbEntity
  8
2655_9L
390
0
  6
DASHED
100
AcDbLine
 10
218.4457406759
 20
136.1514080884
 30
0.0
 11
218.4457406759
 21
131.9014080884
 31
0.0
  0
LINE
  5
251
100
AcDbEntity
  8
MITTELLINIEN
390
0
100
AcDbLine
 10
201.9457406759
 20
179.0264080884
 30
0.0
 11
201.9457406759
 21
97.0264080884
 31
0.0
  0
LINE
  5
252
100
AcDbEntity
  8
MITTELLINIEN
390
0
100
AcDbLine
 10
231.9457406759
 20
179.0264080884
 30
0.0
 11
231.9457406759
 21
97.0264080884
 31
0.0
  0
CIRCLE
  5
253
100
AcDbEntity
  8
2655_9R
390
0
  6
PHANTOM
100
AcDbCircle
 10
216.9457406759
 20
174.0264080884
 30
0.0
 40
0.5
  0
CIRCLE
  5
254
100
AcDbEntity
  8
2655_9R
390
0
  6
PHANTOM
100
AcDbCircle
 10
216.9457406759
 20
102.0264080884
 30
0.0
 40
1.0
  0
LINE
  5
255
100
AcDbEntity
  8
2655_9R
390
0
  6
DIVIDE
100
AcDbLine
 10
216.9457406759
 20
174.0264080884
 30
0.0
 11
225.9457406759
 21
174.0264080884
 31
0.0
  0
LINE
  5
256
100
AcDbEntity
  8
2655_9R
390
0
  6
DIVIDE
100
AcDbLine
 10
225.9457406759
 20
102.0266105093
 30
0.0
 11
216.9457406759
 21
102.0264080884
 31
0.0
  0
LINE
  5
257
100
AcDbEntity
  8
2655_9R
390
0
100
AcDbLine
 10
226.9457406759
 20
173.0264080884
 30
0.0
 11
226.9457406759
 21
103.0266105093
 31
0.0
  0
LINE
  5
258
100
AcDbEntity
  8
2655_9R
390
0
100
AcDbLine
 10
222.596474781
 20
163.0264080884
 30
0.0
 11
222.596474781
 21
151.0264080884
 31
0.0
  0
LINE
  5
259
100
AcDbEntity
  8
2655_9R
390
0
100
AcDbLine
 10
223.596474781
 20
151.0264080884
 30
0.0
 11
223.596474781
 21
163.0264080884
 31
0.0
  0
ARC
  5
25A
100
AcDbEntity
  8
2655_9R
390
0
100
AcDbCircle
 10
223.096474781
 20
163.0264080884
 30
0.0
 40
0.5
100
AcDbArc
 50
0.0
 51
180.0
  0
ARC
  5
25B
100
AcDbEntity
  8
2655_9R
390
0
100
AcDbCircle
 10
223.096474781
 20
151.0264080884
 30
0.0
 40
0.5
100
AcDbArc
 50
180.0
 51
360.0
  0
ARC
  5
25C
100
AcDbEntity
  8
2655_9R
390
0
100
AcDbCircle
 10
223.096474781
 20
125.0266105093
 30
0.0
 40
0.5
100
AcDbArc
 50
0.0
 51
180.0
  0
LINE
  5
25D
100
AcDbEntity
  8
2655_9R
390
0
100
AcDbLine
 10
222.596474781
 20
113.0266105093
 30
0.0
 11
222.596474781
 21
125.0266105093
 31
0.0
  0
LINE
  5
25E
100
AcDbEntity
  8
2655_9R
390
0
100
AcDbLine
 10
223.596474781
 20
113.0266105093
 30
0.0
 11
223.596474781
 21
125.0266105093
 31
0.0
  0
ARC
  5
25F
100
AcDbEntity
  8
2655_9R
390
0
100
AcDbCircle
 10
223.096474781
 20
113.0266105093
 30
0.0
 40
0.5
100
AcDbArc
 50
180.0
 51
360.0
  0
LINE
  5
260
100
AcDbEntity
  8
2655_9R
390
0
  6
DASHED
100
AcDbLine
 10
225.9457406759
 20
174.0264080884
 30
0.0
 11
223.0910911007
 21
170.0288727201
 31
0.0
  0
LINE
  5
261
100
AcDbEntity
  8
2655_9R
390
0
  6
DASHED
100
AcDbLine
 10
223.0910911007
 20
170.0288727201
 30
0.0
 11
222.596474781
 21
163.0264080884
 31
0.0
  0
LINE
  5
262
100
AcDbEntity
  8
2655_9R
390
0
  6
DASHED
100
AcDbLine
 10
222.596474781
 20
163.0264080884
 30
0.0
 11
226.9457406759
 21
173.0264080884
 31
0.0
  0
LINE
  5
263
100
AcDbEntity
  8
2655_9R
390
0
  6
DASHED
100
AcDbLine
 10
226.9457406759
 20
103.0266105093
 30
0.0
 11
223.596474781
 21
113.0266105093
 31
0.0
  0
LINE
  5
264
100
AcDbEntity
  8
2655_9R
390
0
  6
DASHED
100
AcDbLine
 10
223.0910911007
 20
106.0266105093
 30
0.0
 11
225.9457406759
 21
102.0266105093
 31
0.0
  0
LINE
  5
265
100
AcDbEntity
  8
2655_9R
390
0
100
AcDbLine
 10
220.4457406759
 20
136.1516105093
 30
0.0
 11
216.9457406759
 21
136.1516105093
 31
0.0
  0
LINE
  5
266
100
AcDbEntity
  8
2655_9R
390
0
100
AcDbLine
 10
220.4457406759
 20
136.1516105093
 30
0.0
 11
220.4457406759
 21
131.9016105093
 31
0.0
  0
LINE
  5
267
100
AcDbEntity
  8
2655_9R
390
0
100
AcDbLine
 10
216.9457406759
 20
131.9016105093
 30
0.0
 11
220.4457406759
 21
131.9016105093
 31
0.0
  0
LINE
  5
268
100
AcDbEntity
  8
2655_9R
390
0
  6
DASHED
100
AcDbLine
 10
223.596474781
 20
113.0266105093
 30
0.0
 11
216.9457406759
 21
136.1516105093
 31
0.0
  0
LINE
  5
269
100
AcDbEntity
  8
2655_9R
390
0
  6
DASHED
100
AcDbLine
 10
216.9457406759
 20
131.9016105093
 30
0.0
 11
223.0910911007
 21
106.0266105093
 31
0.0
  0
MTEXT
  5
26A
100
AcDbEntity
  8
2655_9R
390
0
100
AcDbMText
 10
217.8693595785
 20
176.4085671566
 30
0.0
 40
2.0
 41
0.0
 71
         5
 72
         1
  1
\W0.810867;M15x15x2 F150\PT2 O2 S4 I1,2\PB-0,3     D1,5
  7
Arial
 73
         1
 44
0.66
  0
TEXT
  5
26B
100
AcDbEntity
  8
2655_9R
390
0
  6
DASHED
100
AcDbText
 10
220.9493716618
 20
160.8880409049
 30
0.0
 40
1.5
  1
N1
 41
0.8648415648
  7
Arial
 11
220.9493716618
 21
162.3880409049
 31
0.0
100
AcDbText
 73
         3
  0
TEXT
  5
26C
100
AcDbEntity
  8
2655_9R
390
0
  6
DASHED
100
AcDbText
 10
222.9209763718
 20
117.084127565
 30
0.0
 40
1.5
  1
N1
 41
0.8648415648
  7
Arial
 11
222.9209763718
 21
118.584127565
 31
0.0
100
AcDbText
 73
         3
  0
ARC
  5
26D
100
AcDbEntity
  8
2655_1P
390
0
  6
DASHED
100
AcDbCircle
 10
41.046572936
 20
158.1486916898
 30
0.0
 40
20.395249397
100
AcDbArc
 50
58.2474892414
 51
115.925905801
  0
INSERT
  5
26E
100
AcDbEntity
  8
BEMAßUNG
390
0
100
AcDbBlockReference
  2
D337106432
 10
0.0
 20
0.0
 30
0.0
  0
INSERT
  5
26F
100
AcDbEntity
  8
BEMAßUNG
390
0
100
AcDbBlockReference
  2
D337106688
 10
0.0
 20
0.0
 30
0.0
  0
INSERT
  5
270
100
AcDbEntity
  8
BEMAßUNG
390
0
100
AcDbBlockReference
  2
D337106944
 10
0.0
 20
0.0
 30
0.0
  0
INSERT
  5
271
100
AcDbEntity
  8
BEMAßUNG
390
0
100
AcDbBlockReference
  2
D337107200
 10
0.0
 20
0.0
 30
0.0
  0
ARC
  5
272
100
AcDbEntity
  8
2655___ W-_ GSP-_ SIGNAL-ANTRIEB
390
0
  6
DASHDOT
100
AcDbCircle
 10
-16.2210574969
 20
191.1467074188
 30
0.0
 40
12.1636160272
100
AcDbArc
 50
115.2445938472
 51
244.7554061528
  0
MTEXT
  5
273
100
AcDbEntity
  8
2655___ W-_ GSP-_ SIGNAL-ANTRIEB
390
0
100
AcDbMText
 10
-27.9643865423
 20
190.5470717336
 30
0.0
 40
2.0
 41
0.0
 71
         5
 72
         1
  1
\W0.810845;>2655.3L\PM15x15x2\PT2 O2
  7
Arial
 73
         1
 44
0.66
  0
MTEXT
  5
274
100
AcDbEntity
  8
2655___ W-_ GSP-_ SIGNAL-ANTRIEB
390
0
100
AcDbMText
 10
-26.9643865423
 20
67.976488497
 30
0.0
 40
2.0
 41
0.0
 71
         5
 72
         1
  1
\W0.810848;>2655.78L\PM15x15x2\PT2 O2
  7
Arial
 73
         1
 44
0.66
  0
MTEXT
  5
275
100
AcDbEntity
  8
2655___ W-_ GSP-_ SIGNAL-ANTRIEB
390
0
100
AcDbMText
 10
-26.9643865423
 20
108.42265951
 30
0.0
 40
2.0
 41
0.0
 71
         5
 72
         1
  1
\W0.810845;>2655.5L\PM15x15x2\PT2 O2
  7
Arial
 73
         1
 44
0.66
  0
ARC
  5
276
100
AcDbEntity
  8
2655___ W-_ GSP-_ SIGNAL-ANTRIEB
390
0
  6
DASHDOT
100
AcDbCircle
 10
-6.1700126416
 20
65.465279421
 30
0.0
 40
20.8610752491
100
AcDbArc
 50
136.9267574444
 51
223.0979829055
  0
ARC
  5
277
100
AcDbEntity
  8
2655___ W-_ GSP-_ SIGNAL-ANTRIEB
390
0
  6
DASHDOT
100
AcDbCircle
 10
-9.113282804
 20
108.6581610742
 30
0.0
 40
16.8352533182
100
AcDbArc
 50
136.9143872695
 51
223.0856127305
  0
ARC
  5
278
100
AcDbEntity
  8
2655___ W-_ GSP-_ SIGNAL-ANTRIEB
390
0
  6
DASHDOT
100
AcDbCircle
 10
252.5005071198
 20
138.0264080884
 30
0.0
 40
62.0627457514
100
AcDbArc
 50
144.5453689783
 51
215.4546310217
  0
MTEXT
  5
279
100
AcDbEntity
  8
2655___ W-_ GSP-_ SIGNAL-ANTRIEB
390
0
100
AcDbMText
 10
189.4843219094
 20
136.0409065239
 30
0.0
 40
2.0
 41
0.0
 71
         5
 72
         1
  1
\W0.810845;>2655.9L\PM15x15x2\PT2 O2
  7
Arial
 73
         1
 44
0.66
  0
MTEXT
  5
27A
100
AcDbEntity
  8
2655___ W-_ GSP-_ SIGNAL-ANTRIEB
390
0
100
AcDbMText
 10
-59.6716137593
 20
82.3803717765
 30
0.0
 40
2.0
 41
0.0
 71
         5
 72
         1
  1
\W0.810845;>2655.9L\PM15x15x2\PT2 O2
  7
Arial
 73
         1
 44
0.66
  0
ARC
  5
27B
100
AcDbEntity
  8
2655___ W-_ GSP-_ SIGNAL-ANTRIEB
390
0
  6
DASHDOT
100
AcDbCircle
 10
3.3445714511
 20
84.365873341
 30
0.0
 40
62.0627457514
100
AcDbArc
 50
144.5453689783
 51
215.4546310217
  0
LINE
  5
27C
100
AcDbEntity
  8
2655_11P
390
0
100
AcDbLine
 10
51.7795971288
 20
108.7979347356
 30
0.0
 11
38.7795971288
 21
108.7979347356
 31
0.0
  0
LINE
  5
27D
100
AcDbEntity
  8
2655_11P
390
0
100
AcDbLine
 10
51.7795971288
 20
103.7979347356
 30
0.0
 11
54.2795971288
 21
103.7979347356
 31
0.0
  0
LINE
  5
27E
100
AcDbEntity
  8
2655_11P
390
0
100
AcDbLine
 10
51.7795971288
 20
108.7979347356
 30
0.0
 11
51.7795971288
 21
103.7979347356
 31
0.0
  0
LINE
  5
27F
100
AcDbEntity
  8
2655_11P
390
0
100
AcDbLine
 10
51.7795971288
 20
89.7979347356
 30
0.0
 11
51.7795971288
 21
83.7979347356
 31
0.0
  0
LINE
  5
280
100
AcDbEntity
  8
2655_11P
390
0
100
AcDbLine
 10
38.7795971288
 20
83.7979347356
 30
0.0
 11
51.7795971288
 21
83.7979347356
 31
0.0
  0
LINE
  5
281
100
AcDbEntity
  8
2655_11P
390
0
100
AcDbLine
 10
51.7795971288
 20
89.7979347356
 30
0.0
 11
54.2795971288
 21
89.7979347356
 31
0.0
  0
LINE
  5
282
100
AcDbEntity
  8
2655_11P
390
0
  6
DASHED
100
AcDbLine
 10
56.7795971288
 20
114.7979347356
 30
0.0
 11
51.7795971288
 21
108.7979347356
 31
0.0
  0
ARC
  5
283
100
AcDbEntity
  8
2655_11P
390
0
  6
DASHED
100
AcDbCircle
 10
41.046572936
 20
91.4552593468
 30
0.0
 40
20.395249397
100
AcDbArc
 50
58.2474892414
 51
115.925905801
  0
LINE
  5
284
100
AcDbEntity
  8
2655_1 RAHMEN
390
0
100
AcDbLine
 10
37.7795971288
 20
82.7979347356
 30
0.0
 11
52.7795971288
 21
82.7979347356
 31
0.0
  0
LINE
  5
285
100
AcDbEntity
  8
2655_1 RAHMEN
390
0
100
AcDbLine
 10
52.7795971288
 20
109.7979347356
 30
0.0
 11
37.7795971288
 21
109.7979347356
 31
0.0
  0
LINE
  5
286
100
AcDbEntity
  8
2655_1 RAHMEN
390
0
100
AcDbLine
 10
52.7795971288
 20
104.7979347356
 30
0.0
 11
54.7795971288
 21
104.7979347356
 31
0.0
  0
LINE
  5
287
100
AcDbEntity
  8
2655_1 RAHMEN
390
0
100
AcDbLine
 10
52.7795971288
 20
88.7979347356
 30
0.0
 11
54.7795971288
 21
88.7979347356
 31
0.0
  0
LINE
  5
288
100
AcDbEntity
  8
2655_1 RAHMEN
390
0
100
AcDbLine
 10
52.7795971288
 20
109.7979347356
 30
0.0
 11
52.7795971288
 21
104.7979347356
 31
0.0
  0
LINE
  5
289
100
AcDbEntity
  8
2655_1 RAHMEN
390
0
100
AcDbLine
 10
52.7795971288
 20
88.7979347356
 30
0.0
 11
52.7795971288
 21
82.7979347356
 31
0.0
  0
CIRCLE
  5
28A
100
AcDbEntity
  8
2655_3 DREHHEBEL
390
0
100
AcDbCircle
 10
114.0061531582
 20
129.9768356017
 30
0.0
 40
0.5
  0
ARC
  5
28B
100
AcDbEntity
  8
2655_3 DREHHEBEL
390
0
100
AcDbCircle
 10
105.5497202158
 20
122.6632358115
 30
0.0
 40
1.5
100
AcDbArc
 50
104.290046219
 51
284.290046219
  0
ARC
  5
28C
100
AcDbEntity
  8
2655_3 DREHHEBEL
390
0
100
AcDbCircle
 10
111.6953023096
 20
126.0864589433
 30
0.0
 40
1.5
100
AcDbArc
 50
329.2900462187
 51
509.2900462186
  0
ARC
  5
28D
100
AcDbEntity
  8
2655_3 DREHHEBEL
390
0
100
AcDbCircle
 10
111.6291666784
 20
119.0520960041
 30
0.0
 40
1.5
100
AcDbArc
 50
194.290046219
 51
374.290046219
  0
ARC
  5
28E
100
AcDbEntity
  8
2655_3 DREHHEBEL
390
0
100
AcDbCircle
 10
114.0061531582
 20
129.9768356017
 30
0.0
 40
14.5
100
AcDbArc
 50
213.1448119997
 51
277.928141766
  0
CIRCLE
  5
28F
100
AcDbEntity
  8
2655_3 DREHHEBEL
390
0
100
AcDbCircle
 10
113.015101884
 20
132.8084106708
 30
0.0
 40
0.5
  0
CIRCLE
  5
290
100
AcDbEntity
  8
2655_3 DREHHEBEL
390
0
100
AcDbCircle
 10
113.0061531582
 20
135.8929153848
 30
0.0
 40
0.5
  0
CIRCLE
  5
291
100
AcDbEntity
  8
2655_3 DREHHEBEL
390
0
100
AcDbCircle
 10
114.0061531582
 20
129.9768356017
 30
0.0
 40
0.5
  0
CIRCLE
  5
292
100
AcDbEntity
  8
2655_3 DREHHEBEL
390
0
  6
DASHDOT
100
AcDbCircle
 10
111.59006521
 20
124.9588067862
 30
0.0
 40
2.0
  0
CIRCLE
  5
293
100
AcDbEntity
  8
2655_3 DREHHEBEL
390
0
  6
DASHDOT
100
AcDbCircle
 10
111.59006521
 20
124.9588067862
 30
0.0
 40
3.0
  0
LINE
  5
294
100
AcDbEntity
  8
2655_3 DREHHEBEL
390
0
100
AcDbLine
 10
105.1794742175
 20
124.116823752
 30
0.0
 11
109.4226715135
 21
125.1976161657
 31
0.0
  0
LINE
  5
295
100
AcDbEntity
  8
2655_3 DREHHEBEL
390
0
100
AcDbLine
 10
112.9849476555
 20
125.3204205096
 30
0.0
 11
112.0019622052
 21
123.6655392983
 31
0.0
  0
LINE
  5
296
100
AcDbEntity
  8
2655_3 DREHHEBEL
390
0
100
AcDbLine
 10
109.5585020741
 20
121.1044965733
 30
0.0
 11
110.1755787379
 21
118.6818500058
 31
0.0
  0
LINE
  5
297
100
AcDbEntity
  8
2655_3 DREHHEBEL
390
0
100
AcDbLine
 10
105.9199662141
 20
121.209647871
 30
0.0
 11
108.3426127816
 21
121.8267245348
 31
0.0
  0
LINE
  5
298
100
AcDbEntity
  8
2655_3 DREHHEBEL
390
0
100
AcDbLine
 10
101.0061531581
 20
123.3647344374
 30
0.0
 11
112.5298954561
 21
138.9768356022
 31
0.0
  0
LINE
  5
299
100
AcDbEntity
  8
2655_3 DREHHEBEL
390
0
100
AcDbLine
 10
113.0827546189
 20
119.4223420024
 30
0.0
 11
112.0019622052
 21
123.6655392983
 31
0.0
  0
LINE
  5
29A
100
AcDbEntity
  8
2655_3 DREHHEBEL
390
0
100
AcDbLine
 10
109.4226715135
 20
125.1976161657
 30
0.0
 11
110.4056569638
 21
126.8524973769
 31
0.0
  0
LINE
  5
29B
100
AcDbEntity
  8
2655_3 DREHHEBEL
390
0
  6
DASHED
100
AcDbLine
 10
118.0061531581
 20
115.4768356017
 30
0.0
 11
118.0061531582
 21
138.9768356017
 31
0.0
  0
LINE
  5
29C
100
AcDbEntity
  8
2655_3 DREHHEBEL
390
0
100
AcDbLine
 10
116.0061531581
 20
115.6154289853
 30
0.0
 11
116.0061531582
 21
138.9768356017
 31
0.0
  0
LINE
  5
29D
100
AcDbEntity
  8
2655_3 DREHHEBEL
390
0
100
AcDbLine
 10
101.8654286581
 20
122.048859277
 30
0.0
 11
101.0061531581
 21
123.3647344374
 31
0.0
  0
CIRCLE
  5
29E
100
AcDbEntity
  8
2655_13L
390
0
  6
PHANTOM
100
AcDbCircle
 10
101.0061531581
 20
139.9754944053
 30
0.0
 40
0.5
  0
CIRCLE
  5
29F
100
AcDbEntity
  8
2655_13R
390
0
  6
PHANTOM
100
AcDbCircle
 10
116.0061531581
 20
139.9754944053
 30
0.0
 40
0.5
  0
CIRCLE
  5
2A0
100
AcDbEntity
  8
2655_13R
390
0
  6
PHANTOM
100
AcDbCircle
 10
116.0061531581
 20
113.9754944053
 30
0.0
 40
1.0
  0
CIRCLE
  5
2A1
100
AcDbEntity
  8
2655_13L
390
0
  6
PHANTOM
100
AcDbCircle
 10
101.0061531581
 20
113.9754944053
 30
0.0
 40
1.0
  0
ARC
  5
2A2
100
AcDbEntity
  8
2655___ W-_ GSP-_ SIGNAL-ANTRIEB
390
0
  6
DASHDOT
100
AcDbCircle
 10
114.9045331231
 20
126.9761650034
 30
0.0
 40
19.0301742123
100
AcDbArc
 50
136.9143872695
 51
223.0856127305
  0
TEXT
  5
2A3
100
AcDbEntity
  8
BESCHRIFTUNG
390
0
100
AcDbText
 10
95.0038803089
 20
150.087258164
 30
0.0
 40
3.0
  1
2655.13
 41
1.1351393195
  7
Arial
 11
95.0038803089
 21
153.087258164
 31
0.0
100
AcDbText
 73
         3
  0
MTEXT
  5
2A4
100
AcDbEntity
  8
2655_13L
390
0
100
AcDbMText
 10
93.0110498467
 20
145.6781647995
 30
0.0
 40
2.0
 41
0.0
 71
         1
 72
         1
  1
\W0.810867;M15x15x2 F150\PT2 O2 S4 I1,2\PB-0,3     D1,5
  7
Arial
 73
         1
 44
0.66
  0
MTEXT
  5
2A5
100
AcDbEntity
  8
2655_13R
390
0
100
AcDbMText
 10
110.0782596379
 20
145.6781647995
 30
0.0
 40
2.0
 41
0.0
 71
         1
 72
         1
  1
\W0.810867;M15x15x2 F150\PT2 O2 S4 I1,2\PB-0,3     D1,5
  7
Arial
 73
         1
 44
0.66
  0
MTEXT
  5
2A6
100
AcDbEntity
  8
2655___ W-_ GSP-_ SIGNAL-ANTRIEB
390
0
100
AcDbMText
 10
95.7969643222
 20
129.7438233255
 30
0.0
 40
2.0
 41
0.0
 71
         5
 72
         1
  1
\W0.810848;>2655.13L\PM15x15x2\PT2 O2
  7
Arial
 73
         1
 44
0.66
  0
LINE
  5
2A7
100
AcDbEntity
  8
2655_13L
390
0
  6
DIVIDE
100
AcDbLine
 10
112.0241207376
 20
139.9754944053
 30
0.0
 11
101.0061531581
 21
139.9754944053
 31
0.0
  0
CIRCLE
  5
2A8
100
AcDbEntity
  8
2655_13R
390
0
100
AcDbCircle
 10
124.0061531581
 20
132.1154289854
 30
0.0
 40
1.25
  0
CIRCLE
  5
2A9
100
AcDbEntity
  8
2655_13R
390
0
100
AcDbCircle
 10
125.5061531581
 20
124.9154289854
 30
0.0
 40
1.25
  0
LINE
  5
2AA
100
AcDbEntity
  8
2655_13R
390
0
100
AcDbLine
 10
119.0061531581
 20
129.115428985
 30
0.0
 11
120.0061531581
 21
129.115428985
 31
0.0
  0
LINE
  5
2AB
100
AcDbEntity
  8
2655_3 DREHHEBEL
390
0
100
AcDbLine
 10
121.0061531581
 20
132.115428985
 30
0.0
 11
118.0061531581
 21
132.115428985
 31
0.0
  0
LINE
  5
2AC
100
AcDbEntity
  8
2655_13R
390
0
100
AcDbLine
 10
120.0061531581
 20
129.115428985
 30
0.0
 11
120.0061531581
 21
130.615428985
 31
0.0
  0
LINE
  5
2AD
100
AcDbEntity
  8
2655_3 DREHHEBEL
390
0
100
AcDbLine
 10
116.0061531581
 20
115.6154289853
 30
0.0
 11
116.0061531581
 21
138.9768356017
 31
0.0
  0
LINE
  5
2AE
100
AcDbEntity
  8
2655_13R
390
0
100
AcDbLine
 10
120.0061531581
 20
131.115428985
 30
0.0
 11
119.0061531581
 21
131.115428985
 31
0.0
  0
LINE
  5
2AF
100
AcDbEntity
  8
2655_3 DREHHEBEL
390
0
100
AcDbLine
 10
121.0061531581
 20
128.115428985
 30
0.0
 11
121.0061531581
 21
132.115428985
 31
0.0
  0
LINE
  5
2B0
100
AcDbEntity
  8
2655_3 DREHHEBEL
390
0
100
AcDbLine
 10
118.0061531581
 20
128.115428985
 30
0.0
 11
121.0061531581
 21
128.115428985
 31
0.0
  0
LINE
  5
2B1
100
AcDbEntity
  8
2655_3 DREHHEBEL
390
0
100
AcDbLine
 10
112.5298954561
 20
138.9768356022
 30
0.0
 11
128.0061531581
 21
138.9768356023
 31
0.0
  0
LINE
  5
2B2
100
AcDbEntity
  8
2655_3 DREHHEBEL
390
0
100
AcDbLine
 10
128.0061531581
 20
138.9768356023
 30
0.0
 11
128.0061531581
 21
115.6154289853
 31
0.0
  0
LINE
  5
2B3
100
AcDbEntity
  8
2655_3 DREHHEBEL
390
0
100
AcDbLine
 10
118.0061531581
 20
132.115428985
 30
0.0
 11
118.0061531581
 21
128.115428985
 31
0.0
  0
LINE
  5
2B4
100
AcDbEntity
  8
2655_13R
390
0
100
AcDbLine
 10
119.0061531581
 20
131.115428985
 30
0.0
 11
119.0061531581
 21
129.115428985
 31
0.0
  0
LINE
  5
2B5
100
AcDbEntity
  8
2655_13R
390
0
  6
DASHED
100
AcDbLine
 10
120.0061531581
 20
130.615428985
 30
0.0
 11
125.5061531581
 21
124.9154289854
 31
0.0
  0
LINE
  5
2B6
100
AcDbEntity
  8
2655_3 DREHHEBEL
390
0
100
AcDbLine
 10
128.0061531581
 20
115.6154289853
 30
0.0
 11
116.0061531581
 21
115.6154289853
 31
0.0
  0
LINE
  5
2B7
100
AcDbEntity
  8
2655_3 DREHHEBEL
390
0
  6
DASHED
100
AcDbLine
 10
114.0061531581
 20
115.4768356017
 30
0.0
 11
114.0061531582
 21
138.9768356017
 31
0.0
  0
LINE
  5
2B8
100
AcDbEntity
  8
2655_13L
390
0
100
AcDbLine
 10
99.9008238807
 20
123.5511305062
 30
0.0
 11
112.0241207376
 21
139.9754944053
 31
0.0
  0
ARC
  5
2B9
100
AcDbEntity
  8
2655_13L
390
0
100
AcDbCircle
 10
114.0061531582
 20
129.9768356017
 30
0.0
 40
15.5
100
AcDbArc
 50
204.4917125838
 51
277.928141766
  0
LINE
  5
2BA
100
AcDbEntity
  8
2655_13L
390
0
100
AcDbLine
 10
105.6731355486
 20
122.178706498
 30
0.0
 11
109.956438384
 21
123.2697142658
 31
0.0
  0
LINE
  5
2BB
100
AcDbEntity
  8
2655_13L
390
0
100
AcDbLine
 10
105.4263048831
 20
123.147765125
 30
0.0
 11
110.070899405
 21
124.330798148
 31
0.0
  0
ARC
  5
2BC
100
AcDbEntity
  8
2655_13L
390
0
100
AcDbCircle
 10
105.5497202158
 20
122.6632358115
 30
0.0
 40
0.5
100
AcDbArc
 50
104.290046219
 51
284.290046219
  0
ARC
  5
2BD
100
AcDbEntity
  8
2655_13L
390
0
100
AcDbCircle
 10
111.6291666784
 20
119.0520960041
 30
0.0
 40
0.5
100
AcDbArc
 50
194.290046219
 51
374.290046219
  0
LINE
  5
2BE
100
AcDbEntity
  8
2655_13L
390
0
100
AcDbLine
 10
110.4854949209
 20
121.5164777365
 30
0.0
 11
111.1446373649
 21
118.9286806713
 31
0.0
  0
LINE
  5
2BF
100
AcDbEntity
  8
2655_13L
390
0
100
AcDbLine
 10
112.1136959919
 20
119.1755113369
 30
0.0
 11
110.9306629689
 21
123.8201058588
 31
0.0
  0
ARC
  5
2C0
100
AcDbEntity
  8
2655_13L
390
0
100
AcDbCircle
 10
111.6953023096
 20
126.0864589433
 30
0.0
 40
0.5
100
AcDbArc
 50
329.2900462187
 51
509.2900462186
  0
LINE
  5
2C1
100
AcDbEntity
  8
2655_13L
390
0
100
AcDbLine
 10
110.070899405
 20
124.330798148
 30
0.0
 11
111.2654205277
 21
126.3418050878
 31
0.0
  0
LINE
  5
2C2
100
AcDbEntity
  8
2655_13L
390
0
100
AcDbLine
 10
112.1251840916
 20
125.8311127987
 30
0.0
 11
110.9306629689
 21
123.8201058588
 31
0.0
  0
CIRCLE
  5
2C3
100
AcDbEntity
  8
2655_13L
390
0
100
AcDbCircle
 10
114.0061531582
 20
129.9768356017
 30
0.0
 40
1.25
  0
CIRCLE
  5
2C4
100
AcDbEntity
  8
2655_13L
390
0
  6
DIVIDE
100
AcDbCircle
 10
113.015101884
 20
132.8084106708
 30
0.0
 40
1.0
  0
CIRCLE
  5
2C5
100
AcDbEntity
  8
2655_13L
390
0
  6
DIVIDE
100
AcDbCircle
 10
113.0061531582
 20
135.8929153848
 30
0.0
 40
1.0
  0
LINE
  5
2C6
100
AcDbEntity
  8
2655_13R
390
0
  6
DIVIDE
100
AcDbLine
 10
116.0061531581
 20
139.9754944045
 30
0.0
 11
129.0061531581
 21
139.9768356023
 31
0.0
  0
LINE
  5
2C7
100
AcDbEntity
  8
2655_13R
390
0
100
AcDbLine
 10
129.0061531581
 20
139.9768356023
 30
0.0
 11
129.0061531581
 21
114.6154289853
 31
0.0
  0
LINE
  5
2C8
100
AcDbEntity
  8
2655_13R
390
0
  6
DIVIDE
100
AcDbLine
 10
129.0061531581
 20
114.6154289853
 30
0.0
 11
116.0061531581
 21
114.6154289853
 31
0.0
  0
LINE
  5
2C9
100
AcDbEntity
  8
2655_13R
390
0
  6
DASHED
100
AcDbLine
 10
124.0061531581
 20
132.1154289854
 30
0.0
 11
120.0061531581
 21
131.115428985
 31
0.0
  0
LINE
  5
2CA
100
AcDbEntity
  8
2655_13R
390
0
  6
DASHED
100
AcDbLine
 10
116.0061531581
 20
114.6154289853
 30
0.0
 11
125.5061531581
 21
124.9154289854
 31
0.0
  0
LINE
  5
2CB
100
AcDbEntity
  8
2655_13R
390
0
  6
DASHED
100
AcDbLine
 10
124.0061531581
 20
132.1154289854
 30
0.0
 11
116.0061531581
 21
113.9754944053
 31
0.0
  0
LINE
  5
2CC
100
AcDbEntity
  8
2655_13L
390
0
  6
DASHED
100
AcDbLine
 10
116.1440841926
 20
114.6249871497
 30
0.0
 11
108.0239120375
 21
122.7745799223
 31
0.0
  0
LINE
  5
2CD
100
AcDbEntity
  8
2655_13L
390
0
  6
DASHED
100
AcDbLine
 10
109.956438384
 20
123.2697142658
 30
0.0
 11
114.0061531582
 21
129.9768356017
 31
0.0
  0
LINE
  5
2CE
100
AcDbEntity
  8
2655_13L
390
0
  6
DASHED
100
AcDbLine
 10
114.0061531582
 20
129.9768356017
 30
0.0
 11
113.015101884
 21
132.8084106708
 31
0.0
  0
LINE
  5
2CF
100
AcDbEntity
  8
2655_13L
390
0
  6
DASHED
100
AcDbLine
 10
113.015101884
 20
132.8084106708
 30
0.0
 11
113.0061531582
 21
135.8929153848
 31
0.0
  0
ARC
  5
2D0
100
AcDbEntity
  8
2655_13L
390
0
  6
DASHED
100
AcDbCircle
 10
117.7818211031
 20
125.0505011847
 30
0.0
 40
11.8475714814
100
AcDbArc
 50
113.771652385
 51
249.1762016072
  0
LINE
  5
2D1
100
AcDbEntity
  8
2655_13L
390
0
  6
DIVIDE
100
AcDbLine
 10
113.570066058
 20
113.9768356015
 30
0.0
 11
101.0061531581
 21
113.9754944053
 31
0.0
  0
INSERT
  5
2D2
100
AcDbEntity
  8
BEMAßUNG
390
0
100
AcDbBlockReference
  2
D337107456
 10
0.0
 20
0.0
 30
0.0
  0
CIRCLE
  5
2D3
100
AcDbEntity
  8
2655_5L
390
0
100
AcDbCircle
 10
111.0061531581
 20
85.6337426191
 30
0.0
 40
1.25
  0
LINE
  5
2D4
100
AcDbEntity
  8
2655_5L
390
0
  6
DASHED
100
AcDbLine
 10
111.0061531581
 20
85.6337426191
 30
0.0
 11
111.0061531581
 21
79.1337426191
 31
0.0
  0
ARC
  5
2D5
100
AcDbEntity
  8
2655_3 DREHHEBEL
390
0
100
AcDbCircle
 10
108.6398881507
 20
120.9425908597
 30
0.0
 40
0.9327727486
100
AcDbArc
 50
9.9957228529
 51
108.5843695851
  0
ARC
  5
2D6
100
AcDbEntity
  8
2655_13L
390
0
100
AcDbCircle
 10
108.6398881507
 20
120.9425908597
 30
0.0
 40
1.9327727486
100
AcDbArc
 50
17.2729528697
 51
108.5843695851
  0
ARC
  5
2D7
100
AcDbEntity
  8
2655___ W-_ GSP-_ SIGNAL-ANTRIEB
390
0
  6
DASHDOT
100
AcDbCircle
 10
-7.2993536831
 20
151.1623509338
 30
0.0
 40
19.0301742123
100
AcDbArc
 50
136.9143872695
 51
223.0856127305
  0
MTEXT
  5
2D8
100
AcDbEntity
  8
2655___ W-_ GSP-_ SIGNAL-ANTRIEB
390
0
100
AcDbMText
 10
-26.406922484
 20
153.9300092559
 30
0.0
 40
2.0
 41
0.0
 71
         5
 72
         1
  1
\W0.810848;>2655.13L\PM15x15x2\PT2 O2
  7
Arial
 73
         1
 44
0.66
  0
INSERT
  5
2D9
100
AcDbEntity
  8
BEMAßUNG
390
0
100
AcDbBlockReference
  2
D406246400
 10
0.0
 20
0.0
 30
0.0
  0
INSERT
  5
2DA
100
AcDbEntity
  8
BEMAßUNG
390
0
100
AcDbBlockReference
  2
D197634304
 10
0.0
 20
0.0
 30
0.0
  0
ARC
  5
2DB
100
AcDbEntity
  8
2655_6Q
390
0
  6
DASHDOT
100
AcDbCircle
 10
171.0983145523
 20
46.1895563651
 30
0.0
 40
10.6135292655
100
AcDbArc
 50
136.9143872695
 51
223.0856127305
  0
MTEXT
  5
2DC
100
AcDbEntity
  8
2655_6Q
390
0
100
AcDbMText
 10
161.7911463533
 20
45.7040548006
 30
0.0
 40
1.5
 41
0.0
 71
         5
 72
         1
  1
\W0.648575;>2655.6P\PM10+x5\PT5 O2
  7
Arial
 73
         1
 44
0.66
  0
ARC
  5
2DD
100
AcDbEntity
  8
2655_6Q
390
0
  6
DASHDOT
100
AcDbCircle
 10
179.0983145523
 20
46.1895563651
 30
0.0
 40
10.6135292655
100
AcDbArc
 50
136.9143872695
 51
223.0856127305
  0
MTEXT
  5
2DE
100
AcDbEntity
  8
2655_6Q
390
0
100
AcDbMText
 10
169.7911463533
 20
45.7040548006
 30
0.0
 40
1.5
 41
0.0
 71
         5
 72
         1
  1
\W0.648575;>2655.6P\PM10+x5\PT5 O2
  7
Arial
 73
         1
 44
0.66
  0
LINE
  5
2DF
100
AcDbEntity
  8
2655_6Q
390
0
  6
HIDDEN
100
AcDbLine
 10
163.3468951036
 20
38.9395563651
 30
0.0
 11
171.3468951036
 21
53.4395563651
 31
0.0
  0
LINE
  5
2E0
100
AcDbEntity
  8
2655_6Q
390
0
  6
HIDDEN
100
AcDbLine
 10
171.3468951036
 20
38.9395563651
 30
0.0
 11
179.3468951036
 21
53.4395563651
 31
0.0
  0
CIRCLE
  5
2E1
100
AcDbEntity
  8
2655_6Q
390
0
  6
PHANTOM
100
AcDbCircle
 10
163.3468951036
 20
53.4395563651
 30
0.0
 40
0.5
  0
CIRCLE
  5
2E2
100
AcDbEntity
  8
2655_6Q
390
0
  6
PHANTOM
100
AcDbCircle
 10
179.3468951036
 20
53.4395563651
 30
0.0
 40
1.0
  0
MTEXT
  5
2E3
100
AcDbEntity
  8
2655___ W-_ GSP-_ SIGNAL-ANTRIEB
390
0
100
AcDbMText
 10
173.3548579645
 20
54.1026763046
 30
0.0
 40
2.0
 41
0.0
 71
         5
 72
         1
  1
\W0.810846;>2655.6Q\PM50+x5\PT5 O2
  7
Arial
 73
         1
 44
0.66
  0
ARC
  5
2E4
100
AcDbEntity
  8
2655___ W-_ GSP-_ SIGNAL-ANTRIEB
390
0
  6
DASHDOT
100
AcDbCircle
 10
171.3468951036
 20
36.9523404596
 30
0.0
 40
18.3256183611
100
AcDbArc
 50
64.116205361
 51
115.883794639
  0
MTEXT
  5
2E5
100
AcDbEntity
  8
2655___ W-_ GSP-_ SIGNAL-ANTRIEB
390
0
100
AcDbMText
 10
-25.3771039127
 20
88.9319892109
 30
0.0
 40
2.0
 41
0.0
 71
         5
 72
         1
  1
\W0.810846;>2655.6Q\PM50+x5\PT5 O2
  7
Arial
 73
         1
 44
0.66
  0
ARC
  5
2E6
100
AcDbEntity
  8
2655___ W-_ GSP-_ SIGNAL-ANTRIEB
390
0
  6
DASHDOT
100
AcDbCircle
 10
-27.3850667736
 20
71.7816533659
 30
0.0
 40
18.3256183611
100
AcDbArc
 50
64.116205361
 51
115.883794639
  0
MTEXT
  5
2E7
100
AcDbEntity
  8
2655_6Q
390
0
100
AcDbMText
 10
162.5562172751
 20
55.0626693076
 30
0.0
 40
2.0
 41
0.0
 71
         5
 72
         1
  1
\W0.648577;M20+x5 F150\PT5 O2 S6 I1,2\PB-0,5   D3
  7
Arial
 73
         1
 44
0.66
  0
LINE
  5
2E8
100
AcDbEntity
  8
STANDARD
390
0
100
AcDbLine
 10
292.0
 20
200.0
 30
0.0
 11
5.0
 21
200.0
 31
0.0
  0
LINE
  5
2E9
100
AcDbEntity
  8
STANDARD
390
0
100
AcDbLine
 10
10.0
 20
195.0
 30
0.0
 11
10.0
 21
5.0
 31
0.0
  0
LINE
  5
2EA
100
AcDbEntity
  8
STANDARD
390
0
100
AcDbLine
 10
5.0
 20
200.0
 30
0.0
 11
5.0
 21
195.0
 31
0.0
  0
LINE
  5
2EB
100
AcDbEntity
  8
STANDARD
390
0
100
AcDbLine
 10
292.0
 20
200.0
 30
0.0
 11
292.0
 21
195.0
 31
0.0
  0
LINE
  5
2EC
100
AcDbEntity
  8
STANDARD
390
0
100
AcDbLine
 10
52.8333333333
 20
200.0
 30
0.0
 11
52.8333333333
 21
195.0
 31
0.0
  0
LINE
  5
2ED
100
AcDbEntity
  8
STANDARD
390
0
100
AcDbLine
 10
100.6666666667
 20
200.0
 30
0.0
 11
100.6666666667
 21
195.0
 31
0.0
  0
LINE
  5
2EE
100
AcDbEntity
  8
STANDARD
390
0
100
AcDbLine
 10
148.5
 20
200.0
 30
0.0
 11
148.5
 21
195.0
 31
0.0
  0
LINE
  5
2EF
100
AcDbEntity
  8
STANDARD
390
0
100
AcDbLine
 10
196.3333333333
 20
200.0
 30
0.0
 11
196.3333333333
 21
195.0
 31
0.0
  0
LINE
  5
2F0
100
AcDbEntity
  8
STANDARD
390
0
100
AcDbLine
 10
244.1666666667
 20
200.0
 30
0.0
 11
244.1666666667
 21
195.0
 31
0.0
  0
LINE
  5
2F1
100
AcDbEntity
  8
STANDARD
390
0
100
AcDbLine
 10
5.0
 20
52.5
 30
0.0
 11
10.0
 21
52.5
 31
0.0
  0
LINE
  5
2F2
100
AcDbEntity
  8
STANDARD
390
0
100
AcDbLine
 10
5.0
 20
100.0
 30
0.0
 11
10.0
 21
100.0
 31
0.0
  0
LINE
  5
2F3
100
AcDbEntity
  8
STANDARD
390
0
100
AcDbLine
 10
5.0
 20
147.5
 30
0.0
 11
10.0
 21
147.5
 31
0.0
  0
TEXT
  5
2F4
100
AcDbEntity
  8
STANDARD
390
0
100
AcDbText
 10
27.6214908115
 20
196.4732039063
 30
0.0
 40
2.23125
  1
1
 41
1.5479225906
  7
Arial
 72
         1
 11
28.9166666667
 21
196.4732039063
 31
0.0
100
AcDbText
  0
TEXT
  5
2F5
100
AcDbEntity
  8
STANDARD
390
0
100
AcDbText
 10
75.0230999712
 20
196.4732039063
 30
0.0
 40
2.23125
  1
2
 41
1.5479215945
  7
Arial
 72
         1
 11
76.75
 21
196.4732039063
 31
0.0
100
AcDbText
  0
TEXT
  5
2F6
100
AcDbEntity
  8
STANDARD
390
0
100
AcDbText
 10
122.8564319709
 20
196.4732039063
 30
0.0
 40
2.23125
  1
3
 41
1.5479227899
  7
Arial
 72
         1
 11
124.5833333333
 21
196.4732039063
 31
0.0
100
AcDbText
  0
TEXT
  5
2F7
100
AcDbEntity
  8
STANDARD
390
0
100
AcDbText
 10
170.6897655265
 20
196.4732039063
 30
0.0
 40
2.23125
  1
4
 41
1.5479225906
  7
Arial
 72
         1
 11
172.4166666667
 21
196.4732039063
 31
0.0
100
AcDbText
  0
TEXT
  5
2F8
100
AcDbEntity
  8
STANDARD
390
0
100
AcDbText
 10
218.5230997489
 20
196.4732039063
 30
0.0
 40
2.23125
  1
5
 41
1.5479217937
  7
Arial
 72
         1
 11
220.25
 21
196.4732039063
 31
0.0
100
AcDbText
  0
TEXT
  5
2F9
100
AcDbEntity
  8
STANDARD
390
0
100
AcDbText
 10
266.3564321932
 20
196.4732039063
 30
0.0
 40
2.23125
  1
6
 41
1.5479225906
  7
Arial
 72
         1
 11
268.0833333333
 21
196.4732039063
 31
0.0
100
AcDbText
  0
TEXT
  5
2FA
100
AcDbEntity
  8
STANDARD
390
0
100
AcDbText
 10
5.773027185
 20
172.7232039063
 30
0.0
 40
2.23125
  1
A
 41
1.547986837
  7
Arial
 72
         1
 11
7.5
 21
172.7232039063
 31
0.0
100
AcDbText
  0
TEXT
  5
2FB
100
AcDbEntity
  8
STANDARD
390
0
100
AcDbText
 10
5.7730267401
 20
125.2232039063
 30
0.0
 40
2.23125
  1
B
 41
1.5479872357
  7
Arial
 72
         1
 11
7.5
 21
125.2232039063
 31
0.0
100
AcDbText
  0
TEXT
  5
2FC
100
AcDbEntity
  8
STANDARD
390
0
100
AcDbText
 10
5.7728972752
 20
77.7232039063
 30
0.0
 40
2.23125
  1
C
 41
1.5481032827
  7
Arial
 72
         1
 11
7.5
 21
77.7232039063
 31
0.0
100
AcDbText
  0
TEXT
  5
2FD
100
AcDbEntity
  8
STANDARD
390
0
100
AcDbText
 10
5.7728964192
 20
30.2232039062
 30
0.0
 40
2.23125
  1
D
 41
1.54810405
  7
Arial
 72
         1
 11
7.5
 21
30.2232039062
 31
0.0
100
AcDbText
  0
LINE
  5
2FE
100
AcDbEntity
  8
STANDARD
390
0
100
AcDbLine
 10
5.0
 20
5.0
 30
0.0
 11
10.0
 21
5.0
 31
0.0
  0
LINE
  5
2FF
100
AcDbEntity
  8
STANDARD
390
0
100
AcDbLine
 10
292.0
 20
5.0
 30
0.0
 11
292.0
 21
195.0
 31
0.0
  0
LINE
  5
300
100
AcDbEntity
  8
STANDARD
390
0
100
AcDbLine
 10
292.0
 20
195.0
 30
0.0
 11
10.0
 21
195.0
 31
0.0
  0
LINE
  5
301
100
AcDbEntity
  8
STANDARD
390
0
100
AcDbLine
 10
5.0
 20
195.0
 30
0.0
 11
5.0
 21
5.0
 31
0.0
  0
LINE
  5
302
100
AcDbEntity
  8
STANDARD
390
0
100
AcDbLine
 10
296.0
 20
209.0
 30
0.0
 11
1.0
 21
209.0
 31
0.0
  0
LINE
  5
303
100
AcDbEntity
  8
STANDARD
390
0
100
AcDbLine
 10
296.0
 20
1.0
 30
0.0
 11
296.0
 21
209.0
 31
0.0
  0
LINE
  5
304
100
AcDbEntity
  8
STANDARD
390
0
100
AcDbLine
 10
1.0
 20
1.0
 30
0.0
 11
296.0
 21
1.0
 31
0.0
  0
LINE
  5
305
100
AcDbEntity
  8
STANDARD
390
0
100
AcDbLine
 10
1.0
 20
209.0
 30
0.0
 11
1.0
 21
1.0
 31
0.0
  0
LINE
  5
306
100
AcDbEntity
  8
STANDARD
390
0
100
AcDbLine
 10
10.0
 20
195.0
 30
0.0
 11
5.0
 21
195.0
 31
0.0
  0
LINE
  5
307
100
AcDbEntity
  8
STANDARD
390
0
100
AcDbLine
 10
10.0
 20
5.0
 30
0.0
 11
292.0
 21
5.0
 31
0.0
  0
MTEXT
  5
308
100
AcDbEntity
  8
STANDARD
390
0
100
AcDbMText
 10
215.5777227339
 20
6.520569157
 30
0.0
 40
1.59375
 41
0.0
 71
         7
 72
         1
  1

  7
Arial
 73
         1
 44
1.0352941176
  0
MTEXT
  5
309
100
AcDbEntity
  8
STANDARD
390
0
100
AcDbMText
 10
269.4128856935
 20
6.5165742187
 30
0.0
 40
1.59375
 41
0.0
 71
         7
 72
         1
  1

  7
Arial
 73
         1
 44
1.0352941176
  0
MTEXT
  5
30A
100
AcDbEntity
  8
STANDARD
390
0
100
AcDbMText
 10
171.2439051502
 20
6.520569157
 30
0.0
 40
1.59375
 41
0.0
 71
         7
 72
         1
  1

  7
Arial
 73
         1
 44
1.0352941176
  0
TEXT
  5
30B
100
AcDbEntity
  8
BESCHRIFTUNG
390
0
100
AcDbText
 10
169.1145333333
 20
29.1136
 30
0.0
 40
3.325
  1
Stellwerk HMM
 41
1.3653781858
 51
15.0
  7
Arial
 11
169.1145333333
 21
32.4386
 31
0.0
100
AcDbText
 73
         3
  0
TEXT
  5
30C
100
AcDbEntity
  8
BESCHRIFTUNG
390
0
100
AcDbText
 10
215.5344888889
 20
21.6351111111
 30
0.0
 40
3.325
  1
W-, Gsp- und Signal-Antrieb 
 41
1.1216077706
 51
15.0
  7
Arial
 11
215.5344888889
 21
24.9601111111
 31
0.0
100
AcDbText
 73
         3
  0
TEXT
  5
30D
100
AcDbEntity
  8
BESCHRIFTUNG
390
0
100
AcDbText
 10
169.1145333333
 20
6.8980888889
 30
0.0
 40
3.325
  1
Dateiname
 41
1.1350744463
 51
15.0
  7
Arial
 11
169.1145333333
 21
10.2230888889
 31
0.0
100
AcDbText
 73
         3
  0
TEXT
  5
30E
100
AcDbEntity
  8
BESCHRIFTUNG
390
0
100
AcDbText
 10
169.3344888889
 20
21.6351111111
 30
0.0
 40
3.325
  1
Bl. 2655 Ph
 41
1.1349346109
 51
15.0
  7
Arial
 11
169.3344888889
 21
24.9601111111
 31
0.0
100
AcDbText
 73
         3
  0
TEXT
  5
30F
100
AcDbEntity
  8
BESCHRIFTUNG
390
0
100
AcDbText
 10
253.1145333333
 20
29.1136
 30
0.0
 40
3.325
  1
Maßstab 1:1
 41
1.1349345608
 51
15.0
  7
Arial
 11
253.1145333333
 21
32.4386
 31
0.0
100
AcDbText
 73
         3
  0
LINE
  5
310
100
AcDbEntity
  8
STANDARD
370
         0
390
0
100
AcDbLine
 10
168.0194301994
 20
34.4
 30
0.0
 11
291.9134472934
 21
34.4
 31
0.0
  0
LINE
  5
311
100
AcDbEntity
  8
STANDARD
370
         0
390
0
100
AcDbLine
 10
168.0194301994
 20
27.4
 30
0.0
 11
291.9134472934
 21
27.4
 31
0.0
  0
LINE
  5
312
100
AcDbEntity
  8
STANDARD
370
         0
390
0
100
AcDbLine
 10
168.0194301994
 20
12.0
 30
0.0
 11
291.9134472934
 21
12.0
 31
0.0
  0
LINE
  5
313
100
AcDbEntity
  8
STANDARD
370
         0
390
0
100
AcDbLine
 10
168.0194301994
 20
34.4
 30
0.0
 11
168.0194301994
 21
5.0
 31
0.0
  0
LINE
  5
314
100
AcDbEntity
  8
STANDARD
370
         0
390
0
100
AcDbLine
 10
214.2194301994
 20
34.4
 30
0.0
 11
214.2194301994
 21
5.0
 31
0.0
  0
LINE
  5
315
100
AcDbEntity
  8
STANDARD
370
         0
390
0
100
AcDbLine
 10
252.0194301994
 20
34.4
 30
0.0
 11
252.0194301994
 21
27.4
 31
0.0
  0
ENDSEC
  0
SECTION
  2
OBJECTS
  0
DICTIONARY
  5
19
100
AcDbDictionary
280
         0
281
         1
  3
ACAD_GROUP
350
1A
  3
ACAD_MLINESTYLE
350
1B
  3
ACAD_LAYOUT
350
1E
  3
ACAD_PLOTSETTINGS
350
22
  3
ACAD_PLOTSTYLENAME
350
1F
  3
ACAD_WIPEOUT_VARS
350
23
  0
DICTIONARY
  5
1A
102
{ACAD_REACTORS
330
19
102
}
100
AcDbDictionary
280
         0
281
         1
  0
DICTIONARY
  5
1B
102
{ACAD_REACTORS
330
19
102
}
100
AcDbDictionary
280
         0
281
         1
  3
Standard
350
1C
  0
MLINESTYLE
  5
1C
102
{ACAD_REACTORS
330
1B
102
}
100
AcDbMlineStyle
  2
Standard
 70
         0
  3

 62
         0
 51
90.0
 52
90.0
 71
         2
 49
0.5
 62
       256
  6
ByLayer
 49
-0.5
 62
       256
  6
ByLayer
  0
ACDBDICTIONARYWDFLT
  5
1F
102
{ACAD_REACTORS
330
19
102
}
100
AcDbDictionary
281
         1
  3
Normal
350
1D
100
AcDbDictionaryWithDefault
340
1D
  0
ACDBPLACEHOLDER
  5
1D
102
{ACAD_REACTORS
330
1F
102
}
  0
LAYOUT
  5
20
102
{ACAD_REACTORS
330
1E
102
}
100
AcDbPlotSettings
  1

  2

  4

  6

 40
0.0
 41
0.0
 42
0.0
 43
0.0
 44
0.0
 45
0.0
 46
0.0
 47
0.0
 48
0.0
 49
0.0
140
0.0
141
0.0
142
1.0
143
1.0
 70
      1024
 72
         0
 73
         0
 74
         0
  7

 75
         0
147
1.0
148
0.0
149
0.0
100
AcDbLayout
  1
Model
 70
         0
 71
         0
 10
0.0
 20
0.0
 11
0.0
 21
0.0
 12
0.0
 22
0.0
 32
0.0
 14
0.0
 24
0.0
 34
0.0
 15
0.0
 25
0.0
 35
0.0
146
0.0
 13
0.0
 23
0.0
 33
0.0
 16
0.0
 26
0.0
 36
0.0
 17
0.0
 27
0.0
 37
0.0
 76
         0
330
A
331
0
345
0
346
0
  0
LAYOUT
  5
21
102
{ACAD_REACTORS
330
1E
102
}
100
AcDbPlotSettings
  1

  2

  4

  6

 40
0.0
 41
0.0
 42
0.0
 43
0.0
 44
0.0
 45
0.0
 46
0.0
 47
0.0
 48
0.0
 49
0.0
140
0.0
141
0.0
142
1.0
143
1.0
 70
         0
 72
         0
 73
         0
 74
         0
  7

 75
         0
147
1.0
148
0.0
149
0.0
100
AcDbLayout
  1
Layout1
 70
         0
 71
         0
 10
0.0
 20
0.0
 11
0.0
 21
0.0
 12
0.0
 22
0.0
 32
0.0
 14
0.0
 24
0.0
 34
0.0
 15
0.0
 25
0.0
 35
0.0
146
0.0
 13
0.0
 23
0.0
 33
0.0
 16
0.0
 26
0.0
 36
0.0
 17
0.0
 27
0.0
 37
0.0
 76
         0
330
B
331
0
345
0
346
0
  0
DICTIONARY
  5
1E
102
{ACAD_REACTORS
330
19
102
}
100
AcDbDictionary
280
         0
281
         1
  3
Layout1
350
21
  3
Model
350
20
  0
DICTIONARY
  5
22
102
{ACAD_REACTORS
330
19
102
}
100
AcDbDictionary
280
         0
281
         1
  0
WIPEOUTVARIABLES
  5
23
100
AcDbWipeoutVariables
 70
         1
  0
ENDSEC
  0
EOF
