  0
SECTION
  2
HEADER
  9
$ACADVER
  1
AC1015
  9
$ACADMAINTVER
 70
         6
  9
$DWGCODEPAGE
  3
ANSI_1252
  9
$INSBASE
 10
0.0
 20
0.0
 30
0.0
  9
$EXTMIN
 10
0.0
 20
-150.5615386963
 30
0.0
  9
$EXTMAX
 10
314.9122314453
 20
210.0
 30
0.0
  9
$LIMMIN
 10
0.0
 20
-150.5615386963
  9
$LIMMAX
 10
314.9122314453
 20
210.0
  9
$ORTHOMODE
 70
         0
  9
$REGENMODE
 70
         1
  9
$FILLMODE
 70
         1
  9
$QTEXTMODE
 70
         0
  9
$MIRRTEXT
 70
         1
  9
$LTSCALE
 40
7.8728057861
  9
$ATTMODE
 70
         1
  9
$TEXTSIZE
 40
0.2
  9
$TRACEWID
 40
0.05
  9
$TEXTSTYLE
  7
Standard
  9
$CLAYER
  8
0
  9
$CELTYPE
  6
CONTINUOUS
  9
$CECOLOR
 62
       256
  9
$CELTSCALE
 40
1.0
  9
$DISPSILH
 70
         0
  9
$DIMSCALE
 40
1.0
  9
$DIMASZ
 40
0.18
  9
$DIMEXO
 40
0.0625
  9
$DIMDLI
 40
0.38
  9
$DIMRND
 40
0.0
  9
$DIMDLE
 40
0.0
  9
$DIMEXE
 40
0.18
  9
$DIMTP
 40
0.0
  9
$DIMTM
 40
0.0
  9
$DIMTXT
 40
3.0
  9
$DIMCEN
 40
0.09
  9
$DIMTSZ
 40
0.0
  9
$DIMTOL
 70
         0
  9
$DIMLIM
 70
         0
  9
$DIMTIH
 70
         1
  9
$DIMTOH
 70
         1
  9
$DIMSE1
 70
         0
  9
$DIMSE2
 70
         0
  9
$DIMTAD
 70
         1
  9
$DIMZIN
 70
         0
  9
$DIMBLK
  1

  9
$DIMASO
 70
         1
  9
$DIMSHO
 70
         1
  9
$DIMPOST
  1
<>
  9
$DIMAPOST
  1

  9
$DIMALT
 70
         0
  9
$DIMALTD
 70
         2
  9
$DIMALTF
 40
25.4
  9
$DIMLFAC
 40
1.0
  9
$DIMTOFL
 70
         0
  9
$DIMTVP
 40
0.0
  9
$DIMTIX
 70
         0
  9
$DIMSOXD
 70
         0
  9
$DIMSAH
 70
         0
  9
$DIMBLK1
  1

  9
$DIMBLK2
  1

  9
$DIMSTYLE
  2
Standard
  9
$DIMCLRD
 70
         0
  9
$DIMCLRE
 70
         0
  9
$DIMCLRT
 70
         0
  9
$DIMTFAC
 40
1.0
  9
$DIMGAP
 40
0.09
  9
$DIMJUST
 70
         0
  9
$DIMSD1
 70
         0
  9
$DIMSD2
 70
         0
  9
$DIMTOLJ
 70
         1
  9
$DIMTZIN
 70
         0
  9
$DIMALTZ
 70
         0
  9
$DIMALTTZ
 70
         0
  9
$DIMUPT
 70
         0
  9
$DIMDEC
 70
         4
  9
$DIMTDEC
 70
         4
  9
$DIMALTU
 70
         2
  9
$DIMALTTD
 70
         2
  9
$DIMTXSTY
  7
Standard
  9
$DIMAUNIT
 70
         0
  9
$DIMADEC
 70
         0
  9
$DIMALTRND
 40
0.0
  9
$DIMAZIN
 70
         0
  9
$DIMDSEP
 70
         0
  9
$DIMATFIT
 70
         3
  9
$DIMFRAC
 70
         0
  9
$DIMLDRBLK
  1

  9
$DIMLUNIT
 70
         2
  9
$DIMLWD
 70
         0
  9
$DIMLWE
 70
         0
  9
$DIMTMOVE
 70
         0
  9
$LUNITS
 70
         2
  9
$LUPREC
 70
         4
  9
$SKETCHINC
 40
0.1
  9
$FILLETRAD
 40
0.0
  9
$AUNITS
 70
         0
  9
$AUPREC
 70
         0
  9
$MENU
  1
acad
  9
$ELEVATION
 40
0.0
  9
$PELEVATION
 40
0.0
  9
$THICKNESS
 40
0.0
  9
$LIMCHECK
 70
         0
  9
$CHAMFERA
 40
0.0
  9
$CHAMFERB
 40
0.0
  9
$CHAMFERC
 40
0.0
  9
$CHAMFERD
 40
0.0
  9
$SKPOLY
 70
         0
  9
$TDCREATE
 40
0.000000000
  9
$TDUCREATE
 40
0.000000000
  9
$TDUPDATE
 40
0.000000000
  9
$TDUUPDATE
 40
0.000000000
  9
$TDINDWG
 40
0.0000000000
  9
$TDUSRTIMER
 40
0.0000000000
  9
$USRTIMER
 70
         1
  9
$ANGBASE
 50
0.0
  9
$ANGDIR
 70
         0
  9
$PDMODE
 70
         0
  9
$PDSIZE
 40
0.0
  9
$PLINEWID
 40
0.0
  9
$SPLFRAME
 70
         0
  9
$SPLINETYPE
 70
         6
  9
$SPLINESEGS
 70
         8
  9
$HANDSEED
  5
2B3
  9
$SURFTAB1
 70
         6
  9
$SURFTAB2
 70
         6
  9
$SURFTYPE
 70
         6
  9
$SURFU
 70
         6
  9
$SURFV
 70
         6
  9
$UCSBASE
  2

  9
$UCSNAME
  2

  9
$UCSORG
 10
0.0
 20
0.0
 30
0.0
  9
$UCSXDIR
 10
1.0
 20
0.0
 30
0.0
  9
$UCSYDIR
 10
0.0
 20
1.0
 30
0.0
  9
$UCSORTHOREF
  2

  9
$UCSORTHOVIEW
 70
         0
  9
$UCSORGTOP
 10
0.0
 20
0.0
 30
0.0
  9
$UCSORGBOTTOM
 10
0.0
 20
0.0
 30
0.0
  9
$UCSORGLEFT
 10
0.0
 20
0.0
 30
0.0
  9
$UCSORGRIGHT
 10
0.0
 20
0.0
 30
0.0
  9
$UCSORGFRONT
 10
0.0
 20
0.0
 30
0.0
  9
$UCSORGBACK
 10
0.0
 20
0.0
 30
0.0
  9
$PUCSBASE
  2

  9
$PUCSNAME
  2

  9
$PUCSORG
 10
0.0
 20
0.0
 30
0.0
  9
$PUCSXDIR
 10
1.0
 20
0.0
 30
0.0
  9
$PUCSYDIR
 10
0.0
 20
1.0
 30
0.0
  9
$PUCSORTHOREF
  2

  9
$PUCSORTHOVIEW
 70
         0
  9
$PUCSORGTOP
 10
0.0
 20
0.0
 30
0.0
  9
$PUCSORGBOTTOM
 10
0.0
 20
0.0
 30
0.0
  9
$PUCSORGLEFT
 10
0.0
 20
0.0
 30
0.0
  9
$PUCSORGRIGHT
 10
0.0
 20
0.0
 30
0.0
  9
$PUCSORGFRONT
 10
0.0
 20
0.0
 30
0.0
  9
$PUCSORGBACK
 10
0.0
 20
0.0
 30
0.0
  9
$USERI1
 70
         0
  9
$USERI2
 70
         0
  9
$USERI3
 70
         0
  9
$USERI4
 70
         0
  9
$USERI5
 70
         0
  9
$USERR1
 40
0.0
  9
$USERR2
 40
0.0
  9
$USERR3
 40
0.0
  9
$USERR4
 40
0.0
  9
$USERR5
 40
0.0
  9
$WORLDVIEW
 70
         1
  9
$SHADEDGE
 70
         3
  9
$SHADEDIF
 70
        70
  9
$TILEMODE
 70
         1
  9
$MAXACTVP
 70
        16
  9
$PINSBASE
 10
0.0
 20
0.0
 30
0.0
  9
$PLIMCHECK
 70
         0
  9
$PEXTMIN
 10
1.0000000000E+20
 20
1.0000000000E+20
 30
1.0000000000E+20
  9
$PEXTMAX
 10
-1.0000000000E+20
 20
-1.0000000000E+20
 30
-1.0000000000E+20
  9
$PLIMMIN
 10
0.0
 20
0.0
  9
$PLIMMAX
 10
12.0
 20
9.0
  9
$UNITMODE
 70
         0
  9
$VISRETAIN
 70
         0
  9
$PLINEGEN
 70
         1
  9
$PSLTSCALE
 70
         0
  9
$TREEDEPTH
 70
      3020
  9
$CMLSTYLE
  2
Standard
  9
$CMLJUST
 70
         0
  9
$CMLSCALE
 40
1.0
  9
$PROXYGRAPHICS
 70
         0
  9
$MEASUREMENT
 70
         1
  9
$CELWEIGHT
370
         0
  9
$ENDCAPS
280
         0
  9
$JOINSTYLE
280
         0
  9
$LWDISPLAY
290
         0
  9
$INSUNITS
 70
         0
  9
$HYPERLINKBASE
  1

  9
$STYLESHEET
  1

  9
$XEDIT
290
         1
  9
$CEPSNTYPE
380
         0
  9
$PSTYLEMODE
290
         1
  9
$FINGERPRINTGUID
  2

  9
$VERSIONGUID
  2

  9
$EXTNAMES
290
         1
  9
$PSVPSCALE
 40
0.0
  0
ENDSEC
  0
SECTION
  2
CLASSES
  0
CLASS
  1
LWPOLYLINE
  2
AcDbPolyline
  3
AutoCAD 2000
 90
        0
280
         0
281
         1
  0
CLASS
  1
IMAGE
  2
AcDbRasterImage
  3
ISM
 90
      127
280
         0
281
         1
  0
CLASS
  1
OLE2FRAME
  2
AcDbOle2Frame
  3
AutoCAD 2000
 90
        0
280
         0
281
         1
  0
CLASS
  1
HATCH
  2
AcDbHatch
  3
AutoCAD 2000
 90
        0
280
         0
281
         1
  0
CLASS
  1
DICTIONARYVAR
  2
AcDbDictionaryVar
  3
AutoCAD 2000
 90
        0
280
         0
281
         0
  0
CLASS
  1
RASTERVARIABLES
  2
AcDbRasterVariables
  3
ISM
 90
        0
280
         0
281
         0
  0
CLASS
  1
IMAGEDEF
  2
AcDbRasterImageDef
  3
ISM
 90
        0
280
         0
281
         0
  0
CLASS
  1
IMAGEDEF_REACTOR
  2
AcDbRasterImageDefReactor
  3
ISM
 90
        1
280
         0
281
         0
  0
CLASS
  1
IDBUFFER
  2
AcDbIdBuffer
  3
AutoCAD 2000
 90
        0
280
         0
281
         0
  0
CLASS
  1
SPATIAL_FILTER
  2
AcDbSpatialFilter
  3
AutoCAD 2000
 90
        0
280
         0
281
         0
  0
CLASS
  1
XRECORD
  2
AcDbXrecord
  3
AutoCAD 2000
 90
        0
280
         0
281
         0
  0
CLASS
  1
SORTENTSTABLE
  2
AcDbSortentsTable
  3
AutoCAD 2000
 90
        0
280
         0
281
         0
  0
CLASS
  1
LAYER_INDEX
  2
AcDbLayerIndex
  3
AutoCAD 2000
 90
        0
280
         0
281
         0
  0
CLASS
  1
SPATIAL_INDEX
  2
AcDbSpatialIndex
  3
AutoCAD 2000
 90
        0
280
         0
281
         0
  0
CLASS
  1
OBJECT_PTR
  2
CAseDLPNTableRecord
  3
"ASE-LPNTableRecord"
 90
        1
280
         0
281
         0
  0
CLASS
  1
LAYOUT
  2
AcDbLayout
  3
AutoCAD 2000
 90
        0
280
         0
281
         0
  0
CLASS
  1
PLOTSETTINGS
  2
AcDbPlotSettings
  3
AutoCAD 2000
 90
        0
280
         0
281
         0
  0
CLASS
  1
ACDBDICTIONARYWDFLT
  2
AcDbDictionaryWithDefault
  3
AutoCAD 2000
 90
        0
280
         0
281
         0
  0
CLASS
  1
ACDBPLACEHOLDER
  2
AcDbPlaceHolder
  3
AutoCAD 2000
 90
        0
280
         0
281
         0
  0
CLASS
  1
VBA_PROJECT
  2
AcDbVbaProject
  3
acadvba
 90
        0
280
         0
281
         0
  0
CLASS
  1
WIPEOUT
  2
AcDbWipeout
  3
WipeOut|AutoCAD Express Tool|expresstools@autodesk.com
 90
      127
280
         0
281
         1
  0
CLASS
  1
WIPEOUTVARIABLES
  2
AcDbWipeoutVariables
  3
WipeOut|AutoCAD Express Tool|expresstools@autodesk.com
 90
        0
280
         0
281
         0
  0
CLASS
  1
RTEXT
  2
RText
  3
RText|AutoCAD Express Tool|expresstools@autodesk.com
 90
        0
280
         0
281
         1
  0
CLASS
  1
ARCALIGNEDTEXT
  2
AcDbArcAlignedText
  3
ATEXT|AutoCAD Express Tool|expresstools@autodesk.com
 90
        0
280
         0
281
         1
  0
ENDSEC
  0
SECTION
  2
TABLES
  0
TABLE
  2
VPORT
  5
7
100
AcDbSymbolTable
 70
         1
  0
VPORT
  5
15
100
AcDbSymbolTableRecord
100
AcDbViewportTableRecord
  2
*ACTIVE
 70
         0
 10
0.0
 20
0.0
 11
1.0
 21
1.0
 12
148.5
 22
105.0
 13
0.0
 23
0.0
 14
1.0
 24
1.0
 15
0.0
 25
0.0
 16
0.0
 26
0.0
 36
1.0
 17
0.0
 27
0.0
 37
0.0
 40
231.2943892345
 41
1.0
 42
50.0
 43
0.0
 44
0.0
 50
0.0
 51
0.0
 71
         0
 72
       100
 73
         1
 74
         1
 75
         0
 76
         0
 77
         0
 78
         0
281
         0
 65
         0
110
0.0
120
0.0
130
0.0
111
1.0
121
0.0
131
0.0
112
0.0
122
1.0
132
0.0
345
0
346
0
 79
         0
146
0.0
  0
ENDTAB
  0
TABLE
  2
LTYPE
  5
4
100
AcDbSymbolTable
 70
        12
  0
LTYPE
  5
11
100
AcDbSymbolTableRecord
100
AcDbLinetypeTableRecord
  2
ByBlock
 70
        64
  3

 72
        65
 73
         0
 40
0.0
  0
LTYPE
  5
12
100
AcDbSymbolTableRecord
100
AcDbLinetypeTableRecord
  2
ByLayer
 70
        64
  3

 72
        65
 73
         0
 40
0.0
  0
LTYPE
  5
13
100
AcDbSymbolTableRecord
100
AcDbLinetypeTableRecord
  2
CONTINUOUS
 70
        64
  3
Solid Line
 72
        65
 73
         0
 40
0.0
  0
LTYPE
  5
24
100
AcDbSymbolTableRecord
100
AcDbLinetypeTableRecord
  2
DOT
 70
        64
  3
. . . . . . . . . . . . . . . . . . . . . . 
 72
        65
 73
         2
 40
0.25
 49
0.0
 74
         0
 49
-0.25
 74
         0
  0
LTYPE
  5
25
100
AcDbSymbolTableRecord
100
AcDbLinetypeTableRecord
  2
HIDDEN
 70
         0
  3
_ _ _ _ _ _ _ _ _ _ _ _ _ _ _ _ _ _ _ _ _ _ _
 72
        65
 73
         2
 40
0.375
 49
0.25
 74
         0
 49
-0.125
 74
         0
  0
LTYPE
  5
26
100
AcDbSymbolTableRecord
100
AcDbLinetypeTableRecord
  2
DASHDOT
 70
         0
  3
__ . __ . __ . __ . __ . __ . __ . __ . __ . __
 72
        65
 73
         4
 40
1.0
 49
0.5
 74
         0
 49
-0.25
 74
         0
 49
0.0
 74
         0
 49
-0.25
 74
         0
  0
LTYPE
  5
27
100
AcDbSymbolTableRecord
100
AcDbLinetypeTableRecord
  2
DIVIDE
 70
         0
  3
__ . . __ . . __ . . __ . . __ . . __ . . __
 72
        65
 73
         6
 40
1.25
 49
0.5
 74
         0
 49
-0.25
 74
         0
 49
0.0
 74
         0
 49
-0.25
 74
         0
 49
0.0
 74
         0
 49
-0.25
 74
         0
  0
LTYPE
  5
28
100
AcDbSymbolTableRecord
100
AcDbLinetypeTableRecord
  2
DASHED
 70
         0
  3
__ __ __ __ __ __ __ __ __ __ __ __ __ __ __
 72
        65
 73
         2
 40
0.75
 49
0.5
 74
         0
 49
-0.25
 74
         0
  0
LTYPE
  5
29
100
AcDbSymbolTableRecord
100
AcDbLinetypeTableRecord
  2
BORDER
 70
         0
  3
__ __ . __ __ . __ __ . __ __ . __ __ .
 72
        65
 73
         6
 40
1.75
 49
0.5
 74
         0
 49
-0.25
 74
         0
 49
0.5
 74
         0
 49
-0.25
 74
         0
 49
0.0
 74
         0
 49
-0.25
 74
         0
  0
LTYPE
  5
2A
100
AcDbSymbolTableRecord
100
AcDbLinetypeTableRecord
  2
CENTER
 70
         0
  3
____ _ ____ _ ____ _ ____ _ ____ _ ____
 72
        65
 73
         4
 40
2.0
 49
1.25
 74
         0
 49
-0.25
 74
         0
 49
0.25
 74
         0
 49
-0.25
 74
         0
  0
LTYPE
  5
2B
100
AcDbSymbolTableRecord
100
AcDbLinetypeTableRecord
  2
DOT2
 70
         0
  3
........................................
 72
        65
 73
         2
 40
0.125
 49
0.0
 74
         0
 49
-0.125
 74
         0
  0
LTYPE
  5
2C
100
AcDbSymbolTableRecord
100
AcDbLinetypeTableRecord
  2
PHANTOM
 70
         0
  3
______  __  __  ______  __  __  ______
 72
        65
 73
         6
 40
2.5
 49
1.25
 74
         0
 49
-0.25
 74
         0
 49
0.25
 74
         0
 49
-0.25
 74
         0
 49
0.25
 74
         0
 49
-0.25
 74
         0
  0
ENDTAB
  0
TABLE
  2
LAYER
  5
2
100
AcDbSymbolTable
 70
       125
  0
LAYER
  5
14
100
AcDbSymbolTableRecord
100
AcDbLayerTableRecord
  2
0
 70
         0
 62
         7
  6
CONTINUOUS
290
         1
370
        -3
390
1D
  0
LAYER
  5
33
100
AcDbSymbolTableRecord
100
AcDbLayerTableRecord
  2
_TEMP
 70
        64
 62
         7
  6
CONTINUOUS
290
         1
370
        50
390
1D
  0
LAYER
  5
34
100
AcDbSymbolTableRecord
100
AcDbLayerTableRecord
  2
BESCHRIFTUNG
 70
        64
 62
         7
  6
CONTINUOUS
290
         1
370
        25
390
1D
  0
LAYER
  5
35
100
AcDbSymbolTableRecord
100
AcDbLayerTableRecord
  2
SCHRAFFUR
 70
        64
 62
         7
  6
CONTINUOUS
290
         1
370
        25
390
1D
  0
LAYER
  5
36
100
AcDbSymbolTableRecord
100
AcDbLayerTableRecord
  2
MASSTEXTE
 70
        64
 62
       212
  6
CONTINUOUS
290
         1
370
        25
390
1D
  0
LAYER
  5
37
100
AcDbSymbolTableRecord
100
AcDbLayerTableRecord
  2
MASSLINIEN
 70
        64
 62
       172
  6
CONTINUOUS
290
         1
370
        25
390
1D
  0
LAYER
  5
38
100
AcDbSymbolTableRecord
100
AcDbLayerTableRecord
  2
MASSGRENZEN
 70
        64
 62
       172
  6
CONTINUOUS
290
         1
370
        25
390
1D
  0
LAYER
  5
39
100
AcDbSymbolTableRecord
100
AcDbLayerTableRecord
  2
TOLERANZEN
 70
        64
 62
       212
  6
CONTINUOUS
290
         1
370
         0
390
1D
  0
LAYER
  5
3A
100
AcDbSymbolTableRecord
100
AcDbLayerTableRecord
  2
BEMASSUNG
 70
        64
 62
         7
  6
CONTINUOUS
290
         1
370
        25
390
1D
  0
LAYER
  5
3B
100
AcDbSymbolTableRecord
100
AcDbLayerTableRecord
  2
HILFSLINIEN
 70
        64
 62
         3
  6
CONTINUOUS
290
         1
370
         0
390
1D
  0
LAYER
  5
3C
100
AcDbSymbolTableRecord
100
AcDbLayerTableRecord
  2
MITTELLINIEN
 70
        64
 62
         5
  6
DASHDOT
290
         1
370
        25
390
1D
  0
LAYER
  5
3D
100
AcDbSymbolTableRecord
100
AcDbLayerTableRecord
  2
BESCHRIFTUNG00
 70
        64
 62
         7
  6
CONTINUOUS
290
         1
370
        25
390
1D
  0
LAYER
  5
3E
100
AcDbSymbolTableRecord
100
AcDbLayerTableRecord
  2
BESCHRIFTUNG0
 70
        64
 62
         7
  6
CONTINUOUS
290
         1
370
        25
390
1D
  0
LAYER
  5
3F
100
AcDbSymbolTableRecord
100
AcDbLayerTableRecord
  2
GEWINDELINIEN
 70
        64
 62
       212
  6
CONTINUOUS
290
         1
370
        25
390
1D
  0
LAYER
  5
40
100
AcDbSymbolTableRecord
100
AcDbLayerTableRecord
  2
UNSICHTBARE
 70
        64
 62
        92
  6
DASHED
290
         1
370
        25
390
1D
  0
LAYER
  5
41
100
AcDbSymbolTableRecord
100
AcDbLayerTableRecord
  2
VERDECKTE
 70
        64
 62
        92
  6
DASHED
290
         1
370
        25
390
1D
  0
LAYER
  5
42
100
AcDbSymbolTableRecord
100
AcDbLayerTableRecord
  2
LICHTKANTEN
 70
        64
 62
         8
  6
CONTINUOUS
290
         1
370
        25
390
1D
  0
LAYER
  5
43
100
AcDbSymbolTableRecord
100
AcDbLayerTableRecord
  2
SCHNITTVERLAUF
 70
        64
 62
        34
  6
DASHDOT
290
         1
370
        70
390
1D
  0
LAYER
  5
44
100
AcDbSymbolTableRecord
100
AcDbLayerTableRecord
  2
KENNZEICHNUNG
 70
        64
 62
         7
  6
CONTINUOUS
290
         1
370
         0
390
1D
  0
LAYER
  5
45
100
AcDbSymbolTableRecord
100
AcDbLayerTableRecord
  2
PFEILE
 70
        64
 62
         7
  6
CONTINUOUS
290
         1
370
        70
390
1D
  0
LAYER
  5
46
100
AcDbSymbolTableRecord
100
AcDbLayerTableRecord
  2
SCHNITTDARSTELLUNG
 70
        64
 62
         7
  6
CONTINUOUS
290
         1
370
         0
390
1D
  0
LAYER
  5
47
100
AcDbSymbolTableRecord
100
AcDbLayerTableRecord
  2
GEHÄUSE
 70
        64
 62
         7
  6
CONTINUOUS
290
         1
370
        18
390
1D
  0
LAYER
  5
48
100
AcDbSymbolTableRecord
100
AcDbLayerTableRecord
  2
_RIEGEL
 70
        64
 62
       230
  6
DASHED
290
         1
370
        18
390
1D
  0
LAYER
  5
49
100
AcDbSymbolTableRecord
100
AcDbLayerTableRecord
  2
RIEGEL
 70
        64
 62
       230
  6
CONTINUOUS
290
         1
370
        18
390
1D
  0
LAYER
  5
4A
100
AcDbSymbolTableRecord
100
AcDbLayerTableRecord
  2
_ZUHALTUNG
 70
        64
 62
        94
  6
HIDDEN
290
         1
370
        18
390
1D
  0
LAYER
  5
4B
100
AcDbSymbolTableRecord
100
AcDbLayerTableRecord
  2
ZUHALTUNG
 70
        64
 62
        94
  6
CONTINUOUS
290
         1
370
        18
390
1D
  0
LAYER
  5
4C
100
AcDbSymbolTableRecord
100
AcDbLayerTableRecord
  2
WIPPE
 70
        64
 62
         5
  6
CONTINUOUS
290
         1
370
        18
390
1D
  0
LAYER
  5
4D
100
AcDbSymbolTableRecord
100
AcDbLayerTableRecord
  2
AUSSCHLUSS
 70
        64
 62
        14
  6
CONTINUOUS
290
         1
370
        18
390
1D
  0
LAYER
  5
4E
100
AcDbSymbolTableRecord
100
AcDbLayerTableRecord
  2
BESATZUNG
 70
        64
 62
         8
  6
CONTINUOUS
290
         1
370
        18
390
1D
  0
LAYER
  5
4F
100
AcDbSymbolTableRecord
100
AcDbLayerTableRecord
  2
 SCHLOSS
 70
        64
 62
         7
  6
CONTINUOUS
290
         1
370
        18
390
1D
  0
LAYER
  5
50
100
AcDbSymbolTableRecord
100
AcDbLayerTableRecord
  2
 SCHLÜSSEL
 70
        64
 62
       190
  6
CONTINUOUS
290
         1
370
         0
390
1D
  0
LAYER
  5
51
100
AcDbSymbolTableRecord
100
AcDbLayerTableRecord
  2
BESCHRIFTUNG01
 70
        64
 62
         7
  6
CONTINUOUS
290
         1
370
        25
390
1D
  0
LAYER
  5
52
100
AcDbSymbolTableRecord
100
AcDbLayerTableRecord
  2
FRONTLAGER
 70
        64
 62
         8
  6
CONTINUOUS
290
         1
370
        18
390
1D
  0
LAYER
  5
53
100
AcDbSymbolTableRecord
100
AcDbLayerTableRecord
  2
 FRONTPLATTE
 70
        64
 62
        34
  6
CONTINUOUS
290
         1
370
        18
390
1D
  0
LAYER
  5
54
100
AcDbSymbolTableRecord
100
AcDbLayerTableRecord
  2
_ANTRIEBSSSTANGE
 70
        64
 62
        55
  6
DASHED
290
         1
370
        18
390
1D
  0
LAYER
  5
55
100
AcDbSymbolTableRecord
100
AcDbLayerTableRecord
  2
 ANTRIEBSSTANGE
 70
        64
 62
        54
  6
CONTINUOUS
290
         1
370
        18
390
1D
  0
LAYER
  5
56
100
AcDbSymbolTableRecord
100
AcDbLayerTableRecord
  2
_ANTRIEBSSCHEIBE
 70
        64
 62
       190
  6
DASHED
290
         1
370
        18
390
1D
  0
LAYER
  5
57
100
AcDbSymbolTableRecord
100
AcDbLayerTableRecord
  2
ANTRIEBSSCHEIBE
 70
        64
 62
       190
  6
CONTINUOUS
290
         1
370
        18
390
1D
  0
LAYER
  5
58
100
AcDbSymbolTableRecord
100
AcDbLayerTableRecord
  2
GRUNDPLATTE
 70
        64
 62
         7
  6
HIDDEN
290
         1
370
        18
390
1D
  0
LAYER
  5
59
100
AcDbSymbolTableRecord
100
AcDbLayerTableRecord
  2
WEICHENBOCK
 70
        64
 62
         5
  6
CONTINUOUS
290
         1
370
        25
390
1D
  0
LAYER
  5
5A
100
AcDbSymbolTableRecord
100
AcDbLayerTableRecord
  2
_WEICHENSIGNAL
 70
        64
 62
        14
  6
DASHED
290
         1
370
        18
390
1D
  0
LAYER
  5
5B
100
AcDbSymbolTableRecord
100
AcDbLayerTableRecord
  2
WEICHENSIGNAL
 70
        64
 62
        14
  6
CONTINUOUS
290
         1
370
        25
390
1D
  0
LAYER
  5
5C
100
AcDbSymbolTableRecord
100
AcDbLayerTableRecord
  2
WEICHENGEWICHT
 70
        64
 62
       230
  6
CONTINUOUS
290
         1
370
        25
390
1D
  0
LAYER
  5
5D
100
AcDbSymbolTableRecord
100
AcDbLayerTableRecord
  2
ANTRIEBSRAHMEN
 70
        64
 62
        94
  6
CONTINUOUS
290
         1
370
        18
390
1D
  0
LAYER
  5
5E
100
AcDbSymbolTableRecord
100
AcDbLayerTableRecord
  2
STELLDRAHT
 70
        64
 62
        30
  6
CONTINUOUS
290
         1
370
        25
390
1D
  0
LAYER
  5
5F
100
AcDbSymbolTableRecord
100
AcDbLayerTableRecord
  2
ENDLAGENFEDER
 70
        64
 62
         8
  6
DASHDOT
290
         1
370
        35
390
1D
  0
LAYER
  5
60
100
AcDbSymbolTableRecord
100
AcDbLayerTableRecord
  2
 ANTRIEB
 70
        64
 62
        94
  6
CONTINUOUS
290
         1
370
        18
390
1D
  0
LAYER
  5
61
100
AcDbSymbolTableRecord
100
AcDbLayerTableRecord
  2
_A RAHMEN
 70
        64
 62
         7
  6
CONTINUOUS
290
         1
370
         0
390
1D
  0
LAYER
  5
62
100
AcDbSymbolTableRecord
100
AcDbLayerTableRecord
  2
A HEBEL OBEN
 70
        64
 62
         5
  6
CONTINUOUS
290
         1
370
        18
390
1D
  0
LAYER
  5
63
100
AcDbSymbolTableRecord
100
AcDbLayerTableRecord
  2
_F HEBEL
 70
        64
 62
         5
  6
CONTINUOUS
290
         1
370
        18
390
1D
  0
LAYER
  5
64
100
AcDbSymbolTableRecord
100
AcDbLayerTableRecord
  2
GEWICHT
 70
        64
 62
        55
  6
HIDDEN
290
         1
370
        18
390
1D
  0
LAYER
  5
65
100
AcDbSymbolTableRecord
100
AcDbLayerTableRecord
  2
WINKEL
 70
        64
 62
        55
  6
CONTINUOUS
290
         1
370
        18
390
1D
  0
LAYER
  5
66
100
AcDbSymbolTableRecord
100
AcDbLayerTableRecord
  2
SPERRSCHEIBE
 70
        64
 62
        55
  6
BORDER
290
         1
370
        18
390
1D
  0
LAYER
  5
67
100
AcDbSymbolTableRecord
100
AcDbLayerTableRecord
  2
 ANTRIEBSWELLE
 70
        64
 62
        55
  6
CONTINUOUS
290
         1
370
        18
390
1D
  0
LAYER
  5
68
100
AcDbSymbolTableRecord
100
AcDbLayerTableRecord
  2
2600__ WEICHENBOCK
 70
        64
 62
         7
  6
CONTINUOUS
290
         1
370
         0
390
1D
  0
LAYER
  5
69
100
AcDbSymbolTableRecord
100
AcDbLayerTableRecord
  2
GLEIS
 70
        64
 62
        34
  6
CONTINUOUS
290
         1
370
         0
390
1D
  0
LAYER
  5
6A
100
AcDbSymbolTableRecord
100
AcDbLayerTableRecord
  2
SPERRSCHUH ABGELEGT
 70
        64
 62
         7
  6
DASHED
290
         1
370
         0
390
1D
  0
LAYER
  5
6B
100
AcDbSymbolTableRecord
100
AcDbLayerTableRecord
  2
SPERRSCHUH
 70
        64
 62
         7
  6
CONTINUOUS
290
         1
370
         0
390
1D
  0
LAYER
  5
6C
100
AcDbSymbolTableRecord
100
AcDbLayerTableRecord
  2
SPERRSCHUHRAHMEN
 70
        64
 62
        94
  6
CONTINUOUS
290
         1
370
         0
390
1D
  0
LAYER
  5
6D
100
AcDbSymbolTableRecord
100
AcDbLayerTableRecord
  2
SPERRSCHUHANTRIEB
 70
        64
 62
         5
  6
CONTINUOUS
290
         1
370
         0
390
1D
  0
LAYER
  5
6E
100
AcDbSymbolTableRecord
100
AcDbLayerTableRecord
  2
2601__ SBW-GLEISSPERRSCHUH
 70
        64
 62
         7
  6
CONTINUOUS
290
         1
370
         0
390
1D
  0
LAYER
  5
6F
100
AcDbSymbolTableRecord
100
AcDbLayerTableRecord
  2
2913_1 AUFSPANNPLATTE
 70
        64
 62
         7
  6
CONTINUOUS
290
         1
370
        18
390
1D
  0
LAYER
  5
70
100
AcDbSymbolTableRecord
100
AcDbLayerTableRecord
  2
2913__ AUFSPANNPLATTE
 70
        64
 62
         7
  6
CONTINUOUS
290
         1
370
        18
390
1D
  0
LAYER
  5
71
100
AcDbSymbolTableRecord
100
AcDbLayerTableRecord
  2
2654_1 RAHMEN
 70
        64
 62
         7
  6
CONTINUOUS
290
         1
370
         0
390
1D
  0
LAYER
  5
72
100
AcDbSymbolTableRecord
100
AcDbLayerTableRecord
  2
2654_2 STELLEINRICHTUNG
 70
        64
 62
       230
  6
CONTINUOUS
290
         1
370
         0
390
1D
  0
LAYER
  5
73
100
AcDbSymbolTableRecord
100
AcDbLayerTableRecord
  2
WEICHE
 70
        64
 62
        70
  6
CONTINUOUS
290
         1
370
         0
390
1D
  0
LAYER
  5
74
100
AcDbSymbolTableRecord
100
AcDbLayerTableRecord
  2
2654__ WEICHENANTRIEB
 70
        64
 62
         7
  6
CONTINUOUS
290
         1
370
         0
390
1D
  0
LAYER
  5
75
100
AcDbSymbolTableRecord
100
AcDbLayerTableRecord
  2
2655_1 RAHMEN
 70
        64
 62
         7
  6
CONTINUOUS
290
         1
370
        18
390
1D
  0
LAYER
  5
76
100
AcDbSymbolTableRecord
100
AcDbLayerTableRecord
  2
2655_2 SCHIEBER
 70
        64
 62
       230
  6
CONTINUOUS
290
         1
370
        18
390
1D
  0
LAYER
  5
77
100
AcDbSymbolTableRecord
100
AcDbLayerTableRecord
  2
2655_3 DREHHEBEL
 70
        64
 62
       150
  6
CONTINUOUS
290
         1
370
        18
390
1D
  0
LAYER
  5
78
100
AcDbSymbolTableRecord
100
AcDbLayerTableRecord
  2
2655_5 SCHIEBDINGS UMGESTELLT
 70
        64
 62
       172
  6
DASHED
290
         1
370
        18
390
1D
  0
LAYER
  5
79
100
AcDbSymbolTableRecord
100
AcDbLayerTableRecord
  2
2655_5 STELLHEBEL
 70
        64
 62
       172
  6
CONTINUOUS
290
         1
370
        18
390
1D
  0
LAYER
  5
7A
100
AcDbSymbolTableRecord
100
AcDbLayerTableRecord
  2
2655_4 DRAHT
 70
        64
 62
       190
  6
CONTINUOUS
290
         1
370
        25
390
1D
  0
LAYER
  5
7B
100
AcDbSymbolTableRecord
100
AcDbLayerTableRecord
  2
2655__ WEICHENANTRIEB
 70
        64
 62
         7
  6
CONTINUOUS
290
         1
370
         0
390
1D
  0
LAYER
  5
7C
100
AcDbSymbolTableRecord
100
AcDbLayerTableRecord
  2
2201_2___ HEBEL UMGESCHLAGEN
 70
        64
 62
        34
  6
DASHED
290
         1
370
        13
390
1D
  0
LAYER
  5
7D
100
AcDbSymbolTableRecord
100
AcDbLayerTableRecord
  2
2201_2___ HEBEL
 70
        64
 62
        34
  6
CONTINUOUS
290
         1
370
        13
390
1D
  0
LAYER
  5
7E
100
AcDbSymbolTableRecord
100
AcDbLayerTableRecord
  2
2201__
 70
        64
 62
         7
  6
CONTINUOUS
290
         1
370
         0
390
1D
  0
LAYER
  5
7F
100
AcDbSymbolTableRecord
100
AcDbLayerTableRecord
  2
2913_1 AUFSPANNPLATTE0
 70
        64
 62
         7
  6
CONTINUOUS
290
         1
370
        18
390
1D
  0
LAYER
  5
80
100
AcDbSymbolTableRecord
100
AcDbLayerTableRecord
  2
2913__ FRÄSE - AUFSPANNPLATTE
 70
        64
 62
         7
  6
CONTINUOUS
290
         1
370
        18
390
1D
  0
LAYER
  5
81
100
AcDbSymbolTableRecord
100
AcDbLayerTableRecord
  2
2919__ FRÄSE - MITTENAUFSPANNUNG
 70
        64
 62
         7
  6
CONTINUOUS
290
         1
370
         0
390
1D
  0
LAYER
  5
82
100
AcDbSymbolTableRecord
100
AcDbLayerTableRecord
  2
2660_1 SIGNALMAST
 70
        64
 62
         7
  6
CONTINUOUS
290
         1
370
         0
390
1D
  0
LAYER
  5
83
100
AcDbSymbolTableRecord
100
AcDbLayerTableRecord
  2
2660_2 SIGNALARM
 70
        64
 62
       230
  6
CONTINUOUS
290
         1
370
         0
390
1D
  0
LAYER
  5
84
100
AcDbSymbolTableRecord
100
AcDbLayerTableRecord
  2
2660__ KKSTB-SIGNALE N
 70
        64
 62
         7
  6
CONTINUOUS
290
         1
370
         0
390
1D
  0
LAYER
  5
85
100
AcDbSymbolTableRecord
100
AcDbLayerTableRecord
  2
KONSTRUKTION
 70
        64
 62
         7
  6
CONTINUOUS
290
         1
370
         0
390
1D
  0
LAYER
  5
86
100
AcDbSymbolTableRecord
100
AcDbLayerTableRecord
  2
2600_1P
 70
        64
 62
        30
  6
CONTINUOUS
290
         1
370
        13
390
1D
  0
LAYER
  5
87
100
AcDbSymbolTableRecord
100
AcDbLayerTableRecord
  2
2600_7P
 70
        64
 62
        15
  6
CONTINUOUS
290
         1
370
        13
390
1D
  0
LAYER
  5
88
100
AcDbSymbolTableRecord
100
AcDbLayerTableRecord
  2
2600___ WEICHENBOCK
 70
        64
 62
       230
  6
CONTINUOUS
290
         1
370
        13
390
1D
  0
LAYER
  5
89
100
AcDbSymbolTableRecord
100
AcDbLayerTableRecord
  2
2601_1O
 70
        64
 62
        34
  6
CONTINUOUS
290
         1
370
        13
390
1D
  0
LAYER
  5
8A
100
AcDbSymbolTableRecord
100
AcDbLayerTableRecord
  2
2601_1U
 70
        64
 62
        11
  6
CONTINUOUS
290
         1
370
        13
390
1D
  0
LAYER
  5
8B
100
AcDbSymbolTableRecord
100
AcDbLayerTableRecord
  2
2601___ SBW-GLEISSPERRSCHUH
 70
        64
 62
       230
  6
CONTINUOUS
290
         1
370
        13
390
1D
  0
LAYER
  5
8C
100
AcDbSymbolTableRecord
100
AcDbLayerTableRecord
  2
1084___
 70
        64
 62
       230
  6
CONTINUOUS
290
         1
370
        13
390
1D
  0
LAYER
  5
8D
100
AcDbSymbolTableRecord
100
AcDbLayerTableRecord
  2
___ 8901_2P
 70
        64
 62
        54
  6
CONTINUOUS
290
         1
370
        13
390
1D
  0
LAYER
  5
8E
100
AcDbSymbolTableRecord
100
AcDbLayerTableRecord
  2
___ 8901___
 70
        64
 62
       230
  6
CONTINUOUS
290
         1
370
        13
390
1D
  0
LAYER
  5
8F
100
AcDbSymbolTableRecord
100
AcDbLayerTableRecord
  2
8601_1O
 70
        64
 62
        11
  6
CONTINUOUS
290
         1
370
         0
390
1D
  0
LAYER
  5
90
100
AcDbSymbolTableRecord
100
AcDbLayerTableRecord
  2
8601_2U
 70
        64
 62
        15
  6
CONTINUOUS
290
         1
370
         0
390
1D
  0
LAYER
  5
91
100
AcDbSymbolTableRecord
100
AcDbLayerTableRecord
  2
8602_1O
 70
        64
 62
       230
  6
CONTINUOUS
290
         1
370
         0
390
1D
  0
LAYER
  5
92
100
AcDbSymbolTableRecord
100
AcDbLayerTableRecord
  2
8602_2U
 70
        64
 62
        14
  6
CONTINUOUS
290
         1
370
         0
390
1D
  0
LAYER
  5
93
100
AcDbSymbolTableRecord
100
AcDbLayerTableRecord
  2
8601___
 70
        64
 62
       230
  6
CONTINUOUS
290
         1
370
        13
390
1D
  0
LAYER
  5
94
100
AcDbSymbolTableRecord
100
AcDbLayerTableRecord
  2
2655_1P
 70
        64
 62
        30
  6
CONTINUOUS
290
         1
370
        13
390
1D
  0
LAYER
  5
95
100
AcDbSymbolTableRecord
100
AcDbLayerTableRecord
  2
2655_2P
 70
        64
 62
        30
  6
CONTINUOUS
290
         1
370
        13
390
1D
  0
LAYER
  5
96
100
AcDbSymbolTableRecord
100
AcDbLayerTableRecord
  2
2655_3L
 70
        64
 62
        30
  6
CONTINUOUS
290
         1
370
        13
390
1D
  0
LAYER
  5
97
100
AcDbSymbolTableRecord
100
AcDbLayerTableRecord
  2
2655_3R
 70
        64
 62
        14
  6
CONTINUOUS
290
         1
370
        13
390
1D
  0
LAYER
  5
98
100
AcDbSymbolTableRecord
100
AcDbLayerTableRecord
  2
2655_5L
 70
        64
 62
        30
  6
CONTINUOUS
290
         1
370
        13
390
1D
  0
LAYER
  5
99
100
AcDbSymbolTableRecord
100
AcDbLayerTableRecord
  2
2655_5R
 70
        64
 62
        14
  6
CONTINUOUS
290
         1
370
        13
390
1D
  0
LAYER
  5
9A
100
AcDbSymbolTableRecord
100
AcDbLayerTableRecord
  2
2655_6P
 70
        64
 62
        30
  6
CONTINUOUS
290
         1
370
        13
390
1D
  0
LAYER
  5
9B
100
AcDbSymbolTableRecord
100
AcDbLayerTableRecord
  2
2655_7P
 70
        64
 62
        30
  6
CONTINUOUS
290
         1
370
        13
390
1D
  0
LAYER
  5
9C
100
AcDbSymbolTableRecord
100
AcDbLayerTableRecord
  2
2655_11P
 70
        64
 62
        30
  6
CONTINUOUS
290
         1
370
        13
390
1D
  0
LAYER
  5
9D
100
AcDbSymbolTableRecord
100
AcDbLayerTableRecord
  2
2655_13R
 70
        64
 62
        14
  6
CONTINUOUS
290
         1
370
        13
390
1D
  0
LAYER
  5
9E
100
AcDbSymbolTableRecord
100
AcDbLayerTableRecord
  2
2655_13L
 70
        64
 62
        30
  6
CONTINUOUS
290
         1
370
        13
390
1D
  0
LAYER
  5
9F
100
AcDbSymbolTableRecord
100
AcDbLayerTableRecord
  2
2655_20P
 70
        64
 62
       190
  6
PHANTOM
290
         1
370
        13
390
1D
  0
LAYER
  5
A0
100
AcDbSymbolTableRecord
100
AcDbLayerTableRecord
  2
2655_21L
 70
        64
 62
       190
  6
PHANTOM
290
         1
370
        13
390
1D
  0
LAYER
  5
A1
100
AcDbSymbolTableRecord
100
AcDbLayerTableRecord
  2
2655_22L
 70
        64
 62
       190
  6
PHANTOM
290
         1
370
        13
390
1D
  0
LAYER
  5
A2
100
AcDbSymbolTableRecord
100
AcDbLayerTableRecord
  2
2655_30P
 70
        64
 62
       190
  6
PHANTOM
290
         1
370
        13
390
1D
  0
LAYER
  5
A3
100
AcDbSymbolTableRecord
100
AcDbLayerTableRecord
  2
2655_31L
 70
        64
 62
       190
  6
PHANTOM
290
         1
370
        13
390
1D
  0
LAYER
  5
A4
100
AcDbSymbolTableRecord
100
AcDbLayerTableRecord
  2
2655_32L
 70
        64
 62
       190
  6
PHANTOM
290
         1
370
        13
390
1D
  0
LAYER
  5
A5
100
AcDbSymbolTableRecord
100
AcDbLayerTableRecord
  2
2655_21R
 70
        64
 62
       190
  6
PHANTOM
290
         1
370
        13
390
1D
  0
LAYER
  5
A6
100
AcDbSymbolTableRecord
100
AcDbLayerTableRecord
  2
2655_22R
 70
        64
 62
       190
  6
PHANTOM
290
         1
370
        13
390
1D
  0
LAYER
  5
A7
100
AcDbSymbolTableRecord
100
AcDbLayerTableRecord
  2
2655_31R
 70
        64
 62
       190
  6
PHANTOM
290
         1
370
        13
390
1D
  0
LAYER
  5
A8
100
AcDbSymbolTableRecord
100
AcDbLayerTableRecord
  2
2655_32R
 70
        64
 62
       190
  6
PHANTOM
290
         1
370
        13
390
1D
  0
LAYER
  5
A9
100
AcDbSymbolTableRecord
100
AcDbLayerTableRecord
  2
2655___ W-_ GSP-_ SIGNAL-ANTRIEB
 70
        64
 62
       230
  6
CONTINUOUS
290
         1
370
        13
390
1D
  0
LAYER
  5
AA
100
AcDbSymbolTableRecord
100
AcDbLayerTableRecord
  2
8603_1L
 70
        64
 62
        11
  6
CONTINUOUS
290
         1
370
        13
390
1D
  0
LAYER
  5
AB
100
AcDbSymbolTableRecord
100
AcDbLayerTableRecord
  2
8603_2R
 70
        64
 62
        15
  6
CONTINUOUS
290
         1
370
        13
390
1D
  0
LAYER
  5
AC
100
AcDbSymbolTableRecord
100
AcDbLayerTableRecord
  2
8603___
 70
        64
 62
         7
  6
CONTINUOUS
290
         1
370
         0
390
1D
  0
LAYER
  5
AD
100
AcDbSymbolTableRecord
100
AcDbLayerTableRecord
  2
PFADE
 70
        64
 62
         7
  6
CONTINUOUS
290
         1
370
         0
390
1D
  0
LAYER
  5
AE
100
AcDbSymbolTableRecord
100
AcDbLayerTableRecord
  2
STANDARD
 70
        64
 62
         7
  6
CONTINUOUS
290
         1
370
         0
390
1D
  0
ENDTAB
  0
TABLE
  2
STYLE
  5
3
100
AcDbSymbolTable
 70
         7
  0
STYLE
  5
17
100
AcDbSymbolTableRecord
100
AcDbTextStyleTableRecord
  2
Standard
 70
         0
 40
0.0
 41
1.0
 50
0.0
 71
         0
 42
0.0
  3
txt
  4

  0
STYLE
  5
2D
100
AcDbSymbolTableRecord
100
AcDbTextStyleTableRecord
  2
CADdy
 70
         0
 40
0.0
 41
1.0
 50
0.0
 71
         0
 42
3.5
  3
txt.shx
  4

  0
STYLE
  5
2E
100
AcDbSymbolTableRecord
100
AcDbTextStyleTableRecord
  2
Arial
 70
         0
 40
0.0
 41
1.0
 50
0.0
 71
         0
 42
3.5
  3
arial.ttf
  4

1001
ACAD
1000
Arial
1071
       34
  0
STYLE
  5
2F
100
AcDbSymbolTableRecord
100
AcDbTextStyleTableRecord
  2
Isonorm
 70
         0
 40
0.0
 41
1.0
 50
0.0
 71
         0
 42
3.5
  3
txt.shx
  4

  0
STYLE
  5
30
100
AcDbSymbolTableRecord
100
AcDbTextStyleTableRecord
  2
Tahoma
 70
         0
 40
0.0
 41
1.0
 50
0.0
 71
         0
 42
3.5
  3
tahoma.ttf
  4

1001
ACAD
1000
Tahoma
1071
       34
  0
STYLE
  5
31
100
AcDbSymbolTableRecord
100
AcDbTextStyleTableRecord
  2
Microsoft Sans Serif
 70
         0
 40
0.0
 41
1.0
 50
0.0
 71
         0
 42
3.5
  3
micross.ttf
  4

1001
ACAD
1000
Microsoft Sans Serif
1071
       34
  0
STYLE
  5
32
100
AcDbSymbolTableRecord
100
AcDbTextStyleTableRecord
  2
Arial Rounded MT Bold
 70
         0
 40
0.0
 41
1.0
 50
0.0
 71
         0
 42
3.5
  3
txt.shx
  4

  0
ENDTAB
  0
TABLE
  2
VIEW
  5
5
100
AcDbSymbolTable
 70
         0
  0
ENDTAB
  0
TABLE
  2
UCS
  5
6
100
AcDbSymbolTable
 70
         0
  0
ENDTAB
  0
TABLE
  2
APPID
  5
8
100
AcDbSymbolTable
 70
         1
  0
APPID
  5
16
100
AcDbSymbolTableRecord
100
AcDbRegAppTableRecord
  2
ACAD
 70
        64
  0
ENDTAB
  0
TABLE
  2
DIMSTYLE
  5
9
100
AcDbSymbolTable
 70
         1
100
AcDbDimStyleTable
 71
         0
  0
DIMSTYLE
105
18
100
AcDbSymbolTableRecord
100
AcDbDimStyleTableRecord
  2
Standard
 70
         0
  3

  4

 40
1.0
 41
0.18
 42
0.0625
 43
0.38
 44
0.18
 45
0.0
 46
0.0
 47
0.0
 48
0.0
 71
         0
 72
         0
 73
         1
 74
         1
 75
         0
 76
         0
 77
         0
 78
         0
 79
         0
140
0.18
141
0.09
142
0.0
143
25.4
144
1.0
145
0.0
146
1.0
147
0.09
148
0.0
170
         0
171
         2
172
         0
173
         0
174
         0
175
         0
176
         0
177
         0
178
         0
179
         0
271
         4
272
         4
273
         2
274
         2
275
         0
276
         0
277
         2
278
        46
279
         0
280
         0
281
         0
282
         0
283
         1
284
         0
285
         0
286
         0
288
         0
289
         3
340
17
341
0
342
0
343
0
344
0
371
        -2
372
        -2
  0
ENDTAB
  0
TABLE
  2
BLOCK_RECORD
  5
1
100
AcDbSymbolTable
 70
         0
  0
BLOCK_RECORD
  5
A
100
AcDbSymbolTableRecord
100
AcDbBlockTableRecord
  2
*MODEL_SPACE
340
20
  0
BLOCK_RECORD
  5
B
100
AcDbSymbolTableRecord
100
AcDbBlockTableRecord
  2
*PAPER_SPACE
340
21
  0
ENDTAB
  0
ENDSEC
  0
SECTION
  2
BLOCKS
  0
BLOCK
  5
D
100
AcDbEntity
  8
0
390
0
100
AcDbBlockBegin
  2
*MODEL_SPACE
 70
         0
 10
0.0
 20
0.0
 30
0.0
  3
*MODEL_SPACE
  1

  0
ENDBLK
  5
E
100
AcDbEntity
  8
0
390
0
100
AcDbBlockEnd
  0
BLOCK
  5
F
100
AcDbEntity
 67
         1
  8
0
390
0
100
AcDbBlockBegin
  2
*PAPER_SPACE
 70
         0
 10
0.0
 20
0.0
 30
0.0
  3
*PAPER_SPACE
  1

  0
ENDBLK
  5
10
100
AcDbEntity
 67
         1
  8
0
390
0
100
AcDbBlockEnd
  0
ENDSEC
  0
SECTION
  2
ENTITIES
  0
ARC
  5
AF
100
AcDbEntity
  8
2655_3 DREHHEBEL
390
0
100
AcDbCircle
 10
157.0061531581
 20
171.2581548427
 30
0.0
 40
1.5
100
AcDbArc
 50
0.0
 51
180.0
  0
CIRCLE
  5
B0
100
AcDbEntity
  8
2655_3R
390
0
100
AcDbCircle
 10
152.5061531581
 20
161.2581548427
 30
0.0
 40
1.25
  0
ARC
  5
B1
100
AcDbEntity
  8
2655_3 DREHHEBEL
390
0
100
AcDbCircle
 10
152.0061531581
 20
161.2581548427
 30
0.0
 40
15.0
100
AcDbArc
 50
29.9264348666
 51
97.6622556608
  0
ARC
  5
B2
100
AcDbEntity
  8
2655_3 DREHHEBEL
390
0
100
AcDbCircle
 10
155.2057673684
 20
164.4577690529
 30
0.0
 40
1.5
100
AcDbArc
 50
134.9999999997
 51
314.9999999996
  0
LINE
  5
B3
100
AcDbEntity
  8
2655_1 RAHMEN
390
0
100
AcDbLine
 10
26.7795971288
 20
180.4913670786
 30
0.0
 11
26.7795971288
 21
135.4913670786
 31
0.0
  0
LINE
  5
B4
100
AcDbEntity
  8
2655_3 DREHHEBEL
390
0
100
AcDbLine
 10
148.0061531581
 20
169.7581548427
 30
0.0
 11
135.0061531581
 21
169.7581548427
 31
0.0
  0
LINE
  5
B5
100
AcDbEntity
  8
2655_3 DREHHEBEL
390
0
100
AcDbLine
 10
162.0061531581
 20
164.7581548427
 30
0.0
 11
157.6274735017
 21
164.7581548427
 31
0.0
  0
LINE
  5
B6
100
AcDbEntity
  8
2655_3 DREHHEBEL
390
0
100
AcDbLine
 10
162.0061531581
 20
167.7581548427
 30
0.0
 11
158.5061531581
 21
167.7581548427
 31
0.0
  0
LINE
  5
B7
100
AcDbEntity
  8
2655_3 DREHHEBEL
390
0
100
AcDbLine
 10
158.5061531581
 20
167.7581548427
 30
0.0
 11
158.5061531581
 21
171.2581548427
 31
0.0
  0
LINE
  5
B8
100
AcDbEntity
  8
2655_3 DREHHEBEL
390
0
100
AcDbLine
 10
155.5061531581
 20
171.2581548427
 30
0.0
 11
155.5061531581
 21
166.8794751862
 31
0.0
  0
LINE
  5
B9
100
AcDbEntity
  8
2655_3 DREHHEBEL
390
0
100
AcDbLine
 10
157.6274735017
 20
164.7581548427
 30
0.0
 11
156.2664275401
 21
163.3971088811
 31
0.0
  0
LINE
  5
BA
100
AcDbEntity
  8
2655_3 DREHHEBEL
390
0
100
AcDbLine
 10
154.1451071966
 20
165.5184292247
 30
0.0
 11
155.5061531581
 21
166.8794751862
 31
0.0
  0
LINE
  5
BB
100
AcDbEntity
  8
2655_3 DREHHEBEL
390
0
100
AcDbLine
 10
150.0061531581
 20
176.12422359
 30
0.0
 11
150.0061531581
 21
151.7581548427
 31
0.0
  0
LINE
  5
BC
100
AcDbEntity
  8
2655_3 DREHHEBEL
390
0
100
AcDbLine
 10
165.0061531581
 20
168.7414696162
 30
0.0
 11
165.0061531581
 21
151.7581548427
 31
0.0
  0
LINE
  5
BD
100
AcDbEntity
  8
2655_2 SCHIEBER
390
0
100
AcDbLine
 10
314.9122200772
 20
159.7024710425
 30
0.0
 11
314.9122200772
 21
157.7024710425
 31
0.0
  0
LINE
  5
BE
100
AcDbEntity
  8
2655_1 RAHMEN
390
0
100
AcDbLine
 10
45.7795971288
 20
139.4913670786
 30
0.0
 11
51.7795971288
 21
139.4913670786
 31
0.0
  0
LINE
  5
BF
100
AcDbEntity
  8
2655_3 DREHHEBEL
390
0
100
AcDbLine
 10
311.1122200772
 20
162.9524710425
 30
0.0
 11
311.1122200772
 21
160.9524710425
 31
0.0
  0
LINE
  5
C0
100
AcDbEntity
  8
2655_1 RAHMEN
390
0
100
AcDbLine
 10
45.7795971288
 20
176.4913670786
 30
0.0
 11
45.7795971288
 21
139.4913670786
 31
0.0
  0
LINE
  5
C1
100
AcDbEntity
  8
2655_3 DREHHEBEL
390
0
100
AcDbLine
 10
154.2561531581
 20
151.7581548427
 30
0.0
 11
152.2561531581
 21
151.7581548427
 31
0.0
  0
LINE
  5
C2
100
AcDbEntity
  8
2655_1 RAHMEN
390
0
100
AcDbLine
 10
26.7795971288
 20
180.4913670786
 30
0.0
 11
56.7795971288
 21
180.4913670786
 31
0.0
  0
LINE
  5
C3
100
AcDbEntity
  8
2655_1 RAHMEN
390
0
100
AcDbLine
 10
26.7795971288
 20
135.4913670786
 30
0.0
 11
56.7795971288
 21
135.4913670786
 31
0.0
  0
LINE
  5
C4
100
AcDbEntity
  8
2655_1 RAHMEN
390
0
100
AcDbLine
 10
51.7795971288
 20
176.4913670786
 30
0.0
 11
45.7795971288
 21
176.4913670786
 31
0.0
  0
LINE
  5
C5
100
AcDbEntity
  8
2655_5 STELLHEBEL
390
0
100
AcDbLine
 10
158.0061531581
 20
79.899423074
 30
0.0
 11
135.0061531581
 21
79.899423074
 31
0.0
  0
LINE
  5
C6
100
AcDbEntity
  8
2655_5 STELLHEBEL
390
0
100
AcDbLine
 10
158.0061531581
 20
58.399423074
 30
0.0
 11
148.0061531581
 21
58.399423074
 31
0.0
  0
ARC
  5
C7
100
AcDbEntity
  8
2655_3 DREHHEBEL
390
0
100
AcDbCircle
 10
162.0061531581
 20
166.2581548427
 30
0.0
 40
1.5
100
AcDbArc
 50
270.0
 51
450.0
  0
CIRCLE
  5
C8
100
AcDbEntity
  8
2655_3 DREHHEBEL
390
0
100
AcDbCircle
 10
154.5061531581
 20
159.2581548427
 30
0.0
 40
0.5
  0
CIRCLE
  5
C9
100
AcDbEntity
  8
2655_3 DREHHEBEL
390
0
100
AcDbCircle
 10
156.5061531581
 20
157.2581548427
 30
0.0
 40
0.5
  0
LINE
  5
CA
100
AcDbEntity
  8
2655_5 STELLHEBEL
390
0
100
AcDbLine
 10
158.0061531581
 20
58.399423074
 30
0.0
 11
158.0061531581
 21
79.899423074
 31
0.0
  0
LINE
  5
CB
100
AcDbEntity
  8
2655_5 STELLHEBEL
390
0
100
AcDbLine
 10
150.0061531581
 20
58.399423074
 30
0.0
 11
150.0061531581
 21
79.899423074
 31
0.0
  0
LINE
  5
CC
100
AcDbEntity
  8
2655_3 DREHHEBEL
390
0
100
AcDbLine
 10
165.0061531581
 20
151.7581548427
 30
0.0
 11
135.0061531581
 21
151.7581548427
 31
0.0
  0
LINE
  5
CD
100
AcDbEntity
  8
2655_5 STELLHEBEL
390
0
100
AcDbLine
 10
154.0061531581
 20
79.899423074
 30
0.0
 11
152.0061531581
 21
79.899423074
 31
0.0
  0
LINE
  5
CE
100
AcDbEntity
  8
2655_1 RAHMEN
390
0
100
AcDbLine
 10
51.7795971288
 20
171.9913670786
 30
0.0
 11
54.7795971288
 21
171.9913670786
 31
0.0
  0
LINE
  5
CF
100
AcDbEntity
  8
2655_1 RAHMEN
390
0
100
AcDbLine
 10
51.7795971288
 20
156.4913670786
 30
0.0
 11
54.7795971288
 21
156.4913670786
 31
0.0
  0
LINE
  5
D0
100
AcDbEntity
  8
2655_1 RAHMEN
390
0
100
AcDbLine
 10
54.7795971288
 20
171.9913670786
 30
0.0
 11
54.7795971288
 21
156.4913670786
 31
0.0
  0
LINE
  5
D1
100
AcDbEntity
  8
2655_1 RAHMEN
390
0
100
AcDbLine
 10
56.7795971288
 20
180.4913670786
 30
0.0
 11
56.7795971288
 21
135.4913670786
 31
0.0
  0
LINE
  5
D2
100
AcDbEntity
  8
2655_1 RAHMEN
390
0
100
AcDbLine
 10
51.7795971288
 20
176.4913670786
 30
0.0
 11
51.7795971288
 21
171.9913670786
 31
0.0
  0
LINE
  5
D3
100
AcDbEntity
  8
2655_1 RAHMEN
390
0
100
AcDbLine
 10
51.7795971288
 20
156.4913670786
 30
0.0
 11
51.7795971288
 21
139.4913670786
 31
0.0
  0
LINE
  5
D4
100
AcDbEntity
  8
2655_5 STELLHEBEL
390
0
100
AcDbLine
 10
148.0061531581
 20
62.399423074
 30
0.0
 11
135.0061531581
 21
62.399423074
 31
0.0
  0
CIRCLE
  5
D5
100
AcDbEntity
  8
2655_6P
390
0
100
AcDbCircle
 10
96.0660565585
 20
39.2774051804
 30
0.0
 40
1.25
  0
CIRCLE
  5
D6
100
AcDbEntity
  8
2655_1P
390
0
100
AcDbCircle
 10
38.7795971288
 20
140.4913670786
 30
0.0
 40
1.25
  0
LINE
  5
D7
100
AcDbEntity
  8
2655_5 STELLHEBEL
390
0
100
AcDbLine
 10
93.0660565585
 20
39.2774051804
 30
0.0
 11
93.0660565585
 21
26.2851713644
 31
0.0
  0
ARC
  5
D8
100
AcDbEntity
  8
2655_5 STELLHEBEL
390
0
100
AcDbCircle
 10
96.0660565585
 20
39.2774051804
 30
0.0
 40
3.0
100
AcDbArc
 50
79.8244584105
 51
180.0
  0
LINE
  5
D9
100
AcDbEntity
  8
2655_5 STELLHEBEL
390
0
100
AcDbLine
 10
96.5960503314
 20
42.230218517
 30
0.0
 11
104.9235823635
 21
40.7355286677
 31
0.0
  0
CIRCLE
  5
DA
100
AcDbEntity
  8
2655_6P
390
0
100
AcDbCircle
 10
95.6167677093
 20
26.2851713644
 30
0.0
 40
1.25
  0
CIRCLE
  5
DB
100
AcDbEntity
  8
2655_6P
390
0
100
AcDbCircle
 10
101.7256154536
 20
38.2615837823
 30
0.0
 40
1.25
  0
CIRCLE
  5
DC
100
AcDbEntity
  8
2655_6P
390
0
100
AcDbCircle
 10
104.9244965682
 20
37.6874238616
 30
0.0
 40
1.25
  0
CIRCLE
  5
DD
100
AcDbEntity
  8
2655_6P
390
0
100
AcDbCircle
 10
95.7550104322
 20
30.2827817693
 30
0.0
 40
1.25
  0
LINE
  5
DE
100
AcDbEntity
  8
2655_1 RAHMEN
390
0
100
AcDbLine
 10
26.7795971288
 20
113.7979347356
 30
0.0
 11
26.7795971288
 21
53.7979347356
 31
0.0
  0
LINE
  5
DF
100
AcDbEntity
  8
2655_1 RAHMEN
390
0
100
AcDbLine
 10
45.7795971288
 20
57.7979347356
 30
0.0
 11
51.7795971288
 21
57.7979347356
 31
0.0
  0
LINE
  5
E0
100
AcDbEntity
  8
2655_1 RAHMEN
390
0
100
AcDbLine
 10
45.7795971288
 20
109.7979347356
 30
0.0
 11
45.7795971288
 21
57.7979347356
 31
0.0
  0
LINE
  5
E1
100
AcDbEntity
  8
2655_1 RAHMEN
390
0
100
AcDbLine
 10
26.7795971288
 20
113.7979347356
 30
0.0
 11
56.7795971288
 21
113.7979347356
 31
0.0
  0
LINE
  5
E2
100
AcDbEntity
  8
2655_1 RAHMEN
390
0
100
AcDbLine
 10
26.7795971288
 20
53.7979347356
 30
0.0
 11
56.7795971288
 21
53.7979347356
 31
0.0
  0
LINE
  5
E3
100
AcDbEntity
  8
2655_1 RAHMEN
390
0
100
AcDbLine
 10
51.7795971288
 20
109.7979347356
 30
0.0
 11
45.7795971288
 21
109.7979347356
 31
0.0
  0
LINE
  5
E4
100
AcDbEntity
  8
2655_1 RAHMEN
390
0
100
AcDbLine
 10
51.7795971288
 20
105.2979347356
 30
0.0
 11
54.7795971288
 21
105.2979347356
 31
0.0
  0
LINE
  5
E5
100
AcDbEntity
  8
2655_1 RAHMEN
390
0
100
AcDbLine
 10
51.7795971288
 20
89.7979347356
 30
0.0
 11
54.7795971288
 21
89.7979347356
 31
0.0
  0
LINE
  5
E6
100
AcDbEntity
  8
2655_1 RAHMEN
390
0
100
AcDbLine
 10
54.7795971288
 20
105.2979347356
 30
0.0
 11
54.7795971288
 21
89.7979347356
 31
0.0
  0
LINE
  5
E7
100
AcDbEntity
  8
2655_1 RAHMEN
390
0
100
AcDbLine
 10
56.7795971288
 20
113.7979347356
 30
0.0
 11
56.7795971288
 21
53.7979347356
 31
0.0
  0
LINE
  5
E8
100
AcDbEntity
  8
2655_1 RAHMEN
390
0
100
AcDbLine
 10
51.7795971288
 20
109.7979347356
 30
0.0
 11
51.7795971288
 21
105.2979347356
 31
0.0
  0
LINE
  5
E9
100
AcDbEntity
  8
2655_1 RAHMEN
390
0
100
AcDbLine
 10
51.7795971288
 20
89.7979347356
 30
0.0
 11
51.7795971288
 21
57.7979347356
 31
0.0
  0
LINE
  5
EA
100
AcDbEntity
  8
2655_3 DREHHEBEL
390
0
100
AcDbLine
 10
150.0061531581
 20
134.0386609517
 30
0.0
 11
135.0061531581
 21
134.0386609518
 31
0.0
  0
LINE
  5
EB
100
AcDbEntity
  8
2655_3 DREHHEBEL
390
0
100
AcDbLine
 10
93.0660565585
 20
84.4916813221
 30
0.0
 11
108.0660565585
 21
84.4916813221
 31
0.0
  0
LINE
  5
EC
100
AcDbEntity
  8
2655_3 DREHHEBEL
390
0
100
AcDbLine
 10
108.0660565585
 20
84.4916813221
 30
0.0
 11
108.0660565585
 21
74.4916813221
 31
0.0
  0
LINE
  5
ED
100
AcDbEntity
  8
2655_3 DREHHEBEL
390
0
100
AcDbLine
 10
108.0660565585
 20
74.4916813221
 30
0.0
 11
93.0660565585
 21
74.4916813221
 31
0.0
  0
LINE
  5
EE
100
AcDbEntity
  8
2655_3 DREHHEBEL
390
0
100
AcDbLine
 10
93.0660565585
 20
74.4916813221
 30
0.0
 11
93.0660565585
 21
84.4916813221
 31
0.0
  0
LINE
  5
EF
100
AcDbEntity
  8
2655_3 DREHHEBEL
390
0
100
AcDbLine
 10
102.5660565585
 20
84.4916813221
 30
0.0
 11
102.5660565585
 21
74.4916813221
 31
0.0
  0
LINE
  5
F0
100
AcDbEntity
  8
2655_3 DREHHEBEL
390
0
100
AcDbLine
 10
106.5660565585
 20
74.4916813221
 30
0.0
 11
106.5660565585
 21
84.4916813221
 31
0.0
  0
CIRCLE
  5
F1
100
AcDbEntity
  8
2655_7P
390
0
100
AcDbCircle
 10
96.5660565585
 20
79.4916813221
 30
0.0
 40
1.5
  0
CIRCLE
  5
F2
100
AcDbEntity
  8
2655_7P
390
0
100
AcDbCircle
 10
104.5660565585
 20
79.4916813221
 30
0.0
 40
1.5
  0
LINE
  5
F3
100
AcDbEntity
  8
2655_3 DREHHEBEL
390
0
100
AcDbLine
 10
148.0061531581
 20
117.0386609518
 30
0.0
 11
135.0061531581
 21
117.0386609518
 31
0.0
  0
LINE
  5
F4
100
AcDbEntity
  8
2655_3 DREHHEBEL
390
0
100
AcDbLine
 10
135.0061531581
 20
169.7581548427
 30
0.0
 11
135.0061531581
 21
151.7581548427
 31
0.0
  0
LINE
  5
F5
100
AcDbEntity
  8
2655_3 DREHHEBEL
390
0
100
AcDbLine
 10
135.0061531581
 20
134.0386609518
 30
0.0
 11
135.0061531581
 21
117.0386609518
 31
0.0
  0
LINE
  5
F6
100
AcDbEntity
  8
2655_5 STELLHEBEL
390
0
100
AcDbLine
 10
135.0061531581
 20
79.899423074
 30
0.0
 11
135.0061531581
 21
62.399423074
 31
0.0
  0
CIRCLE
  5
F7
100
AcDbEntity
  8
2655_3L
390
0
100
AcDbCircle
 10
140.0061531581
 20
163.258154843
 30
0.0
 40
1.25
  0
CIRCLE
  5
F8
100
AcDbEntity
  8
2655_3L
390
0
100
AcDbCircle
 10
140.0061531581
 20
155.258154843
 30
0.0
 40
1.25
  0
CIRCLE
  5
F9
100
AcDbEntity
  8
2655_13L
390
0
100
AcDbCircle
 10
140.0061531581
 20
129.528195722
 30
0.0
 40
1.25
  0
CIRCLE
  5
FA
100
AcDbEntity
  8
2655_13L
390
0
100
AcDbCircle
 10
140.0061531581
 20
121.5281168409
 30
0.0
 40
1.25
  0
CIRCLE
  5
FB
100
AcDbEntity
  8
2655_5L
390
0
100
AcDbCircle
 10
140.0061531581
 20
75.899423074
 30
0.0
 40
1.25
  0
CIRCLE
  5
FC
100
AcDbEntity
  8
2655_5L
390
0
100
AcDbCircle
 10
140.0061531581
 20
67.899423074
 30
0.0
 40
1.25
  0
CIRCLE
  5
FD
100
AcDbEntity
  8
2655_5R
390
0
100
AcDbCircle
 10
155.0061531581
 20
61.899423074
 30
0.0
 40
1.25
  0
CIRCLE
  5
FE
100
AcDbEntity
  8
2655_5R
390
0
  6
DIVIDE
100
AcDbCircle
 10
154.0061531581
 20
71.899423074
 30
0.0
 40
1.0
  0
LINE
  5
FF
100
AcDbEntity
  8
2655_5 STELLHEBEL
390
0
100
AcDbLine
 10
107.2192835646
 20
35.6812094198
 30
0.0
 11
97.5370883313
 21
24.6063336463
 31
0.0
  0
ARC
  5
100
100
AcDbEntity
  8
2655_5 STELLHEBEL
390
0
100
AcDbCircle
 10
104.9244965682
 20
37.6874238616
 30
0.0
 40
3.0481049432
100
AcDbArc
 50
318.8384656383
 51
450.0171844722
  0
ARC
  5
101
100
AcDbEntity
  8
2655_5 STELLHEBEL
390
0
100
AcDbCircle
 10
95.6167677093
 20
26.2851713644
 30
0.0
 40
2.5507111509
100
AcDbArc
 50
180.0
 51
318.8384656383
  0
ARC
  5
102
100
AcDbEntity
  8
2655_2 SCHIEBER
390
0
100
AcDbCircle
 10
96.5660565585
 20
162.9349932172
 30
0.0
 40
1.5
100
AcDbArc
 50
0.0
 51
180.0
  0
ARC
  5
103
100
AcDbEntity
  8
2655_2 SCHIEBER
390
0
100
AcDbCircle
 10
96.5660565585
 20
142.9349932172
 30
0.0
 40
1.5
100
AcDbArc
 50
180.0
 51
360.0
  0
CIRCLE
  5
104
100
AcDbEntity
  8
2655_2P
390
0
100
AcDbCircle
 10
96.5660565585
 20
135.7928575934
 30
0.0
 40
1.25
  0
ARC
  5
105
100
AcDbEntity
  8
2655_2 SCHIEBER
390
0
100
AcDbCircle
 10
101.5660565585
 20
125.4349932172
 30
0.0
 40
1.5
100
AcDbArc
 50
180.0
 51
360.0
  0
ARC
  5
106
100
AcDbEntity
  8
2655_2 SCHIEBER
390
0
100
AcDbCircle
 10
101.5660565585
 20
145.4349932172
 30
0.0
 40
1.5
100
AcDbArc
 50
0.0
 51
180.0
  0
LINE
  5
107
100
AcDbEntity
  8
2655_2 SCHIEBER
390
0
100
AcDbLine
 10
93.0660565585
 20
102.7949932172
 30
0.0
 11
93.0660565585
 21
177.7949932172
 31
0.0
  0
LINE
  5
108
100
AcDbEntity
  8
2655_2 SCHIEBER
390
0
100
AcDbLine
 10
100.0660565585
 20
145.4349932172
 30
0.0
 11
100.0660565585
 21
125.4349932172
 31
0.0
  0
LINE
  5
109
100
AcDbEntity
  8
2655_2 SCHIEBER
390
0
100
AcDbLine
 10
103.0660565585
 20
145.4349932172
 30
0.0
 11
103.0660565585
 21
125.4349932172
 31
0.0
  0
LINE
  5
10A
100
AcDbEntity
  8
2655_2 SCHIEBER
390
0
100
AcDbLine
 10
108.0660565585
 20
102.7949932172
 30
0.0
 11
108.0660565585
 21
177.7949932172
 31
0.0
  0
LINE
  5
10B
100
AcDbEntity
  8
2655_2 SCHIEBER
390
0
100
AcDbLine
 10
95.0660565585
 20
162.9349932172
 30
0.0
 11
95.0660565585
 21
142.9349932172
 31
0.0
  0
LINE
  5
10C
100
AcDbEntity
  8
2655_2 SCHIEBER
390
0
100
AcDbLine
 10
98.0660565585
 20
162.9349932172
 30
0.0
 11
98.0660565585
 21
142.9349932172
 31
0.0
  0
LINE
  5
10D
100
AcDbEntity
  8
2655_2 SCHIEBER
390
0
100
AcDbLine
 10
93.0660565585
 20
177.7949932172
 30
0.0
 11
108.0660565585
 21
177.7949932172
 31
0.0
  0
CIRCLE
  5
10E
100
AcDbEntity
  8
2655_2P
390
0
100
AcDbCircle
 10
98.0660565585
 20
105.7949932172
 30
0.0
 40
1.25
  0
CIRCLE
  5
10F
100
AcDbEntity
  8
2655_2P
390
0
100
AcDbCircle
 10
98.0660565585
 20
174.7949932172
 30
0.0
 40
1.25
  0
LINE
  5
110
100
AcDbEntity
  8
2655_2 SCHIEBER
390
0
100
AcDbLine
 10
93.0660565585
 20
102.7949932172
 30
0.0
 11
108.0660565585
 21
102.7949932172
 31
0.0
  0
MTEXT
  5
111
100
AcDbEntity
  8
BESCHRIFTUNG
390
0
100
AcDbMText
 10
42.0388030888
 20
44.7986872587
 30
0.0
 40
3.0
 41
0.0
 71
         1
 72
         1
  1
\W1.135077;Rahmen\PSchieber\PDrehhebel quer\PKuppeldraht\PStellhebel\PStellsegment\PKlemmstück\PAbstandsrohr\PRahmen lang\PDrehhebel längs\P
  7
Arial
 73
         1
 44
0.66
  0
MTEXT
  5
112
100
AcDbEntity
  8
BESCHRIFTUNG
390
0
100
AcDbMText
 10
24.0388030888
 20
44.7986872587
 30
0.0
 40
3.0
 41
0.0
 71
         1
 72
         1
  1
\W1.135138;2655.1\P2655.2\P2655.3\P2655.4\P2655.5\P2655.6\P2655.7\P2655.8\P2655.11\P2655.13\P\P
  7
Arial
 73
         1
 44
0.66
  0
TEXT
  5
113
100
AcDbEntity
  8
BESCHRIFTUNG
390
0
100
AcDbText
 10
16.2738416988
 20
190.0220849421
 30
0.0
 40
3.0
  1
2655.1
 41
1.1351381787
  7
Arial
 11
16.2738416988
 21
193.0220849421
 31
0.0
100
AcDbText
 73
         3
  0
TEXT
  5
114
100
AcDbEntity
  8
BESCHRIFTUNG
390
0
100
AcDbText
 10
17.045965251
 20
122.4103861004
 30
0.0
 40
3.0
  1
2655.11
 41
1.135139297
  7
Arial
 11
17.045965251
 21
125.4103861004
 31
0.0
100
AcDbText
 73
         3
  0
TEXT
  5
115
100
AcDbEntity
  8
BESCHRIFTUNG
390
0
100
AcDbText
 10
76.8855405405
 20
190.0220849421
 30
0.0
 40
3.0
  1
2655.2
 41
1.1351380459
  7
Arial
 11
76.8855405405
 21
193.0220849421
 31
0.0
100
AcDbText
 73
         3
  0
TEXT
  5
116
100
AcDbEntity
  8
BESCHRIFTUNG
390
0
100
AcDbText
 10
129.776003861
 20
190.7942084942
 30
0.0
 40
3.0
  1
2655.3
 41
1.1351382053
  7
Arial
 11
129.776003861
 21
193.7942084942
 31
0.0
100
AcDbText
 73
         3
  0
TEXT
  5
117
100
AcDbEntity
  8
BESCHRIFTUNG
390
0
100
AcDbText
 10
130.9341891892
 20
93.9115057915
 30
0.0
 40
3.0
  1
2655.5
 41
1.1351380725
  7
Arial
 11
130.9341891892
 21
96.9115057915
 31
0.0
100
AcDbText
 73
         3
  0
TEXT
  5
118
100
AcDbEntity
  8
BESCHRIFTUNG
390
0
100
AcDbText
 10
83.8346525097
 20
54.1919237568
 30
0.0
 40
3.0
  1
2655.6
 41
1.1351381787
  7
Arial
 11
83.8346525097
 21
57.1919237568
 31
0.0
100
AcDbText
 73
         3
  0
TEXT
  5
119
100
AcDbEntity
  8
BESCHRIFTUNG
390
0
100
AcDbText
 10
84.2207142857
 20
94.0212659004
 30
0.0
 40
3.0
  1
2655.7
 41
1.135138099
  7
Arial
 11
84.2207142857
 21
97.0212659004
 31
0.0
100
AcDbText
 73
         3
  0
TEXT
  5
11A
100
AcDbEntity
  8
BESCHRIFTUNG
390
0
100
AcDbText
 10
129.0038803089
 20
142.1504247104
 30
0.0
 40
3.0
  1
2655.13
 41
1.1351393195
  7
Arial
 11
129.0038803089
 21
145.1504247104
 31
0.0
100
AcDbText
 73
         3
  0
LINE
  5
11B
100
AcDbEntity
  8
2655_1P
390
0
  6
DIVIDE
100
AcDbLine
 10
26.7795971288
 20
181.4913670786
 30
0.0
 11
56.7795971288
 21
181.4913670786
 31
0.0
  0
LINE
  5
11C
100
AcDbEntity
  8
2655_1P
390
0
  6
DIVIDE
100
AcDbLine
 10
26.7795971288
 20
134.4913670786
 30
0.0
 11
56.7795971288
 21
134.4913670786
 31
0.0
  0
LINE
  5
11D
100
AcDbEntity
  8
2655_1P
390
0
100
AcDbLine
 10
46.7795971288
 20
175.4913670786
 30
0.0
 11
46.7795971288
 21
140.4913670786
 31
0.0
  0
LINE
  5
11E
100
AcDbEntity
  8
2655_1P
390
0
100
AcDbLine
 10
50.7795971288
 20
175.4913670786
 30
0.0
 11
46.7795971288
 21
175.4913670786
 31
0.0
  0
LINE
  5
11F
100
AcDbEntity
  8
2655_1P
390
0
100
AcDbLine
 10
50.7795971288
 20
170.9913670786
 30
0.0
 11
54.2795971288
 21
170.9913670786
 31
0.0
  0
LINE
  5
120
100
AcDbEntity
  8
2655_1P
390
0
100
AcDbLine
 10
50.7795971288
 20
175.4913670786
 30
0.0
 11
50.7795971288
 21
170.9913670786
 31
0.0
  0
LINE
  5
121
100
AcDbEntity
  8
2655_1P
390
0
100
AcDbLine
 10
50.7795971288
 20
157.4913670786
 30
0.0
 11
50.7795971288
 21
140.4913670786
 31
0.0
  0
LINE
  5
122
100
AcDbEntity
  8
2655_1P
390
0
100
AcDbLine
 10
46.7795971288
 20
140.4913670786
 30
0.0
 11
50.7795971288
 21
140.4913670786
 31
0.0
  0
LINE
  5
123
100
AcDbEntity
  8
2655_1P
390
0
100
AcDbLine
 10
54.2795971288
 20
170.9913670786
 30
0.0
 11
54.2795971288
 21
157.4913670786
 31
0.0
  0
LINE
  5
124
100
AcDbEntity
  8
2655_1P
390
0
100
AcDbLine
 10
50.7795971288
 20
157.4913670786
 30
0.0
 11
54.2795971288
 21
157.4913670786
 31
0.0
  0
CIRCLE
  5
125
100
AcDbEntity
  8
2655_1P
390
0
  6
PHANTOM
100
AcDbCircle
 10
26.7795971288
 20
181.4913670786
 30
0.0
 40
0.5
  0
CIRCLE
  5
126
100
AcDbEntity
  8
2655_1P
390
0
  6
PHANTOM
100
AcDbCircle
 10
26.7795971288
 20
134.4913670786
 30
0.0
 40
1.0
  0
LINE
  5
127
100
AcDbEntity
  8
2655_1P
390
0
  6
DASHED
100
AcDbLine
 10
56.7795971288
 20
181.4913670786
 30
0.0
 11
50.7795971288
 21
175.4913670786
 31
0.0
  0
LINE
  5
128
100
AcDbEntity
  8
2655_1P
390
0
  6
DASHED
100
AcDbLine
 10
50.7795971288
 20
175.4913670786
 30
0.0
 11
38.7795971288
 21
140.4913670786
 31
0.0
  0
LINE
  5
129
100
AcDbEntity
  8
2655_1P
390
0
  6
DASHED
100
AcDbLine
 10
38.7795971288
 20
140.4913670786
 30
0.0
 11
56.7795971288
 21
134.4913670786
 31
0.0
  0
TEXT
  5
12A
100
AcDbEntity
  8
2655_1P
390
0
  6
DASHED
100
AcDbText
 10
47.3322889979
 20
174.4563464393
 30
0.0
 40
1.5
  1
N1
 41
0.8648415648
  7
Arial
 11
47.3322889979
 21
175.9563464393
 31
0.0
100
AcDbText
 73
         3
  0
MTEXT
  5
12B
100
AcDbEntity
  8
2655_1P
390
0
100
AcDbMText
 10
17.2649258199
 20
187.0146738092
 30
0.0
 40
2.0
 41
0.0
 71
         1
 72
         1
  1
\W1.135101;M15x30x15 F150\PT2 O2 S4 I1,2\PB-0,3     D1,2
  7
Arial
 73
         1
 44
0.66
  0
MTEXT
  5
12C
100
AcDbEntity
  8
2655_11P
390
0
100
AcDbMText
 10
17.2649258199
 20
120.3212414662
 30
0.0
 40
2.0
 41
0.0
 71
         1
 72
         1
  1
\W1.135101;M15x30x15 F150\PT2 O2 S4 I1,2\PB-0,3     D1,2
  7
Arial
 73
         1
 44
0.66
  0
TEXT
  5
12D
100
AcDbEntity
  8
2655_11P
390
0
  6
DASHED
100
AcDbText
 10
47.3322889979
 20
107.7629140963
 30
0.0
 40
1.5
  1
N1
 41
0.8648415648
  7
Arial
 11
47.3322889979
 21
109.2629140963
 31
0.0
100
AcDbText
 73
         3
  0
LINE
  5
12E
100
AcDbEntity
  8
2655_11P
390
0
  6
DIVIDE
100
AcDbLine
 10
26.7795971288
 20
52.7979347356
 30
0.0
 11
56.7795971288
 21
52.7979347356
 31
0.0
  0
LINE
  5
12F
100
AcDbEntity
  8
2655_11P
390
0
100
AcDbLine
 10
46.7795971288
 20
108.7979347356
 30
0.0
 11
46.7795971288
 21
58.7979347356
 31
0.0
  0
LINE
  5
130
100
AcDbEntity
  8
2655_11P
390
0
  6
DIVIDE
100
AcDbLine
 10
26.7795971288
 20
114.7979347356
 30
0.0
 11
56.7795971288
 21
114.7979347356
 31
0.0
  0
LINE
  5
131
100
AcDbEntity
  8
2655_11P
390
0
  6
DASHED
100
AcDbLine
 10
50.7795971288
 20
108.7979347356
 30
0.0
 11
56.7795971288
 21
52.7979347356
 31
0.0
  0
LINE
  5
132
100
AcDbEntity
  8
2655_11P
390
0
100
AcDbLine
 10
50.7795971288
 20
108.7979347356
 30
0.0
 11
46.7795971288
 21
108.7979347356
 31
0.0
  0
LINE
  5
133
100
AcDbEntity
  8
2655_11P
390
0
100
AcDbLine
 10
54.2795971288
 20
104.2979347356
 30
0.0
 11
54.2795971288
 21
90.7979347356
 31
0.0
  0
LINE
  5
134
100
AcDbEntity
  8
2655_11P
390
0
100
AcDbLine
 10
50.7795971288
 20
104.2979347356
 30
0.0
 11
54.2795971288
 21
104.2979347356
 31
0.0
  0
LINE
  5
135
100
AcDbEntity
  8
2655_11P
390
0
  6
DASHED
100
AcDbLine
 10
56.7795971288
 20
114.7979347356
 30
0.0
 11
50.7795971288
 21
108.7979347356
 31
0.0
  0
LINE
  5
136
100
AcDbEntity
  8
2655_11P
390
0
100
AcDbLine
 10
50.7795971288
 20
90.7979347356
 30
0.0
 11
50.7795971288
 21
58.7979347356
 31
0.0
  0
LINE
  5
137
100
AcDbEntity
  8
2655_11P
390
0
100
AcDbLine
 10
50.7795971288
 20
90.7979347356
 30
0.0
 11
54.2795971288
 21
90.7979347356
 31
0.0
  0
LINE
  5
138
100
AcDbEntity
  8
2655_11P
390
0
100
AcDbLine
 10
50.7795971288
 20
108.7979347356
 30
0.0
 11
50.7795971288
 21
104.2979347356
 31
0.0
  0
LINE
  5
139
100
AcDbEntity
  8
2655_11P
390
0
100
AcDbLine
 10
46.7795971288
 20
58.7979347356
 30
0.0
 11
50.7795971288
 21
58.7979347356
 31
0.0
  0
CIRCLE
  5
13A
100
AcDbEntity
  8
2655_11P
390
0
  6
PHANTOM
100
AcDbCircle
 10
26.7795971288
 20
52.7979347356
 30
0.0
 40
1.0
  0
CIRCLE
  5
13B
100
AcDbEntity
  8
2655_11P
390
0
  6
PHANTOM
100
AcDbCircle
 10
26.7795971288
 20
114.7979347356
 30
0.0
 40
0.5
  0
LINE
  5
13C
100
AcDbEntity
  8
2655_2P
390
0
  6
DIVIDE
100
AcDbLine
 10
93.0660565585
 20
178.7949932172
 30
0.0
 11
108.0660565585
 21
178.7949932172
 31
0.0
  0
LINE
  5
13D
100
AcDbEntity
  8
2655_2P
390
0
  6
DIVIDE
100
AcDbLine
 10
93.0660565585
 20
101.7949932172
 30
0.0
 11
108.0660565585
 21
101.7949932172
 31
0.0
  0
LINE
  5
13E
100
AcDbEntity
  8
2655_2P
390
0
100
AcDbLine
 10
96.0660565585
 20
162.9349932172
 30
0.0
 11
96.0660565585
 21
142.9349932172
 31
0.0
  0
LINE
  5
13F
100
AcDbEntity
  8
2655_2P
390
0
100
AcDbLine
 10
97.0660565585
 20
162.9349932172
 30
0.0
 11
97.0660565585
 21
142.9349932172
 31
0.0
  0
LINE
  5
140
100
AcDbEntity
  8
2655_2P
390
0
100
AcDbLine
 10
101.0660565585
 20
145.4349932172
 30
0.0
 11
101.0660565585
 21
125.4349932172
 31
0.0
  0
LINE
  5
141
100
AcDbEntity
  8
2655_2P
390
0
100
AcDbLine
 10
102.0660565585
 20
145.4349932172
 30
0.0
 11
102.0660565585
 21
125.4349932172
 31
0.0
  0
ARC
  5
142
100
AcDbEntity
  8
2655_2P
390
0
100
AcDbCircle
 10
101.5660565585
 20
145.4349932172
 30
0.0
 40
0.5
100
AcDbArc
 50
0.0
 51
180.0
  0
ARC
  5
143
100
AcDbEntity
  8
2655_2P
390
0
100
AcDbCircle
 10
101.5660565585
 20
125.4349932172
 30
0.0
 40
0.5
100
AcDbArc
 50
180.0
 51
360.0
  0
ARC
  5
144
100
AcDbEntity
  8
2655_2P
390
0
100
AcDbCircle
 10
96.5660565585
 20
142.9349932172
 30
0.0
 40
0.5
100
AcDbArc
 50
180.0
 51
360.0
  0
ARC
  5
145
100
AcDbEntity
  8
2655_2P
390
0
100
AcDbCircle
 10
96.5660565585
 20
162.9349932172
 30
0.0
 40
0.5
100
AcDbArc
 50
0.0
 51
180.0
  0
LINE
  5
146
100
AcDbEntity
  8
2655_2P
390
0
  6
DASHED
100
AcDbLine
 10
108.0660565585
 20
178.7949932172
 30
0.0
 11
98.0660565585
 21
174.7949932172
 31
0.0
  0
LINE
  5
147
100
AcDbEntity
  8
2655_2P
390
0
  6
DASHED
100
AcDbLine
 10
98.0660565585
 20
174.7949932172
 30
0.0
 11
96.0660565585
 21
162.9349932172
 31
0.0
  0
LINE
  5
148
100
AcDbEntity
  8
2655_2P
390
0
  6
DASHED
100
AcDbLine
 10
96.0660565585
 20
162.9349932172
 30
0.0
 11
102.0660565585
 21
145.4349932172
 31
0.0
  0
LINE
  5
149
100
AcDbEntity
  8
2655_2P
390
0
  6
DASHED
100
AcDbLine
 10
102.0660565585
 20
145.4349932172
 30
0.0
 11
96.5660565585
 21
135.7928575934
 31
0.0
  0
LINE
  5
14A
100
AcDbEntity
  8
2655_2P
390
0
  6
DASHED
100
AcDbLine
 10
96.5660565585
 20
135.7928575934
 30
0.0
 11
98.0660565585
 21
105.7949932172
 31
0.0
  0
LINE
  5
14B
100
AcDbEntity
  8
2655_2P
390
0
  6
DASHED
100
AcDbLine
 10
98.0660565585
 20
105.7949932172
 30
0.0
 11
108.0660565585
 21
101.7949932172
 31
0.0
  0
CIRCLE
  5
14C
100
AcDbEntity
  8
2655_2P
390
0
  6
PHANTOM
100
AcDbCircle
 10
93.0660565585
 20
178.7949932172
 30
0.0
 40
0.5
  0
CIRCLE
  5
14D
100
AcDbEntity
  8
2655_2P
390
0
  6
PHANTOM
100
AcDbCircle
 10
93.0660565585
 20
101.7949932172
 30
0.0
 40
1.0
  0
MTEXT
  5
14E
100
AcDbEntity
  8
2655_2P
390
0
100
AcDbMText
 10
82.6815438763
 20
184.3182999477
 30
0.0
 40
2.0
 41
0.0
 71
         1
 72
         1
  1
\W1.135100;M15x2 F150\PT2 O2 S4 I1,2\PB-0,3     D1,2
  7
Arial
 73
         1
 44
0.66
  0
TEXT
  5
14F
100
AcDbEntity
  8
2655_2P
390
0
  6
DASHED
100
AcDbText
 10
99.7410961774
 20
134.8154812234
 30
0.0
 40
1.5
  1
N1
 41
0.8648415648
  7
Arial
 11
99.7410961774
 21
136.3154812234
 31
0.0
100
AcDbText
 73
         3
  0
TEXT
  5
150
100
AcDbEntity
  8
2655_2P
390
0
  6
DASHED
100
AcDbText
 10
94.6737737799
 20
156.8012415921
 30
0.0
 40
1.5
  1
N1
 41
0.8648415648
  7
Arial
 11
94.6737737799
 21
158.3012415921
 31
0.0
100
AcDbText
 73
         3
  0
CIRCLE
  5
151
100
AcDbEntity
  8
2655_7P
390
0
  6
PHANTOM
100
AcDbCircle
 10
93.0660565585
 20
73.4916813221
 30
0.0
 40
1.0
  0
LINE
  5
152
100
AcDbEntity
  8
2655_7P
390
0
  6
DIVIDE
100
AcDbLine
 10
93.0660565585
 20
73.4916813221
 30
0.0
 11
108.0660565585
 21
73.4916813221
 31
0.0
  0
LINE
  5
153
100
AcDbEntity
  8
2655_7P
390
0
  6
DIVIDE
100
AcDbLine
 10
93.0660565585
 20
85.4916813221
 30
0.0
 11
108.0660565585
 21
85.4916813221
 31
0.0
  0
CIRCLE
  5
154
100
AcDbEntity
  8
2655_7P
390
0
  6
PHANTOM
100
AcDbCircle
 10
93.0660565585
 20
85.4916813221
 30
0.0
 40
0.5
  0
LINE
  5
155
100
AcDbEntity
  8
2655_7P
390
0
  6
DIVIDE
100
AcDbLine
 10
103.5660565585
 20
84.4916813221
 30
0.0
 11
103.5660565585
 21
74.4916813221
 31
0.0
  0
LINE
  5
156
100
AcDbEntity
  8
2655_7P
390
0
  6
DIVIDE
100
AcDbLine
 10
105.5660565585
 20
74.4916813221
 30
0.0
 11
105.5660565585
 21
84.4916813221
 31
0.0
  0
LINE
  5
157
100
AcDbEntity
  8
2655_7P
390
0
  6
DASHED
100
AcDbLine
 10
108.0660565585
 20
85.4916813221
 30
0.0
 11
105.5660565585
 21
84.4916813221
 31
0.0
  0
LINE
  5
158
100
AcDbEntity
  8
2655_7P
390
0
  6
DASHED
100
AcDbLine
 10
104.5660565585
 20
79.4916813221
 30
0.0
 11
96.5660565585
 21
79.4916813221
 31
0.0
  0
ARC
  5
159
100
AcDbEntity
  8
2655_7P
390
0
  6
DASHED
100
AcDbCircle
 10
104.5660565585
 20
74.0910349476
 30
0.0
 40
1.0772731861
100
AcDbArc
 50
158.1666713103
 51
381.8333286897
  0
MTEXT
  5
15A
100
AcDbEntity
  8
2655_7P
390
0
100
AcDbMText
 10
82.6815438763
 20
91.0149880527
 30
0.0
 40
2.0
 41
0.0
 71
         1
 72
         1
  1
\W1.135100;M15x2 F150\PT2 O2 S4 I1,2\PB-0,3     D1,5
  7
Arial
 73
         1
 44
0.66
  0
LINE
  5
15B
100
AcDbEntity
  8
2655_6P
390
0
  6
DIVIDE
100
AcDbLine
 10
96.7727149224
 20
43.2144896292
 30
0.0
 11
105.0187250012
 21
41.7344319705
 31
0.0
  0
LINE
  5
15C
100
AcDbEntity
  8
2655_6P
390
0
  6
DIVIDE
100
AcDbLine
 10
107.9721405164
 20
35.0230252434
 30
0.0
 11
98.2899452831
 21
23.9481494698
 31
0.0
  0
ARC
  5
15D
100
AcDbEntity
  8
2655_6P
390
0
100
AcDbCircle
 10
96.0660565585
 20
39.2774051804
 30
0.0
 40
4.0
100
AcDbArc
 50
79.8244584105
 51
180.0
  0
ARC
  5
15E
100
AcDbEntity
  8
2655_6P
390
0
100
AcDbCircle
 10
104.9244965682
 20
37.6874238616
 30
0.0
 40
4.0481049432
100
AcDbArc
 50
318.8384656383
 51
448.6661958479
  0
ARC
  5
15F
100
AcDbEntity
  8
2655_6P
390
0
100
AcDbCircle
 10
95.6167677093
 20
26.2851713644
 30
0.0
 40
3.5507111509
100
AcDbArc
 50
180.0
 51
318.8384656383
  0
CIRCLE
  5
160
100
AcDbEntity
  8
2655_6P
390
0
  6
PHANTOM
100
AcDbCircle
 10
92.0660565585
 20
43.5401688624
 30
0.0
 40
0.5
  0
CIRCLE
  5
161
100
AcDbEntity
  8
2655_6P
390
0
  6
PHANTOM
100
AcDbCircle
 10
92.0660565585
 20
22.5401688623
 30
0.0
 40
1.0
  0
LINE
  5
162
100
AcDbEntity
  8
2655_6P
390
0
  6
DASHED
100
AcDbLine
 10
92.0660565585
 20
43.5401688624
 30
0.0
 11
96.0660565585
 21
39.2774051804
 31
0.0
  0
LINE
  5
163
100
AcDbEntity
  8
2655_6P
390
0
  6
DASHED
100
AcDbLine
 10
96.0660565585
 20
39.2774051804
 30
0.0
 11
95.7550104322
 21
30.2827817693
 31
0.0
  0
LINE
  5
164
100
AcDbEntity
  8
2655_6P
390
0
  6
DASHED
100
AcDbLine
 10
95.7550104322
 20
30.2827817693
 30
0.0
 11
95.6167677093
 21
26.2851713644
 31
0.0
  0
LINE
  5
165
100
AcDbEntity
  8
2655_6P
390
0
  6
DASHED
100
AcDbLine
 10
95.6167677093
 20
26.2851713644
 30
0.0
 11
101.7256154536
 21
38.2615837823
 31
0.0
  0
LINE
  5
166
100
AcDbEntity
  8
2655_6P
390
0
  6
DASHED
100
AcDbLine
 10
104.9244965682
 20
37.6874238616
 30
0.0
 11
101.7256154536
 21
38.2615837823
 31
0.0
  0
MTEXT
  5
167
100
AcDbEntity
  8
2655_6P
390
0
100
AcDbMText
 10
81.6815438763
 20
49.563475593
 30
0.0
 40
2.0
 41
0.0
 71
         1
 72
         1
  1
\W1.135100;M15x2 F150\PT2 O2 S4 I1,2\PB-0,3     D1,5
  7
Arial
 73
         1
 44
0.66
  0
LINE
  5
168
100
AcDbEntity
  8
2655_3 DREHHEBEL
390
0
100
AcDbLine
 10
148.0061531581
 20
176.12422359
 30
0.0
 11
148.0061531581
 21
169.7581548427
 31
0.0
  0
LINE
  5
169
100
AcDbEntity
  8
2655_5 STELLHEBEL
390
0
100
AcDbLine
 10
148.0061531581
 20
58.399423074
 30
0.0
 11
148.0061531581
 21
62.399423074
 31
0.0
  0
LINE
  5
16A
100
AcDbEntity
  8
2655_3 DREHHEBEL
390
0
100
AcDbLine
 10
148.0061531581
 20
176.12422359
 30
0.0
 11
150.0061531581
 21
176.1242235899
 31
0.0
  0
LINE
  5
16B
100
AcDbEntity
  8
2655_3L
390
0
100
AcDbLine
 10
147.0061531581
 20
176.12422359
 30
0.0
 11
147.0061531581
 21
170.7581548427
 31
0.0
  0
LINE
  5
16C
100
AcDbEntity
  8
2655_3L
390
0
100
AcDbLine
 10
147.0061531581
 20
170.7581548427
 30
0.0
 11
135.0061531581
 21
170.7581548427
 31
0.0
  0
LINE
  5
16D
100
AcDbEntity
  8
2655_3R
390
0
  6
DIVIDE
100
AcDbLine
 10
166.0061531581
 20
150.7581548427
 30
0.0
 11
150.0061531581
 21
150.7581548427
 31
0.0
  0
LINE
  5
16E
100
AcDbEntity
  8
2655_3R
390
0
100
AcDbLine
 10
166.0061531581
 20
169.0041215351
 30
0.0
 11
166.0061531581
 21
150.7581548427
 31
0.0
  0
ARC
  5
16F
100
AcDbEntity
  8
2655_3R
390
0
  6
DIVIDE
100
AcDbCircle
 10
152.0061531581
 20
161.2581548427
 30
0.0
 40
16.0
100
AcDbArc
 50
28.9550243719
 51
97.6622556608
  0
LINE
  5
170
100
AcDbEntity
  8
2655_3R
390
0
100
AcDbLine
 10
156.5061531581
 20
171.2581548427
 30
0.0
 11
156.5061531581
 21
166.4652616238
 31
0.0
  0
LINE
  5
171
100
AcDbEntity
  8
2655_3R
390
0
100
AcDbLine
 10
157.5061531581
 20
166.7581548427
 30
0.0
 11
157.5061531581
 21
171.2581548427
 31
0.0
  0
LINE
  5
172
100
AcDbEntity
  8
2655_3R
390
0
100
AcDbLine
 10
162.0061531581
 20
166.7581548427
 30
0.0
 11
157.5061531581
 21
166.7581548427
 31
0.0
  0
LINE
  5
173
100
AcDbEntity
  8
2655_3R
390
0
100
AcDbLine
 10
162.0061531581
 20
165.7581548427
 30
0.0
 11
157.6274735017
 21
165.7581548427
 31
0.0
  0
LINE
  5
174
100
AcDbEntity
  8
2655_3R
390
0
100
AcDbLine
 10
154.8522139778
 20
164.8113224435
 30
0.0
 11
156.5061531581
 21
166.4652616238
 31
0.0
  0
ARC
  5
175
100
AcDbEntity
  8
2655_3R
390
0
100
AcDbCircle
 10
157.0061531581
 20
171.2581548427
 30
0.0
 40
0.5
100
AcDbArc
 50
0.0
 51
180.0
  0
ARC
  5
176
100
AcDbEntity
  8
2655_3R
390
0
100
AcDbCircle
 10
162.0061531581
 20
166.2581548427
 30
0.0
 40
0.5
100
AcDbArc
 50
270.0
 51
450.0
  0
ARC
  5
177
100
AcDbEntity
  8
2655_3R
390
0
100
AcDbCircle
 10
155.2057673684
 20
164.4577690529
 30
0.0
 40
0.5
100
AcDbArc
 50
134.9999999997
 51
315.0000000004
  0
LINE
  5
178
100
AcDbEntity
  8
2655_13R
390
0
  6
DIVIDE
100
AcDbLine
 10
165.0061531584
 20
135.0386609516
 30
0.0
 11
150.0061531583
 21
135.0386609517
 31
0.0
  0
LINE
  5
179
100
AcDbEntity
  8
2655_13L
390
0
  6
DIVIDE
100
AcDbLine
 10
147.0061531581
 20
116.0386609518
 30
0.0
 11
135.0061531581
 21
116.0386609518
 31
0.0
  0
LINE
  5
17A
100
AcDbEntity
  8
2655_5L
390
0
100
AcDbLine
 10
147.0061531581
 20
61.399423074
 30
0.0
 11
135.0061531581
 21
61.399423074
 31
0.0
  0
LINE
  5
17B
100
AcDbEntity
  8
2655_5L
390
0
100
AcDbLine
 10
147.0061531581
 20
58.399423074
 30
0.0
 11
147.0061531581
 21
61.399423074
 31
0.0
  0
LINE
  5
17C
100
AcDbEntity
  8
2655_5R
390
0
  6
DIVIDE
100
AcDbLine
 10
159.0061531581
 20
57.399423074
 30
0.0
 11
150.0061531581
 21
57.399423074
 31
0.0
  0
LINE
  5
17D
100
AcDbEntity
  8
2655_5R
390
0
100
AcDbLine
 10
159.0061531581
 20
57.399423074
 30
0.0
 11
159.0061531581
 21
80.899423074
 31
0.0
  0
LINE
  5
17E
100
AcDbEntity
  8
2655_5R
390
0
  6
DIVIDE
100
AcDbLine
 10
159.0061531581
 20
80.899423074
 30
0.0
 11
150.0061531581
 21
80.899423074
 31
0.0
  0
LINE
  5
17F
100
AcDbEntity
  8
2655_3L
390
0
  6
DIVIDE
100
AcDbLine
 10
135.0061531581
 20
177.2581548427
 30
0.0
 11
150.0061531581
 21
177.258154843
 31
0.0
  0
CIRCLE
  5
180
100
AcDbEntity
  8
2655_3R
390
0
  6
DIVIDE
100
AcDbCircle
 10
154.5061531581
 20
159.2581548427
 30
0.0
 40
1.0
  0
CIRCLE
  5
181
100
AcDbEntity
  8
2655_3R
390
0
  6
DIVIDE
100
AcDbCircle
 10
156.5061531581
 20
157.2581548427
 30
0.0
 40
1.0
  0
CIRCLE
  5
182
100
AcDbEntity
  8
2655_3L
390
0
  6
PHANTOM
100
AcDbCircle
 10
135.0061531581
 20
177.2581548427
 30
0.0
 40
0.5
  0
CIRCLE
  5
183
100
AcDbEntity
  8
2655_13L
390
0
  6
PHANTOM
100
AcDbCircle
 10
135.0061531581
 20
135.0386609518
 30
0.0
 40
0.5
  0
CIRCLE
  5
184
100
AcDbEntity
  8
2655_5L
390
0
  6
PHANTOM
100
AcDbCircle
 10
135.0061531581
 20
80.899423074
 30
0.0
 40
0.5
  0
CIRCLE
  5
185
100
AcDbEntity
  8
2655_3L
390
0
  6
PHANTOM
100
AcDbCircle
 10
135.0061531581
 20
150.7581548427
 30
0.0
 40
1.0
  0
CIRCLE
  5
186
100
AcDbEntity
  8
2655_3R
390
0
  6
PHANTOM
100
AcDbCircle
 10
149.8728198248
 20
177.2581548427
 30
0.0
 40
0.5
  0
CIRCLE
  5
187
100
AcDbEntity
  8
2655_3R
390
0
  6
PHANTOM
100
AcDbCircle
 10
150.0061531581
 20
150.7581548427
 30
0.0
 40
1.0
  0
CIRCLE
  5
188
100
AcDbEntity
  8
2655_13R
390
0
  6
PHANTOM
100
AcDbCircle
 10
150.0061531581
 20
135.038660951
 30
0.0
 40
0.5
  0
CIRCLE
  5
189
100
AcDbEntity
  8
2655_13R
390
0
  6
PHANTOM
100
AcDbCircle
 10
150.0061531581
 20
107.1200021487
 30
0.0
 40
1.0
  0
CIRCLE
  5
18A
100
AcDbEntity
  8
2655_5R
390
0
  6
PHANTOM
100
AcDbCircle
 10
150.0061531581
 20
80.899423074
 30
0.0
 40
0.5
  0
CIRCLE
  5
18B
100
AcDbEntity
  8
2655_5R
390
0
  6
PHANTOM
100
AcDbCircle
 10
150.0061531581
 20
57.399423074
 30
0.0
 40
1.0
  0
LINE
  5
18C
100
AcDbEntity
  8
2655_3L
390
0
  6
DIVIDE
100
AcDbLine
 10
150.0061531581
 20
150.7581548427
 30
0.0
 11
135.0061531581
 21
150.7581548427
 31
0.0
  0
LINE
  5
18D
100
AcDbEntity
  8
2655_3L
390
0
  6
DASHED
100
AcDbLine
 10
150.0061531581
 20
177.258154843
 30
0.0
 11
147.0061531581
 21
176.12422359
 31
0.0
  0
LINE
  5
18E
100
AcDbEntity
  8
2655_3L
390
0
  6
DASHED
100
AcDbLine
 10
135.0061531581
 20
170.7581548427
 30
0.0
 11
140.0061531581
 21
163.258154843
 31
0.0
  0
LINE
  5
18F
100
AcDbEntity
  8
2655_3L
390
0
  6
DASHED
100
AcDbLine
 10
140.0061531581
 20
163.258154843
 30
0.0
 11
146.0061531581
 21
162.2581548427
 31
0.0
  0
LINE
  5
190
100
AcDbEntity
  8
2655_3L
390
0
  6
DASHED
100
AcDbLine
 10
140.0061531581
 20
155.258154843
 30
0.0
 11
150.0061531581
 21
150.7581548427
 31
0.0
  0
CIRCLE
  5
191
100
AcDbEntity
  8
2655_5L
390
0
  6
PHANTOM
100
AcDbCircle
 10
135.0061531581
 20
57.399423074
 30
0.0
 40
1.0
  0
LINE
  5
192
100
AcDbEntity
  8
2655_5L
390
0
  6
DIVIDE
100
AcDbLine
 10
150.0061531581
 20
57.399423074
 30
0.0
 11
135.0061531581
 21
57.399423074
 31
0.0
  0
LINE
  5
193
100
AcDbEntity
  8
2655_5L
390
0
  6
DIVIDE
100
AcDbLine
 10
150.0061531581
 20
80.899423074
 30
0.0
 11
135.0061531581
 21
80.899423074
 31
0.0
  0
LINE
  5
194
100
AcDbEntity
  8
2655_13L
390
0
  6
DIVIDE
100
AcDbLine
 10
150.0061531583
 20
135.0386609517
 30
0.0
 11
135.0061531581
 21
135.0386609518
 31
0.0
  0
LINE
  5
195
100
AcDbEntity
  8
2655_3R
390
0
  6
DASHED
100
AcDbLine
 10
150.0061531581
 20
150.758154843
 30
0.0
 11
156.5061531581
 21
157.2581548427
 31
0.0
  0
LINE
  5
196
100
AcDbEntity
  8
2655_3R
390
0
  6
DASHED
100
AcDbLine
 10
156.5061531581
 20
157.2581548427
 30
0.0
 11
157.6274735017
 21
165.7581548427
 31
0.0
  0
LINE
  5
197
100
AcDbEntity
  8
2655_3R
390
0
  6
DASHED
100
AcDbLine
 10
157.2132599393
 20
165.7581548426
 30
0.0
 11
152.5061531581
 21
161.2581548427
 31
0.0
  0
LINE
  5
198
100
AcDbEntity
  8
2655_3R
390
0
  6
DASHED
100
AcDbLine
 10
152.5061531581
 20
161.2581548427
 30
0.0
 11
154.5061531581
 21
159.2581548427
 31
0.0
  0
LINE
  5
199
100
AcDbEntity
  8
2655_3R
390
0
  6
DASHED
100
AcDbLine
 10
154.5061531581
 20
159.2581548427
 30
0.0
 11
150.0061531581
 21
150.758154843
 31
0.0
  0
LINE
  5
19A
100
AcDbEntity
  8
2655_13L
390
0
  6
DASHED
100
AcDbLine
 10
150.0061531581
 20
135.038660951
 30
0.0
 11
140.0061531581
 21
129.528195722
 31
0.0
  0
CIRCLE
  5
19B
100
AcDbEntity
  8
2655_13L
390
0
  6
PHANTOM
100
AcDbCircle
 10
135.0061531581
 20
107.120002148
 30
0.0
 40
1.0
  0
LINE
  5
19C
100
AcDbEntity
  8
2655_5L
390
0
  6
DASHED
100
AcDbLine
 10
150.0061531581
 20
80.899423074
 30
0.0
 11
140.0061531581
 21
75.899423074
 31
0.0
  0
LINE
  5
19D
100
AcDbEntity
  8
2655_5L
390
0
  6
DASHED
100
AcDbLine
 10
140.0061531581
 20
75.899423074
 30
0.0
 11
140.0061531581
 21
67.899423074
 31
0.0
  0
LINE
  5
19E
100
AcDbEntity
  8
2655_5L
390
0
  6
DASHED
100
AcDbLine
 10
140.0061531581
 20
67.899423074
 30
0.0
 11
135.0061531581
 21
61.399423074
 31
0.0
  0
LINE
  5
19F
100
AcDbEntity
  8
2655_5L
390
0
  6
DASHED
100
AcDbLine
 10
147.0061531581
 20
58.399423074
 30
0.0
 11
150.0061531581
 21
57.399423074
 31
0.0
  0
LINE
  5
1A0
100
AcDbEntity
  8
2655_5R
390
0
  6
DASHED
100
AcDbLine
 10
150.0061531581
 20
57.399423074
 30
0.0
 11
155.0061531581
 21
61.899423074
 31
0.0
  0
LINE
  5
1A1
100
AcDbEntity
  8
2655_5R
390
0
  6
DASHED
100
AcDbLine
 10
155.0061531581
 20
61.899423074
 30
0.0
 11
154.0061531581
 21
71.899423074
 31
0.0
  0
LINE
  5
1A2
100
AcDbEntity
  8
2655_5R
390
0
  6
DASHED
100
AcDbLine
 10
154.0061531581
 20
71.899423074
 30
0.0
 11
150.0061531581
 21
57.399423074
 31
0.0
  0
MTEXT
  5
1A3
100
AcDbEntity
  8
2655_5L
390
0
100
AcDbMText
 10
127.0110498467
 20
86.6951670073
 30
0.0
 40
2.0
 41
0.0
 71
         1
 72
         1
  1
\W0.810867;M15x15x2 F150\PT2 O2 S4 I1,2\PB-0,3     D1,5
  7
Arial
 73
         1
 44
0.66
  0
MTEXT
  5
1A4
100
AcDbEntity
  8
2655_13L
390
0
100
AcDbMText
 10
127.0110498467
 20
140.741331346
 30
0.0
 40
2.0
 41
0.0
 71
         1
 72
         1
  1
\W0.810867;M15x15x2 F150\PT2 O2 S4 I1,2\PB-0,3     D1,5
  7
Arial
 73
         1
 44
0.66
  0
MTEXT
  5
1A5
100
AcDbEntity
  8
2655_3L
390
0
100
AcDbMText
 10
127.0110498467
 20
182.9581868409
 30
0.0
 40
2.0
 41
0.0
 71
         1
 72
         1
  1
\W0.810867;M15x15x2 F150\PT2 O2 S4 I1,2\PB-0,3     D1,5
  7
Arial
 73
         1
 44
0.66
  0
MTEXT
  5
1A6
100
AcDbEntity
  8
2655_5R
390
0
100
AcDbMText
 10
144.0782596379
 20
86.6951670073
 30
0.0
 40
2.0
 41
0.0
 71
         1
 72
         1
  1
\W0.810867;M15x15x2 F150\PT2 O2 S4 I1,2\PB-0,3     D1,5
  7
Arial
 73
         1
 44
0.66
  0
MTEXT
  5
1A7
100
AcDbEntity
  8
2655_3R
390
0
100
AcDbMText
 10
144.0782596379
 20
182.9581868409
 30
0.0
 40
2.0
 41
0.0
 71
         1
 72
         1
  1
\W0.810867;M15x15x2 F150\PT2 O2 S4 I1,1\PB-0,3     D1,5
  7
Arial
 73
         1
 44
0.66
  0
MTEXT
  5
1A8
100
AcDbEntity
  8
2655_13R
390
0
100
AcDbMText
 10
144.0782596379
 20
140.741331346
 30
0.0
 40
2.0
 41
0.0
 71
         1
 72
         1
  1
\W0.810867;M15x15x2 F150\PT2 O2 S4 I1,2\PB-0,3     D1,5
  7
Arial
 73
         1
 44
0.66
  0
ARC
  5
1A9
100
AcDbEntity
  8
2655___ W-_ GSP-_ SIGNAL-ANTRIEB
390
0
  6
DASHDOT
100
AcDbCircle
 10
47.279912903
 20
157.9913670786
 30
0.0
 40
31.18513984
100
AcDbArc
 50
131.099943452
 51
228.900056548
  0
ARC
  5
1AA
100
AcDbEntity
  8
2655___ W-_ GSP-_ SIGNAL-ANTRIEB
390
0
  6
DASHDOT
100
AcDbCircle
 10
58.3963707734
 20
83.7979347356
 30
0.0
 40
44.2788931173
100
AcDbArc
 50
135.5643437355
 51
224.4356562645
  0
ARC
  5
1AB
100
AcDbEntity
  8
2655___ W-_ GSP-_ SIGNAL-ANTRIEB
390
0
  6
DASHDOT
100
AcDbCircle
 10
94.3319662682
 20
33.0401688624
 30
0.0
 40
10.7417106093
100
AcDbArc
 50
102.1777350264
 51
257.8222649736
  0
ARC
  5
1AC
100
AcDbEntity
  8
2655___ W-_ GSP-_ SIGNAL-ANTRIEB
390
0
  6
DASHDOT
100
AcDbCircle
 10
91.5426052305
 20
79.4916813221
 30
0.0
 40
6.1903880289
100
AcDbArc
 50
75.7531806114
 51
284.2468193886
  0
ARC
  5
1AD
100
AcDbEntity
  8
2655___ W-_ GSP-_ SIGNAL-ANTRIEB
390
0
  6
DASHDOT
100
AcDbCircle
 10
147.1315706721
 20
140.2949932172
 30
0.0
 40
66.3726586508
100
AcDbArc
 50
144.5453689783
 51
215.4546310217
  0
ARC
  5
1AE
100
AcDbEntity
  8
2655___ W-_ GSP-_ SIGNAL-ANTRIEB
390
0
  6
DASHDOT
100
AcDbCircle
 10
149.9309279743
 20
121.0793315499
 30
0.0
 40
20.4355518806
100
AcDbArc
 50
136.9143872695
 51
223.0856127305
  0
ARC
  5
1AF
100
AcDbEntity
  8
2655___ W-_ GSP-_ SIGNAL-ANTRIEB
390
0
  6
DASHDOT
100
AcDbCircle
 10
138.2794876882
 20
69.149423074
 30
0.0
 40
12.1974267346
100
AcDbArc
 50
105.5668619388
 51
254.4331380612
  0
ARC
  5
1B0
100
AcDbEntity
  8
2655___ W-_ GSP-_ SIGNAL-ANTRIEB
390
0
  6
DASHDOT
100
AcDbCircle
 10
141.2537306288
 20
164.0081548427
 30
0.0
 40
14.6490519916
100
AcDbArc
 50
115.2445938472
 51
244.7554061528
  0
MTEXT
  5
1B1
100
AcDbEntity
  8
2655___ W-_ GSP-_ SIGNAL-ANTRIEB
390
0
100
AcDbMText
 10
122.4504044078
 20
166.5226532781
 30
0.0
 40
2.0
 41
0.0
 71
         1
 72
         1
  1
\W0.810845;>2655.3L\PM15x15x2\PT2 O2
  7
Arial
 73
         1
 44
0.66
  0
MTEXT
  5
1B2
100
AcDbEntity
  8
2655___ W-_ GSP-_ SIGNAL-ANTRIEB
390
0
100
AcDbMText
 10
122.4504044078
 20
124.3031593872
 30
0.0
 40
2.0
 41
0.0
 71
         1
 72
         1
  1
\W0.810848;>2655.13L\PM15x15x2\PT2 O2
  7
Arial
 73
         1
 44
0.66
  0
MTEXT
  5
1B3
100
AcDbEntity
  8
2655___ W-_ GSP-_ SIGNAL-ANTRIEB
390
0
100
AcDbMText
 10
122.4504044078
 20
70.1639215094
 30
0.0
 40
2.0
 41
0.0
 71
         1
 72
         1
  1
\W0.810845;>2655.5L\PM15x15x2\PT2 O2
  7
Arial
 73
         1
 44
0.66
  0
MTEXT
  5
1B4
100
AcDbEntity
  8
2655___ W-_ GSP-_ SIGNAL-ANTRIEB
390
0
100
AcDbMText
 10
76.604637792
 20
142.8094916526
 30
0.0
 40
2.0
 41
0.0
 71
         1
 72
         1
  1
\W0.810845;>2655.2P\PM15x2\PT2 O2
  7
Arial
 73
         1
 44
0.66
  0
MTEXT
  5
1B5
100
AcDbEntity
  8
2655___ W-_ GSP-_ SIGNAL-ANTRIEB
390
0
100
AcDbMText
 10
81.1979429723
 20
82.0061797576
 30
0.0
 40
2.0
 41
0.0
 71
         1
 72
         1
  1
\W0.810845;>2655.7P\PM15x2\PT2 O2
  7
Arial
 73
         1
 44
0.66
  0
MTEXT
  5
1B6
100
AcDbEntity
  8
2655___ W-_ GSP-_ SIGNAL-ANTRIEB
390
0
100
AcDbMText
 10
79.4359814296
 20
35.5546672978
 30
0.0
 40
2.0
 41
0.0
 71
         1
 72
         1
  1
\W0.810845;>2655.6P\PM15x2\PT2 O2
  7
Arial
 73
         1
 44
0.66
  0
MTEXT
  5
1B7
100
AcDbEntity
  8
2655___ W-_ GSP-_ SIGNAL-ANTRIEB
390
0
100
AcDbMText
 10
9.9632034268
 20
86.3124331711
 30
0.0
 40
2.0
 41
0.0
 71
         1
 72
         1
  1
\W0.810848;>2655.11P\PM15x30x15\PT2 O2
  7
Arial
 73
         1
 44
0.66
  0
MTEXT
  5
1B8
100
AcDbEntity
  8
2655___ W-_ GSP-_ SIGNAL-ANTRIEB
390
0
100
AcDbMText
 10
11.9404988336
 20
160.505865514
 30
0.0
 40
2.0
 41
0.0
 71
         1
 72
         1
  1
\W0.810845;>2655.1P\PM15x30x15\PT2 O2
  7
Arial
 73
         1
 44
0.66
  0
MTEXT
  5
1B9
100
AcDbEntity
  8
2655_31L
390
0
100
AcDbMText
 10
261.837015962
 20
156.4983544386
 30
0.0
 40
2.0
 41
0.0
 71
         1
 72
         1
  1
\W0.810848;>2655.13L\PM15x15x2\PT2 O2
  7
Arial
 73
         1
 44
0.66
  0
MTEXT
  5
1BA
100
AcDbEntity
  8
2655_21L
390
0
100
AcDbMText
 10
204.7295919609
 20
127.0627751924
 30
0.0
 40
2.0
 41
0.0
 71
         1
 72
         1
  1
\W0.810845;>2655.5L\PM15x15x2\PT2 O2
  7
Arial
 73
         1
 44
0.66
  0
MTEXT
  5
1BB
100
AcDbEntity
  8
2655_22L
390
0
100
AcDbMText
 10
224.7295919609
 20
154.9814339962
 30
0.0
 40
2.0
 41
0.0
 71
         1
 72
         1
  1
\W0.810845;>2655.3L\PM15x15x2\PT2 O2
  7
Arial
 73
         1
 44
0.66
  0
MTEXT
  5
1BC
100
AcDbEntity
  8
2655_32L
390
0
100
AcDbMText
 10
284.729591961
 20
154.9814339962
 30
0.0
 40
2.0
 41
0.0
 71
         1
 72
         1
  1
\W0.810845;>2655.3L\PM15x15x2\PT2 O2
  7
Arial
 73
         1
 44
0.66
  0
MTEXT
  5
1BD
100
AcDbEntity
  8
2655_30P
390
0
100
AcDbMText
 10
243.2804670116
 20
68.5410459672
 30
0.0
 40
2.0
 41
0.0
 71
         1
 72
         1
  1
\W0.810845;>2655.6P\PM15x2\PT2 O2
  7
Arial
 73
         1
 44
0.66
  0
MTEXT
  5
1BE
100
AcDbEntity
  8
2655_22L
390
0
100
AcDbMText
 10
224.7295919609
 20
128.4814339962
 30
0.0
 40
2.0
 41
0.0
 71
         1
 72
         1
  1
\W0.810845;>2655.5L\PM15x15x2\PT2 O2
  7
Arial
 73
         1
 44
0.66
  0
MTEXT
  5
1BF
100
AcDbEntity
  8
2655_21L
390
0
100
AcDbMText
 10
201.5631876952
 20
157.6954947954
 30
0.0
 40
2.0
 41
0.0
 71
         1
 72
         1
  1
\W0.810848;>2655.13L\PM15x15x2\PT2 O2
  7
Arial
 73
         1
 44
0.66
  0
MTEXT
  5
1C0
100
AcDbEntity
  8
BESCHRIFTUNG
390
0
  6
DASHDOT
100
AcDbMText
 10
230.3482234441
 20
187.3452761516
 30
0.0
 40
2.5
 41
0.0
 71
         1
 72
         1
  1
\W1.135104;\L2655.30P\PS,Gs quer\P& längs
  7
Arial
 73
         1
 44
0.66
  0
MTEXT
  5
1C1
100
AcDbEntity
  8
BESCHRIFTUNG
390
0
  6
DASHDOT
100
AcDbMText
 10
251.4231409229
 20
187.2700627156
 30
0.0
 40
2.5
 41
0.0
 71
         1
 72
         1
  1
\W1.135140;\L2655.31L\PS, Gs\Plängs
  7
Arial
 73
         1
 44
0.66
  0
MTEXT
  5
1C2
100
AcDbEntity
  8
BESCHRIFTUNG
390
0
  6
DASHDOT
100
AcDbMText
 10
270.92781626
 20
187.1531277772
 30
0.0
 40
2.5
 41
0.0
 71
         1
 72
         1
  1
\W1.135140;\L2655.32L\PS, Gs\Pquer
  7
Arial
 73
         1
 44
0.66
  0
MTEXT
  5
1C3
100
AcDbEntity
  8
BESCHRIFTUNG
390
0
  6
DASHDOT
100
AcDbMText
 10
171.5932708759
 20
188.0259571684
 30
0.0
 40
2.5
 41
0.0
 71
         1
 72
         1
  1
\W1.135104;\L2655.20P\PW quer\P& längs
  7
Arial
 73
         1
 44
0.66
  0
MTEXT
  5
1C4
100
AcDbEntity
  8
2655_20P
390
0
100
AcDbMText
 10
180.9534625884
 20
74.2314339962
 30
0.0
 40
2.0
 41
0.0
 71
         1
 72
         1
  1
\W0.810845;>2655.7P\PM15x2\PT2 O2
  7
Arial
 73
         1
 44
0.66
  0
MTEXT
  5
1C5
100
AcDbEntity
  8
2655_20P
390
0
100
AcDbMText
 10
185.5467677687
 20
129.7314339962
 30
0.0
 40
2.0
 41
0.0
 71
         1
 72
         1
  1
\W0.810845;>2655.2P\PM15x2\PT2 O2
  7
Arial
 73
         1
 44
0.66
  0
MTEXT
  5
1C6
100
AcDbEntity
  8
BESCHRIFTUNG
390
0
  6
DASHDOT
100
AcDbMText
 10
210.8901201842
 20
187.5048508292
 30
0.0
 40
2.5
 41
0.0
 71
         1
 72
         1
  1
\W1.135140;\L2655.22L\PW quer
  7
Arial
 73
         1
 44
0.66
  0
MTEXT
  5
1C7
100
AcDbEntity
  8
2655_30P
390
0
100
AcDbMText
 10
245.5883593213
 20
129.7314339962
 30
0.0
 40
2.0
 41
0.0
 71
         1
 72
         1
  1
\W0.810845;>2655.2P\PM15x2\PT2 O2
  7
Arial
 73
         1
 44
0.66
  0
MTEXT
  5
1C8
100
AcDbEntity
  8
2655_20P
390
0
100
AcDbMText
 10
180.9534625884
 20
85.2314339962
 30
0.0
 40
2.0
 41
0.0
 71
         1
 72
         1
  1
\W0.810845;>2655.7P\PM15x2\PT2 O2
  7
Arial
 73
         1
 44
0.66
  0
MTEXT
  5
1C9
100
AcDbEntity
  8
BESCHRIFTUNG
390
0
  6
DASHDOT
100
AcDbMText
 10
191.6799066859
 20
187.6704981183
 30
0.0
 40
2.5
 41
0.0
 71
         1
 72
         1
  1
\W1.135140;\L2655.21L\PW längs
  7
Arial
 73
         1
 44
0.66
  0
ARC
  5
1CA
100
AcDbEntity
  8
2655_20P
390
0
  6
DASHDOT
100
AcDbCircle
 10
123.6143607526
 20
127.443107294
 30
0.0
 40
66.3726586508
100
AcDbArc
 50
324.5453689783
 51
395.4546310217
  0
ARC
  5
1CB
100
AcDbEntity
  8
2655_30P
390
0
  6
DASHDOT
100
AcDbCircle
 10
183.6559523052
 20
127.443107294
 30
0.0
 40
66.3726586508
100
AcDbArc
 50
324.5453689783
 51
395.4546310217
  0
ARC
  5
1CC
100
AcDbEntity
  8
2655_20P
390
0
  6
DASHDOT
100
AcDbCircle
 10
179.2033261942
 20
82.943107294
 30
0.0
 40
6.1903880289
100
AcDbArc
 50
255.7531806114
 51
464.2468193886
  0
ARC
  5
1CD
100
AcDbEntity
  8
2655_20P
390
0
  6
DASHDOT
100
AcDbCircle
 10
179.2033261942
 20
70.943107294
 30
0.0
 40
6.1903880289
100
AcDbArc
 50
255.7531806114
 51
464.2468193886
  0
ARC
  5
1CE
100
AcDbEntity
  8
2655_30P
390
0
  6
DASHDOT
100
AcDbCircle
 10
239.2449177468
 20
82.943107294
 30
0.0
 40
6.1903880289
100
AcDbArc
 50
255.7531806114
 51
464.2468193886
  0
ARC
  5
1CF
100
AcDbEntity
  8
2655_30P
390
0
  6
DASHDOT
100
AcDbCircle
 10
235.4555567091
 20
66.443107294
 30
0.0
 40
10.7417106093
100
AcDbArc
 50
282.1777350264
 51
437.8222649736
  0
ARC
  5
1D0
100
AcDbEntity
  8
2655_22L
390
0
  6
DASHDOT
100
AcDbCircle
 10
214.5207916041
 20
152.693107294
 30
0.0
 40
14.6490519916
100
AcDbArc
 50
295.2445938472
 51
424.7554061528
  0
ARC
  5
1D1
100
AcDbEntity
  8
2655_31L
390
0
  6
DASHDOT
100
AcDbCircle
 10
246.3435942586
 20
152.3698396682
 30
0.0
 40
20.4355518806
100
AcDbArc
 50
316.9143872695
 51
403.0856127305
  0
ARC
  5
1D2
100
AcDbEntity
  8
2655_22L
390
0
  6
DASHDOT
100
AcDbCircle
 10
217.4950345447
 20
127.6931072941
 30
0.0
 40
12.1974267346
100
AcDbArc
 50
285.5668619388
 51
434.4331380612
  0
ARC
  5
1D3
100
AcDbEntity
  8
2655_21L
390
0
  6
DASHDOT
100
AcDbCircle
 10
185.8435942586
 20
151.9837778921
 30
0.0
 40
20.4355518806
100
AcDbArc
 50
316.9143872695
 51
403.0856127305
  0
ARC
  5
1D4
100
AcDbEntity
  8
2655_21L
390
0
  6
DASHDOT
100
AcDbCircle
 10
197.4950345447
 20
126.2744484902
 30
0.0
 40
12.1974267346
100
AcDbArc
 50
285.5668619388
 51
434.4331380612
  0
ARC
  5
1D5
100
AcDbEntity
  8
2655_32L
390
0
  6
DASHDOT
100
AcDbCircle
 10
274.5207916041
 20
152.693107294
 30
0.0
 40
14.6490519916
100
AcDbArc
 50
295.2445938472
 51
424.7554061528
  0
MTEXT
  5
1D6
100
AcDbEntity
  8
2655_30P
390
0
100
AcDbMText
 10
240.995054141
 20
85.2314339962
 30
0.0
 40
2.0
 41
0.0
 71
         1
 72
         1
  1
\W0.810845;>2655.7P\PM15x2\PT2 O2
  7
Arial
 73
         1
 44
0.66
  0
CIRCLE
  5
1D7
100
AcDbEntity
  8
2655_20P
390
0
  6
PHANTOM
100
AcDbCircle
 10
177.6798748663
 20
165.943107294
 30
0.0
 40
0.5
  0
CIRCLE
  5
1D8
100
AcDbEntity
  8
2655_21L
390
0
  6
PHANTOM
100
AcDbCircle
 10
200.7683690747
 20
165.943107294
 30
0.0
 40
0.5
  0
CIRCLE
  5
1D9
100
AcDbEntity
  8
2655_22L
390
0
  6
PHANTOM
100
AcDbCircle
 10
220.7683690747
 20
165.943107294
 30
0.0
 40
0.5
  0
CIRCLE
  5
1DA
100
AcDbEntity
  8
2655_30P
390
0
  6
PHANTOM
100
AcDbCircle
 10
237.7214664189
 20
165.943107294
 30
0.0
 40
0.5
  0
CIRCLE
  5
1DB
100
AcDbEntity
  8
2655_31L
390
0
  6
PHANTOM
100
AcDbCircle
 10
261.2683690747
 20
166.3291690701
 30
0.0
 40
0.5
  0
CIRCLE
  5
1DC
100
AcDbEntity
  8
2655_32L
390
0
  6
PHANTOM
100
AcDbCircle
 10
280.7683690748
 20
165.943107294
 30
0.0
 40
0.5
  0
CIRCLE
  5
1DD
100
AcDbEntity
  8
2655_20P
390
0
  6
PHANTOM
100
AcDbCircle
 10
177.6798748663
 20
64.943107294
 30
0.0
 40
1.0
  0
CIRCLE
  5
1DE
100
AcDbEntity
  8
2655_21L
390
0
  6
PHANTOM
100
AcDbCircle
 10
200.7683690747
 20
114.5244484902
 30
0.0
 40
1.0
  0
CIRCLE
  5
1DF
100
AcDbEntity
  8
2655_22L
390
0
  6
PHANTOM
100
AcDbCircle
 10
220.7683690747
 20
115.9431072941
 30
0.0
 40
1.0
  0
CIRCLE
  5
1E0
100
AcDbEntity
  8
2655_30P
390
0
  6
PHANTOM
100
AcDbCircle
 10
237.7214664189
 20
55.9431072939
 30
0.0
 40
1.0
  0
CIRCLE
  5
1E1
100
AcDbEntity
  8
2655_31L
390
0
  6
PHANTOM
100
AcDbCircle
 10
261.2683690747
 20
138.4105102663
 30
0.0
 40
1.0
  0
CIRCLE
  5
1E2
100
AcDbEntity
  8
2655_32L
390
0
  6
PHANTOM
100
AcDbCircle
 10
280.7683690748
 20
139.443107294
 30
0.0
 40
1.0
  0
ARC
  5
1E3
100
AcDbEntity
  8
2655___ W-_ GSP-_ SIGNAL-ANTRIEB
390
0
  6
DASHDOT
100
AcDbCircle
 10
447.0081089465
 20
115.443107294
 30
0.0
 40
274.0218014552
100
AcDbArc
 50
169.380148233
 51
190.619851767
  0
ARC
  5
1E4
100
AcDbEntity
  8
2655___ W-_ GSP-_ SIGNAL-ANTRIEB
390
0
  6
DASHDOT
100
AcDbCircle
 10
331.059187947
 20
140.2337778922
 30
0.0
 40
132.8031140474
100
AcDbArc
 50
168.8376441109
 51
191.1623558892
  0
ARC
  5
1E5
100
AcDbEntity
  8
2655___ W-_ GSP-_ SIGNAL-ANTRIEB
390
0
  6
DASHDOT
100
AcDbCircle
 10
361.8172294728
 20
140.9431072941
 30
0.0
 40
143.2472722937
100
AcDbArc
 50
169.9490762726
 51
190.0509237274
  0
ARC
  5
1E6
100
AcDbEntity
  8
2655___ W-_ GSP-_ SIGNAL-ANTRIEB
390
0
  6
DASHDOT
100
AcDbCircle
 10
658.7042355487
 20
110.943107294
 30
0.0
 40
424.5603513097
100
AcDbArc
 50
172.5566547769
 51
187.4433452231
  0
ARC
  5
1E7
100
AcDbEntity
  8
2655___ W-_ GSP-_ SIGNAL-ANTRIEB
390
0
  6
DASHDOT
100
AcDbCircle
 10
301.8195428349
 20
152.3698396682
 30
0.0
 40
42.8866012955
100
AcDbArc
 50
161.004496318
 51
198.995503682
  0
ARC
  5
1E8
100
AcDbEntity
  8
2655___ W-_ GSP-_ SIGNAL-ANTRIEB
390
0
  6
DASHDOT
100
AcDbCircle
 10
325.3977836112
 20
152.693107294
 30
0.0
 40
46.5547757149
100
AcDbArc
 50
163.4644040358
 51
196.5355959642
  0
MTEXT
  5
1E9
100
AcDbEntity
  8
2655___ W-_ GSP-_ SIGNAL-ANTRIEB
390
0
100
AcDbMText
 10
193.6471770309
 20
149.3271406646
 30
0.0
 40
2.0
 41
0.0
 71
         1
 72
         1
  1
\W0.810848;>2655.21L\PM15x15x2\PT2 O2
  7
Arial
 73
         1
 44
0.66
  0
MTEXT
  5
1EA
100
AcDbEntity
  8
2655___ W-_ GSP-_ SIGNAL-ANTRIEB
390
0
100
AcDbMText
 10
273.647177031
 20
149.3271406646
 30
0.0
 40
2.0
 41
0.0
 71
         1
 72
         1
  1
\W0.810848;>2655.32L\PM15x15x2\PT2 O2
  7
Arial
 73
         1
 44
0.66
  0
MTEXT
  5
1EB
100
AcDbEntity
  8
2655___ W-_ GSP-_ SIGNAL-ANTRIEB
390
0
100
AcDbMText
 10
254.147177031
 20
149.7132024406
 30
0.0
 40
2.0
 41
0.0
 71
         1
 72
         1
  1
\W0.810848;>2655.31L\PM15x15x2\PT2 O2
  7
Arial
 73
         1
 44
0.66
  0
MTEXT
  5
1EC
100
AcDbEntity
  8
2655___ W-_ GSP-_ SIGNAL-ANTRIEB
390
0
100
AcDbMText
 10
213.647177031
 20
149.3271406646
 30
0.0
 40
2.0
 41
0.0
 71
         1
 72
         1
  1
\W0.810848;>2655.22L\PM15x15x2\PT2 O2
  7
Arial
 73
         1
 44
0.66
  0
MTEXT
  5
1ED
100
AcDbEntity
  8
2655___ W-_ GSP-_ SIGNAL-ANTRIEB
390
0
100
AcDbMText
 10
169.0723681623
 20
144.1251907995
 30
0.0
 40
2.0
 41
0.0
 71
         1
 72
         1
  1
\W0.810848;>2655.20P\PM15x2\PT2 O2
  7
Arial
 73
         1
 44
0.66
  0
MTEXT
  5
1EE
100
AcDbEntity
  8
2655___ W-_ GSP-_ SIGNAL-ANTRIEB
390
0
100
AcDbMText
 10
232.6608623708
 20
144.5112525755
 30
0.0
 40
2.0
 41
0.0
 71
         1
 72
         1
  1
\W0.810848;>2655.30P\PM15x2\PT2 O2
  7
Arial
 73
         1
 44
0.66
  0
MTEXT
  5
1EF
100
AcDbEntity
  8
2655_20P
390
0
100
AcDbMText
 10
170.4732644667
 20
171.2347622119
 30
0.0
 40
2.0
 41
0.0
 71
         1
 72
         1
  1
\W0.810867;M15x2 F150\PT2 O2 S4 I1,1\PB-0,3     D1,5
  7
Arial
 73
         1
 44
0.66
  0
MTEXT
  5
1F0
100
AcDbEntity
  8
2655_21L
390
0
100
AcDbMText
 10
194.0617586752
 20
171.2347622119
 30
0.0
 40
2.0
 41
0.0
 71
         1
 72
         1
  1
\W0.810867;M15x15x2 F150\PT2 O2 S4 I1,1\PB-0,3     D1,5
  7
Arial
 73
         1
 44
0.66
  0
MTEXT
  5
1F1
100
AcDbEntity
  8
2655_22L
390
0
100
AcDbMText
 10
214.0617586752
 20
171.2347622119
 30
0.0
 40
2.0
 41
0.0
 71
         1
 72
         1
  1
\W0.810867;M15x15x2 F150\PT2 O2 S4 I1,1\PB-0,3     D1,5
  7
Arial
 73
         1
 44
0.66
  0
MTEXT
  5
1F2
100
AcDbEntity
  8
2655_30P
390
0
100
AcDbMText
 10
230.5148560193
 20
171.7347622119
 30
0.0
 40
2.0
 41
0.0
 71
         1
 72
         1
  1
\W0.810867;M15x2 F150\PT2 O2 S4 I1,1\PB-0,3     D1,5
  7
Arial
 73
         1
 44
0.66
  0
MTEXT
  5
1F3
100
AcDbEntity
  8
2655_31L
390
0
100
AcDbMText
 10
253.5617586752
 20
171.6208239879
 30
0.0
 40
2.0
 41
0.0
 71
         1
 72
         1
  1
\W0.810867;M15x15x2 F150\PT2 O2 S4 I1,1\PB-0,3     D1,5
  7
Arial
 73
         1
 44
0.66
  0
MTEXT
  5
1F4
100
AcDbEntity
  8
2655_32L
390
0
100
AcDbMText
 10
273.5617586752
 20
171.7347622119
 30
0.0
 40
2.0
 41
0.0
 71
         1
 72
         1
  1
\W0.810867;M15x15x2 F150\PT2 O2 S4 I1,1\PB-0,3     D1,5
  7
Arial
 73
         1
 44
0.66
  0
ARC
  5
1F5
100
AcDbEntity
  8
2655___ W-_ GSP-_ SIGNAL-ANTRIEB
390
0
  6
DASHDOT
100
AcDbCircle
 10
58.9192503854
 20
-112.9895002206
 30
0.0
 40
44.2788931173
100
AcDbArc
 50
135.5643437355
 51
224.4356562645
  0
ARC
  5
1F6
100
AcDbEntity
  8
2655___ W-_ GSP-_ SIGNAL-ANTRIEB
390
0
  6
DASHDOT
100
AcDbCircle
 10
450.096603155
 20
-74.546892706
 30
0.0
 40
274.0218014552
100
AcDbArc
 50
169.380148233
 51
190.619851767
  0
ARC
  5
1F7
100
AcDbEntity
  8
2655___ W-_ GSP-_ SIGNAL-ANTRIEB
390
0
  6
DASHDOT
100
AcDbCircle
 10
331.059187947
 20
-49.7562221078
 30
0.0
 40
132.8031140474
100
AcDbArc
 50
168.8376441109
 51
191.1623558892
  0
ARC
  5
1F8
100
AcDbEntity
  8
2655___ W-_ GSP-_ SIGNAL-ANTRIEB
390
0
  6
DASHDOT
100
AcDbCircle
 10
361.8172294728
 20
-49.0468927059
 30
0.0
 40
143.2472722937
100
AcDbArc
 50
169.9490762726
 51
190.0509237274
  0
ARC
  5
1F9
100
AcDbEntity
  8
2655___ W-_ GSP-_ SIGNAL-ANTRIEB
390
0
  6
DASHDOT
100
AcDbCircle
 10
658.7042355487
 20
-79.046892706
 30
0.0
 40
424.5603513097
100
AcDbArc
 50
172.5566547769
 51
187.4433452231
  0
ARC
  5
1FA
100
AcDbEntity
  8
2655___ W-_ GSP-_ SIGNAL-ANTRIEB
390
0
  6
DASHDOT
100
AcDbCircle
 10
301.8195428349
 20
-37.6201603318
 30
0.0
 40
42.8866012955
100
AcDbArc
 50
161.004496318
 51
198.995503682
  0
ARC
  5
1FB
100
AcDbEntity
  8
2655___ W-_ GSP-_ SIGNAL-ANTRIEB
390
0
  6
DASHDOT
100
AcDbCircle
 10
325.3977836112
 20
-37.296892706
 30
0.0
 40
46.5547757149
100
AcDbArc
 50
163.4644040358
 51
196.5355959642
  0
ARC
  5
1FC
100
AcDbEntity
  8
2655___ W-_ GSP-_ SIGNAL-ANTRIEB
390
0
  6
DASHDOT
100
AcDbCircle
 10
47.802792515
 20
-38.7960678776
 30
0.0
 40
31.18513984
100
AcDbArc
 50
131.099943452
 51
228.900056548
  0
MTEXT
  5
1FD
100
AcDbEntity
  8
2655___ W-_ GSP-_ SIGNAL-ANTRIEB
390
0
100
AcDbMText
 10
10.4860830388
 20
-110.4750017851
 30
0.0
 40
2.0
 41
0.0
 71
         1
 72
         1
  1
\W0.810848;>2655.11P\PM15x30x15\PT2 O2
  7
Arial
 73
         1
 44
0.66
  0
MTEXT
  5
1FE
100
AcDbEntity
  8
2655___ W-_ GSP-_ SIGNAL-ANTRIEB
390
0
100
AcDbMText
 10
12.4633784457
 20
-36.2815694422
 30
0.0
 40
2.0
 41
0.0
 71
         1
 72
         1
  1
\W0.810845;>2655.1P\PM15x30x15\PT2 O2
  7
Arial
 73
         1
 44
0.66
  0
MTEXT
  5
1FF
100
AcDbEntity
  8
BESCHRIFTUNG
390
0
  6
DASHDOT
100
AcDbMText
 10
230.3482234441
 20
-2.6447238484
 30
0.0
 40
2.5
 41
0.0
 71
         1
 72
         1
  1
\W1.135104;\L2655.30P\PS,Gs quer\P& längs
  7
Arial
 73
         1
 44
0.66
  0
MTEXT
  5
200
100
AcDbEntity
  8
BESCHRIFTUNG
390
0
  6
DASHDOT
100
AcDbMText
 10
251.4231409229
 20
-2.7199372844
 30
0.0
 40
2.5
 41
0.0
 71
         1
 72
         1
  1
\W1.135140;\L2655.31L\PS, Gs\Plängs
  7
Arial
 73
         1
 44
0.66
  0
MTEXT
  5
201
100
AcDbEntity
  8
BESCHRIFTUNG
390
0
  6
DASHDOT
100
AcDbMText
 10
270.92781626
 20
-2.8368722228
 30
0.0
 40
2.5
 41
0.0
 71
         1
 72
         1
  1
\W1.135140;\L2655.32L\PS, Gs\Pquer
  7
Arial
 73
         1
 44
0.66
  0
MTEXT
  5
202
100
AcDbEntity
  8
BESCHRIFTUNG
390
0
  6
DASHDOT
100
AcDbMText
 10
171.5932708759
 20
-1.9640428316
 30
0.0
 40
2.5
 41
0.0
 71
         1
 72
         1
  1
\W1.135104;\L2655.20P\PW quer\P& längs
  7
Arial
 73
         1
 44
0.66
  0
MTEXT
  5
203
100
AcDbEntity
  8
BESCHRIFTUNG
390
0
  6
DASHDOT
100
AcDbMText
 10
210.8901201842
 20
-2.4851491708
 30
0.0
 40
2.5
 41
0.0
 71
         1
 72
         1
  1
\W1.135140;\L2655.22L\PW quer
  7
Arial
 73
         1
 44
0.66
  0
MTEXT
  5
204
100
AcDbEntity
  8
BESCHRIFTUNG
390
0
  6
DASHDOT
100
AcDbMText
 10
191.6799066859
 20
-2.3195018817
 30
0.0
 40
2.5
 41
0.0
 71
         1
 72
         1
  1
\W1.135140;\L2655.21L\PW längs
  7
Arial
 73
         1
 44
0.66
  0
MTEXT
  5
205
100
AcDbEntity
  8
2655___ W-_ GSP-_ SIGNAL-ANTRIEB
390
0
100
AcDbMText
 10
193.6471770309
 20
-40.6628593354
 30
0.0
 40
2.0
 41
0.0
 71
         1
 72
         1
  1
\W0.810848;>2655.21L\PM15x15x2\PT2 O2
  7
Arial
 73
         1
 44
0.66
  0
MTEXT
  5
206
100
AcDbEntity
  8
2655___ W-_ GSP-_ SIGNAL-ANTRIEB
390
0
100
AcDbMText
 10
273.647177031
 20
-40.6628593354
 30
0.0
 40
2.0
 41
0.0
 71
         1
 72
         1
  1
\W0.810848;>2655.32L\PM15x15x2\PT2 O2
  7
Arial
 73
         1
 44
0.66
  0
MTEXT
  5
207
100
AcDbEntity
  8
2655___ W-_ GSP-_ SIGNAL-ANTRIEB
390
0
100
AcDbMText
 10
254.147177031
 20
-40.2767975594
 30
0.0
 40
2.0
 41
0.0
 71
         1
 72
         1
  1
\W0.810848;>2655.31L\PM15x15x2\PT2 O2
  7
Arial
 73
         1
 44
0.66
  0
MTEXT
  5
208
100
AcDbEntity
  8
2655___ W-_ GSP-_ SIGNAL-ANTRIEB
390
0
100
AcDbMText
 10
213.647177031
 20
-40.6628593354
 30
0.0
 40
2.0
 41
0.0
 71
         1
 72
         1
  1
\W0.810848;>2655.22L\PM15x15x2\PT2 O2
  7
Arial
 73
         1
 44
0.66
  0
MTEXT
  5
209
100
AcDbEntity
  8
2655___ W-_ GSP-_ SIGNAL-ANTRIEB
390
0
100
AcDbMText
 10
172.1608623708
 20
-45.8648092005
 30
0.0
 40
2.0
 41
0.0
 71
         1
 72
         1
  1
\W0.810848;>2655.20P\PM15x2\PT2 O2
  7
Arial
 73
         1
 44
0.66
  0
MTEXT
  5
20A
100
AcDbEntity
  8
2655___ W-_ GSP-_ SIGNAL-ANTRIEB
390
0
100
AcDbMText
 10
232.6608623708
 20
-45.4787474245
 30
0.0
 40
2.0
 41
0.0
 71
         1
 72
         1
  1
\W0.810848;>2655.30P\PM15x2\PT2 O2
  7
Arial
 73
         1
 44
0.66
  0
LINE
  5
20B
100
AcDbEntity
  8
2655_3L
390
0
100
AcDbLine
 10
146.0061531581
 20
160.2581548427
 30
0.0
 11
146.0061531581
 21
161.7581548427
 31
0.0
  0
LINE
  5
20C
100
AcDbEntity
  8
2655_3L
390
0
100
AcDbLine
 10
147.0061531581
 20
162.2581548427
 30
0.0
 11
147.0061531581
 21
160.2581548427
 31
0.0
  0
LINE
  5
20D
100
AcDbEntity
  8
2655_3L
390
0
100
AcDbLine
 10
146.0061531581
 20
162.2581548427
 30
0.0
 11
147.0061531581
 21
162.2581548427
 31
0.0
  0
LINE
  5
20E
100
AcDbEntity
  8
2655_3L
390
0
100
AcDbLine
 10
147.0061531581
 20
160.2581548427
 30
0.0
 11
146.0061531581
 21
160.2581548427
 31
0.0
  0
LINE
  5
20F
100
AcDbEntity
  8
2655_3L
390
0
  6
DASHED
100
AcDbLine
 10
146.0061531581
 20
161.7581548427
 30
0.0
 11
140.0061531581
 21
155.258154843
 31
0.0
  0
LINE
  5
210
100
AcDbEntity
  8
2655_3 DREHHEBEL
390
0
100
AcDbLine
 10
148.0061531581
 20
163.2581548427
 30
0.0
 11
148.0061531581
 21
159.2581548427
 31
0.0
  0
LINE
  5
211
100
AcDbEntity
  8
2655_3 DREHHEBEL
390
0
100
AcDbLine
 10
148.0061531581
 20
159.2581548427
 30
0.0
 11
145.0061531581
 21
159.2581548427
 31
0.0
  0
LINE
  5
212
100
AcDbEntity
  8
2655_3 DREHHEBEL
390
0
100
AcDbLine
 10
145.0061531581
 20
159.2581548427
 30
0.0
 11
145.0061531581
 21
163.2581548427
 31
0.0
  0
LINE
  5
213
100
AcDbEntity
  8
2655_3 DREHHEBEL
390
0
100
AcDbLine
 10
145.0061531581
 20
163.2581548427
 30
0.0
 11
148.0061531581
 21
163.2581548427
 31
0.0
  0
LINE
  5
214
100
AcDbEntity
  8
2655_7P
390
0
  6
DIVIDE
100
AcDbLine
 10
104.5660565585
 20
74.4916813221
 30
0.0
 11
104.5660565585
 21
84.4916813221
 31
0.0
  0
ARC
  5
215
100
AcDbEntity
  8
2655_7P
390
0
  6
DIVIDE
100
AcDbCircle
 10
104.0660565585
 20
84.6048620565
 30
0.0
 40
0.5126498597
100
AcDbArc
 50
347.245390569
 51
552.7546094311
  0
ARC
  5
216
100
AcDbEntity
  8
2655_7P
390
0
  6
DASHED
100
AcDbCircle
 10
103.352458574
 20
76.9916813221
 30
0.0
 40
2.7789962339
100
AcDbArc
 50
295.8937536711
 51
424.1062463289
  0
ARC
  5
217
100
AcDbEntity
  8
2655_22R
390
0
  6
DASHDOT
100
AcDbCircle
 10
213.3626062759
 20
77.1063977532
 30
0.0
 40
14.6490519916
100
AcDbArc
 50
295.2445938472
 51
424.7554061528
  0
ARC
  5
218
100
AcDbEntity
  8
2655_22R
390
0
  6
DASHDOT
100
AcDbCircle
 10
216.3368492165
 20
52.1063977532
 30
0.0
 40
12.1974267346
100
AcDbArc
 50
285.5668619388
 51
434.4331380612
  0
ARC
  5
219
100
AcDbEntity
  8
2655_21R
390
0
  6
DASHDOT
100
AcDbCircle
 10
184.6854089304
 20
76.3970683513
 30
0.0
 40
20.4355518806
100
AcDbArc
 50
316.9143872695
 51
403.0856127305
  0
ARC
  5
21A
100
AcDbEntity
  8
2655_21R
390
0
  6
DASHDOT
100
AcDbCircle
 10
196.3368492165
 20
50.6877389494
 30
0.0
 40
12.1974267346
100
AcDbArc
 50
285.5668619388
 51
434.4331380612
  0
CIRCLE
  5
21B
100
AcDbEntity
  8
2655_21R
390
0
  6
PHANTOM
100
AcDbCircle
 10
199.6101837465
 20
90.3563977532
 30
0.0
 40
0.5
  0
CIRCLE
  5
21C
100
AcDbEntity
  8
2655_22R
390
0
  6
PHANTOM
100
AcDbCircle
 10
219.6101837466
 20
90.3563977532
 30
0.0
 40
0.5
  0
CIRCLE
  5
21D
100
AcDbEntity
  8
2655_21R
390
0
  6
PHANTOM
100
AcDbCircle
 10
199.6101837466
 20
38.9377389494
 30
0.0
 40
1.0
  0
CIRCLE
  5
21E
100
AcDbEntity
  8
2655_22R
390
0
  6
PHANTOM
100
AcDbCircle
 10
219.6101837466
 20
40.3563977532
 30
0.0
 40
1.0
  0
ARC
  5
21F
100
AcDbEntity
  8
2655___ W-_ GSP-_ SIGNAL-ANTRIEB
390
0
  6
DASHDOT
100
AcDbCircle
 10
329.9010026188
 20
64.6470683513
 30
0.0
 40
132.8031140474
100
AcDbArc
 50
168.8376441109
 51
191.1623558892
  0
ARC
  5
220
100
AcDbEntity
  8
2655___ W-_ GSP-_ SIGNAL-ANTRIEB
390
0
  6
DASHDOT
100
AcDbCircle
 10
360.6590441446
 20
65.3563977532
 30
0.0
 40
143.2472722937
100
AcDbArc
 50
169.9490762726
 51
190.0509237274
  0
MTEXT
  5
221
100
AcDbEntity
  8
2655_21R
390
0
100
AcDbMText
 10
203.5714066328
 20
51.4760656515
 30
0.0
 40
2.0
 41
0.0
 71
         1
 72
         1
  1
\W0.810845;>2655.5R\PM15x15x2\PT2 O2
  7
Arial
 73
         1
 44
0.66
  0
MTEXT
  5
222
100
AcDbEntity
  8
2655_22R
390
0
100
AcDbMText
 10
223.5714066328
 20
79.3947244553
 30
0.0
 40
2.0
 41
0.0
 71
         1
 72
         1
  1
\W0.810845;>2655.3R\PM15x15x2\PT2 O2
  7
Arial
 73
         1
 44
0.66
  0
MTEXT
  5
223
100
AcDbEntity
  8
2655_22R
390
0
100
AcDbMText
 10
223.5714066328
 20
52.8947244553
 30
0.0
 40
2.0
 41
0.0
 71
         1
 72
         1
  1
\W0.810845;>2655.5R\PM15x15x2\PT2 O2
  7
Arial
 73
         1
 44
0.66
  0
MTEXT
  5
224
100
AcDbEntity
  8
2655_21R
390
0
100
AcDbMText
 10
200.405002367
 20
82.1087852545
 30
0.0
 40
2.0
 41
0.0
 71
         1
 72
         1
  1
\W0.810848;>2655.13R\PM15x15x2\PT2 O2
  7
Arial
 73
         1
 44
0.66
  0
MTEXT
  5
225
100
AcDbEntity
  8
BESCHRIFTUNG
390
0
  6
DASHDOT
100
AcDbMText
 10
210.8901201842
 20
108.0575235277
 30
0.0
 40
2.5
 41
0.0
 71
         1
 72
         1
  1
\W1.135105;\L2655.22R\PW quer
  7
Arial
 73
         1
 44
0.66
  0
MTEXT
  5
226
100
AcDbEntity
  8
BESCHRIFTUNG
390
0
  6
DASHDOT
100
AcDbMText
 10
191.6799066859
 20
108.2231708168
 30
0.0
 40
2.5
 41
0.0
 71
         1
 72
         1
  1
\W1.135105;\L2655.21R\PW längs
  7
Arial
 73
         1
 44
0.66
  0
MTEXT
  5
227
100
AcDbEntity
  8
2655___ W-_ GSP-_ SIGNAL-ANTRIEB
390
0
100
AcDbMText
 10
192.4889917028
 20
73.7404311237
 30
0.0
 40
2.0
 41
0.0
 71
         1
 72
         1
  1
\W0.810848;>2655.21R\PM15x15x2\PT2 O2
  7
Arial
 73
         1
 44
0.66
  0
MTEXT
  5
228
100
AcDbEntity
  8
2655___ W-_ GSP-_ SIGNAL-ANTRIEB
390
0
100
AcDbMText
 10
212.4889917028
 20
73.7404311237
 30
0.0
 40
2.0
 41
0.0
 71
         1
 72
         1
  1
\W0.810848;>2655.22R\PM15x15x2\PT2 O2
  7
Arial
 73
         1
 44
0.66
  0
MTEXT
  5
229
100
AcDbEntity
  8
2655_21R
390
0
100
AcDbMText
 10
192.903573347
 20
95.648052671
 30
0.0
 40
2.0
 41
0.0
 71
         1
 72
         1
  1
\W0.810867;M15x15x2 F150\PT2 O2 S4 I1,1\PB-0,3     D1,5
  7
Arial
 73
         1
 44
0.66
  0
MTEXT
  5
22A
100
AcDbEntity
  8
2655_22R
390
0
100
AcDbMText
 10
212.903573347
 20
95.648052671
 30
0.0
 40
2.0
 41
0.0
 71
         1
 72
         1
  1
\W0.810867;M15x15x2 F150\PT2 O2 S4 I1,1\PB-0,3     D1,5
  7
Arial
 73
         1
 44
0.66
  0
ARC
  5
22B
100
AcDbEntity
  8
2655_31R
390
0
  6
DASHDOT
100
AcDbCircle
 10
246.3435942586
 20
73.565631174
 30
0.0
 40
20.4355518806
100
AcDbArc
 50
316.9143872695
 51
403.0856127305
  0
ARC
  5
22C
100
AcDbEntity
  8
2655_32R
390
0
  6
DASHDOT
100
AcDbCircle
 10
274.5207916041
 20
73.8888987998
 30
0.0
 40
14.6490519916
100
AcDbArc
 50
295.2445938472
 51
424.7554061528
  0
CIRCLE
  5
22D
100
AcDbEntity
  8
2655_31R
390
0
  6
PHANTOM
100
AcDbCircle
 10
261.2683690747
 20
87.5249605759
 30
0.0
 40
0.5
  0
CIRCLE
  5
22E
100
AcDbEntity
  8
2655_32R
390
0
  6
PHANTOM
100
AcDbCircle
 10
280.7683690748
 20
87.1388987998
 30
0.0
 40
0.5
  0
CIRCLE
  5
22F
100
AcDbEntity
  8
2655_31R
390
0
  6
PHANTOM
100
AcDbCircle
 10
261.2683690747
 20
59.6063017721
 30
0.0
 40
1.0
  0
CIRCLE
  5
230
100
AcDbEntity
  8
2655_32R
390
0
  6
PHANTOM
100
AcDbCircle
 10
280.7683690748
 20
60.6388987998
 30
0.0
 40
1.0
  0
ARC
  5
231
100
AcDbEntity
  8
2655___ W-_ GSP-_ SIGNAL-ANTRIEB
390
0
  6
DASHDOT
100
AcDbCircle
 10
301.8195428349
 20
73.565631174
 30
0.0
 40
42.8866012955
100
AcDbArc
 50
161.004496318
 51
198.995503682
  0
ARC
  5
232
100
AcDbEntity
  8
2655___ W-_ GSP-_ SIGNAL-ANTRIEB
390
0
  6
DASHDOT
100
AcDbCircle
 10
325.3977836112
 20
73.8888987998
 30
0.0
 40
46.5547757149
100
AcDbArc
 50
163.4644040358
 51
196.5355959642
  0
MTEXT
  5
233
100
AcDbEntity
  8
2655_31R
390
0
100
AcDbMText
 10
261.837015962
 20
77.6941459444
 30
0.0
 40
2.0
 41
0.0
 71
         1
 72
         1
  1
\W0.810848;>2655.13R\PM15x15x2\PT2 O2
  7
Arial
 73
         1
 44
0.66
  0
MTEXT
  5
234
100
AcDbEntity
  8
2655_32R
390
0
100
AcDbMText
 10
284.729591961
 20
76.177225502
 30
0.0
 40
2.0
 41
0.0
 71
         1
 72
         1
  1
\W0.810845;>2655.3R\PM15x15x2\PT2 O2
  7
Arial
 73
         1
 44
0.66
  0
MTEXT
  5
235
100
AcDbEntity
  8
BESCHRIFTUNG
390
0
  6
DASHDOT
100
AcDbMText
 10
251.4231409229
 20
108.4658542213
 30
0.0
 40
2.5
 41
0.0
 71
         1
 72
         1
  1
\W1.135105;\L2655.31R\PS, Gs\Plängs
  7
Arial
 73
         1
 44
0.66
  0
MTEXT
  5
236
100
AcDbEntity
  8
BESCHRIFTUNG
390
0
  6
DASHDOT
100
AcDbMText
 10
270.92781626
 20
108.348919283
 30
0.0
 40
2.5
 41
0.0
 71
         1
 72
         1
  1
\W1.135105;\L2655.32R\PS, Gs\Pquer
  7
Arial
 73
         1
 44
0.66
  0
MTEXT
  5
237
100
AcDbEntity
  8
2655___ W-_ GSP-_ SIGNAL-ANTRIEB
390
0
100
AcDbMText
 10
273.647177031
 20
70.5229321704
 30
0.0
 40
2.0
 41
0.0
 71
         1
 72
         1
  1
\W0.810848;>2655.32R\PM15x15x2\PT2 O2
  7
Arial
 73
         1
 44
0.66
  0
MTEXT
  5
238
100
AcDbEntity
  8
2655___ W-_ GSP-_ SIGNAL-ANTRIEB
390
0
100
AcDbMText
 10
254.147177031
 20
70.9089939464
 30
0.0
 40
2.0
 41
0.0
 71
         1
 72
         1
  1
\W0.810848;>2655.31R\PM15x15x2\PT2 O2
  7
Arial
 73
         1
 44
0.66
  0
MTEXT
  5
239
100
AcDbEntity
  8
2655_31R
390
0
100
AcDbMText
 10
253.5617586752
 20
92.8166154937
 30
0.0
 40
2.0
 41
0.0
 71
         1
 72
         1
  1
\W0.810867;M15x15x2 F150\PT2 O2 S4 I1,1\PB-0,3     D1,5
  7
Arial
 73
         1
 44
0.66
  0
MTEXT
  5
23A
100
AcDbEntity
  8
2655_32R
390
0
100
AcDbMText
 10
273.5617586752
 20
92.9305537177
 30
0.0
 40
2.0
 41
0.0
 71
         1
 72
         1
  1
\W0.810867;M15x15x2 F150\PT2 O2 S4 I1,1\PB-0,3     D1,5
  7
Arial
 73
         1
 44
0.66
  0
LINE
  5
23B
100
AcDbEntity
  8
2655_3R
390
0
  6
DIVIDE
100
AcDbLine
 10
149.8728198248
 20
177.2581548427
 30
0.0
 11
149.8728198248
 21
177.1152948398
 31
0.0
  0
MTEXT
  5
23C
100
AcDbEntity
  8
2655___ W-_ GSP-_ SIGNAL-ANTRIEB
390
0
100
AcDbMText
 10
254.2430483266
 20
-118.5902834286
 30
0.0
 40
2.0
 41
0.0
 71
         1
 72
         1
  1
\W0.810848;>2655.31R\PM15x15x2\PT2 O2
  7
Arial
 73
         1
 44
0.66
  0
MTEXT
  5
23D
100
AcDbEntity
  8
2655___ W-_ GSP-_ SIGNAL-ANTRIEB
390
0
100
AcDbMText
 10
273.7430483266
 20
-118.9763452046
 30
0.0
 40
2.0
 41
0.0
 71
         1
 72
         1
  1
\W0.810848;>2655.32R\PM15x15x2\PT2 O2
  7
Arial
 73
         1
 44
0.66
  0
MTEXT
  5
23E
100
AcDbEntity
  8
2655___ W-_ GSP-_ SIGNAL-ANTRIEB
390
0
100
AcDbMText
 10
212.5848629984
 20
-115.7588462513
 30
0.0
 40
2.0
 41
0.0
 71
         1
 72
         1
  1
\W0.810848;>2655.22R\PM15x15x2\PT2 O2
  7
Arial
 73
         1
 44
0.66
  0
MTEXT
  5
23F
100
AcDbEntity
  8
2655___ W-_ GSP-_ SIGNAL-ANTRIEB
390
0
100
AcDbMText
 10
192.5848629984
 20
-115.7588462513
 30
0.0
 40
2.0
 41
0.0
 71
         1
 72
         1
  1
\W0.810848;>2655.21R\PM15x15x2\PT2 O2
  7
Arial
 73
         1
 44
0.66
  0
ARC
  5
240
100
AcDbEntity
  8
2655___ W-_ GSP-_ SIGNAL-ANTRIEB
390
0
  6
DASHDOT
100
AcDbCircle
 10
301.9154141305
 20
-115.933646201
 30
0.0
 40
42.8866012955
100
AcDbArc
 50
161.004496318
 51
198.995503682
  0
ARC
  5
241
100
AcDbEntity
  8
2655___ W-_ GSP-_ SIGNAL-ANTRIEB
390
0
  6
DASHDOT
100
AcDbCircle
 10
325.4936549068
 20
-115.6103785752
 30
0.0
 40
46.5547757149
100
AcDbArc
 50
163.4644040358
 51
196.5355959642
  0
ARC
  5
242
100
AcDbEntity
  8
2655___ W-_ GSP-_ SIGNAL-ANTRIEB
390
0
  6
DASHDOT
100
AcDbCircle
 10
360.7549154402
 20
-124.1428796218
 30
0.0
 40
143.2472722937
100
AcDbArc
 50
169.9490762726
 51
190.0509237274
  0
ARC
  5
243
100
AcDbEntity
  8
2655___ W-_ GSP-_ SIGNAL-ANTRIEB
390
0
  6
DASHDOT
100
AcDbCircle
 10
329.9968739144
 20
-124.8522090237
 30
0.0
 40
132.8031140474
100
AcDbArc
 50
168.8376441109
 51
191.1623558892
  0
MTEXT
  5
244
100
AcDbEntity
  8
BESCHRIFTUNG
390
0
  6
DASHDOT
100
AcDbMText
 10
270.42781626
 20
-81.641080717
 30
0.0
 40
2.5
 41
0.0
 71
         1
 72
         1
  1
\W1.135105;\L2655.32R\PS, Gs\Pquer
  7
Arial
 73
         1
 44
0.66
  0
MTEXT
  5
245
100
AcDbEntity
  8
BESCHRIFTUNG
390
0
  6
DASHDOT
100
AcDbMText
 10
250.9231409229
 20
-81.5241457787
 30
0.0
 40
2.5
 41
0.0
 71
         1
 72
         1
  1
\W1.135105;\L2655.31R\PS, Gs\Plängs
  7
Arial
 73
         1
 44
0.66
  0
MTEXT
  5
246
100
AcDbEntity
  8
BESCHRIFTUNG
390
0
  6
DASHDOT
100
AcDbMText
 10
191.1799066859
 20
-81.7668291832
 30
0.0
 40
2.5
 41
0.0
 71
         1
 72
         1
  1
\W1.135105;\L2655.21R\PW längs
  7
Arial
 73
         1
 44
0.66
  0
MTEXT
  5
247
100
AcDbEntity
  8
BESCHRIFTUNG
390
0
  6
DASHDOT
100
AcDbMText
 10
210.3901201842
 20
-81.9324764723
 30
0.0
 40
2.5
 41
0.0
 71
         1
 72
         1
  1
\W1.135105;\L2655.22R\PW quer
  7
Arial
 73
         1
 44
0.66
  0
TEXT
  5
248
100
AcDbEntity
  8
BESCHRIFTUNG
390
0
100
AcDbText
 10
17.170856257
 20
-6.4336527997
 30
0.0
 40
3.0
  1
2655.1
 41
1.1351381787
  7
Arial
 11
17.170856257
 21
-3.4336527997
 31
0.0
100
AcDbText
 73
         3
  0
TEXT
  5
249
100
AcDbEntity
  8
BESCHRIFTUNG
390
0
100
AcDbText
 10
17.9429798092
 20
-74.0453516414
 30
0.0
 40
3.0
  1
2655.11
 41
1.135139297
  7
Arial
 11
17.9429798092
 21
-71.0453516414
 31
0.0
100
AcDbText
 73
         3
  0
LINE
  5
24A
100
AcDbEntity
  8
2655_3R
390
0
100
AcDbLine
 10
155.5593207589
 20
164.1042156623
 30
0.0
 11
157.2132599393
 21
165.7581548426
 31
0.0
  0
LINE
  5
24B
100
AcDbEntity
  8
2655_6P
390
0
100
AcDbLine
 10
92.0660565585
 20
39.2774051804
 30
0.0
 11
92.0660565585
 21
26.2851713644
 31
0.0
  0
LINE
  5
24C
100
AcDbEntity
  8
2655_6P
390
0
  6
DASHED
100
AcDbLine
 10
104.9244965682
 20
37.6874238616
 30
0.0
 11
107.9721405164
 21
35.0230252434
 31
0.0
  0
ARC
  5
24D
100
AcDbEntity
  8
2655_6P
390
0
  6
DASHED
100
AcDbCircle
 10
97.019825452
 20
32.6033737403
 30
0.0
 40
11.2164129144
100
AcDbArc
 50
243.7905664172
 51
372.4580169397
  0
TEXT
  5
24E
100
AcDbEntity
  8
2655_6P
390
0
  6
DASHED
100
AcDbText
 10
107.6997440997
 20
36.9479574328
 30
0.0
 40
2.0
  1
N1
 41
1.1350267802
  7
Arial
 11
107.6997440997
 21
38.9479574328
 31
0.0
100
AcDbText
 73
         3
  0
LINE
  5
24F
100
AcDbEntity
  8
2655_7P
390
0
  6
DASHED
100
AcDbLine
 10
96.5660565585
 20
79.4916813221
 30
0.0
 11
108.0660565585
 21
73.4916813221
 31
0.0
  0
CIRCLE
  5
250
100
AcDbEntity
  8
2655_13R
390
0
100
AcDbCircle
 10
152.0061531581
 20
123.0386609514
 30
0.0
 40
1.25
  0
CIRCLE
  5
251
100
AcDbEntity
  8
2655_13R
390
0
  6
DIVIDE
100
AcDbCircle
 10
153.0061531581
 20
126.392762918
 30
0.0
 40
1.0
  0
ARC
  5
252
100
AcDbEntity
  8
2655_3 DREHHEBEL
390
0
100
AcDbCircle
 10
153.5061531581
 20
111.9594010483
 30
0.0
 40
1.5
100
AcDbArc
 50
161.1452342194
 51
341.1452342194
  0
ARC
  5
253
100
AcDbEntity
  8
2655_3 DREHHEBEL
390
0
100
AcDbCircle
 10
154.000058013
 20
118.976714913
 30
0.0
 40
1.5
100
AcDbArc
 50
26.1452342191
 51
206.145234219
  0
ARC
  5
254
100
AcDbEntity
  8
2655_3 DREHHEBEL
390
0
100
AcDbCircle
 10
159.8537090999
 20
115.0752530289
 30
0.0
 40
1.5
100
AcDbArc
 50
251.1452342194
 51
431.1452342194
  0
CIRCLE
  5
255
100
AcDbEntity
  8
2655_13R
390
0
  6
DIVIDE
100
AcDbCircle
 10
153.0061531581
 20
129.7141759133
 30
0.0
 40
1.0
  0
ARC
  5
256
100
AcDbEntity
  8
2655_3 DREHHEBEL
390
0
100
AcDbCircle
 10
152.0061531581
 20
123.0386609514
 30
0.0
 40
14.5
100
AcDbArc
 50
270.0000000001
 51
325.0109616325
  0
LINE
  5
257
100
AcDbEntity
  8
2655_3 DREHHEBEL
390
0
100
AcDbLine
 10
154.9256643465
 20
111.4746454541
 30
0.0
 11
156.0567607329
 21
114.786838227
 31
0.0
  0
LINE
  5
258
100
AcDbEntity
  8
2655_3 DREHHEBEL
390
0
100
AcDbLine
 10
152.0866419697
 20
112.4441566425
 30
0.0
 11
153.5017016088
 21
116.5878798176
 31
0.0
  0
LINE
  5
259
100
AcDbEntity
  8
2655_3 DREHHEBEL
390
0
100
AcDbLine
 10
155.3465779681
 20
119.6376869324
 30
0.0
 11
156.1947415191
 21
117.9098238564
 31
0.0
  0
LINE
  5
25A
100
AcDbEntity
  8
2655_3 DREHHEBEL
390
0
100
AcDbLine
 10
160.3384646941
 20
116.4947642173
 30
0.0
 11
156.1947415191
 21
117.9098238564
 31
0.0
  0
LINE
  5
25B
100
AcDbEntity
  8
2655_3 DREHHEBEL
390
0
100
AcDbLine
 10
156.0567607329
 20
114.786838227
 30
0.0
 11
159.3689535058
 21
113.6557418406
 31
0.0
  0
LINE
  5
25C
100
AcDbEntity
  8
2655_3 DREHHEBEL
390
0
100
AcDbLine
 10
153.5017016088
 20
116.5878798176
 30
0.0
 11
152.6535380578
 21
118.3157428936
 31
0.0
  0
LINE
  5
25D
100
AcDbEntity
  8
2655_3 DREHHEBEL
390
0
100
AcDbLine
 10
150.0061531581
 20
108.5386609517
 30
0.0
 11
150.0061531581
 21
134.0386609517
 31
0.0
  0
LINE
  5
25E
100
AcDbEntity
  8
2655_3 DREHHEBEL
390
0
100
AcDbLine
 10
152.0061531581
 20
108.5386609517
 30
0.0
 11
150.0061531581
 21
108.5386609517
 31
0.0
  0
LINE
  5
25F
100
AcDbEntity
  8
2655_3 DREHHEBEL
390
0
100
AcDbLine
 10
153.7436096268
 20
134.0386609517
 30
0.0
 11
163.8854487358
 21
114.7240751783
 31
0.0
  0
LINE
  5
260
100
AcDbEntity
  8
2655_3 DREHHEBEL
390
0
100
AcDbLine
 10
153.7436096268
 20
134.0386609517
 30
0.0
 11
150.0061531581
 21
134.0386609517
 31
0.0
  0
LINE
  5
261
100
AcDbEntity
  8
2655_13L
390
0
  6
DASHED
100
AcDbLine
 10
140.0061531581
 20
129.528195722
 30
0.0
 11
146.0061531581
 21
124.0386609514
 31
0.0
  0
LINE
  5
262
100
AcDbEntity
  8
2655_13L
390
0
100
AcDbLine
 10
146.0061531581
 20
122.0386609514
 30
0.0
 11
146.0061531581
 21
123.5386609514
 31
0.0
  0
LINE
  5
263
100
AcDbEntity
  8
2655_13L
390
0
100
AcDbLine
 10
147.0061531581
 20
124.0386609514
 30
0.0
 11
147.0061531581
 21
122.0386609514
 31
0.0
  0
LINE
  5
264
100
AcDbEntity
  8
2655_13L
390
0
100
AcDbLine
 10
146.0061531581
 20
124.0386609514
 30
0.0
 11
147.0061531581
 21
124.0386609514
 31
0.0
  0
LINE
  5
265
100
AcDbEntity
  8
2655_13L
390
0
100
AcDbLine
 10
147.0061531581
 20
122.0386609514
 30
0.0
 11
146.0061531581
 21
122.0386609514
 31
0.0
  0
LINE
  5
266
100
AcDbEntity
  8
2655_13L
390
0
  6
DASHED
100
AcDbLine
 10
146.0061531581
 20
123.5386609514
 30
0.0
 11
140.0061531581
 21
121.5281168409
 31
0.0
  0
LINE
  5
267
100
AcDbEntity
  8
2655_3 DREHHEBEL
390
0
100
AcDbLine
 10
148.0061531581
 20
125.0386609514
 30
0.0
 11
148.0061531581
 21
121.0386609514
 31
0.0
  0
LINE
  5
268
100
AcDbEntity
  8
2655_3 DREHHEBEL
390
0
100
AcDbLine
 10
148.0061531581
 20
121.0386609514
 30
0.0
 11
145.0061531581
 21
121.0386609514
 31
0.0
  0
LINE
  5
269
100
AcDbEntity
  8
2655_3 DREHHEBEL
390
0
100
AcDbLine
 10
145.0061531581
 20
121.0386609514
 30
0.0
 11
145.0061531581
 21
125.0386609514
 31
0.0
  0
LINE
  5
26A
100
AcDbEntity
  8
2655_3 DREHHEBEL
390
0
100
AcDbLine
 10
145.0061531581
 20
125.0386609514
 30
0.0
 11
148.0061531581
 21
125.0386609514
 31
0.0
  0
LINE
  5
26B
100
AcDbEntity
  8
2655_3 DREHHEBEL
390
0
100
AcDbLine
 10
148.0061531581
 20
108.5386609517
 30
0.0
 11
148.0061531581
 21
117.0386609518
 31
0.0
  0
LINE
  5
26C
100
AcDbEntity
  8
2655_3 DREHHEBEL
390
0
100
AcDbLine
 10
148.0061531581
 20
108.5386609517
 30
0.0
 11
150.0061531581
 21
108.5386609517
 31
0.0
  0
LINE
  5
26D
100
AcDbEntity
  8
2655_13L
390
0
100
AcDbLine
 10
147.0061531581
 20
107.120002148
 30
0.0
 11
147.0061531581
 21
116.0386609518
 31
0.0
  0
LINE
  5
26E
100
AcDbEntity
  8
2655_13L
390
0
  6
DASHED
100
AcDbLine
 10
140.0061531581
 20
121.5281168409
 30
0.0
 11
135.0061531581
 21
116.0386609518
 31
0.0
  0
LINE
  5
26F
100
AcDbEntity
  8
2655_13L
390
0
  6
DIVIDE
100
AcDbLine
 10
135.0061531581
 20
107.120002148
 30
0.0
 11
147.0061531581
 21
107.120002148
 31
0.0
  0
ARC
  5
270
100
AcDbEntity
  8
2655_13R
390
0
  6
DIVIDE
100
AcDbCircle
 10
152.0061531581
 20
123.0386609514
 30
0.0
 40
15.5
100
AcDbArc
 50
270.0000000001
 51
327.2864806146
  0
LINE
  5
271
100
AcDbEntity
  8
2655_13R
390
0
100
AcDbLine
 10
154.6289758034
 20
134.5035552767
 30
0.0
 11
165.0475940695
 21
114.6618585213
 31
0.0
  0
ARC
  5
272
100
AcDbEntity
  8
2655_13R
390
0
100
AcDbCircle
 10
154.000058013
 20
118.976714913
 30
0.0
 40
0.5
100
AcDbArc
 50
26.1452342191
 51
206.145234219
  0
LINE
  5
273
100
AcDbEntity
  8
2655_13R
390
0
100
AcDbLine
 10
154.5819039621
 20
116.6566966122
 30
0.0
 11
153.5512180279
 21
118.7563909066
 31
0.0
  0
LINE
  5
274
100
AcDbEntity
  8
2655_13R
390
0
100
AcDbLine
 10
154.448897998
 20
119.1970389195
 30
0.0
 11
155.297061549
 21
117.4691758435
 31
0.0
  0
LINE
  5
275
100
AcDbEntity
  8
2655_13R
390
0
100
AcDbLine
 10
160.015294298
 20
115.5484234251
 30
0.0
 11
155.8715711229
 21
116.9634830641
 31
0.0
  0
LINE
  5
276
100
AcDbEntity
  8
2655_13R
390
0
100
AcDbLine
 10
155.4335903368
 20
116.0563494154
 30
0.0
 11
159.6921239019
 21
114.6020826328
 31
0.0
  0
ARC
  5
277
100
AcDbEntity
  8
2655_13R
390
0
100
AcDbCircle
 10
159.8537090999
 20
115.0752530289
 30
0.0
 40
0.5
100
AcDbArc
 50
251.1452342194
 51
431.1452342194
  0
ARC
  5
278
100
AcDbEntity
  8
2655_13R
390
0
100
AcDbCircle
 10
153.5061531581
 20
111.9594010483
 30
0.0
 40
0.5
100
AcDbArc
 50
161.1452342194
 51
341.1452342194
  0
LINE
  5
279
100
AcDbEntity
  8
2655_13R
390
0
100
AcDbLine
 10
153.9793235542
 20
111.7978158503
 30
0.0
 11
155.4335903368
 21
116.0563494154
 31
0.0
  0
LINE
  5
27A
100
AcDbEntity
  8
2655_13R
390
0
100
AcDbLine
 10
153.032982762
 20
112.1209862464
 30
0.0
 11
154.5819039621
 21
116.6566966122
 31
0.0
  0
LINE
  5
27B
100
AcDbEntity
  8
2655_13R
390
0
100
AcDbLine
 10
152.0061531581
 20
107.5386609517
 30
0.0
 11
150.0061531581
 21
107.5386609517
 31
0.0
  0
LINE
  5
27C
100
AcDbEntity
  8
2655_13R
390
0
  6
DASHED
100
AcDbLine
 10
150.0061531581
 20
107.5386609517
 30
0.0
 11
152.0061531581
 21
123.0386609514
 31
0.0
  0
LINE
  5
27D
100
AcDbEntity
  8
2655_13R
390
0
  6
DASHED
100
AcDbLine
 10
152.0061531581
 20
123.0386609514
 30
0.0
 11
153.0061531581
 21
126.392762918
 31
0.0
  0
LINE
  5
27E
100
AcDbEntity
  8
2655_13R
390
0
  6
DASHED
100
AcDbLine
 10
153.0061531581
 20
126.392762918
 30
0.0
 11
153.0061531581
 21
129.7141759133
 31
0.0
  0
LINE
  5
27F
100
AcDbEntity
  8
2655_13R
390
0
  6
DIVIDE
100
AcDbLine
 10
165.0061531584
 20
135.0386609516
 30
0.0
 11
154.6289758034
 21
134.5035552767
 31
0.0
  0
ARC
  5
280
100
AcDbEntity
  8
2655_13R
390
0
  6
DASHED
100
AcDbCircle
 10
146.0674638012
 20
121.4575548415
 30
0.0
 40
10.7850452719
100
AcDbArc
 50
335.3739114129
 51
409.9570179739
  0
ARC
  5
281
100
AcDbEntity
  8
2655_13R
390
0
  6
DASHED
100
AcDbCircle
 10
149.0607476838
 20
114.1303789941
 30
0.0
 40
7.0738373621
100
AcDbArc
 50
277.6804578348
 51
388.1636997041
  0
LINE
  5
282
100
AcDbEntity
  8
STANDARD
390
0
100
AcDbLine
 10
292.0
 20
200.0
 30
0.0
 11
5.0
 21
200.0
 31
0.0
  0
LINE
  5
283
100
AcDbEntity
  8
STANDARD
390
0
100
AcDbLine
 10
10.0
 20
195.0
 30
0.0
 11
10.0
 21
5.0
 31
0.0
  0
LINE
  5
284
100
AcDbEntity
  8
STANDARD
390
0
100
AcDbLine
 10
5.0
 20
200.0
 30
0.0
 11
5.0
 21
195.0
 31
0.0
  0
LINE
  5
285
100
AcDbEntity
  8
STANDARD
390
0
100
AcDbLine
 10
292.0
 20
200.0
 30
0.0
 11
292.0
 21
195.0
 31
0.0
  0
LINE
  5
286
100
AcDbEntity
  8
STANDARD
390
0
100
AcDbLine
 10
52.8333333333
 20
200.0
 30
0.0
 11
52.8333333333
 21
195.0
 31
0.0
  0
LINE
  5
287
100
AcDbEntity
  8
STANDARD
390
0
100
AcDbLine
 10
100.6666666667
 20
200.0
 30
0.0
 11
100.6666666667
 21
195.0
 31
0.0
  0
LINE
  5
288
100
AcDbEntity
  8
STANDARD
390
0
100
AcDbLine
 10
148.5
 20
200.0
 30
0.0
 11
148.5
 21
195.0
 31
0.0
  0
LINE
  5
289
100
AcDbEntity
  8
STANDARD
390
0
100
AcDbLine
 10
196.3333333333
 20
200.0
 30
0.0
 11
196.3333333333
 21
195.0
 31
0.0
  0
LINE
  5
28A
100
AcDbEntity
  8
STANDARD
390
0
100
AcDbLine
 10
244.1666666667
 20
200.0
 30
0.0
 11
244.1666666667
 21
195.0
 31
0.0
  0
LINE
  5
28B
100
AcDbEntity
  8
STANDARD
390
0
100
AcDbLine
 10
5.0
 20
52.5
 30
0.0
 11
10.0
 21
52.5
 31
0.0
  0
LINE
  5
28C
100
AcDbEntity
  8
STANDARD
390
0
100
AcDbLine
 10
5.0
 20
100.0
 30
0.0
 11
10.0
 21
100.0
 31
0.0
  0
LINE
  5
28D
100
AcDbEntity
  8
STANDARD
390
0
100
AcDbLine
 10
5.0
 20
147.5
 30
0.0
 11
10.0
 21
147.5
 31
0.0
  0
TEXT
  5
28E
100
AcDbEntity
  8
STANDARD
390
0
100
AcDbText
 10
27.6214908115
 20
196.4732039063
 30
0.0
 40
2.23125
  1
1
 41
1.5479225906
  7
Arial
 72
         1
 11
28.9166666667
 21
196.4732039063
 31
0.0
100
AcDbText
  0
TEXT
  5
28F
100
AcDbEntity
  8
STANDARD
390
0
100
AcDbText
 10
75.0230999712
 20
196.4732039063
 30
0.0
 40
2.23125
  1
2
 41
1.5479215945
  7
Arial
 72
         1
 11
76.75
 21
196.4732039063
 31
0.0
100
AcDbText
  0
TEXT
  5
290
100
AcDbEntity
  8
STANDARD
390
0
100
AcDbText
 10
122.8564319709
 20
196.4732039063
 30
0.0
 40
2.23125
  1
3
 41
1.5479227899
  7
Arial
 72
         1
 11
124.5833333333
 21
196.4732039063
 31
0.0
100
AcDbText
  0
TEXT
  5
291
100
AcDbEntity
  8
STANDARD
390
0
100
AcDbText
 10
170.6897655265
 20
196.4732039063
 30
0.0
 40
2.23125
  1
4
 41
1.5479225906
  7
Arial
 72
         1
 11
172.4166666667
 21
196.4732039063
 31
0.0
100
AcDbText
  0
TEXT
  5
292
100
AcDbEntity
  8
STANDARD
390
0
100
AcDbText
 10
218.5230997489
 20
196.4732039063
 30
0.0
 40
2.23125
  1
5
 41
1.5479217937
  7
Arial
 72
         1
 11
220.25
 21
196.4732039063
 31
0.0
100
AcDbText
  0
TEXT
  5
293
100
AcDbEntity
  8
STANDARD
390
0
100
AcDbText
 10
266.3564321932
 20
196.4732039063
 30
0.0
 40
2.23125
  1
6
 41
1.5479225906
  7
Arial
 72
         1
 11
268.0833333333
 21
196.4732039063
 31
0.0
100
AcDbText
  0
TEXT
  5
294
100
AcDbEntity
  8
STANDARD
390
0
100
AcDbText
 10
5.773027185
 20
172.7232039063
 30
0.0
 40
2.23125
  1
A
 41
1.547986837
  7
Arial
 72
         1
 11
7.5
 21
172.7232039063
 31
0.0
100
AcDbText
  0
TEXT
  5
295
100
AcDbEntity
  8
STANDARD
390
0
100
AcDbText
 10
5.7730267401
 20
125.2232039063
 30
0.0
 40
2.23125
  1
B
 41
1.5479872357
  7
Arial
 72
         1
 11
7.5
 21
125.2232039063
 31
0.0
100
AcDbText
  0
TEXT
  5
296
100
AcDbEntity
  8
STANDARD
390
0
100
AcDbText
 10
5.7728972752
 20
77.7232039063
 30
0.0
 40
2.23125
  1
C
 41
1.5481032827
  7
Arial
 72
         1
 11
7.5
 21
77.7232039063
 31
0.0
100
AcDbText
  0
TEXT
  5
297
100
AcDbEntity
  8
STANDARD
390
0
100
AcDbText
 10
5.7728964192
 20
30.2232039062
 30
0.0
 40
2.23125
  1
D
 41
1.54810405
  7
Arial
 72
         1
 11
7.5
 21
30.2232039062
 31
0.0
100
AcDbText
  0
LINE
  5
298
100
AcDbEntity
  8
STANDARD
390
0
100
AcDbLine
 10
5.0
 20
5.0
 30
0.0
 11
10.0
 21
5.0
 31
0.0
  0
LINE
  5
299
100
AcDbEntity
  8
STANDARD
390
0
100
AcDbLine
 10
292.0
 20
5.0
 30
0.0
 11
292.0
 21
195.0
 31
0.0
  0
LINE
  5
29A
100
AcDbEntity
  8
STANDARD
390
0
100
AcDbLine
 10
292.0
 20
195.0
 30
0.0
 11
10.0
 21
195.0
 31
0.0
  0
LINE
  5
29B
100
AcDbEntity
  8
STANDARD
390
0
100
AcDbLine
 10
5.0
 20
195.0
 30
0.0
 11
5.0
 21
5.0
 31
0.0
  0
LINE
  5
29C
100
AcDbEntity
  8
STANDARD
390
0
100
AcDbLine
 10
296.0
 20
209.0
 30
0.0
 11
1.0
 21
209.0
 31
0.0
  0
LINE
  5
29D
100
AcDbEntity
  8
STANDARD
390
0
100
AcDbLine
 10
296.0
 20
1.0
 30
0.0
 11
296.0
 21
209.0
 31
0.0
  0
LINE
  5
29E
100
AcDbEntity
  8
STANDARD
390
0
100
AcDbLine
 10
1.0
 20
1.0
 30
0.0
 11
296.0
 21
1.0
 31
0.0
  0
LINE
  5
29F
100
AcDbEntity
  8
STANDARD
390
0
100
AcDbLine
 10
1.0
 20
209.0
 30
0.0
 11
1.0
 21
1.0
 31
0.0
  0
LINE
  5
2A0
100
AcDbEntity
  8
STANDARD
390
0
100
AcDbLine
 10
10.0
 20
195.0
 30
0.0
 11
5.0
 21
195.0
 31
0.0
  0
LINE
  5
2A1
100
AcDbEntity
  8
STANDARD
390
0
100
AcDbLine
 10
10.0
 20
5.0
 30
0.0
 11
292.0
 21
5.0
 31
0.0
  0
MTEXT
  5
2A2
100
AcDbEntity
  8
STANDARD
390
0
100
AcDbMText
 10
215.5777227339
 20
6.520569157
 30
0.0
 40
1.59375
 41
0.0
 71
         7
 72
         1
  1

  7
Arial
 73
         1
 44
1.0352941176
  0
MTEXT
  5
2A3
100
AcDbEntity
  8
STANDARD
390
0
100
AcDbMText
 10
269.4128856935
 20
6.5165742187
 30
0.0
 40
1.59375
 41
0.0
 71
         7
 72
         1
  1

  7
Arial
 73
         1
 44
1.0352941176
  0
MTEXT
  5
2A4
100
AcDbEntity
  8
STANDARD
390
0
100
AcDbMText
 10
171.2439051502
 20
6.520569157
 30
0.0
 40
1.59375
 41
0.0
 71
         7
 72
         1
  1

  7
Arial
 73
         1
 44
1.0352941176
  0
LINE
  5
2A5
100
AcDbEntity
  8
_TEMP
370
         0
390
0
100
AcDbLine
 10
168.0194301994
 20
34.4
 30
0.0
 11
291.9134472934
 21
34.4
 31
0.0
  0
LINE
  5
2A6
100
AcDbEntity
  8
_TEMP
370
         0
390
0
100
AcDbLine
 10
168.0194301994
 20
27.4
 30
0.0
 11
291.9134472934
 21
27.4
 31
0.0
  0
LINE
  5
2A7
100
AcDbEntity
  8
_TEMP
370
         0
390
0
100
AcDbLine
 10
168.0194301994
 20
12.0
 30
0.0
 11
291.9134472934
 21
12.0
 31
0.0
  0
LINE
  5
2A8
100
AcDbEntity
  8
_TEMP
370
         0
390
0
100
AcDbLine
 10
168.0194301994
 20
34.4
 30
0.0
 11
168.0194301994
 21
5.0
 31
0.0
  0
LINE
  5
2A9
100
AcDbEntity
  8
_TEMP
370
         0
390
0
100
AcDbLine
 10
214.2194301994
 20
34.4
 30
0.0
 11
214.2194301994
 21
5.0
 31
0.0
  0
LINE
  5
2AA
100
AcDbEntity
  8
_TEMP
370
         0
390
0
100
AcDbLine
 10
252.0194301994
 20
34.4
 30
0.0
 11
252.0194301994
 21
27.4
 31
0.0
  0
TEXT
  5
2AB
100
AcDbEntity
  8
BESCHRIFTUNG
390
0
100
AcDbText
 10
169.1145333333
 20
29.1136
 30
0.0
 40
3.325
  1
Stellwerk HMM
 41
1.3653781858
  7
Arial
 11
169.1145333333
 21
32.4386
 31
0.0
100
AcDbText
 73
         3
  0
MTEXT
  5
2AC
100
AcDbEntity
  8
BESCHRIFTUNG
390
0
100
AcDbMText
 10
215.5344888889
 20
24.9601111111
 30
0.0
 40
3.325
 41
0.0
 71
         1
 72
         1
  1
\W1.121600;Noch ein W-, Gsp- \Pund Signal-Antrieb 
  7
Arial
 73
         1
 44
0.66
  0
TEXT
  5
2AD
100
AcDbEntity
  8
BESCHRIFTUNG
390
0
100
AcDbText
 10
169.1145333333
 20
6.8980888889
 30
0.0
 40
3.325
  1
Dateiname
 41
1.1350744463
 51
15.0
  7
Arial
 11
169.1145333333
 21
10.2230888889
 31
0.0
100
AcDbText
 73
         3
  0
TEXT
  5
2AE
100
AcDbEntity
  8
BESCHRIFTUNG
390
0
100
AcDbText
 10
169.3344888889
 20
21.6351111111
 30
0.0
 40
3.325
  1
Bl. 2655 Ph
 41
1.1349346109
 51
15.0
  7
Arial
 11
169.3344888889
 21
24.9601111111
 31
0.0
100
AcDbText
 73
         3
  0
TEXT
  5
2AF
100
AcDbEntity
  8
BESCHRIFTUNG
390
0
100
AcDbText
 10
253.1145333333
 20
29.1136
 30
0.0
 40
3.325
  1
Maßstab 1:1
 41
1.1349345608
 51
15.0
  7
Arial
 11
253.1145333333
 21
32.4386
 31
0.0
100
AcDbText
 73
         3
  0
TEXT
  5
2B0
100
AcDbEntity
  8
BESCHRIFTUNG
390
0
100
AcDbText
 10
215.3145333333
 20
29.6230888889
 30
0.0
 40
3.0
  1
2025-06-02
 41
1.1351373056
 51
15.0
  7
Arial
 11
215.3145333333
 21
32.6230888889
 31
0.0
100
AcDbText
 73
         3
  0
TEXT
  5
2B1
100
AcDbEntity
  8
BESCHRIFTUNG
390
0
100
AcDbText
 10
215.3145333333
 20
6.8980888889
 30
0.0
 40
3.325
  1
2655 Ph 
 41
1.1350962806
 51
15.0
  7
Arial
 11
215.3145333333
 21
10.2230888889
 31
0.0
100
AcDbText
 73
         3
  0
ENDSEC
  0
SECTION
  2
OBJECTS
  0
DICTIONARY
  5
19
100
AcDbDictionary
280
         0
281
         1
  3
ACAD_GROUP
350
1A
  3
ACAD_MLINESTYLE
350
1B
  3
ACAD_LAYOUT
350
1E
  3
ACAD_PLOTSETTINGS
350
22
  3
ACAD_PLOTSTYLENAME
350
1F
  3
ACAD_WIPEOUT_VARS
350
23
  0
DICTIONARY
  5
1A
102
{ACAD_REACTORS
330
19
102
}
100
AcDbDictionary
280
         0
281
         1
  0
DICTIONARY
  5
1B
102
{ACAD_REACTORS
330
19
102
}
100
AcDbDictionary
280
         0
281
         1
  3
Standard
350
1C
  0
MLINESTYLE
  5
1C
102
{ACAD_REACTORS
330
1B
102
}
100
AcDbMlineStyle
  2
Standard
 70
         0
  3

 62
         0
 51
90.0
 52
90.0
 71
         2
 49
0.5
 62
       256
  6
ByLayer
 49
-0.5
 62
       256
  6
ByLayer
  0
ACDBDICTIONARYWDFLT
  5
1F
102
{ACAD_REACTORS
330
19
102
}
100
AcDbDictionary
281
         1
  3
Normal
350
1D
100
AcDbDictionaryWithDefault
340
1D
  0
ACDBPLACEHOLDER
  5
1D
102
{ACAD_REACTORS
330
1F
102
}
  0
LAYOUT
  5
20
102
{ACAD_REACTORS
330
1E
102
}
100
AcDbPlotSettings
  1

  2

  4

  6

 40
0.0
 41
0.0
 42
0.0
 43
0.0
 44
0.0
 45
0.0
 46
0.0
 47
0.0
 48
0.0
 49
0.0
140
0.0
141
0.0
142
1.0
143
1.0
 70
      1024
 72
         0
 73
         0
 74
         0
  7

 75
         0
147
1.0
148
0.0
149
0.0
100
AcDbLayout
  1
Model
 70
         0
 71
         0
 10
0.0
 20
0.0
 11
0.0
 21
0.0
 12
0.0
 22
0.0
 32
0.0
 14
0.0
 24
0.0
 34
0.0
 15
0.0
 25
0.0
 35
0.0
146
0.0
 13
0.0
 23
0.0
 33
0.0
 16
0.0
 26
0.0
 36
0.0
 17
0.0
 27
0.0
 37
0.0
 76
         0
330
A
331
0
345
0
346
0
  0
LAYOUT
  5
21
102
{ACAD_REACTORS
330
1E
102
}
100
AcDbPlotSettings
  1

  2

  4

  6

 40
0.0
 41
0.0
 42
0.0
 43
0.0
 44
0.0
 45
0.0
 46
0.0
 47
0.0
 48
0.0
 49
0.0
140
0.0
141
0.0
142
1.0
143
1.0
 70
         0
 72
         0
 73
         0
 74
         0
  7

 75
         0
147
1.0
148
0.0
149
0.0
100
AcDbLayout
  1
Layout1
 70
         0
 71
         0
 10
0.0
 20
0.0
 11
0.0
 21
0.0
 12
0.0
 22
0.0
 32
0.0
 14
0.0
 24
0.0
 34
0.0
 15
0.0
 25
0.0
 35
0.0
146
0.0
 13
0.0
 23
0.0
 33
0.0
 16
0.0
 26
0.0
 36
0.0
 17
0.0
 27
0.0
 37
0.0
 76
         0
330
B
331
0
345
0
346
0
  0
DICTIONARY
  5
1E
102
{ACAD_REACTORS
330
19
102
}
100
AcDbDictionary
280
         0
281
         1
  3
Layout1
350
21
  3
Model
350
20
  0
DICTIONARY
  5
22
102
{ACAD_REACTORS
330
19
102
}
100
AcDbDictionary
280
         0
281
         1
  0
WIPEOUTVARIABLES
  5
23
100
AcDbWipeoutVariables
 70
         1
  0
ENDSEC
  0
EOF
