  0
SECTION
  2
HEADER
  9
$ACADVER
  1
AC1015
  9
$ACADMAINTVER
 70
         6
  9
$DWGCODEPAGE
  3
ANSI_1252
  9
$INSBASE
 10
0.0
 20
0.0
 30
0.0
  9
$EXTMIN
 10
-15.5406999588
 20
0.0
 30
0.0
  9
$EXTMAX
 10
78.514755249
 20
133.6558837891
 30
0.0
  9
$LIMMIN
 10
-15.5406999588
 20
0.0
  9
$LIMMAX
 10
78.514755249
 20
133.6558837891
  9
$ORTHOMODE
 70
         0
  9
$REGENMODE
 70
         1
  9
$FILLMODE
 70
         1
  9
$QTEXTMODE
 70
         0
  9
$MIRRTEXT
 70
         1
  9
$LTSCALE
 40
2.3513863802
  9
$ATTMODE
 70
         1
  9
$TEXTSIZE
 40
0.2
  9
$TRACEWID
 40
0.05
  9
$TEXTSTYLE
  7
Standard
  9
$CLAYER
  8
0
  9
$CELTYPE
  6
CONTINUOUS
  9
$CECOLOR
 62
       256
  9
$CELTSCALE
 40
1.0
  9
$DISPSILH
 70
         0
  9
$DIMSCALE
 40
1.0
  9
$DIMASZ
 40
0.18
  9
$DIMEXO
 40
0.0625
  9
$DIMDLI
 40
0.38
  9
$DIMRND
 40
0.0
  9
$DIMDLE
 40
0.0
  9
$DIMEXE
 40
0.18
  9
$DIMTP
 40
0.0
  9
$DIMTM
 40
0.0
  9
$DIMTXT
 40
3.0
  9
$DIMCEN
 40
0.09
  9
$DIMTSZ
 40
0.0
  9
$DIMTOL
 70
         0
  9
$DIMLIM
 70
         0
  9
$DIMTIH
 70
         1
  9
$DIMTOH
 70
         1
  9
$DIMSE1
 70
         0
  9
$DIMSE2
 70
         0
  9
$DIMTAD
 70
         1
  9
$DIMZIN
 70
         0
  9
$DIMBLK
  1

  9
$DIMASO
 70
         1
  9
$DIMSHO
 70
         1
  9
$DIMPOST
  1
<>
  9
$DIMAPOST
  1

  9
$DIMALT
 70
         0
  9
$DIMALTD
 70
         2
  9
$DIMALTF
 40
25.4
  9
$DIMLFAC
 40
1.0
  9
$DIMTOFL
 70
         0
  9
$DIMTVP
 40
0.0
  9
$DIMTIX
 70
         0
  9
$DIMSOXD
 70
         0
  9
$DIMSAH
 70
         0
  9
$DIMBLK1
  1

  9
$DIMBLK2
  1

  9
$DIMSTYLE
  2
Standard
  9
$DIMCLRD
 70
         0
  9
$DIMCLRE
 70
         0
  9
$DIMCLRT
 70
         0
  9
$DIMTFAC
 40
1.0
  9
$DIMGAP
 40
0.09
  9
$DIMJUST
 70
         0
  9
$DIMSD1
 70
         0
  9
$DIMSD2
 70
         0
  9
$DIMTOLJ
 70
         1
  9
$DIMTZIN
 70
         0
  9
$DIMALTZ
 70
         0
  9
$DIMALTTZ
 70
         0
  9
$DIMUPT
 70
         0
  9
$DIMDEC
 70
         4
  9
$DIMTDEC
 70
         4
  9
$DIMALTU
 70
         2
  9
$DIMALTTD
 70
         2
  9
$DIMTXSTY
  7
Standard
  9
$DIMAUNIT
 70
         0
  9
$DIMADEC
 70
         0
  9
$DIMALTRND
 40
0.0
  9
$DIMAZIN
 70
         0
  9
$DIMDSEP
 70
         0
  9
$DIMATFIT
 70
         3
  9
$DIMFRAC
 70
         0
  9
$DIMLDRBLK
  1

  9
$DIMLUNIT
 70
         2
  9
$DIMLWD
 70
         0
  9
$DIMLWE
 70
         0
  9
$DIMTMOVE
 70
         0
  9
$LUNITS
 70
         2
  9
$LUPREC
 70
         4
  9
$SKETCHINC
 40
0.1
  9
$FILLETRAD
 40
0.0
  9
$AUNITS
 70
         0
  9
$AUPREC
 70
         0
  9
$MENU
  1
acad
  9
$ELEVATION
 40
0.0
  9
$PELEVATION
 40
0.0
  9
$THICKNESS
 40
0.0
  9
$LIMCHECK
 70
         0
  9
$CHAMFERA
 40
0.0
  9
$CHAMFERB
 40
0.0
  9
$CHAMFERC
 40
0.0
  9
$CHAMFERD
 40
0.0
  9
$SKPOLY
 70
         0
  9
$TDCREATE
 40
0.000000000
  9
$TDUCREATE
 40
0.000000000
  9
$TDUPDATE
 40
0.000000000
  9
$TDUUPDATE
 40
0.000000000
  9
$TDINDWG
 40
0.0000000000
  9
$TDUSRTIMER
 40
0.0000000000
  9
$USRTIMER
 70
         1
  9
$ANGBASE
 50
0.0
  9
$ANGDIR
 70
         0
  9
$PDMODE
 70
         0
  9
$PDSIZE
 40
0.0
  9
$PLINEWID
 40
0.0
  9
$SPLFRAME
 70
         0
  9
$SPLINETYPE
 70
         6
  9
$SPLINESEGS
 70
         8
  9
$HANDSEED
  5
E2
  9
$SURFTAB1
 70
         6
  9
$SURFTAB2
 70
         6
  9
$SURFTYPE
 70
         6
  9
$SURFU
 70
         6
  9
$SURFV
 70
         6
  9
$UCSBASE
  2

  9
$UCSNAME
  2

  9
$UCSORG
 10
0.0
 20
0.0
 30
0.0
  9
$UCSXDIR
 10
1.0
 20
0.0
 30
0.0
  9
$UCSYDIR
 10
0.0
 20
1.0
 30
0.0
  9
$UCSORTHOREF
  2

  9
$UCSORTHOVIEW
 70
         0
  9
$UCSORGTOP
 10
0.0
 20
0.0
 30
0.0
  9
$UCSORGBOTTOM
 10
0.0
 20
0.0
 30
0.0
  9
$UCSORGLEFT
 10
0.0
 20
0.0
 30
0.0
  9
$UCSORGRIGHT
 10
0.0
 20
0.0
 30
0.0
  9
$UCSORGFRONT
 10
0.0
 20
0.0
 30
0.0
  9
$UCSORGBACK
 10
0.0
 20
0.0
 30
0.0
  9
$PUCSBASE
  2

  9
$PUCSNAME
  2

  9
$PUCSORG
 10
0.0
 20
0.0
 30
0.0
  9
$PUCSXDIR
 10
1.0
 20
0.0
 30
0.0
  9
$PUCSYDIR
 10
0.0
 20
1.0
 30
0.0
  9
$PUCSORTHOREF
  2

  9
$PUCSORTHOVIEW
 70
         0
  9
$PUCSORGTOP
 10
0.0
 20
0.0
 30
0.0
  9
$PUCSORGBOTTOM
 10
0.0
 20
0.0
 30
0.0
  9
$PUCSORGLEFT
 10
0.0
 20
0.0
 30
0.0
  9
$PUCSORGRIGHT
 10
0.0
 20
0.0
 30
0.0
  9
$PUCSORGFRONT
 10
0.0
 20
0.0
 30
0.0
  9
$PUCSORGBACK
 10
0.0
 20
0.0
 30
0.0
  9
$USERI1
 70
         0
  9
$USERI2
 70
         0
  9
$USERI3
 70
         0
  9
$USERI4
 70
         0
  9
$USERI5
 70
         0
  9
$USERR1
 40
0.0
  9
$USERR2
 40
0.0
  9
$USERR3
 40
0.0
  9
$USERR4
 40
0.0
  9
$USERR5
 40
0.0
  9
$WORLDVIEW
 70
         1
  9
$SHADEDGE
 70
         3
  9
$SHADEDIF
 70
        70
  9
$TILEMODE
 70
         1
  9
$MAXACTVP
 70
        16
  9
$PINSBASE
 10
0.0
 20
0.0
 30
0.0
  9
$PLIMCHECK
 70
         0
  9
$PEXTMIN
 10
1.0000000000E+20
 20
1.0000000000E+20
 30
1.0000000000E+20
  9
$PEXTMAX
 10
-1.0000000000E+20
 20
-1.0000000000E+20
 30
-1.0000000000E+20
  9
$PLIMMIN
 10
0.0
 20
0.0
  9
$PLIMMAX
 10
12.0
 20
9.0
  9
$UNITMODE
 70
         0
  9
$VISRETAIN
 70
         0
  9
$PLINEGEN
 70
         1
  9
$PSLTSCALE
 70
         0
  9
$TREEDEPTH
 70
      3020
  9
$CMLSTYLE
  2
Standard
  9
$CMLJUST
 70
         0
  9
$CMLSCALE
 40
1.0
  9
$PROXYGRAPHICS
 70
         0
  9
$MEASUREMENT
 70
         1
  9
$CELWEIGHT
370
         0
  9
$ENDCAPS
280
         0
  9
$JOINSTYLE
280
         0
  9
$LWDISPLAY
290
         0
  9
$INSUNITS
 70
         0
  9
$HYPERLINKBASE
  1

  9
$STYLESHEET
  1

  9
$XEDIT
290
         1
  9
$CEPSNTYPE
380
         0
  9
$PSTYLEMODE
290
         1
  9
$FINGERPRINTGUID
  2

  9
$VERSIONGUID
  2

  9
$EXTNAMES
290
         1
  9
$PSVPSCALE
 40
0.0
  0
ENDSEC
  0
SECTION
  2
CLASSES
  0
CLASS
  1
LWPOLYLINE
  2
AcDbPolyline
  3
AutoCAD 2000
 90
        0
280
         0
281
         1
  0
CLASS
  1
IMAGE
  2
AcDbRasterImage
  3
ISM
 90
      127
280
         0
281
         1
  0
CLASS
  1
OLE2FRAME
  2
AcDbOle2Frame
  3
AutoCAD 2000
 90
        0
280
         0
281
         1
  0
CLASS
  1
HATCH
  2
AcDbHatch
  3
AutoCAD 2000
 90
        0
280
         0
281
         1
  0
CLASS
  1
DICTIONARYVAR
  2
AcDbDictionaryVar
  3
AutoCAD 2000
 90
        0
280
         0
281
         0
  0
CLASS
  1
RASTERVARIABLES
  2
AcDbRasterVariables
  3
ISM
 90
        0
280
         0
281
         0
  0
CLASS
  1
IMAGEDEF
  2
AcDbRasterImageDef
  3
ISM
 90
        0
280
         0
281
         0
  0
CLASS
  1
IMAGEDEF_REACTOR
  2
AcDbRasterImageDefReactor
  3
ISM
 90
        1
280
         0
281
         0
  0
CLASS
  1
IDBUFFER
  2
AcDbIdBuffer
  3
AutoCAD 2000
 90
        0
280
         0
281
         0
  0
CLASS
  1
SPATIAL_FILTER
  2
AcDbSpatialFilter
  3
AutoCAD 2000
 90
        0
280
         0
281
         0
  0
CLASS
  1
XRECORD
  2
AcDbXrecord
  3
AutoCAD 2000
 90
        0
280
         0
281
         0
  0
CLASS
  1
SORTENTSTABLE
  2
AcDbSortentsTable
  3
AutoCAD 2000
 90
        0
280
         0
281
         0
  0
CLASS
  1
LAYER_INDEX
  2
AcDbLayerIndex
  3
AutoCAD 2000
 90
        0
280
         0
281
         0
  0
CLASS
  1
SPATIAL_INDEX
  2
AcDbSpatialIndex
  3
AutoCAD 2000
 90
        0
280
         0
281
         0
  0
CLASS
  1
OBJECT_PTR
  2
CAseDLPNTableRecord
  3
"ASE-LPNTableRecord"
 90
        1
280
         0
281
         0
  0
CLASS
  1
LAYOUT
  2
AcDbLayout
  3
AutoCAD 2000
 90
        0
280
         0
281
         0
  0
CLASS
  1
PLOTSETTINGS
  2
AcDbPlotSettings
  3
AutoCAD 2000
 90
        0
280
         0
281
         0
  0
CLASS
  1
ACDBDICTIONARYWDFLT
  2
AcDbDictionaryWithDefault
  3
AutoCAD 2000
 90
        0
280
         0
281
         0
  0
CLASS
  1
ACDBPLACEHOLDER
  2
AcDbPlaceHolder
  3
AutoCAD 2000
 90
        0
280
         0
281
         0
  0
CLASS
  1
VBA_PROJECT
  2
AcDbVbaProject
  3
acadvba
 90
        0
280
         0
281
         0
  0
CLASS
  1
WIPEOUT
  2
AcDbWipeout
  3
WipeOut|AutoCAD Express Tool|expresstools@autodesk.com
 90
      127
280
         0
281
         1
  0
CLASS
  1
WIPEOUTVARIABLES
  2
AcDbWipeoutVariables
  3
WipeOut|AutoCAD Express Tool|expresstools@autodesk.com
 90
        0
280
         0
281
         0
  0
CLASS
  1
RTEXT
  2
RText
  3
RText|AutoCAD Express Tool|expresstools@autodesk.com
 90
        0
280
         0
281
         1
  0
CLASS
  1
ARCALIGNEDTEXT
  2
AcDbArcAlignedText
  3
ATEXT|AutoCAD Express Tool|expresstools@autodesk.com
 90
        0
280
         0
281
         1
  0
ENDSEC
  0
SECTION
  2
TABLES
  0
TABLE
  2
VPORT
  5
7
100
AcDbSymbolTable
 70
         1
  0
VPORT
  5
15
100
AcDbSymbolTableRecord
100
AcDbViewportTableRecord
  2
*ACTIVE
 70
         0
 10
0.0
 20
0.0
 11
1.0
 21
1.0
 12
62.3479761313
 22
66.8279418945
 13
0.0
 23
0.0
 14
1.0
 24
1.0
 15
0.0
 25
0.0
 16
0.0
 26
0.0
 36
1.0
 17
0.0
 27
0.0
 37
0.0
 40
129.225203952
 41
1.0
 42
50.0
 43
0.0
 44
0.0
 50
0.0
 51
0.0
 71
         0
 72
       100
 73
         1
 74
         1
 75
         0
 76
         0
 77
         0
 78
         0
281
         0
 65
         0
110
0.0
120
0.0
130
0.0
111
1.0
121
0.0
131
0.0
112
0.0
122
1.0
132
0.0
345
0
346
0
 79
         0
146
0.0
  0
ENDTAB
  0
TABLE
  2
LTYPE
  5
4
100
AcDbSymbolTable
 70
        12
  0
LTYPE
  5
11
100
AcDbSymbolTableRecord
100
AcDbLinetypeTableRecord
  2
ByBlock
 70
        64
  3

 72
        65
 73
         0
 40
0.0
  0
LTYPE
  5
12
100
AcDbSymbolTableRecord
100
AcDbLinetypeTableRecord
  2
ByLayer
 70
        64
  3

 72
        65
 73
         0
 40
0.0
  0
LTYPE
  5
13
100
AcDbSymbolTableRecord
100
AcDbLinetypeTableRecord
  2
CONTINUOUS
 70
        64
  3
Solid Line
 72
        65
 73
         0
 40
0.0
  0
LTYPE
  5
24
100
AcDbSymbolTableRecord
100
AcDbLinetypeTableRecord
  2
DOT
 70
        64
  3
. . . . . . . . . . . . . . . . . . . . . . 
 72
        65
 73
         2
 40
0.25
 49
0.0
 74
         0
 49
-0.25
 74
         0
  0
LTYPE
  5
25
100
AcDbSymbolTableRecord
100
AcDbLinetypeTableRecord
  2
HIDDEN
 70
         0
  3
_ _ _ _ _ _ _ _ _ _ _ _ _ _ _ _ _ _ _ _ _ _ _
 72
        65
 73
         2
 40
0.375
 49
0.25
 74
         0
 49
-0.125
 74
         0
  0
LTYPE
  5
26
100
AcDbSymbolTableRecord
100
AcDbLinetypeTableRecord
  2
DASHDOT
 70
         0
  3
__ . __ . __ . __ . __ . __ . __ . __ . __ . __
 72
        65
 73
         4
 40
1.0
 49
0.5
 74
         0
 49
-0.25
 74
         0
 49
0.0
 74
         0
 49
-0.25
 74
         0
  0
LTYPE
  5
27
100
AcDbSymbolTableRecord
100
AcDbLinetypeTableRecord
  2
DIVIDE
 70
         0
  3
__ . . __ . . __ . . __ . . __ . . __ . . __
 72
        65
 73
         6
 40
1.25
 49
0.5
 74
         0
 49
-0.25
 74
         0
 49
0.0
 74
         0
 49
-0.25
 74
         0
 49
0.0
 74
         0
 49
-0.25
 74
         0
  0
LTYPE
  5
28
100
AcDbSymbolTableRecord
100
AcDbLinetypeTableRecord
  2
DASHED
 70
         0
  3
__ __ __ __ __ __ __ __ __ __ __ __ __ __ __
 72
        65
 73
         2
 40
0.75
 49
0.5
 74
         0
 49
-0.25
 74
         0
  0
LTYPE
  5
29
100
AcDbSymbolTableRecord
100
AcDbLinetypeTableRecord
  2
BORDER
 70
         0
  3
__ __ . __ __ . __ __ . __ __ . __ __ .
 72
        65
 73
         6
 40
1.75
 49
0.5
 74
         0
 49
-0.25
 74
         0
 49
0.5
 74
         0
 49
-0.25
 74
         0
 49
0.0
 74
         0
 49
-0.25
 74
         0
  0
LTYPE
  5
2A
100
AcDbSymbolTableRecord
100
AcDbLinetypeTableRecord
  2
CENTER
 70
         0
  3
____ _ ____ _ ____ _ ____ _ ____ _ ____
 72
        65
 73
         4
 40
2.0
 49
1.25
 74
         0
 49
-0.25
 74
         0
 49
0.25
 74
         0
 49
-0.25
 74
         0
  0
LTYPE
  5
2B
100
AcDbSymbolTableRecord
100
AcDbLinetypeTableRecord
  2
DOT2
 70
         0
  3
........................................
 72
        65
 73
         2
 40
0.125
 49
0.0
 74
         0
 49
-0.125
 74
         0
  0
LTYPE
  5
2C
100
AcDbSymbolTableRecord
100
AcDbLinetypeTableRecord
  2
PHANTOM
 70
         0
  3
______  __  __  ______  __  __  ______
 72
        65
 73
         6
 40
2.5
 49
1.25
 74
         0
 49
-0.25
 74
         0
 49
0.25
 74
         0
 49
-0.25
 74
         0
 49
0.25
 74
         0
 49
-0.25
 74
         0
  0
ENDTAB
  0
TABLE
  2
LAYER
  5
2
100
AcDbSymbolTable
 70
        32
  0
LAYER
  5
14
100
AcDbSymbolTableRecord
100
AcDbLayerTableRecord
  2
0
 70
         0
 62
         7
  6
CONTINUOUS
290
         1
370
        -3
390
1D
  0
LAYER
  5
33
100
AcDbSymbolTableRecord
100
AcDbLayerTableRecord
  2
BESCHRIFTUNG
 70
        64
 62
         7
  6
CONTINUOUS
290
         1
370
        25
390
1D
  0
LAYER
  5
34
100
AcDbSymbolTableRecord
100
AcDbLayerTableRecord
  2
SCHRAFFUR
 70
        64
 62
         7
  6
CONTINUOUS
290
         1
370
        25
390
1D
  0
LAYER
  5
35
100
AcDbSymbolTableRecord
100
AcDbLayerTableRecord
  2
MASSTEXTE
 70
        64
 62
       212
  6
CONTINUOUS
290
         1
370
        25
390
1D
  0
LAYER
  5
36
100
AcDbSymbolTableRecord
100
AcDbLayerTableRecord
  2
MASSLINIEN
 70
        64
 62
       172
  6
CONTINUOUS
290
         1
370
        25
390
1D
  0
LAYER
  5
37
100
AcDbSymbolTableRecord
100
AcDbLayerTableRecord
  2
MASSGRENZEN
 70
        64
 62
       172
  6
CONTINUOUS
290
         1
370
        25
390
1D
  0
LAYER
  5
38
100
AcDbSymbolTableRecord
100
AcDbLayerTableRecord
  2
TOLERANZEN
 70
        64
 62
       212
  6
CONTINUOUS
290
         1
370
         0
390
1D
  0
LAYER
  5
39
100
AcDbSymbolTableRecord
100
AcDbLayerTableRecord
  2
BEMASSUNG
 70
        64
 62
         7
  6
CONTINUOUS
290
         1
370
        25
390
1D
  0
LAYER
  5
3A
100
AcDbSymbolTableRecord
100
AcDbLayerTableRecord
  2
HILFSLINIEN
 70
        64
 62
         3
  6
CONTINUOUS
290
         1
370
         0
390
1D
  0
LAYER
  5
3B
100
AcDbSymbolTableRecord
100
AcDbLayerTableRecord
  2
MITTELLINIEN
 70
        64
 62
         5
  6
DASHDOT
290
         1
370
        25
390
1D
  0
LAYER
  5
3C
100
AcDbSymbolTableRecord
100
AcDbLayerTableRecord
  2
BESCHRIFTUNG00
 70
        64
 62
         7
  6
CONTINUOUS
290
         1
370
        25
390
1D
  0
LAYER
  5
3D
100
AcDbSymbolTableRecord
100
AcDbLayerTableRecord
  2
BESCHRIFTUNG0
 70
        64
 62
         7
  6
CONTINUOUS
290
         1
370
        25
390
1D
  0
LAYER
  5
3E
100
AcDbSymbolTableRecord
100
AcDbLayerTableRecord
  2
GEWINDELINIEN
 70
        64
 62
       212
  6
CONTINUOUS
290
         1
370
        25
390
1D
  0
LAYER
  5
3F
100
AcDbSymbolTableRecord
100
AcDbLayerTableRecord
  2
UNSICHTBARE
 70
        64
 62
        92
  6
DASHED
290
         1
370
        25
390
1D
  0
LAYER
  5
40
100
AcDbSymbolTableRecord
100
AcDbLayerTableRecord
  2
VERDECKTE
 70
        64
 62
        92
  6
DASHED
290
         1
370
        25
390
1D
  0
LAYER
  5
41
100
AcDbSymbolTableRecord
100
AcDbLayerTableRecord
  2
LICHTKANTEN
 70
        64
 62
         8
  6
CONTINUOUS
290
         1
370
        25
390
1D
  0
LAYER
  5
42
100
AcDbSymbolTableRecord
100
AcDbLayerTableRecord
  2
SCHNITTVERLAUF
 70
        64
 62
        34
  6
DASHDOT
290
         1
370
        70
390
1D
  0
LAYER
  5
43
100
AcDbSymbolTableRecord
100
AcDbLayerTableRecord
  2
KENNZEICHNUNG
 70
        64
 62
         7
  6
CONTINUOUS
290
         1
370
         0
390
1D
  0
LAYER
  5
44
100
AcDbSymbolTableRecord
100
AcDbLayerTableRecord
  2
PFEILE
 70
        64
 62
         7
  6
CONTINUOUS
290
         1
370
        70
390
1D
  0
LAYER
  5
45
100
AcDbSymbolTableRecord
100
AcDbLayerTableRecord
  2
SCHNITTDARSTELLUNG
 70
        64
 62
         7
  6
CONTINUOUS
290
         1
370
         0
390
1D
  0
LAYER
  5
46
100
AcDbSymbolTableRecord
100
AcDbLayerTableRecord
  2
2660_1 SIGNALMAST
 70
        64
 62
         7
  6
CONTINUOUS
290
         1
370
         0
390
1D
  0
LAYER
  5
47
100
AcDbSymbolTableRecord
100
AcDbLayerTableRecord
  2
2660_2 SIGNALARM ANGEHOBEN
 70
        64
 62
       211
  6
DASHED
290
         1
370
         0
390
1D
  0
LAYER
  5
48
100
AcDbSymbolTableRecord
100
AcDbLayerTableRecord
  2
2660_2 SIGNALARM
 70
        64
 62
       230
  6
CONTINUOUS
290
         1
370
         0
390
1D
  0
LAYER
  5
49
100
AcDbSymbolTableRecord
100
AcDbLayerTableRecord
  2
2660__ KKSTB-SIGNALE N
 70
        64
 62
         7
  6
CONTINUOUS
290
         1
370
         0
390
1D
  0
LAYER
  5
4A
100
AcDbSymbolTableRecord
100
AcDbLayerTableRecord
  2
KONSTRUKTION
 70
        64
 62
         7
  6
CONTINUOUS
290
         1
370
         0
390
1D
  0
LAYER
  5
4B
100
AcDbSymbolTableRecord
100
AcDbLayerTableRecord
  2
2660_1P
 70
        64
 62
        34
  6
CONTINUOUS
290
         1
370
        13
390
1D
  0
LAYER
  5
4C
100
AcDbSymbolTableRecord
100
AcDbLayerTableRecord
  2
2660___ KKSTB-SIGNALFLÜGEL N
 70
        64
 62
       230
  6
CONTINUOUS
290
         1
370
        13
390
1D
  0
LAYER
  5
4D
100
AcDbSymbolTableRecord
100
AcDbLayerTableRecord
  2
2668_1P
 70
        64
 62
        30
  6
CONTINUOUS
290
         1
370
         0
390
1D
  0
LAYER
  5
4E
100
AcDbSymbolTableRecord
100
AcDbLayerTableRecord
  2
2668___ 4 KKSTB-SIGNALFLÜGEL N
 70
        64
 62
       230
  6
CONTINUOUS
290
         1
370
        13
390
1D
  0
LAYER
  5
4F
100
AcDbSymbolTableRecord
100
AcDbLayerTableRecord
  2
PFADE
 70
        64
 62
         7
  6
CONTINUOUS
290
         1
370
         0
390
1D
  0
LAYER
  5
50
100
AcDbSymbolTableRecord
100
AcDbLayerTableRecord
  2
_TEMP
 70
        64
 62
         7
  6
CONTINUOUS
290
         1
370
        50
390
1D
  0
LAYER
  5
51
100
AcDbSymbolTableRecord
100
AcDbLayerTableRecord
  2
STANDARD
 70
        64
 62
         7
  6
CONTINUOUS
290
         1
370
         0
390
1D
  0
ENDTAB
  0
TABLE
  2
STYLE
  5
3
100
AcDbSymbolTable
 70
         7
  0
STYLE
  5
17
100
AcDbSymbolTableRecord
100
AcDbTextStyleTableRecord
  2
Standard
 70
         0
 40
0.0
 41
1.0
 50
0.0
 71
         0
 42
0.0
  3
txt
  4

  0
STYLE
  5
2D
100
AcDbSymbolTableRecord
100
AcDbTextStyleTableRecord
  2
CADdy
 70
         0
 40
0.0
 41
1.0
 50
0.0
 71
         0
 42
3.5
  3
txt.shx
  4

  0
STYLE
  5
2E
100
AcDbSymbolTableRecord
100
AcDbTextStyleTableRecord
  2
Arial
 70
         0
 40
0.0
 41
1.0
 50
0.0
 71
         0
 42
3.5
  3
arial.ttf
  4

1001
ACAD
1000
Arial
1071
       34
  0
STYLE
  5
2F
100
AcDbSymbolTableRecord
100
AcDbTextStyleTableRecord
  2
Isonorm
 70
         0
 40
0.0
 41
1.0
 50
0.0
 71
         0
 42
3.5
  3
txt.shx
  4

  0
STYLE
  5
30
100
AcDbSymbolTableRecord
100
AcDbTextStyleTableRecord
  2
Tahoma
 70
         0
 40
0.0
 41
1.0
 50
0.0
 71
         0
 42
3.5
  3
tahoma.ttf
  4

1001
ACAD
1000
Tahoma
1071
       34
  0
STYLE
  5
31
100
AcDbSymbolTableRecord
100
AcDbTextStyleTableRecord
  2
Microsoft Sans Serif
 70
         0
 40
0.0
 41
1.0
 50
0.0
 71
         0
 42
3.5
  3
micross.ttf
  4

1001
ACAD
1000
Microsoft Sans Serif
1071
       34
  0
STYLE
  5
32
100
AcDbSymbolTableRecord
100
AcDbTextStyleTableRecord
  2
Arial Rounded MT Bold
 70
         0
 40
0.0
 41
1.0
 50
0.0
 71
         0
 42
3.5
  3
txt.shx
  4

  0
ENDTAB
  0
TABLE
  2
VIEW
  5
5
100
AcDbSymbolTable
 70
         0
  0
ENDTAB
  0
TABLE
  2
UCS
  5
6
100
AcDbSymbolTable
 70
         0
  0
ENDTAB
  0
TABLE
  2
APPID
  5
8
100
AcDbSymbolTable
 70
         1
  0
APPID
  5
16
100
AcDbSymbolTableRecord
100
AcDbRegAppTableRecord
  2
ACAD
 70
        64
  0
ENDTAB
  0
TABLE
  2
DIMSTYLE
  5
9
100
AcDbSymbolTable
 70
         1
100
AcDbDimStyleTable
 71
         0
  0
DIMSTYLE
105
18
100
AcDbSymbolTableRecord
100
AcDbDimStyleTableRecord
  2
Standard
 70
         0
  3

  4

 40
1.0
 41
0.18
 42
0.0625
 43
0.38
 44
0.18
 45
0.0
 46
0.0
 47
0.0
 48
0.0
 71
         0
 72
         0
 73
         1
 74
         1
 75
         0
 76
         0
 77
         0
 78
         0
 79
         0
140
0.18
141
0.09
142
0.0
143
25.4
144
1.0
145
0.0
146
1.0
147
0.09
148
0.0
170
         0
171
         2
172
         0
173
         0
174
         0
175
         0
176
         0
177
         0
178
         0
179
         0
271
         4
272
         4
273
         2
274
         2
275
         0
276
         0
277
         2
278
        46
279
         0
280
         0
281
         0
282
         0
283
         1
284
         0
285
         0
286
         0
288
         0
289
         3
340
17
341
0
342
0
343
0
344
0
371
        -2
372
        -2
  0
ENDTAB
  0
TABLE
  2
BLOCK_RECORD
  5
1
100
AcDbSymbolTable
 70
         2
  0
BLOCK_RECORD
  5
A
100
AcDbSymbolTableRecord
100
AcDbBlockTableRecord
  2
*MODEL_SPACE
340
20
  0
BLOCK_RECORD
  5
B
100
AcDbSymbolTableRecord
100
AcDbBlockTableRecord
  2
*PAPER_SPACE
340
21
  0
BLOCK_RECORD
  5
52
100
AcDbSymbolTableRecord
100
AcDbBlockTableRecord
  2
D570932736
340
0
102
{BLKREFS
331
AA
102
}
  0
BLOCK_RECORD
  5
5B
100
AcDbSymbolTableRecord
100
AcDbBlockTableRecord
  2
D482489600
340
0
102
{BLKREFS
331
AD
102
}
  0
ENDTAB
  0
ENDSEC
  0
SECTION
  2
BLOCKS
  0
BLOCK
  5
D
100
AcDbEntity
  8
0
390
0
100
AcDbBlockBegin
  2
*MODEL_SPACE
 70
         0
 10
0.0
 20
0.0
 30
0.0
  3
*MODEL_SPACE
  1

  0
ENDBLK
  5
E
100
AcDbEntity
  8
0
390
0
100
AcDbBlockEnd
  0
BLOCK
  5
F
100
AcDbEntity
 67
         1
  8
0
390
0
100
AcDbBlockBegin
  2
*PAPER_SPACE
 70
         0
 10
0.0
 20
0.0
 30
0.0
  3
*PAPER_SPACE
  1

  0
ENDBLK
  5
10
100
AcDbEntity
 67
         1
  8
0
390
0
100
AcDbBlockEnd
  0
BLOCK
  5
53
100
AcDbEntity
  8
BEMASSUNG
390
0
100
AcDbBlockBegin
  2
D570932736
 70
         0
 10
0.0
 20
0.0
 30
0.0
  3
D570932736
  1

  0
LINE
  5
54
100
AcDbEntity
  8
MASSLINIEN
390
0
 62
       172
100
AcDbLine
 10
16.8061308271
 20
38.0
 30
0.0
 11
36.8061308271
 21
38.0
 31
0.0
  0
LINE
  5
55
100
AcDbEntity
  8
MASSLINIEN
390
0
 62
       172
100
AcDbLine
 10
16.8061308271
 20
53.2427082707
 30
0.0
 11
16.8061308271
 21
37.6
 31
0.0
  0
LINE
  5
56
100
AcDbEntity
  8
MASSLINIEN
390
0
 62
       172
100
AcDbLine
 10
36.8061308271
 20
53.2427082707
 30
0.0
 11
36.8061308271
 21
37.6
 31
0.0
  0
SOLID
  5
57
100
AcDbEntity
  8
MASSGRENZEN
390
0
100
AcDbTrace
 10
16.8061308271
 20
38.0
 30
0.0
 11
17.4009977439
 21
38.0783157153
 31
0.0
 12
17.4009977439
 22
37.9216842847
 32
0.0
 13
17.4009977439
 23
37.9216842847
 33
0.0
  0
SOLID
  5
58
100
AcDbEntity
  8
MASSGRENZEN
390
0
100
AcDbTrace
 10
36.8061308271
 20
38.0
 30
0.0
 11
36.2112639102
 21
37.9216842847
 31
0.0
 12
36.2112639102
 22
38.0783157153
 32
0.0
 13
36.2112639102
 23
38.0783157153
 33
0.0
  0
MTEXT
  5
59
100
AcDbEntity
  8
MASSTEXTE
390
0
 62
       212
100
AcDbMText
 10
26.8061308271
 20
38.6368
 30
0.0
 40
0.6
 41
0.0
 71
         5
 72
         1
  1
\W1.135145;\A1;20
  7
Arial
 73
         0
 44
0.0
  0
ENDBLK
  5
5A
100
AcDbEntity
  8
0
390
0
100
AcDbBlockEnd
  0
BLOCK
  5
5C
100
AcDbEntity
  8
BEMASSUNG
390
0
100
AcDbBlockBegin
  2
D482489600
 70
         0
 10
0.0
 20
0.0
 30
0.0
  3
D482489600
  1

  0
LINE
  5
5D
100
AcDbEntity
  8
MASSLINIEN
390
0
 62
       172
100
AcDbLine
 10
6.0
 20
52.3632169438
 30
0.0
 11
6.0
 21
44.3632169438
 31
0.0
  0
LINE
  5
5E
100
AcDbEntity
  8
MASSLINIEN
390
0
 62
       172
100
AcDbLine
 10
16.8061308271
 20
52.3632169438
 30
0.0
 11
5.6
 21
52.3632169438
 31
0.0
  0
LINE
  5
5F
100
AcDbEntity
  8
MASSLINIEN
390
0
 62
       172
100
AcDbLine
 10
16.8061308271
 20
44.3632169438
 30
0.0
 11
5.6
 21
44.3632169438
 31
0.0
  0
SOLID
  5
60
100
AcDbEntity
  8
MASSGRENZEN
390
0
100
AcDbTrace
 10
6.0
 20
52.3632169438
 30
0.0
 11
6.0783157153
 21
51.768350027
 31
0.0
 12
5.9216842847
 22
51.768350027
 32
0.0
 13
5.9216842847
 23
51.768350027
 33
0.0
  0
SOLID
  5
61
100
AcDbEntity
  8
MASSGRENZEN
390
0
100
AcDbTrace
 10
6.0
 20
44.3632169438
 30
0.0
 11
5.9216842847
 21
44.9580838606
 31
0.0
 12
6.0783157153
 22
44.9580838606
 32
0.0
 13
6.0783157153
 23
44.9580838606
 33
0.0
  0
MTEXT
  5
62
100
AcDbEntity
  8
MASSTEXTE
390
0
 62
       212
100
AcDbMText
 10
5.3632
 20
48.3632169438
 30
0.0
 40
0.6
 41
0.0
 71
         5
 72
         1
  1
\W1.135145;\A1;8
  7
Arial
 11
0.0
 21
1.0
 31
0.0
 73
         0
 44
0.0
  0
ENDBLK
  5
63
100
AcDbEntity
  8
0
390
0
100
AcDbBlockEnd
  0
ENDSEC
  0
SECTION
  2
ENTITIES
  0
LINE
  5
64
100
AcDbEntity
  8
2660_2 SIGNALARM
390
0
100
AcDbLine
 10
33.8769125762
 20
49.6573857053
 30
0.0
 11
22.942022441
 21
49.6573857053
 31
0.0
  0
LINE
  5
65
100
AcDbEntity
  8
2660_2 SIGNALARM
390
0
100
AcDbLine
 10
33.8769125762
 20
47.6573857053
 30
0.0
 11
25.8711223975
 21
47.6573857053
 31
0.0
  0
ARC
  5
66
100
AcDbEntity
  8
2660_2 SIGNALARM
390
0
100
AcDbCircle
 10
22.942022441
 20
48.6573857053
 30
0.0
 40
1.0
100
AcDbArc
 50
90.0
 51
139.4729661098
  0
ARC
  5
67
100
AcDbEntity
  8
2660_2 SIGNALARM
390
0
100
AcDbCircle
 10
24.3794440341
 20
47.6573857053
 30
0.0
 40
0.9916783634
100
AcDbArc
 50
180.0
 51
330.7966241335
  0
CIRCLE
  5
68
100
AcDbEntity
  8
2660_2 SIGNALARM
390
0
100
AcDbCircle
 10
25.2428502652
 20
48.6573857053
 30
0.0
 40
0.6
  0
LINE
  5
69
100
AcDbEntity
  8
2660_2 SIGNALARM
390
0
100
AcDbLine
 10
33.8769125762
 20
49.6573857053
 30
0.0
 11
33.8769125762
 21
47.6573857053
 31
0.0
  0
LINE
  5
6A
100
AcDbEntity
  8
2660_2 SIGNALARM
390
0
100
AcDbLine
 10
26.3857516378
 20
49.2073857053
 30
0.0
 11
26.3857516378
 21
48.1073857053
 31
0.0
  0
LINE
  5
6B
100
AcDbEntity
  8
2660_2 SIGNALARM
390
0
100
AcDbLine
 10
26.0857516378
 20
48.1073857053
 30
0.0
 11
26.0857516378
 21
49.2073857053
 31
0.0
  0
LINE
  5
6C
100
AcDbEntity
  8
2660_2 SIGNALARM
390
0
100
AcDbLine
 10
23.3877656707
 20
47.6573857053
 30
0.0
 11
22.942022441
 21
47.6573857053
 31
0.0
  0
CIRCLE
  5
6D
100
AcDbEntity
  8
2660_2 SIGNALARM
390
0
100
AcDbCircle
 10
20.5092397597
 20
49.5181529949
 30
0.0
 40
0.2
  0
CIRCLE
  5
6E
100
AcDbEntity
  8
2660_2 SIGNALARM
390
0
100
AcDbCircle
 10
22.942022441
 20
48.5877376392
 30
0.0
 40
0.15
  0
CIRCLE
  5
6F
100
AcDbEntity
  8
2660_2 SIGNALARM
390
0
100
AcDbCircle
 10
25.3711223975
 20
47.6573857053
 30
0.0
 40
0.2
  0
ARC
  5
70
100
AcDbEntity
  8
2660_2 SIGNALARM
390
0
100
AcDbCircle
 10
22.942022441
 20
48.6573857053
 30
0.0
 40
1.0
100
AcDbArc
 50
186.7558856147
 51
270.0
  0
CIRCLE
  5
71
100
AcDbEntity
  8
2660_2 SIGNALARM
390
0
100
AcDbCircle
 10
24.3794440341
 20
47.6573857053
 30
0.0
 40
0.6
  0
ARC
  5
72
100
AcDbEntity
  8
2660_2 SIGNALARM
390
0
100
AcDbCircle
 10
25.3711223975
 20
47.6573857053
 30
0.0
 40
0.5
100
AcDbArc
 50
255.3983120667
 51
360.0
  0
LINE
  5
73
100
AcDbEntity
  8
2660_2 SIGNALARM
390
0
100
AcDbLine
 10
20.1858317898
 20
50.0717008584
 30
0.0
 11
22.1819229893
 21
49.307192464
 31
0.0
  0
LINE
  5
74
100
AcDbEntity
  8
2660_2 SIGNALARM
390
0
100
AcDbLine
 10
21.948966063
 20
48.5397462972
 30
0.0
 11
19.8996983307
 21
49.3246214493
 31
0.0
  0
LINE
  5
75
100
AcDbEntity
  8
2660_2 SIGNALARM
390
0
100
AcDbLine
 10
19.8996983307
 20
49.3246214493
 30
0.0
 11
20.1858317898
 21
50.0717008584
 31
0.0
  0
ARC
  5
76
100
AcDbEntity
  8
2660_2 SIGNALARM
390
0
100
AcDbCircle
 10
26.2357516378
 20
49.2073857053
 30
0.0
 40
0.15
100
AcDbArc
 50
0.0
 51
180.0
  0
ARC
  5
77
100
AcDbEntity
  8
2660_2 SIGNALARM
390
0
100
AcDbCircle
 10
26.2357516378
 20
48.1073857053
 30
0.0
 40
0.15
100
AcDbArc
 50
180.0
 51
360.0
  0
ARC
  5
78
100
AcDbEntity
  8
2660_2 SIGNALARM
390
0
100
AcDbCircle
 10
27.1357516378
 20
48.1073857053
 30
0.0
 40
0.15
100
AcDbArc
 50
180.0
 51
360.0
  0
LINE
  5
79
100
AcDbEntity
  8
2660_2 SIGNALARM
390
0
100
AcDbLine
 10
26.9857516378
 20
48.1073857053
 30
0.0
 11
26.9857516378
 21
49.2073857053
 31
0.0
  0
LINE
  5
7A
100
AcDbEntity
  8
2660_2 SIGNALARM
390
0
100
AcDbLine
 10
27.2857516378
 20
49.2073857053
 30
0.0
 11
27.2857516378
 21
48.1073857053
 31
0.0
  0
ARC
  5
7B
100
AcDbEntity
  8
2660_2 SIGNALARM
390
0
100
AcDbCircle
 10
27.1357516378
 20
49.2073857053
 30
0.0
 40
0.15
100
AcDbArc
 50
0.0
 51
180.0
  0
LINE
  5
7C
100
AcDbEntity
  8
2660_2 SIGNALARM
390
0
100
AcDbLine
 10
28.1857516378
 20
49.2073857053
 30
0.0
 11
28.1857516378
 21
48.1073857053
 31
0.0
  0
LINE
  5
7D
100
AcDbEntity
  8
2660_2 SIGNALARM
390
0
100
AcDbLine
 10
27.8857516378
 20
48.1073857053
 30
0.0
 11
27.8857516378
 21
49.2073857053
 31
0.0
  0
ARC
  5
7E
100
AcDbEntity
  8
2660_2 SIGNALARM
390
0
100
AcDbCircle
 10
28.0357516378
 20
48.1073857053
 30
0.0
 40
0.15
100
AcDbArc
 50
180.0
 51
360.0
  0
ARC
  5
7F
100
AcDbEntity
  8
2660_2 SIGNALARM
390
0
100
AcDbCircle
 10
28.0357516378
 20
49.2073857053
 30
0.0
 40
0.15
100
AcDbArc
 50
0.0
 51
180.0
  0
LINE
  5
80
100
AcDbEntity
  8
2660_2 SIGNALARM
390
0
100
AcDbLine
 10
29.0857516378
 20
49.2073857053
 30
0.0
 11
29.0857516378
 21
48.1073857053
 31
0.0
  0
LINE
  5
81
100
AcDbEntity
  8
2660_2 SIGNALARM
390
0
100
AcDbLine
 10
28.7857516378
 20
48.1073857053
 30
0.0
 11
28.7857516378
 21
49.2073857053
 31
0.0
  0
ARC
  5
82
100
AcDbEntity
  8
2660_2 SIGNALARM
390
0
100
AcDbCircle
 10
28.9357516378
 20
48.1073857053
 30
0.0
 40
0.15
100
AcDbArc
 50
180.0
 51
360.0
  0
ARC
  5
83
100
AcDbEntity
  8
2660_2 SIGNALARM
390
0
100
AcDbCircle
 10
28.9357516378
 20
49.2073857053
 30
0.0
 40
0.15
100
AcDbArc
 50
0.0
 51
180.0
  0
LINE
  5
84
100
AcDbEntity
  8
2660_2 SIGNALARM
390
0
100
AcDbLine
 10
29.9857516378
 20
49.2073857053
 30
0.0
 11
29.9857516378
 21
48.1073857053
 31
0.0
  0
LINE
  5
85
100
AcDbEntity
  8
2660_2 SIGNALARM
390
0
100
AcDbLine
 10
29.6857516378
 20
48.1073857053
 30
0.0
 11
29.6857516378
 21
49.2073857053
 31
0.0
  0
ARC
  5
86
100
AcDbEntity
  8
2660_2 SIGNALARM
390
0
100
AcDbCircle
 10
29.8357516378
 20
48.1073857053
 30
0.0
 40
0.15
100
AcDbArc
 50
180.0
 51
360.0
  0
ARC
  5
87
100
AcDbEntity
  8
2660_2 SIGNALARM
390
0
100
AcDbCircle
 10
29.8357516378
 20
49.2073857053
 30
0.0
 40
0.15
100
AcDbArc
 50
0.0
 51
180.0
  0
LINE
  5
88
100
AcDbEntity
  8
2660_2 SIGNALARM
390
0
100
AcDbLine
 10
30.8857516378
 20
49.2073857053
 30
0.0
 11
30.8857516378
 21
48.1073857053
 31
0.0
  0
LINE
  5
89
100
AcDbEntity
  8
2660_2 SIGNALARM
390
0
100
AcDbLine
 10
30.5857516378
 20
48.1073857053
 30
0.0
 11
30.5857516378
 21
49.2073857053
 31
0.0
  0
ARC
  5
8A
100
AcDbEntity
  8
2660_2 SIGNALARM
390
0
100
AcDbCircle
 10
30.7357516378
 20
48.1073857053
 30
0.0
 40
0.15
100
AcDbArc
 50
180.0
 51
360.0
  0
ARC
  5
8B
100
AcDbEntity
  8
2660_2 SIGNALARM
390
0
100
AcDbCircle
 10
30.7357516378
 20
49.2073857053
 30
0.0
 40
0.15
100
AcDbArc
 50
0.0
 51
180.0
  0
LINE
  5
8C
100
AcDbEntity
  8
2660_2 SIGNALARM
390
0
100
AcDbLine
 10
31.7857516378
 20
49.2073857053
 30
0.0
 11
31.7857516378
 21
48.1073857053
 31
0.0
  0
LINE
  5
8D
100
AcDbEntity
  8
2660_2 SIGNALARM
390
0
100
AcDbLine
 10
31.4857516378
 20
48.1073857053
 30
0.0
 11
31.4857516378
 21
49.2073857053
 31
0.0
  0
ARC
  5
8E
100
AcDbEntity
  8
2660_2 SIGNALARM
390
0
100
AcDbCircle
 10
31.6357516378
 20
48.1073857053
 30
0.0
 40
0.15
100
AcDbArc
 50
180.0
 51
360.0
  0
ARC
  5
8F
100
AcDbEntity
  8
2660_2 SIGNALARM
390
0
100
AcDbCircle
 10
31.6357516378
 20
49.2073857053
 30
0.0
 40
0.15
100
AcDbArc
 50
0.0
 51
180.0
  0
LINE
  5
90
100
AcDbEntity
  8
2660_2 SIGNALARM
390
0
100
AcDbLine
 10
32.3857516378
 20
48.1073857053
 30
0.0
 11
32.3857516378
 21
49.2073857053
 31
0.0
  0
LINE
  5
91
100
AcDbEntity
  8
2660_2 SIGNALARM
390
0
100
AcDbLine
 10
32.6857516378
 20
49.2073857053
 30
0.0
 11
32.6857516378
 21
48.1073857053
 31
0.0
  0
ARC
  5
92
100
AcDbEntity
  8
2660_2 SIGNALARM
390
0
100
AcDbCircle
 10
32.5357516378
 20
48.1073857053
 30
0.0
 40
0.15
100
AcDbArc
 50
180.0
 51
360.0
  0
ARC
  5
93
100
AcDbEntity
  8
2660_2 SIGNALARM
390
0
100
AcDbCircle
 10
32.5357516378
 20
49.2073857053
 30
0.0
 40
0.15
100
AcDbArc
 50
0.0
 51
180.0
  0
LINE
  5
94
100
AcDbEntity
  8
2660_2 SIGNALARM
390
0
100
AcDbLine
 10
33.2857516378
 20
48.1073857053
 30
0.0
 11
33.2857516378
 21
49.2073857053
 31
0.0
  0
LINE
  5
95
100
AcDbEntity
  8
2660_2 SIGNALARM
390
0
100
AcDbLine
 10
33.5857516378
 20
49.2073857053
 30
0.0
 11
33.5857516378
 21
48.1073857053
 31
0.0
  0
ARC
  5
96
100
AcDbEntity
  8
2660_2 SIGNALARM
390
0
100
AcDbCircle
 10
33.4357516378
 20
48.1073857053
 30
0.0
 40
0.15
100
AcDbArc
 50
180.0
 51
360.0
  0
ARC
  5
97
100
AcDbEntity
  8
2660_2 SIGNALARM
390
0
100
AcDbCircle
 10
33.4357516378
 20
49.2073857053
 30
0.0
 40
0.15
100
AcDbArc
 50
0.0
 51
180.0
  0
ARC
  5
98
100
AcDbEntity
  8
2660_2 SIGNALARM ANGEHOBEN
390
0
100
AcDbCircle
 10
78.4090631613
 20
133.5058865182
 30
0.0
 40
0.15
100
AcDbArc
 50
45.2
 51
225.2
  0
MTEXT
  5
99
100
AcDbEntity
  8
BESCHRIFTUNG
390
0
100
AcDbMText
 10
4.142577494
 20
56.1805004408
 30
0.0
 40
0.6
 41
0.0
 71
         1
 72
         1
  1
\W1.135098;\L2660.1P\P(2mm-Bit)
  7
Arial
 73
         1
 44
0.66
  0
LINE
  5
9A
100
AcDbEntity
  8
2660_1P
390
0
100
AcDbLine
 10
34.8769125762
 20
50.6573857053
 30
0.0
 11
22.942022441
 21
50.6573857053
 31
0.0
  0
LINE
  5
9B
100
AcDbEntity
  8
2660_1P
390
0
  6
DASHED
100
AcDbLine
 10
34.8769125762
 20
50.6573857053
 30
0.0
 11
34.8769125762
 21
46.6573857053
 31
0.0
  0
LINE
  5
9C
100
AcDbEntity
  8
2660_1P
390
0
100
AcDbLine
 10
34.8769125762
 20
46.6573857053
 30
0.0
 11
26.4891563862
 21
46.6573857053
 31
0.0
  0
ARC
  5
9D
100
AcDbEntity
  8
2660_1P
390
0
100
AcDbCircle
 10
24.3794440341
 20
47.6573857053
 30
0.0
 40
1.9916783634
100
AcDbArc
 50
209.3995938199
 51
313.1225444548
  0
ARC
  5
9E
100
AcDbEntity
  8
2660_1P
390
0
100
AcDbCircle
 10
25.3711223975
 20
47.6573857053
 30
0.0
 40
1.5
100
AcDbArc
 50
284.2707065925
 51
318.1896851042
  0
ARC
  5
9F
100
AcDbEntity
  8
2660_1P
390
0
100
AcDbCircle
 10
22.942022441
 20
48.6573857053
 30
0.0
 40
2.0
100
AcDbArc
 50
206.1411294669
 51
261.437885551
  0
LINE
  5
A0
100
AcDbEntity
  8
2660_1P
390
0
100
AcDbLine
 10
21.1465993681
 20
47.7762183039
 30
0.0
 11
18.6081822454
 21
48.7484390117
 31
0.0
  0
LINE
  5
A1
100
AcDbEntity
  8
2660_1P
390
0
100
AcDbLine
 10
19.6096493523
 20
51.3632169438
 30
0.0
 11
22.0287522913
 21
50.4366938949
 31
0.0
  0
ARC
  5
A2
100
AcDbEntity
  8
2660_1P
390
0
100
AcDbCircle
 10
22.942022441
 20
48.6573857053
 30
0.0
 40
2.0
100
AcDbArc
 50
90.0
 51
117.1701872656
  0
LINE
  5
A3
100
AcDbEntity
  8
MITTELLINIEN
390
0
100
AcDbLine
 10
16.8061308271
 20
54.2427082707
 30
0.0
 11
16.8061308271
 21
42.2427082707
 31
0.0
  0
LINE
  5
A4
100
AcDbEntity
  8
MITTELLINIEN
390
0
100
AcDbLine
 10
36.8061308271
 20
54.2427082707
 30
0.0
 11
36.8061308271
 21
42.2427082707
 31
0.0
  0
CIRCLE
  5
A5
100
AcDbEntity
  8
2660_1P
390
0
  6
PHANTOM
100
AcDbCircle
 10
16.8061308271
 20
52.3632169438
 30
0.0
 40
0.5
  0
CIRCLE
  5
A6
100
AcDbEntity
  8
2660_1P
390
0
  6
PHANTOM
100
AcDbCircle
 10
16.8061308271
 20
44.3632169438
 30
0.0
 40
1.0
  0
LINE
  5
A7
100
AcDbEntity
  8
2660_1P
390
0
  6
HIDDEN
100
AcDbLine
 10
16.8061308271
 20
52.3632169438
 30
0.0
 11
19.6096493523
 21
51.3632169438
 31
0.0
  0
LINE
  5
A8
100
AcDbEntity
  8
2660_1P
390
0
  6
HIDDEN
100
AcDbLine
 10
18.6081822454
 20
48.7484390117
 30
0.0
 11
16.8061308271
 21
44.3632169438
 31
0.0
  0
MTEXT
  5
A9
100
AcDbEntity
  8
2660_1P
390
0
100
AcDbMText
 10
17.2624455288
 20
52.1471043743
 30
0.0
 40
0.6
 41
0.0
 71
         5
 72
         1
  1
\W1.135109;M20+x0,5 F150\PT0,5       O2 S7\PB-0,4 I1
  7
Arial
 73
         1
 44
0.66
  0
INSERT
  5
AA
100
AcDbEntity
  8
BEMASSUNG
390
0
100
AcDbBlockReference
  2
D570932736
 10
0.0
 20
0.0
 30
0.0
  0
ARC
  5
AB
100
AcDbEntity
  8
2660___ KKSTB-SIGNALFLÜGEL N
390
0
  6
DASHDOT
100
AcDbCircle
 10
15.2695583435
 20
48.3632169438
 30
0.0
 40
4.284980163
100
AcDbArc
 50
68.9860644741
 51
291.0139355259
  0
MTEXT
  5
AC
100
AcDbEntity
  8
2660___ KKSTB-SIGNALFLÜGEL N
390
0
  6
DASHDOT
100
AcDbMText
 10
11.9845781806
 20
48.3632169438
 30
0.0
 40
1.0
 41
0.0
 71
         5
 72
         1
  1
\W1.135109;>2660.1P T0,5\PO2 M20+x0,5
  7
Arial
 73
         1
 44
0.66
  0
INSERT
  5
AD
100
AcDbEntity
  8
BEMASSUNG
390
0
100
AcDbBlockReference
  2
D482489600
 10
0.0
 20
0.0
 30
0.0
  0
MTEXT
  5
AE
100
AcDbEntity
  8
2660___ KKSTB-SIGNALFLÜGEL N
390
0
  6
DASHDOT
100
AcDbMText
 10
-12.0154218194
 20
48.3632169438
 30
0.0
 40
1.0
 41
0.0
 71
         5
 72
         1
  1
\W1.135110;>2660.1P\PT0,5    O2
  7
Arial
 73
         1
 44
0.66
  0
ARC
  5
AF
100
AcDbEntity
  8
2660___ KKSTB-SIGNALFLÜGEL N
390
0
  6
DASHDOT
100
AcDbCircle
 10
-8.7304416565
 20
48.3632169438
 30
0.0
 40
4.284980163
100
AcDbArc
 50
68.9860644741
 51
291.0139355259
  0
TEXT
  5
B0
100
AcDbEntity
  8
BESCHRIFTUNG0
390
0
100
AcDbText
 10
25.680217208
 20
5.8646177778
 30
0.0
 40
0.66
  1
2025-06-20
 41
0.9828170278
  7
Arial
 11
25.680217208
 21
6.5246177778
 31
0.0
100
AcDbText
 73
         3
  0
TEXT
  5
B1
100
AcDbEntity
  8
BESCHRIFTUNG0
390
0
100
AcDbText
 10
25.680217208
 20
1.3846177778
 30
0.0
 40
0.66
  1
2660 Pv kkStB-Signalflügel N
 41
0.9828042338
  7
Arial
 11
25.680217208
 21
2.0446177778
 31
0.0
100
AcDbText
 73
         3
  0
LINE
  5
B2
100
AcDbEntity
  8
STANDARD
390
0
100
AcDbLine
 10
2.0
 20
1.0
 30
0.0
 11
2.0
 21
58.4
 31
0.0
  0
LINE
  5
B3
100
AcDbEntity
  8
STANDARD
390
0
100
AcDbLine
 10
3.0
 20
57.4
 30
0.0
 11
41.0
 21
57.4
 31
0.0
  0
LINE
  5
B4
100
AcDbEntity
  8
STANDARD
390
0
100
AcDbLine
 10
2.0
 20
58.4
 30
0.0
 11
3.0
 21
58.4
 31
0.0
  0
LINE
  5
B5
100
AcDbEntity
  8
STANDARD
390
0
100
AcDbLine
 10
2.0
 20
1.0
 30
0.0
 11
3.0
 21
1.0
 31
0.0
  0
LINE
  5
B6
100
AcDbEntity
  8
STANDARD
390
0
100
AcDbLine
 10
2.0
 20
48.8333333333
 30
0.0
 11
3.0
 21
48.8333333333
 31
0.0
  0
LINE
  5
B7
100
AcDbEntity
  8
STANDARD
390
0
100
AcDbLine
 10
2.0
 20
39.2666666667
 30
0.0
 11
3.0
 21
39.2666666667
 31
0.0
  0
LINE
  5
B8
100
AcDbEntity
  8
STANDARD
390
0
100
AcDbLine
 10
2.0
 20
29.7
 30
0.0
 11
3.0
 21
29.7
 31
0.0
  0
LINE
  5
B9
100
AcDbEntity
  8
STANDARD
390
0
100
AcDbLine
 10
2.0
 20
20.1333333333
 30
0.0
 11
3.0
 21
20.1333333333
 31
0.0
  0
LINE
  5
BA
100
AcDbEntity
  8
STANDARD
390
0
100
AcDbLine
 10
2.0
 20
10.5666666667
 30
0.0
 11
3.0
 21
10.5666666667
 31
0.0
  0
LINE
  5
BB
100
AcDbEntity
  8
STANDARD
390
0
100
AcDbLine
 10
31.5
 20
58.4
 30
0.0
 11
31.5
 21
57.4
 31
0.0
  0
LINE
  5
BC
100
AcDbEntity
  8
STANDARD
390
0
100
AcDbLine
 10
22.0
 20
58.4
 30
0.0
 11
22.0
 21
57.4
 31
0.0
  0
LINE
  5
BD
100
AcDbEntity
  8
STANDARD
390
0
100
AcDbLine
 10
12.5
 20
58.4
 30
0.0
 11
12.5
 21
57.4
 31
0.0
  0
TEXT
  5
BE
100
AcDbEntity
  8
STANDARD
390
0
100
AcDbText
 10
2.1898215738
 20
53.5728312256
 30
0.0
 40
0.44625
  1
A
 41
1.547986837
  7
Arial
 72
         1
 11
2.5352161368
 21
54.0190812256
 31
0.0
100
AcDbText
 73
         3
  0
TEXT
  5
BF
100
AcDbEntity
  8
STANDARD
390
0
100
AcDbText
 10
2.1898214849
 20
44.0061645589
 30
0.0
 40
0.44625
  1
B
 41
1.5479872357
  7
Arial
 72
         1
 11
2.5352161368
 21
44.4524145589
 31
0.0
100
AcDbText
 73
         3
  0
TEXT
  5
C0
100
AcDbEntity
  8
STANDARD
390
0
100
AcDbText
 10
2.1897955919
 20
34.4394978922
 30
0.0
 40
0.44625
  1
C
 41
1.5481032827
  7
Arial
 72
         1
 11
2.5352161368
 21
34.8857478922
 31
0.0
100
AcDbText
 73
         3
  0
TEXT
  5
C1
100
AcDbEntity
  8
STANDARD
390
0
100
AcDbText
 10
2.1897954207
 20
24.8728312256
 30
0.0
 40
0.44625
  1
D
 41
1.54810405
  7
Arial
 72
         1
 11
2.5352161368
 21
25.3190812256
 31
0.0
100
AcDbText
 73
         3
  0
TEXT
  5
C2
100
AcDbEntity
  8
STANDARD
390
0
100
AcDbText
 10
2.1898215219
 20
15.3061645589
 30
0.0
 40
0.44625
  1
E
 41
1.5479870696
  7
Arial
 72
         1
 11
2.5352161368
 21
15.7524145589
 31
0.0
100
AcDbText
 73
         3
  0
TEXT
  5
C3
100
AcDbEntity
  8
STANDARD
390
0
100
AcDbText
 10
2.1898701322
 20
5.7394978922
 30
0.0
 40
0.44625
  1
F
 41
1.5477692083
  7
Arial
 72
         1
 11
2.5352161368
 21
6.1857478922
 31
0.0
100
AcDbText
 73
         3
  0
TEXT
  5
C4
100
AcDbEntity
  8
STANDARD
390
0
100
AcDbText
 10
7.340964829
 20
57.697198708
 30
0.0
 40
0.44625
  1
1
 41
1.5479225906
  7
Arial
 72
         1
 11
7.6
 21
58.143448708
 31
0.0
100
AcDbText
 73
         3
  0
TEXT
  5
C5
100
AcDbEntity
  8
STANDARD
390
0
100
AcDbText
 10
16.7546199942
 20
57.697198708
 30
0.0
 40
0.44625
  1
2
 41
1.5479215945
  7
Arial
 72
         1
 11
17.1
 21
58.143448708
 31
0.0
100
AcDbText
 73
         3
  0
TEXT
  5
C6
100
AcDbEntity
  8
STANDARD
390
0
100
AcDbText
 10
26.2546197275
 20
57.697198708
 30
0.0
 40
0.44625
  1
3
 41
1.5479227899
  7
Arial
 72
         1
 11
26.6
 21
58.143448708
 31
0.0
100
AcDbText
 73
         3
  0
TEXT
  5
C7
100
AcDbEntity
  8
STANDARD
390
0
100
AcDbText
 10
35.754619772
 20
57.697198708
 30
0.0
 40
0.44625
  1
4
 41
1.5479225906
  7
Arial
 72
         1
 11
36.1
 21
58.143448708
 31
0.0
100
AcDbText
 73
         3
  0
LINE
  5
C8
100
AcDbEntity
  8
STANDARD
390
0
100
AcDbLine
 10
41.0
 20
58.4
 30
0.0
 11
41.0
 21
57.4
 31
0.0
  0
LINE
  5
C9
100
AcDbEntity
  8
STANDARD
390
0
100
AcDbLine
 10
41.0
 20
1.0
 30
0.0
 11
3.0
 21
1.0
 31
0.0
  0
LINE
  5
CA
100
AcDbEntity
  8
STANDARD
390
0
100
AcDbLine
 10
3.0
 20
1.0
 30
0.0
 11
3.0
 21
57.4
 31
0.0
  0
LINE
  5
CB
100
AcDbEntity
  8
STANDARD
390
0
100
AcDbLine
 10
3.0
 20
58.4
 30
0.0
 11
41.0
 21
58.4
 31
0.0
  0
LINE
  5
CC
100
AcDbEntity
  8
STANDARD
390
0
100
AcDbLine
 10
0.2
 20
0.2
 30
0.0
 11
0.2
 21
59.2
 31
0.0
  0
LINE
  5
CD
100
AcDbEntity
  8
STANDARD
390
0
100
AcDbLine
 10
41.8
 20
0.2
 30
0.0
 11
0.2
 21
0.2
 31
0.0
  0
LINE
  5
CE
100
AcDbEntity
  8
STANDARD
390
0
100
AcDbLine
 10
41.8
 20
59.2
 30
0.0
 11
41.8
 21
0.2
 31
0.0
  0
LINE
  5
CF
100
AcDbEntity
  8
STANDARD
390
0
100
AcDbLine
 10
0.2
 20
59.2
 30
0.0
 11
41.8
 21
59.2
 31
0.0
  0
LINE
  5
D0
100
AcDbEntity
  8
STANDARD
390
0
100
AcDbLine
 10
3.0
 20
57.4
 30
0.0
 11
3.0
 21
58.4
 31
0.0
  0
LINE
  5
D1
100
AcDbEntity
  8
STANDARD
390
0
100
AcDbLine
 10
41.0
 20
57.4
 30
0.0
 11
41.0
 21
1.0
 31
0.0
  0
MTEXT
  5
D2
100
AcDbEntity
  8
STANDARD
390
0
100
AcDbMText
 10
40.7212658561
 20
16.2844554532
 30
0.0
 40
0.31875
 41
0.0
 71
         1
 72
         1
  1

  7
Arial
 11
0.0
 21
-1.0
 31
0.0
 73
         1
 44
1.0352941176
  0
MTEXT
  5
D3
100
AcDbEntity
  8
STANDARD
390
0
100
AcDbMText
 10
40.7220648438
 20
5.5174228613
 30
0.0
 40
0.31875
 41
0.0
 71
         1
 72
         1
  1

  7
Arial
 11
0.0
 21
-1.0
 31
0.0
 73
         1
 44
1.0352941176
  0
MTEXT
  5
D4
100
AcDbEntity
  8
STANDARD
390
0
100
AcDbMText
 10
40.7212658561
 20
25.15121897
 30
0.0
 40
0.31875
 41
0.0
 71
         1
 72
         1
  1

  7
Arial
 11
0.0
 21
-1.0
 31
0.0
 73
         1
 44
1.0352941176
  0
LINE
  5
D5
100
AcDbEntity
  8
STANDARD
370
         0
390
0
100
AcDbLine
 10
16.2211965812
 20
6.88
 30
0.0
 11
41.0
 21
6.88
 31
0.0
  0
LINE
  5
D6
100
AcDbEntity
  8
STANDARD
370
         0
390
0
100
AcDbLine
 10
16.2211965812
 20
5.48
 30
0.0
 11
41.0
 21
5.48
 31
0.0
  0
LINE
  5
D7
100
AcDbEntity
  8
STANDARD
370
         0
390
0
100
AcDbLine
 10
16.2211965812
 20
2.4
 30
0.0
 11
41.0
 21
2.4
 31
0.0
  0
LINE
  5
D8
100
AcDbEntity
  8
STANDARD
390
0
100
AcDbLine
 10
41.0
 20
36.423019943
 30
0.0
 11
41.0
 21
1.0247293447
 31
0.0
  0
LINE
  5
D9
100
AcDbEntity
  8
STANDARD
370
         0
390
0
100
AcDbLine
 10
16.2211965812
 20
6.88
 30
0.0
 11
16.2211965812
 21
1.0
 31
0.0
  0
LINE
  5
DA
100
AcDbEntity
  8
STANDARD
370
         0
390
0
100
AcDbLine
 10
25.4611965812
 20
6.88
 30
0.0
 11
25.4611965812
 21
1.0
 31
0.0
  0
LINE
  5
DB
100
AcDbEntity
  8
STANDARD
370
         0
390
0
100
AcDbLine
 10
33.0211965812
 20
6.88
 30
0.0
 11
33.0211965812
 21
5.48
 31
0.0
  0
TEXT
  5
DC
100
AcDbEntity
  8
BESCHRIFTUNG0
390
0
100
AcDbText
 10
16.440217208
 20
5.82272
 30
0.0
 40
0.665
  1
Stellwerk HMM
 41
1.3653781858
 51
15.0
  7
Arial
 11
16.440217208
 21
6.48772
 31
0.0
100
AcDbText
 73
         3
  0
MTEXT
  5
DD
100
AcDbEntity
  8
BESCHRIFTUNG0
390
0
100
AcDbMText
 10
25.7242083191
 20
4.9920222222
 30
0.0
 40
0.665
 41
0.0
 71
         1
 72
         1
  1
\W1.134955;Altösterr. einflügeliges Signal\P1:160
  7
Arial
 73
         1
 44
0.66
  0
TEXT
  5
DE
100
AcDbEntity
  8
BESCHRIFTUNG0
390
0
100
AcDbText
 10
16.440217208
 20
1.3796177778
 30
0.0
 40
0.665
  1
Dateiname
 41
1.1350744463
 51
15.0
  7
Arial
 11
16.440217208
 21
2.0446177778
 31
0.0
100
AcDbText
 73
         3
  0
TEXT
  5
DF
100
AcDbEntity
  8
BESCHRIFTUNG0
390
0
100
AcDbText
 10
16.4842083191
 20
4.3270222222
 30
0.0
 40
0.665
  1
Bl. 2660 Pv
 41
1.1349494149
 51
15.0
  7
Arial
 11
16.4842083191
 21
4.9920222222
 31
0.0
100
AcDbText
 73
         3
  0
TEXT
  5
E0
100
AcDbEntity
  8
BESCHRIFTUNG0
390
0
100
AcDbText
 10
33.240217208
 20
5.82272
 30
0.0
 40
0.665
  1
5:1
 41
1.1348651466
 51
15.0
  7
Arial
 11
33.240217208
 21
6.48772
 31
0.0
100
AcDbText
 73
         3
  0
ENDSEC
  0
SECTION
  2
OBJECTS
  0
DICTIONARY
  5
19
100
AcDbDictionary
280
         0
281
         1
  3
ACAD_GROUP
350
1A
  3
ACAD_MLINESTYLE
350
1B
  3
ACAD_LAYOUT
350
1E
  3
ACAD_PLOTSETTINGS
350
22
  3
ACAD_PLOTSTYLENAME
350
1F
  3
ACAD_WIPEOUT_VARS
350
23
  0
DICTIONARY
  5
1A
102
{ACAD_REACTORS
330
19
102
}
100
AcDbDictionary
280
         0
281
         1
  0
DICTIONARY
  5
1B
102
{ACAD_REACTORS
330
19
102
}
100
AcDbDictionary
280
         0
281
         1
  3
Standard
350
1C
  0
MLINESTYLE
  5
1C
102
{ACAD_REACTORS
330
1B
102
}
100
AcDbMlineStyle
  2
Standard
 70
         0
  3

 62
         0
 51
90.0
 52
90.0
 71
         2
 49
0.5
 62
       256
  6
ByLayer
 49
-0.5
 62
       256
  6
ByLayer
  0
ACDBDICTIONARYWDFLT
  5
1F
102
{ACAD_REACTORS
330
19
102
}
100
AcDbDictionary
281
         1
  3
Normal
350
1D
100
AcDbDictionaryWithDefault
340
1D
  0
ACDBPLACEHOLDER
  5
1D
102
{ACAD_REACTORS
330
1F
102
}
  0
LAYOUT
  5
20
102
{ACAD_REACTORS
330
1E
102
}
100
AcDbPlotSettings
  1

  2

  4

  6

 40
0.0
 41
0.0
 42
0.0
 43
0.0
 44
0.0
 45
0.0
 46
0.0
 47
0.0
 48
0.0
 49
0.0
140
0.0
141
0.0
142
1.0
143
1.0
 70
      1024
 72
         0
 73
         0
 74
         0
  7

 75
         0
147
1.0
148
0.0
149
0.0
100
AcDbLayout
  1
Model
 70
         0
 71
         0
 10
0.0
 20
0.0
 11
0.0
 21
0.0
 12
0.0
 22
0.0
 32
0.0
 14
0.0
 24
0.0
 34
0.0
 15
0.0
 25
0.0
 35
0.0
146
0.0
 13
0.0
 23
0.0
 33
0.0
 16
0.0
 26
0.0
 36
0.0
 17
0.0
 27
0.0
 37
0.0
 76
         0
330
A
331
0
345
0
346
0
  0
LAYOUT
  5
21
102
{ACAD_REACTORS
330
1E
102
}
100
AcDbPlotSettings
  1

  2

  4

  6

 40
0.0
 41
0.0
 42
0.0
 43
0.0
 44
0.0
 45
0.0
 46
0.0
 47
0.0
 48
0.0
 49
0.0
140
0.0
141
0.0
142
1.0
143
1.0
 70
         0
 72
         0
 73
         0
 74
         0
  7

 75
         0
147
1.0
148
0.0
149
0.0
100
AcDbLayout
  1
Layout1
 70
         0
 71
         0
 10
0.0
 20
0.0
 11
0.0
 21
0.0
 12
0.0
 22
0.0
 32
0.0
 14
0.0
 24
0.0
 34
0.0
 15
0.0
 25
0.0
 35
0.0
146
0.0
 13
0.0
 23
0.0
 33
0.0
 16
0.0
 26
0.0
 36
0.0
 17
0.0
 27
0.0
 37
0.0
 76
         0
330
B
331
0
345
0
346
0
  0
DICTIONARY
  5
1E
102
{ACAD_REACTORS
330
19
102
}
100
AcDbDictionary
280
         0
281
         1
  3
Layout1
350
21
  3
Model
350
20
  0
DICTIONARY
  5
22
102
{ACAD_REACTORS
330
19
102
}
100
AcDbDictionary
280
         0
281
         1
  0
WIPEOUTVARIABLES
  5
23
100
AcDbWipeoutVariables
 70
         1
  0
ENDSEC
  0
EOF
