  0
SECTION
  2
HEADER
  9
$ACADVER
  1
AC1015
  9
$ACADMAINTVER
 70
         6
  9
$DWGCODEPAGE
  3
ANSI_1252
  9
$INSBASE
 10
0.0
 20
0.0
 30
0.0
  9
$EXTMIN
 10
0.0
 20
0.0
 30
0.0
  9
$EXTMAX
 10
148.5
 20
105.0
 30
0.0
  9
$LIMMIN
 10
0.0
 20
0.0
  9
$LIMMAX
 10
148.5
 20
105.0
  9
$ORTHOMODE
 70
         0
  9
$REGENMODE
 70
         1
  9
$FILLMODE
 70
         1
  9
$QTEXTMODE
 70
         0
  9
$MIRRTEXT
 70
         1
  9
$LTSCALE
 40
3.7125
  9
$ATTMODE
 70
         1
  9
$TEXTSIZE
 40
0.2
  9
$TRACEWID
 40
0.05
  9
$TEXTSTYLE
  7
Standard
  9
$CLAYER
  8
0
  9
$CELTYPE
  6
CONTINUOUS
  9
$CECOLOR
 62
       256
  9
$CELTSCALE
 40
1.0
  9
$DISPSILH
 70
         0
  9
$DIMSCALE
 40
1.0
  9
$DIMASZ
 40
0.18
  9
$DIMEXO
 40
0.0625
  9
$DIMDLI
 40
0.38
  9
$DIMRND
 40
0.0
  9
$DIMDLE
 40
0.0
  9
$DIMEXE
 40
0.18
  9
$DIMTP
 40
0.0
  9
$DIMTM
 40
0.0
  9
$DIMTXT
 40
3.0
  9
$DIMCEN
 40
0.09
  9
$DIMTSZ
 40
0.0
  9
$DIMTOL
 70
         0
  9
$DIMLIM
 70
         0
  9
$DIMTIH
 70
         1
  9
$DIMTOH
 70
         1
  9
$DIMSE1
 70
         0
  9
$DIMSE2
 70
         0
  9
$DIMTAD
 70
         1
  9
$DIMZIN
 70
         0
  9
$DIMBLK
  1

  9
$DIMASO
 70
         1
  9
$DIMSHO
 70
         1
  9
$DIMPOST
  1
<>
  9
$DIMAPOST
  1

  9
$DIMALT
 70
         0
  9
$DIMALTD
 70
         2
  9
$DIMALTF
 40
25.4
  9
$DIMLFAC
 40
1.0
  9
$DIMTOFL
 70
         0
  9
$DIMTVP
 40
0.0
  9
$DIMTIX
 70
         0
  9
$DIMSOXD
 70
         0
  9
$DIMSAH
 70
         0
  9
$DIMBLK1
  1

  9
$DIMBLK2
  1

  9
$DIMSTYLE
  2
Standard
  9
$DIMCLRD
 70
         0
  9
$DIMCLRE
 70
         0
  9
$DIMCLRT
 70
         0
  9
$DIMTFAC
 40
1.0
  9
$DIMGAP
 40
0.09
  9
$DIMJUST
 70
         0
  9
$DIMSD1
 70
         0
  9
$DIMSD2
 70
         0
  9
$DIMTOLJ
 70
         1
  9
$DIMTZIN
 70
         0
  9
$DIMALTZ
 70
         0
  9
$DIMALTTZ
 70
         0
  9
$DIMUPT
 70
         0
  9
$DIMDEC
 70
         4
  9
$DIMTDEC
 70
         4
  9
$DIMALTU
 70
         2
  9
$DIMALTTD
 70
         2
  9
$DIMTXSTY
  7
Standard
  9
$DIMAUNIT
 70
         0
  9
$DIMADEC
 70
         0
  9
$DIMALTRND
 40
0.0
  9
$DIMAZIN
 70
         0
  9
$DIMDSEP
 70
         0
  9
$DIMATFIT
 70
         3
  9
$DIMFRAC
 70
         0
  9
$DIMLDRBLK
  1

  9
$DIMLUNIT
 70
         2
  9
$DIMLWD
 70
         0
  9
$DIMLWE
 70
         0
  9
$DIMTMOVE
 70
         0
  9
$LUNITS
 70
         2
  9
$LUPREC
 70
         4
  9
$SKETCHINC
 40
0.1
  9
$FILLETRAD
 40
0.0
  9
$AUNITS
 70
         0
  9
$AUPREC
 70
         0
  9
$MENU
  1
acad
  9
$ELEVATION
 40
0.0
  9
$PELEVATION
 40
0.0
  9
$THICKNESS
 40
0.0
  9
$LIMCHECK
 70
         0
  9
$CHAMFERA
 40
0.0
  9
$CHAMFERB
 40
0.0
  9
$CHAMFERC
 40
0.0
  9
$CHAMFERD
 40
0.0
  9
$SKPOLY
 70
         0
  9
$TDCREATE
 40
0.000000000
  9
$TDUCREATE
 40
0.000000000
  9
$TDUPDATE
 40
0.000000000
  9
$TDUUPDATE
 40
0.000000000
  9
$TDINDWG
 40
0.0000000000
  9
$TDUSRTIMER
 40
0.0000000000
  9
$USRTIMER
 70
         1
  9
$ANGBASE
 50
0.0
  9
$ANGDIR
 70
         0
  9
$PDMODE
 70
         0
  9
$PDSIZE
 40
0.0
  9
$PLINEWID
 40
0.0
  9
$SPLFRAME
 70
         0
  9
$SPLINETYPE
 70
         6
  9
$SPLINESEGS
 70
         8
  9
$HANDSEED
  5
D3
  9
$SURFTAB1
 70
         6
  9
$SURFTAB2
 70
         6
  9
$SURFTYPE
 70
         6
  9
$SURFU
 70
         6
  9
$SURFV
 70
         6
  9
$UCSBASE
  2

  9
$UCSNAME
  2

  9
$UCSORG
 10
0.0
 20
0.0
 30
0.0
  9
$UCSXDIR
 10
1.0
 20
0.0
 30
0.0
  9
$UCSYDIR
 10
0.0
 20
1.0
 30
0.0
  9
$UCSORTHOREF
  2

  9
$UCSORTHOVIEW
 70
         0
  9
$UCSORGTOP
 10
0.0
 20
0.0
 30
0.0
  9
$UCSORGBOTTOM
 10
0.0
 20
0.0
 30
0.0
  9
$UCSORGLEFT
 10
0.0
 20
0.0
 30
0.0
  9
$UCSORGRIGHT
 10
0.0
 20
0.0
 30
0.0
  9
$UCSORGFRONT
 10
0.0
 20
0.0
 30
0.0
  9
$UCSORGBACK
 10
0.0
 20
0.0
 30
0.0
  9
$PUCSBASE
  2

  9
$PUCSNAME
  2

  9
$PUCSORG
 10
0.0
 20
0.0
 30
0.0
  9
$PUCSXDIR
 10
1.0
 20
0.0
 30
0.0
  9
$PUCSYDIR
 10
0.0
 20
1.0
 30
0.0
  9
$PUCSORTHOREF
  2

  9
$PUCSORTHOVIEW
 70
         0
  9
$PUCSORGTOP
 10
0.0
 20
0.0
 30
0.0
  9
$PUCSORGBOTTOM
 10
0.0
 20
0.0
 30
0.0
  9
$PUCSORGLEFT
 10
0.0
 20
0.0
 30
0.0
  9
$PUCSORGRIGHT
 10
0.0
 20
0.0
 30
0.0
  9
$PUCSORGFRONT
 10
0.0
 20
0.0
 30
0.0
  9
$PUCSORGBACK
 10
0.0
 20
0.0
 30
0.0
  9
$USERI1
 70
         0
  9
$USERI2
 70
         0
  9
$USERI3
 70
         0
  9
$USERI4
 70
         0
  9
$USERI5
 70
         0
  9
$USERR1
 40
0.0
  9
$USERR2
 40
0.0
  9
$USERR3
 40
0.0
  9
$USERR4
 40
0.0
  9
$USERR5
 40
0.0
  9
$WORLDVIEW
 70
         1
  9
$SHADEDGE
 70
         3
  9
$SHADEDIF
 70
        70
  9
$TILEMODE
 70
         1
  9
$MAXACTVP
 70
        16
  9
$PINSBASE
 10
0.0
 20
0.0
 30
0.0
  9
$PLIMCHECK
 70
         0
  9
$PEXTMIN
 10
1.0000000000E+20
 20
1.0000000000E+20
 30
1.0000000000E+20
  9
$PEXTMAX
 10
-1.0000000000E+20
 20
-1.0000000000E+20
 30
-1.0000000000E+20
  9
$PLIMMIN
 10
0.0
 20
0.0
  9
$PLIMMAX
 10
12.0
 20
9.0
  9
$UNITMODE
 70
         0
  9
$VISRETAIN
 70
         0
  9
$PLINEGEN
 70
         1
  9
$PSLTSCALE
 70
         0
  9
$TREEDEPTH
 70
      3020
  9
$CMLSTYLE
  2
Standard
  9
$CMLJUST
 70
         0
  9
$CMLSCALE
 40
1.0
  9
$PROXYGRAPHICS
 70
         0
  9
$MEASUREMENT
 70
         1
  9
$CELWEIGHT
370
         0
  9
$ENDCAPS
280
         0
  9
$JOINSTYLE
280
         0
  9
$LWDISPLAY
290
         0
  9
$INSUNITS
 70
         0
  9
$HYPERLINKBASE
  1

  9
$STYLESHEET
  1

  9
$XEDIT
290
         1
  9
$CEPSNTYPE
380
         0
  9
$PSTYLEMODE
290
         1
  9
$FINGERPRINTGUID
  2

  9
$VERSIONGUID
  2

  9
$EXTNAMES
290
         1
  9
$PSVPSCALE
 40
0.0
  0
ENDSEC
  0
SECTION
  2
CLASSES
  0
CLASS
  1
LWPOLYLINE
  2
AcDbPolyline
  3
AutoCAD 2000
 90
        0
280
         0
281
         1
  0
CLASS
  1
IMAGE
  2
AcDbRasterImage
  3
ISM
 90
      127
280
         0
281
         1
  0
CLASS
  1
OLE2FRAME
  2
AcDbOle2Frame
  3
AutoCAD 2000
 90
        0
280
         0
281
         1
  0
CLASS
  1
HATCH
  2
AcDbHatch
  3
AutoCAD 2000
 90
        0
280
         0
281
         1
  0
CLASS
  1
DICTIONARYVAR
  2
AcDbDictionaryVar
  3
AutoCAD 2000
 90
        0
280
         0
281
         0
  0
CLASS
  1
RASTERVARIABLES
  2
AcDbRasterVariables
  3
ISM
 90
        0
280
         0
281
         0
  0
CLASS
  1
IMAGEDEF
  2
AcDbRasterImageDef
  3
ISM
 90
        0
280
         0
281
         0
  0
CLASS
  1
IMAGEDEF_REACTOR
  2
AcDbRasterImageDefReactor
  3
ISM
 90
        1
280
         0
281
         0
  0
CLASS
  1
IDBUFFER
  2
AcDbIdBuffer
  3
AutoCAD 2000
 90
        0
280
         0
281
         0
  0
CLASS
  1
SPATIAL_FILTER
  2
AcDbSpatialFilter
  3
AutoCAD 2000
 90
        0
280
         0
281
         0
  0
CLASS
  1
XRECORD
  2
AcDbXrecord
  3
AutoCAD 2000
 90
        0
280
         0
281
         0
  0
CLASS
  1
SORTENTSTABLE
  2
AcDbSortentsTable
  3
AutoCAD 2000
 90
        0
280
         0
281
         0
  0
CLASS
  1
LAYER_INDEX
  2
AcDbLayerIndex
  3
AutoCAD 2000
 90
        0
280
         0
281
         0
  0
CLASS
  1
SPATIAL_INDEX
  2
AcDbSpatialIndex
  3
AutoCAD 2000
 90
        0
280
         0
281
         0
  0
CLASS
  1
OBJECT_PTR
  2
CAseDLPNTableRecord
  3
"ASE-LPNTableRecord"
 90
        1
280
         0
281
         0
  0
CLASS
  1
LAYOUT
  2
AcDbLayout
  3
AutoCAD 2000
 90
        0
280
         0
281
         0
  0
CLASS
  1
PLOTSETTINGS
  2
AcDbPlotSettings
  3
AutoCAD 2000
 90
        0
280
         0
281
         0
  0
CLASS
  1
ACDBDICTIONARYWDFLT
  2
AcDbDictionaryWithDefault
  3
AutoCAD 2000
 90
        0
280
         0
281
         0
  0
CLASS
  1
ACDBPLACEHOLDER
  2
AcDbPlaceHolder
  3
AutoCAD 2000
 90
        0
280
         0
281
         0
  0
CLASS
  1
VBA_PROJECT
  2
AcDbVbaProject
  3
acadvba
 90
        0
280
         0
281
         0
  0
CLASS
  1
WIPEOUT
  2
AcDbWipeout
  3
WipeOut|AutoCAD Express Tool|expresstools@autodesk.com
 90
      127
280
         0
281
         1
  0
CLASS
  1
WIPEOUTVARIABLES
  2
AcDbWipeoutVariables
  3
WipeOut|AutoCAD Express Tool|expresstools@autodesk.com
 90
        0
280
         0
281
         0
  0
CLASS
  1
RTEXT
  2
RText
  3
RText|AutoCAD Express Tool|expresstools@autodesk.com
 90
        0
280
         0
281
         1
  0
CLASS
  1
ARCALIGNEDTEXT
  2
AcDbArcAlignedText
  3
ATEXT|AutoCAD Express Tool|expresstools@autodesk.com
 90
        0
280
         0
281
         1
  0
ENDSEC
  0
SECTION
  2
TABLES
  0
TABLE
  2
VPORT
  5
7
100
AcDbSymbolTable
 70
         1
  0
VPORT
  5
15
100
AcDbSymbolTableRecord
100
AcDbViewportTableRecord
  2
*ACTIVE
 70
         0
 10
0.0
 20
0.0
 11
1.0
 21
1.0
 12
74.25
 22
52.5
 13
0.0
 23
0.0
 14
1.0
 24
1.0
 15
0.0
 25
0.0
 16
0.0
 26
0.0
 36
1.0
 17
0.0
 27
0.0
 37
0.0
 40
115.6471946172
 41
1.0
 42
50.0
 43
0.0
 44
0.0
 50
0.0
 51
0.0
 71
         0
 72
       100
 73
         1
 74
         1
 75
         0
 76
         0
 77
         0
 78
         0
281
         0
 65
         0
110
0.0
120
0.0
130
0.0
111
1.0
121
0.0
131
0.0
112
0.0
122
1.0
132
0.0
345
0
346
0
 79
         0
146
0.0
  0
ENDTAB
  0
TABLE
  2
LTYPE
  5
4
100
AcDbSymbolTable
 70
        12
  0
LTYPE
  5
11
100
AcDbSymbolTableRecord
100
AcDbLinetypeTableRecord
  2
ByBlock
 70
        64
  3

 72
        65
 73
         0
 40
0.0
  0
LTYPE
  5
12
100
AcDbSymbolTableRecord
100
AcDbLinetypeTableRecord
  2
ByLayer
 70
        64
  3

 72
        65
 73
         0
 40
0.0
  0
LTYPE
  5
13
100
AcDbSymbolTableRecord
100
AcDbLinetypeTableRecord
  2
CONTINUOUS
 70
        64
  3
Solid Line
 72
        65
 73
         0
 40
0.0
  0
LTYPE
  5
24
100
AcDbSymbolTableRecord
100
AcDbLinetypeTableRecord
  2
DOT
 70
        64
  3
. . . . . . . . . . . . . . . . . . . . . . 
 72
        65
 73
         2
 40
0.25
 49
0.0
 74
         0
 49
-0.25
 74
         0
  0
LTYPE
  5
25
100
AcDbSymbolTableRecord
100
AcDbLinetypeTableRecord
  2
HIDDEN
 70
         0
  3
_ _ _ _ _ _ _ _ _ _ _ _ _ _ _ _ _ _ _ _ _ _ _
 72
        65
 73
         2
 40
0.375
 49
0.25
 74
         0
 49
-0.125
 74
         0
  0
LTYPE
  5
26
100
AcDbSymbolTableRecord
100
AcDbLinetypeTableRecord
  2
DASHDOT
 70
         0
  3
__ . __ . __ . __ . __ . __ . __ . __ . __ . __
 72
        65
 73
         4
 40
1.0
 49
0.5
 74
         0
 49
-0.25
 74
         0
 49
0.0
 74
         0
 49
-0.25
 74
         0
  0
LTYPE
  5
27
100
AcDbSymbolTableRecord
100
AcDbLinetypeTableRecord
  2
DIVIDE
 70
         0
  3
__ . . __ . . __ . . __ . . __ . . __ . . __
 72
        65
 73
         6
 40
1.25
 49
0.5
 74
         0
 49
-0.25
 74
         0
 49
0.0
 74
         0
 49
-0.25
 74
         0
 49
0.0
 74
         0
 49
-0.25
 74
         0
  0
LTYPE
  5
28
100
AcDbSymbolTableRecord
100
AcDbLinetypeTableRecord
  2
DASHED
 70
         0
  3
__ __ __ __ __ __ __ __ __ __ __ __ __ __ __
 72
        65
 73
         2
 40
0.75
 49
0.5
 74
         0
 49
-0.25
 74
         0
  0
LTYPE
  5
29
100
AcDbSymbolTableRecord
100
AcDbLinetypeTableRecord
  2
BORDER
 70
         0
  3
__ __ . __ __ . __ __ . __ __ . __ __ .
 72
        65
 73
         6
 40
1.75
 49
0.5
 74
         0
 49
-0.25
 74
         0
 49
0.5
 74
         0
 49
-0.25
 74
         0
 49
0.0
 74
         0
 49
-0.25
 74
         0
  0
LTYPE
  5
2A
100
AcDbSymbolTableRecord
100
AcDbLinetypeTableRecord
  2
CENTER
 70
         0
  3
____ _ ____ _ ____ _ ____ _ ____ _ ____
 72
        65
 73
         4
 40
2.0
 49
1.25
 74
         0
 49
-0.25
 74
         0
 49
0.25
 74
         0
 49
-0.25
 74
         0
  0
LTYPE
  5
2B
100
AcDbSymbolTableRecord
100
AcDbLinetypeTableRecord
  2
DOT2
 70
         0
  3
........................................
 72
        65
 73
         2
 40
0.125
 49
0.0
 74
         0
 49
-0.125
 74
         0
  0
LTYPE
  5
2C
100
AcDbSymbolTableRecord
100
AcDbLinetypeTableRecord
  2
PHANTOM
 70
         0
  3
______  __  __  ______  __  __  ______
 72
        65
 73
         6
 40
2.5
 49
1.25
 74
         0
 49
-0.25
 74
         0
 49
0.25
 74
         0
 49
-0.25
 74
         0
 49
0.25
 74
         0
 49
-0.25
 74
         0
  0
ENDTAB
  0
TABLE
  2
LAYER
  5
2
100
AcDbSymbolTable
 70
        51
  0
LAYER
  5
14
100
AcDbSymbolTableRecord
100
AcDbLayerTableRecord
  2
0
 70
         0
 62
         7
  6
CONTINUOUS
290
         1
370
        -3
390
1D
  0
LAYER
  5
33
100
AcDbSymbolTableRecord
100
AcDbLayerTableRecord
  2
BESCHRIFTUNG
 70
        64
 62
         7
  6
CONTINUOUS
290
         1
370
        25
390
1D
  0
LAYER
  5
34
100
AcDbSymbolTableRecord
100
AcDbLayerTableRecord
  2
SCHRAFFUR
 70
        64
 62
         7
  6
CONTINUOUS
290
         1
370
        25
390
1D
  0
LAYER
  5
35
100
AcDbSymbolTableRecord
100
AcDbLayerTableRecord
  2
MASSTEXTE
 70
        64
 62
       212
  6
CONTINUOUS
290
         1
370
        25
390
1D
  0
LAYER
  5
36
100
AcDbSymbolTableRecord
100
AcDbLayerTableRecord
  2
MASSLINIEN
 70
        64
 62
       172
  6
CONTINUOUS
290
         1
370
        25
390
1D
  0
LAYER
  5
37
100
AcDbSymbolTableRecord
100
AcDbLayerTableRecord
  2
MASSGRENZEN
 70
        64
 62
       172
  6
CONTINUOUS
290
         1
370
        25
390
1D
  0
LAYER
  5
38
100
AcDbSymbolTableRecord
100
AcDbLayerTableRecord
  2
TOLERANZEN
 70
        64
 62
       212
  6
CONTINUOUS
290
         1
370
         0
390
1D
  0
LAYER
  5
39
100
AcDbSymbolTableRecord
100
AcDbLayerTableRecord
  2
BEMASSUNG
 70
        64
 62
         7
  6
CONTINUOUS
290
         1
370
        25
390
1D
  0
LAYER
  5
3A
100
AcDbSymbolTableRecord
100
AcDbLayerTableRecord
  2
HILFSLINIEN
 70
        64
 62
         3
  6
CONTINUOUS
290
         1
370
         0
390
1D
  0
LAYER
  5
3B
100
AcDbSymbolTableRecord
100
AcDbLayerTableRecord
  2
MITTELLINIEN
 70
        64
 62
         5
  6
DASHDOT
290
         1
370
        13
390
1D
  0
LAYER
  5
3C
100
AcDbSymbolTableRecord
100
AcDbLayerTableRecord
  2
BESCHRIFTUNG00
 70
        64
 62
         7
  6
CONTINUOUS
290
         1
370
        25
390
1D
  0
LAYER
  5
3D
100
AcDbSymbolTableRecord
100
AcDbLayerTableRecord
  2
BESCHRIFTUNG0
 70
        64
 62
         7
  6
CONTINUOUS
290
         1
370
        25
390
1D
  0
LAYER
  5
3E
100
AcDbSymbolTableRecord
100
AcDbLayerTableRecord
  2
GEWINDELINIEN
 70
        64
 62
       212
  6
CONTINUOUS
290
         1
370
        25
390
1D
  0
LAYER
  5
3F
100
AcDbSymbolTableRecord
100
AcDbLayerTableRecord
  2
UNSICHTBARE
 70
        64
 62
        92
  6
DASHED
290
         1
370
        25
390
1D
  0
LAYER
  5
40
100
AcDbSymbolTableRecord
100
AcDbLayerTableRecord
  2
VERDECKTE
 70
        64
 62
        92
  6
DASHED
290
         1
370
        25
390
1D
  0
LAYER
  5
41
100
AcDbSymbolTableRecord
100
AcDbLayerTableRecord
  2
LICHTKANTEN
 70
        64
 62
         8
  6
CONTINUOUS
290
         1
370
        25
390
1D
  0
LAYER
  5
42
100
AcDbSymbolTableRecord
100
AcDbLayerTableRecord
  2
SCHNITTVERLAUF
 70
        64
 62
        34
  6
DASHDOT
290
         1
370
        70
390
1D
  0
LAYER
  5
43
100
AcDbSymbolTableRecord
100
AcDbLayerTableRecord
  2
KENNZEICHNUNG
 70
        64
 62
         7
  6
CONTINUOUS
290
         1
370
         0
390
1D
  0
LAYER
  5
44
100
AcDbSymbolTableRecord
100
AcDbLayerTableRecord
  2
PFEILE
 70
        64
 62
         7
  6
CONTINUOUS
290
         1
370
        70
390
1D
  0
LAYER
  5
45
100
AcDbSymbolTableRecord
100
AcDbLayerTableRecord
  2
SCHNITTDARSTELLUNG
 70
        64
 62
         7
  6
CONTINUOUS
290
         1
370
         0
390
1D
  0
LAYER
  5
46
100
AcDbSymbolTableRecord
100
AcDbLayerTableRecord
  2
2919_1P
 70
        64
 62
       230
  6
CONTINUOUS
290
         1
370
         0
390
1D
  0
LAYER
  5
47
100
AcDbSymbolTableRecord
100
AcDbLayerTableRecord
  2
2919_3P
 70
        64
 62
       230
  6
CONTINUOUS
290
         1
370
         0
390
1D
  0
LAYER
  5
48
100
AcDbSymbolTableRecord
100
AcDbLayerTableRecord
  2
2919___ ANSCHLÄGE
 70
        64
 62
       230
  6
CONTINUOUS
290
         1
370
        13
390
1D
  0
LAYER
  5
49
100
AcDbSymbolTableRecord
100
AcDbLayerTableRecord
  2
2914_1P
 70
        64
 62
       134
  6
CONTINUOUS
290
         1
370
         0
390
1D
  0
LAYER
  5
4A
100
AcDbSymbolTableRecord
100
AcDbLayerTableRecord
  2
2914_2P
 70
        64
 62
       230
  6
CONTINUOUS
290
         1
370
        18
390
1D
  0
LAYER
  5
4B
100
AcDbSymbolTableRecord
100
AcDbLayerTableRecord
  2
2914_3Q
 70
        64
 62
       134
  6
CONTINUOUS
290
         1
370
        18
390
1D
  0
LAYER
  5
4C
100
AcDbSymbolTableRecord
100
AcDbLayerTableRecord
  2
2914_3P
 70
        64
 62
       114
  6
CONTINUOUS
290
         1
370
        18
390
1D
  0
LAYER
  5
4D
100
AcDbSymbolTableRecord
100
AcDbLayerTableRecord
  2
2914_4P
 70
        64
 62
       114
  6
CONTINUOUS
290
         1
370
        18
390
1D
  0
LAYER
  5
4E
100
AcDbSymbolTableRecord
100
AcDbLayerTableRecord
  2
2914___ ANSCHLÄGE
 70
        64
 62
       230
  6
CONTINUOUS
290
         1
370
        13
390
1D
  0
LAYER
  5
4F
100
AcDbSymbolTableRecord
100
AcDbLayerTableRecord
  2
2913_1O~A
 70
        64
 62
         5
  6
CONTINUOUS
290
         1
370
         0
390
1D
  0
LAYER
  5
50
100
AcDbSymbolTableRecord
100
AcDbLayerTableRecord
  2
2913_1O
 70
        64
 62
        14
  6
CONTINUOUS
290
         1
370
         0
390
1D
  0
LAYER
  5
51
100
AcDbSymbolTableRecord
100
AcDbLayerTableRecord
  2
2913_2P~A
 70
        64
 62
         5
  6
CONTINUOUS
290
         1
370
         0
390
1D
  0
LAYER
  5
52
100
AcDbSymbolTableRecord
100
AcDbLayerTableRecord
  2
2913_2P
 70
        64
 62
        14
  6
CONTINUOUS
290
         1
370
         0
390
1D
  0
LAYER
  5
53
100
AcDbSymbolTableRecord
100
AcDbLayerTableRecord
  2
2913_3U
 70
        64
 62
        14
  6
CONTINUOUS
290
         1
370
         0
390
1D
  0
LAYER
  5
54
100
AcDbSymbolTableRecord
100
AcDbLayerTableRecord
  2
2913_4V
 70
        64
 62
        14
  6
CONTINUOUS
290
         1
370
         0
390
1D
  0
LAYER
  5
55
100
AcDbSymbolTableRecord
100
AcDbLayerTableRecord
  2
2913_6P
 70
        64
 62
       230
  6
CONTINUOUS
290
         1
370
         0
390
1D
  0
LAYER
  5
56
100
AcDbSymbolTableRecord
100
AcDbLayerTableRecord
  2
2913_5P
 70
        64
 62
       234
  6
CONTINUOUS
290
         1
370
         0
390
1D
  0
LAYER
  5
57
100
AcDbSymbolTableRecord
100
AcDbLayerTableRecord
  2
2913___ AUFSPANNPLATTE
 70
        64
 62
         7
  6
CONTINUOUS
290
         1
370
         0
390
1D
  0
LAYER
  5
58
100
AcDbSymbolTableRecord
100
AcDbLayerTableRecord
  2
PFADE
 70
        64
 62
        30
  6
CONTINUOUS
290
         1
370
        13
390
1D
  0
LAYER
  5
59
100
AcDbSymbolTableRecord
100
AcDbLayerTableRecord
  2
2913_2 AUFSPANNANSCHLAG
 70
        64
 62
         6
  6
CONTINUOUS
290
         1
370
        18
390
1D
  0
LAYER
  5
5A
100
AcDbSymbolTableRecord
100
AcDbLayerTableRecord
  2
2913_3 AUFSPANNANSCHLAGWINKEL
 70
        64
 62
       214
  6
CONTINUOUS
290
         1
370
        18
390
1D
  0
LAYER
  5
5B
100
AcDbSymbolTableRecord
100
AcDbLayerTableRecord
  2
2913_1 AUFSPANNPLATTE
 70
        64
 62
         7
  6
CONTINUOUS
290
         1
370
        18
390
1D
  0
LAYER
  5
5C
100
AcDbSymbolTableRecord
100
AcDbLayerTableRecord
  2
2913_4 NULLANSCHLÄGE
 70
        64
 62
       230
  6
CONTINUOUS
290
         1
370
         0
390
1D
  0
LAYER
  5
5D
100
AcDbSymbolTableRecord
100
AcDbLayerTableRecord
  2
2913_5 NULLPFADE
 70
        64
 62
        94
  6
CONTINUOUS
290
         1
370
         0
390
1D
  0
LAYER
  5
5E
100
AcDbSymbolTableRecord
100
AcDbLayerTableRecord
  2
2913_0 Y-SCHLITTEN
 70
        64
 62
        30
  6
CONTINUOUS
290
         1
370
         0
390
1D
  0
LAYER
  5
5F
100
AcDbSymbolTableRecord
100
AcDbLayerTableRecord
  2
2913__ FRÄSE - AUFSPANNPLATTE
 70
        64
 62
         7
  6
CONTINUOUS
290
         1
370
        18
390
1D
  0
LAYER
  5
60
100
AcDbSymbolTableRecord
100
AcDbLayerTableRecord
  2
2916__ XY-NULLPUNKT-RING
 70
        64
 62
         7
  6
CONTINUOUS
290
         1
370
         0
390
1D
  0
LAYER
  5
61
100
AcDbSymbolTableRecord
100
AcDbLayerTableRecord
  2
2919__ FRÄSE - MITTENAUFSPANNUNG
 70
        64
 62
         7
  6
CONTINUOUS
290
         1
370
         0
390
1D
  0
LAYER
  5
62
100
AcDbSymbolTableRecord
100
AcDbLayerTableRecord
  2
KONSTRUKTION
 70
        64
 62
         7
  6
CONTINUOUS
290
         1
370
         0
390
1D
  0
LAYER
  5
63
100
AcDbSymbolTableRecord
100
AcDbLayerTableRecord
  2
GEOMETRIE
 70
        64
 62
         7
  6
CONTINUOUS
290
         1
370
         0
390
1D
  0
LAYER
  5
64
100
AcDbSymbolTableRecord
100
AcDbLayerTableRecord
  2
STANDARD
 70
        64
 62
         7
  6
CONTINUOUS
290
         1
370
         0
390
1D
  0
ENDTAB
  0
TABLE
  2
STYLE
  5
3
100
AcDbSymbolTable
 70
         7
  0
STYLE
  5
17
100
AcDbSymbolTableRecord
100
AcDbTextStyleTableRecord
  2
Standard
 70
         0
 40
0.0
 41
1.0
 50
0.0
 71
         0
 42
0.0
  3
txt
  4

  0
STYLE
  5
2D
100
AcDbSymbolTableRecord
100
AcDbTextStyleTableRecord
  2
CADdy
 70
         0
 40
0.0
 41
1.0
 50
0.0
 71
         0
 42
3.5
  3
txt.shx
  4

  0
STYLE
  5
2E
100
AcDbSymbolTableRecord
100
AcDbTextStyleTableRecord
  2
Arial
 70
         0
 40
0.0
 41
1.0
 50
0.0
 71
         0
 42
3.5
  3
arial.ttf
  4

1001
ACAD
1000
Arial
1071
       34
  0
STYLE
  5
2F
100
AcDbSymbolTableRecord
100
AcDbTextStyleTableRecord
  2
Isonorm
 70
         0
 40
0.0
 41
1.0
 50
0.0
 71
         0
 42
3.5
  3
txt.shx
  4

  0
STYLE
  5
30
100
AcDbSymbolTableRecord
100
AcDbTextStyleTableRecord
  2
Tahoma
 70
         0
 40
0.0
 41
1.0
 50
0.0
 71
         0
 42
3.5
  3
tahoma.ttf
  4

1001
ACAD
1000
Tahoma
1071
       34
  0
STYLE
  5
31
100
AcDbSymbolTableRecord
100
AcDbTextStyleTableRecord
  2
Microsoft Sans Serif
 70
         0
 40
0.0
 41
1.0
 50
0.0
 71
         0
 42
3.5
  3
micross.ttf
  4

1001
ACAD
1000
Microsoft Sans Serif
1071
       34
  0
STYLE
  5
32
100
AcDbSymbolTableRecord
100
AcDbTextStyleTableRecord
  2
Arial Rounded MT Bold
 70
         0
 40
0.0
 41
1.0
 50
0.0
 71
         0
 42
3.5
  3
txt.shx
  4

  0
ENDTAB
  0
TABLE
  2
VIEW
  5
5
100
AcDbSymbolTable
 70
         0
  0
ENDTAB
  0
TABLE
  2
UCS
  5
6
100
AcDbSymbolTable
 70
         0
  0
ENDTAB
  0
TABLE
  2
APPID
  5
8
100
AcDbSymbolTable
 70
         1
  0
APPID
  5
16
100
AcDbSymbolTableRecord
100
AcDbRegAppTableRecord
  2
ACAD
 70
        64
  0
ENDTAB
  0
TABLE
  2
DIMSTYLE
  5
9
100
AcDbSymbolTable
 70
         1
100
AcDbDimStyleTable
 71
         0
  0
DIMSTYLE
105
18
100
AcDbSymbolTableRecord
100
AcDbDimStyleTableRecord
  2
Standard
 70
         0
  3

  4

 40
1.0
 41
0.18
 42
0.0625
 43
0.38
 44
0.18
 45
0.0
 46
0.0
 47
0.0
 48
0.0
 71
         0
 72
         0
 73
         1
 74
         1
 75
         0
 76
         0
 77
         0
 78
         0
 79
         0
140
0.18
141
0.09
142
0.0
143
25.4
144
1.0
145
0.0
146
1.0
147
0.09
148
0.0
170
         0
171
         2
172
         0
173
         0
174
         0
175
         0
176
         0
177
         0
178
         0
179
         0
271
         4
272
         4
273
         2
274
         2
275
         0
276
         0
277
         2
278
        46
279
         0
280
         0
281
         0
282
         0
283
         1
284
         0
285
         0
286
         0
288
         0
289
         3
340
17
341
0
342
0
343
0
344
0
371
        -2
372
        -2
  0
ENDTAB
  0
TABLE
  2
BLOCK_RECORD
  5
1
100
AcDbSymbolTable
 70
         0
  0
BLOCK_RECORD
  5
A
100
AcDbSymbolTableRecord
100
AcDbBlockTableRecord
  2
*MODEL_SPACE
340
20
  0
BLOCK_RECORD
  5
B
100
AcDbSymbolTableRecord
100
AcDbBlockTableRecord
  2
*PAPER_SPACE
340
21
  0
ENDTAB
  0
ENDSEC
  0
SECTION
  2
BLOCKS
  0
BLOCK
  5
D
100
AcDbEntity
  8
0
390
0
100
AcDbBlockBegin
  2
*MODEL_SPACE
 70
         0
 10
0.0
 20
0.0
 30
0.0
  3
*MODEL_SPACE
  1

  0
ENDBLK
  5
E
100
AcDbEntity
  8
0
390
0
100
AcDbBlockEnd
  0
BLOCK
  5
F
100
AcDbEntity
 67
         1
  8
0
390
0
100
AcDbBlockBegin
  2
*PAPER_SPACE
 70
         0
 10
0.0
 20
0.0
 30
0.0
  3
*PAPER_SPACE
  1

  0
ENDBLK
  5
10
100
AcDbEntity
 67
         1
  8
0
390
0
100
AcDbBlockEnd
  0
ENDSEC
  0
SECTION
  2
ENTITIES
  0
TEXT
  5
65
100
AcDbEntity
  8
BESCHRIFTUNG
390
0
100
AcDbText
 10
107.6572666667
 20
14.8115444444
 30
0.0
 40
1.5
  1
2025-07-20
 41
1.1351372579
  7
Arial
 11
107.6572666667
 21
16.3115444444
 31
0.0
100
AcDbText
 73
         3
  0
TEXT
  5
66
100
AcDbEntity
  8
BESCHRIFTUNG
390
0
100
AcDbText
 10
107.6572666667
 20
3.6115444444
 30
0.0
 40
1.5
  1
2914 P.3h Z-Messfräsung
 41
1.1350861025
  7
Arial
 11
107.6572666667
 21
5.1115444444
 31
0.0
100
AcDbText
 73
         3
  0
LINE
  5
67
100
AcDbEntity
  8
MITTELLINIEN
390
0
100
AcDbLine
 10
50.4831426064
 20
89.0628228136
 30
0.0
 11
50.4831426064
 21
15.1460819412
 31
0.0
  0
LINE
  5
68
100
AcDbEntity
  8
2913__ FRÄSE - AUFSPANNPLATTE
390
0
100
AcDbLine
 10
52.9831426064
 20
86.5628228136
 30
0.0
 11
52.9831426064
 21
19.6775684077
 31
0.0
  0
LINE
  5
69
100
AcDbEntity
  8
2913__ FRÄSE - AUFSPANNPLATTE
390
0
100
AcDbLine
 10
62.9831426064
 20
86.5628228136
 30
0.0
 11
62.9831426064
 21
20.1290098446
 31
0.0
  0
LINE
  5
6A
100
AcDbEntity
  8
2914_3Q
390
0
  6
DIVIDE
100
AcDbLine
 10
50.4831426064
 20
78.2782658516
 30
0.0
 11
65.4831426064
 21
78.2782658516
 31
0.0
  0
LINE
  5
6B
100
AcDbEntity
  8
2914_3Q
390
0
  6
DIVIDE
100
AcDbLine
 10
50.4831426064
 20
76.4782658516
 30
0.0
 11
65.4831426064
 21
76.4782658516
 31
0.0
  0
CIRCLE
  5
6C
100
AcDbEntity
  8
2914_3Q
390
0
  6
PHANTOM
100
AcDbCircle
 10
50.4831426064
 20
78.2782658516
 30
0.0
 40
0.5
  0
CIRCLE
  5
6D
100
AcDbEntity
  8
2914_3Q
390
0
  6
PHANTOM
100
AcDbCircle
 10
50.4831426064
 20
74.6782658516
 30
0.0
 40
1.0
  0
MTEXT
  5
6E
100
AcDbEntity
  8
2914_3Q
390
0
  6
PHANTOM
100
AcDbMText
 10
49.7084959199
 20
78.8691496937
 30
0.0
 40
1.5
 41
0.0
 71
         5
 72
         1
  1
\W1.135064;M10x5 T5 O2 D=D\PI1,1 F150 :D1~5
  7
Arial
 73
         1
 44
0.66
  0
ARC
  5
6F
100
AcDbEntity
  8
2914_3Q
390
0
  6
DIVIDE
100
AcDbCircle
 10
65.4831426064
 20
77.3782658516
 30
0.0
 40
0.9
100
AcDbArc
 50
270.0
 51
450.0
  0
ARC
  5
70
100
AcDbEntity
  8
2914_3Q
390
0
  6
DIVIDE
100
AcDbCircle
 10
50.4831426064
 20
75.5782658516
 30
0.0
 40
0.9
100
AcDbArc
 50
90.0
 51
270.0
  0
CIRCLE
  5
71
100
AcDbEntity
  8
2914_3P
390
0
  6
PHANTOM
100
AcDbCircle
 10
50.4831426064
 20
52.0331980928
 30
0.0
 40
0.5
  0
ARC
  5
72
100
AcDbEntity
  8
2914_3P
390
0
  6
DASHDOT
100
AcDbCircle
 10
50.255871591
 20
50.2331980928
 30
0.0
 40
1.8142910777
100
AcDbArc
 50
82.8038182059
 51
277.1961817941
  0
MTEXT
  5
73
100
AcDbEntity
  8
2914_3P
390
0
  6
PHANTOM
100
AcDbMText
 10
47.8178456067
 20
49.2866970744
 30
0.0
 40
1.5
 41
0.0
 71
         5
 72
         1
  1
\W1.135121;>2914.3Q\P:D4
  7
Arial
 73
         1
 44
0.66
  0
MTEXT
  5
74
100
AcDbEntity
  8
2914_3P
390
0
  6
PHANTOM
100
AcDbMText
 10
47.8178456067
 20
45.6866970744
 30
0.0
 40
1.5
 41
0.0
 71
         5
 72
         1
  1
\W1.135121;>2914.3Q\P:D3
  7
Arial
 73
         1
 44
0.66
  0
ARC
  5
75
100
AcDbEntity
  8
2914_3P
390
0
  6
DASHDOT
100
AcDbCircle
 10
50.255871591
 20
46.6331980928
 30
0.0
 40
1.8142910777
100
AcDbArc
 50
82.8038182059
 51
277.1961817941
  0
MTEXT
  5
76
100
AcDbEntity
  8
2914_3P
390
0
  6
PHANTOM
100
AcDbMText
 10
47.8178456067
 20
42.0866970744
 30
0.0
 40
1.5
 41
0.0
 71
         5
 72
         1
  1
\W1.135121;>2914.3Q\P:D2
  7
Arial
 73
         1
 44
0.66
  0
ARC
  5
77
100
AcDbEntity
  8
2914_3P
390
0
  6
DASHDOT
100
AcDbCircle
 10
50.255871591
 20
43.0331980928
 30
0.0
 40
1.8142910777
100
AcDbArc
 50
82.8038182059
 51
277.1961817941
  0
CIRCLE
  5
78
100
AcDbEntity
  8
2914_3P
390
0
  6
PHANTOM
100
AcDbCircle
 10
50.4831426064
 20
41.2331980928
 30
0.0
 40
1.0
  0
ARC
  5
79
100
AcDbEntity
  8
2914___ ANSCHLÄGE
390
0
  6
DASHDOT
100
AcDbCircle
 10
44.8709899035
 20
76.4782658516
 30
0.0
 40
5.8937473615
100
AcDbArc
 50
17.7827364023
 51
342.2172635977
  0
TEXT
  5
7A
100
AcDbEntity
  8
2914___ ANSCHLÄGE
390
0
  6
PHANTOM
100
AcDbText
 10
29.8379315003
 20
74.3565800734
 30
0.0
 40
1.5
  1
>2914.3Q :D?
 41
1.1350974133
  7
Arial
 72
         1
 11
38.5943972602
 21
75.1065800734
 31
0.0
100
AcDbText
 73
         2
  0
ARC
  5
7B
100
AcDbEntity
  8
2914___ ANSCHLÄGE
390
0
  6
DASHDOT
100
AcDbCircle
 10
57.9378702342
 20
46.6331980928
 30
0.0
 40
9.205051005
100
AcDbArc
 50
215.9185402672
 51
504.0814597328
  0
TEXT
  5
7C
100
AcDbEntity
  8
2914___ ANSCHLÄGE
390
0
  6
PHANTOM
100
AcDbText
 10
62.8516177519
 20
46.0957049804
 30
0.0
 40
1.5
  1
>2914.3P
 41
1.1351097922
  7
Arial
 72
         1
 11
68.7954653913
 21
46.8457049804
 31
0.0
100
AcDbText
 73
         2
  0
MTEXT
  5
7D
100
AcDbEntity
  8
2914_3P
390
0
  6
PHANTOM
100
AcDbMText
 10
50.5433594475
 20
52.7098036664
 30
0.0
 40
1.5
 41
0.0
 71
         5
 72
         1
  1
\W1.135082;M10x5 T5 O2\PI1,1 F150
  7
Arial
 73
         1
 44
0.66
  0
LINE
  5
7E
100
AcDbEntity
  8
MITTELLINIEN
390
0
100
AcDbLine
 10
100.4831426064
 20
89.0628228136
 30
0.0
 11
100.4831426064
 21
15.1460819412
 31
0.0
  0
LINE
  5
7F
100
AcDbEntity
  8
MITTELLINIEN
390
0
100
AcDbLine
 10
115.4831426064
 20
89.0628228136
 30
0.0
 11
115.4831426064
 21
15.1460819412
 31
0.0
  0
CIRCLE
  5
80
100
AcDbEntity
  8
2914_4P
390
0
  6
PHANTOM
100
AcDbCircle
 10
100.4831426064
 20
80.9624031911
 30
0.0
 40
0.5
  0
LINE
  5
81
100
AcDbEntity
  8
2914_4P
390
0
100
AcDbLine
 10
105.4831426064
 20
80.9624031911
 30
0.0
 11
115.4831426064
 21
80.9624031911
 31
0.0
  0
LINE
  5
82
100
AcDbEntity
  8
2914_4P
390
0
100
AcDbLine
 10
107.4831426064
 20
78.4624031911
 30
0.0
 11
115.4831426064
 21
78.4624031911
 31
0.0
  0
LINE
  5
83
100
AcDbEntity
  8
2914_4P
390
0
100
AcDbLine
 10
109.4831426064
 20
75.9624031911
 30
0.0
 11
115.4831426064
 21
75.9624031911
 31
0.0
  0
LINE
  5
84
100
AcDbEntity
  8
2914_4P
390
0
100
AcDbLine
 10
111.4831426064
 20
73.4624031911
 30
0.0
 11
115.4831426064
 21
73.4624031911
 31
0.0
  0
LINE
  5
85
100
AcDbEntity
  8
2914_4P
390
0
100
AcDbLine
 10
113.4831426064
 20
70.9624031911
 30
0.0
 11
115.4831426064
 21
70.9624031911
 31
0.0
  0
ARC
  5
86
100
AcDbEntity
  8
2914_4P
390
0
  6
HIDDEN
100
AcDbCircle
 10
102.9831426064
 20
82.7386271083
 30
0.0
 40
3.0667525828
100
AcDbArc
 50
215.3933966372
 51
324.6066033628
  0
ARC
  5
87
100
AcDbEntity
  8
2914_4P
390
0
  6
HIDDEN
100
AcDbCircle
 10
115.4948974749
 20
79.7124031911
 30
0.0
 40
1.2500552696
100
AcDbArc
 50
269.4612124029
 51
450.5387875971
  0
ARC
  5
88
100
AcDbEntity
  8
2914_4P
390
0
  6
HIDDEN
100
AcDbCircle
 10
108.0358745231
 20
76.8545887244
 30
0.0
 40
1.7001705594
100
AcDbArc
 50
108.9718640517
 51
328.3477524565
  0
ARC
  5
89
100
AcDbEntity
  8
2914_4P
390
0
  6
HIDDEN
100
AcDbCircle
 10
115.8566063819
 20
74.7124031911
 30
0.0
 40
1.3045977126
100
AcDbArc
 50
253.3653788313
 51
466.6346211687
  0
ARC
  5
8A
100
AcDbEntity
  8
2914_4P
390
0
  6
HIDDEN
100
AcDbCircle
 10
112.0713620463
 20
71.882978743
 30
0.0
 40
1.6854031259
100
AcDbArc
 50
110.4266616081
 51
326.8929549001
  0
LINE
  5
8B
100
AcDbEntity
  8
2914_4P
390
0
100
AcDbLine
 10
105.4831426064
 20
68.4624031911
 30
0.0
 11
115.4831426064
 21
68.4624031911
 31
0.0
  0
LINE
  5
8C
100
AcDbEntity
  8
2914_4P
390
0
100
AcDbLine
 10
107.4831426064
 20
65.9624031911
 30
0.0
 11
115.4831426064
 21
65.9624031911
 31
0.0
  0
LINE
  5
8D
100
AcDbEntity
  8
2914_4P
390
0
100
AcDbLine
 10
109.4831426064
 20
63.4624031911
 30
0.0
 11
115.4831426064
 21
63.4624031911
 31
0.0
  0
ARC
  5
8E
100
AcDbEntity
  8
2914_4P
390
0
  6
HIDDEN
100
AcDbCircle
 10
115.4948974749
 20
67.2124031911
 30
0.0
 40
1.2500552696
100
AcDbArc
 50
269.4612124029
 51
450.5387875971
  0
ARC
  5
8F
100
AcDbEntity
  8
2914_4P
390
0
  6
HIDDEN
100
AcDbCircle
 10
108.0358745231
 20
64.3545887244
 30
0.0
 40
1.7001705594
100
AcDbArc
 50
108.9718640517
 51
328.3477524565
  0
ARC
  5
90
100
AcDbEntity
  8
2914_4P
390
0
  6
HIDDEN
100
AcDbCircle
 10
115.8566063819
 20
62.2124031911
 30
0.0
 40
1.3045977126
100
AcDbArc
 50
253.3653788313
 51
466.6346211687
  0
ARC
  5
91
100
AcDbEntity
  8
2914_4P
390
0
  6
HIDDEN
100
AcDbCircle
 10
112.0713620463
 20
59.382978743
 30
0.0
 40
1.6854031259
100
AcDbArc
 50
110.4266616081
 51
326.8929549001
  0
LINE
  5
92
100
AcDbEntity
  8
2914_4P
390
0
100
AcDbLine
 10
113.4831426064
 20
58.4624031911
 30
0.0
 11
115.4831426064
 21
58.4624031911
 31
0.0
  0
LINE
  5
93
100
AcDbEntity
  8
2914_4P
390
0
100
AcDbLine
 10
111.4831426064
 20
60.9624031911
 30
0.0
 11
115.4831426064
 21
60.9624031911
 31
0.0
  0
LINE
  5
94
100
AcDbEntity
  8
2914_4P
390
0
  6
HIDDEN
100
AcDbLine
 10
115.4831426064
 20
70.9624031911
 30
0.0
 11
105.4831426064
 21
68.4624031911
 31
0.0
  0
TEXT
  5
95
100
AcDbEntity
  8
2914_4P
390
0
  6
HIDDEN
100
AcDbText
 10
112.2552280638
 20
80.3559447313
 30
0.0
 40
1.5
  1
B2
 41
1.1350200101
  7
Arial
100
AcDbText
  0
TEXT
  5
96
100
AcDbEntity
  8
2914_4P
390
0
  6
HIDDEN
100
AcDbText
 10
112.2552280638
 20
77.8559447313
 30
0.0
 40
1.5
  1
B1.8
 41
1.1350607282
  7
Arial
100
AcDbText
  0
TEXT
  5
97
100
AcDbEntity
  8
2914_4P
390
0
  6
HIDDEN
100
AcDbText
 10
112.2552280638
 20
75.3559447313
 30
0.0
 40
1.5
  1
B1.6
 41
1.1350607677
  7
Arial
100
AcDbText
  0
TEXT
  5
98
100
AcDbEntity
  8
2914_4P
390
0
  6
HIDDEN
100
AcDbText
 10
112.2552280638
 20
72.8559447313
 30
0.0
 40
1.5
  1
B1.4
 41
1.1350607677
  7
Arial
100
AcDbText
  0
TEXT
  5
99
100
AcDbEntity
  8
2914_4P
390
0
  6
HIDDEN
100
AcDbText
 10
112.2552280638
 20
70.3559447313
 30
0.0
 40
1.5
  1
B1.2
 41
1.1350605702
  7
Arial
100
AcDbText
  0
TEXT
  5
9A
100
AcDbEntity
  8
2914_4P
390
0
  6
HIDDEN
100
AcDbText
 10
112.2787378006
 20
67.8559447313
 30
0.0
 40
1.5
  1
B1
 41
1.1350203423
  7
Arial
100
AcDbText
  0
TEXT
  5
9B
100
AcDbEntity
  8
2914_4P
390
0
  6
HIDDEN
100
AcDbText
 10
112.2787378006
 20
65.3559447313
 30
0.0
 40
1.5
  1
B0.8
 41
1.1350605307
  7
Arial
100
AcDbText
  0
TEXT
  5
9C
100
AcDbEntity
  8
2914_4P
390
0
  6
HIDDEN
100
AcDbText
 10
112.2552280638
 20
62.8559447313
 30
0.0
 40
1.5
  1
B0.6
 41
1.1350605702
  7
Arial
100
AcDbText
  0
TEXT
  5
9D
100
AcDbEntity
  8
2914_4P
390
0
  6
HIDDEN
100
AcDbText
 10
112.2552280638
 20
60.3559447313
 30
0.0
 40
1.5
  1
B0.4
 41
1.1350605702
  7
Arial
100
AcDbText
  0
TEXT
  5
9E
100
AcDbEntity
  8
2914_4P
390
0
  6
HIDDEN
100
AcDbText
 10
112.2552280638
 20
57.8559447313
 30
0.0
 40
1.5
  1
B0.2
 41
1.1350603727
  7
Arial
100
AcDbText
  0
CIRCLE
  5
9F
100
AcDbEntity
  8
2914_4P
390
0
  6
PHANTOM
100
AcDbCircle
 10
100.4831426064
 20
55.9624031911
 30
0.0
 40
1.0
  0
ARC
  5
A0
100
AcDbEntity
  8
2914_4P
390
0
  6
HIDDEN
100
AcDbCircle
 10
100.923659618
 20
99.5693011215
 30
0.0
 40
43.6091229257
100
AcDbArc
 50
269.4212175541
 51
289.503426862
  0
ARC
  5
A1
100
AcDbEntity
  8
2914___ ANSCHLÄGE
390
0
  6
DASHDOT
100
AcDbCircle
 10
110.2940912752
 20
68.4624031911
 30
0.0
 40
15.8903969044
100
AcDbArc
 50
128.1275137887
 51
231.8724862113
  0
MTEXT
  5
A2
100
AcDbEntity
  8
2914_4P
390
0
  6
PHANTOM
100
AcDbMText
 10
99.3514527046
 20
81.0350727646
 30
0.0
 40
1.5
 41
0.0
 71
         5
 72
         1
  1
\W1.135088;M15x15x1 T2,5 O2\PI2 F150
  7
Arial
 73
         1
 44
0.66
  0
TEXT
  5
A3
100
AcDbEntity
  8
2914___ ANSCHLÄGE
390
0
  6
PHANTOM
100
AcDbText
 10
81.2105896223
 20
67.3761712621
 30
0.0
 40
1.5
  1
>2913.4P T2,5 O2
 41
1.1351007472
  7
Arial
 72
         1
 11
93.5467788746
 21
68.1261712621
 31
0.0
100
AcDbText
 73
         2
  0
LINE
  5
A4
100
AcDbEntity
  8
STANDARD
390
0
100
AcDbLine
 10
146.0
 20
100.0
 30
0.0
 11
2.5
 21
100.0
 31
0.0
  0
LINE
  5
A5
100
AcDbEntity
  8
STANDARD
390
0
100
AcDbLine
 10
5.0
 20
97.5
 30
0.0
 11
5.0
 21
2.5
 31
0.0
  0
LINE
  5
A6
100
AcDbEntity
  8
STANDARD
390
0
100
AcDbLine
 10
2.5
 20
100.0
 30
0.0
 11
2.5
 21
97.5
 31
0.0
  0
LINE
  5
A7
100
AcDbEntity
  8
STANDARD
390
0
100
AcDbLine
 10
146.0
 20
100.0
 30
0.0
 11
146.0
 21
97.5
 31
0.0
  0
LINE
  5
A8
100
AcDbEntity
  8
STANDARD
390
0
100
AcDbLine
 10
26.4166666667
 20
100.0
 30
0.0
 11
26.4166666667
 21
97.5
 31
0.0
  0
LINE
  5
A9
100
AcDbEntity
  8
STANDARD
390
0
100
AcDbLine
 10
50.3333333333
 20
100.0
 30
0.0
 11
50.3333333333
 21
97.5
 31
0.0
  0
LINE
  5
AA
100
AcDbEntity
  8
STANDARD
390
0
100
AcDbLine
 10
74.25
 20
100.0
 30
0.0
 11
74.25
 21
97.5
 31
0.0
  0
LINE
  5
AB
100
AcDbEntity
  8
STANDARD
390
0
100
AcDbLine
 10
98.1666666667
 20
100.0
 30
0.0
 11
98.1666666667
 21
97.5
 31
0.0
  0
LINE
  5
AC
100
AcDbEntity
  8
STANDARD
390
0
100
AcDbLine
 10
122.0833333333
 20
100.0
 30
0.0
 11
122.0833333333
 21
97.5
 31
0.0
  0
LINE
  5
AD
100
AcDbEntity
  8
STANDARD
390
0
100
AcDbLine
 10
2.5
 20
26.25
 30
0.0
 11
5.0
 21
26.25
 31
0.0
  0
LINE
  5
AE
100
AcDbEntity
  8
STANDARD
390
0
100
AcDbLine
 10
2.5
 20
50.0
 30
0.0
 11
5.0
 21
50.0
 31
0.0
  0
LINE
  5
AF
100
AcDbEntity
  8
STANDARD
390
0
100
AcDbLine
 10
2.5
 20
73.75
 30
0.0
 11
5.0
 21
73.75
 31
0.0
  0
TEXT
  5
B0
100
AcDbEntity
  8
STANDARD
390
0
100
AcDbText
 10
13.8107454058
 20
98.2366019531
 30
0.0
 40
1.115625
  1
1
 41
1.5479225906
  7
Arial
 72
         1
 11
14.4583333333
 21
98.2366019531
 31
0.0
100
AcDbText
  0
TEXT
  5
B1
100
AcDbEntity
  8
STANDARD
390
0
100
AcDbText
 10
37.5115499856
 20
98.2366019531
 30
0.0
 40
1.115625
  1
2
 41
1.5479215945
  7
Arial
 72
         1
 11
38.375
 21
98.2366019531
 31
0.0
100
AcDbText
  0
TEXT
  5
B2
100
AcDbEntity
  8
STANDARD
390
0
100
AcDbText
 10
61.4282159854
 20
98.2366019531
 30
0.0
 40
1.115625
  1
3
 41
1.5479227899
  7
Arial
 72
         1
 11
62.2916666667
 21
98.2366019531
 31
0.0
100
AcDbText
  0
TEXT
  5
B3
100
AcDbEntity
  8
STANDARD
390
0
100
AcDbText
 10
85.3448827632
 20
98.2366019531
 30
0.0
 40
1.115625
  1
4
 41
1.5479225906
  7
Arial
 72
         1
 11
86.2083333333
 21
98.2366019531
 31
0.0
100
AcDbText
  0
TEXT
  5
B4
100
AcDbEntity
  8
STANDARD
390
0
100
AcDbText
 10
109.2615498744
 20
98.2366019531
 30
0.0
 40
1.115625
  1
5
 41
1.5479217937
  7
Arial
 72
         1
 11
110.125
 21
98.2366019531
 31
0.0
100
AcDbText
  0
TEXT
  5
B5
100
AcDbEntity
  8
STANDARD
390
0
100
AcDbText
 10
133.1782160966
 20
98.2366019531
 30
0.0
 40
1.115625
  1
6
 41
1.5479225906
  7
Arial
 72
         1
 11
134.0416666667
 21
98.2366019531
 31
0.0
100
AcDbText
  0
TEXT
  5
B6
100
AcDbEntity
  8
STANDARD
390
0
100
AcDbText
 10
2.8865135925
 20
86.3616019531
 30
0.0
 40
1.115625
  1
A
 41
1.547986837
  7
Arial
 72
         1
 11
3.75
 21
86.3616019531
 31
0.0
100
AcDbText
  0
TEXT
  5
B7
100
AcDbEntity
  8
STANDARD
390
0
100
AcDbText
 10
2.8865133701
 20
62.6116019531
 30
0.0
 40
1.115625
  1
B
 41
1.5479872357
  7
Arial
 72
         1
 11
3.75
 21
62.6116019531
 31
0.0
100
AcDbText
  0
TEXT
  5
B8
100
AcDbEntity
  8
STANDARD
390
0
100
AcDbText
 10
2.8864486376
 20
38.8616019531
 30
0.0
 40
1.115625
  1
C
 41
1.5481032827
  7
Arial
 72
         1
 11
3.75
 21
38.8616019531
 31
0.0
100
AcDbText
  0
TEXT
  5
B9
100
AcDbEntity
  8
STANDARD
390
0
100
AcDbText
 10
2.8864482096
 20
15.1116019531
 30
0.0
 40
1.115625
  1
D
 41
1.54810405
  7
Arial
 72
         1
 11
3.75
 21
15.1116019531
 31
0.0
100
AcDbText
  0
LINE
  5
BA
100
AcDbEntity
  8
STANDARD
390
0
100
AcDbLine
 10
2.5
 20
2.5
 30
0.0
 11
5.0
 21
2.5
 31
0.0
  0
LINE
  5
BB
100
AcDbEntity
  8
STANDARD
390
0
100
AcDbLine
 10
146.0
 20
2.5
 30
0.0
 11
146.0
 21
97.5
 31
0.0
  0
LINE
  5
BC
100
AcDbEntity
  8
STANDARD
390
0
100
AcDbLine
 10
146.0
 20
97.5
 30
0.0
 11
5.0
 21
97.5
 31
0.0
  0
LINE
  5
BD
100
AcDbEntity
  8
STANDARD
390
0
100
AcDbLine
 10
2.5
 20
97.5
 30
0.0
 11
2.5
 21
2.5
 31
0.0
  0
LINE
  5
BE
100
AcDbEntity
  8
STANDARD
390
0
100
AcDbLine
 10
148.0
 20
104.5
 30
0.0
 11
0.5
 21
104.5
 31
0.0
  0
LINE
  5
BF
100
AcDbEntity
  8
STANDARD
390
0
100
AcDbLine
 10
148.0
 20
0.5
 30
0.0
 11
148.0
 21
104.5
 31
0.0
  0
LINE
  5
C0
100
AcDbEntity
  8
STANDARD
390
0
100
AcDbLine
 10
0.5
 20
0.5
 30
0.0
 11
148.0
 21
0.5
 31
0.0
  0
LINE
  5
C1
100
AcDbEntity
  8
STANDARD
390
0
100
AcDbLine
 10
0.5
 20
104.5
 30
0.0
 11
0.5
 21
0.5
 31
0.0
  0
LINE
  5
C2
100
AcDbEntity
  8
STANDARD
390
0
100
AcDbLine
 10
5.0
 20
97.5
 30
0.0
 11
2.5
 21
97.5
 31
0.0
  0
LINE
  5
C3
100
AcDbEntity
  8
STANDARD
390
0
100
AcDbLine
 10
5.0
 20
2.5
 30
0.0
 11
146.0
 21
2.5
 31
0.0
  0
MTEXT
  5
C4
100
AcDbEntity
  8
STANDARD
390
0
100
AcDbMText
 10
107.788861367
 20
3.2602845785
 30
0.0
 40
0.796875
 41
0.0
 71
         7
 72
         1
  1

  7
Arial
 73
         1
 44
1.0352941176
  0
MTEXT
  5
C5
100
AcDbEntity
  8
STANDARD
390
0
100
AcDbMText
 10
134.7064428467
 20
3.2582871094
 30
0.0
 40
0.796875
 41
0.0
 71
         7
 72
         1
  1

  7
Arial
 73
         1
 44
1.0352941176
  0
MTEXT
  5
C6
100
AcDbEntity
  8
STANDARD
390
0
100
AcDbMText
 10
85.6219525751
 20
3.2602845785
 30
0.0
 40
0.796875
 41
0.0
 71
         7
 72
         1
  1

  7
Arial
 73
         1
 44
1.0352941176
  0
LINE
  5
C7
100
AcDbEntity
  8
STANDARD
370
         0
390
0
100
AcDbLine
 10
84.0097150997
 20
17.2
 30
0.0
 11
145.9567236467
 21
17.2
 31
0.0
  0
LINE
  5
C8
100
AcDbEntity
  8
STANDARD
370
         0
390
0
100
AcDbLine
 10
84.0097150997
 20
13.7
 30
0.0
 11
145.9567236467
 21
13.7
 31
0.0
  0
LINE
  5
C9
100
AcDbEntity
  8
STANDARD
370
         0
390
0
100
AcDbLine
 10
84.0097150997
 20
6.0
 30
0.0
 11
145.9567236467
 21
6.0
 31
0.0
  0
LINE
  5
CA
100
AcDbEntity
  8
STANDARD
370
         0
390
0
100
AcDbLine
 10
84.0097150997
 20
17.2
 30
0.0
 11
84.0097150997
 21
2.5
 31
0.0
  0
LINE
  5
CB
100
AcDbEntity
  8
STANDARD
370
         0
390
0
100
AcDbLine
 10
107.1097150997
 20
17.2
 30
0.0
 11
107.1097150997
 21
2.5
 31
0.0
  0
LINE
  5
CC
100
AcDbEntity
  8
STANDARD
370
         0
390
0
100
AcDbLine
 10
126.0097150997
 20
17.2
 30
0.0
 11
126.0097150997
 21
13.7
 31
0.0
  0
TEXT
  5
CD
100
AcDbEntity
  8
BESCHRIFTUNG
390
0
100
AcDbText
 10
84.5572666667
 20
14.5568
 30
0.0
 40
1.6625
  1
Stellwerk HMM
 41
1.3653781858
 51
15.0
  7
Arial
 11
84.5572666667
 21
16.2193
 31
0.0
100
AcDbText
 73
         3
  0
MTEXT
  5
CE
100
AcDbEntity
  8
BESCHRIFTUNG
390
0
100
AcDbMText
 10
107.7672444444
 20
12.4800555556
 30
0.0
 40
1.6625
 41
0.0
 71
         1
 72
         1
  1
\W1.121577;Fräse\PZ-Messfräsung
  7
Arial
 73
         1
 44
0.66
  0
TEXT
  5
CF
100
AcDbEntity
  8
BESCHRIFTUNG
390
0
100
AcDbText
 10
84.5572666667
 20
3.4490444444
 30
0.0
 40
1.6625
  1
Dateiname
 41
1.1350744463
 51
15.0
  7
Arial
 11
84.5572666667
 21
5.1115444444
 31
0.0
100
AcDbText
 73
         3
  0
TEXT
  5
D0
100
AcDbEntity
  8
BESCHRIFTUNG
390
0
100
AcDbText
 10
84.6672444444
 20
10.8175555556
 30
0.0
 40
1.6625
  1
Bl. 2914 P.3h
 41
1.1349236396
 51
15.0
  7
Arial
 11
84.6672444444
 21
12.4800555556
 31
0.0
100
AcDbText
 73
         3
  0
TEXT
  5
D1
100
AcDbEntity
  8
BESCHRIFTUNG
390
0
100
AcDbText
 10
126.5572666667
 20
14.5568
 30
0.0
 40
1.6625
  1
1:1
 41
1.1348653803
 51
15.0
  7
Arial
 11
126.5572666667
 21
16.2193
 31
0.0
100
AcDbText
 73
         3
  0
ENDSEC
  0
SECTION
  2
OBJECTS
  0
DICTIONARY
  5
19
100
AcDbDictionary
280
         0
281
         1
  3
ACAD_GROUP
350
1A
  3
ACAD_MLINESTYLE
350
1B
  3
ACAD_LAYOUT
350
1E
  3
ACAD_PLOTSETTINGS
350
22
  3
ACAD_PLOTSTYLENAME
350
1F
  3
ACAD_WIPEOUT_VARS
350
23
  0
DICTIONARY
  5
1A
102
{ACAD_REACTORS
330
19
102
}
100
AcDbDictionary
280
         0
281
         1
  0
DICTIONARY
  5
1B
102
{ACAD_REACTORS
330
19
102
}
100
AcDbDictionary
280
         0
281
         1
  3
Standard
350
1C
  0
MLINESTYLE
  5
1C
102
{ACAD_REACTORS
330
1B
102
}
100
AcDbMlineStyle
  2
Standard
 70
         0
  3

 62
         0
 51
90.0
 52
90.0
 71
         2
 49
0.5
 62
       256
  6
ByLayer
 49
-0.5
 62
       256
  6
ByLayer
  0
ACDBDICTIONARYWDFLT
  5
1F
102
{ACAD_REACTORS
330
19
102
}
100
AcDbDictionary
281
         1
  3
Normal
350
1D
100
AcDbDictionaryWithDefault
340
1D
  0
ACDBPLACEHOLDER
  5
1D
102
{ACAD_REACTORS
330
1F
102
}
  0
LAYOUT
  5
20
102
{ACAD_REACTORS
330
1E
102
}
100
AcDbPlotSettings
  1

  2

  4

  6

 40
0.0
 41
0.0
 42
0.0
 43
0.0
 44
0.0
 45
0.0
 46
0.0
 47
0.0
 48
0.0
 49
0.0
140
0.0
141
0.0
142
1.0
143
1.0
 70
      1024
 72
         0
 73
         0
 74
         0
  7

 75
         0
147
1.0
148
0.0
149
0.0
100
AcDbLayout
  1
Model
 70
         0
 71
         0
 10
0.0
 20
0.0
 11
0.0
 21
0.0
 12
0.0
 22
0.0
 32
0.0
 14
0.0
 24
0.0
 34
0.0
 15
0.0
 25
0.0
 35
0.0
146
0.0
 13
0.0
 23
0.0
 33
0.0
 16
0.0
 26
0.0
 36
0.0
 17
0.0
 27
0.0
 37
0.0
 76
         0
330
A
331
0
345
0
346
0
  0
LAYOUT
  5
21
102
{ACAD_REACTORS
330
1E
102
}
100
AcDbPlotSettings
  1

  2

  4

  6

 40
0.0
 41
0.0
 42
0.0
 43
0.0
 44
0.0
 45
0.0
 46
0.0
 47
0.0
 48
0.0
 49
0.0
140
0.0
141
0.0
142
1.0
143
1.0
 70
         0
 72
         0
 73
         0
 74
         0
  7

 75
         0
147
1.0
148
0.0
149
0.0
100
AcDbLayout
  1
Layout1
 70
         0
 71
         0
 10
0.0
 20
0.0
 11
0.0
 21
0.0
 12
0.0
 22
0.0
 32
0.0
 14
0.0
 24
0.0
 34
0.0
 15
0.0
 25
0.0
 35
0.0
146
0.0
 13
0.0
 23
0.0
 33
0.0
 16
0.0
 26
0.0
 36
0.0
 17
0.0
 27
0.0
 37
0.0
 76
         0
330
B
331
0
345
0
346
0
  0
DICTIONARY
  5
1E
102
{ACAD_REACTORS
330
19
102
}
100
AcDbDictionary
280
         0
281
         1
  3
Layout1
350
21
  3
Model
350
20
  0
DICTIONARY
  5
22
102
{ACAD_REACTORS
330
19
102
}
100
AcDbDictionary
280
         0
281
         1
  0
WIPEOUTVARIABLES
  5
23
100
AcDbWipeoutVariables
 70
         1
  0
ENDSEC
  0
EOF
