  0
SECTION
  2
HEADER
  9
$ACADVER
  1
AC1015
  9
$ACADMAINTVER
 70
         6
  9
$DWGCODEPAGE
  3
ANSI_1252
  9
$INSBASE
 10
0.0
 20
0.0
 30
0.0
  9
$EXTMIN
 10
0.0
 20
0.0
 30
0.0
  9
$EXTMAX
 10
594.0
 20
420.0
 30
0.0
  9
$LIMMIN
 10
0.0
 20
0.0
  9
$LIMMAX
 10
594.0
 20
420.0
  9
$ORTHOMODE
 70
         0
  9
$REGENMODE
 70
         1
  9
$FILLMODE
 70
         1
  9
$QTEXTMODE
 70
         0
  9
$MIRRTEXT
 70
         1
  9
$LTSCALE
 40
14.85
  9
$ATTMODE
 70
         1
  9
$TEXTSIZE
 40
0.2
  9
$TRACEWID
 40
0.05
  9
$TEXTSTYLE
  7
Standard
  9
$CLAYER
  8
0
  9
$CELTYPE
  6
CONTINUOUS
  9
$CECOLOR
 62
       256
  9
$CELTSCALE
 40
1.0
  9
$DISPSILH
 70
         0
  9
$DIMSCALE
 40
1.0
  9
$DIMASZ
 40
0.18
  9
$DIMEXO
 40
0.0625
  9
$DIMDLI
 40
0.38
  9
$DIMRND
 40
0.0
  9
$DIMDLE
 40
0.0
  9
$DIMEXE
 40
0.18
  9
$DIMTP
 40
0.0
  9
$DIMTM
 40
0.0
  9
$DIMTXT
 40
3.0
  9
$DIMCEN
 40
0.09
  9
$DIMTSZ
 40
0.0
  9
$DIMTOL
 70
         0
  9
$DIMLIM
 70
         0
  9
$DIMTIH
 70
         1
  9
$DIMTOH
 70
         1
  9
$DIMSE1
 70
         0
  9
$DIMSE2
 70
         0
  9
$DIMTAD
 70
         1
  9
$DIMZIN
 70
         0
  9
$DIMBLK
  1

  9
$DIMASO
 70
         1
  9
$DIMSHO
 70
         1
  9
$DIMPOST
  1
<>
  9
$DIMAPOST
  1

  9
$DIMALT
 70
         0
  9
$DIMALTD
 70
         2
  9
$DIMALTF
 40
25.4
  9
$DIMLFAC
 40
1.0
  9
$DIMTOFL
 70
         0
  9
$DIMTVP
 40
0.0
  9
$DIMTIX
 70
         0
  9
$DIMSOXD
 70
         0
  9
$DIMSAH
 70
         0
  9
$DIMBLK1
  1

  9
$DIMBLK2
  1

  9
$DIMSTYLE
  2
Standard
  9
$DIMCLRD
 70
         0
  9
$DIMCLRE
 70
         0
  9
$DIMCLRT
 70
         0
  9
$DIMTFAC
 40
1.0
  9
$DIMGAP
 40
0.09
  9
$DIMJUST
 70
         0
  9
$DIMSD1
 70
         0
  9
$DIMSD2
 70
         0
  9
$DIMTOLJ
 70
         1
  9
$DIMTZIN
 70
         0
  9
$DIMALTZ
 70
         0
  9
$DIMALTTZ
 70
         0
  9
$DIMUPT
 70
         0
  9
$DIMDEC
 70
         4
  9
$DIMTDEC
 70
         4
  9
$DIMALTU
 70
         2
  9
$DIMALTTD
 70
         2
  9
$DIMTXSTY
  7
Standard
  9
$DIMAUNIT
 70
         0
  9
$DIMADEC
 70
         0
  9
$DIMALTRND
 40
0.0
  9
$DIMAZIN
 70
         0
  9
$DIMDSEP
 70
         0
  9
$DIMATFIT
 70
         3
  9
$DIMFRAC
 70
         0
  9
$DIMLDRBLK
  1

  9
$DIMLUNIT
 70
         2
  9
$DIMLWD
 70
         0
  9
$DIMLWE
 70
         0
  9
$DIMTMOVE
 70
         0
  9
$LUNITS
 70
         2
  9
$LUPREC
 70
         4
  9
$SKETCHINC
 40
0.1
  9
$FILLETRAD
 40
0.0
  9
$AUNITS
 70
         0
  9
$AUPREC
 70
         0
  9
$MENU
  1
acad
  9
$ELEVATION
 40
0.0
  9
$PELEVATION
 40
0.0
  9
$THICKNESS
 40
0.0
  9
$LIMCHECK
 70
         0
  9
$CHAMFERA
 40
0.0
  9
$CHAMFERB
 40
0.0
  9
$CHAMFERC
 40
0.0
  9
$CHAMFERD
 40
0.0
  9
$SKPOLY
 70
         0
  9
$TDCREATE
 40
0.000000000
  9
$TDUCREATE
 40
0.000000000
  9
$TDUPDATE
 40
0.000000000
  9
$TDUUPDATE
 40
0.000000000
  9
$TDINDWG
 40
0.0000000000
  9
$TDUSRTIMER
 40
0.0000000000
  9
$USRTIMER
 70
         1
  9
$ANGBASE
 50
0.0
  9
$ANGDIR
 70
         0
  9
$PDMODE
 70
         0
  9
$PDSIZE
 40
0.0
  9
$PLINEWID
 40
0.0
  9
$SPLFRAME
 70
         0
  9
$SPLINETYPE
 70
         6
  9
$SPLINESEGS
 70
         8
  9
$HANDSEED
  5
12D
  9
$SURFTAB1
 70
         6
  9
$SURFTAB2
 70
         6
  9
$SURFTYPE
 70
         6
  9
$SURFU
 70
         6
  9
$SURFV
 70
         6
  9
$UCSBASE
  2

  9
$UCSNAME
  2

  9
$UCSORG
 10
0.0
 20
0.0
 30
0.0
  9
$UCSXDIR
 10
1.0
 20
0.0
 30
0.0
  9
$UCSYDIR
 10
0.0
 20
1.0
 30
0.0
  9
$UCSORTHOREF
  2

  9
$UCSORTHOVIEW
 70
         0
  9
$UCSORGTOP
 10
0.0
 20
0.0
 30
0.0
  9
$UCSORGBOTTOM
 10
0.0
 20
0.0
 30
0.0
  9
$UCSORGLEFT
 10
0.0
 20
0.0
 30
0.0
  9
$UCSORGRIGHT
 10
0.0
 20
0.0
 30
0.0
  9
$UCSORGFRONT
 10
0.0
 20
0.0
 30
0.0
  9
$UCSORGBACK
 10
0.0
 20
0.0
 30
0.0
  9
$PUCSBASE
  2

  9
$PUCSNAME
  2

  9
$PUCSORG
 10
0.0
 20
0.0
 30
0.0
  9
$PUCSXDIR
 10
1.0
 20
0.0
 30
0.0
  9
$PUCSYDIR
 10
0.0
 20
1.0
 30
0.0
  9
$PUCSORTHOREF
  2

  9
$PUCSORTHOVIEW
 70
         0
  9
$PUCSORGTOP
 10
0.0
 20
0.0
 30
0.0
  9
$PUCSORGBOTTOM
 10
0.0
 20
0.0
 30
0.0
  9
$PUCSORGLEFT
 10
0.0
 20
0.0
 30
0.0
  9
$PUCSORGRIGHT
 10
0.0
 20
0.0
 30
0.0
  9
$PUCSORGFRONT
 10
0.0
 20
0.0
 30
0.0
  9
$PUCSORGBACK
 10
0.0
 20
0.0
 30
0.0
  9
$USERI1
 70
         0
  9
$USERI2
 70
         0
  9
$USERI3
 70
         0
  9
$USERI4
 70
         0
  9
$USERI5
 70
         0
  9
$USERR1
 40
0.0
  9
$USERR2
 40
0.0
  9
$USERR3
 40
0.0
  9
$USERR4
 40
0.0
  9
$USERR5
 40
0.0
  9
$WORLDVIEW
 70
         1
  9
$SHADEDGE
 70
         3
  9
$SHADEDIF
 70
        70
  9
$TILEMODE
 70
         1
  9
$MAXACTVP
 70
        16
  9
$PINSBASE
 10
0.0
 20
0.0
 30
0.0
  9
$PLIMCHECK
 70
         0
  9
$PEXTMIN
 10
1.0000000000E+20
 20
1.0000000000E+20
 30
1.0000000000E+20
  9
$PEXTMAX
 10
-1.0000000000E+20
 20
-1.0000000000E+20
 30
-1.0000000000E+20
  9
$PLIMMIN
 10
0.0
 20
0.0
  9
$PLIMMAX
 10
12.0
 20
9.0
  9
$UNITMODE
 70
         0
  9
$VISRETAIN
 70
         0
  9
$PLINEGEN
 70
         1
  9
$PSLTSCALE
 70
         0
  9
$TREEDEPTH
 70
      3020
  9
$CMLSTYLE
  2
Standard
  9
$CMLJUST
 70
         0
  9
$CMLSCALE
 40
1.0
  9
$PROXYGRAPHICS
 70
         0
  9
$MEASUREMENT
 70
         1
  9
$CELWEIGHT
370
         0
  9
$ENDCAPS
280
         0
  9
$JOINSTYLE
280
         0
  9
$LWDISPLAY
290
         0
  9
$INSUNITS
 70
         0
  9
$HYPERLINKBASE
  1

  9
$STYLESHEET
  1

  9
$XEDIT
290
         1
  9
$CEPSNTYPE
380
         0
  9
$PSTYLEMODE
290
         1
  9
$FINGERPRINTGUID
  2

  9
$VERSIONGUID
  2

  9
$EXTNAMES
290
         1
  9
$PSVPSCALE
 40
0.0
  0
ENDSEC
  0
SECTION
  2
CLASSES
  0
CLASS
  1
LWPOLYLINE
  2
AcDbPolyline
  3
AutoCAD 2000
 90
        0
280
         0
281
         1
  0
CLASS
  1
IMAGE
  2
AcDbRasterImage
  3
ISM
 90
      127
280
         0
281
         1
  0
CLASS
  1
OLE2FRAME
  2
AcDbOle2Frame
  3
AutoCAD 2000
 90
        0
280
         0
281
         1
  0
CLASS
  1
HATCH
  2
AcDbHatch
  3
AutoCAD 2000
 90
        0
280
         0
281
         1
  0
CLASS
  1
DICTIONARYVAR
  2
AcDbDictionaryVar
  3
AutoCAD 2000
 90
        0
280
         0
281
         0
  0
CLASS
  1
RASTERVARIABLES
  2
AcDbRasterVariables
  3
ISM
 90
        0
280
         0
281
         0
  0
CLASS
  1
IMAGEDEF
  2
AcDbRasterImageDef
  3
ISM
 90
        0
280
         0
281
         0
  0
CLASS
  1
IMAGEDEF_REACTOR
  2
AcDbRasterImageDefReactor
  3
ISM
 90
        1
280
         0
281
         0
  0
CLASS
  1
IDBUFFER
  2
AcDbIdBuffer
  3
AutoCAD 2000
 90
        0
280
         0
281
         0
  0
CLASS
  1
SPATIAL_FILTER
  2
AcDbSpatialFilter
  3
AutoCAD 2000
 90
        0
280
         0
281
         0
  0
CLASS
  1
XRECORD
  2
AcDbXrecord
  3
AutoCAD 2000
 90
        0
280
         0
281
         0
  0
CLASS
  1
SORTENTSTABLE
  2
AcDbSortentsTable
  3
AutoCAD 2000
 90
        0
280
         0
281
         0
  0
CLASS
  1
LAYER_INDEX
  2
AcDbLayerIndex
  3
AutoCAD 2000
 90
        0
280
         0
281
         0
  0
CLASS
  1
SPATIAL_INDEX
  2
AcDbSpatialIndex
  3
AutoCAD 2000
 90
        0
280
         0
281
         0
  0
CLASS
  1
OBJECT_PTR
  2
CAseDLPNTableRecord
  3
"ASE-LPNTableRecord"
 90
        1
280
         0
281
         0
  0
CLASS
  1
LAYOUT
  2
AcDbLayout
  3
AutoCAD 2000
 90
        0
280
         0
281
         0
  0
CLASS
  1
PLOTSETTINGS
  2
AcDbPlotSettings
  3
AutoCAD 2000
 90
        0
280
         0
281
         0
  0
CLASS
  1
ACDBDICTIONARYWDFLT
  2
AcDbDictionaryWithDefault
  3
AutoCAD 2000
 90
        0
280
         0
281
         0
  0
CLASS
  1
ACDBPLACEHOLDER
  2
AcDbPlaceHolder
  3
AutoCAD 2000
 90
        0
280
         0
281
         0
  0
CLASS
  1
VBA_PROJECT
  2
AcDbVbaProject
  3
acadvba
 90
        0
280
         0
281
         0
  0
CLASS
  1
WIPEOUT
  2
AcDbWipeout
  3
WipeOut|AutoCAD Express Tool|expresstools@autodesk.com
 90
      127
280
         0
281
         1
  0
CLASS
  1
WIPEOUTVARIABLES
  2
AcDbWipeoutVariables
  3
WipeOut|AutoCAD Express Tool|expresstools@autodesk.com
 90
        0
280
         0
281
         0
  0
CLASS
  1
RTEXT
  2
RText
  3
RText|AutoCAD Express Tool|expresstools@autodesk.com
 90
        0
280
         0
281
         1
  0
CLASS
  1
ARCALIGNEDTEXT
  2
AcDbArcAlignedText
  3
ATEXT|AutoCAD Express Tool|expresstools@autodesk.com
 90
        0
280
         0
281
         1
  0
ENDSEC
  0
SECTION
  2
TABLES
  0
TABLE
  2
VPORT
  5
7
100
AcDbSymbolTable
 70
         1
  0
VPORT
  5
15
100
AcDbSymbolTableRecord
100
AcDbViewportTableRecord
  2
*ACTIVE
 70
         0
 10
0.0
 20
0.0
 11
1.0
 21
1.0
 12
297.0
 22
210.0
 13
0.0
 23
0.0
 14
1.0
 24
1.0
 15
0.0
 25
0.0
 16
0.0
 26
0.0
 36
1.0
 17
0.0
 27
0.0
 37
0.0
 40
462.5887784689
 41
1.0
 42
50.0
 43
0.0
 44
0.0
 50
0.0
 51
0.0
 71
         0
 72
       100
 73
         1
 74
         1
 75
         0
 76
         0
 77
         0
 78
         0
281
         0
 65
         0
110
0.0
120
0.0
130
0.0
111
1.0
121
0.0
131
0.0
112
0.0
122
1.0
132
0.0
345
0
346
0
 79
         0
146
0.0
  0
ENDTAB
  0
TABLE
  2
LTYPE
  5
4
100
AcDbSymbolTable
 70
        12
  0
LTYPE
  5
11
100
AcDbSymbolTableRecord
100
AcDbLinetypeTableRecord
  2
ByBlock
 70
        64
  3

 72
        65
 73
         0
 40
0.0
  0
LTYPE
  5
12
100
AcDbSymbolTableRecord
100
AcDbLinetypeTableRecord
  2
ByLayer
 70
        64
  3

 72
        65
 73
         0
 40
0.0
  0
LTYPE
  5
13
100
AcDbSymbolTableRecord
100
AcDbLinetypeTableRecord
  2
CONTINUOUS
 70
        64
  3
Solid Line
 72
        65
 73
         0
 40
0.0
  0
LTYPE
  5
24
100
AcDbSymbolTableRecord
100
AcDbLinetypeTableRecord
  2
DOT
 70
        64
  3
. . . . . . . . . . . . . . . . . . . . . . 
 72
        65
 73
         2
 40
0.25
 49
0.0
 74
         0
 49
-0.25
 74
         0
  0
LTYPE
  5
25
100
AcDbSymbolTableRecord
100
AcDbLinetypeTableRecord
  2
HIDDEN
 70
         0
  3
_ _ _ _ _ _ _ _ _ _ _ _ _ _ _ _ _ _ _ _ _ _ _
 72
        65
 73
         2
 40
0.375
 49
0.25
 74
         0
 49
-0.125
 74
         0
  0
LTYPE
  5
26
100
AcDbSymbolTableRecord
100
AcDbLinetypeTableRecord
  2
DASHDOT
 70
         0
  3
__ . __ . __ . __ . __ . __ . __ . __ . __ . __
 72
        65
 73
         4
 40
1.0
 49
0.5
 74
         0
 49
-0.25
 74
         0
 49
0.0
 74
         0
 49
-0.25
 74
         0
  0
LTYPE
  5
27
100
AcDbSymbolTableRecord
100
AcDbLinetypeTableRecord
  2
DIVIDE
 70
         0
  3
__ . . __ . . __ . . __ . . __ . . __ . . __
 72
        65
 73
         6
 40
1.25
 49
0.5
 74
         0
 49
-0.25
 74
         0
 49
0.0
 74
         0
 49
-0.25
 74
         0
 49
0.0
 74
         0
 49
-0.25
 74
         0
  0
LTYPE
  5
28
100
AcDbSymbolTableRecord
100
AcDbLinetypeTableRecord
  2
DASHED
 70
         0
  3
__ __ __ __ __ __ __ __ __ __ __ __ __ __ __
 72
        65
 73
         2
 40
0.75
 49
0.5
 74
         0
 49
-0.25
 74
         0
  0
LTYPE
  5
29
100
AcDbSymbolTableRecord
100
AcDbLinetypeTableRecord
  2
BORDER
 70
         0
  3
__ __ . __ __ . __ __ . __ __ . __ __ .
 72
        65
 73
         6
 40
1.75
 49
0.5
 74
         0
 49
-0.25
 74
         0
 49
0.5
 74
         0
 49
-0.25
 74
         0
 49
0.0
 74
         0
 49
-0.25
 74
         0
  0
LTYPE
  5
2A
100
AcDbSymbolTableRecord
100
AcDbLinetypeTableRecord
  2
CENTER
 70
         0
  3
____ _ ____ _ ____ _ ____ _ ____ _ ____
 72
        65
 73
         4
 40
2.0
 49
1.25
 74
         0
 49
-0.25
 74
         0
 49
0.25
 74
         0
 49
-0.25
 74
         0
  0
LTYPE
  5
2B
100
AcDbSymbolTableRecord
100
AcDbLinetypeTableRecord
  2
DOT2
 70
         0
  3
........................................
 72
        65
 73
         2
 40
0.125
 49
0.0
 74
         0
 49
-0.125
 74
         0
  0
LTYPE
  5
2C
100
AcDbSymbolTableRecord
100
AcDbLinetypeTableRecord
  2
PHANTOM
 70
         0
  3
______  __  __  ______  __  __  ______
 72
        65
 73
         6
 40
2.5
 49
1.25
 74
         0
 49
-0.25
 74
         0
 49
0.25
 74
         0
 49
-0.25
 74
         0
 49
0.25
 74
         0
 49
-0.25
 74
         0
  0
ENDTAB
  0
TABLE
  2
LAYER
  5
2
100
AcDbSymbolTable
 70
        56
  0
LAYER
  5
14
100
AcDbSymbolTableRecord
100
AcDbLayerTableRecord
  2
0
 70
         0
 62
         7
  6
CONTINUOUS
290
         1
370
        -3
390
1D
  0
LAYER
  5
33
100
AcDbSymbolTableRecord
100
AcDbLayerTableRecord
  2
BESCHRIFTUNG
 70
        64
 62
         7
  6
CONTINUOUS
290
         1
370
        25
390
1D
  0
LAYER
  5
34
100
AcDbSymbolTableRecord
100
AcDbLayerTableRecord
  2
SCHRAFFUR
 70
        64
 62
         7
  6
CONTINUOUS
290
         1
370
        25
390
1D
  0
LAYER
  5
35
100
AcDbSymbolTableRecord
100
AcDbLayerTableRecord
  2
MASSTEXTE
 70
        64
 62
       212
  6
CONTINUOUS
290
         1
370
        25
390
1D
  0
LAYER
  5
36
100
AcDbSymbolTableRecord
100
AcDbLayerTableRecord
  2
MASSLINIEN
 70
        64
 62
       172
  6
CONTINUOUS
290
         1
370
        25
390
1D
  0
LAYER
  5
37
100
AcDbSymbolTableRecord
100
AcDbLayerTableRecord
  2
MASSGRENZEN
 70
        64
 62
       172
  6
CONTINUOUS
290
         1
370
        25
390
1D
  0
LAYER
  5
38
100
AcDbSymbolTableRecord
100
AcDbLayerTableRecord
  2
TOLERANZEN
 70
        64
 62
       212
  6
CONTINUOUS
290
         1
370
         0
390
1D
  0
LAYER
  5
39
100
AcDbSymbolTableRecord
100
AcDbLayerTableRecord
  2
BEMASSUNG
 70
        64
 62
         7
  6
CONTINUOUS
290
         1
370
        25
390
1D
  0
LAYER
  5
3A
100
AcDbSymbolTableRecord
100
AcDbLayerTableRecord
  2
HILFSLINIEN
 70
        64
 62
         3
  6
CONTINUOUS
290
         1
370
         0
390
1D
  0
LAYER
  5
3B
100
AcDbSymbolTableRecord
100
AcDbLayerTableRecord
  2
MITTELLINIEN
 70
        64
 62
         5
  6
DASHDOT
290
         1
370
        13
390
1D
  0
LAYER
  5
3C
100
AcDbSymbolTableRecord
100
AcDbLayerTableRecord
  2
BESCHRIFTUNG00
 70
        64
 62
         7
  6
CONTINUOUS
290
         1
370
        25
390
1D
  0
LAYER
  5
3D
100
AcDbSymbolTableRecord
100
AcDbLayerTableRecord
  2
BESCHRIFTUNG0
 70
        64
 62
         7
  6
CONTINUOUS
290
         1
370
        25
390
1D
  0
LAYER
  5
3E
100
AcDbSymbolTableRecord
100
AcDbLayerTableRecord
  2
GEWINDELINIEN
 70
        64
 62
       212
  6
CONTINUOUS
290
         1
370
        25
390
1D
  0
LAYER
  5
3F
100
AcDbSymbolTableRecord
100
AcDbLayerTableRecord
  2
UNSICHTBARE
 70
        64
 62
        92
  6
DASHED
290
         1
370
        25
390
1D
  0
LAYER
  5
40
100
AcDbSymbolTableRecord
100
AcDbLayerTableRecord
  2
VERDECKTE
 70
        64
 62
        92
  6
DASHED
290
         1
370
        25
390
1D
  0
LAYER
  5
41
100
AcDbSymbolTableRecord
100
AcDbLayerTableRecord
  2
LICHTKANTEN
 70
        64
 62
         8
  6
CONTINUOUS
290
         1
370
        25
390
1D
  0
LAYER
  5
42
100
AcDbSymbolTableRecord
100
AcDbLayerTableRecord
  2
SCHNITTVERLAUF
 70
        64
 62
        34
  6
DASHDOT
290
         1
370
        70
390
1D
  0
LAYER
  5
43
100
AcDbSymbolTableRecord
100
AcDbLayerTableRecord
  2
KENNZEICHNUNG
 70
        64
 62
         7
  6
CONTINUOUS
290
         1
370
         0
390
1D
  0
LAYER
  5
44
100
AcDbSymbolTableRecord
100
AcDbLayerTableRecord
  2
PFEILE
 70
        64
 62
         7
  6
CONTINUOUS
290
         1
370
        70
390
1D
  0
LAYER
  5
45
100
AcDbSymbolTableRecord
100
AcDbLayerTableRecord
  2
SCHNITTDARSTELLUNG
 70
        64
 62
         7
  6
CONTINUOUS
290
         1
370
         0
390
1D
  0
LAYER
  5
46
100
AcDbSymbolTableRecord
100
AcDbLayerTableRecord
  2
2919_1P
 70
        64
 62
       230
  6
CONTINUOUS
290
         1
370
         0
390
1D
  0
LAYER
  5
47
100
AcDbSymbolTableRecord
100
AcDbLayerTableRecord
  2
2919_3S
 70
        64
 62
       230
  6
CONTINUOUS
290
         1
370
         0
390
1D
  0
LAYER
  5
48
100
AcDbSymbolTableRecord
100
AcDbLayerTableRecord
  2
2919_2S
 70
        64
 62
       230
  6
CONTINUOUS
290
         1
370
         0
390
1D
  0
LAYER
  5
49
100
AcDbSymbolTableRecord
100
AcDbLayerTableRecord
  2
2919_4S
 70
        64
 62
       230
  6
CONTINUOUS
290
         1
370
         0
390
1D
  0
LAYER
  5
4A
100
AcDbSymbolTableRecord
100
AcDbLayerTableRecord
  2
2919___ AUFSPANNPLATTE
 70
        64
 62
       230
  6
CONTINUOUS
290
         1
370
        13
390
1D
  0
LAYER
  5
4B
100
AcDbSymbolTableRecord
100
AcDbLayerTableRecord
  2
2914_1P
 70
        64
 62
       134
  6
CONTINUOUS
290
         1
370
         0
390
1D
  0
LAYER
  5
4C
100
AcDbSymbolTableRecord
100
AcDbLayerTableRecord
  2
2914_2P
 70
        64
 62
       230
  6
CONTINUOUS
290
         1
370
        18
390
1D
  0
LAYER
  5
4D
100
AcDbSymbolTableRecord
100
AcDbLayerTableRecord
  2
2914_3Q
 70
        64
 62
       134
  6
CONTINUOUS
290
         1
370
        18
390
1D
  0
LAYER
  5
4E
100
AcDbSymbolTableRecord
100
AcDbLayerTableRecord
  2
2914_3P
 70
        64
 62
       114
  6
CONTINUOUS
290
         1
370
        18
390
1D
  0
LAYER
  5
4F
100
AcDbSymbolTableRecord
100
AcDbLayerTableRecord
  2
2914_4P
 70
        64
 62
       114
  6
CONTINUOUS
290
         1
370
        18
390
1D
  0
LAYER
  5
50
100
AcDbSymbolTableRecord
100
AcDbLayerTableRecord
  2
2913_6P
 70
        64
 62
       230
  6
CONTINUOUS
290
         1
370
         0
390
1D
  0
LAYER
  5
51
100
AcDbSymbolTableRecord
100
AcDbLayerTableRecord
  2
2914___ ANSCHLÄGE
 70
        64
 62
       230
  6
CONTINUOUS
290
         1
370
        13
390
1D
  0
LAYER
  5
52
100
AcDbSymbolTableRecord
100
AcDbLayerTableRecord
  2
2913_1O~A
 70
        64
 62
         5
  6
CONTINUOUS
290
         1
370
         0
390
1D
  0
LAYER
  5
53
100
AcDbSymbolTableRecord
100
AcDbLayerTableRecord
  2
2913_1O
 70
        64
 62
        14
  6
CONTINUOUS
290
         1
370
         0
390
1D
  0
LAYER
  5
54
100
AcDbSymbolTableRecord
100
AcDbLayerTableRecord
  2
2913_2P~A
 70
        64
 62
         5
  6
CONTINUOUS
290
         1
370
         0
390
1D
  0
LAYER
  5
55
100
AcDbSymbolTableRecord
100
AcDbLayerTableRecord
  2
2913_2P
 70
        64
 62
        14
  6
CONTINUOUS
290
         1
370
         0
390
1D
  0
LAYER
  5
56
100
AcDbSymbolTableRecord
100
AcDbLayerTableRecord
  2
2913_3U
 70
        64
 62
        14
  6
CONTINUOUS
290
         1
370
         0
390
1D
  0
LAYER
  5
57
100
AcDbSymbolTableRecord
100
AcDbLayerTableRecord
  2
2913_4V
 70
        64
 62
        14
  6
CONTINUOUS
290
         1
370
         0
390
1D
  0
LAYER
  5
58
100
AcDbSymbolTableRecord
100
AcDbLayerTableRecord
  2
2913_5P
 70
        64
 62
       234
  6
CONTINUOUS
290
         1
370
         0
390
1D
  0
LAYER
  5
59
100
AcDbSymbolTableRecord
100
AcDbLayerTableRecord
  2
2913___ AUFSPANNPLATTE
 70
        64
 62
         7
  6
CONTINUOUS
290
         1
370
         0
390
1D
  0
LAYER
  5
5A
100
AcDbSymbolTableRecord
100
AcDbLayerTableRecord
  2
1088_1P
 70
        64
 62
        30
  6
CONTINUOUS
290
         1
370
         0
390
1D
  0
LAYER
  5
5B
100
AcDbSymbolTableRecord
100
AcDbLayerTableRecord
  2
108____ VORLAGEN
 70
        64
 62
       230
  6
CONTINUOUS
290
         1
370
        13
390
1D
  0
LAYER
  5
5C
100
AcDbSymbolTableRecord
100
AcDbLayerTableRecord
  2
PFADE
 70
        64
 62
        30
  6
CONTINUOUS
290
         1
370
        13
390
1D
  0
LAYER
  5
5D
100
AcDbSymbolTableRecord
100
AcDbLayerTableRecord
  2
2913_2 AUFSPANNANSCHLAG
 70
        64
 62
         6
  6
CONTINUOUS
290
         1
370
        18
390
1D
  0
LAYER
  5
5E
100
AcDbSymbolTableRecord
100
AcDbLayerTableRecord
  2
2913_3 AUFSPANNANSCHLAGWINKEL
 70
        64
 62
       214
  6
CONTINUOUS
290
         1
370
        18
390
1D
  0
LAYER
  5
5F
100
AcDbSymbolTableRecord
100
AcDbLayerTableRecord
  2
2913_1 AUFSPANNPLATTE
 70
        64
 62
         7
  6
CONTINUOUS
290
         1
370
        18
390
1D
  0
LAYER
  5
60
100
AcDbSymbolTableRecord
100
AcDbLayerTableRecord
  2
2913_4 NULLANSCHLÄGE
 70
        64
 62
       230
  6
CONTINUOUS
290
         1
370
         0
390
1D
  0
LAYER
  5
61
100
AcDbSymbolTableRecord
100
AcDbLayerTableRecord
  2
2913_5 NULLPFADE
 70
        64
 62
        94
  6
CONTINUOUS
290
         1
370
         0
390
1D
  0
LAYER
  5
62
100
AcDbSymbolTableRecord
100
AcDbLayerTableRecord
  2
2913_0 Y-SCHLITTEN
 70
        64
 62
        30
  6
CONTINUOUS
290
         1
370
         0
390
1D
  0
LAYER
  5
63
100
AcDbSymbolTableRecord
100
AcDbLayerTableRecord
  2
2913__ FRÄSE - AUFSPANNPLATTE
 70
        64
 62
         7
  6
CONTINUOUS
290
         1
370
        18
390
1D
  0
LAYER
  5
64
100
AcDbSymbolTableRecord
100
AcDbLayerTableRecord
  2
2916__ XY-NULLPUNKT-RING
 70
        64
 62
         7
  6
CONTINUOUS
290
         1
370
         0
390
1D
  0
LAYER
  5
65
100
AcDbSymbolTableRecord
100
AcDbLayerTableRecord
  2
2919__ FRÄSE - MITTENAUFSPANNUNG
 70
        64
 62
         7
  6
CONTINUOUS
290
         1
370
         0
390
1D
  0
LAYER
  5
66
100
AcDbSymbolTableRecord
100
AcDbLayerTableRecord
  2
KONSTRUKTION
 70
        64
 62
         7
  6
CONTINUOUS
290
         1
370
         0
390
1D
  0
LAYER
  5
67
100
AcDbSymbolTableRecord
100
AcDbLayerTableRecord
  2
GEOMETRIE
 70
        64
 62
         7
  6
CONTINUOUS
290
         1
370
         0
390
1D
  0
LAYER
  5
68
100
AcDbSymbolTableRecord
100
AcDbLayerTableRecord
  2
_TEMP
 70
        64
 62
         7
  6
CONTINUOUS
290
         1
370
        50
390
1D
  0
LAYER
  5
69
100
AcDbSymbolTableRecord
100
AcDbLayerTableRecord
  2
STANDARD
 70
        64
 62
         7
  6
CONTINUOUS
290
         1
370
         0
390
1D
  0
ENDTAB
  0
TABLE
  2
STYLE
  5
3
100
AcDbSymbolTable
 70
         7
  0
STYLE
  5
17
100
AcDbSymbolTableRecord
100
AcDbTextStyleTableRecord
  2
Standard
 70
         0
 40
0.0
 41
1.0
 50
0.0
 71
         0
 42
0.0
  3
txt
  4

  0
STYLE
  5
2D
100
AcDbSymbolTableRecord
100
AcDbTextStyleTableRecord
  2
CADdy
 70
         0
 40
0.0
 41
1.0
 50
0.0
 71
         0
 42
3.5
  3
txt.shx
  4

  0
STYLE
  5
2E
100
AcDbSymbolTableRecord
100
AcDbTextStyleTableRecord
  2
Arial
 70
         0
 40
0.0
 41
1.0
 50
0.0
 71
         0
 42
3.5
  3
arial.ttf
  4

1001
ACAD
1000
Arial
1071
       34
  0
STYLE
  5
2F
100
AcDbSymbolTableRecord
100
AcDbTextStyleTableRecord
  2
Isonorm
 70
         0
 40
0.0
 41
1.0
 50
0.0
 71
         0
 42
3.5
  3
txt.shx
  4

  0
STYLE
  5
30
100
AcDbSymbolTableRecord
100
AcDbTextStyleTableRecord
  2
Tahoma
 70
         0
 40
0.0
 41
1.0
 50
0.0
 71
         0
 42
3.5
  3
tahoma.ttf
  4

1001
ACAD
1000
Tahoma
1071
       34
  0
STYLE
  5
31
100
AcDbSymbolTableRecord
100
AcDbTextStyleTableRecord
  2
Microsoft Sans Serif
 70
         0
 40
0.0
 41
1.0
 50
0.0
 71
         0
 42
3.5
  3
micross.ttf
  4

1001
ACAD
1000
Microsoft Sans Serif
1071
       34
  0
STYLE
  5
32
100
AcDbSymbolTableRecord
100
AcDbTextStyleTableRecord
  2
Arial Rounded MT Bold
 70
         0
 40
0.0
 41
1.0
 50
0.0
 71
         0
 42
3.5
  3
txt.shx
  4

  0
ENDTAB
  0
TABLE
  2
VIEW
  5
5
100
AcDbSymbolTable
 70
         0
  0
ENDTAB
  0
TABLE
  2
UCS
  5
6
100
AcDbSymbolTable
 70
         0
  0
ENDTAB
  0
TABLE
  2
APPID
  5
8
100
AcDbSymbolTable
 70
         1
  0
APPID
  5
16
100
AcDbSymbolTableRecord
100
AcDbRegAppTableRecord
  2
ACAD
 70
        64
  0
ENDTAB
  0
TABLE
  2
DIMSTYLE
  5
9
100
AcDbSymbolTable
 70
         1
100
AcDbDimStyleTable
 71
         0
  0
DIMSTYLE
105
18
100
AcDbSymbolTableRecord
100
AcDbDimStyleTableRecord
  2
Standard
 70
         0
  3

  4

 40
1.0
 41
0.18
 42
0.0625
 43
0.38
 44
0.18
 45
0.0
 46
0.0
 47
0.0
 48
0.0
 71
         0
 72
         0
 73
         1
 74
         1
 75
         0
 76
         0
 77
         0
 78
         0
 79
         0
140
0.18
141
0.09
142
0.0
143
25.4
144
1.0
145
0.0
146
1.0
147
0.09
148
0.0
170
         0
171
         2
172
         0
173
         0
174
         0
175
         0
176
         0
177
         0
178
         0
179
         0
271
         4
272
         4
273
         2
274
         2
275
         0
276
         0
277
         2
278
        46
279
         0
280
         0
281
         0
282
         0
283
         1
284
         0
285
         0
286
         0
288
         0
289
         3
340
17
341
0
342
0
343
0
344
0
371
        -2
372
        -2
  0
ENDTAB
  0
TABLE
  2
BLOCK_RECORD
  5
1
100
AcDbSymbolTable
 70
         2
  0
BLOCK_RECORD
  5
A
100
AcDbSymbolTableRecord
100
AcDbBlockTableRecord
  2
*MODEL_SPACE
340
20
  0
BLOCK_RECORD
  5
B
100
AcDbSymbolTableRecord
100
AcDbBlockTableRecord
  2
*PAPER_SPACE
340
21
  0
BLOCK_RECORD
  5
6A
100
AcDbSymbolTableRecord
100
AcDbBlockTableRecord
  2
D498568704
340
0
102
{BLKREFS
331
D8
102
}
  0
BLOCK_RECORD
  5
73
100
AcDbSymbolTableRecord
100
AcDbBlockTableRecord
  2
_A200045376
340
0
102
{BLKREFS
331
FD
102
}
  0
ENDTAB
  0
ENDSEC
  0
SECTION
  2
BLOCKS
  0
BLOCK
  5
D
100
AcDbEntity
  8
0
390
0
100
AcDbBlockBegin
  2
*MODEL_SPACE
 70
         0
 10
0.0
 20
0.0
 30
0.0
  3
*MODEL_SPACE
  1

  0
ENDBLK
  5
E
100
AcDbEntity
  8
0
390
0
100
AcDbBlockEnd
  0
BLOCK
  5
F
100
AcDbEntity
 67
         1
  8
0
390
0
100
AcDbBlockBegin
  2
*PAPER_SPACE
 70
         0
 10
0.0
 20
0.0
 30
0.0
  3
*PAPER_SPACE
  1

  0
ENDBLK
  5
10
100
AcDbEntity
 67
         1
  8
0
390
0
100
AcDbBlockEnd
  0
BLOCK
  5
6B
100
AcDbEntity
  8
BEMASSUNG
390
0
100
AcDbBlockBegin
  2
D498568704
 70
         0
 10
0.0
 20
0.0
 30
0.0
  3
D498568704
  1

  0
LINE
  5
6C
100
AcDbEntity
  8
MASSLINIEN
390
0
 62
       172
100
AcDbLine
 10
72.6892599207
 20
201.1321179014
 30
0.0
 11
72.6892599207
 21
229.1321179014
 31
0.0
  0
LINE
  5
6D
100
AcDbEntity
  8
MASSLINIEN
390
0
 62
       172
100
AcDbLine
 10
115.0647110379
 20
201.1321179014
 30
0.0
 11
68.6892599207
 21
201.1321179014
 31
0.0
  0
LINE
  5
6E
100
AcDbEntity
  8
MASSLINIEN
390
0
 62
       172
100
AcDbLine
 10
119.0897110379
 20
229.1321179014
 30
0.0
 11
68.6892599207
 21
229.1321179014
 31
0.0
  0
SOLID
  5
6F
100
AcDbEntity
  8
MASSGRENZEN
390
0
100
AcDbTrace
 10
72.6892599207
 20
201.1321179014
 30
0.0
 11
71.9061027674
 21
207.0807870696
 31
0.0
 12
73.472417074
 22
207.0807870696
 32
0.0
 13
73.472417074
 23
207.0807870696
 33
0.0
  0
SOLID
  5
70
100
AcDbEntity
  8
MASSGRENZEN
390
0
100
AcDbTrace
 10
72.6892599207
 20
229.1321179014
 30
0.0
 11
73.472417074
 21
223.1834487331
 31
0.0
 12
71.9061027674
 22
223.1834487331
 32
0.0
 13
71.9061027674
 23
223.1834487331
 33
0.0
  0
MTEXT
  5
71
100
AcDbEntity
  8
MASSTEXTE
390
0
 62
       212
100
AcDbMText
 10
67.7772599207
 20
215.1321179014
 30
0.0
 40
4.0
 41
0.0
 71
         5
 72
         1
  1
\W1.135145;\A1;28
  7
Arial
 11
0.0
 21
1.0
 31
0.0
 73
         0
 44
0.0
  0
ENDBLK
  5
72
100
AcDbEntity
  8
0
390
0
100
AcDbBlockEnd
  0
BLOCK
  5
74
100
AcDbEntity
  8
2919_4S
390
0
100
AcDbBlockBegin
  2
_A200045376
 70
        66
 10
443.7195129395
 20
71.5214004517
 30
0.0
  3
_A200045376
  1

  0
LINE
  5
75
100
AcDbEntity
  8
2919_4S
370
        25
390
0
  6
CONTINUOUS
 62
         7
100
AcDbLine
 10
499.510453283
 20
71.5213974315
 30
0.0
 11
540.225453283
 21
71.5213974315
 31
0.0
  0
LINE
  5
76
100
AcDbEntity
  8
2919_4S
370
        25
390
0
  6
CONTINUOUS
 62
         7
100
AcDbLine
 10
443.7195155815
 20
110.7240596133
 30
0.0
 11
499.510453283
 21
71.5213974315
 31
0.0
  0
LINE
  5
77
100
AcDbEntity
  8
2919_4S
370
         0
390
0
  6
CONTINUOUS
 62
       172
100
AcDbLine
 10
449.0369993767
 20
107.9447852319
 30
0.0
 11
443.7195155815
 21
110.7240596133
 31
0.0
  0
LINE
  5
78
100
AcDbEntity
  8
2919_4S
370
         0
390
0
  6
CONTINUOUS
 62
       172
100
AcDbLine
 10
443.7195155815
 20
110.7240596133
 30
0.0
 11
448.1364813687
 21
106.6632206317
 31
0.0
  0
LINE
  5
79
100
AcDbEntity
  8
2919_4S
370
         0
390
0
  6
CONTINUOUS
 62
       172
100
AcDbLine
 10
448.1364813687
 20
106.6632206317
 30
0.0
 11
449.0369993767
 21
107.9447852319
 31
0.0
  0
HATCH
  5
7A
100
AcDbEntity
  8
2919_4S
390
0
  6
CONTINUOUS
 62
       172
100
AcDbHatch
 10
0.0
 20
0.0
 30
0.0
210
0.0
220
0.0
230
1.0
  2
SOLID
 70
         1
 71
         1
 91
        1
 92
        5
 93
        3
 72
         1
 10
449.03699937672678
 20
107.94478523190624
 11
443.71951558147759
 21
110.72405961333425
 72
         1
 10
443.71951558147759
 20
110.72405961333425
 11
448.1364813687033
 21
106.66322063173483
 72
         1
 10
448.1364813687033
 20
106.66322063173483
 11
449.03699937672678
 21
107.94478523190624
 97
        0
 75
         0
 76
         1
 47
1.224757
 98
        1
 10
449.03699937672678
 20
107.94477523190623
  0
ENDBLK
  5
7B
100
AcDbEntity
  8
0
390
0
100
AcDbBlockEnd
  0
ENDSEC
  0
SECTION
  2
ENTITIES
  0
LINE
  5
7C
100
AcDbEntity
  8
2913_1 AUFSPANNPLATTE
390
0
100
AcDbLine
 10
92.0647110379
 20
49.1321179014
 30
0.0
 11
472.0647110379
 21
49.1321179014
 31
0.0
  0
LINE
  5
7D
100
AcDbEntity
  8
2913_1 AUFSPANNPLATTE
390
0
100
AcDbLine
 10
472.0647110379
 20
389.1321179014
 30
0.0
 11
92.0647110379
 21
389.1321179014
 31
0.0
  0
LINE
  5
7E
100
AcDbEntity
  8
2913_1 AUFSPANNPLATTE
390
0
100
AcDbLine
 10
92.0647110379
 20
389.1321179014
 30
0.0
 11
92.0647110379
 21
384.1321179014
 31
0.0
  0
LINE
  5
7F
100
AcDbEntity
  8
2913_1 AUFSPANNPLATTE
390
0
  6
DASHED
100
AcDbLine
 10
92.0647110379
 20
384.1321179014
 30
0.0
 11
92.0647110379
 21
74.1321179014
 31
0.0
  0
LINE
  5
80
100
AcDbEntity
  8
2913_1 AUFSPANNPLATTE
390
0
100
AcDbLine
 10
92.0647110379
 20
74.1321179014
 30
0.0
 11
92.0647110379
 21
49.1321179014
 31
0.0
  0
LINE
  5
81
100
AcDbEntity
  8
2913_1 AUFSPANNPLATTE
390
0
100
AcDbLine
 10
90.0647110379
 20
384.1321179014
 30
0.0
 11
90.0647110379
 21
74.1321179014
 31
0.0
  0
LINE
  5
82
100
AcDbEntity
  8
2913_1 AUFSPANNPLATTE
390
0
100
AcDbLine
 10
90.0647110379
 20
74.1321179014
 30
0.0
 11
105.0647110379
 21
74.1321179014
 31
0.0
  0
LINE
  5
83
100
AcDbEntity
  8
2913_1 AUFSPANNPLATTE
390
0
100
AcDbLine
 10
472.0647110379
 20
49.1321179014
 30
0.0
 11
472.0647110379
 21
389.1321179014
 31
0.0
  0
LINE
  5
84
100
AcDbEntity
  8
2913_0 Y-SCHLITTEN
370
        20
390
0
  6
DIVIDE
 62
        30
100
AcDbLine
 10
106.6827839784
 20
44.6349302817
 30
0.0
 11
441.6827839784
 21
44.6349302817
 31
0.0
  0
LINE
  5
85
100
AcDbEntity
  8
2913_0 Y-SCHLITTEN
370
        20
390
0
  6
DIVIDE
 62
        30
100
AcDbLine
 10
441.6827839784
 20
44.6349302817
 30
0.0
 11
441.6827839784
 21
308.6349302817
 31
0.0
  0
LINE
  5
86
100
AcDbEntity
  8
2913_0 Y-SCHLITTEN
370
        20
390
0
  6
DIVIDE
 62
        30
100
AcDbLine
 10
441.6827839784
 20
308.6349302817
 30
0.0
 11
106.6827839784
 21
308.6349302817
 31
0.0
  0
LINE
  5
87
100
AcDbEntity
  8
2913_0 Y-SCHLITTEN
370
        20
390
0
  6
DIVIDE
 62
        30
100
AcDbLine
 10
106.6827839784
 20
308.6349302817
 30
0.0
 11
106.6827839784
 21
44.6349302817
 31
0.0
  0
LINE
  5
88
100
AcDbEntity
  8
2913_0 Y-SCHLITTEN
390
0
  6
DASHED
100
AcDbLine
 10
32.5647110379
 20
12.1321179014
 30
0.0
 11
532.5647110379
 21
12.1321179014
 31
0.0
  0
LINE
  5
89
100
AcDbEntity
  8
2913_0 Y-SCHLITTEN
390
0
  6
DASHED
100
AcDbLine
 10
532.5647110379
 20
362.1321179014
 30
0.0
 11
32.5647110379
 21
362.1321179014
 31
0.0
  0
LINE
  5
8A
100
AcDbEntity
  8
2913_0 Y-SCHLITTEN
390
0
  6
DASHED
100
AcDbLine
 10
32.5647110379
 20
362.1321179014
 30
0.0
 11
32.5647110379
 21
12.1321179014
 31
0.0
  0
LINE
  5
8B
100
AcDbEntity
  8
2913_0 Y-SCHLITTEN
390
0
  6
DASHED
100
AcDbLine
 10
533.9454705316
 20
5.228320433
 30
0.0
 11
533.9454705316
 21
355.228320433
 31
0.0
  0
MTEXT
  5
8C
100
AcDbEntity
  8
2913_0 Y-SCHLITTEN
390
0
  6
DASHED
100
AcDbMText
 10
499.510453283
 20
73.2559073106
 30
0.0
 40
6.0
 41
0.0
 71
         7
 72
         1
  1
\W1.135040;Arbeits-\Pbereich\Pder Fräse
  7
Arial
 73
         1
 44
0.66
  0
LINE
  5
8D
100
AcDbEntity
  8
2913_1 AUFSPANNPLATTE
390
0
100
AcDbLine
 10
424.3147110379
 20
389.1321179014
 30
0.0
 11
424.3147110379
 21
49.1321179014
 31
0.0
  0
LINE
  5
8E
100
AcDbEntity
  8
2913_1 AUFSPANNPLATTE
390
0
100
AcDbLine
 10
427.8147110379
 20
389.1321179014
 30
0.0
 11
427.8147110379
 21
49.1321179014
 31
0.0
  0
LINE
  5
8F
100
AcDbEntity
  8
2913_1 AUFSPANNPLATTE
390
0
100
AcDbLine
 10
394.3147110379
 20
389.1321179014
 30
0.0
 11
394.3147110379
 21
49.1321179014
 31
0.0
  0
LINE
  5
90
100
AcDbEntity
  8
2913_1 AUFSPANNPLATTE
390
0
100
AcDbLine
 10
397.8147110379
 20
389.1321179014
 30
0.0
 11
397.8147110379
 21
49.1321179014
 31
0.0
  0
LINE
  5
91
100
AcDbEntity
  8
2913_1 AUFSPANNPLATTE
390
0
100
AcDbLine
 10
410.8147110379
 20
389.1321179014
 30
0.0
 11
410.8147110379
 21
49.1321179014
 31
0.0
  0
LINE
  5
92
100
AcDbEntity
  8
2913_1 AUFSPANNPLATTE
390
0
100
AcDbLine
 10
407.3147110379
 20
389.1321179014
 30
0.0
 11
407.3147110379
 21
49.1321179014
 31
0.0
  0
LINE
  5
93
100
AcDbEntity
  8
2913_1 AUFSPANNPLATTE
390
0
100
AcDbLine
 10
380.8147110379
 20
389.1321179014
 30
0.0
 11
380.8147110379
 21
49.1321179014
 31
0.0
  0
LINE
  5
94
100
AcDbEntity
  8
2913_1 AUFSPANNPLATTE
390
0
100
AcDbLine
 10
377.3147110379
 20
389.1321179014
 30
0.0
 11
377.3147110379
 21
49.1321179014
 31
0.0
  0
LINE
  5
95
100
AcDbEntity
  8
2913_1 AUFSPANNPLATTE
390
0
100
AcDbLine
 10
367.8147110379
 20
389.1321179014
 30
0.0
 11
367.8147110379
 21
49.1321179014
 31
0.0
  0
LINE
  5
96
100
AcDbEntity
  8
2913_1 AUFSPANNPLATTE
390
0
100
AcDbLine
 10
364.3147110379
 20
389.1321179014
 30
0.0
 11
364.3147110379
 21
49.1321179014
 31
0.0
  0
LINE
  5
97
100
AcDbEntity
  8
2913_1 AUFSPANNPLATTE
390
0
100
AcDbLine
 10
350.8147110379
 20
389.1321179014
 30
0.0
 11
350.8147110379
 21
49.1321179014
 31
0.0
  0
LINE
  5
98
100
AcDbEntity
  8
2913_1 AUFSPANNPLATTE
390
0
100
AcDbLine
 10
347.3147110379
 20
389.1321179014
 30
0.0
 11
347.3147110379
 21
49.1321179014
 31
0.0
  0
LINE
  5
99
100
AcDbEntity
  8
2913_1 AUFSPANNPLATTE
390
0
100
AcDbLine
 10
337.8147110379
 20
389.1321179014
 30
0.0
 11
337.8147110379
 21
49.1321179014
 31
0.0
  0
LINE
  5
9A
100
AcDbEntity
  8
2913_1 AUFSPANNPLATTE
390
0
100
AcDbLine
 10
334.3147110379
 20
389.1321179014
 30
0.0
 11
334.3147110379
 21
49.1321179014
 31
0.0
  0
LINE
  5
9B
100
AcDbEntity
  8
2913_1 AUFSPANNPLATTE
390
0
100
AcDbLine
 10
320.8147110379
 20
389.1321179014
 30
0.0
 11
320.8147110379
 21
49.1321179014
 31
0.0
  0
LINE
  5
9C
100
AcDbEntity
  8
2913_1 AUFSPANNPLATTE
390
0
100
AcDbLine
 10
317.3147110379
 20
389.1321179014
 30
0.0
 11
317.3147110379
 21
49.1321179014
 31
0.0
  0
LINE
  5
9D
100
AcDbEntity
  8
2913_1 AUFSPANNPLATTE
390
0
100
AcDbLine
 10
307.8147110379
 20
389.1321179014
 30
0.0
 11
307.8147110379
 21
49.1321179014
 31
0.0
  0
LINE
  5
9E
100
AcDbEntity
  8
2913_1 AUFSPANNPLATTE
390
0
100
AcDbLine
 10
304.3147110379
 20
389.1321179014
 30
0.0
 11
304.3147110379
 21
49.1321179014
 31
0.0
  0
LINE
  5
9F
100
AcDbEntity
  8
2913_1 AUFSPANNPLATTE
390
0
100
AcDbLine
 10
290.8147110379
 20
389.1321179014
 30
0.0
 11
290.8147110379
 21
49.1321179014
 31
0.0
  0
LINE
  5
A0
100
AcDbEntity
  8
2913_1 AUFSPANNPLATTE
390
0
100
AcDbLine
 10
287.3147110379
 20
389.1321179014
 30
0.0
 11
287.3147110379
 21
49.1321179014
 31
0.0
  0
LINE
  5
A1
100
AcDbEntity
  8
2913_1 AUFSPANNPLATTE
390
0
100
AcDbLine
 10
277.8147110379
 20
389.1321179014
 30
0.0
 11
277.8147110379
 21
49.1321179014
 31
0.0
  0
LINE
  5
A2
100
AcDbEntity
  8
2913_1 AUFSPANNPLATTE
390
0
100
AcDbLine
 10
274.3147110379
 20
389.1321179014
 30
0.0
 11
274.3147110379
 21
49.1321179014
 31
0.0
  0
LINE
  5
A3
100
AcDbEntity
  8
2913_1 AUFSPANNPLATTE
390
0
100
AcDbLine
 10
260.8147110379
 20
389.1321179014
 30
0.0
 11
260.8147110379
 21
49.1321179014
 31
0.0
  0
LINE
  5
A4
100
AcDbEntity
  8
2913_1 AUFSPANNPLATTE
390
0
100
AcDbLine
 10
257.3147110379
 20
389.1321179014
 30
0.0
 11
257.3147110379
 21
49.1321179014
 31
0.0
  0
LINE
  5
A5
100
AcDbEntity
  8
2913_1 AUFSPANNPLATTE
390
0
100
AcDbLine
 10
247.8147110379
 20
389.1321179014
 30
0.0
 11
247.8147110379
 21
49.1321179014
 31
0.0
  0
LINE
  5
A6
100
AcDbEntity
  8
2913_1 AUFSPANNPLATTE
390
0
100
AcDbLine
 10
244.3147110379
 20
389.1321179014
 30
0.0
 11
244.3147110379
 21
49.1321179014
 31
0.0
  0
LINE
  5
A7
100
AcDbEntity
  8
2913_1 AUFSPANNPLATTE
390
0
100
AcDbLine
 10
230.8147110379
 20
389.1321179014
 30
0.0
 11
230.8147110379
 21
49.1321179014
 31
0.0
  0
LINE
  5
A8
100
AcDbEntity
  8
2913_1 AUFSPANNPLATTE
390
0
100
AcDbLine
 10
227.3147110379
 20
389.1321179014
 30
0.0
 11
227.3147110379
 21
49.1321179014
 31
0.0
  0
LINE
  5
A9
100
AcDbEntity
  8
2913_1 AUFSPANNPLATTE
390
0
100
AcDbLine
 10
217.8147110379
 20
389.1321179014
 30
0.0
 11
217.8147110379
 21
49.1321179014
 31
0.0
  0
LINE
  5
AA
100
AcDbEntity
  8
2913_1 AUFSPANNPLATTE
390
0
100
AcDbLine
 10
214.3147110379
 20
389.1321179014
 30
0.0
 11
214.3147110379
 21
49.1321179014
 31
0.0
  0
LINE
  5
AB
100
AcDbEntity
  8
2913_1 AUFSPANNPLATTE
390
0
100
AcDbLine
 10
200.8147110379
 20
389.1321179014
 30
0.0
 11
200.8147110379
 21
49.1321179014
 31
0.0
  0
LINE
  5
AC
100
AcDbEntity
  8
2913_1 AUFSPANNPLATTE
390
0
100
AcDbLine
 10
197.3147110379
 20
389.1321179014
 30
0.0
 11
197.3147110379
 21
49.1321179014
 31
0.0
  0
LINE
  5
AD
100
AcDbEntity
  8
2913_1 AUFSPANNPLATTE
390
0
100
AcDbLine
 10
187.8147110379
 20
389.1321179014
 30
0.0
 11
187.8147110379
 21
49.1321179014
 31
0.0
  0
LINE
  5
AE
100
AcDbEntity
  8
2913_1 AUFSPANNPLATTE
390
0
100
AcDbLine
 10
184.3147110379
 20
388.1321179014
 30
0.0
 11
184.3147110379
 21
49.1321179014
 31
0.0
  0
LINE
  5
AF
100
AcDbEntity
  8
2913_1 AUFSPANNPLATTE
390
0
100
AcDbLine
 10
170.8147110379
 20
389.1321179014
 30
0.0
 11
170.8147110379
 21
49.1321179014
 31
0.0
  0
LINE
  5
B0
100
AcDbEntity
  8
2913_1 AUFSPANNPLATTE
390
0
100
AcDbLine
 10
167.3147110379
 20
389.1321179014
 30
0.0
 11
167.3147110379
 21
49.1321179014
 31
0.0
  0
LINE
  5
B1
100
AcDbEntity
  8
2913_1 AUFSPANNPLATTE
390
0
100
AcDbLine
 10
157.8147110379
 20
389.1321179014
 30
0.0
 11
157.8147110379
 21
49.1321179014
 31
0.0
  0
LINE
  5
B2
100
AcDbEntity
  8
2913_1 AUFSPANNPLATTE
390
0
100
AcDbLine
 10
154.3147110379
 20
389.1321179014
 30
0.0
 11
154.3147110379
 21
49.1321179014
 31
0.0
  0
LINE
  5
B3
100
AcDbEntity
  8
2913_1 AUFSPANNPLATTE
390
0
100
AcDbLine
 10
140.8147110379
 20
389.1321179014
 30
0.0
 11
140.8147110379
 21
49.1321179014
 31
0.0
  0
LINE
  5
B4
100
AcDbEntity
  8
2913_1 AUFSPANNPLATTE
390
0
100
AcDbLine
 10
137.3147110379
 20
389.1321179014
 30
0.0
 11
137.3147110379
 21
49.1321179014
 31
0.0
  0
LINE
  5
B5
100
AcDbEntity
  8
2913_1 AUFSPANNPLATTE
390
0
100
AcDbLine
 10
127.8147110379
 20
389.1321179014
 30
0.0
 11
127.8147110379
 21
49.1321179014
 31
0.0
  0
LINE
  5
B6
100
AcDbEntity
  8
2913_1 AUFSPANNPLATTE
390
0
100
AcDbLine
 10
124.3147110379
 20
389.1321179014
 30
0.0
 11
124.3147110379
 21
49.1321179014
 31
0.0
  0
LINE
  5
B7
100
AcDbEntity
  8
2913_1 AUFSPANNPLATTE
390
0
100
AcDbLine
 10
440.8147110379
 20
389.1321179014
 30
0.0
 11
440.8147110379
 21
49.1321179014
 31
0.0
  0
LINE
  5
B8
100
AcDbEntity
  8
2913_1 AUFSPANNPLATTE
390
0
100
AcDbLine
 10
437.3147110379
 20
389.1321179014
 30
0.0
 11
437.3147110379
 21
49.1321179014
 31
0.0
  0
LINE
  5
B9
100
AcDbEntity
  8
2913_0 Y-SCHLITTEN
390
0
  6
DASHED
100
AcDbLine
 10
32.5647110379
 20
42.1321179014
 30
0.0
 11
532.5647110379
 21
42.1321179014
 31
0.0
  0
LINE
  5
BA
100
AcDbEntity
  8
2913_0 Y-SCHLITTEN
390
0
  6
DASHED
100
AcDbLine
 10
532.5647110379
 20
332.1321179014
 30
0.0
 11
32.5647110379
 21
332.1321179014
 31
0.0
  0
LINE
  5
BB
100
AcDbEntity
  8
2913_0 Y-SCHLITTEN
390
0
  6
DASHED
100
AcDbLine
 10
32.5647110379
 20
119.1321179014
 30
0.0
 11
532.5647110379
 21
119.1321179014
 31
0.0
  0
LINE
  5
BC
100
AcDbEntity
  8
2913_0 Y-SCHLITTEN
390
0
  6
DASHED
100
AcDbLine
 10
532.5647110379
 20
255.1321179014
 30
0.0
 11
32.5647110379
 21
255.1321179014
 31
0.0
  0
LINE
  5
BD
100
AcDbEntity
  8
2913_0 Y-SCHLITTEN
390
0
  6
DASHED
100
AcDbLine
 10
532.5647110379
 20
213.1321179014
 30
0.0
 11
32.5647110379
 21
213.1321179014
 31
0.0
  0
LINE
  5
BE
100
AcDbEntity
  8
2913_0 Y-SCHLITTEN
390
0
  6
DASHED
100
AcDbLine
 10
32.5647110379
 20
161.1321179014
 30
0.0
 11
532.5647110379
 21
161.1321179014
 31
0.0
  0
LINE
  5
BF
100
AcDbEntity
  8
2913_1 AUFSPANNPLATTE
390
0
100
AcDbLine
 10
90.0647110379
 20
384.1321179014
 30
0.0
 11
105.0647110379
 21
384.1321179014
 31
0.0
  0
CIRCLE
  5
C0
100
AcDbEntity
  8
2913_1 AUFSPANNPLATTE
390
0
100
AcDbCircle
 10
112.0897110379
 20
161.1321179014
 30
0.0
 40
4.0
  0
CIRCLE
  5
C1
100
AcDbEntity
  8
2913_1 AUFSPANNPLATTE
390
0
100
AcDbCircle
 10
112.0897110379
 20
297.1321179014
 30
0.0
 40
4.0
  0
CIRCLE
  5
C2
100
AcDbEntity
  8
2913_1 AUFSPANNPLATTE
390
0
100
AcDbCircle
 10
457.0647110379
 20
297.1321179014
 30
0.0
 40
4.0
  0
CIRCLE
  5
C3
100
AcDbEntity
  8
2913_1 AUFSPANNPLATTE
390
0
100
AcDbCircle
 10
457.0647110379
 20
161.1321179014
 30
0.0
 40
4.0
  0
CIRCLE
  5
C4
100
AcDbEntity
  8
2913_1 AUFSPANNPLATTE
390
0
100
AcDbCircle
 10
112.0897110379
 20
297.1321179014
 30
0.0
 40
9.0
  0
CIRCLE
  5
C5
100
AcDbEntity
  8
2913_1 AUFSPANNPLATTE
390
0
100
AcDbCircle
 10
112.0897110379
 20
161.1321179014
 30
0.0
 40
9.0
  0
CIRCLE
  5
C6
100
AcDbEntity
  8
2913_1 AUFSPANNPLATTE
390
0
100
AcDbCircle
 10
457.0647110379
 20
297.1321179014
 30
0.0
 40
9.0
  0
CIRCLE
  5
C7
100
AcDbEntity
  8
2913_1 AUFSPANNPLATTE
390
0
100
AcDbCircle
 10
457.0647110379
 20
161.1321179014
 30
0.0
 40
9.0
  0
LINE
  5
C8
100
AcDbEntity
  8
2913_1 AUFSPANNPLATTE
390
0
100
AcDbLine
 10
105.0647110379
 20
384.1321179014
 30
0.0
 11
105.0647110379
 21
326.6321179014
 31
0.0
  0
CIRCLE
  5
C9
100
AcDbEntity
  8
2913__ FRÄSE - AUFSPANNPLATTE
390
0
100
AcDbCircle
 10
275.0647110379
 20
64.5573313338
 30
0.0
 40
0.5
  0
CIRCLE
  5
CA
100
AcDbEntity
  8
2913__ FRÄSE - AUFSPANNPLATTE
390
0
100
AcDbCircle
 10
275.0647110379
 20
64.5573313338
 30
0.0
 40
1.0
  0
LINE
  5
CB
100
AcDbEntity
  8
2913_1 AUFSPANNPLATTE
390
0
100
AcDbLine
 10
458.0647110379
 20
371.1321179014
 30
0.0
 11
108.0647110379
 21
371.1321179014
 31
0.0
  0
LINE
  5
CC
100
AcDbEntity
  8
2913_1 AUFSPANNPLATTE
390
0
100
AcDbLine
 10
458.0647110379
 20
373.1321179014
 30
0.0
 11
108.0647110379
 21
373.1321179014
 31
0.0
  0
LINE
  5
CD
100
AcDbEntity
  8
2913_1 AUFSPANNPLATTE
390
0
100
AcDbLine
 10
458.0647110379
 20
386.1321179014
 30
0.0
 11
108.0647110379
 21
386.1321179014
 31
0.0
  0
LINE
  5
CE
100
AcDbEntity
  8
2913_1 AUFSPANNPLATTE
390
0
100
AcDbLine
 10
108.0647110379
 20
371.1321179014
 30
0.0
 11
108.0647110379
 21
386.1321179014
 31
0.0
  0
LINE
  5
CF
100
AcDbEntity
  8
2913_1 AUFSPANNPLATTE
390
0
100
AcDbLine
 10
458.0647110379
 20
371.1321179014
 30
0.0
 11
458.0647110379
 21
386.1321179014
 31
0.0
  0
ARC
  5
D0
100
AcDbEntity
  8
2913_1 AUFSPANNPLATTE
390
0
100
AcDbCircle
 10
105.0647110379
 20
319.1321179014
 30
0.0
 40
7.5
100
AcDbArc
 50
90.0
 51
270.0
  0
LINE
  5
D1
100
AcDbEntity
  8
2913_1 AUFSPANNPLATTE
390
0
100
AcDbLine
 10
105.0647110379
 20
311.6321179014
 30
0.0
 11
105.0647110379
 21
74.1321179014
 31
0.0
  0
TEXT
  5
D2
100
AcDbEntity
  8
BESCHRIFTUNG
390
0
100
AcDbText
 10
338.2290666667
 20
27.8461777778
 30
0.0
 40
6.6
  1
2025-07-22
 41
1.1302026039
  7
Arial
 11
338.2290666667
 21
34.4461777778
 31
0.0
100
AcDbText
 73
         3
  0
TEXT
  5
D3
100
AcDbEntity
  8
BESCHRIFTUNG
390
0
100
AcDbText
 10
458.0570119658
 20
14.5202222222
 30
0.0
 40
6.6
  1
2919 S.4Ph Abrichten vo
 41
0.9828097416
  7
Arial
 11
458.0570119658
 21
21.1202222222
 31
0.0
100
AcDbText
 73
         3
  0
CIRCLE
  5
D4
100
AcDbEntity
  8
2913_1 AUFSPANNPLATTE
390
0
  6
DASHED
100
AcDbCircle
 10
119.0897110379
 20
229.1321179014
 30
0.0
 40
3.0
  0
CIRCLE
  5
D5
100
AcDbEntity
  8
2919_4S
390
0
  6
PHANTOM
100
AcDbCircle
 10
115.0647110379
 20
201.1321179014
 30
0.0
 40
0.5
  0
CIRCLE
  5
D6
100
AcDbEntity
  8
2919_4S
390
0
  6
PHANTOM
100
AcDbCircle
 10
115.0647110379
 20
182.1321179014
 30
0.0
 40
1.0
  0
MTEXT
  5
D7
100
AcDbEntity
  8
2919_4S
390
0
100
AcDbMText
 10
116.2428263464
 20
202.2574313546
 30
0.0
 40
5.0
 41
0.0
 71
         5
 72
         1
  1
\W1.135073;MSp30 T1 O6\PI5        F1000\PB0 S5
  7
Arial
 73
         1
 44
0.66
  0
INSERT
  5
D8
100
AcDbEntity
  8
BEMASSUNG
390
0
100
AcDbBlockReference
  2
D498568704
 10
0.0
 20
0.0
 30
0.0
  0
LINE
  5
D9
100
AcDbEntity
  8
2919_4S
390
0
100
AcDbLine
 10
442.063543472
 20
139.1321179014
 30
0.0
 11
442.063543472
 21
51.1321179014
 31
0.0
  0
LINE
  5
DA
100
AcDbEntity
  8
2919_4S
390
0
100
AcDbLine
 10
108.0654705363
 20
133.6321179014
 30
0.0
 11
441.0634452151
 21
133.6321179014
 31
0.0
  0
LINE
  5
DB
100
AcDbEntity
  8
2919_4S
390
0
100
AcDbLine
 10
107.0636035502
 20
139.1321179014
 30
0.0
 11
441.0634452151
 21
139.1321179014
 31
0.0
  0
LINE
  5
DC
100
AcDbEntity
  8
2919_4S
390
0
100
AcDbLine
 10
107.0636035502
 20
139.1321179014
 30
0.0
 11
107.0628892021
 21
51.1321179014
 31
0.0
  0
ARC
  5
DD
100
AcDbEntity
  8
2919_4S
390
0
100
AcDbCircle
 10
111.3462427039
 20
130.8821179014
 30
0.0
 40
4.2808837891
100
AcDbArc
 50
140.0296789894
 51
219.9703210106
  0
LINE
  5
DE
100
AcDbEntity
  8
2919_4S
390
0
100
AcDbLine
 10
107.0628892021
 20
51.1321179014
 30
0.0
 11
442.063543472
 21
51.1321179014
 31
0.0
  0
ARC
  5
DF
100
AcDbEntity
  8
2919_4S
390
0
100
AcDbCircle
 10
437.7826730475
 20
136.3821179014
 30
0.0
 40
4.2808837891
100
AcDbArc
 50
320.0296789894
 51
399.9703210106
  0
ARC
  5
E0
100
AcDbEntity
  8
2919_4S
390
0
100
AcDbCircle
 10
111.3462427039
 20
119.8821179014
 30
0.0
 40
4.2808837891
100
AcDbArc
 50
140.0296789894
 51
219.9703210106
  0
LINE
  5
E1
100
AcDbEntity
  8
2919_4S
390
0
100
AcDbLine
 10
108.0654705363
 20
122.6321179014
 30
0.0
 11
441.0634452151
 21
122.6321179014
 31
0.0
  0
LINE
  5
E2
100
AcDbEntity
  8
2919_4S
390
0
100
AcDbLine
 10
108.0654705363
 20
128.1321179014
 30
0.0
 11
441.0634452151
 21
128.1321179014
 31
0.0
  0
ARC
  5
E3
100
AcDbEntity
  8
2919_4S
390
0
100
AcDbCircle
 10
437.7826730475
 20
125.3821179014
 30
0.0
 40
4.2808837891
100
AcDbArc
 50
320.0296789894
 51
399.9703210106
  0
LINE
  5
E4
100
AcDbEntity
  8
2919_4S
390
0
100
AcDbLine
 10
108.0654705363
 20
106.1321179014
 30
0.0
 11
441.0634452151
 21
106.1321179014
 31
0.0
  0
LINE
  5
E5
100
AcDbEntity
  8
2919_4S
390
0
100
AcDbLine
 10
108.0654705363
 20
100.6321179014
 30
0.0
 11
441.0634452151
 21
100.6321179014
 31
0.0
  0
ARC
  5
E6
100
AcDbEntity
  8
2919_4S
390
0
100
AcDbCircle
 10
111.3462427039
 20
108.8821179014
 30
0.0
 40
4.2808837891
100
AcDbArc
 50
140.0296789894
 51
219.9703210106
  0
LINE
  5
E7
100
AcDbEntity
  8
2919_4S
390
0
100
AcDbLine
 10
108.0654705363
 20
111.6321179014
 30
0.0
 11
441.0634452151
 21
111.6321179014
 31
0.0
  0
LINE
  5
E8
100
AcDbEntity
  8
2919_4S
390
0
100
AcDbLine
 10
108.0654705363
 20
117.1321179014
 30
0.0
 11
441.0634452151
 21
117.1321179014
 31
0.0
  0
ARC
  5
E9
100
AcDbEntity
  8
2919_4S
390
0
100
AcDbCircle
 10
437.7826730475
 20
103.3821179014
 30
0.0
 40
4.2808837891
100
AcDbArc
 50
320.0296789894
 51
399.9703210106
  0
ARC
  5
EA
100
AcDbEntity
  8
2919_4S
390
0
100
AcDbCircle
 10
437.7826730475
 20
114.3821179014
 30
0.0
 40
4.2808837891
100
AcDbArc
 50
320.0296789894
 51
399.9703210106
  0
ARC
  5
EB
100
AcDbEntity
  8
2919_4S
390
0
100
AcDbCircle
 10
111.3462427039
 20
97.8821179014
 30
0.0
 40
4.2808837891
100
AcDbArc
 50
140.0296789894
 51
219.9703210106
  0
LINE
  5
EC
100
AcDbEntity
  8
2919_4S
390
0
100
AcDbLine
 10
108.0654705363
 20
84.1321179014
 30
0.0
 11
441.0634452151
 21
84.1321179014
 31
0.0
  0
LINE
  5
ED
100
AcDbEntity
  8
2919_4S
390
0
100
AcDbLine
 10
108.0654705363
 20
78.6321179014
 30
0.0
 11
441.0634452151
 21
78.6321179014
 31
0.0
  0
ARC
  5
EE
100
AcDbEntity
  8
2919_4S
390
0
100
AcDbCircle
 10
111.3462427039
 20
86.8821179014
 30
0.0
 40
4.2808837891
100
AcDbArc
 50
140.0296789894
 51
219.9703210106
  0
LINE
  5
EF
100
AcDbEntity
  8
2919_4S
390
0
100
AcDbLine
 10
108.0654705363
 20
89.6321179014
 30
0.0
 11
441.0634452151
 21
89.6321179014
 31
0.0
  0
LINE
  5
F0
100
AcDbEntity
  8
2919_4S
390
0
100
AcDbLine
 10
108.0654705363
 20
95.1321179014
 30
0.0
 11
441.0634452151
 21
95.1321179014
 31
0.0
  0
ARC
  5
F1
100
AcDbEntity
  8
2919_4S
390
0
100
AcDbCircle
 10
437.7826730475
 20
81.3821179014
 30
0.0
 40
4.2808837891
100
AcDbArc
 50
320.0296789894
 51
399.9703210106
  0
ARC
  5
F2
100
AcDbEntity
  8
2919_4S
390
0
100
AcDbCircle
 10
437.7826730475
 20
92.3821179014
 30
0.0
 40
4.2808837891
100
AcDbArc
 50
320.0296789894
 51
399.9703210106
  0
ARC
  5
F3
100
AcDbEntity
  8
2919_4S
390
0
100
AcDbCircle
 10
111.3462427039
 20
75.8821179014
 30
0.0
 40
4.2808837891
100
AcDbArc
 50
140.0296789894
 51
219.9703210106
  0
LINE
  5
F4
100
AcDbEntity
  8
2919_4S
390
0
100
AcDbLine
 10
108.0654705363
 20
62.1321179014
 30
0.0
 11
441.0634452151
 21
62.1321179014
 31
0.0
  0
LINE
  5
F5
100
AcDbEntity
  8
2919_4S
390
0
100
AcDbLine
 10
108.0654705363
 20
56.6321179014
 30
0.0
 11
441.0634452151
 21
56.6321179014
 31
0.0
  0
ARC
  5
F6
100
AcDbEntity
  8
2919_4S
390
0
100
AcDbCircle
 10
111.3462427039
 20
64.8821179014
 30
0.0
 40
4.2808837891
100
AcDbArc
 50
140.0296789894
 51
219.9703210106
  0
LINE
  5
F7
100
AcDbEntity
  8
2919_4S
390
0
100
AcDbLine
 10
108.0654705363
 20
67.6321179014
 30
0.0
 11
441.0634452151
 21
67.6321179014
 31
0.0
  0
LINE
  5
F8
100
AcDbEntity
  8
2919_4S
390
0
100
AcDbLine
 10
108.0654705363
 20
73.1321179014
 30
0.0
 11
441.0634452151
 21
73.1321179014
 31
0.0
  0
ARC
  5
F9
100
AcDbEntity
  8
2919_4S
390
0
100
AcDbCircle
 10
437.7826730475
 20
59.3821179014
 30
0.0
 40
4.2808837891
100
AcDbArc
 50
320.0296789894
 51
399.9703210106
  0
ARC
  5
FA
100
AcDbEntity
  8
2919_4S
390
0
100
AcDbCircle
 10
437.7826730475
 20
70.3821179014
 30
0.0
 40
4.2808837891
100
AcDbArc
 50
320.0296789894
 51
399.9703210106
  0
LINE
  5
FB
100
AcDbEntity
  8
2919_4S
390
0
  6
HIDDEN
100
AcDbLine
 10
115.0647110379
 20
201.1321179014
 30
0.0
 11
442.063543472
 21
139.1321179014
 31
0.0
  0
ARC
  5
FC
100
AcDbEntity
  8
2919_4S
390
0
  6
HIDDEN
100
AcDbCircle
 10
-24.180105154
 20
126.9527415932
 30
0.0
 40
149.7794458732
100
AcDbArc
 50
331.9985125818
 51
381.6172335248
  0
INSERT
  5
FD
100
AcDbEntity
  8
2919_4S
390
0
100
AcDbBlockReference
  2
_A200045376
 10
443.7195129395
 20
71.5214004517
 30
0.0
  0
LINE
  5
FE
100
AcDbEntity
  8
STANDARD
390
0
100
AcDbLine
 10
584.0
 20
400.0
 30
0.0
 11
10.0
 21
400.0
 31
0.0
  0
LINE
  5
FF
100
AcDbEntity
  8
STANDARD
390
0
100
AcDbLine
 10
20.0
 20
390.0
 30
0.0
 11
20.0
 21
10.0
 31
0.0
  0
LINE
  5
100
100
AcDbEntity
  8
STANDARD
390
0
100
AcDbLine
 10
10.0
 20
400.0
 30
0.0
 11
10.0
 21
390.0
 31
0.0
  0
LINE
  5
101
100
AcDbEntity
  8
STANDARD
390
0
100
AcDbLine
 10
584.0
 20
400.0
 30
0.0
 11
584.0
 21
390.0
 31
0.0
  0
LINE
  5
102
100
AcDbEntity
  8
STANDARD
390
0
100
AcDbLine
 10
105.6666666667
 20
400.0
 30
0.0
 11
105.6666666667
 21
390.0
 31
0.0
  0
LINE
  5
103
100
AcDbEntity
  8
STANDARD
390
0
100
AcDbLine
 10
201.3333333333
 20
400.0
 30
0.0
 11
201.3333333333
 21
390.0
 31
0.0
  0
LINE
  5
104
100
AcDbEntity
  8
STANDARD
390
0
100
AcDbLine
 10
297.0
 20
400.0
 30
0.0
 11
297.0
 21
390.0
 31
0.0
  0
LINE
  5
105
100
AcDbEntity
  8
STANDARD
390
0
100
AcDbLine
 10
392.6666666667
 20
400.0
 30
0.0
 11
392.6666666667
 21
390.0
 31
0.0
  0
LINE
  5
106
100
AcDbEntity
  8
STANDARD
390
0
100
AcDbLine
 10
488.3333333333
 20
400.0
 30
0.0
 11
488.3333333333
 21
390.0
 31
0.0
  0
LINE
  5
107
100
AcDbEntity
  8
STANDARD
390
0
100
AcDbLine
 10
10.0
 20
105.0
 30
0.0
 11
20.0
 21
105.0
 31
0.0
  0
LINE
  5
108
100
AcDbEntity
  8
STANDARD
390
0
100
AcDbLine
 10
10.0
 20
200.0
 30
0.0
 11
20.0
 21
200.0
 31
0.0
  0
LINE
  5
109
100
AcDbEntity
  8
STANDARD
390
0
100
AcDbLine
 10
10.0
 20
295.0
 30
0.0
 11
20.0
 21
295.0
 31
0.0
  0
TEXT
  5
10A
100
AcDbEntity
  8
STANDARD
390
0
100
AcDbText
 10
55.2429816231
 20
392.9464078125
 30
0.0
 40
4.4625
  1
1
 41
1.5479225906
  7
Arial
 72
         1
 11
57.8333333333
 21
392.9464078125
 31
0.0
100
AcDbText
  0
TEXT
  5
10B
100
AcDbEntity
  8
STANDARD
390
0
100
AcDbText
 10
150.0461999423
 20
392.9464078125
 30
0.0
 40
4.4625
  1
2
 41
1.5479215945
  7
Arial
 72
         1
 11
153.5
 21
392.9464078125
 31
0.0
100
AcDbText
  0
TEXT
  5
10C
100
AcDbEntity
  8
STANDARD
390
0
100
AcDbText
 10
245.7128639418
 20
392.9464078125
 30
0.0
 40
4.4625
  1
3
 41
1.5479227899
  7
Arial
 72
         1
 11
249.1666666667
 21
392.9464078125
 31
0.0
100
AcDbText
  0
TEXT
  5
10D
100
AcDbEntity
  8
STANDARD
390
0
100
AcDbText
 10
341.379531053
 20
392.9464078125
 30
0.0
 40
4.4625
  1
4
 41
1.5479225906
  7
Arial
 72
         1
 11
344.8333333333
 21
392.9464078125
 31
0.0
100
AcDbText
  0
TEXT
  5
10E
100
AcDbEntity
  8
STANDARD
390
0
100
AcDbText
 10
437.0461994978
 20
392.9464078125
 30
0.0
 40
4.4625
  1
5
 41
1.5479217937
  7
Arial
 72
         1
 11
440.5
 21
392.9464078125
 31
0.0
100
AcDbText
  0
TEXT
  5
10F
100
AcDbEntity
  8
STANDARD
390
0
100
AcDbText
 10
532.7128643863
 20
392.9464078125
 30
0.0
 40
4.4625
  1
6
 41
1.5479225906
  7
Arial
 72
         1
 11
536.1666666667
 21
392.9464078125
 31
0.0
100
AcDbText
  0
TEXT
  5
110
100
AcDbEntity
  8
STANDARD
390
0
100
AcDbText
 10
11.5460543699
 20
345.4464078125
 30
0.0
 40
4.4625
  1
A
 41
1.547986837
  7
Arial
 72
         1
 11
15.0
 21
345.4464078125
 31
0.0
100
AcDbText
  0
TEXT
  5
111
100
AcDbEntity
  8
STANDARD
390
0
100
AcDbText
 10
11.5460534803
 20
250.4464078125
 30
0.0
 40
4.4625
  1
B
 41
1.5479872357
  7
Arial
 72
         1
 11
15.0
 21
250.4464078125
 31
0.0
100
AcDbText
  0
TEXT
  5
112
100
AcDbEntity
  8
STANDARD
390
0
100
AcDbText
 10
11.5457945504
 20
155.4464078125
 30
0.0
 40
4.4625
  1
C
 41
1.5481032827
  7
Arial
 72
         1
 11
15.0
 21
155.4464078125
 31
0.0
100
AcDbText
  0
TEXT
  5
113
100
AcDbEntity
  8
STANDARD
390
0
100
AcDbText
 10
11.5457928385
 20
60.4464078125
 30
0.0
 40
4.4625
  1
D
 41
1.54810405
  7
Arial
 72
         1
 11
15.0
 21
60.4464078125
 31
0.0
100
AcDbText
  0
LINE
  5
114
100
AcDbEntity
  8
STANDARD
390
0
100
AcDbLine
 10
10.0
 20
10.0
 30
0.0
 11
20.0
 21
10.0
 31
0.0
  0
LINE
  5
115
100
AcDbEntity
  8
STANDARD
390
0
100
AcDbLine
 10
584.0
 20
10.0
 30
0.0
 11
584.0
 21
390.0
 31
0.0
  0
LINE
  5
116
100
AcDbEntity
  8
STANDARD
390
0
100
AcDbLine
 10
584.0
 20
390.0
 30
0.0
 11
20.0
 21
390.0
 31
0.0
  0
LINE
  5
117
100
AcDbEntity
  8
STANDARD
390
0
100
AcDbLine
 10
10.0
 20
390.0
 30
0.0
 11
10.0
 21
10.0
 31
0.0
  0
LINE
  5
118
100
AcDbEntity
  8
STANDARD
390
0
100
AcDbLine
 10
592.0
 20
418.0
 30
0.0
 11
2.0
 21
418.0
 31
0.0
  0
LINE
  5
119
100
AcDbEntity
  8
STANDARD
390
0
100
AcDbLine
 10
592.0
 20
2.0
 30
0.0
 11
592.0
 21
418.0
 31
0.0
  0
LINE
  5
11A
100
AcDbEntity
  8
STANDARD
390
0
100
AcDbLine
 10
2.0
 20
2.0
 30
0.0
 11
592.0
 21
2.0
 31
0.0
  0
LINE
  5
11B
100
AcDbEntity
  8
STANDARD
390
0
100
AcDbLine
 10
2.0
 20
418.0
 30
0.0
 11
2.0
 21
2.0
 31
0.0
  0
LINE
  5
11C
100
AcDbEntity
  8
STANDARD
390
0
100
AcDbLine
 10
20.0
 20
390.0
 30
0.0
 11
10.0
 21
390.0
 31
0.0
  0
LINE
  5
11D
100
AcDbEntity
  8
STANDARD
390
0
100
AcDbLine
 10
20.0
 20
10.0
 30
0.0
 11
584.0
 21
10.0
 31
0.0
  0
MTEXT
  5
11E
100
AcDbEntity
  8
STANDARD
390
0
100
AcDbMText
 10
431.1554454678
 20
-0.958861686
 30
0.0
 40
3.1875
 41
0.0
 71
         7
 72
         1
  1

  7
Arial
 73
         1
 44
1.0352941176
  0
MTEXT
  5
11F
100
AcDbEntity
  8
STANDARD
390
0
100
AcDbMText
 10
538.8257713869
 20
-0.9668515625
 30
0.0
 40
3.1875
 41
0.0
 71
         7
 72
         1
  1

  7
Arial
 73
         1
 44
1.0352941176
  0
MTEXT
  5
120
100
AcDbEntity
  8
STANDARD
390
0
100
AcDbMText
 10
342.4878103004
 20
-0.958861686
 30
0.0
 40
3.1875
 41
0.0
 71
         7
 72
         1
  1

  7
Arial
 73
         1
 44
1.0352941176
  0
LINE
  5
121
100
AcDbEntity
  8
STANDARD
370
         0
390
0
100
AcDbLine
 10
243.6388603989
 20
38.0
 30
0.0
 11
584.0
 21
38.0
 31
0.0
  0
LINE
  5
122
100
AcDbEntity
  8
STANDARD
370
         0
390
0
100
AcDbLine
 10
243.6388603989
 20
24.0
 30
0.0
 11
584.0
 21
24.0
 31
0.0
  0
LINE
  5
123
100
AcDbEntity
  8
STANDARD
370
         0
390
0
100
AcDbLine
 10
243.6388603989
 20
38.0
 30
0.0
 11
243.6388603989
 21
10.0
 31
0.0
  0
LINE
  5
124
100
AcDbEntity
  8
STANDARD
370
         0
390
0
100
AcDbLine
 10
336.0388603989
 20
38.0
 30
0.0
 11
336.0388603989
 21
10.0
 31
0.0
  0
LINE
  5
125
100
AcDbEntity
  8
STANDARD
370
         0
390
0
100
AcDbLine
 10
411.6388603989
 20
38.0
 30
0.0
 11
411.6388603989
 21
24.0
 31
0.0
  0
TEXT
  5
126
100
AcDbEntity
  8
BESCHRIFTUNG
390
0
100
AcDbText
 10
245.8290666667
 20
27.4272
 30
0.0
 40
6.65
  1
Stellwerk HMM
 41
1.3653781858
 51
15.0
  7
Arial
 11
245.8290666667
 21
34.0772
 31
0.0
100
AcDbText
 73
         3
  0
TEXT
  5
127
100
AcDbEntity
  8
BESCHRIFTUNG
390
0
100
AcDbText
 10
338.6689777778
 20
14.4702222222
 30
0.0
 40
6.65
  1
Aufspannplatte abrichten vo
 41
0.9752741945
 51
15.0
  7
Arial
 11
338.6689777778
 21
21.1202222222
 31
0.0
100
AcDbText
 73
         3
  0
TEXT
  5
128
100
AcDbEntity
  8
BESCHRIFTUNG
390
0
100
AcDbText
 10
246.2689777778
 20
14.4702222222
 30
0.0
 40
6.65
  1
Bl. 2919 S.4Ph
 41
1.1349379845
 51
15.0
  7
Arial
 11
246.2689777778
 21
21.1202222222
 31
0.0
100
AcDbText
 73
         3
  0
TEXT
  5
129
100
AcDbEntity
  8
BESCHRIFTUNG
390
0
100
AcDbText
 10
413.8290666667
 20
27.4272
 30
0.0
 40
6.65
  1
1:2
 41
1.1348650881
 51
15.0
  7
Arial
 11
413.8290666667
 21
34.0772
 31
0.0
100
AcDbText
 73
         3
  0
LINE
  5
12A
100
AcDbEntity
  8
STANDARD
370
         0
390
0
100
AcDbLine
 10
455.4268945869
 20
38.0
 30
0.0
 11
455.4268945869
 21
10.0
 31
0.0
  0
TEXT
  5
12B
100
AcDbEntity
  8
BESCHRIFTUNG
390
0
100
AcDbText
 10
457.6171008547
 20
27.4272
 30
0.0
 40
6.65
  1
Dateiname
 41
1.3653433919
 51
15.0
  7
Arial
 11
457.6171008547
 21
34.0772
 31
0.0
100
AcDbText
 73
         3
  0
ENDSEC
  0
SECTION
  2
OBJECTS
  0
DICTIONARY
  5
19
100
AcDbDictionary
280
         0
281
         1
  3
ACAD_GROUP
350
1A
  3
ACAD_MLINESTYLE
350
1B
  3
ACAD_LAYOUT
350
1E
  3
ACAD_PLOTSETTINGS
350
22
  3
ACAD_PLOTSTYLENAME
350
1F
  3
ACAD_WIPEOUT_VARS
350
23
  0
DICTIONARY
  5
1A
102
{ACAD_REACTORS
330
19
102
}
100
AcDbDictionary
280
         0
281
         1
  0
DICTIONARY
  5
1B
102
{ACAD_REACTORS
330
19
102
}
100
AcDbDictionary
280
         0
281
         1
  3
Standard
350
1C
  0
MLINESTYLE
  5
1C
102
{ACAD_REACTORS
330
1B
102
}
100
AcDbMlineStyle
  2
Standard
 70
         0
  3

 62
         0
 51
90.0
 52
90.0
 71
         2
 49
0.5
 62
       256
  6
ByLayer
 49
-0.5
 62
       256
  6
ByLayer
  0
ACDBDICTIONARYWDFLT
  5
1F
102
{ACAD_REACTORS
330
19
102
}
100
AcDbDictionary
281
         1
  3
Normal
350
1D
100
AcDbDictionaryWithDefault
340
1D
  0
ACDBPLACEHOLDER
  5
1D
102
{ACAD_REACTORS
330
1F
102
}
  0
LAYOUT
  5
20
102
{ACAD_REACTORS
330
1E
102
}
100
AcDbPlotSettings
  1

  2

  4

  6

 40
0.0
 41
0.0
 42
0.0
 43
0.0
 44
0.0
 45
0.0
 46
0.0
 47
0.0
 48
0.0
 49
0.0
140
0.0
141
0.0
142
1.0
143
1.0
 70
      1024
 72
         0
 73
         0
 74
         0
  7

 75
         0
147
1.0
148
0.0
149
0.0
100
AcDbLayout
  1
Model
 70
         0
 71
         0
 10
0.0
 20
0.0
 11
0.0
 21
0.0
 12
0.0
 22
0.0
 32
0.0
 14
0.0
 24
0.0
 34
0.0
 15
0.0
 25
0.0
 35
0.0
146
0.0
 13
0.0
 23
0.0
 33
0.0
 16
0.0
 26
0.0
 36
0.0
 17
0.0
 27
0.0
 37
0.0
 76
         0
330
A
331
0
345
0
346
0
  0
LAYOUT
  5
21
102
{ACAD_REACTORS
330
1E
102
}
100
AcDbPlotSettings
  1

  2

  4

  6

 40
0.0
 41
0.0
 42
0.0
 43
0.0
 44
0.0
 45
0.0
 46
0.0
 47
0.0
 48
0.0
 49
0.0
140
0.0
141
0.0
142
1.0
143
1.0
 70
         0
 72
         0
 73
         0
 74
         0
  7

 75
         0
147
1.0
148
0.0
149
0.0
100
AcDbLayout
  1
Layout1
 70
         0
 71
         0
 10
0.0
 20
0.0
 11
0.0
 21
0.0
 12
0.0
 22
0.0
 32
0.0
 14
0.0
 24
0.0
 34
0.0
 15
0.0
 25
0.0
 35
0.0
146
0.0
 13
0.0
 23
0.0
 33
0.0
 16
0.0
 26
0.0
 36
0.0
 17
0.0
 27
0.0
 37
0.0
 76
         0
330
B
331
0
345
0
346
0
  0
DICTIONARY
  5
1E
102
{ACAD_REACTORS
330
19
102
}
100
AcDbDictionary
280
         0
281
         1
  3
Layout1
350
21
  3
Model
350
20
  0
DICTIONARY
  5
22
102
{ACAD_REACTORS
330
19
102
}
100
AcDbDictionary
280
         0
281
         1
  0
WIPEOUTVARIABLES
  5
23
100
AcDbWipeoutVariables
 70
         1
  0
ENDSEC
  0
EOF
