  0
SECTION
  2
HEADER
  9
$ACADVER
  1
AC1015
  9
$ACADMAINTVER
 70
         6
  9
$DWGCODEPAGE
  3
ANSI_1252
  9
$INSBASE
 10
0.0
 20
0.0
 30
0.0
  9
$EXTMIN
 10
-172.9068908691
 20
0.0
 30
0.0
  9
$EXTMAX
 10
210.0
 20
297.0
 30
0.0
  9
$LIMMIN
 10
-172.9068908691
 20
0.0
  9
$LIMMAX
 10
210.0
 20
297.0
  9
$ORTHOMODE
 70
         0
  9
$REGENMODE
 70
         1
  9
$FILLMODE
 70
         1
  9
$QTEXTMODE
 70
         0
  9
$MIRRTEXT
 70
         1
  9
$LTSCALE
 40
9.5726722717
  9
$ATTMODE
 70
         1
  9
$TEXTSIZE
 40
0.2
  9
$TRACEWID
 40
0.05
  9
$TEXTSTYLE
  7
Standard
  9
$CLAYER
  8
0
  9
$CELTYPE
  6
CONTINUOUS
  9
$CECOLOR
 62
       256
  9
$CELTSCALE
 40
1.0
  9
$DISPSILH
 70
         0
  9
$DIMSCALE
 40
1.0
  9
$DIMASZ
 40
0.18
  9
$DIMEXO
 40
0.0625
  9
$DIMDLI
 40
0.38
  9
$DIMRND
 40
0.0
  9
$DIMDLE
 40
0.0
  9
$DIMEXE
 40
0.18
  9
$DIMTP
 40
0.0
  9
$DIMTM
 40
0.0
  9
$DIMTXT
 40
3.0
  9
$DIMCEN
 40
0.09
  9
$DIMTSZ
 40
0.0
  9
$DIMTOL
 70
         0
  9
$DIMLIM
 70
         0
  9
$DIMTIH
 70
         1
  9
$DIMTOH
 70
         1
  9
$DIMSE1
 70
         0
  9
$DIMSE2
 70
         0
  9
$DIMTAD
 70
         1
  9
$DIMZIN
 70
         0
  9
$DIMBLK
  1

  9
$DIMASO
 70
         1
  9
$DIMSHO
 70
         1
  9
$DIMPOST
  1
<>
  9
$DIMAPOST
  1

  9
$DIMALT
 70
         0
  9
$DIMALTD
 70
         2
  9
$DIMALTF
 40
25.4
  9
$DIMLFAC
 40
1.0
  9
$DIMTOFL
 70
         0
  9
$DIMTVP
 40
0.0
  9
$DIMTIX
 70
         0
  9
$DIMSOXD
 70
         0
  9
$DIMSAH
 70
         0
  9
$DIMBLK1
  1

  9
$DIMBLK2
  1

  9
$DIMSTYLE
  2
Standard
  9
$DIMCLRD
 70
         0
  9
$DIMCLRE
 70
         0
  9
$DIMCLRT
 70
         0
  9
$DIMTFAC
 40
1.0
  9
$DIMGAP
 40
0.09
  9
$DIMJUST
 70
         0
  9
$DIMSD1
 70
         0
  9
$DIMSD2
 70
         0
  9
$DIMTOLJ
 70
         1
  9
$DIMTZIN
 70
         0
  9
$DIMALTZ
 70
         0
  9
$DIMALTTZ
 70
         0
  9
$DIMUPT
 70
         0
  9
$DIMDEC
 70
         4
  9
$DIMTDEC
 70
         4
  9
$DIMALTU
 70
         2
  9
$DIMALTTD
 70
         2
  9
$DIMTXSTY
  7
Standard
  9
$DIMAUNIT
 70
         0
  9
$DIMADEC
 70
         0
  9
$DIMALTRND
 40
0.0
  9
$DIMAZIN
 70
         0
  9
$DIMDSEP
 70
         0
  9
$DIMATFIT
 70
         3
  9
$DIMFRAC
 70
         0
  9
$DIMLDRBLK
  1

  9
$DIMLUNIT
 70
         2
  9
$DIMLWD
 70
         0
  9
$DIMLWE
 70
         0
  9
$DIMTMOVE
 70
         0
  9
$LUNITS
 70
         2
  9
$LUPREC
 70
         4
  9
$SKETCHINC
 40
0.1
  9
$FILLETRAD
 40
0.0
  9
$AUNITS
 70
         0
  9
$AUPREC
 70
         0
  9
$MENU
  1
acad
  9
$ELEVATION
 40
0.0
  9
$PELEVATION
 40
0.0
  9
$THICKNESS
 40
0.0
  9
$LIMCHECK
 70
         0
  9
$CHAMFERA
 40
0.0
  9
$CHAMFERB
 40
0.0
  9
$CHAMFERC
 40
0.0
  9
$CHAMFERD
 40
0.0
  9
$SKPOLY
 70
         0
  9
$TDCREATE
 40
0.000000000
  9
$TDUCREATE
 40
0.000000000
  9
$TDUPDATE
 40
0.000000000
  9
$TDUUPDATE
 40
0.000000000
  9
$TDINDWG
 40
0.0000000000
  9
$TDUSRTIMER
 40
0.0000000000
  9
$USRTIMER
 70
         1
  9
$ANGBASE
 50
0.0
  9
$ANGDIR
 70
         0
  9
$PDMODE
 70
         0
  9
$PDSIZE
 40
0.0
  9
$PLINEWID
 40
0.0
  9
$SPLFRAME
 70
         0
  9
$SPLINETYPE
 70
         6
  9
$SPLINESEGS
 70
         8
  9
$HANDSEED
  5
267
  9
$SURFTAB1
 70
         6
  9
$SURFTAB2
 70
         6
  9
$SURFTYPE
 70
         6
  9
$SURFU
 70
         6
  9
$SURFV
 70
         6
  9
$UCSBASE
  2

  9
$UCSNAME
  2

  9
$UCSORG
 10
0.0
 20
0.0
 30
0.0
  9
$UCSXDIR
 10
1.0
 20
0.0
 30
0.0
  9
$UCSYDIR
 10
0.0
 20
1.0
 30
0.0
  9
$UCSORTHOREF
  2

  9
$UCSORTHOVIEW
 70
         0
  9
$UCSORGTOP
 10
0.0
 20
0.0
 30
0.0
  9
$UCSORGBOTTOM
 10
0.0
 20
0.0
 30
0.0
  9
$UCSORGLEFT
 10
0.0
 20
0.0
 30
0.0
  9
$UCSORGRIGHT
 10
0.0
 20
0.0
 30
0.0
  9
$UCSORGFRONT
 10
0.0
 20
0.0
 30
0.0
  9
$UCSORGBACK
 10
0.0
 20
0.0
 30
0.0
  9
$PUCSBASE
  2

  9
$PUCSNAME
  2

  9
$PUCSORG
 10
0.0
 20
0.0
 30
0.0
  9
$PUCSXDIR
 10
1.0
 20
0.0
 30
0.0
  9
$PUCSYDIR
 10
0.0
 20
1.0
 30
0.0
  9
$PUCSORTHOREF
  2

  9
$PUCSORTHOVIEW
 70
         0
  9
$PUCSORGTOP
 10
0.0
 20
0.0
 30
0.0
  9
$PUCSORGBOTTOM
 10
0.0
 20
0.0
 30
0.0
  9
$PUCSORGLEFT
 10
0.0
 20
0.0
 30
0.0
  9
$PUCSORGRIGHT
 10
0.0
 20
0.0
 30
0.0
  9
$PUCSORGFRONT
 10
0.0
 20
0.0
 30
0.0
  9
$PUCSORGBACK
 10
0.0
 20
0.0
 30
0.0
  9
$USERI1
 70
         0
  9
$USERI2
 70
         0
  9
$USERI3
 70
         0
  9
$USERI4
 70
         0
  9
$USERI5
 70
         0
  9
$USERR1
 40
0.0
  9
$USERR2
 40
0.0
  9
$USERR3
 40
0.0
  9
$USERR4
 40
0.0
  9
$USERR5
 40
0.0
  9
$WORLDVIEW
 70
         1
  9
$SHADEDGE
 70
         3
  9
$SHADEDIF
 70
        70
  9
$TILEMODE
 70
         1
  9
$MAXACTVP
 70
        16
  9
$PINSBASE
 10
0.0
 20
0.0
 30
0.0
  9
$PLIMCHECK
 70
         0
  9
$PEXTMIN
 10
1.0000000000E+20
 20
1.0000000000E+20
 30
1.0000000000E+20
  9
$PEXTMAX
 10
-1.0000000000E+20
 20
-1.0000000000E+20
 30
-1.0000000000E+20
  9
$PLIMMIN
 10
0.0
 20
0.0
  9
$PLIMMAX
 10
12.0
 20
9.0
  9
$UNITMODE
 70
         0
  9
$VISRETAIN
 70
         0
  9
$PLINEGEN
 70
         1
  9
$PSLTSCALE
 70
         0
  9
$TREEDEPTH
 70
      3020
  9
$CMLSTYLE
  2
Standard
  9
$CMLJUST
 70
         0
  9
$CMLSCALE
 40
1.0
  9
$PROXYGRAPHICS
 70
         0
  9
$MEASUREMENT
 70
         1
  9
$CELWEIGHT
370
         0
  9
$ENDCAPS
280
         0
  9
$JOINSTYLE
280
         0
  9
$LWDISPLAY
290
         0
  9
$INSUNITS
 70
         0
  9
$HYPERLINKBASE
  1

  9
$STYLESHEET
  1

  9
$XEDIT
290
         1
  9
$CEPSNTYPE
380
         0
  9
$PSTYLEMODE
290
         1
  9
$FINGERPRINTGUID
  2

  9
$VERSIONGUID
  2

  9
$EXTNAMES
290
         1
  9
$PSVPSCALE
 40
0.0
  0
ENDSEC
  0
SECTION
  2
CLASSES
  0
CLASS
  1
LWPOLYLINE
  2
AcDbPolyline
  3
AutoCAD 2000
 90
        0
280
         0
281
         1
  0
CLASS
  1
IMAGE
  2
AcDbRasterImage
  3
ISM
 90
      127
280
         0
281
         1
  0
CLASS
  1
OLE2FRAME
  2
AcDbOle2Frame
  3
AutoCAD 2000
 90
        0
280
         0
281
         1
  0
CLASS
  1
HATCH
  2
AcDbHatch
  3
AutoCAD 2000
 90
        0
280
         0
281
         1
  0
CLASS
  1
DICTIONARYVAR
  2
AcDbDictionaryVar
  3
AutoCAD 2000
 90
        0
280
         0
281
         0
  0
CLASS
  1
RASTERVARIABLES
  2
AcDbRasterVariables
  3
ISM
 90
        0
280
         0
281
         0
  0
CLASS
  1
IMAGEDEF
  2
AcDbRasterImageDef
  3
ISM
 90
        0
280
         0
281
         0
  0
CLASS
  1
IMAGEDEF_REACTOR
  2
AcDbRasterImageDefReactor
  3
ISM
 90
        1
280
         0
281
         0
  0
CLASS
  1
IDBUFFER
  2
AcDbIdBuffer
  3
AutoCAD 2000
 90
        0
280
         0
281
         0
  0
CLASS
  1
SPATIAL_FILTER
  2
AcDbSpatialFilter
  3
AutoCAD 2000
 90
        0
280
         0
281
         0
  0
CLASS
  1
XRECORD
  2
AcDbXrecord
  3
AutoCAD 2000
 90
        0
280
         0
281
         0
  0
CLASS
  1
SORTENTSTABLE
  2
AcDbSortentsTable
  3
AutoCAD 2000
 90
        0
280
         0
281
         0
  0
CLASS
  1
LAYER_INDEX
  2
AcDbLayerIndex
  3
AutoCAD 2000
 90
        0
280
         0
281
         0
  0
CLASS
  1
SPATIAL_INDEX
  2
AcDbSpatialIndex
  3
AutoCAD 2000
 90
        0
280
         0
281
         0
  0
CLASS
  1
OBJECT_PTR
  2
CAseDLPNTableRecord
  3
"ASE-LPNTableRecord"
 90
        1
280
         0
281
         0
  0
CLASS
  1
LAYOUT
  2
AcDbLayout
  3
AutoCAD 2000
 90
        0
280
         0
281
         0
  0
CLASS
  1
PLOTSETTINGS
  2
AcDbPlotSettings
  3
AutoCAD 2000
 90
        0
280
         0
281
         0
  0
CLASS
  1
ACDBDICTIONARYWDFLT
  2
AcDbDictionaryWithDefault
  3
AutoCAD 2000
 90
        0
280
         0
281
         0
  0
CLASS
  1
ACDBPLACEHOLDER
  2
AcDbPlaceHolder
  3
AutoCAD 2000
 90
        0
280
         0
281
         0
  0
CLASS
  1
VBA_PROJECT
  2
AcDbVbaProject
  3
acadvba
 90
        0
280
         0
281
         0
  0
CLASS
  1
WIPEOUT
  2
AcDbWipeout
  3
WipeOut|AutoCAD Express Tool|expresstools@autodesk.com
 90
      127
280
         0
281
         1
  0
CLASS
  1
WIPEOUTVARIABLES
  2
AcDbWipeoutVariables
  3
WipeOut|AutoCAD Express Tool|expresstools@autodesk.com
 90
        0
280
         0
281
         0
  0
CLASS
  1
RTEXT
  2
RText
  3
RText|AutoCAD Express Tool|expresstools@autodesk.com
 90
        0
280
         0
281
         1
  0
CLASS
  1
ARCALIGNEDTEXT
  2
AcDbArcAlignedText
  3
ATEXT|AutoCAD Express Tool|expresstools@autodesk.com
 90
        0
280
         0
281
         1
  0
ENDSEC
  0
SECTION
  2
TABLES
  0
TABLE
  2
VPORT
  5
7
100
AcDbSymbolTable
 70
         1
  0
VPORT
  5
15
100
AcDbSymbolTableRecord
100
AcDbViewportTableRecord
  2
*ACTIVE
 70
         0
 10
0.0
 20
0.0
 11
1.0
 21
1.0
 12
105.0
 22
148.5
 13
0.0
 23
0.0
 14
1.0
 24
1.0
 15
0.0
 25
0.0
 16
0.0
 26
0.0
 36
1.0
 17
0.0
 27
0.0
 37
0.0
 40
231.2943892345
 41
1.0
 42
50.0
 43
0.0
 44
0.0
 50
0.0
 51
0.0
 71
         0
 72
       100
 73
         1
 74
         1
 75
         0
 76
         0
 77
         0
 78
         0
281
         0
 65
         0
110
0.0
120
0.0
130
0.0
111
1.0
121
0.0
131
0.0
112
0.0
122
1.0
132
0.0
345
0
346
0
 79
         0
146
0.0
  0
ENDTAB
  0
TABLE
  2
LTYPE
  5
4
100
AcDbSymbolTable
 70
        12
  0
LTYPE
  5
11
100
AcDbSymbolTableRecord
100
AcDbLinetypeTableRecord
  2
ByBlock
 70
        64
  3

 72
        65
 73
         0
 40
0.0
  0
LTYPE
  5
12
100
AcDbSymbolTableRecord
100
AcDbLinetypeTableRecord
  2
ByLayer
 70
        64
  3

 72
        65
 73
         0
 40
0.0
  0
LTYPE
  5
13
100
AcDbSymbolTableRecord
100
AcDbLinetypeTableRecord
  2
CONTINUOUS
 70
        64
  3
Solid Line
 72
        65
 73
         0
 40
0.0
  0
LTYPE
  5
24
100
AcDbSymbolTableRecord
100
AcDbLinetypeTableRecord
  2
DOT
 70
        64
  3
. . . . . . . . . . . . . . . . . . . . . . 
 72
        65
 73
         2
 40
0.25
 49
0.0
 74
         0
 49
-0.25
 74
         0
  0
LTYPE
  5
25
100
AcDbSymbolTableRecord
100
AcDbLinetypeTableRecord
  2
HIDDEN
 70
         0
  3
_ _ _ _ _ _ _ _ _ _ _ _ _ _ _ _ _ _ _ _ _ _ _
 72
        65
 73
         2
 40
0.375
 49
0.25
 74
         0
 49
-0.125
 74
         0
  0
LTYPE
  5
26
100
AcDbSymbolTableRecord
100
AcDbLinetypeTableRecord
  2
DASHDOT
 70
         0
  3
__ . __ . __ . __ . __ . __ . __ . __ . __ . __
 72
        65
 73
         4
 40
1.0
 49
0.5
 74
         0
 49
-0.25
 74
         0
 49
0.0
 74
         0
 49
-0.25
 74
         0
  0
LTYPE
  5
27
100
AcDbSymbolTableRecord
100
AcDbLinetypeTableRecord
  2
DIVIDE
 70
         0
  3
__ . . __ . . __ . . __ . . __ . . __ . . __
 72
        65
 73
         6
 40
1.25
 49
0.5
 74
         0
 49
-0.25
 74
         0
 49
0.0
 74
         0
 49
-0.25
 74
         0
 49
0.0
 74
         0
 49
-0.25
 74
         0
  0
LTYPE
  5
28
100
AcDbSymbolTableRecord
100
AcDbLinetypeTableRecord
  2
DASHED
 70
         0
  3
__ __ __ __ __ __ __ __ __ __ __ __ __ __ __
 72
        65
 73
         2
 40
0.75
 49
0.5
 74
         0
 49
-0.25
 74
         0
  0
LTYPE
  5
29
100
AcDbSymbolTableRecord
100
AcDbLinetypeTableRecord
  2
BORDER
 70
         0
  3
__ __ . __ __ . __ __ . __ __ . __ __ .
 72
        65
 73
         6
 40
1.75
 49
0.5
 74
         0
 49
-0.25
 74
         0
 49
0.5
 74
         0
 49
-0.25
 74
         0
 49
0.0
 74
         0
 49
-0.25
 74
         0
  0
LTYPE
  5
2A
100
AcDbSymbolTableRecord
100
AcDbLinetypeTableRecord
  2
CENTER
 70
         0
  3
____ _ ____ _ ____ _ ____ _ ____ _ ____
 72
        65
 73
         4
 40
2.0
 49
1.25
 74
         0
 49
-0.25
 74
         0
 49
0.25
 74
         0
 49
-0.25
 74
         0
  0
LTYPE
  5
2B
100
AcDbSymbolTableRecord
100
AcDbLinetypeTableRecord
  2
DOT2
 70
         0
  3
........................................
 72
        65
 73
         2
 40
0.125
 49
0.0
 74
         0
 49
-0.125
 74
         0
  0
LTYPE
  5
2C
100
AcDbSymbolTableRecord
100
AcDbLinetypeTableRecord
  2
PHANTOM
 70
         0
  3
______  __  __  ______  __  __  ______
 72
        65
 73
         6
 40
2.5
 49
1.25
 74
         0
 49
-0.25
 74
         0
 49
0.25
 74
         0
 49
-0.25
 74
         0
 49
0.25
 74
         0
 49
-0.25
 74
         0
  0
ENDTAB
  0
TABLE
  2
LAYER
  5
2
100
AcDbSymbolTable
 70
       125
  0
LAYER
  5
14
100
AcDbSymbolTableRecord
100
AcDbLayerTableRecord
  2
0
 70
         0
 62
         7
  6
CONTINUOUS
290
         1
370
        -3
390
1D
  0
LAYER
  5
33
100
AcDbSymbolTableRecord
100
AcDbLayerTableRecord
  2
BESCHRIFTUNG
 70
        64
 62
         7
  6
CONTINUOUS
290
         1
370
        25
390
1D
  0
LAYER
  5
34
100
AcDbSymbolTableRecord
100
AcDbLayerTableRecord
  2
SCHRAFFUR
 70
        64
 62
         7
  6
CONTINUOUS
290
         1
370
        25
390
1D
  0
LAYER
  5
35
100
AcDbSymbolTableRecord
100
AcDbLayerTableRecord
  2
MASSTEXTE
 70
        64
 62
       212
  6
CONTINUOUS
290
         1
370
        25
390
1D
  0
LAYER
  5
36
100
AcDbSymbolTableRecord
100
AcDbLayerTableRecord
  2
MASSLINIEN
 70
        64
 62
       172
  6
CONTINUOUS
290
         1
370
        25
390
1D
  0
LAYER
  5
37
100
AcDbSymbolTableRecord
100
AcDbLayerTableRecord
  2
MASSGRENZEN
 70
        64
 62
       172
  6
CONTINUOUS
290
         1
370
        25
390
1D
  0
LAYER
  5
38
100
AcDbSymbolTableRecord
100
AcDbLayerTableRecord
  2
TOLERANZEN
 70
        64
 62
       212
  6
CONTINUOUS
290
         1
370
         0
390
1D
  0
LAYER
  5
39
100
AcDbSymbolTableRecord
100
AcDbLayerTableRecord
  2
BEMASSUNG
 70
        64
 62
         7
  6
CONTINUOUS
290
         1
370
        25
390
1D
  0
LAYER
  5
3A
100
AcDbSymbolTableRecord
100
AcDbLayerTableRecord
  2
HILFSLINIEN
 70
        64
 62
         3
  6
CONTINUOUS
290
         1
370
         0
390
1D
  0
LAYER
  5
3B
100
AcDbSymbolTableRecord
100
AcDbLayerTableRecord
  2
MITTELLINIEN
 70
        64
 62
         5
  6
DASHDOT
290
         1
370
        25
390
1D
  0
LAYER
  5
3C
100
AcDbSymbolTableRecord
100
AcDbLayerTableRecord
  2
BESCHRIFTUNG00
 70
        64
 62
         7
  6
CONTINUOUS
290
         1
370
        25
390
1D
  0
LAYER
  5
3D
100
AcDbSymbolTableRecord
100
AcDbLayerTableRecord
  2
BESCHRIFTUNG0
 70
        64
 62
         7
  6
CONTINUOUS
290
         1
370
        25
390
1D
  0
LAYER
  5
3E
100
AcDbSymbolTableRecord
100
AcDbLayerTableRecord
  2
GEWINDELINIEN
 70
        64
 62
       212
  6
CONTINUOUS
290
         1
370
        25
390
1D
  0
LAYER
  5
3F
100
AcDbSymbolTableRecord
100
AcDbLayerTableRecord
  2
UNSICHTBARE
 70
        64
 62
        92
  6
DASHED
290
         1
370
        25
390
1D
  0
LAYER
  5
40
100
AcDbSymbolTableRecord
100
AcDbLayerTableRecord
  2
VERDECKTE
 70
        64
 62
        92
  6
DASHED
290
         1
370
        25
390
1D
  0
LAYER
  5
41
100
AcDbSymbolTableRecord
100
AcDbLayerTableRecord
  2
LICHTKANTEN
 70
        64
 62
         8
  6
CONTINUOUS
290
         1
370
        25
390
1D
  0
LAYER
  5
42
100
AcDbSymbolTableRecord
100
AcDbLayerTableRecord
  2
SCHNITTVERLAUF
 70
        64
 62
        34
  6
DASHDOT
290
         1
370
        70
390
1D
  0
LAYER
  5
43
100
AcDbSymbolTableRecord
100
AcDbLayerTableRecord
  2
KENNZEICHNUNG
 70
        64
 62
         7
  6
CONTINUOUS
290
         1
370
         0
390
1D
  0
LAYER
  5
44
100
AcDbSymbolTableRecord
100
AcDbLayerTableRecord
  2
PFEILE
 70
        64
 62
         7
  6
CONTINUOUS
290
         1
370
        70
390
1D
  0
LAYER
  5
45
100
AcDbSymbolTableRecord
100
AcDbLayerTableRecord
  2
SCHNITTDARSTELLUNG
 70
        64
 62
         7
  6
CONTINUOUS
290
         1
370
         0
390
1D
  0
LAYER
  5
46
100
AcDbSymbolTableRecord
100
AcDbLayerTableRecord
  2
_5701_2___4G WEICHENSCHIEBER
 70
        64
 62
        30
  6
DASHED
290
         1
370
        18
390
1D
  0
LAYER
  5
47
100
AcDbSymbolTableRecord
100
AcDbLayerTableRecord
  2
5701_2___4G WEICHENSCHIEBER
 70
        64
 62
        30
  6
CONTINUOUS
290
         1
370
        18
390
1D
  0
LAYER
  5
48
100
AcDbSymbolTableRecord
100
AcDbLayerTableRecord
  2
_5701_5___7G FAHRSTRAßENSCHIEBER
 70
        64
 62
         5
  6
CONTINUOUS
290
         1
370
        18
390
1D
  0
LAYER
  5
49
100
AcDbSymbolTableRecord
100
AcDbLayerTableRecord
  2
5701_5___7G FAHRSTRAßENSCHIEBER
 70
        64
 62
         5
  6
DASHED
290
         1
370
        18
390
1D
  0
LAYER
  5
4A
100
AcDbSymbolTableRecord
100
AcDbLayerTableRecord
  2
_5701_18 UMLENKUNG
 70
        64
 62
       150
  6
DASHED
290
         1
370
        18
390
1D
  0
LAYER
  5
4B
100
AcDbSymbolTableRecord
100
AcDbLayerTableRecord
  2
5701_18 UMLENKUNG
 70
        64
 62
       150
  6
CONTINUOUS
290
         1
370
        18
390
1D
  0
LAYER
  5
4C
100
AcDbSymbolTableRecord
100
AcDbLayerTableRecord
  2
5701_8X BODEN UND DECKEL
 70
        64
 62
       142
  6
CONTINUOUS
290
         1
370
        18
390
1D
  0
LAYER
  5
4D
100
AcDbSymbolTableRecord
100
AcDbLayerTableRecord
  2
5701_15___16 ECKVERBINDER
 70
        64
 62
        14
  6
CONTINUOUS
290
         1
370
        18
390
1D
  0
LAYER
  5
4E
100
AcDbSymbolTableRecord
100
AcDbLayerTableRecord
  2
5701__ ZENTRALSCHLOSS
 70
        64
 62
         7
  6
CONTINUOUS
290
         1
370
         0
390
1D
  0
LAYER
  5
4F
100
AcDbSymbolTableRecord
100
AcDbLayerTableRecord
  2
2051_1-4 SCHLÜSSEL
 70
        64
 62
       190
  6
CONTINUOUS
290
         1
370
        18
390
1D
  0
LAYER
  5
50
100
AcDbSymbolTableRecord
100
AcDbLayerTableRecord
  2
2051__ SCHLÜSSEL
 70
        64
 62
       190
  6
CONTINUOUS
290
         1
370
         0
390
1D
  0
LAYER
  5
51
100
AcDbSymbolTableRecord
100
AcDbLayerTableRecord
  2
2050_1_2 GEHÄUSE
 70
        64
 62
         7
  6
CONTINUOUS
290
         1
370
        18
390
1D
  0
LAYER
  5
52
100
AcDbSymbolTableRecord
100
AcDbLayerTableRecord
  2
2050_3 RIEGEL VERSCHOBEN
 70
        64
 62
       230
  6
DASHED
290
         1
370
        18
390
1D
  0
LAYER
  5
53
100
AcDbSymbolTableRecord
100
AcDbLayerTableRecord
  2
2050_3 RIEGEL UMGESPERRT
 70
        64
 62
       230
  6
DASHED
290
         1
370
        18
390
1D
  0
LAYER
  5
54
100
AcDbSymbolTableRecord
100
AcDbLayerTableRecord
  2
2050_3 RIEGEL
 70
        64
 62
       230
  6
CONTINUOUS
290
         1
370
        18
390
1D
  0
LAYER
  5
55
100
AcDbSymbolTableRecord
100
AcDbLayerTableRecord
  2
2050_4 ZUHALTUNG ANGEHOBEN
 70
        64
 62
        94
  6
HIDDEN
290
         1
370
        18
390
1D
  0
LAYER
  5
56
100
AcDbSymbolTableRecord
100
AcDbLayerTableRecord
  2
2050_4 ZUHALTUNG
 70
        64
 62
        94
  6
CONTINUOUS
290
         1
370
        18
390
1D
  0
LAYER
  5
57
100
AcDbSymbolTableRecord
100
AcDbLayerTableRecord
  2
WIPPE
 70
        64
 62
         5
  6
CONTINUOUS
290
         1
370
        18
390
1D
  0
LAYER
  5
58
100
AcDbSymbolTableRecord
100
AcDbLayerTableRecord
  2
AUSSCHLUSS
 70
        64
 62
        14
  6
CONTINUOUS
290
         1
370
        18
390
1D
  0
LAYER
  5
59
100
AcDbSymbolTableRecord
100
AcDbLayerTableRecord
  2
2050_5_6 BESATZUNG
 70
        64
 62
         8
  6
CONTINUOUS
290
         1
370
        18
390
1D
  0
LAYER
  5
5A
100
AcDbSymbolTableRecord
100
AcDbLayerTableRecord
  2
2050__ SCHLOSS
 70
        64
 62
         7
  6
CONTINUOUS
290
         1
370
        18
390
1D
  0
LAYER
  5
5B
100
AcDbSymbolTableRecord
100
AcDbLayerTableRecord
  2
2052_5_6 BESATZUNG
 70
        64
 62
         8
  6
CONTINUOUS
290
         1
370
        18
390
1D
  0
LAYER
  5
5C
100
AcDbSymbolTableRecord
100
AcDbLayerTableRecord
  2
2052_3 RIEGEL UMGESPERRT
 70
        64
 62
       230
  6
DASHED
290
         1
370
        18
390
1D
  0
LAYER
  5
5D
100
AcDbSymbolTableRecord
100
AcDbLayerTableRecord
  2
2052_3 RIEGEL
 70
        64
 62
       230
  6
CONTINUOUS
290
         1
370
        18
390
1D
  0
LAYER
  5
5E
100
AcDbSymbolTableRecord
100
AcDbLayerTableRecord
  2
2052_4 ZUHALTUNG ANGEHOBEN
 70
        64
 62
        94
  6
DASHED
290
         1
370
        18
390
1D
  0
LAYER
  5
5F
100
AcDbSymbolTableRecord
100
AcDbLayerTableRecord
  2
2052_4 ZUHALTUNG
 70
        64
 62
        94
  6
CONTINUOUS
290
         1
370
        18
390
1D
  0
LAYER
  5
60
100
AcDbSymbolTableRecord
100
AcDbLayerTableRecord
  2
2052_1_2_7_8 GEHÄUSE
 70
        64
 62
         7
  6
CONTINUOUS
290
         1
370
        18
390
1D
  0
LAYER
  5
61
100
AcDbSymbolTableRecord
100
AcDbLayerTableRecord
  2
2052__ SCHLOSS MIT DORN
 70
        64
 62
         7
  6
CONTINUOUS
290
         1
370
         0
390
1D
  0
LAYER
  5
62
100
AcDbSymbolTableRecord
100
AcDbLayerTableRecord
  2
2053_1-4 SCHLÜSSEL
 70
        64
 62
       190
  6
CONTINUOUS
290
         1
370
        18
390
1D
  0
LAYER
  5
63
100
AcDbSymbolTableRecord
100
AcDbLayerTableRecord
  2
2053__ SCHLÜSSEL
 70
        64
 62
         7
  6
CONTINUOUS
290
         1
370
         0
390
1D
  0
LAYER
  5
64
100
AcDbSymbolTableRecord
100
AcDbLayerTableRecord
  2
2913_1 AUFSPANNPLATTE
 70
        64
 62
         7
  6
CONTINUOUS
290
         1
370
        18
390
1D
  0
LAYER
  5
65
100
AcDbSymbolTableRecord
100
AcDbLayerTableRecord
  2
2913__ AUFSPANNPLATTE
 70
        64
 62
         7
  6
CONTINUOUS
290
         1
370
        18
390
1D
  0
LAYER
  5
66
100
AcDbSymbolTableRecord
100
AcDbLayerTableRecord
  2
2919__ FRÄSE - MITTENAUFSPANNUNG
 70
        64
 62
         7
  6
CONTINUOUS
290
         1
370
         0
390
1D
  0
LAYER
  5
67
100
AcDbSymbolTableRecord
100
AcDbLayerTableRecord
  2
2913_1 AUFSPANNPLATTE0
 70
        64
 62
         7
  6
CONTINUOUS
290
         1
370
        18
390
1D
  0
LAYER
  5
68
100
AcDbSymbolTableRecord
100
AcDbLayerTableRecord
  2
2913__ FRÄSE - AUFSPANNPLATTE
 70
        64
 62
         7
  6
CONTINUOUS
290
         1
370
        18
390
1D
  0
LAYER
  5
69
100
AcDbSymbolTableRecord
100
AcDbLayerTableRecord
  2
KONSTRUKTION
 70
        64
 62
         7
  6
CONTINUOUS
290
         1
370
         0
390
1D
  0
LAYER
  5
6A
100
AcDbSymbolTableRecord
100
AcDbLayerTableRecord
  2
2050_1R
 70
        64
 62
        15
  6
CONTINUOUS
290
         1
370
        13
390
1D
  0
LAYER
  5
6B
100
AcDbSymbolTableRecord
100
AcDbLayerTableRecord
  2
2050___ SCHLOSS
 70
        64
 62
       230
  6
CONTINUOUS
290
         1
370
        13
390
1D
  0
LAYER
  5
6C
100
AcDbSymbolTableRecord
100
AcDbLayerTableRecord
  2
2052_7L~A
 70
        64
 62
         5
  6
CONTINUOUS
290
         1
370
        13
390
1D
  0
LAYER
  5
6D
100
AcDbSymbolTableRecord
100
AcDbLayerTableRecord
  2
2052_7L
 70
        64
 62
        30
  6
CONTINUOUS
290
         1
370
        13
390
1D
  0
LAYER
  5
6E
100
AcDbSymbolTableRecord
100
AcDbLayerTableRecord
  2
2052_3L
 70
        64
 62
        30
  6
CONTINUOUS
290
         1
370
        13
390
1D
  0
LAYER
  5
6F
100
AcDbSymbolTableRecord
100
AcDbLayerTableRecord
  2
2052_2L
 70
        64
 62
        30
  6
CONTINUOUS
290
         1
370
        13
390
1D
  0
LAYER
  5
70
100
AcDbSymbolTableRecord
100
AcDbLayerTableRecord
  2
2052_1L
 70
        64
 62
        30
  6
CONTINUOUS
290
         1
370
        13
390
1D
  0
LAYER
  5
71
100
AcDbSymbolTableRecord
100
AcDbLayerTableRecord
  2
2052_4L
 70
        64
 62
        30
  6
CONTINUOUS
290
         1
370
        13
390
1D
  0
LAYER
  5
72
100
AcDbSymbolTableRecord
100
AcDbLayerTableRecord
  2
2052___ SCHLOSS MIT DORN L
 70
        64
 62
       230
  6
CONTINUOUS
290
         1
370
        13
390
1D
  0
LAYER
  5
73
100
AcDbSymbolTableRecord
100
AcDbLayerTableRecord
  2
2052_1R
 70
        64
 62
        34
  6
CONTINUOUS
290
         1
370
        13
390
1D
  0
LAYER
  5
74
100
AcDbSymbolTableRecord
100
AcDbLayerTableRecord
  2
2052_4R
 70
        64
 62
        34
  6
CONTINUOUS
290
         1
370
        13
390
1D
  0
LAYER
  5
75
100
AcDbSymbolTableRecord
100
AcDbLayerTableRecord
  2
2052_2R~A
 70
        64
 62
         5
  6
CONTINUOUS
290
         1
370
        13
390
1D
  0
LAYER
  5
76
100
AcDbSymbolTableRecord
100
AcDbLayerTableRecord
  2
2052_2R
 70
        64
 62
        34
  6
CONTINUOUS
290
         1
370
        13
390
1D
  0
LAYER
  5
77
100
AcDbSymbolTableRecord
100
AcDbLayerTableRecord
  2
2052_3R
 70
        64
 62
        34
  6
CONTINUOUS
290
         1
370
        13
390
1D
  0
LAYER
  5
78
100
AcDbSymbolTableRecord
100
AcDbLayerTableRecord
  2
2052___ SCHLOSS MIT DORN R
 70
        64
 62
       230
  6
CONTINUOUS
290
         1
370
        13
390
1D
  0
LAYER
  5
79
100
AcDbSymbolTableRecord
100
AcDbLayerTableRecord
  2
2053_3A
 70
        64
 62
        11
  6
CONTINUOUS
290
         1
370
        13
390
1D
  0
LAYER
  5
7A
100
AcDbSymbolTableRecord
100
AcDbLayerTableRecord
  2
2053_1P
 70
        64
 62
        11
  6
CONTINUOUS
290
         1
370
        13
390
1D
  0
LAYER
  5
7B
100
AcDbSymbolTableRecord
100
AcDbLayerTableRecord
  2
2053_3D
 70
        64
 62
        11
  6
CONTINUOUS
290
         1
370
        13
390
1D
  0
LAYER
  5
7C
100
AcDbSymbolTableRecord
100
AcDbLayerTableRecord
  2
2053_3E
 70
        64
 62
        11
  6
CONTINUOUS
290
         1
370
        13
390
1D
  0
LAYER
  5
7D
100
AcDbSymbolTableRecord
100
AcDbLayerTableRecord
  2
2053_3C
 70
        64
 62
        11
  6
CONTINUOUS
290
         1
370
        13
390
1D
  0
LAYER
  5
7E
100
AcDbSymbolTableRecord
100
AcDbLayerTableRecord
  2
2053_3B
 70
        64
 62
        11
  6
CONTINUOUS
290
         1
370
        13
390
1D
  0
LAYER
  5
7F
100
AcDbSymbolTableRecord
100
AcDbLayerTableRecord
  2
2053_2P
 70
        64
 62
        11
  6
CONTINUOUS
290
         1
370
        13
390
1D
  0
LAYER
  5
80
100
AcDbSymbolTableRecord
100
AcDbLayerTableRecord
  2
2053___ SCHLÜSSEL MIT DORN
 70
        64
 62
       230
  6
CONTINUOUS
290
         1
370
        13
390
1D
  0
LAYER
  5
81
100
AcDbSymbolTableRecord
100
AcDbLayerTableRecord
  2
5701_18P
 70
        64
 62
       230
  6
CONTINUOUS
290
         1
370
        13
390
1D
  0
LAYER
  5
82
100
AcDbSymbolTableRecord
100
AcDbLayerTableRecord
  2
5701_16P
 70
        64
 62
       230
  6
CONTINUOUS
290
         1
370
        13
390
1D
  0
LAYER
  5
83
100
AcDbSymbolTableRecord
100
AcDbLayerTableRecord
  2
5701_21P
 70
        64
 62
       230
  6
CONTINUOUS
290
         1
370
        13
390
1D
  0
LAYER
  5
84
100
AcDbSymbolTableRecord
100
AcDbLayerTableRecord
  2
5701_31P
 70
        64
 62
       230
  6
CONTINUOUS
290
         1
370
        13
390
1D
  0
LAYER
  5
85
100
AcDbSymbolTableRecord
100
AcDbLayerTableRecord
  2
5701_41P
 70
        64
 62
       230
  6
CONTINUOUS
290
         1
370
        13
390
1D
  0
LAYER
  5
86
100
AcDbSymbolTableRecord
100
AcDbLayerTableRecord
  2
5701_51P
 70
        64
 62
       230
  6
CONTINUOUS
290
         1
370
        13
390
1D
  0
LAYER
  5
87
100
AcDbSymbolTableRecord
100
AcDbLayerTableRecord
  2
5701_61P
 70
        64
 62
       230
  6
CONTINUOUS
290
         1
370
        13
390
1D
  0
LAYER
  5
88
100
AcDbSymbolTableRecord
100
AcDbLayerTableRecord
  2
5701_71P
 70
        64
 62
       230
  6
CONTINUOUS
290
         1
370
        13
390
1D
  0
LAYER
  5
89
100
AcDbSymbolTableRecord
100
AcDbLayerTableRecord
  2
5701_22P
 70
        64
 62
       230
  6
CONTINUOUS
290
         1
370
        13
390
1D
  0
LAYER
  5
8A
100
AcDbSymbolTableRecord
100
AcDbLayerTableRecord
  2
5701_42P
 70
        64
 62
       230
  6
CONTINUOUS
290
         1
370
        13
390
1D
  0
LAYER
  5
8B
100
AcDbSymbolTableRecord
100
AcDbLayerTableRecord
  2
5701_32P
 70
        64
 62
       230
  6
CONTINUOUS
290
         1
370
        13
390
1D
  0
LAYER
  5
8C
100
AcDbSymbolTableRecord
100
AcDbLayerTableRecord
  2
5701_52P
 70
        64
 62
       230
  6
CONTINUOUS
290
         1
370
        13
390
1D
  0
LAYER
  5
8D
100
AcDbSymbolTableRecord
100
AcDbLayerTableRecord
  2
5701_72P
 70
        64
 62
       230
  6
CONTINUOUS
290
         1
370
        13
390
1D
  0
LAYER
  5
8E
100
AcDbSymbolTableRecord
100
AcDbLayerTableRecord
  2
5701_62P
 70
        64
 62
       230
  6
CONTINUOUS
290
         1
370
        13
390
1D
  0
LAYER
  5
8F
100
AcDbSymbolTableRecord
100
AcDbLayerTableRecord
  2
5701_80P
 70
        64
 62
       230
  6
CONTINUOUS
290
         1
370
        13
390
1D
  0
LAYER
  5
90
100
AcDbSymbolTableRecord
100
AcDbLayerTableRecord
  2
5701_81P
 70
        64
 62
       230
  6
CONTINUOUS
290
         1
370
        13
390
1D
  0
LAYER
  5
91
100
AcDbSymbolTableRecord
100
AcDbLayerTableRecord
  2
5701_83P
 70
        64
 62
       230
  6
CONTINUOUS
290
         1
370
        13
390
1D
  0
LAYER
  5
92
100
AcDbSymbolTableRecord
100
AcDbLayerTableRecord
  2
5701_84P
 70
        64
 62
       230
  6
CONTINUOUS
290
         1
370
        13
390
1D
  0
LAYER
  5
93
100
AcDbSymbolTableRecord
100
AcDbLayerTableRecord
  2
5701_82P
 70
        64
 62
       230
  6
CONTINUOUS
290
         1
370
        13
390
1D
  0
LAYER
  5
94
100
AcDbSymbolTableRecord
100
AcDbLayerTableRecord
  2
5701_16T
 70
        64
 62
        30
  6
CONTINUOUS
290
         1
370
        13
390
1D
  0
LAYER
  5
95
100
AcDbSymbolTableRecord
100
AcDbLayerTableRecord
  2
5701_85P
 70
        64
 62
       230
  6
CONTINUOUS
290
         1
370
        13
390
1D
  0
LAYER
  5
96
100
AcDbSymbolTableRecord
100
AcDbLayerTableRecord
  2
5701_86P
 70
        64
 62
       230
  6
CONTINUOUS
290
         1
370
        13
390
1D
  0
LAYER
  5
97
100
AcDbSymbolTableRecord
100
AcDbLayerTableRecord
  2
5701_87P
 70
        64
 62
       230
  6
CONTINUOUS
290
         1
370
        13
390
1D
  0
LAYER
  5
98
100
AcDbSymbolTableRecord
100
AcDbLayerTableRecord
  2
5701_88P
 70
        64
 62
       230
  6
CONTINUOUS
290
         1
370
        13
390
1D
  0
LAYER
  5
99
100
AcDbSymbolTableRecord
100
AcDbLayerTableRecord
  2
5701_89P
 70
        64
 62
       230
  6
CONTINUOUS
290
         1
370
        13
390
1D
  0
LAYER
  5
9A
100
AcDbSymbolTableRecord
100
AcDbLayerTableRecord
  2
5701_15P
 70
        64
 62
       230
  6
CONTINUOUS
290
         1
370
        13
390
1D
  0
LAYER
  5
9B
100
AcDbSymbolTableRecord
100
AcDbLayerTableRecord
  2
5701_15T
 70
        64
 62
        30
  6
CONTINUOUS
290
         1
370
        13
390
1D
  0
LAYER
  5
9C
100
AcDbSymbolTableRecord
100
AcDbLayerTableRecord
  2
5701_99P
 70
        64
 62
       230
  6
CONTINUOUS
290
         1
370
        13
390
1D
  0
LAYER
  5
9D
100
AcDbSymbolTableRecord
100
AcDbLayerTableRecord
  2
5701___ ZENTRALSCHLOSS
 70
        64
 62
       230
  6
CONTINUOUS
290
         1
370
        13
390
1D
  0
LAYER
  5
9E
100
AcDbSymbolTableRecord
100
AcDbLayerTableRecord
  2
___ 8901_2P
 70
        64
 62
        54
  6
CONTINUOUS
290
         1
370
        13
390
1D
  0
LAYER
  5
9F
100
AcDbSymbolTableRecord
100
AcDbLayerTableRecord
  2
___ 8901___
 70
        64
 62
       230
  6
CONTINUOUS
290
         1
370
        13
390
1D
  0
LAYER
  5
A0
100
AcDbSymbolTableRecord
100
AcDbLayerTableRecord
  2
1084___
 70
        64
 62
       230
  6
CONTINUOUS
290
         1
370
        13
390
1D
  0
LAYER
  5
A1
100
AcDbSymbolTableRecord
100
AcDbLayerTableRecord
  2
8006_5P
 70
        64
 62
        30
  6
CONTINUOUS
290
         1
370
        13
390
1D
  0
LAYER
  5
A2
100
AcDbSymbolTableRecord
100
AcDbLayerTableRecord
  2
8006_6P
 70
        64
 62
        30
  6
CONTINUOUS
290
         1
370
        13
390
1D
  0
LAYER
  5
A3
100
AcDbSymbolTableRecord
100
AcDbLayerTableRecord
  2
8006_7P
 70
        64
 62
        30
  6
CONTINUOUS
290
         1
370
        13
390
1D
  0
LAYER
  5
A4
100
AcDbSymbolTableRecord
100
AcDbLayerTableRecord
  2
8006_8P
 70
        64
 62
        30
  6
CONTINUOUS
290
         1
370
        13
390
1D
  0
LAYER
  5
A5
100
AcDbSymbolTableRecord
100
AcDbLayerTableRecord
  2
8006___
 70
        64
 62
         7
  6
CONTINUOUS
290
         1
370
         0
390
1D
  0
LAYER
  5
A6
100
AcDbSymbolTableRecord
100
AcDbLayerTableRecord
  2
8993_1P
 70
        64
 62
       230
  6
CONTINUOUS
290
         1
370
        13
390
1D
  0
LAYER
  5
A7
100
AcDbSymbolTableRecord
100
AcDbLayerTableRecord
  2
8993___
 70
        64
 62
         7
  6
CONTINUOUS
290
         1
370
         0
390
1D
  0
LAYER
  5
A8
100
AcDbSymbolTableRecord
100
AcDbLayerTableRecord
  2
8007_1P
 70
        64
 62
        30
  6
CONTINUOUS
290
         1
370
        13
390
1D
  0
LAYER
  5
A9
100
AcDbSymbolTableRecord
100
AcDbLayerTableRecord
  2
8007___
 70
        64
 62
         7
  6
CONTINUOUS
290
         1
370
         0
390
1D
  0
LAYER
  5
AA
100
AcDbSymbolTableRecord
100
AcDbLayerTableRecord
  2
PFADE
 70
        64
 62
         7
  6
CONTINUOUS
290
         1
370
         0
390
1D
  0
LAYER
  5
AB
100
AcDbSymbolTableRecord
100
AcDbLayerTableRecord
  2
_TEMP
 70
        64
 62
         7
  6
CONTINUOUS
290
         1
370
        50
390
1D
  0
LAYER
  5
AC
100
AcDbSymbolTableRecord
100
AcDbLayerTableRecord
  2
A HEBEL OBEN
 70
        64
 62
         5
  6
CONTINUOUS
290
         1
370
        18
390
1D
  0
LAYER
  5
AD
100
AcDbSymbolTableRecord
100
AcDbLayerTableRecord
  2
_F HEBEL
 70
        64
 62
         5
  6
CONTINUOUS
290
         1
370
        18
390
1D
  0
LAYER
  5
AE
100
AcDbSymbolTableRecord
100
AcDbLayerTableRecord
  2
STANDARD
 70
        64
 62
         7
  6
CONTINUOUS
290
         1
370
         0
390
1D
  0
ENDTAB
  0
TABLE
  2
STYLE
  5
3
100
AcDbSymbolTable
 70
         7
  0
STYLE
  5
17
100
AcDbSymbolTableRecord
100
AcDbTextStyleTableRecord
  2
Standard
 70
         0
 40
0.0
 41
1.0
 50
0.0
 71
         0
 42
0.0
  3
txt
  4

  0
STYLE
  5
2D
100
AcDbSymbolTableRecord
100
AcDbTextStyleTableRecord
  2
CADdy
 70
         0
 40
0.0
 41
1.0
 50
0.0
 71
         0
 42
3.5
  3
txt.shx
  4

  0
STYLE
  5
2E
100
AcDbSymbolTableRecord
100
AcDbTextStyleTableRecord
  2
Arial
 70
         0
 40
0.0
 41
1.0
 50
0.0
 71
         0
 42
3.5
  3
arial.ttf
  4

1001
ACAD
1000
Arial
1071
       34
  0
STYLE
  5
2F
100
AcDbSymbolTableRecord
100
AcDbTextStyleTableRecord
  2
Isonorm
 70
         0
 40
0.0
 41
1.0
 50
0.0
 71
         0
 42
3.5
  3
txt.shx
  4

  0
STYLE
  5
30
100
AcDbSymbolTableRecord
100
AcDbTextStyleTableRecord
  2
Tahoma
 70
         0
 40
0.0
 41
1.0
 50
0.0
 71
         0
 42
3.5
  3
tahoma.ttf
  4

1001
ACAD
1000
Tahoma
1071
       34
  0
STYLE
  5
31
100
AcDbSymbolTableRecord
100
AcDbTextStyleTableRecord
  2
Microsoft Sans Serif
 70
         0
 40
0.0
 41
1.0
 50
0.0
 71
         0
 42
3.5
  3
micross.ttf
  4

1001
ACAD
1000
Microsoft Sans Serif
1071
       34
  0
STYLE
  5
32
100
AcDbSymbolTableRecord
100
AcDbTextStyleTableRecord
  2
Arial Rounded MT Bold
 70
         0
 40
0.0
 41
1.0
 50
0.0
 71
         0
 42
3.5
  3
txt.shx
  4

  0
ENDTAB
  0
TABLE
  2
VIEW
  5
5
100
AcDbSymbolTable
 70
         0
  0
ENDTAB
  0
TABLE
  2
UCS
  5
6
100
AcDbSymbolTable
 70
         0
  0
ENDTAB
  0
TABLE
  2
APPID
  5
8
100
AcDbSymbolTable
 70
         1
  0
APPID
  5
16
100
AcDbSymbolTableRecord
100
AcDbRegAppTableRecord
  2
ACAD
 70
        64
  0
ENDTAB
  0
TABLE
  2
DIMSTYLE
  5
9
100
AcDbSymbolTable
 70
         1
100
AcDbDimStyleTable
 71
         0
  0
DIMSTYLE
105
18
100
AcDbSymbolTableRecord
100
AcDbDimStyleTableRecord
  2
Standard
 70
         0
  3

  4

 40
1.0
 41
0.18
 42
0.0625
 43
0.38
 44
0.18
 45
0.0
 46
0.0
 47
0.0
 48
0.0
 71
         0
 72
         0
 73
         1
 74
         1
 75
         0
 76
         0
 77
         0
 78
         0
 79
         0
140
0.18
141
0.09
142
0.0
143
25.4
144
1.0
145
0.0
146
1.0
147
0.09
148
0.0
170
         0
171
         2
172
         0
173
         0
174
         0
175
         0
176
         0
177
         0
178
         0
179
         0
271
         4
272
         4
273
         2
274
         2
275
         0
276
         0
277
         2
278
        46
279
         0
280
         0
281
         0
282
         0
283
         1
284
         0
285
         0
286
         0
288
         0
289
         3
340
17
341
0
342
0
343
0
344
0
371
        -2
372
        -2
  0
ENDTAB
  0
TABLE
  2
BLOCK_RECORD
  5
1
100
AcDbSymbolTable
 70
         0
  0
BLOCK_RECORD
  5
A
100
AcDbSymbolTableRecord
100
AcDbBlockTableRecord
  2
*MODEL_SPACE
340
20
  0
BLOCK_RECORD
  5
B
100
AcDbSymbolTableRecord
100
AcDbBlockTableRecord
  2
*PAPER_SPACE
340
21
  0
ENDTAB
  0
ENDSEC
  0
SECTION
  2
BLOCKS
  0
BLOCK
  5
D
100
AcDbEntity
  8
0
390
0
100
AcDbBlockBegin
  2
*MODEL_SPACE
 70
         0
 10
0.0
 20
0.0
 30
0.0
  3
*MODEL_SPACE
  1

  0
ENDBLK
  5
E
100
AcDbEntity
  8
0
390
0
100
AcDbBlockEnd
  0
BLOCK
  5
F
100
AcDbEntity
 67
         1
  8
0
390
0
100
AcDbBlockBegin
  2
*PAPER_SPACE
 70
         0
 10
0.0
 20
0.0
 30
0.0
  3
*PAPER_SPACE
  1

  0
ENDBLK
  5
10
100
AcDbEntity
 67
         1
  8
0
390
0
100
AcDbBlockEnd
  0
ENDSEC
  0
SECTION
  2
ENTITIES
  0
ARC
  5
AF
100
AcDbEntity
  8
_5701_5___7G FAHRSTRAßENSCHIEBER
390
0
100
AcDbCircle
 10
155.190948385
 20
61.1385134569
 30
0.0
 40
1.75
100
AcDbArc
 50
0.0
 51
180.0
  0
ARC
  5
B0
100
AcDbEntity
  8
_5701_5___7G FAHRSTRAßENSCHIEBER
390
0
100
AcDbCircle
 10
125.190948385
 20
61.1385134569
 30
0.0
 40
1.75
100
AcDbArc
 50
0.0
 51
180.0
  0
LINE
  5
B1
100
AcDbEntity
  8
_5701_5___7G FAHRSTRAßENSCHIEBER
390
0
100
AcDbLine
 10
117.690948385
 20
201.1535805872
 30
0.0
 11
117.690948385
 21
184.1535805872
 31
0.0
  0
LINE
  5
B2
100
AcDbEntity
  8
_5701_5___7G FAHRSTRAßENSCHIEBER
390
0
100
AcDbLine
 10
117.690948385
 20
179.1535805872
 30
0.0
 11
117.690948385
 21
162.1535805872
 31
0.0
  0
LINE
  5
B3
100
AcDbEntity
  8
_5701_5___7G FAHRSTRAßENSCHIEBER
390
0
100
AcDbLine
 10
132.690948385
 20
270.6533024759
 30
0.0
 11
117.690948385
 21
270.6533024759
 31
0.0
  0
LINE
  5
B4
100
AcDbEntity
  8
_5701_5___7G FAHRSTRAßENSCHIEBER
390
0
100
AcDbLine
 10
117.690948385
 20
270.6533024759
 30
0.0
 11
117.690948385
 21
228.1535805872
 31
0.0
  0
LINE
  5
B5
100
AcDbEntity
  8
_5701_5___7G FAHRSTRAßENSCHIEBER
390
0
100
AcDbLine
 10
117.690948385
 20
50.6485134569
 30
0.0
 11
123.440948385
 21
50.6485134569
 31
0.0
  0
LINE
  5
B6
100
AcDbEntity
  8
_5701_5___7G FAHRSTRAßENSCHIEBER
390
0
100
AcDbLine
 10
117.690948385
 20
157.1535805872
 30
0.0
 11
117.690948385
 21
140.1535805872
 31
0.0
  0
LINE
  5
B7
100
AcDbEntity
  8
_5701_5___7G FAHRSTRAßENSCHIEBER
390
0
100
AcDbLine
 10
126.940948385
 20
50.6485134569
 30
0.0
 11
132.690948385
 21
50.6485134569
 31
0.0
  0
LINE
  5
B8
100
AcDbEntity
  8
_5701_5___7G FAHRSTRAßENSCHIEBER
390
0
100
AcDbLine
 10
162.690948385
 20
248.6435134569
 30
0.0
 11
147.690948385
 21
248.6435134569
 31
0.0
  0
LINE
  5
B9
100
AcDbEntity
  8
_5701_5___7G FAHRSTRAßENSCHIEBER
390
0
100
AcDbLine
 10
147.690948385
 20
248.6435134569
 30
0.0
 11
147.690948385
 21
228.1535805872
 31
0.0
  0
LINE
  5
BA
100
AcDbEntity
  8
_5701_5___7G FAHRSTRAßENSCHIEBER
390
0
100
AcDbLine
 10
147.690948385
 20
50.6485134569
 30
0.0
 11
153.440948385
 21
50.6485134569
 31
0.0
  0
LINE
  5
BB
100
AcDbEntity
  8
_5701_5___7G FAHRSTRAßENSCHIEBER
390
0
100
AcDbLine
 10
147.690948385
 20
179.1535805872
 30
0.0
 11
147.690948385
 21
162.1535805872
 31
0.0
  0
LINE
  5
BC
100
AcDbEntity
  8
_5701_5___7G FAHRSTRAßENSCHIEBER
390
0
100
AcDbLine
 10
153.440948385
 20
61.1385134569
 30
0.0
 11
153.440948385
 21
50.6485134569
 31
0.0
  0
LINE
  5
BD
100
AcDbEntity
  8
_5701_5___7G FAHRSTRAßENSCHIEBER
390
0
100
AcDbLine
 10
156.940948385
 20
61.1385134569
 30
0.0
 11
156.940948385
 21
50.6485134569
 31
0.0
  0
LINE
  5
BE
100
AcDbEntity
  8
_5701_5___7G FAHRSTRAßENSCHIEBER
390
0
100
AcDbLine
 10
123.440948385
 20
61.1385134569
 30
0.0
 11
123.440948385
 21
50.6485134569
 31
0.0
  0
LINE
  5
BF
100
AcDbEntity
  8
_5701_5___7G FAHRSTRAßENSCHIEBER
390
0
100
AcDbLine
 10
126.940948385
 20
61.1385134569
 30
0.0
 11
126.940948385
 21
50.6485134569
 31
0.0
  0
LINE
  5
C0
100
AcDbEntity
  8
_5701_5___7G FAHRSTRAßENSCHIEBER
390
0
100
AcDbLine
 10
156.940948385
 20
50.6485134569
 30
0.0
 11
162.690948385
 21
50.6485134569
 31
0.0
  0
LINE
  5
C1
100
AcDbEntity
  8
_5701_5___7G FAHRSTRAßENSCHIEBER
390
0
100
AcDbLine
 10
147.690948385
 20
223.1535805872
 30
0.0
 11
147.690948385
 21
206.1535805872
 31
0.0
  0
LINE
  5
C2
100
AcDbEntity
  8
_5701_5___7G FAHRSTRAßENSCHIEBER
390
0
100
AcDbLine
 10
147.690948385
 20
201.1535805872
 30
0.0
 11
147.690948385
 21
184.1535805872
 31
0.0
  0
LINE
  5
C3
100
AcDbEntity
  8
_5701_5___7G FAHRSTRAßENSCHIEBER
390
0
100
AcDbLine
 10
117.690948385
 20
223.1535805872
 30
0.0
 11
117.690948385
 21
206.1535805872
 31
0.0
  0
LINE
  5
C4
100
AcDbEntity
  8
5701_2___4G WEICHENSCHIEBER
390
0
100
AcDbLine
 10
57.690948385
 20
72.6485134569
 30
0.0
 11
57.690948385
 21
270.6485134569
 31
0.0
  0
LINE
  5
C5
100
AcDbEntity
  8
5701_2___4G WEICHENSCHIEBER
390
0
100
AcDbLine
 10
72.690948385
 20
72.6485134569
 30
0.0
 11
72.690948385
 21
270.6485134569
 31
0.0
  0
LINE
  5
C6
100
AcDbEntity
  8
5701_2___4G WEICHENSCHIEBER
390
0
100
AcDbLine
 10
57.690948385
 20
72.6485134569
 30
0.0
 11
72.690948385
 21
72.6485134569
 31
0.0
  0
LINE
  5
C7
100
AcDbEntity
  8
_5701_5___7G FAHRSTRAßENSCHIEBER
390
0
100
AcDbLine
 10
132.690948385
 20
50.6485134569
 30
0.0
 11
132.690948385
 21
270.6533024759
 31
0.0
  0
LINE
  5
C8
100
AcDbEntity
  8
_5701_5___7G FAHRSTRAßENSCHIEBER
390
0
100
AcDbLine
 10
117.690948385
 20
69.1535805872
 30
0.0
 11
117.690948385
 21
50.6485134569
 31
0.0
  0
CIRCLE
  5
C9
100
AcDbEntity
  8
5701_32P
390
0
100
AcDbCircle
 10
65.190948385
 20
118.6485134569
 30
0.0
 40
1.25
  0
CIRCLE
  5
CA
100
AcDbEntity
  8
5701_42P
390
0
  6
CONTINUOUS
100
AcDbCircle
 10
95.190948385
 20
118.6485134569
 30
0.0
 40
1.25
  0
ARC
  5
CB
100
AcDbEntity
  8
5701_2___4G WEICHENSCHIEBER
390
0
  6
CONTINUOUS
100
AcDbCircle
 10
95.190948385
 20
103.1485134569
 30
0.0
 40
1.75
100
AcDbArc
 50
0.0
 51
180.0
  0
CIRCLE
  5
CC
100
AcDbEntity
  8
5701_42P
390
0
  6
CONTINUOUS
100
AcDbCircle
 10
95.190948385
 20
140.6485134569
 30
0.0
 40
1.25
  0
CIRCLE
  5
CD
100
AcDbEntity
  8
5701_22P
390
0
100
AcDbCircle
 10
35.190948385
 20
118.6485134569
 30
0.0
 40
1.25
  0
ARC
  5
CE
100
AcDbEntity
  8
_5701_5___7G FAHRSTRAßENSCHIEBER
390
0
100
AcDbCircle
 10
121.690948385
 20
71.6535805872
 30
0.0
 40
2.5
100
AcDbArc
 50
270.0
 51
450.0
  0
CIRCLE
  5
CF
100
AcDbEntity
  8
5701_22P
390
0
100
AcDbCircle
 10
35.190948385
 20
140.6485134569
 30
0.0
 40
1.25
  0
CIRCLE
  5
D0
100
AcDbEntity
  8
5701_32P
390
0
100
AcDbCircle
 10
65.190948385
 20
140.6485134569
 30
0.0
 40
1.25
  0
ARC
  5
D1
100
AcDbEntity
  8
5701_2___4G WEICHENSCHIEBER
390
0
  6
CONTINUOUS
100
AcDbCircle
 10
95.190948385
 20
260.1485134569
 30
0.0
 40
1.75
100
AcDbArc
 50
180.0
 51
360.0
  0
ARC
  5
D2
100
AcDbEntity
  8
5701_2___4G WEICHENSCHIEBER
390
0
  6
CONTINUOUS
100
AcDbCircle
 10
35.190948385
 20
260.1485134569
 30
0.0
 40
1.75
100
AcDbArc
 50
180.0
 51
360.0
  0
ARC
  5
D3
100
AcDbEntity
  8
5701_2___4G WEICHENSCHIEBER
390
0
  6
CONTINUOUS
100
AcDbCircle
 10
65.190948385
 20
260.1485134569
 30
0.0
 40
1.75
100
AcDbArc
 50
180.0
 51
360.0
  0
ARC
  5
D4
100
AcDbEntity
  8
_5701_5___7G FAHRSTRAßENSCHIEBER
390
0
100
AcDbCircle
 10
185.190948385
 20
61.1385134569
 30
0.0
 40
1.75
100
AcDbArc
 50
0.0
 51
180.0
  0
LINE
  5
D5
100
AcDbEntity
  8
5701_2___4G WEICHENSCHIEBER
390
0
100
AcDbLine
 10
27.690948385
 20
50.6485134569
 30
0.0
 11
42.690948385
 21
50.6485134569
 31
0.0
  0
LINE
  5
D6
100
AcDbEntity
  8
5701_2___4G WEICHENSCHIEBER
390
0
100
AcDbLine
 10
42.690948385
 20
50.6485134569
 30
0.0
 11
42.690948385
 21
270.6485134569
 31
0.0
  0
LINE
  5
D7
100
AcDbEntity
  8
_5701_5___7G FAHRSTRAßENSCHIEBER
390
0
100
AcDbLine
 10
162.690948385
 20
50.6485134569
 30
0.0
 11
162.690948385
 21
248.6435134569
 31
0.0
  0
LINE
  5
D8
100
AcDbEntity
  8
5701_2___4G WEICHENSCHIEBER
390
0
100
AcDbLine
 10
57.690948385
 20
270.6485134569
 30
0.0
 11
63.440948385
 21
270.6485134569
 31
0.0
  0
LINE
  5
D9
100
AcDbEntity
  8
_5701_5___7G FAHRSTRAßENSCHIEBER
390
0
100
AcDbLine
 10
121.690948385
 20
74.1535805872
 30
0.0
 11
117.690948385
 21
74.1535805872
 31
0.0
  0
LINE
  5
DA
100
AcDbEntity
  8
_5701_5___7G FAHRSTRAßENSCHIEBER
390
0
100
AcDbLine
 10
121.690948385
 20
69.1535805872
 30
0.0
 11
117.690948385
 21
69.1535805872
 31
0.0
  0
LINE
  5
DB
100
AcDbEntity
  8
_5701_5___7G FAHRSTRAßENSCHIEBER
390
0
100
AcDbLine
 10
147.690948385
 20
69.1535805872
 30
0.0
 11
147.690948385
 21
50.6485134569
 31
0.0
  0
LINE
  5
DC
100
AcDbEntity
  8
5701_2___4G WEICHENSCHIEBER
390
0
  6
CONTINUOUS
100
AcDbLine
 10
87.690948385
 20
270.6485134569
 30
0.0
 11
93.440948385
 21
270.6485134569
 31
0.0
  0
LINE
  5
DD
100
AcDbEntity
  8
5701_2___4G WEICHENSCHIEBER
390
0
  6
CONTINUOUS
100
AcDbLine
 10
102.690948385
 20
92.6485134569
 30
0.0
 11
102.690948385
 21
270.6485134569
 31
0.0
  0
LINE
  5
DE
100
AcDbEntity
  8
5701_2___4G WEICHENSCHIEBER
390
0
  6
CONTINUOUS
100
AcDbLine
 10
96.940948385
 20
103.1485134569
 30
0.0
 11
96.940948385
 21
92.6485134569
 31
0.0
  0
LINE
  5
DF
100
AcDbEntity
  8
5701_2___4G WEICHENSCHIEBER
390
0
  6
CONTINUOUS
100
AcDbLine
 10
93.440948385
 20
103.1485134569
 30
0.0
 11
93.440948385
 21
92.6285134569
 31
0.0
  0
LINE
  5
E0
100
AcDbEntity
  8
5701_2___4G WEICHENSCHIEBER
390
0
  6
CONTINUOUS
100
AcDbLine
 10
87.690948385
 20
92.6285134569
 30
0.0
 11
87.690948385
 21
270.6485134569
 31
0.0
  0
LINE
  5
E1
100
AcDbEntity
  8
_5701_5___7G FAHRSTRAßENSCHIEBER
390
0
100
AcDbLine
 10
147.690948385
 20
91.1535805872
 30
0.0
 11
147.690948385
 21
74.1535805872
 31
0.0
  0
LINE
  5
E2
100
AcDbEntity
  8
5701_2___4G WEICHENSCHIEBER
390
0
100
AcDbLine
 10
27.690948385
 20
270.6485134569
 30
0.0
 11
33.440948385
 21
270.6485134569
 31
0.0
  0
LINE
  5
E3
100
AcDbEntity
  8
5701_2___4G WEICHENSCHIEBER
390
0
  6
CONTINUOUS
100
AcDbLine
 10
93.440948385
 20
260.1485134569
 30
0.0
 11
93.440948385
 21
270.6485134569
 31
0.0
  0
LINE
  5
E4
100
AcDbEntity
  8
5701_2___4G WEICHENSCHIEBER
390
0
  6
CONTINUOUS
100
AcDbLine
 10
96.940948385
 20
260.1485134569
 30
0.0
 11
96.940948385
 21
270.6485134569
 31
0.0
  0
LINE
  5
E5
100
AcDbEntity
  8
5701_2___4G WEICHENSCHIEBER
390
0
  6
CONTINUOUS
100
AcDbLine
 10
33.440948385
 20
260.1485134569
 30
0.0
 11
33.440948385
 21
270.6485134569
 31
0.0
  0
LINE
  5
E6
100
AcDbEntity
  8
5701_2___4G WEICHENSCHIEBER
390
0
  6
CONTINUOUS
100
AcDbLine
 10
36.940948385
 20
260.1485134569
 30
0.0
 11
36.940948385
 21
270.6485134569
 31
0.0
  0
LINE
  5
E7
100
AcDbEntity
  8
5701_2___4G WEICHENSCHIEBER
390
0
  6
CONTINUOUS
100
AcDbLine
 10
63.440948385
 20
260.1485134569
 30
0.0
 11
63.440948385
 21
270.6485134569
 31
0.0
  0
LINE
  5
E8
100
AcDbEntity
  8
5701_2___4G WEICHENSCHIEBER
390
0
  6
CONTINUOUS
100
AcDbLine
 10
66.940948385
 20
260.1485134569
 30
0.0
 11
66.940948385
 21
270.6485134569
 31
0.0
  0
LINE
  5
E9
100
AcDbEntity
  8
5701_2___4G WEICHENSCHIEBER
390
0
100
AcDbLine
 10
36.940948385
 20
270.6485134569
 30
0.0
 11
42.690948385
 21
270.6485134569
 31
0.0
  0
LINE
  5
EA
100
AcDbEntity
  8
5701_2___4G WEICHENSCHIEBER
390
0
  6
CONTINUOUS
100
AcDbLine
 10
96.940948385
 20
270.6485134569
 30
0.0
 11
102.690948385
 21
270.6485134569
 31
0.0
  0
LINE
  5
EB
100
AcDbEntity
  8
5701_2___4G WEICHENSCHIEBER
390
0
100
AcDbLine
 10
66.940948385
 20
270.6485134569
 30
0.0
 11
72.690948385
 21
270.6485134569
 31
0.0
  0
LINE
  5
EC
100
AcDbEntity
  8
_5701_5___7G FAHRSTRAßENSCHIEBER
390
0
100
AcDbLine
 10
147.690948385
 20
135.1535805872
 30
0.0
 11
147.690948385
 21
118.1535805872
 31
0.0
  0
LINE
  5
ED
100
AcDbEntity
  8
_5701_5___7G FAHRSTRAßENSCHIEBER
390
0
100
AcDbLine
 10
147.690948385
 20
113.1535805872
 30
0.0
 11
147.690948385
 21
96.1535805872
 31
0.0
  0
LINE
  5
EE
100
AcDbEntity
  8
_5701_5___7G FAHRSTRAßENSCHIEBER
390
0
100
AcDbLine
 10
117.690948385
 20
135.1535805872
 30
0.0
 11
117.690948385
 21
118.1535805872
 31
0.0
  0
LINE
  5
EF
100
AcDbEntity
  8
5701_2___4G WEICHENSCHIEBER
390
0
  6
CONTINUOUS
100
AcDbLine
 10
87.690948385
 20
92.6285134569
 30
0.0
 11
93.440948385
 21
92.6285134569
 31
0.0
  0
LINE
  5
F0
100
AcDbEntity
  8
5701_2___4G WEICHENSCHIEBER
390
0
  6
CONTINUOUS
100
AcDbLine
 10
96.940948385
 20
92.6485134569
 30
0.0
 11
102.690948385
 21
92.6485134569
 31
0.0
  0
LINE
  5
F1
100
AcDbEntity
  8
5701_2___4G WEICHENSCHIEBER
390
0
100
AcDbLine
 10
27.690948385
 20
50.6485134569
 30
0.0
 11
27.690948385
 21
270.6485134569
 31
0.0
  0
LINE
  5
F2
100
AcDbEntity
  8
_5701_5___7G FAHRSTRAßENSCHIEBER
390
0
100
AcDbLine
 10
177.690948385
 20
50.6485134569
 30
0.0
 11
183.440948385
 21
50.6485134569
 31
0.0
  0
LINE
  5
F3
100
AcDbEntity
  8
_5701_5___7G FAHRSTRAßENSCHIEBER
390
0
100
AcDbLine
 10
192.690948385
 20
50.6485134569
 30
0.0
 11
192.690948385
 21
228.1485134569
 31
0.0
  0
CIRCLE
  5
F4
100
AcDbEntity
  8
5701_22P
390
0
100
AcDbCircle
 10
35.190948385
 20
228.6485134569
 30
0.0
 40
1.25
  0
CIRCLE
  5
F5
100
AcDbEntity
  8
5701_32P
390
0
100
AcDbCircle
 10
65.190948385
 20
228.6485134569
 30
0.0
 40
1.25
  0
CIRCLE
  5
F6
100
AcDbEntity
  8
5701_22P
390
0
100
AcDbCircle
 10
35.190948385
 20
206.6485134569
 30
0.0
 40
1.25
  0
CIRCLE
  5
F7
100
AcDbEntity
  8
5701_32P
390
0
100
AcDbCircle
 10
65.190948385
 20
206.6485134569
 30
0.0
 40
1.25
  0
CIRCLE
  5
F8
100
AcDbEntity
  8
5701_22P
390
0
100
AcDbCircle
 10
35.190948385
 20
162.6485134569
 30
0.0
 40
1.25
  0
CIRCLE
  5
F9
100
AcDbEntity
  8
5701_32P
390
0
100
AcDbCircle
 10
65.190948385
 20
162.6485134569
 30
0.0
 40
1.25
  0
CIRCLE
  5
FA
100
AcDbEntity
  8
5701_32P
390
0
100
AcDbCircle
 10
65.190948385
 20
184.6485134569
 30
0.0
 40
1.25
  0
CIRCLE
  5
FB
100
AcDbEntity
  8
5701_22P
390
0
100
AcDbCircle
 10
35.190948385
 20
184.6485134569
 30
0.0
 40
1.25
  0
CIRCLE
  5
FC
100
AcDbEntity
  8
5701_42P
390
0
  6
CONTINUOUS
100
AcDbCircle
 10
95.190948385
 20
162.6485134569
 30
0.0
 40
1.25
  0
CIRCLE
  5
FD
100
AcDbEntity
  8
5701_42P
390
0
  6
CONTINUOUS
100
AcDbCircle
 10
95.190948385
 20
184.6485134569
 30
0.0
 40
1.25
  0
CIRCLE
  5
FE
100
AcDbEntity
  8
5701_42P
390
0
  6
CONTINUOUS
100
AcDbCircle
 10
95.190948385
 20
206.6485134569
 30
0.0
 40
1.25
  0
CIRCLE
  5
FF
100
AcDbEntity
  8
5701_42P
390
0
  6
CONTINUOUS
100
AcDbCircle
 10
95.190948385
 20
228.6485134569
 30
0.0
 40
1.25
  0
ARC
  5
100
100
AcDbEntity
  8
_5701_5___7G FAHRSTRAßENSCHIEBER
390
0
100
AcDbCircle
 10
185.190948385
 20
217.6585134569
 30
0.0
 40
1.75
100
AcDbArc
 50
180.0
 51
360.0
  0
LINE
  5
101
100
AcDbEntity
  8
_5701_5___7G FAHRSTRAßENSCHIEBER
390
0
100
AcDbLine
 10
177.690948385
 20
157.1535805872
 30
0.0
 11
177.690948385
 21
140.1535805872
 31
0.0
  0
LINE
  5
102
100
AcDbEntity
  8
_5701_5___7G FAHRSTRAßENSCHIEBER
390
0
100
AcDbLine
 10
186.940948385
 20
50.6485134569
 30
0.0
 11
192.690948385
 21
50.6485134569
 31
0.0
  0
LINE
  5
103
100
AcDbEntity
  8
_5701_5___7G FAHRSTRAßENSCHIEBER
390
0
100
AcDbLine
 10
183.440948385
 20
61.1385134569
 30
0.0
 11
183.440948385
 21
50.6485134569
 31
0.0
  0
LINE
  5
104
100
AcDbEntity
  8
_5701_5___7G FAHRSTRAßENSCHIEBER
390
0
100
AcDbLine
 10
186.940948385
 20
61.1385134569
 30
0.0
 11
186.940948385
 21
50.6485134569
 31
0.0
  0
LINE
  5
105
100
AcDbEntity
  8
_5701_5___7G FAHRSTRAßENSCHIEBER
390
0
100
AcDbLine
 10
177.690948385
 20
91.1535805872
 30
0.0
 11
177.690948385
 21
74.1535805872
 31
0.0
  0
LINE
  5
106
100
AcDbEntity
  8
_5701_5___7G FAHRSTRAßENSCHIEBER
390
0
100
AcDbLine
 10
177.690948385
 20
179.1535805872
 30
0.0
 11
177.690948385
 21
162.1535805872
 31
0.0
  0
LINE
  5
107
100
AcDbEntity
  8
_5701_5___7G FAHRSTRAßENSCHIEBER
390
0
100
AcDbLine
 10
177.690948385
 20
113.1535805872
 30
0.0
 11
177.690948385
 21
96.1535805872
 31
0.0
  0
LINE
  5
108
100
AcDbEntity
  8
_5701_5___7G FAHRSTRAßENSCHIEBER
390
0
100
AcDbLine
 10
177.690948385
 20
69.1535805872
 30
0.0
 11
177.690948385
 21
50.6485134569
 31
0.0
  0
LINE
  5
109
100
AcDbEntity
  8
_5701_5___7G FAHRSTRAßENSCHIEBER
390
0
100
AcDbLine
 10
183.190948385
 20
71.6535805872
 30
0.0
 11
183.190948385
 21
71.105505749
 31
0.0
  0
LINE
  5
10A
100
AcDbEntity
  8
_5701_5___7G FAHRSTRAßENSCHIEBER
390
0
100
AcDbLine
 10
177.690948385
 20
228.1485134569
 30
0.0
 11
177.690948385
 21
206.1535805872
 31
0.0
  0
LINE
  5
10B
100
AcDbEntity
  8
_5701_5___7G FAHRSTRAßENSCHIEBER
390
0
100
AcDbLine
 10
177.690948385
 20
135.1535805872
 30
0.0
 11
177.690948385
 21
118.1535805872
 31
0.0
  0
LINE
  5
10C
100
AcDbEntity
  8
_5701_5___7G FAHRSTRAßENSCHIEBER
390
0
100
AcDbLine
 10
192.690948385
 20
228.1485134569
 30
0.0
 11
186.940948385
 21
228.1485134569
 31
0.0
  0
LINE
  5
10D
100
AcDbEntity
  8
_5701_5___7G FAHRSTRAßENSCHIEBER
390
0
100
AcDbLine
 10
186.940948385
 20
217.6585134569
 30
0.0
 11
186.940948385
 21
228.1485134569
 31
0.0
  0
LINE
  5
10E
100
AcDbEntity
  8
_5701_5___7G FAHRSTRAßENSCHIEBER
390
0
100
AcDbLine
 10
183.440948385
 20
217.6585134569
 30
0.0
 11
183.440948385
 21
228.1485134569
 31
0.0
  0
LINE
  5
10F
100
AcDbEntity
  8
_5701_5___7G FAHRSTRAßENSCHIEBER
390
0
100
AcDbLine
 10
183.440948385
 20
228.1485134569
 30
0.0
 11
177.690948385
 21
228.1485134569
 31
0.0
  0
CIRCLE
  5
110
100
AcDbEntity
  8
5701_22P
390
0
100
AcDbCircle
 10
29.690737404
 20
55.6487244379
 30
0.0
 40
1.25
  0
CIRCLE
  5
111
100
AcDbEntity
  8
5701_32P
390
0
100
AcDbCircle
 10
59.690948385
 20
77.6485134569
 30
0.0
 40
1.25
  0
CIRCLE
  5
112
100
AcDbEntity
  8
5701_52P
390
0
  6
CONTINUOUS
100
AcDbCircle
 10
130.6912264963
 20
265.6533024759
 30
0.0
 40
1.25
  0
CIRCLE
  5
113
100
AcDbEntity
  8
5701_62P
390
0
  6
CONTINUOUS
100
AcDbCircle
 10
160.6910155153
 20
243.6535134569
 30
0.0
 40
1.25
  0
LINE
  5
114
100
AcDbEntity
  8
_5701_5___7G FAHRSTRAßENSCHIEBER
390
0
100
AcDbLine
 10
117.690948385
 20
91.1535805872
 30
0.0
 11
117.690948385
 21
74.1535805872
 31
0.0
  0
LINE
  5
115
100
AcDbEntity
  8
_5701_5___7G FAHRSTRAßENSCHIEBER
390
0
100
AcDbLine
 10
117.690948385
 20
113.1535805872
 30
0.0
 11
117.690948385
 21
96.1535805872
 31
0.0
  0
LINE
  5
116
100
AcDbEntity
  8
_5701_5___7G FAHRSTRAßENSCHIEBER
390
0
100
AcDbLine
 10
177.690948385
 20
201.1535805872
 30
0.0
 11
177.690948385
 21
184.1535805872
 31
0.0
  0
TEXT
  5
117
100
AcDbEntity
  8
BESCHRIFTUNG
390
0
100
AcDbText
 10
27.6536702392
 20
278.4122878829
 30
0.0
 40
2.5
  1
5701.22
 41
1.1351390947
  7
Arial
100
AcDbText
  0
TEXT
  5
118
100
AcDbEntity
  8
BESCHRIFTUNG
390
0
100
AcDbText
 10
57.6536702392
 20
278.4122878829
 30
0.0
 40
2.5
  1
5701.32
 41
1.1351392296
  7
Arial
100
AcDbText
  0
TEXT
  5
119
100
AcDbEntity
  8
BESCHRIFTUNG
390
0
100
AcDbText
 10
87.6536702392
 20
278.4122878829
 30
0.0
 40
2.5
  1
5701.42
 41
1.1351392071
  7
Arial
100
AcDbText
  0
TEXT
  5
11A
100
AcDbEntity
  8
BESCHRIFTUNG
390
0
100
AcDbText
 10
117.6536702392
 20
278.4122878829
 30
0.0
 40
2.5
  1
5701.52
 41
1.1351391172
  7
Arial
100
AcDbText
  0
TEXT
  5
11B
100
AcDbEntity
  8
BESCHRIFTUNG
390
0
100
AcDbText
 10
147.6536702392
 20
278.4122878829
 30
0.0
 40
2.5
  1
5701.62
 41
1.1351392071
  7
Arial
100
AcDbText
  0
TEXT
  5
11C
100
AcDbEntity
  8
BESCHRIFTUNG
390
0
100
AcDbText
 10
177.6536702392
 20
278.4122878829
 30
0.0
 40
2.5
  1
5701.72
 41
1.1351391397
  7
Arial
100
AcDbText
  0
LINE
  5
11D
100
AcDbEntity
  8
_5701_5___7G FAHRSTRAßENSCHIEBER
390
0
100
AcDbLine
 10
147.690948385
 20
157.1535805872
 30
0.0
 11
147.690948385
 21
140.1535805872
 31
0.0
  0
CIRCLE
  5
11E
100
AcDbEntity
  8
5701_22P
390
0
  6
PHANTOM
100
AcDbCircle
 10
27.690948385
 20
271.6485134569
 30
0.0
 40
0.5
  0
CIRCLE
  5
11F
100
AcDbEntity
  8
5701_22P
390
0
  6
PHANTOM
100
AcDbCircle
 10
27.690948385
 20
49.6485134569
 30
0.0
 40
1.0
  0
CIRCLE
  5
120
100
AcDbEntity
  8
5701_32P
390
0
  6
PHANTOM
100
AcDbCircle
 10
57.690948385
 20
71.6485134569
 30
0.0
 40
1.0
  0
CIRCLE
  5
121
100
AcDbEntity
  8
5701_32P
390
0
  6
PHANTOM
100
AcDbCircle
 10
57.690948385
 20
271.6485134569
 30
0.0
 40
0.5
  0
CIRCLE
  5
122
100
AcDbEntity
  8
5701_42P
390
0
  6
PHANTOM
100
AcDbCircle
 10
87.690948385
 20
271.6485134569
 30
0.0
 40
0.5
  0
CIRCLE
  5
123
100
AcDbEntity
  8
5701_42P
390
0
  6
PHANTOM
100
AcDbCircle
 10
87.690948385
 20
91.6285134569
 30
0.0
 40
1.0
  0
CIRCLE
  5
124
100
AcDbEntity
  8
5701_52P
390
0
  6
PHANTOM
100
AcDbCircle
 10
117.690948385
 20
49.6485134569
 30
0.0
 40
1.0
  0
CIRCLE
  5
125
100
AcDbEntity
  8
5701_52P
390
0
  6
PHANTOM
100
AcDbCircle
 10
117.690948385
 20
271.6533024759
 30
0.0
 40
0.5
  0
CIRCLE
  5
126
100
AcDbEntity
  8
5701_62P
390
0
  6
PHANTOM
100
AcDbCircle
 10
147.690948385
 20
249.6435134569
 30
0.0
 40
0.5
  0
CIRCLE
  5
127
100
AcDbEntity
  8
5701_62P
390
0
  6
PHANTOM
100
AcDbCircle
 10
147.690948385
 20
49.6485134569
 30
0.0
 40
1.0
  0
CIRCLE
  5
128
100
AcDbEntity
  8
5701_72P
390
0
  6
PHANTOM
100
AcDbCircle
 10
177.690948385
 20
49.6485134569
 30
0.0
 40
1.0
  0
CIRCLE
  5
129
100
AcDbEntity
  8
5701_72P
390
0
  6
PHANTOM
100
AcDbCircle
 10
177.690948385
 20
229.1485134569
 30
0.0
 40
0.5
  0
CIRCLE
  5
12A
100
AcDbEntity
  8
5701_22P
390
0
100
AcDbCircle
 10
35.190948385
 20
250.6485134569
 30
0.0
 40
1.25
  0
CIRCLE
  5
12B
100
AcDbEntity
  8
5701_32P
390
0
100
AcDbCircle
 10
65.190948385
 20
250.6485134569
 30
0.0
 40
1.25
  0
CIRCLE
  5
12C
100
AcDbEntity
  8
5701_42P
390
0
  6
CONTINUOUS
100
AcDbCircle
 10
95.190948385
 20
250.6485134569
 30
0.0
 40
1.25
  0
LINE
  5
12D
100
AcDbEntity
  8
5701_22P
390
0
  6
DIVIDE
100
AcDbLine
 10
27.690948385
 20
271.6485134569
 30
0.0
 11
34.440948385
 21
271.6485134569
 31
0.0
  0
LINE
  5
12E
100
AcDbEntity
  8
5701_22P
390
0
  6
DIVIDE
100
AcDbLine
 10
35.940948385
 20
271.6485134569
 30
0.0
 11
43.690948385
 21
271.6485134569
 31
0.0
  0
LINE
  5
12F
100
AcDbEntity
  8
5701_22P
390
0
100
AcDbLine
 10
34.440948385
 20
260.1485134569
 30
0.0
 11
34.440948385
 21
271.6485134569
 31
0.0
  0
LINE
  5
130
100
AcDbEntity
  8
5701_22P
390
0
100
AcDbLine
 10
35.940948385
 20
260.1485134569
 30
0.0
 11
35.940948385
 21
271.6485134569
 31
0.0
  0
ARC
  5
131
100
AcDbEntity
  8
5701_22P
390
0
100
AcDbCircle
 10
35.190948385
 20
260.1485134569
 30
0.0
 40
0.75
100
AcDbArc
 50
180.0
 51
360.0
  0
LINE
  5
132
100
AcDbEntity
  8
5701_22P
390
0
  6
DIVIDE
100
AcDbLine
 10
27.690948385
 20
49.6485134569
 30
0.0
 11
43.690948385
 21
49.6485134569
 31
0.0
  0
LINE
  5
133
100
AcDbEntity
  8
5701_32P
390
0
  6
DIVIDE
100
AcDbLine
 10
57.690948385
 20
71.6485134569
 30
0.0
 11
73.690948385
 21
71.6485134569
 31
0.0
  0
LINE
  5
134
100
AcDbEntity
  8
5701_32P
390
0
  6
DIVIDE
100
AcDbLine
 10
57.690948385
 20
271.6485134569
 30
0.0
 11
64.440948385
 21
271.6485134569
 31
0.0
  0
LINE
  5
135
100
AcDbEntity
  8
5701_32P
390
0
  6
DIVIDE
100
AcDbLine
 10
65.940948385
 20
271.6485134569
 30
0.0
 11
73.690948385
 21
271.6485134569
 31
0.0
  0
LINE
  5
136
100
AcDbEntity
  8
5701_32P
390
0
100
AcDbLine
 10
64.440948385
 20
260.1485134569
 30
0.0
 11
64.440948385
 21
271.6485134569
 31
0.0
  0
LINE
  5
137
100
AcDbEntity
  8
5701_32P
390
0
100
AcDbLine
 10
65.940948385
 20
260.1485134569
 30
0.0
 11
65.940948385
 21
271.6485134569
 31
0.0
  0
ARC
  5
138
100
AcDbEntity
  8
5701_32P
390
0
100
AcDbCircle
 10
65.190948385
 20
260.1485134569
 30
0.0
 40
0.75
100
AcDbArc
 50
180.0
 51
360.0
  0
LINE
  5
139
100
AcDbEntity
  8
5701_42P
390
0
  6
DIVIDE
100
AcDbLine
 10
87.690948385
 20
271.6485134569
 30
0.0
 11
94.440948385
 21
271.6485134569
 31
0.0
  0
LINE
  5
13A
100
AcDbEntity
  8
5701_42P
390
0
  6
DIVIDE
100
AcDbLine
 10
95.940948385
 20
271.6485134569
 30
0.0
 11
103.690948385
 21
271.6485134569
 31
0.0
  0
LINE
  5
13B
100
AcDbEntity
  8
5701_42P
390
0
100
AcDbLine
 10
95.940948385
 20
260.1485134569
 30
0.0
 11
95.940948385
 21
271.6485134569
 31
0.0
  0
LINE
  5
13C
100
AcDbEntity
  8
5701_42P
390
0
100
AcDbLine
 10
94.440948385
 20
260.1485134569
 30
0.0
 11
94.440948385
 21
271.6485134569
 31
0.0
  0
ARC
  5
13D
100
AcDbEntity
  8
5701_42P
390
0
100
AcDbCircle
 10
95.190948385
 20
260.1485134569
 30
0.0
 40
0.75
100
AcDbArc
 50
180.0
 51
360.0
  0
LINE
  5
13E
100
AcDbEntity
  8
5701_42P
390
0
  6
DIVIDE
100
AcDbLine
 10
87.690948385
 20
91.6285134569
 30
0.0
 11
94.440948385
 21
91.6285134569
 31
0.0
  0
LINE
  5
13F
100
AcDbEntity
  8
5701_42P
390
0
  6
DIVIDE
100
AcDbLine
 10
95.940948385
 20
91.6485134569
 30
0.0
 11
103.690948385
 21
91.6485134569
 31
0.0
  0
LINE
  5
140
100
AcDbEntity
  8
5701_42P
390
0
100
AcDbLine
 10
95.940948385
 20
103.1485134569
 30
0.0
 11
95.940948385
 21
91.6485134569
 31
0.0
  0
LINE
  5
141
100
AcDbEntity
  8
5701_42P
390
0
100
AcDbLine
 10
94.440948385
 20
103.1485134569
 30
0.0
 11
94.440948385
 21
91.6285134569
 31
0.0
  0
ARC
  5
142
100
AcDbEntity
  8
5701_42P
390
0
100
AcDbCircle
 10
95.190948385
 20
103.1485134569
 30
0.0
 40
0.75
100
AcDbArc
 50
0.0
 51
180.0
  0
LINE
  5
143
100
AcDbEntity
  8
5701_52P
390
0
  6
DIVIDE
100
AcDbLine
 10
125.940948385
 20
49.6485134569
 30
0.0
 11
133.690948385
 21
49.6485134569
 31
0.0
  0
LINE
  5
144
100
AcDbEntity
  8
5701_52P
390
0
100
AcDbLine
 10
125.940948385
 20
61.1385134569
 30
0.0
 11
125.940948385
 21
49.6485134569
 31
0.0
  0
LINE
  5
145
100
AcDbEntity
  8
5701_52P
390
0
100
AcDbLine
 10
124.440948385
 20
61.1385134569
 30
0.0
 11
124.440948385
 21
49.6485134569
 31
0.0
  0
ARC
  5
146
100
AcDbEntity
  8
5701_52P
390
0
100
AcDbCircle
 10
125.190948385
 20
61.1385134569
 30
0.0
 40
0.75
100
AcDbArc
 50
0.0
 51
180.0
  0
LINE
  5
147
100
AcDbEntity
  8
5701_52P
390
0
  6
DIVIDE
100
AcDbLine
 10
117.690948385
 20
49.6485134569
 30
0.0
 11
124.440948385
 21
49.6485134569
 31
0.0
  0
LINE
  5
148
100
AcDbEntity
  8
5701_52P
390
0
100
AcDbLine
 10
121.690948385
 20
70.1535805872
 30
0.0
 11
116.690948385
 21
70.1535805872
 31
0.0
  0
LINE
  5
149
100
AcDbEntity
  8
5701_52P
390
0
100
AcDbLine
 10
121.690948385
 20
73.1535805872
 30
0.0
 11
116.690948385
 21
73.1535805872
 31
0.0
  0
ARC
  5
14A
100
AcDbEntity
  8
5701_52P
390
0
100
AcDbCircle
 10
121.690948385
 20
71.6535805872
 30
0.0
 40
1.5
100
AcDbArc
 50
270.0
 51
450.0
  0
LINE
  5
14B
100
AcDbEntity
  8
5701_52P
390
0
  6
DIVIDE
100
AcDbLine
 10
133.690948385
 20
271.6533024759
 30
0.0
 11
117.690948385
 21
271.6533024759
 31
0.0
  0
LINE
  5
14C
100
AcDbEntity
  8
5701_62P
390
0
  6
DIVIDE
100
AcDbLine
 10
163.690948385
 20
249.6435134569
 30
0.0
 11
147.690948385
 21
249.6435134569
 31
0.0
  0
LINE
  5
14D
100
AcDbEntity
  8
5701_62P
390
0
  6
DIVIDE
100
AcDbLine
 10
147.690948385
 20
49.6485134569
 30
0.0
 11
154.440948385
 21
49.6485134569
 31
0.0
  0
LINE
  5
14E
100
AcDbEntity
  8
5701_62P
390
0
  6
DIVIDE
100
AcDbLine
 10
155.940948385
 20
49.6485134569
 30
0.0
 11
163.690948385
 21
49.6485134569
 31
0.0
  0
LINE
  5
14F
100
AcDbEntity
  8
5701_62P
390
0
100
AcDbLine
 10
154.440948385
 20
61.1385134569
 30
0.0
 11
154.440948385
 21
49.6485134569
 31
0.0
  0
LINE
  5
150
100
AcDbEntity
  8
5701_62P
390
0
100
AcDbLine
 10
155.940948385
 20
61.1385134569
 30
0.0
 11
155.940948385
 21
49.6485134569
 31
0.0
  0
ARC
  5
151
100
AcDbEntity
  8
5701_62P
390
0
100
AcDbCircle
 10
155.190948385
 20
61.1385134569
 30
0.0
 40
0.75
100
AcDbArc
 50
0.0
 51
180.0
  0
LINE
  5
152
100
AcDbEntity
  8
5701_72P
390
0
  6
DIVIDE
100
AcDbLine
 10
177.690948385
 20
49.6485134569
 30
0.0
 11
184.440948385
 21
49.6485134569
 31
0.0
  0
LINE
  5
153
100
AcDbEntity
  8
5701_72P
390
0
100
AcDbLine
 10
184.440948385
 20
61.1385134569
 30
0.0
 11
184.440948385
 21
49.6485134569
 31
0.0
  0
LINE
  5
154
100
AcDbEntity
  8
5701_72P
390
0
100
AcDbLine
 10
185.940948385
 20
61.1385134569
 30
0.0
 11
185.940948385
 21
49.6485134569
 31
0.0
  0
ARC
  5
155
100
AcDbEntity
  8
5701_72P
390
0
100
AcDbCircle
 10
185.190948385
 20
61.1385134569
 30
0.0
 40
0.75
100
AcDbArc
 50
0.0
 51
180.0
  0
LINE
  5
156
100
AcDbEntity
  8
5701_72P
390
0
  6
DIVIDE
100
AcDbLine
 10
185.940948385
 20
49.6485134569
 30
0.0
 11
193.690948385
 21
49.6485134569
 31
0.0
  0
LINE
  5
157
100
AcDbEntity
  8
5701_72P
390
0
  6
DIVIDE
100
AcDbLine
 10
184.440948385
 20
229.1485134569
 30
0.0
 11
177.690948385
 21
229.1485134569
 31
0.0
  0
LINE
  5
158
100
AcDbEntity
  8
5701_72P
390
0
100
AcDbLine
 10
184.440948385
 20
217.6585134569
 30
0.0
 11
184.440948385
 21
229.1485134569
 31
0.0
  0
LINE
  5
159
100
AcDbEntity
  8
5701_72P
390
0
100
AcDbLine
 10
185.940948385
 20
217.6585134569
 30
0.0
 11
185.940948385
 21
229.1485134569
 31
0.0
  0
ARC
  5
15A
100
AcDbEntity
  8
5701_72P
390
0
100
AcDbCircle
 10
185.190948385
 20
217.6585134569
 30
0.0
 40
0.75
100
AcDbArc
 50
180.0
 51
360.0
  0
LINE
  5
15B
100
AcDbEntity
  8
5701_72P
390
0
  6
DIVIDE
100
AcDbLine
 10
193.690948385
 20
229.1485134569
 30
0.0
 11
185.940948385
 21
229.1485134569
 31
0.0
  0
ARC
  5
15C
100
AcDbEntity
  8
5701_52P
390
0
  6
HIDDEN
100
AcDbCircle
 10
104.8754301889
 20
82.6535805872
 30
0.0
 40
15.1610181137
100
AcDbArc
 50
321.19976595
 51
398.80023405
  0
ARC
  5
15D
100
AcDbEntity
  8
5701_62P
390
0
  6
HIDDEN
100
AcDbCircle
 10
134.8754301889
 20
82.6535805872
 30
0.0
 40
15.1610181137
100
AcDbArc
 50
321.19976595
 51
398.80023405
  0
ARC
  5
15E
100
AcDbEntity
  8
5701_72P
390
0
  6
HIDDEN
100
AcDbCircle
 10
164.8754301889
 20
82.6535805872
 30
0.0
 40
15.1610181137
100
AcDbArc
 50
321.19976595
 51
398.80023405
  0
ARC
  5
15F
100
AcDbEntity
  8
5701_52P
390
0
  6
HIDDEN
100
AcDbCircle
 10
104.8754301889
 20
104.6535805872
 30
0.0
 40
15.1610181137
100
AcDbArc
 50
321.19976595
 51
398.80023405
  0
ARC
  5
160
100
AcDbEntity
  8
5701_62P
390
0
  6
HIDDEN
100
AcDbCircle
 10
134.8754301889
 20
104.6535805872
 30
0.0
 40
15.1610181137
100
AcDbArc
 50
321.19976595
 51
398.80023405
  0
ARC
  5
161
100
AcDbEntity
  8
5701_72P
390
0
  6
HIDDEN
100
AcDbCircle
 10
164.8754301889
 20
104.6535805872
 30
0.0
 40
15.1610181137
100
AcDbArc
 50
321.19976595
 51
398.80023405
  0
ARC
  5
162
100
AcDbEntity
  8
5701_52P
390
0
  6
HIDDEN
100
AcDbCircle
 10
104.8754301889
 20
126.6535805872
 30
0.0
 40
15.1610181137
100
AcDbArc
 50
321.19976595
 51
398.80023405
  0
ARC
  5
163
100
AcDbEntity
  8
5701_62P
390
0
  6
HIDDEN
100
AcDbCircle
 10
134.8754301889
 20
126.6535805872
 30
0.0
 40
15.1610181137
100
AcDbArc
 50
321.19976595
 51
398.80023405
  0
ARC
  5
164
100
AcDbEntity
  8
5701_72P
390
0
  6
HIDDEN
100
AcDbCircle
 10
164.8754301889
 20
126.6535805872
 30
0.0
 40
15.1610181137
100
AcDbArc
 50
321.19976595
 51
398.80023405
  0
ARC
  5
165
100
AcDbEntity
  8
5701_52P
390
0
  6
HIDDEN
100
AcDbCircle
 10
104.8754301889
 20
148.6535805872
 30
0.0
 40
15.1610181137
100
AcDbArc
 50
321.19976595
 51
398.80023405
  0
ARC
  5
166
100
AcDbEntity
  8
5701_62P
390
0
  6
HIDDEN
100
AcDbCircle
 10
134.8754301889
 20
148.6535805872
 30
0.0
 40
15.1610181137
100
AcDbArc
 50
321.19976595
 51
398.80023405
  0
ARC
  5
167
100
AcDbEntity
  8
5701_72P
390
0
  6
HIDDEN
100
AcDbCircle
 10
164.8754301889
 20
148.6535805872
 30
0.0
 40
15.1610181137
100
AcDbArc
 50
321.19976595
 51
398.80023405
  0
ARC
  5
168
100
AcDbEntity
  8
5701_52P
390
0
  6
HIDDEN
100
AcDbCircle
 10
104.8754301889
 20
170.6535805872
 30
0.0
 40
15.1610181137
100
AcDbArc
 50
321.19976595
 51
398.80023405
  0
ARC
  5
169
100
AcDbEntity
  8
5701_62P
390
0
  6
HIDDEN
100
AcDbCircle
 10
134.8754301889
 20
170.6535805872
 30
0.0
 40
15.1610181137
100
AcDbArc
 50
321.19976595
 51
398.80023405
  0
ARC
  5
16A
100
AcDbEntity
  8
5701_72P
390
0
  6
HIDDEN
100
AcDbCircle
 10
164.8754301889
 20
170.6535805872
 30
0.0
 40
15.1610181137
100
AcDbArc
 50
321.19976595
 51
398.80023405
  0
ARC
  5
16B
100
AcDbEntity
  8
5701_52P
390
0
  6
HIDDEN
100
AcDbCircle
 10
104.8754301889
 20
192.6535805872
 30
0.0
 40
15.1610181137
100
AcDbArc
 50
321.19976595
 51
398.80023405
  0
ARC
  5
16C
100
AcDbEntity
  8
5701_62P
390
0
  6
HIDDEN
100
AcDbCircle
 10
134.8754301889
 20
192.6535805872
 30
0.0
 40
15.1610181137
100
AcDbArc
 50
321.19976595
 51
398.80023405
  0
ARC
  5
16D
100
AcDbEntity
  8
5701_72P
390
0
  6
HIDDEN
100
AcDbCircle
 10
164.8754301889
 20
192.6535805872
 30
0.0
 40
15.1610181137
100
AcDbArc
 50
321.19976595
 51
398.80023405
  0
ARC
  5
16E
100
AcDbEntity
  8
5701_52P
390
0
  6
HIDDEN
100
AcDbCircle
 10
104.8754301889
 20
214.6535805872
 30
0.0
 40
15.1610181137
100
AcDbArc
 50
321.19976595
 51
398.80023405
  0
ARC
  5
16F
100
AcDbEntity
  8
5701_62P
390
0
  6
HIDDEN
100
AcDbCircle
 10
134.8754301889
 20
214.6535805872
 30
0.0
 40
15.1610181137
100
AcDbArc
 50
321.19976595
 51
398.80023405
  0
LINE
  5
170
100
AcDbEntity
  8
5701_22P
390
0
  6
HIDDEN
100
AcDbLine
 10
35.190948385
 20
250.6485134569
 30
0.0
 11
35.190948385
 21
228.6485134569
 31
0.0
  0
LINE
  5
171
100
AcDbEntity
  8
5701_32P
390
0
  6
HIDDEN
100
AcDbLine
 10
65.190948385
 20
228.6485134569
 30
0.0
 11
65.190948385
 21
250.6485134569
 31
0.0
  0
LINE
  5
172
100
AcDbEntity
  8
5701_42P
390
0
  6
HIDDEN
100
AcDbLine
 10
95.190948385
 20
250.6485134569
 30
0.0
 11
95.190948385
 21
228.6485134569
 31
0.0
  0
LINE
  5
173
100
AcDbEntity
  8
5701_42P
390
0
  6
HIDDEN
100
AcDbLine
 10
95.190948385
 20
228.6485134569
 30
0.0
 11
95.190948385
 21
206.6485134569
 31
0.0
  0
LINE
  5
174
100
AcDbEntity
  8
5701_22P
390
0
  6
HIDDEN
100
AcDbLine
 10
35.190948385
 20
228.6485134569
 30
0.0
 11
35.190948385
 21
206.6485134569
 31
0.0
  0
LINE
  5
175
100
AcDbEntity
  8
5701_32P
390
0
  6
HIDDEN
100
AcDbLine
 10
65.190948385
 20
206.6485134569
 30
0.0
 11
65.190948385
 21
228.6485134569
 31
0.0
  0
LINE
  5
176
100
AcDbEntity
  8
5701_42P
390
0
  6
HIDDEN
100
AcDbLine
 10
95.190948385
 20
206.6485134569
 30
0.0
 11
95.190948385
 21
184.6485134569
 31
0.0
  0
LINE
  5
177
100
AcDbEntity
  8
5701_22P
390
0
  6
HIDDEN
100
AcDbLine
 10
35.190948385
 20
206.6485134569
 30
0.0
 11
35.190948385
 21
184.6485134569
 31
0.0
  0
LINE
  5
178
100
AcDbEntity
  8
5701_32P
390
0
  6
HIDDEN
100
AcDbLine
 10
65.190948385
 20
184.6485134569
 30
0.0
 11
65.190948385
 21
206.6485134569
 31
0.0
  0
LINE
  5
179
100
AcDbEntity
  8
5701_42P
390
0
  6
HIDDEN
100
AcDbLine
 10
95.190948385
 20
184.6485134569
 30
0.0
 11
95.190948385
 21
162.6485134569
 31
0.0
  0
LINE
  5
17A
100
AcDbEntity
  8
5701_22P
390
0
  6
HIDDEN
100
AcDbLine
 10
35.190948385
 20
184.6485134569
 30
0.0
 11
35.190948385
 21
162.6485134569
 31
0.0
  0
LINE
  5
17B
100
AcDbEntity
  8
5701_32P
390
0
  6
HIDDEN
100
AcDbLine
 10
65.190948385
 20
162.6485134569
 30
0.0
 11
65.190948385
 21
184.6485134569
 31
0.0
  0
LINE
  5
17C
100
AcDbEntity
  8
5701_42P
390
0
  6
HIDDEN
100
AcDbLine
 10
95.190948385
 20
162.6485134569
 30
0.0
 11
95.190948385
 21
140.6485134569
 31
0.0
  0
LINE
  5
17D
100
AcDbEntity
  8
5701_22P
390
0
  6
HIDDEN
100
AcDbLine
 10
35.190948385
 20
162.6485134569
 30
0.0
 11
35.190948385
 21
140.6485134569
 31
0.0
  0
LINE
  5
17E
100
AcDbEntity
  8
5701_32P
390
0
  6
HIDDEN
100
AcDbLine
 10
65.190948385
 20
140.6485134569
 30
0.0
 11
65.190948385
 21
162.6485134569
 31
0.0
  0
LINE
  5
17F
100
AcDbEntity
  8
5701_42P
390
0
  6
HIDDEN
100
AcDbLine
 10
95.190948385
 20
140.6485134569
 30
0.0
 11
95.190948385
 21
118.6485134569
 31
0.0
  0
LINE
  5
180
100
AcDbEntity
  8
5701_22P
390
0
  6
HIDDEN
100
AcDbLine
 10
35.190948385
 20
140.6485134569
 30
0.0
 11
35.190948385
 21
118.6485134569
 31
0.0
  0
LINE
  5
181
100
AcDbEntity
  8
5701_32P
390
0
  6
HIDDEN
100
AcDbLine
 10
65.190948385
 20
118.6485134569
 30
0.0
 11
65.190948385
 21
140.6485134569
 31
0.0
  0
LINE
  5
182
100
AcDbEntity
  8
5701_22P
390
0
  6
HIDDEN
100
AcDbLine
 10
29.690737404
 20
55.6487244379
 30
0.0
 11
35.190948385
 21
118.6485134569
 31
0.0
  0
LINE
  5
183
100
AcDbEntity
  8
5701_32P
390
0
  6
HIDDEN
100
AcDbLine
 10
59.690948385
 20
77.6485134569
 30
0.0
 11
65.190948385
 21
118.6485134569
 31
0.0
  0
LINE
  5
184
100
AcDbEntity
  8
5701_62P
390
0
  6
HIDDEN
100
AcDbLine
 10
146.690948385
 20
227.1535805872
 30
0.0
 11
160.6910155153
 21
243.6535134569
 31
0.0
  0
LINE
  5
185
100
AcDbEntity
  8
5701_52P
390
0
  6
HIDDEN
100
AcDbLine
 10
116.690948385
 20
227.1535805872
 30
0.0
 11
130.6912264963
 21
265.6533024759
 31
0.0
  0
MTEXT
  5
186
100
AcDbEntity
  8
5701_32P
390
0
100
AcDbMText
 10
44.742402455
 20
270.4235065651
 30
0.0
 40
2.0
 41
0.0
 71
         7
 72
         1
  1
\W0.891762;M15x2 T2 O2 F150\PB-0.3 D1.6    I1.2 S4
  7
Arial
 73
         1
 44
0.66
  0
MTEXT
  5
187
100
AcDbEntity
  8
5701_42P
390
0
100
AcDbMText
 10
74.742402455
 20
270.4235065651
 30
0.0
 40
2.0
 41
0.0
 71
         7
 72
         1
  1
\W0.891762;M15x2 T2 O2 F150\PB-0.3 D1.6    I1.2 S4
  7
Arial
 73
         1
 44
0.66
  0
MTEXT
  5
188
100
AcDbEntity
  8
5701_52P
390
0
100
AcDbMText
 10
104.742402455
 20
270.4282955841
 30
0.0
 40
2.0
 41
0.0
 71
         7
 72
         1
  1
\W0.891762;M15x2 T2 O2 F150\PB-0.3 D1.6    I1.2 S4
  7
Arial
 73
         1
 44
0.66
  0
MTEXT
  5
189
100
AcDbEntity
  8
5701_72P
390
0
100
AcDbMText
 10
164.742402455
 20
227.9235065651
 30
0.0
 40
2.0
 41
0.0
 71
         7
 72
         1
  1
\W0.891762;M15x2 T2 O2 F150\PB-0.3 D1.6    I1.2 S4
  7
Arial
 73
         1
 44
0.66
  0
MTEXT
  5
18A
100
AcDbEntity
  8
5701_62P
390
0
100
AcDbMText
 10
134.742402455
 20
248.4185065651
 30
0.0
 40
2.0
 41
0.0
 71
         7
 72
         1
  1
\W0.891762;M15x2 T2 O2 F150\PB-0.3 D1.6    I1.2 S4
  7
Arial
 73
         1
 44
0.66
  0
MTEXT
  5
18B
100
AcDbEntity
  8
5701_22P
390
0
100
AcDbMText
 10
14.742402455
 20
270.4235065651
 30
0.0
 40
2.0
 41
0.0
 71
         7
 72
         1
  1
\W0.891762;M15x2 T2 O2 F150\PB-0.3 D1.6    I1.2 S4
  7
Arial
 73
         1
 44
0.66
  0
MTEXT
  5
18C
100
AcDbEntity
  8
5701___ ZENTRALSCHLOSS
390
0
100
AcDbMText
 10
16.7800137995
 20
237.2395503826
 30
0.0
 40
2.0
 41
0.0
 71
         7
 72
         1
  1
\W0.891720;>5701.22P\PM15x2 T2 O2
  7
Arial
 73
         1
 44
0.66
  0
MTEXT
  5
18D
100
AcDbEntity
  8
5701___ ZENTRALSCHLOSS
390
0
100
AcDbMText
 10
76.7800137995
 20
237.2395503826
 30
0.0
 40
2.0
 41
0.0
 71
         7
 72
         1
  1
\W0.891720;>5701.42P\PM15x2 T2 O2
  7
Arial
 73
         1
 44
0.66
  0
MTEXT
  5
18E
100
AcDbEntity
  8
5701___ ZENTRALSCHLOSS
390
0
100
AcDbMText
 10
164.1242196819
 20
120.7806092061
 30
0.0
 40
2.0
 41
0.0
 71
         7
 72
         1
  1
\W0.891720;>5701.72P\PM15x2 T2 O2
  7
Arial
 73
         1
 44
0.66
  0
MTEXT
  5
18F
100
AcDbEntity
  8
5701___ ZENTRALSCHLOSS
390
0
100
AcDbMText
 10
134.5653520348
 20
137.5436386179
 30
0.0
 40
2.0
 41
0.0
 71
         7
 72
         1
  1
\W0.891720;>5701.62P\PM15x2 T2 O2
  7
Arial
 73
         1
 44
0.66
  0
MTEXT
  5
190
100
AcDbEntity
  8
5701___ ZENTRALSCHLOSS
390
0
100
AcDbMText
 10
102.3596902701
 20
151.659873912
 30
0.0
 40
2.0
 41
0.0
 71
         7
 72
         1
  1
\W0.891720;>5701.52P\PM15x2 T2 O2
  7
Arial
 73
         1
 44
0.66
  0
MTEXT
  5
191
100
AcDbEntity
  8
5701___ ZENTRALSCHLOSS
390
0
100
AcDbMText
 10
46.7800137995
 20
237.2395503826
 30
0.0
 40
2.0
 41
0.0
 71
         7
 72
         1
  1
\W0.891720;>5701.32P\PM15x2 T2 O2
  7
Arial
 73
         1
 44
0.66
  0
ARC
  5
192
100
AcDbEntity
  8
5701___ ZENTRALSCHLOSS
390
0
  6
DASHDOT
100
AcDbCircle
 10
1188.1409979579
 20
160.6485134569
 30
0.0
 40
1165.7466781225
100
AcDbArc
 50
174.5361361465
 51
185.4638638535
  0
ARC
  5
193
100
AcDbEntity
  8
5701___ ZENTRALSCHLOSS
390
0
  6
DASHDOT
100
AcDbCircle
 10
1060.966511963
 20
171.6485134569
 30
0.0
 40
1008.2469223721
100
AcDbArc
 50
174.3079285726
 51
185.6920714274
  0
ARC
  5
194
100
AcDbEntity
  8
5701___ ZENTRALSCHLOSS
390
0
  6
DASHDOT
100
AcDbCircle
 10
874.0256385369
 20
181.6385134569
 30
0.0
 40
791.469547763
100
AcDbArc
 50
173.4699003717
 51
186.5300996283
  0
ARC
  5
195
100
AcDbEntity
  8
5701___ ZENTRALSCHLOSS
390
0
  6
DASHDOT
100
AcDbCircle
 10
894.9023592606
 20
160.6509079664
 30
0.0
 40
785.0981523237
100
AcDbArc
 50
171.8719065839
 51
188.1280934161
  0
ARC
  5
196
100
AcDbEntity
  8
5701___ ZENTRALSCHLOSS
390
0
  6
DASHDOT
100
AcDbCircle
 10
965.7964536093
 20
149.6460134569
 30
0.0
 40
824.1942232778
100
AcDbArc
 50
173.0312721598
 51
186.9687278402
  0
ARC
  5
197
100
AcDbEntity
  8
5701___ ZENTRALSCHLOSS
390
0
  6
DASHDOT
100
AcDbCircle
 10
803.5024822464
 20
139.3985134569
 30
0.0
 40
632.2144718479
100
AcDbArc
 50
171.8386447728
 51
188.1613552272
  0
ARC
  5
198
100
AcDbEntity
  8
5701___ ZENTRALSCHLOSS
390
0
  6
DASHDOT
100
AcDbCircle
 10
998.4540861932
 20
166.8243663981
 30
0.0
 40
1165.7466781225
100
AcDbArc
 50
174.5361361465
 51
185.4638638535
  0
ARC
  5
199
100
AcDbEntity
  8
5701___ ZENTRALSCHLOSS
390
0
  6
DASHDOT
100
AcDbCircle
 10
871.2796001983
 20
177.8243663981
 30
0.0
 40
1008.2469223721
100
AcDbArc
 50
174.3079285726
 51
185.6920714274
  0
ARC
  5
19A
100
AcDbEntity
  8
5701___ ZENTRALSCHLOSS
390
0
  6
DASHDOT
100
AcDbCircle
 10
684.3387267722
 20
187.8143663981
 30
0.0
 40
791.469547763
100
AcDbArc
 50
173.4699003717
 51
186.5300996283
  0
ARC
  5
19B
100
AcDbEntity
  8
5701___ ZENTRALSCHLOSS
390
0
  6
DASHDOT
100
AcDbCircle
 10
705.2154474959
 20
166.8267609076
 30
0.0
 40
785.0981523237
100
AcDbArc
 50
171.8719065839
 51
188.1280934161
  0
ARC
  5
19C
100
AcDbEntity
  8
5701___ ZENTRALSCHLOSS
390
0
  6
DASHDOT
100
AcDbCircle
 10
776.1095418446
 20
155.8218663981
 30
0.0
 40
824.1942232778
100
AcDbArc
 50
173.0312721598
 51
186.9687278402
  0
ARC
  5
19D
100
AcDbEntity
  8
5701___ ZENTRALSCHLOSS
390
0
  6
DASHDOT
100
AcDbCircle
 10
613.8155704817
 20
145.5743663981
 30
0.0
 40
632.2144718479
100
AcDbArc
 50
171.8386447728
 51
188.1613552272
  0
MTEXT
  5
19E
100
AcDbEntity
  8
5701___ ZENTRALSCHLOSS
390
0
100
AcDbMText
 10
-172.9068979652
 20
243.4154033238
 30
0.0
 40
2.0
 41
0.0
 71
         7
 72
         1
  1
\W0.891720;>5701.22P\PM15x2 T2 O2
  7
Arial
 73
         1
 44
0.66
  0
MTEXT
  5
19F
100
AcDbEntity
  8
5701___ ZENTRALSCHLOSS
390
0
100
AcDbMText
 10
-112.9068979652
 20
243.4154033238
 30
0.0
 40
2.0
 41
0.0
 71
         7
 72
         1
  1
\W0.891720;>5701.42P\PM15x2 T2 O2
  7
Arial
 73
         1
 44
0.66
  0
MTEXT
  5
1A0
100
AcDbEntity
  8
5701___ ZENTRALSCHLOSS
390
0
100
AcDbMText
 10
-25.5626920828
 20
126.9564621473
 30
0.0
 40
2.0
 41
0.0
 71
         7
 72
         1
  1
\W0.891720;>5701.72P\PM15x2 T2 O2
  7
Arial
 73
         1
 44
0.66
  0
MTEXT
  5
1A1
100
AcDbEntity
  8
5701___ ZENTRALSCHLOSS
390
0
100
AcDbMText
 10
-55.1215597299
 20
143.7194915591
 30
0.0
 40
2.0
 41
0.0
 71
         7
 72
         1
  1
\W0.891720;>5701.62P\PM15x2 T2 O2
  7
Arial
 73
         1
 44
0.66
  0
MTEXT
  5
1A2
100
AcDbEntity
  8
5701___ ZENTRALSCHLOSS
390
0
100
AcDbMText
 10
-87.3272214946
 20
157.8357268532
 30
0.0
 40
2.0
 41
0.0
 71
         7
 72
         1
  1
\W0.891720;>5701.52P\PM15x2 T2 O2
  7
Arial
 73
         1
 44
0.66
  0
MTEXT
  5
1A3
100
AcDbEntity
  8
5701___ ZENTRALSCHLOSS
390
0
100
AcDbMText
 10
-142.9068979652
 20
243.4154033238
 30
0.0
 40
2.0
 41
0.0
 71
         7
 72
         1
  1
\W0.891720;>5701.32P\PM15x2 T2 O2
  7
Arial
 73
         1
 44
0.66
  0
ARC
  5
1A4
100
AcDbEntity
  8
_5701_5___7G FAHRSTRAßENSCHIEBER
390
0
100
AcDbCircle
 10
151.690948385
 20
71.6535805872
 30
0.0
 40
2.5
100
AcDbArc
 50
270.0
 51
450.0
  0
LINE
  5
1A5
100
AcDbEntity
  8
_5701_5___7G FAHRSTRAßENSCHIEBER
390
0
100
AcDbLine
 10
151.690948385
 20
74.1535805872
 30
0.0
 11
147.690948385
 21
74.1535805872
 31
0.0
  0
LINE
  5
1A6
100
AcDbEntity
  8
_5701_5___7G FAHRSTRAßENSCHIEBER
390
0
100
AcDbLine
 10
151.690948385
 20
69.1535805872
 30
0.0
 11
147.690948385
 21
69.1535805872
 31
0.0
  0
LINE
  5
1A7
100
AcDbEntity
  8
5701_62P
390
0
100
AcDbLine
 10
151.690948385
 20
70.1535805872
 30
0.0
 11
146.690948385
 21
70.1535805872
 31
0.0
  0
LINE
  5
1A8
100
AcDbEntity
  8
5701_62P
390
0
100
AcDbLine
 10
151.690948385
 20
73.1535805872
 30
0.0
 11
146.690948385
 21
73.1535805872
 31
0.0
  0
ARC
  5
1A9
100
AcDbEntity
  8
5701_62P
390
0
100
AcDbCircle
 10
151.690948385
 20
71.6535805872
 30
0.0
 40
1.5
100
AcDbArc
 50
270.0
 51
450.0
  0
ARC
  5
1AA
100
AcDbEntity
  8
_5701_5___7G FAHRSTRAßENSCHIEBER
390
0
100
AcDbCircle
 10
181.690948385
 20
71.6535805872
 30
0.0
 40
2.5
100
AcDbArc
 50
270.0
 51
450.0
  0
LINE
  5
1AB
100
AcDbEntity
  8
_5701_5___7G FAHRSTRAßENSCHIEBER
390
0
100
AcDbLine
 10
181.690948385
 20
74.1535805872
 30
0.0
 11
177.690948385
 21
74.1535805872
 31
0.0
  0
LINE
  5
1AC
100
AcDbEntity
  8
_5701_5___7G FAHRSTRAßENSCHIEBER
390
0
100
AcDbLine
 10
181.690948385
 20
69.1535805872
 30
0.0
 11
177.690948385
 21
69.1535805872
 31
0.0
  0
LINE
  5
1AD
100
AcDbEntity
  8
5701_72P
390
0
100
AcDbLine
 10
181.690948385
 20
70.1535805872
 30
0.0
 11
176.690948385
 21
70.1535805872
 31
0.0
  0
LINE
  5
1AE
100
AcDbEntity
  8
5701_72P
390
0
100
AcDbLine
 10
181.690948385
 20
73.1535805872
 30
0.0
 11
176.690948385
 21
73.1535805872
 31
0.0
  0
ARC
  5
1AF
100
AcDbEntity
  8
5701_72P
390
0
100
AcDbCircle
 10
181.690948385
 20
71.6535805872
 30
0.0
 40
1.5
100
AcDbArc
 50
270.0
 51
450.0
  0
ARC
  5
1B0
100
AcDbEntity
  8
_5701_5___7G FAHRSTRAßENSCHIEBER
390
0
100
AcDbCircle
 10
121.690948385
 20
93.6535805872
 30
0.0
 40
2.5
100
AcDbArc
 50
270.0
 51
450.0
  0
LINE
  5
1B1
100
AcDbEntity
  8
_5701_5___7G FAHRSTRAßENSCHIEBER
390
0
100
AcDbLine
 10
121.690948385
 20
96.1535805872
 30
0.0
 11
117.690948385
 21
96.1535805872
 31
0.0
  0
LINE
  5
1B2
100
AcDbEntity
  8
_5701_5___7G FAHRSTRAßENSCHIEBER
390
0
100
AcDbLine
 10
121.690948385
 20
91.1535805872
 30
0.0
 11
117.690948385
 21
91.1535805872
 31
0.0
  0
LINE
  5
1B3
100
AcDbEntity
  8
5701_52P
390
0
100
AcDbLine
 10
121.690948385
 20
92.1535805872
 30
0.0
 11
116.690948385
 21
92.1535805872
 31
0.0
  0
LINE
  5
1B4
100
AcDbEntity
  8
5701_52P
390
0
100
AcDbLine
 10
121.690948385
 20
95.1535805872
 30
0.0
 11
116.690948385
 21
95.1535805872
 31
0.0
  0
ARC
  5
1B5
100
AcDbEntity
  8
5701_52P
390
0
100
AcDbCircle
 10
121.690948385
 20
93.6535805872
 30
0.0
 40
1.5
100
AcDbArc
 50
270.0
 51
450.0
  0
ARC
  5
1B6
100
AcDbEntity
  8
_5701_5___7G FAHRSTRAßENSCHIEBER
390
0
100
AcDbCircle
 10
151.690948385
 20
93.6535805872
 30
0.0
 40
2.5
100
AcDbArc
 50
270.0
 51
450.0
  0
LINE
  5
1B7
100
AcDbEntity
  8
_5701_5___7G FAHRSTRAßENSCHIEBER
390
0
100
AcDbLine
 10
151.690948385
 20
96.1535805872
 30
0.0
 11
147.690948385
 21
96.1535805872
 31
0.0
  0
LINE
  5
1B8
100
AcDbEntity
  8
_5701_5___7G FAHRSTRAßENSCHIEBER
390
0
100
AcDbLine
 10
151.690948385
 20
91.1535805872
 30
0.0
 11
147.690948385
 21
91.1535805872
 31
0.0
  0
LINE
  5
1B9
100
AcDbEntity
  8
5701_62P
390
0
100
AcDbLine
 10
151.690948385
 20
92.1535805872
 30
0.0
 11
146.690948385
 21
92.1535805872
 31
0.0
  0
LINE
  5
1BA
100
AcDbEntity
  8
5701_62P
390
0
100
AcDbLine
 10
151.690948385
 20
95.1535805872
 30
0.0
 11
146.690948385
 21
95.1535805872
 31
0.0
  0
ARC
  5
1BB
100
AcDbEntity
  8
5701_62P
390
0
100
AcDbCircle
 10
151.690948385
 20
93.6535805872
 30
0.0
 40
1.5
100
AcDbArc
 50
270.0
 51
450.0
  0
ARC
  5
1BC
100
AcDbEntity
  8
_5701_5___7G FAHRSTRAßENSCHIEBER
390
0
100
AcDbCircle
 10
181.690948385
 20
93.6535805872
 30
0.0
 40
2.5
100
AcDbArc
 50
270.0
 51
450.0
  0
LINE
  5
1BD
100
AcDbEntity
  8
_5701_5___7G FAHRSTRAßENSCHIEBER
390
0
100
AcDbLine
 10
181.690948385
 20
96.1535805872
 30
0.0
 11
177.690948385
 21
96.1535805872
 31
0.0
  0
LINE
  5
1BE
100
AcDbEntity
  8
_5701_5___7G FAHRSTRAßENSCHIEBER
390
0
100
AcDbLine
 10
181.690948385
 20
91.1535805872
 30
0.0
 11
177.690948385
 21
91.1535805872
 31
0.0
  0
LINE
  5
1BF
100
AcDbEntity
  8
5701_72P
390
0
100
AcDbLine
 10
181.690948385
 20
92.1535805872
 30
0.0
 11
176.690948385
 21
92.1535805872
 31
0.0
  0
LINE
  5
1C0
100
AcDbEntity
  8
5701_72P
390
0
100
AcDbLine
 10
181.690948385
 20
95.1535805872
 30
0.0
 11
176.690948385
 21
95.1535805872
 31
0.0
  0
ARC
  5
1C1
100
AcDbEntity
  8
5701_72P
390
0
100
AcDbCircle
 10
181.690948385
 20
93.6535805872
 30
0.0
 40
1.5
100
AcDbArc
 50
270.0
 51
450.0
  0
ARC
  5
1C2
100
AcDbEntity
  8
_5701_5___7G FAHRSTRAßENSCHIEBER
390
0
100
AcDbCircle
 10
181.690948385
 20
115.6535805872
 30
0.0
 40
2.5
100
AcDbArc
 50
270.0
 51
450.0
  0
LINE
  5
1C3
100
AcDbEntity
  8
_5701_5___7G FAHRSTRAßENSCHIEBER
390
0
100
AcDbLine
 10
181.690948385
 20
118.1535805872
 30
0.0
 11
177.690948385
 21
118.1535805872
 31
0.0
  0
LINE
  5
1C4
100
AcDbEntity
  8
_5701_5___7G FAHRSTRAßENSCHIEBER
390
0
100
AcDbLine
 10
181.690948385
 20
113.1535805872
 30
0.0
 11
177.690948385
 21
113.1535805872
 31
0.0
  0
LINE
  5
1C5
100
AcDbEntity
  8
5701_72P
390
0
100
AcDbLine
 10
181.690948385
 20
114.1535805872
 30
0.0
 11
176.690948385
 21
114.1535805872
 31
0.0
  0
LINE
  5
1C6
100
AcDbEntity
  8
5701_72P
390
0
100
AcDbLine
 10
181.690948385
 20
117.1535805872
 30
0.0
 11
176.690948385
 21
117.1535805872
 31
0.0
  0
ARC
  5
1C7
100
AcDbEntity
  8
5701_72P
390
0
100
AcDbCircle
 10
181.690948385
 20
115.6535805872
 30
0.0
 40
1.5
100
AcDbArc
 50
270.0
 51
450.0
  0
ARC
  5
1C8
100
AcDbEntity
  8
_5701_5___7G FAHRSTRAßENSCHIEBER
390
0
100
AcDbCircle
 10
151.690948385
 20
115.6535805872
 30
0.0
 40
2.5
100
AcDbArc
 50
270.0
 51
450.0
  0
LINE
  5
1C9
100
AcDbEntity
  8
_5701_5___7G FAHRSTRAßENSCHIEBER
390
0
100
AcDbLine
 10
151.690948385
 20
118.1535805872
 30
0.0
 11
147.690948385
 21
118.1535805872
 31
0.0
  0
LINE
  5
1CA
100
AcDbEntity
  8
_5701_5___7G FAHRSTRAßENSCHIEBER
390
0
100
AcDbLine
 10
151.690948385
 20
113.1535805872
 30
0.0
 11
147.690948385
 21
113.1535805872
 31
0.0
  0
LINE
  5
1CB
100
AcDbEntity
  8
5701_62P
390
0
100
AcDbLine
 10
151.690948385
 20
114.1535805872
 30
0.0
 11
146.690948385
 21
114.1535805872
 31
0.0
  0
LINE
  5
1CC
100
AcDbEntity
  8
5701_62P
390
0
100
AcDbLine
 10
151.690948385
 20
117.1535805872
 30
0.0
 11
146.690948385
 21
117.1535805872
 31
0.0
  0
ARC
  5
1CD
100
AcDbEntity
  8
5701_62P
390
0
100
AcDbCircle
 10
151.690948385
 20
115.6535805872
 30
0.0
 40
1.5
100
AcDbArc
 50
270.0
 51
450.0
  0
ARC
  5
1CE
100
AcDbEntity
  8
_5701_5___7G FAHRSTRAßENSCHIEBER
390
0
100
AcDbCircle
 10
121.690948385
 20
115.6535805872
 30
0.0
 40
2.5
100
AcDbArc
 50
270.0
 51
450.0
  0
LINE
  5
1CF
100
AcDbEntity
  8
_5701_5___7G FAHRSTRAßENSCHIEBER
390
0
100
AcDbLine
 10
121.690948385
 20
118.1535805872
 30
0.0
 11
117.690948385
 21
118.1535805872
 31
0.0
  0
LINE
  5
1D0
100
AcDbEntity
  8
_5701_5___7G FAHRSTRAßENSCHIEBER
390
0
100
AcDbLine
 10
121.690948385
 20
113.1535805872
 30
0.0
 11
117.690948385
 21
113.1535805872
 31
0.0
  0
LINE
  5
1D1
100
AcDbEntity
  8
5701_52P
390
0
100
AcDbLine
 10
121.690948385
 20
114.1535805872
 30
0.0
 11
116.690948385
 21
114.1535805872
 31
0.0
  0
LINE
  5
1D2
100
AcDbEntity
  8
5701_52P
390
0
100
AcDbLine
 10
121.690948385
 20
117.1535805872
 30
0.0
 11
116.690948385
 21
117.1535805872
 31
0.0
  0
ARC
  5
1D3
100
AcDbEntity
  8
5701_52P
390
0
100
AcDbCircle
 10
121.690948385
 20
115.6535805872
 30
0.0
 40
1.5
100
AcDbArc
 50
270.0
 51
450.0
  0
ARC
  5
1D4
100
AcDbEntity
  8
_5701_5___7G FAHRSTRAßENSCHIEBER
390
0
100
AcDbCircle
 10
121.690948385
 20
137.6535805872
 30
0.0
 40
2.5
100
AcDbArc
 50
270.0
 51
450.0
  0
LINE
  5
1D5
100
AcDbEntity
  8
_5701_5___7G FAHRSTRAßENSCHIEBER
390
0
100
AcDbLine
 10
121.690948385
 20
140.1535805872
 30
0.0
 11
117.690948385
 21
140.1535805872
 31
0.0
  0
LINE
  5
1D6
100
AcDbEntity
  8
_5701_5___7G FAHRSTRAßENSCHIEBER
390
0
100
AcDbLine
 10
121.690948385
 20
135.1535805872
 30
0.0
 11
117.690948385
 21
135.1535805872
 31
0.0
  0
LINE
  5
1D7
100
AcDbEntity
  8
5701_52P
390
0
100
AcDbLine
 10
121.690948385
 20
136.1535805872
 30
0.0
 11
116.690948385
 21
136.1535805872
 31
0.0
  0
LINE
  5
1D8
100
AcDbEntity
  8
5701_52P
390
0
100
AcDbLine
 10
121.690948385
 20
139.1535805872
 30
0.0
 11
116.690948385
 21
139.1535805872
 31
0.0
  0
ARC
  5
1D9
100
AcDbEntity
  8
5701_52P
390
0
100
AcDbCircle
 10
121.690948385
 20
137.6535805872
 30
0.0
 40
1.5
100
AcDbArc
 50
270.0
 51
450.0
  0
ARC
  5
1DA
100
AcDbEntity
  8
_5701_5___7G FAHRSTRAßENSCHIEBER
390
0
100
AcDbCircle
 10
151.690948385
 20
137.6535805872
 30
0.0
 40
2.5
100
AcDbArc
 50
270.0
 51
450.0
  0
LINE
  5
1DB
100
AcDbEntity
  8
_5701_5___7G FAHRSTRAßENSCHIEBER
390
0
100
AcDbLine
 10
151.690948385
 20
140.1535805872
 30
0.0
 11
147.690948385
 21
140.1535805872
 31
0.0
  0
LINE
  5
1DC
100
AcDbEntity
  8
_5701_5___7G FAHRSTRAßENSCHIEBER
390
0
100
AcDbLine
 10
151.690948385
 20
135.1535805872
 30
0.0
 11
147.690948385
 21
135.1535805872
 31
0.0
  0
LINE
  5
1DD
100
AcDbEntity
  8
5701_62P
390
0
100
AcDbLine
 10
151.690948385
 20
136.1535805872
 30
0.0
 11
146.690948385
 21
136.1535805872
 31
0.0
  0
LINE
  5
1DE
100
AcDbEntity
  8
5701_62P
390
0
100
AcDbLine
 10
151.690948385
 20
139.1535805872
 30
0.0
 11
146.690948385
 21
139.1535805872
 31
0.0
  0
ARC
  5
1DF
100
AcDbEntity
  8
5701_62P
390
0
100
AcDbCircle
 10
151.690948385
 20
137.6535805872
 30
0.0
 40
1.5
100
AcDbArc
 50
270.0
 51
450.0
  0
ARC
  5
1E0
100
AcDbEntity
  8
_5701_5___7G FAHRSTRAßENSCHIEBER
390
0
100
AcDbCircle
 10
181.690948385
 20
137.6535805872
 30
0.0
 40
2.5
100
AcDbArc
 50
270.0
 51
450.0
  0
LINE
  5
1E1
100
AcDbEntity
  8
_5701_5___7G FAHRSTRAßENSCHIEBER
390
0
100
AcDbLine
 10
181.690948385
 20
140.1535805872
 30
0.0
 11
177.690948385
 21
140.1535805872
 31
0.0
  0
LINE
  5
1E2
100
AcDbEntity
  8
_5701_5___7G FAHRSTRAßENSCHIEBER
390
0
100
AcDbLine
 10
181.690948385
 20
135.1535805872
 30
0.0
 11
177.690948385
 21
135.1535805872
 31
0.0
  0
LINE
  5
1E3
100
AcDbEntity
  8
5701_72P
390
0
100
AcDbLine
 10
181.690948385
 20
136.1535805872
 30
0.0
 11
176.690948385
 21
136.1535805872
 31
0.0
  0
LINE
  5
1E4
100
AcDbEntity
  8
5701_72P
390
0
100
AcDbLine
 10
181.690948385
 20
139.1535805872
 30
0.0
 11
176.690948385
 21
139.1535805872
 31
0.0
  0
ARC
  5
1E5
100
AcDbEntity
  8
5701_72P
390
0
100
AcDbCircle
 10
181.690948385
 20
137.6535805872
 30
0.0
 40
1.5
100
AcDbArc
 50
270.0
 51
450.0
  0
ARC
  5
1E6
100
AcDbEntity
  8
_5701_5___7G FAHRSTRAßENSCHIEBER
390
0
100
AcDbCircle
 10
181.690948385
 20
159.6535805872
 30
0.0
 40
2.5
100
AcDbArc
 50
270.0
 51
450.0
  0
LINE
  5
1E7
100
AcDbEntity
  8
_5701_5___7G FAHRSTRAßENSCHIEBER
390
0
100
AcDbLine
 10
181.690948385
 20
162.1535805872
 30
0.0
 11
177.690948385
 21
162.1535805872
 31
0.0
  0
LINE
  5
1E8
100
AcDbEntity
  8
_5701_5___7G FAHRSTRAßENSCHIEBER
390
0
100
AcDbLine
 10
181.690948385
 20
157.1535805872
 30
0.0
 11
177.690948385
 21
157.1535805872
 31
0.0
  0
LINE
  5
1E9
100
AcDbEntity
  8
5701_72P
390
0
100
AcDbLine
 10
181.690948385
 20
158.1535805872
 30
0.0
 11
176.690948385
 21
158.1535805872
 31
0.0
  0
LINE
  5
1EA
100
AcDbEntity
  8
5701_72P
390
0
100
AcDbLine
 10
181.690948385
 20
161.1535805872
 30
0.0
 11
176.690948385
 21
161.1535805872
 31
0.0
  0
ARC
  5
1EB
100
AcDbEntity
  8
5701_72P
390
0
100
AcDbCircle
 10
181.690948385
 20
159.6535805872
 30
0.0
 40
1.5
100
AcDbArc
 50
270.0
 51
450.0
  0
ARC
  5
1EC
100
AcDbEntity
  8
_5701_5___7G FAHRSTRAßENSCHIEBER
390
0
100
AcDbCircle
 10
151.690948385
 20
159.6535805872
 30
0.0
 40
2.5
100
AcDbArc
 50
270.0
 51
450.0
  0
LINE
  5
1ED
100
AcDbEntity
  8
_5701_5___7G FAHRSTRAßENSCHIEBER
390
0
100
AcDbLine
 10
151.690948385
 20
162.1535805872
 30
0.0
 11
147.690948385
 21
162.1535805872
 31
0.0
  0
LINE
  5
1EE
100
AcDbEntity
  8
_5701_5___7G FAHRSTRAßENSCHIEBER
390
0
100
AcDbLine
 10
151.690948385
 20
157.1535805872
 30
0.0
 11
147.690948385
 21
157.1535805872
 31
0.0
  0
LINE
  5
1EF
100
AcDbEntity
  8
5701_62P
390
0
100
AcDbLine
 10
151.690948385
 20
158.1535805872
 30
0.0
 11
146.690948385
 21
158.1535805872
 31
0.0
  0
LINE
  5
1F0
100
AcDbEntity
  8
5701_62P
390
0
100
AcDbLine
 10
151.690948385
 20
161.1535805872
 30
0.0
 11
146.690948385
 21
161.1535805872
 31
0.0
  0
ARC
  5
1F1
100
AcDbEntity
  8
5701_62P
390
0
100
AcDbCircle
 10
151.690948385
 20
159.6535805872
 30
0.0
 40
1.5
100
AcDbArc
 50
270.0
 51
450.0
  0
ARC
  5
1F2
100
AcDbEntity
  8
_5701_5___7G FAHRSTRAßENSCHIEBER
390
0
100
AcDbCircle
 10
121.690948385
 20
159.6535805872
 30
0.0
 40
2.5
100
AcDbArc
 50
270.0
 51
450.0
  0
LINE
  5
1F3
100
AcDbEntity
  8
_5701_5___7G FAHRSTRAßENSCHIEBER
390
0
100
AcDbLine
 10
121.690948385
 20
162.1535805872
 30
0.0
 11
117.690948385
 21
162.1535805872
 31
0.0
  0
LINE
  5
1F4
100
AcDbEntity
  8
_5701_5___7G FAHRSTRAßENSCHIEBER
390
0
100
AcDbLine
 10
121.690948385
 20
157.1535805872
 30
0.0
 11
117.690948385
 21
157.1535805872
 31
0.0
  0
LINE
  5
1F5
100
AcDbEntity
  8
5701_52P
390
0
100
AcDbLine
 10
121.690948385
 20
158.1535805872
 30
0.0
 11
116.690948385
 21
158.1535805872
 31
0.0
  0
LINE
  5
1F6
100
AcDbEntity
  8
5701_52P
390
0
100
AcDbLine
 10
121.690948385
 20
161.1535805872
 30
0.0
 11
116.690948385
 21
161.1535805872
 31
0.0
  0
ARC
  5
1F7
100
AcDbEntity
  8
5701_52P
390
0
100
AcDbCircle
 10
121.690948385
 20
159.6535805872
 30
0.0
 40
1.5
100
AcDbArc
 50
270.0
 51
450.0
  0
ARC
  5
1F8
100
AcDbEntity
  8
_5701_5___7G FAHRSTRAßENSCHIEBER
390
0
100
AcDbCircle
 10
181.690948385
 20
181.6535805872
 30
0.0
 40
2.5
100
AcDbArc
 50
270.0
 51
450.0
  0
LINE
  5
1F9
100
AcDbEntity
  8
_5701_5___7G FAHRSTRAßENSCHIEBER
390
0
100
AcDbLine
 10
181.690948385
 20
184.1535805872
 30
0.0
 11
177.690948385
 21
184.1535805872
 31
0.0
  0
LINE
  5
1FA
100
AcDbEntity
  8
_5701_5___7G FAHRSTRAßENSCHIEBER
390
0
100
AcDbLine
 10
181.690948385
 20
179.1535805872
 30
0.0
 11
177.690948385
 21
179.1535805872
 31
0.0
  0
LINE
  5
1FB
100
AcDbEntity
  8
5701_72P
390
0
100
AcDbLine
 10
181.690948385
 20
180.1535805872
 30
0.0
 11
176.690948385
 21
180.1535805872
 31
0.0
  0
LINE
  5
1FC
100
AcDbEntity
  8
5701_72P
390
0
100
AcDbLine
 10
181.690948385
 20
183.1535805872
 30
0.0
 11
176.690948385
 21
183.1535805872
 31
0.0
  0
ARC
  5
1FD
100
AcDbEntity
  8
5701_72P
390
0
100
AcDbCircle
 10
181.690948385
 20
181.6535805872
 30
0.0
 40
1.5
100
AcDbArc
 50
270.0
 51
450.0
  0
ARC
  5
1FE
100
AcDbEntity
  8
_5701_5___7G FAHRSTRAßENSCHIEBER
390
0
100
AcDbCircle
 10
151.690948385
 20
181.6535805872
 30
0.0
 40
2.5
100
AcDbArc
 50
270.0
 51
450.0
  0
LINE
  5
1FF
100
AcDbEntity
  8
_5701_5___7G FAHRSTRAßENSCHIEBER
390
0
100
AcDbLine
 10
151.690948385
 20
184.1535805872
 30
0.0
 11
147.690948385
 21
184.1535805872
 31
0.0
  0
LINE
  5
200
100
AcDbEntity
  8
_5701_5___7G FAHRSTRAßENSCHIEBER
390
0
100
AcDbLine
 10
151.690948385
 20
179.1535805872
 30
0.0
 11
147.690948385
 21
179.1535805872
 31
0.0
  0
LINE
  5
201
100
AcDbEntity
  8
5701_62P
390
0
100
AcDbLine
 10
151.690948385
 20
180.1535805872
 30
0.0
 11
146.690948385
 21
180.1535805872
 31
0.0
  0
LINE
  5
202
100
AcDbEntity
  8
5701_62P
390
0
100
AcDbLine
 10
151.690948385
 20
183.1535805872
 30
0.0
 11
146.690948385
 21
183.1535805872
 31
0.0
  0
ARC
  5
203
100
AcDbEntity
  8
5701_62P
390
0
100
AcDbCircle
 10
151.690948385
 20
181.6535805872
 30
0.0
 40
1.5
100
AcDbArc
 50
270.0
 51
450.0
  0
ARC
  5
204
100
AcDbEntity
  8
_5701_5___7G FAHRSTRAßENSCHIEBER
390
0
100
AcDbCircle
 10
121.690948385
 20
181.6535805872
 30
0.0
 40
2.5
100
AcDbArc
 50
270.0
 51
450.0
  0
LINE
  5
205
100
AcDbEntity
  8
_5701_5___7G FAHRSTRAßENSCHIEBER
390
0
100
AcDbLine
 10
121.690948385
 20
184.1535805872
 30
0.0
 11
117.690948385
 21
184.1535805872
 31
0.0
  0
LINE
  5
206
100
AcDbEntity
  8
_5701_5___7G FAHRSTRAßENSCHIEBER
390
0
100
AcDbLine
 10
121.690948385
 20
179.1535805872
 30
0.0
 11
117.690948385
 21
179.1535805872
 31
0.0
  0
LINE
  5
207
100
AcDbEntity
  8
5701_52P
390
0
100
AcDbLine
 10
121.690948385
 20
180.1535805872
 30
0.0
 11
116.690948385
 21
180.1535805872
 31
0.0
  0
LINE
  5
208
100
AcDbEntity
  8
5701_52P
390
0
100
AcDbLine
 10
121.690948385
 20
183.1535805872
 30
0.0
 11
116.690948385
 21
183.1535805872
 31
0.0
  0
ARC
  5
209
100
AcDbEntity
  8
5701_52P
390
0
100
AcDbCircle
 10
121.690948385
 20
181.6535805872
 30
0.0
 40
1.5
100
AcDbArc
 50
270.0
 51
450.0
  0
ARC
  5
20A
100
AcDbEntity
  8
_5701_5___7G FAHRSTRAßENSCHIEBER
390
0
100
AcDbCircle
 10
121.690948385
 20
203.6535805872
 30
0.0
 40
2.5
100
AcDbArc
 50
270.0
 51
450.0
  0
LINE
  5
20B
100
AcDbEntity
  8
_5701_5___7G FAHRSTRAßENSCHIEBER
390
0
100
AcDbLine
 10
121.690948385
 20
206.1535805872
 30
0.0
 11
117.690948385
 21
206.1535805872
 31
0.0
  0
LINE
  5
20C
100
AcDbEntity
  8
_5701_5___7G FAHRSTRAßENSCHIEBER
390
0
100
AcDbLine
 10
121.690948385
 20
201.1535805872
 30
0.0
 11
117.690948385
 21
201.1535805872
 31
0.0
  0
LINE
  5
20D
100
AcDbEntity
  8
5701_52P
390
0
100
AcDbLine
 10
121.690948385
 20
202.1535805872
 30
0.0
 11
116.690948385
 21
202.1535805872
 31
0.0
  0
LINE
  5
20E
100
AcDbEntity
  8
5701_52P
390
0
100
AcDbLine
 10
121.690948385
 20
205.1535805872
 30
0.0
 11
116.690948385
 21
205.1535805872
 31
0.0
  0
ARC
  5
20F
100
AcDbEntity
  8
5701_52P
390
0
100
AcDbCircle
 10
121.690948385
 20
203.6535805872
 30
0.0
 40
1.5
100
AcDbArc
 50
270.0
 51
450.0
  0
ARC
  5
210
100
AcDbEntity
  8
_5701_5___7G FAHRSTRAßENSCHIEBER
390
0
100
AcDbCircle
 10
151.690948385
 20
203.6535805872
 30
0.0
 40
2.5
100
AcDbArc
 50
270.0
 51
450.0
  0
LINE
  5
211
100
AcDbEntity
  8
_5701_5___7G FAHRSTRAßENSCHIEBER
390
0
100
AcDbLine
 10
151.690948385
 20
206.1535805872
 30
0.0
 11
147.690948385
 21
206.1535805872
 31
0.0
  0
LINE
  5
212
100
AcDbEntity
  8
_5701_5___7G FAHRSTRAßENSCHIEBER
390
0
100
AcDbLine
 10
151.690948385
 20
201.1535805872
 30
0.0
 11
147.690948385
 21
201.1535805872
 31
0.0
  0
LINE
  5
213
100
AcDbEntity
  8
5701_62P
390
0
100
AcDbLine
 10
151.690948385
 20
202.1535805872
 30
0.0
 11
146.690948385
 21
202.1535805872
 31
0.0
  0
LINE
  5
214
100
AcDbEntity
  8
5701_62P
390
0
100
AcDbLine
 10
151.690948385
 20
205.1535805872
 30
0.0
 11
146.690948385
 21
205.1535805872
 31
0.0
  0
ARC
  5
215
100
AcDbEntity
  8
5701_62P
390
0
100
AcDbCircle
 10
151.690948385
 20
203.6535805872
 30
0.0
 40
1.5
100
AcDbArc
 50
270.0
 51
450.0
  0
ARC
  5
216
100
AcDbEntity
  8
_5701_5___7G FAHRSTRAßENSCHIEBER
390
0
100
AcDbCircle
 10
181.690948385
 20
203.6535805872
 30
0.0
 40
2.5
100
AcDbArc
 50
270.0
 51
450.0
  0
LINE
  5
217
100
AcDbEntity
  8
_5701_5___7G FAHRSTRAßENSCHIEBER
390
0
100
AcDbLine
 10
181.690948385
 20
206.1535805872
 30
0.0
 11
177.690948385
 21
206.1535805872
 31
0.0
  0
LINE
  5
218
100
AcDbEntity
  8
_5701_5___7G FAHRSTRAßENSCHIEBER
390
0
100
AcDbLine
 10
181.690948385
 20
201.1535805872
 30
0.0
 11
177.690948385
 21
201.1535805872
 31
0.0
  0
LINE
  5
219
100
AcDbEntity
  8
5701_72P
390
0
100
AcDbLine
 10
181.690948385
 20
202.1535805872
 30
0.0
 11
176.690948385
 21
202.1535805872
 31
0.0
  0
LINE
  5
21A
100
AcDbEntity
  8
5701_72P
390
0
100
AcDbLine
 10
181.690948385
 20
205.1535805872
 30
0.0
 11
176.690948385
 21
205.1535805872
 31
0.0
  0
ARC
  5
21B
100
AcDbEntity
  8
5701_72P
390
0
100
AcDbCircle
 10
181.690948385
 20
203.6535805872
 30
0.0
 40
1.5
100
AcDbArc
 50
270.0
 51
450.0
  0
ARC
  5
21C
100
AcDbEntity
  8
_5701_5___7G FAHRSTRAßENSCHIEBER
390
0
100
AcDbCircle
 10
151.690948385
 20
225.6535805872
 30
0.0
 40
2.5
100
AcDbArc
 50
270.0
 51
450.0
  0
LINE
  5
21D
100
AcDbEntity
  8
_5701_5___7G FAHRSTRAßENSCHIEBER
390
0
100
AcDbLine
 10
151.690948385
 20
228.1535805872
 30
0.0
 11
147.690948385
 21
228.1535805872
 31
0.0
  0
LINE
  5
21E
100
AcDbEntity
  8
_5701_5___7G FAHRSTRAßENSCHIEBER
390
0
100
AcDbLine
 10
151.690948385
 20
223.1535805872
 30
0.0
 11
147.690948385
 21
223.1535805872
 31
0.0
  0
LINE
  5
21F
100
AcDbEntity
  8
5701_62P
390
0
100
AcDbLine
 10
151.690948385
 20
224.1535805872
 30
0.0
 11
146.690948385
 21
224.1535805872
 31
0.0
  0
LINE
  5
220
100
AcDbEntity
  8
5701_62P
390
0
100
AcDbLine
 10
151.690948385
 20
227.1535805872
 30
0.0
 11
146.690948385
 21
227.1535805872
 31
0.0
  0
ARC
  5
221
100
AcDbEntity
  8
5701_62P
390
0
100
AcDbCircle
 10
151.690948385
 20
225.6535805872
 30
0.0
 40
1.5
100
AcDbArc
 50
270.0
 51
450.0
  0
ARC
  5
222
100
AcDbEntity
  8
_5701_5___7G FAHRSTRAßENSCHIEBER
390
0
100
AcDbCircle
 10
121.690948385
 20
225.6535805872
 30
0.0
 40
2.5
100
AcDbArc
 50
270.0
 51
450.0
  0
LINE
  5
223
100
AcDbEntity
  8
_5701_5___7G FAHRSTRAßENSCHIEBER
390
0
100
AcDbLine
 10
121.690948385
 20
228.1535805872
 30
0.0
 11
117.690948385
 21
228.1535805872
 31
0.0
  0
LINE
  5
224
100
AcDbEntity
  8
_5701_5___7G FAHRSTRAßENSCHIEBER
390
0
100
AcDbLine
 10
121.690948385
 20
223.1535805872
 30
0.0
 11
117.690948385
 21
223.1535805872
 31
0.0
  0
LINE
  5
225
100
AcDbEntity
  8
5701_52P
390
0
100
AcDbLine
 10
121.690948385
 20
224.1535805872
 30
0.0
 11
116.690948385
 21
224.1535805872
 31
0.0
  0
LINE
  5
226
100
AcDbEntity
  8
5701_52P
390
0
100
AcDbLine
 10
121.690948385
 20
227.1535805872
 30
0.0
 11
116.690948385
 21
227.1535805872
 31
0.0
  0
ARC
  5
227
100
AcDbEntity
  8
5701_52P
390
0
100
AcDbCircle
 10
121.690948385
 20
225.6535805872
 30
0.0
 40
1.5
100
AcDbArc
 50
270.0
 51
450.0
  0
LINE
  5
228
100
AcDbEntity
  8
5701_52P
390
0
  6
DASHED
100
AcDbLine
 10
133.690948385
 20
271.6533024759
 30
0.0
 11
130.6912264963
 21
265.6533024759
 31
0.0
  0
ARC
  5
229
100
AcDbEntity
  8
5701_52P
390
0
  6
DASHED
100
AcDbCircle
 10
111.192112644
 20
48.2951251256
 30
0.0
 40
22.5395046457
100
AcDbArc
 50
3.4424053478
 51
75.8793613293
  0
LINE
  5
22A
100
AcDbEntity
  8
5701_22P
390
0
  6
HIDDEN
100
AcDbLine
 10
43.690948385
 20
271.6485134569
 30
0.0
 11
35.190948385
 21
250.6485134569
 31
0.0
  0
LINE
  5
22B
100
AcDbEntity
  8
5701_22P
390
0
  6
HIDDEN
100
AcDbLine
 10
29.690737404
 20
55.6487244379
 30
0.0
 11
43.690948385
 21
49.6485134569
 31
0.0
  0
LINE
  5
22C
100
AcDbEntity
  8
5701_32P
390
0
  6
HIDDEN
100
AcDbLine
 10
73.690948385
 20
271.6485134569
 30
0.0
 11
65.190948385
 21
250.6485134569
 31
0.0
  0
LINE
  5
22D
100
AcDbEntity
  8
5701_32P
390
0
  6
HIDDEN
100
AcDbLine
 10
59.690948385
 20
77.6485134569
 30
0.0
 11
73.690948385
 21
71.6485134569
 31
0.0
  0
LINE
  5
22E
100
AcDbEntity
  8
5701_42P
390
0
  6
HIDDEN
100
AcDbLine
 10
103.690948385
 20
271.6485134569
 30
0.0
 11
95.190948385
 21
250.6485134569
 31
0.0
  0
LINE
  5
22F
100
AcDbEntity
  8
5701_42P
390
0
  6
HIDDEN
100
AcDbLine
 10
95.190948385
 20
118.6485134569
 30
0.0
 11
103.690948385
 21
91.6485134569
 31
0.0
  0
LINE
  5
230
100
AcDbEntity
  8
5701_62P
390
0
  6
HIDDEN
100
AcDbLine
 10
163.690948385
 20
249.6435134569
 30
0.0
 11
160.6910155153
 21
243.6535134569
 31
0.0
  0
LINE
  5
231
100
AcDbEntity
  8
5701_62P
390
0
  6
HIDDEN
100
AcDbLine
 10
146.690948385
 20
70.1535805872
 30
0.0
 11
163.690948385
 21
49.6485134569
 31
0.0
  0
LINE
  5
232
100
AcDbEntity
  8
5701_72P
390
0
  6
HIDDEN
100
AcDbLine
 10
176.690948385
 20
205.1535805872
 30
0.0
 11
193.690948385
 21
229.1485134569
 31
0.0
  0
LINE
  5
233
100
AcDbEntity
  8
5701_72P
390
0
  6
HIDDEN
100
AcDbLine
 10
176.690948385
 20
70.1535805872
 30
0.0
 11
193.690948385
 21
49.6485134569
 31
0.0
  0
CIRCLE
  5
234
100
AcDbEntity
  8
HILFSLINIEN
390
0
100
AcDbCircle
 10
151.691
 20
70.154
 30
0.0
 40
10.0
  0
LINE
  5
235
100
AcDbEntity
  8
STANDARD
390
0
100
AcDbLine
 10
10.0
 20
5.0
 30
0.0
 11
10.0
 21
292.0
 31
0.0
  0
LINE
  5
236
100
AcDbEntity
  8
STANDARD
390
0
100
AcDbLine
 10
15.0
 20
287.0
 30
0.0
 11
205.0
 21
287.0
 31
0.0
  0
LINE
  5
237
100
AcDbEntity
  8
STANDARD
390
0
100
AcDbLine
 10
10.0
 20
292.0
 30
0.0
 11
15.0
 21
292.0
 31
0.0
  0
LINE
  5
238
100
AcDbEntity
  8
STANDARD
390
0
100
AcDbLine
 10
10.0
 20
5.0
 30
0.0
 11
15.0
 21
5.0
 31
0.0
  0
LINE
  5
239
100
AcDbEntity
  8
STANDARD
390
0
100
AcDbLine
 10
10.0
 20
244.1666666667
 30
0.0
 11
15.0
 21
244.1666666667
 31
0.0
  0
LINE
  5
23A
100
AcDbEntity
  8
STANDARD
390
0
100
AcDbLine
 10
10.0
 20
196.3333333333
 30
0.0
 11
15.0
 21
196.3333333333
 31
0.0
  0
LINE
  5
23B
100
AcDbEntity
  8
STANDARD
390
0
100
AcDbLine
 10
10.0
 20
148.5
 30
0.0
 11
15.0
 21
148.5
 31
0.0
  0
LINE
  5
23C
100
AcDbEntity
  8
STANDARD
390
0
100
AcDbLine
 10
10.0
 20
100.6666666667
 30
0.0
 11
15.0
 21
100.6666666667
 31
0.0
  0
LINE
  5
23D
100
AcDbEntity
  8
STANDARD
390
0
100
AcDbLine
 10
10.0
 20
52.8333333333
 30
0.0
 11
15.0
 21
52.8333333333
 31
0.0
  0
LINE
  5
23E
100
AcDbEntity
  8
STANDARD
390
0
100
AcDbLine
 10
157.5
 20
292.0
 30
0.0
 11
157.5
 21
287.0
 31
0.0
  0
LINE
  5
23F
100
AcDbEntity
  8
STANDARD
390
0
100
AcDbLine
 10
110.0
 20
292.0
 30
0.0
 11
110.0
 21
287.0
 31
0.0
  0
LINE
  5
240
100
AcDbEntity
  8
STANDARD
390
0
100
AcDbLine
 10
62.5
 20
292.0
 30
0.0
 11
62.5
 21
287.0
 31
0.0
  0
TEXT
  5
241
100
AcDbEntity
  8
STANDARD
390
0
100
AcDbText
 10
10.9491078691
 20
267.8641561278
 30
0.0
 40
2.23125
  1
A
 41
1.547986837
  7
Arial
 72
         1
 11
12.6760806841
 21
270.0954061278
 31
0.0
100
AcDbText
 73
         3
  0
TEXT
  5
242
100
AcDbEntity
  8
STANDARD
390
0
100
AcDbText
 10
10.9491074243
 20
220.0308227945
 30
0.0
 40
2.23125
  1
B
 41
1.5479872357
  7
Arial
 72
         1
 11
12.6760806841
 21
222.2620727945
 31
0.0
100
AcDbText
 73
         3
  0
TEXT
  5
243
100
AcDbEntity
  8
STANDARD
390
0
100
AcDbText
 10
10.9489779593
 20
172.1974894612
 30
0.0
 40
2.23125
  1
C
 41
1.5481032827
  7
Arial
 72
         1
 11
12.6760806841
 21
174.4287394612
 31
0.0
100
AcDbText
 73
         3
  0
TEXT
  5
244
100
AcDbEntity
  8
STANDARD
390
0
100
AcDbText
 10
10.9489771034
 20
124.3641561278
 30
0.0
 40
2.23125
  1
D
 41
1.54810405
  7
Arial
 72
         1
 11
12.6760806841
 21
126.5954061278
 31
0.0
100
AcDbText
 73
         3
  0
TEXT
  5
245
100
AcDbEntity
  8
STANDARD
390
0
100
AcDbText
 10
10.9491076096
 20
76.5308227945
 30
0.0
 40
2.23125
  1
E
 41
1.5479870696
  7
Arial
 72
         1
 11
12.6760806841
 21
78.7620727945
 31
0.0
100
AcDbText
 73
         3
  0
TEXT
  5
246
100
AcDbEntity
  8
STANDARD
390
0
100
AcDbText
 10
10.9493506612
 20
28.6974894612
 30
0.0
 40
2.23125
  1
F
 41
1.5477692083
  7
Arial
 72
         1
 11
12.6760806841
 21
30.9287394612
 31
0.0
100
AcDbText
 73
         3
  0
TEXT
  5
247
100
AcDbEntity
  8
STANDARD
390
0
100
AcDbText
 10
36.7048241449
 20
288.48599354
 30
0.0
 40
2.23125
  1
1
 41
1.5479225906
  7
Arial
 72
         1
 11
38.0
 21
290.71724354
 31
0.0
100
AcDbText
 73
         3
  0
TEXT
  5
248
100
AcDbEntity
  8
STANDARD
390
0
100
AcDbText
 10
83.7730999712
 20
288.48599354
 30
0.0
 40
2.23125
  1
2
 41
1.5479215945
  7
Arial
 72
         1
 11
85.5
 21
290.71724354
 31
0.0
100
AcDbText
 73
         3
  0
TEXT
  5
249
100
AcDbEntity
  8
STANDARD
390
0
100
AcDbText
 10
131.2730986376
 20
288.48599354
 30
0.0
 40
2.23125
  1
3
 41
1.5479227899
  7
Arial
 72
         1
 11
133.0
 21
290.71724354
 31
0.0
100
AcDbText
 73
         3
  0
TEXT
  5
24A
100
AcDbEntity
  8
STANDARD
390
0
100
AcDbText
 10
178.7730988598
 20
288.48599354
 30
0.0
 40
2.23125
  1
4
 41
1.5479225906
  7
Arial
 72
         1
 11
180.5
 21
290.71724354
 31
0.0
100
AcDbText
 73
         3
  0
LINE
  5
24B
100
AcDbEntity
  8
STANDARD
390
0
100
AcDbLine
 10
205.0
 20
292.0
 30
0.0
 11
205.0
 21
287.0
 31
0.0
  0
LINE
  5
24C
100
AcDbEntity
  8
STANDARD
390
0
100
AcDbLine
 10
205.0
 20
5.0
 30
0.0
 11
15.0
 21
5.0
 31
0.0
  0
LINE
  5
24D
100
AcDbEntity
  8
STANDARD
390
0
100
AcDbLine
 10
15.0
 20
5.0
 30
0.0
 11
15.0
 21
287.0
 31
0.0
  0
LINE
  5
24E
100
AcDbEntity
  8
STANDARD
390
0
100
AcDbLine
 10
15.0
 20
292.0
 30
0.0
 11
205.0
 21
292.0
 31
0.0
  0
LINE
  5
24F
100
AcDbEntity
  8
STANDARD
390
0
100
AcDbLine
 10
1.0
 20
1.0
 30
0.0
 11
1.0
 21
296.0
 31
0.0
  0
LINE
  5
250
100
AcDbEntity
  8
STANDARD
390
0
100
AcDbLine
 10
209.0
 20
1.0
 30
0.0
 11
1.0
 21
1.0
 31
0.0
  0
LINE
  5
251
100
AcDbEntity
  8
STANDARD
390
0
100
AcDbLine
 10
209.0
 20
296.0
 30
0.0
 11
209.0
 21
1.0
 31
0.0
  0
LINE
  5
252
100
AcDbEntity
  8
STANDARD
390
0
100
AcDbLine
 10
1.0
 20
296.0
 30
0.0
 11
209.0
 21
296.0
 31
0.0
  0
LINE
  5
253
100
AcDbEntity
  8
STANDARD
390
0
100
AcDbLine
 10
15.0
 20
287.0
 30
0.0
 11
15.0
 21
292.0
 31
0.0
  0
LINE
  5
254
100
AcDbEntity
  8
STANDARD
390
0
100
AcDbLine
 10
205.0
 20
287.0
 30
0.0
 11
205.0
 21
5.0
 31
0.0
  0
MTEXT
  5
255
100
AcDbEntity
  8
STANDARD
390
0
100
AcDbMText
 10
203.6063292805
 20
81.4222772661
 30
0.0
 40
1.59375
 41
0.0
 71
         1
 72
         1
  1

  7
Arial
 11
0.0
 21
-1.0
 31
0.0
 73
         1
 44
1.0352941176
  0
MTEXT
  5
256
100
AcDbEntity
  8
STANDARD
390
0
100
AcDbMText
 10
203.6103242188
 20
27.5871143065
 30
0.0
 40
1.59375
 41
0.0
 71
         1
 72
         1
  1

  7
Arial
 11
0.0
 21
-1.0
 31
0.0
 73
         1
 44
1.0352941176
  0
MTEXT
  5
257
100
AcDbEntity
  8
STANDARD
390
0
100
AcDbMText
 10
203.6063292805
 20
125.7560948498
 30
0.0
 40
1.59375
 41
0.0
 71
         1
 72
         1
  1

  7
Arial
 11
0.0
 21
-1.0
 31
0.0
 73
         1
 44
1.0352941176
  0
LINE
  5
258
100
AcDbEntity
  8
STANDARD
370
         0
390
0
100
AcDbLine
 10
81.105982906
 20
34.4
 30
0.0
 11
205.0
 21
34.4
 31
0.0
  0
LINE
  5
259
100
AcDbEntity
  8
STANDARD
370
         0
390
0
100
AcDbLine
 10
81.105982906
 20
27.4
 30
0.0
 11
205.0
 21
27.4
 31
0.0
  0
LINE
  5
25A
100
AcDbEntity
  8
STANDARD
370
         0
390
0
100
AcDbLine
 10
81.105982906
 20
12.0
 30
0.0
 11
205.0
 21
12.0
 31
0.0
  0
LINE
  5
25B
100
AcDbEntity
  8
STANDARD
390
0
100
AcDbLine
 10
205.0
 20
182.1150997151
 30
0.0
 11
205.0
 21
5.1236467236
 31
0.0
  0
LINE
  5
25C
100
AcDbEntity
  8
STANDARD
370
         0
390
0
100
AcDbLine
 10
81.105982906
 20
34.4
 30
0.0
 11
81.105982906
 21
5.0
 31
0.0
  0
LINE
  5
25D
100
AcDbEntity
  8
STANDARD
370
         0
390
0
100
AcDbLine
 10
127.305982906
 20
34.4
 30
0.0
 11
127.305982906
 21
5.0
 31
0.0
  0
LINE
  5
25E
100
AcDbEntity
  8
STANDARD
370
         0
390
0
100
AcDbLine
 10
165.105982906
 20
34.4
 30
0.0
 11
165.105982906
 21
27.4
 31
0.0
  0
TEXT
  5
25F
100
AcDbEntity
  8
BESCHRIFTUNG0
390
0
100
AcDbText
 10
82.2010860399
 20
29.1136
 30
0.0
 40
3.325
  1
Stellwerk HMM
 41
1.3653781858
  7
Arial
 11
82.2010860399
 21
32.4386
 31
0.0
100
AcDbText
 73
         3
  0
TEXT
  5
260
100
AcDbEntity
  8
BESCHRIFTUNG0
390
0
100
AcDbText
 10
128.6210415954
 20
21.6351111111
 30
0.0
 40
3.325
  1
Zentralschloss Schieber Länge 2
 41
1.1349437468
 51
15.0
  7
Arial
 11
128.6210415954
 21
24.9601111111
 31
0.0
100
AcDbText
 73
         3
  0
TEXT
  5
261
100
AcDbEntity
  8
BESCHRIFTUNG0
390
0
100
AcDbText
 10
82.2010860399
 20
6.8980888889
 30
0.0
 40
3.325
  1
Dateiname
 41
1.1350744463
 51
15.0
  7
Arial
 11
82.2010860399
 21
10.2230888889
 31
0.0
100
AcDbText
 73
         3
  0
TEXT
  5
262
100
AcDbEntity
  8
BESCHRIFTUNG0
390
0
100
AcDbText
 10
82.4210415954
 20
21.6351111111
 30
0.0
 40
3.325
  1
Bl. 5701 P.4v
 41
1.1349361688
 51
15.0
  7
Arial
 11
82.4210415954
 21
24.9601111111
 31
0.0
100
AcDbText
 73
         3
  0
TEXT
  5
263
100
AcDbEntity
  8
BESCHRIFTUNG0
390
0
100
AcDbText
 10
166.2010860399
 20
29.1136
 30
0.0
 40
3.325
  1
1:1
 41
1.1348653803
 51
15.0
  7
Arial
 11
166.2010860399
 21
32.4386
 31
0.0
100
AcDbText
 73
         3
  0
TEXT
  5
264
100
AcDbEntity
  8
BESCHRIFTUNG0
390
0
100
AcDbText
 10
128.4010860399
 20
29.2980888889
 30
0.0
 40
3.325
  1
2025-05-21
 41
1.1351373215
 51
15.0
  7
Arial
 11
128.4010860399
 21
32.6230888889
 31
0.0
100
AcDbText
 73
         3
  0
TEXT
  5
265
100
AcDbEntity
  8
BESCHRIFTUNG0
390
0
100
AcDbText
 10
128.4010860399
 20
6.8980888889
 30
0.0
 40
3.325
  1
5701 P.4v
 41
1.1350826004
 51
15.0
  7
Arial
 11
128.4010860399
 21
10.2230888889
 31
0.0
100
AcDbText
 73
         3
  0
ENDSEC
  0
SECTION
  2
OBJECTS
  0
DICTIONARY
  5
19
100
AcDbDictionary
280
         0
281
         1
  3
ACAD_GROUP
350
1A
  3
ACAD_MLINESTYLE
350
1B
  3
ACAD_LAYOUT
350
1E
  3
ACAD_PLOTSETTINGS
350
22
  3
ACAD_PLOTSTYLENAME
350
1F
  3
ACAD_WIPEOUT_VARS
350
23
  0
DICTIONARY
  5
1A
102
{ACAD_REACTORS
330
19
102
}
100
AcDbDictionary
280
         0
281
         1
  0
DICTIONARY
  5
1B
102
{ACAD_REACTORS
330
19
102
}
100
AcDbDictionary
280
         0
281
         1
  3
Standard
350
1C
  0
MLINESTYLE
  5
1C
102
{ACAD_REACTORS
330
1B
102
}
100
AcDbMlineStyle
  2
Standard
 70
         0
  3

 62
         0
 51
90.0
 52
90.0
 71
         2
 49
0.5
 62
       256
  6
ByLayer
 49
-0.5
 62
       256
  6
ByLayer
  0
ACDBDICTIONARYWDFLT
  5
1F
102
{ACAD_REACTORS
330
19
102
}
100
AcDbDictionary
281
         1
  3
Normal
350
1D
100
AcDbDictionaryWithDefault
340
1D
  0
ACDBPLACEHOLDER
  5
1D
102
{ACAD_REACTORS
330
1F
102
}
  0
LAYOUT
  5
20
102
{ACAD_REACTORS
330
1E
102
}
100
AcDbPlotSettings
  1

  2

  4

  6

 40
0.0
 41
0.0
 42
0.0
 43
0.0
 44
0.0
 45
0.0
 46
0.0
 47
0.0
 48
0.0
 49
0.0
140
0.0
141
0.0
142
1.0
143
1.0
 70
      1024
 72
         0
 73
         0
 74
         0
  7

 75
         0
147
1.0
148
0.0
149
0.0
100
AcDbLayout
  1
Model
 70
         0
 71
         0
 10
0.0
 20
0.0
 11
0.0
 21
0.0
 12
0.0
 22
0.0
 32
0.0
 14
0.0
 24
0.0
 34
0.0
 15
0.0
 25
0.0
 35
0.0
146
0.0
 13
0.0
 23
0.0
 33
0.0
 16
0.0
 26
0.0
 36
0.0
 17
0.0
 27
0.0
 37
0.0
 76
         0
330
A
331
0
345
0
346
0
  0
LAYOUT
  5
21
102
{ACAD_REACTORS
330
1E
102
}
100
AcDbPlotSettings
  1

  2

  4

  6

 40
0.0
 41
0.0
 42
0.0
 43
0.0
 44
0.0
 45
0.0
 46
0.0
 47
0.0
 48
0.0
 49
0.0
140
0.0
141
0.0
142
1.0
143
1.0
 70
         0
 72
         0
 73
         0
 74
         0
  7

 75
         0
147
1.0
148
0.0
149
0.0
100
AcDbLayout
  1
Layout1
 70
         0
 71
         0
 10
0.0
 20
0.0
 11
0.0
 21
0.0
 12
0.0
 22
0.0
 32
0.0
 14
0.0
 24
0.0
 34
0.0
 15
0.0
 25
0.0
 35
0.0
146
0.0
 13
0.0
 23
0.0
 33
0.0
 16
0.0
 26
0.0
 36
0.0
 17
0.0
 27
0.0
 37
0.0
 76
         0
330
B
331
0
345
0
346
0
  0
DICTIONARY
  5
1E
102
{ACAD_REACTORS
330
19
102
}
100
AcDbDictionary
280
         0
281
         1
  3
Layout1
350
21
  3
Model
350
20
  0
DICTIONARY
  5
22
102
{ACAD_REACTORS
330
19
102
}
100
AcDbDictionary
280
         0
281
         1
  0
WIPEOUTVARIABLES
  5
23
100
AcDbWipeoutVariables
 70
         1
  0
ENDSEC
  0
EOF
