  0
SECTION
  2
HEADER
  9
$ACADVER
  1
AC1015
  9
$ACADMAINTVER
 70
         6
  9
$DWGCODEPAGE
  3
ANSI_1252
  9
$INSBASE
 10
0.0
 20
0.0
 30
0.0
  9
$EXTMIN
 10
-110.0598831177
 20
0.0
 30
0.0
  9
$EXTMAX
 10
304.0184936523
 20
297.0
 30
0.0
  9
$LIMMIN
 10
-110.0598831177
 20
0.0
  9
$LIMMAX
 10
304.0184936523
 20
297.0
  9
$ORTHOMODE
 70
         0
  9
$REGENMODE
 70
         1
  9
$FILLMODE
 70
         1
  9
$QTEXTMODE
 70
         0
  9
$MIRRTEXT
 70
         1
  9
$LTSCALE
 40
10.3519594193
  9
$ATTMODE
 70
         1
  9
$TEXTSIZE
 40
0.2
  9
$TRACEWID
 40
0.05
  9
$TEXTSTYLE
  7
Standard
  9
$CLAYER
  8
0
  9
$CELTYPE
  6
CONTINUOUS
  9
$CECOLOR
 62
       256
  9
$CELTSCALE
 40
1.0
  9
$DISPSILH
 70
         0
  9
$DIMSCALE
 40
1.0
  9
$DIMASZ
 40
0.18
  9
$DIMEXO
 40
0.0625
  9
$DIMDLI
 40
0.38
  9
$DIMRND
 40
0.0
  9
$DIMDLE
 40
0.0
  9
$DIMEXE
 40
0.18
  9
$DIMTP
 40
0.0
  9
$DIMTM
 40
0.0
  9
$DIMTXT
 40
3.0
  9
$DIMCEN
 40
0.09
  9
$DIMTSZ
 40
0.0
  9
$DIMTOL
 70
         0
  9
$DIMLIM
 70
         0
  9
$DIMTIH
 70
         1
  9
$DIMTOH
 70
         1
  9
$DIMSE1
 70
         0
  9
$DIMSE2
 70
         0
  9
$DIMTAD
 70
         1
  9
$DIMZIN
 70
         0
  9
$DIMBLK
  1

  9
$DIMASO
 70
         1
  9
$DIMSHO
 70
         1
  9
$DIMPOST
  1
<>
  9
$DIMAPOST
  1

  9
$DIMALT
 70
         0
  9
$DIMALTD
 70
         2
  9
$DIMALTF
 40
25.4
  9
$DIMLFAC
 40
1.0
  9
$DIMTOFL
 70
         0
  9
$DIMTVP
 40
0.0
  9
$DIMTIX
 70
         0
  9
$DIMSOXD
 70
         0
  9
$DIMSAH
 70
         0
  9
$DIMBLK1
  1

  9
$DIMBLK2
  1

  9
$DIMSTYLE
  2
Standard
  9
$DIMCLRD
 70
         0
  9
$DIMCLRE
 70
         0
  9
$DIMCLRT
 70
         0
  9
$DIMTFAC
 40
1.0
  9
$DIMGAP
 40
0.09
  9
$DIMJUST
 70
         0
  9
$DIMSD1
 70
         0
  9
$DIMSD2
 70
         0
  9
$DIMTOLJ
 70
         1
  9
$DIMTZIN
 70
         0
  9
$DIMALTZ
 70
         0
  9
$DIMALTTZ
 70
         0
  9
$DIMUPT
 70
         0
  9
$DIMDEC
 70
         4
  9
$DIMTDEC
 70
         4
  9
$DIMALTU
 70
         2
  9
$DIMALTTD
 70
         2
  9
$DIMTXSTY
  7
Standard
  9
$DIMAUNIT
 70
         0
  9
$DIMADEC
 70
         0
  9
$DIMALTRND
 40
0.0
  9
$DIMAZIN
 70
         0
  9
$DIMDSEP
 70
         0
  9
$DIMATFIT
 70
         3
  9
$DIMFRAC
 70
         0
  9
$DIMLDRBLK
  1

  9
$DIMLUNIT
 70
         2
  9
$DIMLWD
 70
         0
  9
$DIMLWE
 70
         0
  9
$DIMTMOVE
 70
         0
  9
$LUNITS
 70
         2
  9
$LUPREC
 70
         4
  9
$SKETCHINC
 40
0.1
  9
$FILLETRAD
 40
0.0
  9
$AUNITS
 70
         0
  9
$AUPREC
 70
         0
  9
$MENU
  1
acad
  9
$ELEVATION
 40
0.0
  9
$PELEVATION
 40
0.0
  9
$THICKNESS
 40
0.0
  9
$LIMCHECK
 70
         0
  9
$CHAMFERA
 40
0.0
  9
$CHAMFERB
 40
0.0
  9
$CHAMFERC
 40
0.0
  9
$CHAMFERD
 40
0.0
  9
$SKPOLY
 70
         0
  9
$TDCREATE
 40
0.000000000
  9
$TDUCREATE
 40
0.000000000
  9
$TDUPDATE
 40
0.000000000
  9
$TDUUPDATE
 40
0.000000000
  9
$TDINDWG
 40
0.0000000000
  9
$TDUSRTIMER
 40
0.0000000000
  9
$USRTIMER
 70
         1
  9
$ANGBASE
 50
0.0
  9
$ANGDIR
 70
         0
  9
$PDMODE
 70
         0
  9
$PDSIZE
 40
0.0
  9
$PLINEWID
 40
0.0
  9
$SPLFRAME
 70
         0
  9
$SPLINETYPE
 70
         6
  9
$SPLINESEGS
 70
         8
  9
$HANDSEED
  5
190
  9
$SURFTAB1
 70
         6
  9
$SURFTAB2
 70
         6
  9
$SURFTYPE
 70
         6
  9
$SURFU
 70
         6
  9
$SURFV
 70
         6
  9
$UCSBASE
  2

  9
$UCSNAME
  2

  9
$UCSORG
 10
0.0
 20
0.0
 30
0.0
  9
$UCSXDIR
 10
1.0
 20
0.0
 30
0.0
  9
$UCSYDIR
 10
0.0
 20
1.0
 30
0.0
  9
$UCSORTHOREF
  2

  9
$UCSORTHOVIEW
 70
         0
  9
$UCSORGTOP
 10
0.0
 20
0.0
 30
0.0
  9
$UCSORGBOTTOM
 10
0.0
 20
0.0
 30
0.0
  9
$UCSORGLEFT
 10
0.0
 20
0.0
 30
0.0
  9
$UCSORGRIGHT
 10
0.0
 20
0.0
 30
0.0
  9
$UCSORGFRONT
 10
0.0
 20
0.0
 30
0.0
  9
$UCSORGBACK
 10
0.0
 20
0.0
 30
0.0
  9
$PUCSBASE
  2

  9
$PUCSNAME
  2

  9
$PUCSORG
 10
0.0
 20
0.0
 30
0.0
  9
$PUCSXDIR
 10
1.0
 20
0.0
 30
0.0
  9
$PUCSYDIR
 10
0.0
 20
1.0
 30
0.0
  9
$PUCSORTHOREF
  2

  9
$PUCSORTHOVIEW
 70
         0
  9
$PUCSORGTOP
 10
0.0
 20
0.0
 30
0.0
  9
$PUCSORGBOTTOM
 10
0.0
 20
0.0
 30
0.0
  9
$PUCSORGLEFT
 10
0.0
 20
0.0
 30
0.0
  9
$PUCSORGRIGHT
 10
0.0
 20
0.0
 30
0.0
  9
$PUCSORGFRONT
 10
0.0
 20
0.0
 30
0.0
  9
$PUCSORGBACK
 10
0.0
 20
0.0
 30
0.0
  9
$USERI1
 70
         0
  9
$USERI2
 70
         0
  9
$USERI3
 70
         0
  9
$USERI4
 70
         0
  9
$USERI5
 70
         0
  9
$USERR1
 40
0.0
  9
$USERR2
 40
0.0
  9
$USERR3
 40
0.0
  9
$USERR4
 40
0.0
  9
$USERR5
 40
0.0
  9
$WORLDVIEW
 70
         1
  9
$SHADEDGE
 70
         3
  9
$SHADEDIF
 70
        70
  9
$TILEMODE
 70
         1
  9
$MAXACTVP
 70
        16
  9
$PINSBASE
 10
0.0
 20
0.0
 30
0.0
  9
$PLIMCHECK
 70
         0
  9
$PEXTMIN
 10
1.0000000000E+20
 20
1.0000000000E+20
 30
1.0000000000E+20
  9
$PEXTMAX
 10
-1.0000000000E+20
 20
-1.0000000000E+20
 30
-1.0000000000E+20
  9
$PLIMMIN
 10
0.0
 20
0.0
  9
$PLIMMAX
 10
12.0
 20
9.0
  9
$UNITMODE
 70
         0
  9
$VISRETAIN
 70
         0
  9
$PLINEGEN
 70
         1
  9
$PSLTSCALE
 70
         0
  9
$TREEDEPTH
 70
      3020
  9
$CMLSTYLE
  2
Standard
  9
$CMLJUST
 70
         0
  9
$CMLSCALE
 40
1.0
  9
$PROXYGRAPHICS
 70
         0
  9
$MEASUREMENT
 70
         1
  9
$CELWEIGHT
370
         0
  9
$ENDCAPS
280
         0
  9
$JOINSTYLE
280
         0
  9
$LWDISPLAY
290
         0
  9
$INSUNITS
 70
         0
  9
$HYPERLINKBASE
  1

  9
$STYLESHEET
  1

  9
$XEDIT
290
         1
  9
$CEPSNTYPE
380
         0
  9
$PSTYLEMODE
290
         1
  9
$FINGERPRINTGUID
  2

  9
$VERSIONGUID
  2

  9
$EXTNAMES
290
         1
  9
$PSVPSCALE
 40
0.0
  0
ENDSEC
  0
SECTION
  2
CLASSES
  0
CLASS
  1
LWPOLYLINE
  2
AcDbPolyline
  3
AutoCAD 2000
 90
        0
280
         0
281
         1
  0
CLASS
  1
IMAGE
  2
AcDbRasterImage
  3
ISM
 90
      127
280
         0
281
         1
  0
CLASS
  1
OLE2FRAME
  2
AcDbOle2Frame
  3
AutoCAD 2000
 90
        0
280
         0
281
         1
  0
CLASS
  1
HATCH
  2
AcDbHatch
  3
AutoCAD 2000
 90
        0
280
         0
281
         1
  0
CLASS
  1
DICTIONARYVAR
  2
AcDbDictionaryVar
  3
AutoCAD 2000
 90
        0
280
         0
281
         0
  0
CLASS
  1
RASTERVARIABLES
  2
AcDbRasterVariables
  3
ISM
 90
        0
280
         0
281
         0
  0
CLASS
  1
IMAGEDEF
  2
AcDbRasterImageDef
  3
ISM
 90
        0
280
         0
281
         0
  0
CLASS
  1
IMAGEDEF_REACTOR
  2
AcDbRasterImageDefReactor
  3
ISM
 90
        1
280
         0
281
         0
  0
CLASS
  1
IDBUFFER
  2
AcDbIdBuffer
  3
AutoCAD 2000
 90
        0
280
         0
281
         0
  0
CLASS
  1
SPATIAL_FILTER
  2
AcDbSpatialFilter
  3
AutoCAD 2000
 90
        0
280
         0
281
         0
  0
CLASS
  1
XRECORD
  2
AcDbXrecord
  3
AutoCAD 2000
 90
        0
280
         0
281
         0
  0
CLASS
  1
SORTENTSTABLE
  2
AcDbSortentsTable
  3
AutoCAD 2000
 90
        0
280
         0
281
         0
  0
CLASS
  1
LAYER_INDEX
  2
AcDbLayerIndex
  3
AutoCAD 2000
 90
        0
280
         0
281
         0
  0
CLASS
  1
SPATIAL_INDEX
  2
AcDbSpatialIndex
  3
AutoCAD 2000
 90
        0
280
         0
281
         0
  0
CLASS
  1
OBJECT_PTR
  2
CAseDLPNTableRecord
  3
"ASE-LPNTableRecord"
 90
        1
280
         0
281
         0
  0
CLASS
  1
LAYOUT
  2
AcDbLayout
  3
AutoCAD 2000
 90
        0
280
         0
281
         0
  0
CLASS
  1
PLOTSETTINGS
  2
AcDbPlotSettings
  3
AutoCAD 2000
 90
        0
280
         0
281
         0
  0
CLASS
  1
ACDBDICTIONARYWDFLT
  2
AcDbDictionaryWithDefault
  3
AutoCAD 2000
 90
        0
280
         0
281
         0
  0
CLASS
  1
ACDBPLACEHOLDER
  2
AcDbPlaceHolder
  3
AutoCAD 2000
 90
        0
280
         0
281
         0
  0
CLASS
  1
VBA_PROJECT
  2
AcDbVbaProject
  3
acadvba
 90
        0
280
         0
281
         0
  0
CLASS
  1
WIPEOUT
  2
AcDbWipeout
  3
WipeOut|AutoCAD Express Tool|expresstools@autodesk.com
 90
      127
280
         0
281
         1
  0
CLASS
  1
WIPEOUTVARIABLES
  2
AcDbWipeoutVariables
  3
WipeOut|AutoCAD Express Tool|expresstools@autodesk.com
 90
        0
280
         0
281
         0
  0
CLASS
  1
RTEXT
  2
RText
  3
RText|AutoCAD Express Tool|expresstools@autodesk.com
 90
        0
280
         0
281
         1
  0
CLASS
  1
ARCALIGNEDTEXT
  2
AcDbArcAlignedText
  3
ATEXT|AutoCAD Express Tool|expresstools@autodesk.com
 90
        0
280
         0
281
         1
  0
ENDSEC
  0
SECTION
  2
TABLES
  0
TABLE
  2
VPORT
  5
7
100
AcDbSymbolTable
 70
         1
  0
VPORT
  5
15
100
AcDbSymbolTableRecord
100
AcDbViewportTableRecord
  2
*ACTIVE
 70
         0
 10
0.0
 20
0.0
 11
1.0
 21
1.0
 12
105.0
 22
148.5
 13
0.0
 23
0.0
 14
1.0
 24
1.0
 15
0.0
 25
0.0
 16
0.0
 26
0.0
 36
1.0
 17
0.0
 27
0.0
 37
0.0
 40
231.2943892345
 41
1.0
 42
50.0
 43
0.0
 44
0.0
 50
0.0
 51
0.0
 71
         0
 72
       100
 73
         1
 74
         1
 75
         0
 76
         0
 77
         0
 78
         0
281
         0
 65
         0
110
0.0
120
0.0
130
0.0
111
1.0
121
0.0
131
0.0
112
0.0
122
1.0
132
0.0
345
0
346
0
 79
         0
146
0.0
  0
ENDTAB
  0
TABLE
  2
LTYPE
  5
4
100
AcDbSymbolTable
 70
        12
  0
LTYPE
  5
11
100
AcDbSymbolTableRecord
100
AcDbLinetypeTableRecord
  2
ByBlock
 70
        64
  3

 72
        65
 73
         0
 40
0.0
  0
LTYPE
  5
12
100
AcDbSymbolTableRecord
100
AcDbLinetypeTableRecord
  2
ByLayer
 70
        64
  3

 72
        65
 73
         0
 40
0.0
  0
LTYPE
  5
13
100
AcDbSymbolTableRecord
100
AcDbLinetypeTableRecord
  2
CONTINUOUS
 70
        64
  3
Solid Line
 72
        65
 73
         0
 40
0.0
  0
LTYPE
  5
24
100
AcDbSymbolTableRecord
100
AcDbLinetypeTableRecord
  2
DOT
 70
        64
  3
. . . . . . . . . . . . . . . . . . . . . . 
 72
        65
 73
         2
 40
0.25
 49
0.0
 74
         0
 49
-0.25
 74
         0
  0
LTYPE
  5
25
100
AcDbSymbolTableRecord
100
AcDbLinetypeTableRecord
  2
HIDDEN
 70
         0
  3
_ _ _ _ _ _ _ _ _ _ _ _ _ _ _ _ _ _ _ _ _ _ _
 72
        65
 73
         2
 40
0.375
 49
0.25
 74
         0
 49
-0.125
 74
         0
  0
LTYPE
  5
26
100
AcDbSymbolTableRecord
100
AcDbLinetypeTableRecord
  2
DASHDOT
 70
         0
  3
__ . __ . __ . __ . __ . __ . __ . __ . __ . __
 72
        65
 73
         4
 40
1.0
 49
0.5
 74
         0
 49
-0.25
 74
         0
 49
0.0
 74
         0
 49
-0.25
 74
         0
  0
LTYPE
  5
27
100
AcDbSymbolTableRecord
100
AcDbLinetypeTableRecord
  2
DIVIDE
 70
         0
  3
__ . . __ . . __ . . __ . . __ . . __ . . __
 72
        65
 73
         6
 40
1.25
 49
0.5
 74
         0
 49
-0.25
 74
         0
 49
0.0
 74
         0
 49
-0.25
 74
         0
 49
0.0
 74
         0
 49
-0.25
 74
         0
  0
LTYPE
  5
28
100
AcDbSymbolTableRecord
100
AcDbLinetypeTableRecord
  2
DASHED
 70
         0
  3
__ __ __ __ __ __ __ __ __ __ __ __ __ __ __
 72
        65
 73
         2
 40
0.75
 49
0.5
 74
         0
 49
-0.25
 74
         0
  0
LTYPE
  5
29
100
AcDbSymbolTableRecord
100
AcDbLinetypeTableRecord
  2
BORDER
 70
         0
  3
__ __ . __ __ . __ __ . __ __ . __ __ .
 72
        65
 73
         6
 40
1.75
 49
0.5
 74
         0
 49
-0.25
 74
         0
 49
0.5
 74
         0
 49
-0.25
 74
         0
 49
0.0
 74
         0
 49
-0.25
 74
         0
  0
LTYPE
  5
2A
100
AcDbSymbolTableRecord
100
AcDbLinetypeTableRecord
  2
CENTER
 70
         0
  3
____ _ ____ _ ____ _ ____ _ ____ _ ____
 72
        65
 73
         4
 40
2.0
 49
1.25
 74
         0
 49
-0.25
 74
         0
 49
0.25
 74
         0
 49
-0.25
 74
         0
  0
LTYPE
  5
2B
100
AcDbSymbolTableRecord
100
AcDbLinetypeTableRecord
  2
DOT2
 70
         0
  3
........................................
 72
        65
 73
         2
 40
0.125
 49
0.0
 74
         0
 49
-0.125
 74
         0
  0
LTYPE
  5
2C
100
AcDbSymbolTableRecord
100
AcDbLinetypeTableRecord
  2
PHANTOM
 70
         0
  3
______  __  __  ______  __  __  ______
 72
        65
 73
         6
 40
2.5
 49
1.25
 74
         0
 49
-0.25
 74
         0
 49
0.25
 74
         0
 49
-0.25
 74
         0
 49
0.25
 74
         0
 49
-0.25
 74
         0
  0
ENDTAB
  0
TABLE
  2
LAYER
  5
2
100
AcDbSymbolTable
 70
       102
  0
LAYER
  5
14
100
AcDbSymbolTableRecord
100
AcDbLayerTableRecord
  2
0
 70
         0
 62
         7
  6
CONTINUOUS
290
         1
370
        -3
390
1D
  0
LAYER
  5
33
100
AcDbSymbolTableRecord
100
AcDbLayerTableRecord
  2
BESCHRIFTUNG
 70
        64
 62
         7
  6
CONTINUOUS
290
         1
370
        25
390
1D
  0
LAYER
  5
34
100
AcDbSymbolTableRecord
100
AcDbLayerTableRecord
  2
SCHRAFFUR
 70
        64
 62
         7
  6
CONTINUOUS
290
         1
370
        25
390
1D
  0
LAYER
  5
35
100
AcDbSymbolTableRecord
100
AcDbLayerTableRecord
  2
MASSTEXTE
 70
        64
 62
       212
  6
CONTINUOUS
290
         1
370
        25
390
1D
  0
LAYER
  5
36
100
AcDbSymbolTableRecord
100
AcDbLayerTableRecord
  2
MASSLINIEN
 70
        64
 62
       172
  6
CONTINUOUS
290
         1
370
        25
390
1D
  0
LAYER
  5
37
100
AcDbSymbolTableRecord
100
AcDbLayerTableRecord
  2
MASSGRENZEN
 70
        64
 62
       172
  6
CONTINUOUS
290
         1
370
        25
390
1D
  0
LAYER
  5
38
100
AcDbSymbolTableRecord
100
AcDbLayerTableRecord
  2
TOLERANZEN
 70
        64
 62
       212
  6
CONTINUOUS
290
         1
370
         0
390
1D
  0
LAYER
  5
39
100
AcDbSymbolTableRecord
100
AcDbLayerTableRecord
  2
BEMASSUNG
 70
        64
 62
         7
  6
CONTINUOUS
290
         1
370
        25
390
1D
  0
LAYER
  5
3A
100
AcDbSymbolTableRecord
100
AcDbLayerTableRecord
  2
HILFSLINIEN
 70
        64
 62
         3
  6
CONTINUOUS
290
         1
370
         0
390
1D
  0
LAYER
  5
3B
100
AcDbSymbolTableRecord
100
AcDbLayerTableRecord
  2
MITTELLINIEN
 70
        64
 62
         5
  6
DASHDOT
290
         1
370
        25
390
1D
  0
LAYER
  5
3C
100
AcDbSymbolTableRecord
100
AcDbLayerTableRecord
  2
BESCHRIFTUNG00
 70
        64
 62
         7
  6
CONTINUOUS
290
         1
370
        25
390
1D
  0
LAYER
  5
3D
100
AcDbSymbolTableRecord
100
AcDbLayerTableRecord
  2
BESCHRIFTUNG0
 70
        64
 62
         7
  6
CONTINUOUS
290
         1
370
        25
390
1D
  0
LAYER
  5
3E
100
AcDbSymbolTableRecord
100
AcDbLayerTableRecord
  2
GEWINDELINIEN
 70
        64
 62
       212
  6
CONTINUOUS
290
         1
370
        25
390
1D
  0
LAYER
  5
3F
100
AcDbSymbolTableRecord
100
AcDbLayerTableRecord
  2
UNSICHTBARE
 70
        64
 62
        92
  6
DASHED
290
         1
370
        25
390
1D
  0
LAYER
  5
40
100
AcDbSymbolTableRecord
100
AcDbLayerTableRecord
  2
VERDECKTE
 70
        64
 62
        92
  6
DASHED
290
         1
370
        25
390
1D
  0
LAYER
  5
41
100
AcDbSymbolTableRecord
100
AcDbLayerTableRecord
  2
LICHTKANTEN
 70
        64
 62
         8
  6
CONTINUOUS
290
         1
370
        25
390
1D
  0
LAYER
  5
42
100
AcDbSymbolTableRecord
100
AcDbLayerTableRecord
  2
SCHNITTVERLAUF
 70
        64
 62
        34
  6
DASHDOT
290
         1
370
        70
390
1D
  0
LAYER
  5
43
100
AcDbSymbolTableRecord
100
AcDbLayerTableRecord
  2
KENNZEICHNUNG
 70
        64
 62
         7
  6
CONTINUOUS
290
         1
370
         0
390
1D
  0
LAYER
  5
44
100
AcDbSymbolTableRecord
100
AcDbLayerTableRecord
  2
PFEILE
 70
        64
 62
         7
  6
CONTINUOUS
290
         1
370
        70
390
1D
  0
LAYER
  5
45
100
AcDbSymbolTableRecord
100
AcDbLayerTableRecord
  2
SCHNITTDARSTELLUNG
 70
        64
 62
         7
  6
CONTINUOUS
290
         1
370
         0
390
1D
  0
LAYER
  5
46
100
AcDbSymbolTableRecord
100
AcDbLayerTableRecord
  2
_5701_2___4G WEICHENSCHIEBER
 70
        64
 62
        30
  6
DASHED
290
         1
370
        18
390
1D
  0
LAYER
  5
47
100
AcDbSymbolTableRecord
100
AcDbLayerTableRecord
  2
5701_2___4G WEICHENSCHIEBER
 70
        64
 62
        30
  6
CONTINUOUS
290
         1
370
        18
390
1D
  0
LAYER
  5
48
100
AcDbSymbolTableRecord
100
AcDbLayerTableRecord
  2
_5701_5___7G FAHRSTRAßENSCHIEBER
 70
        64
 62
         5
  6
CONTINUOUS
290
         1
370
        18
390
1D
  0
LAYER
  5
49
100
AcDbSymbolTableRecord
100
AcDbLayerTableRecord
  2
5701_5___7G FAHRSTRAßENSCHIEBER
 70
        64
 62
         5
  6
DASHED
290
         1
370
        18
390
1D
  0
LAYER
  5
4A
100
AcDbSymbolTableRecord
100
AcDbLayerTableRecord
  2
5701_8 UMLENKUNG
 70
        64
 62
       150
  6
CONTINUOUS
290
         1
370
        18
390
1D
  0
LAYER
  5
4B
100
AcDbSymbolTableRecord
100
AcDbLayerTableRecord
  2
5701_10___15 BODEN UND DECKEL
 70
        64
 62
       142
  6
CONTINUOUS
290
         1
370
        18
390
1D
  0
LAYER
  5
4C
100
AcDbSymbolTableRecord
100
AcDbLayerTableRecord
  2
5701_16 ECKVERBINDER
 70
        64
 62
        14
  6
CONTINUOUS
290
         1
370
        18
390
1D
  0
LAYER
  5
4D
100
AcDbSymbolTableRecord
100
AcDbLayerTableRecord
  2
5701__ ZENTRALSCHLOSS
 70
        64
 62
         7
  6
CONTINUOUS
290
         1
370
         0
390
1D
  0
LAYER
  5
4E
100
AcDbSymbolTableRecord
100
AcDbLayerTableRecord
  2
2051_1-4 SCHLÜSSEL
 70
        64
 62
       190
  6
CONTINUOUS
290
         1
370
        18
390
1D
  0
LAYER
  5
4F
100
AcDbSymbolTableRecord
100
AcDbLayerTableRecord
  2
2051__ SCHLÜSSEL
 70
        64
 62
       190
  6
CONTINUOUS
290
         1
370
         0
390
1D
  0
LAYER
  5
50
100
AcDbSymbolTableRecord
100
AcDbLayerTableRecord
  2
2050_1_2 GEHÄUSE
 70
        64
 62
         7
  6
CONTINUOUS
290
         1
370
        18
390
1D
  0
LAYER
  5
51
100
AcDbSymbolTableRecord
100
AcDbLayerTableRecord
  2
2050_3 RIEGEL VERSCHOBEN
 70
        64
 62
       230
  6
DASHED
290
         1
370
        18
390
1D
  0
LAYER
  5
52
100
AcDbSymbolTableRecord
100
AcDbLayerTableRecord
  2
2050_3 RIEGEL UMGESPERRT
 70
        64
 62
       230
  6
DASHED
290
         1
370
        18
390
1D
  0
LAYER
  5
53
100
AcDbSymbolTableRecord
100
AcDbLayerTableRecord
  2
2050_3 RIEGEL
 70
        64
 62
       230
  6
CONTINUOUS
290
         1
370
        18
390
1D
  0
LAYER
  5
54
100
AcDbSymbolTableRecord
100
AcDbLayerTableRecord
  2
2050_4 ZUHALTUNG ANGEHOBEN
 70
        64
 62
        94
  6
HIDDEN
290
         1
370
        18
390
1D
  0
LAYER
  5
55
100
AcDbSymbolTableRecord
100
AcDbLayerTableRecord
  2
2050_4 ZUHALTUNG
 70
        64
 62
        94
  6
CONTINUOUS
290
         1
370
        18
390
1D
  0
LAYER
  5
56
100
AcDbSymbolTableRecord
100
AcDbLayerTableRecord
  2
WIPPE
 70
        64
 62
         5
  6
CONTINUOUS
290
         1
370
        18
390
1D
  0
LAYER
  5
57
100
AcDbSymbolTableRecord
100
AcDbLayerTableRecord
  2
AUSSCHLUSS
 70
        64
 62
        14
  6
CONTINUOUS
290
         1
370
        18
390
1D
  0
LAYER
  5
58
100
AcDbSymbolTableRecord
100
AcDbLayerTableRecord
  2
2050_5_6 BESATZUNG
 70
        64
 62
         8
  6
CONTINUOUS
290
         1
370
        18
390
1D
  0
LAYER
  5
59
100
AcDbSymbolTableRecord
100
AcDbLayerTableRecord
  2
2050__ SCHLOSS
 70
        64
 62
         7
  6
CONTINUOUS
290
         1
370
        18
390
1D
  0
LAYER
  5
5A
100
AcDbSymbolTableRecord
100
AcDbLayerTableRecord
  2
2052_5_6 BESATZUNG
 70
        64
 62
         8
  6
CONTINUOUS
290
         1
370
        18
390
1D
  0
LAYER
  5
5B
100
AcDbSymbolTableRecord
100
AcDbLayerTableRecord
  2
2052_3 RIEGEL UMGESPERRT
 70
        64
 62
       230
  6
DASHED
290
         1
370
        18
390
1D
  0
LAYER
  5
5C
100
AcDbSymbolTableRecord
100
AcDbLayerTableRecord
  2
2052_3 RIEGEL
 70
        64
 62
       230
  6
CONTINUOUS
290
         1
370
        18
390
1D
  0
LAYER
  5
5D
100
AcDbSymbolTableRecord
100
AcDbLayerTableRecord
  2
2052_4 ZUHALTUNG ANGEHOBEN
 70
        64
 62
        94
  6
DASHED
290
         1
370
        18
390
1D
  0
LAYER
  5
5E
100
AcDbSymbolTableRecord
100
AcDbLayerTableRecord
  2
2052_4 ZUHALTUNG
 70
        64
 62
        94
  6
CONTINUOUS
290
         1
370
        18
390
1D
  0
LAYER
  5
5F
100
AcDbSymbolTableRecord
100
AcDbLayerTableRecord
  2
2052_1_2_7_8 GEHÄUSE
 70
        64
 62
         7
  6
CONTINUOUS
290
         1
370
        18
390
1D
  0
LAYER
  5
60
100
AcDbSymbolTableRecord
100
AcDbLayerTableRecord
  2
2052__ SCHLOSS MIT DORN
 70
        64
 62
         7
  6
CONTINUOUS
290
         1
370
         0
390
1D
  0
LAYER
  5
61
100
AcDbSymbolTableRecord
100
AcDbLayerTableRecord
  2
2053_1-4 SCHLÜSSEL
 70
        64
 62
       190
  6
CONTINUOUS
290
         1
370
        18
390
1D
  0
LAYER
  5
62
100
AcDbSymbolTableRecord
100
AcDbLayerTableRecord
  2
2053__ SCHLÜSSEL
 70
        64
 62
         7
  6
CONTINUOUS
290
         1
370
         0
390
1D
  0
LAYER
  5
63
100
AcDbSymbolTableRecord
100
AcDbLayerTableRecord
  2
2913_1 AUFSPANNPLATTE
 70
        64
 62
         7
  6
CONTINUOUS
290
         1
370
        18
390
1D
  0
LAYER
  5
64
100
AcDbSymbolTableRecord
100
AcDbLayerTableRecord
  2
2913__ AUFSPANNPLATTE
 70
        64
 62
         7
  6
CONTINUOUS
290
         1
370
        18
390
1D
  0
LAYER
  5
65
100
AcDbSymbolTableRecord
100
AcDbLayerTableRecord
  2
KONSTRUKTION
 70
        64
 62
         7
  6
CONTINUOUS
290
         1
370
         0
390
1D
  0
LAYER
  5
66
100
AcDbSymbolTableRecord
100
AcDbLayerTableRecord
  2
2050_1R
 70
        64
 62
        15
  6
CONTINUOUS
290
         1
370
        13
390
1D
  0
LAYER
  5
67
100
AcDbSymbolTableRecord
100
AcDbLayerTableRecord
  2
2050___ SCHLOSS
 70
        64
 62
       230
  6
CONTINUOUS
290
         1
370
        13
390
1D
  0
LAYER
  5
68
100
AcDbSymbolTableRecord
100
AcDbLayerTableRecord
  2
2052_7L~A
 70
        64
 62
         5
  6
CONTINUOUS
290
         1
370
        13
390
1D
  0
LAYER
  5
69
100
AcDbSymbolTableRecord
100
AcDbLayerTableRecord
  2
2052_7L
 70
        64
 62
        30
  6
CONTINUOUS
290
         1
370
        13
390
1D
  0
LAYER
  5
6A
100
AcDbSymbolTableRecord
100
AcDbLayerTableRecord
  2
2052_3L
 70
        64
 62
        30
  6
CONTINUOUS
290
         1
370
        13
390
1D
  0
LAYER
  5
6B
100
AcDbSymbolTableRecord
100
AcDbLayerTableRecord
  2
2052_2L
 70
        64
 62
        30
  6
CONTINUOUS
290
         1
370
        13
390
1D
  0
LAYER
  5
6C
100
AcDbSymbolTableRecord
100
AcDbLayerTableRecord
  2
2052_1L
 70
        64
 62
        30
  6
CONTINUOUS
290
         1
370
        13
390
1D
  0
LAYER
  5
6D
100
AcDbSymbolTableRecord
100
AcDbLayerTableRecord
  2
2052_4L
 70
        64
 62
        30
  6
CONTINUOUS
290
         1
370
        13
390
1D
  0
LAYER
  5
6E
100
AcDbSymbolTableRecord
100
AcDbLayerTableRecord
  2
2052___ SCHLOSS MIT DORN L
 70
        64
 62
       230
  6
CONTINUOUS
290
         1
370
        13
390
1D
  0
LAYER
  5
6F
100
AcDbSymbolTableRecord
100
AcDbLayerTableRecord
  2
2052_1R
 70
        64
 62
        34
  6
CONTINUOUS
290
         1
370
        13
390
1D
  0
LAYER
  5
70
100
AcDbSymbolTableRecord
100
AcDbLayerTableRecord
  2
2052_4R
 70
        64
 62
        34
  6
CONTINUOUS
290
         1
370
        13
390
1D
  0
LAYER
  5
71
100
AcDbSymbolTableRecord
100
AcDbLayerTableRecord
  2
2052_2R~A
 70
        64
 62
         5
  6
CONTINUOUS
290
         1
370
        13
390
1D
  0
LAYER
  5
72
100
AcDbSymbolTableRecord
100
AcDbLayerTableRecord
  2
2052_2R
 70
        64
 62
        34
  6
CONTINUOUS
290
         1
370
        13
390
1D
  0
LAYER
  5
73
100
AcDbSymbolTableRecord
100
AcDbLayerTableRecord
  2
2052_3R
 70
        64
 62
        34
  6
CONTINUOUS
290
         1
370
        13
390
1D
  0
LAYER
  5
74
100
AcDbSymbolTableRecord
100
AcDbLayerTableRecord
  2
2052___ SCHLOSS MIT DORN R
 70
        64
 62
       230
  6
CONTINUOUS
290
         1
370
        13
390
1D
  0
LAYER
  5
75
100
AcDbSymbolTableRecord
100
AcDbLayerTableRecord
  2
2053_3A
 70
        64
 62
        11
  6
CONTINUOUS
290
         1
370
        13
390
1D
  0
LAYER
  5
76
100
AcDbSymbolTableRecord
100
AcDbLayerTableRecord
  2
2053_1P
 70
        64
 62
        11
  6
CONTINUOUS
290
         1
370
        13
390
1D
  0
LAYER
  5
77
100
AcDbSymbolTableRecord
100
AcDbLayerTableRecord
  2
2053_3D
 70
        64
 62
        11
  6
CONTINUOUS
290
         1
370
        13
390
1D
  0
LAYER
  5
78
100
AcDbSymbolTableRecord
100
AcDbLayerTableRecord
  2
2053_3E
 70
        64
 62
        11
  6
CONTINUOUS
290
         1
370
        13
390
1D
  0
LAYER
  5
79
100
AcDbSymbolTableRecord
100
AcDbLayerTableRecord
  2
2053_3C
 70
        64
 62
        11
  6
CONTINUOUS
290
         1
370
        13
390
1D
  0
LAYER
  5
7A
100
AcDbSymbolTableRecord
100
AcDbLayerTableRecord
  2
2053_3B
 70
        64
 62
        11
  6
CONTINUOUS
290
         1
370
        13
390
1D
  0
LAYER
  5
7B
100
AcDbSymbolTableRecord
100
AcDbLayerTableRecord
  2
2053_2P
 70
        64
 62
        11
  6
CONTINUOUS
290
         1
370
        13
390
1D
  0
LAYER
  5
7C
100
AcDbSymbolTableRecord
100
AcDbLayerTableRecord
  2
2053___ SCHLÜSSEL MIT DORN
 70
        64
 62
       230
  6
CONTINUOUS
290
         1
370
        13
390
1D
  0
LAYER
  5
7D
100
AcDbSymbolTableRecord
100
AcDbLayerTableRecord
  2
5701_8P
 70
        64
 62
       230
  6
CONTINUOUS
290
         1
370
        13
390
1D
  0
LAYER
  5
7E
100
AcDbSymbolTableRecord
100
AcDbLayerTableRecord
  2
5701_16P
 70
        64
 62
       230
  6
CONTINUOUS
290
         1
370
        13
390
1D
  0
LAYER
  5
7F
100
AcDbSymbolTableRecord
100
AcDbLayerTableRecord
  2
5701_21P
 70
        64
 62
       230
  6
CONTINUOUS
290
         1
370
        13
390
1D
  0
LAYER
  5
80
100
AcDbSymbolTableRecord
100
AcDbLayerTableRecord
  2
5701_31P
 70
        64
 62
       230
  6
CONTINUOUS
290
         1
370
        13
390
1D
  0
LAYER
  5
81
100
AcDbSymbolTableRecord
100
AcDbLayerTableRecord
  2
5701_41P
 70
        64
 62
       230
  6
CONTINUOUS
290
         1
370
        13
390
1D
  0
LAYER
  5
82
100
AcDbSymbolTableRecord
100
AcDbLayerTableRecord
  2
5701_51P
 70
        64
 62
       230
  6
CONTINUOUS
290
         1
370
        13
390
1D
  0
LAYER
  5
83
100
AcDbSymbolTableRecord
100
AcDbLayerTableRecord
  2
5701_61P
 70
        64
 62
       230
  6
CONTINUOUS
290
         1
370
        13
390
1D
  0
LAYER
  5
84
100
AcDbSymbolTableRecord
100
AcDbLayerTableRecord
  2
5701_71P
 70
        64
 62
       230
  6
CONTINUOUS
290
         1
370
        13
390
1D
  0
LAYER
  5
85
100
AcDbSymbolTableRecord
100
AcDbLayerTableRecord
  2
5701_22P
 70
        64
 62
       230
  6
CONTINUOUS
290
         1
370
        13
390
1D
  0
LAYER
  5
86
100
AcDbSymbolTableRecord
100
AcDbLayerTableRecord
  2
5701_42P
 70
        64
 62
       230
  6
CONTINUOUS
290
         1
370
        13
390
1D
  0
LAYER
  5
87
100
AcDbSymbolTableRecord
100
AcDbLayerTableRecord
  2
5701_32P
 70
        64
 62
       230
  6
CONTINUOUS
290
         1
370
        13
390
1D
  0
LAYER
  5
88
100
AcDbSymbolTableRecord
100
AcDbLayerTableRecord
  2
5701_52P
 70
        64
 62
       230
  6
CONTINUOUS
290
         1
370
        13
390
1D
  0
LAYER
  5
89
100
AcDbSymbolTableRecord
100
AcDbLayerTableRecord
  2
5701_72P
 70
        64
 62
       230
  6
CONTINUOUS
290
         1
370
        13
390
1D
  0
LAYER
  5
8A
100
AcDbSymbolTableRecord
100
AcDbLayerTableRecord
  2
5701_62P
 70
        64
 62
       230
  6
CONTINUOUS
290
         1
370
        13
390
1D
  0
LAYER
  5
8B
100
AcDbSymbolTableRecord
100
AcDbLayerTableRecord
  2
5701_10P
 70
        64
 62
       230
  6
CONTINUOUS
290
         1
370
        13
390
1D
  0
LAYER
  5
8C
100
AcDbSymbolTableRecord
100
AcDbLayerTableRecord
  2
5701_11P
 70
        64
 62
       230
  6
CONTINUOUS
290
         1
370
        13
390
1D
  0
LAYER
  5
8D
100
AcDbSymbolTableRecord
100
AcDbLayerTableRecord
  2
5701_12P
 70
        64
 62
       230
  6
CONTINUOUS
290
         1
370
        13
390
1D
  0
LAYER
  5
8E
100
AcDbSymbolTableRecord
100
AcDbLayerTableRecord
  2
5701_13P
 70
        64
 62
       230
  6
CONTINUOUS
290
         1
370
        13
390
1D
  0
LAYER
  5
8F
100
AcDbSymbolTableRecord
100
AcDbLayerTableRecord
  2
5701_14P
 70
        64
 62
       230
  6
CONTINUOUS
290
         1
370
        13
390
1D
  0
LAYER
  5
90
100
AcDbSymbolTableRecord
100
AcDbLayerTableRecord
  2
5701_17P
 70
        64
 62
        30
  6
CONTINUOUS
290
         1
370
        13
390
1D
  0
LAYER
  5
91
100
AcDbSymbolTableRecord
100
AcDbLayerTableRecord
  2
5701___ ZENTRALSCHLOSS
 70
        64
 62
       230
  6
CONTINUOUS
290
         1
370
        13
390
1D
  0
LAYER
  5
92
100
AcDbSymbolTableRecord
100
AcDbLayerTableRecord
  2
___ 8901_2P
 70
        64
 62
        54
  6
CONTINUOUS
290
         1
370
        13
390
1D
  0
LAYER
  5
93
100
AcDbSymbolTableRecord
100
AcDbLayerTableRecord
  2
___ 8901___
 70
        64
 62
       230
  6
CONTINUOUS
290
         1
370
        13
390
1D
  0
LAYER
  5
94
100
AcDbSymbolTableRecord
100
AcDbLayerTableRecord
  2
1084___
 70
        64
 62
       230
  6
CONTINUOUS
290
         1
370
        13
390
1D
  0
LAYER
  5
95
100
AcDbSymbolTableRecord
100
AcDbLayerTableRecord
  2
PFADE
 70
        64
 62
         7
  6
CONTINUOUS
290
         1
370
         0
390
1D
  0
LAYER
  5
96
100
AcDbSymbolTableRecord
100
AcDbLayerTableRecord
  2
_TEMP
 70
        64
 62
         7
  6
CONTINUOUS
290
         1
370
        50
390
1D
  0
LAYER
  5
97
100
AcDbSymbolTableRecord
100
AcDbLayerTableRecord
  2
STANDARD
 70
        64
 62
         7
  6
CONTINUOUS
290
         1
370
         0
390
1D
  0
ENDTAB
  0
TABLE
  2
STYLE
  5
3
100
AcDbSymbolTable
 70
         7
  0
STYLE
  5
17
100
AcDbSymbolTableRecord
100
AcDbTextStyleTableRecord
  2
Standard
 70
         0
 40
0.0
 41
1.0
 50
0.0
 71
         0
 42
0.0
  3
txt
  4

  0
STYLE
  5
2D
100
AcDbSymbolTableRecord
100
AcDbTextStyleTableRecord
  2
CADdy
 70
         0
 40
0.0
 41
1.0
 50
0.0
 71
         0
 42
3.5
  3
txt.shx
  4

  0
STYLE
  5
2E
100
AcDbSymbolTableRecord
100
AcDbTextStyleTableRecord
  2
Arial
 70
         0
 40
0.0
 41
1.0
 50
0.0
 71
         0
 42
3.5
  3
arial.ttf
  4

1001
ACAD
1000
Arial
1071
       34
  0
STYLE
  5
2F
100
AcDbSymbolTableRecord
100
AcDbTextStyleTableRecord
  2
Isonorm
 70
         0
 40
0.0
 41
1.0
 50
0.0
 71
         0
 42
3.5
  3
txt.shx
  4

  0
STYLE
  5
30
100
AcDbSymbolTableRecord
100
AcDbTextStyleTableRecord
  2
Tahoma
 70
         0
 40
0.0
 41
1.0
 50
0.0
 71
         0
 42
3.5
  3
tahoma.ttf
  4

1001
ACAD
1000
Tahoma
1071
       34
  0
STYLE
  5
31
100
AcDbSymbolTableRecord
100
AcDbTextStyleTableRecord
  2
Microsoft Sans Serif
 70
         0
 40
0.0
 41
1.0
 50
0.0
 71
         0
 42
3.5
  3
micross.ttf
  4

1001
ACAD
1000
Microsoft Sans Serif
1071
       34
  0
STYLE
  5
32
100
AcDbSymbolTableRecord
100
AcDbTextStyleTableRecord
  2
Arial Rounded MT Bold
 70
         0
 40
0.0
 41
1.0
 50
0.0
 71
         0
 42
3.5
  3
txt.shx
  4

  0
ENDTAB
  0
TABLE
  2
VIEW
  5
5
100
AcDbSymbolTable
 70
         0
  0
ENDTAB
  0
TABLE
  2
UCS
  5
6
100
AcDbSymbolTable
 70
         0
  0
ENDTAB
  0
TABLE
  2
APPID
  5
8
100
AcDbSymbolTable
 70
         1
  0
APPID
  5
16
100
AcDbSymbolTableRecord
100
AcDbRegAppTableRecord
  2
ACAD
 70
        64
  0
ENDTAB
  0
TABLE
  2
DIMSTYLE
  5
9
100
AcDbSymbolTable
 70
         1
100
AcDbDimStyleTable
 71
         0
  0
DIMSTYLE
105
18
100
AcDbSymbolTableRecord
100
AcDbDimStyleTableRecord
  2
Standard
 70
         0
  3

  4

 40
1.0
 41
0.18
 42
0.0625
 43
0.38
 44
0.18
 45
0.0
 46
0.0
 47
0.0
 48
0.0
 71
         0
 72
         0
 73
         1
 74
         1
 75
         0
 76
         0
 77
         0
 78
         0
 79
         0
140
0.18
141
0.09
142
0.0
143
25.4
144
1.0
145
0.0
146
1.0
147
0.09
148
0.0
170
         0
171
         2
172
         0
173
         0
174
         0
175
         0
176
         0
177
         0
178
         0
179
         0
271
         4
272
         4
273
         2
274
         2
275
         0
276
         0
277
         2
278
        46
279
         0
280
         0
281
         0
282
         0
283
         1
284
         0
285
         0
286
         0
288
         0
289
         3
340
17
341
0
342
0
343
0
344
0
371
        -2
372
        -2
  0
ENDTAB
  0
TABLE
  2
BLOCK_RECORD
  5
1
100
AcDbSymbolTable
 70
         2
  0
BLOCK_RECORD
  5
A
100
AcDbSymbolTableRecord
100
AcDbBlockTableRecord
  2
*MODEL_SPACE
340
20
  0
BLOCK_RECORD
  5
B
100
AcDbSymbolTableRecord
100
AcDbBlockTableRecord
  2
*PAPER_SPACE
340
21
  0
BLOCK_RECORD
  5
98
100
AcDbSymbolTableRecord
100
AcDbBlockTableRecord
  2
D354473984
340
0
102
{BLKREFS
331
149
102
}
  0
BLOCK_RECORD
  5
A1
100
AcDbSymbolTableRecord
100
AcDbBlockTableRecord
  2
D571691008
340
0
102
{BLKREFS
331
14A
102
}
  0
ENDTAB
  0
ENDSEC
  0
SECTION
  2
BLOCKS
  0
BLOCK
  5
D
100
AcDbEntity
  8
0
390
0
100
AcDbBlockBegin
  2
*MODEL_SPACE
 70
         0
 10
0.0
 20
0.0
 30
0.0
  3
*MODEL_SPACE
  1

  0
ENDBLK
  5
E
100
AcDbEntity
  8
0
390
0
100
AcDbBlockEnd
  0
BLOCK
  5
F
100
AcDbEntity
 67
         1
  8
0
390
0
100
AcDbBlockBegin
  2
*PAPER_SPACE
 70
         0
 10
0.0
 20
0.0
 30
0.0
  3
*PAPER_SPACE
  1

  0
ENDBLK
  5
10
100
AcDbEntity
 67
         1
  8
0
390
0
100
AcDbBlockEnd
  0
BLOCK
  5
99
100
AcDbEntity
  8
BEMASSUNG
390
0
100
AcDbBlockBegin
  2
D354473984
 70
         0
 10
0.0
 20
0.0
 30
0.0
  3
D354473984
  1

  0
LINE
  5
9A
100
AcDbEntity
  8
MASSLINIEN
390
0
 62
       172
100
AcDbLine
 10
67.7243161765
 20
258.6892199654
 30
0.0
 11
67.7243161765
 21
238.6892870957
 31
0.0
  0
LINE
  5
9B
100
AcDbEntity
  8
MASSLINIEN
390
0
 62
       172
100
AcDbLine
 10
37.3862810269
 20
258.6892199654
 30
0.0
 11
69.7243161765
 21
258.6892199654
 31
0.0
  0
LINE
  5
9C
100
AcDbEntity
  8
MASSLINIEN
390
0
 62
       172
100
AcDbLine
 10
37.3862810269
 20
238.6892870957
 30
0.0
 11
69.7243161765
 21
238.6892870957
 31
0.0
  0
SOLID
  5
9D
100
AcDbEntity
  8
MASSGRENZEN
390
0
100
AcDbTrace
 10
67.7243161765
 20
258.6892199654
 30
0.0
 11
68.1158947531
 21
255.7148853812
 31
0.0
 12
67.3327375998
 22
255.7148853812
 32
0.0
 13
67.3327375998
 23
255.7148853812
 33
0.0
  0
SOLID
  5
9E
100
AcDbEntity
  8
MASSGRENZEN
390
0
100
AcDbTrace
 10
67.7243161765
 20
238.6892870957
 30
0.0
 11
67.3327375998
 21
241.6636216798
 31
0.0
 12
68.1158947531
 22
241.6636216798
 32
0.0
 13
68.1158947531
 23
241.6636216798
 33
0.0
  0
MTEXT
  5
9F
100
AcDbEntity
  8
MASSTEXTE
390
0
 62
       212
100
AcDbMText
 10
64.5403161765
 20
248.6892535305
 30
0.0
 40
3.0
 41
0.0
 71
         5
 72
         1
  1
\W1.135145;\A1;20
  7
Arial
 11
0.0
 21
1.0
 31
0.0
 73
         0
 44
0.0
  0
ENDBLK
  5
A0
100
AcDbEntity
  8
0
390
0
100
AcDbBlockEnd
  0
BLOCK
  5
A2
100
AcDbEntity
  8
BEMASSUNG
390
0
100
AcDbBlockBegin
  2
D571691008
 70
         0
 10
0.0
 20
0.0
 30
0.0
  3
D571691008
  1

  0
LINE
  5
A3
100
AcDbEntity
  8
MASSLINIEN
390
0
 62
       172
100
AcDbLine
 10
37.3862810269
 20
230.5506176471
 30
0.0
 11
57.3912138965
 21
230.5506176471
 31
0.0
  0
LINE
  5
A4
100
AcDbEntity
  8
MASSLINIEN
390
0
 62
       172
100
AcDbLine
 10
37.3862810269
 20
136.5894264706
 30
0.0
 11
37.3862810269
 21
232.5506176471
 31
0.0
  0
LINE
  5
A5
100
AcDbEntity
  8
MASSLINIEN
390
0
 62
       172
100
AcDbLine
 10
57.3912138965
 20
238.6892870957
 30
0.0
 11
57.3912138965
 21
232.5506176471
 31
0.0
  0
SOLID
  5
A6
100
AcDbEntity
  8
MASSGRENZEN
390
0
100
AcDbTrace
 10
37.3862810269
 20
230.5506176471
 30
0.0
 11
40.360615611
 21
230.9421962237
 31
0.0
 12
40.360615611
 22
230.1590390704
 32
0.0
 13
40.360615611
 23
230.1590390704
 33
0.0
  0
SOLID
  5
A7
100
AcDbEntity
  8
MASSGRENZEN
390
0
100
AcDbTrace
 10
57.3912138965
 20
230.5506176471
 30
0.0
 11
54.4168793124
 21
230.1590390704
 31
0.0
 12
54.4168793124
 22
230.9421962237
 32
0.0
 13
54.4168793124
 23
230.9421962237
 33
0.0
  0
MTEXT
  5
A8
100
AcDbEntity
  8
MASSTEXTE
390
0
 62
       212
100
AcDbMText
 10
47.3887474617
 20
233.7346176471
 30
0.0
 40
3.0
 41
0.0
 71
         5
 72
         1
  1
\W1.135145;\A1;20
  7
Arial
 73
         0
 44
0.0
  0
ENDBLK
  5
A9
100
AcDbEntity
  8
0
390
0
100
AcDbBlockEnd
  0
ENDSEC
  0
SECTION
  2
ENTITIES
  0
LINE
  5
AA
100
AcDbEntity
  8
5701_10___15 BODEN UND DECKEL
390
0
100
AcDbLine
 10
116.5918700848
 20
276.7781299532
 30
0.0
 11
202.5918700848
 21
276.7781299532
 31
0.0
  0
LINE
  5
AB
100
AcDbEntity
  8
5701_10___15 BODEN UND DECKEL
390
0
100
AcDbLine
 10
202.5918700848
 20
276.7781299532
 30
0.0
 11
202.5918700848
 21
190.7781299532
 31
0.0
  0
LINE
  5
AC
100
AcDbEntity
  8
5701_10___15 BODEN UND DECKEL
390
0
100
AcDbLine
 10
202.5918700848
 20
190.7781299532
 30
0.0
 11
116.5918700848
 21
190.7781299532
 31
0.0
  0
LINE
  5
AD
100
AcDbEntity
  8
5701_10___15 BODEN UND DECKEL
390
0
100
AcDbLine
 10
116.5918700848
 20
190.7781299532
 30
0.0
 11
116.5918700848
 21
276.7781299532
 31
0.0
  0
LINE
  5
AE
100
AcDbEntity
  8
5701_10___15 BODEN UND DECKEL
390
0
100
AcDbLine
 10
116.5918700848
 20
47.7781299532
 30
0.0
 11
202.5918700848
 21
47.7781299532
 31
0.0
  0
LINE
  5
AF
100
AcDbEntity
  8
5701_10___15 BODEN UND DECKEL
390
0
100
AcDbLine
 10
202.5918700848
 20
47.7781299532
 30
0.0
 11
202.5918700848
 21
168.7781299532
 31
0.0
  0
LINE
  5
B0
100
AcDbEntity
  8
5701_10___15 BODEN UND DECKEL
390
0
100
AcDbLine
 10
202.5918700848
 20
168.7781299532
 30
0.0
 11
116.5918700848
 21
168.7781299532
 31
0.0
  0
LINE
  5
B1
100
AcDbEntity
  8
5701_10___15 BODEN UND DECKEL
390
0
100
AcDbLine
 10
116.5918700848
 20
168.7781299532
 30
0.0
 11
116.5918700848
 21
47.7781299532
 31
0.0
  0
LINE
  5
B2
100
AcDbEntity
  8
5701_16 ECKVERBINDER
390
0
100
AcDbLine
 10
38.3862810269
 20
257.6892199654
 30
0.0
 11
56.3912138965
 21
257.6892199654
 31
0.0
  0
LINE
  5
B3
100
AcDbEntity
  8
5701_16 ECKVERBINDER
390
0
100
AcDbLine
 10
56.3912138965
 20
257.6892199654
 30
0.0
 11
56.3912138965
 21
239.6892870957
 31
0.0
  0
LINE
  5
B4
100
AcDbEntity
  8
5701_16 ECKVERBINDER
390
0
100
AcDbLine
 10
56.3912138965
 20
239.6892870957
 30
0.0
 11
38.3862810269
 21
239.6892870957
 31
0.0
  0
LINE
  5
B5
100
AcDbEntity
  8
5701_16 ECKVERBINDER
390
0
100
AcDbLine
 10
38.3862810269
 20
239.6892870957
 30
0.0
 11
38.3862810269
 21
257.6892199654
 31
0.0
  0
CIRCLE
  5
B6
100
AcDbEntity
  8
5701_12P
390
0
100
AcDbCircle
 10
154.5869372152
 20
194.7581970835
 30
0.0
 40
1.5
  0
CIRCLE
  5
B7
100
AcDbEntity
  8
5701_12P
390
0
100
AcDbCircle
 10
176.5869372152
 20
194.7581970835
 30
0.0
 40
1.5
  0
CIRCLE
  5
B8
100
AcDbEntity
  8
5701_12P
390
0
100
AcDbCircle
 10
198.5918700848
 20
194.7781299532
 30
0.0
 40
1.5
  0
CIRCLE
  5
B9
100
AcDbEntity
  8
5701_12P
390
0
100
AcDbCircle
 10
132.5869372152
 20
194.7581970835
 30
0.0
 40
1.5
  0
CIRCLE
  5
BA
100
AcDbEntity
  8
5701_12P
390
0
100
AcDbCircle
 10
120.5918700848
 20
194.7781635184
 30
0.0
 40
1.5
  0
CIRCLE
  5
BB
100
AcDbEntity
  8
5701_12P
390
0
100
AcDbCircle
 10
120.5718700848
 20
228.7781970835
 30
0.0
 40
1.5
  0
CIRCLE
  5
BC
100
AcDbEntity
  8
5701_12P
390
0
100
AcDbCircle
 10
120.5718700848
 20
206.7781970835
 30
0.0
 40
1.5
  0
CIRCLE
  5
BD
100
AcDbEntity
  8
5701_12P
390
0
100
AcDbCircle
 10
120.5718700848
 20
250.7781970835
 30
0.0
 40
1.5
  0
CIRCLE
  5
BE
100
AcDbEntity
  8
5701_12P
390
0
100
AcDbCircle
 10
120.5718700848
 20
272.7781970835
 30
0.0
 40
1.5
  0
CIRCLE
  5
BF
100
AcDbEntity
  8
5701_12P
390
0
100
AcDbCircle
 10
132.5626897704
 20
272.7781970835
 30
0.0
 40
1.5
  0
CIRCLE
  5
C0
100
AcDbEntity
  8
5701_12P
390
0
100
AcDbCircle
 10
154.5626897704
 20
272.7781970835
 30
0.0
 40
1.5
  0
CIRCLE
  5
C1
100
AcDbEntity
  8
5701_12P
390
0
100
AcDbCircle
 10
176.5626897704
 20
272.7781970835
 30
0.0
 40
1.5
  0
CIRCLE
  5
C2
100
AcDbEntity
  8
5701_12P
390
0
100
AcDbCircle
 10
198.5626897704
 20
272.7781970835
 30
0.0
 40
1.5
  0
CIRCLE
  5
C3
100
AcDbEntity
  8
5701_12P
390
0
100
AcDbCircle
 10
198.5676226401
 20
250.7781970835
 30
0.0
 40
1.5
  0
CIRCLE
  5
C4
100
AcDbEntity
  8
5701_12P
390
0
100
AcDbCircle
 10
198.5918700848
 20
228.7781970835
 30
0.0
 40
1.5
  0
CIRCLE
  5
C5
100
AcDbEntity
  8
5701_12P
390
0
100
AcDbCircle
 10
198.5918700848
 20
206.7781970835
 30
0.0
 40
1.5
  0
CIRCLE
  5
C6
100
AcDbEntity
  8
5701_10P
390
0
100
AcDbCircle
 10
197.3418700848
 20
132.7831299532
 30
0.0
 40
1.75
  0
CIRCLE
  5
C7
100
AcDbEntity
  8
5701_10P
390
0
100
AcDbCircle
 10
198.5919372152
 20
164.8073102676
 30
0.0
 40
1.5
  0
CIRCLE
  5
C8
100
AcDbEntity
  8
5701_10P
390
0
100
AcDbCircle
 10
198.5919372152
 20
51.8073102676
 30
0.0
 40
1.5
  0
CIRCLE
  5
C9
100
AcDbEntity
  8
5701_10P
390
0
100
AcDbCircle
 10
120.5918700848
 20
51.7781299532
 30
0.0
 40
1.5
  0
CIRCLE
  5
CA
100
AcDbEntity
  8
5701_10P
390
0
100
AcDbCircle
 10
175.3418700848
 20
79.7831299532
 30
0.0
 40
1.75
  0
CIRCLE
  5
CB
100
AcDbEntity
  8
5701_10P
390
0
100
AcDbCircle
 10
175.3418700848
 20
110.7831299532
 30
0.0
 40
1.75
  0
CIRCLE
  5
CC
100
AcDbEntity
  8
5701_10P
390
0
100
AcDbCircle
 10
153.3418700848
 20
101.7831299532
 30
0.0
 40
1.75
  0
CIRCLE
  5
CD
100
AcDbEntity
  8
5701_10P
390
0
100
AcDbCircle
 10
153.3418700848
 20
132.7831299532
 30
0.0
 40
1.75
  0
CIRCLE
  5
CE
100
AcDbEntity
  8
5701_10P
390
0
100
AcDbCircle
 10
131.3418700848
 20
79.7831299532
 30
0.0
 40
1.75
  0
CIRCLE
  5
CF
100
AcDbEntity
  8
5701_10P
390
0
100
AcDbCircle
 10
131.3418700848
 20
110.7831299532
 30
0.0
 40
1.75
  0
CIRCLE
  5
D0
100
AcDbEntity
  8
5701_10P
390
0
100
AcDbCircle
 10
197.3418700848
 20
101.7831299532
 30
0.0
 40
1.75
  0
CIRCLE
  5
D1
100
AcDbEntity
  8
5701_10P
390
0
100
AcDbCircle
 10
120.5918700848
 20
164.7781299532
 30
0.0
 40
1.5
  0
CIRCLE
  5
D2
100
AcDbEntity
  8
5701_10P
390
0
100
AcDbCircle
 10
153.8418700848
 20
120.2831299532
 30
0.0
 40
3.5
  0
CIRCLE
  5
D3
100
AcDbEntity
  8
5701_10P
390
0
100
AcDbCircle
 10
131.8418700848
 20
98.2831299532
 30
0.0
 40
3.5
  0
CIRCLE
  5
D4
100
AcDbEntity
  8
5701_10P
390
0
100
AcDbCircle
 10
197.8418700848
 20
120.2831299532
 30
0.0
 40
3.5
  0
CIRCLE
  5
D5
100
AcDbEntity
  8
5701_10P
390
0
100
AcDbCircle
 10
175.8418700848
 20
98.2831299532
 30
0.0
 40
3.5
  0
CIRCLE
  5
D6
100
AcDbEntity
  8
5701_16P
390
0
100
AcDbCircle
 10
42.3862810269
 20
253.6892870957
 30
0.0
 40
1.25
  0
CIRCLE
  5
D7
100
AcDbEntity
  8
5701_16P
390
0
100
AcDbCircle
 10
52.3912138965
 20
253.6892870957
 30
0.0
 40
1.25
  0
CIRCLE
  5
D8
100
AcDbEntity
  8
5701_16P
390
0
100
AcDbCircle
 10
52.3912138965
 20
243.6892870957
 30
0.0
 40
1.25
  0
CIRCLE
  5
D9
100
AcDbEntity
  8
5701_16P
390
0
100
AcDbCircle
 10
42.3862810269
 20
243.6892870957
 30
0.0
 40
1.25
  0
MTEXT
  5
DA
100
AcDbEntity
  8
BESCHRIFTUNG
390
0
100
AcDbMText
 10
255.8593332506
 20
222.2701628126
 30
0.0
 40
3.0
 41
0.0
 71
         1
 72
         1
  3
\W0.918908;Weichenschieber lang\PWeichenschieber kurz\PWeichenschieber umgel.\PFahrstraßenschieber lang\PFahrstraßenschieber kurz\PFahrstraßenschieber umgel.\PUmlenkung\PVerschlusselement\PSchlösserboden\PSchlösserdeckel\PSchieberboden\PSchieberdeck
  1
el\PLeerboden und -deckel\PEckverbinder\PAbstandshalter\P
  7
Arial
 73
         1
 44
0.7
  0
MTEXT
  5
DB
100
AcDbEntity
  8
BESCHRIFTUNG
390
0
100
AcDbMText
 10
214.2212118301
 20
222.2701628126
 30
0.0
 40
3.0
 41
0.0
 71
         1
 72
         1
  1
\W1.135139;5701.2g\P5701.3g\P5701.4g\P5701.5g\P5701.6g\P5701.7g\P5701.8\P5701.9/4\P5701.10/A\P5701.11/A\P5701.12/A\P5701.13/A\P5701.14/A\P5701.16\P5701.17/4\P
  7
Arial
 73
         1
 44
0.7
  0
LINE
  5
DC
100
AcDbEntity
  8
5701_8 UMLENKUNG
390
0
100
AcDbLine
 10
52.6701995578
 20
217.199035013
 30
0.0
 11
42.5962109782
 21
217.199035013
 31
0.0
  0
LINE
  5
DD
100
AcDbEntity
  8
5701_8 UMLENKUNG
390
0
100
AcDbLine
 10
39.3356506354
 20
210.8819794999
 30
0.0
 11
46.2201232366
 21
201.1941501762
 31
0.0
  0
LINE
  5
DE
100
AcDbEntity
  8
5701_8 UMLENKUNG
390
0
100
AcDbLine
 10
53.2800688134
 20
202.2603372536
 30
0.0
 11
56.4695847918
 21
211.9481665772
 31
0.0
  0
ARC
  5
DF
100
AcDbEntity
  8
5701_8 UMLENKUNG
390
0
100
AcDbCircle
 10
52.6701995578
 20
213.199035013
 30
0.0
 40
4.0
100
AcDbArc
 50
341.7769473769
 51
450.0
  0
ARC
  5
E0
100
AcDbEntity
  8
5701_8 UMLENKUNG
390
0
100
AcDbCircle
 10
42.5962109782
 20
213.199035013
 30
0.0
 40
4.0
100
AcDbArc
 50
90.0
 51
215.3987844001
  0
ARC
  5
E1
100
AcDbEntity
  8
5701_8 UMLENKUNG
390
0
100
AcDbCircle
 10
49.4806835794
 20
203.5112056893
 30
0.0
 40
4.0
100
AcDbArc
 50
215.3987844001
 51
341.7769473769
  0
CIRCLE
  5
E2
100
AcDbEntity
  8
5701_8P
390
0
100
AcDbCircle
 10
52.6701995578
 20
213.199035013
 30
0.0
 40
2.5
  0
CIRCLE
  5
E3
100
AcDbEntity
  8
5701_8P
390
0
100
AcDbCircle
 10
42.5962109782
 20
213.199035013
 30
0.0
 40
1.25
  0
CIRCLE
  5
E4
100
AcDbEntity
  8
5701_8P
390
0
100
AcDbCircle
 10
49.4806835794
 20
203.5112056893
 30
0.0
 40
1.25
  0
LINE
  5
E5
100
AcDbEntity
  8
MITTELLINIEN
390
0
100
AcDbLine
 10
115.0918700848
 20
173.7781299532
 30
0.0
 11
115.0918700848
 21
42.7781299532
 31
0.0
  0
LINE
  5
E6
100
AcDbEntity
  8
MITTELLINIEN
390
0
100
AcDbLine
 10
115.0918700848
 20
185.7781299532
 30
0.0
 11
115.0918700848
 21
281.7781299532
 31
0.0
  0
LINE
  5
E7
100
AcDbEntity
  8
MITTELLINIEN
390
0
100
AcDbLine
 10
37.3862810269
 20
131.5894264706
 30
0.0
 11
37.3862810269
 21
262.6892199654
 31
0.0
  0
TEXT
  5
E8
100
AcDbEntity
  8
BESCHRIFTUNG
390
0
100
AcDbText
 10
17.9487584745
 20
265.1783172947
 30
0.0
 40
2.5
  1
5701.16P
 41
1.13510446
  7
Arial
100
AcDbText
  0
TEXT
  5
E9
100
AcDbEntity
  8
BESCHRIFTUNG
390
0
100
AcDbText
 10
18.8310231804
 20
225.035273177
 30
0.0
 40
2.5
  1
5701.8P
 41
1.1350983196
  7
Arial
100
AcDbText
  0
TEXT
  5
EA
100
AcDbEntity
  8
BESCHRIFTUNG
390
0
100
AcDbText
 10
122.0559937686
 20
174.7461849417
 30
0.0
 40
2.5
  1
5701.10P
 41
1.1351043651
  7
Arial
100
AcDbText
  0
TEXT
  5
EB
100
AcDbEntity
  8
BESCHRIFTUNG
390
0
100
AcDbText
 10
92.0589937686
 20
269.5896408241
 30
0.0
 40
2.5
  1
5701.12P
 41
1.1351043651
  7
Arial
100
AcDbText
  0
CIRCLE
  5
EC
100
AcDbEntity
  8
5701_16P
390
0
  6
PHANTOM
100
AcDbCircle
 10
37.3862810269
 20
258.6892199654
 30
0.0
 40
0.5
  0
CIRCLE
  5
ED
100
AcDbEntity
  8
5701_16P
390
0
  6
PHANTOM
100
AcDbCircle
 10
37.3862810269
 20
238.6892870957
 30
0.0
 40
1.0
  0
CIRCLE
  5
EE
100
AcDbEntity
  8
5701_8P
390
0
  6
PHANTOM
100
AcDbCircle
 10
37.3862810269
 20
218.199035013
 30
0.0
 40
0.5
  0
CIRCLE
  5
EF
100
AcDbEntity
  8
5701_8P
390
0
  6
PHANTOM
100
AcDbCircle
 10
37.3862810269
 20
198.199035013
 30
0.0
 40
1.0
  0
CIRCLE
  5
F0
100
AcDbEntity
  8
5701_12P
390
0
  6
PHANTOM
100
AcDbCircle
 10
115.0918700848
 20
277.7781299532
 30
0.0
 40
0.5
  0
CIRCLE
  5
F1
100
AcDbEntity
  8
5701_12P
390
0
  6
PHANTOM
100
AcDbCircle
 10
115.0918700848
 20
189.7781299532
 30
0.0
 40
1.0
  0
CIRCLE
  5
F2
100
AcDbEntity
  8
5701_10P
390
0
  6
PHANTOM
100
AcDbCircle
 10
115.0918700848
 20
169.7781299532
 30
0.0
 40
0.5
  0
CIRCLE
  5
F3
100
AcDbEntity
  8
5701_10P
390
0
  6
PHANTOM
100
AcDbCircle
 10
115.0918700848
 20
46.7781299532
 30
0.0
 40
1.0
  0
LINE
  5
F4
100
AcDbEntity
  8
5701_16P
390
0
  6
DIVIDE
100
AcDbLine
 10
37.3862810269
 20
258.6892199654
 30
0.0
 11
57.3912138965
 21
258.6892199654
 31
0.0
  0
LINE
  5
F5
100
AcDbEntity
  8
5701_16P
390
0
100
AcDbLine
 10
57.3912138965
 20
258.6892199654
 30
0.0
 11
57.3912138965
 21
238.6892870957
 31
0.0
  0
LINE
  5
F6
100
AcDbEntity
  8
5701_16P
390
0
  6
DIVIDE
100
AcDbLine
 10
57.3912138965
 20
238.6892870957
 30
0.0
 11
37.3862810269
 21
238.6892870957
 31
0.0
  0
LINE
  5
F7
100
AcDbEntity
  8
5701_16P
390
0
100
AcDbLine
 10
37.3862810269
 20
238.6892870957
 30
0.0
 11
37.3862810269
 21
257.6892199654
 31
0.0
  0
LINE
  5
F8
100
AcDbEntity
  8
5701_8P
390
0
  6
DIVIDE
100
AcDbLine
 10
52.6701995578
 20
218.199035013
 30
0.0
 11
42.5962109782
 21
218.199035013
 31
0.0
  0
ARC
  5
F9
100
AcDbEntity
  8
5701_8P
390
0
100
AcDbCircle
 10
52.6701995578
 20
213.199035013
 30
0.0
 40
5.0
100
AcDbArc
 50
341.7769473769
 51
450.0
  0
LINE
  5
FA
100
AcDbEntity
  8
5701_8P
390
0
100
AcDbLine
 10
54.2299151219
 20
201.9476201446
 30
0.0
 11
57.4194311003
 21
211.6354494683
 31
0.0
  0
ARC
  5
FB
100
AcDbEntity
  8
5701_8P
390
0
100
AcDbCircle
 10
49.4806835794
 20
203.5112056893
 30
0.0
 40
5.0
100
AcDbArc
 50
215.3987844001
 51
341.7769473769
  0
LINE
  5
FC
100
AcDbEntity
  8
5701_8P
390
0
  6
DIVIDE
100
AcDbLine
 10
38.5205105497
 20
210.3027156216
 30
0.0
 11
45.4049831509
 21
200.6148862979
 31
0.0
  0
ARC
  5
FD
100
AcDbEntity
  8
5701_8P
390
0
100
AcDbCircle
 10
42.5962109782
 20
213.199035013
 30
0.0
 40
5.0
100
AcDbArc
 50
90.0
 51
215.3987844001
  0
LINE
  5
FE
100
AcDbEntity
  8
5701_12P
390
0
100
AcDbLine
 10
115.0918700848
 20
277.7781299532
 30
0.0
 11
203.5918700848
 21
277.7781299532
 31
0.0
  0
LINE
  5
FF
100
AcDbEntity
  8
5701_12P
390
0
  6
BORDER
100
AcDbLine
 10
203.5918700848
 20
277.7781299532
 30
0.0
 11
203.5918700848
 21
189.7781299532
 31
0.0
  0
LINE
  5
100
100
AcDbEntity
  8
5701_12P
390
0
  6
BORDER
100
AcDbLine
 10
203.5918700848
 20
189.7781299532
 30
0.0
 11
115.5918700848
 21
189.7781299532
 31
0.0
  0
LINE
  5
101
100
AcDbEntity
  8
5701_12P
390
0
  6
BORDER
100
AcDbLine
 10
115.5918700848
 20
189.7781299532
 30
0.0
 11
115.5918700848
 21
276.7781299532
 31
0.0
  0
LINE
  5
102
100
AcDbEntity
  8
5701_10P
390
0
  6
BORDER
100
AcDbLine
 10
203.5918700848
 20
169.7781299532
 30
0.0
 11
115.0918700848
 21
169.7781299532
 31
0.0
  0
LINE
  5
103
100
AcDbEntity
  8
5701_10P
390
0
  6
BORDER
100
AcDbLine
 10
115.5918700848
 20
168.7781299532
 30
0.0
 11
115.5918700848
 21
46.7781299532
 31
0.0
  0
LINE
  5
104
100
AcDbEntity
  8
5701_10P
390
0
  6
BORDER
100
AcDbLine
 10
115.5918700848
 20
46.7781299532
 30
0.0
 11
203.5918700848
 21
46.7781299532
 31
0.0
  0
LINE
  5
105
100
AcDbEntity
  8
5701_10P
390
0
  6
BORDER
100
AcDbLine
 10
203.5918700848
 20
46.7781299532
 30
0.0
 11
203.5918700848
 21
169.7781299532
 31
0.0
  0
LINE
  5
106
100
AcDbEntity
  8
5701_16P
390
0
  6
HIDDEN
100
AcDbLine
 10
37.3862810269
 20
257.6892199654
 30
0.0
 11
42.3862810269
 21
253.6892870957
 31
0.0
  0
LINE
  5
107
100
AcDbEntity
  8
5701_16P
390
0
  6
HIDDEN
100
AcDbLine
 10
42.3862810269
 20
253.6892870957
 30
0.0
 11
52.3912138965
 21
253.6892870957
 31
0.0
  0
LINE
  5
108
100
AcDbEntity
  8
5701_16P
390
0
  6
HIDDEN
100
AcDbLine
 10
52.3912138965
 20
253.6892870957
 30
0.0
 11
52.3912138965
 21
243.6892870957
 31
0.0
  0
LINE
  5
109
100
AcDbEntity
  8
5701_16P
390
0
  6
HIDDEN
100
AcDbLine
 10
52.3912138965
 20
243.6892870957
 30
0.0
 11
42.3862810269
 21
243.6892870957
 31
0.0
  0
LINE
  5
10A
100
AcDbEntity
  8
5701_16P
390
0
  6
HIDDEN
100
AcDbLine
 10
42.3862810269
 20
243.6892870957
 30
0.0
 11
37.3862810269
 21
238.6892870957
 31
0.0
  0
LINE
  5
10B
100
AcDbEntity
  8
5701_8P
390
0
  6
HIDDEN
100
AcDbLine
 10
37.3862810269
 20
218.199035013
 30
0.0
 11
42.5962109782
 21
218.199035013
 31
0.0
  0
LINE
  5
10C
100
AcDbEntity
  8
5701_8P
390
0
  6
HIDDEN
100
AcDbLine
 10
42.5962109782
 20
218.199035013
 30
0.0
 11
42.5962109782
 21
213.199035013
 31
0.0
  0
LINE
  5
10D
100
AcDbEntity
  8
5701_8P
390
0
  6
HIDDEN
100
AcDbLine
 10
42.5962109782
 20
213.199035013
 30
0.0
 11
52.6701995578
 21
213.199035013
 31
0.0
  0
LINE
  5
10E
100
AcDbEntity
  8
5701_8P
390
0
  6
HIDDEN
100
AcDbLine
 10
52.6701995578
 20
213.199035013
 30
0.0
 11
49.4806835794
 21
203.5112056893
 31
0.0
  0
LINE
  5
10F
100
AcDbEntity
  8
5701_8P
390
0
  6
HIDDEN
100
AcDbLine
 10
49.4806835794
 20
203.5112056893
 30
0.0
 11
37.3862810269
 21
198.199035013
 31
0.0
  0
TEXT
  5
110
100
AcDbEntity
  8
5701_8P
390
0
  6
HIDDEN
100
AcDbText
 10
36.4815832617
 20
214.6646372761
 30
0.0
 40
2.0
  1
N1
 41
1.1350267802
  7
Arial
100
AcDbText
  0
LINE
  5
111
100
AcDbEntity
  8
5701_12P
390
0
  6
HIDDEN
100
AcDbLine
 10
115.5918700848
 20
276.7781299532
 30
0.0
 11
120.5718700848
 21
272.7781970835
 31
0.0
  0
LINE
  5
112
100
AcDbEntity
  8
5701_12P
390
0
  6
HIDDEN
100
AcDbLine
 10
120.5718700848
 20
272.7781970835
 30
0.0
 11
132.5626897704
 21
272.7781970835
 31
0.0
  0
LINE
  5
113
100
AcDbEntity
  8
5701_12P
390
0
  6
HIDDEN
100
AcDbLine
 10
132.5626897704
 20
272.7781970835
 30
0.0
 11
154.5626897704
 21
272.7781970835
 31
0.0
  0
LINE
  5
114
100
AcDbEntity
  8
5701_12P
390
0
  6
HIDDEN
100
AcDbLine
 10
154.5626897704
 20
272.7781970835
 30
0.0
 11
176.5626897704
 21
272.7781970835
 31
0.0
  0
LINE
  5
115
100
AcDbEntity
  8
5701_12P
390
0
  6
HIDDEN
100
AcDbLine
 10
176.5626897704
 20
272.7781970835
 30
0.0
 11
198.5626897704
 21
272.7781970835
 31
0.0
  0
LINE
  5
116
100
AcDbEntity
  8
5701_12P
390
0
  6
HIDDEN
100
AcDbLine
 10
198.5626897704
 20
272.7781970835
 30
0.0
 11
198.5676226401
 21
250.7781970835
 31
0.0
  0
LINE
  5
117
100
AcDbEntity
  8
5701_12P
390
0
  6
HIDDEN
100
AcDbLine
 10
198.5676226401
 20
250.7781970835
 30
0.0
 11
198.5918700848
 21
228.7781970835
 31
0.0
  0
LINE
  5
118
100
AcDbEntity
  8
5701_12P
390
0
  6
HIDDEN
100
AcDbLine
 10
198.5918700848
 20
228.7781970835
 30
0.0
 11
198.5918700848
 21
206.7781970835
 31
0.0
  0
LINE
  5
119
100
AcDbEntity
  8
5701_12P
390
0
  6
HIDDEN
100
AcDbLine
 10
198.5918700848
 20
206.7781970835
 30
0.0
 11
198.5918700848
 21
194.7781299532
 31
0.0
  0
LINE
  5
11A
100
AcDbEntity
  8
5701_12P
390
0
  6
HIDDEN
100
AcDbLine
 10
198.5918700848
 20
194.7781299532
 30
0.0
 11
176.5869372152
 21
194.7581970835
 31
0.0
  0
LINE
  5
11B
100
AcDbEntity
  8
5701_12P
390
0
  6
HIDDEN
100
AcDbLine
 10
176.5869372152
 20
194.7581970835
 30
0.0
 11
154.5869372152
 21
194.7581970835
 31
0.0
  0
LINE
  5
11C
100
AcDbEntity
  8
5701_12P
390
0
  6
HIDDEN
100
AcDbLine
 10
154.5869372152
 20
194.7581970835
 30
0.0
 11
132.5869372152
 21
194.7581970835
 31
0.0
  0
LINE
  5
11D
100
AcDbEntity
  8
5701_12P
390
0
  6
HIDDEN
100
AcDbLine
 10
132.5869372152
 20
194.7581970835
 30
0.0
 11
120.5718700848
 21
250.7781970835
 31
0.0
  0
LINE
  5
11E
100
AcDbEntity
  8
5701_12P
390
0
  6
HIDDEN
100
AcDbLine
 10
120.5718700848
 20
250.7781970835
 30
0.0
 11
120.5718700848
 21
228.7781970835
 31
0.0
  0
LINE
  5
11F
100
AcDbEntity
  8
5701_12P
390
0
  6
HIDDEN
100
AcDbLine
 10
120.5718700848
 20
228.7781970835
 30
0.0
 11
120.5718700848
 21
206.7781970835
 31
0.0
  0
LINE
  5
120
100
AcDbEntity
  8
5701_12P
390
0
  6
HIDDEN
100
AcDbLine
 10
120.5718700848
 20
206.7781970835
 30
0.0
 11
120.5918700848
 21
194.7781635184
 31
0.0
  0
LINE
  5
121
100
AcDbEntity
  8
5701_12P
390
0
  6
HIDDEN
100
AcDbLine
 10
120.5918700848
 20
194.7781635184
 30
0.0
 11
115.0918700848
 21
189.7781299532
 31
0.0
  0
LINE
  5
122
100
AcDbEntity
  8
5701_10P
390
0
  6
HIDDEN
100
AcDbLine
 10
115.5918700848
 20
168.7781299532
 30
0.0
 11
120.5918700848
 21
164.7781299532
 31
0.0
  0
LINE
  5
123
100
AcDbEntity
  8
5701_10P
390
0
  6
HIDDEN
100
AcDbLine
 10
120.5918700848
 20
164.7781299532
 30
0.0
 11
198.5919372152
 21
164.8073102676
 31
0.0
  0
LINE
  5
124
100
AcDbEntity
  8
5701_10P
390
0
  6
HIDDEN
100
AcDbLine
 10
198.5919372152
 20
164.8073102676
 30
0.0
 11
197.3418700848
 21
132.7831299532
 31
0.0
  0
LINE
  5
125
100
AcDbEntity
  8
5701_10P
390
0
  6
HIDDEN
100
AcDbLine
 10
197.3418700848
 20
132.7831299532
 30
0.0
 11
197.8418700848
 21
120.2831299532
 31
0.0
  0
LINE
  5
126
100
AcDbEntity
  8
5701_10P
390
0
  6
HIDDEN
100
AcDbLine
 10
197.8418700848
 20
120.2831299532
 30
0.0
 11
197.3418700848
 21
101.7831299532
 31
0.0
  0
LINE
  5
127
100
AcDbEntity
  8
5701_10P
390
0
  6
HIDDEN
100
AcDbLine
 10
197.3418700848
 20
101.7831299532
 30
0.0
 11
198.5919372152
 21
51.8073102676
 31
0.0
  0
LINE
  5
128
100
AcDbEntity
  8
5701_10P
390
0
  6
HIDDEN
100
AcDbLine
 10
198.5919372152
 20
51.8073102676
 30
0.0
 11
175.3418700848
 21
79.7831299532
 31
0.0
  0
LINE
  5
129
100
AcDbEntity
  8
5701_10P
390
0
  6
HIDDEN
100
AcDbLine
 10
175.3418700848
 20
79.7831299532
 30
0.0
 11
175.8418700848
 21
98.2831299532
 31
0.0
  0
LINE
  5
12A
100
AcDbEntity
  8
5701_10P
390
0
  6
HIDDEN
100
AcDbLine
 10
175.8418700848
 20
98.2831299532
 30
0.0
 11
175.3418700848
 21
110.7831299532
 31
0.0
  0
LINE
  5
12B
100
AcDbEntity
  8
5701_10P
390
0
  6
HIDDEN
100
AcDbLine
 10
175.3418700848
 20
110.7831299532
 30
0.0
 11
153.3418700848
 21
101.7831299532
 31
0.0
  0
LINE
  5
12C
100
AcDbEntity
  8
5701_10P
390
0
  6
HIDDEN
100
AcDbLine
 10
153.3418700848
 20
101.7831299532
 30
0.0
 11
153.8418700848
 21
120.2831299532
 31
0.0
  0
LINE
  5
12D
100
AcDbEntity
  8
5701_10P
390
0
  6
HIDDEN
100
AcDbLine
 10
153.8418700848
 20
120.2831299532
 30
0.0
 11
153.3418700848
 21
132.7831299532
 31
0.0
  0
LINE
  5
12E
100
AcDbEntity
  8
5701_10P
390
0
  6
HIDDEN
100
AcDbLine
 10
153.3418700848
 20
132.7831299532
 30
0.0
 11
131.3418700848
 21
110.7831299532
 31
0.0
  0
LINE
  5
12F
100
AcDbEntity
  8
5701_10P
390
0
  6
HIDDEN
100
AcDbLine
 10
131.3418700848
 20
110.7831299532
 30
0.0
 11
131.8418700848
 21
98.2831299532
 31
0.0
  0
LINE
  5
130
100
AcDbEntity
  8
5701_10P
390
0
  6
HIDDEN
100
AcDbLine
 10
131.8418700848
 20
98.2831299532
 30
0.0
 11
131.3418700848
 21
79.7831299532
 31
0.0
  0
LINE
  5
131
100
AcDbEntity
  8
5701_10P
390
0
  6
HIDDEN
100
AcDbLine
 10
131.3418700848
 20
79.7831299532
 30
0.0
 11
120.5918700848
 21
51.7781299532
 31
0.0
  0
LINE
  5
132
100
AcDbEntity
  8
5701_10P
390
0
  6
HIDDEN
100
AcDbLine
 10
120.5918700848
 20
51.7781299532
 30
0.0
 11
115.0918700848
 21
46.7781299532
 31
0.0
  0
MTEXT
  5
133
100
AcDbEntity
  8
5701_16P
390
0
100
AcDbMText
 10
24.3792257323
 20
257.8648146746
 30
0.0
 40
2.0
 41
0.0
 71
         7
 72
         1
  1
\W0.891760;M20+x2 T2 O2 F150\PB-0.3 D1.6    I1.2 S4
  7
Arial
 73
         1
 44
0.66
  0
MTEXT
  5
134
100
AcDbEntity
  8
5701_8P
390
0
100
AcDbMText
 10
24.3792257323
 20
217.3746297222
 30
0.0
 40
2.0
 41
0.0
 71
         7
 72
         1
  1
\W0.891760;M20+x2 T2 O2 F150\PB-0.3 D1.6    I1.2 S4
  7
Arial
 73
         1
 44
0.66
  0
MTEXT
  5
135
100
AcDbEntity
  8
5701_12P
390
0
100
AcDbMText
 10
102.7445671475
 20
275.4143024954
 30
0.0
 40
2.0
 41
0.0
 71
         7
 72
         1
  1
\W0.891790;MAx5 T5 O2 F400\PB-0.3 D3.6    I3 S7\PP8 U28
  7
Arial
 73
         1
 44
0.66
  0
MTEXT
  5
136
100
AcDbEntity
  8
5701_10P
390
0
100
AcDbMText
 10
102.7445671475
 20
167.4143024954
 30
0.0
 40
2.0
 41
0.0
 71
         7
 72
         1
  1
\W0.891790;MAx5 T5 O2 F400\PB-0.3 D3.6    I3 S7\PP8 U28
  7
Arial
 73
         1
 44
0.66
  0
ARC
  5
137
100
AcDbEntity
  8
5701___ ZENTRALSCHLOSS
390
0
  6
DASHDOT
100
AcDbCircle
 10
45.3137283721
 20
248.6892535305
 30
0.0
 40
12.7610246497
100
AcDbArc
 50
128.4055300531
 51
231.5944699469
  0
ARC
  5
138
100
AcDbEntity
  8
5701___ ZENTRALSCHLOSS
390
0
  6
DASHDOT
100
AcDbCircle
 10
44.0321552057
 20
208.199035013
 30
0.0
 40
12.0069831182
100
AcDbArc
 50
123.6075122341
 51
236.3924877659
  0
ARC
  5
139
100
AcDbEntity
  8
5701___ ZENTRALSCHLOSS
390
0
  6
DASHDOT
100
AcDbCircle
 10
271.2336098108
 20
233.7781299532
 30
0.0
 40
162.2228186312
100
AcDbArc
 50
164.2624159903
 51
195.7375840097
  0
ARC
  5
13A
100
AcDbEntity
  8
5701___ ZENTRALSCHLOSS
390
0
  6
DASHDOT
100
AcDbCircle
 10
268.4839994713
 20
108.2781299532
 30
0.0
 40
165.261596742
100
AcDbArc
 50
158.1525110125
 51
201.8474889875
  0
MTEXT
  5
13B
100
AcDbEntity
  8
5701___ ZENTRALSCHLOSS
390
0
100
AcDbMText
 10
23.6623856588
 20
247.398949601
 30
0.0
 40
2.0
 41
0.0
 71
         7
 72
         1
  1
\W0.891720;>5701.16P\PM20+x2 T2 O2
  7
Arial
 73
         1
 44
0.66
  0
MTEXT
  5
13C
100
AcDbEntity
  8
5701___ ZENTRALSCHLOSS
390
0
100
AcDbMText
 10
23.6623856588
 20
206.9087646486
 30
0.0
 40
2.0
 41
0.0
 71
         7
 72
         1
  1
\W0.891727;>5701.8P\PM20+x2 T2 O2
  7
Arial
 73
         1
 44
0.66
  0
MTEXT
  5
13D
100
AcDbEntity
  8
5701___ ZENTRALSCHLOSS
390
0
100
AcDbMText
 10
99.790926555
 20
233.9433202506
 30
0.0
 40
2.0
 41
0.0
 71
         7
 72
         1
  1
\W0.891720;>5701.12P\PMAx5 T5 O2
  7
Arial
 73
         1
 44
0.66
  0
MTEXT
  5
13E
100
AcDbEntity
  8
5701___ ZENTRALSCHLOSS
390
0
100
AcDbMText
 10
95.4898861138
 20
110.0821781918
 30
0.0
 40
2.0
 41
0.0
 71
         7
 72
         1
  1
\W0.891720;>5701.10P\PMAx5 T5 O2
  7
Arial
 73
         1
 44
0.66
  0
ARC
  5
13F
100
AcDbEntity
  8
5701___ ZENTRALSCHLOSS
390
0
  6
DASHDOT
100
AcDbCircle
 10
144.0533879284
 20
225.4819354342
 30
0.0
 40
162.2228186312
100
AcDbArc
 50
164.2624159903
 51
195.7375840097
  0
ARC
  5
140
100
AcDbEntity
  8
5701___ ZENTRALSCHLOSS
390
0
  6
DASHDOT
100
AcDbCircle
 10
141.303777589
 20
99.9819354342
 30
0.0
 40
165.261596742
100
AcDbArc
 50
158.1525110125
 51
201.8474889875
  0
MTEXT
  5
141
100
AcDbEntity
  8
5701___ ZENTRALSCHLOSS
390
0
100
AcDbMText
 10
-110.0598809156
 20
239.5438874349
 30
0.0
 40
2.0
 41
0.0
 71
         7
 72
         1
  1
\W0.891720;>5701.16P\PM20+x2 T2 O2
  7
Arial
 73
         1
 44
0.66
  0
MTEXT
  5
142
100
AcDbEntity
  8
5701___ ZENTRALSCHLOSS
390
0
100
AcDbMText
 10
-110.0598809156
 20
199.0537024825
 30
0.0
 40
2.0
 41
0.0
 71
         7
 72
         1
  1
\W0.891727;>5701.8P\PM20+x2 T2 O2
  7
Arial
 73
         1
 44
0.66
  0
MTEXT
  5
143
100
AcDbEntity
  8
5701___ ZENTRALSCHLOSS
390
0
100
AcDbMText
 10
-27.3892953274
 20
225.6471257316
 30
0.0
 40
2.0
 41
0.0
 71
         7
 72
         1
  1
\W0.891720;>5701.12P\PMAx5 T5 O2
  7
Arial
 73
         1
 44
0.66
  0
MTEXT
  5
144
100
AcDbEntity
  8
5701___ ZENTRALSCHLOSS
390
0
100
AcDbMText
 10
-31.6903357686
 20
101.7859836728
 30
0.0
 40
2.0
 41
0.0
 71
         7
 72
         1
  1
\W0.891720;>5701.10P\PMAx5 T5 O2
  7
Arial
 73
         1
 44
0.66
  0
ARC
  5
145
100
AcDbEntity
  8
5701___ ZENTRALSCHLOSS
390
0
  6
DASHDOT
100
AcDbCircle
 10
-88.4085382023
 20
240.8341913644
 30
0.0
 40
12.7610246497
100
AcDbArc
 50
128.4055300531
 51
231.5944699469
  0
ARC
  5
146
100
AcDbEntity
  8
5701___ ZENTRALSCHLOSS
390
0
  6
DASHDOT
100
AcDbCircle
 10
-89.6901113687
 20
200.3439728469
 30
0.0
 40
12.0069831182
100
AcDbArc
 50
123.6075122341
 51
236.3924877659
  0
TEXT
  5
147
100
AcDbEntity
  8
5701_16P
390
0
100
AcDbText
 10
36.1436782186
 20
241.3172216494
 30
0.0
 40
1.5
  1
N1
 41
1.1350267802
  7
Arial
100
AcDbText
  0
MTEXT
  5
148
100
AcDbEntity
  8
5701_17P
390
0
100
AcDbMText
 10
36.6459487643
 20
156.2467335543
 30
0.0
 40
2.0
 41
0.0
 71
         7
 72
         1
  1
\W0.891720;>5701.16P\PM20+x2 T2 O2
  7
Arial
 73
         1
 44
0.66
  0
INSERT
  5
149
100
AcDbEntity
  8
BEMASSUNG
390
0
100
AcDbBlockReference
  2
D354473984
 10
0.0
 20
0.0
 30
0.0
  0
INSERT
  5
14A
100
AcDbEntity
  8
BEMASSUNG
390
0
100
AcDbBlockReference
  2
D571691008
 10
0.0
 20
0.0
 30
0.0
  0
LINE
  5
14B
100
AcDbEntity
  8
5701___ ZENTRALSCHLOSS
390
0
  6
DOT
100
AcDbLine
 10
37.3862810269
 20
165.2630294118
 30
0.0
 11
97.3860796359
 21
165.2630294118
 31
0.0
  0
LINE
  5
14C
100
AcDbEntity
  8
5701___ ZENTRALSCHLOSS
390
0
  6
DOT
100
AcDbLine
 10
37.3862810269
 20
145.2630294118
 30
0.0
 11
97.3860796359
 21
145.2630294118
 31
0.0
  0
TEXT
  5
14D
100
AcDbEntity
  8
5701_17P
390
0
  6
HIDDEN
100
AcDbText
 10
42.4947369277
 20
149.8737442303
 30
0.0
 40
2.0
  1
N1
 41
1.1350267802
  7
Arial
100
AcDbText
  0
MTEXT
  5
14E
100
AcDbEntity
  8
5701_17P
390
0
100
AcDbMText
 10
24.3792257323
 20
164.438624121
 30
0.0
 40
2.0
 41
0.0
 71
         7
 72
         1
  1
\W0.891762;M60x2 T2 O2 F150\PB-0.3 D1.6    I1.2 S4
  7
Arial
 73
         1
 44
0.66
  0
CIRCLE
  5
14F
100
AcDbEntity
  8
5701_17P
390
0
  6
PHANTOM
100
AcDbCircle
 10
37.3862810269
 20
165.2630294118
 30
0.0
 40
0.5
  0
CIRCLE
  5
150
100
AcDbEntity
  8
5701_17P
390
0
  6
PHANTOM
100
AcDbCircle
 10
37.3862810269
 20
145.2630965421
 30
0.0
 40
1.0
  0
LINE
  5
151
100
AcDbEntity
  8
MITTELLINIEN
390
0
 62
       230
100
AcDbLine
 10
97.3862810269
 20
129.1783180432
 30
0.0
 11
97.3862810269
 21
177.3211470588
 31
0.0
  0
MTEXT
  5
152
100
AcDbEntity
  8
5701___ ZENTRALSCHLOSS
390
0
100
AcDbMText
 10
23.6623856588
 20
153.9727590474
 30
0.0
 40
2.0
 41
0.0
 71
         7
 72
         1
  1
\W0.891720;>5701.17P\PM60x2 T2 O2
  7
Arial
 73
         1
 44
0.66
  0
ARC
  5
153
100
AcDbEntity
  8
5701___ ZENTRALSCHLOSS
390
0
  6
DASHDOT
100
AcDbCircle
 10
45.3137283721
 20
155.2630629769
 30
0.0
 40
12.7610246497
100
AcDbArc
 50
128.4055300531
 51
231.5944699469
  0
LINE
  5
154
100
AcDbEntity
  8
5701_17P
390
0
  6
HIDDEN
100
AcDbLine
 10
57.3862810269
 20
145.2630965421
 30
0.0
 11
77.3862810269
 21
165.2630294118
 31
0.0
  0
LINE
  5
155
100
AcDbEntity
  8
5701_17P
390
0
  6
DASHED
100
AcDbLine
 10
57.3862810269
 20
165.2630294118
 30
0.0
 11
37.3862810269
 21
145.2630965421
 31
0.0
  0
ARC
  5
156
100
AcDbEntity
  8
5701_17P
390
0
  6
HIDDEN
100
AcDbCircle
 10
57.3862810269
 20
102.4947307013
 30
0.0
 40
47.2136962829
100
AcDbArc
 50
64.9375471236
 51
115.0624528764
  0
LINE
  5
157
100
AcDbEntity
  8
MITTELLINIEN
390
0
 62
       230
100
AcDbLine
 10
57.3862810269
 20
193.3424547024
 30
0.0
 11
57.3862810269
 21
221.026672263
 31
0.0
  0
MTEXT
  5
158
100
AcDbEntity
  8
5701_17P
390
0
100
AcDbMText
 10
56.6459487643
 20
156.2467335543
 30
0.0
 40
2.0
 41
0.0
 71
         7
 72
         1
  1
\W0.891720;>5701.16P\PM20+x2 T2 O2
  7
Arial
 73
         1
 44
0.66
  0
MTEXT
  5
159
100
AcDbEntity
  8
5701_17P
390
0
100
AcDbMText
 10
76.6459487643
 20
156.2467335543
 30
0.0
 40
2.0
 41
0.0
 71
         7
 72
         1
  1
\W0.891720;>5701.16P\PM20+x2 T2 O2
  7
Arial
 73
         1
 44
0.66
  0
MTEXT
  5
15A
100
AcDbEntity
  8
BESCHRIFTUNG
390
0
100
AcDbMText
 10
17.9438256048
 20
171.7521267411
 30
0.0
 40
2.5
 41
0.0
 71
         7
 72
         1
  1
\W1.135104;\L5701.17P\P=3x5701.16P
  7
Arial
 73
         1
 44
0.66
  0
ARC
  5
15B
100
AcDbEntity
  8
5701_17P
390
0
  6
DASHDOT
100
AcDbCircle
 10
27.5709660398
 20
155.2630629769
 30
0.0
 40
14.0121282107
100
AcDbArc
 50
314.466096787
 51
405.533903213
  0
ARC
  5
15C
100
AcDbEntity
  8
5701_17P
390
0
  6
DASHDOT
100
AcDbCircle
 10
47.5709660398
 20
155.2630629769
 30
0.0
 40
14.0121282107
100
AcDbArc
 50
314.466096787
 51
405.533903213
  0
ARC
  5
15D
100
AcDbEntity
  8
5701_17P
390
0
  6
DASHDOT
100
AcDbCircle
 10
67.5709660398
 20
155.2630629769
 30
0.0
 40
14.0121282107
100
AcDbArc
 50
314.466096787
 51
405.533903213
  0
LINE
  5
15E
100
AcDbEntity
  8
STANDARD
390
0
100
AcDbLine
 10
10.0
 20
5.0
 30
0.0
 11
10.0
 21
292.0
 31
0.0
  0
LINE
  5
15F
100
AcDbEntity
  8
STANDARD
390
0
100
AcDbLine
 10
15.0
 20
287.0
 30
0.0
 11
205.0
 21
287.0
 31
0.0
  0
LINE
  5
160
100
AcDbEntity
  8
STANDARD
390
0
100
AcDbLine
 10
10.0
 20
292.0
 30
0.0
 11
15.0
 21
292.0
 31
0.0
  0
LINE
  5
161
100
AcDbEntity
  8
STANDARD
390
0
100
AcDbLine
 10
10.0
 20
5.0
 30
0.0
 11
15.0
 21
5.0
 31
0.0
  0
LINE
  5
162
100
AcDbEntity
  8
STANDARD
390
0
100
AcDbLine
 10
10.0
 20
244.1666666667
 30
0.0
 11
15.0
 21
244.1666666667
 31
0.0
  0
LINE
  5
163
100
AcDbEntity
  8
STANDARD
390
0
100
AcDbLine
 10
10.0
 20
196.3333333333
 30
0.0
 11
15.0
 21
196.3333333333
 31
0.0
  0
LINE
  5
164
100
AcDbEntity
  8
STANDARD
390
0
100
AcDbLine
 10
10.0
 20
148.5
 30
0.0
 11
15.0
 21
148.5
 31
0.0
  0
LINE
  5
165
100
AcDbEntity
  8
STANDARD
390
0
100
AcDbLine
 10
10.0
 20
100.6666666667
 30
0.0
 11
15.0
 21
100.6666666667
 31
0.0
  0
LINE
  5
166
100
AcDbEntity
  8
STANDARD
390
0
100
AcDbLine
 10
10.0
 20
52.8333333333
 30
0.0
 11
15.0
 21
52.8333333333
 31
0.0
  0
LINE
  5
167
100
AcDbEntity
  8
STANDARD
390
0
100
AcDbLine
 10
157.5
 20
292.0
 30
0.0
 11
157.5
 21
287.0
 31
0.0
  0
LINE
  5
168
100
AcDbEntity
  8
STANDARD
390
0
100
AcDbLine
 10
110.0
 20
292.0
 30
0.0
 11
110.0
 21
287.0
 31
0.0
  0
LINE
  5
169
100
AcDbEntity
  8
STANDARD
390
0
100
AcDbLine
 10
62.5
 20
292.0
 30
0.0
 11
62.5
 21
287.0
 31
0.0
  0
TEXT
  5
16A
100
AcDbEntity
  8
STANDARD
390
0
100
AcDbText
 10
10.9491078691
 20
267.8641561278
 30
0.0
 40
2.23125
  1
A
 41
1.547986837
  7
Arial
 72
         1
 11
12.6760806841
 21
270.0954061278
 31
0.0
100
AcDbText
 73
         3
  0
TEXT
  5
16B
100
AcDbEntity
  8
STANDARD
390
0
100
AcDbText
 10
10.9491074243
 20
220.0308227945
 30
0.0
 40
2.23125
  1
B
 41
1.5479872357
  7
Arial
 72
         1
 11
12.6760806841
 21
222.2620727945
 31
0.0
100
AcDbText
 73
         3
  0
TEXT
  5
16C
100
AcDbEntity
  8
STANDARD
390
0
100
AcDbText
 10
10.9489779593
 20
172.1974894612
 30
0.0
 40
2.23125
  1
C
 41
1.5481032827
  7
Arial
 72
         1
 11
12.6760806841
 21
174.4287394612
 31
0.0
100
AcDbText
 73
         3
  0
TEXT
  5
16D
100
AcDbEntity
  8
STANDARD
390
0
100
AcDbText
 10
10.9489771034
 20
124.3641561278
 30
0.0
 40
2.23125
  1
D
 41
1.54810405
  7
Arial
 72
         1
 11
12.6760806841
 21
126.5954061278
 31
0.0
100
AcDbText
 73
         3
  0
TEXT
  5
16E
100
AcDbEntity
  8
STANDARD
390
0
100
AcDbText
 10
10.9491076096
 20
76.5308227945
 30
0.0
 40
2.23125
  1
E
 41
1.5479870696
  7
Arial
 72
         1
 11
12.6760806841
 21
78.7620727945
 31
0.0
100
AcDbText
 73
         3
  0
TEXT
  5
16F
100
AcDbEntity
  8
STANDARD
390
0
100
AcDbText
 10
10.9493506612
 20
28.6974894612
 30
0.0
 40
2.23125
  1
F
 41
1.5477692083
  7
Arial
 72
         1
 11
12.6760806841
 21
30.9287394612
 31
0.0
100
AcDbText
 73
         3
  0
TEXT
  5
170
100
AcDbEntity
  8
STANDARD
390
0
100
AcDbText
 10
36.7048241449
 20
288.48599354
 30
0.0
 40
2.23125
  1
1
 41
1.5479225906
  7
Arial
 72
         1
 11
38.0
 21
290.71724354
 31
0.0
100
AcDbText
 73
         3
  0
TEXT
  5
171
100
AcDbEntity
  8
STANDARD
390
0
100
AcDbText
 10
83.7730999712
 20
288.48599354
 30
0.0
 40
2.23125
  1
2
 41
1.5479215945
  7
Arial
 72
         1
 11
85.5
 21
290.71724354
 31
0.0
100
AcDbText
 73
         3
  0
TEXT
  5
172
100
AcDbEntity
  8
STANDARD
390
0
100
AcDbText
 10
131.2730986376
 20
288.48599354
 30
0.0
 40
2.23125
  1
3
 41
1.5479227899
  7
Arial
 72
         1
 11
133.0
 21
290.71724354
 31
0.0
100
AcDbText
 73
         3
  0
TEXT
  5
173
100
AcDbEntity
  8
STANDARD
390
0
100
AcDbText
 10
178.7730988598
 20
288.48599354
 30
0.0
 40
2.23125
  1
4
 41
1.5479225906
  7
Arial
 72
         1
 11
180.5
 21
290.71724354
 31
0.0
100
AcDbText
 73
         3
  0
LINE
  5
174
100
AcDbEntity
  8
STANDARD
390
0
100
AcDbLine
 10
205.0
 20
292.0
 30
0.0
 11
205.0
 21
287.0
 31
0.0
  0
LINE
  5
175
100
AcDbEntity
  8
STANDARD
390
0
100
AcDbLine
 10
205.0
 20
5.0
 30
0.0
 11
15.0
 21
5.0
 31
0.0
  0
LINE
  5
176
100
AcDbEntity
  8
STANDARD
390
0
100
AcDbLine
 10
15.0
 20
5.0
 30
0.0
 11
15.0
 21
287.0
 31
0.0
  0
LINE
  5
177
100
AcDbEntity
  8
STANDARD
390
0
100
AcDbLine
 10
15.0
 20
292.0
 30
0.0
 11
205.0
 21
292.0
 31
0.0
  0
LINE
  5
178
100
AcDbEntity
  8
STANDARD
390
0
100
AcDbLine
 10
1.0
 20
1.0
 30
0.0
 11
1.0
 21
296.0
 31
0.0
  0
LINE
  5
179
100
AcDbEntity
  8
STANDARD
390
0
100
AcDbLine
 10
209.0
 20
1.0
 30
0.0
 11
1.0
 21
1.0
 31
0.0
  0
LINE
  5
17A
100
AcDbEntity
  8
STANDARD
390
0
100
AcDbLine
 10
209.0
 20
296.0
 30
0.0
 11
209.0
 21
1.0
 31
0.0
  0
LINE
  5
17B
100
AcDbEntity
  8
STANDARD
390
0
100
AcDbLine
 10
1.0
 20
296.0
 30
0.0
 11
209.0
 21
296.0
 31
0.0
  0
LINE
  5
17C
100
AcDbEntity
  8
STANDARD
390
0
100
AcDbLine
 10
15.0
 20
287.0
 30
0.0
 11
15.0
 21
292.0
 31
0.0
  0
LINE
  5
17D
100
AcDbEntity
  8
STANDARD
390
0
100
AcDbLine
 10
205.0
 20
287.0
 30
0.0
 11
205.0
 21
5.0
 31
0.0
  0
MTEXT
  5
17E
100
AcDbEntity
  8
STANDARD
390
0
100
AcDbMText
 10
203.6063292805
 20
81.4222772661
 30
0.0
 40
1.59375
 41
0.0
 71
         1
 72
         1
  1

  7
Arial
 11
0.0
 21
-1.0
 31
0.0
 73
         1
 44
1.0352941176
  0
MTEXT
  5
17F
100
AcDbEntity
  8
STANDARD
390
0
100
AcDbMText
 10
203.6103242188
 20
27.5871143065
 30
0.0
 40
1.59375
 41
0.0
 71
         1
 72
         1
  1

  7
Arial
 11
0.0
 21
-1.0
 31
0.0
 73
         1
 44
1.0352941176
  0
MTEXT
  5
180
100
AcDbEntity
  8
STANDARD
390
0
100
AcDbMText
 10
203.6063292805
 20
125.7560948498
 30
0.0
 40
1.59375
 41
0.0
 71
         1
 72
         1
  1

  7
Arial
 11
0.0
 21
-1.0
 31
0.0
 73
         1
 44
1.0352941176
  0
LINE
  5
181
100
AcDbEntity
  8
STANDARD
370
         0
390
0
100
AcDbLine
 10
81.105982906
 20
34.4
 30
0.0
 11
205.0
 21
34.4
 31
0.0
  0
LINE
  5
182
100
AcDbEntity
  8
STANDARD
370
         0
390
0
100
AcDbLine
 10
81.105982906
 20
27.4
 30
0.0
 11
205.0
 21
27.4
 31
0.0
  0
LINE
  5
183
100
AcDbEntity
  8
STANDARD
370
         0
390
0
100
AcDbLine
 10
81.105982906
 20
12.0
 30
0.0
 11
205.0
 21
12.0
 31
0.0
  0
LINE
  5
184
100
AcDbEntity
  8
STANDARD
390
0
100
AcDbLine
 10
205.0
 20
182.1150997151
 30
0.0
 11
205.0
 21
5.1236467236
 31
0.0
  0
LINE
  5
185
100
AcDbEntity
  8
STANDARD
370
         0
390
0
100
AcDbLine
 10
81.105982906
 20
34.4
 30
0.0
 11
81.105982906
 21
5.0
 31
0.0
  0
LINE
  5
186
100
AcDbEntity
  8
STANDARD
370
         0
390
0
100
AcDbLine
 10
127.305982906
 20
34.4
 30
0.0
 11
127.305982906
 21
5.0
 31
0.0
  0
LINE
  5
187
100
AcDbEntity
  8
STANDARD
370
         0
390
0
100
AcDbLine
 10
165.105982906
 20
34.4
 30
0.0
 11
165.105982906
 21
27.4
 31
0.0
  0
TEXT
  5
188
100
AcDbEntity
  8
BESCHRIFTUNG0
390
0
100
AcDbText
 10
82.2010860399
 20
29.1136
 30
0.0
 40
3.325
  1
Stellwerk HMM
 41
1.3653781858
  7
Arial
 11
82.2010860399
 21
32.4386
 31
0.0
100
AcDbText
 73
         3
  0
TEXT
  5
189
100
AcDbEntity
  8
BESCHRIFTUNG0
390
0
100
AcDbText
 10
128.6210415954
 20
21.6351111111
 30
0.0
 40
3.325
  1
Zentralschloss Gehäuse 1
 41
1.1349455433
 51
15.0
  7
Arial
 11
128.6210415954
 21
24.9601111111
 31
0.0
100
AcDbText
 73
         3
  0
TEXT
  5
18A
100
AcDbEntity
  8
BESCHRIFTUNG0
390
0
100
AcDbText
 10
82.2010860399
 20
6.8980888889
 30
0.0
 40
3.325
  1
Dateiname
 41
1.1350744463
 51
15.0
  7
Arial
 11
82.2010860399
 21
10.2230888889
 31
0.0
100
AcDbText
 73
         3
  0
TEXT
  5
18B
100
AcDbEntity
  8
BESCHRIFTUNG0
390
0
100
AcDbText
 10
82.4210415954
 20
21.6351111111
 30
0.0
 40
3.325
  1
Bl. 5701 P.1v 
 41
1.1349302651
 51
15.0
  7
Arial
 11
82.4210415954
 21
24.9601111111
 31
0.0
100
AcDbText
 73
         3
  0
TEXT
  5
18C
100
AcDbEntity
  8
BESCHRIFTUNG0
390
0
100
AcDbText
 10
166.2010860399
 20
29.1136
 30
0.0
 40
3.325
  1
1:1
 41
1.1348653803
 51
15.0
  7
Arial
 11
166.2010860399
 21
32.4386
 31
0.0
100
AcDbText
 73
         3
  0
TEXT
  5
18D
100
AcDbEntity
  8
BESCHRIFTUNG0
390
0
100
AcDbText
 10
128.4010860399
 20
29.2980888889
 30
0.0
 40
3.325
  1
2025-04-20
 41
1.1351373056
 51
15.0
  7
Arial
 11
128.4010860399
 21
32.6230888889
 31
0.0
100
AcDbText
 73
         3
  0
TEXT
  5
18E
100
AcDbEntity
  8
BESCHRIFTUNG0
390
0
100
AcDbText
 10
128.4010860399
 20
6.8980888889
 30
0.0
 40
3.325
  1
5701 P.1v 
 41
1.1350818235
 51
15.0
  7
Arial
 11
128.4010860399
 21
10.2230888889
 31
0.0
100
AcDbText
 73
         3
  0
ENDSEC
  0
SECTION
  2
OBJECTS
  0
DICTIONARY
  5
19
100
AcDbDictionary
280
         0
281
         1
  3
ACAD_GROUP
350
1A
  3
ACAD_MLINESTYLE
350
1B
  3
ACAD_LAYOUT
350
1E
  3
ACAD_PLOTSETTINGS
350
22
  3
ACAD_PLOTSTYLENAME
350
1F
  3
ACAD_WIPEOUT_VARS
350
23
  0
DICTIONARY
  5
1A
102
{ACAD_REACTORS
330
19
102
}
100
AcDbDictionary
280
         0
281
         1
  0
DICTIONARY
  5
1B
102
{ACAD_REACTORS
330
19
102
}
100
AcDbDictionary
280
         0
281
         1
  3
Standard
350
1C
  0
MLINESTYLE
  5
1C
102
{ACAD_REACTORS
330
1B
102
}
100
AcDbMlineStyle
  2
Standard
 70
         0
  3

 62
         0
 51
90.0
 52
90.0
 71
         2
 49
0.5
 62
       256
  6
ByLayer
 49
-0.5
 62
       256
  6
ByLayer
  0
ACDBDICTIONARYWDFLT
  5
1F
102
{ACAD_REACTORS
330
19
102
}
100
AcDbDictionary
281
         1
  3
Normal
350
1D
100
AcDbDictionaryWithDefault
340
1D
  0
ACDBPLACEHOLDER
  5
1D
102
{ACAD_REACTORS
330
1F
102
}
  0
LAYOUT
  5
20
102
{ACAD_REACTORS
330
1E
102
}
100
AcDbPlotSettings
  1

  2

  4

  6

 40
0.0
 41
0.0
 42
0.0
 43
0.0
 44
0.0
 45
0.0
 46
0.0
 47
0.0
 48
0.0
 49
0.0
140
0.0
141
0.0
142
1.0
143
1.0
 70
      1024
 72
         0
 73
         0
 74
         0
  7

 75
         0
147
1.0
148
0.0
149
0.0
100
AcDbLayout
  1
Model
 70
         0
 71
         0
 10
0.0
 20
0.0
 11
0.0
 21
0.0
 12
0.0
 22
0.0
 32
0.0
 14
0.0
 24
0.0
 34
0.0
 15
0.0
 25
0.0
 35
0.0
146
0.0
 13
0.0
 23
0.0
 33
0.0
 16
0.0
 26
0.0
 36
0.0
 17
0.0
 27
0.0
 37
0.0
 76
         0
330
A
331
0
345
0
346
0
  0
LAYOUT
  5
21
102
{ACAD_REACTORS
330
1E
102
}
100
AcDbPlotSettings
  1

  2

  4

  6

 40
0.0
 41
0.0
 42
0.0
 43
0.0
 44
0.0
 45
0.0
 46
0.0
 47
0.0
 48
0.0
 49
0.0
140
0.0
141
0.0
142
1.0
143
1.0
 70
         0
 72
         0
 73
         0
 74
         0
  7

 75
         0
147
1.0
148
0.0
149
0.0
100
AcDbLayout
  1
Layout1
 70
         0
 71
         0
 10
0.0
 20
0.0
 11
0.0
 21
0.0
 12
0.0
 22
0.0
 32
0.0
 14
0.0
 24
0.0
 34
0.0
 15
0.0
 25
0.0
 35
0.0
146
0.0
 13
0.0
 23
0.0
 33
0.0
 16
0.0
 26
0.0
 36
0.0
 17
0.0
 27
0.0
 37
0.0
 76
         0
330
B
331
0
345
0
346
0
  0
DICTIONARY
  5
1E
102
{ACAD_REACTORS
330
19
102
}
100
AcDbDictionary
280
         0
281
         1
  3
Layout1
350
21
  3
Model
350
20
  0
DICTIONARY
  5
22
102
{ACAD_REACTORS
330
19
102
}
100
AcDbDictionary
280
         0
281
         1
  0
WIPEOUTVARIABLES
  5
23
100
AcDbWipeoutVariables
 70
         1
  0
ENDSEC
  0
EOF
