  0
SECTION
  2
HEADER
  9
$ACADVER
  1
AC1015
  9
$ACADMAINTVER
 70
         6
  9
$DWGCODEPAGE
  3
ANSI_1252
  9
$INSBASE
 10
0.0
 20
0.0
 30
0.0
  9
$EXTMIN
 10
-23.5087966919
 20
0.0
 30
0.0
  9
$EXTMAX
 10
293.0063781738
 20
297.0
 30
0.0
  9
$LIMMIN
 10
-23.5087966919
 20
0.0
  9
$LIMMAX
 10
293.0063781738
 20
297.0
  9
$ORTHOMODE
 70
         0
  9
$REGENMODE
 70
         1
  9
$FILLMODE
 70
         1
  9
$QTEXTMODE
 70
         0
  9
$MIRRTEXT
 70
         1
  9
$LTSCALE
 40
7.9128793716
  9
$ATTMODE
 70
         1
  9
$TEXTSIZE
 40
0.2
  9
$TRACEWID
 40
0.05
  9
$TEXTSTYLE
  7
Standard
  9
$CLAYER
  8
0
  9
$CELTYPE
  6
CONTINUOUS
  9
$CECOLOR
 62
       256
  9
$CELTSCALE
 40
1.0
  9
$DISPSILH
 70
         0
  9
$DIMSCALE
 40
1.0
  9
$DIMASZ
 40
0.18
  9
$DIMEXO
 40
0.0625
  9
$DIMDLI
 40
0.38
  9
$DIMRND
 40
0.0
  9
$DIMDLE
 40
0.0
  9
$DIMEXE
 40
0.18
  9
$DIMTP
 40
0.0
  9
$DIMTM
 40
0.0
  9
$DIMTXT
 40
3.0
  9
$DIMCEN
 40
0.09
  9
$DIMTSZ
 40
0.0
  9
$DIMTOL
 70
         0
  9
$DIMLIM
 70
         0
  9
$DIMTIH
 70
         1
  9
$DIMTOH
 70
         1
  9
$DIMSE1
 70
         0
  9
$DIMSE2
 70
         0
  9
$DIMTAD
 70
         1
  9
$DIMZIN
 70
         0
  9
$DIMBLK
  1

  9
$DIMASO
 70
         1
  9
$DIMSHO
 70
         1
  9
$DIMPOST
  1
<>
  9
$DIMAPOST
  1

  9
$DIMALT
 70
         0
  9
$DIMALTD
 70
         2
  9
$DIMALTF
 40
25.4
  9
$DIMLFAC
 40
1.0
  9
$DIMTOFL
 70
         0
  9
$DIMTVP
 40
0.0
  9
$DIMTIX
 70
         0
  9
$DIMSOXD
 70
         0
  9
$DIMSAH
 70
         0
  9
$DIMBLK1
  1

  9
$DIMBLK2
  1

  9
$DIMSTYLE
  2
Standard
  9
$DIMCLRD
 70
         0
  9
$DIMCLRE
 70
         0
  9
$DIMCLRT
 70
         0
  9
$DIMTFAC
 40
1.0
  9
$DIMGAP
 40
0.09
  9
$DIMJUST
 70
         0
  9
$DIMSD1
 70
         0
  9
$DIMSD2
 70
         0
  9
$DIMTOLJ
 70
         1
  9
$DIMTZIN
 70
         0
  9
$DIMALTZ
 70
         0
  9
$DIMALTTZ
 70
         0
  9
$DIMUPT
 70
         0
  9
$DIMDEC
 70
         4
  9
$DIMTDEC
 70
         4
  9
$DIMALTU
 70
         2
  9
$DIMALTTD
 70
         2
  9
$DIMTXSTY
  7
Standard
  9
$DIMAUNIT
 70
         0
  9
$DIMADEC
 70
         0
  9
$DIMALTRND
 40
0.0
  9
$DIMAZIN
 70
         0
  9
$DIMDSEP
 70
         0
  9
$DIMATFIT
 70
         3
  9
$DIMFRAC
 70
         0
  9
$DIMLDRBLK
  1

  9
$DIMLUNIT
 70
         2
  9
$DIMLWD
 70
         0
  9
$DIMLWE
 70
         0
  9
$DIMTMOVE
 70
         0
  9
$LUNITS
 70
         2
  9
$LUPREC
 70
         4
  9
$SKETCHINC
 40
0.1
  9
$FILLETRAD
 40
0.0
  9
$AUNITS
 70
         0
  9
$AUPREC
 70
         0
  9
$MENU
  1
acad
  9
$ELEVATION
 40
0.0
  9
$PELEVATION
 40
0.0
  9
$THICKNESS
 40
0.0
  9
$LIMCHECK
 70
         0
  9
$CHAMFERA
 40
0.0
  9
$CHAMFERB
 40
0.0
  9
$CHAMFERC
 40
0.0
  9
$CHAMFERD
 40
0.0
  9
$SKPOLY
 70
         0
  9
$TDCREATE
 40
0.000000000
  9
$TDUCREATE
 40
0.000000000
  9
$TDUPDATE
 40
0.000000000
  9
$TDUUPDATE
 40
0.000000000
  9
$TDINDWG
 40
0.0000000000
  9
$TDUSRTIMER
 40
0.0000000000
  9
$USRTIMER
 70
         1
  9
$ANGBASE
 50
0.0
  9
$ANGDIR
 70
         0
  9
$PDMODE
 70
         0
  9
$PDSIZE
 40
0.0
  9
$PLINEWID
 40
0.0
  9
$SPLFRAME
 70
         0
  9
$SPLINETYPE
 70
         6
  9
$SPLINESEGS
 70
         8
  9
$HANDSEED
  5
1EB
  9
$SURFTAB1
 70
         6
  9
$SURFTAB2
 70
         6
  9
$SURFTYPE
 70
         6
  9
$SURFU
 70
         6
  9
$SURFV
 70
         6
  9
$UCSBASE
  2

  9
$UCSNAME
  2

  9
$UCSORG
 10
0.0
 20
0.0
 30
0.0
  9
$UCSXDIR
 10
1.0
 20
0.0
 30
0.0
  9
$UCSYDIR
 10
0.0
 20
1.0
 30
0.0
  9
$UCSORTHOREF
  2

  9
$UCSORTHOVIEW
 70
         0
  9
$UCSORGTOP
 10
0.0
 20
0.0
 30
0.0
  9
$UCSORGBOTTOM
 10
0.0
 20
0.0
 30
0.0
  9
$UCSORGLEFT
 10
0.0
 20
0.0
 30
0.0
  9
$UCSORGRIGHT
 10
0.0
 20
0.0
 30
0.0
  9
$UCSORGFRONT
 10
0.0
 20
0.0
 30
0.0
  9
$UCSORGBACK
 10
0.0
 20
0.0
 30
0.0
  9
$PUCSBASE
  2

  9
$PUCSNAME
  2

  9
$PUCSORG
 10
0.0
 20
0.0
 30
0.0
  9
$PUCSXDIR
 10
1.0
 20
0.0
 30
0.0
  9
$PUCSYDIR
 10
0.0
 20
1.0
 30
0.0
  9
$PUCSORTHOREF
  2

  9
$PUCSORTHOVIEW
 70
         0
  9
$PUCSORGTOP
 10
0.0
 20
0.0
 30
0.0
  9
$PUCSORGBOTTOM
 10
0.0
 20
0.0
 30
0.0
  9
$PUCSORGLEFT
 10
0.0
 20
0.0
 30
0.0
  9
$PUCSORGRIGHT
 10
0.0
 20
0.0
 30
0.0
  9
$PUCSORGFRONT
 10
0.0
 20
0.0
 30
0.0
  9
$PUCSORGBACK
 10
0.0
 20
0.0
 30
0.0
  9
$USERI1
 70
         0
  9
$USERI2
 70
         0
  9
$USERI3
 70
         0
  9
$USERI4
 70
         0
  9
$USERI5
 70
         0
  9
$USERR1
 40
0.0
  9
$USERR2
 40
0.0
  9
$USERR3
 40
0.0
  9
$USERR4
 40
0.0
  9
$USERR5
 40
0.0
  9
$WORLDVIEW
 70
         1
  9
$SHADEDGE
 70
         3
  9
$SHADEDIF
 70
        70
  9
$TILEMODE
 70
         1
  9
$MAXACTVP
 70
        16
  9
$PINSBASE
 10
0.0
 20
0.0
 30
0.0
  9
$PLIMCHECK
 70
         0
  9
$PEXTMIN
 10
1.0000000000E+20
 20
1.0000000000E+20
 30
1.0000000000E+20
  9
$PEXTMAX
 10
-1.0000000000E+20
 20
-1.0000000000E+20
 30
-1.0000000000E+20
  9
$PLIMMIN
 10
0.0
 20
0.0
  9
$PLIMMAX
 10
12.0
 20
9.0
  9
$UNITMODE
 70
         0
  9
$VISRETAIN
 70
         0
  9
$PLINEGEN
 70
         1
  9
$PSLTSCALE
 70
         0
  9
$TREEDEPTH
 70
      3020
  9
$CMLSTYLE
  2
Standard
  9
$CMLJUST
 70
         0
  9
$CMLSCALE
 40
1.0
  9
$PROXYGRAPHICS
 70
         0
  9
$MEASUREMENT
 70
         1
  9
$CELWEIGHT
370
         0
  9
$ENDCAPS
280
         0
  9
$JOINSTYLE
280
         0
  9
$LWDISPLAY
290
         0
  9
$INSUNITS
 70
         0
  9
$HYPERLINKBASE
  1

  9
$STYLESHEET
  1

  9
$XEDIT
290
         1
  9
$CEPSNTYPE
380
         0
  9
$PSTYLEMODE
290
         1
  9
$FINGERPRINTGUID
  2

  9
$VERSIONGUID
  2

  9
$EXTNAMES
290
         1
  9
$PSVPSCALE
 40
0.0
  0
ENDSEC
  0
SECTION
  2
CLASSES
  0
CLASS
  1
LWPOLYLINE
  2
AcDbPolyline
  3
AutoCAD 2000
 90
        0
280
         0
281
         1
  0
CLASS
  1
IMAGE
  2
AcDbRasterImage
  3
ISM
 90
      127
280
         0
281
         1
  0
CLASS
  1
OLE2FRAME
  2
AcDbOle2Frame
  3
AutoCAD 2000
 90
        0
280
         0
281
         1
  0
CLASS
  1
HATCH
  2
AcDbHatch
  3
AutoCAD 2000
 90
        0
280
         0
281
         1
  0
CLASS
  1
DICTIONARYVAR
  2
AcDbDictionaryVar
  3
AutoCAD 2000
 90
        0
280
         0
281
         0
  0
CLASS
  1
RASTERVARIABLES
  2
AcDbRasterVariables
  3
ISM
 90
        0
280
         0
281
         0
  0
CLASS
  1
IMAGEDEF
  2
AcDbRasterImageDef
  3
ISM
 90
        0
280
         0
281
         0
  0
CLASS
  1
IMAGEDEF_REACTOR
  2
AcDbRasterImageDefReactor
  3
ISM
 90
        1
280
         0
281
         0
  0
CLASS
  1
IDBUFFER
  2
AcDbIdBuffer
  3
AutoCAD 2000
 90
        0
280
         0
281
         0
  0
CLASS
  1
SPATIAL_FILTER
  2
AcDbSpatialFilter
  3
AutoCAD 2000
 90
        0
280
         0
281
         0
  0
CLASS
  1
XRECORD
  2
AcDbXrecord
  3
AutoCAD 2000
 90
        0
280
         0
281
         0
  0
CLASS
  1
SORTENTSTABLE
  2
AcDbSortentsTable
  3
AutoCAD 2000
 90
        0
280
         0
281
         0
  0
CLASS
  1
LAYER_INDEX
  2
AcDbLayerIndex
  3
AutoCAD 2000
 90
        0
280
         0
281
         0
  0
CLASS
  1
SPATIAL_INDEX
  2
AcDbSpatialIndex
  3
AutoCAD 2000
 90
        0
280
         0
281
         0
  0
CLASS
  1
OBJECT_PTR
  2
CAseDLPNTableRecord
  3
"ASE-LPNTableRecord"
 90
        1
280
         0
281
         0
  0
CLASS
  1
LAYOUT
  2
AcDbLayout
  3
AutoCAD 2000
 90
        0
280
         0
281
         0
  0
CLASS
  1
PLOTSETTINGS
  2
AcDbPlotSettings
  3
AutoCAD 2000
 90
        0
280
         0
281
         0
  0
CLASS
  1
ACDBDICTIONARYWDFLT
  2
AcDbDictionaryWithDefault
  3
AutoCAD 2000
 90
        0
280
         0
281
         0
  0
CLASS
  1
ACDBPLACEHOLDER
  2
AcDbPlaceHolder
  3
AutoCAD 2000
 90
        0
280
         0
281
         0
  0
CLASS
  1
VBA_PROJECT
  2
AcDbVbaProject
  3
acadvba
 90
        0
280
         0
281
         0
  0
CLASS
  1
WIPEOUT
  2
AcDbWipeout
  3
WipeOut|AutoCAD Express Tool|expresstools@autodesk.com
 90
      127
280
         0
281
         1
  0
CLASS
  1
WIPEOUTVARIABLES
  2
AcDbWipeoutVariables
  3
WipeOut|AutoCAD Express Tool|expresstools@autodesk.com
 90
        0
280
         0
281
         0
  0
CLASS
  1
RTEXT
  2
RText
  3
RText|AutoCAD Express Tool|expresstools@autodesk.com
 90
        0
280
         0
281
         1
  0
CLASS
  1
ARCALIGNEDTEXT
  2
AcDbArcAlignedText
  3
ATEXT|AutoCAD Express Tool|expresstools@autodesk.com
 90
        0
280
         0
281
         1
  0
ENDSEC
  0
SECTION
  2
TABLES
  0
TABLE
  2
VPORT
  5
7
100
AcDbSymbolTable
 70
         1
  0
VPORT
  5
15
100
AcDbSymbolTableRecord
100
AcDbViewportTableRecord
  2
*ACTIVE
 70
         0
 10
0.0
 20
0.0
 11
1.0
 21
1.0
 12
105.0
 22
148.5
 13
0.0
 23
0.0
 14
1.0
 24
1.0
 15
0.0
 25
0.0
 16
0.0
 26
0.0
 36
1.0
 17
0.0
 27
0.0
 37
0.0
 40
231.2943892345
 41
1.0
 42
50.0
 43
0.0
 44
0.0
 50
0.0
 51
0.0
 71
         0
 72
       100
 73
         1
 74
         1
 75
         0
 76
         0
 77
         0
 78
         0
281
         0
 65
         0
110
0.0
120
0.0
130
0.0
111
1.0
121
0.0
131
0.0
112
0.0
122
1.0
132
0.0
345
0
346
0
 79
         0
146
0.0
  0
ENDTAB
  0
TABLE
  2
LTYPE
  5
4
100
AcDbSymbolTable
 70
        12
  0
LTYPE
  5
11
100
AcDbSymbolTableRecord
100
AcDbLinetypeTableRecord
  2
ByBlock
 70
        64
  3

 72
        65
 73
         0
 40
0.0
  0
LTYPE
  5
12
100
AcDbSymbolTableRecord
100
AcDbLinetypeTableRecord
  2
ByLayer
 70
        64
  3

 72
        65
 73
         0
 40
0.0
  0
LTYPE
  5
13
100
AcDbSymbolTableRecord
100
AcDbLinetypeTableRecord
  2
CONTINUOUS
 70
        64
  3
Solid Line
 72
        65
 73
         0
 40
0.0
  0
LTYPE
  5
24
100
AcDbSymbolTableRecord
100
AcDbLinetypeTableRecord
  2
DOT
 70
        64
  3
. . . . . . . . . . . . . . . . . . . . . . 
 72
        65
 73
         2
 40
0.25
 49
0.0
 74
         0
 49
-0.25
 74
         0
  0
LTYPE
  5
25
100
AcDbSymbolTableRecord
100
AcDbLinetypeTableRecord
  2
HIDDEN
 70
         0
  3
_ _ _ _ _ _ _ _ _ _ _ _ _ _ _ _ _ _ _ _ _ _ _
 72
        65
 73
         2
 40
0.375
 49
0.25
 74
         0
 49
-0.125
 74
         0
  0
LTYPE
  5
26
100
AcDbSymbolTableRecord
100
AcDbLinetypeTableRecord
  2
DASHDOT
 70
         0
  3
__ . __ . __ . __ . __ . __ . __ . __ . __ . __
 72
        65
 73
         4
 40
1.0
 49
0.5
 74
         0
 49
-0.25
 74
         0
 49
0.0
 74
         0
 49
-0.25
 74
         0
  0
LTYPE
  5
27
100
AcDbSymbolTableRecord
100
AcDbLinetypeTableRecord
  2
DIVIDE
 70
         0
  3
__ . . __ . . __ . . __ . . __ . . __ . . __
 72
        65
 73
         6
 40
1.25
 49
0.5
 74
         0
 49
-0.25
 74
         0
 49
0.0
 74
         0
 49
-0.25
 74
         0
 49
0.0
 74
         0
 49
-0.25
 74
         0
  0
LTYPE
  5
28
100
AcDbSymbolTableRecord
100
AcDbLinetypeTableRecord
  2
DASHED
 70
         0
  3
__ __ __ __ __ __ __ __ __ __ __ __ __ __ __
 72
        65
 73
         2
 40
0.75
 49
0.5
 74
         0
 49
-0.25
 74
         0
  0
LTYPE
  5
29
100
AcDbSymbolTableRecord
100
AcDbLinetypeTableRecord
  2
BORDER
 70
         0
  3
__ __ . __ __ . __ __ . __ __ . __ __ .
 72
        65
 73
         6
 40
1.75
 49
0.5
 74
         0
 49
-0.25
 74
         0
 49
0.5
 74
         0
 49
-0.25
 74
         0
 49
0.0
 74
         0
 49
-0.25
 74
         0
  0
LTYPE
  5
2A
100
AcDbSymbolTableRecord
100
AcDbLinetypeTableRecord
  2
CENTER
 70
         0
  3
____ _ ____ _ ____ _ ____ _ ____ _ ____
 72
        65
 73
         4
 40
2.0
 49
1.25
 74
         0
 49
-0.25
 74
         0
 49
0.25
 74
         0
 49
-0.25
 74
         0
  0
LTYPE
  5
2B
100
AcDbSymbolTableRecord
100
AcDbLinetypeTableRecord
  2
DOT2
 70
         0
  3
........................................
 72
        65
 73
         2
 40
0.125
 49
0.0
 74
         0
 49
-0.125
 74
         0
  0
LTYPE
  5
2C
100
AcDbSymbolTableRecord
100
AcDbLinetypeTableRecord
  2
PHANTOM
 70
         0
  3
______  __  __  ______  __  __  ______
 72
        65
 73
         6
 40
2.5
 49
1.25
 74
         0
 49
-0.25
 74
         0
 49
0.25
 74
         0
 49
-0.25
 74
         0
 49
0.25
 74
         0
 49
-0.25
 74
         0
  0
ENDTAB
  0
TABLE
  2
LAYER
  5
2
100
AcDbSymbolTable
 70
       103
  0
LAYER
  5
14
100
AcDbSymbolTableRecord
100
AcDbLayerTableRecord
  2
0
 70
         0
 62
         7
  6
CONTINUOUS
290
         1
370
        -3
390
1D
  0
LAYER
  5
33
100
AcDbSymbolTableRecord
100
AcDbLayerTableRecord
  2
BESCHRIFTUNG
 70
        64
 62
         7
  6
CONTINUOUS
290
         1
370
        25
390
1D
  0
LAYER
  5
34
100
AcDbSymbolTableRecord
100
AcDbLayerTableRecord
  2
SCHRAFFUR
 70
        64
 62
         7
  6
CONTINUOUS
290
         1
370
        25
390
1D
  0
LAYER
  5
35
100
AcDbSymbolTableRecord
100
AcDbLayerTableRecord
  2
MASSTEXTE
 70
        64
 62
       212
  6
CONTINUOUS
290
         1
370
        25
390
1D
  0
LAYER
  5
36
100
AcDbSymbolTableRecord
100
AcDbLayerTableRecord
  2
MASSLINIEN
 70
        64
 62
       172
  6
CONTINUOUS
290
         1
370
        25
390
1D
  0
LAYER
  5
37
100
AcDbSymbolTableRecord
100
AcDbLayerTableRecord
  2
MASSGRENZEN
 70
        64
 62
       172
  6
CONTINUOUS
290
         1
370
        25
390
1D
  0
LAYER
  5
38
100
AcDbSymbolTableRecord
100
AcDbLayerTableRecord
  2
TOLERANZEN
 70
        64
 62
       212
  6
CONTINUOUS
290
         1
370
         0
390
1D
  0
LAYER
  5
39
100
AcDbSymbolTableRecord
100
AcDbLayerTableRecord
  2
BEMASSUNG
 70
        64
 62
         7
  6
CONTINUOUS
290
         1
370
        25
390
1D
  0
LAYER
  5
3A
100
AcDbSymbolTableRecord
100
AcDbLayerTableRecord
  2
HILFSLINIEN
 70
        64
 62
         3
  6
CONTINUOUS
290
         1
370
         0
390
1D
  0
LAYER
  5
3B
100
AcDbSymbolTableRecord
100
AcDbLayerTableRecord
  2
MITTELLINIEN
 70
        64
 62
         5
  6
DASHDOT
290
         1
370
        25
390
1D
  0
LAYER
  5
3C
100
AcDbSymbolTableRecord
100
AcDbLayerTableRecord
  2
BESCHRIFTUNG00
 70
        64
 62
         7
  6
CONTINUOUS
290
         1
370
        25
390
1D
  0
LAYER
  5
3D
100
AcDbSymbolTableRecord
100
AcDbLayerTableRecord
  2
BESCHRIFTUNG0
 70
        64
 62
         7
  6
CONTINUOUS
290
         1
370
        25
390
1D
  0
LAYER
  5
3E
100
AcDbSymbolTableRecord
100
AcDbLayerTableRecord
  2
GEWINDELINIEN
 70
        64
 62
       212
  6
CONTINUOUS
290
         1
370
        25
390
1D
  0
LAYER
  5
3F
100
AcDbSymbolTableRecord
100
AcDbLayerTableRecord
  2
UNSICHTBARE
 70
        64
 62
        92
  6
DASHED
290
         1
370
        25
390
1D
  0
LAYER
  5
40
100
AcDbSymbolTableRecord
100
AcDbLayerTableRecord
  2
VERDECKTE
 70
        64
 62
        92
  6
DASHED
290
         1
370
        25
390
1D
  0
LAYER
  5
41
100
AcDbSymbolTableRecord
100
AcDbLayerTableRecord
  2
LICHTKANTEN
 70
        64
 62
         8
  6
CONTINUOUS
290
         1
370
        25
390
1D
  0
LAYER
  5
42
100
AcDbSymbolTableRecord
100
AcDbLayerTableRecord
  2
SCHNITTVERLAUF
 70
        64
 62
        34
  6
DASHDOT
290
         1
370
        70
390
1D
  0
LAYER
  5
43
100
AcDbSymbolTableRecord
100
AcDbLayerTableRecord
  2
KENNZEICHNUNG
 70
        64
 62
         7
  6
CONTINUOUS
290
         1
370
         0
390
1D
  0
LAYER
  5
44
100
AcDbSymbolTableRecord
100
AcDbLayerTableRecord
  2
PFEILE
 70
        64
 62
         7
  6
CONTINUOUS
290
         1
370
        70
390
1D
  0
LAYER
  5
45
100
AcDbSymbolTableRecord
100
AcDbLayerTableRecord
  2
SCHNITTDARSTELLUNG
 70
        64
 62
         7
  6
CONTINUOUS
290
         1
370
         0
390
1D
  0
LAYER
  5
46
100
AcDbSymbolTableRecord
100
AcDbLayerTableRecord
  2
_5701_2___4G WEICHENSCHIEBER
 70
        64
 62
        30
  6
DASHED
290
         1
370
        18
390
1D
  0
LAYER
  5
47
100
AcDbSymbolTableRecord
100
AcDbLayerTableRecord
  2
5701_2___4G WEICHENSCHIEBER
 70
        64
 62
        30
  6
CONTINUOUS
290
         1
370
        18
390
1D
  0
LAYER
  5
48
100
AcDbSymbolTableRecord
100
AcDbLayerTableRecord
  2
_5701_5___7G FAHRSTRAßENSCHIEBER
 70
        64
 62
         5
  6
CONTINUOUS
290
         1
370
        18
390
1D
  0
LAYER
  5
49
100
AcDbSymbolTableRecord
100
AcDbLayerTableRecord
  2
5701_5___7G FAHRSTRAßENSCHIEBER
 70
        64
 62
         5
  6
DASHED
290
         1
370
        18
390
1D
  0
LAYER
  5
4A
100
AcDbSymbolTableRecord
100
AcDbLayerTableRecord
  2
_5701_18 UMLENKUNG
 70
        64
 62
       150
  6
DASHED
290
         1
370
        18
390
1D
  0
LAYER
  5
4B
100
AcDbSymbolTableRecord
100
AcDbLayerTableRecord
  2
5701_18 UMLENKUNG
 70
        64
 62
       150
  6
CONTINUOUS
290
         1
370
        18
390
1D
  0
LAYER
  5
4C
100
AcDbSymbolTableRecord
100
AcDbLayerTableRecord
  2
5701_8X BODEN UND DECKEL
 70
        64
 62
       142
  6
CONTINUOUS
290
         1
370
        18
390
1D
  0
LAYER
  5
4D
100
AcDbSymbolTableRecord
100
AcDbLayerTableRecord
  2
5701_15___16 ECKVERBINDER
 70
        64
 62
        14
  6
CONTINUOUS
290
         1
370
        18
390
1D
  0
LAYER
  5
4E
100
AcDbSymbolTableRecord
100
AcDbLayerTableRecord
  2
5701__ ZENTRALSCHLOSS
 70
        64
 62
         7
  6
CONTINUOUS
290
         1
370
         0
390
1D
  0
LAYER
  5
4F
100
AcDbSymbolTableRecord
100
AcDbLayerTableRecord
  2
2052_5_6 BESATZUNG
 70
        64
 62
         8
  6
CONTINUOUS
290
         1
370
        18
390
1D
  0
LAYER
  5
50
100
AcDbSymbolTableRecord
100
AcDbLayerTableRecord
  2
2052_3 RIEGEL UMGESPERRT
 70
        64
 62
       230
  6
DASHED
290
         1
370
        18
390
1D
  0
LAYER
  5
51
100
AcDbSymbolTableRecord
100
AcDbLayerTableRecord
  2
2052_3 RIEGEL
 70
        64
 62
       230
  6
CONTINUOUS
290
         1
370
        18
390
1D
  0
LAYER
  5
52
100
AcDbSymbolTableRecord
100
AcDbLayerTableRecord
  2
2052_4 ZUHALTUNG ANGEHOBEN
 70
        64
 62
        94
  6
DASHED
290
         1
370
        18
390
1D
  0
LAYER
  5
53
100
AcDbSymbolTableRecord
100
AcDbLayerTableRecord
  2
2052_4 ZUHALTUNG
 70
        64
 62
        94
  6
CONTINUOUS
290
         1
370
        18
390
1D
  0
LAYER
  5
54
100
AcDbSymbolTableRecord
100
AcDbLayerTableRecord
  2
2052_1_2_7_8 GEHÄUSE
 70
        64
 62
         7
  6
CONTINUOUS
290
         1
370
        18
390
1D
  0
LAYER
  5
55
100
AcDbSymbolTableRecord
100
AcDbLayerTableRecord
  2
2052__ SCHLOSS MIT DORN
 70
        64
 62
         7
  6
CONTINUOUS
290
         1
370
         0
390
1D
  0
LAYER
  5
56
100
AcDbSymbolTableRecord
100
AcDbLayerTableRecord
  2
2053_1-4 SCHLÜSSEL
 70
        64
 62
       190
  6
CONTINUOUS
290
         1
370
        18
390
1D
  0
LAYER
  5
57
100
AcDbSymbolTableRecord
100
AcDbLayerTableRecord
  2
2053__ SCHLÜSSEL
 70
        64
 62
         7
  6
CONTINUOUS
290
         1
370
         0
390
1D
  0
LAYER
  5
58
100
AcDbSymbolTableRecord
100
AcDbLayerTableRecord
  2
KONSTRUKTION
 70
        64
 62
         7
  6
CONTINUOUS
290
         1
370
         0
390
1D
  0
LAYER
  5
59
100
AcDbSymbolTableRecord
100
AcDbLayerTableRecord
  2
2052_7L~A
 70
        64
 62
         5
  6
CONTINUOUS
290
         1
370
        13
390
1D
  0
LAYER
  5
5A
100
AcDbSymbolTableRecord
100
AcDbLayerTableRecord
  2
2052_7L
 70
        64
 62
        30
  6
CONTINUOUS
290
         1
370
        13
390
1D
  0
LAYER
  5
5B
100
AcDbSymbolTableRecord
100
AcDbLayerTableRecord
  2
2052_3L
 70
        64
 62
        30
  6
CONTINUOUS
290
         1
370
        13
390
1D
  0
LAYER
  5
5C
100
AcDbSymbolTableRecord
100
AcDbLayerTableRecord
  2
2052_2L
 70
        64
 62
        30
  6
CONTINUOUS
290
         1
370
        13
390
1D
  0
LAYER
  5
5D
100
AcDbSymbolTableRecord
100
AcDbLayerTableRecord
  2
2052_1L
 70
        64
 62
        30
  6
CONTINUOUS
290
         1
370
        13
390
1D
  0
LAYER
  5
5E
100
AcDbSymbolTableRecord
100
AcDbLayerTableRecord
  2
2052_4L
 70
        64
 62
        30
  6
CONTINUOUS
290
         1
370
        13
390
1D
  0
LAYER
  5
5F
100
AcDbSymbolTableRecord
100
AcDbLayerTableRecord
  2
2052_1R
 70
        64
 62
        34
  6
CONTINUOUS
290
         1
370
        13
390
1D
  0
LAYER
  5
60
100
AcDbSymbolTableRecord
100
AcDbLayerTableRecord
  2
2052_2R~A
 70
        64
 62
         5
  6
CONTINUOUS
290
         1
370
        13
390
1D
  0
LAYER
  5
61
100
AcDbSymbolTableRecord
100
AcDbLayerTableRecord
  2
2052_2R
 70
        64
 62
        34
  6
CONTINUOUS
290
         1
370
        13
390
1D
  0
LAYER
  5
62
100
AcDbSymbolTableRecord
100
AcDbLayerTableRecord
  2
2052_3R
 70
        64
 62
        34
  6
CONTINUOUS
290
         1
370
        13
390
1D
  0
LAYER
  5
63
100
AcDbSymbolTableRecord
100
AcDbLayerTableRecord
  2
2052_4R
 70
        64
 62
        34
  6
CONTINUOUS
290
         1
370
        13
390
1D
  0
LAYER
  5
64
100
AcDbSymbolTableRecord
100
AcDbLayerTableRecord
  2
2052___ SCHLOSS MIT DORN
 70
        64
 62
       230
  6
CONTINUOUS
290
         1
370
        13
390
1D
  0
LAYER
  5
65
100
AcDbSymbolTableRecord
100
AcDbLayerTableRecord
  2
2053_3A
 70
        64
 62
        11
  6
CONTINUOUS
290
         1
370
        13
390
1D
  0
LAYER
  5
66
100
AcDbSymbolTableRecord
100
AcDbLayerTableRecord
  2
2053_1P
 70
        64
 62
        11
  6
CONTINUOUS
290
         1
370
        13
390
1D
  0
LAYER
  5
67
100
AcDbSymbolTableRecord
100
AcDbLayerTableRecord
  2
2053_3D
 70
        64
 62
        11
  6
CONTINUOUS
290
         1
370
        13
390
1D
  0
LAYER
  5
68
100
AcDbSymbolTableRecord
100
AcDbLayerTableRecord
  2
2053_3E
 70
        64
 62
        11
  6
CONTINUOUS
290
         1
370
        13
390
1D
  0
LAYER
  5
69
100
AcDbSymbolTableRecord
100
AcDbLayerTableRecord
  2
2053_3C
 70
        64
 62
        11
  6
CONTINUOUS
290
         1
370
        13
390
1D
  0
LAYER
  5
6A
100
AcDbSymbolTableRecord
100
AcDbLayerTableRecord
  2
2053_3B
 70
        64
 62
        11
  6
CONTINUOUS
290
         1
370
        13
390
1D
  0
LAYER
  5
6B
100
AcDbSymbolTableRecord
100
AcDbLayerTableRecord
  2
2053_2P
 70
        64
 62
        11
  6
CONTINUOUS
290
         1
370
        13
390
1D
  0
LAYER
  5
6C
100
AcDbSymbolTableRecord
100
AcDbLayerTableRecord
  2
2053___ SCHLÜSSEL MIT DORN
 70
        64
 62
       230
  6
CONTINUOUS
290
         1
370
        13
390
1D
  0
LAYER
  5
6D
100
AcDbSymbolTableRecord
100
AcDbLayerTableRecord
  2
5701_18P
 70
        64
 62
       230
  6
CONTINUOUS
290
         1
370
        13
390
1D
  0
LAYER
  5
6E
100
AcDbSymbolTableRecord
100
AcDbLayerTableRecord
  2
5701_16P
 70
        64
 62
       230
  6
CONTINUOUS
290
         1
370
        13
390
1D
  0
LAYER
  5
6F
100
AcDbSymbolTableRecord
100
AcDbLayerTableRecord
  2
5701_21P
 70
        64
 62
       230
  6
CONTINUOUS
290
         1
370
        13
390
1D
  0
LAYER
  5
70
100
AcDbSymbolTableRecord
100
AcDbLayerTableRecord
  2
5701_31P
 70
        64
 62
       230
  6
CONTINUOUS
290
         1
370
        13
390
1D
  0
LAYER
  5
71
100
AcDbSymbolTableRecord
100
AcDbLayerTableRecord
  2
5701_41P
 70
        64
 62
       230
  6
CONTINUOUS
290
         1
370
        13
390
1D
  0
LAYER
  5
72
100
AcDbSymbolTableRecord
100
AcDbLayerTableRecord
  2
5701_51P
 70
        64
 62
       230
  6
CONTINUOUS
290
         1
370
        13
390
1D
  0
LAYER
  5
73
100
AcDbSymbolTableRecord
100
AcDbLayerTableRecord
  2
5701_61P
 70
        64
 62
       230
  6
CONTINUOUS
290
         1
370
        13
390
1D
  0
LAYER
  5
74
100
AcDbSymbolTableRecord
100
AcDbLayerTableRecord
  2
5701_71P
 70
        64
 62
       230
  6
CONTINUOUS
290
         1
370
        13
390
1D
  0
LAYER
  5
75
100
AcDbSymbolTableRecord
100
AcDbLayerTableRecord
  2
5701_22P
 70
        64
 62
       230
  6
CONTINUOUS
290
         1
370
        13
390
1D
  0
LAYER
  5
76
100
AcDbSymbolTableRecord
100
AcDbLayerTableRecord
  2
5701_42P
 70
        64
 62
       230
  6
CONTINUOUS
290
         1
370
        13
390
1D
  0
LAYER
  5
77
100
AcDbSymbolTableRecord
100
AcDbLayerTableRecord
  2
5701_32P
 70
        64
 62
       230
  6
CONTINUOUS
290
         1
370
        13
390
1D
  0
LAYER
  5
78
100
AcDbSymbolTableRecord
100
AcDbLayerTableRecord
  2
5701_52P
 70
        64
 62
       230
  6
CONTINUOUS
290
         1
370
        13
390
1D
  0
LAYER
  5
79
100
AcDbSymbolTableRecord
100
AcDbLayerTableRecord
  2
5701_72P
 70
        64
 62
       230
  6
CONTINUOUS
290
         1
370
        13
390
1D
  0
LAYER
  5
7A
100
AcDbSymbolTableRecord
100
AcDbLayerTableRecord
  2
5701_62P
 70
        64
 62
       230
  6
CONTINUOUS
290
         1
370
        13
390
1D
  0
LAYER
  5
7B
100
AcDbSymbolTableRecord
100
AcDbLayerTableRecord
  2
5701_80P
 70
        64
 62
       230
  6
CONTINUOUS
290
         1
370
        13
390
1D
  0
LAYER
  5
7C
100
AcDbSymbolTableRecord
100
AcDbLayerTableRecord
  2
5701_81P
 70
        64
 62
       230
  6
CONTINUOUS
290
         1
370
        13
390
1D
  0
LAYER
  5
7D
100
AcDbSymbolTableRecord
100
AcDbLayerTableRecord
  2
5701_83P
 70
        64
 62
       230
  6
CONTINUOUS
290
         1
370
        13
390
1D
  0
LAYER
  5
7E
100
AcDbSymbolTableRecord
100
AcDbLayerTableRecord
  2
5701_84P
 70
        64
 62
       230
  6
CONTINUOUS
290
         1
370
        13
390
1D
  0
LAYER
  5
7F
100
AcDbSymbolTableRecord
100
AcDbLayerTableRecord
  2
5701_82P
 70
        64
 62
       230
  6
CONTINUOUS
290
         1
370
        13
390
1D
  0
LAYER
  5
80
100
AcDbSymbolTableRecord
100
AcDbLayerTableRecord
  2
5701_16T
 70
        64
 62
        30
  6
CONTINUOUS
290
         1
370
        13
390
1D
  0
LAYER
  5
81
100
AcDbSymbolTableRecord
100
AcDbLayerTableRecord
  2
5701_85P
 70
        64
 62
       230
  6
CONTINUOUS
290
         1
370
        13
390
1D
  0
LAYER
  5
82
100
AcDbSymbolTableRecord
100
AcDbLayerTableRecord
  2
5701_86P
 70
        64
 62
       230
  6
CONTINUOUS
290
         1
370
        13
390
1D
  0
LAYER
  5
83
100
AcDbSymbolTableRecord
100
AcDbLayerTableRecord
  2
5701_87P
 70
        64
 62
       230
  6
CONTINUOUS
290
         1
370
        13
390
1D
  0
LAYER
  5
84
100
AcDbSymbolTableRecord
100
AcDbLayerTableRecord
  2
5701_88P
 70
        64
 62
       230
  6
CONTINUOUS
290
         1
370
        13
390
1D
  0
LAYER
  5
85
100
AcDbSymbolTableRecord
100
AcDbLayerTableRecord
  2
5701_89P
 70
        64
 62
       230
  6
CONTINUOUS
290
         1
370
        13
390
1D
  0
LAYER
  5
86
100
AcDbSymbolTableRecord
100
AcDbLayerTableRecord
  2
5701_15P
 70
        64
 62
       230
  6
CONTINUOUS
290
         1
370
        13
390
1D
  0
LAYER
  5
87
100
AcDbSymbolTableRecord
100
AcDbLayerTableRecord
  2
5701_15T
 70
        64
 62
        30
  6
CONTINUOUS
290
         1
370
        13
390
1D
  0
LAYER
  5
88
100
AcDbSymbolTableRecord
100
AcDbLayerTableRecord
  2
5701_99P
 70
        64
 62
       230
  6
CONTINUOUS
290
         1
370
        13
390
1D
  0
LAYER
  5
89
100
AcDbSymbolTableRecord
100
AcDbLayerTableRecord
  2
5701___ ZENTRALSCHLOSS
 70
        64
 62
       230
  6
CONTINUOUS
290
         1
370
        13
390
1D
  0
LAYER
  5
8A
100
AcDbSymbolTableRecord
100
AcDbLayerTableRecord
  2
5708_1P
 70
        64
 62
        14
  6
CONTINUOUS
290
         1
370
        13
390
1D
  0
LAYER
  5
8B
100
AcDbSymbolTableRecord
100
AcDbLayerTableRecord
  2
5708_2P
 70
        64
 62
        14
  6
CONTINUOUS
290
         1
370
        13
390
1D
  0
LAYER
  5
8C
100
AcDbSymbolTableRecord
100
AcDbLayerTableRecord
  2
5708_3P
 70
        64
 62
        14
  6
CONTINUOUS
290
         1
370
        13
390
1D
  0
LAYER
  5
8D
100
AcDbSymbolTableRecord
100
AcDbLayerTableRecord
  2
5708_0_ 3 KLEINE ZENTRALSCHLÖSSER
 70
        64
 62
         7
  6
CONTINUOUS
290
         1
370
         0
390
1D
  0
LAYER
  5
8E
100
AcDbSymbolTableRecord
100
AcDbLayerTableRecord
  2
5707_1P
 70
        64
 62
        30
  6
CONTINUOUS
290
         1
370
        13
390
1D
  0
LAYER
  5
8F
100
AcDbSymbolTableRecord
100
AcDbLayerTableRecord
  2
5707___ UMLENKUNGSLEHRE
 70
        64
 62
         7
  6
CONTINUOUS
290
         1
370
         0
390
1D
  0
LAYER
  5
90
100
AcDbSymbolTableRecord
100
AcDbLayerTableRecord
  2
1088_1P
 70
        64
 62
        30
  6
CONTINUOUS
290
         1
370
         0
390
1D
  0
LAYER
  5
91
100
AcDbSymbolTableRecord
100
AcDbLayerTableRecord
  2
108____ VORLAGEN
 70
        64
 62
       230
  6
CONTINUOUS
290
         1
370
        13
390
1D
  0
LAYER
  5
92
100
AcDbSymbolTableRecord
100
AcDbLayerTableRecord
  2
5708_11P
 70
        64
 62
        14
  6
CONTINUOUS
290
         1
370
        13
390
1D
  0
LAYER
  5
93
100
AcDbSymbolTableRecord
100
AcDbLayerTableRecord
  2
5708_12P
 70
        64
 62
        14
  6
CONTINUOUS
290
         1
370
        13
390
1D
  0
LAYER
  5
94
100
AcDbSymbolTableRecord
100
AcDbLayerTableRecord
  2
5708_13P
 70
        64
 62
        14
  6
CONTINUOUS
290
         1
370
        13
390
1D
  0
LAYER
  5
95
100
AcDbSymbolTableRecord
100
AcDbLayerTableRecord
  2
5708_1_ ZENTRALSCHLOSS WALDHOF
 70
        64
 62
         7
  6
CONTINUOUS
290
         1
370
         0
390
1D
  0
LAYER
  5
96
100
AcDbSymbolTableRecord
100
AcDbLayerTableRecord
  2
PFADE
 70
        64
 62
         7
  6
CONTINUOUS
290
         1
370
         0
390
1D
  0
LAYER
  5
97
100
AcDbSymbolTableRecord
100
AcDbLayerTableRecord
  2
_TEMP
 70
        64
 62
         7
  6
CONTINUOUS
290
         1
370
        50
390
1D
  0
LAYER
  5
98
100
AcDbSymbolTableRecord
100
AcDbLayerTableRecord
  2
STANDARD
 70
        64
 62
         7
  6
CONTINUOUS
290
         1
370
         0
390
1D
  0
ENDTAB
  0
TABLE
  2
STYLE
  5
3
100
AcDbSymbolTable
 70
         7
  0
STYLE
  5
17
100
AcDbSymbolTableRecord
100
AcDbTextStyleTableRecord
  2
Standard
 70
         0
 40
0.0
 41
1.0
 50
0.0
 71
         0
 42
0.0
  3
txt
  4

  0
STYLE
  5
2D
100
AcDbSymbolTableRecord
100
AcDbTextStyleTableRecord
  2
CADdy
 70
         0
 40
0.0
 41
1.0
 50
0.0
 71
         0
 42
3.5
  3
txt.shx
  4

  0
STYLE
  5
2E
100
AcDbSymbolTableRecord
100
AcDbTextStyleTableRecord
  2
Arial
 70
         0
 40
0.0
 41
1.0
 50
0.0
 71
         0
 42
3.5
  3
arial.ttf
  4

1001
ACAD
1000
Arial
1071
       34
  0
STYLE
  5
2F
100
AcDbSymbolTableRecord
100
AcDbTextStyleTableRecord
  2
Isonorm
 70
         0
 40
0.0
 41
1.0
 50
0.0
 71
         0
 42
3.5
  3
txt.shx
  4

  0
STYLE
  5
30
100
AcDbSymbolTableRecord
100
AcDbTextStyleTableRecord
  2
Tahoma
 70
         0
 40
0.0
 41
1.0
 50
0.0
 71
         0
 42
3.5
  3
tahoma.ttf
  4

1001
ACAD
1000
Tahoma
1071
       34
  0
STYLE
  5
31
100
AcDbSymbolTableRecord
100
AcDbTextStyleTableRecord
  2
Microsoft Sans Serif
 70
         0
 40
0.0
 41
1.0
 50
0.0
 71
         0
 42
3.5
  3
micross.ttf
  4

1001
ACAD
1000
Microsoft Sans Serif
1071
       34
  0
STYLE
  5
32
100
AcDbSymbolTableRecord
100
AcDbTextStyleTableRecord
  2
Arial Rounded MT Bold
 70
         0
 40
0.0
 41
1.0
 50
0.0
 71
         0
 42
3.5
  3
txt.shx
  4

  0
ENDTAB
  0
TABLE
  2
VIEW
  5
5
100
AcDbSymbolTable
 70
         0
  0
ENDTAB
  0
TABLE
  2
UCS
  5
6
100
AcDbSymbolTable
 70
         0
  0
ENDTAB
  0
TABLE
  2
APPID
  5
8
100
AcDbSymbolTable
 70
         1
  0
APPID
  5
16
100
AcDbSymbolTableRecord
100
AcDbRegAppTableRecord
  2
ACAD
 70
        64
  0
ENDTAB
  0
TABLE
  2
DIMSTYLE
  5
9
100
AcDbSymbolTable
 70
         1
100
AcDbDimStyleTable
 71
         0
  0
DIMSTYLE
105
18
100
AcDbSymbolTableRecord
100
AcDbDimStyleTableRecord
  2
Standard
 70
         0
  3

  4

 40
1.0
 41
0.18
 42
0.0625
 43
0.38
 44
0.18
 45
0.0
 46
0.0
 47
0.0
 48
0.0
 71
         0
 72
         0
 73
         1
 74
         1
 75
         0
 76
         0
 77
         0
 78
         0
 79
         0
140
0.18
141
0.09
142
0.0
143
25.4
144
1.0
145
0.0
146
1.0
147
0.09
148
0.0
170
         0
171
         2
172
         0
173
         0
174
         0
175
         0
176
         0
177
         0
178
         0
179
         0
271
         4
272
         4
273
         2
274
         2
275
         0
276
         0
277
         2
278
        46
279
         0
280
         0
281
         0
282
         0
283
         1
284
         0
285
         0
286
         0
288
         0
289
         3
340
17
341
0
342
0
343
0
344
0
371
        -2
372
        -2
  0
ENDTAB
  0
TABLE
  2
BLOCK_RECORD
  5
1
100
AcDbSymbolTable
 70
        10
  0
BLOCK_RECORD
  5
A
100
AcDbSymbolTableRecord
100
AcDbBlockTableRecord
  2
*MODEL_SPACE
340
20
  0
BLOCK_RECORD
  5
B
100
AcDbSymbolTableRecord
100
AcDbBlockTableRecord
  2
*PAPER_SPACE
340
21
  0
BLOCK_RECORD
  5
99
100
AcDbSymbolTableRecord
100
AcDbBlockTableRecord
  2
D123491072
340
0
102
{BLKREFS
331
11B
102
}
  0
BLOCK_RECORD
  5
A2
100
AcDbSymbolTableRecord
100
AcDbBlockTableRecord
  2
D123491840
340
0
102
{BLKREFS
331
11C
102
}
  0
BLOCK_RECORD
  5
AB
100
AcDbSymbolTableRecord
100
AcDbBlockTableRecord
  2
D123484672
340
0
102
{BLKREFS
331
136
102
}
  0
BLOCK_RECORD
  5
B4
100
AcDbSymbolTableRecord
100
AcDbBlockTableRecord
  2
D123488000
340
0
102
{BLKREFS
331
17C
102
}
  0
BLOCK_RECORD
  5
BD
100
AcDbSymbolTableRecord
100
AcDbBlockTableRecord
  2
D123492096
340
0
102
{BLKREFS
331
17D
102
}
  0
BLOCK_RECORD
  5
C6
100
AcDbSymbolTableRecord
100
AcDbBlockTableRecord
  2
X
340
0
102
{BLKREFS
331
180
331
181
331
182
102
}
  0
BLOCK_RECORD
  5
CB
100
AcDbSymbolTableRecord
100
AcDbBlockTableRecord
  2
D123485440
340
0
102
{BLKREFS
331
19A
102
}
  0
BLOCK_RECORD
  5
D6
100
AcDbSymbolTableRecord
100
AcDbBlockTableRecord
  2
D123488768
340
0
102
{BLKREFS
331
19D
102
}
  0
BLOCK_RECORD
  5
DF
100
AcDbSymbolTableRecord
100
AcDbBlockTableRecord
  2
D213287168
340
0
102
{BLKREFS
331
1B9
102
}
  0
BLOCK_RECORD
  5
EA
100
AcDbSymbolTableRecord
100
AcDbBlockTableRecord
  2
D195894528
340
0
102
{BLKREFS
331
1BA
102
}
  0
ENDTAB
  0
ENDSEC
  0
SECTION
  2
BLOCKS
  0
BLOCK
  5
D
100
AcDbEntity
  8
0
390
0
100
AcDbBlockBegin
  2
*MODEL_SPACE
 70
         0
 10
0.0
 20
0.0
 30
0.0
  3
*MODEL_SPACE
  1

  0
ENDBLK
  5
E
100
AcDbEntity
  8
0
390
0
100
AcDbBlockEnd
  0
BLOCK
  5
F
100
AcDbEntity
 67
         1
  8
0
390
0
100
AcDbBlockBegin
  2
*PAPER_SPACE
 70
         0
 10
0.0
 20
0.0
 30
0.0
  3
*PAPER_SPACE
  1

  0
ENDBLK
  5
10
100
AcDbEntity
 67
         1
  8
0
390
0
100
AcDbBlockEnd
  0
BLOCK
  5
9A
100
AcDbEntity
  8
BEMASSUNG
390
0
100
AcDbBlockBegin
  2
D123491072
 70
         0
 10
0.0
 20
0.0
 30
0.0
  3
D123491072
  1

  0
LINE
  5
9B
100
AcDbEntity
  8
MASSLINIEN
390
0
 62
       172
100
AcDbLine
 10
68.164800758
 20
235.343537146
 30
0.0
 11
68.164800758
 21
215.3436042763
 31
0.0
  0
LINE
  5
9C
100
AcDbEntity
  8
MASSLINIEN
390
0
 62
       172
100
AcDbLine
 10
37.8267656084
 20
235.343537146
 30
0.0
 11
70.164800758
 21
235.343537146
 31
0.0
  0
LINE
  5
9D
100
AcDbEntity
  8
MASSLINIEN
390
0
 62
       172
100
AcDbLine
 10
37.8267656084
 20
215.3436042763
 30
0.0
 11
70.164800758
 21
215.3436042763
 31
0.0
  0
SOLID
  5
9E
100
AcDbEntity
  8
MASSGRENZEN
390
0
100
AcDbTrace
 10
68.164800758
 20
235.343537146
 30
0.0
 11
68.5563793346
 21
232.3692025619
 31
0.0
 12
67.7732221813
 22
232.3692025619
 32
0.0
 13
67.7732221813
 23
232.3692025619
 33
0.0
  0
SOLID
  5
9F
100
AcDbEntity
  8
MASSGRENZEN
390
0
100
AcDbTrace
 10
68.164800758
 20
215.3436042763
 30
0.0
 11
67.7732221813
 21
218.3179388604
 31
0.0
 12
68.5563793346
 22
218.3179388604
 32
0.0
 13
68.5563793346
 23
218.3179388604
 33
0.0
  0
MTEXT
  5
A0
100
AcDbEntity
  8
MASSTEXTE
390
0
 62
       212
100
AcDbMText
 10
64.980800758
 20
225.3435707111
 30
0.0
 40
3.0
 41
0.0
 71
         5
 72
         1
  1
\W1.135145;\A1;20
  7
Arial
 11
0.0
 21
1.0
 31
0.0
 73
         0
 44
0.0
  0
ENDBLK
  5
A1
100
AcDbEntity
  8
0
390
0
100
AcDbBlockEnd
  0
BLOCK
  5
A3
100
AcDbEntity
  8
BEMASSUNG
390
0
100
AcDbBlockBegin
  2
D123491840
 70
         0
 10
0.0
 20
0.0
 30
0.0
  3
D123491840
  1

  0
LINE
  5
A4
100
AcDbEntity
  8
MASSLINIEN
390
0
 62
       172
100
AcDbLine
 10
37.8267656084
 20
244.3246705105
 30
0.0
 11
57.831698478
 21
244.3246705105
 31
0.0
  0
LINE
  5
A5
100
AcDbEntity
  8
MASSLINIEN
390
0
 62
       172
100
AcDbLine
 10
37.8267656084
 20
74.5368274949
 30
0.0
 11
37.8267656084
 21
246.3246705105
 31
0.0
  0
LINE
  5
A6
100
AcDbEntity
  8
MASSLINIEN
390
0
 62
       172
100
AcDbLine
 10
57.831698478
 20
215.3436042763
 30
0.0
 11
57.831698478
 21
246.3246705105
 31
0.0
  0
SOLID
  5
A7
100
AcDbEntity
  8
MASSGRENZEN
390
0
100
AcDbTrace
 10
37.8267656084
 20
244.3246705105
 30
0.0
 11
40.8011001925
 21
244.7162490872
 31
0.0
 12
40.8011001925
 22
243.9330919338
 32
0.0
 13
40.8011001925
 23
243.9330919338
 33
0.0
  0
SOLID
  5
A8
100
AcDbEntity
  8
MASSGRENZEN
390
0
100
AcDbTrace
 10
57.831698478
 20
244.3246705105
 30
0.0
 11
54.8573638939
 21
243.9330919338
 31
0.0
 12
54.8573638939
 22
244.7162490872
 32
0.0
 13
54.8573638939
 23
244.7162490872
 33
0.0
  0
MTEXT
  5
A9
100
AcDbEntity
  8
MASSTEXTE
390
0
 62
       212
100
AcDbMText
 10
47.8292320432
 20
247.5086705105
 30
0.0
 40
3.0
 41
0.0
 71
         5
 72
         1
  1
\W1.135145;\A1;20
  7
Arial
 73
         0
 44
0.0
  0
ENDBLK
  5
AA
100
AcDbEntity
  8
0
390
0
100
AcDbBlockEnd
  0
BLOCK
  5
AC
100
AcDbEntity
  8
BEMASSUNG
390
0
100
AcDbBlockBegin
  2
D123484672
 70
         0
 10
0.0
 20
0.0
 30
0.0
  3
D123484672
  1

  0
LINE
  5
AD
100
AcDbEntity
  8
MASSLINIEN
390
0
 62
       172
100
AcDbLine
 10
68.6052853395
 20
271.4632728288
 30
0.0
 11
68.6052853395
 21
251.4633399591
 31
0.0
  0
LINE
  5
AE
100
AcDbEntity
  8
MASSLINIEN
390
0
 62
       172
100
AcDbLine
 10
38.2672501899
 20
271.4632728288
 30
0.0
 11
70.6052853395
 21
271.4632728288
 31
0.0
  0
LINE
  5
AF
100
AcDbEntity
  8
MASSLINIEN
390
0
 62
       172
100
AcDbLine
 10
38.2672501899
 20
251.4633399591
 30
0.0
 11
70.6052853395
 21
251.4633399591
 31
0.0
  0
SOLID
  5
B0
100
AcDbEntity
  8
MASSGRENZEN
390
0
100
AcDbTrace
 10
68.6052853395
 20
271.4632728288
 30
0.0
 11
68.9968639161
 21
268.4889382447
 31
0.0
 12
68.2137067628
 22
268.4889382447
 32
0.0
 13
68.2137067628
 23
268.4889382447
 33
0.0
  0
SOLID
  5
B1
100
AcDbEntity
  8
MASSGRENZEN
390
0
100
AcDbTrace
 10
68.6052853395
 20
251.4633399591
 30
0.0
 11
68.2137067628
 21
254.4376745432
 31
0.0
 12
68.9968639161
 22
254.4376745432
 32
0.0
 13
68.9968639161
 23
254.4376745432
 33
0.0
  0
MTEXT
  5
B2
100
AcDbEntity
  8
MASSTEXTE
390
0
 62
       212
100
AcDbMText
 10
65.4212853395
 20
261.463306394
 30
0.0
 40
3.0
 41
0.0
 71
         5
 72
         1
  1
\W1.135145;\A1;20
  7
Arial
 11
0.0
 21
1.0
 31
0.0
 73
         0
 44
0.0
  0
ENDBLK
  5
B3
100
AcDbEntity
  8
0
390
0
100
AcDbBlockEnd
  0
BLOCK
  5
B5
100
AcDbEntity
  8
BEMASSUNG
390
0
100
AcDbBlockBegin
  2
D123488000
 70
         0
 10
0.0
 20
0.0
 30
0.0
  3
D123488000
  1

  0
LINE
  5
B6
100
AcDbEntity
  8
MASSLINIEN
390
0
 62
       172
100
AcDbLine
 10
120.0
 20
123.8205435157
 30
0.0
 11
140.0
 21
123.8205435157
 31
0.0
  0
LINE
  5
B7
100
AcDbEntity
  8
MASSLINIEN
390
0
 62
       172
100
AcDbLine
 10
120.0
 20
270.0
 30
0.0
 11
120.0
 21
121.8205435157
 31
0.0
  0
LINE
  5
B8
100
AcDbEntity
  8
MASSLINIEN
390
0
 62
       172
100
AcDbLine
 10
140.0
 20
270.0
 30
0.0
 11
140.0
 21
121.8205435157
 31
0.0
  0
SOLID
  5
B9
100
AcDbEntity
  8
MASSGRENZEN
390
0
100
AcDbTrace
 10
120.0
 20
123.8205435157
 30
0.0
 11
122.9743345841
 21
124.2121220924
 31
0.0
 12
122.9743345841
 22
123.4289649391
 32
0.0
 13
122.9743345841
 23
123.4289649391
 33
0.0
  0
SOLID
  5
BA
100
AcDbEntity
  8
MASSGRENZEN
390
0
100
AcDbTrace
 10
140.0
 20
123.8205435157
 30
0.0
 11
137.0256654159
 21
123.4289649391
 31
0.0
 12
137.0256654159
 22
124.2121220924
 32
0.0
 13
137.0256654159
 23
124.2121220924
 33
0.0
  0
MTEXT
  5
BB
100
AcDbEntity
  8
MASSTEXTE
390
0
 62
       212
100
AcDbMText
 10
130.0
 20
127.0045435157
 30
0.0
 40
3.0
 41
0.0
 71
         5
 72
         1
  1
\W1.135145;\A1;20
  7
Arial
 73
         0
 44
0.0
  0
ENDBLK
  5
BC
100
AcDbEntity
  8
0
390
0
100
AcDbBlockEnd
  0
BLOCK
  5
BE
100
AcDbEntity
  8
BEMASSUNG
390
0
100
AcDbBlockBegin
  2
D123492096
 70
         0
 10
0.0
 20
0.0
 30
0.0
  3
D123492096
  1

  0
LINE
  5
BF
100
AcDbEntity
  8
MASSLINIEN
390
0
 62
       172
100
AcDbLine
 10
109.8792884589
 20
273.0
 30
0.0
 11
109.8792884589
 21
135.0
 31
0.0
  0
LINE
  5
C0
100
AcDbEntity
  8
MASSLINIEN
390
0
 62
       172
100
AcDbLine
 10
120.0
 20
273.0
 30
0.0
 11
107.8792884589
 21
273.0
 31
0.0
  0
LINE
  5
C1
100
AcDbEntity
  8
MASSLINIEN
390
0
 62
       172
100
AcDbLine
 10
120.0
 20
135.0
 30
0.0
 11
107.8792884589
 21
135.0
 31
0.0
  0
SOLID
  5
C2
100
AcDbEntity
  8
MASSGRENZEN
390
0
100
AcDbTrace
 10
109.8792884589
 20
273.0
 30
0.0
 11
110.2708670356
 21
270.0256654159
 31
0.0
 12
109.4877098823
 22
270.0256654159
 32
0.0
 13
109.4877098823
 23
270.0256654159
 33
0.0
  0
SOLID
  5
C3
100
AcDbEntity
  8
MASSGRENZEN
390
0
100
AcDbTrace
 10
109.8792884589
 20
135.0
 30
0.0
 11
109.4877098823
 21
137.9743345841
 31
0.0
 12
110.2708670356
 22
137.9743345841
 32
0.0
 13
110.2708670356
 23
137.9743345841
 33
0.0
  0
MTEXT
  5
C4
100
AcDbEntity
  8
MASSTEXTE
390
0
 62
       212
100
AcDbMText
 10
106.6952884589
 20
204.0
 30
0.0
 40
3.0
 41
0.0
 71
         5
 72
         1
  1
\W1.135145;\A1;138
  7
Arial
 11
0.0
 21
1.0
 31
0.0
 73
         0
 44
0.0
  0
ENDBLK
  5
C5
100
AcDbEntity
  8
0
390
0
100
AcDbBlockEnd
  0
BLOCK
  5
C7
100
AcDbEntity
  8
5701_99P
390
0
100
AcDbBlockBegin
  2
X
 70
        66
 10
104.5547320313
 20
209.8532390625
 30
0.0
  3
X
  1

  0
LINE
  5
C8
100
AcDbEntity
  8
MITTELLINIEN
390
0
100
AcDbLine
 10
98.8047320313
 20
209.8532390625
 30
0.0
 11
110.3047320313
 21
209.8532390625
 31
0.0
  0
LINE
  5
C9
100
AcDbEntity
  8
MITTELLINIEN
390
0
100
AcDbLine
 10
104.5547320313
 20
204.1032390625
 30
0.0
 11
104.5547320313
 21
215.6032390625
 31
0.0
  0
ENDBLK
  5
CA
100
AcDbEntity
  8
0
390
0
100
AcDbBlockEnd
  0
BLOCK
  5
CC
100
AcDbEntity
  8
BEMASSUNG
390
0
100
AcDbBlockBegin
  2
D123485440
 70
         0
 10
0.0
 20
0.0
 30
0.0
  3
D123485440
  1

  0
LINE
  5
CD
100
AcDbEntity
  8
MASSLINIEN
390
0
 62
       172
100
AcDbLine
 10
123.4655635625
 20
95.0817669039
 30
0.0
 11
123.4655635625
 21
90.0817669039
 31
0.0
  0
LINE
  5
CE
100
AcDbEntity
  8
MASSLINIEN
390
0
 62
       172
100
AcDbLine
 10
131.8272324158
 20
95.0817669039
 30
0.0
 11
121.4655635625
 21
95.0817669039
 31
0.0
  0
LINE
  5
CF
100
AcDbEntity
  8
MASSLINIEN
390
0
 62
       172
100
AcDbLine
 10
131.8272324158
 20
90.0817669039
 30
0.0
 11
121.4655635625
 21
90.0817669039
 31
0.0
  0
LINE
  5
D0
100
AcDbEntity
  8
MASSLINIEN
390
0
 62
       172
100
AcDbLine
 10
123.4655635625
 20
95.0817669039
 30
0.0
 11
123.4655635625
 21
103.8562694055
 31
0.0
  0
LINE
  5
D1
100
AcDbEntity
  8
MASSLINIEN
390
0
 62
       172
100
AcDbLine
 10
123.4655635625
 20
90.0817669039
 30
0.0
 11
123.4655635625
 21
84.0430977357
 31
0.0
  0
SOLID
  5
D2
100
AcDbEntity
  8
MASSGRENZEN
390
0
100
AcDbTrace
 10
123.4655635625
 20
95.0817669039
 30
0.0
 11
123.0739849859
 21
98.056101488
 31
0.0
 12
123.8571421392
 22
98.056101488
 32
0.0
 13
123.8571421392
 23
98.056101488
 33
0.0
  0
SOLID
  5
D3
100
AcDbEntity
  8
MASSGRENZEN
390
0
100
AcDbTrace
 10
123.4655635625
 20
90.0817669039
 30
0.0
 11
123.8571421392
 21
87.1074323198
 31
0.0
 12
123.0739849859
 22
87.1074323198
 32
0.0
 13
123.0739849859
 23
87.1074323198
 33
0.0
  0
MTEXT
  5
D4
100
AcDbEntity
  8
MASSTEXTE
390
0
 62
       212
100
AcDbMText
 10
120.2815635625
 20
102.4433527388
 30
0.0
 40
3.0
 41
0.0
 71
         5
 72
         1
  1
\W1.135145;\A1;5
  7
Arial
 11
0.0
 21
1.0
 31
0.0
 73
         0
 44
0.0
  0
ENDBLK
  5
D5
100
AcDbEntity
  8
0
390
0
100
AcDbBlockEnd
  0
BLOCK
  5
D7
100
AcDbEntity
  8
BEMASSUNG
390
0
100
AcDbBlockBegin
  2
D123488768
 70
         0
 10
0.0
 20
0.0
 30
0.0
  3
D123488768
  1

  0
LINE
  5
D8
100
AcDbEntity
  8
MASSLINIEN
390
0
 62
       172
100
AcDbLine
 10
123.1643449705
 20
74.201687345
 30
0.0
 11
123.1643449705
 21
55.701687345
 31
0.0
  0
LINE
  5
D9
100
AcDbEntity
  8
MASSLINIEN
390
0
 62
       172
100
AcDbLine
 10
136.8272324158
 20
74.201687345
 30
0.0
 11
121.1643449705
 21
74.201687345
 31
0.0
  0
LINE
  5
DA
100
AcDbEntity
  8
MASSLINIEN
390
0
 62
       172
100
AcDbLine
 10
136.8272324158
 20
55.701687345
 30
0.0
 11
121.1643449705
 21
55.701687345
 31
0.0
  0
SOLID
  5
DB
100
AcDbEntity
  8
MASSGRENZEN
390
0
100
AcDbTrace
 10
123.1643449705
 20
74.201687345
 30
0.0
 11
123.5559235472
 21
71.2273527609
 31
0.0
 12
122.7727663938
 22
71.2273527609
 32
0.0
 13
122.7727663938
 23
71.2273527609
 33
0.0
  0
SOLID
  5
DC
100
AcDbEntity
  8
MASSGRENZEN
390
0
100
AcDbTrace
 10
123.1643449705
 20
55.701687345
 30
0.0
 11
122.7727663938
 21
58.6760219291
 31
0.0
 12
123.5559235472
 22
58.6760219291
 32
0.0
 13
123.5559235472
 23
58.6760219291
 33
0.0
  0
MTEXT
  5
DD
100
AcDbEntity
  8
MASSTEXTE
390
0
 62
       212
100
AcDbMText
 10
119.9803449705
 20
64.951687345
 30
0.0
 40
3.0
 41
0.0
 71
         5
 72
         1
  1
\W1.135134;\A1;18.5
  7
Arial
 11
0.0
 21
1.0
 31
0.0
 73
         0
 44
0.0
  0
ENDBLK
  5
DE
100
AcDbEntity
  8
0
390
0
100
AcDbBlockEnd
  0
BLOCK
  5
E0
100
AcDbEntity
  8
BEMASSUNG
390
0
100
AcDbBlockBegin
  2
D213287168
 70
         0
 10
0.0
 20
0.0
 30
0.0
  3
D213287168
  1

  0
LINE
  5
E1
100
AcDbEntity
  8
MASSLINIEN
390
0
 62
       172
100
AcDbLine
 10
124.5
 20
232.0
 30
0.0
 11
137.0
 21
232.0
 31
0.0
  0
LINE
  5
E2
100
AcDbEntity
  8
MASSLINIEN
390
0
 62
       172
100
AcDbLine
 10
124.5
 20
227.0
 30
0.0
 11
124.5
 21
234.0
 31
0.0
  0
LINE
  5
E3
100
AcDbEntity
  8
MASSLINIEN
390
0
 62
       172
100
AcDbLine
 10
137.0
 20
270.0
 30
0.0
 11
137.0
 21
234.0
 31
0.0
  0
LINE
  5
E4
100
AcDbEntity
  8
MASSLINIEN
390
0
 62
       172
100
AcDbLine
 10
137.0
 20
232.0
 30
0.0
 11
152.3878358349
 21
232.0
 31
0.0
  0
LINE
  5
E5
100
AcDbEntity
  8
MASSLINIEN
390
0
 62
       172
100
AcDbLine
 10
124.5
 20
232.0
 30
0.0
 11
118.4613308318
 21
232.0
 31
0.0
  0
SOLID
  5
E6
100
AcDbEntity
  8
MASSGRENZEN
390
0
100
AcDbTrace
 10
124.5
 20
232.0
 30
0.0
 11
121.5256654159
 21
231.6084214233
 31
0.0
 12
121.5256654159
 22
232.3915785767
 32
0.0
 13
121.5256654159
 23
232.3915785767
 33
0.0
  0
SOLID
  5
E7
100
AcDbEntity
  8
MASSGRENZEN
390
0
100
AcDbTrace
 10
137.0
 20
232.0
 30
0.0
 11
139.9743345841
 21
232.3915785767
 31
0.0
 12
139.9743345841
 22
231.6084214233
 32
0.0
 13
139.9743345841
 23
231.6084214233
 33
0.0
  0
MTEXT
  5
E8
100
AcDbEntity
  8
MASSTEXTE
390
0
 62
       212
100
AcDbMText
 10
147.6682525016
 20
235.184
 30
0.0
 40
3.0
 41
0.0
 71
         5
 72
         1
  1
\W1.135134;\A1;12.5
  7
Arial
 73
         0
 44
0.0
  0
ENDBLK
  5
E9
100
AcDbEntity
  8
0
390
0
100
AcDbBlockEnd
  0
BLOCK
  5
EB
100
AcDbEntity
  8
BEMASSUNG
390
0
100
AcDbBlockBegin
  2
D195894528
 70
         0
 10
0.0
 20
0.0
 30
0.0
  3
D195894528
  1

  0
LINE
  5
EC
100
AcDbEntity
  8
MASSLINIEN
390
0
 62
       172
100
AcDbLine
 10
157.0766473508
 20
270.0
 30
0.0
 11
157.0766473508
 21
227.0
 31
0.0
  0
LINE
  5
ED
100
AcDbEntity
  8
MASSLINIEN
390
0
 62
       172
100
AcDbLine
 10
136.25
 20
270.0
 30
0.0
 11
159.0766473508
 21
270.0
 31
0.0
  0
LINE
  5
EE
100
AcDbEntity
  8
MASSLINIEN
390
0
 62
       172
100
AcDbLine
 10
124.5
 20
227.0
 30
0.0
 11
159.0766473508
 21
227.0
 31
0.0
  0
SOLID
  5
EF
100
AcDbEntity
  8
MASSGRENZEN
390
0
100
AcDbTrace
 10
157.0766473508
 20
270.0
 30
0.0
 11
157.4682259274
 21
267.0256654159
 31
0.0
 12
156.6850687741
 22
267.0256654159
 32
0.0
 13
156.6850687741
 23
267.0256654159
 33
0.0
  0
SOLID
  5
F0
100
AcDbEntity
  8
MASSGRENZEN
390
0
100
AcDbTrace
 10
157.0766473508
 20
227.0
 30
0.0
 11
156.6850687741
 21
229.9743345841
 31
0.0
 12
157.4682259274
 22
229.9743345841
 32
0.0
 13
157.4682259274
 23
229.9743345841
 33
0.0
  0
MTEXT
  5
F1
100
AcDbEntity
  8
MASSTEXTE
390
0
 62
       212
100
AcDbMText
 10
153.8926473508
 20
248.5
 30
0.0
 40
3.0
 41
0.0
 71
         5
 72
         1
  1
\W1.135146;\A1;43
  7
Arial
 11
0.0
 21
1.0
 31
0.0
 73
         0
 44
0.0
  0
ENDBLK
  5
F2
100
AcDbEntity
  8
0
390
0
100
AcDbBlockEnd
  0
ENDSEC
  0
SECTION
  2
ENTITIES
  0
LINE
  5
F3
100
AcDbEntity
  8
5701_15___16 ECKVERBINDER
390
0
100
AcDbLine
 10
38.8267656084
 20
234.343537146
 30
0.0
 11
56.831698478
 21
234.343537146
 31
0.0
  0
LINE
  5
F4
100
AcDbEntity
  8
5701_15___16 ECKVERBINDER
390
0
100
AcDbLine
 10
56.831698478
 20
234.343537146
 30
0.0
 11
56.831698478
 21
216.3436042763
 31
0.0
  0
LINE
  5
F5
100
AcDbEntity
  8
5701_15___16 ECKVERBINDER
390
0
100
AcDbLine
 10
56.831698478
 20
216.3436042763
 30
0.0
 11
38.8267656084
 21
216.3436042763
 31
0.0
  0
LINE
  5
F6
100
AcDbEntity
  8
5701_15___16 ECKVERBINDER
390
0
100
AcDbLine
 10
38.8267656084
 20
216.3436042763
 30
0.0
 11
38.8267656084
 21
234.343537146
 31
0.0
  0
CIRCLE
  5
F7
100
AcDbEntity
  8
5701_16P
390
0
100
AcDbCircle
 10
42.8267656084
 20
230.3436042763
 30
0.0
 40
1.25
  0
CIRCLE
  5
F8
100
AcDbEntity
  8
5701_16P
390
0
100
AcDbCircle
 10
52.831698478
 20
230.3436042763
 30
0.0
 40
1.25
  0
CIRCLE
  5
F9
100
AcDbEntity
  8
5701_16P
390
0
100
AcDbCircle
 10
52.831698478
 20
220.3436042763
 30
0.0
 40
1.25
  0
CIRCLE
  5
FA
100
AcDbEntity
  8
5701_16P
390
0
100
AcDbCircle
 10
42.8267656084
 20
220.3436042763
 30
0.0
 40
1.25
  0
MTEXT
  5
FB
100
AcDbEntity
  8
BESCHRIFTUNG
390
0
100
AcDbMText
 10
244.8472187132
 20
222.2701628126
 30
0.0
 40
3.0
 41
0.0
 71
         1
 72
         1
  3
\W0.918915;Abstandshalter Fstr.sch.\PEckverbinder außen\PEckverbinder innen\PAbstandshalter Deckel\PUmlenkung\PVerschlusselement\PWeichenschieber lang\PWeichenschieber kurz\PWeichenschieber umgel.\PFahrstraßenschieber lang\PFahrstraßenschieber kurz\
  1
PFahrstraßenschieber umgel.\PSchlösserboden\PSchlösserdeckel\PLeerboden und -deckel\PSchieberboden\PSchieberdeckel 1x1\PSchieberdeckel 1x2\PSchieberdeckel 1x3\PSchieberdeckel 2x2\PSchieberdeckel 2x3\PSchieberdeckel 3x3\P
  7
Arial
 73
         1
 44
0.7
  0
MTEXT
  5
FC
100
AcDbEntity
  8
BESCHRIFTUNG
390
0
100
AcDbMText
 10
214.2212118301
 20
222.2701628126
 30
0.0
 40
3.0
 41
0.0
 71
         1
 72
         1
  1
\W1.135139;5701.14\P5701.15\P5701.16\P5701.17/6\P5701.18\P5701.19/4\P5701.2g\P5701.3g\P5701.4g\P5701.5g\P5701.6g\P5701.7g\P5701.80/A\P5701.81/A\P5701.82/A\P5701.83/A\P5701.84/A\P5701.85/A\P5701.86/A\P5701.87/A\P5701.88/A\P5701.89/A\P
  7
Arial
 73
         1
 44
0.7
  0
LINE
  5
FD
100
AcDbEntity
  8
MITTELLINIEN
390
0
100
AcDbLine
 10
37.8267656084
 20
69.5368274949
 30
0.0
 11
37.8267656084
 21
276.4632728288
 31
0.0
  0
TEXT
  5
FE
100
AcDbEntity
  8
BESCHRIFTUNG
390
0
100
AcDbText
 10
18.389243056
 20
241.8326344753
 30
0.0
 40
2.5
  1
5701.16P
 41
1.13510446
  7
Arial
100
AcDbText
  0
TEXT
  5
FF
100
AcDbEntity
  8
BESCHRIFTUNG
390
0
100
AcDbText
 10
19.2715077619
 20
201.6895903576
 30
0.0
 40
2.5
  1
5701.18P
 41
1.135104441
  7
Arial
100
AcDbText
  0
CIRCLE
  5
100
100
AcDbEntity
  8
5701_16P
390
0
  6
PHANTOM
100
AcDbCircle
 10
37.8267656084
 20
235.343537146
 30
0.0
 40
0.5
  0
CIRCLE
  5
101
100
AcDbEntity
  8
5701_16P
390
0
  6
PHANTOM
100
AcDbCircle
 10
37.8267656084
 20
215.3436042763
 30
0.0
 40
1.0
  0
CIRCLE
  5
102
100
AcDbEntity
  8
5701_18P
390
0
  6
PHANTOM
100
AcDbCircle
 10
37.8267656084
 20
194.8533521936
 30
0.0
 40
0.5
  0
CIRCLE
  5
103
100
AcDbEntity
  8
5701_18P
390
0
  6
PHANTOM
100
AcDbCircle
 10
37.8267656084
 20
174.8533521936
 30
0.0
 40
1.0
  0
LINE
  5
104
100
AcDbEntity
  8
5701_16P
390
0
  6
DIVIDE
100
AcDbLine
 10
37.8267656084
 20
235.343537146
 30
0.0
 11
57.831698478
 21
235.343537146
 31
0.0
  0
LINE
  5
105
100
AcDbEntity
  8
5701_16P
390
0
100
AcDbLine
 10
57.831698478
 20
235.343537146
 30
0.0
 11
57.831698478
 21
215.3436042763
 31
0.0
  0
LINE
  5
106
100
AcDbEntity
  8
5701_16P
390
0
  6
DIVIDE
100
AcDbLine
 10
57.831698478
 20
215.3436042763
 30
0.0
 11
37.8267656084
 21
215.3436042763
 31
0.0
  0
LINE
  5
107
100
AcDbEntity
  8
5701_16P
390
0
100
AcDbLine
 10
37.8267656084
 20
215.3436042763
 30
0.0
 11
37.8267656084
 21
234.343537146
 31
0.0
  0
LINE
  5
108
100
AcDbEntity
  8
5701_16P
390
0
  6
HIDDEN
100
AcDbLine
 10
37.8267656084
 20
234.343537146
 30
0.0
 11
42.8267656084
 21
230.3436042763
 31
0.0
  0
LINE
  5
109
100
AcDbEntity
  8
5701_16P
390
0
  6
HIDDEN
100
AcDbLine
 10
42.8267656084
 20
230.3436042763
 30
0.0
 11
52.831698478
 21
230.3436042763
 31
0.0
  0
LINE
  5
10A
100
AcDbEntity
  8
5701_16P
390
0
  6
HIDDEN
100
AcDbLine
 10
52.831698478
 20
230.3436042763
 30
0.0
 11
52.831698478
 21
220.3436042763
 31
0.0
  0
LINE
  5
10B
100
AcDbEntity
  8
5701_16P
390
0
  6
HIDDEN
100
AcDbLine
 10
52.831698478
 20
220.3436042763
 30
0.0
 11
42.8267656084
 21
220.3436042763
 31
0.0
  0
LINE
  5
10C
100
AcDbEntity
  8
5701_16P
390
0
  6
HIDDEN
100
AcDbLine
 10
42.8267656084
 20
220.3436042763
 30
0.0
 11
37.8267656084
 21
215.3436042763
 31
0.0
  0
LINE
  5
10D
100
AcDbEntity
  8
5701_18P
390
0
  6
HIDDEN
100
AcDbLine
 10
37.8267656084
 20
194.8533521936
 30
0.0
 11
42.0348811479
 21
193.6597552894
 31
0.0
  0
LINE
  5
10E
100
AcDbEntity
  8
5701_18P
390
0
  6
HIDDEN
100
AcDbLine
 10
42.0348811479
 20
193.6597552894
 30
0.0
 11
42.0348811479
 21
188.6597552893
 31
0.0
  0
LINE
  5
10F
100
AcDbEntity
  8
5701_18P
390
0
  6
HIDDEN
100
AcDbLine
 10
42.0348811479
 20
188.6597552893
 30
0.0
 11
52.1974859141
 21
187.1597552894
 31
0.0
  0
LINE
  5
110
100
AcDbEntity
  8
5701_18P
390
0
  6
HIDDEN
100
AcDbLine
 10
52.1974859141
 20
187.1597552894
 30
0.0
 11
46.114357755
 21
178.8818275635
 31
0.0
  0
LINE
  5
111
100
AcDbEntity
  8
5701_18P
390
0
  6
HIDDEN
100
AcDbLine
 10
46.114357755
 20
178.8818275635
 30
0.0
 11
37.8267656084
 21
174.8533521936
 31
0.0
  0
TEXT
  5
112
100
AcDbEntity
  8
5701_18P
390
0
  6
HIDDEN
100
AcDbText
 10
36.9220678432
 20
191.3189544568
 30
0.0
 40
2.0
  1
N1
 41
1.1350267802
  7
Arial
100
AcDbText
  0
MTEXT
  5
113
100
AcDbEntity
  8
5701_16P
390
0
100
AcDbMText
 10
24.8197103138
 20
234.5191318552
 30
0.0
 40
2.0
 41
0.0
 71
         7
 72
         1
  1
\W0.891760;M20+x2 T2 O2 F150\PB-0.3 D1.6    I1.2 S4
  7
Arial
 73
         1
 44
0.66
  0
MTEXT
  5
114
100
AcDbEntity
  8
5701_18P
390
0
100
AcDbMText
 10
24.8197103138
 20
194.0289469028
 30
0.0
 40
2.0
 41
0.0
 71
         7
 72
         1
  1
\W0.891760;M20+x2 T2 O2 F150\PB-0.3 D1.6    I1.2 S4
  7
Arial
 73
         1
 44
0.66
  0
ARC
  5
115
100
AcDbEntity
  8
5701___ ZENTRALSCHLOSS
390
0
  6
DASHDOT
100
AcDbCircle
 10
45.7542129536
 20
225.3435707111
 30
0.0
 40
12.7610246497
100
AcDbArc
 50
128.4055300531
 51
231.5944699469
  0
ARC
  5
116
100
AcDbEntity
  8
5701___ ZENTRALSCHLOSS
390
0
  6
DASHDOT
100
AcDbCircle
 10
44.4726397872
 20
184.8533521936
 30
0.0
 40
12.0069831182
100
AcDbArc
 50
123.6075122341
 51
236.3924877659
  0
MTEXT
  5
117
100
AcDbEntity
  8
5701___ ZENTRALSCHLOSS
390
0
100
AcDbMText
 10
32.9255172991
 20
224.4943991346
 30
0.0
 40
2.0
 41
0.0
 71
         5
 72
         1
  1
\W0.891720;>5701.16P\PM20+x2 T2 O2
  7
Arial
 73
         1
 44
0.66
  0
MTEXT
  5
118
100
AcDbEntity
  8
5701___ ZENTRALSCHLOSS
390
0
100
AcDbMText
 10
32.9255172991
 20
184.0042141822
 30
0.0
 40
2.0
 41
0.0
 71
         5
 72
         1
  1
\W0.891720;>5701.18P\PM20+x2 T2 O2
  7
Arial
 73
         1
 44
0.66
  0
TEXT
  5
119
100
AcDbEntity
  8
5701_16P
390
0
100
AcDbText
 10
36.5841628001
 20
217.97153883
 30
0.0
 40
1.5
  1
N1
 41
1.1350267802
  7
Arial
100
AcDbText
  0
MTEXT
  5
11A
100
AcDbEntity
  8
5701_15T
390
0
100
AcDbMText
 10
37.0864333458
 20
132.9010507349
 30
0.0
 40
2.0
 41
0.0
 71
         7
 72
         1
  1
\W0.891720;>5701.15P\PM20+x2 T2 O2
  7
Arial
 73
         1
 44
0.66
  0
INSERT
  5
11B
100
AcDbEntity
  8
BEMASSUNG
390
0
100
AcDbBlockReference
  2
D123491072
 10
0.0
 20
0.0
 30
0.0
  0
INSERT
  5
11C
100
AcDbEntity
  8
BEMASSUNG
390
0
100
AcDbBlockReference
  2
D123491840
 10
0.0
 20
0.0
 30
0.0
  0
LINE
  5
11D
100
AcDbEntity
  8
5701___ ZENTRALSCHLOSS
390
0
  6
DOT
100
AcDbLine
 10
37.8267656084
 20
141.9173465924
 30
0.0
 11
97.8265642174
 21
141.9173465924
 31
0.0
  0
LINE
  5
11E
100
AcDbEntity
  8
5701___ ZENTRALSCHLOSS
390
0
  6
DOT
100
AcDbLine
 10
37.8267656084
 20
121.9173465924
 30
0.0
 11
97.8265642174
 21
121.9173465924
 31
0.0
  0
TEXT
  5
11F
100
AcDbEntity
  8
5701_15T
390
0
  6
HIDDEN
100
AcDbText
 10
42.9352215091
 20
126.5280614109
 30
0.0
 40
2.0
  1
N1
 41
1.1350267802
  7
Arial
100
AcDbText
  0
MTEXT
  5
120
100
AcDbEntity
  8
5701_15T
390
0
100
AcDbMText
 10
24.8197103138
 20
141.0929413016
 30
0.0
 40
2.0
 41
0.0
 71
         7
 72
         1
  1
\W0.891762;M60x2 T2 O2 F150\PB-0.3 D1.6    I1.2 S4
  7
Arial
 73
         1
 44
0.66
  0
CIRCLE
  5
121
100
AcDbEntity
  8
5701_15T
390
0
  6
PHANTOM
100
AcDbCircle
 10
37.8267656084
 20
141.9173465924
 30
0.0
 40
0.5
  0
CIRCLE
  5
122
100
AcDbEntity
  8
5701_15T
390
0
  6
PHANTOM
100
AcDbCircle
 10
37.8267656084
 20
121.9174137227
 30
0.0
 40
1.0
  0
LINE
  5
123
100
AcDbEntity
  8
MITTELLINIEN
390
0
 62
       230
100
AcDbLine
 10
97.8267656084
 20
69.8168176943
 30
0.0
 11
97.8267656084
 21
153.9754642394
 31
0.0
  0
MTEXT
  5
124
100
AcDbEntity
  8
5701___ ZENTRALSCHLOSS
390
0
100
AcDbMText
 10
32.9255172991
 20
131.068208581
 30
0.0
 40
2.0
 41
0.0
 71
         5
 72
         1
  1
\W0.891713;>5701.15T\PM60x2 T2 O2
  7
Arial
 73
         1
 44
0.66
  0
ARC
  5
125
100
AcDbEntity
  8
5701___ ZENTRALSCHLOSS
390
0
  6
DASHDOT
100
AcDbCircle
 10
45.7542129536
 20
131.9173801575
 30
0.0
 40
12.7610246497
100
AcDbArc
 50
128.4055300531
 51
231.5944699469
  0
LINE
  5
126
100
AcDbEntity
  8
5701_15T
390
0
  6
HIDDEN
100
AcDbLine
 10
57.8267656084
 20
121.9174137227
 30
0.0
 11
77.8267656084
 21
141.9173465924
 31
0.0
  0
LINE
  5
127
100
AcDbEntity
  8
5701_15T
390
0
  6
DASHED
100
AcDbLine
 10
57.8267656084
 20
141.9173465924
 30
0.0
 11
37.8267656084
 21
121.9174137227
 31
0.0
  0
ARC
  5
128
100
AcDbEntity
  8
5701_15T
390
0
  6
HIDDEN
100
AcDbCircle
 10
57.8267656084
 20
79.1490478819
 30
0.0
 40
47.2136962829
100
AcDbArc
 50
64.9375471236
 51
115.0624528764
  0
LINE
  5
129
100
AcDbEntity
  8
MITTELLINIEN
390
0
 62
       230
100
AcDbLine
 10
57.8267656084
 20
169.996771883
 30
0.0
 11
57.8267656084
 21
197.6809894436
 31
0.0
  0
MTEXT
  5
12A
100
AcDbEntity
  8
5701_15T
390
0
100
AcDbMText
 10
57.0864333458
 20
132.9010507349
 30
0.0
 40
2.0
 41
0.0
 71
         7
 72
         1
  1
\W0.891720;>5701.15P\PM20+x2 T2 O2
  7
Arial
 73
         1
 44
0.66
  0
MTEXT
  5
12B
100
AcDbEntity
  8
5701_15T
390
0
100
AcDbMText
 10
77.0864333458
 20
132.9010507349
 30
0.0
 40
2.0
 41
0.0
 71
         7
 72
         1
  1
\W0.891720;>5701.15P\PM20+x2 T2 O2
  7
Arial
 73
         1
 44
0.66
  0
MTEXT
  5
12C
100
AcDbEntity
  8
BESCHRIFTUNG
390
0
100
AcDbMText
 10
18.3843101863
 20
148.4064439217
 30
0.0
 40
2.5
 41
0.0
 71
         7
 72
         1
  1
\W1.135131;\L5701.15T\P=3x5701.15P
  7
Arial
 73
         1
 44
0.66
  0
ARC
  5
12D
100
AcDbEntity
  8
5701_15T
390
0
  6
DASHDOT
100
AcDbCircle
 10
28.0114506213
 20
131.9173801575
 30
0.0
 40
14.0121282107
100
AcDbArc
 50
314.466096787
 51
405.533903213
  0
ARC
  5
12E
100
AcDbEntity
  8
5701_15T
390
0
  6
DASHDOT
100
AcDbCircle
 10
48.0114506213
 20
131.9173801575
 30
0.0
 40
14.0121282107
100
AcDbArc
 50
314.466096787
 51
405.533903213
  0
ARC
  5
12F
100
AcDbEntity
  8
5701_15T
390
0
  6
DASHDOT
100
AcDbCircle
 10
68.0114506213
 20
131.9173801575
 30
0.0
 40
14.0121282107
100
AcDbArc
 50
314.466096787
 51
405.533903213
  0
MTEXT
  5
130
100
AcDbEntity
  8
5701___ ZENTRALSCHLOSS
390
0
100
AcDbMText
 10
-15.2340744775
 20
183.9794680288
 30
0.0
 40
2.0
 41
0.0
 71
         5
 72
         1
  1
\W0.891720;>5701.18P\PM20+x2 T2 O2
  7
Arial
 73
         1
 44
0.66
  0
MTEXT
  5
131
100
AcDbEntity
  8
5701___ ZENTRALSCHLOSS
390
0
100
AcDbMText
 10
-15.2340744775
 20
224.4696529812
 30
0.0
 40
2.0
 41
0.0
 71
         5
 72
         1
  1
\W0.891720;>5701.16P\PM20+x2 T2 O2
  7
Arial
 73
         1
 44
0.66
  0
ARC
  5
132
100
AcDbEntity
  8
5701___ ZENTRALSCHLOSS
390
0
  6
DASHDOT
100
AcDbCircle
 10
-2.405378823
 20
225.3188245578
 30
0.0
 40
12.7610246497
100
AcDbArc
 50
128.4055300531
 51
231.5944699469
  0
ARC
  5
133
100
AcDbEntity
  8
5701___ ZENTRALSCHLOSS
390
0
  6
DASHDOT
100
AcDbCircle
 10
-3.6869519894
 20
184.8286060402
 30
0.0
 40
12.0069831182
100
AcDbArc
 50
123.6075122341
 51
236.3924877659
  0
MTEXT
  5
134
100
AcDbEntity
  8
5701___ ZENTRALSCHLOSS
390
0
100
AcDbMText
 10
-14.2940554518
 20
143.2637097621
 30
0.0
 40
2.0
 41
0.0
 71
         5
 72
         1
  1
\W0.891713;>5701.15T\PM60x2 T2 O2
  7
Arial
 73
         1
 44
0.66
  0
ARC
  5
135
100
AcDbEntity
  8
5701___ ZENTRALSCHLOSS
390
0
  6
DASHDOT
100
AcDbCircle
 10
-1.4653597973
 20
144.1128813386
 30
0.0
 40
12.7610246497
100
AcDbArc
 50
128.4055300531
 51
231.5944699469
  0
INSERT
  5
136
100
AcDbEntity
  8
BEMASSUNG
390
0
100
AcDbBlockReference
  2
D123484672
 10
0.0
 20
0.0
 30
0.0
  0
TEXT
  5
137
100
AcDbEntity
  8
BESCHRIFTUNG
390
0
100
AcDbText
 10
18.8297276375
 20
277.9523701581
 30
0.0
 40
2.5
  1
5701.15P
 41
1.1351043841
  7
Arial
100
AcDbText
  0
MTEXT
  5
138
100
AcDbEntity
  8
5701_15P
390
0
100
AcDbMText
 10
25.2601948953
 20
270.638867538
 30
0.0
 40
2.0
 41
0.0
 71
         7
 72
         1
  1
\W0.891760;M20+x2 T2 O2 F150\PB-0.3 D1.6    I1.2 S4
  7
Arial
 73
         1
 44
0.66
  0
MTEXT
  5
139
100
AcDbEntity
  8
5701___ ZENTRALSCHLOSS
390
0
100
AcDbMText
 10
33.3660018806
 20
260.6141348174
 30
0.0
 40
2.0
 41
0.0
 71
         5
 72
         1
  1
\W0.891720;>5701.15P\PM20+x2 T2 O2
  7
Arial
 73
         1
 44
0.66
  0
TEXT
  5
13A
100
AcDbEntity
  8
5701_15P
390
0
100
AcDbText
 10
37.0246473816
 20
254.0912745128
 30
0.0
 40
1.5
  1
N1
 41
1.1350267802
  7
Arial
100
AcDbText
  0
LINE
  5
13B
100
AcDbEntity
  8
5701_15P
390
0
100
AcDbLine
 10
58.2721830595
 20
271.4632728288
 30
0.0
 11
58.2721830595
 21
251.4633399591
 31
0.0
  0
LINE
  5
13C
100
AcDbEntity
  8
5701_15P
390
0
  6
DIVIDE
100
AcDbLine
 10
38.2672501899
 20
271.4632728288
 30
0.0
 11
58.2721830595
 21
271.4632728288
 31
0.0
  0
LINE
  5
13D
100
AcDbEntity
  8
5701_15___16 ECKVERBINDER
390
0
100
AcDbLine
 10
39.2672501899
 20
270.4632728288
 30
0.0
 11
57.2721830595
 21
270.4632728288
 31
0.0
  0
LINE
  5
13E
100
AcDbEntity
  8
5701_15P
390
0
  6
DIVIDE
100
AcDbLine
 10
58.2721830595
 20
251.4633399591
 30
0.0
 11
38.2672501899
 21
251.4633399591
 31
0.0
  0
LINE
  5
13F
100
AcDbEntity
  8
5701_15___16 ECKVERBINDER
390
0
100
AcDbLine
 10
57.2721830595
 20
270.4632728288
 30
0.0
 11
57.2721830595
 21
252.4633399591
 31
0.0
  0
LINE
  5
140
100
AcDbEntity
  8
5701_15___16 ECKVERBINDER
390
0
100
AcDbLine
 10
57.2721830595
 20
252.4633399591
 30
0.0
 11
39.2672501899
 21
252.4633399591
 31
0.0
  0
LINE
  5
141
100
AcDbEntity
  8
5701_15___16 ECKVERBINDER
390
0
100
AcDbLine
 10
39.2672501899
 20
252.4633399591
 30
0.0
 11
39.2672501899
 21
270.4632728288
 31
0.0
  0
CIRCLE
  5
142
100
AcDbEntity
  8
5701_15P
390
0
100
AcDbCircle
 10
43.2672501899
 20
266.4633399591
 30
0.0
 40
1.25
  0
CIRCLE
  5
143
100
AcDbEntity
  8
5701_15P
390
0
100
AcDbCircle
 10
53.2721830595
 20
266.4633399591
 30
0.0
 40
1.75
  0
CIRCLE
  5
144
100
AcDbEntity
  8
5701_15P
390
0
100
AcDbCircle
 10
53.2721830595
 20
256.4633399591
 30
0.0
 40
1.75
  0
CIRCLE
  5
145
100
AcDbEntity
  8
5701_15P
390
0
100
AcDbCircle
 10
43.2672501899
 20
256.4633399591
 30
0.0
 40
1.25
  0
CIRCLE
  5
146
100
AcDbEntity
  8
5701_15P
390
0
  6
PHANTOM
100
AcDbCircle
 10
38.2672501899
 20
271.4632728288
 30
0.0
 40
0.5
  0
CIRCLE
  5
147
100
AcDbEntity
  8
5701_15P
390
0
  6
PHANTOM
100
AcDbCircle
 10
38.2672501899
 20
251.4633399591
 30
0.0
 40
1.0
  0
ARC
  5
148
100
AcDbEntity
  8
5701___ ZENTRALSCHLOSS
390
0
  6
DASHDOT
100
AcDbCircle
 10
46.1946975351
 20
261.463306394
 30
0.0
 40
12.7610246497
100
AcDbArc
 50
128.4055300531
 51
231.5944699469
  0
LINE
  5
149
100
AcDbEntity
  8
5701_15P
390
0
100
AcDbLine
 10
38.2672501899
 20
251.4633399591
 30
0.0
 11
38.2672501899
 21
270.4632728288
 31
0.0
  0
LINE
  5
14A
100
AcDbEntity
  8
5701_15P
390
0
  6
HIDDEN
100
AcDbLine
 10
38.2672501899
 20
270.4632728288
 30
0.0
 11
43.2672501899
 21
266.4633399591
 31
0.0
  0
LINE
  5
14B
100
AcDbEntity
  8
5701_15P
390
0
  6
HIDDEN
100
AcDbLine
 10
43.2672501899
 20
266.4633399591
 30
0.0
 11
53.2721830595
 21
266.4633399591
 31
0.0
  0
LINE
  5
14C
100
AcDbEntity
  8
5701_15P
390
0
  6
HIDDEN
100
AcDbLine
 10
53.2721830595
 20
266.4633399591
 30
0.0
 11
53.2721830595
 21
256.4633399591
 31
0.0
  0
LINE
  5
14D
100
AcDbEntity
  8
5701_15P
390
0
  6
HIDDEN
100
AcDbLine
 10
53.2721830595
 20
256.4633399591
 30
0.0
 11
43.2672501899
 21
256.4633399591
 31
0.0
  0
LINE
  5
14E
100
AcDbEntity
  8
5701_15P
390
0
  6
HIDDEN
100
AcDbLine
 10
43.2672501899
 20
256.4633399591
 30
0.0
 11
38.2672501899
 21
251.4633399591
 31
0.0
  0
MTEXT
  5
14F
100
AcDbEntity
  8
5701_16T
390
0
100
AcDbMText
 10
37.0864333458
 20
91.7424914286
 30
0.0
 40
2.0
 41
0.0
 71
         7
 72
         1
  1
\W0.891720;>5701.16P\PM20+x2 T2 O2
  7
Arial
 73
         1
 44
0.66
  0
TEXT
  5
150
100
AcDbEntity
  8
5701_16T
390
0
  6
HIDDEN
100
AcDbText
 10
42.9352215091
 20
85.3695021046
 30
0.0
 40
2.0
  1
N1
 41
1.1350267802
  7
Arial
100
AcDbText
  0
MTEXT
  5
151
100
AcDbEntity
  8
5701_16T
390
0
100
AcDbMText
 10
24.8197103138
 20
99.9343819952
 30
0.0
 40
2.0
 41
0.0
 71
         7
 72
         1
  1
\W0.891762;M60x2 T2 O2 F150\PB-0.3 D1.6    I1.2 S4
  7
Arial
 73
         1
 44
0.66
  0
MTEXT
  5
152
100
AcDbEntity
  8
5701___ ZENTRALSCHLOSS
390
0
100
AcDbMText
 10
32.9255172991
 20
89.9096492746
 30
0.0
 40
2.0
 41
0.0
 71
         5
 72
         1
  1
\W0.891713;>5701.16T\PM60x2 T2 O2
  7
Arial
 73
         1
 44
0.66
  0
MTEXT
  5
153
100
AcDbEntity
  8
5701_16T
390
0
100
AcDbMText
 10
57.0864333458
 20
91.7424914286
 30
0.0
 40
2.0
 41
0.0
 71
         7
 72
         1
  1
\W0.891720;>5701.16P\PM20+x2 T2 O2
  7
Arial
 73
         1
 44
0.66
  0
MTEXT
  5
154
100
AcDbEntity
  8
5701_16T
390
0
100
AcDbMText
 10
77.0864333458
 20
91.7424914286
 30
0.0
 40
2.0
 41
0.0
 71
         7
 72
         1
  1
\W0.891720;>5701.16P\PM20+x2 T2 O2
  7
Arial
 73
         1
 44
0.66
  0
MTEXT
  5
155
100
AcDbEntity
  8
BESCHRIFTUNG
390
0
100
AcDbMText
 10
18.3843101863
 20
107.2478846153
 30
0.0
 40
2.5
 41
0.0
 71
         7
 72
         1
  1
\W1.135131;\L5701.16T\P=3x5701.16P
  7
Arial
 73
         1
 44
0.66
  0
CIRCLE
  5
156
100
AcDbEntity
  8
5701_16T
390
0
  6
PHANTOM
100
AcDbCircle
 10
37.8267656084
 20
100.758787286
 30
0.0
 40
0.5
  0
CIRCLE
  5
157
100
AcDbEntity
  8
5701_16T
390
0
  6
PHANTOM
100
AcDbCircle
 10
37.8267656084
 20
80.7588544163
 30
0.0
 40
1.0
  0
ARC
  5
158
100
AcDbEntity
  8
5701___ ZENTRALSCHLOSS
390
0
  6
DASHDOT
100
AcDbCircle
 10
45.7542129536
 20
90.7588208512
 30
0.0
 40
12.7610246497
100
AcDbArc
 50
128.4055300531
 51
231.5944699469
  0
ARC
  5
159
100
AcDbEntity
  8
5701_16T
390
0
  6
HIDDEN
100
AcDbCircle
 10
57.8267656084
 20
37.9904885755
 30
0.0
 40
47.2136962829
100
AcDbArc
 50
64.9375471236
 51
115.0624528764
  0
ARC
  5
15A
100
AcDbEntity
  8
5701_16T
390
0
  6
DASHDOT
100
AcDbCircle
 10
28.0114506213
 20
90.7588208512
 30
0.0
 40
14.0121282107
100
AcDbArc
 50
314.466096787
 51
405.533903213
  0
ARC
  5
15B
100
AcDbEntity
  8
5701_16T
390
0
  6
DASHDOT
100
AcDbCircle
 10
48.0114506213
 20
90.7588208512
 30
0.0
 40
14.0121282107
100
AcDbArc
 50
314.466096787
 51
405.533903213
  0
ARC
  5
15C
100
AcDbEntity
  8
5701_16T
390
0
  6
DASHDOT
100
AcDbCircle
 10
68.0114506213
 20
90.7588208512
 30
0.0
 40
14.0121282107
100
AcDbArc
 50
314.466096787
 51
405.533903213
  0
LINE
  5
15D
100
AcDbEntity
  8
5701___ ZENTRALSCHLOSS
390
0
  6
DOT
100
AcDbLine
 10
37.8267656084
 20
100.758787286
 30
0.0
 11
97.8265642174
 21
100.758787286
 31
0.0
  0
LINE
  5
15E
100
AcDbEntity
  8
5701___ ZENTRALSCHLOSS
390
0
  6
DOT
100
AcDbLine
 10
37.8267656084
 20
80.758787286
 30
0.0
 11
97.8265642174
 21
80.758787286
 31
0.0
  0
LINE
  5
15F
100
AcDbEntity
  8
5701_16T
390
0
  6
HIDDEN
100
AcDbLine
 10
57.8267656084
 20
80.7588544163
 30
0.0
 11
77.8267656084
 21
100.758787286
 31
0.0
  0
LINE
  5
160
100
AcDbEntity
  8
5701_16T
390
0
  6
DASHED
100
AcDbLine
 10
57.8267656084
 20
100.758787286
 30
0.0
 11
37.8267656084
 21
80.7588544163
 31
0.0
  0
LINE
  5
161
100
AcDbEntity
  8
MITTELLINIEN
390
0
100
AcDbLine
 10
120.0
 20
275.0
 30
0.0
 11
120.0
 21
130.0
 31
0.0
  0
LINE
  5
162
100
AcDbEntity
  8
MITTELLINIEN
390
0
100
AcDbLine
 10
140.0
 20
275.0
 30
0.0
 11
140.0
 21
130.0
 31
0.0
  0
CIRCLE
  5
163
100
AcDbEntity
  8
5701_99P
390
0
  6
PHANTOM
100
AcDbCircle
 10
120.0
 20
273.0
 30
0.0
 40
0.5
  0
CIRCLE
  5
164
100
AcDbEntity
  8
5701_99P
390
0
100
AcDbCircle
 10
137.0
 20
270.0
 30
0.0
 40
1.25
  0
CIRCLE
  5
165
100
AcDbEntity
  8
5701_99P
390
0
100
AcDbCircle
 10
137.0
 20
192.0
 30
0.0
 40
1.25
  0
CIRCLE
  5
166
100
AcDbEntity
  8
5701_99P
390
0
100
AcDbCircle
 10
125.0
 20
270.0
 30
0.0
 40
1.5
  0
CIRCLE
  5
167
100
AcDbEntity
  8
5701_99P
390
0
100
AcDbCircle
 10
124.5
 20
249.0
 30
0.0
 40
1.5
  0
CIRCLE
  5
168
100
AcDbEntity
  8
5701_99P
390
0
100
AcDbCircle
 10
124.5
 20
227.0
 30
0.0
 40
1.5
  0
CIRCLE
  5
169
100
AcDbEntity
  8
5701_99P
390
0
100
AcDbCircle
 10
124.5
 20
205.0
 30
0.0
 40
1.5
  0
CIRCLE
  5
16A
100
AcDbEntity
  8
5701_99P
390
0
100
AcDbCircle
 10
128.0012742913
 20
184.071383061
 30
0.0
 40
2.1
  0
CIRCLE
  5
16B
100
AcDbEntity
  8
5701_99P
390
0
100
AcDbCircle
 10
128.0012742913
 20
162.071383061
 30
0.0
 40
2.1
  0
CIRCLE
  5
16C
100
AcDbEntity
  8
5701_99P
390
0
100
AcDbCircle
 10
128.0012742913
 20
140.071383061
 30
0.0
 40
2.1
  0
CIRCLE
  5
16D
100
AcDbEntity
  8
5701_99P
390
0
100
AcDbCircle
 10
124.5012742913
 20
158.571383061
 30
0.0
 40
1.7
  0
CIRCLE
  5
16E
100
AcDbEntity
  8
5701_99P
390
0
100
AcDbCircle
 10
128.0012742913
 20
169.071383061
 30
0.0
 40
1.7
  0
CIRCLE
  5
16F
100
AcDbEntity
  8
5701_99P
390
0
  6
PHANTOM
100
AcDbCircle
 10
120.0
 20
135.0
 30
0.0
 40
1.0
  0
LINE
  5
170
100
AcDbEntity
  8
5701_99P
390
0
  6
HIDDEN
100
AcDbLine
 10
120.0
 20
273.0
 30
0.0
 11
125.0
 21
270.0
 31
0.0
  0
LINE
  5
171
100
AcDbEntity
  8
5701_99P
390
0
  6
HIDDEN
100
AcDbLine
 10
137.0
 20
270.0
 30
0.0
 11
124.5
 21
249.0
 31
0.0
  0
LINE
  5
172
100
AcDbEntity
  8
5701_99P
390
0
  6
HIDDEN
100
AcDbLine
 10
125.0
 20
270.0
 30
0.0
 11
137.0
 21
270.0
 31
0.0
  0
LINE
  5
173
100
AcDbEntity
  8
5701_99P
390
0
  6
HIDDEN
100
AcDbLine
 10
124.5
 20
249.0
 30
0.0
 11
124.5
 21
227.0
 31
0.0
  0
LINE
  5
174
100
AcDbEntity
  8
5701_99P
390
0
  6
HIDDEN
100
AcDbLine
 10
124.5
 20
227.0
 30
0.0
 11
124.5
 21
205.0
 31
0.0
  0
LINE
  5
175
100
AcDbEntity
  8
5701_99P
390
0
  6
HIDDEN
100
AcDbLine
 10
124.5
 20
205.0
 30
0.0
 11
137.0
 21
192.0
 31
0.0
  0
LINE
  5
176
100
AcDbEntity
  8
5701_99P
390
0
  6
HIDDEN
100
AcDbLine
 10
137.0
 20
192.0
 30
0.0
 11
128.0012742913
 21
184.071383061
 31
0.0
  0
LINE
  5
177
100
AcDbEntity
  8
5701_99P
390
0
  6
HIDDEN
100
AcDbLine
 10
128.0012742913
 20
184.071383061
 30
0.0
 11
128.0012742913
 21
169.071383061
 31
0.0
  0
LINE
  5
178
100
AcDbEntity
  8
5701_99P
390
0
  6
HIDDEN
100
AcDbLine
 10
128.0012742913
 20
169.071383061
 30
0.0
 11
128.0012742913
 21
162.071383061
 31
0.0
  0
LINE
  5
179
100
AcDbEntity
  8
5701_99P
390
0
  6
HIDDEN
100
AcDbLine
 10
128.0012742913
 20
162.071383061
 30
0.0
 11
124.5012742913
 21
158.571383061
 31
0.0
  0
LINE
  5
17A
100
AcDbEntity
  8
5701_99P
390
0
  6
HIDDEN
100
AcDbLine
 10
124.5012742913
 20
158.571383061
 30
0.0
 11
128.0012742913
 21
140.071383061
 31
0.0
  0
LINE
  5
17B
100
AcDbEntity
  8
5701_99P
390
0
  6
HIDDEN
100
AcDbLine
 10
128.0012742913
 20
140.071383061
 30
0.0
 11
120.0
 21
135.0
 31
0.0
  0
INSERT
  5
17C
100
AcDbEntity
  8
BEMASSUNG
390
0
100
AcDbBlockReference
  2
D123488000
 10
0.0
 20
0.0
 30
0.0
  0
INSERT
  5
17D
100
AcDbEntity
  8
BEMASSUNG
390
0
100
AcDbBlockReference
  2
D123492096
 10
0.0
 20
0.0
 30
0.0
  0
TEXT
  5
17E
100
AcDbEntity
  8
BESCHRIFTUNG
390
0
100
AcDbText
 10
96.6616067735
 20
279.6483122626
 30
0.0
 40
2.5
  1
5701.99P
 41
1.1351043082
  7
Arial
100
AcDbText
  0
MTEXT
  5
17F
100
AcDbEntity
  8
5701_99P
390
0
100
AcDbMText
 10
106.9929447054
 20
273.1755947092
 30
0.0
 40
2.0
 41
0.0
 71
         7
 72
         1
  1
\W0.891760;M20+x2 T2 O2 F150\PB-0.3 D1.6    I1.2 S4
  7
Arial
 73
         1
 44
0.66
  0
INSERT
  5
180
100
AcDbEntity
  8
5701_99P
390
0
100
AcDbBlockReference
  2
X
 10
128.0012742913
 20
184.071383061
 30
0.0
  0
INSERT
  5
181
100
AcDbEntity
  8
5701_99P
390
0
100
AcDbBlockReference
  2
X
 10
128.0012742913
 20
162.071383061
 30
0.0
  0
INSERT
  5
182
100
AcDbEntity
  8
5701_99P
390
0
100
AcDbBlockReference
  2
X
 10
128.0012742913
 20
140.071383061
 30
0.0
  0
TEXT
  5
183
100
AcDbEntity
  8
BESCHRIFTUNG
390
0
100
AcDbText
 10
143.8247523056
 20
188.6111742896
 30
0.0
 40
2.0
  1
@M3
 41
1.1350788151
  7
Arial
100
AcDbText
  0
LINE
  5
184
100
AcDbEntity
  8
MITTELLINIEN
390
0
100
AcDbLine
 10
137.0
 20
186.25
 30
0.0
 11
137.0
 21
197.75
 31
0.0
  0
LINE
  5
185
100
AcDbEntity
  8
MITTELLINIEN
390
0
100
AcDbLine
 10
131.25
 20
192.0
 30
0.0
 11
142.75
 21
192.0
 31
0.0
  0
TEXT
  5
186
100
AcDbEntity
  8
BESCHRIFTUNG
390
0
100
AcDbText
 10
141.8247523056
 20
180.6111742896
 30
0.0
 40
2.0
  1
@M5
 41
1.1350786461
  7
Arial
100
AcDbText
  0
TEXT
  5
187
100
AcDbEntity
  8
BESCHRIFTUNG
390
0
100
AcDbText
 10
141.8247523056
 20
158.6111742896
 30
0.0
 40
2.0
  1
@M5
 41
1.1350786461
  7
Arial
100
AcDbText
  0
TEXT
  5
188
100
AcDbEntity
  8
BESCHRIFTUNG
390
0
100
AcDbText
 10
141.8247523056
 20
136.6111742896
 30
0.0
 40
2.0
  1
@M5
 41
1.1350786461
  7
Arial
100
AcDbText
  0
TEXT
  5
189
100
AcDbEntity
  8
BESCHRIFTUNG
390
0
100
AcDbText
 10
143.8247523056
 20
266.6111742896
 30
0.0
 40
2.0
  1
@M3
 41
1.1350788151
  7
Arial
100
AcDbText
  0
LINE
  5
18A
100
AcDbEntity
  8
MITTELLINIEN
390
0
100
AcDbLine
 10
137.0
 20
264.25
 30
0.0
 11
137.0
 21
275.75
 31
0.0
  0
LINE
  5
18B
100
AcDbEntity
  8
MITTELLINIEN
390
0
100
AcDbLine
 10
131.25
 20
270.0
 30
0.0
 11
142.75
 21
270.0
 31
0.0
  0
ARC
  5
18C
100
AcDbEntity
  8
5701___ ZENTRALSCHLOSS
390
0
  6
DASHDOT
100
AcDbCircle
 10
538.5307585497
 20
204.0
 30
0.0
 40
424.1803812674
100
AcDbArc
 50
170.6382880665
 51
189.3617119335
  0
MTEXT
  5
18D
100
AcDbEntity
  8
5701___ ZENTRALSCHLOSS
390
0
100
AcDbMText
 10
113.9578629685
 20
213.4881059793
 30
0.0
 40
2.0
 41
0.0
 71
         5
 72
         1
  1
\W0.891720;>5701.99P\PM20+x2 T2 O2
  7
Arial
 73
         1
 44
0.66
  0
LINE
  5
18E
100
AcDbEntity
  8
5701__ ZENTRALSCHLOSS
390
0
100
AcDbLine
 10
135.8272324158
 20
55.701687345
 30
0.0
 11
135.8272324158
 21
74.201687345
 31
0.0
  0
LINE
  5
18F
100
AcDbEntity
  8
5701__ ZENTRALSCHLOSS
390
0
100
AcDbLine
 10
131.8272324158
 20
74.201687345
 30
0.0
 11
131.8272324158
 21
55.701687345
 31
0.0
  0
LINE
  5
190
100
AcDbEntity
  8
5701__ ZENTRALSCHLOSS
390
0
100
AcDbLine
 10
136.8272324158
 20
55.701687345
 30
0.0
 11
136.8272324158
 21
74.201687345
 31
0.0
  0
LINE
  5
191
100
AcDbEntity
  8
5701__ ZENTRALSCHLOSS
390
0
100
AcDbLine
 10
130.8272324158
 20
74.201687345
 30
0.0
 11
130.8272324158
 21
55.701687345
 31
0.0
  0
LINE
  5
192
100
AcDbEntity
  8
5701__ ZENTRALSCHLOSS
390
0
100
AcDbLine
 10
130.8272324158
 20
55.701687345
 30
0.0
 11
136.8272324158
 21
55.701687345
 31
0.0
  0
LINE
  5
193
100
AcDbEntity
  8
5701_2___4G WEICHENSCHIEBER
390
0
100
AcDbLine
 10
131.8272324158
 20
90.0817669039
 30
0.0
 11
131.8272324158
 21
95.0817669039
 31
0.0
  0
LINE
  5
194
100
AcDbEntity
  8
5701_2___4G WEICHENSCHIEBER
390
0
100
AcDbLine
 10
135.8272324158
 20
95.0817669039
 30
0.0
 11
135.8272324158
 21
90.0817669039
 31
0.0
  0
LINE
  5
195
100
AcDbEntity
  8
5701_2___4G WEICHENSCHIEBER
390
0
100
AcDbLine
 10
135.3272324158
 20
95.0817669039
 30
0.0
 11
135.3272324158
 21
90.0817669039
 31
0.0
  0
LINE
  5
196
100
AcDbEntity
  8
5701_2___4G WEICHENSCHIEBER
390
0
100
AcDbLine
 10
132.3272324158
 20
90.0817669039
 30
0.0
 11
132.3272324158
 21
95.0817669039
 31
0.0
  0
LINE
  5
197
100
AcDbEntity
  8
5701_2___4G WEICHENSCHIEBER
390
0
100
AcDbLine
 10
131.8272324158
 20
95.0817669039
 30
0.0
 11
135.8272324158
 21
95.0817669039
 31
0.0
  0
LINE
  5
198
100
AcDbEntity
  8
5701_2___4G WEICHENSCHIEBER
390
0
100
AcDbLine
 10
135.8272324158
 20
90.0817669039
 30
0.0
 11
131.8272324158
 21
90.0817669039
 31
0.0
  0
LINE
  5
199
100
AcDbEntity
  8
5701__ ZENTRALSCHLOSS
390
0
100
AcDbLine
 10
130.8272324158
 20
74.201687345
 30
0.0
 11
136.8272324158
 21
74.201687345
 31
0.0
  0
INSERT
  5
19A
100
AcDbEntity
  8
BEMASSUNG
390
0
100
AcDbBlockReference
  2
D123485440
 10
0.0
 20
0.0
 30
0.0
  0
LINE
  5
19B
100
AcDbEntity
  8
MITTELLINIEN
390
0
100
AcDbLine
 10
133.8272324158
 20
85.0817669039
 30
0.0
 11
133.8272324158
 21
100.0817669039
 31
0.0
  0
LINE
  5
19C
100
AcDbEntity
  8
MITTELLINIEN
390
0
100
AcDbLine
 10
133.8272324158
 20
79.201687345
 30
0.0
 11
133.8272324158
 21
50.701687345
 31
0.0
  0
INSERT
  5
19D
100
AcDbEntity
  8
BEMASSUNG
390
0
100
AcDbBlockReference
  2
D123488768
 10
0.0
 20
0.0
 30
0.0
  0
TEXT
  5
19E
100
AcDbEntity
  8
BESCHRIFTUNG
390
0
100
AcDbText
 10
105.911782985
 20
105.656902571
 30
0.0
 40
2.5
  1
5701.19/4
 41
1.1351356353
  7
Arial
100
AcDbText
  0
TEXT
  5
19F
100
AcDbEntity
  8
BESCHRIFTUNG
390
0
100
AcDbText
 10
105.911782985
 20
79.1087968441
 30
0.0
 40
2.5
  1
5701.17/6
 41
1.1351356536
  7
Arial
100
AcDbText
  0
TEXT
  5
1A0
100
AcDbEntity
  8
BESCHRIFTUNG
390
0
100
AcDbText
 10
105.911782985
 20
111.3832021305
 30
0.0
 40
2.5
  1
5701.14/4
 41
1.1351357084
  7
Arial
100
AcDbText
  0
CIRCLE
  5
1A1
100
AcDbEntity
  8
5701_18P
390
0
100
AcDbCircle
 10
42.0348811479
 20
188.6597552893
 30
0.0
 40
1.25
  0
LINE
  5
1A2
100
AcDbEntity
  8
5701_18 UMLENKUNG
390
0
100
AcDbLine
 10
42.0348811479
 20
192.6597552894
 30
0.0
 11
52.1974859141
 21
192.6597552894
 31
0.0
  0
LINE
  5
1A3
100
AcDbEntity
  8
5701_18 UMLENKUNG
390
0
100
AcDbLine
 10
38.3432896311
 20
187.1195760553
 30
0.0
 11
42.4227662382
 21
177.3416483294
 31
0.0
  0
LINE
  5
1A4
100
AcDbEntity
  8
5701_18 UMLENKUNG
390
0
100
AcDbLine
 10
56.1064133231
 20
183.2906098396
 30
0.0
 11
48.9572140525
 21
176.0679036001
 31
0.0
  0
CIRCLE
  5
1A5
100
AcDbEntity
  8
5701_18P
390
0
100
AcDbCircle
 10
46.114357755
 20
178.8818275635
 30
0.0
 40
1.25
  0
ARC
  5
1A6
100
AcDbEntity
  8
5701_18 UMLENKUNG
390
0
100
AcDbCircle
 10
52.1974859141
 20
187.1597552894
 30
0.0
 40
5.5
100
AcDbArc
 50
315.2930441171
 51
450.0
  0
ARC
  5
1A7
100
AcDbEntity
  8
5701_18 UMLENKUNG
390
0
100
AcDbCircle
 10
42.0348811479
 20
188.6597552894
 30
0.0
 40
4.0
100
AcDbArc
 50
90.0
 51
202.6465220585
  0
ARC
  5
1A8
100
AcDbEntity
  8
5701_18 UMLENKUNG
390
0
100
AcDbCircle
 10
46.114357755
 20
178.8818275635
 30
0.0
 40
4.0
100
AcDbArc
 50
202.6465220585
 51
315.2930441171
  0
CIRCLE
  5
1A9
100
AcDbEntity
  8
5701_18P
390
0
100
AcDbCircle
 10
52.1974859141
 20
187.1597552894
 30
0.0
 40
3.25
  0
LINE
  5
1AA
100
AcDbEntity
  8
5701_18P
390
0
  6
DIVIDE
100
AcDbLine
 10
56.8171273975
 20
182.5871288488
 30
0.0
 11
49.6679281268
 21
175.3644226092
 31
0.0
  0
ARC
  5
1AB
100
AcDbEntity
  8
5701_18P
390
0
100
AcDbCircle
 10
52.1974859141
 20
187.1597552894
 30
0.0
 40
6.5
100
AcDbArc
 50
315.2930441171
 51
450.0
  0
ARC
  5
1AC
100
AcDbEntity
  8
5701_18P
390
0
100
AcDbCircle
 10
46.114357755
 20
178.8818275635
 30
0.0
 40
5.0
100
AcDbArc
 50
202.6465220585
 51
315.2930441171
  0
ARC
  5
1AD
100
AcDbEntity
  8
5701_18P
390
0
100
AcDbCircle
 10
42.0348811479
 20
188.6597552894
 30
0.0
 40
5.0
100
AcDbArc
 50
90.0
 51
202.6465220585
  0
LINE
  5
1AE
100
AcDbEntity
  8
5701_18P
390
0
  6
DIVIDE
100
AcDbLine
 10
42.0348811479
 20
193.6597552894
 30
0.0
 11
52.1974859141
 21
193.6597552894
 31
0.0
  0
LINE
  5
1AF
100
AcDbEntity
  8
5701_18P
390
0
100
AcDbLine
 10
37.4203917519
 20
186.7345312467
 30
0.0
 11
41.499868359
 21
176.9566035209
 31
0.0
  0
LINE
  5
1B0
100
AcDbEntity
  8
MITTELLINIEN
390
0
100
AcDbLine
 10
116.9532113872
 20
162.0
 30
0.0
 11
143.0467886128
 21
162.0
 31
0.0
  0
LINE
  5
1B1
100
AcDbEntity
  8
MITTELLINIEN
390
0
100
AcDbLine
 10
128.0012742913
 20
149.0245944482
 30
0.0
 11
128.0012742913
 21
175.1181716738
 31
0.0
  0
TEXT
  5
1B2
100
AcDbEntity
  8
BESCHRIFTUNG0
390
0
100
AcDbText
 10
128.4010860399
 20
29.2980888889
 30
0.0
 40
3.325
  1
2025-06-22
 41
1.1351373056
  7
Arial
 11
128.4010860399
 21
32.6230888889
 31
0.0
100
AcDbText
 73
         3
  0
TEXT
  5
1B3
100
AcDbEntity
  8
BESCHRIFTUNG0
390
0
100
AcDbText
 10
128.4010860399
 20
6.8980888889
 30
0.0
 40
3.325
  1
5701 P.1v Gehäuse, Umlenkungslehre
 41
0.9265037101
  7
Arial
 11
128.4010860399
 21
10.2230888889
 31
0.0
100
AcDbText
 73
         3
  0
ARC
  5
1B4
100
AcDbEntity
  8
5701___ ZENTRALSCHLOSS
390
0
  6
DASHDOT
100
AcDbCircle
 10
-2.405378823
 20
260.5315659072
 30
0.0
 40
12.7610246497
100
AcDbArc
 50
128.4055300531
 51
231.5944699469
  0
MTEXT
  5
1B5
100
AcDbEntity
  8
5701___ ZENTRALSCHLOSS
390
0
100
AcDbMText
 10
-15.2340744775
 20
259.6823943307
 30
0.0
 40
2.0
 41
0.0
 71
         5
 72
         1
  1
\W0.891720;>5701.15P\PM20+x2 T2 O2
  7
Arial
 73
         1
 44
0.66
  0
ARC
  5
1B6
100
AcDbEntity
  8
5701___ ZENTRALSCHLOSS
390
0
  6
DASHDOT
100
AcDbCircle
 10
-1.4653597973
 20
107.8284478611
 30
0.0
 40
12.7610246497
100
AcDbArc
 50
128.4055300531
 51
231.5944699469
  0
MTEXT
  5
1B7
100
AcDbEntity
  8
5701___ ZENTRALSCHLOSS
390
0
100
AcDbMText
 10
-14.2940554518
 20
106.9792762846
 30
0.0
 40
2.0
 41
0.0
 71
         5
 72
         1
  1
\W0.891713;>5701.16T\PM60x2 T2 O2
  7
Arial
 73
         1
 44
0.66
  0
LINE
  5
1B8
100
AcDbEntity
  8
MITTELLINIEN
390
0
100
AcDbLine
 10
137.0
 20
275.0
 30
0.0
 11
137.0
 21
187.0
 31
0.0
  0
INSERT
  5
1B9
100
AcDbEntity
  8
BEMASSUNG
390
0
100
AcDbBlockReference
  2
D213287168
 10
0.0
 20
0.0
 30
0.0
  0
INSERT
  5
1BA
100
AcDbEntity
  8
BEMASSUNG
390
0
100
AcDbBlockReference
  2
D195894528
 10
0.0
 20
0.0
 30
0.0
  0
LINE
  5
1BB
100
AcDbEntity
  8
STANDARD
390
0
100
AcDbLine
 10
10.0
 20
5.0
 30
0.0
 11
10.0
 21
292.0
 31
0.0
  0
LINE
  5
1BC
100
AcDbEntity
  8
STANDARD
390
0
100
AcDbLine
 10
15.0
 20
287.0
 30
0.0
 11
205.0
 21
287.0
 31
0.0
  0
LINE
  5
1BD
100
AcDbEntity
  8
STANDARD
390
0
100
AcDbLine
 10
10.0
 20
292.0
 30
0.0
 11
15.0
 21
292.0
 31
0.0
  0
LINE
  5
1BE
100
AcDbEntity
  8
STANDARD
390
0
100
AcDbLine
 10
10.0
 20
5.0
 30
0.0
 11
15.0
 21
5.0
 31
0.0
  0
LINE
  5
1BF
100
AcDbEntity
  8
STANDARD
390
0
100
AcDbLine
 10
10.0
 20
244.1666666667
 30
0.0
 11
15.0
 21
244.1666666667
 31
0.0
  0
LINE
  5
1C0
100
AcDbEntity
  8
STANDARD
390
0
100
AcDbLine
 10
10.0
 20
196.3333333333
 30
0.0
 11
15.0
 21
196.3333333333
 31
0.0
  0
LINE
  5
1C1
100
AcDbEntity
  8
STANDARD
390
0
100
AcDbLine
 10
10.0
 20
148.5
 30
0.0
 11
15.0
 21
148.5
 31
0.0
  0
LINE
  5
1C2
100
AcDbEntity
  8
STANDARD
390
0
100
AcDbLine
 10
10.0
 20
100.6666666667
 30
0.0
 11
15.0
 21
100.6666666667
 31
0.0
  0
LINE
  5
1C3
100
AcDbEntity
  8
STANDARD
390
0
100
AcDbLine
 10
10.0
 20
52.8333333333
 30
0.0
 11
15.0
 21
52.8333333333
 31
0.0
  0
LINE
  5
1C4
100
AcDbEntity
  8
STANDARD
390
0
100
AcDbLine
 10
157.5
 20
292.0
 30
0.0
 11
157.5
 21
287.0
 31
0.0
  0
LINE
  5
1C5
100
AcDbEntity
  8
STANDARD
390
0
100
AcDbLine
 10
110.0
 20
292.0
 30
0.0
 11
110.0
 21
287.0
 31
0.0
  0
LINE
  5
1C6
100
AcDbEntity
  8
STANDARD
390
0
100
AcDbLine
 10
62.5
 20
292.0
 30
0.0
 11
62.5
 21
287.0
 31
0.0
  0
TEXT
  5
1C7
100
AcDbEntity
  8
STANDARD
390
0
100
AcDbText
 10
10.9491078691
 20
267.8641561278
 30
0.0
 40
2.23125
  1
A
 41
1.547986837
  7
Arial
 72
         1
 11
12.6760806841
 21
270.0954061278
 31
0.0
100
AcDbText
 73
         3
  0
TEXT
  5
1C8
100
AcDbEntity
  8
STANDARD
390
0
100
AcDbText
 10
10.9491074243
 20
220.0308227945
 30
0.0
 40
2.23125
  1
B
 41
1.5479872357
  7
Arial
 72
         1
 11
12.6760806841
 21
222.2620727945
 31
0.0
100
AcDbText
 73
         3
  0
TEXT
  5
1C9
100
AcDbEntity
  8
STANDARD
390
0
100
AcDbText
 10
10.9489779593
 20
172.1974894612
 30
0.0
 40
2.23125
  1
C
 41
1.5481032827
  7
Arial
 72
         1
 11
12.6760806841
 21
174.4287394612
 31
0.0
100
AcDbText
 73
         3
  0
TEXT
  5
1CA
100
AcDbEntity
  8
STANDARD
390
0
100
AcDbText
 10
10.9489771034
 20
124.3641561278
 30
0.0
 40
2.23125
  1
D
 41
1.54810405
  7
Arial
 72
         1
 11
12.6760806841
 21
126.5954061278
 31
0.0
100
AcDbText
 73
         3
  0
TEXT
  5
1CB
100
AcDbEntity
  8
STANDARD
390
0
100
AcDbText
 10
10.9491076096
 20
76.5308227945
 30
0.0
 40
2.23125
  1
E
 41
1.5479870696
  7
Arial
 72
         1
 11
12.6760806841
 21
78.7620727945
 31
0.0
100
AcDbText
 73
         3
  0
TEXT
  5
1CC
100
AcDbEntity
  8
STANDARD
390
0
100
AcDbText
 10
10.9493506612
 20
28.6974894612
 30
0.0
 40
2.23125
  1
F
 41
1.5477692083
  7
Arial
 72
         1
 11
12.6760806841
 21
30.9287394612
 31
0.0
100
AcDbText
 73
         3
  0
TEXT
  5
1CD
100
AcDbEntity
  8
STANDARD
390
0
100
AcDbText
 10
36.7048241449
 20
288.48599354
 30
0.0
 40
2.23125
  1
1
 41
1.5479225906
  7
Arial
 72
         1
 11
38.0
 21
290.71724354
 31
0.0
100
AcDbText
 73
         3
  0
TEXT
  5
1CE
100
AcDbEntity
  8
STANDARD
390
0
100
AcDbText
 10
83.7730999712
 20
288.48599354
 30
0.0
 40
2.23125
  1
2
 41
1.5479215945
  7
Arial
 72
         1
 11
85.5
 21
290.71724354
 31
0.0
100
AcDbText
 73
         3
  0
TEXT
  5
1CF
100
AcDbEntity
  8
STANDARD
390
0
100
AcDbText
 10
131.2730986376
 20
288.48599354
 30
0.0
 40
2.23125
  1
3
 41
1.5479227899
  7
Arial
 72
         1
 11
133.0
 21
290.71724354
 31
0.0
100
AcDbText
 73
         3
  0
TEXT
  5
1D0
100
AcDbEntity
  8
STANDARD
390
0
100
AcDbText
 10
178.7730988598
 20
288.48599354
 30
0.0
 40
2.23125
  1
4
 41
1.5479225906
  7
Arial
 72
         1
 11
180.5
 21
290.71724354
 31
0.0
100
AcDbText
 73
         3
  0
LINE
  5
1D1
100
AcDbEntity
  8
STANDARD
390
0
100
AcDbLine
 10
205.0
 20
292.0
 30
0.0
 11
205.0
 21
287.0
 31
0.0
  0
LINE
  5
1D2
100
AcDbEntity
  8
STANDARD
390
0
100
AcDbLine
 10
205.0
 20
5.0
 30
0.0
 11
15.0
 21
5.0
 31
0.0
  0
LINE
  5
1D3
100
AcDbEntity
  8
STANDARD
390
0
100
AcDbLine
 10
15.0
 20
5.0
 30
0.0
 11
15.0
 21
287.0
 31
0.0
  0
LINE
  5
1D4
100
AcDbEntity
  8
STANDARD
390
0
100
AcDbLine
 10
15.0
 20
292.0
 30
0.0
 11
205.0
 21
292.0
 31
0.0
  0
LINE
  5
1D5
100
AcDbEntity
  8
STANDARD
390
0
100
AcDbLine
 10
1.0
 20
1.0
 30
0.0
 11
1.0
 21
296.0
 31
0.0
  0
LINE
  5
1D6
100
AcDbEntity
  8
STANDARD
390
0
100
AcDbLine
 10
209.0
 20
1.0
 30
0.0
 11
1.0
 21
1.0
 31
0.0
  0
LINE
  5
1D7
100
AcDbEntity
  8
STANDARD
390
0
100
AcDbLine
 10
209.0
 20
296.0
 30
0.0
 11
209.0
 21
1.0
 31
0.0
  0
LINE
  5
1D8
100
AcDbEntity
  8
STANDARD
390
0
100
AcDbLine
 10
1.0
 20
296.0
 30
0.0
 11
209.0
 21
296.0
 31
0.0
  0
LINE
  5
1D9
100
AcDbEntity
  8
STANDARD
390
0
100
AcDbLine
 10
15.0
 20
287.0
 30
0.0
 11
15.0
 21
292.0
 31
0.0
  0
LINE
  5
1DA
100
AcDbEntity
  8
STANDARD
390
0
100
AcDbLine
 10
205.0
 20
287.0
 30
0.0
 11
205.0
 21
5.0
 31
0.0
  0
MTEXT
  5
1DB
100
AcDbEntity
  8
STANDARD
390
0
100
AcDbMText
 10
203.6063292805
 20
81.4222772661
 30
0.0
 40
1.59375
 41
0.0
 71
         1
 72
         1
  1

  7
Arial
 11
0.0
 21
-1.0
 31
0.0
 73
         1
 44
1.0352941176
  0
MTEXT
  5
1DC
100
AcDbEntity
  8
STANDARD
390
0
100
AcDbMText
 10
203.6103242188
 20
27.5871143065
 30
0.0
 40
1.59375
 41
0.0
 71
         1
 72
         1
  1

  7
Arial
 11
0.0
 21
-1.0
 31
0.0
 73
         1
 44
1.0352941176
  0
MTEXT
  5
1DD
100
AcDbEntity
  8
STANDARD
390
0
100
AcDbMText
 10
203.6063292805
 20
125.7560948498
 30
0.0
 40
1.59375
 41
0.0
 71
         1
 72
         1
  1

  7
Arial
 11
0.0
 21
-1.0
 31
0.0
 73
         1
 44
1.0352941176
  0
LINE
  5
1DE
100
AcDbEntity
  8
STANDARD
370
         0
390
0
100
AcDbLine
 10
81.105982906
 20
34.4
 30
0.0
 11
205.0
 21
34.4
 31
0.0
  0
LINE
  5
1DF
100
AcDbEntity
  8
STANDARD
370
         0
390
0
100
AcDbLine
 10
81.105982906
 20
27.4
 30
0.0
 11
205.0
 21
27.4
 31
0.0
  0
LINE
  5
1E0
100
AcDbEntity
  8
STANDARD
370
         0
390
0
100
AcDbLine
 10
81.105982906
 20
12.0
 30
0.0
 11
205.0
 21
12.0
 31
0.0
  0
LINE
  5
1E1
100
AcDbEntity
  8
STANDARD
390
0
100
AcDbLine
 10
205.0
 20
182.1150997151
 30
0.0
 11
205.0
 21
5.1236467236
 31
0.0
  0
LINE
  5
1E2
100
AcDbEntity
  8
STANDARD
370
         0
390
0
100
AcDbLine
 10
81.105982906
 20
34.4
 30
0.0
 11
81.105982906
 21
5.0
 31
0.0
  0
LINE
  5
1E3
100
AcDbEntity
  8
STANDARD
370
         0
390
0
100
AcDbLine
 10
127.305982906
 20
34.4
 30
0.0
 11
127.305982906
 21
5.0
 31
0.0
  0
LINE
  5
1E4
100
AcDbEntity
  8
STANDARD
370
         0
390
0
100
AcDbLine
 10
165.105982906
 20
34.4
 30
0.0
 11
165.105982906
 21
27.4
 31
0.0
  0
TEXT
  5
1E5
100
AcDbEntity
  8
BESCHRIFTUNG0
390
0
100
AcDbText
 10
82.2010860399
 20
29.1136
 30
0.0
 40
3.325
  1
Stellwerk HMM
 41
1.3653781858
  7
Arial
 11
82.2010860399
 21
32.4386
 31
0.0
100
AcDbText
 73
         3
  0
MTEXT
  5
1E6
100
AcDbEntity
  8
BESCHRIFTUNG0
390
0
100
AcDbMText
 10
128.6210415954
 20
24.9601111111
 30
0.0
 40
3.325
 41
0.0
 71
         1
 72
         1
  1
\W0.975283;Zentralschloss Gehäuse, Umlenkung\P5701.10...19, 99
  7
Arial
 73
         1
 44
0.66
  0
TEXT
  5
1E7
100
AcDbEntity
  8
BESCHRIFTUNG0
390
0
100
AcDbText
 10
82.2010860399
 20
6.8980888889
 30
0.0
 40
3.325
  1
Dateiname
 41
1.1350744463
 51
15.0
  7
Arial
 11
82.2010860399
 21
10.2230888889
 31
0.0
100
AcDbText
 73
         3
  0
TEXT
  5
1E8
100
AcDbEntity
  8
BESCHRIFTUNG0
390
0
100
AcDbText
 10
82.4210415954
 20
21.6351111111
 30
0.0
 40
3.325
  1
Bl. 5701 P.1v 
 41
1.1349302651
 51
15.0
  7
Arial
 11
82.4210415954
 21
24.9601111111
 31
0.0
100
AcDbText
 73
         3
  0
TEXT
  5
1E9
100
AcDbEntity
  8
BESCHRIFTUNG0
390
0
100
AcDbText
 10
166.2010860399
 20
29.1136
 30
0.0
 40
3.325
  1
1:1
 41
1.1348653803
 51
15.0
  7
Arial
 11
166.2010860399
 21
32.4386
 31
0.0
100
AcDbText
 73
         3
  0
ENDSEC
  0
SECTION
  2
OBJECTS
  0
DICTIONARY
  5
19
100
AcDbDictionary
280
         0
281
         1
  3
ACAD_GROUP
350
1A
  3
ACAD_MLINESTYLE
350
1B
  3
ACAD_LAYOUT
350
1E
  3
ACAD_PLOTSETTINGS
350
22
  3
ACAD_PLOTSTYLENAME
350
1F
  3
ACAD_WIPEOUT_VARS
350
23
  0
DICTIONARY
  5
1A
102
{ACAD_REACTORS
330
19
102
}
100
AcDbDictionary
280
         0
281
         1
  0
DICTIONARY
  5
1B
102
{ACAD_REACTORS
330
19
102
}
100
AcDbDictionary
280
         0
281
         1
  3
Standard
350
1C
  0
MLINESTYLE
  5
1C
102
{ACAD_REACTORS
330
1B
102
}
100
AcDbMlineStyle
  2
Standard
 70
         0
  3

 62
         0
 51
90.0
 52
90.0
 71
         2
 49
0.5
 62
       256
  6
ByLayer
 49
-0.5
 62
       256
  6
ByLayer
  0
ACDBDICTIONARYWDFLT
  5
1F
102
{ACAD_REACTORS
330
19
102
}
100
AcDbDictionary
281
         1
  3
Normal
350
1D
100
AcDbDictionaryWithDefault
340
1D
  0
ACDBPLACEHOLDER
  5
1D
102
{ACAD_REACTORS
330
1F
102
}
  0
LAYOUT
  5
20
102
{ACAD_REACTORS
330
1E
102
}
100
AcDbPlotSettings
  1

  2

  4

  6

 40
0.0
 41
0.0
 42
0.0
 43
0.0
 44
0.0
 45
0.0
 46
0.0
 47
0.0
 48
0.0
 49
0.0
140
0.0
141
0.0
142
1.0
143
1.0
 70
      1024
 72
         0
 73
         0
 74
         0
  7

 75
         0
147
1.0
148
0.0
149
0.0
100
AcDbLayout
  1
Model
 70
         0
 71
         0
 10
0.0
 20
0.0
 11
0.0
 21
0.0
 12
0.0
 22
0.0
 32
0.0
 14
0.0
 24
0.0
 34
0.0
 15
0.0
 25
0.0
 35
0.0
146
0.0
 13
0.0
 23
0.0
 33
0.0
 16
0.0
 26
0.0
 36
0.0
 17
0.0
 27
0.0
 37
0.0
 76
         0
330
A
331
0
345
0
346
0
  0
LAYOUT
  5
21
102
{ACAD_REACTORS
330
1E
102
}
100
AcDbPlotSettings
  1

  2

  4

  6

 40
0.0
 41
0.0
 42
0.0
 43
0.0
 44
0.0
 45
0.0
 46
0.0
 47
0.0
 48
0.0
 49
0.0
140
0.0
141
0.0
142
1.0
143
1.0
 70
         0
 72
         0
 73
         0
 74
         0
  7

 75
         0
147
1.0
148
0.0
149
0.0
100
AcDbLayout
  1
Layout1
 70
         0
 71
         0
 10
0.0
 20
0.0
 11
0.0
 21
0.0
 12
0.0
 22
0.0
 32
0.0
 14
0.0
 24
0.0
 34
0.0
 15
0.0
 25
0.0
 35
0.0
146
0.0
 13
0.0
 23
0.0
 33
0.0
 16
0.0
 26
0.0
 36
0.0
 17
0.0
 27
0.0
 37
0.0
 76
         0
330
B
331
0
345
0
346
0
  0
DICTIONARY
  5
1E
102
{ACAD_REACTORS
330
19
102
}
100
AcDbDictionary
280
         0
281
         1
  3
Layout1
350
21
  3
Model
350
20
  0
DICTIONARY
  5
22
102
{ACAD_REACTORS
330
19
102
}
100
AcDbDictionary
280
         0
281
         1
  0
WIPEOUTVARIABLES
  5
23
100
AcDbWipeoutVariables
 70
         1
  0
ENDSEC
  0
EOF
