  0
SECTION
  2
HEADER
  9
$ACADVER
  1
AC1015
  9
$ACADMAINTVER
 70
         6
  9
$DWGCODEPAGE
  3
ANSI_1252
  9
$INSBASE
 10
0.0
 20
0.0
 30
0.0
  9
$EXTMIN
 10
-184.5726623535
 20
11.6074171066
 30
0.0
  9
$EXTMAX
 10
581.8382568359
 20
382.2272338867
 30
0.0
  9
$LIMMIN
 10
-184.5726623535
 20
11.6074171066
  9
$LIMMAX
 10
581.8382568359
 20
382.2272338867
  9
$ORTHOMODE
 70
         0
  9
$REGENMODE
 70
         1
  9
$FILLMODE
 70
         1
  9
$QTEXTMODE
 70
         0
  9
$MIRRTEXT
 70
         1
  9
$LTSCALE
 40
19.1602729797
  9
$ATTMODE
 70
         1
  9
$TEXTSIZE
 40
0.2
  9
$TRACEWID
 40
0.05
  9
$TEXTSTYLE
  7
Standard
  9
$CLAYER
  8
0
  9
$CELTYPE
  6
CONTINUOUS
  9
$CECOLOR
 62
       256
  9
$CELTSCALE
 40
1.0
  9
$DISPSILH
 70
         0
  9
$DIMSCALE
 40
1.0
  9
$DIMASZ
 40
0.18
  9
$DIMEXO
 40
0.0625
  9
$DIMDLI
 40
0.38
  9
$DIMRND
 40
0.0
  9
$DIMDLE
 40
0.0
  9
$DIMEXE
 40
0.18
  9
$DIMTP
 40
0.0
  9
$DIMTM
 40
0.0
  9
$DIMTXT
 40
3.0
  9
$DIMCEN
 40
0.09
  9
$DIMTSZ
 40
0.0
  9
$DIMTOL
 70
         0
  9
$DIMLIM
 70
         0
  9
$DIMTIH
 70
         1
  9
$DIMTOH
 70
         1
  9
$DIMSE1
 70
         0
  9
$DIMSE2
 70
         0
  9
$DIMTAD
 70
         1
  9
$DIMZIN
 70
         0
  9
$DIMBLK
  1

  9
$DIMASO
 70
         1
  9
$DIMSHO
 70
         1
  9
$DIMPOST
  1
<>
  9
$DIMAPOST
  1

  9
$DIMALT
 70
         0
  9
$DIMALTD
 70
         2
  9
$DIMALTF
 40
25.4
  9
$DIMLFAC
 40
1.0
  9
$DIMTOFL
 70
         0
  9
$DIMTVP
 40
0.0
  9
$DIMTIX
 70
         0
  9
$DIMSOXD
 70
         0
  9
$DIMSAH
 70
         0
  9
$DIMBLK1
  1

  9
$DIMBLK2
  1

  9
$DIMSTYLE
  2
Standard
  9
$DIMCLRD
 70
         0
  9
$DIMCLRE
 70
         0
  9
$DIMCLRT
 70
         0
  9
$DIMTFAC
 40
1.0
  9
$DIMGAP
 40
0.09
  9
$DIMJUST
 70
         0
  9
$DIMSD1
 70
         0
  9
$DIMSD2
 70
         0
  9
$DIMTOLJ
 70
         1
  9
$DIMTZIN
 70
         0
  9
$DIMALTZ
 70
         0
  9
$DIMALTTZ
 70
         0
  9
$DIMUPT
 70
         0
  9
$DIMDEC
 70
         4
  9
$DIMTDEC
 70
         4
  9
$DIMALTU
 70
         2
  9
$DIMALTTD
 70
         2
  9
$DIMTXSTY
  7
Standard
  9
$DIMAUNIT
 70
         0
  9
$DIMADEC
 70
         0
  9
$DIMALTRND
 40
0.0
  9
$DIMAZIN
 70
         0
  9
$DIMDSEP
 70
         0
  9
$DIMATFIT
 70
         3
  9
$DIMFRAC
 70
         0
  9
$DIMLDRBLK
  1

  9
$DIMLUNIT
 70
         2
  9
$DIMLWD
 70
         0
  9
$DIMLWE
 70
         0
  9
$DIMTMOVE
 70
         0
  9
$LUNITS
 70
         2
  9
$LUPREC
 70
         4
  9
$SKETCHINC
 40
0.1
  9
$FILLETRAD
 40
0.0
  9
$AUNITS
 70
         0
  9
$AUPREC
 70
         0
  9
$MENU
  1
acad
  9
$ELEVATION
 40
0.0
  9
$PELEVATION
 40
0.0
  9
$THICKNESS
 40
0.0
  9
$LIMCHECK
 70
         0
  9
$CHAMFERA
 40
0.0
  9
$CHAMFERB
 40
0.0
  9
$CHAMFERC
 40
0.0
  9
$CHAMFERD
 40
0.0
  9
$SKPOLY
 70
         0
  9
$TDCREATE
 40
0.000000000
  9
$TDUCREATE
 40
0.000000000
  9
$TDUPDATE
 40
0.000000000
  9
$TDUUPDATE
 40
0.000000000
  9
$TDINDWG
 40
0.0000000000
  9
$TDUSRTIMER
 40
0.0000000000
  9
$USRTIMER
 70
         1
  9
$ANGBASE
 50
0.0
  9
$ANGDIR
 70
         0
  9
$PDMODE
 70
         0
  9
$PDSIZE
 40
0.0
  9
$PLINEWID
 40
0.0
  9
$SPLFRAME
 70
         0
  9
$SPLINETYPE
 70
         6
  9
$SPLINESEGS
 70
         8
  9
$HANDSEED
  5
2F8
  9
$SURFTAB1
 70
         6
  9
$SURFTAB2
 70
         6
  9
$SURFTYPE
 70
         6
  9
$SURFU
 70
         6
  9
$SURFV
 70
         6
  9
$UCSBASE
  2

  9
$UCSNAME
  2

  9
$UCSORG
 10
0.0
 20
0.0
 30
0.0
  9
$UCSXDIR
 10
1.0
 20
0.0
 30
0.0
  9
$UCSYDIR
 10
0.0
 20
1.0
 30
0.0
  9
$UCSORTHOREF
  2

  9
$UCSORTHOVIEW
 70
         0
  9
$UCSORGTOP
 10
0.0
 20
0.0
 30
0.0
  9
$UCSORGBOTTOM
 10
0.0
 20
0.0
 30
0.0
  9
$UCSORGLEFT
 10
0.0
 20
0.0
 30
0.0
  9
$UCSORGRIGHT
 10
0.0
 20
0.0
 30
0.0
  9
$UCSORGFRONT
 10
0.0
 20
0.0
 30
0.0
  9
$UCSORGBACK
 10
0.0
 20
0.0
 30
0.0
  9
$PUCSBASE
  2

  9
$PUCSNAME
  2

  9
$PUCSORG
 10
0.0
 20
0.0
 30
0.0
  9
$PUCSXDIR
 10
1.0
 20
0.0
 30
0.0
  9
$PUCSYDIR
 10
0.0
 20
1.0
 30
0.0
  9
$PUCSORTHOREF
  2

  9
$PUCSORTHOVIEW
 70
         0
  9
$PUCSORGTOP
 10
0.0
 20
0.0
 30
0.0
  9
$PUCSORGBOTTOM
 10
0.0
 20
0.0
 30
0.0
  9
$PUCSORGLEFT
 10
0.0
 20
0.0
 30
0.0
  9
$PUCSORGRIGHT
 10
0.0
 20
0.0
 30
0.0
  9
$PUCSORGFRONT
 10
0.0
 20
0.0
 30
0.0
  9
$PUCSORGBACK
 10
0.0
 20
0.0
 30
0.0
  9
$USERI1
 70
         0
  9
$USERI2
 70
         0
  9
$USERI3
 70
         0
  9
$USERI4
 70
         0
  9
$USERI5
 70
         0
  9
$USERR1
 40
0.0
  9
$USERR2
 40
0.0
  9
$USERR3
 40
0.0
  9
$USERR4
 40
0.0
  9
$USERR5
 40
0.0
  9
$WORLDVIEW
 70
         1
  9
$SHADEDGE
 70
         3
  9
$SHADEDIF
 70
        70
  9
$TILEMODE
 70
         1
  9
$MAXACTVP
 70
        16
  9
$PINSBASE
 10
0.0
 20
0.0
 30
0.0
  9
$PLIMCHECK
 70
         0
  9
$PEXTMIN
 10
1.0000000000E+20
 20
1.0000000000E+20
 30
1.0000000000E+20
  9
$PEXTMAX
 10
-1.0000000000E+20
 20
-1.0000000000E+20
 30
-1.0000000000E+20
  9
$PLIMMIN
 10
0.0
 20
0.0
  9
$PLIMMAX
 10
12.0
 20
9.0
  9
$UNITMODE
 70
         0
  9
$VISRETAIN
 70
         0
  9
$PLINEGEN
 70
         1
  9
$PSLTSCALE
 70
         0
  9
$TREEDEPTH
 70
      3020
  9
$CMLSTYLE
  2
Standard
  9
$CMLJUST
 70
         0
  9
$CMLSCALE
 40
1.0
  9
$PROXYGRAPHICS
 70
         0
  9
$MEASUREMENT
 70
         1
  9
$CELWEIGHT
370
         0
  9
$ENDCAPS
280
         0
  9
$JOINSTYLE
280
         0
  9
$LWDISPLAY
290
         0
  9
$INSUNITS
 70
         0
  9
$HYPERLINKBASE
  1

  9
$STYLESHEET
  1

  9
$XEDIT
290
         1
  9
$CEPSNTYPE
380
         0
  9
$PSTYLEMODE
290
         1
  9
$FINGERPRINTGUID
  2

  9
$VERSIONGUID
  2

  9
$EXTNAMES
290
         1
  9
$PSVPSCALE
 40
0.0
  0
ENDSEC
  0
SECTION
  2
CLASSES
  0
CLASS
  1
LWPOLYLINE
  2
AcDbPolyline
  3
AutoCAD 2000
 90
        0
280
         0
281
         1
  0
CLASS
  1
IMAGE
  2
AcDbRasterImage
  3
ISM
 90
      127
280
         0
281
         1
  0
CLASS
  1
OLE2FRAME
  2
AcDbOle2Frame
  3
AutoCAD 2000
 90
        0
280
         0
281
         1
  0
CLASS
  1
HATCH
  2
AcDbHatch
  3
AutoCAD 2000
 90
        0
280
         0
281
         1
  0
CLASS
  1
DICTIONARYVAR
  2
AcDbDictionaryVar
  3
AutoCAD 2000
 90
        0
280
         0
281
         0
  0
CLASS
  1
RASTERVARIABLES
  2
AcDbRasterVariables
  3
ISM
 90
        0
280
         0
281
         0
  0
CLASS
  1
IMAGEDEF
  2
AcDbRasterImageDef
  3
ISM
 90
        0
280
         0
281
         0
  0
CLASS
  1
IMAGEDEF_REACTOR
  2
AcDbRasterImageDefReactor
  3
ISM
 90
        1
280
         0
281
         0
  0
CLASS
  1
IDBUFFER
  2
AcDbIdBuffer
  3
AutoCAD 2000
 90
        0
280
         0
281
         0
  0
CLASS
  1
SPATIAL_FILTER
  2
AcDbSpatialFilter
  3
AutoCAD 2000
 90
        0
280
         0
281
         0
  0
CLASS
  1
XRECORD
  2
AcDbXrecord
  3
AutoCAD 2000
 90
        0
280
         0
281
         0
  0
CLASS
  1
SORTENTSTABLE
  2
AcDbSortentsTable
  3
AutoCAD 2000
 90
        0
280
         0
281
         0
  0
CLASS
  1
LAYER_INDEX
  2
AcDbLayerIndex
  3
AutoCAD 2000
 90
        0
280
         0
281
         0
  0
CLASS
  1
SPATIAL_INDEX
  2
AcDbSpatialIndex
  3
AutoCAD 2000
 90
        0
280
         0
281
         0
  0
CLASS
  1
OBJECT_PTR
  2
CAseDLPNTableRecord
  3
"ASE-LPNTableRecord"
 90
        1
280
         0
281
         0
  0
CLASS
  1
LAYOUT
  2
AcDbLayout
  3
AutoCAD 2000
 90
        0
280
         0
281
         0
  0
CLASS
  1
PLOTSETTINGS
  2
AcDbPlotSettings
  3
AutoCAD 2000
 90
        0
280
         0
281
         0
  0
CLASS
  1
ACDBDICTIONARYWDFLT
  2
AcDbDictionaryWithDefault
  3
AutoCAD 2000
 90
        0
280
         0
281
         0
  0
CLASS
  1
ACDBPLACEHOLDER
  2
AcDbPlaceHolder
  3
AutoCAD 2000
 90
        0
280
         0
281
         0
  0
CLASS
  1
VBA_PROJECT
  2
AcDbVbaProject
  3
acadvba
 90
        0
280
         0
281
         0
  0
CLASS
  1
WIPEOUT
  2
AcDbWipeout
  3
WipeOut|AutoCAD Express Tool|expresstools@autodesk.com
 90
      127
280
         0
281
         1
  0
CLASS
  1
WIPEOUTVARIABLES
  2
AcDbWipeoutVariables
  3
WipeOut|AutoCAD Express Tool|expresstools@autodesk.com
 90
        0
280
         0
281
         0
  0
CLASS
  1
RTEXT
  2
RText
  3
RText|AutoCAD Express Tool|expresstools@autodesk.com
 90
        0
280
         0
281
         1
  0
CLASS
  1
ARCALIGNEDTEXT
  2
AcDbArcAlignedText
  3
ATEXT|AutoCAD Express Tool|expresstools@autodesk.com
 90
        0
280
         0
281
         1
  0
ENDSEC
  0
SECTION
  2
TABLES
  0
TABLE
  2
VPORT
  5
7
100
AcDbSymbolTable
 70
         1
  0
VPORT
  5
15
100
AcDbSymbolTableRecord
100
AcDbViewportTableRecord
  2
*ACTIVE
 70
         0
 10
0.0
 20
0.0
 11
1.0
 21
1.0
 12
297.0
 22
210.0
 13
0.0
 23
0.0
 14
1.0
 24
1.0
 15
0.0
 25
0.0
 16
0.0
 26
0.0
 36
1.0
 17
0.0
 27
0.0
 37
0.0
 40
462.5887784689
 41
1.0
 42
50.0
 43
0.0
 44
0.0
 50
0.0
 51
0.0
 71
         0
 72
       100
 73
         1
 74
         1
 75
         0
 76
         0
 77
         0
 78
         0
281
         0
 65
         0
110
0.0
120
0.0
130
0.0
111
1.0
121
0.0
131
0.0
112
0.0
122
1.0
132
0.0
345
0
346
0
 79
         0
146
0.0
  0
ENDTAB
  0
TABLE
  2
LTYPE
  5
4
100
AcDbSymbolTable
 70
        12
  0
LTYPE
  5
11
100
AcDbSymbolTableRecord
100
AcDbLinetypeTableRecord
  2
ByBlock
 70
        64
  3

 72
        65
 73
         0
 40
0.0
  0
LTYPE
  5
12
100
AcDbSymbolTableRecord
100
AcDbLinetypeTableRecord
  2
ByLayer
 70
        64
  3

 72
        65
 73
         0
 40
0.0
  0
LTYPE
  5
13
100
AcDbSymbolTableRecord
100
AcDbLinetypeTableRecord
  2
CONTINUOUS
 70
        64
  3
Solid Line
 72
        65
 73
         0
 40
0.0
  0
LTYPE
  5
24
100
AcDbSymbolTableRecord
100
AcDbLinetypeTableRecord
  2
DOT
 70
        64
  3
. . . . . . . . . . . . . . . . . . . . . . 
 72
        65
 73
         2
 40
0.25
 49
0.0
 74
         0
 49
-0.25
 74
         0
  0
LTYPE
  5
25
100
AcDbSymbolTableRecord
100
AcDbLinetypeTableRecord
  2
HIDDEN
 70
         0
  3
_ _ _ _ _ _ _ _ _ _ _ _ _ _ _ _ _ _ _ _ _ _ _
 72
        65
 73
         2
 40
0.375
 49
0.25
 74
         0
 49
-0.125
 74
         0
  0
LTYPE
  5
26
100
AcDbSymbolTableRecord
100
AcDbLinetypeTableRecord
  2
DASHDOT
 70
         0
  3
__ . __ . __ . __ . __ . __ . __ . __ . __ . __
 72
        65
 73
         4
 40
1.0
 49
0.5
 74
         0
 49
-0.25
 74
         0
 49
0.0
 74
         0
 49
-0.25
 74
         0
  0
LTYPE
  5
27
100
AcDbSymbolTableRecord
100
AcDbLinetypeTableRecord
  2
DIVIDE
 70
         0
  3
__ . . __ . . __ . . __ . . __ . . __ . . __
 72
        65
 73
         6
 40
1.25
 49
0.5
 74
         0
 49
-0.25
 74
         0
 49
0.0
 74
         0
 49
-0.25
 74
         0
 49
0.0
 74
         0
 49
-0.25
 74
         0
  0
LTYPE
  5
28
100
AcDbSymbolTableRecord
100
AcDbLinetypeTableRecord
  2
DASHED
 70
         0
  3
__ __ __ __ __ __ __ __ __ __ __ __ __ __ __
 72
        65
 73
         2
 40
0.75
 49
0.5
 74
         0
 49
-0.25
 74
         0
  0
LTYPE
  5
29
100
AcDbSymbolTableRecord
100
AcDbLinetypeTableRecord
  2
BORDER
 70
         0
  3
__ __ . __ __ . __ __ . __ __ . __ __ .
 72
        65
 73
         6
 40
1.75
 49
0.5
 74
         0
 49
-0.25
 74
         0
 49
0.5
 74
         0
 49
-0.25
 74
         0
 49
0.0
 74
         0
 49
-0.25
 74
         0
  0
LTYPE
  5
2A
100
AcDbSymbolTableRecord
100
AcDbLinetypeTableRecord
  2
CENTER
 70
         0
  3
____ _ ____ _ ____ _ ____ _ ____ _ ____
 72
        65
 73
         4
 40
2.0
 49
1.25
 74
         0
 49
-0.25
 74
         0
 49
0.25
 74
         0
 49
-0.25
 74
         0
  0
LTYPE
  5
2B
100
AcDbSymbolTableRecord
100
AcDbLinetypeTableRecord
  2
DOT2
 70
         0
  3
........................................
 72
        65
 73
         2
 40
0.125
 49
0.0
 74
         0
 49
-0.125
 74
         0
  0
LTYPE
  5
2C
100
AcDbSymbolTableRecord
100
AcDbLinetypeTableRecord
  2
PHANTOM
 70
         0
  3
______  __  __  ______  __  __  ______
 72
        65
 73
         6
 40
2.5
 49
1.25
 74
         0
 49
-0.25
 74
         0
 49
0.25
 74
         0
 49
-0.25
 74
         0
 49
0.25
 74
         0
 49
-0.25
 74
         0
  0
ENDTAB
  0
TABLE
  2
LAYER
  5
2
100
AcDbSymbolTable
 70
       197
  0
LAYER
  5
14
100
AcDbSymbolTableRecord
100
AcDbLayerTableRecord
  2
0
 70
         0
 62
         7
  6
CONTINUOUS
290
         1
370
        -3
390
1D
  0
LAYER
  5
33
100
AcDbSymbolTableRecord
100
AcDbLayerTableRecord
  2
_TEMP
 70
        64
 62
         7
  6
CONTINUOUS
290
         1
370
        50
390
1D
  0
LAYER
  5
34
100
AcDbSymbolTableRecord
100
AcDbLayerTableRecord
  2
BESCHRIFTUNG
 70
        64
 62
         7
  6
CONTINUOUS
290
         1
370
        25
390
1D
  0
LAYER
  5
35
100
AcDbSymbolTableRecord
100
AcDbLayerTableRecord
  2
SCHRAFFUR
 70
        64
 62
         7
  6
CONTINUOUS
290
         1
370
        25
390
1D
  0
LAYER
  5
36
100
AcDbSymbolTableRecord
100
AcDbLayerTableRecord
  2
MASSTEXTE
 70
        64
 62
       212
  6
CONTINUOUS
290
         1
370
        25
390
1D
  0
LAYER
  5
37
100
AcDbSymbolTableRecord
100
AcDbLayerTableRecord
  2
MASSLINIEN
 70
        64
 62
       172
  6
CONTINUOUS
290
         1
370
        25
390
1D
  0
LAYER
  5
38
100
AcDbSymbolTableRecord
100
AcDbLayerTableRecord
  2
MASSGRENZEN
 70
        64
 62
       172
  6
CONTINUOUS
290
         1
370
        25
390
1D
  0
LAYER
  5
39
100
AcDbSymbolTableRecord
100
AcDbLayerTableRecord
  2
TOLERANZEN
 70
        64
 62
       212
  6
CONTINUOUS
290
         1
370
         0
390
1D
  0
LAYER
  5
3A
100
AcDbSymbolTableRecord
100
AcDbLayerTableRecord
  2
BEMASSUNG
 70
        64
 62
         7
  6
CONTINUOUS
290
         1
370
        25
390
1D
  0
LAYER
  5
3B
100
AcDbSymbolTableRecord
100
AcDbLayerTableRecord
  2
HILFSLINIEN
 70
        64
 62
         3
  6
CONTINUOUS
290
         1
370
         0
390
1D
  0
LAYER
  5
3C
100
AcDbSymbolTableRecord
100
AcDbLayerTableRecord
  2
MITTELLINIEN
 70
        64
 62
         5
  6
DASHDOT
290
         1
370
        13
390
1D
  0
LAYER
  5
3D
100
AcDbSymbolTableRecord
100
AcDbLayerTableRecord
  2
BESCHRIFTUNG00
 70
        64
 62
         7
  6
CONTINUOUS
290
         1
370
        25
390
1D
  0
LAYER
  5
3E
100
AcDbSymbolTableRecord
100
AcDbLayerTableRecord
  2
BESCHRIFTUNG0
 70
        64
 62
         7
  6
CONTINUOUS
290
         1
370
        25
390
1D
  0
LAYER
  5
3F
100
AcDbSymbolTableRecord
100
AcDbLayerTableRecord
  2
GEWINDELINIEN
 70
        64
 62
       212
  6
CONTINUOUS
290
         1
370
        25
390
1D
  0
LAYER
  5
40
100
AcDbSymbolTableRecord
100
AcDbLayerTableRecord
  2
UNSICHTBARE
 70
        64
 62
        92
  6
DASHED
290
         1
370
        25
390
1D
  0
LAYER
  5
41
100
AcDbSymbolTableRecord
100
AcDbLayerTableRecord
  2
VERDECKTE
 70
        64
 62
        92
  6
DASHED
290
         1
370
        25
390
1D
  0
LAYER
  5
42
100
AcDbSymbolTableRecord
100
AcDbLayerTableRecord
  2
LICHTKANTEN
 70
        64
 62
         8
  6
CONTINUOUS
290
         1
370
        25
390
1D
  0
LAYER
  5
43
100
AcDbSymbolTableRecord
100
AcDbLayerTableRecord
  2
SCHNITTVERLAUF
 70
        64
 62
        34
  6
DASHDOT
290
         1
370
        70
390
1D
  0
LAYER
  5
44
100
AcDbSymbolTableRecord
100
AcDbLayerTableRecord
  2
KENNZEICHNUNG
 70
        64
 62
         7
  6
CONTINUOUS
290
         1
370
         0
390
1D
  0
LAYER
  5
45
100
AcDbSymbolTableRecord
100
AcDbLayerTableRecord
  2
PFEILE
 70
        64
 62
         7
  6
CONTINUOUS
290
         1
370
        70
390
1D
  0
LAYER
  5
46
100
AcDbSymbolTableRecord
100
AcDbLayerTableRecord
  2
SCHNITTDARSTELLUNG
 70
        64
 62
         7
  6
CONTINUOUS
290
         1
370
         0
390
1D
  0
LAYER
  5
47
100
AcDbSymbolTableRecord
100
AcDbLayerTableRecord
  2
A ROLLE OBEN
 70
        64
 62
        94
  6
CONTINUOUS
290
         1
370
        18
390
1D
  0
LAYER
  5
48
100
AcDbSymbolTableRecord
100
AcDbLayerTableRecord
  2
_K ROLLE
 70
        64
 62
        94
  6
CONTINUOUS
290
         1
370
        18
390
1D
  0
LAYER
  5
49
100
AcDbSymbolTableRecord
100
AcDbLayerTableRecord
  2
A HEBELFALLE OBEN
 70
        64
 62
        30
  6
CONTINUOUS
290
         1
370
        18
390
1D
  0
LAYER
  5
4A
100
AcDbSymbolTableRecord
100
AcDbLayerTableRecord
  2
_D HEBELFALLE
 70
        64
 62
        30
  6
CONTINUOUS
290
         1
370
        18
390
1D
  0
LAYER
  5
4B
100
AcDbSymbolTableRecord
100
AcDbLayerTableRecord
  2
2050_4R
 70
        64
 62
        15
  6
CONTINUOUS
290
         1
370
        13
390
1D
  0
LAYER
  5
4C
100
AcDbSymbolTableRecord
100
AcDbLayerTableRecord
  2
2050_4L
 70
        64
 62
        11
  6
CONTINUOUS
290
         1
370
        13
390
1D
  0
LAYER
  5
4D
100
AcDbSymbolTableRecord
100
AcDbLayerTableRecord
  2
2050_3R
 70
        64
 62
        15
  6
CONTINUOUS
290
         1
370
        13
390
1D
  0
LAYER
  5
4E
100
AcDbSymbolTableRecord
100
AcDbLayerTableRecord
  2
2050_3L
 70
        64
 62
        11
  6
CONTINUOUS
290
         1
370
        13
390
1D
  0
LAYER
  5
4F
100
AcDbSymbolTableRecord
100
AcDbLayerTableRecord
  2
2050_2R
 70
        64
 62
        14
  6
CONTINUOUS
290
         1
370
        13
390
1D
  0
LAYER
  5
50
100
AcDbSymbolTableRecord
100
AcDbLayerTableRecord
  2
2050_2L
 70
        64
 62
        11
  6
CONTINUOUS
290
         1
370
        13
390
1D
  0
LAYER
  5
51
100
AcDbSymbolTableRecord
100
AcDbLayerTableRecord
  2
2050_1R
 70
        64
 62
        15
  6
CONTINUOUS
290
         1
370
        13
390
1D
  0
LAYER
  5
52
100
AcDbSymbolTableRecord
100
AcDbLayerTableRecord
  2
2050_1L
 70
        64
 62
        11
  6
CONTINUOUS
290
         1
370
        13
390
1D
  0
LAYER
  5
53
100
AcDbSymbolTableRecord
100
AcDbLayerTableRecord
  2
2050___ SCHLOSS
 70
        64
 62
       230
  6
CONTINUOUS
290
         1
370
        13
390
1D
  0
LAYER
  5
54
100
AcDbSymbolTableRecord
100
AcDbLayerTableRecord
  2
___ 8901_1P
 70
        64
 62
        54
  6
CONTINUOUS
290
         1
370
        13
390
1D
  0
LAYER
  5
55
100
AcDbSymbolTableRecord
100
AcDbLayerTableRecord
  2
___ 8901_2P
 70
        64
 62
        54
  6
CONTINUOUS
290
         1
370
        13
390
1D
  0
LAYER
  5
56
100
AcDbSymbolTableRecord
100
AcDbLayerTableRecord
  2
___ 8901___
 70
        64
 62
       230
  6
CONTINUOUS
290
         1
370
        13
390
1D
  0
LAYER
  5
57
100
AcDbSymbolTableRecord
100
AcDbLayerTableRecord
  2
2051_3E
 70
        64
 62
        11
  6
CONTINUOUS
290
         1
370
        13
390
1D
  0
LAYER
  5
58
100
AcDbSymbolTableRecord
100
AcDbLayerTableRecord
  2
2051_3D
 70
        64
 62
        11
  6
CONTINUOUS
290
         1
370
        13
390
1D
  0
LAYER
  5
59
100
AcDbSymbolTableRecord
100
AcDbLayerTableRecord
  2
2051_3C
 70
        64
 62
        11
  6
CONTINUOUS
290
         1
370
        13
390
1D
  0
LAYER
  5
5A
100
AcDbSymbolTableRecord
100
AcDbLayerTableRecord
  2
2051_3B
 70
        64
 62
        11
  6
CONTINUOUS
290
         1
370
        13
390
1D
  0
LAYER
  5
5B
100
AcDbSymbolTableRecord
100
AcDbLayerTableRecord
  2
2051_3A
 70
        64
 62
        11
  6
CONTINUOUS
290
         1
370
        13
390
1D
  0
LAYER
  5
5C
100
AcDbSymbolTableRecord
100
AcDbLayerTableRecord
  2
2051_3__
 70
        64
 62
        11
  6
CONTINUOUS
290
         1
370
        13
390
1D
  0
LAYER
  5
5D
100
AcDbSymbolTableRecord
100
AcDbLayerTableRecord
  2
2051_2P
 70
        64
 62
        30
  6
CONTINUOUS
290
         1
370
        13
390
1D
  0
LAYER
  5
5E
100
AcDbSymbolTableRecord
100
AcDbLayerTableRecord
  2
2051_1P
 70
        64
 62
        11
  6
CONTINUOUS
290
         1
370
        13
390
1D
  0
LAYER
  5
5F
100
AcDbSymbolTableRecord
100
AcDbLayerTableRecord
  2
2051_9Q
 70
        64
 62
         7
  6
CONTINUOUS
290
         1
370
         0
390
1D
  0
LAYER
  5
60
100
AcDbSymbolTableRecord
100
AcDbLayerTableRecord
  2
2051_3F
 70
        64
 62
         7
  6
CONTINUOUS
290
         1
370
         0
390
1D
  0
LAYER
  5
61
100
AcDbSymbolTableRecord
100
AcDbLayerTableRecord
  2
2051_3G
 70
        64
 62
         7
  6
CONTINUOUS
290
         1
370
         0
390
1D
  0
LAYER
  5
62
100
AcDbSymbolTableRecord
100
AcDbLayerTableRecord
  2
2051_3H
 70
        64
 62
         7
  6
CONTINUOUS
290
         1
370
         0
390
1D
  0
LAYER
  5
63
100
AcDbSymbolTableRecord
100
AcDbLayerTableRecord
  2
2051_3K
 70
        64
 62
         7
  6
CONTINUOUS
290
         1
370
         0
390
1D
  0
LAYER
  5
64
100
AcDbSymbolTableRecord
100
AcDbLayerTableRecord
  2
2051_3M
 70
        64
 62
         7
  6
CONTINUOUS
290
         1
370
         0
390
1D
  0
LAYER
  5
65
100
AcDbSymbolTableRecord
100
AcDbLayerTableRecord
  2
2051_3P
 70
        64
 62
         7
  6
CONTINUOUS
290
         1
370
         0
390
1D
  0
LAYER
  5
66
100
AcDbSymbolTableRecord
100
AcDbLayerTableRecord
  2
2051_3Q
 70
        64
 62
         7
  6
CONTINUOUS
290
         1
370
         0
390
1D
  0
LAYER
  5
67
100
AcDbSymbolTableRecord
100
AcDbLayerTableRecord
  2
2051_3R
 70
        64
 62
         7
  6
CONTINUOUS
290
         1
370
         0
390
1D
  0
LAYER
  5
68
100
AcDbSymbolTableRecord
100
AcDbLayerTableRecord
  2
2051_3T
 70
        64
 62
         7
  6
CONTINUOUS
290
         1
370
         0
390
1D
  0
LAYER
  5
69
100
AcDbSymbolTableRecord
100
AcDbLayerTableRecord
  2
2051_3U
 70
        64
 62
         7
  6
CONTINUOUS
290
         1
370
         0
390
1D
  0
LAYER
  5
6A
100
AcDbSymbolTableRecord
100
AcDbLayerTableRecord
  2
2051_3V
 70
        64
 62
         7
  6
CONTINUOUS
290
         1
370
         0
390
1D
  0
LAYER
  5
6B
100
AcDbSymbolTableRecord
100
AcDbLayerTableRecord
  2
2051_3W
 70
        64
 62
         7
  6
CONTINUOUS
290
         1
370
         0
390
1D
  0
LAYER
  5
6C
100
AcDbSymbolTableRecord
100
AcDbLayerTableRecord
  2
2051_3X
 70
        64
 62
         7
  6
CONTINUOUS
290
         1
370
         0
390
1D
  0
LAYER
  5
6D
100
AcDbSymbolTableRecord
100
AcDbLayerTableRecord
  2
2051___ SCHLÜSSEL
 70
        64
 62
       230
  6
CONTINUOUS
290
         1
370
        13
390
1D
  0
LAYER
  5
6E
100
AcDbSymbolTableRecord
100
AcDbLayerTableRecord
  2
2913_2P
 70
        64
 62
       230
  6
CONTINUOUS
290
         1
370
        18
390
1D
  0
LAYER
  5
6F
100
AcDbSymbolTableRecord
100
AcDbLayerTableRecord
  2
2913_1P
 70
        64
 62
       230
  6
CONTINUOUS
290
         1
370
         0
390
1D
  0
LAYER
  5
70
100
AcDbSymbolTableRecord
100
AcDbLayerTableRecord
  2
2913_4P
 70
        64
 62
       230
  6
CONTINUOUS
290
         1
370
         0
390
1D
  0
LAYER
  5
71
100
AcDbSymbolTableRecord
100
AcDbLayerTableRecord
  2
2913___ AUFSPANNANSCHLÄGE
 70
        64
 62
       230
  6
CONTINUOUS
290
         1
370
        13
390
1D
  0
LAYER
  5
72
100
AcDbSymbolTableRecord
100
AcDbLayerTableRecord
  2
8001_1L
 70
        64
 62
         7
  6
CONTINUOUS
290
         1
370
         0
390
1D
  0
LAYER
  5
73
100
AcDbSymbolTableRecord
100
AcDbLayerTableRecord
  2
8001_2R
 70
        64
 62
         7
  6
CONTINUOUS
290
         1
370
         0
390
1D
  0
LAYER
  5
74
100
AcDbSymbolTableRecord
100
AcDbLayerTableRecord
  2
8001___ DEMOPROJEKT A_C-ABHÄNGIGKEIT
 70
        64
 62
       230
  6
CONTINUOUS
290
         1
370
        13
390
1D
  0
LAYER
  5
75
100
AcDbSymbolTableRecord
100
AcDbLayerTableRecord
  2
1084___
 70
        64
 62
       230
  6
CONTINUOUS
290
         1
370
        13
390
1D
  0
LAYER
  5
76
100
AcDbSymbolTableRecord
100
AcDbLayerTableRecord
  2
8002_1L
 70
        64
 62
         7
  6
DASHDOT
290
         1
370
         0
390
1D
  0
LAYER
  5
77
100
AcDbSymbolTableRecord
100
AcDbLayerTableRecord
  2
8002_2R
 70
        64
 62
         7
  6
DASHDOT
290
         1
370
         0
390
1D
  0
LAYER
  5
78
100
AcDbSymbolTableRecord
100
AcDbLayerTableRecord
  2
8002___ DEMOPROJEKT EINZELSCHLOSS
 70
        64
 62
       230
  6
CONTINUOUS
290
         1
370
        13
390
1D
  0
LAYER
  5
79
100
AcDbSymbolTableRecord
100
AcDbLayerTableRecord
  2
2914_1P
 70
        64
 62
       134
  6
CONTINUOUS
290
         1
370
         0
390
1D
  0
LAYER
  5
7A
100
AcDbSymbolTableRecord
100
AcDbLayerTableRecord
  2
2914___ NULLANSCHLÄGE
 70
        64
 62
       230
  6
CONTINUOUS
290
         1
370
        13
390
1D
  0
LAYER
  5
7B
100
AcDbSymbolTableRecord
100
AcDbLayerTableRecord
  2
2052_1L
 70
        64
 62
        30
  6
CONTINUOUS
290
         1
370
        13
390
1D
  0
LAYER
  5
7C
100
AcDbSymbolTableRecord
100
AcDbLayerTableRecord
  2
2052_3L
 70
        64
 62
        30
  6
CONTINUOUS
290
         1
370
        13
390
1D
  0
LAYER
  5
7D
100
AcDbSymbolTableRecord
100
AcDbLayerTableRecord
  2
2052_4L
 70
        64
 62
        30
  6
CONTINUOUS
290
         1
370
        13
390
1D
  0
LAYER
  5
7E
100
AcDbSymbolTableRecord
100
AcDbLayerTableRecord
  2
2052_2L
 70
        64
 62
        30
  6
CONTINUOUS
290
         1
370
        13
390
1D
  0
LAYER
  5
7F
100
AcDbSymbolTableRecord
100
AcDbLayerTableRecord
  2
2052_7L~A
 70
        64
 62
         5
  6
CONTINUOUS
290
         1
370
        13
390
1D
  0
LAYER
  5
80
100
AcDbSymbolTableRecord
100
AcDbLayerTableRecord
  2
2052_7L
 70
        64
 62
        30
  6
CONTINUOUS
290
         1
370
        13
390
1D
  0
LAYER
  5
81
100
AcDbSymbolTableRecord
100
AcDbLayerTableRecord
  2
2052___ SCHLOSS MIT DORN L
 70
        64
 62
       230
  6
CONTINUOUS
290
         1
370
        13
390
1D
  0
LAYER
  5
82
100
AcDbSymbolTableRecord
100
AcDbLayerTableRecord
  2
2053_1P
 70
        64
 62
        11
  6
CONTINUOUS
290
         1
370
        13
390
1D
  0
LAYER
  5
83
100
AcDbSymbolTableRecord
100
AcDbLayerTableRecord
  2
2053_2P
 70
        64
 62
        11
  6
CONTINUOUS
290
         1
370
        13
390
1D
  0
LAYER
  5
84
100
AcDbSymbolTableRecord
100
AcDbLayerTableRecord
  2
2053_3A
 70
        64
 62
        11
  6
CONTINUOUS
290
         1
370
        13
390
1D
  0
LAYER
  5
85
100
AcDbSymbolTableRecord
100
AcDbLayerTableRecord
  2
2053_3B
 70
        64
 62
        11
  6
CONTINUOUS
290
         1
370
        13
390
1D
  0
LAYER
  5
86
100
AcDbSymbolTableRecord
100
AcDbLayerTableRecord
  2
2053_3C
 70
        64
 62
        11
  6
CONTINUOUS
290
         1
370
        13
390
1D
  0
LAYER
  5
87
100
AcDbSymbolTableRecord
100
AcDbLayerTableRecord
  2
2053_3D
 70
        64
 62
        11
  6
CONTINUOUS
290
         1
370
        13
390
1D
  0
LAYER
  5
88
100
AcDbSymbolTableRecord
100
AcDbLayerTableRecord
  2
2053_3E
 70
        64
 62
        11
  6
CONTINUOUS
290
         1
370
        13
390
1D
  0
LAYER
  5
89
100
AcDbSymbolTableRecord
100
AcDbLayerTableRecord
  2
2053_3F
 70
        64
 62
        30
  6
CONTINUOUS
290
         1
370
        13
390
1D
  0
LAYER
  5
8A
100
AcDbSymbolTableRecord
100
AcDbLayerTableRecord
  2
2053_3G
 70
        64
 62
        30
  6
CONTINUOUS
290
         1
370
        13
390
1D
  0
LAYER
  5
8B
100
AcDbSymbolTableRecord
100
AcDbLayerTableRecord
  2
2053_3H
 70
        64
 62
        30
  6
CONTINUOUS
290
         1
370
        13
390
1D
  0
LAYER
  5
8C
100
AcDbSymbolTableRecord
100
AcDbLayerTableRecord
  2
2053_3M
 70
        64
 62
        30
  6
CONTINUOUS
290
         1
370
        13
390
1D
  0
LAYER
  5
8D
100
AcDbSymbolTableRecord
100
AcDbLayerTableRecord
  2
2053_3P
 70
        64
 62
        30
  6
CONTINUOUS
290
         1
370
        13
390
1D
  0
LAYER
  5
8E
100
AcDbSymbolTableRecord
100
AcDbLayerTableRecord
  2
2053_3Q
 70
        64
 62
        30
  6
CONTINUOUS
290
         1
370
        13
390
1D
  0
LAYER
  5
8F
100
AcDbSymbolTableRecord
100
AcDbLayerTableRecord
  2
2053_3R
 70
        64
 62
        30
  6
CONTINUOUS
290
         1
370
        13
390
1D
  0
LAYER
  5
90
100
AcDbSymbolTableRecord
100
AcDbLayerTableRecord
  2
2053_3T
 70
        64
 62
        30
  6
CONTINUOUS
290
         1
370
        13
390
1D
  0
LAYER
  5
91
100
AcDbSymbolTableRecord
100
AcDbLayerTableRecord
  2
2053_3U
 70
        64
 62
        30
  6
CONTINUOUS
290
         1
370
        13
390
1D
  0
LAYER
  5
92
100
AcDbSymbolTableRecord
100
AcDbLayerTableRecord
  2
2053_3V
 70
        64
 62
        30
  6
CONTINUOUS
290
         1
370
        13
390
1D
  0
LAYER
  5
93
100
AcDbSymbolTableRecord
100
AcDbLayerTableRecord
  2
2053_3W
 70
        64
 62
        30
  6
CONTINUOUS
290
         1
370
        13
390
1D
  0
LAYER
  5
94
100
AcDbSymbolTableRecord
100
AcDbLayerTableRecord
  2
2053_3X
 70
        64
 62
        30
  6
CONTINUOUS
290
         1
370
        13
390
1D
  0
LAYER
  5
95
100
AcDbSymbolTableRecord
100
AcDbLayerTableRecord
  2
2053_3K
 70
        64
 62
        30
  6
CONTINUOUS
290
         1
370
        13
390
1D
  0
LAYER
  5
96
100
AcDbSymbolTableRecord
100
AcDbLayerTableRecord
  2
2053_12P
 70
        64
 62
        11
  6
CONTINUOUS
290
         1
370
        13
390
1D
  0
LAYER
  5
97
100
AcDbSymbolTableRecord
100
AcDbLayerTableRecord
  2
2053_13P
 70
        64
 62
        30
  6
CONTINUOUS
290
         1
370
        13
390
1D
  0
LAYER
  5
98
100
AcDbSymbolTableRecord
100
AcDbLayerTableRecord
  2
2053_5P
 70
        64
 62
        11
  6
CONTINUOUS
290
         1
370
        13
390
1D
  0
LAYER
  5
99
100
AcDbSymbolTableRecord
100
AcDbLayerTableRecord
  2
2053___ SCHLÜSSEL MIT DORN
 70
        64
 62
       230
  6
CONTINUOUS
290
         1
370
        13
390
1D
  0
LAYER
  5
9A
100
AcDbSymbolTableRecord
100
AcDbLayerTableRecord
  2
2600_1P
 70
        64
 62
        30
  6
CONTINUOUS
290
         1
370
        13
390
1D
  0
LAYER
  5
9B
100
AcDbSymbolTableRecord
100
AcDbLayerTableRecord
  2
2600___ WEICHENBOCK
 70
        64
 62
       230
  6
CONTINUOUS
290
         1
370
        13
390
1D
  0
LAYER
  5
9C
100
AcDbSymbolTableRecord
100
AcDbLayerTableRecord
  2
2601_1U
 70
        64
 62
        11
  6
CONTINUOUS
290
         1
370
        13
390
1D
  0
LAYER
  5
9D
100
AcDbSymbolTableRecord
100
AcDbLayerTableRecord
  2
2601_1O
 70
        64
 62
        34
  6
CONTINUOUS
290
         1
370
        13
390
1D
  0
LAYER
  5
9E
100
AcDbSymbolTableRecord
100
AcDbLayerTableRecord
  2
2601___ SBW-GSP
 70
        64
 62
       230
  6
CONTINUOUS
290
         1
370
        13
390
1D
  0
LAYER
  5
9F
100
AcDbSymbolTableRecord
100
AcDbLayerTableRecord
  2
8003_1O
 70
        64
 62
         7
  6
CONTINUOUS
290
         1
370
         0
390
1D
  0
LAYER
  5
A0
100
AcDbSymbolTableRecord
100
AcDbLayerTableRecord
  2
8003_2U
 70
        64
 62
         7
  6
CONTINUOUS
290
         1
370
         0
390
1D
  0
LAYER
  5
A1
100
AcDbSymbolTableRecord
100
AcDbLayerTableRecord
  2
8003___ __
 70
        64
 62
         7
  6
CONTINUOUS
290
         1
370
         0
390
1D
  0
LAYER
  5
A2
100
AcDbSymbolTableRecord
100
AcDbLayerTableRecord
  2
2915_1P
 70
        64
 62
       234
  6
CONTINUOUS
290
         1
370
         0
390
1D
  0
LAYER
  5
A3
100
AcDbSymbolTableRecord
100
AcDbLayerTableRecord
  2
2915___ AUFSPANNPLATTE ABRICHTEN
 70
        64
 62
       230
  6
CONTINUOUS
290
         1
370
        13
390
1D
  0
LAYER
  5
A4
100
AcDbSymbolTableRecord
100
AcDbLayerTableRecord
  2
2010_1P
 70
        64
 62
       230
  6
CONTINUOUS
290
         1
370
         0
390
1D
  0
LAYER
  5
A5
100
AcDbSymbolTableRecord
100
AcDbLayerTableRecord
  2
2010_2P
 70
        64
 62
       230
  6
CONTINUOUS
290
         1
370
         0
390
1D
  0
LAYER
  5
A6
100
AcDbSymbolTableRecord
100
AcDbLayerTableRecord
  2
2010_3P
 70
        64
 62
       230
  6
CONTINUOUS
290
         1
370
         0
390
1D
  0
LAYER
  5
A7
100
AcDbSymbolTableRecord
100
AcDbLayerTableRecord
  2
2010_4P
 70
        64
 62
       230
  6
CONTINUOUS
290
         1
370
         0
390
1D
  0
LAYER
  5
A8
100
AcDbSymbolTableRecord
100
AcDbLayerTableRecord
  2
2010_5P
 70
        64
 62
       230
  6
CONTINUOUS
290
         1
370
         0
390
1D
  0
LAYER
  5
A9
100
AcDbSymbolTableRecord
100
AcDbLayerTableRecord
  2
2010___ STANDARDKONSTRUKTIONEN
 70
        64
 62
       230
  6
CONTINUOUS
290
         1
370
        13
390
1D
  0
LAYER
  5
AA
100
AcDbSymbolTableRecord
100
AcDbLayerTableRecord
  2
8910_1P
 70
        64
 62
        30
  6
CONTINUOUS
290
         1
370
         0
390
1D
  0
LAYER
  5
AB
100
AcDbSymbolTableRecord
100
AcDbLayerTableRecord
  2
8910_2P
 70
        64
 62
        30
  6
CONTINUOUS
290
         1
370
         0
390
1D
  0
LAYER
  5
AC
100
AcDbSymbolTableRecord
100
AcDbLayerTableRecord
  2
8910_3P
 70
        64
 62
        30
  6
CONTINUOUS
290
         1
370
         0
390
1D
  0
LAYER
  5
AD
100
AcDbSymbolTableRecord
100
AcDbLayerTableRecord
  2
8910_4P
 70
        64
 62
        30
  6
CONTINUOUS
290
         1
370
         0
390
1D
  0
LAYER
  5
AE
100
AcDbSymbolTableRecord
100
AcDbLayerTableRecord
  2
8910_5P
 70
        64
 62
        30
  6
CONTINUOUS
290
         1
370
         0
390
1D
  0
LAYER
  5
AF
100
AcDbSymbolTableRecord
100
AcDbLayerTableRecord
  2
8910___ SCHLITZE 3X___
 70
        64
 62
         7
  6
CONTINUOUS
290
         1
370
         0
390
1D
  0
LAYER
  5
B0
100
AcDbSymbolTableRecord
100
AcDbLayerTableRecord
  2
2052_1R
 70
        64
 62
        34
  6
CONTINUOUS
290
         1
370
        13
390
1D
  0
LAYER
  5
B1
100
AcDbSymbolTableRecord
100
AcDbLayerTableRecord
  2
2052_2R~A
 70
        64
 62
         5
  6
CONTINUOUS
290
         1
370
        13
390
1D
  0
LAYER
  5
B2
100
AcDbSymbolTableRecord
100
AcDbLayerTableRecord
  2
2052_2R
 70
        64
 62
        34
  6
CONTINUOUS
290
         1
370
        13
390
1D
  0
LAYER
  5
B3
100
AcDbSymbolTableRecord
100
AcDbLayerTableRecord
  2
2052_3R
 70
        64
 62
        34
  6
CONTINUOUS
290
         1
370
        13
390
1D
  0
LAYER
  5
B4
100
AcDbSymbolTableRecord
100
AcDbLayerTableRecord
  2
2052_4R
 70
        64
 62
        34
  6
CONTINUOUS
290
         1
370
        13
390
1D
  0
LAYER
  5
B5
100
AcDbSymbolTableRecord
100
AcDbLayerTableRecord
  2
2052___ SCHLOSS MIT DORN R
 70
        64
 62
       230
  6
CONTINUOUS
290
         1
370
        13
390
1D
  0
LAYER
  5
B6
100
AcDbSymbolTableRecord
100
AcDbLayerTableRecord
  2
8004_1L
 70
        64
 62
       230
  6
CONTINUOUS
290
         1
370
        13
390
1D
  0
LAYER
  5
B7
100
AcDbSymbolTableRecord
100
AcDbLayerTableRecord
  2
8004_2R
 70
        64
 62
       230
  6
CONTINUOUS
290
         1
370
        13
390
1D
  0
LAYER
  5
B8
100
AcDbSymbolTableRecord
100
AcDbLayerTableRecord
  2
8004___ 2 SCHLÖSSER 2052_2053 D
 70
        64
 62
         7
  6
CONTINUOUS
290
         1
370
         0
390
1D
  0
LAYER
  5
B9
100
AcDbSymbolTableRecord
100
AcDbLayerTableRecord
  2
2916_1P
 70
        64
 62
       230
  6
CONTINUOUS
290
         1
370
         0
390
1D
  0
LAYER
  5
BA
100
AcDbSymbolTableRecord
100
AcDbLayerTableRecord
  2
2916___ XY-NULLPUNKT-RING
 70
        64
 62
         7
  6
CONTINUOUS
290
         1
370
         0
390
1D
  0
LAYER
  5
BB
100
AcDbSymbolTableRecord
100
AcDbLayerTableRecord
  2
8005_1L
 70
        64
 62
        30
  6
CONTINUOUS
290
         1
370
        18
390
1D
  0
LAYER
  5
BC
100
AcDbSymbolTableRecord
100
AcDbLayerTableRecord
  2
8005___ 3 SCHLOSSBLECHE
 70
        64
 62
         7
  6
CONTINUOUS
290
         1
370
         0
390
1D
  0
LAYER
  5
BD
100
AcDbSymbolTableRecord
100
AcDbLayerTableRecord
  2
8006_1L
 70
        64
 62
        14
  6
HIDDEN
290
         1
370
         0
390
1D
  0
LAYER
  5
BE
100
AcDbSymbolTableRecord
100
AcDbLayerTableRecord
  2
8006_2R
 70
        64
 62
        14
  6
HIDDEN
290
         1
370
         0
390
1D
  0
LAYER
  5
BF
100
AcDbSymbolTableRecord
100
AcDbLayerTableRecord
  2
8006_3L
 70
        64
 62
        14
  6
HIDDEN
290
         1
370
         0
390
1D
  0
LAYER
  5
C0
100
AcDbSymbolTableRecord
100
AcDbLayerTableRecord
  2
8006_4R
 70
        64
 62
        14
  6
HIDDEN
290
         1
370
         0
390
1D
  0
LAYER
  5
C1
100
AcDbSymbolTableRecord
100
AcDbLayerTableRecord
  2
8006___
 70
        64
 62
         7
  6
CONTINUOUS
290
         1
370
         0
390
1D
  0
LAYER
  5
C2
100
AcDbSymbolTableRecord
100
AcDbLayerTableRecord
  2
8990_1P
 70
        64
 62
        30
  6
HIDDEN
290
         1
370
         0
390
1D
  0
LAYER
  5
C3
100
AcDbSymbolTableRecord
100
AcDbLayerTableRecord
  2
8990___
 70
        64
 62
         7
  6
CONTINUOUS
290
         1
370
         0
390
1D
  0
LAYER
  5
C4
100
AcDbSymbolTableRecord
100
AcDbLayerTableRecord
  2
8991_1P
 70
        64
 62
        94
  6
CONTINUOUS
290
         1
370
         0
390
1D
  0
LAYER
  5
C5
100
AcDbSymbolTableRecord
100
AcDbLayerTableRecord
  2
8991___
 70
        64
 62
         7
  6
CONTINUOUS
290
         1
370
         0
390
1D
  0
LAYER
  5
C6
100
AcDbSymbolTableRecord
100
AcDbLayerTableRecord
  2
8008_1P
 70
        64
 62
        30
  6
CONTINUOUS
290
         1
370
        18
390
1D
  0
LAYER
  5
C7
100
AcDbSymbolTableRecord
100
AcDbLayerTableRecord
  2
8008___ 10 SCHLOSSSCHILDER
 70
        64
 62
         7
  6
CONTINUOUS
290
         1
370
         0
390
1D
  0
LAYER
  5
C8
100
AcDbSymbolTableRecord
100
AcDbLayerTableRecord
  2
PFADE
 70
        64
 62
        30
  6
CONTINUOUS
290
         1
370
        13
390
1D
  0
LAYER
  5
C9
100
AcDbSymbolTableRecord
100
AcDbLayerTableRecord
  2
2050_5_6 BESATZUNG
 70
        64
 62
         8
  6
CONTINUOUS
290
         1
370
        18
390
1D
  0
LAYER
  5
CA
100
AcDbSymbolTableRecord
100
AcDbLayerTableRecord
  2
2050_1_2 GEHÄUSE
 70
        64
 62
         7
  6
CONTINUOUS
290
         1
370
        18
390
1D
  0
LAYER
  5
CB
100
AcDbSymbolTableRecord
100
AcDbLayerTableRecord
  2
2050_3 RIEGEL UMGESPERRT
 70
        64
 62
       230
  6
DASHED
290
         1
370
        18
390
1D
  0
LAYER
  5
CC
100
AcDbSymbolTableRecord
100
AcDbLayerTableRecord
  2
2050_3 RIEGEL
 70
        64
 62
       230
  6
CONTINUOUS
290
         1
370
        18
390
1D
  0
LAYER
  5
CD
100
AcDbSymbolTableRecord
100
AcDbLayerTableRecord
  2
2050_4 ZUHALTUNG ANGEHOBEN
 70
        64
 62
        94
  6
HIDDEN
290
         1
370
        18
390
1D
  0
LAYER
  5
CE
100
AcDbSymbolTableRecord
100
AcDbLayerTableRecord
  2
2050_4 ZUHALTUNG
 70
        64
 62
        94
  6
CONTINUOUS
290
         1
370
        18
390
1D
  0
LAYER
  5
CF
100
AcDbSymbolTableRecord
100
AcDbLayerTableRecord
  2
2050__ SCHLOSS
 70
        64
 62
         7
  6
CONTINUOUS
290
         1
370
         0
390
1D
  0
LAYER
  5
D0
100
AcDbSymbolTableRecord
100
AcDbLayerTableRecord
  2
2913_2 AUFSPANNANSCHLAG
 70
        64
 62
         6
  6
CONTINUOUS
290
         1
370
        18
390
1D
  0
LAYER
  5
D1
100
AcDbSymbolTableRecord
100
AcDbLayerTableRecord
  2
2913_3 AUFSPANNANSCHLAGWINKEL
 70
        64
 62
       214
  6
CONTINUOUS
290
         1
370
        18
390
1D
  0
LAYER
  5
D2
100
AcDbSymbolTableRecord
100
AcDbLayerTableRecord
  2
2913_1 AUFSPANNPLATTE
 70
        64
 62
         7
  6
CONTINUOUS
290
         1
370
        18
390
1D
  0
LAYER
  5
D3
100
AcDbSymbolTableRecord
100
AcDbLayerTableRecord
  2
2913_9 HALBZEUGE
 70
        64
 62
        30
  6
CONTINUOUS
290
         1
370
        18
390
1D
  0
LAYER
  5
D4
100
AcDbSymbolTableRecord
100
AcDbLayerTableRecord
  2
2913_4 NULLANSCHLÄGE
 70
        64
 62
       230
  6
CONTINUOUS
290
         1
370
         0
390
1D
  0
LAYER
  5
D5
100
AcDbSymbolTableRecord
100
AcDbLayerTableRecord
  2
2913_5 NULLPFADE
 70
        64
 62
        94
  6
CONTINUOUS
290
         1
370
         0
390
1D
  0
LAYER
  5
D6
100
AcDbSymbolTableRecord
100
AcDbLayerTableRecord
  2
2913__ FRÄSE - AUFSPANNPLATTE
 70
        64
 62
         7
  6
CONTINUOUS
290
         1
370
        18
390
1D
  0
LAYER
  5
D7
100
AcDbSymbolTableRecord
100
AcDbLayerTableRecord
  2
2051_1-4 SCHLÜSSEL
 70
        64
 62
       190
  6
CONTINUOUS
290
         1
370
        18
390
1D
  0
LAYER
  5
D8
100
AcDbSymbolTableRecord
100
AcDbLayerTableRecord
  2
2051__ SCHLÜSSEL
 70
        64
 62
         7
  6
CONTINUOUS
290
         1
370
         0
390
1D
  0
LAYER
  5
D9
100
AcDbSymbolTableRecord
100
AcDbLayerTableRecord
  2
2910__  PATHDXF2GCODE-PARAMS
 70
        64
 62
         7
  6
CONTINUOUS
290
         1
370
         0
390
1D
  0
LAYER
  5
DA
100
AcDbSymbolTableRecord
100
AcDbLayerTableRecord
  2
___ 2913_1 AUFSPANNPLATTE0
 70
        64
 62
         7
  6
CONTINUOUS
290
         1
370
        18
390
1D
  0
LAYER
  5
DB
100
AcDbSymbolTableRecord
100
AcDbLayerTableRecord
  2
2913__
 70
        64
 62
         7
  6
CONTINUOUS
290
         1
370
        18
390
1D
  0
LAYER
  5
DC
100
AcDbSymbolTableRecord
100
AcDbLayerTableRecord
  2
2052_1_2_7_8 GEHÄUSE
 70
        64
 62
         7
  6
CONTINUOUS
290
         1
370
        18
390
1D
  0
LAYER
  5
DD
100
AcDbSymbolTableRecord
100
AcDbLayerTableRecord
  2
2052_3 RIEGEL UMGESPERRT
 70
        64
 62
       230
  6
DASHED
290
         1
370
        18
390
1D
  0
LAYER
  5
DE
100
AcDbSymbolTableRecord
100
AcDbLayerTableRecord
  2
2052_3 RIEGEL
 70
        64
 62
       230
  6
CONTINUOUS
290
         1
370
        18
390
1D
  0
LAYER
  5
DF
100
AcDbSymbolTableRecord
100
AcDbLayerTableRecord
  2
2052_4 ZUHALTUNG ANGEHOBEN
 70
        64
 62
        94
  6
DASHED
290
         1
370
        18
390
1D
  0
LAYER
  5
E0
100
AcDbSymbolTableRecord
100
AcDbLayerTableRecord
  2
2052_4 ZUHALTUNG
 70
        64
 62
        94
  6
CONTINUOUS
290
         1
370
        18
390
1D
  0
LAYER
  5
E1
100
AcDbSymbolTableRecord
100
AcDbLayerTableRecord
  2
2052_5_6 BESATZUNG
 70
        64
 62
         8
  6
CONTINUOUS
290
         1
370
        18
390
1D
  0
LAYER
  5
E2
100
AcDbSymbolTableRecord
100
AcDbLayerTableRecord
  2
2052__ SCHLOSS MIT DORN
 70
        64
 62
         7
  6
CONTINUOUS
290
         1
370
         0
390
1D
  0
LAYER
  5
E3
100
AcDbSymbolTableRecord
100
AcDbLayerTableRecord
  2
2053_1-4 SCHLÜSSEL
 70
        64
 62
       190
  6
CONTINUOUS
290
         1
370
        18
390
1D
  0
LAYER
  5
E4
100
AcDbSymbolTableRecord
100
AcDbLayerTableRecord
  2
2053_5 SCHILD
 70
        64
 62
        54
  6
CONTINUOUS
290
         1
370
        18
390
1D
  0
LAYER
  5
E5
100
AcDbSymbolTableRecord
100
AcDbLayerTableRecord
  2
2053__ SCHLÜSSEL
 70
        64
 62
         7
  6
CONTINUOUS
290
         1
370
         0
390
1D
  0
LAYER
  5
E6
100
AcDbSymbolTableRecord
100
AcDbLayerTableRecord
  2
2600__
 70
        64
 62
         7
  6
CONTINUOUS
290
         1
370
         0
390
1D
  0
LAYER
  5
E7
100
AcDbSymbolTableRecord
100
AcDbLayerTableRecord
  2
SPERRSCHUHANTRIEB
 70
        64
 62
         5
  6
CONTINUOUS
290
         1
370
         0
390
1D
  0
LAYER
  5
E8
100
AcDbSymbolTableRecord
100
AcDbLayerTableRecord
  2
SPERRSCHUH ABGELEGT
 70
        64
 62
         7
  6
DASHED
290
         1
370
         0
390
1D
  0
LAYER
  5
E9
100
AcDbSymbolTableRecord
100
AcDbLayerTableRecord
  2
SPERRSCHUH
 70
        64
 62
         7
  6
CONTINUOUS
290
         1
370
         0
390
1D
  0
LAYER
  5
EA
100
AcDbSymbolTableRecord
100
AcDbLayerTableRecord
  2
SPERRSCHUHRAHMEN
 70
        64
 62
        94
  6
CONTINUOUS
290
         1
370
         0
390
1D
  0
LAYER
  5
EB
100
AcDbSymbolTableRecord
100
AcDbLayerTableRecord
  2
GLEIS
 70
        64
 62
        34
  6
CONTINUOUS
290
         1
370
         0
390
1D
  0
LAYER
  5
EC
100
AcDbSymbolTableRecord
100
AcDbLayerTableRecord
  2
2601__
 70
        64
 62
         7
  6
CONTINUOUS
290
         1
370
         0
390
1D
  0
LAYER
  5
ED
100
AcDbSymbolTableRecord
100
AcDbLayerTableRecord
  2
2918__ HALBZEUGLAGER
 70
        64
 62
         7
  6
CONTINUOUS
290
         1
370
         0
390
1D
  0
LAYER
  5
EE
100
AcDbSymbolTableRecord
100
AcDbLayerTableRecord
  2
2916__ XY-NULLPUNKT-RING
 70
        64
 62
         7
  6
CONTINUOUS
290
         1
370
         0
390
1D
  0
LAYER
  5
EF
100
AcDbSymbolTableRecord
100
AcDbLayerTableRecord
  2
NEUE_FOLIE0
 70
        64
 62
         7
  6
CONTINUOUS
290
         1
370
         0
390
1D
  0
LAYER
  5
F0
100
AcDbSymbolTableRecord
100
AcDbLayerTableRecord
  2
2919__ FRÄSE - MITTENAUFSPANNUNG
 70
        64
 62
         7
  6
CONTINUOUS
290
         1
370
         0
390
1D
  0
LAYER
  5
F1
100
AcDbSymbolTableRecord
100
AcDbLayerTableRecord
  2
KONSTRUKTION
 70
        64
 62
         7
  6
CONTINUOUS
290
         1
370
         0
390
1D
  0
LAYER
  5
F2
100
AcDbSymbolTableRecord
100
AcDbLayerTableRecord
  2
GEOMETRIE
 70
        64
 62
         7
  6
CONTINUOUS
290
         1
370
         0
390
1D
  0
LAYER
  5
F3
100
AcDbSymbolTableRecord
100
AcDbLayerTableRecord
  2
_S SCHILD
 70
        64
 62
       171
  6
CONTINUOUS
290
         1
370
         0
390
1D
  0
LAYER
  5
F4
100
AcDbSymbolTableRecord
100
AcDbLayerTableRecord
  2
_A RAHMEN
 70
        64
 62
         7
  6
CONTINUOUS
290
         1
370
         0
390
1D
  0
LAYER
  5
F5
100
AcDbSymbolTableRecord
100
AcDbLayerTableRecord
  2
_B STÄNDER
 70
        64
 62
         7
  6
CONTINUOUS
290
         1
370
        18
390
1D
  0
LAYER
  5
F6
100
AcDbSymbolTableRecord
100
AcDbLayerTableRecord
  2
STANDARD
 70
        64
 62
         7
  6
CONTINUOUS
290
         1
370
         0
390
1D
  0
ENDTAB
  0
TABLE
  2
STYLE
  5
3
100
AcDbSymbolTable
 70
         7
  0
STYLE
  5
17
100
AcDbSymbolTableRecord
100
AcDbTextStyleTableRecord
  2
Standard
 70
         0
 40
0.0
 41
1.0
 50
0.0
 71
         0
 42
0.0
  3
txt
  4

  0
STYLE
  5
2D
100
AcDbSymbolTableRecord
100
AcDbTextStyleTableRecord
  2
CADdy
 70
         0
 40
0.0
 41
1.0
 50
0.0
 71
         0
 42
3.5
  3
txt.shx
  4

  0
STYLE
  5
2E
100
AcDbSymbolTableRecord
100
AcDbTextStyleTableRecord
  2
Arial
 70
         0
 40
0.0
 41
1.0
 50
0.0
 71
         0
 42
3.5
  3
arial.ttf
  4

1001
ACAD
1000
Arial
1071
       34
  0
STYLE
  5
2F
100
AcDbSymbolTableRecord
100
AcDbTextStyleTableRecord
  2
Isonorm
 70
         0
 40
0.0
 41
1.0
 50
0.0
 71
         0
 42
3.5
  3
txt.shx
  4

  0
STYLE
  5
30
100
AcDbSymbolTableRecord
100
AcDbTextStyleTableRecord
  2
Tahoma
 70
         0
 40
0.0
 41
1.0
 50
0.0
 71
         0
 42
3.5
  3
tahoma.ttf
  4

1001
ACAD
1000
Tahoma
1071
       34
  0
STYLE
  5
31
100
AcDbSymbolTableRecord
100
AcDbTextStyleTableRecord
  2
Microsoft Sans Serif
 70
         0
 40
0.0
 41
1.0
 50
0.0
 71
         0
 42
3.5
  3
micross.ttf
  4

1001
ACAD
1000
Microsoft Sans Serif
1071
       34
  0
STYLE
  5
32
100
AcDbSymbolTableRecord
100
AcDbTextStyleTableRecord
  2
Arial Rounded MT Bold
 70
         0
 40
0.0
 41
1.0
 50
0.0
 71
         0
 42
3.5
  3
txt.shx
  4

  0
ENDTAB
  0
TABLE
  2
VIEW
  5
5
100
AcDbSymbolTable
 70
         0
  0
ENDTAB
  0
TABLE
  2
UCS
  5
6
100
AcDbSymbolTable
 70
         0
  0
ENDTAB
  0
TABLE
  2
APPID
  5
8
100
AcDbSymbolTable
 70
         1
  0
APPID
  5
16
100
AcDbSymbolTableRecord
100
AcDbRegAppTableRecord
  2
ACAD
 70
        64
  0
ENDTAB
  0
TABLE
  2
DIMSTYLE
  5
9
100
AcDbSymbolTable
 70
         1
100
AcDbDimStyleTable
 71
         0
  0
DIMSTYLE
105
18
100
AcDbSymbolTableRecord
100
AcDbDimStyleTableRecord
  2
Standard
 70
         0
  3

  4

 40
1.0
 41
0.18
 42
0.0625
 43
0.38
 44
0.18
 45
0.0
 46
0.0
 47
0.0
 48
0.0
 71
         0
 72
         0
 73
         1
 74
         1
 75
         0
 76
         0
 77
         0
 78
         0
 79
         0
140
0.18
141
0.09
142
0.0
143
25.4
144
1.0
145
0.0
146
1.0
147
0.09
148
0.0
170
         0
171
         2
172
         0
173
         0
174
         0
175
         0
176
         0
177
         0
178
         0
179
         0
271
         4
272
         4
273
         2
274
         2
275
         0
276
         0
277
         2
278
        46
279
         0
280
         0
281
         0
282
         0
283
         1
284
         0
285
         0
286
         0
288
         0
289
         3
340
17
341
0
342
0
343
0
344
0
371
        -2
372
        -2
  0
ENDTAB
  0
TABLE
  2
BLOCK_RECORD
  5
1
100
AcDbSymbolTable
 70
         4
  0
BLOCK_RECORD
  5
A
100
AcDbSymbolTableRecord
100
AcDbBlockTableRecord
  2
*MODEL_SPACE
340
20
  0
BLOCK_RECORD
  5
B
100
AcDbSymbolTableRecord
100
AcDbBlockTableRecord
  2
*PAPER_SPACE
340
21
  0
BLOCK_RECORD
  5
F7
100
AcDbSymbolTableRecord
100
AcDbBlockTableRecord
  2
D306556672
340
0
102
{BLKREFS
331
14C
102
}
  0
BLOCK_RECORD
  5
102
100
AcDbSymbolTableRecord
100
AcDbBlockTableRecord
  2
D306556928
340
0
102
{BLKREFS
331
14D
102
}
  0
BLOCK_RECORD
  5
10B
100
AcDbSymbolTableRecord
100
AcDbBlockTableRecord
  2
D306557184
340
0
102
{BLKREFS
331
14E
102
}
  0
BLOCK_RECORD
  5
116
100
AcDbSymbolTableRecord
100
AcDbBlockTableRecord
  2
D306557440
340
0
102
{BLKREFS
331
14F
102
}
  0
ENDTAB
  0
ENDSEC
  0
SECTION
  2
BLOCKS
  0
BLOCK
  5
D
100
AcDbEntity
  8
0
390
0
100
AcDbBlockBegin
  2
*MODEL_SPACE
 70
         0
 10
0.0
 20
0.0
 30
0.0
  3
*MODEL_SPACE
  1

  0
ENDBLK
  5
E
100
AcDbEntity
  8
0
390
0
100
AcDbBlockEnd
  0
BLOCK
  5
F
100
AcDbEntity
 67
         1
  8
0
390
0
100
AcDbBlockBegin
  2
*PAPER_SPACE
 70
         0
 10
0.0
 20
0.0
 30
0.0
  3
*PAPER_SPACE
  1

  0
ENDBLK
  5
10
100
AcDbEntity
 67
         1
  8
0
390
0
100
AcDbBlockEnd
  0
BLOCK
  5
F8
100
AcDbEntity
  8
BEMASSUNG
390
0
100
AcDbBlockBegin
  2
D306556672
 70
         0
 10
0.0
 20
0.0
 30
0.0
  3
D306556672
  1

  0
LINE
  5
F9
100
AcDbEntity
  8
MASSLINIEN
390
0
 62
       172
100
AcDbLine
 10
365.3302961276
 20
336.6652368235
 30
0.0
 11
365.3302961276
 21
344.6652368235
 31
0.0
  0
LINE
  5
FA
100
AcDbEntity
  8
MASSLINIEN
390
0
 62
       172
100
AcDbLine
 10
378.4482642967
 20
336.6652368235
 30
0.0
 11
361.3302961276
 21
336.6652368235
 31
0.0
  0
LINE
  5
FB
100
AcDbEntity
  8
MASSLINIEN
390
0
 62
       172
100
AcDbLine
 10
53.9482642967
 20
344.6652368235
 30
0.0
 11
361.3302961276
 21
344.6652368235
 31
0.0
  0
LINE
  5
FC
100
AcDbEntity
  8
MASSLINIEN
390
0
 62
       172
100
AcDbLine
 10
365.3302961276
 20
344.6652368235
 30
0.0
 11
365.3302961276
 21
360.2703529378
 31
0.0
  0
LINE
  5
FD
100
AcDbEntity
  8
MASSLINIEN
390
0
 62
       172
100
AcDbLine
 10
365.3302961276
 20
336.6652368235
 30
0.0
 11
365.3302961276
 21
324.677898487
 31
0.0
  0
SOLID
  5
FE
100
AcDbEntity
  8
MASSGRENZEN
390
0
100
AcDbTrace
 10
365.3302961276
 20
336.6652368235
 30
0.0
 11
366.1134532809
 21
330.7165676553
 31
0.0
 12
364.5471389742
 22
330.7165676553
 32
0.0
 13
364.5471389742
 23
330.7165676553
 33
0.0
  0
SOLID
  5
FF
100
AcDbEntity
  8
MASSGRENZEN
390
0
100
AcDbTrace
 10
365.3302961276
 20
344.6652368235
 30
0.0
 11
364.5471389742
 21
350.6139059917
 31
0.0
 12
366.1134532809
 22
350.6139059917
 32
0.0
 13
366.1134532809
 23
350.6139059917
 33
0.0
  0
MTEXT
  5
100
100
AcDbEntity
  8
MASSTEXTE
390
0
 62
       212
100
AcDbMText
 10
360.4182961276
 20
358.4164640489
 30
0.0
 40
4.0
 41
0.0
 71
         5
 72
         1
  1
\W1.135145;\A1;8
  7
Arial
 11
0.0
 21
1.0
 31
0.0
 73
         0
 44
0.0
  0
ENDBLK
  5
101
100
AcDbEntity
  8
0
390
0
100
AcDbBlockEnd
  0
BLOCK
  5
103
100
AcDbEntity
  8
BEMASSUNG
390
0
100
AcDbBlockBegin
  2
D306556928
 70
         0
 10
0.0
 20
0.0
 30
0.0
  3
D306556928
  1

  0
LINE
  5
104
100
AcDbEntity
  8
MASSLINIEN
390
0
 62
       172
100
AcDbLine
 10
29.8285421412
 20
292.6652368235
 30
0.0
 11
29.8285421412
 21
372.6652368235
 31
0.0
  0
LINE
  5
105
100
AcDbEntity
  8
MASSLINIEN
390
0
 62
       172
100
AcDbLine
 10
50.9482642967
 20
292.6652368235
 30
0.0
 11
25.8285421412
 21
292.6652368235
 31
0.0
  0
LINE
  5
106
100
AcDbEntity
  8
MASSLINIEN
390
0
 62
       172
100
AcDbLine
 10
417.9482642967
 20
372.6652368235
 30
0.0
 11
25.8285421412
 21
372.6652368235
 31
0.0
  0
SOLID
  5
107
100
AcDbEntity
  8
MASSGRENZEN
390
0
100
AcDbTrace
 10
29.8285421412
 20
292.6652368235
 30
0.0
 11
29.0453849879
 21
298.6139059917
 31
0.0
 12
30.6116992946
 22
298.6139059917
 32
0.0
 13
30.6116992946
 23
298.6139059917
 33
0.0
  0
SOLID
  5
108
100
AcDbEntity
  8
MASSGRENZEN
390
0
100
AcDbTrace
 10
29.8285421412
 20
372.6652368235
 30
0.0
 11
30.6116992946
 21
366.7165676553
 31
0.0
 12
29.0453849879
 22
366.7165676553
 32
0.0
 13
29.0453849879
 23
366.7165676553
 33
0.0
  0
MTEXT
  5
109
100
AcDbEntity
  8
MASSTEXTE
390
0
 62
       212
100
AcDbMText
 10
24.9165421412
 20
332.6652368235
 30
0.0
 40
4.0
 41
0.0
 71
         5
 72
         1
  1
\W1.135145;\A1;80
  7
Arial
 11
0.0
 21
1.0
 31
0.0
 73
         0
 44
0.0
  0
ENDBLK
  5
10A
100
AcDbEntity
  8
0
390
0
100
AcDbBlockEnd
  0
BLOCK
  5
10C
100
AcDbEntity
  8
BEMASSUNG
390
0
100
AcDbBlockBegin
  2
D306557184
 70
         0
 10
0.0
 20
0.0
 30
0.0
  3
D306557184
  1

  0
LINE
  5
10D
100
AcDbEntity
  8
MASSLINIEN
390
0
 62
       172
100
AcDbLine
 10
397.4424434389
 20
344.6652368235
 30
0.0
 11
397.4424434389
 21
327.6652368235
 31
0.0
  0
LINE
  5
10E
100
AcDbEntity
  8
MASSLINIEN
390
0
 62
       172
100
AcDbLine
 10
397.4424434389
 20
344.6652368235
 30
0.0
 11
401.4424434389
 21
344.6652368235
 31
0.0
  0
LINE
  5
10F
100
AcDbEntity
  8
MASSLINIEN
390
0
 62
       172
100
AcDbLine
 10
380.4975106962
 20
327.6652368235
 30
0.0
 11
401.4424434389
 21
327.6652368235
 31
0.0
  0
LINE
  5
110
100
AcDbEntity
  8
MASSLINIEN
390
0
 62
       172
100
AcDbLine
 10
397.4424434389
 20
344.6652368235
 30
0.0
 11
397.4424434389
 21
363.7981307155
 31
0.0
  0
LINE
  5
111
100
AcDbEntity
  8
MASSLINIEN
390
0
 62
       172
100
AcDbLine
 10
397.4424434389
 20
327.6652368235
 30
0.0
 11
397.4424434389
 21
315.677898487
 31
0.0
  0
SOLID
  5
112
100
AcDbEntity
  8
MASSGRENZEN
390
0
100
AcDbTrace
 10
397.4424434389
 20
344.6652368235
 30
0.0
 11
396.6592862856
 21
350.6139059917
 31
0.0
 12
398.2256005922
 22
350.6139059917
 32
0.0
 13
398.2256005922
 23
350.6139059917
 33
0.0
  0
SOLID
  5
113
100
AcDbEntity
  8
MASSGRENZEN
390
0
100
AcDbTrace
 10
397.4424434389
 20
327.6652368235
 30
0.0
 11
398.2256005922
 21
321.7165676553
 31
0.0
 12
396.6592862856
 22
321.7165676553
 32
0.0
 13
396.6592862856
 23
321.7165676553
 33
0.0
  0
MTEXT
  5
114
100
AcDbEntity
  8
MASSTEXTE
390
0
 62
       212
100
AcDbMText
 10
392.5304434389
 20
360.1803529378
 30
0.0
 40
4.0
 41
0.0
 71
         5
 72
         1
  1
\W1.135145;\A1;17
  7
Arial
 11
0.0
 21
1.0
 31
0.0
 73
         0
 44
0.0
  0
ENDBLK
  5
115
100
AcDbEntity
  8
0
390
0
100
AcDbBlockEnd
  0
BLOCK
  5
117
100
AcDbEntity
  8
BEMASSUNG
390
0
100
AcDbBlockBegin
  2
D306557440
 70
         0
 10
0.0
 20
0.0
 30
0.0
  3
D306557440
  1

  0
LINE
  5
118
100
AcDbEntity
  8
MASSLINIEN
390
0
 62
       172
100
AcDbLine
 10
397.4424434389
 20
327.6652368235
 30
0.0
 11
397.4424434389
 21
317.6652368235
 31
0.0
  0
LINE
  5
119
100
AcDbEntity
  8
MASSLINIEN
390
0
 62
       172
100
AcDbLine
 10
380.4975106962
 20
327.6652368235
 30
0.0
 11
401.4424434389
 21
327.6652368235
 31
0.0
  0
LINE
  5
11A
100
AcDbEntity
  8
MASSLINIEN
390
0
 62
       172
100
AcDbLine
 10
380.4975106962
 20
317.6652368235
 30
0.0
 11
401.4424434389
 21
317.6652368235
 31
0.0
  0
LINE
  5
11B
100
AcDbEntity
  8
MASSLINIEN
390
0
 62
       172
100
AcDbLine
 10
397.4424434389
 20
317.6652368235
 30
0.0
 11
397.4424434389
 21
298.5323429315
 31
0.0
  0
LINE
  5
11C
100
AcDbEntity
  8
MASSLINIEN
390
0
 62
       172
100
AcDbLine
 10
397.4424434389
 20
327.6652368235
 30
0.0
 11
397.4424434389
 21
339.65257516
 31
0.0
  0
SOLID
  5
11D
100
AcDbEntity
  8
MASSGRENZEN
390
0
100
AcDbTrace
 10
397.4424434389
 20
327.6652368235
 30
0.0
 11
396.6592862856
 21
333.6139059917
 31
0.0
 12
398.2256005922
 22
333.6139059917
 32
0.0
 13
398.2256005922
 23
333.6139059917
 33
0.0
  0
SOLID
  5
11E
100
AcDbEntity
  8
MASSGRENZEN
390
0
100
AcDbTrace
 10
397.4424434389
 20
317.6652368235
 30
0.0
 11
398.2256005922
 21
311.7165676553
 31
0.0
 12
396.6592862856
 22
311.7165676553
 32
0.0
 13
396.6592862856
 23
311.7165676553
 33
0.0
  0
MTEXT
  5
11F
100
AcDbEntity
  8
MASSTEXTE
390
0
 62
       212
100
AcDbMText
 10
392.5304434389
 20
302.1501207092
 30
0.0
 40
4.0
 41
0.0
 71
         5
 72
         1
  1
\W1.135145;\A1;10
  7
Arial
 11
0.0
 21
1.0
 31
0.0
 73
         0
 44
0.0
  0
ENDBLK
  5
120
100
AcDbEntity
  8
0
390
0
100
AcDbBlockEnd
  0
ENDSEC
  0
SECTION
  2
ENTITIES
  0
CIRCLE
  5
121
100
AcDbEntity
  8
2913_1 AUFSPANNPLATTE
390
0
 62
         8
100
AcDbCircle
 10
378.4482642967
 20
206.6708615841
 30
0.0
 40
2.5
  0
CIRCLE
  5
122
100
AcDbEntity
  8
2913_1 AUFSPANNPLATTE
390
0
 62
         8
100
AcDbCircle
 10
348.4482642967
 20
206.6708615841
 30
0.0
 40
2.5
  0
LINE
  5
123
100
AcDbEntity
  8
2919__ FRÄSE - MITTENAUFSPANNUNG
390
0
 62
       252
100
AcDbLine
 10
355.9482642967
 20
129.1708615841
 30
0.0
 11
355.9482642967
 21
114.1708615841
 31
0.0
  0
LINE
  5
124
100
AcDbEntity
  8
2919__ FRÄSE - MITTENAUFSPANNUNG
390
0
 62
       252
100
AcDbLine
 10
85.9482642967
 20
104.1652368235
 30
0.0
 11
85.9482642967
 21
89.1652368235
 31
0.0
  0
LINE
  5
125
100
AcDbEntity
  8
2919__ FRÄSE - MITTENAUFSPANNUNG
390
0
 62
       252
100
AcDbLine
 10
145.9482642967
 20
199.1708615841
 30
0.0
 11
130.9482642967
 21
199.1708615841
 31
0.0
  0
LINE
  5
126
100
AcDbEntity
  8
2919__ FRÄSE - MITTENAUFSPANNUNG
390
0
 62
       252
100
AcDbLine
 10
70.9482642967
 20
104.1652368235
 30
0.0
 11
85.9482642967
 21
104.1652368235
 31
0.0
  0
LINE
  5
127
100
AcDbEntity
  8
2919__ FRÄSE - MITTENAUFSPANNUNG
390
0
 62
       252
100
AcDbLine
 10
130.9482642967
 20
199.1708615841
 30
0.0
 11
130.9482642967
 21
214.1708615841
 31
0.0
  0
LINE
  5
128
100
AcDbEntity
  8
2919__ FRÄSE - MITTENAUFSPANNUNG
390
0
 62
       252
100
AcDbLine
 10
100.9482642967
 20
89.1652368235
 30
0.0
 11
100.9482642967
 21
104.1652368235
 31
0.0
  0
LINE
  5
129
100
AcDbEntity
  8
2919__ FRÄSE - MITTENAUFSPANNUNG
390
0
 62
       252
100
AcDbLine
 10
70.9482642967
 20
89.1652368235
 30
0.0
 11
70.9482642967
 21
104.1652368235
 31
0.0
  0
LINE
  5
12A
100
AcDbEntity
  8
2919__ FRÄSE - MITTENAUFSPANNUNG
390
0
 62
       252
100
AcDbLine
 10
115.9482642967
 20
214.1708615841
 30
0.0
 11
115.9482642967
 21
199.1708615841
 31
0.0
  0
LINE
  5
12B
100
AcDbEntity
  8
2919__ FRÄSE - MITTENAUFSPANNUNG
390
0
 62
       252
100
AcDbLine
 10
145.9482642967
 20
89.1652368235
 30
0.0
 11
130.9482642967
 21
89.1652368235
 31
0.0
  0
LINE
  5
12C
100
AcDbEntity
  8
2919__ FRÄSE - MITTENAUFSPANNUNG
390
0
 62
       252
100
AcDbLine
 10
145.9482642967
 20
104.1652368235
 30
0.0
 11
145.9482642967
 21
89.1652368235
 31
0.0
  0
LINE
  5
12D
100
AcDbEntity
  8
2919__ FRÄSE - MITTENAUFSPANNUNG
390
0
 62
       252
100
AcDbLine
 10
100.9482642967
 20
214.1708615841
 30
0.0
 11
115.9482642967
 21
214.1708615841
 31
0.0
  0
LINE
  5
12E
100
AcDbEntity
  8
2919__ FRÄSE - MITTENAUFSPANNUNG
390
0
 62
       252
100
AcDbLine
 10
115.9482642967
 20
104.1652368235
 30
0.0
 11
115.9482642967
 21
89.1652368235
 31
0.0
  0
LINE
  5
12F
100
AcDbEntity
  8
2919__ FRÄSE - MITTENAUFSPANNUNG
390
0
 62
       252
100
AcDbLine
 10
130.9482642967
 20
89.1652368235
 30
0.0
 11
130.9482642967
 21
104.1652368235
 31
0.0
  0
LINE
  5
130
100
AcDbEntity
  8
2919__ FRÄSE - MITTENAUFSPANNUNG
390
0
 62
       252
100
AcDbLine
 10
85.9482642967
 20
89.1652368235
 30
0.0
 11
70.9482642967
 21
89.1652368235
 31
0.0
  0
LINE
  5
131
100
AcDbEntity
  8
2919__ FRÄSE - MITTENAUFSPANNUNG
390
0
 62
       252
100
AcDbLine
 10
100.9482642967
 20
104.1652368235
 30
0.0
 11
115.9482642967
 21
104.1652368235
 31
0.0
  0
LINE
  5
132
100
AcDbEntity
  8
2919__ FRÄSE - MITTENAUFSPANNUNG
390
0
 62
       252
100
AcDbLine
 10
385.9482642967
 20
114.1708615841
 30
0.0
 11
370.9482642967
 21
114.1708615841
 31
0.0
  0
LINE
  5
133
100
AcDbEntity
  8
2919__ FRÄSE - MITTENAUFSPANNUNG
390
0
 62
       252
100
AcDbLine
 10
370.9482642967
 20
114.1708615841
 30
0.0
 11
370.9482642967
 21
129.1708615841
 31
0.0
  0
LINE
  5
134
100
AcDbEntity
  8
2919__ FRÄSE - MITTENAUFSPANNUNG
390
0
 62
       252
100
AcDbLine
 10
130.9482642967
 20
104.1652368235
 30
0.0
 11
145.9482642967
 21
104.1652368235
 31
0.0
  0
LINE
  5
135
100
AcDbEntity
  8
2919__ FRÄSE - MITTENAUFSPANNUNG
390
0
 62
       252
100
AcDbLine
 10
115.9482642967
 20
89.1652368235
 30
0.0
 11
100.9482642967
 21
89.1652368235
 31
0.0
  0
LINE
  5
136
100
AcDbEntity
  8
2919__ FRÄSE - MITTENAUFSPANNUNG
390
0
 62
       252
100
AcDbLine
 10
370.9482642967
 20
129.1708615841
 30
0.0
 11
385.9482642967
 21
129.1708615841
 31
0.0
  0
LINE
  5
137
100
AcDbEntity
  8
2919__ FRÄSE - MITTENAUFSPANNUNG
390
0
 62
       252
100
AcDbLine
 10
295.9482642967
 20
139.1708615841
 30
0.0
 11
280.9482642967
 21
139.1708615841
 31
0.0
  0
LINE
  5
138
100
AcDbEntity
  8
2919__ FRÄSE - MITTENAUFSPANNUNG
390
0
 62
       252
100
AcDbLine
 10
220.9482642967
 20
154.1708615841
 30
0.0
 11
235.9482642967
 21
154.1708615841
 31
0.0
  0
LINE
  5
139
100
AcDbEntity
  8
2919__ FRÄSE - MITTENAUFSPANNUNG
390
0
 62
       252
100
AcDbLine
 10
235.9482642967
 20
154.1708615841
 30
0.0
 11
235.9482642967
 21
139.1708615841
 31
0.0
  0
LINE
  5
13A
100
AcDbEntity
  8
2919__ FRÄSE - MITTENAUFSPANNUNG
390
0
 62
       252
100
AcDbLine
 10
385.9482642967
 20
129.1708615841
 30
0.0
 11
385.9482642967
 21
114.1708615841
 31
0.0
  0
LINE
  5
13B
100
AcDbEntity
  8
2919__ FRÄSE - MITTENAUFSPANNUNG
390
0
 62
       252
100
AcDbLine
 10
70.9482642967
 20
214.1708615841
 30
0.0
 11
85.9482642967
 21
214.1708615841
 31
0.0
  0
LINE
  5
13C
100
AcDbEntity
  8
2919__ FRÄSE - MITTENAUFSPANNUNG
390
0
 62
       252
100
AcDbLine
 10
70.9482642967
 20
199.1708615841
 30
0.0
 11
70.9482642967
 21
214.1708615841
 31
0.0
  0
LINE
  5
13D
100
AcDbEntity
  8
2919__ FRÄSE - MITTENAUFSPANNUNG
390
0
 62
       252
100
AcDbLine
 10
130.9482642967
 20
214.1708615841
 30
0.0
 11
145.9482642967
 21
214.1708615841
 31
0.0
  0
LINE
  5
13E
100
AcDbEntity
  8
2919__ FRÄSE - MITTENAUFSPANNUNG
390
0
 62
       252
100
AcDbLine
 10
115.9482642967
 20
199.1708615841
 30
0.0
 11
100.9482642967
 21
199.1708615841
 31
0.0
  0
LINE
  5
13F
100
AcDbEntity
  8
2919__ FRÄSE - MITTENAUFSPANNUNG
390
0
 62
       252
100
AcDbLine
 10
220.9482642967
 20
139.1708615841
 30
0.0
 11
220.9482642967
 21
154.1708615841
 31
0.0
  0
LINE
  5
140
100
AcDbEntity
  8
2919__ FRÄSE - MITTENAUFSPANNUNG
390
0
 62
       252
100
AcDbLine
 10
85.9482642967
 20
199.1708615841
 30
0.0
 11
70.9482642967
 21
199.1708615841
 31
0.0
  0
LINE
  5
141
100
AcDbEntity
  8
2919__ FRÄSE - MITTENAUFSPANNUNG
390
0
 62
       252
100
AcDbLine
 10
235.9482642967
 20
139.1708615841
 30
0.0
 11
220.9482642967
 21
139.1708615841
 31
0.0
  0
LINE
  5
142
100
AcDbEntity
  8
2919__ FRÄSE - MITTENAUFSPANNUNG
390
0
 62
       252
100
AcDbLine
 10
85.9482642967
 20
214.1708615841
 30
0.0
 11
85.9482642967
 21
199.1708615841
 31
0.0
  0
LINE
  5
143
100
AcDbEntity
  8
2919__ FRÄSE - MITTENAUFSPANNUNG
390
0
 62
       252
100
AcDbLine
 10
100.9482642967
 20
199.1708615841
 30
0.0
 11
100.9482642967
 21
214.1708615841
 31
0.0
  0
LINE
  5
144
100
AcDbEntity
  8
2919__ FRÄSE - MITTENAUFSPANNUNG
390
0
 62
       252
100
AcDbLine
 10
280.9482642967
 20
154.1708615841
 30
0.0
 11
295.9482642967
 21
154.1708615841
 31
0.0
  0
LINE
  5
145
100
AcDbEntity
  8
2919__ FRÄSE - MITTENAUFSPANNUNG
390
0
 62
       252
100
AcDbLine
 10
340.9482642967
 20
129.1708615841
 30
0.0
 11
355.9482642967
 21
129.1708615841
 31
0.0
  0
LINE
  5
146
100
AcDbEntity
  8
2919__ FRÄSE - MITTENAUFSPANNUNG
390
0
 62
       252
100
AcDbLine
 10
145.9482642967
 20
214.1708615841
 30
0.0
 11
145.9482642967
 21
199.1708615841
 31
0.0
  0
LINE
  5
147
100
AcDbEntity
  8
2919__ FRÄSE - MITTENAUFSPANNUNG
390
0
 62
       252
100
AcDbLine
 10
280.9482642967
 20
139.1708615841
 30
0.0
 11
280.9482642967
 21
154.1708615841
 31
0.0
  0
LINE
  5
148
100
AcDbEntity
  8
2919__ FRÄSE - MITTENAUFSPANNUNG
390
0
 62
       252
100
AcDbLine
 10
355.9482642967
 20
114.1708615841
 30
0.0
 11
340.9482642967
 21
114.1708615841
 31
0.0
  0
LINE
  5
149
100
AcDbEntity
  8
2919__ FRÄSE - MITTENAUFSPANNUNG
390
0
 62
       252
100
AcDbLine
 10
340.9482642967
 20
114.1708615841
 30
0.0
 11
340.9482642967
 21
129.1708615841
 31
0.0
  0
LINE
  5
14A
100
AcDbEntity
  8
MITTELLINIEN
390
0
100
AcDbLine
 10
390.4975106962
 20
317.6652368235
 30
0.0
 11
65.496227204
 21
317.6652368235
 31
0.0
  0
LINE
  5
14B
100
AcDbEntity
  8
MITTELLINIEN
390
0
100
AcDbLine
 10
390.4975106962
 20
327.6652368235
 30
0.0
 11
65.496227204
 21
327.6652368235
 31
0.0
  0
INSERT
  5
14C
100
AcDbEntity
  8
BEMASSUNG
390
0
100
AcDbBlockReference
  2
D306556672
 10
0.0
 20
0.0
 30
0.0
  0
INSERT
  5
14D
100
AcDbEntity
  8
BEMASSUNG
390
0
100
AcDbBlockReference
  2
D306556928
 10
0.0
 20
0.0
 30
0.0
  0
INSERT
  5
14E
100
AcDbEntity
  8
BEMASSUNG
390
0
100
AcDbBlockReference
  2
D306557184
 10
0.0
 20
0.0
 30
0.0
  0
INSERT
  5
14F
100
AcDbEntity
  8
BEMASSUNG
390
0
100
AcDbBlockReference
  2
D306557440
 10
0.0
 20
0.0
 30
0.0
  0
CIRCLE
  5
150
100
AcDbEntity
  8
2913_1 AUFSPANNPLATTE
390
0
 62
         8
100
AcDbCircle
 10
198.4482642967
 20
176.6708615841
 30
0.0
 40
2.5
  0
LINE
  5
151
100
AcDbEntity
  8
2919__ FRÄSE - MITTENAUFSPANNUNG
390
0
 62
       252
100
AcDbLine
 10
85.9482642967
 20
289.1652368235
 30
0.0
 11
85.9482642967
 21
274.1652368235
 31
0.0
  0
LINE
  5
152
100
AcDbEntity
  8
2919__ FRÄSE - MITTENAUFSPANNUNG
390
0
 62
       252
100
AcDbLine
 10
70.9482642967
 20
274.1652368235
 30
0.0
 11
70.9482642967
 21
289.1652368235
 31
0.0
  0
LINE
  5
153
100
AcDbEntity
  8
2919__ FRÄSE - MITTENAUFSPANNUNG
390
0
 62
       252
100
AcDbLine
 10
85.9482642967
 20
274.1652368235
 30
0.0
 11
70.9482642967
 21
274.1652368235
 31
0.0
  0
LINE
  5
154
100
AcDbEntity
  8
2919__ FRÄSE - MITTENAUFSPANNUNG
390
0
 62
       252
100
AcDbLine
 10
70.9482642967
 20
289.1652368235
 30
0.0
 11
85.9482642967
 21
289.1652368235
 31
0.0
  0
LINE
  5
155
100
AcDbEntity
  8
2913_1 AUFSPANNPLATTE
390
0
 62
         8
100
AcDbLine
 10
133.6982642967
 20
372.6652368235
 30
0.0
 11
133.6982642967
 21
32.6652368235
 31
0.0
  0
LINE
  5
156
100
AcDbEntity
  8
2913_1 AUFSPANNPLATTE
390
0
 62
         8
100
AcDbLine
 10
143.1982642967
 20
372.6652368235
 30
0.0
 11
143.1982642967
 21
32.6652368235
 31
0.0
  0
LINE
  5
157
100
AcDbEntity
  8
2913_1 AUFSPANNPLATTE
390
0
 62
         8
100
AcDbLine
 10
146.6982642967
 20
372.6652368235
 30
0.0
 11
146.6982642967
 21
32.6652368235
 31
0.0
  0
LINE
  5
158
100
AcDbEntity
  8
2913_1 AUFSPANNPLATTE
390
0
 62
         8
100
AcDbLine
 10
160.1982642967
 20
372.6652368235
 30
0.0
 11
160.1982642967
 21
32.6652368235
 31
0.0
  0
LINE
  5
159
100
AcDbEntity
  8
2913_1 AUFSPANNPLATTE
390
0
 62
         8
100
AcDbLine
 10
163.6982642967
 20
372.6652368235
 30
0.0
 11
163.6982642967
 21
32.6652368235
 31
0.0
  0
LINE
  5
15A
100
AcDbEntity
  8
2913_1 AUFSPANNPLATTE
390
0
 62
         8
100
AcDbLine
 10
173.1982642967
 20
372.6652368235
 30
0.0
 11
173.1982642967
 21
32.6652368235
 31
0.0
  0
LINE
  5
15B
100
AcDbEntity
  8
2913_1 AUFSPANNPLATTE
390
0
 62
         8
100
AcDbLine
 10
176.6982642967
 20
372.6652368235
 30
0.0
 11
176.6982642967
 21
32.6652368235
 31
0.0
  0
LINE
  5
15C
100
AcDbEntity
  8
2913_1 AUFSPANNPLATTE
390
0
 62
         8
100
AcDbLine
 10
190.1982642967
 20
372.6652368235
 30
0.0
 11
190.1982642967
 21
32.6652368235
 31
0.0
  0
LINE
  5
15D
100
AcDbEntity
  8
2913_1 AUFSPANNPLATTE
390
0
 62
         8
100
AcDbLine
 10
193.6982642967
 20
372.6652368235
 30
0.0
 11
193.6982642967
 21
32.6652368235
 31
0.0
  0
LINE
  5
15E
100
AcDbEntity
  8
2913_1 AUFSPANNPLATTE
390
0
 62
         8
100
AcDbLine
 10
203.1982642967
 20
372.6652368235
 30
0.0
 11
203.1982642967
 21
32.6652368235
 31
0.0
  0
LINE
  5
15F
100
AcDbEntity
  8
2913_1 AUFSPANNPLATTE
390
0
 62
         8
100
AcDbLine
 10
313.6982642967
 20
372.6652368235
 30
0.0
 11
313.6982642967
 21
32.6652368235
 31
0.0
  0
LINE
  5
160
100
AcDbEntity
  8
2913_1 AUFSPANNPLATTE
390
0
 62
         8
100
AcDbLine
 10
250.1982642967
 20
372.6652368235
 30
0.0
 11
250.1982642967
 21
32.6652368235
 31
0.0
  0
LINE
  5
161
100
AcDbEntity
  8
2913_1 AUFSPANNPLATTE
390
0
 62
         8
100
AcDbLine
 10
253.6982642967
 20
372.6652368235
 30
0.0
 11
253.6982642967
 21
32.6652368235
 31
0.0
  0
LINE
  5
162
100
AcDbEntity
  8
2913_1 AUFSPANNPLATTE
390
0
 62
         8
100
AcDbLine
 10
263.1982642967
 20
372.6652368235
 30
0.0
 11
263.1982642967
 21
32.6652368235
 31
0.0
  0
LINE
  5
163
100
AcDbEntity
  8
2913_1 AUFSPANNPLATTE
390
0
 62
         8
100
AcDbLine
 10
266.6982642967
 20
372.6652368235
 30
0.0
 11
266.6982642967
 21
32.6652368235
 31
0.0
  0
LINE
  5
164
100
AcDbEntity
  8
2913_1 AUFSPANNPLATTE
390
0
 62
         8
100
AcDbLine
 10
280.1982642967
 20
372.6652368235
 30
0.0
 11
280.1982642967
 21
32.6652368235
 31
0.0
  0
LINE
  5
165
100
AcDbEntity
  8
2913_1 AUFSPANNPLATTE
390
0
 62
         8
100
AcDbLine
 10
283.6982642967
 20
372.6652368235
 30
0.0
 11
283.6982642967
 21
32.6652368235
 31
0.0
  0
LINE
  5
166
100
AcDbEntity
  8
2913_1 AUFSPANNPLATTE
390
0
 62
         8
100
AcDbLine
 10
293.1982642967
 20
372.6652368235
 30
0.0
 11
293.1982642967
 21
32.6652368235
 31
0.0
  0
LINE
  5
167
100
AcDbEntity
  8
2913_1 AUFSPANNPLATTE
390
0
 62
         8
100
AcDbLine
 10
296.6982642967
 20
372.6652368235
 30
0.0
 11
296.6982642967
 21
32.6652368235
 31
0.0
  0
LINE
  5
168
100
AcDbEntity
  8
2913_1 AUFSPANNPLATTE
390
0
 62
         8
100
AcDbLine
 10
37.9482642967
 20
32.6652368235
 30
0.0
 11
417.9482642967
 21
32.6652368235
 31
0.0
  0
LINE
  5
169
100
AcDbEntity
  8
2913_1 AUFSPANNPLATTE
390
0
 62
         8
100
AcDbLine
 10
310.1982642967
 20
372.6652368235
 30
0.0
 11
310.1982642967
 21
32.6652368235
 31
0.0
  0
LINE
  5
16A
100
AcDbEntity
  8
2913_1 AUFSPANNPLATTE
390
0
 62
         8
100
AcDbLine
 10
417.9482642967
 20
372.6652368235
 30
0.0
 11
37.9482642967
 21
372.6652368235
 31
0.0
  0
LINE
  5
16B
100
AcDbEntity
  8
2913_1 AUFSPANNPLATTE
390
0
 62
         8
100
AcDbLine
 10
37.9482642967
 20
372.6652368235
 30
0.0
 11
37.9482642967
 21
357.6652368235
 31
0.0
  0
LINE
  5
16C
100
AcDbEntity
  8
2913_1 AUFSPANNPLATTE
390
0
  6
DASHED
 62
         8
100
AcDbLine
 10
37.9482642967
 20
357.6652368235
 30
0.0
 11
37.9482642967
 21
47.6652368235
 31
0.0
  0
LINE
  5
16D
100
AcDbEntity
  8
2913_1 AUFSPANNPLATTE
390
0
 62
         8
100
AcDbLine
 10
37.9482642967
 20
47.6652368235
 30
0.0
 11
37.9482642967
 21
32.6652368235
 31
0.0
  0
LINE
  5
16E
100
AcDbEntity
  8
2913_1 AUFSPANNPLATTE
390
0
 62
         8
100
AcDbLine
 10
35.9482642967
 20
357.6652368235
 30
0.0
 11
35.9482642967
 21
47.6652368235
 31
0.0
  0
LINE
  5
16F
100
AcDbEntity
  8
2913_1 AUFSPANNPLATTE
390
0
 62
         8
100
AcDbLine
 10
35.9482642967
 20
47.6652368235
 30
0.0
 11
50.9482642967
 21
47.6652368235
 31
0.0
  0
LINE
  5
170
100
AcDbEntity
  8
2913_1 AUFSPANNPLATTE
390
0
 62
         8
100
AcDbLine
 10
417.9482642967
 20
32.6652368235
 30
0.0
 11
417.9482642967
 21
372.6652368235
 31
0.0
  0
LINE
  5
171
100
AcDbEntity
  8
___ 8901_2P
370
        20
390
0
  6
DIVIDE
100
AcDbLine
 10
55.9482642967
 20
65.1680492038
 30
0.0
 11
380.9482642967
 21
65.1680492038
 31
0.0
  0
LINE
  5
172
100
AcDbEntity
  8
___ 8901_2P
370
        20
390
0
  6
DIVIDE
100
AcDbLine
 10
380.9482642967
 20
65.1680492038
 30
0.0
 11
380.9482642967
 21
329.1680492038
 31
0.0
  0
LINE
  5
173
100
AcDbEntity
  8
___ 8901_2P
370
        20
390
0
  6
DIVIDE
100
AcDbLine
 10
380.9482642967
 20
329.1680492038
 30
0.0
 11
55.9482642967
 21
329.1680492038
 31
0.0
  0
LINE
  5
174
100
AcDbEntity
  8
___ 8901_2P
370
        20
390
0
  6
DIVIDE
100
AcDbLine
 10
55.9482642967
 20
329.1680492038
 30
0.0
 11
55.9482642967
 21
65.1680492038
 31
0.0
  0
LINE
  5
175
100
AcDbEntity
  8
2913_1 AUFSPANNPLATTE
390
0
 62
         8
100
AcDbLine
 10
370.1982642967
 20
372.6652368235
 30
0.0
 11
370.1982642967
 21
32.6652368235
 31
0.0
  0
LINE
  5
176
100
AcDbEntity
  8
2913_1 AUFSPANNPLATTE
390
0
 62
         8
100
AcDbLine
 10
373.6982642967
 20
372.6652368235
 30
0.0
 11
373.6982642967
 21
32.6652368235
 31
0.0
  0
LINE
  5
177
100
AcDbEntity
  8
2913_1 AUFSPANNPLATTE
390
0
 62
         8
100
AcDbLine
 10
340.1982642967
 20
372.6652368235
 30
0.0
 11
340.1982642967
 21
32.6652368235
 31
0.0
  0
LINE
  5
178
100
AcDbEntity
  8
2913_1 AUFSPANNPLATTE
390
0
 62
         8
100
AcDbLine
 10
343.6982642967
 20
372.6652368235
 30
0.0
 11
343.6982642967
 21
32.6652368235
 31
0.0
  0
LINE
  5
179
100
AcDbEntity
  8
2913_1 AUFSPANNPLATTE
390
0
 62
         8
100
AcDbLine
 10
356.6982642967
 20
372.6652368235
 30
0.0
 11
356.6982642967
 21
32.6652368235
 31
0.0
  0
LINE
  5
17A
100
AcDbEntity
  8
2913_1 AUFSPANNPLATTE
390
0
 62
         8
100
AcDbLine
 10
353.1982642967
 20
372.6652368235
 30
0.0
 11
353.1982642967
 21
32.6652368235
 31
0.0
  0
LINE
  5
17B
100
AcDbEntity
  8
2913_1 AUFSPANNPLATTE
390
0
 62
         8
100
AcDbLine
 10
326.6982642967
 20
372.6652368235
 30
0.0
 11
326.6982642967
 21
32.6652368235
 31
0.0
  0
LINE
  5
17C
100
AcDbEntity
  8
2913_1 AUFSPANNPLATTE
390
0
 62
         8
100
AcDbLine
 10
323.1982642967
 20
372.6652368235
 30
0.0
 11
323.1982642967
 21
32.6652368235
 31
0.0
  0
LINE
  5
17D
100
AcDbEntity
  8
2913_1 AUFSPANNPLATTE
390
0
 62
         8
100
AcDbLine
 10
236.6982642967
 20
372.6652368235
 30
0.0
 11
236.6982642967
 21
32.6652368235
 31
0.0
  0
LINE
  5
17E
100
AcDbEntity
  8
2913_1 AUFSPANNPLATTE
390
0
 62
         8
100
AcDbLine
 10
233.1982642967
 20
372.6652368235
 30
0.0
 11
233.1982642967
 21
32.6652368235
 31
0.0
  0
LINE
  5
17F
100
AcDbEntity
  8
2913_1 AUFSPANNPLATTE
390
0
 62
         8
100
AcDbLine
 10
223.6982642967
 20
372.6652368235
 30
0.0
 11
223.6982642967
 21
32.6652368235
 31
0.0
  0
LINE
  5
180
100
AcDbEntity
  8
2913_1 AUFSPANNPLATTE
390
0
 62
         8
100
AcDbLine
 10
220.1982642967
 20
372.6652368235
 30
0.0
 11
220.1982642967
 21
32.6652368235
 31
0.0
  0
LINE
  5
181
100
AcDbEntity
  8
2913_1 AUFSPANNPLATTE
390
0
 62
         8
100
AcDbLine
 10
206.6982642967
 20
372.6652368235
 30
0.0
 11
206.6982642967
 21
32.6652368235
 31
0.0
  0
TEXT
  5
182
100
AcDbEntity
  8
BESCHRIFTUNG
390
0
100
AcDbText
 10
391.0646400759
 20
255.2213523383
 30
0.0
 40
6.0
  1
80
 41
0.9728282109
  7
Arial
100
AcDbText
  0
TEXT
  5
183
100
AcDbEntity
  8
BESCHRIFTUNG
390
0
100
AcDbText
 10
391.064640076
 20
230.2213523382
 30
0.0
 40
6.0
  1
105
 41
0.9728282109
  7
Arial
100
AcDbText
  0
TEXT
  5
184
100
AcDbEntity
  8
BESCHRIFTUNG
390
0
100
AcDbText
 10
391.064640076
 20
205.2213523381
 30
0.0
 40
6.0
  1
130
 41
0.9728284196
  7
Arial
100
AcDbText
  0
TEXT
  5
185
100
AcDbEntity
  8
BESCHRIFTUNG
390
0
100
AcDbText
 10
391.0646400761
 20
144.2269770988
 30
0.0
 40
6.0
  1
190
 41
0.9728282109
  7
Arial
100
AcDbText
  0
TEXT
  5
186
100
AcDbEntity
  8
BESCHRIFTUNG
390
0
100
AcDbText
 10
391.0294491409
 20
118.5572805168
 30
0.0
 40
6.0
  1
215
 41
0.9728282109
  7
Arial
100
AcDbText
  0
TEXT
  5
187
100
AcDbEntity
  8
BESCHRIFTUNG
390
0
100
AcDbText
 10
391.0294491409
 20
93.5516557564
 30
0.0
 40
6.0
  1
240
 41
0.9728281692
  7
Arial
100
AcDbText
  0
TEXT
  5
188
100
AcDbEntity
  8
BESCHRIFTUNG
390
0
100
AcDbText
 10
391.712752102
 20
44.7094006043
 30
0.0
 40
6.0
  1
290
 41
0.9728280022
  7
Arial
100
AcDbText
  0
TEXT
  5
189
100
AcDbEntity
  8
BESCHRIFTUNG
390
0
100
AcDbText
 10
391.0646400759
 20
280.2213523383
 30
0.0
 40
6.0
  1
55
 41
0.9728280857
  7
Arial
100
AcDbText
  0
TEXT
  5
18A
100
AcDbEntity
  8
BESCHRIFTUNG
390
0
100
AcDbText
 10
391.0646400759
 20
292.2510068334
 30
0.0
 40
6.0
  1
Distanz
 41
0.9727657945
  7
Arial
100
AcDbText
  0
TEXT
  5
18B
100
AcDbEntity
  8
BESCHRIFTUNG
390
0
100
AcDbText
 10
65.4616943522
 20
20.3419269103
 30
0.0
 40
6.0
  1
1
 41
0.8108692518
  7
Arial
100
AcDbText
  0
TEXT
  5
18C
100
AcDbEntity
  8
BESCHRIFTUNG
390
0
100
AcDbText
 10
305.4616943522
 20
20.3419269103
 30
0.0
 40
6.0
  1
9
 41
0.8108688344
  7
Arial
100
AcDbText
  0
TEXT
  5
18D
100
AcDbEntity
  8
BESCHRIFTUNG
390
0
100
AcDbText
 10
245.4616943522
 20
20.3419269103
 30
0.0
 40
6.0
  1
7
 41
0.8108689387
  7
Arial
100
AcDbText
  0
TEXT
  5
18E
100
AcDbEntity
  8
BESCHRIFTUNG
390
0
100
AcDbText
 10
125.4616943522
 20
20.3419269103
 30
0.0
 40
6.0
  1
3
 41
0.8108693562
  7
Arial
100
AcDbText
  0
TEXT
  5
18F
100
AcDbEntity
  8
BESCHRIFTUNG
390
0
100
AcDbText
 10
185.4616943522
 20
20.3419269103
 30
0.0
 40
6.0
  1
5
 41
0.8108688344
  7
Arial
100
AcDbText
  0
TEXT
  5
190
100
AcDbEntity
  8
BESCHRIFTUNG
390
0
100
AcDbText
 10
365.4616943522
 20
20.3419269103
 30
0.0
 40
6.0
  1
11
 41
0.8108692518
  7
Arial
100
AcDbText
  0
TEXT
  5
191
100
AcDbEntity
  8
BESCHRIFTUNG
390
0
100
AcDbText
 10
65.4616943522
 20
374.3198002135
 30
0.0
 40
6.0
  1
1
 41
0.8108692518
  7
Arial
100
AcDbText
  0
TEXT
  5
192
100
AcDbEntity
  8
BESCHRIFTUNG
390
0
100
AcDbText
 10
305.4616943522
 20
374.3198002135
 30
0.0
 40
6.0
  1
9
 41
0.8108688344
  7
Arial
100
AcDbText
  0
TEXT
  5
193
100
AcDbEntity
  8
BESCHRIFTUNG
390
0
100
AcDbText
 10
245.4616943522
 20
374.3198002135
 30
0.0
 40
6.0
  1
7
 41
0.8108689387
  7
Arial
100
AcDbText
  0
TEXT
  5
194
100
AcDbEntity
  8
BESCHRIFTUNG
390
0
100
AcDbText
 10
125.4616943522
 20
374.3198002135
 30
0.0
 40
6.0
  1
3
 41
0.8108693562
  7
Arial
100
AcDbText
  0
TEXT
  5
195
100
AcDbEntity
  8
BESCHRIFTUNG
390
0
100
AcDbText
 10
185.4616943522
 20
374.3198002135
 30
0.0
 40
6.0
  1
5
 41
0.8108688344
  7
Arial
100
AcDbText
  0
TEXT
  5
196
100
AcDbEntity
  8
BESCHRIFTUNG
390
0
100
AcDbText
 10
365.4616943522
 20
374.3198002135
 30
0.0
 40
6.0
  1
11
 41
0.8108692518
  7
Arial
100
AcDbText
  0
TEXT
  5
197
100
AcDbEntity
  8
BESCHRIFTUNG
390
0
100
AcDbText
 10
21.0336196678
 20
255.2213523383
 30
0.0
 40
6.0
  1
80
 41
0.9728282109
  7
Arial
100
AcDbText
  0
TEXT
  5
198
100
AcDbEntity
  8
BESCHRIFTUNG
390
0
100
AcDbText
 10
21.0336196678
 20
230.2213523382
 30
0.0
 40
6.0
  1
105
 41
0.9728282109
  7
Arial
100
AcDbText
  0
TEXT
  5
199
100
AcDbEntity
  8
BESCHRIFTUNG
390
0
100
AcDbText
 10
21.0336196678
 20
205.2213523381
 30
0.0
 40
6.0
  1
130
 41
0.9728284196
  7
Arial
100
AcDbText
  0
TEXT
  5
19A
100
AcDbEntity
  8
BESCHRIFTUNG
390
0
100
AcDbText
 10
21.0336196679
 20
144.2269770988
 30
0.0
 40
6.0
  1
190
 41
0.9728282109
  7
Arial
100
AcDbText
  0
TEXT
  5
19B
100
AcDbEntity
  8
BESCHRIFTUNG
390
0
100
AcDbText
 10
20.9984287327
 20
118.5572805168
 30
0.0
 40
6.0
  1
215
 41
0.9728282109
  7
Arial
100
AcDbText
  0
TEXT
  5
19C
100
AcDbEntity
  8
BESCHRIFTUNG
390
0
100
AcDbText
 10
20.9984287327
 20
93.5516557564
 30
0.0
 40
6.0
  1
240
 41
0.9728281692
  7
Arial
100
AcDbText
  0
TEXT
  5
19D
100
AcDbEntity
  8
BESCHRIFTUNG
390
0
100
AcDbText
 10
21.6817316938
 20
44.7094006043
 30
0.0
 40
6.0
  1
290
 41
0.9728280022
  7
Arial
100
AcDbText
  0
LINE
  5
19E
100
AcDbEntity
  8
2913_1 AUFSPANNPLATTE
390
0
 62
         8
100
AcDbLine
 10
130.1982642967
 20
371.6652368235
 30
0.0
 11
130.1982642967
 21
32.6652368235
 31
0.0
  0
LINE
  5
19F
100
AcDbEntity
  8
2913_1 AUFSPANNPLATTE
390
0
 62
         8
100
AcDbLine
 10
116.6982642967
 20
372.6652368235
 30
0.0
 11
116.6982642967
 21
32.6652368235
 31
0.0
  0
LINE
  5
1A0
100
AcDbEntity
  8
2913_1 AUFSPANNPLATTE
390
0
 62
         8
100
AcDbLine
 10
113.1982642967
 20
372.6652368235
 30
0.0
 11
113.1982642967
 21
32.6652368235
 31
0.0
  0
LINE
  5
1A1
100
AcDbEntity
  8
2913_1 AUFSPANNPLATTE
390
0
 62
         8
100
AcDbLine
 10
103.6982642967
 20
372.6652368235
 30
0.0
 11
103.6982642967
 21
32.6652368235
 31
0.0
  0
LINE
  5
1A2
100
AcDbEntity
  8
2913_1 AUFSPANNPLATTE
390
0
 62
         8
100
AcDbLine
 10
100.1982642967
 20
372.6652368235
 30
0.0
 11
100.1982642967
 21
32.6652368235
 31
0.0
  0
LINE
  5
1A3
100
AcDbEntity
  8
2913_1 AUFSPANNPLATTE
390
0
 62
         8
100
AcDbLine
 10
86.6982642967
 20
372.6652368235
 30
0.0
 11
86.6982642967
 21
32.6652368235
 31
0.0
  0
LINE
  5
1A4
100
AcDbEntity
  8
2913_1 AUFSPANNPLATTE
390
0
 62
         8
100
AcDbLine
 10
83.1982642967
 20
372.6652368235
 30
0.0
 11
83.1982642967
 21
32.6652368235
 31
0.0
  0
LINE
  5
1A5
100
AcDbEntity
  8
2913_1 AUFSPANNPLATTE
390
0
 62
         8
100
AcDbLine
 10
73.6982642967
 20
372.6652368235
 30
0.0
 11
73.6982642967
 21
32.6652368235
 31
0.0
  0
LINE
  5
1A6
100
AcDbEntity
  8
2913_1 AUFSPANNPLATTE
390
0
 62
         8
100
AcDbLine
 10
70.1982642967
 20
372.6652368235
 30
0.0
 11
70.1982642967
 21
32.6652368235
 31
0.0
  0
LINE
  5
1A7
100
AcDbEntity
  8
2913_1 AUFSPANNPLATTE
390
0
 62
         8
100
AcDbLine
 10
386.6982642967
 20
372.6652368235
 30
0.0
 11
386.6982642967
 21
32.6652368235
 31
0.0
  0
LINE
  5
1A8
100
AcDbEntity
  8
2913_1 AUFSPANNPLATTE
390
0
 62
         8
100
AcDbLine
 10
383.1982642967
 20
372.6652368235
 30
0.0
 11
383.1982642967
 21
32.6652368235
 31
0.0
  0
LINE
  5
1A9
100
AcDbEntity
  8
2919__ FRÄSE - MITTENAUFSPANNUNG
390
0
 62
       252
100
AcDbLine
 10
175.9482642967
 20
169.1708615841
 30
0.0
 11
160.9482642967
 21
169.1708615841
 31
0.0
  0
LINE
  5
1AA
100
AcDbEntity
  8
2919__ FRÄSE - MITTENAUFSPANNUNG
390
0
 62
       252
100
AcDbLine
 10
160.9482642967
 20
184.1708615841
 30
0.0
 11
175.9482642967
 21
184.1708615841
 31
0.0
  0
LINE
  5
1AB
100
AcDbEntity
  8
2919__ FRÄSE - MITTENAUFSPANNUNG
390
0
 62
       252
100
AcDbLine
 10
175.9482642967
 20
184.1708615841
 30
0.0
 11
175.9482642967
 21
169.1708615841
 31
0.0
  0
LINE
  5
1AC
100
AcDbEntity
  8
2919__ FRÄSE - MITTENAUFSPANNUNG
390
0
 62
       252
100
AcDbLine
 10
190.9482642967
 20
104.1652368235
 30
0.0
 11
205.9482642967
 21
104.1652368235
 31
0.0
  0
LINE
  5
1AD
100
AcDbEntity
  8
2919__ FRÄSE - MITTENAUFSPANNUNG
390
0
 62
       252
100
AcDbLine
 10
205.9482642967
 20
89.1652368235
 30
0.0
 11
190.9482642967
 21
89.1652368235
 31
0.0
  0
LINE
  5
1AE
100
AcDbEntity
  8
2919__ FRÄSE - MITTENAUFSPANNUNG
390
0
 62
       252
100
AcDbLine
 10
190.9482642967
 20
89.1652368235
 30
0.0
 11
190.9482642967
 21
104.1652368235
 31
0.0
  0
LINE
  5
1AF
100
AcDbEntity
  8
2919__ FRÄSE - MITTENAUFSPANNUNG
390
0
 62
       252
100
AcDbLine
 10
205.9482642967
 20
104.1652368235
 30
0.0
 11
205.9482642967
 21
89.1652368235
 31
0.0
  0
LINE
  5
1B0
100
AcDbEntity
  8
2919__ FRÄSE - MITTENAUFSPANNUNG
390
0
 62
       252
100
AcDbLine
 10
160.9482642967
 20
249.1652368235
 30
0.0
 11
160.9482642967
 21
264.1652368235
 31
0.0
  0
LINE
  5
1B1
100
AcDbEntity
  8
2919__ FRÄSE - MITTENAUFSPANNUNG
390
0
 62
       252
100
AcDbLine
 10
175.9482642967
 20
264.1652368235
 30
0.0
 11
175.9482642967
 21
249.1652368235
 31
0.0
  0
LINE
  5
1B2
100
AcDbEntity
  8
2919__ FRÄSE - MITTENAUFSPANNUNG
390
0
 62
       252
100
AcDbLine
 10
160.9482642967
 20
104.1652368235
 30
0.0
 11
175.9482642967
 21
104.1652368235
 31
0.0
  0
LINE
  5
1B3
100
AcDbEntity
  8
2919__ FRÄSE - MITTENAUFSPANNUNG
390
0
 62
       252
100
AcDbLine
 10
175.9482642967
 20
89.1652368235
 30
0.0
 11
160.9482642967
 21
89.1652368235
 31
0.0
  0
LINE
  5
1B4
100
AcDbEntity
  8
2919__ FRÄSE - MITTENAUFSPANNUNG
390
0
 62
       252
100
AcDbLine
 10
160.9482642967
 20
89.1652368235
 30
0.0
 11
160.9482642967
 21
104.1652368235
 31
0.0
  0
LINE
  5
1B5
100
AcDbEntity
  8
2919__ FRÄSE - MITTENAUFSPANNUNG
390
0
 62
       252
100
AcDbLine
 10
175.9482642967
 20
104.1652368235
 30
0.0
 11
175.9482642967
 21
89.1652368235
 31
0.0
  0
LINE
  5
1B6
100
AcDbEntity
  8
2919__ FRÄSE - MITTENAUFSPANNUNG
390
0
 62
       252
100
AcDbLine
 10
160.9482642967
 20
264.1652368235
 30
0.0
 11
175.9482642967
 21
264.1652368235
 31
0.0
  0
LINE
  5
1B7
100
AcDbEntity
  8
2919__ FRÄSE - MITTENAUFSPANNUNG
390
0
 62
       252
100
AcDbLine
 10
130.9482642967
 20
289.1652368235
 30
0.0
 11
145.9482642967
 21
289.1652368235
 31
0.0
  0
LINE
  5
1B8
100
AcDbEntity
  8
2919__ FRÄSE - MITTENAUFSPANNUNG
390
0
 62
       252
100
AcDbLine
 10
175.9482642967
 20
249.1652368235
 30
0.0
 11
160.9482642967
 21
249.1652368235
 31
0.0
  0
LINE
  5
1B9
100
AcDbEntity
  8
2919__ FRÄSE - MITTENAUFSPANNUNG
390
0
 62
       252
100
AcDbLine
 10
145.9482642967
 20
274.1652368235
 30
0.0
 11
130.9482642967
 21
274.1652368235
 31
0.0
  0
LINE
  5
1BA
100
AcDbEntity
  8
2919__ FRÄSE - MITTENAUFSPANNUNG
390
0
 62
       252
100
AcDbLine
 10
130.9482642967
 20
274.1652368235
 30
0.0
 11
130.9482642967
 21
289.1652368235
 31
0.0
  0
LINE
  5
1BB
100
AcDbEntity
  8
2919__ FRÄSE - MITTENAUFSPANNUNG
390
0
 62
       252
100
AcDbLine
 10
160.9482642967
 20
169.1708615841
 30
0.0
 11
160.9482642967
 21
184.1708615841
 31
0.0
  0
LINE
  5
1BC
100
AcDbEntity
  8
2919__ FRÄSE - MITTENAUFSPANNUNG
390
0
 62
       252
100
AcDbLine
 10
340.9482642967
 20
199.1708615841
 30
0.0
 11
340.9482642967
 21
214.1708615841
 31
0.0
  0
LINE
  5
1BD
100
AcDbEntity
  8
2919__ FRÄSE - MITTENAUFSPANNUNG
390
0
 62
       252
100
AcDbLine
 10
325.9482642967
 20
114.1708615841
 30
0.0
 11
310.9482642967
 21
114.1708615841
 31
0.0
  0
LINE
  5
1BE
100
AcDbEntity
  8
2919__ FRÄSE - MITTENAUFSPANNUNG
390
0
 62
       252
100
AcDbLine
 10
385.9482642967
 20
199.1708615841
 30
0.0
 11
370.9482642967
 21
199.1708615841
 31
0.0
  0
LINE
  5
1BF
100
AcDbEntity
  8
2919__ FRÄSE - MITTENAUFSPANNUNG
390
0
 62
       252
100
AcDbLine
 10
265.9482642967
 20
239.1652368235
 30
0.0
 11
265.9482642967
 21
224.1652368235
 31
0.0
  0
LINE
  5
1C0
100
AcDbEntity
  8
2919__ FRÄSE - MITTENAUFSPANNUNG
390
0
 62
       252
100
AcDbLine
 10
355.9482642967
 20
199.1708615841
 30
0.0
 11
340.9482642967
 21
199.1708615841
 31
0.0
  0
LINE
  5
1C1
100
AcDbEntity
  8
2919__ FRÄSE - MITTENAUFSPANNUNG
390
0
 62
       252
100
AcDbLine
 10
250.9482642967
 20
239.1652368235
 30
0.0
 11
265.9482642967
 21
239.1652368235
 31
0.0
  0
LINE
  5
1C2
100
AcDbEntity
  8
2919__ FRÄSE - MITTENAUFSPANNUNG
390
0
 62
       252
100
AcDbLine
 10
190.9482642967
 20
264.1652368235
 30
0.0
 11
205.9482642967
 21
264.1652368235
 31
0.0
  0
LINE
  5
1C3
100
AcDbEntity
  8
2919__ FRÄSE - MITTENAUFSPANNUNG
390
0
 62
       252
100
AcDbLine
 10
205.9482642967
 20
264.1652368235
 30
0.0
 11
205.9482642967
 21
249.1652368235
 31
0.0
  0
LINE
  5
1C4
100
AcDbEntity
  8
2919__ FRÄSE - MITTENAUFSPANNUNG
390
0
 62
       252
100
AcDbLine
 10
325.9482642967
 20
129.1708615841
 30
0.0
 11
325.9482642967
 21
114.1708615841
 31
0.0
  0
LINE
  5
1C5
100
AcDbEntity
  8
2919__ FRÄSE - MITTENAUFSPANNUNG
390
0
 62
       252
100
AcDbLine
 10
370.9482642967
 20
214.1708615841
 30
0.0
 11
385.9482642967
 21
214.1708615841
 31
0.0
  0
LINE
  5
1C6
100
AcDbEntity
  8
2919__ FRÄSE - MITTENAUFSPANNUNG
390
0
 62
       252
100
AcDbLine
 10
370.9482642967
 20
199.1708615841
 30
0.0
 11
370.9482642967
 21
214.1708615841
 31
0.0
  0
LINE
  5
1C7
100
AcDbEntity
  8
2919__ FRÄSE - MITTENAUFSPANNUNG
390
0
 62
       252
100
AcDbLine
 10
115.9482642967
 20
289.1652368235
 30
0.0
 11
115.9482642967
 21
274.1652368235
 31
0.0
  0
LINE
  5
1C8
100
AcDbEntity
  8
2919__ FRÄSE - MITTENAUFSPANNUNG
390
0
 62
       252
100
AcDbLine
 10
340.9482642967
 20
214.1708615841
 30
0.0
 11
355.9482642967
 21
214.1708615841
 31
0.0
  0
LINE
  5
1C9
100
AcDbEntity
  8
2919__ FRÄSE - MITTENAUFSPANNUNG
390
0
 62
       252
100
AcDbLine
 10
235.9482642967
 20
264.1652368235
 30
0.0
 11
235.9482642967
 21
249.1652368235
 31
0.0
  0
LINE
  5
1CA
100
AcDbEntity
  8
2919__ FRÄSE - MITTENAUFSPANNUNG
390
0
 62
       252
100
AcDbLine
 10
220.9482642967
 20
249.1652368235
 30
0.0
 11
220.9482642967
 21
264.1652368235
 31
0.0
  0
LINE
  5
1CB
100
AcDbEntity
  8
2919__ FRÄSE - MITTENAUFSPANNUNG
390
0
 62
       252
100
AcDbLine
 10
100.9482642967
 20
274.1652368235
 30
0.0
 11
100.9482642967
 21
289.1652368235
 31
0.0
  0
LINE
  5
1CC
100
AcDbEntity
  8
2919__ FRÄSE - MITTENAUFSPANNUNG
390
0
 62
       252
100
AcDbLine
 10
205.9482642967
 20
249.1652368235
 30
0.0
 11
190.9482642967
 21
249.1652368235
 31
0.0
  0
LINE
  5
1CD
100
AcDbEntity
  8
2919__ FRÄSE - MITTENAUFSPANNUNG
390
0
 62
       252
100
AcDbLine
 10
190.9482642967
 20
249.1652368235
 30
0.0
 11
190.9482642967
 21
264.1652368235
 31
0.0
  0
LINE
  5
1CE
100
AcDbEntity
  8
2919__ FRÄSE - MITTENAUFSPANNUNG
390
0
 62
       252
100
AcDbLine
 10
115.9482642967
 20
274.1652368235
 30
0.0
 11
100.9482642967
 21
274.1652368235
 31
0.0
  0
LINE
  5
1CF
100
AcDbEntity
  8
2919__ FRÄSE - MITTENAUFSPANNUNG
390
0
 62
       252
100
AcDbLine
 10
310.9482642967
 20
129.1708615841
 30
0.0
 11
325.9482642967
 21
129.1708615841
 31
0.0
  0
LINE
  5
1D0
100
AcDbEntity
  8
2919__ FRÄSE - MITTENAUFSPANNUNG
390
0
 62
       252
100
AcDbLine
 10
385.9482642967
 20
214.1708615841
 30
0.0
 11
385.9482642967
 21
199.1708615841
 31
0.0
  0
LINE
  5
1D1
100
AcDbEntity
  8
2913_1 AUFSPANNPLATTE
390
0
 62
         8
100
AcDbLine
 10
35.9482642967
 20
357.6652368235
 30
0.0
 11
50.9482642967
 21
357.6652368235
 31
0.0
  0
LINE
  5
1D2
100
AcDbEntity
  8
2913_1 AUFSPANNPLATTE
390
0
 62
         8
100
AcDbLine
 10
50.9482642967
 20
357.6652368235
 30
0.0
 11
50.9482642967
 21
300.1652368235
 31
0.0
  0
LINE
  5
1D3
100
AcDbEntity
  8
2913_1 AUFSPANNPLATTE
390
0
  6
BORDER
 62
         8
100
AcDbLine
 10
380.4975106962
 20
323.6652368235
 30
0.0
 11
75.496227204
 21
323.6652368235
 31
0.0
  0
LINE
  5
1D4
100
AcDbEntity
  8
2913_1 AUFSPANNPLATTE
390
0
  6
BORDER
 62
         8
100
AcDbLine
 10
380.4975106962
 20
83.6652368235
 30
0.0
 11
75.496227204
 21
83.6652368235
 31
0.0
  0
LINE
  5
1D5
100
AcDbEntity
  8
2919__ FRÄSE - MITTENAUFSPANNUNG
390
0
 62
       252
100
AcDbLine
 10
100.9482642967
 20
289.1652368235
 30
0.0
 11
115.9482642967
 21
289.1652368235
 31
0.0
  0
LINE
  5
1D6
100
AcDbEntity
  8
2919__ FRÄSE - MITTENAUFSPANNUNG
390
0
 62
       252
100
AcDbLine
 10
145.9482642967
 20
289.1652368235
 30
0.0
 11
145.9482642967
 21
274.1652368235
 31
0.0
  0
LINE
  5
1D7
100
AcDbEntity
  8
2919__ FRÄSE - MITTENAUFSPANNUNG
390
0
 62
       252
100
AcDbLine
 10
280.9482642967
 20
239.1652368235
 30
0.0
 11
295.9482642967
 21
239.1652368235
 31
0.0
  0
LINE
  5
1D8
100
AcDbEntity
  8
2919__ FRÄSE - MITTENAUFSPANNUNG
390
0
 62
       252
100
AcDbLine
 10
310.9482642967
 20
224.1652368235
 30
0.0
 11
310.9482642967
 21
239.1652368235
 31
0.0
  0
LINE
  5
1D9
100
AcDbEntity
  8
2919__ FRÄSE - MITTENAUFSPANNUNG
390
0
 62
       252
100
AcDbLine
 10
355.9482642967
 20
214.1708615841
 30
0.0
 11
355.9482642967
 21
199.1708615841
 31
0.0
  0
LINE
  5
1DA
100
AcDbEntity
  8
2919__ FRÄSE - MITTENAUFSPANNUNG
390
0
 62
       252
100
AcDbLine
 10
280.9482642967
 20
224.1652368235
 30
0.0
 11
280.9482642967
 21
239.1652368235
 31
0.0
  0
LINE
  5
1DB
100
AcDbEntity
  8
2919__ FRÄSE - MITTENAUFSPANNUNG
390
0
 62
       252
100
AcDbLine
 10
325.9482642967
 20
239.1652368235
 30
0.0
 11
325.9482642967
 21
224.1652368235
 31
0.0
  0
LINE
  5
1DC
100
AcDbEntity
  8
2919__ FRÄSE - MITTENAUFSPANNUNG
390
0
 62
       252
100
AcDbLine
 10
250.9482642967
 20
224.1652368235
 30
0.0
 11
250.9482642967
 21
239.1652368235
 31
0.0
  0
LINE
  5
1DD
100
AcDbEntity
  8
2919__ FRÄSE - MITTENAUFSPANNUNG
390
0
 62
       252
100
AcDbLine
 10
295.9482642967
 20
239.1652368235
 30
0.0
 11
295.9482642967
 21
224.1652368235
 31
0.0
  0
LINE
  5
1DE
100
AcDbEntity
  8
2919__ FRÄSE - MITTENAUFSPANNUNG
390
0
 62
       252
100
AcDbLine
 10
220.9482642967
 20
264.1652368235
 30
0.0
 11
235.9482642967
 21
264.1652368235
 31
0.0
  0
LINE
  5
1DF
100
AcDbEntity
  8
2919__ FRÄSE - MITTENAUFSPANNUNG
390
0
 62
       252
100
AcDbLine
 10
235.9482642967
 20
249.1652368235
 30
0.0
 11
220.9482642967
 21
249.1652368235
 31
0.0
  0
LINE
  5
1E0
100
AcDbEntity
  8
2919__ FRÄSE - MITTENAUFSPANNUNG
390
0
 62
       252
100
AcDbLine
 10
310.9482642967
 20
239.1652368235
 30
0.0
 11
325.9482642967
 21
239.1652368235
 31
0.0
  0
LINE
  5
1E1
100
AcDbEntity
  8
2919__ FRÄSE - MITTENAUFSPANNUNG
390
0
 62
       252
100
AcDbLine
 10
325.9482642967
 20
224.1652368235
 30
0.0
 11
310.9482642967
 21
224.1652368235
 31
0.0
  0
LINE
  5
1E2
100
AcDbEntity
  8
2919__ FRÄSE - MITTENAUFSPANNUNG
390
0
 62
       252
100
AcDbLine
 10
265.9482642967
 20
224.1652368235
 30
0.0
 11
250.9482642967
 21
224.1652368235
 31
0.0
  0
LINE
  5
1E3
100
AcDbEntity
  8
2919__ FRÄSE - MITTENAUFSPANNUNG
390
0
 62
       252
100
AcDbLine
 10
295.9482642967
 20
224.1652368235
 30
0.0
 11
280.9482642967
 21
224.1652368235
 31
0.0
  0
LINE
  5
1E4
100
AcDbEntity
  8
2913_1 AUFSPANNPLATTE
390
0
 62
         8
100
AcDbLine
 10
403.9482642967
 20
344.6652368235
 30
0.0
 11
53.9482642967
 21
344.6652368235
 31
0.0
  0
LINE
  5
1E5
100
AcDbEntity
  8
2913_1 AUFSPANNPLATTE
390
0
 62
         8
100
AcDbLine
 10
403.9482642967
 20
346.6652368235
 30
0.0
 11
53.9482642967
 21
346.6652368235
 31
0.0
  0
LINE
  5
1E6
100
AcDbEntity
  8
2913_1 AUFSPANNPLATTE
390
0
 62
         8
100
AcDbLine
 10
403.9482642967
 20
359.6652368235
 30
0.0
 11
53.9482642967
 21
359.6652368235
 31
0.0
  0
LINE
  5
1E7
100
AcDbEntity
  8
2913_1 AUFSPANNPLATTE
390
0
 62
         8
100
AcDbLine
 10
53.9482642967
 20
344.6652368235
 30
0.0
 11
53.9482642967
 21
359.6652368235
 31
0.0
  0
LINE
  5
1E8
100
AcDbEntity
  8
2913_1 AUFSPANNPLATTE
390
0
 62
         8
100
AcDbLine
 10
403.9482642967
 20
344.6652368235
 30
0.0
 11
403.9482642967
 21
359.6652368235
 31
0.0
  0
LINE
  5
1E9
100
AcDbEntity
  8
2913_1 AUFSPANNPLATTE
390
0
 62
         8
100
AcDbLine
 10
50.9482642967
 20
285.1652368235
 30
0.0
 11
50.9482642967
 21
47.6652368235
 31
0.0
  0
LINE
  5
1EA
100
AcDbEntity
  8
2919__ FRÄSE - MITTENAUFSPANNUNG
390
0
 62
       252
100
AcDbLine
 10
310.9482642967
 20
114.1708615841
 30
0.0
 11
310.9482642967
 21
129.1708615841
 31
0.0
  0
CIRCLE
  5
1EB
100
AcDbEntity
  8
2913_1 AUFSPANNPLATTE
390
0
 62
         8
100
AcDbCircle
 10
378.4482642967
 20
336.6652368235
 30
0.0
 40
2.5
  0
CIRCLE
  5
1EC
100
AcDbEntity
  8
2913_1 AUFSPANNPLATTE
390
0
 62
         8
100
AcDbCircle
 10
348.4482642967
 20
336.6652368235
 30
0.0
 40
2.5
  0
CIRCLE
  5
1ED
100
AcDbEntity
  8
2913_1 AUFSPANNPLATTE
390
0
 62
         8
100
AcDbCircle
 10
318.4482642967
 20
336.6652368235
 30
0.0
 40
2.5
  0
CIRCLE
  5
1EE
100
AcDbEntity
  8
2913_1 AUFSPANNPLATTE
390
0
 62
         8
100
AcDbCircle
 10
288.4482642967
 20
336.6652368235
 30
0.0
 40
2.5
  0
CIRCLE
  5
1EF
100
AcDbEntity
  8
2913_1 AUFSPANNPLATTE
390
0
 62
         8
100
AcDbCircle
 10
258.4482642967
 20
336.6652368235
 30
0.0
 40
2.5
  0
CIRCLE
  5
1F0
100
AcDbEntity
  8
2913_1 AUFSPANNPLATTE
390
0
 62
         8
100
AcDbCircle
 10
228.4482642967
 20
336.6652368235
 30
0.0
 40
2.5
  0
CIRCLE
  5
1F1
100
AcDbEntity
  8
2913_1 AUFSPANNPLATTE
390
0
 62
         8
100
AcDbCircle
 10
198.4482642967
 20
336.6652368235
 30
0.0
 40
2.5
  0
CIRCLE
  5
1F2
100
AcDbEntity
  8
2913_1 AUFSPANNPLATTE
390
0
 62
         8
100
AcDbCircle
 10
168.4482642967
 20
336.6652368235
 30
0.0
 40
2.5
  0
CIRCLE
  5
1F3
100
AcDbEntity
  8
2913_1 AUFSPANNPLATTE
390
0
 62
         8
100
AcDbCircle
 10
138.4482642967
 20
336.6652368235
 30
0.0
 40
2.5
  0
CIRCLE
  5
1F4
100
AcDbEntity
  8
2913_1 AUFSPANNPLATTE
390
0
 62
         8
100
AcDbCircle
 10
108.4482642967
 20
336.6652368235
 30
0.0
 40
2.5
  0
CIRCLE
  5
1F5
100
AcDbEntity
  8
2913_1 AUFSPANNPLATTE
390
0
 62
         8
100
AcDbCircle
 10
78.4482642967
 20
336.6652368235
 30
0.0
 40
2.5
  0
CIRCLE
  5
1F6
100
AcDbEntity
  8
2913_1 AUFSPANNPLATTE
390
0
 62
         8
100
AcDbCircle
 10
378.4482642967
 20
46.6652368235
 30
0.0
 40
2.5
  0
CIRCLE
  5
1F7
100
AcDbEntity
  8
2913_1 AUFSPANNPLATTE
390
0
 62
         8
100
AcDbCircle
 10
348.4482642967
 20
46.6652368235
 30
0.0
 40
2.5
  0
CIRCLE
  5
1F8
100
AcDbEntity
  8
2913_1 AUFSPANNPLATTE
390
0
 62
         8
100
AcDbCircle
 10
318.4482642967
 20
46.6652368235
 30
0.0
 40
2.5
  0
CIRCLE
  5
1F9
100
AcDbEntity
  8
2913_1 AUFSPANNPLATTE
390
0
 62
         8
100
AcDbCircle
 10
288.4482642967
 20
46.6652368235
 30
0.0
 40
2.5
  0
CIRCLE
  5
1FA
100
AcDbEntity
  8
2913_1 AUFSPANNPLATTE
390
0
 62
         8
100
AcDbCircle
 10
258.4482642967
 20
46.6652368235
 30
0.0
 40
2.5
  0
CIRCLE
  5
1FB
100
AcDbEntity
  8
2913_1 AUFSPANNPLATTE
390
0
 62
         8
100
AcDbCircle
 10
228.4482642967
 20
46.6652368235
 30
0.0
 40
2.5
  0
CIRCLE
  5
1FC
100
AcDbEntity
  8
2913_1 AUFSPANNPLATTE
390
0
 62
         8
100
AcDbCircle
 10
198.4482642967
 20
46.6652368235
 30
0.0
 40
2.5
  0
CIRCLE
  5
1FD
100
AcDbEntity
  8
2913_1 AUFSPANNPLATTE
390
0
 62
         8
100
AcDbCircle
 10
168.4482642967
 20
46.6652368235
 30
0.0
 40
2.5
  0
CIRCLE
  5
1FE
100
AcDbEntity
  8
2913_1 AUFSPANNPLATTE
390
0
 62
         8
100
AcDbCircle
 10
138.4482642967
 20
46.6652368235
 30
0.0
 40
2.5
  0
CIRCLE
  5
1FF
100
AcDbEntity
  8
2913_1 AUFSPANNPLATTE
390
0
 62
         8
100
AcDbCircle
 10
108.4482642967
 20
46.6652368235
 30
0.0
 40
2.5
  0
CIRCLE
  5
200
100
AcDbEntity
  8
2913_1 AUFSPANNPLATTE
390
0
 62
         8
100
AcDbCircle
 10
78.4482642967
 20
46.6652368235
 30
0.0
 40
2.5
  0
CIRCLE
  5
201
100
AcDbEntity
  8
2913_1 AUFSPANNPLATTE
390
0
 62
         8
100
AcDbCircle
 10
228.4482642967
 20
256.6652368235
 30
0.0
 40
2.5
  0
CIRCLE
  5
202
100
AcDbEntity
  8
2913_1 AUFSPANNPLATTE
390
0
 62
         8
100
AcDbCircle
 10
198.4482642967
 20
256.6652368235
 30
0.0
 40
2.5
  0
CIRCLE
  5
203
100
AcDbEntity
  8
2913_1 AUFSPANNPLATTE
390
0
 62
         8
100
AcDbCircle
 10
168.4482642967
 20
256.6652368235
 30
0.0
 40
2.5
  0
CIRCLE
  5
204
100
AcDbEntity
  8
2913_1 AUFSPANNPLATTE
390
0
 62
         8
100
AcDbCircle
 10
318.4482642967
 20
231.6652368235
 30
0.0
 40
2.5
  0
CIRCLE
  5
205
100
AcDbEntity
  8
2913_1 AUFSPANNPLATTE
390
0
 62
         8
100
AcDbCircle
 10
288.4482642967
 20
231.6652368235
 30
0.0
 40
2.5
  0
CIRCLE
  5
206
100
AcDbEntity
  8
2913_1 AUFSPANNPLATTE
390
0
 62
         8
100
AcDbCircle
 10
258.4482642967
 20
231.6652368235
 30
0.0
 40
2.5
  0
CIRCLE
  5
207
100
AcDbEntity
  8
2913_1 AUFSPANNPLATTE
390
0
 62
         8
100
AcDbCircle
 10
78.4482642967
 20
206.6708615841
 30
0.0
 40
2.5
  0
CIRCLE
  5
208
100
AcDbEntity
  8
2913_1 AUFSPANNPLATTE
390
0
 62
         8
100
AcDbCircle
 10
228.4482642967
 20
146.6708615841
 30
0.0
 40
2.5
  0
CIRCLE
  5
209
100
AcDbEntity
  8
2913_1 AUFSPANNPLATTE
390
0
 62
         8
100
AcDbCircle
 10
258.4482642967
 20
146.6708615841
 30
0.0
 40
2.5
  0
CIRCLE
  5
20A
100
AcDbEntity
  8
2913_1 AUFSPANNPLATTE
390
0
 62
         8
100
AcDbCircle
 10
288.4482642967
 20
146.6708615841
 30
0.0
 40
2.5
  0
CIRCLE
  5
20B
100
AcDbEntity
  8
2913_1 AUFSPANNPLATTE
390
0
 62
         8
100
AcDbCircle
 10
108.4482642967
 20
206.6708615841
 30
0.0
 40
2.5
  0
CIRCLE
  5
20C
100
AcDbEntity
  8
2913_1 AUFSPANNPLATTE
390
0
 62
         8
100
AcDbCircle
 10
348.4482642967
 20
121.6708615841
 30
0.0
 40
2.5
  0
CIRCLE
  5
20D
100
AcDbEntity
  8
2913_1 AUFSPANNPLATTE
390
0
 62
         8
100
AcDbCircle
 10
378.4482642967
 20
121.6708615841
 30
0.0
 40
2.5
  0
CIRCLE
  5
20E
100
AcDbEntity
  8
2913_1 AUFSPANNPLATTE
390
0
 62
         8
100
AcDbCircle
 10
318.4482642967
 20
121.6708615841
 30
0.0
 40
2.5
  0
CIRCLE
  5
20F
100
AcDbEntity
  8
2913_1 AUFSPANNPLATTE
390
0
 62
         8
100
AcDbCircle
 10
61.9532642967
 20
352.1652368235
 30
0.0
 40
2.5
  0
CIRCLE
  5
210
100
AcDbEntity
  8
2913_1 AUFSPANNPLATTE
390
0
 62
         8
100
AcDbCircle
 10
57.9732642967
 20
134.6652368235
 30
0.0
 40
4.0
  0
CIRCLE
  5
211
100
AcDbEntity
  8
2913_1 AUFSPANNPLATTE
390
0
 62
         8
100
AcDbCircle
 10
57.9732642967
 20
270.6652368235
 30
0.0
 40
4.0
  0
CIRCLE
  5
212
100
AcDbEntity
  8
2913_1 AUFSPANNPLATTE
390
0
 62
         8
100
AcDbCircle
 10
402.9482642967
 20
270.6652368235
 30
0.0
 40
4.0
  0
CIRCLE
  5
213
100
AcDbEntity
  8
2913_1 AUFSPANNPLATTE
390
0
 62
         8
100
AcDbCircle
 10
402.9482642967
 20
134.6652368235
 30
0.0
 40
4.0
  0
CIRCLE
  5
214
100
AcDbEntity
  8
2913_1 AUFSPANNPLATTE
390
0
 62
         8
100
AcDbCircle
 10
123.4482642967
 20
57.6652368235
 30
0.0
 40
4.0
  0
CIRCLE
  5
215
100
AcDbEntity
  8
2913_1 AUFSPANNPLATTE
390
0
 62
         8
100
AcDbCircle
 10
303.4482642967
 20
57.6652368235
 30
0.0
 40
4.0
  0
CIRCLE
  5
216
100
AcDbEntity
  8
2913_1 AUFSPANNPLATTE
390
0
 62
         8
100
AcDbCircle
 10
303.4482642967
 20
347.6652368235
 30
0.0
 40
4.0
  0
CIRCLE
  5
217
100
AcDbEntity
  8
2913_1 AUFSPANNPLATTE
390
0
 62
         8
100
AcDbCircle
 10
123.4482642967
 20
347.6652368235
 30
0.0
 40
4.0
  0
CIRCLE
  5
218
100
AcDbEntity
  8
2913_1 AUFSPANNPLATTE
390
0
 62
         8
100
AcDbCircle
 10
243.4482642967
 20
352.1652368235
 30
0.0
 40
2.5
  0
CIRCLE
  5
219
100
AcDbEntity
  8
2913_1 AUFSPANNPLATTE
390
0
 62
         8
100
AcDbCircle
 10
395.9482642967
 20
352.1652368235
 30
0.0
 40
2.5
  0
CIRCLE
  5
21A
100
AcDbEntity
  8
2913_1 AUFSPANNPLATTE
390
0
 62
         8
100
AcDbCircle
 10
402.9482642967
 20
323.6652368235
 30
0.0
 40
2.5
  0
CIRCLE
  5
21B
100
AcDbEntity
  8
2913_1 AUFSPANNPLATTE
390
0
 62
         8
100
AcDbCircle
 10
183.4482642967
 20
323.6652368235
 30
0.0
 40
2.5
  0
CIRCLE
  5
21C
100
AcDbEntity
  8
2913_1 AUFSPANNPLATTE
390
0
 62
         8
100
AcDbCircle
 10
303.4482642967
 20
323.6652368235
 30
0.0
 40
2.5
  0
CIRCLE
  5
21D
100
AcDbEntity
  8
2913_1 AUFSPANNPLATTE
390
0
 62
         8
100
AcDbCircle
 10
60.9532642967
 20
323.6652368235
 30
0.0
 40
2.5
  0
CIRCLE
  5
21E
100
AcDbEntity
  8
2913_1 AUFSPANNPLATTE
390
0
 62
         8
100
AcDbCircle
 10
78.4482642967
 20
96.6652368235
 30
0.0
 40
2.5
  0
CIRCLE
  5
21F
100
AcDbEntity
  8
2913_1 AUFSPANNPLATTE
390
0
 62
         8
100
AcDbCircle
 10
108.4482642967
 20
96.6652368235
 30
0.0
 40
2.5
  0
CIRCLE
  5
220
100
AcDbEntity
  8
2913_1 AUFSPANNPLATTE
390
0
 62
         8
100
AcDbCircle
 10
138.4482642967
 20
96.6652368235
 30
0.0
 40
2.5
  0
CIRCLE
  5
221
100
AcDbEntity
  8
2913_1 AUFSPANNPLATTE
390
0
 62
         8
100
AcDbCircle
 10
168.4482642967
 20
96.6652368235
 30
0.0
 40
2.5
  0
CIRCLE
  5
222
100
AcDbEntity
  8
2913_1 AUFSPANNPLATTE
390
0
 62
         8
100
AcDbCircle
 10
198.4482642967
 20
96.6652368235
 30
0.0
 40
2.5
  0
CIRCLE
  5
223
100
AcDbEntity
  8
2913_1 AUFSPANNPLATTE
390
0
 62
         8
100
AcDbCircle
 10
138.4482642967
 20
281.6652368235
 30
0.0
 40
2.5
  0
CIRCLE
  5
224
100
AcDbEntity
  8
2913_1 AUFSPANNPLATTE
390
0
 62
         8
100
AcDbCircle
 10
108.4482642967
 20
281.6652368235
 30
0.0
 40
2.5
  0
CIRCLE
  5
225
100
AcDbEntity
  8
2913_1 AUFSPANNPLATTE
390
0
 62
         8
100
AcDbCircle
 10
78.4482642967
 20
281.6652368235
 30
0.0
 40
2.5
  0
CIRCLE
  5
226
100
AcDbEntity
  8
2913_1 AUFSPANNPLATTE
390
0
 62
         8
100
AcDbCircle
 10
213.4482642967
 20
228.6652368235
 30
0.0
 40
4.0
  0
ARC
  5
227
100
AcDbEntity
  8
2913_1 AUFSPANNPLATTE
390
0
 62
         8
100
AcDbCircle
 10
50.9482642967
 20
292.6652368235
 30
0.0
 40
7.5
100
AcDbArc
 50
90.0
 51
270.0
  0
CIRCLE
  5
228
100
AcDbEntity
  8
2913_1 AUFSPANNPLATTE
390
0
 62
         8
100
AcDbCircle
 10
138.4482642967
 20
206.6708615841
 30
0.0
 40
2.5
  0
LINE
  5
229
100
AcDbEntity
  8
2919__ FRÄSE - MITTENAUFSPANNUNG
390
0
 62
       252
100
AcDbLine
 10
205.9482642967
 20
184.1708615841
 30
0.0
 11
205.9482642967
 21
169.1708615841
 31
0.0
  0
LINE
  5
22A
100
AcDbEntity
  8
2919__ FRÄSE - MITTENAUFSPANNUNG
390
0
 62
       252
100
AcDbLine
 10
205.9482642967
 20
169.1708615841
 30
0.0
 11
190.9482642967
 21
169.1708615841
 31
0.0
  0
LINE
  5
22B
100
AcDbEntity
  8
2919__ FRÄSE - MITTENAUFSPANNUNG
390
0
 62
       252
100
AcDbLine
 10
250.9482642967
 20
139.1708615841
 30
0.0
 11
250.9482642967
 21
154.1708615841
 31
0.0
  0
LINE
  5
22C
100
AcDbEntity
  8
2919__ FRÄSE - MITTENAUFSPANNUNG
390
0
 62
       252
100
AcDbLine
 10
250.9482642967
 20
154.1708615841
 30
0.0
 11
265.9482642967
 21
154.1708615841
 31
0.0
  0
LINE
  5
22D
100
AcDbEntity
  8
2919__ FRÄSE - MITTENAUFSPANNUNG
390
0
 62
       252
100
AcDbLine
 10
295.9482642967
 20
154.1708615841
 30
0.0
 11
295.9482642967
 21
139.1708615841
 31
0.0
  0
LINE
  5
22E
100
AcDbEntity
  8
2919__ FRÄSE - MITTENAUFSPANNUNG
390
0
 62
       252
100
AcDbLine
 10
265.9482642967
 20
154.1708615841
 30
0.0
 11
265.9482642967
 21
139.1708615841
 31
0.0
  0
LINE
  5
22F
100
AcDbEntity
  8
2919__ FRÄSE - MITTENAUFSPANNUNG
390
0
 62
       252
100
AcDbLine
 10
190.9482642967
 20
184.1708615841
 30
0.0
 11
205.9482642967
 21
184.1708615841
 31
0.0
  0
LINE
  5
230
100
AcDbEntity
  8
2919__ FRÄSE - MITTENAUFSPANNUNG
390
0
 62
       252
100
AcDbLine
 10
265.9482642967
 20
139.1708615841
 30
0.0
 11
250.9482642967
 21
139.1708615841
 31
0.0
  0
LINE
  5
231
100
AcDbEntity
  8
2919__ FRÄSE - MITTENAUFSPANNUNG
390
0
 62
       252
100
AcDbLine
 10
190.9482642967
 20
169.1708615841
 30
0.0
 11
190.9482642967
 21
184.1708615841
 31
0.0
  0
TEXT
  5
232
100
AcDbEntity
  8
BESCHRIFTUNG
390
0
100
AcDbText
 10
21.0336196678
 20
175.2213523381
 30
0.0
 40
6.0
  1
160
 41
0.9728283778
  7
Arial
100
AcDbText
  0
TEXT
  5
233
100
AcDbEntity
  8
BESCHRIFTUNG
390
0
100
AcDbText
 10
391.064640076
 20
175.2213523381
 30
0.0
 40
6.0
  1
160
 41
0.9728283778
  7
Arial
100
AcDbText
  0
CIRCLE
  5
234
100
AcDbEntity
  8
2913_1 AUFSPANNPLATTE
390
0
 62
         8
100
AcDbCircle
 10
168.4482642967
 20
176.6708615841
 30
0.0
 40
2.5
  0
LINE
  5
235
100
AcDbEntity
  8
MITTELLINIEN
390
0
100
AcDbLine
 10
70.9482642967
 20
382.6624244432
 30
0.0
 11
70.9482642967
 21
22.6624244432
 31
0.0
  0
LINE
  5
236
100
AcDbEntity
  8
MITTELLINIEN
390
0
100
AcDbLine
 10
100.9482642967
 20
382.6624244432
 30
0.0
 11
100.9482642967
 21
22.6624244432
 31
0.0
  0
LINE
  5
237
100
AcDbEntity
  8
MITTELLINIEN
390
0
100
AcDbLine
 10
130.9482642967
 20
382.6624244432
 30
0.0
 11
130.9482642967
 21
22.6624244432
 31
0.0
  0
LINE
  5
238
100
AcDbEntity
  8
MITTELLINIEN
390
0
100
AcDbLine
 10
160.9482642967
 20
382.6624244432
 30
0.0
 11
160.9482642967
 21
22.6624244432
 31
0.0
  0
LINE
  5
239
100
AcDbEntity
  8
MITTELLINIEN
390
0
100
AcDbLine
 10
190.9482642967
 20
382.6624244432
 30
0.0
 11
190.9482642967
 21
22.6624244432
 31
0.0
  0
LINE
  5
23A
100
AcDbEntity
  8
MITTELLINIEN
370
        50
390
0
 62
       154
100
AcDbLine
 10
220.9482642967
 20
382.6624244432
 30
0.0
 11
220.9482642967
 21
22.6624244432
 31
0.0
  0
LINE
  5
23B
100
AcDbEntity
  8
MITTELLINIEN
390
0
100
AcDbLine
 10
250.9482642967
 20
382.6624244432
 30
0.0
 11
250.9482642967
 21
22.6624244432
 31
0.0
  0
LINE
  5
23C
100
AcDbEntity
  8
MITTELLINIEN
390
0
100
AcDbLine
 10
280.9482642967
 20
382.6624244432
 30
0.0
 11
280.9482642967
 21
22.6624244432
 31
0.0
  0
LINE
  5
23D
100
AcDbEntity
  8
MITTELLINIEN
390
0
100
AcDbLine
 10
310.9482642967
 20
382.6624244432
 30
0.0
 11
310.9482642967
 21
22.6624244432
 31
0.0
  0
LINE
  5
23E
100
AcDbEntity
  8
MITTELLINIEN
390
0
100
AcDbLine
 10
340.9482642967
 20
382.6624244432
 30
0.0
 11
340.9482642967
 21
22.6624244432
 31
0.0
  0
LINE
  5
23F
100
AcDbEntity
  8
MITTELLINIEN
390
0
100
AcDbLine
 10
370.9482642967
 20
382.6624244432
 30
0.0
 11
370.9482642967
 21
22.6624244432
 31
0.0
  0
CIRCLE
  5
240
100
AcDbEntity
  8
8006_1L
390
0
  6
PHANTOM
100
AcDbCircle
 10
50.9482642967
 20
292.6652368235
 30
0.0
 40
0.5
  0
TEXT
  5
241
100
AcDbEntity
  8
8006_1L
390
0
  6
PHANTOM
100
AcDbText
 10
42.9028860962
 20
289.0854310631
 30
0.0
 40
6.0
  1
O2 T5
 41
0.6485786663
  7
Arial
100
AcDbText
  0
TEXT
  5
242
100
AcDbEntity
  8
BESCHRIFTUNG
390
0
100
AcDbText
 10
65.4616943522
 20
13.3419269103
 30
0.0
 40
6.0
  1
15x15x1
 41
0.8108682541
  7
Arial
100
AcDbText
  0
TEXT
  5
243
100
AcDbEntity
  8
BESCHRIFTUNG
390
0
100
AcDbText
 10
95.4616943522
 20
13.3419269103
 30
0.0
 40
6.0
  1
15x15x1
 41
0.8108682541
  7
Arial
100
AcDbText
  0
TEXT
  5
244
100
AcDbEntity
  8
BESCHRIFTUNG
390
0
100
AcDbText
 10
125.4616943522
 20
13.3419269103
 30
0.0
 40
6.0
  1
60x2
 41
0.8108682215
  7
Arial
100
AcDbText
  0
TEXT
  5
245
100
AcDbEntity
  8
BESCHRIFTUNG
390
0
100
AcDbText
 10
155.4616943522
 20
13.3419269103
 30
0.0
 40
6.0
  1
...
 41
0.8108659762
  7
Arial
100
AcDbText
  0
TEXT
  5
246
100
AcDbEntity
  8
BESCHRIFTUNG
390
0
100
AcDbText
 10
185.4616943522
 20
13.3419269103
 30
0.0
 40
6.0
  1
...
 41
0.8108659762
  7
Arial
100
AcDbText
  0
TEXT
  5
247
100
AcDbEntity
  8
BESCHRIFTUNG
390
0
100
AcDbText
 10
215.4616943522
 20
13.3419269103
 30
0.0
 40
6.0
  1
60x2
 41
0.8108682215
  7
Arial
100
AcDbText
  0
TEXT
  5
248
100
AcDbEntity
  8
BESCHRIFTUNG
390
0
100
AcDbText
 10
245.4616943522
 20
13.3419269103
 30
0.0
 40
6.0
  1
...
 41
0.8108659762
  7
Arial
100
AcDbText
  0
TEXT
  5
249
100
AcDbEntity
  8
BESCHRIFTUNG
390
0
100
AcDbText
 10
275.4616943522
 20
13.3419269103
 30
0.0
 40
6.0
  1
...
 41
0.8108659762
  7
Arial
100
AcDbText
  0
TEXT
  5
24A
100
AcDbEntity
  8
BESCHRIFTUNG
390
0
100
AcDbText
 10
305.4616943522
 20
13.3419269103
 30
0.0
 40
6.0
  1
---
 41
0.8108617741
  7
Arial
100
AcDbText
  0
TEXT
  5
24B
100
AcDbEntity
  8
BESCHRIFTUNG
390
0
100
AcDbText
 10
335.4616943522
 20
13.3419269103
 30
0.0
 40
6.0
  1
---
 41
0.8108617741
  7
Arial
100
AcDbText
  0
TEXT
  5
24C
100
AcDbEntity
  8
BESCHRIFTUNG
390
0
100
AcDbText
 10
365.4616943522
 20
13.3419269103
 30
0.0
 40
6.0
  1
---
 41
0.8108617741
  7
Arial
100
AcDbText
  0
TEXT
  5
24D
100
AcDbEntity
  8
BESCHRIFTUNG
390
0
100
AcDbText
 10
446.4057352941
 20
355.3508823529
 30
0.0
 40
6.0
  1
15
 41
1.1351451551
  7
Arial
100
AcDbText
  0
TEXT
  5
24E
100
AcDbEntity
  8
BESCHRIFTUNG
390
0
100
AcDbText
 10
466.9919117647
 20
355.9747058824
 30
0.0
 40
6.0
  1
20
 41
1.1351447168
  7
Arial
100
AcDbText
  0
ARC
  5
24F
100
AcDbEntity
  8
BESCHRIFTUNG
390
0
  6
DASHED
100
AcDbCircle
 10
449.9191331924
 20
358.6305647841
 30
0.0
 40
7.5032759329
100
AcDbArc
 50
88.3068498591
 51
271.6931501409
  0
ARC
  5
250
100
AcDbEntity
  8
BESCHRIFTUNG
390
0
  6
DASHED
100
AcDbCircle
 10
471.783894426
 20
356.7949501661
 30
0.0
 40
10.4519501008
100
AcDbArc
 50
106.9107045064
 51
253.0892954936
  0
TEXT
  5
251
100
AcDbEntity
  8
BESCHRIFTUNG
390
0
100
AcDbText
 10
35.4616943522
 20
13.3419269103
 30
0.0
 40
6.0
  1
Halbzeug:
 41
0.8108677399
  7
Arial
100
AcDbText
  0
LINE
  5
252
100
AcDbEntity
  8
MITTELLINIEN
390
0
100
AcDbLine
 10
390.4975106962
 20
317.6652368235
 30
0.0
 11
65.496227204
 21
317.6652368235
 31
0.0
  0
LINE
  5
253
100
AcDbEntity
  8
MITTELLINIEN
390
0
100
AcDbLine
 10
414.0365097572
 20
344.6652368235
 30
0.0
 11
43.8930649449
 21
344.6652368235
 31
0.0
  0
CIRCLE
  5
254
100
AcDbEntity
  8
8006_1L
390
0
  6
PHANTOM
100
AcDbCircle
 10
50.9482642967
 20
297.6652368235
 30
0.0
 40
1.0
  0
LINE
  5
255
100
AcDbEntity
  8
MITTELLINIEN
390
0
100
AcDbLine
 10
50.9482642967
 20
367.6652368235
 30
0.0
 11
50.9482642967
 21
37.6652368235
 31
0.0
  0
LINE
  5
256
100
AcDbEntity
  8
MITTELLINIEN
390
0
100
AcDbLine
 10
390.4975106962
 20
327.6652368235
 30
0.0
 11
65.496227204
 21
327.6652368235
 31
0.0
  0
MTEXT
  5
257
100
AcDbEntity
  8
BESCHRIFTUNG
390
0
100
AcDbMText
 10
490.1794897766
 20
380.7539978726
 30
0.0
 40
6.0
 41
0.0
 71
         1
 72
         1
  1
\W1.135063;Stückliste 1084 L:\P\PBauteil1:\P15x15x2\P  2x 2052.1L\P\P15x15x1\P  2x 2052.4L\P\PBauteil2:\P25x2 oder 50x2\P  2x 2053.2P\P
  7
Arial
 73
         1
 44
0.66
  0
MTEXT
  5
258
100
AcDbEntity
  8
2053___ SCHLÜSSEL MIT DORN
390
0
100
AcDbMText
 10
-117.1704733976
 20
251.7983215277
 30
0.0
 40
4.0
 41
0.0
 71
         7
 72
         1
  1
\W1.135110;>2053.1P\PM25x2 T2 O2
  7
Arial
 73
         1
 44
0.66
  0
ARC
  5
259
100
AcDbEntity
  8
2053___ SCHLÜSSEL MIT DORN
390
0
  6
DASHDOT
100
AcDbCircle
 10
-90.3792383314
 20
218.6247574432
 30
0.0
 40
21.6674547643
100
AcDbArc
 50
141.4604825965
 51
218.5395174035
  0
ARC
  5
25A
100
AcDbEntity
  8
2053___ SCHLÜSSEL MIT DORN
390
0
  6
DASHDOT
100
AcDbCircle
 10
-96.5821918818
 20
260.8532928455
 30
0.0
 40
17.3217284189
100
AcDbArc
 50
128.797257958
 51
231.202742042
  0
ARC
  5
25B
100
AcDbEntity
  8
2052___ SCHLOSS MIT DORN L
390
0
  6
DASHDOT
100
AcDbCircle
 10
-125.248153452
 20
168.9461882938
 30
0.0
 40
53.2104226723
100
AcDbArc
 50
150.130729093
 51
209.869270907
  0
ARC
  5
25C
100
AcDbEntity
  8
2052___ SCHLOSS MIT DORN R
390
0
  6
DASHDOT
100
AcDbCircle
 10
-244.782231011
 20
77.1686067962
 30
0.0
 40
98.0784420733
100
AcDbArc
 50
334.3211380482
 51
385.6788619518
  0
ARC
  5
25D
100
AcDbEntity
  8
2052___ SCHLOSS MIT DORN L
390
0
  6
DASHDOT
100
AcDbCircle
 10
-90.3153944066
 20
162.8475776485
 30
0.0
 40
35.5909909826
100
AcDbArc
 50
148.2150390556
 51
211.7849609444
  0
ARC
  5
25E
100
AcDbEntity
  8
2052___ SCHLOSS MIT DORN L
390
0
  6
DASHDOT
100
AcDbCircle
 10
-60.9247055111
 20
77.1686067962
 30
0.0
 40
118.3592028549
100
AcDbArc
 50
158.9565127462
 51
201.0434872538
  0
ARC
  5
25F
100
AcDbEntity
  8
2052___ SCHLOSS MIT DORN L
390
0
  6
DASHDOT
100
AcDbCircle
 10
-100.4895722152
 20
241.2234705882
 30
0.0
 40
75.6912500935
100
AcDbArc
 50
159.5061696428
 51
200.4938303572
  0
ARC
  5
260
100
AcDbEntity
  8
2052___ SCHLOSS MIT DORN R
390
0
  6
DASHDOT
100
AcDbCircle
 10
-125.3689598741
 20
162.8475776485
 30
0.0
 40
27.2670585554
100
AcDbArc
 50
316.5650446417
 51
403.4349553583
  0
ARC
  5
261
100
AcDbEntity
  8
2052___ SCHLOSS MIT DORN R
390
0
  6
DASHDOT
100
AcDbCircle
 10
-175.0284951034
 20
168.9461882938
 30
0.0
 40
32.3980208358
100
AcDbArc
 50
305.1197762617
 51
414.8802237383
  0
ARC
  5
262
100
AcDbEntity
  8
2052___ SCHLOSS MIT DORN R
390
0
  6
DASHDOT
100
AcDbCircle
 10
-166.9311809631
 20
241.2234705882
 30
0.0
 40
28.5194644634
100
AcDbArc
 50
291.6911056149
 51
428.3088943851
  0
ARC
  5
263
100
AcDbEntity
  8
2052___ SCHLOSS MIT DORN L
390
0
  6
DASHDOT
100
AcDbCircle
 10
-46.1357784496
 20
220.0100693429
 30
0.0
 40
21.3713799407
100
AcDbArc
 50
140.8253828335
 51
219.1746171665
  0
ARC
  5
264
100
AcDbEntity
  8
2052___ SCHLOSS MIT DORN L
390
0
  6
DASHDOT
100
AcDbCircle
 10
-46.1357784496
 20
180.0100693429
 30
0.0
 40
21.3713799407
100
AcDbArc
 50
140.8253828335
 51
219.1746171665
  0
ARC
  5
265
100
AcDbEntity
  8
2052___ SCHLOSS MIT DORN L
390
0
  6
DASHDOT
100
AcDbCircle
 10
-46.1357784496
 20
140.0100693429
 30
0.0
 40
21.3713799407
100
AcDbArc
 50
140.8253828335
 51
219.1746171665
  0
ARC
  5
266
100
AcDbEntity
  8
2052___ SCHLOSS MIT DORN L
390
0
  6
DASHDOT
100
AcDbCircle
 10
-46.1357784496
 20
100.0100693429
 30
0.0
 40
21.3713799407
100
AcDbArc
 50
140.8253828335
 51
219.1746171665
  0
ARC
  5
267
100
AcDbEntity
  8
2052___ SCHLOSS MIT DORN L
390
0
  6
DASHDOT
100
AcDbCircle
 10
-46.1357784496
 20
60.0100693429
 30
0.0
 40
21.3713799407
100
AcDbArc
 50
140.8253828335
 51
219.1746171665
  0
ARC
  5
268
100
AcDbEntity
  8
2052___ SCHLOSS MIT DORN L
390
0
  6
DASHDOT
100
AcDbCircle
 10
-28.1795248344
 20
267.2959501783
 30
0.0
 40
17.9488393446
100
AcDbArc
 50
210.2806844506
 51
329.7193155494
  0
MTEXT
  5
269
100
AcDbEntity
  8
2053___ SCHLÜSSEL MIT DORN
390
0
100
AcDbMText
 10
-116.995073104
 20
210.08981459
 30
0.0
 40
4.0
 41
0.0
 71
         7
 72
         1
  1
\W1.135110;>2053.2P\PM25x2 T2 O2
  7
Arial
 11
1.0
 21
0.0
 31
0.0
 73
         1
 44
0.66
  0
MTEXT
  5
26A
100
AcDbEntity
  8
2052___ SCHLOSS MIT DORN L
390
0
100
AcDbMText
 10
-182.2975819924
 20
236.8347609352
 30
0.0
 40
4.0
 41
0.0
 71
         7
 72
         1
  1
\W1.135145;>2052.1L\PM15x15x2\PT2 O2
  7
Arial
 11
1.0
 21
0.0
 31
0.0
 73
         1
 44
0.66
  0
MTEXT
  5
26B
100
AcDbEntity
  8
2052___ SCHLOSS MIT DORN R
390
0
100
AcDbMText
 10
-141.996249207
 20
240.4098791662
 30
0.0
 40
4.0
 41
0.0
 71
         7
 72
         1
  1
\W1.135110;>2052.1R\PM15x15x2\PT2 O2
  7
Arial
 11
1.0
 21
0.0
 31
0.0
 73
         1
 44
0.66
  0
MTEXT
  5
26C
100
AcDbEntity
  8
2052___ SCHLOSS MIT DORN R
390
0
100
AcDbMText
 10
-146.8429207188
 20
170.15606571
 30
0.0
 40
4.0
 41
0.0
 71
         7
 72
         1
  1
\W1.135110;>2052.2R\PM15x15x2\PT2 O2
  7
Arial
 11
1.0
 21
0.0
 31
0.0
 73
         1
 44
0.66
  0
MTEXT
  5
26D
100
AcDbEntity
  8
2052___ SCHLOSS MIT DORN L
390
0
100
AcDbMText
 10
-183.5976249855
 20
164.357364071
 30
0.0
 40
4.0
 41
0.0
 71
         7
 72
         1
  1
\W1.135145;>2052.2L\PM15x15x2\PT2 O2
  7
Arial
 11
1.0
 21
0.0
 31
0.0
 73
         1
 44
0.66
  0
MTEXT
  5
26E
100
AcDbEntity
  8
2052___ SCHLOSS MIT DORN L
390
0
100
AcDbMText
 10
-184.5726572303
 20
76.9067674447
 30
0.0
 40
4.0
 41
0.0
 71
         7
 72
         1
  1
\W1.135145;>2052.3L\PM15x15x2\PT2 O2
  7
Arial
 11
1.0
 21
0.0
 31
0.0
 73
         1
 44
0.66
  0
MTEXT
  5
26F
100
AcDbEntity
  8
2052___ SCHLOSS MIT DORN R
390
0
100
AcDbMText
 10
-152.2428455521
 20
71.0935512466
 30
0.0
 40
4.0
 41
0.0
 71
         7
 72
         1
  1
\W1.135110;>2052.3R\PM15x15x2\PT2 O2
  7
Arial
 11
1.0
 21
0.0
 31
0.0
 73
         1
 44
0.66
  0
MTEXT
  5
270
100
AcDbEntity
  8
2052___ SCHLOSS MIT DORN L
390
0
100
AcDbMText
 10
-132.9342939957
 20
158.4232516592
 30
0.0
 40
4.0
 41
0.0
 71
         7
 72
         1
  1
\W1.135145;>2052.4L\PM15x15x1\PT1 O2
  7
Arial
 11
1.0
 21
0.0
 31
0.0
 73
         1
 44
0.66
  0
MTEXT
  5
271
100
AcDbEntity
  8
2052___ SCHLOSS MIT DORN R
390
0
100
AcDbMText
 10
-100.9671190606
 20
155.4541770542
 30
0.0
 40
4.0
 41
0.0
 71
         7
 72
         1
  1
\W1.135110;>2052.4R\PM15x15x1\PT1 O2
  7
Arial
 11
1.0
 21
0.0
 31
0.0
 73
         1
 44
0.66
  0
MTEXT
  5
272
100
AcDbEntity
  8
2052___ SCHLOSS MIT DORN L
390
0
100
AcDbMText
 10
-76.3551075026
 20
221.5863890421
 30
0.0
 40
4.0
 41
0.0
 71
         7
 72
         1
  1
\W1.135110;>2053.3A\PM50+x2 T2 O2
  7
Arial
 73
         1
 44
0.66
  0
MTEXT
  5
273
100
AcDbEntity
  8
2052___ SCHLOSS MIT DORN L
390
0
100
AcDbMText
 10
-76.3551075026
 20
181.5863890421
 30
0.0
 40
4.0
 41
0.0
 71
         7
 72
         1
  1
\W1.135110;>2053.3B\PM50+x2 T2 O2
  7
Arial
 73
         1
 44
0.66
  0
MTEXT
  5
274
100
AcDbEntity
  8
2052___ SCHLOSS MIT DORN L
390
0
100
AcDbMText
 10
-76.3551075026
 20
141.5863890421
 30
0.0
 40
4.0
 41
0.0
 71
         7
 72
         1
  1
\W1.135111;>2053.3C\PM50+x2 T2 O2
  7
Arial
 73
         1
 44
0.66
  0
MTEXT
  5
275
100
AcDbEntity
  8
2052___ SCHLOSS MIT DORN L
390
0
100
AcDbMText
 10
-76.3551075026
 20
101.5863890421
 30
0.0
 40
4.0
 41
0.0
 71
         7
 72
         1
  1
\W1.135111;>2053.3D\PM50+x2 T2 O2
  7
Arial
 73
         1
 44
0.66
  0
MTEXT
  5
276
100
AcDbEntity
  8
2052___ SCHLOSS MIT DORN L
390
0
100
AcDbMText
 10
-76.3551075026
 20
61.5863890421
 30
0.0
 40
4.0
 41
0.0
 71
         7
 72
         1
  1
\W1.135110;>2053.3E\PM50+x2 T2 O2
  7
Arial
 73
         1
 44
0.66
  0
MTEXT
  5
277
100
AcDbEntity
  8
2052___ SCHLOSS MIT DORN L
390
0
100
AcDbMText
 10
-35.8629494713
 20
250.4689330383
 30
0.0
 40
4.0
 41
0.0
 71
         1
 72
         1
  1
\W1.135145;>2052.7L\PM50+x2 T2 O2
  7
Arial
 73
         1
 44
0.66
  0
ARC
  5
278
100
AcDbEntity
  8
8006_1L
390
0
  6
DASHDOT
100
AcDbCircle
 10
101.201709227
 20
308.9182981675
 30
0.0
 40
35.5909909826
100
AcDbArc
 50
148.2150390556
 51
211.7849609444
  0
MTEXT
  5
279
100
AcDbEntity
  8
8006_1L
390
0
100
AcDbMText
 10
58.5828096379
 20
304.4939721782
 30
0.0
 40
4.0
 41
0.0
 71
         7
 72
         1
  1
\W0.891683;>2052.4L\PM15x15x1\PT1 O2
  7
Arial
 11
1.0
 21
0.0
 31
0.0
 73
         1
 44
0.66
  0
ARC
  5
27A
100
AcDbEntity
  8
8006_1L
390
0
  6
DASHDOT
100
AcDbCircle
 10
101.201709227
 20
271.4244208554
 30
0.0
 40
35.5909909826
100
AcDbArc
 50
148.2150390556
 51
211.7849609444
  0
MTEXT
  5
27B
100
AcDbEntity
  8
8006_1L
390
0
100
AcDbMText
 10
58.5828096379
 20
267.0000948661
 30
0.0
 40
4.0
 41
0.0
 71
         7
 72
         1
  1
\W0.891683;>2052.4L\PM15x15x1\PT1 O2
  7
Arial
 11
1.0
 21
0.0
 31
0.0
 73
         1
 44
0.66
  0
ARC
  5
27C
100
AcDbEntity
  8
8006_1L
390
0
  6
DASHDOT
100
AcDbCircle
 10
101.201709227
 20
233.9305435433
 30
0.0
 40
35.5909909826
100
AcDbArc
 50
148.2150390556
 51
211.7849609444
  0
MTEXT
  5
27D
100
AcDbEntity
  8
8006_1L
390
0
100
AcDbMText
 10
58.5828096379
 20
229.506217554
 30
0.0
 40
4.0
 41
0.0
 71
         7
 72
         1
  1
\W0.891683;>2052.4L\PM15x15x1\PT1 O2
  7
Arial
 11
1.0
 21
0.0
 31
0.0
 73
         1
 44
0.66
  0
ARC
  5
27E
100
AcDbEntity
  8
8006_1L
390
0
  6
DASHDOT
100
AcDbCircle
 10
101.201709227
 20
176.8893160908
 30
0.0
 40
35.5909909826
100
AcDbArc
 50
148.2150390556
 51
211.7849609444
  0
MTEXT
  5
27F
100
AcDbEntity
  8
8006_1L
390
0
100
AcDbMText
 10
58.5828096379
 20
172.4649901015
 30
0.0
 40
4.0
 41
0.0
 71
         7
 72
         1
  1
\W0.891683;>2052.4L\PM15x15x1\PT1 O2
  7
Arial
 11
1.0
 21
0.0
 31
0.0
 73
         1
 44
0.66
  0
ARC
  5
280
100
AcDbEntity
  8
8006_1L
390
0
  6
DASHDOT
100
AcDbCircle
 10
101.201709227
 20
139.3954387787
 30
0.0
 40
35.5909909826
100
AcDbArc
 50
148.2150390556
 51
211.7849609444
  0
MTEXT
  5
281
100
AcDbEntity
  8
8006_1L
390
0
100
AcDbMText
 10
58.5828096379
 20
134.9711127894
 30
0.0
 40
4.0
 41
0.0
 71
         7
 72
         1
  1
\W0.891683;>2052.4L\PM15x15x1\PT1 O2
  7
Arial
 11
1.0
 21
0.0
 31
0.0
 73
         1
 44
0.66
  0
ARC
  5
282
100
AcDbEntity
  8
8006_1L
390
0
  6
DASHDOT
100
AcDbCircle
 10
131.201709227
 20
233.9305435433
 30
0.0
 40
35.5909909826
100
AcDbArc
 50
148.2150390556
 51
211.7849609444
  0
ARC
  5
283
100
AcDbEntity
  8
8006_1L
390
0
  6
DASHDOT
100
AcDbCircle
 10
131.201709227
 20
271.4244208554
 30
0.0
 40
35.5909909826
100
AcDbArc
 50
148.2150390556
 51
211.7849609444
  0
ARC
  5
284
100
AcDbEntity
  8
8006_1L
390
0
  6
DASHDOT
100
AcDbCircle
 10
131.201709227
 20
308.9182981675
 30
0.0
 40
35.5909909826
100
AcDbArc
 50
148.2150390556
 51
211.7849609444
  0
MTEXT
  5
285
100
AcDbEntity
  8
8006_1L
390
0
100
AcDbMText
 10
88.5828096379
 20
304.4939721782
 30
0.0
 40
4.0
 41
0.0
 71
         7
 72
         1
  1
\W0.891683;>2052.4L\PM15x15x1\PT1 O2
  7
Arial
 11
1.0
 21
0.0
 31
0.0
 73
         1
 44
0.66
  0
MTEXT
  5
286
100
AcDbEntity
  8
8006_1L
390
0
100
AcDbMText
 10
88.5828096379
 20
267.0000948661
 30
0.0
 40
4.0
 41
0.0
 71
         7
 72
         1
  1
\W0.891683;>2052.4L\PM15x15x1\PT1 O2
  7
Arial
 11
1.0
 21
0.0
 31
0.0
 73
         1
 44
0.66
  0
MTEXT
  5
287
100
AcDbEntity
  8
8006_1L
390
0
100
AcDbMText
 10
88.5828096379
 20
229.506217554
 30
0.0
 40
4.0
 41
0.0
 71
         7
 72
         1
  1
\W0.891683;>2052.4L\PM15x15x1\PT1 O2
  7
Arial
 11
1.0
 21
0.0
 31
0.0
 73
         1
 44
0.66
  0
MTEXT
  5
288
100
AcDbEntity
  8
8006_1L
390
0
100
AcDbMText
 10
88.5828096379
 20
172.4649901015
 30
0.0
 40
4.0
 41
0.0
 71
         7
 72
         1
  1
\W0.891683;>2052.4L\PM15x15x1\PT1 O2
  7
Arial
 11
1.0
 21
0.0
 31
0.0
 73
         1
 44
0.66
  0
MTEXT
  5
289
100
AcDbEntity
  8
8006_1L
390
0
100
AcDbMText
 10
88.5828096379
 20
134.9711127894
 30
0.0
 40
4.0
 41
0.0
 71
         7
 72
         1
  1
\W0.891683;>2052.4L\PM15x15x1\PT1 O2
  7
Arial
 11
1.0
 21
0.0
 31
0.0
 73
         1
 44
0.66
  0
ARC
  5
28A
100
AcDbEntity
  8
8006_1L
390
0
  6
DASHDOT
100
AcDbCircle
 10
131.201709227
 20
139.3954387787
 30
0.0
 40
35.5909909826
100
AcDbArc
 50
148.2150390556
 51
211.7849609444
  0
ARC
  5
28B
100
AcDbEntity
  8
8006_1L
390
0
  6
DASHDOT
100
AcDbCircle
 10
131.201709227
 20
176.8893160908
 30
0.0
 40
35.5909909826
100
AcDbArc
 50
148.2150390556
 51
211.7849609444
  0
ARC
  5
28C
100
AcDbEntity
  8
8006_1L
390
0
  6
DASHDOT
100
AcDbCircle
 10
147.5158797126
 20
304.1652368235
 30
0.0
 40
21.3713799407
100
AcDbArc
 50
140.8253828335
 51
219.1746171665
  0
MTEXT
  5
28D
100
AcDbEntity
  8
8006_1L
390
0
100
AcDbMText
 10
117.2965506596
 20
305.7415565227
 30
0.0
 40
4.0
 41
0.0
 71
         7
 72
         1
  1
\W0.891719;>2053.3F\PM50+x2 T2 O2
  7
Arial
 73
         1
 44
0.66
  0
MTEXT
  5
28E
100
AcDbEntity
  8
8006_1L
390
0
100
AcDbMText
 10
117.2965506596
 20
278.7415565227
 30
0.0
 40
4.0
 41
0.0
 71
         7
 72
         1
  1
\W0.891723;>2053.3G\PM50+x2 T2 O2
  7
Arial
 73
         1
 44
0.66
  0
ARC
  5
28F
100
AcDbEntity
  8
8006_1L
390
0
  6
DASHDOT
100
AcDbCircle
 10
147.5158797126
 20
277.1652368235
 30
0.0
 40
21.3713799407
100
AcDbArc
 50
140.8253828335
 51
219.1746171665
  0
MTEXT
  5
290
100
AcDbEntity
  8
8006_1L
390
0
100
AcDbMText
 10
117.2965506596
 20
251.7415565227
 30
0.0
 40
4.0
 41
0.0
 71
         7
 72
         1
  1
\W0.891707;>2053.3H\PM50+x2 T2 O2
  7
Arial
 73
         1
 44
0.66
  0
ARC
  5
291
100
AcDbEntity
  8
8006_1L
390
0
  6
DASHDOT
100
AcDbCircle
 10
147.5158797126
 20
250.1652368235
 30
0.0
 40
21.3713799407
100
AcDbArc
 50
140.8253828335
 51
219.1746171665
  0
MTEXT
  5
292
100
AcDbEntity
  8
8006_1L
390
0
100
AcDbMText
 10
117.2965506596
 20
224.7415565227
 30
0.0
 40
4.0
 41
0.0
 71
         7
 72
         1
  1
\W0.891704;>2053.3M\PM50+x2 T2 O2
  7
Arial
 73
         1
 44
0.66
  0
ARC
  5
293
100
AcDbEntity
  8
8006_1L
390
0
  6
DASHDOT
100
AcDbCircle
 10
147.5158797126
 20
223.1652368235
 30
0.0
 40
21.3713799407
100
AcDbArc
 50
140.8253828335
 51
219.1746171665
  0
MTEXT
  5
294
100
AcDbEntity
  8
8006_1L
390
0
100
AcDbMText
 10
117.2965506596
 20
179.2288665179
 30
0.0
 40
4.0
 41
0.0
 71
         7
 72
         1
  1
\W0.891727;>2053.3P\PM50+x2 T2 O2
  7
Arial
 73
         1
 44
0.66
  0
ARC
  5
295
100
AcDbEntity
  8
8006_1L
390
0
  6
DASHDOT
100
AcDbCircle
 10
147.5158797126
 20
177.6525468187
 30
0.0
 40
21.3713799407
100
AcDbArc
 50
140.8253828335
 51
219.1746171665
  0
MTEXT
  5
296
100
AcDbEntity
  8
8006_1L
390
0
100
AcDbMText
 10
117.2965506596
 20
152.2288665179
 30
0.0
 40
4.0
 41
0.0
 71
         7
 72
         1
  1
\W0.891723;>2053.3Q\PM50+x2 T2 O2
  7
Arial
 73
         1
 44
0.66
  0
ARC
  5
297
100
AcDbEntity
  8
8006_1L
390
0
  6
DASHDOT
100
AcDbCircle
 10
147.5158797126
 20
150.6525468187
 30
0.0
 40
21.3713799407
100
AcDbArc
 50
140.8253828335
 51
219.1746171665
  0
MTEXT
  5
298
100
AcDbEntity
  8
8006_1L
390
0
100
AcDbMText
 10
117.2965506596
 20
125.2288665179
 30
0.0
 40
4.0
 41
0.0
 71
         7
 72
         1
  1
\W0.891727;>2053.3V\PM50+x2 T2 O2
  7
Arial
 73
         1
 44
0.66
  0
ARC
  5
299
100
AcDbEntity
  8
8006_1L
390
0
  6
DASHDOT
100
AcDbCircle
 10
147.5158797126
 20
123.6525468187
 30
0.0
 40
21.3713799407
100
AcDbArc
 50
140.8253828335
 51
219.1746171665
  0
MTEXT
  5
29A
100
AcDbEntity
  8
8006_1L
390
0
100
AcDbMText
 10
207.2965506596
 20
315.7415565227
 30
0.0
 40
4.0
 41
0.0
 71
         7
 72
         1
  1
\W0.891701;>2053.3W\PM50+x2 T2 O2
  7
Arial
 73
         1
 44
0.66
  0
ARC
  5
29B
100
AcDbEntity
  8
8006_1L
390
0
  6
DASHDOT
100
AcDbCircle
 10
237.5158797126
 20
314.1652368235
 30
0.0
 40
21.3713799407
100
AcDbArc
 50
140.8253828335
 51
219.1746171665
  0
MTEXT
  5
29C
100
AcDbEntity
  8
8006_1L
390
0
100
AcDbMText
 10
207.2965506596
 20
288.7415565227
 30
0.0
 40
4.0
 41
0.0
 71
         7
 72
         1
  1
\W0.891727;>2053.3X\PM50+x2 T2 O2
  7
Arial
 73
         1
 44
0.66
  0
ARC
  5
29D
100
AcDbEntity
  8
8006_1L
390
0
  6
DASHDOT
100
AcDbCircle
 10
237.5158797126
 20
287.1652368235
 30
0.0
 40
21.3713799407
100
AcDbArc
 50
140.8253828335
 51
219.1746171665
  0
MTEXT
  5
29E
100
AcDbEntity
  8
8006_1L
390
0
100
AcDbMText
 10
207.2965506596
 20
232.1302977917
 30
0.0
 40
4.0
 41
0.0
 71
         7
 72
         1
  1
\W0.891707;>2053.3R\PM50+x2 T2 O2
  7
Arial
 73
         1
 44
0.66
  0
ARC
  5
29F
100
AcDbEntity
  8
8006_1L
390
0
  6
DASHDOT
100
AcDbCircle
 10
237.5158797126
 20
230.5539780925
 30
0.0
 40
21.3713799407
100
AcDbArc
 50
140.8253828335
 51
219.1746171665
  0
ARC
  5
2A0
100
AcDbEntity
  8
8006_1L
390
0
100
AcDbCircle
 10
73.7641423676
 20
205.409929817
 30
0.0
 40
10.1712287206
100
AcDbArc
 50
106.0721365323
 51
253.9278634677
  0
ARC
  5
2A1
100
AcDbEntity
  8
8006_1L
390
0
100
AcDbCircle
 10
103.7641423676
 20
205.409929817
 30
0.0
 40
10.1712287206
100
AcDbArc
 50
106.0721365323
 51
253.9278634677
  0
ARC
  5
2A2
100
AcDbEntity
  8
8006_1L
390
0
100
AcDbCircle
 10
69.39354372
 20
305.3393628674
 30
0.0
 40
22.3799420012
100
AcDbArc
 50
86.0164895657
 51
214.4937478404
  0
LINE
  5
2A3
100
AcDbEntity
  8
8006_1L
390
0
100
AcDbLine
 10
70.9482642967
 20
120.6485001226
 30
0.0
 11
100.9482642967
 21
327.6652368235
 31
0.0
  0
LINE
  5
2A4
100
AcDbEntity
  8
8006_1L
390
0
100
AcDbLine
 10
130.9482642967
 20
110.1525468187
 30
0.0
 11
220.9482642967
 21
327.6652368235
 31
0.0
  0
CIRCLE
  5
2A5
100
AcDbEntity
  8
8006_1L
390
0
  6
PHANTOM
100
AcDbCircle
 10
78.5665474106
 20
249.720957479
 30
0.0
 40
3.0
  0
CIRCLE
  5
2A6
100
AcDbEntity
  8
8006_1L
390
0
  6
PHANTOM
100
AcDbCircle
 10
78.1274156579
 20
125.8858032173
 30
0.0
 40
3.0
  0
CIRCLE
  5
2A7
100
AcDbEntity
  8
8006_1L
390
0
  6
PHANTOM
100
AcDbCircle
 10
138.5665474106
 20
249.720957479
 30
0.0
 40
3.0
  0
CIRCLE
  5
2A8
100
AcDbEntity
  8
8006_1L
390
0
  6
PHANTOM
100
AcDbCircle
 10
138.3204147398
 20
118.5518381018
 30
0.0
 40
3.0
  0
CIRCLE
  5
2A9
100
AcDbEntity
  8
8006_1L
390
0
  6
PHANTOM
100
AcDbCircle
 10
198.5665474106
 20
199.720957479
 30
0.0
 40
3.0
  0
CIRCLE
  5
2AA
100
AcDbEntity
  8
8006_1L
390
0
  6
PHANTOM
100
AcDbCircle
 10
258.5665474106
 20
249.720957479
 30
0.0
 40
3.0
  0
ARC
  5
2AB
100
AcDbEntity
  8
8006_1L
390
0
  6
DASHDOT
100
AcDbCircle
 10
231.8014792774
 20
203.5539780925
 30
0.0
 40
17.3217284189
100
AcDbArc
 50
128.797257958
 51
231.202742042
  0
MTEXT
  5
2AC
100
AcDbEntity
  8
8006_1L
390
0
100
AcDbMText
 10
197.7251509429
 20
203.5477216606
 30
0.0
 40
4.0
 41
0.0
 71
         7
 72
         1
  1
\W0.810848;>2053.12P\PM60x2 T2 O2
  7
Arial
 73
         1
 44
0.66
  0
ARC
  5
2AD
100
AcDbEntity
  8
8006_1L
390
0
  6
DASHDOT
100
AcDbCircle
 10
231.8014792774
 20
176.5539780925
 30
0.0
 40
17.3217284189
100
AcDbArc
 50
128.797257958
 51
231.202742042
  0
MTEXT
  5
2AE
100
AcDbEntity
  8
8006_1L
390
0
100
AcDbMText
 10
197.7251509429
 20
176.5477216606
 30
0.0
 40
4.0
 41
0.0
 71
         7
 72
         1
  1
\W0.810848;>2053.12P\PM60x2 T2 O2
  7
Arial
 73
         1
 44
0.66
  0
ARC
  5
2AF
100
AcDbEntity
  8
8006_1L
390
0
  6
DASHDOT
100
AcDbCircle
 10
231.8014792774
 20
125.6803154274
 30
0.0
 40
17.3217284189
100
AcDbArc
 50
128.797257958
 51
231.202742042
  0
MTEXT
  5
2B0
100
AcDbEntity
  8
8006_1L
390
0
100
AcDbMText
 10
197.7251509429
 20
125.6740589956
 30
0.0
 40
4.0
 41
0.0
 71
         7
 72
         1
  1
\W0.810848;>2053.12P\PM60x2 T2 O2
  7
Arial
 73
         1
 44
0.66
  0
ARC
  5
2B1
100
AcDbEntity
  8
8006_1L
390
0
  6
DASHDOT
100
AcDbCircle
 10
231.8014792774
 20
98.6803154274
 30
0.0
 40
17.3217284189
100
AcDbArc
 50
128.797257958
 51
231.202742042
  0
MTEXT
  5
2B2
100
AcDbEntity
  8
8006_1L
390
0
100
AcDbMText
 10
197.7251509429
 20
98.6740589956
 30
0.0
 40
4.0
 41
0.0
 71
         7
 72
         1
  1
\W0.810848;>2053.12P\PM60x2 T2 O2
  7
Arial
 73
         1
 44
0.66
  0
ARC
  5
2B3
100
AcDbEntity
  8
8006_1L
390
0
  6
DASHDOT
100
AcDbCircle
 10
231.8014792774
 20
71.6803154274
 30
0.0
 40
17.3217284189
100
AcDbArc
 50
128.797257958
 51
231.202742042
  0
MTEXT
  5
2B4
100
AcDbEntity
  8
8006_1L
390
0
100
AcDbMText
 10
197.7251509429
 20
76.6740589956
 30
0.0
 40
4.0
 41
0.0
 71
         7
 72
         1
  1
\W0.810848;>2053.12P\PM60x2 T2 O2
  7
Arial
 73
         1
 44
0.66
  0
CIRCLE
  5
2B5
100
AcDbEntity
  8
8006_1L
390
0
  6
PHANTOM
100
AcDbCircle
 10
258.3204147398
 20
118.5518381018
 30
0.0
 40
3.0
  0
LINE
  5
2B6
100
AcDbEntity
  8
8006_1L
390
0
  6
HIDDEN
100
AcDbLine
 10
100.9482642967
 20
120.6485001226
 30
0.0
 11
130.9482642967
 21
317.6652368235
 31
0.0
  0
LINE
  5
2B7
100
AcDbEntity
  8
8006_1L
390
0
  6
HIDDEN
100
AcDbLine
 10
220.9482642967
 20
58.1803154274
 30
0.0
 11
50.9482642967
 21
297.6652368235
 31
0.0
  0
ARC
  5
2B8
100
AcDbEntity
  8
8006_1L
390
0
  6
HIDDEN
100
AcDbCircle
 10
245.081688595
 20
258.859607458
 30
0.0
 40
28.3130505115
100
AcDbArc
 50
148.4712748606
 51
211.5287251394
  0
ARC
  5
2B9
100
AcDbEntity
  8
8006_1L
390
0
  6
HIDDEN
100
AcDbCircle
 10
135.1440278368
 20
200.4088918211
 30
0.0
 40
10.1628910497
100
AcDbArc
 50
114.3840800032
 51
245.6159199968
  0
ARC
  5
2BA
100
AcDbEntity
  8
8006_1L
390
0
  6
HIDDEN
100
AcDbCircle
 10
225.8126968922
 20
151.1171467599
 30
0.0
 40
12.8899436282
100
AcDbArc
 50
112.171611168
 51
247.828388832
  0
CIRCLE
  5
2BB
100
AcDbEntity
  8
2913_1 AUFSPANNPLATTE
390
0
 62
         8
100
AcDbCircle
 10
228.4482642967
 20
336.6652368235
 30
0.0
 40
2.5
  0
CIRCLE
  5
2BC
100
AcDbEntity
  8
2913_1 AUFSPANNPLATTE
390
0
 62
         8
100
AcDbCircle
 10
138.4482642967
 20
336.6652368235
 30
0.0
 40
2.5
  0
CIRCLE
  5
2BD
100
AcDbEntity
  8
2913_1 AUFSPANNPLATTE
390
0
 62
         8
100
AcDbCircle
 10
108.4482642967
 20
336.6652368235
 30
0.0
 40
2.5
  0
CIRCLE
  5
2BE
100
AcDbEntity
  8
2913_1 AUFSPANNPLATTE
390
0
 62
         8
100
AcDbCircle
 10
168.4482642967
 20
336.6652368235
 30
0.0
 40
2.5
  0
CIRCLE
  5
2BF
100
AcDbEntity
  8
2913_1 AUFSPANNPLATTE
390
0
 62
         8
100
AcDbCircle
 10
198.4482642967
 20
336.6652368235
 30
0.0
 40
2.5
  0
CIRCLE
  5
2C0
100
AcDbEntity
  8
2913_1 AUFSPANNPLATTE
390
0
 62
         8
100
AcDbCircle
 10
258.4482642967
 20
336.6652368235
 30
0.0
 40
2.5
  0
CIRCLE
  5
2C1
100
AcDbEntity
  8
2913_1 AUFSPANNPLATTE
390
0
 62
         8
100
AcDbCircle
 10
318.4482642967
 20
336.6652368235
 30
0.0
 40
2.5
  0
CIRCLE
  5
2C2
100
AcDbEntity
  8
2913_1 AUFSPANNPLATTE
390
0
 62
         8
100
AcDbCircle
 10
348.4482642967
 20
336.6652368235
 30
0.0
 40
2.5
  0
CIRCLE
  5
2C3
100
AcDbEntity
  8
2913_1 AUFSPANNPLATTE
390
0
 62
         8
100
AcDbCircle
 10
288.4482642967
 20
336.6652368235
 30
0.0
 40
2.5
  0
CIRCLE
  5
2C4
100
AcDbEntity
  8
2913_1 AUFSPANNPLATTE
390
0
 62
         8
100
AcDbCircle
 10
378.4482642967
 20
336.6652368235
 30
0.0
 40
2.5
  0
CIRCLE
  5
2C5
100
AcDbEntity
  8
2913_1 AUFSPANNPLATTE
390
0
 62
         8
100
AcDbCircle
 10
78.4482642967
 20
336.6652368235
 30
0.0
 40
2.5
  0
TEXT
  5
2C6
100
AcDbEntity
  8
BESCHRIFTUNG
390
0
100
AcDbText
 10
430.6290666667
 20
59.2461777778
 30
0.0
 40
6.0
  1
2025-04-21
 41
1.135137385
  7
Arial
 11
430.6290666667
 21
65.2461777778
 31
0.0
100
AcDbText
 73
         3
  0
TEXT
  5
2C7
100
AcDbEntity
  8
BESCHRIFTUNG
390
0
100
AcDbText
 10
469.8958120668
 20
14.8461777778
 30
0.0
 40
5.6
  1
8006 P.1Lh 2052-FGHMPQRVWX+Zuh
 41
0.8108500861
  7
Arial
 11
469.8958120668
 21
20.4461777778
 31
0.0
100
AcDbText
 73
         3
  0
LINE
  5
2C8
100
AcDbEntity
  8
STANDARD
390
0
100
AcDbLine
 10
584.0
 20
400.0
 30
0.0
 11
10.0
 21
400.0
 31
0.0
  0
LINE
  5
2C9
100
AcDbEntity
  8
STANDARD
390
0
100
AcDbLine
 10
20.0
 20
390.0
 30
0.0
 11
20.0
 21
10.0
 31
0.0
  0
LINE
  5
2CA
100
AcDbEntity
  8
STANDARD
390
0
100
AcDbLine
 10
10.0
 20
400.0
 30
0.0
 11
10.0
 21
390.0
 31
0.0
  0
LINE
  5
2CB
100
AcDbEntity
  8
STANDARD
390
0
100
AcDbLine
 10
584.0
 20
400.0
 30
0.0
 11
584.0
 21
390.0
 31
0.0
  0
LINE
  5
2CC
100
AcDbEntity
  8
STANDARD
390
0
100
AcDbLine
 10
105.6666666667
 20
400.0
 30
0.0
 11
105.6666666667
 21
390.0
 31
0.0
  0
LINE
  5
2CD
100
AcDbEntity
  8
STANDARD
390
0
100
AcDbLine
 10
201.3333333333
 20
400.0
 30
0.0
 11
201.3333333333
 21
390.0
 31
0.0
  0
LINE
  5
2CE
100
AcDbEntity
  8
STANDARD
390
0
100
AcDbLine
 10
297.0
 20
400.0
 30
0.0
 11
297.0
 21
390.0
 31
0.0
  0
LINE
  5
2CF
100
AcDbEntity
  8
STANDARD
390
0
100
AcDbLine
 10
392.6666666667
 20
400.0
 30
0.0
 11
392.6666666667
 21
390.0
 31
0.0
  0
LINE
  5
2D0
100
AcDbEntity
  8
STANDARD
390
0
100
AcDbLine
 10
488.3333333333
 20
400.0
 30
0.0
 11
488.3333333333
 21
390.0
 31
0.0
  0
LINE
  5
2D1
100
AcDbEntity
  8
STANDARD
390
0
100
AcDbLine
 10
10.0
 20
105.0
 30
0.0
 11
20.0
 21
105.0
 31
0.0
  0
LINE
  5
2D2
100
AcDbEntity
  8
STANDARD
390
0
100
AcDbLine
 10
10.0
 20
200.0
 30
0.0
 11
20.0
 21
200.0
 31
0.0
  0
LINE
  5
2D3
100
AcDbEntity
  8
STANDARD
390
0
100
AcDbLine
 10
10.0
 20
295.0
 30
0.0
 11
20.0
 21
295.0
 31
0.0
  0
TEXT
  5
2D4
100
AcDbEntity
  8
STANDARD
390
0
100
AcDbText
 10
55.2429816231
 20
392.9464078125
 30
0.0
 40
4.4625
  1
1
 41
1.5479225906
  7
Arial
 72
         1
 11
57.8333333333
 21
392.9464078125
 31
0.0
100
AcDbText
  0
TEXT
  5
2D5
100
AcDbEntity
  8
STANDARD
390
0
100
AcDbText
 10
150.0461999423
 20
392.9464078125
 30
0.0
 40
4.4625
  1
2
 41
1.5479215945
  7
Arial
 72
         1
 11
153.5
 21
392.9464078125
 31
0.0
100
AcDbText
  0
TEXT
  5
2D6
100
AcDbEntity
  8
STANDARD
390
0
100
AcDbText
 10
245.7128639418
 20
392.9464078125
 30
0.0
 40
4.4625
  1
3
 41
1.5479227899
  7
Arial
 72
         1
 11
249.1666666667
 21
392.9464078125
 31
0.0
100
AcDbText
  0
TEXT
  5
2D7
100
AcDbEntity
  8
STANDARD
390
0
100
AcDbText
 10
341.379531053
 20
392.9464078125
 30
0.0
 40
4.4625
  1
4
 41
1.5479225906
  7
Arial
 72
         1
 11
344.8333333333
 21
392.9464078125
 31
0.0
100
AcDbText
  0
TEXT
  5
2D8
100
AcDbEntity
  8
STANDARD
390
0
100
AcDbText
 10
437.0461994978
 20
392.9464078125
 30
0.0
 40
4.4625
  1
5
 41
1.5479217937
  7
Arial
 72
         1
 11
440.5
 21
392.9464078125
 31
0.0
100
AcDbText
  0
TEXT
  5
2D9
100
AcDbEntity
  8
STANDARD
390
0
100
AcDbText
 10
532.7128643863
 20
392.9464078125
 30
0.0
 40
4.4625
  1
6
 41
1.5479225906
  7
Arial
 72
         1
 11
536.1666666667
 21
392.9464078125
 31
0.0
100
AcDbText
  0
TEXT
  5
2DA
100
AcDbEntity
  8
STANDARD
390
0
100
AcDbText
 10
11.5460543699
 20
345.4464078125
 30
0.0
 40
4.4625
  1
A
 41
1.547986837
  7
Arial
 72
         1
 11
15.0
 21
345.4464078125
 31
0.0
100
AcDbText
  0
TEXT
  5
2DB
100
AcDbEntity
  8
STANDARD
390
0
100
AcDbText
 10
11.5460534803
 20
250.4464078125
 30
0.0
 40
4.4625
  1
B
 41
1.5479872357
  7
Arial
 72
         1
 11
15.0
 21
250.4464078125
 31
0.0
100
AcDbText
  0
TEXT
  5
2DC
100
AcDbEntity
  8
STANDARD
390
0
100
AcDbText
 10
11.5457945504
 20
155.4464078125
 30
0.0
 40
4.4625
  1
C
 41
1.5481032827
  7
Arial
 72
         1
 11
15.0
 21
155.4464078125
 31
0.0
100
AcDbText
  0
TEXT
  5
2DD
100
AcDbEntity
  8
STANDARD
390
0
100
AcDbText
 10
11.5457928385
 20
60.4464078125
 30
0.0
 40
4.4625
  1
D
 41
1.54810405
  7
Arial
 72
         1
 11
15.0
 21
60.4464078125
 31
0.0
100
AcDbText
  0
LINE
  5
2DE
100
AcDbEntity
  8
STANDARD
390
0
100
AcDbLine
 10
10.0
 20
10.0
 30
0.0
 11
20.0
 21
10.0
 31
0.0
  0
LINE
  5
2DF
100
AcDbEntity
  8
STANDARD
390
0
100
AcDbLine
 10
584.0
 20
10.0
 30
0.0
 11
584.0
 21
390.0
 31
0.0
  0
LINE
  5
2E0
100
AcDbEntity
  8
STANDARD
390
0
100
AcDbLine
 10
584.0
 20
390.0
 30
0.0
 11
20.0
 21
390.0
 31
0.0
  0
LINE
  5
2E1
100
AcDbEntity
  8
STANDARD
390
0
100
AcDbLine
 10
10.0
 20
390.0
 30
0.0
 11
10.0
 21
10.0
 31
0.0
  0
LINE
  5
2E2
100
AcDbEntity
  8
STANDARD
390
0
100
AcDbLine
 10
592.0
 20
418.0
 30
0.0
 11
2.0
 21
418.0
 31
0.0
  0
LINE
  5
2E3
100
AcDbEntity
  8
STANDARD
390
0
100
AcDbLine
 10
592.0
 20
2.0
 30
0.0
 11
592.0
 21
418.0
 31
0.0
  0
LINE
  5
2E4
100
AcDbEntity
  8
STANDARD
390
0
100
AcDbLine
 10
2.0
 20
2.0
 30
0.0
 11
592.0
 21
2.0
 31
0.0
  0
LINE
  5
2E5
100
AcDbEntity
  8
STANDARD
390
0
100
AcDbLine
 10
2.0
 20
418.0
 30
0.0
 11
2.0
 21
2.0
 31
0.0
  0
LINE
  5
2E6
100
AcDbEntity
  8
STANDARD
390
0
100
AcDbLine
 10
20.0
 20
390.0
 30
0.0
 11
10.0
 21
390.0
 31
0.0
  0
LINE
  5
2E7
100
AcDbEntity
  8
STANDARD
390
0
100
AcDbLine
 10
20.0
 20
10.0
 30
0.0
 11
584.0
 21
10.0
 31
0.0
  0
MTEXT
  5
2E8
100
AcDbEntity
  8
STANDARD
390
0
100
AcDbMText
 10
431.1554454678
 20
13.041138314
 30
0.0
 40
3.1875
 41
0.0
 71
         7
 72
         1
  1

  7
Arial
 73
         1
 44
1.0352941176
  0
MTEXT
  5
2E9
100
AcDbEntity
  8
STANDARD
390
0
100
AcDbMText
 10
538.8257713869
 20
13.0331484375
 30
0.0
 40
3.1875
 41
0.0
 71
         7
 72
         1
  1

  7
Arial
 73
         1
 44
1.0352941176
  0
MTEXT
  5
2EA
100
AcDbEntity
  8
STANDARD
390
0
100
AcDbMText
 10
342.4878103004
 20
13.041138314
 30
0.0
 40
3.1875
 41
0.0
 71
         7
 72
         1
  1

  7
Arial
 73
         1
 44
1.0352941176
  0
TEXT
  5
2EB
100
AcDbEntity
  8
BESCHRIFTUNG
390
0
100
AcDbText
 10
431.0689777778
 20
43.2702222222
 30
0.0
 40
6.65
  1
10 Schlösser 15x15x1 L
 41
1.1216160373
 51
15.0
  7
Arial
 11
431.0689777778
 21
49.9202222222
 31
0.0
100
AcDbText
 73
         3
  0
TEXT
  5
2EC
100
AcDbEntity
  8
BESCHRIFTUNG
390
0
100
AcDbText
 10
506.6689777778
 20
57.2702222222
 30
0.0
 40
6.65
  1
Bl. 8006 P.1Lh
 41
1.1349200404
 51
15.0
  7
Arial
 11
506.6689777778
 21
63.9202222222
 31
0.0
100
AcDbText
 73
         3
  0
TEXT
  5
2ED
100
AcDbEntity
  8
BESCHRIFTUNG
390
0
100
AcDbText
 10
506.2290666667
 20
72.2272
 30
0.0
 40
6.65
  1
Maßstab 1:2
 41
1.1349344878
 51
15.0
  7
Arial
 11
506.2290666667
 21
78.8772
 31
0.0
100
AcDbText
 73
         3
  0
TEXT
  5
2EE
100
AcDbEntity
  8
BESCHRIFTUNG
390
0
100
AcDbText
 10
430.6290666667
 20
72.2272
 30
0.0
 40
6.65
  1
Stellwerk HMM
 41
1.1216191883
  7
Arial
 11
430.6290666667
 21
78.8772
 31
0.0
100
AcDbText
 73
         3
  0
LINE
  5
2EF
100
AcDbEntity
  8
_TEMP
370
         0
390
0
100
AcDbLine
 10
428.4388603989
 20
82.8
 30
0.0
 11
583.8268945869
 21
82.8
 31
0.0
  0
LINE
  5
2F0
100
AcDbEntity
  8
_TEMP
370
         0
390
0
100
AcDbLine
 10
428.4388603989
 20
82.8
 30
0.0
 11
428.4388603989
 21
10.0
 31
0.0
  0
LINE
  5
2F1
100
AcDbEntity
  8
_TEMP
370
         0
390
0
100
AcDbLine
 10
504.0388603989
 20
82.8
 30
0.0
 11
504.0388603989
 21
54.8
 31
0.0
  0
LINE
  5
2F2
100
AcDbEntity
  8
_TEMP
370
         0
390
0
100
AcDbLine
 10
428.4388603989
 20
54.8
 30
0.0
 11
583.8268945869
 21
54.8
 31
0.0
  0
LINE
  5
2F3
100
AcDbEntity
  8
_TEMP
370
         0
390
0
100
AcDbLine
 10
428.4388603989
 20
68.8
 30
0.0
 11
583.8268945869
 21
68.8
 31
0.0
  0
LINE
  5
2F4
100
AcDbEntity
  8
_TEMP
370
         0
390
0
100
AcDbLine
 10
428.4388603989
 20
24.0
 30
0.0
 11
583.8268945869
 21
24.0
 31
0.0
  0
LINE
  5
2F5
100
AcDbEntity
  8
_TEMP
370
         0
390
0
100
AcDbLine
 10
468.0388603989
 20
24.0
 30
0.0
 11
468.0388603989
 21
10.0
 31
0.0
  0
TEXT
  5
2F6
100
AcDbEntity
  8
BESCHRIFTUNG
390
0
100
AcDbText
 10
430.2958120668
 20
13.7961777778
 30
0.0
 40
6.65
  1
Dateiname
 41
0.829024112
 51
15.0
  7
Arial
 11
430.2958120668
 21
20.4461777778
 31
0.0
100
AcDbText
 73
         3
  0
ENDSEC
  0
SECTION
  2
OBJECTS
  0
DICTIONARY
  5
19
100
AcDbDictionary
280
         0
281
         1
  3
ACAD_GROUP
350
1A
  3
ACAD_MLINESTYLE
350
1B
  3
ACAD_LAYOUT
350
1E
  3
ACAD_PLOTSETTINGS
350
22
  3
ACAD_PLOTSTYLENAME
350
1F
  3
ACAD_WIPEOUT_VARS
350
23
  0
DICTIONARY
  5
1A
102
{ACAD_REACTORS
330
19
102
}
100
AcDbDictionary
280
         0
281
         1
  0
DICTIONARY
  5
1B
102
{ACAD_REACTORS
330
19
102
}
100
AcDbDictionary
280
         0
281
         1
  3
Standard
350
1C
  0
MLINESTYLE
  5
1C
102
{ACAD_REACTORS
330
1B
102
}
100
AcDbMlineStyle
  2
Standard
 70
         0
  3

 62
         0
 51
90.0
 52
90.0
 71
         2
 49
0.5
 62
       256
  6
ByLayer
 49
-0.5
 62
       256
  6
ByLayer
  0
ACDBDICTIONARYWDFLT
  5
1F
102
{ACAD_REACTORS
330
19
102
}
100
AcDbDictionary
281
         1
  3
Normal
350
1D
100
AcDbDictionaryWithDefault
340
1D
  0
ACDBPLACEHOLDER
  5
1D
102
{ACAD_REACTORS
330
1F
102
}
  0
LAYOUT
  5
20
102
{ACAD_REACTORS
330
1E
102
}
100
AcDbPlotSettings
  1

  2

  4

  6

 40
0.0
 41
0.0
 42
0.0
 43
0.0
 44
0.0
 45
0.0
 46
0.0
 47
0.0
 48
0.0
 49
0.0
140
0.0
141
0.0
142
1.0
143
1.0
 70
      1024
 72
         0
 73
         0
 74
         0
  7

 75
         0
147
1.0
148
0.0
149
0.0
100
AcDbLayout
  1
Model
 70
         0
 71
         0
 10
0.0
 20
0.0
 11
0.0
 21
0.0
 12
0.0
 22
0.0
 32
0.0
 14
0.0
 24
0.0
 34
0.0
 15
0.0
 25
0.0
 35
0.0
146
0.0
 13
0.0
 23
0.0
 33
0.0
 16
0.0
 26
0.0
 36
0.0
 17
0.0
 27
0.0
 37
0.0
 76
         0
330
A
331
0
345
0
346
0
  0
LAYOUT
  5
21
102
{ACAD_REACTORS
330
1E
102
}
100
AcDbPlotSettings
  1

  2

  4

  6

 40
0.0
 41
0.0
 42
0.0
 43
0.0
 44
0.0
 45
0.0
 46
0.0
 47
0.0
 48
0.0
 49
0.0
140
0.0
141
0.0
142
1.0
143
1.0
 70
         0
 72
         0
 73
         0
 74
         0
  7

 75
         0
147
1.0
148
0.0
149
0.0
100
AcDbLayout
  1
Layout1
 70
         0
 71
         0
 10
0.0
 20
0.0
 11
0.0
 21
0.0
 12
0.0
 22
0.0
 32
0.0
 14
0.0
 24
0.0
 34
0.0
 15
0.0
 25
0.0
 35
0.0
146
0.0
 13
0.0
 23
0.0
 33
0.0
 16
0.0
 26
0.0
 36
0.0
 17
0.0
 27
0.0
 37
0.0
 76
         0
330
B
331
0
345
0
346
0
  0
DICTIONARY
  5
1E
102
{ACAD_REACTORS
330
19
102
}
100
AcDbDictionary
280
         0
281
         1
  3
Layout1
350
21
  3
Model
350
20
  0
DICTIONARY
  5
22
102
{ACAD_REACTORS
330
19
102
}
100
AcDbDictionary
280
         0
281
         1
  0
WIPEOUTVARIABLES
  5
23
100
AcDbWipeoutVariables
 70
         1
  0
ENDSEC
  0
EOF
